<svg width="20" height="21" viewBox="0 0 20 21" fill="none" xmlns="http://www.w3.org/2000/svg">
<g clip-path="url(#clip0_103_5)">
<path d="M17.0709 3.36872C15.1823 1.48014 12.6711 0.440002 10 0.440002C7.32885 0.440002 4.81773 1.48014 2.92872 3.36872C1.04013 5.25773 0 7.76886 0 10.44C0 13.1111 1.04013 15.6223 2.92872 17.5109C4.8173 19.3994 7.32885 20.4396 9.99957 20.4396C12.6703 20.4396 15.1818 19.3994 17.0704 17.5109C18.959 15.6223 19.9991 13.1107 19.9991 10.44C19.9991 7.76929 18.959 5.25773 17.0704 3.36915L17.0709 3.36872ZM10 18.6977C9.65215 18.2387 9.16567 17.5434 8.68389 16.677C8.31593 16.0155 7.91631 15.1884 7.58857 14.2501H12.4119C12.0841 15.1884 11.6845 16.0155 11.3165 16.677C10.8343 17.5434 10.3483 18.2387 10.0004 18.6977H10ZM7.19536 12.9045C7.01352 12.1258 6.89971 11.2966 6.89971 10.44C6.89971 9.58342 7.01352 8.75422 7.19536 7.97551H12.8046C12.9865 8.75422 13.1003 9.58342 13.1003 10.44C13.1003 11.2966 12.9865 12.1258 12.8046 12.9045H7.19536ZM1.34563 10.44C1.34563 9.58385 1.47099 8.75679 1.70375 7.97551H5.81764C5.65377 8.75808 5.55365 9.58513 5.55365 10.44C5.55365 11.2949 5.65377 12.1219 5.81764 12.9045H1.70375C1.47099 12.1232 1.34563 11.2962 1.34563 10.44ZM10 2.18226C10.3479 2.64135 10.8343 3.33663 11.3161 4.20305C11.6841 4.86453 12.0837 5.69159 12.4114 6.62989H7.58814C7.91588 5.69159 8.3155 4.86496 8.68347 4.20305C9.16567 3.33663 9.65172 2.64135 9.99957 2.18226H10ZM14.1819 7.97551H18.2958C18.5286 8.75679 18.6539 9.58385 18.6539 10.44C18.6539 11.2962 18.5286 12.1232 18.2958 12.9045H14.1819C14.3458 12.1219 14.4459 11.2949 14.4459 10.44C14.4459 9.58513 14.3458 8.75808 14.1819 7.97551ZM17.7691 6.62989H13.8289C13.4443 5.4092 12.9364 4.34382 12.4739 3.51633C12.1231 2.88866 11.7731 2.34784 11.4671 1.91057C14.2388 2.38592 16.5647 4.1838 17.7691 6.62989ZM8.53286 1.91057C8.22694 2.34784 7.87695 2.88866 7.5261 3.51633C7.06358 4.34382 6.55571 5.4092 6.17106 6.62989H2.23087C3.43531 4.18423 5.76074 2.38592 8.53286 1.91057ZM2.23087 14.2501H6.17106C6.55571 15.4708 7.06358 16.5362 7.5261 17.3637C7.87695 17.9913 8.22694 18.5322 8.53286 18.9694C5.76074 18.4941 3.43531 16.6962 2.23087 14.2501ZM11.4671 18.9694C11.7731 18.5322 12.1231 17.9913 12.4739 17.3637C12.9364 16.5362 13.4443 15.4708 13.8289 14.2501H17.7691C16.5647 16.6958 14.2393 18.4941 11.4671 18.9694Z" fill="#404040"/>
</g>
<defs>
<clipPath id="clip0_103_5">
<rect width="20" height="20" fill="white" transform="translate(0 0.440002)"/>
</clipPath>
</defs>
</svg>
