<svg width="21" height="20" viewBox="0 0 21 20" fill="none" xmlns="http://www.w3.org/2000/svg">
<path d="M19.55 17.0825L16.32 13.8525C17.29 12.4125 17.82 10.6925 17.82 8.9025C17.82 7.1125 16.88 4.2925 15.22 2.6025C11.75 -0.8675 6.11 -0.8675 2.63 2.6025C0.94 4.2625 0 6.4925 0 8.8725C0 11.2525 0.94 13.4825 2.6 15.1725C4.29 16.8625 6.52 17.7725 8.9 17.7725C11.28 17.7725 12.41 17.2425 13.85 16.2725L17.08 19.5025C17.42 19.8425 17.86 20.0025 18.3 20.0025C18.74 20.0025 19.18 19.8425 19.52 19.5025C20.18 18.8425 20.18 17.7525 19.52 17.0625L19.55 17.0925V17.0825ZM5.05 12.7625C2.92 10.6325 2.92 7.1525 5.05 5.0225C6.12 3.9525 7.53 3.4225 8.9 3.4225C10.27 3.4225 11.69 3.9525 12.75 5.0225C14.88 7.1525 14.88 10.6325 12.75 12.7625C10.62 14.8925 7.14 14.8925 5.01 12.7625H5.04H5.05Z" fill="white"/>
</svg>
