<svg width="20" height="20" viewBox="0 0 20 20" fill="none" xmlns="http://www.w3.org/2000/svg">
<path d="M19.9997 9.97787V10.0279H19.9225C15.3506 10.0416 12.9036 12.7357 11.6549 15.0004C10.9431 16.2907 10.5361 17.582 10.3201 18.4375C10.0856 19.3647 10.0191 19.994 10.0186 20L9.99363 19.9975L9.96888 20C9.96813 19.994 9.90188 19.3632 9.66888 18.4357C9.45338 17.5797 9.04814 16.2882 8.33765 14.9972C7.12091 12.7859 4.76344 10.1641 0.401245 10.0221C0.280246 10.0261 0.158748 10.0279 0.0359996 10.0279H0.000999987V10.0161H0V9.96613H0.0282496C0.152998 9.96613 0.277497 9.96813 0.400995 9.97213C4.76469 9.83362 7.12341 7.21284 8.34165 5.00206C9.05264 3.7113 9.45913 2.41978 9.67513 1.56427C9.90888 0.636758 9.97513 0.00625008 9.97588 0L10.0009 0.00250003L10.0256 0C10.0264 0.00625008 10.0926 0.636758 10.3266 1.56427C10.5424 2.42003 10.9486 3.7113 11.6596 5.00206C12.9073 7.26659 15.3526 9.96112 19.9225 9.97787H20H19.9997Z" fill="white"/>
</svg>
