<svg width="20" height="20" viewBox="0 0 20 20" fill="none" xmlns="http://www.w3.org/2000/svg">
<g clip-path="url(#clip0_62_3)">
<path d="M15.12 11.72C13.71 11.72 12.46 12.43 11.72 13.51L8.03 11.41C8.19 10.97 8.28 10.49 8.28 10C8.28 9.51 8.19 9.03 8.03 8.59L11.72 6.49C12.47 7.57 13.71 8.28 15.12 8.28C17.4 8.28 19.26 6.42 19.26 4.14C19.26 1.86 17.41 0 15.12 0C12.83 0 10.98 1.86 10.98 4.14C10.98 4.21 10.98 4.29 10.98 4.36L6.72 6.78C6.01 6.21 5.11 5.86 4.12 5.86C1.86 5.86 0 7.72 0 10C0 12.28 1.86 14.14 4.14 14.14C5.12 14.14 6.03 13.8 6.74 13.22L11 15.64C11 15.71 11 15.79 11 15.86C11 18.14 12.86 20 15.14 20C17.42 20 19.28 18.14 19.28 15.86C19.28 13.58 17.42 11.72 15.14 11.72H15.12ZM15.12 2.21C16.18 2.21 17.05 3.07 17.05 4.14C17.05 5.21 16.19 6.07 15.12 6.07C14.05 6.07 13.19 5.21 13.19 4.14C13.19 3.07 14.05 2.21 15.12 2.21ZM4.14 11.93C3.08 11.93 2.21 11.07 2.21 10C2.21 8.93 3.07 8.07 4.14 8.07C5.21 8.07 6.07 8.93 6.07 10C6.07 11.07 5.21 11.93 4.14 11.93ZM15.12 17.79C14.06 17.79 13.19 16.93 13.19 15.86C13.19 14.79 14.05 13.93 15.12 13.93C16.19 13.93 17.05 14.79 17.05 15.86C17.05 16.93 16.19 17.79 15.12 17.79Z" fill="white"/>
</g>
<defs>
<clipPath id="clip0_62_3">
<rect width="19.26" height="20" fill="white"/>
</clipPath>
</defs>
</svg>
