{
    "asset": {
        "generator": "https://3dviewer.net",
        "version": "2.0"
    },
    "scene": 0,
    "scenes": [
        {
            "nodes": [
                0
            ]
        }
    ],
    "nodes": [
        {
            "mesh": 0
        }
    ],
    "materials": [
        {
            "name": "rubberDuckie_MatSG",
            "pbrMetallicRoughness": {
                "baseColorFactor": [
                    1,
                    1,
                    1,
                    1
                ],
                "baseColorTexture": {
                    "index": 0
                }
            },
            "emissiveFactor": [
                0,
                0,
                0
            ],
            "doubleSided": true,
            "alphaMode": "OPAQUE"
        }
    ],
    "meshes": [
        {
            "name": "rubberDuckie",
            "primitives": [
                {
                    "attributes": {
                        "POSITION": 1,
                        "NORMAL": 2,
                        "TEXCOORD_0": 3
                    },
                    "mode": 4,
                    "material": 0,
                    "indices": 0
                }
            ]
        }
    ],
    "buffers": [
        {
            "uri": "model.bin",
            "byteLength": 888640
        }
    ],
    "bufferViews": [
        {
            "buffer": 0,
            "byteOffset": 0,
            "byteLength": 369312,
            "target": 34963
        },
        {
            "buffer": 0,
            "byteOffset": 369312,
            "byteLength": 194748,
            "target": 34962
        },
        {
            "buffer": 0,
            "byteOffset": 564060,
            "byteLength": 194748,
            "target": 34962
        },
        {
            "buffer": 0,
            "byteOffset": 758808,
            "byteLength": 129832,
            "target": 34962
        }
    ],
    "accessors": [
        {
            "bufferView": 0,
            "byteOffset": 0,
            "componentType": 5125,
            "count": 92328,
            "type": "SCALAR"
        },
        {
            "bufferView": 1,
            "byteOffset": 0,
            "componentType": 5126,
            "count": 16229,
            "min": [
                -3.414994,
                0,
                -5.195277
            ],
            "max": [
                3.414994,
                11.998344,
                5.195277
            ],
            "type": "VEC3"
        },
        {
            "bufferView": 2,
            "byteOffset": 0,
            "componentType": 5126,
            "count": 16229,
            "type": "VEC3"
        },
        {
            "bufferView": 3,
            "byteOffset": 0,
            "componentType": 5126,
            "count": 16229,
            "type": "VEC2"
        }
    ],
    "images": [
        {
            "uri": "rubberDuckie_Mat_baseColor.png"
        }
    ],
    "textures": [
        {
            "source": 0
        }
    ]
}