<svg width="30" height="30" viewBox="0 0 30 30" fill="none" xmlns="http://www.w3.org/2000/svg">
<circle cx="15" cy="15" r="15" fill="#FFD4D4"/>
<path d="M15.8183 8.16976C15.9334 7.7699 16.2698 7.19593 16.566 6.89415C17.0693 6.38134 17.1742 6.34555 18.1734 6.3462C18.9499 6.34653 19.3831 6.43414 19.7568 6.66594C20.0398 6.84135 20.3835 7.20525 20.5203 7.4745C20.6821 7.79262 20.7692 8.40663 20.7692 9.22743C20.7692 9.92236 20.7022 10.7168 20.6202 10.9929C20.5383 11.2691 20.2354 12.2674 19.9474 13.2115C19.6594 14.1555 19.2566 15.2742 19.0524 15.6973C18.8484 16.1203 18.5228 16.617 18.3288 16.8007C18.1348 16.9845 17.7908 17.1326 17.5643 17.1296C17.338 17.1268 17.0387 17.0348 16.8995 16.9253C16.7603 16.8157 16.5086 16.511 16.3402 16.248C16.1717 15.985 15.9708 15.3229 15.8935 14.7767C15.8162 14.2306 15.7205 12.6841 15.681 11.3402C15.6302 9.61944 15.6709 8.68176 15.8183 8.16976Z" fill="#FE4848"/>
<path d="M9.75164 10.2248C9.84712 10.092 10.1771 9.82722 10.4851 9.63628C10.7929 9.44551 11.2979 9.28922 11.6073 9.28922C11.9167 9.28922 12.4004 9.43225 12.682 9.60685C12.9638 9.7816 13.2838 10.094 13.3933 10.301C13.5029 10.5081 13.6625 10.9719 13.748 11.3315C13.8335 11.6912 13.8956 12.39 13.8859 12.8845C13.8763 13.379 13.8112 14.5928 13.7412 15.5818C13.6459 16.9305 13.5273 17.5457 13.2666 18.0426C13.0753 18.407 12.7304 18.7926 12.4999 18.8994C12.175 19.0499 12.0108 19.0493 11.7705 18.8966C11.5998 18.7882 11.2818 18.366 11.0639 17.9581C10.8458 17.5502 10.4087 16.4298 10.0926 15.4681C9.77639 14.5063 9.51777 13.5552 9.51777 13.3545C9.51777 13.1538 9.43451 12.7554 9.33277 12.4691C9.18891 12.0645 9.19566 11.7838 9.36299 11.2074C9.48129 10.7997 9.65633 10.3575 9.75164 10.2248Z" fill="#FE4848"/>
<path d="M15.3224 19.7109C15.5257 19.2693 15.8761 18.8064 16.101 18.682C16.3259 18.5576 16.7484 18.4528 17.0402 18.4492C17.3318 18.4456 17.7871 18.5566 18.0518 18.6959C18.3166 18.835 18.6744 19.1845 18.8468 19.4724C19.0195 19.7601 19.1608 20.2531 19.1608 20.5678C19.1608 20.8825 19.0195 21.3755 18.8468 21.6633C18.6744 21.9511 18.3166 22.3006 18.0518 22.4398C17.7871 22.579 17.3245 22.693 17.0238 22.693C16.7197 22.693 16.2434 22.5297 15.951 22.3252C15.6087 22.0858 15.3427 21.7053 15.1888 21.2356C14.9661 20.5546 14.9736 20.4684 15.3224 19.7109Z" fill="#FE4848"/>
<path d="M10.8037 21.8756C10.8037 21.3803 10.921 21.1351 11.3823 20.6659C11.823 20.2176 12.0931 20.0774 12.5155 20.0774C12.8204 20.0774 13.2692 20.1822 13.5128 20.3103C13.7565 20.4385 14.0421 20.7362 14.1477 20.9719C14.2534 21.2077 14.3398 21.6436 14.3398 21.9408C14.3398 22.238 14.1746 22.7311 13.9727 23.0366C13.6467 23.53 13.5146 23.5975 12.7908 23.6406C12.0394 23.6854 11.9306 23.6429 11.3899 23.093C10.9212 22.6163 10.8037 22.3724 10.8037 21.8756Z" fill="#FE4848"/>
</svg>
