<svg width="41" height="41" viewBox="0 0 41 41" fill="none" xmlns="http://www.w3.org/2000/svg">
<path d="M16.8888 27.926L9.17426 20.2097L11.7452 17.6388L16.8888 22.7806L27.1724 12.4951L29.7452 15.0678L16.8888 27.926Z" fill="#00F0FF"/>
<path fill-rule="evenodd" clip-rule="evenodd" d="M0.0833435 20.083C0.0833435 9.03755 9.03789 0.0830078 20.0833 0.0830078C31.1288 0.0830078 40.0833 9.03755 40.0833 20.083C40.0833 31.1285 31.1288 40.083 20.0833 40.083C9.03789 40.083 0.0833435 31.1285 0.0833435 20.083ZM20.0833 36.4466C17.9344 36.4466 15.8066 36.0234 13.8213 35.201C11.8359 34.3787 10.032 33.1734 8.51251 31.6538C6.993 30.1343 5.78766 28.3304 4.96531 26.3451C4.14296 24.3598 3.71971 22.2319 3.71971 20.083C3.71971 17.9341 4.14296 15.8062 4.96531 13.8209C5.78766 11.8356 6.993 10.0317 8.51251 8.51217C10.032 6.99267 11.8359 5.78733 13.8213 4.96498C15.8066 4.14263 17.9344 3.71937 20.0833 3.71937C24.4233 3.71937 28.5854 5.44339 31.6542 8.51217C34.723 11.5809 36.447 15.7431 36.447 20.083C36.447 24.4229 34.723 28.5851 31.6542 31.6538C28.5854 34.7226 24.4233 36.4466 20.0833 36.4466Z" fill="#00F0FF"/>
</svg>
