<svg width="37" height="37" viewBox="0 0 37 37" fill="none" xmlns="http://www.w3.org/2000/svg">
<path d="M15.3324 25.5102L8.4375 18.6137L10.7352 16.316L15.3324 20.9115L24.5234 11.7189L26.8227 14.0182L15.3324 25.5102Z" fill="#FE4848"/>
<path fill-rule="evenodd" clip-rule="evenodd" d="M0.3125 18.5C0.3125 8.62813 8.31563 0.625 18.1875 0.625C28.0594 0.625 36.0625 8.62813 36.0625 18.5C36.0625 28.3719 28.0594 36.375 18.1875 36.375C8.31563 36.375 0.3125 28.3719 0.3125 18.5ZM18.1875 33.125C16.2669 33.125 14.3651 32.7467 12.5908 32.0117C10.8164 31.2768 9.20412 30.1995 7.84606 28.8414C6.48801 27.4834 5.41074 25.8711 4.67576 24.0967C3.94079 22.3224 3.5625 20.4206 3.5625 18.5C3.5625 16.5794 3.94079 14.6776 4.67576 12.9033C5.41074 11.1289 6.48801 9.51662 7.84606 8.15856C9.20412 6.80051 10.8164 5.72324 12.5908 4.98826C14.3651 4.25329 16.2669 3.875 18.1875 3.875C22.0663 3.875 25.7862 5.41584 28.5289 8.15856C31.2717 10.9013 32.8125 14.6212 32.8125 18.5C32.8125 22.3788 31.2717 26.0987 28.5289 28.8414C25.7862 31.5842 22.0663 33.125 18.1875 33.125Z" fill="#FE4848"/>
</svg>
