<svg width="14" height="15" viewBox="0 0 14 15" fill="none" xmlns="http://www.w3.org/2000/svg">
<path d="M13.7813 7.7502C13.7813 11.4963 10.7188 14.5314 7.00006 14.5314C3.25397 14.5314 0.218811 11.4963 0.218811 7.7502C0.218811 4.03145 3.25397 0.968948 7.00006 0.968948C10.7188 0.968948 13.7813 4.03145 13.7813 7.7502ZM6.20709 11.3596L11.2383 6.32832C11.4024 6.16426 11.4024 5.86348 11.2383 5.69942L10.6094 5.09785C10.4454 4.90645 10.1719 4.90645 10.0079 5.09785L5.90631 9.19942L3.9649 7.28535C3.80084 7.09395 3.5274 7.09395 3.36334 7.28535L2.73444 7.88692C2.57037 8.05098 2.57037 8.35176 2.73444 8.51582L5.57819 11.3596C5.74225 11.5236 6.04303 11.5236 6.20709 11.3596Z" fill="black"/>
</svg>
