<svg width="33" height="32" viewBox="0 0 33 32" fill="none" xmlns="http://www.w3.org/2000/svg">
<path d="M16.1889 0.5C24.8402 0.5 32.3778 6.44393 32.3778 14.3686C32.3778 22.2933 24.8402 28.2373 16.1889 28.2373C15.339 28.2373 14.502 28.1818 13.6861 28.0741L8.99131 31.2264C8.72492 31.4052 8.41191 31.5004 8.09184 31.5C7.77178 31.4996 7.45901 31.4036 7.19307 31.2241C6.92713 31.0446 6.71995 30.7896 6.59772 30.4915C6.47548 30.1934 6.44367 29.8654 6.50631 29.5491L7.22672 25.9253C2.95933 23.4893 0 19.2912 0 14.3686C0 6.44393 7.53755 0.5 16.1889 0.5ZM16.1889 3.76321C8.74686 3.76321 3.23778 8.77713 3.23778 14.3686C3.23778 18.1784 5.73734 21.6701 9.74086 23.5627C10.0685 23.7176 10.3353 23.9788 10.4984 24.3044C10.6616 24.63 10.7118 25.0014 10.641 25.3591L10.4483 26.3267L12.4088 25.0083C12.7515 24.7782 13.1683 24.6884 13.5744 24.7571C14.4162 24.899 15.2904 24.9741 16.1889 24.9741C23.6309 24.9741 29.14 19.9601 29.14 14.3686C29.14 8.77713 23.6309 3.76321 16.1889 3.76321Z" fill="white"/>
<circle cx="9.30007" cy="14.6223" r="2.41111" fill="white"/>
<circle cx="16.189" cy="14.6223" r="2.41111" fill="white"/>
<circle cx="23.0779" cy="14.6223" r="2.41111" fill="white"/>
</svg>
