<svg width="27" height="28" viewBox="0 0 27 28" fill="none" xmlns="http://www.w3.org/2000/svg">
<path d="M17.7427 18.2427C17.1855 18.7998 16.5241 19.2418 15.7961 19.5433C15.0682 19.8449 14.2879 20.0001 13.5 20.0001C12.7121 20.0001 11.9318 19.8449 11.2039 19.5433C10.4759 19.2418 9.81449 18.7998 9.25733 18.2427M25.5 14C25.5 15.5759 25.1896 17.1363 24.5866 18.5922C23.9835 20.0481 23.0996 21.371 21.9853 22.4853C20.871 23.5996 19.5481 24.4835 18.0922 25.0866C16.6363 25.6896 15.0759 26 13.5 26C11.9241 26 10.3637 25.6896 8.9078 25.0866C7.45189 24.4835 6.12902 23.5996 5.01472 22.4853C3.90042 21.371 3.0165 20.0481 2.41345 18.5922C1.81039 17.1363 1.5 15.5759 1.5 14C1.5 10.8174 2.76428 7.76516 5.01472 5.51472C7.26516 3.26428 10.3174 2 13.5 2C16.6826 2 19.7348 3.26428 21.9853 5.51472C24.2357 7.76516 25.5 10.8174 25.5 14ZM10.5 11C10.5 11.552 10.276 12 10 12C9.724 12 9.5 11.552 9.5 11C9.5 10.448 9.724 10 10 10C10.276 10 10.5 10.448 10.5 11ZM10 11H10.0107V11.02H10V11ZM17.5 11C17.5 11.552 17.276 12 17 12C16.724 12 16.5 11.552 16.5 11C16.5 10.448 16.724 10 17 10C17.276 10 17.5 10.448 17.5 11ZM17 11H17.0107V11.02H17V11Z" stroke="white" stroke-width="3" stroke-linecap="round" stroke-linejoin="round"/>
</svg>
