<svg width="29" height="27" viewBox="0 0 29 27" fill="none" xmlns="http://www.w3.org/2000/svg">
<path d="M28.657 10.4239L28.6573 10.4239L28.6484 10.3528C28.6483 10.3516 28.6482 10.3506 28.648 10.3494C28.6479 10.3484 28.6478 10.3474 28.6476 10.3464L28.6143 10.0791C28.6076 10.0254 28.5999 9.96426 28.5912 9.89449L28.5842 9.83894L28.57 9.84062C28.2196 7.91668 27.2571 6.09085 25.7665 4.53185C24.2827 2.98033 22.3551 1.75531 20.1919 0.989234C18.3386 0.332862 16.3721 0 14.3473 0C11.6137 0 8.95885 0.620738 6.66988 1.79506C2.25593 4.05944 -0.347278 8.22158 0.0374788 12.3987C0.236638 14.5602 1.11367 16.6177 2.57385 18.3489C3.9482 19.9785 5.80737 21.2935 7.95026 22.1518C9.26785 22.6794 10.5706 22.9281 11.95 23.1914L12.1115 23.2223C12.4913 23.2948 12.5934 23.3945 12.6197 23.434C12.6685 23.5073 12.643 23.6518 12.6234 23.7314C12.6054 23.8048 12.5868 23.8781 12.5682 23.9514C12.4201 24.5345 12.267 25.1376 12.3873 25.8025C12.5256 26.5668 13.0199 27.0051 13.7435 27.0052H13.7437C14.522 27.0052 15.4079 26.5011 15.994 26.1676L16.0723 26.1232C17.4707 25.3303 18.7881 24.4359 19.7795 23.7453C21.949 22.234 24.4081 20.5209 26.2517 18.3048C28.1081 16.0728 28.9826 13.2046 28.657 10.4239ZM8.94499 14.6527H6.46694C6.09245 14.6527 5.78887 14.3596 5.78887 13.998V8.97596C5.78887 8.61439 6.09245 8.32128 6.46694 8.32128C6.84143 8.32128 7.14501 8.61439 7.14501 8.97596V13.3433H8.9449C9.31939 13.3433 9.62297 13.6364 9.62297 13.998C9.62306 14.3596 9.31948 14.6527 8.94499 14.6527ZM11.5301 13.9802C11.5301 14.3418 11.2265 14.6349 10.852 14.6349C10.4775 14.6349 10.1739 14.3418 10.1739 13.9802V8.95819C10.1739 8.59662 10.4775 8.30351 10.852 8.30351C11.2265 8.30351 11.5301 8.59662 11.5301 8.95819V13.9802ZM17.6593 13.9802C17.6593 14.2639 17.4701 14.5153 17.1906 14.6029C17.1216 14.6245 17.051 14.635 16.9813 14.635C16.7683 14.635 16.5625 14.5378 16.4324 14.3649L13.9907 11.1179V13.9803C13.9907 14.3419 13.6871 14.635 13.3126 14.635C12.9381 14.635 12.6346 14.3419 12.6346 13.9803V9.10194C12.6346 8.81828 12.8237 8.56688 13.1032 8.47924C13.3828 8.3917 13.6888 8.48766 13.8614 8.71727L16.3031 11.9642V8.95819C16.3031 8.59662 16.6067 8.30351 16.9812 8.30351C17.3557 8.30351 17.6593 8.59662 17.6593 8.95819V13.9802ZM22.6002 14.5318H19.2442C18.8697 14.5318 18.5661 14.2387 18.5661 13.8771V11.3662V8.85513C18.5661 8.49355 18.8697 8.20044 19.2442 8.20044H22.496C22.8705 8.20044 23.1741 8.49355 23.1741 8.85513C23.1741 9.2167 22.8705 9.50982 22.496 9.50982H19.9223V10.7115H22.0109C22.3854 10.7115 22.689 11.0047 22.689 11.3662C22.689 11.7278 22.3854 12.0209 22.0109 12.0209H19.9223V13.2225H22.6002C22.9746 13.2225 23.2782 13.5156 23.2782 13.8771C23.2782 14.2387 22.9746 14.5318 22.6002 14.5318Z" fill="#00B900"/>
</svg>
