<svg width="53" height="54" viewBox="0 0 53 54" fill="none" xmlns="http://www.w3.org/2000/svg">
<path d="M51.0729 30.5681C51.0729 28.8708 49.7919 27.4776 47.7102 27.4776H33.0024L32.9704 27.3976C32.9704 27.3976 32.0416 25.7242 34.0752 21.769C35.7326 18.5424 35.5404 15.3959 33.8831 12.0012C32.3458 8.84665 27.7261 9.21494 27.2297 12.3615C26.7333 15.508 26.4611 17.8779 22.0416 21.6329C17.8142 25.2278 17.4058 30.6242 17.4058 30.6242H2.28967L2.40176 46.9093H17.6861C17.6861 46.9093 20.1681 52.1535 28.1184 52.1535L33.2025 52.1775L33.1625 52.2095H40.9928C42.9224 52.2095 44.4996 50.8164 44.4996 49.119C44.4996 47.4217 42.9224 46.0286 40.9928 46.0286H45.3403C47.2699 46.0286 48.8471 44.6354 48.8471 42.9381C48.8471 41.2407 47.2699 39.8476 45.3403 39.8476H46.6614C48.5909 39.8476 50.1682 38.4545 50.1682 36.7571C50.1682 35.0597 48.5909 33.6666 46.6614 33.6666H47.7182C49.8079 33.6666 51.0809 32.2735 51.0809 30.5761L51.0729 30.5681Z" fill="white"/>
<path d="M40.5447 33.6592H46.6136C48.5432 33.6592 50.1204 35.0523 50.1204 36.7497C50.1204 38.447 48.5432 39.8402 46.6136 39.8402H41.0972" stroke="#231815" stroke-width="2.5" stroke-linecap="round" stroke-linejoin="round"/>
<path d="M40.5447 39.8398H45.2846C47.2141 39.8398 48.7914 41.233 48.7914 42.9303C48.7914 44.6277 47.2141 46.0208 45.2846 46.0208H40.5447" stroke="#231815" stroke-width="2.5" stroke-linecap="round" stroke-linejoin="round"/>
<path d="M40.2084 46.0215H40.937C42.8666 46.0215 44.4438 47.4146 44.4438 49.112C44.4438 50.8093 42.8666 52.2025 40.937 52.2025H33.1067" stroke="#231815" stroke-width="2.5" stroke-linecap="round" stroke-linejoin="round"/>
<path d="M40.985 33.6586H47.6624C49.752 33.6586 51.0251 32.2655 51.0251 30.5681C51.0251 28.8708 49.744 27.4776 47.6624 27.4776H32.9545L32.9225 27.3976C32.9225 27.3976 31.9938 25.7242 34.0274 21.769C35.6847 18.5424 35.4926 15.3959 33.8352 12.0012C32.298 8.84665 27.6783 9.21494 27.1819 12.3615C26.6855 15.508 26.4053 17.8779 21.9937 21.6329C17.7663 25.2278 17.358 30.6242 17.358 30.6242H2.24182L2.35391 46.9093H17.6382C17.6382 46.9093 20.1202 52.1535 28.0706 52.1535L40.7608 52.2095" stroke="#231815" stroke-width="2.5" stroke-linecap="round" stroke-linejoin="round"/>
<path d="M10.4084 26.4854H0V49.9442H10.4084V26.4854Z" fill="#FE4848"/>
<g clip-path="url(#clip0_1_765)">
<path d="M42.7705 5.74902L37.6944 9.84832" stroke="#231815" stroke-width="2" stroke-linecap="round" stroke-linejoin="round"/>
<path d="M46.3334 12.3623L39.8722 13.3231" stroke="#231815" stroke-width="2" stroke-linecap="round" stroke-linejoin="round"/>
<path d="M37.1659 0.800537L34.4277 6.90145" stroke="#231815" stroke-width="2" stroke-linecap="round" stroke-linejoin="round"/>
<path d="M42.7705 5.74902L37.6944 9.84832" stroke="#231815" stroke-width="2" stroke-linecap="round" stroke-linejoin="round"/>
</g>
<defs>
<clipPath id="clip0_1_765">
<rect width="13.5069" height="14.1234" fill="white" transform="translate(33.627)"/>
</clipPath>
</defs>
</svg>
