<svg width="22" height="23" viewBox="0 0 22 23" fill="none" xmlns="http://www.w3.org/2000/svg">
<path d="M16.7516 7.64797L18.655 8.6338L18.4251 9.07778L19.3768 9.5707C19.5907 9.68151 19.7776 9.81413 19.9384 9.96269L20.2776 9.59535C20.6959 9.9816 20.976 10.4644 21.1178 10.9799L20.6357 11.1125C20.7574 11.5547 20.7574 12.0265 20.6357 12.4687L21.1178 12.6013C20.976 13.1168 20.6959 13.5996 20.2776 13.9859L19.9384 13.6185C19.7776 13.7671 19.5907 13.8997 19.3768 14.0105L18.4251 14.5034L18.655 14.9474L16.7517 15.9332L16.5217 15.4893L14.6183 16.4751L14.8483 16.9191L12.9449 17.9049L12.715 17.4609L10.8116 18.4467L11.0415 18.8907L9.13816 19.8766L8.90821 19.4326L7.00484 20.4184L7.23479 20.8624L5.33142 21.8482L5.10146 21.4042L4.14978 21.8971C3.95104 22.0001 3.7493 22.073 3.54819 22.1192L3.66012 22.6065C3.14262 22.7254 2.62138 22.6986 2.14097 22.5533L2.28576 22.0747C1.87477 21.9503 1.49905 21.7218 1.19962 21.4141L0.841248 21.7627C0.491244 21.403 0.227727 20.9525 0.0952748 20.4383L0.579469 20.3136C0.527995 20.1137 0.499999 19.901 0.499999 19.6772L0.499999 18.6914L-9.60855e-07 18.6914L-8.64785e-07 16.7197L0.499999 16.7197L0.499999 14.7481L-7.68715e-07 14.7481L-6.72645e-07 12.7764L0.499999 12.7764L0.499999 10.8048L-5.76575e-07 10.8048L-4.80505e-07 8.83313L0.5 8.83313L0.5 6.86148L-3.84435e-07 6.86148L-2.88365e-07 4.88982L0.5 4.88982L0.5 3.904C0.5 3.68019 0.527996 3.46749 0.579469 3.26766L0.0952757 3.14294C0.227728 2.62875 0.491243 2.17823 0.841247 1.81849L1.19962 2.16716C1.49905 1.8594 1.87477 1.63087 2.28576 1.50653L2.14097 1.02795C2.62138 0.882611 3.14262 0.855818 3.66012 0.974686L3.54819 1.462C3.74929 1.50819 3.95104 1.58115 4.14977 1.68408L5.10146 2.177L5.33142 1.73301L7.23479 2.71884L7.00483 3.16282L8.90821 4.14865L9.13816 3.70467L11.0415 4.69049L10.8116 5.13448L12.715 6.1203L12.9449 5.67632L14.8483 6.66215L14.6183 7.10613L16.5217 8.09196L16.7516 7.64797Z" stroke="black" stroke-dasharray="2 2"/>
</svg>
