<svg width="17" height="16" viewBox="0 0 17 16" fill="none" xmlns="http://www.w3.org/2000/svg">
<path d="M11.7174 8L16.266 3.45136C16.8242 2.89318 16.8242 1.98818 16.266 1.42955L15.2551 0.418636C14.6969 -0.139545 13.7919 -0.139545 13.2333 0.418636L8.68463 4.96727L4.136 0.418636C3.57781 -0.139545 2.67281 -0.139545 2.11418 0.418636L1.10327 1.42955C0.545086 1.98773 0.545086 2.89273 1.10327 3.45136L5.6519 8L1.10327 12.5486C0.545086 13.1068 0.545086 14.0118 1.10327 14.5705L2.11418 15.5814C2.67236 16.1395 3.57781 16.1395 4.136 15.5814L8.68463 11.0327L13.2333 15.5814C13.7915 16.1395 14.6969 16.1395 15.2551 15.5814L16.266 14.5705C16.8242 14.0123 16.8242 13.1073 16.266 12.5486L11.7174 8Z" fill="#F40000"/>
</svg>
