<svg width="174" height="18" viewBox="0 0 174 18" fill="none" xmlns="http://www.w3.org/2000/svg">
<g clip-path="url(#clip0_38_2425)">
<path d="M7.41067 17.0904L9.55844 14.8033H21.764L15.8184 3.14163L3.45564 17.0904H0.103027L14.404 1.08074C14.8755 0.55295 15.5827 0.050293 16.447 0.050293C17.3114 0.050293 17.8352 0.502684 18.1233 1.08074L26.4001 17.0904H7.41067Z" fill="white"/>
<path d="M47.3538 17.0904L42.1154 11.536H32.0313L31.036 17.0904H28.2073L29.6217 9.34945H42.1678C45.7299 9.34945 49.0563 8.319 49.0563 5.50412C49.0563 3.2673 46.7514 2.58871 43.4512 2.58871H30.8265L33.1052 0.276489H44.8918C48.6111 0.276489 52.0423 1.5834 52.0423 5.05173C52.0423 8.52006 49.2135 10.6815 45.1537 11.0333L51.2041 17.0904H47.3538Z" fill="white"/>
<path d="M53.0376 17.0904L54.9496 6.60997H57.8046L56.3116 14.8033H64.3527C68.8053 14.8033 72.577 11.7371 72.577 7.76608C72.577 4.725 70.1935 2.58871 66.6052 2.58871H55.7092L57.9617 0.276489H67.0243C72.1056 0.276489 75.432 3.14163 75.432 7.31369C75.432 12.7675 70.1935 17.0904 63.9336 17.0904H53.0376Z" fill="white"/>
<path d="M87.5328 17.3668C80.6442 17.3668 77.1606 15.1551 77.1606 10.3547C77.1606 3.39293 81.5871 0 90.7282 0C97.6168 0 101.1 2.18656 101.1 6.98693C101.1 13.9487 96.7001 17.3668 87.5328 17.3668ZM90.3092 2.28709C82.7658 2.28709 80.0418 4.52391 80.0418 10.0783C80.0418 13.7225 82.5562 15.0797 87.9519 15.0797C95.469 15.0797 98.2192 12.8178 98.2192 7.26339C98.2192 3.61913 95.7048 2.28709 90.3092 2.28709Z" fill="white"/>
<path d="M121.111 17.0904L115.873 11.536H105.789L104.794 17.0904H101.965L103.379 9.34945H115.925C119.487 9.34945 122.814 8.319 122.814 5.50412C122.814 3.2673 120.509 2.58871 117.209 2.58871H104.584L106.863 0.276489H118.649C122.369 0.276489 125.8 1.5834 125.8 5.05173C125.8 8.52006 122.971 10.6815 118.911 11.0333L124.962 17.0904H121.111Z" fill="white"/>
<path d="M126.795 17.0904L129.886 0.276489H148.509L146.23 2.58871H132.322L131.379 7.64041H146.308L144.318 9.65104H131.012L130.069 14.8033H145.942L143.663 17.0904H126.795Z" fill="white"/>
<path d="M166.817 17.0904L159.64 10.0029L149.818 17.0904H146.125L158.173 8.44466L149.897 0.276489H153.721L160.269 6.83616L169.279 0.276489H173.103L161.814 8.34413L170.72 17.0904H166.817Z" fill="white"/>
</g>
<g clip-path="url(#clip1_38_2425)">
<path d="M7.41067 17.0904L9.55844 14.8033H21.764L15.8184 3.14163L3.45564 17.0904H0.103027L14.404 1.08074C14.8755 0.55295 15.5827 0.050293 16.447 0.050293C17.3114 0.050293 17.8352 0.502684 18.1233 1.08074L26.4001 17.0904H7.41067Z" fill="white"/>
<path d="M47.3538 17.0904L42.1154 11.536H32.0313L31.036 17.0904H28.2073L29.6217 9.34945H42.1678C45.7299 9.34945 49.0563 8.319 49.0563 5.50412C49.0563 3.2673 46.7514 2.58871 43.4512 2.58871H30.8265L33.1052 0.276489H44.8918C48.6111 0.276489 52.0423 1.5834 52.0423 5.05173C52.0423 8.52006 49.2135 10.6815 45.1537 11.0333L51.2041 17.0904H47.3538Z" fill="white"/>
<path d="M53.0376 17.0904L54.9496 6.60997H57.8046L56.3116 14.8033H64.3527C68.8053 14.8033 72.577 11.7371 72.577 7.76608C72.577 4.725 70.1935 2.58871 66.6052 2.58871H55.7092L57.9617 0.276489H67.0243C72.1056 0.276489 75.432 3.14163 75.432 7.31369C75.432 12.7675 70.1935 17.0904 63.9336 17.0904H53.0376Z" fill="white"/>
<path d="M87.5328 17.3668C80.6442 17.3668 77.1606 15.1551 77.1606 10.3547C77.1606 3.39293 81.5871 0 90.7282 0C97.6168 0 101.1 2.18656 101.1 6.98693C101.1 13.9487 96.7001 17.3668 87.5328 17.3668ZM90.3092 2.28709C82.7658 2.28709 80.0418 4.52391 80.0418 10.0783C80.0418 13.7225 82.5562 15.0797 87.9519 15.0797C95.469 15.0797 98.2192 12.8178 98.2192 7.26339C98.2192 3.61913 95.7048 2.28709 90.3092 2.28709Z" fill="white"/>
<path d="M121.111 17.0904L115.873 11.536H105.789L104.794 17.0904H101.965L103.379 9.34945H115.925C119.487 9.34945 122.814 8.319 122.814 5.50412C122.814 3.2673 120.509 2.58871 117.209 2.58871H104.584L106.863 0.276489H118.649C122.369 0.276489 125.8 1.5834 125.8 5.05173C125.8 8.52006 122.971 10.6815 118.911 11.0333L124.962 17.0904H121.111Z" fill="white"/>
<path d="M126.795 17.0904L129.886 0.276489H148.509L146.23 2.58871H132.322L131.379 7.64041H146.308L144.318 9.65104H131.012L130.069 14.8033H145.942L143.663 17.0904H126.795Z" fill="white"/>
<path d="M166.817 17.0904L159.64 10.0029L149.818 17.0904H146.125L158.173 8.44466L149.897 0.276489H153.721L160.269 6.83616L169.279 0.276489H173.103L161.814 8.34413L170.72 17.0904H166.817Z" fill="white"/>
</g>
<defs>
<clipPath id="clip0_38_2425">
<rect width="173" height="17.3668" fill="white" transform="translate(0.103027)"/>
</clipPath>
<clipPath id="clip1_38_2425">
<rect width="173" height="17.3668" fill="white" transform="translate(0.103027)"/>
</clipPath>
</defs>
</svg>
