<svg width="80" height="106" viewBox="0 0 80 106" fill="none" xmlns="http://www.w3.org/2000/svg">
<path d="M78.9644 46.5167C78.3233 49.1923 77.3952 51.5808 76.2807 53.4241C74.647 56.1254 72.4439 58.4243 69.7324 60.2572C68.5079 61.085 67.1572 61.8316 65.6909 62.4925C66.6046 63.3385 67.6211 64.3281 68.695 65.418C71.5918 68.3575 74.5367 71.652 75.2603 72.7627C75.7298 73.4843 76.8417 75.4315 77.0243 77.9268C77.2192 80.5893 76.2914 83.0258 74.3418 84.9722C73.4012 85.9119 72.3441 86.6182 71.199 87.0716C70.3927 87.391 69.5429 87.5848 68.6648 87.6514C68.5716 88.1257 68.4655 88.592 68.3453 89.0481C67.703 91.4912 66.7056 93.5704 65.3807 95.2281C65.2417 95.4021 65.0991 95.5711 64.9539 95.7346C65.3167 95.9836 65.6619 96.2329 65.9859 96.4809C67.6056 97.7213 68.6212 98.8533 69.0907 99.942C69.3361 100.511 69.4353 101.077 69.3854 101.625C69.325 102.29 69.0462 102.902 68.579 103.396C67.7885 104.231 66.4835 104.808 64.5901 105.16C63.171 105.424 61.3867 105.564 59.4299 105.564H59.4287C56.9889 105.564 54.4092 105.353 52.1655 104.971C49.5655 104.527 47.6972 103.905 46.6125 103.123C45.6131 102.402 44.8117 101.35 44.2672 100.153C42.9192 100.081 41.518 100.021 40.0006 100.021C38.4832 100.021 37.0823 100.081 35.734 100.153C35.1895 101.35 34.3879 102.402 33.3884 103.123C32.304 103.905 30.436 104.527 27.8357 104.971C25.5917 105.353 23.012 105.564 20.5716 105.564C18.6148 105.564 16.8305 105.424 15.4111 105.16C13.5176 104.808 12.213 104.231 11.4222 103.396C10.955 102.902 10.6762 102.29 10.6155 101.625C10.5656 101.078 10.6648 100.511 10.9102 99.9423C11.3797 98.8536 12.3953 97.7216 14.0147 96.4812C14.3387 96.2332 14.6836 95.9839 15.0464 95.7349C14.9009 95.5714 14.7586 95.4024 14.6196 95.2283C13.2947 93.5707 12.2973 91.4915 11.655 89.0484C11.5352 88.5923 11.4287 88.126 11.3355 87.6517C10.4577 87.5854 9.60795 87.3913 8.80156 87.0722C7.65683 86.6188 6.59937 85.9125 5.65908 84.9734C3.70886 83.0264 2.78112 80.5902 2.97599 77.9277C3.15861 75.4324 4.27046 73.4852 4.74031 72.7631C5.46361 71.6529 8.40851 68.3584 11.3053 65.4189C12.3792 64.329 13.396 63.3397 14.3094 62.4937C12.8431 61.8325 11.4924 61.0859 10.2679 60.2581C7.5564 58.4252 5.35332 56.1263 3.71962 53.425C2.60508 51.5817 1.67675 49.1932 1.03564 46.5176C0.372124 43.7485 0.0239105 40.7837 0.00119781 37.7047C-0.023613 34.3778 0.337448 31.0839 1.0739 27.9151C1.88925 24.4078 3.15174 21.1262 4.82699 18.161C9.36285 10.1327 19.1462 0.563965 40.0003 0.563965C60.8544 0.563965 70.6377 10.1327 75.1727 18.1598C76.848 21.125 78.1108 24.4069 78.9261 27.9142C79.6626 31.083 80.0236 34.3766 79.9988 37.7038C79.9761 40.7825 79.6279 43.7476 78.9644 46.5167ZM29.7955 99.4345C26.4874 99.4345 23.611 99.0255 20.4694 98.1082C19.6735 97.8759 18.9233 97.5502 18.2212 97.1344C15.4984 98.7521 13.9385 100.225 13.5679 101.085C13.4943 101.255 13.4952 101.341 13.4973 101.363C13.4982 101.373 13.4991 101.382 13.5248 101.409C14.0769 101.992 16.2533 102.673 20.5716 102.673C22.8539 102.673 25.2605 102.477 27.3488 102.121C29.4183 101.768 31.0021 101.279 31.6946 100.78C32.1743 100.434 32.5856 99.9297 32.9054 99.3434C31.8638 99.396 30.8407 99.4345 29.7955 99.4345ZM21.0104 96.2591C23.9687 97.1228 26.6781 97.5081 29.7955 97.5081C31.3066 97.5081 32.7951 97.4237 34.3708 97.3341C36.1289 97.2344 37.9467 97.1311 40.0003 97.1311C42.0539 97.1311 43.8721 97.2344 45.6298 97.3341C47.2055 97.4237 48.6939 97.5081 50.2051 97.5081C53.3222 97.5081 56.0316 97.1231 58.9899 96.2591C62.9899 95.0913 64.7632 91.2939 65.5468 88.3141C66.5843 84.3683 66.4904 79.569 65.2895 75.1473C65.2073 74.8443 65.1233 74.5315 65.0372 74.21C64.1789 71.0057 63.0942 66.9563 60.9401 63.2149C60.8711 63.2352 60.8024 63.2555 60.733 63.2758C57.8189 64.1174 54.5691 64.7042 50.7972 65.0699C47.6446 65.3756 44.1129 65.5243 40 65.5243C35.8871 65.5243 32.3554 65.3756 29.2028 65.0699C25.4312 64.7042 22.1811 64.1174 19.267 63.2758C19.1977 63.2558 19.1289 63.2355 19.0599 63.2152C16.9061 66.9563 15.8212 71.0054 14.9628 74.2094C14.8764 74.5312 14.7927 74.8446 14.7102 75.1476C13.5093 79.5693 13.4154 84.3683 14.4529 88.3144C15.2362 91.2942 17.0104 95.0913 21.0104 96.2591ZM59.5315 98.1085C56.3899 99.0258 53.5135 99.4348 50.2054 99.4348C49.1599 99.4348 48.1374 99.3963 47.0958 99.3437C47.4156 99.93 47.8269 100.435 48.3066 100.78C48.9991 101.28 50.5832 101.769 52.6527 102.122C54.7407 102.478 57.147 102.674 59.429 102.674C63.7473 102.674 65.9246 101.993 66.4764 101.41C66.5021 101.383 66.503 101.374 66.5039 101.363C66.506 101.341 66.5069 101.255 66.4333 101.085C66.0624 100.226 64.5025 98.7524 61.7797 97.1347C61.0776 97.5505 60.3274 97.8759 59.5315 98.1085ZM66.9008 73.712C66.9863 74.0315 67.0697 74.3422 67.1513 74.6431C68.0542 77.9677 68.3704 81.5013 68.0912 84.7862C69.6759 84.7578 71.09 84.1336 72.296 82.9288C75.8324 79.3982 73.3651 75.153 72.8348 74.3383C72.2906 73.5031 69.5226 70.3776 66.633 67.4452C65.6667 66.4646 64.7524 65.5714 63.9248 64.7986C65.36 67.9593 66.2086 71.1278 66.9008 73.712ZM12.8493 74.6431C12.9312 74.3419 13.0143 74.0309 13.1001 73.7112C13.7923 71.1272 14.6412 67.959 16.0764 64.7986C15.2488 65.5714 14.3345 66.4646 13.3682 67.4449C10.4783 70.3773 7.71062 73.5028 7.16635 74.3377C6.63583 75.153 4.16855 79.3979 7.70525 82.9288C8.91125 84.1336 10.3253 84.7578 11.9094 84.7862C11.6302 81.5013 11.9464 77.9677 12.8493 74.6431ZM40.0003 63.5973C53.2268 63.5973 67.5861 62.211 73.8038 51.93C75.83 48.5798 77.0641 43.2536 77.1053 37.6827C77.1394 33.0804 76.3946 26.204 72.6525 19.5802C68.4965 12.2232 59.458 3.45392 40.0003 3.45392C20.5426 3.45392 11.5041 12.2235 7.34778 19.5802C3.60574 26.204 2.86092 33.0804 2.89529 37.6827C2.93684 43.2536 4.17094 48.5798 6.19707 51.93C12.4145 62.2113 26.7738 63.5973 40.0003 63.5973Z" fill="#231815"/>
<path d="M66.633 67.4452C69.5226 70.3776 72.2906 73.5031 72.8348 74.3383C73.3651 75.153 75.8324 79.3982 72.296 82.9288C71.09 84.1336 69.6759 84.7578 68.0912 84.7862C68.3704 81.5013 68.0542 77.9677 67.1513 74.6431C67.0697 74.3422 66.9863 74.0315 66.9008 73.712C66.2086 71.1278 65.36 67.9593 63.9248 64.7986C64.7524 65.5714 65.6667 66.4646 66.633 67.4452Z" fill="#7E7E7E"/>
<path d="M7.70525 82.9288C4.16855 79.3979 6.63583 75.153 7.16635 74.3377C7.71062 73.5028 10.4783 70.3773 13.3682 67.4449C14.3345 66.4646 15.2488 65.5714 16.0764 64.7986C14.6412 67.959 13.7923 71.1272 13.1001 73.7112C13.0143 74.0309 12.9312 74.3419 12.8493 74.6431C11.9464 77.9677 11.6302 81.5013 11.9094 84.7862C10.3253 84.7578 8.91125 84.1336 7.70525 82.9288Z" fill="#7E7E7E"/>
<path d="M66.4333 101.085C66.5069 101.255 66.506 101.341 66.5039 101.363C66.503 101.374 66.5021 101.383 66.4764 101.41C65.9246 101.993 63.7473 102.674 59.429 102.674C57.147 102.674 54.7407 102.478 52.6527 102.122C50.5832 101.769 48.9991 101.28 48.3066 100.78C47.8269 100.435 47.4156 99.93 47.0958 99.3437C48.1374 99.3963 49.1599 99.4348 50.2054 99.4348C53.5135 99.4348 56.3899 99.0258 59.5315 98.1085C60.3274 97.8759 61.0776 97.5505 61.7797 97.1347C64.5025 98.7524 66.0624 100.226 66.4333 101.085Z" fill="#FFD900"/>
<path d="M31.6946 100.78C31.0021 101.279 29.4183 101.768 27.3488 102.121C25.2605 102.477 22.8539 102.673 20.5716 102.673C16.2533 102.673 14.0769 101.992 13.5248 101.409C13.4991 101.382 13.4982 101.373 13.4973 101.363C13.4952 101.341 13.4943 101.255 13.5679 101.085C13.9385 100.225 15.4984 98.7521 18.2212 97.1344C18.9233 97.5502 19.6735 97.8759 20.4694 98.1082C23.611 99.0255 26.4874 99.4345 29.7955 99.4345C30.8407 99.4345 31.8638 99.396 32.9054 99.3434C32.5856 99.9297 32.1743 100.434 31.6946 100.78Z" fill="#FFD900"/>
<path d="M14.7102 75.1476C14.7927 74.8446 14.8764 74.5312 14.9628 74.2094C15.8212 71.0054 16.9061 66.9563 19.0599 63.2152C19.1289 63.2355 19.1977 63.2558 19.267 63.2758C22.1811 64.1174 25.4312 64.7042 29.2028 65.0699C32.3554 65.3756 35.8871 65.5243 40 65.5243C44.1129 65.5243 47.6446 65.3756 50.7972 65.0699C54.5691 64.7042 57.8189 64.1174 60.733 63.2758C60.8024 63.2555 60.8711 63.2352 60.9401 63.2149C63.0942 66.9563 64.1789 71.0057 65.0372 74.21C65.1233 74.5315 65.2073 74.8443 65.2895 75.1473C66.4904 79.569 66.5843 84.3683 65.5468 88.3141C64.7632 91.2939 62.9899 95.0913 58.9899 96.2591C56.0316 97.1231 53.3222 97.5081 50.2051 97.5081C48.6939 97.5081 47.2055 97.4237 45.6298 97.3341C43.8721 97.2344 42.0539 97.1311 40.0003 97.1311C37.9467 97.1311 36.1289 97.2344 34.3708 97.3341C32.7951 97.4237 31.3066 97.5081 29.7955 97.5081C26.6781 97.5081 23.9687 97.1228 21.0104 96.2591C17.0104 95.0913 15.238 91.2936 14.4544 88.3138C13.4169 84.368 13.5108 79.5687 14.7117 75.147L14.7102 75.1476ZM24.6478 81.3183C23.2287 86.5424 24.3032 93.079 28.7225 94.3698C33.1424 95.6597 35.798 94.903 40.0003 94.903C44.2026 94.903 46.8582 95.66 51.2781 94.3698C55.6977 93.0793 56.7719 86.5424 55.3531 81.3183C54.0547 76.5402 52.1108 67.5443 40 67.5443C27.8892 67.5443 25.9456 76.5399 24.6478 81.3183Z" fill="#7E7E7E"/>
<path d="M40 67.5443C52.1108 67.5443 54.0547 76.5402 55.3531 81.3183C56.7719 86.5424 55.6977 93.0793 51.2781 94.3698C46.8582 95.66 44.2026 94.903 40.0003 94.903C35.798 94.903 33.1424 95.6597 28.7225 94.3698C24.3032 93.079 23.2287 86.5424 24.6478 81.3183C25.9456 76.5399 27.8892 67.5443 40 67.5443Z" fill="white"/>
<path d="M6.19707 51.93C4.17094 48.5798 2.93684 43.2536 2.89529 37.6827C2.86092 33.0804 3.60574 26.204 7.34778 19.5802C11.5041 12.2235 20.5426 3.45392 40.0003 3.45392C59.458 3.45392 68.4965 12.2232 72.6525 19.5802C76.3946 26.204 77.1394 33.0804 77.1053 37.6827C77.0641 43.2536 75.83 48.5798 73.8038 51.93C67.5861 62.211 53.2268 63.5973 40.0003 63.5973C26.7738 63.5973 12.4145 62.2113 6.19707 51.93ZM66.1835 43.1796C67.2104 41.9371 67.8166 40.2983 67.9361 38.4391C68.0494 36.6805 67.6997 34.8369 66.9522 33.2476C66.2725 31.8027 65.2776 30.5916 64.0748 29.7456C62.7137 28.788 61.1335 28.3023 59.3776 28.3023C57.6216 28.3023 56.0414 28.788 54.6803 29.7456C53.4776 30.5919 52.4826 31.803 51.8029 33.2479C51.0554 34.8372 50.706 36.6808 50.8193 38.4394C50.9392 40.2986 51.5453 41.9374 52.5723 43.1796C52.7949 43.4614 55.0414 46.1576 59.3776 46.1576C63.7138 46.1576 65.9617 43.4599 66.1835 43.1796ZM42.6233 55.5075C43.5821 55.6508 44.5738 55.7991 45.596 55.7991C47.8054 55.7991 49.61 55.0806 51.2763 53.5385C52.1873 52.6951 52.7743 51.5458 52.974 50.2151C53.1644 48.9452 52.9907 47.5747 52.4713 46.2519C52.0982 45.3023 51.5606 44.4059 50.8722 43.5876C50.1438 42.7213 49.2621 41.9625 48.2519 41.3317C47.1717 40.6574 45.9502 40.1347 44.6214 39.7777C43.1993 39.3958 41.6448 39.2021 40.0009 39.2021C38.357 39.2021 36.8025 39.3958 35.3804 39.7777C34.0516 40.1344 32.8301 40.6574 31.7499 41.3314C30.7397 41.9622 29.858 42.721 29.1296 43.5873C28.4415 44.4056 27.9035 45.3017 27.5308 46.2513C27.0114 47.5741 26.8374 48.9446 27.0281 50.2148C27.2278 51.5456 27.8148 52.6948 28.7258 53.5382C30.3918 55.0806 32.1967 55.7991 34.4058 55.7991C35.428 55.7991 36.4194 55.6508 37.3782 55.5075C38.2916 55.3708 39.1545 55.2418 40.0006 55.2418C40.8467 55.2418 41.7099 55.3708 42.6233 55.5075ZM12.0651 38.4394C12.1849 40.2986 12.7911 41.9374 13.8183 43.1799C14.041 43.4614 16.2874 46.1579 20.6236 46.1579C24.9598 46.1579 27.2077 43.4599 27.4292 43.1796C28.4562 41.9371 29.0623 40.2983 29.1819 38.4391C29.2952 36.6805 28.9455 34.8369 28.198 33.2476C27.5183 31.8027 26.5233 30.5916 25.3206 29.7456C23.9595 28.788 22.3793 28.3023 20.6233 28.3023C18.8674 28.3023 17.2869 28.788 15.9258 29.7456C14.723 30.5919 13.7281 31.803 13.0484 33.2479C12.3009 34.8372 11.9518 36.6808 12.0651 38.4394Z" fill="#7E7E7E"/>
<path d="M45.5963 53.8725C44.7176 53.8725 43.8392 53.7411 42.909 53.602C41.9661 53.4611 40.9911 53.3152 40.0009 53.3152C39.0107 53.3152 38.0357 53.4608 37.0928 53.602C36.1629 53.7411 35.2845 53.8725 34.4058 53.8725C32.6896 53.8725 31.3422 53.3337 30.037 52.1253C28.816 50.9948 28.5372 48.9652 29.3265 46.9546C30.4324 44.1381 33.8176 41.1287 40.0006 41.1287C46.1836 41.1287 49.5691 44.1384 50.6753 46.9552C51.4646 48.9655 51.1858 50.9951 49.9648 52.1253C48.6596 53.3337 47.3125 53.8725 45.5963 53.8725Z" fill="#FFD900"/>
<path d="M37.3782 55.5075C36.4194 55.6508 35.428 55.7991 34.4058 55.7991C32.1967 55.7991 30.3918 55.0806 28.7258 53.5382C27.8148 52.6948 27.2278 51.5456 27.0281 50.2148C26.8374 48.9446 27.0114 47.5741 27.5308 46.2513C27.9035 45.3017 28.4415 44.4056 29.1296 43.5873C29.858 42.721 30.7397 41.9622 31.7499 41.3314C32.8301 40.6574 34.0516 40.1344 35.3804 39.7777C36.8025 39.3958 38.357 39.2021 40.0009 39.2021C41.6448 39.2021 43.1993 39.3958 44.6214 39.7777C45.9502 40.1347 47.1717 40.6574 48.2519 41.3317C49.2621 41.9625 50.1438 42.7213 50.8722 43.5876C51.5606 44.4059 52.0982 45.3023 52.4713 46.2519C52.9907 47.5747 53.1644 48.9452 52.974 50.2151C52.7743 51.5458 52.1873 52.6951 51.2763 53.5385C49.61 55.0806 47.8054 55.7991 45.596 55.7991C44.5738 55.7991 43.5821 55.6508 42.6233 55.5075C41.7099 55.3708 40.8467 55.2418 40.0006 55.2418C39.1545 55.2418 38.2916 55.3708 37.3782 55.5075ZM49.9648 52.1253C51.1858 50.9951 51.4646 48.9655 50.6753 46.9552C49.5691 44.1384 46.1836 41.1287 40.0006 41.1287C33.8176 41.1287 30.4324 44.1381 29.3265 46.9546C28.5372 48.9652 28.816 50.9948 30.037 52.1253C31.3422 53.3337 32.6896 53.8725 34.4058 53.8725C35.2845 53.8725 36.1629 53.7411 37.0928 53.602C38.0357 53.4608 39.0107 53.3152 40.0009 53.3152C40.9911 53.3152 41.9661 53.4611 42.909 53.602C43.8392 53.7411 44.7176 53.8725 45.5963 53.8725C47.3125 53.8725 48.6596 53.3337 49.9648 52.1253Z" fill="#F5A200"/>
<path d="M64.6672 41.9885C64.6361 42.0273 64.1848 42.5795 63.3312 43.1208C62.1686 43.8578 60.8385 44.2313 59.3776 44.2313C57.9166 44.2313 56.5343 43.8432 55.3573 43.0778C54.5132 42.5291 54.0942 41.9962 54.0903 41.9912C54.0825 41.981 54.0745 41.9709 54.0661 41.9607C52.5014 40.0762 52.2839 36.7566 53.5487 34.0673C54.223 32.6338 55.877 30.2289 59.3776 30.2289C62.8781 30.2289 64.5318 32.6335 65.2061 34.067C66.4713 36.7563 66.254 40.0762 64.6893 41.9607C64.6792 41.973 64.6759 41.9768 64.6672 41.9885ZM53.3559 37.8785C53.4235 38.9254 53.7687 39.8538 54.3548 40.5645C54.443 40.6759 54.7682 41.0586 55.3504 41.4371C56.1804 41.9768 57.1655 42.2619 58.1991 42.2619C59.2326 42.2619 60.218 41.9768 61.0483 41.4371C61.6312 41.0583 61.9563 40.6756 62.0442 40.5645C62.63 39.8535 62.9752 38.9248 63.0425 37.8779C63.1053 36.9014 62.9113 35.8778 62.4958 34.9951C62.1139 34.1831 61.5517 33.5004 60.8705 33.021C60.094 32.4747 59.1953 32.1977 58.1988 32.1977C57.2023 32.1977 56.3036 32.4747 55.527 33.0213C54.8459 33.5007 54.2837 34.1834 53.9017 34.9957C53.4866 35.8784 53.2929 36.9023 53.3559 37.8785Z" fill="white"/>
<path d="M52.5723 43.1796C51.5453 41.9374 50.9392 40.2986 50.8193 38.4394C50.706 36.6808 51.0554 34.8372 51.8029 33.2479C52.4826 31.803 53.4776 30.5919 54.6803 29.7456C56.0414 28.788 57.6216 28.3023 59.3776 28.3023C61.1335 28.3023 62.7137 28.788 64.0748 29.7456C65.2776 30.5916 66.2725 31.8027 66.9522 33.2476C67.6997 34.8369 68.0494 36.6805 67.9361 38.4391C67.8166 40.2983 67.2104 41.9371 66.1835 43.1796C65.962 43.4599 63.7153 46.1576 59.3776 46.1576C55.0399 46.1576 52.7949 43.4611 52.5723 43.1796ZM65.2061 34.067C64.5318 32.6335 62.8781 30.2289 59.3776 30.2289C55.877 30.2289 54.223 32.6338 53.5487 34.0673C52.2839 36.7566 52.5014 40.0762 54.0661 41.9607C54.0745 41.9709 54.0825 41.981 54.0903 41.9912C54.0942 41.9962 54.5132 42.5291 55.3573 43.0778C56.5343 43.8432 57.887 44.2313 59.3776 44.2313C60.8681 44.2313 62.1686 43.8575 63.3312 43.1208C64.1848 42.5795 64.6361 42.0273 64.6672 41.9885C64.6759 41.9768 64.6792 41.973 64.6893 41.9607C66.254 40.0762 66.4713 36.7563 65.2061 34.067Z" fill="#231815"/>
<path d="M55.527 33.0213C56.3036 32.4747 57.2023 32.1977 58.1988 32.1977C59.1953 32.1977 60.094 32.4747 60.8705 33.021C61.5517 33.5004 62.1139 34.1831 62.4958 34.9951C62.9113 35.8778 63.1053 36.9014 63.0425 37.8779C62.9752 38.9248 62.63 39.8535 62.0442 40.5645C61.9563 40.6756 61.6312 41.0583 61.0483 41.4371C60.218 41.9768 59.2326 42.2619 58.1991 42.2619C57.1655 42.2619 56.1804 41.9768 55.3504 41.4371C54.7682 41.0586 54.443 40.6759 54.3548 40.5645C53.7687 39.8538 53.4235 38.9254 53.3559 37.8785C53.2929 36.9023 53.4866 35.8784 53.9017 34.9957C54.2837 34.1834 54.8459 33.5007 55.527 33.0213Z" fill="#231815"/>
<path d="M14.7945 34.0673C15.4688 32.6338 17.1228 30.2289 20.6233 30.2289C24.1239 30.2289 25.7776 32.6335 26.4519 34.067C27.7171 36.7563 27.4998 40.0762 25.9351 41.9607C25.9249 41.973 25.9214 41.9768 25.9127 41.9885C25.881 42.0282 25.4297 42.5798 24.5767 43.1205C23.414 43.8575 22.084 44.2309 20.623 44.2309C19.1621 44.2309 17.832 43.8572 16.6697 43.1205C15.8158 42.5792 15.3648 42.0267 15.334 41.9882C15.3253 41.9765 15.3217 41.9724 15.3115 41.9604C13.7469 40.0759 13.5296 36.7566 14.7945 34.0673ZM26.0992 34.9954C25.7172 34.1831 25.155 33.5004 24.4739 33.021C23.6974 32.4744 22.7983 32.1974 21.8021 32.1974C20.8059 32.1974 19.9072 32.4744 19.1307 33.0207C18.4495 33.4998 17.8873 34.1825 17.5054 34.9945C17.0899 35.8772 16.8959 36.9011 16.9587 37.8776C17.026 38.9245 17.3712 39.8532 17.957 40.5642C18.0448 40.6753 18.37 41.0583 18.9532 41.4371C19.7832 41.9765 20.7686 42.2619 21.8024 42.2619C22.8363 42.2619 23.8214 41.9768 24.6517 41.4371C25.2345 41.0583 25.5597 40.6756 25.6476 40.5645C26.2334 39.8535 26.5786 38.9251 26.6459 37.8782C26.7086 36.902 26.5143 35.8781 26.0992 34.9954Z" fill="white"/>
<path d="M15.9258 29.7456C17.2869 28.788 18.8674 28.3023 20.6233 28.3023C22.3793 28.3023 23.9595 28.788 25.3206 29.7456C26.5233 30.5916 27.5183 31.8027 28.198 33.2476C28.9455 34.8369 29.2952 36.6805 29.1819 38.4391C29.0623 40.2983 28.4562 41.9371 27.4292 43.1796C27.2077 43.4599 24.961 46.1579 20.6236 46.1579C16.2862 46.1579 14.041 43.4614 13.8183 43.1799C12.7911 41.9374 12.1849 40.2986 12.0651 38.4394C11.9518 36.6808 12.3009 34.8372 13.0484 33.2479C13.7281 31.803 14.723 30.5919 15.9258 29.7456ZM15.334 41.9882C15.3648 42.0267 15.8158 42.5792 16.6697 43.1205C17.832 43.8572 19.1621 44.2309 20.623 44.2309C22.084 44.2309 23.414 43.8575 24.5767 43.1205C25.4297 42.5798 25.881 42.0282 25.9127 41.9885C25.9214 41.9768 25.9249 41.973 25.9351 41.9607C27.4998 40.0762 27.7171 36.7563 26.4519 34.067C25.7776 32.6335 24.1239 30.2289 20.6233 30.2289C17.1228 30.2289 15.4688 32.6338 14.7945 34.0673C13.5296 36.7566 13.7469 40.0759 15.3115 41.9604C15.3217 41.9724 15.3253 41.9765 15.334 41.9882Z" fill="#231815"/>
<path d="M25.6476 40.5645C25.5597 40.6756 25.2345 41.0583 24.6517 41.4371C23.8214 41.9768 22.8363 42.2619 21.8024 42.2619C20.7686 42.2619 19.7832 41.9765 18.9532 41.4371C18.37 41.0583 18.0448 40.6753 17.957 40.5642C17.3712 39.8532 17.026 38.9245 16.9587 37.8776C16.8959 36.9011 17.0899 35.8772 17.5054 34.9945C17.8873 34.1825 18.4495 33.4998 19.1307 33.0207C19.9072 32.4744 20.8059 32.1974 21.8021 32.1974C22.7983 32.1974 23.6974 32.4744 24.4739 33.021C25.155 33.5004 25.7172 34.1831 26.0992 34.9954C26.5143 35.8781 26.7086 36.902 26.6459 37.8782C26.5786 38.9251 26.2334 39.8535 25.6476 40.5645Z" fill="#231815"/>
<path d="M11 25.9185C11.4336 27.1602 14 27.564 17.2146 25.9185C21.6057 23.6708 21.8277 20.564 21.8277 19.564" stroke="#231815" stroke-width="3" stroke-linecap="round"/>
<path d="M69.8276 25.9185C69.3941 27.1602 66.8276 27.564 63.6131 25.9185C59.2219 23.6708 58.9999 20.564 58.9999 19.564" stroke="#231815" stroke-width="3" stroke-linecap="round"/>
<path d="M50 4L50 19" stroke="#231815" stroke-width="2" stroke-linecap="round"/>
<path d="M56 5L56 15" stroke="#231815" stroke-width="2" stroke-linecap="round"/>
<path d="M45 4L45 14" stroke="#231815" stroke-width="2" stroke-linecap="round"/>
<path d="M61 8L61 15" stroke="#231815" stroke-width="2" stroke-linecap="round"/>
</svg>
