<svg width="160" height="228" viewBox="0 0 160 228" fill="none" xmlns="http://www.w3.org/2000/svg">
<path fill-rule="evenodd" clip-rule="evenodd" d="M40.0161 178.935C40.0161 173.942 35.9688 169.895 30.9792 169.895C25.6829 169.895 21.9455 173.946 21.9455 178.935C21.9455 184.228 25.6829 187.979 30.9792 187.979C35.972 187.979 40.0161 184.232 40.0161 178.935Z" fill="url(#paint0_linear_1_1722)"/>
<path fill-rule="evenodd" clip-rule="evenodd" d="M18.0707 158.127C18.0707 153.134 14.0234 149.087 9.0338 149.087C3.73752 149.087 8.70575e-05 153.138 8.66213e-05 158.127C8.61585e-05 163.42 3.73752 167.17 9.03379 167.17C14.0266 167.17 18.0707 163.423 18.0707 158.127Z" fill="url(#paint1_linear_1_1722)"/>
<path fill-rule="evenodd" clip-rule="evenodd" d="M159.352 158.127C159.352 153.134 155.304 149.087 150.315 149.087C145.018 149.087 141.281 153.138 141.281 158.127C141.281 163.42 145.018 167.17 150.315 167.17C155.307 167.17 159.352 163.423 159.352 158.127Z" fill="url(#paint2_linear_1_1722)"/>
<path fill-rule="evenodd" clip-rule="evenodd" d="M136.751 178.935C136.751 173.942 132.701 169.895 127.718 169.895C122.734 169.895 118.681 173.946 118.681 178.935C118.681 184.228 122.731 187.979 127.718 187.979C132.704 187.979 136.751 184.232 136.751 178.935Z" fill="url(#paint3_linear_1_1722)"/>
<path fill-rule="evenodd" clip-rule="evenodd" d="M88.2255 218.568C88.2255 213.575 84.1782 209.525 78.8756 209.525C74.1926 209.525 69.8355 213.575 69.8355 218.568C69.8355 223.861 74.1926 227.602 78.8756 227.602C84.1814 227.602 88.2255 223.861 88.2255 218.568Z" fill="url(#paint4_linear_1_1722)"/>
<path fill-rule="evenodd" clip-rule="evenodd" d="M112.905 199.396C112.905 194.729 108.855 190.356 103.862 190.356C98.8691 190.356 94.8218 194.729 94.8218 199.396C94.8218 204.392 98.8754 208.752 103.862 208.752C108.848 208.752 112.905 204.392 112.905 199.396Z" fill="url(#paint5_linear_1_1722)"/>
<path fill-rule="evenodd" clip-rule="evenodd" d="M63.549 199.396C63.549 194.729 59.4953 190.356 54.5121 190.356C49.2062 190.356 45.1557 194.729 45.1557 199.396C45.1557 204.392 49.2062 208.752 54.5121 208.752C59.4953 208.752 63.549 204.392 63.549 199.396Z" fill="url(#paint6_linear_1_1722)"/>
<g opacity="0.7">
<path fill-rule="evenodd" clip-rule="evenodd" d="M40.6677 130.812C40.6677 125.819 36.6204 121.772 31.6308 121.772C26.3345 121.772 22.5971 125.823 22.5971 130.812C22.5971 136.105 26.3345 139.855 31.6308 139.855C36.6236 139.855 40.6677 136.108 40.6677 130.812Z" fill="url(#paint7_linear_1_1722)"/>
<path fill-rule="evenodd" clip-rule="evenodd" d="M18.719 110.001C18.719 105.008 14.6717 100.961 9.68211 100.961C4.38583 100.961 0.64841 105.012 0.64841 110.001C0.648409 115.294 4.38583 119.044 9.68211 119.044C14.6749 119.044 18.719 115.297 18.719 110.001Z" fill="url(#paint8_linear_1_1722)"/>
<path fill-rule="evenodd" clip-rule="evenodd" d="M160 110.001C160 105.008 155.953 100.961 150.963 100.961C145.667 100.961 141.929 105.012 141.929 110.001C141.929 115.294 145.667 119.044 150.963 119.044C155.956 119.044 160 115.297 160 110.001Z" fill="url(#paint9_linear_1_1722)"/>
<path fill-rule="evenodd" clip-rule="evenodd" d="M137.403 130.812C137.403 125.819 133.353 121.772 128.369 121.772C123.386 121.772 119.332 125.823 119.332 130.812C119.332 136.105 123.383 139.855 128.369 139.855C133.356 139.855 137.403 136.108 137.403 130.812Z" fill="url(#paint10_linear_1_1722)"/>
<path fill-rule="evenodd" clip-rule="evenodd" d="M88.8772 170.445C88.8772 165.452 84.8299 161.402 79.5273 161.402C74.8443 161.402 70.4872 165.452 70.4872 170.445C70.4872 175.738 74.8443 179.479 79.5273 179.479C84.8331 179.479 88.8772 175.738 88.8772 170.445Z" fill="url(#paint11_linear_1_1722)"/>
<path fill-rule="evenodd" clip-rule="evenodd" d="M113.557 151.272C113.557 146.605 109.506 142.232 104.514 142.232C99.5209 142.232 95.4704 146.605 95.4704 151.272C95.4704 156.268 99.524 160.628 104.514 160.628C109.503 160.628 113.557 156.268 113.557 151.272Z" fill="url(#paint12_linear_1_1722)"/>
<path fill-rule="evenodd" clip-rule="evenodd" d="M64.2006 151.272C64.2006 146.605 60.147 142.232 55.1637 142.232C49.8579 142.232 45.8074 146.605 45.8074 151.272C45.8074 156.268 49.8579 160.628 55.1637 160.628C60.147 160.628 64.2006 156.268 64.2006 151.272Z" fill="url(#paint13_linear_1_1722)"/>
</g>
<g opacity="0.5">
<path fill-rule="evenodd" clip-rule="evenodd" d="M40.5047 80.5549C40.5047 75.5621 36.4574 71.5148 31.4678 71.5148C26.1715 71.5148 22.4341 75.5652 22.4341 80.5549C22.4341 85.8479 26.1715 89.5981 31.4678 89.5981C36.4606 89.5981 40.5047 85.8511 40.5047 80.5549Z" fill="url(#paint14_linear_1_1722)"/>
<path fill-rule="evenodd" clip-rule="evenodd" d="M18.5562 59.7438C18.5562 54.751 14.5089 50.7037 9.51926 50.7037C4.22298 50.7037 0.485561 54.7542 0.48556 59.7438C0.48556 65.0369 4.22298 68.7871 9.51926 68.7871C14.5121 68.7871 18.5562 65.0401 18.5562 59.7438Z" fill="url(#paint15_linear_1_1722)"/>
<path fill-rule="evenodd" clip-rule="evenodd" d="M159.84 59.7438C159.84 54.751 155.793 50.7037 150.803 50.7037C145.507 50.7037 141.77 54.7542 141.77 59.7438C141.77 65.0369 145.507 68.7871 150.803 68.7871C155.796 68.7871 159.84 65.0401 159.84 59.7438Z" fill="url(#paint16_linear_1_1722)"/>
<path fill-rule="evenodd" clip-rule="evenodd" d="M137.24 80.5549C137.24 75.5621 133.19 71.5148 128.206 71.5148C123.223 71.5148 119.169 75.5652 119.169 80.5549C119.169 85.8479 123.22 89.5981 128.206 89.5981C133.193 89.5981 137.24 85.8511 137.24 80.5549Z" fill="url(#paint17_linear_1_1722)"/>
<path fill-rule="evenodd" clip-rule="evenodd" d="M88.7142 120.188C88.7142 115.195 84.667 111.145 79.3643 111.145C74.6813 111.145 70.3242 115.195 70.3242 120.188C70.3242 125.481 74.6813 129.222 79.3643 129.222C84.6702 129.222 88.7142 125.481 88.7142 120.188Z" fill="url(#paint18_linear_1_1722)"/>
<path fill-rule="evenodd" clip-rule="evenodd" d="M113.394 101.015C113.394 96.3478 109.344 91.9747 104.351 91.9747C99.3579 91.9747 95.3074 96.3478 95.3074 101.015C95.3074 106.011 99.3611 110.371 104.351 110.371C109.34 110.371 113.394 106.011 113.394 101.015Z" fill="url(#paint19_linear_1_1722)"/>
<path fill-rule="evenodd" clip-rule="evenodd" d="M64.0377 101.015C64.0377 96.3478 59.9841 91.9747 55.0008 91.9747C49.695 91.9747 45.6445 96.3478 45.6445 101.015C45.6445 106.011 49.695 110.371 55.0008 110.371C59.9841 110.371 64.0377 106.011 64.0377 101.015Z" fill="url(#paint20_linear_1_1722)"/>
</g>
<g opacity="0.3">
<path fill-rule="evenodd" clip-rule="evenodd" d="M40.0161 29.8508C40.0161 24.858 35.9688 20.8107 30.9792 20.8107C25.6829 20.8107 21.9455 24.8611 21.9455 29.8508C21.9455 35.1438 25.6829 38.894 30.9792 38.894C35.972 38.894 40.0161 35.147 40.0161 29.8508Z" fill="url(#paint21_linear_1_1722)"/>
<path fill-rule="evenodd" clip-rule="evenodd" d="M18.0707 9.03924C18.0707 4.04643 14.0234 -0.000845309 9.0338 -0.000845745C3.73752 -0.000846208 8.70575e-05 4.04962 8.66213e-05 9.03924C8.61585e-05 14.3323 3.73752 18.0825 9.03379 18.0825C14.0266 18.0825 18.0707 14.3355 18.0707 9.03924Z" fill="url(#paint22_linear_1_1722)"/>
<path fill-rule="evenodd" clip-rule="evenodd" d="M159.352 9.03924C159.352 4.04643 155.304 -0.000845309 150.315 -0.000845745C145.018 -0.000846208 141.281 4.04962 141.281 9.03924C141.281 14.3323 145.018 18.0825 150.315 18.0825C155.307 18.0825 159.352 14.3355 159.352 9.03924Z" fill="url(#paint23_linear_1_1722)"/>
<path fill-rule="evenodd" clip-rule="evenodd" d="M136.751 29.8508C136.751 24.858 132.701 20.8107 127.718 20.8107C122.734 20.8107 118.681 24.8611 118.681 29.8508C118.681 35.1438 122.731 38.894 127.718 38.894C132.704 38.894 136.751 35.147 136.751 29.8508Z" fill="url(#paint24_linear_1_1722)"/>
<path fill-rule="evenodd" clip-rule="evenodd" d="M88.2256 69.4834C88.2256 64.4906 84.1783 60.4401 78.8756 60.4401C74.1927 60.4401 69.8356 64.4906 69.8356 69.4834C69.8356 74.7765 74.1927 78.5171 78.8756 78.5171C84.1815 78.5171 88.2256 74.7765 88.2256 69.4834Z" fill="url(#paint25_linear_1_1722)"/>
<path fill-rule="evenodd" clip-rule="evenodd" d="M112.905 50.3107C112.905 45.6437 108.855 41.2706 103.862 41.2706C98.8692 41.2706 94.8219 45.6437 94.8219 50.3107C94.8219 55.3067 98.8756 59.667 103.862 59.667C108.848 59.667 112.905 55.3067 112.905 50.3107Z" fill="url(#paint26_linear_1_1722)"/>
<path fill-rule="evenodd" clip-rule="evenodd" d="M63.5491 50.3107C63.5491 45.6437 59.4954 41.2706 54.5122 41.2706C49.2063 41.2706 45.1559 45.6437 45.1559 50.3107C45.1559 55.3067 49.2063 59.667 54.5122 59.667C59.4954 59.667 63.5491 55.3067 63.5491 50.3107Z" fill="url(#paint27_linear_1_1722)"/>
</g>
<defs>
<linearGradient id="paint0_linear_1_1722" x1="40.0161" y1="178.937" x2="21.9455" y2="178.937" gradientUnits="userSpaceOnUse">
<stop stop-color="#FE1D37"/>
</linearGradient>
<linearGradient id="paint1_linear_1_1722" x1="18.0707" y1="158.129" x2="8.66211e-05" y2="158.129" gradientUnits="userSpaceOnUse">
<stop stop-color="#FE1D37"/>
</linearGradient>
<linearGradient id="paint2_linear_1_1722" x1="159.352" y1="158.129" x2="141.281" y2="158.129" gradientUnits="userSpaceOnUse">
<stop stop-color="#FE1D37"/>
</linearGradient>
<linearGradient id="paint3_linear_1_1722" x1="136.751" y1="178.937" x2="118.681" y2="178.937" gradientUnits="userSpaceOnUse">
<stop stop-color="#FE1D37"/>
</linearGradient>
<linearGradient id="paint4_linear_1_1722" x1="88.2255" y1="218.563" x2="69.8355" y2="218.563" gradientUnits="userSpaceOnUse">
<stop stop-color="#FE1D37"/>
</linearGradient>
<linearGradient id="paint5_linear_1_1722" x1="112.905" y1="199.554" x2="94.8218" y2="199.554" gradientUnits="userSpaceOnUse">
<stop stop-color="#FE1D37"/>
</linearGradient>
<linearGradient id="paint6_linear_1_1722" x1="63.549" y1="199.554" x2="45.1557" y2="199.554" gradientUnits="userSpaceOnUse">
<stop stop-color="#FE1D37"/>
</linearGradient>
<linearGradient id="paint7_linear_1_1722" x1="40.6677" y1="130.814" x2="22.5971" y2="130.814" gradientUnits="userSpaceOnUse">
<stop stop-color="#FE1D37"/>
</linearGradient>
<linearGradient id="paint8_linear_1_1722" x1="18.719" y1="110.003" x2="0.64841" y2="110.003" gradientUnits="userSpaceOnUse">
<stop stop-color="#FE1D37"/>
</linearGradient>
<linearGradient id="paint9_linear_1_1722" x1="160" y1="110.003" x2="141.929" y2="110.003" gradientUnits="userSpaceOnUse">
<stop stop-color="#FE1D37"/>
</linearGradient>
<linearGradient id="paint10_linear_1_1722" x1="137.403" y1="130.814" x2="119.332" y2="130.814" gradientUnits="userSpaceOnUse">
<stop stop-color="#FE1D37"/>
</linearGradient>
<linearGradient id="paint11_linear_1_1722" x1="88.8772" y1="170.44" x2="70.4872" y2="170.44" gradientUnits="userSpaceOnUse">
<stop stop-color="#FE1D37"/>
</linearGradient>
<linearGradient id="paint12_linear_1_1722" x1="113.557" y1="151.43" x2="95.4704" y2="151.43" gradientUnits="userSpaceOnUse">
<stop stop-color="#FE1D37"/>
</linearGradient>
<linearGradient id="paint13_linear_1_1722" x1="64.2006" y1="151.43" x2="45.8074" y2="151.43" gradientUnits="userSpaceOnUse">
<stop stop-color="#FE1D37"/>
</linearGradient>
<linearGradient id="paint14_linear_1_1722" x1="40.5047" y1="80.5565" x2="22.4341" y2="80.5565" gradientUnits="userSpaceOnUse">
<stop stop-color="#FE1D37"/>
</linearGradient>
<linearGradient id="paint15_linear_1_1722" x1="18.5562" y1="59.7454" x2="0.48556" y2="59.7454" gradientUnits="userSpaceOnUse">
<stop stop-color="#FE1D37"/>
</linearGradient>
<linearGradient id="paint16_linear_1_1722" x1="159.84" y1="59.7454" x2="141.77" y2="59.7454" gradientUnits="userSpaceOnUse">
<stop stop-color="#FE1D37"/>
</linearGradient>
<linearGradient id="paint17_linear_1_1722" x1="137.24" y1="80.5565" x2="119.169" y2="80.5565" gradientUnits="userSpaceOnUse">
<stop stop-color="#FE1D37"/>
</linearGradient>
<linearGradient id="paint18_linear_1_1722" x1="88.7142" y1="120.183" x2="70.3242" y2="120.183" gradientUnits="userSpaceOnUse">
<stop stop-color="#FE1D37"/>
</linearGradient>
<linearGradient id="paint19_linear_1_1722" x1="113.394" y1="101.173" x2="95.3074" y2="101.173" gradientUnits="userSpaceOnUse">
<stop stop-color="#FE1D37"/>
</linearGradient>
<linearGradient id="paint20_linear_1_1722" x1="64.0377" y1="101.173" x2="45.6445" y2="101.173" gradientUnits="userSpaceOnUse">
<stop stop-color="#FE1D37"/>
</linearGradient>
<linearGradient id="paint21_linear_1_1722" x1="40.0161" y1="29.8524" x2="21.9455" y2="29.8523" gradientUnits="userSpaceOnUse">
<stop stop-color="#FE1D37"/>
</linearGradient>
<linearGradient id="paint22_linear_1_1722" x1="18.0707" y1="9.04084" x2="8.66211e-05" y2="9.04084" gradientUnits="userSpaceOnUse">
<stop stop-color="#FE1D37"/>
</linearGradient>
<linearGradient id="paint23_linear_1_1722" x1="159.352" y1="9.04084" x2="141.281" y2="9.04084" gradientUnits="userSpaceOnUse">
<stop stop-color="#FE1D37"/>
</linearGradient>
<linearGradient id="paint24_linear_1_1722" x1="136.751" y1="29.8524" x2="118.681" y2="29.8523" gradientUnits="userSpaceOnUse">
<stop stop-color="#FE1D37"/>
</linearGradient>
<linearGradient id="paint25_linear_1_1722" x1="88.2256" y1="69.4786" x2="69.8356" y2="69.4786" gradientUnits="userSpaceOnUse">
<stop stop-color="#FE1D37"/>
</linearGradient>
<linearGradient id="paint26_linear_1_1722" x1="112.905" y1="50.4688" x2="94.8219" y2="50.4688" gradientUnits="userSpaceOnUse">
<stop stop-color="#FE1D37"/>
</linearGradient>
<linearGradient id="paint27_linear_1_1722" x1="63.5491" y1="50.4688" x2="45.1559" y2="50.4688" gradientUnits="userSpaceOnUse">
<stop stop-color="#FE1D37"/>
</linearGradient>
</defs>
</svg>
