<svg width="116" height="70" viewBox="0 0 116 70" fill="none" xmlns="http://www.w3.org/2000/svg">
<path d="M31.6579 33.873C32.114 34.3883 32.114 35.1707 31.6579 35.6861L2.3229 68.8283C1.50591 69.7513 -5.33796e-08 69.1636 0 67.9217L2.84911e-06 1.63735C2.90249e-06 0.395482 1.50592 -0.19224 2.3229 0.730781L31.6579 33.873Z" fill="#F63C4C"/>
<path d="M73.6579 33.873C74.114 34.3883 74.114 35.1707 73.6579 35.6861L44.3229 68.8283C43.5059 69.7513 42 69.1636 42 67.9217L42 1.63735C42 0.395482 43.5059 -0.19224 44.3229 0.730781L73.6579 33.873Z" fill="#F63C4C"/>
<path d="M115.658 33.873C116.114 34.3883 116.114 35.1707 115.658 35.6861L86.3229 68.8283C85.5059 69.7513 84 69.1636 84 67.9217L84 1.63735C84 0.395482 85.5059 -0.19224 86.3229 0.730781L115.658 33.873Z" fill="#F63C4C"/>
</svg>
