<svg width="10" height="18" viewBox="0 0 10 18" fill="none" xmlns="http://www.w3.org/2000/svg">
<path fill-rule="evenodd" clip-rule="evenodd" d="M9.63381 8.11625C9.86815 8.35066 9.9998 8.66855 9.9998 9C9.9998 9.33146 9.86815 9.64934 9.63381 9.88375L2.56256 16.955C2.44725 17.0744 2.30932 17.1696 2.15682 17.2351C2.00431 17.3006 1.84029 17.3351 1.67431 17.3366C1.50834 17.338 1.34374 17.3064 1.19012 17.2435C1.0365 17.1807 0.896934 17.0879 0.779568 16.9705C0.662203 16.8531 0.569386 16.7136 0.506535 16.5599C0.443684 16.4063 0.412057 16.2417 0.413499 16.0757C0.414942 15.9098 0.449424 15.7457 0.514936 15.5932C0.580447 15.4407 0.675674 15.3028 0.795062 15.1875L6.98256 9L0.795062 2.8125C0.567364 2.57675 0.441372 2.26099 0.44422 1.93325C0.447068 1.6055 0.578529 1.29199 0.810289 1.06023C1.04205 0.828467 1.35556 0.697006 1.68331 0.694158C2.01106 0.69131 2.32681 0.817303 2.56256 1.045L9.63381 8.11625Z" fill="white"/>
</svg>
