<svg width="475" height="365" viewBox="0 0 475 365" fill="none" xmlns="http://www.w3.org/2000/svg">
<path fill-rule="evenodd" clip-rule="evenodd" d="M235.826 279.679C234.426 279.679 233.155 280.25 232.232 281.17C231.308 282.089 230.731 283.361 230.731 284.757V285.48L250.664 285.514V284.787C250.665 283.393 250.095 282.118 249.174 281.196C248.25 280.272 246.98 279.699 245.585 279.694L241.699 279.691L239.928 279.687L235.824 279.681L235.826 279.679Z" fill="url(#paint0_linear_1_1331)"/>
<path fill-rule="evenodd" clip-rule="evenodd" d="M250.658 289.962L230.723 289.933L230.697 308.405L250.628 308.434L250.658 289.962Z" fill="url(#paint1_linear_1_1331)"/>
<path fill-rule="evenodd" clip-rule="evenodd" d="M212.807 277.105C218.048 279.163 224.679 280.331 228.572 280.838L228.592 280.763L228.631 280.617L228.651 280.542L228.665 280.493L228.673 280.467L228.685 280.421L228.697 280.392L228.722 280.317L228.741 280.246L228.754 280.212L228.769 280.172L228.786 280.108L228.789 280.098L228.816 280.024L228.821 280.006L228.842 279.956L228.848 279.933L228.87 279.882L228.897 279.812L228.9 279.801L228.922 279.739L228.94 279.699L228.952 279.67L228.98 279.597L228.989 279.578L229.058 279.415L229.067 279.397L229.07 279.386L229.1 279.317L229.11 279.299L229.133 279.244L229.157 279.198V279.195L229.201 279.11V279.102L229.232 279.041L229.25 279.006L229.267 278.974L229.302 278.902L229.504 278.531L229.51 278.525L229.519 278.503L229.56 278.438V278.435L229.597 278.375L229.618 278.34L229.624 278.329L229.675 278.25V278.247L229.676 278.242L229.731 278.16L229.76 278.115L229.789 278.067L229.802 278.053L229.843 277.992L229.855 277.978L229.91 277.896V277.888L229.935 277.865L229.976 277.804V277.801L230.02 277.744L230.04 277.714L230.066 277.68L230.104 277.627L230.11 277.621L230.155 277.564L230.168 277.543L230.231 277.462L230.24 277.456L230.248 277.442L230.297 277.383L230.303 277.372L230.309 277.366L230.368 277.297L230.375 277.286L230.44 277.207L230.504 277.132L230.511 277.126L230.54 277.094L230.581 277.045L230.587 277.039L230.639 276.984L230.656 276.969L230.726 276.891L230.743 276.876L230.795 276.821L230.805 276.811L230.85 276.767L230.879 276.735L230.883 276.732L230.952 276.657L231.006 276.611L231.03 276.581L231.105 276.517V276.509L231.151 276.468L231.189 276.434L231.204 276.422L231.258 276.376L231.27 276.362L231.304 276.327L231.349 276.291L231.355 276.285L231.409 276.239L231.456 276.199L231.461 276.196L231.514 276.15L231.566 276.107L231.597 276.083L231.62 276.06L231.672 276.017L231.681 276.011L231.727 275.975L231.763 275.944L231.783 275.933L231.835 275.891L231.85 275.878L231.89 275.849L231.936 275.817L231.947 275.808L231.999 275.765L232.023 275.752L232.058 275.729L232.109 275.691L232.17 275.646H232.179L232.219 275.616L232.228 275.61L232.283 275.571L232.287 275.568L232.338 275.53L232.376 275.509L232.396 275.494L232.454 275.457L232.468 275.449L232.512 275.42L232.559 275.393L232.57 275.384L232.628 275.347L232.672 275.318L232.686 275.313L232.744 275.28V275.277L232.807 275.242L232.836 275.225L232.868 275.21L232.926 275.173L232.931 275.17L232.983 275.139L233.025 275.118L233.045 275.107L233.106 275.075L233.12 275.067L233.17 275.045L233.218 275.02L233.229 275.011L233.293 274.98L233.345 274.954L233.354 274.948L233.409 274.922L233.413 274.919L233.479 274.889L233.508 274.872L233.54 274.86L233.604 274.829H233.609L233.669 274.802L233.71 274.785L233.73 274.774L233.794 274.747L233.861 274.721L233.989 274.666L234.011 274.66L234.055 274.643L234.177 274.596L234.186 274.59L234.249 274.57L234.316 274.544L234.365 274.528L234.388 274.518L234.513 274.478L234.527 274.473L234.581 274.455L234.633 274.441L234.646 274.434L234.717 274.415C232.99 273.331 231.313 272.172 229.705 270.899C220.536 263.638 220.167 250.911 215.21 257.731L208.038 267.585L207.878 267.773C206.954 268.753 206.381 269.634 206.107 270.425C205.681 271.661 206.106 272.774 207.065 273.76C208.324 275.049 210.397 276.165 212.816 277.112" fill="url(#paint2_linear_1_1331)"/>
<path fill-rule="evenodd" clip-rule="evenodd" d="M251.015 274.835C249.406 276.104 247.724 277.26 245.996 278.34C247.429 278.771 248.714 279.557 249.745 280.595C250.882 281.735 251.719 283.178 252.11 284.787C256.002 284.291 262.638 283.144 267.885 281.104C270.308 280.16 272.387 279.05 273.648 277.764C274.609 276.782 275.036 275.672 274.615 274.434C274.343 273.641 273.776 272.76 272.852 271.775L272.696 271.587L265.549 261.713C260.613 254.877 260.208 267.6 251.015 274.837" fill="url(#paint3_linear_1_1331)"/>
<path fill-rule="evenodd" clip-rule="evenodd" d="M245.834 360.508L245.906 312.879L247.839 312.882L275.72 312.925L275.655 357.479C275.655 358.321 275.305 359.092 274.748 359.645C274.189 360.205 273.42 360.549 272.578 360.549L245.834 360.509V360.508ZM233.643 360.489L233.711 312.859L242.033 312.873L241.966 360.498L233.644 360.488L233.643 360.489ZM249.355 278.461C248.319 277.425 247.034 276.639 245.602 276.204C247.332 275.129 249.011 273.973 250.624 272.704C259.812 265.467 260.219 252.742 265.155 259.576L272.3 269.454L272.459 269.642C273.38 270.622 273.95 271.508 274.224 272.296C274.645 273.537 274.218 274.643 273.254 275.625C271.993 276.911 269.912 278.024 267.494 278.966C262.246 281.009 255.609 282.158 251.718 282.652C251.324 281.041 250.491 279.597 249.355 278.458V278.461ZM251.742 289.964L278.431 290.001C279.288 290.005 280.066 290.356 280.631 290.921C281.198 291.491 281.546 292.268 281.546 293.125L281.524 308.479L251.718 308.435L251.744 289.964H251.742ZM227.941 289.927L247.877 289.956L247.847 308.429L227.91 308.4L227.941 289.926V289.927ZM227.944 285.478V284.751C227.95 283.356 228.526 282.089 229.446 281.168C230.375 280.246 231.644 279.675 233.039 279.678L242.802 279.692C244.201 279.692 245.469 280.269 246.394 281.193C247.313 282.115 247.885 283.385 247.88 284.783V285.507L227.944 285.478ZM237.617 275.816C234.161 274.003 230.847 272.015 227.855 269.648C220.64 263.931 218.389 255.68 215.806 253.803C213.742 252.305 211.195 252.618 207.845 257.226L200.731 266.999C199.462 268.362 198.646 269.676 198.21 270.932C197.228 273.765 198.071 276.175 200.054 278.21C201.74 279.942 204.285 281.347 207.162 282.474C210.541 283.801 214.452 284.778 217.917 285.461L197.61 285.432C195.528 285.429 193.632 286.276 192.26 287.646C190.882 289.014 190.032 290.903 190.029 292.989L190.018 300.111L194.47 300.117L194.481 292.997C194.481 292.14 194.837 291.363 195.401 290.798C195.966 290.231 196.748 289.883 197.604 289.888L224.067 289.924L224.041 308.395L197.575 308.357L194.458 308.351L194.469 300.117L190.017 300.111L190 310.57V312.798L192.226 312.799L195.792 312.806L195.787 316.811L200.236 316.817L200.244 312.812L227.903 312.851L229.84 312.856L229.773 360.482L203.246 360.443C202.404 360.443 201.64 360.1 201.08 359.536C200.526 358.974 200.175 358.209 200.18 357.37L200.189 350.87L195.734 350.86L195.728 357.36C195.722 359.437 196.566 361.314 197.925 362.684C199.289 364.046 201.173 364.893 203.241 364.901L272.571 365.003C274.642 365.003 276.528 364.16 277.891 362.797C279.255 361.442 280.106 359.561 280.106 357.49L280.176 312.929L283.742 312.935H285.966L285.997 293.128C286 291.047 285.152 289.152 283.782 287.78C282.413 286.409 280.523 285.555 278.436 285.552L258.129 285.523C261.6 284.848 265.512 283.882 268.893 282.568C271.778 281.445 274.326 280.049 276.016 278.325C278.004 276.292 278.85 273.889 277.88 271.051C277.447 269.79 276.636 268.477 275.371 267.109L268.287 257.316C264.949 252.696 262.402 252.379 260.333 253.868C257.745 255.738 255.47 263.98 248.235 269.677C245.239 272.039 241.92 274.012 238.46 275.817H237.615L237.617 275.816ZM224.339 282.614C220.446 282.107 213.815 280.939 208.573 278.881C206.155 277.934 204.082 276.813 202.824 275.524C201.863 274.542 201.435 273.428 201.866 272.194C202.14 271.403 202.71 270.52 203.632 269.544L203.793 269.353L210.969 259.501C215.927 252.681 216.293 265.407 225.465 272.669C227.07 273.942 228.749 275.101 230.474 276.185L230.405 276.204L230.389 276.207L230.343 276.227L230.282 276.242H230.272L230.205 276.266L230.147 276.288L230.121 276.297L230.077 276.314L230.01 276.34L229.947 276.359L229.938 276.366L229.816 276.413L229.771 276.43L229.75 276.436L229.683 276.462L229.49 276.544L229.467 276.555L229.426 276.572L229.371 276.598L229.366 276.601L229.301 276.631L229.269 276.644L229.24 276.66L229.174 276.691H229.171L229.111 276.718L229.105 276.724L229.053 276.75L228.988 276.781L228.974 276.786L228.926 276.813L228.876 276.836L228.865 276.845L228.807 276.879L228.781 276.888L228.743 276.909L228.687 276.938V276.941L228.624 276.976L228.595 276.993L228.563 277.008L228.505 277.045V277.048L228.447 277.077L228.433 277.085L228.389 277.114L228.331 277.15L228.317 277.155L228.271 277.187L228.224 277.215L228.213 277.224L228.155 277.26L228.135 277.271L228.095 277.297L228.045 277.332L228.04 277.335L227.981 277.376L227.976 277.38L227.93 277.412L227.926 277.415L227.866 277.456L227.816 277.494L227.781 277.522L227.756 277.535L227.704 277.578L227.695 277.584L227.649 277.621L227.605 277.65L227.594 277.659L227.538 277.705L227.522 277.717L227.486 277.748L227.44 277.784L227.431 277.79L227.379 277.833L227.357 277.856L227.327 277.88L227.223 277.966L227.214 277.972L227.171 278.013L227.119 278.056L227.066 278.102L227.032 278.137L227.017 278.149L226.968 278.197L226.953 278.209L226.914 278.244L226.872 278.285L226.865 278.291L226.817 278.339L226.795 278.357L226.768 278.386L226.719 278.433L226.652 278.503L226.642 278.51L226.618 278.54L226.572 278.589L226.561 278.598L226.511 278.653L226.496 278.665L226.425 278.748L226.409 278.763L226.357 278.818L226.351 278.824L226.309 278.873L226.28 278.905L226.274 278.911L226.146 279.061L226.134 279.075L226.079 279.145L226.073 279.151L226.066 279.162L226.018 279.221L226.005 279.235L225.999 279.241L225.937 279.322L225.923 279.342L225.875 279.398V279.406L225.834 279.461L225.808 279.495L225.785 279.52L225.744 279.582V279.586L225.698 279.647L225.68 279.67V279.678L225.623 279.76L225.613 279.769L225.571 279.835L225.559 279.849L225.53 279.898L225.501 279.942L225.446 280.024V280.027L225.445 280.032L225.391 280.11L225.388 280.121L225.368 280.151L225.332 280.214V280.218L225.289 280.284L225.28 280.305L225.274 280.311L225.072 280.686L225.021 280.782L225.003 280.822L224.974 280.883L224.968 280.889L224.928 280.976L224.924 280.979L224.902 281.026L224.879 281.081L224.872 281.095L224.84 281.167L224.837 281.177L224.827 281.196L224.756 281.358L224.751 281.376L224.724 281.449L224.708 281.477L224.693 281.516L224.672 281.579L224.665 281.59L224.638 281.66L224.62 281.712L224.614 281.735L224.592 281.785L224.586 281.808L224.559 281.878L224.555 281.889L224.534 281.952L224.519 281.991L224.51 282.025L224.462 282.17L224.455 282.2L224.436 282.269L224.423 282.323L224.403 282.394L224.361 282.546L224.342 282.62L224.339 282.614ZM200.189 350.87L200.244 316.822L195.789 316.811L195.74 350.864L200.189 350.87Z" fill="#0C3566"/>
<path fill-rule="evenodd" clip-rule="evenodd" d="M224.042 308.395L224.047 304.611L194.462 304.567L194.461 305.233L194.458 308.35L197.575 308.357L224.042 308.395Z" fill="#B4C1CF"/>
<path fill-rule="evenodd" clip-rule="evenodd" d="M251.725 304.653L251.716 308.435L281.522 308.479L281.525 305.363L281.526 304.695L251.725 304.653Z" fill="#B4C1CF"/>
<path fill-rule="evenodd" clip-rule="evenodd" d="M200.233 321.271L229.829 321.311L229.84 312.856L227.904 312.851L200.245 312.812L200.233 321.271Z" fill="#B4C1CF"/>
<path fill-rule="evenodd" clip-rule="evenodd" d="M243.549 312.877L235.227 312.864L235.155 360.492L243.477 360.503L243.549 312.877Z" fill="url(#paint4_linear_1_1331)"/>
<path fill-rule="evenodd" clip-rule="evenodd" d="M245.906 312.877L245.891 321.337L275.709 321.38L275.72 312.925L247.839 312.882L245.906 312.877Z" fill="#B4C1CF"/>
<path fill-rule="evenodd" clip-rule="evenodd" d="M228.147 355.5L201.625 355.464C201.133 355.461 200.652 355.412 200.184 355.319L200.181 357.371C200.176 358.211 200.529 358.977 201.081 359.538C201.642 360.101 202.405 360.445 203.247 360.445L229.774 360.483L229.782 355.503L228.149 355.5H228.147Z" fill="#B4C1CF"/>
<path fill-rule="evenodd" clip-rule="evenodd" d="M245.842 355.528L245.834 360.508L272.578 360.547C273.42 360.547 274.188 360.205 274.748 359.643C275.305 359.09 275.655 358.319 275.655 357.478L275.663 353.912C274.369 354.946 272.732 355.567 270.954 355.564L245.843 355.528H245.842Z" fill="#B4C1CF"/>
<path d="M303.302 278.501C303.019 278.501 302.745 278.604 302.535 278.795C302.324 278.986 302.193 279.25 302.171 279.535L302.152 279.723C302.074 280.416 301.718 282.831 300.322 285.432C298.735 288.389 295.809 291.588 290.387 292.788H290.388C290.139 292.843 289.915 292.979 289.753 293.177C289.59 293.375 289.5 293.623 289.5 293.881C289.5 294.138 289.59 294.387 289.753 294.586C289.915 294.784 290.14 294.919 290.388 294.974L290.387 294.975C295.816 296.176 298.749 299.457 300.339 302.459C301.136 303.965 301.594 305.401 301.853 306.467C301.983 306.999 302.062 307.437 302.109 307.744C302.156 308.052 302.17 308.224 302.17 308.225L302.171 308.229C302.194 308.513 302.325 308.777 302.536 308.968C302.746 309.157 303.02 309.259 303.302 309.259L303.302 309.26L303.303 309.259L303.304 309.26V309.259C303.587 309.259 303.86 309.156 304.07 308.966C304.281 308.775 304.412 308.511 304.434 308.226L304.453 308.038C304.531 307.345 304.888 304.93 306.284 302.329C307.871 299.372 310.796 296.173 316.218 294.973V294.972C316.466 294.917 316.691 294.782 316.853 294.584C317.016 294.385 317.105 294.136 317.105 293.879C317.105 293.622 317.016 293.373 316.853 293.175C316.691 292.977 316.466 292.841 316.218 292.786L315.717 292.667C310.608 291.379 307.806 288.21 306.266 285.302C305.469 283.796 305.012 282.36 304.753 281.294C304.623 280.762 304.544 280.323 304.497 280.017C304.45 279.712 304.436 279.54 304.435 279.536V279.533C304.413 279.248 304.28 278.984 304.069 278.793C303.859 278.604 303.586 278.501 303.304 278.501C303.303 278.501 303.302 278.5 303.301 278.5L303.302 278.501ZM303.302 284.214C304.535 287.433 307.091 291.613 312.318 293.88C307.091 296.146 304.535 300.326 303.302 303.546C302.07 300.327 299.515 296.146 294.289 293.88C299.515 291.613 302.07 287.433 303.302 284.214ZM319.769 279.739C319.487 279.739 319.214 279.844 319.004 280.034C318.802 280.217 318.675 280.466 318.644 280.736C318.515 281.589 318.105 282.379 317.475 282.986C316.845 283.593 316.028 283.984 315.148 284.098L315.133 284.1L315.117 284.103C314.862 284.152 314.63 284.287 314.463 284.487C314.295 284.687 314.202 284.94 314.202 285.202C314.202 285.464 314.295 285.717 314.463 285.917C314.63 286.117 314.862 286.251 315.117 286.301L315.131 286.304L315.145 286.306C316.024 286.424 316.839 286.816 317.469 287.423C318.099 288.03 318.511 288.818 318.644 289.67L318.645 289.669C318.677 289.938 318.805 290.186 319.006 290.367C319.189 290.532 319.419 290.632 319.662 290.655L319.766 290.66C320.048 290.661 320.322 290.558 320.532 290.369C320.735 290.187 320.864 289.937 320.895 289.666V289.667C321.024 288.815 321.434 288.025 322.064 287.418C322.695 286.811 323.511 286.419 324.391 286.306L324.407 286.304L324.423 286.301C324.677 286.251 324.909 286.117 325.077 285.917C325.245 285.717 325.338 285.464 325.338 285.202C325.338 284.94 325.245 284.687 325.077 284.487C324.909 284.287 324.677 284.152 324.423 284.103L324.408 284.1L324.393 284.098C323.515 283.98 322.7 283.587 322.07 282.98C321.44 282.374 321.029 281.586 320.895 280.734H320.894C320.864 280.465 320.737 280.216 320.536 280.034C320.326 279.844 320.052 279.739 319.769 279.739ZM319.768 283.745C320.178 284.311 320.682 284.803 321.26 285.2C320.682 285.598 320.178 286.089 319.768 286.654C319.359 286.089 318.854 285.598 318.276 285.2C318.854 284.803 319.359 284.311 319.768 283.745Z" fill="#FFEC3E" stroke="#FFEC3E"/>
<path d="M176.536 258.501C176.819 258.501 177.093 258.604 177.303 258.795C177.514 258.986 177.645 259.25 177.667 259.535L177.686 259.723C177.763 260.416 178.12 262.831 179.516 265.432C181.102 268.389 184.029 271.588 189.45 272.788H189.449C189.698 272.843 189.923 272.979 190.085 273.177C190.247 273.375 190.338 273.623 190.338 273.881C190.338 274.138 190.247 274.387 190.085 274.586C189.923 274.784 189.698 274.919 189.449 274.974L189.45 274.975C184.022 276.176 181.088 279.457 179.499 282.459C178.702 283.965 178.243 285.401 177.984 286.467C177.855 286.999 177.776 287.437 177.729 287.744C177.681 288.052 177.668 288.224 177.668 288.225L177.667 288.229C177.644 288.513 177.513 288.777 177.302 288.968C177.091 289.157 176.817 289.259 176.535 289.259L176.536 289.26L176.534 289.259L176.533 289.26V289.259C176.251 289.259 175.978 289.156 175.768 288.966C175.557 288.775 175.425 288.511 175.403 288.226L175.385 288.038C175.307 287.345 174.95 284.93 173.554 282.329C171.967 279.372 169.042 276.173 163.62 274.973V274.972C163.371 274.917 163.146 274.782 162.984 274.584C162.822 274.385 162.732 274.136 162.732 273.879C162.733 273.622 162.822 273.373 162.984 273.175C163.147 272.977 163.371 272.841 163.62 272.786L164.121 272.667C169.23 271.379 172.032 268.21 173.571 265.302C174.368 263.796 174.826 262.36 175.085 261.294C175.214 260.762 175.294 260.323 175.341 260.017C175.387 259.712 175.402 259.54 175.402 259.536V259.533C175.425 259.248 175.557 258.984 175.769 258.793C175.979 258.604 176.252 258.501 176.533 258.501C176.534 258.501 176.536 258.5 176.537 258.5L176.536 258.501ZM176.535 264.214C175.302 267.433 172.747 271.613 167.52 273.88C172.746 276.146 175.302 280.326 176.535 283.546C177.768 280.327 180.323 276.146 185.549 273.88C180.323 271.613 177.768 267.433 176.535 264.214ZM160.068 259.739C160.35 259.739 160.624 259.844 160.834 260.034C161.035 260.217 161.163 260.466 161.193 260.736C161.322 261.589 161.732 262.379 162.362 262.986C162.993 263.593 163.809 263.984 164.689 264.098L164.705 264.1L164.721 264.103C164.976 264.152 165.207 264.287 165.375 264.487C165.543 264.687 165.636 264.94 165.636 265.202C165.636 265.464 165.543 265.717 165.375 265.917C165.207 266.117 164.976 266.251 164.721 266.301L164.707 266.304L164.692 266.306C163.813 266.424 162.998 266.816 162.368 267.423C161.738 268.03 161.327 268.818 161.193 269.67L161.192 269.669C161.161 269.938 161.033 270.186 160.832 270.367C160.649 270.532 160.418 270.632 160.176 270.655L160.071 270.66C159.79 270.661 159.516 270.558 159.306 270.369C159.103 270.187 158.973 269.937 158.942 269.666V269.667C158.813 268.815 158.403 268.025 157.773 267.418C157.143 266.811 156.326 266.419 155.446 266.306L155.431 266.304L155.415 266.301C155.16 266.251 154.928 266.117 154.761 265.917C154.593 265.717 154.5 265.464 154.5 265.202C154.5 264.94 154.593 264.687 154.761 264.487C154.928 264.287 155.16 264.152 155.415 264.103L155.43 264.1L155.444 264.098C156.323 263.98 157.138 263.587 157.768 262.98C158.397 262.374 158.809 261.586 158.942 260.734H158.943C158.974 260.465 159.101 260.216 159.302 260.034C159.512 259.844 159.786 259.739 160.068 259.739ZM160.069 263.745C159.66 264.311 159.156 264.803 158.577 265.2C159.155 265.598 159.66 266.089 160.069 266.654C160.479 266.089 160.984 265.598 161.562 265.2C160.983 264.803 160.479 264.311 160.069 263.745Z" fill="#FFEC3E" stroke="#FFEC3E"/>
<path d="M463.771 77.6924C470.383 89.5662 473.419 103.657 473.958 117.562L473.966 117.552C476.149 194.707 372.734 223.274 337.387 250.943C328.429 257.956 293.583 283.015 290 274.5C287.806 273.517 303.033 262 304.5 256C310 233.5 267.052 232.572 246 233.5C208.823 235.139 188.038 236.38 156.463 244.599C119.307 253.514 77.5069 253.746 44.1852 230.841C21.2001 216.144 7.79047 188.217 2.74565 159.753C-5.42484 110.127 15.7707 57.4914 51.9994 28.5581C100.962 -13.5738 163.301 1.53705 218.656 15.6144C218.519 15.5826 218.377 15.5507 218.235 15.5188C237.281 20.0808 256.691 22.7396 276.178 22.7442C316.018 22.3526 356.571 16.1107 395.715 27.5292C422.368 34.9776 447.896 52.1327 463.771 77.6924Z" fill="#FFE9E9" stroke="#F63C4C" stroke-width="2" stroke-linecap="round" stroke-dasharray="1 6"/>
<path d="M89.588 156.39C90.204 156.456 90.798 156.478 91.502 156.478C92.448 156.478 96.804 156.28 98.102 156.126C98.718 156.06 99.158 155.972 99.444 155.884L100.83 157.49C100.456 157.71 99.796 158.172 99.422 158.48C97.816 159.778 95.066 162.088 93.416 163.386C96.584 163.056 100.412 162.77 103.36 162.77L103.382 164.838C101.248 164.728 99.092 164.728 97.75 164.904C95.682 165.212 93.746 166.862 93.746 168.798C93.746 170.822 95.352 171.526 97.354 171.79C98.608 171.944 99.774 171.9 100.588 171.834L100.126 174.122C94.648 174.342 91.568 172.67 91.568 169.15C91.568 167.5 92.712 166.004 93.702 165.3C91.502 165.476 88.774 165.806 86.31 166.224L86.112 164.134C87.3 164.024 88.818 163.826 89.94 163.694C92.14 162.198 95.374 159.382 96.738 158.172C95.792 158.238 92.448 158.392 91.524 158.458C90.952 158.502 90.27 158.59 89.698 158.634L89.588 156.39ZM126.152 165.278C126.152 169.898 123.204 173.066 117.858 173.836L116.56 171.768C117.308 171.702 117.968 171.592 118.518 171.46C121.334 170.822 123.842 168.754 123.842 165.212C123.842 162.022 121.906 159.492 118.518 159.074C118.21 161.054 117.836 163.188 117.198 165.256C115.878 169.744 114.052 172.23 111.874 172.23C109.696 172.23 107.694 169.81 107.694 166.136C107.694 161.208 112.006 156.984 117.528 156.984C122.808 156.984 126.152 160.68 126.152 165.278ZM109.916 165.916C109.916 168.446 110.994 169.612 111.94 169.612C112.93 169.612 113.964 168.182 114.976 164.794C115.526 163.056 115.922 161.054 116.186 159.118C112.226 159.756 109.916 163.188 109.916 165.916ZM137.57 155.136H139.88C139.858 155.444 139.858 155.818 139.814 156.214C140.012 159.14 141.156 169.018 149.384 172.802C148.746 173.286 148.152 173.968 147.822 174.518C142.498 171.944 140.056 166.906 138.912 162.66C137.856 166.862 135.546 171.614 130.442 174.54C130.068 174.012 129.408 173.374 128.748 172.934C137.548 168.248 137.416 158.04 137.57 155.136ZM162.54 167.698C162.364 168.38 162.254 169.062 162.254 169.612C162.254 170.602 162.848 171.504 165.664 171.504C167.116 171.504 168.612 171.328 170.064 171.064L169.998 173.286C168.788 173.44 167.314 173.594 165.642 173.594C162.056 173.594 160.12 172.428 160.12 170.25C160.12 169.326 160.296 168.402 160.494 167.5L162.54 167.698ZM160.032 155.576C159.9 156.126 159.702 157.028 159.614 157.468C159.548 157.842 159.46 158.282 159.35 158.766C160.692 158.568 162.056 158.326 163.332 157.996V160.174C161.946 160.504 160.406 160.746 158.91 160.922C158.69 161.868 158.448 162.88 158.206 163.804C157.414 166.906 155.918 171.438 154.73 173.924L152.332 173.11C153.63 170.866 155.236 166.334 156.072 163.254C156.248 162.572 156.424 161.846 156.6 161.12C155.962 161.142 155.368 161.164 154.818 161.164C153.806 161.164 152.992 161.142 152.2 161.076L152.156 158.92C153.234 159.052 154.004 159.096 154.84 159.096C155.522 159.096 156.27 159.074 157.04 159.008C157.15 158.348 157.26 157.776 157.304 157.358C157.414 156.676 157.436 155.862 157.392 155.378L160.032 155.576ZM161.77 162.264C162.958 162.154 164.476 162.066 165.884 162.066C167.16 162.066 168.48 162.11 169.734 162.242L169.668 164.354C168.546 164.2 167.248 164.068 165.928 164.068C164.498 164.068 163.156 164.156 161.77 164.31V162.264ZM181.592 155.642C181.394 156.302 181.284 157.028 181.13 157.666C181.086 157.952 181.02 158.282 180.932 158.656C183.506 158.546 186.652 158.216 189.336 157.622L189.38 159.734C186.916 160.152 183.396 160.526 180.514 160.658C180.162 162.286 179.722 164.068 179.304 165.256C181.174 164.068 183.022 163.606 185.178 163.606C188.698 163.606 190.898 165.432 190.898 168.116C190.898 172.846 186.168 174.584 179.282 173.858L178.688 171.636C183.682 172.362 188.588 171.614 188.588 168.16C188.588 166.664 187.334 165.476 184.936 165.476C182.362 165.476 180.008 166.378 178.6 168.094C178.358 168.402 178.16 168.71 177.962 169.084L175.894 168.358C176.994 166.224 177.874 163.166 178.424 160.702C176.972 160.68 175.608 160.614 174.398 160.504V158.348C175.652 158.568 177.39 158.722 178.732 158.722C178.776 158.722 178.798 158.722 178.842 158.722C178.908 158.26 178.974 157.842 179.018 157.512C179.128 156.72 179.172 156.17 179.128 155.532L181.592 155.642ZM203.944 157.908C206.474 158.304 210.896 158.216 213.184 157.908V160.152C210.676 160.394 206.518 160.416 203.966 160.152L203.944 157.908ZM205.198 167.06C205 167.83 204.912 168.424 204.912 169.018C204.912 170.008 205.682 170.822 208.344 170.822C210.324 170.822 211.974 170.646 213.822 170.228L213.866 172.582C212.48 172.846 210.654 173.022 208.3 173.022C204.56 173.022 202.844 171.724 202.844 169.59C202.844 168.798 202.954 167.962 203.218 166.884L205.198 167.06ZM200.116 156.324C199.962 156.72 199.742 157.6 199.654 157.996C199.28 159.8 198.576 163.936 198.576 166.29C198.576 167.06 198.62 167.83 198.708 168.644C199.082 167.742 199.522 166.664 199.874 165.85L200.974 166.73C200.402 168.402 199.632 170.756 199.412 171.856C199.346 172.164 199.28 172.626 199.302 172.868C199.302 173.088 199.324 173.418 199.346 173.682L197.344 173.814C196.904 172.274 196.53 169.678 196.53 166.708C196.53 163.43 197.234 159.69 197.476 157.93C197.564 157.38 197.652 156.698 197.674 156.104L200.116 156.324ZM218.596 174.298L216.88 173.154C218.288 172.164 219.212 170.536 219.718 168.908L221.522 169.546C220.972 171.306 220.114 173.154 218.596 174.298ZM227.88 159.602V160.966H221.302V159.602H227.88ZM225.922 165.52V163.65H223.216V165.52H225.922ZM227.616 166.84V166.906H221.544V162.264H227.616V166.378C228.518 165.784 229.354 165.058 230.102 164.222C229.288 162.594 228.672 160.57 228.276 158.326H220.642V159.976C220.642 162.572 220.246 166.246 218.222 168.71C217.914 168.336 217.122 167.676 216.726 167.456C218.552 165.234 218.772 162.176 218.772 159.954V156.676H228.034C227.946 155.972 227.88 155.268 227.858 154.542H229.794C229.816 155.268 229.86 155.972 229.948 156.676H233.27C232.566 156.258 231.664 155.818 230.894 155.532L231.906 154.366C232.984 154.696 234.304 155.312 235.03 155.862L234.348 156.676H236.57V158.326H230.212C230.498 159.888 230.916 161.296 231.422 162.484C232.06 161.472 232.588 160.35 232.984 159.162L234.92 159.602C234.282 161.384 233.424 163.012 232.39 164.42C233.16 165.63 233.996 166.334 234.766 166.334C235.272 166.334 235.492 165.586 235.602 163.65C236.02 164.002 236.68 164.376 237.186 164.552C236.878 167.434 236.196 168.182 234.656 168.182C233.358 168.182 232.148 167.346 231.136 165.938C230.388 166.708 229.596 167.412 228.738 167.984C228.54 167.698 228.034 167.192 227.616 166.84ZM224.338 168.182L225.68 167.038C226.978 167.698 228.54 168.754 229.266 169.59L227.836 170.844C227.154 170.008 225.636 168.886 224.338 168.182ZM225.856 172.626H229.398C230.3 172.626 230.454 172.362 230.542 170.47C230.96 170.778 231.84 171.086 232.368 171.218C232.126 173.814 231.532 174.452 229.596 174.452H225.658C223.15 174.452 222.534 173.902 222.534 171.988V168.842H224.558V171.966C224.558 172.538 224.734 172.626 225.856 172.626ZM231.73 169.524L233.402 168.644C234.92 169.898 236.482 171.702 237.142 173.088L235.272 174.056C234.722 172.714 233.204 170.844 231.73 169.524ZM244.952 155.268V156.874H239.826V155.268H244.952ZM245.458 158.172V159.8H238.88V158.172H245.458ZM244.974 161.164V162.748H239.76V161.164H244.974ZM239.76 165.696V164.09H244.974V165.696H239.76ZM247.922 164.31V166.29L250.364 165.828V164.31H247.922ZM250.364 159.712V158.216H247.922V159.712H250.364ZM250.364 162.77V161.252H247.922V162.77H250.364ZM243.368 171.878V168.71H241.278V171.878H243.368ZM252.036 164.508L253.18 164.86C252.85 165.542 252.454 166.224 252.036 166.862V172.67C252.036 173.572 251.838 174.1 251.266 174.408C250.65 174.694 249.77 174.738 248.406 174.738C248.318 174.276 248.054 173.484 247.768 173.044C248.78 173.088 249.682 173.066 249.968 173.066C250.254 173.066 250.364 172.956 250.364 172.648V169.106C249.066 170.646 247.614 171.988 246.118 173C245.898 172.648 245.37 172.01 244.996 171.592V173.484H241.278V174.452H239.694V167.06H244.996V171.372C246.536 170.426 248.01 169.128 249.242 167.632L245.7 168.424L245.238 166.774C245.568 166.73 245.92 166.664 246.294 166.598V156.676H248.01C248.23 155.95 248.428 155.114 248.516 154.498L250.54 154.85C250.298 155.466 250.056 156.104 249.836 156.676H252.036V164.508ZM255.578 168.622L253.994 168.996C253.95 167.544 253.488 165.3 252.894 163.584L254.368 163.232C255.006 164.926 255.49 167.148 255.578 168.622ZM259.164 159.734V161.626H258.02V172.494C258.02 173.55 257.8 174.1 257.162 174.43C256.524 174.738 255.556 174.804 254.038 174.804C253.972 174.298 253.73 173.44 253.466 172.89C254.5 172.934 255.424 172.934 255.732 172.912C256.018 172.912 256.128 172.824 256.128 172.494V161.626H252.476V159.734H256.128V154.696H258.02V159.734H259.164ZM267.194 170.976V158.26C267.194 157.556 267.128 156.544 266.996 155.796H269.702C269.636 156.522 269.548 157.49 269.548 158.26V161.692C272.474 162.572 276.654 164.134 278.854 165.212L277.864 167.61C275.554 166.356 271.968 164.97 269.548 164.178V170.976C269.548 171.658 269.614 173 269.724 173.792H267.018C267.128 173.022 267.194 171.834 267.194 170.976ZM284.134 163.188C284.86 163.232 286.224 163.32 287.412 163.32H299.38C300.436 163.32 301.294 163.232 301.844 163.188V165.916C301.36 165.894 300.348 165.806 299.38 165.806H287.412C286.202 165.806 284.882 165.85 284.134 165.916V163.188ZM316.166 155.884C315.726 156.544 315.264 157.402 315.022 157.842C314.934 158.018 314.824 158.216 314.714 158.392H319.994C320.61 158.392 321.226 158.326 321.644 158.172L323.448 159.272C323.228 159.624 322.986 160.174 322.832 160.614C322.238 162.726 320.94 165.674 318.96 168.094C316.936 170.602 314.274 172.604 310.16 174.188L308.114 172.362C312.36 171.086 314.978 169.15 316.936 166.862C318.564 164.992 319.884 162.22 320.28 160.372H313.416C312.008 162.264 310.138 164.222 307.828 165.762L305.892 164.31C309.72 162.022 311.766 158.964 312.8 157.028C313.064 156.588 313.438 155.686 313.614 155.048L316.166 155.884ZM331.126 156.61C332.666 157.644 335.526 159.932 336.758 161.208L335.02 162.99C333.876 161.824 331.148 159.426 329.52 158.326L331.126 156.61ZM328.86 171.328C332.534 170.778 335.394 169.546 337.506 168.248C341.048 166.07 343.798 162.77 345.14 159.954L346.482 162.352C344.898 165.212 342.192 168.204 338.76 170.316C336.538 171.68 333.744 172.978 330.334 173.594L328.86 171.328ZM358.384 155.488C358.252 156.104 358.076 156.918 357.79 157.864C359.946 157.776 362.256 157.578 364.258 157.226V159.272C362.102 159.58 359.396 159.778 357.02 159.844C356.536 160.878 355.942 161.912 355.326 162.748C356.052 162.33 357.284 162.088 358.142 162.088C359.528 162.088 360.672 162.726 361.09 163.958C362.454 163.32 363.576 162.858 364.61 162.374C365.358 162.044 365.996 161.758 366.7 161.406L367.602 163.43C366.964 163.628 366.018 163.98 365.358 164.244C364.236 164.684 362.806 165.256 361.266 165.96C361.288 167.214 361.31 168.974 361.332 170.03H359.242C359.286 169.26 359.308 168.006 359.33 166.928C357.438 167.962 356.25 168.974 356.25 170.272C356.25 171.768 357.68 172.076 359.902 172.076C361.684 172.076 364.082 171.856 366.018 171.504L365.952 173.726C364.368 173.924 361.816 174.122 359.836 174.122C356.558 174.122 354.006 173.352 354.006 170.624C354.006 167.918 356.646 166.202 359.198 164.904C358.912 164.134 358.208 163.804 357.394 163.804C356.052 163.804 354.666 164.508 353.742 165.388C353.104 166.004 352.466 166.818 351.74 167.742L349.848 166.334C352.422 163.914 353.918 161.78 354.82 159.91C354.6 159.91 354.38 159.91 354.182 159.91C353.258 159.91 351.74 159.866 350.508 159.778V157.71C351.674 157.886 353.236 157.952 354.292 157.952C354.71 157.952 355.15 157.952 355.59 157.93C355.876 157.028 356.052 156.104 356.096 155.312L358.384 155.488ZM374.268 167.588C376.182 167.588 377.7 169.15 377.7 171.042C377.7 172.934 376.182 174.474 374.268 174.474C372.376 174.474 370.814 172.934 370.814 171.042C370.814 169.15 372.376 167.588 374.268 167.588ZM374.268 173.154C375.434 173.154 376.38 172.208 376.38 171.042C376.38 169.876 375.434 168.93 374.268 168.93C373.102 168.93 372.156 169.876 372.156 171.042C372.156 172.208 373.102 173.154 374.268 173.154ZM78.588 189.39C79.204 189.456 79.798 189.478 80.502 189.478C81.448 189.478 85.804 189.28 87.102 189.126C87.718 189.06 88.158 188.972 88.444 188.884L89.83 190.49C89.456 190.71 88.796 191.172 88.422 191.48C86.816 192.778 84.066 195.088 82.416 196.386C85.584 196.056 89.412 195.77 92.36 195.77L92.382 197.838C90.248 197.728 88.092 197.728 86.75 197.904C84.682 198.212 82.746 199.862 82.746 201.798C82.746 203.822 84.352 204.526 86.354 204.79C87.608 204.944 88.774 204.9 89.588 204.834L89.126 207.122C83.648 207.342 80.568 205.67 80.568 202.15C80.568 200.5 81.712 199.004 82.702 198.3C80.502 198.476 77.774 198.806 75.31 199.224L75.112 197.134C76.3 197.024 77.818 196.826 78.94 196.694C81.14 195.198 84.374 192.382 85.738 191.172C84.792 191.238 81.448 191.392 80.524 191.458C79.952 191.502 79.27 191.59 78.698 191.634L78.588 189.39ZM115.152 198.278C115.152 202.898 112.204 206.066 106.858 206.836L105.56 204.768C106.308 204.702 106.968 204.592 107.518 204.46C110.334 203.822 112.842 201.754 112.842 198.212C112.842 195.022 110.906 192.492 107.518 192.074C107.21 194.054 106.836 196.188 106.198 198.256C104.878 202.744 103.052 205.23 100.874 205.23C98.696 205.23 96.694 202.81 96.694 199.136C96.694 194.208 101.006 189.984 106.528 189.984C111.808 189.984 115.152 193.68 115.152 198.278ZM98.916 198.916C98.916 201.446 99.994 202.612 100.94 202.612C101.93 202.612 102.964 201.182 103.976 197.794C104.526 196.056 104.922 194.054 105.186 192.118C101.226 192.756 98.916 196.188 98.916 198.916ZM126.57 188.136H128.88C128.858 188.444 128.858 188.818 128.814 189.214C129.012 192.14 130.156 202.018 138.384 205.802C137.746 206.286 137.152 206.968 136.822 207.518C131.498 204.944 129.056 199.906 127.912 195.66C126.856 199.862 124.546 204.614 119.442 207.54C119.068 207.012 118.408 206.374 117.748 205.934C126.548 201.248 126.416 191.04 126.57 188.136ZM151.54 200.698C151.364 201.38 151.254 202.062 151.254 202.612C151.254 203.602 151.848 204.504 154.664 204.504C156.116 204.504 157.612 204.328 159.064 204.064L158.998 206.286C157.788 206.44 156.314 206.594 154.642 206.594C151.056 206.594 149.12 205.428 149.12 203.25C149.12 202.326 149.296 201.402 149.494 200.5L151.54 200.698ZM149.032 188.576C148.9 189.126 148.702 190.028 148.614 190.468C148.548 190.842 148.46 191.282 148.35 191.766C149.692 191.568 151.056 191.326 152.332 190.996V193.174C150.946 193.504 149.406 193.746 147.91 193.922C147.69 194.868 147.448 195.88 147.206 196.804C146.414 199.906 144.918 204.438 143.73 206.924L141.332 206.11C142.63 203.866 144.236 199.334 145.072 196.254C145.248 195.572 145.424 194.846 145.6 194.12C144.962 194.142 144.368 194.164 143.818 194.164C142.806 194.164 141.992 194.142 141.2 194.076L141.156 191.92C142.234 192.052 143.004 192.096 143.84 192.096C144.522 192.096 145.27 192.074 146.04 192.008C146.15 191.348 146.26 190.776 146.304 190.358C146.414 189.676 146.436 188.862 146.392 188.378L149.032 188.576ZM150.77 195.264C151.958 195.154 153.476 195.066 154.884 195.066C156.16 195.066 157.48 195.11 158.734 195.242L158.668 197.354C157.546 197.2 156.248 197.068 154.928 197.068C153.498 197.068 152.156 197.156 150.77 197.31V195.264ZM170.592 188.642C170.394 189.302 170.284 190.028 170.13 190.666C170.086 190.952 170.02 191.282 169.932 191.656C172.506 191.546 175.652 191.216 178.336 190.622L178.38 192.734C175.916 193.152 172.396 193.526 169.514 193.658C169.162 195.286 168.722 197.068 168.304 198.256C170.174 197.068 172.022 196.606 174.178 196.606C177.698 196.606 179.898 198.432 179.898 201.116C179.898 205.846 175.168 207.584 168.282 206.858L167.688 204.636C172.682 205.362 177.588 204.614 177.588 201.16C177.588 199.664 176.334 198.476 173.936 198.476C171.362 198.476 169.008 199.378 167.6 201.094C167.358 201.402 167.16 201.71 166.962 202.084L164.894 201.358C165.994 199.224 166.874 196.166 167.424 193.702C165.972 193.68 164.608 193.614 163.398 193.504V191.348C164.652 191.568 166.39 191.722 167.732 191.722C167.776 191.722 167.798 191.722 167.842 191.722C167.908 191.26 167.974 190.842 168.018 190.512C168.128 189.72 168.172 189.17 168.128 188.532L170.592 188.642ZM192.944 190.908C195.474 191.304 199.896 191.216 202.184 190.908V193.152C199.676 193.394 195.518 193.416 192.966 193.152L192.944 190.908ZM194.198 200.06C194 200.83 193.912 201.424 193.912 202.018C193.912 203.008 194.682 203.822 197.344 203.822C199.324 203.822 200.974 203.646 202.822 203.228L202.866 205.582C201.48 205.846 199.654 206.022 197.3 206.022C193.56 206.022 191.844 204.724 191.844 202.59C191.844 201.798 191.954 200.962 192.218 199.884L194.198 200.06ZM189.116 189.324C188.962 189.72 188.742 190.6 188.654 190.996C188.28 192.8 187.576 196.936 187.576 199.29C187.576 200.06 187.62 200.83 187.708 201.644C188.082 200.742 188.522 199.664 188.874 198.85L189.974 199.73C189.402 201.402 188.632 203.756 188.412 204.856C188.346 205.164 188.28 205.626 188.302 205.868C188.302 206.088 188.324 206.418 188.346 206.682L186.344 206.814C185.904 205.274 185.53 202.678 185.53 199.708C185.53 196.43 186.234 192.69 186.476 190.93C186.564 190.38 186.652 189.698 186.674 189.104L189.116 189.324ZM222.93 191.194C222.776 191.414 222.446 191.964 222.292 192.338C221.522 194.142 220.224 196.628 218.684 198.608C220.95 200.544 223.612 203.382 224.976 205.054L223.04 206.77C221.588 204.79 219.388 202.37 217.21 200.346C214.856 202.854 211.886 205.208 208.74 206.682L206.958 204.812C210.522 203.448 213.822 200.808 216 198.366C217.496 196.694 218.97 194.274 219.498 192.558H211.424C210.566 192.558 209.378 192.668 209.026 192.69V190.204C209.466 190.27 210.742 190.358 211.424 190.358H219.586C220.4 190.358 221.126 190.27 221.5 190.138L222.93 191.194ZM243.808 189.632C243.808 190.358 244.38 190.952 245.106 190.952C245.832 190.952 246.426 190.358 246.426 189.632C246.426 188.906 245.832 188.312 245.106 188.312C244.38 188.312 243.808 188.906 243.808 189.632ZM242.642 189.632C242.642 188.268 243.742 187.168 245.106 187.168C246.47 187.168 247.592 188.268 247.592 189.632C247.592 190.996 246.47 192.096 245.106 192.096C243.742 192.096 242.642 190.996 242.642 189.632ZM239.254 188.862C239.188 189.17 239.078 190.094 239.078 190.6V192.624H244.6C245.172 192.624 245.986 192.58 246.558 192.492V194.78C245.92 194.736 245.172 194.736 244.622 194.736H239.078V205.208C239.078 206.396 238.462 207.078 237.01 207.078C235.976 207.078 234.678 207.034 233.688 206.924L233.49 204.746C234.436 204.922 235.426 204.988 235.998 204.988C236.57 204.988 236.812 204.768 236.834 204.174V194.736H230.96C230.278 194.736 229.574 194.758 228.98 194.802V192.492C229.596 192.558 230.256 192.624 230.938 192.624H236.834V190.578C236.834 190.05 236.746 189.214 236.658 188.862H239.254ZM234.26 198.014C233.292 199.928 231.268 202.766 230.036 204.086L228.144 202.788C229.596 201.424 231.422 198.894 232.302 197.068L234.26 198.014ZM243.566 197.046C244.732 198.454 246.47 201.226 247.35 202.81L245.326 203.954C244.424 202.15 242.796 199.444 241.674 198.08L243.566 197.046ZM259.846 193.152C260.242 194.076 261.32 196.958 261.606 197.926L259.538 198.674C259.274 197.64 258.284 194.89 257.778 193.834L259.846 193.152ZM267.876 194.56C267.678 195.11 267.546 195.506 267.458 195.858C266.864 198.212 265.918 200.544 264.378 202.502C262.354 205.098 259.626 206.88 257.14 207.826L255.314 205.956C257.8 205.252 260.704 203.58 262.53 201.314C264.048 199.422 265.148 196.562 265.456 193.79L267.876 194.56ZM254.72 194.296C255.226 195.308 256.326 198.08 256.744 199.29L254.654 200.06C254.28 198.894 253.136 195.902 252.652 195.044L254.72 194.296ZM278.194 203.976V191.26C278.194 190.556 278.128 189.544 277.996 188.796H280.702C280.636 189.522 280.548 190.49 280.548 191.26V194.692C283.474 195.572 287.654 197.134 289.854 198.212L288.864 200.61C286.554 199.356 282.968 197.97 280.548 197.178V203.976C280.548 204.658 280.614 206 280.724 206.792H278.018C278.128 206.022 278.194 204.834 278.194 203.976ZM298.016 189.412C298.588 189.478 299.402 189.522 300.128 189.522H308.686C309.39 189.522 310.292 189.478 310.842 189.412V191.678C310.292 191.634 309.412 191.612 308.664 191.612H300.128C299.424 191.612 298.632 191.634 298.016 191.678V189.412ZM312.58 195.462C312.448 195.704 312.272 196.034 312.228 196.232C311.612 198.366 310.622 200.588 308.994 202.392C306.728 204.9 303.934 206.286 301.118 207.078L299.402 205.098C302.614 204.438 305.298 203.008 307.102 201.138C308.356 199.84 309.148 198.19 309.544 196.738H298.346C297.818 196.738 296.85 196.76 296.014 196.826V194.538C296.872 194.626 297.708 194.692 298.346 194.692H309.61C310.204 194.692 310.732 194.604 311.018 194.494L312.58 195.462ZM316.672 197.794C320.522 196.76 323.822 195.264 326.264 193.746C328.552 192.338 330.884 190.292 332.38 188.51L334.228 190.27C332.556 191.964 330.488 193.658 328.31 195.088V204.218C328.31 205.12 328.354 206.33 328.464 206.814H325.736C325.802 206.33 325.868 205.12 325.868 204.218V196.562C323.558 197.816 320.654 199.092 317.75 199.972L316.672 197.794ZM344.194 203.976V191.26C344.194 190.556 344.128 189.544 343.996 188.796H346.702C346.636 189.522 346.548 190.49 346.548 191.26V194.692C349.474 195.572 353.654 197.134 355.854 198.212L354.864 200.61C352.554 199.356 348.968 197.97 346.548 197.178V203.976C346.548 204.658 346.614 206 346.724 206.792H344.018C344.128 206.022 344.194 204.834 344.194 203.976ZM369.384 188.488C369.252 189.104 369.076 189.918 368.79 190.864C370.946 190.776 373.256 190.578 375.258 190.226V192.272C373.102 192.58 370.396 192.778 368.02 192.844C367.536 193.878 366.942 194.912 366.326 195.748C367.052 195.33 368.284 195.088 369.142 195.088C370.528 195.088 371.672 195.726 372.09 196.958C373.454 196.32 374.576 195.858 375.61 195.374C376.358 195.044 376.996 194.758 377.7 194.406L378.602 196.43C377.964 196.628 377.018 196.98 376.358 197.244C375.236 197.684 373.806 198.256 372.266 198.96C372.288 200.214 372.31 201.974 372.332 203.03H370.242C370.286 202.26 370.308 201.006 370.33 199.928C368.438 200.962 367.25 201.974 367.25 203.272C367.25 204.768 368.68 205.076 370.902 205.076C372.684 205.076 375.082 204.856 377.018 204.504L376.952 206.726C375.368 206.924 372.816 207.122 370.836 207.122C367.558 207.122 365.006 206.352 365.006 203.624C365.006 200.918 367.646 199.202 370.198 197.904C369.912 197.134 369.208 196.804 368.394 196.804C367.052 196.804 365.666 197.508 364.742 198.388C364.104 199.004 363.466 199.818 362.74 200.742L360.848 199.334C363.422 196.914 364.918 194.78 365.82 192.91C365.6 192.91 365.38 192.91 365.182 192.91C364.258 192.91 362.74 192.866 361.508 192.778V190.71C362.674 190.886 364.236 190.952 365.292 190.952C365.71 190.952 366.15 190.952 366.59 190.93C366.876 190.028 367.052 189.104 367.096 188.312L369.384 188.488ZM385.268 200.588C387.182 200.588 388.7 202.15 388.7 204.042C388.7 205.934 387.182 207.474 385.268 207.474C383.376 207.474 381.814 205.934 381.814 204.042C381.814 202.15 383.376 200.588 385.268 200.588ZM385.268 206.154C386.434 206.154 387.38 205.208 387.38 204.042C387.38 202.876 386.434 201.93 385.268 201.93C384.102 201.93 383.156 202.876 383.156 204.042C383.156 205.208 384.102 206.154 385.268 206.154Z" fill="#260004"/>
<path d="M149.437 46.466C149.327 46.796 149.239 47.192 149.173 47.522C149.085 47.94 148.997 48.446 148.909 48.974C151.659 48.864 154.189 48.578 156.521 48.028L156.543 50.074C154.321 50.47 151.373 50.756 148.667 50.888C148.601 51.636 148.535 52.45 148.469 53.264C149.635 52.956 150.889 52.78 151.989 52.78C152.209 52.78 152.429 52.78 152.627 52.802C152.737 52.406 152.847 51.746 152.891 51.372L155.047 51.9C154.915 52.186 154.739 52.736 154.585 53.132C157.247 53.924 158.919 55.926 158.919 58.412C158.919 61.558 156.961 64.418 151.725 65.232L150.537 63.406C154.629 62.944 156.785 60.854 156.785 58.324C156.785 56.784 155.817 55.42 153.991 54.848C152.781 57.906 150.999 60.304 149.217 61.778C149.371 62.394 149.569 62.966 149.745 63.516L147.743 64.11C147.633 63.78 147.523 63.428 147.413 63.032C146.269 63.67 145.015 64.088 143.827 64.088C142.309 64.088 141.055 63.164 141.055 61.14C141.055 58.302 143.475 55.376 146.533 53.946C146.577 52.934 146.665 51.9 146.753 50.954C146.379 50.954 146.027 50.954 145.675 50.954C144.641 50.954 142.925 50.844 141.979 50.8L141.913 48.754C142.683 48.886 144.619 49.04 145.741 49.04C146.137 49.04 146.555 49.04 146.951 49.04C146.995 48.49 147.061 48.006 147.105 47.566C147.149 47.17 147.171 46.708 147.171 46.4L149.437 46.466ZM148.403 55.684C148.403 57.092 148.535 58.368 148.733 59.556C150.009 58.302 151.197 56.696 152.055 54.54H151.901C150.559 54.54 149.371 54.804 148.403 55.156C148.403 55.332 148.403 55.508 148.403 55.684ZM143.123 60.744C143.123 61.558 143.497 61.976 144.289 61.976C145.037 61.976 145.983 61.646 146.951 61.008C146.665 59.446 146.467 57.664 146.467 56.036C144.509 57.224 143.123 59.16 143.123 60.744ZM170.953 46.422C170.777 47.192 170.469 48.424 170.139 49.656C171.261 49.48 172.361 49.238 173.373 48.908L173.439 50.932C172.339 51.24 170.975 51.526 169.501 51.724C168.423 54.826 166.509 58.654 164.727 61.074L162.615 59.996C164.419 57.84 166.245 54.452 167.235 51.966C166.685 51.988 166.157 52.01 165.629 52.01C164.793 52.01 163.869 51.988 162.989 51.944L162.835 49.898C163.693 49.986 164.749 50.03 165.629 50.03C166.355 50.03 167.125 50.008 167.895 49.942C168.225 48.71 168.489 47.346 168.533 46.18L170.953 46.422ZM169.765 61.668C169.765 62.614 170.557 63.252 172.053 63.252C173.725 63.252 174.275 62.328 174.275 61.14C174.275 60.942 174.275 60.678 174.253 60.392C173.615 60.216 172.933 60.106 172.207 60.106C170.755 60.106 169.765 60.766 169.765 61.668ZM176.123 53.242C176.079 54.166 176.101 54.936 176.123 55.816C176.145 56.542 176.211 57.818 176.277 59.072C178.169 59.754 179.709 60.854 180.831 61.844L179.665 63.714C178.807 62.922 177.685 61.976 176.365 61.25C176.365 61.47 176.365 61.69 176.365 61.866C176.365 63.736 175.243 65.254 172.339 65.254C169.787 65.254 167.719 64.154 167.719 61.866C167.719 59.798 169.589 58.346 172.317 58.346C172.977 58.346 173.593 58.412 174.187 58.5C174.121 56.762 174.011 54.694 173.967 53.242H176.123ZM180.259 54.078C179.049 53.066 176.607 51.68 175.111 50.998L176.233 49.304C177.817 50.008 180.413 51.46 181.513 52.252L180.259 54.078ZM195.373 58.698C195.197 59.38 195.087 60.062 195.087 60.612C195.087 61.602 195.681 62.504 198.497 62.504C199.949 62.504 201.445 62.328 202.897 62.064L202.831 64.286C201.621 64.44 200.147 64.594 198.475 64.594C194.889 64.594 192.953 63.428 192.953 61.25C192.953 60.326 193.129 59.402 193.327 58.5L195.373 58.698ZM192.865 46.576C192.733 47.126 192.535 48.028 192.447 48.468C192.381 48.842 192.293 49.282 192.183 49.766C193.525 49.568 194.889 49.326 196.165 48.996V51.174C194.779 51.504 193.239 51.746 191.743 51.922C191.523 52.868 191.281 53.88 191.039 54.804C190.247 57.906 188.751 62.438 187.563 64.924L185.165 64.11C186.463 61.866 188.069 57.334 188.905 54.254C189.081 53.572 189.257 52.846 189.433 52.12C188.795 52.142 188.201 52.164 187.651 52.164C186.639 52.164 185.825 52.142 185.033 52.076L184.989 49.92C186.067 50.052 186.837 50.096 187.673 50.096C188.355 50.096 189.103 50.074 189.873 50.008C189.983 49.348 190.093 48.776 190.137 48.358C190.247 47.676 190.269 46.862 190.225 46.378L192.865 46.576ZM194.603 53.264C195.791 53.154 197.309 53.066 198.717 53.066C199.993 53.066 201.313 53.11 202.567 53.242L202.501 55.354C201.379 55.2 200.081 55.068 198.761 55.068C197.331 55.068 195.989 55.156 194.603 55.31V53.264ZM224.985 56.278C224.985 60.898 222.037 64.066 216.691 64.836L215.393 62.768C216.141 62.702 216.801 62.592 217.351 62.46C220.167 61.822 222.675 59.754 222.675 56.212C222.675 53.022 220.739 50.492 217.351 50.074C217.043 52.054 216.669 54.188 216.031 56.256C214.711 60.744 212.885 63.23 210.707 63.23C208.529 63.23 206.527 60.81 206.527 57.136C206.527 52.208 210.839 47.984 216.361 47.984C221.641 47.984 224.985 51.68 224.985 56.278ZM208.749 56.916C208.749 59.446 209.827 60.612 210.773 60.612C211.763 60.612 212.797 59.182 213.809 55.794C214.359 54.056 214.755 52.054 215.019 50.118C211.059 50.756 208.749 54.188 208.749 56.916ZM228.725 58.126L230.463 58.434C230.177 60.502 229.671 62.636 228.989 64.044C228.659 63.802 227.845 63.428 227.427 63.274C228.087 61.954 228.505 60.018 228.725 58.126ZM234.687 56.586L233.059 56.696V65.76H231.233V56.806C229.979 56.872 228.813 56.938 227.801 57.004L227.625 55.2L229.165 55.156C229.583 54.628 230.001 54.056 230.441 53.44C229.759 52.472 228.637 51.284 227.669 50.36L228.659 48.996C228.857 49.172 229.055 49.348 229.253 49.524C229.935 48.314 230.661 46.73 231.057 45.542L232.905 46.202C232.113 47.698 231.189 49.436 230.397 50.624C230.815 51.064 231.189 51.504 231.475 51.9C232.333 50.58 233.125 49.216 233.697 48.072L235.435 48.82C234.181 50.822 232.531 53.242 231.057 55.068L233.983 54.958C233.697 54.342 233.389 53.748 233.059 53.198L234.533 52.56C235.435 53.99 236.337 55.86 236.645 57.07L235.083 57.818C234.995 57.466 234.863 57.048 234.687 56.586ZM233.543 58.522L235.083 58.016C235.677 59.336 236.271 61.052 236.513 62.174L234.885 62.746C234.687 61.602 234.093 59.864 233.543 58.522ZM239.439 59.49V63.274H244.389V59.49H239.439ZM244.389 48.556H239.439V52.164H244.389V48.556ZM244.389 57.642V54.012H239.439V57.642H244.389ZM246.457 63.274H248.041V65.122H235.259V63.274H237.437V46.708H246.457V63.274ZM269.799 50.91L268.193 51.614C267.841 50.536 266.961 48.842 266.213 47.588L267.709 46.972C268.523 48.204 269.403 49.854 269.799 50.91ZM250.461 58.126L252.023 58.39C251.847 60.436 251.473 62.548 250.901 63.956C250.593 63.736 249.867 63.406 249.493 63.274C250.043 61.954 250.307 59.996 250.461 58.126ZM254.465 58.412L255.873 57.994C256.335 59.27 256.819 60.942 256.995 62.042L255.521 62.504C255.389 61.382 254.927 59.71 254.465 58.412ZM258.997 61.822H261.747V60.062H258.997V61.822ZM261.747 56.938H258.997V58.654H261.747V56.938ZM267.841 55.266L269.469 55.706C268.875 57.73 268.039 59.578 266.939 61.228C267.269 62.702 267.665 63.538 268.171 63.582C268.501 63.604 268.743 62.504 268.875 60.678C269.161 61.096 269.887 61.58 270.173 61.756C269.733 65.056 268.897 65.892 268.105 65.87C266.961 65.826 266.169 64.792 265.619 62.944C264.673 64.022 263.573 64.99 262.341 65.782C262.077 65.43 261.461 64.77 261.087 64.484C261.681 64.11 262.253 63.714 262.781 63.274H258.997V64.506H257.391V55.486H263.463V62.68C264.057 62.108 264.629 61.492 265.113 60.832C264.805 59.05 264.607 56.828 264.475 54.276H256.115C256.577 55.288 256.929 56.322 257.061 57.092L255.565 57.708C255.499 57.356 255.389 56.938 255.257 56.476L254.223 56.586V65.716H252.529V56.718C251.517 56.806 250.549 56.872 249.691 56.938L249.515 55.134L250.901 55.068C251.275 54.518 251.671 53.88 252.067 53.22C251.473 52.252 250.527 51.086 249.691 50.206L250.593 48.798C250.769 48.974 250.945 49.15 251.121 49.326C251.649 48.138 252.155 46.664 252.463 45.564L254.201 46.136C253.585 47.588 252.837 49.304 252.177 50.492C252.485 50.866 252.749 51.24 252.991 51.592C253.651 50.382 254.267 49.15 254.707 48.116L256.335 48.82C255.235 50.8 253.827 53.154 252.573 54.98L254.685 54.87C254.443 54.276 254.157 53.682 253.893 53.132L255.301 52.604C255.565 53.066 255.807 53.594 256.049 54.122V52.626H258.029C257.985 51.79 257.743 50.624 257.413 49.678L258.821 49.37C259.195 50.338 259.459 51.592 259.503 52.428L258.623 52.626H261.637L260.735 52.406C261.043 51.57 261.417 50.294 261.571 49.37H256.511V47.808H259.261V45.52H261.131V47.808H263.881V49.37H262.099L263.309 49.634C262.913 50.668 262.561 51.834 262.231 52.626H264.387C264.321 50.492 264.255 48.16 264.233 45.652H265.993C265.993 48.138 266.015 50.492 266.103 52.626H269.755V54.276H266.191C266.257 55.904 266.389 57.356 266.521 58.632C267.093 57.576 267.533 56.432 267.841 55.266ZM280.777 48.908C283.307 49.304 287.729 49.216 290.017 48.908V51.152C287.509 51.394 283.351 51.416 280.799 51.152L280.777 48.908ZM282.031 58.06C281.833 58.83 281.745 59.424 281.745 60.018C281.745 61.008 282.515 61.822 285.177 61.822C287.157 61.822 288.807 61.646 290.655 61.228L290.699 63.582C289.313 63.846 287.487 64.022 285.133 64.022C281.393 64.022 279.677 62.724 279.677 60.59C279.677 59.798 279.787 58.962 280.051 57.884L282.031 58.06ZM276.949 47.324C276.795 47.72 276.575 48.6 276.487 48.996C276.113 50.8 275.409 54.936 275.409 57.29C275.409 58.06 275.453 58.83 275.541 59.644C275.915 58.742 276.355 57.664 276.707 56.85L277.807 57.73C277.235 59.402 276.465 61.756 276.245 62.856C276.179 63.164 276.113 63.626 276.135 63.868C276.135 64.088 276.157 64.418 276.179 64.682L274.177 64.814C273.737 63.274 273.363 60.678 273.363 57.708C273.363 54.43 274.067 50.69 274.309 48.93C274.397 48.38 274.485 47.698 274.507 47.104L276.949 47.324ZM302.821 46.554C302.667 47.236 302.579 47.764 302.491 48.292C302.425 48.776 302.337 49.458 302.227 50.294C303.855 50.294 305.329 50.184 306.495 50.008L306.429 52.076C305.065 52.208 303.811 52.296 302.007 52.296H301.963C301.809 53.44 301.655 54.694 301.523 55.838C301.633 55.838 301.721 55.838 301.831 55.838C303.261 55.838 304.845 55.772 306.341 55.574L306.275 57.642C304.933 57.774 303.591 57.862 302.161 57.862C301.875 57.862 301.611 57.862 301.325 57.862C301.259 58.632 301.215 59.314 301.215 59.776C301.215 61.778 302.381 62.944 304.735 62.944C307.947 62.944 309.883 61.514 309.883 59.446C309.883 57.95 309.091 56.41 307.551 55.046L309.993 54.54C311.467 56.278 312.193 57.818 312.193 59.71C312.193 63.01 309.245 65.166 304.691 65.166C301.501 65.166 299.059 63.78 299.059 60.128C299.059 59.556 299.125 58.72 299.213 57.73C297.607 57.598 296.067 57.334 294.813 56.982L294.923 54.87C296.353 55.376 297.937 55.618 299.433 55.75C299.587 54.584 299.741 53.352 299.895 52.186C298.311 52.054 296.661 51.768 295.319 51.416L295.429 49.392C296.771 49.832 298.487 50.096 300.115 50.228C300.225 49.436 300.291 48.732 300.335 48.16C300.401 47.28 300.401 46.862 300.357 46.422L302.821 46.554ZM319.997 65.342C318.611 63.648 316.741 61.778 315.201 60.48L317.005 58.896C318.567 60.172 320.613 62.24 321.867 63.758L319.997 65.342ZM75.7547 91.126L77.3827 91.412C77.1187 93.48 76.6347 95.592 75.9747 96.978C75.6667 96.758 74.8967 96.406 74.5227 96.274C75.1607 94.954 75.5567 92.996 75.7547 91.126ZM80.1107 91.412L81.5187 90.994C82.0467 92.226 82.4647 93.832 82.5967 94.866L81.1227 95.328C81.0127 94.272 80.5947 92.666 80.1107 91.412ZM93.7067 87.848L95.0047 89.3C94.0367 90.048 93.0027 90.862 92.1007 91.478C92.8927 93.282 93.9487 94.778 95.2687 95.702C94.8507 96.054 94.2347 96.736 93.9707 97.242C91.4187 95.218 89.9007 91.456 89.0427 87.166C88.6027 87.606 88.0967 88.024 87.5467 88.398C91.2647 91.61 90.9787 96.758 89.3287 98.1C88.7567 98.584 88.2507 98.738 87.4367 98.76C86.9967 98.76 86.5347 98.738 86.0727 98.716C86.0507 98.254 85.9407 97.528 85.6327 97C86.2047 97.088 86.6007 97.132 87.0407 97.132C87.5027 97.132 87.8327 97.066 88.1187 96.692C88.5367 96.296 88.8007 95.24 88.6687 93.964C87.0187 95.504 84.7307 97 82.7287 97.858C82.4427 97.396 82.0027 96.802 81.5847 96.45C83.9827 95.658 86.7767 93.92 88.2287 92.182C88.1187 91.874 87.9647 91.544 87.7887 91.236C86.5787 92.226 84.9287 93.238 83.5427 93.854C83.3227 93.414 82.8827 92.798 82.4867 92.468C83.9607 91.984 85.8087 90.994 86.9747 90.048C86.7547 89.784 86.5127 89.52 86.2267 89.278C85.4127 89.762 84.5547 90.18 83.7407 90.51C83.5427 90.158 83.0367 89.498 82.6847 89.168C82.7947 89.542 82.8827 89.872 82.9487 90.18L81.4307 90.818C81.3647 90.444 81.2547 89.982 81.1007 89.498L79.7147 89.586V98.716H77.9547V89.718C76.8327 89.784 75.7547 89.872 74.8307 89.916L74.6327 88.134L76.2827 88.046C76.6347 87.562 77.0307 87.034 77.4047 86.44C76.7667 85.45 75.6887 84.218 74.7427 83.272L75.7547 81.952C75.9747 82.15 76.1727 82.348 76.3927 82.568C77.0747 81.336 77.7567 79.73 78.1527 78.542L79.9127 79.18C79.1427 80.698 78.2187 82.48 77.4707 83.69C77.8227 84.086 78.1527 84.482 78.4167 84.856C79.2087 83.558 79.9567 82.194 80.4847 81.072L82.1347 81.82C80.9467 83.778 79.4507 86.132 78.0867 87.936L80.5067 87.804C80.2867 87.21 80.0007 86.594 79.7367 86.066L81.1227 85.516C81.7387 86.616 82.3327 88.002 82.6847 89.146C84.2467 88.596 85.8747 87.826 87.1067 86.88H82.4427V85.252H90.7587V83.822H84.3127V82.348H90.7587V80.94H83.8287V79.356H92.6947V85.252H95.0487V86.88H90.6487C90.8687 87.958 91.1547 88.992 91.5067 89.982C92.2767 89.322 93.1567 88.486 93.7067 87.848ZM116.081 89.278C116.081 93.898 113.133 97.066 107.787 97.836L106.489 95.768C107.237 95.702 107.897 95.592 108.447 95.46C111.263 94.822 113.771 92.754 113.771 89.212C113.771 86.022 111.835 83.492 108.447 83.074C108.139 85.054 107.765 87.188 107.127 89.256C105.807 93.744 103.981 96.23 101.803 96.23C99.6247 96.23 97.6227 93.81 97.6227 90.136C97.6227 85.208 101.935 80.984 107.457 80.984C112.737 80.984 116.081 84.68 116.081 89.278ZM99.8447 89.916C99.8447 92.446 100.923 93.612 101.869 93.612C102.859 93.612 103.893 92.182 104.905 88.794C105.455 87.056 105.851 85.054 106.115 83.118C102.155 83.756 99.8447 87.188 99.8447 89.916ZM138.653 82.216H129.567V85.934L129.941 85.494C132.449 86.704 135.903 88.662 137.597 89.982L136.101 91.852C134.693 90.664 131.943 88.948 129.567 87.628V98.694H127.389V82.216H119.227V80.126H138.653V82.216ZM141.579 82.26C142.415 82.238 143.185 82.194 143.625 82.15C145.231 81.996 149.147 81.622 153.195 81.27C155.549 81.072 157.749 80.94 159.267 80.896V83.118C158.035 83.118 156.121 83.14 154.977 83.426C152.051 84.306 150.115 87.452 150.115 90.048C150.115 94.052 153.855 95.394 157.485 95.548L156.693 97.902C152.381 97.682 147.871 95.372 147.871 90.532C147.871 87.21 149.829 84.548 151.611 83.382C149.389 83.602 144.263 84.13 141.799 84.658L141.579 82.26ZM156.099 85.56C156.627 86.33 157.441 87.672 157.903 88.596L156.539 89.212C156.011 88.09 155.439 87.078 154.779 86.132L156.099 85.56ZM158.541 84.614C159.069 85.362 159.927 86.682 160.411 87.606L159.069 88.244C158.497 87.122 157.925 86.154 157.221 85.208L158.541 84.614ZM177.395 88.728H168.793C169.761 90.598 171.169 92.138 172.973 93.392C174.821 92.182 176.339 90.664 177.395 88.728ZM178.913 86.616L180.343 87.474C179.177 90.488 177.285 92.776 174.887 94.514C177.153 95.658 179.903 96.428 183.071 96.802C182.609 97.286 182.059 98.21 181.773 98.782C178.253 98.254 175.305 97.264 172.863 95.79C170.223 97.22 167.165 98.144 163.931 98.716C163.755 98.188 163.205 97.242 162.787 96.758C165.801 96.318 168.595 95.592 170.993 94.47C169.277 93.062 167.891 91.346 166.835 89.256L168.353 88.728H164.679V86.704H171.807V83.69H163.667V81.666H171.807V78.542H173.919V81.666H182.125V83.69H173.919V86.704H178.561L178.913 86.616ZM190.793 79.444C193.213 79.928 197.437 80.412 199.615 80.544L199.329 82.59C197.063 82.414 193.103 81.908 190.441 81.446L190.793 79.444ZM200.187 86.022C199.703 86.374 199.197 86.792 198.889 87.078C197.965 87.892 195.677 90.004 194.995 90.73C195.193 90.708 195.589 90.752 195.831 90.84C196.601 90.972 197.063 91.5 197.349 92.38C197.569 92.996 197.833 93.986 198.053 94.624C198.273 95.394 198.779 95.768 199.791 95.768C201.353 95.768 202.959 95.57 204.015 95.328L203.883 97.638C202.959 97.792 200.825 97.968 199.681 97.968C197.767 97.968 196.667 97.528 196.161 96.076C195.941 95.416 195.633 94.228 195.457 93.656C195.193 92.864 194.731 92.512 194.181 92.512C193.653 92.512 193.147 92.842 192.641 93.348C191.849 94.14 189.781 96.34 188.417 98.078L186.327 96.626C186.657 96.362 187.119 95.966 187.625 95.482C188.615 94.47 193.939 89.146 196.051 86.99C194.401 87.078 191.167 87.364 189.847 87.474C189.099 87.518 188.505 87.606 188.021 87.694L187.823 85.274C188.329 85.318 189.055 85.34 189.803 85.34C190.969 85.318 196.029 85.032 197.767 84.812C198.141 84.768 198.669 84.658 198.889 84.57L200.187 86.022ZM213.535 94.558C213.535 95.526 214.613 96.12 216.175 96.12C216.725 96.12 217.253 96.098 217.737 96.032C217.561 94.426 216.593 93.304 215.141 93.304C214.217 93.304 213.535 93.898 213.535 94.558ZM210.323 80.544C210.873 80.61 211.555 80.632 212.083 80.632C213.227 80.632 218.243 80.5 219.431 80.39C220.201 80.324 220.597 80.28 220.839 80.192L222.049 81.776C221.587 82.062 221.125 82.37 220.663 82.722C219.541 83.558 216.835 85.846 215.273 87.122C216.153 86.858 217.033 86.748 217.913 86.748C221.587 86.748 224.315 89.014 224.315 92.094C224.315 95.592 221.521 98.1 216.571 98.1C213.535 98.1 211.511 96.758 211.511 94.756C211.511 93.128 212.963 91.654 215.141 91.654C217.869 91.654 219.431 93.414 219.717 95.504C221.235 94.844 222.049 93.656 222.049 92.05C222.049 89.982 220.025 88.486 217.275 88.486C213.755 88.486 211.687 90.136 209.091 92.908L207.485 91.28C209.201 89.872 211.951 87.562 213.249 86.484C214.481 85.472 217.033 83.36 218.133 82.392C216.967 82.436 213.161 82.612 212.017 82.678C211.467 82.7 210.895 82.744 210.389 82.81L210.323 80.544ZM236.833 79.136H239.143C239.121 79.444 239.121 79.818 239.077 80.214C239.275 83.14 240.419 93.018 248.647 96.802C248.009 97.286 247.415 97.968 247.085 98.518C241.761 95.944 239.319 90.906 238.175 86.66C237.119 90.862 234.809 95.614 229.705 98.54C229.331 98.012 228.671 97.374 228.011 96.934C236.811 92.248 236.679 82.04 236.833 79.136ZM261.803 91.698C261.627 92.38 261.517 93.062 261.517 93.612C261.517 94.602 262.111 95.504 264.927 95.504C266.379 95.504 267.875 95.328 269.327 95.064L269.261 97.286C268.051 97.44 266.577 97.594 264.905 97.594C261.319 97.594 259.383 96.428 259.383 94.25C259.383 93.326 259.559 92.402 259.757 91.5L261.803 91.698ZM259.295 79.576C259.163 80.126 258.965 81.028 258.877 81.468C258.811 81.842 258.723 82.282 258.613 82.766C259.955 82.568 261.319 82.326 262.595 81.996V84.174C261.209 84.504 259.669 84.746 258.173 84.922C257.953 85.868 257.711 86.88 257.469 87.804C256.677 90.906 255.181 95.438 253.993 97.924L251.595 97.11C252.893 94.866 254.499 90.334 255.335 87.254C255.511 86.572 255.687 85.846 255.863 85.12C255.225 85.142 254.631 85.164 254.081 85.164C253.069 85.164 252.255 85.142 251.463 85.076L251.419 82.92C252.497 83.052 253.267 83.096 254.103 83.096C254.785 83.096 255.533 83.074 256.303 83.008C256.413 82.348 256.523 81.776 256.567 81.358C256.677 80.676 256.699 79.862 256.655 79.378L259.295 79.576ZM261.033 86.264C262.221 86.154 263.739 86.066 265.147 86.066C266.423 86.066 267.743 86.11 268.997 86.242L268.931 88.354C267.809 88.2 266.511 88.068 265.191 88.068C263.761 88.068 262.419 88.156 261.033 88.31V86.264ZM280.855 79.642C280.657 80.302 280.547 81.028 280.393 81.666C280.349 81.952 280.283 82.282 280.195 82.656C282.769 82.546 285.915 82.216 288.599 81.622L288.643 83.734C286.179 84.152 282.659 84.526 279.777 84.658C279.425 86.286 278.985 88.068 278.567 89.256C280.437 88.068 282.285 87.606 284.441 87.606C287.961 87.606 290.161 89.432 290.161 92.116C290.161 96.846 285.431 98.584 278.545 97.858L277.951 95.636C282.945 96.362 287.851 95.614 287.851 92.16C287.851 90.664 286.597 89.476 284.199 89.476C281.625 89.476 279.271 90.378 277.863 92.094C277.621 92.402 277.423 92.71 277.225 93.084L275.157 92.358C276.257 90.224 277.137 87.166 277.687 84.702C276.235 84.68 274.871 84.614 273.661 84.504V82.348C274.915 82.568 276.653 82.722 277.995 82.722C278.039 82.722 278.061 82.722 278.105 82.722C278.171 82.26 278.237 81.842 278.281 81.512C278.391 80.72 278.435 80.17 278.391 79.532L280.855 79.642ZM302.899 79.862C302.789 80.324 302.679 80.896 302.569 81.38C302.437 82.062 302.239 83.118 302.041 84.152C302.943 84.064 303.757 84.02 304.263 84.02C306.375 84.02 308.003 84.878 308.003 87.958C308.003 90.554 307.673 94.096 306.749 95.944C306.023 97.462 304.879 97.88 303.361 97.88C302.503 97.88 301.469 97.726 300.743 97.55L300.369 95.262C301.271 95.526 302.459 95.702 303.075 95.702C303.845 95.702 304.461 95.504 304.879 94.668C305.539 93.282 305.847 90.488 305.847 88.2C305.847 86.308 304.989 85.978 303.603 85.978C303.141 85.978 302.415 86.022 301.601 86.11C300.787 89.344 299.225 94.426 297.047 97.946L294.781 97.044C296.981 94.074 298.565 89.322 299.335 86.33C298.345 86.44 297.443 86.55 296.937 86.616C296.387 86.682 295.353 86.814 294.759 86.924L294.539 84.548C295.265 84.592 295.925 84.57 296.673 84.548C297.377 84.526 298.565 84.438 299.797 84.328C300.127 82.7 300.325 81.028 300.325 79.598L302.899 79.862ZM312.931 78.19C313.503 79.004 314.339 80.39 314.757 81.182L313.327 81.82C312.843 80.874 312.139 79.62 311.501 78.784L312.931 78.19ZM310.423 79.114C310.973 79.906 311.765 81.292 312.205 82.15L310.797 82.744C312.139 84.724 313.789 88.288 314.427 90.18L312.249 91.214C311.633 88.86 309.961 85.01 308.421 83.162L310.467 82.26C310.489 82.304 310.533 82.348 310.555 82.392C310.137 81.534 309.521 80.434 308.993 79.708L310.423 79.114ZM320.521 81.49C320.411 82.128 320.301 83.272 320.301 83.866C320.279 85.252 320.301 87.1 320.455 88.816C320.785 92.27 321.687 94.602 323.161 94.602C324.261 94.602 325.229 92.204 325.735 90.202L327.473 92.248C326.087 96.01 324.723 97.308 323.117 97.308C320.895 97.308 318.849 95.196 318.255 89.41C318.035 87.474 318.013 84.834 318.013 83.514C318.013 82.964 317.969 82.04 317.837 81.446L320.521 81.49ZM331.785 82.04C333.809 84.592 335.437 89.63 335.723 93.194L333.457 94.074C333.083 90.29 331.829 85.406 329.607 82.766L331.785 82.04ZM343.159 94.602C343.159 95.548 343.995 96.208 345.887 96.208C347.119 96.208 348.065 95.834 348.065 94.426C348.065 94.118 348.065 93.678 348.043 93.194C347.405 93.062 346.723 92.996 346.041 92.996C344.171 92.996 343.159 93.722 343.159 94.602ZM350.089 79.4C350.045 79.796 350.001 80.28 349.979 80.896C349.957 81.16 349.957 81.578 349.935 82.062C351.827 81.974 353.763 81.776 355.721 81.446V83.47C354.093 83.668 352.047 83.866 349.913 83.954C349.913 84.944 349.913 85.978 349.913 86.682C352.091 86.594 354.027 86.396 355.941 86.132L355.919 88.178C353.895 88.42 352.069 88.574 349.957 88.662C350.001 89.674 350.067 90.73 350.111 91.72C352.971 92.512 355.149 94.052 356.425 95.086L355.149 97.044C353.895 95.9 352.223 94.646 350.221 93.832C350.243 94.294 350.265 94.668 350.265 94.976C350.265 96.648 349.055 98.166 346.173 98.166C342.873 98.166 341.091 96.934 341.091 94.734C341.091 92.622 343.049 91.192 346.327 91.192C346.899 91.192 347.427 91.236 347.955 91.28C347.933 90.422 347.889 89.52 347.867 88.706C347.471 88.706 347.075 88.706 346.657 88.706C345.249 88.706 342.807 88.596 341.289 88.42L341.267 86.352C342.763 86.594 345.359 86.748 346.701 86.748C347.075 86.748 347.449 86.748 347.823 86.748C347.823 85.846 347.823 84.922 347.823 84.042C347.537 84.042 347.229 84.042 346.921 84.042C345.469 84.042 342.829 83.822 341.399 83.646L341.377 81.644C342.851 81.908 345.491 82.128 346.899 82.128C347.207 82.128 347.537 82.128 347.845 82.128C347.845 81.622 347.845 81.16 347.845 80.786C347.845 80.412 347.823 79.752 347.735 79.4H350.089ZM373.321 79.444C373.255 79.73 373.189 80.742 373.189 81.05C373.167 81.314 373.167 81.71 373.167 82.15H379.767L379.723 84.218C378.425 84.152 376.335 84.108 373.145 84.108C373.167 85.296 373.167 86.572 373.167 87.562C373.673 88.354 373.937 89.366 373.937 90.488C373.937 93.414 372.375 96.868 367.161 98.386L365.291 96.538C367.887 95.966 369.911 94.998 370.967 93.304C370.527 93.524 369.999 93.634 369.427 93.634C367.645 93.634 365.731 92.314 365.731 89.806C365.731 87.496 367.601 85.846 369.823 85.846C370.263 85.846 370.681 85.89 371.055 86C371.055 85.428 371.033 84.768 371.033 84.13C367.689 84.174 364.081 84.306 361.353 84.482L361.287 82.37C363.773 82.326 367.865 82.216 371.011 82.172C370.989 81.688 370.989 81.314 370.967 81.05C370.901 80.346 370.835 79.664 370.791 79.444H373.321ZM367.799 89.762C367.799 90.972 368.745 91.72 369.801 91.72C370.945 91.72 371.803 90.818 371.517 88.75C371.165 88.024 370.527 87.694 369.801 87.694C368.789 87.694 367.799 88.442 367.799 89.762ZM383.339 91.588C385.253 91.588 386.771 93.15 386.771 95.042C386.771 96.934 385.253 98.474 383.339 98.474C381.447 98.474 379.885 96.934 379.885 95.042C379.885 93.15 381.447 91.588 383.339 91.588ZM383.339 97.154C384.505 97.154 385.451 96.208 385.451 95.042C385.451 93.876 384.505 92.93 383.339 92.93C382.173 92.93 381.227 93.876 381.227 95.042C381.227 96.208 382.173 97.154 383.339 97.154ZM52.3856 116.118H58.1716C57.0056 115.238 55.9496 114.226 55.2016 113.258C54.5196 114.204 53.5296 115.216 52.3856 116.118ZM52.0996 117.592V116.338C51.1536 117.064 50.1416 117.724 49.0856 118.23C48.9096 117.79 48.5356 117.174 48.2276 116.734C47.9196 117.548 47.6336 118.34 47.3476 119.022C48.8436 120.76 49.1736 122.278 49.1736 123.598C49.1736 124.852 48.9096 125.776 48.2716 126.216C47.9416 126.436 47.5236 126.59 47.0836 126.656C46.6656 126.7 46.1376 126.7 45.6316 126.678C45.6096 126.172 45.4556 125.402 45.1476 124.918C45.6096 124.962 45.9836 124.962 46.2696 124.94C46.5336 124.94 46.7536 124.874 46.9516 124.742C47.2596 124.522 47.3476 123.994 47.3476 123.356C47.3476 122.256 46.9956 120.826 45.5656 119.242C46.1156 117.768 46.6876 115.81 47.1056 114.314H44.7516V131.738H42.9476V112.466H47.7876L48.0956 112.4L49.4376 113.17C49.0856 114.226 48.6896 115.414 48.2716 116.558C50.7136 115.458 53.0676 113.412 54.2556 111.586H56.0376C57.6656 113.676 60.1296 115.524 62.4616 116.426C62.0876 116.888 61.6916 117.592 61.4276 118.142C60.4596 117.68 59.4256 117.042 58.4576 116.338V117.592H52.0996ZM50.4716 123.664V122.146H57.0496L56.6096 122.014C56.8956 121.508 57.2036 120.914 57.4676 120.364H50.2296V118.846H58.3036L58.6116 118.758L59.9536 119.22C59.5136 120.254 59.0516 121.244 58.5456 122.146H60.5696V123.664H50.4716ZM58.0396 126.7H54.6076C54.0796 127.58 53.5296 128.526 53.0236 129.34C54.6736 129.274 56.4996 129.208 58.3256 129.12C57.8416 128.504 57.3136 127.91 56.8076 127.382L58.0396 126.7ZM49.1296 126.7V125.138H61.9996V126.7H58.5236C59.8216 127.954 61.2076 129.648 61.8236 130.858L60.1516 131.826C59.9756 131.474 59.7336 131.056 59.4476 130.616C55.7076 130.858 51.8356 131.078 49.1296 131.232L48.8216 129.494L50.9996 129.428C51.4836 128.636 51.9896 127.624 52.3856 126.7H49.1296ZM64.7936 115.26C65.6296 115.238 66.3996 115.194 66.8396 115.15C68.4456 114.996 72.3616 114.622 76.4096 114.27C78.7636 114.072 80.9636 113.94 82.4816 113.896V116.118C81.2496 116.118 79.3356 116.14 78.1916 116.426C75.2656 117.306 73.3296 120.452 73.3296 123.048C73.3296 127.052 77.0696 128.394 80.6996 128.548L79.9076 130.902C75.5956 130.682 71.0856 128.372 71.0856 123.532C71.0856 120.21 73.0436 117.548 74.8256 116.382C72.6036 116.602 67.4776 117.13 65.0136 117.658L64.7936 115.26ZM79.3136 118.56C79.8416 119.33 80.6556 120.672 81.1176 121.596L79.7536 122.212C79.2256 121.09 78.6536 120.078 77.9936 119.132L79.3136 118.56ZM81.7556 117.614C82.2836 118.362 83.1416 119.682 83.6256 120.606L82.2836 121.244C81.7116 120.122 81.1396 119.154 80.4356 118.208L81.7556 117.614ZM103.426 119.418V117.592H97.7056V119.418H103.426ZM103.426 122.696V120.848H97.7056V122.696H103.426ZM103.426 125.974V124.126H97.7056V125.974H103.426ZM95.8136 116.074H99.0256C99.1576 115.48 99.2676 114.842 99.3556 114.248H94.9776V112.51H106.11V114.248H101.644C101.446 114.886 101.248 115.502 101.05 116.074H105.384V127.514H95.8136V116.074ZM94.3396 112.554V114.446H87.0136V112.554H94.3396ZM95.1096 125.776L95.4396 127.338C93.9436 128.02 92.3596 128.68 91.0396 129.252L90.2916 127.47C90.6216 127.36 90.9956 127.25 91.3916 127.118V119.638H89.7196V121.75C89.7196 124.28 89.3896 127.976 87.1236 130.506C86.8156 130.154 86.1776 129.538 85.7596 129.296C87.6736 127.008 87.8936 123.862 87.8936 121.728V119.638H86.3096V117.724H95.0216V119.638H93.1956V126.48L95.1096 125.776ZM97.9256 127.756L99.6636 128.812C98.4536 129.956 96.4296 131.166 94.6916 131.804C94.3836 131.43 93.7456 130.814 93.3276 130.462C95.0436 129.846 96.9796 128.702 97.9256 127.756ZM101.204 128.878L102.744 127.844C104.02 128.614 105.692 129.802 106.55 130.616L104.944 131.782C104.174 130.99 102.502 129.736 101.204 128.878ZM110.488 122.146H115.768C115.768 122.146 115.746 122.74 115.724 122.982C115.416 128.174 115.064 130.22 114.382 130.946C113.964 131.43 113.502 131.606 112.864 131.672C112.27 131.738 111.28 131.76 110.224 131.694C110.202 131.122 110.004 130.33 109.674 129.802C110.62 129.89 111.522 129.89 111.918 129.89C112.248 129.89 112.468 129.846 112.688 129.648C113.106 129.208 113.392 127.69 113.656 123.972H110.224L110.092 124.808L108.2 124.588C108.552 122.762 108.97 119.858 109.168 117.636H113.546V114.534H108.53V112.664H115.438V119.528H110.818C110.73 120.408 110.62 121.288 110.488 122.146ZM126.504 123.774L128.198 124.742C127.142 125.622 125.866 126.546 124.81 127.228C125.778 128.46 127.032 129.406 128.572 129.978C128.11 130.374 127.516 131.21 127.23 131.76C124.018 130.308 122.104 127.316 121.07 123.4H119.486V128.966C120.652 128.79 121.884 128.614 123.094 128.416L123.16 130.198C120.674 130.638 118.056 131.078 116.076 131.43L115.702 129.472C116.252 129.406 116.868 129.34 117.528 129.252V123.4H115.768V121.618H117.462V112.312H127.23V114.094H119.42V115.568H126.394V117.064H119.42V118.56H126.394V120.056H119.42V121.618H128.264V123.4H122.852C123.16 124.346 123.534 125.226 123.996 126.04C124.92 125.314 125.888 124.456 126.504 123.774ZM132.51 120.98C133.148 120.87 134.006 120.628 134.688 120.43C136.206 119.946 139.88 118.67 142.498 118.67C145.776 118.67 148.064 120.606 148.064 123.752C148.064 127.888 144.236 130.286 137.856 130.682L136.932 128.548C141.816 128.394 145.798 127.052 145.798 123.73C145.798 121.948 144.412 120.672 142.322 120.672C139.66 120.672 135.04 122.586 133.434 123.268L132.51 120.98ZM151.786 115.15C152.644 115.128 153.414 115.084 153.832 115.04C155.438 114.886 159.354 114.512 163.402 114.182C165.756 113.984 167.956 113.852 169.474 113.786V116.008C168.264 116.008 166.35 116.03 165.206 116.338C162.28 117.218 160.322 120.342 160.322 122.96C160.322 126.964 164.062 128.306 167.714 128.46L166.9 130.792C162.588 130.594 158.078 128.284 158.078 123.422C158.078 120.122 160.036 117.438 161.818 116.272C159.596 116.514 154.47 117.042 152.028 117.57L151.786 115.15ZM177.306 114.49C177.196 115.128 177.086 116.272 177.086 116.866C177.064 118.252 177.086 120.1 177.24 121.816C177.57 125.27 178.472 127.602 179.946 127.602C181.046 127.602 182.014 125.204 182.52 123.202L184.258 125.248C182.872 129.01 181.508 130.308 179.902 130.308C177.68 130.308 175.634 128.196 175.04 122.41C174.82 120.474 174.798 117.834 174.798 116.514C174.798 115.964 174.754 115.04 174.622 114.446L177.306 114.49ZM188.57 115.04C190.594 117.592 192.222 122.63 192.508 126.194L190.242 127.074C189.868 123.29 188.614 118.406 186.392 115.766L188.57 115.04ZM202.32 127.558C202.32 128.526 203.398 129.12 204.96 129.12C205.51 129.12 206.038 129.098 206.522 129.032C206.346 127.426 205.378 126.304 203.926 126.304C203.002 126.304 202.32 126.898 202.32 127.558ZM199.108 113.544C199.658 113.61 200.34 113.632 200.868 113.632C202.012 113.632 207.028 113.5 208.216 113.39C208.986 113.324 209.382 113.28 209.624 113.192L210.834 114.776C210.372 115.062 209.91 115.37 209.448 115.722C208.326 116.558 205.62 118.846 204.058 120.122C204.938 119.858 205.818 119.748 206.698 119.748C210.372 119.748 213.1 122.014 213.1 125.094C213.1 128.592 210.306 131.1 205.356 131.1C202.32 131.1 200.296 129.758 200.296 127.756C200.296 126.128 201.748 124.654 203.926 124.654C206.654 124.654 208.216 126.414 208.502 128.504C210.02 127.844 210.834 126.656 210.834 125.05C210.834 122.982 208.81 121.486 206.06 121.486C202.54 121.486 200.472 123.136 197.876 125.908L196.27 124.28C197.986 122.872 200.736 120.562 202.034 119.484C203.266 118.472 205.818 116.36 206.918 115.392C205.752 115.436 201.946 115.612 200.802 115.678C200.252 115.7 199.68 115.744 199.174 115.81L199.108 113.544ZM225.552 123.532L225.816 125.468C222.868 126.326 219.722 127.206 217.39 127.866L216.884 125.732C217.808 125.556 218.974 125.27 220.228 124.94V115.964H217.17V114.028H225.244V115.964H222.252V124.412L225.552 123.532ZM236.64 116.382V117.35C236.31 126.282 236.068 129.472 235.232 130.484C234.726 131.144 234.22 131.364 233.45 131.452C232.724 131.54 231.492 131.54 230.282 131.474C230.238 130.902 229.996 130.022 229.622 129.472C230.876 129.56 232.042 129.582 232.548 129.582C232.944 129.582 233.186 129.516 233.428 129.23C234.022 128.57 234.33 125.688 234.594 118.34H230.832C230.48 124.17 229.204 128.966 224.298 131.782C224.012 131.232 223.352 130.506 222.846 130.132C227.334 127.712 228.478 123.532 228.786 118.34H225.486V116.382H228.874C228.918 114.93 228.918 113.456 228.918 111.894H230.986C230.986 113.434 230.964 114.93 230.92 116.382H236.64ZM250.368 115.238L248.454 115.92C248.212 114.908 247.508 113.346 246.826 112.158L248.63 111.564C249.378 112.708 250.126 114.204 250.368 115.238ZM249.268 121.728H256.66C256.66 121.728 256.66 122.322 256.616 122.608C256.352 127.998 256.044 130.132 255.318 130.902C254.834 131.474 254.284 131.65 253.47 131.716C252.722 131.782 251.336 131.782 249.928 131.716C249.884 131.1 249.62 130.264 249.224 129.692C250.654 129.824 252.062 129.846 252.612 129.846C253.03 129.846 253.294 129.802 253.558 129.582C253.998 129.164 254.284 127.514 254.504 123.642H248.982C248.234 127.624 246.254 130.286 240.424 131.738C240.204 131.188 239.676 130.352 239.214 129.89C244.274 128.746 246.056 126.744 246.76 123.642H241.062V121.728H247.046C247.156 120.782 247.2 119.77 247.244 118.648H249.466C249.422 119.748 249.356 120.76 249.268 121.728ZM254.68 116.118H258.332V120.936H256.286V118.032H241.854V120.936H239.874V116.118H243.196C242.8 115.128 241.942 113.764 241.062 112.752L242.822 111.938C243.746 112.972 244.758 114.38 245.154 115.37L243.614 116.118H253.052L252.568 115.92C253.47 114.798 254.57 113.016 255.164 111.718L257.408 112.422C256.55 113.72 255.538 115.084 254.68 116.118ZM270.608 118.362H272.038C273.072 117.592 274.018 116.756 274.92 115.898H270.608V118.362ZM276.064 125.776V123.95H267.77V125.776H276.064ZM267.77 129.318H276.064V127.382H267.77V129.318ZM280.794 120.188H272.72C271.73 120.936 270.696 121.596 269.64 122.256H278.176V131.65H276.064V131.056H267.77V131.738H265.746V124.346C264.514 124.918 263.26 125.446 262.006 125.93C261.764 125.468 261.126 124.654 260.752 124.236C263.788 123.224 266.714 121.86 269.354 120.188H261.302V118.362H268.584V115.898H263.216V114.116H268.584V111.542H270.608V114.116H275.734V115.084C276.614 114.182 277.428 113.236 278.132 112.246L279.892 113.17C278.506 115.062 276.856 116.778 275.03 118.362H280.794V120.188ZM294.588 124.698C294.412 125.38 294.302 126.062 294.302 126.612C294.302 127.602 294.896 128.504 297.712 128.504C299.164 128.504 300.66 128.328 302.112 128.064L302.046 130.286C300.836 130.44 299.362 130.594 297.69 130.594C294.104 130.594 292.168 129.428 292.168 127.25C292.168 126.326 292.344 125.402 292.542 124.5L294.588 124.698ZM292.08 112.576C291.948 113.126 291.75 114.028 291.662 114.468C291.596 114.842 291.508 115.282 291.398 115.766C292.74 115.568 294.104 115.326 295.38 114.996V117.174C293.994 117.504 292.454 117.746 290.958 117.922C290.738 118.868 290.496 119.88 290.254 120.804C289.462 123.906 287.966 128.438 286.778 130.924L284.38 130.11C285.678 127.866 287.284 123.334 288.12 120.254C288.296 119.572 288.472 118.846 288.648 118.12C288.01 118.142 287.416 118.164 286.866 118.164C285.854 118.164 285.04 118.142 284.248 118.076L284.204 115.92C285.282 116.052 286.052 116.096 286.888 116.096C287.57 116.096 288.318 116.074 289.088 116.008C289.198 115.348 289.308 114.776 289.352 114.358C289.462 113.676 289.484 112.862 289.44 112.378L292.08 112.576ZM293.818 119.264C295.006 119.154 296.524 119.066 297.932 119.066C299.208 119.066 300.528 119.11 301.782 119.242L301.716 121.354C300.594 121.2 299.296 121.068 297.976 121.068C296.546 121.068 295.204 121.156 293.818 121.31V119.264ZM313.64 112.642C313.442 113.302 313.332 114.028 313.178 114.666C313.134 114.952 313.068 115.282 312.98 115.656C315.554 115.546 318.7 115.216 321.384 114.622L321.428 116.734C318.964 117.152 315.444 117.526 312.562 117.658C312.21 119.286 311.77 121.068 311.352 122.256C313.222 121.068 315.07 120.606 317.226 120.606C320.746 120.606 322.946 122.432 322.946 125.116C322.946 129.846 318.216 131.584 311.33 130.858L310.736 128.636C315.73 129.362 320.636 128.614 320.636 125.16C320.636 123.664 319.382 122.476 316.984 122.476C314.41 122.476 312.056 123.378 310.648 125.094C310.406 125.402 310.208 125.71 310.01 126.084L307.942 125.358C309.042 123.224 309.922 120.166 310.472 117.702C309.02 117.68 307.656 117.614 306.446 117.504V115.348C307.7 115.568 309.438 115.722 310.78 115.722C310.824 115.722 310.846 115.722 310.89 115.722C310.956 115.26 311.022 114.842 311.066 114.512C311.176 113.72 311.22 113.17 311.176 112.532L313.64 112.642ZM335.684 112.862C335.574 113.324 335.464 113.896 335.354 114.38C335.222 115.062 335.024 116.118 334.826 117.152C335.728 117.064 336.542 117.02 337.048 117.02C339.16 117.02 340.788 117.878 340.788 120.958C340.788 123.554 340.458 127.096 339.534 128.944C338.808 130.462 337.664 130.88 336.146 130.88C335.288 130.88 334.254 130.726 333.528 130.55L333.154 128.262C334.056 128.526 335.244 128.702 335.86 128.702C336.63 128.702 337.246 128.504 337.664 127.668C338.324 126.282 338.632 123.488 338.632 121.2C338.632 119.308 337.774 118.978 336.388 118.978C335.926 118.978 335.2 119.022 334.386 119.11C333.572 122.344 332.01 127.426 329.832 130.946L327.566 130.044C329.766 127.074 331.35 122.322 332.12 119.33C331.13 119.44 330.228 119.55 329.722 119.616C329.172 119.682 328.138 119.814 327.544 119.924L327.324 117.548C328.05 117.592 328.71 117.57 329.458 117.548C330.162 117.526 331.35 117.438 332.582 117.328C332.912 115.7 333.11 114.028 333.11 112.598L335.684 112.862ZM345.716 111.19C346.288 112.004 347.124 113.39 347.542 114.182L346.112 114.82C345.628 113.874 344.924 112.62 344.286 111.784L345.716 111.19ZM343.208 112.114C343.758 112.906 344.55 114.292 344.99 115.15L343.582 115.744C344.924 117.724 346.574 121.288 347.212 123.18L345.034 124.214C344.418 121.86 342.746 118.01 341.206 116.162L343.252 115.26C343.274 115.304 343.318 115.348 343.34 115.392C342.922 114.534 342.306 113.434 341.778 112.708L343.208 112.114ZM353.306 114.49C353.196 115.128 353.086 116.272 353.086 116.866C353.064 118.252 353.086 120.1 353.24 121.816C353.57 125.27 354.472 127.602 355.946 127.602C357.046 127.602 358.014 125.204 358.52 123.202L360.258 125.248C358.872 129.01 357.508 130.308 355.902 130.308C353.68 130.308 351.634 128.196 351.04 122.41C350.82 120.474 350.798 117.834 350.798 116.514C350.798 115.964 350.754 115.04 350.622 114.446L353.306 114.49ZM364.57 115.04C366.594 117.592 368.222 122.63 368.508 126.194L366.242 127.074C365.868 123.29 364.614 118.406 362.392 115.766L364.57 115.04ZM375.944 127.602C375.944 128.548 376.78 129.208 378.672 129.208C379.904 129.208 380.85 128.834 380.85 127.426C380.85 127.118 380.85 126.678 380.828 126.194C380.19 126.062 379.508 125.996 378.826 125.996C376.956 125.996 375.944 126.722 375.944 127.602ZM382.874 112.4C382.83 112.796 382.786 113.28 382.764 113.896C382.742 114.16 382.742 114.578 382.72 115.062C384.612 114.974 386.548 114.776 388.506 114.446V116.47C386.878 116.668 384.832 116.866 382.698 116.954C382.698 117.944 382.698 118.978 382.698 119.682C384.876 119.594 386.812 119.396 388.726 119.132L388.704 121.178C386.68 121.42 384.854 121.574 382.742 121.662C382.786 122.674 382.852 123.73 382.896 124.72C385.756 125.512 387.934 127.052 389.21 128.086L387.934 130.044C386.68 128.9 385.008 127.646 383.006 126.832C383.028 127.294 383.05 127.668 383.05 127.976C383.05 129.648 381.84 131.166 378.958 131.166C375.658 131.166 373.876 129.934 373.876 127.734C373.876 125.622 375.834 124.192 379.112 124.192C379.684 124.192 380.212 124.236 380.74 124.28C380.718 123.422 380.674 122.52 380.652 121.706C380.256 121.706 379.86 121.706 379.442 121.706C378.034 121.706 375.592 121.596 374.074 121.42L374.052 119.352C375.548 119.594 378.144 119.748 379.486 119.748C379.86 119.748 380.234 119.748 380.608 119.748C380.608 118.846 380.608 117.922 380.608 117.042C380.322 117.042 380.014 117.042 379.706 117.042C378.254 117.042 375.614 116.822 374.184 116.646L374.162 114.644C375.636 114.908 378.276 115.128 379.684 115.128C379.992 115.128 380.322 115.128 380.63 115.128C380.63 114.622 380.63 114.16 380.63 113.786C380.63 113.412 380.608 112.752 380.52 112.4H382.874ZM406.106 112.444C406.04 112.73 405.974 113.742 405.974 114.05C405.952 114.314 405.952 114.71 405.952 115.15H412.552L412.508 117.218C411.21 117.152 409.12 117.108 405.93 117.108C405.952 118.296 405.952 119.572 405.952 120.562C406.458 121.354 406.722 122.366 406.722 123.488C406.722 126.414 405.16 129.868 399.946 131.386L398.076 129.538C400.672 128.966 402.696 127.998 403.752 126.304C403.312 126.524 402.784 126.634 402.212 126.634C400.43 126.634 398.516 125.314 398.516 122.806C398.516 120.496 400.386 118.846 402.608 118.846C403.048 118.846 403.466 118.89 403.84 119C403.84 118.428 403.818 117.768 403.818 117.13C400.474 117.174 396.866 117.306 394.138 117.482L394.072 115.37C396.558 115.326 400.65 115.216 403.796 115.172C403.774 114.688 403.774 114.314 403.752 114.05C403.686 113.346 403.62 112.664 403.576 112.444H406.106ZM400.584 122.762C400.584 123.972 401.53 124.72 402.586 124.72C403.73 124.72 404.588 123.818 404.302 121.75C403.95 121.024 403.312 120.694 402.586 120.694C401.574 120.694 400.584 121.442 400.584 122.762ZM416.124 124.588C418.038 124.588 419.556 126.15 419.556 128.042C419.556 129.934 418.038 131.474 416.124 131.474C414.232 131.474 412.67 129.934 412.67 128.042C412.67 126.15 414.232 124.588 416.124 124.588ZM416.124 130.154C417.29 130.154 418.236 129.208 418.236 128.042C418.236 126.876 417.29 125.93 416.124 125.93C414.958 125.93 414.012 126.876 414.012 128.042C414.012 129.208 414.958 130.154 416.124 130.154Z" fill="#260004"/>
<defs>
<linearGradient id="paint0_linear_1_1331" x1="190" y1="309.002" x2="285.997" y2="309.002" gradientUnits="userSpaceOnUse">
<stop stop-color="#FE1D37"/>
</linearGradient>
<linearGradient id="paint1_linear_1_1331" x1="190" y1="309.002" x2="285.997" y2="309.002" gradientUnits="userSpaceOnUse">
<stop stop-color="#FE1D37"/>
</linearGradient>
<linearGradient id="paint2_linear_1_1331" x1="190" y1="309.002" x2="285.997" y2="309.002" gradientUnits="userSpaceOnUse">
<stop stop-color="#FE1D37"/>
</linearGradient>
<linearGradient id="paint3_linear_1_1331" x1="190" y1="309.002" x2="285.997" y2="309.002" gradientUnits="userSpaceOnUse">
<stop stop-color="#FE1D37"/>
</linearGradient>
<linearGradient id="paint4_linear_1_1331" x1="190" y1="309.002" x2="285.997" y2="309.002" gradientUnits="userSpaceOnUse">
<stop stop-color="#FE1D37"/>
</linearGradient>
</defs>
</svg>
