<svg width="437" height="296" viewBox="0 0 437 296" fill="none" xmlns="http://www.w3.org/2000/svg">
<mask id="path-1-inside-1_1_1501" fill="white">
<path d="M0 0.0405273H433V295.163H0V0.0405273Z"/>
</mask>
<path d="M0 295.163H1V0.0405273H0H-1V295.163H0Z" fill="#260004" mask="url(#path-1-inside-1_1_1501)"/>
<rect x="2" y="22.939" width="200" height="50" fill="#FF8F94"/>
<path d="M31.738 54.409H36.616V49.837H31.738V54.409ZM25.366 49.837V54.409H30.046V49.837H25.366ZM30.046 43.663H25.366V48.163H30.046V43.663ZM36.616 48.163V43.663H31.738V48.163H36.616ZM23.71 42.061H38.344V57.199H36.616V56.101H25.366V57.199H23.71V42.061ZM53.428 49.981H58.108V45.625H53.428V49.981ZM47.02 49.981H51.682V45.625H47.02V49.981ZM53.428 43.987H59.854V52.591H58.108V51.619H53.428V57.343H51.682V51.619H47.02V52.681H45.346V43.987H51.682V40.855H53.428V43.987ZM74.488 43.177C74.362 42.781 74.182 42.187 73.984 41.647L75.928 41.413C76.072 42.331 76.378 43.411 76.702 44.383C78.016 44.203 79.402 43.915 80.59 43.519L80.806 45.319C79.78 45.607 78.484 45.841 77.296 46.021C77.854 47.299 78.574 48.559 79.15 49.369C79.42 49.765 79.708 50.107 80.014 50.431L79.114 51.727C78.178 51.511 75.964 51.295 74.578 51.187L74.704 49.693C75.658 49.765 76.936 49.873 77.548 49.945C76.918 48.973 76.162 47.587 75.586 46.201C73.426 46.381 70.906 46.381 67.954 46.147L67.918 44.329C70.6 44.653 73.012 44.707 74.956 44.563C74.776 44.005 74.614 43.537 74.488 43.177ZM71.068 50.233C70.51 51.097 70.204 51.889 70.204 52.717C70.204 54.337 71.662 55.039 74.254 55.057C76.144 55.075 77.71 54.877 78.97 54.625L78.88 56.425C77.8 56.623 76.234 56.839 74.146 56.821C70.618 56.803 68.386 55.489 68.386 52.987C68.386 51.943 68.728 50.971 69.286 49.837L71.068 50.233ZM96.88 42.565C96.718 42.799 96.52 43.123 96.304 43.447C95.476 44.707 93.982 47.389 93.082 49.063C93.856 48.469 94.702 48.199 95.476 48.199C96.754 48.199 97.582 49.009 97.654 50.467C97.69 51.403 97.654 52.807 97.726 53.635C97.78 54.463 98.356 54.787 99.04 54.787C100.858 54.787 101.956 52.519 102.442 50.449L103.954 51.691C103.018 54.679 101.434 56.713 98.752 56.713C96.79 56.713 96.034 55.507 95.98 54.337C95.908 53.311 95.926 51.889 95.872 51.007C95.836 50.305 95.422 49.873 94.684 49.873C93.334 49.873 92.128 51.241 91.444 52.681C90.94 53.743 90.22 55.813 89.968 56.731L87.988 56.065C89.32 52.429 93.154 45.067 94.108 43.339C94.342 42.889 94.612 42.385 94.864 41.755L96.88 42.565ZM112.666 59.521C110.992 56.785 110.002 53.887 110.002 50.305C110.002 46.759 110.992 43.825 112.666 41.107L113.962 41.665C112.414 44.257 111.694 47.299 111.694 50.305C111.694 53.329 112.414 56.371 113.962 58.945L112.666 59.521ZM132.744 43.159H128.532C129.036 44.167 129.72 45.067 130.602 45.841C131.466 45.067 132.204 44.185 132.744 43.159ZM133.896 41.647L134.994 42.133C134.328 44.077 133.266 45.607 131.934 46.831C133.068 47.533 134.4 48.073 135.894 48.397C135.552 48.739 135.084 49.369 134.886 49.783C133.284 49.351 131.862 48.703 130.638 47.839C129.378 48.703 127.956 49.369 126.426 49.855C126.228 49.423 125.814 48.793 125.49 48.451C126.858 48.073 128.19 47.515 129.342 46.777C128.37 45.841 127.578 44.743 126.984 43.483L127.974 43.159H125.958V41.719H133.572L133.896 41.647ZM119.946 51.133L121.368 51.385C121.134 53.077 120.72 54.823 120.162 55.975C119.892 55.777 119.226 55.471 118.884 55.345C119.424 54.265 119.766 52.681 119.946 51.133ZM124.554 49.909L123.384 49.981V57.379H121.89V50.071C120.9 50.125 119.982 50.179 119.172 50.233L119.028 48.757L120.288 48.721C120.612 48.289 120.972 47.803 121.314 47.299C120.756 46.489 119.874 45.517 119.082 44.779L119.892 43.681C120.054 43.807 120.216 43.951 120.378 44.095C120.936 43.105 121.53 41.809 121.854 40.837L123.33 41.413C122.7 42.619 121.944 44.005 121.296 44.995C121.62 45.337 121.926 45.679 122.16 45.985C122.808 44.923 123.42 43.825 123.87 42.907L125.256 43.537C124.248 45.175 122.952 47.137 121.782 48.649C122.502 48.631 123.258 48.595 124.032 48.541C123.798 48.037 123.546 47.533 123.294 47.083L124.428 46.615C125.148 47.785 125.85 49.333 126.066 50.341L124.842 50.881C124.788 50.593 124.68 50.269 124.554 49.909ZM123.726 51.385L124.932 50.989C125.382 52.015 125.868 53.365 126.066 54.247L124.788 54.679C124.608 53.797 124.176 52.429 123.726 51.385ZM131.52 52.771V55.363H135.678V56.839H125.508V55.363H129.864V52.771H126.624V51.295H129.864V48.919H131.52V51.295H134.886V52.771H131.52ZM146.424 52.105L146.712 53.689C144.75 54.373 142.662 55.075 141.042 55.597L140.646 53.887C141.294 53.707 142.086 53.491 142.95 53.221V48.649H141.006V47.101H142.95V43.519H140.826V41.971H146.55V43.519H144.552V47.101H146.262V48.649H144.552V52.717C145.164 52.519 145.812 52.321 146.424 52.105ZM148.854 46.363V48.325H151.212V46.363H148.854ZM148.854 43.069V45.013H151.212V43.069H148.854ZM154.938 45.013V43.069H152.634V45.013H154.938ZM154.938 48.325V46.363H152.634V48.325H154.938ZM152.778 55.255H157.35V56.785H145.848V55.255H151.068V53.113H147.162V51.601H151.068V49.747H147.324V41.647H156.54V49.747H152.778V51.601H156.774V53.113H152.778V55.255ZM163.722 59.521L162.426 58.945C163.974 56.371 164.694 53.329 164.694 50.305C164.694 47.299 163.974 44.257 162.426 41.665L163.722 41.107C165.414 43.825 166.404 46.759 166.404 50.305C166.404 53.887 165.414 56.785 163.722 59.521Z" fill="#260004"/>
<path d="M25.742 86.5825L26.75 86.2605C27.142 87.1145 27.534 88.2345 27.688 88.9625L26.624 89.3405C26.498 88.5985 26.106 87.4505 25.742 86.5825ZM22.648 86.3025L23.768 86.4985C23.614 87.8285 23.292 89.2145 22.858 90.1105C22.634 89.9565 22.116 89.7185 21.836 89.6205C22.27 88.7665 22.508 87.5065 22.648 86.3025ZM30.544 80.5485H29.032V84.1465H30.544V80.5485ZM31.72 80.5485V84.1465H33.344V80.5485H31.72ZM30.544 85.3505H29.032V89.0605H30.544V85.3505ZM31.72 85.3505V89.0605H33.344V85.3505H31.72ZM21.878 84.3845L23.012 84.3145C23.25 84.0205 23.502 83.6845 23.754 83.3485C23.334 82.7185 22.592 81.9065 21.962 81.3325L22.606 80.4365L22.998 80.7865C23.432 79.9745 23.894 78.9665 24.16 78.2105L25.336 78.6585C24.846 79.6245 24.244 80.7305 23.74 81.5145C24.006 81.8085 24.244 82.0885 24.426 82.3405C24.986 81.4865 25.504 80.6045 25.882 79.8625L26.988 80.3805C26.204 81.5985 25.196 83.0825 24.272 84.2305L26.064 84.1045C25.882 83.7545 25.7 83.4325 25.518 83.1245L26.498 82.6905C27.03 83.5305 27.576 84.6085 27.842 85.3925V79.3165H34.576V90.9085H33.344V90.2645H29.032V91.0345H27.842V85.6445L26.862 86.1065C26.792 85.8265 26.68 85.4905 26.526 85.1265L25.448 85.2385V91.2025H24.272V85.3505L22.074 85.5745L21.878 84.3845ZM44.488 81.1505C43.97 80.6185 43.046 79.7365 42.458 79.3025L43.48 78.5745C43.956 78.9525 45.006 79.8485 45.51 80.3665L44.488 81.1505ZM37.6 83.9085C38.076 83.7825 38.622 83.6005 38.86 83.4885C39.322 83.3065 39.812 83.0965 40.344 82.8585C40.092 82.3405 39.854 81.8645 39.63 81.4725C39.448 81.1645 39.126 80.6885 38.888 80.3805L40.316 79.8065C40.428 80.0445 40.694 80.5625 40.834 80.8145C41.072 81.2625 41.324 81.7665 41.59 82.2985C43.27 81.5565 45.076 80.8425 46.532 80.8425C48.562 80.8425 49.808 82.0465 49.808 83.6145C49.808 85.3785 48.632 86.6105 46.476 86.6105C45.692 86.6105 44.88 86.4145 44.348 86.2185L44.39 84.8185C44.964 85.0845 45.664 85.2945 46.35 85.2945C47.68 85.2945 48.366 84.5665 48.366 83.5585C48.366 82.7745 47.722 82.1025 46.49 82.1025C45.328 82.1025 43.69 82.7325 42.122 83.4465L42.598 84.4825C43.312 86.1345 44.278 88.8925 44.754 90.4605L43.228 90.8525C42.794 89.1445 42.108 86.8485 41.338 85.0845L40.876 84.0345C39.826 84.5525 38.888 85.0425 38.272 85.3225L37.6 83.9085ZM63.402 80.4785C64.27 81.6405 65.46 84.2585 65.908 85.5745L64.522 86.2185C64.13 84.7345 63.08 82.2285 62.1 81.0385L63.402 80.4785ZM53.252 82.0465C53.728 82.0745 54.134 82.0605 54.61 82.0465C55.058 82.0325 55.814 81.9765 56.612 81.9065C56.808 80.8705 56.948 79.8065 56.934 78.8965L58.572 79.0645C58.502 79.3585 58.432 79.7225 58.376 80.0305L58.04 81.7945C58.614 81.7385 59.118 81.7105 59.44 81.7105C60.798 81.7105 61.82 82.2565 61.82 84.2165C61.82 85.8685 61.61 88.1225 61.022 89.2985C60.574 90.2645 59.846 90.5165 58.866 90.5165C58.334 90.5165 57.662 90.4325 57.2 90.3205L56.976 88.8645C57.536 89.0325 58.306 89.1445 58.684 89.1445C59.188 89.1445 59.58 89.0185 59.832 88.4725C60.252 87.6045 60.462 85.8265 60.462 84.3705C60.462 83.1665 59.916 82.9565 59.034 82.9565C58.74 82.9565 58.278 82.9845 57.746 83.0405C57.228 85.0985 56.234 88.3325 54.848 90.5725L53.406 89.9985C54.806 88.1085 55.814 85.0845 56.318 83.1805L54.778 83.3625C54.428 83.4045 53.784 83.4885 53.392 83.5585L53.252 82.0465ZM80.062 83.7265C79.292 83.0825 77.738 82.2005 76.786 81.7665L77.5 80.6885C78.508 81.1365 80.16 82.0605 80.86 82.5645L80.062 83.7265ZM76.24 87.7445C75.834 87.6325 75.4 87.5625 74.938 87.5625C74.014 87.5625 73.384 87.9825 73.384 88.5565C73.384 89.1585 73.888 89.5645 74.84 89.5645C75.904 89.5645 76.254 88.9765 76.254 88.2205L76.24 87.7445ZM77.43 83.1945C77.402 83.7825 77.416 84.2725 77.43 84.8325L77.528 86.9045C78.732 87.3385 79.712 88.0385 80.426 88.6685L79.684 89.8585C79.138 89.3545 78.424 88.7525 77.584 88.2905V88.6825C77.584 89.8725 76.87 90.8385 75.022 90.8385C73.398 90.8385 72.082 90.1385 72.082 88.6825C72.082 87.3665 73.272 86.4425 75.008 86.4425C75.428 86.4425 75.82 86.4845 76.198 86.5405L76.058 83.1945H77.43ZM74.14 78.8545C74.028 79.3445 73.832 80.1285 73.622 80.9125C74.336 80.8005 75.036 80.6465 75.68 80.4365L75.722 81.7245C75.022 81.9205 74.154 82.1025 73.216 82.2285C72.53 84.2025 71.312 86.6385 70.178 88.1785L68.834 87.4925C69.982 86.1205 71.144 83.9645 71.774 82.3825C71.424 82.3965 71.088 82.4105 70.752 82.4105C70.22 82.4105 69.632 82.3965 69.072 82.3685L68.974 81.0665C69.52 81.1225 70.192 81.1505 70.752 81.1505C71.214 81.1505 71.704 81.1365 72.194 81.0945C72.404 80.3105 72.572 79.4425 72.6 78.7005L74.14 78.8545ZM95.392 78.3785L96.456 79.3445C95.238 79.8905 93.544 80.3245 92.018 80.6325V82.9005H96.596V84.1325H95.112V91.1465H93.824V84.1325H92.018V84.2585C92.018 86.3585 91.752 89.2985 89.82 91.2725C89.652 90.9785 89.176 90.5305 88.868 90.3625C90.576 88.6125 90.758 86.2045 90.758 84.2445V79.3445L91.626 79.5965C93.04 79.2745 94.51 78.8405 95.392 78.3785ZM84.682 80.9825L85.718 80.7445C85.998 81.3185 86.222 82.0885 86.278 82.5785L85.438 82.8165H88.602L87.594 82.5925C87.818 82.0885 88.084 81.3045 88.224 80.7445H83.912V79.6525H86.39V78.3085H87.678V79.6525H90.142V80.7445H88.364L89.414 80.9685C89.148 81.6405 88.882 82.3405 88.658 82.8165H90.296V83.9225H87.678V85.2105H90.17V86.3445H87.678V86.5965C88.182 86.9465 89.47 87.9825 89.806 88.2765L89.036 89.2425C88.756 88.9205 88.196 88.3465 87.678 87.8565V91.2025H86.39V87.8845C85.76 88.8365 85.004 89.7045 84.29 90.2645C84.08 89.9705 83.702 89.5365 83.422 89.3125C84.388 88.6965 85.452 87.5065 86.124 86.3445H83.758V85.2105H86.39V83.9225H83.716V82.8165H85.186C85.144 82.2985 84.934 81.5565 84.682 80.9825ZM104.576 78.6025H106.074L106.032 79.2885C106.158 81.1505 106.872 87.5205 112.192 89.9705C111.772 90.2785 111.38 90.7405 111.17 91.0905C107.754 89.4385 106.186 86.1905 105.444 83.4605C104.758 86.1625 103.274 89.2285 99.998 91.1045C99.76 90.7545 99.326 90.3485 98.892 90.0545C104.576 87.0445 104.492 80.4645 104.576 78.6025ZM114.782 81.7665C114.964 81.8085 115.594 81.8785 116.238 81.8785H117.61V80.2685C117.61 79.9185 117.582 79.5125 117.526 79.1485H119.108C119.08 79.3305 119.024 79.7505 119.024 80.2685V81.8785H122.72V80.2545C122.72 79.6945 122.678 79.2325 122.65 79.0365H124.232C124.204 79.2465 124.148 79.6945 124.148 80.2545V81.8785H125.464C126.15 81.8785 126.598 81.8365 126.864 81.7945V83.2785C126.64 83.2505 126.15 83.2365 125.478 83.2365H124.148V83.7125C124.148 87.3245 123.336 89.3265 120.06 90.7965L118.87 89.6765C121.488 88.7105 122.72 87.5065 122.72 83.7965V83.2365H119.024V85.3365C119.024 85.9105 119.066 86.4985 119.094 86.6945H117.54C117.554 86.4985 117.61 85.9245 117.61 85.3365V83.2365H116.238C115.58 83.2365 115.006 83.2645 114.782 83.2925V81.7665ZM139.996 79.6245C139.996 80.0865 140.36 80.4645 140.822 80.4645C141.284 80.4645 141.662 80.0865 141.662 79.6245C141.662 79.1625 141.284 78.7845 140.822 78.7845C140.36 78.7845 139.996 79.1625 139.996 79.6245ZM139.254 79.6245C139.254 78.7565 139.954 78.0565 140.822 78.0565C141.69 78.0565 142.404 78.7565 142.404 79.6245C142.404 80.4925 141.69 81.1925 140.822 81.1925C139.954 81.1925 139.254 80.4925 139.254 79.6245ZM133.92 84.9585C133.304 86.1765 132.016 87.9825 131.232 88.8225L130.028 87.9965C130.952 87.1285 132.114 85.5185 132.674 84.3565L133.92 84.9585ZM139.842 84.3425C140.584 85.2385 141.69 87.0025 142.25 88.0105L140.962 88.7385C140.388 87.5905 139.352 85.8685 138.638 85.0005L139.842 84.3425ZM130.56 81.4445C130.952 81.4865 131.372 81.5285 131.806 81.5285H135.558V80.2265C135.558 79.8905 135.502 79.3585 135.446 79.1345H137.098C137.056 79.3305 136.986 79.9185 136.986 80.2405V81.5285H140.5C140.864 81.5285 141.382 81.5005 141.746 81.4445V82.9005C141.34 82.8725 140.864 82.8725 140.514 82.8725H136.986V82.9285C136.986 84.0765 136.986 88.4585 136.986 89.5365C136.986 90.2925 136.594 90.7265 135.67 90.7265C135.012 90.7265 134.186 90.6985 133.556 90.6285L133.43 89.2425C134.032 89.3545 134.662 89.3965 135.026 89.3965C135.39 89.3965 135.544 89.2565 135.558 88.8785C135.558 88.2205 135.558 83.6005 135.558 82.9285V82.8725H131.82C131.386 82.8725 130.938 82.8865 130.56 82.9145V81.4445ZM146.058 83.7965C146.52 83.8245 147.388 83.8805 148.144 83.8805C149.446 83.8805 154.626 83.8805 155.76 83.8805C156.432 83.8805 156.978 83.8245 157.328 83.7965V85.5325C157.02 85.5185 156.376 85.4625 155.76 85.4625C154.612 85.4625 149.446 85.4625 148.144 85.4625C147.374 85.4625 146.534 85.4905 146.058 85.5325V83.7965ZM164.678 88.7525C164.678 87.8565 164.678 81.8365 164.678 80.6605C164.678 80.2125 164.636 79.5685 164.552 79.0925H166.274C166.232 79.5545 166.176 80.1705 166.176 80.6605V82.8445C168.038 83.4045 170.698 84.3985 172.098 85.0845L171.468 86.6105C169.998 85.8125 167.716 84.9305 166.176 84.4265V88.7525C166.176 89.1865 166.218 90.0405 166.288 90.5445H164.566C164.636 90.0545 164.678 89.2985 164.678 88.7525Z" fill="#260004"/>
<g filter="url(#filter0_di_1_1501)">
<rect x="212" y="10.0405" width="70" height="70" rx="35" fill="#F9C8C8" shape-rendering="crispEdges"/>
<rect x="211" y="9.04053" width="72" height="72" rx="36" stroke="#FF8F94" stroke-width="2" shape-rendering="crispEdges"/>
<path d="M233.047 47.5405V44.0845H236.839V33.9325H233.551V31.2925C235.471 30.9325 236.719 30.4525 237.967 29.6605H241.111V44.0845H244.327V47.5405H233.047ZM255.52 47.8765C251.752 47.8765 249.184 44.6605 249.184 38.5165C249.184 32.3725 251.752 29.3485 255.52 29.3485C259.288 29.3485 261.832 32.3965 261.832 38.5165C261.832 44.6605 259.288 47.8765 255.52 47.8765ZM255.52 44.5645C256.792 44.5645 257.8 43.4125 257.8 38.5165C257.8 33.6445 256.792 32.6125 255.52 32.6125C254.248 32.6125 253.216 33.6445 253.216 38.5165C253.216 43.4125 254.248 44.5645 255.52 44.5645ZM226.924 64.4365V57.5005C226.924 57.1165 226.888 56.5645 226.816 56.1565H228.292C228.256 56.5525 228.208 57.0805 228.208 57.5005V59.3725C229.804 59.8525 232.084 60.7045 233.284 61.2925L232.744 62.6005C231.484 61.9165 229.528 61.1605 228.208 60.7285V64.4365C228.208 64.8085 228.244 65.5405 228.304 65.9725H226.828C226.888 65.5525 226.924 64.9045 226.924 64.4365ZM236.164 60.1885C236.56 60.2125 237.304 60.2605 237.952 60.2605H244.48C245.056 60.2605 245.524 60.2125 245.824 60.1885V61.6765C245.56 61.6645 245.008 61.6165 244.48 61.6165H237.952C237.292 61.6165 236.572 61.6405 236.164 61.6765V60.1885ZM253.636 56.2045C253.396 56.5645 253.144 57.0325 253.012 57.2725C252.964 57.3685 252.904 57.4765 252.844 57.5725H255.724C256.06 57.5725 256.396 57.5365 256.624 57.4525L257.608 58.0525C257.488 58.2445 257.356 58.5445 257.272 58.7845C256.948 59.9365 256.24 61.5445 255.16 62.8645C254.056 64.2325 252.604 65.3245 250.36 66.1885L249.244 65.1925C251.56 64.4965 252.988 63.4405 254.056 62.1925C254.944 61.1725 255.664 59.6605 255.88 58.6525H252.136C251.368 59.6845 250.348 60.7525 249.088 61.5925L248.032 60.8005C250.12 59.5525 251.236 57.8845 251.8 56.8285C251.944 56.5885 252.148 56.0965 252.244 55.7485L253.636 56.2045ZM261.796 56.6005C262.636 57.1645 264.196 58.4125 264.868 59.1085L263.92 60.0805C263.296 59.4445 261.808 58.1365 260.92 57.5365L261.796 56.6005ZM260.56 64.6285C262.564 64.3285 264.124 63.6565 265.276 62.9485C267.208 61.7605 268.708 59.9605 269.44 58.4245L270.172 59.7325C269.308 61.2925 267.832 62.9245 265.96 64.0765C264.748 64.8205 263.224 65.5285 261.364 65.8645L260.56 64.6285Z" fill="#260004"/>
</g>
<rect x="2" y="118.038" width="265" height="50" fill="#F63C4C"/>
<path d="M39.316 141.084H32.314C32.062 142.164 31.774 143.19 31.45 144.162H38.902V145.71H35.482V150.318H39.28V151.902H29.596V150.318H33.826V145.71H31.09V145.188C30.262 147.366 29.218 149.256 27.868 150.768C27.634 150.498 27.058 149.904 26.662 149.562V152.406H25.078V142.47C24.502 143.244 23.908 143.946 23.314 144.558C23.152 144.18 22.666 143.28 22.396 142.866C24.16 141.21 25.852 138.618 26.86 135.972L28.426 136.476C27.94 137.682 27.328 138.906 26.662 140.058V149.346C28.552 147.33 29.776 144.468 30.586 141.084H27.544V139.5H30.928C31.144 138.402 31.324 137.268 31.486 136.098L33.196 136.296C33.034 137.394 32.854 138.474 32.656 139.5H39.316V141.084ZM48.766 139.698V138.474H44.68V137.106H48.766V135.918H50.404V137.106H54.724V135.918H56.38V137.106H60.538V138.474H56.38V139.644H54.724V138.474H50.404V139.698H48.766ZM54.148 148.842L54.436 149.94C53.266 150.516 52.06 151.146 51.016 151.632L50.386 150.426C51.358 150.066 52.744 149.454 54.148 148.842ZM56.074 149.292L56.686 148.698C57.928 149.31 59.548 150.246 60.394 150.876L59.44 151.848C58.702 151.254 57.28 150.354 56.074 149.724V151.056C56.074 151.704 55.966 152.028 55.534 152.226C55.066 152.424 54.454 152.442 53.554 152.442C53.5 152.082 53.32 151.578 53.14 151.236C53.716 151.254 54.256 151.254 54.436 151.236C54.616 151.236 54.67 151.182 54.67 151.02V145.764H56.074V149.292ZM54.652 144.018H56.47C56.29 143.64 56.146 143.226 56.002 142.812H55.156C55.012 143.244 54.85 143.64 54.652 144.018ZM46.804 146.286H48.622V144.396H46.84V144.846C46.84 145.296 46.84 145.782 46.804 146.286ZM48.622 141.354H46.84V143.118H48.622V141.354ZM60.664 145.188H58.81C59.44 145.854 60.196 146.376 61.078 146.682C60.79 146.934 60.376 147.492 60.178 147.834C59.782 147.672 59.404 147.456 59.062 147.222C58.576 147.798 58.072 148.32 57.658 148.698L56.686 148.158C57.118 147.708 57.694 146.934 58.018 146.412L58.162 146.484C57.766 146.088 57.406 145.656 57.1 145.188H53.986C53.644 145.692 53.248 146.16 52.816 146.574C53.302 147.06 53.788 147.708 53.968 148.176L52.87 148.806C52.69 148.41 52.312 147.834 51.898 147.348C51.574 147.582 51.232 147.816 50.854 148.014C50.71 147.78 50.35 147.33 50.062 147.06V150.858C50.062 151.542 49.918 151.938 49.504 152.172C49.036 152.388 48.406 152.424 47.452 152.406C47.416 152.046 47.218 151.434 47.038 151.092C47.65 151.11 48.19 151.11 48.37 151.092C48.568 151.092 48.622 151.038 48.622 150.84V147.582H46.732C46.57 149.31 46.192 151.146 45.4 152.514C45.148 152.262 44.536 151.884 44.212 151.74C45.346 149.724 45.454 146.934 45.454 144.828V140.004H50.062V146.862C50.926 146.412 51.646 145.854 52.24 145.188H50.458V144.018H53.086C53.32 143.64 53.518 143.244 53.68 142.812H50.926V141.66H52.06C51.916 141.192 51.646 140.616 51.34 140.13L52.546 139.77C52.906 140.292 53.248 141.012 53.356 141.516L52.924 141.66H54.076C54.238 141.03 54.382 140.346 54.472 139.626L55.894 139.752C55.786 140.436 55.66 141.066 55.516 141.66H57.064L57.01 141.642C57.316 141.084 57.676 140.274 57.856 139.716L59.26 140.094C58.954 140.652 58.63 141.21 58.342 141.66H60.124V142.812H57.316C57.496 143.226 57.694 143.64 57.91 144.018H60.664V145.188ZM74.488 138.276C74.362 137.88 74.182 137.286 73.984 136.746L75.928 136.512C76.072 137.43 76.378 138.51 76.702 139.482C78.016 139.302 79.402 139.014 80.59 138.618L80.806 140.418C79.78 140.706 78.484 140.94 77.296 141.12C77.854 142.398 78.574 143.658 79.15 144.468C79.42 144.864 79.708 145.206 80.014 145.53L79.114 146.826C78.178 146.61 75.964 146.394 74.578 146.286L74.704 144.792C75.658 144.864 76.936 144.972 77.548 145.044C76.918 144.072 76.162 142.686 75.586 141.3C73.426 141.48 70.906 141.48 67.954 141.246L67.918 139.428C70.6 139.752 73.012 139.806 74.956 139.662C74.776 139.104 74.614 138.636 74.488 138.276ZM71.068 145.332C70.51 146.196 70.204 146.988 70.204 147.816C70.204 149.436 71.662 150.138 74.254 150.156C76.144 150.174 77.71 149.976 78.97 149.724L78.88 151.524C77.8 151.722 76.234 151.938 74.146 151.92C70.618 151.902 68.386 150.588 68.386 148.086C68.386 147.042 68.728 146.07 69.286 144.936L71.068 145.332ZM96.88 137.664C96.718 137.898 96.52 138.222 96.304 138.546C95.476 139.806 93.982 142.488 93.082 144.162C93.856 143.568 94.702 143.298 95.476 143.298C96.754 143.298 97.582 144.108 97.654 145.566C97.69 146.502 97.654 147.906 97.726 148.734C97.78 149.562 98.356 149.886 99.04 149.886C100.858 149.886 101.956 147.618 102.442 145.548L103.954 146.79C103.018 149.778 101.434 151.812 98.752 151.812C96.79 151.812 96.034 150.606 95.98 149.436C95.908 148.41 95.926 146.988 95.872 146.106C95.836 145.404 95.422 144.972 94.684 144.972C93.334 144.972 92.128 146.34 91.444 147.78C90.94 148.842 90.22 150.912 89.968 151.83L87.988 151.164C89.32 147.528 93.154 140.166 94.108 138.438C94.342 137.988 94.612 137.484 94.864 136.854L96.88 137.664ZM112.666 154.62C110.992 151.884 110.002 148.986 110.002 145.404C110.002 141.858 110.992 138.924 112.666 136.206L113.962 136.764C112.414 139.356 111.694 142.398 111.694 145.404C111.694 148.428 112.414 151.47 113.962 154.044L112.666 154.62ZM131.34 136.71L132.708 136.134C133.41 137.412 134.778 138.888 135.876 139.698C135.516 139.95 134.976 140.526 134.724 140.886C133.59 139.932 132.168 138.168 131.34 136.71ZM129.378 138.978L131.052 139.392C130.584 140.472 130.044 141.732 129.54 142.776L132.33 142.614C132.024 142.164 131.682 141.714 131.376 141.318L132.654 140.67C133.626 141.84 134.724 143.424 135.174 144.486L133.824 145.224C133.662 144.864 133.428 144.396 133.158 143.928C130.746 144.126 128.316 144.324 126.48 144.45L126.192 142.938L128.01 142.848C128.532 141.678 129.072 140.112 129.378 138.978ZM128.442 145.404L129.486 144.486C130.62 145.026 131.88 145.944 132.492 146.682L131.394 147.708C130.8 146.934 129.558 145.962 128.442 145.404ZM128.082 136.188L129.666 136.566C129.018 138.366 127.866 140.058 126.696 141.156C126.39 140.868 125.742 140.382 125.346 140.148C126.552 139.194 127.56 137.736 128.082 136.188ZM119.892 146.214L121.278 146.448C121.044 148.14 120.666 149.886 120.108 151.02C119.856 150.84 119.208 150.552 118.884 150.426C119.424 149.346 119.73 147.744 119.892 146.214ZM124.59 144.774L123.348 144.9V152.424H121.872V145.044C120.918 145.134 120 145.206 119.226 145.278L119.01 143.802C119.37 143.784 119.784 143.766 120.234 143.73C120.558 143.334 120.9 142.866 121.224 142.38C120.72 141.57 119.838 140.598 119.082 139.842L119.928 138.726C120.09 138.87 120.252 139.032 120.414 139.194C120.972 138.186 121.566 136.89 121.89 135.918L123.348 136.476C122.718 137.7 121.962 139.122 121.314 140.13C121.602 140.454 121.872 140.778 122.088 141.084C122.772 140.022 123.402 138.942 123.87 138.024L125.238 138.654C124.23 140.238 122.952 142.146 121.764 143.64L123.996 143.478C123.762 143.028 123.492 142.578 123.24 142.164L124.428 141.642C125.184 142.812 125.994 144.36 126.264 145.368L125.004 145.962C124.914 145.62 124.77 145.206 124.59 144.774ZM123.708 146.556L124.932 146.16C125.382 147.186 125.832 148.554 126.03 149.436C126.264 148.752 126.426 148.014 126.534 147.312L127.884 147.564C127.686 149.004 127.218 150.66 126.48 151.704L125.184 151.11C125.508 150.678 125.796 150.102 126.012 149.454L124.734 149.904C124.572 148.986 124.14 147.618 123.708 146.556ZM130.332 151.02H131.52C131.898 151.02 131.988 150.804 132.024 149.22C132.312 149.472 132.978 149.706 133.392 149.814C133.23 151.92 132.834 152.442 131.718 152.442H130.098C128.658 152.442 128.334 151.992 128.334 150.516V146.898H129.864V150.516C129.864 150.966 129.936 151.02 130.332 151.02ZM132.492 147.672L133.77 147.024C134.742 148.284 135.624 149.922 135.858 151.092L134.49 151.794C134.256 150.66 133.41 148.932 132.492 147.672ZM152.616 145.926H156.72C156.72 145.926 156.702 146.358 156.666 146.592C156.36 149.814 156.036 151.2 155.532 151.74C155.172 152.1 154.812 152.208 154.326 152.28C153.876 152.316 153.138 152.316 152.328 152.28C152.292 151.812 152.112 151.164 151.878 150.732C152.58 150.804 153.246 150.822 153.552 150.822C153.822 150.822 153.966 150.786 154.128 150.624C154.434 150.354 154.686 149.436 154.92 147.33H152.31C151.698 149.544 150.438 151.344 147.594 152.46C147.396 152.064 146.946 151.452 146.604 151.164C148.944 150.318 150.042 148.968 150.6 147.33H148.08V145.926H150.96C151.05 145.368 151.122 144.81 151.176 144.216H152.832C152.778 144.81 152.706 145.368 152.616 145.926ZM153.966 139.176H150.636C151.104 139.914 151.716 140.562 152.454 141.156C153.084 140.598 153.588 139.932 153.966 139.176ZM157.044 139.176H155.802C155.316 140.31 154.632 141.264 153.804 142.056C154.866 142.668 156.108 143.118 157.44 143.406C157.098 143.73 156.612 144.378 156.396 144.81C154.956 144.432 153.642 143.856 152.49 143.082C151.392 143.802 150.096 144.342 148.692 144.774C148.602 144.576 148.422 144.306 148.224 144.036C147.918 145.098 147.576 146.16 147.234 146.934L146.082 146.358C146.37 145.656 146.64 144.648 146.874 143.658H145.488V150.57C145.488 151.38 145.362 151.83 144.822 152.118C144.3 152.352 143.562 152.388 142.446 152.388C142.392 151.938 142.176 151.254 141.96 150.804C142.68 150.84 143.4 150.84 143.616 150.822C143.832 150.804 143.904 150.768 143.904 150.552V145.674C143.238 147.222 142.392 148.68 141.474 149.58C141.312 149.094 140.916 148.41 140.628 147.978C141.708 147.024 142.734 145.314 143.382 143.658H140.88V142.2H145.47C144.48 141.48 142.914 140.634 141.618 140.076L142.662 138.996C143.166 139.194 143.742 139.446 144.282 139.716C144.84 139.284 145.38 138.744 145.83 138.204H141.096V136.782H147.018L147.288 136.728L148.368 137.394C147.702 138.456 146.622 139.572 145.56 140.4C146.136 140.724 146.622 141.066 147 141.354L146.226 142.2H147.342L147.594 142.11L148.602 142.47C148.548 142.704 148.494 142.938 148.44 143.19C149.466 142.902 150.384 142.524 151.194 142.056C150.582 141.48 150.042 140.85 149.592 140.166C149.232 140.562 148.872 140.904 148.512 141.21C148.188 140.94 147.54 140.472 147.126 140.256C148.548 139.23 149.826 137.61 150.546 135.918L152.112 136.35C151.896 136.836 151.644 137.304 151.374 137.772H157.044V139.176ZM163.722 154.62L162.426 154.044C163.974 151.47 164.694 148.428 164.694 145.404C164.694 142.398 163.974 139.356 162.426 136.764L163.722 136.206C165.414 138.924 166.404 141.858 166.404 145.404C166.404 148.986 165.414 151.884 163.722 154.62Z" fill="white"/>
<path d="M30.288 182.563L31.436 181.961C32.71 183.053 34.054 184.551 34.712 185.601L33.494 186.343C33.34 186.063 33.116 185.755 32.878 185.419C29.49 185.615 25.92 185.755 23.512 185.853L23.33 184.551L25.416 184.495C25.906 183.599 26.41 182.479 26.732 181.541H23.232V180.295H34.852V181.541H28.37C27.908 182.493 27.39 183.557 26.886 184.453L31.926 184.257C31.408 183.655 30.834 183.067 30.288 182.563ZM25.668 177.817C24.898 178.377 24.072 178.881 23.218 179.301C23.064 178.979 22.714 178.489 22.434 178.195C24.856 177.089 27.152 175.073 28.216 173.337H29.588C31.086 175.409 33.424 177.145 35.65 177.999C35.328 178.335 35.034 178.811 34.796 179.203C33.97 178.811 33.116 178.307 32.304 177.733V178.839H25.668V177.817ZM28.958 174.611C28.286 175.605 27.208 176.669 25.962 177.607H32.122C30.862 176.697 29.714 175.633 28.958 174.611ZM48.418 179.805L49.174 179.245C49.734 179.609 50.378 180.155 50.672 180.561L49.874 181.177C49.594 180.757 48.964 180.183 48.418 179.805ZM38.464 177.579H42.118V178.601H38.464V177.579ZM38.548 173.785H42.076V174.821H38.548V173.785ZM38.464 179.469H42.118V180.491H38.464V179.469ZM37.89 175.647H42.468V176.711H37.89V175.647ZM42.44 177.985H45.982V177.201H43.378V176.333H45.982V175.577H42.93V174.653H44.554C44.386 174.331 44.162 173.967 43.924 173.659L44.876 173.309C45.212 173.701 45.576 174.275 45.73 174.653H47.662C47.914 174.261 48.222 173.687 48.376 173.309L49.552 173.631C49.3 173.995 49.048 174.359 48.824 174.653H50.476V175.577H47.256V176.333H50.084V177.201H47.256V177.985H50.77V178.965H42.44V177.985ZM49.3 182.479L50.224 182.927C49.874 183.515 49.398 184.061 48.852 184.551C49.118 185.083 49.44 185.363 49.776 185.363C50 185.363 50.126 185.027 50.182 184.173C50.42 184.383 50.742 184.551 50.994 184.649C50.812 185.965 50.434 186.399 49.664 186.413C48.936 186.413 48.39 185.993 47.97 185.251C47.452 185.615 46.906 185.923 46.36 186.161C46.234 185.965 45.926 185.643 45.716 185.447C46.36 185.181 47.004 184.803 47.592 184.369C47.396 183.767 47.242 183.039 47.144 182.227H45.478V182.997L46.808 182.829L46.836 183.781L45.478 183.963V185.181C45.478 185.741 45.352 186.007 44.974 186.161C44.582 186.315 44.022 186.315 43.196 186.315C43.14 186.049 42.986 185.629 42.846 185.349C43.392 185.377 43.938 185.377 44.092 185.363C44.26 185.349 44.316 185.307 44.316 185.153V184.131L42.51 184.369L42.356 183.333L44.316 183.123V182.227H42.426V181.233H44.316V180.435C43.826 180.505 43.336 180.561 42.888 180.589C42.846 180.365 42.72 180.015 42.594 179.791C43.812 179.665 45.24 179.441 46.066 179.161L46.794 179.945C46.402 180.071 45.954 180.169 45.478 180.253V181.233H47.032C46.976 180.631 46.934 179.973 46.92 179.287H48.04C48.04 180.001 48.068 180.645 48.124 181.233H50.784V182.227H48.236C48.306 182.731 48.39 183.179 48.488 183.557C48.81 183.221 49.09 182.857 49.3 182.479ZM38.436 181.387H42.104V185.531H39.486V186.147H38.436V181.387ZM39.486 182.451V184.467H41.012V182.451H39.486ZM61.312 178.629L62.278 177.971C63.398 178.727 64.798 179.861 65.456 180.673L64.434 181.401C64.238 181.163 63.972 180.869 63.664 180.575L60.444 180.687V182.129H64.868V183.277H60.444V184.747H66.044V185.923H53.612V184.747H59.086V183.277H54.872V182.129H59.086V180.729L54.69 180.855L54.634 179.651L56.622 179.623C56.958 179.091 57.294 178.461 57.546 177.901H55.208V176.753H64.476V177.901H59.072C58.736 178.475 58.358 179.063 58.008 179.595L62.446 179.497C62.068 179.189 61.676 178.881 61.312 178.629ZM53.724 174.317H59.086V173.323H60.444V174.317H65.918V177.061H64.574V175.521H55.012V177.061H53.724V174.317ZM74.682 176.305C72.162 176.711 70.692 178.895 70.692 180.631C70.692 182.241 71.378 182.983 71.98 182.983C72.61 182.983 73.268 182.073 73.912 179.917C74.262 178.811 74.514 177.537 74.682 176.305ZM76.166 176.277C75.97 177.537 75.732 178.895 75.326 180.211C74.486 183.067 73.324 184.649 71.938 184.649C70.552 184.649 69.278 183.109 69.278 180.771C69.278 177.635 72.022 174.947 75.536 174.947C78.896 174.947 81.024 177.299 81.024 180.225C81.024 183.165 79.148 185.181 75.746 185.671L74.92 184.355C75.396 184.313 75.816 184.243 76.166 184.159C77.958 183.753 79.554 182.437 79.554 180.183C79.554 178.153 78.322 176.543 76.166 176.277ZM86.568 179.861L87.94 180.001C87.856 180.645 87.744 181.261 87.604 181.835C88.108 183.151 88.892 183.907 89.9 184.327V178.839H86.624V177.579H94.618V178.839H91.272V180.925H95.318V182.171H91.272V184.691C91.888 184.789 92.546 184.831 93.246 184.831C93.876 184.831 96.256 184.831 97.054 184.803C96.844 185.125 96.62 185.755 96.564 186.147H93.176C90.404 186.147 88.388 185.685 87.1 183.459C86.624 184.663 85.966 185.643 85.098 186.399C84.888 186.161 84.328 185.699 84.006 185.489C85.56 184.327 86.288 182.339 86.568 179.861ZM84.678 174.849H89.872V173.337H91.286V174.849H96.522V178.111H95.164V176.109H85.98V178.111H84.678V174.849ZM101.338 183.151L102.598 183.501C102.094 184.551 101.268 185.643 100.512 186.329C100.274 186.105 99.756 185.741 99.448 185.559C100.204 184.957 100.932 184.047 101.338 183.151ZM103.382 183.669L104.404 183.109C104.95 183.739 105.622 184.607 105.93 185.181L104.852 185.811C104.586 185.237 103.928 184.327 103.382 183.669ZM110.76 175.185H108.268V177.173H110.76V175.185ZM107.022 173.981H112.048V184.747C112.048 185.447 111.894 185.825 111.46 186.035C111.026 186.259 110.34 186.287 109.29 186.273C109.248 185.923 109.08 185.349 108.898 185.013C109.584 185.041 110.284 185.027 110.48 185.027C110.69 185.013 110.76 184.957 110.76 184.733V181.611H108.17C108.03 183.291 107.666 185.069 106.868 186.371C106.644 186.133 106.098 185.741 105.804 185.615C106.938 183.767 107.022 181.107 107.022 179.091V173.981ZM110.76 178.349H108.268V179.091L108.24 180.421H110.76V178.349ZM104.208 173.477H105.44V175.087H106.434V176.249H105.44V181.765H106.392V182.927H99.49V181.765H100.806V176.249H99.658V175.087H100.806V173.477H102.01V175.087H104.208V173.477ZM102.01 176.249V177.313H104.208V176.249H102.01ZM102.01 178.349V179.511H104.208V178.349H102.01ZM102.01 180.561V181.765H104.208V180.561H102.01ZM122.03 179.329L123.066 178.741C123.808 179.721 124.76 181.065 125.208 181.891L124.088 182.591C123.682 181.737 122.772 180.351 122.03 179.329ZM122.702 173.295L123.976 173.589C123.808 174.233 123.612 174.877 123.388 175.507H127.49C127.49 175.507 127.49 175.969 127.49 176.137C127.28 182.521 127.112 184.719 126.538 185.419C126.188 185.895 125.838 186.021 125.306 186.091C124.816 186.147 123.976 186.133 123.178 186.091C123.15 185.727 122.982 185.167 122.73 184.803C123.64 184.887 124.48 184.887 124.83 184.887C125.11 184.887 125.264 184.845 125.432 184.663C125.866 184.187 126.062 182.059 126.23 176.725H122.912C122.52 177.635 122.072 178.447 121.61 179.091C121.4 178.895 120.896 178.559 120.588 178.363V184.859H116.752V185.937H115.534V175.577H117.13C117.312 174.891 117.522 173.981 117.606 173.295L119.048 173.533C118.824 174.233 118.544 174.975 118.306 175.577H120.588V178.237C121.512 177.019 122.268 175.143 122.702 173.295ZM116.752 176.753V179.413H119.37V176.753H116.752ZM116.752 183.669H119.37V180.561H116.752V183.669ZM142.162 178.825C141.392 178.181 139.838 177.299 138.886 176.865L139.6 175.787C140.608 176.235 142.26 177.159 142.96 177.663L142.162 178.825ZM138.34 182.843C137.934 182.731 137.5 182.661 137.038 182.661C136.114 182.661 135.484 183.081 135.484 183.655C135.484 184.257 135.988 184.663 136.94 184.663C138.004 184.663 138.354 184.075 138.354 183.319L138.34 182.843ZM139.53 178.293C139.502 178.881 139.516 179.371 139.53 179.931L139.628 182.003C140.832 182.437 141.812 183.137 142.526 183.767L141.784 184.957C141.238 184.453 140.524 183.851 139.684 183.389V183.781C139.684 184.971 138.97 185.937 137.122 185.937C135.498 185.937 134.182 185.237 134.182 183.781C134.182 182.465 135.372 181.541 137.108 181.541C137.528 181.541 137.92 181.583 138.298 181.639L138.158 178.293H139.53ZM136.24 173.953C136.128 174.443 135.932 175.227 135.722 176.011C136.436 175.899 137.136 175.745 137.78 175.535L137.822 176.823C137.122 177.019 136.254 177.201 135.316 177.327C134.63 179.301 133.412 181.737 132.278 183.277L130.934 182.591C132.082 181.219 133.244 179.063 133.874 177.481C133.524 177.495 133.188 177.509 132.852 177.509C132.32 177.509 131.732 177.495 131.172 177.467L131.074 176.165C131.62 176.221 132.292 176.249 132.852 176.249C133.314 176.249 133.804 176.235 134.294 176.193C134.504 175.409 134.672 174.541 134.7 173.799L136.24 173.953ZM148.042 182.675H149.302V184.957H151.528V182.115H146.74V181.037H157.702V182.115H152.83V183.011H156.694V184.005H152.83V184.957H158.598V186.049H145.844V184.957H148.042V182.675ZM154.076 173.323L155.266 173.603C155.14 174.023 155 174.443 154.818 174.835H158.542V175.885H157.618C157.31 176.921 156.862 177.761 156.274 178.475C156.946 179.021 157.786 179.483 158.78 179.763C158.528 180.015 158.192 180.505 158.038 180.813C157.016 180.449 156.162 179.903 155.476 179.273C154.72 179.917 153.796 180.407 152.732 180.785C152.606 180.519 152.214 180.029 151.976 179.819C153.054 179.497 153.964 179.049 154.678 178.447C154.258 177.943 153.922 177.397 153.656 176.865C153.404 177.187 153.152 177.467 152.886 177.719C152.732 177.523 152.41 177.159 152.158 176.935V178.307H150.072C150.702 178.615 151.878 179.203 152.228 179.413L151.57 180.253C151.206 179.973 150.422 179.469 149.792 179.091V180.701H148.63V179.091C147.972 179.749 147.16 180.379 146.474 180.743C146.306 180.477 145.956 180.099 145.704 179.903C146.516 179.567 147.482 178.937 148.14 178.307H146.334V175.675H148.63V175.073H145.97V174.135H148.63V173.323H149.792V174.135H152.438V175.073H149.792V175.675H152.158V176.655C153.054 175.843 153.712 174.639 154.076 173.323ZM147.398 176.501V177.481H148.63V176.501H147.398ZM149.792 176.501V177.481H151.052V176.501H149.792ZM154.3 175.885C154.566 176.501 154.93 177.117 155.434 177.677C155.84 177.173 156.148 176.571 156.358 175.885H154.3ZM164.968 174.541H167.11V173.421H168.342V174.541H170.736V173.421H171.982V174.541H174.054V175.689H171.982V176.753H170.736V175.689H168.342V176.753H167.11V175.689H164.968V174.541ZM169.826 182.157H168.16V183.165H169.826V182.157ZM169.826 181.261V180.225H168.16V181.261H169.826ZM170.876 182.157V183.165H172.626V182.157H170.876ZM170.876 181.261H172.626V180.225H170.876V181.261ZM167.04 179.231H173.774V185.125C173.774 185.657 173.69 185.951 173.326 186.133C172.976 186.315 172.444 186.329 171.66 186.315C171.632 186.021 171.506 185.587 171.352 185.307C171.856 185.321 172.304 185.321 172.444 185.307C172.598 185.293 172.626 185.251 172.626 185.111V184.061H170.876V186.259H169.826V184.061H168.16V186.301H167.04V179.231ZM165.136 177.187H174.11V178.349H166.34V180.253C166.34 182.045 166.144 184.635 164.996 186.329C164.8 186.105 164.296 185.671 164.03 185.517C165.038 183.977 165.136 181.807 165.136 180.225V177.187ZM163.722 173.379L164.94 173.729C164.646 174.653 164.282 175.577 163.862 176.473V186.315H162.602V178.797C162.238 179.371 161.86 179.889 161.468 180.351C161.356 180.043 161.02 179.301 160.81 178.965C162 177.593 163.078 175.493 163.722 173.379Z" fill="#260004"/>
<g filter="url(#filter1_di_1_1501)">
<rect x="277" y="104.041" width="70" height="70" rx="35" fill="#F9C8C8" shape-rendering="crispEdges"/>
<rect x="276" y="103.041" width="72" height="72" rx="36" stroke="#FF8F94" stroke-width="2" shape-rendering="crispEdges"/>
<path d="M298.047 141.541V138.085H301.839V127.933H298.551V125.293C300.471 124.933 301.719 124.453 302.967 123.661H306.111V138.085H309.327V141.541H298.047ZM314.208 141.541V139.093C318.672 135.037 321.672 131.797 321.672 129.205C321.672 127.573 320.784 126.685 319.344 126.685C318.12 126.685 317.184 127.501 316.32 128.413L313.992 126.109C315.744 124.237 317.376 123.349 319.92 123.349C323.376 123.349 325.776 125.557 325.776 128.965C325.776 132.037 323.136 135.421 320.4 138.181C321.288 138.061 322.512 137.941 323.328 137.941H326.592V141.541H314.208ZM291.924 158.437V151.501C291.924 151.117 291.888 150.565 291.816 150.157H293.292C293.256 150.553 293.208 151.081 293.208 151.501V153.373C294.804 153.853 297.084 154.705 298.284 155.293L297.744 156.601C296.484 155.917 294.528 155.161 293.208 154.729V158.437C293.208 158.809 293.244 159.541 293.304 159.973H291.828C291.888 159.553 291.924 158.905 291.924 158.437ZM301.164 154.189C301.56 154.213 302.304 154.261 302.952 154.261H309.48C310.056 154.261 310.524 154.213 310.824 154.189V155.677C310.56 155.665 310.008 155.617 309.48 155.617H302.952C302.292 155.617 301.572 155.641 301.164 155.677V154.189ZM318.636 150.205C318.396 150.565 318.144 151.033 318.012 151.273C317.964 151.369 317.904 151.477 317.844 151.573H320.724C321.06 151.573 321.396 151.537 321.624 151.453L322.608 152.053C322.488 152.245 322.356 152.545 322.272 152.785C321.948 153.937 321.24 155.545 320.16 156.865C319.056 158.233 317.604 159.325 315.36 160.189L314.244 159.193C316.56 158.497 317.988 157.441 319.056 156.193C319.944 155.173 320.664 153.661 320.88 152.653H317.136C316.368 153.685 315.348 154.753 314.088 155.593L313.032 154.801C315.12 153.553 316.236 151.885 316.8 150.829C316.944 150.589 317.148 150.097 317.244 149.749L318.636 150.205ZM326.796 150.601C327.636 151.165 329.196 152.413 329.868 153.109L328.92 154.081C328.296 153.445 326.808 152.137 325.92 151.537L326.796 150.601ZM325.56 158.629C327.564 158.329 329.124 157.657 330.276 156.949C332.208 155.761 333.708 153.961 334.44 152.425L335.172 153.733C334.308 155.293 332.832 156.925 330.96 158.077C329.748 158.821 328.224 159.529 326.364 159.865L325.56 158.629Z" fill="#260004"/>
</g>
<rect x="2" y="213.766" width="351" height="50" fill="url(#paint0_linear_1_1501)"/>
<path d="M36.454 235.912H38.182V247.918H36.454V246.622H25.582V247.954H23.872V235.948H25.582V244.912H30.046V232.078H31.81V244.912H36.454V235.912ZM53.338 245.236H58.216V240.664H53.338V245.236ZM46.966 240.664V245.236H51.646V240.664H46.966ZM51.646 234.49H46.966V238.99H51.646V234.49ZM58.216 238.99V234.49H53.338V238.99H58.216ZM45.31 232.888H59.944V248.026H58.216V246.928H46.966V248.026H45.31V232.888ZM74.488 234.004C74.362 233.608 74.182 233.014 73.984 232.474L75.928 232.24C76.072 233.158 76.378 234.238 76.702 235.21C78.016 235.03 79.402 234.742 80.59 234.346L80.806 236.146C79.78 236.434 78.484 236.668 77.296 236.848C77.854 238.126 78.574 239.386 79.15 240.196C79.42 240.592 79.708 240.934 80.014 241.258L79.114 242.554C78.178 242.338 75.964 242.122 74.578 242.014L74.704 240.52C75.658 240.592 76.936 240.7 77.548 240.772C76.918 239.8 76.162 238.414 75.586 237.028C73.426 237.208 70.906 237.208 67.954 236.974L67.918 235.156C70.6 235.48 73.012 235.534 74.956 235.39C74.776 234.832 74.614 234.364 74.488 234.004ZM71.068 241.06C70.51 241.924 70.204 242.716 70.204 243.544C70.204 245.164 71.662 245.866 74.254 245.884C76.144 245.902 77.71 245.704 78.97 245.452L78.88 247.252C77.8 247.45 76.234 247.666 74.146 247.648C70.618 247.63 68.386 246.316 68.386 243.814C68.386 242.77 68.728 241.798 69.286 240.664L71.068 241.06ZM96.88 233.392C96.718 233.626 96.52 233.95 96.304 234.274C95.476 235.534 93.982 238.216 93.082 239.89C93.856 239.296 94.702 239.026 95.476 239.026C96.754 239.026 97.582 239.836 97.654 241.294C97.69 242.23 97.654 243.634 97.726 244.462C97.78 245.29 98.356 245.614 99.04 245.614C100.858 245.614 101.956 243.346 102.442 241.276L103.954 242.518C103.018 245.506 101.434 247.54 98.752 247.54C96.79 247.54 96.034 246.334 95.98 245.164C95.908 244.138 95.926 242.716 95.872 241.834C95.836 241.132 95.422 240.7 94.684 240.7C93.334 240.7 92.128 242.068 91.444 243.508C90.94 244.57 90.22 246.64 89.968 247.558L87.988 246.892C89.32 243.256 93.154 235.894 94.108 234.166C94.342 233.716 94.612 233.212 94.864 232.582L96.88 233.392ZM112.666 250.348C110.992 247.612 110.002 244.714 110.002 241.132C110.002 237.586 110.992 234.652 112.666 231.934L113.962 232.492C112.414 235.084 111.694 238.126 111.694 241.132C111.694 244.156 112.414 247.198 113.962 249.772L112.666 250.348ZM132.042 246.118V244.048H123.024V246.118H132.042ZM124.32 238.306V240.034H130.548V238.306H124.32ZM132.186 241.294H128.082C127.902 241.744 127.722 242.194 127.56 242.59H133.716V248.188H132.042V247.558H123.024V248.206H121.422V242.59H125.922C126.048 242.176 126.156 241.708 126.264 241.294H122.772V237.064H132.186V241.294ZM132.276 234.472H134.958V238.108H133.356V235.894H121.584V238.108H120.036V234.472H122.412C122.088 233.86 121.548 233.104 121.062 232.528L122.52 231.916C123.132 232.6 123.852 233.554 124.158 234.22L123.6 234.472H126.786C126.534 233.788 125.994 232.834 125.508 232.114L126.966 231.61C127.524 232.348 128.136 233.392 128.37 234.058L127.308 234.472H130.458C131.052 233.716 131.772 232.6 132.186 231.79L133.968 232.348C133.41 233.086 132.816 233.842 132.276 234.472ZM151.464 236.128H146.622C146.946 236.65 147.27 237.298 147.396 237.73L146.874 237.838H150.672C150.942 237.352 151.23 236.704 151.464 236.128ZM156.882 244.012H151.248C152.832 245.128 155.154 246.046 157.35 246.46C156.972 246.82 156.486 247.504 156.234 247.954C153.894 247.324 151.482 246.118 149.79 244.57V248.188H148.152V244.696C146.442 246.136 144.012 247.306 141.762 247.936C141.51 247.504 141.042 246.874 140.664 246.514C142.806 246.064 145.146 245.128 146.73 244.012H141.168V242.608H148.152V241.51H142.842V240.25H148.152V239.17H141.96V237.838H145.65C145.488 237.334 145.182 236.686 144.894 236.2L145.326 236.128H141.24V234.724H143.904C143.634 234.022 143.094 233.032 142.59 232.294L144.048 231.808C144.606 232.582 145.236 233.68 145.488 234.382L144.57 234.724H146.55V231.646H148.116V234.724H149.898V231.646H151.482V234.724H153.426L152.742 234.508C153.174 233.788 153.732 232.654 154.002 231.844L155.73 232.276C155.244 233.158 154.704 234.058 154.236 234.724H156.828V236.128H153.354C153.012 236.74 152.652 237.334 152.346 237.838H156.162V239.17H149.79V240.25H155.316V241.51H149.79V242.608H156.882V244.012ZM163.722 250.348L162.426 249.772C163.974 247.198 164.694 244.156 164.694 241.132C164.694 238.126 163.974 235.084 162.426 232.492L163.722 231.934C165.414 234.652 166.404 237.586 166.404 241.132C166.404 244.714 165.414 247.612 163.722 250.348Z" fill="white"/>
<path d="M28.93 272.581V273.519H33.228V272.581H28.93ZM28.93 270.761V271.699H33.228V270.761H28.93ZM27.726 269.795H34.488V274.499H27.726V269.795ZM27.936 276.991L29.14 277.145C29.084 277.649 28.986 278.139 28.888 278.601C29.238 279.623 29.77 280.211 30.442 280.547V276.445H27.068V275.353H35.244V276.445H31.688V277.901H34.516V278.965H31.688V280.911C32.066 280.967 32.458 280.981 32.878 280.981C33.284 280.981 35.104 280.981 35.65 280.967C35.482 281.247 35.314 281.807 35.272 282.143H32.822C30.876 282.143 29.406 281.779 28.482 279.917C28.09 280.897 27.572 281.709 26.886 282.325C26.676 282.115 26.172 281.723 25.906 281.541C27.11 280.575 27.726 278.993 27.936 276.991ZM24.156 269.361H25.374V272.091H26.858V273.323H25.374V275.801L26.718 275.409L26.9 276.613L25.374 277.089V280.743C25.374 281.415 25.248 281.751 24.87 281.961C24.492 282.171 23.918 282.213 23.022 282.199C22.994 281.891 22.826 281.331 22.672 280.981C23.232 280.995 23.75 280.995 23.918 280.995C24.1 280.995 24.156 280.939 24.156 280.743V277.467L22.672 277.915L22.364 276.641L24.156 276.151V273.323H22.518V272.091H24.156V269.361ZM38.464 270.341H43.728V269.347H45.058V270.341H50.392V272.427H49.104V271.447H39.696V272.427H38.464V270.341ZM38.086 277.915H43.7V276.837H45.03V277.915H50.742V279.021H46.066C47.326 279.959 49.258 280.715 51.078 281.065C50.798 281.331 50.42 281.835 50.224 282.185C48.362 281.695 46.374 280.701 45.03 279.483V282.325H43.7V279.553C42.384 280.743 40.466 281.695 38.618 282.171C38.436 281.849 38.072 281.359 37.792 281.107C39.598 280.743 41.502 279.959 42.72 279.021H38.086V277.915ZM43.014 271.517L44.26 271.881L43.63 272.735H50.518V273.785H47.914C47.606 274.471 47.172 275.045 46.57 275.507C47.83 275.857 49.006 276.221 49.874 276.543L49.076 277.481C48.166 277.103 46.78 276.669 45.296 276.249C43.924 276.851 41.978 277.215 39.136 277.411C39.08 277.117 38.87 276.641 38.702 276.375C40.774 276.263 42.314 276.053 43.448 275.773C42.804 275.605 42.174 275.465 41.572 275.339L41.334 275.619L40.102 275.241C40.466 274.835 40.886 274.331 41.32 273.785H38.338V272.735H42.132L43.014 271.517ZM42.818 273.785L42.258 274.499C43.154 274.681 44.134 274.891 45.114 275.143C45.758 274.779 46.178 274.331 46.486 273.785H42.818ZM54.046 270.509L54.634 269.613C55.572 269.865 56.888 270.313 57.588 270.663L56.986 271.671C56.328 271.321 55.026 270.803 54.046 270.509ZM53.374 273.211C54.41 272.987 55.894 272.595 57.364 272.217L57.504 273.267C56.258 273.659 54.942 274.051 53.892 274.373L53.374 273.211ZM56.552 276.795V277.593H63.188V276.795H56.552ZM56.552 278.391V279.203H63.188V278.391H56.552ZM56.552 275.199V275.983H63.188V275.199H56.552ZM60.808 280.771L61.9 280.113C63.412 280.617 65.12 281.261 66.128 281.751L64.616 282.381C63.776 281.919 62.292 281.289 60.808 280.771ZM57.588 280.071L58.806 280.631C57.658 281.331 55.866 282.003 54.452 282.395C54.228 282.129 53.766 281.639 53.472 281.401C54.928 281.121 56.608 280.617 57.588 280.071ZM55.278 274.359H58.12C57.994 274.079 57.756 273.687 57.546 273.491C59.828 273.113 60.626 272.455 60.962 271.293H59.674C59.338 271.713 58.946 272.105 58.484 272.469C58.232 272.231 57.798 271.951 57.476 271.825C58.512 271.125 59.212 270.173 59.576 269.347L60.766 269.529C60.64 269.795 60.5 270.061 60.346 270.327H64.868L65.078 270.285L65.946 270.523C65.568 271.265 65.05 272.077 64.574 272.581L63.538 272.245C63.776 271.993 64.028 271.643 64.238 271.293H62.306C62.614 272.315 63.412 273.211 66.268 273.589C66.03 273.855 65.722 274.345 65.596 274.681C65.204 274.611 64.84 274.527 64.518 274.443V280.043H55.278V274.359ZM61.69 272.525C61.158 273.379 60.234 273.967 58.554 274.359H64.252C62.866 273.911 62.124 273.253 61.69 272.525ZM68.858 270.453L69.796 270.215C70.188 271.209 70.482 272.511 70.58 273.379L69.558 273.645C69.502 272.777 69.194 271.461 68.858 270.453ZM73.408 270.145L74.556 270.425C74.192 271.503 73.758 272.833 73.408 273.645L72.554 273.393C72.862 272.525 73.24 271.125 73.408 270.145ZM75.34 271.139L75.998 270.243C76.796 270.705 77.776 271.419 78.238 271.951L77.552 272.945C77.104 272.413 76.138 271.643 75.34 271.139ZM74.654 274.667L75.284 273.729C76.11 274.163 77.146 274.821 77.65 275.325L76.992 276.389C76.502 275.871 75.48 275.143 74.654 274.667ZM68.802 274.037H71V269.403H72.232V274.037H74.43V275.269H72.232V275.437C72.652 275.871 74.01 277.607 74.318 278.027L73.464 279.063C73.24 278.559 72.708 277.663 72.232 276.907V282.311H71V276.865C70.51 278.307 69.866 279.749 69.208 280.659C69.082 280.267 68.774 279.679 68.564 279.329C69.334 278.391 70.146 276.711 70.608 275.269H68.802V274.037ZM74.402 278.195L78.784 277.397V269.347H80.044V277.173L81.598 276.893L81.794 278.125L80.044 278.447V282.325H78.784V278.671L74.612 279.427L74.402 278.195ZM90.082 272.329C87.562 272.735 86.092 274.919 86.092 276.655C86.092 278.265 86.778 279.007 87.38 279.007C88.01 279.007 88.668 278.097 89.312 275.941C89.662 274.835 89.914 273.561 90.082 272.329ZM91.566 272.301C91.37 273.561 91.132 274.919 90.726 276.235C89.886 279.091 88.724 280.673 87.338 280.673C85.952 280.673 84.678 279.133 84.678 276.795C84.678 273.659 87.422 270.971 90.936 270.971C94.296 270.971 96.424 273.323 96.424 276.249C96.424 279.189 94.548 281.205 91.146 281.695L90.32 280.379C90.796 280.337 91.216 280.267 91.566 280.183C93.358 279.777 94.954 278.461 94.954 276.207C94.954 274.177 93.722 272.567 91.566 272.301ZM106.294 269.501L107.582 269.823C107.358 270.439 107.106 271.055 106.84 271.657H112.524V272.931H108.338V274.709H112.188V275.927H108.338V277.803H112.384V279.049H108.338V282.339H106.98V272.931H106.196C105.608 274.023 104.95 275.017 104.264 275.773C104.068 275.535 103.55 275.073 103.256 274.863C104.502 273.575 105.622 271.531 106.294 269.501ZM102.78 269.403L104.068 269.795C103.676 270.789 103.2 271.797 102.668 272.749V282.325H101.324V274.835C100.946 275.353 100.554 275.815 100.162 276.221C100.036 275.899 99.658 275.157 99.42 274.849C100.764 273.519 102.024 271.475 102.78 269.403ZM121.834 269.361H123.22C123.22 270.117 123.234 270.873 123.262 271.601H125.964C125.432 271.139 124.522 270.523 123.766 270.117L124.578 269.319C125.404 269.739 126.468 270.397 127 270.873L126.314 271.601H127.77V272.903H123.346C123.472 274.569 123.71 276.095 124.032 277.355C124.704 276.319 125.236 275.143 125.628 273.841L126.958 274.163C126.356 275.983 125.544 277.593 124.522 278.965C124.984 280.169 125.53 280.883 126.132 280.883C126.496 280.883 126.678 280.169 126.748 278.349C127.056 278.657 127.532 278.965 127.896 279.091C127.672 281.583 127.196 282.241 126.034 282.241C124.998 282.241 124.172 281.443 123.528 280.127C122.744 280.967 121.848 281.695 120.868 282.283C120.672 282.003 120.196 281.443 119.902 281.191C121.078 280.561 122.114 279.735 122.982 278.741C122.478 277.131 122.156 275.101 121.974 272.903H117.452V274.597H121.008C121.008 274.597 120.994 274.961 120.994 275.129C120.938 278.195 120.854 279.413 120.56 279.805C120.308 280.113 120.042 280.225 119.65 280.267C119.286 280.323 118.656 280.323 117.984 280.295C117.97 279.903 117.816 279.385 117.62 279.049C118.208 279.105 118.754 279.119 118.992 279.119C119.188 279.119 119.314 279.091 119.426 278.965C119.58 278.741 119.664 277.943 119.706 275.815H117.452C117.438 277.845 117.2 280.659 115.954 282.465C115.73 282.199 115.142 281.737 114.834 281.569C115.968 279.875 116.066 277.439 116.066 275.605V271.601H121.89C121.862 270.859 121.834 270.117 121.834 269.361Z" fill="#260004"/>
<g filter="url(#filter2_di_1_1501)">
<rect x="363" y="199.139" width="70" height="70" rx="35" fill="#F9C8C8" shape-rendering="crispEdges"/>
<rect x="362" y="198.139" width="72" height="72" rx="36" stroke="#FF8F94" stroke-width="2" shape-rendering="crispEdges"/>
<path d="M384.047 236.639V233.183H387.839V223.031H384.551V220.391C386.471 220.031 387.719 219.551 388.967 218.759H392.111V233.183H395.327V236.639H384.047ZM406.04 236.975C403.184 236.975 401.216 235.895 399.8 234.503L401.744 231.815C402.752 232.775 404 233.519 405.416 233.519C407.144 233.519 408.224 232.583 408.224 230.735C408.224 228.935 407.144 227.975 405.608 227.975C404.624 227.975 404.144 228.167 403.088 228.839L401.216 227.615L401.672 218.759H411.704V222.335H405.344L405.08 225.359C405.728 225.095 406.256 224.999 406.928 224.999C409.952 224.999 412.496 226.775 412.496 230.639C412.496 234.647 409.472 236.975 406.04 236.975ZM377.924 253.535V246.599C377.924 246.215 377.888 245.663 377.816 245.255H379.292C379.256 245.651 379.208 246.179 379.208 246.599V248.471C380.804 248.951 383.084 249.803 384.284 250.391L383.744 251.699C382.484 251.015 380.528 250.259 379.208 249.827V253.535C379.208 253.907 379.244 254.639 379.304 255.071H377.828C377.888 254.651 377.924 254.003 377.924 253.535ZM387.164 249.287C387.56 249.311 388.304 249.359 388.952 249.359H395.48C396.056 249.359 396.524 249.311 396.824 249.287V250.775C396.56 250.763 396.008 250.715 395.48 250.715H388.952C388.292 250.715 387.572 250.739 387.164 250.775V249.287ZM404.636 245.303C404.396 245.663 404.144 246.131 404.012 246.371C403.964 246.467 403.904 246.575 403.844 246.671H406.724C407.06 246.671 407.396 246.635 407.624 246.551L408.608 247.151C408.488 247.343 408.356 247.643 408.272 247.883C407.948 249.035 407.24 250.643 406.16 251.963C405.056 253.331 403.604 254.423 401.36 255.287L400.244 254.291C402.56 253.595 403.988 252.539 405.056 251.291C405.944 250.271 406.664 248.759 406.88 247.751H403.136C402.368 248.783 401.348 249.851 400.088 250.691L399.032 249.899C401.12 248.651 402.236 246.983 402.8 245.927C402.944 245.687 403.148 245.195 403.244 244.847L404.636 245.303ZM412.796 245.699C413.636 246.263 415.196 247.511 415.868 248.207L414.92 249.179C414.296 248.543 412.808 247.235 411.92 246.635L412.796 245.699ZM411.56 253.727C413.564 253.427 415.124 252.755 416.276 252.047C418.208 250.859 419.708 249.059 420.44 247.523L421.172 248.831C420.308 250.391 418.832 252.023 416.96 253.175C415.748 253.919 414.224 254.627 412.364 254.963L411.56 253.727Z" fill="#260004"/>
</g>
<defs>
<filter id="filter0_di_1_1501" x="210" y="8.04053" width="76" height="76" filterUnits="userSpaceOnUse" color-interpolation-filters="sRGB">
<feFlood flood-opacity="0" result="BackgroundImageFix"/>
<feColorMatrix in="SourceAlpha" type="matrix" values="0 0 0 0 0 0 0 0 0 0 0 0 0 0 0 0 0 0 127 0" result="hardAlpha"/>
<feOffset dx="2" dy="2"/>
<feComposite in2="hardAlpha" operator="out"/>
<feColorMatrix type="matrix" values="0 0 0 0 1 0 0 0 0 0.380392 0 0 0 0 0.435294 0 0 0 1 0"/>
<feBlend mode="normal" in2="BackgroundImageFix" result="effect1_dropShadow_1_1501"/>
<feBlend mode="normal" in="SourceGraphic" in2="effect1_dropShadow_1_1501" result="shape"/>
<feColorMatrix in="SourceAlpha" type="matrix" values="0 0 0 0 0 0 0 0 0 0 0 0 0 0 0 0 0 0 127 0" result="hardAlpha"/>
<feOffset/>
<feGaussianBlur stdDeviation="3.5"/>
<feComposite in2="hardAlpha" operator="arithmetic" k2="-1" k3="1"/>
<feColorMatrix type="matrix" values="0 0 0 0 1 0 0 0 0 0.180392 0 0 0 0 0.290196 0 0 0 1 0"/>
<feBlend mode="normal" in2="shape" result="effect2_innerShadow_1_1501"/>
</filter>
<filter id="filter1_di_1_1501" x="275" y="102.041" width="76" height="76" filterUnits="userSpaceOnUse" color-interpolation-filters="sRGB">
<feFlood flood-opacity="0" result="BackgroundImageFix"/>
<feColorMatrix in="SourceAlpha" type="matrix" values="0 0 0 0 0 0 0 0 0 0 0 0 0 0 0 0 0 0 127 0" result="hardAlpha"/>
<feOffset dx="2" dy="2"/>
<feComposite in2="hardAlpha" operator="out"/>
<feColorMatrix type="matrix" values="0 0 0 0 1 0 0 0 0 0.380392 0 0 0 0 0.435294 0 0 0 1 0"/>
<feBlend mode="normal" in2="BackgroundImageFix" result="effect1_dropShadow_1_1501"/>
<feBlend mode="normal" in="SourceGraphic" in2="effect1_dropShadow_1_1501" result="shape"/>
<feColorMatrix in="SourceAlpha" type="matrix" values="0 0 0 0 0 0 0 0 0 0 0 0 0 0 0 0 0 0 127 0" result="hardAlpha"/>
<feOffset/>
<feGaussianBlur stdDeviation="3.5"/>
<feComposite in2="hardAlpha" operator="arithmetic" k2="-1" k3="1"/>
<feColorMatrix type="matrix" values="0 0 0 0 1 0 0 0 0 0.180392 0 0 0 0 0.290196 0 0 0 1 0"/>
<feBlend mode="normal" in2="shape" result="effect2_innerShadow_1_1501"/>
</filter>
<filter id="filter2_di_1_1501" x="361" y="197.139" width="76" height="76" filterUnits="userSpaceOnUse" color-interpolation-filters="sRGB">
<feFlood flood-opacity="0" result="BackgroundImageFix"/>
<feColorMatrix in="SourceAlpha" type="matrix" values="0 0 0 0 0 0 0 0 0 0 0 0 0 0 0 0 0 0 127 0" result="hardAlpha"/>
<feOffset dx="2" dy="2"/>
<feComposite in2="hardAlpha" operator="out"/>
<feColorMatrix type="matrix" values="0 0 0 0 1 0 0 0 0 0.380392 0 0 0 0 0.435294 0 0 0 1 0"/>
<feBlend mode="normal" in2="BackgroundImageFix" result="effect1_dropShadow_1_1501"/>
<feBlend mode="normal" in="SourceGraphic" in2="effect1_dropShadow_1_1501" result="shape"/>
<feColorMatrix in="SourceAlpha" type="matrix" values="0 0 0 0 0 0 0 0 0 0 0 0 0 0 0 0 0 0 127 0" result="hardAlpha"/>
<feOffset/>
<feGaussianBlur stdDeviation="3.5"/>
<feComposite in2="hardAlpha" operator="arithmetic" k2="-1" k3="1"/>
<feColorMatrix type="matrix" values="0 0 0 0 1 0 0 0 0 0.180392 0 0 0 0 0.290196 0 0 0 1 0"/>
<feBlend mode="normal" in2="shape" result="effect2_innerShadow_1_1501"/>
</filter>
<linearGradient id="paint0_linear_1_1501" x1="2" y1="238.766" x2="353" y2="238.766" gradientUnits="userSpaceOnUse">
<stop stop-color="#FE1D37"/>
</linearGradient>
</defs>
</svg>
