<svg width="36" height="38" viewBox="0 0 36 38" fill="none" xmlns="http://www.w3.org/2000/svg">
<path d="M17.9989 1C27.3879 1 35 8.55394 35 17.8711C35 23.4898 32.2221 28.4526 27.9664 31.5189L29.5894 37L23.9903 33.6456C22.1246 34.3444 20.1116 34.7422 18.0011 34.7422C8.61215 34.7422 1.00002 27.1883 1.00002 17.8711C1.00002 8.55394 8.60998 1 17.9989 1Z" fill="white" stroke="#260004" stroke-width="2" stroke-linecap="round" stroke-linejoin="round"/>
<path d="M16.2463 18.58H19.1063V16.4C19.1063 15.46 19.1863 14.04 19.2263 13.08H19.1463C18.7663 13.94 18.3663 14.8 17.9463 15.64L16.2463 18.58ZM19.1063 25V21.28H12.8463V18.82L18.0263 10.1H22.4263V18.58H24.0663V21.28H22.4263V25H19.1063Z" fill="#260004"/>
</svg>
