<svg width="259" height="374" viewBox="0 0 259 374" fill="none" xmlns="http://www.w3.org/2000/svg">
<g clip-path="url(#clip0_1_1381)">
<path d="M95.8015 82.053L81.4883 75.2815C81.4883 75.2815 63.1813 18.6143 107.32 7.47811C107.32 7.47811 136.152 -5.56439 152.142 15.9867H164.043C164.043 15.9867 185.888 21.1536 186.02 51.0807L180.908 81.42L138.314 85.8509L95.8015 82.053Z" fill="#B5B5B6"/>
<path d="M132.533 151.055L96.8605 154.507L88.4241 162.831L47.0954 178.715C47.0954 178.715 22.6394 187.01 20.933 210.173C20.933 210.173 14.9973 285.558 23.2131 323.809C23.2131 323.809 24.5002 351.153 42.3071 358.815L33.7383 472.363C33.7383 472.363 36.9011 480.54 46.0362 481.07L59.2608 480.209C59.2608 480.209 58.8048 744.651 58.3856 771.383L56.1128 794.502L64.027 805.292L116.697 827.373L123.92 805.292L130.077 778.869L130.422 642.622L134.968 605.621L136.983 539.511L143.61 529.869L155.011 619.348L158.593 646.641C158.593 646.641 160.931 802.966 167.147 819.468L202.385 817.084L225.981 801.907L227.694 793.236L223.855 784.529L226.731 743.694L222.413 644.212L219.979 480.209C219.979 480.209 238.61 481.033 235.741 463.795L230.6 354.678L238.455 334.666L251.209 214C251.209 214 250.716 196.682 242.169 190.506L177.539 161.838L163.513 155.317L132.533 151.055Z" fill="#B5B5B6"/>
<path d="M71.9929 800.597C71.9929 800.597 94.3747 790.823 116.705 804.174L125.973 810.666L127.23 839.188L124.707 850.368L107.165 852.569L77.5681 882.15C77.5681 882.15 53.0533 894.721 24.2724 882.437V872.361C24.2724 872.361 23.8238 852.731 50.6481 839.18L62.8724 819.977L71.9929 800.583V800.597Z" fill="#898989"/>
<path d="M180.724 801.966L172.847 810.835C172.847 810.835 170.287 827.919 172.847 844.001L173.369 848.16L195.273 852.936L196.016 846.32C196.016 846.32 222.642 876.939 254.284 875.65L282.027 864.102L284.241 851.258L279.21 844.001L256.829 833.292L230.526 804.174L226.216 801.031L215.801 798.787L180.717 801.966H180.724Z" fill="#898989"/>
<path d="M174.038 75.1478L174.185 64.4458C174.185 64.4458 179.275 37.2421 161.902 32.2297L147.582 25.863L125.479 29.9774L108.386 30.949L100.303 40.6131C100.303 40.6131 88.2917 55.5472 89.5568 67.1029L91.0793 80.2043L80.782 78.2391C80.782 78.2391 72.7649 81.3083 78.4725 94.7925C78.4725 94.7925 82.459 106.827 94.926 108.21L102.259 136.415L110.056 140.191V147.411L108.57 151.644L104.061 151.033C104.061 151.033 112.968 249.764 130.76 270.093H134.673L155.15 196.549L162.233 156.899L155.091 152.748L160.453 135.709L168.493 108.203L174.222 107.305C174.222 107.305 191.72 94.6379 185.829 80.2043L183.578 76.3696L174.031 75.1478H174.038Z" fill="white"/>
<path d="M37.2394 291.013L63.7107 270.44L83.9301 280.406L93.1608 291.329L59.9154 301.449L37.2394 291.013Z" fill="white"/>
<path d="M145.147 291.329L152.841 326.04L160.13 328.646L166.404 325.937V319.725L189.418 313.38L204.673 288.061L197.104 277.822L163.285 288.782H158.409L157.798 285.97L145.147 291.329Z" fill="white"/>
<path d="M58.4004 359.161C58.4004 359.161 69.2346 367.927 78.2962 366.131L79.4657 368.972L96.868 371.431L95.2425 349.718L58.3931 359.161H58.4004Z" fill="white"/>
<path d="M128.032 201.069L121.008 185.981L126.318 174.285L138.042 174.278L146.354 184.744L139.528 200.319L148.759 225.093L134.681 275.637L128.834 276.395L116.536 237.253L128.032 201.069Z" fill="#80E2E0"/>
<path d="M106.65 156.495H106.599C104.885 156.466 103.524 155.06 103.546 153.345L103.752 140.361C103.782 138.669 105.165 137.307 106.849 137.307H106.9C108.614 137.336 109.975 138.742 109.953 140.457L109.747 153.441C109.717 155.134 108.335 156.495 106.65 156.495Z" fill="#3E3A39"/>
<path d="M157.122 155.847C157.056 155.847 156.982 155.847 156.916 155.847C155.209 155.737 153.915 154.257 154.025 152.55L154.93 138.845C155.04 137.137 156.519 135.849 158.225 135.952C159.931 136.063 161.226 137.542 161.116 139.25L160.211 152.955C160.101 154.596 158.74 155.855 157.122 155.855V155.847Z" fill="#3E3A39"/>
<path d="M126.311 177.383C124.869 177.383 123.575 176.367 123.281 174.902C122.935 173.224 124.016 171.583 125.693 171.244C129.098 170.545 133.026 170.067 138.668 171.244C140.345 171.59 141.418 173.239 141.065 174.917C140.72 176.595 139.072 177.67 137.395 177.317C132.629 176.323 129.496 176.801 126.929 177.324C126.715 177.368 126.509 177.39 126.304 177.39L126.311 177.383Z" fill="#3E3A39"/>
<path d="M137.211 204.175H128.032C125.605 204.175 123.435 202.732 122.493 200.495L115.859 184.766C115.19 183.19 115.932 181.365 117.506 180.703C119.088 180.04 120.905 180.776 121.567 182.351L128.157 197.97H137.093L143.522 183.478C144.22 181.91 146.052 181.203 147.611 181.902C149.178 182.602 149.877 184.434 149.185 185.995L142.705 200.59C141.742 202.762 139.579 204.167 137.211 204.167V204.175Z" fill="#3E3A39"/>
<path d="M116.543 240.358C116.337 240.358 116.124 240.336 115.918 240.292C114.241 239.946 113.16 238.304 113.505 236.626C116.977 219.779 122.442 199.7 122.501 199.493C122.949 197.837 124.656 196.866 126.311 197.315C127.966 197.764 128.936 199.471 128.488 201.128C128.436 201.326 123.015 221.221 119.588 237.878C119.286 239.342 117.992 240.351 116.558 240.351L116.543 240.358Z" fill="#3E3A39"/>
<path d="M146.854 232.998C145.434 232.998 144.154 232.019 143.831 230.577C140.381 215.252 136.571 201.275 136.535 201.135C136.086 199.479 137.057 197.779 138.704 197.323C140.359 196.866 142.058 197.845 142.514 199.494C142.551 199.634 146.398 213.736 149.884 229.208C150.259 230.878 149.215 232.542 147.538 232.917C147.31 232.969 147.082 232.991 146.854 232.991V232.998Z" fill="#3E3A39"/>
<path d="M85.3422 189.086C85.2025 189.086 85.0701 189.079 84.9304 189.057C83.2313 188.829 82.0398 187.268 82.2678 185.575L85.3569 162.427C85.4673 161.61 85.8939 160.867 86.5558 160.366L98.4345 151.343C99.7952 150.305 101.744 150.57 102.781 151.939C103.818 153.3 103.554 155.251 102.186 156.289L91.3367 164.532L88.4167 186.4C88.2108 187.96 86.8795 189.094 85.3496 189.094L85.3422 189.086Z" fill="#3E3A39"/>
<path d="M116.889 284.337C116.058 284.337 115.234 284.006 114.623 283.35C86.0854 252.724 70.7351 198.206 70.0952 195.902C69.7201 194.555 70.2938 193.12 71.5001 192.406L102.487 174.013C103.958 173.144 105.863 173.623 106.739 175.095C107.614 176.567 107.129 178.473 105.658 179.349L76.7369 196.513C79.9732 207.201 94.8601 253.048 119.154 279.126C120.324 280.377 120.25 282.342 119 283.512C118.404 284.072 117.646 284.344 116.889 284.344V284.337Z" fill="#3E3A39"/>
<path d="M179.834 188.336C178.319 188.336 176.988 187.217 176.767 185.672L173.45 162.531L164.469 158.114C162.932 157.356 162.3 155.502 163.057 153.963C163.815 152.425 165.668 151.792 167.205 152.55L177.65 157.688C178.569 158.137 179.209 159.02 179.349 160.028L182.894 184.788C183.137 186.481 181.96 188.056 180.268 188.299C180.121 188.321 179.974 188.329 179.827 188.329L179.834 188.336Z" fill="#3E3A39"/>
<path d="M148.751 290.298C148.148 290.298 147.545 290.122 147.008 289.761C145.596 288.797 145.228 286.868 146.192 285.448C161.917 262.388 183.939 206.14 188.947 193.09L159.696 180.033C158.129 179.334 157.43 177.501 158.129 175.934C158.828 174.366 160.659 173.667 162.226 174.366L194.155 188.623C195.655 189.293 196.369 191.015 195.795 192.546C194.729 195.38 169.486 262.292 151.318 288.944C150.715 289.827 149.744 290.298 148.751 290.298Z" fill="#3E3A39"/>
<path d="M115.351 78.3501C115.351 80.043 113.976 81.4194 112.284 81.4194C110.593 81.4194 109.217 80.043 109.217 78.3501C109.217 76.6572 110.593 75.2809 112.284 75.2809C113.976 75.2809 115.351 76.6572 115.351 78.3501Z" fill="#3E3A39"/>
<path d="M152.606 78.9832C152.606 80.6761 151.23 82.0525 149.539 82.0525C147.847 82.0525 146.471 80.6761 146.471 78.9832C146.471 77.2903 147.847 75.914 149.539 75.914C151.23 75.914 152.606 77.2903 152.606 78.9832Z" fill="#3E3A39"/>
<path d="M121.854 145.66C102.635 145.66 96.8975 132.419 96.162 130.483C89.2407 116.064 85.953 73.9559 85.8132 72.16C85.6808 70.4524 86.9606 68.9582 88.667 68.8331C90.3734 68.708 91.8665 69.9813 91.9916 71.6889C92.021 72.1158 95.3455 114.688 101.796 127.907L101.943 128.268C102.105 128.717 106.275 139.779 122.699 139.448H140.33C140.587 139.448 140.845 139.448 141.102 139.448C156.967 139.448 160.998 128.702 161.167 128.238L161.285 127.944C168.022 113.554 171.854 72.9843 171.891 72.5721C172.053 70.8645 173.568 69.6207 175.267 69.7679C176.973 69.9224 178.224 71.4387 178.069 73.1463C177.915 74.8539 174.12 114.99 166.963 130.446C166.264 132.294 160.557 145.645 141.198 145.645C140.896 145.645 140.587 145.645 140.278 145.638H122.78C122.471 145.645 122.163 145.645 121.861 145.645L121.854 145.66Z" fill="#3E3A39"/>
<path d="M118.603 69.7097C118.294 69.7097 117.985 69.6655 117.676 69.5698C117.58 69.5404 107.871 66.5742 100.656 69.1576C99.0452 69.7317 97.2726 68.8927 96.6989 67.2808C96.1252 65.6688 96.9637 63.895 98.5744 63.3209C107.768 60.0382 119.051 63.5049 119.529 63.6595C121.162 64.1747 122.074 65.9117 121.559 67.5457C121.14 68.8706 119.919 69.7244 118.603 69.7244V69.7097Z" fill="#3E3A39"/>
<path d="M142.647 69.7096C141.33 69.7096 140.102 68.8632 139.69 67.5383C139.175 65.9044 140.087 64.16 141.72 63.6521C142.198 63.5049 153.473 60.0382 162.675 63.3135C164.285 63.8876 165.131 65.6615 164.55 67.2734C163.977 68.8853 162.204 69.7317 160.593 69.1503C154.562 67.001 146.265 68.716 143.573 69.5624C143.264 69.6581 142.955 69.7023 142.647 69.7023V69.7096Z" fill="#3E3A39"/>
<path d="M91.734 109.808C91.5869 109.808 91.4324 109.801 91.278 109.771C77.487 107.74 73.7138 92.791 72.7355 86.4538C72.3089 83.7378 72.6399 81.0439 73.6697 78.6665C75.2731 74.9937 77.8033 73.6689 79.6494 73.2052C84.9378 71.8803 90.4395 76.061 91.0499 76.5394C92.3959 77.5993 92.624 79.5498 91.5648 80.8967C90.5057 82.2363 88.5639 82.4718 87.2179 81.4193C86.0337 80.4993 83.0034 78.7549 81.1499 79.2259C80.8557 79.2995 80.0686 79.4983 79.3552 81.147C78.7888 82.4424 78.6197 83.9439 78.8624 85.5043C79.6347 90.4799 82.4738 102.205 92.1826 103.633C93.8743 103.883 95.0438 105.458 94.8011 107.151C94.5731 108.689 93.2491 109.801 91.7413 109.801L91.734 109.808Z" fill="#3E3A39"/>
<path d="M171.28 109.904C169.699 109.904 168.353 108.704 168.199 107.092C168.037 105.385 169.287 103.876 170.993 103.714C181.717 102.698 184.807 90.6273 185.638 85.4824C185.888 83.9515 185.711 82.4647 185.13 81.184C184.461 79.7046 183.711 79.3586 183.21 79.2335C181.195 78.7256 177.9 80.5363 176.708 81.4416C175.348 82.4794 173.399 82.2071 172.369 80.8454C171.339 79.4838 171.604 77.5333 172.965 76.5028C173.597 76.0244 179.312 71.8511 184.733 73.2201C186.586 73.6912 189.139 75.0087 190.779 78.6226C191.86 81.0147 192.198 83.7233 191.757 86.4687C190.698 93.0341 186.609 108.454 171.582 109.882C171.479 109.889 171.383 109.897 171.288 109.897L171.28 109.904Z" fill="#3E3A39"/>
<path d="M133.717 104.987H130.9C129.187 104.987 127.804 103.596 127.804 101.889C127.804 100.181 129.194 98.7899 130.9 98.7899H133.717C135.431 98.7899 136.814 100.181 136.814 101.889C136.814 103.596 135.424 104.987 133.717 104.987Z" fill="#3E3A39"/>
<path d="M130.68 120.613C126.127 120.613 121.846 120.002 118.83 118.559C117.286 117.823 116.631 115.968 117.374 114.423C118.11 112.877 119.963 112.229 121.508 112.965C125.671 114.96 135.615 114.872 143.669 112.767C145.324 112.332 147.016 113.326 147.449 114.982C147.883 116.638 146.89 118.331 145.236 118.765C140.889 119.899 135.622 120.613 130.68 120.613Z" fill="#3E3A39"/>
<path d="M147.317 90.8333C146.78 90.8333 146.229 90.6935 145.728 90.3917L142.58 88.5148C141.109 87.6389 140.631 85.7326 141.507 84.2605C142.382 82.7885 144.287 82.31 145.758 83.1859L148.906 85.0628C150.377 85.9387 150.855 87.845 149.98 89.3171C149.399 90.2886 148.369 90.8333 147.317 90.8333Z" fill="#3E3A39"/>
<path d="M157.1 119.223C155.651 119.223 154.356 118.199 154.062 116.727C153.503 113.908 151.37 112.363 151.355 112.348C149.936 111.391 149.56 109.463 150.517 108.042C151.473 106.622 153.4 106.246 154.819 107.203C155.253 107.498 159.093 110.221 160.145 115.52C160.476 117.198 159.387 118.832 157.71 119.164C157.504 119.2 157.305 119.223 157.1 119.223Z" fill="#3E3A39"/>
<path d="M107.32 119.222C106.996 119.222 106.658 119.171 106.334 119.06C104.708 118.516 103.833 116.756 104.377 115.137C105.716 111.133 108.393 107.917 108.511 107.777C109.614 106.467 111.571 106.297 112.88 107.401C114.189 108.505 114.358 110.456 113.263 111.766C113.263 111.766 111.218 114.247 110.262 117.102C109.828 118.398 108.621 119.222 107.32 119.222Z" fill="#3E3A39"/>
<path d="M152.142 31.6047C151.554 31.6047 150.958 31.4354 150.428 31.0895C150.208 30.9423 132.776 19.6442 110.872 22.235C109.173 22.4411 107.628 21.2193 107.43 19.5191C107.231 17.8188 108.445 16.2731 110.144 16.0744C134.401 13.1892 153.076 25.4 153.856 25.9225C155.283 26.872 155.665 28.7931 154.716 30.221C154.121 31.1189 153.135 31.6047 152.135 31.6047H152.142Z" fill="#3E3A39"/>
<path d="M103.686 34.1812C102.215 34.1812 100.913 33.136 100.641 31.6345C100.332 29.949 101.45 28.3297 103.134 28.0206C114.41 25.9524 127.443 27.6452 127.995 27.7115C129.694 27.9396 130.886 29.4927 130.658 31.1929C130.437 32.8931 128.878 34.0855 127.179 33.8573C127.053 33.8426 114.55 32.2234 104.252 34.115C104.061 34.1518 103.877 34.1665 103.693 34.1665L103.686 34.1812Z" fill="#3E3A39"/>
<path d="M88.9022 68.1041C88.9022 68.1041 88.836 68.1041 88.7992 68.1041C87.0855 68.0452 85.7468 66.6173 85.8057 64.9023C86.5927 41.0254 101.215 36.5062 101.833 36.3295C103.48 35.8511 105.194 36.8006 105.672 38.4419C106.15 40.0759 105.216 41.7835 103.59 42.2767C103.076 42.4386 92.6239 46.0378 91.9987 65.1084C91.9399 66.7866 90.5645 68.1114 88.9022 68.1114V68.1041Z" fill="#3E3A39"/>
<path d="M175.009 67.1482C174.936 67.1482 174.862 67.1482 174.789 67.1409C173.082 67.0231 171.795 65.5363 171.913 63.8287C173.656 38.9214 158.482 34.1077 158.328 34.0635C156.688 33.5778 155.753 31.8481 156.239 30.2067C156.724 28.5654 158.453 27.6306 160.093 28.1164C160.917 28.3593 180.18 34.4536 178.098 64.263C177.981 65.897 176.62 67.1482 175.009 67.1482Z" fill="#3E3A39"/>
<path d="M81.4884 78.3793C80.2675 78.3793 79.1127 77.658 78.6199 76.4583C78.3993 75.9136 73.1771 62.93 74.3392 44.6175C75.2292 30.5666 80.2748 19.7322 89.329 12.4234C96.1547 6.91056 103.319 5.02631 106.981 4.39332C107.548 4.29764 108.129 4.12835 108.717 3.88546C125.303 -2.8198 137.403 0.396666 144.633 4.28292C152.525 8.52247 156.423 14.4107 156.585 14.661C157.519 16.0962 157.114 18.0173 155.68 18.9521C154.246 19.8868 152.334 19.4894 151.392 18.0615C150.84 17.2297 138.109 -1.30357 111.034 9.64124C110.034 10.0461 109.026 10.3405 108.026 10.5098C102.024 11.5476 82.2901 17.1046 80.5175 45.0223C79.451 61.8333 84.2981 73.9999 84.3496 74.1177C84.9968 75.7002 84.2319 77.5108 82.6505 78.1585C82.2681 78.3131 81.8709 78.3867 81.4811 78.3867L81.4884 78.3793Z" fill="#3E3A39"/>
<path d="M182.306 78.1591C182.144 78.1591 181.982 78.1444 181.82 78.1223C180.129 77.8573 178.974 76.2675 179.239 74.5746L182.666 52.766C183.13 48.3056 182.938 44.0219 182.107 40.0326C177.885 19.8359 161.542 19.0998 161.38 19.0925C159.667 19.041 158.328 17.6057 158.379 15.8981C158.431 14.2199 159.806 12.8951 161.476 12.8951C161.505 12.8951 161.542 12.8951 161.571 12.8951C161.785 12.8951 182.968 13.8446 188.175 38.7666C189.146 43.4184 189.367 48.3719 188.822 53.502L188.8 53.6566L185.358 75.5388C185.115 77.0698 183.799 78.1591 182.298 78.1591H182.306Z" fill="#3E3A39"/>
<path d="M107.857 201.54C107.239 201.54 106.614 201.356 106.069 200.974C104.672 199.987 104.341 198.052 105.327 196.653C110.674 189.087 116.425 181.439 120.625 175.86C122.354 173.564 124.023 171.341 125.185 169.759C116.492 164.047 110.085 158.755 106.871 155.943L104.863 158.1C103.694 159.351 101.737 159.425 100.479 158.254C99.229 157.084 99.1555 155.126 100.325 153.868L104.414 149.481C104.981 148.877 105.76 148.524 106.592 148.495C107.393 148.48 108.224 148.774 108.82 149.348C108.908 149.429 117.624 157.68 131.143 166.218C131.665 166.549 132.092 167.035 132.349 167.617C133.129 169.405 132.298 170.539 130.297 173.269C129.157 174.83 127.495 177.038 125.575 179.585C121.398 185.134 115.675 192.73 110.387 200.223C109.784 201.077 108.828 201.533 107.849 201.533L107.857 201.54Z" fill="#3E3A39"/>
<path d="M155.151 199.862C154.18 199.862 153.231 199.413 152.628 198.559C147.685 191.625 142.448 184.67 138.623 179.591C136.704 177.037 135.041 174.836 133.901 173.269C131.901 170.531 131.077 169.397 131.849 167.609C132.099 167.027 132.526 166.541 133.056 166.21C146.611 157.65 155.298 149.421 155.379 149.34C155.974 148.766 156.783 148.442 157.607 148.486C158.431 148.509 159.218 148.862 159.784 149.473L165.558 155.67C166.728 156.921 166.654 158.887 165.404 160.057C164.153 161.227 162.189 161.154 161.02 159.902L157.32 155.935C154.099 158.747 147.7 164.039 139.006 169.75C140.168 171.333 141.838 173.556 143.566 175.852C147.413 180.96 152.672 187.953 157.666 194.952C158.659 196.343 158.335 198.286 156.945 199.28C156.401 199.67 155.768 199.854 155.151 199.854V199.862Z" fill="#3E3A39"/>
<path d="M131.798 282.364C130.731 282.364 129.694 281.812 129.113 280.826C103.62 236.995 99.6482 158.004 99.4937 154.662C99.4128 152.955 100.737 151.497 102.443 151.416C104.164 151.328 105.606 152.66 105.687 154.368C105.724 155.17 109.754 235.199 134.475 277.705C135.335 279.184 134.835 281.083 133.357 281.944C132.864 282.231 132.327 282.364 131.798 282.364Z" fill="#3E3A39"/>
<path d="M128.826 289.547C128.392 289.547 127.951 289.459 127.532 289.26C125.98 288.546 125.296 286.699 126.016 285.146C150.266 232.519 160.343 155.685 160.439 154.919C160.659 153.219 162.211 152.019 163.91 152.24C165.609 152.461 166.808 154.014 166.588 155.714C166.485 156.495 156.298 234.249 131.643 287.751C131.121 288.885 129.996 289.555 128.826 289.555V289.547Z" fill="#3E3A39"/>
<path d="M189.418 314.455C188.962 314.455 188.506 314.351 188.065 314.145C186.528 313.395 185.88 311.54 186.631 310.002C187.057 309.118 197.318 288.163 212.896 275.423C214.22 274.341 216.176 274.532 217.258 275.864C218.339 277.189 218.14 279.147 216.816 280.229C202.312 292.086 192.301 312.504 192.206 312.71C191.669 313.814 190.566 314.462 189.418 314.462V314.455Z" fill="#3E3A39"/>
<path d="M95.7425 365.447C94.0803 365.447 92.7048 364.129 92.646 362.458C92.4621 357.299 92.2856 353.103 92.1459 349.85C92.0723 348.135 93.3962 346.693 95.11 346.619C96.8164 346.523 98.2654 347.87 98.3389 349.585C98.4787 352.846 98.6552 357.063 98.8391 362.238C98.8979 363.953 97.5666 365.388 95.8529 365.454C95.8161 365.454 95.7793 365.454 95.7352 365.454L95.7425 365.447Z" fill="#3E3A39"/>
<path d="M94.9042 374.603C93.2419 374.603 91.8665 373.278 91.8077 371.6C91.7488 369.885 93.0948 368.457 94.8012 368.398C95.6765 368.369 182.365 365.454 215.72 357.851C223.127 356.166 229.386 351.197 232.475 344.566C232.99 343.454 233.424 342.306 233.748 341.151C239.882 319.408 246.539 246.372 248.12 213.854C248.62 203.571 243.457 193.856 234.638 188.497C230.107 185.745 225.319 183.787 221.825 182.359C220.509 181.822 219.376 181.358 218.427 180.924C206.387 175.448 176.804 164.871 176.503 164.768C174.892 164.194 174.053 162.42 174.627 160.8C175.201 159.189 176.973 158.342 178.591 158.924C179.82 159.358 208.718 169.692 221.001 175.278C221.84 175.661 222.928 176.103 224.179 176.618C227.864 178.127 232.917 180.188 237.867 183.198C248.627 189.734 254.931 201.599 254.32 214.163C252.79 245.709 246.244 319.725 239.72 342.843C239.301 344.315 238.757 345.78 238.102 347.193C234.211 355.547 226.363 361.796 217.103 363.909C183.166 371.644 98.5965 374.486 95.0145 374.603C94.9778 374.603 94.9483 374.603 94.9116 374.603H94.9042Z" fill="#3E3A39"/>
<path d="M87.1371 373.109C86.9974 373.109 86.8576 373.102 86.7179 373.08L79.0464 372.042C77.6048 371.85 76.4942 370.673 76.3691 369.223L75.1997 355.054C75.0599 353.347 76.325 351.852 78.0314 351.705C79.7378 351.565 81.2309 352.831 81.378 354.539L82.3415 366.227L87.5417 366.926C89.2407 367.154 90.4249 368.715 90.1969 370.415C89.9836 371.975 88.6596 373.102 87.1298 373.102L87.1371 373.109Z" fill="#3E3A39"/>
<path d="M75.0671 369.237C63.2547 369.237 54.7815 361.818 54.4064 361.479C53.1266 360.339 53.0163 358.381 54.1563 357.1C55.289 355.827 57.2455 355.709 58.5253 356.842C58.6651 356.968 66.616 363.805 76.8691 362.959C78.5755 362.819 80.076 364.085 80.2158 365.793C80.3555 367.5 79.0904 369.002 77.384 369.142C76.6044 369.208 75.8321 369.237 75.0745 369.237H75.0671Z" fill="#3E3A39"/>
<path d="M51.5675 361.915C26.6114 361.915 22.3969 337.64 22.0732 335.484C12.7689 287.583 15.7331 226.588 17.8661 209.784C18.6016 203.984 20.433 198.574 23.2942 193.709C28.2148 185.37 33.7974 181.483 34.5329 180.998C45.8378 173.049 85.8059 160.411 87.4976 159.874C89.1304 159.358 90.8736 160.264 91.3885 161.898C91.9033 163.532 90.9986 165.276 89.3658 165.791C88.9613 165.916 48.5298 178.709 38.0708 186.098C38.034 186.128 37.9972 186.15 37.9531 186.179C37.9163 186.201 33.003 189.469 28.6414 196.867C26.2068 201.003 24.6475 205.611 24.0224 210.571C21.3598 231.512 19.7858 291.226 28.178 334.372C28.1927 334.446 28.2075 334.519 28.2148 334.593C28.3325 335.498 31.2966 356.895 53.4578 355.666C57.7312 354.782 121.883 341.445 154.268 331.546C155.908 331.045 157.637 331.965 158.137 333.607C158.637 335.248 157.717 336.978 156.077 337.478C122.457 347.753 55.1642 361.65 54.4875 361.789C54.3404 361.819 54.2007 361.841 54.0536 361.848C53.2077 361.9 52.3766 361.922 51.5749 361.929L51.5675 361.915Z" fill="#3E3A39"/>
<path d="M56.9733 302.737C55.4582 302.737 54.1342 301.625 53.9136 300.087C53.6635 298.394 54.833 296.819 56.5247 296.569C56.9954 296.503 104.267 289.51 140.661 282.386C142.338 282.054 143.97 283.151 144.301 284.836C144.632 286.522 143.536 288.149 141.852 288.48C105.312 295.634 57.9001 302.641 57.4293 302.715C57.2749 302.737 57.1204 302.752 56.9733 302.752V302.737Z" fill="#3E3A39"/>
<path d="M153.216 330.317C151.914 330.317 150.708 329.492 150.274 328.189C145.574 314.021 142.22 292.705 142.08 291.8C141.815 290.107 142.97 288.525 144.662 288.26C146.353 287.995 147.942 289.15 148.2 290.843C148.236 291.057 151.612 312.556 156.151 326.232C156.687 327.858 155.812 329.61 154.187 330.155C153.863 330.265 153.532 330.317 153.208 330.317H153.216Z" fill="#3E3A39"/>
<path d="M160.137 331.752C158.938 331.752 157.798 331.053 157.291 329.882C156.614 328.307 157.335 326.482 158.909 325.805L162.844 324.104L155.378 289.43L149.178 290.269C147.479 290.505 145.92 289.312 145.692 287.612C145.464 285.912 146.648 284.351 148.347 284.123L157.386 282.901C158.99 282.673 160.49 283.74 160.829 285.323L169.434 325.289C169.743 326.739 168.993 328.204 167.632 328.793L161.358 331.502C160.961 331.671 160.542 331.759 160.13 331.759L160.137 331.752Z" fill="#3E3A39"/>
<path d="M159.409 291.888C158.114 291.888 156.908 291.071 156.474 289.783C155.923 288.163 156.79 286.397 158.416 285.852L189.014 275.467C193.015 274.113 197.494 274.974 200.708 277.719C200.877 277.859 201.025 278.021 201.157 278.19L206.74 285.506C207.777 286.868 207.519 288.818 206.158 289.856C204.798 290.894 202.849 290.636 201.812 289.275L196.45 282.246C194.912 281.061 192.853 280.707 191.007 281.34L160.409 291.726C160.078 291.836 159.74 291.888 159.416 291.888H159.409Z" fill="#3E3A39"/>
<path d="M167.566 324.156C166.529 324.156 165.514 323.633 164.925 322.684C164.028 321.226 164.469 319.32 165.918 318.422C166.536 318.039 181.342 309.001 207.321 308.25C209.057 308.22 210.461 309.545 210.506 311.26C210.557 312.975 209.211 314.403 207.497 314.455C183.321 315.154 169.324 323.611 169.184 323.699C168.677 324.008 168.118 324.163 167.559 324.163L167.566 324.156Z" fill="#3E3A39"/>
<path d="M94.8379 296.171C94.0215 296.171 93.2124 295.855 92.6019 295.222L84.7613 287.074C83.8566 286.132 82.8416 285.293 81.753 284.579L68.0135 275.614C67.9326 275.562 67.8591 275.504 67.7855 275.445C64.5272 272.861 63.2915 274.149 62.8208 274.635C62.7619 274.694 62.7031 274.753 62.6443 274.804L55.1567 281.458C53.8769 282.599 51.9131 282.481 50.7804 281.2C49.6403 279.92 49.758 277.962 51.0378 276.821L58.4444 270.241C59.8787 268.798 64.6228 265.111 71.5146 270.499L85.1364 279.39C86.6221 280.361 87.9976 281.495 89.2259 282.776L97.0665 290.923C98.2507 292.16 98.2139 294.118 96.9856 295.31C96.3825 295.892 95.6102 296.179 94.8379 296.179V296.171Z" fill="#3E3A39"/>
<path d="M80.3189 296.908C79.7231 296.908 79.1273 296.739 78.5978 296.385L58.5181 282.931C58.4666 282.894 58.4152 282.857 58.3637 282.82C56.9883 281.775 55.1568 281.569 53.5975 282.261L49.383 286.854C48.2282 288.112 46.2644 288.201 44.9993 287.038C43.7416 285.882 43.6533 283.917 44.8154 282.651L49.4124 277.646C49.6331 277.403 49.8979 277.197 50.1847 277.035C53.9506 274.93 58.5843 275.239 62.0339 277.815L82.0474 291.218C83.4669 292.168 83.8494 294.096 82.9006 295.524C82.3048 296.415 81.3192 296.901 80.3189 296.901V296.908Z" fill="#3E3A39"/>
<path d="M67.337 300.441C66.778 300.441 66.2116 300.287 65.6968 299.97L48.7799 289.401C47.831 288.827 46.5807 288.863 45.6319 289.511L41.741 292.168C40.3288 293.132 38.4017 292.772 37.4308 291.359C36.4599 289.945 36.8277 288.017 38.2399 287.045L42.1308 284.388C45.0802 282.372 48.9637 282.269 52.0161 284.116L68.9698 294.708C70.4188 295.613 70.8675 297.527 69.9554 298.984C69.367 299.926 68.3594 300.441 67.3223 300.441H67.337Z" fill="#3E3A39"/>
<path d="M65.6525 307.705C65.1229 307.705 64.586 307.573 64.1005 307.286C44.2195 295.745 30.0534 294.111 29.9136 294.096C28.2146 293.912 26.9789 292.388 27.1628 290.688C27.3393 288.988 28.8545 287.751 30.5609 287.928C31.1861 287.994 46.0803 289.65 67.2118 301.927C68.6902 302.788 69.1977 304.687 68.3371 306.167C67.7634 307.16 66.719 307.712 65.6525 307.712V307.705Z" fill="#3E3A39"/>
<path d="M56.4733 228.434C55.3333 228.434 54.2373 227.801 53.693 226.712C46.7792 212.823 38.7914 208.988 38.7105 208.952C37.166 208.238 36.4819 206.405 37.1807 204.852C37.8868 203.299 39.6888 202.6 41.2481 203.292C41.6526 203.468 51.2364 207.87 59.2388 223.952C60.0038 225.483 59.3786 227.345 57.8487 228.111C57.4074 228.331 56.9367 228.434 56.4733 228.434Z" fill="#3E3A39"/>
<path d="M208.468 226.845C207.887 226.845 207.306 226.683 206.784 226.344C205.35 225.41 204.938 223.489 205.872 222.053C217.574 203.991 225.878 198.022 226.224 197.779C227.621 196.793 229.555 197.124 230.541 198.53C231.527 199.928 231.196 201.857 229.806 202.843C229.673 202.939 221.98 208.599 211.079 225.424C210.483 226.337 209.49 226.838 208.475 226.838L208.468 226.845Z" fill="#3E3A39"/>
<path d="M62.3134 274.319C60.7247 274.319 59.3714 273.097 59.2316 271.485C58.4226 262.204 56.8338 235.037 56.8191 234.765C56.7162 233.057 58.0254 231.585 59.7318 231.489C61.4382 231.401 62.9092 232.696 63.0048 234.404C63.0195 234.676 64.6083 261.755 65.4026 270.955C65.5497 272.663 64.292 274.165 62.5856 274.312C62.4973 274.319 62.4017 274.326 62.3134 274.326V274.319Z" fill="#3E3A39"/>
<path d="M198.443 281.025C198.311 281.025 198.178 281.017 198.046 280.995C196.347 280.774 195.148 279.221 195.369 277.521C197.605 260.165 202.253 236.877 202.297 236.642C202.635 234.964 204.268 233.867 205.945 234.213C207.622 234.551 208.711 236.185 208.373 237.864C208.328 238.092 203.717 261.174 201.518 278.316C201.319 279.884 199.98 281.025 198.45 281.025H198.443Z" fill="#3E3A39"/>
<path d="M146.479 400.931C145.169 400.931 143.956 400.092 143.529 398.781C143.007 397.155 143.897 395.403 145.53 394.88L155.246 391.752C156.879 391.23 158.622 392.12 159.144 393.754C159.666 395.381 158.776 397.133 157.144 397.655L147.427 400.783C147.111 400.887 146.788 400.931 146.479 400.931Z" fill="#3E3A39"/>
<path d="M70.691 485.059C58.5182 485.059 48.1694 484.389 41.844 483.852C35.4229 483.307 30.6053 478.361 30.6494 472.34C30.7671 454.955 33.54 424.322 35.9819 397.295C37.3353 382.324 38.6151 368.184 39.2182 358.623C39.3285 356.916 40.7995 355.62 42.5059 355.723C44.2123 355.834 45.5142 357.306 45.4039 359.013C44.7934 368.656 43.5136 382.839 42.1529 397.854C39.7183 424.763 36.9601 455.257 36.8425 472.385C36.8204 475.13 39.1961 477.404 42.3588 477.677C52.0677 478.501 71.4412 479.649 92.1608 478.096C105.768 477.073 116.602 467.431 117.933 455.161C118.801 447.153 120.625 435.767 122.552 423.725C124.766 409.918 127.054 395.638 128.032 385.54C128.194 383.833 129.716 382.589 131.415 382.751C133.122 382.92 134.365 384.436 134.203 386.136C133.203 396.426 130.901 410.801 128.672 424.704C126.752 436.672 124.943 447.978 124.097 455.831C122.449 471.074 109.21 483.042 92.6241 484.286C84.9968 484.86 77.546 485.074 70.6763 485.074L70.691 485.059Z" fill="#3E3A39"/>
<path d="M224.664 483.418C224.002 483.418 223.333 483.374 222.671 483.286L166.683 475.712C157.269 474.439 149.538 467.638 147.442 458.791L127.421 372.012C127.039 370.342 128.076 368.678 129.746 368.296C131.415 367.913 133.077 368.951 133.46 370.621L153.473 457.385C154.981 463.737 160.623 468.639 167.507 469.574L223.495 477.147C225.907 477.479 228.312 476.779 230.092 475.234C231.703 473.843 232.6 471.951 232.622 469.912C232.814 453.057 230.99 420.127 229.386 391.068C228.629 377.371 227.915 364.439 227.503 354.826C227.43 353.111 228.761 351.669 230.467 351.595C232.159 351.514 233.623 352.854 233.696 354.561C234.101 364.13 234.822 377.054 235.579 390.73C237.19 419.884 239.021 452.925 238.83 469.986C238.786 473.769 237.08 477.398 234.152 479.93C231.527 482.204 228.151 483.433 224.664 483.433V483.418Z" fill="#3E3A39"/>
<path d="M64.851 406.495C64.7554 406.495 64.6671 406.495 64.5715 406.48L49.4713 405.119C47.7649 404.964 46.5071 403.455 46.6616 401.748C46.8161 400.04 48.3165 398.781 50.0303 398.936L64.976 400.283C67.1311 400.231 68.9184 398.855 69.1611 397.037L69.8893 391.686L43.212 390.221C41.5056 390.126 40.1964 388.668 40.2847 386.953C40.3803 385.246 41.8587 383.95 43.5504 384.024L73.5816 385.673C74.4421 385.717 75.2512 386.129 75.8028 386.791C76.3545 387.461 76.6045 388.33 76.4869 389.184L75.31 397.861C74.6481 402.778 70.1541 406.48 64.8583 406.48L64.851 406.495Z" fill="#3E3A39"/>
<path d="M208.667 406.585C203.511 406.585 199.142 402.875 198.502 397.943L197.369 389.266C197.259 388.412 197.509 387.551 198.053 386.888C198.605 386.226 199.399 385.821 200.26 385.77L230.416 384.047C232.13 383.944 233.593 385.254 233.689 386.969C233.785 388.677 232.483 390.149 230.769 390.245L203.945 391.776L204.643 397.149C204.879 398.945 206.519 400.313 208.497 400.38L224.363 398.495C226.076 398.289 227.606 399.511 227.805 401.211C228.003 402.912 226.79 404.457 225.091 404.656L209.02 406.562C208.895 406.577 208.777 406.585 208.652 406.585H208.667Z" fill="#3E3A39"/>
<path d="M128.422 421.105C126.737 421.105 125.355 419.758 125.325 418.058C125.296 416.343 126.657 414.93 128.37 414.901C131.746 414.842 135.527 414.79 140.278 414.842C141.992 414.864 143.36 416.27 143.338 417.977C143.316 419.677 141.933 421.039 140.242 421.039H140.205C135.542 420.988 131.82 421.039 128.488 421.098H128.429L128.422 421.105Z" fill="#3E3A39"/>
<path d="M125.435 435.569C123.758 435.569 122.376 434.229 122.339 432.536C122.302 430.821 123.655 429.401 125.369 429.364C130.555 429.246 138.785 429.165 144.581 429.268C146.295 429.298 147.655 430.711 147.626 432.426C147.597 434.141 146.155 435.495 144.471 435.473C138.763 435.363 130.643 435.444 125.516 435.561C125.494 435.561 125.465 435.561 125.443 435.561L125.435 435.569Z" fill="#3E3A39"/>
<path d="M70.0657 785.266C69.1242 785.266 68.1975 784.846 67.5944 784.037C66.5646 782.675 66.8221 780.754 68.1681 779.716C68.6462 779.348 80.2673 770.678 112.939 768.286C114.645 768.16 116.131 769.448 116.256 771.156C116.381 772.864 115.094 774.35 113.388 774.476C82.9079 776.706 72.0295 784.567 71.9192 784.648C71.3602 785.06 70.7056 785.266 70.0583 785.266H70.0657Z" fill="#3E3A39"/>
<path d="M91.6089 787.629C89.9246 787.629 88.5418 786.274 88.5124 784.581C88.4903 783.323 86.4382 658.263 88.5124 619.188C88.6007 617.473 90.0864 616.177 91.7708 616.258C93.4771 616.346 94.7937 617.811 94.6981 619.519C92.6313 658.381 94.6834 783.227 94.6981 784.478C94.7275 786.193 93.3595 787.607 91.6531 787.629H91.6016H91.6089Z" fill="#3E3A39"/>
<path d="M215.801 785.28C215.485 785.28 215.161 785.229 214.845 785.125C190.198 777.11 177.032 779.782 176.9 779.811C175.23 780.172 173.582 779.112 173.215 777.441C172.847 775.771 173.891 774.129 175.554 773.754C176.142 773.621 190.286 770.618 216.757 779.23C218.383 779.76 219.273 781.512 218.751 783.138C218.324 784.448 217.11 785.28 215.801 785.28Z" fill="#3E3A39"/>
<path d="M201.561 787.629H201.51C199.796 787.599 198.436 786.186 198.465 784.478C198.487 783.345 200.318 671.019 198.465 630.758C198.384 629.043 199.708 627.593 201.422 627.519C203.15 627.446 204.584 628.763 204.658 630.478C206.519 670.931 204.68 783.455 204.658 784.589C204.629 786.282 203.246 787.636 201.561 787.636V787.629Z" fill="#3E3A39"/>
<path d="M101.803 847.099C101.016 847.099 100.229 846.805 99.6263 846.209C91.8077 838.488 81.1869 839.231 81.0839 839.246C79.3775 839.371 77.8844 838.112 77.7446 836.412C77.6049 834.712 78.8626 833.211 80.5617 833.063C81.106 833.019 94.0731 832.018 103.981 841.793C105.202 842.992 105.216 844.958 104.01 846.179C103.407 846.798 102.605 847.099 101.803 847.099Z" fill="#3E3A39"/>
<path d="M198.892 839.335C198.237 839.335 197.575 839.129 197.009 838.694C195.663 837.657 195.391 835.743 196.413 834.389C196.81 833.866 206.32 821.633 227.886 830.289C229.475 830.929 230.247 832.733 229.607 834.322C228.967 835.912 227.165 836.685 225.576 836.045C208.623 829.236 201.635 837.774 201.348 838.142C200.738 838.923 199.819 839.335 198.892 839.335Z" fill="#3E3A39"/>
<path d="M62.8722 807.522C61.9455 807.522 61.0334 807.11 60.423 806.323L55.5318 800.022C52.7441 796.43 51.8542 791.676 53.156 787.318L55.4067 779.796C55.8774 778.228 56.0687 776.594 55.9731 774.931C54.811 754.138 55.5318 680.748 55.9142 641.319C56.0613 626.598 56.1643 615.963 56.1128 614.218C55.0537 577.24 55.5906 537.538 55.9436 511.269C56.1055 499.206 56.2379 489.674 56.1717 484.036C56.1496 482.321 57.525 480.915 59.2314 480.901H59.2682C60.9599 480.901 62.35 482.262 62.3647 483.962C62.4309 489.674 62.3059 499.242 62.1367 511.35C61.7837 537.568 61.2541 577.188 62.3059 614.042C62.3574 615.904 62.2617 626.039 62.1073 641.378C61.7248 680.733 61.0114 753.998 62.1588 774.585C62.2912 776.962 62.0117 779.31 61.3424 781.57L59.0917 789.092C58.3635 791.536 58.8563 794.193 60.423 796.21L65.3142 802.51C66.3659 803.864 66.1232 805.815 64.7699 806.86C64.2035 807.302 63.5342 807.515 62.8722 807.515V807.522Z" fill="#3E3A39"/>
<path d="M123.928 808.392C123.611 808.392 123.288 808.34 122.972 808.237C121.346 807.707 120.449 805.956 120.978 804.329L124.774 792.626C126.223 788.166 126.965 783.536 126.988 778.848C127.157 756.273 128.01 643.572 128.231 641.401C132.835 596.363 133.887 535.868 133.894 535.265C133.923 533.572 135.306 532.218 136.991 532.218H137.042C138.756 532.247 140.117 533.66 140.087 535.368C140.08 535.979 139.021 596.694 134.394 641.99C134.218 645.383 133.519 732.941 133.173 778.892C133.144 784.213 132.298 789.476 130.658 794.547L126.862 806.25C126.436 807.56 125.222 808.399 123.913 808.399L123.928 808.392Z" fill="#3E3A39"/>
<path d="M167.154 822.561C165.771 822.561 164.506 821.626 164.153 820.22C158.762 798.846 157.909 744.548 157.225 700.931C156.813 674.957 156.46 652.53 155.239 644.676C149.95 610.649 139.925 523.29 139.822 522.406C139.624 520.706 140.845 519.168 142.551 518.969C144.243 518.778 145.787 519.992 145.986 521.7C146.089 522.576 156.099 609.81 161.365 643.719C162.653 652 162.991 673.543 163.425 700.828C164.109 744.129 164.955 798.021 170.17 818.704C170.589 820.367 169.581 822.053 167.919 822.472C167.662 822.539 167.411 822.568 167.161 822.568L167.154 822.561Z" fill="#3E3A39"/>
<path d="M132.224 542.61C131.342 542.61 130.466 542.235 129.856 541.513C128.753 540.203 128.914 538.246 130.224 537.141L141.632 527.499C142.941 526.395 144.897 526.557 146 527.867C147.104 529.178 146.942 531.135 145.633 532.24L134.225 541.882C133.644 542.375 132.93 542.618 132.224 542.618V542.61Z" fill="#3E3A39"/>
<path d="M143.632 513.198C143.426 513.198 143.22 513.176 143.014 513.139C141.337 512.801 140.249 511.167 140.587 509.489C142.941 497.815 145.331 484.051 147.692 468.565C147.95 466.872 149.538 465.71 151.223 465.967C152.914 466.225 154.076 467.807 153.819 469.5C151.443 485.082 149.031 498.949 146.662 510.718C146.368 512.19 145.074 513.206 143.625 513.206L143.632 513.198Z" fill="#3E3A39"/>
<path d="M130.437 518.836C129.15 518.836 127.944 518.026 127.502 516.731C121.655 499.574 118.308 476.433 116.837 464.163C116.631 462.463 117.845 460.917 119.544 460.711C121.258 460.505 122.788 461.72 122.994 463.42C124.435 475.447 127.708 498.109 133.372 514.729C133.923 516.348 133.063 518.115 131.437 518.667C131.106 518.777 130.768 518.836 130.437 518.836Z" fill="#3E3A39"/>
<path d="M116.697 807.273C116.175 807.273 115.638 807.14 115.153 806.861C96.4413 796.056 73.1916 803.475 72.9562 803.548C71.3307 804.078 69.5802 803.195 69.0433 801.568C68.5137 799.942 69.3963 798.19 71.0218 797.653C72.081 797.307 97.1621 789.314 118.242 801.488C119.728 802.341 120.235 804.24 119.375 805.727C118.801 806.721 117.757 807.28 116.69 807.28L116.697 807.273Z" fill="#3E3A39"/>
<path d="M109.056 854.357C107.46 854.357 106.114 853.143 105.974 851.531L105.452 845.738C105.297 844.031 106.555 842.522 108.261 842.374C109.968 842.212 111.475 843.479 111.623 845.186L111.873 847.99L123.678 847.321C123.891 846.857 124.126 845.981 124.126 845.149V837.038C124.126 836.795 124.156 836.552 124.215 836.31C124.244 836.184 127.26 823.193 123.06 811.733C122.471 810.121 123.295 808.34 124.899 807.751C126.509 807.163 128.289 807.987 128.878 809.591C133.364 821.824 130.856 834.948 130.327 837.377V845.135C130.327 848.55 128.79 852.583 125.406 853.378C125.23 853.422 125.053 853.444 124.877 853.452L109.225 854.335C109.166 854.335 109.107 854.335 109.048 854.335L109.056 854.357Z" fill="#3E3A39"/>
<path d="M49.0226 891.262C38.4606 891.262 30.7818 889.414 25.5743 887.435C22.1174 886.117 20.0653 882.51 20.6905 878.86L21.8526 872.081C21.529 859.406 29.3549 848.255 44.5139 839.821C48.1841 837.774 51.8838 834.043 53.3181 830.944C58.6873 819.3 68.2123 802.452 68.6168 801.746C69.4627 800.251 71.353 799.729 72.8387 800.575C74.3318 801.422 74.854 803.313 74.0082 804.8C73.9126 804.969 64.2111 822.134 58.9448 833.542C56.6573 838.503 51.5602 842.993 47.5295 845.238C38.3797 850.331 27.5823 859.134 28.0604 872.177C28.0677 872.39 28.0604 872.603 28.0162 872.817L26.8026 879.905C26.6776 880.641 27.0895 881.37 27.7809 881.635C35.3273 884.505 48.7578 887.044 69.8525 882.842C71.9487 882.422 73.8684 881.414 75.413 879.927L76.3913 878.977C81.2457 874.289 88.5788 867.208 94.9925 858.531C97.1696 855.586 100.752 852.554 104.407 850.515L105.496 844.87C105.819 843.184 107.452 842.095 109.129 842.411C110.813 842.735 111.909 844.362 111.586 846.047L110.21 853.158C110.026 854.114 109.394 854.931 108.519 855.358C105.282 856.926 101.855 859.679 99.9793 862.211C93.2567 871.308 85.6956 878.602 80.694 883.431L79.7232 884.373C77.3254 886.691 74.3318 888.259 71.0661 888.914C62.6444 890.592 55.3187 891.255 49.0226 891.255V891.262Z" fill="#3E3A39"/>
<path d="M55.4217 879.552C46.7278 879.552 38.1296 877.962 33.1943 876.858C31.5247 876.482 30.4729 874.826 30.848 873.156C31.2231 871.485 32.8854 870.432 34.5477 870.808C39.255 871.868 51.3028 874.201 61.4897 873.031C64.3067 872.707 67.0061 871.426 69.0729 869.409L93.1758 845.981C96.4415 842.809 100.531 840.697 105.003 839.872L125.266 836.148C126.951 835.839 128.569 836.958 128.878 838.636C129.187 840.321 128.069 841.94 126.392 842.25L106.128 845.974C102.863 846.57 99.8837 848.116 97.5006 850.427L73.3977 873.855C70.3453 876.821 66.3735 878.713 62.1958 879.191C59.9745 879.441 57.6944 879.552 55.4217 879.552Z" fill="#3E3A39"/>
<path d="M75.4937 837.943C75.0082 837.943 74.5228 837.832 74.0594 837.589C72.5442 836.794 71.9558 834.925 72.7502 833.401L90.0716 800.236C90.866 798.719 92.7342 798.13 94.2567 798.925C95.7719 799.72 96.3603 801.59 95.5659 803.113L78.2445 836.279C77.6929 837.339 76.6116 837.943 75.4937 837.943Z" fill="#3E3A39"/>
<path d="M91.0352 814.25C90.66 814.25 90.2849 814.183 89.9172 814.036C82.8268 811.284 71.8455 811.188 68.9108 811.88C67.2485 812.277 65.5789 811.239 65.1817 809.576C64.7919 807.905 65.8216 806.234 67.4839 805.844C71.3821 804.924 83.6211 804.939 92.1532 808.251C93.7492 808.869 94.5436 810.665 93.9258 812.262C93.4477 813.492 92.2782 814.242 91.0352 814.242V814.25Z" fill="#3E3A39"/>
<path d="M84.2169 825.975C83.8418 825.975 83.4667 825.909 83.099 825.762C77.0604 823.421 67.4913 822.773 64.4977 823.222C62.806 823.473 61.2247 822.302 60.9746 820.609C60.7245 818.917 61.894 817.334 63.5857 817.084C67.8002 816.458 78.3696 817.268 85.3423 819.977C86.9384 820.595 87.7327 822.391 87.1149 823.988C86.6368 825.217 85.4673 825.968 84.2243 825.968L84.2169 825.975Z" fill="#3E3A39"/>
<path d="M75.5011 839.938C75.126 839.938 74.7509 839.872 74.3831 839.724C68.2636 837.347 59.4006 836.832 56.5615 837.229C54.8625 837.472 53.2958 836.287 53.0605 834.587C52.8251 832.894 54.0019 831.319 55.701 831.083C59.8567 830.502 69.8376 831.304 76.6265 833.939C78.2225 834.557 79.0169 836.353 78.3991 837.951C77.921 839.18 76.7515 839.93 75.5085 839.93L75.5011 839.938Z" fill="#3E3A39"/>
<path d="M248.429 879.573C248.054 879.573 247.686 879.558 247.326 879.536C222.914 877.836 205.997 862.659 198.2 853.951C198.009 854.511 197.656 855.004 197.178 855.379C196.509 855.902 195.655 856.13 194.81 856.005L175.745 853.156C172.281 852.634 169.743 849.719 169.714 846.208L169.677 841.777C164.808 826.792 169.662 810.614 169.876 809.929C170.376 808.288 172.112 807.368 173.752 807.876C175.385 808.376 176.304 810.113 175.804 811.755C175.716 812.049 171.251 827.152 175.708 840.268C175.811 840.585 175.87 840.909 175.87 841.24L175.907 846.164C175.907 846.598 176.223 846.959 176.65 847.025L192.485 849.395L192.824 845.892C192.949 844.589 193.876 843.507 195.141 843.183C196.406 842.859 197.737 843.367 198.473 844.442C198.656 844.707 217.081 871.219 247.745 873.353C248.701 873.419 249.797 873.339 251.106 873.11C255.608 872.308 270.914 869.187 279.1 862.622C280.372 861.599 281.137 859.965 281.137 858.242V854.842C281.137 854.702 281.123 854.746 281.137 854.68C281.064 853.996 280.064 848.578 267.869 842.425C252.46 834.645 229.151 807.353 228.165 806.19C227.055 804.887 227.217 802.93 228.518 801.818C229.82 800.707 231.777 800.869 232.887 802.171C233.123 802.444 256.365 829.67 270.664 836.883C286.786 845.023 287.382 853.311 287.345 854.893V858.242C287.345 861.886 285.756 865.242 282.991 867.465C273.915 874.744 258.439 878.108 252.202 879.219C250.834 879.462 249.591 879.58 248.429 879.58V879.573Z" fill="#3E3A39"/>
<path d="M252.511 871.617C226.341 871.617 208.601 852.503 200.613 843.898C199.973 843.214 199.399 842.588 198.87 842.036C197.641 840.748 195.839 840.071 193.971 840.204C183.887 840.866 173.296 839.1 172.847 839.026C171.163 838.739 170.023 837.142 170.31 835.449C170.596 833.763 172.2 832.622 173.884 832.909C173.987 832.924 184.226 834.632 193.567 834.013C197.281 833.771 200.863 835.132 203.364 837.76C203.901 838.327 204.504 838.974 205.158 839.681C216.015 851.376 241.449 878.779 280.556 857.611C282.064 856.794 283.94 857.353 284.756 858.862C285.573 860.371 285.006 862.248 283.506 863.065C272.157 869.211 261.801 871.617 252.511 871.617Z" fill="#3E3A39"/>
<path d="M231.585 835.293C230.629 835.293 229.68 834.851 229.077 834.012C220.707 822.471 204.254 804.225 204.092 804.041C202.944 802.768 203.04 800.81 204.312 799.662C205.585 798.513 207.541 798.616 208.689 799.882C209.373 800.641 225.532 818.556 234.094 830.369C235.101 831.753 234.792 833.696 233.402 834.704C232.851 835.102 232.218 835.293 231.585 835.293Z" fill="#3E3A39"/>
<path d="M212.197 818.188C211.189 818.188 210.204 817.703 209.608 816.797C208.667 815.369 209.049 813.456 210.469 812.514C210.807 812.285 218.956 806.956 232.556 806.956C232.586 806.956 232.615 806.956 232.652 806.956C234.366 806.956 235.748 808.348 235.748 810.062C235.748 811.77 234.358 813.161 232.652 813.161C232.622 813.161 232.593 813.161 232.564 813.161C220.95 813.161 213.97 817.636 213.903 817.688C213.381 818.026 212.793 818.196 212.204 818.196L212.197 818.188Z" fill="#3E3A39"/>
<path d="M219.361 827.425C218.243 827.425 217.169 826.822 216.61 825.769C215.816 824.253 216.397 822.384 217.912 821.581C218.405 821.324 230.077 815.251 243.523 815.251H243.604C245.317 815.251 246.7 816.643 246.7 818.357C246.7 820.065 245.31 821.456 243.604 821.456C243.574 821.456 243.552 821.456 243.53 821.456C231.651 821.456 220.913 827.013 220.803 827.072C220.347 827.315 219.854 827.425 219.368 827.425H219.361Z" fill="#3E3A39"/>
<path d="M226.738 836.272C225.635 836.272 224.561 835.676 224.002 834.631C223.193 833.122 223.76 831.245 225.267 830.435C225.745 830.178 237.043 824.194 250.503 824.194H250.584C252.298 824.194 253.68 825.585 253.68 827.3C253.68 829.007 252.29 830.398 250.584 830.398C250.562 830.398 250.532 830.398 250.51 830.398C238.654 830.398 228.312 835.845 228.202 835.904C227.739 836.154 227.239 836.272 226.746 836.272H226.738Z" fill="#3E3A39"/>
<path d="M225.988 805.006C225.723 805.006 225.458 804.969 225.194 804.903C223.539 804.461 222.553 802.768 222.994 801.112L224.421 795.717C224.804 794.282 224.679 792.751 224.076 791.389L222.472 787.775C221.59 785.788 221.229 783.594 221.435 781.445C223.561 758.717 219.368 645.463 219.324 644.322C218.162 618.201 216.904 481.608 216.89 480.231C216.875 478.516 218.25 477.118 219.957 477.103C221.678 477.11 223.068 478.465 223.083 480.172C223.097 481.549 224.355 618.031 225.51 644.065C225.686 648.761 229.769 758.886 227.599 782.019C227.496 783.116 227.68 784.235 228.136 785.258L229.739 788.872C230.909 791.514 231.144 794.51 230.409 797.307L228.982 802.702C228.614 804.093 227.356 805.006 225.988 805.006Z" fill="#3E3A39"/>
<path d="M178.9 807.273C177.466 807.273 176.179 806.272 175.87 804.808C175.517 803.13 176.591 801.488 178.268 801.135C178.452 801.098 196.943 797.234 215.551 795.688C217.25 795.548 218.758 796.814 218.898 798.522C219.037 800.23 217.772 801.731 216.066 801.871C197.855 803.38 179.724 807.17 179.548 807.207C179.334 807.251 179.121 807.273 178.908 807.273H178.9Z" fill="#3E3A39"/>
</g>
<defs>
<clipPath id="clip0_1_1381">
<rect width="259" height="374" fill="white"/>
</clipPath>
</defs>
</svg>
