<svg width="70" height="71" viewBox="0 0 70 71" fill="none" xmlns="http://www.w3.org/2000/svg">
<circle cx="35" cy="35.6016" r="35" fill="#FFEC3E"/>
<path d="M47.8336 36.457H49.7003C51.2559 36.457 52.5003 37.7015 52.5003 39.2571C52.5003 40.8126 51.2559 42.0571 49.7003 42.0571H47.8336" fill="#FFEC3E"/>
<path d="M47.8336 36.457H49.7003C51.2559 36.457 52.5003 37.7015 52.5003 39.2571C52.5003 40.8126 51.2559 42.0571 49.7003 42.0571H47.8336" stroke="#260004" stroke-width="2" stroke-miterlimit="10" stroke-linecap="round" stroke-linejoin="round"/>
<path d="M47.8336 47.6572H48.3003C49.8559 47.6572 51.1003 46.4127 51.1003 44.8572C51.1003 43.3016 49.8559 42.0571 48.3003 42.0571H47.8336" fill="#FFEC3E"/>
<path d="M47.8336 47.6572H48.3003C49.8559 47.6572 51.1003 46.4127 51.1003 44.8572C51.1003 43.3016 49.8559 42.0571 48.3003 42.0571H47.8336" stroke="#260004" stroke-width="2" stroke-miterlimit="10" stroke-linecap="round" stroke-linejoin="round"/>
<path d="M47.8335 36.4572H48.9224C50.478 36.4572 51.7224 35.2128 51.7224 33.6572C51.7224 32.1016 50.478 30.8572 48.9224 30.8572H39.589L39.7445 30.5461C41.3001 27.9016 42.2334 24.7905 42.389 21.5238C42.5446 20.4349 42.0779 19.5015 41.1445 18.8793C40.5223 18.4126 39.9001 18.4126 39.1223 18.5681C38.3445 18.7237 37.7223 19.1904 37.4112 19.8126C34.2386 25.3645 32.1266 32.3664 26.6777 36.3017H17.5" fill="#FFEC3E"/>
<path d="M47.8335 36.4572H48.9224C50.478 36.4572 51.7224 35.2128 51.7224 33.6572C51.7224 32.1016 50.478 30.8572 48.9224 30.8572H39.589L39.7445 30.5461C41.3001 27.9016 42.2335 24.7905 42.389 21.5238C42.5446 20.4349 42.0779 19.5015 41.1445 18.8793C40.5223 18.4126 39.9001 18.4126 39.1223 18.5681C38.3445 18.7237 37.7223 19.1904 37.4112 19.8126C34.2386 25.3645 32.1266 32.3664 26.6777 36.3017H17.5" stroke="#260004" stroke-width="2" stroke-miterlimit="10" stroke-linecap="round" stroke-linejoin="round"/>
<path d="M47.8337 47.6577H46.7448C48.4559 47.6577 49.7003 49.0577 49.3892 50.7689C49.2337 52.1689 47.9892 53.1022 46.5892 53.1022H36.478C35.8558 53.1022 35.078 53.1022 34.4557 52.9467L26.2112 51.5466H17.5" fill="#FFEC3E"/>
<path d="M47.8337 47.6577H46.7448C48.4559 47.6577 49.7003 49.0577 49.3892 50.7689C49.2337 52.1689 47.9892 53.1022 46.5892 53.1022H36.478C35.8558 53.1022 35.078 53.1022 34.4557 52.9467L26.2112 51.5466H17.5" stroke="#260004" stroke-width="2" stroke-miterlimit="10" stroke-linecap="round" stroke-linejoin="round"/>
<path d="M19.8331 25.1162V29.7829V25.1162Z" fill="#FFEC3E"/>
<path d="M19.8331 25.1162V29.7829" stroke="#260004" stroke-width="2" stroke-miterlimit="10" stroke-linecap="round" stroke-linejoin="round"/>
<path d="M17.5 27.4507H22.1667H17.5Z" fill="#FFEC3E"/>
<path d="M17.5 27.4507H22.1667" stroke="#260004" stroke-width="2" stroke-miterlimit="10" stroke-linecap="round" stroke-linejoin="round"/>
<path d="M28.3107 18.1016V22.7683V18.1016Z" fill="#FFEC3E"/>
<path d="M28.3107 18.1016V22.7683" stroke="#260004" stroke-width="2" stroke-miterlimit="10" stroke-linecap="round" stroke-linejoin="round"/>
<path d="M25.9777 20.4351H30.6444H25.9777Z" fill="#FFEC3E"/>
<path d="M25.9777 20.4351H30.6444" stroke="#260004" stroke-width="2" stroke-miterlimit="10" stroke-linecap="round" stroke-linejoin="round"/>
<path d="M50.1672 21.228V25.8947V21.228Z" fill="#FFEC3E"/>
<path d="M50.1672 21.228V25.8947" stroke="#260004" stroke-width="2" stroke-miterlimit="10" stroke-linecap="round" stroke-linejoin="round"/>
<path d="M47.8336 23.5625H52.5003H47.8336Z" fill="#FFEC3E"/>
<path d="M47.8336 23.5625H52.5003" stroke="#260004" stroke-width="2" stroke-miterlimit="10" stroke-linecap="round" stroke-linejoin="round"/>
</svg>
