<svg width="36" height="38" viewBox="0 0 36 38" fill="none" xmlns="http://www.w3.org/2000/svg">
<path d="M17.9989 1C27.3879 1 35 8.55394 35 17.8711C35 23.4898 32.2221 28.4526 27.9664 31.5189L29.5894 37L23.9903 33.6456C22.1246 34.3444 20.1116 34.7422 18.0011 34.7422C8.61215 34.7422 1.00002 27.1883 1.00002 17.8711C1.00002 8.55394 8.60998 1 17.9989 1Z" fill="white" stroke="#260004" stroke-width="2" stroke-linecap="round" stroke-linejoin="round"/>
<path d="M13.2463 25V22.96C16.9663 19.58 19.4663 16.88 19.4663 14.72C19.4663 13.36 18.7263 12.62 17.5263 12.62C16.5063 12.62 15.7263 13.3 15.0063 14.06L13.0662 12.14C14.5263 10.58 15.8863 9.84 18.0063 9.84C20.8863 9.84 22.8863 11.68 22.8863 14.52C22.8863 17.08 20.6863 19.9 18.4063 22.2C19.1463 22.1 20.1663 22 20.8463 22H23.5663V25H13.2463Z" fill="#260004"/>
</svg>
