<svg width="300" height="173" viewBox="0 0 300 173" fill="none" xmlns="http://www.w3.org/2000/svg">
<g clip-path="url(#clip0_1_2038)">
<path d="M50.1275 63.4965C50.1275 63.4965 33.8449 73.5561 39.1277 94.0499C44.4105 114.544 61.8108 88.5363 61.8108 88.5363L58.6615 66.7235L50.1275 63.4965Z" fill="#A48B78"/>
<path d="M68.2341 147.627L75.8561 95.9204L54.2034 97.046L65.9884 154.905L68.2341 147.627Z" fill="white"/>
<path d="M41.7161 98.4712V97.693L54.2034 97.046L51.4134 83.3578L28.2816 95.3191L25.9591 132.917L28.8446 170.054H42.4474L41.7161 98.4712Z" fill="#CCCCCC"/>
<path d="M41.7161 98.4712L42.4474 170.054H66.0237L65.7433 155.706L65.9884 154.905L54.2034 97.046L41.7161 97.6931V98.4712Z" fill="#CCCCCC"/>
<path d="M89.3571 170.054H98.8612L94.8393 114.082L97.8225 93.02L98.2462 93.1865L97.3633 91.9922L77.7091 83.3578L75.8561 95.9204L86.7188 95.3565L89.3571 170.054Z" fill="#CCCCCC"/>
<path d="M65.9884 154.905L66.1525 155.706L66.435 170.054H89.357L86.7187 95.3566L75.856 95.9204L68.2341 147.627L65.9884 154.905Z" fill="#CCCCCC"/>
<path d="M66.1525 155.706L65.9884 154.905L65.7433 155.706L66.0237 170.054H66.4351L66.1525 155.706Z" fill="#CCCCCC"/>
<path d="M104.684 170.054H120.557C119.992 160.881 118.692 124.666 118.673 119.013C118.673 118.516 118.669 118.018 118.611 117.525C116.664 101.028 105.5 96.0536 105.5 96.0536L98.2462 93.1886L103.431 100.196C103.431 100.196 104.308 150.03 104.684 170.054Z" fill="#CCCCCC"/>
<path d="M94.8394 114.082L98.8612 170.052H104.684C104.308 150.028 103.431 100.194 103.431 100.194L98.2463 93.1865L97.8204 93.0179L94.8394 114.08V114.082Z" fill="#CCCCCC"/>
<path d="M42.4515 170.447L42.4474 170.054H28.8446L28.8758 170.447H42.4515Z" fill="#CCCCCC"/>
<path d="M66.0237 170.054H42.4474L42.4515 170.447H66.0321L66.0237 170.054Z" fill="#CCCCCC"/>
<path d="M98.8902 170.447L98.8611 170.054H89.3571L89.3716 170.447H98.8902Z" fill="#CCCCCC"/>
<path d="M89.3716 170.447L89.357 170.054H66.4351L66.4413 170.447H89.3716Z" fill="#CCCCCC"/>
<path d="M66.4414 170.447L66.4351 170.054H66.0238L66.0321 170.447H66.4414Z" fill="#CCCCCC"/>
<path d="M104.69 170.447H120.582C120.574 170.322 120.566 170.189 120.557 170.052H104.684C104.686 170.185 104.688 170.316 104.692 170.447H104.69Z" fill="#CCCCCC"/>
<path d="M104.69 170.447C104.688 170.318 104.686 170.185 104.682 170.052H98.859L98.8881 170.447H104.69Z" fill="#CCCCCC"/>
<path d="M53.8315 71.8229L53.9208 82.0636L51.0852 82.7314L57.7765 112.542L74.566 111.471L79.1093 82.8084L76.4585 81.7203L75.7335 64.5076L53.8315 71.8229Z" fill="white"/>
<path d="M39.9795 28.1347C39.9795 28.1347 38.2407 42.289 40.6089 46.344C40.6089 46.344 35.4882 38.4524 34.5159 46.344C34.5159 46.344 35.8351 61.2473 44.5851 60.5149C44.5851 60.5149 51.0271 76.2567 64.7026 75.6887C64.7026 75.6887 80.2581 74.149 83.4594 58.1472C83.4594 58.1472 87.9673 63.9021 92.3049 54.3814C92.3049 54.3814 100.232 42.4783 88.1439 43.9534L88.9354 29.2978L72.3204 17.8046L49.9884 16.9849L39.9816 28.1347H39.9795Z" fill="white"/>
<path d="M68.4003 25.7775C68.4003 25.7775 65.6831 34.9008 57.9011 37.358L50.2896 38.5086C50.2896 38.5086 49.5168 42.8279 45.1418 43.5956L41.0638 44.6484L34.5097 45.5389C34.5097 45.5389 30.0661 34.1081 33.9114 27.4794C33.9114 27.4794 46.9346 -0.535745 70.8391 12.0081L76.4606 13.2065C76.4606 13.2065 88.765 15.1727 91.4303 28.1972L91.6172 43.9493L86.9493 44.4299L73.278 25.2303L68.4003 25.7775Z" fill="#A48B78"/>
<path d="M53.7443 68.365L53.036 82.3882L52.6309 89.0211L65.6561 132.1L79.5684 83.57L76.0971 79.8707L75.1851 65.0111L53.7443 68.365Z" fill="white"/>
<path d="M41.041 106.388C40.9663 106.388 40.8915 106.382 40.8146 106.369C40.0647 106.244 39.5557 105.535 39.6803 104.782L42.3228 88.7964C42.4474 88.0453 43.1537 87.5356 43.9078 87.6604C44.6578 87.7852 45.1667 88.4947 45.0421 89.2479L42.3997 105.233C42.2875 105.909 41.7037 106.388 41.041 106.388Z" fill="#260004"/>
<path d="M61.8108 169.259C61.3351 169.259 60.8739 169.013 60.6184 168.57C48.8333 148.224 34.1295 110.362 33.982 109.981C33.8449 109.629 33.8595 109.238 34.0194 108.897C34.1794 108.556 34.4723 108.294 34.8275 108.175L48.8728 103.45C49.5937 103.209 50.3748 103.596 50.6178 104.32C50.8609 105.042 50.4724 105.826 49.7495 106.067L37.0774 110.33C39.805 117.255 52.5768 149.194 62.9991 167.187C63.3813 167.846 63.157 168.691 62.4984 169.074C62.2803 169.201 62.0435 169.261 61.8088 169.261L61.8108 169.259Z" fill="#260004"/>
<path d="M71.0219 169.921C70.7789 169.921 70.5317 169.856 70.3094 169.721C69.6592 169.326 69.4494 168.477 69.8441 167.825C76.9425 156.08 88.5074 116.295 90.8756 108.004L79.3752 106.373C78.6211 106.267 78.0976 105.568 78.2035 104.813C78.3095 104.057 79.0054 103.533 79.7616 103.639L92.8263 105.493C93.2189 105.549 93.57 105.772 93.786 106.105C94.0042 106.438 94.0665 106.85 93.9585 107.232C93.4038 109.211 80.2913 155.864 72.1998 169.255C71.9402 169.683 71.4852 169.921 71.0199 169.921H71.0219Z" fill="#260004"/>
<path d="M88.3059 103.843C87.6661 103.843 87.0927 103.394 86.9577 102.743L83.4219 85.6276C83.2682 84.8807 83.746 84.1504 84.4918 83.9965C85.2376 83.8425 85.9668 84.321 86.1205 85.068L89.6562 102.183C89.8099 102.93 89.3321 103.66 88.5863 103.814C88.4929 103.833 88.3973 103.843 88.3059 103.843Z" fill="#260004"/>
<path d="M65.2905 103.641C62.1868 103.641 59.6607 103.317 59.4821 103.294C58.728 103.194 58.1961 102.501 58.2938 101.746C58.3935 100.991 59.0853 100.456 59.8394 100.556C59.9308 100.568 66.836 101.444 71.479 100.246C72.2144 100.054 72.9685 100.5 73.1575 101.238C73.3487 101.977 72.9041 102.73 72.1666 102.919C70.0124 103.477 67.505 103.641 65.2884 103.641H65.2905Z" fill="#260004"/>
<path d="M105.058 172.249C104.31 172.249 103.697 171.652 103.681 170.898L102.463 116.572C102.447 115.811 103.049 115.178 103.809 115.162C103.82 115.162 103.83 115.162 103.841 115.162C104.589 115.162 105.201 115.759 105.218 116.512L106.435 170.838C106.452 171.6 105.849 172.232 105.089 172.249C105.079 172.249 105.068 172.249 105.058 172.249Z" fill="#260004"/>
<path d="M29.9062 171.433C29.1687 171.433 28.558 170.849 28.5289 170.106L28.1591 160.379C28.13 159.617 28.7242 158.977 29.4845 158.948C30.249 158.925 30.8846 159.513 30.9137 160.275L31.2835 170.002C31.3126 170.763 30.7185 171.404 29.9581 171.433C29.9394 171.433 29.9228 171.433 29.9041 171.433H29.9062Z" fill="#260004"/>
<path d="M54.7954 74.2552C54.7954 74.2552 64.447 80.137 73.6582 74.0346L75.7335 72.7738V81.3479C75.7335 81.3479 58.8816 81.8244 54.3405 76.7997L54.7975 74.2552H54.7954Z" fill="#DCDDDD"/>
<path d="M76.4585 83.0998C75.8104 83.0998 75.2329 82.64 75.1061 81.9804C74.3645 78.1147 74.3541 71.3216 74.3541 71.0345C74.3541 70.273 74.9711 69.655 75.7314 69.655C76.4918 69.655 77.1087 70.273 77.1087 71.0345C77.1087 71.1031 77.1171 77.8525 77.8109 81.4582C77.9542 82.2072 77.4661 82.9313 76.7182 83.0748C76.6309 83.0915 76.5437 83.0998 76.4564 83.0998H76.4585Z" fill="#260004"/>
<path d="M64.152 77.0682C58.0403 77.0682 52.3483 72.4867 51.6378 71.8937C46.2324 68.2527 43.9099 61.6864 42.9127 56.8074C42.7611 56.0605 43.241 55.3302 43.9868 55.1783C44.7325 55.0264 45.4596 55.507 45.6134 56.254C46.3488 59.8471 48.316 66.3656 53.2312 69.6405L53.2997 69.6862L53.362 69.7403C53.4161 69.7861 58.7882 74.3093 64.15 74.3093C64.2601 74.3093 64.3702 74.3093 64.4803 74.3031H64.501C69.975 74.1949 75.8831 68.5939 75.9433 68.5377L76.0036 68.4795L76.0721 68.4296C83.2329 63.072 83.0896 51.454 83.0875 51.3375C83.0729 50.576 83.6775 49.9456 84.4378 49.931C85.2002 49.9165 85.8276 50.5219 85.8421 51.2834C85.8525 51.8161 86.0021 64.3766 77.786 70.5913C77.0527 71.282 70.8516 76.9329 64.5654 77.064C64.4283 77.0682 64.2891 77.0702 64.152 77.0702V77.0682Z" fill="#260004"/>
<path d="M86.2285 61.5115C85.2334 61.5115 83.8852 61.1225 82.6741 59.4621C82.2254 58.8463 82.3583 57.9828 82.9732 57.5334C83.5881 57.084 84.4503 57.2172 84.899 57.833C85.6011 58.7964 86.1288 58.761 86.3012 58.7485C87.7533 58.6507 89.8577 55.9647 90.8216 54.1816L90.8611 54.113C94.3366 48.487 92.28 45.7594 91.8063 45.2476C89.3134 43.9555 88.0961 45.5056 87.8717 45.8364L86.7188 45.079L85.5575 44.3363C86.4882 42.8778 89.301 40.7015 93.2958 42.9152L93.4163 42.9818L93.5202 43.0713C93.7175 43.2398 98.3023 47.2845 93.2231 55.534C92.8201 56.2705 89.9616 61.2702 86.484 61.5053C86.4009 61.5115 86.3137 61.5136 86.2244 61.5136L86.2285 61.5115Z" fill="#260004"/>
<path d="M41.9031 61.5116C41.8138 61.5116 41.7266 61.5095 41.6435 61.5032C38.1659 61.2681 35.3074 56.2706 34.9044 55.532C29.8252 47.2824 34.41 43.2378 34.6073 43.0692L34.7112 42.9798L34.8317 42.9132C38.8265 40.6995 41.6393 42.8737 42.57 44.3342L40.2454 45.8198L40.2558 45.8343C40.0335 45.5056 38.8141 43.9556 36.3212 45.2455C35.8475 45.7594 33.7909 48.4871 37.2664 54.113L37.3059 54.1817C38.303 56.0188 40.3659 58.6508 41.8263 58.7486C41.9987 58.759 42.5264 58.7964 43.2285 57.8331C43.6772 57.2172 44.5394 57.0841 45.1543 57.5335C45.7692 57.9829 45.9021 58.8463 45.4534 59.4622C44.2423 61.1246 42.8941 61.5116 41.899 61.5116H41.9031Z" fill="#260004"/>
<path d="M77.6614 40.5205C77.4246 40.5205 77.1857 40.4602 76.9675 40.3312C74.7676 39.0454 72.9769 39.2638 72.9021 39.2722C72.1501 39.3866 71.4541 38.8664 71.3399 38.1133C71.2256 37.3601 71.7491 36.6548 72.5032 36.5403C72.6154 36.5237 75.2786 36.145 78.3594 37.9468C79.0159 38.3317 79.2381 39.1764 78.8559 39.8339C78.6004 40.2729 78.1392 40.5184 77.6635 40.5184L77.6614 40.5205Z" fill="#260004"/>
<path d="M64.9809 57.3109C64.9809 57.3109 64.9663 57.3109 64.9601 57.3109L64.0689 57.2963C63.3086 57.2839 62.6999 56.6576 62.7123 55.894C62.7248 55.1388 63.3397 54.5354 64.0897 54.5354C64.0959 54.5354 64.1042 54.5354 64.1104 54.5354L65.0016 54.55C65.762 54.5624 66.3706 55.1887 66.3582 55.9523C66.3457 56.7075 65.7308 57.3109 64.9809 57.3109Z" fill="#260004"/>
<path d="M74.2232 48.7284C73.0183 48.7617 72.0045 47.8005 71.9713 46.5937C71.9381 45.387 72.8978 44.3717 74.1027 44.3384C75.3076 44.3051 76.3214 45.2663 76.3546 46.473C76.3878 47.6798 75.4281 48.6951 74.2232 48.7284Z" fill="#260004"/>
<path d="M53.9229 49.286C52.718 49.3193 51.7042 48.3581 51.671 47.1513C51.6378 45.9446 52.5975 44.9293 53.8024 44.896C55.0073 44.8627 56.0211 45.8239 56.0543 47.0307C56.0875 48.2374 55.1278 49.2527 53.9229 49.286Z" fill="#260004"/>
<path d="M53.7443 82.7294C53.7007 82.7294 53.655 82.7273 53.6093 82.7231C52.851 82.6503 52.2963 81.9741 52.3711 81.2147C52.7534 77.2845 52.3711 72.4117 52.3711 72.3618C52.3109 71.6024 52.8759 70.9366 53.6363 70.8763C54.3904 70.8139 55.0593 71.3819 55.1195 72.1433C55.1361 72.3514 55.5225 77.3095 55.1195 81.4831C55.051 82.1968 54.4506 82.7294 53.7485 82.7294H53.7443Z" fill="#260004"/>
<path d="M64.6964 69.9213C62.4694 69.9213 58.5099 68.3006 57.3299 61.9381C57.224 61.3639 57.4961 60.7876 58.0071 60.5046C58.2066 60.3943 62.9991 57.8248 71.1716 59.9137C71.8052 60.076 72.2331 60.671 72.1854 61.3243C71.9672 64.3183 70.2015 69.913 65.0911 69.913C65.0557 69.913 65.0204 69.913 64.9851 69.913C64.8937 69.9193 64.7982 69.9213 64.6984 69.9213H64.6964ZM60.232 62.5124C61.4889 67.2062 64.4325 67.229 64.8376 67.2062C64.8958 67.1999 64.9207 67.1999 64.983 67.202C65.5813 67.2166 67.3928 67.2623 68.6372 64.4535C68.982 63.6775 69.1918 62.8827 69.3186 62.2648C64.8293 61.3472 61.6924 62.0317 60.2341 62.5144L60.232 62.5124Z" fill="#260004"/>
<path d="M56.9311 39.1599C56.3805 39.1599 55.8633 38.8291 55.6493 38.286C55.3709 37.5765 55.7179 36.7755 56.4262 36.4967C63.9194 33.5381 67.0812 25.3739 67.1124 25.2927C67.3824 24.5812 68.176 24.2192 68.8885 24.4896C69.6011 24.758 69.9605 25.5528 69.6925 26.2644C69.5492 26.6451 66.0924 35.6499 57.4379 39.0662C57.2717 39.1328 57.1014 39.1619 56.9331 39.1619L56.9311 39.1599Z" fill="#260004"/>
<path d="M45.1418 44.975C44.639 44.975 44.155 44.6983 43.9119 44.2197C43.5671 43.5394 43.8392 42.7092 44.5185 42.3638C51.7022 38.7145 54.085 30.2902 54.1078 30.2049C54.3093 29.4704 55.0676 29.0377 55.7988 29.2374C56.5321 29.4372 56.9663 30.1945 56.7669 30.9289C56.6609 31.3222 54.0621 40.6099 45.765 44.8252C45.5656 44.9271 45.3516 44.975 45.1418 44.975Z" fill="#260004"/>
<path d="M85.6552 41.8812C85.4038 41.8812 85.1483 41.8125 84.9219 41.6689C75.4199 35.6623 72.1085 26.077 71.9735 25.6713C71.7304 24.9493 72.1189 24.165 72.8397 23.9236C73.5606 23.6802 74.3417 24.0672 74.5847 24.7891C74.6284 24.914 77.7632 33.8792 86.3927 39.3345C87.0366 39.7423 87.2298 40.5933 86.8227 41.2383C86.5609 41.6544 86.1122 41.8812 85.6552 41.8812Z" fill="#260004"/>
<path d="M33.2923 41.8812C32.7335 41.8812 32.2079 41.5379 32.0002 40.9823C30.0578 35.7601 30.7912 29.8512 34.1192 23.8986C36.5082 19.623 39.3978 16.7934 39.6783 16.523C48.3992 7.65757 56.7087 6.64849 62.1453 7.36213C68.0659 8.14027 71.8758 11.0427 72.0358 11.1654C72.6382 11.6315 72.7483 12.4991 72.285 13.1025C71.8197 13.7058 70.9555 13.8161 70.3531 13.3521C70.2866 13.3022 66.8568 10.7306 61.6592 10.0835C54.6978 9.21385 47.9567 12.0372 41.6289 18.4745L41.5957 18.5078C41.4856 18.6119 30.5647 29.2125 34.5824 40.0211C34.8483 40.7348 34.4848 41.5295 33.7722 41.7959C33.6143 41.8541 33.4502 41.8832 33.2923 41.8832V41.8812Z" fill="#260004"/>
<path d="M91.9808 40.5205C91.9392 40.5205 91.8977 40.5205 91.854 40.5143C91.0958 40.4456 90.537 39.7736 90.6076 39.0142C91.3388 30.9748 89.8535 24.708 86.1931 20.3908C81.7143 15.104 75.3886 14.5881 75.3263 14.5839C74.568 14.5298 73.9968 13.8703 74.0487 13.1108C74.1006 12.3514 74.7529 11.7751 75.5132 11.8292C75.8165 11.85 83.0064 12.3993 88.2601 18.5661C92.4419 23.4722 94.1537 30.438 93.3518 39.2659C93.2874 39.9816 92.685 40.5205 91.9808 40.5205Z" fill="#260004"/>
<path d="M32.5611 94.3994C32.077 94.3994 31.6055 94.1435 31.3541 93.6878C30.9843 93.022 31.2253 92.1815 31.8901 91.8111L50.4163 81.5226C51.0831 81.1523 51.9203 81.3936 52.2901 82.0594C52.6599 82.7252 52.4189 83.5658 51.7541 83.9361L33.2279 94.2246C33.016 94.3411 32.7875 94.3973 32.5611 94.3973V94.3994Z" fill="#260004"/>
<path d="M66.863 152.163C66.7841 152.163 66.7031 152.157 66.6221 152.142C65.8721 152.009 65.3715 151.293 65.5044 150.542L76.8761 86.0834C77.009 85.3323 77.7237 84.8329 78.4736 84.964C79.2235 85.0972 79.7242 85.8129 79.5912 86.564L68.2196 151.023C68.1012 151.693 67.5195 152.163 66.8651 152.163H66.863Z" fill="#260004"/>
<path d="M38.5128 89.9178C37.8211 89.9178 37.2248 89.3977 37.1459 88.6924C35.4424 73.6331 43.9431 66.4966 44.3067 66.2012C44.8967 65.7185 45.765 65.808 46.2449 66.3989C46.7248 66.9877 46.6375 67.8553 46.0517 68.338C46.0164 68.3671 44.0906 69.9941 42.3809 73.2482C40.0833 77.6236 39.2441 82.7169 39.8839 88.3823C39.9691 89.1397 39.4269 89.8242 38.6686 89.9095C38.6167 89.9157 38.5627 89.9178 38.5128 89.9178Z" fill="#260004"/>
<path d="M18.5221 102.462C26.117 107.996 35.2659 107.921 35.2659 107.921L34.7133 115.328C34.5907 116.231 33.847 116.913 32.9454 116.953C29.5987 117.101 21.6776 116.826 17.1925 111.512C16.6981 110.928 16.5278 110.131 16.7355 109.392L18.5221 102.462Z" fill="white"/>
<path d="M12.4415 106.309C12.4415 106.309 28.8717 117.315 39.323 112.467L26.7049 160.504C26.7049 160.504 9.11563 175.615 1.87383 155.373L0.324097 148.871L12.4395 106.309H12.4415Z" fill="#CCCCCC"/>
<path d="M19.7623 105.41L23.3956 78.5432L35.2866 75.7074C35.2866 75.7074 38.5585 75.9425 38.5793 79.3568C38.5793 79.3568 42.3789 79.1362 42.3726 84.2316C42.3726 84.2316 45.9707 83.7468 44.6017 88.8484C44.6017 88.8484 47.3771 90.6315 45.6341 93.6109L42.0174 95.4189L37.1459 100.957L35.3552 107.559C26.842 112.519 22.5065 108.123 19.7643 105.412L19.7623 105.41Z" fill="white"/>
<path d="M32.1768 108.841C32.1622 108.841 32.1477 108.841 32.1332 108.841C31.8839 108.832 25.9903 108.593 20.7366 105.162C20.1528 104.782 19.9866 103.997 20.3689 103.41C20.7511 102.826 21.5322 102.659 22.118 103.042C26.7631 106.076 32.1685 106.309 32.2225 106.311C32.9184 106.336 33.4648 106.923 33.4398 107.62C33.4149 108.302 32.8561 108.841 32.1789 108.841H32.1768Z" fill="#260004"/>
<path d="M20.3564 101.461C20.3024 101.461 20.2463 101.457 20.1902 101.451C19.4984 101.359 19.0102 100.724 19.1016 100.032L21.5447 81.3957C21.9269 79.2382 23.5244 77.4593 25.6184 76.8663L33.579 74.6109C35.1391 74.1699 36.7969 74.5111 38.0163 75.5243C38.6749 76.0715 39.1464 76.7123 39.4165 77.4281C39.6637 78.0814 39.3355 78.8117 38.6832 79.0592C38.0309 79.3068 37.3017 78.9781 37.0545 78.3248C36.9402 78.0231 36.7221 77.7381 36.4043 77.4738C35.8247 76.9932 35.027 76.833 34.2687 77.0494L26.3081 79.3048C25.1489 79.6335 24.2619 80.6155 24.0396 81.8139L21.6111 100.362C21.528 100.999 20.9838 101.463 20.3605 101.463L20.3564 101.461Z" fill="#260004"/>
<path d="M29.5364 83.9964C29.015 83.9964 28.5268 83.6698 28.344 83.1475C28.1134 82.488 28.4603 81.766 29.1188 81.5351L38.2802 78.3289C39.699 77.8316 41.2446 78.1104 42.3145 79.055C43.187 79.8248 43.6191 80.8818 43.565 82.1093C43.5339 82.8063 42.9501 83.3431 42.248 83.3181C41.55 83.2869 41.0099 82.6961 41.041 81.9991C41.0618 81.5372 40.9392 81.2147 40.6442 80.9525C40.2578 80.6113 39.672 80.5218 39.1153 80.7174L29.954 83.9236C29.8168 83.9715 29.6756 83.9943 29.5364 83.9943V83.9964Z" fill="#260004"/>
<path d="M45.2208 89.3498C45.092 89.3498 44.9632 89.3311 44.8344 89.2895C44.1696 89.0773 43.804 88.3636 44.0159 87.6978C44.4417 86.3683 43.966 85.9501 43.7874 85.792C43.403 85.4508 42.8172 85.3613 42.2584 85.5569L33.0971 88.7631C32.4385 88.994 31.7177 88.6466 31.4871 87.987C31.2565 87.3275 31.6034 86.6055 32.262 86.3746L41.4233 83.1684C42.8421 82.6711 44.3877 82.9499 45.4576 83.8945C46.1639 84.5187 47.2275 85.9418 46.4194 88.4697C46.247 89.0065 45.7505 89.3498 45.2166 89.3498H45.2208Z" fill="#260004"/>
<path d="M44.1529 96.584C43.7977 96.584 43.4445 96.4342 43.1953 96.145C42.7403 95.6166 42.7985 94.8176 43.3282 94.3599C44.4064 93.4299 44.9797 92.4894 44.9839 91.6426C44.9881 91.0476 44.7035 90.6627 44.6037 90.5732C44.2568 90.2674 43.7292 90.1862 43.2243 90.3631L34.5554 93.3987C33.8968 93.6275 33.176 93.2821 32.9454 92.6226C32.7148 91.9631 33.0617 91.2411 33.7223 91.0101L42.3913 87.9746C43.7562 87.496 45.2456 87.7644 46.276 88.6757C46.8785 89.2084 47.5204 90.2715 47.5121 91.6572C47.5059 92.7724 47.0613 94.4806 44.9797 96.2761C44.7408 96.4821 44.4479 96.582 44.155 96.582L44.1529 96.584Z" fill="#260004"/>
<path d="M35.5235 106.026C35.3573 106.026 35.1911 105.992 35.029 105.924C34.3871 105.649 34.088 104.906 34.3622 104.264L35.9805 100.458C36.3066 99.6758 36.9257 99.2535 37.3786 98.9476C37.5635 98.8228 37.7359 98.7042 37.8501 98.5918C39.4767 96.9544 40.3679 94.982 40.3783 94.9633C40.6629 94.3266 41.4108 94.0395 42.0465 94.3225C42.6822 94.6054 42.9709 95.3524 42.6884 95.989C42.6448 96.0868 41.6102 98.3963 39.6429 100.375C39.3583 100.662 39.0613 100.864 38.7995 101.041C38.5897 101.182 38.3508 101.344 38.3113 101.44L36.6889 105.254C36.4853 105.735 36.0179 106.024 35.5255 106.024L35.5235 106.026Z" fill="#260004"/>
<path d="M33.6372 114.205C19.7602 114.205 13.9331 107.153 13.6672 106.823C13.2309 106.278 13.3161 105.481 13.8604 105.044C14.4026 104.607 15.1961 104.692 15.6345 105.235C15.6656 105.273 17.3026 107.237 20.8446 108.968C24.1393 110.578 29.8085 112.313 38.1015 111.429C38.7974 111.356 39.4186 111.858 39.4913 112.553C39.566 113.247 39.0633 113.872 38.3695 113.944C36.6992 114.123 35.1225 114.202 33.6372 114.202V114.205Z" fill="#260004"/>
<path d="M17.3899 108.125C17.286 108.125 17.1801 108.113 17.0721 108.086C16.3969 107.911 15.9897 107.22 16.1642 106.544L17.2985 102.145C17.473 101.469 18.1606 101.061 18.8378 101.236C19.513 101.411 19.9202 102.102 19.7457 102.778L18.6114 107.176C18.4639 107.746 17.9508 108.125 17.3899 108.125Z" fill="#260004"/>
<path d="M13.8812 166.496C12.105 166.496 10.387 166.04 8.85593 165.158C2.5365 161.513 0.695926 155.375 0.159958 152.04C-0.124645 150.272 -0.0332395 148.488 0.43002 146.739L10.925 107.056C11.1037 106.379 11.7954 105.978 12.4706 106.157C13.1458 106.336 13.5467 107.029 13.368 107.705L2.87304 147.388C2.50118 148.794 2.42847 150.224 2.65491 151.641C3.22204 155.171 4.97744 160 10.1169 162.967C11.5005 163.766 13.0938 164.095 14.7267 163.922C18.493 163.523 25.1199 161.983 27.1848 156.158C27.218 156.066 27.2492 155.958 27.2824 155.831L37.8439 115.528C38.0205 114.852 38.7123 114.448 39.3874 114.625C40.0626 114.802 40.4656 115.494 40.289 116.171L29.7275 156.474C29.6756 156.671 29.6237 156.844 29.5655 157.004C27.0373 164.137 19.3489 165.976 14.9905 166.438C14.6186 166.477 14.2468 166.496 13.8791 166.496H13.8812Z" fill="#260004"/>
<path d="M34.4723 114.194C34.4058 114.194 34.3393 114.19 34.2729 114.177C33.5832 114.067 33.1137 113.418 33.2238 112.729L34.0194 107.721C34.1295 107.031 34.7756 106.56 35.4653 106.671C36.155 106.781 36.6245 107.43 36.5144 108.119L35.7187 113.127C35.619 113.749 35.083 114.194 34.4723 114.194Z" fill="#260004"/>
<path d="M120.584 171.872C119.855 171.872 119.232 171.313 119.168 170.57L119.091 169.69C119.091 169.69 119.091 169.675 119.091 169.667C118.922 167.299 118.74 162.264 118.509 155.887C117.932 139.948 117.061 115.859 115.518 110.37C112.879 100.993 105.006 97.3871 104.925 97.3518C104.9 97.3414 104.873 97.3268 104.848 97.3143L78.4569 83.6844C77.7589 83.3244 77.4847 82.4631 77.8441 81.764C78.2035 81.0649 79.0614 80.7903 79.7615 81.1502L106.117 94.7635C106.894 95.1172 115.32 99.1598 118.256 109.596C119.893 115.413 120.736 138.745 121.353 155.783C121.582 162.12 121.764 167.128 121.928 169.452L122.003 170.32C122.072 171.104 121.492 171.795 120.709 171.864C120.668 171.868 120.626 171.87 120.584 171.87V171.872Z" fill="#260004"/>
<path d="M66.8153 171.427C66.8153 171.427 66.7966 171.427 66.7862 171.427C66.0259 171.412 65.4214 170.782 65.4359 170.018L65.5876 162.472C65.546 160.774 64.6195 152.148 64.3037 150.555L51.5028 85.6131C51.3553 84.8662 51.8414 84.1401 52.5872 83.9923C53.3351 83.8425 54.058 84.3315 54.2055 85.0784L67.0064 150.02C67.3471 151.745 68.3069 160.685 68.3422 162.445C68.3422 162.464 68.3422 162.483 68.3422 162.499L68.1905 170.075C68.176 170.828 67.5611 171.427 66.8132 171.427H66.8153Z" fill="#260004"/>
<path d="M43.6469 62.3964C43.8869 60.9092 42.8777 59.5088 41.3928 59.2685C39.908 59.0281 38.5097 60.0389 38.2698 61.526C38.0298 63.0132 39.039 64.4136 40.5238 64.6539C42.0087 64.8942 43.407 63.8835 43.6469 62.3964Z" fill="white"/>
<path d="M40.96 66.0409C38.7123 66.0409 36.8842 64.21 36.8842 61.9588C36.8842 59.7076 38.7123 57.8767 40.96 57.8767C43.2077 57.8767 45.0359 59.7076 45.0359 61.9588C45.0359 64.21 43.2077 66.0409 40.96 66.0409ZM40.96 60.5856C40.2038 60.5856 39.5889 61.2015 39.5889 61.9588C39.5889 62.7162 40.2038 63.332 40.96 63.332C41.7162 63.332 42.3311 62.7162 42.3311 61.9588C42.3311 61.2015 41.7162 60.5856 40.96 60.5856Z" fill="#260004"/>
<path d="M87.1862 64.6574C88.6904 64.6574 89.9097 63.4362 89.9097 61.9298C89.9097 60.4234 88.6904 59.2021 87.1862 59.2021C85.6821 59.2021 84.4628 60.4234 84.4628 61.9298C84.4628 63.4362 85.6821 64.6574 87.1862 64.6574Z" fill="white"/>
<path d="M87.1862 66.0119C84.9385 66.0119 83.1104 64.181 83.1104 61.9298C83.1104 59.6786 84.9385 57.8477 87.1862 57.8477C89.4339 57.8477 91.262 59.6786 91.262 61.9298C91.262 64.181 89.4339 66.0119 87.1862 66.0119ZM87.1862 60.5566C86.43 60.5566 85.8151 61.1724 85.8151 61.9298C85.8151 62.6871 86.43 63.303 87.1862 63.303C87.9424 63.303 88.5573 62.6871 88.5573 61.9298C88.5573 61.1724 87.9424 60.5566 87.1862 60.5566Z" fill="#260004"/>
</g>
<g clip-path="url(#clip1_1_2038)">
<path d="M249.217 75.8884L245.326 74.3737L232.602 76.9097L218.806 73.7712L212.757 76.1141L232.621 145.735L249.217 75.8884Z" fill="white"/>
<path d="M189.667 124.693L188.326 126.003L193.074 169.084L192.852 170.763H217.09L212.757 76.1141L190.913 85.2925L200.283 81.695L189.667 124.693Z" fill="#CCCCCC"/>
<path d="M250.421 170.763H272.034L271.385 162.952L274.004 86.5414L249.288 75.592L249.218 75.8885L250.421 76.3571V170.763Z" fill="#CCCCCC"/>
<path d="M250.421 170.763V76.357L249.217 75.8884L232.621 145.735L212.757 76.1141L217.09 170.763H250.421Z" fill="#CCCCCC"/>
<path d="M191.435 170.451L167.012 146.829L188.326 126.001L184.153 88.1307L190.912 85.2905L182.981 88.3353L174.603 95.3123L142.011 143.281C136.673 152.201 142.531 162.439 142.531 162.439L153.279 170.763H191.289L191.435 170.451Z" fill="#CCCCCC"/>
<path d="M188.326 126.003L189.667 124.693L200.283 81.6949L190.912 85.2925L184.151 88.1326L188.326 126.003Z" fill="#CCCCCC"/>
<path d="M220.287 57.48L220.731 69.5616L215.781 84.688L237.1 98.4202L246.149 76.3569L243.583 71.0152V54.8502L220.287 57.48Z" fill="white"/>
<path d="M258.489 40.3818C255.986 37.3007 252.588 39.3509 252.588 39.3509L252.439 23.4518L242.686 18.2688L231.504 18.4122L229.973 18.4314L218.791 18.5748L209.173 24.0084L209.447 40.6228C209.447 40.6228 206.25 37.5512 203.826 40.6955C203.826 40.6955 200.671 47.5921 209.954 53.8366C209.954 53.8366 212.468 53.2055 213.07 52.1096C213.07 52.1096 217.721 68.9612 231.379 68.045C245.056 68.6092 249.468 51.9203 249.468 51.9203C250.099 52.9989 252.433 53.2897 252.433 53.2897C262.384 46.8673 258.491 40.3799 258.491 40.3799L258.489 40.3818Z" fill="white"/>
<path d="M217.098 7.74199C217.098 7.74199 196.43 10.433 205.783 35.8375L207.094 39.3585L209.434 39.8328L214.785 28.0266C214.785 28.0266 221.349 26.4334 223.424 24.54L228.529 25.8845C228.529 25.8845 237.566 21.1739 239.045 19.1083L242.057 22.461C242.057 22.461 246.003 29.155 250.327 29.5987L253.752 38.6336H256.627V30.687L257.178 23.7884C257.178 23.7884 254.553 6.11823 240.084 2.22426C240.084 2.22426 227.241 -1.54348 220.991 5.17343L217.1 7.7439L217.098 7.74199Z" fill="#898989"/>
<path d="M276.396 86.5413C276.396 86.5413 283.799 90.8828 285.914 95.6968L286.761 101.524L288.699 125.741L268.175 125.255L276.394 86.5394L276.396 86.5413Z" fill="#CCCCCC"/>
<path d="M220.287 64.2371C220.287 64.2371 234.125 71.5124 242.016 63.363L242.053 68.9095C242.053 68.9095 232.914 76.2843 221.318 69.4832L220.285 64.2352L220.287 64.2371Z" fill="#DCDDDD"/>
<path d="M231.15 69.2997C225.525 69.2997 220.857 65.9335 220.304 65.5204C212.527 60.5076 211.163 49.4148 211.108 48.9443C211.025 48.2367 211.534 47.5959 212.242 47.5156C212.952 47.4353 213.591 47.9421 213.671 48.6498C213.683 48.753 214.963 59.0445 221.739 63.3765C221.77 63.3956 221.8 63.4185 221.831 63.4415C221.873 63.474 226.311 66.8172 231.381 66.7196C231.387 66.7196 231.395 66.7196 231.4 66.7196C236.466 66.6909 240.821 63.2292 240.863 63.1948C240.891 63.1718 240.922 63.1489 240.951 63.1297C247.61 58.6238 248.624 48.3017 248.634 48.1984C248.699 47.4888 249.323 46.9667 250.034 47.0298C250.744 47.0929 251.266 47.7203 251.203 48.4298C251.161 48.9022 250.084 60.0257 242.439 65.2374C241.888 65.6715 237.168 69.2633 231.423 69.2997C231.331 69.2997 231.242 69.3016 231.15 69.3016V69.2997Z" fill="#260004"/>
<path d="M238.374 32.4504C237.895 32.4504 237.438 32.1808 237.214 31.7217C236.903 31.081 237.176 30.3065 237.817 29.9947C238.039 29.8876 240.076 28.9581 243.046 29.6428C243.74 29.8034 244.172 30.4958 244.014 31.1901C243.853 31.8843 243.162 32.3165 242.466 32.1578C240.377 31.6758 238.992 32.2955 238.932 32.3223C238.751 32.4103 238.561 32.4523 238.372 32.4523L238.374 32.4504Z" fill="#260004"/>
<path d="M224.335 32.9457C224.167 32.9457 223.996 32.9132 223.834 32.8444C223.752 32.8118 222.347 32.2668 220.298 32.8348C219.612 33.0241 218.9 32.6225 218.71 31.9359C218.521 31.2493 218.923 30.5378 219.61 30.3485C222.546 29.5356 224.622 30.3752 224.848 30.4728C225.502 30.7558 225.802 31.5151 225.519 32.1692C225.309 32.655 224.832 32.9457 224.335 32.9457Z" fill="#260004"/>
<path d="M231.609 56.8891C227.813 56.8891 225.177 55.3609 225.012 55.2634C224.4 54.9 224.199 54.1082 224.563 53.4943C224.926 52.8822 225.716 52.6814 226.327 53.0429C226.537 53.1653 231.33 55.883 237.061 52.9587C237.697 52.6355 238.473 52.8861 238.797 53.521C239.12 54.156 238.869 54.9325 238.234 55.2557C235.837 56.4798 233.566 56.8871 231.607 56.8871L231.609 56.8891Z" fill="#260004"/>
<path d="M239.954 40.7949C238.919 40.8083 238.062 39.9725 238.048 38.9378C238.035 37.9031 238.871 37.0463 239.906 37.0329C240.941 37.0195 241.798 37.8553 241.812 38.89C241.825 39.9247 240.989 40.7815 239.954 40.7949Z" fill="#260004"/>
<path d="M222.523 41.0186C221.488 41.032 220.631 40.1962 220.618 39.1615C220.604 38.1268 221.44 37.27 222.475 37.2566C223.511 37.2432 224.368 38.079 224.381 39.1137C224.394 40.1484 223.558 41.0052 222.523 41.0186Z" fill="#260004"/>
<path d="M231.662 49.803C231.649 49.803 231.636 49.803 231.622 49.803L230.75 49.7762C230.038 49.7552 229.478 49.1604 229.499 48.447C229.52 47.7355 230.113 47.177 230.828 47.1962L231.701 47.2229C232.412 47.244 232.973 47.8388 232.952 48.5522C232.931 49.2502 232.357 49.803 231.662 49.803Z" fill="#260004"/>
<path d="M210.536 38.2359C210.304 38.2359 210.071 38.1747 209.86 38.0446C209.254 37.6717 209.064 36.8761 209.437 36.2698C210.941 33.8255 212.904 26.7491 213.534 24.2283C213.706 23.536 214.406 23.1171 215.098 23.2893C215.789 23.4614 216.21 24.1614 216.038 24.8537C215.942 25.2401 213.656 34.3419 211.636 37.6239C211.393 38.0198 210.968 38.2378 210.536 38.2378V38.2359Z" fill="#260004"/>
<path d="M252.07 54.2497C251.186 54.2497 249.975 53.9055 248.909 52.4041C248.498 51.8227 248.634 51.0175 249.216 50.6063C249.797 50.1932 250.603 50.3309 251.014 50.9123C251.571 51.6965 251.976 51.6754 252.112 51.6697C253.312 51.6066 255.12 49.3632 255.961 47.8675C255.973 47.8465 255.986 47.8255 256 47.8044C258.99 43.1282 257.312 40.7834 256.947 40.3646C254.97 39.3127 253.977 40.42 253.715 40.793L253.725 40.7777L251.569 39.3586C252.405 38.0905 254.901 36.2181 258.372 38.2034C258.447 38.2455 258.515 38.2952 258.58 38.3526C258.751 38.5017 262.701 42.082 258.192 49.1623C257.685 50.0593 255.244 54.0872 252.248 54.2459C252.189 54.2497 252.129 54.2516 252.066 54.2516L252.07 54.2497Z" fill="#260004"/>
<path d="M219.856 74.9359C219.761 74.9359 219.663 74.9244 219.564 74.9015C218.869 74.7408 218.437 74.0485 218.598 73.3542C219.311 70.2731 219.003 64.3652 218.999 64.3059C218.961 63.5944 219.506 62.9863 220.218 62.948C220.93 62.9078 221.538 63.4548 221.576 64.1663C221.59 64.4226 221.907 70.5026 221.111 73.9356C220.974 74.5324 220.442 74.9359 219.855 74.9359H219.856Z" fill="#260004"/>
<path d="M243.939 74.4177C243.352 74.4177 242.822 74.0141 242.682 73.4174C241.894 70.0131 241.932 64.4609 241.934 64.2257C241.94 63.5161 242.518 62.9462 243.224 62.9462H243.235C243.949 62.9519 244.521 63.5352 244.515 64.2467C244.515 64.3022 244.477 69.73 245.196 72.8341C245.357 73.5284 244.924 74.2207 244.23 74.3814C244.132 74.4043 244.035 74.4158 243.937 74.4158L243.939 74.4177Z" fill="#260004"/>
<path d="M210.687 54.3033C210.656 54.3033 210.624 54.3033 210.595 54.3033C207.614 54.223 205.089 50.2946 204.563 49.4186C199.904 42.5162 203.738 38.8651 203.903 38.7121C203.966 38.6548 204.035 38.6031 204.107 38.5591C207.503 36.5012 210.032 38.2952 210.895 39.5307L208.779 41.0072L208.789 41.0225C208.521 40.6629 207.515 39.5976 205.592 40.6802C205.206 41.1449 203.65 43.4725 206.721 48.0014C206.734 48.0225 206.748 48.0435 206.761 48.0645C207.633 49.5219 209.478 51.6927 210.666 51.7233C210.798 51.7252 211.198 51.7366 211.727 50.9506C212.125 50.3596 212.927 50.2009 213.518 50.5987C214.109 50.9965 214.268 51.7979 213.87 52.3888C212.816 53.9571 211.574 54.3033 210.689 54.3033H210.687Z" fill="#260004"/>
<path d="M227.469 27.1736C226.956 27.1736 226.47 26.8657 226.269 26.3607C226.005 25.699 226.329 24.9493 226.991 24.6853C234.911 21.5334 237.983 17.5783 238.012 17.54C238.443 16.9739 239.25 16.8611 239.818 17.2895C240.386 17.7179 240.501 18.5212 240.076 19.0892C239.939 19.2728 236.608 23.6373 227.945 27.0837C227.788 27.1468 227.628 27.1755 227.469 27.1755V27.1736Z" fill="#260004"/>
<path d="M217.098 28.7553C216.539 28.7553 216.024 28.39 215.86 27.8277C215.659 27.1449 216.051 26.4277 216.734 26.2269C223.055 24.3717 225.56 18.6589 225.584 18.6015C225.864 17.9455 226.623 17.6414 227.278 17.9225C227.934 18.2018 228.238 18.9611 227.957 19.6151C227.836 19.8963 224.936 26.508 217.461 28.7036C217.341 28.74 217.218 28.7572 217.098 28.7572V28.7553Z" fill="#260004"/>
<path d="M252.556 37.1266C252.026 37.1266 251.53 36.7976 251.341 36.2698L249.338 30.6736C242.912 28.8299 240.914 23.1228 240.83 22.8723C240.603 22.1972 240.964 21.4647 241.639 21.2371C242.313 21.0095 243.046 21.3709 243.273 22.0422C243.35 22.2622 245.081 27.0589 250.612 28.3384C251.041 28.4378 251.389 28.7477 251.536 29.1608L253.769 35.3996C254.008 36.0709 253.66 36.8091 252.988 37.0482C252.845 37.0998 252.697 37.1247 252.554 37.1247L252.556 37.1266Z" fill="#260004"/>
<path d="M287.109 104.378C286.396 104.378 285.818 103.8 285.818 103.087C285.818 94.4918 282.072 91.4986 280.662 90.3722C280.105 89.9265 280.015 89.1156 280.459 88.5591C280.905 88.0025 281.716 87.9126 282.273 88.3563C284.903 90.4563 288.399 94.2699 288.399 103.087C288.399 103.8 287.821 104.378 287.107 104.378H287.109Z" fill="#260004"/>
<path d="M271.628 172.249C270.96 172.249 270.396 171.736 270.342 171.059C270.184 169.04 270.333 165.947 270.341 165.817C270.375 165.105 270.981 164.558 271.693 164.593C272.405 164.627 272.954 165.234 272.919 165.945C272.919 165.976 272.772 169.003 272.918 170.858C272.973 171.568 272.443 172.19 271.731 172.245C271.697 172.247 271.663 172.249 271.628 172.249Z" fill="#260004"/>
<path d="M280.662 99.1164L276.558 72.3674L263.038 69.5636C263.038 69.5636 259.35 69.927 259.432 73.7444C259.432 73.7444 255.133 73.6144 255.297 79.3081C255.297 79.3081 251.217 78.8778 252.923 84.537C252.923 84.537 249.843 86.616 251.904 89.8922L255.317 93.3979L261.72 97.8408L263.947 105.164C263.947 105.164 276.61 107.472 280.66 99.1184L280.662 99.1164Z" fill="white"/>
<path d="M282.413 98.9501C274.597 105.369 263.413 105.684 263.413 105.684L265.782 113.826C265.937 114.832 266.736 115.572 267.685 115.589C271.203 115.651 279.512 115.1 284.067 109.025C284.569 108.358 284.726 107.461 284.486 106.642L282.411 98.9501H282.413Z" fill="white"/>
<path d="M287.084 105.558C287.897 106.176 298.575 151.297 298.575 151.297C299.457 158.84 295.843 163.428 293.229 165.702C291.722 167.016 289.857 167.865 287.878 168.146C282.426 168.923 277.536 166.785 274.613 165.53C272.661 164.692 271.267 162.929 270.872 160.842L259.281 114.373L287.086 105.556L287.084 105.558Z" fill="#CCCCCC"/>
<path d="M265.806 112.491C265.255 112.491 264.745 112.135 264.574 111.581L262.715 105.541C262.609 105.196 262.652 104.823 262.833 104.512C263.015 104.2 263.319 103.978 263.671 103.902C263.765 103.881 273.101 101.811 281.092 98.1639C281.431 98.009 281.817 98.009 282.156 98.1601C282.495 98.3112 282.751 98.6019 282.86 98.9576L284.777 105.179C284.988 105.86 284.605 106.583 283.924 106.791C283.243 107 282.52 106.619 282.311 105.938L280.821 101.104C274.71 103.729 268.32 105.43 265.584 106.101L267.036 110.821C267.245 111.502 266.864 112.225 266.183 112.434C266.057 112.472 265.929 112.491 265.803 112.491H265.806Z" fill="#260004"/>
<path d="M285.5 169.606C280.825 169.606 276.782 167.871 274.211 166.766L274.102 166.72C271.774 165.721 270.098 163.633 269.61 161.127L257.735 114.507C257.559 113.816 257.976 113.114 258.667 112.939C259.355 112.763 260.059 113.18 260.235 113.87L272.129 160.567L272.137 160.607C272.453 162.284 273.568 163.683 275.118 164.348L275.227 164.394C278.008 165.589 282.663 167.588 287.693 166.871C289.436 166.622 291.056 165.882 292.38 164.731C295.047 162.409 298.06 158.234 297.299 151.521C296.811 149.468 286.82 107.394 285.877 104.407C285.663 103.728 286.04 103.003 286.719 102.789C287.398 102.574 288.123 102.951 288.338 103.63C289.329 106.765 299.399 149.195 299.828 151L299.845 151.073L299.855 151.148C300.825 159.437 296.65 164.434 294.075 166.678C292.376 168.158 290.295 169.108 288.058 169.426C287.19 169.55 286.335 169.606 285.5 169.606Z" fill="#260004"/>
<path d="M280.66 97.7642C280.038 97.7642 279.489 97.3128 279.388 96.6778L276.069 76.0184C275.772 74.6394 274.699 73.5282 273.329 73.184L264.266 70.908C263.356 70.6785 262.409 70.8927 261.735 71.4799C261.368 71.7993 261.117 72.1455 260.991 72.505C260.756 73.1763 260.019 73.5321 259.346 73.2949C258.672 73.0597 258.318 72.3233 258.556 71.6501C258.831 70.8621 259.332 70.1507 260.042 69.5329C261.353 68.393 263.168 67.9723 264.896 68.4064L273.958 70.6824C276.29 71.2676 278.114 73.1668 278.602 75.5211L278.613 75.5785L281.936 96.2686C282.049 96.9724 281.571 97.6341 280.867 97.747C280.798 97.7584 280.729 97.7642 280.66 97.7642Z" fill="#260004"/>
<path d="M269.749 78.5258C269.621 78.5258 269.489 78.5066 269.359 78.4646L258.911 75.1616C258.225 74.9436 257.511 75.0755 257.048 75.502C256.698 75.8252 256.552 76.2307 256.593 76.7777C256.644 77.4892 256.109 78.1069 255.399 78.1566C254.687 78.2045 254.069 77.6728 254.019 76.9632C253.924 75.6282 254.364 74.4673 255.297 73.6048C256.44 72.5509 258.121 72.2029 259.69 72.7001L270.138 76.0031C270.817 76.2173 271.194 76.9422 270.979 77.623C270.805 78.1739 270.296 78.5239 269.749 78.5239V78.5258Z" fill="#260004"/>
<path d="M252.198 84.9922C251.666 84.9922 251.169 84.6614 250.981 84.1316C250.011 81.3947 251.136 79.813 251.894 79.1149C253.036 78.0611 254.718 77.713 256.287 78.2084L266.734 81.5114C267.413 81.7256 267.79 82.4504 267.576 83.1313C267.362 83.8103 266.635 84.187 265.956 83.9728L255.508 80.6698C254.821 80.4537 254.107 80.5838 253.644 81.0103C253.432 81.2073 252.868 81.7294 253.413 83.2709C253.65 83.9422 253.298 84.6805 252.627 84.9176C252.485 84.9674 252.34 84.9922 252.196 84.9922H252.198Z" fill="#260004"/>
<path d="M251.905 91.1793C251.439 91.1793 250.989 90.9249 250.76 90.4831C249.03 87.1533 250.245 85.2943 251.125 84.4834C252.223 83.4678 253.842 83.1351 255.349 83.6113L265.236 86.7364C265.915 86.9506 266.292 87.6755 266.078 88.3563C265.864 89.0353 265.139 89.4121 264.458 89.1979L254.571 86.0728C253.945 85.8738 253.294 85.9924 252.875 86.3807C252.275 86.9353 252.334 87.9165 253.05 89.2973C253.379 89.9304 253.132 90.7088 252.499 91.0358C252.309 91.1334 252.104 91.1812 251.905 91.1812V91.1793Z" fill="#260004"/>
<path d="M263.727 103.546C263.235 103.546 262.766 103.265 262.55 102.789L260.547 98.3705C260.354 97.944 259.971 97.6208 259.501 97.4793C256.486 96.5842 254.025 92.9236 253.755 92.5104C253.365 91.9137 253.534 91.1143 254.13 90.7241C254.727 90.3339 255.525 90.5023 255.915 91.0971C256.51 92.0036 258.446 94.4727 260.235 95.0044C261.425 95.3582 262.395 96.1959 262.898 97.3033L264.901 101.721C265.196 102.37 264.909 103.135 264.259 103.429C264.086 103.508 263.905 103.544 263.727 103.544V103.546Z" fill="#260004"/>
<path d="M153.889 172.249C153.612 172.249 153.331 172.159 153.095 171.975L145.613 166.121C139.468 160.812 138.838 154.621 139.393 150.361C139.986 145.813 142.001 142.531 142.085 142.394L168.678 100.819C174.98 90.8981 183.275 87.1093 183.625 86.9525L183.673 86.9315L201.863 79.6714C202.525 79.4075 203.275 79.7288 203.541 80.3905C203.805 81.0523 203.484 81.802 202.822 82.0678L184.66 89.3164C184.232 89.5172 176.583 93.1874 170.855 102.205L144.278 143.759C144.191 143.901 142.435 146.846 141.944 150.782C141.289 156.015 143.084 160.511 147.279 164.147L154.687 169.94C155.248 170.38 155.347 171.191 154.909 171.752C154.654 172.077 154.276 172.247 153.891 172.247L153.889 172.249Z" fill="#260004"/>
<path d="M169.619 146.345C169.307 146.345 168.995 146.234 168.749 146.007C168.223 145.527 168.186 144.71 168.668 144.184L185.16 126.16C185.64 125.634 186.457 125.598 186.983 126.08C187.509 126.56 187.545 127.376 187.063 127.902L170.572 145.926C170.317 146.204 169.969 146.345 169.619 146.345Z" fill="#260004"/>
<path d="M191.435 171.74C191.113 171.74 190.79 171.62 190.539 171.379L161.825 143.717C161.312 143.224 161.297 142.407 161.791 141.893C162.284 141.38 163.103 141.365 163.616 141.858L192.33 169.52C192.843 170.013 192.858 170.83 192.365 171.344C192.112 171.606 191.773 171.74 191.435 171.74Z" fill="#260004"/>
<path d="M166.803 143.899C166.751 143.899 166.698 143.895 166.646 143.889C165.938 143.803 165.435 143.161 165.521 142.453C166.353 135.606 164.188 129.482 164.165 129.421C163.924 128.752 164.27 128.011 164.942 127.77C165.611 127.529 166.35 127.876 166.593 128.545C166.69 128.817 168.994 135.289 168.083 142.767C168.003 143.421 167.446 143.901 166.803 143.901V143.899Z" fill="#260004"/>
<path d="M256.952 28.7553C256.897 28.7553 256.839 28.7515 256.784 28.7439C256.078 28.6521 255.579 28.0037 255.672 27.298C256.436 21.4627 255.163 16.2453 251.892 11.789C249.424 8.42866 246.677 6.77621 246.65 6.759C246.633 6.74752 246.612 6.73605 246.595 6.72457C240.951 2.99317 235.074 1.76148 229.129 3.06585C224.655 4.04699 221.8 6.17567 221.771 6.19671C221.203 6.62512 220.394 6.51419 219.964 5.94807C219.533 5.38196 219.642 4.57486 220.208 4.14262C220.338 4.04317 223.461 1.69263 228.454 0.571872C233.051 -0.460909 240.17 -0.606264 247.995 4.55573C248.355 4.77376 251.243 6.58304 253.903 10.1653C256.468 13.6232 259.304 19.4603 258.234 27.6307C258.15 28.281 257.595 28.7534 256.956 28.7534L256.952 28.7553Z" fill="#260004"/>
<path d="M206.309 40.3052C205.739 40.3052 205.217 39.9246 205.064 39.3471C204.597 37.5971 204.096 36.1359 203.654 34.8468C203.273 33.7375 202.944 32.7793 202.751 31.9474C200.937 24.1327 201.689 17.7715 204.986 13.0398C209.376 6.73794 216.629 5.75298 216.935 5.71281C217.641 5.62483 218.288 6.12401 218.378 6.82975C218.467 7.53739 217.966 8.18192 217.26 8.27181C217.199 8.27946 210.803 9.17645 207.086 14.5393C204.239 18.6436 203.627 24.3048 205.265 31.3621C205.427 32.064 205.737 32.9648 206.095 34.0072C206.529 35.2695 207.067 36.8416 207.559 38.6796C207.742 39.3681 207.333 40.0757 206.644 40.2593C206.533 40.288 206.42 40.3033 206.311 40.3033L206.309 40.3052Z" fill="#260004"/>
<path d="M256.147 39.9228C256.122 39.9228 256.097 39.9228 256.072 39.9209C255.361 39.8807 254.817 39.2706 254.857 38.5591L255.276 31.2168C255.317 30.5054 255.927 29.9584 256.639 30.0024C257.35 30.0425 257.894 30.6526 257.853 31.3641L257.434 38.7064C257.396 39.393 256.826 39.9228 256.147 39.9228Z" fill="#260004"/>
<path d="M262.359 114.18C261.8 114.18 261.286 113.814 261.121 113.252C260.92 112.569 261.312 111.852 261.997 111.651C262.181 111.598 280.415 106.252 284.628 104.38C285.278 104.091 286.042 104.384 286.331 105.036C286.619 105.686 286.327 106.449 285.674 106.738C281.305 108.679 263.478 113.906 262.72 114.128C262.6 114.164 262.477 114.18 262.357 114.18H262.359Z" fill="#260004"/>
<path d="M205.246 91.6345C205.221 91.6345 205.198 91.6345 205.173 91.6326C204.461 91.5924 203.916 90.9842 203.956 90.2727L204.57 79.2048C204.595 78.7515 204.857 78.3441 205.259 78.1337L210.294 75.4925C210.926 75.1616 211.706 75.4045 212.037 76.0357C212.368 76.6668 212.125 77.4471 211.494 77.778L207.107 80.0788L206.533 90.4143C206.495 91.1009 205.925 91.6326 205.246 91.6326V91.6345Z" fill="#260004"/>
<path d="M227.277 144.079C226.845 144.079 226.422 143.861 226.179 143.467C217.212 128.96 199.971 96.7716 199.797 96.4484C199.627 96.1309 199.598 95.7561 199.717 95.4156C199.835 95.0752 200.09 94.7998 200.421 94.6564L214.084 88.7064C214.739 88.4214 215.498 88.7198 215.783 89.3739C216.068 90.028 215.77 90.7872 215.116 91.0722L202.736 96.4637C205.992 102.517 220.448 129.287 228.376 142.111C228.751 142.717 228.563 143.513 227.957 143.886C227.746 144.016 227.511 144.079 227.279 144.079H227.277Z" fill="#260004"/>
<path d="M237.323 153.659C237.123 153.659 236.92 153.611 236.728 153.513C236.097 153.184 235.85 152.406 236.179 151.773C239.524 145.347 243.583 134.703 247.509 124.41C251.379 114.26 255.037 104.672 257.853 99.4779C258.194 98.8525 258.976 98.6191 259.604 98.9596C260.23 99.3 260.463 100.082 260.122 100.71C257.387 105.753 253.759 115.262 249.922 125.33C245.971 135.692 241.884 146.406 238.471 152.964C238.242 153.406 237.792 153.659 237.325 153.659H237.323Z" fill="#260004"/>
<path d="M192.85 172.052C192.192 172.052 191.63 171.551 191.567 170.881L185.846 109.343C185.781 108.633 186.302 108.004 187.012 107.939C187.721 107.876 188.351 108.394 188.416 109.104L194.136 170.642C194.201 171.352 193.681 171.981 192.971 172.046C192.931 172.05 192.891 172.052 192.85 172.052Z" fill="#260004"/>
<path d="M230.436 86.5968L225.148 92.7801L228.477 98.4203L224.72 118.458L232.621 145.735L239.416 117.133L235.856 97.8982L238.207 92.4493L233.157 86.5414L230.436 86.5968Z" fill="#6FC7DE"/>
<path d="M222.531 97.1293C222.234 97.1293 221.936 97.0279 221.693 96.8194C221.152 96.3566 221.088 95.5418 221.551 95.0006L228.965 86.3329C223.484 83.2269 216.774 75.7507 216.464 75.4026C215.99 74.8709 216.036 74.0562 216.568 73.5818C217.1 73.1075 217.915 73.1534 218.389 73.6851C218.467 73.7731 226.384 82.5938 231.515 84.7225C231.896 84.8812 232.179 85.2121 232.275 85.6137C232.37 86.0154 232.269 86.438 232.001 86.7517L223.514 96.676C223.26 96.9743 222.896 97.1273 222.533 97.1273L222.531 97.1293Z" fill="#260004"/>
<path d="M241.108 97.1293C240.744 97.1293 240.381 96.9763 240.126 96.6779L231.639 86.7537C231.372 86.44 231.268 86.0173 231.366 85.6157C231.462 85.2141 231.745 84.8832 232.125 84.7244C237.256 82.5958 245.171 73.775 245.252 73.6871C245.726 73.1554 246.541 73.1095 247.073 73.5838C247.605 74.0581 247.651 74.8729 247.176 75.4045C246.866 75.7507 240.157 83.2269 234.676 86.3348L242.089 95.0025C242.552 95.5438 242.489 96.3585 241.948 96.8214C241.705 97.0298 241.406 97.1312 241.11 97.1312L241.108 97.1293Z" fill="#260004"/>
<path d="M228.477 99.4549C227.97 99.4549 227.507 99.1566 227.299 98.6918L224.744 92.9771C224.454 92.3268 224.744 91.5637 225.397 91.273C226.047 90.9823 226.811 91.273 227.101 91.9252L229.3 96.8462L234.909 96.6435L236.422 92.0476C236.646 91.3705 237.375 91.0033 238.052 91.2252C238.73 91.447 239.097 92.1776 238.875 92.8547L237.08 98.3036C236.912 98.8161 236.441 99.1699 235.902 99.1891L228.525 99.4549C228.51 99.4549 228.494 99.4549 228.477 99.4549Z" fill="#260004"/>
<path d="M224.721 120.981C224.647 120.981 224.572 120.975 224.498 120.962C223.796 120.839 223.325 120.172 223.449 119.47L227.207 97.9421C227.329 97.2402 227.997 96.7698 228.699 96.8941C229.401 97.0165 229.872 97.684 229.747 98.3859L225.99 119.914C225.881 120.541 225.336 120.983 224.72 120.983L224.721 120.981Z" fill="#260004"/>
<path d="M239.416 119.097C238.802 119.097 238.259 118.659 238.148 118.034L234.586 98.1238C234.459 97.4219 234.928 96.7525 235.628 96.6263C236.329 96.5019 237 96.9686 237.126 97.6686L240.689 117.578C240.815 118.28 240.346 118.95 239.646 119.076C239.569 119.089 239.493 119.097 239.416 119.097Z" fill="#260004"/>
<path d="M230.434 140.866C229.889 140.866 229.382 140.518 229.206 139.971C223.3 121.623 212.95 76.3321 212.847 75.8769C212.688 75.1827 213.124 74.4903 213.818 74.3316C214.515 74.1748 215.206 74.6089 215.364 75.3032C215.468 75.7584 225.791 120.939 231.664 139.179C231.882 139.858 231.509 140.585 230.832 140.803C230.7 140.845 230.568 140.866 230.436 140.866H230.434Z" fill="#260004"/>
<path d="M233.208 172.249C232.588 172.249 232.041 171.801 231.936 171.168L230.222 160.806C229.499 157.6 229.518 154.219 230.277 151.023L247.874 76.3378C248.037 75.6435 248.733 75.2132 249.426 75.3777C250.12 75.5403 250.549 76.2364 250.386 76.9288L232.789 151.616C232.116 154.445 232.102 157.436 232.747 160.27C232.753 160.295 232.759 160.32 232.763 160.347L234.484 170.745C234.601 171.449 234.125 172.113 233.423 172.23C233.352 172.241 233.281 172.247 233.21 172.247L233.208 172.249Z" fill="#260004"/>
<path d="M254.486 79.1856C254.293 79.1856 254.098 79.1417 253.912 79.0499L248.555 76.3857C247.916 76.0682 247.656 75.2936 247.974 74.6567C248.291 74.0179 249.066 73.7597 249.703 74.0753L255.06 76.7395C255.699 77.057 255.959 77.8316 255.642 78.4684C255.416 78.9217 254.959 79.1837 254.484 79.1837L254.486 79.1856Z" fill="#260004"/>
</g>
<defs>
<clipPath id="clip0_1_2038">
<rect width="122.01" height="165.072" fill="white" transform="translate(0 7.177)"/>
</clipPath>
<clipPath id="clip1_1_2038">
<rect width="160.766" height="172.249" fill="white" transform="translate(139.234)"/>
</clipPath>
</defs>
</svg>
