<svg width="54" height="54" viewBox="0 0 54 54" fill="none" xmlns="http://www.w3.org/2000/svg">
<circle cx="27" cy="27" r="27" fill="#FFEC3E"/>
<path fill-rule="evenodd" clip-rule="evenodd" d="M27 37.2C27.3919 37.2001 27.7701 37.3439 28.063 37.6043C28.3559 37.8648 28.5429 38.2236 28.5888 38.6128L28.6 38.8V40.4C28.5995 40.8078 28.4434 41.2 28.1634 41.4966C27.8835 41.7931 27.5009 41.9716 27.0938 41.9955C26.6867 42.0194 26.2858 41.8869 25.9731 41.6252C25.6603 41.3634 25.4594 40.9922 25.4112 40.5872L25.4 40.4V38.8C25.4 38.3757 25.5686 37.9687 25.8686 37.6686C26.1687 37.3686 26.5757 37.2 27 37.2ZM19.08 33.92C19.38 34.22 19.5485 34.6269 19.5485 35.0512C19.5485 35.4755 19.38 35.8824 19.08 36.1824L17.9488 37.3136C17.8012 37.4664 17.6247 37.5883 17.4294 37.6722C17.2342 37.756 17.0243 37.8002 16.8118 37.802C16.5994 37.8038 16.3887 37.7634 16.1921 37.6829C15.9954 37.6025 15.8168 37.4837 15.6666 37.3334C15.5163 37.1832 15.3975 37.0046 15.3171 36.8079C15.2366 36.6113 15.1962 36.4006 15.198 36.1882C15.1998 35.9757 15.244 35.7658 15.3278 35.5706C15.4117 35.3753 15.5336 35.1988 15.6864 35.0512L16.8176 33.92C17.1176 33.62 17.5245 33.4515 17.9488 33.4515C18.3731 33.4515 18.78 33.62 19.08 33.92ZM37.1824 33.92L38.3136 35.0512C38.6051 35.353 38.7663 35.7571 38.7627 36.1766C38.759 36.5962 38.5908 36.9975 38.2941 37.2941C37.9975 37.5908 37.5962 37.759 37.1766 37.7627C36.7571 37.7663 36.353 37.605 36.0512 37.3136L34.92 36.1824C34.6285 35.8806 34.4673 35.4765 34.4709 35.057C34.4746 34.6374 34.6428 34.2361 34.9395 33.9395C35.2361 33.6428 35.6374 33.4746 36.057 33.4709C36.4765 33.4673 36.8806 33.6285 37.1824 33.92ZM27.9872 10C28.7673 9.99983 29.5206 10.2846 30.1054 10.8008C30.6903 11.317 31.0665 12.0291 31.1632 12.8032L31.7712 17.6672C33.6075 18.7189 35.0448 20.3479 35.8597 22.3008C36.6746 24.2538 36.8213 26.4212 36.2772 28.4662C35.733 30.5112 34.5284 32.3191 32.8507 33.6087C31.173 34.8984 29.1161 35.5976 27 35.5976C24.8839 35.5976 22.827 34.8984 21.1493 33.6087C19.4716 32.3191 18.267 30.5112 17.7228 28.4662C17.1787 26.4212 17.3254 24.2538 18.1403 22.3008C18.9552 20.3479 20.3925 18.7189 22.2288 17.6672L22.8368 12.8032C22.9335 12.0291 23.3097 11.317 23.8946 10.8008C24.4794 10.2846 25.2327 9.99983 26.0128 10H27.9872ZM27 19.6C25.3026 19.6 23.6747 20.2743 22.4745 21.4745C21.2743 22.6747 20.6 24.3026 20.6 26C20.6 27.6974 21.2743 29.3253 22.4745 30.5255C23.6747 31.7257 25.3026 32.4 27 32.4C28.6974 32.4 30.3253 31.7257 31.5255 30.5255C32.7257 29.3253 33.4 27.6974 33.4 26C33.4 24.3026 32.7257 22.6747 31.5255 21.4745C30.3253 20.2743 28.6974 19.6 27 19.6ZM14.2 24.4C14.6243 24.4 15.0313 24.5686 15.3314 24.8686C15.6314 25.1687 15.8 25.5757 15.8 26C15.8 26.4243 15.6314 26.8313 15.3314 27.1314C15.0313 27.4314 14.6243 27.6 14.2 27.6H12.6C12.1757 27.6 11.7687 27.4314 11.4686 27.1314C11.1686 26.8313 11 26.4243 11 26C11 25.5757 11.1686 25.1687 11.4686 24.8686C11.7687 24.5686 12.1757 24.4 12.6 24.4H14.2ZM41.4 24.4C41.8243 24.4 42.2313 24.5686 42.5314 24.8686C42.8314 25.1687 43 25.5757 43 26C43 26.4243 42.8314 26.8313 42.5314 27.1314C42.2313 27.4314 41.8243 27.6 41.4 27.6H39.8C39.3757 27.6 38.9687 27.4314 38.6686 27.1314C38.3686 26.8313 38.2 26.4243 38.2 26C38.2 25.5757 38.3686 25.1687 38.6686 24.8686C38.9687 24.5686 39.3757 24.4 39.8 24.4H41.4ZM38.3136 14.688C38.6136 14.988 38.7821 15.3949 38.7821 15.8192C38.7821 16.2435 38.6136 16.6504 38.3136 16.9504L37.1824 18.0816C37.0348 18.2344 36.8583 18.3563 36.663 18.4402C36.4678 18.524 36.2579 18.5682 36.0454 18.57C35.833 18.5718 35.6223 18.5314 35.4257 18.4509C35.229 18.3705 35.0504 18.2517 34.9002 18.1014C34.7499 17.9512 34.6311 17.7726 34.5507 17.5759C34.4702 17.3793 34.4298 17.1686 34.4316 16.9562C34.4334 16.7437 34.4776 16.5338 34.5614 16.3386C34.6453 16.1433 34.7672 15.9668 34.92 15.8192L36.0512 14.688C36.3512 14.388 36.7581 14.2195 37.1824 14.2195C37.6067 14.2195 38.0136 14.388 38.3136 14.688ZM17.9488 14.688L19.08 15.8192C19.3642 16.1223 19.5194 16.5241 19.5127 16.9396C19.5059 17.3551 19.3378 17.7517 19.0438 18.0454C18.7499 18.3392 18.3532 18.507 17.9377 18.5135C17.5222 18.5199 17.1205 18.3645 16.8176 18.08L15.6864 16.9488C15.4022 16.6457 15.247 16.2439 15.2537 15.8284C15.2605 15.4129 15.4286 15.0163 15.7226 14.7226C16.0165 14.4288 16.4132 14.261 16.8287 14.2545C17.2442 14.2481 17.6459 14.4035 17.9488 14.688ZM27.9872 13.2H26.0128L25.6128 16.4H28.3872L27.9872 13.2Z" fill="url(#paint0_linear_1_1392)"/>
<defs>
<linearGradient id="paint0_linear_1_1392" x1="11" y1="25.9991" x2="43" y2="25.9991" gradientUnits="userSpaceOnUse">
<stop stop-color="#FE1D37"/>
</linearGradient>
</defs>
</svg>
