<svg width="153" height="153" viewBox="0 0 153 153" fill="none" xmlns="http://www.w3.org/2000/svg">
<g clip-path="url(#clip0_1_1348)">
<path d="M105.981 119.589L97.111 106.756" stroke="#260004" stroke-width="4.82458" stroke-linecap="round" stroke-linejoin="round"/>
<path d="M123.687 98.4668L108.963 91.4931" stroke="#260004" stroke-width="4.82458" stroke-linecap="round" stroke-linejoin="round"/>
<path d="M128.457 71.3223L112.616 72.6129" stroke="#260004" stroke-width="4.82458" stroke-linecap="round" stroke-linejoin="round"/>
<path d="M119.018 45.4287L106.76 53.8778" stroke="#260004" stroke-width="4.82458" stroke-linecap="round" stroke-linejoin="round"/>
<path d="M79.9682 128.693L79.4764 113.048" stroke="#260004" stroke-width="4.82458" stroke-linecap="round" stroke-linejoin="round"/>
<path d="M52.8895 123.567L59.3572 109.912" stroke="#260004" stroke-width="4.82458" stroke-linecap="round" stroke-linejoin="round"/>
<path d="M31.9998 105.588L45.0772 96.5479" stroke="#260004" stroke-width="4.82458" stroke-linecap="round" stroke-linejoin="round"/>
<path d="M54.2768 88.7353C62.6634 100.863 79.8573 103.274 91.3086 93.3124C99.934 85.8071 102.319 73.0623 96.9773 62.9558C92.3207 54.1427 83.4593 49.4377 74.4785 49.56C72.7273 49.5827 71.0329 48.9288 69.8474 47.641L68.6932 46.3901C67.5163 45.1108 65.5717 44.8947 64.1417 45.8869L52.699 53.7987C51.2662 54.7881 50.7829 56.6814 51.5647 58.2365L52.0139 59.1349C52.8269 60.761 52.7957 62.6516 52.0537 64.309C48.5967 72.019 49.1198 81.2868 54.274 88.7438L54.2768 88.7353Z" fill="#FFEC3E" stroke="#260004" stroke-width="4.82458" stroke-linecap="round" stroke-linejoin="round"/>
<path d="M62.4417 40.4395L47.3174 50.8957" stroke="#260004" stroke-width="4.82458" stroke-linecap="round" stroke-linejoin="round"/>
<path d="M57.7622 37.0625L45.5292 45.5202" stroke="#260004" stroke-width="4.82458" stroke-linecap="round" stroke-linejoin="round"/>
<path d="M45.0544 41.8782C44.0111 42.5975 42.5697 42.0943 42.1973 40.8803C41.1881 37.6025 42.3593 33.9124 45.3302 31.8569C48.301 29.8015 52.1674 30.0119 54.8767 32.1128C55.8802 32.8889 55.8433 34.4156 54.7999 35.1348L45.0516 41.8754L45.0544 41.8782Z" fill="#260004"/>
<path d="M81.3215 87.8281C80.9804 88.1295 80.6165 88.4138 80.2327 88.6782C75.2434 92.1266 68.4886 91.0918 64.7388 86.4493" stroke="white" stroke-width="4" stroke-linecap="round" stroke-linejoin="round"/>
</g>
<defs>
<clipPath id="clip0_1_1348">
<rect width="108.895" height="107.468" fill="white" transform="translate(152.991 75.9912) rotate(135)"/>
</clipPath>
</defs>
</svg>
