<svg width="22" height="22" viewBox="0 0 22 22" fill="none" xmlns="http://www.w3.org/2000/svg">
<g clip-path="url(#clip0_42_297)">
<path d="M18.3333 13.4443C16.5 13.4443 14.2462 17.7796 14.0556 19.5554C13.7983 21.9479 15.2778 21.9999 15.2778 21.9999H22V15.8888C22 15.8888 19.899 13.4443 18.3333 13.4443Z" fill="#199BFF"/>
<path d="M17.7171 17.9109C18.704 16.2016 19.1159 14.5918 18.6371 14.3154C18.1584 14.039 16.9702 15.2006 15.9834 16.9099C14.9965 18.6192 14.5846 20.229 15.0634 20.5054C15.5421 20.7818 16.7303 19.6202 17.7171 17.9109Z" fill="#1C6399"/>
<path d="M12.2748 0C12.9965 0 13.5813 0.584833 13.5813 1.30656C13.5813 1.78872 13.9895 7.92122 13.9895 7.92122L10.9682 11V1.30656C10.9682 0.584833 11.553 0 12.2748 0Z" fill="#EEC2AD"/>
<path d="M11.5347 2.64177C11.5347 1.97016 12.0554 1.42627 12.6977 1.42627C13.3399 1.42627 13.8606 1.97077 13.8606 2.64177C13.8606 2.64177 14.1875 6.27299 14.589 8.36788C15.1256 9.50821 15.4257 11.2291 15.3597 12.1861C15.3927 12.4293 18.7972 15.2453 18.7972 15.2453C18.6254 16.3533 17.4167 19.0067 15.8889 20.2314L13.7372 18.4445C11.9741 18.1976 11.0128 16.4089 11.0128 15.8387C11.0128 14.0152 11.5347 2.64177 11.5347 2.64177Z" fill="#F7DECE"/>
<path d="M3.66667 13.4443C5.5 13.4443 7.75378 17.7796 7.94444 19.5554C8.20172 21.9479 6.72222 21.9999 6.72222 21.9999H0V15.8888C0 15.8888 2.101 13.4443 3.66667 13.4443Z" fill="#199BFF"/>
<path d="M6.93597 20.5044C7.41474 20.228 7.00284 18.6182 6.01597 16.9089C5.0291 15.1996 3.84096 14.038 3.36219 14.3144C2.88342 14.5909 3.29532 16.2006 4.28219 17.9099C5.26906 19.6192 6.4572 20.7808 6.93597 20.5044Z" fill="#1C6399"/>
<path d="M9.81508 0.00688429C9.63512 -0.011765 9.45324 0.00757871 9.28121 0.0636637C9.10919 0.119749 8.95087 0.211325 8.81647 0.332468C8.68208 0.45361 8.57462 0.601619 8.50105 0.766917C8.42747 0.932215 8.38942 1.11112 8.38936 1.29205C8.38936 1.76872 8.27692 7.5981 8.27692 7.5981L10.9359 11.0002L10.9738 1.366C10.9738 0.690106 10.4879 0.0741065 9.81508 0.00688429Z" fill="#EEC2AD"/>
<path d="M10.4653 2.64177C10.4653 1.97016 9.9446 1.42627 9.30232 1.42627C8.66004 1.42627 8.13938 1.97077 8.13938 2.64177C8.13938 2.64177 7.81243 6.27299 7.41093 8.36788C6.87438 9.50821 6.57432 11.2291 6.64032 12.1861C6.60732 12.4293 3.20282 15.2453 3.20282 15.2453C3.37454 16.3533 4.58332 19.0067 6.1111 20.2314L8.26282 18.4445C10.0259 18.1976 10.9872 16.4089 10.9872 15.8387C10.9872 14.0152 10.4653 2.64177 10.4653 2.64177Z" fill="#F7DECE"/>
<path d="M11 15.7809C10.8785 15.7809 10.7619 15.7326 10.6759 15.6466C10.59 15.5607 10.5417 15.4441 10.5417 15.3225V1.70638C10.5417 1.58482 10.59 1.46824 10.6759 1.38229C10.7619 1.29634 10.8785 1.24805 11 1.24805C11.1216 1.24805 11.2382 1.29634 11.3241 1.38229C11.4101 1.46824 11.4584 1.58482 11.4584 1.70638V15.3225C11.4584 15.4441 11.4101 15.5607 11.3241 15.6466C11.2382 15.7326 11.1216 15.7809 11 15.7809Z" fill="#EEC2AD"/>
</g>
<defs>
<clipPath id="clip0_42_297">
<rect width="22" height="22" fill="white"/>
</clipPath>
</defs>
</svg>
