<svg width="36" height="38" viewBox="0 0 36 38" fill="none" xmlns="http://www.w3.org/2000/svg">
<path d="M17.9989 1C27.3879 1 35 8.55394 35 17.8711C35 23.4898 32.2221 28.4526 27.9664 31.5189L29.5894 37L23.9903 33.6456C22.1246 34.3444 20.1116 34.7422 18.0011 34.7422C8.61215 34.7422 1.00002 27.1883 1.00002 17.8711C1.00002 8.55394 8.60998 1 17.9989 1Z" fill="white" stroke="#260004" stroke-width="2" stroke-linecap="round" stroke-linejoin="round"/>
<path d="M17.9375 26.6252H21.375C21.7348 26.6243 22.0882 26.5295 22.4001 26.3501C22.7121 26.1706 22.9717 25.9128 23.1533 25.6021C23.3349 25.2915 23.4321 24.9387 23.4354 24.5789C23.4387 24.2191 23.348 23.8646 23.1721 23.5507C23.4239 23.3897 23.6377 23.176 23.7987 22.9242C23.9598 22.6725 24.0642 22.3887 24.1047 22.0927C24.1452 21.7966 24.121 21.4952 24.0335 21.2095C23.9461 20.9237 23.7976 20.6604 23.5984 20.4377C23.8451 20.1621 24.0133 19.8252 24.0851 19.4624C24.157 19.0995 24.1299 18.724 24.0067 18.3752H28.9375C30.0746 18.3752 31 17.4498 31 16.3127C31 15.1755 30.0746 14.2502 28.9375 14.2502H20.4579L22.4736 10.4689C22.7196 10.0325 22.7985 9.52155 22.6958 9.03125C22.593 8.54095 22.3155 8.10471 21.915 7.80378C21.5145 7.50286 21.0183 7.35777 20.5188 7.39553C20.0192 7.43329 19.5505 7.65133 19.1997 8.00904L19.1846 8.02554L14.5 13.1639V12.1877C14.5 12.0053 14.4276 11.8305 14.2986 11.7015C14.1697 11.5726 13.9948 11.5002 13.8125 11.5002H9.6875C9.50516 11.5002 9.3303 11.5726 9.20136 11.7015C9.07243 11.8305 9 12.0053 9 12.1877V25.9377C9 26.12 9.07243 26.2949 9.20136 26.4238C9.3303 26.5527 9.50516 26.6252 9.6875 26.6252H13.8125C13.9948 26.6252 14.1697 26.5527 14.2986 26.4238C14.4276 26.2949 14.5 26.12 14.5 25.9377V24.9875L17.6295 26.5523C17.7251 26.6002 17.8306 26.6252 17.9375 26.6252ZM12.4375 25.2502C12.2552 25.2502 12.0803 25.1777 11.9514 25.0488C11.8224 24.9199 11.75 24.745 11.75 24.5627C11.75 24.3803 11.8224 24.2055 11.9514 24.0765C12.0803 23.9476 12.2552 23.8752 12.4375 23.8752C12.6198 23.8752 12.7947 23.9476 12.9236 24.0765C13.0526 24.2055 13.125 24.3803 13.125 24.5627C13.125 24.745 13.0526 24.9199 12.9236 25.0488C12.7947 25.1777 12.6198 25.2502 12.4375 25.2502ZM18.0998 25.2502L14.5 23.4503V15.2044L20.1966 8.95641C20.315 8.83502 20.4741 8.76167 20.6434 8.75047C20.8126 8.73927 20.9799 8.79101 21.1133 8.89574C21.2467 9.00046 21.3367 9.15079 21.3659 9.31783C21.3952 9.48487 21.3617 9.65683 21.2719 9.80066L18.7061 14.6132C18.6511 14.7181 18.6241 14.8354 18.6276 14.9538C18.631 15.0722 18.6649 15.1877 18.726 15.2893C18.787 15.3908 18.8732 15.4749 18.9761 15.5335C19.0791 15.5921 19.1954 15.6232 19.3139 15.6238H28.9389C29.1212 15.6238 29.2961 15.6962 29.425 15.8251C29.5539 15.9541 29.6264 16.1289 29.6264 16.3113C29.6264 16.4936 29.5539 16.6685 29.425 16.7974C29.2961 16.9264 29.1212 16.9988 28.9389 16.9988H22.0639C21.8815 16.9988 21.7067 17.0712 21.5777 17.2001C21.4488 17.3291 21.3764 17.5039 21.3764 17.6863C21.3764 17.8686 21.4488 18.0435 21.5777 18.1724C21.7067 18.3014 21.8815 18.3738 22.0639 18.3738C22.2462 18.3738 22.4211 18.4462 22.55 18.5751C22.6789 18.7041 22.7514 18.8789 22.7514 19.0613C22.7514 19.2436 22.6789 19.4185 22.55 19.5474C22.4211 19.6764 22.2462 19.7488 22.0639 19.7488C21.8815 19.7488 21.7067 19.8212 21.5777 19.9501C21.4488 20.0791 21.3764 20.2539 21.3764 20.4363C21.3764 20.6186 21.4488 20.7935 21.5777 20.9224C21.7067 21.0514 21.8815 21.1238 22.0639 21.1238C22.2462 21.1238 22.4211 21.1962 22.55 21.3251C22.6789 21.4541 22.7514 21.6289 22.7514 21.8113C22.7514 21.9936 22.6789 22.1685 22.55 22.2974C22.4211 22.4264 22.2462 22.4988 22.0639 22.4988H21.3764C21.194 22.4988 21.0192 22.5712 20.8902 22.7001C20.7613 22.8291 20.6889 23.0039 20.6889 23.1863C20.6889 23.3686 20.7613 23.5435 20.8902 23.6724C21.0192 23.8013 21.194 23.8738 21.3764 23.8738C21.5587 23.8738 21.7336 23.9462 21.8625 24.0751C21.9914 24.2041 22.0639 24.3789 22.0639 24.5613C22.0639 24.7436 21.9914 24.9185 21.8625 25.0474C21.7336 25.1763 21.5587 25.2488 21.3764 25.2488H18.1011L18.0998 25.2502Z" fill="url(#paint0_linear_1_1776)"/>
<defs>
<linearGradient id="paint0_linear_1_1776" x1="9" y1="17.0074" x2="31" y2="17.0074" gradientUnits="userSpaceOnUse">
<stop stop-color="#FE1D37"/>
</linearGradient>
</defs>
</svg>
