<svg width="36" height="38" viewBox="0 0 36 38" fill="none" xmlns="http://www.w3.org/2000/svg">
<path d="M17.9989 1C27.3879 1 35 8.55394 35 17.8711C35 23.4898 32.2221 28.4526 27.9664 31.5189L29.5894 37L23.9903 33.6456C22.1246 34.3444 20.1116 34.7422 18.0011 34.7422C8.61215 34.7422 1.00002 27.1883 1.00002 17.8711C1.00002 8.55394 8.60998 1 17.9989 1Z" fill="white" stroke="#260004" stroke-width="2" stroke-linecap="round" stroke-linejoin="round"/>
<path d="M17.9863 25.28C15.6263 25.28 13.9663 24.46 12.8863 23.2L14.5263 20.96C15.4263 21.8 16.4663 22.4 17.6263 22.4C19.0063 22.4 19.9063 21.82 19.9063 20.7C19.9063 19.42 19.2263 18.66 16.1063 18.66V16.14C18.6463 16.14 19.4463 15.38 19.4463 14.2C19.4463 13.18 18.8463 12.62 17.7463 12.62C16.7463 12.62 15.9863 13.06 15.0863 13.86L13.2863 11.68C14.6663 10.52 16.1463 9.84 17.9063 9.84C20.9863 9.84 23.0063 11.28 23.0063 13.94C23.0063 15.42 22.2063 16.58 20.6263 17.22V17.32C22.2663 17.82 23.4863 19.02 23.4863 20.94C23.4863 23.72 20.9463 25.28 17.9863 25.28Z" fill="#260004"/>
</svg>
