<svg width="504" height="88" viewBox="0 0 252 44" fill="none" xmlns="http://www.w3.org/2000/svg">
<path d="M241.808 34.916C238.583 34.916 235.057 33.497 232.649 31.519L235.53 27.563C237.68 29.24 239.744 30.186 241.98 30.186C244.388 30.186 245.463 29.154 245.463 27.649C245.463 25.843 242.969 25.026 240.432 24.037C237.379 22.876 233.982 21.027 233.982 16.985C233.982 12.685 237.465 9.63196 242.969 9.63196C246.452 9.63196 249.161 11.094 251.139 12.599L248.301 16.426C246.581 15.179 244.904 14.362 243.141 14.362C240.948 14.362 239.916 15.308 239.916 16.684C239.916 18.447 242.152 19.092 244.689 20.038C247.871 21.242 251.397 22.833 251.397 27.305C251.397 31.519 248.086 34.916 241.808 34.916Z" fill="#260004"/>
<path d="M210.43 34.916C205.227 34.916 202.991 31.304 202.991 25.284V10.234H209.312V24.467C209.312 28.165 210.344 29.498 212.666 29.498C214.644 29.498 215.934 28.638 217.568 26.488V10.234H223.889V34.314H218.729L218.256 30.874H218.084C216.02 33.325 213.698 34.916 210.43 34.916Z" fill="#260004"/>
<path d="M171.402 34.314V10.234H176.562L177.035 13.416H177.164C179.271 11.352 181.722 9.63196 184.99 9.63196C190.193 9.63196 192.429 13.244 192.429 19.307V34.314H186.108V20.081C186.108 16.34 185.076 15.05 182.711 15.05C180.733 15.05 179.486 15.996 177.723 17.759V34.314H171.402Z" fill="#260004"/>
<path d="M150.247 34.916C144.227 34.916 138.68 30.272 138.68 22.274C138.68 14.276 144.227 9.63196 150.247 9.63196C156.267 9.63196 161.814 14.276 161.814 22.274C161.814 30.272 156.267 34.916 150.247 34.916ZM150.247 29.756C153.515 29.756 155.364 26.832 155.364 22.274C155.364 17.759 153.515 14.792 150.247 14.792C146.979 14.792 145.13 17.759 145.13 22.274C145.13 26.832 146.979 29.756 150.247 29.756Z" fill="#260004"/>
<path d="M120.295 34.916C118.145 34.916 115.823 33.798 113.888 31.777H113.716L113.157 34.314H108.212V0H114.533V8.643L114.361 12.513C116.253 10.793 118.661 9.632 121.026 9.632C126.96 9.632 130.529 14.491 130.529 21.844C130.529 30.143 125.584 34.916 120.295 34.916ZM118.876 29.713C121.8 29.713 124.036 27.219 124.036 21.973C124.036 17.372 122.574 14.835 119.263 14.835C117.629 14.835 116.167 15.652 114.533 17.329V27.907C116.038 29.24 117.586 29.713 118.876 29.713Z" fill="#260004"/>
<path d="M62.1972 43.559V10.234H67.3572L67.8302 12.728H67.9592C69.9802 11.008 72.4742 9.63196 75.0542 9.63196C80.9882 9.63196 84.5142 14.491 84.5142 21.887C84.5142 30.143 79.5692 34.916 74.2802 34.916C72.1732 34.916 70.1522 33.97 68.3032 32.293L68.5182 36.249V43.559H62.1972ZM72.8612 29.713C75.7852 29.713 78.0212 27.219 78.0212 21.973C78.0212 17.372 76.5592 14.835 73.2482 14.835C71.6142 14.835 70.1522 15.652 68.5182 17.329V27.907C70.0232 29.24 71.5712 29.713 72.8612 29.713Z" fill="#260004"/>
<path d="M31.0279 34.314V30.659C39.3269 22.747 44.7879 17.329 44.7879 12.728C44.7879 9.58898 43.0679 7.69698 40.0149 7.69698C37.6929 7.69698 35.8009 9.24499 34.1669 11.008L30.7269 7.56798C33.6509 4.42898 36.4889 2.70898 40.8319 2.70898C46.8519 2.70898 50.8509 6.53598 50.8509 12.384C50.8509 17.802 45.8629 23.392 40.1869 29.326C41.7779 29.154 43.8849 28.982 45.3899 28.982H52.3559V34.314H31.0279Z" fill="#260004"/>
<path d="M0.603088 43.559V10.234H5.76309L6.23609 12.728H6.36509C8.38609 11.008 10.8801 9.63196 13.4601 9.63196C19.3941 9.63196 22.9201 14.491 22.9201 21.887C22.9201 30.143 17.9751 34.916 12.6861 34.916C10.5791 34.916 8.55809 33.97 6.70909 32.293L6.92409 36.249V43.559H0.603088ZM11.2671 29.713C14.1911 29.713 16.4271 27.219 16.4271 21.973C16.4271 17.372 14.9651 14.835 11.6541 14.835C10.0201 14.835 8.55809 15.652 6.92409 17.329V27.907C8.42909 29.24 9.97709 29.713 11.2671 29.713Z" fill="#260004"/>
</svg>
