<svg width="251" height="44" viewBox="0 0 251 44" fill="none" xmlns="http://www.w3.org/2000/svg">
<path d="M241.205 35.3149C237.98 35.3149 234.454 33.8959 232.046 31.9179L234.927 27.9619C237.077 29.6389 239.141 30.5849 241.377 30.5849C243.785 30.5849 244.86 29.5529 244.86 28.0479C244.86 26.2419 242.366 25.4249 239.829 24.4359C236.776 23.2749 233.379 21.4259 233.379 17.3839C233.379 13.0839 236.862 10.0309 242.366 10.0309C245.849 10.0309 248.558 11.4929 250.536 12.9979L247.698 16.8249C245.978 15.5779 244.301 14.7609 242.538 14.7609C240.345 14.7609 239.313 15.7069 239.313 17.0829C239.313 18.8459 241.549 19.4909 244.086 20.4369C247.268 21.6409 250.794 23.2319 250.794 27.7039C250.794 31.9179 247.483 35.3149 241.205 35.3149Z" fill="white"/>
<path d="M209.827 35.3149C204.624 35.3149 202.388 31.7029 202.388 25.6829V10.6329H208.709V24.8659C208.709 28.5639 209.741 29.8969 212.063 29.8969C214.041 29.8969 215.331 29.0369 216.965 26.8869V10.6329H223.286V34.7129H218.126L217.653 31.2729H217.481C215.417 33.7239 213.095 35.3149 209.827 35.3149Z" fill="white"/>
<path d="M170.799 34.7129V10.6329H175.959L176.432 13.8149H176.561C178.668 11.7509 181.119 10.0309 184.387 10.0309C189.59 10.0309 191.826 13.6429 191.826 19.7059V34.7129H185.505V20.4799C185.505 16.7389 184.473 15.4489 182.108 15.4489C180.13 15.4489 178.883 16.3949 177.12 18.1579V34.7129H170.799Z" fill="white"/>
<path d="M149.644 35.3149C143.624 35.3149 138.077 30.6709 138.077 22.6729C138.077 14.6749 143.624 10.0309 149.644 10.0309C155.664 10.0309 161.211 14.6749 161.211 22.6729C161.211 30.6709 155.664 35.3149 149.644 35.3149ZM149.644 30.1549C152.912 30.1549 154.761 27.2309 154.761 22.6729C154.761 18.1579 152.912 15.1909 149.644 15.1909C146.376 15.1909 144.527 18.1579 144.527 22.6729C144.527 27.2309 146.376 30.1549 149.644 30.1549Z" fill="white"/>
<path d="M119.692 35.3149C117.542 35.3149 115.22 34.1969 113.285 32.1759H113.113L112.554 34.7129H107.609V0.39893H113.93V9.04193L113.758 12.9119C115.65 11.1919 118.058 10.0309 120.423 10.0309C126.357 10.0309 129.926 14.8899 129.926 22.2429C129.926 30.5419 124.981 35.3149 119.692 35.3149ZM118.273 30.1119C121.197 30.1119 123.433 27.6179 123.433 22.3719C123.433 17.7709 121.971 15.2339 118.66 15.2339C117.026 15.2339 115.564 16.0509 113.93 17.7279V28.3059C115.435 29.6389 116.983 30.1119 118.273 30.1119Z" fill="white"/>
<path d="M61.5941 43.9579V10.6329H66.7541L67.2271 13.1269H67.3561C69.3771 11.4069 71.8711 10.0309 74.4511 10.0309C80.3851 10.0309 83.9111 14.8899 83.9111 22.2859C83.9111 30.5419 78.9661 35.3149 73.6771 35.3149C71.5701 35.3149 69.5491 34.3689 67.7001 32.6919L67.9151 36.6479V43.9579H61.5941ZM72.2581 30.1119C75.1821 30.1119 77.4181 27.6179 77.4181 22.3719C77.4181 17.7709 75.9561 15.2339 72.6451 15.2339C71.0111 15.2339 69.5491 16.0509 67.9151 17.7279V28.3059C69.4201 29.6389 70.9681 30.1119 72.2581 30.1119Z" fill="white"/>
<path d="M30.4248 34.7129V31.0579C38.7238 23.1459 44.1848 17.7279 44.1848 13.1269C44.1848 9.98793 42.4648 8.09593 39.4118 8.09593C37.0898 8.09593 35.1978 9.64393 33.5638 11.4069L30.1238 7.96693C33.0478 4.82793 35.8858 3.10793 40.2288 3.10793C46.2488 3.10793 50.2478 6.93493 50.2478 12.7829C50.2478 18.2009 45.2598 23.7909 39.5838 29.7249C41.1748 29.5529 43.2818 29.3809 44.7868 29.3809H51.7528V34.7129H30.4248Z" fill="white"/>
<path d="M0 43.9579V10.6329H5.16L5.633 13.1269H5.762C7.783 11.4069 10.277 10.0309 12.857 10.0309C18.791 10.0309 22.317 14.8899 22.317 22.2859C22.317 30.5419 17.372 35.3149 12.083 35.3149C9.976 35.3149 7.955 34.3689 6.106 32.6919L6.321 36.6479V43.9579H0ZM10.664 30.1119C13.588 30.1119 15.824 27.6179 15.824 22.3719C15.824 17.7709 14.362 15.2339 11.051 15.2339C9.417 15.2339 7.955 16.0509 6.321 17.7279V28.3059C7.826 29.6389 9.374 30.1119 10.664 30.1119Z" fill="white"/>
</svg>
