<svg width="266" height="62" viewBox="0 0 266 62" fill="none" xmlns="http://www.w3.org/2000/svg">
<g clip-path="url(#clip0_92_1541)">
<path d="M98.8245 21.1852C101.424 22.821 103.478 25.0944 104.984 27.9979C106.491 30.9014 107.246 34.1996 107.246 37.8887C107.246 41.5778 106.503 44.8836 105.019 47.8136C103.535 50.7399 101.504 53.0247 98.927 54.6605C96.3499 56.2963 93.5072 57.1161 90.3987 57.1161C88.1708 57.1161 86.072 56.6683 84.0984 55.7688C82.1248 54.8693 80.489 53.7762 79.1909 52.482V52.8957C79.1909 54.095 78.7962 55.097 78.0068 55.9054C77.2173 56.71 76.2192 57.1161 75.0122 57.1161C73.8053 57.1161 72.8071 56.7252 72.0177 55.9396C71.2282 55.1577 70.8335 54.1405 70.8335 52.8957V9.465C70.8335 8.26565 71.2282 7.26367 72.0177 6.45525C72.8071 5.65063 73.8053 5.24452 75.0122 5.24452C76.2192 5.24452 77.2173 5.65063 78.0068 6.45525C78.7962 7.26367 79.1909 8.26565 79.1909 9.465V23.9178C80.303 22.5363 81.8591 21.3256 83.8555 20.2857C85.8519 19.2495 87.9393 18.7295 90.1217 18.7295C93.325 18.7295 96.2247 19.5493 98.8245 21.1852ZM96.3879 46.1854C98.2894 43.9727 99.242 41.2058 99.242 37.8887C99.242 34.5715 98.3007 31.8161 96.422 29.6261C94.5433 27.4362 92.0953 26.3393 89.0779 26.3393C86.0606 26.3393 83.6012 27.4362 81.6997 29.6261C79.7944 31.8161 78.8456 34.5715 78.8456 37.8887C78.8456 41.2058 79.7944 43.9727 81.6997 46.1854C83.6012 48.3981 86.0606 49.5064 89.0779 49.5064C92.0953 49.5064 94.4826 48.3981 96.3879 46.1854Z" fill="white"/>
<path d="M148.275 47.8819C146.605 50.812 144.316 53.0816 141.416 54.6947C138.517 56.3077 135.325 57.1161 131.844 57.1161C128.364 57.1161 125.115 56.3115 122.238 54.6947C119.361 53.0816 117.088 50.812 115.414 47.8819C113.744 44.9557 112.909 41.6461 112.909 37.957C112.909 34.2679 113.744 30.9621 115.414 28.032C117.084 25.1058 119.358 22.821 122.238 21.1852C125.115 19.5494 128.318 18.7295 131.844 18.7295C135.37 18.7295 138.517 19.5494 141.416 21.1852C144.316 22.821 146.601 25.1058 148.275 28.032C149.945 30.9583 150.78 34.2679 150.78 37.957C150.78 41.6461 149.945 44.9519 148.275 47.8819ZM140.999 31.9033C140.046 30.1309 138.771 28.757 137.169 27.7891C135.568 26.8213 133.791 26.3355 131.844 26.3355C129.897 26.3355 128.121 26.8175 126.519 27.7891C124.918 28.757 123.643 30.1309 122.69 31.9033C121.737 33.6796 121.263 35.6949 121.263 37.9532C121.263 40.2115 121.737 42.2192 122.69 43.9689C123.639 45.7224 124.918 47.0811 126.519 48.0489C128.121 49.0168 129.897 49.5026 131.844 49.5026C133.791 49.5026 135.568 49.0206 137.169 48.0489C138.771 47.0811 140.046 45.7224 140.999 43.9689C141.948 42.2154 142.426 40.2115 142.426 37.9532C142.426 35.6949 141.948 33.6758 140.999 31.9033Z" fill="white"/>
<path d="M187.333 22.9159C189.143 25.7055 190.047 29.5654 190.047 34.4994V52.2049C190.047 53.4042 189.652 54.4062 188.862 55.2146C188.073 56.023 187.075 56.4254 185.868 56.4254C184.661 56.4254 183.663 56.023 182.873 55.2146C182.084 54.41 181.689 53.4042 181.689 52.2049V34.4994C181.689 31.9641 181.154 29.9715 180.088 28.5179C179.021 27.0642 177.188 26.3393 174.588 26.3393C171.988 26.3393 169.783 27.1136 168.254 28.6545C166.724 30.1992 165.957 32.1463 165.957 34.4994V52.2049C165.957 53.4042 165.563 54.4062 164.773 55.2146C163.984 56.023 162.986 56.4254 161.779 56.4254C160.572 56.4254 159.573 56.023 158.784 55.2146C157.995 54.41 157.6 53.4042 157.6 52.2049V23.6408C157.6 22.4414 157.995 21.4395 158.784 20.631C159.573 19.8264 160.572 19.4203 161.779 19.4203C162.986 19.4203 163.984 19.8264 164.773 20.631C165.563 21.4395 165.957 22.4414 165.957 23.6408V24.8174C167.21 23.1588 168.846 21.7279 170.865 20.5286C172.884 19.3292 175.1 18.7295 177.514 18.7295C182.247 18.7295 185.519 20.1262 187.329 22.9121L187.333 22.9159Z" fill="white"/>
<path d="M229.09 20.631C229.879 21.4395 230.274 22.4414 230.274 23.6408V41.2058C230.274 46.1854 228.893 50.0833 226.129 52.8919C223.37 55.7042 219.434 57.1085 214.33 57.1085C209.225 57.1085 205.304 55.7042 202.564 52.8919C199.824 50.0795 198.457 46.1816 198.457 41.2058V23.6408C198.457 22.4414 198.852 21.4395 199.641 20.631C200.431 19.8264 201.429 19.4203 202.636 19.4203C203.843 19.4203 204.841 19.8264 205.631 20.631C206.42 21.4395 206.815 22.4414 206.815 23.6408V41.2058C206.815 44.0182 207.441 46.1057 208.693 47.4644C209.946 48.8232 211.825 49.5026 214.333 49.5026C216.842 49.5026 218.789 48.8232 220.042 47.4644C221.294 46.1057 221.92 44.0182 221.92 41.2058V23.6408C221.92 22.4414 222.315 21.4395 223.105 20.631C223.894 19.8264 224.888 19.4203 226.099 19.4203C227.31 19.4203 228.304 19.8264 229.094 20.631H229.09Z" fill="white"/>
<path d="M236.104 48.6069C236.104 47.4075 236.707 46.3941 237.914 45.563C238.563 45.1493 239.235 44.9405 239.933 44.9405C240.909 44.9405 241.835 45.3808 242.719 46.2537C244.112 47.6846 245.562 48.7435 247.069 49.4343C248.575 50.125 250.397 50.4704 252.534 50.4704C256.155 50.3338 257.965 48.9712 257.965 46.3904C257.965 45.0544 257.35 44.0372 256.121 43.3465C254.891 42.6557 252.978 41.9649 250.378 41.2704C247.687 40.5341 245.494 39.794 243.801 39.0577C242.104 38.3214 240.643 37.2017 239.413 35.7025C238.184 34.2034 237.569 32.188 237.569 29.6527C237.569 27.44 238.206 25.5157 239.482 23.8799C240.757 22.2441 242.427 20.9764 244.495 20.0769C246.56 19.1774 248.754 18.7295 251.073 18.7295C253.392 18.7295 255.806 19.1698 258.174 20.0428C260.542 20.9195 262.394 22.2099 263.742 23.914C264.345 24.6504 264.645 25.4815 264.645 26.4038C264.645 27.4665 264.205 28.3395 263.324 29.0302C262.675 29.5388 261.931 29.7893 261.096 29.7893C260.075 29.7893 259.24 29.4667 258.591 28.8215C257.756 27.8081 256.679 26.9997 255.354 26.4C254.029 25.8004 252.534 25.5005 250.864 25.5005C247.338 25.5005 245.573 26.7682 245.573 29.3035C245.573 30.3169 245.9 31.1367 246.549 31.7591C247.198 32.3816 248.021 32.8674 249.019 33.2128C250.018 33.5581 251.422 33.987 253.232 34.4918C255.737 35.1826 257.829 35.8999 259.499 36.6362C261.169 37.3725 262.584 38.5035 263.746 40.0255C264.903 41.5474 265.484 43.5514 265.484 46.0412C265.484 48.2994 264.812 50.273 263.465 51.9544C262.117 53.6395 260.39 54.9186 258.28 55.7915C256.17 56.6645 253.999 57.1047 251.771 57.1047C248.708 57.1047 245.854 56.5962 243.209 55.5828C240.563 54.5694 238.404 52.9336 236.734 50.6716C236.316 50.1174 236.108 49.4267 236.108 48.5955L236.104 48.6069Z" fill="white"/>
<path d="M19.7057 23.4017C20.6204 23.9786 21.3453 24.7794 21.8766 25.8042C22.408 26.8289 22.6737 27.9903 22.6737 29.2921C22.6737 30.5939 22.4118 31.7591 21.888 32.7915C21.3642 33.8238 20.6469 34.6284 19.7398 35.2053C18.8327 35.7822 17.8307 36.0707 16.7339 36.0707C15.9482 36.0707 15.2081 35.9113 14.5136 35.5963C13.819 35.2775 13.2421 34.8941 12.7829 34.4387V39.2171C12.7829 39.6384 12.6424 39.9951 12.3654 40.2798C12.0883 40.5644 11.7353 40.7049 11.3103 40.7049C10.8852 40.7049 10.5322 40.5682 10.2551 40.2912C9.97808 40.0141 9.83765 39.6573 9.83765 39.2171V24.267C9.83765 23.8457 9.97808 23.489 10.2551 23.2043C10.5322 22.9197 10.8852 22.7792 11.3103 22.7792C11.7353 22.7792 12.0883 22.9235 12.3654 23.2043C12.6424 23.489 12.7829 23.8419 12.7829 24.267V24.3657C13.1738 23.8799 13.7241 23.451 14.4263 23.0867C15.1284 22.7223 15.8647 22.5363 16.6352 22.5363C17.7662 22.5363 18.7872 22.8248 19.7057 23.4017ZM18.8441 32.2184C19.5159 31.4365 19.8499 30.4611 19.8499 29.2921C19.8499 28.1231 19.5197 27.1515 18.8555 26.3773C18.1913 25.6068 17.3297 25.2197 16.267 25.2197C15.2043 25.2197 14.3352 25.6068 13.6634 26.3773C12.9916 27.1515 12.6576 28.1193 12.6576 29.2921C12.6576 30.4649 12.9916 31.4365 13.6634 32.2184C14.3352 33.0002 15.2005 33.3873 16.267 33.3873C17.3335 33.3873 18.1723 32.9964 18.8441 32.2184Z" fill="white"/>
<path d="M35.4526 37.1068C35.7221 37.3763 35.8549 37.7103 35.8549 38.1088C35.8549 38.5073 35.7183 38.8148 35.4526 39.0728C35.1831 39.3309 34.8453 39.46 34.443 39.46H25.8578C25.4214 39.46 25.076 39.3271 24.8217 39.0577C24.5674 38.792 24.4422 38.4466 24.4422 38.0291C24.4422 37.6116 24.594 37.2435 24.8976 36.9246L30.4009 31.0797C31.0234 30.4118 31.5168 29.7362 31.8773 29.0606C32.2379 28.385 32.4201 27.7588 32.4201 27.1933C32.4201 26.4418 32.1506 25.789 31.6117 25.2348C31.0727 24.6845 30.4503 24.4075 29.7443 24.4075C29.2547 24.4075 28.7651 24.5707 28.2679 24.8971C27.7707 25.2235 27.3229 25.6523 26.9168 26.1875C26.6131 26.5898 26.226 26.791 25.7554 26.791C25.3834 26.791 25.0456 26.6505 24.7344 26.3659C24.4232 26.0812 24.2676 25.7624 24.2676 25.4132C24.2676 25.1627 24.3511 24.9084 24.5219 24.6466C24.6889 24.3885 24.9432 24.0924 25.2809 23.7546C25.9224 23.1208 26.6625 22.6084 27.5013 22.2251C28.3438 21.8418 29.1522 21.6482 29.9265 21.6482C31.0386 21.6482 32.014 21.8835 32.8565 22.3503C33.6991 22.8172 34.3481 23.4624 34.7998 24.2822C35.2552 25.102 35.483 26.0319 35.483 27.068C35.483 28.1042 35.2097 29.1365 34.6632 30.2182C34.1166 31.2961 33.3803 32.3284 32.4542 33.3152L29.2471 36.7007H34.4506C34.8529 36.7007 35.1907 36.8336 35.4602 37.103L35.4526 37.1068Z" fill="white"/>
<path d="M48.691 23.4017C49.6057 23.9786 50.3306 24.7794 50.862 25.8042C51.3933 26.8289 51.659 27.9903 51.659 29.2921C51.659 30.5939 51.3971 31.7591 50.8734 32.7915C50.3496 33.8238 49.6323 34.6284 48.7252 35.2053C47.8181 35.7822 46.8123 36.0707 45.7192 36.0707C44.9336 36.0707 44.1935 35.9113 43.4989 35.5963C42.8044 35.2775 42.2275 34.8941 41.7682 34.4387V39.2171C41.7682 39.6384 41.6278 39.9951 41.3507 40.2798C41.0737 40.5644 40.7207 40.7049 40.2956 40.7049C39.8705 40.7049 39.5176 40.5682 39.2405 40.2912C38.9634 40.0141 38.823 39.6573 38.823 39.2171V24.267C38.823 23.8457 38.9634 23.489 39.2405 23.2043C39.5176 22.9197 39.8705 22.7792 40.2956 22.7792C40.7207 22.7792 41.0737 22.9235 41.3507 23.2043C41.6278 23.489 41.7682 23.8419 41.7682 24.267V24.3657C42.1591 23.8799 42.7095 23.451 43.4116 23.0867C44.1138 22.7223 44.8501 22.5363 45.6205 22.5363C46.7516 22.5363 47.7725 22.8248 48.691 23.4017ZM47.8295 32.2184C48.5012 31.4365 48.8352 30.4611 48.8352 29.2921C48.8352 28.1231 48.505 27.1515 47.8408 26.3773C47.1767 25.6068 46.3151 25.2197 45.2524 25.2197C44.1897 25.2197 43.3205 25.6068 42.6488 26.3773C41.977 27.1515 41.643 28.1193 41.643 29.2921C41.643 30.4649 41.977 31.4365 42.6488 32.2184C43.3205 33.0002 44.1859 33.3873 45.2524 33.3873C46.3189 33.3873 47.1577 32.9964 47.8295 32.2184Z" fill="white"/>
<path d="M22.6964 2.52702C16.7718 4.14765 11.5986 7.47242 7.68559 12.1445L8.19037 7.40789C8.20935 7.21433 8.06892 7.03974 7.87536 7.02076C7.75011 7.00938 7.63245 7.06251 7.56034 7.1536C7.51859 7.20294 7.49202 7.26746 7.48443 7.33578L6.8544 13.2528C6.84301 13.3705 6.89235 13.4919 6.98724 13.564C7.08212 13.6399 7.21116 13.6589 7.32503 13.6209L12.9877 11.6891C13.1699 11.6246 13.2724 11.4234 13.2079 11.2412C13.1434 11.0591 12.9422 10.9604 12.7562 11.0211L8.27008 12.5544C12.0882 8.01516 17.1247 4.78907 22.8899 3.21019C38.4169 -1.04065 54.5283 8.04552 58.8057 23.47C60.4567 29.4212 60.172 35.6114 57.9859 41.3804C57.9176 41.5626 58.0087 41.7676 58.1947 41.8359C58.2668 41.8625 58.3427 41.8662 58.4148 41.8473C58.5211 41.8169 58.6121 41.741 58.6539 41.6309C60.8932 35.7215 61.1854 29.3756 59.4927 23.284C55.1014 7.4838 38.599 -1.82629 22.6964 2.52702Z" fill="#FF0000" stroke="#FF0000" stroke-width="1.44225" stroke-linecap="round" stroke-linejoin="round"/>
<path d="M53.4125 49.4229L47.6776 51.1422C47.4917 51.1991 47.3854 51.3965 47.4385 51.5824C47.4917 51.7684 47.6928 51.8747 47.8826 51.8178L52.475 50.4438C48.7252 54.6491 43.8785 57.6551 38.4055 59.1542C22.8786 63.4051 6.76713 54.3189 2.48972 38.8945C0.838727 32.9433 1.12338 26.753 3.30953 20.984C3.37784 20.8018 3.28675 20.5969 3.10078 20.5286C2.9186 20.4602 2.71365 20.5513 2.64533 20.7335C0.406053 26.6429 0.113808 32.9888 1.80655 39.0804C6.19023 54.8806 22.6926 64.1869 38.5953 59.8336C44.1935 58.3003 49.1503 55.2298 52.9874 50.9372L52.308 55.6018C52.2815 55.7953 52.4143 55.9737 52.6079 56.0003C52.7331 56.0193 52.8508 55.9699 52.9267 55.8826C52.9684 55.8333 52.9988 55.7726 53.0102 55.7042L53.8679 49.8176C53.8831 49.6999 53.8414 49.5785 53.7465 49.4988C53.6516 49.4191 53.5263 49.3925 53.4125 49.4267V49.4229Z" fill="#FF0000" stroke="#FF0000" stroke-width="1.44225" stroke-linecap="round" stroke-linejoin="round"/>
</g>
<defs>
<clipPath id="clip0_92_1541">
<rect width="265.48" height="60.8857" fill="white" transform="translate(0 0.735596)"/>
</clipPath>
</defs>
</svg>
