<svg viewBox="0 0 21 29" fill="none" xmlns="http://www.w3.org/2000/svg">
<path d="M13.8594 20.625L20.0156 25.5L17.0625 28.0625L11 23.1875L13.8594 20.625ZM20.1719 12.0938V13.1719C20.1719 14.901 19.9375 16.4531 19.4688 17.8281C19.0104 19.2031 18.349 20.375 17.4844 21.3438C16.6198 22.3021 15.599 23.0365 14.4219 23.5469C13.2448 24.0573 11.9375 24.3125 10.5 24.3125C9.07292 24.3125 7.76562 24.0573 6.57812 23.5469C5.39062 23.0365 4.36458 22.3021 3.5 21.3438C2.63542 20.375 1.96354 19.2031 1.48438 17.8281C1.01562 16.4531 0.78125 14.901 0.78125 13.1719V12.0938C0.78125 10.3542 1.01562 8.80208 1.48438 7.4375C1.96354 6.0625 2.63021 4.89062 3.48438 3.92188C4.33854 2.95312 5.35938 2.21354 6.54688 1.70312C7.73438 1.19271 9.04167 0.9375 10.4688 0.9375C11.9062 0.9375 13.2135 1.19271 14.3906 1.70312C15.5781 2.21354 16.6042 2.95312 17.4688 3.92188C18.3333 4.89062 19 6.0625 19.4688 7.4375C19.9375 8.80208 20.1719 10.3542 20.1719 12.0938ZM15.4375 13.1719V12.0625C15.4375 10.8542 15.3229 9.79167 15.0938 8.875C14.875 7.95833 14.5521 7.1875 14.125 6.5625C13.7083 5.9375 13.1927 5.46875 12.5781 5.15625C11.9635 4.83333 11.2604 4.67188 10.4688 4.67188C9.67708 4.67188 8.97396 4.83333 8.35938 5.15625C7.74479 5.46875 7.22917 5.9375 6.8125 6.5625C6.39583 7.1875 6.07812 7.95833 5.85938 8.875C5.64062 9.79167 5.53125 10.8542 5.53125 12.0625V13.1719C5.53125 14.3698 5.64062 15.4323 5.85938 16.3594C6.07812 17.276 6.39583 18.0521 6.8125 18.6875C7.23958 19.3125 7.76042 19.7865 8.375 20.1094C9 20.4323 9.70833 20.5938 10.5 20.5938C11.2917 20.5938 11.9896 20.4323 12.5938 20.1094C13.2083 19.7865 13.724 19.3125 14.1406 18.6875C14.5677 18.0521 14.8906 17.276 15.1094 16.3594C15.3281 15.4323 15.4375 14.3698 15.4375 13.1719Z" fill="url(#paint0_linear_1_1117)"/>
<defs>
<linearGradient id="paint0_linear_1_1117" x1="-1" y1="13" x2="22" y2="13" gradientUnits="userSpaceOnUse">
<stop stop-color="#FE1D37"/>
</linearGradient>
</defs>
</svg>
