<svg width="180" height="180" viewBox="0 0 180 180" fill="none" xmlns="http://www.w3.org/2000/svg">
<circle cx="90" cy="90" r="88.5" fill="white" stroke="#FF8F94" stroke-width="3"/>
<path d="M38.391 153V151.32H40.631V144.782H38.741V143.494C39.791 143.312 40.491 143.046 41.149 142.626H42.675V151.32H44.621V153H38.391ZM50.3308 153.196C48.2168 153.196 46.8168 151.348 46.8168 147.764C46.8168 144.194 48.2168 142.444 50.3308 142.444C52.4448 142.444 53.8448 144.208 53.8448 147.764C53.8448 151.348 52.4448 153.196 50.3308 153.196ZM50.3308 151.586C51.2268 151.586 51.8848 150.69 51.8848 147.764C51.8848 144.88 51.2268 144.026 50.3308 144.026C49.4348 144.026 48.7628 144.88 48.7628 147.764C48.7628 150.69 49.4348 151.586 50.3308 151.586ZM59.5546 151.656C59.5546 150.592 59.5546 144.796 59.5546 143.606C59.5546 143.116 59.5126 142.416 59.4146 141.926H61.5986C61.5426 142.416 61.4726 143.032 61.4726 143.606V145.678C63.3486 146.224 66.0366 147.218 67.3246 147.848L66.5266 149.78C65.0846 149.024 62.9846 148.212 61.4726 147.694V151.656C61.4726 152.062 61.5426 153.042 61.5986 153.616H59.4146C59.4986 153.056 59.5546 152.216 59.5546 151.656ZM71.1466 146.518C71.6506 146.56 72.6726 146.602 73.4006 146.602C75.0526 146.602 79.6586 146.602 80.9186 146.602C81.5766 146.602 82.1926 146.546 82.5566 146.518V148.716C82.2206 148.702 81.5066 148.646 80.9186 148.646C79.6586 148.646 75.0386 148.646 73.4006 148.646C72.6026 148.646 71.6646 148.688 71.1466 148.716V146.518ZM92.5806 142.08C92.2586 142.57 91.8946 143.2 91.7266 143.508L91.6846 143.578H94.4986C94.9326 143.578 95.3946 143.508 95.7166 143.41L97.1446 144.292C96.9906 144.558 96.7946 144.95 96.6826 145.3C96.3046 146.546 95.5066 148.408 94.2466 149.976C92.9166 151.6 91.2226 152.888 88.5906 153.924L86.9386 152.44C89.7946 151.586 91.3626 150.368 92.5806 148.982C93.5326 147.89 94.3446 146.21 94.5686 145.16H90.6346C89.6966 146.378 88.4786 147.61 87.1066 148.548L85.5386 147.386C87.9886 145.888 89.2066 144.082 89.9066 142.878C90.1166 142.528 90.4106 141.884 90.5366 141.408L92.5806 142.08ZM102.633 142.36C103.613 143.018 105.433 144.474 106.245 145.328L104.817 146.784C104.089 146 102.339 144.474 101.317 143.76L102.633 142.36ZM100.883 151.684C103.067 151.376 104.887 150.662 106.245 149.85C108.639 148.436 110.459 146.294 111.341 144.404L112.433 146.378C111.369 148.268 109.507 150.2 107.253 151.558C105.839 152.412 104.033 153.196 102.059 153.532L100.883 151.684ZM119.685 153.196C116.871 153.196 114.715 151.32 114.715 147.862C114.715 144.446 116.927 142.444 119.685 142.444C121.183 142.444 122.219 143.088 122.891 143.774L121.785 145.09C121.267 144.6 120.679 144.222 119.755 144.222C118.019 144.222 116.843 145.566 116.843 147.792C116.843 150.046 117.865 151.404 119.909 151.404C120.399 151.404 120.917 151.264 121.197 151.012V148.968H119.363V147.274H123.059V151.95C122.345 152.65 121.113 153.196 119.685 153.196ZM125.968 153V142.626H132.324V144.362H128.04V146.756H131.666V148.492H128.04V151.264H132.478V153H125.968ZM137.339 153V144.362H134.427V142.626H142.337V144.362H139.411V153H137.339Z" fill="#260004"/>
<path d="M141.02 138.394L143.555 132.244L145.837 133.519L141.677 138.761L141.02 138.394Z" fill="url(#paint0_linear_42_317)"/>
<path d="M146.226 144.39L152.493 142.159L153.072 144.708L146.393 145.125L146.226 144.39Z" fill="url(#paint1_linear_42_317)"/>
<path d="M144.703 141.024L149.233 135.644L151.221 137.895L145.208 141.595L144.703 141.024Z" fill="url(#paint2_linear_42_317)"/>
<g clip-path="url(#clip0_42_317)">
<path d="M104.86 57.8414C104.609 57.5887 104.464 57.2148 104.474 56.8426C104.483 56.496 104.62 56.1859 104.86 55.9679L104.874 55.9579C104.921 55.9004 104.967 55.8411 105.014 55.78C104.708 55.6268 104.483 55.3495 104.382 55.0011C104.171 54.3006 103.949 53.6065 103.723 52.937C103.61 52.6242 103.468 52.3277 103.357 52.1052C103.169 51.7385 103.011 51.4339 102.821 51.1356L102.803 51.1146L102.776 51.0809C102.745 51.0417 102.719 51.0088 102.692 50.9778C102.395 50.6486 102.063 50.3175 101.701 49.9919C101.46 49.7839 101.203 49.5841 100.937 49.3972C100.724 49.2585 100.517 49.1299 100.201 48.9347L100.165 48.9128L100.086 48.8636C99.9734 48.7943 99.861 48.724 99.7494 48.6538C99.2457 48.3428 98.7931 48.0819 98.3634 47.8548C97.7764 47.5693 97.1483 47.3066 96.4425 47.0513C96.1115 46.9409 95.7741 46.8323 95.4624 46.732L95.4258 46.7202L95.3563 46.6983L95.3033 46.6809L95.2612 46.6673L95.2338 46.6581L95.1954 46.6454L95.1789 46.6399L95.1497 46.6308L95.1259 46.6235L95.1094 46.6189C94.7108 46.4921 94.2134 46.3353 93.7417 46.1683C93.1858 45.975 92.6226 45.7442 91.9707 45.4432L91.6717 45.3073L91.5227 45.2398C91.0354 45.0237 90.6203 44.8285 90.2857 44.6616C89.8066 44.4262 89.4089 44.1791 89.0688 43.9054C89.0944 43.9565 89.0971 44.0204 89.0998 44.0824L89.1044 44.1116L89.1072 44.1708C89.109 44.211 89.1108 44.2493 89.1136 44.2876C89.1282 44.439 89.1529 44.6123 89.1885 44.8193C89.2352 44.9981 89.2928 45.2015 89.3604 45.4232C89.3933 45.5116 89.4281 45.5992 89.4656 45.6858C89.5707 45.7369 89.674 45.809 89.7709 45.902C90.0059 46.1401 90.1485 46.4648 90.1604 46.7922C90.4027 46.8998 90.592 47.0722 90.7245 47.3012C90.9083 47.6049 90.9558 47.977 90.8562 48.3209C90.7044 48.8791 90.1558 49.3014 89.5817 49.3014C89.4601 49.3014 89.3403 49.2804 89.226 49.2403C88.4278 48.9822 87.4916 48.6648 86.602 48.2716C86.0452 48.0299 85.4902 47.7308 85.0441 47.4909L84.917 47.4234C84.4251 47.1644 83.8976 46.8752 83.3682 46.5177C82.954 46.2422 82.5856 45.9558 82.2436 45.6421C81.9108 45.3319 81.6146 45.0136 81.344 44.7163C81.0386 44.3779 80.7332 44.0204 80.447 43.6838L80.4297 43.6637L80.4123 43.6437L80.3931 43.6209L80.3748 43.5999L80.3574 43.5789L80.3428 43.5625L80.3264 43.5433C80.1389 43.3217 79.9506 43.1 79.7604 42.8793C79.5053 42.5865 79.3106 42.3612 79.1268 42.136C79.114 42.3695 79.0637 42.7088 78.9796 43.1456C78.9906 43.2232 78.9961 43.3098 79.0016 43.3992L79.008 43.5005C79.029 43.8635 79.0052 44.2274 78.9796 44.5685C78.9549 44.8385 78.9129 45.1194 78.8452 45.4514L78.8242 45.56L78.8205 45.58C78.7657 45.8673 78.7035 46.1921 78.5965 46.5314C78.4777 46.9254 78.3506 47.2556 78.1979 47.5702C78.016 47.9524 77.7764 48.2954 77.5844 48.5699C77.1757 49.1628 76.7872 49.6671 76.3968 50.1113L76.288 50.2336C76.2267 50.3011 76.1554 50.3613 76.0749 50.4132C76.0182 50.499 75.9552 50.5902 75.8912 50.6814C75.5282 51.2004 75.2219 51.6318 74.8699 52.0778C74.5234 52.512 74.1467 52.9352 73.8148 53.3082L73.8048 53.3201L73.6201 53.5281C73.3888 53.7907 73.1437 54.0881 72.8914 54.4101C72.8429 54.4712 72.7954 54.5332 72.7478 54.5952L72.7168 54.6353C72.6518 54.7202 72.5869 54.8041 72.5202 54.888L72.5101 54.9008C72.4891 55.4644 72.0896 55.9661 71.5392 56.1202C71.4944 56.133 71.445 56.144 71.3691 56.1567L71.4166 56.1148C71.349 56.1531 71.2621 56.1704 71.1552 56.1704C71.1085 56.1704 71.0592 56.1668 70.9952 56.1585C70.57 56.0883 70.2226 55.8484 69.9876 55.4654C69.9126 55.3477 69.845 55.2091 69.8002 55.1151L69.7737 55.0604L69.727 54.9673L69.663 54.8442C69.5817 54.691 69.5049 54.5414 69.4445 54.3854C69.3385 54.1209 69.2571 53.8692 69.1766 53.6129L69.1318 53.4724C68.9353 52.8759 68.7844 52.367 68.6564 51.8708L68.4809 51.1904L68.3904 50.841L68.3465 50.6659L68.3026 50.4953L68.1819 50.0265C68.0091 49.3579 67.8738 48.745 67.7668 48.1531C67.6726 47.604 67.5675 46.9692 67.5145 46.3882C67.4861 46.0343 67.4761 45.695 67.4852 45.3785C67.4944 45.0528 67.509 44.7026 67.5638 44.3213C67.6717 43.6756 67.8729 43.0316 68.1965 42.2938C68.6592 41.2321 69.3321 40.1832 70.3131 38.9938C70.6962 38.5323 71.1442 38.0023 71.6251 37.539C72.0594 37.1231 72.5577 36.7035 73.1492 36.2557C73.4564 36.024 73.7728 35.796 74.0269 35.6117L74.08 35.5725L74.1174 35.5451L74.1275 35.5378L74.1778 35.5014L74.2354 35.4603L74.2701 35.4348C74.3862 35.3518 74.5024 35.2688 74.6166 35.1849L74.762 35.08C74.954 34.9432 75.2347 34.7425 75.4797 34.5382C75.552 33.3899 75.6635 32.1759 76.1371 31.0713C76.7826 29.5545 78.0141 28.5384 78.933 27.9528C79.6032 27.5214 80.3437 27.2624 80.9142 27.0854C81.4646 26.9085 82.0854 26.7808 82.8699 26.6814C83.3334 26.6239 83.776 26.5947 84.1837 26.5947C84.3291 26.5947 84.5193 26.6011 84.7652 26.613C85.2745 26.6495 85.7965 26.7224 86.1778 26.7762L86.2089 26.7799L86.229 26.7817C86.3936 26.8063 86.5545 26.8282 86.7145 26.8483C86.9248 26.8757 87.1332 26.903 87.3426 26.9276L87.4624 26.9422H87.4806L87.5062 26.9486H87.5254L87.5949 26.9596L87.648 26.966L87.6992 26.9723C87.9835 27.0079 88.319 27.0499 88.6518 27.0973C89.2315 27.1803 89.8651 27.2989 90.5883 27.4612C91.8006 27.7276 92.9536 28.076 94.016 28.4974C94.9924 28.8814 96.1417 29.3511 97.2571 29.9184C97.7398 30.1601 98.2473 30.4502 98.7666 30.7813C99.0025 30.9308 99.2356 31.0841 99.4688 31.2382L99.5008 31.2592L99.5373 31.2829L99.552 31.292L99.5675 31.3021C99.8134 31.4644 100.037 31.6104 100.257 31.7499C100.683 32.0153 101.116 32.2497 101.498 32.4577L101.527 32.4732L101.543 32.4814L101.562 32.4914C102.026 32.7423 102.551 33.0259 103.028 33.3452C103.375 33.5805 103.715 33.8386 103.987 34.0466L104.021 34.0721L104.041 34.0876L104.053 34.0958L104.101 34.1323L104.153 34.1724C104.306 34.2892 104.46 34.405 104.616 34.5199C104.769 34.634 104.921 34.7452 105.076 34.8565L105.093 34.8684C105.322 35.0307 105.739 35.3244 106.091 35.6126C107.013 36.3733 107.918 37.2872 108.779 38.3298C109.146 38.7785 109.571 39.3148 109.939 39.8977C110.121 40.1795 110.257 40.4686 110.393 40.7642C110.517 41.025 110.655 41.3397 110.732 41.6918C110.893 42.3923 110.988 43.0371 111.023 43.6646C111.05 44.2794 111.003 44.8859 110.959 45.4724L110.955 45.5536L110.949 45.6293C110.865 46.66 110.713 47.7353 110.467 49.0141C110.322 49.7684 110.185 50.3275 110.021 50.8264C109.902 51.1986 109.754 51.6282 109.569 52.1389L109.438 52.5083L109.298 52.917C109.217 53.1623 109.047 53.6731 108.861 54.1455C108.613 54.7913 108.304 55.3787 108.063 55.8165C107.856 56.1987 107.628 56.61 107.362 57.0278C107.196 57.2923 106.993 57.6161 106.745 57.8414C106.455 58.0995 106.139 58.2308 105.806 58.2308C105.472 58.2308 105.117 58.0885 104.867 57.8414H104.86Z" fill="#B6B6B6"/>
<path d="M83.8858 131.022C83.7431 130.778 83.6764 130.486 83.7148 130.185C83.7505 129.915 83.7834 129.644 83.8172 129.374L83.8209 129.344L83.8254 129.309L83.8291 129.283C83.9351 128.423 84.0449 127.534 84.1774 126.655L84.2871 125.933L84.289 125.92C84.4298 124.988 84.5879 123.936 84.7607 122.921C84.8741 122.262 85.0039 121.563 85.1091 121.002L85.1237 120.921L85.1283 120.896C85.2581 120.205 85.3559 119.672 85.4465 119.153C85.537 118.636 85.6257 118.119 85.7134 117.601C85.8378 116.871 85.9713 116.096 86.1047 115.347C86.5345 112.952 86.9815 110.402 87.3153 107.856L87.3665 107.473C87.4643 106.745 87.5649 105.997 87.6225 105.245C87.6243 105.218 87.6252 105.192 87.6252 105.165C87.6252 105.048 87.6417 104.932 87.6746 104.821C87.5466 104.679 87.4195 104.53 87.3125 104.402C86.9249 103.941 86.4595 103.313 86.2949 102.543C86.2327 102.244 86.1815 101.888 86.273 101.518C86.3114 101.371 86.3635 101.231 86.4247 101.112C86.55 100.861 86.7036 100.62 86.8929 100.373C87.201 99.9766 87.5594 99.62 87.9607 99.2287C88.2213 98.976 88.4426 98.769 88.6711 98.5829C88.6675 98.5656 88.6666 98.5428 88.6666 98.5191C88.6666 98.1132 88.8595 97.7228 89.1813 97.4738C89.2179 97.4455 89.2581 97.42 89.2956 97.3972C89.4913 97.264 89.7271 97.1929 89.9786 97.1929C90.3937 97.1929 90.8033 97.389 91.0474 97.7036C91.1031 97.7766 91.1498 97.8532 91.1882 97.9326C91.2567 98.0129 91.329 98.0931 91.3994 98.1716C91.6252 98.4178 91.8611 98.6495 92.0988 98.862C92.1738 98.9268 92.2487 98.9915 92.3246 99.0563L92.3365 99.0654L92.4078 99.1265L92.4234 99.1402L92.4545 99.1667L92.5093 99.2141C92.7562 99.4257 93.0195 99.6519 93.2709 99.8781C93.5498 100.132 93.9036 100.476 94.1642 100.902C94.4586 101.382 94.5975 101.959 94.5573 102.525C94.5271 102.911 94.3644 103.288 94.2254 103.575C94.0801 103.877 93.9045 104.155 93.7363 104.41L93.5781 104.65C93.5031 104.763 93.4309 104.873 93.3587 104.983C93.3678 105.049 93.3715 105.123 93.3678 105.203C93.409 105.664 93.4821 106.131 93.5534 106.582L93.59 106.811L93.622 107.019L93.6595 107.257C94.0206 107.5 94.2382 107.904 94.2391 108.334C94.2894 108.779 94.3726 109.228 94.454 109.662L94.4586 109.686L94.4677 109.74L94.4906 109.861L94.5079 109.955C94.5198 110.017 94.5308 110.079 94.5418 110.142C94.6414 110.693 94.7402 111.298 94.8526 112.049C95.0254 113.223 95.1863 114.467 95.3573 115.963C95.4917 117.157 95.6225 118.401 95.755 119.766L95.7779 120.005L95.7843 120.07L95.7916 120.152C95.8931 121.218 96.0101 122.425 96.0997 123.591C96.1975 124.888 96.2652 126.179 96.3009 127.428L96.3036 127.532C96.3173 128.037 96.3347 128.73 96.3429 129.376C96.5468 129.544 96.6977 129.778 96.7671 130.031C96.8604 130.366 96.8046 130.726 96.641 131.024H83.8913L83.8858 131.022Z" fill="#FFA4B2"/>
<path d="M87.0253 88.8857C86.5033 88.8547 85.9831 88.8027 85.4656 88.7288C84.3794 88.5747 83.2905 88.3457 82.2537 87.9855C82.2647 87.9891 82.2756 87.9928 82.2866 87.9964C82.2546 87.9855 82.2235 87.9745 82.1915 87.9636C81.578 87.7501 80.9984 87.4646 80.4224 87.1646C79.8829 86.8827 79.3527 86.5854 78.837 86.2625C78.3012 85.9269 77.8011 85.5401 77.3184 85.1324C77.2955 85.1133 77.2736 85.0932 77.2516 85.0731C77.2187 85.0439 77.1849 85.0138 77.1511 84.9847C77.1273 84.9664 77.1044 84.9463 77.0834 84.9254C77.0962 84.9372 77.1099 84.9482 77.1227 84.96C77.109 84.9473 77.0953 84.9354 77.0816 84.9235C77.0807 84.9226 77.0797 84.9217 77.0797 84.9217C76.682 84.5687 76.309 84.1893 75.957 83.7907C75.9634 83.798 75.9698 83.8053 75.9762 83.8126C75.9597 83.7944 75.9433 83.7752 75.9268 83.757C75.9168 83.746 75.9067 83.7342 75.8967 83.7232C75.8921 83.7177 75.8875 83.7114 75.882 83.7068C75.8839 83.7086 75.8857 83.7114 75.8875 83.7132C75.0619 82.7728 74.2976 81.7768 73.6557 80.7024C73.0057 79.6124 72.5001 78.4139 72.1746 77.1871C72.0557 76.7393 71.9497 76.2887 71.8564 75.8345C71.8564 75.8345 71.8564 75.8354 71.8564 75.8363C71.84 75.7551 71.8226 75.674 71.8071 75.5937C71.8071 75.5937 71.8071 75.5937 71.8071 75.5946C71.5419 74.3058 71.3417 73.0024 71.1735 71.6981C71.008 70.4221 70.901 69.1379 70.8361 67.8527C70.7712 66.5502 70.7264 65.245 70.7337 63.9398C70.741 62.6483 70.7629 61.3559 70.8077 60.0652C70.8343 59.3283 70.8882 58.5922 70.9431 57.857C70.9513 57.7421 70.9604 57.6281 70.9705 57.5132L70.9924 57.5232L71.0208 57.5369L71.0491 57.5497L71.0775 57.5624L71.1058 57.5752L71.1351 57.588L71.1643 57.6007L71.1927 57.6126L71.2219 57.6245L71.2503 57.6354L71.2786 57.6454L71.307 57.6564L71.3353 57.6664L71.3645 57.6764L71.3938 57.6865L71.4221 57.6965L71.4505 57.7065L71.4788 57.7166L71.5072 57.7266L71.5364 57.7366L71.5657 57.7467L71.594 57.7567L71.6233 57.7667L71.6526 57.7768L71.6836 57.7868L71.7147 57.7968L71.7458 57.806L71.7778 57.8151L71.8089 57.8242L71.84 57.8324L71.872 57.8406L71.9031 57.8479L71.9351 57.8552L71.9661 57.8616L71.9972 57.868L72.0292 57.8744L72.0621 57.8798L72.096 57.8853L72.1326 57.8908L72.1691 57.8954L72.2066 57.8999L72.2477 57.9026L72.2907 57.9054H72.3355L72.3821 57.9063H72.4041C72.3849 58.1517 72.3666 58.397 72.3492 58.6424C72.2688 59.8901 72.2313 61.1379 72.2139 62.3883C72.1947 63.7154 72.1938 65.0407 72.2359 66.3669C72.2615 67.186 72.3044 68.0041 72.3575 68.8223C72.4388 69.8876 72.544 70.9493 72.6894 72.0092C72.8411 73.1101 73.0249 74.2055 73.2361 75.2973C73.2343 75.2891 73.2324 75.2799 73.2306 75.2717C73.2306 75.2717 73.2306 75.2708 73.2306 75.2699C73.226 75.2471 73.2215 75.2252 73.2169 75.2024C73.2215 75.2261 73.226 75.2489 73.2315 75.2726C73.2343 75.2854 73.237 75.2973 73.2388 75.31C73.2407 75.3201 73.2434 75.331 73.2452 75.342C73.2443 75.3374 73.2434 75.3328 73.2425 75.3274C73.2599 75.4122 73.2772 75.497 73.2946 75.5828C73.4427 76.2969 73.6292 77.0001 73.8605 77.6906C74.0535 78.2178 74.2711 78.7313 74.5179 79.2357C74.7757 79.7282 75.0555 80.2053 75.3609 80.6704C75.8564 81.3883 76.394 82.0796 76.9691 82.7354C76.96 82.7254 76.9508 82.7144 76.9417 82.7044C76.9847 82.7537 77.0285 82.8029 77.0715 82.8522C77.0779 82.8595 77.0843 82.8658 77.0898 82.8731C77.4007 83.2134 77.7243 83.5372 78.0644 83.8482C78.112 83.8856 78.1568 83.9266 78.2007 83.9668C78.2089 83.9731 78.2162 83.9804 78.2244 83.9877C78.2391 84.0005 78.2528 84.0133 78.2674 84.026C78.6258 84.3352 79.0052 84.6171 79.3947 84.8852C80.0676 85.3212 80.7707 85.707 81.4848 86.0728C81.856 86.257 82.2327 86.4349 82.624 86.5717C82.6194 86.5699 82.6157 86.569 82.6112 86.5681C82.6157 86.5699 82.6194 86.5708 82.624 86.5726C82.6295 86.5744 82.6359 86.5772 82.6414 86.579C82.6386 86.5781 82.6368 86.5772 82.634 86.5763C82.6468 86.5808 82.6587 86.5854 82.6715 86.5899C82.7008 86.6 82.73 86.61 82.7584 86.62C83.3115 86.7979 83.8692 86.9475 84.437 87.0688C85.2745 87.2348 86.1156 87.3616 86.9677 87.4236C87.4651 87.4546 87.9698 87.4765 88.4672 87.4473C88.8649 87.4236 89.1986 87.7967 89.1986 88.177C89.1986 88.3694 89.1209 88.5564 88.9847 88.6932C88.842 88.8346 88.6637 88.8957 88.4672 88.9067C88.3044 88.9158 88.1408 88.9204 87.9771 88.9204C87.6589 88.9204 87.3408 88.9058 87.0253 88.8875V88.8857Z" fill="#260004"/>
<path d="M89.3157 88.113C89.3157 87.9497 89.3705 87.7929 89.4693 87.6624C89.6018 87.4855 89.7993 87.4025 90.0124 87.3724C90.2912 87.3332 90.5765 87.325 90.8572 87.3085C91.4322 87.2675 92.0028 87.2091 92.5687 87.1015C93.0972 86.9866 93.6146 86.8379 94.1276 86.6673C94.4174 86.5606 94.6962 86.4347 94.9724 86.2988C95.403 86.0754 95.8208 85.8328 96.2277 85.5664C96.7022 85.2399 97.1511 84.8833 97.589 84.5084C97.9767 84.1636 98.3543 83.807 98.7191 83.4385C99.0656 83.0892 99.3948 82.7198 99.7212 82.3522C99.7522 82.3166 99.7833 82.2811 99.8153 82.2455C100.084 81.9363 100.342 81.6225 100.578 81.2887C100.747 81.0333 100.899 80.7697 101.039 80.497C101.347 79.8594 101.621 79.2073 101.881 78.5478C102.139 77.893 102.387 77.2335 102.62 76.5695C103.172 74.956 103.618 73.3042 103.972 71.6369C104.209 70.4511 104.358 69.2517 104.44 68.0459V68.0487C104.443 68.0186 104.444 67.9894 104.446 67.9593C104.517 66.8301 104.576 65.6982 104.573 64.5663C104.571 63.3641 104.478 62.1638 104.427 60.9617C104.414 60.668 104.401 60.3743 104.39 60.0797C104.394 59.8763 104.395 59.6729 104.395 59.4686C104.395 59.174 104.388 58.8794 104.37 58.5848C104.364 58.4753 104.358 58.3649 104.351 58.2546C104.352 57.8268 104.362 57.399 104.385 56.9722H104.387L104.404 56.9749L104.421 56.9767L104.439 56.9795L104.457 56.9822L104.475 56.9849L104.494 56.9877L104.513 56.9904L104.532 56.9931L104.55 56.9959L104.569 56.9986L104.587 57.0014L104.605 57.0041L104.623 57.0068L104.64 57.0096L104.657 57.0123L104.675 57.015L104.691 57.0178L104.708 57.0205L104.724 57.0232L104.741 57.026L104.757 57.0287L104.774 57.0315L104.79 57.0342L104.806 57.0369L104.821 57.0397L104.837 57.0424L104.852 57.0451L104.868 57.0479L104.882 57.0497L104.897 57.0524L104.912 57.0552L104.926 57.057L104.94 57.0588L104.954 57.0616L104.967 57.0634L104.981 57.0661L104.995 57.0689L105.008 57.0716L105.022 57.0743L105.036 57.0771L105.05 57.0798L105.063 57.0825L105.077 57.0853L105.091 57.088L105.105 57.0907L105.119 57.0935L105.134 57.0962L105.147 57.0989L105.161 57.1017L105.175 57.1044L105.189 57.1072L105.201 57.1099L105.214 57.1126L105.228 57.1154L105.242 57.1181L105.254 57.1218L105.268 57.1254L105.281 57.129L105.295 57.1327L105.308 57.1363L105.322 57.14L105.337 57.1446L105.351 57.1491L105.367 57.1537L105.382 57.1582L105.398 57.1628L105.414 57.1674L105.43 57.1728L105.447 57.1774L105.464 57.1819L105.48 57.1865L105.497 57.1911L105.512 57.1956L105.529 57.2002L105.544 57.2048L105.56 57.2084L105.575 57.2121L105.59 57.2157L105.605 57.2193L105.619 57.223L105.634 57.2257L105.648 57.2294L105.663 57.233L105.678 57.2358L105.692 57.2385L105.707 57.2412L105.722 57.244L105.736 57.2467L105.751 57.2494L105.766 57.2522L105.781 57.2549L105.797 57.2567L105.811 57.2595L105.826 57.2613L105.84 57.2631C105.798 58.2327 105.83 59.205 105.865 60.1736C105.908 61.3749 105.99 62.5743 106.031 63.7755C106.079 65.2194 106.002 66.6678 105.906 68.1071C105.906 68.1071 105.906 68.1061 105.906 68.1052C105.905 68.1171 105.904 68.128 105.904 68.1399C105.819 69.4041 105.669 70.6618 105.415 71.905C105.161 73.1555 104.833 74.3923 104.473 75.6164C104.118 76.8203 103.678 78.0006 103.218 79.1672C102.984 79.7609 102.737 80.3474 102.466 80.9239C102.203 81.4821 101.891 82.0047 101.518 82.4963C101.318 82.759 101.103 83.0071 100.884 83.2543C100.904 83.2305 100.925 83.2077 100.946 83.184C100.134 84.1053 99.2933 84.9982 98.3525 85.7899C97.8633 86.2022 97.3586 86.5935 96.8183 86.9364C96.2789 87.2794 95.7175 87.5831 95.136 87.8476C94.7767 88.0118 94.3954 88.1294 94.0178 88.2425C93.6585 88.3511 93.2965 88.445 92.9289 88.5234C92.1591 88.6876 91.3756 88.7424 90.592 88.7925C90.4832 88.7989 90.3735 88.8044 90.2656 88.8181C90.1989 88.839 90.1276 88.85 90.0544 88.85C89.6558 88.85 89.323 88.518 89.323 88.1203L89.3157 88.113Z" fill="#260004"/>
<path d="M71.0117 67.5936C70.6496 67.5607 70.2967 67.454 69.9895 67.257C69.7308 67.091 69.5013 66.8931 69.2846 66.6733C69.0716 66.4571 68.8714 66.2181 68.6986 65.9682C68.5084 65.6919 68.3548 65.4046 68.2176 65.099C67.9488 64.4988 67.808 63.833 67.6773 63.1918C67.5566 62.5962 67.4954 61.9915 67.4771 61.3849C67.4679 61.094 67.4917 60.8021 67.5255 60.5139C67.5557 60.253 67.6142 59.983 67.7002 59.7349C67.9132 59.1184 68.2158 58.5191 68.7196 58.0868C68.8165 58.0038 68.9171 57.9244 69.0213 57.8524H69.0231L69.0963 57.8259L69.1712 57.7977L69.2453 57.7685L69.3184 57.7384L69.3934 57.7074L69.4666 57.6754L69.5379 57.6435L69.6074 57.6116L69.6741 57.5797L69.7399 57.5477L69.8058 57.5149L69.8707 57.4821L69.9347 57.4492L69.9959 57.4164L70.0343 57.3954C70.0554 57.3918 70.0764 57.3881 70.0974 57.3863C70.3077 57.3589 70.5134 57.3589 70.7173 57.3899H70.7182L70.7374 57.4L70.7566 57.4091L70.7767 57.4191L70.7968 57.4292L70.8179 57.4392L70.8398 57.4501L70.8618 57.462L70.8855 57.4739L70.9102 57.4857L70.9349 57.4985L70.9614 57.5113L70.9888 57.524L71.0172 57.5377L71.0455 57.5505L71.0739 57.5632L71.1022 57.576L71.1315 57.5888L71.1607 57.6016L71.1891 57.6134L71.2183 57.6253L71.2467 57.6362L71.275 57.6462L71.3034 57.6572L71.3317 57.6672L71.361 57.6773L71.3902 57.6873L71.4186 57.6973L71.4469 57.7074L71.4752 57.7174L71.5036 57.7274L71.5328 57.7375L71.5621 57.7475L71.5859 57.7557C71.6572 57.8095 71.7239 57.8679 71.7852 57.9299C71.8931 58.0375 71.9671 58.1579 72.0503 58.2829C72.033 58.2574 72.0165 58.2318 71.9991 58.2072C71.9991 58.2072 71.9991 58.2063 71.9982 58.2054V58.2063C71.9781 58.1835 71.958 58.1607 71.937 58.137H71.9379C71.9141 58.1169 71.8912 58.0968 71.8675 58.0758C71.8419 58.0585 71.8154 58.0412 71.7898 58.0239C71.7824 58.0211 71.7742 58.0184 71.766 58.0166C72.0247 58.1579 72.1875 58.4416 72.1454 58.7535C72.0933 59.1384 71.7148 59.4431 71.3216 59.3774C71.0858 59.3382 70.9148 59.2132 70.7868 59.0199C70.7767 59.0034 70.7667 58.987 70.7566 58.9688C70.7466 58.9588 70.7356 58.9478 70.7255 58.9378C70.7164 58.9305 70.7072 58.9232 70.6981 58.9168C70.6807 58.9068 70.6624 58.8958 70.6451 58.8858C70.6112 58.8703 70.5783 58.8566 70.5436 58.8429C70.5262 58.8384 70.5088 58.8338 70.4924 58.8283C70.475 58.8256 70.4576 58.8229 70.4403 58.821H70.3863C70.3644 58.8238 70.3424 58.8265 70.3205 58.8292C70.2848 58.8374 70.2501 58.8466 70.2154 58.8575C70.1651 58.8776 70.1166 58.9004 70.0682 58.9232C70.006 58.9588 69.9447 58.9943 69.8826 59.0326C69.8076 59.0864 69.7354 59.1412 69.664 59.2005C69.6211 59.2433 69.579 59.2871 69.537 59.3318C69.4949 59.3856 69.4538 59.4394 69.4135 59.4951C69.3687 59.568 69.3258 59.641 69.2837 59.7167C69.2288 59.8316 69.1786 59.9484 69.131 60.067C69.0899 60.1928 69.0533 60.3196 69.0213 60.4482C68.9856 60.6343 68.961 60.8203 68.9454 61.0092C68.9381 61.2582 68.9418 61.5044 68.9546 61.7534C68.9911 62.1903 69.0524 62.6208 69.1374 63.0513C69.2298 63.4654 69.3294 63.8768 69.4638 64.2799C69.5251 64.4396 69.5918 64.5955 69.665 64.7515C69.718 64.8518 69.7747 64.9503 69.8341 65.047C69.9493 65.2103 70.0709 65.3672 70.2007 65.5186C70.3068 65.6344 70.4165 65.7457 70.5326 65.8515C70.5957 65.9035 70.6606 65.9518 70.7264 65.9992C70.7694 66.0266 70.8133 66.0521 70.8572 66.0777C70.8618 66.0795 70.8654 66.0813 70.8709 66.0831C70.923 66.0996 70.976 66.1132 71.0291 66.126C71.0885 66.1361 71.1479 66.1433 71.2083 66.1497C71.6051 66.1853 71.8858 66.5912 71.8336 66.9715C71.808 67.1603 71.7066 67.3336 71.5557 67.4504C71.4204 67.5553 71.2622 67.6 71.0958 67.6C71.0675 67.6 71.0382 67.5981 71.009 67.5954L71.0117 67.5936Z" fill="#260004"/>
<path d="M106.176 66.5126C105.778 66.4852 105.499 66.0648 105.551 65.6899C105.576 65.5011 105.678 65.3278 105.829 65.2119C105.981 65.0943 106.155 65.0569 106.341 65.0651C106.343 65.0651 106.345 65.0642 106.347 65.0633C106.35 65.0624 106.352 65.0614 106.353 65.0605C106.412 65.0286 106.469 64.9949 106.524 64.9593C106.553 64.9383 106.58 64.9164 106.608 64.8936C106.696 64.8088 106.779 64.7203 106.862 64.63C106.985 64.485 107.1 64.3354 107.211 64.1804C107.299 64.0463 107.381 63.9104 107.457 63.7681C107.496 63.6842 107.531 63.5994 107.564 63.5127C107.612 63.364 107.654 63.2144 107.687 63.063C107.723 62.8496 107.744 62.6353 107.76 62.42C107.778 62.1309 107.784 61.8445 107.771 61.5553C107.752 61.3228 107.722 61.0929 107.681 60.8631C107.63 60.6359 107.563 60.4143 107.489 60.1936C107.418 59.992 107.34 59.7932 107.248 59.5998C107.163 59.442 107.073 59.287 106.978 59.1355C106.928 59.0653 106.877 58.9969 106.823 58.9303C106.792 58.8984 106.761 58.8674 106.729 58.8355C106.697 58.8099 106.666 58.7853 106.632 58.7607C106.62 58.7534 106.608 58.7461 106.597 58.7397C106.583 58.7342 106.57 58.7297 106.557 58.7242C106.532 58.7169 106.505 58.7087 106.48 58.7023C106.472 58.7014 106.465 58.7005 106.458 58.6996H106.454C106.436 58.7069 106.417 58.7151 106.4 58.7224C106.329 58.7616 106.259 58.8045 106.191 58.8491C106.056 58.9431 105.926 59.0425 105.799 59.1483C105.775 59.1711 105.751 59.1948 105.728 59.2185C105.716 59.2322 105.706 59.2459 105.695 59.2596C105.573 59.5588 105.248 59.7822 104.916 59.7166C104.693 59.6719 104.517 59.5633 104.391 59.3754C104.39 59.1219 104.383 58.8692 104.369 58.6166C104.492 58.3685 104.711 58.1596 104.916 57.9836C105.131 57.7993 105.368 57.6361 105.61 57.4901C105.765 57.3971 105.936 57.325 106.11 57.2812H106.128L106.14 57.284H106.152L106.165 57.2867H106.189L106.201 57.2895H106.213L106.224 57.2922H106.236L106.248 57.2949H106.259L106.27 57.2977H106.282L106.292 57.3004H106.303L106.314 57.3013H106.324L106.334 57.3041H106.344L106.354 57.3068H106.364L106.375 57.3095H106.386L106.397 57.3123H106.409L106.421 57.315H106.432L106.444 57.3177H106.455L106.467 57.3205H106.479L106.491 57.3232H106.502L106.513 57.3259H106.525L106.536 57.3287H106.547L106.558 57.3314H106.58L106.592 57.3342H106.616L106.628 57.3369H106.654L106.67 57.3396H106.702L106.718 57.3405H106.736L106.753 57.3414H106.997C107.03 57.3524 107.063 57.3643 107.094 57.377C107.852 57.6862 108.285 58.4031 108.628 59.1036C108.765 59.3845 108.86 59.6883 108.957 59.9838C109.056 60.2839 109.121 60.5903 109.172 60.9014C109.254 61.403 109.259 61.9184 109.227 62.4246C109.209 62.7155 109.185 63.0047 109.136 63.2929C109.082 63.6185 108.981 63.9396 108.856 64.2442C108.656 64.7285 108.335 65.1718 107.995 65.5667C107.821 65.7674 107.637 65.9653 107.423 66.125C107.323 66.2007 107.214 66.2654 107.105 66.3283C106.98 66.4004 106.847 66.4506 106.709 66.4907C106.599 66.5226 106.488 66.5327 106.374 66.5327C106.309 66.5327 106.244 66.529 106.179 66.5244V66.5162L106.176 66.5126ZM105.332 58.3384C105.322 58.332 105.312 58.3265 105.302 58.3201C105.288 58.3165 105.275 58.3128 105.262 58.3092C105.285 58.3174 105.309 58.3274 105.332 58.3384Z" fill="#260004"/>
<path d="M79.7321 92.7225C79.7294 92.7554 79.7275 92.7882 79.7248 92.821C79.7266 92.7955 79.7285 92.77 79.7303 92.7444C79.7952 91.7466 79.8016 90.7533 79.7367 89.7555C79.6873 89.0568 79.6251 88.3545 79.4935 87.6649C79.4999 87.696 79.5063 87.7279 79.5127 87.7598C79.4981 87.6868 79.4834 87.613 79.4651 87.54C79.4313 87.4561 79.4121 87.3649 79.4121 87.27C79.4121 87.166 79.4341 87.073 79.4706 86.9763C79.6224 86.5732 80.1527 86.4117 80.5138 86.6297C80.693 86.7382 80.8082 86.9052 80.8631 87.1031C80.896 87.2226 80.9189 87.3448 80.9426 87.4661C80.9902 87.7133 81.0286 87.9623 81.0587 88.2131C81.1227 88.7531 81.1703 89.2939 81.205 89.8366C81.2599 90.6995 81.2544 91.5596 81.2105 92.4215C81.0862 92.3942 80.9582 92.3814 80.8265 92.3787H80.8174C80.3959 92.3723 79.9845 92.5994 79.7166 92.9232C79.7221 92.8557 79.7266 92.7882 79.7312 92.7207L79.7321 92.7225Z" fill="#260004"/>
<path d="M97.7838 93.4277C97.5479 93.0519 97.1328 92.8239 96.6803 92.8057C96.6748 92.8057 96.6702 92.8057 96.6647 92.8047C96.5623 92.8002 96.4599 92.8111 96.3584 92.8339C96.3219 92.3104 96.2999 91.785 96.2771 91.2615C96.2496 90.6385 96.2341 90.0146 96.2423 89.3908C96.2469 89.0496 96.2579 88.7085 96.278 88.3683C96.288 88.1932 96.2981 88.019 96.3155 87.8448C96.3328 87.6751 96.3465 87.4845 96.4425 87.3385C96.5486 87.1771 96.6903 87.0558 96.8796 87.0029C97.0688 86.9509 97.2736 86.9783 97.4428 87.0768C97.5881 87.1607 97.6777 87.2838 97.7518 87.4307C97.8313 87.5903 97.8313 87.7691 97.7765 87.9305C97.7619 88.0381 97.7555 88.1467 97.7481 88.2543C97.7481 88.2543 97.7481 88.2534 97.7481 88.2525C97.6558 89.751 97.7189 91.2587 97.8176 92.7573C97.8341 92.9972 97.8551 93.238 97.8816 93.477C97.8496 93.4587 97.8167 93.4423 97.7838 93.4277Z" fill="#260004"/>
<path d="M44.0996 131.674C44.0091 131.535 43.9927 131.369 44.0018 131.207C44.0109 131.052 44.0283 130.897 44.0484 130.742C44.0887 130.435 44.1298 130.128 44.1709 129.82C44.2532 129.216 44.3401 128.613 44.4397 128.012C44.6509 126.728 44.8749 125.445 45.12 124.167C45.1639 123.941 45.2087 123.714 45.2553 123.487C45.2507 123.508 45.2471 123.528 45.2425 123.548C45.2471 123.522 45.2516 123.498 45.2571 123.472C45.2608 123.45 45.2644 123.428 45.2708 123.407C45.2836 123.325 45.3056 123.243 45.322 123.163C45.3348 123.1 45.3485 123.037 45.3613 122.974C45.3961 122.807 45.4327 122.639 45.4683 122.472C45.5305 122.183 45.5963 121.895 45.664 121.607C45.962 120.343 46.2893 119.088 46.6231 117.834C46.9403 116.641 47.2978 115.461 47.7019 114.294C47.9177 113.669 48.1399 113.047 48.3712 112.427C48.5879 111.845 48.8155 111.264 49.0733 110.698C49.3403 110.112 49.6311 109.532 49.9748 108.986C50.3323 108.417 50.7346 107.883 51.1607 107.363C52.0091 106.328 52.9847 105.397 54.0032 104.53C55.0071 103.677 56.1243 102.957 57.2772 102.321C57.856 102.002 58.4503 101.708 59.0482 101.428C59.6324 101.154 60.2221 100.891 60.8228 100.657C61.9063 100.233 63.0061 99.8505 64.106 99.4692C64.2304 99.4255 64.3556 99.3817 64.4809 99.3388C65.2553 99.0697 66.0279 98.7952 66.8023 98.527C66.9129 98.4878 67.0272 98.4377 67.1433 98.4094C67.1634 98.4021 67.1844 98.3948 67.2055 98.3875C67.1872 98.3939 67.1689 98.4003 67.1515 98.4057C68.3666 97.9816 69.5872 97.5739 70.8087 97.1698C72.0237 96.7676 73.237 96.3617 74.4567 95.9732C75.9616 95.4934 77.4674 95.0146 78.9943 94.6114C79.0125 94.6068 79.0299 94.6023 79.0482 94.5986C79.0509 94.6488 79.0555 94.699 79.0619 94.7482C79.0592 94.75 79.0555 94.7519 79.0528 94.7537C78.9705 94.8048 78.9193 94.8796 78.8772 94.9607C78.8013 94.9817 78.7346 95.0218 78.6733 95.0738C78.5572 95.1714 78.506 95.3274 78.4429 95.4615C78.4091 95.5335 78.3762 95.6047 78.3433 95.6767C78.3204 95.7269 78.2967 95.778 78.2738 95.8291C78.2573 95.8446 78.2409 95.8619 78.2253 95.8801C78.1568 95.9631 78.1047 96.0516 78.0562 96.1483C78.0324 96.1957 78.0077 96.2431 77.984 96.2906C77.9611 96.3353 77.9373 96.3809 77.9145 96.4265C76.1097 96.9509 74.325 97.5465 72.5412 98.133C70.9239 98.6657 69.3092 99.2029 67.6992 99.7575C67.7101 99.7538 67.7211 99.7502 67.7312 99.7465C67.7111 99.7538 67.6909 99.7602 67.6708 99.7675C67.5657 99.8049 67.4578 99.8514 67.3481 99.8779C67.3152 99.8906 67.2813 99.9016 67.2475 99.9134C67.2777 99.9034 67.3079 99.8925 67.338 99.8824C66.5645 100.152 65.792 100.425 65.0185 100.694C64.8932 100.738 64.7671 100.782 64.6418 100.826C63.6452 101.172 62.6496 101.52 61.664 101.895C60.6884 102.266 59.7403 102.703 58.805 103.165C57.9895 103.582 57.1986 104.034 56.4306 104.532C55.8071 104.96 55.2128 105.419 54.6359 105.907C53.9008 106.561 53.2041 107.249 52.5495 107.984C52.1792 108.421 51.8253 108.866 51.4925 109.332C51.1808 109.801 50.9019 110.287 50.645 110.788C50.0717 111.982 49.621 113.232 49.1831 114.481C48.7799 115.649 48.4096 116.825 48.0896 118.019C47.7613 119.243 47.4349 120.468 47.1442 121.703C47.0043 122.297 46.8699 122.893 46.7456 123.491C46.7456 123.493 46.7456 123.495 46.7447 123.497C46.7437 123.502 46.7419 123.508 46.741 123.515C46.7255 123.597 46.7127 123.68 46.6898 123.76C46.6834 123.797 46.6761 123.833 46.6688 123.87C46.4247 125.104 46.2043 126.343 45.9949 127.584C45.8907 128.199 45.792 128.816 45.7042 129.434C45.6183 130.037 45.5213 130.642 45.4647 131.249C45.4912 131.619 45.2169 131.99 44.8347 132.028H44.8329C44.8027 132.032 44.7716 132.034 44.7424 132.034C44.4772 132.034 44.2487 131.901 44.1015 131.674H44.0996Z" fill="#260004"/>
<path d="M135.161 132.994C134.971 132.968 134.798 132.867 134.681 132.716C134.561 132.561 134.519 132.377 134.534 132.185C134.552 131.837 134.536 131.484 134.531 131.137C134.523 130.607 134.504 130.078 134.47 129.55C134.39 128.4 134.25 127.256 134.096 126.114C133.931 124.879 133.726 123.649 133.499 122.424C133.462 122.224 133.423 122.022 133.381 121.822C133.383 121.828 133.384 121.834 133.385 121.84C133.374 121.785 133.363 121.729 133.352 121.675V121.677C133.351 121.673 133.35 121.668 133.349 121.664C133.349 121.657 133.347 121.651 133.346 121.644V121.646V121.643C133.341 121.623 133.338 121.603 133.333 121.582C133.335 121.588 133.336 121.595 133.338 121.602C132.921 119.627 132.461 117.658 131.803 115.747C131.457 114.795 131.038 113.872 130.588 112.964C129.934 111.676 129.221 110.421 128.415 109.221C127.997 108.618 127.56 108.03 127.087 107.468C126.693 107.026 126.276 106.612 125.836 106.215C125.356 105.798 124.858 105.41 124.335 105.047C123.69 104.617 123.026 104.218 122.359 103.825C121.66 103.413 120.954 103.017 120.231 102.648C119.418 102.245 118.589 101.89 117.733 101.587C116.58 101.198 115.407 100.866 114.225 100.572C112.99 100.265 111.752 99.9657 110.514 99.6739C109.263 99.3793 108.005 99.1029 106.761 98.7791C105.556 98.4653 104.367 98.0968 103.167 97.7676C102.502 97.5852 101.836 97.4064 101.169 97.2294C101.144 97.1619 101.119 97.0944 101.09 97.0288C101.017 96.8646 100.944 96.7004 100.865 96.5399C100.799 96.4058 100.729 96.2745 100.651 96.1459C100.553 95.9844 100.451 95.8285 100.303 95.7081C100.157 95.5904 99.9926 95.5421 99.8125 95.5065C99.7558 95.4955 99.6964 95.491 99.6379 95.4928C99.5876 95.4244 99.5364 95.3569 99.4825 95.2894C99.4761 95.2812 99.4697 95.2739 99.4633 95.2666C99.7567 95.346 100.052 95.4207 100.345 95.5001C100.952 95.6634 101.559 95.823 102.166 95.9835C102.767 96.1422 103.365 96.3082 103.965 96.4733C104.567 96.6402 105.164 96.8208 105.765 96.9923C106.978 97.3389 108.201 97.6362 109.429 97.9208C110.693 98.2136 111.952 98.5228 113.214 98.8256C115.641 99.4084 118.091 100.01 120.354 101.084C121.482 101.619 122.565 102.242 123.636 102.884C124.184 103.212 124.73 103.546 125.254 103.909C125.787 104.278 126.292 104.675 126.779 105.102C127.296 105.554 127.792 106.038 128.235 106.563C128.644 107.048 129.026 107.552 129.393 108.069C130.14 109.121 130.794 110.235 131.407 111.371C132.021 112.512 132.587 113.686 133.05 114.898C133.497 116.067 133.831 117.283 134.129 118.497C134.36 119.434 134.575 120.377 134.771 121.322C135.027 122.569 135.242 123.825 135.429 125.084C135.604 126.271 135.756 127.463 135.865 128.658C135.934 129.414 135.975 130.171 135.99 130.931C135.995 131.18 135.997 131.429 135.998 131.679C135.999 131.91 136.005 132.141 135.984 132.371C135.951 132.735 135.605 133.001 135.253 133.001C135.222 133.001 135.192 132.999 135.161 132.995V132.994Z" fill="#260004"/>
<path d="M69.6667 57.5821L69.6749 57.5785L69.7407 57.5465L69.8066 57.5137L69.8715 57.4809L69.9355 57.448L69.9967 57.4152L70.0543 57.3833L70.111 57.3504L70.1668 57.3167L70.2207 57.282L70.2729 57.2474L70.3213 57.2127L70.3615 57.1826L70.3743 57.1908L70.3899 57.2009L70.4054 57.21L70.4219 57.22L70.4383 57.23L70.4548 57.2401L70.4722 57.251L70.4886 57.2611L70.5069 57.272L70.5252 57.2829L70.5435 57.2948L70.5618 57.3048L70.581 57.3158L70.6002 57.3267L70.6194 57.3377L70.6386 57.3477L70.6578 57.3577L70.6669 57.3623C70.5353 57.563 70.3085 57.698 70.0543 57.698C69.9117 57.698 69.7773 57.6551 69.6639 57.5821H69.6667Z" fill="#260004"/>
<path d="M106.037 58.4881C105.671 58.334 105.491 57.898 105.647 57.5322C105.662 57.4985 105.675 57.4629 105.687 57.4283C105.709 57.3662 105.73 57.3042 105.751 57.2422L105.758 57.244L105.773 57.2467L105.788 57.2486L105.803 57.2513L105.818 57.2531L105.832 57.255L105.847 57.2568L105.861 57.2586L105.874 57.2604L105.888 57.2623L105.902 57.2641L105.915 57.2659L105.929 57.2677L105.942 57.2695L105.955 57.2714L105.967 57.2732H105.98L105.993 57.2759L106.006 57.2778H106.018L106.031 57.2805H106.043L106.056 57.2832H106.069L106.082 57.286H106.095L106.107 57.2887H106.12L106.133 57.2914H106.146L106.158 57.2942H106.17L106.182 57.2951H106.194L106.206 57.2978H106.218L106.23 57.3006H106.242L106.254 57.3033H106.265L106.276 57.306H106.287L106.298 57.3088H106.309L106.319 57.3097H106.33L106.34 57.3124H106.35L106.36 57.3152H106.37L106.381 57.3179H106.392L106.403 57.3206H106.415L106.426 57.3234H106.437L106.449 57.3261H106.46L106.472 57.3288H106.484L106.496 57.3316H106.508L106.519 57.3343H106.531L106.542 57.337H106.553L106.564 57.3398H106.586L106.597 57.3425H106.621L106.633 57.3453H106.66L106.675 57.348H106.707L106.724 57.3489H106.741L106.758 57.3498H107.014L107.035 57.3471H107.056L107.078 57.3443L107.101 57.3425L107.125 57.3398L107.15 57.337L107.174 57.3343L107.199 57.3316L107.224 57.3288L107.247 57.3252L107.273 57.3215L107.283 57.3197C107.261 57.3845 107.24 57.4492 107.218 57.514C107.151 57.7156 107.09 57.9235 107.007 58.1196C106.889 58.3951 106.613 58.5638 106.327 58.5638C106.233 58.5638 106.138 58.5456 106.048 58.5082V58.4972L106.037 58.4881Z" fill="#260004"/>
<path d="M80.4791 59.4966C80.3118 59.3789 80.1737 59.1956 80.0713 59.0223C79.9826 58.8727 79.9195 58.7149 79.8674 58.5498C79.6425 57.8439 79.8583 56.9299 80.555 56.5751C81.0139 56.3416 81.5588 56.3015 82.0224 56.5459C82.4082 56.7503 82.6542 57.1352 82.7328 57.5565C82.7346 57.5648 82.7355 57.573 82.7374 57.5821C82.773 57.6633 82.8023 57.7463 82.826 57.8311C82.9586 58.3072 82.8644 58.8526 82.4878 59.1956C82.2702 59.3944 82.0132 59.5449 81.738 59.6471C81.5726 59.7009 81.4034 59.7292 81.2361 59.7292C80.971 59.7292 80.7113 59.6571 80.4809 59.4948L80.4791 59.4966Z" fill="#260004"/>
<path d="M95.5447 59.4377C95.1945 59.362 94.8928 59.1248 94.678 58.8457C94.5874 58.7281 94.5125 58.5995 94.4494 58.4645C94.3424 58.2374 94.3113 57.9938 94.3333 57.7457C94.3644 57.3937 94.5646 57.0598 94.8224 56.8245C94.8288 56.819 94.8352 56.8127 94.8416 56.8072C94.9029 56.7543 94.966 56.7041 95.0318 56.6567C95.1104 56.4934 95.2485 56.3603 95.4213 56.2873C95.5968 56.2125 95.7971 56.1997 95.9845 56.2271C96.0915 56.2435 96.1939 56.2736 96.2926 56.3156C96.5148 56.3502 96.7278 56.4369 96.9234 56.5728C97.2407 56.7935 97.4592 57.1529 97.5077 57.535C97.5561 57.9127 97.4272 58.2921 97.205 58.5958C97.1538 58.666 97.0944 58.7272 97.0286 58.7819C97.0021 58.8247 96.9747 58.8685 96.9454 58.9114C96.8357 59.0719 96.672 59.2261 96.5029 59.3246C96.3145 59.434 96.1116 59.4787 95.904 59.4787C95.7843 59.4787 95.6645 59.4641 95.5447 59.4377Z" fill="#260004"/>
<path d="M88.1381 77.6722C87.5795 77.6558 87.019 77.6084 86.4659 77.5281C86.2135 77.4917 85.9584 77.4515 85.7143 77.3813C85.5232 77.3266 85.3221 77.2582 85.1785 77.114C84.9701 76.9061 84.907 76.585 85.0222 76.3141C85.1356 76.0469 85.4053 75.8681 85.696 75.8681H85.6997C85.8204 75.8681 85.9347 75.8982 86.0361 75.952C86.0389 75.9529 86.0425 75.9548 86.0453 75.9557C86.1239 75.9803 86.2035 75.9995 86.2839 76.0177C86.7548 76.1071 87.2329 76.1591 87.7102 76.1937C88.2972 76.2275 88.8832 76.2175 89.4702 76.1791C89.9712 76.1454 90.4732 76.1071 90.966 76.0095C90.9468 76.0131 90.9285 76.0177 90.9093 76.0213C90.9294 76.0168 90.9495 76.0131 90.9696 76.0086C90.9815 76.0058 90.9934 76.004 91.0044 76.0013C90.9934 76.0031 90.9833 76.0058 90.9724 76.0077C91.3701 75.9247 91.7651 75.8316 92.1628 75.7486C92.1564 75.7495 92.15 75.7514 92.1427 75.7523C92.2661 75.7267 92.3877 75.6966 92.5065 75.6574C92.5285 75.6492 92.5504 75.6401 92.5724 75.631C92.5861 75.6228 92.5989 75.6146 92.6117 75.6063C92.6016 75.6136 92.5916 75.62 92.5815 75.6273C92.5833 75.6273 92.5852 75.6255 92.5861 75.6255C92.7388 75.5316 92.9052 75.4832 93.0889 75.5078C93.2782 75.5334 93.4519 75.6346 93.5689 75.7851C93.8021 76.0861 93.7664 76.585 93.4364 76.8085C93.0661 77.0602 92.6364 77.1387 92.2048 77.2253C91.7065 77.3293 91.2147 77.4597 90.7091 77.53C90.358 77.5783 90.0041 77.6011 89.6512 77.6257C89.2462 77.654 88.8412 77.6759 88.4361 77.6759C88.3365 77.6759 88.2368 77.675 88.1381 77.6722Z" fill="#260004"/>
<path d="M96.8137 90.5473C96.6244 90.5218 96.4507 90.4205 96.3337 90.27C96.2102 90.1104 96.1718 89.9225 96.1883 89.7255C96.2139 89.4209 96.2349 89.1162 96.256 88.8107C96.2971 88.1877 96.33 87.5648 96.3602 86.9409C96.3748 86.6499 96.3876 86.359 96.4013 86.068C96.4123 85.8573 96.4553 85.6384 96.6208 85.4897C96.768 85.3575 96.938 85.2754 97.1401 85.2754C97.5387 85.2754 97.8715 85.6074 97.8715 86.0051C97.8715 86.047 97.8678 86.089 97.8605 86.1291C97.824 86.7138 97.8057 87.3002 97.7737 87.8849C97.7353 88.5653 97.6941 89.2448 97.6374 89.9234C97.6073 90.2883 97.2562 90.5537 96.9051 90.5537C96.8749 90.5537 96.8438 90.5519 96.8137 90.5473ZM97.6411 86.5332C97.6457 86.5295 97.6512 86.5259 97.6557 86.5213C97.6758 86.4985 97.6969 86.4748 97.7179 86.4511C97.7353 86.4255 97.7526 86.4 97.77 86.3745C97.7728 86.369 97.7764 86.3626 97.7792 86.3562C97.7426 86.4219 97.695 86.4821 97.6411 86.5332Z" fill="#260004"/>
<path d="M79.8885 90.5362C79.7586 89.5794 79.6407 88.6181 79.4615 87.6695C79.413 87.4424 79.36 87.2162 79.3015 86.9909C79.2494 86.7884 79.1991 86.585 79.1342 86.3862C79.1314 86.378 79.1287 86.3698 79.126 86.3625C79.1232 86.3552 79.1205 86.347 79.1186 86.3397C79.1205 86.3442 79.1223 86.3488 79.1232 86.3543C79.0866 86.2412 79.0638 86.1271 79.0839 86.004C79.126 85.7504 79.2832 85.5325 79.5237 85.4303C79.7833 85.3209 80.1326 85.3701 80.3255 85.5863C80.3392 85.6018 80.352 85.6173 80.3648 85.6328C80.3749 85.6437 80.384 85.6556 80.3922 85.6665C80.3877 85.662 80.384 85.6565 80.3794 85.6519C80.4178 85.7021 80.448 85.7523 80.4791 85.8116C80.4965 85.8499 80.5102 85.8891 80.5202 85.9292C80.6181 86.2202 80.694 86.5175 80.7671 86.8149C80.8658 87.2208 80.9445 87.6312 81.0121 88.0435C81.1365 88.8051 81.2343 89.5731 81.3385 90.3374C81.3916 90.7314 81.1081 91.1063 80.7132 91.1601C80.6812 91.1647 80.6492 91.1665 80.6172 91.1665C80.2588 91.1665 79.9378 90.8983 79.8885 90.5362Z" fill="#260004"/>
<path d="M87.275 88.4331C87.1881 88.1176 87.3289 87.7737 87.6124 87.6077C87.7477 87.5283 87.8903 87.5119 88.0412 87.4992C88.3218 87.4745 88.6025 87.4435 88.8841 87.4244C89.1785 87.4052 89.4738 87.3879 89.7692 87.3687C89.7454 87.3706 89.7216 87.3724 89.6978 87.3733C89.7143 87.3724 89.7308 87.3715 89.7472 87.3706C89.7445 87.3706 89.7417 87.3706 89.739 87.3706C89.7426 87.3706 89.7463 87.3706 89.75 87.3706C89.7792 87.3687 89.8085 87.3669 89.8377 87.3651C89.8277 87.3651 89.8167 87.366 89.8066 87.3669C89.814 87.3669 89.8213 87.366 89.8286 87.3651C89.8204 87.3651 89.8121 87.366 89.8039 87.3669C89.8341 87.3651 89.8642 87.3633 89.8944 87.3605C89.8972 87.3605 89.8999 87.3605 89.9036 87.3605C89.9017 87.3605 89.9008 87.3605 89.899 87.3605C90.2647 87.3359 90.6313 87.3113 90.9961 87.2803C91.1945 87.2629 91.3829 87.3021 91.542 87.4253C91.6928 87.542 91.7943 87.7153 91.8199 87.9032C91.8711 88.2817 91.5922 88.6922 91.1945 88.7259C90.7831 88.7606 90.3708 88.788 89.9584 88.8153C89.9392 88.8162 89.92 88.8181 89.9008 88.819C89.9045 88.819 89.9081 88.819 89.9118 88.819C89.9036 88.819 89.8953 88.8199 89.8871 88.8208C89.8834 88.8208 89.8807 88.8208 89.877 88.8208C89.5762 88.8409 89.2754 88.8582 88.9746 88.8783C88.8028 88.891 88.6309 88.9074 88.459 88.9248C88.3612 88.9348 88.2624 88.9394 88.1637 88.9503C88.107 88.9649 88.0476 88.9731 87.9863 88.9731C87.659 88.9731 87.3609 88.7506 87.2732 88.4341L87.275 88.4331Z" fill="#260004"/>
<path d="M104.639 58.011C104.547 57.6653 104.464 57.3178 104.374 56.9712H104.386L104.403 56.9748L104.421 56.9767L104.438 56.9794L104.456 56.9821L104.474 56.9849L104.493 56.9876L104.512 56.9903L104.531 56.9931L104.549 56.9958L104.568 56.9986L104.586 57.0013L104.604 57.004L104.622 57.0068L104.639 57.0095L104.656 57.0122L104.674 57.015L104.69 57.0177L104.707 57.0204L104.723 57.0232L104.74 57.0259L104.756 57.0287L104.773 57.0314L104.789 57.0341L104.805 57.0369L104.82 57.0396L104.836 57.0423L104.851 57.0451L104.867 57.0478L104.881 57.0496L104.896 57.0524L104.911 57.0551L104.925 57.0569L104.939 57.0588L104.953 57.0615L104.966 57.0633L104.98 57.0661L104.994 57.0688L105.008 57.0715L105.021 57.0743L105.035 57.077L105.049 57.0797L105.062 57.0825L105.076 57.0852L105.09 57.0879L105.104 57.0907L105.118 57.0934L105.133 57.0961L105.146 57.0989L105.16 57.1016L105.174 57.1044L105.188 57.1071L105.2 57.1098L105.213 57.1126L105.227 57.1153L105.241 57.118L105.253 57.1217L105.267 57.1253L105.28 57.129L105.294 57.1326L105.307 57.1363L105.321 57.1399L105.336 57.1445L105.35 57.1491L105.366 57.1536L105.381 57.1582L105.397 57.1627L105.413 57.1673L105.429 57.1728L105.446 57.1773L105.463 57.1819L105.479 57.1864L105.496 57.191L105.511 57.1956L105.528 57.2001L105.543 57.2047L105.559 57.2083L105.574 57.212L105.589 57.2156L105.604 57.2193L105.618 57.2229L105.633 57.2257L105.648 57.2293L105.662 57.233L105.677 57.2357L105.691 57.2384L105.706 57.2412L105.721 57.2439L105.735 57.2466L105.75 57.2494L105.765 57.2521L105.78 57.2549L105.796 57.2567L105.81 57.2594L105.825 57.2612L105.839 57.2631L105.854 57.2649L105.868 57.2667L105.882 57.2685L105.895 57.2704L105.909 57.2722L105.923 57.274L105.936 57.2758L105.949 57.2777L105.962 57.2795H105.967C105.997 57.3981 106.027 57.5157 106.058 57.6343C106.159 58.0183 105.934 58.426 105.547 58.5318C105.485 58.5491 105.421 58.5573 105.359 58.5573C105.038 58.5573 104.733 58.3439 104.647 58.0219L104.639 58.011Z" fill="#260004"/>
<path d="M69.3714 57.9944C69.3531 57.9077 69.3403 57.8202 69.3312 57.7326L69.3952 57.7062L69.4683 57.6742L69.5396 57.6423L69.6091 57.6104L69.6759 57.5785L69.7417 57.5465L69.8075 57.5137L69.8724 57.4809L69.9364 57.448L69.9977 57.4152L70.0553 57.3833L70.112 57.3504L70.1677 57.3167L70.2217 57.282L70.2738 57.2474L70.3223 57.2127L70.3625 57.1826L70.3753 57.1908L70.3908 57.2009L70.4064 57.21L70.4228 57.22L70.4393 57.23L70.4557 57.2401L70.4731 57.251L70.4896 57.2611L70.5079 57.272L70.5261 57.2829L70.5444 57.2948L70.5627 57.3048L70.5819 57.3158L70.6011 57.3267L70.6203 57.3377L70.6395 57.3477L70.6587 57.3577L70.6779 57.3678L70.6971 57.3778L70.7163 57.3878L70.7355 57.3979L70.7547 57.407L70.7657 57.4125C70.7657 57.4216 70.7666 57.4307 70.7675 57.4398V57.4362C70.773 57.5219 70.7803 57.6095 70.7968 57.6934C70.7931 57.6761 70.7895 57.6578 70.7858 57.6405C70.8187 57.8238 70.8013 58.0026 70.7044 58.1677C70.6084 58.3309 70.4493 58.4532 70.2674 58.5033C70.2071 58.5198 70.1458 58.528 70.0827 58.528C69.7636 58.528 69.4372 58.3191 69.3668 57.9944H69.3714Z" fill="#260004"/>
<path d="M77.3559 97.2731C77.0048 97.1245 76.7909 96.6739 76.9664 96.3173C77.3138 95.6104 77.6759 94.909 78.0443 94.2131C78.2647 93.7962 78.4878 93.3821 78.7182 92.9717C78.9422 92.5722 79.1707 92.1754 79.3792 91.7677C79.5392 91.4439 79.6873 91.1156 79.8263 90.7817C79.8958 90.613 79.9579 90.4406 80.0311 90.2728C80.1591 89.9809 80.4023 89.7593 80.7406 89.7593C80.9719 89.7593 81.1813 89.8706 81.3157 90.042C81.312 90.0667 81.3093 90.0904 81.3083 90.115C81.2955 90.1478 81.2818 90.1807 81.2709 90.2144C81.2379 90.3166 81.216 90.4205 81.2361 90.5291C81.2507 90.6057 81.2782 90.6823 81.3202 90.7498C81.3202 90.8027 81.3312 90.8538 81.3504 90.9012C81.2645 91.0992 81.1931 91.3035 81.109 91.5023C81.0057 91.7495 80.8942 91.9921 80.7762 92.2338C80.5193 92.7619 80.2249 93.2699 79.9387 93.7825C79.4194 94.712 78.9358 95.6596 78.4539 96.6073C78.4174 96.6794 78.3808 96.7514 78.3451 96.8226C78.3351 96.8435 78.325 96.8645 78.3141 96.8855C78.229 97.0588 78.1056 97.1974 77.9246 97.2741C77.835 97.3124 77.7371 97.3306 77.6402 97.3306C77.5433 97.3306 77.4455 97.3114 77.3559 97.2741V97.2731Z" fill="#260004"/>
<path d="M100.358 97.5403C100.197 97.2794 100.035 97.0195 99.8629 96.7641C99.3527 96.0125 98.8288 95.271 98.2958 94.5349C97.9721 94.0889 97.6503 93.642 97.3586 93.1741C97.2224 92.9552 97.1026 92.7253 97.0012 92.4882C96.9463 92.3596 96.9015 92.2255 96.8558 92.0923C96.8073 91.9956 96.7799 91.8862 96.7799 91.7722C96.7799 91.6673 96.8028 91.5733 96.8375 91.4748C96.9911 91.0379 97.6101 90.892 97.9584 91.1811C98.133 91.3262 98.1925 91.4876 98.2592 91.6837C98.3104 91.826 98.3662 91.9646 98.4311 92.1014C98.5628 92.3532 98.7164 92.5912 98.8745 92.8275C99.1552 93.2397 99.4524 93.6392 99.7431 94.0442C100.047 94.4638 100.344 94.8888 100.638 95.3148C100.976 95.8046 101.307 96.2962 101.62 96.8015C101.83 97.1399 101.695 97.6032 101.358 97.8002C101.243 97.8668 101.119 97.8987 100.997 97.8987C100.744 97.8987 100.498 97.7656 100.357 97.5385L100.358 97.5403Z" fill="#260004"/>
<path d="M88.9738 97.1566C88.7287 97.0672 88.4901 96.9605 88.2515 96.8556C87.8675 96.6868 87.488 96.5081 87.1123 96.3238C87.051 96.2937 86.9898 96.2636 86.9285 96.2326C86.9029 96.2217 86.8782 96.2089 86.8544 96.1952C86.4403 95.9872 86.0307 95.7693 85.6302 95.5348C85.1575 95.2567 84.6885 94.973 84.2122 94.7021C83.3637 94.2196 82.497 93.7626 81.6988 93.199C81.3075 92.9226 80.9299 92.6298 80.5678 92.317C80.3712 92.1473 80.1719 91.9795 79.9827 91.8016C79.7861 91.6165 79.6462 91.4113 79.6343 91.134C79.6179 90.7363 79.9799 90.4043 80.3658 90.4043C80.609 90.4043 80.8147 90.521 80.9454 90.698C81.0122 90.7673 81.0835 90.8321 81.1557 90.8959C81.6805 91.3529 82.219 91.7889 82.7941 92.182C83.2448 92.4793 83.7157 92.7438 84.1856 93.0083C84.7141 93.3057 85.2416 93.6039 85.7628 93.9122C86.2144 94.1795 86.6615 94.4504 87.126 94.6948C87.2467 94.7587 87.3683 94.8207 87.4899 94.8827C87.5054 94.8909 87.52 94.8982 87.5347 94.9064C87.5438 94.9101 87.553 94.9146 87.5621 94.9192C87.702 94.9885 87.8419 95.0569 87.9818 95.1235C88.2048 95.2302 88.4288 95.3342 88.6538 95.4354C88.9463 95.5677 89.2407 95.6999 89.5424 95.8112C89.9164 95.9489 90.081 96.4141 89.9319 96.7671C89.8588 96.9404 89.7171 97.0818 89.5424 97.1556C89.4519 97.194 89.3596 97.2113 89.2672 97.2113C89.1685 97.2113 89.0698 97.1912 88.9728 97.1556L88.9738 97.1566ZM81.0972 91.1349C81.0944 91.1021 81.0926 91.0692 81.0899 91.0364C81.0835 91.0054 81.0771 90.9744 81.0707 90.9424C81.0707 90.9424 81.0707 90.9424 81.0707 90.9415C81.0606 90.9132 81.0515 90.8859 81.0414 90.8576C81.0286 90.8321 81.0158 90.8065 81.003 90.7801C80.9893 90.7591 80.9747 90.739 80.961 90.7181C80.9582 90.7153 80.9555 90.7117 80.9527 90.7089C81.0387 90.8293 81.0899 90.9771 81.0963 91.134L81.0972 91.1349Z" fill="#260004"/>
<path d="M89.3869 97.2282C89.1401 97.1762 88.9435 96.9519 88.8758 96.7184C88.7954 96.4384 88.9005 96.1593 89.098 95.9823C89.0879 95.9905 89.0779 95.9978 89.0678 96.006C89.0678 96.006 89.066 96.0069 89.0651 96.0078C89.0651 96.0078 89.0651 96.0078 89.066 96.0069C89.066 96.0069 89.0642 96.0078 89.0642 96.0088C89.066 96.0069 89.0678 96.0051 89.0697 96.0033C89.0889 95.985 89.1081 95.9677 89.1282 95.9513C89.13 95.9495 89.1327 95.9476 89.1346 95.9458C89.1327 95.9476 89.1309 95.9486 89.1291 95.9504C89.1538 95.9312 89.1803 95.913 89.2068 95.8975C89.2004 95.902 89.194 95.9066 89.1885 95.9121C89.1986 95.9057 89.2086 95.8993 89.2178 95.8938C89.2159 95.8938 89.2141 95.8938 89.2132 95.8938C89.2379 95.8792 89.2644 95.8665 89.29 95.8555C89.3522 95.8272 89.4189 95.8072 89.4884 95.7981C89.4957 95.7962 89.5021 95.7935 89.5094 95.7917C89.738 95.7059 89.9574 95.5974 90.1759 95.4889C90.9458 95.0976 91.6973 94.6698 92.4498 94.2475C93.2388 93.8042 94.0205 93.3463 94.773 92.8438C95.3362 92.4561 95.8884 92.042 96.4059 91.5942C96.5677 91.4501 96.7268 91.3014 96.8703 91.1391C96.863 91.1473 96.8557 91.1555 96.8484 91.1637C96.9718 91.0305 97.1199 90.9375 97.3055 90.912C97.4985 90.8855 97.6978 90.9384 97.8514 91.057C98.1531 91.2896 98.2454 91.7803 97.983 92.0803C97.7151 92.3877 97.4116 92.6586 97.098 92.9186C96.6738 93.2697 96.2322 93.6045 95.7805 93.9191C94.7757 94.6205 93.7023 95.2225 92.6308 95.8172C92.0996 96.1118 91.5711 96.4092 91.0317 96.6883C90.7519 96.8333 90.4685 96.9792 90.1769 97.0978C90.0607 97.1452 89.9419 97.1936 89.8194 97.22C89.7764 97.2291 89.7362 97.2355 89.6959 97.2401C89.7051 97.2383 89.7133 97.2364 89.7225 97.2346C89.706 97.2373 89.6905 97.2401 89.674 97.2419C89.6127 97.2474 89.5524 97.2474 89.4857 97.2419C89.5103 97.2437 89.5359 97.2456 89.5615 97.2474C89.5049 97.2465 89.4463 97.2392 89.3869 97.2273V97.2282Z" fill="#260004"/>
<path d="M84.4142 104.199C84.3666 104.158 84.3218 104.114 84.2752 104.071C84.2414 104.043 84.2066 104.016 84.17 103.991C83.7659 103.718 83.3719 103.434 82.9851 103.136C82.2318 102.553 81.4793 101.968 80.747 101.358C80.0247 100.757 79.3216 100.131 78.7026 99.4221C78.3662 99.0362 78.058 98.6295 77.7636 98.2108C77.6366 98.0311 77.5122 97.8496 77.3842 97.6708C77.3065 97.5623 77.2334 97.4474 77.1511 97.3416C77.0222 97.2303 76.9326 97.0752 76.9134 96.8983C76.9188 96.9238 76.9234 96.9494 76.9289 96.9749C76.8914 96.7879 76.8996 96.5946 77.0057 96.4276C77.1995 96.1221 77.5835 95.9752 77.9255 96.1239C78.2162 96.2507 78.3817 96.5553 78.5582 96.8034C78.7657 97.0944 78.9668 97.389 79.1771 97.679C79.381 97.9609 79.6004 98.2318 79.8281 98.4954C80.2176 98.925 80.6308 99.3309 81.0642 99.7167C81.8432 100.393 82.656 101.029 83.4688 101.664C83.8391 101.953 84.2094 102.245 84.5924 102.517C84.6647 102.361 84.7415 102.207 84.8228 102.055C85.0569 101.618 85.3092 101.19 85.568 100.766C85.8651 100.28 86.1742 99.8024 86.5097 99.3427C86.8059 98.9359 87.1323 98.5528 87.4642 98.1752C88.0046 97.5623 88.5586 96.9603 89.1529 96.3994C89.4418 96.1267 89.8999 96.113 90.187 96.3994C90.4631 96.6748 90.4768 97.1582 90.187 97.431C89.6448 97.9436 89.1337 98.4899 88.64 99.0472C88.6436 99.0435 88.6473 99.039 88.651 99.0353C88.618 99.0727 88.5851 99.1092 88.5531 99.1457C88.5678 99.1293 88.5824 99.1129 88.597 99.0955C88.1572 99.5972 87.7412 100.113 87.3636 100.663C86.8818 101.393 86.4228 102.145 86.0187 102.92C85.9154 103.131 85.8222 103.347 85.7426 103.568C85.706 103.68 85.674 103.796 85.6256 103.903C85.5131 104.151 85.2891 104.336 85.0148 104.374C84.981 104.378 84.9472 104.38 84.9124 104.38C84.7323 104.38 84.5504 104.318 84.4142 104.201V104.199ZM78.3561 96.9092C78.3579 96.9038 78.3598 96.8983 78.3616 96.8928C78.3643 96.8609 78.3662 96.8271 78.368 96.7943C78.368 96.7834 78.3671 96.7724 78.3662 96.7615C78.3671 96.8116 78.3643 96.8609 78.3561 96.9083V96.9092Z" fill="#260004"/>
<path d="M96.3045 104.083C95.9598 103.996 95.7906 103.687 95.5776 103.438C95.3216 103.149 95.0684 102.859 94.8224 102.56C94.3378 101.973 93.8423 101.394 93.3404 100.822C93.3468 100.829 93.3532 100.837 93.3596 100.844C92.6638 100.057 91.9589 99.2714 91.1762 98.5682C90.9074 98.3356 90.6286 98.1213 90.336 97.9197C90.3625 97.937 90.3881 97.9544 90.4137 97.9717C90.3634 97.9379 90.3132 97.9042 90.2629 97.8704C90.2894 97.8878 90.315 97.906 90.3406 97.9233C90.1394 97.7874 89.9328 97.6525 89.7198 97.5348C89.5708 97.491 89.4364 97.4071 89.3413 97.2803C89.1529 97.0295 89.1237 96.6355 89.3413 96.3883C89.5159 96.1885 89.7628 96.0691 90.0306 96.1101C90.1751 96.132 90.3013 96.1885 90.4284 96.2588C90.6962 96.4065 90.9513 96.5771 91.2046 96.7477C91.179 96.7303 91.1525 96.7121 91.1269 96.6948C91.3774 96.8635 91.6224 97.0395 91.8565 97.2311C92.1088 97.4363 92.3484 97.6579 92.5842 97.8823C93.0021 98.28 93.3952 98.705 93.7829 99.131C94.4942 99.9135 95.1872 100.713 95.862 101.527C96.0494 101.753 96.2341 101.983 96.427 102.205C96.4535 102.234 96.4791 102.263 96.5056 102.292C96.6921 102.077 96.8786 101.862 97.0633 101.645C97.4528 101.185 97.8341 100.719 98.2044 100.245C98.9148 99.3335 99.5968 98.3986 100.279 97.4664C100.437 97.2502 100.594 97.0322 100.748 96.8124C100.975 96.4859 101.47 96.4467 101.774 96.6811C101.925 96.7978 102.026 96.9711 102.052 97.1599C102.079 97.3597 102.02 97.5421 101.906 97.7044C101.332 98.5281 100.724 99.3289 100.125 100.134C99.4012 101.107 98.645 102.052 97.8524 102.97C97.6503 103.203 97.4482 103.436 97.2517 103.673C97.1511 103.795 97.0533 103.916 96.9161 103.999C96.7918 104.074 96.6528 104.109 96.512 104.109C96.4434 104.109 96.374 104.101 96.3063 104.084L96.3045 104.083ZM90.4009 96.2907C90.39 96.2798 90.3781 96.2679 90.3671 96.2569C90.3406 96.2396 90.315 96.2223 90.2894 96.205C90.261 96.1913 90.2327 96.1767 90.2044 96.163C90.1934 96.1603 90.1824 96.1575 90.1714 96.1539C90.2565 96.1867 90.3333 96.2332 90.4 96.2916L90.4009 96.2907Z" fill="#260004"/>
<path d="M90.4009 107.485C90.1541 107.463 89.9109 107.404 89.6832 107.307C89.1438 107.077 88.6903 106.664 88.256 106.282C87.6965 105.79 87.1662 105.261 86.6761 104.701C86.4293 104.419 86.2044 104.123 85.984 103.819C85.7829 103.541 85.5936 103.247 85.3733 102.984C85.1986 102.85 85.0844 102.639 85.0844 102.405C85.0844 102.008 85.4172 101.676 85.8158 101.676C86.0974 101.676 86.3022 101.828 86.4777 102.029C86.6386 102.212 86.7749 102.418 86.9175 102.615C87.2028 103.011 87.4844 103.406 87.8044 103.775C88.2743 104.302 88.7772 104.799 89.3065 105.265C89.302 105.261 89.2983 105.258 89.2937 105.254C89.5205 105.451 89.75 105.645 89.9959 105.818C90.0636 105.862 90.1321 105.904 90.2034 105.943C90.24 105.96 90.2766 105.975 90.3141 105.99C90.3488 106.001 90.3826 106.01 90.4183 106.018C90.4713 106.027 90.5244 106.035 90.5783 106.039C90.5783 106.039 90.5783 106.039 90.5792 106.039C90.603 106.03 90.6258 106.02 90.6487 106.009C90.6871 105.988 90.7246 105.964 90.7612 105.94C91.0656 105.729 91.3554 105.5 91.6352 105.259C91.8592 105.057 92.0668 104.836 92.2688 104.612C92.6199 104.206 92.9417 103.781 93.2453 103.339C93.6256 102.776 93.9877 102.201 94.3324 101.616C94.5335 101.273 94.9888 101.152 95.3335 101.354C95.6764 101.554 95.798 102.009 95.5959 102.352C95.0574 103.266 94.4896 104.172 93.8396 105.01C93.4492 105.514 93.013 105.996 92.5312 106.414C92.1829 106.716 91.8162 107.011 91.4213 107.251C91.2722 107.342 91.0985 107.418 90.9285 107.458C90.8114 107.486 90.6981 107.498 90.5829 107.498C90.5234 107.498 90.4631 107.495 90.4009 107.489V107.485Z" fill="#260004"/>
<path d="M83.6097 131.452C83.2037 131.397 82.945 131.025 82.9843 130.629C83.0263 130.2 83.0967 129.772 83.1626 129.345C83.254 128.751 83.35 128.156 83.446 127.562C83.649 126.302 83.8629 125.043 84.0915 123.787C84.3164 122.554 84.5532 121.323 84.7754 120.09C85.0094 118.79 85.2325 117.488 85.4474 116.186C85.6586 114.906 85.8506 113.623 86.0499 112.341C86.2519 111.043 86.4641 109.746 86.6871 108.452C86.8133 107.721 86.9422 106.992 87.0574 106.26C87.1114 105.914 87.1644 105.57 87.211 105.223C87.2311 105.071 87.2384 104.907 87.2787 104.758C87.3573 104.473 87.5978 104.274 87.8867 104.227C88.2798 104.162 88.6583 104.466 88.7104 104.851C88.7223 104.94 88.7178 105.028 88.6986 105.11C88.6858 105.196 88.6794 105.283 88.6675 105.369C88.6464 105.527 88.6236 105.684 88.6007 105.841C88.5578 106.141 88.5111 106.44 88.4618 106.738C88.3575 107.376 88.246 108.012 88.1363 108.649C87.9132 109.944 87.7002 111.24 87.499 112.539C87.2997 113.82 87.1077 115.104 86.8965 116.383C86.6826 117.687 86.4586 118.988 86.2245 120.288C86.0023 121.521 85.7646 122.752 85.5406 123.985C85.3121 125.242 85.0981 126.5 84.8951 127.761C84.7991 128.356 84.7031 128.949 84.6117 129.544C84.5459 129.971 84.4755 130.398 84.4334 130.828C84.3978 131.193 84.0549 131.459 83.702 131.459C83.6709 131.459 83.6407 131.457 83.6097 131.452ZM88.2396 105.632C88.2506 105.629 88.2615 105.626 88.2725 105.623C88.2862 105.614 88.2999 105.607 88.3137 105.599C88.2899 105.611 88.2661 105.622 88.2405 105.632H88.2396ZM88.3877 105.554C88.4032 105.545 88.4179 105.537 88.4334 105.528C88.4453 105.516 88.4563 105.504 88.4682 105.493C88.4426 105.515 88.416 105.536 88.3877 105.554ZM88.5367 105.425C88.5459 105.415 88.5559 105.405 88.5651 105.396C88.5824 105.371 88.6007 105.344 88.6181 105.319C88.6318 105.291 88.6465 105.264 88.6602 105.236C88.6602 105.236 88.662 105.23 88.662 105.228C88.6309 105.301 88.5889 105.367 88.5377 105.426L88.5367 105.425Z" fill="#260004"/>
<path d="M96.2222 130.347C96.1454 129.463 96.0375 128.581 95.9461 127.698C95.8217 126.489 95.6837 125.282 95.5218 124.078C95.1817 121.538 94.8023 119.003 94.3579 116.48C94.1385 115.239 93.9209 113.995 93.7216 112.749C93.5132 111.45 93.3221 110.147 93.1237 108.846C92.9975 108.016 92.8704 107.186 92.7452 106.355C92.6802 105.919 92.6153 105.482 92.5769 105.042C92.5522 104.763 92.5376 104.458 92.7223 104.225C92.8649 104.046 93.0779 103.939 93.3065 103.939C93.7051 103.939 94.0379 104.271 94.0379 104.669C94.0379 104.715 94.0334 104.759 94.0252 104.802C94.0252 104.821 94.0261 104.84 94.027 104.859C94.0827 105.481 94.1851 106.097 94.2802 106.715C94.3753 107.337 94.4668 107.959 94.5618 108.58C94.7584 109.869 94.9467 111.159 95.1525 112.446C95.3518 113.69 95.5675 114.93 95.7861 116.172C96.0119 117.451 96.2176 118.733 96.4142 120.017C96.7927 122.485 97.1301 124.958 97.3879 127.441C97.4821 128.343 97.5909 129.245 97.6695 130.148C97.6869 130.345 97.6475 130.533 97.5241 130.692C97.4071 130.843 97.2334 130.944 97.0441 130.969C97.0139 130.973 96.9829 130.976 96.9527 130.976C96.6007 130.976 96.2523 130.71 96.2203 130.346L96.2222 130.347Z" fill="#260004"/>
<path d="M70.2683 57.3796C70.1357 57.3294 70.0205 57.2528 69.9063 57.1725C69.6475 56.9901 69.4418 56.7229 69.2644 56.4638C69.0724 56.1829 68.9188 55.8792 68.7689 55.5736C68.4946 55.0172 68.2761 54.4344 68.0621 53.8534C68.0192 53.7357 67.9762 53.6181 67.9341 53.4995C67.8948 53.3891 67.8464 53.276 67.8125 53.1611C67.7805 53.0799 67.7568 52.9942 67.7284 52.9121C67.6279 52.6193 67.5319 52.3238 67.4377 52.0283C67.2594 51.4719 67.1003 50.9082 66.9687 50.3391C66.6935 49.1561 66.4457 47.9521 66.4475 46.7327C66.4475 46.1033 66.5234 45.4794 66.6322 44.8601C66.7437 44.2262 66.8973 43.6023 67.1076 42.994C67.3197 42.382 67.5629 41.7845 67.8555 41.2063C67.9945 40.9317 68.1353 40.6581 68.2861 40.3899C68.4489 40.0999 68.64 39.8244 68.8283 39.5508C69.173 39.0473 69.5661 38.5776 69.9693 38.1206C70.3451 37.6947 70.7364 37.2833 71.1396 36.8829C71.5757 36.4515 72.0329 36.0401 72.5028 35.6452C72.9197 35.2959 73.3504 34.9584 73.8002 34.6519C74.1229 34.4321 74.4512 34.2232 74.7968 34.0417C74.9723 33.9487 75.1661 33.914 75.3609 33.9679C75.5428 34.018 75.7019 34.1402 75.7979 34.3035C75.9927 34.6355 75.8875 35.1162 75.5346 35.3013C75.2503 35.4518 74.976 35.6187 74.709 35.7966C74.1376 36.1879 73.5981 36.623 73.0724 37.0754C72.3328 37.7321 71.6407 38.4362 70.9824 39.175C70.6057 39.6074 70.2509 40.057 69.9255 40.5286C69.7837 40.742 69.6429 40.9573 69.5177 41.1807C69.3879 41.4115 69.2672 41.6468 69.1483 41.883C68.9133 42.361 68.7122 42.8499 68.5284 43.3497C68.3675 43.8231 68.2331 44.3019 68.1289 44.7917C68.0365 45.2852 67.9616 45.7813 67.9204 46.2821C67.904 46.6314 67.9085 46.9789 67.9277 47.3273C67.9799 47.964 68.0887 48.5915 68.2148 49.2172C68.3959 50.0728 68.6162 50.9174 68.8823 51.751C68.9554 51.9781 69.0295 52.2052 69.1053 52.4314C69.1163 52.4643 69.1273 52.4962 69.1373 52.5281C69.1584 52.5792 69.1757 52.633 69.1931 52.6859C69.4811 53.505 69.781 54.3213 70.1613 55.103C70.2546 55.2827 70.3524 55.4578 70.4594 55.6293C70.496 55.6812 70.5335 55.7323 70.5728 55.7825C70.9586 55.7433 71.3197 56.0233 71.3719 56.4091C71.3929 56.5632 71.3993 56.7247 71.3517 56.8743C71.264 57.1525 71.018 57.4097 70.7108 57.4334C70.6733 57.4361 70.6377 57.4379 70.602 57.4379C70.4868 57.4379 70.3789 57.4215 70.2647 57.3787L70.2683 57.3796Z" fill="#260004"/>
<path d="M106.283 59.2039C105.931 58.9987 105.83 58.5554 106.021 58.2061C106.334 57.6296 106.643 57.0504 106.957 56.474C107.266 55.9058 107.576 55.3384 107.868 54.7611C108.315 53.8636 108.712 52.9478 109.047 52.0038C109.4 50.9585 109.688 49.8941 109.917 48.8151C110.021 48.2834 110.101 47.7525 110.143 47.2126C110.171 46.6206 110.162 46.0277 110.131 45.4358C110.078 44.6988 110.001 43.9664 109.863 43.2404C109.765 42.7907 109.649 42.3511 109.505 41.9142C109.355 41.4992 109.185 41.0951 108.994 40.6974C108.728 40.1766 108.432 39.6741 108.113 39.1834C107.845 38.7921 107.56 38.4163 107.254 38.0524C106.655 37.3856 106.001 36.7809 105.334 36.1826C105.282 36.137 105.229 36.0914 105.178 36.0448C105.201 36.0649 105.224 36.0859 105.248 36.1059C104.293 35.2696 103.302 34.4687 102.257 33.7482C101.757 33.4171 101.248 33.0978 100.724 32.8023C100.138 32.4712 99.5429 32.1557 98.9495 31.8373C97.8679 31.2572 96.7872 30.6744 95.6919 30.1208C94.7127 29.6392 93.7198 29.1995 92.6939 28.8256C91.7385 28.4991 90.7739 28.2063 89.7865 27.9937C89.2379 27.887 88.6894 27.7931 88.1362 27.7146C87.6032 27.6389 87.0656 27.5915 86.5289 27.5496C86.443 27.5441 86.357 27.5377 86.2711 27.5322C85.2718 27.4666 84.2715 27.4383 83.2713 27.4976C82.6715 27.5459 82.0782 27.6161 81.4875 27.7302C81.0231 27.8341 80.5687 27.9591 80.1179 28.1105C79.8656 28.2072 79.6197 28.3121 79.3746 28.4252C79.0839 28.5757 78.8032 28.738 78.5271 28.9141C78.2711 29.0919 78.0251 29.2798 77.7865 29.4814C77.6311 29.6273 77.4821 29.7778 77.3376 29.9347C77.205 30.0934 77.0789 30.2548 76.9591 30.4236C76.8997 30.5221 76.843 30.6206 76.7881 30.7218C76.747 30.8158 76.7086 30.9097 76.6729 31.0055C76.5842 31.2855 76.5093 31.5683 76.4453 31.8547C76.3602 32.318 76.3063 32.7859 76.2679 33.2547C76.2542 33.511 76.2487 33.7673 76.2587 34.0236C76.3109 34.2316 76.2779 34.4605 76.1472 34.6311C76.1234 34.6657 76.0969 34.6977 76.064 34.7259C75.9159 34.8564 75.7486 34.9394 75.5465 34.9394C75.3243 34.9394 75.1013 34.8345 74.9678 34.6557C74.7593 34.3775 74.7886 33.9926 74.7895 33.6624C74.7904 33.3514 74.8178 33.0413 74.8462 32.7321C74.9083 32.0672 75.0254 31.4159 75.211 30.7747C75.3042 30.4555 75.4249 30.1281 75.5986 29.8426C75.7934 29.5252 76.0119 29.2223 76.2624 28.946C76.7067 28.4571 77.2087 28.0257 77.7655 27.6672C78.3314 27.3033 78.9239 27.0041 79.552 26.7633C80.1856 26.5207 80.8494 26.3693 81.5141 26.238C82.1705 26.1084 82.8434 26.0628 83.509 26.0218C84.1426 25.9817 84.7799 25.9999 85.4135 26.0282C85.8139 26.0464 86.2135 26.0683 86.613 26.0948C86.6094 26.0948 86.6066 26.0948 86.603 26.0939C86.6094 26.0939 86.6158 26.0948 86.6231 26.0948C86.6496 26.0966 86.6761 26.0984 86.7026 26.1002C86.6944 26.1002 86.6871 26.0993 86.6789 26.0984C87.3161 26.1431 87.9515 26.2124 88.5842 26.3018C89.2251 26.3921 89.8697 26.5034 90.4997 26.6539C91.7952 26.9649 93.0633 27.3781 94.2985 27.8761C95.4688 28.3476 96.5934 28.9314 97.707 29.5215C98.859 30.1326 100.013 30.7392 101.155 31.3676C102.054 31.8629 102.938 32.4074 103.761 33.0212C104.62 33.6606 105.448 34.341 106.252 35.047C106.228 35.0269 106.205 35.006 106.181 34.9859C107.162 35.846 108.12 36.7344 108.907 37.7778C109.689 38.814 110.329 39.9659 110.791 41.1781C111.256 42.3949 111.455 43.6846 111.559 44.9761C111.664 46.2631 111.649 47.5601 111.398 48.8315C111.141 50.1404 110.791 51.4274 110.351 52.687C109.944 53.8481 109.416 54.9636 108.841 56.0508C108.329 57.0176 107.803 57.979 107.28 58.9394C107.153 59.172 106.901 59.2979 106.647 59.2979C106.52 59.2979 106.393 59.2659 106.28 59.2012L106.283 59.2039Z" fill="#260004"/>
<path d="M88.7918 49.7747C88.8 49.7765 88.8073 49.7783 88.8156 49.7792C88.8028 49.7765 88.7909 49.7738 88.7781 49.7719C88.7589 49.7683 88.7397 49.7637 88.7196 49.7601C88.7296 49.7619 88.7397 49.7637 88.7488 49.7665C88.1326 49.6379 87.5282 49.4673 86.9267 49.2831C86.3113 49.0942 85.6969 48.8726 85.1081 48.6108C83.8784 48.0636 82.752 47.2792 81.7564 46.3789C81.0377 45.7277 80.341 45.0345 79.7778 44.2419C79.4908 43.8387 79.2265 43.4192 79.0245 42.9668C78.8663 42.612 78.7118 42.2179 78.7118 41.8239C78.7118 41.4299 79.0446 41.0942 79.4432 41.0942C79.8418 41.0942 80.1637 41.4153 80.1746 41.8039C80.1774 41.8303 80.182 41.8558 80.1856 41.8823C80.203 41.9498 80.2222 42.0164 80.2432 42.083C80.3054 42.2471 80.3749 42.4067 80.4517 42.5655C80.576 42.7962 80.7122 43.0188 80.8558 43.2377C81.0752 43.5441 81.3074 43.836 81.5534 44.1215C81.9474 44.5493 82.3598 44.9551 82.7904 45.3464C83.221 45.7177 83.6636 46.0652 84.1289 46.3917C84.4937 46.6307 84.8631 46.855 85.2462 47.063C85.4784 47.1761 85.7106 47.2846 85.9493 47.3822C86.2153 47.4908 86.4841 47.5902 86.7538 47.6887C87.52 47.9487 88.2944 48.1767 89.0853 48.3491C89.1273 48.3573 89.1685 48.3664 89.2105 48.3746C89.206 48.3737 89.2005 48.3728 89.1959 48.3719C89.7692 48.4886 90.3479 48.5826 90.9303 48.6473C90.6258 48.3855 90.3378 48.1028 90.0864 47.7954C89.3111 46.8487 88.7223 45.7459 88.4828 44.5392C88.4288 44.2674 88.3941 43.9865 88.4078 43.7092C88.4178 43.5131 88.4809 43.3353 88.6217 43.193C88.758 43.0571 88.9463 42.9795 89.1392 42.9795C89.5223 42.9795 89.8917 43.3125 89.8706 43.7092C89.867 43.7822 89.867 43.8533 89.8706 43.9263C89.8816 44.0513 89.9008 44.1744 89.9237 44.2975C89.9721 44.5164 90.0334 44.7326 90.1047 44.9451C90.1952 45.1914 90.2985 45.4304 90.4137 45.6657C90.5372 45.8992 90.6706 46.1254 90.816 46.3461C90.9733 46.5668 91.1378 46.7803 91.3143 46.9855C91.4972 47.1788 91.6882 47.364 91.8857 47.5428C92.1015 47.7252 92.3228 47.8985 92.5532 48.0627C92.7122 48.1676 92.8741 48.2642 93.0432 48.3536C93.1511 48.4038 93.259 48.4503 93.3705 48.4923C93.707 48.6008 94.0773 48.6984 94.23 49.0568C94.3607 49.3642 94.2675 49.7309 94.0023 49.9352C93.8679 50.0392 93.7097 50.0839 93.5442 50.1085C93.1374 50.1696 92.7196 50.1933 92.3081 50.1942C92.3008 50.1942 92.2935 50.1942 92.2862 50.1942C91.1113 50.1942 89.941 50.01 88.7918 49.7774V49.7747Z" fill="#260004"/>
<path d="M104.125 58.2107C104.087 57.7783 104.059 57.3451 104.027 56.9128C103.981 56.2451 103.908 55.5838 103.78 54.9271C103.697 54.5367 103.597 54.1546 103.469 53.777C103.35 53.4486 103.216 53.1266 103.063 52.812C102.917 52.5274 102.759 52.251 102.583 51.9838C102.411 51.7375 102.232 51.4976 102.039 51.2669C101.914 51.1291 101.784 50.996 101.647 50.8692C101.314 50.5837 100.955 50.3302 100.592 50.0839C99.8967 49.6233 99.1863 49.1809 98.4649 48.7632C97.6731 48.3053 96.8768 47.8538 96.0613 47.4388C95.0711 46.9536 94.0425 46.5486 93.0011 46.1856C92.6126 46.0542 92.2222 45.9284 91.8354 45.7925C91.4295 45.6502 91.0299 45.4933 90.6331 45.3273C90.2546 45.1677 89.8715 45.0099 89.5159 44.8038C89.3339 44.6979 89.1547 44.5821 88.9893 44.4526C88.96 44.4298 88.9317 44.4061 88.9033 44.3824C88.5943 44.2975 88.3621 44.0111 88.3621 43.6782C88.3621 43.4365 88.4608 43.1702 88.6647 43.0288C88.9481 42.8318 89.2955 42.8245 89.5771 43.0297C89.6576 43.089 89.7307 43.1638 89.8039 43.2322C89.8834 43.2988 89.9666 43.3599 90.0517 43.4192C90.1806 43.5013 90.3141 43.577 90.4494 43.6481C91.093 43.9591 91.7632 44.2218 92.4379 44.459C93.013 44.6542 93.5909 44.843 94.1623 45.0518C94.7392 45.2625 95.3097 45.4915 95.8702 45.7396C97.0469 46.2595 98.1705 46.8979 99.2795 47.5473C99.8016 47.8529 100.316 48.1721 100.827 48.4977C101.318 48.8097 101.803 49.1326 102.264 49.4883C103.249 50.2508 103.968 51.3024 104.496 52.4198C104.978 53.4404 105.24 54.5532 105.381 55.6677C105.479 56.433 105.506 57.2065 105.572 57.9744C105.573 57.9863 105.573 57.9982 105.574 58.01C105.592 58.207 105.552 58.3958 105.429 58.5545C105.312 58.705 105.138 58.8063 104.95 58.8318C104.92 58.8364 104.889 58.8382 104.858 58.8382C104.506 58.8382 104.158 58.5728 104.125 58.2079V58.2107Z" fill="#260004"/>
<path d="M70.8946 58.6758C70.5106 58.57 70.2793 58.1613 70.3844 57.7783C70.5407 57.2073 70.7254 56.6518 71.0061 56.1283C71.2585 55.6576 71.6406 55.2645 72.01 54.8842C72.3483 54.5376 72.7003 54.2047 73.0431 53.8626C73.3595 53.547 73.6685 53.2232 73.9657 52.8894C74.6057 52.1607 75.2036 51.3936 75.7869 50.6192C75.9286 50.4313 76.0639 50.2407 76.1974 50.0482C76.2505 49.9716 76.3035 49.895 76.3556 49.8175C76.3894 49.76 76.4297 49.7053 76.4681 49.6506C76.8895 49.0203 77.2909 48.3791 77.6402 47.706C77.8797 47.218 78.0927 46.7227 78.2765 46.211C78.4438 45.7112 78.581 45.205 78.6907 44.6897C78.741 44.4288 78.783 44.1679 78.8086 43.9034C78.8196 43.7046 78.8205 43.5058 78.8105 43.3069C78.7858 43.0123 78.7382 42.7214 78.698 42.4286C78.6815 42.3091 78.6605 42.1832 78.666 42.0628C78.6733 41.8977 78.7145 41.7308 78.8233 41.6013C78.9668 41.4298 79.1771 41.3094 79.4075 41.3167C79.6909 41.3258 79.9241 41.4709 80.0703 41.7089C80.1462 41.8311 80.1855 41.9771 80.2066 42.1175C80.2239 42.2306 80.2194 42.3465 80.2194 42.4614C80.2194 42.5125 80.2139 42.5626 80.2038 42.611C80.2386 42.8573 80.2678 43.1044 80.277 43.3534C80.3007 43.9609 80.2111 44.5501 80.0886 45.1439C79.8409 46.3497 79.4002 47.5272 78.8169 48.6117C78.5234 49.158 78.1961 49.6852 77.855 50.2033C77.7919 50.2981 77.7325 50.3994 77.6621 50.4906C77.6402 50.5234 77.6182 50.5563 77.5954 50.5891C77.5926 50.5937 77.5899 50.5973 77.5871 50.6019C77.5716 50.6247 77.557 50.6466 77.5414 50.6694C77.4527 50.7998 77.3631 50.9293 77.2726 51.0597C77.1017 51.306 76.9197 51.5459 76.7378 51.7849C76.3785 52.2546 76.0127 52.7189 75.6379 53.1767C75.1652 53.7532 74.6651 54.305 74.1394 54.834C73.6347 55.3411 73.1081 55.8273 72.6299 56.3599C72.5458 56.4585 72.4662 56.5597 72.3913 56.6646C72.3391 56.7449 72.2907 56.8269 72.245 56.9118C72.149 57.1088 72.063 57.3104 71.9881 57.5165C71.9177 57.7317 71.8555 57.9497 71.7951 58.1677C71.7074 58.4888 71.4047 58.7031 71.0838 58.7031C71.0207 58.7031 70.9577 58.6949 70.8946 58.6776V58.6758Z" fill="#260004"/>
<path d="M87.3646 68.0192C87.1187 67.9636 86.8837 67.8577 86.6661 67.7319C86.1541 67.4373 85.739 66.9803 85.4282 66.4832C85.2371 66.1758 85.0551 65.8156 85.0222 65.4507C84.9984 65.1862 85.0624 64.939 85.1923 64.7092C85.2544 64.5988 85.3376 64.4948 85.4144 64.3927C85.7536 63.9476 86.1596 63.5581 86.5546 63.1641C86.7584 62.9616 86.9614 62.7573 87.1635 62.553C87.3262 62.3879 87.4954 62.2274 87.6526 62.0577C87.6343 62.0778 87.616 62.0988 87.5978 62.1197C87.595 62.1252 87.5923 62.1307 87.5895 62.1362C87.7651 61.899 88.0695 61.7759 88.3731 61.8589C88.7507 61.9629 88.9984 62.376 88.8832 62.7564C88.8092 63.0027 88.6163 63.1586 88.4426 63.3347C88.2451 63.5362 88.0467 63.7369 87.8464 63.9366C87.4981 64.286 87.1388 64.6253 86.8087 64.9938C86.7018 65.1187 86.5966 65.2455 86.4997 65.3778C86.5198 65.4288 86.5418 65.479 86.5655 65.5292C86.6167 65.6249 86.6707 65.718 86.7301 65.8083C86.7968 65.9022 86.8672 65.9916 86.9413 66.0792C87.0099 66.154 87.0812 66.2269 87.1562 66.2962C87.2074 66.3382 87.2604 66.3783 87.3143 66.4166C87.3701 66.4513 87.4259 66.4841 87.4835 66.5142C87.531 66.537 87.5795 66.558 87.6279 66.5772C87.6544 66.5854 87.6819 66.5927 87.7093 66.6C87.723 66.6018 87.7376 66.6045 87.7514 66.6064C87.7587 66.6064 87.7669 66.6064 87.7742 66.6064C87.7916 66.6045 87.8099 66.6018 87.8272 66.5991C88.2103 66.5179 88.6053 66.7222 88.7123 67.1117C88.8147 67.4829 88.5898 67.9198 88.2012 68.0092C88.0522 68.0438 87.905 68.0621 87.7578 68.0621C87.627 68.0621 87.4954 68.0475 87.3628 68.0174L87.3646 68.0192Z" fill="#260004"/>
</g>
<defs>
<linearGradient id="paint0_linear_42_317" x1="141.02" y1="135.502" x2="145.837" y2="135.502" gradientUnits="userSpaceOnUse">
<stop stop-color="#FE1D37"/>
</linearGradient>
<linearGradient id="paint1_linear_42_317" x1="148.374" y1="142.455" x2="151.598" y2="146.035" gradientUnits="userSpaceOnUse">
<stop stop-color="#FE1D37"/>
</linearGradient>
<linearGradient id="paint2_linear_42_317" x1="144.703" y1="138.619" x2="151.221" y2="138.619" gradientUnits="userSpaceOnUse">
<stop stop-color="#FE1D37"/>
</linearGradient>
<clipPath id="clip0_42_317">
<rect width="92" height="107" fill="white" transform="translate(44 26)"/>
</clipPath>
</defs>
</svg>
