<svg width="110" height="120" viewBox="0 0 110 120" fill="none" xmlns="http://www.w3.org/2000/svg">
<path d="M90.8329 108.02C87.3429 110.051 84.6794 111.62 82.1078 113.097C81.1894 113.651 80.271 114.113 79.4444 114.759C78.2504 115.59 76.5972 116.513 77.5157 118.267C78.4341 119.928 80.1791 119.19 81.4649 118.728C82.8426 118.359 84.2202 117.62 85.506 116.974C91.4758 114.113 97.4456 111.159 103.324 108.205C104.885 107.374 106.538 106.636 107.916 105.528C110.855 103.312 110.671 101.097 107.457 99.4355C103.14 97.2201 98.7314 95.1893 94.323 93.1585C92.4861 92.2354 90.5574 91.3123 88.6287 90.6661C87.5266 90.2969 86.2408 90.3892 85.0468 90.2969C84.6794 92.8815 86.1489 93.4354 87.4347 94.0816C90.6492 95.8354 93.9556 97.497 97.1701 99.2509C98.2722 99.8971 99.4662 100.543 100.568 102.02C98.9151 102.205 97.3538 102.482 95.7006 102.574C83.3018 103.22 70.9948 103.866 58.596 104.513C40.5947 105.436 22.6853 106.359 4.68401 107.374C3.21452 107.466 1.74503 108.02 0 108.482C1.65318 110.974 3.58189 110.42 5.14323 110.328C13.9602 110.143 22.869 109.774 31.6859 109.497C50.6974 108.851 69.709 108.205 88.7205 107.559C89.1797 107.651 89.4553 107.743 90.8329 108.02Z" fill="#260004"/>
<path fill-rule="evenodd" clip-rule="evenodd" d="M54.6265 52.7628C54.0363 52.9243 53.5662 53.3165 53.2815 53.8172C52.9967 54.3186 52.898 54.9306 53.0561 55.5291L53.1381 55.8399L61.5429 53.5499L61.4608 53.2377C61.3021 52.6393 60.9167 52.1589 60.4246 51.8692C59.9305 51.5794 59.3303 51.4804 58.7422 51.6405L57.1037 52.0883L54.6265 52.7628Z" fill="url(#paint0_linear_42_483)"/>
<path fill-rule="evenodd" clip-rule="evenodd" d="M62.0457 55.4606L53.6409 57.7519L55.7294 65.6797L64.1322 63.3877L62.0457 55.4606Z" fill="url(#paint1_linear_42_483)"/>
<path fill-rule="evenodd" clip-rule="evenodd" d="M44.6326 54.3193C47.0759 54.5968 50.0026 54.3315 51.7011 54.0988V53.9061L51.7031 53.8925L51.7051 53.8579V53.8247L51.7071 53.8091L51.7091 53.7901V53.7555L51.7124 53.7209V53.712L51.7157 53.6876V53.6774L51.7191 53.653L51.7224 53.6198V53.6143L51.7244 53.5851L51.7277 53.5661L51.7297 53.5526L51.7331 53.518L51.7351 53.5092L51.7451 53.4311L51.7471 53.4223V53.4169L51.7524 53.3836L51.7544 53.3748L51.7577 53.349L51.7631 53.3266V53.3246L51.7717 53.2832V53.2798L51.7771 53.2506L51.7804 53.233L51.7837 53.2174L51.7904 53.1828L51.8331 53.0009L51.8351 52.9976L51.8371 52.9874L51.8471 52.9541V52.9521L51.8558 52.9229L51.8611 52.9053L51.8631 52.8998L51.8751 52.8598V52.8564L51.8884 52.815L51.8951 52.7926L51.9018 52.7682L51.9051 52.7614L51.9151 52.7302L51.9184 52.7234L51.9318 52.682V52.6786L51.9384 52.6664L51.9485 52.6352V52.6332L51.9605 52.604L51.9658 52.5884L51.9725 52.5708L51.9825 52.5429L51.9845 52.5396L51.9965 52.5104L51.9998 52.5002L52.0171 52.4588L52.0205 52.4554L52.0225 52.4486L52.0358 52.4174L52.0378 52.412L52.0398 52.4086L52.0571 52.372L52.0591 52.3665L52.0778 52.3251L52.0965 52.2851L52.0985 52.2817L52.1072 52.2641L52.1192 52.2383L52.1212 52.2349L52.1365 52.2057L52.1418 52.1969L52.1625 52.1555L52.1678 52.1467L52.1832 52.1175L52.1865 52.1121L52.1998 52.0877L52.2085 52.07L52.2105 52.068L52.2312 52.0279L52.2485 52.0022L52.2552 51.9866L52.2619 51.9764L52.2792 51.9506V51.9472L52.2925 51.9248L52.3045 51.9058L52.3099 51.899L52.3272 51.8732L52.3305 51.8665L52.3405 51.8475L52.3559 51.8264L52.3579 51.823L52.3752 51.7973L52.3906 51.7749L52.3926 51.7728L52.4099 51.747L52.4272 51.7226L52.4372 51.709L52.4439 51.6968L52.4612 51.6724L52.4646 51.669L52.4799 51.648L52.4919 51.6303L52.4986 51.6236L52.5159 51.5991L52.5213 51.5923L52.5346 51.5747L52.5499 51.5557L52.5533 51.5503L52.5706 51.5258L52.5793 51.517L52.5913 51.5035L52.6086 51.4811L52.6293 51.4553L52.6326 51.4532L52.646 51.4356L52.6493 51.4322L52.668 51.4098L52.67 51.4078L52.6873 51.3854L52.7006 51.3718L52.7073 51.363L52.728 51.3406L52.7333 51.3352L52.7487 51.3175L52.766 51.2999L52.7693 51.2945L52.79 51.2721L52.8053 51.2544L52.8107 51.251L52.8313 51.23V51.228L52.8633 51.1954L52.8753 51.1852L52.896 51.1628L52.9167 51.1418L52.932 51.1282L52.9387 51.1214L52.9607 51.1004L52.966 51.095L52.9847 51.0794L53.002 51.0638L53.0054 51.0583L53.0294 51.0373L53.0481 51.0197L53.0514 51.0163L53.0721 50.9986L53.0741 50.9966L53.0981 50.9756L53.1081 50.9654L53.1201 50.9566L53.1441 50.9355H53.1461L53.1681 50.9165L53.1834 50.9043L53.1901 50.8975L53.2141 50.8785L53.2394 50.8595L53.2875 50.8215L53.2961 50.8161L53.3135 50.8039L53.3595 50.7693L53.3628 50.7659L53.3868 50.7503L53.4122 50.7313L53.4308 50.7191L53.4395 50.7123L53.4875 50.6811L53.4928 50.6777L53.5135 50.6641L53.5342 50.6519L53.5395 50.6465L53.5669 50.6309C52.716 50.3656 51.8771 50.0616 51.0556 49.7013C46.3657 47.6454 44.7646 42.2281 43.4503 45.7272L41.5478 50.7835L41.5018 50.8826C41.2238 51.4098 41.0824 51.8542 41.057 52.2254C41.0177 52.8049 41.3231 53.233 41.8392 53.5458C42.5161 53.9536 43.517 54.1931 44.6439 54.3193" fill="url(#paint2_linear_42_483)"/>
<path fill-rule="evenodd" clip-rule="evenodd" d="M60.4773 48.9292C59.9438 49.6592 59.3656 50.35 58.7602 51.0122C59.413 51.0312 60.0438 51.2205 60.596 51.5462C61.2048 51.9038 61.7209 52.4256 62.069 53.0708C63.6527 52.4079 66.3194 51.1486 68.2986 49.6674C69.2121 48.9821 69.9623 48.2656 70.3477 47.5687C70.6412 47.0361 70.6958 46.5102 70.3764 46.0285C70.1717 45.7198 69.8323 45.4076 69.3315 45.0915L69.2448 45.029L65.1104 41.6188C62.253 39.2562 63.5294 44.7631 60.4773 48.9292Z" fill="url(#paint3_linear_42_483)"/>
<path fill-rule="evenodd" clip-rule="evenodd" d="M68.0298 86.2829L62.6478 65.8405L75.217 62.4154L80.2529 81.5374C80.3483 81.8983 80.2889 82.2695 80.1169 82.5714C79.9448 82.8768 79.6601 83.1129 79.3053 83.2099L68.0298 86.2829ZM62.8899 87.6848L57.5058 67.2424L61.0141 66.2863L66.3981 86.7267L62.8899 87.6848ZM60.1892 50.6763C59.635 50.352 59.0042 50.1627 58.3514 50.1423C58.9582 49.4815 59.5344 48.7907 60.0698 48.0607C63.1199 43.8939 61.8443 38.3884 64.7017 40.7489L68.836 44.1612L68.9247 44.2236C69.4242 44.5378 69.7649 44.8513 69.9697 45.1586C70.2884 45.6424 70.2337 46.1662 69.939 46.6989C69.5535 47.3964 68.8034 48.1143 67.8918 48.7975C65.9126 50.2808 63.246 51.5401 61.6622 52.203C61.3128 51.5577 60.798 51.0339 60.1892 50.6763ZM62.5024 55.3357L73.7539 52.2668C74.1154 52.1698 74.4835 52.2301 74.7855 52.4072C75.0889 52.5857 75.3243 52.8788 75.4217 53.2466L76.804 58.499L77.1568 59.8363L64.591 63.2622L62.5024 55.3344V55.3357ZM52.4679 58.0708L60.8727 55.7795L62.9592 63.7086L54.5544 66L52.4679 58.0708ZM51.9631 56.1615L51.8811 55.8494C51.7244 55.2509 51.8231 54.6402 52.1058 54.1388C52.3919 53.636 52.8627 53.2439 53.4508 53.0844L55.1826 52.6108L57.5659 51.9621C58.156 51.8006 58.7555 51.9017 59.2503 52.1915C59.7431 52.4812 60.1285 52.9602 60.2852 53.56L60.3672 53.8708L51.9631 56.1615ZM45.7102 79.8777L44.3532 74.7203L42.4747 75.2306L43.8351 80.3893L45.7102 79.8777ZM47.1953 85.5128L46.215 81.7864L44.3365 82.3L45.3188 86.0265L47.1953 85.5128ZM54.9419 50.8982C53.2795 50.5203 51.6564 50.0501 50.1273 49.3804C46.4364 47.7621 44.5506 44.4815 43.2483 43.9753C42.2087 43.5709 41.1704 43.9997 40.2822 46.3637L38.395 51.3786C38.0149 52.1107 37.8202 52.7682 37.7796 53.3578C37.6875 54.6864 38.3164 55.6234 39.384 56.2667C40.2908 56.8149 41.5238 57.1236 42.8635 57.2742C44.4386 57.4527 46.1983 57.4201 47.7361 57.3122L39.1746 59.647C38.2963 59.8865 37.5942 60.4694 37.1714 61.2151C36.7466 61.9608 36.6039 62.87 36.8386 63.765L37.1407 64.9116L39.0179 64.4L38.7165 63.2534C38.6191 62.8856 38.6804 62.5111 38.8545 62.2037C39.0285 61.895 39.3179 61.6554 39.6794 61.5584L50.8355 58.5159L52.924 66.4437L40.4516 69.8438L40.0988 68.5064L39.5207 66.3101L37.6435 66.8217L39.0772 72.2668L41.5205 71.6012L41.9739 73.3205L43.8491 72.8089L43.3976 71.0896L55.0586 67.91L55.8754 67.6881L61.2595 88.1285L50.076 91.1778C49.7212 91.2748 49.3598 91.2158 49.0597 91.0393C48.763 90.8623 48.5276 90.5746 48.4342 90.2136L47.6994 87.4242L45.8209 87.9344L46.5571 90.7238C46.7905 91.6154 47.36 92.3231 48.0881 92.7533C48.8177 93.1801 49.7079 93.326 50.5808 93.0898L79.8108 85.1213C80.6837 84.8818 81.3825 84.3023 81.802 83.56C82.2227 82.8211 82.3681 81.9153 82.1327 81.0271L77.0981 61.9017L78.6018 61.4926L79.5394 61.2361L77.3008 52.7343C77.0654 51.8407 76.4926 51.1262 75.7598 50.696C75.0269 50.2658 74.1334 50.1186 73.2538 50.3574L64.6923 52.6922C66.0787 52.0022 67.6177 51.1343 68.8927 50.1803C69.9803 49.3648 70.8959 48.4718 71.4127 47.5368C72.0195 46.4356 72.1029 45.3059 71.372 44.2012C71.0466 43.7107 70.5551 43.2405 69.8663 42.7994L65.7679 39.417C63.8361 37.8211 62.7265 37.9792 62.0243 38.8566C61.1461 39.9578 61.1241 43.7568 58.7222 47.0374C57.7279 48.3972 56.5536 49.6274 55.3006 50.8019L54.9445 50.8989L54.9419 50.8982ZM50.1187 55.3493C48.4209 55.582 45.4935 55.8473 43.0502 55.5698C41.9233 55.4429 40.9223 55.2021 40.2455 54.7943C39.7287 54.4835 39.422 54.0554 39.4633 53.4759C39.4886 53.1048 39.6287 52.6603 39.9068 52.1352L39.9528 52.0347L41.8572 46.9784C43.1716 43.4793 44.7726 48.8973 49.4625 50.9525C50.284 51.3135 51.1229 51.6168 51.9738 51.8821L51.9464 51.8977L51.9398 51.9011L51.9224 51.9146L51.8984 51.9282L51.8951 51.9302L51.8698 51.9479L51.8478 51.9635L51.8378 51.9703L51.8204 51.9825L51.7951 52.0015L51.7711 52.0171L51.7677 52.0205L51.7217 52.0551L51.7044 52.0673L51.6957 52.0727L51.6704 52.0917L51.5984 52.1487L51.5897 52.1555L51.5744 52.1677L51.5537 52.1854L51.5517 52.1874L51.5277 52.2084L51.5157 52.2173L51.5057 52.2274L51.4817 52.2485H51.4797L51.4577 52.2675L51.4557 52.2709L51.437 52.2885L51.413 52.3095L51.4076 52.3129L51.3903 52.3306L51.3716 52.3462L51.3683 52.3516L51.3476 52.3726L51.3376 52.3794L51.3243 52.393L51.3036 52.412V52.414L51.2716 52.4466L51.2596 52.4568L51.2389 52.4792V52.4812L51.2183 52.5002L51.2129 52.5056L51.1976 52.5233L51.1769 52.5457L51.1716 52.5491L51.1562 52.568L51.1389 52.5857L51.1356 52.5911L51.1149 52.6135L51.1082 52.6203L51.0949 52.6359L51.0776 52.6569L51.0756 52.659L51.0549 52.6834L51.0529 52.6854L51.0376 52.7044L51.0356 52.7065L51.0149 52.7309L50.9975 52.7533L50.9855 52.7689L50.9769 52.7777L50.9595 52.8021L50.9562 52.8055L50.9409 52.8266L50.9255 52.8442L50.9222 52.8496L50.9035 52.8754L50.8982 52.8822L50.8862 52.8998L50.8708 52.9209L50.8675 52.9243L50.8502 52.9487L50.8435 52.9609L50.8335 52.9745L50.7988 53.0233L50.7955 53.0267L50.7815 53.0491L50.7642 53.0735L50.7608 53.079L50.7475 53.1L50.7375 53.119L50.7321 53.1258L50.7168 53.1516L50.7115 53.1584L50.6995 53.1774L50.6855 53.1997L50.6835 53.2031L50.6681 53.2289L50.6615 53.2391L50.6528 53.2547L50.6375 53.2805L50.6168 53.3185L50.6134 53.3219L50.6068 53.3375L50.5934 53.3633L50.5901 53.3687L50.5748 53.3979L50.5694 53.4047L50.5488 53.4481L50.5434 53.4569L50.5281 53.4861L50.5261 53.4895L50.5141 53.5153L50.5054 53.5329L50.5034 53.5363L50.4661 53.6164L50.4627 53.6231L50.4474 53.6598L50.4454 53.6632L50.4434 53.6686L50.4301 53.6998L50.4267 53.7066L50.4247 53.71L50.4074 53.7514L50.4041 53.7616L50.3907 53.7907V53.7941L50.3807 53.8219L50.3741 53.8396L50.3674 53.8532L50.3574 53.8844V53.8864L50.3454 53.9176L50.34 53.9298V53.9332L50.3267 53.9746L50.3234 53.98L50.3134 54.0133L50.31 54.0201L50.3034 54.0445L50.2967 54.0669L50.2834 54.1083V54.1117L50.27 54.1517V54.1571L50.2647 54.1727L50.256 54.204V54.206L50.246 54.2392L50.244 54.2494L50.242 54.2528L50.1993 54.4367L50.1893 54.4835L50.186 54.5025L50.1807 54.5317L50.1787 54.5351L50.172 54.5765L50.17 54.5785L50.1667 54.6009L50.1633 54.6267L50.1613 54.6335L50.156 54.6681V54.6735L50.154 54.6823L50.142 54.7603V54.7692L50.1387 54.8038L50.1353 54.818L50.1333 54.837L50.1313 54.8662L50.1293 54.8716L50.126 54.9049L50.124 54.9293V54.9395L50.1207 54.9639V54.9741L50.1173 55.0073V55.0128L50.1153 55.0419L50.1133 55.0609V55.0765L50.1113 55.1098L50.1093 55.1444V55.3507L50.1187 55.3493Z" fill="#260004"/>
<path d="M38.6844 85.8874C38.1663 86.0299 37.6328 85.7171 37.4928 85.1898C37.3561 84.6626 37.6635 84.1178 38.1817 83.9787L47.476 81.4424C47.9941 81.304 48.5263 81.6161 48.6656 82.1433C48.8037 82.6705 48.4949 83.212 47.9768 83.3538L38.6844 85.8874Z" fill="#260004"/>
<path d="M38.5124 78.3599C37.9943 78.5003 37.4621 78.1882 37.3228 77.659C37.1827 77.1318 37.4915 76.5903 38.0116 76.4478L49.0877 73.4277C49.6059 73.2873 50.1393 73.5994 50.278 74.1266C50.4161 74.6538 50.1093 75.1966 49.5912 75.3371L38.5124 78.3599Z" fill="#260004"/>
<path d="M34.4347 69.7454C33.9166 69.8859 33.3831 69.5737 33.2451 69.0465C33.105 68.5193 33.4125 67.9765 33.9306 67.8361L42.24 65.5705C42.7581 65.428 43.2903 65.7422 43.4296 66.2694C43.5697 66.7966 43.2609 67.338 42.7428 67.4805L34.4347 69.7454Z" fill="#260004"/>
<path d="M37.3528 92.2919C36.8346 92.4344 36.3012 92.1216 36.1631 91.5944C36.0231 91.0638 36.3305 90.5223 36.8486 90.3832L51.0256 86.515C51.5437 86.3766 52.0758 86.6887 52.2159 87.2159C52.3539 87.7431 52.0451 88.2846 51.527 88.4264L37.3528 92.2919Z" fill="#260004"/>
<path d="M30.4657 70.8263C29.9476 70.9688 29.4154 70.6546 29.2754 70.1274C29.1374 69.6002 29.4461 69.0574 29.9643 68.9169L31.4886 68.5003C32.0068 68.3599 32.5422 68.672 32.6803 69.1992C32.8183 69.7264 32.5116 70.2692 31.9934 70.4097L30.4657 70.8263Z" fill="#260004"/>
<path d="M32.6616 79.4421C32.1415 79.5826 31.608 79.2705 31.47 78.7432C31.3319 78.216 31.6387 77.6732 32.1568 77.5321L33.7525 77.0965C34.2707 76.954 34.8061 77.2681 34.9428 77.7953C35.0829 78.3226 34.7755 78.8654 34.2573 79.0058L32.6616 79.4421Z" fill="#260004"/>
<path d="M31.3146 87.8965C30.7965 88.0389 30.2643 87.7268 30.125 87.1989C29.9849 86.6717 30.2937 86.1303 30.8118 85.9885L34.6614 84.9374C35.1796 84.7983 35.713 85.1111 35.8511 85.6383C35.9891 86.1656 35.6824 86.707 35.1642 86.8488L31.3146 87.8965Z" fill="#260004"/>
<path fill-rule="evenodd" clip-rule="evenodd" d="M52.924 66.4437L52.4953 64.8207L42.7428 67.4805L40.0228 68.2208L40.0988 68.5064L40.4516 69.8438L52.924 66.4437Z" fill="#B4C1CF"/>
<path fill-rule="evenodd" clip-rule="evenodd" d="M64.1649 61.6392L64.591 63.2622L77.1568 59.8363L76.804 58.499L76.7293 58.2133L64.1649 61.6392Z" fill="#B4C1CF"/>
<path fill-rule="evenodd" clip-rule="evenodd" d="M61.6536 66.1133L58.1447 67.0687L63.5274 87.5111L67.0356 86.5537L61.6536 66.1133Z" fill="url(#paint4_linear_42_483)"/>
<path fill-rule="evenodd" clip-rule="evenodd" d="M56.8303 71.3169L55.8741 67.6881L55.0586 67.91L43.3976 71.0896L43.8491 72.8089L41.9739 73.3205L42.4747 75.2306L44.3532 74.7203L49.0877 73.4277L56.8303 71.3169Z" fill="#B4C1CF"/>
<path fill-rule="evenodd" clip-rule="evenodd" d="M62.6478 65.8405L63.602 69.4713L76.1732 66.0434L75.217 62.4154L62.6478 65.8405Z" fill="#B4C1CF"/>
<path fill-rule="evenodd" clip-rule="evenodd" d="M48.8243 89.2284C48.6163 89.284 48.4082 89.3186 48.2002 89.3322L48.4322 90.2136C48.5263 90.5746 48.761 90.8623 49.0577 91.0394C49.3578 91.2164 49.7192 91.2755 50.074 91.1778L61.2575 88.1285L60.6947 85.9912L48.8243 89.2284Z" fill="#B4C1CF"/>
<path fill-rule="evenodd" clip-rule="evenodd" d="M67.467 84.1463L68.0298 86.2829L79.3053 83.2099C79.6601 83.1129 79.9448 82.8768 80.1169 82.5714C80.2889 82.2695 80.3483 81.8983 80.2529 81.5374L79.8508 80.0066C79.4227 80.5997 78.8039 81.055 78.0537 81.2599L67.467 84.1463Z" fill="#B4C1CF"/>
<path d="M26.517 85.2C26.433 85.2 26.3525 85.1684 26.2931 85.1121C26.2337 85.0559 26.2004 84.9796 26.2004 84.9V84.3C26.2004 84.2204 26.2337 84.1441 26.2931 84.0879C26.3525 84.0316 26.433 84 26.517 84C26.601 84 26.6815 84.0316 26.7409 84.0879C26.8003 84.1441 26.8337 84.2204 26.8337 84.3V84.9C26.8337 84.9796 26.8003 85.0559 26.7409 85.1121C26.6815 85.1684 26.601 85.2 26.517 85.2ZM25.8837 85.8H25.2505C25.1665 85.8 25.086 85.7684 25.0266 85.7121C24.9672 85.6559 24.9338 85.5796 24.9338 85.5C24.9338 85.4204 24.9672 85.3441 25.0266 85.2879C25.086 85.2316 25.1665 85.2 25.2505 85.2H25.8837C25.9677 85.2 26.0483 85.2316 26.1076 85.2879C26.167 85.3441 26.2004 85.4204 26.2004 85.5C26.2004 85.5796 26.167 85.6559 26.1076 85.7121C26.0483 85.7684 25.9677 85.8 25.8837 85.8ZM26.517 87C26.433 87 26.3525 86.9684 26.2931 86.9121C26.2337 86.8559 26.2004 86.7796 26.2004 86.7V86.1C26.2004 86.0204 26.2337 85.9441 26.2931 85.8879C26.3525 85.8316 26.433 85.8 26.517 85.8C26.601 85.8 26.6815 85.8316 26.7409 85.8879C26.8003 85.9441 26.8337 86.0204 26.8337 86.1V86.7C26.8337 86.7796 26.8003 86.8559 26.7409 86.9121C26.6815 86.9684 26.601 87 26.517 87ZM27.7836 85.8H27.1503C27.0663 85.8 26.9858 85.7684 26.9264 85.7121C26.867 85.6559 26.8337 85.5796 26.8337 85.5C26.8337 85.4204 26.867 85.3441 26.9264 85.2879C26.9858 85.2316 27.0663 85.2 27.1503 85.2H27.7836C27.8675 85.2 27.9481 85.2316 28.0075 85.2879C28.0668 85.3441 28.1002 85.4204 28.1002 85.5C28.1002 85.5796 28.0668 85.6559 28.0075 85.7121C27.9481 85.7684 27.8675 85.8 27.7836 85.8ZM15.1182 96C15.0342 96 14.9536 95.9684 14.8943 95.9121C14.8349 95.8559 14.8015 95.7796 14.8015 95.7V95.1C14.8015 95.0204 14.8349 94.9441 14.8943 94.8879C14.9536 94.8316 15.0342 94.8 15.1182 94.8C15.2021 94.8 15.2827 94.8316 15.342 94.8879C15.4014 94.9441 15.4348 95.0204 15.4348 95.1V95.7C15.4348 95.7796 15.4014 95.8559 15.342 95.9121C15.2827 95.9684 15.2021 96 15.1182 96ZM14.4849 96.6H13.8516C13.7676 96.6 13.6871 96.5684 13.6277 96.5121C13.5683 96.4559 13.535 96.3796 13.535 96.3C13.535 96.2204 13.5683 96.1441 13.6277 96.0879C13.6871 96.0316 13.7676 96 13.8516 96H14.4849C14.5689 96 14.6494 96.0316 14.7088 96.0879C14.7682 96.1441 14.8015 96.2204 14.8015 96.3C14.8015 96.3796 14.7682 96.4559 14.7088 96.5121C14.6494 96.5684 14.5689 96.6 14.4849 96.6ZM15.1182 97.8C15.0342 97.8 14.9536 97.7684 14.8943 97.7121C14.8349 97.6559 14.8015 97.5796 14.8015 97.5V96.9C14.8015 96.8204 14.8349 96.7441 14.8943 96.6879C14.9536 96.6316 15.0342 96.6 15.1182 96.6C15.2021 96.6 15.2827 96.6316 15.342 96.6879C15.4014 96.7441 15.4348 96.8204 15.4348 96.9V97.5C15.4348 97.5796 15.4014 97.6559 15.342 97.7121C15.2827 97.7684 15.2021 97.8 15.1182 97.8ZM16.3847 96.6H15.7514C15.6674 96.6 15.5869 96.5684 15.5275 96.5121C15.4681 96.4559 15.4348 96.3796 15.4348 96.3C15.4348 96.2204 15.4681 96.1441 15.5275 96.0879C15.5869 96.0316 15.6674 96 15.7514 96H16.3847C16.4687 96 16.5492 96.0316 16.6086 96.0879C16.668 96.1441 16.7013 96.2204 16.7013 96.3C16.7013 96.3796 16.668 96.4559 16.6086 96.5121C16.5492 96.5684 16.4687 96.6 16.3847 96.6ZM21.7675 99C21.6875 99.0002 21.6103 98.9717 21.5516 98.9202C21.4928 98.8687 21.4569 98.7981 21.4509 98.7225C21.4331 98.5014 20.9547 93.2904 15.3639 92.0925C15.2936 92.0776 15.2308 92.0405 15.1857 91.9873C15.1407 91.9341 15.1162 91.8679 15.1162 91.7997C15.1162 91.7315 15.1407 91.6653 15.1857 91.6121C15.2308 91.5589 15.2936 91.5218 15.3639 91.5069C20.9664 90.3069 21.4464 84.9318 21.4505 84.8769C21.4567 84.8014 21.4928 84.7308 21.5516 84.6794C21.6104 84.6281 21.6875 84.5997 21.7675 84.6C21.8476 84.5998 21.9247 84.6283 21.9835 84.6799C22.0422 84.7314 22.0782 84.8021 22.0841 84.8778C22.1019 85.0989 22.5803 90.3099 28.1711 91.5078C28.2414 91.5227 28.3042 91.5598 28.3492 91.613C28.3943 91.6662 28.4188 91.7324 28.4188 91.8006C28.4188 91.8688 28.3943 91.935 28.3492 91.9882C28.3042 92.0414 28.2414 92.0785 28.1711 92.0934C22.5686 93.2934 22.0886 98.6685 22.0844 98.7234C22.0782 98.7989 22.0421 98.8694 21.9833 98.9207C21.9245 98.972 21.8474 99.0003 21.7675 99ZM16.5747 91.8C19.9231 92.9322 21.2517 95.5659 21.7675 97.2261C22.2833 95.5659 23.6119 92.9322 26.9603 91.8C23.6119 90.6678 22.2833 88.0341 21.7675 86.3739C21.2517 88.0341 19.9231 90.6678 16.5747 91.8ZM13.535 90C13.4554 90.0003 13.3787 89.9721 13.32 89.9212C13.2613 89.8703 13.225 89.8003 13.2183 89.7252C13.1455 89.2595 12.9144 88.8289 12.5602 88.4987C12.206 88.1685 11.7479 87.9567 11.2552 87.8952C11.1833 87.8817 11.1185 87.845 11.072 87.7913C11.0254 87.7377 11 87.6704 11 87.6009C11 87.5314 11.0254 87.4641 11.072 87.4105C11.1185 87.3568 11.1833 87.3201 11.2552 87.3066C11.7469 87.2427 12.2036 87.0301 12.5574 86.7003C12.9111 86.3706 13.143 85.9413 13.2183 85.4766C13.2245 85.4013 13.2605 85.3309 13.319 85.2796C13.3775 85.2283 13.4543 85.1998 13.534 85.1998C13.6138 85.1998 13.6906 85.2283 13.7491 85.2796C13.8076 85.3309 13.8435 85.4013 13.8497 85.4766C13.9226 85.9423 14.1536 86.3729 14.5079 86.7031C14.8621 87.0333 15.3202 87.2451 15.8129 87.3066C15.8848 87.3201 15.9495 87.3568 15.9961 87.4105C16.0426 87.4641 16.0681 87.5314 16.0681 87.6009C16.0681 87.6704 16.0426 87.7377 15.9961 87.7913C15.9495 87.845 15.8848 87.8817 15.8129 87.8952C15.3212 87.9591 14.8644 88.1717 14.5107 88.5015C14.1569 88.8312 13.9251 89.2605 13.8497 89.7252C13.8431 89.8 13.807 89.8697 13.7488 89.9206C13.6905 89.9715 13.6142 89.9998 13.535 90ZM12.2976 87.6C12.8277 87.8541 13.2604 88.2592 13.535 88.7583C13.8096 88.2592 14.2423 87.8541 14.7724 87.6C14.2423 87.3459 13.8096 86.9408 13.535 86.4417C13.2604 86.9408 12.8277 87.3459 12.2976 87.6ZM27.4669 98.4C27.3874 98.4003 27.3106 98.3721 27.2519 98.3212C27.1933 98.2703 27.157 98.2003 27.1503 98.1252C27.0773 97.6595 26.8463 97.229 26.4921 96.8988C26.1379 96.5686 25.6798 96.3567 25.1871 96.2952C25.1152 96.2817 25.0505 96.245 25.0039 96.1913C24.9574 96.1377 24.9319 96.0704 24.9319 96.0009C24.9319 95.9314 24.9574 95.8641 25.0039 95.8105C25.0505 95.7568 25.1152 95.7201 25.1871 95.7066C25.6788 95.6428 26.1356 95.4302 26.4894 95.1004C26.8431 94.7706 27.075 94.3414 27.1503 93.8766C27.1565 93.8013 27.1924 93.7309 27.2509 93.6796C27.3094 93.6283 27.3862 93.5998 27.466 93.5998C27.5457 93.5998 27.6225 93.6283 27.681 93.6796C27.7395 93.7309 27.7755 93.8013 27.7817 93.8766C27.8546 94.3423 28.0856 94.7728 28.4399 95.103C28.7941 95.4332 29.2522 95.6451 29.7448 95.7066C29.8167 95.7201 29.8815 95.7568 29.928 95.8105C29.9746 95.8641 30 95.9314 30 96.0009C30 96.0704 29.9746 96.1377 29.928 96.1913C29.8815 96.245 29.8167 96.2817 29.7448 96.2952C29.2531 96.359 28.7963 96.5716 28.4426 96.9014C28.0888 97.2312 27.857 97.6604 27.7817 98.1252C27.775 98.2 27.739 98.2697 27.6807 98.3206C27.6224 98.3715 27.5462 98.3998 27.4669 98.4ZM26.2295 96C26.7596 96.2541 27.1923 96.6592 27.4669 97.1583C27.7415 96.6592 28.1742 96.2541 28.7043 96C28.1742 95.7459 27.7415 95.3408 27.4669 94.8417C27.1923 95.3408 26.7596 95.7459 26.2295 96Z" fill="url(#paint5_linear_42_483)"/>
<path d="M94.1504 40.36C94.0576 40.36 93.9686 40.3242 93.9029 40.2604C93.8373 40.1967 93.8004 40.1102 93.8004 40.02V39.34C93.8004 39.2498 93.8373 39.1633 93.9029 39.0996C93.9686 39.0358 94.0576 39 94.1504 39C94.2432 39 94.3322 39.0358 94.3979 39.0996C94.4635 39.1633 94.5004 39.2498 94.5004 39.34V40.02C94.5004 40.1102 94.4635 40.1967 94.3979 40.2604C94.3322 40.3242 94.2432 40.36 94.1504 40.36ZM93.4505 41.04H92.7505C92.6577 41.04 92.5687 41.0042 92.5031 40.9404C92.4374 40.8767 92.4006 40.7902 92.4006 40.7C92.4006 40.6098 92.4374 40.5233 92.5031 40.4596C92.5687 40.3958 92.6577 40.36 92.7505 40.36H93.4505C93.5433 40.36 93.6323 40.3958 93.6979 40.4596C93.7635 40.5233 93.8004 40.6098 93.8004 40.7C93.8004 40.7902 93.7635 40.8767 93.6979 40.9404C93.6323 41.0042 93.5433 41.04 93.4505 41.04ZM94.1504 42.4C94.0576 42.4 93.9686 42.3642 93.9029 42.3004C93.8373 42.2367 93.8004 42.1502 93.8004 42.06V41.38C93.8004 41.2898 93.8373 41.2033 93.9029 41.1396C93.9686 41.0758 94.0576 41.04 94.1504 41.04C94.2432 41.04 94.3322 41.0758 94.3979 41.1396C94.4635 41.2033 94.5004 41.2898 94.5004 41.38V42.06C94.5004 42.1502 94.4635 42.2367 94.3979 42.3004C94.3322 42.3642 94.2432 42.4 94.1504 42.4ZM95.5502 41.04H94.8503C94.7575 41.04 94.6685 41.0042 94.6029 40.9404C94.5372 40.8767 94.5004 40.7902 94.5004 40.7C94.5004 40.6098 94.5372 40.5233 94.6029 40.4596C94.6685 40.3958 94.7575 40.36 94.8503 40.36H95.5502C95.6431 40.36 95.7321 40.3958 95.7977 40.4596C95.8633 40.5233 95.9002 40.6098 95.9002 40.7C95.9002 40.7902 95.8633 40.8767 95.7977 40.9404C95.7321 41.0042 95.6431 41.04 95.5502 41.04ZM81.5516 52.6C81.4588 52.6 81.3698 52.5642 81.3042 52.5004C81.2385 52.4367 81.2017 52.3502 81.2017 52.26V51.58C81.2017 51.4898 81.2385 51.4033 81.3042 51.3396C81.3698 51.2758 81.4588 51.24 81.5516 51.24C81.6445 51.24 81.7335 51.2758 81.7991 51.3396C81.8647 51.4033 81.9016 51.4898 81.9016 51.58V52.26C81.9016 52.3502 81.8647 52.4367 81.7991 52.5004C81.7335 52.5642 81.6445 52.6 81.5516 52.6ZM80.8517 53.28H80.1518C80.059 53.28 79.97 53.2442 79.9043 53.1804C79.8387 53.1167 79.8018 53.0302 79.8018 52.94C79.8018 52.8498 79.8387 52.7633 79.9043 52.6996C79.97 52.6358 80.059 52.6 80.1518 52.6H80.8517C80.9445 52.6 81.0335 52.6358 81.0992 52.6996C81.1648 52.7633 81.2017 52.8498 81.2017 52.94C81.2017 53.0302 81.1648 53.1167 81.0992 53.1804C81.0335 53.2442 80.9445 53.28 80.8517 53.28ZM81.5516 54.64C81.4588 54.64 81.3698 54.6042 81.3042 54.5404C81.2385 54.4767 81.2017 54.3902 81.2017 54.3V53.62C81.2017 53.5298 81.2385 53.4433 81.3042 53.3796C81.3698 53.3158 81.4588 53.28 81.5516 53.28C81.6445 53.28 81.7335 53.3158 81.7991 53.3796C81.8647 53.4433 81.9016 53.5298 81.9016 53.62V54.3C81.9016 54.3902 81.8647 54.4767 81.7991 54.5404C81.7335 54.6042 81.6445 54.64 81.5516 54.64ZM82.9515 53.28H82.2516C82.1588 53.28 82.0697 53.2442 82.0041 53.1804C81.9385 53.1167 81.9016 53.0302 81.9016 52.94C81.9016 52.8498 81.9385 52.7633 82.0041 52.6996C82.0697 52.6358 82.1588 52.6 82.2516 52.6H82.9515C83.0443 52.6 83.1333 52.6358 83.199 52.6996C83.2646 52.7633 83.3015 52.8498 83.3015 52.94C83.3015 53.0302 83.2646 53.1167 83.199 53.1804C83.1333 53.2442 83.0443 53.28 82.9515 53.28ZM88.9009 56C88.8125 56.0002 88.7272 55.9679 88.6623 55.9096C88.5974 55.8512 88.5576 55.7712 88.5509 55.6855C88.5313 55.4349 88.0026 49.5291 81.8232 48.1715C81.7456 48.1547 81.6761 48.1126 81.6263 48.0523C81.5766 47.992 81.5495 47.917 81.5495 47.8397C81.5495 47.7624 81.5766 47.6874 81.6263 47.627C81.6761 47.5667 81.7456 47.5247 81.8232 47.5078C88.0155 46.1478 88.546 40.056 88.5506 39.9938C88.5574 39.9082 88.5973 39.8283 88.6623 39.77C88.7273 39.7118 88.8125 39.6797 88.9009 39.68C88.9894 39.6798 89.0747 39.7121 89.1396 39.7705C89.2046 39.8289 89.2443 39.9091 89.2509 39.9948C89.2705 40.2454 89.7993 46.1512 95.9786 47.5088C96.0563 47.5257 96.1257 47.5677 96.1755 47.628C96.2252 47.6884 96.2524 47.7634 96.2524 47.8407C96.2524 47.918 96.2252 47.993 96.1755 48.0533C96.1257 48.1136 96.0563 48.1557 95.9786 48.1725C89.7863 49.5325 89.2558 55.6243 89.2512 55.6865C89.2443 55.7721 89.2044 55.8519 89.1394 55.9101C89.0744 55.9682 88.9892 56.0003 88.9009 56ZM83.1615 47.84C86.8624 49.1232 88.3308 52.108 88.9009 53.9896C89.471 52.108 90.9395 49.1232 94.6403 47.84C90.9395 46.5568 89.471 43.572 88.9009 41.6904C88.3308 43.572 86.8624 46.5568 83.1615 47.84ZM79.8018 45.8C79.7139 45.8003 79.629 45.7684 79.5642 45.7107C79.4993 45.653 79.4592 45.5737 79.4519 45.4886C79.3713 44.9607 79.1159 44.4728 78.7244 44.0986C78.3329 43.7244 77.8266 43.4842 77.2821 43.4146C77.2026 43.3993 77.131 43.3577 77.0796 43.2969C77.0281 43.236 77 43.1597 77 43.081C77 43.0023 77.0281 42.926 77.0796 42.8652C77.131 42.8044 77.2026 42.7628 77.2821 42.7475C77.8255 42.6751 78.3303 42.4341 78.7213 42.0604C79.1123 41.6866 79.3685 41.2002 79.4519 40.6735C79.4587 40.5881 79.4984 40.5084 79.5631 40.4502C79.6278 40.3921 79.7126 40.3598 79.8008 40.3598C79.8889 40.3598 79.9738 40.3921 80.0385 40.4502C80.1031 40.5084 80.1429 40.5881 80.1497 40.6735C80.2302 41.2013 80.4856 41.6892 80.8771 42.0635C81.2686 42.4377 81.7749 42.6778 82.3195 42.7475C82.399 42.7628 82.4705 42.8044 82.522 42.8652C82.5734 42.926 82.6015 43.0023 82.6015 43.081C82.6015 43.1597 82.5734 43.236 82.522 43.2969C82.4705 43.3577 82.399 43.3993 82.3195 43.4146C81.776 43.4869 81.2712 43.7279 80.8802 44.1017C80.4892 44.4754 80.233 44.9619 80.1497 45.4886C80.1423 45.5733 80.1025 45.6524 80.0381 45.71C79.9737 45.7677 79.8894 45.7998 79.8018 45.8ZM78.4342 43.08C79.02 43.368 79.4983 43.8271 79.8018 44.3927C80.1053 43.8271 80.5836 43.368 81.1695 43.08C80.5836 42.792 80.1053 42.3329 79.8018 41.7673C79.4983 42.3329 79.02 42.792 78.4342 43.08ZM95.2003 55.32C95.1123 55.3203 95.0275 55.2884 94.9627 55.2307C94.8978 55.173 94.8577 55.0937 94.8503 55.0086C94.7697 54.4808 94.5143 53.9928 94.1228 53.6186C93.7313 53.2444 93.225 53.0043 92.6805 52.9346C92.601 52.9193 92.5295 52.8777 92.478 52.8169C92.4266 52.756 92.3985 52.6797 92.3985 52.601C92.3985 52.5223 92.4266 52.446 92.478 52.3852C92.5295 52.3244 92.601 52.2828 92.6805 52.2675C93.224 52.1952 93.7288 51.9542 94.1198 51.5804C94.5108 51.2067 94.7671 50.7202 94.8503 50.1935C94.8571 50.1081 94.8969 50.0284 94.9615 49.9702C95.0262 49.9121 95.1111 49.8798 95.1992 49.8798C95.2874 49.8798 95.3722 49.9121 95.4369 49.9702C95.5016 50.0284 95.5413 50.1081 95.5481 50.1935C95.6288 50.7213 95.8841 51.2092 96.2756 51.5834C96.6671 51.9576 97.1734 52.1978 97.7179 52.2675C97.7974 52.2828 97.869 52.3244 97.9204 52.3852C97.9719 52.446 98 52.5223 98 52.601C98 52.6797 97.9719 52.756 97.9204 52.8169C97.869 52.8777 97.7974 52.9193 97.7179 52.9346C97.1745 53.0069 96.6696 53.2479 96.2786 53.6216C95.8876 53.9953 95.6314 54.4818 95.5481 55.0086C95.5408 55.0933 95.501 55.1724 95.4366 55.23C95.3722 55.2877 95.2879 55.3198 95.2003 55.32ZM93.8326 52.6C94.4185 52.888 94.8968 53.3471 95.2003 53.9127C95.5038 53.3471 95.9821 52.888 96.5679 52.6C95.9821 52.312 95.5038 51.8529 95.2003 51.2873C94.8968 51.8529 94.4185 52.312 93.8326 52.6Z" fill="#FE1D37"/>
<g filter="url(#filter0_d_42_483)">
<mask id="path-5-outside-1_42_483" maskUnits="userSpaceOnUse" x="7" y="1.20312" width="97" height="28" fill="black">
<rect fill="white" x="7" y="1.20312" width="97" height="28"/>
<path d="M22.707 12.2617L25.2754 11.9297C25.7572 11.9297 25.998 12.1185 25.998 12.4961C25.998 12.8737 25.7702 13.1113 25.3145 13.209C24.8587 13.3001 23.8301 13.4238 22.2285 13.5801C22.0072 14.1595 21.6751 14.9635 21.2324 15.9922C20.3275 18.1016 19.875 19.3678 19.875 19.791C19.875 20.2533 20.1615 20.4844 20.7344 20.4844C22.5833 20.4844 24.2435 20.1751 25.7148 19.5566C25.9297 19.4655 26.099 19.4199 26.2227 19.4199C26.4635 19.4199 26.584 19.5273 26.584 19.7422C26.584 19.957 26.4277 20.1686 26.1152 20.377C25.1582 21.0085 23.7161 21.5358 21.7891 21.959C19.862 22.3822 18.0846 22.5938 16.457 22.5938C15.5326 22.5938 14.8262 22.4505 14.3379 22.1641C13.8496 21.8711 13.6055 21.4707 13.6055 20.9629C13.6055 20.4486 13.944 19.4883 14.6211 18.082C15.3828 16.5065 15.9297 15.123 16.2617 13.9316C15.8581 13.9512 15.5781 13.9609 15.4219 13.9609C15.0378 13.9609 14.8457 13.8047 14.8457 13.4922C14.8457 13.2643 14.9076 13.1113 15.0312 13.0332C15.1549 12.9551 15.2819 12.8997 15.4121 12.8672C15.5488 12.8346 15.6628 12.8151 15.7539 12.8086C15.8516 12.7956 15.985 12.7826 16.1543 12.7695C16.3236 12.7565 16.4473 12.7467 16.5254 12.7402C16.61 12.2454 16.6523 11.7799 16.6523 11.3438L16.6426 10.9727C16.6426 10.6797 17.0137 10.4811 17.7559 10.377C18.0033 10.3444 18.7812 10.1816 20.0898 9.88867C21.3984 9.5957 22.1992 9.44922 22.4922 9.44922C22.9609 9.44922 23.1953 9.61198 23.1953 9.9375C23.1953 10.4974 23.0326 11.2721 22.707 12.2617ZM28.1504 21.5488C26.9264 20.8132 26.3145 19.6966 26.3145 18.1992C26.3145 17.418 26.474 16.6855 26.793 16.002C27.1185 15.3118 27.5612 14.7161 28.1211 14.2148C28.6875 13.7135 29.3451 13.2839 30.0938 12.9258C31.5911 12.2031 33.3066 11.8418 35.2402 11.8418C39.0423 11.8418 41.0964 13.0462 41.4023 15.4551C41.8581 15.6048 42.3268 15.6797 42.8086 15.6797C43.2969 15.6797 43.7038 15.6439 44.0293 15.5723C44.3548 15.5007 44.6608 15.3932 44.9473 15.25C45.2402 15.1068 45.4486 15.0352 45.5723 15.0352C45.8197 15.0352 45.9434 15.1556 45.9434 15.3965C45.9434 15.6374 45.7513 15.888 45.3672 16.1484C44.6445 16.6432 43.6875 16.8906 42.4961 16.8906C42.0469 16.8906 41.6823 16.8678 41.4023 16.8223C41.194 18.4629 40.3477 19.8268 38.8633 20.9141C38.1536 21.4349 37.2812 21.8451 36.2461 22.1445C35.2174 22.444 34.1497 22.5938 33.043 22.5938C31.9427 22.5938 30.9987 22.5059 30.2109 22.3301C29.4232 22.1608 28.7363 21.9004 28.1504 21.5488ZM31.6953 19.0586C31.6953 20.263 32.1348 20.8652 33.0137 20.8652C33.5736 20.8652 34.0944 20.5592 34.5762 19.9473C35.0645 19.3353 35.4421 18.5768 35.709 17.6719C35.9824 16.7669 36.1191 15.8457 36.1191 14.9082C36.1191 13.9642 35.7904 13.4922 35.1328 13.4922C34.5599 13.4922 34.0033 13.7624 33.4629 14.3027C32.929 14.8431 32.4993 15.5462 32.1738 16.4121C31.8548 17.2715 31.6953 18.1536 31.6953 19.0586ZM55.7227 12.125L59.541 12.0176C59.7103 12.0176 59.8372 12.0697 59.9219 12.1738C60.0065 12.2715 60.0488 12.3822 60.0488 12.5059C60.0488 12.9746 59.8926 13.4303 59.5801 13.873C59.2741 14.3092 58.8802 14.6934 58.3984 15.0254C57.9167 15.3574 57.3535 15.6667 56.709 15.9531C55.5501 16.4674 54.2936 16.8646 52.9395 17.1445C53.8639 17.0078 54.6712 16.9395 55.3613 16.9395C57.015 16.9395 57.8418 17.457 57.8418 18.4922C57.8418 18.6549 57.7995 18.8991 57.7148 19.2246C57.6302 19.5436 57.5879 19.8008 57.5879 19.9961C57.5879 20.4128 57.7962 20.6211 58.2129 20.6211C58.5189 20.6211 58.9583 20.5104 59.5312 20.2891C60.1107 20.0612 60.5566 19.8594 60.8691 19.6836C61.1816 19.5078 61.39 19.4199 61.4941 19.4199C61.6048 19.4199 61.7025 19.4557 61.7871 19.5273C61.8717 19.5924 61.9141 19.7129 61.9141 19.8887C61.9141 20.0579 61.7741 20.2435 61.4941 20.4453C60.5436 21.1159 59.4043 21.6432 58.0762 22.0273C56.748 22.4049 55.5566 22.5938 54.502 22.5938C53.4538 22.5938 52.7441 22.4863 52.373 22.2715C52.002 22.0632 51.8164 21.7148 51.8164 21.2266C51.8164 20.9792 51.8848 20.6016 52.0215 20.0938C52.1582 19.5794 52.2266 19.1725 52.2266 18.873C52.2266 18.0072 51.709 17.5286 50.6738 17.4375C49.8926 19.5729 49.4759 21.0703 49.4238 21.9297C49.4108 22.1706 49.2383 22.291 48.9062 22.291L43.877 22.3984C43.8053 22.3984 43.724 22.3529 43.6328 22.2617C43.5482 22.1771 43.5059 22.0697 43.5059 21.9395C43.5059 21.8092 43.7142 21.1549 44.1309 19.9766C44.554 18.7982 45.0163 17.5189 45.5176 16.1387C46.0254 14.7585 46.4876 13.3229 46.9043 11.832C47.3275 10.3411 47.5391 9.23112 47.5391 8.50195L47.5293 8.22852C47.5293 7.90299 47.8451 7.74023 48.4766 7.74023L52.9492 7.71094C53.099 7.71094 53.2194 7.75977 53.3105 7.85742C53.4082 7.94857 53.457 8.04948 53.457 8.16016C53.457 8.72005 53.1771 9.9082 52.6172 11.7246C52.0573 13.541 51.5234 15.1361 51.0156 16.5098C52.1875 16.2038 53.1087 15.722 53.7793 15.0645C54.4499 14.4069 54.7852 13.7135 54.7852 12.9844L54.7754 12.6133C54.7754 12.2878 55.0911 12.125 55.7227 12.125ZM77.582 19.4199C77.8099 19.4199 77.9238 19.5273 77.9238 19.7422C77.9238 19.9505 77.7676 20.1458 77.4551 20.3281C77.1491 20.5039 76.7682 20.696 76.3125 20.9043C75.8568 21.1061 75.2285 21.347 74.4277 21.627C72.5853 22.2715 70.5052 22.5938 68.1875 22.5938C63.7865 22.5938 61.5859 21.2396 61.5859 18.5312C61.5859 17.2096 62.0026 16.0378 62.8359 15.0156C63.6758 13.987 64.7988 13.2025 66.2051 12.6621C67.6113 12.1152 69.1445 11.8418 70.8047 11.8418C72.4648 11.8418 73.679 12.099 74.4473 12.6133C75.222 13.1276 75.6094 13.834 75.6094 14.7324C75.6094 15.6569 75.2383 16.4121 74.4961 16.998C73.7604 17.584 72.7806 18.0202 71.5566 18.3066C70.3262 18.5931 68.9167 18.7949 67.3281 18.9121C67.4323 19.9212 68.1549 20.5495 69.4961 20.7969C69.8411 20.8555 70.2057 20.8848 70.5898 20.8848C72.1133 20.8848 74.3105 20.4258 77.1816 19.5078C77.3574 19.4492 77.4909 19.4199 77.582 19.4199ZM67.3379 17.8379C68.4707 17.5254 69.3659 17.0469 70.0234 16.4023C70.681 15.7578 71.0098 14.9798 71.0098 14.0684C71.0098 13.8275 70.9316 13.6354 70.7754 13.4922C70.6191 13.349 70.3815 13.2773 70.0625 13.2773C69.75 13.2773 69.4212 13.4141 69.0762 13.6875C68.7376 13.9609 68.4512 14.319 68.2168 14.7617C67.722 15.6797 67.429 16.7051 67.3379 17.8379ZM96.9316 19.4199C97.1725 19.4199 97.293 19.5339 97.293 19.7617C97.293 19.9831 97.1725 20.1784 96.9316 20.3477C96.6973 20.5169 96.349 20.7122 95.8867 20.9336C95.4245 21.1484 94.8483 21.3861 94.1582 21.6465C93.4746 21.9069 92.6803 22.1283 91.7754 22.3105C90.877 22.4993 90.0176 22.5938 89.1973 22.5938C87.2637 22.5938 86.2969 22.151 86.2969 21.2656C86.2969 20.6927 86.6224 19.6706 87.2734 18.1992C87.931 16.7214 88.2598 15.7253 88.2598 15.2109C88.2598 14.6315 87.8073 14.3418 86.9023 14.3418C86.4922 14.3418 86.0267 14.3939 85.5059 14.498C85.2585 15.3704 84.8158 16.7572 84.1777 18.6582C83.5462 20.5592 83.1882 21.64 83.1035 21.9004C83.0254 22.1608 82.8529 22.291 82.5859 22.291L77.5566 22.3984C77.485 22.3984 77.4036 22.3529 77.3125 22.2617C77.2279 22.1771 77.1855 22.0762 77.1855 21.959C77.1855 21.8353 77.3223 21.4089 77.5957 20.6797C77.8757 19.944 78.1816 19.1562 78.5137 18.3164C78.8522 17.4701 79.1582 16.5423 79.4316 15.5332C79.7116 14.5176 79.8516 13.6777 79.8516 13.0137L79.8418 12.6426C79.8418 12.3171 80.1576 12.1543 80.7891 12.1543L85.418 12.0469C85.5872 12.0469 85.7142 12.099 85.7988 12.2031C85.8835 12.3008 85.9258 12.4245 85.9258 12.5742C85.9258 12.7174 85.89 12.9518 85.8184 13.2773C88.11 12.3203 89.9915 11.8418 91.4629 11.8418C92.0879 11.8418 92.6576 12.0143 93.1719 12.3594C93.7448 12.7435 94.0312 13.3262 94.0312 14.1074C94.0312 14.9082 93.7285 15.9564 93.123 17.252C92.5176 18.5475 92.2148 19.3483 92.2148 19.6543C92.2148 20.2598 92.4557 20.5625 92.9375 20.5625C93.2435 20.5625 93.7643 20.4486 94.5 20.2207C95.2422 19.9863 95.7891 19.7943 96.1406 19.6445C96.4987 19.4948 96.7624 19.4199 96.9316 19.4199Z"/>
</mask>
<path d="M22.707 12.2617L25.2754 11.9297C25.7572 11.9297 25.998 12.1185 25.998 12.4961C25.998 12.8737 25.7702 13.1113 25.3145 13.209C24.8587 13.3001 23.8301 13.4238 22.2285 13.5801C22.0072 14.1595 21.6751 14.9635 21.2324 15.9922C20.3275 18.1016 19.875 19.3678 19.875 19.791C19.875 20.2533 20.1615 20.4844 20.7344 20.4844C22.5833 20.4844 24.2435 20.1751 25.7148 19.5566C25.9297 19.4655 26.099 19.4199 26.2227 19.4199C26.4635 19.4199 26.584 19.5273 26.584 19.7422C26.584 19.957 26.4277 20.1686 26.1152 20.377C25.1582 21.0085 23.7161 21.5358 21.7891 21.959C19.862 22.3822 18.0846 22.5938 16.457 22.5938C15.5326 22.5938 14.8262 22.4505 14.3379 22.1641C13.8496 21.8711 13.6055 21.4707 13.6055 20.9629C13.6055 20.4486 13.944 19.4883 14.6211 18.082C15.3828 16.5065 15.9297 15.123 16.2617 13.9316C15.8581 13.9512 15.5781 13.9609 15.4219 13.9609C15.0378 13.9609 14.8457 13.8047 14.8457 13.4922C14.8457 13.2643 14.9076 13.1113 15.0312 13.0332C15.1549 12.9551 15.2819 12.8997 15.4121 12.8672C15.5488 12.8346 15.6628 12.8151 15.7539 12.8086C15.8516 12.7956 15.985 12.7826 16.1543 12.7695C16.3236 12.7565 16.4473 12.7467 16.5254 12.7402C16.61 12.2454 16.6523 11.7799 16.6523 11.3438L16.6426 10.9727C16.6426 10.6797 17.0137 10.4811 17.7559 10.377C18.0033 10.3444 18.7812 10.1816 20.0898 9.88867C21.3984 9.5957 22.1992 9.44922 22.4922 9.44922C22.9609 9.44922 23.1953 9.61198 23.1953 9.9375C23.1953 10.4974 23.0326 11.2721 22.707 12.2617ZM28.1504 21.5488C26.9264 20.8132 26.3145 19.6966 26.3145 18.1992C26.3145 17.418 26.474 16.6855 26.793 16.002C27.1185 15.3118 27.5612 14.7161 28.1211 14.2148C28.6875 13.7135 29.3451 13.2839 30.0938 12.9258C31.5911 12.2031 33.3066 11.8418 35.2402 11.8418C39.0423 11.8418 41.0964 13.0462 41.4023 15.4551C41.8581 15.6048 42.3268 15.6797 42.8086 15.6797C43.2969 15.6797 43.7038 15.6439 44.0293 15.5723C44.3548 15.5007 44.6608 15.3932 44.9473 15.25C45.2402 15.1068 45.4486 15.0352 45.5723 15.0352C45.8197 15.0352 45.9434 15.1556 45.9434 15.3965C45.9434 15.6374 45.7513 15.888 45.3672 16.1484C44.6445 16.6432 43.6875 16.8906 42.4961 16.8906C42.0469 16.8906 41.6823 16.8678 41.4023 16.8223C41.194 18.4629 40.3477 19.8268 38.8633 20.9141C38.1536 21.4349 37.2812 21.8451 36.2461 22.1445C35.2174 22.444 34.1497 22.5938 33.043 22.5938C31.9427 22.5938 30.9987 22.5059 30.2109 22.3301C29.4232 22.1608 28.7363 21.9004 28.1504 21.5488ZM31.6953 19.0586C31.6953 20.263 32.1348 20.8652 33.0137 20.8652C33.5736 20.8652 34.0944 20.5592 34.5762 19.9473C35.0645 19.3353 35.4421 18.5768 35.709 17.6719C35.9824 16.7669 36.1191 15.8457 36.1191 14.9082C36.1191 13.9642 35.7904 13.4922 35.1328 13.4922C34.5599 13.4922 34.0033 13.7624 33.4629 14.3027C32.929 14.8431 32.4993 15.5462 32.1738 16.4121C31.8548 17.2715 31.6953 18.1536 31.6953 19.0586ZM55.7227 12.125L59.541 12.0176C59.7103 12.0176 59.8372 12.0697 59.9219 12.1738C60.0065 12.2715 60.0488 12.3822 60.0488 12.5059C60.0488 12.9746 59.8926 13.4303 59.5801 13.873C59.2741 14.3092 58.8802 14.6934 58.3984 15.0254C57.9167 15.3574 57.3535 15.6667 56.709 15.9531C55.5501 16.4674 54.2936 16.8646 52.9395 17.1445C53.8639 17.0078 54.6712 16.9395 55.3613 16.9395C57.015 16.9395 57.8418 17.457 57.8418 18.4922C57.8418 18.6549 57.7995 18.8991 57.7148 19.2246C57.6302 19.5436 57.5879 19.8008 57.5879 19.9961C57.5879 20.4128 57.7962 20.6211 58.2129 20.6211C58.5189 20.6211 58.9583 20.5104 59.5312 20.2891C60.1107 20.0612 60.5566 19.8594 60.8691 19.6836C61.1816 19.5078 61.39 19.4199 61.4941 19.4199C61.6048 19.4199 61.7025 19.4557 61.7871 19.5273C61.8717 19.5924 61.9141 19.7129 61.9141 19.8887C61.9141 20.0579 61.7741 20.2435 61.4941 20.4453C60.5436 21.1159 59.4043 21.6432 58.0762 22.0273C56.748 22.4049 55.5566 22.5938 54.502 22.5938C53.4538 22.5938 52.7441 22.4863 52.373 22.2715C52.002 22.0632 51.8164 21.7148 51.8164 21.2266C51.8164 20.9792 51.8848 20.6016 52.0215 20.0938C52.1582 19.5794 52.2266 19.1725 52.2266 18.873C52.2266 18.0072 51.709 17.5286 50.6738 17.4375C49.8926 19.5729 49.4759 21.0703 49.4238 21.9297C49.4108 22.1706 49.2383 22.291 48.9062 22.291L43.877 22.3984C43.8053 22.3984 43.724 22.3529 43.6328 22.2617C43.5482 22.1771 43.5059 22.0697 43.5059 21.9395C43.5059 21.8092 43.7142 21.1549 44.1309 19.9766C44.554 18.7982 45.0163 17.5189 45.5176 16.1387C46.0254 14.7585 46.4876 13.3229 46.9043 11.832C47.3275 10.3411 47.5391 9.23112 47.5391 8.50195L47.5293 8.22852C47.5293 7.90299 47.8451 7.74023 48.4766 7.74023L52.9492 7.71094C53.099 7.71094 53.2194 7.75977 53.3105 7.85742C53.4082 7.94857 53.457 8.04948 53.457 8.16016C53.457 8.72005 53.1771 9.9082 52.6172 11.7246C52.0573 13.541 51.5234 15.1361 51.0156 16.5098C52.1875 16.2038 53.1087 15.722 53.7793 15.0645C54.4499 14.4069 54.7852 13.7135 54.7852 12.9844L54.7754 12.6133C54.7754 12.2878 55.0911 12.125 55.7227 12.125ZM77.582 19.4199C77.8099 19.4199 77.9238 19.5273 77.9238 19.7422C77.9238 19.9505 77.7676 20.1458 77.4551 20.3281C77.1491 20.5039 76.7682 20.696 76.3125 20.9043C75.8568 21.1061 75.2285 21.347 74.4277 21.627C72.5853 22.2715 70.5052 22.5938 68.1875 22.5938C63.7865 22.5938 61.5859 21.2396 61.5859 18.5312C61.5859 17.2096 62.0026 16.0378 62.8359 15.0156C63.6758 13.987 64.7988 13.2025 66.2051 12.6621C67.6113 12.1152 69.1445 11.8418 70.8047 11.8418C72.4648 11.8418 73.679 12.099 74.4473 12.6133C75.222 13.1276 75.6094 13.834 75.6094 14.7324C75.6094 15.6569 75.2383 16.4121 74.4961 16.998C73.7604 17.584 72.7806 18.0202 71.5566 18.3066C70.3262 18.5931 68.9167 18.7949 67.3281 18.9121C67.4323 19.9212 68.1549 20.5495 69.4961 20.7969C69.8411 20.8555 70.2057 20.8848 70.5898 20.8848C72.1133 20.8848 74.3105 20.4258 77.1816 19.5078C77.3574 19.4492 77.4909 19.4199 77.582 19.4199ZM67.3379 17.8379C68.4707 17.5254 69.3659 17.0469 70.0234 16.4023C70.681 15.7578 71.0098 14.9798 71.0098 14.0684C71.0098 13.8275 70.9316 13.6354 70.7754 13.4922C70.6191 13.349 70.3815 13.2773 70.0625 13.2773C69.75 13.2773 69.4212 13.4141 69.0762 13.6875C68.7376 13.9609 68.4512 14.319 68.2168 14.7617C67.722 15.6797 67.429 16.7051 67.3379 17.8379ZM96.9316 19.4199C97.1725 19.4199 97.293 19.5339 97.293 19.7617C97.293 19.9831 97.1725 20.1784 96.9316 20.3477C96.6973 20.5169 96.349 20.7122 95.8867 20.9336C95.4245 21.1484 94.8483 21.3861 94.1582 21.6465C93.4746 21.9069 92.6803 22.1283 91.7754 22.3105C90.877 22.4993 90.0176 22.5938 89.1973 22.5938C87.2637 22.5938 86.2969 22.151 86.2969 21.2656C86.2969 20.6927 86.6224 19.6706 87.2734 18.1992C87.931 16.7214 88.2598 15.7253 88.2598 15.2109C88.2598 14.6315 87.8073 14.3418 86.9023 14.3418C86.4922 14.3418 86.0267 14.3939 85.5059 14.498C85.2585 15.3704 84.8158 16.7572 84.1777 18.6582C83.5462 20.5592 83.1882 21.64 83.1035 21.9004C83.0254 22.1608 82.8529 22.291 82.5859 22.291L77.5566 22.3984C77.485 22.3984 77.4036 22.3529 77.3125 22.2617C77.2279 22.1771 77.1855 22.0762 77.1855 21.959C77.1855 21.8353 77.3223 21.4089 77.5957 20.6797C77.8757 19.944 78.1816 19.1562 78.5137 18.3164C78.8522 17.4701 79.1582 16.5423 79.4316 15.5332C79.7116 14.5176 79.8516 13.6777 79.8516 13.0137L79.8418 12.6426C79.8418 12.3171 80.1576 12.1543 80.7891 12.1543L85.418 12.0469C85.5872 12.0469 85.7142 12.099 85.7988 12.2031C85.8835 12.3008 85.9258 12.4245 85.9258 12.5742C85.9258 12.7174 85.89 12.9518 85.8184 13.2773C88.11 12.3203 89.9915 11.8418 91.4629 11.8418C92.0879 11.8418 92.6576 12.0143 93.1719 12.3594C93.7448 12.7435 94.0312 13.3262 94.0312 14.1074C94.0312 14.9082 93.7285 15.9564 93.123 17.252C92.5176 18.5475 92.2148 19.3483 92.2148 19.6543C92.2148 20.2598 92.4557 20.5625 92.9375 20.5625C93.2435 20.5625 93.7643 20.4486 94.5 20.2207C95.2422 19.9863 95.7891 19.7943 96.1406 19.6445C96.4987 19.4948 96.7624 19.4199 96.9316 19.4199Z" fill="#260004"/>
<path d="M22.707 12.2617L17.0075 10.3869L14.0317 19.4332L23.4763 18.2122L22.707 12.2617ZM25.2754 11.9297V5.92969H24.8892L24.5061 5.97921L25.2754 11.9297ZM25.3145 13.209L26.4911 19.0925L26.5314 19.0844L26.5716 19.0758L25.3145 13.209ZM22.2285 13.5801L21.6459 7.60843L17.9491 7.96909L16.6236 11.4389L22.2285 13.5801ZM21.2324 15.9922L15.7212 13.6203L15.7184 13.6266L21.2324 15.9922ZM25.7148 19.5566L28.0399 25.0878L28.049 25.084L28.0581 25.0801L25.7148 19.5566ZM26.1152 20.377L29.4198 25.3849L29.4316 25.3771L29.4434 25.3693L26.1152 20.377ZM14.3379 22.1641L11.2509 27.309L11.2763 27.3242L11.3018 27.3392L14.3379 22.1641ZM14.6211 18.082L9.21928 15.4704L9.21508 15.4791L14.6211 18.082ZM16.2617 13.9316L22.0415 15.5424L24.2725 7.537L15.9717 7.93865L16.2617 13.9316ZM15.4121 12.8672L14.0224 7.03035L13.9896 7.03816L13.9569 7.04633L15.4121 12.8672ZM15.7539 12.8086L16.1814 18.7933L16.3647 18.7803L16.5469 18.756L15.7539 12.8086ZM16.5254 12.7402L17.0237 18.7195L21.6558 18.3335L22.4395 13.7519L16.5254 12.7402ZM16.6523 11.3438H22.6523V11.2648L22.6503 11.1859L16.6523 11.3438ZM16.6426 10.9727H10.6426V11.0516L10.6447 11.1305L16.6426 10.9727ZM17.7559 10.377L16.9731 4.42823L16.9475 4.4316L16.9219 4.43519L17.7559 10.377ZM22.707 12.2617L23.4763 18.2122L26.0447 17.8802L25.2754 11.9297L24.5061 5.97921L21.9378 6.31124L22.707 12.2617ZM25.2754 11.9297V17.9297C24.8963 17.9297 23.5062 17.8832 22.1161 16.7936C20.4478 15.4861 19.998 13.6746 19.998 12.4961H25.998H31.998C31.998 10.9399 31.4278 8.84532 29.5187 7.34895C27.8877 6.07061 26.1362 5.92969 25.2754 5.92969V11.9297ZM25.998 12.4961H19.998C19.998 11.3824 20.3807 9.96841 21.4965 8.8048C22.4917 7.7669 23.5807 7.44429 24.0573 7.34217L25.3145 13.209L26.5716 19.0758C27.5039 18.876 28.9347 18.3858 30.1578 17.1102C31.5015 15.709 31.998 13.9874 31.998 12.4961H25.998ZM25.3145 13.209L24.1378 7.3255C24.1564 7.32177 23.9848 7.35291 23.4848 7.41303C23.0322 7.46746 22.4235 7.53257 21.6459 7.60843L22.2285 13.5801L22.8111 19.5517C24.3309 19.4035 25.6818 19.2543 26.4911 19.0925L25.3145 13.209ZM22.2285 13.5801L16.6236 11.4389C16.4464 11.9026 16.1526 12.6178 15.7212 13.6203L21.2324 15.9922L26.7437 18.3641C27.1976 17.3093 27.5679 16.4164 27.8334 15.7213L22.2285 13.5801ZM21.2324 15.9922L15.7184 13.6266C15.2459 14.728 14.8512 15.7018 14.5642 16.505C14.422 16.903 14.2788 17.3349 14.1641 17.7633C14.084 18.0625 13.875 18.8563 13.875 19.791H19.875H25.875C25.875 20.2233 25.8223 20.5379 25.8029 20.6468C25.7787 20.7822 25.7569 20.8627 25.7556 20.8678C25.754 20.8738 25.7805 20.7779 25.8645 20.5429C26.0299 20.0798 26.314 19.3658 26.7464 18.3578L21.2324 15.9922ZM19.875 19.791H13.875C13.875 21.3288 14.4148 23.4417 16.3223 24.9807C17.9836 26.321 19.7979 26.4844 20.7344 26.4844V20.4844V14.4844C21.0979 14.4844 22.4826 14.5322 23.8574 15.6414C25.4784 16.9493 25.875 18.7154 25.875 19.791H19.875ZM20.7344 20.4844V26.4844C23.2566 26.4844 25.7252 26.0608 28.0399 25.0878L25.7148 19.5566L23.3898 14.0254C22.7618 14.2894 21.9101 14.4844 20.7344 14.4844V20.4844ZM25.7148 19.5566L28.0581 25.0801C27.9887 25.1096 27.816 25.1796 27.5628 25.2478C27.3319 25.3099 26.8558 25.4199 26.2227 25.4199V19.4199V13.4199C24.863 13.4199 23.7872 13.8568 23.3715 14.0331L25.7148 19.5566ZM26.2227 19.4199V25.4199C25.5767 25.4199 23.9716 25.2908 22.5 23.9783C20.8976 22.5491 20.584 20.7486 20.584 19.7422H26.584H32.584C32.584 18.5209 32.2101 16.5592 30.4873 15.0227C28.8953 13.6028 27.1095 13.4199 26.2227 13.4199V19.4199ZM26.584 19.7422H20.584C20.584 18.3013 21.1305 17.1879 21.6402 16.4978C22.1108 15.8605 22.5917 15.5149 22.787 15.3847L26.1152 20.377L29.4434 25.3693C30.1893 24.872 32.584 23.0942 32.584 19.7422H26.584ZM26.1152 20.377L22.8107 15.369C22.8267 15.3584 22.6762 15.4571 22.2552 15.6111C21.8461 15.7607 21.2729 15.9294 20.5022 16.0986L21.7891 21.959L23.076 27.8193C25.2802 27.3353 27.5588 26.6129 29.4198 25.3849L26.1152 20.377ZM21.7891 21.959L20.5022 16.0986C18.912 16.4478 17.5722 16.5938 16.457 16.5938V22.5938V28.5938C18.5971 28.5938 20.8119 28.3165 23.076 27.8193L21.7891 21.959ZM16.457 22.5938V16.5938C16.2891 16.5938 16.2951 16.5794 16.4262 16.606C16.5535 16.6318 16.9149 16.7196 17.374 16.9889L14.3379 22.1641L11.3018 27.3392C13.1208 28.4064 15.0704 28.5938 16.457 28.5938V22.5938ZM14.3379 22.1641L17.4249 17.0191C17.8364 17.266 18.431 17.7327 18.9114 18.5204C19.4104 19.3388 19.6055 20.2095 19.6055 20.9629H13.6055H7.60547C7.60547 23.8673 9.21786 26.0892 11.2509 27.309L14.3379 22.1641ZM13.6055 20.9629H19.6055C19.6055 21.2199 19.5849 21.4224 19.5672 21.5532C19.5491 21.687 19.5288 21.7839 19.5168 21.8361C19.4945 21.9331 19.4848 21.9461 19.518 21.8518C19.5487 21.7647 19.6029 21.6233 19.6905 21.4194C19.777 21.2177 19.8879 20.9741 20.0271 20.6849L14.6211 18.082L9.21508 15.4791C8.82567 16.2879 8.47057 17.0966 8.20073 17.862C7.98201 18.4824 7.60547 19.6452 7.60547 20.9629H13.6055ZM14.6211 18.082L20.0229 20.6936C20.8818 18.9172 21.5832 17.1868 22.0415 15.5424L16.2617 13.9316L10.482 12.3209C10.2762 13.0593 9.88386 14.0958 9.21929 15.4704L14.6211 18.082ZM16.2617 13.9316L15.9717 7.93865C15.7862 7.94763 15.644 7.95363 15.5398 7.95726C15.4244 7.96129 15.3963 7.96094 15.4219 7.96094V13.9609V19.9609C15.7415 19.9609 16.1559 19.9438 16.5517 19.9246L16.2617 13.9316ZM15.4219 13.9609V7.96094C15.8888 7.96094 17.3524 8.03105 18.7763 9.18948C20.437 10.5406 20.8457 12.3588 20.8457 13.4922H14.8457H8.8457C8.8457 14.9381 9.35042 16.9907 11.2032 18.498C12.8192 19.8127 14.5709 19.9609 15.4219 19.9609V13.9609ZM14.8457 13.4922H20.8457C20.8457 14.115 20.6733 16.5663 18.2352 18.1061L15.0312 13.0332L11.8273 7.96027C9.14178 9.65638 8.8457 12.4136 8.8457 13.4922H14.8457ZM15.0312 13.0332L18.2352 18.1061C17.8679 18.3381 17.4093 18.5526 16.8673 18.688L15.4121 12.8672L13.9569 7.04633C13.1545 7.24693 12.442 7.57202 11.8273 7.96027L15.0312 13.0332ZM15.4121 12.8672L16.8018 18.704C16.7712 18.7113 16.7064 18.726 16.6139 18.7419C16.5249 18.7571 16.3757 18.7795 16.1814 18.7933L15.7539 12.8086L15.3264 6.82384C14.7876 6.86233 14.3263 6.95798 14.0224 7.03035L15.4121 12.8672ZM15.7539 12.8086L16.5469 18.756C16.5246 18.7589 16.5103 18.7606 16.5057 18.7611C16.5008 18.7617 16.5019 18.7615 16.5098 18.7607C16.5268 18.7591 16.5605 18.756 16.6145 18.7519L16.1543 12.7695L15.6941 6.7872C15.4806 6.80363 15.2201 6.82666 14.9609 6.86123L15.7539 12.8086ZM16.1543 12.7695L16.6145 18.7519C16.7854 18.7387 16.9252 18.7277 17.0237 18.7195L16.5254 12.7402L16.0271 6.76096C15.9693 6.76578 15.8618 6.77431 15.6941 6.7872L16.1543 12.7695ZM16.5254 12.7402L22.4395 13.7519C22.5729 12.9717 22.6523 12.1651 22.6523 11.3438H16.6523H10.6523C10.6523 11.3948 10.6471 11.5192 10.6113 11.7286L16.5254 12.7402ZM16.6523 11.3438L22.6503 11.1859L22.6405 10.8148L16.6426 10.9727L10.6447 11.1305L10.6544 11.5016L16.6523 11.3438ZM16.6426 10.9727H22.6426C22.6426 12.2737 22.1975 13.4629 21.5007 14.3858C20.8685 15.2233 20.1602 15.6757 19.7517 15.8943C19.3298 16.12 18.9919 16.2221 18.8432 16.2625C18.757 16.286 18.692 16.3 18.6532 16.3076C18.6138 16.3153 18.5917 16.3184 18.5898 16.3187L17.7559 10.377L16.9219 4.43519C16.3095 4.52114 15.2049 4.71728 14.0901 5.31375C12.9094 5.94552 10.6426 7.70681 10.6426 10.9727H16.6426ZM17.7559 10.377L18.5386 16.3257C19.1234 16.2487 20.2396 16.0037 21.4007 15.7437L20.0898 9.88867L18.779 4.03361C18.1363 4.17751 17.6456 4.28453 17.2963 4.35761C17.1209 4.3943 16.9979 4.41892 16.9182 4.43409C16.8091 4.45488 16.8549 4.44378 16.9731 4.42823L17.7559 10.377ZM20.0898 9.88867L21.4007 15.7437C22.0204 15.605 22.4617 15.5142 22.7515 15.4611C22.8206 15.4485 22.8741 15.4393 22.9139 15.4328C22.9335 15.4296 22.9483 15.4273 22.9588 15.4258C22.9694 15.4242 22.9742 15.4235 22.9737 15.4236C22.9734 15.4236 22.9656 15.4247 22.9513 15.4263C22.9372 15.4279 22.9129 15.4305 22.8798 15.4334C22.827 15.438 22.6866 15.4492 22.4922 15.4492V9.44922V3.44922C21.7215 3.44922 20.9324 3.59479 20.5922 3.65702C20.0813 3.75049 19.4679 3.87938 18.779 4.03361L20.0898 9.88867ZM22.4922 9.44922V15.4492C22.2172 15.4492 20.9443 15.435 19.5972 14.4995C18.8504 13.9809 18.1866 13.2461 17.7422 12.3203C17.3119 11.4237 17.1953 10.5758 17.1953 9.9375H23.1953H29.1953C29.1953 8.1295 28.4203 6.01695 26.4419 4.64307C24.8604 3.54483 23.236 3.44922 22.4922 3.44922V9.44922ZM23.1953 9.9375H17.1953C17.1953 9.79232 17.2055 9.69946 17.2089 9.67138C17.2126 9.64133 17.2129 9.65049 17.2014 9.7049C17.1772 9.82026 17.1212 10.041 17.0075 10.3869L22.707 12.2617L28.4066 14.1366C28.7909 12.9683 29.1953 11.4658 29.1953 9.9375H23.1953ZM28.1504 21.5488L25.0594 26.6914L25.0634 26.6938L28.1504 21.5488ZM26.793 16.002L21.3664 13.4422L21.3611 13.4534L21.3559 13.4646L26.793 16.002ZM28.1211 14.2148L24.1445 9.72185L24.1316 9.73327L24.1188 9.74476L28.1211 14.2148ZM30.0938 12.9258L32.6825 18.3386L32.692 18.334L32.7016 18.3294L30.0938 12.9258ZM41.4023 15.4551L35.4502 16.2112L35.9279 19.9719L39.5294 21.1553L41.4023 15.4551ZM44.9473 15.25L42.312 9.85969L42.2879 9.87146L42.264 9.88344L44.9473 15.25ZM45.3672 16.1484L42.0002 11.1822L41.9888 11.1899L41.9775 11.1977L45.3672 16.1484ZM41.4023 16.8223L42.3664 10.9002L36.233 9.90176L35.4501 16.0664L41.4023 16.8223ZM38.8633 20.9141L35.3179 16.0736L35.3132 16.077L38.8633 20.9141ZM36.2461 22.1445L34.5786 16.3809L34.5689 16.3837L36.2461 22.1445ZM30.2109 22.3301L31.5176 16.4741L31.4946 16.4689L31.4714 16.464L30.2109 22.3301ZM34.5762 19.9473L29.8861 16.2052L29.8739 16.2205L29.8617 16.2359L34.5762 19.9473ZM35.709 17.6719L29.9655 15.9364L29.9597 15.9554L29.9541 15.9744L35.709 17.6719ZM33.4629 14.3027L29.2202 10.0601L29.2074 10.073L29.1946 10.0859L33.4629 14.3027ZM32.1738 16.4121L26.5576 14.3007L26.5532 14.3124L26.5489 14.3241L32.1738 16.4121ZM28.1504 21.5488L31.2414 16.4063C31.4269 16.5178 31.7703 16.7929 32.0349 17.2758C32.2924 17.7455 32.3145 18.1178 32.3145 18.1992H26.3145H20.3145C20.3145 21.6778 21.9261 24.8081 25.0594 26.6914L28.1504 21.5488ZM26.3145 18.1992H32.3145C32.3145 18.2198 32.312 18.2702 32.2967 18.3407C32.2812 18.4119 32.2575 18.4805 32.2301 18.5393L26.793 16.002L21.3559 13.4646C20.6528 14.9713 20.3145 16.5733 20.3145 18.1992H26.3145ZM26.793 16.002L32.2196 18.5617C32.2177 18.5656 32.2069 18.5869 32.1849 18.6165C32.1627 18.6464 32.14 18.67 32.1234 18.6849L28.1211 14.2148L24.1188 9.74476C22.9519 10.7896 22.0288 12.0379 21.3664 13.4422L26.793 16.002ZM28.1211 14.2148L32.0977 18.7078C32.2081 18.6101 32.3885 18.4792 32.6825 18.3386L30.0938 12.9258L27.505 7.51298C26.3016 8.08851 25.1669 8.81697 24.1445 9.72185L28.1211 14.2148ZM30.0938 12.9258L32.7016 18.3294C33.2631 18.0584 34.063 17.8418 35.2402 17.8418V11.8418V5.8418C32.5503 5.8418 29.9191 6.34785 27.4859 7.52215L30.0938 12.9258ZM35.2402 11.8418V17.8418C35.8885 17.8418 36.3112 17.8944 36.5553 17.9446C36.8013 17.9952 36.7736 18.0243 36.5974 17.9209C36.3945 17.802 36.0848 17.5581 35.8217 17.1553C35.5609 16.756 35.4737 16.3964 35.4502 16.2112L41.4023 15.4551L47.3545 14.699C46.9725 11.6915 45.3363 9.13432 42.6673 7.5693C40.3256 6.19621 37.6326 5.8418 35.2402 5.8418V11.8418ZM41.4023 15.4551L39.5294 21.1553C40.5923 21.5045 41.6934 21.6797 42.8086 21.6797V15.6797V9.67969C42.9603 9.67969 43.1239 9.70515 43.2753 9.75489L41.4023 15.4551ZM42.8086 15.6797V21.6797C43.5499 21.6797 44.4236 21.629 45.3185 21.4321L44.0293 15.5723L42.7401 9.7124C42.8114 9.69671 42.8655 9.68772 42.8992 9.68277C42.9332 9.67779 42.9521 9.6761 42.954 9.67593C42.9561 9.67575 42.9451 9.67675 42.9197 9.67777C42.8945 9.67878 42.8577 9.67969 42.8086 9.67969V15.6797ZM44.0293 15.5723L45.3185 21.4321C46.1076 21.2585 46.8838 20.9899 47.6305 20.6166L44.9473 15.25L42.264 9.88344C42.4378 9.79653 42.6021 9.74277 42.7401 9.7124L44.0293 15.5723ZM44.9473 15.25L47.5825 20.6403C47.5819 20.6406 47.5761 20.6434 47.5654 20.6484C47.5548 20.6533 47.5377 20.661 47.5146 20.6709C47.472 20.6891 47.3894 20.7232 47.2737 20.763C47.1633 20.8009 46.9755 20.8605 46.7286 20.9137C46.4966 20.9638 46.0908 21.0352 45.5723 21.0352V15.0352V9.03516C44.5199 9.03516 43.6947 9.3041 43.3728 9.41475C42.9527 9.55916 42.586 9.72572 42.312 9.85969L44.9473 15.25ZM45.5723 15.0352V21.0352C44.8106 21.0352 43.13 20.8508 41.6649 19.4243C40.1701 17.9689 39.9434 16.2421 39.9434 15.3965H45.9434H51.9434C51.9434 14.31 51.6547 12.4025 50.0363 10.8267C48.4475 9.2797 46.5813 9.03516 45.5723 9.03516V15.0352ZM45.9434 15.3965H39.9434C39.9434 13.8385 40.5801 12.7117 41.0367 12.1158C41.4696 11.5509 41.8856 11.2599 42.0002 11.1822L45.3672 16.1484L48.7341 21.1147C49.3293 20.7112 51.9434 18.8903 51.9434 15.3965H45.9434ZM45.3672 16.1484L41.9775 11.1977C42.5544 10.8027 42.9031 10.8906 42.4961 10.8906V16.8906V22.8906C44.4719 22.8906 46.7347 22.4838 48.7569 21.0992L45.3672 16.1484ZM42.4961 16.8906V10.8906C42.3693 10.8906 42.2933 10.8873 42.26 10.8852C42.2446 10.8843 42.2456 10.884 42.261 10.8856C42.276 10.8872 42.3122 10.8914 42.3664 10.9002L41.4023 16.8223L40.4383 22.7443C41.1653 22.8627 41.8871 22.8906 42.4961 22.8906V16.8906ZM41.4023 16.8223L35.4501 16.0664C35.4493 16.0732 35.4516 16.0522 35.4651 16.0136C35.4789 15.9744 35.4967 15.9385 35.5131 15.9121C35.5289 15.8866 35.5327 15.8872 35.5088 15.9123C35.4839 15.9385 35.4258 15.9945 35.3179 16.0736L38.8633 20.9141L42.4087 25.7545C45.0568 23.8149 46.9142 21.0456 47.3545 17.5781L41.4023 16.8223ZM38.8633 20.9141L35.3132 16.077C35.2831 16.0991 35.0834 16.2348 34.5786 16.3809L36.2461 22.1445L37.9136 27.9082C39.4791 27.4553 41.0242 26.7707 42.4134 25.7511L38.8633 20.9141ZM36.2461 22.1445L34.5689 16.3837C34.103 16.5193 33.6011 16.5938 33.043 16.5938V22.5938V28.5938C34.6984 28.5938 36.3319 28.3687 37.9233 27.9053L36.2461 22.1445ZM33.043 22.5938V16.5938C32.2355 16.5938 31.7536 16.5268 31.5176 16.4741L30.2109 22.3301L28.9042 28.1861C30.2438 28.485 31.65 28.5938 33.043 28.5938V22.5938ZM30.2109 22.3301L31.4714 16.464C31.2154 16.409 31.1673 16.3618 31.2374 16.4039L28.1504 21.5488L25.0634 26.6938C26.3054 27.439 27.631 27.9127 28.9505 28.1962L30.2109 22.3301ZM31.6953 19.0586H25.6953C25.6953 20.2126 25.8741 22.1633 27.1782 23.9504C28.739 26.0893 31.0476 26.8652 33.0137 26.8652V20.8652V14.8652C33.4747 14.8652 34.1639 14.9448 34.9299 15.2947C35.7291 15.6598 36.3929 16.2207 36.8716 16.8768C37.3243 17.497 37.5212 18.0752 37.6077 18.4309C37.6932 18.7823 37.6953 19.0143 37.6953 19.0586H31.6953ZM33.0137 20.8652V26.8652C36.0592 26.8652 38.1421 25.1175 39.2906 23.6586L34.5762 19.9473L29.8617 16.2359C29.9557 16.1165 30.2441 15.7802 30.7849 15.4625C31.3707 15.1183 32.141 14.8652 33.0137 14.8652V20.8652ZM34.5762 19.9473L39.2662 23.6893C40.3265 22.3605 41.0214 20.8693 41.4639 19.3694L35.709 17.6719L29.9541 15.9744C29.8627 16.2844 29.8024 16.3101 29.8861 16.2052L34.5762 19.9473ZM35.709 17.6719L41.4525 19.4073C41.8946 17.9444 42.1191 16.4386 42.1191 14.9082H36.1191H30.1191C30.1191 15.2528 30.0703 15.5895 29.9655 15.9364L35.709 17.6719ZM36.1191 14.9082H42.1191C42.1191 13.9243 41.9812 12.1185 40.7959 10.4168C39.3359 8.32078 37.0994 7.49219 35.1328 7.49219V13.4922V19.4922C34.58 19.4922 33.807 19.3914 32.9743 18.9929C32.112 18.5802 31.4281 17.9631 30.9492 17.2756C30.0926 16.0459 30.1191 14.9481 30.1191 14.9082H36.1191ZM35.1328 13.4922V7.49219C32.493 7.49219 30.4978 8.78256 29.2202 10.0601L33.4629 14.3027L37.7055 18.5454C37.5087 18.7422 36.6268 19.4922 35.1328 19.4922V13.4922ZM33.4629 14.3027L29.1946 10.0859C27.9543 11.3414 27.1165 12.8142 26.5576 14.3007L32.1738 16.4121L37.7901 18.5235C37.8357 18.4022 37.8646 18.3565 37.8599 18.3641C37.8573 18.3683 37.8462 18.3859 37.8248 18.4136C37.8033 18.4414 37.7724 18.4778 37.7312 18.5196L33.4629 14.3027ZM32.1738 16.4121L26.5489 14.3241C25.9851 15.8428 25.6953 17.4315 25.6953 19.0586H31.6953H37.6953C37.6953 18.8758 37.7245 18.7002 37.7988 18.5002L32.1738 16.4121ZM55.7227 12.125V18.125H55.807L55.8914 18.1226L55.7227 12.125ZM59.541 12.0176V6.01758H59.4566L59.3723 6.01995L59.541 12.0176ZM59.9219 12.1738L55.2652 15.9574L55.3253 16.0314L55.3877 16.1034L59.9219 12.1738ZM59.5801 13.873L54.6783 10.4129L54.6732 10.4201L54.6681 10.4274L59.5801 13.873ZM56.709 15.9531L59.143 21.4373L59.1458 21.436L56.709 15.9531ZM52.9395 17.1445L51.7248 11.2688L53.8172 23.08L52.9395 17.1445ZM57.7148 19.2246L63.5142 20.7632L63.518 20.7488L63.5218 20.7344L57.7148 19.2246ZM59.5312 20.2891L61.6936 25.8859L61.7104 25.8794L61.7271 25.8728L59.5312 20.2891ZM61.7871 19.5273L57.9115 24.1077L58.0181 24.1979L58.1288 24.2831L61.7871 19.5273ZM61.4941 20.4453L64.9529 25.3481L64.978 25.3303L65.0029 25.3124L61.4941 20.4453ZM58.0762 22.0273L59.717 27.7986L59.7301 27.7949L59.7431 27.7911L58.0762 22.0273ZM52.373 22.2715L55.3793 17.0789L55.3449 17.059L55.3103 17.0396L52.373 22.2715ZM52.0215 20.0938L57.8152 21.6536L57.8177 21.6444L57.8201 21.6352L52.0215 20.0938ZM50.6738 17.4375L51.2001 11.4606L46.6191 11.0573L45.0391 15.376L50.6738 17.4375ZM49.4238 21.9297L43.4348 21.5667L43.4336 21.5863L43.4326 21.6058L49.4238 21.9297ZM48.9062 22.291V16.291H48.8422L48.7781 16.2924L48.9062 22.291ZM43.877 22.3984V28.3984H43.941L44.0051 28.3971L43.877 22.3984ZM43.6328 22.2617L39.3902 26.5044L43.6328 22.2617ZM44.1309 19.9766L38.4839 17.9487L38.479 17.9625L38.4741 17.9764L44.1309 19.9766ZM45.5176 16.1387L39.8866 14.0669L39.8823 14.0786L39.878 14.0903L45.5176 16.1387ZM46.9043 11.832L41.1323 10.1937L41.129 10.2054L41.1257 10.2171L46.9043 11.832ZM47.5391 8.50195H53.5391V8.39484L53.5352 8.2878L47.5391 8.50195ZM47.5293 8.22852H41.5293V8.33562L41.5331 8.44267L47.5293 8.22852ZM48.4766 7.74023V13.7402H48.4962L48.5159 13.7401L48.4766 7.74023ZM52.9492 7.71094V1.71094H52.9296L52.9099 1.71107L52.9492 7.71094ZM53.3105 7.85742L48.9242 11.9513L49.0654 12.1026L49.2166 12.2438L53.3105 7.85742ZM51.0156 16.5098L45.3878 14.4294L41.3981 25.2222L52.5315 22.3151L51.0156 16.5098ZM53.7793 15.0645L49.5785 10.7804L53.7793 15.0645ZM54.7852 12.9844H60.7852V12.9054L60.7831 12.8265L54.7852 12.9844ZM54.7754 12.6133H48.7754V12.6922L48.7775 12.7711L54.7754 12.6133ZM55.7227 12.125L55.8914 18.1226L59.7097 18.0152L59.541 12.0176L59.3723 6.01995L55.5539 6.12737L55.7227 12.125ZM59.541 12.0176V18.0176C59.0214 18.0176 58.2924 17.9385 57.4858 17.6077C56.6426 17.2617 55.8703 16.7021 55.2652 15.9574L59.9219 12.1738L64.5786 8.39027C63.0656 6.52815 61.0026 6.01758 59.541 6.01758V12.0176ZM59.9219 12.1738L55.3877 16.1034C54.5731 15.1634 54.0488 13.8946 54.0488 12.5059H60.0488H66.0488C66.0488 10.8697 65.44 9.37957 64.456 8.24424L59.9219 12.1738ZM60.0488 12.5059H54.0488C54.0488 11.5497 54.3914 10.8194 54.6783 10.4129L59.5801 13.873L64.4819 17.3331C65.3938 16.0413 66.0488 14.3995 66.0488 12.5059H60.0488ZM59.5801 13.873L54.6681 10.4274C54.81 10.2251 54.9457 10.118 54.9936 10.085L58.3984 15.0254L61.8033 19.9657C62.8147 19.2687 63.7382 18.3934 64.492 17.3187L59.5801 13.873ZM58.3984 15.0254L54.9936 10.085C54.8716 10.1691 54.6444 10.3048 54.2722 10.4703L56.709 15.9531L59.1458 21.436C60.0626 21.0285 60.9617 20.5457 61.8033 19.9657L58.3984 15.0254ZM56.709 15.9531L54.275 10.469C53.5409 10.7948 52.6972 11.0677 51.7248 11.2688L52.9395 17.1445L54.1542 23.0203C55.8901 22.6614 57.5593 22.1401 59.143 21.4373L56.709 15.9531ZM52.9395 17.1445L53.8172 23.08C54.5455 22.9723 55.0471 22.9395 55.3613 22.9395V16.9395V10.9395C54.2954 10.9395 53.1824 11.0433 52.0617 11.2091L52.9395 17.1445ZM55.3613 16.9395V22.9395C55.7563 22.9395 55.0331 23.0363 54.0381 22.4134C53.4539 22.0477 52.8335 21.4643 52.3908 20.6329C51.9565 19.8173 51.8418 19.0429 51.8418 18.4922H57.8418H63.8418C63.8418 16.0599 62.6965 13.6761 60.4053 12.2419C58.5834 11.1014 56.62 10.9395 55.3613 10.9395V16.9395ZM57.8418 18.4922H51.8418C51.8418 18.281 51.8551 18.1145 51.8661 18.0089C51.8774 17.8998 51.8902 17.8188 51.8982 17.7726C51.9132 17.6859 51.9222 17.6599 51.9079 17.7148L57.7148 19.2246L63.5218 20.7344C63.6288 20.3229 63.8418 19.4604 63.8418 18.4922H57.8418ZM57.7148 19.2246L51.9155 17.686C51.7757 18.213 51.5879 19.0463 51.5879 19.9961H57.5879H63.5879C63.5879 20.312 63.5555 20.5369 63.54 20.631C63.523 20.7345 63.509 20.783 63.5142 20.7632L57.7148 19.2246ZM57.5879 19.9961H51.5879C51.5879 21.1293 51.8753 23.0812 53.5015 24.7075C55.1277 26.3337 57.0797 26.6211 58.2129 26.6211V20.6211V14.6211C58.9294 14.6211 60.5689 14.8043 61.9868 16.2222C63.4047 17.6401 63.5879 19.2796 63.5879 19.9961H57.5879ZM58.2129 20.6211V26.6211C59.6808 26.6211 60.9833 26.1603 61.6936 25.8859L59.5312 20.2891L57.3689 14.6923C57.236 14.7436 57.2235 14.7407 57.3066 14.7198C57.3523 14.7083 57.4483 14.6859 57.5862 14.6654C57.7209 14.6454 57.9362 14.6211 58.2129 14.6211V20.6211ZM59.5312 20.2891L61.7271 25.8728C62.4058 25.6059 63.1458 25.287 63.8107 24.913L60.8691 19.6836L57.9276 14.4541C57.9672 14.4318 57.9433 14.4477 57.8265 14.5005C57.7158 14.5506 57.5553 14.6189 57.3354 14.7053L59.5312 20.2891ZM60.8691 19.6836L63.8107 24.913C63.8694 24.88 63.7804 24.9345 63.592 25.014C63.4957 25.0546 63.2956 25.1351 63.021 25.2123C62.7907 25.2771 62.2338 25.4199 61.4941 25.4199V19.4199V13.4199C60.1451 13.4199 59.1064 13.8822 58.9276 13.9577C58.5308 14.125 58.1814 14.3114 57.9276 14.4541L60.8691 19.6836ZM61.4941 19.4199V25.4199C60.183 25.4199 58.9081 24.951 57.9115 24.1077L61.7871 19.5273L65.6628 14.947C64.4968 13.9605 63.0266 13.4199 61.4941 13.4199V19.4199ZM61.7871 19.5273L58.1288 24.2831C55.9958 22.6423 55.9141 20.3816 55.9141 19.8887H61.9141H67.9141C67.9141 19.0442 67.7477 16.5426 65.4454 14.7716L61.7871 19.5273ZM61.9141 19.8887H55.9141C55.9141 18.2606 56.592 17.1076 57.0192 16.5414C57.4406 15.9827 57.8501 15.6757 57.9853 15.5783L61.4941 20.4453L65.0029 25.3124C65.4181 25.0131 66.0376 24.5124 66.599 23.7682C67.1661 23.0164 67.9141 21.686 67.9141 19.8887H61.9141ZM61.4941 20.4453L58.0354 15.5426C57.7219 15.7637 57.2139 16.0308 56.4092 16.2636L58.0762 22.0273L59.7431 27.7911C61.5947 27.2556 63.3654 26.468 64.9529 25.3481L61.4941 20.4453ZM58.0762 22.0273L56.4353 16.2561C55.4863 16.5259 54.8611 16.5938 54.502 16.5938V22.5938V28.5938C56.2522 28.5938 58.0098 28.284 59.717 27.7986L58.0762 22.0273ZM54.502 22.5938V16.5938C54.1549 16.5938 54.038 16.5742 54.0816 16.5808C54.1098 16.585 54.2363 16.6051 54.4294 16.6627C54.6128 16.7174 54.9605 16.8365 55.3793 17.0789L52.373 22.2715L49.3668 27.464C50.4964 28.118 51.6203 28.3449 52.2856 28.4456C53.0389 28.5596 53.8008 28.5938 54.502 28.5938V22.5938ZM52.373 22.2715L55.3103 17.0396C56.0434 17.4512 56.762 18.1149 57.2511 19.033C57.7181 19.9097 57.8164 20.7167 57.8164 21.2266H51.8164H45.8164C45.8164 23.4994 46.8597 26.0571 49.4358 27.5034L52.373 22.2715ZM51.8164 21.2266H57.8164C57.8164 21.4316 57.8028 21.5853 57.7937 21.669C57.7841 21.7567 57.7744 21.8118 57.7717 21.8266C57.7674 21.8506 57.7757 21.8001 57.8152 21.6536L52.0215 20.0938L46.2278 18.5339C46.0719 19.1129 45.8164 20.1376 45.8164 21.2266H51.8164ZM52.0215 20.0938L57.8201 21.6352C58.0042 20.9426 58.2266 19.9464 58.2266 18.873H52.2266H46.2266C46.2266 18.7236 46.2349 18.6097 46.2416 18.5399C46.2485 18.4686 46.2557 18.4235 46.2582 18.4088C46.2623 18.3843 46.2562 18.427 46.2229 18.5523L52.0215 20.0938ZM52.2266 18.873H58.2266C58.2266 17.1782 57.6711 15.0859 55.9115 13.4591C54.3103 11.9787 52.4384 11.5697 51.2001 11.4606L50.6738 17.4375L50.1476 23.4144C49.9444 23.3965 48.8489 23.2722 47.7652 22.2704C46.5232 21.1221 46.2266 19.702 46.2266 18.873H52.2266ZM50.6738 17.4375L45.0391 15.376C44.2817 17.4461 43.547 19.716 43.4348 21.5667L49.4238 21.9297L55.4128 22.2927C55.4007 22.4932 55.3857 22.3817 55.5558 21.7706C55.7071 21.2269 55.95 20.479 56.3086 19.499L50.6738 17.4375ZM49.4238 21.9297L43.4326 21.6058C43.5092 20.1882 44.1879 18.4414 45.8501 17.2809C47.2007 16.3381 48.4998 16.291 48.9062 16.291V22.291V28.291C49.6447 28.291 51.1961 28.1837 52.7192 27.1204C54.554 25.8396 55.3254 23.912 55.4151 22.2535L49.4238 21.9297ZM48.9062 22.291L48.7781 16.2924L43.7488 16.3998L43.877 22.3984L44.0051 28.3971L49.0344 28.2896L48.9062 22.291ZM43.877 22.3984V16.3984C45.1323 16.3984 46.1022 16.7979 46.6938 17.1292C47.2774 17.456 47.6684 17.8121 47.8755 18.0191L43.6328 22.2617L39.3902 26.5044C39.7846 26.8987 41.3413 28.3984 43.877 28.3984V22.3984ZM43.6328 22.2617L47.8755 18.0191C48.3933 18.537 48.8284 19.1782 49.12 19.9185C49.4078 20.649 49.5059 21.3474 49.5059 21.9395H43.5059H37.5059C37.5059 23.5069 38.0759 25.19 39.3902 26.5044L43.6328 22.2617ZM43.5059 21.9395H49.5059C49.5059 22.129 49.4967 22.2878 49.4874 22.4036C49.4779 22.5221 49.4662 22.6227 49.4559 22.7003C49.4358 22.8512 49.4137 22.9694 49.3998 23.0392C49.385 23.1134 49.3718 23.1709 49.3633 23.2062C49.3546 23.2429 49.3477 23.2694 49.3439 23.2835C49.3369 23.3098 49.3354 23.3139 49.3429 23.2886C49.3499 23.2653 49.3616 23.2271 49.3793 23.1715C49.4151 23.0589 49.4665 22.9035 49.5363 22.6987C49.6054 22.4959 49.6889 22.2559 49.7876 21.9768L44.1309 19.9766L38.4741 17.9764C38.2587 18.5855 38.0778 19.1133 37.9449 19.5307C37.8804 19.7332 37.8082 19.9692 37.7459 20.2035C37.7154 20.3183 37.6716 20.4913 37.6314 20.6929C37.6103 20.799 37.5059 21.3037 37.5059 21.9395H43.5059ZM44.1309 19.9766L49.7778 22.0045C50.1981 20.8339 50.6579 19.5615 51.1571 18.187L45.5176 16.1387L39.878 14.0903C39.3747 15.4762 38.9099 16.7624 38.4839 17.9487L44.1309 19.9766ZM45.5176 16.1387L51.1485 18.2104C51.7144 16.6724 52.2253 15.0841 52.6829 13.447L46.9043 11.832L41.1257 10.2171C40.7499 11.5618 40.3363 12.8445 39.8866 14.0669L45.5176 16.1387ZM46.9043 11.832L52.6763 13.4704C53.1205 11.9054 53.5391 10.1167 53.5391 8.50195H47.5391H41.5391C41.5391 8.34357 41.5556 8.39515 41.4865 8.75788C41.4233 9.08944 41.312 9.56057 41.1323 10.1937L46.9043 11.832ZM47.5391 8.50195L53.5352 8.2878L53.5255 8.01437L47.5293 8.22852L41.5331 8.44267L41.5429 8.7161L47.5391 8.50195ZM47.5293 8.22852H53.5293C53.5293 9.16029 53.2884 10.25 52.6268 11.273C51.9838 12.2673 51.1619 12.8621 50.5152 13.1955C49.3965 13.7721 48.4814 13.7402 48.4766 13.7402V7.74023V1.74023C47.8402 1.74023 46.4515 1.78972 45.0171 2.52914C44.2124 2.94388 43.2721 3.64041 42.5502 4.75678C41.8097 5.9019 41.5293 7.13398 41.5293 8.22852H47.5293ZM48.4766 7.74023L48.5159 13.7401L52.9885 13.7108L52.9492 7.71094L52.9099 1.71107L48.4373 1.74036L48.4766 7.74023ZM52.9492 7.71094V13.7109C52.3677 13.7109 51.6539 13.6146 50.8976 13.308C50.1261 12.9952 49.4571 12.5223 48.9242 11.9513L53.3105 7.85742L57.6969 3.76351C56.3277 2.29657 54.5398 1.71094 52.9492 1.71094V7.71094ZM53.3105 7.85742L49.2166 12.2438C48.3703 11.4538 47.457 10.0511 47.457 8.16016H53.457H59.457C59.457 6.04788 58.4461 4.4433 57.4045 3.47109L53.3105 7.85742ZM53.457 8.16016H47.457C47.457 7.85483 47.4901 7.68647 47.48 7.74907C47.4747 7.78211 47.4551 7.8908 47.407 8.09517C47.3101 8.50648 47.1428 9.11574 46.8834 9.95721L52.6172 11.7246L58.351 13.492C58.6515 12.5171 58.9041 11.6241 59.0872 10.8472C59.239 10.2026 59.457 9.18608 59.457 8.16016H53.457ZM52.6172 11.7246L46.8834 9.95721C46.347 11.6974 45.8482 13.1841 45.3878 14.4294L51.0156 16.5098L56.6434 18.5902C57.1987 17.0881 57.7676 15.3846 58.351 13.492L52.6172 11.7246ZM51.0156 16.5098L52.5315 22.3151C54.4292 21.8196 56.3762 20.9212 57.9801 19.3485L53.7793 15.0645L49.5785 10.7804C49.6404 10.7197 49.6955 10.6755 49.7372 10.6456C49.7785 10.6161 49.8033 10.603 49.8049 10.6021C49.8055 10.6018 49.7171 10.6476 49.4998 10.7044L51.0156 16.5098ZM53.7793 15.0645L57.9801 19.3485C59.4538 17.9034 60.7852 15.7545 60.7852 12.9844H54.7852H48.7852C48.7852 12.3936 48.9286 11.8601 49.1321 11.4392C49.3232 11.044 49.5249 10.8329 49.5785 10.7804L53.7793 15.0645ZM54.7852 12.9844L60.7831 12.8265L60.7733 12.4554L54.7754 12.6133L48.7775 12.7711L48.7872 13.1422L54.7852 12.9844ZM54.7754 12.6133H60.7754C60.7754 13.5451 60.5345 14.6347 59.8729 15.6578C59.2299 16.6521 58.408 17.2469 57.7613 17.5802C56.6426 18.1569 55.7275 18.125 55.7227 18.125V12.125V6.125C55.0863 6.125 53.6976 6.17449 52.2631 6.9139C51.4585 7.32865 50.5182 8.02517 49.7963 9.14154C49.0558 10.2867 48.7754 11.5188 48.7754 12.6133H54.7754ZM77.4551 20.3281L80.4438 25.5308L80.4611 25.5208L80.4783 25.5108L77.4551 20.3281ZM76.3125 20.9043L78.7421 26.3904L78.7746 26.376L78.8071 26.3611L76.3125 20.9043ZM74.4277 21.627L72.4477 15.9631L72.4465 15.9635L74.4277 21.627ZM62.8359 15.0156L58.1883 11.221L58.1856 11.2243L62.8359 15.0156ZM66.2051 12.6621L68.3572 18.2629L68.3685 18.2585L68.3798 18.2541L66.2051 12.6621ZM74.4473 12.6133L71.1093 17.5991L71.119 17.6056L71.1288 17.612L74.4473 12.6133ZM74.4961 16.998L70.7782 12.2888L70.7681 12.2967L70.7581 12.3047L74.4961 16.998ZM71.5566 18.3066L72.9171 24.1504L72.9239 24.1488L71.5566 18.3066ZM67.3281 18.9121L66.8867 12.9284L60.7255 13.3829L61.3598 19.5282L67.3281 18.9121ZM69.4961 20.7969L68.4077 26.6973L68.4496 26.7051L68.4916 26.7122L69.4961 20.7969ZM77.1816 19.5078L79.0089 25.2228L79.044 25.2116L79.079 25.1999L77.1816 19.5078ZM67.3379 17.8379L61.3572 17.3567L60.6697 25.9015L68.9335 23.6218L67.3379 17.8379ZM69.0762 13.6875L65.3497 8.98502L65.3278 9.00234L65.3061 9.01985L69.0762 13.6875ZM68.2168 14.7617L73.4984 17.6086L73.509 17.5888L73.5195 17.569L68.2168 14.7617ZM77.582 19.4199V25.4199C76.8562 25.4199 75.196 25.2555 73.7223 23.866C72.1823 22.4141 71.9238 20.6528 71.9238 19.7422H77.9238H83.9238C83.9238 18.6167 83.6084 16.6943 81.9545 15.135C80.3668 13.6381 78.5357 13.4199 77.582 13.4199V19.4199ZM77.9238 19.7422H71.9238C71.9238 18.2253 72.5254 17.0418 73.1214 16.2968C73.6611 15.6221 74.2109 15.2743 74.4319 15.1455L77.4551 20.3281L80.4783 25.5108C81.2537 25.0585 83.9238 23.3055 83.9238 19.7422H77.9238ZM77.4551 20.3281L74.4663 15.1255C74.3721 15.1796 74.1688 15.2871 73.8179 15.4474L76.3125 20.9043L78.8071 26.3611C79.3677 26.1049 79.9261 25.8282 80.4438 25.5308L77.4551 20.3281ZM76.3125 20.9043L73.8829 15.4182C73.6413 15.5252 73.1857 15.7051 72.4477 15.9631L74.4277 21.627L76.4078 27.2908C77.2713 26.9889 78.0722 26.687 78.7421 26.3904L76.3125 20.9043ZM74.4277 21.627L72.4465 15.9635C71.3475 16.3479 69.9537 16.5938 68.1875 16.5938V22.5938V28.5938C71.0567 28.5938 73.823 28.195 76.4089 27.2904L74.4277 21.627ZM68.1875 22.5938V16.5938C67.3767 16.5938 66.8344 16.5298 66.505 16.4622C66.1684 16.3932 66.184 16.347 66.3809 16.4682C66.6178 16.6139 66.9912 16.9283 67.2743 17.4509C67.5504 17.9607 67.5859 18.3829 67.5859 18.5312H61.5859H55.5859C55.5859 21.8471 57.1156 24.8566 60.0917 26.6881C62.5901 28.2255 65.5665 28.5938 68.1875 28.5938V22.5938ZM61.5859 18.5312H67.5859C67.5859 18.5172 67.587 18.5274 67.582 18.557C67.577 18.5871 67.5675 18.6268 67.5517 18.6712C67.5359 18.7156 67.518 18.7529 67.5023 18.7805C67.4869 18.8076 67.4787 18.8163 67.4863 18.807L62.8359 15.0156L58.1856 11.2243C56.4773 13.3196 55.5859 15.8314 55.5859 18.5312H61.5859ZM62.8359 15.0156L67.4836 18.8102C67.5782 18.6944 67.7925 18.4799 68.3572 18.2629L66.2051 12.6621L64.0529 7.06137C61.8052 7.9251 59.7734 9.27951 58.1883 11.221L62.8359 15.0156ZM66.2051 12.6621L68.3798 18.2541C69.0263 18.0027 69.8138 17.8418 70.8047 17.8418V11.8418V5.8418C68.4753 5.8418 66.1963 6.22778 64.0304 7.07008L66.2051 12.6621ZM70.8047 11.8418V17.8418C71.0671 17.8418 71.2741 17.8521 71.4315 17.8661C71.59 17.8803 71.6815 17.8969 71.7173 17.9045C71.754 17.9122 71.7116 17.9062 71.6115 17.8673C71.5107 17.828 71.3309 17.7474 71.1093 17.5991L74.4473 12.6133L77.7852 7.62749C75.5158 6.10811 72.8307 5.8418 70.8047 5.8418V11.8418ZM74.4473 12.6133L71.1288 17.612C70.8326 17.4154 70.3986 17.0349 70.058 16.4138C69.7128 15.7844 69.6094 15.1733 69.6094 14.7324H75.6094H81.6094C81.6094 11.7406 80.1448 9.19391 77.7658 7.61453L74.4473 12.6133ZM75.6094 14.7324H69.6094C69.6094 14.3691 69.6883 13.8706 69.9461 13.3461C70.2017 12.8258 70.5342 12.4814 70.7782 12.2888L74.4961 16.998L78.214 21.7073C80.359 20.0139 81.6094 17.5416 81.6094 14.7324H75.6094ZM74.4961 16.998L70.7581 12.3047C70.8388 12.2405 70.8586 12.2435 70.7693 12.2833C70.6777 12.324 70.4942 12.3932 70.1893 12.4645L71.5566 18.3066L72.9239 24.1488C74.7362 23.7246 76.6102 22.9847 78.2341 21.6914L74.4961 16.998ZM71.5566 18.3066L70.1962 12.4629C69.334 12.6636 68.2416 12.8284 66.8867 12.9284L67.3281 18.9121L67.7696 24.8958C69.5917 24.7614 71.3184 24.5226 72.9171 24.1504L71.5566 18.3066ZM67.3281 18.9121L61.3598 19.5282C61.5581 21.4484 62.4284 23.2917 64.0117 24.6682C65.4553 25.9232 67.1054 26.4571 68.4077 26.6973L69.4961 20.7969L70.5845 14.8964C70.591 14.8976 70.7287 14.9227 70.9497 15.0165C71.1752 15.1122 71.5169 15.2922 71.8848 15.6121C72.7455 16.3603 73.2024 17.3849 73.2964 18.296L67.3281 18.9121ZM69.4961 20.7969L68.4916 26.7122C69.1988 26.8323 69.9013 26.8848 70.5898 26.8848V20.8848V14.8848C70.5102 14.8848 70.4835 14.8787 70.5006 14.8816L69.4961 20.7969ZM70.5898 20.8848V26.8848C73.0798 26.8848 76.0066 26.1827 79.0089 25.2228L77.1816 19.5078L75.3544 13.7928C72.6145 14.6688 71.1468 14.8848 70.5898 14.8848V20.8848ZM77.1816 19.5078L79.079 25.1999C79.0317 25.2157 78.8976 25.259 78.7 25.3024C78.5314 25.3394 78.1259 25.4199 77.582 25.4199V19.4199V13.4199C76.4749 13.4199 75.5754 13.7187 75.2843 13.8157L77.1816 19.5078ZM67.3379 17.8379L68.9335 23.6218C70.7824 23.1118 72.665 22.2147 74.2234 20.6872L70.0234 16.4023L65.8234 12.1175C65.8807 12.0613 65.9313 12.0205 65.9694 11.993C66.0071 11.9657 66.0295 11.9536 66.0304 11.9532C66.031 11.9529 66.0101 11.964 65.9626 11.9826C65.915 12.0011 65.8429 12.0262 65.7423 12.0539L67.3379 17.8379ZM70.0234 16.4023L74.2234 20.6872C76.019 18.9272 77.0098 16.6104 77.0098 14.0684H71.0098H65.0098C65.0098 13.7859 65.0645 13.4068 65.2364 12.9999C65.4079 12.5942 65.6368 12.3004 65.8234 12.1175L70.0234 16.4023ZM71.0098 14.0684H77.0098C77.0098 12.3989 76.4009 10.5095 74.8297 9.06926L70.7754 13.4922L66.721 17.9151C66.1592 17.4001 65.6968 16.7503 65.3934 16.0044C65.0971 15.2761 65.0098 14.5992 65.0098 14.0684H71.0098ZM70.7754 13.4922L74.8297 9.06926C73.122 7.50383 71.144 7.27734 70.0625 7.27734V13.2773V19.2773C69.619 19.2773 68.1163 19.1941 66.721 17.9151L70.7754 13.4922ZM70.0625 13.2773V7.27734C67.9397 7.27734 66.3302 8.208 65.3497 8.98502L69.0762 13.6875L72.8027 18.39C72.5122 18.6201 71.5603 19.2773 70.0625 19.2773V13.2773ZM69.0762 13.6875L65.3061 9.01985C64.2479 9.87463 63.4713 10.9019 62.9141 11.9544L68.2168 14.7617L73.5195 17.569C73.431 17.7362 73.2274 18.0472 72.8462 18.3551L69.0762 13.6875ZM68.2168 14.7617L62.9352 11.9149C62.0118 13.628 61.509 15.4705 61.3572 17.3567L67.3379 17.8379L73.3186 18.3191C73.3491 17.9396 73.4322 17.7314 73.4984 17.6086L68.2168 14.7617ZM96.9316 20.3477L93.482 15.4385L93.4502 15.4608L93.4187 15.4836L96.9316 20.3477ZM95.8867 20.9336L98.4156 26.3746L98.447 26.36L98.4781 26.3451L95.8867 20.9336ZM94.1582 21.6465L92.0399 16.0329L92.031 16.0362L92.0222 16.0396L94.1582 21.6465ZM91.7754 22.3105L90.5906 16.4287L90.566 16.4336L90.5415 16.4388L91.7754 22.3105ZM87.2734 18.1992L81.7915 15.7601L81.7866 15.7714L87.2734 18.1992ZM85.5059 14.498L84.3292 8.61456L80.7338 9.33364L79.7335 12.8611L85.5059 14.498ZM84.1777 18.6582L78.4895 16.7492L78.4866 16.7579L78.4837 16.7667L84.1777 18.6582ZM83.1035 21.9004L77.3973 20.0459L77.3762 20.1109L77.3566 20.1763L83.1035 21.9004ZM82.5859 22.291V16.291H82.5219L82.4578 16.2924L82.5859 22.291ZM77.5566 22.3984V28.3984H77.6207L77.6848 28.3971L77.5566 22.3984ZM77.3125 22.2617L73.0699 26.5044L77.3125 22.2617ZM77.5957 20.6797L71.988 18.5458L71.9828 18.5594L71.9777 18.5729L77.5957 20.6797ZM78.5137 18.3164L72.9428 16.0881L72.9383 16.0992L72.9339 16.1105L78.5137 18.3164ZM79.4316 15.5332L73.6474 13.9388L73.6439 13.9514L73.6405 13.964L79.4316 15.5332ZM79.8516 13.0137H85.8516V12.9347L85.8495 12.8558L79.8516 13.0137ZM79.8418 12.6426H73.8418V12.7215L73.8439 12.8004L79.8418 12.6426ZM80.7891 12.1543V18.1543H80.8587L80.9283 18.1527L80.7891 12.1543ZM85.418 12.0469V6.04688H85.3484L85.2788 6.04849L85.418 12.0469ZM85.7988 12.2031L81.1421 15.9867L81.2023 16.0607L81.2647 16.1327L85.7988 12.2031ZM85.8184 13.2773L79.9585 11.9882L77.4781 23.2625L88.1305 18.8139L85.8184 13.2773ZM93.1719 12.3594L89.8291 17.342L89.8306 17.3429L93.1719 12.3594ZM94.5 20.2207L96.2752 25.9521L96.291 25.9472L96.3068 25.9422L94.5 20.2207ZM96.1406 19.6445L93.8258 14.1091L93.8076 14.1167L93.7895 14.1244L96.1406 19.6445ZM96.9316 19.4199V25.4199C96.2078 25.4199 94.5496 25.2549 93.0794 23.8642C91.5468 22.4144 91.293 20.6604 91.293 19.7617H97.293H103.293C103.293 18.6351 102.979 16.7103 101.326 15.1466C99.7352 13.6419 97.8964 13.4199 96.9316 13.4199V19.4199ZM97.293 19.7617H91.293C91.293 18.7181 91.5945 17.7375 92.0956 16.9249C92.5652 16.1634 93.1172 15.6948 93.482 15.4385L96.9316 20.3477L100.381 25.2568C101.641 24.3714 103.293 22.5519 103.293 19.7617H97.293ZM96.9316 20.3477L93.4187 15.4836C93.4855 15.4353 93.5325 15.4053 93.5519 15.3931C93.5723 15.3803 93.5763 15.3786 93.56 15.3877C93.5442 15.3966 93.5146 15.4128 93.4689 15.4362C93.4235 15.4596 93.3661 15.4882 93.2953 15.5221L95.8867 20.9336L98.4781 26.3451C99.0571 26.0679 99.78 25.6917 100.445 25.2117L96.9316 20.3477ZM95.8867 20.9336L93.3578 15.4926C93.075 15.624 92.6465 15.804 92.0399 16.0329L94.1582 21.6465L96.2766 27.2601C97.0501 26.9682 97.774 26.6728 98.4156 26.3746L95.8867 20.9336ZM94.1582 21.6465L92.0222 16.0396C91.7153 16.1565 91.2512 16.2956 90.5906 16.4287L91.7754 22.3105L92.9602 28.1924C94.1094 27.9609 95.2339 27.6573 96.2942 27.2534L94.1582 21.6465ZM91.7754 22.3105L90.5415 16.4388C90.0015 16.5523 89.5573 16.5938 89.1973 16.5938V22.5938V28.5938C90.4779 28.5938 91.7524 28.4464 93.0093 28.1823L91.7754 22.3105ZM89.1973 22.5938V16.5938C88.5001 16.5938 88.8173 16.4847 89.52 16.8065C89.9459 17.0015 90.6907 17.4387 91.329 18.3155C92.0143 19.2569 92.2969 20.3227 92.2969 21.2656H86.2969H80.2969C80.2969 22.6513 80.7003 24.1044 81.6273 25.3778C82.5073 26.5867 83.6146 27.3006 84.5239 27.717C86.1934 28.4815 87.9608 28.5938 89.1973 28.5938V22.5938ZM86.2969 21.2656H92.2969C92.2969 21.4724 92.2826 21.6338 92.2703 21.7373C92.2577 21.8429 92.2439 21.9163 92.2367 21.9515C92.2237 22.0155 92.2226 22.0015 92.2581 21.8901C92.3314 21.6598 92.4838 21.252 92.7603 20.627L87.2734 18.1992L81.7866 15.7714C81.412 16.6178 81.0761 17.4567 80.8239 18.2486C80.6071 18.9295 80.2969 20.0376 80.2969 21.2656H86.2969ZM87.2734 18.1992L92.7553 20.6383C93.1269 19.8032 93.46 18.9844 93.7108 18.2243C93.9123 17.6141 94.2598 16.4759 94.2598 15.2109H88.2598H82.2598C82.2598 14.9644 82.2788 14.7732 82.294 14.6559C82.3097 14.5351 82.3267 14.4507 82.3354 14.4109C82.3512 14.3381 82.3536 14.3478 82.3155 14.4631C82.2376 14.6992 82.0775 15.1174 81.7916 15.7601L87.2734 18.1992ZM88.2598 15.2109H94.2598C94.2598 13.0676 93.2602 10.8535 91.1558 9.50611C89.5078 8.45097 87.8024 8.3418 86.9023 8.3418V14.3418V20.3418C86.827 20.3418 86.5881 20.3374 86.2438 20.264C85.9044 20.1915 85.3268 20.0229 84.6851 19.6121C84.0028 19.1752 83.3265 18.5109 82.8529 17.6013C82.3894 16.711 82.2598 15.855 82.2598 15.2109H88.2598ZM86.9023 14.3418V8.3418C86.0013 8.3418 85.1307 8.45426 84.3292 8.61456L85.5059 14.498L86.6826 20.3815C86.7962 20.3588 86.8717 20.3482 86.9128 20.3437C86.9544 20.339 86.9488 20.3418 86.9023 20.3418V14.3418ZM85.5059 14.498L79.7335 12.8611C79.5279 13.5862 79.1245 14.8574 78.4895 16.7492L84.1777 18.6582L89.8659 20.5673C90.5071 18.6569 90.9891 17.1547 91.2782 16.135L85.5059 14.498ZM84.1777 18.6582L78.4837 16.7667C77.8567 18.6542 77.4897 19.7615 77.3973 20.0459L83.1035 21.9004L88.8097 23.7549C88.8866 23.5185 89.2358 22.4643 89.8718 20.5497L84.1777 18.6582ZM83.1035 21.9004L77.3566 20.1763C77.5887 19.4025 78.1319 18.2867 79.3011 17.4042C80.4805 16.5141 81.7275 16.291 82.5859 16.291V22.291V28.291C83.7113 28.291 85.178 28.0029 86.53 26.9825C87.8717 25.9699 88.5402 24.6587 88.8505 23.6245L83.1035 21.9004ZM82.5859 22.291L82.4578 16.2924L77.4285 16.3998L77.5566 22.3984L77.6848 28.3971L82.7141 28.2896L82.5859 22.291ZM77.5566 22.3984V16.3984C78.812 16.3984 79.7818 16.7979 80.3735 17.1292C80.957 17.456 81.3481 17.8121 81.5551 18.0191L77.3125 22.2617L73.0699 26.5044C73.4642 26.8987 75.021 28.3984 77.5566 28.3984V22.3984ZM77.3125 22.2617L81.5551 18.0191C82.0118 18.4757 82.4432 19.0694 82.7505 19.8022C83.0588 20.5375 83.1855 21.278 83.1855 21.959H77.1855H71.1855C71.1855 23.7052 71.887 25.3215 73.0699 26.5044L77.3125 22.2617ZM77.1855 21.959H83.1855C83.1855 22.2154 83.1685 22.4246 83.1539 22.5635C83.1386 22.7079 83.1203 22.827 83.1057 22.9122C83.0774 23.0774 83.0482 23.1996 83.0341 23.2566C83.0061 23.3689 82.9878 23.4214 83.0016 23.3782C83.0265 23.3005 83.0902 23.1158 83.2137 22.7864L77.5957 20.6797L71.9777 18.5729C71.8278 18.9727 71.6864 19.3658 71.5746 19.7146C71.52 19.8846 71.4504 20.1125 71.3883 20.3623C71.3651 20.4557 71.1855 21.1295 71.1855 21.959H77.1855ZM77.5957 20.6797L83.2034 22.8136C83.473 22.1052 83.7695 21.3416 84.0934 20.5224L78.5137 18.3164L72.9339 16.1105C72.5938 16.9709 72.2783 17.7828 71.988 18.5458L77.5957 20.6797ZM78.5137 18.3164L84.0845 20.5448C84.5206 19.4546 84.8973 18.3036 85.2228 17.1024L79.4316 15.5332L73.6405 13.964C73.4191 14.7811 73.1838 15.4855 72.9428 16.0881L78.5137 18.3164ZM79.4316 15.5332L85.2159 17.1276C85.5658 15.8583 85.8516 14.436 85.8516 13.0137H79.8516H73.8516C73.8516 12.9382 73.8582 12.9753 73.8282 13.1552C73.7992 13.329 73.7445 13.5864 73.6474 13.9388L79.4316 15.5332ZM79.8516 13.0137L85.8495 12.8558L85.8397 12.4847L79.8418 12.6426L73.8439 12.8004L73.8536 13.1715L79.8516 13.0137ZM79.8418 12.6426H85.8418C85.8418 13.5743 85.6009 14.664 84.9393 15.6871C84.2963 16.6814 83.4744 17.2762 82.8277 17.6095C81.709 18.1862 80.7939 18.1543 80.7891 18.1543V12.1543V6.1543C80.1527 6.1543 78.764 6.20379 77.3296 6.9432C76.5249 7.35795 75.5846 8.05447 74.8627 9.17084C74.1222 10.316 73.8418 11.548 73.8418 12.6426H79.8418ZM80.7891 12.1543L80.9283 18.1527L85.5572 18.0453L85.418 12.0469L85.2788 6.04849L80.6499 6.15591L80.7891 12.1543ZM85.418 12.0469V18.0469C84.8984 18.0469 84.1693 17.9678 83.3628 17.6369C82.5195 17.291 81.7473 16.7314 81.1421 15.9867L85.7988 12.2031L90.4555 8.41957C88.9425 6.55745 86.8796 6.04688 85.418 6.04688V12.0469ZM85.7988 12.2031L81.2647 16.1327C80.2562 14.9691 79.9258 13.6253 79.9258 12.5742H85.9258H91.9258C91.9258 11.2236 91.5107 9.63248 90.333 8.27354L85.7988 12.2031ZM85.9258 12.5742H79.9258C79.9258 12.3718 79.9378 12.2171 79.9459 12.1323C79.9544 12.042 79.9635 11.979 79.9677 11.9513C79.9755 11.9003 79.9766 11.9058 79.9585 11.9882L85.8184 13.2773L91.6782 14.5665C91.7532 14.2259 91.9258 13.4301 91.9258 12.5742H85.9258ZM85.8184 13.2773L88.1305 18.8139C90.1247 17.9811 91.1498 17.8418 91.4629 17.8418V11.8418V5.8418C88.8333 5.8418 86.0954 6.65947 83.5062 7.74075L85.8184 13.2773ZM91.4629 11.8418V17.8418C91.2158 17.8418 90.9265 17.8065 90.6198 17.7136C90.3126 17.6206 90.0457 17.4873 89.8291 17.342L93.1719 12.3594L96.5146 7.3768C95.0021 6.36206 93.2668 5.8418 91.4629 5.8418V11.8418ZM93.1719 12.3594L89.8306 17.3429C89.2994 16.9868 88.7822 16.444 88.4319 15.7316C88.0961 15.0485 88.0312 14.4504 88.0312 14.1074H94.0312H100.031C100.031 11.6356 98.9897 9.03621 96.5131 7.3758L93.1719 12.3594ZM94.0312 14.1074H88.0312C88.0312 13.9338 88.0473 13.8219 88.0533 13.7849C88.0596 13.7469 88.06 13.7595 88.0398 13.8293C87.9969 13.9779 87.896 14.2651 87.6873 14.7116L93.123 17.252L98.5587 19.7923C99.2883 18.2311 100.031 16.2263 100.031 14.1074H94.0312ZM93.123 17.252L87.6873 14.7116C87.3568 15.419 87.0581 16.0981 86.8296 16.7025C86.7161 17.0026 86.5897 17.3635 86.4842 17.749C86.4055 18.0369 86.2148 18.7635 86.2148 19.6543H92.2148H98.2148C98.2148 19.8772 98.2014 20.0645 98.1869 20.2051C98.1722 20.3477 98.154 20.4668 98.1381 20.5572C98.1072 20.7323 98.0748 20.8575 98.059 20.9151C98.0501 20.9477 98.0429 20.9718 98.0385 20.9862C98.034 21.0008 98.0314 21.0086 98.0312 21.0089C98.0311 21.0094 98.0328 21.0043 98.0367 20.9933C98.0407 20.9823 98.0464 20.9666 98.0542 20.946C98.0875 20.858 98.1438 20.7178 98.2312 20.516C98.3175 20.317 98.4257 20.0769 98.5587 19.7923L93.123 17.252ZM92.2148 19.6543H86.2148C86.2148 20.5925 86.3748 22.4053 87.7005 24.0713C89.2343 25.9989 91.3611 26.5625 92.9375 26.5625V20.5625V14.5625C94.0321 14.5625 95.7976 14.9747 97.0906 16.5996C98.1753 17.9629 98.2148 19.3216 98.2148 19.6543H92.2148ZM92.9375 20.5625V26.5625C94.2588 26.5625 95.5764 26.1685 96.2752 25.9521L94.5 20.2207L92.7248 14.4893C92.5957 14.5293 92.4928 14.5591 92.4136 14.5806C92.3332 14.6025 92.2889 14.6127 92.2754 14.6157C92.2588 14.6193 92.3006 14.6094 92.3882 14.5973C92.434 14.591 92.502 14.5827 92.5887 14.5759C92.6743 14.5691 92.7927 14.5625 92.9375 14.5625V20.5625ZM94.5 20.2207L96.3068 25.9422C97.0858 25.6962 97.8611 25.4333 98.4918 25.1647L96.1406 19.6445L93.7895 14.1244C93.7903 14.124 93.784 14.1267 93.7693 14.1326C93.7549 14.1384 93.7343 14.1465 93.7069 14.1569C93.6514 14.178 93.5763 14.2056 93.4787 14.2398C93.2817 14.309 93.0226 14.3952 92.6932 14.4992L94.5 20.2207ZM96.1406 19.6445L98.4555 25.18C98.4967 25.1627 98.4163 25.1995 98.2458 25.2479C98.1562 25.2734 98.0065 25.3121 97.8094 25.3462C97.6196 25.379 97.3155 25.4199 96.9316 25.4199V19.4199V13.4199C95.4523 13.4199 94.2099 13.9484 93.8258 14.1091L96.1406 19.6445Z" fill="white" mask="url(#path-5-outside-1_42_483)"/>
</g>
<defs>
<filter id="filter0_d_42_483" x="5.60547" y="0.710938" width="99.6875" height="30.8828" filterUnits="userSpaceOnUse" color-interpolation-filters="sRGB">
<feFlood flood-opacity="0" result="BackgroundImageFix"/>
<feColorMatrix in="SourceAlpha" type="matrix" values="0 0 0 0 0 0 0 0 0 0 0 0 0 0 0 0 0 0 127 0" result="hardAlpha"/>
<feOffset dy="1"/>
<feGaussianBlur stdDeviation="1"/>
<feComposite in2="hardAlpha" operator="out"/>
<feColorMatrix type="matrix" values="0 0 0 0 0 0 0 0 0 0 0 0 0 0 0 0 0 0 0.2 0"/>
<feBlend mode="normal" in2="BackgroundImageFix" result="effect1_dropShadow_42_483"/>
<feBlend mode="normal" in="SourceGraphic" in2="effect1_dropShadow_42_483" result="shape"/>
</filter>
<linearGradient id="paint0_linear_42_483" x1="29.2425" y1="65.7028" x2="82.2452" y2="65.7028" gradientUnits="userSpaceOnUse">
<stop stop-color="#FE1D37"/>
</linearGradient>
<linearGradient id="paint1_linear_42_483" x1="29.2425" y1="65.7028" x2="82.2452" y2="65.7028" gradientUnits="userSpaceOnUse">
<stop stop-color="#FE1D37"/>
</linearGradient>
<linearGradient id="paint2_linear_42_483" x1="29.2425" y1="65.7028" x2="82.2452" y2="65.7028" gradientUnits="userSpaceOnUse">
<stop stop-color="#FE1D37"/>
</linearGradient>
<linearGradient id="paint3_linear_42_483" x1="29.2425" y1="65.7028" x2="82.2452" y2="65.7028" gradientUnits="userSpaceOnUse">
<stop stop-color="#FE1D37"/>
</linearGradient>
<linearGradient id="paint4_linear_42_483" x1="29.2425" y1="65.7028" x2="82.2452" y2="65.7028" gradientUnits="userSpaceOnUse">
<stop stop-color="#FE1D37"/>
</linearGradient>
<linearGradient id="paint5_linear_42_483" x1="11" y1="91.5" x2="30" y2="91.5" gradientUnits="userSpaceOnUse">
<stop stop-color="#FE1D37"/>
<stop offset="1" stop-color="#FF8F94"/>
</linearGradient>
</defs>
</svg>
