<svg width="180" height="180" viewBox="0 0 180 180" fill="none" xmlns="http://www.w3.org/2000/svg">
<circle cx="90" cy="90" r="88.5" fill="white" stroke="#FF8F94" stroke-width="3"/>
<path d="M38.391 153V151.32H40.631V144.782H38.741V143.494C39.791 143.312 40.491 143.046 41.149 142.626H42.675V151.32H44.621V153H38.391ZM50.0788 153.196C48.4268 153.196 47.3488 152.552 46.5648 151.782L47.5168 150.466C48.1048 151.04 48.8468 151.516 49.7988 151.516C50.8768 151.516 51.6328 150.83 51.6328 149.612C51.6328 148.408 50.9188 147.736 49.8828 147.736C49.2808 147.736 48.9448 147.876 48.3288 148.268L47.3908 147.666L47.6708 142.626H53.2148V144.362H49.4488L49.2528 146.56C49.6588 146.364 50.0228 146.28 50.4988 146.28C52.2488 146.28 53.6908 147.302 53.6908 149.556C53.6908 151.866 51.9688 153.196 50.0788 153.196ZM59.5546 151.656C59.5546 150.592 59.5546 144.796 59.5546 143.606C59.5546 143.116 59.5126 142.416 59.4146 141.926H61.5986C61.5426 142.416 61.4726 143.032 61.4726 143.606V145.678C63.3486 146.224 66.0366 147.218 67.3246 147.848L66.5266 149.78C65.0846 149.024 62.9846 148.212 61.4726 147.694V151.656C61.4726 152.062 61.5426 153.042 61.5986 153.616H59.4146C59.4986 153.056 59.5546 152.216 59.5546 151.656ZM71.1466 146.518C71.6506 146.56 72.6726 146.602 73.4006 146.602C75.0526 146.602 79.6586 146.602 80.9186 146.602C81.5766 146.602 82.1926 146.546 82.5566 146.518V148.716C82.2206 148.702 81.5066 148.646 80.9186 148.646C79.6586 148.646 75.0386 148.646 73.4006 148.646C72.6026 148.646 71.6646 148.688 71.1466 148.716V146.518ZM92.5806 142.08C92.2586 142.57 91.8946 143.2 91.7266 143.508L91.6846 143.578H94.4986C94.9326 143.578 95.3946 143.508 95.7166 143.41L97.1446 144.292C96.9906 144.558 96.7946 144.95 96.6826 145.3C96.3046 146.546 95.5066 148.408 94.2466 149.976C92.9166 151.6 91.2226 152.888 88.5906 153.924L86.9386 152.44C89.7946 151.586 91.3626 150.368 92.5806 148.982C93.5326 147.89 94.3446 146.21 94.5686 145.16H90.6346C89.6966 146.378 88.4786 147.61 87.1066 148.548L85.5386 147.386C87.9886 145.888 89.2066 144.082 89.9066 142.878C90.1166 142.528 90.4106 141.884 90.5366 141.408L92.5806 142.08ZM102.633 142.36C103.613 143.018 105.433 144.474 106.245 145.328L104.817 146.784C104.089 146 102.339 144.474 101.317 143.76L102.633 142.36ZM100.883 151.684C103.067 151.376 104.887 150.662 106.245 149.85C108.639 148.436 110.459 146.294 111.341 144.404L112.433 146.378C111.369 148.268 109.507 150.2 107.253 151.558C105.839 152.412 104.033 153.196 102.059 153.532L100.883 151.684ZM119.685 153.196C116.871 153.196 114.715 151.32 114.715 147.862C114.715 144.446 116.927 142.444 119.685 142.444C121.183 142.444 122.219 143.088 122.891 143.774L121.785 145.09C121.267 144.6 120.679 144.222 119.755 144.222C118.019 144.222 116.843 145.566 116.843 147.792C116.843 150.046 117.865 151.404 119.909 151.404C120.399 151.404 120.917 151.264 121.197 151.012V148.968H119.363V147.274H123.059V151.95C122.345 152.65 121.113 153.196 119.685 153.196ZM125.968 153V142.626H132.324V144.362H128.04V146.756H131.666V148.492H128.04V151.264H132.478V153H125.968ZM137.339 153V144.362H134.427V142.626H142.337V144.362H139.411V153H137.339Z" fill="#260004"/>
<path d="M141.02 138.394L143.555 132.244L145.837 133.519L141.677 138.761L141.02 138.394Z" fill="url(#paint0_linear_42_385)"/>
<path d="M146.226 144.39L152.493 142.159L153.072 144.708L146.393 145.125L146.226 144.39Z" fill="url(#paint1_linear_42_385)"/>
<path d="M144.703 141.024L149.233 135.644L151.221 137.895L145.208 141.595L144.703 141.024Z" fill="url(#paint2_linear_42_385)"/>
<g clip-path="url(#clip0_42_385)">
<path d="M66.3952 98.9893C66.118 98.9679 65.8827 98.836 65.6966 98.6353C65.5608 98.4894 65.4706 98.2961 65.3841 98.1177C65.2948 97.9337 65.2167 97.7442 65.1404 97.5546C64.9469 97.077 64.7832 96.5874 64.626 96.0968C64.2428 94.9028 63.8493 93.7004 63.6075 92.4683C63.428 91.5522 63.2773 90.6193 63.2429 89.6845C63.2103 88.7712 63.2531 87.8568 63.3796 86.9518C63.5684 85.677 63.9303 84.4449 64.3116 83.2156C64.6976 81.9752 65.1023 80.7403 65.4697 79.4943C65.5255 79.3057 65.5804 79.117 65.6352 78.9284C65.6343 78.9331 65.6324 78.9377 65.6306 78.9433C65.6352 78.9275 65.6399 78.9117 65.6445 78.895C65.6473 78.8847 65.6501 78.8736 65.6529 78.8634C65.6557 78.855 65.6576 78.8466 65.6603 78.8383C66.3301 76.4754 66.9235 74.0911 67.3728 71.6753C67.4816 71.0908 67.5811 70.5054 67.6695 69.9164C67.7681 69.2213 67.8434 68.5254 67.8527 67.8211V67.9186C67.8527 67.8517 67.8546 67.7848 67.8527 67.717C67.8034 67.559 67.796 67.3881 67.8397 67.2199C67.9587 66.7748 68.3141 66.4292 68.7922 66.4022C69.2154 66.3771 69.5819 66.6131 69.7772 66.9802C69.82 67.0601 69.846 67.1474 69.8628 67.2357C69.9614 67.1957 70.0665 67.1716 70.1744 67.1651C70.6794 67.1363 71.1427 67.494 71.2394 67.9911C71.2412 67.9976 71.2422 68.0041 71.2431 68.0097C71.3752 68.4994 71.5194 68.9844 71.6552 69.4722C71.8263 70.0873 71.9937 70.7052 72.1686 71.3194C72.5081 72.5041 72.8411 73.6916 73.2959 74.8373C73.5499 75.4394 73.8438 76.021 74.1619 76.5925C74.5935 77.3423 75.0595 78.0708 75.5543 78.7797C75.679 78.9591 75.8055 79.1365 75.9357 79.3122C75.9376 79.314 75.9385 79.3159 75.9404 79.3177C75.9515 79.3317 75.9618 79.3456 75.9729 79.3595C75.9859 79.3753 75.998 79.3921 76.0101 79.4097C76.0148 79.4162 76.0194 79.4227 76.025 79.4292C76.5124 80.0648 77.0333 80.679 77.5877 81.2578C78.0658 81.7401 78.5857 82.1824 79.115 82.607C79.2015 82.5903 79.2908 82.5866 79.3773 82.5959C79.9307 82.6572 80.3623 83.1246 80.3186 83.6941C80.3474 83.7601 80.3688 83.8289 80.3828 83.9023C80.4265 84.1271 80.3921 84.3632 80.2879 84.5657C80.2935 84.9588 80.3056 85.3518 80.3149 85.7448C80.3288 86.3572 80.3372 86.9695 80.3493 87.5818C80.3735 88.8139 80.4153 90.0441 80.4804 91.2744C80.5148 91.9257 80.5586 92.5761 80.6144 93.2247C80.6627 93.7794 80.1986 94.2737 79.6535 94.3053C79.6331 94.3072 79.6126 94.3072 79.5931 94.3072C79.2229 94.3072 78.901 94.1065 78.7215 93.8073C77.77 94.1687 76.7924 94.4614 75.8185 94.755C74.6158 95.1183 73.4206 95.4919 72.2439 95.9323C71.8644 96.0745 71.4859 96.2213 71.111 96.3737C70.2832 96.7147 69.4647 97.0733 68.6154 97.3567C68.2359 97.4831 67.8518 97.5992 67.462 97.6903C67.5616 98.062 67.4369 98.4912 67.1393 98.7458C66.9542 98.9047 66.7161 98.9921 66.4733 98.9921C66.4473 98.9921 66.4212 98.9911 66.3952 98.9893ZM67.7634 97.0092C67.7681 96.9962 67.7727 96.9832 67.7774 96.9702C67.7839 96.9247 67.7904 96.8791 67.7969 96.8327C67.796 96.8252 67.795 96.8187 67.7941 96.8113C67.7885 96.8791 67.7783 96.9451 67.7625 97.0083L67.7634 97.0092Z" fill="#FFA4B2"/>
<path d="M101.585 118.715C101.452 118.559 101.369 118.365 101.346 118.162C101.26 117.969 101.231 117.748 101.276 117.529C101.303 117.397 101.325 117.266 101.345 117.133C101.432 116.495 101.466 115.847 101.474 115.202C101.478 114.834 101.479 114.462 101.445 114.096C101.426 113.974 101.401 113.854 101.372 113.734C101.281 113.406 101.167 113.086 101.042 112.771C100.939 112.531 100.823 112.299 100.694 112.072C100.191 111.197 99.661 110.339 99.1764 109.453C98.5653 108.335 97.9905 107.195 97.5682 105.99C97.2463 105.072 96.945 104.135 96.771 103.177C96.5943 102.204 96.5041 101.218 96.5143 100.229C96.5143 100.275 96.5134 100.321 96.5125 100.368C96.5152 100.148 96.5125 99.9154 96.5348 99.6896C96.4659 99.2185 96.4139 98.7446 96.3804 98.2698C96.306 97.2199 96.3329 96.1587 96.4827 95.1153C96.4976 95.0214 96.5115 94.9276 96.5264 94.8337C96.5376 94.7622 96.558 94.6953 96.585 94.6312C96.5515 94.4769 96.5506 94.3162 96.5525 94.1527C96.5571 93.8646 96.585 93.5766 96.6166 93.2895C96.6892 92.6437 96.7896 92.0016 96.9152 91.3642C97.0371 90.7435 97.1738 90.1265 97.3115 89.5096C97.4426 88.9214 97.5821 88.3388 97.7672 87.7646C98.1058 86.7146 98.4918 85.6795 98.8378 84.6314C99.1671 83.6335 99.4936 82.6346 99.7857 81.6255C100.473 79.1976 101.009 76.7297 101.652 74.2906C101.965 73.1041 102.272 71.9157 102.55 70.7198C102.832 69.5091 103.039 68.2854 103.222 67.0561C103.224 67.0412 103.226 67.0273 103.228 67.0124C103.25 66.8619 103.271 66.7114 103.291 66.5618C102.997 66.3611 102.811 66.0108 102.838 65.6354C102.89 64.9264 102.945 64.2147 102.958 63.5038C102.96 63.1108 102.959 62.7187 102.934 62.3266C102.91 61.9465 102.869 61.5674 102.823 61.1902C102.744 60.5695 102.656 59.9507 102.544 59.3365C102.424 58.6833 102.271 58.0338 102.105 57.3917C101.897 56.6233 101.655 55.866 101.359 55.1273C101.165 54.6609 100.957 54.2009 100.712 53.7587C100.548 53.4836 100.371 53.2197 100.182 52.9624C99.848 52.5284 99.4917 52.1122 99.1169 51.7145C98.8964 51.4933 98.6658 51.2843 98.4239 51.0864C98.1737 50.8931 97.9151 50.7119 97.6463 50.5465C97.3049 50.3495 96.9543 50.1721 96.5943 50.0113C95.9311 49.7344 95.2484 49.5105 94.5684 49.2754C93.8327 49.0208 93.1007 48.7625 92.3863 48.4549C91.3315 47.9922 90.3353 47.4245 89.3633 46.8084C88.2871 46.1274 87.2379 45.3924 86.2603 44.5738C85.4 43.8546 84.5535 43.1122 83.7471 42.3307C83.3285 41.9247 82.9239 41.5047 82.5081 41.0959C82.1863 40.7781 81.8747 40.4585 81.5873 40.1137C81.2822 40.359 80.9808 40.6108 80.6804 40.8617C80.2041 41.2585 79.7372 41.6645 79.2889 42.091C78.5289 42.8381 77.8062 43.6232 77.1356 44.4511C76.2994 45.5206 75.5478 46.6533 74.8418 47.8129C74.3154 48.6993 73.8177 49.6015 73.3638 50.527C72.9211 51.4283 72.5211 52.3547 72.1174 53.2746C72.1249 53.2578 72.1323 53.242 72.1388 53.2253C72.1183 53.2718 72.0988 53.3173 72.0784 53.3638C72.0784 53.3638 72.0784 53.3638 72.0784 53.3628C72.0765 53.3666 72.0756 53.3693 72.0737 53.3731C72.0737 53.374 72.0737 53.3749 72.0728 53.3749C72.056 53.413 72.0393 53.4511 72.0225 53.4892C72.0402 53.4483 72.0588 53.4074 72.0765 53.3666C71.643 54.3691 71.2338 55.3829 70.8487 56.404C70.7454 56.6791 70.6431 56.9541 70.5241 57.2226C70.3473 57.6175 70.0302 57.9325 69.5735 57.9585C69.553 57.9595 69.5325 57.9604 69.5121 57.9604C69.3 57.9604 69.1065 57.8963 68.9447 57.7876C68.6731 57.742 68.4201 57.5934 68.2722 57.3471C68.235 57.2858 68.2108 57.2375 68.1866 57.1817C68.1922 57.1957 68.1978 57.2096 68.2033 57.2236C68.142 57.0767 68.0648 56.9364 67.9996 56.7915C67.8722 56.5044 67.7587 56.2098 67.6527 55.9153C67.4518 55.3568 67.276 54.7891 67.1048 54.2214C66.7291 52.9791 66.4156 51.7154 66.2472 50.4266C66.0677 49.0608 65.9859 47.6819 66.0128 46.3048C66.0398 44.9938 66.157 43.6818 66.4091 42.393C66.6584 41.1182 66.9802 39.8508 67.4788 38.6484C67.9801 37.4414 68.6005 36.2753 69.3214 35.1854C69.7418 34.5508 70.2339 33.9626 70.7324 33.3884C71.217 32.8299 71.7314 32.2966 72.2597 31.78C73.2076 30.8592 74.2149 30.0173 75.293 29.2535C76.3477 28.5056 77.4509 27.8366 78.6238 27.2911C80.9371 26.2142 83.4318 25.5071 85.9767 25.2823C87.2286 25.1717 88.4936 25.1605 89.7493 25.2051C91.059 25.2525 92.3705 25.3798 93.6569 25.6372C94.3108 25.7682 94.9545 25.9513 95.5953 26.1352C96.1953 26.3071 96.7915 26.4902 97.3645 26.7429C97.9449 26.9994 98.4918 27.3199 99.0285 27.6582C99.5075 27.9611 99.981 28.2723 100.447 28.5948C100.501 28.6319 100.555 28.6691 100.608 28.7072C100.826 28.8614 100.969 29.09 101.022 29.3372C101.266 29.4775 101.503 29.628 101.737 29.7832C102.072 30.0052 102.406 30.231 102.699 30.5079C103.14 30.9242 103.518 31.4018 103.886 31.8831C104.28 32.3997 104.674 32.9173 105.055 33.4441C105.111 33.5212 105.166 33.5993 105.221 33.6773C105.227 33.682 105.234 33.6857 105.241 33.6904C105.382 33.7796 105.514 33.8901 105.638 34.0007C106.14 34.443 106.529 34.9921 106.88 35.558C107.543 36.6293 108.013 37.8243 108.414 39.0136C108.602 39.5692 108.761 40.1323 108.906 40.6991C109.012 40.8143 109.094 40.9528 109.16 41.1014C109.294 41.3988 109.413 41.7026 109.529 42.0083C109.733 42.5463 109.924 43.0908 110.097 43.639C110.285 44.2356 110.444 44.8404 110.559 45.4565C110.677 46.093 110.762 46.735 110.831 47.378C110.874 47.7794 110.912 48.1808 110.947 48.5832C110.958 48.6055 110.967 48.6287 110.975 48.6528C111.065 48.8982 111.113 49.163 111.174 49.4166C111.247 49.7149 111.312 50.0159 111.379 50.3161C111.517 50.9395 111.654 51.564 111.782 52.1902C112.039 53.4558 112.264 54.7259 112.443 56.0045C112.553 56.7887 112.65 57.5757 112.753 58.3609C112.855 59.1414 112.971 59.92 113.068 60.7015C113.063 60.6569 113.057 60.6123 113.051 60.5667C113.183 61.6093 113.286 62.6555 113.396 63.7008C113.503 64.7183 113.619 65.7357 113.743 66.7522C113.738 66.7076 113.732 66.6621 113.727 66.6175C113.736 66.6918 113.745 66.7652 113.755 66.8396C113.749 66.795 113.743 66.7504 113.738 66.7048C113.863 67.7046 114.027 68.6989 114.222 69.6875C114.409 70.6427 114.643 71.5886 114.889 72.5308C114.877 72.488 114.867 72.4453 114.855 72.4016C114.966 72.8216 115.079 73.2407 115.19 73.6606C115.188 73.6523 115.185 73.643 115.183 73.6346C115.493 74.8128 115.795 75.9938 116.039 77.1878C116.287 78.3929 116.5 79.5999 116.655 80.8199C116.819 82.1217 116.944 83.4253 117.032 84.7336C117.115 85.9694 117.198 87.2062 117.336 88.4373C117.356 88.6166 117.378 88.796 117.4 88.9762V88.9818V88.9855C117.4 88.9855 117.4 88.9883 117.4 88.9892V88.993V88.9874V88.9939C117.4 88.9985 117.401 89.0032 117.402 89.0078C117.404 89.0199 117.405 89.0329 117.406 89.045C117.406 89.0422 117.405 89.0385 117.405 89.0348C117.405 89.0338 117.405 89.032 117.405 89.031V89.0338V89.0255C117.405 89.0255 117.405 89.0283 117.405 89.0292C117.405 89.0245 117.405 89.0199 117.404 89.0153C117.405 89.0245 117.406 89.0348 117.407 89.045C117.409 89.0552 117.41 89.0654 117.411 89.0756C117.411 89.0794 117.412 89.0831 117.413 89.0877V89.0849C117.413 89.0849 117.413 89.084 117.413 89.0831C117.413 89.0812 117.412 89.0794 117.412 89.0775C117.412 89.0775 117.412 89.0784 117.412 89.0794C117.411 89.0719 117.41 89.0654 117.409 89.058C117.562 90.2343 117.767 91.4014 117.918 92.5786C118.002 93.2309 118.077 93.8841 118.122 94.5401C118.166 95.1943 118.16 95.8512 118.132 96.5063C118.093 97.4624 118.005 98.4166 117.867 99.3644C117.873 99.3189 117.881 99.2724 117.887 99.2269C117.836 99.5818 117.781 99.9349 117.718 100.288C117.632 100.766 117.175 101.092 116.707 101.092C116.638 101.092 116.569 101.085 116.501 101.07C116.43 101.055 116.36 101.031 116.295 101.002C116.14 101.438 115.989 101.876 115.837 102.315C115.423 103.517 115.016 104.721 114.556 105.908C114.089 107.111 113.555 108.284 112.99 109.444C112.694 110.053 112.398 110.655 112.025 111.221C111.977 111.292 111.93 111.363 111.881 111.433C111.663 111.871 111.441 112.307 111.222 112.744C110.921 113.343 110.639 113.951 110.369 114.566C110.241 114.86 110.112 115.155 109.992 115.454C109.931 115.608 109.861 115.766 109.813 115.925C109.815 115.916 109.818 115.906 109.821 115.896C109.741 116.163 109.555 116.398 109.29 116.53C109.166 116.591 109.039 116.615 108.903 116.63C108.872 116.634 108.842 116.636 108.811 116.636C108.434 116.636 108.094 116.38 107.923 116.057C107.756 115.743 107.818 115.418 107.936 115.109C107.991 114.962 108.047 114.817 108.105 114.671C107.928 114.491 107.835 114.262 107.81 114.012C107.794 113.851 107.777 113.69 107.757 113.53C107.646 112.689 107.471 111.862 107.288 111.035C106.791 112.177 106.316 113.328 105.753 114.44C105.19 115.55 104.564 116.635 103.872 117.669C103.74 117.866 103.603 118.06 103.468 118.256C103.37 118.399 103.276 118.542 103.164 118.673C102.988 118.908 102.721 119.07 102.417 119.07C102.093 119.07 101.794 118.965 101.578 118.714H101.581L101.585 118.715ZM108.807 107.995C108.807 107.995 108.814 107.989 108.816 107.985C108.833 107.945 108.851 107.906 108.869 107.866C108.871 107.856 108.874 107.846 108.877 107.835C108.858 107.89 108.835 107.943 108.807 107.995ZM70.5101 57.0182C70.5111 57.0098 70.5129 57.0006 70.5138 56.9922V56.994C70.5138 56.9485 70.5148 56.903 70.5157 56.8575C70.5101 56.8129 70.5045 56.7683 70.499 56.7246C70.4887 56.6828 70.4776 56.6419 70.4664 56.6001C70.4506 56.5601 70.4338 56.5211 70.418 56.4821C70.4125 56.4709 70.4059 56.4607 70.3994 56.4496C70.4869 56.6215 70.5287 56.8194 70.5101 57.0201V57.0182Z" fill="#FFA4B2"/>
<path d="M87.065 86.2279C85.8241 86.0207 84.6047 85.6313 83.4457 85.1463C81.0906 84.1604 78.8396 82.7918 77.0631 80.9427C76.6073 80.4698 76.1748 79.9764 75.7739 79.457C75.3748 78.9394 75.0195 78.3875 74.6875 77.8263C74.041 76.7336 73.4783 75.5842 72.9741 74.4199C72.7202 73.8336 72.4802 73.2417 72.2421 72.6489C71.9937 72.0292 71.7463 71.4085 71.5277 70.7766C71.1101 69.565 70.779 68.3282 70.5222 67.0729C70.5213 67.0674 70.5194 67.0609 70.5185 67.0553C70.5167 67.0478 70.5148 67.0395 70.5139 67.0311V67.0293C70.5055 66.9995 70.499 66.9689 70.4953 66.9373C70.2404 65.6875 70.0237 64.4294 69.8962 63.1602C69.8674 62.8777 69.8423 62.5943 69.8228 62.3109C69.8209 62.2877 69.819 62.2654 69.8181 62.2422V62.244V62.2366C69.8181 62.2291 69.8172 62.2208 69.8163 62.2124V62.2096C69.8163 62.1994 69.8144 62.1911 69.8144 62.1827C69.8144 62.1911 69.8163 62.2003 69.8163 62.2087C69.7735 61.5518 69.7558 60.8921 69.7344 60.2333C69.7251 59.949 69.7177 59.6646 69.7139 59.3794C69.7111 59.2168 69.7158 59.0523 69.7102 58.8897C69.7074 58.8637 69.7056 58.8377 69.7056 58.8107C69.7056 58.742 69.7139 58.6741 69.7325 58.6082C69.8107 58.3248 70.0572 58.1092 70.3492 58.0692C70.5139 58.0469 70.6832 58.0804 70.8255 58.164C70.9464 58.2346 71.032 58.3331 71.0989 58.4493C71.0989 58.4623 71.0989 58.4753 71.0989 58.4883C71.0152 58.5868 70.9799 58.7197 71.0022 58.846C71.0152 58.9111 71.0329 58.9752 71.0468 59.0402C71.0608 59.1053 71.0738 59.1712 71.085 59.2363C71.0971 59.3032 71.1092 59.3701 71.1213 59.437C71.138 59.5271 71.1473 59.6228 71.1882 59.7064C71.1938 59.7185 71.2003 59.7297 71.2068 59.7399C71.2096 59.8607 71.2124 59.9815 71.2161 60.1023C71.2375 60.7583 71.2505 61.4161 71.2933 62.0703C71.2924 62.06 71.2915 62.0489 71.2905 62.0377C71.2924 62.06 71.2933 62.0814 71.2952 62.1037C71.2961 62.1139 71.2971 62.1242 71.298 62.1344V62.1418C71.298 62.1483 71.298 62.1539 71.2989 62.1595C71.3008 62.1827 71.3026 62.205 71.3036 62.2282C71.418 63.6991 71.6542 65.1523 71.9416 66.6C71.9491 66.6288 71.9556 66.6576 71.9593 66.6873C71.9677 66.7245 71.9751 66.7617 71.9826 66.7979C71.9872 66.8193 71.9919 66.8406 71.9956 66.862C72.243 68.0318 72.5546 69.1849 72.9416 70.3158C73.2587 71.2013 73.6103 72.0728 73.9675 72.9425C74.3284 73.8197 74.7163 74.6838 75.1386 75.534C75.5562 76.36 76.0045 77.1675 76.5171 77.9396C76.8407 78.4107 77.1896 78.8586 77.5625 79.2925C78.0285 79.8119 78.5197 80.3025 79.0415 80.7662C79.4991 81.1574 79.9753 81.5197 80.4693 81.8635C81.139 82.3114 81.8282 82.7193 82.5463 83.0882C83.3416 83.484 84.1489 83.8455 84.9851 84.1465C85.6428 84.3714 86.3115 84.5563 86.9915 84.7022C87.3905 84.7793 87.7905 84.8369 88.1951 84.8685C88.5653 84.8871 88.9346 84.8852 89.3048 84.8648C89.7391 84.8313 90.1698 84.7709 90.5977 84.6873C91.1204 84.573 91.6329 84.4234 92.1398 84.2515C92.6458 84.0703 93.1426 83.8687 93.6253 83.6327C94.1025 83.3874 94.5582 83.1068 95.0056 82.8104C95.0242 82.7964 95.0438 82.7843 95.0624 82.7723C95.0633 82.7723 95.0642 82.7713 95.0652 82.7704H95.0661C95.0838 82.7583 95.1005 82.7472 95.1173 82.736C95.1117 82.7397 95.107 82.7435 95.1005 82.7462C95.8586 82.2287 96.5925 81.6851 97.2864 81.0858C97.8659 80.571 98.4137 80.0266 98.9355 79.4523C99.1662 79.1875 99.3913 78.919 99.6089 78.643C99.8136 78.3828 100.003 78.1125 100.189 77.8393C100.438 77.463 100.667 77.0783 100.884 76.6843C100.846 76.8915 100.808 77.0978 100.77 77.305C100.746 77.4323 100.726 77.5615 100.708 77.6897C100.707 77.6934 100.705 77.6971 100.703 77.7008C100.55 77.9917 100.39 78.2806 100.257 78.5808C100.093 78.9515 99.9419 79.3232 99.8061 79.7051C99.6815 80.0554 99.5801 80.4149 99.4834 80.7736C99.4759 80.8033 99.4676 80.8321 99.4592 80.8619C99.2155 81.0329 98.9709 81.2047 98.7486 81.4008C98.3867 81.7214 98.0761 82.094 97.7552 82.4545C97.5375 82.6905 97.3161 82.9246 97.0901 83.1542C96.7171 83.4338 96.3358 83.7033 95.9497 83.9644C95.9395 83.9709 95.9293 83.9783 95.919 83.9848C95.9144 83.9886 95.9097 83.9913 95.9051 83.9941C95.3944 84.3388 94.8736 84.6641 94.3229 84.9437C93.7611 85.229 93.176 85.465 92.5807 85.6694C92.0087 85.8655 91.4311 86.0327 90.8386 86.1526C90.1437 86.2929 89.4396 86.3654 88.7355 86.3654C88.1774 86.3654 87.6203 86.3199 87.0659 86.2279H87.065Z" fill="#260004"/>
<path d="M102.913 71.0771C102.904 71.1663 102.897 71.2555 102.89 71.3447C102.877 71.3466 102.863 71.3493 102.85 71.3512C102.871 71.2601 102.892 71.1682 102.913 71.0762V71.0771Z" fill="#260004"/>
<path d="M70.4747 67.9052C70.1185 67.8671 69.7948 67.724 69.4841 67.553C69.1707 67.3802 68.9177 67.12 68.6991 66.8394C68.3056 66.333 67.9978 65.756 67.7401 65.1716C67.515 64.6633 67.3299 64.13 67.1904 63.592C67.0313 62.9806 66.9141 62.345 66.8695 61.715C66.8286 61.1278 66.8797 60.5452 67.0118 59.9719C67.1178 59.511 67.2825 59.0427 67.5224 58.6274C67.6257 58.5252 67.728 58.4239 67.8313 58.3217C67.9085 58.2446 67.9857 58.1665 68.0619 58.0885C68.1894 57.9612 68.314 57.8311 68.4386 57.701C68.6014 57.6657 68.7586 57.6006 68.9037 57.5068C69.0302 57.4808 69.1595 57.4696 69.2851 57.4734C69.5632 57.4826 69.8162 57.5514 70.0618 57.6833C70.2301 57.7735 70.3873 57.9091 70.524 58.0411C70.6757 58.1888 70.8161 58.3542 70.9361 58.5289C70.9621 58.567 70.9882 58.6051 71.0133 58.6441C70.9938 58.7092 70.9891 58.7788 71.0012 58.8457C71.0142 58.9108 71.0319 58.9749 71.0459 59.0399C71.0598 59.105 71.0728 59.171 71.084 59.236C71.0961 59.3029 71.1082 59.3698 71.1203 59.4367C71.1305 59.4943 71.1389 59.5556 71.1537 59.6132C71.0263 59.8437 70.7798 60.0035 70.5008 60.0035C70.1929 60.0035 69.9232 59.8074 69.8115 59.5361C69.8115 59.538 69.8134 59.5398 69.8134 59.5426C69.8106 59.5343 69.8069 59.5259 69.8032 59.5166C69.7836 59.4813 69.7613 59.446 69.7399 59.4125C69.6878 59.3391 69.633 59.2694 69.5753 59.2007C69.5297 59.1505 69.4813 59.1022 69.4311 59.0557C69.4013 59.0306 69.3707 59.0074 69.34 58.9851C69.3307 58.9795 69.3214 58.974 69.3121 58.9684C69.3093 58.9675 69.3065 58.9656 69.3037 58.9647C69.3018 58.9637 69.3 58.9628 69.2972 58.9628C69.2879 58.961 69.2776 58.96 69.2674 58.9591H69.2395C69.2246 58.9619 69.2097 58.9637 69.1949 58.9656C69.1809 58.9693 69.1669 58.973 69.1539 58.9777C69.1474 58.9805 69.1409 58.9833 69.1344 58.986C69.1242 58.9926 69.113 58.9991 69.1018 59.0056C69.0888 59.0149 69.0758 59.0251 69.0628 59.0353C69.0386 59.0576 69.0153 59.0808 68.993 59.1041C68.9614 59.144 68.9298 59.184 68.9 59.2258C68.8507 59.3029 68.8061 59.3819 68.7633 59.4627C68.6963 59.6049 68.6349 59.7489 68.58 59.8966C68.5224 60.0732 68.4721 60.2516 68.4321 60.4337C68.394 60.6363 68.3652 60.8388 68.3475 61.0442C68.34 61.2161 68.3391 61.387 68.3475 61.5599C68.3791 61.9585 68.4424 62.3543 68.5205 62.7464C68.6033 63.1339 68.7084 63.5139 68.8358 63.8893C68.9632 64.2507 69.1093 64.6038 69.2758 64.9495C69.4116 65.2134 69.5604 65.4698 69.7223 65.7188C69.7995 65.8313 69.8813 65.9391 69.9687 66.045C70.0162 66.0961 70.0645 66.1453 70.1157 66.1937C70.1297 66.2039 70.1436 66.215 70.1576 66.2252C70.218 66.2615 70.2803 66.2949 70.3427 66.3275C70.3957 66.3525 70.4487 66.3767 70.5036 66.3981C70.5343 66.4064 70.565 66.4157 70.5947 66.4232C70.6217 66.4269 70.6487 66.4306 70.6757 66.4334C71.0793 66.4752 71.3658 66.8785 71.3119 67.2706C71.2598 67.6525 70.9287 67.9108 70.5575 67.9108C70.5296 67.9108 70.5026 67.9089 70.4738 67.9061L70.4747 67.9052Z" fill="#260004"/>
<path d="M80.5799 94.1043C80.5483 93.6955 80.5418 93.2839 80.526 92.8741C80.5074 92.3751 80.4897 91.8752 80.4692 91.3763C80.4246 90.2696 80.3688 89.1639 80.3055 88.0582C80.2823 87.6531 80.2571 87.2479 80.2311 86.8428C80.2339 86.8753 80.2358 86.9088 80.2376 86.9413C80.2348 86.8958 80.2311 86.8502 80.2292 86.8056C80.2209 86.7248 80.2172 86.6412 80.2116 86.5585C80.2013 86.4052 80.1911 86.2528 80.1799 86.1004C80.1604 85.817 80.1381 85.5336 80.1167 85.2493C80.0748 84.7122 80.0283 84.1752 79.9967 83.6372C79.9865 83.4504 79.9772 83.2646 79.9688 83.0778C79.9669 83.0351 79.9642 82.9914 79.9614 82.9477C79.9418 82.8186 79.9586 82.6857 80.019 82.5649C80.0925 82.4181 80.1883 82.2964 80.3325 82.2137C80.5036 82.1152 80.712 82.0892 80.9036 82.1421C81.2357 82.2341 81.471 82.5621 81.4468 82.904C81.4468 83.0016 81.4589 83.102 81.4626 83.1995C81.4719 83.4095 81.484 83.6195 81.497 83.8286C81.4961 83.8193 81.4952 83.8091 81.4943 83.7988C81.4952 83.8118 81.4961 83.8239 81.497 83.836C81.497 83.8434 81.497 83.8518 81.498 83.8592V83.8453C81.5361 84.413 81.5882 84.9798 81.6301 85.5466C81.6514 85.8393 81.6719 86.1311 81.6914 86.4238C81.6989 86.5306 81.71 86.6375 81.7119 86.7443C81.7184 86.8428 81.7249 86.9413 81.7314 87.0407C81.7407 87.1968 81.751 87.3529 81.7603 87.509C81.7938 88.0656 81.8245 88.6213 81.8524 89.1778C81.8989 90.0866 81.9417 90.9953 81.9761 91.904C82.0021 92.5702 82.0133 93.2374 82.0523 93.9036V93.9083C82.0533 93.9222 82.0542 93.9352 82.0551 93.9491V93.9584V93.9519C82.057 93.9928 82.0551 94.0328 82.0523 94.0718C81.9193 94.0978 81.7854 94.1201 81.6524 94.1387C81.5798 94.148 81.5063 94.1554 81.4347 94.1675C81.3845 94.1749 81.3361 94.1879 81.2868 94.1982C81.2152 94.2121 81.1436 94.227 81.0729 94.2483C81.0115 94.266 80.952 94.2901 80.8897 94.3087C80.8831 94.3106 80.8766 94.3124 80.8701 94.3143H80.8683C80.8004 94.3357 80.7371 94.3635 80.6739 94.3933C80.6199 94.3078 80.5855 94.2102 80.5771 94.1052L80.5799 94.1043Z" fill="#260004"/>
<path d="M96.8938 82.462C96.9319 82.0912 97.2538 81.792 97.6342 81.793C97.8333 81.793 98.0165 81.8747 98.1504 82.0058C98.0165 82.1544 97.8854 82.3059 97.7523 82.4545C97.4566 82.7751 97.1543 83.0929 96.8427 83.3995C96.8529 83.0882 96.8538 82.7714 96.8929 82.4629L96.8938 82.462Z" fill="#260004"/>
<path d="M43.0531 130.462C42.9879 130.289 42.9889 130.13 43.0224 129.952C43.0744 129.676 43.1377 129.401 43.201 129.128C43.3321 128.559 43.48 127.995 43.6297 127.431C43.9404 126.26 44.2743 125.094 44.6241 123.933C44.9757 122.764 45.3477 121.601 45.7282 120.441C46.1495 119.158 46.5969 117.882 47.102 116.629C47.5894 115.419 48.1317 114.231 48.7307 113.073C49.0209 112.512 49.3427 111.966 49.6711 111.426C50.0171 110.859 50.3817 110.302 50.7668 109.76C51.5156 108.707 52.3685 107.718 53.2605 106.783C54.147 105.855 55.1041 105 56.0826 104.17C57.0527 103.346 58.0536 102.558 59.1093 101.844C60.1762 101.122 61.2765 100.446 62.4011 99.8172C62.9331 99.5189 63.4726 99.2374 64.0196 98.967C64.0186 98.967 64.0177 98.9679 64.0168 98.9679C65.2427 98.3649 66.491 97.8083 67.7457 97.2684C68.9196 96.7648 70.1009 96.277 71.3017 95.8431C72.4867 95.4147 73.6866 95.0263 74.8837 94.6333C76.0269 94.2579 77.1728 93.8909 78.3215 93.5341C79.0889 93.2953 79.86 93.0704 80.6339 92.8567C81.0246 92.7489 81.4413 92.9915 81.5464 93.3808C81.6357 93.7116 81.4794 94.0554 81.1948 94.2198C81.1548 94.2291 81.1148 94.2384 81.0757 94.2505C81.0143 94.2681 80.9548 94.2923 80.8925 94.3109C80.886 94.3127 80.8795 94.3146 80.8729 94.3165C80.8729 94.3165 80.872 94.3165 80.8711 94.3165C80.8655 94.3183 80.8608 94.3192 80.8562 94.3211C80.8618 94.3202 80.8664 94.3183 80.8711 94.3165C80.8181 94.3332 80.7678 94.3546 80.7176 94.3769C78.8275 94.9074 76.9589 95.5132 75.0948 96.1274C74.4307 96.3458 73.7647 96.5623 73.1025 96.7871C71.937 97.1848 70.7827 97.6113 69.6451 98.0824C68.3922 98.6009 67.1495 99.1444 65.9171 99.7075C65.5394 99.8794 65.1646 100.058 64.7916 100.24C64.733 100.269 64.6735 100.298 64.6158 100.327C64.6446 100.313 64.6725 100.299 64.7014 100.285C63.1824 101.044 61.7193 101.906 60.299 102.833C59.6776 103.249 59.0693 103.681 58.4777 104.138C57.8657 104.61 57.2723 105.106 56.6853 105.609C56.7095 105.588 56.7337 105.567 56.757 105.546C56.2156 106.015 55.6817 106.491 55.1608 106.984C54.6781 107.44 54.2232 107.923 53.7758 108.415C53.0522 109.227 52.3639 110.068 51.7407 110.96C51.083 111.938 50.4719 112.946 49.9287 113.993C49.0386 115.757 48.2907 117.588 47.6331 119.451C47.2238 120.626 46.8462 121.813 46.4723 122.999C46.1049 124.163 45.7542 125.334 45.4231 126.51C45.0854 127.709 44.7571 128.916 44.5013 130.136C44.5069 130.108 44.5125 130.08 44.518 130.052C44.5059 130.11 44.492 130.17 44.4846 130.228C44.4585 130.611 44.1311 130.922 43.7423 130.922C43.4521 130.922 43.1591 130.74 43.0549 130.463L43.0531 130.462Z" fill="#260004"/>
<path d="M135.906 130.918C135.726 130.826 135.606 130.672 135.537 130.485C135.346 129.972 135.207 129.445 135.078 128.914C134.838 127.919 134.641 126.913 134.437 125.911C134.258 125.024 134.081 124.137 133.861 123.259C133.696 122.622 133.519 121.988 133.312 121.362C133.115 120.767 132.889 120.18 132.658 119.597C132.073 118.145 131.432 116.705 130.682 115.33C130.158 114.394 129.587 113.489 129.009 112.585C128.427 111.676 127.848 110.761 127.214 109.887C126.903 109.466 126.581 109.054 126.243 108.655C125.872 108.217 125.481 107.798 125.086 107.383C124 106.258 122.858 105.193 121.637 104.215C121.653 104.229 121.67 104.242 121.688 104.255C121.663 104.236 121.638 104.215 121.613 104.195C121.613 104.195 121.612 104.195 121.611 104.194C121.587 104.175 121.563 104.156 121.539 104.138H121.541C121.541 104.138 121.537 104.136 121.536 104.135C121.531 104.131 121.526 104.126 121.52 104.122C121.518 104.12 121.515 104.118 121.513 104.116H121.512C121.512 104.116 121.509 104.113 121.508 104.112C121.508 104.112 121.507 104.111 121.507 104.11C120.352 103.202 119.167 102.337 117.911 101.574C117.36 101.249 116.802 100.934 116.234 100.638L116.235 100.633V100.63L116.238 100.626V100.622L116.241 100.619V100.615L116.244 100.611V100.607L116.247 100.604V100.6L116.249 100.596V100.592L116.252 100.588V100.583L116.253 100.579V100.574L116.256 100.569V100.565L116.259 100.56V100.551L116.261 100.546V100.541L116.264 100.537V100.532L116.267 100.527V100.522L116.27 100.516V100.512L116.273 100.506V100.501L116.275 100.497V100.492L116.278 100.488V100.483L116.281 100.478V100.475L116.284 100.47V100.466L116.287 100.462V100.459L116.289 100.455V100.451L116.292 100.448V100.444L116.295 100.44V100.436L116.298 100.433V100.429L116.3 100.425V100.422L116.303 100.418V100.414L116.306 100.41V100.407L116.309 100.403L116.311 100.399V100.396L116.314 100.391V100.386L116.316 100.382L116.318 100.377V100.372L116.321 100.368L116.323 100.363L116.325 100.358L116.327 100.353L116.328 100.347L116.33 100.343L116.332 100.337L116.334 100.332L116.336 100.327L116.338 100.321L116.34 100.317L116.341 100.312L116.343 100.307L116.345 100.303L116.347 100.298L116.349 100.293L116.351 100.289L116.353 100.284V100.28L116.355 100.277L116.357 100.273V100.269L116.36 100.265L116.362 100.261V100.257L116.365 100.252V100.249L116.367 100.244V100.239L116.37 100.235V100.23L116.373 100.225V100.221L116.376 100.216V100.212L116.379 100.206V100.2L116.381 100.195L116.383 100.189L116.385 100.184V100.178L116.388 100.173L116.39 100.167L116.392 100.161L116.394 100.156L116.395 100.15L116.397 100.145L116.399 100.139L116.401 100.134L116.403 100.128L116.405 100.122L116.407 100.117L116.408 100.111L116.41 100.106L116.412 100.101V100.096L116.415 100.091V100.086L116.418 100.081L116.42 100.077V100.072L116.422 100.067V100.062L116.425 100.056V100.051L116.428 100.045V100.04L116.431 100.034V100.029L116.433 100.023V100.017L116.436 100.012V100.006L116.439 100.001V99.9951L116.442 99.9895V99.9839L116.445 99.9783V99.9728L116.447 99.9672V99.9616L116.45 99.956V99.9458L116.453 99.9412V99.9365L116.456 99.9319V99.9235L116.459 99.9189V99.9105L116.46 99.9068V99.9021L116.46 99.8975V99.8938L116.461 99.8891V99.8808L116.462 99.8761V99.773L116.463 99.7674V99.7628L116.464 99.7581V99.7525L116.465 99.7479V99.7432L116.466 99.7386V99.734L116.467 99.7293V99.7247L116.468 99.72V99.7154L116.469 99.7098V99.7052L116.47 99.7005V99.6903L116.471 99.6847V99.6745L116.472 99.6689V99.6633L116.473 99.6578V99.6522L116.473 99.6466V99.641L116.474 99.6355V99.6299L116.477 99.6243V99.6187L116.48 99.6132V99.6076L116.483 99.602V99.5964L116.486 99.5909V99.5853L116.488 99.5797V99.5751L116.491 99.5704L116.493 99.5648V99.5602L116.496 99.5556V99.5509L116.499 99.5463V99.5416L116.501 99.537V99.5323L116.504 99.5277V99.523L116.507 99.5184V99.5137L116.51 99.5091V99.5044L116.513 99.4998V99.4952L116.515 99.4905V99.4859L116.518 99.4812V99.4766L116.521 99.4719V99.4673L116.524 99.4626V99.458L116.527 99.4533V99.4487L116.529 99.4441V99.4403L116.532 99.4357V99.432L116.535 99.4283L116.537 99.4245V99.4208L116.54 99.4171V99.4134L116.542 99.4097L116.544 99.406V99.4022L116.547 99.3985L116.549 99.3948V99.3911L116.552 99.3874L116.553 99.3837V99.3799L116.556 99.3762L116.558 99.3725V99.3697L116.561 99.366V99.3623L116.564 99.3586L116.566 99.3549V99.3511L116.568 99.3483V99.3446L116.571 99.3409V99.3381L116.574 99.3344V99.3307L116.577 99.327V99.3205L116.58 99.3177V99.3112L116.58 99.3084V99.3047L116.581 99.3019V99.2963L116.582 99.2935V99.2805L116.583 99.2777V99.2638L116.584 99.261V99.2136V99.1226C117.196 99.4292 117.799 99.7553 118.392 100.101C119.496 100.746 120.549 101.467 121.567 102.241C121.884 102.482 122.2 102.725 122.512 102.973C122.486 102.953 122.46 102.932 122.435 102.912C122.497 102.962 122.559 103.011 122.623 103.06C122.597 103.04 122.571 103.02 122.546 102.999C123.58 103.821 124.564 104.699 125.5 105.633C126.384 106.518 127.238 107.428 128.01 108.413C128.767 109.378 129.426 110.414 130.089 111.442C130.739 112.452 131.385 113.465 131.972 114.514C132.599 115.634 133.133 116.808 133.64 117.985C134.132 119.129 134.592 120.294 134.952 121.486C135.618 123.688 135.969 125.964 136.478 128.203C136.536 128.456 136.595 128.707 136.66 128.958C136.754 129.316 136.861 129.669 136.99 130.016C137.131 130.396 136.886 130.832 136.512 130.952C136.432 130.977 136.355 130.989 136.276 130.989C136.159 130.989 136.043 130.962 135.938 130.908H135.936L135.906 130.918Z" fill="#260004"/>
<path d="M80.0879 59.304C79.327 59.2009 78.7745 58.5309 78.7764 57.7848C78.7764 57.7653 78.7764 57.7458 78.7773 57.7263C78.7978 56.916 79.4805 56.2461 80.2962 56.2461C81.112 56.2461 81.8152 56.9365 81.8152 57.7634C81.8152 57.7709 81.8152 57.7764 81.8152 57.7829C81.8142 57.8573 81.8087 57.9316 81.7994 58.005C81.7026 58.7586 81.0273 59.3161 80.286 59.3161C80.22 59.3161 80.1539 59.3114 80.0879 59.3031V59.304Z" fill="#260004"/>
<path d="M94.1043 58.1162C94.1201 58.1264 94.1359 58.1376 94.1517 58.1478H94.1508C93.8615 57.9833 93.6495 57.7297 93.5267 57.4388C93.5546 57.4946 93.5834 57.5513 93.6113 57.607V57.6079C93.6188 57.6172 93.6262 57.6274 93.6336 57.6367C93.589 57.5652 93.5499 57.4899 93.5174 57.4119C93.5192 57.4175 93.5202 57.423 93.522 57.4295C93.4718 57.3097 93.4374 57.1824 93.4188 57.0541C93.4188 57.0541 93.4188 57.0541 93.4188 57.0551C93.4179 57.0504 93.4179 57.0449 93.4169 57.0402C93.4169 57.0411 93.4169 57.0421 93.4169 57.0421C93.3723 56.7141 93.4299 56.3703 93.6048 56.072C94.0271 55.3528 94.9638 55.1187 95.6837 55.5275C96.1506 55.7923 96.4427 56.3117 96.4427 56.8451C96.4427 57.672 95.7516 58.3624 94.9238 58.3624C94.6243 58.3624 94.3424 58.2723 94.1043 58.1171V58.1153V58.1162Z" fill="#260004"/>
<path d="M88.795 75.7532C88.4853 75.7346 88.1765 75.7021 87.8686 75.6575C87.1961 75.5608 86.519 75.4224 85.8734 75.2096C85.5191 75.0925 85.1619 74.9485 84.8419 74.7543C84.5098 74.5527 84.108 74.2563 84.1155 73.8242C84.121 73.4851 84.3406 73.2063 84.6615 73.1069C84.9851 73.0065 85.3302 73.1617 85.5228 73.4219C85.5339 73.4302 85.546 73.4386 85.5572 73.447C85.6093 73.4804 85.6632 73.5111 85.7172 73.5417C85.9004 73.63 86.0883 73.7081 86.279 73.7787C86.6278 73.892 86.9822 73.9803 87.3403 74.0565C87.8249 74.1513 88.3123 74.2284 88.8053 74.2665C89.048 74.2795 89.289 74.2795 89.5317 74.2674C89.8247 74.2442 90.114 74.2005 90.4033 74.1448C90.7298 74.0704 91.0488 73.9766 91.365 73.8688C91.6859 73.7499 92.0003 73.6161 92.3073 73.4646C92.5203 73.354 92.7296 73.237 92.9305 73.105C93.0328 73.0316 93.1305 72.9554 93.2263 72.8746C93.3639 72.7501 93.4942 72.62 93.6179 72.4816C93.6151 72.4853 93.6114 72.4881 93.6086 72.4918C93.7341 72.3561 93.8839 72.2613 94.0736 72.2353C94.2699 72.2084 94.4727 72.2623 94.6289 72.3831C94.935 72.62 95.0298 73.1208 94.7629 73.4256C94.5713 73.6439 94.3704 73.8502 94.149 74.0388C93.909 74.2433 93.6486 74.417 93.376 74.575C92.8431 74.8844 92.2729 75.1251 91.6897 75.3258C91.073 75.5376 90.4182 75.6928 89.7661 75.7374C89.5559 75.7513 89.3476 75.7615 89.1383 75.7615C89.0239 75.7615 88.9085 75.7587 88.7932 75.7513L88.795 75.7532Z" fill="#260004"/>
<path d="M107.971 117.515C107.837 117.371 107.764 117.178 107.772 116.982C107.779 116.778 107.87 116.609 108.008 116.465C108.023 116.45 108.037 116.435 108.051 116.42C108.546 115.888 108.988 115.31 109.42 114.725C110.652 113.029 111.799 111.267 112.826 109.439C113.168 108.804 113.5 108.164 113.822 107.518C114.14 106.883 114.421 106.233 114.692 105.578C115.002 104.769 115.287 103.953 115.55 103.127C115.803 102.335 116.01 101.526 116.209 100.718L116.211 100.712L116.213 100.707L116.215 100.701L116.217 100.696L116.219 100.69L116.22 100.684L116.222 100.679L116.224 100.673L116.226 100.669L116.228 100.664L116.23 100.659L116.232 100.655V100.65L116.234 100.645L116.236 100.642V100.638L116.239 100.634V100.631L116.242 100.627V100.623L116.245 100.619V100.616L116.247 100.612V100.608L116.25 100.605V100.601L116.253 100.597V100.592L116.256 100.589V100.584L116.257 100.579V100.575L116.259 100.57V100.566L116.262 100.561V100.552L116.265 100.547V100.542L116.268 100.538V100.533L116.271 100.527V100.523L116.273 100.517V100.513L116.276 100.507V100.502L116.279 100.498V100.493L116.282 100.488V100.484L116.285 100.479V100.475L116.287 100.471V100.467L116.29 100.463V100.46L116.293 100.456V100.452L116.296 100.448V100.445L116.299 100.441V100.437L116.301 100.434V100.43L116.304 100.426V100.422L116.307 100.419V100.415L116.31 100.411V100.408L116.312 100.404L116.314 100.4V100.396L116.317 100.392V100.387L116.32 100.382L116.322 100.378V100.373L116.325 100.369L116.326 100.364L116.328 100.359L116.33 100.354L116.332 100.348L116.334 100.343L116.336 100.338L116.338 100.333L116.339 100.328L116.341 100.322L116.343 100.317L116.345 100.313L116.347 100.308L116.349 100.303L116.351 100.299L116.352 100.294L116.354 100.29L116.356 100.285V100.281L116.359 100.277L116.361 100.274V100.27L116.364 100.265L116.365 100.262V100.258L116.368 100.253V100.25L116.371 100.245V100.24L116.374 100.236V100.231L116.377 100.226V100.222L116.379 100.217V100.212L116.382 100.207V100.201L116.385 100.196L116.387 100.19L116.389 100.185V100.179L116.392 100.173L116.393 100.168L116.395 100.162L116.397 100.157L116.399 100.151L116.401 100.146L116.403 100.14L116.405 100.134L116.406 100.129L116.408 100.123L116.41 100.118L116.412 100.112L116.414 100.107L116.416 100.102V100.097L116.419 100.092V100.087L116.421 100.082L116.423 100.078V100.073L116.426 100.067V100.063L116.429 100.057V100.052L116.432 100.046V100.041L116.434 100.035V100.029L116.437 100.024V100.018L116.44 100.013V100.007L116.443 100.002V99.9959L116.445 99.9904V99.9848L116.448 99.9792V99.9736L116.451 99.9681V99.9625L116.454 99.9569V99.9467L116.457 99.942V99.9374L116.459 99.9328V99.9244L116.462 99.9197V99.9114L116.463 99.9077V99.903L116.464 99.8984V99.8947L116.465 99.89V99.8816L116.466 99.877V99.7739L116.467 99.7683V99.7636L116.468 99.759V99.7534L116.469 99.7488V99.7441L116.47 99.7395V99.7348L116.471 99.7302V99.7255L116.472 99.7209V99.7163L116.472 99.7107V99.706L116.473 99.7014V99.6912L116.474 99.6865C116.493 99.5955 116.512 99.5044 116.529 99.4133V99.4106L116.532 99.4068V99.4031L116.535 99.3994V99.3957L116.538 99.392L116.539 99.3883V99.3845L116.542 99.3808L116.544 99.3771V99.3743L116.547 99.3706V99.3669L116.55 99.3632L116.552 99.3595V99.3557L116.554 99.3529V99.3492L116.557 99.3455V99.3427L116.56 99.339V99.3353L116.563 99.3316V99.3251L116.565 99.3223V99.3158L116.566 99.313V99.3093L116.567 99.3065V99.3009L116.568 99.2981V99.2851L116.569 99.2823V99.2684L116.57 99.2656V99.2182V99.1346C116.609 98.9283 116.646 98.7211 116.682 98.5139C116.809 97.752 116.911 96.9873 117.004 96.2198C117.083 95.4114 117.141 94.603 117.163 93.7891C117.186 92.9574 117.171 92.1258 117.149 91.2952C117.124 90.7126 117.101 90.129 117.053 89.5483C116.998 88.883 116.935 88.2205 116.86 87.5571C116.725 86.3538 116.56 85.1505 116.361 83.9556L116.377 84.0532C116.371 84.0188 116.365 83.9825 116.359 83.9482C116.342 83.8525 116.321 83.7549 116.309 83.6564C116.291 83.5718 116.28 83.4845 116.267 83.3972C116.259 83.3461 116.25 83.294 116.241 83.242C116.242 83.2476 116.243 83.2522 116.244 83.2578C115.9 81.2963 115.543 79.3376 115.167 77.3826C114.803 75.4983 114.394 73.6241 114.012 71.7435C113.618 69.8015 113.236 67.8577 112.918 65.9008C112.757 64.9066 112.6 63.9105 112.465 62.9117C112.333 61.9388 112.219 60.9632 112.115 59.9866C111.705 56.1361 111.505 52.2577 110.89 48.4314C110.543 46.4467 110.115 44.475 109.54 42.5432C109.035 40.9358 108.461 39.3571 107.779 37.8165C107.569 37.3677 107.351 36.9236 107.124 36.4832C106.885 36.0223 106.619 35.5754 106.354 35.1303C106.354 35.1312 106.355 35.1321 106.355 35.1321C106.28 35.0113 106.205 34.8896 106.129 34.7688C105.751 34.1639 105.326 33.5925 104.887 33.0322C104.572 32.6568 104.25 32.2907 103.92 31.9302C103.575 31.5539 103.207 31.198 102.837 30.8449C102.565 30.5968 102.29 30.3543 102.012 30.1137C101.743 29.8814 101.454 29.6686 101.169 29.4549C100.753 29.1631 100.331 28.8834 99.9009 28.613C99.4907 28.3547 99.0675 28.1178 98.6443 27.8827C98.2285 27.6606 97.8109 27.4451 97.3867 27.2379C96.9421 27.0214 96.4863 26.8309 96.0287 26.6451C95.6585 26.5057 95.2883 26.3682 94.9116 26.2446C94.5079 26.1126 94.0996 26.0011 93.6875 25.8971C93.3564 25.8283 93.0262 25.7633 92.6932 25.7038C92.3621 25.6453 92.0263 25.6072 91.6914 25.5672C91.3035 25.5338 90.9157 25.505 90.5259 25.492C90.0906 25.478 89.6562 25.4799 89.22 25.4882C88.7038 25.5124 88.1894 25.5486 87.675 25.5979C87.1411 25.649 86.6081 25.7335 86.077 25.8144C84.3246 26.1154 82.5964 26.5103 80.8887 27.0102C80.8877 27.0102 80.8868 27.0112 80.8859 27.0112C80.8849 27.0009 80.884 26.9898 80.8831 26.9796C81.0105 26.5057 81.0449 25.911 80.8198 25.5143C80.8952 25.4873 80.9714 25.4613 81.0477 25.4353C81.0477 25.4353 81.0505 25.4343 81.0524 25.4334C81.0524 25.4334 81.0524 25.4334 81.0514 25.4334C81.1454 25.4018 81.2393 25.3693 81.3333 25.3368C82.6113 24.9837 83.9079 24.6984 85.2129 24.4559C87.1495 24.0963 89.1186 23.917 91.0877 24.0294C92.057 24.0843 93.0122 24.2366 93.961 24.4364C94.4605 24.5423 94.9525 24.6938 95.4371 24.8518C95.8827 24.9976 96.3245 25.1621 96.7589 25.3386C97.662 25.7047 98.5429 26.1256 99.394 26.6005C100.249 27.0762 101.083 27.5798 101.884 28.142C102.7 28.7134 103.444 29.3713 104.162 30.0579C104.504 30.385 104.833 30.7269 105.153 31.0754C105.476 31.4284 105.797 31.7862 106.093 32.1625C106.373 32.5184 106.645 32.878 106.904 33.2506C107.151 33.6055 107.38 33.9707 107.609 34.3377C107.607 34.3349 107.606 34.333 107.604 34.3303C108.657 36.0139 109.455 37.8388 110.147 39.6953C110.487 40.6096 110.789 41.5388 111.068 42.4735C111.353 43.4259 111.584 44.3941 111.8 45.3633C112.221 47.2383 112.529 49.132 112.747 51.0405C112.967 52.9658 113.13 54.8975 113.301 56.8274C113.442 58.4256 113.595 60.0247 113.795 61.6164C113.997 63.2136 114.24 64.8035 114.504 66.3905V66.3979V66.3998C114.504 66.3998 114.506 66.4081 114.506 66.4119C114.506 66.4146 114.507 66.4174 114.508 66.4202V66.423C114.508 66.423 114.508 66.4267 114.509 66.4286V66.4314C115.174 70.2651 116.044 74.059 116.774 77.8797C117.098 79.5745 117.415 81.2721 117.699 82.9735C117.697 82.966 117.697 82.9586 117.696 82.9521C117.701 82.9865 117.708 83.0209 117.713 83.0552V83.0599C117.713 83.0599 117.713 83.0599 117.713 83.0589C117.713 83.0617 117.714 83.0636 117.715 83.0654C117.717 83.0729 117.718 83.0794 117.719 83.0859C117.735 83.1723 117.753 83.2615 117.764 83.3488C117.783 83.4427 117.794 83.5384 117.81 83.6313C117.817 83.6694 117.823 83.7066 117.829 83.7437C117.824 83.7205 117.82 83.6973 117.817 83.6741C117.977 84.6367 118.118 85.604 118.238 86.5722C118.361 87.5627 118.481 88.5559 118.543 89.5529C118.608 90.5899 118.646 91.6259 118.658 92.6647C118.669 93.6543 118.626 94.6411 118.55 95.6279C118.512 96.1269 118.449 96.6258 118.39 97.1229C118.336 97.5736 118.27 98.0261 118.195 98.4739C118.114 98.9525 118.031 99.4301 117.934 99.9058C117.83 100.413 117.71 100.917 117.588 101.419C117.356 102.361 117.081 103.289 116.787 104.212C116.644 104.659 116.487 105.105 116.318 105.542C116.131 106.025 115.946 106.509 115.734 106.981C114.916 108.802 113.97 110.564 112.903 112.251C112.393 113.058 111.865 113.856 111.32 114.642C110.787 115.409 110.237 116.166 109.641 116.886C109.451 117.114 109.25 117.333 109.043 117.547C108.913 117.683 108.735 117.746 108.554 117.746C108.346 117.746 108.134 117.662 107.992 117.51H107.996L107.971 117.515Z" fill="#260004"/>
<path d="M67.4806 58.6726H67.4815C67.4908 58.6605 67.5001 58.6503 67.5094 58.6401C67.6164 58.5332 67.7234 58.4283 67.8303 58.3223C67.9075 58.2452 67.9847 58.1672 68.061 58.0891C68.1726 57.9767 68.2833 57.8633 68.3921 57.749C68.4126 57.8215 68.421 57.8977 68.4154 57.9757C68.4126 58.0111 68.4126 58.0464 68.4052 58.0817C68.3373 58.3716 68.1429 58.6076 67.8443 58.6782C67.7903 58.6912 67.7336 58.6977 67.6769 58.6977C67.6117 58.6977 67.5457 58.6893 67.4815 58.6736L67.4806 58.6726Z" fill="#260004"/>
<path d="M65.1264 99.1602C64.8064 98.6064 64.5571 98.008 64.3246 97.4124C64.0967 96.8307 63.8846 96.2407 63.7005 95.6442C63.3042 94.3619 62.9963 93.0406 62.8271 91.7091C62.7396 91.0243 62.6801 90.3395 62.6624 89.6492C62.6447 88.9736 62.6745 88.3028 62.7322 87.6291C62.8485 86.2735 63.0875 84.9317 63.3721 83.6021C63.6521 82.2966 64.0446 81.0134 64.4353 79.7386C64.8129 78.5065 65.211 77.28 65.5338 76.0321C65.6045 75.7589 65.6724 75.4848 65.7394 75.2098C65.957 74.2555 66.1505 73.2976 66.3058 72.3312C66.4612 71.3639 66.5802 70.393 66.6881 69.4201C66.7755 68.5504 66.8481 67.6807 66.8955 66.8082C66.9448 65.9115 66.9458 65.0112 66.9262 64.1136C66.9262 64.1154 66.9262 64.1173 66.9262 64.1182C66.9151 63.7884 66.8993 63.4585 66.8779 63.1287C66.8676 62.9642 66.8527 62.8007 66.8341 62.6371C66.8202 62.5136 66.7951 62.3872 66.7988 62.2617C66.8118 61.8566 67.1653 61.5314 67.569 61.5454C67.9587 61.5593 68.2712 61.8817 68.2861 62.2645C68.2935 62.3472 68.3084 62.4309 68.3187 62.5126C68.3363 62.6678 68.3475 62.823 68.3596 62.9781C68.3838 63.2913 68.3968 63.6063 68.407 63.9203C68.4284 64.5847 68.4359 65.25 68.4173 65.9143C68.3791 67.2821 68.2684 68.6415 68.1196 70.0018C67.9773 71.3008 67.7996 72.6007 67.5448 73.8839C67.2825 75.2033 66.9662 76.5078 66.5858 77.7985C66.316 78.7174 66.0221 79.628 65.7459 80.5451C65.4631 81.4826 65.1934 82.422 64.9524 83.3707C64.7869 84.0843 64.6408 84.7998 64.5106 85.5208C64.3878 86.2028 64.3023 86.8914 64.2288 87.5799C64.1953 87.9729 64.1646 88.365 64.1525 88.7599C64.1404 89.1223 64.146 89.4847 64.1544 89.8471C64.1934 90.5802 64.2697 91.3059 64.3767 92.0316C64.5488 93.0304 64.772 94.0163 65.0538 94.9901C65.3506 95.9397 65.6873 96.8809 66.0975 97.7878C66.2035 98.0136 66.3133 98.2384 66.4388 98.4549C66.6416 98.8062 66.4844 99.2735 66.1356 99.4612C66.0249 99.5207 65.9068 99.5486 65.7905 99.5486C65.5245 99.5486 65.2678 99.4018 65.1273 99.1583L65.1264 99.1602Z" fill="#260004"/>
<path d="M70.0153 58.9142C70.0153 58.8966 70.0153 58.8799 70.0171 58.8631C70.0274 58.6123 70.0674 58.3595 70.0971 58.1114C70.1288 57.855 70.1725 57.6013 70.2199 57.3477C70.2376 57.3662 70.2543 57.3848 70.272 57.4025C70.3046 57.4722 70.3446 57.5381 70.3948 57.6023C70.4283 57.6441 70.4618 57.6822 70.498 57.7212C70.5687 57.7974 70.6413 57.8708 70.7175 57.9414C70.8366 58.051 70.9631 58.1625 71.098 58.2564C71.097 58.2843 71.0961 58.3131 71.0961 58.3409V58.4887C71.0115 58.5862 70.9761 58.72 70.9994 58.8464C71.0124 58.9115 71.0301 58.9756 71.044 59.0406C71.058 59.1057 71.071 59.1716 71.0822 59.2367C71.0943 59.3036 71.1064 59.3705 71.1184 59.4374C71.125 59.4745 71.1305 59.5126 71.138 59.5507C71.0273 59.6176 70.898 59.6567 70.7575 59.6567C70.352 59.6567 70.0134 59.3184 70.0134 58.9133L70.0153 58.9142Z" fill="#260004"/>
<path d="M99.4433 121.2C99.4005 121.063 99.3763 120.933 99.4024 120.789C99.4247 120.664 99.4749 120.549 99.5307 120.435C99.593 120.31 99.6647 120.188 99.7344 120.066C99.9307 119.707 100.106 119.338 100.267 118.96C100.276 118.938 100.284 118.916 100.293 118.894C100.293 118.896 100.292 118.898 100.292 118.9C100.294 118.893 100.297 118.885 100.3 118.878C100.302 118.873 100.304 118.87 100.305 118.866C100.313 118.843 100.322 118.82 100.332 118.797C100.424 118.56 100.495 118.318 100.564 118.074C100.639 117.748 100.697 117.423 100.739 117.091C100.759 116.804 100.767 116.52 100.763 116.233C100.745 115.936 100.719 115.643 100.68 115.349C100.631 115.077 100.572 114.81 100.5 114.541C100.347 114.059 100.167 113.591 99.9679 113.125C99.4507 111.99 98.8312 110.91 98.2555 109.805C97.8565 109.04 97.4956 108.257 97.1765 107.457C97.3151 107.682 97.4853 107.893 97.6983 108.034C97.9271 108.185 98.1653 108.293 98.4424 108.316C98.4843 108.32 98.5271 108.321 98.5699 108.321H98.5857C98.6099 108.352 98.635 108.382 98.6592 108.412C98.7243 108.647 98.888 108.847 99.0303 109.043C99.0461 109.092 99.0638 109.14 99.0852 109.189C99.1373 109.303 99.2117 109.401 99.2768 109.508C99.3075 109.561 99.34 109.614 99.3754 109.664C99.4256 109.735 99.4796 109.801 99.5354 109.866C99.5614 109.902 99.5865 109.937 99.6098 109.975C99.6414 110.031 99.6721 110.09 99.7112 110.141C99.7726 110.218 99.8367 110.289 99.9046 110.358C99.9549 110.448 100.007 110.539 100.064 110.625C100.197 110.829 100.356 111.017 100.508 111.208C100.594 111.314 100.674 111.425 100.756 111.535C100.835 111.641 100.914 111.747 100.996 111.852C101.007 111.866 101.017 111.879 101.028 111.893C101.474 112.814 101.86 113.762 102.082 114.765C102.163 115.133 102.209 115.517 102.23 115.893C102.254 116.319 102.251 116.739 102.222 117.164C102.197 117.519 102.14 117.872 102.058 118.219C102.467 117.836 102.87 117.448 103.263 117.047C103.456 116.841 103.647 116.635 103.829 116.419C104.024 116.188 104.209 115.95 104.392 115.709C104.713 115.253 105.011 114.789 105.29 114.307C105.539 113.846 105.761 113.376 105.965 112.893C106.086 112.572 106.195 112.249 106.287 111.918C106.345 111.678 106.398 111.437 106.443 111.194C106.471 111.045 106.485 110.892 106.528 110.747C106.609 110.478 106.818 110.252 107.101 110.196C107.408 110.134 107.686 110.248 107.876 110.491C107.987 110.632 108.027 110.816 108.068 110.987C108.096 111.109 108.123 111.23 108.151 111.352C108.206 111.597 108.261 111.842 108.316 112.088C108.434 112.622 108.55 113.156 108.66 113.692C108.78 114.274 108.907 114.858 108.978 115.448C109.011 115.721 109.039 115.993 109.051 116.268C109.057 116.414 109.056 116.561 109.044 116.706C109.04 116.768 109.034 116.832 109.024 116.895C109.018 116.94 109.009 116.984 108.994 117.029C108.975 117.091 108.948 117.152 108.909 117.205C108.74 117.442 108.451 117.602 108.151 117.535C107.931 117.486 107.729 117.358 107.625 117.151C107.545 116.992 107.516 116.805 107.557 116.631C107.563 116.541 107.565 116.45 107.565 116.359C107.547 115.973 107.498 115.591 107.44 115.211C107.359 114.759 107.269 114.308 107.175 113.859C107.029 114.192 106.868 114.518 106.696 114.837C106.053 116.027 105.255 117.139 104.307 118.108C103.689 118.74 103.043 119.341 102.394 119.94C102.081 120.228 101.769 120.515 101.454 120.8C101.303 120.938 101.15 121.075 100.998 121.212C100.927 121.276 100.855 121.338 100.784 121.401C100.722 121.453 100.66 121.505 100.592 121.547C100.468 121.625 100.353 121.663 100.21 121.684C100.182 121.688 100.154 121.69 100.126 121.69C99.8358 121.69 99.5279 121.48 99.4424 121.204L99.4433 121.2Z" fill="#260004"/>
<path d="M99.7959 112.759C99.6796 112.568 99.5754 112.372 99.4527 112.186C99.1504 111.744 98.8211 111.321 98.5188 110.879C98.3067 110.57 98.103 110.256 97.9123 109.933C97.6761 109.534 97.4659 109.118 97.2622 108.702C97.0361 108.24 96.8166 107.772 96.6231 107.295C96.4166 106.786 96.2455 106.262 96.0957 105.734C95.9162 105.104 95.7665 104.464 95.6474 103.82C95.5228 103.145 95.4298 102.463 95.3377 101.782C95.1395 100.307 95.0726 98.8232 95.1219 97.3366C95.1702 95.8945 95.333 94.4552 95.5302 93.0271C95.6921 91.8591 95.8948 90.6976 96.1311 89.5417C96.732 86.6185 97.5644 83.7511 98.3886 80.8855C98.8015 79.4481 99.2136 78.0116 99.5903 76.5639C99.9782 75.0773 100.334 73.585 100.686 72.09C101.026 70.6498 101.366 69.2105 101.666 67.7609C101.797 67.1012 101.914 66.4397 102.008 65.7744C102.099 65.124 102.189 64.4707 102.237 63.8147C102.242 63.7172 102.242 63.615 102.256 63.5174C102.289 62.8391 102.281 62.1645 102.242 61.4872C102.183 60.755 102.09 60.0311 101.954 59.3092C101.829 58.7405 101.678 58.1821 101.498 57.6274C101.319 57.1228 101.115 56.6332 100.88 56.1509C100.619 55.6538 100.332 55.1744 100.019 54.707C99.7391 54.3074 99.4443 53.9237 99.1262 53.5548C98.7299 53.1246 98.3086 52.7204 97.8733 52.3302C97.3859 51.9102 96.8789 51.5181 96.3497 51.152C96.1627 51.0284 95.9748 50.9067 95.7832 50.7914C95.613 50.6892 95.4353 50.5982 95.2577 50.509C94.0252 49.9059 92.7509 49.3921 91.4943 48.843C90.7957 48.5382 90.0972 48.2362 89.4135 47.9008C88.7792 47.5895 88.1476 47.2634 87.5393 46.9047C86.4399 46.2561 85.4186 45.4821 84.521 44.5743C84.0801 44.1293 83.6652 43.66 83.2355 43.2047C82.8272 42.7717 82.4058 42.3527 81.9621 41.9559C81.831 41.8416 81.6989 41.7283 81.5622 41.6205C81.0906 42.047 80.6487 42.5106 80.2069 42.9678C79.6293 43.5662 79.0545 44.1664 78.502 44.788C77.7988 45.5946 77.1653 46.4503 76.5635 47.334C76.5719 47.3219 76.5793 47.3098 76.5877 47.2977C76.5784 47.3117 76.5691 47.3256 76.5598 47.3396C76.5514 47.3516 76.5431 47.3637 76.5347 47.3767C76.5421 47.3665 76.5486 47.3563 76.5561 47.3451C75.7013 48.6172 74.8669 49.9041 74.1656 51.269C73.7284 52.1518 73.308 53.0447 72.9062 53.9441C72.5183 54.812 72.1788 55.6993 71.8644 56.596C71.7016 57.0754 71.5575 57.5577 71.4496 58.0529C71.4114 58.2499 71.3789 58.4478 71.3612 58.6476C71.3612 58.6532 71.3612 58.6597 71.3612 58.6653C71.4189 59.0555 71.1008 59.4281 70.7213 59.4801C70.525 59.5071 70.3222 59.4532 70.165 59.3324C70.0069 59.2098 69.9185 59.0388 69.8823 58.8455C69.8683 58.7721 69.8702 58.6922 69.8739 58.6179C69.8813 58.4339 69.9055 58.2499 69.9344 58.0678C69.9892 57.7166 70.0729 57.3672 70.1688 57.0253C70.365 56.3265 70.6171 55.6408 70.8757 54.9625C71.1408 54.2666 71.43 53.5808 71.7426 52.9053C72.0663 52.2056 72.389 51.506 72.7304 50.8156C73.3908 49.4822 74.1842 48.2288 75.0055 46.9893C75.4129 46.3751 75.8231 45.76 76.2696 45.1727C76.6928 44.6161 77.1384 44.0791 77.6053 43.5587C78.0713 43.0403 78.5541 42.5376 79.0377 42.0349C79.4647 41.5908 79.8953 41.1494 80.3409 40.7238C80.485 40.5863 80.6339 40.4507 80.7892 40.3243C80.9734 40.1747 81.1929 40.0335 81.4338 40.0065C81.8617 39.9582 82.2095 40.2351 82.5221 40.4869C82.79 40.7015 83.0476 40.931 83.2978 41.1652C83.7936 41.6307 84.2614 42.1232 84.7219 42.6221C85.1916 43.1323 85.6641 43.6368 86.1785 44.1023C86.5933 44.4619 87.0259 44.8011 87.4779 45.1133C88.2397 45.6187 89.0434 46.0508 89.8572 46.4652C90.5139 46.7913 91.1827 47.0868 91.8552 47.3795C92.5072 47.6629 93.1583 47.9463 93.8122 48.2251C94.4336 48.4899 95.0512 48.7621 95.6595 49.0539C95.9906 49.2128 96.319 49.381 96.6334 49.5696C96.9636 49.7684 97.2817 49.9896 97.5951 50.2126C98.1867 50.6344 98.7457 51.1046 99.2759 51.5998C99.8294 52.1174 100.351 52.6647 100.81 53.2686C101.715 54.457 102.459 55.7885 102.922 57.2111C103.257 58.2406 103.503 59.298 103.624 60.3749C103.744 61.4444 103.803 62.5204 103.735 63.5955C103.736 63.5852 103.737 63.575 103.737 63.5648C103.73 63.6549 103.73 63.7497 103.721 63.8426C103.72 63.995 103.694 64.153 103.682 64.2951C103.665 64.4903 103.643 64.6854 103.621 64.8805C103.579 65.2457 103.529 65.6099 103.477 65.9732C103.266 67.4655 102.938 68.9364 102.604 70.4054C102.263 71.906 101.907 73.4038 101.545 74.8989C101.195 76.3447 100.816 77.7858 100.409 79.2158C99.9931 80.6774 99.5671 82.1362 99.1494 83.5969C98.7411 85.025 98.3662 86.4643 98.0128 87.9073C97.8556 88.5484 97.7123 89.1933 97.5793 89.84C97.5858 89.8075 97.5924 89.7749 97.5989 89.7434C97.5849 89.8112 97.571 89.879 97.557 89.9468C97.1282 92.0951 96.8073 94.2703 96.6501 96.4566C96.5748 97.633 96.5673 98.8084 96.639 99.9847C96.6901 100.683 96.7766 101.379 96.8743 102.073C96.9599 102.684 97.0501 103.294 97.1691 103.897C97.3338 104.68 97.5375 105.457 97.797 106.213C98.05 106.922 98.37 107.608 98.7067 108.281C98.9848 108.831 99.2889 109.364 99.6303 109.877C99.8405 110.187 100.064 110.488 100.282 110.792C100.449 111.023 100.616 111.254 100.773 111.493C100.882 111.659 100.973 111.835 101.076 112.005C101.287 112.352 101.154 112.82 100.809 113.023C100.693 113.091 100.566 113.122 100.44 113.122C100.183 113.122 99.9317 112.989 99.7912 112.756L99.7959 112.759Z" fill="#260004"/>
<path d="M89.2945 108.664C87.982 108.585 86.678 108.447 85.3832 108.212C84.0949 107.978 82.8104 107.688 81.564 107.282C78.98 106.441 76.5049 105.253 74.3237 103.625C73.3731 102.915 72.4597 102.145 71.6254 101.301C70.7984 100.466 70.0088 99.5907 69.3465 98.6178C69.3065 98.5584 69.2665 98.498 69.2274 98.4376C69.0981 98.3028 69.0172 98.1217 69.0172 97.9237C69.0172 97.6227 69.1958 97.3402 69.4767 97.2213C69.7846 97.0912 70.1678 97.1878 70.3659 97.461C70.4422 97.5679 70.5082 97.6831 70.5808 97.7927C70.5845 97.7974 70.5873 97.803 70.591 97.8076C70.5892 97.8048 70.5873 97.802 70.5845 97.7983C70.5864 97.8011 70.5892 97.8048 70.591 97.8076C70.604 97.8262 70.6161 97.8448 70.6292 97.8643C70.6171 97.8457 70.604 97.8271 70.592 97.8085C70.9296 98.3038 71.3119 98.7674 71.7044 99.2199C72.3109 99.8936 72.9508 100.532 73.6224 101.141C74.3935 101.812 75.1971 102.437 76.0371 103.019C76.4128 103.267 76.7923 103.509 77.183 103.736C77.5746 103.963 77.9736 104.175 78.3764 104.382C79.3419 104.852 80.3278 105.27 81.337 105.639C82.4662 106.026 83.6131 106.334 84.7814 106.584C85.4799 106.723 86.1803 106.847 86.8854 106.948C87.609 107.051 88.3374 107.11 89.0666 107.162C91.0766 107.293 93.096 107.363 95.1079 107.238C95.0875 107.239 95.0661 107.241 95.0456 107.242C95.0698 107.241 95.094 107.239 95.1172 107.238C95.1265 107.238 95.1367 107.237 95.146 107.236C95.1386 107.236 95.1312 107.237 95.1228 107.237C95.5814 107.204 96.0399 107.163 96.4957 107.104C96.8975 107.052 97.2789 107.337 97.3347 107.74C97.3886 108.139 97.1003 108.525 96.6985 108.577C95.5023 108.733 94.2903 108.783 93.0848 108.79H92.8765C91.6822 108.79 90.4879 108.736 89.2954 108.663L89.2945 108.664Z" fill="#260004"/>
<path d="M87.4296 68.103C87.0464 68.0965 86.6557 68.0212 86.2874 67.9172C85.8734 67.8001 85.4763 67.6217 85.1349 67.3569C84.8056 67.1013 84.5656 66.6953 84.6354 66.266C84.6642 66.0885 84.721 65.9213 84.8168 65.768C84.8745 65.6769 84.9396 65.5896 85.0065 65.505C85.2754 65.1603 85.546 64.8193 85.7934 64.4588C85.999 64.1494 86.1962 63.8325 86.3683 63.5036C86.4213 63.3911 86.4706 63.2769 86.5143 63.1607C86.5264 63.1235 86.5376 63.0854 86.5469 63.0474C86.5469 63.0446 86.5478 63.0418 86.5478 63.0399C86.5655 62.6497 86.8966 62.3291 87.291 62.3291C87.6854 62.3291 88.0351 62.6673 88.0351 63.0724C88.0351 63.3651 87.9263 63.655 87.8137 63.9189C87.6621 64.2739 87.4612 64.6065 87.2575 64.9326C87.0519 65.2616 86.8306 65.5812 86.5962 65.8906C86.4864 66.0356 86.3701 66.1759 86.2576 66.319C86.2669 66.3236 86.2753 66.3292 86.2846 66.3338C86.3674 66.3729 86.4511 66.4082 86.5366 66.4398C86.6771 66.4853 86.8194 66.5225 86.9636 66.5541C87.0966 66.5801 87.2305 66.6014 87.3645 66.6163C87.3868 66.6172 87.4082 66.6182 87.4296 66.6182C87.8351 66.6256 88.1737 66.9508 88.1737 67.3615C88.1737 67.7722 87.8426 68.1048 87.4426 68.1048C87.438 68.1048 87.4342 68.1048 87.4296 68.1048V68.103Z" fill="#260004"/>
<path d="M67.4462 58.3482C67.3039 58.1773 67.2025 57.9589 67.0983 57.7647C66.8184 57.2416 66.5505 56.7138 66.3189 56.1675C66.0938 55.6369 65.8854 55.0998 65.704 54.5516C65.532 54.0313 65.3915 53.4989 65.2604 52.9655C64.946 51.6851 64.7916 50.3685 64.7125 49.0546C64.6381 47.803 64.6772 46.5468 64.7674 45.2961C64.8548 44.0929 65.0315 42.8942 65.3004 41.717C65.4501 41.0619 65.6268 40.4133 65.8529 39.7806C66.0473 39.2361 66.2668 38.7018 66.5002 38.1731C66.77 37.5645 67.0816 36.9717 67.4146 36.3946C67.7141 35.8752 68.0322 35.3651 68.3745 34.8727C69.0851 33.8524 69.8776 32.8721 70.7482 31.9839C71.6551 31.0593 72.6337 30.198 73.6587 29.4073C74.6223 28.6648 75.6464 27.9996 76.7179 27.4244C77.2202 27.154 77.7392 26.9161 78.2518 26.668C78.6824 26.4608 79.114 26.2527 79.5447 26.0455C79.767 25.9386 79.9893 25.8318 80.2125 25.7277C80.3744 25.6701 80.5362 25.6116 80.699 25.554C80.7008 25.554 80.7027 25.554 80.7046 25.553H80.7027C80.8283 25.5345 80.952 25.5057 81.0776 25.4843C81.0831 25.4843 81.0878 25.4824 81.0934 25.4824C81.0952 25.4871 81.0971 25.4926 81.0989 25.4973C81.1427 25.6041 81.2115 25.6971 81.2831 25.7872C81.2831 25.7872 81.284 25.7881 81.285 25.789C81.3864 25.9823 81.4803 26.1802 81.5817 26.3744C81.6356 26.4766 81.6933 26.5779 81.7594 26.6736C81.2403 26.8818 80.7371 27.1215 80.232 27.364C79.3986 27.7645 78.5624 28.1603 77.7355 28.571C77.7299 28.5738 77.7253 28.5756 77.7206 28.5784C77.702 28.5877 77.6834 28.5961 77.6658 28.6054C77.6788 28.5989 77.6918 28.5924 77.7039 28.5868C77.0565 28.9148 76.4249 29.2874 75.8222 29.6888C75.3609 30.0019 74.9069 30.3253 74.4651 30.6663C74.0298 31.0017 73.6103 31.3567 73.1964 31.7181C72.4913 32.3444 71.8123 32.9967 71.1854 33.7019C70.5752 34.4081 69.9967 35.1393 69.4684 35.9078C69.0005 36.6121 68.5735 37.3415 68.1875 38.0941C67.8099 38.8542 67.4843 39.6375 67.1988 40.4366C66.9635 41.1353 66.7877 41.8526 66.637 42.5746C66.4389 43.5688 66.3124 44.576 66.2379 45.587C66.1979 46.203 66.1747 46.82 66.1645 47.437C66.1542 48.0586 66.1784 48.6783 66.2184 49.2981C66.2854 50.2319 66.4072 51.1583 66.5858 52.0772C66.7467 52.8447 66.9532 53.6057 67.2053 54.3481C67.4536 55.0525 67.7411 55.7503 68.0731 56.4193C68.2471 56.764 68.4182 57.118 68.6275 57.4432L68.6294 57.4451C68.7307 57.5724 68.7931 57.7322 68.7931 57.905C68.7931 58.3102 68.4545 58.6484 68.0489 58.6484C67.8071 58.6484 67.5997 58.5322 67.449 58.3492L67.4462 58.3482ZM68.5782 57.3884C68.5735 57.3828 68.5698 57.3782 68.5652 57.3735C68.5429 57.3531 68.5196 57.3327 68.4963 57.3131C68.4712 57.2955 68.4443 57.2788 68.4191 57.2611C68.3912 57.2472 68.3633 57.2332 68.3354 57.2193H68.3345C68.3243 57.2156 68.314 57.2128 68.3047 57.2091C68.4089 57.2481 68.5019 57.3104 68.5791 57.3893L68.5782 57.3884Z" fill="#260004"/>
</g>
<defs>
<linearGradient id="paint0_linear_42_385" x1="141.02" y1="135.502" x2="145.837" y2="135.502" gradientUnits="userSpaceOnUse">
<stop stop-color="#FE1D37"/>
</linearGradient>
<linearGradient id="paint1_linear_42_385" x1="148.374" y1="142.455" x2="151.598" y2="146.035" gradientUnits="userSpaceOnUse">
<stop stop-color="#FE1D37"/>
</linearGradient>
<linearGradient id="paint2_linear_42_385" x1="144.703" y1="138.619" x2="151.221" y2="138.619" gradientUnits="userSpaceOnUse">
<stop stop-color="#FE1D37"/>
</linearGradient>
<clipPath id="clip0_42_385">
<rect width="94" height="107" fill="white" transform="translate(43 24)"/>
</clipPath>
</defs>
</svg>
