<svg width="127" height="112" viewBox="0 0 127 112" fill="none" xmlns="http://www.w3.org/2000/svg">
<path fill-rule="evenodd" clip-rule="evenodd" d="M42.5536 52.7628C41.9635 52.9243 41.4934 53.3165 41.2086 53.8172C40.9239 54.3186 40.8252 54.9306 40.9832 55.5291L41.0653 55.8399L49.4701 53.5499L49.388 53.2377C49.2293 52.6393 48.8439 52.1589 48.3518 51.8692C47.8576 51.5794 47.2575 51.4804 46.6693 51.6405L45.0309 52.0883L42.5536 52.7628Z" fill="url(#paint0_linear_2004_58)"/>
<path fill-rule="evenodd" clip-rule="evenodd" d="M49.9728 55.4606L41.5681 57.7519L43.6566 65.6797L52.0594 63.3877L49.9728 55.4606Z" fill="url(#paint1_linear_2004_58)"/>
<path fill-rule="evenodd" clip-rule="evenodd" d="M32.5598 54.3193C35.0031 54.5968 37.9298 54.3315 39.6282 54.0988V53.9061L39.6302 53.8925L39.6322 53.8579V53.8247L39.6342 53.8091L39.6362 53.7901V53.7555L39.6396 53.7209V53.712L39.6429 53.6876V53.6774L39.6462 53.653L39.6496 53.6198V53.6143L39.6516 53.5851L39.6549 53.5661L39.6569 53.5526L39.6602 53.518L39.6622 53.5092L39.6723 53.4311L39.6743 53.4223V53.4169L39.6796 53.3836L39.6816 53.3748L39.6849 53.349L39.6903 53.3266V53.3246L39.6989 53.2832V53.2798L39.7043 53.2506L39.7076 53.233L39.7109 53.2174L39.7176 53.1828L39.7603 53.0009L39.7623 52.9976L39.7643 52.9874L39.7743 52.9541V52.9521L39.7829 52.9229L39.7883 52.9053L39.7903 52.8998L39.8023 52.8598V52.8564L39.8156 52.815L39.8223 52.7926L39.829 52.7682L39.8323 52.7614L39.8423 52.7302L39.8456 52.7234L39.859 52.682V52.6786L39.8656 52.6664L39.8756 52.6352V52.6332L39.8876 52.604L39.893 52.5884L39.8996 52.5708L39.9096 52.5429L39.9116 52.5396L39.9236 52.5104L39.927 52.5002L39.9443 52.4588L39.9477 52.4554L39.9497 52.4486L39.963 52.4174L39.965 52.412L39.967 52.4086L39.9843 52.372L39.9863 52.3665L40.005 52.3251L40.0237 52.2851L40.0257 52.2817L40.0343 52.2641L40.0463 52.2383L40.0483 52.2349L40.0637 52.2057L40.069 52.1969L40.0897 52.1555L40.095 52.1467L40.1104 52.1175L40.1137 52.1121L40.127 52.0877L40.1357 52.07L40.1377 52.068L40.1584 52.0279L40.1757 52.0022L40.1824 51.9866L40.189 51.9764L40.2064 51.9506V51.9472L40.2197 51.9248L40.2317 51.9058L40.2371 51.899L40.2544 51.8732L40.2577 51.8665L40.2677 51.8475L40.2831 51.8264L40.2851 51.823L40.3024 51.7973L40.3177 51.7749L40.3197 51.7728L40.3371 51.747L40.3544 51.7226L40.3644 51.709L40.3711 51.6968L40.3884 51.6724L40.3918 51.669L40.4071 51.648L40.4191 51.6303L40.4258 51.6236L40.4431 51.5991L40.4484 51.5923L40.4618 51.5747L40.4771 51.5557L40.4805 51.5503L40.4978 51.5258L40.5065 51.517L40.5185 51.5035L40.5358 51.4811L40.5565 51.4553L40.5598 51.4532L40.5731 51.4356L40.5765 51.4322L40.5951 51.4098L40.5972 51.4078L40.6145 51.3854L40.6278 51.3718L40.6345 51.363L40.6552 51.3406L40.6605 51.3352L40.6758 51.3175L40.6932 51.2999L40.6965 51.2945L40.7172 51.2721L40.7325 51.2544L40.7379 51.251L40.7585 51.23V51.228L40.7905 51.1954L40.8025 51.1852L40.8232 51.1628L40.8439 51.1418L40.8592 51.1282L40.8659 51.1214L40.8879 51.1004L40.8932 51.095L40.9119 51.0794L40.9292 51.0638L40.9326 51.0583L40.9566 51.0373L40.9752 51.0197L40.9786 51.0163L40.9993 50.9986L41.0013 50.9966L41.0253 50.9756L41.0353 50.9654L41.0473 50.9566L41.0713 50.9355H41.0733L41.0953 50.9165L41.1106 50.9043L41.1173 50.8975L41.1413 50.8785L41.1666 50.8595L41.2146 50.8215L41.2233 50.8161L41.2406 50.8039L41.2867 50.7693L41.29 50.7659L41.314 50.7503L41.3393 50.7313L41.358 50.7191L41.3667 50.7123L41.4147 50.6811L41.42 50.6777L41.4407 50.6641L41.4614 50.6519L41.4667 50.6465L41.494 50.6309C40.6432 50.3656 39.8043 50.0616 38.9827 49.7013C34.2929 47.6454 32.6918 42.2281 31.3775 45.7272L29.475 50.7835L29.429 50.8826C29.1509 51.4098 29.0096 51.8542 28.9842 52.2254C28.9449 52.8049 29.2503 53.233 29.7664 53.5458C30.4433 53.9536 31.4442 54.1931 32.5711 54.3193" fill="url(#paint2_linear_2004_58)"/>
<path fill-rule="evenodd" clip-rule="evenodd" d="M48.4044 48.9292C47.871 49.6592 47.2928 50.35 46.6873 51.0122C47.3402 51.0312 47.971 51.2205 48.5231 51.5462C49.132 51.9038 49.6481 52.4256 49.9962 53.0708C51.5799 52.4079 54.2466 51.1486 56.2257 49.6674C57.1393 48.9821 57.8895 48.2656 58.2749 47.5687C58.5683 47.0361 58.623 46.5102 58.3036 46.0285C58.0989 45.7198 57.7595 45.4076 57.2587 45.0915L57.172 45.029L53.0376 41.6188C50.1802 39.2562 51.4565 44.7631 48.4044 48.9292Z" fill="url(#paint3_linear_2004_58)"/>
<path fill-rule="evenodd" clip-rule="evenodd" d="M55.957 86.2829L50.575 65.8405L63.1442 62.4154L68.1801 81.5374C68.2754 81.8983 68.2161 82.2695 68.0441 82.5714C67.872 82.8768 67.5873 83.1129 67.2325 83.2099L55.957 86.2829ZM50.8171 87.6848L45.433 67.2424L48.9412 66.2863L54.3253 86.7267L50.8171 87.6848ZM48.1164 50.6763C47.5622 50.352 46.9314 50.1627 46.2786 50.1423C46.8854 49.4815 47.4615 48.7907 47.997 48.0607C51.0471 43.8939 49.7715 38.3884 52.6288 40.7489L56.7632 44.1612L56.8519 44.2236C57.3514 44.5378 57.6921 44.8513 57.8968 45.1586C58.2156 45.6424 58.1609 46.1662 57.8662 46.6989C57.4807 47.3964 56.7305 48.1143 55.819 48.7975C53.8398 50.2808 51.1731 51.5401 49.5894 52.203C49.24 51.5577 48.7252 51.0339 48.1164 50.6763ZM50.4296 55.3357L61.6811 52.2668C62.0425 52.1698 62.4106 52.2301 62.7127 52.4072C63.0161 52.5857 63.2515 52.8788 63.3489 53.2466L64.7312 58.499L65.084 59.8363L52.5182 63.2622L50.4296 55.3344V55.3357ZM40.3951 58.0708L48.7999 55.7795L50.8864 63.7086L42.4816 66L40.3951 58.0708ZM39.8903 56.1615L39.8083 55.8494C39.6516 55.2509 39.7503 54.6402 40.033 54.1388C40.3191 53.636 40.7899 53.2439 41.378 53.0844L43.1098 52.6108L45.493 51.9621C46.0832 51.8006 46.6827 51.9017 47.1775 52.1915C47.6703 52.4812 48.0557 52.9602 48.2124 53.56L48.2944 53.8708L39.8903 56.1615ZM33.6374 79.8777L32.2804 74.7203L30.4019 75.2306L31.7623 80.3893L33.6374 79.8777ZM35.1224 85.5128L34.1422 81.7864L32.2637 82.3L33.246 86.0265L35.1224 85.5128ZM42.8691 50.8982C41.2066 50.5203 39.5836 50.0501 38.0545 49.3804C34.3636 47.7621 32.4778 44.4815 31.1754 43.9753C30.1358 43.5709 29.0976 43.9997 28.2094 46.3637L26.3222 51.3786C25.9421 52.1107 25.7474 52.7682 25.7067 53.3578C25.6147 54.6864 26.2435 55.6234 27.3111 56.2667C28.218 56.8149 29.451 57.1236 30.7907 57.2742C32.3657 57.4527 34.1255 57.4201 35.6632 57.3122L27.1018 59.647C26.2235 59.8865 25.5214 60.4694 25.0986 61.2151C24.6738 61.9608 24.5311 62.87 24.7658 63.765L25.0679 64.9116L26.945 64.4L26.6436 63.2534C26.5463 62.8856 26.6076 62.5111 26.7817 62.2037C26.9557 61.895 27.2451 61.6554 27.6065 61.5584L38.7627 58.5159L40.8512 66.4437L28.3787 69.8438L28.026 68.5064L27.4478 66.3101L25.5707 66.8217L27.0044 72.2668L29.4477 71.6012L29.9011 73.3205L31.7763 72.8089L31.3248 71.0896L42.9858 67.91L43.8026 67.6881L49.1866 88.1285L38.0032 91.1778C37.6484 91.2748 37.287 91.2158 36.9869 91.0393C36.6902 90.8623 36.4548 90.5746 36.3614 90.2136L35.6266 87.4242L33.7481 87.9344L34.4843 90.7238C34.7177 91.6154 35.2871 92.3231 36.0153 92.7533C36.7448 93.1801 37.6351 93.326 38.508 93.0898L67.738 85.1213C68.6109 84.8818 69.3097 84.3023 69.7291 83.56C70.1499 82.8211 70.2953 81.9153 70.0599 81.0271L65.0253 61.9017L66.529 61.4926L67.4666 61.2361L65.228 52.7343C64.9926 51.8407 64.4198 51.1262 63.687 50.696C62.9541 50.2658 62.0605 50.1186 61.181 50.3574L52.6195 52.6922C54.0059 52.0022 55.5449 51.1343 56.8199 50.1803C57.9075 49.3648 58.8231 48.4718 59.3399 47.5368C59.9467 46.4356 60.03 45.3059 59.2992 44.2012C58.9738 43.7107 58.4823 43.2405 57.7935 42.7994L53.6951 39.417C51.7633 37.8211 50.6537 37.9792 49.9515 38.8566C49.0733 39.9578 49.0513 43.7568 46.6493 47.0374C45.6551 48.3972 44.4808 49.6274 43.2278 50.8019L42.8717 50.8989L42.8691 50.8982ZM38.0458 55.3493C36.3481 55.582 33.4207 55.8473 30.9774 55.5698C29.8504 55.4429 28.8495 55.2021 28.1727 54.7943C27.6559 54.4835 27.3491 54.0554 27.3905 53.4759C27.4158 53.1048 27.5559 52.6603 27.8339 52.1352L27.8799 52.0347L29.7844 46.9784C31.0988 43.4793 32.6998 48.8973 37.3897 50.9525C38.2112 51.3135 39.0501 51.6168 39.901 51.8821L39.8736 51.8977L39.867 51.9011L39.8496 51.9146L39.8256 51.9282L39.8223 51.9302L39.7969 51.9479L39.7749 51.9635L39.7649 51.9703L39.7476 51.9825L39.7223 52.0015L39.6983 52.0171L39.6949 52.0205L39.6489 52.0551L39.6316 52.0673L39.6229 52.0727L39.5976 52.0917L39.5255 52.1487L39.5169 52.1555L39.5015 52.1677L39.4809 52.1854L39.4789 52.1874L39.4549 52.2084L39.4429 52.2173L39.4329 52.2274L39.4088 52.2485H39.4068L39.3848 52.2675L39.3828 52.2709L39.3642 52.2885L39.3402 52.3095L39.3348 52.3129L39.3175 52.3306L39.2988 52.3462L39.2955 52.3516L39.2748 52.3726L39.2648 52.3794L39.2515 52.393L39.2308 52.412V52.414L39.1988 52.4466L39.1868 52.4568L39.1661 52.4792V52.4812L39.1455 52.5002L39.1401 52.5056L39.1248 52.5233L39.1041 52.5457L39.0988 52.5491L39.0834 52.568L39.0661 52.5857L39.0628 52.5911L39.0421 52.6135L39.0354 52.6203L39.0221 52.6359L39.0047 52.6569L39.0027 52.659L38.9821 52.6834L38.9801 52.6854L38.9647 52.7044L38.9627 52.7065L38.9421 52.7309L38.9247 52.7533L38.9127 52.7689L38.9041 52.7777L38.8867 52.8021L38.8834 52.8055L38.868 52.8266L38.8527 52.8442L38.8494 52.8496L38.8307 52.8754L38.8254 52.8822L38.8134 52.8998L38.798 52.9209L38.7947 52.9243L38.7774 52.9487L38.7707 52.9609L38.7607 52.9745L38.726 53.0233L38.7227 53.0267L38.7087 53.0491L38.6913 53.0735L38.688 53.079L38.6747 53.1L38.6647 53.119L38.6593 53.1258L38.644 53.1516L38.6387 53.1584L38.6267 53.1774L38.6126 53.1997L38.6106 53.2031L38.5953 53.2289L38.5886 53.2391L38.58 53.2547L38.5646 53.2805L38.544 53.3185L38.5406 53.3219L38.534 53.3375L38.5206 53.3633L38.5173 53.3687L38.502 53.3979L38.4966 53.4047L38.476 53.4481L38.4706 53.4569L38.4553 53.4861L38.4533 53.4895L38.4413 53.5153L38.4326 53.5329L38.4306 53.5363L38.3933 53.6164L38.3899 53.6231L38.3746 53.6598L38.3726 53.6632L38.3706 53.6686L38.3573 53.6998L38.3539 53.7066L38.3519 53.71L38.3346 53.7514L38.3312 53.7616L38.3179 53.7907V53.7941L38.3079 53.8219L38.3012 53.8396L38.2946 53.8532L38.2846 53.8844V53.8864L38.2726 53.9176L38.2672 53.9298V53.9332L38.2539 53.9746L38.2506 53.98L38.2406 54.0133L38.2372 54.0201L38.2306 54.0445L38.2239 54.0669L38.2105 54.1083V54.1117L38.1972 54.1517V54.1571L38.1919 54.1727L38.1832 54.204V54.206L38.1732 54.2392L38.1712 54.2494L38.1692 54.2528L38.1265 54.4367L38.1165 54.4835L38.1132 54.5025L38.1079 54.5317L38.1059 54.5351L38.0992 54.5765L38.0972 54.5785L38.0939 54.6009L38.0905 54.6267L38.0885 54.6335L38.0832 54.6681V54.6735L38.0812 54.6823L38.0692 54.7603V54.7692L38.0658 54.8038L38.0625 54.818L38.0605 54.837L38.0585 54.8662L38.0565 54.8716L38.0532 54.9049L38.0512 54.9293V54.9395L38.0478 54.9639V54.9741L38.0445 55.0073V55.0128L38.0425 55.0419L38.0405 55.0609V55.0765L38.0385 55.1098L38.0365 55.1444V55.3507L38.0458 55.3493Z" fill="#260004"/>
<path d="M26.6116 85.8874C26.0935 86.0299 25.56 85.7171 25.42 85.1898C25.2833 84.6626 25.5907 84.1178 26.1088 83.9787L35.4032 81.4424C35.9213 81.304 36.4534 81.6161 36.5928 82.1433C36.7308 82.6705 36.4221 83.212 35.904 83.3538L26.6116 85.8874Z" fill="#260004"/>
<path d="M26.4396 78.3599C25.9215 78.5003 25.3893 78.1882 25.25 77.659C25.1099 77.1318 25.4187 76.5903 25.9388 76.4478L37.0149 73.4277C37.533 73.2873 38.0665 73.5994 38.2052 74.1266C38.3432 74.6538 38.0365 75.1966 37.5184 75.3371L26.4396 78.3599Z" fill="#260004"/>
<path d="M22.3619 69.7454C21.8438 69.8859 21.3103 69.5737 21.1723 69.0465C21.0322 68.5193 21.3396 67.9765 21.8578 67.8361L30.1672 65.5705C30.6853 65.428 31.2175 65.7422 31.3568 66.2694C31.4969 66.7966 31.1881 67.338 30.67 67.4805L22.3619 69.7454Z" fill="#260004"/>
<path d="M25.28 92.2919C24.7618 92.4344 24.2284 92.1216 24.0903 91.5944C23.9503 91.0638 24.2577 90.5223 24.7758 90.3832L38.9527 86.515C39.4709 86.3766 40.003 86.6887 40.143 87.2159C40.2811 87.7431 39.9723 88.2846 39.4542 88.4264L25.28 92.2919Z" fill="#260004"/>
<path d="M18.3929 70.8263C17.8748 70.9688 17.3426 70.6546 17.2026 70.1274C17.0646 69.6002 17.3733 69.0574 17.8914 68.9169L19.4158 68.5003C19.934 68.3599 20.4694 68.672 20.6075 69.1992C20.7455 69.7264 20.4387 70.2692 19.9206 70.4097L18.3929 70.8263Z" fill="#260004"/>
<path d="M20.5888 79.4421C20.0687 79.5826 19.5352 79.2705 19.3971 78.7432C19.2591 78.216 19.5659 77.6732 20.084 77.5321L21.6797 77.0965C22.1979 76.954 22.7333 77.2681 22.87 77.7953C23.0101 78.3226 22.7026 78.8654 22.1845 79.0058L20.5888 79.4421Z" fill="#260004"/>
<path d="M19.2418 87.8965C18.7236 88.0389 18.1915 87.7268 18.0521 87.1989C17.9121 86.6717 18.2209 86.1303 18.739 85.9885L22.5886 84.9374C23.1067 84.7983 23.6402 85.1111 23.7783 85.6383C23.9163 86.1656 23.6095 86.707 23.0914 86.8488L19.2418 87.8965Z" fill="#260004"/>
<path fill-rule="evenodd" clip-rule="evenodd" d="M40.8512 66.4437L40.4224 64.8207L30.67 67.4805L27.95 68.2208L28.026 68.5064L28.3787 69.8438L40.8512 66.4437Z" fill="#B4C1CF"/>
<path fill-rule="evenodd" clip-rule="evenodd" d="M52.092 61.6392L52.5182 63.2622L65.084 59.8363L64.7312 58.499L64.6565 58.2133L52.092 61.6392Z" fill="#B4C1CF"/>
<path fill-rule="evenodd" clip-rule="evenodd" d="M49.5807 66.1133L46.0719 67.0687L51.4545 87.5111L54.9628 86.5537L49.5807 66.1133Z" fill="url(#paint4_linear_2004_58)"/>
<path fill-rule="evenodd" clip-rule="evenodd" d="M44.7575 71.3169L43.8013 67.6881L42.9858 67.91L31.3248 71.0896L31.7763 72.8089L29.9011 73.3205L30.4019 75.2306L32.2804 74.7203L37.0149 73.4277L44.7575 71.3169Z" fill="#B4C1CF"/>
<path fill-rule="evenodd" clip-rule="evenodd" d="M50.575 65.8405L51.5292 69.4713L64.1004 66.0434L63.1442 62.4154L50.575 65.8405Z" fill="#B4C1CF"/>
<path fill-rule="evenodd" clip-rule="evenodd" d="M36.7515 89.2284C36.5435 89.284 36.3354 89.3186 36.1274 89.3322L36.3594 90.2136C36.4534 90.5746 36.6882 90.8623 36.9849 91.0394C37.285 91.2164 37.6464 91.2755 38.0012 91.1778L49.1846 88.1285L48.6218 85.9912L36.7515 89.2284Z" fill="#B4C1CF"/>
<path fill-rule="evenodd" clip-rule="evenodd" d="M55.3942 84.1463L55.957 86.2829L67.2325 83.2099C67.5873 83.1129 67.872 82.8768 68.0441 82.5714C68.2161 82.2695 68.2754 81.8983 68.1801 81.5374L67.778 80.0066C67.3499 80.5997 66.7311 81.055 65.9809 81.2599L55.3942 84.1463Z" fill="#B4C1CF"/>
<path d="M19.1612 84.9706C19.0683 84.9706 18.9793 84.939 18.9136 84.8829C18.8479 84.8267 18.811 84.7506 18.811 84.6712V84.0724C18.811 83.9929 18.8479 83.9168 18.9136 83.8606C18.9793 83.8045 19.0683 83.7729 19.1612 83.7729C19.2541 83.7729 19.3431 83.8045 19.4088 83.8606C19.4745 83.9168 19.5114 83.9929 19.5114 84.0724V84.6712C19.5114 84.7506 19.4745 84.8267 19.4088 84.8829C19.3431 84.939 19.2541 84.9706 19.1612 84.9706ZM18.4608 85.5694H17.7605C17.6676 85.5694 17.5785 85.5378 17.5128 85.4817C17.4472 85.4255 17.4103 85.3494 17.4103 85.27C17.4103 85.1906 17.4472 85.1144 17.5128 85.0583C17.5785 85.0021 17.6676 84.9706 17.7605 84.9706H18.4608C18.5537 84.9706 18.6428 85.0021 18.7085 85.0583C18.7741 85.1144 18.811 85.1906 18.811 85.27C18.811 85.3494 18.7741 85.4255 18.7085 85.4817C18.6428 85.5378 18.5537 85.5694 18.4608 85.5694ZM19.1612 86.767C19.0683 86.767 18.9793 86.7355 18.9136 86.6793C18.8479 86.6232 18.811 86.547 18.811 86.4676V85.8688C18.811 85.7894 18.8479 85.7132 18.9136 85.6571C18.9793 85.6009 19.0683 85.5694 19.1612 85.5694C19.2541 85.5694 19.3431 85.6009 19.4088 85.6571C19.4745 85.7132 19.5114 85.7894 19.5114 85.8688V86.4676C19.5114 86.547 19.4745 86.6232 19.4088 86.6793C19.3431 86.7355 19.2541 86.767 19.1612 86.767ZM20.5619 85.5694H19.8616C19.7687 85.5694 19.6796 85.5378 19.614 85.4817C19.5483 85.4255 19.5114 85.3494 19.5114 85.27C19.5114 85.1906 19.5483 85.1144 19.614 85.0583C19.6796 85.0021 19.7687 84.9706 19.8616 84.9706H20.5619C20.6548 84.9706 20.7439 85.0021 20.8096 85.0583C20.8752 85.1144 20.9121 85.1906 20.9121 85.27C20.9121 85.3494 20.8752 85.4255 20.8096 85.4817C20.7439 85.5378 20.6548 85.5694 20.5619 85.5694ZM6.55451 95.7492C6.46164 95.7492 6.37257 95.7177 6.3069 95.6616C6.24122 95.6054 6.20433 95.5292 6.20433 95.4498V94.851C6.20433 94.7716 6.24122 94.6955 6.3069 94.6393C6.37257 94.5832 6.46164 94.5516 6.55451 94.5516C6.64739 94.5516 6.73646 94.5832 6.80213 94.6393C6.86781 94.6955 6.9047 94.7716 6.9047 94.851V95.4498C6.9047 95.5292 6.86781 95.6054 6.80213 95.6616C6.73646 95.7177 6.64739 95.7492 6.55451 95.7492ZM5.85414 96.3481H5.15377C5.0609 96.3481 4.97182 96.3165 4.90615 96.2604C4.84048 96.2042 4.80358 96.1281 4.80358 96.0487C4.80358 95.9692 4.84048 95.8931 4.90615 95.8369C4.97182 95.7808 5.0609 95.7492 5.15377 95.7492H5.85414C5.94702 95.7492 6.03609 95.7808 6.10176 95.8369C6.16743 95.8931 6.20433 95.9692 6.20433 96.0487C6.20433 96.1281 6.16743 96.2042 6.10176 96.2604C6.03609 96.3165 5.94702 96.3481 5.85414 96.3481ZM6.55451 97.5457C6.46164 97.5457 6.37257 97.5141 6.3069 97.458C6.24122 97.4018 6.20433 97.3257 6.20433 97.2463V96.6475C6.20433 96.5681 6.24122 96.4919 6.3069 96.4358C6.37257 96.3796 6.46164 96.3481 6.55451 96.3481C6.64739 96.3481 6.73646 96.3796 6.80213 96.4358C6.86781 96.4919 6.9047 96.5681 6.9047 96.6475V97.2463C6.9047 97.3257 6.86781 97.4018 6.80213 97.458C6.73646 97.5141 6.64739 97.5457 6.55451 97.5457ZM7.95526 96.3481H7.25489C7.16201 96.3481 7.07294 96.3165 7.00727 96.2604C6.94159 96.2042 6.9047 96.1281 6.9047 96.0487C6.9047 95.9692 6.94159 95.8931 7.00727 95.8369C7.07294 95.7808 7.16201 95.7492 7.25489 95.7492H7.95526C8.04813 95.7492 8.1372 95.7808 8.20288 95.8369C8.26855 95.8931 8.30544 95.9692 8.30544 96.0487C8.30544 96.1281 8.26855 96.2042 8.20288 96.2604C8.1372 96.3165 8.04813 96.3481 7.95526 96.3481ZM13.9084 98.7433C13.8199 98.7435 13.7346 98.7151 13.6696 98.6637C13.6047 98.6123 13.5649 98.5418 13.5582 98.4664C13.5386 98.2457 13.0095 93.045 6.82626 91.8495C6.74854 91.8346 6.67906 91.7976 6.62926 91.7445C6.57947 91.6914 6.55233 91.6253 6.55233 91.5572C6.55233 91.4892 6.57947 91.4231 6.62926 91.37C6.67906 91.3169 6.74854 91.2798 6.82626 91.265C13.0224 90.0674 13.5533 84.7029 13.5579 84.6481C13.5647 84.5727 13.6046 84.5023 13.6696 84.4511C13.7347 84.3998 13.82 84.3715 13.9084 84.3718C13.997 84.3716 14.0823 84.4 14.1473 84.4515C14.2123 84.5029 14.252 84.5735 14.2586 84.649C14.2782 84.8697 14.8073 90.0704 20.9906 91.2659C21.0683 91.2807 21.1378 91.3178 21.1876 91.3709C21.2374 91.424 21.2645 91.4901 21.2645 91.5581C21.2645 91.6262 21.2374 91.6923 21.1876 91.7454C21.1378 91.7985 21.0683 91.8355 20.9906 91.8504C14.7944 93.048 14.2635 98.4125 14.259 98.4673C14.2521 98.5426 14.2121 98.6129 14.1471 98.6641C14.0821 98.7153 13.9968 98.7436 13.9084 98.7433ZM8.16537 91.5575C11.8686 92.6875 13.338 95.316 13.9084 96.9729C14.4789 95.316 15.9482 92.6875 19.6515 91.5575C15.9482 90.4276 14.4789 87.7991 13.9084 86.1422C13.338 87.7991 11.8686 90.4276 8.16537 91.5575ZM4.80358 89.7611C4.71559 89.7614 4.6307 89.7333 4.56581 89.6825C4.50092 89.6317 4.46079 89.5618 4.4534 89.4868C4.37279 89.022 4.11727 88.5924 3.72552 88.2628C3.33377 87.9333 2.82711 87.7218 2.28225 87.6605C2.2027 87.647 2.13108 87.6104 2.07961 87.5568C2.02814 87.5032 2 87.4361 2 87.3667C2 87.2974 2.02814 87.2302 2.07961 87.1767C2.13108 87.1231 2.2027 87.0865 2.28225 87.073C2.82601 87.0093 3.33114 86.7971 3.72238 86.4679C4.11362 86.1388 4.37003 85.7105 4.4534 85.2466C4.46022 85.1715 4.49997 85.1013 4.56469 85.0501C4.62941 84.9988 4.71435 84.9704 4.80253 84.9704C4.89072 84.9704 4.97565 84.9988 5.04038 85.0501C5.1051 85.1013 5.14484 85.1715 5.15167 85.2466C5.23228 85.7114 5.4878 86.1411 5.87955 86.4707C6.2713 86.8002 6.77796 87.0117 7.32282 87.073C7.40236 87.0865 7.47398 87.1231 7.52546 87.1767C7.57693 87.2302 7.60507 87.2974 7.60507 87.3667C7.60507 87.4361 7.57693 87.5032 7.52546 87.5568C7.47398 87.6104 7.40236 87.647 7.32282 87.6605C6.77906 87.7242 6.27392 87.9364 5.88269 88.2655C5.49145 88.5946 5.23504 89.023 5.15167 89.4868C5.14431 89.5615 5.10447 89.6311 5.04003 89.6819C4.97559 89.7326 4.89122 89.7609 4.80358 89.7611ZM3.43506 87.3658C4.02132 87.6194 4.49991 88.0237 4.80358 88.5218C5.10726 88.0237 5.58585 87.6194 6.17211 87.3658C5.58585 87.1122 5.10726 86.708 4.80358 86.2098C4.49991 86.708 4.02132 87.1122 3.43506 87.3658ZM20.2118 98.1445C20.1238 98.1448 20.0389 98.1167 19.974 98.0659C19.9091 98.0151 19.869 97.9452 19.8616 97.8702C19.7809 97.4055 19.5254 96.9758 19.1336 96.6463C18.7419 96.3167 18.2353 96.1053 17.6904 96.0439C17.6109 96.0304 17.5393 95.9938 17.4878 95.9402C17.4363 95.8866 17.4082 95.8195 17.4082 95.7501C17.4082 95.6808 17.4363 95.6136 17.4878 95.5601C17.5393 95.5065 17.6109 95.4699 17.6904 95.4564C18.2342 95.3927 18.7394 95.1805 19.1306 94.8514C19.5219 94.5223 19.7783 94.0939 19.8616 93.63C19.8684 93.5549 19.9081 93.4847 19.9729 93.4335C20.0376 93.3823 20.1225 93.3538 20.2107 93.3538C20.2989 93.3538 20.3838 93.3823 20.4486 93.4335C20.5133 93.4847 20.553 93.5549 20.5598 93.63C20.6405 94.0948 20.896 94.5245 21.2878 94.854C21.6795 95.1836 22.1862 95.395 22.731 95.4564C22.8105 95.4699 22.8822 95.5065 22.9336 95.5601C22.9851 95.6136 23.0132 95.6808 23.0132 95.7501C23.0132 95.8195 22.9851 95.8866 22.9336 95.9402C22.8822 95.9938 22.8105 96.0304 22.731 96.0439C22.1872 96.1075 21.682 96.3198 21.2908 96.6489C20.8996 96.978 20.6432 97.4064 20.5598 97.8702C20.5525 97.9449 20.5126 98.0145 20.4482 98.0653C20.3838 98.116 20.2994 98.1443 20.2118 98.1445ZM18.8432 95.7492C19.4295 96.0028 19.9081 96.4071 20.2118 96.9053C20.5154 96.4071 20.994 96.0028 21.5803 95.7492C20.994 95.4956 20.5154 95.0914 20.2118 94.5932C19.9081 95.0914 19.4295 95.4956 18.8432 95.7492Z" fill="url(#paint5_linear_2004_58)"/>
<path d="M93.9611 40.2191C93.8584 40.2191 93.76 40.1834 93.6874 40.1197C93.6148 40.0561 93.574 39.9698 93.574 39.8798V39.2011C93.574 39.1111 93.6148 39.0248 93.6874 38.9612C93.76 38.8976 93.8584 38.8618 93.9611 38.8618C94.0637 38.8618 94.1622 38.8976 94.2347 38.9612C94.3073 39.0248 94.3481 39.1111 94.3481 39.2011V39.8798C94.3481 39.9698 94.3073 40.0561 94.2347 40.1197C94.1622 40.1834 94.0637 40.2191 93.9611 40.2191ZM93.187 40.8978H92.4129C92.3102 40.8978 92.2118 40.862 92.1392 40.7984C92.0666 40.7348 92.0258 40.6485 92.0258 40.5585C92.0258 40.4685 92.0666 40.3822 92.1392 40.3185C92.2118 40.2549 92.3102 40.2191 92.4129 40.2191H93.187C93.2896 40.2191 93.3881 40.2549 93.4606 40.3185C93.5332 40.3822 93.574 40.4685 93.574 40.5585C93.574 40.6485 93.5332 40.7348 93.4606 40.7984C93.3881 40.862 93.2896 40.8978 93.187 40.8978ZM93.9611 42.2551C93.8584 42.2551 93.76 42.2193 93.6874 42.1557C93.6148 42.0921 93.574 42.0058 93.574 41.9158V41.2371C93.574 41.1471 93.6148 41.0608 93.6874 40.9972C93.76 40.9335 93.8584 40.8978 93.9611 40.8978C94.0637 40.8978 94.1622 40.9335 94.2347 40.9972C94.3073 41.0608 94.3481 41.1471 94.3481 41.2371V41.9158C94.3481 42.0058 94.3073 42.0921 94.2347 42.1557C94.1622 42.2193 94.0637 42.2551 93.9611 42.2551ZM95.5092 40.8978H94.7351C94.6325 40.8978 94.5341 40.862 94.4615 40.7984C94.3889 40.7348 94.3481 40.6485 94.3481 40.5585C94.3481 40.4685 94.3889 40.3822 94.4615 40.3185C94.5341 40.2549 94.6325 40.2191 94.7351 40.2191H95.5092C95.6119 40.2191 95.7103 40.2549 95.7829 40.3185C95.8555 40.3822 95.8963 40.4685 95.8963 40.5585C95.8963 40.6485 95.8555 40.7348 95.7829 40.7984C95.7103 40.862 95.6119 40.8978 95.5092 40.8978ZM80.0273 52.435C79.9247 52.435 79.8262 52.3992 79.7537 52.3356C79.6811 52.2719 79.6403 52.1856 79.6403 52.0956V51.417C79.6403 51.327 79.6811 51.2407 79.7537 51.177C79.8262 51.1134 79.9247 51.0776 80.0273 51.0776C80.13 51.0776 80.2284 51.1134 80.301 51.177C80.3736 51.2407 80.4144 51.327 80.4144 51.417V52.0956C80.4144 52.1856 80.3736 52.2719 80.301 52.3356C80.2284 52.3992 80.13 52.435 80.0273 52.435ZM79.2532 53.1136H78.4792C78.3765 53.1136 78.2781 53.0779 78.2055 53.0142C78.1329 52.9506 78.0921 52.8643 78.0921 52.7743C78.0921 52.6843 78.1329 52.598 78.2055 52.5343C78.2781 52.4707 78.3765 52.435 78.4792 52.435H79.2532C79.3559 52.435 79.4543 52.4707 79.5269 52.5343C79.5995 52.598 79.6403 52.6843 79.6403 52.7743C79.6403 52.8643 79.5995 52.9506 79.5269 53.0142C79.4543 53.0779 79.3559 53.1136 79.2532 53.1136ZM80.0273 54.4709C79.9247 54.4709 79.8262 54.4352 79.7537 54.3715C79.6811 54.3079 79.6403 54.2216 79.6403 54.1316V53.4529C79.6403 53.3629 79.6811 53.2766 79.7537 53.213C79.8262 53.1494 79.9247 53.1136 80.0273 53.1136C80.13 53.1136 80.2284 53.1494 80.301 53.213C80.3736 53.2766 80.4144 53.3629 80.4144 53.4529V54.1316C80.4144 54.2216 80.3736 54.3079 80.301 54.3715C80.2284 54.4352 80.13 54.4709 80.0273 54.4709ZM81.5755 53.1136H80.8014C80.6988 53.1136 80.6003 53.0779 80.5278 53.0142C80.4552 52.9506 80.4144 52.8643 80.4144 52.7743C80.4144 52.6843 80.4552 52.598 80.5278 52.5343C80.6003 52.4707 80.6988 52.435 80.8014 52.435H81.5755C81.6782 52.435 81.7766 52.4707 81.8492 52.5343C81.9218 52.598 81.9626 52.6843 81.9626 52.7743C81.9626 52.8643 81.9218 52.9506 81.8492 53.0142C81.7766 53.0779 81.6782 53.1136 81.5755 53.1136ZM88.1553 55.8282C88.0575 55.8285 87.9632 55.7962 87.8914 55.738C87.8196 55.6798 87.7756 55.5999 87.7683 55.5144C87.7466 55.2643 87.1618 49.3701 80.3277 48.0152C80.2418 47.9984 80.165 47.9564 80.11 47.8962C80.0549 47.836 80.0249 47.7612 80.0249 47.684C80.0249 47.6069 80.0549 47.532 80.11 47.4718C80.165 47.4116 80.2418 47.3696 80.3277 47.3528C87.1761 45.9955 87.7629 39.9158 87.7679 39.8537C87.7754 39.7682 87.8196 39.6884 87.8914 39.6303C87.9633 39.5722 88.0576 39.5401 88.1553 39.5405C88.2532 39.5402 88.3476 39.5725 88.4194 39.6308C88.4912 39.6891 88.5351 39.7691 88.5424 39.8547C88.5641 40.1048 89.1489 45.9989 95.983 47.3538C96.0689 47.3707 96.1457 47.4126 96.2007 47.4728C96.2558 47.533 96.2858 47.6079 96.2858 47.685C96.2858 47.7622 96.2558 47.837 96.2007 47.8972C96.1457 47.9575 96.0689 47.9994 95.983 48.0162C89.1346 49.3735 88.5478 55.4533 88.5428 55.5154C88.5352 55.6008 88.491 55.6805 88.4191 55.7385C88.3473 55.7965 88.253 55.8286 88.1553 55.8282ZM81.8078 47.6844C85.9008 48.965 87.5248 51.9439 88.1553 53.8218C88.7858 51.9439 90.4099 48.965 94.5029 47.6844C90.4099 46.4037 88.7858 43.4248 88.1553 41.5469C87.5248 43.4248 85.9008 46.4037 81.8078 47.6844ZM78.0921 45.6484C77.9948 45.6487 77.901 45.6169 77.8293 45.5593C77.7576 45.5017 77.7132 45.4225 77.7051 45.3376C77.616 44.8108 77.3335 44.3238 76.9006 43.9503C76.4676 43.5768 75.9076 43.3372 75.3054 43.2677C75.2174 43.2524 75.1383 43.2109 75.0814 43.1502C75.0245 43.0895 74.9934 43.0133 74.9934 42.9348C74.9934 42.8562 75.0245 42.7801 75.0814 42.7194C75.1383 42.6587 75.2174 42.6171 75.3054 42.6019C75.9064 42.5297 76.4647 42.2891 76.8971 41.9161C77.3295 41.5431 77.6129 41.0577 77.7051 40.532C77.7126 40.4468 77.7565 40.3672 77.8281 40.3092C77.8996 40.2512 77.9935 40.2189 78.0909 40.2189C78.1884 40.2189 78.2823 40.2512 78.3538 40.3092C78.4254 40.3672 78.4693 40.4468 78.4768 40.532C78.5659 41.0588 78.8483 41.5457 79.2813 41.9192C79.7143 42.2927 80.2743 42.5324 80.8765 42.6019C80.9644 42.6171 81.0436 42.6587 81.1005 42.7194C81.1574 42.7801 81.1885 42.8562 81.1885 42.9348C81.1885 43.0133 81.1574 43.0895 81.1005 43.1502C81.0436 43.2109 80.9644 43.2524 80.8765 43.2677C80.2755 43.3399 79.7172 43.5804 79.2848 43.9534C78.8524 44.3264 78.569 44.8119 78.4768 45.3376C78.4687 45.4222 78.4247 45.501 78.3534 45.5586C78.2822 45.6161 78.189 45.6482 78.0921 45.6484ZM76.5795 42.9338C77.2275 43.2212 77.7565 43.6793 78.0921 44.2439C78.4277 43.6793 78.9567 43.2212 79.6047 42.9338C78.9567 42.6463 78.4277 42.1882 78.0921 41.6236C77.7565 42.1882 77.2275 42.6463 76.5795 42.9338ZM95.1222 55.1496C95.0249 55.1499 94.9311 55.1181 94.8594 55.0605C94.7877 55.0029 94.7433 54.9237 94.7351 54.8388C94.646 54.312 94.3636 53.8251 93.9306 53.4516C93.4976 53.0781 92.9377 52.8384 92.3355 52.7689C92.2475 52.7536 92.1684 52.7121 92.1115 52.6514C92.0546 52.5907 92.0235 52.5145 92.0235 52.436C92.0235 52.3574 92.0546 52.2813 92.1115 52.2206C92.1684 52.1598 92.2475 52.1183 92.3355 52.1031C92.9365 52.0309 93.4948 51.7904 93.9273 51.4174C94.3597 51.0444 94.6431 50.5589 94.7351 50.0332C94.7427 49.948 94.7866 49.8684 94.8582 49.8104C94.9297 49.7524 95.0236 49.7201 95.121 49.7201C95.2185 49.7201 95.3124 49.7524 95.3839 49.8104C95.4555 49.8684 95.4994 49.948 95.5069 50.0332C95.5961 50.5599 95.8785 51.0469 96.3115 51.4204C96.7445 51.7938 97.3044 52.0335 97.9066 52.1031C97.9945 52.1183 98.0737 52.1598 98.1306 52.2206C98.1875 52.2813 98.2186 52.3574 98.2186 52.436C98.2186 52.5145 98.1875 52.5907 98.1306 52.6514C98.0737 52.7121 97.9945 52.7536 97.9066 52.7689C97.3056 52.841 96.7473 53.0815 96.3148 53.4545C95.8824 53.8275 95.599 54.3131 95.5069 54.8388C95.4988 54.9234 95.4548 55.0022 95.3835 55.0598C95.3123 55.1173 95.2191 55.1494 95.1222 55.1496ZM93.6096 52.435C94.2576 52.7224 94.7866 53.1805 95.1222 53.7451C95.4578 53.1805 95.9868 52.7224 96.6348 52.435C95.9868 52.1475 95.4578 51.6894 95.1222 51.1248C94.7866 51.6894 94.2576 52.1475 93.6096 52.435Z" fill="url(#paint6_linear_2004_58)"/>
<g filter="url(#filter0_d_2004_58)">
<mask id="path-4-outside-1_2004_58" maskUnits="userSpaceOnUse" x="2" y="1.20312" width="97" height="28" fill="black">
<rect fill="white" x="2" y="1.20312" width="97" height="28"/>
<path d="M17.707 12.2617L20.2754 11.9297C20.7572 11.9297 20.998 12.1185 20.998 12.4961C20.998 12.8737 20.7702 13.1113 20.3145 13.209C19.8587 13.3001 18.8301 13.4238 17.2285 13.5801C17.0072 14.1595 16.6751 14.9635 16.2324 15.9922C15.3275 18.1016 14.875 19.3678 14.875 19.791C14.875 20.2533 15.1615 20.4844 15.7344 20.4844C17.5833 20.4844 19.2435 20.1751 20.7148 19.5566C20.9297 19.4655 21.099 19.4199 21.2227 19.4199C21.4635 19.4199 21.584 19.5273 21.584 19.7422C21.584 19.957 21.4277 20.1686 21.1152 20.377C20.1582 21.0085 18.7161 21.5358 16.7891 21.959C14.862 22.3822 13.0846 22.5938 11.457 22.5938C10.5326 22.5938 9.82617 22.4505 9.33789 22.1641C8.84961 21.8711 8.60547 21.4707 8.60547 20.9629C8.60547 20.4486 8.94401 19.4883 9.62109 18.082C10.3828 16.5065 10.9297 15.123 11.2617 13.9316C10.8581 13.9512 10.5781 13.9609 10.4219 13.9609C10.0378 13.9609 9.8457 13.8047 9.8457 13.4922C9.8457 13.2643 9.90755 13.1113 10.0312 13.0332C10.1549 12.9551 10.2819 12.8997 10.4121 12.8672C10.5488 12.8346 10.6628 12.8151 10.7539 12.8086C10.8516 12.7956 10.985 12.7826 11.1543 12.7695C11.3236 12.7565 11.4473 12.7467 11.5254 12.7402C11.61 12.2454 11.6523 11.7799 11.6523 11.3438L11.6426 10.9727C11.6426 10.6797 12.0137 10.4811 12.7559 10.377C13.0033 10.3444 13.7812 10.1816 15.0898 9.88867C16.3984 9.5957 17.1992 9.44922 17.4922 9.44922C17.9609 9.44922 18.1953 9.61198 18.1953 9.9375C18.1953 10.4974 18.0326 11.2721 17.707 12.2617ZM23.1504 21.5488C21.9264 20.8132 21.3145 19.6966 21.3145 18.1992C21.3145 17.418 21.474 16.6855 21.793 16.002C22.1185 15.3118 22.5612 14.7161 23.1211 14.2148C23.6875 13.7135 24.3451 13.2839 25.0938 12.9258C26.5911 12.2031 28.3066 11.8418 30.2402 11.8418C34.0423 11.8418 36.0964 13.0462 36.4023 15.4551C36.8581 15.6048 37.3268 15.6797 37.8086 15.6797C38.2969 15.6797 38.7038 15.6439 39.0293 15.5723C39.3548 15.5007 39.6608 15.3932 39.9473 15.25C40.2402 15.1068 40.4486 15.0352 40.5723 15.0352C40.8197 15.0352 40.9434 15.1556 40.9434 15.3965C40.9434 15.6374 40.7513 15.888 40.3672 16.1484C39.6445 16.6432 38.6875 16.8906 37.4961 16.8906C37.0469 16.8906 36.6823 16.8678 36.4023 16.8223C36.194 18.4629 35.3477 19.8268 33.8633 20.9141C33.1536 21.4349 32.2812 21.8451 31.2461 22.1445C30.2174 22.444 29.1497 22.5938 28.043 22.5938C26.9427 22.5938 25.9987 22.5059 25.2109 22.3301C24.4232 22.1608 23.7363 21.9004 23.1504 21.5488ZM26.6953 19.0586C26.6953 20.263 27.1348 20.8652 28.0137 20.8652C28.5736 20.8652 29.0944 20.5592 29.5762 19.9473C30.0645 19.3353 30.4421 18.5768 30.709 17.6719C30.9824 16.7669 31.1191 15.8457 31.1191 14.9082C31.1191 13.9642 30.7904 13.4922 30.1328 13.4922C29.5599 13.4922 29.0033 13.7624 28.4629 14.3027C27.929 14.8431 27.4993 15.5462 27.1738 16.4121C26.8548 17.2715 26.6953 18.1536 26.6953 19.0586ZM50.7227 12.125L54.541 12.0176C54.7103 12.0176 54.8372 12.0697 54.9219 12.1738C55.0065 12.2715 55.0488 12.3822 55.0488 12.5059C55.0488 12.9746 54.8926 13.4303 54.5801 13.873C54.2741 14.3092 53.8802 14.6934 53.3984 15.0254C52.9167 15.3574 52.3535 15.6667 51.709 15.9531C50.5501 16.4674 49.2936 16.8646 47.9395 17.1445C48.8639 17.0078 49.6712 16.9395 50.3613 16.9395C52.015 16.9395 52.8418 17.457 52.8418 18.4922C52.8418 18.6549 52.7995 18.8991 52.7148 19.2246C52.6302 19.5436 52.5879 19.8008 52.5879 19.9961C52.5879 20.4128 52.7962 20.6211 53.2129 20.6211C53.5189 20.6211 53.9583 20.5104 54.5312 20.2891C55.1107 20.0612 55.5566 19.8594 55.8691 19.6836C56.1816 19.5078 56.39 19.4199 56.4941 19.4199C56.6048 19.4199 56.7025 19.4557 56.7871 19.5273C56.8717 19.5924 56.9141 19.7129 56.9141 19.8887C56.9141 20.0579 56.7741 20.2435 56.4941 20.4453C55.5436 21.1159 54.4043 21.6432 53.0762 22.0273C51.748 22.4049 50.5566 22.5938 49.502 22.5938C48.4538 22.5938 47.7441 22.4863 47.373 22.2715C47.002 22.0632 46.8164 21.7148 46.8164 21.2266C46.8164 20.9792 46.8848 20.6016 47.0215 20.0938C47.1582 19.5794 47.2266 19.1725 47.2266 18.873C47.2266 18.0072 46.709 17.5286 45.6738 17.4375C44.8926 19.5729 44.4759 21.0703 44.4238 21.9297C44.4108 22.1706 44.2383 22.291 43.9062 22.291L38.877 22.3984C38.8053 22.3984 38.724 22.3529 38.6328 22.2617C38.5482 22.1771 38.5059 22.0697 38.5059 21.9395C38.5059 21.8092 38.7142 21.1549 39.1309 19.9766C39.554 18.7982 40.0163 17.5189 40.5176 16.1387C41.0254 14.7585 41.4876 13.3229 41.9043 11.832C42.3275 10.3411 42.5391 9.23112 42.5391 8.50195L42.5293 8.22852C42.5293 7.90299 42.8451 7.74023 43.4766 7.74023L47.9492 7.71094C48.099 7.71094 48.2194 7.75977 48.3105 7.85742C48.4082 7.94857 48.457 8.04948 48.457 8.16016C48.457 8.72005 48.1771 9.9082 47.6172 11.7246C47.0573 13.541 46.5234 15.1361 46.0156 16.5098C47.1875 16.2038 48.1087 15.722 48.7793 15.0645C49.4499 14.4069 49.7852 13.7135 49.7852 12.9844L49.7754 12.6133C49.7754 12.2878 50.0911 12.125 50.7227 12.125ZM72.582 19.4199C72.8099 19.4199 72.9238 19.5273 72.9238 19.7422C72.9238 19.9505 72.7676 20.1458 72.4551 20.3281C72.1491 20.5039 71.7682 20.696 71.3125 20.9043C70.8568 21.1061 70.2285 21.347 69.4277 21.627C67.5853 22.2715 65.5052 22.5938 63.1875 22.5938C58.7865 22.5938 56.5859 21.2396 56.5859 18.5312C56.5859 17.2096 57.0026 16.0378 57.8359 15.0156C58.6758 13.987 59.7988 13.2025 61.2051 12.6621C62.6113 12.1152 64.1445 11.8418 65.8047 11.8418C67.4648 11.8418 68.679 12.099 69.4473 12.6133C70.222 13.1276 70.6094 13.834 70.6094 14.7324C70.6094 15.6569 70.2383 16.4121 69.4961 16.998C68.7604 17.584 67.7806 18.0202 66.5566 18.3066C65.3262 18.5931 63.9167 18.7949 62.3281 18.9121C62.4323 19.9212 63.1549 20.5495 64.4961 20.7969C64.8411 20.8555 65.2057 20.8848 65.5898 20.8848C67.1133 20.8848 69.3105 20.4258 72.1816 19.5078C72.3574 19.4492 72.4909 19.4199 72.582 19.4199ZM62.3379 17.8379C63.4707 17.5254 64.3659 17.0469 65.0234 16.4023C65.681 15.7578 66.0098 14.9798 66.0098 14.0684C66.0098 13.8275 65.9316 13.6354 65.7754 13.4922C65.6191 13.349 65.3815 13.2773 65.0625 13.2773C64.75 13.2773 64.4212 13.4141 64.0762 13.6875C63.7376 13.9609 63.4512 14.319 63.2168 14.7617C62.722 15.6797 62.429 16.7051 62.3379 17.8379ZM91.9316 19.4199C92.1725 19.4199 92.293 19.5339 92.293 19.7617C92.293 19.9831 92.1725 20.1784 91.9316 20.3477C91.6973 20.5169 91.349 20.7122 90.8867 20.9336C90.4245 21.1484 89.8483 21.3861 89.1582 21.6465C88.4746 21.9069 87.6803 22.1283 86.7754 22.3105C85.877 22.4993 85.0176 22.5938 84.1973 22.5938C82.2637 22.5938 81.2969 22.151 81.2969 21.2656C81.2969 20.6927 81.6224 19.6706 82.2734 18.1992C82.931 16.7214 83.2598 15.7253 83.2598 15.2109C83.2598 14.6315 82.8073 14.3418 81.9023 14.3418C81.4922 14.3418 81.0267 14.3939 80.5059 14.498C80.2585 15.3704 79.8158 16.7572 79.1777 18.6582C78.5462 20.5592 78.1882 21.64 78.1035 21.9004C78.0254 22.1608 77.8529 22.291 77.5859 22.291L72.5566 22.3984C72.485 22.3984 72.4036 22.3529 72.3125 22.2617C72.2279 22.1771 72.1855 22.0762 72.1855 21.959C72.1855 21.8353 72.3223 21.4089 72.5957 20.6797C72.8757 19.944 73.1816 19.1562 73.5137 18.3164C73.8522 17.4701 74.1582 16.5423 74.4316 15.5332C74.7116 14.5176 74.8516 13.6777 74.8516 13.0137L74.8418 12.6426C74.8418 12.3171 75.1576 12.1543 75.7891 12.1543L80.418 12.0469C80.5872 12.0469 80.7142 12.099 80.7988 12.2031C80.8835 12.3008 80.9258 12.4245 80.9258 12.5742C80.9258 12.7174 80.89 12.9518 80.8184 13.2773C83.11 12.3203 84.9915 11.8418 86.4629 11.8418C87.0879 11.8418 87.6576 12.0143 88.1719 12.3594C88.7448 12.7435 89.0312 13.3262 89.0312 14.1074C89.0312 14.9082 88.7285 15.9564 88.123 17.252C87.5176 18.5475 87.2148 19.3483 87.2148 19.6543C87.2148 20.2598 87.4557 20.5625 87.9375 20.5625C88.2435 20.5625 88.7643 20.4486 89.5 20.2207C90.2422 19.9863 90.7891 19.7943 91.1406 19.6445C91.4987 19.4948 91.7624 19.4199 91.9316 19.4199Z"/>
</mask>
<path d="M17.707 12.2617L20.2754 11.9297C20.7572 11.9297 20.998 12.1185 20.998 12.4961C20.998 12.8737 20.7702 13.1113 20.3145 13.209C19.8587 13.3001 18.8301 13.4238 17.2285 13.5801C17.0072 14.1595 16.6751 14.9635 16.2324 15.9922C15.3275 18.1016 14.875 19.3678 14.875 19.791C14.875 20.2533 15.1615 20.4844 15.7344 20.4844C17.5833 20.4844 19.2435 20.1751 20.7148 19.5566C20.9297 19.4655 21.099 19.4199 21.2227 19.4199C21.4635 19.4199 21.584 19.5273 21.584 19.7422C21.584 19.957 21.4277 20.1686 21.1152 20.377C20.1582 21.0085 18.7161 21.5358 16.7891 21.959C14.862 22.3822 13.0846 22.5938 11.457 22.5938C10.5326 22.5938 9.82617 22.4505 9.33789 22.1641C8.84961 21.8711 8.60547 21.4707 8.60547 20.9629C8.60547 20.4486 8.94401 19.4883 9.62109 18.082C10.3828 16.5065 10.9297 15.123 11.2617 13.9316C10.8581 13.9512 10.5781 13.9609 10.4219 13.9609C10.0378 13.9609 9.8457 13.8047 9.8457 13.4922C9.8457 13.2643 9.90755 13.1113 10.0312 13.0332C10.1549 12.9551 10.2819 12.8997 10.4121 12.8672C10.5488 12.8346 10.6628 12.8151 10.7539 12.8086C10.8516 12.7956 10.985 12.7826 11.1543 12.7695C11.3236 12.7565 11.4473 12.7467 11.5254 12.7402C11.61 12.2454 11.6523 11.7799 11.6523 11.3438L11.6426 10.9727C11.6426 10.6797 12.0137 10.4811 12.7559 10.377C13.0033 10.3444 13.7812 10.1816 15.0898 9.88867C16.3984 9.5957 17.1992 9.44922 17.4922 9.44922C17.9609 9.44922 18.1953 9.61198 18.1953 9.9375C18.1953 10.4974 18.0326 11.2721 17.707 12.2617ZM23.1504 21.5488C21.9264 20.8132 21.3145 19.6966 21.3145 18.1992C21.3145 17.418 21.474 16.6855 21.793 16.002C22.1185 15.3118 22.5612 14.7161 23.1211 14.2148C23.6875 13.7135 24.3451 13.2839 25.0938 12.9258C26.5911 12.2031 28.3066 11.8418 30.2402 11.8418C34.0423 11.8418 36.0964 13.0462 36.4023 15.4551C36.8581 15.6048 37.3268 15.6797 37.8086 15.6797C38.2969 15.6797 38.7038 15.6439 39.0293 15.5723C39.3548 15.5007 39.6608 15.3932 39.9473 15.25C40.2402 15.1068 40.4486 15.0352 40.5723 15.0352C40.8197 15.0352 40.9434 15.1556 40.9434 15.3965C40.9434 15.6374 40.7513 15.888 40.3672 16.1484C39.6445 16.6432 38.6875 16.8906 37.4961 16.8906C37.0469 16.8906 36.6823 16.8678 36.4023 16.8223C36.194 18.4629 35.3477 19.8268 33.8633 20.9141C33.1536 21.4349 32.2812 21.8451 31.2461 22.1445C30.2174 22.444 29.1497 22.5938 28.043 22.5938C26.9427 22.5938 25.9987 22.5059 25.2109 22.3301C24.4232 22.1608 23.7363 21.9004 23.1504 21.5488ZM26.6953 19.0586C26.6953 20.263 27.1348 20.8652 28.0137 20.8652C28.5736 20.8652 29.0944 20.5592 29.5762 19.9473C30.0645 19.3353 30.4421 18.5768 30.709 17.6719C30.9824 16.7669 31.1191 15.8457 31.1191 14.9082C31.1191 13.9642 30.7904 13.4922 30.1328 13.4922C29.5599 13.4922 29.0033 13.7624 28.4629 14.3027C27.929 14.8431 27.4993 15.5462 27.1738 16.4121C26.8548 17.2715 26.6953 18.1536 26.6953 19.0586ZM50.7227 12.125L54.541 12.0176C54.7103 12.0176 54.8372 12.0697 54.9219 12.1738C55.0065 12.2715 55.0488 12.3822 55.0488 12.5059C55.0488 12.9746 54.8926 13.4303 54.5801 13.873C54.2741 14.3092 53.8802 14.6934 53.3984 15.0254C52.9167 15.3574 52.3535 15.6667 51.709 15.9531C50.5501 16.4674 49.2936 16.8646 47.9395 17.1445C48.8639 17.0078 49.6712 16.9395 50.3613 16.9395C52.015 16.9395 52.8418 17.457 52.8418 18.4922C52.8418 18.6549 52.7995 18.8991 52.7148 19.2246C52.6302 19.5436 52.5879 19.8008 52.5879 19.9961C52.5879 20.4128 52.7962 20.6211 53.2129 20.6211C53.5189 20.6211 53.9583 20.5104 54.5312 20.2891C55.1107 20.0612 55.5566 19.8594 55.8691 19.6836C56.1816 19.5078 56.39 19.4199 56.4941 19.4199C56.6048 19.4199 56.7025 19.4557 56.7871 19.5273C56.8717 19.5924 56.9141 19.7129 56.9141 19.8887C56.9141 20.0579 56.7741 20.2435 56.4941 20.4453C55.5436 21.1159 54.4043 21.6432 53.0762 22.0273C51.748 22.4049 50.5566 22.5938 49.502 22.5938C48.4538 22.5938 47.7441 22.4863 47.373 22.2715C47.002 22.0632 46.8164 21.7148 46.8164 21.2266C46.8164 20.9792 46.8848 20.6016 47.0215 20.0938C47.1582 19.5794 47.2266 19.1725 47.2266 18.873C47.2266 18.0072 46.709 17.5286 45.6738 17.4375C44.8926 19.5729 44.4759 21.0703 44.4238 21.9297C44.4108 22.1706 44.2383 22.291 43.9062 22.291L38.877 22.3984C38.8053 22.3984 38.724 22.3529 38.6328 22.2617C38.5482 22.1771 38.5059 22.0697 38.5059 21.9395C38.5059 21.8092 38.7142 21.1549 39.1309 19.9766C39.554 18.7982 40.0163 17.5189 40.5176 16.1387C41.0254 14.7585 41.4876 13.3229 41.9043 11.832C42.3275 10.3411 42.5391 9.23112 42.5391 8.50195L42.5293 8.22852C42.5293 7.90299 42.8451 7.74023 43.4766 7.74023L47.9492 7.71094C48.099 7.71094 48.2194 7.75977 48.3105 7.85742C48.4082 7.94857 48.457 8.04948 48.457 8.16016C48.457 8.72005 48.1771 9.9082 47.6172 11.7246C47.0573 13.541 46.5234 15.1361 46.0156 16.5098C47.1875 16.2038 48.1087 15.722 48.7793 15.0645C49.4499 14.4069 49.7852 13.7135 49.7852 12.9844L49.7754 12.6133C49.7754 12.2878 50.0911 12.125 50.7227 12.125ZM72.582 19.4199C72.8099 19.4199 72.9238 19.5273 72.9238 19.7422C72.9238 19.9505 72.7676 20.1458 72.4551 20.3281C72.1491 20.5039 71.7682 20.696 71.3125 20.9043C70.8568 21.1061 70.2285 21.347 69.4277 21.627C67.5853 22.2715 65.5052 22.5938 63.1875 22.5938C58.7865 22.5938 56.5859 21.2396 56.5859 18.5312C56.5859 17.2096 57.0026 16.0378 57.8359 15.0156C58.6758 13.987 59.7988 13.2025 61.2051 12.6621C62.6113 12.1152 64.1445 11.8418 65.8047 11.8418C67.4648 11.8418 68.679 12.099 69.4473 12.6133C70.222 13.1276 70.6094 13.834 70.6094 14.7324C70.6094 15.6569 70.2383 16.4121 69.4961 16.998C68.7604 17.584 67.7806 18.0202 66.5566 18.3066C65.3262 18.5931 63.9167 18.7949 62.3281 18.9121C62.4323 19.9212 63.1549 20.5495 64.4961 20.7969C64.8411 20.8555 65.2057 20.8848 65.5898 20.8848C67.1133 20.8848 69.3105 20.4258 72.1816 19.5078C72.3574 19.4492 72.4909 19.4199 72.582 19.4199ZM62.3379 17.8379C63.4707 17.5254 64.3659 17.0469 65.0234 16.4023C65.681 15.7578 66.0098 14.9798 66.0098 14.0684C66.0098 13.8275 65.9316 13.6354 65.7754 13.4922C65.6191 13.349 65.3815 13.2773 65.0625 13.2773C64.75 13.2773 64.4212 13.4141 64.0762 13.6875C63.7376 13.9609 63.4512 14.319 63.2168 14.7617C62.722 15.6797 62.429 16.7051 62.3379 17.8379ZM91.9316 19.4199C92.1725 19.4199 92.293 19.5339 92.293 19.7617C92.293 19.9831 92.1725 20.1784 91.9316 20.3477C91.6973 20.5169 91.349 20.7122 90.8867 20.9336C90.4245 21.1484 89.8483 21.3861 89.1582 21.6465C88.4746 21.9069 87.6803 22.1283 86.7754 22.3105C85.877 22.4993 85.0176 22.5938 84.1973 22.5938C82.2637 22.5938 81.2969 22.151 81.2969 21.2656C81.2969 20.6927 81.6224 19.6706 82.2734 18.1992C82.931 16.7214 83.2598 15.7253 83.2598 15.2109C83.2598 14.6315 82.8073 14.3418 81.9023 14.3418C81.4922 14.3418 81.0267 14.3939 80.5059 14.498C80.2585 15.3704 79.8158 16.7572 79.1777 18.6582C78.5462 20.5592 78.1882 21.64 78.1035 21.9004C78.0254 22.1608 77.8529 22.291 77.5859 22.291L72.5566 22.3984C72.485 22.3984 72.4036 22.3529 72.3125 22.2617C72.2279 22.1771 72.1855 22.0762 72.1855 21.959C72.1855 21.8353 72.3223 21.4089 72.5957 20.6797C72.8757 19.944 73.1816 19.1562 73.5137 18.3164C73.8522 17.4701 74.1582 16.5423 74.4316 15.5332C74.7116 14.5176 74.8516 13.6777 74.8516 13.0137L74.8418 12.6426C74.8418 12.3171 75.1576 12.1543 75.7891 12.1543L80.418 12.0469C80.5872 12.0469 80.7142 12.099 80.7988 12.2031C80.8835 12.3008 80.9258 12.4245 80.9258 12.5742C80.9258 12.7174 80.89 12.9518 80.8184 13.2773C83.11 12.3203 84.9915 11.8418 86.4629 11.8418C87.0879 11.8418 87.6576 12.0143 88.1719 12.3594C88.7448 12.7435 89.0312 13.3262 89.0312 14.1074C89.0312 14.9082 88.7285 15.9564 88.123 17.252C87.5176 18.5475 87.2148 19.3483 87.2148 19.6543C87.2148 20.2598 87.4557 20.5625 87.9375 20.5625C88.2435 20.5625 88.7643 20.4486 89.5 20.2207C90.2422 19.9863 90.7891 19.7943 91.1406 19.6445C91.4987 19.4948 91.7624 19.4199 91.9316 19.4199Z" fill="#260004"/>
<path d="M17.707 12.2617L12.0075 10.3869L9.03172 19.4332L18.4763 18.2122L17.707 12.2617ZM20.2754 11.9297V5.92969H19.8892L19.5061 5.97921L20.2754 11.9297ZM20.3145 13.209L21.4911 19.0925L21.5314 19.0844L21.5716 19.0758L20.3145 13.209ZM17.2285 13.5801L16.6459 7.60843L12.9491 7.96909L11.6236 11.4389L17.2285 13.5801ZM16.2324 15.9922L10.7212 13.6203L10.7184 13.6266L16.2324 15.9922ZM20.7148 19.5566L23.0399 25.0878L23.049 25.084L23.0581 25.0801L20.7148 19.5566ZM21.1152 20.377L24.4198 25.3849L24.4316 25.3771L24.4434 25.3693L21.1152 20.377ZM9.33789 22.1641L6.25092 27.309L6.27629 27.3242L6.3018 27.3392L9.33789 22.1641ZM9.62109 18.082L4.21928 15.4704L4.21508 15.4791L9.62109 18.082ZM11.2617 13.9316L17.0415 15.5424L19.2725 7.537L10.9717 7.93865L11.2617 13.9316ZM10.4121 12.8672L9.02239 7.03035L8.9896 7.03816L8.9569 7.04633L10.4121 12.8672ZM10.7539 12.8086L11.1814 18.7933L11.3647 18.7803L11.5469 18.756L10.7539 12.8086ZM11.5254 12.7402L12.0237 18.7195L16.6558 18.3335L17.4395 13.7519L11.5254 12.7402ZM11.6523 11.3438H17.6523V11.2648L17.6503 11.1859L11.6523 11.3438ZM11.6426 10.9727H5.64258V11.0516L5.64465 11.1305L11.6426 10.9727ZM12.7559 10.377L11.9731 4.42823L11.9475 4.4316L11.9219 4.43519L12.7559 10.377ZM17.707 12.2617L18.4763 18.2122L21.0447 17.8802L20.2754 11.9297L19.5061 5.97921L16.9378 6.31124L17.707 12.2617ZM20.2754 11.9297V17.9297C19.8963 17.9297 18.5062 17.8832 17.1161 16.7936C15.4478 15.4861 14.998 13.6746 14.998 12.4961H20.998H26.998C26.998 10.9399 26.4278 8.84532 24.5187 7.34895C22.8877 6.07061 21.1362 5.92969 20.2754 5.92969V11.9297ZM20.998 12.4961H14.998C14.998 11.3824 15.3807 9.96841 16.4965 8.8048C17.4917 7.7669 18.5807 7.44429 19.0573 7.34217L20.3145 13.209L21.5716 19.0758C22.5039 18.876 23.9347 18.3858 25.1578 17.1102C26.5015 15.709 26.998 13.9874 26.998 12.4961H20.998ZM20.3145 13.209L19.1378 7.3255C19.1564 7.32177 18.9848 7.35291 18.4848 7.41303C18.0322 7.46746 17.4235 7.53257 16.6459 7.60843L17.2285 13.5801L17.8111 19.5517C19.3309 19.4035 20.6818 19.2543 21.4911 19.0925L20.3145 13.209ZM17.2285 13.5801L11.6236 11.4389C11.4464 11.9026 11.1526 12.6178 10.7212 13.6203L16.2324 15.9922L21.7437 18.3641C22.1976 17.3093 22.5679 16.4164 22.8334 15.7213L17.2285 13.5801ZM16.2324 15.9922L10.7184 13.6266C10.2459 14.728 9.85124 15.7018 9.56423 16.505C9.422 16.903 9.27884 17.3349 9.1641 17.7633C9.08398 18.0625 8.875 18.8563 8.875 19.791H14.875H20.875C20.875 20.2233 20.8223 20.5379 20.8029 20.6468C20.7787 20.7822 20.7569 20.8627 20.7556 20.8678C20.754 20.8738 20.7805 20.7779 20.8645 20.5429C21.0299 20.0798 21.314 19.3658 21.7464 18.3578L16.2324 15.9922ZM14.875 19.791H8.875C8.875 21.3288 9.41481 23.4417 11.3223 24.9807C12.9836 26.321 14.7979 26.4844 15.7344 26.4844V20.4844V14.4844C16.0979 14.4844 17.4826 14.5322 18.8574 15.6414C20.4784 16.9493 20.875 18.7154 20.875 19.791H14.875ZM15.7344 20.4844V26.4844C18.2566 26.4844 20.7252 26.0608 23.0399 25.0878L20.7148 19.5566L18.3898 14.0254C17.7618 14.2894 16.9101 14.4844 15.7344 14.4844V20.4844ZM20.7148 19.5566L23.0581 25.0801C22.9887 25.1096 22.816 25.1796 22.5628 25.2478C22.3319 25.3099 21.8558 25.4199 21.2227 25.4199V19.4199V13.4199C19.863 13.4199 18.7872 13.8568 18.3715 14.0331L20.7148 19.5566ZM21.2227 19.4199V25.4199C20.5767 25.4199 18.9716 25.2908 17.5 23.9783C15.8976 22.5491 15.584 20.7486 15.584 19.7422H21.584H27.584C27.584 18.5209 27.2101 16.5592 25.4873 15.0227C23.8953 13.6028 22.1095 13.4199 21.2227 13.4199V19.4199ZM21.584 19.7422H15.584C15.584 18.3013 16.1305 17.1879 16.6402 16.4978C17.1108 15.8605 17.5917 15.5149 17.787 15.3847L21.1152 20.377L24.4434 25.3693C25.1893 24.872 27.584 23.0942 27.584 19.7422H21.584ZM21.1152 20.377L17.8107 15.369C17.8267 15.3584 17.6762 15.4571 17.2552 15.6111C16.8461 15.7607 16.2729 15.9294 15.5022 16.0986L16.7891 21.959L18.076 27.8193C20.2802 27.3353 22.5588 26.6129 24.4198 25.3849L21.1152 20.377ZM16.7891 21.959L15.5022 16.0986C13.912 16.4478 12.5722 16.5938 11.457 16.5938V22.5938V28.5938C13.5971 28.5938 15.8119 28.3165 18.076 27.8193L16.7891 21.959ZM11.457 22.5938V16.5938C11.2891 16.5938 11.2951 16.5794 11.4262 16.606C11.5535 16.6318 11.9149 16.7196 12.374 16.9889L9.33789 22.1641L6.3018 27.3392C8.12082 28.4064 10.0704 28.5938 11.457 28.5938V22.5938ZM9.33789 22.1641L12.4249 17.0191C12.8364 17.266 13.431 17.7327 13.9114 18.5204C14.4104 19.3388 14.6055 20.2095 14.6055 20.9629H8.60547H2.60547C2.60547 23.8673 4.21786 26.0892 6.25092 27.309L9.33789 22.1641ZM8.60547 20.9629H14.6055C14.6055 21.2199 14.5849 21.4224 14.5672 21.5532C14.5491 21.687 14.5288 21.7839 14.5168 21.8361C14.4945 21.9331 14.4848 21.9461 14.518 21.8518C14.5487 21.7647 14.6029 21.6233 14.6905 21.4194C14.777 21.2177 14.8879 20.9741 15.0271 20.6849L9.62109 18.082L4.21508 15.4791C3.82567 16.2879 3.47057 17.0966 3.20073 17.862C2.98201 18.4824 2.60547 19.6452 2.60547 20.9629H8.60547ZM9.62109 18.082L15.0229 20.6936C15.8818 18.9172 16.5832 17.1868 17.0415 15.5424L11.2617 13.9316L5.48197 12.3209C5.27618 13.0593 4.88386 14.0958 4.21929 15.4704L9.62109 18.082ZM11.2617 13.9316L10.9717 7.93865C10.7862 7.94763 10.644 7.95363 10.5398 7.95726C10.4244 7.96129 10.3963 7.96094 10.4219 7.96094V13.9609V19.9609C10.7415 19.9609 11.1559 19.9438 11.5517 19.9246L11.2617 13.9316ZM10.4219 13.9609V7.96094C10.8888 7.96094 12.3524 8.03105 13.7763 9.18948C15.437 10.5406 15.8457 12.3588 15.8457 13.4922H9.8457H3.8457C3.8457 14.9381 4.35042 16.9907 6.20322 18.498C7.81918 19.8127 9.57086 19.9609 10.4219 19.9609V13.9609ZM9.8457 13.4922H15.8457C15.8457 14.115 15.6733 16.5663 13.2352 18.1061L10.0312 13.0332L6.82729 7.96027C4.14178 9.65638 3.8457 12.4136 3.8457 13.4922H9.8457ZM10.0312 13.0332L13.2352 18.1061C12.8679 18.3381 12.4093 18.5526 11.8673 18.688L10.4121 12.8672L8.9569 7.04633C8.15451 7.24693 7.44203 7.57202 6.82729 7.96027L10.0312 13.0332ZM10.4121 12.8672L11.8018 18.704C11.7712 18.7113 11.7064 18.726 11.6139 18.7419C11.5249 18.7571 11.3757 18.7795 11.1814 18.7933L10.7539 12.8086L10.3264 6.82384C9.78757 6.86233 9.32633 6.95798 9.02239 7.03035L10.4121 12.8672ZM10.7539 12.8086L11.5469 18.756C11.5246 18.7589 11.5103 18.7606 11.5057 18.7611C11.5008 18.7617 11.5019 18.7615 11.5098 18.7607C11.5268 18.7591 11.5605 18.756 11.6145 18.7519L11.1543 12.7695L10.6941 6.7872C10.4806 6.80363 10.2201 6.82666 9.96092 6.86123L10.7539 12.8086ZM11.1543 12.7695L11.6145 18.7519C11.7854 18.7387 11.9252 18.7277 12.0237 18.7195L11.5254 12.7402L11.0271 6.76096C10.9693 6.76578 10.8618 6.77431 10.6941 6.7872L11.1543 12.7695ZM11.5254 12.7402L17.4395 13.7519C17.5729 12.9717 17.6523 12.1651 17.6523 11.3438H11.6523H5.65234C5.65234 11.3948 5.6471 11.5192 5.61129 11.7286L11.5254 12.7402ZM11.6523 11.3438L17.6503 11.1859L17.6405 10.8148L11.6426 10.9727L5.64465 11.1305L5.65442 11.5016L11.6523 11.3438ZM11.6426 10.9727H17.6426C17.6426 12.2737 17.1975 13.4629 16.5007 14.3858C15.8685 15.2233 15.1602 15.6757 14.7517 15.8943C14.3298 16.12 13.9919 16.2221 13.8432 16.2625C13.757 16.286 13.692 16.3 13.6532 16.3076C13.6138 16.3153 13.5917 16.3184 13.5898 16.3187L12.7559 10.377L11.9219 4.43519C11.3095 4.52114 10.2049 4.71728 9.09015 5.31375C7.90944 5.94552 5.64258 7.70681 5.64258 10.9727H11.6426ZM12.7559 10.377L13.5386 16.3257C14.1234 16.2487 15.2396 16.0037 16.4007 15.7437L15.0898 9.88867L13.779 4.03361C13.1363 4.17751 12.6456 4.28453 12.2963 4.35761C12.1209 4.3943 11.9979 4.41892 11.9182 4.43409C11.8091 4.45488 11.8549 4.44378 11.9731 4.42823L12.7559 10.377ZM15.0898 9.88867L16.4007 15.7437C17.0204 15.605 17.4617 15.5142 17.7515 15.4611C17.8206 15.4485 17.8741 15.4393 17.9139 15.4328C17.9335 15.4296 17.9483 15.4273 17.9588 15.4258C17.9694 15.4242 17.9742 15.4235 17.9737 15.4236C17.9734 15.4236 17.9656 15.4247 17.9513 15.4263C17.9372 15.4279 17.9129 15.4305 17.8798 15.4334C17.827 15.438 17.6866 15.4492 17.4922 15.4492V9.44922V3.44922C16.7215 3.44922 15.9324 3.59479 15.5922 3.65702C15.0813 3.75049 14.4679 3.87938 13.779 4.03361L15.0898 9.88867ZM17.4922 9.44922V15.4492C17.2172 15.4492 15.9443 15.435 14.5972 14.4995C13.8504 13.9809 13.1866 13.2461 12.7422 12.3203C12.3119 11.4237 12.1953 10.5758 12.1953 9.9375H18.1953H24.1953C24.1953 8.1295 23.4203 6.01695 21.4419 4.64307C19.8604 3.54483 18.236 3.44922 17.4922 3.44922V9.44922ZM18.1953 9.9375H12.1953C12.1953 9.79232 12.2055 9.69946 12.2089 9.67138C12.2126 9.64133 12.2129 9.65049 12.2014 9.7049C12.1772 9.82026 12.1212 10.041 12.0075 10.3869L17.707 12.2617L23.4066 14.1366C23.7909 12.9683 24.1953 11.4658 24.1953 9.9375H18.1953ZM23.1504 21.5488L20.0594 26.6914L20.0634 26.6938L23.1504 21.5488ZM21.793 16.002L16.3664 13.4422L16.3611 13.4534L16.3559 13.4646L21.793 16.002ZM23.1211 14.2148L19.1445 9.72185L19.1316 9.73327L19.1188 9.74476L23.1211 14.2148ZM25.0938 12.9258L27.6825 18.3386L27.692 18.334L27.7016 18.3294L25.0938 12.9258ZM36.4023 15.4551L30.4502 16.2112L30.9279 19.9719L34.5294 21.1553L36.4023 15.4551ZM39.9473 15.25L37.312 9.85969L37.2879 9.87146L37.264 9.88344L39.9473 15.25ZM40.3672 16.1484L37.0002 11.1822L36.9888 11.1899L36.9775 11.1977L40.3672 16.1484ZM36.4023 16.8223L37.3664 10.9002L31.233 9.90176L30.4501 16.0664L36.4023 16.8223ZM33.8633 20.9141L30.3179 16.0736L30.3132 16.077L33.8633 20.9141ZM31.2461 22.1445L29.5786 16.3809L29.5689 16.3837L31.2461 22.1445ZM25.2109 22.3301L26.5176 16.4741L26.4946 16.4689L26.4714 16.464L25.2109 22.3301ZM29.5762 19.9473L24.8861 16.2052L24.8739 16.2205L24.8617 16.2359L29.5762 19.9473ZM30.709 17.6719L24.9655 15.9364L24.9597 15.9554L24.9541 15.9744L30.709 17.6719ZM28.4629 14.3027L24.2202 10.0601L24.2074 10.073L24.1946 10.0859L28.4629 14.3027ZM27.1738 16.4121L21.5576 14.3007L21.5532 14.3124L21.5489 14.3241L27.1738 16.4121ZM23.1504 21.5488L26.2414 16.4063C26.4269 16.5178 26.7703 16.7929 27.0349 17.2758C27.2924 17.7455 27.3145 18.1178 27.3145 18.1992H21.3145H15.3145C15.3145 21.6778 16.9261 24.8081 20.0594 26.6914L23.1504 21.5488ZM21.3145 18.1992H27.3145C27.3145 18.2198 27.312 18.2702 27.2967 18.3407C27.2812 18.4119 27.2575 18.4805 27.2301 18.5393L21.793 16.002L16.3559 13.4646C15.6528 14.9713 15.3145 16.5733 15.3145 18.1992H21.3145ZM21.793 16.002L27.2196 18.5617C27.2177 18.5656 27.2069 18.5869 27.1849 18.6165C27.1627 18.6464 27.14 18.67 27.1234 18.6849L23.1211 14.2148L19.1188 9.74476C17.9519 10.7896 17.0288 12.0379 16.3664 13.4422L21.793 16.002ZM23.1211 14.2148L27.0977 18.7078C27.2081 18.6101 27.3885 18.4792 27.6825 18.3386L25.0938 12.9258L22.505 7.51298C21.3016 8.08851 20.1669 8.81697 19.1445 9.72185L23.1211 14.2148ZM25.0938 12.9258L27.7016 18.3294C28.2631 18.0584 29.063 17.8418 30.2402 17.8418V11.8418V5.8418C27.5503 5.8418 24.9191 6.34785 22.4859 7.52215L25.0938 12.9258ZM30.2402 11.8418V17.8418C30.8885 17.8418 31.3112 17.8944 31.5553 17.9446C31.8013 17.9952 31.7736 18.0243 31.5974 17.9209C31.3945 17.802 31.0848 17.5581 30.8217 17.1553C30.5609 16.756 30.4737 16.3964 30.4502 16.2112L36.4023 15.4551L42.3545 14.699C41.9725 11.6915 40.3363 9.13432 37.6673 7.5693C35.3256 6.19621 32.6326 5.8418 30.2402 5.8418V11.8418ZM36.4023 15.4551L34.5294 21.1553C35.5923 21.5045 36.6934 21.6797 37.8086 21.6797V15.6797V9.67969C37.9603 9.67969 38.1239 9.70515 38.2753 9.75489L36.4023 15.4551ZM37.8086 15.6797V21.6797C38.5499 21.6797 39.4236 21.629 40.3185 21.4321L39.0293 15.5723L37.7401 9.7124C37.8114 9.69671 37.8655 9.68772 37.8992 9.68277C37.9332 9.67779 37.9521 9.6761 37.954 9.67593C37.9561 9.67575 37.9451 9.67675 37.9197 9.67777C37.8945 9.67878 37.8577 9.67969 37.8086 9.67969V15.6797ZM39.0293 15.5723L40.3185 21.4321C41.1076 21.2585 41.8838 20.9899 42.6305 20.6166L39.9473 15.25L37.264 9.88344C37.4378 9.79653 37.6021 9.74277 37.7401 9.7124L39.0293 15.5723ZM39.9473 15.25L42.5825 20.6403C42.5819 20.6406 42.5761 20.6434 42.5654 20.6484C42.5548 20.6533 42.5377 20.661 42.5146 20.6709C42.472 20.6891 42.3894 20.7232 42.2737 20.763C42.1633 20.8009 41.9755 20.8605 41.7286 20.9137C41.4966 20.9638 41.0908 21.0352 40.5723 21.0352V15.0352V9.03516C39.5199 9.03516 38.6947 9.3041 38.3728 9.41475C37.9527 9.55916 37.586 9.72572 37.312 9.85969L39.9473 15.25ZM40.5723 15.0352V21.0352C39.8106 21.0352 38.13 20.8508 36.6649 19.4243C35.1701 17.9689 34.9434 16.2421 34.9434 15.3965H40.9434H46.9434C46.9434 14.31 46.6547 12.4025 45.0363 10.8267C43.4475 9.2797 41.5813 9.03516 40.5723 9.03516V15.0352ZM40.9434 15.3965H34.9434C34.9434 13.8385 35.5801 12.7117 36.0367 12.1158C36.4696 11.5509 36.8856 11.2599 37.0002 11.1822L40.3672 16.1484L43.7341 21.1147C44.3293 20.7112 46.9434 18.8903 46.9434 15.3965H40.9434ZM40.3672 16.1484L36.9775 11.1977C37.5544 10.8027 37.9031 10.8906 37.4961 10.8906V16.8906V22.8906C39.4719 22.8906 41.7347 22.4838 43.7569 21.0992L40.3672 16.1484ZM37.4961 16.8906V10.8906C37.3693 10.8906 37.2933 10.8873 37.26 10.8852C37.2446 10.8843 37.2456 10.884 37.261 10.8856C37.276 10.8872 37.3122 10.8914 37.3664 10.9002L36.4023 16.8223L35.4383 22.7443C36.1653 22.8627 36.8871 22.8906 37.4961 22.8906V16.8906ZM36.4023 16.8223L30.4501 16.0664C30.4493 16.0732 30.4516 16.0522 30.4651 16.0136C30.4789 15.9744 30.4967 15.9385 30.5131 15.9121C30.5289 15.8866 30.5327 15.8872 30.5088 15.9123C30.4839 15.9385 30.4258 15.9945 30.3179 16.0736L33.8633 20.9141L37.4087 25.7545C40.0568 23.8149 41.9142 21.0456 42.3545 17.5781L36.4023 16.8223ZM33.8633 20.9141L30.3132 16.077C30.2831 16.0991 30.0834 16.2348 29.5786 16.3809L31.2461 22.1445L32.9136 27.9082C34.4791 27.4553 36.0242 26.7707 37.4134 25.7511L33.8633 20.9141ZM31.2461 22.1445L29.5689 16.3837C29.103 16.5193 28.6011 16.5938 28.043 16.5938V22.5938V28.5938C29.6984 28.5938 31.3319 28.3687 32.9233 27.9053L31.2461 22.1445ZM28.043 22.5938V16.5938C27.2355 16.5938 26.7536 16.5268 26.5176 16.4741L25.2109 22.3301L23.9042 28.1861C25.2438 28.485 26.65 28.5938 28.043 28.5938V22.5938ZM25.2109 22.3301L26.4714 16.464C26.2154 16.409 26.1673 16.3618 26.2374 16.4039L23.1504 21.5488L20.0634 26.6938C21.3054 27.439 22.631 27.9127 23.9505 28.1962L25.2109 22.3301ZM26.6953 19.0586H20.6953C20.6953 20.2126 20.8741 22.1633 22.1782 23.9504C23.739 26.0893 26.0476 26.8652 28.0137 26.8652V20.8652V14.8652C28.4747 14.8652 29.1639 14.9448 29.9299 15.2947C30.7291 15.6598 31.3929 16.2207 31.8716 16.8768C32.3243 17.497 32.5212 18.0752 32.6077 18.4309C32.6932 18.7823 32.6953 19.0143 32.6953 19.0586H26.6953ZM28.0137 20.8652V26.8652C31.0592 26.8652 33.1421 25.1175 34.2906 23.6586L29.5762 19.9473L24.8617 16.2359C24.9557 16.1165 25.2441 15.7802 25.7849 15.4625C26.3707 15.1183 27.141 14.8652 28.0137 14.8652V20.8652ZM29.5762 19.9473L34.2662 23.6893C35.3265 22.3605 36.0214 20.8693 36.4639 19.3694L30.709 17.6719L24.9541 15.9744C24.8627 16.2844 24.8024 16.3101 24.8861 16.2052L29.5762 19.9473ZM30.709 17.6719L36.4525 19.4073C36.8946 17.9444 37.1191 16.4386 37.1191 14.9082H31.1191H25.1191C25.1191 15.2528 25.0703 15.5895 24.9655 15.9364L30.709 17.6719ZM31.1191 14.9082H37.1191C37.1191 13.9243 36.9812 12.1185 35.7959 10.4168C34.3359 8.32078 32.0994 7.49219 30.1328 7.49219V13.4922V19.4922C29.58 19.4922 28.807 19.3914 27.9743 18.9929C27.112 18.5802 26.4281 17.9631 25.9492 17.2756C25.0926 16.0459 25.1191 14.9481 25.1191 14.9082H31.1191ZM30.1328 13.4922V7.49219C27.493 7.49219 25.4978 8.78256 24.2202 10.0601L28.4629 14.3027L32.7055 18.5454C32.5087 18.7422 31.6268 19.4922 30.1328 19.4922V13.4922ZM28.4629 14.3027L24.1946 10.0859C22.9543 11.3414 22.1165 12.8142 21.5576 14.3007L27.1738 16.4121L32.7901 18.5235C32.8357 18.4022 32.8646 18.3565 32.8599 18.3641C32.8573 18.3683 32.8462 18.3859 32.8248 18.4136C32.8033 18.4414 32.7724 18.4778 32.7312 18.5196L28.4629 14.3027ZM27.1738 16.4121L21.5489 14.3241C20.9851 15.8428 20.6953 17.4315 20.6953 19.0586H26.6953H32.6953C32.6953 18.8758 32.7245 18.7002 32.7988 18.5002L27.1738 16.4121ZM50.7227 12.125V18.125H50.807L50.8914 18.1226L50.7227 12.125ZM54.541 12.0176V6.01758H54.4566L54.3723 6.01995L54.541 12.0176ZM54.9219 12.1738L50.2652 15.9574L50.3253 16.0314L50.3877 16.1034L54.9219 12.1738ZM54.5801 13.873L49.6783 10.4129L49.6732 10.4201L49.6681 10.4274L54.5801 13.873ZM51.709 15.9531L54.143 21.4373L54.1458 21.436L51.709 15.9531ZM47.9395 17.1445L46.7248 11.2688L48.8172 23.08L47.9395 17.1445ZM52.7148 19.2246L58.5142 20.7632L58.518 20.7488L58.5218 20.7344L52.7148 19.2246ZM54.5312 20.2891L56.6936 25.8859L56.7104 25.8794L56.7271 25.8728L54.5312 20.2891ZM56.7871 19.5273L52.9115 24.1077L53.0181 24.1979L53.1288 24.2831L56.7871 19.5273ZM56.4941 20.4453L59.9529 25.3481L59.978 25.3303L60.0029 25.3124L56.4941 20.4453ZM53.0762 22.0273L54.717 27.7986L54.7301 27.7949L54.7431 27.7911L53.0762 22.0273ZM47.373 22.2715L50.3793 17.0789L50.3449 17.059L50.3103 17.0396L47.373 22.2715ZM47.0215 20.0938L52.8152 21.6536L52.8177 21.6444L52.8201 21.6352L47.0215 20.0938ZM45.6738 17.4375L46.2001 11.4606L41.6191 11.0573L40.0391 15.376L45.6738 17.4375ZM44.4238 21.9297L38.4348 21.5667L38.4336 21.5863L38.4326 21.6058L44.4238 21.9297ZM43.9062 22.291V16.291H43.8422L43.7781 16.2924L43.9062 22.291ZM38.877 22.3984V28.3984H38.941L39.0051 28.3971L38.877 22.3984ZM38.6328 22.2617L34.3902 26.5044L38.6328 22.2617ZM39.1309 19.9766L33.4839 17.9487L33.479 17.9625L33.4741 17.9764L39.1309 19.9766ZM40.5176 16.1387L34.8866 14.0669L34.8823 14.0786L34.878 14.0903L40.5176 16.1387ZM41.9043 11.832L36.1323 10.1937L36.129 10.2054L36.1257 10.2171L41.9043 11.832ZM42.5391 8.50195H48.5391V8.39484L48.5352 8.2878L42.5391 8.50195ZM42.5293 8.22852H36.5293V8.33562L36.5331 8.44267L42.5293 8.22852ZM43.4766 7.74023V13.7402H43.4962L43.5159 13.7401L43.4766 7.74023ZM47.9492 7.71094V1.71094H47.9296L47.9099 1.71107L47.9492 7.71094ZM48.3105 7.85742L43.9242 11.9513L44.0654 12.1026L44.2166 12.2438L48.3105 7.85742ZM46.0156 16.5098L40.3878 14.4294L36.3981 25.2222L47.5315 22.3151L46.0156 16.5098ZM48.7793 15.0645L44.5785 10.7804L48.7793 15.0645ZM49.7852 12.9844H55.7852V12.9054L55.7831 12.8265L49.7852 12.9844ZM49.7754 12.6133H43.7754V12.6922L43.7775 12.7711L49.7754 12.6133ZM50.7227 12.125L50.8914 18.1226L54.7097 18.0152L54.541 12.0176L54.3723 6.01995L50.5539 6.12737L50.7227 12.125ZM54.541 12.0176V18.0176C54.0214 18.0176 53.2924 17.9385 52.4858 17.6077C51.6426 17.2617 50.8703 16.7021 50.2652 15.9574L54.9219 12.1738L59.5786 8.39027C58.0656 6.52815 56.0026 6.01758 54.541 6.01758V12.0176ZM54.9219 12.1738L50.3877 16.1034C49.5731 15.1634 49.0488 13.8946 49.0488 12.5059H55.0488H61.0488C61.0488 10.8697 60.44 9.37957 59.456 8.24424L54.9219 12.1738ZM55.0488 12.5059H49.0488C49.0488 11.5497 49.3914 10.8194 49.6783 10.4129L54.5801 13.873L59.4819 17.3331C60.3938 16.0413 61.0488 14.3995 61.0488 12.5059H55.0488ZM54.5801 13.873L49.6681 10.4274C49.81 10.2251 49.9457 10.118 49.9936 10.085L53.3984 15.0254L56.8033 19.9657C57.8147 19.2687 58.7382 18.3934 59.492 17.3187L54.5801 13.873ZM53.3984 15.0254L49.9936 10.085C49.8716 10.1691 49.6444 10.3048 49.2722 10.4703L51.709 15.9531L54.1458 21.436C55.0626 21.0285 55.9617 20.5457 56.8033 19.9657L53.3984 15.0254ZM51.709 15.9531L49.275 10.469C48.5409 10.7948 47.6972 11.0677 46.7248 11.2688L47.9395 17.1445L49.1542 23.0203C50.8901 22.6614 52.5593 22.1401 54.143 21.4373L51.709 15.9531ZM47.9395 17.1445L48.8172 23.08C49.5455 22.9723 50.0471 22.9395 50.3613 22.9395V16.9395V10.9395C49.2954 10.9395 48.1824 11.0433 47.0617 11.2091L47.9395 17.1445ZM50.3613 16.9395V22.9395C50.7563 22.9395 50.0331 23.0363 49.0381 22.4134C48.4539 22.0477 47.8335 21.4643 47.3908 20.6329C46.9565 19.8173 46.8418 19.0429 46.8418 18.4922H52.8418H58.8418C58.8418 16.0599 57.6965 13.6761 55.4053 12.2419C53.5834 11.1014 51.62 10.9395 50.3613 10.9395V16.9395ZM52.8418 18.4922H46.8418C46.8418 18.281 46.8551 18.1145 46.8661 18.0089C46.8774 17.8998 46.8902 17.8188 46.8982 17.7726C46.9132 17.6859 46.9222 17.6599 46.9079 17.7148L52.7148 19.2246L58.5218 20.7344C58.6288 20.3229 58.8418 19.4604 58.8418 18.4922H52.8418ZM52.7148 19.2246L46.9155 17.686C46.7757 18.213 46.5879 19.0463 46.5879 19.9961H52.5879H58.5879C58.5879 20.312 58.5555 20.5369 58.54 20.631C58.523 20.7345 58.509 20.783 58.5142 20.7632L52.7148 19.2246ZM52.5879 19.9961H46.5879C46.5879 21.1293 46.8753 23.0812 48.5015 24.7075C50.1277 26.3337 52.0797 26.6211 53.2129 26.6211V20.6211V14.6211C53.9294 14.6211 55.5689 14.8043 56.9868 16.2222C58.4047 17.6401 58.5879 19.2796 58.5879 19.9961H52.5879ZM53.2129 20.6211V26.6211C54.6808 26.6211 55.9833 26.1603 56.6936 25.8859L54.5312 20.2891L52.3689 14.6923C52.236 14.7436 52.2235 14.7407 52.3066 14.7198C52.3523 14.7083 52.4483 14.6859 52.5862 14.6654C52.7209 14.6454 52.9362 14.6211 53.2129 14.6211V20.6211ZM54.5312 20.2891L56.7271 25.8728C57.4058 25.6059 58.1458 25.287 58.8107 24.913L55.8691 19.6836L52.9276 14.4541C52.9672 14.4318 52.9433 14.4477 52.8265 14.5005C52.7158 14.5506 52.5553 14.6189 52.3354 14.7053L54.5312 20.2891ZM55.8691 19.6836L58.8107 24.913C58.8694 24.88 58.7804 24.9345 58.592 25.014C58.4957 25.0546 58.2956 25.1351 58.021 25.2123C57.7907 25.2771 57.2338 25.4199 56.4941 25.4199V19.4199V13.4199C55.1451 13.4199 54.1064 13.8822 53.9276 13.9577C53.5308 14.125 53.1814 14.3114 52.9276 14.4541L55.8691 19.6836ZM56.4941 19.4199V25.4199C55.183 25.4199 53.9081 24.951 52.9115 24.1077L56.7871 19.5273L60.6628 14.947C59.4968 13.9605 58.0266 13.4199 56.4941 13.4199V19.4199ZM56.7871 19.5273L53.1288 24.2831C50.9958 22.6423 50.9141 20.3816 50.9141 19.8887H56.9141H62.9141C62.9141 19.0442 62.7477 16.5426 60.4454 14.7716L56.7871 19.5273ZM56.9141 19.8887H50.9141C50.9141 18.2606 51.592 17.1076 52.0192 16.5414C52.4406 15.9827 52.8501 15.6757 52.9853 15.5783L56.4941 20.4453L60.0029 25.3124C60.4181 25.0131 61.0376 24.5124 61.599 23.7682C62.1661 23.0164 62.9141 21.686 62.9141 19.8887H56.9141ZM56.4941 20.4453L53.0354 15.5426C52.7219 15.7637 52.2139 16.0308 51.4092 16.2636L53.0762 22.0273L54.7431 27.7911C56.5947 27.2556 58.3654 26.468 59.9529 25.3481L56.4941 20.4453ZM53.0762 22.0273L51.4353 16.2561C50.4863 16.5259 49.8611 16.5938 49.502 16.5938V22.5938V28.5938C51.2522 28.5938 53.0098 28.284 54.717 27.7986L53.0762 22.0273ZM49.502 22.5938V16.5938C49.1549 16.5938 49.038 16.5742 49.0816 16.5808C49.1098 16.585 49.2363 16.6051 49.4294 16.6627C49.6128 16.7174 49.9605 16.8365 50.3793 17.0789L47.373 22.2715L44.3668 27.464C45.4964 28.118 46.6203 28.3449 47.2856 28.4456C48.0389 28.5596 48.8008 28.5938 49.502 28.5938V22.5938ZM47.373 22.2715L50.3103 17.0396C51.0434 17.4512 51.762 18.1149 52.2511 19.033C52.7181 19.9097 52.8164 20.7167 52.8164 21.2266H46.8164H40.8164C40.8164 23.4994 41.8597 26.0571 44.4358 27.5034L47.373 22.2715ZM46.8164 21.2266H52.8164C52.8164 21.4316 52.8028 21.5853 52.7937 21.669C52.7841 21.7567 52.7744 21.8118 52.7717 21.8266C52.7674 21.8506 52.7757 21.8001 52.8152 21.6536L47.0215 20.0938L41.2278 18.5339C41.0719 19.1129 40.8164 20.1376 40.8164 21.2266H46.8164ZM47.0215 20.0938L52.8201 21.6352C53.0042 20.9426 53.2266 19.9464 53.2266 18.873H47.2266H41.2266C41.2266 18.7236 41.2349 18.6097 41.2416 18.5399C41.2485 18.4686 41.2557 18.4235 41.2582 18.4088C41.2623 18.3843 41.2562 18.427 41.2229 18.5523L47.0215 20.0938ZM47.2266 18.873H53.2266C53.2266 17.1782 52.6711 15.0859 50.9115 13.4591C49.3103 11.9787 47.4384 11.5697 46.2001 11.4606L45.6738 17.4375L45.1476 23.4144C44.9444 23.3965 43.8489 23.2722 42.7652 22.2704C41.5232 21.1221 41.2266 19.702 41.2266 18.873H47.2266ZM45.6738 17.4375L40.0391 15.376C39.2817 17.4461 38.547 19.716 38.4348 21.5667L44.4238 21.9297L50.4128 22.2927C50.4007 22.4932 50.3857 22.3817 50.5558 21.7706C50.7071 21.2269 50.95 20.479 51.3086 19.499L45.6738 17.4375ZM44.4238 21.9297L38.4326 21.6058C38.5092 20.1882 39.1879 18.4414 40.8501 17.2809C42.2007 16.3381 43.4998 16.291 43.9062 16.291V22.291V28.291C44.6447 28.291 46.1961 28.1837 47.7192 27.1204C49.554 25.8396 50.3254 23.912 50.4151 22.2535L44.4238 21.9297ZM43.9062 22.291L43.7781 16.2924L38.7488 16.3998L38.877 22.3984L39.0051 28.3971L44.0344 28.2896L43.9062 22.291ZM38.877 22.3984V16.3984C40.1323 16.3984 41.1022 16.7979 41.6938 17.1292C42.2774 17.456 42.6684 17.8121 42.8755 18.0191L38.6328 22.2617L34.3902 26.5044C34.7846 26.8987 36.3413 28.3984 38.877 28.3984V22.3984ZM38.6328 22.2617L42.8755 18.0191C43.3933 18.537 43.8284 19.1782 44.12 19.9185C44.4078 20.649 44.5059 21.3474 44.5059 21.9395H38.5059H32.5059C32.5059 23.5069 33.0759 25.19 34.3902 26.5044L38.6328 22.2617ZM38.5059 21.9395H44.5059C44.5059 22.129 44.4967 22.2878 44.4874 22.4036C44.4779 22.5221 44.4662 22.6227 44.4559 22.7003C44.4358 22.8512 44.4137 22.9694 44.3998 23.0392C44.385 23.1134 44.3718 23.1709 44.3633 23.2062C44.3546 23.2429 44.3477 23.2694 44.3439 23.2835C44.3369 23.3098 44.3354 23.3139 44.3429 23.2886C44.3499 23.2653 44.3616 23.2271 44.3793 23.1715C44.4151 23.0589 44.4665 22.9035 44.5363 22.6987C44.6054 22.4959 44.6889 22.2559 44.7876 21.9768L39.1309 19.9766L33.4741 17.9764C33.2587 18.5855 33.0778 19.1133 32.9449 19.5307C32.8804 19.7332 32.8082 19.9692 32.7459 20.2035C32.7154 20.3183 32.6716 20.4913 32.6314 20.6929C32.6103 20.799 32.5059 21.3037 32.5059 21.9395H38.5059ZM39.1309 19.9766L44.7778 22.0045C45.1981 20.8339 45.6579 19.5615 46.1571 18.187L40.5176 16.1387L34.878 14.0903C34.3747 15.4762 33.9099 16.7624 33.4839 17.9487L39.1309 19.9766ZM40.5176 16.1387L46.1485 18.2104C46.7144 16.6724 47.2253 15.0841 47.6829 13.447L41.9043 11.832L36.1257 10.2171C35.7499 11.5618 35.3363 12.8445 34.8866 14.0669L40.5176 16.1387ZM41.9043 11.832L47.6763 13.4704C48.1205 11.9054 48.5391 10.1167 48.5391 8.50195H42.5391H36.5391C36.5391 8.34357 36.5556 8.39515 36.4865 8.75788C36.4233 9.08944 36.312 9.56057 36.1323 10.1937L41.9043 11.832ZM42.5391 8.50195L48.5352 8.2878L48.5255 8.01437L42.5293 8.22852L36.5331 8.44267L36.5429 8.7161L42.5391 8.50195ZM42.5293 8.22852H48.5293C48.5293 9.16029 48.2884 10.25 47.6268 11.273C46.9838 12.2673 46.1619 12.8621 45.5152 13.1955C44.3965 13.7721 43.4814 13.7402 43.4766 13.7402V7.74023V1.74023C42.8402 1.74023 41.4515 1.78972 40.0171 2.52914C39.2124 2.94388 38.2721 3.64041 37.5502 4.75678C36.8097 5.9019 36.5293 7.13398 36.5293 8.22852H42.5293ZM43.4766 7.74023L43.5159 13.7401L47.9885 13.7108L47.9492 7.71094L47.9099 1.71107L43.4373 1.74036L43.4766 7.74023ZM47.9492 7.71094V13.7109C47.3677 13.7109 46.6539 13.6146 45.8976 13.308C45.1261 12.9952 44.4571 12.5223 43.9242 11.9513L48.3105 7.85742L52.6969 3.76351C51.3277 2.29657 49.5398 1.71094 47.9492 1.71094V7.71094ZM48.3105 7.85742L44.2166 12.2438C43.3703 11.4538 42.457 10.0511 42.457 8.16016H48.457H54.457C54.457 6.04788 53.4461 4.4433 52.4045 3.47109L48.3105 7.85742ZM48.457 8.16016H42.457C42.457 7.85483 42.4901 7.68647 42.48 7.74907C42.4747 7.78211 42.4551 7.8908 42.407 8.09517C42.3101 8.50648 42.1428 9.11574 41.8834 9.95721L47.6172 11.7246L53.351 13.492C53.6515 12.5171 53.9041 11.6241 54.0872 10.8472C54.239 10.2026 54.457 9.18608 54.457 8.16016H48.457ZM47.6172 11.7246L41.8834 9.95721C41.347 11.6974 40.8482 13.1841 40.3878 14.4294L46.0156 16.5098L51.6434 18.5902C52.1987 17.0881 52.7676 15.3846 53.351 13.492L47.6172 11.7246ZM46.0156 16.5098L47.5315 22.3151C49.4292 21.8196 51.3762 20.9212 52.9801 19.3485L48.7793 15.0645L44.5785 10.7804C44.6404 10.7197 44.6955 10.6755 44.7372 10.6456C44.7785 10.6161 44.8033 10.603 44.8049 10.6021C44.8055 10.6018 44.7171 10.6476 44.4998 10.7044L46.0156 16.5098ZM48.7793 15.0645L52.9801 19.3485C54.4538 17.9034 55.7852 15.7545 55.7852 12.9844H49.7852H43.7852C43.7852 12.3936 43.9286 11.8601 44.1321 11.4392C44.3232 11.044 44.5249 10.8329 44.5785 10.7804L48.7793 15.0645ZM49.7852 12.9844L55.7831 12.8265L55.7733 12.4554L49.7754 12.6133L43.7775 12.7711L43.7872 13.1422L49.7852 12.9844ZM49.7754 12.6133H55.7754C55.7754 13.5451 55.5345 14.6347 54.8729 15.6578C54.2299 16.6521 53.408 17.2469 52.7613 17.5802C51.6426 18.1569 50.7275 18.125 50.7227 18.125V12.125V6.125C50.0863 6.125 48.6976 6.17449 47.2631 6.9139C46.4585 7.32865 45.5182 8.02517 44.7963 9.14154C44.0558 10.2867 43.7754 11.5188 43.7754 12.6133H49.7754ZM72.4551 20.3281L75.4438 25.5308L75.4611 25.5208L75.4783 25.5108L72.4551 20.3281ZM71.3125 20.9043L73.7421 26.3904L73.7746 26.376L73.8071 26.3611L71.3125 20.9043ZM69.4277 21.627L67.4477 15.9631L67.4465 15.9635L69.4277 21.627ZM57.8359 15.0156L53.1883 11.221L53.1856 11.2243L57.8359 15.0156ZM61.2051 12.6621L63.3572 18.2629L63.3685 18.2585L63.3798 18.2541L61.2051 12.6621ZM69.4473 12.6133L66.1093 17.5991L66.119 17.6056L66.1288 17.612L69.4473 12.6133ZM69.4961 16.998L65.7782 12.2888L65.7681 12.2967L65.7581 12.3047L69.4961 16.998ZM66.5566 18.3066L67.9171 24.1504L67.9239 24.1488L66.5566 18.3066ZM62.3281 18.9121L61.8867 12.9284L55.7255 13.3829L56.3598 19.5282L62.3281 18.9121ZM64.4961 20.7969L63.4077 26.6973L63.4496 26.7051L63.4916 26.7122L64.4961 20.7969ZM72.1816 19.5078L74.0089 25.2228L74.044 25.2116L74.079 25.1999L72.1816 19.5078ZM62.3379 17.8379L56.3572 17.3567L55.6697 25.9015L63.9335 23.6218L62.3379 17.8379ZM64.0762 13.6875L60.3497 8.98502L60.3278 9.00234L60.3061 9.01985L64.0762 13.6875ZM63.2168 14.7617L68.4984 17.6086L68.509 17.5888L68.5195 17.569L63.2168 14.7617ZM72.582 19.4199V25.4199C71.8562 25.4199 70.196 25.2555 68.7223 23.866C67.1823 22.4141 66.9238 20.6528 66.9238 19.7422H72.9238H78.9238C78.9238 18.6167 78.6084 16.6943 76.9545 15.135C75.3668 13.6381 73.5357 13.4199 72.582 13.4199V19.4199ZM72.9238 19.7422H66.9238C66.9238 18.2253 67.5254 17.0418 68.1214 16.2968C68.6611 15.6221 69.2109 15.2743 69.4319 15.1455L72.4551 20.3281L75.4783 25.5108C76.2537 25.0585 78.9238 23.3055 78.9238 19.7422H72.9238ZM72.4551 20.3281L69.4663 15.1255C69.3721 15.1796 69.1688 15.2871 68.8179 15.4474L71.3125 20.9043L73.8071 26.3611C74.3677 26.1049 74.9261 25.8282 75.4438 25.5308L72.4551 20.3281ZM71.3125 20.9043L68.8829 15.4182C68.6413 15.5252 68.1857 15.7051 67.4477 15.9631L69.4277 21.627L71.4078 27.2908C72.2713 26.9889 73.0722 26.687 73.7421 26.3904L71.3125 20.9043ZM69.4277 21.627L67.4465 15.9635C66.3475 16.3479 64.9537 16.5938 63.1875 16.5938V22.5938V28.5938C66.0567 28.5938 68.823 28.195 71.4089 27.2904L69.4277 21.627ZM63.1875 22.5938V16.5938C62.3767 16.5938 61.8344 16.5298 61.505 16.4622C61.1684 16.3932 61.184 16.347 61.3809 16.4682C61.6178 16.6139 61.9912 16.9283 62.2743 17.4509C62.5504 17.9607 62.5859 18.3829 62.5859 18.5312H56.5859H50.5859C50.5859 21.8471 52.1156 24.8566 55.0917 26.6881C57.5901 28.2255 60.5665 28.5938 63.1875 28.5938V22.5938ZM56.5859 18.5312H62.5859C62.5859 18.5172 62.587 18.5274 62.582 18.557C62.577 18.5871 62.5675 18.6268 62.5517 18.6712C62.5359 18.7156 62.518 18.7529 62.5023 18.7805C62.4869 18.8076 62.4787 18.8163 62.4863 18.807L57.8359 15.0156L53.1856 11.2243C51.4773 13.3196 50.5859 15.8314 50.5859 18.5312H56.5859ZM57.8359 15.0156L62.4836 18.8102C62.5782 18.6944 62.7925 18.4799 63.3572 18.2629L61.2051 12.6621L59.0529 7.06137C56.8052 7.9251 54.7734 9.27951 53.1883 11.221L57.8359 15.0156ZM61.2051 12.6621L63.3798 18.2541C64.0263 18.0027 64.8138 17.8418 65.8047 17.8418V11.8418V5.8418C63.4753 5.8418 61.1963 6.22778 59.0304 7.07008L61.2051 12.6621ZM65.8047 11.8418V17.8418C66.0671 17.8418 66.2741 17.8521 66.4315 17.8661C66.59 17.8803 66.6815 17.8969 66.7173 17.9045C66.754 17.9122 66.7116 17.9062 66.6115 17.8673C66.5107 17.828 66.3309 17.7474 66.1093 17.5991L69.4473 12.6133L72.7852 7.62749C70.5158 6.10811 67.8307 5.8418 65.8047 5.8418V11.8418ZM69.4473 12.6133L66.1288 17.612C65.8326 17.4154 65.3986 17.0349 65.058 16.4138C64.7128 15.7844 64.6094 15.1733 64.6094 14.7324H70.6094H76.6094C76.6094 11.7406 75.1448 9.19391 72.7658 7.61453L69.4473 12.6133ZM70.6094 14.7324H64.6094C64.6094 14.3691 64.6883 13.8706 64.9461 13.3461C65.2017 12.8258 65.5342 12.4814 65.7782 12.2888L69.4961 16.998L73.214 21.7073C75.359 20.0139 76.6094 17.5416 76.6094 14.7324H70.6094ZM69.4961 16.998L65.7581 12.3047C65.8388 12.2405 65.8586 12.2435 65.7693 12.2833C65.6777 12.324 65.4942 12.3932 65.1893 12.4645L66.5566 18.3066L67.9239 24.1488C69.7362 23.7246 71.6102 22.9847 73.2341 21.6914L69.4961 16.998ZM66.5566 18.3066L65.1962 12.4629C64.334 12.6636 63.2416 12.8284 61.8867 12.9284L62.3281 18.9121L62.7696 24.8958C64.5917 24.7614 66.3184 24.5226 67.9171 24.1504L66.5566 18.3066ZM62.3281 18.9121L56.3598 19.5282C56.5581 21.4484 57.4284 23.2917 59.0117 24.6682C60.4553 25.9232 62.1054 26.4571 63.4077 26.6973L64.4961 20.7969L65.5845 14.8964C65.591 14.8976 65.7287 14.9227 65.9497 15.0165C66.1752 15.1122 66.5169 15.2922 66.8848 15.6121C67.7455 16.3603 68.2024 17.3849 68.2964 18.296L62.3281 18.9121ZM64.4961 20.7969L63.4916 26.7122C64.1988 26.8323 64.9013 26.8848 65.5898 26.8848V20.8848V14.8848C65.5102 14.8848 65.4835 14.8787 65.5006 14.8816L64.4961 20.7969ZM65.5898 20.8848V26.8848C68.0798 26.8848 71.0066 26.1827 74.0089 25.2228L72.1816 19.5078L70.3544 13.7928C67.6145 14.6688 66.1468 14.8848 65.5898 14.8848V20.8848ZM72.1816 19.5078L74.079 25.1999C74.0317 25.2157 73.8976 25.259 73.7 25.3024C73.5314 25.3394 73.1259 25.4199 72.582 25.4199V19.4199V13.4199C71.4749 13.4199 70.5754 13.7187 70.2843 13.8157L72.1816 19.5078ZM62.3379 17.8379L63.9335 23.6218C65.7824 23.1118 67.665 22.2147 69.2234 20.6872L65.0234 16.4023L60.8234 12.1175C60.8807 12.0613 60.9313 12.0205 60.9694 11.993C61.0071 11.9657 61.0295 11.9536 61.0304 11.9532C61.031 11.9529 61.0101 11.964 60.9626 11.9826C60.915 12.0011 60.8429 12.0262 60.7423 12.0539L62.3379 17.8379ZM65.0234 16.4023L69.2234 20.6872C71.019 18.9272 72.0098 16.6104 72.0098 14.0684H66.0098H60.0098C60.0098 13.7859 60.0645 13.4068 60.2364 12.9999C60.4079 12.5942 60.6368 12.3004 60.8234 12.1175L65.0234 16.4023ZM66.0098 14.0684H72.0098C72.0098 12.3989 71.4009 10.5095 69.8297 9.06926L65.7754 13.4922L61.721 17.9151C61.1592 17.4001 60.6968 16.7503 60.3934 16.0044C60.0971 15.2761 60.0098 14.5992 60.0098 14.0684H66.0098ZM65.7754 13.4922L69.8297 9.06926C68.122 7.50383 66.144 7.27734 65.0625 7.27734V13.2773V19.2773C64.619 19.2773 63.1163 19.1941 61.721 17.9151L65.7754 13.4922ZM65.0625 13.2773V7.27734C62.9397 7.27734 61.3302 8.208 60.3497 8.98502L64.0762 13.6875L67.8027 18.39C67.5122 18.6201 66.5603 19.2773 65.0625 19.2773V13.2773ZM64.0762 13.6875L60.3061 9.01985C59.2479 9.87463 58.4713 10.9019 57.9141 11.9544L63.2168 14.7617L68.5195 17.569C68.431 17.7362 68.2274 18.0472 67.8462 18.3551L64.0762 13.6875ZM63.2168 14.7617L57.9352 11.9149C57.0118 13.628 56.509 15.4705 56.3572 17.3567L62.3379 17.8379L68.3186 18.3191C68.3491 17.9396 68.4322 17.7314 68.4984 17.6086L63.2168 14.7617ZM91.9316 20.3477L88.482 15.4385L88.4502 15.4608L88.4187 15.4836L91.9316 20.3477ZM90.8867 20.9336L93.4156 26.3746L93.447 26.36L93.4781 26.3451L90.8867 20.9336ZM89.1582 21.6465L87.0399 16.0329L87.031 16.0362L87.0222 16.0396L89.1582 21.6465ZM86.7754 22.3105L85.5906 16.4287L85.566 16.4336L85.5415 16.4388L86.7754 22.3105ZM82.2734 18.1992L76.7915 15.7601L76.7866 15.7714L82.2734 18.1992ZM80.5059 14.498L79.3292 8.61456L75.7338 9.33364L74.7335 12.8611L80.5059 14.498ZM79.1777 18.6582L73.4895 16.7492L73.4866 16.7579L73.4837 16.7667L79.1777 18.6582ZM78.1035 21.9004L72.3973 20.0459L72.3762 20.1109L72.3566 20.1763L78.1035 21.9004ZM77.5859 22.291V16.291H77.5219L77.4578 16.2924L77.5859 22.291ZM72.5566 22.3984V28.3984H72.6207L72.6848 28.3971L72.5566 22.3984ZM72.3125 22.2617L68.0699 26.5044L72.3125 22.2617ZM72.5957 20.6797L66.988 18.5458L66.9828 18.5594L66.9777 18.5729L72.5957 20.6797ZM73.5137 18.3164L67.9428 16.0881L67.9383 16.0992L67.9339 16.1105L73.5137 18.3164ZM74.4316 15.5332L68.6474 13.9388L68.6439 13.9514L68.6405 13.964L74.4316 15.5332ZM74.8516 13.0137H80.8516V12.9347L80.8495 12.8558L74.8516 13.0137ZM74.8418 12.6426H68.8418V12.7215L68.8439 12.8004L74.8418 12.6426ZM75.7891 12.1543V18.1543H75.8587L75.9283 18.1527L75.7891 12.1543ZM80.418 12.0469V6.04688H80.3484L80.2788 6.04849L80.418 12.0469ZM80.7988 12.2031L76.1421 15.9867L76.2023 16.0607L76.2647 16.1327L80.7988 12.2031ZM80.8184 13.2773L74.9585 11.9882L72.4781 23.2625L83.1305 18.8139L80.8184 13.2773ZM88.1719 12.3594L84.8291 17.342L84.8306 17.3429L88.1719 12.3594ZM89.5 20.2207L91.2752 25.9521L91.291 25.9472L91.3068 25.9422L89.5 20.2207ZM91.1406 19.6445L88.8258 14.1091L88.8076 14.1167L88.7895 14.1244L91.1406 19.6445ZM91.9316 19.4199V25.4199C91.2078 25.4199 89.5496 25.2549 88.0794 23.8642C86.5468 22.4144 86.293 20.6604 86.293 19.7617H92.293H98.293C98.293 18.6351 97.979 16.7103 96.3258 15.1466C94.7352 13.6419 92.8964 13.4199 91.9316 13.4199V19.4199ZM92.293 19.7617H86.293C86.293 18.7181 86.5945 17.7375 87.0956 16.9249C87.5652 16.1634 88.1172 15.6948 88.482 15.4385L91.9316 20.3477L95.3813 25.2568C96.6414 24.3714 98.293 22.5519 98.293 19.7617H92.293ZM91.9316 20.3477L88.4187 15.4836C88.4855 15.4353 88.5325 15.4053 88.5519 15.3931C88.5723 15.3803 88.5763 15.3786 88.56 15.3877C88.5442 15.3966 88.5146 15.4128 88.4689 15.4362C88.4235 15.4596 88.3661 15.4882 88.2953 15.5221L90.8867 20.9336L93.4781 26.3451C94.0571 26.0679 94.78 25.6917 95.4446 25.2117L91.9316 20.3477ZM90.8867 20.9336L88.3578 15.4926C88.075 15.624 87.6465 15.804 87.0399 16.0329L89.1582 21.6465L91.2766 27.2601C92.0501 26.9682 92.774 26.6728 93.4156 26.3746L90.8867 20.9336ZM89.1582 21.6465L87.0222 16.0396C86.7153 16.1565 86.2512 16.2956 85.5906 16.4287L86.7754 22.3105L87.9602 28.1924C89.1094 27.9609 90.2339 27.6573 91.2942 27.2534L89.1582 21.6465ZM86.7754 22.3105L85.5415 16.4388C85.0015 16.5523 84.5573 16.5938 84.1973 16.5938V22.5938V28.5938C85.4779 28.5938 86.7524 28.4464 88.0093 28.1823L86.7754 22.3105ZM84.1973 22.5938V16.5938C83.5001 16.5938 83.8173 16.4847 84.52 16.8065C84.9459 17.0015 85.6907 17.4387 86.329 18.3155C87.0143 19.2569 87.2969 20.3227 87.2969 21.2656H81.2969H75.2969C75.2969 22.6513 75.7003 24.1044 76.6273 25.3778C77.5073 26.5867 78.6146 27.3006 79.5239 27.717C81.1934 28.4815 82.9608 28.5938 84.1973 28.5938V22.5938ZM81.2969 21.2656H87.2969C87.2969 21.4724 87.2826 21.6338 87.2703 21.7373C87.2577 21.8429 87.2439 21.9163 87.2367 21.9515C87.2237 22.0155 87.2226 22.0015 87.2581 21.8901C87.3314 21.6598 87.4838 21.252 87.7603 20.627L82.2734 18.1992L76.7866 15.7714C76.412 16.6178 76.0761 17.4567 75.8239 18.2486C75.6071 18.9295 75.2969 20.0376 75.2969 21.2656H81.2969ZM82.2734 18.1992L87.7553 20.6383C88.1269 19.8032 88.46 18.9844 88.7108 18.2243C88.9123 17.6141 89.2598 16.4759 89.2598 15.2109H83.2598H77.2598C77.2598 14.9644 77.2788 14.7732 77.294 14.6559C77.3097 14.5351 77.3267 14.4507 77.3354 14.4109C77.3512 14.3381 77.3536 14.3478 77.3155 14.4631C77.2376 14.6992 77.0775 15.1174 76.7916 15.7601L82.2734 18.1992ZM83.2598 15.2109H89.2598C89.2598 13.0676 88.2602 10.8535 86.1558 9.50611C84.5078 8.45097 82.8024 8.3418 81.9023 8.3418V14.3418V20.3418C81.827 20.3418 81.5881 20.3374 81.2438 20.264C80.9044 20.1915 80.3268 20.0229 79.6851 19.6121C79.0028 19.1752 78.3265 18.5109 77.8529 17.6013C77.3894 16.711 77.2598 15.855 77.2598 15.2109H83.2598ZM81.9023 14.3418V8.3418C81.0013 8.3418 80.1307 8.45426 79.3292 8.61456L80.5059 14.498L81.6826 20.3815C81.7962 20.3588 81.8717 20.3482 81.9128 20.3437C81.9544 20.339 81.9488 20.3418 81.9023 20.3418V14.3418ZM80.5059 14.498L74.7335 12.8611C74.5279 13.5862 74.1245 14.8574 73.4895 16.7492L79.1777 18.6582L84.8659 20.5673C85.5071 18.6569 85.9891 17.1547 86.2782 16.135L80.5059 14.498ZM79.1777 18.6582L73.4837 16.7667C72.8567 18.6542 72.4897 19.7615 72.3973 20.0459L78.1035 21.9004L83.8097 23.7549C83.8866 23.5185 84.2358 22.4643 84.8718 20.5497L79.1777 18.6582ZM78.1035 21.9004L72.3566 20.1763C72.5887 19.4025 73.1319 18.2867 74.3011 17.4042C75.4805 16.5141 76.7275 16.291 77.5859 16.291V22.291V28.291C78.7113 28.291 80.178 28.0029 81.53 26.9825C82.8717 25.9699 83.5402 24.6587 83.8505 23.6245L78.1035 21.9004ZM77.5859 22.291L77.4578 16.2924L72.4285 16.3998L72.5566 22.3984L72.6848 28.3971L77.7141 28.2896L77.5859 22.291ZM72.5566 22.3984V16.3984C73.812 16.3984 74.7818 16.7979 75.3735 17.1292C75.957 17.456 76.3481 17.8121 76.5551 18.0191L72.3125 22.2617L68.0699 26.5044C68.4642 26.8987 70.021 28.3984 72.5566 28.3984V22.3984ZM72.3125 22.2617L76.5551 18.0191C77.0118 18.4757 77.4432 19.0694 77.7505 19.8022C78.0588 20.5375 78.1855 21.278 78.1855 21.959H72.1855H66.1855C66.1855 23.7052 66.887 25.3215 68.0699 26.5044L72.3125 22.2617ZM72.1855 21.959H78.1855C78.1855 22.2154 78.1685 22.4246 78.1539 22.5635C78.1386 22.7079 78.1203 22.827 78.1057 22.9122C78.0774 23.0774 78.0482 23.1996 78.0341 23.2566C78.0061 23.3689 77.9878 23.4214 78.0016 23.3782C78.0265 23.3005 78.0902 23.1158 78.2137 22.7864L72.5957 20.6797L66.9777 18.5729C66.8278 18.9727 66.6864 19.3658 66.5746 19.7146C66.52 19.8846 66.4504 20.1125 66.3883 20.3623C66.3651 20.4557 66.1855 21.1295 66.1855 21.959H72.1855ZM72.5957 20.6797L78.2034 22.8136C78.473 22.1052 78.7695 21.3416 79.0934 20.5224L73.5137 18.3164L67.9339 16.1105C67.5938 16.9709 67.2783 17.7828 66.988 18.5458L72.5957 20.6797ZM73.5137 18.3164L79.0845 20.5448C79.5206 19.4546 79.8973 18.3036 80.2228 17.1024L74.4316 15.5332L68.6405 13.964C68.4191 14.7811 68.1838 15.4855 67.9428 16.0881L73.5137 18.3164ZM74.4316 15.5332L80.2159 17.1276C80.5658 15.8583 80.8516 14.436 80.8516 13.0137H74.8516H68.8516C68.8516 12.9382 68.8582 12.9753 68.8282 13.1552C68.7992 13.329 68.7445 13.5864 68.6474 13.9388L74.4316 15.5332ZM74.8516 13.0137L80.8495 12.8558L80.8397 12.4847L74.8418 12.6426L68.8439 12.8004L68.8536 13.1715L74.8516 13.0137ZM74.8418 12.6426H80.8418C80.8418 13.5743 80.6009 14.664 79.9393 15.6871C79.2963 16.6814 78.4744 17.2762 77.8277 17.6095C76.709 18.1862 75.7939 18.1543 75.7891 18.1543V12.1543V6.1543C75.1527 6.1543 73.764 6.20379 72.3296 6.9432C71.5249 7.35795 70.5846 8.05447 69.8627 9.17084C69.1222 10.316 68.8418 11.548 68.8418 12.6426H74.8418ZM75.7891 12.1543L75.9283 18.1527L80.5572 18.0453L80.418 12.0469L80.2788 6.04849L75.6499 6.15591L75.7891 12.1543ZM80.418 12.0469V18.0469C79.8984 18.0469 79.1693 17.9678 78.3628 17.6369C77.5195 17.291 76.7473 16.7314 76.1421 15.9867L80.7988 12.2031L85.4555 8.41957C83.9425 6.55745 81.8796 6.04688 80.418 6.04688V12.0469ZM80.7988 12.2031L76.2647 16.1327C75.2562 14.9691 74.9258 13.6253 74.9258 12.5742H80.9258H86.9258C86.9258 11.2236 86.5107 9.63248 85.333 8.27354L80.7988 12.2031ZM80.9258 12.5742H74.9258C74.9258 12.3718 74.9378 12.2171 74.9459 12.1323C74.9544 12.042 74.9635 11.979 74.9677 11.9513C74.9755 11.9003 74.9766 11.9058 74.9585 11.9882L80.8184 13.2773L86.6782 14.5665C86.7532 14.2259 86.9258 13.4301 86.9258 12.5742H80.9258ZM80.8184 13.2773L83.1305 18.8139C85.1247 17.9811 86.1498 17.8418 86.4629 17.8418V11.8418V5.8418C83.8333 5.8418 81.0954 6.65947 78.5062 7.74075L80.8184 13.2773ZM86.4629 11.8418V17.8418C86.2158 17.8418 85.9265 17.8065 85.6198 17.7136C85.3126 17.6206 85.0457 17.4873 84.8291 17.342L88.1719 12.3594L91.5146 7.3768C90.0021 6.36206 88.2668 5.8418 86.4629 5.8418V11.8418ZM88.1719 12.3594L84.8306 17.3429C84.2994 16.9868 83.7822 16.444 83.4319 15.7316C83.0961 15.0485 83.0312 14.4504 83.0312 14.1074H89.0312H95.0312C95.0312 11.6356 93.9897 9.03621 91.5131 7.3758L88.1719 12.3594ZM89.0312 14.1074H83.0312C83.0312 13.9338 83.0473 13.8219 83.0533 13.7849C83.0596 13.7469 83.06 13.7595 83.0398 13.8293C82.9969 13.9779 82.896 14.2651 82.6873 14.7116L88.123 17.252L93.5587 19.7923C94.2883 18.2311 95.0312 16.2263 95.0312 14.1074H89.0312ZM88.123 17.252L82.6873 14.7116C82.3568 15.419 82.0581 16.0981 81.8296 16.7025C81.7161 17.0026 81.5897 17.3635 81.4842 17.749C81.4055 18.0369 81.2148 18.7635 81.2148 19.6543H87.2148H93.2148C93.2148 19.8772 93.2014 20.0645 93.1869 20.2051C93.1722 20.3477 93.154 20.4668 93.1381 20.5572C93.1072 20.7323 93.0748 20.8575 93.059 20.9151C93.0501 20.9477 93.0429 20.9718 93.0385 20.9862C93.034 21.0008 93.0314 21.0086 93.0312 21.0089C93.0311 21.0094 93.0328 21.0043 93.0367 20.9933C93.0407 20.9823 93.0464 20.9666 93.0542 20.946C93.0875 20.858 93.1438 20.7178 93.2312 20.516C93.3175 20.317 93.4257 20.0769 93.5587 19.7923L88.123 17.252ZM87.2148 19.6543H81.2148C81.2148 20.5925 81.3748 22.4053 82.7005 24.0713C84.2343 25.9989 86.3611 26.5625 87.9375 26.5625V20.5625V14.5625C89.0321 14.5625 90.7976 14.9747 92.0906 16.5996C93.1753 17.9629 93.2148 19.3216 93.2148 19.6543H87.2148ZM87.9375 20.5625V26.5625C89.2588 26.5625 90.5764 26.1685 91.2752 25.9521L89.5 20.2207L87.7248 14.4893C87.5957 14.5293 87.4928 14.5591 87.4136 14.5806C87.3332 14.6025 87.2889 14.6127 87.2754 14.6157C87.2588 14.6193 87.3006 14.6094 87.3882 14.5973C87.434 14.591 87.502 14.5827 87.5887 14.5759C87.6743 14.5691 87.7927 14.5625 87.9375 14.5625V20.5625ZM89.5 20.2207L91.3068 25.9422C92.0858 25.6962 92.8611 25.4333 93.4918 25.1647L91.1406 19.6445L88.7895 14.1244C88.7903 14.124 88.784 14.1267 88.7693 14.1326C88.7549 14.1384 88.7343 14.1465 88.7069 14.1569C88.6514 14.178 88.5763 14.2056 88.4787 14.2398C88.2817 14.309 88.0226 14.3952 87.6932 14.4992L89.5 20.2207ZM91.1406 19.6445L93.4555 25.18C93.4967 25.1627 93.4163 25.1995 93.2458 25.2479C93.1562 25.2734 93.0065 25.3121 92.8094 25.3462C92.6196 25.379 92.3155 25.4199 91.9316 25.4199V19.4199V13.4199C90.4523 13.4199 89.2099 13.9484 88.8258 14.1091L91.1406 19.6445Z" fill="white" mask="url(#path-4-outside-1_2004_58)"/>
</g>
<g clip-path="url(#clip0_2004_58)">
<path d="M115.723 92.8329C117.754 89.3429 119.323 86.6794 120.8 84.1078C121.354 83.1894 121.816 82.271 122.462 81.4444C123.293 80.2504 124.216 78.5972 125.97 79.5157C127.631 80.4341 126.893 82.1791 126.431 83.4649C126.062 84.8426 125.324 86.2202 124.677 87.506C121.816 93.4758 118.862 99.4456 115.908 105.324C115.077 106.885 114.339 108.538 113.231 109.916C111.016 112.855 108.8 112.671 107.139 109.457C104.923 105.14 102.892 100.731 100.862 96.323C99.9385 94.4861 99.0154 92.5574 98.3692 90.6287C98 89.5266 98.0923 88.2408 98 87.0468C100.585 86.6794 101.139 88.1489 101.785 89.4347C103.539 92.6492 105.2 95.9556 106.954 99.1701C107.6 100.272 108.246 101.466 109.723 102.568C109.908 100.915 110.185 99.3538 110.277 97.7006C110.923 85.3018 111.569 72.9948 112.216 60.596C113.139 42.5947 114.062 24.6853 115.077 6.68401C115.17 5.21452 115.723 3.74503 116.185 2C118.677 3.65318 118.123 5.58189 118.031 7.14323C117.847 15.9602 117.477 24.869 117.2 33.6859C116.554 52.6974 115.908 71.709 115.262 90.7205C115.354 91.1797 115.446 91.4553 115.723 92.8329Z" fill="#260004"/>
</g>
<defs>
<filter id="filter0_d_2004_58" x="0.605469" y="0.710938" width="99.6875" height="30.8828" filterUnits="userSpaceOnUse" color-interpolation-filters="sRGB">
<feFlood flood-opacity="0" result="BackgroundImageFix"/>
<feColorMatrix in="SourceAlpha" type="matrix" values="0 0 0 0 0 0 0 0 0 0 0 0 0 0 0 0 0 0 127 0" result="hardAlpha"/>
<feOffset dy="1"/>
<feGaussianBlur stdDeviation="1"/>
<feComposite in2="hardAlpha" operator="out"/>
<feColorMatrix type="matrix" values="0 0 0 0 0 0 0 0 0 0 0 0 0 0 0 0 0 0 0.2 0"/>
<feBlend mode="normal" in2="BackgroundImageFix" result="effect1_dropShadow_2004_58"/>
<feBlend mode="normal" in="SourceGraphic" in2="effect1_dropShadow_2004_58" result="shape"/>
</filter>
<linearGradient id="paint0_linear_2004_58" x1="17.1697" y1="65.7028" x2="70.1724" y2="65.7028" gradientUnits="userSpaceOnUse">
<stop stop-color="#FE1D37"/>
</linearGradient>
<linearGradient id="paint1_linear_2004_58" x1="17.1697" y1="65.7028" x2="70.1724" y2="65.7028" gradientUnits="userSpaceOnUse">
<stop stop-color="#FE1D37"/>
</linearGradient>
<linearGradient id="paint2_linear_2004_58" x1="17.1697" y1="65.7028" x2="70.1724" y2="65.7028" gradientUnits="userSpaceOnUse">
<stop stop-color="#FE1D37"/>
</linearGradient>
<linearGradient id="paint3_linear_2004_58" x1="17.1697" y1="65.7028" x2="70.1724" y2="65.7028" gradientUnits="userSpaceOnUse">
<stop stop-color="#FE1D37"/>
</linearGradient>
<linearGradient id="paint4_linear_2004_58" x1="17.1697" y1="65.7028" x2="70.1724" y2="65.7028" gradientUnits="userSpaceOnUse">
<stop stop-color="#FE1D37"/>
</linearGradient>
<linearGradient id="paint5_linear_2004_58" x1="2" y1="91.2581" x2="23.0132" y2="91.2581" gradientUnits="userSpaceOnUse">
<stop stop-color="#FE1D37"/>
<stop offset="1" stop-color="#FF8F94"/>
</linearGradient>
<linearGradient id="paint6_linear_2004_58" x1="74.9934" y1="47.345" x2="98.2186" y2="47.345" gradientUnits="userSpaceOnUse">
<stop stop-color="#FE1D37"/>
<stop offset="1" stop-color="#FF8F94"/>
</linearGradient>
<clipPath id="clip0_2004_58">
<rect width="110" height="29" fill="white" transform="matrix(0 -1 1 0 98 112)"/>
</clipPath>
</defs>
</svg>
