<svg width="180" height="180" viewBox="0 0 180 180" fill="none" xmlns="http://www.w3.org/2000/svg">
<circle cx="90" cy="90" r="88.5" fill="white" stroke="#FF8F94" stroke-width="3"/>
<path d="M38.391 153V151.32H40.631V144.782H38.741V143.494C39.791 143.312 40.491 143.046 41.149 142.626H42.675V151.32H44.621V153H38.391ZM46.8028 153V151.81C49.6308 149.29 51.2828 147.344 51.2828 145.734C51.2828 144.712 50.7228 144.068 49.7288 144.068C48.9728 144.068 48.3568 144.558 47.8388 145.132L46.6908 144.026C47.6568 142.99 48.5808 142.444 49.9948 142.444C51.9548 142.444 53.2568 143.704 53.2568 145.636C53.2568 147.512 51.6888 149.528 49.7988 151.39C50.3308 151.32 51.0168 151.264 51.5068 151.264H53.7468V153H46.8028ZM59.5546 151.656C59.5546 150.592 59.5546 144.796 59.5546 143.606C59.5546 143.116 59.5126 142.416 59.4146 141.926H61.5986C61.5426 142.416 61.4726 143.032 61.4726 143.606V145.678C63.3486 146.224 66.0366 147.218 67.3246 147.848L66.5266 149.78C65.0846 149.024 62.9846 148.212 61.4726 147.694V151.656C61.4726 152.062 61.5426 153.042 61.5986 153.616H59.4146C59.4986 153.056 59.5546 152.216 59.5546 151.656ZM71.1466 146.518C71.6506 146.56 72.6726 146.602 73.4006 146.602C75.0526 146.602 79.6586 146.602 80.9186 146.602C81.5766 146.602 82.1926 146.546 82.5566 146.518V148.716C82.2206 148.702 81.5066 148.646 80.9186 148.646C79.6586 148.646 75.0386 148.646 73.4006 148.646C72.6026 148.646 71.6646 148.688 71.1466 148.716V146.518ZM92.5806 142.08C92.2586 142.57 91.8946 143.2 91.7266 143.508L91.6846 143.578H94.4986C94.9326 143.578 95.3946 143.508 95.7166 143.41L97.1446 144.292C96.9906 144.558 96.7946 144.95 96.6826 145.3C96.3046 146.546 95.5066 148.408 94.2466 149.976C92.9166 151.6 91.2226 152.888 88.5906 153.924L86.9386 152.44C89.7946 151.586 91.3626 150.368 92.5806 148.982C93.5326 147.89 94.3446 146.21 94.5686 145.16H90.6346C89.6966 146.378 88.4786 147.61 87.1066 148.548L85.5386 147.386C87.9886 145.888 89.2066 144.082 89.9066 142.878C90.1166 142.528 90.4106 141.884 90.5366 141.408L92.5806 142.08ZM102.633 142.36C103.613 143.018 105.433 144.474 106.245 145.328L104.817 146.784C104.089 146 102.339 144.474 101.317 143.76L102.633 142.36ZM100.883 151.684C103.067 151.376 104.887 150.662 106.245 149.85C108.639 148.436 110.459 146.294 111.341 144.404L112.433 146.378C111.369 148.268 109.507 150.2 107.253 151.558C105.839 152.412 104.033 153.196 102.059 153.532L100.883 151.684ZM119.685 153.196C116.871 153.196 114.715 151.32 114.715 147.862C114.715 144.446 116.927 142.444 119.685 142.444C121.183 142.444 122.219 143.088 122.891 143.774L121.785 145.09C121.267 144.6 120.679 144.222 119.755 144.222C118.019 144.222 116.843 145.566 116.843 147.792C116.843 150.046 117.865 151.404 119.909 151.404C120.399 151.404 120.917 151.264 121.197 151.012V148.968H119.363V147.274H123.059V151.95C122.345 152.65 121.113 153.196 119.685 153.196ZM125.968 153V142.626H132.324V144.362H128.04V146.756H131.666V148.492H128.04V151.264H132.478V153H125.968ZM137.339 153V144.362H134.427V142.626H142.337V144.362H139.411V153H137.339Z" fill="#260004"/>
<path d="M141.02 138.394L143.555 132.244L145.837 133.52L141.677 138.762L141.02 138.394Z" fill="url(#paint0_linear_42_439)"/>
<path d="M146.226 144.391L152.493 142.16L153.072 144.709L146.393 145.125L146.226 144.391Z" fill="url(#paint1_linear_42_439)"/>
<path d="M144.703 141.024L149.233 135.645L151.221 137.896L145.208 141.595L144.703 141.024Z" fill="url(#paint2_linear_42_439)"/>
<g clip-path="url(#clip0_42_439)">
<path d="M106.777 56.2355C106.746 56.1226 106.731 56.0087 106.731 55.8949C106.619 55.873 106.507 55.8284 106.397 55.7637C106.147 55.6189 105.924 55.4258 105.71 55.2382L105.645 55.1808L105.678 55.1954C105.133 54.7209 104.724 54.2746 104.389 53.7901C104.061 53.2946 103.784 52.7235 103.542 52.045C103.262 51.2326 103.065 50.3846 102.875 49.5649C102.802 49.2498 102.733 48.9511 102.66 48.6532L102.509 48.0339L102.503 48.0102L102.488 47.9465L102.475 47.8936C102.259 47.0129 102.014 46.0138 101.766 45.0647C101.698 44.8052 101.635 44.5939 101.572 44.398C101.485 44.1621 101.387 43.9299 101.281 43.7086C101.23 43.6166 101.183 43.5346 101.139 43.4645L101.128 43.4508L101.111 43.429C101.097 43.4117 101.083 43.3944 101.07 43.378C101.049 43.357 101.028 43.3351 101.006 43.3142C100.958 43.275 100.911 43.2386 100.861 43.2031C100.795 43.1612 100.734 43.1257 100.676 43.0947C100.534 43.0282 100.377 42.9635 100.213 42.9025L100.192 42.8952L100.178 42.8907C99.8938 42.8898 99.6204 42.7978 99.39 42.6256C99.3388 42.5874 99.2913 42.5446 99.2447 42.4963C99.1231 42.5364 98.9932 42.5573 98.8616 42.5573C98.5251 42.5573 98.2115 42.428 97.9299 42.173C97.8842 42.1311 97.8394 42.0892 97.7937 42.0464L97.7398 41.9963C97.6739 41.9344 97.6072 41.8724 97.5395 41.8105C97.3768 41.6711 97.2058 41.54 97.0193 41.4107C96.8054 41.2704 96.5933 41.1374 96.3199 40.9689L96.3053 40.9607C96.052 40.805 95.8244 40.6629 95.6022 40.5144C95.0618 40.1474 94.4822 39.6838 94.2774 39.0317C94.2701 39.008 94.2628 38.9834 94.2573 38.9597C94.0049 38.9925 93.7608 39.0317 93.5313 39.0763C93.1062 39.1674 92.6619 39.2913 92.1727 39.4561C91.5117 39.6911 90.8662 39.9616 90.2555 40.2612C89.3467 40.7239 88.426 41.2686 87.4395 41.9253L87.2356 42.0619L87.253 42.0382C86.4631 42.5974 85.7024 43.1922 84.9929 43.8078C83.9936 44.6913 83.104 45.6731 82.2784 46.604L82.2803 46.5857L82.2446 46.6404C81.5552 47.4273 80.8869 48.2734 80.2972 49.0212L80.289 49.0312L80.1134 49.2534C79.4149 50.136 78.7228 51.0112 78.0316 51.8874C77.1969 52.9448 76.4627 53.7864 75.7212 54.5342C75.2906 54.9668 74.8472 55.3238 74.3645 55.6244C73.9841 55.8648 73.6705 56.0279 73.3752 56.1381C72.8513 56.3357 72.3137 56.4368 71.7752 56.4368H71.7542C71.2705 56.4341 70.7531 56.3375 70.1725 56.1408C69.5051 55.9031 68.9611 55.5998 68.5103 55.2145C68.1227 54.8812 67.831 54.5487 67.6207 54.1972C67.4361 53.8921 67.2843 53.5724 67.1691 53.2454C66.9369 52.5942 66.7842 51.8938 66.712 51.1633C66.6763 51.0887 66.6406 51.0103 66.605 50.9311C66.4038 50.4803 66.2585 50.0085 66.1734 49.5276C66.0665 48.941 66.0976 48.3454 66.146 47.6841C66.1899 47.0949 66.2594 46.5074 66.3536 45.9373C66.4752 45.185 66.6114 44.5765 66.7814 44.0219C66.8198 43.8989 66.861 43.776 66.903 43.6539C67.2706 42.6129 67.7963 41.5418 68.5103 40.3787C69.0735 39.4588 69.7611 38.3887 70.5903 37.4205C71.4278 36.4441 72.364 35.5525 73.2499 34.7346C74.2749 33.7901 75.2394 32.9832 76.1976 32.2673C77.9868 30.9293 80.139 29.402 82.5299 28.2152C83.7138 27.6259 84.9819 27.1778 86.0782 26.8062C87.0884 26.461 88.2669 26.0749 89.4665 25.8462C89.9721 25.7479 90.4996 25.6787 91.0811 25.634C91.3453 25.6185 91.5913 25.6104 91.8143 25.6104C92.7149 25.6104 93.5789 25.7251 94.3807 25.9501C95.1414 26.1623 95.9066 26.4975 96.7176 26.9738C97.4938 27.4283 98.1256 27.9374 98.6495 28.5285C98.9265 28.8418 99.1989 29.1843 99.4815 29.575C99.5985 29.6169 99.7128 29.6797 99.8197 29.7599C99.9395 29.851 100.03 29.9639 100.128 30.0923C100.208 30.198 100.292 30.3009 100.377 30.4038L100.392 30.4229C100.62 30.6998 100.842 30.9712 101.055 31.2554L101.066 31.2691L101.076 31.2855C101.177 31.2581 101.29 31.2445 101.409 31.2445C101.57 31.2445 101.729 31.27 101.883 31.3182C102.083 31.3793 102.26 31.4576 102.424 31.5569C102.613 31.6698 102.788 31.8174 102.977 32.0223C103.09 32.1543 103.17 32.2582 103.237 32.3575C103.337 32.5023 103.408 32.6434 103.455 32.7883C103.655 32.678 103.906 32.6225 104.195 32.6225C104.261 32.6225 104.338 32.6261 104.439 32.6343C104.711 32.6607 105.007 32.7509 105.37 32.9167C105.969 33.189 106.526 33.5861 106.979 34.0643C107.49 34.6053 107.879 35.2273 108.306 35.9933C108.606 36.5279 108.9 37.0999 109.095 37.4788L109.182 37.6455C109.287 37.8477 109.392 38.0508 109.498 38.2521C109.669 38.5745 109.842 38.8951 110.014 39.2166L110.1 39.3778L110.179 39.5262C110.466 40.0572 110.898 40.8596 111.296 41.6347C111.376 41.7905 111.456 41.948 111.534 42.1047C111.849 42.7258 112.109 43.2504 112.352 43.7541C112.557 44.1785 112.792 44.6858 112.976 45.235C113.1 45.6012 113.204 46.0083 113.304 46.5174C113.363 46.8235 113.407 47.134 113.436 47.441C113.47 47.8226 113.474 48.2115 113.445 48.6286C113.408 49.1715 113.312 49.7052 113.232 50.1096L113.218 50.1742L113.205 50.2435L113.197 50.2608C113.011 51.1661 112.767 52.0022 112.449 52.8182C112.061 53.8183 111.551 54.6881 110.934 55.4003C110.742 55.6125 110.532 55.8175 110.296 56.026C109.652 56.5789 109.029 56.9459 108.394 57.1499C108.281 57.1873 108.163 57.2064 108.043 57.2064C107.472 57.2064 106.926 56.7893 106.775 56.2355H106.777Z" fill="#CD9E61"/>
<path d="M88.3127 87.949C87.7907 87.918 87.2704 87.8661 86.753 87.7923C85.6668 87.6384 84.5779 87.4098 83.5411 87.0501C83.5457 87.051 83.5493 87.0528 83.553 87.0537C83.5018 87.0364 83.4506 87.0182 83.3994 87C83.4296 87.01 83.4597 87.0209 83.489 87.0309C82.8709 86.8178 82.2876 86.5309 81.7089 86.2294C81.1695 85.948 80.6392 85.6511 80.1235 85.3287C79.5878 84.9935 79.0877 84.6073 78.6049 84.2002C78.5821 84.1811 78.5601 84.162 78.5391 84.1419C78.5053 84.1128 78.4724 84.0827 78.4385 84.0536C78.4148 84.0354 78.3919 84.0153 78.3709 83.9935C78.3764 83.998 78.3818 84.0035 78.3873 84.008C78.3809 84.0026 78.3754 83.9971 78.369 83.9916C78.369 83.9916 78.3681 83.9907 78.3672 83.9898C77.9695 83.6364 77.5965 83.2585 77.2445 82.8595C77.2509 82.8668 77.2573 82.8741 77.2637 82.8814C77.2463 82.8623 77.2299 82.8422 77.2116 82.8222C77.218 82.8295 77.2253 82.8377 77.2308 82.844C77.2152 82.8258 77.1997 82.8085 77.1832 82.7903C77.1787 82.7848 77.1732 82.7794 77.1686 82.7739C77.1704 82.7767 77.1723 82.7785 77.1741 82.7803C76.3485 81.8404 75.5842 80.8467 74.9423 79.7729C74.2923 78.6845 73.7867 77.4877 73.4612 76.2627C73.3424 75.8155 73.2363 75.3656 73.143 74.9129C73.1458 74.9239 73.1476 74.9348 73.1504 74.9457C73.1312 74.8528 73.112 74.759 73.0928 74.6661C73.0937 74.6716 73.0946 74.6761 73.0955 74.6807C72.8294 73.391 72.6292 72.0868 72.4601 70.7807C72.2946 69.5065 72.1876 68.2241 72.1227 66.9408C72.0578 65.6402 72.013 64.3369 72.0203 63.0336C72.0276 61.7439 72.0496 60.4533 72.0944 59.1645C72.1209 58.4286 72.1739 57.6936 72.2297 56.9595C72.2388 56.842 72.248 56.7245 72.2571 56.608H72.2617L72.2763 56.6052L72.29 56.6034L72.3037 56.6016L72.3165 56.5998L72.3293 56.5979L72.3421 56.5961L72.3549 56.5943L72.3677 56.5925L72.3805 56.5907L72.3924 56.5888L72.4043 56.587L72.4162 56.5852L72.4281 56.5834L72.44 56.5816L72.4518 56.5797L72.4628 56.5779L72.4747 56.5761L72.4857 56.5743L72.4976 56.5724H72.5076L72.5177 56.5697H72.5277L72.5369 56.567H72.546L72.5552 56.5642H72.5643L72.5734 56.5633H72.5826L72.5917 56.5624H72.6009L72.61 56.5615H72.6192L72.6283 56.5606H72.6374L72.6466 56.5579H72.6658L72.6749 56.5551H72.685L72.695 56.5542H72.7051L72.7152 56.5515H72.7252L72.7353 56.5506H72.7453L72.7554 56.5497H72.7654L72.7755 56.5488H72.7865L72.7965 56.5479H72.909L72.919 56.5506H72.9291L72.9392 56.5533L72.9492 56.5551L72.9602 56.557L72.9702 56.5588L72.9812 56.5606L72.9913 56.5624L73.0013 56.5642L73.0123 56.567L73.0233 56.5688L73.0342 56.5715L73.0452 56.5743L73.0562 56.577L73.0672 56.5797L73.079 56.5825L73.0909 56.5852L73.1028 56.5879L73.1147 56.5907L73.1266 56.5934L73.1385 56.5961L73.1504 56.5989L73.1622 56.6025L73.175 56.6052L73.1878 56.6089L73.2006 56.6125L73.2134 56.6152L73.2262 56.6189L73.239 56.6225L73.2528 56.6262L73.2665 56.6298L73.2802 56.6335L73.2939 56.6371L73.3085 56.6408L73.3232 56.6444L73.3378 56.648L73.3533 56.6517L73.3689 56.6553L73.3844 56.659L73.4 56.6626L73.4146 56.6663L73.4301 56.669L73.4448 56.6726L73.4603 56.6754L73.4758 56.679L73.4914 56.6817L73.5069 56.6845L73.5225 56.6872L73.538 56.6899L73.5536 56.6927L73.57 56.6954L73.5865 56.6981L73.6038 56.7009L73.6212 56.7036L73.6386 56.7063L73.6569 56.7091L73.6761 56.7118L73.6953 56.7154L73.7145 56.7191H73.7172C73.6889 57.0615 73.6624 57.404 73.6386 57.7464C73.5581 58.9924 73.5206 60.2393 73.5024 61.487C73.4832 62.8122 73.4822 64.1356 73.5243 65.4599C73.5499 66.2778 73.5929 67.0947 73.6459 67.9117C73.7273 68.9755 73.8324 70.0357 73.9778 71.094C74.1295 72.1933 74.3133 73.2872 74.5245 74.3774C74.5181 74.3455 74.5117 74.3145 74.5053 74.2827C74.509 74.3 74.5126 74.3164 74.5154 74.3337C74.5154 74.3318 74.5145 74.33 74.5145 74.3273C74.519 74.3482 74.5227 74.3692 74.5273 74.3901C74.53 74.4011 74.5318 74.4111 74.5337 74.422C74.5327 74.4175 74.5318 74.4129 74.5309 74.4084C74.5483 74.4931 74.5666 74.5778 74.583 74.6625C74.7311 75.3756 74.9177 76.0778 75.1499 76.7673C75.3428 77.2937 75.5604 77.8065 75.8072 78.3102C76.0651 78.802 76.3458 79.2783 76.6502 79.7428C77.1403 80.4496 77.6705 81.1318 78.2374 81.7793C78.2356 81.7775 78.2337 81.7748 78.2319 81.773C78.2749 81.8222 78.3188 81.8713 78.3617 81.9205C78.3681 81.9278 78.3745 81.9351 78.38 81.9415C78.6909 82.2812 79.0145 82.6045 79.3546 82.9151C79.4022 82.9524 79.447 82.9925 79.4909 83.0335C79.4982 83.0408 79.5064 83.0481 79.5146 83.0544C79.5283 83.0672 79.543 83.0799 79.5567 83.0927C79.9151 83.4005 80.2945 83.6829 80.684 83.9507C81.3569 84.386 82.06 84.7713 82.774 85.1365C83.1507 85.3232 83.5329 85.5035 83.9315 85.642C83.9416 85.6456 83.9516 85.6493 83.9617 85.652C83.9909 85.662 84.0202 85.672 84.0494 85.6821C84.6017 85.8597 85.1603 86.0099 85.7281 86.1302C86.5655 86.2959 87.4067 86.4225 88.2588 86.4845C88.7571 86.5163 89.2608 86.5373 89.7582 86.5081C90.1559 86.4845 90.4896 86.857 90.4896 87.2368C90.4896 87.4289 90.4119 87.6157 90.2757 87.7523C90.133 87.8934 89.9548 87.9545 89.7582 87.9654C89.5954 87.9754 89.4318 87.98 89.2681 87.98C88.95 87.98 88.6318 87.9645 88.3155 87.9463V87.949H88.3127Z" fill="#260004"/>
<path d="M90.6029 87.1773C90.6029 87.0142 90.6578 86.8576 90.7565 86.7274C90.8891 86.5507 91.0866 86.4678 91.2996 86.4377C91.5784 86.3986 91.8637 86.3904 92.1444 86.374C92.7195 86.333 93.29 86.2747 93.8559 86.1672C94.3843 86.0525 94.9018 85.904 95.4147 85.7337C95.7046 85.6271 95.9834 85.5014 96.2595 85.3657C96.6902 85.1426 97.108 84.9003 97.5148 84.6344C97.9893 84.3083 98.4383 83.9522 98.8762 83.5779C99.2638 83.2336 99.6414 82.8775 100.006 82.5095C100.353 82.1607 100.682 81.7918 101.008 81.4248C101.039 81.3892 101.07 81.3537 101.102 81.3182C101.371 81.0094 101.629 80.6961 101.865 80.3628C102.034 80.1078 102.186 79.8445 102.326 79.5722C102.634 78.9356 102.908 78.2844 103.168 77.6259C103.427 76.9719 103.674 76.3134 103.907 75.6504C104.459 74.0392 104.905 72.3898 105.259 70.7249C105.496 69.5408 105.645 68.3431 105.727 67.1391V67.1427C105.729 67.1127 105.731 67.0826 105.733 67.0526C105.804 65.925 105.863 64.7947 105.86 63.6644C105.858 62.464 105.765 61.2654 105.714 60.065C105.701 59.7717 105.688 59.4785 105.677 59.1843C105.681 58.9812 105.682 58.7772 105.682 58.5741C105.682 58.2799 105.675 57.9857 105.657 57.6915C105.651 57.5822 105.645 57.472 105.638 57.3618C105.638 57.227 105.64 57.0931 105.642 56.9583H105.669L105.705 56.9611H105.831L105.86 56.9583L105.89 56.9565L105.919 56.9547L105.947 56.9529L105.976 56.951L106.005 56.9492L106.034 56.9465L106.063 56.9447L106.093 56.9419L106.124 56.9392L106.153 56.9365L106.183 56.9337L106.214 56.931L106.245 56.9274L106.275 56.9237L106.306 56.9201L106.335 56.9164L106.364 56.9128L106.392 56.9091L106.42 56.9055L106.446 56.9019L106.472 56.8973L106.497 56.8937L106.521 56.8891L106.547 56.8846L106.573 56.88L106.598 56.8754L106.625 56.87L106.651 56.8654L106.679 56.86L106.707 56.8545L106.736 56.849L106.765 56.8427L106.796 56.8372L106.825 56.8308L106.855 56.8244L106.885 56.8181L106.916 56.8117L106.947 56.8053L106.976 56.7989L107.002 56.7935L107.029 56.788L107.053 56.7835L107.077 56.7789L107.099 56.7753L107.108 56.7734C107.09 57.6041 107.117 58.4356 107.148 59.2644C107.191 60.4639 107.272 61.6616 107.313 62.8611C107.362 64.3029 107.285 65.7501 107.19 67.1883V67.1828C107.189 67.1946 107.188 67.2074 107.187 67.2192C107.101 68.4816 106.951 69.7376 106.698 70.979C106.444 72.2276 106.115 73.4627 105.755 74.6849C105.4 75.8872 104.961 77.0657 104.501 78.2306C104.267 78.8236 104.02 79.4092 103.748 79.9848C103.485 80.5422 103.173 81.0641 102.8 81.555C102.601 81.8173 102.385 82.065 102.167 82.3119C102.187 82.2882 102.208 82.2654 102.229 82.2417C101.417 83.1616 100.576 84.0533 99.635 84.8438C99.1459 85.2555 98.6412 85.6462 98.1009 85.9887C97.5615 86.3312 97.0001 86.6345 96.4186 86.8986C96.0593 87.0625 95.6781 87.18 95.3005 87.293C94.9411 87.4013 94.5791 87.4951 94.2116 87.5735C93.4417 87.7374 92.6591 87.7921 91.8747 87.8422C91.7659 87.8485 91.6562 87.854 91.5483 87.8677C91.4815 87.8886 91.4102 87.8995 91.3371 87.8995C90.9384 87.8995 90.6056 87.568 90.6056 87.1709L90.6029 87.1773Z" fill="#260004"/>
<path d="M72.3 66.6877C71.9379 66.6549 71.585 66.5483 71.2778 66.3516C71.0191 66.1858 70.7896 65.9882 70.5729 65.7687C70.3599 65.5528 70.1597 65.3142 69.9869 65.0646C69.7967 64.7887 69.6431 64.5018 69.506 64.1967C69.2372 63.5974 69.0964 62.9334 68.9656 62.2922C68.8449 61.6975 68.7837 61.0936 68.7654 60.4879C68.7563 60.1974 68.78 59.9059 68.8139 59.6181C68.844 59.3577 68.9025 59.0881 68.9885 58.8403C69.2015 58.2246 69.5041 57.6263 70.0079 57.1945C70.0591 57.1508 70.1103 57.1089 70.1633 57.0679L70.178 57.0652L70.2264 57.0543L70.274 57.0424L70.3188 57.0306L70.3636 57.0178L70.4074 57.0051L70.4495 56.9923L70.4916 56.9787L70.5327 56.965L70.5729 56.9514L70.6141 56.9377L70.6561 56.924L70.6973 56.9104L70.7393 56.8967L70.7814 56.8831L70.8234 56.8694L70.8655 56.8566L70.9066 56.8439L70.9459 56.833L70.9862 56.822L71.0255 56.812L71.0639 56.8029L71.1023 56.7938L71.1398 56.7847L71.1763 56.7765L71.2129 56.7683L71.2495 56.7601L71.2833 56.7528L71.3181 56.7455L71.3528 56.7382L71.3857 56.7319L71.4195 56.7255L71.4534 56.7191L71.4863 56.7127L71.5192 56.7064L71.5521 56.7009L71.585 56.6954L71.6179 56.69L71.6509 56.6845L71.6829 56.679L71.7149 56.6745L71.745 56.6699L71.7743 56.6663L71.8026 56.6617L71.8301 56.6581L71.8557 56.6544L71.8813 56.6508L71.9059 56.6472L71.9297 56.6444L71.9535 56.6417L71.9754 56.639L71.9974 56.6362L72.0184 56.6335L72.0376 56.6308L72.0568 56.6289L72.076 56.6271L72.0952 56.6253L72.1135 56.6235L72.1309 56.6217L72.1482 56.6198L72.1656 56.618L72.183 56.6162L72.1994 56.6144L72.215 56.6125L72.2296 56.6107L72.2442 56.6089L72.2588 56.6071L72.2735 56.6053L72.2872 56.6034L72.3009 56.6016L72.3137 56.5998L72.3265 56.598L72.3393 56.5962L72.3521 56.5943L72.3649 56.5925L72.3777 56.5907L72.3896 56.5889H72.3914C72.6465 56.6845 72.8842 56.8375 73.0735 57.0288C73.1814 57.1363 73.2554 57.2565 73.3386 57.3813C73.3212 57.3557 73.3039 57.3302 73.2865 57.3047V57.3038C73.2664 57.2811 73.2463 57.2583 73.2262 57.2355C73.2033 57.2155 73.1804 57.1945 73.1567 57.1745C73.1311 57.1572 73.1046 57.1399 73.079 57.1226C73.0707 57.1199 73.0634 57.1171 73.0552 57.1144C73.3139 57.2565 73.4767 57.5388 73.4346 57.8503C73.3825 58.2347 73.004 58.5389 72.6108 58.4733C72.375 58.4341 72.204 58.3093 72.076 58.1163C72.065 58.0999 72.0559 58.0826 72.0458 58.0653C72.0358 58.0543 72.0248 58.0443 72.0138 58.0334C72.0056 58.0261 71.9965 58.0197 71.9873 58.0124C71.9699 58.0024 71.9517 57.9915 71.9343 57.9815C71.9014 57.966 71.8675 57.9523 71.8328 57.9387C71.8154 57.9332 71.799 57.9286 71.7816 57.9241C71.7642 57.9213 71.7469 57.9195 71.7295 57.9177H71.6755C71.6536 57.9204 71.6317 57.9232 71.6088 57.9259C71.5731 57.9341 71.5393 57.9432 71.5046 57.9541C71.4543 57.9751 71.4058 57.9969 71.3574 58.0197C71.2943 58.0552 71.233 58.0917 71.1718 58.129C71.0968 58.1818 71.0246 58.2374 70.9533 58.2966C70.9094 58.3394 70.8673 58.3822 70.8262 58.4268C70.7841 58.4806 70.743 58.5352 70.7037 58.5908C70.6589 58.6636 70.6159 58.7365 70.5738 58.8112C70.519 58.9269 70.4678 59.0425 70.4212 59.1609C70.38 59.2866 70.3434 59.4132 70.3114 59.5416C70.2767 59.7274 70.252 59.9132 70.2356 60.1027C70.2282 60.3513 70.2319 60.5972 70.2447 60.845C70.2813 61.2812 70.3425 61.712 70.4276 62.141C70.5199 62.5545 70.6196 62.9662 70.754 63.3678C70.8152 63.5272 70.8819 63.6839 70.956 63.8387C71.009 63.9389 71.0648 64.0382 71.1251 64.1338C71.2403 64.2968 71.3619 64.4535 71.4918 64.6047C71.5978 64.7204 71.7075 64.8315 71.8237 64.938C71.8867 64.989 71.9517 65.0382 72.0175 65.0856C72.0604 65.1129 72.1043 65.1384 72.1482 65.1639C72.1528 65.1657 72.1574 65.1676 72.1619 65.1694C72.214 65.1849 72.2671 65.1994 72.3201 65.2122C72.3795 65.2222 72.439 65.2295 72.4993 65.2359C72.8961 65.2714 73.1768 65.6767 73.1247 66.0565C73.0991 66.245 72.9976 66.4181 72.8467 66.5346C72.7114 66.6394 72.5532 66.684 72.3868 66.684C72.3576 66.684 72.3292 66.6822 72.3 66.6804H72.2991L72.3 66.6877Z" fill="#260004"/>
<path d="M107.463 65.6087C107.065 65.5814 106.787 65.1615 106.838 64.7872C106.863 64.5986 106.965 64.4256 107.116 64.3099C107.268 64.1924 107.442 64.1551 107.629 64.1633C107.63 64.1633 107.632 64.1624 107.634 64.1615C107.637 64.1606 107.639 64.1597 107.64 64.1587C107.699 64.1269 107.756 64.0932 107.811 64.0576C107.84 64.0367 107.867 64.0148 107.896 63.9921C107.983 63.9074 108.067 63.819 108.149 63.7289C108.272 63.584 108.387 63.4347 108.498 63.2798C108.586 63.1459 108.668 63.0102 108.744 62.8682C108.783 62.7844 108.818 62.6997 108.851 62.6131C108.899 62.4647 108.941 62.3153 108.974 62.1641C109.01 61.951 109.031 61.737 109.048 61.522C109.065 61.2333 109.071 60.9473 109.058 60.6586C109.039 60.4263 109.009 60.1968 108.968 59.9673C108.917 59.7405 108.85 59.5192 108.776 59.2988C108.705 59.0975 108.627 58.899 108.535 58.7059C108.45 58.5483 108.36 58.3935 108.265 58.2423C108.216 58.1721 108.164 58.1038 108.11 58.0374C108.079 58.0055 108.048 57.9745 108.016 57.9426C107.984 57.9171 107.953 57.8925 107.919 57.8679C107.907 57.8607 107.896 57.8534 107.884 57.847C107.87 57.8415 107.857 57.837 107.844 57.8315C107.819 57.8242 107.792 57.816 107.767 57.8097C107.759 57.8087 107.752 57.8078 107.745 57.8069H107.741C107.723 57.8142 107.704 57.8224 107.687 57.8297C107.616 57.8689 107.546 57.9117 107.478 57.9563C107.343 58.0501 107.213 58.1494 107.086 58.255C107.062 58.2778 107.038 58.3015 107.015 58.3252C107.003 58.3388 106.993 58.3525 106.982 58.3661C106.86 58.6649 106.535 58.888 106.203 58.8224C105.98 58.7778 105.805 58.6694 105.678 58.4809C105.677 58.2286 105.67 57.9754 105.656 57.7231C105.779 57.4754 105.998 57.2668 106.203 57.091C106.278 57.0273 106.356 56.9654 106.435 56.9062H106.443L106.468 56.9007L106.493 56.897L106.518 56.8925L106.543 56.8879L106.569 56.8834L106.595 56.8788L106.621 56.8734L106.648 56.8688L106.675 56.8633L106.703 56.8579L106.733 56.8524L106.762 56.846L106.792 56.8406L106.821 56.8342L106.851 56.8278L106.882 56.8215L106.913 56.8151L106.943 56.8087L106.972 56.8023L106.999 56.7969L107.025 56.7914L107.05 56.7868L107.074 56.7823L107.096 56.7786L107.117 56.775L107.136 56.7714L107.156 56.7677L107.175 56.765L107.194 56.7623L107.214 56.7595L107.233 56.7568L107.252 56.7541L107.271 56.7513L107.289 56.7486L107.309 56.7459L107.327 56.744L107.346 56.7413L107.364 56.7395L107.383 56.7377L107.4 56.7349L107.417 56.7331L107.435 56.7313L107.451 56.7286L107.467 56.7267L107.482 56.724L107.498 56.7222L107.512 56.7194L107.528 56.7167L107.543 56.7149L107.557 56.7122L107.572 56.7094L107.587 56.7067L107.601 56.704L107.616 56.7012L107.63 56.6985L107.645 56.6958L107.66 56.693L107.674 56.6903L107.689 56.6876L107.704 56.6848L107.718 56.6821L107.734 56.6794L107.749 56.6766L107.765 56.6739L107.78 56.6703L107.796 56.6675L107.811 56.6648L107.827 56.6612L107.843 56.6575L107.858 56.6539L107.874 56.6502L107.89 56.6466L107.907 56.6429L107.923 56.6393L107.939 56.6357L107.957 56.6311L107.974 56.6275L107.992 56.6229L108.009 56.6193L108.026 56.6147L108.044 56.6102L108.061 56.6065L108.078 56.602L108.096 56.5974L108.113 56.5938L108.131 56.5892L108.148 56.5856L108.165 56.581L108.183 56.5774L108.2 56.5737L108.217 56.5701L108.235 56.5664L108.253 56.5628L108.271 56.5591L108.29 56.5555L108.309 56.5519L108.327 56.5482L108.345 56.5446L108.364 56.5409L108.381 56.5373L108.398 56.5336L108.416 56.53L108.432 56.5264L108.449 56.5227L108.464 56.5191L108.479 56.5154L108.49 56.5127C109.178 56.8433 109.586 57.5228 109.912 58.1876C110.049 58.4682 110.144 58.7714 110.241 59.0665C110.339 59.3662 110.404 59.6722 110.456 59.9828C110.538 60.4837 110.542 60.9983 110.51 61.5038C110.492 61.7943 110.468 62.0831 110.42 62.3709C110.365 62.696 110.264 63.0166 110.139 63.3208C109.939 63.8044 109.618 64.2471 109.278 64.6415C109.104 64.8418 108.92 65.0395 108.707 65.1989C108.606 65.2745 108.497 65.3391 108.388 65.402C108.263 65.4739 108.131 65.524 107.992 65.5641C107.883 65.596 107.771 65.606 107.658 65.606C107.593 65.606 107.527 65.6023 107.462 65.5978L107.463 65.6087ZM106.619 57.4472C106.609 57.4408 106.599 57.4353 106.589 57.4289C106.575 57.4253 106.562 57.4217 106.549 57.418C106.573 57.4262 106.596 57.4362 106.619 57.4472Z" fill="#260004"/>
<path d="M81.025 88.8192C80.9756 88.1215 80.9135 87.4202 80.7818 86.7317C80.7882 86.7626 80.7946 86.7945 80.801 86.8264C80.7864 86.7535 80.7718 86.6798 80.7535 86.6069C80.7196 86.5231 80.7004 86.432 80.7004 86.3373C80.7004 86.2335 80.7224 86.1406 80.759 86.044C80.9107 85.6415 81.441 85.4802 81.8021 85.6979C81.9813 85.8063 82.0965 85.973 82.1514 86.1706C82.1843 86.2899 82.2072 86.412 82.2309 86.5331C82.2785 86.7799 82.3169 87.0286 82.3471 87.279C82.4111 87.8182 82.4586 88.3583 82.4933 88.9003C82.5153 89.2509 82.5281 89.6016 82.5317 89.9522C82.3882 90.0005 82.2465 90.0524 82.1057 90.107C81.9658 90.1608 81.8259 90.2127 81.6915 90.2792C81.5626 90.3438 81.4328 90.4067 81.3121 90.4868C81.217 90.5506 81.1384 90.6189 81.0652 90.6954C81.078 90.0697 81.0652 89.444 81.0241 88.8174L81.025 88.8192Z" fill="#260004"/>
<path d="M97.5651 90.3212C97.5377 89.6992 97.5222 89.0762 97.5304 88.4532C97.535 88.1126 97.5459 87.7719 97.5661 87.4322C97.5761 87.2573 97.5862 87.0834 97.6035 86.9094C97.6209 86.74 97.6346 86.5497 97.7306 86.4039C97.8367 86.2427 97.9784 86.1216 98.1677 86.0688C98.3569 86.0169 98.5617 86.0442 98.7308 86.1425C98.8762 86.2263 98.9658 86.3493 99.0399 86.4959C99.1194 86.6553 99.1194 86.8338 99.0646 86.995C99.0499 87.1025 99.0435 87.2109 99.0362 87.3184V87.3166C98.9521 88.6754 98.996 90.0416 99.0792 91.4014C98.9932 91.3204 98.8918 91.2539 98.7857 91.2111C98.7683 91.2038 98.75 91.1974 98.7318 91.1919C98.4154 91.0453 98.0177 91.0754 97.7425 91.3031C97.6977 91.3404 97.6557 91.3805 97.6173 91.4233C97.5971 91.0553 97.5816 90.6874 97.5651 90.3203V90.3212Z" fill="#260004"/>
<path d="M45.3874 130.676C45.2969 130.537 45.2804 130.371 45.2896 130.21C45.2987 130.054 45.3161 129.9 45.3362 129.745C45.3764 129.438 45.4176 129.131 45.4587 128.825C45.541 128.222 45.6279 127.62 45.7275 127.019C45.9387 125.737 46.1627 124.456 46.4077 123.179C46.4516 122.954 46.4964 122.727 46.5431 122.501C46.5385 122.521 46.5348 122.541 46.5303 122.561C46.5348 122.536 46.5394 122.511 46.5449 122.485C46.5485 122.464 46.5522 122.442 46.5586 122.421C46.5714 122.339 46.5933 122.257 46.6098 122.177C46.6226 122.114 46.6363 122.051 46.6491 121.988C46.6839 121.822 46.7204 121.654 46.7561 121.487C46.8182 121.199 46.8841 120.911 46.9517 120.623C47.2498 119.361 47.5771 118.108 47.9108 116.856C48.2281 115.665 48.5855 114.486 48.9897 113.32C49.2054 112.696 49.4276 112.075 49.6589 111.457C49.8756 110.876 50.1032 110.295 50.3611 109.73C50.628 109.144 50.9188 108.566 51.2625 108.02C51.62 107.452 52.0223 106.919 52.4484 106.4C53.2968 105.366 54.2723 104.436 55.2909 103.571C56.2947 102.719 57.412 102 58.5649 101.365C59.1436 101.046 59.7379 100.753 60.3358 100.473C60.9201 100.199 61.5098 99.9372 62.1104 99.7031C63.1939 99.2796 64.2937 98.898 65.3936 98.5172C65.5189 98.4735 65.6432 98.4307 65.7685 98.387C66.5429 98.1183 67.3154 97.8451 68.0898 97.5764C68.2004 97.5372 68.3147 97.4871 68.4308 97.4589C68.4509 97.4516 68.472 97.4443 68.493 97.4371C68.4747 97.4434 68.4564 97.4498 68.4391 97.4553C69.6541 97.0318 70.8747 96.6246 72.0962 96.2211C73.3112 95.8195 74.5245 95.4142 75.7441 95.0262C77.249 94.5471 78.7548 94.069 80.2817 93.6664C80.2936 93.6628 80.3055 93.66 80.3183 93.6582C80.2643 93.7065 80.2149 93.7611 80.1692 93.8203C80.0641 93.956 80.0101 94.1209 79.9471 94.2784C79.9141 94.3613 79.8831 94.4442 79.8511 94.528C79.7679 94.7475 79.6847 94.967 79.6252 95.1938C79.596 95.2566 79.5658 95.3195 79.5366 95.3832C77.6175 95.9297 75.7222 96.5618 73.8278 97.1839C72.2105 97.7157 70.5958 98.2522 68.9858 98.806C68.9968 98.8023 69.0077 98.7987 69.0178 98.795C68.9977 98.8023 68.9776 98.8087 68.9575 98.816C68.8523 98.8533 68.7444 98.8998 68.6347 98.9262C68.6018 98.9389 68.568 98.9499 68.5341 98.9617C68.5643 98.9517 68.5945 98.9408 68.6247 98.9307C67.8512 99.2003 67.0786 99.4727 66.3051 99.7413C66.1799 99.7851 66.0528 99.8288 65.9266 99.8725C65.9275 99.8725 65.9285 99.8725 65.9294 99.8725C64.9328 100.219 63.9363 100.566 62.9507 100.94C61.9751 101.311 61.027 101.747 60.0917 102.209C59.2762 102.625 58.4853 103.077 57.7173 103.574C57.0938 104.001 56.4995 104.459 55.9226 104.946C55.1875 105.6 54.4909 106.286 53.8362 107.02C53.466 107.457 53.1121 107.901 52.7793 108.366C52.4676 108.836 52.1887 109.32 51.9318 109.821C51.3585 111.013 50.9078 112.261 50.4699 113.508C50.0667 114.675 49.6964 115.849 49.3764 117.041C49.0482 118.263 48.7218 119.487 48.431 120.719C48.2911 121.314 48.1558 121.909 48.0324 122.507C48.0324 122.509 48.0315 122.51 48.0315 122.512C48.0306 122.518 48.0288 122.525 48.0278 122.53C48.0123 122.612 47.9995 122.695 47.9766 122.775C47.9702 122.812 47.9629 122.848 47.9556 122.884C47.7115 124.117 47.4912 125.354 47.2818 126.593C47.1776 127.208 47.0788 127.824 46.991 128.441C46.9051 129.043 46.8082 129.647 46.7515 130.253C46.778 130.622 46.5037 130.993 46.1216 131.031H46.1197C46.0896 131.035 46.0585 131.037 46.0292 131.037C45.7641 131.037 45.5355 130.904 45.3883 130.678L45.3874 130.676Z" fill="#260004"/>
<path d="M136.447 131.994C136.258 131.969 136.084 131.867 135.967 131.717C135.848 131.562 135.806 131.378 135.821 131.186C135.839 130.839 135.823 130.487 135.818 130.14C135.81 129.611 135.791 129.082 135.757 128.555C135.677 127.407 135.537 126.264 135.383 125.124C135.218 123.891 135.013 122.663 134.786 121.44C134.749 121.24 134.71 121.038 134.668 120.839C134.67 120.844 134.671 120.851 134.672 120.856C134.661 120.801 134.65 120.746 134.639 120.691V120.694C134.638 120.689 134.637 120.685 134.636 120.68C134.635 120.674 134.634 120.668 134.633 120.661V120.663V120.659C134.628 120.639 134.624 120.619 134.62 120.598C134.622 120.605 134.623 120.612 134.624 120.618C134.207 118.647 133.748 116.68 133.09 114.772C132.744 113.821 132.325 112.901 131.875 111.993C131.221 110.707 130.507 109.454 129.702 108.255C129.284 107.653 128.847 107.067 128.374 106.505C127.979 106.064 127.563 105.651 127.123 105.253C126.643 104.837 126.144 104.45 125.622 104.088C124.977 103.659 124.313 103.26 123.646 102.867C122.947 102.455 122.241 102.06 121.518 101.692C120.705 101.29 119.876 100.935 119.02 100.632C117.867 100.244 116.694 99.9126 115.512 99.6193C114.277 99.3124 113.039 99.0136 111.801 98.7222C110.55 98.428 109.293 98.152 108.048 97.8287C106.843 97.5154 105.654 97.1474 104.454 96.8186C103.435 96.539 102.412 96.2694 101.39 95.998C101.291 95.9716 101.193 95.9461 101.094 95.9197C101.062 95.8295 101.016 95.743 100.961 95.6638C100.875 95.5426 100.768 95.4433 100.667 95.335C100.649 95.3095 100.631 95.284 100.614 95.2585C100.596 95.2229 100.578 95.1874 100.558 95.1519C100.556 95.1446 100.553 95.1373 100.549 95.131C100.502 95.0153 100.464 94.8978 100.429 94.7776C100.435 94.8022 100.442 94.8277 100.449 94.8523C100.437 94.8104 100.426 94.7675 100.415 94.7247C100.405 94.6756 100.395 94.6273 100.387 94.5781V94.5763C100.388 94.5635 100.39 94.5517 100.391 94.5399C100.406 94.4169 100.377 94.2994 100.318 94.1992C100.753 94.3267 101.194 94.436 101.632 94.5535C102.239 94.7165 102.846 94.8759 103.453 95.0362C104.054 95.1947 104.653 95.3605 105.252 95.5253C105.854 95.692 106.451 95.8723 107.052 96.0436C108.265 96.3897 109.488 96.6866 110.716 96.9707C111.98 97.2631 113.239 97.5719 114.501 97.8742C116.928 98.4562 119.378 99.0564 121.641 100.129C122.769 100.664 123.851 101.286 124.923 101.926C125.471 102.254 126.016 102.588 126.541 102.95C127.074 103.319 127.579 103.715 128.066 104.141C128.583 104.593 129.079 105.076 129.522 105.6C129.93 106.085 130.313 106.588 130.68 107.104C131.427 108.155 132.081 109.267 132.693 110.401C133.308 111.541 133.874 112.713 134.336 113.922C134.783 115.09 135.118 116.304 135.416 117.516C135.647 118.453 135.862 119.393 136.058 120.338C136.314 121.583 136.529 122.837 136.715 124.094C136.891 125.279 137.043 126.469 137.151 127.662C137.221 128.417 137.262 129.173 137.277 129.932C137.282 130.181 137.284 130.43 137.285 130.68C137.286 130.91 137.292 131.141 137.271 131.37C137.238 131.734 136.892 132 136.54 132C136.509 132 136.479 131.998 136.447 131.993V131.994Z" fill="#260004"/>
<path d="M71.16 56.7819L71.1773 56.7782L71.2139 56.77L71.2505 56.7618L71.2843 56.7546L71.3191 56.7473L71.3538 56.74L71.3867 56.7336L71.4205 56.7272L71.4544 56.7209L71.4873 56.7145L71.5202 56.7081L71.5531 56.7026L71.586 56.6972L71.6189 56.6917L71.6518 56.6863L71.6838 56.6808L71.7158 56.6762L71.746 56.6717L71.768 56.6689C71.6473 56.7564 71.5001 56.8083 71.3428 56.8083C71.2788 56.8083 71.2167 56.8001 71.1572 56.7837L71.16 56.7819Z" fill="#260004"/>
<path d="M107.324 57.5951C107.018 57.4658 106.841 57.1388 106.885 56.8209L106.914 56.8155L106.944 56.8091L106.973 56.8027L107 56.7972L107.026 56.7918L107.051 56.7872L107.075 56.7827L107.097 56.779L107.118 56.7754L107.137 56.7717L107.157 56.7681L107.176 56.7654L107.195 56.7626L107.214 56.7599L107.234 56.7572L107.253 56.7544L107.272 56.7517L107.29 56.749L107.31 56.7462L107.328 56.7444L107.347 56.7417L107.365 56.7399L107.384 56.738L107.401 56.7353L107.418 56.7335L107.436 56.7317L107.452 56.7289L107.468 56.7271L107.483 56.7244L107.499 56.7226L107.513 56.7198L107.529 56.7171L107.544 56.7153L107.558 56.7125L107.573 56.7098L107.587 56.7071L107.602 56.7043L107.617 56.7016L107.631 56.6989L107.646 56.6961L107.661 56.6934L107.675 56.6907L107.69 56.688L107.705 56.6852L107.719 56.6825L107.735 56.6798L107.75 56.677L107.766 56.6743L107.781 56.6706L107.797 56.6679L107.812 56.6652L107.828 56.6615L107.843 56.6579L107.859 56.6543L107.875 56.6506L107.891 56.647L107.907 56.6433L107.924 56.6397L107.94 56.636L107.958 56.6315L107.975 56.6278L107.993 56.6233L108.01 56.6196L108.027 56.6151L108.045 56.6105L108.062 56.6069L108.079 56.6023L108.097 56.5978L108.114 56.5941L108.131 56.5896L108.149 56.5859L108.166 56.5814L108.184 56.5777L108.201 56.5741L108.218 56.5705L108.236 56.5668L108.254 56.5632L108.272 56.5595L108.291 56.5559L108.31 56.5522L108.328 56.5486L108.346 56.545L108.365 56.5413L108.382 56.5377L108.399 56.534L108.417 56.5304L108.433 56.5267L108.45 56.5231L108.465 56.5195L108.48 56.5158L108.494 56.5122L108.509 56.5085L108.524 56.5049C108.514 56.534 108.504 56.5632 108.494 56.5923C108.428 56.7936 108.366 57.0013 108.283 57.1971C108.165 57.4721 107.889 57.6406 107.603 57.6406C107.51 57.6406 107.415 57.6224 107.324 57.5842V57.5951Z" fill="#260004"/>
<path d="M81.7664 58.6029C81.5991 58.4854 81.4611 58.3024 81.3587 58.1293C81.27 57.98 81.2069 57.8224 81.1548 57.6575C80.9299 56.9526 81.1456 56.04 81.8423 55.6857C82.3013 55.4525 82.8462 55.4125 83.3097 55.6565C83.6955 55.8606 83.9415 56.2449 84.0201 56.6657C84.0219 56.6739 84.0229 56.6821 84.0247 56.6912C84.0603 56.7723 84.0896 56.8551 84.1134 56.9398C84.2459 57.4153 84.1518 57.9599 83.7751 58.3024C83.5575 58.5009 83.3006 58.6512 83.0254 58.7532C82.8599 58.807 82.6908 58.8352 82.5234 58.8352C82.2583 58.8352 81.9986 58.7632 81.7683 58.6011L81.7664 58.6029Z" fill="#260004"/>
<path d="M96.8319 58.5434C96.4818 58.4678 96.18 58.231 95.9652 57.9523C95.8747 57.8348 95.7997 57.7064 95.7366 57.5716C95.6297 57.3448 95.5986 57.1016 95.6205 56.8539C95.6516 56.5023 95.8518 56.169 96.1096 55.934C96.116 55.9285 96.1224 55.9222 96.1288 55.9167C96.1901 55.8639 96.2532 55.8138 96.319 55.7664C96.3976 55.6034 96.5357 55.4704 96.7085 55.3975C96.884 55.3229 97.0843 55.3101 97.2717 55.3374C97.3787 55.3538 97.4811 55.3839 97.5798 55.4258C97.802 55.4604 98.015 55.5469 98.2107 55.6826C98.5279 55.903 98.7464 56.2619 98.7949 56.6435C98.8433 57.0206 98.7144 57.3994 98.4923 57.7027C98.4411 57.7729 98.3816 57.8339 98.3158 57.8885C98.2893 57.9313 98.2619 57.9751 98.2326 58.0179C98.1229 58.1782 97.9592 58.3321 97.7901 58.4305C97.6017 58.5397 97.3988 58.5844 97.1912 58.5844C97.0715 58.5844 96.9517 58.5698 96.8319 58.5434Z" fill="#260004"/>
<path d="M89.4253 76.7516C88.8667 76.7353 88.3062 76.6879 87.7531 76.6077C87.5007 76.5713 87.2457 76.5312 87.0015 76.4611C86.8105 76.4065 86.6093 76.3381 86.4658 76.1942C86.2573 75.9866 86.1942 75.666 86.3094 75.3955C86.4228 75.1286 86.6925 74.9501 86.9833 74.9501H86.9869C87.1076 74.9501 87.2219 74.9802 87.3234 75.0339C87.3261 75.0348 87.3298 75.0366 87.3325 75.0375C87.4111 75.0621 87.4907 75.0813 87.5711 75.0995C88.042 75.1887 88.5202 75.2406 88.9974 75.2753C89.5844 75.309 90.1704 75.2989 90.7574 75.2607C91.2584 75.227 91.7603 75.1887 92.2531 75.0913C92.2339 75.0949 92.2157 75.0995 92.1965 75.1031C92.2166 75.0986 92.2367 75.0949 92.2568 75.0904C92.2687 75.0876 92.2806 75.0858 92.2915 75.0831C92.2806 75.0849 92.2705 75.0876 92.2595 75.0895C92.6573 75.0066 93.0522 74.9137 93.4499 74.8308C93.4435 74.8317 93.4371 74.8335 93.4298 74.8344C93.5532 74.8089 93.6748 74.7789 93.7937 74.7397C93.8156 74.7315 93.8376 74.7224 93.8595 74.7133C93.8732 74.7051 93.886 74.6969 93.8988 74.6887C93.8888 74.696 93.8787 74.7024 93.8687 74.7097C93.8705 74.7097 93.8723 74.7078 93.8732 74.7078C94.0259 74.614 94.1923 74.5658 94.3761 74.5903C94.5653 74.6158 94.7391 74.7169 94.8561 74.8672C95.0892 75.1678 95.0536 75.666 94.7235 75.8891C94.3542 76.1405 93.9235 76.2188 93.492 76.3054C92.9937 76.4092 92.5018 76.5394 91.9962 76.6096C91.6452 76.6578 91.2913 76.6806 90.9384 76.7052C90.5334 76.7334 90.1284 76.7553 89.7233 76.7553C89.6237 76.7553 89.524 76.7544 89.4253 76.7516Z" fill="#260004"/>
<path d="M98.1009 89.6081C97.9116 89.5826 97.7379 89.4815 97.6209 89.3312C97.4975 89.1718 97.4591 88.9842 97.4755 88.7875C97.5011 88.4833 97.5222 88.1791 97.5432 87.874C97.5843 87.2519 97.6172 86.6298 97.6474 86.0068C97.662 85.7163 97.6748 85.4258 97.6886 85.1352C97.6995 84.9248 97.7425 84.7062 97.908 84.5578C98.0552 84.4257 98.2252 84.3438 98.4273 84.3438C98.8259 84.3438 99.1587 84.6753 99.1587 85.0724C99.1587 85.1143 99.1551 85.1562 99.1477 85.1962C99.1112 85.7801 99.0929 86.3657 99.0609 86.9495C99.0225 87.629 98.9813 88.3075 98.9247 88.9851C98.8945 89.3494 98.5434 89.6145 98.1923 89.6145C98.1622 89.6145 98.1311 89.6126 98.1009 89.6081ZM98.9283 85.5997C98.9329 85.5961 98.9384 85.5924 98.9429 85.5879C98.9631 85.5651 98.9841 85.5414 99.0051 85.5178C99.0225 85.4923 99.0399 85.4667 99.0572 85.4412C99.06 85.4358 99.0636 85.4294 99.0664 85.423C99.0298 85.4886 98.9823 85.5487 98.9283 85.5997Z" fill="#260004"/>
<path d="M81.1758 89.5972C81.046 88.6417 80.9281 87.6818 80.7479 86.7346C80.6995 86.5078 80.6474 86.2819 80.5889 86.0569C80.5358 85.8547 80.4865 85.6516 80.4215 85.4531C80.4188 85.4449 80.4161 85.4376 80.4133 85.4294C80.4115 85.4248 80.4106 85.4212 80.4087 85.4167C80.4087 85.4185 80.4097 85.4194 80.4106 85.4212C80.374 85.3083 80.3511 85.1944 80.3713 85.0715C80.4133 84.8183 80.5706 84.6006 80.811 84.4986C81.0707 84.3893 81.4199 84.4385 81.6128 84.6543C81.6266 84.6698 81.6394 84.6853 81.6522 84.7008C81.6613 84.7117 81.6714 84.7226 81.6796 84.7345C81.675 84.729 81.6714 84.7245 81.6668 84.719C81.7052 84.7691 81.7354 84.8192 81.7655 84.8784C81.7829 84.9166 81.7966 84.9558 81.8067 84.9959C81.9045 85.2864 81.9813 85.5833 82.0535 85.8802C82.1523 86.2855 82.2309 86.6954 82.2986 87.1071C82.4229 87.8676 82.5207 88.6345 82.625 89.3977C82.6542 89.6154 82.5811 89.8276 82.4421 89.9824C82.3296 90.0216 82.2172 90.0635 82.1056 90.1063C82.0096 90.1436 81.9127 90.1792 81.8176 90.2201C81.4958 90.181 81.2206 89.9278 81.1749 89.5953L81.1758 89.5972Z" fill="#260004"/>
<path d="M88.5622 87.4979C88.4754 87.1828 88.6162 86.8394 88.8996 86.6736C89.0349 86.5944 89.1775 86.578 89.3284 86.5652C89.6091 86.5407 89.8898 86.5097 90.1713 86.4906C90.4657 86.4714 90.7611 86.4541 91.0564 86.435C91.0326 86.4368 91.0088 86.4386 90.9851 86.4396C91.0015 86.4386 91.018 86.4377 91.0344 86.4368C91.0317 86.4368 91.0289 86.4368 91.0262 86.4368C91.0299 86.4368 91.0335 86.4368 91.0372 86.4368C91.0664 86.435 91.0957 86.4332 91.1249 86.4314C91.1149 86.4314 91.1039 86.4323 91.0939 86.4332C91.1012 86.4332 91.1085 86.4323 91.1158 86.4314C91.1076 86.4314 91.0993 86.4323 91.0911 86.4332C91.1213 86.4314 91.1515 86.4295 91.1816 86.4268C91.1844 86.4268 91.188 86.4268 91.1908 86.4268C91.1889 86.4268 91.188 86.4268 91.1862 86.4268C91.5519 86.4022 91.9185 86.3776 92.2833 86.3467C92.4817 86.3294 92.6701 86.3685 92.8291 86.4915C92.98 86.6081 93.0815 86.7811 93.1071 86.9687C93.1583 87.3467 92.8794 87.7566 92.4817 87.7903C92.0703 87.8249 91.658 87.8522 91.2456 87.8795C91.2264 87.8804 91.2072 87.8822 91.188 87.8832C91.1917 87.8832 91.1953 87.8832 91.199 87.8832C91.1908 87.8832 91.1825 87.8841 91.1743 87.885C91.1707 87.885 91.1679 87.885 91.1643 87.885C90.8635 87.905 90.5627 87.9223 90.2619 87.9424C90.09 87.9551 89.9181 87.9715 89.7462 87.9888C89.6484 87.9988 89.5496 88.0034 89.4509 88.0143C89.3942 88.0289 89.3348 88.0371 89.2735 88.0371C88.9462 88.0371 88.6482 87.8148 88.5604 87.4988L88.5622 87.4979Z" fill="#260004"/>
<path d="M105.926 57.1192C105.912 57.0655 105.898 57.0126 105.884 56.9589H105.889L105.918 56.9571L105.946 56.9552L105.975 56.9534L106.004 56.9516L106.033 56.9489L106.062 56.947L106.093 56.9443L106.123 56.9416L106.152 56.9389L106.182 56.9361L106.213 56.9334L106.244 56.9297L106.275 56.9261L106.305 56.9225L106.334 56.9188L106.363 56.9152L106.392 56.9115L106.419 56.9079L106.446 56.9042L106.471 56.8997L106.496 56.896L106.52 56.8915L106.546 56.8869L106.572 56.8824L106.597 56.8778L106.624 56.8724L106.65 56.8678L106.678 56.8623L106.706 56.8569L106.735 56.8514L106.765 56.845L106.795 56.8396L106.824 56.8332L106.854 56.8268L106.884 56.8204L106.915 56.8141L106.946 56.8077L106.975 56.8013L107.001 56.7959L107.028 56.7904L107.053 56.7858L107.076 56.7813L107.098 56.7776L107.119 56.774L107.139 56.7704L107.159 56.7667L107.178 56.764L107.197 56.7612L107.216 56.7585L107.235 56.7558L107.255 56.7531L107.274 56.7503L107.292 56.7476L107.311 56.7449L107.33 56.743L107.342 56.7412C107.434 57.1201 107.209 57.5181 106.827 57.6229C106.765 57.6402 106.702 57.6484 106.638 57.6484C106.318 57.6484 106.013 57.4352 105.927 57.1146L105.926 57.1192Z" fill="#260004"/>
<path d="M70.6599 57.1026C70.648 57.047 70.6379 56.9906 70.6306 56.9341L70.6571 56.925L70.6983 56.9113L70.7403 56.8977L70.7824 56.884L70.8244 56.8703L70.8665 56.8576L70.9076 56.8448L70.947 56.8339L70.9872 56.823L71.0265 56.813L71.0649 56.8038L71.1033 56.7947L71.1408 56.7856L71.1774 56.7774L71.2139 56.7692L71.2505 56.761L71.2843 56.7538L71.3191 56.7465L71.3538 56.7392L71.3867 56.7328L71.4205 56.7264L71.4544 56.72L71.4873 56.7137L71.5202 56.7073L71.5531 56.7018L71.586 56.6964L71.6189 56.6909L71.6519 56.6854L71.6839 56.68L71.7159 56.6754L71.746 56.6709L71.7753 56.6672L71.8036 56.6627L71.8311 56.659L71.8567 56.6554L71.8823 56.6517L71.9069 56.6481L71.9307 56.6454L71.9545 56.6426L71.9764 56.6399L71.9984 56.6372L72.0194 56.6344L72.0386 56.6317L72.0578 56.6299H72.0624C72.0679 56.6882 72.0743 56.7456 72.0861 56.8029C72.0825 56.7856 72.0788 56.7674 72.0743 56.7501C72.1072 56.9323 72.0898 57.1117 71.9938 57.2756C71.8978 57.4387 71.7387 57.5607 71.5568 57.6108C71.4964 57.6272 71.4343 57.6354 71.3721 57.6354C71.0521 57.6354 70.7266 57.4268 70.6562 57.1017L70.6599 57.1026Z" fill="#260004"/>
<path d="M78.6469 96.4018C78.2839 96.2488 78.0974 95.8107 78.2574 95.4473C78.9605 93.8461 79.8336 92.3324 80.6839 90.8059C80.8887 90.437 81.088 90.0636 81.3047 89.7011C81.3596 89.6082 81.4254 89.5235 81.5122 89.457C81.7198 89.2986 82.0023 89.2603 82.2446 89.3623C82.5737 89.5007 82.7319 89.8441 82.6752 90.1811C82.6779 90.1693 82.6798 90.1574 82.6825 90.1465C82.6853 90.1137 82.6871 90.0809 82.6889 90.049V90.0536C82.6889 90.2276 82.6249 90.3888 82.5198 90.5154C82.4558 90.6228 82.3963 90.733 82.3369 90.8423C82.2162 91.06 82.0946 91.2777 81.9739 91.4954C81.7701 91.8606 81.5671 92.2267 81.3614 92.591C80.9874 93.2541 80.6181 93.9208 80.2725 94.5993C80.277 94.5893 80.2825 94.5793 80.2871 94.5693C80.2816 94.5811 80.2752 94.5929 80.2697 94.6039C80.2615 94.6203 80.2533 94.6367 80.245 94.6531C80.2524 94.6385 80.2597 94.6248 80.267 94.6103C80.0348 95.0738 79.8144 95.542 79.606 96.0165C79.4853 96.2907 79.2119 96.4601 78.9267 96.4601C78.8334 96.4601 78.7392 96.4418 78.6478 96.4036L78.6469 96.4018Z" fill="#260004"/>
<path d="M100.678 96.2455C100.458 95.8493 100.253 95.445 100.04 95.0451C99.8152 94.6225 99.5885 94.1999 99.3617 93.7782C99.1121 93.3137 98.8625 92.8492 98.6202 92.3802C98.3816 91.9175 98.1787 91.4384 97.9492 90.9712C97.9483 90.9685 97.9464 90.9666 97.9455 90.9639C97.8404 90.8373 97.7764 90.6761 97.7764 90.5021C97.7764 90.2753 97.8843 90.0558 98.0644 89.9165C98.2728 89.7562 98.5581 89.7198 98.8004 89.8218C98.9786 89.8965 99.1057 90.0367 99.1953 90.2034C99.434 90.6479 99.625 91.1187 99.8472 91.5723C100.192 92.2517 100.559 92.9212 100.92 93.5915C101.263 94.2291 101.589 94.8785 101.942 95.5105C102.135 95.8575 102.029 96.3038 101.679 96.5078C101.567 96.5734 101.44 96.6044 101.314 96.6053C101.06 96.6053 100.807 96.4787 100.678 96.2474V96.2455Z" fill="#260004"/>
<path d="M89.7984 95.7555C89.5415 95.6398 89.2983 95.4896 89.0542 95.3484C88.6025 95.0879 88.1518 94.8256 87.7001 94.5633C86.6313 93.9412 85.5488 93.3401 84.4965 92.6898C84.0366 92.4066 83.574 92.1279 83.1114 91.8501C82.8663 91.7034 82.6241 91.5559 82.3863 91.3983C82.2455 91.3054 82.1111 91.2034 81.9767 91.1023C81.9694 91.0996 81.963 91.0968 81.9566 91.0941C81.7747 91.0176 81.654 90.8792 81.5672 90.7061C81.387 90.3482 81.6083 89.8746 81.9594 89.727C82.1367 89.6523 82.3553 89.6469 82.5326 89.727C82.6149 89.7644 82.6871 89.8126 82.7585 89.8655C82.8929 89.9647 83.0236 90.0668 83.1598 90.1624C83.6608 90.4912 84.1838 90.7863 84.6958 91.0987C85.2526 91.4375 85.8057 91.7808 86.3689 92.1078C87.381 92.6962 88.395 93.2827 89.408 93.8675C89.7188 94.0469 90.0251 94.2363 90.3442 94.4012C90.3524 94.4048 90.3598 94.4085 90.368 94.4121C90.7309 94.5751 90.9156 94.995 90.7575 95.3666C90.6423 95.6371 90.3625 95.8129 90.0754 95.8138C89.9822 95.8138 89.888 95.7956 89.7984 95.7555Z" fill="#260004"/>
<path d="M90.1403 95.8263C90.005 95.7698 89.9044 95.6788 89.8258 95.5658C89.8285 95.5704 89.8313 95.5749 89.834 95.5795C89.8011 95.5348 89.7727 95.4875 89.7462 95.4328C89.6137 95.1623 89.7087 94.8272 89.9108 94.6204C90.0041 94.5248 90.1266 94.4565 90.239 94.3873C90.3698 94.3071 90.5051 94.2333 90.6376 94.1568C91.1478 93.8654 91.6351 93.5375 92.1371 93.2333C93.1766 92.6039 94.2609 92.0484 95.3206 91.4527C96.0876 91.0219 96.8566 90.5847 97.5898 90.0975C97.705 90.02 97.8184 89.9399 97.929 89.8561C98.2463 89.6147 98.7107 89.6721 98.9548 89.9873C99.1971 90.2997 99.1395 90.7687 98.8232 91.0092C98.4831 91.2669 98.1192 91.4955 97.7553 91.7196C97.2534 92.0274 96.7441 92.3243 96.2312 92.613C95.1706 93.2114 94.0826 93.7652 93.0385 94.3918C92.6527 94.6232 92.2751 94.8663 91.8939 95.105C91.5812 95.3008 91.2502 95.4702 90.9384 95.6678C90.8726 95.7352 90.7949 95.789 90.709 95.8254C90.6184 95.8636 90.5215 95.8828 90.4246 95.8828C90.3277 95.8828 90.2299 95.8636 90.1403 95.8254V95.8263Z" fill="#260004"/>
<path d="M86.5619 102.427C86.2785 102.316 86.0078 102.166 85.7409 102.02C85.2901 101.774 84.843 101.511 84.4133 101.229C83.8931 100.887 83.3902 100.521 82.892 100.148C82.3855 99.7695 81.8881 99.3834 81.4035 98.9772C80.8595 98.5218 80.3192 98.0618 79.7843 97.5946C79.4963 97.3432 79.2157 97.08 78.9533 96.8022C78.7329 96.5681 78.5263 96.324 78.316 96.0818C78.1185 95.9506 77.986 95.7257 77.986 95.4752V95.4725C77.9887 95.5052 77.9905 95.538 77.9924 95.5708C77.9777 95.3704 78.0116 95.1837 78.1386 95.0189C78.3124 94.7957 78.6442 94.6655 78.9231 94.7593C79.0566 94.8039 79.1571 94.8613 79.2623 94.956C79.3336 95.0207 79.3949 95.099 79.457 95.1728C79.5512 95.2839 79.6454 95.3959 79.7405 95.5052C80.0605 95.855 80.3969 96.1847 80.7489 96.5025C80.7251 96.4825 80.7023 96.4616 80.6785 96.4415C82.0746 97.6592 83.4963 98.8487 85.0314 99.8898C85.0231 99.8843 85.0149 99.8788 85.0067 99.8734C85.0167 99.8797 85.0268 99.887 85.0369 99.8934C85.0524 99.9043 85.0689 99.9153 85.0844 99.9253C85.0707 99.9162 85.0579 99.9071 85.0442 99.898C85.3797 100.12 85.7262 100.326 86.0727 100.529C86.3278 100.679 86.5847 100.822 86.849 100.954C86.9413 101 87.0346 101.046 87.1306 101.084C87.5008 101.23 87.6727 101.679 87.52 102.038C87.4012 102.318 87.1278 102.479 86.8416 102.479C86.7475 102.479 86.6533 102.462 86.5619 102.425V102.427Z" fill="#260004"/>
<path d="M87.0857 102.339C86.7465 102.141 86.6157 101.682 86.8233 101.342C86.9842 101.079 87.1295 100.806 87.2694 100.531C87.6315 99.8054 87.957 99.0613 88.2751 98.3154C88.6326 97.4784 88.9974 96.6432 89.3055 95.7861C89.3567 95.6368 89.407 95.4874 89.4573 95.3389C89.4984 95.2169 89.5268 95.0748 89.599 94.9673C89.5844 94.9956 89.5707 95.0229 89.5569 95.0511C89.6438 94.8781 89.7645 94.7396 89.9464 94.6631C90.1265 94.5875 90.3359 94.5875 90.516 94.6631C90.8653 94.8098 91.0838 95.2624 90.9055 95.6176C90.9055 95.6186 90.9046 95.6195 90.9037 95.6204C90.7272 96.1413 90.5517 96.6614 90.3441 97.1714C90.1174 97.7279 89.8806 98.2808 89.6447 98.8336C89.2351 99.7936 88.8228 100.761 88.3181 101.675C88.244 101.81 88.1672 101.945 88.0868 102.077C87.9478 102.305 87.701 102.436 87.4477 102.436C87.3243 102.436 87.1999 102.405 87.0857 102.338V102.339Z" fill="#260004"/>
<path d="M94.3433 101.875C94.1458 101.848 93.9913 101.745 93.8633 101.598C93.6978 101.408 93.5661 101.184 93.4299 100.973C93.2781 100.739 93.1319 100.502 92.9828 100.266C92.4352 99.3948 91.9067 98.5113 91.3673 97.6352C91.115 97.2253 90.8672 96.8118 90.6231 96.3965C90.464 96.1242 90.3022 95.8509 90.1577 95.5695C90.0782 95.4529 90.0306 95.3126 90.0306 95.1633C90.0306 94.9392 90.1376 94.7234 90.315 94.5858C90.4759 94.462 90.6642 94.4237 90.8635 94.4401C91.0546 94.4556 91.2329 94.5758 91.349 94.7215C91.3929 94.7753 91.4222 94.8363 91.4523 94.8982C91.5291 95.0431 91.6142 95.1842 91.6946 95.3272C91.8235 95.5558 91.9561 95.7808 92.0905 96.0058C92.3703 96.4757 92.6583 96.942 92.9435 97.4093C93.4381 98.219 93.93 99.0287 94.4347 99.832C94.5764 100.058 94.719 100.284 94.8681 100.505C94.9156 100.575 94.965 100.643 95.0208 100.707C95.2813 101.008 95.1908 101.497 94.8891 101.729C94.7611 101.827 94.6011 101.881 94.4402 101.881C94.4073 101.881 94.3753 101.879 94.3424 101.875H94.3433ZM91.2622 95.6915C91.2677 95.687 91.2741 95.6824 91.2795 95.6779C91.2997 95.6542 91.3207 95.6314 91.3417 95.6077C91.3435 95.6041 91.3454 95.5995 91.3481 95.5959C91.3225 95.6296 91.2942 95.6615 91.2631 95.6906L91.2622 95.6915Z" fill="#260004"/>
<path d="M94.0077 101.528C94.0077 101.221 94.2052 100.954 94.4795 100.847C94.6367 100.73 94.7885 100.602 94.9412 100.479C95.1405 100.319 95.3389 100.158 95.5391 99.9994C95.9816 99.6497 96.4342 99.3118 96.8922 98.9802C97.865 98.2771 98.815 97.5448 99.7503 96.7925C100.309 96.3426 100.856 95.8754 101.395 95.4027C101.39 95.4072 101.385 95.4118 101.38 95.4163C101.387 95.41 101.394 95.4045 101.401 95.3981C101.406 95.3936 101.412 95.3881 101.418 95.3835C101.412 95.3881 101.407 95.3926 101.401 95.3981C101.418 95.3835 101.434 95.369 101.451 95.3553C101.435 95.3681 101.421 95.3817 101.406 95.3945C101.471 95.3371 101.536 95.2797 101.599 95.2205C101.891 94.95 102.344 94.9318 102.633 95.2205C102.906 95.4928 102.926 95.9801 102.633 96.2506C102.542 96.3353 102.447 96.4182 102.353 96.5011C101.521 97.2297 100.669 97.9319 99.8015 98.6177C99.327 98.993 98.847 99.3619 98.3596 99.7198C97.8897 100.065 97.4134 100.399 96.9498 100.752C96.4717 101.117 96.0054 101.499 95.5345 101.873C95.3261 102.04 95.1213 102.209 94.8497 102.254C94.8123 102.26 94.7757 102.263 94.7391 102.263C94.346 102.263 94.0086 101.925 94.0086 101.529L94.0077 101.528Z" fill="#260004"/>
<path d="M90.6084 131.067C90.4676 130.927 90.4036 130.748 90.3944 130.552C90.3524 129.617 90.3377 128.682 90.3158 127.747C90.2874 126.511 90.2573 125.276 90.2445 124.041C90.2317 122.773 90.2271 121.505 90.2134 120.236C90.1997 118.957 90.1777 117.68 90.1576 116.401C90.1375 115.09 90.121 113.78 90.0982 112.469C90.0744 111.163 90.0406 109.858 90.0095 108.552C89.9784 107.274 89.9437 105.997 89.94 104.719C89.9354 103.401 89.9336 102.082 89.9272 100.764C89.9236 99.9566 89.9172 99.1488 89.9089 98.3409C89.9016 97.646 89.9034 96.9492 89.8724 96.2552C89.866 96.216 89.8623 96.176 89.8623 96.1359C89.8623 96.0521 89.865 95.9692 89.8888 95.8881C89.9793 95.5767 90.2655 95.3535 90.5937 95.3535C90.9631 95.3535 91.2593 95.6277 91.3187 95.9829C91.3361 96.0876 91.3334 96.1996 91.337 96.3062C91.3416 96.4483 91.3443 96.5895 91.3471 96.7315C91.3544 97.0567 91.3599 97.3818 91.3645 97.7061C91.3736 98.3382 91.3782 98.9702 91.3827 99.6023C91.3919 100.891 91.3992 102.181 91.3992 103.47C91.3992 106.084 91.4806 108.697 91.5382 111.31C91.5665 112.593 91.5821 113.876 91.6003 115.16C91.6195 116.474 91.6451 117.787 91.6625 119.1C91.6945 121.614 91.6954 124.128 91.753 126.641C91.7823 127.944 91.7978 129.25 91.8573 130.553C91.8755 130.95 91.5107 131.281 91.1258 131.281C90.9329 131.281 90.7455 131.204 90.6084 131.068V131.067Z" fill="#260004"/>
<path d="M93.5569 106.916C93.3503 106.734 93.2845 106.396 93.3631 106.139C93.3777 106.092 93.396 106.046 93.417 106.004C93.4161 105.97 93.4152 105.937 93.4152 105.903C93.4152 105.506 93.748 105.175 94.1466 105.175C94.5453 105.175 94.8781 105.506 94.8781 105.903V106.067C94.8973 106.15 94.9037 106.238 94.8945 106.326C94.8936 106.336 94.8927 106.347 94.8918 106.357C94.8909 106.367 94.8909 106.376 94.8899 106.386C94.8899 106.378 94.8909 106.371 94.8918 106.362C94.8918 106.366 94.8909 106.37 94.8909 106.374C94.8918 106.362 94.8927 106.35 94.8936 106.337V106.329C94.8936 106.327 94.8936 106.326 94.8936 106.324C94.8936 106.32 94.8945 106.315 94.8945 106.311C94.8945 106.311 94.8945 106.312 94.8945 106.313C94.8954 106.301 94.8963 106.288 94.8973 106.275C94.8963 106.289 94.8954 106.302 94.8945 106.315C94.879 106.494 94.8287 106.658 94.7162 106.792C94.7062 106.807 94.6961 106.821 94.6851 106.834C94.5626 106.991 94.3844 107.099 94.185 107.127C94.1512 107.131 94.1183 107.133 94.0863 107.133C93.8861 107.133 93.7087 107.048 93.556 106.914H93.5569V106.916Z" fill="#260004"/>
<path d="M94.9302 117.425C94.8744 117.416 94.8187 117.4 94.7638 117.38C94.4566 117.268 94.292 116.938 94.3213 116.628C94.3176 116.6 94.3158 116.571 94.3158 116.542C94.3158 116.107 94.7117 115.759 95.1478 115.818C95.3572 115.846 95.562 115.971 95.6708 116.154C95.7092 116.185 95.7448 116.218 95.7786 116.254C95.9112 116.399 95.9926 116.57 95.9926 116.77C95.9926 116.969 95.9149 117.15 95.7786 117.285C95.6397 117.424 95.4431 117.498 95.2484 117.498C95.1377 117.498 95.028 117.474 94.9302 117.425Z" fill="#260004"/>
<path d="M95.2026 128.136C95.0637 127.934 94.9832 127.679 95.0664 127.436C95.178 127.107 95.4486 126.891 95.8015 126.88C96.0877 126.871 96.3985 127.06 96.4973 127.334C96.5658 127.525 96.5713 127.728 96.4973 127.908C96.4461 128.078 96.3363 128.229 96.1663 128.328C96.0538 128.394 95.9231 128.426 95.7914 128.426C95.5629 128.426 95.3334 128.328 95.2017 128.136H95.2026Z" fill="#260004"/>
<path d="M71.6253 57.1823C71.65 57.1804 71.6756 57.1786 71.7003 57.1768C71.4699 57.1886 71.2541 57.1349 71.0338 57.0657C70.6096 56.9318 70.1991 56.7524 69.795 56.5693C68.9374 56.1822 68.1355 55.6922 67.4261 55.0747C66.9452 54.643 66.5621 54.122 66.2713 53.5464C66.1159 53.2395 65.9824 52.9289 65.8636 52.6056C65.7511 52.2977 65.6661 51.9817 65.5875 51.6638C65.5052 51.3323 65.4521 50.9935 65.4037 50.6547C65.3589 50.3414 65.3278 50.0235 65.3141 49.7065C65.2995 49.3604 65.2949 49.0162 65.304 48.671C65.3123 48.3212 65.3388 47.9724 65.3644 47.6245C65.411 46.9833 65.5015 46.3412 65.6313 45.7109C65.7639 45.067 65.9157 44.4258 66.1187 43.7992C66.3253 43.1589 66.5548 42.5259 66.8409 41.9157C67.128 41.3064 67.4489 40.7153 67.8128 40.1478C68.163 39.6023 68.5351 39.0677 68.9374 38.5594C69.3726 38.0093 69.827 37.4811 70.2969 36.961C70.7175 36.4965 71.1636 36.053 71.6135 35.6158C72.0944 35.1476 72.5817 34.6868 73.0754 34.2314C74.0198 33.3588 75.0036 32.5237 76.0093 31.7222C77.0305 30.9079 78.0591 30.0964 79.1425 29.3632C80.2497 28.6137 81.4054 27.9287 82.6149 27.3522C83.8392 26.7684 85.0917 26.2565 86.3827 25.8376C86.9952 25.639 87.6197 25.476 88.2505 25.3485C88.8979 25.2182 89.547 25.1062 90.2062 25.0534C90.8928 24.9978 91.5904 24.9723 92.2779 25.0434C92.9161 25.108 93.5543 25.2019 94.1796 25.3467C95.445 25.6399 96.6619 26.0935 97.8011 26.7156C98.0836 26.8704 98.3643 27.0289 98.6331 27.2083C98.9147 27.3959 99.1908 27.5918 99.466 27.7894C99.9533 28.1391 100.429 28.5062 100.893 28.886C101.071 29.0317 101.247 29.1802 101.416 29.335C101.577 29.4825 101.722 29.6428 101.867 29.8068C101.866 29.8059 101.865 29.805 101.864 29.8041C101.87 29.8104 101.875 29.8159 101.881 29.8223C101.896 29.8396 101.911 29.8569 101.926 29.8742C101.919 29.866 101.912 29.8578 101.904 29.8496C102.023 29.9853 102.138 30.1219 102.244 30.2686C102.362 30.4343 102.477 30.6037 102.587 30.774C102.804 31.1074 102.657 31.5774 102.325 31.7714C102.156 31.8697 101.95 31.8961 101.761 31.8442C101.572 31.7923 101.429 31.6703 101.324 31.509C101.291 31.458 101.257 31.407 101.223 31.3569C101.086 31.1584 100.943 30.9671 100.784 30.7841C100.799 30.8005 100.813 30.8159 100.827 30.8323C100.815 30.8187 100.804 30.805 100.792 30.7913C100.794 30.7932 100.795 30.7959 100.797 30.7977C100.647 30.6283 100.491 30.4662 100.324 30.3132C99.583 29.6711 98.7903 29.0854 97.9839 28.5262C97.5542 28.243 97.1081 27.9925 96.65 27.7575C96.1837 27.5326 95.711 27.3349 95.2237 27.1591C94.9485 27.0662 94.6715 26.9724 94.3899 26.8986C94.1056 26.8249 93.8222 26.7584 93.5351 26.6983C93.0514 26.6099 92.5696 26.5362 92.0805 26.4861C91.8455 26.4706 91.6087 26.4551 91.3737 26.4578C91.1141 26.4606 90.8553 26.4688 90.5957 26.4806C90.2272 26.5116 89.8624 26.5489 89.4967 26.6017C89.1529 26.6518 88.8119 26.7183 88.4718 26.7866C88.139 26.8622 87.8026 26.9342 87.4743 27.0298C87.1434 27.1263 86.816 27.2284 86.4887 27.334C85.9438 27.5262 85.398 27.7184 84.865 27.9424C84.2744 28.1911 83.6929 28.4524 83.1141 28.7275C82.6497 28.9634 82.188 29.2048 81.7354 29.4625C81.2572 29.7339 80.791 30.0217 80.3283 30.3186C78.4714 31.5755 76.7233 32.9854 75.0237 34.4436C73.6221 35.6814 72.2626 36.9665 71.0064 38.3509C70.68 38.7288 70.3627 39.1114 70.0528 39.503C69.7556 39.8783 69.4832 40.2726 69.2144 40.667C69.0443 40.932 68.8789 41.1989 68.717 41.4685C68.5671 41.7199 68.4354 41.9822 68.3019 42.2427C68.1739 42.515 68.0523 42.7882 67.9326 43.0642C67.821 43.3238 67.7287 43.5915 67.6354 43.8575C67.5148 44.2327 67.3977 44.6071 67.2981 44.9887C67.2048 45.343 67.1262 45.6991 67.0512 46.057C66.989 46.4059 66.9296 46.7556 66.8876 47.1081C66.8464 47.4523 66.8172 47.7966 66.7906 48.1427C66.7778 48.4123 66.7669 48.6819 66.7605 48.9524C66.7541 49.2047 66.7669 49.4579 66.7778 49.7093C66.8144 50.151 66.8693 50.5864 66.9452 51.0226C67.022 51.3787 67.1143 51.7267 67.2258 52.0737C67.31 52.3014 67.4014 52.5236 67.5029 52.7449C67.6226 52.9772 67.7516 53.2021 67.8942 53.4207C67.9618 53.5118 68.0313 53.6001 68.1035 53.6876C68.2032 53.7951 68.3056 53.898 68.4126 53.9991C68.4473 54.03 68.483 54.061 68.5177 54.0911C68.4939 54.071 68.4711 54.0501 68.4473 54.0291C68.6475 54.2049 68.8642 54.3607 69.0827 54.5128C69.3799 54.7077 69.6843 54.8871 69.9998 55.0501C70.4532 55.2714 70.9159 55.4745 71.3913 55.6458C71.4754 55.674 71.5604 55.6995 71.6464 55.7214C72.0368 55.7314 72.3586 56.0593 72.3586 56.45C72.3586 56.8143 72.0779 57.124 71.7232 57.1722C71.6921 57.1768 71.6601 57.1786 71.6272 57.1786H71.6263L71.6253 57.1823Z" fill="#260004"/>
<path d="M107.847 58.2259C107.599 57.9072 107.669 57.4527 107.979 57.204C108.018 57.1721 108.058 57.1394 108.097 57.1066C108.824 56.4581 109.477 55.7249 110.124 54.9981C110.103 55.0218 110.082 55.0446 110.062 55.0682C110.494 54.5773 110.915 54.0855 111.291 53.5518C111.49 53.2458 111.674 52.9334 111.848 52.6118C112.061 52.1774 112.247 51.7375 112.41 51.2821C112.509 50.9661 112.599 50.6509 112.674 50.3294C112.758 49.8904 112.818 49.4532 112.855 49.0079C112.866 48.6609 112.862 48.3193 112.843 47.9732C112.802 47.6135 112.749 47.2601 112.684 46.904C112.601 46.5642 112.507 46.2327 112.398 45.9012C112.01 44.851 111.538 43.8364 111.04 42.8337C110.609 41.9866 110.164 41.1469 109.737 40.298C109.74 40.3035 109.742 40.309 109.745 40.3144C109.725 40.2734 109.704 40.2334 109.684 40.1924C109.692 40.2088 109.7 40.2252 109.709 40.2416C109.429 39.6878 109.157 39.1313 108.881 38.5757C108.888 38.5894 108.895 38.604 108.902 38.6176C108.89 38.5939 108.878 38.5703 108.866 38.5475C108.872 38.5584 108.877 38.5694 108.883 38.5794C108.875 38.5621 108.866 38.5457 108.857 38.5284C108.852 38.5174 108.846 38.5065 108.841 38.4956C108.844 38.501 108.846 38.5065 108.849 38.512C108.817 38.4491 108.785 38.3854 108.753 38.3225C108.753 38.3234 108.754 38.3244 108.755 38.3253C108.386 37.5948 107.99 36.8862 107.538 36.205C107.197 35.715 106.839 35.2413 106.448 34.7905C106.175 34.4972 105.891 34.2185 105.592 33.9526C105.359 33.7586 105.121 33.5755 104.871 33.4034C104.66 33.2686 104.444 33.1438 104.221 33.0281C104.048 32.9462 103.873 32.8706 103.693 32.8032C103.6 32.774 103.506 32.7476 103.411 32.7258C103.356 32.7157 103.301 32.7075 103.246 32.7012C103.21 32.7003 103.173 32.6993 103.137 32.7003C103.092 32.7048 103.046 32.7085 103 32.7085C102.602 32.7085 102.269 32.3769 102.269 31.9798C102.269 31.5827 102.599 31.2539 102.995 31.2512C103.001 31.2512 103.009 31.2503 103.015 31.2494C103.575 31.2166 104.116 31.3769 104.622 31.6055C105.228 31.8778 105.787 32.2339 106.305 32.6474C107.327 33.4644 108.147 34.4881 108.869 35.5692C109.324 36.2496 109.709 36.9691 110.074 37.6996C110.06 37.6713 110.046 37.644 110.032 37.6158C110.065 37.6813 110.098 37.7469 110.131 37.8125C110.129 37.8088 110.127 37.8052 110.125 37.8016C110.13 37.8098 110.134 37.8189 110.138 37.8271C110.148 37.8462 110.157 37.8662 110.167 37.8854C110.167 37.8844 110.167 37.8826 110.166 37.8808C110.164 37.8772 110.162 37.8726 110.159 37.869C110.161 37.8726 110.163 37.8772 110.166 37.8808C110.165 37.879 110.164 37.8762 110.163 37.8744C110.17 37.889 110.178 37.9027 110.185 37.9172C110.18 37.909 110.177 37.9008 110.172 37.8917C110.177 37.9008 110.181 37.9109 110.187 37.92C110.192 37.9309 110.198 37.9418 110.203 37.9537C110.199 37.9455 110.195 37.9373 110.19 37.9291C110.456 38.4573 110.716 38.9883 110.978 39.5184C110.993 39.5475 111.008 39.5767 111.023 39.6067C111.02 39.6022 111.019 39.5967 111.016 39.5913C111.044 39.6477 111.073 39.7024 111.1 39.7588C111.09 39.7379 111.079 39.7179 111.069 39.6969C111.08 39.7179 111.09 39.7388 111.101 39.7598C111.105 39.767 111.108 39.7734 111.111 39.7807C111.107 39.7743 111.105 39.767 111.101 39.7607C111.679 40.9001 112.288 42.024 112.834 43.1788C113.111 43.7627 113.37 44.3538 113.607 44.954C113.729 45.2618 113.841 45.576 113.933 45.8939C114.033 46.2391 114.113 46.5861 114.18 46.9395C114.681 49.548 113.92 52.3277 112.418 54.4872C111.912 55.2158 111.304 55.8761 110.707 56.5319C110.42 56.8461 110.13 57.1585 109.831 57.4618C109.525 57.7714 109.215 58.0811 108.875 58.3553C108.748 58.4573 108.592 58.5055 108.437 58.5055C108.214 58.5055 107.99 58.4063 107.849 58.2232L107.847 58.2259Z" fill="#260004"/>
<path d="M71.3419 57.2087C71.3419 57.2087 71.3419 57.2087 71.341 57.2087C70.9872 57.1595 70.7074 56.8507 70.7074 56.4864C70.7074 56.0893 71.0402 55.7578 71.4388 55.7578C71.5129 55.7578 71.5824 55.7733 71.6528 55.7879C71.7058 55.7979 71.7597 55.8052 71.8137 55.8106C71.863 55.8115 71.9115 55.8106 71.96 55.8088C72.0148 55.8024 72.0697 55.7951 72.1254 55.7869C72.2333 55.7624 72.3385 55.7332 72.4436 55.7004C72.5551 55.6567 72.6649 55.6093 72.7746 55.5602C72.9785 55.4536 73.1759 55.3407 73.3716 55.2186C73.7044 54.9855 74.0189 54.735 74.3288 54.4718C74.6123 54.2168 74.8948 53.9608 75.1599 53.6867C75.4424 53.3934 75.7176 53.0956 75.9883 52.7923C76.8312 51.8059 77.6431 50.7958 78.4513 49.7821C79.2358 48.7985 80.0047 47.803 80.8047 46.8321C81.6376 45.822 82.4943 44.8229 83.4286 43.9039C84.3786 42.9695 85.4007 42.1051 86.5207 41.3774C87.062 41.0258 87.6142 40.6971 88.1856 40.3965C88.758 40.0959 89.3532 39.8436 89.9557 39.6141C90.2665 39.4957 90.5819 39.3946 90.9001 39.299C91.1936 39.2106 91.488 39.1232 91.786 39.0531C92.0887 38.982 92.3959 38.9192 92.7058 38.8891C93.0724 38.8527 93.4327 38.8509 93.7993 38.8773C93.983 38.8901 94.1705 38.8982 94.3524 38.9301C94.5792 38.9702 94.8004 39.0267 95.0226 39.0895C95.4066 39.1997 95.7878 39.3391 96.1462 39.5167C96.853 39.8682 97.4811 40.3373 97.9519 40.9748C98.1878 41.2945 98.1403 41.7499 97.8203 41.9967C97.5103 42.2354 97.0303 42.1853 96.7945 41.8656C96.7332 41.7827 96.6692 41.7016 96.6025 41.6242C96.5211 41.5359 96.437 41.453 96.3483 41.3719C96.2404 41.2809 96.1279 41.1952 96.0118 41.1142C95.8692 41.0222 95.7229 40.9375 95.5721 40.8592C95.3545 40.7535 95.1314 40.6624 94.9037 40.5814C94.677 40.5067 94.4484 40.442 94.2162 40.3874C94.0342 40.3573 93.8514 40.3409 93.6676 40.3273C93.45 40.3154 93.2333 40.3127 93.0157 40.3236C92.8073 40.3446 92.6025 40.3737 92.3968 40.4102C91.8418 40.5304 91.2951 40.6934 90.7566 40.8737C90.2007 41.0741 89.6576 41.3009 89.1246 41.5541C88.4864 41.8783 87.8729 42.2372 87.2723 42.627C86.9358 42.8556 86.6048 43.0897 86.2821 43.3365C85.9347 43.6025 85.6 43.8839 85.2709 44.1717C84.9052 44.505 84.5468 44.8448 84.2003 45.1982C83.8474 45.5579 83.5082 45.9295 83.1708 46.3029C81.494 48.2101 79.9736 50.2466 78.369 52.2139C77.537 53.234 76.6996 54.2559 75.7368 55.1576C75.2532 55.6103 74.7503 56.0356 74.2045 56.4117C73.6249 56.8116 72.9611 57.1285 72.2608 57.2387C72.1437 57.257 72.0267 57.2661 71.9106 57.2661C71.7195 57.2661 71.5293 57.2433 71.3401 57.2069L71.3419 57.2087Z" fill="#260004"/>
<path d="M106.766 57.7652C105.977 57.287 105.362 56.5712 104.85 55.8152C104.868 55.8416 104.885 55.8671 104.902 55.8926C104.576 55.4126 104.277 54.9135 104.014 54.3971C104.018 54.4062 104.023 54.4144 104.026 54.4235C104.014 54.3989 104.001 54.3734 103.989 54.3488C103.987 54.3461 103.986 54.3425 103.984 54.3397C103.985 54.3416 103.986 54.3425 103.986 54.3443C103.702 53.7787 103.424 53.2067 103.23 52.6038C103.044 52.0245 102.877 51.4389 102.713 50.8533C102.383 49.6774 102.088 48.4934 101.756 47.3185C101.659 46.976 101.554 46.6363 101.441 46.2984C101.302 45.9113 101.15 45.5288 100.967 45.1608C100.95 45.1262 100.932 45.0916 100.915 45.057C100.916 45.0597 100.918 45.0616 100.919 45.0643C100.768 44.7783 100.607 44.5005 100.43 44.2309C100.319 44.0743 100.203 43.9222 100.08 43.7746C100.006 43.6936 99.9313 43.6152 99.8527 43.5378C99.796 43.4905 99.7384 43.4458 99.679 43.4021C99.6058 43.3557 99.5309 43.311 99.455 43.2701C99.4257 43.2564 99.3965 43.2436 99.3672 43.2309C99.2475 43.3174 99.1003 43.3684 98.9439 43.3684C98.7254 43.3684 98.4877 43.2655 98.3606 43.0824C98.2317 42.8975 98.1604 42.6589 98.2354 42.4367C98.2756 42.3174 98.3314 42.2108 98.4136 42.1152C98.6303 41.8592 98.9329 41.7381 99.2657 41.7354C99.5455 41.7336 99.8234 41.8292 100.073 41.9485C100.306 42.0614 100.539 42.2008 100.735 42.3711C100.969 42.5751 101.179 42.7992 101.371 43.0433C101.701 43.464 101.979 43.9249 102.22 44.4012C102.211 44.3821 102.201 44.3639 102.191 44.3448C102.201 44.3639 102.211 44.3839 102.221 44.4031C102.225 44.4122 102.23 44.4204 102.233 44.4295C102.229 44.4213 102.225 44.4131 102.221 44.4049C102.498 44.9623 102.734 45.5334 102.924 46.1263C103.113 46.7156 103.276 47.3121 103.434 47.9105C103.741 49.0745 104.052 50.2376 104.389 51.3933C104.48 51.7039 104.573 52.0145 104.676 52.3214C104.844 52.7723 105.049 53.2095 105.265 53.6384C105.278 53.6639 105.291 53.6894 105.304 53.7149C105.534 54.1548 105.782 54.5866 106.058 54.9991C106.051 54.9882 106.042 54.9764 106.035 54.9654C106.045 54.9809 106.056 54.9964 106.067 55.0119C106.074 55.0219 106.081 55.0319 106.088 55.0429C106.084 55.0365 106.079 55.0292 106.074 55.0228C106.079 55.0301 106.084 55.0374 106.09 55.0447C106.085 55.0383 106.081 55.031 106.076 55.0246C106.25 55.2769 106.435 55.5201 106.636 55.7524C106.77 55.9008 106.911 56.042 107.06 56.1768C107.172 56.2724 107.289 56.3626 107.409 56.4464C107.513 56.5138 107.619 56.5766 107.729 56.634C107.816 56.6759 107.905 56.7132 107.994 56.7469C108.029 56.7579 108.064 56.7679 108.099 56.7761C108.136 56.7825 108.174 56.787 108.211 56.7916C108.237 56.7925 108.263 56.7925 108.29 56.7916C108.688 56.7834 109.021 57.1295 109.021 57.5202C109.021 57.9109 108.687 58.2406 108.29 58.2488H108.249C107.719 58.2488 107.214 58.0357 106.767 57.7652H106.766Z" fill="#260004"/>
<path d="M87.0345 69.9099C86.5673 69.7451 86.1046 69.5383 85.7316 69.2068C85.5442 69.041 85.4134 68.8243 85.3321 68.5902C85.2498 68.3534 85.2626 68.0965 85.3193 67.8552C85.3814 67.5938 85.5259 67.3524 85.664 67.1238C85.8633 66.7959 86.0717 66.4735 86.2665 66.142C86.5426 65.672 86.8123 65.1984 87.0601 64.713C87.3965 64.0381 87.6891 63.3404 87.9387 62.6291C87.9496 62.5981 87.9606 62.5672 87.9707 62.5362C87.9606 62.5663 87.9496 62.5963 87.9396 62.6255C88.1654 61.9679 88.3711 61.3003 88.5174 60.6199C88.6335 60.0215 88.7186 59.4149 88.7634 58.8065C88.7688 58.7063 88.7734 58.6062 88.7734 58.506C88.7734 58.1089 89.1062 57.7773 89.5048 57.7773C89.9035 57.7773 90.2363 58.1089 90.2363 58.506C90.2363 58.8065 90.207 59.1062 90.1759 59.4049C90.1366 59.7874 90.0799 60.1691 90.015 60.548C89.8651 61.4269 89.6045 62.2839 89.3101 63.1246L89.3412 63.0353C88.98 64.0754 88.5384 65.0837 88.0027 66.0473C87.6799 66.6284 87.338 67.1976 86.986 67.7605C86.9147 67.8752 86.8434 67.9909 86.7794 68.1111C86.7711 68.1293 86.7629 68.1466 86.7547 68.1649C86.7748 68.1803 86.7949 68.1958 86.8159 68.2104C86.8827 68.2523 86.9513 68.2905 87.0207 68.327C87.1908 68.4099 87.3663 68.4818 87.5446 68.5456C87.7384 68.6102 87.9359 68.6658 88.1352 68.7095C88.2376 68.7286 88.341 68.7441 88.4452 68.7532C88.5211 68.7569 88.5979 68.7578 88.6738 68.755C88.6829 68.755 88.693 68.7532 88.7021 68.7523C89.098 68.7086 89.4719 68.9745 89.5268 69.3753C89.5789 69.7615 89.2973 70.1522 88.9014 70.1968C88.7935 70.2087 88.6856 70.2141 88.5787 70.2141C88.0511 70.2141 87.5309 70.0802 87.0335 69.909L87.0345 69.9099Z" fill="#260004"/>
</g>
<defs>
<linearGradient id="paint0_linear_42_439" x1="141.02" y1="135.503" x2="145.837" y2="135.503" gradientUnits="userSpaceOnUse">
<stop stop-color="#FE1D37"/>
</linearGradient>
<linearGradient id="paint1_linear_42_439" x1="148.374" y1="142.456" x2="151.598" y2="146.036" gradientUnits="userSpaceOnUse">
<stop stop-color="#FE1D37"/>
</linearGradient>
<linearGradient id="paint2_linear_42_439" x1="144.703" y1="138.62" x2="151.221" y2="138.62" gradientUnits="userSpaceOnUse">
<stop stop-color="#FE1D37"/>
</linearGradient>
<clipPath id="clip0_42_439">
<rect width="92" height="107" fill="white" transform="translate(45.2877 25)"/>
</clipPath>
</defs>
</svg>
