<svg width="266" height="84" viewBox="0 0 266 84" fill="none" xmlns="http://www.w3.org/2000/svg">
<path d="M256.684 58.6721C255.276 58.6721 254.124 58.2454 253.228 57.3921C252.375 56.5388 251.735 55.4508 251.308 54.1281C250.882 52.7628 250.668 51.3334 250.668 49.8401C250.668 48.9441 250.754 48.0908 250.924 47.2801C251.095 46.4694 251.266 45.8081 251.436 45.2961C251.394 44.9974 251.351 44.6988 251.308 44.4001C251.308 44.0588 251.308 43.7174 251.308 43.3761C251.308 42.1388 251.436 40.7948 251.692 39.3441C251.948 37.8934 252.354 36.5068 252.908 35.1841C253.506 33.8614 254.231 32.7948 255.084 31.9841C255.98 31.1308 257.068 30.7041 258.348 30.7041C259.458 30.7041 260.546 31.1734 261.612 32.1121C262.679 33.0081 263.618 34.3308 264.428 36.0801C264.898 37.0614 265.218 38.1281 265.388 39.2801C265.602 40.3894 265.708 41.5201 265.708 42.6721C265.708 44.2508 265.538 45.8294 265.196 47.4081C264.898 48.9441 264.45 50.3948 263.852 51.7601C263.426 52.7414 262.85 53.7868 262.124 54.8961C261.442 55.9628 260.652 56.8588 259.756 57.5841C258.86 58.3094 257.836 58.6721 256.684 58.6721ZM257.004 57.2641C258.455 57.2641 259.799 56.2614 261.036 54.2561C261.932 52.8481 262.572 51.2481 262.956 49.4561C263.34 47.6214 263.532 45.7868 263.532 43.9521C263.532 42.5868 263.447 41.2641 263.276 39.9841C263.106 38.7041 262.85 37.4668 262.508 36.2721C262.21 35.2054 261.698 34.2668 260.972 33.4561C260.29 32.6028 259.308 32.2401 258.028 32.3681C257.004 32.4534 256.108 32.9654 255.34 33.9041C254.572 34.8428 253.975 35.9094 253.548 37.1041C253.164 38.2561 252.972 39.2588 252.972 40.1121C252.972 40.5814 253.036 40.9441 253.164 41.2001C253.292 40.8588 253.612 40.3041 254.124 39.5361C254.636 38.7254 255.212 38.0001 255.852 37.3601C256.492 36.6774 257.09 36.3361 257.644 36.3361C258.114 36.3361 258.348 36.5281 258.348 36.9121C257.794 36.9548 257.239 37.2961 256.684 37.9361C256.172 38.5334 255.682 39.2588 255.212 40.1121C254.786 40.9654 254.423 41.8188 254.124 42.6721C253.868 43.4828 253.676 44.1228 253.548 44.5921C253.506 44.7628 253.442 44.9761 253.356 45.2321C253.271 45.4881 253.228 45.7441 253.228 46.0001C253.228 46.2988 253.399 46.7894 253.74 47.4721C254.082 48.1121 254.636 48.7094 255.404 49.2641C256.172 49.8188 257.218 50.0961 258.54 50.0961C258.924 50.0961 259.33 50.0534 259.756 49.9681C260.183 49.8828 260.588 49.7974 260.972 49.7121L261.42 49.5841C261.506 49.5841 261.548 49.6268 261.548 49.7121C261.548 49.8401 261.399 50.0108 261.1 50.2241C260.844 50.3948 260.61 50.5228 260.396 50.6081C259.799 50.9068 259.138 51.0561 258.412 51.0561C257.346 51.0561 256.322 50.7361 255.34 50.0961C254.402 49.4134 253.57 48.6454 252.844 47.7921C252.802 48.1334 252.78 48.4748 252.78 48.8161C252.78 49.1148 252.78 49.4134 252.78 49.7121C252.78 52.1868 253.207 54.0641 254.06 55.3441C254.914 56.6241 255.895 57.2641 257.004 57.2641Z" fill="#111111"/>
<path d="M241.966 66.6721C241.54 66.6721 241.092 66.3948 240.622 65.8401C240.196 65.3281 239.79 64.6028 239.406 63.6641C238.766 62.1281 238.318 60.5068 238.062 58.8001C237.806 57.1361 237.678 55.4508 237.678 53.7441C237.678 51.8668 237.806 50.0321 238.062 48.2401C238.318 46.4481 238.596 44.8268 238.894 43.3761C239.108 42.3521 239.364 41.2641 239.662 40.1121C239.961 38.9601 240.238 38.0428 240.494 37.3601C240.238 37.4028 239.833 37.5521 239.278 37.8081C238.724 38.0641 238.148 38.3201 237.55 38.5761C236.996 38.8321 236.505 38.9601 236.078 38.9601C235.438 38.9601 235.118 38.5974 235.118 37.8721C235.118 37.4881 235.246 37.1468 235.502 36.8481C235.801 36.5494 236.164 36.3148 236.59 36.1441C237.444 35.7601 238.382 35.4828 239.406 35.3121C240.43 35.0988 241.113 34.8854 241.454 34.6721L243.118 30.4481C243.289 30.0214 243.588 29.3388 244.014 28.4001C244.484 27.4188 245.017 26.3734 245.614 25.2641C246.254 24.1548 246.873 23.1521 247.47 22.2561C247.94 21.5734 248.388 21.0401 248.814 20.6561C249.241 20.2294 249.71 20.0161 250.222 20.0161C250.99 20.0161 251.374 20.3148 251.374 20.9121C251.374 21.2534 251.225 21.7654 250.926 22.4481C250.67 23.1308 250.18 24.0268 249.454 25.1361C248.644 26.4161 247.812 27.6961 246.958 28.9761C246.148 30.2134 245.444 31.5148 244.846 32.8801C244.804 33.0508 244.697 33.3281 244.526 33.7121C244.398 34.0534 244.292 34.2668 244.206 34.3521L245.486 34.1601C245.828 34.1174 246.212 34.0961 246.638 34.0961C247.065 34.0534 247.534 34.0321 248.046 34.0321C248.772 34.0321 249.454 34.0748 250.094 34.1601C250.777 34.2028 251.332 34.3094 251.758 34.4801C251.972 34.5654 252.164 34.6721 252.334 34.8001C252.548 34.8854 252.654 34.9708 252.654 35.0561C252.654 35.2268 252.1 35.3121 250.99 35.3121C250.35 35.3121 249.433 35.4188 248.238 35.6321C247.086 35.8454 245.764 36.1868 244.27 36.6561C243.545 36.8694 243.054 37.1681 242.798 37.5521C242.542 37.9361 242.201 38.8534 241.774 40.3041C241.134 42.6081 240.622 44.8268 240.238 46.9601C239.854 49.0508 239.556 51.1841 239.342 53.3601C239.3 53.7868 239.257 54.2348 239.214 54.7041C239.214 55.1734 239.214 55.6854 239.214 56.2401C239.214 57.6908 239.342 59.2054 239.598 60.7841C239.897 62.3628 240.324 63.7281 240.878 64.8801C241.006 65.1361 241.134 65.3708 241.262 65.5841C241.433 65.7974 241.625 65.9468 241.838 66.0321C242.137 66.1601 242.286 66.3095 242.286 66.4801C242.286 66.6081 242.18 66.6721 241.966 66.6721Z" fill="#111111"/>
<path d="M218.626 55.9199C217.858 55.9199 217.303 55.5999 216.962 54.9599C216.621 54.2773 216.45 53.4879 216.45 52.5919C216.45 51.4399 216.642 50.0959 217.026 48.5599C217.453 47.0239 218.007 45.4453 218.69 43.8239C219.373 42.1599 220.141 40.6453 220.994 39.2799C221.89 37.8719 222.829 36.7413 223.81 35.8879C224.791 34.9919 225.751 34.5439 226.69 34.5439C227.543 34.5439 228.269 34.9279 228.866 35.6959C229.506 36.4213 229.826 37.2533 229.826 38.1919C229.826 38.7466 229.741 39.2159 229.57 39.5999C229.399 39.9413 229.207 40.1119 228.994 40.1119C228.823 40.1119 228.674 39.9839 228.546 39.7279C228.119 38.7466 227.65 38.0426 227.138 37.6159C226.669 37.1893 226.178 36.9759 225.666 36.9759C224.813 36.9759 223.959 37.4666 223.106 38.4479C222.295 39.3866 221.634 40.4746 221.122 41.7119C220.695 42.6506 220.29 43.7813 219.906 45.1039C219.565 46.3839 219.266 47.6639 219.01 48.9439C218.797 50.1813 218.69 51.2053 218.69 52.0159C218.69 53.4666 219.031 54.1919 219.714 54.1919C220.567 54.1919 221.655 53.2533 222.978 51.3759C223.959 50.0106 224.834 48.4319 225.602 46.6399C226.413 44.8479 227.095 43.2906 227.65 41.9679C227.863 41.5413 228.098 41.2639 228.354 41.1359C228.61 41.0079 228.845 40.9439 229.058 40.9439C229.57 40.9439 229.89 41.1573 230.018 41.5839C230.189 42.0106 230.274 42.3733 230.274 42.6719C230.274 43.7813 230.167 44.7839 229.954 45.6799C229.741 46.5333 229.634 47.5786 229.634 48.8159C229.634 49.7119 229.698 50.5439 229.826 51.3119C229.997 52.0373 230.274 52.3999 230.658 52.3999C231.127 52.3999 231.725 51.8026 232.45 50.6079C232.621 50.2666 232.877 50.0959 233.218 50.0959C233.602 50.0959 233.794 50.2879 233.794 50.6719C233.794 51.2266 233.41 51.8239 232.642 52.4639C231.874 53.0613 231.106 53.3599 230.338 53.3599C229.314 53.3599 228.589 52.9333 228.162 52.0799C227.437 50.6719 227.074 49.4133 227.074 48.3039C227.074 47.1519 227.053 46.3626 227.01 45.9359C226.797 46.4479 226.391 47.2586 225.794 48.3679C225.197 49.4346 224.493 50.5653 223.682 51.7599C222.871 52.9119 222.018 53.8933 221.122 54.7039C220.226 55.5146 219.394 55.9199 218.626 55.9199Z" fill="#111111"/>
<path d="M220.805 70.0642C218.586 70.0642 216.496 69.4455 214.533 68.2082C212.57 66.9709 210.757 65.3495 209.093 63.3442C207.472 61.3815 206 59.2269 204.677 56.8802C203.397 54.5335 202.266 52.2295 201.285 49.9682C200.346 47.7069 199.578 45.7229 198.981 44.0162L198.917 43.8242C198.32 45.7869 197.722 47.5789 197.125 49.2002C196.528 50.7789 196.016 52.0589 195.589 53.0402C194.522 55.5575 193.136 57.8615 191.429 59.9522C189.765 62.0429 187.952 63.6855 185.989 64.8802C184.026 66.1175 182.064 66.7362 180.101 66.7362C178.181 66.7362 176.346 66.0109 174.597 64.5602C172.89 63.1522 171.418 60.8055 170.181 57.5202C169.84 56.5815 169.605 55.6215 169.477 54.6402C169.306 53.6589 169.221 52.6562 169.221 51.6322C169.221 49.7975 169.434 47.9842 169.861 46.1922C170.245 44.4002 170.778 42.7789 171.461 41.3282C171.93 40.2189 172.592 39.0455 173.445 37.8082C174.341 36.5709 175.194 35.5682 176.005 34.8002C176.218 34.5869 176.517 34.3522 176.901 34.0962C177.328 33.8402 177.605 33.7122 177.733 33.7122C177.776 33.7122 177.797 33.7335 177.797 33.7762C177.797 33.9042 177.434 34.3522 176.709 35.1202C174.832 37.0402 173.466 39.3442 172.613 42.0322C171.76 44.7202 171.333 47.4295 171.333 50.1602C171.333 53.2322 171.781 55.9842 172.677 58.4162C173.658 61.1469 174.789 63.0669 176.069 64.1762C177.349 65.2855 178.714 65.8402 180.165 65.8402C181.53 65.8402 182.896 65.4135 184.261 64.5602C185.626 63.7495 186.906 62.6829 188.101 61.3602C189.082 60.2935 190.085 58.7789 191.109 56.8162C192.176 54.8962 193.2 52.6989 194.181 50.2242C195.205 47.7495 196.122 45.1469 196.933 42.4162C197.957 39.1309 198.768 35.8242 199.365 32.4962C200.005 29.1255 200.325 26.0749 200.325 23.3442C200.325 21.4669 200.154 19.8029 199.813 18.3522C199.472 16.9015 198.938 15.7282 198.213 14.8322C197.786 14.3629 197.317 14.1282 196.805 14.1282C196.293 14.1282 195.781 14.3415 195.269 14.7682C194.501 15.3229 193.797 16.1975 193.157 17.3922C192.56 18.5869 192.026 19.9309 191.557 21.4242C191.088 22.9175 190.725 24.4535 190.469 26.0322C190.213 27.6109 190.085 29.0829 190.085 30.4482C190.085 31.4295 190.17 32.3255 190.341 33.1362C190.512 33.9469 190.746 34.5869 191.045 35.0562C191.429 35.6109 191.834 35.8882 192.261 35.8882C192.432 35.8882 192.581 35.8669 192.709 35.8242C192.88 35.7815 193.008 35.7602 193.093 35.7602C193.306 35.7602 193.413 35.8242 193.413 35.9522C193.413 36.0802 193.242 36.2082 192.901 36.3362C192.602 36.4642 192.218 36.5282 191.749 36.5282C191.408 36.5282 191.066 36.4642 190.725 36.3362C189.786 35.9522 189.104 35.2269 188.677 34.1602C188.293 33.0509 188.101 31.7709 188.101 30.3202C188.101 28.6135 188.336 26.8002 188.805 24.8802C189.317 22.9602 190 21.1469 190.853 19.4402C191.706 17.7335 192.666 16.3469 193.733 15.2802C194.8 14.1709 195.909 13.6162 197.061 13.6162C197.872 13.6162 198.682 13.9575 199.493 14.6402C200.602 15.5789 201.392 16.9015 201.861 18.6082C202.33 20.2722 202.565 22.1495 202.565 24.2402C202.565 26.7149 202.288 29.4029 201.733 32.3042C201.221 35.1629 200.602 37.9149 199.877 40.5602C201.584 37.4455 203.632 34.6295 206.021 32.1122C208.453 29.5522 211.12 27.5255 214.021 26.0322C216.965 24.4962 220.037 23.7282 223.237 23.7282C224.09 23.7282 224.965 23.7922 225.861 23.9202C226.8 24.0482 227.717 24.2615 228.613 24.5602C229.04 24.6882 229.253 25.0082 229.253 25.5202C229.253 25.9042 229.125 26.2455 228.869 26.5442C228.656 26.8429 228.357 26.9282 227.973 26.8002C226.522 26.3735 225.008 26.1602 223.429 26.1602C221.082 26.1602 218.757 26.6295 216.453 27.5682C214.149 28.4642 211.952 29.7015 209.861 31.2802C207.77 32.8162 205.85 34.5869 204.101 36.5922C202.394 38.5549 200.965 40.6242 199.813 42.8002L199.749 42.9922L200.005 43.5682C200.56 44.8055 201.328 46.2349 202.309 47.8562C203.29 49.4349 204.4 51.0989 205.637 52.8482C206.917 54.5975 208.218 56.2829 209.541 57.9042C210.864 59.5682 212.165 61.0615 213.445 62.3842C214.725 63.7069 215.877 64.7309 216.901 65.4562C217.669 66.0109 218.565 66.5655 219.589 67.1202C220.656 67.7175 221.701 68.0162 222.725 68.0162C224.133 68.0162 225.072 67.4402 225.541 66.2882C226.053 65.1362 226.309 63.9629 226.309 62.7682C226.309 61.4029 226.096 60.0589 225.669 58.7362C225.242 57.4135 224.645 56.1975 223.877 55.0882C223.749 54.8749 223.685 54.7469 223.685 54.7042C223.685 54.5762 223.749 54.5122 223.877 54.5122C224.09 54.5122 224.346 54.6615 224.645 54.9602C225.498 55.9842 226.181 57.1789 226.693 58.5442C227.205 59.9095 227.461 61.2749 227.461 62.6402C227.461 64.7309 226.864 66.4802 225.669 67.8882C224.474 69.3389 222.853 70.0642 220.805 70.0642Z" fill="#111111"/>
<path d="M137.464 55.9199C136.696 55.9199 136.141 55.5999 135.8 54.9599C135.458 54.2773 135.288 53.4879 135.288 52.5919C135.288 51.4399 135.48 50.0959 135.864 48.5599C136.29 47.0239 136.845 45.4453 137.528 43.8239C138.21 42.1599 138.978 40.6453 139.832 39.2799C140.728 37.8719 141.666 36.7413 142.648 35.8879C143.629 34.9919 144.589 34.5439 145.528 34.5439C146.381 34.5439 147.106 34.9279 147.704 35.6959C148.344 36.4213 148.664 37.2533 148.664 38.1919C148.664 38.7466 148.578 39.2159 148.408 39.5999C148.237 39.9413 148.045 40.1119 147.832 40.1119C147.661 40.1119 147.512 39.9839 147.384 39.7279C146.957 38.7466 146.488 38.0426 145.976 37.6159C145.506 37.1893 145.016 36.9759 144.504 36.9759C143.65 36.9759 142.797 37.4666 141.944 38.4479C141.133 39.3866 140.472 40.4746 139.96 41.7119C139.533 42.6506 139.128 43.7813 138.744 45.1039C138.402 46.3839 138.104 47.6639 137.848 48.9439C137.634 50.1813 137.528 51.2053 137.528 52.0159C137.528 53.4666 137.869 54.1919 138.552 54.1919C139.405 54.1919 140.493 53.2533 141.816 51.3759C142.797 50.0106 143.672 48.4319 144.44 46.6399C145.25 44.8479 145.933 43.2906 146.488 41.9679C146.701 41.5413 146.936 41.2639 147.192 41.1359C147.448 41.0079 147.682 40.9439 147.896 40.9439C148.408 40.9439 148.728 41.1573 148.856 41.5839C149.026 42.0106 149.112 42.3733 149.112 42.6719C149.112 43.7813 149.005 44.7839 148.792 45.6799C148.578 46.5333 148.472 47.5786 148.472 48.8159C148.472 49.7119 148.536 50.5439 148.664 51.3119C148.834 52.0373 149.112 52.3999 149.496 52.3999C149.965 52.3999 150.562 51.8026 151.288 50.6079C151.458 50.2666 151.714 50.0959 152.056 50.0959C152.44 50.0959 152.632 50.2879 152.632 50.6719C152.632 51.2266 152.248 51.8239 151.48 52.4639C150.712 53.0613 149.944 53.3599 149.176 53.3599C148.152 53.3599 147.426 52.9333 147 52.0799C146.274 50.6719 145.912 49.4133 145.912 48.3039C145.912 47.1519 145.89 46.3626 145.848 45.9359C145.634 46.4479 145.229 47.2586 144.632 48.3679C144.034 49.4346 143.33 50.5653 142.52 51.7599C141.709 52.9119 140.856 53.8933 139.96 54.7039C139.064 55.5146 138.232 55.9199 137.464 55.9199Z" fill="#111111"/>
<path d="M110.469 83.3121C108.805 83.3121 107.461 82.8641 106.437 81.9681C105.413 81.1148 104.901 79.9628 104.901 78.5121C104.901 77.7868 105.05 76.9761 105.349 76.0801C105.647 75.2268 106.117 74.3308 106.757 73.3921C107.738 71.9414 109.146 70.3841 110.981 68.7201C112.858 67.0988 115.141 65.5628 117.829 64.1121C120.559 62.7041 123.674 61.6374 127.173 60.9121C127.215 60.4428 127.237 59.9521 127.237 59.4401C127.237 58.9708 127.237 58.5014 127.237 58.0321C127.237 54.5761 127.002 51.4401 126.533 48.6241C126.063 45.7654 125.53 43.3121 124.933 41.2641C123.226 45.4881 121.711 49.0081 120.389 51.8241C119.066 54.5974 118.341 56.9228 118.213 58.8001C118.17 59.0988 117.978 59.4188 117.637 59.7601C117.338 60.1441 116.997 60.3361 116.613 60.3361C116.314 60.3361 116.015 60.1228 115.717 59.6961C115.461 59.3121 115.333 58.6508 115.333 57.7121C115.333 56.7308 115.439 55.4508 115.653 53.8721C115.866 52.2934 115.973 50.7788 115.973 49.3281C115.973 47.9628 115.781 46.7681 115.397 45.7441C115.013 44.7201 114.266 44.1868 113.157 44.1441C112.261 44.1441 111.429 44.5708 110.661 45.4241C110.49 45.5948 110.362 45.6801 110.277 45.6801C110.149 45.6801 110.085 45.5734 110.085 45.3601C110.085 45.1468 110.149 44.9121 110.277 44.6561C110.618 43.8028 111.237 43.2054 112.133 42.8641C113.071 42.5228 113.839 42.3521 114.437 42.3521C115.973 42.3521 117.018 42.7788 117.573 43.6321C118.17 44.4428 118.469 45.5308 118.469 46.8961C118.469 48.1334 118.298 49.5628 117.957 51.1841C117.658 52.7628 117.338 54.4268 116.997 56.1761C117.85 54.5974 118.938 52.4001 120.261 49.5841C121.583 46.7681 123.034 43.5894 124.613 40.0481L124.037 38.3841V38.1921C124.037 37.7654 124.165 37.4454 124.421 37.2321C124.719 37.0188 125.018 36.9121 125.317 36.9121C125.573 36.9121 125.829 36.9761 126.085 37.1041C126.341 37.2321 126.511 37.4241 126.597 37.6801C127.109 38.8321 127.535 40.4108 127.877 42.4161C128.261 44.4214 128.538 46.5974 128.709 48.9441C128.922 51.2481 129.029 53.5308 129.029 55.7921C129.029 57.4988 128.965 59.0988 128.837 60.5921C129.903 60.3788 130.97 60.2294 132.037 60.1441C133.103 60.0588 134.234 59.9734 135.429 59.8881H135.685C136.069 59.8881 136.261 59.9734 136.261 60.1441C136.261 60.4854 135.813 60.6988 134.917 60.7841C133.893 60.8694 132.847 60.9761 131.781 61.1041C130.757 61.2748 129.711 61.4881 128.645 61.7441C127.749 66.6508 126.341 70.5761 124.421 73.5201C122.543 76.5068 120.602 78.7468 118.597 80.2401C117.146 81.3068 115.717 82.0748 114.309 82.5441C112.943 83.0561 111.663 83.3121 110.469 83.3121ZM109.957 81.9681C110.682 81.9681 111.514 81.8188 112.453 81.5201C113.434 81.2214 114.458 80.7521 115.525 80.1121C118.938 78.1068 121.583 75.5681 123.461 72.4961C125.338 69.4668 126.533 66.0108 127.045 62.1281C124.783 62.7254 122.501 63.5788 120.197 64.6881C117.893 65.8401 115.738 67.1628 113.733 68.6561C111.77 70.1921 110.085 71.8774 108.677 73.7121C107.951 74.6508 107.418 75.5468 107.077 76.4001C106.735 77.2534 106.565 78.0428 106.565 78.7681C106.565 79.7494 106.863 80.5174 107.461 81.0721C108.058 81.6694 108.89 81.9681 109.957 81.9681Z" fill="#111111"/>
<path d="M103.169 35.0561C102.785 35.0561 102.507 34.8641 102.337 34.4801C102.209 34.0535 102.145 33.7548 102.145 33.5841C102.145 32.9015 102.337 32.2615 102.721 31.6641C103.147 31.0241 103.617 30.6828 104.129 30.6401H104.321C104.833 30.6401 105.174 30.7681 105.345 31.0241C105.558 31.2375 105.665 31.5148 105.665 31.8561C105.665 32.4961 105.387 33.2001 104.833 33.9681C104.278 34.6935 103.723 35.0561 103.169 35.0561ZM99.9045 57.9681C98.4538 57.9681 97.4725 57.4135 96.9605 56.3041C96.4485 55.1948 96.1925 53.9148 96.1925 52.4641C96.1925 51.0135 96.3418 49.4988 96.6405 47.9201C96.9818 46.2988 97.3445 44.8268 97.7285 43.5041C98.1552 42.1815 98.4752 41.2428 98.6885 40.6881C99.1578 39.7068 99.6272 38.8748 100.097 38.1921C100.566 37.4668 101.078 37.1041 101.633 37.1041C102.017 37.1041 102.294 37.2535 102.465 37.5521C102.678 37.8081 102.785 38.1495 102.785 38.5761C102.785 39.4295 102.55 40.3041 102.081 41.2001C101.611 42.0535 101.185 42.8641 100.801 43.6321C99.9472 45.3815 99.2645 46.9388 98.7525 48.3041C98.2832 49.6695 98.0485 51.3761 98.0485 53.4241C98.0485 54.7468 98.1765 55.7068 98.4325 56.3041C98.7312 56.9015 99.1365 57.2001 99.6485 57.2001C100.331 57.2001 101.121 56.8161 102.017 56.0481C102.913 55.2375 103.83 54.1708 104.769 52.8481C105.707 51.5255 106.539 50.0961 107.265 48.5601C107.734 47.5788 108.097 47.0881 108.353 47.0881C108.523 47.0881 108.609 47.2588 108.609 47.6001C108.609 48.0695 108.417 48.7521 108.033 49.6481C107.691 50.5015 107.265 51.3761 106.753 52.2721C106.283 53.1681 105.835 53.8721 105.409 54.3841C104.683 55.3228 103.851 56.1548 102.913 56.8801C101.974 57.6055 100.971 57.9681 99.9045 57.9681Z" fill="#111111"/>
<path d="M85.4805 67.6323C84.4991 67.6323 83.7524 67.227 83.2404 66.4163C82.7711 65.6057 82.5365 64.667 82.5365 63.6003C82.5365 62.3203 82.7711 60.8483 83.2404 59.1843C83.7524 57.563 84.3711 55.899 85.0965 54.1923C85.8218 52.443 86.5684 50.7577 87.3364 49.1363C88.1471 47.515 88.8511 46.0643 89.4484 44.7843C90.0884 43.5043 90.5151 42.523 90.7285 41.8403C90.9845 41.0723 91.1124 40.4963 91.1124 40.1123C91.1124 39.6857 90.9631 39.4723 90.6645 39.4723C90.3231 39.4723 89.8111 39.7497 89.1284 40.3043C88.4884 40.8163 87.8485 41.3923 87.2085 42.0323C86.6111 42.6723 86.1845 43.1417 85.9285 43.4403C84.5631 44.9763 83.3258 46.683 82.2165 48.5603C81.1498 50.4377 80.4885 52.0377 80.2325 53.3603C80.1898 53.5737 80.1044 53.9577 79.9764 54.5123C79.8911 55.067 79.6991 55.323 79.4005 55.2803C78.9738 55.195 78.6751 54.939 78.5044 54.5123C78.3764 54.043 78.2911 53.6163 78.2485 53.2323C78.2485 53.019 78.2271 52.8057 78.1844 52.5923C78.1844 52.3363 78.1844 52.0803 78.1844 51.8243C78.1844 49.7337 78.4191 47.3657 78.8885 44.7203C79.3578 42.075 79.9551 39.3657 80.6805 36.5923C81.4485 33.819 82.2591 31.2377 83.1124 28.8483C83.9658 26.459 84.7764 24.475 85.5444 22.8963C85.9284 22.1283 86.3551 21.403 86.8244 20.7203C87.2938 19.995 87.7631 19.6323 88.2325 19.6323C88.5311 19.6323 88.7871 19.7817 89.0005 20.0803C89.2565 20.379 89.3845 20.635 89.3845 20.8483C89.3845 21.019 89.0858 21.7017 88.4884 22.8963C87.9338 24.0483 87.2085 25.5843 86.3125 27.5043C85.4165 29.3817 84.4991 31.5363 83.5604 33.9683C82.6644 36.4003 81.8538 39.003 81.1284 41.7763C80.4031 44.5497 79.9124 47.3657 79.6564 50.2243C79.6564 50.267 79.6351 50.4803 79.5925 50.8643C79.5498 51.2483 79.5071 51.6323 79.4644 52.0163C79.4644 52.4003 79.4644 52.5923 79.4644 52.5923V52.5283H79.5285C79.6138 52.0163 79.7631 51.5257 79.9764 51.0563C80.2324 50.587 80.4885 50.139 80.7445 49.7123C82.0245 47.1523 83.6671 44.699 85.6724 42.3523C86.6538 41.243 87.6778 40.283 88.7445 39.4723C89.8111 38.619 90.9204 38.1923 92.0724 38.1923C92.5418 38.1923 92.9471 38.3203 93.2885 38.5763C93.6298 38.8323 93.8005 39.323 93.8005 40.0483C93.8005 40.987 93.4805 42.0963 92.8405 43.3763C92.2431 44.6137 91.4964 45.915 90.6004 47.2803C89.7471 48.603 88.9578 49.8617 88.2325 51.0563C87.2511 52.7203 86.3551 54.491 85.5444 56.3683C84.7764 58.203 84.3924 60.123 84.3924 62.1283C84.3924 62.7257 84.4351 63.3657 84.5204 64.0483C84.6484 64.731 84.8405 65.307 85.0965 65.7763C85.3951 66.2883 85.8005 66.5443 86.3125 66.5443C86.6538 66.5443 86.9738 66.4377 87.2725 66.2243C87.6138 66.0537 87.8911 65.883 88.1044 65.7123C88.4884 65.3283 88.7445 65.1363 88.8725 65.1363C89.0005 65.1363 89.0645 65.2003 89.0645 65.3283C89.0645 65.5843 88.9578 65.819 88.7445 66.0323C88.5311 66.2883 88.3178 66.4803 88.1044 66.6083C87.8058 66.8643 87.4005 67.099 86.8885 67.3123C86.4191 67.5257 85.9498 67.6323 85.4805 67.6323Z" fill="#111111"/>
<path d="M60.894 58.6083C60.0833 58.6083 59.5287 58.3736 59.23 57.9043C59.0593 57.6483 58.974 57.3709 58.974 57.0723C58.974 56.7309 59.1233 56.3256 59.422 55.8563C59.7207 55.3869 60.254 54.9603 61.022 54.5763C61.1073 54.5336 61.4273 54.3416 61.982 54.0003C62.5793 53.6589 62.942 53.4669 63.07 53.4243C62.814 52.4856 62.366 51.5469 61.726 50.6083C61.086 49.6269 60.51 48.5176 59.998 47.2803C59.486 46.0429 59.2727 44.5069 59.358 42.6723C59.4433 40.9229 59.9127 39.4083 60.766 38.1283C61.6193 36.8483 62.7073 35.8029 64.03 34.9923C65.3953 34.1816 66.8033 33.6269 68.254 33.3283C68.5953 33.2429 68.958 33.1789 69.342 33.1363C69.726 33.0936 70.11 33.0723 70.494 33.0723C71.5607 33.0723 72.4993 33.2003 73.31 33.4563C74.1633 33.7123 74.8887 34.1389 75.486 34.7363C76.126 35.3336 76.446 35.9949 76.446 36.7203C76.446 37.1896 76.2967 37.6589 75.998 38.1283C75.9127 38.2989 75.7847 38.4696 75.614 38.6403C75.4433 38.8109 75.23 38.8963 74.974 38.8963C74.8033 38.8963 74.718 38.7683 74.718 38.5123C74.718 38.2989 74.7607 38.0216 74.846 37.6803C74.974 37.3389 75.0593 37.1256 75.102 37.0403C75.1447 36.9549 75.166 36.8056 75.166 36.5923C75.166 36.1229 75.038 35.7389 74.782 35.4403C74.4833 35.0563 74.014 34.8216 73.374 34.7363C72.7767 34.6509 72.222 34.6083 71.71 34.6083C70.2167 34.6083 68.7447 35.0136 67.294 35.8243C65.8433 36.6349 64.5633 37.6803 63.454 38.9603C62.3873 40.1976 61.6407 41.5203 61.214 42.9283C61.086 43.3123 61.0007 43.6963 60.958 44.0803C60.9153 44.4216 60.894 44.7629 60.894 45.1043C60.894 46.5976 61.2353 48.0269 61.918 49.3923C62.6007 50.7576 63.198 52.0163 63.71 53.1683C64.9047 52.5283 65.9713 52.0803 66.91 51.8243C67.038 51.7816 67.1447 51.7603 67.23 51.7603C67.358 51.7603 67.4433 51.7603 67.486 51.7603C67.6993 51.7603 67.806 51.8243 67.806 51.9523C67.806 52.1656 67.5287 52.3789 66.974 52.5923C66.846 52.6349 66.526 52.7629 66.014 52.9763C65.502 53.1896 64.8833 53.4883 64.158 53.8723C64.3713 54.4269 64.478 54.9603 64.478 55.4723C64.478 55.9843 64.35 56.4749 64.094 56.9443C63.838 57.4136 63.39 57.7976 62.75 58.0963C62.11 58.4376 61.4913 58.6083 60.894 58.6083ZM61.086 56.8803C61.1287 57.1789 61.3207 57.2429 61.662 57.0723C62.046 56.9016 62.43 56.6029 62.814 56.1763C63.198 55.7496 63.39 55.3229 63.39 54.8963C63.39 54.8109 63.39 54.7256 63.39 54.6403C63.4327 54.5123 63.4327 54.3843 63.39 54.2563C62.75 54.6403 62.1953 55.0669 61.726 55.5363C61.2567 55.9629 61.0433 56.4109 61.086 56.8803Z" fill="#111111"/>
<path d="M45.1845 58.6721C43.7765 58.6721 42.6245 58.2454 41.7285 57.3921C40.8751 56.5388 40.2351 55.4508 39.8085 54.1281C39.3818 52.7628 39.1685 51.3334 39.1685 49.8401C39.1685 48.9441 39.2538 48.0908 39.4245 47.2801C39.5951 46.4694 39.7658 45.8081 39.9365 45.2961C39.8938 44.9974 39.8511 44.6988 39.8085 44.4001C39.8085 44.0588 39.8085 43.7174 39.8085 43.3761C39.8085 42.1388 39.9365 40.7948 40.1925 39.3441C40.4485 37.8934 40.8538 36.5068 41.4085 35.1841C42.0058 33.8614 42.7311 32.7948 43.5845 31.9841C44.4805 31.1308 45.5685 30.7041 46.8485 30.7041C47.9578 30.7041 49.0458 31.1734 50.1125 32.1121C51.1791 33.0081 52.1178 34.3308 52.9285 36.0801C53.3978 37.0614 53.7178 38.1281 53.8885 39.2801C54.1018 40.3894 54.2085 41.5201 54.2085 42.6721C54.2085 44.2508 54.0378 45.8294 53.6965 47.4081C53.3978 48.9441 52.9498 50.3948 52.3525 51.7601C51.9258 52.7414 51.3498 53.7868 50.6245 54.8961C49.9418 55.9628 49.1525 56.8588 48.2565 57.5841C47.3605 58.3094 46.3365 58.6721 45.1845 58.6721ZM45.5045 57.2641C46.9551 57.2641 48.2991 56.2614 49.5365 54.2561C50.4325 52.8481 51.0725 51.2481 51.4565 49.4561C51.8405 47.6214 52.0325 45.7868 52.0325 43.9521C52.0325 42.5868 51.9471 41.2641 51.7765 39.9841C51.6058 38.7041 51.3498 37.4668 51.0085 36.2721C50.7098 35.2054 50.1978 34.2668 49.4725 33.4561C48.7898 32.6028 47.8085 32.2401 46.5285 32.3681C45.5045 32.4534 44.6085 32.9654 43.8405 33.9041C43.0725 34.8428 42.4751 35.9094 42.0485 37.1041C41.6645 38.2561 41.4725 39.2588 41.4725 40.1121C41.4725 40.5814 41.5365 40.9441 41.6645 41.2001C41.7925 40.8588 42.1125 40.3041 42.6245 39.5361C43.1365 38.7254 43.7125 38.0001 44.3525 37.3601C44.9925 36.6774 45.5898 36.3361 46.1445 36.3361C46.6138 36.3361 46.8485 36.5281 46.8485 36.9121C46.2938 36.9548 45.7391 37.2961 45.1845 37.9361C44.6725 38.5334 44.1818 39.2588 43.7125 40.1121C43.2858 40.9654 42.9231 41.8188 42.6245 42.6721C42.3685 43.4828 42.1765 44.1228 42.0485 44.5921C42.0058 44.7628 41.9418 44.9761 41.8565 45.2321C41.7711 45.4881 41.7285 45.7441 41.7285 46.0001C41.7285 46.2988 41.8991 46.7894 42.2405 47.4721C42.5818 48.1121 43.1365 48.7094 43.9045 49.2641C44.6725 49.8188 45.7178 50.0961 47.0405 50.0961C47.4245 50.0961 47.8298 50.0534 48.2565 49.9681C48.6831 49.8828 49.0885 49.7974 49.4725 49.7121L49.9205 49.5841C50.0058 49.5841 50.0485 49.6268 50.0485 49.7121C50.0485 49.8401 49.8991 50.0108 49.6005 50.2241C49.3445 50.3948 49.1098 50.5228 48.8965 50.6081C48.2991 50.9068 47.6378 51.0561 46.9125 51.0561C45.8458 51.0561 44.8218 50.7361 43.8405 50.0961C42.9018 49.4134 42.0698 48.6454 41.3445 47.7921C41.3018 48.1334 41.2805 48.4748 41.2805 48.8161C41.2805 49.1148 41.2805 49.4134 41.2805 49.7121C41.2805 52.1868 41.7071 54.0641 42.5605 55.3441C43.4138 56.6241 44.3951 57.2641 45.5045 57.2641Z" fill="#111111"/>
<path d="M7.6515 81.264C5.4755 81.264 3.70484 80.688 2.3395 79.536C0.974171 78.384 0.291504 76.8267 0.291504 74.864C0.291504 72.8587 1.10217 70.64 2.7235 68.208C4.04617 66.288 5.9875 64.24 8.5475 62.064C11.1075 59.9307 14.2222 57.9467 17.8915 56.112C21.5608 54.2347 25.6782 52.8053 30.2435 51.824C30.2862 51.3973 30.3075 50.9707 30.3075 50.544C30.3075 50.1173 30.3075 49.6907 30.3075 49.264C30.3075 45.5947 29.9875 41.8613 29.3475 38.064C28.7075 34.2667 27.8968 30.5547 26.9155 26.928C26.1048 31.0667 25.0168 34.9707 23.6515 38.64C22.2862 42.3093 20.8142 45.552 19.2355 48.368C17.6568 51.1413 16.0568 53.3173 14.4355 54.896C12.8568 56.4747 11.3848 57.264 10.0195 57.264C8.8675 57.264 7.86484 56.624 7.0115 55.344C6.20084 54.064 5.62484 51.9947 5.2835 49.136C5.24084 48.9227 5.2195 48.6667 5.2195 48.368C5.2195 48.0267 5.2195 47.6853 5.2195 47.344C5.2195 45.936 5.30484 44.1653 5.4755 42.032C5.64617 39.856 5.8595 37.4667 6.1155 34.864C6.3715 32.2613 6.60617 29.5733 6.8195 26.8C7.0755 24.0267 7.28884 21.3387 7.4595 18.736C7.63017 16.0907 7.7155 13.6587 7.7155 11.44C7.7155 8.79466 7.54484 6.63999 7.2035 4.97599C6.86217 3.26932 6.2435 2.41599 5.3475 2.41599C4.75017 2.41599 4.1955 2.73599 3.6835 3.37599C3.1715 3.97332 2.7235 4.65599 2.3395 5.42399C1.91284 6.14932 1.59284 6.74666 1.3795 7.21599C1.1235 7.68532 0.974171 7.77066 0.931504 7.47199C0.888837 7.30132 0.867504 7.15199 0.867504 7.02399C0.824837 6.85332 0.803504 6.68266 0.803504 6.51199C0.803504 5.70132 0.995504 4.84799 1.3795 3.95199C1.7635 3.05599 2.2755 2.28799 2.9155 1.64799C3.5555 1.00799 4.28084 0.687988 5.0915 0.687988C5.39017 0.687988 5.7315 0.751989 6.1155 0.87999C7.86484 1.56266 9.0595 3.07732 9.6995 5.42399C10.3822 7.77066 10.7235 10.5653 10.7235 13.808C10.7235 16.2827 10.5955 18.9067 10.3395 21.68C10.0835 24.4533 9.78484 27.2267 9.4435 30C9.10217 32.7733 8.8035 35.3973 8.5475 37.872C8.2915 40.3467 8.1635 42.544 8.1635 44.464C8.1635 44.9333 8.1635 45.4027 8.1635 45.872C8.20617 46.2987 8.24884 46.704 8.2915 47.088C8.63284 49.776 9.10217 51.6747 9.6995 52.784C10.2968 53.8933 10.9795 54.448 11.7475 54.448C12.6008 54.448 13.4755 53.9787 14.3715 53.04C15.3102 52.1013 16.2275 50.928 17.1235 49.52C18.0195 48.112 18.8302 46.704 19.5555 45.296C20.4515 43.632 21.3048 41.5627 22.1155 39.088C22.9262 36.5707 23.6728 33.9893 24.3555 31.344C25.0808 28.656 25.6568 26.224 26.0835 24.048L25.5075 22.192C25.4222 21.552 25.5715 21.0827 25.9555 20.784C26.3395 20.4427 26.7448 20.272 27.1715 20.272C28.0248 20.272 28.5795 20.6133 28.8355 21.296C29.4755 22.832 30.0302 24.9013 30.4995 27.504C31.0115 30.1067 31.3955 32.944 31.6515 36.016C31.9075 39.0453 32.0355 42.032 32.0355 44.976C32.0355 46.0853 32.0142 47.1947 31.9715 48.304C31.9288 49.3707 31.8648 50.3947 31.7795 51.376C33.1448 51.1627 34.5315 50.9707 35.9395 50.8C37.3902 50.5867 38.8835 50.48 40.4195 50.48H40.7395C41.2515 50.48 41.5075 50.5653 41.5075 50.736C41.5075 50.864 41.3582 51.0133 41.0595 51.184C40.7608 51.312 40.3342 51.3973 39.7795 51.44C38.4568 51.5253 37.0915 51.6747 35.6835 51.888C34.3182 52.0587 32.9528 52.3147 31.5875 52.656C30.8195 56.9653 29.7315 60.72 28.3235 63.92C26.9155 67.12 25.3368 69.808 23.5875 71.984C21.8382 74.16 20.0675 75.9093 18.2755 77.232C16.3555 78.64 14.4782 79.664 12.6435 80.304C10.8088 80.944 9.14484 81.264 7.6515 81.264ZM6.9475 80.304C7.8435 80.304 8.8675 80.1333 10.0195 79.792C11.1715 79.4507 12.4088 78.8747 13.7315 78.064C16.7182 76.3147 19.3635 74.1387 21.6675 71.536C23.9715 68.976 25.8488 66.1173 27.2995 62.96C28.7502 59.8453 29.6888 56.5813 30.1155 53.168C27.1288 53.936 24.0568 55.088 20.8995 56.624C17.7848 58.16 14.8622 59.952 12.1315 62C9.40084 64.048 7.11817 66.288 5.2835 68.72C4.30217 70 3.57684 71.2373 3.1075 72.432C2.63817 73.6693 2.4035 74.8 2.4035 75.824C2.4035 77.1467 2.80884 78.2133 3.6195 79.024C4.3875 79.8773 5.49684 80.304 6.9475 80.304Z" fill="#111111"/>
</svg>
