<svg width="106" height="23" viewBox="0 0 106 23" fill="none" xmlns="http://www.w3.org/2000/svg">
<path d="M83.7231 9.86434L102.731 4.00834L103.211 5.59234L84.2271 11.4963L83.7231 9.86434ZM102.179 4.39234H101.963L102.395 4.03234L102.779 3.74434L104.075 4.32034L103.979 4.65634C103.947 6.91234 103.867 8.78434 103.739 10.2723C103.627 11.7443 103.443 12.8243 103.187 13.5123C102.979 14.1363 102.707 14.5763 102.371 14.8323C102.035 15.0883 101.659 15.2563 101.243 15.3363C100.859 15.4003 100.395 15.4403 99.8511 15.4563C99.3231 15.4563 98.8431 15.4483 98.4111 15.4323C98.3951 15.2883 98.3631 15.1123 98.3151 14.9043C98.2671 14.6963 98.2111 14.4883 98.1471 14.2803C98.0831 14.0723 98.0111 13.9043 97.9311 13.7763C98.3631 13.8083 98.8191 13.8323 99.2991 13.8483C99.7951 13.8483 100.147 13.8483 100.355 13.8483C100.627 13.8483 100.867 13.7843 101.075 13.6563C101.283 13.5123 101.467 13.2003 101.627 12.7203C101.835 12.1123 101.971 11.1123 102.035 9.72034C102.115 8.32834 102.163 6.55234 102.179 4.39234ZM94.9071 0.0483398H96.6831V16.9443H94.9071V0.0483398ZM88.1391 1.63234H89.8911V17.8083C89.8911 18.3843 89.9631 18.8323 90.1071 19.1523C90.2511 19.4563 90.5231 19.6643 90.9231 19.7763C91.3391 19.8883 91.9471 19.9443 92.7471 19.9443C92.9711 19.9443 93.3631 19.9443 93.9231 19.9443C94.4831 19.9443 95.1151 19.9443 95.8191 19.9443C96.5231 19.9443 97.2351 19.9443 97.9551 19.9443C98.6751 19.9443 99.3231 19.9443 99.8991 19.9443C100.491 19.9443 100.931 19.9443 101.219 19.9443C101.971 19.9443 102.539 19.8323 102.923 19.6083C103.307 19.3683 103.587 18.9443 103.763 18.3363C103.939 17.7123 104.075 16.8243 104.171 15.6723C104.395 15.8323 104.667 15.9843 104.987 16.1283C105.323 16.2563 105.619 16.3443 105.875 16.3923C105.747 17.7043 105.547 18.7443 105.275 19.5123C105.003 20.2643 104.555 20.8003 103.931 21.1203C103.323 21.4403 102.435 21.6003 101.267 21.6003C101.123 21.6003 100.835 21.6003 100.403 21.6003C99.9711 21.6003 99.4591 21.6003 98.8671 21.6003C98.2751 21.6003 97.6591 21.6003 97.0191 21.6003C96.3791 21.6003 95.7631 21.6003 95.1711 21.6003C94.5791 21.6003 94.0751 21.6003 93.6591 21.6003C93.2431 21.6003 92.9631 21.6003 92.8191 21.6003C91.6351 21.6003 90.6991 21.4963 90.0111 21.2883C89.3231 21.0803 88.8351 20.6963 88.5471 20.1363C88.2751 19.5763 88.1391 18.7843 88.1391 17.7603V1.63234Z" fill="black"/>
<path d="M61.7632 9.768H79.5712V11.04H61.7632V9.768ZM66.3952 2.976H67.9792V8.04H66.3952V2.976ZM72.0352 2.976H73.6672V8.04H72.0352V2.976ZM62.0032 4.584H79.4512V8.64H62.0032V7.488H77.7712V5.736H62.0032V4.584ZM68.4832 14.376L70.1152 14.712C69.2672 15.56 68.2352 16.36 67.0192 17.112C65.8032 17.848 64.3872 18.52 62.7712 19.128C62.6592 18.952 62.4992 18.76 62.2912 18.552C62.0992 18.328 61.9152 18.16 61.7392 18.048C63.2752 17.552 64.6192 16.976 65.7712 16.32C66.9232 15.664 67.8272 15.016 68.4832 14.376ZM67.7872 15.84H76.0912V16.992H66.6592L67.7872 15.84ZM75.6832 15.84H76.0192L76.3312 15.792L77.3872 16.488C76.6512 17.32 75.7312 18.048 74.6272 18.672C73.5392 19.296 72.3232 19.832 70.9792 20.28C69.6352 20.728 68.2352 21.096 66.7792 21.384C65.3392 21.672 63.9072 21.896 62.4832 22.056C62.4192 21.864 62.3152 21.64 62.1712 21.384C62.0272 21.128 61.8832 20.912 61.7392 20.736C63.0992 20.608 64.4672 20.424 65.8432 20.184C67.2352 19.944 68.5632 19.64 69.8272 19.272C71.0912 18.888 72.2272 18.432 73.2352 17.904C74.2592 17.376 75.0752 16.776 75.6832 16.104V15.84ZM67.1152 16.632C67.7552 17.24 68.5552 17.776 69.5152 18.24C70.4912 18.688 71.5792 19.072 72.7792 19.392C73.9952 19.712 75.2752 19.968 76.6192 20.16C77.9792 20.368 79.3632 20.52 80.7712 20.616C80.5952 20.792 80.4192 21.016 80.2432 21.288C80.0672 21.576 79.9232 21.832 79.8112 22.056C78.4032 21.928 77.0112 21.736 75.6352 21.48C74.2592 21.224 72.9552 20.904 71.7232 20.52C70.4912 20.136 69.3632 19.672 68.3392 19.128C67.3312 18.584 66.4592 17.96 65.7232 17.256L67.1152 16.632ZM66.7792 11.664H68.2672V13.152C68.2672 13.392 68.3312 13.544 68.4592 13.608C68.6032 13.672 68.9152 13.704 69.3952 13.704C69.5072 13.704 69.7152 13.704 70.0192 13.704C70.3392 13.704 70.6912 13.704 71.0752 13.704C71.4592 13.704 71.8192 13.704 72.1552 13.704C72.4912 13.704 72.7312 13.704 72.8752 13.704C73.2112 13.704 73.4352 13.632 73.5472 13.488C73.6592 13.328 73.7312 12.984 73.7632 12.456C73.9232 12.552 74.1232 12.64 74.3632 12.72C74.6032 12.784 74.8272 12.84 75.0352 12.888C74.9712 13.672 74.7952 14.2 74.5072 14.472C74.2352 14.728 73.7632 14.856 73.0912 14.856C72.9952 14.856 72.8192 14.856 72.5632 14.856C72.3072 14.856 72.0112 14.856 71.6752 14.856C71.3392 14.856 71.0032 14.856 70.6672 14.856C70.3312 14.856 70.0352 14.856 69.7792 14.856C69.5232 14.856 69.3552 14.856 69.2752 14.856C68.6032 14.856 68.0832 14.808 67.7152 14.712C67.3632 14.616 67.1152 14.448 66.9712 14.208C66.8432 13.968 66.7792 13.616 66.7792 13.152V11.664ZM79.2112 9.768H79.4752L79.7632 9.72L80.9392 10.008C80.6672 10.584 80.3872 11.16 80.0992 11.736C79.8112 12.296 79.5392 12.776 79.2832 13.176L77.8432 12.816C78.0672 12.448 78.3072 12.008 78.5632 11.496C78.8192 10.984 79.0352 10.488 79.2112 10.008V9.768ZM64.7872 11.496L66.0832 12.024C65.7952 12.6 65.4272 13.168 64.9792 13.728C64.5312 14.288 63.9792 14.752 63.3232 15.12L62.1232 14.304C62.7312 13.984 63.2592 13.568 63.7072 13.056C64.1712 12.528 64.5312 12.008 64.7872 11.496ZM68.9152 11.352L69.8752 10.584C70.3552 10.808 70.8592 11.088 71.3872 11.424C71.9152 11.76 72.3312 12.056 72.6352 12.312L71.6272 13.2C71.3232 12.912 70.9072 12.592 70.3792 12.24C69.8672 11.872 69.3792 11.576 68.9152 11.352ZM74.4832 12L75.6592 11.352C76.2192 11.752 76.7792 12.232 77.3392 12.792C77.9152 13.336 78.3552 13.832 78.6592 14.28L77.3872 14.976C77.1312 14.528 76.7232 14.032 76.1632 13.488C75.6032 12.928 75.0432 12.432 74.4832 12ZM69.5872 0H71.4352V2.688H69.5872V0ZM61.4752 1.608H80.4592V3.048H61.4752V1.608ZM60.6352 1.608H62.2912V8.952C62.2912 9.912 62.2672 10.96 62.2192 12.096C62.1712 13.216 62.0592 14.368 61.8832 15.552C61.7232 16.72 61.4832 17.864 61.1632 18.984C60.8432 20.104 60.4272 21.128 59.9152 22.056C59.8192 21.96 59.6832 21.84 59.5072 21.696C59.3312 21.568 59.1552 21.44 58.9792 21.312C58.8032 21.2 58.6512 21.12 58.5232 21.072C59.0032 20.176 59.3872 19.216 59.6752 18.192C59.9632 17.152 60.1712 16.096 60.2992 15.024C60.4432 13.952 60.5312 12.896 60.5632 11.856C60.6112 10.816 60.6352 9.848 60.6352 8.952V1.608Z" fill="black"/>
<path d="M26.0211 1.68H47.3091V3.192H26.0211V1.68ZM31.6851 0H33.4611V4.968H31.6851V0ZM39.7491 0H41.5251V4.92H39.7491V0ZM27.7971 5.4H32.1171V6.888H27.7971V5.4ZM34.3491 7.776H46.7811V9.048H34.3491V7.776ZM33.6771 10.944H47.4531V12.264H33.6771V10.944ZM27.7971 9.624H32.1171V11.064H27.7971V9.624ZM27.7491 13.968H32.0931V15.384H27.7491V13.968ZM27.1251 5.4H28.6371V11.856C28.6371 12.624 28.6131 13.456 28.5651 14.352C28.5171 15.232 28.4291 16.136 28.3011 17.064C28.1731 17.976 27.9811 18.872 27.7251 19.752C27.4691 20.616 27.1411 21.416 26.7411 22.152C26.6451 22.056 26.5171 21.952 26.3571 21.84C26.1971 21.728 26.0291 21.624 25.8531 21.528C25.6931 21.432 25.5491 21.36 25.4211 21.312C25.9491 20.384 26.3251 19.368 26.5491 18.264C26.7891 17.16 26.9411 16.056 27.0051 14.952C27.0851 13.832 27.1251 12.8 27.1251 11.856V5.4ZM31.4931 5.4H33.0531V20.232C33.0531 20.648 33.0051 20.976 32.9091 21.216C32.8131 21.456 32.6291 21.64 32.3571 21.768C32.0851 21.88 31.7331 21.952 31.3011 21.984C30.8851 22.016 30.3571 22.032 29.7171 22.032C29.6851 21.824 29.6211 21.576 29.5251 21.288C29.4291 21 29.3251 20.76 29.2131 20.568C29.6611 20.584 30.0611 20.592 30.4131 20.592C30.7811 20.592 31.0211 20.592 31.1331 20.592C31.3731 20.592 31.4931 20.472 31.4931 20.232V5.4ZM42.5331 8.472C42.9811 9.848 43.6691 11.088 44.5971 12.192C45.5251 13.28 46.6531 14.064 47.9811 14.544C47.8211 14.688 47.6371 14.888 47.4291 15.144C47.2371 15.4 47.0851 15.624 46.9731 15.816C46.0291 15.416 45.1811 14.872 44.4291 14.184C43.6931 13.48 43.0531 12.672 42.5091 11.76C41.9651 10.832 41.5251 9.832 41.1891 8.76L42.5331 8.472ZM39.2931 4.848L40.8771 4.992C40.4611 7.696 39.7011 9.952 38.5971 11.76C37.5091 13.552 36.0131 15 34.1091 16.104C34.0451 15.992 33.9491 15.864 33.8211 15.72C33.6931 15.576 33.5571 15.432 33.4131 15.288C33.2691 15.128 33.1411 15 33.0291 14.904C34.8691 13.96 36.2851 12.656 37.2771 10.992C38.2851 9.328 38.9571 7.28 39.2931 4.848ZM39.5331 13.08H41.0931V20.448C41.0931 20.832 41.0451 21.128 40.9491 21.336C40.8691 21.544 40.6931 21.704 40.4211 21.816C40.1331 21.944 39.7891 22.016 39.3891 22.032C38.9891 22.048 38.5011 22.056 37.9251 22.056C37.8931 21.864 37.8291 21.64 37.7331 21.384C37.6531 21.144 37.5651 20.92 37.4691 20.712C37.8691 20.728 38.2371 20.736 38.5731 20.736C38.9091 20.736 39.1331 20.728 39.2451 20.712C39.4371 20.712 39.5331 20.616 39.5331 20.424V13.08ZM33.6291 19.608C34.3011 19.352 35.0931 19.024 36.0051 18.624C36.9331 18.224 37.8851 17.816 38.8611 17.4L39.1731 18.624C38.3411 19.024 37.5091 19.424 36.6771 19.824C35.8451 20.224 35.0611 20.592 34.3251 20.928L33.6291 19.608ZM35.4531 14.808L36.6051 14.16C36.9731 14.496 37.3171 14.888 37.6371 15.336C37.9731 15.768 38.2051 16.16 38.3331 16.512L37.1091 17.208C36.9811 16.856 36.7571 16.456 36.4371 16.008C36.1171 15.56 35.7891 15.16 35.4531 14.808ZM35.0211 5.496L36.3411 5.088C36.5971 5.456 36.8371 5.864 37.0611 6.312C37.2851 6.76 37.4371 7.152 37.5171 7.488L36.1491 7.968C36.0691 7.632 35.9251 7.232 35.7171 6.768C35.5091 6.304 35.2771 5.88 35.0211 5.496ZM40.9251 18.144L41.9331 17.208C42.5091 17.464 43.1171 17.768 43.7571 18.12C44.4131 18.472 45.0371 18.824 45.6291 19.176C46.2211 19.528 46.7091 19.848 47.0931 20.136L46.0611 21.192C45.6931 20.904 45.2211 20.576 44.6451 20.208C44.0691 19.856 43.4531 19.496 42.7971 19.128C42.1411 18.76 41.5171 18.432 40.9251 18.144ZM44.0451 14.04L45.3651 14.712C45.0131 15.16 44.6451 15.592 44.2611 16.008C43.8771 16.424 43.5251 16.784 43.2051 17.088L42.1251 16.488C42.4451 16.152 42.7891 15.752 43.1571 15.288C43.5251 14.808 43.8211 14.392 44.0451 14.04ZM43.9011 5.016L45.4371 5.448C45.1651 5.944 44.8931 6.424 44.6211 6.888C44.3491 7.336 44.0851 7.728 43.8291 8.064L42.6291 7.632C42.8531 7.264 43.0851 6.832 43.3251 6.336C43.5811 5.824 43.7731 5.384 43.9011 5.016Z" fill="black"/>
<path d="M13.973 18.216H20.501V19.944H13.973V18.216ZM0.725 4.53601H9.965V6.31201H0.725V4.53601ZM13.181 2.97601H21.365V21.528H19.565V4.72801H14.909V21.72H13.181V2.97601ZM9.485 4.53601H11.213C11.213 4.53601 11.213 4.60001 11.213 4.72801C11.213 4.84001 11.213 4.97601 11.213 5.13601C11.213 5.28001 11.213 5.39201 11.213 5.47201C11.165 8.14401 11.117 10.392 11.069 12.216C11.021 14.04 10.957 15.536 10.877 16.704C10.797 17.856 10.693 18.744 10.565 19.368C10.453 19.992 10.301 20.432 10.109 20.688C9.885 20.992 9.653 21.208 9.413 21.336C9.173 21.48 8.877 21.576 8.525 21.624C8.189 21.672 7.757 21.688 7.229 21.672C6.717 21.672 6.197 21.656 5.669 21.624C5.653 21.352 5.597 21.048 5.501 20.712C5.421 20.376 5.301 20.08 5.141 19.824C5.701 19.872 6.221 19.904 6.701 19.92C7.181 19.92 7.525 19.92 7.733 19.92C7.909 19.936 8.061 19.92 8.189 19.872C8.317 19.808 8.437 19.696 8.549 19.536C8.677 19.36 8.789 18.984 8.885 18.408C8.981 17.816 9.069 16.96 9.149 15.84C9.229 14.72 9.293 13.272 9.341 11.496C9.389 9.70401 9.437 7.52801 9.485 4.96801V4.53601ZM4.133 0.312012H5.909C5.893 2.53601 5.853 4.70401 5.789 6.81601C5.725 8.92801 5.557 10.928 5.285 12.816C5.029 14.704 4.597 16.44 3.989 18.024C3.397 19.592 2.573 20.952 1.517 22.104C1.421 21.96 1.293 21.808 1.133 21.648C0.973 21.504 0.805 21.36 0.629 21.216C0.453 21.072 0.285 20.952 0.125 20.856C0.925 20.024 1.573 19.048 2.069 17.928C2.581 16.808 2.981 15.584 3.269 14.256C3.557 12.912 3.757 11.488 3.869 9.98401C3.997 8.46401 4.069 6.89601 4.085 5.28001C4.117 3.64801 4.133 1.99201 4.133 0.312012Z" fill="black"/>
</svg>
