<svg width="188" height="57" viewBox="0 0 188 57" fill="none" xmlns="http://www.w3.org/2000/svg">
<path d="M182.047 25.624C181.663 25.624 181.385 25.432 181.215 25.048C181.087 24.6213 181.023 24.3227 181.023 24.152C181.023 23.4693 181.215 22.8293 181.599 22.232C182.025 21.592 182.495 21.2507 183.007 21.208H183.199C183.711 21.208 184.052 21.336 184.223 21.592C184.436 21.8053 184.543 22.0827 184.543 22.424C184.543 23.064 184.265 23.768 183.711 24.536C183.156 25.2613 182.601 25.624 182.047 25.624ZM178.783 48.536C177.332 48.536 176.351 47.9813 175.839 46.872C175.327 45.7627 175.071 44.4827 175.071 43.032C175.071 41.5813 175.22 40.0667 175.519 38.488C175.86 36.8667 176.223 35.3947 176.607 34.072C177.033 32.7493 177.353 31.8107 177.567 31.256C178.036 30.2747 178.505 29.4427 178.975 28.76C179.444 28.0347 179.956 27.672 180.511 27.672C180.895 27.672 181.172 27.8213 181.343 28.12C181.556 28.376 181.663 28.7173 181.663 29.144C181.663 29.9973 181.428 30.872 180.959 31.768C180.489 32.6213 180.063 33.432 179.679 34.2C178.825 35.9493 178.143 37.5067 177.631 38.872C177.161 40.2373 176.927 41.944 176.927 43.992C176.927 45.3147 177.055 46.2747 177.311 46.872C177.609 47.4693 178.015 47.768 178.527 47.768C179.209 47.768 179.999 47.384 180.895 46.616C181.791 45.8053 182.708 44.7387 183.647 43.416C184.585 42.0933 185.417 40.664 186.143 39.128C186.612 38.1467 186.975 37.656 187.231 37.656C187.401 37.656 187.487 37.8267 187.487 38.168C187.487 38.6373 187.295 39.32 186.911 40.216C186.569 41.0693 186.143 41.944 185.631 42.84C185.161 43.736 184.713 44.44 184.287 44.952C183.561 45.8907 182.729 46.7227 181.791 47.448C180.852 48.1733 179.849 48.536 178.783 48.536Z" fill="#111111"/>
<path d="M157.554 46.4878C156.786 46.4878 156.231 46.1678 155.89 45.5278C155.549 44.8452 155.378 44.0558 155.378 43.1598C155.378 42.0078 155.57 40.6638 155.954 39.1278C156.381 37.5918 156.935 36.0131 157.618 34.3918C158.301 32.7278 159.069 31.2131 159.922 29.8478C160.818 28.4398 161.757 27.3092 162.738 26.4558C163.719 25.5598 164.679 25.1118 165.618 25.1118C166.471 25.1118 167.197 25.4958 167.794 26.2638C168.434 26.9891 168.754 27.8211 168.754 28.7598C168.754 29.3145 168.669 29.7838 168.498 30.1678C168.327 30.5091 168.135 30.6798 167.922 30.6798C167.751 30.6798 167.602 30.5518 167.474 30.2958C167.047 29.3145 166.578 28.6105 166.066 28.1838C165.597 27.7571 165.106 27.5438 164.594 27.5438C163.741 27.5438 162.887 28.0345 162.034 29.0158C161.223 29.9545 160.562 31.0425 160.05 32.2798C159.623 33.2185 159.218 34.3492 158.834 35.6718C158.493 36.9518 158.194 38.2318 157.938 39.5118C157.725 40.7492 157.618 41.7731 157.618 42.5838C157.618 44.0345 157.959 44.7598 158.642 44.7598C159.495 44.7598 160.583 43.8212 161.906 41.9438C162.887 40.5785 163.762 38.9998 164.53 37.2078C165.341 35.4158 166.023 33.8585 166.578 32.5358C166.791 32.1091 167.026 31.8318 167.282 31.7038C167.538 31.5758 167.773 31.5118 167.986 31.5118C168.498 31.5118 168.818 31.7252 168.946 32.1518C169.117 32.5785 169.202 32.9411 169.202 33.2398C169.202 34.3491 169.095 35.3518 168.882 36.2478C168.669 37.1012 168.562 38.1465 168.562 39.3838C168.562 40.2798 168.626 41.1118 168.754 41.8798C168.925 42.6052 169.202 42.9678 169.586 42.9678C170.055 42.9678 170.653 42.3705 171.378 41.1758C171.549 40.8345 171.805 40.6638 172.146 40.6638C172.53 40.6638 172.722 40.8558 172.722 41.2398C172.722 41.7945 172.338 42.3918 171.57 43.0318C170.802 43.6292 170.034 43.9278 169.266 43.9278C168.242 43.9278 167.517 43.5011 167.09 42.6478C166.365 41.2398 166.002 39.9812 166.002 38.8718C166.002 37.7198 165.981 36.9305 165.938 36.5038C165.725 37.0158 165.319 37.8265 164.722 38.9358C164.125 40.0025 163.421 41.1331 162.61 42.3278C161.799 43.4798 160.946 44.4611 160.05 45.2718C159.154 46.0825 158.322 46.4878 157.554 46.4878Z" fill="#111111"/>
<path d="M132.608 56.2802C132.181 56.2802 131.84 56.1522 131.584 55.8962C131.285 55.6402 131.242 55.3416 131.456 55.0002C132.053 54.1042 132.629 52.8242 133.184 51.1602C133.696 49.5389 134.144 47.8322 134.528 46.0402C134.954 44.2482 135.296 42.6269 135.552 41.1762C135.85 39.6829 136.064 38.6376 136.192 38.0402C135.424 37.3149 135.04 36.5042 135.04 35.6082C135.04 34.9256 135.189 34.3495 135.488 33.8802C135.829 33.4109 136.085 33.1975 136.256 33.2402C136.341 33.2402 136.448 33.2829 136.576 33.3682C136.746 33.4109 136.832 33.4749 136.832 33.5602C137.088 31.5549 137.301 29.5709 137.472 27.6082C137.642 25.6029 137.728 23.7682 137.728 22.1042C137.728 20.7389 137.664 19.5229 137.536 18.4562C137.408 17.3895 137.216 16.5362 136.96 15.8962C136.704 15.2562 136.576 14.7655 136.576 14.4242C136.576 13.9549 136.704 13.7202 136.96 13.7202C137.258 13.7202 137.493 13.9122 137.664 14.2962C138.133 15.2349 138.474 16.7069 138.688 18.7122C138.944 20.7175 139.072 23.0002 139.072 25.5602C139.072 27.3095 139.029 29.1655 138.944 31.1282C138.858 33.0482 138.709 34.9682 138.496 36.8882C139.264 36.2056 140.053 35.5442 140.864 34.9042C141.674 34.2215 142.378 33.5176 142.976 32.7922V32.7282C142.976 32.6429 142.933 32.5576 142.848 32.4722C142.805 32.3869 142.784 32.2589 142.784 32.0882C142.784 31.7895 142.997 31.4269 143.424 31.0002C143.85 30.5735 144.405 29.9762 145.088 29.2082C145.813 28.3976 146.56 27.6722 147.328 27.0322C148.096 26.3495 148.8 26.0295 149.44 26.0722C149.952 26.0722 150.208 26.2429 150.208 26.5842C150.208 26.9682 149.845 27.5442 149.12 28.3122C148.394 29.0802 147.52 29.8909 146.496 30.7442C145.514 31.5976 144.597 32.3869 143.744 33.1122C142.933 33.7949 142.4 34.2642 142.144 34.5202L139.712 37.2082L138.432 38.5522C138.986 39.9602 139.626 41.3469 140.352 42.7122C141.077 44.0775 141.888 45.2082 142.784 46.1042C143.722 47.0002 144.682 47.4482 145.664 47.4482C146.688 47.4482 147.733 46.8295 148.8 45.5922C149.525 44.6962 150.144 43.6936 150.656 42.5842C151.168 41.4749 151.594 40.6429 151.936 40.0882C152.149 39.6616 152.362 39.3842 152.576 39.2562C152.789 39.0856 152.96 39.0002 153.088 39.0002C153.386 39.0002 153.493 39.2136 153.408 39.6402C153.237 40.1949 152.938 40.8989 152.512 41.7522C152.085 42.6055 151.658 43.4162 151.232 44.1842C150.848 44.9095 150.549 45.4216 150.336 45.7202C149.525 46.9149 148.714 47.7896 147.904 48.3442C147.093 48.8989 146.304 49.1762 145.536 49.1762C144.554 49.1762 143.594 48.8136 142.656 48.0882C141.717 47.3629 140.842 46.4242 140.032 45.2722C139.264 44.1202 138.56 42.9042 137.92 41.6242C137.45 44.8669 136.874 47.7682 136.192 50.3282C135.509 52.9309 134.762 54.7229 133.952 55.7042C133.568 56.0882 133.12 56.2802 132.608 56.2802Z" fill="#111111"/>
<path d="M117.779 46.4878C117.011 46.4878 116.456 46.1678 116.115 45.5278C115.774 44.8452 115.603 44.0558 115.603 43.1598C115.603 42.0078 115.795 40.6638 116.179 39.1278C116.606 37.5918 117.16 36.0131 117.843 34.3918C118.526 32.7278 119.294 31.2131 120.147 29.8478C121.043 28.4398 121.982 27.3092 122.963 26.4558C123.944 25.5598 124.904 25.1118 125.843 25.1118C126.696 25.1118 127.422 25.4958 128.019 26.2638C128.659 26.9891 128.979 27.8211 128.979 28.7598C128.979 29.3145 128.894 29.7838 128.723 30.1678C128.552 30.5091 128.36 30.6798 128.147 30.6798C127.976 30.6798 127.827 30.5518 127.699 30.2958C127.272 29.3145 126.803 28.6105 126.291 28.1838C125.822 27.7571 125.331 27.5438 124.819 27.5438C123.966 27.5438 123.112 28.0345 122.259 29.0158C121.448 29.9545 120.787 31.0425 120.275 32.2798C119.848 33.2185 119.443 34.3492 119.059 35.6718C118.718 36.9518 118.419 38.2318 118.163 39.5118C117.95 40.7492 117.843 41.7731 117.843 42.5838C117.843 44.0345 118.184 44.7598 118.867 44.7598C119.72 44.7598 120.808 43.8212 122.131 41.9438C123.112 40.5785 123.987 38.9998 124.755 37.2078C125.566 35.4158 126.248 33.8585 126.803 32.5358C127.016 32.1091 127.251 31.8318 127.507 31.7038C127.763 31.5758 127.998 31.5118 128.211 31.5118C128.723 31.5118 129.043 31.7252 129.171 32.1518C129.342 32.5785 129.427 32.9411 129.427 33.2398C129.427 34.3491 129.32 35.3518 129.107 36.2478C128.894 37.1012 128.787 38.1465 128.787 39.3838C128.787 40.2798 128.851 41.1118 128.979 41.8798C129.15 42.6052 129.427 42.9678 129.811 42.9678C130.28 42.9678 130.878 42.3705 131.603 41.1758C131.774 40.8345 132.03 40.6638 132.371 40.6638C132.755 40.6638 132.947 40.8558 132.947 41.2398C132.947 41.7945 132.563 42.3918 131.795 43.0318C131.027 43.6292 130.259 43.9278 129.491 43.9278C128.467 43.9278 127.742 43.5011 127.315 42.6478C126.59 41.2398 126.227 39.9812 126.227 38.8718C126.227 37.7198 126.206 36.9305 126.163 36.5038C125.95 37.0158 125.544 37.8265 124.947 38.9358C124.35 40.0025 123.646 41.1331 122.835 42.3278C122.024 43.4798 121.171 44.4611 120.275 45.2718C119.379 46.0825 118.547 46.4878 117.779 46.4878Z" fill="#111111"/>
<path d="M92.2399 51.6081C92.0266 51.6081 91.9199 51.4374 91.9199 51.0961C91.9199 50.7974 92.0266 50.4348 92.2399 50.0081C92.4533 49.5814 92.7306 49.2401 93.0719 48.9841C93.4133 48.7708 93.7759 48.5361 94.1599 48.2801C94.5013 48.0668 94.8426 47.8748 95.1839 47.7041C95.1413 47.6188 95.1199 47.4694 95.1199 47.2561C95.1199 46.9148 95.2266 46.7441 95.4399 46.7441C95.5679 46.7441 95.7599 46.8934 96.0159 47.1921C99.3439 45.3574 102.587 44.0134 105.744 43.1601V42.9681C105.744 41.7734 105.424 40.6641 104.784 39.6401C104.187 38.6161 103.419 37.5708 102.48 36.5041C101.541 35.4374 100.581 34.2641 99.5999 32.9841C98.6613 31.7041 97.8079 30.2534 97.0399 28.6321C96.3146 26.9681 95.8453 25.0268 95.6319 22.8081C95.5893 22.5521 95.5679 22.2961 95.5679 22.0401C95.5679 21.7841 95.5679 21.5281 95.5679 21.2721C95.5679 18.5414 96.1866 16.0668 97.4239 13.8481C98.6613 11.6294 100.261 9.73075 102.224 8.15208C104.229 6.53075 106.384 5.27209 108.688 4.37609C110.523 3.65075 112.613 3.28809 114.96 3.28809C115.813 3.28809 116.624 3.35209 117.392 3.48009C119.653 3.90675 121.232 4.65342 122.128 5.72009C123.024 6.78675 123.472 7.85342 123.472 8.92009C123.472 9.73075 123.259 10.4561 122.832 11.0961C122.405 11.7361 122.107 12.0561 121.936 12.0561C121.808 12.0561 121.744 11.9708 121.744 11.8001C121.744 11.7148 121.765 11.5868 121.808 11.4161C121.893 11.2028 121.957 10.9894 122 10.7761C122.128 10.4348 122.213 10.1361 122.256 9.88008C122.299 9.62409 122.32 9.36809 122.32 9.11209C122.32 7.74675 121.68 6.74409 120.4 6.10408C119.163 5.42142 117.84 5.08009 116.432 5.08009C116.261 5.08009 116.069 5.08009 115.856 5.08009C115.643 5.08009 115.429 5.10142 115.216 5.14408C112.528 5.52809 109.989 6.50942 107.6 8.08809C105.211 9.66675 103.184 11.7361 101.52 14.2961C99.8986 16.8134 98.8319 19.7148 98.3199 23.0001C98.2772 23.2988 98.2346 23.5974 98.1919 23.8961C98.1919 24.1948 98.1919 24.4721 98.1919 24.7281C98.1919 26.7334 98.6186 28.5681 99.4719 30.2321C100.325 31.8534 101.328 33.3681 102.48 34.7761C103.675 36.1841 104.805 37.5494 105.872 38.8721C106.939 40.1521 107.664 41.4321 108.048 42.7121C108.901 42.5414 109.733 42.4348 110.544 42.3921C111.355 42.3494 112.144 42.3494 112.912 42.3921C113.509 42.4774 113.808 42.6481 113.808 42.9041C113.808 43.1601 113.381 43.2881 112.528 43.2881C111.931 43.2881 111.269 43.3308 110.544 43.4161C109.819 43.4588 109.051 43.5868 108.24 43.8001C108.283 43.9281 108.304 44.0561 108.304 44.1841C108.304 44.3121 108.304 44.4188 108.304 44.5041C108.304 44.9308 108.24 45.3788 108.112 45.8481C107.557 47.5548 106.555 48.8134 105.104 49.6241C103.653 50.4348 102.181 50.8401 100.688 50.8401C99.2373 50.8401 98.0213 50.5414 97.0399 49.9441C96.6986 49.7734 96.3786 49.5388 96.0799 49.2401C95.5253 49.5388 94.9706 49.8801 94.4159 50.2641C93.8186 50.6481 93.2426 51.0321 92.6879 51.4161C92.5173 51.5441 92.3679 51.6081 92.2399 51.6081ZM100.112 49.6881C101.349 49.6881 102.565 49.2828 103.76 48.4721C104.955 47.7041 105.616 46.4028 105.744 44.5681C102.928 45.5494 100.027 46.9148 97.0399 48.6641C97.7226 49.3468 98.7466 49.6881 100.112 49.6881Z" fill="#111111"/>
<path d="M64.3375 49.24C62.9295 49.24 61.7775 48.8133 60.8815 47.96C60.0282 47.1066 59.3882 46.0186 58.9615 44.696C58.5349 43.3306 58.3215 41.9013 58.3215 40.408C58.3215 39.512 58.4069 38.6586 58.5775 37.848C58.7482 37.0373 58.9189 36.376 59.0895 35.864C59.0469 35.5653 59.0042 35.2666 58.9615 34.968C58.9615 34.6266 58.9615 34.2853 58.9615 33.944C58.9615 32.7066 59.0895 31.3626 59.3455 29.912C59.6015 28.4613 60.0069 27.0746 60.5615 25.752C61.1589 24.4293 61.8842 23.3626 62.7375 22.552C63.6335 21.6986 64.7215 21.272 66.0015 21.272C67.1109 21.272 68.1989 21.7413 69.2655 22.68C70.3322 23.576 71.2709 24.8986 72.0815 26.648C72.5509 27.6293 72.8709 28.696 73.0415 29.848C73.2549 30.9573 73.3615 32.088 73.3615 33.24C73.3615 34.8186 73.1909 36.3973 72.8495 37.976C72.5509 39.512 72.1029 40.9626 71.5055 42.328C71.0789 43.3093 70.5029 44.3546 69.7775 45.464C69.0949 46.5306 68.3055 47.4266 67.4095 48.152C66.5135 48.8773 65.4895 49.24 64.3375 49.24ZM64.6575 47.832C66.1082 47.832 67.4522 46.8293 68.6895 44.824C69.5855 43.416 70.2255 41.816 70.6095 40.024C70.9935 38.1893 71.1855 36.3546 71.1855 34.52C71.1855 33.1546 71.1002 31.832 70.9295 30.552C70.7589 29.272 70.5029 28.0346 70.1615 26.84C69.8629 25.7733 69.3509 24.8346 68.6255 24.024C67.9429 23.1706 66.9615 22.808 65.6815 22.936C64.6575 23.0213 63.7615 23.5333 62.9935 24.472C62.2255 25.4106 61.6282 26.4773 61.2015 27.672C60.8175 28.824 60.6255 29.8266 60.6255 30.68C60.6255 31.1493 60.6895 31.512 60.8175 31.768C60.9455 31.4266 61.2655 30.872 61.7775 30.104C62.2895 29.2933 62.8655 28.568 63.5055 27.928C64.1455 27.2453 64.7429 26.904 65.2975 26.904C65.7669 26.904 66.0015 27.096 66.0015 27.48C65.4469 27.5226 64.8922 27.864 64.3375 28.504C63.8255 29.1013 63.3349 29.8266 62.8655 30.68C62.4389 31.5333 62.0762 32.3866 61.7775 33.24C61.5215 34.0506 61.3295 34.6906 61.2015 35.16C61.1589 35.3306 61.0949 35.544 61.0095 35.8C60.9242 36.056 60.8815 36.312 60.8815 36.568C60.8815 36.8666 61.0522 37.3573 61.3935 38.04C61.7349 38.68 62.2895 39.2773 63.0575 39.832C63.8255 40.3866 64.8709 40.664 66.1935 40.664C66.5775 40.664 66.9829 40.6213 67.4095 40.536C67.8362 40.4506 68.2415 40.3653 68.6255 40.28L69.0735 40.152C69.1589 40.152 69.2015 40.1946 69.2015 40.28C69.2015 40.408 69.0522 40.5786 68.7535 40.792C68.4975 40.9626 68.2629 41.0906 68.0495 41.176C67.4522 41.4746 66.7909 41.624 66.0655 41.624C64.9989 41.624 63.9749 41.304 62.9935 40.664C62.0549 39.9813 61.2229 39.2133 60.4975 38.36C60.4549 38.7013 60.4335 39.0426 60.4335 39.384C60.4335 39.6826 60.4335 39.9813 60.4335 40.28C60.4335 42.7546 60.8602 44.632 61.7135 45.912C62.5669 47.192 63.5482 47.832 64.6575 47.832Z" fill="#111111"/>
<path d="M47.81 47.8319C46.274 47.8319 44.93 46.9359 43.778 45.1439C42.6687 43.3093 42.114 40.4293 42.114 36.5039C42.114 33.9439 42.434 31.8959 43.074 30.3599C43.714 28.7813 44.5033 27.6293 45.442 26.9039C46.3807 26.1786 47.2767 25.8159 48.13 25.8159C48.9833 25.8159 49.7087 26.1146 50.306 26.7119C50.9033 27.2666 51.202 28.0773 51.202 29.1439C51.202 30.1679 50.9033 31.2559 50.306 32.4079C49.7087 33.5173 48.9833 34.5413 48.13 35.4799C47.3193 36.3759 46.5087 36.9733 45.698 37.2719C45.5273 37.3573 45.314 37.3999 45.058 37.3999C44.8873 37.3999 44.802 37.3359 44.802 37.2079C44.802 36.8666 45.1433 36.4826 45.826 36.0559C46.6793 35.4586 47.49 34.5626 48.258 33.3679C49.026 32.1306 49.41 31.0426 49.41 30.1039C49.41 29.5493 49.282 29.1226 49.026 28.8239C48.77 28.4826 48.4713 28.3119 48.13 28.3119C47.49 28.3119 46.786 28.8239 46.018 29.8479C45.2927 30.8293 44.7593 32.5359 44.418 34.9679C44.3327 35.6506 44.2473 36.3119 44.162 36.9519C44.1193 37.5493 44.098 38.1466 44.098 38.7439C44.098 41.1333 44.4607 43.0106 45.186 44.3759C45.9113 45.6986 46.8713 46.3599 48.066 46.3599C49.09 46.3599 50.242 45.7626 51.522 44.5679C52.802 43.3306 54.0607 41.4106 55.298 38.8079C55.5967 38.1253 55.938 37.7839 56.322 37.7839C56.578 37.7839 56.706 37.9546 56.706 38.2959C56.706 38.5946 56.6207 38.9146 56.45 39.2559C55.3407 41.9866 53.9967 44.0986 52.418 45.5919C50.8393 47.0853 49.3033 47.8319 47.81 47.8319Z" fill="#111111"/>
<path d="M2.59198 54.488C2.12265 54.488 1.73865 54.3386 1.43998 54.04C1.09865 53.784 0.927979 53.4213 0.927979 52.952C0.927979 52.3546 1.22665 51.6506 1.82398 50.84C2.37865 50.0293 3.31731 49.1333 4.63998 48.152C4.85331 47.5973 5.00265 47.0853 5.08798 46.616C5.21598 46.1466 5.32265 45.6346 5.40798 45.08C5.70665 43.2026 6.23998 41.304 7.00798 39.384C7.77598 37.4213 8.54398 35.5866 9.31198 33.88C8.50131 33.7093 7.69065 33.0693 6.87998 31.96C6.11198 30.8506 5.72798 29.6773 5.72798 28.44C5.72798 28.1413 5.79198 27.6506 5.91998 26.968C6.04798 26.2426 6.26131 25.88 6.55998 25.88C6.94398 25.88 7.13598 26.2 7.13598 26.84C7.13598 27.48 7.13598 27.928 7.13598 28.184C7.13598 29.08 7.39198 29.976 7.90398 30.872C8.41598 31.768 9.03465 32.408 9.75998 32.792C10.4853 31.2133 11.4026 29.3573 12.512 27.224C13.6213 25.048 14.88 22.7653 16.288 20.376C17.696 17.944 19.232 15.576 20.896 13.272C22.56 10.968 24.3093 8.87729 26.144 6.99996C28.0213 5.12262 29.9626 3.62929 31.968 2.51995C33.9733 1.41062 36.0213 0.855957 38.112 0.855957C39.8186 0.855957 41.056 1.30396 41.824 2.19995C42.592 3.05329 42.976 4.22662 42.976 5.71996C42.976 7.29862 42.592 9.11196 41.824 11.16C41.056 13.208 39.968 15.3413 38.56 17.56C37.1946 19.736 35.5946 21.8693 33.76 23.96C31.9253 26.008 29.92 27.8853 27.744 29.592C25.568 31.256 23.3066 32.5786 20.96 33.56C18.6133 34.5413 16.2666 35.032 13.92 35.032C13.4506 35.032 12.9813 35.0106 12.512 34.968C12.0426 34.8826 11.5946 34.7546 11.168 34.584C10.3146 36.5893 9.52531 38.5946 8.79998 40.6C8.07465 42.6053 7.49865 44.696 7.07198 46.872C10.3573 44.8666 13.92 43.416 17.76 42.52C21.6 41.624 25.44 41.176 29.28 41.176C30.304 41.176 31.4773 41.368 32.8 41.752C34.1226 42.0933 35.2533 42.648 36.192 43.416C37.1733 44.184 37.664 45.2293 37.664 46.552C37.664 47.6186 37.5573 48.152 37.344 48.152C37.1306 48.152 36.8746 47.768 36.576 47C35.9786 45.464 35.04 44.504 33.76 44.12C32.48 43.6933 31.072 43.48 29.536 43.48C26.9333 43.48 24.6933 43.608 22.816 43.864C20.9813 44.0773 19.2746 44.4186 17.696 44.888C16.16 45.3573 14.56 45.9333 12.896 46.616C11.232 47.2986 9.26931 48.088 7.00798 48.984C6.66665 50.9466 6.02665 52.3546 5.08798 53.208C4.19198 54.0613 3.35998 54.488 2.59198 54.488ZM13.6 33.88C15.8613 33.88 18.1013 33.3893 20.32 32.408C22.5813 31.384 24.736 30.04 26.784 28.376C28.8746 26.6693 30.7946 24.792 32.544 22.744C34.2933 20.696 35.808 18.6266 37.088 16.536C38.4106 14.4026 39.4346 12.3973 40.16 10.52C40.8853 8.59996 41.248 6.97862 41.248 5.65596C41.248 4.67462 41.0133 3.90662 40.544 3.35196C40.1173 2.79729 39.4346 2.51995 38.496 2.51995C36.9173 2.51995 35.2533 3.07462 33.504 4.18396C31.7973 5.29329 30.048 6.78662 28.256 8.66396C26.464 10.5413 24.7146 12.6106 23.008 14.872C21.344 17.1333 19.7653 19.4373 18.272 21.784C16.8213 24.088 15.52 26.2853 14.368 28.376C13.216 30.424 12.32 32.152 11.68 33.56C11.8933 33.688 12.2133 33.7733 12.64 33.816C13.0666 33.8586 13.3866 33.88 13.6 33.88Z" fill="#111111"/>
</svg>
