<svg width="100" height="23" viewBox="0 0 100 23" fill="none" xmlns="http://www.w3.org/2000/svg">
<path d="M94.224 1.2959C94.176 1.6159 94.136 1.9519 94.104 2.3039C94.088 2.6399 94.08 2.9759 94.08 3.3119C94.096 3.7439 94.104 4.3279 94.104 5.0639C94.12 5.7839 94.136 6.5999 94.152 7.5119C94.168 8.4239 94.184 9.3839 94.2 10.3919C94.216 11.3999 94.232 12.4079 94.248 13.4159C94.264 14.4239 94.28 15.3919 94.296 16.3199C94.312 17.2479 94.32 18.0879 94.32 18.8399C94.32 19.4639 94.136 19.9359 93.768 20.2559C93.4 20.5919 92.856 20.7599 92.136 20.7599C91.528 20.7599 90.88 20.7439 90.192 20.7119C89.52 20.6959 88.888 20.6639 88.296 20.6159L88.128 18.6479C88.704 18.7439 89.296 18.8159 89.904 18.8639C90.528 18.9119 91.064 18.9359 91.512 18.9359C91.848 18.9359 92.08 18.8559 92.208 18.6959C92.336 18.5359 92.4 18.2959 92.4 17.9759C92.4 17.3999 92.4 16.7039 92.4 15.8879C92.4 15.0719 92.392 14.1919 92.376 13.2479C92.376 12.2879 92.368 11.3199 92.352 10.3439C92.336 9.3679 92.32 8.4319 92.304 7.5359C92.288 6.6239 92.272 5.7999 92.256 5.0639C92.256 4.3279 92.24 3.7439 92.208 3.3119C92.176 2.8479 92.144 2.4639 92.112 2.1599C92.08 1.8399 92.04 1.5519 91.992 1.2959H94.224ZM81.336 5.4959C81.688 5.5279 82.048 5.5599 82.416 5.5919C82.8 5.6239 83.176 5.6399 83.544 5.6399C83.72 5.6399 84.088 5.6399 84.648 5.6399C85.208 5.6399 85.896 5.6399 86.712 5.6399C87.528 5.6399 88.4 5.6399 89.328 5.6399C90.256 5.6399 91.184 5.6399 92.112 5.6399C93.056 5.6399 93.928 5.6399 94.728 5.6399C95.544 5.6399 96.232 5.6399 96.792 5.6399C97.352 5.6399 97.72 5.6399 97.896 5.6399C98.216 5.6399 98.576 5.6239 98.976 5.5919C99.392 5.5439 99.712 5.5119 99.936 5.4959V7.5119C99.664 7.4959 99.336 7.4879 98.952 7.4879C98.584 7.4719 98.256 7.4639 97.968 7.4639C97.808 7.4639 97.448 7.4639 96.888 7.4639C96.344 7.4639 95.656 7.4639 94.824 7.4639C94.008 7.4639 93.128 7.4639 92.184 7.4639C91.256 7.4639 90.312 7.4639 89.352 7.4639C88.408 7.4639 87.528 7.4639 86.712 7.4639C85.896 7.4639 85.208 7.4639 84.648 7.4639C84.088 7.4639 83.736 7.4639 83.592 7.4639C83.192 7.4639 82.808 7.4719 82.44 7.4879C82.072 7.4879 81.704 7.5039 81.336 7.5359V5.4959ZM80.448 16.7039C81.728 16.0959 82.944 15.3919 84.096 14.5919C85.264 13.7759 86.344 12.9359 87.336 12.0719C88.328 11.1919 89.2 10.3279 89.952 9.4799C90.704 8.6159 91.296 7.8239 91.728 7.1039L92.688 7.0799L92.712 8.7119C92.264 9.4159 91.664 10.1999 90.912 11.0639C90.16 11.9119 89.296 12.7759 88.32 13.6559C87.36 14.5199 86.32 15.3519 85.2 16.1519C84.096 16.9519 82.976 17.6559 81.84 18.2639L80.448 16.7039Z" fill="#111111"/>
<path d="M57.312 19.3199C57.408 19.1279 57.472 18.9439 57.504 18.7679C57.536 18.5919 57.552 18.3839 57.552 18.1439C57.552 17.9039 57.552 17.4559 57.552 16.7999C57.552 16.1439 57.552 15.3599 57.552 14.4479C57.552 13.5359 57.552 12.5839 57.552 11.5919C57.552 10.5839 57.552 9.60793 57.552 8.66393C57.552 7.70393 57.552 6.85593 57.552 6.11993C57.552 5.36793 57.552 4.79993 57.552 4.41593C57.552 4.20793 57.536 3.95993 57.504 3.67193C57.488 3.38393 57.464 3.11193 57.432 2.85593C57.416 2.59993 57.384 2.39193 57.336 2.23193H59.712C59.664 2.51993 59.624 2.87193 59.592 3.28793C59.56 3.68793 59.544 4.06393 59.544 4.41593C59.544 4.73593 59.544 5.19993 59.544 5.80793C59.544 6.41593 59.544 7.11193 59.544 7.89593C59.544 8.66393 59.544 9.47994 59.544 10.3439C59.544 11.2079 59.544 12.0559 59.544 12.8879C59.544 13.7199 59.544 14.4959 59.544 15.2159C59.544 15.9199 59.544 16.5199 59.544 17.0159C59.544 17.5119 59.544 17.8479 59.544 18.0239C60.696 17.7359 61.88 17.3279 63.096 16.7999C64.328 16.2719 65.528 15.6559 66.696 14.9519C67.88 14.2319 68.984 13.4479 70.008 12.5999C71.048 11.7359 71.936 10.8159 72.672 9.83993L73.752 11.5199C72.2 13.4559 70.216 15.1519 67.8 16.6079C65.4 18.0639 62.704 19.2239 59.712 20.0879C59.584 20.1199 59.432 20.1679 59.256 20.2319C59.08 20.3119 58.896 20.4079 58.704 20.5199L57.312 19.3199Z" fill="#111111"/>
<path d="M32.4479 0.0239992H34.3199V9.36C34.3199 10.592 34.2559 11.808 34.1279 13.008C34.0159 14.192 33.7759 15.336 33.4079 16.44C33.0399 17.544 32.4879 18.584 31.7519 19.56C31.0319 20.536 30.0559 21.432 28.8239 22.248C28.7119 22.104 28.5679 21.944 28.3919 21.768C28.2159 21.608 28.0239 21.448 27.8159 21.288C27.6239 21.144 27.4479 21.024 27.2879 20.928C28.4399 20.176 29.3599 19.368 30.0479 18.504C30.7359 17.624 31.2479 16.696 31.5839 15.72C31.9359 14.728 32.1679 13.704 32.2799 12.648C32.3919 11.576 32.4479 10.48 32.4479 9.36V0.0239992ZM40.9919 0H42.8639V22.008H40.9919V0ZM27.0239 12.36H48.1919V14.184H27.0239V12.36ZM27.7919 4.896H47.6159V6.696H27.7919V4.896Z" fill="#111111"/>
<path d="M6.168 1.24794H22.104V2.90394H6.168V1.24794ZM7.92 14.9279H20.256V16.4879H7.92V14.9279ZM7.92 19.2479H20.256V20.8319H7.92V19.2479ZM7.032 6.14394H21.216V21.9119H19.488V7.75194H8.688V21.9839H7.032V6.14394ZM0.888 1.63194L1.896 0.335938C2.328 0.575937 2.784 0.839937 3.264 1.12794C3.76 1.41594 4.232 1.69594 4.68 1.96794C5.144 2.23994 5.528 2.48794 5.832 2.71194L4.752 4.17594C4.464 3.93594 4.096 3.67194 3.648 3.38394C3.216 3.07994 2.752 2.77594 2.256 2.47194C1.76 2.16794 1.304 1.88794 0.888 1.63194ZM0 8.08794L1.008 6.76794C1.456 6.97594 1.928 7.21594 2.424 7.48794C2.936 7.75994 3.432 8.03194 3.912 8.30394C4.392 8.55994 4.784 8.79194 5.088 8.99994L4.08 10.4879C3.776 10.2799 3.384 10.0399 2.904 9.76794C2.44 9.47994 1.952 9.19194 1.44 8.90394C0.944 8.59994 0.464 8.32794 0 8.08794ZM0.456 20.5919C0.84 19.9519 1.256 19.1999 1.704 18.3359C2.168 17.4719 2.64 16.5599 3.12 15.5999C3.6 14.6239 4.032 13.6799 4.416 12.7679L5.832 13.7999C5.48 14.6479 5.088 15.5359 4.656 16.4639C4.224 17.3919 3.784 18.3039 3.336 19.1999C2.888 20.0799 2.464 20.8959 2.064 21.6479L0.456 20.5919ZM11.136 2.11194H12.744V7.15194H11.136V2.11194ZM15.048 2.08794H16.68V7.19994H15.048V2.08794ZM11.352 7.03194H12.792V8.59194C12.792 9.15194 12.704 9.74394 12.528 10.3679C12.352 10.9759 12.024 11.5679 11.544 12.1439C11.08 12.7199 10.408 13.2399 9.528 13.7039C9.464 13.6079 9.36 13.4959 9.216 13.3679C9.088 13.2399 8.952 13.1119 8.808 12.9839C8.68 12.8559 8.568 12.7599 8.472 12.6959C9.256 12.2799 9.856 11.8399 10.272 11.3759C10.688 10.9119 10.968 10.4399 11.112 9.95994C11.272 9.47994 11.352 9.01594 11.352 8.56794V7.03194ZM15 7.07994H16.44V10.6799C16.44 10.8879 16.472 11.0239 16.536 11.0879C16.616 11.1359 16.8 11.1599 17.088 11.1599C17.152 11.1599 17.264 11.1599 17.424 11.1599C17.6 11.1599 17.792 11.1599 18 11.1599C18.224 11.1599 18.432 11.1599 18.624 11.1599C18.816 11.1599 18.952 11.1599 19.032 11.1599C19.208 11.1599 19.328 11.1519 19.392 11.1359C19.456 11.1199 19.504 11.0959 19.536 11.0639C19.664 11.1759 19.856 11.2879 20.112 11.3999C20.384 11.4959 20.632 11.5679 20.856 11.6159C20.76 11.9839 20.584 12.2479 20.328 12.4079C20.088 12.5519 19.728 12.6239 19.248 12.6239C19.168 12.6239 19.016 12.6239 18.792 12.6239C18.584 12.6239 18.344 12.6239 18.072 12.6239C17.816 12.6239 17.576 12.6239 17.352 12.6239C17.144 12.6239 17 12.6239 16.92 12.6239C16.408 12.6239 16.008 12.5759 15.72 12.4799C15.448 12.3679 15.256 12.1759 15.144 11.9039C15.048 11.6159 15 11.2159 15 10.7039V7.07994Z" fill="#111111"/>
</svg>
