<svg width="470" height="155" viewBox="0 0 470 155" fill="none" xmlns="http://www.w3.org/2000/svg">
<path d="M125.472 140.985L120.936 143.631C119.886 141.363 119.508 140.649 118.752 139.221C111.486 140.355 104.136 141.111 96.03 141.531C92.712 141.741 92.376 141.741 91.116 141.993L90.276 136.617C91.2 136.701 92.166 136.743 93.342 136.743C94.308 136.743 94.56 136.743 95.736 136.701C97.962 132.879 100.062 128.637 101.91 124.269C103.296 121.035 103.884 119.313 104.346 117.045L109.89 118.473C109.638 118.977 109.47 119.313 109.05 120.321C107.076 125.319 103.338 133.005 101.196 136.491C107.832 136.197 110.814 135.903 116.4 135.105C114.468 131.997 113.46 130.611 111.066 127.629L115.182 125.319C119.298 130.611 122.658 135.693 125.472 140.985ZM100.608 105.873L105.774 107.805C105.606 108.057 105.606 108.057 105.396 108.435C105.354 108.519 105.312 108.645 105.186 108.855C104.934 109.275 104.934 109.275 104.64 109.947C103.044 113.265 100.398 117.129 97.668 120.237C95.652 122.547 94.266 123.807 91.2 126.285C90.15 124.395 89.31 123.303 88.008 121.917C92.628 118.725 95.778 115.449 98.382 111.081C99.684 108.855 100.356 107.343 100.608 105.873ZM110.184 107.805L114.804 105.831C115.392 108.015 117.324 111.417 119.466 114.105C120.768 115.743 122.238 117.255 124.086 118.851C125.178 119.733 125.724 120.153 128.076 121.707C126.69 123.303 126.018 124.353 124.968 126.327C120.18 122.505 117.912 120.279 115.266 116.625C113.712 114.483 112.41 112.341 111.402 110.283C111.318 110.073 111.15 109.779 110.94 109.317C110.814 109.023 110.814 109.023 110.52 108.477C110.31 108.057 110.31 108.057 110.184 107.805ZM146.388 115.407L148.11 112.383C150.462 113.139 151.302 113.475 152.898 114.105C153.276 112.845 153.402 112.257 153.57 110.703H150.798C148.572 110.703 147.564 110.745 146.304 110.913V106.461C147.522 106.629 149.16 106.713 150.882 106.713H164.238C165.96 106.713 167.178 106.671 168.186 106.545C168.102 107.217 168.102 107.259 167.934 110.199C167.766 114.399 167.262 118.725 166.8 120.699C166.044 124.017 164.868 124.899 161.424 124.899C160.206 124.899 159.282 124.857 158.106 124.731C157.854 122.925 157.686 122.211 157.056 120.531L157.308 120.615C156.3 119.943 155.838 119.649 154.956 119.187C152.94 122.379 150.924 124.269 147.228 126.495C146.262 125.025 145.632 124.311 144.288 123.135C147.774 121.497 149.706 119.901 151.344 117.339C149.58 116.583 148.782 116.247 146.388 115.407ZM163.524 110.703H157.77C157.434 113.055 157.224 113.979 156.594 115.785C157.812 116.415 158.358 116.709 160.122 117.675L158.274 120.783C159.072 120.909 159.87 120.951 160.584 120.951C161.886 120.951 162.306 120.615 162.684 119.145C163.104 117.591 163.356 115.071 163.524 110.703ZM144.372 138.969V139.893C144.372 141.531 144.414 142.329 144.54 143.127H140.55V141.657H136.392V143.715H132.192C132.318 142.329 132.402 140.943 132.402 139.599V133.383C132.402 132.081 132.36 131.283 132.234 130.065C133.2 130.191 133.998 130.233 135.51 130.233H141.642C143.154 130.233 143.868 130.191 144.498 130.107C144.414 130.779 144.372 131.535 144.372 133.131V138.381C145.926 135.399 146.556 133.173 146.976 128.679L150.588 129.477C149.916 134.727 149.454 136.743 147.774 140.985L144.372 138.969ZM136.266 133.761V137.961H140.55V133.761H136.266ZM132.192 110.325V106.125C133.284 106.293 133.914 106.335 135.594 106.335H141.18C142.818 106.335 143.49 106.293 144.582 106.125V110.325C143.448 110.199 142.65 110.157 141.18 110.157H135.594C134.124 110.157 133.242 110.199 132.192 110.325ZM130.806 116.415V112.047C131.73 112.215 132.612 112.257 134.166 112.257H142.23C143.994 112.257 144.708 112.215 145.59 112.089V116.373C144.582 116.289 144.036 116.247 142.398 116.247H134.166C132.738 116.247 131.898 116.289 130.806 116.415ZM132.318 122.211V118.305C133.116 118.389 133.662 118.431 134.964 118.431H141.894C143.238 118.431 143.826 118.389 144.456 118.305V122.211C143.532 122.127 143.07 122.085 141.894 122.085H134.964C133.704 122.085 133.032 122.127 132.318 122.211ZM132.318 128.091V124.185C133.116 124.269 133.662 124.311 134.964 124.311H141.852C143.238 124.311 143.826 124.269 144.456 124.185V128.091C143.742 128.007 143.028 127.965 141.81 127.965H134.922C133.704 127.965 133.2 128.007 132.318 128.091ZM155.418 130.821V137.919C155.418 138.885 155.628 139.011 157.224 139.011C159.618 139.011 160.164 138.885 160.458 138.255C160.71 137.709 160.878 136.029 160.92 133.677C162.348 134.349 163.314 134.685 164.826 134.979C164.364 142.203 163.608 143.001 157.56 143.001C152.394 143.001 151.344 142.497 151.344 139.893V131.241C151.344 130.191 151.26 129.225 151.134 128.133H155.628C155.46 128.973 155.418 129.561 155.418 130.821ZM162.6 130.107L166.002 128.301C167.934 131.493 169.11 133.971 170.622 138.087L167.052 140.271C165.708 135.567 164.868 133.719 162.6 130.107ZM152.814 125.361L155.796 123.009C159.66 125.991 159.786 126.117 162.306 128.847L159.156 131.577C157.266 129.015 155.586 127.335 152.814 125.361ZM182.592 108.771L188.346 109.821C188.22 110.283 188.178 110.325 188.136 110.661L188.052 111.375L187.842 112.593L187.716 113.601C185.952 125.655 182.676 133.929 177.048 140.397C175.074 138.507 174.276 137.877 172.26 136.785C174.78 134.265 176.502 131.703 178.266 127.839C180.072 123.933 181.542 118.725 182.214 113.433C182.466 111.711 182.592 110.283 182.592 109.359C182.592 109.233 182.592 109.023 182.592 108.771ZM195.066 109.779L200.274 108.771C200.316 110.703 201.072 114.819 202.038 118.431C204.096 126.201 207.036 131.871 211.404 136.575C209.262 137.919 208.38 138.633 206.784 140.439C201.198 133.761 197.292 124.101 195.654 112.803C195.402 111.081 195.276 110.409 195.066 109.779ZM207.33 106.419C210.018 106.419 212.202 108.603 212.202 111.249C212.202 113.937 210.018 116.121 207.33 116.121C204.684 116.121 202.5 113.937 202.5 111.249C202.5 108.603 204.684 106.419 207.33 106.419ZM207.33 108.519C205.818 108.519 204.6 109.737 204.6 111.249C204.6 112.761 205.818 114.021 207.33 114.021C208.884 114.021 210.102 112.761 210.102 111.249C210.102 109.737 208.884 108.519 207.33 108.519ZM215.982 127.041V121.203C217.83 121.455 218.628 121.497 222.786 121.497H245.172C249.33 121.497 250.128 121.455 251.976 121.203V127.041C250.296 126.831 249.834 126.831 245.13 126.831H222.828C218.124 126.831 217.662 126.831 215.982 127.041ZM271.884 142.119H266.13C266.34 140.775 266.382 139.641 266.382 137.415V110.493C266.382 108.435 266.298 107.343 266.13 106.209H271.884C271.716 107.469 271.716 108.015 271.716 110.619V118.431C277.47 120.447 284.064 123.513 290.784 127.293L287.844 132.249C284.358 129.855 279.99 127.461 272.976 124.227C272.01 123.765 271.884 123.723 271.548 123.513C271.674 124.689 271.716 125.193 271.716 126.369V137.457C271.716 139.641 271.758 140.733 271.884 142.119ZM320.551 116.331H328.867C331.807 116.331 332.689 116.289 334.327 116.037V121.329C332.815 121.161 331.723 121.119 328.951 121.119H320.341C319.963 126.957 319.249 129.729 317.317 132.963C315.007 136.785 312.067 139.389 306.607 142.371C305.179 139.977 304.549 139.221 302.785 137.835C307.825 135.651 311.017 133.047 312.907 129.561C314.167 127.293 314.629 125.403 314.965 121.119H304.549C301.777 121.119 300.685 121.161 299.173 121.329V116.037C300.811 116.289 301.735 116.331 304.633 116.331H315.217C315.259 114.567 315.259 113.811 315.259 113.055V110.577C315.259 108.771 315.217 107.679 315.049 106.545H320.845C320.677 107.889 320.677 107.931 320.635 110.577L320.593 113.097C320.551 115.869 320.551 115.869 320.551 116.331ZM340.711 127.041V121.203C342.559 121.455 343.357 121.497 347.515 121.497H369.901C374.059 121.497 374.857 121.455 376.705 121.203V127.041C375.025 126.831 374.563 126.831 369.859 126.831H347.557C342.853 126.831 342.391 126.831 340.711 127.041Z" fill="black"/>
<path d="M85 93.9428H103.443L113.75 20H95.3841L85 93.9428Z" fill="#E63404"/>
<path d="M124.754 20L122.43 36.6741H147.537L124.444 93.9428H142.888L172.568 20H124.754Z" fill="#E63404"/>
<path d="M199.682 20H181.316L171.009 93.9428H216.963L219.055 79.2166H191.468L199.682 20Z" fill="#E63404"/>
<path d="M229.293 93.9428H247.736L258.043 20H239.677L229.293 93.9428Z" fill="#E63404"/>
<path d="M380.017 34.8041L382.109 20H336.156L325.849 93.9428H371.803L373.817 79.2166H346.307L348.555 63.0879H372.423L374.515 48.2837H350.57L352.507 34.8041H380.017Z" fill="#E63404"/>
<path d="M310.428 20L291.055 61.5295L282.84 20H265.404L281.601 93.9428H292.605L328.794 20H310.428Z" fill="#E63404"/>
<path d="M2.5 2.5H467.5V152.5H2.5V2.5Z" stroke="url(#paint0_linear_86_2059)" stroke-width="5"/>
<defs>
<linearGradient id="paint0_linear_86_2059" x1="0" y1="77.5" x2="470" y2="77.5" gradientUnits="userSpaceOnUse">
<stop stop-color="#FF7DD3"/>
<stop offset="0.8" stop-color="#3CE8FF"/>
</linearGradient>
</defs>
</svg>
