<svg width="1589" height="885" viewBox="0 0 1589 885" fill="none" xmlns="http://www.w3.org/2000/svg">
<g clip-path="url(#clip0_8_304)">
<rect width="1589" height="885" fill="white"/>
<g clip-path="url(#clip1_8_304)">
<path d="M1132.96 345C1161.64 345 1179.6 355.723 1192.73 372.431L1163.08 396.371C1154.32 386.147 1141.89 379.663 1126.8 379.663C1099.88 379.663 1078.98 399.613 1074.5 424.8C1070.02 449.987 1083.83 469.937 1110.75 469.937C1125.84 469.937 1140.58 463.453 1152.96 453.229L1173.36 477.169C1155.48 492.879 1132.51 504.6 1104.59 504.6C1056.79 504.6 1029.07 469.438 1037.02 424.8C1044.97 380.162 1085.17 345 1132.99 345H1132.96ZM1162.19 477.667L1150.42 463.204C1139.96 471.184 1124.59 476.919 1109.49 476.919L1105.82 497.617C1127.96 497.617 1145.82 490.635 1162.19 477.667ZM1164.63 386.147L1181.41 372.431C1170.47 358.965 1154.37 351.983 1131.71 351.983L1128.03 372.681C1142.37 372.681 1155.28 377.917 1164.63 386.147Z" fill="black"/>
<path d="M1214.17 350.067H1251L1224.49 499.533H1187.67L1214.17 350.067ZM1216.48 492.558L1225.92 439.248H1207.63L1198.19 492.558H1216.48Z" fill="black"/>
<path d="M409.401 429.003L473.801 352.304H442.068L397.268 401.878L409.401 429.003Z" fill="white"/>
<path d="M505.533 418.714L516.733 352.304H488.733L477.533 418.714H505.533Z" fill="white"/>
<path d="M559.666 413.102L570.866 352.304H596.999L586.733 413.102H559.666Z" fill="white"/>
<path d="M648.332 401.878L634.333 356.981L628.732 362.593L604.465 495.413H634.333L648.332 401.878Z" fill="white"/>
<path d="M730.466 413.102L738.867 362.593L733.268 365.399L682.867 436.486L692.2 468.288L730.466 413.102Z" fill="white"/>
<path d="M820.068 373.817L800.467 352.304L777.133 488.865V495.413L804.201 478.577L820.068 373.817Z" fill="white"/>
<path d="M918.066 495.413L940.466 455.193L918.066 451.451L887.266 495.413H918.066Z" fill="white"/>
<path d="M1025.4 495.413L1012.33 451.451H984.334L997.401 495.413H1025.4Z" fill="white"/>
<path d="M1160.73 352.304C1173.43 357.542 1182.82 368.829 1185.93 373.817L1160.73 389.718C1154.76 376.249 1130.87 373.506 1119.67 373.817L1124.33 348.563C1134.78 345.57 1152.95 349.81 1160.73 352.304Z" fill="white"/>
<path d="M1168.2 478.577L1152.33 455.193C1139.64 470.158 1115.31 473.276 1104.73 472.964L1098.2 499.154C1128.81 502.147 1157.62 486.683 1168.2 478.577Z" fill="white"/>
<path d="M1220.47 495.413L1230.73 431.809H1204.6L1194.33 495.413H1220.47Z" fill="white"/>
<path d="M409.401 429.003L473.801 352.304H442.068L397.268 401.878L409.401 429.003Z" stroke="black"/>
<path d="M505.533 418.714L516.733 352.304H488.733L477.533 418.714H505.533Z" stroke="black"/>
<path d="M559.666 413.102L570.866 352.304H596.999L586.733 413.102H559.666Z" stroke="black"/>
<path d="M648.332 401.878L634.333 356.981L628.732 362.593L604.465 495.413H634.333L648.332 401.878Z" stroke="black"/>
<path d="M730.466 413.102L738.867 362.593L733.268 365.399L682.867 436.486L692.2 468.288L730.466 413.102Z" stroke="black"/>
<path d="M820.068 373.817L800.467 352.304L777.133 488.865V495.413L804.201 478.577L820.068 373.817Z" stroke="black"/>
<path d="M918.066 495.413L940.466 455.193L918.066 451.451L887.266 495.413H918.066Z" stroke="black"/>
<path d="M1025.4 495.413L1012.33 451.451H984.334L997.401 495.413H1025.4Z" stroke="black"/>
<path d="M1160.73 352.304C1173.43 357.542 1182.82 368.829 1185.93 373.817L1160.73 389.718C1154.76 376.249 1130.87 373.506 1119.67 373.817L1124.33 348.563C1134.78 345.57 1152.95 349.81 1160.73 352.304Z" stroke="black"/>
<path d="M1168.2 478.577L1152.33 455.193C1139.64 470.158 1115.31 473.276 1104.73 472.964L1098.2 499.154C1128.81 502.147 1157.62 486.683 1168.2 478.577Z" stroke="black"/>
<path d="M1220.47 495.413L1230.73 431.809H1204.6L1194.33 495.413H1220.47Z" stroke="black"/>
<path d="M378.261 426.067L339 347.533H380.171L402.071 393.133L439.944 347.533H480.867L414.472 426.067L401.798 499.533H365.588L378.261 426.067ZM465.266 354.627H444.185L406.684 399.467L414.199 414.92L465.266 354.627Z" fill="#0A0A0A"/>
<path d="M484.244 347.533H520.735L504.164 442.787C500.64 463.053 508.913 470.147 521.66 470.147C535.657 470.147 545.629 463.053 549.154 442.787L565.725 347.533H602.466L584.92 448.36C578.672 484.333 548.629 504.6 515.636 504.6C482.644 504.6 460.599 483.32 466.673 448.36L484.244 347.533ZM501.115 408.587L510.512 354.627H492.267L482.869 408.587H501.115ZM582.596 408.587L591.993 354.627H573.498L564.1 408.587H582.596Z" fill="black"/>
<path d="M626.526 347.533H660.995L685.125 429.613L738.236 347.533H772.2L745.583 499.533H708.849L720.7 431.893L675.009 504.6H668.972L648.845 431.387L636.918 499.533H599.934L626.526 347.533ZM628.816 492.44L643.36 409.347L632.264 367.8L610.424 492.44H628.791H628.816ZM724.145 412.133L730.889 373.627L688.621 439.747L693.376 460.013L724.145 412.133Z" fill="black"/>
<path d="M795.767 347.533H893.799L888.145 380.467H826.41L821.718 407.827H878.761L873.181 440.253H816.14L811.448 467.613H875.896L870.414 499.533H769.666L795.767 347.533ZM801.077 474.707L818.486 373.373L803.668 354.627L779.987 492.44L801.052 474.707H801.077Z" fill="black"/>
<path d="M979.93 345H986.494L1033.13 499.533H993.238L988.415 484.08H928.57L918.495 499.533H878.6L979.93 345ZM913.167 492.555L935.767 457.909H915.313L892.462 492.555H913.167ZM980.46 457.909L969.805 420.023H969.301L944.856 457.909H980.46ZM1000.53 492.555H1021.49L1011.01 457.909H990.56L1000.53 492.555Z" fill="black"/>
<path d="M901.4 576.467L907.04 556.345L944.411 556.755L949.106 540.015C949.559 538.4 949.014 537.053 946.77 537.027L916.157 536.693L921.822 516.507L952.434 516.84C973.269 517.074 975.397 520.554 969.985 539.823L965.172 556.988L970.945 557.052L965.304 577.173L901.4 576.467Z" fill="#070002"/>
<path d="M1021.28 571.52L1022.44 567.373C1023.4 563.924 1023.1 562.229 1019.66 560.427L1017.87 559.491L1010.99 565.411C1000.29 574.605 991.793 577.481 983.489 577.388L975.258 577.295L980.824 557.458L983.149 557.488C989.482 557.554 993.951 555.699 999.593 550.968L1001.07 549.717L987.861 541.95L994.055 519.863L1019.02 534.813L1031.08 524.784C1039.45 517.82 1046.16 515.278 1056.72 515.4L1051 535.804C1046.64 535.757 1044.37 536.787 1041.21 539.507L1035.26 544.588L1035.94 544.949C1043.73 549.126 1046.65 556.573 1043.39 568.173L1042.39 571.762L1021.28 571.529L1021.28 571.52Z" fill="#070002"/>
<path d="M1102.28 561.435L1094.82 561.355C1090.7 571.751 1081.5 578.358 1067.71 578.204L1055.33 578.064L1060.91 558.152L1070.13 558.249C1074.85 558.299 1075.97 557.045 1077.06 553.173L1080.41 541.213L1106.03 541.495C1107.44 541.511 1109.42 540.469 1110.02 538.364L1110.43 536.891L1067.01 536.417L1072.28 517.636L1136.03 518.34L1130.23 539.019C1126.23 553.302 1116 561.581 1102.28 561.435Z" fill="#070002"/>
<path d="M1207.88 547.98C1200.58 565.965 1188.81 579.241 1157.01 578.895L1138.08 578.69L1143.41 559.694L1159.95 559.879C1177.26 560.068 1183.6 555.34 1189.25 542.984C1197.08 525.919 1206.23 519.951 1218.88 519.667L1212.57 542.179C1210.39 542.651 1209.67 543.699 1207.9 547.984L1207.88 547.98ZM1145.61 554.85L1150.29 538.177L1179.21 538.493L1174.54 555.166L1145.61 554.85ZM1151.03 535.502L1155.73 518.762L1184.65 519.079L1179.96 535.818L1151.03 535.502Z" fill="#070002"/>
</g>
<rect width="1589" height="120" fill="#0D0D0D"/>
<rect y="765" width="1589" height="120" fill="#0D0D0D"/>
</g>
<defs>
<clipPath id="clip0_8_304">
<rect width="1589" height="885" fill="white"/>
</clipPath>
<clipPath id="clip1_8_304">
<rect width="912" height="250.8" fill="white" transform="translate(339 345)"/>
</clipPath>
</defs>
</svg>
