<?xml version="1.0" encoding="utf-8"?>
<svg xmlns="http://www.w3.org/2000/svg" width="39" height="39" viewBox="0 0 39 39" fill="none">
<path d="M19.4727 1.38538C9.51215 1.38538 1.4375 9.46002 1.4375 19.4205C1.4375 29.381 9.51215 37.4557 19.4727 37.4557C29.4332 37.4557 37.5078 29.381 37.5078 19.4205C37.5078 9.46002 29.4335 1.38538 19.4727 1.38538ZM32.1455 21.1033L21.1554 32.0934C20.226 33.0229 18.719 33.0229 17.7899 32.0934L6.79982 21.1033C5.87032 20.1738 5.87032 18.6669 6.79982 17.7377L17.7899 6.74769C18.7194 5.8182 20.2263 5.8182 21.1554 6.74769L32.1455 17.7377C33.075 18.6672 33.075 20.1742 32.1455 21.1033Z" fill="#ddd"/>
</svg>