<svg width="25" height="25" viewBox="0 0 25 25" fill="none" xmlns="http://www.w3.org/2000/svg">
<path d="M13.0774 19.4442C12.9222 19.5934 12.7152 19.6768 12.4999 19.6768C12.2846 19.6768 12.0776 19.5934 11.9224 19.4442L7.49491 15.1834C6.95408 14.6634 7.32241 13.75 8.07241 13.75H10.6249C10.6802 13.75 10.7332 13.7281 10.7722 13.689C10.8113 13.6499 10.8332 13.597 10.8332 13.5417V5.41671C10.8332 5.19569 10.921 4.98373 11.0773 4.82745C11.2336 4.67117 11.4456 4.58337 11.6666 4.58337H13.3332C13.5543 4.58337 13.7662 4.67117 13.9225 4.82745C14.0788 4.98373 14.1666 5.19569 14.1666 5.41671V13.5417C14.1666 13.597 14.1885 13.6499 14.2276 13.689C14.2667 13.7281 14.3197 13.75 14.3749 13.75H16.9274C17.6774 13.75 18.0457 14.6634 17.5049 15.1834L13.0774 19.4442Z" fill="#1B0220"/>
<path d="M4.16667 25C3.61949 25 3.07768 24.8922 2.57215 24.6828C2.06663 24.4734 1.6073 24.1665 1.22039 23.7796C0.438987 22.9982 0 21.9384 0 20.8333V4.16667C0 3.0616 0.438987 2.00179 1.22039 1.22039C1.6073 0.833479 2.06663 0.526564 2.57215 0.317169C3.07768 0.107775 3.61949 0 4.16667 0H20.8333C21.9384 0 22.9982 0.438988 23.7796 1.22039C24.561 2.00179 25 3.0616 25 4.16667V20.8333C25 21.3805 24.8922 21.9223 24.6828 22.4278C24.4734 22.9334 24.1665 23.3927 23.7796 23.7796C23.3927 24.1665 22.9334 24.4734 22.4278 24.6828C21.9223 24.8922 21.3805 25 20.8333 25H4.16667ZM1.66667 20.8333C1.66667 21.4964 1.93006 22.1323 2.3989 22.6011C2.86774 23.0699 3.50363 23.3333 4.16667 23.3333H20.8333C21.4964 23.3333 22.1323 23.0699 22.6011 22.6011C23.0699 22.1323 23.3333 21.4964 23.3333 20.8333V4.16667C23.3333 3.50363 23.0699 2.86774 22.6011 2.3989C22.1323 1.93006 21.4964 1.66667 20.8333 1.66667H4.16667C3.50363 1.66667 2.86774 1.93006 2.3989 2.3989C1.93006 2.86774 1.66667 3.50363 1.66667 4.16667V20.8333Z" fill="#1B0220"/>
</svg>
