<svg width="195" height="154" viewBox="0 0 195 154" fill="none" xmlns="http://www.w3.org/2000/svg">
<path d="M195 0.219237L190.723 10.9451L183.573 1.87843L195 0.219237ZM1 153.219L0.380749 152.434L1.94527 151.2L2.56452 151.985L3.18377 152.771L1.61925 154.004L1 153.219ZM5.69355 149.518L5.0743 148.732L8.20333 146.265L8.82258 147.05L9.44183 147.835L6.3128 150.303L5.69355 149.518ZM11.9516 144.582L11.3324 143.797L14.4614 141.329L15.0806 142.114L15.6999 142.9L12.5709 145.367L11.9516 144.582ZM18.2097 139.647L17.5904 138.861L20.7195 136.394L21.3387 137.179L21.958 137.964L18.8289 140.432L18.2097 139.647ZM24.4677 134.711L23.8485 133.926L26.9775 131.458L27.5968 132.243L28.216 133.029L25.087 135.496L24.4677 134.711ZM30.7258 129.776L30.1066 128.99L33.2356 126.523L33.8548 127.308L34.4741 128.093L31.3451 130.561L30.7258 129.776ZM36.9839 124.84L36.3646 124.055L39.4937 121.587L40.1129 122.372L40.7322 123.158L37.6031 125.625L36.9839 124.84ZM43.2419 119.905L42.6227 119.12L45.7517 116.652L46.371 117.437L46.9902 118.222L43.8612 120.69L43.2419 119.905ZM49.5 114.969L48.8808 114.184L52.0098 111.716L52.629 112.501L53.2483 113.287L50.1193 115.754L49.5 114.969ZM55.7581 110.034L55.1388 109.249L58.2678 106.781L58.8871 107.566L59.5063 108.351L56.3773 110.819L55.7581 110.034ZM62.0161 105.098L61.3969 104.313L64.5259 101.845L65.1452 102.631L65.7644 103.416L62.6354 105.883L62.0161 105.098ZM68.2742 100.163L67.6549 99.3776L70.784 96.9099L71.4032 97.695L72.0225 98.4802L68.8934 100.948L68.2742 100.163ZM74.5323 95.2273L73.913 94.4421L77.042 91.9744L77.6613 92.7596L78.2805 93.5448L75.1515 96.0125L74.5323 95.2273ZM80.7903 90.2918L80.1711 89.5066L83.3001 87.0389L83.9194 87.8241L84.5386 88.6093L81.4096 91.077L80.7903 90.2918ZM87.0484 85.3563L86.4291 84.5711L89.5582 82.1034L90.1774 82.8886L90.7967 83.6738L87.6676 86.1415L87.0484 85.3563ZM93.3065 80.4209L92.6872 79.6357L95.8162 77.1679L96.4355 77.9531L97.0547 78.7383L93.9257 81.206L93.3065 80.4209ZM99.5645 75.4854L98.9453 74.7002L102.074 72.2324L102.694 73.0176L103.313 73.8028L100.184 76.2706L99.5645 75.4854ZM105.823 70.5499L105.203 69.7647L108.332 67.297L108.952 68.0821L109.571 68.8673L106.442 71.3351L105.823 70.5499ZM112.081 65.6144L111.461 64.8292L114.59 62.3615L115.21 63.1467L115.829 63.9319L112.7 66.3996L112.081 65.6144ZM118.339 60.6789L117.719 59.8937L120.848 57.426L121.468 58.2112L122.087 58.9964L118.958 61.4641L118.339 60.6789ZM124.597 55.7434L123.978 54.9582L127.107 52.4905L127.726 53.2757L128.345 54.0609L125.216 56.5286L124.597 55.7434ZM130.855 50.808L130.236 50.0228L133.365 47.555L133.984 48.3402L134.603 49.1254L131.474 51.5931L130.855 50.808ZM137.113 45.8725L136.494 45.0873L139.623 42.6195L140.242 43.4047L140.861 44.1899L137.732 46.6577L137.113 45.8725ZM143.371 40.937L142.752 40.1518L145.881 37.684L146.5 38.4692L147.119 39.2544L143.99 41.7222L143.371 40.937ZM149.629 36.0015L149.01 35.2163L152.139 32.7486L152.758 33.5338L153.377 34.319L150.248 36.7867L149.629 36.0015ZM155.887 31.066L155.268 30.2808L158.397 27.8131L159.016 28.5983L159.635 29.3835L156.506 31.8512L155.887 31.066ZM162.145 26.1305L161.526 25.3453L164.655 22.8776L165.274 23.6628L165.893 24.448L162.764 26.9157L162.145 26.1305ZM168.403 21.195L167.784 20.4098L170.913 17.9421L171.532 18.7273L172.152 19.5125L169.022 21.9802L168.403 21.195ZM174.661 16.2596L174.042 15.4744L177.171 13.0066L177.79 13.7918L178.41 14.577L175.281 17.0448L174.661 16.2596ZM180.919 11.3241L180.3 10.5389L183.429 8.07114L184.048 8.85633L184.668 9.64153L181.539 12.1093L180.919 11.3241ZM187.177 6.38859L186.558 5.6034L189.687 3.13565L190.306 3.92085L190.926 4.70604L187.797 7.17379L187.177 6.38859ZM195 0.219237L190.723 10.9451L183.573 1.87843L195 0.219237ZM1 153.219L0.380749 152.434L1.94527 151.2L2.56452 151.985L3.18377 152.771L1.61925 154.004L1 153.219ZM5.69355 149.518L5.0743 148.732L8.20333 146.265L8.82258 147.05L9.44183 147.835L6.3128 150.303L5.69355 149.518ZM11.9516 144.582L11.3324 143.797L14.4614 141.329L15.0806 142.114L15.6999 142.9L12.5709 145.367L11.9516 144.582ZM18.2097 139.647L17.5904 138.861L20.7195 136.394L21.3387 137.179L21.958 137.964L18.8289 140.432L18.2097 139.647ZM24.4677 134.711L23.8485 133.926L26.9775 131.458L27.5968 132.243L28.216 133.029L25.087 135.496L24.4677 134.711ZM30.7258 129.776L30.1066 128.99L33.2356 126.523L33.8548 127.308L34.4741 128.093L31.3451 130.561L30.7258 129.776ZM36.9839 124.84L36.3646 124.055L39.4937 121.587L40.1129 122.372L40.7322 123.158L37.6031 125.625L36.9839 124.84ZM43.2419 119.905L42.6227 119.12L45.7517 116.652L46.371 117.437L46.9902 118.222L43.8612 120.69L43.2419 119.905ZM49.5 114.969L48.8808 114.184L52.0098 111.716L52.629 112.501L53.2483 113.287L50.1193 115.754L49.5 114.969ZM55.7581 110.034L55.1388 109.249L58.2678 106.781L58.8871 107.566L59.5063 108.351L56.3773 110.819L55.7581 110.034ZM62.0161 105.098L61.3969 104.313L64.5259 101.845L65.1452 102.631L65.7644 103.416L62.6354 105.883L62.0161 105.098ZM68.2742 100.163L67.6549 99.3776L70.784 96.9099L71.4032 97.695L72.0225 98.4802L68.8934 100.948L68.2742 100.163ZM74.5323 95.2273L73.913 94.4421L77.042 91.9744L77.6613 92.7596L78.2805 93.5448L75.1515 96.0125L74.5323 95.2273ZM80.7903 90.2918L80.1711 89.5066L83.3001 87.0389L83.9194 87.8241L84.5386 88.6093L81.4096 91.077L80.7903 90.2918ZM87.0484 85.3563L86.4291 84.5711L89.5582 82.1034L90.1774 82.8886L90.7967 83.6738L87.6676 86.1415L87.0484 85.3563ZM93.3065 80.4209L92.6872 79.6357L95.8162 77.1679L96.4355 77.9531L97.0547 78.7383L93.9257 81.206L93.3065 80.4209ZM99.5645 75.4854L98.9453 74.7002L102.074 72.2324L102.694 73.0176L103.313 73.8028L100.184 76.2706L99.5645 75.4854ZM105.823 70.5499L105.203 69.7647L108.332 67.297L108.952 68.0821L109.571 68.8673L106.442 71.3351L105.823 70.5499ZM112.081 65.6144L111.461 64.8292L114.59 62.3615L115.21 63.1467L115.829 63.9319L112.7 66.3996L112.081 65.6144ZM118.339 60.6789L117.719 59.8937L120.848 57.426L121.468 58.2112L122.087 58.9964L118.958 61.4641L118.339 60.6789ZM124.597 55.7434L123.978 54.9582L127.107 52.4905L127.726 53.2757L128.345 54.0609L125.216 56.5286L124.597 55.7434ZM130.855 50.808L130.236 50.0228L133.365 47.555L133.984 48.3402L134.603 49.1254L131.474 51.5931L130.855 50.808ZM137.113 45.8725L136.494 45.0873L139.623 42.6195L140.242 43.4047L140.861 44.1899L137.732 46.6577L137.113 45.8725ZM143.371 40.937L142.752 40.1518L145.881 37.684L146.5 38.4692L147.119 39.2544L143.99 41.7222L143.371 40.937ZM149.629 36.0015L149.01 35.2163L152.139 32.7486L152.758 33.5338L153.377 34.319L150.248 36.7867L149.629 36.0015ZM155.887 31.066L155.268 30.2808L158.397 27.8131L159.016 28.5983L159.635 29.3835L156.506 31.8512L155.887 31.066ZM162.145 26.1305L161.526 25.3453L164.655 22.8776L165.274 23.6628L165.893 24.448L162.764 26.9157L162.145 26.1305ZM168.403 21.195L167.784 20.4098L170.913 17.9421L171.532 18.7273L172.152 19.5125L169.022 21.9802L168.403 21.195ZM174.661 16.2596L174.042 15.4744L177.171 13.0066L177.79 13.7918L178.41 14.577L175.281 17.0448L174.661 16.2596ZM180.919 11.3241L180.3 10.5389L183.429 8.07114L184.048 8.85633L184.668 9.64153L181.539 12.1093L180.919 11.3241ZM187.177 6.38859L186.558 5.6034L189.687 3.13565L190.306 3.92085L190.926 4.70604L187.797 7.17379L187.177 6.38859Z" fill="#FC0F3E"/>
</svg>
