<svg width="195" height="155" viewBox="0 0 195 155" fill="none" xmlns="http://www.w3.org/2000/svg">
<path d="M195 154.219L190.723 143.493L183.573 152.56L195 154.219ZM1 1.21924L0.380749 2.00443L1.94527 3.2383L2.56452 2.45311L3.18377 1.66792L1.61925 0.434045L1 1.21924ZM5.69355 4.92085L5.0743 5.70604L8.20333 8.17379L8.82258 7.38859L9.44183 6.6034L6.3128 4.13566L5.69355 4.92085ZM11.9516 9.85634L11.3324 10.6415L14.4614 13.1093L15.0806 12.3241L15.6999 11.5389L12.5709 9.07114L11.9516 9.85634ZM18.2097 14.7918L17.5904 15.577L20.7195 18.0448L21.3387 17.2596L21.958 16.4744L18.8289 14.0066L18.2097 14.7918ZM24.4677 19.7273L23.8485 20.5125L26.9775 22.9802L27.5968 22.195L28.216 21.4099L25.087 18.9421L24.4677 19.7273ZM30.7258 24.6628L30.1066 25.448L33.2356 27.9157L33.8548 27.1305L34.4741 26.3453L31.3451 23.8776L30.7258 24.6628ZM36.9839 29.5983L36.3646 30.3835L39.4937 32.8512L40.1129 32.066L40.7322 31.2808L37.6031 28.8131L36.9839 29.5983ZM43.2419 34.5338L42.6227 35.3189L45.7517 37.7867L46.371 37.0015L46.9902 36.2163L43.8612 33.7486L43.2419 34.5338ZM49.5 39.4692L48.8808 40.2544L52.0098 42.7222L52.629 41.937L53.2483 41.1518L50.1193 38.684L49.5 39.4692ZM55.7581 44.4047L55.1388 45.1899L58.2678 47.6577L58.8871 46.8725L59.5063 46.0873L56.3773 43.6195L55.7581 44.4047ZM62.0161 49.3402L61.3969 50.1254L64.5259 52.5931L65.1452 51.8079L65.7644 51.0228L62.6354 48.555L62.0161 49.3402ZM68.2742 54.2757L67.6549 55.0609L70.784 57.5286L71.4032 56.7434L72.0225 55.9582L68.8934 53.4905L68.2742 54.2757ZM74.5323 59.2112L73.913 59.9964L77.042 62.4641L77.6613 61.6789L78.2805 60.8937L75.1515 58.426L74.5323 59.2112ZM80.7903 64.1467L80.1711 64.9319L83.3001 67.3996L83.9194 66.6144L84.5386 65.8292L81.4096 63.3615L80.7903 64.1467ZM87.0484 69.0821L86.4291 69.8673L89.5582 72.3351L90.1774 71.5499L90.7967 70.7647L87.6676 68.2969L87.0484 69.0821ZM93.3065 74.0176L92.6872 74.8028L95.8162 77.2706L96.4355 76.4854L97.0547 75.7002L93.9257 73.2324L93.3065 74.0176ZM99.5645 78.9531L98.9453 79.7383L102.074 82.206L102.694 81.4208L103.313 80.6357L100.184 78.1679L99.5645 78.9531ZM105.823 83.8886L105.203 84.6738L108.332 87.1415L108.952 86.3563L109.571 85.5711L106.442 83.1034L105.823 83.8886ZM112.081 88.8241L111.461 89.6093L114.59 92.077L115.21 91.2918L115.829 90.5066L112.7 88.0389L112.081 88.8241ZM118.339 93.7596L117.719 94.5448L120.848 97.0125L121.468 96.2273L122.087 95.4421L118.958 92.9744L118.339 93.7596ZM124.597 98.695L123.978 99.4802L127.107 101.948L127.726 101.163L128.345 100.378L125.216 97.9098L124.597 98.695ZM130.855 103.631L130.236 104.416L133.365 106.883L133.984 106.098L134.603 105.313L131.474 102.845L130.855 103.631ZM137.113 108.566L136.494 109.351L139.623 111.819L140.242 111.034L140.861 110.249L137.732 107.781L137.113 108.566ZM143.371 113.501L142.752 114.287L145.881 116.754L146.5 115.969L147.119 115.184L143.99 112.716L143.371 113.501ZM149.629 118.437L149.01 119.222L152.139 121.69L152.758 120.905L153.377 120.12L150.248 117.652L149.629 118.437ZM155.887 123.372L155.268 124.158L158.397 126.625L159.016 125.84L159.635 125.055L156.506 122.587L155.887 123.372ZM162.145 128.308L161.526 129.093L164.655 131.561L165.274 130.776L165.893 129.99L162.764 127.523L162.145 128.308ZM168.403 133.243L167.784 134.029L170.913 136.496L171.532 135.711L172.152 134.926L169.022 132.458L168.403 133.243ZM174.661 138.179L174.042 138.964L177.171 141.432L177.79 140.647L178.41 139.861L175.281 137.394L174.661 138.179ZM180.919 143.114L180.3 143.9L183.429 146.367L184.048 145.582L184.668 144.797L181.539 142.329L180.919 143.114ZM187.177 148.05L186.558 148.835L189.687 151.303L190.306 150.518L190.926 149.732L187.797 147.265L187.177 148.05ZM195 154.219L190.723 143.493L183.573 152.56L195 154.219ZM1 1.21924L0.380749 2.00443L1.94527 3.2383L2.56452 2.45311L3.18377 1.66792L1.61925 0.434045L1 1.21924ZM5.69355 4.92085L5.0743 5.70604L8.20333 8.17379L8.82258 7.38859L9.44183 6.6034L6.3128 4.13566L5.69355 4.92085ZM11.9516 9.85634L11.3324 10.6415L14.4614 13.1093L15.0806 12.3241L15.6999 11.5389L12.5709 9.07114L11.9516 9.85634ZM18.2097 14.7918L17.5904 15.577L20.7195 18.0448L21.3387 17.2596L21.958 16.4744L18.8289 14.0066L18.2097 14.7918ZM24.4677 19.7273L23.8485 20.5125L26.9775 22.9802L27.5968 22.195L28.216 21.4099L25.087 18.9421L24.4677 19.7273ZM30.7258 24.6628L30.1066 25.448L33.2356 27.9157L33.8548 27.1305L34.4741 26.3453L31.3451 23.8776L30.7258 24.6628ZM36.9839 29.5983L36.3646 30.3835L39.4937 32.8512L40.1129 32.066L40.7322 31.2808L37.6031 28.8131L36.9839 29.5983ZM43.2419 34.5338L42.6227 35.3189L45.7517 37.7867L46.371 37.0015L46.9902 36.2163L43.8612 33.7486L43.2419 34.5338ZM49.5 39.4692L48.8808 40.2544L52.0098 42.7222L52.629 41.937L53.2483 41.1518L50.1193 38.684L49.5 39.4692ZM55.7581 44.4047L55.1388 45.1899L58.2678 47.6577L58.8871 46.8725L59.5063 46.0873L56.3773 43.6195L55.7581 44.4047ZM62.0161 49.3402L61.3969 50.1254L64.5259 52.5931L65.1452 51.8079L65.7644 51.0228L62.6354 48.555L62.0161 49.3402ZM68.2742 54.2757L67.6549 55.0609L70.784 57.5286L71.4032 56.7434L72.0225 55.9582L68.8934 53.4905L68.2742 54.2757ZM74.5323 59.2112L73.913 59.9964L77.042 62.4641L77.6613 61.6789L78.2805 60.8937L75.1515 58.426L74.5323 59.2112ZM80.7903 64.1467L80.1711 64.9319L83.3001 67.3996L83.9194 66.6144L84.5386 65.8292L81.4096 63.3615L80.7903 64.1467ZM87.0484 69.0821L86.4291 69.8673L89.5582 72.3351L90.1774 71.5499L90.7967 70.7647L87.6676 68.2969L87.0484 69.0821ZM93.3065 74.0176L92.6872 74.8028L95.8162 77.2706L96.4355 76.4854L97.0547 75.7002L93.9257 73.2324L93.3065 74.0176ZM99.5645 78.9531L98.9453 79.7383L102.074 82.206L102.694 81.4208L103.313 80.6357L100.184 78.1679L99.5645 78.9531ZM105.823 83.8886L105.203 84.6738L108.332 87.1415L108.952 86.3563L109.571 85.5711L106.442 83.1034L105.823 83.8886ZM112.081 88.8241L111.461 89.6093L114.59 92.077L115.21 91.2918L115.829 90.5066L112.7 88.0389L112.081 88.8241ZM118.339 93.7596L117.719 94.5448L120.848 97.0125L121.468 96.2273L122.087 95.4421L118.958 92.9744L118.339 93.7596ZM124.597 98.695L123.978 99.4802L127.107 101.948L127.726 101.163L128.345 100.378L125.216 97.9098L124.597 98.695ZM130.855 103.631L130.236 104.416L133.365 106.883L133.984 106.098L134.603 105.313L131.474 102.845L130.855 103.631ZM137.113 108.566L136.494 109.351L139.623 111.819L140.242 111.034L140.861 110.249L137.732 107.781L137.113 108.566ZM143.371 113.501L142.752 114.287L145.881 116.754L146.5 115.969L147.119 115.184L143.99 112.716L143.371 113.501ZM149.629 118.437L149.01 119.222L152.139 121.69L152.758 120.905L153.377 120.12L150.248 117.652L149.629 118.437ZM155.887 123.372L155.268 124.158L158.397 126.625L159.016 125.84L159.635 125.055L156.506 122.587L155.887 123.372ZM162.145 128.308L161.526 129.093L164.655 131.561L165.274 130.776L165.893 129.99L162.764 127.523L162.145 128.308ZM168.403 133.243L167.784 134.029L170.913 136.496L171.532 135.711L172.152 134.926L169.022 132.458L168.403 133.243ZM174.661 138.179L174.042 138.964L177.171 141.432L177.79 140.647L178.41 139.861L175.281 137.394L174.661 138.179ZM180.919 143.114L180.3 143.9L183.429 146.367L184.048 145.582L184.668 144.797L181.539 142.329L180.919 143.114ZM187.177 148.05L186.558 148.835L189.687 151.303L190.306 150.518L190.926 149.732L187.797 147.265L187.177 148.05Z" fill="#FC0F3E"/>
</svg>
