<svg width="400" height="600" viewBox="0 0 400 600" fill="none" xmlns="http://www.w3.org/2000/svg">
<rect width="400" height="600" fill="white" fill-opacity="0.9"/>
<path d="M200 248V108C260.648 108 314.398 147.054 333.139 204.738L200 248Z" fill="#2CA4DE"/>
<path d="M200 248L333.139 204.738C351.88 262.421 331.349 325.612 282.284 361.263L200 248Z" fill="#228FCE"/>
<path d="M200 248L282.284 361.262C233.219 396.913 166.78 396.913 117.716 361.262L200 248Z" fill="#1E7DBE"/>
<path d="M200 248L117.716 361.263C68.6508 325.612 48.1201 262.421 66.8612 204.738L200 248Z" fill="#1A68AE"/>
<path d="M200.001 248L66.8617 204.738C85.6028 147.054 139.353 108 200.001 108V248Z" fill="#18539E"/>
<path d="M324.225 248C324.225 316.608 268.608 372.225 200 372.225C131.392 372.225 75.7747 316.608 75.7747 248C75.7747 179.392 131.392 123.774 200 123.774C268.608 123.774 324.225 179.392 324.225 248Z" fill="white"/>
<path d="M276.066 276.261V234.143H286.186V250.199H300.037V234.143H310.1V276.261H300.037V258.962H286.186V276.261H276.066Z" fill="#2C2C2C"/>
<path d="M249.176 276.261V242.567H237.812V234.143H270.716V242.567H259.296V276.261H249.176Z" fill="#2C2C2C"/>
<path d="M206.561 276.261V234.143H233.245V242.567H216.681V250.369H230.758V258.849H216.681V267.781H233.867V276.261H206.561Z" fill="#2C2C2C"/>
<path d="M158.471 276.261L150.839 234.143H161.128L163.785 253.365C164.351 257.775 164.916 262.184 165.481 266.707H165.708C166.499 262.184 167.347 257.718 168.195 253.365L172.492 234.143H181.029L185.382 253.365C186.23 257.662 186.965 262.184 187.813 266.707H188.095C188.604 262.184 189.17 257.718 189.678 253.365L192.449 234.143H202.003L194.71 276.261H181.99L178.202 257.944C177.523 254.722 176.958 251.33 176.562 248.164H176.336C175.771 251.33 175.262 254.722 174.64 257.944L170.965 276.261H158.471Z" fill="#2C2C2C"/>
<path d="M124.099 237.157H94.5258L87.1324 222.366H116.71L124.099 237.157Z" fill="#18539E"/>
<path d="M138.888 237.157L131.495 251.944L124.098 237.157L116.708 222.366H131.495L138.888 237.157Z" fill="#1A68AE"/>
<path d="M146.288 251.943L138.891 266.73H124.1L131.497 251.943L138.891 237.156L146.288 251.943Z" fill="#1E7DBE"/>
<path d="M138.889 266.73L131.496 281.521H101.93L109.32 266.73H138.889Z" fill="#228FCE"/>
<path d="M109.313 266.73H109.321L101.931 281.521H87.1324L94.5258 266.73L109.313 237.156L116.71 251.943L109.313 266.73Z" fill="#2CA4DE"/>
<path d="M100.169 482H90.2625L90.325 474.688H100.169C102.627 474.688 104.7 474.135 106.387 473.031C108.075 471.906 109.346 470.271 110.2 468.125C111.075 465.979 111.512 463.385 111.512 460.344V458.125C111.512 455.792 111.262 453.74 110.762 451.969C110.283 450.198 109.565 448.708 108.606 447.5C107.648 446.292 106.471 445.385 105.075 444.781C103.679 444.156 102.075 443.844 100.262 443.844H90.075V436.5H100.262C103.304 436.5 106.085 437.021 108.606 438.062C111.148 439.083 113.346 440.552 115.2 442.469C117.054 444.385 118.481 446.677 119.481 449.344C120.502 451.99 121.012 454.938 121.012 458.188V460.344C121.012 463.573 120.502 466.521 119.481 469.188C118.481 471.854 117.054 474.146 115.2 476.062C113.367 477.958 111.169 479.427 108.606 480.469C106.065 481.49 103.252 482 100.169 482ZM95.575 436.5V482H86.2V436.5H95.575ZM143.319 473.25L150.35 448.188H156.069L154.225 458.031L147.194 482H142.413L143.319 473.25ZM139.756 448.188L144.788 473.219L145.256 482H139.631L131.069 448.188H139.756ZM162.506 472.812L167.413 448.188H176.131L167.569 482H161.975L162.506 472.812ZM156.85 448.188L163.85 473.062L164.819 482H160.006L152.975 458.062L151.194 448.188H156.85ZM218.156 474.688V482H193.938V474.688H218.156ZM197 436.5V482H187.625V436.5H197ZM215 455.031V462.156H193.938V455.031H215ZM218.125 436.5V443.844H193.938V436.5H218.125ZM250.994 436.5V482H241.65V436.5H250.994ZM264.994 436.5V443.844H227.869V436.5H264.994ZM307.081 455.031V462.344H283.331V455.031H307.081ZM286.112 436.5V482H276.737V436.5H286.112ZM313.769 436.5V482H304.425V436.5H313.769Z" fill="#080A1A"/>
</svg>
