<svg width="400" height="600" viewBox="0 0 400 600" fill="none" xmlns="http://www.w3.org/2000/svg">
<rect width="400" height="600" fill="white" fill-opacity="0.9"/>
<g clip-path="url(#clip0_61_956)">
<mask id="mask0_61_956" style="mask-type:luminance" maskUnits="userSpaceOnUse" x="28" y="44" width="162" height="162">
<path d="M190 44.6133H28.6133V206H190V44.6133Z" fill="white"/>
</mask>
<g mask="url(#mask0_61_956)">
<path d="M109.307 206C153.872 206 190 169.873 190 125.307C190 80.7414 153.872 44.6138 109.307 44.6138C64.7409 44.6138 28.6133 80.7414 28.6133 125.307C28.6133 169.873 64.7409 206 109.307 206Z" fill="#FFCD00"/>
<path d="M129.698 150.219V131.242L126.811 131.561L115.476 132.952V151.872L129.698 150.219Z" fill="#000A23"/>
<path d="M60.7966 165.471L60.9546 121.501L63.2816 123.38L78.1763 135.935L78.0207 179.407L60.7966 165.471Z" fill="#000A23"/>
<path d="M160.81 127.88C160.81 127.88 160.806 127.882 160.804 127.884L138.602 130.314L134.274 130.754L133.992 130.778V154.049L111.182 156.69V133.478L82.4702 136.981L82.3096 181.48L165.277 172.225L165.437 127.382L160.81 127.88Z" fill="#000A23"/>
<path d="M146.269 104.992C144.252 96.6741 143.511 87.2473 144.184 79.5206L155.883 78.2163L146.269 104.992Z" fill="#000A23"/>
<path d="M68.5954 74.669L149.42 65.672C150.091 65.5974 150.826 66.0638 151.328 66.4772C152.312 67.2822 154.123 69.2464 156.066 73.894L73.2342 83.1085C71.8501 79.553 70.2764 76.6976 68.5891 74.674L68.5954 74.669Z" fill="#000A23"/>
<path d="M128.221 106.623L128.505 108.097L125.084 101.514L116.879 100.642L113.515 106.278L106.713 106.436L99.08 99.9761L91.1613 99.7536L79.9788 110.161L73.8877 117.294L68.4084 101.21L73.367 87.4173L139.879 80.0078C139.205 89.384 140.375 100.756 143.203 110.063H142.581L140.127 103.34L129.527 104.994L128.221 106.623Z" fill="#000A23"/>
<path d="M69.5231 85.4244C67.32 79.4508 65.1737 77.0732 64.0678 76.1796C63.2462 75.5136 62.5294 75.262 61.943 75.425C60.8699 75.7284 59.6653 77.4247 58.7553 79.9577C55.833 88.0989 56.0718 102.574 59.0043 114.711L69.5231 85.4244Z" fill="#000A23"/>
<path d="M73.8863 117.285L72.6198 117.798L72.376 117.954L61.9861 119.11L68.4083 101.209L71.6668 111.658C71.7098 111.782 72.5832 114.292 73.8876 117.294L73.8863 117.285Z" fill="#000A23"/>
<path d="M125.43 138.474C125.422 138.948 125.305 139.413 125.086 139.834C124.867 140.255 124.555 140.619 124.172 140.899L124.723 146.653L120.718 147.063L121.661 141.172C121.276 140.966 120.96 140.652 120.751 140.269C120.541 139.886 120.449 139.451 120.483 139.015C120.526 138.301 120.805 137.622 121.276 137.084C121.748 136.547 122.386 136.183 123.089 136.047C123.089 136.047 123.049 136.071 123.059 136.071C124.46 135.911 125.667 136.99 125.431 138.451L125.43 138.474Z" fill="#FFCD00"/>
<path d="M67.5915 104.81C77.7653 104.81 83.3204 108.38 83.3204 115.953C83.3204 120.323 81.0731 123.341 77.6402 125.003C82.0717 126.603 84.6931 129.805 84.6931 135.099C84.6931 141.686 80.3235 147.289 68.9642 147.289H53.1721V104.811H67.5902L67.5915 104.81ZM61.9113 121.617H67.7154C72.521 121.617 74.5814 119.77 74.5814 116.753C74.5814 113.736 73.0835 112.074 66.7789 112.074H61.91V121.615L61.9113 121.617ZM61.9113 140.024H68.2159C73.4589 140.024 75.9552 138.053 75.9552 134.422C75.9552 130.42 73.2719 128.881 67.4044 128.881H61.9113V140.024Z" stroke="#000A23" stroke-width="2.52026" stroke-linejoin="round"/>
<path d="M67.5915 104.81C77.7653 104.81 83.3204 108.38 83.3204 115.953C83.3204 120.323 81.0731 123.341 77.6402 125.003C82.0717 126.603 84.6931 129.805 84.6931 135.099C84.6931 141.686 80.3235 147.289 68.9642 147.289H53.1721V104.811H67.5902L67.5915 104.81ZM61.9113 121.617H67.7154C72.521 121.617 74.5814 119.77 74.5814 116.753C74.5814 113.736 73.0835 112.074 66.7789 112.074H61.91V121.615L61.9113 121.617ZM61.9113 140.024H68.2159C73.4589 140.024 75.9552 138.053 75.9552 134.422C75.9552 130.42 73.2719 128.881 67.4044 128.881H61.9113V140.024Z" stroke="#000A23" stroke-width="2.52026" stroke-linejoin="round"/>
<path d="M125.763 125.188V129.066C125.763 142.056 119.647 147.842 109.909 147.842C100.172 147.842 93.4309 142.056 93.4309 129.066V123.648C93.4309 109.92 100.235 104.256 109.909 104.256C118.959 104.256 124.391 109.305 125.701 117.984H117.338C116.588 114.106 114.279 111.52 109.91 111.52C104.855 111.52 102.171 114.907 102.171 123.033V129.066C102.171 137.192 104.855 140.578 109.91 140.578C114.966 140.578 116.838 137.561 117.338 132.452H110.098V125.188H125.765H125.763Z" stroke="#000A23" stroke-width="2.52026" stroke-linejoin="round"/>
<path d="M125.763 125.188V129.066C125.763 142.056 119.647 147.842 109.909 147.842C100.172 147.842 93.4309 142.056 93.4309 129.066V123.648C93.4309 109.92 100.235 104.256 109.909 104.256C118.959 104.256 124.391 109.305 125.701 117.984H117.338C116.588 114.106 114.279 111.52 109.91 111.52C104.855 111.52 102.171 114.907 102.171 123.033V129.066C102.171 137.192 104.855 140.578 109.91 140.578C114.966 140.578 116.838 137.561 117.338 132.452H110.098V125.188H125.765H125.763Z" stroke="#000A23" stroke-width="2.52026" stroke-linejoin="round"/>
<path d="M163.963 104.81V112.135H152.104V147.288H143.367V112.135H131.507V104.81H163.964H163.963Z" stroke="#000A23" stroke-width="2.52026" stroke-linejoin="round"/>
<path d="M163.963 104.81V112.135H152.104V147.288H143.367V112.135H131.507V104.81H163.964H163.963Z" stroke="#000A23" stroke-width="2.52026" stroke-linejoin="round"/>
<path d="M67.5915 104.81C77.7653 104.81 83.3204 108.38 83.3204 115.953C83.3204 120.323 81.0731 123.341 77.6402 125.003C82.0717 126.603 84.6931 129.805 84.6931 135.099C84.6931 141.686 80.3235 147.289 68.9642 147.289H53.1721V104.811H67.5902L67.5915 104.81ZM61.9113 121.617H67.7154C72.521 121.617 74.5814 119.77 74.5814 116.753C74.5814 113.736 73.0835 112.074 66.7789 112.074H61.91V121.615L61.9113 121.617ZM61.9113 140.024H68.2159C73.4589 140.024 75.9552 138.053 75.9552 134.422C75.9552 130.42 73.2719 128.881 67.4044 128.881H61.9113V140.024Z" fill="white"/>
<path d="M67.5915 104.81C77.7653 104.81 83.3204 108.38 83.3204 115.953C83.3204 120.323 81.0731 123.341 77.6402 125.003C82.0717 126.603 84.6931 129.805 84.6931 135.099C84.6931 141.686 80.3235 147.289 68.9642 147.289H53.1721V104.811H67.5902L67.5915 104.81ZM61.9113 121.617H67.7154C72.521 121.617 74.5814 119.77 74.5814 116.753C74.5814 113.736 73.0835 112.074 66.7789 112.074H61.91V121.615L61.9113 121.617ZM61.9113 140.024H68.2159C73.4589 140.024 75.9552 138.053 75.9552 134.422C75.9552 130.42 73.2719 128.881 67.4044 128.881H61.9113V140.024Z" fill="white"/>
<path d="M125.763 125.188V129.066C125.763 142.056 119.647 147.842 109.909 147.842C100.172 147.842 93.4309 142.056 93.4309 129.066V123.648C93.4309 109.92 100.235 104.256 109.909 104.256C118.959 104.256 124.391 109.305 125.701 117.984H117.338C116.588 114.106 114.279 111.52 109.91 111.52C104.855 111.52 102.171 114.907 102.171 123.033V129.066C102.171 137.192 104.855 140.578 109.91 140.578C114.966 140.578 116.838 137.561 117.338 132.452H110.098V125.188H125.765H125.763Z" fill="white"/>
<path d="M125.763 125.188V129.066C125.763 142.056 119.647 147.842 109.909 147.842C100.172 147.842 93.4309 142.056 93.4309 129.066V123.648C93.4309 109.92 100.235 104.256 109.909 104.256C118.959 104.256 124.391 109.305 125.701 117.984H117.338C116.588 114.106 114.279 111.52 109.91 111.52C104.855 111.52 102.171 114.907 102.171 123.033V129.066C102.171 137.192 104.855 140.578 109.91 140.578C114.966 140.578 116.838 137.561 117.338 132.452H110.098V125.188H125.765H125.763Z" fill="white"/>
<path d="M163.963 104.81V112.135H152.104V147.288H143.367V112.135H131.507V104.81H163.964H163.963Z" fill="white"/>
<path d="M163.963 104.81V112.135H152.104V147.288H143.367V112.135H131.507V104.81H163.964H163.963Z" fill="white"/>
</g>
</g>
<g clip-path="url(#clip1_61_956)">
<path d="M290.753 205.518C335.178 205.518 371.191 169.64 371.191 125.381C371.191 81.1224 335.178 45.2437 290.753 45.2437C246.329 45.2437 210.315 81.1224 210.315 125.381C210.315 169.64 246.329 205.518 290.753 205.518Z" fill="#F21414"/>
<mask id="mask1_61_956" style="mask-type:luminance" maskUnits="userSpaceOnUse" x="210" y="45" width="162" height="161">
<path d="M290.753 205.518C335.178 205.518 371.191 169.64 371.191 125.381C371.191 81.1224 335.178 45.2437 290.753 45.2437C246.329 45.2437 210.315 81.1224 210.315 125.381C210.315 169.64 246.329 205.518 290.753 205.518Z" fill="white"/>
</mask>
<g mask="url(#mask1_61_956)">
<path d="M348.815 104.26C347.469 97.0669 343.557 89.849 337.777 83.8652C336.117 77.1423 333.664 70.3314 330.488 63.621C320.834 43.2202 305.464 31.0148 294.263 24.367C293.911 24.1602 293.508 24.0474 293.093 24.0474C293.074 24.0474 293.049 24.0474 293.03 24.0474L291.068 24.0975C290.049 24.1225 289.169 24.8244 288.917 25.8143C288.665 26.8043 289.112 27.8318 289.999 28.3394C300.998 34.605 316.073 46.2277 325.425 65.9958C327.23 69.8115 328.79 73.6648 330.092 77.5119C325.406 74.5169 320.57 72.913 316.036 72.913C315.344 72.913 314.658 72.9505 313.992 73.0257C311.394 73.3203 307.111 74.4856 302.879 76.8665C297.891 79.6736 294.338 83.4266 292.59 87.725C292.282 88.483 292.03 89.2537 291.804 90.0056C291.533 89.379 291.25 88.7462 290.936 88.1196C289.043 84.3226 285.986 80.8265 282.112 78.0132C278.244 75.2061 273.936 73.3516 269.653 72.6561C268.414 72.4556 267.156 72.3554 265.899 72.3554C261.169 72.3554 256.383 73.7713 251.679 76.5658C247.905 78.809 245.012 81.4468 243.245 83.27C235.252 91.5094 231.101 103.752 232.415 115.218C234.61 134.385 251.327 148.564 266.075 161.07C274.76 168.439 282.967 175.4 286.143 181.897L286.244 182.098C288.043 185.813 290.124 189.253 293.156 189.253C293.382 189.253 293.609 189.234 293.835 189.19C295.52 188.89 296.753 187.586 297.495 185.331C297.998 183.802 298.231 181.997 298.382 180.6L298.407 180.375C299.175 173.558 306.734 164.786 314.746 155.506C322.495 146.528 331.274 136.346 335.859 125.607C339.632 116.785 340.991 106.879 339.922 96.0581C341.588 99.0781 342.752 102.205 343.324 105.275C344.06 109.203 343.878 113.144 342.777 117.324C341.777 121.114 340.035 125.012 337.45 129.247C332.557 137.267 325.381 145.174 318.444 152.825C311.923 160.018 305.621 170.475 301.589 180.788C298.986 187.461 295.105 199.917 298.407 208.387C298.627 208.952 299.061 209.404 299.615 209.648C299.91 209.773 300.218 209.842 300.533 209.842C300.81 209.842 301.093 209.792 301.357 209.685L302.319 209.309C303.495 208.859 304.074 207.536 303.621 206.37C301.715 201.483 302.898 192.862 306.872 182.724C310.69 172.981 316.564 163.2 322.595 156.553C329.652 148.777 336.941 140.732 342.154 132.192C348.28 122.155 350.462 113.013 348.821 104.247L348.815 104.26ZM292.143 96.0017C292.143 96.0017 292.162 96.0017 292.168 96.0017C292.162 96.0017 292.149 96.0017 292.143 96.0017C292.131 96.0017 292.118 96.0017 292.106 96.0017C292.068 96.0017 292.03 95.9956 291.992 95.9892C292.043 95.9892 292.087 96.0017 292.143 96.0017ZM293.156 186.985C293.156 186.985 293.124 186.985 293.112 186.985C293.137 186.985 293.162 186.985 293.187 186.985C293.175 186.985 293.168 186.985 293.156 186.985ZM310.489 151.879C301.904 161.835 293.797 171.239 292.835 179.773L292.81 180.017C292.722 180.838 292.627 181.502 292.533 182.041C292.187 181.452 291.772 180.688 291.288 179.679L291.181 179.466C287.489 171.91 278.848 164.585 269.71 156.828C255.748 144.986 239.931 131.572 237.981 114.592C236.849 104.736 240.415 94.2224 247.277 87.1484C249.886 84.4542 256.88 78.1699 265.427 77.9381C265.59 77.9381 265.748 77.9318 265.911 77.9318C266.867 77.9318 267.823 78.0069 268.76 78.1636C272.144 78.7149 275.716 80.2563 278.829 82.5182C281.93 84.7675 284.458 87.6435 285.936 90.6134C286.263 91.2649 286.577 91.9981 286.879 92.7123L286.892 92.7374C287.407 93.9404 287.892 95.0745 288.489 95.9956C289.47 97.5119 290.691 98.2824 292.106 98.2824C292.137 98.2824 292.168 98.2824 292.206 98.2824C292.256 98.2824 292.3 98.2824 292.344 98.2762C293.338 98.2135 294.734 97.7311 295.728 95.7888C296.206 94.8551 296.539 93.7149 296.898 92.4993V92.4868C297.168 91.5782 297.445 90.6384 297.772 89.8301C299.388 85.8515 302.954 83.2074 305.665 81.6974C309.143 79.7488 312.665 78.7964 314.627 78.5771C315.08 78.527 315.551 78.502 316.023 78.502C321.161 78.502 327.356 81.5658 332.702 86.7224C335.872 100.557 335.192 112.906 330.689 123.445C326.438 133.389 317.96 143.219 310.476 151.897L310.489 151.879Z" fill="white"/>
</g>
</g>
<path d="M32.4558 304.772C32.4558 347.216 66.8631 381.623 109.307 381.623C151.75 381.623 186.157 347.216 186.157 304.772C186.157 262.329 151.75 227.921 109.307 227.921C66.8631 227.921 32.4558 262.329 32.4558 304.772Z" fill="#9D3835"/>
<path d="M85.6719 288.508C85.1904 289.275 84.872 290.208 84.7126 291.058C84.5535 292.078 84.6311 293.102 84.9535 294.121V294.889C85.1128 295.058 85.3535 295.145 85.5128 295.145C85.8311 294.806 86.1534 294.633 86.5534 294.55C87.2719 294.637 87.9943 294.464 88.7127 294.125C89.1127 294.212 89.5127 294.294 89.8351 294.381C91.1167 294.806 92.1574 295.574 92.9574 296.68C93.9982 297.531 94.4798 298.637 94.3166 299.83C93.9943 300.342 93.5943 300.849 93.1943 301.274C92.7943 301.7 92.472 302.125 92.1535 302.55C91.4312 303.062 90.9535 303.743 90.7944 304.506C90.5535 305.101 90.1535 305.526 89.5942 305.613C88.9536 305.782 88.3942 306.038 87.9127 306.463C87.6719 306.55 87.5904 306.632 87.5127 306.719C87.2719 307.144 87.0311 307.487 86.7943 307.825C86.4758 308.419 86.1535 308.931 85.9128 309.526C85.5943 310.037 85.4311 310.545 85.2719 311.057C84.9496 311.569 84.7126 312.077 84.7126 312.502C84.5535 312.588 84.472 312.758 84.472 313.014C84.2311 313.525 84.072 314.033 83.9903 314.458C83.8311 314.545 83.7496 314.458 83.7496 314.289C83.9903 312.588 84.3088 310.884 84.7088 309.1C84.7088 308.675 84.7904 308.337 84.9496 307.908C84.9496 307.821 84.9496 307.738 84.8681 307.569C84.7088 307.738 84.6273 307.656 84.6273 307.482C83.9088 307.569 83.3456 307.313 82.9456 306.801C81.7457 305.439 80.5457 304.164 79.3418 302.888C79.2602 302.719 79.1825 302.632 79.101 302.463C78.9418 302.207 78.9418 301.951 79.2602 301.7C78.8602 301.357 78.5379 301.019 78.301 300.507C78.301 300.337 78.3825 300.251 78.6195 300.082C78.6195 300.139 78.6466 300.139 78.701 300.082V299.318C78.8602 299.318 78.9418 299.405 79.0234 299.405V298.893C79.1825 298.893 79.2642 298.979 79.3418 298.979C79.4233 298.893 79.4234 298.81 79.4234 298.723C79.5049 298.723 79.5825 298.81 79.6642 298.81C80.3865 297.873 80.9457 296.767 81.4273 295.661C81.668 295.236 81.8273 294.81 81.9865 294.299C82.3865 293.618 82.7865 292.854 83.1865 292.173C83.1865 292.004 83.1865 291.917 83.268 291.748C84.0681 290.472 84.8681 289.279 85.5904 288.004C85.7496 287.579 85.9904 287.236 86.2311 286.898H86.1496V286.728H86.2311C86.1496 287.24 85.9904 287.748 85.8311 288.173C85.6719 288.173 85.6719 288.342 85.6719 288.512V288.508ZM131.94 267.749C132.259 267.836 132.662 267.919 132.981 268.005C134.103 268.686 135.063 269.537 135.863 270.643C136.022 270.812 136.103 270.981 136.263 271.155C137.144 271.324 137.785 271.749 138.426 272.517C138.666 272.942 138.744 273.367 138.744 273.792C138.585 274.131 138.426 274.473 138.262 274.729C138.103 274.899 137.944 275.068 137.781 275.155C137.54 275.324 137.381 275.41 137.14 275.58C136.822 275.749 136.581 275.922 136.34 276.092C136.099 276.178 135.859 276.261 135.54 276.347L135.381 276.517V276.43C135.299 276.599 135.14 276.686 134.981 276.686C134.927 276.744 134.899 276.744 134.899 276.686C134.74 276.773 134.659 276.855 134.659 276.942H134.74C134.581 277.111 134.499 277.198 134.34 277.284C134.259 277.454 134.181 277.54 134.022 277.623C133.94 277.623 133.94 277.71 133.863 277.71C133.785 277.71 133.781 277.796 133.703 277.796C133.785 277.883 133.863 277.883 133.944 277.796V277.883C133.863 278.052 133.785 278.139 133.703 278.308C133.463 278.733 133.222 279.076 132.744 279.076C132.422 279.332 132.103 279.501 131.785 279.67H131.544C130.903 280.013 130.262 280.265 129.703 280.52C129.462 280.607 129.222 280.607 129.062 280.434C128.503 280.434 128.022 280.52 127.54 280.772C127.299 280.859 127.14 280.859 126.981 280.772C126.822 280.942 126.663 280.942 126.499 280.859C126.336 280.776 126.259 280.772 126.099 280.69C126.099 280.776 126.018 280.776 125.94 280.69C126.099 280.603 126.099 280.434 125.94 280.351C125.299 280.52 124.74 280.863 124.259 281.371C123.459 281.883 122.659 282.39 121.936 282.733V282.646C121.136 282.902 120.495 283.158 119.936 283.497C120.336 283.839 120.818 284.091 121.295 284.178C122.095 284.689 122.818 285.284 123.455 285.878C123.536 286.047 123.695 286.047 123.855 285.965C123.936 285.965 124.014 285.796 124.095 285.626C124.336 285.713 124.496 285.713 124.814 285.713C124.732 285.713 124.732 285.626 124.814 285.544C125.455 285.631 126.095 285.713 126.736 285.882C129.218 287.075 131.618 288.52 133.94 290.138C134.34 290.563 134.822 290.988 135.299 291.331C135.859 291.925 136.499 292.606 137.14 293.201C137.94 294.138 138.581 295.157 139.062 296.263C139.381 296.858 139.703 297.539 139.862 298.22C139.944 298.645 140.022 298.988 140.103 299.326C140.344 300.176 140.344 301.027 140.262 301.877C140.181 301.964 140.103 302.133 140.181 302.215C139.94 302.641 139.622 302.983 139.222 303.152C139.062 303.322 138.981 303.578 139.062 303.747C139.062 303.834 139.144 303.834 139.144 303.834V305.278C139.144 305.365 139.062 306.046 138.985 307.404C138.985 308.849 138.903 310.805 138.903 313.443C138.903 313.443 138.822 313.699 138.822 314.211V316.336C138.74 316.679 138.662 316.931 138.662 317.273C138.503 317.785 138.422 318.38 138.422 318.891V319.147C138.422 320.253 138.34 321.36 138.34 322.379C138.659 323.572 138.74 324.678 138.581 325.78V327.568C138.499 327.737 138.499 327.906 138.662 328.08C138.744 329.355 138.744 330.717 138.662 331.993C138.581 332.331 138.422 332.587 138.181 332.674C138.022 332.674 137.94 332.587 138.099 332.335H137.94C137.859 332.504 137.781 332.591 137.781 332.591C137.699 332.591 137.699 332.504 137.699 332.422C137.459 332.76 137.218 332.934 136.977 333.103C136.977 333.528 137.059 333.866 137.136 334.296C136.977 334.634 136.977 334.977 137.136 335.315C136.977 335.658 136.818 336.083 136.655 336.422C136.495 336.508 136.336 336.591 136.255 336.76C136.255 337.016 136.173 337.185 136.014 337.272C135.696 337.441 135.455 337.61 135.373 337.866C134.651 337.953 134.332 338.291 134.251 338.886C134.092 339.567 134.01 340.248 133.932 340.842C133.851 340.929 133.773 341.098 133.692 341.185C133.532 341.185 133.451 341.185 133.373 341.098C133.292 341.185 133.292 341.267 133.292 341.354C133.132 341.098 132.973 341.016 132.651 341.016C132.329 340.846 132.092 340.846 131.769 341.016V341.354C131.451 341.098 131.21 341.185 131.21 341.441C131.051 341.441 130.888 341.441 130.729 341.527C130.647 341.697 130.647 341.866 130.569 342.039C130.488 342.126 130.41 342.208 130.488 342.295C130.406 342.208 130.247 342.208 130.169 342.382C130.088 342.469 129.929 342.469 129.847 342.469C129.528 342.043 129.128 341.618 128.806 341.106C128.084 340.169 127.365 339.319 126.643 338.469C125.761 337.193 124.884 335.918 124.002 334.725C123.202 333.957 122.162 333.619 120.961 333.875C120.48 333.788 120.08 333.875 119.68 334.131C119.361 334.044 119.039 334.131 118.88 334.3C118.798 334.725 118.639 334.981 118.48 335.15V335.237C117.839 335.662 117.28 336.005 116.558 336.174C116.158 336.343 115.758 336.43 115.435 336.43C115.117 336.516 114.876 336.599 114.717 336.516C113.917 336.178 113.194 335.922 112.394 335.579C111.672 334.985 110.954 334.304 110.313 333.536C109.672 332.942 109.031 332.261 108.631 331.411C108.55 331.155 108.55 330.899 108.713 330.56C108.631 330.474 108.713 330.304 108.794 330.222C108.876 330.139 108.954 330.135 109.035 330.052C109.194 329.797 109.194 329.458 109.035 329.116C108.876 328.86 108.794 328.521 108.794 328.179C108.876 328.265 108.954 328.179 109.035 328.092L109.117 328.005C108.958 327.919 108.958 327.836 109.035 327.667L109.117 327.58V327.919H109.198C109.28 327.068 109.598 326.387 110.239 325.793C110.321 325.624 110.321 325.454 110.398 325.281C110.639 325.281 110.721 325.112 110.798 324.769C110.476 324.682 110.158 324.513 109.839 324.513C109.598 324.344 109.358 324.088 109.198 323.832C108.317 322.982 107.517 322.045 106.717 321.108C106.557 320.258 106.798 319.663 107.357 319.065C107.676 318.726 108.158 318.301 108.639 317.872C108.639 317.703 108.798 317.533 109.039 317.447C109.839 316.596 110.48 315.659 111.202 314.553V314.466C110.884 314.636 110.643 314.722 110.402 314.892C110.243 314.978 110.161 314.978 110.161 314.805C110.08 314.892 110.002 314.892 110.002 314.892C109.921 314.892 109.921 314.805 109.921 314.722C109.439 314.892 108.88 314.978 108.48 315.148C108.321 315.317 108.239 315.49 108.239 315.573H107.917V315.659C107.517 315.829 107.276 315.746 107.198 315.321C106.798 315.234 106.476 315.152 106.157 314.978C105.998 314.978 105.839 315.065 105.757 315.234C105.517 315.234 105.276 315.148 105.117 315.148C104.317 314.384 103.757 313.447 103.517 312.341C103.435 312.002 103.517 311.66 103.676 311.404C103.835 311.234 103.917 311.065 103.917 310.723C103.835 310.892 103.917 310.892 103.998 310.809L104.08 310.723C104.025 310.723 103.998 310.694 103.998 310.636C103.998 310.805 104.08 310.805 104.157 310.723C104.239 310.553 104.239 310.384 104.157 310.211C103.839 310.723 103.598 311.23 103.439 311.742C103.28 311.829 103.198 311.742 103.121 311.573C103.121 310.892 103.202 310.211 103.602 309.53C104.243 308.341 104.884 307.148 105.602 305.955C104.88 304.68 104.561 303.404 104.721 301.873C104.666 301.815 104.639 301.759 104.639 301.704C104.48 302.129 104.317 302.554 104.08 302.897C102.957 303.408 102.08 304.172 101.68 305.278C101.839 305.873 102.002 306.471 102.161 306.979C101.921 307.404 101.843 307.829 102.002 308.172C101.843 308.514 101.68 308.766 101.521 308.94C101.521 309.534 101.361 310.046 100.961 310.384C100.88 310.471 100.88 310.553 100.88 310.553C100.88 310.611 100.907 310.64 100.961 310.64C100.88 310.896 100.802 310.979 100.643 310.896C100.484 311.321 100.321 311.664 100.084 311.833C99.7652 312.089 99.6021 312.345 99.5244 312.601C99.8429 313.282 99.8429 314.045 99.5244 314.813C99.5244 315.325 99.5244 315.833 99.6836 316.345C99.7652 316.77 99.9244 317.112 100.165 317.451C100.647 316.6 101.206 315.75 101.847 314.813H102.006C101.847 315.663 101.684 316.431 101.365 317.112C101.206 317.368 101.124 317.537 100.965 317.707C101.124 318.813 101.606 319.919 102.165 321.025C102.324 321.45 102.565 321.962 102.806 322.301C103.528 323.832 104.328 325.364 105.206 326.808C105.288 327.064 105.447 327.32 105.688 327.576C106.006 328.17 106.328 328.938 106.647 329.619C106.728 329.875 106.806 330.044 106.888 330.3C106.969 330.556 106.969 330.812 106.888 331.064C106.888 331.489 106.806 331.831 106.569 332.083C106.169 332.083 105.769 332.17 105.447 332.253V332.422C105.447 332.509 105.528 332.509 105.606 332.422C105.606 332.678 105.606 332.847 105.447 333.016C104.806 333.185 104.165 333.272 103.606 333.185C102.806 332.93 102.006 332.76 101.206 332.418C100.406 331.906 99.6836 331.225 99.0429 330.461C98.7244 330.036 98.4021 329.611 98.0021 329.268C97.6798 329.012 97.5206 328.674 97.3613 328.249V327.91C97.2798 327.143 97.2798 326.466 97.3613 325.784L97.4429 325.698C97.2836 325.442 97.2021 325.186 97.1245 324.847C96.806 324.592 96.4836 324.166 96.2428 323.741C95.9245 323.485 95.7613 323.147 95.9245 322.548C95.9245 322.21 95.9245 321.781 95.7652 321.273C95.6836 320.935 95.606 320.505 95.4467 320.08C95.3652 319.486 95.206 318.887 95.206 318.21C95.1245 318.21 95.1243 318.124 95.1243 318.041C94.9652 317.021 94.9652 315.915 95.1243 314.809C95.4467 314.045 95.7652 313.108 95.9245 312.171C96.406 310.64 96.806 309.195 97.206 307.577C97.2875 307.408 97.3651 307.066 97.4468 306.727C97.5283 306.302 97.606 305.877 97.7653 305.452C97.9244 305.026 98.006 304.601 98.0875 304.176C98.2468 303.413 98.4876 302.645 98.7283 301.964C99.0468 301.708 99.4506 301.452 99.7691 301.283C100.01 301.196 100.328 301.027 100.651 300.944C100.891 300.944 101.132 300.944 101.451 301.113C101.851 301.027 102.251 300.858 102.573 300.519C103.055 299.925 103.532 299.326 104.095 298.818C104.177 298.649 104.177 298.48 104.177 298.224C104.095 297.374 104.095 296.437 104.018 295.673V292.185C104.258 291.335 104.658 290.485 105.14 289.717C104.899 289.717 104.74 289.804 104.74 289.973C104.581 290.142 104.422 290.229 104.422 290.398C103.94 290.992 103.462 291.504 102.981 292.099C102.981 292.041 102.954 292.012 102.899 292.012C102.018 292.524 101.377 293.201 100.899 294.055C100.658 294.142 100.581 294.224 100.658 294.311V294.142C100.336 294.48 100.099 294.823 99.9361 295.248C99.8545 295.335 99.8545 295.417 99.8545 295.586C99.8545 295.673 99.773 295.756 99.773 295.842C99.773 295.842 99.6914 295.756 99.6914 295.673C99.5323 295.76 99.5323 295.842 99.6099 296.012C98.8098 297.118 98.2506 298.393 97.9283 299.842H97.8468C97.606 300.011 97.4468 300.267 97.3651 300.437C97.3651 300.494 97.3924 300.523 97.4468 300.523C97.606 300.437 97.7651 300.185 97.9283 299.842C98.1691 299.673 98.4098 299.33 98.7283 298.905C99.0468 298.48 99.3691 298.055 99.6099 297.46C99.6914 297.46 99.7691 297.46 99.8506 297.374C100.573 296.185 101.451 295.079 102.414 293.973V294.059C102.655 293.721 102.895 293.465 103.214 293.122C103.132 293.292 103.055 293.465 102.891 293.465C102.732 293.803 102.573 294.146 102.332 294.484V294.398C102.332 294.484 102.251 294.567 102.173 294.567C101.773 295.161 101.451 295.76 101.214 296.354C101.055 296.354 100.973 296.441 100.973 296.441C100.973 296.61 100.973 296.697 101.132 296.697C101.214 296.528 101.373 296.272 101.532 296.102V296.272C101.451 296.272 101.451 296.185 101.451 296.185C101.291 296.272 101.291 296.441 101.369 296.523C101.21 296.61 101.21 296.693 101.21 296.779V296.866C101.051 296.866 100.969 296.953 100.969 297.122V296.528C100.728 296.784 100.651 297.039 100.651 297.209C100.732 297.295 100.732 297.378 100.81 297.465C100.728 297.551 100.651 297.721 100.651 297.89C100.491 298.146 100.41 298.402 100.328 298.571C100.383 298.571 100.436 298.542 100.488 298.484C100.406 298.571 100.406 298.653 100.328 298.653H100.247C100.165 298.996 100.088 299.165 99.9283 299.334C99.6876 299.673 99.5283 299.929 99.3691 300.271C99.3691 300.527 99.2876 300.697 99.0468 300.697C98.8876 301.122 98.6468 301.633 98.4876 302.059L98.1691 302.397C98.0875 302.566 98.0098 302.736 98.0098 302.909C96.9691 304.696 96.0875 306.484 95.2099 308.267C95.2099 308.436 95.1283 308.523 95.0507 308.609C94.4914 309.885 93.8506 311.078 93.1282 312.097V312.184C92.4875 313.034 92.0059 313.971 91.6059 314.821C91.2059 315.672 90.9652 316.439 90.7244 317.29C90.8059 317.203 90.8836 317.12 90.8836 317.034C90.9652 317.034 90.9652 317.12 90.9652 317.203C90.8059 317.203 90.7244 317.29 90.8059 317.459C90.6467 317.546 90.5652 317.628 90.6467 317.715C90.4059 318.565 90.2468 319.333 90.3283 320.183C90.1691 320.864 90.0059 321.545 89.9283 322.14C89.8468 322.565 89.8468 322.99 89.9283 323.415C89.8468 323.584 89.8468 323.671 89.8468 323.754C90.0874 324.092 90.0874 324.517 89.9283 324.86C89.9283 325.116 89.9283 325.285 89.8468 325.372C89.6059 326.053 89.2875 326.734 88.9651 327.328C88.8059 328.009 88.7244 328.604 88.7244 329.285C88.5651 329.71 88.4836 330.135 88.3244 330.478C88.3244 330.564 88.4059 330.734 88.4836 330.903C88.3244 330.989 88.3244 331.072 88.4836 331.159C88.4021 331.671 88.4836 332.096 88.7244 332.434C88.5651 332.69 88.5651 332.946 88.7244 333.115C88.7244 333.371 88.7244 333.54 88.8836 333.627C88.7244 333.883 88.7244 334.052 88.8836 334.139C88.8836 334.82 88.5651 335.332 88.0021 335.67C88.0021 335.728 88.0292 335.757 88.0836 335.757C87.1243 336.269 86.1613 336.351 85.1205 336.013C84.8797 336.013 84.7205 335.926 84.5612 335.757C83.9205 335.501 83.3612 335.163 82.8797 334.651C82.6389 334.395 82.3205 334.226 82.0797 334.056C81.5982 333.8 81.1204 333.462 80.7204 333.206C80.5612 333.037 80.4021 332.95 80.1612 332.868C79.6797 332.525 79.2796 332.017 78.9613 331.423C78.402 330.829 78.2389 330.148 78.402 329.38C78.3204 329.211 78.3204 329.041 78.4836 328.868C78.7243 328.443 78.8836 328.018 79.0428 327.506C79.2019 327.081 79.4428 326.825 79.7612 326.569C80.1612 326.144 80.4021 325.719 80.6427 325.037C80.9612 324.443 81.3651 323.845 81.6836 323.25C82.002 322.994 82.2427 322.569 82.402 322.061C82.6429 321.467 82.802 320.868 82.9612 320.187C83.1205 319.849 83.202 319.506 83.2797 319.081C83.3612 318.318 83.4389 317.55 83.5205 316.786C83.602 316.617 83.602 316.444 83.6797 316.274C84.0797 313.806 84.9613 311.594 86.3205 309.637C86.4796 309.468 86.5613 309.299 86.6428 309.125C86.6428 309.183 86.6699 309.212 86.7243 309.212C86.806 309.125 86.806 308.956 86.806 308.873H86.9651L87.0467 308.787C87.1283 308.7 87.2875 308.618 87.3651 308.448C87.206 308.704 87.0467 308.873 86.806 308.96C86.806 309.216 86.7243 309.472 86.6467 309.641C86.3243 310.153 86.006 310.747 85.7652 311.259C85.6836 311.684 85.6058 312.023 85.4467 312.448C85.5282 312.873 85.5282 313.216 85.4467 313.641C85.2875 313.983 85.2875 314.322 85.2875 314.66C85.2331 314.66 85.2059 314.632 85.2059 314.574C85.0467 314.743 85.0467 314.999 85.1243 315.168C84.9652 315.255 84.8835 315.424 84.8835 315.593C84.7243 316.018 84.7243 316.444 84.8835 316.786C84.7243 317.298 84.7243 317.723 84.802 318.148C84.802 318.148 84.8835 317.979 84.9613 317.806C84.9613 317.975 84.9613 318.148 85.1205 318.231C86.4796 315.507 87.9204 312.869 89.6021 310.405C90.4836 309.129 91.2836 307.854 92.0836 306.574L92.1652 306.488L92.0836 306.401C92.3244 306.145 92.4836 305.889 92.5652 305.637C92.9652 305.212 93.2875 304.787 93.6875 304.275C93.769 304.189 93.769 304.106 93.8467 303.937C95.2875 302.319 96.4875 300.536 97.6875 298.662C98.0098 297.981 98.3283 297.386 98.7283 296.705C98.8876 296.618 98.9691 296.449 98.9691 296.28C99.1283 296.024 99.3691 295.768 99.5283 295.512L99.4468 295.425C99.6059 295.339 99.6876 295.256 99.7652 295.17C99.7652 295.17 99.6836 295.17 99.6836 295.083C99.9244 294.914 100.084 294.658 100.165 294.402C100.22 294.46 100.273 294.46 100.324 294.402C100.324 294.315 100.324 294.233 100.243 294.315C100.402 294.146 100.565 293.977 100.724 293.721C100.779 293.834 100.832 293.834 100.884 293.721L100.965 293.552C100.911 293.552 100.884 293.523 100.884 293.465C100.884 293.578 100.856 293.634 100.802 293.634H100.721C100.802 293.634 100.88 293.547 100.88 293.378V293.465C100.88 293.465 100.88 293.378 100.961 293.209C100.961 293.296 101.043 293.378 101.121 293.378V293.04C101.121 293.152 101.174 293.181 101.28 293.126L101.361 293.04H101.28C101.598 292.701 101.921 292.276 102.239 291.764L102.321 291.678C102.402 291.678 102.48 291.591 102.48 291.508C103.839 290.146 105.043 288.532 106.084 286.828H106.165C106.247 286.828 106.324 286.741 106.324 286.658C106.324 286.828 106.243 286.914 106.243 286.997C105.924 287.422 105.761 287.76 105.761 288.19C105.68 288.528 105.521 288.871 105.439 289.209C105.68 288.953 105.998 288.615 106.161 288.272C106.402 287.93 106.643 287.591 106.961 287.253C107.602 286.402 108.321 285.635 109.121 284.954C109.602 284.784 110.002 284.615 110.561 284.442C111.121 284.528 111.684 284.78 112.084 285.205C112.565 284.949 113.125 284.78 113.684 284.611C113.765 284.78 113.925 284.949 114.165 284.949C114.647 284.355 115.206 283.674 115.606 282.993C115.365 283.08 115.047 283.162 114.888 283.162C114.006 283.418 113.206 283.501 112.488 283.587C112.247 283.757 112.006 283.843 111.847 283.843C111.206 284.012 110.647 284.099 110.088 284.182H109.928C109.128 284.182 108.406 284.182 107.765 284.095C107.206 284.182 106.806 284.095 106.406 283.753C104.647 282.39 102.965 280.946 101.284 279.584C100.965 279.497 100.884 279.245 100.884 278.902C100.802 278.564 100.965 278.221 101.202 277.883C101.202 277.544 101.284 277.289 101.602 277.033V276.863C101.761 276.777 101.843 276.777 101.843 276.694H101.761C102.084 276.438 102.484 276.1 102.802 275.757C102.884 275.501 103.043 275.332 103.202 275.163C103.284 274.907 103.521 274.738 103.843 274.738C103.925 274.568 104.084 274.482 104.243 274.651C104.402 274.651 104.724 274.564 105.043 274.564C105.443 274.564 105.924 274.651 106.402 274.651C106.802 274.651 107.202 274.738 107.602 274.989C109.443 275.415 111.284 275.501 113.206 275.159C113.528 274.989 113.847 274.903 114.247 274.82C114.888 274.651 115.606 274.395 116.328 274.226C117.61 273.887 118.892 273.462 120.169 272.864C120.969 272.352 121.928 271.844 122.81 271.502C123.21 271.163 123.532 270.738 123.932 270.313C124.173 270.057 124.332 269.801 124.251 269.376C124.251 269.207 124.332 269.037 124.492 268.695C124.492 268.695 124.573 268.608 124.573 268.439C124.414 268.439 124.414 268.27 124.492 268.1C124.492 268.1 124.492 268.014 124.651 267.931C124.41 267.931 124.332 267.931 124.492 267.762C124.81 267.762 125.051 267.506 125.132 267.168C124.973 267.081 124.973 266.998 124.973 266.998C125.292 266.912 125.532 266.742 125.692 266.404C126.01 266.317 126.414 266.235 126.892 266.235V266.148C127.292 266.235 127.773 266.317 128.332 266.317C129.532 266.656 130.732 267.081 131.936 267.762L131.94 267.749ZM96.639 273.875C97.3613 274.556 97.8389 275.32 98.3206 276.174C98.6389 276.768 98.8021 277.367 98.9613 278.044C99.2836 278.981 99.4429 280 99.4429 281.107C99.4429 281.618 99.6836 282.126 100.002 282.469C99.9206 282.811 99.9206 283.063 99.9206 283.236C99.7614 283.748 99.6021 284.173 99.4391 284.599C99.0391 285.11 98.5574 285.536 98.0798 285.618C97.8389 285.957 97.5983 286.213 97.3574 286.213C96.9574 286.469 96.4759 286.555 96.0759 286.555C95.7574 286.642 95.5166 286.555 95.2758 286.386C94.7943 286.386 94.3166 286.217 93.9167 285.874C93.6758 285.705 93.4351 285.618 93.1167 285.618C92.635 285.362 92.235 285.106 91.835 284.768C91.5127 284.512 91.2759 284.343 91.035 284.173C90.635 284.173 90.3944 284.004 90.235 283.748C89.8351 283.579 89.4351 283.579 89.0351 283.748C88.6351 284.004 88.3127 284.26 88.0758 284.516C87.9697 284.516 87.9166 284.487 87.9166 284.429C87.1943 284.599 86.6351 285.11 86.3166 285.705H86.0758C86.1573 285.024 86.2351 284.26 86.3943 283.492C86.7166 282.299 86.6351 281.024 86.0758 279.835C85.9166 279.241 85.6758 278.642 85.5166 278.135C85.1166 277.623 84.8758 277.115 84.8758 276.434C85.1166 275.922 85.2758 275.415 85.435 274.903V274.647C85.6758 274.478 85.8351 274.222 85.9943 273.879C86.1534 273.71 86.3128 273.541 86.6351 273.454C86.9534 273.198 87.2758 272.86 87.5166 272.434C87.8389 272.009 88.2389 271.584 88.7166 271.159C88.9574 270.99 89.2759 270.821 89.5982 270.734C90.3206 270.734 91.1205 270.821 91.9205 270.821C93.9205 271.159 95.5245 272.183 96.6428 273.883L96.639 273.875ZM93.5982 305.183C93.2797 305.608 93.039 305.864 92.8797 306.203C92.639 306.541 92.4797 306.967 92.3982 307.309C92.4797 306.967 92.639 306.715 92.8797 306.459C93.1205 306.034 93.3613 305.608 93.5982 305.183ZM105.765 306.628V306.715C105.606 307.14 105.365 307.565 105.206 307.908C105.047 308.25 104.888 308.589 104.724 308.845C104.484 309.356 104.324 309.782 104.243 310.207C104.324 310.293 104.484 310.376 104.724 310.376V310.289C104.724 310.176 104.778 310.147 104.884 310.203C105.043 309.691 105.365 309.266 105.765 308.927C106.006 308.758 106.247 308.502 106.565 308.246C106.247 307.734 105.924 307.227 105.765 306.628ZM116.41 285.614C115.451 286.551 114.569 287.571 113.769 288.677C113.528 289.015 113.21 289.189 112.81 289.189C112.651 289.275 112.569 289.445 112.492 289.614C112.01 290.72 111.692 291.909 111.61 293.102C111.61 293.869 111.692 294.546 112.01 295.314C112.092 295.909 112.169 296.507 112.251 297.101C114.01 295.657 115.692 294.125 117.373 292.594C117.373 291.232 117.455 290.551 117.532 290.468C117.532 290.13 117.451 289.705 117.373 289.279C117.455 288.429 117.373 287.579 117.291 286.642C117.051 286.473 116.891 286.13 116.891 285.622C116.973 285.536 117.132 285.366 117.291 285.11C116.969 285.28 116.651 285.453 116.41 285.622V285.614ZM117.291 296.078C116.169 297.015 114.969 297.952 113.769 298.802C113.128 298.971 112.81 299.396 112.81 299.908C112.81 300.42 112.969 300.758 113.128 300.928C113.128 301.184 113.128 301.266 112.969 301.353C113.024 301.411 113.051 301.467 113.051 301.522C113.132 301.435 113.21 301.353 113.373 301.266V302.203C113.214 302.203 113.051 302.203 112.892 302.116C112.573 303.053 112.332 303.986 112.332 304.923C113.855 303.648 115.132 302.116 116.014 300.243C116.495 299.223 116.814 298.117 117.055 296.837C117.136 296.668 117.214 296.325 117.295 296.069L117.291 296.078ZM124.814 291.484C124.255 291.57 123.773 291.653 123.214 291.739V292.932C123.214 293.102 123.132 293.271 123.055 293.444C123.055 294.039 122.973 294.55 122.973 294.976C122.973 295.062 122.892 295.062 122.814 295.062H122.895C122.895 295.657 122.814 296.255 122.814 296.85C122.814 297.019 122.895 297.105 122.973 297.188C122.814 297.7 122.732 298.208 122.732 298.719C122.814 298.633 122.892 298.633 122.973 298.633C123.055 298.975 122.973 299.401 122.814 299.739C122.732 299.995 122.573 300.333 122.414 300.589C122.092 300.589 122.014 300.845 122.014 301.184C121.855 301.27 121.773 301.353 121.773 301.44C121.455 301.782 121.214 302.121 121.132 302.376C121.292 302.546 121.532 302.715 121.851 302.715C122.892 303.396 123.851 304.077 124.892 304.927C125.373 305.353 125.773 305.778 126.01 306.459C126.169 306.971 126.01 307.478 125.692 307.821C125.532 308.077 125.61 308.333 125.851 308.502C126.01 308.927 126.092 309.266 126.092 309.691C126.092 309.522 126.173 309.352 126.332 309.179C126.492 309.348 126.492 309.435 126.573 309.604C126.492 309.773 126.332 309.86 126.173 309.773C126.332 310.624 126.255 311.474 126.092 312.155C125.451 312.836 124.81 313.175 124.092 313.261C123.292 313.43 122.651 313.773 122.092 314.198C121.692 314.537 121.373 314.71 121.132 314.793C120.41 315.218 119.932 315.73 119.61 316.324C119.61 316.493 119.692 316.493 119.851 316.411C120.251 316.836 120.732 317.261 121.292 317.517C122.492 318.198 123.614 319.048 124.655 319.985C124.896 320.072 125.136 320.324 125.377 320.666C125.536 320.922 125.777 321.178 126.018 321.517C126.018 321.603 125.936 321.603 125.859 321.603C125.699 322.115 125.459 322.453 125.14 322.709C124.899 322.796 124.818 322.879 124.818 323.048C124.736 323.304 124.577 323.473 124.418 323.473C124.177 323.56 124.018 323.56 123.777 323.56C123.218 323.898 122.736 324.154 122.255 324.497C122.014 324.497 121.695 324.41 121.536 324.158C121.055 323.989 120.736 323.989 120.414 324.158C120.255 324.158 120.173 324.158 120.095 324.245C119.777 324.414 119.455 324.583 119.136 324.67V324.583C118.818 324.839 118.577 325.264 118.418 325.603C118.258 325.859 118.177 325.941 118.095 325.859H118.177C118.018 325.945 118.018 326.028 118.095 325.945C118.095 326.003 118.123 326.032 118.177 326.032C118.018 326.119 117.936 326.201 117.936 326.288C117.777 326.288 117.695 326.288 117.695 326.201V326.457C117.641 326.515 117.588 326.544 117.536 326.544C117.455 326.631 117.377 326.631 117.377 326.713C117.218 326.8 117.136 326.8 117.055 326.8H116.973C116.655 327.056 116.414 327.312 116.173 327.481V327.138C116.014 327.308 115.773 327.394 115.614 327.564C115.455 327.733 115.373 327.989 115.455 328.245H115.136C114.977 328.414 114.895 328.414 114.895 328.245C114.736 328.414 114.736 328.583 114.895 328.756C114.789 328.756 114.736 328.7 114.736 328.587C114.655 328.756 114.655 328.843 114.818 328.843C114.977 328.756 115.299 328.674 115.618 328.587C115.859 328.587 116.099 328.501 116.34 328.249C117.781 327.993 119.14 327.568 120.581 326.973C121.54 326.804 122.581 326.887 123.622 327.143V326.631C123.622 326.462 123.703 326.292 123.781 326.036C123.862 326.123 124.022 326.206 124.099 326.292C124.259 326.123 124.34 325.867 124.34 325.611C124.34 325.698 124.34 325.78 124.422 325.78L124.662 325.525C124.903 325.525 125.062 325.355 125.062 324.93C125.062 325.017 125.144 325.099 125.144 325.099C125.303 325.269 125.385 325.186 125.462 324.93C125.462 325.017 125.544 325.099 125.544 325.099C125.626 325.099 125.703 325.099 125.785 324.93H125.866C126.026 325.186 126.107 325.186 126.266 324.93C126.348 324.761 126.426 324.674 126.507 324.505H127.066C127.307 324.336 127.548 324.166 127.626 323.824C127.707 323.824 127.866 323.824 128.026 323.737C128.185 323.312 128.507 322.887 128.907 322.462C128.907 321.95 128.907 321.355 128.989 320.844C129.148 320.418 129.229 319.993 129.389 319.651C129.389 319.226 129.389 318.883 129.307 318.458C129.307 317.182 129.226 315.82 129.226 314.376C129.226 313.951 129.144 313.356 129.066 312.844C129.066 312.588 128.985 312.332 128.907 312.077V308.758C128.748 308.502 128.748 308.333 128.826 308.077C128.744 307.565 128.666 307.227 128.744 306.884C128.744 306.628 128.826 306.459 128.826 306.459C128.985 305.695 129.144 304.841 129.144 304.077C129.062 302.632 129.062 301.526 129.144 300.758C129.303 299.991 129.385 299.566 129.385 299.566C129.466 299.14 129.544 298.715 129.544 298.203V295.397C128.503 294.121 127.381 292.928 126.344 291.653C125.785 291.653 125.303 291.653 124.822 291.484H124.814Z" fill="white"/>
<path d="M101.05 356.564C101.251 356.647 101.448 356.729 101.645 356.808C102.034 356.969 102.403 357.13 102.755 357.295C103.111 357.451 103.446 357.629 103.769 357.769C104.091 357.909 104.401 358.054 104.69 358.198C105.273 358.483 105.788 358.776 106.245 359.065C106.701 359.329 107.099 359.597 107.435 359.869C108.784 360.962 109.177 362.117 108.784 363.318C108.499 364.197 107.904 365.047 107.095 365.872C106.693 366.284 106.236 366.693 105.746 367.101C105.256 367.501 104.728 367.869 104.179 368.248C103.681 368.591 103.115 368.912 102.478 369.218C101.842 369.527 101.138 369.758 100.363 370.002C99.977 370.117 99.5707 370.228 99.1476 370.336C98.938 370.389 98.7202 370.443 98.5024 370.488C98.2845 370.525 98.0624 370.567 97.8362 370.608C96.9313 370.756 95.9592 370.889 94.9202 370.988C90.7934 371.305 85.6486 370.909 79.9423 369.325C79.494 369.197 79.0457 369.065 78.5891 368.933C78.1365 368.797 77.6674 368.669 77.2191 368.504C76.3099 368.178 75.3882 367.848 74.4665 367.518C73.5573 367.159 72.6524 366.775 71.7473 366.4C71.5211 366.305 71.2949 366.214 71.0687 366.119C70.8467 366.02 70.6287 365.917 70.4068 365.818C69.9668 365.616 69.531 365.418 69.0954 365.22C65.111 363.396 61.4367 360.451 58.5165 356.861C58.24 356.527 57.9636 356.189 57.6871 355.851C57.5487 355.682 57.4063 355.512 57.2681 355.343C57.134 355.17 56.9957 354.997 56.8616 354.823C56.317 354.126 55.7639 353.433 55.1984 352.736C54.1258 351.296 52.9904 349.86 51.9347 348.317C51.7587 348.07 51.5995 347.818 51.4193 347.525C51.3314 347.381 51.235 347.224 51.1303 347.055C51.0297 346.882 50.925 346.692 50.8035 346.477C51.0465 346.618 51.2601 346.749 51.4822 346.873C51.7042 346.993 51.9263 347.113 52.1609 347.241C52.0897 347.096 51.9682 346.799 51.7671 346.436C49.2743 342.026 46.7814 337.364 44.7159 332.223C41.5863 324.372 40.1409 315.989 40.1409 307.688C40.1534 306.517 40.1953 305.345 40.2289 304.177C40.2959 303.01 40.409 301.846 40.5096 300.695C40.6311 299.635 40.8112 298.587 40.9704 297.539C41.0458 297.015 41.1548 296.5 41.2637 295.98C41.3726 295.464 41.4815 294.944 41.5905 294.424C41.7455 293.616 41.9759 292.819 42.1896 292.019L42.4996 290.823L42.6421 290.22L42.8013 289.622C43.17 288.224 43.5093 286.813 43.9744 285.439C44.1964 284.75 44.4017 284.053 44.6447 283.372L45.403 281.334C45.5329 280.996 45.6502 280.653 45.7927 280.319L46.22 279.321L47.0831 277.324L48.0383 275.368L48.5201 274.39L49.0438 273.437L50.0996 271.531L51.2392 269.675L51.8132 268.747C52.0059 268.441 52.2196 268.144 52.4249 267.843L53.6608 266.044C55.3869 263.705 57.1885 261.411 59.1995 259.299C60.1421 258.239 61.1854 257.273 62.2035 256.279C69.1456 249.719 77.4998 244.608 86.5535 241.398C91.0783 239.793 95.775 238.671 100.526 238.064C105.277 237.458 110.078 237.367 114.808 237.784C118.86 238.147 122.932 238.782 126.883 239.801C127.637 240.008 128.471 240.214 129.12 240.449C132.568 241.786 136.029 243.254 139.456 244.942C140.302 245.383 141.169 245.796 142.02 246.25C142.862 246.716 143.708 247.182 144.559 247.648C145.393 248.147 146.226 248.651 147.064 249.154C147.487 249.397 147.89 249.682 148.3 249.946C148.711 250.214 149.121 250.487 149.532 250.755C149.498 250.969 149.469 251.134 149.427 251.411C149.7 251.592 149.964 251.79 150.227 251.992C150.491 252.195 150.755 252.393 151.019 252.595C151.543 253.003 152.088 253.395 152.607 253.824C153.123 254.257 153.638 254.691 154.153 255.128C154.409 255.347 154.673 255.561 154.924 255.788L155.67 256.477C158.934 259.468 161.891 262.773 164.481 266.325C164.828 266.803 165.26 267.385 165.44 267.769C165.846 268.693 166.32 269.609 166.839 270.521C167.321 271.457 167.849 272.389 168.402 273.326C168.913 274.287 169.462 275.249 169.998 276.218C170.497 277.212 171.025 278.198 171.498 279.205C171.737 279.741 171.972 280.282 172.198 280.826C172.424 281.371 172.663 281.911 172.851 282.472L173.446 284.139L173.74 284.973L173.999 285.818C174.242 286.615 174.477 287.502 174.707 288.281C174.925 289.065 175.189 289.734 175.566 290.084C175.457 289.606 175.344 289.123 175.219 288.57C175.101 288.017 174.929 287.407 174.716 286.668C174.867 286.908 175.009 287.151 175.147 287.407C175.214 287.535 175.281 287.663 175.348 287.79C175.407 287.922 175.466 288.055 175.524 288.191C175.755 288.727 175.96 289.288 176.153 289.87C176.249 290.159 176.341 290.451 176.429 290.753C176.518 291.05 176.58 291.359 176.655 291.664C176.794 292.279 176.924 292.91 177.049 293.546C177.221 293.137 177.393 293.187 177.552 293.542C177.724 293.896 177.845 294.565 177.95 295.386C178.39 298.534 178.512 301.698 178.462 305.052C178.286 304.829 178.142 304.656 177.984 304.454C177.962 304.895 177.917 305.324 177.925 305.733C177.933 306.446 177.972 307.164 177.962 307.878L177.908 310.023C177.896 310.382 177.892 310.737 177.875 311.096L177.791 312.169C177.732 312.882 177.669 313.6 177.599 314.314C177.49 315.114 177.359 315.882 177.221 316.633C177.15 317.008 177.078 317.375 177.004 317.738C176.912 318.097 176.815 318.452 176.715 318.803C176.514 319.504 176.299 320.185 176.069 320.849C175.814 321.509 175.533 322.149 175.235 322.78C174.779 323.807 174.217 325.041 173.677 326.361C173.421 327.025 173.094 327.685 172.801 328.358C172.655 328.692 172.504 329.026 172.357 329.36C172.215 329.694 172.064 330.024 171.9 330.342C171.641 330.874 171.389 331.394 171.142 331.893C170.899 332.397 170.664 332.883 170.388 333.337C170.12 333.795 169.843 334.232 169.55 334.645C169.253 335.058 168.951 335.45 168.574 335.796C167.447 336.889 165.561 340.045 163.735 342.145C161.246 345.149 158.485 348.004 155.519 350.475C155.276 350.681 155.041 350.817 154.74 350.974C154.589 351.052 154.421 351.135 154.229 351.238C154.032 351.333 153.801 351.44 153.537 351.572C153.65 351.465 153.755 351.37 153.864 351.271C153.864 351.271 153.856 351.271 153.851 351.275C153.043 351.572 152.276 352.055 151.53 352.604C150.764 353.128 149.997 353.701 149.235 354.217C148.652 354.605 148.036 354.96 147.45 355.343L146.566 355.925C146.272 356.119 145.967 356.296 145.669 356.49C145.074 356.87 144.488 357.27 143.914 357.683C143.319 358.07 142.741 358.483 142.171 358.92C141.911 359.114 141.66 359.324 141.392 359.514C141.119 359.7 140.847 359.89 140.575 360.079C140.026 360.451 139.464 360.81 138.878 361.094C135.015 362.934 130.943 364.333 126.799 365.236C126.271 365.344 125.76 365.459 125.262 365.583C125.014 365.645 124.767 365.707 124.528 365.777C124.285 365.839 124.042 365.896 123.804 365.954C123.326 366.078 122.857 366.214 122.387 366.371C121.918 366.524 121.457 366.713 120.984 366.874C120.2 367.163 119.367 367.489 118.466 367.691C117.561 367.856 116.589 367.889 115.558 367.646C115.056 367.534 113.857 367.716 112.977 367.765L111.985 367.811H110.992L109.006 367.807L108.78 367.572C109.643 367.357 110.464 367.118 111.352 366.936C111.591 366.887 111.825 366.841 112.064 366.788L112.776 366.61C113.25 366.491 113.719 366.375 114.197 366.255C115.144 366.045 116.074 365.736 117.004 365.463C118.03 365.183 119.027 364.807 120.083 364.531C120.347 364.461 120.615 364.395 120.883 364.337C121.156 364.271 121.428 364.209 121.705 364.139C122.262 364.015 122.84 363.916 123.456 363.85C123.636 363.83 123.833 363.809 124.03 363.776C124.227 363.735 124.432 363.689 124.625 363.64C125.014 363.541 125.379 363.417 125.618 363.281C125.978 363.075 126.355 362.905 126.74 362.761C127.122 362.6 127.516 362.46 127.913 362.336C128.705 362.076 129.539 361.907 130.323 361.61C130.725 361.47 131.131 361.334 131.542 361.198C131.948 361.061 132.363 360.942 132.761 360.781C133.561 360.475 134.366 360.174 135.149 359.832C142.25 356.573 148.648 351.907 153.898 346.25C154.396 345.693 155.175 344.938 155.276 344.571C155.481 343.825 155.863 343.173 156.365 342.587C156.876 342.005 157.434 341.432 157.97 340.842C158.259 340.524 158.523 340.206 158.766 339.885C159.001 339.555 159.202 339.212 159.39 338.861C159.579 338.511 159.75 338.152 159.905 337.772C159.981 337.582 160.065 337.393 160.128 337.191C160.19 336.988 160.249 336.778 160.308 336.568C157.974 340.256 155.255 343.577 152.255 346.551C149.255 349.526 145.967 352.158 142.414 354.436C142.468 353.676 143.407 353.227 144.115 352.715L145.569 351.564L146.293 350.991L146.989 350.38L148.38 349.167L149.708 347.888L150.37 347.249L151.003 346.58L152.264 345.244L153.454 343.849L154.048 343.152L154.606 342.426L154.97 341.947C154.903 341.947 154.828 341.956 154.744 341.96C155.046 341.663 155.335 341.333 155.645 341.036L156.696 339.439L157.228 338.651C157.396 338.379 157.568 338.111 157.744 337.846L158.355 336.931C158.561 336.625 158.77 336.324 158.954 336.007L160.115 334.133C160.831 332.854 161.581 331.584 162.201 330.255L162.403 330.309C162.31 330.779 162.214 331.25 162.08 331.926C162.537 330.981 163.031 330.111 163.442 329.253C163.827 328.387 164.183 327.561 164.409 326.757C164.61 325.923 164.824 325.127 165.063 324.335C165.281 323.535 165.499 322.73 165.779 321.909C165.901 321.571 165.997 321.22 166.089 320.87C166.182 320.519 166.274 320.164 166.358 319.813C166.441 319.463 166.525 319.108 166.596 318.761C166.651 318.407 166.697 318.056 166.739 317.709C166.789 317.264 166.848 316.822 166.915 316.385C166.668 316.884 166.475 317.421 166.303 317.969C166.215 318.246 166.148 318.526 166.048 318.803C165.955 319.079 165.859 319.355 165.767 319.628L165.75 319.698H165.742C165.683 319.859 165.629 320.016 165.57 320.176C165.159 321.373 164.631 322.541 164.242 323.749C164.02 324.347 163.793 324.942 163.601 325.552C163.504 325.858 163.412 326.167 163.328 326.476C163.228 326.782 163.131 327.087 163.043 327.4C162.884 327.961 162.734 328.543 162.562 329.121C162.361 329.686 162.139 330.243 161.87 330.763C160.077 334.179 157.878 337.389 155.356 340.268C155.201 340.458 155.041 340.635 154.882 340.813C154.723 340.99 154.572 341.163 154.421 341.341C154.124 341.692 153.839 342.046 153.575 342.405C153.03 343.111 152.511 343.816 152.058 344.617C151.271 345.904 150.391 347.422 148.539 348.107C148.313 348.189 148.032 348.449 147.71 348.734C147.383 349.015 147.039 349.34 146.729 349.592C145.812 350.368 144.823 351.053 143.859 351.766L143.553 351.7C144.052 351.065 144.504 350.434 145.045 349.811C145.606 349.13 146.147 348.425 146.7 347.744C147.24 347.051 147.743 346.32 148.267 345.619C148.56 345.24 148.807 344.819 149.088 344.427C149.364 344.031 149.649 343.639 149.951 343.255C150.248 342.863 150.55 342.463 150.889 342.079C151.061 341.885 151.237 341.696 151.426 341.51C151.614 341.324 151.815 341.135 152.008 340.941C152.473 340.491 153.072 339.823 153.265 339.369C153.801 337.954 154.886 336.865 155.724 335.615C155.942 335.297 156.181 334.992 156.395 334.67L157.036 333.708L157.677 332.743C157.878 332.413 158.058 332.075 158.242 331.741C161.59 325.573 163.634 318.774 164.292 311.855C164.346 311.187 164.514 310.217 164.363 309.9C163.714 308.592 164.112 307.181 164.217 305.741C164.254 305.353 164.275 304.982 164.271 304.619C164.258 304.256 164.208 303.897 164.15 303.542C164.087 303.187 164.007 302.837 163.902 302.478C163.802 302.119 163.68 301.76 163.504 301.393C163.848 305.312 163.731 309.186 163.203 312.944C162.679 316.703 161.749 320.362 160.429 323.902C160.002 323.308 160.475 322.495 160.66 321.736L161.095 320.135L161.447 318.514L161.627 317.705C161.682 317.433 161.72 317.161 161.766 316.888L162.038 315.259C162.122 314.714 162.164 314.165 162.231 313.617C162.285 313.068 162.373 312.528 162.39 311.975C162.449 310.877 162.545 309.784 162.52 308.683C162.52 308.262 162.52 307.845 162.507 307.428C162.503 307.012 162.444 306.595 162.415 306.178C162.344 305.349 162.306 304.52 162.227 303.691C162.092 301.054 161.778 298.422 161.267 295.831L161.464 295.761C161.569 295.955 161.669 296.145 161.787 296.359C161.9 296.574 162.034 296.809 162.159 297.094C162.13 296.859 162.088 296.627 162.042 296.405C162 296.178 161.958 295.955 161.916 295.732C161.837 295.287 161.761 294.858 161.686 294.437C161.502 293.603 161.276 292.828 160.995 292.122C160.366 290.707 159.826 289.371 159.285 287.902C159.177 287.597 159.08 287.283 158.95 286.982C158.816 286.681 158.686 286.379 158.552 286.078C158.276 285.484 158.016 284.886 157.664 284.358C157.174 283.599 156.78 282.798 156.311 282.039C155.863 281.268 155.46 280.476 154.995 279.717L154.333 278.557C154.107 278.174 153.86 277.802 153.625 277.423C153.386 277.047 153.152 276.668 152.909 276.292L152.121 275.207C152.071 275.137 152.113 275.009 152.113 274.741C154.182 276.957 155.925 279.473 157.333 282.147C158.749 284.82 159.872 287.625 160.823 290.468L160.635 289.651L160.538 289.243L160.417 288.843L159.922 287.233L159.797 286.829L159.646 286.433L159.344 285.645L159.042 284.853L158.887 284.457L158.711 284.069L158.008 282.522L157.832 282.134L157.635 281.759L157.241 281.004C156.738 279.985 156.135 279.015 155.565 278.025L156.73 279.51C156.931 279.754 157.107 280.018 157.287 280.274L157.836 281.045C157.647 280.529 157.513 280.026 157.392 279.531C157.249 279.044 157.119 278.566 156.964 278.079C156.889 277.835 156.805 277.592 156.713 277.344C156.667 277.221 156.617 277.097 156.562 276.973C156.504 276.853 156.441 276.734 156.374 276.61C156.11 276.127 155.779 275.632 155.347 275.129C155.674 275.249 155.821 275.306 156.152 275.43C155.904 275.067 155.682 274.696 155.435 274.353C155.184 274.011 154.941 273.673 154.698 273.338C154.455 273.004 154.216 272.67 153.973 272.344C153.717 272.027 153.462 271.713 153.206 271.399C151.124 268.833 148.811 266.444 146.272 264.299C145.816 263.924 145.334 263.375 144.768 263.515C144.274 263.631 143.432 263.074 143.457 262.505C143.478 261.989 142.648 261.465 142.544 261.49C142.016 261.589 141.517 261.308 141.01 260.953C140.759 260.776 140.503 260.582 140.244 260.409C139.98 260.248 139.707 260.116 139.439 260.046C139.347 260.19 139.238 260.363 139.05 260.66C134.604 258.02 129.862 256.102 124.968 254.831C123.887 254.588 122.819 254.27 121.725 254.084C121.181 253.977 120.636 253.87 120.091 253.775C119.543 253.705 118.994 253.643 118.445 253.585C117.36 253.445 116.262 253.441 115.173 253.383C114.632 253.346 114.084 253.379 113.539 253.379L111.909 253.399L110.284 253.502C109.743 253.54 109.203 253.552 108.662 253.626C107.585 253.754 106.509 253.832 105.449 254.022C102.16 254.509 98.8794 255.173 95.2051 256.419C95.9969 255.569 95.6031 255.574 94.8449 255.8C91.1328 256.902 87.5506 258.428 84.1487 260.273C83.6753 260.545 83.1976 260.817 82.7243 261.09L82.0079 261.494C81.769 261.63 81.5427 261.783 81.3081 261.923C80.8431 262.212 80.3739 262.492 79.9005 262.765C79.4395 263.053 78.9786 263.342 78.522 263.631C78.1617 263.858 77.7804 264.068 77.4201 264.287C77.064 264.51 76.7037 264.708 76.356 264.868C75.6563 265.19 74.986 265.355 74.4371 265.232C74.2528 265.186 73.8296 265.368 73.507 265.553C73.0503 265.817 72.6774 265.958 72.3632 266.015C70.7963 267.674 69.3132 269.378 67.9934 271.197C67.3022 272.08 66.6863 273.017 66.0411 273.928C65.706 274.378 65.4252 274.861 65.111 275.323C64.8093 275.793 64.4826 276.243 64.1852 276.717C62.1196 279.956 61.2985 282.638 60.4313 285.645C60.2762 286.115 60.1505 286.615 59.9997 287.114C59.8531 287.613 59.6938 288.12 59.5305 288.628C59.3923 289.144 59.254 289.663 59.1115 290.183C58.9733 290.703 58.8223 291.215 58.7302 291.734C58.659 292.081 58.5417 292.527 58.5501 292.754C58.5879 294.697 58.4412 296.896 58.261 299.185C58.24 299.763 58.2148 300.34 58.1814 300.926C58.1689 301.219 58.1437 301.508 58.1353 301.801V302.68C58.1311 303.266 58.1269 303.851 58.1269 304.433C58.1646 305.015 58.2023 305.588 58.24 306.158C58.6632 311.467 59.8991 316.653 61.818 321.563C62.8026 324.009 63.9463 326.39 65.2576 328.679C66.5732 330.969 68.0898 333.147 69.7279 335.231C71.8521 337.908 74.2402 340.396 76.863 342.57C77.0766 342.748 77.2945 342.933 77.5165 343.115C77.7511 343.284 77.9857 343.457 78.2162 343.614C78.6771 343.936 79.1253 344.216 79.4981 344.402C79.9926 344.617 80.42 344.72 80.8682 344.93C81.0903 345.037 81.3206 345.169 81.5679 345.355C81.8108 345.545 82.1 345.755 82.4101 346.061C82.4896 346.135 82.7536 346.234 83.1138 346.353C83.47 346.473 83.9225 346.618 84.3917 346.749C84.1446 347.133 83.977 347.397 83.7506 347.752C84.3499 348.132 84.9154 348.528 85.4894 348.878C86.076 349.217 86.6499 349.547 87.2239 349.877C89.6496 351.156 91.8995 352.274 94.0614 353.351C94.6102 353.598 95.1464 353.85 95.6786 354.11C95.9467 354.233 96.2065 354.382 96.4746 354.493C96.7427 354.613 97.0066 354.733 97.2748 354.848C97.8069 355.083 98.3264 355.347 98.8543 355.578C99.3863 355.801 99.9143 356.028 100.442 356.263C100.652 356.358 100.857 356.453 101.054 356.544L101.05 356.564ZM133.117 255.421C132.681 255.227 132.262 255.041 131.848 254.856C131.642 254.765 131.433 254.67 131.228 254.579C131.018 254.493 130.804 254.414 130.595 254.332C130.167 254.167 129.732 253.998 129.275 253.82C131.026 255.025 131.894 255.38 134.474 256.069C134.001 255.829 133.561 255.602 133.121 255.417L133.117 255.421ZM165.013 291.062C164.929 290.744 164.803 290.443 164.686 290.146C164.569 289.849 164.46 289.56 164.38 289.267L164.158 289.395C164.246 289.676 164.334 289.96 164.426 290.245C164.514 290.534 164.615 290.823 164.686 291.132C164.845 291.743 165.013 292.399 165.201 293.129C165.31 292.378 165.189 291.697 165.013 291.062ZM161.887 281.973C161.72 281.573 161.548 281.169 161.372 280.769C161.414 281.152 161.451 281.532 161.493 281.903L161.598 282.101L161.887 281.973ZM163.936 275.727C163.429 275.038 162.918 274.349 162.407 273.656C162.679 274.324 162.972 274.89 163.383 275.5C163.592 275.801 163.819 276.123 164.07 276.486C164.326 276.845 164.619 277.233 164.958 277.679C164.589 276.981 164.254 276.342 163.936 275.731V275.727ZM163.45 277.097C163.043 276.222 162.549 275.389 162.084 274.531C161.12 272.831 160.006 271.164 158.644 269.601C158.766 269.848 158.892 270.096 159.038 270.393C158.812 270.129 158.594 269.881 158.38 269.634C158.276 269.51 158.171 269.39 158.066 269.271L157.735 268.924C157.786 269.134 157.819 269.287 157.915 269.415C158.406 270.149 158.896 270.888 159.39 271.626C159.864 272.373 160.312 273.136 160.777 273.887C160.928 274.122 161.095 274.473 161.225 274.584C161.598 274.89 161.942 275.249 162.264 275.636C162.583 276.028 162.893 276.441 163.152 276.899C163.421 277.349 163.68 277.815 163.944 278.277L164.342 278.974C164.468 279.209 164.594 279.444 164.728 279.675C164.338 278.801 163.877 277.963 163.462 277.097H163.45ZM167.158 273.904C166.605 273.013 166.073 272.109 165.511 271.222C164.92 270.356 164.33 269.489 163.697 268.656C163.035 267.847 162.369 267.051 161.644 266.312C164.233 269.559 166.508 273.058 168.415 276.738L168.725 276.61C168.18 275.723 167.669 274.811 167.154 273.9L167.158 273.904ZM170.145 277.134C169.73 276.239 169.244 275.372 168.758 274.522C168.674 274.374 168.498 274.341 168.201 274.147C168.934 275.405 169.5 276.309 169.969 277.258L170.145 277.134ZM168.327 277.662L168.214 277.699C168.503 278.285 168.809 278.863 169.378 280.047C168.863 278.846 168.586 278.26 168.327 277.666V277.662ZM165.373 277.881L165.587 278.314L165.784 278.755L166.19 279.634C168.184 283.83 169.743 288.236 170.715 292.766C171.703 297.296 172.181 301.929 172.143 306.558C172.106 310.432 171.888 314.326 171.205 318.171L171.59 318.258C172.638 314.339 172.923 310.192 173.082 306.137C173.103 305.448 173.145 304.759 173.145 304.066L173.111 301.991C173.103 301.644 173.111 301.298 173.086 300.951L173.015 299.916C172.965 299.227 172.931 298.534 172.864 297.84C172.742 297.176 172.608 296.495 172.495 295.823C172.437 295.489 172.395 295.155 172.336 294.833C172.277 294.511 172.223 294.197 172.185 293.892C171.657 289.696 170.275 285.843 168.557 282.159L168.314 282.2C168.49 282.67 168.687 283.137 168.846 283.615L169.32 285.051C169.47 285.53 169.646 286 169.776 286.487L170.174 287.939C168.972 284.23 167.309 280.934 165.365 277.868L165.373 277.881ZM170.761 283.108L170.602 283.087L171.402 285.509L171.595 285.538L170.761 283.108ZM176.68 295.641L176.538 294.726L176.467 294.268L176.375 293.814L176.002 291.999L175.814 291.091L175.583 290.196C175.6 290.505 175.629 290.815 175.667 291.12C175.692 291.429 175.726 291.734 175.767 292.04C175.851 292.65 175.973 293.253 176.111 293.851L176.22 294.301L176.316 294.754L176.522 295.658C176.668 296.26 176.815 296.867 176.957 297.469L176.68 295.641ZM162.285 340.157C161.916 340.693 161.565 341.242 161.183 341.77L160.014 343.334C159.817 343.593 159.633 343.862 159.424 344.113L158.804 344.868C158.389 345.372 157.978 345.879 157.555 346.374L156.244 347.826C156.022 348.066 155.808 348.313 155.582 348.548L154.89 349.246C154.518 349.613 154.312 350.112 153.638 351.077C154.501 350.413 155.083 349.914 155.594 349.501C155.829 349.258 156.059 349.035 156.269 348.804C156.478 348.577 156.684 348.359 156.889 348.144L157.76 347.245L158.196 346.795L158.615 346.329L160.274 344.452L161.845 342.5C162.113 342.178 162.356 341.84 162.604 341.502L163.341 340.491C165.281 337.768 167.015 334.893 168.482 331.873C171.36 325.812 173.216 319.244 173.945 312.573C174.016 311.896 174.104 311.22 174.154 310.539C174.192 309.858 174.234 309.178 174.272 308.497L174.33 307.478L174.347 306.459C174.364 305.778 174.381 305.106 174.402 304.429C174.397 303.22 174.372 302.292 174.351 301.508C174.351 301.116 174.314 300.766 174.28 300.431C174.247 300.097 174.213 299.784 174.171 299.478C174.129 299.173 174.083 298.864 174.033 298.546C173.978 298.228 173.924 297.894 173.828 297.535C173.652 296.817 173.425 295.984 173.128 294.907L173.384 296.933L173.513 297.944L173.597 298.958C173.782 300.918 174.05 302.898 174.087 304.887C174.079 305.7 174.075 306.513 174.066 307.321C174.033 308.13 173.957 308.934 173.89 309.735C173.849 310.135 173.823 310.535 173.761 310.935C173.698 311.335 173.631 311.731 173.56 312.127C173.488 312.523 173.413 312.92 173.333 313.316C173.291 313.514 173.254 313.712 173.208 313.906L173.044 314.491C172.847 315.18 172.688 315.894 172.546 316.628C172.395 317.359 172.206 318.093 172.039 318.836L171.771 319.941C171.662 320.304 171.544 320.663 171.423 321.022C171.176 321.732 170.924 322.429 170.593 323.073C170.363 323.506 170.229 324.174 170.053 324.735C169.931 325.111 169.822 325.486 169.688 325.858L169.273 326.963L168.867 328.069L168.666 328.622L168.448 329.166C168.193 329.81 167.841 330.47 167.564 331.126C167.275 331.774 167.032 332.405 167.07 333.024L166.462 333.944C166.261 334.253 166.031 334.542 165.817 334.839L164.514 336.609C164.455 336.679 164.409 336.774 164.359 336.856C163.68 337.962 163.039 339.097 162.285 340.161V340.157ZM168.285 328.3C168.524 327.615 168.687 326.934 168.938 326.311L168.683 326.287C168.452 326.897 168.226 327.508 167.983 328.16C167.719 328.803 167.413 329.484 167.087 330.251C167.665 329.653 168.025 328.976 168.285 328.304V328.3ZM166.709 324.578C166.479 325.214 166.223 325.837 165.976 326.46L165.595 327.392L165.159 328.304C164.032 330.75 162.57 333.04 160.919 335.21C161.167 335.305 161.326 335.363 161.56 335.45C161.841 335.066 162.084 334.662 162.34 334.257C162.595 333.853 162.851 333.44 163.115 333.024C163.387 332.611 163.618 332.17 163.873 331.724C164.124 331.278 164.38 330.821 164.644 330.354C164.648 330.643 164.652 330.874 164.657 331.113C164.941 331.014 165.201 330.833 165.444 330.598C165.683 330.359 165.876 330.053 166.068 329.715C166.257 329.377 166.429 329.001 166.592 328.613C166.756 328.226 166.915 327.83 167.04 327.425C168.427 323.419 169.378 319.289 169.885 314.508C169.797 314.982 169.718 315.424 169.642 315.84C169.604 316.047 169.571 316.253 169.529 316.447C169.483 316.645 169.437 316.835 169.395 317.024C169.219 317.78 169.052 318.489 168.871 319.256C168.825 318.774 168.804 318.522 168.754 318.002C168.67 318.493 168.612 318.972 168.511 319.43C168.415 319.888 168.318 320.333 168.222 320.771C168.13 321.208 168.038 321.637 167.945 322.062C167.832 322.483 167.723 322.895 167.61 323.312L167.426 323.361L167.673 322.029L167.853 320.688C167.568 322.016 167.12 323.295 166.714 324.578H166.709ZM167.124 301.149L167.175 301.586L167.2 302.028L167.254 302.911C167.283 303.501 167.342 304.087 167.355 304.677L167.371 306.446L167.384 307.333L167.346 308.22L167.279 309.99C167.25 310.58 167.179 311.166 167.133 311.756L167.053 312.639L167.015 313.08L166.952 313.518C166.89 313.951 166.994 314.401 167.074 315.325C167.531 312.226 167.979 309.12 168.029 305.976C168.029 305.881 168.146 305.795 168.306 305.555C168.612 308.876 168.444 312.239 167.878 315.527C167.325 318.819 166.433 322.037 165.356 325.177C165.486 324.896 165.616 324.616 165.742 324.331L166.077 323.465L166.735 321.719L167.279 319.933L167.547 319.038C167.627 318.737 167.694 318.431 167.769 318.13L168.197 316.303C168.322 315.688 168.419 315.073 168.528 314.454C168.775 313.225 168.88 311.971 169.047 310.725V312.796V313.316L169.022 313.831L168.968 314.871C169.139 314.289 169.357 313.761 169.558 313.237C169.747 312.713 169.944 312.202 170.124 311.674C170.212 311.41 170.3 311.137 170.375 310.861C170.413 310.721 170.455 310.58 170.484 310.436C170.509 310.291 170.535 310.143 170.556 309.994C170.644 309.392 170.681 308.744 170.648 308.018C170.832 308.336 170.916 308.48 171.104 308.806C171.138 308.324 171.167 307.853 171.201 307.391C171.209 306.925 171.218 306.467 171.226 306.017C171.234 305.564 171.243 305.118 171.251 304.672C171.268 304.227 171.23 303.785 171.217 303.34C171.113 299.726 170.698 296.112 169.894 292.576C169.751 291.949 169.659 291.161 169.106 290.905C168.612 290.678 168.322 289.618 168.649 289.16C168.968 288.731 168.57 287.737 168.477 287.687C167.547 287.147 167.485 285.36 166.785 284.37C166.626 284.432 166.433 284.506 166.098 284.634C164.623 281.062 162.813 277.683 160.706 274.522C162.729 278.454 164.208 282.493 165.645 286.879C165.712 287.077 165.75 287.275 165.788 287.53C165.817 287.79 165.838 288.108 165.892 288.545C165.155 286.627 164.443 284.77 163.672 283.009C163.492 282.563 163.278 282.134 163.064 281.713C162.851 281.293 162.637 280.872 162.423 280.463C162.214 280.047 161.967 279.659 161.72 279.275C161.472 278.892 161.217 278.516 160.957 278.149C160.995 278.376 161.032 278.59 161.066 278.809C161.188 279.098 161.313 279.387 161.451 279.675C161.586 279.964 161.736 280.249 161.858 280.55C162.126 281.14 162.394 281.738 162.666 282.336C162.809 282.633 162.926 282.939 163.039 283.244C163.152 283.549 163.261 283.859 163.366 284.164C163.567 284.779 163.756 285.385 163.84 286.012C163.907 286.454 164.192 287.007 164.38 287.51C164.443 287.679 164.506 287.844 164.564 288.013L164.724 288.525L165.042 289.552L165.369 290.575C165.465 290.918 165.561 291.26 165.662 291.603C165.834 292.205 165.964 292.873 166.106 293.504C166.24 294.136 166.437 294.717 166.835 295.146C166.852 295.481 166.885 295.811 166.89 296.145L166.902 297.147L166.915 298.146C166.915 298.476 166.931 298.806 166.911 299.14C166.911 299.223 166.927 299.317 166.936 299.404L167.137 301.162L167.124 301.149ZM158.925 281.363C159.105 281.701 159.239 282.043 159.39 282.361C159.537 282.683 159.679 282.992 159.817 283.306C159.956 283.619 160.111 283.929 160.232 284.263C159.943 283.929 159.767 283.772 159.432 283.426C159.541 283.624 159.65 283.817 159.755 284.011C159.859 284.205 159.947 284.399 160.04 284.589C160.228 284.973 160.408 285.344 160.584 285.707C160.961 286.429 161.238 287.155 161.552 287.873L161.431 288.009C161.032 287.283 160.676 286.553 160.236 285.856C160.362 286.136 160.5 286.413 160.609 286.697L160.936 287.555L161.259 288.413C161.364 288.702 161.477 288.983 161.556 289.28L162.072 291.033L162.197 291.471L162.294 291.916L162.482 292.807C162.763 293.991 162.889 295.204 163.039 296.413C163.098 297.019 163.115 297.634 163.148 298.241C163.161 298.546 163.173 298.851 163.186 299.156C163.186 299.462 163.173 299.771 163.165 300.081C163.421 300.01 163.584 299.969 163.823 299.903L163.798 299.26C163.789 299.045 163.76 298.831 163.743 298.616C163.706 298.187 163.664 297.75 163.622 297.308C163.601 297.085 163.584 296.863 163.563 296.64C163.542 296.413 163.5 296.19 163.471 295.963C163.404 295.505 163.337 295.039 163.27 294.561C163.446 294.763 163.588 294.928 163.735 295.097C163.907 294.866 164.007 294.594 164.057 294.292C164.108 293.991 164.112 293.657 164.057 293.31C163.953 292.617 163.718 291.858 163.496 291.132C162.273 287.489 160.651 283.991 158.359 280.265C158.561 280.657 158.749 281.016 158.925 281.359V281.363ZM145.447 262.645C144.978 262.253 144.479 261.894 144.002 261.514L143.277 260.953C143.038 260.764 142.778 260.599 142.527 260.421L141.019 259.369C140.508 259.031 139.98 258.713 139.46 258.387L138.681 257.896C138.417 257.739 138.145 257.595 137.876 257.442L136.268 256.539L134.613 255.722L133.783 255.314L132.933 254.946L133.825 255.4L134.701 255.887C135.283 256.213 135.882 256.498 136.465 256.819C139.636 258.482 142.644 260.438 145.447 262.653V262.645ZM124.742 253.989C125.517 254.224 126.267 254.534 127.025 254.81C127.402 254.955 127.784 255.087 128.161 255.239L129.275 255.718C129.51 255.817 129.828 255.978 129.987 255.978C130.214 255.978 130.44 255.982 130.662 256.015C130.884 256.048 131.106 256.097 131.328 256.155C131.776 256.267 132.22 256.419 132.673 256.584C133.125 256.741 133.561 256.96 134.009 257.162C134.454 257.364 134.902 257.566 135.358 257.744C134.919 257.529 134.483 257.306 134.047 257.079C133.611 256.852 133.184 256.609 132.736 256.407C132.292 256.192 131.843 255.978 131.395 255.763C131.169 255.656 130.947 255.545 130.716 255.442C130.486 255.347 130.251 255.252 130.021 255.157C129.556 254.967 129.087 254.777 128.609 254.596C128.374 254.501 128.127 254.418 127.884 254.348C127.637 254.274 127.39 254.2 127.143 254.125C126.644 253.981 126.141 253.841 125.63 253.717C125.111 253.618 124.583 253.527 124.047 253.453C124.394 253.729 124.528 253.919 124.742 253.993V253.989ZM116.865 252.496C117.259 252.521 117.527 252.36 118.072 252.104C117.561 252.034 117.083 252.03 116.581 251.997C116.078 251.968 115.546 251.935 114.917 251.898C115.965 252.285 116.476 252.475 116.87 252.5L116.865 252.496Z" fill="white"/>
<g clip-path="url(#clip2_61_956)">
<mask id="mask2_61_956" style="mask-type:luminance" maskUnits="userSpaceOnUse" x="210" y="226" width="162" height="162">
<path d="M371.387 226H210V387.387H371.387V226Z" fill="white"/>
</mask>
<g mask="url(#mask2_61_956)">
<path d="M210 306.693C210 351.259 246.128 387.387 290.693 387.387C335.259 387.387 371.387 351.259 371.387 306.693C371.387 262.128 335.259 226 290.693 226C246.128 226 210 262.128 210 306.693Z" fill="#0C0F18"/>
<g filter="url(#filter0_d_61_956)">
<path d="M290.693 227.891L346.415 250.972L369.496 306.693L346.415 362.415L290.693 385.495L234.972 362.415L211.891 306.693L234.972 250.972L290.693 227.891Z" fill="url(#paint0_radial_61_956)" fill-opacity="0.4"/>
</g>
<path d="M290.693 243.652L335.271 262.116L353.735 306.694L335.271 351.271L290.693 369.735L246.116 351.271L227.652 306.694L246.116 262.116L290.693 243.652Z" fill="#0321BE"/>
<path opacity="0.7" d="M290.693 259.412L324.126 273.26L337.975 306.693L324.126 340.126L290.693 353.975L257.26 340.126L243.412 306.693L257.26 273.26L290.693 259.412Z" fill="#405EFF"/>
</g>
</g>
<path d="M106.231 481.387H96.325L96.3875 474.074H106.231C108.69 474.074 110.762 473.522 112.45 472.418C114.137 471.293 115.408 469.658 116.262 467.512C117.137 465.366 117.575 462.772 117.575 459.73V457.512C117.575 455.178 117.325 453.126 116.825 451.355C116.346 449.585 115.627 448.095 114.669 446.887C113.71 445.678 112.533 444.772 111.137 444.168C109.742 443.543 108.137 443.23 106.325 443.23H96.1375V435.887H106.325C109.367 435.887 112.148 436.408 114.669 437.449C117.21 438.47 119.408 439.939 121.262 441.855C123.117 443.772 124.544 446.064 125.544 448.73C126.565 451.376 127.075 454.324 127.075 457.574V459.73C127.075 462.96 126.565 465.908 125.544 468.574C124.544 471.241 123.117 473.533 121.262 475.449C119.429 477.345 117.231 478.814 114.669 479.855C112.127 480.876 109.315 481.387 106.231 481.387ZM101.637 435.887V481.387H92.2625V435.887H101.637ZM140.287 435.887H157.256C160.735 435.887 163.725 436.408 166.225 437.449C168.746 438.491 170.683 440.033 172.037 442.074C173.392 444.116 174.069 446.626 174.069 449.605C174.069 452.043 173.652 454.137 172.819 455.887C172.006 457.616 170.85 459.064 169.35 460.23C167.871 461.376 166.131 462.293 164.131 462.98L161.162 464.543H146.412L146.35 457.23H157.319C158.965 457.23 160.329 456.939 161.412 456.355C162.496 455.772 163.308 454.96 163.85 453.918C164.412 452.876 164.694 451.668 164.694 450.293C164.694 448.835 164.423 447.574 163.881 446.512C163.34 445.449 162.517 444.637 161.412 444.074C160.308 443.512 158.923 443.23 157.256 443.23H149.662V481.387H140.287V435.887ZM165.725 481.387L155.35 461.105L165.256 461.043L175.756 480.949V481.387H165.725ZM214.062 466.293H223.406C223.219 469.355 222.375 472.074 220.875 474.449C219.396 476.824 217.323 478.678 214.656 480.012C212.01 481.345 208.823 482.012 205.094 482.012C202.177 482.012 199.562 481.512 197.25 480.512C194.938 479.491 192.958 478.033 191.312 476.137C189.688 474.241 188.448 471.949 187.594 469.262C186.74 466.574 186.312 463.564 186.312 460.23V457.074C186.312 453.741 186.75 450.73 187.625 448.043C188.521 445.335 189.792 443.033 191.438 441.137C193.104 439.241 195.094 437.783 197.406 436.762C199.719 435.741 202.302 435.23 205.156 435.23C208.948 435.23 212.146 435.918 214.75 437.293C217.375 438.668 219.406 440.564 220.844 442.98C222.302 445.397 223.177 448.147 223.469 451.23H214.094C213.99 449.397 213.625 447.845 213 446.574C212.375 445.283 211.427 444.314 210.156 443.668C208.906 443.001 207.24 442.668 205.156 442.668C203.594 442.668 202.229 442.96 201.062 443.543C199.896 444.126 198.917 445.012 198.125 446.199C197.333 447.387 196.74 448.887 196.344 450.699C195.969 452.491 195.781 454.595 195.781 457.012V460.23C195.781 462.585 195.958 464.658 196.312 466.449C196.667 468.22 197.208 469.72 197.938 470.949C198.688 472.158 199.646 473.074 200.812 473.699C202 474.303 203.427 474.605 205.094 474.605C207.052 474.605 208.667 474.293 209.938 473.668C211.208 473.043 212.177 472.116 212.844 470.887C213.531 469.658 213.938 468.126 214.062 466.293ZM266.15 474.355V481.387H235.025V475.387L249.744 459.605C251.223 457.96 252.39 456.512 253.244 455.262C254.098 453.991 254.712 452.855 255.087 451.855C255.483 450.835 255.681 449.866 255.681 448.949C255.681 447.574 255.452 446.397 254.994 445.418C254.535 444.418 253.858 443.647 252.962 443.105C252.087 442.564 251.004 442.293 249.712 442.293C248.337 442.293 247.15 442.626 246.15 443.293C245.171 443.96 244.421 444.887 243.9 446.074C243.4 447.262 243.15 448.605 243.15 450.105H234.119C234.119 447.397 234.765 444.918 236.056 442.668C237.348 440.397 239.171 438.595 241.525 437.262C243.879 435.908 246.671 435.23 249.9 435.23C253.087 435.23 255.775 435.751 257.962 436.793C260.171 437.814 261.837 439.293 262.962 441.23C264.108 443.147 264.681 445.439 264.681 448.105C264.681 449.605 264.442 451.074 263.962 452.512C263.483 453.928 262.796 455.345 261.9 456.762C261.025 458.158 259.962 459.574 258.712 461.012C257.462 462.449 256.077 463.939 254.556 465.48L246.65 474.355H266.15ZM308.8 454.637V462.512C308.8 465.928 308.435 468.876 307.706 471.355C306.977 473.814 305.925 475.835 304.55 477.418C303.196 478.98 301.581 480.137 299.706 480.887C297.831 481.637 295.748 482.012 293.456 482.012C291.623 482.012 289.915 481.783 288.331 481.324C286.748 480.845 285.321 480.105 284.05 479.105C282.8 478.105 281.717 476.845 280.8 475.324C279.904 473.783 279.217 471.949 278.738 469.824C278.258 467.699 278.019 465.262 278.019 462.512V454.637C278.019 451.22 278.383 448.293 279.113 445.855C279.863 443.397 280.915 441.387 282.269 439.824C283.644 438.262 285.269 437.116 287.144 436.387C289.019 435.637 291.102 435.262 293.394 435.262C295.227 435.262 296.925 435.501 298.488 435.98C300.071 436.439 301.498 437.158 302.769 438.137C304.04 439.116 305.123 440.376 306.019 441.918C306.915 443.439 307.602 445.262 308.081 447.387C308.56 449.491 308.8 451.908 308.8 454.637ZM299.769 463.699V453.418C299.769 451.772 299.675 450.335 299.488 449.105C299.321 447.876 299.06 446.835 298.706 445.98C298.352 445.105 297.915 444.397 297.394 443.855C296.873 443.314 296.279 442.918 295.613 442.668C294.946 442.418 294.206 442.293 293.394 442.293C292.373 442.293 291.467 442.491 290.675 442.887C289.904 443.283 289.248 443.918 288.706 444.793C288.165 445.647 287.748 446.793 287.456 448.23C287.185 449.647 287.05 451.376 287.05 453.418V463.699C287.05 465.345 287.133 466.793 287.3 468.043C287.488 469.293 287.758 470.366 288.113 471.262C288.488 472.137 288.925 472.855 289.425 473.418C289.946 473.96 290.54 474.355 291.206 474.605C291.894 474.855 292.644 474.98 293.456 474.98C294.456 474.98 295.342 474.783 296.113 474.387C296.904 473.97 297.571 473.324 298.113 472.449C298.675 471.553 299.092 470.387 299.363 468.949C299.633 467.512 299.769 465.762 299.769 463.699ZM124.419 499.887V545.387H115.075V499.887H124.419ZM138.419 499.887V507.23H101.294V499.887H138.419ZM142.725 528.824V528.168C142.725 525.689 143.079 523.408 143.787 521.324C144.496 519.22 145.527 517.397 146.881 515.855C148.235 514.314 149.902 513.116 151.881 512.262C153.86 511.387 156.131 510.949 158.694 510.949C161.256 510.949 163.537 511.387 165.537 512.262C167.537 513.116 169.215 514.314 170.569 515.855C171.944 517.397 172.985 519.22 173.694 521.324C174.402 523.408 174.756 525.689 174.756 528.168V528.824C174.756 531.283 174.402 533.564 173.694 535.668C172.985 537.751 171.944 539.574 170.569 541.137C169.215 542.678 167.548 543.876 165.569 544.73C163.59 545.585 161.319 546.012 158.756 546.012C156.194 546.012 153.912 545.585 151.912 544.73C149.933 543.876 148.256 542.678 146.881 541.137C145.527 539.574 144.496 537.751 143.787 535.668C143.079 533.564 142.725 531.283 142.725 528.824ZM151.725 528.168V528.824C151.725 530.241 151.85 531.564 152.1 532.793C152.35 534.022 152.746 535.105 153.287 536.043C153.85 536.96 154.579 537.678 155.475 538.199C156.371 538.72 157.465 538.98 158.756 538.98C160.006 538.98 161.079 538.72 161.975 538.199C162.871 537.678 163.59 536.96 164.131 536.043C164.673 535.105 165.069 534.022 165.319 532.793C165.59 531.564 165.725 530.241 165.725 528.824V528.168C165.725 526.793 165.59 525.501 165.319 524.293C165.069 523.064 164.662 521.98 164.1 521.043C163.558 520.085 162.84 519.335 161.944 518.793C161.048 518.251 159.965 517.98 158.694 517.98C157.423 517.98 156.34 518.251 155.444 518.793C154.569 519.335 153.85 520.085 153.287 521.043C152.746 521.98 152.35 523.064 152.1 524.293C151.85 525.501 151.725 526.793 151.725 528.168ZM195.688 497.355V545.387H186.688V497.355H195.688ZM217 511.574L202.312 528.324L194.438 536.293L191.156 529.793L197.406 521.855L206.188 511.574H217ZM207.656 545.387L197.656 529.762L203.875 524.324L218.031 545.387H207.656ZM242.212 546.012C239.587 546.012 237.233 545.595 235.15 544.762C233.067 543.908 231.296 542.73 229.837 541.23C228.4 539.73 227.296 537.991 226.525 536.012C225.754 534.012 225.369 531.887 225.369 529.637V528.387C225.369 525.824 225.733 523.48 226.462 521.355C227.192 519.23 228.233 517.387 229.587 515.824C230.962 514.262 232.629 513.064 234.587 512.23C236.546 511.376 238.754 510.949 241.212 510.949C243.608 510.949 245.733 511.345 247.587 512.137C249.442 512.928 250.994 514.053 252.244 515.512C253.515 516.97 254.473 518.72 255.119 520.762C255.765 522.783 256.087 525.033 256.087 527.512V531.262H229.212V525.262H247.244V524.574C247.244 523.324 247.015 522.21 246.556 521.23C246.119 520.23 245.452 519.439 244.556 518.855C243.66 518.272 242.515 517.98 241.119 517.98C239.931 517.98 238.91 518.241 238.056 518.762C237.202 519.283 236.504 520.012 235.962 520.949C235.442 521.887 235.046 522.991 234.775 524.262C234.525 525.512 234.4 526.887 234.4 528.387V529.637C234.4 530.991 234.587 532.241 234.962 533.387C235.358 534.533 235.91 535.522 236.619 536.355C237.348 537.189 238.223 537.835 239.244 538.293C240.285 538.751 241.462 538.98 242.775 538.98C244.4 538.98 245.91 538.668 247.306 538.043C248.723 537.397 249.942 536.428 250.962 535.137L255.337 539.887C254.629 540.908 253.66 541.887 252.431 542.824C251.223 543.762 249.765 544.533 248.056 545.137C246.348 545.72 244.4 546.012 242.212 546.012ZM276.425 518.793V545.387H267.425V511.574H275.863L276.425 518.793ZM275.113 527.293H272.675C272.675 524.793 272.998 522.543 273.644 520.543C274.29 518.522 275.196 516.803 276.363 515.387C277.529 513.949 278.915 512.855 280.519 512.105C282.144 511.335 283.956 510.949 285.956 510.949C287.54 510.949 288.988 511.178 290.3 511.637C291.613 512.095 292.738 512.824 293.675 513.824C294.633 514.824 295.363 516.147 295.863 517.793C296.383 519.439 296.644 521.449 296.644 523.824V545.387H287.581V523.793C287.581 522.293 287.373 521.126 286.956 520.293C286.54 519.46 285.925 518.876 285.113 518.543C284.321 518.189 283.342 518.012 282.175 518.012C280.967 518.012 279.915 518.251 279.019 518.73C278.144 519.21 277.415 519.876 276.831 520.73C276.269 521.564 275.842 522.543 275.55 523.668C275.258 524.793 275.113 526.001 275.113 527.293Z" fill="#080A1A"/>
<defs>
<filter id="filter0_d_61_956" x="111.891" y="127.891" width="357.604" height="357.604" filterUnits="userSpaceOnUse" color-interpolation-filters="sRGB">
<feFlood flood-opacity="0" result="BackgroundImageFix"/>
<feColorMatrix in="SourceAlpha" type="matrix" values="0 0 0 0 0 0 0 0 0 0 0 0 0 0 0 0 0 0 127 0" result="hardAlpha"/>
<feOffset/>
<feGaussianBlur stdDeviation="50"/>
<feComposite in2="hardAlpha" operator="out"/>
<feColorMatrix type="matrix" values="0 0 0 0 0.53766 0 0 0 0 0.810165 0 0 0 0 0.926953 0 0 0 0.2 0"/>
<feBlend mode="normal" in2="BackgroundImageFix" result="effect1_dropShadow_61_956"/>
<feBlend mode="normal" in="SourceGraphic" in2="effect1_dropShadow_61_956" result="shape"/>
</filter>
<radialGradient id="paint0_radial_61_956" cx="0" cy="0" r="1" gradientUnits="userSpaceOnUse" gradientTransform="translate(290.459 306.804) rotate(90) scale(91.7737 198.621)">
<stop stop-color="#07155B"/>
<stop offset="1" stop-color="#1938E0"/>
</radialGradient>
<clipPath id="clip0_61_956">
<rect width="161.387" height="161.387" fill="white" transform="translate(28.6133 44.6133)"/>
</clipPath>
<clipPath id="clip1_61_956">
<rect width="161.387" height="161.387" fill="white" transform="translate(210 44.6133)"/>
</clipPath>
<clipPath id="clip2_61_956">
<rect width="161.387" height="161.387" fill="white" transform="translate(210 226)"/>
</clipPath>
</defs>
</svg>
