<svg width="100" height="100" viewBox="0 0 100 100" fill="none" xmlns="http://www.w3.org/2000/svg">
<rect x="2" y="2" width="96" height="96" rx="48" fill="#0C408C"/>
<rect x="2" y="2" width="96" height="96" rx="48" stroke="url(#paint0_linear_15017_1322)" stroke-width="4"/>
<path d="M64.3722 64.7988H50.0027C47.358 64.7988 44.7579 64.0901 42.4858 62.7455L42.0079 62.462L49.9905 54.4793L55.3001 59.6188H63.0357C63.3476 59.6188 63.4691 59.3799 63.5015 59.307C63.5298 59.2341 63.6149 58.9789 63.3921 58.7602L59.9131 55.2812L54.4618 50.0121L67.264 37.21L67.5637 36.9022C69.7264 34.7395 70.9778 31.9044 71.1155 28.875H67.1586C65.9274 28.875 64.7975 29.6081 64.275 30.7421C64.0442 31.2402 63.7485 31.6979 63.3921 32.111L63.4043 32.1231L62.5416 32.9898L62.246 32.7792C58.6536 30.2237 54.4213 28.875 50.0027 28.875C46.7343 28.875 43.4943 29.6364 40.5904 31.0823L41.854 32.3459L45.4302 35.9221C46.9044 35.4401 48.4434 35.1971 50.0067 35.1971C52.6514 35.1971 55.2515 35.9059 57.5236 37.2505L58.0015 37.534L50.0067 45.5288L36.6011 32.1272L36.6133 32.115C36.2569 31.7019 35.9612 31.2483 35.7344 30.7542C35.2079 29.6121 34.0698 28.875 32.8386 28.875H28.8898C29.0275 31.9044 30.279 34.7395 32.4377 36.8981L32.7414 37.2019H32.7374L32.9925 37.4611L32.7819 37.7567C30.2263 41.3491 28.8777 45.5814 28.8777 50C28.8777 53.2684 29.6391 56.5084 31.085 59.4163L34.0455 56.4558C35.1188 55.3825 35.621 53.8313 35.382 52.3085C35.2605 51.5512 35.2038 50.7736 35.2038 50C35.2038 47.3553 35.9126 44.7552 37.2572 42.4831L37.5407 42.0052L45.5355 49.996L32.7414 62.79L32.4458 63.0938C30.279 65.2605 29.0275 68.0956 28.8898 71.125H32.9115C34.1387 71.125 35.216 70.3798 35.7263 69.266C35.9531 68.7719 36.2488 68.3102 36.6092 67.889L36.5971 67.8769L37.4638 67.0061L37.7594 67.2167C41.3478 69.7723 45.58 71.1209 49.9986 71.1209H71.1115C70.8887 67.5974 67.9525 64.7988 64.3722 64.7988Z" fill="#E7F1FE"/>
<path d="M69.0338 52.2154C70.2043 50.9153 70.7753 49.1779 70.5971 47.4445C70.3622 45.1643 69.7709 43.1595 68.8394 41.4788L65.4698 44.8484C64.9068 45.4113 64.6719 46.2133 64.842 46.9949C65.0648 48.0034 65.1781 49.0442 65.1781 50.0891C65.1781 51.5148 64.9675 52.9242 64.5544 54.2769C66.2595 54.2364 67.8876 53.4912 69.0338 52.2195V52.2154Z" fill="#E7F1FE"/>
<defs>
<linearGradient id="paint0_linear_15017_1322" x1="50" y1="0" x2="50" y2="100" gradientUnits="userSpaceOnUse">
<stop stop-color="#0C408C"/>
<stop offset="1" stop-color="#00F4AE"/>
</linearGradient>
</defs>
</svg>
