<svg width="100" height="100" viewBox="0 0 100 100" fill="none" xmlns="http://www.w3.org/2000/svg">
<rect x="2" y="2" width="96" height="96" rx="48" fill="#0059BA"/>
<rect x="2" y="2" width="96" height="96" rx="48" stroke="#3FCAE1" stroke-width="4"/>
<path fill-rule="evenodd" clip-rule="evenodd" d="M41.0564 67.4182C48.0388 67.4618 52.4117 59.3385 48.1176 53.4022C47.3649 52.3559 46.4258 51.5276 45.6372 50.4087C42.4113 45.8457 40.146 38.4998 44.4687 34.1693C47.4007 31.2339 45.2358 26.3148 41.3002 26.293C37.3717 26.2712 35.1423 31.1612 38.0384 34.133C42.311 38.5143 39.9525 45.8311 36.6764 50.3505C35.8735 51.455 34.9272 52.276 34.1602 53.3078C29.7944 59.1859 34.0741 67.3674 41.0564 67.4109V67.4182Z" fill="#D9748F"/>
<path fill-rule="evenodd" clip-rule="evenodd" d="M59.2604 32.5637C52.2781 32.5201 47.9052 40.6434 52.1992 46.5796C52.9519 47.6259 53.891 48.4542 54.6796 49.5732C57.9055 54.1362 60.1708 61.4821 55.8481 65.8126C52.9161 68.748 55.081 73.667 59.0167 73.6888C62.9451 73.7106 65.1746 68.8207 62.2784 65.8489C58.0059 61.4675 60.3644 54.1507 63.6405 49.6313C64.4434 48.5269 65.3896 47.7059 66.1567 46.6741C70.5224 40.796 66.2427 32.6145 59.2604 32.5709V32.5637Z" fill="white"/>
</svg>
