<svg width="200" height="60" viewBox="0 0 200 60" fill="none" xmlns="http://www.w3.org/2000/svg">
<rect x="0.5" y="0.5" width="199" height="58.2593" rx="6.5" fill="#0C0D10"/>
<rect x="0.5" y="0.5" width="199" height="58.2593" rx="6.5" stroke="#A6A6A6"/>
<path d="M132.673 27.8293V31.2234H130.546V33.4492H132.673V41.0122C132.673 43.5946 133.841 44.6276 136.78 44.6276C137.297 44.6276 137.789 44.5661 138.219 44.4924V42.2911C137.85 42.328 137.617 42.3526 137.211 42.3526C135.895 42.3526 135.317 41.7377 135.317 40.3358V33.4492H138.219V31.2234H135.317V27.8293H132.673Z" fill="white"/>
<path d="M145.706 44.8121C149.617 44.8121 152.015 42.1927 152.015 37.8517C152.015 33.5353 149.605 30.9037 145.706 30.9037C141.796 30.9037 139.386 33.5353 139.386 37.8517C139.386 42.1927 141.784 44.8121 145.706 44.8121ZM145.706 42.4633C143.407 42.4633 142.116 40.7785 142.116 37.8517C142.116 34.9495 143.407 33.2525 145.706 33.2525C147.994 33.2525 149.297 34.9495 149.297 37.8517C149.297 40.7662 147.994 42.4633 145.706 42.4633Z" fill="white"/>
<path d="M154.067 44.5538H156.711V36.6466C156.711 34.7651 158.125 33.4984 160.129 33.4984C160.597 33.4984 161.384 33.5845 161.605 33.6583V31.0512C161.322 30.9775 160.818 30.9406 160.425 30.9406C158.678 30.9406 157.19 31.8998 156.809 33.2156H156.612V31.1619H154.067V44.5538Z" fill="white"/>
<path d="M168.17 33.1541C170.125 33.1541 171.404 34.5191 171.466 36.622H164.702C164.85 34.5314 166.215 33.1541 168.17 33.1541ZM171.453 40.9384C170.962 41.9837 169.867 42.5617 168.268 42.5617C166.153 42.5617 164.788 41.0737 164.702 38.7249V38.5773H174.159V37.655C174.159 33.4492 171.908 30.9037 168.182 30.9037C164.407 30.9037 162.009 33.6214 162.009 37.9009C162.009 42.1804 164.358 44.8121 168.195 44.8121C171.257 44.8121 173.396 43.3364 173.999 40.9384H171.453Z" fill="white"/>
<path d="M115.334 39.6084C115.538 42.8969 118.279 45 122.358 45C126.717 45 129.444 42.7949 129.444 39.277C129.444 36.5112 127.889 34.9816 124.116 34.1022L122.09 33.6051C119.694 33.0443 118.725 32.2922 118.725 30.9794C118.725 29.3224 120.229 28.239 122.485 28.239C124.626 28.239 126.105 29.2969 126.372 30.9922H129.151C128.985 27.8949 126.258 25.7153 122.523 25.7153C118.508 25.7153 115.832 27.8949 115.832 31.1706C115.832 33.8727 117.348 35.4787 120.675 36.2562L123.046 36.8298C125.48 37.4034 126.551 38.2446 126.551 39.6467C126.551 41.2781 124.868 42.4635 122.574 42.4635C120.114 42.4635 118.406 41.3546 118.164 39.6084H115.334Z" fill="white"/>
<path d="M87.9459 30.9406C86.1258 30.9406 84.5518 31.8506 83.7401 33.3755H83.5434V31.1619H80.9978V49.0055H83.6417V42.5248H83.8508C84.5518 43.939 86.0643 44.7752 87.9705 44.7752C91.3523 44.7752 93.5043 42.1067 93.5043 37.8517C93.5043 33.5968 91.3523 30.9406 87.9459 30.9406ZM87.1957 42.4018C84.9822 42.4018 83.5926 40.6556 83.5926 37.864C83.5926 35.0602 84.9822 33.314 87.208 33.314C89.4461 33.314 90.7866 35.0233 90.7866 37.8517C90.7866 40.6924 89.4461 42.4018 87.1957 42.4018Z" fill="white"/>
<path d="M102.756 30.9406C100.936 30.9406 99.3618 31.8506 98.5502 33.3755H98.3534V31.1619H95.8079V49.0055H98.4518V42.5248H98.6609C99.3618 43.939 100.874 44.7752 102.781 44.7752C106.162 44.7752 108.314 42.1067 108.314 37.8517C108.314 33.5968 106.162 30.9406 102.756 30.9406ZM102.006 42.4018C99.7922 42.4018 98.4026 40.6556 98.4026 37.864C98.4026 35.0602 99.7922 33.314 102.018 33.314C104.256 33.314 105.597 35.0233 105.597 37.8517C105.597 40.6924 104.256 42.4018 102.006 42.4018Z" fill="white"/>
<path d="M76.2541 44.5538H79.2876L72.647 26.1614H69.5752L62.9346 44.5538H65.8661L67.5614 39.6721H74.5716L76.2541 44.5538ZM70.9645 29.5009H71.1812L73.8451 37.2759H68.2879L70.9645 29.5009Z" fill="white"/>
<path d="M64.7104 12.2886V21.1612H67.9139C70.5579 21.1612 72.0889 19.5318 72.0889 16.6972C72.0889 13.9057 70.5456 12.2886 67.9139 12.2886H64.7104ZM66.0878 13.543H67.7602C69.5987 13.543 70.687 14.7112 70.687 16.7157C70.687 18.7509 69.6171 19.9069 67.7602 19.9069H66.0878V13.543Z" fill="white"/>
<path d="M76.7779 21.2903C78.7332 21.2903 79.9322 19.9807 79.9322 17.8102C79.9322 15.652 78.7271 14.3361 76.7779 14.3361C74.8226 14.3361 73.6175 15.652 73.6175 17.8102C73.6175 19.9807 74.8165 21.2903 76.7779 21.2903ZM76.7779 20.1159C75.6281 20.1159 74.9825 19.2736 74.9825 17.8102C74.9825 16.3591 75.6281 15.5105 76.7779 15.5105C77.9216 15.5105 78.5734 16.3591 78.5734 17.8102C78.5734 19.2674 77.9216 20.1159 76.7779 20.1159Z" fill="white"/>
<path d="M90.1428 14.4653H88.8208L87.628 19.5749H87.5235L86.1461 14.4653H84.8795L83.5022 19.5749H83.4038L82.2048 14.4653H80.8644L82.709 21.1612H84.0679L85.4452 16.2299H85.5497L86.9332 21.1612H88.3043L90.1428 14.4653Z" fill="white"/>
<path d="M91.6652 21.1612H92.9872V17.2445C92.9872 16.1992 93.6082 15.5474 94.5859 15.5474C95.5635 15.5474 96.0308 16.0824 96.0308 17.1584V21.1612H97.3528V16.8264C97.3528 15.2339 96.5289 14.3361 95.0347 14.3361C94.0263 14.3361 93.3623 14.785 93.0364 15.529H92.938V14.4653H91.6652V21.1612Z" fill="white"/>
<path d="M99.4348 21.1612H100.757V11.8521H99.4348V21.1612Z" fill="white"/>
<path d="M105.729 21.2903C107.684 21.2903 108.883 19.9807 108.883 17.8102C108.883 15.652 107.678 14.3361 105.729 14.3361C103.773 14.3361 102.568 15.652 102.568 17.8102C102.568 19.9807 103.767 21.2903 105.729 21.2903ZM105.729 20.1159C104.579 20.1159 103.933 19.2736 103.933 17.8102C103.933 16.3591 104.579 15.5105 105.729 15.5105C106.872 15.5105 107.524 16.3591 107.524 17.8102C107.524 19.2674 106.872 20.1159 105.729 20.1159Z" fill="white"/>
<path d="M112.822 20.159C112.102 20.159 111.58 19.8085 111.58 19.2059C111.58 18.6157 111.998 18.3021 112.92 18.2406L114.556 18.136V18.6956C114.556 19.5257 113.818 20.159 112.822 20.159ZM112.484 21.2719C113.363 21.2719 114.095 20.8907 114.494 20.2205H114.599V21.1612H115.872V16.5866C115.872 15.1724 114.925 14.3361 113.246 14.3361C111.727 14.3361 110.645 15.074 110.51 16.2238H111.789C111.936 15.7503 112.447 15.4798 113.185 15.4798C114.088 15.4798 114.556 15.8795 114.556 16.5866V17.1646L112.742 17.2691C111.149 17.3675 110.252 18.0623 110.252 19.2674C110.252 20.491 111.192 21.2719 112.484 21.2719Z" fill="white"/>
<path d="M120.358 21.2719C121.28 21.2719 122.061 20.8353 122.461 20.1036H122.565V21.1612H123.832V11.8521H122.51V15.529H122.411C122.049 14.7911 121.274 14.3546 120.358 14.3546C118.667 14.3546 117.578 15.695 117.578 17.8102C117.578 19.9315 118.654 21.2719 120.358 21.2719ZM120.733 15.5413C121.84 15.5413 122.534 16.4206 122.534 17.8163C122.534 19.2182 121.846 20.0852 120.733 20.0852C119.614 20.0852 118.943 19.2305 118.943 17.8102C118.943 16.4021 119.62 15.5413 120.733 15.5413Z" fill="white"/>
<path d="M132.404 21.2903C134.36 21.2903 135.559 19.9807 135.559 17.8102C135.559 15.652 134.353 14.3361 132.404 14.3361C130.449 14.3361 129.244 15.652 129.244 17.8102C129.244 19.9807 130.443 21.2903 132.404 21.2903ZM132.404 20.1159C131.254 20.1159 130.609 19.2736 130.609 17.8102C130.609 16.3591 131.254 15.5105 132.404 15.5105C133.548 15.5105 134.2 16.3591 134.2 17.8102C134.2 19.2674 133.548 20.1159 132.404 20.1159Z" fill="white"/>
<path d="M137.308 21.1612H138.63V17.2445C138.63 16.1992 139.251 15.5474 140.229 15.5474C141.207 15.5474 141.674 16.0824 141.674 17.1584V21.1612H142.996V16.8264C142.996 15.2339 142.172 14.3361 140.678 14.3361C139.67 14.3361 139.006 14.785 138.68 15.529H138.581V14.4653H137.308V21.1612Z" fill="white"/>
<path d="M149.085 12.799V14.496H148.021V15.6089H149.085V19.3904C149.085 20.6816 149.669 21.1981 151.138 21.1981C151.396 21.1981 151.642 21.1674 151.858 21.1305V20.0299C151.673 20.0483 151.556 20.0606 151.353 20.0606C150.695 20.0606 150.406 19.7532 150.406 19.0522V15.6089H151.858V14.496H150.406V12.799H149.085Z" fill="white"/>
<path d="M153.632 21.1612H154.954V17.2506C154.954 16.2361 155.557 15.5536 156.639 15.5536C157.573 15.5536 158.071 16.0947 158.071 17.1646V21.1612H159.393V16.8387C159.393 15.2461 158.514 14.3423 157.088 14.3423C156.079 14.3423 155.372 14.7911 155.046 15.5413H154.942V11.8521H153.632V21.1612Z" fill="white"/>
<path d="M164.162 15.4614C165.14 15.4614 165.78 16.1439 165.81 17.1953H162.428C162.502 16.15 163.185 15.4614 164.162 15.4614ZM165.804 19.3535C165.558 19.8761 165.011 20.1651 164.212 20.1651C163.154 20.1651 162.472 19.4211 162.428 18.2467V18.1729H167.157V17.7118C167.157 15.6089 166.032 14.3361 164.169 14.3361C162.281 14.3361 161.082 15.695 161.082 17.8348C161.082 19.9745 162.256 21.2903 164.175 21.2903C165.706 21.2903 166.776 20.5525 167.077 19.3535H165.804Z" fill="white"/>
<path d="M48.5887 29.4588C48.6208 26.9685 49.9582 24.612 52.0799 23.3076C50.7414 21.396 48.4995 20.184 46.1671 20.1111C43.6793 19.8499 41.2675 21.5997 39.9998 21.5997C38.7076 21.5997 36.7557 20.137 34.6539 20.1802C31.9142 20.2687 29.3602 21.8263 28.0273 24.2215C25.1621 29.1821 27.2993 36.4726 30.0439 40.4824C31.4171 42.4459 33.022 44.6391 35.1219 44.5613C37.1768 44.4761 37.9443 43.251 40.4247 43.251C42.8821 43.251 43.6022 44.5613 45.7447 44.5119C47.9497 44.4761 49.339 42.5397 50.664 40.5576C51.6506 39.1586 52.4098 37.6123 52.9135 35.9761C50.3222 34.8801 48.5917 32.2724 48.5887 29.4588Z" fill="white"/>
<path d="M44.5418 17.474C45.744 16.0308 46.3364 14.1757 46.1929 12.3027C44.3561 12.4957 42.6595 13.3735 41.441 14.7614C40.2494 16.1175 39.6293 17.9399 39.7466 19.7413C41.584 19.7602 43.3904 18.9061 44.5418 17.474Z" fill="white"/>
</svg>
