<svg width="201" height="60" viewBox="0 0 201 60" fill="none" xmlns="http://www.w3.org/2000/svg">
<rect x="0.649902" y="0.5" width="199" height="58.2593" rx="4.5" fill="black"/>
<rect x="0.649902" y="0.5" width="199" height="58.2593" rx="4.5" stroke="#A6A6A6"/>
<path d="M158.572 44.4446H161.336V25.9237H158.572V44.4446ZM183.471 32.5957L180.302 40.6252H180.207L176.918 32.5957H173.94L178.874 43.818L176.06 50.061H178.943L186.545 32.5957H183.471ZM167.792 42.3411C166.889 42.3411 165.625 41.8879 165.625 40.7682C165.625 39.3387 167.198 38.7907 168.555 38.7907C169.77 38.7907 170.343 39.0523 171.081 39.41C170.866 41.1258 169.389 42.3411 167.792 42.3411ZM168.127 32.1906C166.126 32.1906 164.053 33.0725 163.195 35.0263L165.649 36.0506C166.173 35.0263 167.149 34.6929 168.175 34.6929C169.604 34.6929 171.058 35.55 171.081 37.0754V37.2658C170.58 36.9799 169.508 36.5511 168.198 36.5511C165.552 36.5511 162.86 38.0042 162.86 40.7206C162.86 43.1987 165.029 44.7953 167.459 44.7953C169.317 44.7953 170.343 43.9614 170.985 42.984H171.081V44.4146H173.751V37.3132C173.751 34.0251 171.295 32.1906 168.127 32.1906ZM151.043 34.8503H147.111V28.502H151.043C153.109 28.502 154.283 30.2126 154.283 31.676C154.283 33.1113 153.109 34.8503 151.043 34.8503ZM150.972 25.9237H144.348V44.4446H147.111V37.4279H150.972C154.035 37.4279 157.047 35.2103 157.047 31.676C157.047 28.1426 154.035 25.9237 150.972 25.9237ZM114.851 42.3445C112.941 42.3445 111.343 40.7449 111.343 38.55C111.343 36.3295 112.941 34.7073 114.851 34.7073C116.736 34.7073 118.216 36.3295 118.216 38.55C118.216 40.7449 116.736 42.3445 114.851 42.3445ZM118.025 33.6328H117.93C117.309 32.8931 116.115 32.2248 114.613 32.2248C111.462 32.2248 108.574 34.9938 108.574 38.55C108.574 42.0818 111.462 44.8266 114.613 44.8266C116.115 44.8266 117.309 44.1581 117.93 43.3949H118.025V44.3011C118.025 46.7126 116.736 48.0008 114.66 48.0008C112.966 48.0008 111.916 46.7838 111.486 45.7577L109.076 46.76C109.767 48.4302 111.604 50.4834 114.66 50.4834C117.907 50.4834 120.651 48.5737 120.651 43.9191V32.6067H118.025V33.6328ZM122.561 44.4446H125.328V25.9237H122.561V44.4446ZM129.41 38.3347C129.339 35.9 131.297 34.6593 132.704 34.6593C133.802 34.6593 134.732 35.2085 135.044 35.9956L129.41 38.3347ZM138.002 36.234C137.477 34.8266 135.878 32.2248 132.608 32.2248C129.362 32.2248 126.665 34.7786 126.665 38.5257C126.665 42.0581 129.339 44.8266 132.918 44.8266C135.806 44.8266 137.477 43.0609 138.17 42.0343L136.022 40.602C135.305 41.6523 134.327 42.3445 132.918 42.3445C131.511 42.3445 130.508 41.6999 129.864 40.4349L138.288 36.9504L138.002 36.234ZM70.8794 34.1581V36.8311H77.2757C77.0848 38.3347 76.5836 39.4325 75.8197 40.1963C74.8886 41.1269 73.4326 42.1535 70.8794 42.1535C66.9412 42.1535 63.8625 38.9793 63.8625 35.0412C63.8625 31.1031 66.9412 27.9285 70.8794 27.9285C73.0037 27.9285 74.5547 28.764 75.7005 29.8381L77.5865 27.9522C75.987 26.4249 73.8631 25.2554 70.8794 25.2554C65.4846 25.2554 60.95 29.6471 60.95 35.0412C60.95 40.4348 65.4846 44.8266 70.8794 44.8266C73.7908 44.8266 75.987 43.8717 77.7052 42.0818C79.4714 40.3156 80.0206 37.8335 80.0206 35.8283C80.0206 35.2085 79.9725 34.6356 79.8771 34.1581H70.8794ZM87.2926 42.3445C85.3828 42.3445 83.7359 40.7692 83.7359 38.5257C83.7359 36.2583 85.3828 34.7073 87.2926 34.7073C89.2017 34.7073 90.8486 36.2583 90.8486 38.5257C90.8486 40.7692 89.2017 42.3445 87.2926 42.3445ZM87.2926 32.2248C83.807 32.2248 80.9673 34.874 80.9673 38.5257C80.9673 42.1535 83.807 44.8266 87.2926 44.8266C90.7769 44.8266 93.6172 42.1535 93.6172 38.5257C93.6172 34.874 90.7769 32.2248 87.2926 32.2248ZM101.089 42.3445C99.1809 42.3445 97.5334 40.7692 97.5334 38.5257C97.5334 36.2583 99.1809 34.7073 101.089 34.7073C102.999 34.7073 104.646 36.2583 104.646 38.5257C104.646 40.7692 102.999 42.3445 101.089 42.3445ZM101.089 32.2248C97.6051 32.2248 94.7654 34.874 94.7654 38.5257C94.7654 42.1535 97.6051 44.8266 101.089 44.8266C104.575 44.8266 107.415 42.1535 107.415 38.5257C107.415 34.874 104.575 32.2248 101.089 32.2248Z" fill="white"/>
<path d="M66.0421 19.6064C64.7138 19.6064 63.5714 19.1391 62.6503 18.2181C61.7287 17.2966 61.262 16.1426 61.262 14.8009C61.262 13.4591 61.7289 12.3073 62.6503 11.3836C63.5714 10.4625 64.7139 9.99532 66.0421 9.99532C66.7187 9.99532 67.3503 10.1122 67.9538 10.3556C68.5576 10.599 69.0515 10.9368 69.4405 11.379L69.5322 11.4835L68.496 12.5193L68.3925 12.392C68.1345 12.0751 67.8064 11.8288 67.3907 11.6498C66.9765 11.4713 66.5228 11.3888 66.0421 11.3888C65.1065 11.3888 64.3303 11.7065 63.6821 12.3524C63.682 12.3525 63.6817 12.3525 63.6815 12.3527C63.048 13.0116 62.7295 13.8138 62.7295 14.8009C62.7295 15.7888 63.0484 16.5911 63.6827 17.2503C64.3309 17.8958 65.107 18.2152 66.042 18.2152C66.8984 18.2152 67.6067 17.9762 68.1636 17.5029H68.1639C68.6823 17.0624 68.9934 16.4671 69.1034 15.7083H65.8939V14.3426H70.4905L70.5102 14.4676C70.5479 14.7076 70.5745 14.9394 70.5745 15.162C70.5745 16.4363 70.1859 17.4766 69.4237 18.2419C68.5633 19.154 67.4316 19.6064 66.0421 19.6064L66.0421 19.6064ZM105.956 19.6064C104.626 19.6064 103.496 19.1389 102.587 18.2181C102.587 18.218 102.587 18.218 102.587 18.2178C102.587 18.2177 102.587 18.2177 102.587 18.2175C101.676 17.3067 101.224 16.1526 101.224 14.8009C101.224 13.4492 101.676 12.295 102.587 11.3842C102.587 11.3841 102.587 11.3841 102.587 11.3839L102.587 11.3836C103.496 10.4627 104.626 9.9953 105.956 9.9953C107.283 9.9953 108.413 10.4628 109.322 11.3975C110.233 12.3082 110.685 13.4601 110.685 14.8009C110.685 16.1525 110.233 17.3067 109.323 18.2175L109.322 18.2178C108.413 19.1392 107.273 19.6064 105.956 19.6064L105.956 19.6064ZM71.8899 19.4074V10.1944H72.038H77.3922V11.5879H73.332V14.118H76.994V15.4838H73.332V18.0162H77.3922V19.4074H71.8899ZM80.7596 19.4074V11.5879H78.2689V10.1944H84.6925V11.5879H84.5444H82.2018V19.4074H80.7596ZM88.7978 19.4074V10.1944H90.24V10.3425V19.4074H88.7978ZM93.8702 19.4074V11.5879H91.3794V10.1944H97.8031V11.5879H97.6549H95.3123V19.4074H93.8702ZM111.965 19.4074V10.1944H113.591L117.73 16.82L117.694 15.5622V10.1944H119.136V19.4074H117.709L113.372 12.447L113.407 13.7039V13.706V19.4074H111.965ZM105.956 18.2152C106.891 18.2152 107.655 17.8962 108.278 17.2514L108.278 17.2502L108.279 17.2493C108.911 16.6178 109.22 15.8047 109.22 14.8008C109.22 13.7994 108.911 12.9836 108.279 12.3523L108.278 12.3514L108.278 12.3506C107.655 11.7059 106.892 11.3888 105.956 11.3888C105.019 11.3888 104.255 11.7054 103.621 12.35L103.62 12.3506C103 12.9972 102.692 13.7997 102.692 14.8008C102.692 15.8044 103 16.6043 103.62 17.251L103.621 17.2516C104.255 17.8964 105.019 18.2152 105.956 18.2152V18.2152Z" fill="white"/>
<path d="M30.838 28.7753L15.0654 45.516C15.066 45.5195 15.0672 45.5224 15.0678 45.5259C15.5515 47.3436 17.2118 48.6821 19.1823 48.6821C19.97 48.6821 20.7096 48.4692 21.3438 48.0953L21.3942 48.0658L39.1482 37.821L30.838 28.7753Z" fill="#EA4335"/>
<path d="M46.7951 25.9247L46.78 25.9143L39.1151 21.4709L30.4797 29.155L39.1452 37.8193L46.7697 33.4201C48.1064 32.6984 49.0138 31.2893 49.0138 29.6642C49.0138 28.0509 48.1185 26.6487 46.7951 25.9247Z" fill="#FBBC04"/>
<path d="M15.0648 13.7429C14.97 14.0925 14.9202 14.4587 14.9202 14.839V44.4207C14.9202 44.8003 14.9694 45.1677 15.0654 45.5161L31.3808 29.2036L15.0648 13.7429Z" fill="#4285F4"/>
<path d="M30.9544 29.6294L39.1183 21.4679L21.3843 11.1861C20.7398 10.8001 19.9875 10.5772 19.1824 10.5772C17.2119 10.5772 15.5494 11.9181 15.0655 13.7381C15.0649 13.7399 15.0649 13.7411 15.0649 13.7427L30.9544 29.6294Z" fill="#34A853"/>
</svg>
