<svg width="26" height="26" viewBox="0 0 26 26" fill="none" xmlns="http://www.w3.org/2000/svg">
<path fill-rule="evenodd" clip-rule="evenodd" d="M13.5132 1.02302C14.1234 0.325659 15.1127 0.325659 15.7229 1.02302L25.0979 11.7373C25.3909 12.0722 25.5555 12.5264 25.5555 13C25.5555 13.4736 25.3909 13.9278 25.0979 14.2627L15.7229 24.977C15.1127 25.6743 14.1234 25.6743 13.5132 24.977C12.903 24.2796 12.903 23.149 13.5132 22.4516L20.2208 14.7857L2.11804 14.7857C1.2551 14.7857 0.555542 13.9862 0.555542 13C0.555542 12.0138 1.2551 11.2143 2.11804 11.2143H20.2208L13.5132 3.5484C12.903 2.85104 12.903 1.72039 13.5132 1.02302Z" fill="white"/>
</svg>
