<svg width="201" height="118" viewBox="0 0 201 118" fill="none" xmlns="http://www.w3.org/2000/svg">
<g filter="url(#filter0_d_86_2056)">
<path d="M6 10.043C6 4.52012 10.4772 0.0429688 16 0.0429688L185 0.0429701C190.523 0.0429701 195 4.52012 195 10.043V64.8792C195 70.402 190.523 74.8792 185 74.8792H90.072C87.0985 74.8792 84.2793 76.2024 82.3794 78.4897L59.5028 106.032C58.9707 106.672 58.1812 107.043 57.3485 107.043C55.6461 107.043 54.3376 105.537 54.5754 103.851L57.0828 86.0791C57.9222 80.129 53.3619 74.7875 47.3537 74.6836L15.8271 74.1384C10.3725 74.0441 6 69.5954 6 64.1399V10.043Z" fill="url(#paint0_linear_86_2056)"/>
<path d="M7.5 10.043C7.5 5.34855 11.3056 1.54297 16 1.54297L185 1.54297C189.694 1.54297 193.5 5.34855 193.5 10.043V64.8792C193.5 69.5736 189.694 73.3792 185 73.3792H90.072C86.6525 73.3792 83.4104 74.9009 81.2255 77.5313L58.3489 105.073C58.1018 105.371 57.7352 105.543 57.3485 105.543C56.5579 105.543 55.9502 104.844 56.0607 104.061L58.5681 86.2887C59.5334 79.4461 54.289 73.3033 47.3797 73.1838L15.853 72.6386C11.2166 72.5585 7.5 68.777 7.5 64.1399V10.043Z" stroke="black" stroke-width="3"/>
</g>
<path d="M51.512 32.211H45.144C44.6 32.883 44.024 33.523 43.48 34.163C46.04 34.131 48.76 34.099 51.48 34.035C51.032 33.683 50.584 33.331 50.168 33.011L51.512 32.211ZM41.496 48.019H52.472V47.027H41.496V48.019ZM52.472 42.963H41.496V43.923H52.472V42.963ZM61.528 37.235L57.4 39.827L57.208 39.571V51.923C57.208 54.003 56.696 54.963 55.192 55.539C53.688 56.083 51.672 56.115 49.048 56.115C48.824 54.995 48.216 53.459 47.672 52.435C49.048 52.531 51.224 52.531 51.704 52.499C52.28 52.499 52.472 52.339 52.472 51.891V51.155H41.496V56.115H36.824V39.251H56.952C56.568 38.771 56.088 38.291 55.576 37.747C47.672 38.067 39.352 38.291 33.752 38.419L33.624 34.259L38.104 34.227C38.52 33.555 38.904 32.883 39.288 32.211H32.6V28.179H44.568V25.651H49.368V28.179H61.272V32.211H55.96C58.04 33.843 60.28 35.731 61.528 37.235ZM77.464 41.971H74.168C74.104 43.603 73.976 45.363 73.752 47.155C74.712 47.251 75.544 47.283 76.056 47.283C76.472 47.283 76.76 47.187 77.016 46.867C77.272 46.483 77.4 45.171 77.464 41.971ZM90.808 35.923L95.512 37.043C94.168 41.235 92.312 45.011 90.008 48.243C90.712 50.067 91.512 51.123 92.28 51.123C92.92 51.123 93.304 49.523 93.464 45.619C94.52 46.707 96.152 47.795 97.4 48.275C96.696 54.515 95.192 55.859 91.896 55.859C89.784 55.859 88.056 54.483 86.68 52.179C85.24 53.619 83.64 54.899 81.944 55.987C81.272 54.995 79.576 53.043 78.584 52.147C80.888 50.899 82.936 49.267 84.664 47.315C83.576 43.731 82.904 39.315 82.52 34.707H74.2V37.747H82.04C82.04 37.747 82.008 38.867 82.008 39.379C81.912 45.907 81.752 48.851 80.984 49.875C80.28 50.803 79.544 51.123 78.584 51.315C77.72 51.475 76.376 51.507 74.904 51.507C74.84 50.195 74.36 48.435 73.72 47.283C73.272 50.675 72.376 54.099 70.744 56.563C69.944 55.635 67.832 53.907 66.776 53.363C69.144 49.587 69.304 43.923 69.304 39.731V30.131H82.232C82.168 28.659 82.136 27.187 82.136 25.715H87.032C87 27.187 87 28.659 87.064 30.131H90.68C89.688 29.363 88.472 28.531 87.48 27.923L90.296 25.139C91.928 26.003 94.168 27.411 95.288 28.467L93.688 30.131H97.08V34.707H87.32C87.544 37.331 87.896 39.859 88.344 42.067C89.336 40.179 90.168 38.131 90.808 35.923ZM108.184 34.227H114.84V32.883H119.544V34.227H126.392V32.339H108.184V34.227ZM131.544 48.467H121.752C123.992 50.515 127.32 51.699 132.024 52.115C131.064 53.075 129.88 54.931 129.304 56.179C123.384 55.283 119.768 53.267 117.24 49.651C115.224 52.307 111.64 54.547 105.56 56.083C105.048 55.091 103.704 53.299 102.68 52.339C107.512 51.379 110.488 50.035 112.28 48.467H103.448V44.467H114.616C114.744 43.987 114.776 43.507 114.808 43.027H107.032V39.315H114.84V37.939H106.52V35.571H103.576V28.307H114.968V25.747H119.768V28.307H131.224V35.571H128.568V37.939H119.544V39.315H127.8V43.027H119.512C119.512 43.507 119.448 43.987 119.384 44.467H131.544V48.467ZM155.992 30.483V29.715H149.816V26.995H155.992V25.683H160.632V26.995H166.968V29.715H160.632V30.483H166.264V33.075H160.632V33.811H167.512V36.627H149.048V33.811H155.992V33.075H150.552V30.483H155.992ZM143.672 39.283L145.72 39.155C145.496 38.579 145.272 38.035 145.016 37.523C144.568 38.131 144.12 38.707 143.672 39.283ZM150.424 50.067L147.032 51.187C146.904 49.747 146.392 47.571 145.784 45.843V56.083H141.816V46.355C141.496 49.139 140.888 51.923 140.12 53.779C139.352 53.267 137.688 52.531 136.792 52.179C137.624 50.323 138.04 47.443 138.232 44.787L141.816 45.395V43.283L137.496 43.635L137.176 39.667L139.576 39.539C139.928 39.059 140.28 38.547 140.664 38.035C139.8 36.595 138.392 34.931 137.176 33.651L139.416 30.483L139.992 31.027C140.792 29.299 141.56 27.315 142.04 25.715L146.04 27.091C144.856 29.363 143.544 31.859 142.424 33.651C142.648 33.907 142.84 34.163 143.032 34.419C144.024 32.755 144.952 31.059 145.656 29.587L149.4 31.283C148.152 33.171 146.712 35.251 145.272 37.171L148.152 36.019C149.304 38.195 150.456 41.011 150.776 42.899L147.32 44.403C147.256 43.955 147.128 43.411 146.968 42.835L145.784 42.963V45.459L148.856 44.499C149.592 46.259 150.232 48.563 150.424 50.067ZM155.128 47.155V48.115H161.72V47.155H155.128ZM155.128 43.635V44.595H161.72V43.635H155.128ZM155.128 40.147V41.075H161.72V40.147H155.128ZM166.104 50.867H163.256C165.016 51.955 166.936 53.171 168.12 53.971L164.088 56.115C162.936 55.155 160.76 53.523 158.968 52.339L161.016 50.867H155.896L158.04 52.339C156.056 53.843 152.824 55.411 150.232 56.243C149.56 55.411 148.312 54.163 147.416 53.363C149.336 52.819 151.512 51.827 153.144 50.867H150.968V37.395H166.104V50.867Z" fill="black"/>
<defs>
<filter id="filter0_d_86_2056" x="0.708995" y="0.0429688" width="199.582" height="117.582" filterUnits="userSpaceOnUse" color-interpolation-filters="sRGB">
<feFlood flood-opacity="0" result="BackgroundImageFix"/>
<feColorMatrix in="SourceAlpha" type="matrix" values="0 0 0 0 0 0 0 0 0 0 0 0 0 0 0 0 0 0 127 0" result="hardAlpha"/>
<feOffset dy="5.29101"/>
<feGaussianBlur stdDeviation="2.6455"/>
<feComposite in2="hardAlpha" operator="out"/>
<feColorMatrix type="matrix" values="0 0 0 0 0 0 0 0 0 0 0 0 0 0 0 0 0 0 0.25 0"/>
<feBlend mode="normal" in2="BackgroundImageFix" result="effect1_dropShadow_86_2056"/>
<feBlend mode="normal" in="SourceGraphic" in2="effect1_dropShadow_86_2056" result="shape"/>
</filter>
<linearGradient id="paint0_linear_86_2056" x1="6" y1="53.543" x2="195" y2="53.543" gradientUnits="userSpaceOnUse">
<stop stop-color="#FF75C3"/>
<stop offset="0.2" stop-color="#FFA647"/>
<stop offset="0.4" stop-color="#FFE83F"/>
<stop offset="0.6" stop-color="#9FFF5B"/>
<stop offset="0.8" stop-color="#70E2FF"/>
<stop offset="1" stop-color="#CD93FF"/>
</linearGradient>
</defs>
</svg>
