<svg width="185" height="81" viewBox="0 0 185 81" fill="none" xmlns="http://www.w3.org/2000/svg">
<mask id="path-1-inside-1_0_22974" fill="white">
<path d="M147.531 8.02145L146.542 6.89104L145.586 8.26733L144.555 6.84952L143.622 8.01187L142.612 7.57439L141.666 8.13002L140.7 8.35354L139.71 8.30884L138.759 8.6569L137.651 7.78195L136.721 8.31842L135.695 8.21623L134.996 9.99807L133.835 9.16463L132.927 9.70429L132.151 10.7804L130.941 9.98849L129.951 10.1897L129.36 11.8278L128.072 10.988L127.214 11.6522L126.63 13.0955L125.546 13.2392L125.163 11.7256L123.718 12.013L123.541 10.1961L122.649 9.57656L121.539 9.42009L120.739 8.65371L119.776 8.24497L119.076 7.22313L117.82 7.57439L116.845 7.27423L115.974 6.69305L115.373 5.25928L114.35 5.09324L113.296 5.06769L112.468 4.24702L111.422 4.23744L110.487 3.80955L109.513 3.54451L108.539 3.28905L107.626 2.70788L106.765 1.79461L105.616 2.56099L104.768 1.45293L103.671 2.04049L102.794 0.973942L101.82 0.597138L100.689 1.80738L99.8024 0.488567L98.746 1.14638L97.813 0L96.7798 0.504534L95.7594 0.993101L94.7853 0.0223528L93.7778 0.0670583L92.7702 0.906883L91.7833 1.28688L90.7886 0.948396L89.7939 0.804699L88.7684 0.143696L87.8406 1.4657L86.8253 1.11764L85.7869 0.606718L84.8411 1.2773L83.7745 0.667389L82.7592 0.661003L81.9548 2.26401L80.8547 1.60621L80.0322 2.82603L78.8962 2.08839L77.8321 1.88721L76.8477 2.14267L76.0381 3.2188L74.9715 3.08468L74.1439 3.96602L73.0721 3.87661L72.1751 4.45778L71.2241 4.84416L70.3168 5.36785L69.2656 5.46685L68.5793 6.61322L67.5178 6.71221L66.8162 7.74683L65.9757 8.40464L64.8834 8.50363L64.03 9.15186L63.4183 10.2599L62.5187 11.087L61.5292 10.4036L60.46 10.774L59.6324 9.91504L58.7585 9.25404L57.769 9.24765L56.7332 9.59891L55.8208 9.1327L54.9931 7.93523L53.8494 9.33387L53.0552 7.64145L52.0117 8.31203L51.0093 8.68245L50.0737 8.25455L49.1408 7.68935L48.1821 7.41473H47.2105L46.2441 7.15927L45.2546 7.97035L44.2856 8.45892L43.3243 7.89691L42.3245 7.39238L41.3247 7.43069L40.3403 7.97035L39.3431 7.948L38.3818 8.64413L37.346 7.92884L36.4027 8.71758L35.3104 7.568L34.38 8.41102L33.357 8.2322L32.3238 8.05338L31.4268 8.96665L30.319 8.28329L29.5325 9.83841L28.5276 9.87034L27.5586 10.1386L26.4431 9.64362L25.6952 11.0423L24.6363 10.8794L23.7136 11.3584L22.6546 11.2754L21.9016 12.4026L20.5573 11.3233L19.7683 12.2908L19.064 13.4659L18.0205 13.5394L17.2135 14.3313L15.9926 13.9737L14.9337 14.1237L14.4942 15.8066L13.4018 15.8896L12.7978 17.0711L11.7826 17.3617L10.9678 18.0706L10.1248 18.7316L9.27664 19.383L8.73947 20.5262L7.74222 20.9605L6.98915 21.7684L6.07415 22.3847L5.44958 23.3746L4.67081 24.1953L4.67852 25.76L3.57332 26.3092L2.93077 27.2959L2.35761 28.3561L2.11344 29.611L1.80501 30.8117L2.02605 32.172L0.943989 33.1811L0.84375 34.4743L1.66108 35.7708L1.73305 36.9778L1.92838 38.1625L1.37836 39.5644L1.8924 40.6948L2.18026 41.8986L2.26765 43.243L2.94362 44.2393L3.23148 45.5134L4.48832 45.9573L4.65025 47.3751L5.74773 47.8445L6.65759 48.4512L7.07653 49.6678L7.69082 50.6673L8.73947 51.0281L9.25094 52.2128L10.2045 52.6823L10.7005 53.9819L11.7518 54.2501L12.5434 55.0197L13.4018 55.6584L14.0701 56.7568L15.3192 56.4407L15.9926 57.5679L17.2032 57.2358L18.1799 57.5168L19.0281 58.1874L19.9096 58.7718L20.8349 59.2156L21.5135 60.6111L22.6521 60.2694L23.4694 61.221L24.7082 60.3173L25.4305 61.7766L26.4714 61.7351L27.3659 62.4568L28.5173 61.7096L29.3038 63.1785L30.3345 63.1114L31.3368 63.2359L32.3007 63.6606L33.3982 62.8591L34.2977 63.9449L35.2976 64.0758L36.395 62.8528L37.3512 63.4531L38.297 64.4685L39.3354 63.7373L40.33 63.8874L41.317 64.4685L42.3271 63.8459L43.3243 63.4691L44.3319 64.4813L45.342 64.5675L46.3161 63.4212L47.357 64.4366L48.2977 63.1146L49.2795 62.8208L50.3462 63.7916L51.3332 63.5074L52.3972 64.0885L53.3688 63.6351L54.2632 62.5781L55.2193 62.1758L56.2654 62.4281L57.2421 62.163L58.2496 62.1055H59.3291L60.0488 63.2296L61.1437 63.1433L61.8556 64.3823L63.0534 63.865L63.9221 64.5643L64.7266 65.5798L65.8755 65.1295L66.7776 65.749L67.8057 65.7842L68.8209 65.8512L69.5971 67.2179L70.5867 67.4702L71.661 67.1924L72.6608 67.3393L73.7069 67.1317L74.6322 67.8119L75.7143 67.2467L76.6781 67.6426L77.5802 68.6613L78.5544 69.1051L79.6595 68.0258L80.6516 68.1536L81.6283 68.5367L82.5716 69.6129L83.5997 69.2808L84.6381 68.5367L85.6173 69.1275L86.6403 68.3579L87.6298 68.9806L88.6245 70.044L89.6346 68.492L90.6472 69.2361L91.6599 69.3191L92.6623 68.8241L93.657 68.3388L94.7262 69.8875L95.6926 68.7922L96.7078 68.8082L97.6973 68.4473L98.674 67.9715L99.6944 68.0865L100.681 67.7831L101.704 67.8757L102.825 68.7954L103.845 68.7251L104.84 68.4409L105.67 66.9816L106.721 67.1764L107.824 66.7709L108.682 67.8917L109.179 69.2712L110.261 69.6001L110.636 70.9317L111.592 71.4043L112.648 71.6693L113.52 72.2218L114.275 72.9786L114.676 74.4602L115.676 74.7668L116.139 76.2133L117.069 76.6731L117.917 77.3214L119.141 77.0468L119.75 78.2698L121.004 77.8483L121.793 78.621L122.407 79.9207L123.654 79.4034L124.194 81L125.577 80.9202L125.127 79.4513L124.538 78.4965L124.322 77.2671L123.947 76.159L122.61 75.7184L122.189 74.6295L121.356 73.812L121.616 72.2888L120.485 71.6342L121.233 69.8683L120.531 68.9551L119.827 68.0194L119.93 66.6655L119.909 65.4201L119.305 64.3089L119.593 63.5361L119.796 62.1598L120.873 62.1471L122.073 62.4281L122.688 61.0805L123.397 60.0555L124.194 59.2891L125.397 59.4551L126.294 59.4072L126.988 59.899L128.268 59.2061L128.92 60.576L129.91 60.8059L130.884 61.0709L131.742 61.8277L132.979 60.8857L133.781 61.9363L134.829 61.7543L135.698 62.5686L136.585 63.3764L137.636 63.121L138.728 62.3929L139.633 63.1849L140.589 63.6415L141.617 63.2711L142.635 62.8336L143.594 63.3094L144.55 64.0375L145.539 64.2067L146.532 64.5963L147.531 64.0279L148.531 64.443L149.51 63.7022L150.497 63.6032L151.466 63.1944L152.489 63.7213L153.52 64.1524L154.515 64.0215L155.491 63.7373L156.445 63.2551L157.465 63.3637L158.406 62.8559L159.424 62.8815L160.4 62.626L161.184 61.3775L162.218 61.4605L163.071 60.6941L164.073 60.5983L164.909 59.8351L166.132 60.4866L166.759 59.0368L168.088 59.883L168.862 58.9698L169.877 58.7558L170.442 57.3572L171.493 57.2294L172.265 56.4152L173.491 56.5876L174.084 55.4189L175.061 55.0101L175.341 53.3624L176.762 53.6881L177.179 52.3533L178.263 52.0308L178.813 50.9387L179.788 50.3927L180.569 49.5784L181.294 48.6811L181.764 47.5379L182.116 46.3181L182.473 45.1398L182.527 43.7986L182.805 42.6459L184.327 42.0647L184.501 40.7938L184.838 39.5835L184.869 38.2967L184.671 37.0098L184.157 35.7708L183.882 34.5957L185 33.2162L184.406 32.0666L184.152 30.8628L184.016 29.6078L183.209 28.6722L182.931 27.4843L182.08 26.6732L181.399 25.7919L180.996 24.687L181.098 23.0425L179.736 22.8637L179.731 21.2032L178.502 20.9924L177.713 20.2708L176.973 19.4852L176.59 18.1185L175.847 17.2883L174.686 17.2116L174.205 15.88L173.457 15.0179L172.234 15.1871L171.555 14.1589L170.321 14.4846L169.992 12.4728L168.761 12.8624L168.106 11.6011L167.142 11.237L165.906 11.8565L165.009 11.3297L164.091 10.873L163.243 10.1034L162.179 10.2663L161.454 8.78783L160.434 8.74951L159.408 8.77186L158.403 8.71119L157.355 9.02093L156.381 8.82934L155.432 8.38228L154.432 8.4206L153.492 7.77876L152.479 8.00229L151.492 7.90649L150.531 7.10179L149.536 6.96129L148.529 7.41473L147.531 8.02145Z"/>
</mask>
<path d="M147.531 8.02145L146.542 6.89104L145.586 8.26733L144.555 6.84952L143.622 8.01187L142.612 7.57439L141.666 8.13002L140.7 8.35354L139.71 8.30884L138.759 8.6569L137.651 7.78195L136.721 8.31842L135.695 8.21623L134.996 9.99807L133.835 9.16463L132.927 9.70429L132.151 10.7804L130.941 9.98849L129.951 10.1897L129.36 11.8278L128.072 10.988L127.214 11.6522L126.63 13.0955L125.546 13.2392L125.163 11.7256L123.718 12.013L123.541 10.1961L122.649 9.57656L121.539 9.42009L120.739 8.65371L119.776 8.24497L119.076 7.22313L117.82 7.57439L116.845 7.27423L115.974 6.69305L115.373 5.25928L114.35 5.09324L113.296 5.06769L112.468 4.24702L111.422 4.23744L110.487 3.80955L109.513 3.54451L108.539 3.28905L107.626 2.70788L106.765 1.79461L105.616 2.56099L104.768 1.45293L103.671 2.04049L102.794 0.973942L101.82 0.597138L100.689 1.80738L99.8024 0.488567L98.746 1.14638L97.813 0L96.7798 0.504534L95.7594 0.993101L94.7853 0.0223528L93.7778 0.0670583L92.7702 0.906883L91.7833 1.28688L90.7886 0.948396L89.7939 0.804699L88.7684 0.143696L87.8406 1.4657L86.8253 1.11764L85.7869 0.606718L84.8411 1.2773L83.7745 0.667389L82.7592 0.661003L81.9548 2.26401L80.8547 1.60621L80.0322 2.82603L78.8962 2.08839L77.8321 1.88721L76.8477 2.14267L76.0381 3.2188L74.9715 3.08468L74.1439 3.96602L73.0721 3.87661L72.1751 4.45778L71.2241 4.84416L70.3168 5.36785L69.2656 5.46685L68.5793 6.61322L67.5178 6.71221L66.8162 7.74683L65.9757 8.40464L64.8834 8.50363L64.03 9.15186L63.4183 10.2599L62.5187 11.087L61.5292 10.4036L60.46 10.774L59.6324 9.91504L58.7585 9.25404L57.769 9.24765L56.7332 9.59891L55.8208 9.1327L54.9931 7.93523L53.8494 9.33387L53.0552 7.64145L52.0117 8.31203L51.0093 8.68245L50.0737 8.25455L49.1408 7.68935L48.1821 7.41473H47.2105L46.2441 7.15927L45.2546 7.97035L44.2856 8.45892L43.3243 7.89691L42.3245 7.39238L41.3247 7.43069L40.3403 7.97035L39.3431 7.948L38.3818 8.64413L37.346 7.92884L36.4027 8.71758L35.3104 7.568L34.38 8.41102L33.357 8.2322L32.3238 8.05338L31.4268 8.96665L30.319 8.28329L29.5325 9.83841L28.5276 9.87034L27.5586 10.1386L26.4431 9.64362L25.6952 11.0423L24.6363 10.8794L23.7136 11.3584L22.6546 11.2754L21.9016 12.4026L20.5573 11.3233L19.7683 12.2908L19.064 13.4659L18.0205 13.5394L17.2135 14.3313L15.9926 13.9737L14.9337 14.1237L14.4942 15.8066L13.4018 15.8896L12.7978 17.0711L11.7826 17.3617L10.9678 18.0706L10.1248 18.7316L9.27664 19.383L8.73947 20.5262L7.74222 20.9605L6.98915 21.7684L6.07415 22.3847L5.44958 23.3746L4.67081 24.1953L4.67852 25.76L3.57332 26.3092L2.93077 27.2959L2.35761 28.3561L2.11344 29.611L1.80501 30.8117L2.02605 32.172L0.943989 33.1811L0.84375 34.4743L1.66108 35.7708L1.73305 36.9778L1.92838 38.1625L1.37836 39.5644L1.8924 40.6948L2.18026 41.8986L2.26765 43.243L2.94362 44.2393L3.23148 45.5134L4.48832 45.9573L4.65025 47.3751L5.74773 47.8445L6.65759 48.4512L7.07653 49.6678L7.69082 50.6673L8.73947 51.0281L9.25094 52.2128L10.2045 52.6823L10.7005 53.9819L11.7518 54.2501L12.5434 55.0197L13.4018 55.6584L14.0701 56.7568L15.3192 56.4407L15.9926 57.5679L17.2032 57.2358L18.1799 57.5168L19.0281 58.1874L19.9096 58.7718L20.8349 59.2156L21.5135 60.6111L22.6521 60.2694L23.4694 61.221L24.7082 60.3173L25.4305 61.7766L26.4714 61.7351L27.3659 62.4568L28.5173 61.7096L29.3038 63.1785L30.3345 63.1114L31.3368 63.2359L32.3007 63.6606L33.3982 62.8591L34.2977 63.9449L35.2976 64.0758L36.395 62.8528L37.3512 63.4531L38.297 64.4685L39.3354 63.7373L40.33 63.8874L41.317 64.4685L42.3271 63.8459L43.3243 63.4691L44.3319 64.4813L45.342 64.5675L46.3161 63.4212L47.357 64.4366L48.2977 63.1146L49.2795 62.8208L50.3462 63.7916L51.3332 63.5074L52.3972 64.0885L53.3688 63.6351L54.2632 62.5781L55.2193 62.1758L56.2654 62.4281L57.2421 62.163L58.2496 62.1055H59.3291L60.0488 63.2296L61.1437 63.1433L61.8556 64.3823L63.0534 63.865L63.9221 64.5643L64.7266 65.5798L65.8755 65.1295L66.7776 65.749L67.8057 65.7842L68.8209 65.8512L69.5971 67.2179L70.5867 67.4702L71.661 67.1924L72.6608 67.3393L73.7069 67.1317L74.6322 67.8119L75.7143 67.2467L76.6781 67.6426L77.5802 68.6613L78.5544 69.1051L79.6595 68.0258L80.6516 68.1536L81.6283 68.5367L82.5716 69.6129L83.5997 69.2808L84.6381 68.5367L85.6173 69.1275L86.6403 68.3579L87.6298 68.9806L88.6245 70.044L89.6346 68.492L90.6472 69.2361L91.6599 69.3191L92.6623 68.8241L93.657 68.3388L94.7262 69.8875L95.6926 68.7922L96.7078 68.8082L97.6973 68.4473L98.674 67.9715L99.6944 68.0865L100.681 67.7831L101.704 67.8757L102.825 68.7954L103.845 68.7251L104.84 68.4409L105.67 66.9816L106.721 67.1764L107.824 66.7709L108.682 67.8917L109.179 69.2712L110.261 69.6001L110.636 70.9317L111.592 71.4043L112.648 71.6693L113.52 72.2218L114.275 72.9786L114.676 74.4602L115.676 74.7668L116.139 76.2133L117.069 76.6731L117.917 77.3214L119.141 77.0468L119.75 78.2698L121.004 77.8483L121.793 78.621L122.407 79.9207L123.654 79.4034L124.194 81L125.577 80.9202L125.127 79.4513L124.538 78.4965L124.322 77.2671L123.947 76.159L122.61 75.7184L122.189 74.6295L121.356 73.812L121.616 72.2888L120.485 71.6342L121.233 69.8683L120.531 68.9551L119.827 68.0194L119.93 66.6655L119.909 65.4201L119.305 64.3089L119.593 63.5361L119.796 62.1598L120.873 62.1471L122.073 62.4281L122.688 61.0805L123.397 60.0555L124.194 59.2891L125.397 59.4551L126.294 59.4072L126.988 59.899L128.268 59.2061L128.92 60.576L129.91 60.8059L130.884 61.0709L131.742 61.8277L132.979 60.8857L133.781 61.9363L134.829 61.7543L135.698 62.5686L136.585 63.3764L137.636 63.121L138.728 62.3929L139.633 63.1849L140.589 63.6415L141.617 63.2711L142.635 62.8336L143.594 63.3094L144.55 64.0375L145.539 64.2067L146.532 64.5963L147.531 64.0279L148.531 64.443L149.51 63.7022L150.497 63.6032L151.466 63.1944L152.489 63.7213L153.52 64.1524L154.515 64.0215L155.491 63.7373L156.445 63.2551L157.465 63.3637L158.406 62.8559L159.424 62.8815L160.4 62.626L161.184 61.3775L162.218 61.4605L163.071 60.6941L164.073 60.5983L164.909 59.8351L166.132 60.4866L166.759 59.0368L168.088 59.883L168.862 58.9698L169.877 58.7558L170.442 57.3572L171.493 57.2294L172.265 56.4152L173.491 56.5876L174.084 55.4189L175.061 55.0101L175.341 53.3624L176.762 53.6881L177.179 52.3533L178.263 52.0308L178.813 50.9387L179.788 50.3927L180.569 49.5784L181.294 48.6811L181.764 47.5379L182.116 46.3181L182.473 45.1398L182.527 43.7986L182.805 42.6459L184.327 42.0647L184.501 40.7938L184.838 39.5835L184.869 38.2967L184.671 37.0098L184.157 35.7708L183.882 34.5957L185 33.2162L184.406 32.0666L184.152 30.8628L184.016 29.6078L183.209 28.6722L182.931 27.4843L182.08 26.6732L181.399 25.7919L180.996 24.687L181.098 23.0425L179.736 22.8637L179.731 21.2032L178.502 20.9924L177.713 20.2708L176.973 19.4852L176.59 18.1185L175.847 17.2883L174.686 17.2116L174.205 15.88L173.457 15.0179L172.234 15.1871L171.555 14.1589L170.321 14.4846L169.992 12.4728L168.761 12.8624L168.106 11.6011L167.142 11.237L165.906 11.8565L165.009 11.3297L164.091 10.873L163.243 10.1034L162.179 10.2663L161.454 8.78783L160.434 8.74951L159.408 8.77186L158.403 8.71119L157.355 9.02093L156.381 8.82934L155.432 8.38228L154.432 8.4206L153.492 7.77876L152.479 8.00229L151.492 7.90649L150.531 7.10179L149.536 6.96129L148.529 7.41473L147.531 8.02145Z" fill="#FFEFD0" stroke="#D28E4A" stroke-width="2" mask="url(#path-1-inside-1_0_22974)"/>
<mask id="path-2-inside-2_0_22974" fill="white">
<path d="M147.531 8.02145L146.542 6.89104L145.586 8.26733L144.555 6.84952L143.622 8.01187L142.612 7.57439L141.666 8.13002L140.7 8.35354L139.71 8.30884L138.759 8.6569L137.651 7.78195L136.721 8.31842L135.695 8.21623L134.996 9.99807L133.835 9.16463L132.927 9.70429L132.151 10.7804L130.941 9.98849L129.951 10.1897L129.36 11.8278L128.072 10.988L127.214 11.6522L126.63 13.0955L125.546 13.2392L125.163 11.7256L123.718 12.013L123.541 10.1961L122.649 9.57656L121.539 9.42009L120.739 8.65371L119.776 8.24497L119.076 7.22313L117.82 7.57439L116.845 7.27423L115.974 6.69305L115.373 5.25928L114.35 5.09324L113.296 5.06769L112.468 4.24702L111.422 4.23744L110.487 3.80955L109.513 3.54451L108.539 3.28905L107.626 2.70788L106.765 1.79461L105.616 2.56099L104.768 1.45293L103.671 2.04049L102.794 0.973942L101.82 0.597138L100.689 1.80738L99.8024 0.488567L98.746 1.14638L97.813 0L96.7798 0.504534L95.7594 0.993101L94.7853 0.0223528L93.7778 0.0670583L92.7702 0.906883L91.7833 1.28688L90.7886 0.948396L89.7939 0.804699L88.7684 0.143696L87.8406 1.4657L86.8253 1.11764L85.7869 0.606718L84.8411 1.2773L83.7745 0.667389L82.7592 0.661003L81.9548 2.26401L80.8547 1.60621L80.0322 2.82603L78.8962 2.08839L77.8321 1.88721L76.8477 2.14267L76.0381 3.2188L74.9715 3.08468L74.1439 3.96602L73.0721 3.87661L72.1751 4.45778L71.2241 4.84416L70.3168 5.36785L69.2656 5.46685L68.5793 6.61322L67.5178 6.71221L66.8162 7.74683L65.9757 8.40464L64.8834 8.50363L64.03 9.15186L63.4183 10.2599L62.5187 11.087L61.5292 10.4036L60.46 10.774L59.6324 9.91504L58.7585 9.25404L57.769 9.24765L56.7332 9.59891L55.8208 9.1327L54.9931 7.93523L53.8494 9.33387L53.0552 7.64145L52.0117 8.31203L51.0093 8.68245L50.0737 8.25455L49.1408 7.68935L48.1821 7.41473H47.2105L46.2441 7.15927L45.2546 7.97035L44.2856 8.45892L43.3243 7.89691L42.3245 7.39238L41.3247 7.43069L40.3403 7.97035L39.3431 7.948L38.3818 8.64413L37.346 7.92884L36.4027 8.71758L35.3104 7.568L34.38 8.41102L33.357 8.2322L32.3238 8.05338L31.4268 8.96665L30.319 8.28329L29.5325 9.83841L28.5276 9.87034L27.5586 10.1386L26.4431 9.64362L25.6952 11.0423L24.6363 10.8794L23.7136 11.3584L22.6546 11.2754L21.9016 12.4026L20.5573 11.3233L19.7683 12.2908L19.064 13.4659L18.0205 13.5394L17.2135 14.3313L15.9926 13.9737L14.9337 14.1237L14.4942 15.8066L13.4018 15.8896L12.7978 17.0711L11.7826 17.3617L10.9678 18.0706L10.1248 18.7316L9.27664 19.383L8.73947 20.5262L7.74222 20.9605L6.98915 21.7684L6.07415 22.3847L5.44958 23.3746L4.67081 24.1953L4.67852 25.76L3.57332 26.3092L2.93077 27.2959L2.35761 28.3561L2.11344 29.611L1.80501 30.8117L2.02605 32.172L0.943989 33.1811L0.84375 34.4743L1.66108 35.7708L1.73305 36.9778L1.92838 38.1625L1.37836 39.5644L1.8924 40.6948L2.18026 41.8986L2.26765 43.243L2.94362 44.2393L3.23148 45.5134L4.48832 45.9573L4.65025 47.3751L5.74773 47.8445L6.65759 48.4512L7.07653 49.6678L7.69082 50.6673L8.73947 51.0281L9.25094 52.2128L10.2045 52.6823L10.7005 53.9819L11.7518 54.2501L12.5434 55.0197L13.4018 55.6584L14.0701 56.7568L15.3192 56.4407L15.9926 57.5679L17.2032 57.2358L18.1799 57.5168L19.0281 58.1874L19.9096 58.7718L20.8349 59.2156L21.5135 60.6111L22.6521 60.2694L23.4694 61.221L24.7082 60.3173L25.4305 61.7766L26.4714 61.7351L27.3659 62.4568L28.5173 61.7096L29.3038 63.1785L30.3345 63.1114L31.3368 63.2359L32.3007 63.6606L33.3982 62.8591L34.2977 63.9449L35.2976 64.0758L36.395 62.8528L37.3512 63.4531L38.297 64.4685L39.3354 63.7373L40.33 63.8874L41.317 64.4685L42.3271 63.8459L43.3243 63.4691L44.3319 64.4813L45.342 64.5675L46.3161 63.4212L47.357 64.4366L48.2977 63.1146L49.2795 62.8208L50.3462 63.7916L51.3332 63.5074L52.3972 64.0885L53.3688 63.6351L54.2632 62.5781L55.2193 62.1758L56.2654 62.4281L57.2421 62.163L58.2496 62.1055H59.3291L60.0488 63.2296L61.1437 63.1433L61.8556 64.3823L63.0534 63.865L63.9221 64.5643L64.7266 65.5798L65.8755 65.1295L66.7776 65.749L67.8057 65.7842L68.8209 65.8512L69.5971 67.2179L70.5867 67.4702L71.661 67.1924L72.6608 67.3393L73.7069 67.1317L74.6322 67.8119L75.7143 67.2467L76.6781 67.6426L77.5802 68.6613L78.5544 69.1051L79.6595 68.0258L80.6516 68.1536L81.6283 68.5367L82.5716 69.6129L83.5997 69.2808L84.6381 68.5367L85.6173 69.1275L86.6403 68.3579L87.6298 68.9806L88.6245 70.044L89.6346 68.492L90.6472 69.2361L91.6599 69.3191L92.6623 68.8241L93.657 68.3388L94.7262 69.8875L95.6926 68.7922L96.7078 68.8082L97.6973 68.4473L98.674 67.9715L99.6944 68.0865L100.681 67.7831L101.704 67.8757L102.825 68.7954L103.845 68.7251L104.84 68.4409L105.67 66.9816L106.721 67.1764L107.824 66.7709L108.682 67.8917L109.179 69.2712L110.261 69.6001L110.636 70.9317L111.592 71.4043L112.648 71.6693L113.52 72.2218L114.275 72.9786L114.676 74.4602L115.676 74.7668L116.139 76.2133L117.069 76.6731L117.917 77.3214L119.141 77.0468L119.75 78.2698L121.004 77.8483L121.793 78.621L122.407 79.9207L123.654 79.4034L124.194 81L125.577 80.9202L125.127 79.4513L124.538 78.4965L124.322 77.2671L123.947 76.159L122.61 75.7184L122.189 74.6295L121.356 73.812L121.616 72.2888L120.485 71.6342L121.233 69.8683L120.531 68.9551L119.827 68.0194L119.93 66.6655L119.909 65.4201L119.305 64.3089L119.593 63.5361L119.796 62.1598L120.873 62.1471L122.073 62.4281L122.688 61.0805L123.397 60.0555L124.194 59.2891L125.397 59.4551L126.294 59.4072L126.988 59.899L128.268 59.2061L128.92 60.576L129.91 60.8059L130.884 61.0709L131.742 61.8277L132.979 60.8857L133.781 61.9363L134.829 61.7543L135.698 62.5686L136.585 63.3764L137.636 63.121L138.728 62.3929L139.633 63.1849L140.589 63.6415L141.617 63.2711L142.635 62.8336L143.594 63.3094L144.55 64.0375L145.539 64.2067L146.532 64.5963L147.531 64.0279L148.531 64.443L149.51 63.7022L150.497 63.6032L151.466 63.1944L152.489 63.7213L153.52 64.1524L154.515 64.0215L155.491 63.7373L156.445 63.2551L157.465 63.3637L158.406 62.8559L159.424 62.8815L160.4 62.626L161.184 61.3775L162.218 61.4605L163.071 60.6941L164.073 60.5983L164.909 59.8351L166.132 60.4866L166.759 59.0368L168.088 59.883L168.862 58.9698L169.877 58.7558L170.442 57.3572L171.493 57.2294L172.265 56.4152L173.491 56.5876L174.084 55.4189L175.061 55.0101L175.341 53.3624L176.762 53.6881L177.179 52.3533L178.263 52.0308L178.813 50.9387L179.788 50.3927L180.569 49.5784L181.294 48.6811L181.764 47.5379L182.116 46.3181L182.473 45.1398L182.527 43.7986L182.805 42.6459L184.327 42.0647L184.501 40.7938L184.838 39.5835L184.869 38.2967L184.671 37.0098L184.157 35.7708L183.882 34.5957L185 33.2162L184.406 32.0666L184.152 30.8628L184.016 29.6078L183.209 28.6722L182.931 27.4843L182.08 26.6732L181.399 25.7919L180.996 24.687L181.098 23.0425L179.736 22.8637L179.731 21.2032L178.502 20.9924L177.713 20.2708L176.973 19.4852L176.59 18.1185L175.847 17.2883L174.686 17.2116L174.205 15.88L173.457 15.0179L172.234 15.1871L171.555 14.1589L170.321 14.4846L169.992 12.4728L168.761 12.8624L168.106 11.6011L167.142 11.237L165.906 11.8565L165.009 11.3297L164.091 10.873L163.243 10.1034L162.179 10.2663L161.454 8.78783L160.434 8.74951L159.408 8.77186L158.403 8.71119L157.355 9.02093L156.381 8.82934L155.432 8.38228L154.432 8.4206L153.492 7.77876L152.479 8.00229L151.492 7.90649L150.531 7.10179L149.536 6.96129L148.529 7.41473L147.531 8.02145Z"/>
</mask>
<path d="M147.531 8.02145L146.542 6.89104L145.586 8.26733L144.555 6.84952L143.622 8.01187L142.612 7.57439L141.666 8.13002L140.7 8.35354L139.71 8.30884L138.759 8.6569L137.651 7.78195L136.721 8.31842L135.695 8.21623L134.996 9.99807L133.835 9.16463L132.927 9.70429L132.151 10.7804L130.941 9.98849L129.951 10.1897L129.36 11.8278L128.072 10.988L127.214 11.6522L126.63 13.0955L125.546 13.2392L125.163 11.7256L123.718 12.013L123.541 10.1961L122.649 9.57656L121.539 9.42009L120.739 8.65371L119.776 8.24497L119.076 7.22313L117.82 7.57439L116.845 7.27423L115.974 6.69305L115.373 5.25928L114.35 5.09324L113.296 5.06769L112.468 4.24702L111.422 4.23744L110.487 3.80955L109.513 3.54451L108.539 3.28905L107.626 2.70788L106.765 1.79461L105.616 2.56099L104.768 1.45293L103.671 2.04049L102.794 0.973942L101.82 0.597138L100.689 1.80738L99.8024 0.488567L98.746 1.14638L97.813 0L96.7798 0.504534L95.7594 0.993101L94.7853 0.0223528L93.7778 0.0670583L92.7702 0.906883L91.7833 1.28688L90.7886 0.948396L89.7939 0.804699L88.7684 0.143696L87.8406 1.4657L86.8253 1.11764L85.7869 0.606718L84.8411 1.2773L83.7745 0.667389L82.7592 0.661003L81.9548 2.26401L80.8547 1.60621L80.0322 2.82603L78.8962 2.08839L77.8321 1.88721L76.8477 2.14267L76.0381 3.2188L74.9715 3.08468L74.1439 3.96602L73.0721 3.87661L72.1751 4.45778L71.2241 4.84416L70.3168 5.36785L69.2656 5.46685L68.5793 6.61322L67.5178 6.71221L66.8162 7.74683L65.9757 8.40464L64.8834 8.50363L64.03 9.15186L63.4183 10.2599L62.5187 11.087L61.5292 10.4036L60.46 10.774L59.6324 9.91504L58.7585 9.25404L57.769 9.24765L56.7332 9.59891L55.8208 9.1327L54.9931 7.93523L53.8494 9.33387L53.0552 7.64145L52.0117 8.31203L51.0093 8.68245L50.0737 8.25455L49.1408 7.68935L48.1821 7.41473H47.2105L46.2441 7.15927L45.2546 7.97035L44.2856 8.45892L43.3243 7.89691L42.3245 7.39238L41.3247 7.43069L40.3403 7.97035L39.3431 7.948L38.3818 8.64413L37.346 7.92884L36.4027 8.71758L35.3104 7.568L34.38 8.41102L33.357 8.2322L32.3238 8.05338L31.4268 8.96665L30.319 8.28329L29.5325 9.83841L28.5276 9.87034L27.5586 10.1386L26.4431 9.64362L25.6952 11.0423L24.6363 10.8794L23.7136 11.3584L22.6546 11.2754L21.9016 12.4026L20.5573 11.3233L19.7683 12.2908L19.064 13.4659L18.0205 13.5394L17.2135 14.3313L15.9926 13.9737L14.9337 14.1237L14.4942 15.8066L13.4018 15.8896L12.7978 17.0711L11.7826 17.3617L10.9678 18.0706L10.1248 18.7316L9.27664 19.383L8.73947 20.5262L7.74222 20.9605L6.98915 21.7684L6.07415 22.3847L5.44958 23.3746L4.67081 24.1953L4.67852 25.76L3.57332 26.3092L2.93077 27.2959L2.35761 28.3561L2.11344 29.611L1.80501 30.8117L2.02605 32.172L0.943989 33.1811L0.84375 34.4743L1.66108 35.7708L1.73305 36.9778L1.92838 38.1625L1.37836 39.5644L1.8924 40.6948L2.18026 41.8986L2.26765 43.243L2.94362 44.2393L3.23148 45.5134L4.48832 45.9573L4.65025 47.3751L5.74773 47.8445L6.65759 48.4512L7.07653 49.6678L7.69082 50.6673L8.73947 51.0281L9.25094 52.2128L10.2045 52.6823L10.7005 53.9819L11.7518 54.2501L12.5434 55.0197L13.4018 55.6584L14.0701 56.7568L15.3192 56.4407L15.9926 57.5679L17.2032 57.2358L18.1799 57.5168L19.0281 58.1874L19.9096 58.7718L20.8349 59.2156L21.5135 60.6111L22.6521 60.2694L23.4694 61.221L24.7082 60.3173L25.4305 61.7766L26.4714 61.7351L27.3659 62.4568L28.5173 61.7096L29.3038 63.1785L30.3345 63.1114L31.3368 63.2359L32.3007 63.6606L33.3982 62.8591L34.2977 63.9449L35.2976 64.0758L36.395 62.8528L37.3512 63.4531L38.297 64.4685L39.3354 63.7373L40.33 63.8874L41.317 64.4685L42.3271 63.8459L43.3243 63.4691L44.3319 64.4813L45.342 64.5675L46.3161 63.4212L47.357 64.4366L48.2977 63.1146L49.2795 62.8208L50.3462 63.7916L51.3332 63.5074L52.3972 64.0885L53.3688 63.6351L54.2632 62.5781L55.2193 62.1758L56.2654 62.4281L57.2421 62.163L58.2496 62.1055H59.3291L60.0488 63.2296L61.1437 63.1433L61.8556 64.3823L63.0534 63.865L63.9221 64.5643L64.7266 65.5798L65.8755 65.1295L66.7776 65.749L67.8057 65.7842L68.8209 65.8512L69.5971 67.2179L70.5867 67.4702L71.661 67.1924L72.6608 67.3393L73.7069 67.1317L74.6322 67.8119L75.7143 67.2467L76.6781 67.6426L77.5802 68.6613L78.5544 69.1051L79.6595 68.0258L80.6516 68.1536L81.6283 68.5367L82.5716 69.6129L83.5997 69.2808L84.6381 68.5367L85.6173 69.1275L86.6403 68.3579L87.6298 68.9806L88.6245 70.044L89.6346 68.492L90.6472 69.2361L91.6599 69.3191L92.6623 68.8241L93.657 68.3388L94.7262 69.8875L95.6926 68.7922L96.7078 68.8082L97.6973 68.4473L98.674 67.9715L99.6944 68.0865L100.681 67.7831L101.704 67.8757L102.825 68.7954L103.845 68.7251L104.84 68.4409L105.67 66.9816L106.721 67.1764L107.824 66.7709L108.682 67.8917L109.179 69.2712L110.261 69.6001L110.636 70.9317L111.592 71.4043L112.648 71.6693L113.52 72.2218L114.275 72.9786L114.676 74.4602L115.676 74.7668L116.139 76.2133L117.069 76.6731L117.917 77.3214L119.141 77.0468L119.75 78.2698L121.004 77.8483L121.793 78.621L122.407 79.9207L123.654 79.4034L124.194 81L125.577 80.9202L125.127 79.4513L124.538 78.4965L124.322 77.2671L123.947 76.159L122.61 75.7184L122.189 74.6295L121.356 73.812L121.616 72.2888L120.485 71.6342L121.233 69.8683L120.531 68.9551L119.827 68.0194L119.93 66.6655L119.909 65.4201L119.305 64.3089L119.593 63.5361L119.796 62.1598L120.873 62.1471L122.073 62.4281L122.688 61.0805L123.397 60.0555L124.194 59.2891L125.397 59.4551L126.294 59.4072L126.988 59.899L128.268 59.2061L128.92 60.576L129.91 60.8059L130.884 61.0709L131.742 61.8277L132.979 60.8857L133.781 61.9363L134.829 61.7543L135.698 62.5686L136.585 63.3764L137.636 63.121L138.728 62.3929L139.633 63.1849L140.589 63.6415L141.617 63.2711L142.635 62.8336L143.594 63.3094L144.55 64.0375L145.539 64.2067L146.532 64.5963L147.531 64.0279L148.531 64.443L149.51 63.7022L150.497 63.6032L151.466 63.1944L152.489 63.7213L153.52 64.1524L154.515 64.0215L155.491 63.7373L156.445 63.2551L157.465 63.3637L158.406 62.8559L159.424 62.8815L160.4 62.626L161.184 61.3775L162.218 61.4605L163.071 60.6941L164.073 60.5983L164.909 59.8351L166.132 60.4866L166.759 59.0368L168.088 59.883L168.862 58.9698L169.877 58.7558L170.442 57.3572L171.493 57.2294L172.265 56.4152L173.491 56.5876L174.084 55.4189L175.061 55.0101L175.341 53.3624L176.762 53.6881L177.179 52.3533L178.263 52.0308L178.813 50.9387L179.788 50.3927L180.569 49.5784L181.294 48.6811L181.764 47.5379L182.116 46.3181L182.473 45.1398L182.527 43.7986L182.805 42.6459L184.327 42.0647L184.501 40.7938L184.838 39.5835L184.869 38.2967L184.671 37.0098L184.157 35.7708L183.882 34.5957L185 33.2162L184.406 32.0666L184.152 30.8628L184.016 29.6078L183.209 28.6722L182.931 27.4843L182.08 26.6732L181.399 25.7919L180.996 24.687L181.098 23.0425L179.736 22.8637L179.731 21.2032L178.502 20.9924L177.713 20.2708L176.973 19.4852L176.59 18.1185L175.847 17.2883L174.686 17.2116L174.205 15.88L173.457 15.0179L172.234 15.1871L171.555 14.1589L170.321 14.4846L169.992 12.4728L168.761 12.8624L168.106 11.6011L167.142 11.237L165.906 11.8565L165.009 11.3297L164.091 10.873L163.243 10.1034L162.179 10.2663L161.454 8.78783L160.434 8.74951L159.408 8.77186L158.403 8.71119L157.355 9.02093L156.381 8.82934L155.432 8.38228L154.432 8.4206L153.492 7.77876L152.479 8.00229L151.492 7.90649L150.531 7.10179L149.536 6.96129L148.529 7.41473L147.531 8.02145Z" fill="#FFEFD0" stroke="#D28E4A" stroke-width="2" mask="url(#path-2-inside-2_0_22974)"/>
<g style="mix-blend-mode:overlay" opacity="0.1">
<mask id="path-3-inside-3_0_22974" fill="white">
<path d="M147.531 8.02145L146.542 6.89104L145.586 8.26733L144.555 6.84952L143.622 8.01187L142.612 7.57439L141.666 8.13002L140.7 8.35354L139.71 8.30884L138.759 8.6569L137.651 7.78195L136.721 8.31842L135.695 8.21623L134.996 9.99807L133.835 9.16463L132.927 9.70429L132.151 10.7804L130.941 9.98849L129.951 10.1897L129.36 11.8278L128.072 10.988L127.214 11.6522L126.63 13.0955L125.546 13.2392L125.163 11.7256L123.718 12.013L123.541 10.1961L122.649 9.57656L121.539 9.42009L120.739 8.65371L119.776 8.24497L119.076 7.22313L117.82 7.57439L116.845 7.27423L115.974 6.69305L115.373 5.25928L114.35 5.09324L113.296 5.06769L112.468 4.24702L111.422 4.23744L110.487 3.80955L109.513 3.54451L108.539 3.28905L107.626 2.70788L106.765 1.79461L105.616 2.56099L104.768 1.45293L103.671 2.04049L102.794 0.973942L101.82 0.597138L100.689 1.80738L99.8024 0.488567L98.746 1.14638L97.813 0L96.7798 0.504534L95.7594 0.993101L94.7853 0.0223528L93.7778 0.0670583L92.7702 0.906883L91.7833 1.28688L90.7886 0.948396L89.7939 0.804699L88.7684 0.143696L87.8406 1.4657L86.8253 1.11764L85.7869 0.606718L84.8411 1.2773L83.7745 0.667389L82.7592 0.661003L81.9548 2.26401L80.8547 1.60621L80.0322 2.82603L78.8962 2.08839L77.8321 1.88721L76.8477 2.14267L76.0381 3.2188L74.9715 3.08468L74.1439 3.96602L73.0721 3.87661L72.1751 4.45778L71.2241 4.84416L70.3168 5.36785L69.2656 5.46685L68.5793 6.61322L67.5178 6.71221L66.8162 7.74683L65.9757 8.40464L64.8834 8.50363L64.03 9.15186L63.4183 10.2599L62.5187 11.087L61.5292 10.4036L60.46 10.774L59.6324 9.91504L58.7585 9.25404L57.769 9.24765L56.7332 9.59891L55.8208 9.1327L54.9931 7.93523L53.8494 9.33387L53.0552 7.64145L52.0117 8.31203L51.0093 8.68245L50.0737 8.25455L49.1408 7.68935L48.1821 7.41473H47.2105L46.2441 7.15927L45.2546 7.97035L44.2856 8.45892L43.3243 7.89691L42.3245 7.39238L41.3247 7.43069L40.3403 7.97035L39.3431 7.948L38.3818 8.64413L37.346 7.92884L36.4027 8.71758L35.3104 7.568L34.38 8.41102L33.357 8.2322L32.3238 8.05338L31.4268 8.96665L30.319 8.28329L29.5325 9.83841L28.5276 9.87034L27.5586 10.1386L26.4431 9.64362L25.6952 11.0423L24.6363 10.8794L23.7136 11.3584L22.6546 11.2754L21.9016 12.4026L20.5573 11.3233L19.7683 12.2908L19.064 13.4659L18.0205 13.5394L17.2135 14.3313L15.9926 13.9737L14.9337 14.1237L14.4942 15.8066L13.4018 15.8896L12.7978 17.0711L11.7826 17.3617L10.9678 18.0706L10.1248 18.7316L9.27664 19.383L8.73947 20.5262L7.74222 20.9605L6.98915 21.7684L6.07415 22.3847L5.44958 23.3746L4.67081 24.1953L4.67852 25.76L3.57332 26.3092L2.93077 27.2959L2.35761 28.3561L2.11344 29.611L1.80501 30.8117L2.02605 32.172L0.943989 33.1811L0.84375 34.4743L1.66108 35.7708L1.73305 36.9778L1.92838 38.1625L1.37836 39.5644L1.8924 40.6948L2.18026 41.8986L2.26765 43.243L2.94362 44.2393L3.23148 45.5134L4.48832 45.9573L4.65025 47.3751L5.74773 47.8445L6.65759 48.4512L7.07653 49.6678L7.69082 50.6673L8.73947 51.0281L9.25094 52.2128L10.2045 52.6823L10.7005 53.9819L11.7518 54.2501L12.5434 55.0197L13.4018 55.6584L14.0701 56.7568L15.3192 56.4407L15.9926 57.5679L17.2032 57.2358L18.1799 57.5168L19.0281 58.1874L19.9096 58.7718L20.8349 59.2156L21.5135 60.6111L22.6521 60.2694L23.4694 61.221L24.7082 60.3173L25.4305 61.7766L26.4714 61.7351L27.3659 62.4568L28.5173 61.7096L29.3038 63.1785L30.3345 63.1114L31.3368 63.2359L32.3007 63.6606L33.3982 62.8591L34.2977 63.9449L35.2976 64.0758L36.395 62.8528L37.3512 63.4531L38.297 64.4685L39.3354 63.7373L40.33 63.8874L41.317 64.4685L42.3271 63.8459L43.3243 63.4691L44.3319 64.4813L45.342 64.5675L46.3161 63.4212L47.357 64.4366L48.2977 63.1146L49.2795 62.8208L50.3462 63.7916L51.3332 63.5074L52.3972 64.0885L53.3688 63.6351L54.2632 62.5781L55.2193 62.1758L56.2654 62.4281L57.2421 62.163L58.2496 62.1055H59.3291L60.0488 63.2296L61.1437 63.1433L61.8556 64.3823L63.0534 63.865L63.9221 64.5643L64.7266 65.5798L65.8755 65.1295L66.7776 65.749L67.8057 65.7842L68.8209 65.8512L69.5971 67.2179L70.5867 67.4702L71.661 67.1924L72.6608 67.3393L73.7069 67.1317L74.6322 67.8119L75.7143 67.2467L76.6781 67.6426L77.5802 68.6613L78.5544 69.1051L79.6595 68.0258L80.6516 68.1536L81.6283 68.5367L82.5716 69.6129L83.5997 69.2808L84.6381 68.5367L85.6173 69.1275L86.6403 68.3579L87.6298 68.9806L88.6245 70.044L89.6346 68.492L90.6472 69.2361L91.6599 69.3191L92.6623 68.8241L93.657 68.3388L94.7262 69.8875L95.6926 68.7922L96.7078 68.8082L97.6973 68.4473L98.674 67.9715L99.6944 68.0865L100.681 67.7831L101.704 67.8757L102.825 68.7954L103.845 68.7251L104.84 68.4409L105.67 66.9816L106.721 67.1764L107.824 66.7709L108.682 67.8917L109.179 69.2712L110.261 69.6001L110.636 70.9317L111.592 71.4043L112.648 71.6693L113.52 72.2218L114.275 72.9786L114.676 74.4602L115.676 74.7668L116.139 76.2133L117.069 76.6731L117.917 77.3214L119.141 77.0468L119.75 78.2698L121.004 77.8483L121.793 78.621L122.407 79.9207L123.654 79.4034L124.194 81L125.577 80.9202L125.127 79.4513L124.538 78.4965L124.322 77.2671L123.947 76.159L122.61 75.7184L122.189 74.6295L121.356 73.812L121.616 72.2888L120.485 71.6342L121.233 69.8683L120.531 68.9551L119.827 68.0194L119.93 66.6655L119.909 65.4201L119.305 64.3089L119.593 63.5361L119.796 62.1598L120.873 62.1471L122.073 62.4281L122.688 61.0805L123.397 60.0555L124.194 59.2891L125.397 59.4551L126.294 59.4072L126.988 59.899L128.268 59.2061L128.92 60.576L129.91 60.8059L130.884 61.0709L131.742 61.8277L132.979 60.8857L133.781 61.9363L134.829 61.7543L135.698 62.5686L136.585 63.3764L137.636 63.121L138.728 62.3929L139.633 63.1849L140.589 63.6415L141.617 63.2711L142.635 62.8336L143.594 63.3094L144.55 64.0375L145.539 64.2067L146.532 64.5963L147.531 64.0279L148.531 64.443L149.51 63.7022L150.497 63.6032L151.466 63.1944L152.489 63.7213L153.52 64.1524L154.515 64.0215L155.491 63.7373L156.445 63.2551L157.465 63.3637L158.406 62.8559L159.424 62.8815L160.4 62.626L161.184 61.3775L162.218 61.4605L163.071 60.6941L164.073 60.5983L164.909 59.8351L166.132 60.4866L166.759 59.0368L168.088 59.883L168.862 58.9698L169.877 58.7558L170.442 57.3572L171.493 57.2294L172.265 56.4152L173.491 56.5876L174.084 55.4189L175.061 55.0101L175.341 53.3624L176.762 53.6881L177.179 52.3533L178.263 52.0308L178.813 50.9387L179.788 50.3927L180.569 49.5784L181.294 48.6811L181.764 47.5379L182.116 46.3181L182.473 45.1398L182.527 43.7986L182.805 42.6459L184.327 42.0647L184.501 40.7938L184.838 39.5835L184.869 38.2967L184.671 37.0098L184.157 35.7708L183.882 34.5957L185 33.2162L184.406 32.0666L184.152 30.8628L184.016 29.6078L183.209 28.6722L182.931 27.4843L182.08 26.6732L181.399 25.7919L180.996 24.687L181.098 23.0425L179.736 22.8637L179.731 21.2032L178.502 20.9924L177.713 20.2708L176.973 19.4852L176.59 18.1185L175.847 17.2883L174.686 17.2116L174.205 15.88L173.457 15.0179L172.234 15.1871L171.555 14.1589L170.321 14.4846L169.992 12.4728L168.761 12.8624L168.106 11.6011L167.142 11.237L165.906 11.8565L165.009 11.3297L164.091 10.873L163.243 10.1034L162.179 10.2663L161.454 8.78783L160.434 8.74951L159.408 8.77186L158.403 8.71119L157.355 9.02093L156.381 8.82934L155.432 8.38228L154.432 8.4206L153.492 7.77876L152.479 8.00229L151.492 7.90649L150.531 7.10179L149.536 6.96129L148.529 7.41473L147.531 8.02145Z"/>
</mask>
<path d="M147.531 8.02145L146.542 6.89104L145.586 8.26733L144.555 6.84952L143.622 8.01187L142.612 7.57439L141.666 8.13002L140.7 8.35354L139.71 8.30884L138.759 8.6569L137.651 7.78195L136.721 8.31842L135.695 8.21623L134.996 9.99807L133.835 9.16463L132.927 9.70429L132.151 10.7804L130.941 9.98849L129.951 10.1897L129.36 11.8278L128.072 10.988L127.214 11.6522L126.63 13.0955L125.546 13.2392L125.163 11.7256L123.718 12.013L123.541 10.1961L122.649 9.57656L121.539 9.42009L120.739 8.65371L119.776 8.24497L119.076 7.22313L117.82 7.57439L116.845 7.27423L115.974 6.69305L115.373 5.25928L114.35 5.09324L113.296 5.06769L112.468 4.24702L111.422 4.23744L110.487 3.80955L109.513 3.54451L108.539 3.28905L107.626 2.70788L106.765 1.79461L105.616 2.56099L104.768 1.45293L103.671 2.04049L102.794 0.973942L101.82 0.597138L100.689 1.80738L99.8024 0.488567L98.746 1.14638L97.813 0L96.7798 0.504534L95.7594 0.993101L94.7853 0.0223528L93.7778 0.0670583L92.7702 0.906883L91.7833 1.28688L90.7886 0.948396L89.7939 0.804699L88.7684 0.143696L87.8406 1.4657L86.8253 1.11764L85.7869 0.606718L84.8411 1.2773L83.7745 0.667389L82.7592 0.661003L81.9548 2.26401L80.8547 1.60621L80.0322 2.82603L78.8962 2.08839L77.8321 1.88721L76.8477 2.14267L76.0381 3.2188L74.9715 3.08468L74.1439 3.96602L73.0721 3.87661L72.1751 4.45778L71.2241 4.84416L70.3168 5.36785L69.2656 5.46685L68.5793 6.61322L67.5178 6.71221L66.8162 7.74683L65.9757 8.40464L64.8834 8.50363L64.03 9.15186L63.4183 10.2599L62.5187 11.087L61.5292 10.4036L60.46 10.774L59.6324 9.91504L58.7585 9.25404L57.769 9.24765L56.7332 9.59891L55.8208 9.1327L54.9931 7.93523L53.8494 9.33387L53.0552 7.64145L52.0117 8.31203L51.0093 8.68245L50.0737 8.25455L49.1408 7.68935L48.1821 7.41473H47.2105L46.2441 7.15927L45.2546 7.97035L44.2856 8.45892L43.3243 7.89691L42.3245 7.39238L41.3247 7.43069L40.3403 7.97035L39.3431 7.948L38.3818 8.64413L37.346 7.92884L36.4027 8.71758L35.3104 7.568L34.38 8.41102L33.357 8.2322L32.3238 8.05338L31.4268 8.96665L30.319 8.28329L29.5325 9.83841L28.5276 9.87034L27.5586 10.1386L26.4431 9.64362L25.6952 11.0423L24.6363 10.8794L23.7136 11.3584L22.6546 11.2754L21.9016 12.4026L20.5573 11.3233L19.7683 12.2908L19.064 13.4659L18.0205 13.5394L17.2135 14.3313L15.9926 13.9737L14.9337 14.1237L14.4942 15.8066L13.4018 15.8896L12.7978 17.0711L11.7826 17.3617L10.9678 18.0706L10.1248 18.7316L9.27664 19.383L8.73947 20.5262L7.74222 20.9605L6.98915 21.7684L6.07415 22.3847L5.44958 23.3746L4.67081 24.1953L4.67852 25.76L3.57332 26.3092L2.93077 27.2959L2.35761 28.3561L2.11344 29.611L1.80501 30.8117L2.02605 32.172L0.943989 33.1811L0.84375 34.4743L1.66108 35.7708L1.73305 36.9778L1.92838 38.1625L1.37836 39.5644L1.8924 40.6948L2.18026 41.8986L2.26765 43.243L2.94362 44.2393L3.23148 45.5134L4.48832 45.9573L4.65025 47.3751L5.74773 47.8445L6.65759 48.4512L7.07653 49.6678L7.69082 50.6673L8.73947 51.0281L9.25094 52.2128L10.2045 52.6823L10.7005 53.9819L11.7518 54.2501L12.5434 55.0197L13.4018 55.6584L14.0701 56.7568L15.3192 56.4407L15.9926 57.5679L17.2032 57.2358L18.1799 57.5168L19.0281 58.1874L19.9096 58.7718L20.8349 59.2156L21.5135 60.6111L22.6521 60.2694L23.4694 61.221L24.7082 60.3173L25.4305 61.7766L26.4714 61.7351L27.3659 62.4568L28.5173 61.7096L29.3038 63.1785L30.3345 63.1114L31.3368 63.2359L32.3007 63.6606L33.3982 62.8591L34.2977 63.9449L35.2976 64.0758L36.395 62.8528L37.3512 63.4531L38.297 64.4685L39.3354 63.7373L40.33 63.8874L41.317 64.4685L42.3271 63.8459L43.3243 63.4691L44.3319 64.4813L45.342 64.5675L46.3161 63.4212L47.357 64.4366L48.2977 63.1146L49.2795 62.8208L50.3462 63.7916L51.3332 63.5074L52.3972 64.0885L53.3688 63.6351L54.2632 62.5781L55.2193 62.1758L56.2654 62.4281L57.2421 62.163L58.2496 62.1055H59.3291L60.0488 63.2296L61.1437 63.1433L61.8556 64.3823L63.0534 63.865L63.9221 64.5643L64.7266 65.5798L65.8755 65.1295L66.7776 65.749L67.8057 65.7842L68.8209 65.8512L69.5971 67.2179L70.5867 67.4702L71.661 67.1924L72.6608 67.3393L73.7069 67.1317L74.6322 67.8119L75.7143 67.2467L76.6781 67.6426L77.5802 68.6613L78.5544 69.1051L79.6595 68.0258L80.6516 68.1536L81.6283 68.5367L82.5716 69.6129L83.5997 69.2808L84.6381 68.5367L85.6173 69.1275L86.6403 68.3579L87.6298 68.9806L88.6245 70.044L89.6346 68.492L90.6472 69.2361L91.6599 69.3191L92.6623 68.8241L93.657 68.3388L94.7262 69.8875L95.6926 68.7922L96.7078 68.8082L97.6973 68.4473L98.674 67.9715L99.6944 68.0865L100.681 67.7831L101.704 67.8757L102.825 68.7954L103.845 68.7251L104.84 68.4409L105.67 66.9816L106.721 67.1764L107.824 66.7709L108.682 67.8917L109.179 69.2712L110.261 69.6001L110.636 70.9317L111.592 71.4043L112.648 71.6693L113.52 72.2218L114.275 72.9786L114.676 74.4602L115.676 74.7668L116.139 76.2133L117.069 76.6731L117.917 77.3214L119.141 77.0468L119.75 78.2698L121.004 77.8483L121.793 78.621L122.407 79.9207L123.654 79.4034L124.194 81L125.577 80.9202L125.127 79.4513L124.538 78.4965L124.322 77.2671L123.947 76.159L122.61 75.7184L122.189 74.6295L121.356 73.812L121.616 72.2888L120.485 71.6342L121.233 69.8683L120.531 68.9551L119.827 68.0194L119.93 66.6655L119.909 65.4201L119.305 64.3089L119.593 63.5361L119.796 62.1598L120.873 62.1471L122.073 62.4281L122.688 61.0805L123.397 60.0555L124.194 59.2891L125.397 59.4551L126.294 59.4072L126.988 59.899L128.268 59.2061L128.92 60.576L129.91 60.8059L130.884 61.0709L131.742 61.8277L132.979 60.8857L133.781 61.9363L134.829 61.7543L135.698 62.5686L136.585 63.3764L137.636 63.121L138.728 62.3929L139.633 63.1849L140.589 63.6415L141.617 63.2711L142.635 62.8336L143.594 63.3094L144.55 64.0375L145.539 64.2067L146.532 64.5963L147.531 64.0279L148.531 64.443L149.51 63.7022L150.497 63.6032L151.466 63.1944L152.489 63.7213L153.52 64.1524L154.515 64.0215L155.491 63.7373L156.445 63.2551L157.465 63.3637L158.406 62.8559L159.424 62.8815L160.4 62.626L161.184 61.3775L162.218 61.4605L163.071 60.6941L164.073 60.5983L164.909 59.8351L166.132 60.4866L166.759 59.0368L168.088 59.883L168.862 58.9698L169.877 58.7558L170.442 57.3572L171.493 57.2294L172.265 56.4152L173.491 56.5876L174.084 55.4189L175.061 55.0101L175.341 53.3624L176.762 53.6881L177.179 52.3533L178.263 52.0308L178.813 50.9387L179.788 50.3927L180.569 49.5784L181.294 48.6811L181.764 47.5379L182.116 46.3181L182.473 45.1398L182.527 43.7986L182.805 42.6459L184.327 42.0647L184.501 40.7938L184.838 39.5835L184.869 38.2967L184.671 37.0098L184.157 35.7708L183.882 34.5957L185 33.2162L184.406 32.0666L184.152 30.8628L184.016 29.6078L183.209 28.6722L182.931 27.4843L182.08 26.6732L181.399 25.7919L180.996 24.687L181.098 23.0425L179.736 22.8637L179.731 21.2032L178.502 20.9924L177.713 20.2708L176.973 19.4852L176.59 18.1185L175.847 17.2883L174.686 17.2116L174.205 15.88L173.457 15.0179L172.234 15.1871L171.555 14.1589L170.321 14.4846L169.992 12.4728L168.761 12.8624L168.106 11.6011L167.142 11.237L165.906 11.8565L165.009 11.3297L164.091 10.873L163.243 10.1034L162.179 10.2663L161.454 8.78783L160.434 8.74951L159.408 8.77186L158.403 8.71119L157.355 9.02093L156.381 8.82934L155.432 8.38228L154.432 8.4206L153.492 7.77876L152.479 8.00229L151.492 7.90649L150.531 7.10179L149.536 6.96129L148.529 7.41473L147.531 8.02145Z" fill="#231815" stroke="#D28E4A" stroke-width="2" mask="url(#path-3-inside-3_0_22974)"/>
<mask id="path-4-inside-4_0_22974" fill="white">
<path d="M147.531 8.02145L146.542 6.89104L145.586 8.26733L144.555 6.84952L143.622 8.01187L142.612 7.57439L141.666 8.13002L140.7 8.35354L139.71 8.30884L138.759 8.6569L137.651 7.78195L136.721 8.31842L135.695 8.21623L134.996 9.99807L133.835 9.16463L132.927 9.70429L132.151 10.7804L130.941 9.98849L129.951 10.1897L129.36 11.8278L128.072 10.988L127.214 11.6522L126.63 13.0955L125.546 13.2392L125.163 11.7256L123.718 12.013L123.541 10.1961L122.649 9.57656L121.539 9.42009L120.739 8.65371L119.776 8.24497L119.076 7.22313L117.82 7.57439L116.845 7.27423L115.974 6.69305L115.373 5.25928L114.35 5.09324L113.296 5.06769L112.468 4.24702L111.422 4.23744L110.487 3.80955L109.513 3.54451L108.539 3.28905L107.626 2.70788L106.765 1.79461L105.616 2.56099L104.768 1.45293L103.671 2.04049L102.794 0.973942L101.82 0.597138L100.689 1.80738L99.8024 0.488567L98.746 1.14638L97.813 0L96.7798 0.504534L95.7594 0.993101L94.7853 0.0223528L93.7778 0.0670583L92.7702 0.906883L91.7833 1.28688L90.7886 0.948396L89.7939 0.804699L88.7684 0.143696L87.8406 1.4657L86.8253 1.11764L85.7869 0.606718L84.8411 1.2773L83.7745 0.667389L82.7592 0.661003L81.9548 2.26401L80.8547 1.60621L80.0322 2.82603L78.8962 2.08839L77.8321 1.88721L76.8477 2.14267L76.0381 3.2188L74.9715 3.08468L74.1439 3.96602L73.0721 3.87661L72.1751 4.45778L71.2241 4.84416L70.3168 5.36785L69.2656 5.46685L68.5793 6.61322L67.5178 6.71221L66.8162 7.74683L65.9757 8.40464L64.8834 8.50363L64.03 9.15186L63.4183 10.2599L62.5187 11.087L61.5292 10.4036L60.46 10.774L59.6324 9.91504L58.7585 9.25404L57.769 9.24765L56.7332 9.59891L55.8208 9.1327L54.9931 7.93523L53.8494 9.33387L53.0552 7.64145L52.0117 8.31203L51.0093 8.68245L50.0737 8.25455L49.1408 7.68935L48.1821 7.41473H47.2105L46.2441 7.15927L45.2546 7.97035L44.2856 8.45892L43.3243 7.89691L42.3245 7.39238L41.3247 7.43069L40.3403 7.97035L39.3431 7.948L38.3818 8.64413L37.346 7.92884L36.4027 8.71758L35.3104 7.568L34.38 8.41102L33.357 8.2322L32.3238 8.05338L31.4268 8.96665L30.319 8.28329L29.5325 9.83841L28.5276 9.87034L27.5586 10.1386L26.4431 9.64362L25.6952 11.0423L24.6363 10.8794L23.7136 11.3584L22.6546 11.2754L21.9016 12.4026L20.5573 11.3233L19.7683 12.2908L19.064 13.4659L18.0205 13.5394L17.2135 14.3313L15.9926 13.9737L14.9337 14.1237L14.4942 15.8066L13.4018 15.8896L12.7978 17.0711L11.7826 17.3617L10.9678 18.0706L10.1248 18.7316L9.27664 19.383L8.73947 20.5262L7.74222 20.9605L6.98915 21.7684L6.07415 22.3847L5.44958 23.3746L4.67081 24.1953L4.67852 25.76L3.57332 26.3092L2.93077 27.2959L2.35761 28.3561L2.11344 29.611L1.80501 30.8117L2.02605 32.172L0.943989 33.1811L0.84375 34.4743L1.66108 35.7708L1.73305 36.9778L1.92838 38.1625L1.37836 39.5644L1.8924 40.6948L2.18026 41.8986L2.26765 43.243L2.94362 44.2393L3.23148 45.5134L4.48832 45.9573L4.65025 47.3751L5.74773 47.8445L6.65759 48.4512L7.07653 49.6678L7.69082 50.6673L8.73947 51.0281L9.25094 52.2128L10.2045 52.6823L10.7005 53.9819L11.7518 54.2501L12.5434 55.0197L13.4018 55.6584L14.0701 56.7568L15.3192 56.4407L15.9926 57.5679L17.2032 57.2358L18.1799 57.5168L19.0281 58.1874L19.9096 58.7718L20.8349 59.2156L21.5135 60.6111L22.6521 60.2694L23.4694 61.221L24.7082 60.3173L25.4305 61.7766L26.4714 61.7351L27.3659 62.4568L28.5173 61.7096L29.3038 63.1785L30.3345 63.1114L31.3368 63.2359L32.3007 63.6606L33.3982 62.8591L34.2977 63.9449L35.2976 64.0758L36.395 62.8528L37.3512 63.4531L38.297 64.4685L39.3354 63.7373L40.33 63.8874L41.317 64.4685L42.3271 63.8459L43.3243 63.4691L44.3319 64.4813L45.342 64.5675L46.3161 63.4212L47.357 64.4366L48.2977 63.1146L49.2795 62.8208L50.3462 63.7916L51.3332 63.5074L52.3972 64.0885L53.3688 63.6351L54.2632 62.5781L55.2193 62.1758L56.2654 62.4281L57.2421 62.163L58.2496 62.1055H59.3291L60.0488 63.2296L61.1437 63.1433L61.8556 64.3823L63.0534 63.865L63.9221 64.5643L64.7266 65.5798L65.8755 65.1295L66.7776 65.749L67.8057 65.7842L68.8209 65.8512L69.5971 67.2179L70.5867 67.4702L71.661 67.1924L72.6608 67.3393L73.7069 67.1317L74.6322 67.8119L75.7143 67.2467L76.6781 67.6426L77.5802 68.6613L78.5544 69.1051L79.6595 68.0258L80.6516 68.1536L81.6283 68.5367L82.5716 69.6129L83.5997 69.2808L84.6381 68.5367L85.6173 69.1275L86.6403 68.3579L87.6298 68.9806L88.6245 70.044L89.6346 68.492L90.6472 69.2361L91.6599 69.3191L92.6623 68.8241L93.657 68.3388L94.7262 69.8875L95.6926 68.7922L96.7078 68.8082L97.6973 68.4473L98.674 67.9715L99.6944 68.0865L100.681 67.7831L101.704 67.8757L102.825 68.7954L103.845 68.7251L104.84 68.4409L105.67 66.9816L106.721 67.1764L107.824 66.7709L108.682 67.8917L109.179 69.2712L110.261 69.6001L110.636 70.9317L111.592 71.4043L112.648 71.6693L113.52 72.2218L114.275 72.9786L114.676 74.4602L115.676 74.7668L116.139 76.2133L117.069 76.6731L117.917 77.3214L119.141 77.0468L119.75 78.2698L121.004 77.8483L121.793 78.621L122.407 79.9207L123.654 79.4034L124.194 81L125.577 80.9202L125.127 79.4513L124.538 78.4965L124.322 77.2671L123.947 76.159L122.61 75.7184L122.189 74.6295L121.356 73.812L121.616 72.2888L120.485 71.6342L121.233 69.8683L120.531 68.9551L119.827 68.0194L119.93 66.6655L119.909 65.4201L119.305 64.3089L119.593 63.5361L119.796 62.1598L120.873 62.1471L122.073 62.4281L122.688 61.0805L123.397 60.0555L124.194 59.2891L125.397 59.4551L126.294 59.4072L126.988 59.899L128.268 59.2061L128.92 60.576L129.91 60.8059L130.884 61.0709L131.742 61.8277L132.979 60.8857L133.781 61.9363L134.829 61.7543L135.698 62.5686L136.585 63.3764L137.636 63.121L138.728 62.3929L139.633 63.1849L140.589 63.6415L141.617 63.2711L142.635 62.8336L143.594 63.3094L144.55 64.0375L145.539 64.2067L146.532 64.5963L147.531 64.0279L148.531 64.443L149.51 63.7022L150.497 63.6032L151.466 63.1944L152.489 63.7213L153.52 64.1524L154.515 64.0215L155.491 63.7373L156.445 63.2551L157.465 63.3637L158.406 62.8559L159.424 62.8815L160.4 62.626L161.184 61.3775L162.218 61.4605L163.071 60.6941L164.073 60.5983L164.909 59.8351L166.132 60.4866L166.759 59.0368L168.088 59.883L168.862 58.9698L169.877 58.7558L170.442 57.3572L171.493 57.2294L172.265 56.4152L173.491 56.5876L174.084 55.4189L175.061 55.0101L175.341 53.3624L176.762 53.6881L177.179 52.3533L178.263 52.0308L178.813 50.9387L179.788 50.3927L180.569 49.5784L181.294 48.6811L181.764 47.5379L182.116 46.3181L182.473 45.1398L182.527 43.7986L182.805 42.6459L184.327 42.0647L184.501 40.7938L184.838 39.5835L184.869 38.2967L184.671 37.0098L184.157 35.7708L183.882 34.5957L185 33.2162L184.406 32.0666L184.152 30.8628L184.016 29.6078L183.209 28.6722L182.931 27.4843L182.08 26.6732L181.399 25.7919L180.996 24.687L181.098 23.0425L179.736 22.8637L179.731 21.2032L178.502 20.9924L177.713 20.2708L176.973 19.4852L176.59 18.1185L175.847 17.2883L174.686 17.2116L174.205 15.88L173.457 15.0179L172.234 15.1871L171.555 14.1589L170.321 14.4846L169.992 12.4728L168.761 12.8624L168.106 11.6011L167.142 11.237L165.906 11.8565L165.009 11.3297L164.091 10.873L163.243 10.1034L162.179 10.2663L161.454 8.78783L160.434 8.74951L159.408 8.77186L158.403 8.71119L157.355 9.02093L156.381 8.82934L155.432 8.38228L154.432 8.4206L153.492 7.77876L152.479 8.00229L151.492 7.90649L150.531 7.10179L149.536 6.96129L148.529 7.41473L147.531 8.02145Z"/>
</mask>
<path d="M147.531 8.02145L146.542 6.89104L145.586 8.26733L144.555 6.84952L143.622 8.01187L142.612 7.57439L141.666 8.13002L140.7 8.35354L139.71 8.30884L138.759 8.6569L137.651 7.78195L136.721 8.31842L135.695 8.21623L134.996 9.99807L133.835 9.16463L132.927 9.70429L132.151 10.7804L130.941 9.98849L129.951 10.1897L129.36 11.8278L128.072 10.988L127.214 11.6522L126.63 13.0955L125.546 13.2392L125.163 11.7256L123.718 12.013L123.541 10.1961L122.649 9.57656L121.539 9.42009L120.739 8.65371L119.776 8.24497L119.076 7.22313L117.82 7.57439L116.845 7.27423L115.974 6.69305L115.373 5.25928L114.35 5.09324L113.296 5.06769L112.468 4.24702L111.422 4.23744L110.487 3.80955L109.513 3.54451L108.539 3.28905L107.626 2.70788L106.765 1.79461L105.616 2.56099L104.768 1.45293L103.671 2.04049L102.794 0.973942L101.82 0.597138L100.689 1.80738L99.8024 0.488567L98.746 1.14638L97.813 0L96.7798 0.504534L95.7594 0.993101L94.7853 0.0223528L93.7778 0.0670583L92.7702 0.906883L91.7833 1.28688L90.7886 0.948396L89.7939 0.804699L88.7684 0.143696L87.8406 1.4657L86.8253 1.11764L85.7869 0.606718L84.8411 1.2773L83.7745 0.667389L82.7592 0.661003L81.9548 2.26401L80.8547 1.60621L80.0322 2.82603L78.8962 2.08839L77.8321 1.88721L76.8477 2.14267L76.0381 3.2188L74.9715 3.08468L74.1439 3.96602L73.0721 3.87661L72.1751 4.45778L71.2241 4.84416L70.3168 5.36785L69.2656 5.46685L68.5793 6.61322L67.5178 6.71221L66.8162 7.74683L65.9757 8.40464L64.8834 8.50363L64.03 9.15186L63.4183 10.2599L62.5187 11.087L61.5292 10.4036L60.46 10.774L59.6324 9.91504L58.7585 9.25404L57.769 9.24765L56.7332 9.59891L55.8208 9.1327L54.9931 7.93523L53.8494 9.33387L53.0552 7.64145L52.0117 8.31203L51.0093 8.68245L50.0737 8.25455L49.1408 7.68935L48.1821 7.41473H47.2105L46.2441 7.15927L45.2546 7.97035L44.2856 8.45892L43.3243 7.89691L42.3245 7.39238L41.3247 7.43069L40.3403 7.97035L39.3431 7.948L38.3818 8.64413L37.346 7.92884L36.4027 8.71758L35.3104 7.568L34.38 8.41102L33.357 8.2322L32.3238 8.05338L31.4268 8.96665L30.319 8.28329L29.5325 9.83841L28.5276 9.87034L27.5586 10.1386L26.4431 9.64362L25.6952 11.0423L24.6363 10.8794L23.7136 11.3584L22.6546 11.2754L21.9016 12.4026L20.5573 11.3233L19.7683 12.2908L19.064 13.4659L18.0205 13.5394L17.2135 14.3313L15.9926 13.9737L14.9337 14.1237L14.4942 15.8066L13.4018 15.8896L12.7978 17.0711L11.7826 17.3617L10.9678 18.0706L10.1248 18.7316L9.27664 19.383L8.73947 20.5262L7.74222 20.9605L6.98915 21.7684L6.07415 22.3847L5.44958 23.3746L4.67081 24.1953L4.67852 25.76L3.57332 26.3092L2.93077 27.2959L2.35761 28.3561L2.11344 29.611L1.80501 30.8117L2.02605 32.172L0.943989 33.1811L0.84375 34.4743L1.66108 35.7708L1.73305 36.9778L1.92838 38.1625L1.37836 39.5644L1.8924 40.6948L2.18026 41.8986L2.26765 43.243L2.94362 44.2393L3.23148 45.5134L4.48832 45.9573L4.65025 47.3751L5.74773 47.8445L6.65759 48.4512L7.07653 49.6678L7.69082 50.6673L8.73947 51.0281L9.25094 52.2128L10.2045 52.6823L10.7005 53.9819L11.7518 54.2501L12.5434 55.0197L13.4018 55.6584L14.0701 56.7568L15.3192 56.4407L15.9926 57.5679L17.2032 57.2358L18.1799 57.5168L19.0281 58.1874L19.9096 58.7718L20.8349 59.2156L21.5135 60.6111L22.6521 60.2694L23.4694 61.221L24.7082 60.3173L25.4305 61.7766L26.4714 61.7351L27.3659 62.4568L28.5173 61.7096L29.3038 63.1785L30.3345 63.1114L31.3368 63.2359L32.3007 63.6606L33.3982 62.8591L34.2977 63.9449L35.2976 64.0758L36.395 62.8528L37.3512 63.4531L38.297 64.4685L39.3354 63.7373L40.33 63.8874L41.317 64.4685L42.3271 63.8459L43.3243 63.4691L44.3319 64.4813L45.342 64.5675L46.3161 63.4212L47.357 64.4366L48.2977 63.1146L49.2795 62.8208L50.3462 63.7916L51.3332 63.5074L52.3972 64.0885L53.3688 63.6351L54.2632 62.5781L55.2193 62.1758L56.2654 62.4281L57.2421 62.163L58.2496 62.1055H59.3291L60.0488 63.2296L61.1437 63.1433L61.8556 64.3823L63.0534 63.865L63.9221 64.5643L64.7266 65.5798L65.8755 65.1295L66.7776 65.749L67.8057 65.7842L68.8209 65.8512L69.5971 67.2179L70.5867 67.4702L71.661 67.1924L72.6608 67.3393L73.7069 67.1317L74.6322 67.8119L75.7143 67.2467L76.6781 67.6426L77.5802 68.6613L78.5544 69.1051L79.6595 68.0258L80.6516 68.1536L81.6283 68.5367L82.5716 69.6129L83.5997 69.2808L84.6381 68.5367L85.6173 69.1275L86.6403 68.3579L87.6298 68.9806L88.6245 70.044L89.6346 68.492L90.6472 69.2361L91.6599 69.3191L92.6623 68.8241L93.657 68.3388L94.7262 69.8875L95.6926 68.7922L96.7078 68.8082L97.6973 68.4473L98.674 67.9715L99.6944 68.0865L100.681 67.7831L101.704 67.8757L102.825 68.7954L103.845 68.7251L104.84 68.4409L105.67 66.9816L106.721 67.1764L107.824 66.7709L108.682 67.8917L109.179 69.2712L110.261 69.6001L110.636 70.9317L111.592 71.4043L112.648 71.6693L113.52 72.2218L114.275 72.9786L114.676 74.4602L115.676 74.7668L116.139 76.2133L117.069 76.6731L117.917 77.3214L119.141 77.0468L119.75 78.2698L121.004 77.8483L121.793 78.621L122.407 79.9207L123.654 79.4034L124.194 81L125.577 80.9202L125.127 79.4513L124.538 78.4965L124.322 77.2671L123.947 76.159L122.61 75.7184L122.189 74.6295L121.356 73.812L121.616 72.2888L120.485 71.6342L121.233 69.8683L120.531 68.9551L119.827 68.0194L119.93 66.6655L119.909 65.4201L119.305 64.3089L119.593 63.5361L119.796 62.1598L120.873 62.1471L122.073 62.4281L122.688 61.0805L123.397 60.0555L124.194 59.2891L125.397 59.4551L126.294 59.4072L126.988 59.899L128.268 59.2061L128.92 60.576L129.91 60.8059L130.884 61.0709L131.742 61.8277L132.979 60.8857L133.781 61.9363L134.829 61.7543L135.698 62.5686L136.585 63.3764L137.636 63.121L138.728 62.3929L139.633 63.1849L140.589 63.6415L141.617 63.2711L142.635 62.8336L143.594 63.3094L144.55 64.0375L145.539 64.2067L146.532 64.5963L147.531 64.0279L148.531 64.443L149.51 63.7022L150.497 63.6032L151.466 63.1944L152.489 63.7213L153.52 64.1524L154.515 64.0215L155.491 63.7373L156.445 63.2551L157.465 63.3637L158.406 62.8559L159.424 62.8815L160.4 62.626L161.184 61.3775L162.218 61.4605L163.071 60.6941L164.073 60.5983L164.909 59.8351L166.132 60.4866L166.759 59.0368L168.088 59.883L168.862 58.9698L169.877 58.7558L170.442 57.3572L171.493 57.2294L172.265 56.4152L173.491 56.5876L174.084 55.4189L175.061 55.0101L175.341 53.3624L176.762 53.6881L177.179 52.3533L178.263 52.0308L178.813 50.9387L179.788 50.3927L180.569 49.5784L181.294 48.6811L181.764 47.5379L182.116 46.3181L182.473 45.1398L182.527 43.7986L182.805 42.6459L184.327 42.0647L184.501 40.7938L184.838 39.5835L184.869 38.2967L184.671 37.0098L184.157 35.7708L183.882 34.5957L185 33.2162L184.406 32.0666L184.152 30.8628L184.016 29.6078L183.209 28.6722L182.931 27.4843L182.08 26.6732L181.399 25.7919L180.996 24.687L181.098 23.0425L179.736 22.8637L179.731 21.2032L178.502 20.9924L177.713 20.2708L176.973 19.4852L176.59 18.1185L175.847 17.2883L174.686 17.2116L174.205 15.88L173.457 15.0179L172.234 15.1871L171.555 14.1589L170.321 14.4846L169.992 12.4728L168.761 12.8624L168.106 11.6011L167.142 11.237L165.906 11.8565L165.009 11.3297L164.091 10.873L163.243 10.1034L162.179 10.2663L161.454 8.78783L160.434 8.74951L159.408 8.77186L158.403 8.71119L157.355 9.02093L156.381 8.82934L155.432 8.38228L154.432 8.4206L153.492 7.77876L152.479 8.00229L151.492 7.90649L150.531 7.10179L149.536 6.96129L148.529 7.41473L147.531 8.02145Z" fill="#231815" stroke="#D28E4A" stroke-width="2" mask="url(#path-4-inside-4_0_22974)"/>
</g>
<g style="mix-blend-mode:overlay" opacity="0.6">
<mask id="path-5-inside-5_0_22974" fill="white">
<path d="M147.531 8.02145L146.542 6.89104L145.586 8.26733L144.555 6.84952L143.622 8.01187L142.612 7.57439L141.666 8.13002L140.7 8.35354L139.71 8.30884L138.759 8.6569L137.651 7.78195L136.721 8.31842L135.695 8.21623L134.996 9.99807L133.835 9.16463L132.927 9.70429L132.151 10.7804L130.941 9.98849L129.951 10.1897L129.36 11.8278L128.072 10.988L127.214 11.6522L126.63 13.0955L125.546 13.2392L125.163 11.7256L123.718 12.013L123.541 10.1961L122.649 9.57656L121.539 9.42009L120.739 8.65371L119.776 8.24497L119.076 7.22313L117.82 7.57439L116.845 7.27423L115.974 6.69305L115.373 5.25928L114.35 5.09324L113.296 5.06769L112.468 4.24702L111.422 4.23744L110.487 3.80955L109.513 3.54451L108.539 3.28905L107.626 2.70788L106.765 1.79461L105.616 2.56099L104.768 1.45293L103.671 2.04049L102.794 0.973942L101.82 0.597138L100.689 1.80738L99.8024 0.488567L98.746 1.14638L97.813 0L96.7798 0.504534L95.7594 0.993101L94.7853 0.0223528L93.7778 0.0670583L92.7702 0.906883L91.7833 1.28688L90.7886 0.948396L89.7939 0.804699L88.7684 0.143696L87.8406 1.4657L86.8253 1.11764L85.7869 0.606718L84.8411 1.2773L83.7745 0.667389L82.7592 0.661003L81.9548 2.26401L80.8547 1.60621L80.0322 2.82603L78.8962 2.08839L77.8321 1.88721L76.8477 2.14267L76.0381 3.2188L74.9715 3.08468L74.1439 3.96602L73.0721 3.87661L72.1751 4.45778L71.2241 4.84416L70.3168 5.36785L69.2656 5.46685L68.5793 6.61322L67.5178 6.71221L66.8162 7.74683L65.9757 8.40464L64.8834 8.50363L64.03 9.15186L63.4183 10.2599L62.5187 11.087L61.5292 10.4036L60.46 10.774L59.6324 9.91504L58.7585 9.25404L57.769 9.24765L56.7332 9.59891L55.8208 9.1327L54.9931 7.93523L53.8494 9.33387L53.0552 7.64145L52.0117 8.31203L51.0093 8.68245L50.0737 8.25455L49.1408 7.68935L48.1821 7.41473H47.2105L46.2441 7.15927L45.2546 7.97035L44.2856 8.45892L43.3243 7.89691L42.3245 7.39238L41.3247 7.43069L40.3403 7.97035L39.3431 7.948L38.3818 8.64413L37.346 7.92884L36.4027 8.71758L35.3104 7.568L34.38 8.41102L33.357 8.2322L32.3238 8.05338L31.4268 8.96665L30.319 8.28329L29.5325 9.83841L28.5276 9.87034L27.5586 10.1386L26.4431 9.64362L25.6952 11.0423L24.6363 10.8794L23.7136 11.3584L22.6546 11.2754L21.9016 12.4026L20.5573 11.3233L19.7683 12.2908L19.064 13.4659L18.0205 13.5394L17.2135 14.3313L15.9926 13.9737L14.9337 14.1237L14.4942 15.8066L13.4018 15.8896L12.7978 17.0711L11.7826 17.3617L10.9678 18.0706L10.1248 18.7316L9.27664 19.383L8.73947 20.5262L7.74222 20.9605L6.98915 21.7684L6.07415 22.3847L5.44958 23.3746L4.67081 24.1953L4.67852 25.76L3.57332 26.3092L2.93077 27.2959L2.35761 28.3561L2.11344 29.611L1.80501 30.8117L2.02605 32.172L0.943989 33.1811L0.84375 34.4743L1.66108 35.7708L1.73305 36.9778L1.92838 38.1625L1.37836 39.5644L1.8924 40.6948L2.18026 41.8986L2.26765 43.243L2.94362 44.2393L3.23148 45.5134L4.48832 45.9573L4.65025 47.3751L5.74773 47.8445L6.65759 48.4512L7.07653 49.6678L7.69082 50.6673L8.73947 51.0281L9.25094 52.2128L10.2045 52.6823L10.7005 53.9819L11.7518 54.2501L12.5434 55.0197L13.4018 55.6584L14.0701 56.7568L15.3192 56.4407L15.9926 57.5679L17.2032 57.2358L18.1799 57.5168L19.0281 58.1874L19.9096 58.7718L20.8349 59.2156L21.5135 60.6111L22.6521 60.2694L23.4694 61.221L24.7082 60.3173L25.4305 61.7766L26.4714 61.7351L27.3659 62.4568L28.5173 61.7096L29.3038 63.1785L30.3345 63.1114L31.3368 63.2359L32.3007 63.6606L33.3982 62.8591L34.2977 63.9449L35.2976 64.0758L36.395 62.8528L37.3512 63.4531L38.297 64.4685L39.3354 63.7373L40.33 63.8874L41.317 64.4685L42.3271 63.8459L43.3243 63.4691L44.3319 64.4813L45.342 64.5675L46.3161 63.4212L47.357 64.4366L48.2977 63.1146L49.2795 62.8208L50.3462 63.7916L51.3332 63.5074L52.3972 64.0885L53.3688 63.6351L54.2632 62.5781L55.2193 62.1758L56.2654 62.4281L57.2421 62.163L58.2496 62.1055H59.3291L60.0488 63.2296L61.1437 63.1433L61.8556 64.3823L63.0534 63.865L63.9221 64.5643L64.7266 65.5798L65.8755 65.1295L66.7776 65.749L67.8057 65.7842L68.8209 65.8512L69.5971 67.2179L70.5867 67.4702L71.661 67.1924L72.6608 67.3393L73.7069 67.1317L74.6322 67.8119L75.7143 67.2467L76.6781 67.6426L77.5802 68.6613L78.5544 69.1051L79.6595 68.0258L80.6516 68.1536L81.6283 68.5367L82.5716 69.6129L83.5997 69.2808L84.6381 68.5367L85.6173 69.1275L86.6403 68.3579L87.6298 68.9806L88.6245 70.044L89.6346 68.492L90.6472 69.2361L91.6599 69.3191L92.6623 68.8241L93.657 68.3388L94.7262 69.8875L95.6926 68.7922L96.7078 68.8082L97.6973 68.4473L98.674 67.9715L99.6944 68.0865L100.681 67.7831L101.704 67.8757L102.825 68.7954L103.845 68.7251L104.84 68.4409L105.67 66.9816L106.721 67.1764L107.824 66.7709L108.682 67.8917L109.179 69.2712L110.261 69.6001L110.636 70.9317L111.592 71.4043L112.648 71.6693L113.52 72.2218L114.275 72.9786L114.676 74.4602L115.676 74.7668L116.139 76.2133L117.069 76.6731L117.917 77.3214L119.141 77.0468L119.75 78.2698L121.004 77.8483L121.793 78.621L122.407 79.9207L123.654 79.4034L124.194 81L125.577 80.9202L125.127 79.4513L124.538 78.4965L124.322 77.2671L123.947 76.159L122.61 75.7184L122.189 74.6295L121.356 73.812L121.616 72.2888L120.485 71.6342L121.233 69.8683L120.531 68.9551L119.827 68.0194L119.93 66.6655L119.909 65.4201L119.305 64.3089L119.593 63.5361L119.796 62.1598L120.873 62.1471L122.073 62.4281L122.688 61.0805L123.397 60.0555L124.194 59.2891L125.397 59.4551L126.294 59.4072L126.988 59.899L128.268 59.2061L128.92 60.576L129.91 60.8059L130.884 61.0709L131.742 61.8277L132.979 60.8857L133.781 61.9363L134.829 61.7543L135.698 62.5686L136.585 63.3764L137.636 63.121L138.728 62.3929L139.633 63.1849L140.589 63.6415L141.617 63.2711L142.635 62.8336L143.594 63.3094L144.55 64.0375L145.539 64.2067L146.532 64.5963L147.531 64.0279L148.531 64.443L149.51 63.7022L150.497 63.6032L151.466 63.1944L152.489 63.7213L153.52 64.1524L154.515 64.0215L155.491 63.7373L156.445 63.2551L157.465 63.3637L158.406 62.8559L159.424 62.8815L160.4 62.626L161.184 61.3775L162.218 61.4605L163.071 60.6941L164.073 60.5983L164.909 59.8351L166.132 60.4866L166.759 59.0368L168.088 59.883L168.862 58.9698L169.877 58.7558L170.442 57.3572L171.493 57.2294L172.265 56.4152L173.491 56.5876L174.084 55.4189L175.061 55.0101L175.341 53.3624L176.762 53.6881L177.179 52.3533L178.263 52.0308L178.813 50.9387L179.788 50.3927L180.569 49.5784L181.294 48.6811L181.764 47.5379L182.116 46.3181L182.473 45.1398L182.527 43.7986L182.805 42.6459L184.327 42.0647L184.501 40.7938L184.838 39.5835L184.869 38.2967L184.671 37.0098L184.157 35.7708L183.882 34.5957L185 33.2162L184.406 32.0666L184.152 30.8628L184.016 29.6078L183.209 28.6722L182.931 27.4843L182.08 26.6732L181.399 25.7919L180.996 24.687L181.098 23.0425L179.736 22.8637L179.731 21.2032L178.502 20.9924L177.713 20.2708L176.973 19.4852L176.59 18.1185L175.847 17.2883L174.686 17.2116L174.205 15.88L173.457 15.0179L172.234 15.1871L171.555 14.1589L170.321 14.4846L169.992 12.4728L168.761 12.8624L168.106 11.6011L167.142 11.237L165.906 11.8565L165.009 11.3297L164.091 10.873L163.243 10.1034L162.179 10.2663L161.454 8.78783L160.434 8.74951L159.408 8.77186L158.403 8.71119L157.355 9.02093L156.381 8.82934L155.432 8.38228L154.432 8.4206L153.492 7.77876L152.479 8.00229L151.492 7.90649L150.531 7.10179L149.536 6.96129L148.529 7.41473L147.531 8.02145Z"/>
</mask>
<path d="M147.531 8.02145L146.542 6.89104L145.586 8.26733L144.555 6.84952L143.622 8.01187L142.612 7.57439L141.666 8.13002L140.7 8.35354L139.71 8.30884L138.759 8.6569L137.651 7.78195L136.721 8.31842L135.695 8.21623L134.996 9.99807L133.835 9.16463L132.927 9.70429L132.151 10.7804L130.941 9.98849L129.951 10.1897L129.36 11.8278L128.072 10.988L127.214 11.6522L126.63 13.0955L125.546 13.2392L125.163 11.7256L123.718 12.013L123.541 10.1961L122.649 9.57656L121.539 9.42009L120.739 8.65371L119.776 8.24497L119.076 7.22313L117.82 7.57439L116.845 7.27423L115.974 6.69305L115.373 5.25928L114.35 5.09324L113.296 5.06769L112.468 4.24702L111.422 4.23744L110.487 3.80955L109.513 3.54451L108.539 3.28905L107.626 2.70788L106.765 1.79461L105.616 2.56099L104.768 1.45293L103.671 2.04049L102.794 0.973942L101.82 0.597138L100.689 1.80738L99.8024 0.488567L98.746 1.14638L97.813 0L96.7798 0.504534L95.7594 0.993101L94.7853 0.0223528L93.7778 0.0670583L92.7702 0.906883L91.7833 1.28688L90.7886 0.948396L89.7939 0.804699L88.7684 0.143696L87.8406 1.4657L86.8253 1.11764L85.7869 0.606718L84.8411 1.2773L83.7745 0.667389L82.7592 0.661003L81.9548 2.26401L80.8547 1.60621L80.0322 2.82603L78.8962 2.08839L77.8321 1.88721L76.8477 2.14267L76.0381 3.2188L74.9715 3.08468L74.1439 3.96602L73.0721 3.87661L72.1751 4.45778L71.2241 4.84416L70.3168 5.36785L69.2656 5.46685L68.5793 6.61322L67.5178 6.71221L66.8162 7.74683L65.9757 8.40464L64.8834 8.50363L64.03 9.15186L63.4183 10.2599L62.5187 11.087L61.5292 10.4036L60.46 10.774L59.6324 9.91504L58.7585 9.25404L57.769 9.24765L56.7332 9.59891L55.8208 9.1327L54.9931 7.93523L53.8494 9.33387L53.0552 7.64145L52.0117 8.31203L51.0093 8.68245L50.0737 8.25455L49.1408 7.68935L48.1821 7.41473H47.2105L46.2441 7.15927L45.2546 7.97035L44.2856 8.45892L43.3243 7.89691L42.3245 7.39238L41.3247 7.43069L40.3403 7.97035L39.3431 7.948L38.3818 8.64413L37.346 7.92884L36.4027 8.71758L35.3104 7.568L34.38 8.41102L33.357 8.2322L32.3238 8.05338L31.4268 8.96665L30.319 8.28329L29.5325 9.83841L28.5276 9.87034L27.5586 10.1386L26.4431 9.64362L25.6952 11.0423L24.6363 10.8794L23.7136 11.3584L22.6546 11.2754L21.9016 12.4026L20.5573 11.3233L19.7683 12.2908L19.064 13.4659L18.0205 13.5394L17.2135 14.3313L15.9926 13.9737L14.9337 14.1237L14.4942 15.8066L13.4018 15.8896L12.7978 17.0711L11.7826 17.3617L10.9678 18.0706L10.1248 18.7316L9.27664 19.383L8.73947 20.5262L7.74222 20.9605L6.98915 21.7684L6.07415 22.3847L5.44958 23.3746L4.67081 24.1953L4.67852 25.76L3.57332 26.3092L2.93077 27.2959L2.35761 28.3561L2.11344 29.611L1.80501 30.8117L2.02605 32.172L0.943989 33.1811L0.84375 34.4743L1.66108 35.7708L1.73305 36.9778L1.92838 38.1625L1.37836 39.5644L1.8924 40.6948L2.18026 41.8986L2.26765 43.243L2.94362 44.2393L3.23148 45.5134L4.48832 45.9573L4.65025 47.3751L5.74773 47.8445L6.65759 48.4512L7.07653 49.6678L7.69082 50.6673L8.73947 51.0281L9.25094 52.2128L10.2045 52.6823L10.7005 53.9819L11.7518 54.2501L12.5434 55.0197L13.4018 55.6584L14.0701 56.7568L15.3192 56.4407L15.9926 57.5679L17.2032 57.2358L18.1799 57.5168L19.0281 58.1874L19.9096 58.7718L20.8349 59.2156L21.5135 60.6111L22.6521 60.2694L23.4694 61.221L24.7082 60.3173L25.4305 61.7766L26.4714 61.7351L27.3659 62.4568L28.5173 61.7096L29.3038 63.1785L30.3345 63.1114L31.3368 63.2359L32.3007 63.6606L33.3982 62.8591L34.2977 63.9449L35.2976 64.0758L36.395 62.8528L37.3512 63.4531L38.297 64.4685L39.3354 63.7373L40.33 63.8874L41.317 64.4685L42.3271 63.8459L43.3243 63.4691L44.3319 64.4813L45.342 64.5675L46.3161 63.4212L47.357 64.4366L48.2977 63.1146L49.2795 62.8208L50.3462 63.7916L51.3332 63.5074L52.3972 64.0885L53.3688 63.6351L54.2632 62.5781L55.2193 62.1758L56.2654 62.4281L57.2421 62.163L58.2496 62.1055H59.3291L60.0488 63.2296L61.1437 63.1433L61.8556 64.3823L63.0534 63.865L63.9221 64.5643L64.7266 65.5798L65.8755 65.1295L66.7776 65.749L67.8057 65.7842L68.8209 65.8512L69.5971 67.2179L70.5867 67.4702L71.661 67.1924L72.6608 67.3393L73.7069 67.1317L74.6322 67.8119L75.7143 67.2467L76.6781 67.6426L77.5802 68.6613L78.5544 69.1051L79.6595 68.0258L80.6516 68.1536L81.6283 68.5367L82.5716 69.6129L83.5997 69.2808L84.6381 68.5367L85.6173 69.1275L86.6403 68.3579L87.6298 68.9806L88.6245 70.044L89.6346 68.492L90.6472 69.2361L91.6599 69.3191L92.6623 68.8241L93.657 68.3388L94.7262 69.8875L95.6926 68.7922L96.7078 68.8082L97.6973 68.4473L98.674 67.9715L99.6944 68.0865L100.681 67.7831L101.704 67.8757L102.825 68.7954L103.845 68.7251L104.84 68.4409L105.67 66.9816L106.721 67.1764L107.824 66.7709L108.682 67.8917L109.179 69.2712L110.261 69.6001L110.636 70.9317L111.592 71.4043L112.648 71.6693L113.52 72.2218L114.275 72.9786L114.676 74.4602L115.676 74.7668L116.139 76.2133L117.069 76.6731L117.917 77.3214L119.141 77.0468L119.75 78.2698L121.004 77.8483L121.793 78.621L122.407 79.9207L123.654 79.4034L124.194 81L125.577 80.9202L125.127 79.4513L124.538 78.4965L124.322 77.2671L123.947 76.159L122.61 75.7184L122.189 74.6295L121.356 73.812L121.616 72.2888L120.485 71.6342L121.233 69.8683L120.531 68.9551L119.827 68.0194L119.93 66.6655L119.909 65.4201L119.305 64.3089L119.593 63.5361L119.796 62.1598L120.873 62.1471L122.073 62.4281L122.688 61.0805L123.397 60.0555L124.194 59.2891L125.397 59.4551L126.294 59.4072L126.988 59.899L128.268 59.2061L128.92 60.576L129.91 60.8059L130.884 61.0709L131.742 61.8277L132.979 60.8857L133.781 61.9363L134.829 61.7543L135.698 62.5686L136.585 63.3764L137.636 63.121L138.728 62.3929L139.633 63.1849L140.589 63.6415L141.617 63.2711L142.635 62.8336L143.594 63.3094L144.55 64.0375L145.539 64.2067L146.532 64.5963L147.531 64.0279L148.531 64.443L149.51 63.7022L150.497 63.6032L151.466 63.1944L152.489 63.7213L153.52 64.1524L154.515 64.0215L155.491 63.7373L156.445 63.2551L157.465 63.3637L158.406 62.8559L159.424 62.8815L160.4 62.626L161.184 61.3775L162.218 61.4605L163.071 60.6941L164.073 60.5983L164.909 59.8351L166.132 60.4866L166.759 59.0368L168.088 59.883L168.862 58.9698L169.877 58.7558L170.442 57.3572L171.493 57.2294L172.265 56.4152L173.491 56.5876L174.084 55.4189L175.061 55.0101L175.341 53.3624L176.762 53.6881L177.179 52.3533L178.263 52.0308L178.813 50.9387L179.788 50.3927L180.569 49.5784L181.294 48.6811L181.764 47.5379L182.116 46.3181L182.473 45.1398L182.527 43.7986L182.805 42.6459L184.327 42.0647L184.501 40.7938L184.838 39.5835L184.869 38.2967L184.671 37.0098L184.157 35.7708L183.882 34.5957L185 33.2162L184.406 32.0666L184.152 30.8628L184.016 29.6078L183.209 28.6722L182.931 27.4843L182.08 26.6732L181.399 25.7919L180.996 24.687L181.098 23.0425L179.736 22.8637L179.731 21.2032L178.502 20.9924L177.713 20.2708L176.973 19.4852L176.59 18.1185L175.847 17.2883L174.686 17.2116L174.205 15.88L173.457 15.0179L172.234 15.1871L171.555 14.1589L170.321 14.4846L169.992 12.4728L168.761 12.8624L168.106 11.6011L167.142 11.237L165.906 11.8565L165.009 11.3297L164.091 10.873L163.243 10.1034L162.179 10.2663L161.454 8.78783L160.434 8.74951L159.408 8.77186L158.403 8.71119L157.355 9.02093L156.381 8.82934L155.432 8.38228L154.432 8.4206L153.492 7.77876L152.479 8.00229L151.492 7.90649L150.531 7.10179L149.536 6.96129L148.529 7.41473L147.531 8.02145Z" stroke="#D28E4A" stroke-width="2" mask="url(#path-5-inside-5_0_22974)"/>
<mask id="path-6-inside-6_0_22974" fill="white">
<path d="M147.531 8.02145L146.542 6.89104L145.586 8.26733L144.555 6.84952L143.622 8.01187L142.612 7.57439L141.666 8.13002L140.7 8.35354L139.71 8.30884L138.759 8.6569L137.651 7.78195L136.721 8.31842L135.695 8.21623L134.996 9.99807L133.835 9.16463L132.927 9.70429L132.151 10.7804L130.941 9.98849L129.951 10.1897L129.36 11.8278L128.072 10.988L127.214 11.6522L126.63 13.0955L125.546 13.2392L125.163 11.7256L123.718 12.013L123.541 10.1961L122.649 9.57656L121.539 9.42009L120.739 8.65371L119.776 8.24497L119.076 7.22313L117.82 7.57439L116.845 7.27423L115.974 6.69305L115.373 5.25928L114.35 5.09324L113.296 5.06769L112.468 4.24702L111.422 4.23744L110.487 3.80955L109.513 3.54451L108.539 3.28905L107.626 2.70788L106.765 1.79461L105.616 2.56099L104.768 1.45293L103.671 2.04049L102.794 0.973942L101.82 0.597138L100.689 1.80738L99.8024 0.488567L98.746 1.14638L97.813 0L96.7798 0.504534L95.7594 0.993101L94.7853 0.0223528L93.7778 0.0670583L92.7702 0.906883L91.7833 1.28688L90.7886 0.948396L89.7939 0.804699L88.7684 0.143696L87.8406 1.4657L86.8253 1.11764L85.7869 0.606718L84.8411 1.2773L83.7745 0.667389L82.7592 0.661003L81.9548 2.26401L80.8547 1.60621L80.0322 2.82603L78.8962 2.08839L77.8321 1.88721L76.8477 2.14267L76.0381 3.2188L74.9715 3.08468L74.1439 3.96602L73.0721 3.87661L72.1751 4.45778L71.2241 4.84416L70.3168 5.36785L69.2656 5.46685L68.5793 6.61322L67.5178 6.71221L66.8162 7.74683L65.9757 8.40464L64.8834 8.50363L64.03 9.15186L63.4183 10.2599L62.5187 11.087L61.5292 10.4036L60.46 10.774L59.6324 9.91504L58.7585 9.25404L57.769 9.24765L56.7332 9.59891L55.8208 9.1327L54.9931 7.93523L53.8494 9.33387L53.0552 7.64145L52.0117 8.31203L51.0093 8.68245L50.0737 8.25455L49.1408 7.68935L48.1821 7.41473H47.2105L46.2441 7.15927L45.2546 7.97035L44.2856 8.45892L43.3243 7.89691L42.3245 7.39238L41.3247 7.43069L40.3403 7.97035L39.3431 7.948L38.3818 8.64413L37.346 7.92884L36.4027 8.71758L35.3104 7.568L34.38 8.41102L33.357 8.2322L32.3238 8.05338L31.4268 8.96665L30.319 8.28329L29.5325 9.83841L28.5276 9.87034L27.5586 10.1386L26.4431 9.64362L25.6952 11.0423L24.6363 10.8794L23.7136 11.3584L22.6546 11.2754L21.9016 12.4026L20.5573 11.3233L19.7683 12.2908L19.064 13.4659L18.0205 13.5394L17.2135 14.3313L15.9926 13.9737L14.9337 14.1237L14.4942 15.8066L13.4018 15.8896L12.7978 17.0711L11.7826 17.3617L10.9678 18.0706L10.1248 18.7316L9.27664 19.383L8.73947 20.5262L7.74222 20.9605L6.98915 21.7684L6.07415 22.3847L5.44958 23.3746L4.67081 24.1953L4.67852 25.76L3.57332 26.3092L2.93077 27.2959L2.35761 28.3561L2.11344 29.611L1.80501 30.8117L2.02605 32.172L0.943989 33.1811L0.84375 34.4743L1.66108 35.7708L1.73305 36.9778L1.92838 38.1625L1.37836 39.5644L1.8924 40.6948L2.18026 41.8986L2.26765 43.243L2.94362 44.2393L3.23148 45.5134L4.48832 45.9573L4.65025 47.3751L5.74773 47.8445L6.65759 48.4512L7.07653 49.6678L7.69082 50.6673L8.73947 51.0281L9.25094 52.2128L10.2045 52.6823L10.7005 53.9819L11.7518 54.2501L12.5434 55.0197L13.4018 55.6584L14.0701 56.7568L15.3192 56.4407L15.9926 57.5679L17.2032 57.2358L18.1799 57.5168L19.0281 58.1874L19.9096 58.7718L20.8349 59.2156L21.5135 60.6111L22.6521 60.2694L23.4694 61.221L24.7082 60.3173L25.4305 61.7766L26.4714 61.7351L27.3659 62.4568L28.5173 61.7096L29.3038 63.1785L30.3345 63.1114L31.3368 63.2359L32.3007 63.6606L33.3982 62.8591L34.2977 63.9449L35.2976 64.0758L36.395 62.8528L37.3512 63.4531L38.297 64.4685L39.3354 63.7373L40.33 63.8874L41.317 64.4685L42.3271 63.8459L43.3243 63.4691L44.3319 64.4813L45.342 64.5675L46.3161 63.4212L47.357 64.4366L48.2977 63.1146L49.2795 62.8208L50.3462 63.7916L51.3332 63.5074L52.3972 64.0885L53.3688 63.6351L54.2632 62.5781L55.2193 62.1758L56.2654 62.4281L57.2421 62.163L58.2496 62.1055H59.3291L60.0488 63.2296L61.1437 63.1433L61.8556 64.3823L63.0534 63.865L63.9221 64.5643L64.7266 65.5798L65.8755 65.1295L66.7776 65.749L67.8057 65.7842L68.8209 65.8512L69.5971 67.2179L70.5867 67.4702L71.661 67.1924L72.6608 67.3393L73.7069 67.1317L74.6322 67.8119L75.7143 67.2467L76.6781 67.6426L77.5802 68.6613L78.5544 69.1051L79.6595 68.0258L80.6516 68.1536L81.6283 68.5367L82.5716 69.6129L83.5997 69.2808L84.6381 68.5367L85.6173 69.1275L86.6403 68.3579L87.6298 68.9806L88.6245 70.044L89.6346 68.492L90.6472 69.2361L91.6599 69.3191L92.6623 68.8241L93.657 68.3388L94.7262 69.8875L95.6926 68.7922L96.7078 68.8082L97.6973 68.4473L98.674 67.9715L99.6944 68.0865L100.681 67.7831L101.704 67.8757L102.825 68.7954L103.845 68.7251L104.84 68.4409L105.67 66.9816L106.721 67.1764L107.824 66.7709L108.682 67.8917L109.179 69.2712L110.261 69.6001L110.636 70.9317L111.592 71.4043L112.648 71.6693L113.52 72.2218L114.275 72.9786L114.676 74.4602L115.676 74.7668L116.139 76.2133L117.069 76.6731L117.917 77.3214L119.141 77.0468L119.75 78.2698L121.004 77.8483L121.793 78.621L122.407 79.9207L123.654 79.4034L124.194 81L125.577 80.9202L125.127 79.4513L124.538 78.4965L124.322 77.2671L123.947 76.159L122.61 75.7184L122.189 74.6295L121.356 73.812L121.616 72.2888L120.485 71.6342L121.233 69.8683L120.531 68.9551L119.827 68.0194L119.93 66.6655L119.909 65.4201L119.305 64.3089L119.593 63.5361L119.796 62.1598L120.873 62.1471L122.073 62.4281L122.688 61.0805L123.397 60.0555L124.194 59.2891L125.397 59.4551L126.294 59.4072L126.988 59.899L128.268 59.2061L128.92 60.576L129.91 60.8059L130.884 61.0709L131.742 61.8277L132.979 60.8857L133.781 61.9363L134.829 61.7543L135.698 62.5686L136.585 63.3764L137.636 63.121L138.728 62.3929L139.633 63.1849L140.589 63.6415L141.617 63.2711L142.635 62.8336L143.594 63.3094L144.55 64.0375L145.539 64.2067L146.532 64.5963L147.531 64.0279L148.531 64.443L149.51 63.7022L150.497 63.6032L151.466 63.1944L152.489 63.7213L153.52 64.1524L154.515 64.0215L155.491 63.7373L156.445 63.2551L157.465 63.3637L158.406 62.8559L159.424 62.8815L160.4 62.626L161.184 61.3775L162.218 61.4605L163.071 60.6941L164.073 60.5983L164.909 59.8351L166.132 60.4866L166.759 59.0368L168.088 59.883L168.862 58.9698L169.877 58.7558L170.442 57.3572L171.493 57.2294L172.265 56.4152L173.491 56.5876L174.084 55.4189L175.061 55.0101L175.341 53.3624L176.762 53.6881L177.179 52.3533L178.263 52.0308L178.813 50.9387L179.788 50.3927L180.569 49.5784L181.294 48.6811L181.764 47.5379L182.116 46.3181L182.473 45.1398L182.527 43.7986L182.805 42.6459L184.327 42.0647L184.501 40.7938L184.838 39.5835L184.869 38.2967L184.671 37.0098L184.157 35.7708L183.882 34.5957L185 33.2162L184.406 32.0666L184.152 30.8628L184.016 29.6078L183.209 28.6722L182.931 27.4843L182.08 26.6732L181.399 25.7919L180.996 24.687L181.098 23.0425L179.736 22.8637L179.731 21.2032L178.502 20.9924L177.713 20.2708L176.973 19.4852L176.59 18.1185L175.847 17.2883L174.686 17.2116L174.205 15.88L173.457 15.0179L172.234 15.1871L171.555 14.1589L170.321 14.4846L169.992 12.4728L168.761 12.8624L168.106 11.6011L167.142 11.237L165.906 11.8565L165.009 11.3297L164.091 10.873L163.243 10.1034L162.179 10.2663L161.454 8.78783L160.434 8.74951L159.408 8.77186L158.403 8.71119L157.355 9.02093L156.381 8.82934L155.432 8.38228L154.432 8.4206L153.492 7.77876L152.479 8.00229L151.492 7.90649L150.531 7.10179L149.536 6.96129L148.529 7.41473L147.531 8.02145Z"/>
</mask>
<path d="M147.531 8.02145L146.542 6.89104L145.586 8.26733L144.555 6.84952L143.622 8.01187L142.612 7.57439L141.666 8.13002L140.7 8.35354L139.71 8.30884L138.759 8.6569L137.651 7.78195L136.721 8.31842L135.695 8.21623L134.996 9.99807L133.835 9.16463L132.927 9.70429L132.151 10.7804L130.941 9.98849L129.951 10.1897L129.36 11.8278L128.072 10.988L127.214 11.6522L126.63 13.0955L125.546 13.2392L125.163 11.7256L123.718 12.013L123.541 10.1961L122.649 9.57656L121.539 9.42009L120.739 8.65371L119.776 8.24497L119.076 7.22313L117.82 7.57439L116.845 7.27423L115.974 6.69305L115.373 5.25928L114.35 5.09324L113.296 5.06769L112.468 4.24702L111.422 4.23744L110.487 3.80955L109.513 3.54451L108.539 3.28905L107.626 2.70788L106.765 1.79461L105.616 2.56099L104.768 1.45293L103.671 2.04049L102.794 0.973942L101.82 0.597138L100.689 1.80738L99.8024 0.488567L98.746 1.14638L97.813 0L96.7798 0.504534L95.7594 0.993101L94.7853 0.0223528L93.7778 0.0670583L92.7702 0.906883L91.7833 1.28688L90.7886 0.948396L89.7939 0.804699L88.7684 0.143696L87.8406 1.4657L86.8253 1.11764L85.7869 0.606718L84.8411 1.2773L83.7745 0.667389L82.7592 0.661003L81.9548 2.26401L80.8547 1.60621L80.0322 2.82603L78.8962 2.08839L77.8321 1.88721L76.8477 2.14267L76.0381 3.2188L74.9715 3.08468L74.1439 3.96602L73.0721 3.87661L72.1751 4.45778L71.2241 4.84416L70.3168 5.36785L69.2656 5.46685L68.5793 6.61322L67.5178 6.71221L66.8162 7.74683L65.9757 8.40464L64.8834 8.50363L64.03 9.15186L63.4183 10.2599L62.5187 11.087L61.5292 10.4036L60.46 10.774L59.6324 9.91504L58.7585 9.25404L57.769 9.24765L56.7332 9.59891L55.8208 9.1327L54.9931 7.93523L53.8494 9.33387L53.0552 7.64145L52.0117 8.31203L51.0093 8.68245L50.0737 8.25455L49.1408 7.68935L48.1821 7.41473H47.2105L46.2441 7.15927L45.2546 7.97035L44.2856 8.45892L43.3243 7.89691L42.3245 7.39238L41.3247 7.43069L40.3403 7.97035L39.3431 7.948L38.3818 8.64413L37.346 7.92884L36.4027 8.71758L35.3104 7.568L34.38 8.41102L33.357 8.2322L32.3238 8.05338L31.4268 8.96665L30.319 8.28329L29.5325 9.83841L28.5276 9.87034L27.5586 10.1386L26.4431 9.64362L25.6952 11.0423L24.6363 10.8794L23.7136 11.3584L22.6546 11.2754L21.9016 12.4026L20.5573 11.3233L19.7683 12.2908L19.064 13.4659L18.0205 13.5394L17.2135 14.3313L15.9926 13.9737L14.9337 14.1237L14.4942 15.8066L13.4018 15.8896L12.7978 17.0711L11.7826 17.3617L10.9678 18.0706L10.1248 18.7316L9.27664 19.383L8.73947 20.5262L7.74222 20.9605L6.98915 21.7684L6.07415 22.3847L5.44958 23.3746L4.67081 24.1953L4.67852 25.76L3.57332 26.3092L2.93077 27.2959L2.35761 28.3561L2.11344 29.611L1.80501 30.8117L2.02605 32.172L0.943989 33.1811L0.84375 34.4743L1.66108 35.7708L1.73305 36.9778L1.92838 38.1625L1.37836 39.5644L1.8924 40.6948L2.18026 41.8986L2.26765 43.243L2.94362 44.2393L3.23148 45.5134L4.48832 45.9573L4.65025 47.3751L5.74773 47.8445L6.65759 48.4512L7.07653 49.6678L7.69082 50.6673L8.73947 51.0281L9.25094 52.2128L10.2045 52.6823L10.7005 53.9819L11.7518 54.2501L12.5434 55.0197L13.4018 55.6584L14.0701 56.7568L15.3192 56.4407L15.9926 57.5679L17.2032 57.2358L18.1799 57.5168L19.0281 58.1874L19.9096 58.7718L20.8349 59.2156L21.5135 60.6111L22.6521 60.2694L23.4694 61.221L24.7082 60.3173L25.4305 61.7766L26.4714 61.7351L27.3659 62.4568L28.5173 61.7096L29.3038 63.1785L30.3345 63.1114L31.3368 63.2359L32.3007 63.6606L33.3982 62.8591L34.2977 63.9449L35.2976 64.0758L36.395 62.8528L37.3512 63.4531L38.297 64.4685L39.3354 63.7373L40.33 63.8874L41.317 64.4685L42.3271 63.8459L43.3243 63.4691L44.3319 64.4813L45.342 64.5675L46.3161 63.4212L47.357 64.4366L48.2977 63.1146L49.2795 62.8208L50.3462 63.7916L51.3332 63.5074L52.3972 64.0885L53.3688 63.6351L54.2632 62.5781L55.2193 62.1758L56.2654 62.4281L57.2421 62.163L58.2496 62.1055H59.3291L60.0488 63.2296L61.1437 63.1433L61.8556 64.3823L63.0534 63.865L63.9221 64.5643L64.7266 65.5798L65.8755 65.1295L66.7776 65.749L67.8057 65.7842L68.8209 65.8512L69.5971 67.2179L70.5867 67.4702L71.661 67.1924L72.6608 67.3393L73.7069 67.1317L74.6322 67.8119L75.7143 67.2467L76.6781 67.6426L77.5802 68.6613L78.5544 69.1051L79.6595 68.0258L80.6516 68.1536L81.6283 68.5367L82.5716 69.6129L83.5997 69.2808L84.6381 68.5367L85.6173 69.1275L86.6403 68.3579L87.6298 68.9806L88.6245 70.044L89.6346 68.492L90.6472 69.2361L91.6599 69.3191L92.6623 68.8241L93.657 68.3388L94.7262 69.8875L95.6926 68.7922L96.7078 68.8082L97.6973 68.4473L98.674 67.9715L99.6944 68.0865L100.681 67.7831L101.704 67.8757L102.825 68.7954L103.845 68.7251L104.84 68.4409L105.67 66.9816L106.721 67.1764L107.824 66.7709L108.682 67.8917L109.179 69.2712L110.261 69.6001L110.636 70.9317L111.592 71.4043L112.648 71.6693L113.52 72.2218L114.275 72.9786L114.676 74.4602L115.676 74.7668L116.139 76.2133L117.069 76.6731L117.917 77.3214L119.141 77.0468L119.75 78.2698L121.004 77.8483L121.793 78.621L122.407 79.9207L123.654 79.4034L124.194 81L125.577 80.9202L125.127 79.4513L124.538 78.4965L124.322 77.2671L123.947 76.159L122.61 75.7184L122.189 74.6295L121.356 73.812L121.616 72.2888L120.485 71.6342L121.233 69.8683L120.531 68.9551L119.827 68.0194L119.93 66.6655L119.909 65.4201L119.305 64.3089L119.593 63.5361L119.796 62.1598L120.873 62.1471L122.073 62.4281L122.688 61.0805L123.397 60.0555L124.194 59.2891L125.397 59.4551L126.294 59.4072L126.988 59.899L128.268 59.2061L128.92 60.576L129.91 60.8059L130.884 61.0709L131.742 61.8277L132.979 60.8857L133.781 61.9363L134.829 61.7543L135.698 62.5686L136.585 63.3764L137.636 63.121L138.728 62.3929L139.633 63.1849L140.589 63.6415L141.617 63.2711L142.635 62.8336L143.594 63.3094L144.55 64.0375L145.539 64.2067L146.532 64.5963L147.531 64.0279L148.531 64.443L149.51 63.7022L150.497 63.6032L151.466 63.1944L152.489 63.7213L153.52 64.1524L154.515 64.0215L155.491 63.7373L156.445 63.2551L157.465 63.3637L158.406 62.8559L159.424 62.8815L160.4 62.626L161.184 61.3775L162.218 61.4605L163.071 60.6941L164.073 60.5983L164.909 59.8351L166.132 60.4866L166.759 59.0368L168.088 59.883L168.862 58.9698L169.877 58.7558L170.442 57.3572L171.493 57.2294L172.265 56.4152L173.491 56.5876L174.084 55.4189L175.061 55.0101L175.341 53.3624L176.762 53.6881L177.179 52.3533L178.263 52.0308L178.813 50.9387L179.788 50.3927L180.569 49.5784L181.294 48.6811L181.764 47.5379L182.116 46.3181L182.473 45.1398L182.527 43.7986L182.805 42.6459L184.327 42.0647L184.501 40.7938L184.838 39.5835L184.869 38.2967L184.671 37.0098L184.157 35.7708L183.882 34.5957L185 33.2162L184.406 32.0666L184.152 30.8628L184.016 29.6078L183.209 28.6722L182.931 27.4843L182.08 26.6732L181.399 25.7919L180.996 24.687L181.098 23.0425L179.736 22.8637L179.731 21.2032L178.502 20.9924L177.713 20.2708L176.973 19.4852L176.59 18.1185L175.847 17.2883L174.686 17.2116L174.205 15.88L173.457 15.0179L172.234 15.1871L171.555 14.1589L170.321 14.4846L169.992 12.4728L168.761 12.8624L168.106 11.6011L167.142 11.237L165.906 11.8565L165.009 11.3297L164.091 10.873L163.243 10.1034L162.179 10.2663L161.454 8.78783L160.434 8.74951L159.408 8.77186L158.403 8.71119L157.355 9.02093L156.381 8.82934L155.432 8.38228L154.432 8.4206L153.492 7.77876L152.479 8.00229L151.492 7.90649L150.531 7.10179L149.536 6.96129L148.529 7.41473L147.531 8.02145Z" stroke="#D28E4A" stroke-width="2" mask="url(#path-6-inside-6_0_22974)"/>
</g>
</svg>
