<svg width="40" height="40" viewBox="0 0 40 40" fill="none" xmlns="http://www.w3.org/2000/svg">
<path d="M0 20C0 8.95431 8.95431 0 20 0C31.0457 0 40 8.95431 40 20C40 31.0457 31.0457 40 20 40C8.95431 40 0 31.0457 0 20Z" fill="#D4D4D8" fill-opacity="0.4"/>
<path fill-rule="evenodd" clip-rule="evenodd" d="M20.7291 10.0265C20.615 9.99964 20.4963 9.99273 20.3786 10.0071C20.2527 10.0023 20.1265 9.99989 20 9.99989C19.8735 9.99989 19.7473 10.0023 19.6214 10.0071C19.5037 9.99273 19.385 9.99964 19.2709 10.0265C16.8853 10.2008 14.6317 11.2261 12.9289 12.9288C11.0536 14.8042 10 17.3477 10 19.9999C10 21.3131 10.2587 22.6135 10.7612 23.8267C11.2638 25.04 12.0003 26.1424 12.9289 27.071C13.8575 27.9995 14.9599 28.7361 16.1732 29.2387C17.1613 29.648 18.2072 29.8955 19.2708 29.9733C19.3849 30.0001 19.5037 30.0071 19.6215 29.9927C19.7475 29.9975 19.8737 29.9999 20 29.9999C20.1263 29.9999 20.2525 29.9975 20.3785 29.9927C20.4963 30.0071 20.6151 30.0001 20.7292 29.9733C21.7928 29.8955 22.8387 29.648 23.8268 29.2387C25.0401 28.7361 26.1425 27.9995 27.0711 27.071C27.9997 26.1424 28.7362 25.04 29.2388 23.8267C29.7413 22.6135 30 21.3131 30 19.9999C30 17.3477 28.9464 14.8042 27.0711 12.9288C25.3683 11.2261 23.1147 10.2008 20.7291 10.0265ZM17.6235 12.361C16.3968 12.7427 15.2683 13.4179 14.3431 14.343C13.8444 14.8417 13.4184 15.3995 13.0718 15.9999H16.3723C16.6577 14.7475 17.0769 13.5274 17.6235 12.361ZM18.4303 15.9999C18.7798 14.6463 19.3063 13.3397 20 12.115C20.6937 13.3397 21.2202 14.6463 21.5697 15.9999H18.4303ZM16.0337 17.9999H12.254C12.0867 18.6478 12 19.3194 12 19.9999C12 20.6761 12.0857 21.348 12.254 21.9999H16.0337C15.9596 21.3379 15.9222 20.6702 15.9222 19.9999C15.9222 19.3296 15.9596 18.6619 16.0337 17.9999ZM18.0477 21.9999C17.9644 21.3387 17.9222 20.6708 17.9222 19.9999C17.9222 19.329 17.9644 18.661 18.0477 17.9999H21.9523C22.0356 18.661 22.0778 19.329 22.0778 19.9999C22.0778 20.6708 22.0356 21.3387 21.9523 21.9999H18.0477ZM16.3723 23.9999H13.0718C13.4206 24.6041 13.8477 25.1613 14.3431 25.6567C15.086 26.3996 15.9679 26.9889 16.9385 27.3909C17.1634 27.4841 17.3919 27.5667 17.6235 27.6388C17.0769 26.4724 16.6577 25.2523 16.3723 23.9999ZM20 27.8848C19.3063 26.6601 18.7798 25.3534 18.4303 23.9999H21.5697C21.2202 25.3534 20.6937 26.6601 20 27.8848ZM22.3765 27.6388C22.6081 27.5667 22.8366 27.4841 23.0615 27.3909C24.0321 26.9889 24.914 26.3996 25.6569 25.6567C26.1523 25.1613 26.5794 24.6041 26.9282 23.9999H23.6277C23.3423 25.2523 22.9231 26.4724 22.3765 27.6388ZM23.9663 21.9999H27.746C27.9143 21.348 28 20.6761 28 19.9999C28 19.3194 27.9133 18.6478 27.746 17.9999H23.9663C24.0404 18.6619 24.0778 19.3296 24.0778 19.9999C24.0778 20.6702 24.0404 21.3379 23.9663 21.9999ZM23.6277 15.9999H26.9282C26.5816 15.3995 26.1556 14.8417 25.6569 14.343C24.7317 13.4179 23.6032 12.7427 22.3765 12.361C22.9231 13.5274 23.3423 14.7475 23.6277 15.9999Z" fill="#71717A"/>
</svg>
