<svg width="424" height="378" viewBox="0 0 424 378" fill="none" xmlns="http://www.w3.org/2000/svg">
<g clip-path="url(#clip0_5_9347)">
<path d="M215.181 287.794L237.745 305.256L279.867 262.786L261.525 216.566L140.214 164.59L70.652 174.113L46.7268 238.88L149.381 294.581L201.776 289.451L192.635 318.408L215.181 287.794Z" fill="white" stroke="black" stroke-width="2" stroke-linecap="round" stroke-linejoin="round"/>
<path d="M213.785 277.564L236.349 295.026L278.471 252.557L260.129 206.337L138.818 154.361L69.2558 163.883L45.3306 228.65L147.985 284.351L200.38 279.222L191.239 308.178L213.785 277.564Z" fill="#FFE766" stroke="#FFF84B" stroke-width="1.5" stroke-linecap="round" stroke-linejoin="round"/>
<path d="M202.279 97.2298L181.91 147.915" stroke="black" stroke-width="3" stroke-linecap="round" stroke-linejoin="round"/>
<path d="M174.192 95.333L168.173 149.294" stroke="black" stroke-width="3" stroke-linecap="round" stroke-linejoin="round"/>
<path d="M222.519 118.655L190.255 159.948" stroke="black" stroke-width="3" stroke-linecap="round" stroke-linejoin="round"/>
<path d="M215.181 287.794L237.745 305.256L279.867 262.786L261.525 216.566L140.214 164.59L70.652 174.113L46.7268 238.88L149.381 294.581L201.776 289.451L192.635 318.408L215.181 287.794Z" stroke="black" stroke-width="2" stroke-linecap="round" stroke-linejoin="round"/>
</g>
<path d="M112.621 190.028L112.359 191.453L101.412 189.442L101.674 188.017C100.471 188.522 99.2345 188.978 97.964 189.385L97.3723 187.376C100.825 186.245 103.981 184.797 106.84 183.03L109.566 183.531C111.61 186.198 114.044 188.674 116.87 190.958L115.603 192.626C114.56 191.794 113.566 190.928 112.621 190.028ZM112.04 189.473C110.559 188.005 109.191 186.423 107.937 184.726C106.162 185.866 104.321 186.859 102.415 187.704L112.04 189.473ZM98.2128 192.911L98.5658 190.99L114.47 193.912L114.117 195.833C111.173 198.452 107.59 200.406 103.367 201.694L102.509 199.743C105.988 198.702 108.976 197.237 111.473 195.347L98.2128 192.911ZM132.48 188.275L134.152 187.771C134.549 188.869 134.912 189.989 135.243 191.132L133.574 191.615C133.256 190.56 132.891 189.447 132.48 188.275ZM135.47 188.505L137.184 188.008C137.626 189.242 137.999 190.386 138.304 191.438L136.594 191.914C136.325 191.053 135.95 189.917 135.47 188.505ZM135.226 197.15C132.39 196.629 129.59 196.292 126.828 196.141L127.046 194.259C129.849 194.418 132.69 194.762 135.568 195.291L135.226 197.15ZM126.96 197.98L128.075 199.466C127.429 199.802 126.979 200.083 126.725 200.306C126.484 200.533 126.342 200.763 126.299 200.997C126.195 201.561 126.475 202.09 127.139 202.582C127.803 203.074 128.748 203.433 129.974 203.658C131.254 203.893 132.649 204.007 134.16 204L134.066 205.904C132.556 205.912 131.078 205.782 129.632 205.517C127.787 205.178 126.367 204.575 125.373 203.709C124.396 202.832 124.003 201.87 124.196 200.824C124.39 199.764 125.312 198.816 126.96 197.98ZM119.837 190.265L120.179 188.406L123.525 189.021C123.957 187.905 124.275 187.067 124.478 186.506L126.509 187.072C126.425 187.298 126.33 187.544 126.224 187.809C126.135 188.063 126.025 188.349 125.896 188.667C125.78 188.987 125.692 189.234 125.631 189.408L132.571 190.684L132.23 192.542L124.939 191.203C123.15 195.671 121.11 199.915 118.82 203.936L116.842 203.081C119.049 199.202 121.039 195.112 122.811 190.812L119.837 190.265ZM146.397 195.039L153.006 196.253L153.727 192.329L155.792 192.709L155.071 196.633L158.273 197.221L157.931 199.08L154.73 198.492L154.217 201.28C153.858 203.235 153.408 204.718 152.866 205.729C152.338 206.742 151.614 207.471 150.693 207.913C149.771 208.356 148.466 208.643 146.777 208.774L146.457 206.793C147.195 206.73 147.784 206.66 148.225 206.585C148.666 206.509 149.095 206.381 149.512 206.202C149.93 206.022 150.252 205.818 150.479 205.589C150.709 205.347 150.935 205.004 151.159 204.561C151.383 204.119 151.56 203.617 151.692 203.058C151.837 202.501 151.99 201.782 152.152 200.901L152.664 198.112L146.055 196.898L146.397 195.039ZM144.725 191.123C143.596 193.549 142.761 196.235 142.219 199.182C141.678 202.129 141.503 204.937 141.696 207.605L139.523 207.462C139.315 204.72 139.491 201.827 140.05 198.784C140.61 195.741 141.474 192.974 142.643 190.485L144.725 191.123ZM172.3 203.386L171.715 206.566L173.471 206.889L174.055 203.708L172.3 203.386ZM172.653 201.465L174.408 201.787L174.959 198.793L173.203 198.47L172.653 201.465ZM168.375 202.665L167.791 205.845L169.65 206.187L170.234 203.006L168.375 202.665ZM168.728 200.744L170.587 201.085L171.138 198.091L169.279 197.749L168.728 200.744ZM166.31 202.285L164.554 201.963L163.97 205.143L165.725 205.466L166.31 202.285ZM165.458 197.047L164.907 200.042L166.663 200.364L167.213 197.369L165.458 197.047ZM176.577 202.186L179.055 202.641L178.702 204.562L176.224 204.107L175.639 207.288L177.705 207.667L177.379 209.443L159.409 206.141L159.736 204.365L161.801 204.745L162.386 201.564L159.907 201.109L160.26 199.188L162.739 199.643L163.004 198.197C162.76 198.366 162.382 198.603 161.87 198.907L160.479 197.413C162.514 196.179 164.256 194.755 165.705 193.142L167.593 194.023C167.189 194.518 166.802 194.959 166.432 195.347L179.114 197.677L178.78 199.495L177.127 199.191L176.577 202.186ZM158.281 210.653C159.517 209.585 160.718 208.353 161.885 206.959L163.553 208.227C162.424 209.642 161.184 210.93 159.832 212.091L158.281 210.653ZM164.466 212.9C164.574 211.382 164.612 209.823 164.578 208.223L166.742 208.3C166.774 209.829 166.736 211.395 166.626 212.998L164.466 212.9ZM169.534 213.788C169.331 212.185 169.061 210.591 168.726 209.006L170.811 208.813C171.173 210.488 171.448 212.09 171.636 213.619L169.534 213.788ZM174.867 214.747C174.295 213.133 173.617 211.514 172.834 209.889L174.776 209.2C175.594 210.945 176.277 212.572 176.825 214.082L174.867 214.747ZM194.807 213.713L186.582 213.739L186.745 211.805L195.164 211.772L197.38 199.71L199.528 200.105L197.388 211.754L199.307 211.765L199.144 213.699L197.031 213.695L196.112 218.693L193.964 218.299L194.807 213.713ZM194.318 205.681C193.38 204.128 192.361 202.624 191.262 201.169L193.003 200.059C194.2 201.602 195.228 203.094 196.088 204.533L194.318 205.681ZM192.13 210.617C191.205 209.066 190.091 207.424 188.787 205.689L190.511 204.554C191.913 206.378 193.042 208.016 193.9 209.469L192.13 210.617ZM188.572 204.881L188.242 206.678L186.259 206.314C187.033 208.919 187.497 210.499 187.652 211.054L185.948 211.958L185.132 208.733L183.72 216.416L181.654 216.037L182.869 209.427C181.938 211.007 180.915 212.314 179.8 213.347L179.056 211.118C180.81 209.476 182.192 207.687 183.203 205.752L180.6 205.274L180.93 203.477L183.863 204.016L185.07 197.448L187.136 197.827L185.929 204.395L188.572 204.881ZM181.742 198.246L183.619 198.142C183.757 199.634 183.818 201.282 183.799 203.086L181.988 203.18C181.96 201.552 181.878 199.908 181.742 198.246ZM186.306 203.504C187.142 201.978 187.801 200.441 188.285 198.893L190.081 199.458C189.503 201.131 188.793 202.751 187.95 204.318L186.306 203.504ZM211.53 218.217C213.149 218.315 214.482 217.919 215.528 217.03C216.59 216.129 217.283 214.797 217.607 213.035C217.898 211.451 217.631 210.036 216.807 208.788C215.986 207.527 214.788 206.688 213.213 206.27C212.411 208.856 211.623 211.01 210.851 212.733C210.093 214.458 209.359 215.74 208.65 216.577C207.941 217.415 207.277 217.969 206.658 218.24C206.053 218.513 205.419 218.589 204.759 218.467C203.698 218.272 202.841 217.474 202.188 216.073C201.534 214.672 201.372 213.076 201.701 211.286C202.184 208.656 203.471 206.687 205.563 205.377C207.656 204.054 210.149 203.658 213.04 204.189C215.367 204.616 217.154 205.699 218.401 207.437C219.661 209.178 220.085 211.17 219.672 213.414C219.242 215.755 218.297 217.532 216.835 218.743C215.391 219.944 213.64 220.448 211.583 220.255L211.53 218.217ZM211.046 205.979C209.148 205.929 207.542 206.417 206.229 207.443C204.919 208.454 204.098 209.862 203.766 211.666C203.551 212.836 203.605 213.9 203.928 214.856C204.266 215.8 204.67 216.316 205.138 216.402C205.358 216.442 205.602 216.395 205.869 216.259C206.138 216.109 206.465 215.806 206.847 215.349C207.246 214.882 207.65 214.273 208.059 213.522C208.481 212.774 208.953 211.751 209.477 210.452C210 209.153 210.523 207.662 211.046 205.979ZM91.1955 216.575L87.7875 215.949L87.0968 219.708L90.5047 220.334L91.1955 216.575ZM87.5758 206.644L89.6066 207.444C89.2497 208.147 88.9682 208.672 88.7622 209.018L101.031 211.272L100.689 213.131L94.3897 211.974L93.809 215.134L99.4889 216.178L99.1473 218.036L93.4674 216.993L92.7767 220.752L100.006 222.08L99.6565 223.98L92.4275 222.652L91.6381 226.948L89.3662 226.531L90.1556 222.234L80.8612 220.527L81.2103 218.626L84.9281 219.31L85.9604 213.692L91.537 214.716L92.1177 211.556L87.6771 210.74C86.4891 212.558 85.1655 214.222 83.7064 215.733L82.1616 214.147C84.3183 211.938 86.123 209.437 87.5758 206.644ZM108.835 225.155L108.593 226.476L113.343 227.349L113.586 226.027L108.835 225.155ZM109.124 223.585L113.874 224.458L114.102 223.218L109.352 222.346L109.124 223.585ZM106.03 215.671L105.757 217.158L109.743 217.891L110.016 216.404L106.03 215.671ZM106.296 214.226L110.282 214.958L110.559 213.45L106.573 212.718L106.296 214.226ZM119.579 218.161L115.386 217.391L115.113 218.878L119.306 219.648L119.579 218.161ZM119.845 216.715L120.122 215.208L115.929 214.437L115.652 215.945L119.845 216.715ZM101.438 228.578L104.747 210.568L113.009 212.086L111.586 219.831L105.472 218.708L103.586 228.973L101.438 228.578ZM116.365 231.236C116.228 231.21 116.043 231.169 115.812 231.112C115.594 231.058 115.274 230.978 114.852 230.872C114.442 230.782 114.059 230.698 113.703 230.618L113.894 229.116L108.297 228.087L108.107 229.12L106.041 228.741L107.59 220.314L116.471 221.946L115.166 229.051C115.932 229.22 116.321 229.306 116.335 229.308C116.886 229.41 117.225 229.422 117.353 229.346C117.484 229.256 117.597 228.949 117.693 228.426L119.021 221.197L112.701 220.036L114.124 212.291L122.593 213.847L119.852 228.759C119.602 230.122 119.289 230.933 118.914 231.191C118.551 231.466 117.701 231.481 116.365 231.236ZM136.675 223.31L138.941 223.064C139.528 226.375 139.939 230.066 140.173 234.137L137.776 234.166C137.557 230.169 137.19 226.55 136.675 223.31ZM129.255 216.864L131.5 217.426C130.04 222.738 127.587 227.454 124.139 231.575L122.231 230.221C125.487 226.293 127.828 221.84 129.255 216.864ZM141.284 217.516C141.745 218.184 141.902 218.918 141.755 219.716C141.609 220.515 141.201 221.145 140.533 221.606C139.864 222.066 139.131 222.223 138.332 222.077C137.534 221.93 136.904 221.522 136.443 220.854C135.982 220.186 135.825 219.452 135.972 218.654C136.119 217.855 136.526 217.225 137.195 216.765C137.863 216.304 138.596 216.147 139.395 216.294C140.194 216.44 140.823 216.848 141.284 217.516ZM139.639 220.31C139.949 220.096 140.138 219.804 140.206 219.432C140.275 219.06 140.202 218.719 139.988 218.41C139.775 218.1 139.482 217.911 139.11 217.843C138.739 217.774 138.398 217.847 138.088 218.06C137.779 218.274 137.59 218.567 137.521 218.938C137.453 219.31 137.526 219.651 137.739 219.961C137.953 220.27 138.245 220.459 138.617 220.528C138.989 220.596 139.33 220.523 139.639 220.31ZM148.271 222.024L148.639 220.02L161.651 222.412L161.283 224.415C159.906 226.482 158.102 228.364 155.868 230.06C157.598 232.343 159.235 234.629 160.778 236.92L159.001 238.109C157.39 235.721 155.767 233.437 154.132 231.257C151.308 233.073 148.254 234.433 144.97 235.339L144.326 233.384C147.518 232.433 150.358 231.155 152.845 229.548C155.335 227.927 157.349 226.069 158.887 223.975L148.271 222.024ZM176.42 229.182L174.713 238.477C174.49 239.688 174.191 240.423 173.816 240.682C173.453 240.957 172.686 240.987 171.515 240.772C170.551 240.594 169.459 240.301 168.239 239.892L168.823 237.992C169.856 238.339 170.716 238.575 171.404 238.701C171.845 238.782 172.109 238.781 172.195 238.697C172.296 238.616 172.395 238.307 172.494 237.77L174.148 228.765L166.61 227.379L166.97 225.417L174.509 226.803L175.116 223.498L177.388 223.915L176.781 227.22L180.499 227.903C180.246 227.344 180.175 226.762 180.286 226.156C180.433 225.357 180.84 224.728 181.509 224.267C182.177 223.806 182.91 223.649 183.709 223.796C184.508 223.943 185.137 224.35 185.598 225.018C186.059 225.687 186.216 226.42 186.069 227.219C185.958 227.825 185.685 228.344 185.249 228.776C184.814 229.209 184.302 229.477 183.713 229.583L183.546 230.492L176.42 229.182ZM168.985 229.908L170.9 230.986C169.426 233.278 167.844 235.499 166.153 237.651L164.333 236.399C165.991 234.269 167.542 232.106 168.985 229.908ZM178.25 232.358L180.384 231.896C181.168 234.603 181.852 237.269 182.437 239.896L180.261 240.35C179.647 237.576 178.976 234.911 178.25 232.358ZM183.953 227.812C184.263 227.598 184.452 227.306 184.52 226.934C184.588 226.562 184.516 226.222 184.302 225.912C184.089 225.602 183.796 225.413 183.424 225.345C183.052 225.277 182.712 225.349 182.402 225.563C182.092 225.776 181.903 226.069 181.835 226.441C181.767 226.812 181.839 227.153 182.053 227.463C182.266 227.773 182.559 227.962 182.931 228.03C183.303 228.098 183.643 228.026 183.953 227.812ZM186.815 235.939L187.214 233.77L204.15 236.883L203.752 239.051L186.815 235.939ZM212.528 230.799L214.8 231.217L213.714 237.124C217.281 238.705 220.868 240.567 224.474 242.71L223.392 244.646C220.019 242.631 216.656 240.867 213.304 239.355L211.688 248.153L209.416 247.736L212.528 230.799ZM127.166 245.662L126.805 247.624L121.848 246.713C121.162 250.373 119.981 253.003 118.306 254.603C116.632 256.203 114.269 257.014 111.219 257.037L110.948 255.023C113.485 255.005 115.414 254.349 116.733 253.054C118.056 251.746 119.017 249.495 119.618 246.303L113.504 245.18C112.532 246.752 111.262 248.163 109.695 249.412L108.185 247.982C110.704 245.897 112.477 243.176 113.507 239.821L115.587 240.353C115.301 241.368 114.933 242.361 114.484 243.332L127.166 245.662ZM122.862 241.199L124.534 240.695C124.931 241.792 125.294 242.912 125.625 244.055L123.956 244.538C123.638 243.483 123.273 242.37 122.862 241.199ZM125.852 241.428L127.566 240.931C128.008 242.166 128.381 243.309 128.686 244.361L126.976 244.837C126.707 243.976 126.332 242.84 125.852 241.428ZM143.9 249.762L145.946 250.245C145.089 254.443 143.689 257.338 141.745 258.931C139.817 260.513 136.92 261.176 133.052 260.921L132.988 258.945C134.739 259.025 136.191 258.943 137.346 258.7C138.515 258.459 139.535 257.984 140.405 257.276C141.278 256.554 141.98 255.601 142.51 254.417C143.044 253.22 143.507 251.668 143.9 249.762ZM132.328 248.596L134.37 248.523C134.554 250.308 134.713 252.23 134.847 254.29L132.764 254.356C132.657 252.457 132.512 250.537 132.328 248.596ZM136.912 248.862L138.995 248.797C139.159 250.464 139.307 252.448 139.439 254.75L137.356 254.815C137.26 252.933 137.112 250.949 136.912 248.862ZM155.496 247.772L157.768 248.189L156.683 254.096C160.25 255.677 163.836 257.539 167.442 259.682L166.361 261.618C162.987 259.603 159.625 257.84 156.273 256.327L154.656 265.126L152.384 264.708L155.496 247.772ZM180.233 253.171L182.918 253.665L180.634 264.348L178.569 263.968L180.233 253.171ZM177.565 268.268L178.059 265.583L180.537 266.038L180.044 268.723L177.565 268.268Z" fill="black"/>
<defs>
<clipPath id="clip0_5_9347">
<rect width="323.162" height="285" fill="white" transform="translate(107.676 9.31055) rotate(16.0639)"/>
</clipPath>
</defs>
</svg>
