<svg width="53" height="52" viewBox="0 0 53 52" fill="none" xmlns="http://www.w3.org/2000/svg">
<rect x="0.666626" width="52" height="52" rx="26" fill="url(#paint0_linear_17002_706)"/>
<path fill-rule="evenodd" clip-rule="evenodd" d="M34.2225 12.5533C35.0037 11.7721 36.0632 11.3333 37.168 11.3333C38.2728 11.3333 39.3323 11.7721 40.1135 12.5533C40.8947 13.3345 41.3335 14.394 41.3335 15.4988C41.3335 16.6036 40.8947 17.6631 40.1135 18.4443L33.4297 25.1227C32.9546 25.5978 32.3668 25.9463 31.7217 26.1347L27.8947 27.2508C27.8947 27.2508 27.8947 27.2508 27.8947 27.2508C27.5505 27.3512 27.1856 27.3572 26.8383 27.2682C26.491 27.1792 26.174 26.9985 25.9205 26.745C25.6669 26.4915 25.4862 26.1745 25.3972 25.8271C25.3083 25.4798 25.3143 25.115 25.4147 24.7708C25.4147 24.7708 25.4147 24.7708 25.4147 24.7708L26.5307 20.9441C26.7191 20.2988 27.0673 19.711 27.5428 19.2357L34.2225 12.5533ZM36.1081 14.4389C36.1081 14.439 36.1082 14.4389 36.1081 14.4389L29.4283 21.1214C29.2699 21.2797 29.1535 21.4758 29.0907 21.6907C29.0906 21.6909 29.0907 21.6906 29.0907 21.6907L28.315 24.3504L30.9743 23.5749C30.9741 23.5749 30.9744 23.5749 30.9743 23.5749C31.1892 23.5121 31.3853 23.396 31.5436 23.2376L38.2279 16.5586C38.5089 16.2775 38.6669 15.8963 38.6669 15.4988C38.6669 15.1013 38.5089 14.72 38.2279 14.4389C37.9468 14.1578 37.5655 13.9999 37.168 13.9999C36.7705 13.9999 36.3892 14.1579 36.1081 14.4389ZM15.8382 12.505C16.5884 11.7549 17.6058 11.3335 18.6667 11.3335H28.5333C29.2697 11.3335 29.8667 11.9304 29.8667 12.6668C29.8667 13.4032 29.2697 14.0001 28.5333 14.0001H18.6667C18.313 14.0001 17.9739 14.1406 17.7239 14.3906C17.4738 14.6407 17.3333 14.9798 17.3333 15.3334V16.6668H18.6667C19.403 16.6668 20 17.2637 20 18.0001C20 18.7365 19.403 19.3334 18.6667 19.3334H17.3333V22.0001H18.6667C19.403 22.0001 20 22.5971 20 23.3334C20 24.0698 19.403 24.6668 18.6667 24.6668H17.3333V27.3334H18.6667C19.403 27.3334 20 27.9304 20 28.6668C20 29.4032 19.403 30.0001 18.6667 30.0001H17.3333V32.6668H18.6667C19.403 32.6668 20 33.2637 20 34.0001C20 34.7365 19.403 35.3334 18.6667 35.3334H17.3333V36.6668C17.3333 37.0204 17.4738 37.3595 17.7239 37.6096C17.9739 37.8596 18.313 38.0001 18.6667 38.0001H34.6667C35.0203 38.0001 35.3594 37.8596 35.6095 37.6096C35.8595 37.3595 36 37.0204 36 36.6668V26.8001C36 26.0637 36.597 25.4668 37.3333 25.4668C38.0697 25.4668 38.6667 26.0637 38.6667 26.8001V36.6668C38.6667 37.7276 38.2452 38.7451 37.4951 39.4952C36.7449 40.2454 35.7275 40.6668 34.6667 40.6668H18.6667C17.6058 40.6668 16.5884 40.2454 15.8382 39.4952C15.0881 38.7451 14.6667 37.7276 14.6667 36.6668V35.3334H13.3333C12.597 35.3334 12 34.7365 12 34.0001C12 33.2637 12.597 32.6668 13.3333 32.6668H14.6667V30.0001H13.3333C12.597 30.0001 12 29.4032 12 28.6668C12 27.9304 12.597 27.3334 13.3333 27.3334H14.6667V24.6668H13.3333C12.597 24.6668 12 24.0698 12 23.3334C12 22.5971 12.597 22.0001 13.3333 22.0001H14.6667V19.3334H13.3333C12.597 19.3334 12 18.7365 12 18.0001C12 17.2637 12.597 16.6668 13.3333 16.6668H14.6667V15.3334C14.6667 14.2726 15.0881 13.2552 15.8382 12.505Z" fill="white"/>
<defs>
<linearGradient id="paint0_linear_17002_706" x1="0.666626" y1="26" x2="52.6666" y2="26" gradientUnits="userSpaceOnUse">
<stop stop-color="#D9748F"/>
<stop offset="1" stop-color="#0059BA"/>
</linearGradient>
</defs>
</svg>
