<svg width="53" height="52" viewBox="0 0 53 52" fill="none" xmlns="http://www.w3.org/2000/svg">
<rect x="0.333374" width="52" height="52" rx="26" fill="url(#paint0_linear_17002_697)"/>
<path fill-rule="evenodd" clip-rule="evenodd" d="M16.4595 12.655C17.3115 11.8071 18.4646 11.3311 19.6666 11.3311C20.8687 11.3311 22.0218 11.8071 22.8738 12.655L22.8761 12.6572L27.6758 17.457L29.2687 15.8638C29.3055 15.8151 29.3461 15.7683 29.3905 15.7239C29.4348 15.6796 29.4815 15.639 29.5301 15.6023L32.3077 12.824C33.2628 11.8692 34.5582 11.3327 35.9086 11.3329C37.2591 11.3331 38.5541 11.8697 39.5089 12.8247C40.4637 13.7797 41 15.0749 40.9998 16.4254C40.9997 17.7758 40.463 19.0709 39.508 20.0257L36.732 22.802C36.695 22.8511 36.6542 22.8982 36.6095 22.9429C36.5648 22.9875 36.5178 23.0283 36.4688 23.0653L34.8766 24.6577L37.9417 27.7228C37.9421 27.7232 37.9424 27.7235 37.9428 27.7239C37.9432 27.7243 37.9435 27.7247 37.9439 27.725L39.6761 29.4573C41.4502 31.2313 41.4502 34.1022 39.6761 35.8762L36.2095 39.3429C34.4354 41.1169 31.5645 41.1169 29.7905 39.3429L24.9917 34.5441L21.7122 37.8241L21.7106 37.8257C21.247 38.2879 20.677 38.6292 20.0506 38.8197L14.2425 40.581C13.8967 40.6849 13.5292 40.6933 13.1791 40.6053C12.829 40.5172 12.5092 40.3361 12.2537 40.081C11.9982 39.8259 11.8165 39.5064 11.7279 39.1564C11.6393 38.8063 11.6471 38.4389 11.7505 38.093L11.7521 38.0875L13.5135 32.2848L13.5146 32.2812C13.7066 31.6548 14.0497 31.0851 14.5135 30.6223C14.5138 30.6219 14.5142 30.6216 14.5146 30.6212L17.7913 27.3437L12.9905 22.5429L12.9882 22.5406C12.1403 21.6886 11.6643 20.5354 11.6643 19.3334C11.6643 18.1314 12.1403 16.9782 12.9882 16.1262L12.9905 16.1239L16.4595 12.655ZM19.6767 25.4579L25.7904 19.3428L23.6666 17.219L21.9428 18.9429C21.4221 19.4636 20.5779 19.4636 20.0572 18.9429C19.5365 18.4222 19.5365 17.578 20.0572 17.0573L21.781 15.3334L20.9928 14.5451C20.9925 14.5448 20.9931 14.5455 20.9928 14.5451C20.6406 14.1951 20.1632 13.9977 19.6666 13.9977C19.1701 13.9977 18.6937 14.1942 18.3415 14.5442C18.3411 14.5445 18.3408 14.5448 18.3405 14.5451L14.8784 18.0073C14.8781 18.0076 14.8778 18.0079 14.8775 18.0082C14.5274 18.3604 14.331 18.8368 14.331 19.3334C14.331 19.83 14.5275 20.3064 14.8775 20.6586C14.8772 20.6583 14.8778 20.6589 14.8775 20.6586L19.6767 25.4579ZM26.8772 32.6583L31.6761 37.4572C32.4088 38.1899 33.5912 38.1899 34.3238 37.4572L37.7905 33.9906C38.5231 33.2579 38.5231 32.0755 37.7905 31.3429L37 30.5523L35.2761 32.2762C34.7554 32.7969 33.9112 32.7969 33.3905 32.2762C32.8698 31.7555 32.8698 30.9113 33.3905 30.3906L35.1144 28.6667L32.9911 26.5435L26.8772 32.6583ZM35.6575 20.1053L37.6224 18.14C38.0773 17.6852 38.3331 17.0682 38.3332 16.425C38.3332 15.7818 38.0778 15.165 37.6231 14.7101C37.1683 14.2552 36.5515 13.9996 35.9083 13.9996C35.2652 13.9995 34.6484 14.2548 34.1936 14.7094C34.1935 14.7095 34.1936 14.7094 34.1936 14.7094L32.2278 16.6756L35.6575 20.1053ZM30.3424 18.5614L33.772 21.991L19.828 35.9371C19.8277 35.9374 19.8283 35.9368 19.828 35.9371C19.6736 36.0907 19.483 36.2051 19.2747 36.2684L14.667 37.6657L16.0641 33.0629C16.0642 33.0624 16.0644 33.0619 16.0645 33.0614C16.1287 32.853 16.243 32.6635 16.3974 32.5096L16.3989 32.5081L30.3424 18.5614Z" fill="white"/>
<defs>
<linearGradient id="paint0_linear_17002_697" x1="0.333374" y1="26" x2="52.3334" y2="26" gradientUnits="userSpaceOnUse">
<stop stop-color="#D9748F"/>
<stop offset="1" stop-color="#0059BA"/>
</linearGradient>
</defs>
</svg>
