<svg width="52" height="52" viewBox="0 0 52 52" fill="none" xmlns="http://www.w3.org/2000/svg">
<rect width="52" height="52" rx="26" fill="url(#paint0_linear_17002_688)"/>
<path fill-rule="evenodd" clip-rule="evenodd" d="M31.8563 16.654C32.7089 15.9799 33.927 15.3333 35.3333 15.3333C36.0696 15.3333 36.6666 15.9302 36.6666 16.6666V20.1223C37.0947 20.579 37.5578 21.1709 37.8099 21.9999H39.3333C40.0696 21.9999 40.6666 22.5969 40.6666 23.3333V28.6666C40.6666 29.403 40.0696 29.9999 39.3333 29.9999H37.5513C37.0168 30.9844 36.2121 31.6239 35.3333 32.1321V36.6666C35.3333 37.403 34.7363 37.9999 33.9999 37.9999H28.6666C27.9302 37.9999 27.3333 37.403 27.3333 36.6666V35.3333H25.9999V36.6666C25.9999 37.403 25.403 37.9999 24.6666 37.9999H19.3333C18.5969 37.9999 17.9999 37.403 17.9999 36.6666V32.6449C16.8423 31.677 16.1303 30.6987 15.7418 29.5914C15.479 28.8424 15.3851 28.0796 15.3516 27.3333H15.3333C13.1302 27.3333 11.3333 25.5363 11.3333 23.3333V21.9999C11.3333 21.2635 11.9302 20.6666 12.6666 20.6666C13.403 20.6666 13.9999 21.2635 13.9999 21.9999V23.3333C13.9999 24.0635 14.603 24.6666 15.3333 24.6666H15.4374C16.0056 21.1377 18.8154 19.0114 21.8262 18.0024C24.741 17.0255 28.1635 16.9588 30.7695 17.72C31.0606 17.3617 31.4292 16.9917 31.8563 16.654ZM23.3333 35.3333V33.9999C23.3333 33.2635 23.9302 32.6666 24.6666 32.6666H28.6666C29.403 32.6666 29.9999 33.2635 29.9999 33.9999V35.3333H32.6666V31.3333C32.6666 30.8282 32.9519 30.3665 33.4036 30.1407C34.6544 29.5153 35.1543 29.0675 35.3895 28.2835C35.5587 27.7195 36.0778 27.3333 36.6666 27.3333H37.9999V24.6666H36.6666C35.9302 24.6666 35.3333 24.0696 35.3333 23.3333C35.3333 22.5862 35.0431 22.2621 34.3904 21.6094C34.1404 21.3593 33.9999 21.0202 33.9999 20.6666V18.4098C33.8333 18.5073 33.6692 18.6201 33.5102 18.7458C33.2299 18.9674 32.9969 19.2053 32.8285 19.4148C32.6725 19.6087 32.6126 19.7271 32.6003 19.7514C32.598 19.756 32.5974 19.7572 32.5982 19.7549C32.4802 20.1086 32.2196 20.3968 31.8795 20.5496C31.5393 20.7023 31.1507 20.7057 30.808 20.5588C28.8222 19.7077 25.4984 19.5841 22.6736 20.5308C19.8796 21.4672 17.9999 23.2684 17.9999 25.9999C17.9999 27.2506 18.0136 28.0117 18.2581 28.7085C18.4797 29.3402 18.9438 30.0412 20.1333 30.9333C20.469 31.1851 20.6666 31.5802 20.6666 31.9999V35.3333H23.3333ZM29.9999 24.6666C29.9999 23.9302 30.5969 23.3333 31.3333 23.3333H31.3466C32.083 23.3333 32.6799 23.9302 32.6799 24.6666C32.6799 25.403 32.083 25.9999 31.3466 25.9999H31.3333C30.5969 25.9999 29.9999 25.403 29.9999 24.6666Z" fill="white"/>
<defs>
<linearGradient id="paint0_linear_17002_688" x1="0" y1="26" x2="52" y2="26" gradientUnits="userSpaceOnUse">
<stop stop-color="#D9748F"/>
<stop offset="1" stop-color="#0059BA"/>
</linearGradient>
</defs>
</svg>
