<svg width="544" height="543" viewBox="0 0 544 543" fill="none" xmlns="http://www.w3.org/2000/svg">
<path d="M132.951 62.1055L120.566 70.9671L108.904 54.6684L113.828 51.1533L122.695 63.5485L130.174 58.2019L132.969 62.1055H132.951Z" fill="white"/>
<path d="M144.835 47.6196L135.986 53.0217C136.634 53.6877 137.43 54.0392 138.411 54.1132C139.374 54.1872 140.3 53.9652 141.151 53.4472C142.651 52.5407 144.039 51.0977 145.335 49.1552L147.019 51.9117C146.575 52.6517 145.983 53.4287 145.224 54.2797C144.465 55.1122 143.372 55.9817 141.947 56.8513C140.411 57.7948 138.911 58.3128 137.467 58.4053C136.023 58.4978 134.746 58.2018 133.598 57.5543C132.451 56.9068 131.507 55.9447 130.748 54.6867C129.989 53.4472 129.581 52.1892 129.526 50.8757C129.47 49.5807 129.822 48.3042 130.562 47.1016C131.303 45.8806 132.451 44.8076 134.006 43.8641C135.024 43.2351 136.153 42.8651 137.356 42.7171C138.578 42.5691 139.8 42.8096 141.022 43.4386C142.243 44.0676 143.335 45.1591 144.298 46.7501L144.835 47.6381V47.6196ZM139.318 47.9712C138.819 47.1571 138.226 46.6391 137.541 46.3986C136.838 46.1581 136.134 46.2691 135.375 46.7316C134.635 47.1756 134.191 47.7862 134.024 48.5632C133.858 49.3402 134.024 50.1172 134.505 50.8942L139.3 47.9527L139.318 47.9712Z" fill="white"/>
<path d="M160.144 45.4549C159.792 45.9359 159.237 46.5094 158.515 47.1569C157.793 47.8044 157.034 48.3409 156.275 48.7479C152.962 50.5054 150.444 49.7469 148.741 46.5094L146.001 41.3293L143.909 42.4208L143.484 41.6068L146.334 32.0607L146.853 31.7832L148.907 35.6868L153.313 33.3557L154.998 36.5563L150.592 38.8873L152.795 43.0498C153.054 43.5308 153.295 43.9193 153.498 44.1783C153.72 44.4374 154.017 44.6039 154.405 44.6594C154.794 44.7149 155.257 44.5854 155.831 44.2894C156.571 43.9008 157.367 43.0868 158.237 41.8473L160.144 45.4364V45.4549Z" fill="white"/>
<path d="M160.44 27.9907L161.44 32.2273L157.812 33.9478L155.146 30.4883L153.665 27.3432L158.959 24.8457L160.459 27.9907H160.44Z" fill="white"/>
<path d="M179.1 33.3188C179.618 34.5584 179.581 35.7609 179.007 36.9264C178.415 38.0919 177.23 39.0354 175.435 39.7939C174.435 40.2194 173.491 40.4969 172.639 40.6449C171.788 40.7929 170.825 40.8854 169.752 40.9409L168.326 37.5369C169.326 37.6664 170.177 37.7219 170.881 37.7034C171.584 37.7034 172.288 37.5369 172.991 37.2409C174.194 36.7414 174.657 36.1679 174.379 35.5019C174.287 35.2799 174.12 35.1134 173.88 35.0209C173.639 34.9284 173.25 34.8544 172.732 34.8174C172.214 34.7804 171.529 34.7619 170.677 34.7619C169.622 34.7619 168.641 34.5399 167.752 34.1329C166.845 33.7443 166.197 33.0598 165.809 32.1163C165.531 31.4318 165.457 30.7103 165.605 29.9148C165.753 29.1193 166.16 28.3423 166.845 27.6023C167.512 26.8623 168.437 26.2333 169.622 25.7337C169.9 25.6227 170.27 25.4747 170.733 25.3452C171.195 25.1972 171.788 25.0677 172.528 24.9567C173.269 24.8457 174.009 24.8087 174.75 24.8827L176.138 28.1943C175.786 28.1388 175.49 28.1018 175.249 28.0648C175.009 28.0278 174.694 28.0093 174.324 27.9908C173.935 27.9908 173.509 28.0093 173.047 28.0833C172.565 28.1573 172.102 28.2868 171.658 28.4718C171.103 28.6938 170.77 28.9713 170.659 29.2673C170.547 29.5633 170.529 29.8223 170.622 30.0443C170.714 30.2663 170.899 30.4328 171.195 30.5253C171.492 30.6363 172.065 30.6733 172.917 30.6363C174.157 30.5993 175.194 30.6548 176.008 30.8213C176.823 30.9878 177.489 31.2653 177.971 31.6723C178.452 32.0793 178.841 32.6343 179.137 33.3373L179.1 33.3188Z" fill="white"/>
<path d="M206.627 28.7125L201.628 30.2295L201.24 28.953C200.851 29.5635 200.407 30.0815 199.907 30.544C199.407 31.0065 198.648 31.395 197.611 31.7095C196.593 32.024 195.501 32.0795 194.372 31.8575C193.243 31.6355 192.188 31.099 191.206 30.2295C190.244 29.3415 189.522 28.0835 189.022 26.4555C188.633 25.179 188.504 23.9024 188.652 22.6259C188.8 21.3679 189.263 20.2209 190.077 19.2034C190.892 18.1859 192.039 17.4644 193.52 17.0019C194.446 16.7244 195.223 16.5949 195.853 16.6319C196.482 16.6689 197.075 16.7614 197.611 16.9464L195.816 11.0263L200.814 9.50928L206.627 28.6755V28.7125ZM200.277 25.7525L198.648 20.3689C197.963 20.2209 197.445 20.1284 197.075 20.0914C196.704 20.0544 196.297 20.0914 195.853 20.2394C195.075 20.4799 194.52 21.0164 194.205 21.8304C193.891 22.6444 193.891 23.6434 194.242 24.772C194.613 26.0115 195.168 26.844 195.89 27.2325C196.612 27.6395 197.334 27.732 198.056 27.51C198.648 27.325 199.111 27.0845 199.426 26.7885C199.74 26.4925 200.018 26.141 200.277 25.7525Z" fill="white"/>
<path d="M210.495 9.19454C210.644 9.78655 210.551 10.3416 210.236 10.8596C209.922 11.3776 209.459 11.7106 208.885 11.8401C208.496 11.9326 208.108 11.9326 207.737 11.8216C207.367 11.7106 207.052 11.5256 206.793 11.2481C206.534 10.9706 206.349 10.6376 206.256 10.2491C206.108 9.67555 206.201 9.12054 206.515 8.60254C206.83 8.08453 207.274 7.75153 207.867 7.60353C208.441 7.45552 208.996 7.54802 209.514 7.86253C210.033 8.17703 210.366 8.63954 210.514 9.21304L210.495 9.19454ZM215.197 26.6958L210.125 27.9353L206.645 13.6346L211.717 12.3951L215.197 26.6958Z" fill="white"/>
<path d="M231.191 8.49165L227.341 24.1798L223.565 24.8828L214.401 11.6367L219.899 10.6007L224.324 17.6123L226.23 9.41666L231.21 8.47314L231.191 8.49165Z" fill="white"/>
<path d="M249.851 14.9298L239.559 16.1323C239.873 17.0019 240.447 17.6679 241.299 18.1489C242.15 18.6299 243.076 18.7964 244.075 18.6854C245.816 18.4819 247.685 17.7604 249.684 16.5394L250.055 19.7399C249.351 20.2209 248.463 20.6834 247.426 21.1274C246.389 21.5714 245.038 21.9044 243.372 22.0894C241.576 22.2929 240.003 22.1449 238.652 21.6269C237.3 21.1089 236.264 20.3134 235.486 19.2404C234.727 18.1674 234.264 16.9094 234.079 15.4478C233.913 14.0048 234.079 12.6913 234.561 11.4888C235.06 10.2863 235.893 9.28727 237.078 8.49176C238.263 7.69625 239.762 7.19674 241.558 6.99324C242.743 6.84524 243.927 6.99324 245.094 7.36324C246.26 7.75175 247.259 8.47326 248.111 9.56477C248.963 10.6378 249.499 12.0993 249.703 13.9308L249.833 14.9668L249.851 14.9298ZM244.705 12.9503C244.594 12.0068 244.279 11.2853 243.742 10.7858C243.205 10.2863 242.502 10.0828 241.632 10.1753C240.762 10.2678 240.114 10.6378 239.633 11.2668C239.17 11.8958 238.985 12.6728 239.096 13.5978L244.686 12.9503H244.705Z" fill="white"/>
<path d="M267.53 20.2207L262.309 20.3687L261.884 5.66107L267.104 5.51307L267.53 20.2207ZM266.586 2.12753C266.586 2.73803 266.4 3.25604 265.975 3.70004C265.549 4.14405 265.049 4.36605 264.438 4.38455C264.031 4.38455 263.661 4.31055 263.328 4.12555C262.994 3.94055 262.717 3.68154 262.513 3.36704C262.309 3.03404 262.198 2.68253 262.198 2.27553C262.198 1.68352 262.383 1.16551 262.791 0.703008C263.198 0.259003 263.716 0.0185002 264.327 0C264.92 0 265.438 0.185002 265.901 0.610507C266.363 1.03601 266.586 1.53552 266.604 2.14603L266.586 2.12753Z" fill="white"/>
<path d="M286.819 20.48L281.617 20.3505L281.821 12.4139C281.839 11.5999 281.728 10.8969 281.469 10.2864C281.21 9.67586 280.654 9.36136 279.747 9.34286C279.322 9.34286 278.951 9.39836 278.618 9.54636C278.285 9.69436 277.989 9.89786 277.73 10.1384C277.47 10.3789 277.248 10.6194 277.063 10.8414C276.878 11.0634 276.693 11.3039 276.508 11.5629L276.286 20.2025L271.084 20.073L271.454 5.36531L276.656 5.49481L276.6 7.60383C277.433 6.75282 278.285 6.16082 279.118 5.82781C279.951 5.49481 280.877 5.34681 281.895 5.36531C285.43 5.45781 287.133 7.60383 287.022 11.8219L286.8 20.4615L286.819 20.48Z" fill="white"/>
<path d="M301.535 20.9239C300.98 21.1274 300.203 21.3124 299.24 21.4789C298.277 21.6269 297.352 21.6639 296.5 21.5899C292.761 21.2569 291.058 19.2589 291.391 15.6143L291.928 9.76825L289.577 9.56475L289.651 8.65824L297.241 2.20166L297.833 2.25716L297.444 6.64171L302.405 7.08572L302.091 10.6748L297.13 10.2308L296.704 14.9298C296.648 15.4848 296.648 15.9288 296.704 16.2618C296.741 16.6133 296.907 16.9093 297.204 17.1498C297.5 17.4088 297.963 17.5568 298.592 17.6123C299.425 17.6863 300.536 17.4458 301.943 16.8723L301.572 20.9239H301.535Z" fill="white"/>
<path d="M320.899 17.2238C320.676 18.6668 320.158 19.9063 319.344 20.9424C318.529 21.9784 317.455 22.7184 316.104 23.1809C314.753 23.6434 313.179 23.7359 311.365 23.4584C309.551 23.1809 308.089 22.6074 306.941 21.7564C305.793 20.9054 304.997 19.8693 304.553 18.6298C304.109 17.3903 303.997 16.0583 304.22 14.6153C304.386 13.5238 304.719 12.5618 305.201 11.7107C305.682 10.8782 306.348 10.1567 307.163 9.58322C307.977 9.00972 308.94 8.60271 310.032 8.39921C311.124 8.19571 312.365 8.19571 313.716 8.39921C315.086 8.62121 316.271 8.99122 317.27 9.52772C318.27 10.0642 319.047 10.7302 319.64 11.5072C320.232 12.2843 320.621 13.1723 320.843 14.1158C321.065 15.0593 321.065 16.0953 320.899 17.2053V17.2238ZM315.475 16.3913C315.66 15.2443 315.549 14.3008 315.141 13.5608C314.734 12.8208 314.068 12.3953 313.124 12.2473C312.18 12.0993 311.402 12.3213 310.81 12.8948C310.199 13.4683 309.81 14.3378 309.643 15.4848C309.458 16.6318 309.569 17.5753 309.977 18.3153C310.384 19.0553 311.05 19.4993 311.976 19.6473C312.92 19.7953 313.698 19.5733 314.308 18.9998C314.919 18.4263 315.308 17.5568 315.475 16.3913Z" fill="white"/>
<path d="M368.695 17.1497L354.442 34.0034L351.091 32.9859L349.573 20.1653L341.002 29.8964L337.633 28.8604L335.467 6.97461L341.446 8.80613L342.168 20.6463L349.98 11.4332L354.108 12.7097L355.33 24.6978L362.753 15.3552L368.677 17.1682L368.695 17.1497Z" fill="white"/>
<path d="M380.524 37.685L370.991 33.6334C370.824 34.5399 370.991 35.4094 371.509 36.242C372.009 37.0745 372.731 37.685 373.656 38.0735C375.267 38.758 377.248 39.0725 379.58 38.9985L378.321 41.9585C377.47 42.0325 376.47 41.9955 375.36 41.866C374.23 41.7365 372.898 41.348 371.361 40.682C369.695 39.979 368.399 39.054 367.492 37.944C366.585 36.834 366.067 35.6129 365.937 34.2994C365.808 32.9859 366.03 31.6539 366.604 30.3034C367.177 28.9714 367.973 27.8984 368.992 27.1028C370.01 26.3073 371.25 25.8448 372.675 25.7523C374.101 25.6598 375.656 25.9558 377.322 26.6588C378.414 27.1213 379.377 27.8244 380.21 28.7309C381.024 29.6374 381.542 30.7844 381.746 32.1349C381.95 33.4854 381.691 35.0209 380.969 36.723L380.561 37.685H380.524ZM377.026 33.4114C377.396 32.5419 377.47 31.7649 377.266 31.0619C377.063 30.3589 376.544 29.8409 375.748 29.4894C374.952 29.1564 374.193 29.1379 373.471 29.4524C372.749 29.7669 372.213 30.3589 371.842 31.2099L377.026 33.4114Z" fill="white"/>
<path d="M398.073 45.307C397.296 46.824 396.352 47.9341 395.241 48.6186C394.13 49.3216 393.001 49.6546 391.853 49.6546C390.687 49.6546 389.632 49.4141 388.688 48.9146C388.003 48.5631 387.448 48.1746 387.022 47.7675C386.596 47.3605 386.3 46.972 386.115 46.6575C385.93 46.3245 385.763 45.9545 385.596 45.5475L384.986 46.7315L380.358 44.345L389.539 26.5293L394.167 28.9158L391.335 34.4104C391.816 34.3179 392.409 34.3364 393.112 34.4289C393.816 34.5399 394.556 34.7989 395.352 35.2059C396.407 35.7424 397.24 36.4084 397.851 37.2039C398.462 37.9994 398.851 38.8504 399.036 39.7755C399.202 40.682 399.221 41.607 399.036 42.5505C398.851 43.494 398.555 44.4005 398.092 45.2885L398.073 45.307ZM393.26 42.6985C393.834 41.57 394.019 40.5895 393.816 39.7385C393.612 38.8874 393.168 38.2954 392.464 37.9254C391.761 37.5739 390.854 37.4444 389.688 37.5554L387.114 42.5505C387.448 43.494 388.077 44.2155 388.984 44.678C389.558 44.974 390.243 45.0295 391.057 44.863C391.872 44.678 392.594 43.9565 393.26 42.68V42.6985Z" fill="white"/>
<path d="M411.476 55.3714C410.92 56.2594 410.291 56.9254 409.55 57.3509C408.81 57.7764 408.032 57.9984 407.199 58.0539C406.385 58.0909 405.589 58.0169 404.83 57.7949C404.071 57.5729 403.386 57.2769 402.775 56.9069C401.905 56.3889 401.035 55.6674 400.128 54.7979C399.24 53.9099 398.536 53.0959 398.036 52.3188L400.369 48.4893C400.646 49.3218 401.035 50.0988 401.498 50.8203C401.961 51.5603 402.553 52.1338 403.257 52.5593C403.793 52.8923 404.293 53.0589 404.793 53.0959C405.274 53.1144 405.7 53.0403 406.07 52.8553C406.441 52.6703 406.718 52.4113 406.94 52.0598C407.199 51.6158 407.329 51.1718 407.311 50.6908C407.292 50.2098 407.107 49.7473 406.811 49.2663C406.496 48.8038 406.052 48.3968 405.478 48.0453L404.923 47.7123L406.607 44.9558L407.255 45.3628C407.829 45.7143 408.384 45.8993 408.884 45.8993C409.402 45.8993 409.828 45.8068 410.18 45.6033C410.532 45.3998 410.791 45.1593 410.957 44.8818C411.272 44.3637 411.346 43.7902 411.198 43.1427C411.05 42.4952 410.643 41.9957 410.013 41.6072C409.439 41.2557 408.791 41.0152 408.051 40.8487C407.311 40.6822 406.552 40.6267 405.811 40.6637L407.81 37.3892C408.829 37.5372 409.736 37.7407 410.569 37.9812C411.402 38.2217 412.253 38.6102 413.142 39.1467C414.438 39.9422 415.363 40.8487 415.918 41.8662C416.474 42.8837 416.751 43.8827 416.714 44.8448C416.677 45.8068 416.474 46.5838 416.085 47.2128C415.77 47.7308 415.345 48.1748 414.826 48.5448C414.289 48.9148 413.734 49.1923 413.123 49.3773C412.531 49.5623 411.957 49.6363 411.439 49.6178C411.901 50.3948 412.198 51.2643 412.327 52.2263C412.457 53.1884 412.179 54.2429 411.476 55.3899V55.3714Z" fill="white"/>
<path d="M431.727 76.9239L427.599 73.7603L432.431 67.4702C432.931 66.8227 433.245 66.1937 433.412 65.5462C433.56 64.8987 433.282 64.3067 432.579 63.7702C432.246 63.5112 431.894 63.3447 431.542 63.2707C431.191 63.1967 430.839 63.1782 430.487 63.2337C430.135 63.2707 429.821 63.3447 429.543 63.4187C429.265 63.4927 428.969 63.5852 428.673 63.6777L423.416 70.5413L419.288 67.3777L428.247 55.7041L432.375 58.8676L431.079 60.5327C432.264 60.3292 433.282 60.3477 434.152 60.5697C435.022 60.7917 435.855 61.2172 436.651 61.8277C439.447 63.9737 439.558 66.7302 436.985 70.0788L431.727 76.9424V76.9239Z" fill="white"/>
<path d="M451.09 84.1762C450.109 85.2677 448.999 86.0262 447.777 86.4703C446.537 86.8958 445.222 86.9513 443.834 86.5998C442.445 86.2483 441.076 85.4712 439.706 84.2502C438.354 83.0292 437.41 81.7527 436.911 80.4207C436.411 79.0887 436.3 77.7751 436.596 76.4986C436.892 75.2221 437.521 74.0381 438.502 72.9466C439.243 72.1141 440.039 71.4851 440.909 71.0411C441.779 70.5971 442.705 70.3566 443.704 70.3196C444.704 70.2826 445.722 70.4676 446.759 70.8931C447.795 71.3186 448.832 71.9846 449.85 72.8911C450.887 73.8161 451.683 74.7781 452.22 75.7771C452.756 76.7761 453.071 77.7567 453.127 78.7372C453.182 79.7177 453.053 80.6612 452.701 81.5862C452.349 82.5112 451.812 83.3807 451.072 84.2132L451.09 84.1762ZM446.999 80.5317C447.777 79.6622 448.203 78.8112 448.258 77.9787C448.314 77.1461 447.999 76.4061 447.277 75.7771C446.574 75.1481 445.796 74.9076 444.982 75.0556C444.167 75.2036 443.371 75.7216 442.594 76.5911C441.816 77.4606 441.409 78.3117 441.335 79.1442C441.261 79.9952 441.575 80.7167 442.297 81.3457C443.019 81.9932 443.778 82.2337 444.611 82.0672C445.444 81.9007 446.24 81.3827 447.018 80.5132L446.999 80.5317Z" fill="white"/>
<path d="M474.859 98.3657L460.143 104.212L457.903 101.825L461.494 93.9441L453.404 97.0707L451.164 94.6841L457.81 80.2725L461.42 84.1205L457.847 91.1691L465.233 88.1721L467.51 90.5771L464.086 97.7922L471.287 94.5916L474.859 98.3842V98.3657Z" fill="white"/>
<path d="M480.246 129.761L471.231 117.495L487.392 105.636L490.964 110.502L478.673 119.511L484.096 126.911L480.228 129.742L480.246 129.761Z" fill="white"/>
<path d="M494.852 141.416L489.335 132.647C488.687 133.294 488.336 134.108 488.262 135.07C488.206 136.051 488.428 136.957 488.965 137.808C489.891 139.288 491.353 140.676 493.315 141.934L490.594 143.654C489.854 143.229 489.058 142.637 488.206 141.878C487.355 141.138 486.485 140.047 485.596 138.622C484.633 137.087 484.097 135.607 483.986 134.164C483.874 132.721 484.152 131.444 484.8 130.279C485.448 129.132 486.392 128.17 487.632 127.393C488.854 126.616 490.113 126.209 491.427 126.135C492.723 126.061 494 126.394 495.222 127.115C496.444 127.837 497.555 128.984 498.517 130.519C499.147 131.537 499.554 132.647 499.702 133.868C499.85 135.089 499.628 136.31 499.017 137.531C498.406 138.77 497.314 139.862 495.759 140.861L494.87 141.416H494.852ZM494.426 135.903C495.222 135.403 495.74 134.793 495.963 134.108C496.185 133.405 496.074 132.702 495.611 131.944C495.148 131.204 494.537 130.76 493.76 130.63C492.982 130.501 492.205 130.649 491.427 131.148L494.426 135.903Z" fill="white"/>
<path d="M497.203 156.678C496.721 156.327 496.129 155.79 495.481 155.069C494.833 154.347 494.278 153.607 493.852 152.849C492.056 149.556 492.778 147.04 495.981 145.282L501.146 142.47L500.016 140.398L500.812 139.954L510.401 142.692L510.679 143.21L506.81 145.319L509.198 149.685L506.014 151.406L503.626 147.04L499.48 149.297C498.998 149.556 498.628 149.796 498.35 150.018C498.073 150.24 497.925 150.536 497.888 150.925C497.851 151.313 497.962 151.776 498.276 152.331C498.665 153.052 499.498 153.848 500.757 154.699L497.184 156.641L497.203 156.678Z" fill="white"/>
<path d="M514.696 156.79L510.457 157.844L508.698 154.255L512.123 151.536L515.252 150L517.825 155.254L514.696 156.79Z" fill="white"/>
<path d="M509.587 175.493C508.347 176.03 507.143 176.011 505.977 175.438C504.811 174.864 503.83 173.68 503.071 171.904C502.645 170.905 502.349 169.98 502.182 169.129C502.034 168.278 501.923 167.316 501.849 166.243L505.237 164.763C505.126 165.762 505.089 166.613 505.089 167.316C505.089 168.019 505.274 168.722 505.57 169.425C506.088 170.628 506.681 171.072 507.329 170.794C507.551 170.702 507.717 170.535 507.81 170.276C507.902 170.036 507.976 169.647 507.995 169.129C508.032 168.611 508.032 167.927 508.032 167.076C508.032 166.021 508.236 165.041 508.624 164.153C509.013 163.246 509.679 162.599 510.624 162.192C511.29 161.896 512.03 161.822 512.826 161.97C513.622 162.118 514.4 162.506 515.159 163.172C515.918 163.838 516.547 164.745 517.047 165.929C517.177 166.206 517.306 166.576 517.454 167.039C517.602 167.501 517.732 168.093 517.862 168.833C517.991 169.573 518.01 170.313 517.973 171.053L514.678 172.478C514.715 172.126 514.752 171.83 514.789 171.59C514.826 171.349 514.844 171.035 514.844 170.665C514.844 170.295 514.807 169.851 514.733 169.388C514.659 168.907 514.53 168.445 514.326 168.001C514.085 167.446 513.826 167.131 513.511 167.02C513.215 166.909 512.956 166.891 512.734 166.983C512.512 167.076 512.345 167.279 512.253 167.575C512.16 167.871 512.123 168.445 512.16 169.296C512.216 170.535 512.16 171.571 512.012 172.385C511.864 173.199 511.586 173.865 511.179 174.365C510.79 174.864 510.235 175.253 509.531 175.549L509.587 175.493Z" fill="white"/>
<path d="M514.53 202.91L512.956 197.934L514.233 197.527C513.623 197.138 513.086 196.713 512.623 196.213C512.16 195.714 511.753 194.955 511.42 193.938C511.105 192.92 511.031 191.829 511.216 190.7C511.401 189.572 511.938 188.499 512.808 187.518C513.678 186.538 514.918 185.798 516.547 185.28C517.825 184.873 519.102 184.725 520.361 184.854C521.638 184.984 522.767 185.446 523.804 186.242C524.822 187.037 525.581 188.184 526.044 189.664C526.34 190.589 526.47 191.366 526.451 191.995C526.433 192.624 526.34 193.216 526.155 193.753L532.06 191.884L533.634 196.861L514.53 202.929V202.91ZM517.417 196.528L522.786 194.826C522.915 194.141 523.008 193.623 523.045 193.253C523.082 192.883 523.026 192.476 522.878 192.032C522.638 191.255 522.101 190.7 521.268 190.404C520.435 190.09 519.454 190.127 518.324 190.478C517.084 190.867 516.27 191.44 515.881 192.162C515.492 192.883 515.418 193.605 515.64 194.345C515.825 194.937 516.085 195.399 516.381 195.695C516.677 196.01 517.029 196.287 517.436 196.528H517.417Z" fill="white"/>
<path d="M516.677 211.421L515.381 206.37L529.635 202.707L530.931 207.758L516.677 211.421ZM534.115 206.5C533.522 206.648 532.967 206.574 532.449 206.259C531.93 205.945 531.597 205.5 531.449 204.927C531.357 204.538 531.357 204.15 531.449 203.78C531.56 203.41 531.745 203.095 532.023 202.818C532.301 202.54 532.634 202.355 533.023 202.263C533.596 202.115 534.152 202.189 534.689 202.485C535.207 202.781 535.559 203.225 535.707 203.817C535.855 204.39 535.781 204.945 535.466 205.482C535.151 206.019 534.707 206.352 534.133 206.5H534.115Z" fill="white"/>
<path d="M535.078 227.201L519.324 223.538L518.565 219.764L531.708 210.44L532.819 215.916L525.859 220.43L534.078 222.225L535.078 227.183V227.201Z" fill="white"/>
<path d="M528.895 245.997L527.562 235.711C526.692 236.026 526.044 236.618 525.581 237.469C525.118 238.32 524.952 239.245 525.081 240.244C525.303 241.983 526.044 243.833 527.284 245.812L524.082 246.219C523.6 245.516 523.119 244.647 522.656 243.611C522.193 242.575 521.86 241.224 521.638 239.559C521.397 237.765 521.545 236.192 522.045 234.842C522.545 233.491 523.341 232.437 524.396 231.66C525.47 230.883 526.729 230.402 528.173 230.217C529.616 230.032 530.931 230.18 532.153 230.661C533.374 231.142 534.374 231.974 535.188 233.14C536.003 234.324 536.521 235.804 536.743 237.598C536.892 238.782 536.799 239.966 536.429 241.132C536.058 242.297 535.337 243.315 534.263 244.184C533.189 245.054 531.745 245.59 529.913 245.831L528.876 245.96L528.895 245.997ZM530.801 240.817C531.745 240.688 532.449 240.373 532.949 239.837C533.448 239.3 533.634 238.597 533.522 237.728C533.411 236.877 533.041 236.211 532.393 235.748C531.764 235.286 530.986 235.119 530.061 235.249L530.783 240.817H530.801Z" fill="white"/>
<path d="M523.804 263.665L523.582 258.448L538.299 257.837L538.521 263.054L523.804 263.665ZM541.89 262.499C541.279 262.518 540.761 262.333 540.316 261.907C539.872 261.5 539.65 260.982 539.613 260.39C539.613 259.983 539.687 259.613 539.853 259.28C540.039 258.947 540.279 258.67 540.612 258.466C540.946 258.263 541.297 258.152 541.705 258.133C542.297 258.115 542.834 258.3 543.278 258.707C543.722 259.114 543.963 259.613 544 260.224C544.019 260.816 543.833 261.352 543.408 261.796C543 262.24 542.482 262.481 541.89 262.518V262.499Z" fill="white"/>
<path d="M523.767 282.943L523.859 277.744L531.801 277.873C532.615 277.873 533.319 277.762 533.93 277.503C534.541 277.244 534.855 276.671 534.855 275.783C534.855 275.357 534.781 274.987 534.633 274.654C534.485 274.321 534.281 274.044 534.041 273.785C533.8 273.526 533.559 273.304 533.337 273.137C533.115 272.952 532.875 272.786 532.615 272.582L523.971 272.434L524.063 267.236L538.78 267.476L538.687 272.675L536.577 272.638C537.447 273.47 538.039 274.303 538.373 275.135C538.706 275.968 538.872 276.893 538.854 277.892C538.798 281.426 536.651 283.146 532.43 283.072L523.785 282.924L523.767 282.943Z" fill="white"/>
<path d="M523.526 297.65C523.304 297.095 523.119 296.336 522.952 295.374C522.786 294.412 522.73 293.487 522.804 292.636C523.1 288.899 525.063 287.179 528.709 287.456L534.559 287.9L534.744 285.551L535.651 285.625L542.204 293.136L542.167 293.728L537.762 293.395L537.373 298.353L533.763 298.075L534.152 293.117L529.45 292.747C528.895 292.71 528.45 292.71 528.117 292.747C527.784 292.784 527.488 292.951 527.229 293.247C526.988 293.543 526.821 294.005 526.784 294.634C526.729 295.467 526.988 296.577 527.562 297.964L523.508 297.65H523.526Z" fill="white"/>
<path d="M527.469 316.983C526.025 316.779 524.766 316.28 523.73 315.484C522.675 314.689 521.916 313.616 521.434 312.265C520.953 310.915 520.842 309.342 521.101 307.529C521.36 305.735 521.916 304.255 522.749 303.089C523.582 301.924 524.618 301.11 525.84 300.647C527.062 300.185 528.395 300.055 529.857 300.259C530.949 300.407 531.93 300.74 532.782 301.202C533.633 301.683 534.355 302.312 534.929 303.126C535.522 303.94 535.929 304.884 536.151 305.975C536.373 307.067 536.392 308.288 536.188 309.657C535.984 311.026 535.633 312.21 535.096 313.209C534.559 314.208 533.911 315.003 533.134 315.595C532.356 316.187 531.486 316.594 530.524 316.816C529.561 317.038 528.543 317.076 527.432 316.909L527.469 316.983ZM528.247 311.562C529.394 311.729 530.338 311.599 531.06 311.192C531.782 310.785 532.208 310.101 532.356 309.157C532.486 308.214 532.264 307.437 531.69 306.845C531.097 306.253 530.246 305.864 529.08 305.698C527.932 305.531 526.988 305.661 526.247 306.068C525.507 306.475 525.063 307.141 524.933 308.084C524.803 309.046 525.026 309.805 525.618 310.415C526.21 311.007 527.08 311.396 528.247 311.562Z" fill="white"/>
<path d="M528.154 364.751L511.105 350.727L512.086 347.379L524.896 345.714L515.066 337.278L516.066 333.892L537.947 331.45L536.188 337.463L524.359 338.332L533.671 346.028L532.449 350.172L520.472 351.541L529.913 358.831L528.173 364.769L528.154 364.751Z" fill="white"/>
<path d="M507.754 376.831L511.697 367.248C510.79 367.1 509.92 367.266 509.106 367.784C508.273 368.302 507.68 369.024 507.292 369.949C506.625 371.577 506.348 373.556 506.44 375.887L503.46 374.666C503.386 373.815 503.404 372.816 503.515 371.706C503.626 370.596 503.997 369.246 504.644 367.692C505.329 366.008 506.236 364.713 507.347 363.807C508.458 362.882 509.661 362.345 510.975 362.216C512.29 362.068 513.623 362.271 514.974 362.826C516.307 363.381 517.38 364.158 518.213 365.176C519.028 366.193 519.491 367.414 519.62 368.839C519.75 370.263 519.454 371.817 518.769 373.482C518.306 374.592 517.64 375.554 516.733 376.387C515.825 377.219 514.696 377.737 513.345 377.959C511.994 378.181 510.457 377.941 508.736 377.238L507.773 376.849L507.754 376.831ZM511.994 373.279C512.864 373.63 513.66 373.704 514.363 373.482C515.066 373.26 515.585 372.742 515.918 371.947C516.251 371.151 516.251 370.393 515.918 369.671C515.585 368.95 514.992 368.432 514.141 368.08L511.994 373.279Z" fill="white"/>
<path d="M500.35 394.48C498.813 393.721 497.703 392.796 496.999 391.686C496.296 390.595 495.925 389.466 495.925 388.301C495.925 387.135 496.148 386.081 496.629 385.119C496.981 384.434 497.351 383.879 497.758 383.454C498.165 383.028 498.536 382.714 498.869 382.529C499.202 382.344 499.554 382.159 499.979 381.992L498.795 381.4L501.127 376.738L519.065 385.674L516.732 390.336L511.197 387.579C511.29 388.06 511.29 388.652 511.197 389.355C511.105 390.058 510.846 390.817 510.457 391.594C509.92 392.648 509.272 393.499 508.476 394.11C507.68 394.72 506.829 395.127 505.922 395.312C505.015 395.497 504.089 395.516 503.145 395.349C502.201 395.201 501.294 394.887 500.387 394.443L500.35 394.48ZM502.904 389.633C504.034 390.188 505.015 390.373 505.866 390.151C506.718 389.929 507.31 389.485 507.662 388.782C508.014 388.079 508.125 387.154 507.995 386.007L502.96 383.491C502.016 383.842 501.312 384.471 500.85 385.378C500.553 385.951 500.516 386.654 500.701 387.45C500.887 388.245 501.627 388.967 502.904 389.614V389.633Z" fill="white"/>
<path d="M490.465 407.967C489.557 407.43 488.891 406.801 488.465 406.061C488.039 405.321 487.799 404.544 487.743 403.73C487.688 402.916 487.762 402.121 487.965 401.362C488.169 400.604 488.465 399.919 488.817 399.309C489.335 398.439 490.02 397.551 490.89 396.645C491.76 395.738 492.575 395.035 493.334 394.517L497.203 396.811C496.37 397.107 495.592 397.496 494.87 397.977C494.148 398.458 493.574 399.05 493.149 399.771C492.834 400.308 492.667 400.826 492.649 401.307C492.63 401.788 492.723 402.213 492.908 402.583C493.093 402.953 493.371 403.231 493.704 403.434C494.148 403.693 494.611 403.804 495.074 403.786C495.555 403.749 496.018 403.582 496.481 403.268C496.944 402.953 497.351 402.491 497.684 401.917L498.017 401.362L500.794 403.009L500.405 403.675C500.054 404.248 499.887 404.803 499.887 405.303C499.887 405.802 499.998 406.246 500.202 406.598C500.424 406.949 500.664 407.208 500.924 407.375C501.442 407.689 502.034 407.763 502.664 407.597C503.312 407.43 503.811 407.023 504.2 406.394C504.533 405.821 504.792 405.155 504.941 404.415C505.089 403.675 505.144 402.916 505.107 402.158L508.421 404.119C508.273 405.136 508.088 406.061 507.865 406.894C507.643 407.726 507.255 408.596 506.718 409.484C505.94 410.779 505.052 411.722 504.015 412.296C502.997 412.869 501.997 413.147 501.053 413.128C500.091 413.11 499.295 412.906 498.665 412.536C498.147 412.24 497.703 411.815 497.314 411.278C496.925 410.742 496.647 410.187 496.462 409.595C496.277 409.003 496.185 408.448 496.203 407.911C495.426 408.374 494.556 408.688 493.593 408.836C492.63 408.984 491.575 408.707 490.409 408.022L490.465 407.967Z" fill="white"/>
<path d="M469.176 428.446L472.286 424.284L478.636 429.038C479.284 429.519 479.931 429.834 480.561 429.982C481.209 430.13 481.801 429.852 482.338 429.131C482.597 428.798 482.745 428.446 482.819 428.095C482.893 427.743 482.893 427.392 482.856 427.04C482.801 426.689 482.745 426.374 482.671 426.097C482.597 425.819 482.505 425.523 482.394 425.227L475.47 420.047L478.58 415.885L490.372 424.691L487.262 428.853L485.577 427.595C485.8 428.779 485.8 429.797 485.577 430.666C485.374 431.536 484.967 432.368 484.356 433.182C482.245 436.013 479.487 436.161 476.118 433.626L469.195 428.446H469.176Z" fill="white"/>
<path d="M462.123 447.927C461.013 446.965 460.235 445.874 459.791 444.634C459.347 443.395 459.291 442.081 459.624 440.694C459.957 439.306 460.716 437.919 461.92 436.55C463.123 435.181 464.382 434.237 465.715 433.719C467.047 433.201 468.362 433.072 469.639 433.349C470.916 433.627 472.12 434.237 473.212 435.199C474.045 435.921 474.693 436.716 475.137 437.586C475.581 438.455 475.84 439.38 475.896 440.379C475.951 441.378 475.785 442.396 475.378 443.432C474.97 444.468 474.322 445.504 473.415 446.54C472.508 447.594 471.546 448.39 470.565 448.945C469.583 449.5 468.602 449.814 467.621 449.888C466.64 449.962 465.696 449.833 464.77 449.5C463.845 449.167 462.956 448.63 462.123 447.909V447.927ZM465.715 443.802C466.585 444.56 467.455 444.986 468.269 445.023C469.102 445.078 469.824 444.745 470.472 444.005C471.101 443.284 471.324 442.525 471.157 441.711C470.99 440.897 470.472 440.102 469.583 439.343C468.713 438.585 467.843 438.178 467.01 438.122C466.177 438.067 465.437 438.4 464.807 439.103C464.178 439.824 463.937 440.601 464.123 441.415C464.289 442.229 464.826 443.025 465.696 443.802H465.715Z" fill="white"/>
<path d="M448.221 471.867L442.186 457.252L444.556 454.976L452.497 458.473L449.276 450.425L451.646 448.149L466.159 454.606L462.364 458.269L455.274 454.791L458.366 462.136L455.978 464.43L448.721 461.1L452.016 468.259L448.258 471.885L448.221 471.867Z" fill="white"/>
<path d="M416.918 477.602L429.08 468.444L441.15 484.447L436.318 488.092L427.136 475.918L419.806 481.45L416.918 477.62V477.602Z" fill="white"/>
<path d="M405.385 492.384L414.086 486.759C413.438 486.112 412.623 485.779 411.642 485.723C410.661 485.668 409.754 485.927 408.921 486.464C407.44 487.407 406.089 488.887 404.83 490.867L403.071 488.166C403.497 487.426 404.071 486.612 404.812 485.761C405.552 484.91 406.626 484.022 408.033 483.115C409.55 482.134 411.031 481.579 412.475 481.45C413.919 481.32 415.215 481.579 416.363 482.208C417.51 482.837 418.492 483.762 419.288 485.002C420.065 486.223 420.509 487.481 420.602 488.776C420.694 490.071 420.38 491.348 419.658 492.587C418.936 493.827 417.825 494.937 416.307 495.917C415.308 496.565 414.197 496.972 412.975 497.157C411.753 497.323 410.532 497.12 409.291 496.528C408.051 495.936 406.922 494.863 405.922 493.309L405.367 492.439L405.385 492.384ZM410.883 491.903C411.402 492.698 411.994 493.198 412.697 493.42C413.401 493.642 414.123 493.512 414.845 493.031C415.567 492.569 416.011 491.94 416.141 491.163C416.27 490.386 416.104 489.609 415.585 488.832L410.865 491.884L410.883 491.903Z" fill="white"/>
<path d="M390.15 494.918C390.502 494.419 391.02 493.845 391.724 493.161C392.427 492.495 393.168 491.94 393.927 491.514C397.203 489.682 399.721 490.367 401.516 493.549L404.386 498.674L406.441 497.527L406.885 498.322L404.275 507.942L403.756 508.238L401.59 504.39L397.259 506.814L395.482 503.669L399.813 501.227L397.499 497.12C397.222 496.639 396.981 496.269 396.759 496.01C396.537 495.751 396.222 495.603 395.852 495.547C395.463 495.51 395 495.64 394.445 495.954C393.723 496.361 392.946 497.194 392.113 498.452L390.132 494.918H390.15Z" fill="white"/>
<path d="M390.298 512.382L389.188 508.164L392.76 506.37L395.519 509.755L397.092 512.863L391.853 515.49L390.28 512.382H390.298Z" fill="white"/>
<path d="M371.491 507.535C370.935 506.295 370.935 505.111 371.491 503.927C372.046 502.762 373.212 501.763 374.989 500.967C375.989 500.523 376.914 500.209 377.766 500.042C378.618 499.876 379.58 499.746 380.654 499.672L382.172 503.039C381.172 502.947 380.321 502.91 379.617 502.928C378.914 502.947 378.229 503.132 377.525 503.446C376.341 503.983 375.896 504.575 376.174 505.222C376.267 505.444 376.452 505.592 376.692 505.685C376.933 505.777 377.322 505.833 377.84 505.87C378.358 505.888 379.043 505.888 379.895 505.87C380.95 505.87 381.931 506.036 382.838 506.425C383.745 506.795 384.412 507.461 384.837 508.404C385.134 509.07 385.226 509.81 385.097 510.606C384.967 511.402 384.578 512.179 383.912 512.956C383.264 513.714 382.357 514.362 381.172 514.88C380.894 515.009 380.524 515.139 380.08 515.305C379.617 515.453 379.025 515.601 378.284 515.731C377.544 515.86 376.803 515.916 376.063 515.86L374.582 512.586C374.934 512.623 375.23 512.66 375.471 512.697C375.711 512.734 376.026 512.734 376.396 512.734C376.785 512.734 377.211 512.697 377.673 512.604C378.155 512.53 378.618 512.382 379.062 512.179C379.599 511.938 379.932 511.661 380.043 511.365C380.154 511.069 380.154 510.809 380.043 510.587C379.95 510.365 379.747 510.217 379.451 510.125C379.154 510.032 378.581 510.014 377.729 510.051C376.489 510.125 375.452 510.088 374.638 509.94C373.805 509.792 373.157 509.533 372.657 509.144C372.157 508.756 371.75 508.219 371.435 507.516L371.491 507.535Z" fill="white"/>
<path d="M344.094 512.826L349.055 511.179L349.48 512.437C349.851 511.827 350.295 511.29 350.776 510.809C351.257 510.328 352.016 509.921 353.053 509.588C354.071 509.255 355.145 509.181 356.293 509.348C357.44 509.533 358.496 510.051 359.495 510.902C360.495 511.753 361.235 512.992 361.772 514.62C362.198 515.897 362.346 517.155 362.235 518.432C362.124 519.708 361.68 520.855 360.902 521.891C360.125 522.927 358.995 523.686 357.514 524.167C356.607 524.463 355.83 524.611 355.182 524.592C354.553 524.592 353.96 524.481 353.423 524.333L355.367 530.198L350.406 531.844L344.094 512.826ZM350.536 515.638L352.313 520.966C352.998 521.096 353.516 521.17 353.886 521.207C354.256 521.244 354.664 521.188 355.108 521.04C355.885 520.781 356.422 520.245 356.718 519.412C357.015 518.58 356.978 517.599 356.607 516.471C356.2 515.231 355.626 514.435 354.904 514.047C354.182 513.658 353.442 513.584 352.72 513.825C352.128 514.028 351.683 514.269 351.369 514.583C351.072 514.898 350.795 515.249 350.554 515.638H350.536Z" fill="white"/>
<path d="M335.634 515.065L340.669 513.696L344.519 527.904L339.484 529.273L335.634 515.065ZM340.78 532.436C340.632 531.844 340.706 531.289 341.002 530.771C341.317 530.253 341.761 529.902 342.335 529.754C342.724 529.643 343.112 529.643 343.483 529.754C343.853 529.846 344.186 530.031 344.445 530.309C344.704 530.586 344.908 530.919 345.019 531.308C345.167 531.881 345.112 532.436 344.816 532.973C344.519 533.51 344.075 533.843 343.483 534.009C342.909 534.157 342.353 534.083 341.817 533.787C341.28 533.473 340.947 533.047 340.78 532.474V532.436Z" fill="white"/>
<path d="M320.047 533.676L323.509 517.877L327.266 517.062L336.763 530.068L331.284 531.234L326.693 524.333L324.99 532.584L320.047 533.639V533.676Z" fill="white"/>
<path d="M301.202 527.701L311.458 526.239C311.124 525.388 310.532 524.722 309.68 524.278C308.81 523.834 307.885 523.668 306.904 523.816C305.164 524.056 303.312 524.814 301.35 526.091L300.887 522.909C301.591 522.409 302.442 521.928 303.479 521.447C304.516 520.966 305.849 520.615 307.515 520.374C309.31 520.115 310.884 520.226 312.235 520.726C313.586 521.207 314.66 521.984 315.456 523.038C316.252 524.093 316.752 525.351 316.955 526.794C317.159 528.219 317.03 529.551 316.567 530.772C316.104 531.993 315.289 533.01 314.123 533.843C312.957 534.675 311.476 535.212 309.68 535.471C308.496 535.637 307.311 535.545 306.145 535.193C304.979 534.842 303.942 534.139 303.072 533.084C302.202 532.03 301.628 530.587 301.369 528.755L301.221 527.719L301.202 527.701ZM306.404 529.569C306.533 530.494 306.867 531.216 307.422 531.715C307.959 532.215 308.662 532.4 309.532 532.27C310.384 532.141 311.05 531.771 311.495 531.123C311.939 530.476 312.105 529.699 311.976 528.792L306.404 529.588V529.569Z" fill="white"/>
<path d="M283.468 522.853L288.688 522.576L289.484 537.265L284.264 537.542L283.468 522.853ZM284.857 540.909C284.819 540.299 285.005 539.781 285.43 539.337C285.838 538.893 286.337 538.652 286.948 538.615C287.356 538.597 287.726 538.671 288.059 538.837C288.411 539.004 288.67 539.263 288.892 539.577C289.096 539.892 289.225 540.262 289.244 540.669C289.281 541.261 289.096 541.797 288.688 542.241C288.281 542.704 287.781 542.944 287.17 542.981C286.578 543.018 286.041 542.833 285.597 542.408C285.134 542.001 284.894 541.501 284.857 540.891V540.909Z" fill="white"/>
<path d="M264.105 522.946L269.307 523.038L269.177 530.975C269.177 531.789 269.288 532.492 269.547 533.102C269.807 533.713 270.38 534.027 271.269 534.027C271.695 534.027 272.065 533.953 272.398 533.805C272.731 533.657 273.009 533.454 273.268 533.213C273.527 532.973 273.75 532.732 273.916 532.51C274.101 532.288 274.268 532.048 274.453 531.789L274.601 523.149L279.803 523.242L279.562 537.949L274.36 537.857L274.397 535.748C273.564 536.617 272.731 537.209 271.898 537.542C271.065 537.875 270.14 538.042 269.14 538.023C265.604 537.968 263.883 535.822 263.957 531.604L264.105 522.964V522.946Z" fill="white"/>
<path d="M249.444 523.001C249.999 522.779 250.758 522.576 251.721 522.391C252.683 522.206 253.59 522.15 254.461 522.206C258.2 522.446 259.958 524.389 259.718 528.052L259.329 533.916L261.68 534.064L261.624 534.971L254.201 541.612L253.609 541.575L253.887 537.172L248.926 536.858L249.166 533.25L254.127 533.565L254.423 528.866C254.461 528.311 254.461 527.867 254.423 527.534C254.386 527.201 254.201 526.905 253.905 526.646C253.609 526.387 253.146 526.257 252.498 526.22C251.665 526.165 250.555 526.442 249.166 527.053L249.425 523.001H249.444Z" fill="white"/>
<path d="M230.173 527.182C230.358 525.721 230.84 524.481 231.617 523.427C232.395 522.372 233.468 521.595 234.801 521.096C236.153 520.596 237.726 520.467 239.522 520.707C241.336 520.948 242.817 521.466 243.983 522.298C245.149 523.112 245.982 524.148 246.463 525.369C246.945 526.59 247.093 527.922 246.889 529.384C246.741 530.475 246.445 531.456 245.982 532.307C245.519 533.158 244.89 533.879 244.075 534.49C243.261 535.1 242.317 535.507 241.243 535.748C240.151 535.988 238.929 536.007 237.559 535.84C236.19 535.655 234.986 535.322 233.987 534.804C232.987 534.286 232.173 533.657 231.562 532.88C230.951 532.103 230.544 531.252 230.303 530.29C230.062 529.328 230.025 528.311 230.173 527.219V527.182ZM235.597 527.885C235.449 529.032 235.597 529.976 236.004 530.697C236.412 531.419 237.115 531.844 238.059 531.955C239.003 532.085 239.781 531.844 240.355 531.252C240.947 530.66 241.317 529.791 241.465 528.625C241.613 527.478 241.465 526.535 241.058 525.795C240.632 525.055 239.966 524.629 239.022 524.5C238.059 524.37 237.3 524.611 236.708 525.203C236.115 525.795 235.745 526.683 235.597 527.83V527.885Z" fill="white"/>
<path d="M182.395 528.477L196.205 511.272L199.574 512.216L201.406 524.981L209.718 515.046L213.124 515.99L215.845 537.82L209.811 536.136L208.792 524.333L201.203 533.75L197.038 532.584L195.52 520.633L188.337 530.161L182.376 528.496L182.395 528.477Z" fill="white"/>
<path d="M170.048 508.238L179.692 512.049C179.84 511.142 179.637 510.273 179.118 509.459C178.6 508.645 177.86 508.053 176.934 507.683C175.305 507.035 173.324 506.776 170.992 506.906L172.176 503.909C173.028 503.816 174.028 503.835 175.138 503.909C176.268 504.001 177.6 504.371 179.174 504.982C180.858 505.648 182.173 506.536 183.098 507.627C184.024 508.719 184.579 509.921 184.746 511.235C184.912 512.548 184.709 513.88 184.172 515.231C183.635 516.581 182.876 517.654 181.858 518.487C180.858 519.32 179.637 519.801 178.211 519.93C176.786 520.06 175.231 519.8 173.546 519.134C172.436 518.69 171.455 518.024 170.622 517.136C169.77 516.248 169.233 515.12 168.992 513.769C168.752 512.419 168.992 510.883 169.659 509.163L170.048 508.201V508.238ZM173.639 512.419C173.287 513.288 173.232 514.084 173.454 514.787C173.676 515.49 174.194 515.989 175.009 516.322C175.823 516.637 176.582 516.637 177.286 516.304C177.989 515.971 178.526 515.379 178.859 514.509L173.62 512.437L173.639 512.419Z" fill="white"/>
<path d="M152.314 501.06C153.054 499.525 153.98 498.396 155.053 497.675C156.146 496.953 157.256 496.583 158.422 496.546C159.589 496.509 160.644 496.731 161.606 497.193C162.31 497.526 162.865 497.897 163.291 498.304C163.717 498.711 164.031 499.081 164.217 499.395C164.402 499.71 164.587 500.08 164.772 500.487L165.346 499.284L170.029 501.541L161.31 519.579L156.627 517.322L159.311 511.753C158.83 511.846 158.237 511.864 157.534 511.753C156.83 511.661 156.071 511.42 155.275 511.05C154.202 510.532 153.35 509.885 152.721 509.108C152.091 508.331 151.684 507.48 151.481 506.573C151.277 505.667 151.258 504.742 151.407 503.798C151.555 502.855 151.832 501.93 152.277 501.023L152.314 501.06ZM157.201 503.558C156.645 504.686 156.497 505.685 156.719 506.518C156.942 507.369 157.404 507.942 158.108 508.294C158.811 508.645 159.737 508.738 160.884 508.59L163.328 503.521C162.976 502.577 162.328 501.893 161.403 501.449C160.829 501.171 160.125 501.134 159.329 501.319C158.534 501.523 157.812 502.263 157.182 503.558H157.201Z" fill="white"/>
<path d="M138.634 491.329C139.152 490.422 139.781 489.738 140.522 489.312C141.244 488.868 142.021 488.628 142.854 488.554C143.669 488.48 144.465 488.554 145.242 488.757C146.001 488.961 146.705 489.238 147.315 489.59C148.186 490.089 149.093 490.774 150.018 491.625C150.944 492.476 151.666 493.29 152.184 494.048L149.944 497.952C149.629 497.138 149.241 496.361 148.759 495.64C148.278 494.918 147.667 494.363 146.945 493.937C146.408 493.623 145.89 493.457 145.409 493.457C144.927 493.457 144.502 493.531 144.131 493.734C143.761 493.938 143.484 494.197 143.28 494.548C143.021 494.992 142.91 495.455 142.947 495.936C142.984 496.417 143.169 496.879 143.484 497.342C143.817 497.804 144.261 498.193 144.853 498.544L145.409 498.877L143.798 501.671L143.132 501.282C142.539 500.949 142.003 500.783 141.484 500.783C140.966 500.783 140.54 500.894 140.189 501.116C139.837 501.338 139.596 501.578 139.43 501.856C139.133 502.374 139.059 502.966 139.226 503.595C139.393 504.224 139.8 504.742 140.448 505.112C141.022 505.445 141.688 505.685 142.428 505.815C143.169 505.963 143.928 506 144.687 505.944L142.762 509.274C141.743 509.145 140.818 508.978 139.985 508.756C139.152 508.534 138.282 508.164 137.375 507.646C136.06 506.888 135.116 506 134.524 504.982C133.932 503.965 133.654 502.984 133.654 502.022C133.654 501.06 133.858 500.265 134.228 499.636C134.524 499.118 134.931 498.674 135.468 498.285C136.005 497.897 136.542 497.601 137.153 497.416C137.763 497.231 138.3 497.12 138.837 497.12C138.356 496.361 138.041 495.492 137.875 494.53C137.708 493.568 137.967 492.513 138.652 491.329H138.634Z" fill="white"/>
<path d="M117.901 470.331L122.103 473.402L117.419 479.822C116.938 480.469 116.642 481.117 116.494 481.764C116.346 482.412 116.642 482.985 117.364 483.522C117.697 483.762 118.049 483.929 118.419 483.984C118.771 484.04 119.122 484.058 119.474 483.984C119.826 483.929 120.14 483.873 120.418 483.781C120.696 483.688 120.992 483.596 121.288 483.503L126.379 476.51L130.581 479.581L121.918 491.477L117.715 488.406L118.956 486.704C117.771 486.926 116.753 486.944 115.883 486.741C115.013 486.537 114.161 486.149 113.347 485.538C110.496 483.466 110.311 480.71 112.791 477.306L117.882 470.312L117.901 470.331Z" fill="white"/>
<path d="M98.3153 463.523C99.2594 462.413 100.352 461.618 101.573 461.155C102.795 460.693 104.109 460.619 105.516 460.933C106.905 461.248 108.312 461.988 109.7 463.172C111.088 464.356 112.051 465.595 112.588 466.927C113.125 468.259 113.254 469.554 112.995 470.849C112.736 472.126 112.125 473.328 111.181 474.457C110.459 475.308 109.681 475.955 108.83 476.418C107.978 476.88 107.053 477.139 106.053 477.213C105.054 477.287 104.035 477.121 102.98 476.732C101.925 476.344 100.888 475.696 99.8333 474.808C98.7781 473.902 97.9636 472.977 97.3898 471.996C96.8344 471.016 96.5012 470.035 96.4087 469.073C96.3161 468.093 96.4272 467.149 96.7604 466.224C97.0936 465.299 97.5934 464.411 98.3153 463.56V463.523ZM102.499 467.075C101.74 467.963 101.351 468.814 101.296 469.647C101.259 470.479 101.61 471.201 102.332 471.83C103.054 472.44 103.832 472.662 104.646 472.496C105.461 472.329 106.238 471.793 106.997 470.905C107.738 470.017 108.145 469.166 108.182 468.315C108.238 467.464 107.886 466.742 107.182 466.132C106.442 465.503 105.664 465.281 104.85 465.466C104.035 465.651 103.239 466.187 102.48 467.075H102.499Z" fill="white"/>
<path d="M74.1948 449.944L88.7449 443.728L91.0588 446.059L87.6527 454.033L95.6682 450.721L97.9821 453.052L91.7067 467.63L88.0044 463.875L91.392 456.734L84.0799 459.916L81.7475 457.566L84.987 450.277L77.8786 453.644L74.2133 449.926L74.1948 449.944Z" fill="white"/>
<path d="M68.0489 418.697L77.3603 430.741L61.4958 442.988L57.7935 438.215L69.8446 428.891L64.2355 421.639L68.0304 418.697H68.0489Z" fill="white"/>
<path d="M53.1286 407.394L58.8672 416.033C59.4966 415.367 59.8298 414.553 59.8668 413.573C59.9038 412.592 59.6446 411.704 59.0893 410.853C58.1267 409.392 56.6273 408.06 54.6465 406.839L57.3307 405.062C58.0897 405.47 58.8857 406.043 59.7557 406.765C60.6258 407.486 61.5328 408.541 62.4584 409.947C63.458 411.464 64.0319 412.925 64.18 414.35C64.3281 415.774 64.0874 417.088 63.4765 418.253C62.8657 419.419 61.9401 420.399 60.7183 421.213C59.5151 422.009 58.2563 422.471 56.9605 422.564C55.6647 422.675 54.3874 422.379 53.1471 421.676C51.9068 420.973 50.7776 419.881 49.778 418.364C49.1116 417.365 48.6858 416.274 48.5007 415.053C48.3156 413.832 48.5007 412.611 49.093 411.371C49.6854 410.132 50.7221 408.985 52.277 407.967L53.1471 407.394H53.1286ZM53.7024 412.87C52.9249 413.388 52.4251 413.998 52.203 414.701C51.9809 415.404 52.1289 416.126 52.6102 416.847C53.0915 417.569 53.7209 417.994 54.4984 418.124C55.2759 418.253 56.0534 418.068 56.8124 417.55L53.7024 412.87Z" fill="white"/>
<path d="M50.4074 392.205C50.9072 392.538 51.4996 393.056 52.1845 393.759C52.8694 394.462 53.4248 395.183 53.869 395.942C55.7387 399.179 55.0908 401.732 51.9253 403.564L46.8346 406.505L48.0194 408.54L47.2234 409.003L37.5603 406.524L37.2642 406.006L41.0775 403.804L38.597 399.494L41.7254 397.681L44.206 401.991L48.2971 399.642C48.7784 399.364 49.1486 399.124 49.4078 398.883C49.6669 398.661 49.815 398.347 49.852 397.958C49.8891 397.57 49.7595 397.107 49.4263 396.552C49.019 395.831 48.1675 395.072 46.8902 394.24L50.4074 392.205Z" fill="white"/>
<path d="M32.9139 392.538L37.1161 391.372L38.9672 394.924L35.6166 397.718L32.5252 399.327L29.8225 394.129L32.9139 392.519V392.538Z" fill="white"/>
<path d="M37.5604 373.742C38.7821 373.168 39.9854 373.168 41.1701 373.705C42.3549 374.241 43.3545 375.407 44.169 377.164C44.6318 378.145 44.9465 379.07 45.1316 379.921C45.3167 380.772 45.4463 381.734 45.5389 382.788L42.1883 384.342C42.2808 383.343 42.2993 382.492 42.2623 381.789C42.2253 381.086 42.0402 380.402 41.7255 379.699C41.1701 378.515 40.5778 378.071 39.9299 378.385C39.7077 378.478 39.5596 378.663 39.4671 378.903C39.3745 379.144 39.319 379.532 39.3005 380.069C39.3005 380.587 39.3005 381.271 39.319 382.122C39.3375 383.177 39.1709 384.157 38.8007 385.064C38.4304 385.97 37.7825 386.655 36.8569 387.08C36.1905 387.395 35.4686 387.487 34.6541 387.358C33.8581 387.228 33.0621 386.858 32.3031 386.211C31.5256 385.563 30.8777 384.675 30.3409 383.51C30.2113 383.232 30.0632 382.862 29.8966 382.418C29.73 381.974 29.5819 381.382 29.4523 380.642C29.3042 379.902 29.2487 379.162 29.2857 378.441L32.5437 376.924C32.5067 377.275 32.4697 377.571 32.4512 377.812C32.4327 378.052 32.4142 378.367 32.4142 378.737C32.4142 379.125 32.4697 379.551 32.5623 380.013C32.6548 380.494 32.8029 380.957 33.0065 381.401C33.2657 381.937 33.5434 382.27 33.8396 382.363C34.1357 382.455 34.3949 382.474 34.617 382.363C34.8392 382.252 34.9873 382.067 35.0798 381.771C35.1724 381.475 35.1909 380.901 35.1354 380.05C35.0428 378.811 35.0798 377.775 35.2094 376.961C35.339 376.128 35.5982 375.462 35.9869 374.963C36.3756 374.463 36.9125 374.056 37.5974 373.723L37.5604 373.742Z" fill="white"/>
<path d="M31.9143 346.417L33.6174 351.356L32.3586 351.782C32.9695 352.152 33.5249 352.577 34.0062 353.058C34.4875 353.539 34.9132 354.298 35.2649 355.315C35.6167 356.333 35.7092 357.406 35.5426 358.553C35.376 359.7 34.8762 360.773 34.0247 361.772C33.1731 362.771 31.9514 363.548 30.3409 364.103C29.0821 364.547 27.8048 364.713 26.5275 364.621C25.2502 364.528 24.1025 364.103 23.0658 363.326C22.0292 362.549 21.2517 361.439 20.7334 359.977C20.4187 359.071 20.2706 358.294 20.2706 357.665C20.2706 357.036 20.3631 356.444 20.5112 355.889L14.6616 357.905L12.9585 352.966L31.8958 346.417H31.9143ZM29.1746 352.873L23.8618 354.705C23.7322 355.389 23.6767 355.907 23.6397 356.277C23.6212 356.647 23.6767 357.054 23.8248 357.48C24.084 358.257 24.6393 358.793 25.4723 359.071C26.3053 359.348 27.2865 359.311 28.4157 358.923C29.6374 358.497 30.4519 357.924 30.8222 357.184C31.1924 356.444 31.2664 355.722 31.0073 355.001C30.8037 354.409 30.5445 353.965 30.2298 353.669C29.9151 353.373 29.5634 353.095 29.1561 352.855L29.1746 352.873Z" fill="white"/>
<path d="M12.2365 343.309C12.8289 343.142 13.3842 343.216 13.9026 343.512C14.4209 343.808 14.7726 344.252 14.9392 344.826C15.0503 345.214 15.0503 345.603 14.9577 345.973C14.8652 346.343 14.6801 346.676 14.4209 346.953C14.1617 347.231 13.8285 347.416 13.4398 347.527C12.8659 347.693 12.3106 347.619 11.7737 347.342C11.2369 347.046 10.8852 346.62 10.7186 346.028C10.552 345.455 10.626 344.9 10.9222 344.363C11.2184 343.826 11.6627 343.475 12.2365 343.309ZM29.5448 337.962L30.9702 342.975L16.8089 346.99L15.3835 341.976L29.5448 337.962Z" fill="white"/>
<path d="M10.7371 322.644L26.583 325.9L27.4345 329.656L14.532 339.313L13.2917 333.855L20.1224 329.175L11.8478 327.584L10.7186 322.644H10.7371Z" fill="white"/>
<path d="M16.4757 303.774L18.0677 314.004C18.9192 313.671 19.5671 313.061 20.0114 312.191C20.4557 311.322 20.6038 310.397 20.4371 309.398C20.1595 307.659 19.382 305.827 18.0862 303.885L21.2702 303.385C21.77 304.07 22.2698 304.939 22.7696 305.957C23.2509 306.974 23.6211 308.325 23.8803 309.971C24.158 311.766 24.0654 313.338 23.5841 314.689C23.1213 316.058 22.3624 317.131 21.3072 317.926C20.2705 318.722 19.0118 319.24 17.5679 319.462C16.1425 319.684 14.8096 319.573 13.5879 319.129C12.3661 318.685 11.3295 317.871 10.4964 316.724C9.66341 315.558 9.08955 314.097 8.81188 312.302C8.62676 311.118 8.70081 309.934 9.03402 308.769C9.36722 307.603 10.0707 306.549 11.1073 305.661C12.144 304.773 13.5879 304.181 15.4205 303.903L16.4572 303.737L16.4757 303.774ZM14.6986 308.991C13.773 309.139 13.051 309.49 12.5697 310.027C12.0884 310.582 11.9033 311.285 12.0514 312.154C12.181 313.005 12.5697 313.653 13.2176 314.097C13.8655 314.541 14.643 314.689 15.5686 314.541L14.6986 308.991Z" fill="white"/>
<path d="M3.05479 287.549C3.66567 287.512 4.184 287.697 4.64679 288.104C5.09107 288.511 5.35023 289.01 5.38725 289.602C5.40576 290.009 5.35023 290.379 5.16511 290.731C4.98 291.083 4.75786 291.36 4.42465 291.564C4.10995 291.786 3.73972 291.897 3.33247 291.934C2.7401 291.971 2.20326 291.804 1.74047 291.397C1.27768 291.009 1.03703 290.509 0.981496 289.898C0.944472 289.306 1.12959 288.77 1.53684 288.307C1.9441 287.845 2.44391 287.604 3.03628 287.549H3.05479ZM21.1036 285.939L21.4553 291.138L6.75711 292.119L6.40539 286.92L21.1036 285.939Z" fill="white"/>
<path d="M20.6038 266.625L20.6963 271.824L12.7548 271.953C11.9403 271.953 11.2369 272.101 10.6445 272.379C10.0522 272.656 9.75597 273.23 9.77448 274.136C9.77448 274.562 9.86704 274.932 10.0336 275.246C10.2002 275.561 10.4039 275.857 10.663 276.097C10.9222 276.356 11.1628 276.56 11.4035 276.726C11.6442 276.893 11.8848 277.078 12.144 277.244L20.7889 277.096L20.8814 282.295L6.16472 282.536L6.07217 277.337L8.18249 277.3C7.29393 276.504 6.66454 275.69 6.29431 274.858C5.92407 274.044 5.73896 273.119 5.72045 272.12C5.66491 268.586 7.73821 266.792 11.9588 266.736L20.6038 266.588V266.625Z" fill="white"/>
<path d="M20.5483 251.936C20.7704 252.491 20.9925 253.249 21.1776 254.212C21.3628 255.174 21.4368 256.08 21.3998 256.95C21.1962 260.687 19.271 262.463 15.6242 262.278L9.756 261.963L9.62642 264.313L8.71935 264.257L1.98114 256.913L2.01816 256.321L6.42392 256.543L6.68308 251.584L10.2928 251.769L10.0337 256.728L14.7356 256.968C15.291 257.005 15.7352 256.968 16.0684 256.931C16.4017 256.894 16.6978 256.709 16.9385 256.413C17.1791 256.117 17.3272 255.636 17.3457 255.007C17.3828 254.174 17.1051 253.083 16.4757 251.695L20.5297 251.899L20.5483 251.936Z" fill="white"/>
<path d="M16.1054 232.733C17.5679 232.899 18.8266 233.38 19.8818 234.139C20.937 234.897 21.733 235.952 22.2513 237.284C22.7696 238.616 22.9177 240.189 22.6956 242.002C22.4919 243.815 21.9736 245.313 21.1591 246.479C20.3446 247.663 19.345 248.495 18.1232 248.995C16.9014 249.494 15.5686 249.642 14.1247 249.476C13.0325 249.346 12.0514 249.05 11.1814 248.606C10.3298 248.144 9.58936 247.533 8.97848 246.738C8.3676 245.942 7.94183 244.999 7.68267 243.907C7.42351 242.816 7.38648 241.595 7.55309 240.226C7.71969 238.838 8.0529 237.654 8.55271 236.636C9.05253 235.619 9.68192 234.805 10.4409 234.194C11.1999 233.584 12.0514 233.158 13.014 232.899C13.9581 232.659 14.9947 232.585 16.0869 232.714L16.1054 232.733ZM15.476 238.19C14.3098 238.061 13.3842 238.19 12.6623 238.616C11.9403 239.041 11.5331 239.726 11.422 240.688C11.3109 241.632 11.5516 242.39 12.144 242.982C12.7363 243.556 13.6249 243.926 14.7726 244.055C15.9203 244.185 16.8644 244.055 17.5864 243.611C18.3083 243.186 18.7341 242.501 18.8451 241.558C18.9562 240.596 18.7156 239.837 18.1047 239.245C17.4938 238.672 16.6238 238.301 15.4575 238.172L15.476 238.19Z" fill="white"/>
<path d="M14.2173 185.002L31.6181 198.6L30.7111 201.986L17.9566 203.984L28.0084 212.161L27.1013 215.565L5.29468 218.562L6.90518 212.512L18.7156 211.347L9.20062 203.891L10.3113 199.71L22.2513 198.027L12.6253 190.978L14.2173 185.002Z" fill="white"/>
<path d="M34.3023 172.404L30.6 182.079C31.5071 182.209 32.3771 182.005 33.1916 181.469C34.0062 180.932 34.5985 180.192 34.9502 179.267C35.5796 177.621 35.8018 175.641 35.6537 173.31L38.6711 174.457C38.7636 175.308 38.7821 176.307 38.6896 177.436C38.597 178.564 38.2638 179.915 37.6714 181.469C37.0235 183.152 36.1535 184.484 35.0798 185.428C34.0062 186.371 32.8029 186.945 31.4886 187.111C30.1743 187.296 28.8414 187.111 27.4716 186.593C26.1202 186.075 25.028 185.317 24.1765 184.318C23.325 183.319 22.8437 182.116 22.6771 180.692C22.529 179.267 22.7696 177.713 23.4175 176.03C23.8433 174.92 24.4912 173.921 25.3798 173.07C26.2498 172.219 27.379 171.664 28.7304 171.405C30.0817 171.146 31.6182 171.349 33.3583 172.015L34.3394 172.385L34.3023 172.404ZM30.1557 176.048C29.2672 175.715 28.4897 175.66 27.7863 175.9C27.0828 176.141 26.583 176.659 26.2683 177.491C25.9536 178.305 25.9721 179.064 26.3239 179.767C26.6756 180.47 27.2679 180.988 28.138 181.321L30.1372 176.067L30.1557 176.048Z" fill="white"/>
<path d="M41.2627 154.588C42.7991 155.309 43.9468 156.216 44.6873 157.289C45.4278 158.362 45.8165 159.49 45.8535 160.637C45.8906 161.803 45.6869 162.857 45.2427 163.838C44.9094 164.541 44.5577 165.096 44.1505 165.54C43.7432 165.984 43.3915 166.298 43.0768 166.483C42.7621 166.668 42.3919 166.872 41.9846 167.057L43.1879 167.612L40.985 172.329L22.8251 163.838L25.028 159.12L30.637 161.747C30.5259 161.266 30.5074 160.674 30.6 159.971C30.674 159.268 30.9147 158.51 31.2849 157.714C31.7847 156.641 32.4326 155.79 33.1916 155.143C33.9691 154.495 34.8021 154.088 35.7092 153.866C36.6163 153.663 37.5418 153.626 38.4859 153.755C39.43 153.885 40.3556 154.162 41.2627 154.588ZM38.8376 159.49C37.6899 158.954 36.7088 158.806 35.8573 159.046C35.0243 159.287 34.4319 159.749 34.0987 160.452C33.7655 161.155 33.6729 162.08 33.8395 163.227L38.9302 165.614C39.8743 165.244 40.5592 164.596 40.985 163.671C41.2627 163.079 41.2997 162.395 41.0775 161.599C40.8554 160.804 40.1149 160.101 38.8191 159.49H38.8376Z" fill="white"/>
<path d="M50.8147 140.824C51.7402 141.342 52.4066 141.952 52.8509 142.674C53.2952 143.395 53.5544 144.172 53.6284 144.986C53.7025 145.8 53.6469 146.596 53.4618 147.373C53.2767 148.131 52.999 148.834 52.6473 149.463C52.1475 150.351 51.4811 151.258 50.6295 152.183C49.778 153.108 48.982 153.848 48.2415 154.366L44.3171 152.164C45.1316 151.85 45.8906 151.443 46.6125 150.943C47.3345 150.444 47.8898 149.833 48.2971 149.112C48.6118 148.557 48.7599 148.057 48.7599 147.558C48.7599 147.077 48.6673 146.651 48.4637 146.281C48.2601 145.93 47.9824 145.652 47.6492 145.449C47.2049 145.208 46.7421 145.097 46.2608 145.134C45.7795 145.171 45.3167 145.356 44.8539 145.689C44.3911 146.022 44.0024 146.485 43.6692 147.077L43.3545 147.65L40.5407 146.078L40.911 145.412C41.2442 144.82 41.3923 144.265 41.3923 143.765C41.3923 143.266 41.2627 142.822 41.0405 142.489C40.8184 142.137 40.5777 141.897 40.2816 141.73C39.7447 141.434 39.1709 141.379 38.523 141.564C37.8751 141.749 37.3938 142.156 37.0235 142.803C36.6903 143.377 36.4682 144.043 36.3386 144.801C36.209 145.56 36.172 146.3 36.246 147.058L32.8954 145.19C33.0065 144.172 33.1731 143.247 33.3767 142.415C33.5804 141.582 33.9506 140.694 34.4504 139.788C35.1909 138.474 36.0609 137.512 37.0791 136.902C38.0787 136.31 39.0783 135.995 40.0224 135.995C40.985 135.995 41.781 136.18 42.4104 136.532C42.9287 136.828 43.3915 137.235 43.7803 137.753C44.169 138.271 44.4652 138.826 44.6688 139.418C44.8724 140.01 44.965 140.565 44.9835 141.083C45.7425 140.583 46.6125 140.269 47.5566 140.084C48.5192 139.917 49.5744 140.158 50.7591 140.805L50.8147 140.824Z" fill="white"/>
<path d="M71.5847 119.826L68.5673 124.063L62.0882 119.475C61.4218 119.012 60.7739 118.698 60.126 118.568C59.4781 118.439 58.9042 118.735 58.3859 119.475C58.1453 119.826 57.9972 120.178 57.9231 120.529C57.8676 120.881 57.8676 121.232 57.9231 121.584C57.9787 121.935 58.0527 122.25 58.1453 122.527C58.2378 122.805 58.3304 123.082 58.4414 123.397L65.4944 128.392L62.477 132.628L50.463 124.118L53.4803 119.882L55.2019 121.103C54.9613 119.919 54.9428 118.901 55.1279 118.032C55.313 117.162 55.7017 116.311 56.2941 115.479C58.3304 112.611 61.0701 112.389 64.5317 114.831L71.5847 119.826Z" fill="white"/>
<path d="M78.1192 100.216C79.2484 101.141 80.0444 102.232 80.5257 103.453C81.007 104.674 81.0996 105.988 80.8034 107.394C80.5072 108.8 79.7852 110.187 78.619 111.593C77.4528 112.999 76.2125 113.98 74.8982 114.516C73.5839 115.071 72.2695 115.219 70.9922 114.979C69.7149 114.738 68.4932 114.146 67.364 113.203C66.5124 112.5 65.846 111.723 65.3647 110.872C64.8834 110.021 64.6057 109.096 64.5317 108.097C64.4576 107.098 64.6057 106.08 64.976 105.026C65.3647 103.971 65.9756 102.917 66.8642 101.862C67.7527 100.789 68.6783 99.9752 69.6409 99.4017C70.622 98.8282 71.5846 98.4767 72.5657 98.3842C73.5468 98.2917 74.4909 98.3842 75.4165 98.6987C76.3421 99.0132 77.2491 99.5127 78.1007 100.216H78.1192ZM74.6205 104.434C73.7134 103.694 72.8619 103.305 72.0289 103.268C71.1959 103.231 70.4739 103.601 69.863 104.341C69.2521 105.081 69.0485 105.84 69.2336 106.654C69.4188 107.468 69.9556 108.245 70.8627 108.985C71.7512 109.725 72.6213 110.113 73.4728 110.15C74.3243 110.187 75.0463 109.836 75.6386 109.114C76.2495 108.374 76.4717 107.597 76.268 106.783C76.0644 105.969 75.5276 105.192 74.639 104.434H74.6205Z" fill="white"/>
<path d="M91.392 75.9248L97.797 90.3919L95.4831 92.723L87.4676 89.4299L90.8922 97.385L88.5783 99.716L73.9171 93.6295L77.6194 89.8739L84.8019 93.167L81.5254 85.8964L83.8578 83.5468L91.1884 86.6919L87.7267 79.6248L91.392 75.9062V75.9248Z" fill="white"/>
</svg>
