<svg width="525" height="525" viewBox="0 0 525 525" fill="none" xmlns="http://www.w3.org/2000/svg">
<path d="M296.235 93.916L285.971 92.2141L288.211 78.7053L292.288 79.3861L290.583 89.6585L296.78 90.6886L296.244 93.925L296.235 93.916Z" fill="white"/>
<path d="M308.976 92.6591L302.091 90.994C302.082 91.6288 302.297 92.1832 302.735 92.693C303.164 93.1938 303.719 93.5337 304.38 93.6949C305.543 93.9813 306.911 93.9549 308.475 93.6425L307.957 95.7881C307.385 95.931 306.724 96.0202 305.946 96.0646C305.177 96.1002 304.229 95.9926 303.12 95.724C301.922 95.4376 300.947 94.9634 300.205 94.3105C299.463 93.6576 298.989 92.8975 298.747 92.0301C298.505 91.1628 298.514 90.2419 298.755 89.2674C298.987 88.3019 299.398 87.4974 300.006 86.8359C300.605 86.1835 301.392 85.7367 302.33 85.5134C303.278 85.2812 304.351 85.3173 305.558 85.6128C306.354 85.8008 307.078 86.1676 307.731 86.6774C308.393 87.1962 308.867 87.9026 309.153 88.7968C309.44 89.6909 309.44 90.746 309.136 91.9797L308.967 92.6681L308.976 92.6591ZM306.141 90.1638C306.292 89.529 306.256 88.9926 306.042 88.5455C305.818 88.0894 305.425 87.8032 304.834 87.66C304.262 87.5167 303.753 87.5971 303.297 87.892C302.841 88.1869 302.546 88.6428 302.403 89.2507L306.141 90.1459L306.141 90.1638Z" fill="white"/>
<path d="M317.418 99.0096C317.015 99.0721 316.47 99.0808 315.808 99.0449C315.147 99.0089 314.521 98.9014 313.958 98.7314C311.508 97.9796 310.658 96.3968 311.399 94.0099L312.578 90.1836L311.04 89.7003L311.228 89.1013L317.217 85.8666L317.601 85.9829L316.708 88.8616L319.963 89.864L319.231 92.2241L315.976 91.2217L315.029 94.2971C314.922 94.6547 314.85 94.9586 314.824 95.1821C314.806 95.4146 314.869 95.6381 315.03 95.8528C315.191 96.0674 315.477 96.2284 315.897 96.3627C316.442 96.5327 317.22 96.524 318.239 96.3455L317.427 99.0007L317.418 99.0096Z" fill="white"/>
<path d="M325.998 90.7154L324.435 93.2452L321.85 92.3235L322.234 89.3642L323.038 87.1292L326.802 88.4805L326.007 90.7243L325.998 90.7154Z" fill="white"/>
<path d="M332.439 102.305C332.091 103.154 331.492 103.717 330.652 104.003C329.802 104.28 328.774 104.163 327.54 103.662C326.852 103.385 326.261 103.063 325.779 102.723C325.296 102.383 324.786 101.962 324.24 101.471L325.196 99.1373C325.617 99.6828 326.001 100.121 326.35 100.452C326.69 100.792 327.11 101.051 327.593 101.248C328.416 101.588 328.916 101.535 329.104 101.079C329.167 100.927 329.166 100.766 329.095 100.605C329.023 100.444 328.871 100.22 328.639 99.952C328.406 99.6837 328.084 99.3439 327.673 98.9325C327.163 98.4227 326.796 97.8414 326.564 97.2155C326.313 96.5895 326.331 95.9458 326.599 95.3022C326.795 94.8373 327.108 94.4529 327.564 94.1402C328.02 93.8274 328.592 93.6487 329.28 93.6221C329.96 93.5866 330.711 93.7298 331.525 94.0609C331.713 94.1414 331.963 94.2488 332.249 94.4098C332.544 94.5619 332.893 94.7855 333.304 95.0896C333.716 95.3938 334.091 95.7336 334.413 96.1271L333.484 98.3978C333.341 98.201 333.216 98.0401 333.117 97.9059C333.019 97.7718 332.876 97.6108 332.706 97.423C332.518 97.2352 332.304 97.0384 332.044 96.8506C331.776 96.6538 331.49 96.4928 331.186 96.3675C330.81 96.2065 330.515 96.1796 330.318 96.2689C330.122 96.3583 329.988 96.4744 329.925 96.6264C329.863 96.7784 329.872 96.9483 329.97 97.1361C330.059 97.3328 330.319 97.6279 330.748 98.0214C331.365 98.6028 331.839 99.1304 332.152 99.6044C332.465 100.078 332.653 100.534 332.689 100.964C332.725 101.393 332.645 101.849 332.448 102.331L332.439 102.305Z" fill="white"/>
<path d="M347.964 113.378L344.816 111.696L345.245 110.892C344.762 110.999 344.297 111.034 343.832 111.016C343.367 110.998 342.813 110.819 342.16 110.471C341.516 110.131 340.962 109.63 340.524 108.977C340.085 108.324 339.835 107.555 339.781 106.661C339.745 105.767 340.004 104.81 340.549 103.782C340.978 102.978 341.532 102.298 342.22 101.753C342.9 101.217 343.677 100.886 344.562 100.788C345.447 100.69 346.351 100.896 347.289 101.388C347.871 101.701 348.309 102.014 348.595 102.336C348.881 102.658 349.123 102.989 349.293 103.338L351.285 99.6103L354.433 101.292L347.982 113.36L347.964 113.378ZM346.326 108.88L348.14 105.492C347.881 105.09 347.675 104.795 347.514 104.598C347.353 104.401 347.138 104.222 346.852 104.079C346.36 103.82 345.833 103.811 345.288 104.052C344.742 104.293 344.26 104.776 343.884 105.491C343.464 106.269 343.33 106.939 343.492 107.476C343.644 108.021 343.948 108.415 344.404 108.656C344.779 108.853 345.119 108.96 345.414 108.969C345.709 108.979 346.013 108.943 346.326 108.88Z" fill="white"/>
<path d="M359.263 105.818C359.048 106.175 358.735 106.399 358.333 106.497C357.931 106.595 357.546 106.532 357.206 106.318C356.974 106.175 356.786 105.987 356.661 105.754C356.536 105.522 356.473 105.28 356.482 105.021C356.491 104.762 356.562 104.511 356.705 104.279C356.911 103.93 357.223 103.707 357.626 103.609C358.028 103.511 358.404 103.564 358.761 103.779C359.11 103.985 359.334 104.298 359.432 104.7C359.531 105.102 359.468 105.487 359.263 105.836L359.263 105.818ZM353.079 116.545L350.029 114.693L355.257 106.102L358.307 107.954L353.079 116.545Z" fill="white"/>
<path d="M369.601 115.477L360.161 121.196L357.997 119.711L359.97 108.885L363.127 111.04L361.877 116.565L366.757 113.527L369.619 115.477L369.601 115.477Z" fill="white"/>
<path d="M375.506 127.602L369.952 123.211C369.684 123.783 369.64 124.382 369.819 125.026C369.998 125.669 370.364 126.197 370.901 126.626C371.84 127.369 373.092 127.923 374.648 128.299L373.28 130.025C372.708 129.917 372.055 129.711 371.34 129.425C370.624 129.139 369.811 128.647 368.916 127.931C367.951 127.162 367.262 126.33 366.859 125.427C366.457 124.524 366.34 123.639 366.483 122.745C366.635 121.86 367.019 121.028 367.636 120.233C368.252 119.455 368.967 118.901 369.781 118.553C370.603 118.213 371.488 118.133 372.445 118.321C373.402 118.509 374.368 118.992 375.333 119.761C375.977 120.262 376.478 120.906 376.863 121.648C377.239 122.399 377.373 123.231 377.257 124.17C377.15 125.099 376.703 126.065 375.917 127.048L375.479 127.611L375.506 127.602ZM373.976 124.16C374.378 123.65 374.574 123.15 374.556 122.649C374.538 122.148 374.297 121.71 373.832 121.334C373.367 120.959 372.875 120.824 372.339 120.896C371.811 120.976 371.346 121.262 370.953 121.763L373.967 124.151L373.976 124.16Z" fill="white"/>
<path d="M381.49 138.7L378.897 136.249L385.797 128.938L388.391 131.388L381.49 138.7ZM389.776 129.502C389.481 129.797 389.141 129.958 388.721 129.967C388.301 129.976 387.952 129.841 387.648 129.555C387.451 129.358 387.308 129.144 387.236 128.893C387.165 128.643 387.156 128.384 387.209 128.133C387.272 127.874 387.388 127.651 387.585 127.454C387.871 127.168 388.21 127.007 388.631 126.981C389.042 126.963 389.408 127.097 389.713 127.383C389.999 127.669 390.16 128.009 390.178 128.438C390.196 128.868 390.062 129.216 389.776 129.52L389.776 129.502Z" fill="white"/>
<path d="M390.684 148.144L388.234 145.568L392.167 141.832C392.569 141.448 392.855 141.055 393.025 140.635C393.194 140.214 393.078 139.794 392.649 139.347C392.443 139.141 392.237 138.989 392.005 138.9C391.772 138.81 391.531 138.766 391.289 138.757C391.048 138.747 390.825 138.756 390.628 138.774C390.431 138.792 390.226 138.819 390.011 138.854L385.73 142.921L383.279 140.345L390.564 133.419L393.014 135.994L391.968 136.986C392.782 136.978 393.479 137.103 394.043 137.345C394.606 137.586 395.125 137.962 395.608 138.463C397.271 140.216 397.057 142.075 394.966 144.06L390.684 148.126L390.684 148.144Z" fill="white"/>
<path d="M397.58 155.469C397.213 155.299 396.748 155.012 396.203 154.628C395.666 154.234 395.201 153.805 394.826 153.358C393.18 151.39 393.322 149.602 395.244 148.002L398.328 145.437L397.29 144.203L397.764 143.801L404.55 144.348L404.81 144.661L402.504 146.592L404.686 149.203L402.8 150.785L400.618 148.174L398.142 150.238C397.847 150.48 397.632 150.694 397.498 150.882C397.346 151.07 397.284 151.293 397.311 151.552C397.329 151.821 397.481 152.116 397.758 152.447C398.125 152.885 398.777 153.305 399.734 153.708L397.598 155.486L397.58 155.469Z" fill="white"/>
<path d="M408.723 163.036C407.918 163.626 407.069 163.974 406.175 164.081C405.281 164.188 404.404 164.027 403.528 163.598C402.652 163.168 401.847 162.453 401.105 161.442C400.362 160.432 399.933 159.448 399.789 158.482C399.646 157.517 399.762 156.632 400.146 155.818C400.53 155.005 401.12 154.307 401.925 153.717C402.533 153.271 403.158 152.967 403.802 152.788C404.437 152.619 405.107 152.592 405.778 152.708C406.448 152.825 407.11 153.093 407.736 153.523C408.362 153.952 408.961 154.551 409.516 155.302C410.071 156.071 410.464 156.823 410.688 157.565C410.912 158.307 410.965 159.004 410.876 159.666C410.787 160.327 410.546 160.944 410.197 161.507C409.849 162.071 409.348 162.571 408.732 163.027L408.723 163.036ZM406.504 160.013C407.148 159.548 407.55 159.039 407.711 158.485C407.872 157.93 407.755 157.403 407.371 156.875C406.986 156.348 406.503 156.079 405.94 156.07C405.368 156.052 404.76 156.284 404.125 156.758C403.482 157.223 403.079 157.732 402.919 158.287C402.758 158.841 402.865 159.377 403.241 159.896C403.626 160.424 404.108 160.692 404.681 160.71C405.253 160.728 405.861 160.496 406.504 160.013Z" fill="white"/>
<path d="M431.851 186.092L416.822 187.348L415.694 185.238L421.155 178.311L412.313 178.871L411.186 176.743L420.713 165.123L422.717 168.896L417.345 174.966L425.571 174.289L426.948 176.9L421.747 183.282L429.847 182.354L431.833 186.092L431.851 186.092Z" fill="white"/>
<path d="M427.644 201.728L424.996 195.165C424.477 195.523 424.138 196.023 423.986 196.676C423.825 197.319 423.879 197.963 424.138 198.598C424.586 199.707 425.391 200.816 426.553 201.907L424.515 202.729C424.068 202.353 423.603 201.852 423.129 201.253C422.646 200.645 422.19 199.813 421.769 198.749C421.304 197.605 421.125 196.532 421.223 195.557C421.321 194.583 421.66 193.742 422.232 193.045C422.804 192.348 423.555 191.812 424.485 191.437C425.406 191.07 426.309 190.936 427.185 191.044C428.061 191.152 428.884 191.527 429.617 192.171C430.351 192.815 430.959 193.71 431.424 194.854C431.728 195.605 431.854 196.41 431.818 197.25C431.774 198.082 431.47 198.886 430.916 199.637C430.362 200.388 429.495 201.005 428.324 201.478L427.662 201.746L427.644 201.728ZM428.019 197.973C428.618 197.732 429.029 197.393 429.27 196.955C429.511 196.517 429.511 196.016 429.296 195.461C429.073 194.916 428.715 194.54 428.214 194.344C427.713 194.147 427.168 194.173 426.578 194.406L428.019 197.973Z" fill="white"/>
<path d="M432.44 213.889C431.332 214.247 430.339 214.327 429.472 214.121C428.596 213.924 427.889 213.539 427.335 212.985C426.771 212.421 426.378 211.795 426.163 211.098C426.002 210.597 425.921 210.141 425.912 209.739C425.903 209.336 425.948 209.006 426.01 208.764C426.082 208.514 426.18 208.255 426.296 207.978L425.429 208.255L424.346 204.866L437.389 200.694L438.472 204.083L434.449 205.369C434.727 205.557 435.004 205.852 435.299 206.237C435.585 206.63 435.818 207.113 436.006 207.694C436.256 208.463 436.337 209.188 436.248 209.867C436.159 210.547 435.935 211.146 435.578 211.682C435.22 212.2 434.782 212.656 434.237 213.023C433.692 213.389 433.111 213.684 432.458 213.889H432.44ZM431.375 210.304C432.198 210.036 432.761 209.652 433.074 209.142C433.386 208.632 433.458 208.132 433.297 207.613C433.127 207.104 432.751 206.603 432.134 206.093L428.477 207.263C428.183 207.88 428.138 208.533 428.353 209.194C428.487 209.614 428.791 209.972 429.265 210.285C429.748 210.589 430.445 210.59 431.384 210.295L431.375 210.304Z" fill="white"/>
<path d="M434.053 225.227C433.356 225.388 432.73 225.405 432.166 225.253C431.603 225.101 431.12 224.833 430.691 224.457C430.28 224.081 429.931 223.661 429.671 223.187C429.412 222.713 429.224 222.239 429.108 221.765C428.938 221.095 428.866 220.326 428.848 219.467C428.847 218.609 428.901 217.876 429.035 217.259L432.012 216.536C431.744 217.072 431.556 217.635 431.431 218.208C431.297 218.789 431.306 219.352 431.441 219.897C431.539 220.318 431.7 220.64 431.924 220.899C432.147 221.14 432.389 221.31 432.657 221.4C432.925 221.489 433.185 221.498 433.462 221.436C433.801 221.347 434.078 221.195 434.302 220.953C434.525 220.712 434.659 220.399 434.749 220.024C434.82 219.648 434.802 219.237 434.695 218.79L434.587 218.361L436.733 217.843L436.849 218.352C436.957 218.799 437.136 219.157 437.377 219.399C437.628 219.649 437.878 219.81 438.146 219.882C438.414 219.953 438.656 219.962 438.87 219.909C439.273 219.81 439.586 219.569 439.827 219.185C440.068 218.8 440.113 218.362 439.996 217.87C439.889 217.423 439.692 216.994 439.415 216.556C439.137 216.118 438.798 215.724 438.422 215.384L440.97 214.768C441.39 215.332 441.73 215.868 442.016 216.387C442.303 216.906 442.526 217.505 442.696 218.193C442.938 219.204 442.947 220.089 442.724 220.849C442.501 221.608 442.152 222.225 441.67 222.672C441.187 223.119 440.713 223.396 440.222 223.512C439.819 223.61 439.399 223.619 438.97 223.548C438.532 223.467 438.129 223.333 437.745 223.127C437.369 222.93 437.056 222.689 436.815 222.429C436.663 223.028 436.386 223.591 435.984 224.119C435.582 224.646 434.938 225.022 434.044 225.236L434.053 225.227Z" fill="white"/>
<path d="M433.424 245.424L432.958 241.901L438.332 241.196C438.886 241.125 439.342 240.973 439.735 240.741C440.12 240.5 440.271 240.079 440.191 239.48C440.155 239.194 440.066 238.944 439.931 238.738C439.797 238.532 439.636 238.354 439.439 238.21C439.252 238.058 439.064 237.942 438.894 237.844C438.724 237.745 438.536 237.647 438.348 237.549L432.492 238.325L432.026 234.802L441.995 233.491L442.461 237.013L441.031 237.192C441.701 237.666 442.184 238.167 442.497 238.694C442.81 239.222 443.007 239.83 443.097 240.509C443.411 242.897 442.132 244.282 439.272 244.657L433.416 245.433L433.424 245.424Z" fill="white"/>
<path d="M439.276 258.282C438.274 258.336 437.371 258.166 436.566 257.79C435.762 257.396 435.1 256.788 434.599 255.948C434.098 255.107 433.811 254.07 433.74 252.818C433.677 251.575 433.837 250.502 434.239 249.617C434.641 248.732 435.222 248.044 435.982 247.57C436.742 247.097 437.618 246.829 438.619 246.775C439.379 246.731 440.068 246.812 440.703 247.018C441.337 247.223 441.901 247.554 442.402 248.019C442.903 248.484 443.305 249.066 443.6 249.772C443.896 250.479 444.075 251.301 444.129 252.231C444.182 253.179 444.102 254.028 443.879 254.77C443.656 255.512 443.334 256.138 442.887 256.638C442.44 257.139 441.922 257.532 441.305 257.809C440.688 258.086 440.009 258.247 439.249 258.291L439.276 258.282ZM439.06 254.545C439.856 254.501 440.472 254.295 440.901 253.92C441.33 253.545 441.536 253.035 441.491 252.382C441.455 251.739 441.196 251.247 440.731 250.925C440.266 250.603 439.631 250.468 438.835 250.513C438.039 250.557 437.431 250.772 436.993 251.138C436.547 251.513 436.35 252.014 436.395 252.667C436.431 253.328 436.681 253.811 437.164 254.133C437.647 254.455 438.282 254.59 439.078 254.545L439.06 254.545Z" fill="white"/>
<path d="M443.904 276.621L433.969 272.336L434.04 270.1L439.583 268.028L434.164 265.63L434.235 263.395L444.408 259.643L444.293 263.246L439.161 264.925L444.178 267.046L444.116 269.308L438.976 271.139L444.001 273.072L443.895 276.63L443.904 276.621Z" fill="white"/>
<path d="M431.338 294.392L432.909 284.11L446.446 286.189L445.821 290.266L435.53 288.68L434.575 294.876L431.338 294.374L431.338 294.392Z" fill="white"/>
<path d="M432.764 307.079L434.335 300.177C433.709 300.177 433.146 300.401 432.646 300.83C432.145 301.276 431.814 301.822 431.663 302.492C431.395 303.655 431.431 305.031 431.771 306.587L429.625 306.104C429.473 305.54 429.375 304.87 429.33 304.092C429.276 303.323 429.383 302.375 429.642 301.258C429.918 300.051 430.374 299.077 431.018 298.326C431.661 297.575 432.412 297.092 433.288 296.842C434.155 296.601 435.076 296.592 436.051 296.816C437.017 297.031 437.821 297.443 438.492 298.042C439.154 298.632 439.61 299.41 439.852 300.349C440.093 301.288 440.076 302.379 439.799 303.586C439.612 304.381 439.272 305.114 438.754 305.776C438.235 306.437 437.538 306.92 436.653 307.215C435.759 307.518 434.704 307.518 433.47 307.249L432.773 307.088L432.764 307.079ZM435.222 304.21C435.848 304.353 436.393 304.309 436.831 304.085C437.278 303.853 437.564 303.46 437.707 302.87C437.841 302.289 437.76 301.779 437.447 301.341C437.134 300.903 436.687 300.598 436.07 300.464L435.222 304.21Z" fill="white"/>
<path d="M426.526 315.589C426.463 315.186 426.436 314.641 426.472 313.979C426.507 313.318 426.596 312.692 426.757 312.12C427.481 309.661 429.045 308.794 431.441 309.493L435.295 310.629L435.751 309.083L436.35 309.253L439.66 315.208L439.544 315.593L436.655 314.742L435.7 318.006L433.33 317.298L434.286 314.035L431.192 313.122C430.834 313.015 430.539 312.952 430.298 312.925C430.057 312.899 429.842 312.97 429.636 313.14C429.431 313.31 429.261 313.587 429.145 314.007C428.984 314.543 429.002 315.33 429.199 316.349L426.535 315.562L426.526 315.589Z" fill="white"/>
<path d="M434.924 324.094L432.366 322.556L433.251 319.972L436.219 320.313L438.472 321.082L437.177 324.864L434.924 324.094Z" fill="white"/>
<path d="M423.419 330.662C422.561 330.322 421.988 329.732 421.702 328.891C421.415 328.051 421.513 327.005 422.005 325.78C422.282 325.092 422.586 324.502 422.916 324.01C423.256 323.527 423.667 323.009 424.15 322.455L426.501 323.376C425.965 323.805 425.536 324.199 425.196 324.538C424.857 324.878 424.606 325.307 424.41 325.79C424.079 326.621 424.151 327.122 424.598 327.301C424.75 327.363 424.911 327.363 425.081 327.283C425.242 327.212 425.465 327.06 425.724 326.818C425.993 326.586 426.323 326.255 426.734 325.844C427.244 325.335 427.816 324.959 428.433 324.718C429.059 324.468 429.693 324.477 430.346 324.736C430.811 324.915 431.205 325.237 431.518 325.694C431.831 326.15 432.019 326.713 432.064 327.401C432.109 328.09 431.975 328.832 431.644 329.645C431.573 329.842 431.457 330.083 431.305 330.378C431.153 330.673 430.929 331.022 430.634 331.442C430.339 331.862 429.991 332.229 429.615 332.568L427.335 331.665C427.523 331.513 427.684 331.388 427.818 331.289C427.952 331.191 428.113 331.048 428.292 330.869C428.47 330.69 428.667 330.458 428.855 330.199C429.051 329.931 429.212 329.645 429.328 329.332C429.48 328.947 429.507 328.67 429.409 328.464C429.319 328.268 429.203 328.134 429.051 328.071C428.899 328.008 428.72 328.026 428.532 328.124C428.345 328.223 428.05 328.482 427.656 328.911C427.084 329.537 426.557 330.01 426.092 330.332C425.627 330.654 425.171 330.841 424.733 330.886C424.304 330.94 423.848 330.859 423.365 330.662L423.419 330.662Z" fill="white"/>
<path d="M412.561 346.296L414.205 343.132L415.019 343.552C414.911 343.069 414.857 342.604 414.875 342.139C414.893 341.674 415.063 341.111 415.393 340.459C415.733 339.815 416.224 339.252 416.859 338.796C417.494 338.34 418.271 338.081 419.165 338.028C420.06 337.975 421.016 338.216 422.054 338.753C422.867 339.173 423.556 339.719 424.102 340.39C424.656 341.069 424.978 341.838 425.095 342.724C425.202 343.6 425.015 344.521 424.523 345.459C424.219 346.049 423.907 346.487 423.594 346.782C423.281 347.077 422.95 347.319 422.602 347.488L426.357 349.439L424.713 352.603L412.552 346.305L412.561 346.296ZM417.04 344.608L420.456 346.379C420.849 346.111 421.144 345.905 421.34 345.744C421.537 345.584 421.707 345.36 421.85 345.074C422.109 344.582 422.118 344.055 421.858 343.509C421.608 342.955 421.116 342.499 420.401 342.123C419.614 341.712 418.943 341.595 418.407 341.756C417.87 341.917 417.486 342.23 417.236 342.694C417.039 343.07 416.941 343.419 416.941 343.705C416.932 344 416.968 344.304 417.049 344.617L417.04 344.608Z" fill="white"/>
<path d="M409.487 351.445L411.301 348.379L419.957 353.496L418.143 356.562L409.487 351.445ZM420.289 357.492C419.931 357.278 419.699 356.974 419.6 356.571C419.502 356.169 419.555 355.793 419.761 355.445C419.904 355.212 420.092 355.025 420.315 354.891C420.548 354.765 420.789 354.703 421.057 354.703C421.325 354.703 421.576 354.775 421.808 354.918C422.157 355.124 422.39 355.428 422.506 355.83C422.613 356.223 422.569 356.608 422.354 356.965C422.149 357.314 421.845 357.546 421.434 357.654C421.022 357.761 420.647 357.707 420.298 357.501L420.289 357.492Z" fill="white"/>
<path d="M410.753 367.959L404.911 358.578L406.368 356.388L417.223 358.233L415.114 361.416L409.57 360.234L412.674 365.072L410.762 367.95L410.753 367.959Z" fill="white"/>
<path d="M398.684 374.053L403.01 368.44C402.438 368.171 401.839 368.144 401.204 368.332C400.569 368.519 400.042 368.886 399.622 369.431C398.889 370.378 398.353 371.63 397.996 373.186L396.252 371.835C396.359 371.263 396.546 370.61 396.823 369.886C397.1 369.162 397.592 368.349 398.289 367.437C399.04 366.454 399.871 365.765 400.765 365.354C401.659 364.943 402.553 364.818 403.438 364.953C404.332 365.096 405.173 365.472 405.96 366.08C406.747 366.688 407.31 367.395 407.668 368.217C408.026 369.04 408.107 369.925 407.937 370.882C407.758 371.847 407.294 372.813 406.534 373.787C406.034 374.431 405.417 374.958 404.675 375.342C403.933 375.727 403.093 375.869 402.154 375.771C401.215 375.672 400.258 375.234 399.257 374.465L398.693 374.026L398.684 374.053ZM402.108 372.472C402.627 372.865 403.119 373.053 403.619 373.035C404.12 373.018 404.549 372.767 404.915 372.294C405.273 371.829 405.416 371.328 405.326 370.792C405.246 370.264 404.95 369.808 404.441 369.424L402.099 372.463L402.108 372.472Z" fill="white"/>
<path d="M387.689 380.129L390.102 377.501L397.507 384.317L395.094 386.945L387.689 380.129ZM396.99 388.304C396.686 388.018 396.525 387.678 396.516 387.258C396.498 386.847 396.641 386.489 396.909 386.185C397.105 385.988 397.32 385.845 397.561 385.765C397.812 385.694 398.062 385.676 398.321 385.738C398.581 385.801 398.804 385.917 399.01 386.105C399.305 386.383 399.475 386.731 399.493 387.143C399.511 387.554 399.386 387.911 399.109 388.224C398.832 388.519 398.483 388.689 398.063 388.698C397.652 388.716 397.285 388.581 396.981 388.313L396.99 388.304Z" fill="white"/>
<path d="M378.358 389.425L380.914 386.958L384.688 390.857C385.082 391.251 385.475 391.537 385.895 391.707C386.316 391.877 386.745 391.752 387.174 391.323C387.379 391.117 387.522 390.903 387.612 390.67C387.701 390.438 387.737 390.206 387.746 389.964C387.755 389.723 387.746 389.499 387.719 389.311C387.701 389.115 387.665 388.918 387.638 388.695L383.533 384.446L386.089 381.98L393.083 389.206L390.527 391.673L389.525 390.635C389.543 391.458 389.427 392.146 389.186 392.709C388.945 393.273 388.578 393.8 388.087 394.274C386.353 395.954 384.484 395.748 382.481 393.673L378.376 389.425L378.358 389.425Z" fill="white"/>
<path d="M371.136 396.414C371.297 396.039 371.574 395.583 371.958 395.038C372.342 394.493 372.762 394.019 373.209 393.643C375.158 391.981 376.937 392.098 378.565 393.994L381.176 397.034L382.401 395.989L382.803 396.463L382.341 403.258L382.037 403.526L380.069 401.236L377.486 403.444L375.876 401.566L378.459 399.358L376.366 396.908C376.116 396.622 375.901 396.407 375.722 396.264C375.543 396.121 375.32 396.058 375.052 396.076C374.792 396.103 374.488 396.246 374.167 396.532C373.738 396.907 373.327 397.568 372.933 398.516L371.127 396.405L371.136 396.414Z" fill="white"/>
<path d="M363.7 407.66C363.101 406.864 362.734 406.014 362.618 405.129C362.492 404.235 362.644 403.35 363.064 402.465C363.484 401.58 364.19 400.766 365.191 400.016C366.183 399.274 367.167 398.827 368.132 398.667C369.098 398.506 369.992 398.614 370.805 398.98C371.619 399.347 372.326 399.929 372.934 400.733C373.39 401.333 373.703 401.967 373.891 402.602C374.07 403.246 374.115 403.899 373.999 404.569C373.892 405.249 373.633 405.901 373.213 406.536C372.793 407.171 372.212 407.77 371.452 408.333C370.692 408.896 369.95 409.298 369.208 409.521C368.466 409.744 367.769 409.816 367.107 409.726C366.446 409.636 365.829 409.413 365.256 409.055C364.684 408.697 364.174 408.223 363.718 407.606L363.7 407.66ZM366.695 405.416C367.169 406.051 367.687 406.445 368.233 406.597C368.778 406.749 369.315 406.624 369.842 406.24C370.361 405.847 370.629 405.364 370.637 404.801C370.637 404.229 370.414 403.629 369.931 402.986C369.456 402.351 368.938 401.957 368.383 401.796C367.829 401.635 367.293 401.742 366.774 402.135C366.247 402.537 365.988 403.011 365.979 403.592C365.979 404.165 366.212 404.773 366.695 405.416Z" fill="white"/>
<path d="M340.953 431.069L339.491 416.057L341.583 414.913L348.576 420.297L347.903 411.473L350.022 410.32L361.773 419.711L358.018 421.766L351.883 416.472L352.664 424.688L350.071 426.1L343.623 420.975L344.663 429.058L340.953 431.086L340.953 431.069Z" fill="white"/>
<path d="M325.261 427.049L331.796 424.324C331.429 423.814 330.929 423.475 330.285 423.331C329.632 423.179 328.997 423.242 328.363 423.501C327.254 423.965 326.163 424.787 325.082 425.958L324.232 423.928C324.607 423.482 325.099 423.008 325.689 422.525C326.279 422.043 327.11 421.569 328.174 421.131C329.318 420.649 330.382 420.461 331.357 420.56C332.34 420.65 333.181 420.972 333.878 421.544C334.585 422.108 335.13 422.85 335.515 423.771C335.891 424.683 336.034 425.577 335.945 426.471C335.847 427.356 335.481 428.17 334.855 428.921C334.23 429.672 333.336 430.279 332.2 430.753C331.44 431.065 330.654 431.208 329.813 431.172C328.973 431.136 328.177 430.841 327.417 430.295C326.657 429.75 326.031 428.891 325.539 427.72L325.261 427.067L325.261 427.049ZM329.025 427.381C329.276 427.971 329.625 428.392 330.072 428.624C330.519 428.857 331.02 428.857 331.565 428.634C332.11 428.41 332.477 428.044 332.664 427.534C332.852 427.025 332.816 426.488 332.574 425.907L329.025 427.381Z" fill="white"/>
<path d="M313.157 431.999C312.781 430.89 312.691 429.906 312.888 429.03C313.075 428.163 313.442 427.439 314.005 426.876C314.568 426.313 315.185 425.911 315.882 425.678C316.383 425.518 316.83 425.428 317.232 425.419C317.634 425.411 317.965 425.438 318.215 425.509C318.466 425.581 318.725 425.661 319.011 425.787L318.725 424.928L322.104 423.803L326.453 436.786L323.074 437.912L321.732 433.906C321.544 434.183 321.258 434.469 320.874 434.764C320.489 435.059 319.998 435.3 319.434 435.487C318.666 435.738 317.941 435.836 317.262 435.746C316.582 435.656 315.974 435.442 315.447 435.093C314.919 434.744 314.463 434.306 314.087 433.769C313.703 433.242 313.416 432.651 313.193 431.999L313.157 431.999ZM316.733 430.891C317.01 431.705 317.395 432.268 317.914 432.572C318.432 432.876 318.933 432.948 319.443 432.778C319.952 432.609 320.453 432.215 320.944 431.599L319.727 427.95C319.101 427.664 318.457 427.628 317.796 427.843C317.376 427.977 317.018 428.298 316.723 428.772C316.428 429.246 316.438 429.952 316.742 430.882L316.733 430.891Z" fill="white"/>
<path d="M301.865 433.739C301.686 433.041 301.668 432.415 301.82 431.852C301.972 431.289 302.231 430.797 302.597 430.377C302.964 429.957 303.384 429.609 303.849 429.34C304.313 429.072 304.787 428.885 305.252 428.76C305.923 428.59 306.683 428.492 307.541 428.474C308.399 428.457 309.132 428.511 309.749 428.627L310.51 431.605C309.965 431.345 309.401 431.157 308.82 431.041C308.239 430.924 307.676 430.933 307.121 431.076C306.71 431.183 306.379 431.353 306.138 431.576C305.897 431.8 305.736 432.05 305.647 432.318C305.557 432.587 305.557 432.855 305.62 433.114C305.709 433.454 305.879 433.731 306.112 433.946C306.362 434.16 306.666 434.303 307.042 434.375C307.417 434.447 307.838 434.42 308.276 434.304L308.705 434.197L309.251 436.334L308.741 436.468C308.294 436.575 307.946 436.763 307.704 437.004C307.463 437.245 307.302 437.513 307.231 437.782C307.168 438.059 307.159 438.3 307.204 438.506C307.303 438.908 307.553 439.23 307.938 439.454C308.331 439.686 308.769 439.731 309.261 439.615C309.699 439.499 310.146 439.302 310.575 439.016C311.004 438.731 311.397 438.391 311.746 438.007L312.399 440.555C311.836 440.975 311.3 441.332 310.79 441.627C310.281 441.922 309.673 442.154 308.985 442.324C307.983 442.574 307.098 442.601 306.32 442.377C305.551 442.162 304.934 441.813 304.487 441.348C304.031 440.874 303.745 440.391 303.619 439.908C303.512 439.515 303.503 439.095 303.574 438.648C303.646 438.201 303.78 437.798 303.976 437.423C304.173 437.048 304.396 436.735 304.664 436.484C304.065 436.332 303.493 436.064 302.956 435.67C302.42 435.277 302.044 434.633 301.811 433.739L301.865 433.739Z" fill="white"/>
<path d="M281.686 433.348L285.199 432.839L285.97 438.204C286.05 438.75 286.212 439.215 286.444 439.59C286.686 439.975 287.106 440.127 287.714 440.038C288 440.002 288.241 439.904 288.447 439.77C288.653 439.635 288.822 439.466 288.974 439.278C289.117 439.081 289.242 438.903 289.341 438.733C289.439 438.563 289.537 438.375 289.627 438.178L288.784 432.331L292.298 431.822L293.74 441.774L290.227 442.282L290.021 440.861C289.556 441.54 289.065 442.032 288.537 442.344C288.019 442.666 287.42 442.872 286.731 442.97C284.344 443.318 282.94 442.057 282.537 439.204L281.695 433.357L281.686 433.348Z" fill="white"/>
<path d="M268.866 439.352C268.795 438.351 268.946 437.448 269.33 436.635C269.715 435.821 270.322 435.16 271.154 434.65C271.985 434.141 273.022 433.837 274.265 433.757C275.508 433.677 276.572 433.829 277.466 434.223C278.36 434.617 279.058 435.189 279.541 435.94C280.024 436.691 280.31 437.568 280.373 438.56C280.427 439.311 280.355 440.009 280.15 440.643C279.945 441.278 279.623 441.85 279.167 442.36C278.711 442.869 278.139 443.28 277.442 443.584C276.745 443.888 275.931 444.075 274.992 444.138C274.045 444.209 273.195 444.128 272.453 443.922C271.711 443.716 271.085 443.394 270.575 442.956C270.065 442.518 269.672 441.999 269.386 441.391C269.099 440.783 268.929 440.095 268.875 439.343L268.866 439.352ZM272.595 439.094C272.648 439.881 272.863 440.507 273.239 440.918C273.615 441.348 274.124 441.536 274.795 441.491C275.447 441.447 275.921 441.187 276.234 440.714C276.547 440.24 276.681 439.605 276.618 438.809C276.564 438.023 276.34 437.406 275.965 436.976C275.589 436.547 275.07 436.35 274.427 436.386C273.774 436.43 273.282 436.689 272.978 437.172C272.666 437.646 272.541 438.29 272.586 439.085L272.595 439.094Z" fill="white"/>
<path d="M250.584 444.202L254.729 434.225L256.974 434.27L259.121 439.796L261.453 434.352L263.697 434.398L267.589 444.529L263.986 444.465L262.241 439.359L260.186 444.401L257.924 444.356L256.027 439.241L254.16 444.292L250.593 444.228L250.584 444.202Z" fill="white"/>
<path d="M232.69 431.849L242.99 433.301L241.09 446.863L236.995 446.29L238.44 435.973L232.226 435.103L232.681 431.858L232.69 431.849Z" fill="white"/>
<path d="M219.976 433.419L226.897 434.905C226.897 434.279 226.664 433.725 226.217 433.224C225.77 432.723 225.206 432.41 224.545 432.267C223.373 432.007 222.005 432.069 220.441 432.417L220.896 430.263C221.459 430.111 222.13 429.995 222.899 429.942C223.668 429.888 224.616 429.978 225.733 430.22C226.94 430.479 227.924 430.927 228.684 431.562C229.444 432.197 229.945 432.948 230.196 433.806C230.446 434.665 230.473 435.586 230.259 436.569C230.045 437.535 229.652 438.357 229.071 439.027C228.49 439.698 227.721 440.162 226.773 440.412C225.826 440.663 224.753 440.662 223.546 440.403C222.75 440.232 222.017 439.892 221.337 439.392C220.666 438.882 220.174 438.193 219.861 437.308C219.548 436.423 219.521 435.359 219.789 434.125L219.941 433.437L219.976 433.419ZM222.865 435.843C222.731 436.477 222.776 437.005 223.008 437.452C223.241 437.899 223.652 438.185 224.234 438.302C224.806 438.427 225.324 438.338 225.762 438.025C226.2 437.712 226.495 437.256 226.62 436.63L222.865 435.825L222.865 435.843Z" fill="white"/>
<path d="M211.391 427.283C211.803 427.211 212.33 427.185 213.001 427.194C213.662 427.212 214.288 427.301 214.86 427.462C217.328 428.161 218.214 429.708 217.544 432.112L216.454 435.975L218.001 436.413L217.832 437.012L211.923 440.399L211.529 440.291L212.342 437.386L209.078 436.464L209.739 434.086L213.012 434.999L213.878 431.897C213.976 431.53 214.039 431.235 214.057 431.003C214.075 430.77 213.994 430.547 213.842 430.341C213.672 430.135 213.386 429.974 212.966 429.858C212.42 429.706 211.642 429.732 210.632 429.938L211.382 427.274L211.391 427.283Z" fill="white"/>
<path d="M203.025 435.792L204.527 433.217L207.12 434.076L206.817 437.044L206.075 439.306L202.275 438.044L203.016 435.783L203.025 435.792Z" fill="white"/>
<path d="M196.281 424.363C196.611 423.496 197.183 422.924 198.023 422.62C198.855 422.325 199.901 422.406 201.144 422.881C201.841 423.149 202.44 423.444 202.932 423.775C203.424 424.106 203.952 424.509 204.506 424.992L203.613 427.352C203.175 426.824 202.781 426.395 202.432 426.064C202.084 425.733 201.663 425.491 201.171 425.303C200.34 424.99 199.839 425.062 199.661 425.509C199.598 425.661 199.616 425.822 199.687 425.982C199.759 426.143 199.92 426.358 200.153 426.626C200.394 426.886 200.725 427.217 201.145 427.619C201.655 428.129 202.049 428.683 202.299 429.309C202.559 429.926 202.559 430.57 202.309 431.232C202.13 431.696 201.817 432.099 201.37 432.42C200.923 432.742 200.36 432.93 199.663 432.983C198.983 433.037 198.232 432.911 197.41 432.589C197.213 432.517 196.971 432.401 196.676 432.267C196.381 432.115 196.024 431.9 195.603 431.605C195.183 431.31 194.798 430.979 194.467 430.594L195.334 428.297C195.486 428.485 195.611 428.646 195.71 428.78C195.808 428.914 195.96 429.066 196.139 429.245C196.327 429.433 196.55 429.62 196.819 429.799C197.087 429.996 197.382 430.148 197.695 430.265C198.071 430.408 198.366 430.435 198.562 430.345C198.759 430.256 198.884 430.131 198.938 429.97C199 429.818 198.973 429.648 198.875 429.46C198.777 429.272 198.508 428.986 198.079 428.593C197.444 428.029 196.961 427.511 196.639 427.046C196.308 426.572 196.12 426.133 196.066 425.704C196.013 425.275 196.075 424.819 196.263 424.327L196.281 424.363Z" fill="white"/>
<path d="M180.488 413.683L183.68 415.284L183.278 416.098C183.752 415.982 184.226 415.937 184.691 415.937C185.156 415.937 185.719 416.107 186.381 416.447C187.033 416.778 187.588 417.261 188.062 417.896C188.527 418.54 188.787 419.3 188.858 420.194C188.93 421.088 188.689 422.045 188.162 423.091C187.751 423.913 187.215 424.593 186.544 425.156C185.874 425.719 185.105 426.058 184.229 426.183C183.353 426.308 182.441 426.129 181.493 425.646C180.912 425.351 180.465 425.047 180.16 424.725C179.856 424.421 179.624 424.081 179.436 423.75L177.542 427.522L174.349 425.921L180.488 413.683ZM182.242 418.154L180.526 421.587C180.794 421.98 181.009 422.266 181.17 422.463C181.331 422.66 181.555 422.83 181.841 422.973C182.342 423.223 182.86 423.223 183.405 422.964C183.951 422.705 184.407 422.214 184.773 421.49C185.175 420.694 185.282 420.032 185.121 419.496C184.96 418.959 184.638 418.566 184.173 418.333C183.788 418.145 183.458 418.047 183.154 418.047C182.859 418.056 182.555 418.091 182.251 418.163L182.242 418.154Z" fill="white"/>
<path d="M175.319 410.678L178.413 412.449L173.409 421.173L170.315 419.402L175.319 410.678ZM169.413 421.557C169.627 421.199 169.931 420.967 170.324 420.86C170.727 420.761 171.111 420.806 171.46 421.012C171.701 421.146 171.889 421.334 172.014 421.566C172.149 421.79 172.22 422.04 172.211 422.3C172.202 422.559 172.14 422.818 172.006 423.059C171.8 423.408 171.505 423.649 171.103 423.766C170.701 423.882 170.325 423.828 169.959 423.622C169.61 423.416 169.377 423.112 169.261 422.71C169.154 422.299 169.198 421.932 169.395 421.575L169.413 421.557Z" fill="white"/>
<path d="M158.797 412.139L168.103 406.178L170.311 407.6L168.616 418.472L165.406 416.388L166.522 410.836L161.712 413.999L158.815 412.121L158.797 412.139Z" fill="white"/>
<path d="M152.579 400.147L158.24 404.396C158.49 403.824 158.526 403.216 158.329 402.59C158.123 401.955 157.757 401.427 157.211 401.025C156.254 400.3 154.993 399.772 153.429 399.441L154.742 397.68C155.324 397.779 155.967 397.958 156.701 398.226C157.434 398.495 158.248 398.969 159.169 399.657C160.161 400.4 160.868 401.214 161.279 402.108C161.7 402.993 161.843 403.887 161.718 404.781C161.593 405.675 161.227 406.525 160.628 407.32C160.038 408.107 159.332 408.688 158.519 409.054C157.705 409.42 156.82 409.518 155.855 409.357C154.889 409.196 153.914 408.74 152.922 407.997C152.269 407.505 151.741 406.888 151.347 406.155C150.954 405.422 150.793 404.581 150.882 403.651C150.971 402.722 151.391 401.747 152.15 400.737L152.579 400.165L152.579 400.147ZM154.19 403.563C153.806 404.073 153.618 404.582 153.645 405.092C153.663 405.592 153.913 406.022 154.396 406.379C154.87 406.728 155.371 406.872 155.898 406.773C156.426 406.675 156.882 406.38 157.257 405.88L154.181 403.572L154.19 403.563Z" fill="white"/>
<path d="M146.353 389.237L149.01 391.625L142.297 399.107L139.641 396.719L146.353 389.237ZM138.301 398.632C138.578 398.319 138.917 398.158 139.338 398.149C139.749 398.131 140.107 398.257 140.42 398.534C140.625 398.722 140.768 398.936 140.849 399.178C140.938 399.428 140.939 399.679 140.894 399.938C140.84 400.188 140.724 400.429 140.536 400.635C140.268 400.939 139.92 401.109 139.508 401.126C139.088 401.153 138.731 401.028 138.418 400.751C138.113 400.482 137.943 400.134 137.934 399.713C137.907 399.293 138.033 398.936 138.31 398.623L138.301 398.632Z" fill="white"/>
<path d="M136.954 379.927L139.422 382.485L135.525 386.257C135.132 386.65 134.846 387.044 134.676 387.464C134.506 387.884 134.632 388.313 135.061 388.742C135.267 388.948 135.481 389.091 135.714 389.181C135.946 389.27 136.179 389.306 136.42 389.315C136.662 389.324 136.885 389.315 137.073 389.288C137.27 389.271 137.466 389.235 137.681 389.199L141.926 385.097L144.395 387.654L137.173 394.644L134.704 392.086L135.741 391.085C134.919 391.103 134.23 390.986 133.667 390.745C133.104 390.503 132.576 390.136 132.102 389.645C130.421 387.909 130.626 386.041 132.699 384.039L136.945 379.936L136.954 379.927Z" fill="white"/>
<path d="M129.844 372.871C130.219 373.032 130.684 373.3 131.239 373.676C131.793 374.052 132.258 374.463 132.652 374.91C134.342 376.833 134.253 378.621 132.367 380.274L129.346 382.92L130.411 384.127L129.946 384.539L123.151 384.161L122.882 383.857L125.144 381.864L122.899 379.315L124.758 377.688L127.003 380.237L129.416 378.11C129.702 377.86 129.917 377.645 130.06 377.466C130.203 377.288 130.256 377.055 130.238 376.787C130.22 376.519 130.059 376.233 129.764 375.902C129.389 375.472 128.718 375.07 127.752 374.694L129.835 372.862L129.844 372.871Z" fill="white"/>
<path d="M118.514 365.581C119.309 364.964 120.14 364.598 121.026 364.464C121.911 364.33 122.805 364.473 123.69 364.876C124.584 365.287 125.407 365.985 126.158 366.969C126.919 367.961 127.384 368.927 127.545 369.893C127.715 370.85 127.617 371.753 127.26 372.575C126.902 373.397 126.33 374.112 125.526 374.72C124.927 375.176 124.31 375.507 123.675 375.694C123.041 375.882 122.388 375.926 121.7 375.828C121.011 375.729 120.358 375.47 119.723 375.067C119.08 374.656 118.48 374.074 117.899 373.332C117.327 372.581 116.906 371.839 116.673 371.105C116.441 370.372 116.351 369.675 116.431 369.004C116.512 368.334 116.726 367.726 117.075 367.145C117.423 366.564 117.897 366.054 118.496 365.598L118.514 365.581ZM120.794 368.541C120.169 369.023 119.784 369.551 119.633 370.096C119.481 370.641 119.615 371.187 120.017 371.697C120.411 372.215 120.903 372.475 121.466 372.466C122.038 372.466 122.637 372.225 123.272 371.733C123.898 371.251 124.282 370.723 124.443 370.169C124.595 369.606 124.478 369.078 124.085 368.56C123.682 368.032 123.199 367.781 122.627 367.781C122.055 367.781 121.447 368.031 120.821 368.514L120.794 368.541Z" fill="white"/>
<path d="M94.8046 343.123L109.789 341.483L110.961 343.566L105.679 350.619L114.494 349.835L115.684 351.936L106.452 363.798L104.35 360.069L109.56 353.874L101.344 354.757L99.8947 352.182L104.935 345.674L96.8621 346.807L94.7868 343.123L94.8046 343.123Z" fill="white"/>
<path d="M98.6176 327.379L101.436 333.88C101.945 333.514 102.267 332.995 102.41 332.352C102.553 331.708 102.481 331.064 102.213 330.438C101.739 329.338 100.907 328.256 99.7173 327.192L101.738 326.316C102.194 326.683 102.668 327.175 103.169 327.747C103.669 328.338 104.135 329.16 104.6 330.215C105.092 331.351 105.298 332.415 105.218 333.39C105.138 334.364 104.825 335.213 104.271 335.929C103.717 336.644 102.975 337.189 102.063 337.582C101.151 337.975 100.266 338.127 99.3719 338.037C98.4867 337.956 97.6641 337.598 96.9129 336.972C96.1616 336.346 95.5355 335.47 95.0434 334.334C94.7213 333.583 94.5691 332.787 94.5957 331.956C94.6133 331.115 94.8991 330.311 95.4354 329.542C95.9716 328.773 96.8297 328.148 97.9829 327.639L98.6355 327.362L98.6176 327.379ZM98.3326 331.134C97.7426 331.385 97.3315 331.742 97.0991 332.189C96.8668 332.636 96.8759 333.128 97.1085 333.682C97.3501 334.228 97.7168 334.594 98.2175 334.773C98.7183 334.952 99.2637 334.926 99.8447 334.667L98.3148 331.134L98.3326 331.134Z" fill="white"/>
<path d="M93.5176 315.344C94.6172 314.96 95.6096 314.862 96.4769 315.032C97.3531 315.211 98.0685 315.569 98.6498 316.114C99.2311 316.66 99.6337 317.277 99.8753 317.965C100.054 318.466 100.144 318.913 100.153 319.316C100.162 319.718 100.135 320.049 100.073 320.29C100.01 320.531 99.9209 320.8 99.8136 321.086L100.672 320.782L101.844 324.135L88.9172 328.637L87.7449 325.284L91.732 323.891C91.4548 323.703 91.1597 323.425 90.8735 323.032C90.5783 322.647 90.3278 322.165 90.122 321.601C89.8536 320.832 89.755 320.108 89.8263 319.429C89.8976 318.749 90.112 318.141 90.4516 317.605C90.7912 317.069 91.2291 316.613 91.7565 316.228C92.2839 315.844 92.865 315.531 93.5176 315.308L93.5176 315.344ZM94.672 318.911C93.8585 319.188 93.3043 319.6 93.0094 320.109C92.7056 320.628 92.6521 321.128 92.8221 321.638C92.9922 322.148 93.3946 322.639 94.0206 323.122L97.6502 321.854C97.9361 321.228 97.9538 320.584 97.7212 319.923C97.578 319.511 97.256 319.154 96.782 318.858C96.2991 318.572 95.5928 318.581 94.6631 318.903L94.672 318.911Z" fill="white"/>
<path d="M91.6097 304.033C92.298 303.845 92.9328 303.819 93.4961 303.971C94.0595 304.105 94.5513 304.365 94.9895 304.731C95.4187 305.089 95.7676 305.51 96.0449 305.983C96.3132 306.448 96.519 306.922 96.6443 307.387C96.8233 308.049 96.9309 308.818 96.9669 309.676C97.0029 310.535 96.9585 311.277 96.8424 311.894L93.8743 312.697C94.1155 312.152 94.3031 311.589 94.4192 311.008C94.5352 310.427 94.5082 309.863 94.365 309.309C94.2576 308.898 94.0876 308.567 93.8551 308.334C93.6226 308.102 93.3811 307.932 93.1039 307.851C92.8267 307.771 92.5674 307.762 92.2992 307.833C91.9595 307.922 91.6824 308.092 91.4679 308.342C91.2534 308.593 91.1194 308.906 91.048 309.281C90.9855 309.666 91.0125 310.068 91.1288 310.524L91.2363 310.953L89.1085 311.525L88.9743 311.015C88.849 310.568 88.67 310.228 88.4196 309.978C88.1692 309.727 87.9099 309.575 87.6327 309.512C87.3555 309.45 87.123 309.45 86.9085 309.503C86.5151 309.61 86.1933 309.861 85.9699 310.245C85.7465 310.63 85.693 311.077 85.8273 311.568C85.9436 312.006 86.1494 312.445 86.4446 312.865C86.7308 313.294 87.0796 313.679 87.4731 314.019L84.9342 314.697C84.5048 314.143 84.1381 313.615 83.8429 313.106C83.5477 312.596 83.3061 311.997 83.1181 311.308C82.8496 310.307 82.8225 309.422 83.0279 308.644C83.2333 307.866 83.5729 307.258 84.0377 306.793C84.5024 306.329 84.9851 306.043 85.4679 305.918C85.8613 305.81 86.2725 305.793 86.7196 305.864C87.1667 305.936 87.569 306.052 87.9536 306.258C88.3381 306.464 88.6511 306.67 88.9104 306.929C89.0444 306.33 89.3124 305.758 89.6967 305.213C90.081 304.667 90.7157 304.283 91.6186 304.042L91.6097 304.033Z" fill="white"/>
<path d="M91.7377 283.871L92.2842 287.385L86.92 288.224C86.3746 288.304 85.9187 288.474 85.5343 288.715C85.1499 288.957 85.016 289.377 85.1055 289.985C85.1503 290.262 85.2398 290.512 85.3919 290.718C85.535 290.915 85.696 291.094 85.9017 291.228C86.0984 291.371 86.2772 291.496 86.4561 291.586C86.6349 291.675 86.8227 291.774 87.0105 291.872L92.8485 290.953L93.395 294.467L83.4623 296.028L82.9158 292.514L84.3373 292.291C83.6577 291.826 83.1569 291.343 82.8348 290.825C82.5128 290.306 82.2891 289.707 82.1905 289.018C81.8143 286.64 83.0566 285.219 85.8997 284.773L91.7377 283.853L91.7377 283.871Z" fill="white"/>
<path d="M85.5645 271.12C86.5569 271.04 87.4689 271.183 88.2827 271.55C89.0964 271.917 89.7671 272.516 90.2949 273.348C90.8137 274.171 91.1359 275.208 91.2346 276.451C91.3334 277.693 91.1996 278.757 90.8154 279.66C90.4312 280.563 89.8682 281.251 89.1173 281.752C88.3754 282.243 87.4993 282.529 86.4979 282.618C85.738 282.681 85.0495 282.618 84.4147 282.43C83.7798 282.242 83.2075 281.92 82.6888 281.473C82.1701 281.026 81.7586 280.453 81.4366 279.756C81.1145 279.058 80.9265 278.245 80.8457 277.306C80.7739 276.358 80.8273 275.518 81.0237 274.767C81.2292 274.025 81.5419 273.39 81.9619 272.88C82.3909 272.362 82.9005 271.96 83.5083 271.674C84.1162 271.388 84.7867 271.2 85.5467 271.138L85.5645 271.12ZM85.8697 274.858C85.074 274.92 84.475 275.143 84.046 275.519C83.6259 275.903 83.4472 276.421 83.4921 277.074C83.546 277.718 83.8143 278.201 84.2883 278.514C84.7622 278.827 85.3971 278.943 86.1928 278.881C86.9796 278.81 87.5875 278.595 88.0165 278.202C88.4545 277.818 88.6331 277.299 88.5882 276.664C88.5344 276.003 88.266 275.52 87.7831 275.216C87.3002 274.912 86.6564 274.786 85.8607 274.849L85.8697 274.858Z" fill="white"/>
<path d="M80.4716 252.906L90.5044 256.933L90.4962 259.177L84.9983 261.383L90.4707 263.656L90.4625 265.9L80.3874 269.912L80.4131 266.308L85.4999 264.495L80.4299 262.5L80.4381 260.238L85.5248 258.281L80.4638 256.474L80.4895 252.906L80.4716 252.906Z" fill="white"/>
<path d="M92.5987 234.841L91.2786 245.158L77.6971 243.41L78.2144 239.316L88.5414 240.633L89.3352 234.419L92.5897 234.832L92.5987 234.841Z" fill="white"/>
<path d="M90.8514 222.171L89.4498 229.118C90.0757 229.1 90.6299 228.868 91.1215 228.412C91.6131 227.956 91.9169 227.402 92.0598 226.722C92.3008 225.551 92.2199 224.183 91.8529 222.636L94.0078 223.075C94.1778 223.638 94.2853 224.3 94.3571 225.069C94.4288 225.838 94.3576 226.785 94.1255 227.912C93.8755 229.128 93.4466 230.111 92.83 230.871C92.2133 231.631 91.4624 232.149 90.6042 232.417C89.746 232.685 88.8251 232.712 87.8415 232.515C86.8759 232.318 86.0442 231.933 85.3735 231.351C84.6938 230.779 84.2197 230.019 83.9602 229.08C83.7006 228.141 83.6824 227.068 83.9324 225.852C84.093 225.048 84.4147 224.315 84.9152 223.635C85.4156 222.956 86.095 222.456 86.98 222.143C87.8651 221.83 88.9201 221.777 90.1629 222.037L90.8603 222.18L90.8514 222.171ZM88.483 225.094C87.8571 224.969 87.3206 225.022 86.8737 225.254C86.4267 225.487 86.1497 225.907 86.0336 226.488C85.9176 227.069 86.0161 227.579 86.3291 228.017C86.6422 228.455 87.1072 228.741 87.7242 228.858L88.483 225.094Z" fill="white"/>
<path d="M96.8749 213.518C96.9555 213.92 96.9914 214.457 96.9827 215.127C96.974 215.798 96.8937 216.415 96.7419 216.996C96.081 219.463 94.5345 220.384 92.1203 219.739L88.2397 218.701L87.8289 220.257L87.2209 220.096L83.7501 214.229L83.8572 213.836L86.7632 214.615L87.6474 211.334L90.0347 211.969L89.1506 215.25L92.2623 216.092C92.6289 216.19 92.9239 216.253 93.1653 216.262C93.3978 216.28 93.6213 216.199 93.8269 216.03C94.0325 215.86 94.1933 215.574 94.3005 215.145C94.4523 214.599 94.4074 213.821 94.1925 212.802L96.8749 213.518Z" fill="white"/>
<path d="M88.2625 205.227L90.8557 206.694L90.034 209.305L87.0656 209.036L84.7944 208.32L86.0002 204.502L88.2714 205.218L88.2625 205.227Z" fill="white"/>
<path d="M99.5882 198.391C100.456 198.704 101.037 199.286 101.35 200.117C101.663 200.949 101.583 201.995 101.128 203.238C100.877 203.935 100.583 204.534 100.261 205.034C99.9391 205.535 99.537 206.062 99.0722 206.617L96.7026 205.749C97.23 205.311 97.6501 204.908 97.9719 204.551C98.2936 204.193 98.5349 203.773 98.7225 203.282C99.0262 202.441 98.9545 201.94 98.4896 201.779C98.3376 201.717 98.1766 201.735 98.0157 201.806C97.8548 201.878 97.6403 202.038 97.3721 202.289C97.1219 202.539 96.7912 202.87 96.389 203.29C95.8884 203.808 95.3342 204.201 94.7174 204.46C94.1006 204.72 93.4568 204.737 92.8041 204.496C92.3302 204.326 91.9367 204.022 91.6057 203.565C91.2837 203.118 91.0779 202.555 91.0241 201.875C90.9613 201.187 91.0773 200.445 91.381 199.623C91.4525 199.426 91.5597 199.176 91.6937 198.881C91.8277 198.586 92.0422 198.228 92.3371 197.808C92.6231 197.379 92.9538 196.994 93.3202 196.664L95.6272 197.505C95.4395 197.657 95.2786 197.782 95.1535 197.889C95.0283 197.996 94.8674 198.139 94.6887 198.318C94.501 198.506 94.3222 198.738 94.1435 199.006C93.9558 199.284 93.8039 199.579 93.6878 199.891C93.5538 200.276 93.5271 200.571 93.6255 200.759C93.7239 200.946 93.8402 201.081 94.0011 201.134C94.1621 201.188 94.323 201.17 94.5107 201.072C94.6984 200.974 94.9845 200.705 95.3688 200.267C95.9229 199.624 96.4413 199.141 96.8972 198.811C97.362 198.471 97.809 198.274 98.2381 198.221C98.6673 198.167 99.1233 198.23 99.6151 198.4L99.5882 198.391Z" fill="white"/>
<path d="M110.062 182.462L108.498 185.671L107.685 185.269C107.801 185.742 107.864 186.216 107.864 186.681C107.864 187.146 107.703 187.718 107.382 188.38C107.06 189.041 106.586 189.604 105.952 190.078C105.317 190.552 104.557 190.829 103.663 190.9C102.769 190.971 101.803 190.756 100.757 190.246C99.9344 189.853 99.2369 189.316 98.6644 188.654C98.092 187.993 97.7431 187.232 97.6177 186.356C97.4922 185.48 97.6529 184.568 98.1086 183.612C98.3945 183.022 98.6983 182.575 99.0022 182.271C99.3061 181.967 99.6369 181.726 99.9766 181.529L96.1761 179.677L97.7398 176.468L110.053 182.453L110.062 182.462ZM105.619 184.258L102.167 182.576C101.774 182.844 101.497 183.067 101.3 183.228C101.113 183.398 100.943 183.621 100.809 183.898C100.559 184.399 100.568 184.927 100.836 185.463C101.104 186 101.596 186.456 102.33 186.814C103.125 187.198 103.796 187.315 104.332 187.136C104.869 186.957 105.253 186.645 105.477 186.171C105.664 185.786 105.753 185.447 105.744 185.152C105.735 184.857 105.7 184.553 105.619 184.24L105.619 184.258Z" fill="white"/>
<path d="M102.057 171.453C102.423 171.659 102.656 171.963 102.763 172.357C102.871 172.75 102.826 173.134 102.629 173.492C102.495 173.733 102.308 173.921 102.084 174.055C101.861 174.189 101.61 174.261 101.351 174.269C101.092 174.278 100.842 174.207 100.6 174.073C100.242 173.876 100.01 173.572 99.8846 173.178C99.7682 172.776 99.8039 172.4 100.009 172.034C100.206 171.676 100.51 171.444 100.912 171.328C101.314 171.212 101.699 171.257 102.057 171.453ZM113.002 177.232L111.268 180.343L102.487 175.441L104.221 172.33L113.002 177.232Z" fill="white"/>
<path d="M111.316 160.745L117.398 169.974L115.995 172.2L105.096 170.632L107.134 167.396L112.695 168.435L109.466 163.668L111.307 160.736L111.316 160.745Z" fill="white"/>
<path d="M123.205 154.401L119.032 160.113C119.604 160.363 120.212 160.381 120.847 160.176C121.481 159.97 122 159.595 122.402 159.032C123.108 158.058 123.617 156.797 123.93 155.233L125.709 156.53C125.62 157.102 125.441 157.763 125.191 158.496C124.932 159.22 124.459 160.052 123.788 160.973C123.055 161.974 122.251 162.689 121.366 163.109C120.481 163.546 119.596 163.698 118.702 163.573C117.817 163.456 116.958 163.098 116.153 162.508C115.357 161.927 114.767 161.229 114.391 160.424C114.016 159.619 113.908 158.725 114.06 157.769C114.22 156.803 114.649 155.82 115.382 154.819C115.865 154.157 116.473 153.621 117.197 153.219C117.921 152.817 118.77 152.647 119.7 152.719C120.63 152.791 121.613 153.202 122.633 153.954L123.214 154.374L123.205 154.401ZM119.826 156.063C119.307 155.687 118.789 155.508 118.297 155.535C117.796 155.57 117.367 155.821 117.019 156.312C116.67 156.786 116.545 157.287 116.644 157.814C116.742 158.342 117.046 158.789 117.565 159.165L119.826 156.063Z" fill="white"/>
<path d="M124.56 140.078C124.873 140.355 125.034 140.695 125.061 141.115C125.079 141.527 124.963 141.893 124.695 142.197C124.507 142.403 124.301 142.555 124.042 142.635C123.783 142.715 123.541 142.742 123.282 142.68C123.023 142.635 122.79 142.51 122.576 142.331C122.272 142.062 122.093 141.722 122.066 141.302C122.03 140.891 122.155 140.533 122.423 140.212C122.691 139.908 123.04 139.738 123.46 139.711C123.88 139.685 124.238 139.81 124.551 140.069L124.56 140.078ZM134.057 148.02L131.716 150.702L124.141 144.075L126.482 141.393L134.057 148.02Z" fill="white"/>
<path d="M143.147 138.448L140.68 141.004L136.781 137.23C136.387 136.836 135.976 136.568 135.556 136.416C135.136 136.264 134.715 136.398 134.286 136.845C134.081 137.05 133.947 137.274 133.875 137.506C133.804 137.739 133.759 137.98 133.768 138.221C133.768 138.472 133.786 138.686 133.822 138.883C133.858 139.08 133.885 139.285 133.929 139.491L138.178 143.596L135.711 146.152L128.484 139.159L130.951 136.602L131.989 137.604C131.944 136.79 132.033 136.093 132.256 135.512C132.471 134.94 132.828 134.403 133.302 133.912C134.982 132.178 136.851 132.312 138.917 134.325L143.165 138.43L143.147 138.448Z" fill="white"/>
<path d="M150.217 131.324C150.056 131.699 149.797 132.173 149.422 132.727C149.047 133.282 148.644 133.755 148.206 134.158C146.303 135.865 144.514 135.793 142.842 133.941L140.159 130.954L138.961 132.027L138.55 131.562L138.843 124.758L139.146 124.49L141.168 126.726L143.688 124.455L145.343 126.289L142.822 128.559L144.978 130.947C145.228 131.233 145.461 131.43 145.64 131.573C145.818 131.716 146.051 131.77 146.31 131.743C146.569 131.716 146.873 131.555 147.186 131.26C147.606 130.876 148 130.215 148.366 129.24L150.226 131.297L150.217 131.324Z" fill="white"/>
<path d="M157.348 119.9C157.974 120.687 158.35 121.528 158.494 122.404C158.637 123.28 158.512 124.174 158.119 125.068C157.726 125.962 157.038 126.793 156.054 127.562C155.08 128.339 154.106 128.813 153.149 128.983C152.183 129.161 151.298 129.08 150.467 128.731C149.635 128.382 148.92 127.81 148.302 127.032C147.837 126.442 147.506 125.825 147.301 125.19C147.113 124.555 147.05 123.902 147.139 123.223C147.228 122.543 147.478 121.882 147.88 121.229C148.283 120.577 148.855 119.969 149.597 119.388C150.347 118.798 151.08 118.387 151.813 118.137C152.547 117.887 153.244 117.798 153.906 117.869C154.567 117.941 155.184 118.147 155.774 118.487C156.347 118.827 156.883 119.292 157.348 119.882L157.348 119.9ZM154.408 122.233C153.907 121.607 153.397 121.222 152.843 121.079C152.288 120.936 151.761 121.07 151.242 121.481C150.733 121.883 150.483 122.366 150.483 122.938C150.492 123.501 150.742 124.109 151.234 124.726C151.726 125.343 152.245 125.737 152.808 125.871C153.363 126.014 153.899 125.889 154.409 125.487C154.927 125.076 155.177 124.593 155.168 124.012C155.15 123.44 154.908 122.841 154.408 122.215L154.408 122.233Z" fill="white"/>
<path d="M179.496 95.9277L181.334 110.904L179.26 112.102L172.132 106.905L173.038 115.712L170.955 116.918L158.972 107.831L162.673 105.686L168.942 110.829L167.947 102.63L170.503 101.146L177.085 106.102L175.84 98.0456L179.496 95.9277Z" fill="white"/>
<path d="M195.287 99.5447L188.823 102.431C189.199 102.931 189.718 103.253 190.371 103.388C191.023 103.522 191.667 103.451 192.284 103.174C193.383 102.682 194.447 101.833 195.502 100.636L196.405 102.647C196.039 103.103 195.565 103.595 194.975 104.095C194.385 104.596 193.572 105.087 192.535 105.552C191.408 106.052 190.345 106.276 189.37 106.213C188.395 106.15 187.537 105.846 186.822 105.291C186.097 104.745 185.543 104.012 185.131 103.1C184.729 102.197 184.567 101.303 184.639 100.409C184.71 99.5146 185.058 98.7011 185.666 97.9324C186.283 97.1726 187.15 96.5381 188.276 96.0377C189.018 95.7072 189.814 95.5375 190.654 95.5557C191.486 95.5649 192.299 95.8423 193.077 96.37C193.855 96.8978 194.499 97.7384 195.018 98.9009L195.314 99.5536L195.287 99.5447ZM191.523 99.3021C191.254 98.712 190.905 98.3095 190.449 98.0858C189.993 97.8622 189.502 97.871 188.947 98.1212C188.402 98.3624 188.044 98.7378 187.875 99.2474C187.705 99.7569 187.741 100.293 188 100.875L191.505 99.3021L191.523 99.3021Z" fill="white"/>
<path d="M207.257 94.2998C207.651 95.3907 207.767 96.3832 207.607 97.2593C207.446 98.1355 207.088 98.8685 206.552 99.4406C206.007 100.022 205.399 100.433 204.711 100.692C204.21 100.87 203.772 100.969 203.361 100.986C202.95 101.004 202.628 100.986 202.386 100.923C202.145 100.861 201.868 100.78 201.581 100.673L201.895 101.522L198.551 102.737L193.88 89.8611L197.224 88.6462L198.664 92.6253C198.843 92.3392 199.12 92.0443 199.505 91.7493C199.88 91.4455 200.363 91.1953 200.926 90.9898C201.686 90.7129 202.41 90.6147 203.089 90.6686C203.778 90.7314 204.377 90.9372 204.922 91.2682C205.459 91.6081 205.924 92.0374 206.318 92.5561C206.711 93.0748 207.024 93.656 207.257 94.2998ZM203.717 95.4968C203.421 94.6831 203.019 94.1376 202.491 93.8424C201.973 93.5561 201.463 93.4934 200.962 93.672C200.462 93.8507 199.97 94.2529 199.497 94.8875L200.803 98.5C201.438 98.7774 202.082 98.7954 202.734 98.5542C203.154 98.4024 203.503 98.0896 203.78 97.5979C204.057 97.1062 204.039 96.4089 203.708 95.4879L203.717 95.4968Z" fill="white"/>
<path d="M218.522 92.2648C218.719 92.9623 218.746 93.5792 218.612 94.1424C218.478 94.7056 218.228 95.2062 217.87 95.6353C217.513 96.0643 217.101 96.4218 216.637 96.7078C216.181 96.9848 215.707 97.1903 215.233 97.3243C214.562 97.5118 213.803 97.6278 212.944 97.6633C212.086 97.6988 211.344 97.6718 210.736 97.5643L209.903 94.6047C210.449 94.8462 211.012 95.0163 211.602 95.1237C212.192 95.2312 212.756 95.2046 213.301 95.0527C213.721 94.9366 214.034 94.7669 214.275 94.5255C214.508 94.2931 214.669 94.0428 214.749 93.7657C214.821 93.4975 214.82 93.2293 214.758 92.97C214.659 92.6391 214.489 92.3619 214.239 92.1473C213.989 91.9326 213.676 91.7984 213.291 91.7357C212.907 91.673 212.495 91.7086 212.048 91.8337L211.619 91.9587L211.02 89.8396L211.52 89.6967C211.967 89.5716 212.307 89.375 212.548 89.1337C212.79 88.8924 212.941 88.6153 212.995 88.3471C213.058 88.0699 213.057 87.8375 212.995 87.6139C212.878 87.2115 212.628 86.9075 212.226 86.6838C211.823 86.4602 211.394 86.4243 210.902 86.5583C210.464 86.6744 210.035 86.8888 209.606 87.1927C209.177 87.4965 208.802 87.8361 208.471 88.2384L207.755 85.7169C208.3 85.2789 208.828 84.9125 209.328 84.6087C209.829 84.3049 210.437 84.0547 211.116 83.8582C212.108 83.5813 212.994 83.5369 213.78 83.7339C214.549 83.9308 215.184 84.2618 215.64 84.7179C216.105 85.183 216.401 85.6569 216.535 86.1308C216.642 86.5243 216.669 86.9445 216.607 87.3826C216.544 87.8206 216.419 88.2319 216.232 88.6163C216.044 89.0007 215.821 89.3135 215.579 89.5727C216.187 89.6981 216.76 89.9665 217.305 90.3332C217.851 90.7179 218.244 91.3438 218.504 92.229L218.522 92.2648Z" fill="white"/>
<path d="M238.701 92.1549L235.196 92.7439L234.283 87.3971C234.184 86.8516 234.023 86.3867 233.773 86.0111C233.522 85.6355 233.102 85.5013 232.494 85.6084C232.208 85.6619 231.966 85.7602 231.761 85.8942C231.564 86.0372 231.394 86.2071 231.251 86.4037C231.108 86.6004 230.992 86.7881 230.903 86.9669C230.814 87.1457 230.724 87.3244 230.626 87.5301L231.62 93.3508L228.116 93.9398L226.423 84.024L229.927 83.435L230.169 84.8566C230.625 84.1683 231.108 83.6678 231.617 83.3371C232.127 83.0065 232.726 82.7831 233.414 82.6671C235.783 82.2655 237.214 83.4819 237.707 86.3342L238.701 92.1549Z" fill="white"/>
<path d="M251.332 85.8376C251.431 86.8301 251.288 87.742 250.931 88.5644C250.573 89.3869 249.984 90.0662 249.161 90.6024C248.339 91.1386 247.32 91.4602 246.077 91.576C244.834 91.6919 243.761 91.5663 242.867 91.1906C241.964 90.8237 241.257 90.2602 240.756 89.5269C240.256 88.7936 239.951 87.9173 239.862 86.9159C239.79 86.1649 239.843 85.4675 240.022 84.8239C240.201 84.1802 240.513 83.5991 240.96 83.0807C241.407 82.5623 241.97 82.1422 242.659 81.8116C243.356 81.49 244.16 81.2756 245.099 81.1955C246.047 81.1063 246.887 81.1602 247.629 81.3482C248.381 81.5452 249.015 81.8404 249.534 82.2697C250.053 82.699 250.464 83.1998 250.759 83.799C251.055 84.3981 251.252 85.0776 251.323 85.8287L251.332 85.8376ZM247.604 86.1852C247.523 85.3894 247.3 84.7903 246.915 84.37C246.531 83.9497 246.003 83.7796 245.35 83.842C244.698 83.9044 244.233 84.1725 243.929 84.6552C243.625 85.1379 243.509 85.7727 243.59 86.5684C243.662 87.3552 243.894 87.9633 244.288 88.3925C244.681 88.8218 245.2 89.0008 245.835 88.9384C246.487 88.876 246.97 88.6079 247.265 88.1163C247.56 87.6246 247.676 86.9899 247.613 86.1941L247.604 86.1852Z" fill="white"/>
<path d="M269.481 80.5144L265.585 90.5984L263.341 90.6066L261.06 85.1431L258.871 90.641L256.627 90.6493L252.484 80.6254L256.087 80.5997L257.966 85.6607L259.896 80.5651L262.158 80.5568L264.18 85.6179L265.922 80.5312L269.489 80.5054L269.481 80.5144Z" fill="white"/>
</svg>
