<svg width="120" height="121" viewBox="0 0 120 121" fill="none" xmlns="http://www.w3.org/2000/svg">
<path d="M119.999 60.0952C119.999 93.2313 93.1366 120.095 59.9995 120.095C26.8624 120.095 0 93.2313 0 60.0952C0 26.9591 26.8624 0.0947266 59.9995 0.0947266C93.1366 0.0947266 119.999 26.9581 119.999 60.0952Z" fill="white"/>
<path d="M59.9995 120.095C75.5987 120.095 89.8047 114.138 100.474 104.381C99.8966 101.92 98.3186 98.1166 94.5328 95.8449C89.5502 92.8549 80.4153 90.5302 76.3278 88.1032C72.2393 85.6753 72.8918 70.7314 72.8918 70.7314C76.9105 65.7164 77.6042 59.4712 77.6042 59.4712C81.1895 60.1354 84.8162 55.7345 84.2404 49.7477C83.6636 43.76 79.419 45.9462 79.419 45.9462C77.3428 30.8441 66.9639 28.2816 66.9639 28.2816C63.2282 24.5783 61.4822 26.2545 61.4822 26.2545C57.1638 22.8499 51.9316 24.2619 47.8628 30.739C43.794 37.2161 41.7463 46.6811 41.7463 46.6811C38.6178 52.5736 41.7463 53.7428 41.7463 53.7428C41.7738 63.7916 46.949 70.4347 46.949 70.4347C46.949 70.4347 46.949 80.9816 45.8692 85.0504C44.7893 89.1192 36.07 91.7771 30.5893 93.7697C25.1085 95.7624 22.036 98.5862 19.9844 103.984C19.9009 104.203 19.8636 104.434 19.8469 104.675C30.4802 114.259 44.5565 120.097 60.0005 120.097L59.9995 120.095Z" fill="white"/>
<path d="M81.7948 57.9199C81.7948 57.9199 80.7189 59.2503 77.6051 59.4714C77.6051 59.4714 77.05 65.1624 72.8927 70.7316C72.8927 70.7316 71.2263 81.5065 74.9355 86.9322C74.9355 86.9322 79.7412 83.1316 81.7958 77.0318C83.8493 70.9321 84.0056 63.2327 81.7958 57.9199H81.7948Z" fill="#DFF6F6"/>
<path d="M79.419 45.9452C79.419 45.9452 81.39 45.0992 83.3945 45.9452C83.3945 45.9452 86.3943 35.6646 81.9648 26.4196C77.5374 17.1746 69.3998 13.7425 64.1391 14.7388C64.1391 14.7388 57.2739 10.0323 48.4151 16.2333C39.5582 22.4333 34.3241 35.0387 33.426 49.7467C32.5279 64.4538 34.7417 81.0061 43.0463 88.7026C43.0463 88.7026 45.7592 87.4852 46.6455 81.1742C47.5308 74.8631 47.1436 70.9309 47.1436 70.9309C47.1436 70.9309 41.6629 63.7631 41.7454 52.4822C41.8279 41.2013 46.728 32.9851 50.507 27.6802C54.2849 22.3783 59.7097 24.2599 61.4812 26.4186C61.4812 26.4186 66.0777 27.1929 70.229 30.0728C74.3814 32.9517 78.7538 39.6174 79.418 45.9442L79.419 45.9452Z" fill="#DFF6F6"/>
<path d="M100.605 104.257C99.9537 102.468 98.5781 99.4539 96.0263 96.9101C92.1246 93.0211 82.687 92.2733 79.9741 89.6165C79.9741 89.6165 80.5843 105.261 79.6214 116.795C87.4849 114.075 94.6095 109.773 100.605 104.257Z" fill="#DFF6F6"/>
<path d="M26.1048 95.6788C20.8 98.9203 19.8763 102.696 19.7859 104.62C25.7275 109.988 32.7529 114.173 40.4877 116.832C39.8981 105.519 40.3029 89.9141 40.3029 89.9141C40.3029 89.9141 33.5792 91.1108 26.1048 95.6778V95.6788Z" fill="#DFF6F6"/>
<path d="M59.9995 78.9035C48.6518 78.9035 40.4169 67.7926 40.4169 52.4822C40.4169 51.7483 41.0114 51.1538 41.7454 51.1538C42.4793 51.1538 43.0738 51.7483 43.0738 52.4822C43.0738 66.2519 50.1925 76.2456 59.9995 76.2456C69.8065 76.2456 76.9252 66.2519 76.9252 52.4822C76.9252 51.7483 77.5197 51.1538 78.2536 51.1538C78.9876 51.1538 79.5821 51.7483 79.5821 52.4822C79.5821 67.7926 71.3462 78.9035 59.9995 78.9035Z" fill="#00CBBF"/>
<path d="M100.013 105.312C99.3267 105.312 98.7441 104.782 98.6891 104.087C98.6704 103.896 98.127 99.0962 91.027 95.8105C88.9273 94.8397 86.6163 93.9888 84.3809 93.1664C79.1144 91.2268 74.5651 89.5515 73.2622 86.6068C70.3567 80.0432 71.3668 71.8368 71.411 71.4919C71.5054 70.7639 72.1725 70.2519 72.8976 70.3433C73.6238 70.4357 74.1396 71.1009 74.0473 71.829C74.0364 71.9056 73.0912 79.6571 75.6911 85.5299C76.54 87.4449 80.993 89.0848 85.2996 90.6717C87.5831 91.5127 89.9462 92.3833 92.1432 93.3993C100.736 97.3737 101.318 103.615 101.339 103.878C101.396 104.61 100.85 105.25 100.118 105.307C100.082 105.31 100.048 105.311 100.013 105.311V105.312Z" fill="#00CBBF"/>
<path d="M60.4358 58.4435H59.5623C58.8283 58.4435 58.2338 57.849 58.2338 57.1151C58.2338 56.3811 58.8283 55.7866 59.5623 55.7866H60.4358C61.1697 55.7866 61.7642 56.3811 61.7642 57.1151C61.7642 57.849 61.1697 58.4435 60.4358 58.4435Z" fill="#00CBBF"/>
<path d="M72.7572 40.829C72.4447 40.829 72.1313 40.7199 71.8797 40.4978C69.5766 38.4728 66.6299 39.3109 66.6014 39.3197C65.888 39.5349 65.159 39.1242 64.9507 38.4217C64.7433 37.7172 65.1452 36.9783 65.8487 36.7709C66.0246 36.7179 70.2408 35.5192 73.6336 38.5022C74.1848 38.9866 74.2379 39.8257 73.7545 40.377C73.4921 40.6757 73.1256 40.829 72.7562 40.829H72.7572Z" fill="#00CBBF"/>
<path d="M47.2409 40.829C46.8724 40.829 46.5049 40.6757 46.2426 40.377C45.7582 39.8258 45.8122 38.9857 46.3634 38.5022C49.7543 35.5221 53.9724 36.7208 54.1503 36.771C54.8538 36.9783 55.2557 37.7172 55.0483 38.4217C54.842 39.1222 54.108 39.5251 53.4055 39.3217C53.2758 39.2824 50.387 38.5013 48.1183 40.4968C47.8667 40.7189 47.5543 40.828 47.2409 40.828V40.829Z" fill="#00CBBF"/>
<path d="M59.9995 65.3245C56.1233 65.3245 54.4853 62.2619 54.4175 62.1322C54.0785 61.4807 54.3311 60.6789 54.9815 60.34C55.632 59.997 56.4347 60.2555 56.7737 60.904C56.8071 60.9639 57.7681 62.6657 59.9995 62.6657C62.2309 62.6657 63.1918 60.9629 63.2321 60.8902C63.5809 60.2515 64.3857 60.0108 65.0263 60.3517C65.6689 60.6956 65.9175 61.4856 65.5814 62.1312C65.5137 62.2619 63.8737 65.3235 59.9995 65.3235V65.3245Z" fill="#00CBBF"/>
<path d="M78.9513 60.7476C78.2595 60.7476 77.6769 60.2131 77.6277 59.5125C77.5757 58.7805 78.1259 58.1458 78.8589 58.0947C80.4742 57.9797 81.5325 55.9743 81.9108 55.1185C83.2382 52.1207 83.1743 48.5382 82.2311 47.3385C81.3448 46.2096 80.1991 46.9936 79.981 47.1636C79.3983 47.6077 78.5651 47.4987 78.118 46.9141C77.6729 46.3304 77.785 45.4972 78.3676 45.0511C79.7363 44.0076 82.4472 43.3159 84.321 45.6957C86.1908 48.0745 85.7988 52.9008 84.3416 56.1944C83.1105 58.9741 81.2298 60.5904 79.0466 60.7447C79.0151 60.7476 78.9827 60.7486 78.9522 60.7486L78.9513 60.7476Z" fill="#00CBBF"/>
<path d="M70.0364 48.0086C69.7986 48.0086 69.5579 47.9447 69.3408 47.8111C68.5115 47.3001 67.3511 47.1881 66.9885 47.1881H66.9639C66.2349 47.1881 65.6414 46.6005 65.6355 45.8715C65.6286 45.1375 66.2191 44.5371 66.9521 44.5312C67.1909 44.5342 69.102 44.543 70.734 45.5482C71.3599 45.9334 71.5525 46.7509 71.1683 47.3768C70.9168 47.7845 70.4815 48.0086 70.0354 48.0086H70.0364Z" fill="#00CBBF"/>
<path d="M49.9626 48.0086C49.5165 48.0086 49.0812 47.7845 48.8297 47.3768C48.4455 46.7519 48.6391 45.9344 49.264 45.5482C50.895 44.543 52.8209 44.5332 53.0449 44.5312C53.7779 44.5381 54.3684 45.1375 54.3615 45.8715C54.3547 46.6005 53.7622 47.1881 53.0331 47.1881H53.0262C52.9859 47.1881 51.6457 47.2009 50.6573 47.8111C50.4401 47.9447 50.1994 48.0086 49.9616 48.0086H49.9626Z" fill="#00CBBF"/>
<path d="M78.9513 45.5198C78.3283 45.5198 77.7732 45.0816 77.6484 44.4478C75.1193 31.5889 66.2182 29.4086 65.8409 29.3222C65.1275 29.1591 64.6785 28.4487 64.8377 27.7353C64.9988 27.022 65.7043 26.5729 66.4167 26.7282C66.8627 26.8255 77.3772 29.2976 80.2561 43.9339C80.3976 44.6542 79.9289 45.3537 79.2087 45.4952C79.1222 45.5119 79.0348 45.5198 78.9503 45.5198H78.9513Z" fill="#00CBBF"/>
<path d="M41.7463 50.2952C41.6776 50.2952 41.6078 50.2903 41.5371 50.2785C40.8129 50.1645 40.3177 49.4846 40.4327 48.7594C42.4391 36.043 47.7115 26.1948 53.8653 23.6705C58.5738 21.7368 62.2407 25.1434 62.394 25.2898C62.9276 25.7948 62.9492 26.6349 62.4451 27.1675C61.9401 27.6991 61.1049 27.7226 60.5714 27.2225C60.4535 27.1135 57.9577 24.8702 54.8734 26.1289C50.5197 27.9152 45.1785 35.7345 43.0561 49.175C42.9539 49.8294 42.388 50.2962 41.7454 50.2962L41.7463 50.2952Z" fill="#00CBBF"/>
<path d="M76.3278 86.9429C75.9869 86.9429 75.6469 86.8132 75.3875 86.5518C74.8697 86.033 74.8697 85.191 75.3905 84.6732C80.3455 79.7299 82.7853 72.1553 82.0837 63.8938C82.0218 63.1618 82.5632 62.5192 83.2942 62.4573C84.0361 62.3689 84.6679 62.9378 84.7307 63.6678C85.5001 72.7143 82.7794 81.0554 77.2672 86.5538C77.0078 86.8122 76.6688 86.9419 76.3288 86.9419L76.3278 86.9429Z" fill="#00CBBF"/>
<path d="M79.4199 116.827C79.3846 116.827 79.3482 116.826 79.3138 116.823C78.5818 116.765 78.0355 116.123 78.0944 115.393C78.8559 105.828 78.6044 91.6397 78.6015 91.4972C78.5887 90.7642 79.1723 90.1579 79.9053 90.1442C80.6187 90.099 81.2446 90.7151 81.2583 91.4481C81.2613 91.5925 81.5157 105.908 80.7434 115.603C80.6874 116.299 80.1067 116.827 79.4199 116.827Z" fill="#00CBBF"/>
<path d="M19.9854 105.312C19.9206 105.312 19.8558 105.307 19.7899 105.298C19.0648 105.19 18.5627 104.516 18.6698 103.789C19.0166 101.443 20.3343 99.0569 22.3819 97.0702C22.9086 96.5602 23.7497 96.572 24.2606 97.0987C24.7715 97.6253 24.7588 98.4664 24.2321 98.9773C22.602 100.559 21.5605 102.407 21.2982 104.178C21.2009 104.837 20.6339 105.312 19.9854 105.312Z" fill="#00CBBF"/>
<path d="M28.4159 95.9343C27.9128 95.9343 27.4313 95.6474 27.2063 95.1601C26.8998 94.4949 27.1936 93.7059 27.8607 93.3983C29.4299 92.6781 31.3017 92.0856 33.2815 91.4568C37.482 90.1264 42.2426 88.6181 44.247 85.6606C46.0392 83.0185 46.6435 78.0988 45.9498 71.8064C45.8692 71.0773 46.3959 70.421 47.1249 70.3404C47.8599 70.2598 48.5094 70.7865 48.5909 71.5156C49.1304 76.4097 49.1952 83.0961 46.447 87.1521C43.9247 90.8722 38.6965 92.5278 34.0833 93.9898C32.182 94.5921 30.3879 95.1601 28.9671 95.8125C28.7883 95.8941 28.5996 95.9334 28.4149 95.9334L28.4159 95.9343Z" fill="#00CBBF"/>
<path d="M40.5771 116.827C39.8903 116.827 39.3096 116.298 39.2536 115.603C38.4833 105.908 38.7358 91.5923 38.7387 91.4479C38.7515 90.7228 39.345 90.144 40.0672 90.144H40.0917C40.8247 90.1588 41.4084 90.7631 41.3956 91.497C41.3927 91.6385 41.1421 105.828 41.9026 115.393C41.9606 116.125 41.4153 116.765 40.6832 116.823C40.6479 116.826 40.6115 116.827 40.5771 116.827Z" fill="#00CBBF"/>
<path d="M60.1528 100.661H59.8453C50.5689 100.661 40.976 99.4794 40.8798 99.4676C40.1517 99.3772 39.6358 98.714 39.7262 97.9849C39.8156 97.2578 40.4799 96.7381 41.2089 96.8314C41.3023 96.8432 50.7379 98.0046 59.8443 98.0046H60.1518C69.2642 98.0046 78.6939 96.8432 78.7872 96.8314C79.5123 96.7548 80.1795 97.2578 80.2709 97.9849C80.3613 98.714 79.8454 99.3772 79.1174 99.4676C79.0211 99.4794 69.4283 100.661 60.1518 100.661H60.1528Z" fill="#00CBBF"/>
<path d="M83.532 46.2961C83.3915 46.2961 83.25 46.2745 83.1105 46.2273C82.4148 45.9954 82.0405 45.2428 82.2723 44.5461C84.2964 38.4925 83.2952 31.0329 79.6587 25.0775C76.5567 19.9977 72.0016 16.764 66.8333 15.9721C66.1081 15.862 65.61 15.1831 65.721 14.4579C65.831 13.7338 66.5011 13.2268 67.2351 13.3457C73.1905 14.2565 78.4079 17.9313 81.9265 23.6921C85.9589 30.2979 87.0574 38.6114 84.7916 45.3882C84.6059 45.9433 84.0871 46.2951 83.532 46.2951V46.2961Z" fill="#00CBBF"/>
<path d="M41.0458 87.7063C40.6557 87.7063 40.2686 87.5353 40.0062 87.2071C37.37 83.9057 35.4157 79.8192 34.0332 74.7089C33.8426 74.0004 34.2612 73.2714 34.9706 73.0788C35.6761 72.8911 36.4081 73.3058 36.6007 74.0152C37.8839 78.7659 39.6781 82.538 42.0834 85.5476C42.5413 86.1214 42.4479 86.9566 41.8741 87.4144C41.6285 87.61 41.3366 87.7053 41.0458 87.7053V87.7063Z" fill="#00CBBF"/>
<path d="M34.2464 70.8406C33.6117 70.8406 33.0516 70.3847 32.9386 69.7401C30.9902 58.5458 30.1127 42.3422 36.9966 28.714C41.2108 20.3759 51.3342 7.54656 62.5247 12.3503C63.1997 12.6392 63.5112 13.4204 63.2213 14.0954C62.9305 14.7704 62.1513 15.0829 61.4763 14.792C52.1065 10.7714 43.1652 22.401 39.3685 29.9127C32.8128 42.8915 33.6775 58.4868 35.5572 69.2832C35.6829 70.0074 35.1995 70.6952 34.4763 70.821C34.3987 70.8337 34.3221 70.8406 34.2464 70.8406Z" fill="#00CBBF"/>
</svg>
