<svg width="120" height="121" viewBox="0 0 120 121" fill="none" xmlns="http://www.w3.org/2000/svg">
<path d="M119.999 60.0952C119.999 93.2313 93.1366 120.095 59.9995 120.095C26.8624 120.095 0 93.2313 0 60.0952C0 26.9591 26.8624 0.0947266 59.9995 0.0947266C93.1366 0.0947266 119.999 26.9581 119.999 60.0952Z" fill="white"/>
<path d="M78.9532 45.8597C78.9532 45.8597 78.3431 33.7663 70.0374 27.0062C70.0374 27.0062 57.9106 32.3534 47.8618 31.3659C47.8618 31.3659 42.8635 37.5816 41.0448 46.2695C41.0448 46.2695 36.9838 43.7472 35.9865 48.2316C34.9902 52.7161 37.0683 59.6452 42.3821 59.4192C42.3821 59.4192 43.3774 65.2045 46.2013 69.4237C46.2013 69.4237 48.4681 83.9912 40.1939 90.6933C40.1939 90.6933 42.3398 107.349 48.6459 119.009C52.3237 119.712 56.1164 120.095 59.9995 120.095C63.8826 120.095 67.9131 119.694 71.698 118.946C73.7495 114.074 78.3489 102.125 79.5015 90.4526C79.5015 90.4526 71.7785 84.1897 74.2693 68.2446C74.2693 68.2446 77.0579 63.4644 77.615 59.4182C77.615 59.4182 83.1557 59.6904 83.9034 53.2968C84.6511 46.9022 83.5526 44.4006 78.9532 45.8587V45.8597Z" fill="white"/>
<path d="M40.8316 28.5155C40.8316 28.5155 39.3911 20.9939 46.6995 17.1737C54.0078 13.3535 69.0106 13.2975 75.5447 18.6682C82.0768 24.0389 84.8997 35.2313 82.1878 45.4137L78.9532 46.2705C78.9532 46.2705 79.2166 33.5334 69.4911 27.2362C69.4911 27.2362 55.7784 32.8417 47.8618 31.0701C47.8618 31.0701 42.7692 37.335 41.7454 45.4137L40.6734 46.2705L38.6424 45.4245C38.6424 45.4245 35.6829 32.992 40.8316 28.5165V28.5155Z" fill="#DFF6F6"/>
<path d="M61.2759 86.3857L58.904 86.8259L54.7359 96.2861L57.888 103.835L53.5244 119.742C55.6507 119.97 57.8104 120.095 59.9995 120.095C62.3656 120.095 64.6942 119.943 66.9895 119.675L62.2811 104.004L65.2956 96.0179L61.2769 86.3848L61.2759 86.3857Z" fill="#DFF6F6"/>
<path d="M105.546 99.1277C100.377 91.4696 94.5181 92.7921 89.9649 91.9137C85.2308 90.9999 80.0429 89.2559 80.0429 89.2559C79.1271 101.488 73.5668 114.604 71.5761 118.968C85.0677 116.33 96.9342 109.169 105.546 99.1277Z" fill="#DFF6F6"/>
<path d="M14.2315 98.8742C22.941 109.142 35.0384 116.437 48.8012 119.036C42.4302 107.102 40.0111 89.2549 40.0111 89.2549C35.6485 91.9953 25.6057 92.4934 21.3699 93.3237C18.3337 93.9191 15.5619 97.1105 14.2305 98.8732L14.2315 98.8742Z" fill="#DFF6F6"/>
<path d="M59.9995 78.9035C48.6518 78.9035 40.4169 67.7926 40.4169 52.4822C40.4169 51.7483 41.0114 51.1538 41.7454 51.1538C42.4793 51.1538 43.0738 51.7483 43.0738 52.4822C43.0738 66.2519 50.1925 76.2456 59.9995 76.2456C69.8065 76.2456 76.9252 66.2519 76.9252 52.4822C76.9252 51.7483 77.5197 51.1538 78.2536 51.1538C78.9876 51.1538 79.5821 51.7483 79.5821 52.4822C79.5821 67.7926 71.3462 78.9035 59.9995 78.9035Z" fill="#00CBBF"/>
<path d="M60.4358 58.4435H59.5623C58.8283 58.4435 58.2338 57.849 58.2338 57.1151C58.2338 56.3811 58.8283 55.7866 59.5623 55.7866H60.4358C61.1697 55.7866 61.7642 56.3811 61.7642 57.1151C61.7642 57.849 61.1697 58.4435 60.4358 58.4435Z" fill="#00CBBF"/>
<path d="M72.7572 40.829C72.4447 40.829 72.1313 40.7199 71.8797 40.4979C69.5766 38.4738 66.6299 39.3109 66.6014 39.3198C65.888 39.5369 65.159 39.1242 64.9507 38.4217C64.7433 37.7172 65.1452 36.9783 65.8487 36.771C66.0246 36.7179 70.2408 35.5202 73.6336 38.5023C74.1848 38.9867 74.2379 39.8258 73.7545 40.377C73.4921 40.6757 73.1256 40.829 72.7562 40.829H72.7572Z" fill="#00CBBF"/>
<path d="M47.2409 40.8291C46.8724 40.8291 46.5049 40.6758 46.2426 40.3771C45.7582 39.8259 45.8122 38.9858 46.3634 38.5024C49.7543 35.5222 53.9724 36.721 54.1503 36.7711C54.8538 36.9784 55.2557 37.7173 55.0483 38.4218C54.842 39.1214 54.108 39.5242 53.4055 39.3218C53.2758 39.2845 50.387 38.5014 48.1183 40.497C47.8667 40.719 47.5543 40.8281 47.2409 40.8281V40.8291Z" fill="#00CBBF"/>
<path d="M59.9995 65.3245C56.1233 65.3245 54.4853 62.2618 54.4175 62.1321C54.0785 61.4807 54.3311 60.6789 54.9815 60.3399C55.632 59.997 56.4347 60.2544 56.7737 60.9039C56.8071 60.9638 57.7681 62.6656 59.9995 62.6656C62.2309 62.6656 63.1918 60.9628 63.2321 60.8901C63.5809 60.2515 64.3857 60.0088 65.0263 60.3517C65.6689 60.6956 65.9175 61.4856 65.5814 62.1311C65.5137 62.2618 63.8737 65.3235 59.9995 65.3235V65.3245Z" fill="#00CBBF"/>
<path d="M78.9513 60.7476C78.2595 60.7476 77.6769 60.2131 77.6277 59.5125C77.5757 58.7805 78.1259 58.1458 78.8589 58.0937C80.4742 57.9778 81.5325 55.9733 81.9108 55.1175C83.2382 52.1197 83.1743 48.5373 82.2311 47.3375C81.3448 46.2086 80.1991 46.9927 79.981 47.1627C79.3983 47.6068 78.5651 47.4977 78.118 46.9131C77.6729 46.3294 77.785 45.4962 78.3676 45.0501C79.7363 44.0057 82.4472 43.3139 84.321 45.6947C86.1908 48.0735 85.7988 52.8999 84.3416 56.1934C83.1105 58.9731 81.2298 60.5894 79.0466 60.7437C79.0151 60.7466 78.9827 60.7476 78.9522 60.7476H78.9513Z" fill="#00CBBF"/>
<path d="M41.0458 60.7476C41.0144 60.7476 40.9819 60.7466 40.9515 60.7437C38.7672 60.5894 36.8866 58.9721 35.6544 56.1905C34.1973 52.8989 33.8062 48.0715 35.6761 45.6947C37.5498 43.3139 40.2617 44.0037 41.6285 45.0511C42.2111 45.4962 42.3231 46.3304 41.8761 46.9131C41.4349 47.4948 40.6056 47.6068 40.0229 47.1676C39.6171 46.8708 38.5874 46.2901 37.765 47.3375C36.8217 48.5382 36.7579 52.1177 38.0843 55.1156C38.4636 55.9733 39.5209 57.9788 41.1372 58.0947C41.8702 58.1468 42.4204 58.7815 42.3683 59.5135C42.3192 60.2141 41.7365 60.7486 41.0448 60.7486L41.0458 60.7476Z" fill="#00CBBF"/>
<path d="M70.0364 48.0086C69.7986 48.0086 69.5579 47.9448 69.3408 47.8111C68.5115 47.3002 67.3511 47.1882 66.9885 47.1882H66.9639C66.2349 47.1882 65.6414 46.6006 65.6355 45.8716C65.6286 45.1376 66.2191 44.5372 66.9521 44.5313C67.1909 44.5195 69.102 44.5431 70.734 45.5483C71.3599 45.9335 71.5525 46.7509 71.1683 47.3768C70.9168 47.7846 70.4815 48.0086 70.0354 48.0086H70.0364Z" fill="#00CBBF"/>
<path d="M49.9626 48.0086C49.5165 48.0086 49.0812 47.7846 48.8297 47.3768C48.4455 46.7509 48.6391 45.9344 49.264 45.5483C50.895 44.5431 52.8209 44.5195 53.0449 44.5313C53.7779 44.5382 54.3684 45.1376 54.3615 45.8716C54.3547 46.6006 53.7622 47.1882 53.0331 47.1882H53.0262C52.9859 47.1882 51.6457 47.201 50.6573 47.8111C50.4401 47.9448 50.1994 48.0086 49.9616 48.0086H49.9626Z" fill="#00CBBF"/>
<path d="M15.3172 99.221C15.0372 99.221 14.7552 99.1326 14.5154 98.9508C13.9298 98.5067 13.8159 97.6725 14.26 97.0888C18.0075 92.1544 22.5194 91.3781 28.9769 90.7562C32.012 90.4634 34.1295 90.0586 35.8421 89.4415C36.5289 89.1939 37.2914 89.5515 37.5419 90.2433C37.7895 90.934 37.4319 91.6945 36.7401 91.9431C34.8123 92.6358 32.4954 93.0849 29.2314 93.4003C23.3016 93.9711 19.4764 94.6118 16.3774 98.6943C16.1151 99.0392 15.7181 99.22 15.3172 99.22V99.221Z" fill="#00CBBF"/>
<path d="M45.321 84.457C45.203 84.457 45.0851 84.4412 44.9672 84.4088C44.2598 84.2143 43.8432 83.4823 44.0397 82.7758C45.0154 79.2385 45.2875 75.0607 44.8277 70.6932C44.7501 69.9641 45.2797 69.3097 46.0097 69.2331C46.7309 69.1545 47.3932 69.685 47.4698 70.4151C47.9719 75.1756 47.6801 79.5736 46.6022 83.4813C46.4401 84.0708 45.9056 84.457 45.3229 84.457H45.321Z" fill="#00CBBF"/>
<path d="M104.681 99.2211C104.279 99.2211 103.883 99.0403 103.621 98.6954C100.522 94.6148 96.6984 93.9722 90.7666 93.4014C87.5045 93.0869 85.1866 92.6369 83.2529 91.9442C82.5622 91.6966 82.2036 90.9361 82.4512 90.2444C82.6988 89.5526 83.4563 89.195 84.151 89.4426C85.8685 90.0587 87.9879 90.4635 91.0221 90.7573C97.4795 91.3792 101.993 92.1545 105.739 97.0899C106.183 97.6736 106.069 98.5078 105.484 98.9519C105.244 99.1337 104.962 99.2221 104.682 99.2221L104.681 99.2211Z" fill="#00CBBF"/>
<path d="M78.9473 91.5011C78.6575 91.5011 78.3676 91.4077 78.123 91.2132C76.6982 90.0842 75.5368 88.6182 74.6702 86.8535C74.3469 86.1942 74.6181 85.3974 75.2765 85.0741C75.9426 84.7528 76.7326 85.024 77.0559 85.6803C77.7388 87.0687 78.6781 88.2625 79.7747 89.1321C80.3495 89.588 80.4467 90.4232 79.9898 90.998C79.7275 91.3291 79.3394 91.5011 78.9473 91.5011Z" fill="#00CBBF"/>
<path d="M74.8697 85.1075C74.3028 85.1075 73.7781 84.743 73.6002 84.1731C72.3504 80.1544 71.9898 75.5245 72.5283 70.4151C72.6049 69.6841 73.2681 69.1535 73.9884 69.2331C74.7184 69.3098 75.248 69.9642 75.1704 70.6932C74.6712 75.442 74.9965 79.7122 76.1382 83.385C76.3563 84.0856 75.9643 84.8304 75.2637 85.0485C75.133 85.0888 74.9994 85.1085 74.8697 85.1085V85.1075Z" fill="#00CBBF"/>
<path d="M51.8766 32.6914C50.4529 32.6914 49.0959 32.5588 47.8667 32.2473C47.1554 32.0675 46.725 31.3443 46.9048 30.6319C47.0866 29.9206 47.8117 29.4922 48.5202 29.67C55.8609 31.533 69.4606 25.8075 69.5962 25.7505C70.2722 25.4627 71.0534 25.7781 71.3393 26.4521C71.6272 27.1281 71.3118 27.9083 70.6377 28.1942C70.1347 28.4084 59.9553 32.6904 51.8766 32.6904V32.6914Z" fill="#00CBBF"/>
<path d="M78.7125 46.7421C78.0188 46.7421 77.4341 46.2037 77.388 45.5002C76.6284 33.9069 70.2879 29.2898 70.0187 29.0992C69.4213 28.6766 69.2769 27.8493 69.6964 27.25C70.116 26.6516 70.9384 26.5042 71.5407 26.9208C71.8522 27.1389 79.191 32.3858 80.0399 45.3263C80.0881 46.0583 79.5329 46.691 78.8009 46.7392C78.7714 46.7402 78.741 46.7421 78.7125 46.7421Z" fill="#00CBBF"/>
<path d="M41.7463 46.7421C41.6736 46.7421 41.6009 46.7372 41.5272 46.7234C40.8031 46.6026 40.3137 45.9187 40.4346 45.1946C41.1027 41.1827 42.3526 37.4568 44.1517 34.121C44.5005 33.4765 45.3042 33.2308 45.9517 33.5826C46.5982 33.9304 46.839 34.7361 46.4902 35.3826C44.8306 38.46 43.6761 41.9079 43.0551 45.6308C42.947 46.2813 42.384 46.7411 41.7463 46.7411V46.7421Z" fill="#00CBBF"/>
<path d="M38.3909 44.1344C37.7974 44.1344 37.258 43.7345 37.1047 43.1341C37.0409 42.8786 35.5493 36.7985 38.0834 29.3163C38.3211 28.6206 39.0816 28.2482 39.7675 28.483C40.4631 28.7179 40.8355 29.4735 40.6007 30.1672C38.331 36.8712 39.6692 42.4276 39.682 42.4827C39.8598 43.194 39.4275 43.9152 38.7171 44.0941C38.608 44.1216 38.499 44.1344 38.3909 44.1344Z" fill="#00CBBF"/>
<path d="M82.742 44.1353C82.7007 44.1353 82.6595 44.1343 82.6172 44.1304C81.8862 44.0616 81.3497 43.4141 81.4175 42.6841C82.0286 36.1146 81.8262 24.3042 73.613 19.0101C72.9969 18.6122 72.819 17.7907 73.216 17.1727C73.6139 16.5547 74.4354 16.3817 75.0534 16.7757C83.9751 22.5277 84.8791 34.1731 84.0645 42.9307C83.9997 43.6195 83.4209 44.1363 82.742 44.1363V44.1353Z" fill="#00CBBF"/>
<path d="M40.8846 30.1053C40.2686 30.1053 39.7154 29.6749 39.5847 29.0461C38.6699 24.6412 39.7871 20.8495 42.8144 18.0855C49.1352 12.313 62.6347 12.1665 69.5471 14.2722C70.2496 14.4864 70.6446 15.2282 70.4324 15.9308C70.2182 16.6323 69.4813 17.0303 68.7738 16.8161C62.3105 14.848 49.995 15.126 44.6066 20.0477C42.2445 22.2045 41.4535 24.9724 42.1875 28.5066C42.3369 29.2239 41.875 29.9284 41.1558 30.0778C41.0654 30.0964 40.974 30.1053 40.8846 30.1053Z" fill="#00CBBF"/>
<path d="M60.0005 88.1544C59.9042 88.1544 59.8069 88.1436 59.7096 88.122C51.8854 86.373 45.6943 82.0546 45.4349 81.8719C44.8355 81.4494 44.6911 80.6211 45.1146 80.0217C45.5361 79.4223 46.3654 79.2779 46.9647 79.6994C47.0247 79.7407 52.9987 83.8999 60.2884 85.529C61.0047 85.6882 61.4557 86.3986 61.2955 87.1149C61.1579 87.7339 60.6087 88.1544 60.0005 88.1544Z" fill="#00CBBF"/>
<path d="M51.8442 99.7811C50.391 99.7811 48.927 99.0088 47.6644 97.5595C45.3249 94.8722 42.4921 89.6076 42.3713 89.3846C42.0244 88.7371 42.2691 87.9323 42.9146 87.5865C43.5622 87.2367 44.3679 87.4843 44.7127 88.1289C44.7412 88.1809 47.5248 93.3541 49.6668 95.8135C50.4814 96.7489 51.3677 97.2274 52.0712 97.1056C52.6833 97.0073 53.2316 96.4542 53.6119 95.5502C54.8273 92.6565 57.1992 87.1777 57.1992 87.1777L59.6389 88.234C59.6389 88.234 57.2739 93.6941 56.0614 96.5799C55.3127 98.3613 54.0452 99.4805 52.4927 99.7291C52.2765 99.7644 52.0594 99.7811 51.8422 99.7811H51.8442Z" fill="#00CBBF"/>
<path d="M48.3256 119.499C47.8442 119.499 47.3814 119.239 47.1446 118.782C40.2627 105.493 38.6945 89.5192 38.6316 88.8461C38.5638 88.1151 39.1003 87.4676 39.8304 87.3998C40.5604 87.3231 41.2079 87.8665 41.2767 88.5975C41.2924 88.7567 42.8645 104.74 49.5037 117.561C49.8408 118.212 49.5873 119.014 48.9358 119.351C48.7403 119.452 48.531 119.5 48.3256 119.5V119.499Z" fill="#00CBBF"/>
<path d="M59.9985 88.1544C59.3903 88.1544 58.8411 87.7339 58.7035 87.1149C58.5424 86.3996 58.9943 85.6892 59.7106 85.529C66.9993 83.8989 72.9733 79.7407 73.0333 79.6994C73.6326 79.2779 74.4619 79.4214 74.8834 80.0217C75.3059 80.6211 75.1625 81.4494 74.5631 81.8719C74.3037 82.0547 68.1145 86.373 60.2903 88.122C60.1931 88.1436 60.0958 88.1544 59.9995 88.1544H59.9985Z" fill="#00CBBF"/>
<path d="M68.1519 99.7811C67.9347 99.7811 67.7176 99.7644 67.5014 99.7291C65.9499 99.4795 64.6815 98.3603 63.9347 96.5789C62.7222 93.6941 60.3582 88.236 60.3572 88.234L62.7969 87.1777C62.7969 87.1777 65.1698 92.6565 66.3842 95.5512C66.7645 96.4551 67.3108 97.0073 67.9229 97.1056C68.6265 97.2274 69.5127 96.7489 70.3273 95.8135C72.4693 93.3551 75.2539 88.1809 75.2824 88.1289C75.6292 87.4843 76.433 87.2367 77.0805 87.5865C77.727 87.9333 77.9707 88.739 77.6229 89.3846C77.504 89.6076 74.6702 94.8722 72.3298 97.5595C71.0672 99.0088 69.6041 99.7811 68.1499 99.7811H68.1519Z" fill="#00CBBF"/>
<path d="M71.6714 119.499C71.4661 119.499 71.2578 119.451 71.0612 119.35C70.4098 119.013 70.1553 118.211 70.4933 117.56C77.1404 104.724 78.7056 88.7567 78.7213 88.5965C78.7891 87.8655 79.4249 87.3221 80.1677 87.3978C80.8977 87.4666 81.4342 88.1151 81.3664 88.8461C81.3025 89.5191 79.7354 105.493 72.8515 118.782C72.6157 119.239 72.1519 119.499 71.6704 119.499H71.6714Z" fill="#00CBBF"/>
<path d="M53.5106 119.982C53.3898 119.982 53.2689 119.966 53.1481 119.931C52.4406 119.732 52.0309 118.998 52.2313 118.292L56.3237 103.806L53.8074 96.7302C53.5617 96.0385 53.9223 95.28 54.6141 95.0333C55.3009 94.7897 56.0663 95.1473 56.311 95.84L58.9688 103.313C59.0612 103.573 59.07 103.855 58.9944 104.119L54.786 119.013C54.621 119.6 54.0884 119.981 53.5097 119.981L53.5106 119.982Z" fill="#00CBBF"/>
<path d="M66.4874 119.982C65.9087 119.982 65.3751 119.601 65.2111 119.014L61.0027 104.12C60.9271 103.856 60.9369 103.574 61.0283 103.314L63.6851 95.8411C63.9308 95.1503 64.6962 94.7897 65.382 95.0344C66.0737 95.281 66.4344 96.0395 66.1887 96.7313L63.6724 103.807L67.7647 118.293C67.9642 118.998 67.5545 119.733 66.847 119.932C66.7262 119.967 66.6053 119.983 66.4845 119.983L66.4874 119.982Z" fill="#00CBBF"/>
</svg>
