<svg width="120" height="121" viewBox="0 0 120 121" fill="none" xmlns="http://www.w3.org/2000/svg">
<path d="M119.999 60.0952C119.999 93.2313 93.1366 120.095 59.9995 120.095C26.8624 120.095 0 93.2313 0 60.0952C0 26.9591 26.8624 0.0947266 59.9995 0.0947266C93.1366 0.0947266 119.999 26.9581 119.999 60.0952Z" fill="white"/>
<path d="M66.3715 28.3013C66.3715 28.3013 66.7036 25.4234 63.7146 26.0316C63.7146 26.0316 62.2466 23.4072 56.6273 26.684C51.009 29.9619 44.2332 37.0206 41.9321 45.5739L40.4621 46.1556C40.4621 46.1556 37.9703 42.9996 35.8952 49.2281C33.819 55.4565 39.736 59.9773 42.383 59.4192C42.383 59.4192 43.2811 64.9698 45.8584 69.5554V81.4985C45.8584 81.4985 57.3417 90.1029 74.2723 81.4985L74.402 68.4245L77.6169 59.4192C77.6169 59.4192 82.7892 60.4391 84.2552 54.7088C85.7212 48.9785 82.9808 44.0794 79.078 46.072L77.612 45.1298C77.612 45.1298 75.0092 31.2903 66.3724 28.3003L66.3715 28.3013Z" fill="white"/>
<path d="M64.8966 17.8939C64.8966 17.8939 67.2567 15.181 71.077 17.5058C74.8972 19.8315 82.9808 27.0288 84.4753 32.5656C85.9697 38.1014 81.2121 45.4136 81.2121 45.4136L79.078 46.0729L77.612 45.1307C77.612 45.1307 76.7248 33.782 66.3724 28.3012L63.7156 26.0315C63.7156 26.0315 62.561 24.1853 58.5433 25.7161C54.5266 27.2499 44.8817 35.7747 41.9242 45.1307L41.0467 46.0729L39.3499 45.4136C39.3499 45.4136 34.8831 40.3593 36.0681 33.8321C37.2531 27.3049 50.2072 12.5232 61.0577 16.8976L64.8976 17.8939H64.8966Z" fill="#DFF6F6"/>
<path d="M59.9995 120.095C76.1057 120.095 90.7194 113.736 101.497 103.407C98.92 98.2267 93.9609 96.9946 85.8046 94.8192C77.0853 92.4944 77.8321 89.0889 77.499 85.3237C77.1659 81.5565 74.2723 81.4985 74.2723 81.4985C57.6737 90.5175 45.8584 81.4985 45.8584 81.4985C41.537 82.2964 41.7463 90.491 41.7463 90.491C38.213 95.2152 28.9199 95.733 23.9373 98.1413C20.5347 99.7851 19.1482 102.164 18.6098 103.508C29.3768 113.777 43.9463 120.095 60.0005 120.095H59.9995Z" fill="#DFF6F6"/>
<path d="M59.9995 65.3245C56.1252 65.3245 54.4853 62.2638 54.4175 62.1321C54.0785 61.4817 54.3311 60.6789 54.9815 60.3399C55.632 59.997 56.4337 60.2525 56.7737 60.9039C56.8071 60.9638 57.7681 62.6656 59.9995 62.6656C62.2309 62.6656 63.1918 60.9629 63.2321 60.8901C63.5819 60.2515 64.3847 60.0088 65.0263 60.3517C65.6689 60.6956 65.9175 61.4856 65.5814 62.1311C65.5137 62.2618 63.8737 65.3235 59.9995 65.3235V65.3245Z" fill="#00CBBF"/>
<path d="M59.9995 78.9035C48.6518 78.9035 40.4169 67.7926 40.4169 52.4822C40.4169 51.7483 41.0114 51.1538 41.7454 51.1538C42.4793 51.1538 43.0738 51.7483 43.0738 52.4822C43.0738 66.2519 50.1925 76.2456 59.9995 76.2456C69.8065 76.2456 76.9252 66.2519 76.9252 52.4822C76.9252 51.7483 77.5197 51.1538 78.2536 51.1538C78.9876 51.1538 79.5821 51.7483 79.5821 52.4822C79.5821 67.7926 71.3462 78.9035 59.9995 78.9035Z" fill="#00CBBF"/>
<path d="M74.231 82.8278C73.5265 82.8278 72.9389 82.2737 72.9046 81.5613C72.6265 75.6512 73.0578 69.7086 73.0755 69.459C73.1296 68.727 73.7633 68.1571 74.4973 68.2318C75.2293 68.2849 75.7796 68.9216 75.7245 69.6536C75.7206 69.7135 75.2873 75.6915 75.5585 81.4365C75.5919 82.1695 75.0269 82.7915 74.2929 82.8259C74.2723 82.8269 74.2497 82.8269 74.2291 82.8269L74.231 82.8278Z" fill="#00CBBF"/>
<path d="M60.4367 58.4435H59.5623C58.8273 58.4435 58.2338 57.849 58.2338 57.1151C58.2338 56.3811 58.8283 55.7866 59.5623 55.7866H60.4367C61.1707 55.7866 61.7652 56.3811 61.7652 57.1151C61.7652 57.849 61.1707 58.4435 60.4367 58.4435Z" fill="#00CBBF"/>
<path d="M71.4297 36.8428C71.1182 36.8428 70.8058 36.7337 70.5523 36.5117C68.2806 34.5151 65.3869 35.3011 65.2651 35.3365C64.5615 35.534 63.8266 35.1282 63.6242 34.4266C63.4218 33.7251 63.8197 32.9911 64.5203 32.7848C64.6971 32.7317 68.9114 31.534 72.3071 34.5161C72.8583 35.0005 72.9134 35.8396 72.428 36.3908C72.1656 36.6895 71.7991 36.8428 71.4297 36.8428Z" fill="#00CBBF"/>
<path d="M48.5693 36.8428C48.2008 36.8428 47.8334 36.6895 47.572 36.3908C47.0866 35.8396 47.1416 34.9995 47.6929 34.5161C51.0847 31.534 55.3019 32.7317 55.4797 32.7848C56.1832 32.9921 56.5851 33.731 56.3778 34.4355C56.1714 35.1361 55.4463 35.5369 54.7339 35.3355C54.6052 35.2982 51.7155 34.5151 49.4477 36.5107C49.1962 36.7327 48.8818 36.8418 48.5703 36.8418L48.5693 36.8428Z" fill="#00CBBF"/>
<path d="M78.9513 60.7476C78.2595 60.7476 77.6769 60.2131 77.6277 59.5125C77.5757 58.7805 78.1259 58.1458 78.8589 58.0937C80.4752 57.9778 81.5335 55.9724 81.9117 55.1146C83.2382 52.1168 83.1743 48.5373 82.2311 47.3366C81.4077 46.2892 80.377 46.8718 79.9721 47.1676C79.3875 47.6009 78.5543 47.48 78.118 46.8974C77.6808 46.3137 77.7899 45.4923 78.3686 45.0501C79.7363 44.0027 82.4472 43.313 84.321 45.6937C86.1908 48.0715 85.7998 52.8979 84.3426 56.1895C83.1115 58.9712 81.2298 60.5885 79.0456 60.7427C79.0141 60.7457 78.9827 60.7467 78.9513 60.7467V60.7476Z" fill="#00CBBF"/>
<path d="M41.0467 60.7476C41.0153 60.7476 40.9829 60.7466 40.9524 60.7437C38.7692 60.5894 36.8875 58.9721 35.6554 56.1905C34.1983 52.8989 33.8082 48.0715 35.677 45.6947C37.5498 43.3139 40.2627 44.0037 41.6294 45.0511C42.2121 45.4962 42.3231 46.3304 41.877 46.9131C41.4358 47.4948 40.6056 47.6068 40.0239 47.1676C39.6181 46.8708 38.5874 46.2901 37.766 47.3375C36.8227 48.5382 36.7588 52.1177 38.0853 55.1156C38.4646 55.9733 39.5218 57.9788 41.1381 58.0947C41.8711 58.1468 42.4214 58.7815 42.3693 59.5135C42.3202 60.2141 41.7375 60.7486 41.0458 60.7486L41.0467 60.7476Z" fill="#00CBBF"/>
<path d="M45.768 82.8279C45.7474 82.8279 45.7248 82.8279 45.7041 82.827C44.9711 82.7916 44.4052 82.1706 44.4386 81.4376C44.7098 75.6856 44.2765 69.7146 44.2725 69.6547C44.2185 68.9226 44.7677 68.2859 45.4998 68.2329C46.2043 68.1592 46.8675 68.7281 46.9215 69.4601C46.9392 69.7097 47.3706 75.6522 47.0925 81.5624C47.0591 82.2747 46.4715 82.8289 45.766 82.8289L45.768 82.8279Z" fill="#00CBBF"/>
<path d="M51.7558 51.7739C48.3365 51.7739 45.5558 48.9932 45.5558 45.5739C45.5558 42.1546 48.3365 39.3739 51.7558 39.3739C55.1751 39.3739 57.9558 42.1546 57.9558 45.5739C57.9558 48.9932 55.1751 51.7739 51.7558 51.7739ZM51.7558 42.0317C49.8024 42.0317 48.2136 43.6215 48.2136 45.5739C48.2136 47.5263 49.8034 49.1161 51.7558 49.1161C53.7081 49.1161 55.2979 47.5263 55.2979 45.5739C55.2979 43.6215 53.7081 42.0317 51.7558 42.0317Z" fill="#00CBBF"/>
<path d="M68.2433 51.7739C64.8239 51.7739 62.0433 48.9932 62.0433 45.5739C62.0433 42.1546 64.8239 39.3739 68.2433 39.3739C71.6626 39.3739 74.4433 42.1546 74.4433 45.5739C74.4433 48.9932 71.6626 51.7739 68.2433 51.7739ZM68.2433 42.0317C66.2899 42.0317 64.7011 43.6215 64.7011 45.5739C64.7011 47.5263 66.2909 49.1161 68.2433 49.1161C70.1956 49.1161 71.7854 47.5263 71.7854 45.5739C71.7854 43.6215 70.1956 42.0317 68.2433 42.0317Z" fill="#00CBBF"/>
<path d="M62.7723 46.4591H57.1874C56.4534 46.4591 55.8589 45.8647 55.8589 45.1307C55.8589 44.3967 56.4534 43.8022 57.1874 43.8022H62.7723C63.5063 43.8022 64.1007 44.3967 64.1007 45.1307C64.1007 45.8647 63.5063 46.4591 62.7723 46.4591Z" fill="#00CBBF"/>
<path d="M77.6101 46.7421C76.9655 46.7421 76.3996 46.2725 76.2984 45.6141C74.3155 32.6914 66.0089 29.5816 65.9244 29.5521C65.2337 29.3055 64.8731 28.545 65.1207 27.8532C65.3663 27.1645 66.1249 26.8009 66.8195 27.0505C67.2214 27.1939 76.7042 30.739 78.9248 45.2123C79.0368 45.9374 78.5376 46.6154 77.8125 46.7264C77.7447 46.7372 77.6759 46.7421 77.6101 46.7421Z" fill="#00CBBF"/>
<path d="M41.9242 46.9465C41.8446 46.9465 41.765 46.9397 41.6825 46.9249C40.9613 46.7923 40.4838 46.0996 40.6164 45.3784C42.6091 34.5279 56.0133 24.711 59.353 23.7294C63.2675 22.573 64.8131 25.2721 64.875 25.388C65.2317 26.0287 64.9998 26.8383 64.3582 27.194C63.7264 27.5467 62.9325 27.3237 62.5689 26.7076C62.4559 26.5337 61.8399 25.7643 60.1027 26.2782C57.8192 26.9503 45.0812 35.7826 43.2291 45.8588C43.1112 46.5005 42.5531 46.9475 41.9232 46.9475L41.9242 46.9465Z" fill="#00CBBF"/>
<path d="M81.6042 45.9619C81.3439 45.9619 81.0805 45.8853 80.8486 45.7261C80.2453 45.3085 80.095 44.4822 80.5116 43.8789C80.549 43.8229 84.3171 38.2812 83.2854 33.218C82.2419 28.1057 72.2364 18.8971 69.5147 17.9253C67.3786 17.1688 66.0502 18.5935 65.9048 18.7585C65.4253 19.3058 64.5881 19.3687 64.0359 18.8971C63.4827 18.4225 63.41 17.5972 63.8787 17.04C63.9809 16.9162 66.4697 14.0127 70.4069 15.4227C73.8223 16.6411 84.5903 26.3224 85.8882 32.6855C87.1508 38.8737 82.8776 45.1277 82.6959 45.3901C82.4374 45.7625 82.0238 45.9619 81.6032 45.9619H81.6042Z" fill="#00CBBF"/>
<path d="M38.0883 44.0744C37.708 44.0744 37.3307 43.9123 37.0674 43.5979C33.1685 38.9297 33.4987 33.389 38.0784 26.6594C43.1269 19.24 48.9594 16.6303 52.9083 15.3137C57.6689 13.7259 61.4999 15.6321 61.66 15.7136C62.3135 16.0467 62.5738 16.8465 62.2398 17.5009C61.9077 18.1533 61.1147 18.4157 60.4584 18.0836C60.4024 18.0551 57.4026 16.6156 53.7484 17.834C49.8633 19.132 44.8198 21.4764 40.2754 28.1549C35.1867 35.6332 37.1705 39.5772 39.1062 41.8931C39.5759 42.4581 39.5022 43.2943 38.9392 43.7659C38.6896 43.9732 38.3879 44.0744 38.0883 44.0744Z" fill="#00CBBF"/>
<path d="M100.698 103.539C100.274 103.539 99.8564 103.337 99.599 102.96C97.0168 99.1709 93.118 98.2522 88.9902 97.2785C85.5335 96.4639 81.9589 95.6218 78.8275 93.1173C78.6782 92.9964 78.5553 92.8451 78.4698 92.6732C77.162 90.0556 75.81 87.3545 75.6823 83.3938C75.3315 83.1305 74.8884 82.8711 74.5288 82.7984C64.0654 86.6569 54.6789 86.7394 44.2618 83.0381C43.7921 83.9774 43.7764 85.2774 43.7606 86.6373C43.7361 88.7753 43.7086 91.1993 41.7857 92.7773C41.2187 93.2431 40.3816 93.1586 39.9159 92.5916C39.4511 92.0247 39.5327 91.1875 40.1016 90.7218C41.0006 89.9839 41.0802 88.6761 41.1038 86.6078C41.1283 84.5404 41.1549 82.199 42.8439 80.509C43.2124 80.1395 43.7597 80.0216 44.25 80.2044C54.6328 84.0993 63.4926 84.0993 73.8763 80.2044C74.0257 80.1484 74.1839 80.1199 74.3431 80.1199C76.1697 80.1199 77.7644 81.6615 77.9402 81.8374C78.1898 82.087 78.3293 82.424 78.3293 82.7767C78.3293 86.3218 79.4691 88.7252 80.713 91.216C83.3267 93.2116 86.3756 93.9308 89.5984 94.6894C94.0386 95.7368 98.6311 96.8186 101.794 101.46C102.208 102.067 102.05 102.894 101.445 103.307C101.215 103.463 100.956 103.537 100.697 103.537L100.698 103.539Z" fill="#00CBBF"/>
<path d="M19.2996 103.539C19.109 103.539 18.9154 103.498 18.7317 103.411C18.0684 103.096 17.7855 102.304 18.1009 101.641C20.4158 96.7558 26.7818 95.3625 31.8961 94.2433C33.3277 93.9289 34.6807 93.6332 35.8018 93.2932C36.5102 93.0819 37.2462 93.4789 37.4594 94.1795C37.6726 94.881 37.2747 95.6238 36.5731 95.8361C35.3508 96.2055 33.9497 96.5131 32.465 96.8383C27.6809 97.8857 22.2581 99.0726 20.5013 102.78C20.2743 103.258 19.7978 103.538 19.2996 103.538V103.539Z" fill="#00CBBF"/>
</svg>
