<svg width="102" height="90" viewBox="0 0 102 90" fill="none" xmlns="http://www.w3.org/2000/svg">
<path d="M74.5286 35.032C73.8043 34.579 73.1377 34.1866 72.5154 33.856C71.0135 33.0581 69.7358 32.5968 68.5128 32.5058C66.5727 32.3617 64.8804 33.1608 62.7553 34.6953C63.9344 32.354 64.455 30.5563 64.0056 28.6633C63.7223 27.47 63.0653 26.282 62.04 24.9253C61.6153 24.3634 61.1226 23.7674 60.561 23.1242C61.2848 23.5769 61.9509 23.9699 62.5728 24.3003C64.0745 25.098 65.3517 25.5588 66.5747 25.6498C68.5153 25.794 70.2081 24.9947 72.3341 23.4595C71.1546 25.8014 70.6325 27.599 71.0819 29.4924C71.3652 30.6856 72.0228 31.8742 73.0482 33.231C73.4731 33.7931 73.9667 34.3886 74.5286 35.032Z" fill="#FECA38" fill-opacity="0.8" stroke="#FFA600"/>
<path d="M51.3163 30.1659C52.0328 30.7459 52.6847 31.1399 53.3609 31.3256C54.2232 31.5622 55.0569 31.4393 56.0137 31.0795C55.4463 31.9302 55.1391 32.7154 55.1743 33.6091C55.202 34.3097 55.4377 35.0334 55.8402 35.8625C55.124 35.2828 54.473 34.8885 53.797 34.7029C52.9343 34.4661 52.0996 34.588 51.1422 34.9481C51.7097 34.0974 52.0188 33.3131 51.9836 32.4194C51.9559 31.7187 51.7189 30.9951 51.3163 30.1659Z" fill="#FECA38" fill-opacity="0.8" stroke="#FFA600"/>
<path d="M62.2063 39.6648C60.8084 40.1875 60.1057 41.758 60.6357 43.1752C60.9451 44.0026 61.6126 44.5849 62.3865 44.8282C57.9346 54.251 50.9945 63.9491 35.5932 41.147C37.0258 40.3634 37.7055 38.6191 37.1083 37.022C36.4549 35.2748 34.526 34.3779 32.8001 35.0233C31.0743 35.6687 30.2063 37.6087 30.8606 39.3584C31.457 40.953 33.1145 41.8232 34.7106 41.4771C38.0824 69.0627 26.2199 65.966 16.6248 61.7109C17.1755 60.9892 17.3572 60.0096 17.0123 59.0873C16.4823 57.6701 14.9216 56.946 13.5236 57.4688C12.1257 57.9916 11.428 59.5602 11.958 60.9774C12.4879 62.3946 14.0487 63.1187 15.4466 62.5959C15.6266 62.5286 15.7942 62.4431 15.9503 62.342L33.6977 85.0075L64.9234 73.3301L63.462 44.9388C63.6838 44.9157 63.905 44.8758 64.1219 44.7946C65.5199 44.2718 66.2225 42.7014 65.6925 41.2842C65.1625 39.867 63.6018 39.1429 62.2039 39.6657L62.2063 39.6648Z" fill="url(#paint0_linear_2001_70)"/>
<path d="M25.1548 54.9937C25.2608 54.954 25.3327 54.8759 25.4282 54.8231C26.352 57.7967 26.8642 60.5568 27.1531 62.8021C28.3119 62.722 29.3575 62.3993 30.2288 61.7459C31.1657 61.0422 31.9036 59.9343 32.456 58.4656C30.4092 57.6441 28.0754 56.3858 25.9404 54.4492C26.4762 53.8756 26.6859 53.0308 26.3895 52.2384C25.9736 51.1262 24.7461 50.5567 23.6489 50.967C22.5518 51.3773 21.9992 52.6125 22.4151 53.7247C22.8311 54.837 24.0586 55.4065 25.1557 54.9962L25.1548 54.9937Z" fill="url(#paint1_linear_2001_70)"/>
<path d="M52.2799 53.4966C53.3662 53.418 54.3645 52.9763 55.2939 52.2754C54.0386 50.3915 52.6157 47.9692 51.36 45.1225C51.4667 45.0997 51.5723 45.1115 51.6783 45.0719C52.7754 44.6616 53.328 43.4264 52.9121 42.3141C52.4961 41.2018 51.2686 40.6324 50.1715 41.0427C49.0743 41.453 48.5217 42.6881 48.9377 43.8004C49.234 44.5928 49.9489 45.0918 50.7272 45.1739C50.3844 48.0372 49.4514 50.5172 48.4459 52.4802C49.8265 53.226 51.1112 53.5803 52.2799 53.4966Z" fill="url(#paint2_linear_2001_70)"/>
<defs>
<linearGradient id="paint0_linear_2001_70" x1="49.1844" y1="79.216" x2="32.4221" y2="35.168" gradientUnits="userSpaceOnUse">
<stop stop-color="#D2953F"/>
<stop offset="0.240385" stop-color="#CBA756"/>
<stop offset="0.471154" stop-color="#EEDA77"/>
<stop offset="0.745192" stop-color="#E5B749"/>
<stop offset="0.985577" stop-color="#D2953F"/>
</linearGradient>
<linearGradient id="paint1_linear_2001_70" x1="23.8677" y1="57.609" x2="31.1212" y2="54.8964" gradientUnits="userSpaceOnUse">
<stop stop-color="#D2953F"/>
<stop offset="0.230769" stop-color="#CBA756"/>
<stop offset="0.5" stop-color="#EEDA77"/>
<stop offset="0.802885" stop-color="#E5B749"/>
<stop offset="1" stop-color="#D2953F"/>
</linearGradient>
<linearGradient id="paint2_linear_2001_70" x1="47.1105" y1="48.9168" x2="54.3641" y2="46.2042" gradientUnits="userSpaceOnUse">
<stop stop-color="#D2953F"/>
<stop offset="0.11" stop-color="#CBA756"/>
<stop offset="0.39" stop-color="#EEDA77"/>
<stop offset="0.59" stop-color="#E5B749"/>
<stop offset="0.91" stop-color="#D2953F"/>
</linearGradient>
</defs>
</svg>
