<?xml version="1.0" encoding="UTF-8"?><svg id="a" xmlns="http://www.w3.org/2000/svg" width="267" height="80" viewBox="0 0 267 80"><polygon points="121.155 6.905 121.155 9.425 121.155 12.702 121.155 15.222 123.935 15.222 127.825 15.222 127.825 12.702 123.935 12.702 123.935 9.425 127.825 9.425 127.825 6.905 123.935 6.905 121.155 6.905"/><polygon points="129.148 9.13 132.859 12.997 129.148 12.997 129.148 15.222 136.734 15.222 136.734 12.997 133.185 9.13 136.734 9.13 136.734 6.905 129.148 6.905 129.148 9.13"/><polygon points="145.846 6.905 138.26 6.905 138.26 9.13 141.971 12.997 138.26 12.997 138.26 15.222 145.846 15.222 145.846 12.997 142.297 9.13 145.846 9.13 145.846 6.905"/><polygon points="133.471 73.095 114.188 67.741 109.892 19.545 157.108 19.545 152.806 67.734 133.471 73.095"/><polygon points="148.305 29.475 133.517 29.475 133.497 29.475 118.695 29.475 118.836 31.061 119.222 35.386 133.497 35.386 133.517 35.386 134.203 35.386 133.497 35.682 133.497 35.682 119.763 41.44 120.29 47.351 133.497 47.351 133.517 47.351 140.776 47.351 140.089 55.017 133.497 56.796 133.497 56.798 126.915 55.02 126.494 50.306 123.295 50.306 120.56 50.306 121.388 59.587 133.496 62.949 133.498 62.948 133.498 62.945 145.615 59.587 147.237 41.44 133.869 41.44 147.775 35.386 148.305 29.475" style="fill:#fff;"/></svg>