<svg width="1246" height="209" viewBox="0 0 1246 209" fill="none" xmlns="http://www.w3.org/2000/svg">
<path d="M1031.28 86.5286L1026.36 61.8214C1025.93 59.8778 1025.69 57.7931 1025.47 55.9837C1025.22 53.8203 1025.07 51.923 1025.11 50.5625C1023.16 54.6991 1021.08 58.771 1015.84 68.3167L1008.04 82.3483C1004.08 89.511 1001.16 91.2088 996.416 91.7633C990.926 92.4056 987.727 92.1019 984.261 85.13L976.91 70.677C972.748 62.5504 971.417 59.7551 970.293 57.0154C969.742 60.1505 968.844 64.0837 967.693 68.246L960.382 94.8622L940 97.2465L957.273 39.9955C959.377 33.05 964.092 29.2284 969.385 28.6092C974.678 27.9901 977.983 30.5543 980.299 34.9092L989.341 51.4772C994.437 60.7308 996.105 64.0051 997.341 67.0109C998.949 63.6724 1000.97 60.0864 1007.01 49.5298L1017.71 30.5726C1020.44 25.8669 1024.02 22.2581 1029.47 21.6204C1034.41 21.0428 1039.17 23.7553 1040.66 30.2804C1044.42 48.2242 1048.07 66.2606 1051.95 84.1906L1031.21 86.6165L1031.28 86.5286Z" fill="url(#paint0_linear_2001_21)"/>
<path d="M1085.55 80.1798L1099.01 60.2213L1112.48 58.6456C1115.37 58.3083 1118.76 57.9109 1120.56 57.8997C1119.81 56.9509 1117.84 54.1903 1116.7 52.3298L1107.54 37.8094L1078.68 80.9838L1054.11 83.858L1095.3 21.9742C1098.4 17.3056 1102.61 12.9842 1109.09 12.2264C1115.57 11.4686 1119.18 14.5951 1121.96 18.8552L1156.53 71.8763L1085.55 80.1798Z" fill="url(#paint1_linear_2001_21)"/>
<path d="M1184.37 53.2671L1183.54 68.6766L1162.89 71.0933L1164.48 37.4099L1218.43 31.0979C1223.45 30.5111 1225.28 26.6682 1224.89 23.3641C1224.59 20.8073 1222.62 18.764 1219.03 19.1844L1165.19 25.4826L1179.89 5.10085L1217.06 0.752707C1234.2 -1.25271 1244.37 6.17157 1245.8 18.3653C1247.69 34.3352 1235.92 47.2764 1214.59 49.7716L1184.45 53.2972L1184.37 53.2671Z" fill="url(#paint2_linear_2001_21)"/>
<path d="M0.609253 208.419L2.60641 168.055L23.4854 165.606L22.3933 187.383L42.5592 185.019C53.3751 183.751 60.8428 178.265 59.4885 166.757C58.6414 159.56 52.1259 156.756 43.806 157.731L2.88002 162.53L16.9851 142.114L44.7974 138.853C64.2501 136.572 78.3011 146.069 80.1814 162.045C82.5829 182.451 65.0291 200.866 41.6541 203.607L0.609253 208.419Z" fill="white"/>
<path d="M82.6991 198.794L85.9612 134.026L157.077 125.688L142.615 146.146L105.809 150.461L105.641 155.853L152.272 150.386L139.868 167.515L104.845 171.622L104.558 177.709L155.071 171.786L140.736 191.949L82.7737 198.745L82.6991 198.794Z" fill="white"/>
<path d="M158.688 189.884L161.91 125.121L182.71 122.682L180.392 168.857L226.192 163.487L211.777 183.659L158.688 189.884Z" fill="white"/>
<path d="M229.961 181.527L233.104 116.773L253.904 114.334L250.761 179.088L229.961 181.527Z" fill="white"/>
<path d="M316.832 164.406C313.8 169.011 309.571 173.355 303.193 174.103C296.814 174.851 292.953 171.736 290.209 167.527L255.608 114.135L281.162 111.138L304.705 148.388L333.657 104.983L358.22 102.103L316.832 164.406Z" fill="white"/>
<path d="M356.345 166.709L359.607 101.941L430.722 93.6025L416.261 114.061L379.455 118.376L379.286 123.768L425.917 118.3L413.514 135.43L378.491 139.537L378.203 145.624L428.717 139.701L414.381 159.864L356.419 166.66L356.345 166.709Z" fill="white"/>
<path d="M495.089 150.44L484.521 135.723L457.342 138.91L456.501 154.965L435.701 157.404L437.298 123.54L491.853 117.143C497.519 116.479 500.299 113.828 499.741 109.082C499.35 105.761 496.845 104.611 492.447 105.127L437.972 111.514L452.552 91.0423L490.705 86.5687C503.224 85.1007 519.519 87.0388 521.371 102.778C522.679 113.89 516.746 124.568 505.82 128.655C507.302 129.644 511.156 133.041 518.915 142.314L522.936 147.135L495.124 150.396L495.089 150.44Z" fill="white"/>
<path d="M546.757 144.382L547.674 123.507L513.456 83.9409L540.198 80.8053L552.938 96.9112C555.198 99.7332 558.104 103.602 559.166 105.803C560.59 103.23 563.716 98.7344 566.131 95.3643L579.936 76.1459L606.123 73.0752L568.606 121.173L567.601 141.978L546.722 144.426L546.757 144.382Z" fill="white"/>
<path d="M711.649 125.047L706.718 100.208C706.287 98.2539 706.04 96.158 705.826 94.339C705.57 92.164 705.426 90.2565 705.466 88.8888C703.505 93.0476 701.417 97.1412 696.16 106.738L688.341 120.844C684.369 128.045 681.437 129.752 676.682 130.31C671.175 130.955 667.966 130.65 664.491 123.641L657.117 109.111C652.942 100.941 651.608 98.1305 650.48 95.3762C649.927 98.528 649.027 102.482 647.873 106.667L640.539 133.425L620.096 135.822L637.421 78.2654C639.531 71.2827 644.26 67.4408 649.569 66.8183C654.878 66.1958 658.194 68.7737 660.516 73.1519L669.586 89.8084C674.697 99.1115 676.37 102.403 677.609 105.425C679.223 102.069 681.249 98.4636 687.31 87.8506L698.04 68.7922C700.777 64.0613 704.366 60.4332 709.834 59.7921C714.786 59.2114 719.565 61.9384 721.06 68.4984C724.83 86.5381 728.53 104.666 732.379 122.697L711.58 125.135L711.649 125.047Z" fill="white"/>
<path d="M766.125 118.66L779.629 98.595L793.139 97.0109C796.031 96.6718 799.438 96.2722 801.244 96.2609C800.489 95.3071 798.516 92.5317 797.412 90.6566L788.223 76.0586L759.311 119.459L734.628 122.353L775.947 60.1389C779.049 55.4453 783.277 51.1008 789.775 50.339C796.272 49.5771 799.896 52.7203 802.689 57.0032L837.359 110.308L766.125 118.66Z" fill="white"/>
<path d="M862.483 71.9212L860.848 107.513L841.95 109.729L844.476 57.4752C844.904 47.8032 850.47 43.2217 856.571 42.5063C858.988 42.223 861.509 42.4886 864.655 45.327L897.223 74.6231L898.755 38.843L917.654 36.6271L915.207 88.8713C914.7 98.5526 909.134 103.134 903.112 103.84C900.497 104.147 898.08 103.749 895.018 100.94L862.488 71.9607L862.483 71.9212Z" fill="white"/>
<defs>
<linearGradient id="paint0_linear_2001_21" x1="1156.99" y1="57.088" x2="1081.86" y2="402.018" gradientUnits="userSpaceOnUse">
<stop stop-color="#BF25C2"/>
<stop offset="1" stop-color="#5C37ED"/>
</linearGradient>
<linearGradient id="paint1_linear_2001_21" x1="1156.99" y1="57.088" x2="1081.86" y2="402.018" gradientUnits="userSpaceOnUse">
<stop stop-color="#BF25C2"/>
<stop offset="1" stop-color="#5C37ED"/>
</linearGradient>
<linearGradient id="paint2_linear_2001_21" x1="1156.99" y1="57.088" x2="1081.86" y2="402.018" gradientUnits="userSpaceOnUse">
<stop stop-color="#BF25C2"/>
<stop offset="1" stop-color="#5C37ED"/>
</linearGradient>
</defs>
</svg>
