<?xml version="1.0" encoding="UTF-8"?><svg id="b" xmlns="http://www.w3.org/2000/svg" viewBox="0 0 633.549 97.24"><g id="c"><path d="m0,.89h26.339c6.815,0,11.928,1.889,15.336,5.667,3.407,3.779,5.148,9.374,5.224,16.781l.222,44.675c.073,9.41-1.556,16.486-4.89,21.227-3.334,4.742-8.854,7.112-16.559,7.112H0V.89Zm22.561,78.57c3.481,0,5.223-1.704,5.223-5.112V25.116c0-2.148-.167-3.76-.5-4.834-.333-1.073-.944-1.796-1.834-2.168-.889-.369-2.261-.556-4.111-.556h-2.111v61.901h3.334Z"/><path d="m53.899,96.352V.89h18.448v95.462h-18.448Z"/><path d="m84.293,89.962c-3.372-4.852-5.057-12.206-5.057-22.061V26.783c0-8.816,1.962-15.484,5.89-20.004,3.926-4.519,9.779-6.779,17.559-6.779,6.297,0,11.187,1.261,14.67,3.778,3.481,2.52,5.89,6.188,7.224,11.002,1.333,4.817,2,11.003,2,18.56h-18.67v-8.558c0-2.295-.316-4.073-.944-5.334-.631-1.259-1.761-1.89-3.39-1.89-3.631,0-5.445,2.372-5.445,7.113v46.23c0,2.89.369,5.075,1.111,6.557.739,1.483,2.036,2.223,3.89,2.223s3.147-.739,3.89-2.223c.739-1.481,1.111-3.667,1.111-6.557v-13.669h-5.112v-16.448h23.338v55.566h-7.669l-3.223-8.002c-3.408,5.929-8.668,8.891-15.78,8.891-6.891,0-12.021-2.426-15.392-7.278Z"/><path d="m133.022,96.352V.89h18.448v95.462h-18.448Z"/><path d="m167.36,96.352V19.226h-11.335V.89h41.785v18.336h-11.335v77.126h-19.115Z"/><path d="m200.589,96.352L209.812.89h32.34l9.112,95.462h-18.114l-1.333-15.447h-11.559l-1.111,15.447h-18.559Zm21.115-30.673h8.668l-4.223-48.564h-.89l-3.556,48.564Z"/><path d="m257.042,96.352V.89h19.115v79.236h19.67v16.226h-38.785Z"/><path d="m324.608,96.352L333.832.89h32.34l9.112,95.462h-18.114l-1.333-15.447h-11.559l-1.111,15.447h-18.559Zm21.115-30.673h8.668l-4.223-48.564h-.89l-3.556,48.564Z"/><path d="m385.341,89.962c-3.372-4.852-5.057-12.206-5.057-22.061V26.783c0-8.816,1.962-15.484,5.89-20.004,3.926-4.519,9.779-6.779,17.559-6.779,6.297,0,11.187,1.261,14.67,3.778,3.481,2.52,5.89,6.188,7.224,11.002,1.333,4.817,2,11.003,2,18.56h-18.67v-8.558c0-2.295-.316-4.073-.944-5.334-.631-1.259-1.761-1.89-3.39-1.89-3.631,0-5.445,2.372-5.445,7.113v46.23c0,2.89.369,5.075,1.111,6.557.739,1.483,2.036,2.223,3.89,2.223s3.147-.739,3.89-2.223c.739-1.481,1.111-3.667,1.111-6.557v-13.669h-5.112v-16.448h23.338v55.566h-7.669l-3.223-8.002c-3.408,5.929-8.668,8.891-15.78,8.891-6.891,0-12.021-2.426-15.392-7.278Z"/><path d="m434.959,96.352V.89h38.229v18.447h-18.781v18.56h18.004v18.003h-18.004v21.894h20.004v18.559h-39.452Z"/><path d="m480.744,96.352V.89h19.671l8.779,45.675V.89h18.448v95.462h-18.671l-9.557-47.787v47.787h-18.671Z"/><path d="m541.587,90.684c-4.187-4.37-6.278-10.371-6.278-18.003V28.672c0-9.482,1.889-16.631,5.668-21.448,3.778-4.815,9.704-7.224,17.78-7.224,7.038,0,12.706,1.928,17.004,5.779,4.296,3.853,6.445,9.409,6.445,16.67v16.447h-19.004v-14.114c0-2.739-.333-4.629-1-5.667-.667-1.037-1.816-1.557-3.445-1.557-1.705,0-2.872.595-3.5,1.778-.631,1.187-.945,2.928-.945,5.224v47.897c0,2.52.37,4.354,1.111,5.501.74,1.149,1.852,1.723,3.334,1.723,2.963,0,4.445-2.406,4.445-7.224v-17.226h19.227v18.004c0,16.003-8.04,24.004-24.116,24.004-6.965,0-12.54-2.184-16.726-6.557Z"/><path d="m600.32,96.352v-31.45L585.096.89h18.893l5.334,32.339,5.335-32.339h18.892l-15.225,64.012v31.45h-18.004Z"/></g></svg>