<svg width="76" height="76" viewBox="0 0 76 76" fill="none" xmlns="http://www.w3.org/2000/svg">
<rect x="2.23999" y="2" width="71.52" height="71.52" rx="35.76" fill="#0C408C"/>
<rect x="2.23999" y="2" width="71.52" height="71.52" rx="35.76" stroke="url(#paint0_linear_15017_1509)" stroke-width="4"/>
<path d="M48.9229 49.0071H38.002C35.9921 49.0071 34.016 48.4684 32.2892 47.4465L31.926 47.2311L37.9928 41.1643L42.0281 45.0703H47.9071C48.1441 45.0703 48.2365 44.8887 48.2611 44.8333C48.2826 44.7779 48.3473 44.5839 48.178 44.4177L45.534 41.7737L41.3909 37.7692L51.1206 28.0395L51.3484 27.8056C52.992 26.1619 53.9431 24.0073 54.0478 21.705H51.0406C50.1048 21.705 49.2461 22.2621 48.849 23.1239C48.6736 23.5025 48.4489 23.8503 48.178 24.1643L48.1872 24.1735L47.5316 24.8322L47.3069 24.6722C44.5767 22.7299 41.3602 21.705 38.002 21.705C35.5181 21.705 33.0556 22.2836 30.8487 23.3825L31.809 24.3428L34.5269 27.0607C35.6473 26.6944 36.817 26.5098 38.0051 26.5098C40.0151 26.5098 41.9911 27.0484 43.7179 28.0703L44.0811 28.2858L38.0051 34.3618L27.8168 24.1766L27.8261 24.1674C27.5552 23.8534 27.3305 23.5087 27.1581 23.1332C26.758 22.2652 25.8931 21.705 24.9573 21.705H21.9563C22.0609 24.0073 23.012 26.1619 24.6526 27.8025L24.8835 28.0334H24.8804L25.0743 28.2304L24.9142 28.4551C22.972 31.1853 21.947 34.4018 21.947 37.76C21.947 40.2439 22.5257 42.7064 23.6245 44.9164L25.8746 42.6663C26.6903 41.8507 27.0719 40.6718 26.8903 39.5144C26.798 38.9388 26.7549 38.3479 26.7549 37.76C26.7549 35.75 27.2936 33.7739 28.3155 32.0471L28.5309 31.6839L34.607 37.7569L24.8835 47.4804L24.6588 47.7112C23.012 49.358 22.0609 51.5126 21.9563 53.815H25.0127C25.9454 53.815 26.7641 53.2486 27.152 52.4021C27.3243 52.0266 27.549 51.6757 27.823 51.3556L27.8137 51.3464L28.4724 50.6846L28.6971 50.8447C31.4243 52.7869 34.6408 53.8119 37.9989 53.8119H54.0447C53.8754 51.134 51.6439 49.0071 48.9229 49.0071Z" fill="#E7F1FE"/>
<path d="M52.4657 39.4437C53.3553 38.4556 53.7893 37.1351 53.6538 35.8177C53.4753 34.0848 53.0259 32.5612 52.318 31.2838L49.757 33.8447C49.3292 34.2726 49.1507 34.882 49.2799 35.4761C49.4492 36.2425 49.5354 37.0336 49.5354 37.8277C49.5354 38.9112 49.3754 39.9823 49.0614 41.0104C50.3573 40.9796 51.5946 40.4132 52.4657 39.4467V39.4437Z" fill="#E7F1FE"/>
<defs>
<linearGradient id="paint0_linear_15017_1509" x1="0.23999" y1="37.76" x2="75.76" y2="37.76" gradientUnits="userSpaceOnUse">
<stop stop-color="#00F4AE"/>
<stop offset="1" stop-color="#0C408C"/>
</linearGradient>
</defs>
</svg>
