<svg width="76" height="77" viewBox="0 0 76 77" fill="none" xmlns="http://www.w3.org/2000/svg">
<rect x="2.23999" y="2.52002" width="71.52" height="71.52" rx="35.76" fill="#0C408C"/>
<rect x="2.23999" y="2.52002" width="71.52" height="71.52" rx="35.76" stroke="url(#paint0_linear_15017_1520)" stroke-width="4"/>
<path fill-rule="evenodd" clip-rule="evenodd" d="M36.5535 24.2739C36.9993 25.0665 36.7182 26.0705 35.9255 26.5164L26.4733 31.8331V42.6173C26.4754 42.6161 26.4775 42.6149 26.4796 42.6136L31.4133 39.7944V35.3984C31.4133 34.8127 31.7243 34.2711 32.2302 33.976L36.3533 31.5709V26.7534C36.3533 25.8439 37.0905 25.1067 37.9999 25.1067C38.9094 25.1067 39.6466 25.8439 39.6466 26.7534V31.5709L43.7696 33.976C44.2755 34.2711 44.5866 34.8127 44.5866 35.3984V39.7944L49.5202 42.6136C49.5224 42.6149 49.5245 42.6161 49.5266 42.6173V31.8331L40.0743 26.5164C39.2817 26.0705 39.0005 25.0665 39.4464 24.2739C39.8922 23.4812 40.8962 23.2001 41.6889 23.646L51.9805 29.4348C52.4991 29.7265 52.8199 30.2751 52.8199 30.87V43.22C52.8199 44.1294 52.0827 44.8667 51.1733 44.8667C50.8343 44.8667 50.5192 44.7642 50.2573 44.5886C50.2247 44.6812 50.1834 44.7721 50.133 44.8603C49.946 45.1876 49.6637 45.4263 49.341 45.5616C49.6671 45.6983 49.9518 45.9406 50.1385 46.2726C50.5843 47.0653 50.3031 48.0693 49.5105 48.5151L45.3939 50.8302L38.8072 54.5352C38.306 54.8172 37.6939 54.8172 37.1927 54.5352L26.4893 48.515C25.6967 48.0692 25.4155 47.0652 25.8614 46.2726C26.0481 45.9405 26.3328 45.6983 26.6588 45.5616C26.3362 45.4263 26.0539 45.1876 25.8669 44.8603C25.8165 44.7721 25.7751 44.6812 25.7425 44.5886C25.4807 44.7643 25.1656 44.8667 24.8266 44.8667C23.9172 44.8667 23.1799 44.1294 23.1799 43.22V30.87C23.1799 30.2751 23.5008 29.7265 24.0193 29.4348L34.311 23.646C35.1036 23.2001 36.1076 23.4812 36.5535 24.2739ZM27.9346 45.5616C27.9919 45.5857 28.0484 45.6134 28.1039 45.6446L37.9999 51.2107L43.7793 47.9598L47.8961 45.6446C47.9515 45.6134 48.008 45.5857 48.0653 45.5616C48.0046 45.536 47.9449 45.5065 47.8863 45.4731L43.3049 42.8551L38.8296 45.4657C38.3169 45.7648 37.6829 45.7648 37.1702 45.4657L32.6949 42.8551L28.1136 45.4731C28.055 45.5065 27.9952 45.536 27.9346 45.5616ZM34.7066 40.2159L37.9999 42.137L41.2933 40.2159V36.3441L37.9999 34.423L34.7066 36.3441V40.2159Z" fill="white"/>
<path fill-rule="evenodd" clip-rule="evenodd" d="M38 23.46C37.5453 23.46 37.1766 23.8286 37.1766 24.2833C37.1766 24.738 37.5453 25.1066 38 25.1066C38.4547 25.1066 38.8233 24.738 38.8233 24.2833C38.8233 23.8286 38.4547 23.46 38 23.46ZM33.8833 24.2833C33.8833 22.0097 35.7264 20.1666 38 20.1666C40.2735 20.1666 42.1166 22.0097 42.1166 24.2833C42.1166 26.5569 40.2735 28.4 38 28.4C35.7264 28.4 33.8833 26.5569 33.8833 24.2833Z" fill="white"/>
<path fill-rule="evenodd" clip-rule="evenodd" d="M24.8266 44.8666C24.3719 44.8666 24.0033 45.2352 24.0033 45.6899C24.0033 46.1446 24.3719 46.5132 24.8266 46.5132C25.2813 46.5132 25.65 46.1446 25.65 45.6899C25.65 45.2352 25.2813 44.8666 24.8266 44.8666ZM20.71 45.6899C20.71 43.4163 22.5531 41.5732 24.8266 41.5732C27.1002 41.5732 28.9433 43.4163 28.9433 45.6899C28.9433 47.9635 27.1002 49.8066 24.8266 49.8066C22.5531 49.8066 20.71 47.9635 20.71 45.6899Z" fill="white"/>
<path fill-rule="evenodd" clip-rule="evenodd" d="M51.1733 44.8666C50.7186 44.8666 50.35 45.2352 50.35 45.6899C50.35 46.1446 50.7186 46.5132 51.1733 46.5132C51.628 46.5132 51.9966 46.1446 51.9966 45.6899C51.9966 45.2352 51.628 44.8666 51.1733 44.8666ZM47.0566 45.6899C47.0566 43.4163 48.8997 41.5732 51.1733 41.5732C53.4469 41.5732 55.29 43.4163 55.29 45.6899C55.29 47.9635 53.4469 49.8066 51.1733 49.8066C48.8997 49.8066 47.0566 47.9635 47.0566 45.6899Z" fill="white"/>
<defs>
<linearGradient id="paint0_linear_15017_1520" x1="0.23999" y1="38.28" x2="75.76" y2="38.28" gradientUnits="userSpaceOnUse">
<stop stop-color="#00F4AE"/>
<stop offset="1" stop-color="#0C408C"/>
</linearGradient>
</defs>
</svg>
