<svg width="76" height="77" viewBox="0 0 76 77" fill="none" xmlns="http://www.w3.org/2000/svg">
<rect x="2.23999" y="2.52002" width="71.52" height="71.52" rx="35.76" fill="#0C408C"/>
<rect x="2.23999" y="2.52002" width="71.52" height="71.52" rx="35.76" stroke="url(#paint0_linear_15017_1531)" stroke-width="4"/>
<path fill-rule="evenodd" clip-rule="evenodd" d="M23.5472 34.9866H26.4733C27.7834 34.9866 29.0399 35.5071 29.9664 36.4335C30.8928 37.3599 31.4133 38.6165 31.4133 39.9266V41.5733C31.4133 42.01 31.5868 42.4289 31.8956 42.7377C32.2044 43.0465 32.6232 43.22 33.0599 43.22C34.3701 43.22 35.6266 43.7404 36.553 44.6669C37.4795 45.5933 37.9999 46.8498 37.9999 48.16V53.1C39.1318 53.1 40.2341 52.9731 41.2933 52.7327V46.5133C41.2933 45.2031 41.8137 43.9466 42.7402 43.0202C43.6666 42.0938 44.9231 41.5733 46.2333 41.5733H52.4527C52.693 40.5141 52.8199 39.4119 52.8199 38.28C52.8199 36.5478 52.5228 34.8851 51.9766 33.34H47.8799C46.978 33.34 46.2333 34.0847 46.2333 34.9866C46.2333 36.2968 45.7128 37.5533 44.7864 38.4797C43.8599 39.4062 42.6034 39.9266 41.2933 39.9266C38.5725 39.9266 36.3533 37.7074 36.3533 34.9866C36.3533 34.5499 36.1798 34.1311 35.871 33.8223C35.5622 33.5134 35.1433 33.34 34.7066 33.34C32.9597 33.34 31.2844 32.646 30.0491 31.4108C28.9241 30.2857 28.2481 28.7956 28.1364 27.2189C25.8778 29.2343 24.2405 31.9312 23.5472 34.9866ZM31.4133 25.0004V26.7533C31.4133 27.6267 31.7602 28.4644 32.3779 29.082C32.9955 29.6997 33.8332 30.0466 34.7066 30.0466C36.0168 30.0466 37.2733 30.5671 38.1997 31.4935C39.1261 32.4199 39.6466 33.6765 39.6466 34.9866C39.6466 35.8885 40.3914 36.6333 41.2933 36.6333C41.73 36.6333 42.1488 36.4598 42.4576 36.151C42.7664 35.8422 42.9399 35.4233 42.9399 34.9866C42.9399 32.2659 45.1592 30.0466 47.8799 30.0466H50.3243C47.6657 26.0749 43.1382 23.46 37.9999 23.46C35.6339 23.46 33.3974 24.0144 31.4133 25.0004ZM54.5638 30.9385C51.7469 24.5926 45.3903 20.1666 37.9999 20.1666C27.9962 20.1666 19.8866 28.2762 19.8866 38.28C19.8866 48.2837 27.9962 56.3933 37.9999 56.3933C48.0036 56.3933 56.1133 48.2837 56.1133 38.28C56.1133 35.7421 55.5913 33.3262 54.649 31.1336C54.6247 31.0665 54.5962 31.0013 54.5638 30.9385ZM51.2794 44.8666H46.2333C45.7965 44.8666 45.3777 45.0401 45.0689 45.3489C44.7601 45.6577 44.5866 46.0766 44.5866 46.5133V51.5595C47.4822 50.1205 49.8404 47.7623 51.2794 44.8666ZM34.7066 52.7327C28.1068 51.2351 23.1799 45.3329 23.1799 38.28H26.4733C26.91 38.28 27.3288 38.4534 27.6376 38.7623C27.9464 39.0711 28.1199 39.4899 28.1199 39.9266V41.5733C28.1199 42.8835 28.6404 44.14 29.5668 45.0664C30.4933 45.9928 31.7498 46.5133 33.0599 46.5133C33.4967 46.5133 33.9155 46.6868 34.2243 46.9956C34.5331 47.3044 34.7066 47.7232 34.7066 48.16V52.7327Z" fill="white"/>
<defs>
<linearGradient id="paint0_linear_15017_1531" x1="0.23999" y1="38.28" x2="75.76" y2="38.28" gradientUnits="userSpaceOnUse">
<stop stop-color="#00F4AE"/>
<stop offset="1" stop-color="#0C408C"/>
</linearGradient>
</defs>
</svg>
