<svg width="467" height="125" viewBox="0 0 467 125" fill="none" xmlns="http://www.w3.org/2000/svg">
<path d="M44.34 125H0.240001V0.79999H44.34C72.42 0.79999 92.04 15.2 92.04 54.8V71C92.04 110.42 72.42 125 44.34 125ZM44.34 103.76C61.08 103.76 66.84 92.42 66.84 71V54.8C66.84 33.38 61.08 22.22 44.34 22.22H25.44V103.76H44.34ZM139.74 0.79999V125H114.54V0.79999H139.74ZM154.302 0.79999H181.842L209.022 84.32L236.202 0.79999H263.742L220.542 125H197.682L154.302 0.79999ZM276.568 0.79999H353.968V22.22H301.768V50.12H348.568V71.36H301.768V103.76H353.968V125H276.568V0.79999ZM466.89 125H439.17L416.85 76.22H396.69V125H371.49V0.79999H415.95C444.57 0.79999 462.39 13.58 462.39 38.78C462.39 55.52 454.65 66.5 441.15 72.08L466.89 125ZM396.69 54.98H413.61C428.55 54.98 437.19 51.74 437.19 38.78C437.19 25.82 428.55 22.22 413.61 22.22H396.69V54.98Z" fill="white"/>
</svg>
