<svg width="2291" height="128" viewBox="0 0 2291 128" fill="none" xmlns="http://www.w3.org/2000/svg">
<path d="M2231.5 117.64V50.2796H2247.18V56.5196C2253.9 48.9996 2261.58 48.5196 2265.42 48.5196C2277.9 48.5196 2283.18 54.7596 2285.26 57.6396C2287.82 61.3196 2289.42 65.9596 2289.42 76.3596V117.64H2273.74V80.1996C2273.74 63.0796 2267.34 62.5996 2261.42 62.5996C2254.38 62.5996 2247.18 63.5596 2247.18 85.3196V117.64H2231.5Z" fill="url(#paint0_linear_0_1998)" fill-opacity="0.1"/>
<path d="M2182.5 48.5196C2202.82 48.5196 2218.5 63.2397 2218.5 84.0396C2218.5 104.68 2202.82 119.72 2182.5 119.72C2162.18 119.72 2146.5 104.68 2146.5 84.0396C2146.5 63.2397 2162.18 48.5196 2182.5 48.5196ZM2182.5 105.64C2194.82 105.64 2202.5 97.1596 2202.5 84.1996C2202.5 68.8396 2192.42 62.5996 2182.5 62.5996C2172.58 62.5996 2162.5 68.8396 2162.5 84.1996C2162.5 97.1596 2170.18 105.64 2182.5 105.64Z" fill="url(#paint1_linear_0_1998)" fill-opacity="0.1"/>
<path d="M2117.75 50.2796H2133.43V117.64H2117.75V50.2796ZM2115.51 22.4396C2115.51 16.6796 2119.83 12.3596 2125.59 12.3596C2131.35 12.3596 2135.67 16.6796 2135.67 22.4396C2135.67 28.1996 2131.35 32.5196 2125.59 32.5196C2119.83 32.5196 2115.51 28.1996 2115.51 22.4396Z" fill="url(#paint2_linear_0_1998)" fill-opacity="0.1"/>
<path d="M2110.36 64.6796H2098.36V117.64H2082.68V64.6796H2076.12V50.2796H2082.68V25.6396H2098.36V50.2796H2110.36V64.6796Z" fill="url(#paint3_linear_0_1998)" fill-opacity="0.1"/>
<path d="M2070.37 53.3196V70.9196C2063.17 63.8796 2056.13 62.5996 2051.33 62.5996C2043.97 62.5996 2039.33 65.6396 2036.45 68.5196C2033.57 71.3996 2030.69 76.5197 2030.69 84.0396C2030.69 91.8796 2033.73 97.1596 2036.77 100.2C2040.29 103.56 2045.25 105.64 2051.01 105.64C2057.41 105.64 2064.93 103.08 2070.37 96.9996V114.44C2066.53 116.84 2060.29 119.72 2049.89 119.72C2038.69 119.72 2030.69 116.52 2024.29 109.8C2019.49 104.84 2014.69 96.8396 2014.69 84.5196C2014.69 71.8796 2019.97 63.3997 2024.93 58.4397C2030.21 53.1596 2038.69 48.5196 2051.97 48.5196C2057.09 48.5196 2063.17 49.3196 2070.37 53.3196Z" fill="url(#paint4_linear_0_1998)" fill-opacity="0.1"/>
<path d="M1993.21 117.64L1982.01 91.8796H1936.41L1924.73 117.64H1907.13L1960.25 4.67964L2010.81 117.64H1993.21ZM1943.13 76.5196H1975.45L1959.61 40.3596L1943.13 76.5196Z" fill="url(#paint5_linear_0_1998)" fill-opacity="0.1"/>
<path d="M1807.97 50.2796H1823.65V88.8396C1823.65 92.8396 1823.81 97.4797 1826.53 101C1828.61 103.72 1832.29 105.64 1836.77 105.64C1841.25 105.64 1844.93 103.72 1847.01 101C1849.73 97.4797 1849.89 92.8396 1849.89 88.8396V50.2796H1865.57V89.3196C1865.57 97.9596 1864.61 105.16 1858.37 111.4C1852.29 117.48 1843.97 119.72 1836.45 119.72C1829.57 119.72 1821.25 117.64 1815.17 111.4C1808.93 105.16 1807.97 97.9596 1807.97 89.3196V50.2796Z" fill="url(#paint6_linear_0_1998)" fill-opacity="0.1"/>
<path d="M1758.81 48.5196C1779.13 48.5196 1794.81 63.2397 1794.81 84.0396C1794.81 104.68 1779.13 119.72 1758.81 119.72C1738.49 119.72 1722.81 104.68 1722.81 84.0396C1722.81 63.2397 1738.49 48.5196 1758.81 48.5196ZM1758.81 105.64C1771.13 105.64 1778.81 97.1596 1778.81 84.1996C1778.81 68.8396 1768.73 62.5996 1758.81 62.5996C1748.89 62.5996 1738.81 68.8396 1738.81 84.1996C1738.81 97.1596 1746.49 105.64 1758.81 105.64Z" fill="url(#paint7_linear_0_1998)" fill-opacity="0.1"/>
<path d="M1676.21 117.64V71.5596L1641.17 10.9196H1659.73L1684.37 53.6396L1709.01 10.9196H1727.57L1692.53 71.5596V117.64H1676.21Z" fill="url(#paint8_linear_0_1998)" fill-opacity="0.1"/>
<path d="M1542.33 117.64V0.999643H1558.01V56.0396C1564.73 49.1596 1572.09 48.5196 1576.09 48.5196C1588.41 48.5196 1594.01 54.9196 1595.93 57.6396C1600.09 63.7196 1600.25 71.5596 1600.25 76.3596V117.64H1584.57V77.7996C1584.57 73.7996 1584.57 69.4796 1581.53 66.1196C1579.77 64.1996 1576.73 62.5996 1572.73 62.5996C1567.45 62.5996 1563.29 65.1596 1561.21 68.1996C1558.97 71.3997 1558.01 76.5196 1558.01 85.1596V117.64H1542.33Z" fill="url(#paint9_linear_0_1998)" fill-opacity="0.1"/>
<path d="M1534.94 64.6796H1522.94V117.64H1507.26V64.6796H1500.7V50.2796H1507.26V25.6396H1522.94V50.2796H1534.94V64.6796Z" fill="url(#paint10_linear_0_1998)" fill-opacity="0.1"/>
<path d="M1474.51 50.2796H1490.19V117.64H1474.51V50.2796ZM1472.27 22.4396C1472.27 16.6796 1476.59 12.3596 1482.35 12.3596C1488.11 12.3596 1492.43 16.6796 1492.43 22.4396C1492.43 28.1996 1488.11 32.5196 1482.35 32.5196C1476.59 32.5196 1472.27 28.1996 1472.27 22.4396Z" fill="url(#paint11_linear_0_1998)" fill-opacity="0.1"/>
<path d="M1317.96 10.9196H1335.56L1363.72 82.2796L1392.52 5.79964L1420.36 82.2796L1449.48 10.9196H1467.08L1419.4 124.52L1391.56 48.8396L1363.4 124.52L1317.96 10.9196Z" fill="url(#paint12_linear_0_1998)" fill-opacity="0.1"/>
<path d="M1243.18 117.64V50.2796H1258.86V56.3596C1260.62 54.2796 1263.18 52.0396 1265.42 50.7596C1268.46 48.9996 1271.5 48.5196 1275.02 48.5196C1278.86 48.5196 1283.02 49.1596 1287.34 51.7196L1280.94 65.9596C1277.42 63.7197 1274.54 63.5596 1272.94 63.5596C1269.58 63.5596 1266.22 64.0396 1263.18 67.2396C1258.86 71.8796 1258.86 78.2796 1258.86 82.7596V117.64H1243.18Z" fill="url(#paint13_linear_0_1998)" fill-opacity="0.1"/>
<path d="M1210.81 58.1196V50.2796H1226.49V117.64H1210.81V110.6C1203.93 118.6 1195.45 119.72 1190.65 119.72C1169.85 119.72 1158.01 102.44 1158.01 83.8796C1158.01 61.9596 1173.05 48.5196 1190.81 48.5196C1195.77 48.5196 1204.41 49.7996 1210.81 58.1196ZM1192.73 62.5996C1181.37 62.5996 1174.01 72.1996 1174.01 84.1996C1174.01 95.8796 1181.37 105.64 1192.73 105.64C1202.65 105.64 1211.77 98.4397 1211.77 84.3596C1211.77 69.6396 1202.65 62.5996 1192.73 62.5996Z" fill="url(#paint14_linear_0_1998)" fill-opacity="0.1"/>
<path d="M1129.26 0.999643H1144.94V117.64H1129.26V0.999643Z" fill="url(#paint15_linear_0_1998)" fill-opacity="0.1"/>
<path d="M1096.99 0.999643H1112.67V117.64H1096.99V0.999643Z" fill="url(#paint16_linear_0_1998)" fill-opacity="0.1"/>
<path d="M1047.83 48.5196C1068.15 48.5196 1083.83 63.2397 1083.83 84.0396C1083.83 104.68 1068.15 119.72 1047.83 119.72C1027.51 119.72 1011.83 104.68 1011.83 84.0396C1011.83 63.2397 1027.51 48.5196 1047.83 48.5196ZM1047.83 105.64C1060.15 105.64 1067.83 97.1596 1067.83 84.1996C1067.83 68.8396 1057.75 62.5996 1047.83 62.5996C1037.91 62.5996 1027.83 68.8396 1027.83 84.1996C1027.83 97.1596 1035.51 105.64 1047.83 105.64Z" fill="url(#paint17_linear_0_1998)" fill-opacity="0.1"/>
<path d="M918.462 10.9196H940.862C955.742 10.9196 968.702 12.5196 980.542 21.3196C993.502 31.0796 1001.02 46.5996 1001.02 64.3596C1001.02 82.1196 993.662 97.4797 979.582 107.4C967.102 116.2 955.422 117.64 940.542 117.64H918.462V10.9196ZM934.782 26.2796V102.28H941.822C949.822 102.28 960.862 101.64 970.142 94.7596C977.502 89.1596 984.702 78.9196 984.702 64.3596C984.702 50.2796 977.982 39.2396 970.302 33.6396C961.022 26.9196 949.662 26.2796 941.822 26.2796H934.782Z" fill="url(#paint18_linear_0_1998)" fill-opacity="0.1"/>
<path d="M799.999 56.8396V43.3996H869.439V56.8396H799.999ZM799.999 82.7596V69.3196H869.439V82.7596H799.999Z" fill="url(#paint19_linear_0_1998)" fill-opacity="0.1"/>
<path d="M695.879 117.64V50.2796H711.559V56.5196C718.279 48.9996 725.959 48.5196 729.799 48.5196C742.279 48.5196 747.559 54.7596 749.639 57.6396C752.199 61.3196 753.799 65.9596 753.799 76.3596V117.64H738.119V80.1996C738.119 63.0796 731.719 62.5996 725.799 62.5996C718.759 62.5996 711.559 63.5596 711.559 85.3196V117.64H695.879Z" fill="url(#paint20_linear_0_1998)" fill-opacity="0.1"/>
<path d="M646.875 48.5196C667.195 48.5196 682.875 63.2397 682.875 84.0396C682.875 104.68 667.195 119.72 646.875 119.72C626.555 119.72 610.875 104.68 610.875 84.0396C610.875 63.2397 626.555 48.5196 646.875 48.5196ZM646.875 105.64C659.195 105.64 666.875 97.1596 666.875 84.1996C666.875 68.8396 656.795 62.5996 646.875 62.5996C636.955 62.5996 626.875 68.8396 626.875 84.1996C626.875 97.1596 634.555 105.64 646.875 105.64Z" fill="url(#paint21_linear_0_1998)" fill-opacity="0.1"/>
<path d="M582.126 50.2796H597.806V117.64H582.126V50.2796ZM579.886 22.4396C579.886 16.6796 584.206 12.3596 589.966 12.3596C595.726 12.3596 600.046 16.6796 600.046 22.4396C600.046 28.1996 595.726 32.5196 589.966 32.5196C584.206 32.5196 579.886 28.1996 579.886 22.4396Z" fill="url(#paint22_linear_0_1998)" fill-opacity="0.1"/>
<path d="M574.736 64.6796H562.736V117.64H547.056V64.6796H540.496V50.2796H547.056V25.6396H562.736V50.2796H574.736V64.6796Z" fill="url(#paint23_linear_0_1998)" fill-opacity="0.1"/>
<path d="M534.749 53.3196V70.9196C527.549 63.8796 520.509 62.5996 515.709 62.5996C508.349 62.5996 503.709 65.6396 500.829 68.5196C497.949 71.3996 495.069 76.5197 495.069 84.0396C495.069 91.8796 498.109 97.1596 501.149 100.2C504.669 103.56 509.629 105.64 515.389 105.64C521.789 105.64 529.309 103.08 534.749 96.9996V114.44C530.909 116.84 524.669 119.72 514.269 119.72C503.069 119.72 495.069 116.52 488.669 109.8C483.869 104.84 479.069 96.8396 479.069 84.5196C479.069 71.8796 484.349 63.3997 489.309 58.4397C494.589 53.1596 503.069 48.5196 516.349 48.5196C521.469 48.5196 527.549 49.3196 534.749 53.3196Z" fill="url(#paint24_linear_0_1998)" fill-opacity="0.1"/>
<path d="M457.589 117.64L446.389 91.8796H400.789L389.109 117.64H371.509L424.629 4.67964L475.189 117.64H457.589ZM407.509 76.5196H439.829L423.989 40.3596L407.509 76.5196Z" fill="url(#paint25_linear_0_1998)" fill-opacity="0.1"/>
<path d="M248.037 10.9196H264.357V75.2396C264.357 80.9996 264.517 88.0396 267.717 93.6396C270.917 99.0797 278.117 104.68 287.557 104.68C296.997 104.68 304.197 99.0797 307.397 93.6396C310.597 88.0396 310.757 80.9996 310.757 75.2396V10.9196H327.077V79.5596C327.077 88.0396 325.317 98.2796 317.157 107.24C311.557 113.32 302.117 119.72 287.557 119.72C272.997 119.72 263.557 113.32 257.957 107.24C249.797 98.2796 248.037 88.0396 248.037 79.5596V10.9196Z" fill="url(#paint26_linear_0_1998)" fill-opacity="0.1"/>
<path d="M88.6086 10.9196H106.209L134.369 82.2796L163.169 5.79964L191.009 82.2796L220.129 10.9196H237.729L190.049 124.52L162.209 48.8396L134.049 124.52L88.6086 10.9196Z" fill="url(#paint27_linear_0_1998)" fill-opacity="0.1"/>
<path d="M0.99983 10.9196H23.3998C38.2798 10.9196 51.2398 12.5196 63.0798 21.3196C76.0398 31.0796 83.5598 46.5996 83.5598 64.3596C83.5598 82.1196 76.1998 97.4797 62.1198 107.4C49.6398 116.2 37.9598 117.64 23.0798 117.64H0.99983V10.9196ZM17.3198 26.2796V102.28H24.3598C32.3598 102.28 43.3998 101.64 52.6798 94.7596C60.0398 89.1596 67.2398 78.9196 67.2398 64.3596C67.2398 50.2796 60.5198 39.2396 52.8398 33.6396C43.5598 26.9196 32.1998 26.2796 24.3598 26.2796H17.3198Z" fill="url(#paint28_linear_0_1998)" fill-opacity="0.1"/>
<path d="M2289.42 76.3596C2289.42 66.2847 2287.92 61.615 2285.5 57.9873L2285.26 57.6396C2283.22 54.8046 2278.07 48.7139 2266 48.5244L2265.42 48.5196C2261.58 48.5196 2253.9 48.9996 2247.18 56.5196V50.2796H2231.5V117.64H2247.18V85.3196C2247.18 63.5596 2254.38 62.5996 2261.42 62.5996L2262.54 62.6094C2268.12 62.7249 2273.74 64.1505 2273.74 80.1996V117.64H2289.42V76.3596ZM2248.18 54.0654C2254.73 47.9417 2261.79 47.5195 2265.42 47.5195C2271.84 47.5196 2276.46 49.1268 2279.77 51.1465C2283.06 53.1622 2284.99 55.5575 2286.07 57.0537L2286.08 57.0615L2286.08 57.0684C2288.81 60.9801 2290.42 65.8508 2290.42 76.3594V118.64H2272.74V80.1992C2272.74 71.7018 2271.14 67.6631 2269.11 65.6992C2267.09 63.7523 2264.42 63.5996 2261.42 63.5996C2257.9 63.5996 2254.76 63.8646 2252.41 66.4707C2249.99 69.1371 2248.18 74.483 2248.18 85.3193V118.64H2230.5V49.2793H2248.18V54.0654Z" fill="#6DB8F7"/>
<path d="M2218.5 84.0396C2218.5 63.5645 2203.31 48.9808 2183.45 48.5303L2182.5 48.5196C2162.18 48.5196 2146.5 63.2397 2146.5 84.0396L2146.51 85.0029C2146.98 104.826 2162.01 119.256 2181.55 119.709L2182.5 119.72C2202.5 119.719 2218.01 105.146 2218.49 85.0029L2218.5 84.0396ZM2201.5 84.1992C2201.5 76.7516 2199.06 71.6352 2195.54 68.374C2192 65.0972 2187.26 63.5997 2182.5 63.5996C2177.74 63.5996 2173 65.0971 2169.46 68.374C2165.94 71.6353 2163.5 76.7517 2163.5 84.1992C2163.5 90.4841 2165.36 95.5832 2168.61 99.1006C2171.86 102.609 2176.58 104.64 2182.5 104.64L2182.5 105.64L2181.93 105.634C2170.13 105.378 2162.74 97.2223 2162.5 84.8037L2162.5 84.1996C2162.5 68.8396 2172.58 62.5996 2182.5 62.5996L2182.96 62.6045C2192.73 62.7972 2202.5 69.08 2202.5 84.1996L2202.49 84.8037C2202.26 97.4224 2194.63 105.639 2182.5 105.64L2182.5 104.64C2188.42 104.64 2193.14 102.609 2196.39 99.1006C2199.64 95.5832 2201.5 90.4842 2201.5 84.1992ZM2219.5 84.04C2219.5 105.25 2203.35 120.72 2182.5 120.72C2161.65 120.72 2145.5 105.25 2145.5 84.04C2145.5 62.6613 2161.65 47.5195 2182.5 47.5195C2203.35 47.5197 2219.5 62.6614 2219.5 84.04Z" fill="#6DB8F7"/>
<path d="M2133.43 50.2796H2117.75V117.64H2133.43V50.2796ZM2135.67 22.4396C2135.67 16.6796 2131.35 12.3596 2125.59 12.3596C2119.83 12.3596 2115.51 16.6796 2115.51 22.4396C2115.51 28.1996 2119.83 32.5196 2125.59 32.5196C2131.35 32.5196 2135.67 28.1996 2135.67 22.4396ZM2134.43 118.64H2116.75V49.2793H2134.43V118.64ZM2136.67 22.4395C2136.67 28.7517 2131.9 33.5195 2125.59 33.5195C2119.28 33.5194 2114.51 28.7517 2114.51 22.4395C2114.51 16.1273 2119.28 11.3595 2125.59 11.3594C2131.9 11.3594 2136.67 16.1273 2136.67 22.4395Z" fill="#6DB8F7"/>
<path d="M2110.36 64.6796V50.2796H2098.36V25.6396H2082.68V50.2796H2076.12V64.6796H2082.68V117.64H2098.36V64.6796H2110.36ZM2099.36 49.2793H2111.36V65.6797H2099.36V118.64H2081.68V65.6797H2075.12V49.2793H2081.68V24.6396H2099.36V49.2793Z" fill="#6DB8F7"/>
<path d="M2030.69 84.0396C2030.69 76.5197 2033.57 71.3996 2036.45 68.5196C2039.33 65.6396 2043.97 62.5996 2051.33 62.5996L2051.79 62.6035C2056.57 62.6852 2063.4 64.0996 2070.37 70.9196V53.3196C2063.62 49.5698 2057.86 48.6319 2052.95 48.5293L2051.97 48.5196C2038.69 48.5196 2030.21 53.1596 2024.93 58.4397L2024.47 58.915C2019.65 63.9338 2014.69 72.2747 2014.69 84.5196C2014.69 96.8396 2019.49 104.84 2024.29 109.8C2030.49 116.309 2038.2 119.516 2048.85 119.71L2049.89 119.72C2060.29 119.72 2066.53 116.84 2070.37 114.44V96.9996C2064.93 103.08 2057.41 105.64 2051.01 105.64V104.64C2057.17 104.64 2064.4 102.174 2069.63 96.333L2071.37 94.3818V114.994L2070.9 115.288C2066.93 117.774 2060.5 120.72 2049.89 120.72C2038.47 120.72 2030.19 117.44 2023.57 110.489C2018.62 105.368 2013.69 97.1272 2013.69 84.5195C2013.69 71.5735 2019.11 62.8489 2024.23 57.7324C2029.7 52.2612 2038.43 47.5195 2051.97 47.5195C2057.22 47.5195 2063.48 48.3447 2070.86 52.4453L2071.37 52.7314V73.2959L2069.67 71.6348C2062.7 64.8108 2055.92 63.5997 2051.33 63.5996C2044.29 63.5996 2039.89 66.4941 2037.16 69.2266C2034.46 71.9229 2031.69 76.7906 2031.69 84.04C2031.69 91.5982 2034.62 96.6265 2037.48 99.4893C2040.8 102.657 2045.51 104.64 2051.01 104.64V105.64L2050.48 105.634C2044.94 105.509 2040.18 103.455 2036.77 100.2C2033.83 97.2547 2030.88 92.2074 2030.7 84.7676L2030.69 84.0396Z" fill="#6DB8F7"/>
<path d="M2012.36 118.64H1992.56L1992.3 118.038L1981.36 92.8799H1937.06L1925.38 118.64H1905.56L1960.28 2.28223L2012.36 118.64ZM1907.13 117.64H1924.73L1936.41 91.8796H1982.01L1993.21 117.64H2010.81L1960.25 4.67964L1907.13 117.64ZM1975.45 76.5196H1943.13L1959.61 40.3596L1975.45 76.5196ZM1944.69 75.5195H1973.92L1959.59 42.8105L1944.69 75.5195Z" fill="#6DB8F7"/>
<path d="M1823.65 88.8396V50.2796H1807.97V89.3196C1807.97 97.9596 1808.93 105.16 1815.17 111.4C1821.06 117.445 1829.05 119.586 1835.8 119.714L1836.45 119.72C1843.73 119.72 1851.77 117.617 1857.79 111.958L1858.37 111.4C1864.61 105.16 1865.57 97.9596 1865.57 89.3196V50.2796H1849.89V88.8396L1849.88 90.3662C1849.81 93.9821 1849.39 97.9196 1847.01 101C1844.93 103.72 1841.25 105.64 1836.77 105.64L1836.77 104.64C1840.97 104.64 1844.34 102.844 1846.22 100.393L1846.22 100.389C1848.7 97.1737 1848.89 92.8752 1848.89 88.8398V49.2793H1866.57V89.3193C1866.57 98.0249 1865.61 105.574 1859.08 112.106C1852.76 118.428 1844.15 120.72 1836.45 120.72C1829.4 120.72 1820.78 118.59 1814.45 112.098C1807.93 105.567 1806.97 98.0207 1806.97 89.3193V49.2793H1824.65V88.8398C1824.65 92.7492 1824.83 96.9052 1827.09 100.084L1827.32 100.389L1827.32 100.393C1829.2 102.843 1832.57 104.64 1836.77 104.64L1836.77 105.64L1836.35 105.634C1832.06 105.519 1828.54 103.634 1826.53 101C1824.15 97.9196 1823.73 93.9821 1823.66 90.3662L1823.65 88.8396Z" fill="#6DB8F7"/>
<path d="M1794.81 84.0396C1794.81 63.2397 1779.13 48.5196 1758.81 48.5196C1738.49 48.5196 1722.81 63.2397 1722.81 84.0396L1722.82 85.0029C1723.29 104.826 1738.32 119.256 1757.86 119.709L1758.81 119.72C1778.81 119.72 1794.32 105.146 1794.79 85.0029L1794.81 84.0396ZM1777.81 84.1992C1777.81 76.7516 1775.37 71.6353 1771.85 68.374C1768.31 65.0971 1763.57 63.5996 1758.81 63.5996C1754.05 63.5997 1749.31 65.0972 1745.77 68.374C1742.24 71.6353 1739.81 76.7516 1739.81 84.1992C1739.81 90.4841 1741.67 95.5832 1744.92 99.1006C1748.17 102.609 1752.89 104.64 1758.81 104.64L1758.81 105.64L1758.23 105.634C1746.25 105.374 1738.81 96.9573 1738.81 84.1996C1738.81 68.8396 1748.89 62.5996 1758.81 62.5996C1768.73 62.5996 1778.81 68.8396 1778.81 84.1996C1778.81 97.1596 1771.13 105.64 1758.81 105.64L1758.81 104.64C1764.73 104.64 1769.45 102.609 1772.69 99.1006C1775.95 95.5832 1777.81 90.4841 1777.81 84.1992ZM1795.81 84.04C1795.81 105.25 1779.66 120.72 1758.81 120.72C1737.95 120.719 1721.81 105.25 1721.81 84.04C1721.81 62.6615 1737.96 47.5198 1758.81 47.5195C1779.65 47.5195 1795.81 62.6613 1795.81 84.04Z" fill="#6DB8F7"/>
<path d="M1660.31 9.91992L1684.37 51.6377L1708.43 9.91992H1729.3L1693.53 71.8271V118.64H1675.21V71.8271L1639.44 9.91992H1660.31ZM1692.53 117.64V71.5596L1727.57 10.9196H1709.01L1684.37 53.6396L1659.73 10.9196H1641.17L1676.21 71.5596V117.64H1692.53Z" fill="#6DB8F7"/>
<path d="M1600.25 76.3596C1600.25 71.7096 1600.1 64.2067 1596.31 58.2148L1595.93 57.6396C1594.04 54.9622 1588.59 48.7189 1576.67 48.5244L1576.09 48.5196C1572.09 48.5196 1564.73 49.1596 1558.01 56.0396V0.999643H1542.33V117.64H1558.01V85.1596C1558.01 76.5196 1558.97 71.3997 1561.21 68.1996C1563.29 65.1596 1567.45 62.5996 1572.73 62.5996L1573.1 62.6045C1576.92 62.7001 1579.83 64.2596 1581.53 66.1196C1584.57 69.4796 1584.57 73.7996 1584.57 77.7996V117.64H1600.25V76.3596ZM1559.01 53.7256C1565.51 48.085 1572.3 47.5195 1576.09 47.5195C1588.83 47.5197 1594.71 54.1681 1596.75 57.0625L1596.75 57.0693L1596.76 57.0752C1601.11 63.4412 1601.25 71.5826 1601.25 76.3594V118.64H1583.57V77.7998C1583.57 73.7323 1583.53 69.8219 1580.79 66.791C1579.23 65.0864 1576.46 63.5996 1572.73 63.5996C1567.77 63.5996 1563.93 66.0039 1562.04 68.7646L1562.03 68.7734C1559.99 71.695 1559.01 76.5274 1559.01 85.1592V118.64H1541.33V0H1559.01V53.7256Z" fill="#6DB8F7"/>
<path d="M1534.94 64.6796V50.2796H1522.94V25.6396H1507.26V50.2796H1500.7V64.6796H1507.26V117.64H1522.94V64.6796H1534.94ZM1523.94 49.2793H1535.94V65.6797H1523.94V118.64H1506.26V65.6797H1499.7V49.2793H1506.26V24.6396H1523.94V49.2793Z" fill="#6DB8F7"/>
<path d="M1490.19 50.2796H1474.51V117.64H1490.19V50.2796ZM1492.43 22.4396C1492.43 16.6796 1488.11 12.3596 1482.35 12.3596C1476.59 12.3596 1472.27 16.6796 1472.27 22.4396C1472.27 28.1996 1476.59 32.5196 1482.35 32.5196C1488.11 32.5196 1492.43 28.1996 1492.43 22.4396ZM1491.19 118.64H1473.51V49.2793H1491.19V118.64ZM1493.43 22.4395C1493.43 28.7517 1488.67 33.5195 1482.35 33.5195C1476.04 33.5195 1471.27 28.7517 1471.27 22.4395C1471.27 16.1273 1476.04 11.3594 1482.35 11.3594C1488.67 11.3594 1493.43 16.1273 1493.43 22.4395Z" fill="#6DB8F7"/>
<path d="M1420.42 79.501L1448.81 9.91992H1468.59L1419.34 127.25L1391.56 51.7217L1363.44 127.297L1316.49 9.91992H1336.25L1363.7 79.499L1392.54 2.91992L1420.42 79.501ZM1363.72 82.2796L1335.56 10.9196H1317.96L1363.4 124.52L1391.56 48.8396L1419.4 124.52L1467.08 10.9196H1449.48L1420.36 82.2796L1392.52 5.79964L1363.72 82.2796Z" fill="#6DB8F7"/>
<path d="M1258.86 82.7596C1258.86 78.2796 1258.86 71.8796 1263.18 67.2396C1266.22 64.0396 1269.58 63.5596 1272.94 63.5596L1273.59 63.5713C1275.27 63.6325 1277.86 63.9996 1280.94 65.9596L1287.34 51.7196C1283.02 49.1596 1278.86 48.5196 1275.02 48.5196C1271.5 48.5196 1268.46 48.9996 1265.42 50.7596C1263.18 52.0396 1260.62 54.2796 1258.86 56.3596V50.2796H1243.18V117.64H1258.86V82.7596ZM1259.86 53.8301C1261.42 52.2996 1263.24 50.8494 1264.92 49.8916C1268.17 48.0142 1271.4 47.5196 1275.02 47.5195C1278.98 47.5195 1283.33 48.1827 1287.85 50.8594L1288.61 51.3145L1281.37 67.4238L1280.4 66.8037C1277.1 64.7015 1274.43 64.5596 1272.94 64.5596C1269.69 64.5596 1266.67 65.019 1263.9 67.9287C1259.9 72.2383 1259.86 78.2193 1259.86 82.7598V118.64H1242.18V49.2793H1259.86V53.8301Z" fill="#6DB8F7"/>
<path d="M1226.49 50.2796H1210.81V58.1196C1204.61 50.0597 1196.31 48.6064 1191.29 48.5234L1190.81 48.5196C1173.05 48.5196 1158.01 61.9596 1158.01 83.8796L1158.02 84.749C1158.38 102.686 1169.81 119.188 1189.68 119.707L1190.65 119.72C1195.45 119.72 1203.93 118.6 1210.81 110.6V117.64H1226.49V50.2796ZM1174.01 84.1996C1174.01 72.1996 1181.37 62.5996 1192.73 62.5996L1193.2 62.6045C1202.93 62.821 1211.77 69.8696 1211.77 84.3596L1211.77 85.0146C1211.49 98.6628 1202.5 105.64 1192.73 105.64L1192.73 104.64C1197.45 104.64 1201.95 102.929 1205.26 99.5762C1208.57 96.2295 1210.77 91.1753 1210.77 84.3594C1210.77 77.2118 1208.56 72.0399 1205.26 68.6592C1201.95 65.2735 1197.46 63.5996 1192.73 63.5996C1182.09 63.5996 1175.01 72.5763 1175.01 84.1992C1175.01 95.5023 1182.09 104.64 1192.73 104.64L1192.73 105.64L1192.2 105.633C1181.32 105.339 1174.24 96.0011 1174.02 84.7461L1174.01 84.1996ZM1227.49 118.64H1209.81V113.124C1203.03 119.739 1195.21 120.72 1190.65 120.72C1169.14 120.72 1157.01 102.818 1157.01 83.8799C1157.01 61.4264 1172.48 47.5195 1190.81 47.5195C1195.48 47.5196 1203.4 48.6233 1209.81 55.4082V49.2793H1227.49V118.64Z" fill="#6DB8F7"/>
<path d="M1144.94 0.999643H1129.26V117.64H1144.94V0.999643ZM1145.94 118.64H1128.26V0H1145.94V118.64Z" fill="#6DB8F7"/>
<path d="M1112.67 0.999643H1096.99V117.64H1112.67V0.999643ZM1113.67 118.64H1096V0H1113.67V118.64Z" fill="#6DB8F7"/>
<path d="M1083.83 84.0396C1083.83 63.2397 1068.15 48.5196 1047.83 48.5196C1027.51 48.5196 1011.83 63.2397 1011.83 84.0396L1011.84 85.0029C1012.31 104.826 1027.34 119.256 1046.88 119.709L1047.83 119.72C1067.83 119.72 1083.34 105.146 1083.82 85.0029L1083.83 84.0396ZM1066.83 84.1992C1066.83 76.7518 1064.4 71.6353 1060.87 68.374C1057.33 65.0971 1052.59 63.5996 1047.83 63.5996C1043.07 63.5996 1038.33 65.0971 1034.79 68.374C1031.27 71.6353 1028.83 76.7518 1028.83 84.1992C1028.83 90.4842 1030.69 95.5832 1033.95 99.1006C1037.19 102.609 1041.91 104.64 1047.83 104.64V105.64L1047.26 105.634C1035.27 105.374 1027.83 96.9571 1027.83 84.1996C1027.83 68.8396 1037.91 62.5996 1047.83 62.5996C1057.75 62.5996 1067.83 68.8396 1067.83 84.1996C1067.83 97.1596 1060.15 105.64 1047.83 105.64V104.64C1053.75 104.64 1058.47 102.609 1061.72 99.1006C1064.97 95.5832 1066.83 90.4842 1066.83 84.1992ZM1084.83 84.04C1084.83 105.25 1068.69 120.72 1047.83 120.72C1026.98 120.72 1010.83 105.25 1010.83 84.04C1010.83 62.6613 1026.99 47.5196 1047.83 47.5195C1068.68 47.5195 1084.83 62.6613 1084.83 84.04Z" fill="#6DB8F7"/>
<path d="M1001.02 64.3596C1001.02 46.5996 993.502 31.0796 980.542 21.3196C969.073 12.7949 956.551 11.027 942.252 10.9248L940.862 10.9196L940.862 9.91992C955.804 9.91992 969.034 11.5203 981.139 20.5166L981.144 20.5205C994.374 30.4841 1002.02 46.3106 1002.02 64.3594C1002.02 82.4134 994.529 98.0922 980.158 108.217C967.429 117.192 955.501 118.64 940.542 118.64H917.462V9.91992H940.862L940.862 10.9196H918.462V117.64H940.542C955.422 117.64 967.102 116.2 979.582 107.4C993.442 97.6347 1000.79 82.5983 1001.02 65.1904L1001.02 64.3596ZM983.702 64.3594C983.702 50.5958 977.132 39.8571 969.713 34.4473C960.711 27.9309 949.64 27.2793 941.822 27.2793H935.782V101.279H941.822L941.822 102.28H934.782V26.2796H941.822C949.662 26.2796 961.022 26.9196 970.302 33.6396C977.982 39.2396 984.702 50.2796 984.702 64.3596C984.702 78.9196 977.502 89.1596 970.142 94.7596C960.862 101.64 949.822 102.28 941.822 102.28L941.822 101.279C949.796 101.279 960.546 100.629 969.547 93.9561C976.693 88.5143 983.702 78.5551 983.702 64.3594Z" fill="#6DB8F7"/>
<path d="M869.439 69.3196H799.999V82.7596H869.439V69.3196ZM869.439 43.3996H799.999V56.8396H869.439V43.3996ZM870.438 83.7598H798.999V68.3193H870.438V83.7598ZM870.438 57.8398H798.999V42.3994H870.438V57.8398Z" fill="#6DB8F7"/>
<path d="M753.799 76.3596C753.799 66.2847 752.297 61.615 749.876 57.9873L749.639 57.6396C747.591 54.8046 742.443 48.7139 730.378 48.5244L729.799 48.5196C725.959 48.5196 718.279 48.9996 711.559 56.5196V50.2796H695.879V117.64H711.559V85.3196C711.559 63.5596 718.759 62.5996 725.799 62.5996L726.912 62.6094C732.493 62.7247 738.118 64.1496 738.119 80.1996V117.64H753.799V76.3596ZM712.559 54.0654C719.106 47.9417 726.17 47.5195 729.799 47.5195C736.216 47.5196 740.838 49.1268 744.141 51.1465C747.437 53.1622 749.369 55.5576 750.449 57.0537L750.454 57.0615L750.46 57.0684C753.181 60.9801 754.799 65.8508 754.799 76.3594V118.64H737.118V80.1992C737.118 71.7019 735.517 67.6631 733.484 65.6992C731.469 63.7523 728.793 63.5996 725.799 63.5996C722.278 63.5996 719.14 63.8647 716.78 66.4707C714.366 69.1371 712.559 74.483 712.559 85.3193V118.64H694.879V49.2793H712.559V54.0654Z" fill="#6DB8F7"/>
<path d="M682.875 84.0396C682.875 63.5648 667.681 48.9812 647.824 48.5303L646.875 48.5196C626.555 48.5196 610.875 63.2397 610.875 84.0396L610.887 85.0029C611.359 104.826 626.384 119.256 645.926 119.709L646.875 119.72C666.877 119.72 682.384 105.146 682.863 85.0029L682.875 84.0396ZM665.875 84.1992C665.875 76.7519 663.439 71.6353 659.916 68.374C656.375 65.0971 651.635 63.5996 646.875 63.5996C642.115 63.5996 637.375 65.0971 633.834 68.374C630.311 71.6353 627.875 76.7518 627.875 84.1992C627.875 90.4842 629.735 95.5832 632.989 99.1006C636.235 102.609 640.955 104.64 646.875 104.64L646.875 105.64L646.301 105.634C634.507 105.378 627.113 97.2222 626.881 84.8037L626.875 84.1996C626.875 68.8396 636.955 62.5996 646.875 62.5996L647.34 62.6045C657.107 62.7971 666.875 69.0799 666.875 84.1996L666.869 84.8037C666.634 97.4225 659.002 105.64 646.875 105.64L646.875 104.64C652.795 104.64 657.515 102.609 660.761 99.1006C664.015 95.5832 665.875 90.4842 665.875 84.1992ZM683.875 84.04C683.875 105.25 667.729 120.72 646.875 120.72C626.021 120.72 609.875 105.25 609.875 84.04C609.875 62.6613 626.03 47.5195 646.875 47.5195C667.72 47.5196 683.875 62.6614 683.875 84.04Z" fill="#6DB8F7"/>
<path d="M597.806 50.2796H582.126V117.64H597.806V50.2796ZM600.046 22.4396C600.046 16.6796 595.726 12.3596 589.966 12.3596C584.206 12.3596 579.886 16.6796 579.886 22.4396C579.886 28.1996 584.206 32.5196 589.966 32.5196C595.726 32.5196 600.046 28.1996 600.046 22.4396ZM598.806 118.64H581.126V49.2793H598.806V118.64ZM601.046 22.4395C601.046 28.7517 596.278 33.5195 589.966 33.5195C583.654 33.5194 578.886 28.7517 578.886 22.4395C578.886 16.1273 583.654 11.3595 589.966 11.3594C596.278 11.3594 601.046 16.1273 601.046 22.4395Z" fill="#6DB8F7"/>
<path d="M574.736 64.6796V50.2796H562.736V25.6396H547.056V50.2796H540.496V64.6796H547.056V117.64H562.736V64.6796H574.736ZM563.736 49.2793H575.736V65.6797H563.736V118.64H546.056V65.6797H539.496V49.2793H546.056V24.6396H563.736V49.2793Z" fill="#6DB8F7"/>
<path d="M495.069 84.0396C495.069 76.5197 497.949 71.3996 500.829 68.5196C503.709 65.6396 508.349 62.5996 515.709 62.5996L516.165 62.6035C520.949 62.6852 527.774 64.0996 534.749 70.9196V53.3196C527.999 49.5698 522.233 48.6319 517.32 48.5293L516.349 48.5196C503.069 48.5196 494.589 53.1596 489.309 58.4397L488.843 58.915C484.024 63.9338 479.069 72.2747 479.069 84.5196C479.069 96.8396 483.869 104.84 488.669 109.8C494.868 116.309 502.57 119.516 513.228 119.71L514.269 119.72C524.669 119.72 530.909 116.84 534.749 114.44V96.9996C529.309 103.08 521.789 105.64 515.389 105.64L515.389 104.64C521.543 104.64 528.777 102.174 534.003 96.333L535.749 94.3818V114.994L535.278 115.288C531.3 117.774 524.879 120.72 514.269 120.72C502.844 120.72 494.564 117.44 487.944 110.489C482.99 105.368 478.068 97.1272 478.068 84.5195C478.068 71.5735 483.485 62.8489 488.602 57.7324C494.073 52.2612 502.809 47.5195 516.349 47.5195C521.597 47.5195 527.853 48.3447 535.234 52.4453L535.749 52.7314V73.2959L534.05 71.6348C527.071 64.8108 520.299 63.5997 515.709 63.5996C508.666 63.5996 504.269 66.4941 501.536 69.2266C498.84 71.9229 496.068 76.7906 496.068 84.04C496.068 91.5982 498.991 96.6265 501.853 99.4893C505.178 102.657 509.882 104.64 515.389 104.64L515.389 105.64L514.851 105.634C509.32 105.509 504.558 103.455 501.149 100.2C498.204 97.2547 495.258 92.2074 495.077 84.7676L495.069 84.0396Z" fill="#6DB8F7"/>
<path d="M476.731 118.64H456.933L456.672 118.038L445.733 92.8799H401.434L389.753 118.64H369.934L424.651 2.28223L476.731 118.64ZM371.509 117.64H389.109L400.789 91.8796H446.389L457.589 117.64H475.189L424.629 4.67964L371.509 117.64ZM439.829 76.5196H407.509L423.989 40.3596L439.829 76.5196ZM409.063 75.5195H438.299L423.97 42.8105L409.063 75.5195Z" fill="#6DB8F7"/>
<path d="M264.357 75.2396V10.9196H248.037V79.5596C248.037 88.0396 249.797 98.2796 257.957 107.24C263.47 113.225 272.703 119.52 286.879 119.715L287.557 119.72C302.117 119.72 311.557 113.32 317.157 107.24C325.317 98.2796 327.077 88.0396 327.077 79.5596V10.9196H310.757V75.2396L310.755 76.334C310.726 81.874 310.397 88.3897 307.397 93.6396L307.086 94.1504C303.745 99.4245 296.702 104.68 287.557 104.68L287.558 103.68C296.595 103.68 303.489 98.311 306.535 93.1328C309.579 87.7979 309.758 81.028 309.758 75.2393V9.91992H328.077V79.5596C328.077 88.1787 326.286 98.7012 317.896 107.913L317.893 107.917C312.142 114.161 302.449 120.72 287.558 120.72C272.666 120.72 262.973 114.161 257.222 107.917L257.218 107.913C248.828 98.7012 247.037 88.1786 247.037 79.5596V9.91992H265.357V75.2393C265.357 81.0319 265.536 87.8069 268.586 93.1436C271.635 98.3184 278.526 103.68 287.558 103.68L287.557 104.68L287.116 104.676C277.893 104.505 270.867 98.9945 267.717 93.6396C264.717 88.3896 264.39 81.874 264.36 76.334L264.357 75.2396Z" fill="#6DB8F7"/>
<path d="M191.062 79.502L219.457 9.91992H239.232L189.987 127.25L162.203 51.7197L134.082 127.297L87.1318 9.91992H106.889L134.347 79.499L163.185 2.91992L191.062 79.502ZM134.369 82.2796L106.209 10.9196H88.6086L134.049 124.52L162.209 48.8396L190.049 124.52L237.729 10.9196H220.129L191.009 82.2796L163.169 5.79964L134.369 82.2796Z" fill="#6DB8F7"/>
<path d="M83.5598 64.3596C83.5598 46.8773 76.2731 31.5651 63.6836 21.7812L63.0798 21.3196C51.6098 12.7946 39.0886 11.027 24.7891 10.9248L23.3998 10.9196L23.3994 9.91992C38.1077 9.91992 51.1583 11.4707 63.1084 20.1006L63.6768 20.5166L63.6816 20.5205C76.9119 30.4841 84.5595 46.3106 84.5596 64.3594C84.5596 82.4132 77.0664 98.0922 62.6963 108.217C49.9673 117.192 38.0391 118.64 23.0801 118.64H0V9.91992H23.3994L23.3998 10.9196H0.99983V117.64H23.0798L24.4658 117.635C38.6907 117.542 50.0299 115.925 62.1198 107.4C76.1998 97.4797 83.5598 82.1196 83.5598 64.3596ZM66.2402 64.3594C66.2402 50.5969 59.6714 39.8585 52.2529 34.4482C43.2509 27.9298 32.1784 27.2793 24.3594 27.2793H18.3203V101.279H24.3594L24.3598 102.28H17.3198V26.2796H24.3598C32.1998 26.2796 43.5598 26.9196 52.8398 33.6396C60.5198 39.2396 67.2398 50.2796 67.2398 64.3596L67.2344 65.0391C67.0146 79.2385 59.9248 89.2472 52.6798 94.7596C43.3998 101.64 32.3598 102.28 24.3598 102.28L24.3594 101.279C32.3333 101.279 43.0828 100.629 52.084 93.9561C59.2304 88.5143 66.2402 78.5553 66.2402 64.3594Z" fill="#6DB8F7"/>
<defs>
<linearGradient id="paint0_linear_0_1998" x1="-88726.5" y1="-121.33" x2="-88726" y2="294.034" gradientUnits="userSpaceOnUse">
<stop stop-color="#6DB8F7"/>
<stop offset="1" stop-color="#0085F5"/>
</linearGradient>
<linearGradient id="paint1_linear_0_1998" x1="-68671.4" y1="-117.785" x2="-68670.7" y2="285.444" gradientUnits="userSpaceOnUse">
<stop stop-color="#6DB8F7"/>
<stop offset="1" stop-color="#0085F5"/>
</linearGradient>
<linearGradient id="paint2_linear_0_1998" x1="-241732" y1="-35.9352" x2="-241732" y2="236.766" gradientUnits="userSpaceOnUse">
<stop stop-color="#6DB8F7"/>
<stop offset="1" stop-color="#0085F5"/>
</linearGradient>
<linearGradient id="paint3_linear_0_1998" x1="-139695" y1="-59.4974" x2="-139694" y2="252.568" gradientUnits="userSpaceOnUse">
<stop stop-color="#6DB8F7"/>
<stop offset="1" stop-color="#0085F5"/>
</linearGradient>
<linearGradient id="paint4_linear_0_1998" x1="-83377.4" y1="-117.785" x2="-83376.9" y2="285.445" gradientUnits="userSpaceOnUse">
<stop stop-color="#6DB8F7"/>
<stop offset="1" stop-color="#0085F5"/>
</linearGradient>
<linearGradient id="paint5_linear_0_1998" x1="-42400.6" y1="-24.8373" x2="-42400.2" y2="229.323" gradientUnits="userSpaceOnUse">
<stop stop-color="#6DB8F7"/>
<stop offset="1" stop-color="#0085F5"/>
</linearGradient>
<linearGradient id="paint6_linear_0_1998" x1="-72377.8" y1="-123.997" x2="-72377.3" y2="289.453" gradientUnits="userSpaceOnUse">
<stop stop-color="#6DB8F7"/>
<stop offset="1" stop-color="#0085F5"/>
</linearGradient>
<linearGradient id="paint7_linear_0_1998" x1="-55193.1" y1="-117.785" x2="-55192.4" y2="285.444" gradientUnits="userSpaceOnUse">
<stop stop-color="#6DB8F7"/>
<stop offset="1" stop-color="#0085F5"/>
</linearGradient>
<linearGradient id="paint8_linear_0_1998" x1="-43830" y1="-33.7327" x2="-43829.7" y2="235.289" gradientUnits="userSpaceOnUse">
<stop stop-color="#6DB8F7"/>
<stop offset="1" stop-color="#0085F5"/>
</linearGradient>
<linearGradient id="paint9_linear_0_1998" x1="-61473.5" y1="-20.0375" x2="-61473.3" y2="226.105" gradientUnits="userSpaceOnUse">
<stop stop-color="#6DB8F7"/>
<stop offset="1" stop-color="#0085F5"/>
</linearGradient>
<linearGradient id="paint10_linear_0_1998" x1="-101203" y1="-59.4974" x2="-101203" y2="252.568" gradientUnits="userSpaceOnUse">
<stop stop-color="#6DB8F7"/>
<stop offset="1" stop-color="#0085F5"/>
</linearGradient>
<linearGradient id="paint11_linear_0_1998" x1="-168655" y1="-35.9352" x2="-168655" y2="236.766" gradientUnits="userSpaceOnUse">
<stop stop-color="#6DB8F7"/>
<stop offset="1" stop-color="#0085F5"/>
</linearGradient>
<linearGradient id="paint12_linear_0_1998" x1="-20430.8" y1="-24.8332" x2="-20430.3" y2="216.996" gradientUnits="userSpaceOnUse">
<stop stop-color="#6DB8F7"/>
<stop offset="1" stop-color="#0085F5"/>
</linearGradient>
<linearGradient id="paint13_linear_0_1998" x1="-65112.1" y1="-121.33" x2="-65111.7" y2="294.035" gradientUnits="userSpaceOnUse">
<stop stop-color="#6DB8F7"/>
<stop offset="1" stop-color="#0085F5"/>
</linearGradient>
<linearGradient id="paint14_linear_0_1998" x1="-39139.7" y1="-117.785" x2="-39139" y2="285.444" gradientUnits="userSpaceOnUse">
<stop stop-color="#6DB8F7"/>
<stop offset="1" stop-color="#0085F5"/>
</linearGradient>
<linearGradient id="paint15_linear_0_1998" x1="-166738" y1="-20.0375" x2="-166738" y2="226.105" gradientUnits="userSpaceOnUse">
<stop stop-color="#6DB8F7"/>
<stop offset="1" stop-color="#0085F5"/>
</linearGradient>
<linearGradient id="paint16_linear_0_1998" x1="-162024" y1="-20.0375" x2="-162024" y2="226.105" gradientUnits="userSpaceOnUse">
<stop stop-color="#6DB8F7"/>
<stop offset="1" stop-color="#0085F5"/>
</linearGradient>
<linearGradient id="paint17_linear_0_1998" x1="-32575.9" y1="-117.785" x2="-32575.3" y2="285.444" gradientUnits="userSpaceOnUse">
<stop stop-color="#6DB8F7"/>
<stop offset="1" stop-color="#0085F5"/>
</linearGradient>
<linearGradient id="paint18_linear_0_1998" x1="-25818.9" y1="-33.7327" x2="-25818.6" y2="235.289" gradientUnits="userSpaceOnUse">
<stop stop-color="#6DB8F7"/>
<stop offset="1" stop-color="#0085F5"/>
</linearGradient>
<linearGradient id="paint19_linear_0_1998" x1="-26789.7" y1="-196.508" x2="-26787.7" y2="532.908" gradientUnits="userSpaceOnUse">
<stop stop-color="#6DB8F7"/>
<stop offset="1" stop-color="#0085F5"/>
</linearGradient>
<linearGradient id="paint20_linear_0_1998" x1="-28000.7" y1="-121.33" x2="-28000.2" y2="294.034" gradientUnits="userSpaceOnUse">
<stop stop-color="#6DB8F7"/>
<stop offset="1" stop-color="#0085F5"/>
</linearGradient>
<linearGradient id="paint21_linear_0_1998" x1="-19820.9" y1="-117.785" x2="-19820.3" y2="285.444" gradientUnits="userSpaceOnUse">
<stop stop-color="#6DB8F7"/>
<stop offset="1" stop-color="#0085F5"/>
</linearGradient>
<linearGradient id="paint22_linear_0_1998" x1="-67268.2" y1="-35.9352" x2="-67268.1" y2="236.766" gradientUnits="userSpaceOnUse">
<stop stop-color="#6DB8F7"/>
<stop offset="1" stop-color="#0085F5"/>
</linearGradient>
<linearGradient id="paint23_linear_0_1998" x1="-36971.6" y1="-59.4974" x2="-36971.5" y2="252.568" gradientUnits="userSpaceOnUse">
<stop stop-color="#6DB8F7"/>
<stop offset="1" stop-color="#0085F5"/>
</linearGradient>
<linearGradient id="paint24_linear_0_1998" x1="-20208.6" y1="-117.785" x2="-20208.1" y2="285.445" gradientUnits="userSpaceOnUse">
<stop stop-color="#6DB8F7"/>
<stop offset="1" stop-color="#0085F5"/>
</linearGradient>
<linearGradient id="paint25_linear_0_1998" x1="-8476.62" y1="-24.8373" x2="-8476.25" y2="229.323" gradientUnits="userSpaceOnUse">
<stop stop-color="#6DB8F7"/>
<stop offset="1" stop-color="#0085F5"/>
</linearGradient>
<linearGradient id="paint26_linear_0_1998" x1="-7541.17" y1="-33.0878" x2="-7540.87" y2="230.791" gradientUnits="userSpaceOnUse">
<stop stop-color="#6DB8F7"/>
<stop offset="1" stop-color="#0085F5"/>
</linearGradient>
<linearGradient id="paint27_linear_0_1998" x1="-1548.38" y1="-24.8332" x2="-1547.9" y2="216.996" gradientUnits="userSpaceOnUse">
<stop stop-color="#6DB8F7"/>
<stop offset="1" stop-color="#0085F5"/>
</linearGradient>
<linearGradient id="paint28_linear_0_1998" x1="-366.203" y1="-33.7327" x2="-365.875" y2="235.289" gradientUnits="userSpaceOnUse">
<stop stop-color="#6DB8F7"/>
<stop offset="1" stop-color="#0085F5"/>
</linearGradient>
</defs>
</svg>
