<svg width="560" height="134" viewBox="0 0 560 134" fill="none" xmlns="http://www.w3.org/2000/svg">
<path d="M2.12243 51.3833L5.82355 50.1296L7.67329 18.8922L3.52807 18.7013C3.29761 16.8789 3.76854 16.1004 9.31438 15.7604L26.0616 14.7164L25.8076 21.5428C25.7491 23.2163 25.168 23.9968 22.8543 23.9716L22.6903 18.429L12.536 18.5423L11.6823 32.5753L20.3091 32.0488C20.4399 29.4718 20.8547 28.012 22.527 27.8945C23.0336 27.8855 23.4972 27.9434 23.8083 28.0919C23.4306 30.4092 23.15 33.231 23.0765 36.5552C22.984 38.8015 21.4347 39.6431 19.8369 38.9891L20.1634 35.0222L11.5798 35.5039L10.7252 49.4929L21.8915 49.2957L24.0788 44.6578C25.1396 42.3504 26.2173 42.2433 27.5276 42.8364L24.9605 52.1683L1.06046 53.6247C0.712225 52.6185 1.11514 51.7312 2.12243 51.3833Z" fill="#75B733"/>
<path d="M34.9449 28.7094C33.734 28.7528 32.5532 29.2577 31.4436 30.0476C31.1534 29.8326 31.015 29.483 31.0092 29.153C30.9337 27.3718 35.3954 24.2782 38.4336 24.1585C40.0846 24.0853 40.6971 25.0868 40.8048 27.4395C40.8753 28.9347 40.4621 31.7368 40.0782 33.7021L40.3665 33.8071C43.3144 27.3292 46.491 23.8181 51.1806 23.6473C53.8664 23.5339 55.3008 24.9169 55.4251 28.2156C55.5405 31.0084 53.615 41.7374 53.7618 45.0577C53.8342 46.6629 54.3076 47.2707 55.3423 47.2304C56.7731 47.1611 58.096 45.9715 58.7663 45.2554C59.0565 45.4704 59.1949 45.82 59.2007 46.15C59.2801 48.1512 55.4189 51.5643 52.4908 51.682C50.4874 51.7614 49.1253 50.7292 48.9986 47.2984C48.8367 43.1201 51.0667 33.42 50.9533 30.7373C50.8719 28.6261 50.0442 27.9146 48.547 27.963C45.7951 28.0776 43.4431 32.1243 41.8755 35.6729C39.925 39.9986 38.863 45.981 39.3484 51.0119L34.191 52.1372C35.3065 44.1953 36.4187 33.5687 36.3021 30.71C36.2289 29.0608 35.8255 28.6718 34.9669 28.709L34.9449 28.7094Z" fill="#75B733"/>
<path d="M65.4608 27.6202C64.2495 27.6416 63.0687 28.1466 61.9367 28.9148C61.6465 28.6999 61.5301 28.3498 61.5023 28.0202C61.4708 26.2383 65.9557 23.2103 68.9947 23.1346C70.6025 23.1062 71.4341 24.0378 71.4745 26.3257C71.6032 31.1208 69.7405 44.1593 69.0478 48.5948C67.1329 61.1721 63.259 66.3679 56.6085 66.5294C53.4594 66.607 52.11 65.0464 52.0557 63.2209C52.0336 61.9669 52.6258 60.5701 53.8668 59.7339C55.1764 61.5373 56.8009 62.4549 58.9813 62.4164C62.0203 62.3407 63.3128 59.4351 64.4206 51.0532C65.1036 46.0677 66.76 32.5707 66.6742 28.9632C66.6571 27.9952 66.2317 27.6066 65.4388 27.6206L65.4608 27.6202ZM73.5589 12.1169C73.6012 14.5149 72.4654 16.3174 69.8889 16.3849C68.0609 16.4172 66.943 15.4907 66.8856 13.4891C66.8162 10.8056 68.197 9.15277 70.6197 9.10998C72.5138 9.07653 73.5026 10.1814 73.5589 12.1169Z" fill="#75B733"/>
<path d="M98.4588 33.5954C98.5745 43.8922 92.2419 50.826 85.2594 50.9053C79.8851 50.9782 77.0301 47.7497 76.9429 40.3131C76.8333 30.3683 82.7591 22.8476 89.7415 22.7683C95.292 22.6923 98.3746 26.3349 98.4588 33.5954ZM93.7681 34.9546C93.7062 30.2024 92.2952 26.3982 88.7489 26.4388C84.5639 26.4907 81.3716 31.6085 81.4639 39.331C81.534 44.5453 83.3847 47.0433 86.8865 46.9814C91.2917 46.9257 93.8623 41.5328 93.7898 34.9322L93.7681 34.9546Z" fill="#75B733"/>
<path d="M119.614 41.3864L119.326 41.2815C116.778 46.696 113.369 50.8053 108.566 50.7801C105.702 50.7646 104.216 48.9864 104.241 45.3769C104.263 40.4031 107.011 32.5864 107.016 29.1534C107.031 27.5027 106.628 27.0917 105.768 27.0848C104.557 27.0842 103.353 27.5236 102.22 28.2698C101.93 28.0329 101.814 27.7048 101.829 27.3525C101.842 25.5697 106.44 22.6938 109.48 22.7061C111.089 22.7217 111.924 23.8733 111.926 26.448C111.913 29.485 108.991 39.9235 108.962 43.247C108.956 45.4257 109.351 46.563 111.18 46.5748C115.696 46.605 121.331 33.83 121.098 24.3934C122.646 23.4419 124.267 22.9291 126.776 22.7748C124.424 31.7948 122.932 42.142 122.603 49.696C122.08 62.5128 115.64 65.8394 108.986 65.8029C102.574 65.7621 98.7599 63.1227 98.7831 59.4472C98.8056 56.9821 100.073 55.1552 102.247 54.7207C103.065 59.9217 106.037 62.2459 110.619 62.253C115.202 62.2821 117.961 60.0548 118.067 52.3508C118.161 47.6618 118.462 44.7957 119.615 41.4304L119.614 41.3864Z" fill="#75B733"/>
<path d="M150.07 24.4099C152.011 24.5737 155.098 24.7172 156.769 24.4897C157.178 26.441 155.867 28.3567 153.399 28.2902C152.76 28.2795 151.235 27.9984 149.467 27.7215C148.334 33.4191 147.263 41.4042 147.193 43.6281C147.125 46.028 147.383 46.9477 148.596 46.9923C149.962 47.0341 152.648 45.6663 154.295 44.1188C154.677 44.5302 154.839 44.9455 154.825 45.4518C154.774 47.4993 149.688 51.4402 145.61 51.3142C143.207 51.2466 142.149 49.9669 142.244 46.5983C142.356 42.9433 143.508 35.815 145.184 27.225L141.253 26.6562C140.899 25.3201 141.735 24.029 145.793 24.2654L147.005 18.0603C148.225 17.2465 149.957 16.7758 151.5 16.8146L150.092 24.4535L150.07 24.4099Z" fill="#75B733"/>
<path d="M164.668 13.941C164.742 11.9372 164.312 11.2846 163.298 11.2585C162.439 11.2296 160.611 11.2619 159.508 11.2154C159.352 11.0861 159.238 10.868 159.256 10.6257C159.269 10.1193 159.592 9.71747 160.292 9.41904C161.646 8.77894 167.004 7.76007 168.393 7.82356C169.584 7.86856 169.907 8.69908 169.814 10.9673C169.688 13.7644 166.775 28.4719 165.693 33.3544L165.962 33.5917C169.444 27.3905 172.912 24.1604 177.586 24.3639C180.275 24.4704 181.58 25.9658 181.44 29.2912C181.313 32.0882 178.525 42.6344 178.385 45.9378C178.326 47.5453 178.756 48.1979 179.77 48.224C181.203 48.2867 182.616 47.2055 183.331 46.5327C183.599 46.77 183.716 47.12 183.7 47.4724C183.625 49.4763 179.472 52.5645 176.539 52.4402C174.533 52.3656 173.257 51.2218 173.417 47.786C173.586 43.6239 176.635 34.1294 176.763 31.4424C176.858 29.3281 176.095 28.5494 174.596 28.4878C171.84 28.3604 169.154 32.2149 167.298 35.6147C164.991 39.7485 163.421 45.6519 163.488 50.6901L158.477 51.3948C160.712 40.7264 164.513 17.6408 164.668 13.985L164.668 13.941Z" fill="#75B733"/>
<path d="M196.688 49.3995C199.489 49.5701 202.374 48.2428 204.482 46.5991C204.816 46.7913 204.91 47.1417 204.874 47.6045C204.668 50.909 199.981 53.7426 194.71 53.4175C189.219 53.0964 186.413 50.1751 186.892 42.3545C187.472 32.7496 194.279 25.2573 200.234 25.6143C204.182 25.8526 205.762 28.0033 205.577 31.2635C205.302 35.6696 201.745 38.8353 191.388 41.1968C191.114 46.8572 193.248 49.2182 196.689 49.4215L196.688 49.3995ZM200.712 32.7358C200.795 31.1939 200.058 29.3804 198.404 29.2776C195.713 29.1271 192.688 33.6917 191.715 38.5063C198.839 36.4659 200.598 35.0265 200.734 32.7354L200.712 32.7358Z" fill="#75B733"/>
<path d="M237.856 32.6963C237.676 34.9881 236.079 36.8649 233.286 37.1562C233.576 33.6301 232.924 31.6611 230.983 31.5193C227.674 31.2477 223.891 36.618 223.366 43.075C222.876 49.0033 225.144 51.428 228.586 51.7193C230.991 51.9189 233.595 50.9266 235.489 49.6388C235.823 49.831 235.895 50.1818 235.859 50.6446C235.643 53.3772 231.329 56.0721 226.254 55.6556C221.224 55.2383 218.196 52.1889 218.83 44.4315C219.519 36.057 225.337 27.3939 232.993 28.0289C236.875 28.3344 238.017 30.6249 237.834 32.7187L237.856 32.6963Z" fill="#75B733"/>
<path d="M263.807 53.848C263.6 55.8322 259.288 58.6812 256.397 58.4021C254.411 58.1951 253.68 56.7556 253.924 54.3086C254.074 52.8316 254.521 50.6891 255.17 48.8071L254.903 48.6578C251.225 54.9505 247.702 57.5434 244.325 57.2069C241.015 56.8913 239.117 52.9637 239.694 46.9898C240.78 36.1216 247.627 29.6189 256.632 30.5162C257.823 30.6272 258.951 30.8493 259.838 31.1858C262.134 28.9446 263.298 28.77 264.501 29.519C260.758 38.3435 259.177 44.9073 258.671 49.9116C258.372 52.9317 258.637 54.2694 259.83 54.4024C261.264 54.5531 262.744 53.5367 263.483 52.9295C263.752 53.1888 263.824 53.5396 263.786 53.8704L263.807 53.848ZM253.521 33.9821C248.908 33.5134 245.029 38.4232 244.298 45.7202C243.869 50.107 244.927 52.619 246.582 52.7878C249.716 53.1066 253.771 48.1496 256.657 39.4062C257.221 37.6798 257.91 35.555 257.91 35.555C256.839 34.7597 255.639 34.1867 253.521 33.9821Z" fill="#75B733"/>
<path d="M271.911 36.1662C270.719 36.0112 269.468 36.3194 268.245 36.9131C267.998 36.6534 267.926 36.3026 267.964 35.9498C268.175 34.1856 273.091 31.8542 276.116 32.2409C277.772 32.4537 278.21 33.5463 277.92 35.862C277.726 37.3399 276.871 40.0617 276.177 41.9225L276.444 42.0718C280.415 36.1701 283.844 33.2047 288.502 33.7826C291.174 34.1095 292.219 35.8736 291.814 39.1597C291.62 40.6375 291.018 42.7607 290.551 43.7372L290.818 43.8866C294.789 37.9848 298.218 35.0194 302.877 35.5973C305.548 35.9243 306.744 37.5316 306.318 40.818C305.97 43.597 302.318 53.8723 301.892 57.1588C301.699 58.7466 302.064 59.4224 303.102 59.5581C304.515 59.7312 306.018 58.7804 306.8 58.1724C307.047 58.4321 307.12 58.7829 307.082 59.1357C306.83 61.1207 302.451 63.8608 299.558 63.4937C297.571 63.2427 296.403 62.009 296.828 58.5906C297.349 54.4442 301.152 45.2445 301.502 42.5756C301.773 40.4802 301.053 39.6347 299.574 39.4627C296.836 39.115 294.146 42.7495 292.001 46.0003C289.361 49.942 287.325 55.6775 286.973 60.7011L281.69 60.9705C284.089 53.314 286.871 43.6922 287.236 40.6709C287.488 38.7299 286.679 37.8419 285.2 37.648C282.462 37.3002 279.773 40.9567 277.627 44.1855C274.986 48.1272 272.951 53.8628 272.599 58.8864L267.316 59.1557C269.714 51.4993 272.573 41.1939 272.941 38.3486C273.154 36.6944 272.794 36.2606 271.955 36.1434L271.911 36.1662Z" fill="#75B733"/>
<path d="M320.545 48.0485C323.807 43.1055 328.479 39.436 332.101 39.9882C335.724 40.5404 336.846 44.1956 335.896 50.2861C334.295 60.6352 327.192 67.6486 318.709 66.346C317.627 66.1891 316.632 65.9646 315.746 65.7161L312.828 76.3746L319.413 78.723C319.24 80.2005 318.263 80.966 316.716 80.7292C314.971 80.4519 312.252 79.9278 308.01 79.2765C305.404 78.8824 302.621 78.5134 301.473 78.3797C301.168 77.2848 301.875 76.172 303.57 76.098L308.126 75.8195C311.086 66.3266 316.554 47.8329 317.107 44.2141C317.364 42.5811 317.026 42.1249 316.186 41.9857C314.993 41.8087 313.742 42.0729 312.496 42.6231C312.249 42.3633 312.177 41.9905 312.237 41.6594C312.515 39.916 317.477 37.7158 320.481 38.1908C322.116 38.4481 322.532 39.541 322.176 41.8579C321.96 43.3362 321.016 46.0156 320.256 47.8775L320.523 48.0269L320.545 48.0485ZM316.736 61.8696C318.137 62.6151 319.355 62.9677 320.879 63.2048C325.629 63.9352 330.053 57.4972 330.981 51.3852C331.692 46.7513 331.253 44.3164 329.331 44.0202C325.995 43.507 319.633 51.2775 316.736 61.8696Z" fill="#75B733"/>
<path d="M362.344 68.3482C361.982 70.3132 357.466 72.8356 354.593 72.3142C352.626 71.9528 352.005 70.4674 352.447 68.0389C352.707 66.5819 353.309 64.4807 354.114 62.6399L353.847 62.4686C349.7 68.4615 345.974 70.7719 342.637 70.1927C339.366 69.6123 337.774 65.5472 338.815 59.6312C340.74 48.8802 348.082 42.9189 356.988 44.5001C358.182 44.7211 359.289 45.0317 360.133 45.4129C362.586 43.345 363.774 43.28 364.891 44.1185C360.458 52.6251 358.391 59.0654 357.509 64.0104C356.967 66.9908 357.145 68.352 358.317 68.5734C359.731 68.8125 361.279 67.9269 362.085 67.3845C362.332 67.6663 362.382 68.0175 362.322 68.3486L362.344 68.3482ZM353.609 47.7507C349.034 46.9292 344.797 51.5373 343.514 58.734C342.731 63.061 343.636 65.6638 345.25 65.9654C348.344 66.5269 352.779 61.8933 356.33 53.4022C357.027 51.7175 357.872 49.656 357.872 49.656C356.865 48.7715 355.708 48.1097 353.608 47.7287L353.609 47.7507Z" fill="#75B733"/>
<path d="M372.892 53.0879C373.074 52.1384 372.757 51.6598 371.983 51.4975C370.811 51.2761 369.537 51.4746 368.268 52.0032C368.021 51.7215 367.993 51.3699 368.053 51.0387C368.397 49.2942 373.451 47.3124 376.436 47.8978C378.005 48.2002 378.62 49.3117 378.175 51.5642C377.649 54.2582 372.596 66.2748 372.071 68.9688C371.768 70.5366 372.111 71.2567 373.106 71.4372C374.521 71.7203 376.07 70.8567 376.898 70.314C377.123 70.596 377.173 70.9473 377.113 71.3004C376.729 73.2657 372.168 75.701 369.294 75.1355C367.326 74.7522 366.245 73.4289 366.913 70.0502C367.579 66.6274 372.49 55.2956 372.937 53.1091L372.892 53.0879ZM383.292 38.1601C382.827 40.5229 381.311 42.0241 378.769 41.5409C376.978 41.1984 376.098 40.0256 376.482 38.0603C377.008 35.4102 378.726 34.1256 381.069 34.5903C382.926 34.9536 383.655 36.2611 383.292 38.1821L383.292 38.1601Z" fill="#75B733"/>
<path d="M396.019 71.4727C391.948 76.7381 388.198 78.9829 384.881 78.2713C381.63 77.5805 380.169 73.4471 381.454 67.5928C383.755 56.9232 391.36 50.9352 400.206 52.8476C403.281 53.5195 405.528 54.7562 406.583 55.9039C402.798 63.6288 401.288 67.9247 400.413 72.0113C399.965 74.1318 399.659 77.9883 399.149 80.2859C396.869 90.9112 390.615 94.8287 382.565 93.1003C376.285 91.7588 373.097 88.3821 373.871 84.8035C374.379 82.3958 376.004 80.8707 378.23 80.8754C377.97 86.1395 380.4 89.0014 384.889 89.9784C389.379 90.9334 392.523 89.3374 394.219 81.8034C394.85 78.8874 395.266 75.007 396.041 71.4943L396.019 71.4727ZM396.695 56.1005C392.161 55.1243 387.725 59.6699 386.177 66.8272C385.24 71.1349 386.035 73.7616 387.65 74.1072C390.724 74.7791 395.316 70.3188 399.177 61.9543C399.942 60.3124 400.873 58.1613 400.873 58.1613C399.888 57.2545 398.774 56.5479 396.695 56.1005Z" fill="#75B733"/>
<path d="M413.092 60.2123C411.92 59.925 410.645 60.1015 409.353 60.5425C409.128 60.2604 409.099 59.8868 409.181 59.5552C409.592 57.8315 414.738 56.0681 417.681 56.7864C419.296 57.176 419.602 58.3149 419.048 60.5913C418.698 62.0279 417.533 64.6452 416.639 66.4215L416.884 66.5932C421.503 61.1641 425.513 58.6726 430.093 59.7801C432.704 60.4162 433.703 62.115 432.923 65.3417C432.266 68.06 427.482 77.8492 426.702 81.0759C426.332 82.6229 426.632 83.3438 427.627 83.5903C429.021 83.9178 430.616 83.1414 431.466 82.6422C431.691 82.9243 431.72 83.2979 431.638 83.6295C431.165 85.5744 426.512 87.8131 423.658 87.1153C421.711 86.6436 420.695 85.2751 421.495 81.9381C422.481 77.8715 427.306 69.1599 427.943 66.5519C428.436 64.4967 427.847 63.5828 426.387 63.2345C423.709 62.5776 420.33 65.8281 417.849 68.8208C414.785 72.4399 412.105 77.9007 411.201 82.8681L405.93 82.543C409.171 75.2018 413.182 65.2722 413.86 62.5094C414.25 60.8961 413.955 60.4172 413.115 60.212L413.092 60.2123Z" fill="#75B733"/>
<path d="M459.817 87.4888C455.434 92.4955 451.547 94.5007 448.293 93.5899C445.105 92.7 443.907 88.4959 445.523 82.7018C448.487 72.1745 456.454 66.6863 465.156 69.1514C468.189 70.0001 470.35 71.3923 471.319 72.6075C468.54 77.4099 465.913 83.332 463.425 89.6477L456.555 107.33L461.514 109.971C461.035 111.498 459.699 111.962 458.547 111.63C456.887 111.175 454.006 110.236 451.084 109.407C448.449 108.661 445.903 107.958 444.377 107.633C444.38 106.555 444.891 105.577 446.832 105.697L451.971 106.002L457.59 92.3694C458.479 90.3072 459.097 89.1079 460.041 87.6609L459.795 87.4671L459.817 87.4888ZM461.442 72.2098C456.97 70.9464 452.264 75.2107 450.274 82.2658C449.071 86.5122 449.691 89.164 451.307 89.6196C454.34 90.4683 459.202 86.3113 463.553 78.2022C464.428 76.6023 465.471 74.5153 465.471 74.5153C464.55 73.5413 463.457 72.7684 461.42 72.1882L461.442 72.2098Z" fill="#75B733"/>
<path d="M490.271 101.563C491.644 101.979 493.284 101.312 494.158 100.856C494.361 101.161 494.368 101.513 494.263 101.845C493.658 103.748 488.867 105.681 486.076 104.806C484.171 104.201 483.747 102.646 484.476 100.301C484.914 98.8848 485.781 96.8669 486.809 95.1543L486.563 94.9605C482.543 99.3887 478.079 102.328 473.493 100.891C470.768 100.037 469.871 97.8961 470.934 94.4663C472.414 89.7089 477.32 83.0424 478.341 79.7674C478.842 78.1962 478.569 77.6728 477.749 77.4232C476.597 77.0695 475.321 77.136 474.005 77.5114C473.802 77.2069 473.796 76.8549 473.9 76.523C474.421 74.8413 479.661 73.4064 482.563 74.3014C484.092 74.7805 484.578 76.1363 483.806 78.5926C482.91 81.4913 477.057 90.6172 476.055 93.7817C475.409 95.8617 475.452 97.0713 477.203 97.6125C481.522 98.9667 490.633 88.3748 493.182 79.2853C494.936 78.8142 496.632 78.8062 499.088 79.3791C495.333 85.1009 491.076 93.5385 490.012 96.9242C489.116 99.8228 489.096 101.188 490.248 101.541L490.271 101.563Z" fill="#75B733"/>
<path d="M506.432 107.241C509.091 108.141 512.233 107.645 514.705 106.633C514.974 106.915 514.98 107.267 514.812 107.71C513.744 110.853 508.46 112.311 503.473 110.595C498.264 108.816 496.35 105.241 498.885 97.8461C502.007 88.7464 510.592 83.3353 516.222 85.2825C519.968 86.5587 520.916 89.0727 519.868 92.15C518.444 96.3123 514.141 98.4129 503.535 97.918C501.757 103.297 503.196 106.154 506.454 107.263L506.432 107.241ZM514.781 92.2618C515.284 90.8006 515.051 88.8461 513.478 88.3018C510.928 87.4225 506.784 91.0387 504.57 95.413C511.972 95.3483 514.048 94.4314 514.803 92.2615L514.781 92.2618Z" fill="#75B733"/>
<path d="M539.823 98.0474C539.192 99.7751 537.24 100.272 535.824 99.9226C536.222 97.5169 535.156 95.7752 533.005 94.977C531.12 94.284 529.811 95.0334 529.18 96.739C528.655 98.1786 529.105 99.9312 530.749 103.225C532.898 107.632 533.754 109.95 532.808 112.519C530.894 117.681 525.665 118.477 521.518 116.944C517.438 115.432 515.591 113.175 516.6 110.429C517.273 108.613 518.753 107.574 520.65 107.717C520.305 110.65 521.454 113.314 524.248 114.343C526.177 115.057 527.752 114.413 528.426 112.641C528.952 111.245 528.523 109.382 526.332 105.086C524.12 100.855 524.134 99.1387 525.016 96.7245C526.677 92.2059 532.028 90.835 535.843 92.2421C539.501 93.5859 540.663 95.722 539.821 97.9815L539.823 98.0474Z" fill="#75B733"/>
<path d="M552.989 100.081C554.766 100.908 557.607 102.09 559.266 102.435C558.97 104.421 557.099 105.752 554.792 104.847C554.215 104.615 552.857 103.825 551.278 102.972C548.259 107.933 544.529 115.063 543.707 117.146C542.821 119.384 542.75 120.332 543.881 120.774C545.168 121.279 548.136 120.919 550.213 120.024C550.442 120.548 550.45 120.988 550.26 121.453C549.501 123.359 543.367 125.316 539.595 123.82C537.354 122.936 536.798 121.361 538.042 118.236C539.392 114.823 542.916 108.533 547.432 101.038L543.918 99.1631C544.026 97.7968 545.266 96.8727 548.995 98.4573L552.248 93.0303C553.673 92.6751 555.461 92.8195 556.903 93.3882L552.967 100.082L552.989 100.081Z" fill="#75B733"/>
</svg>
