<svg width="678" height="142" viewBox="0 0 678 142" fill="none" xmlns="http://www.w3.org/2000/svg">
<g clip-path="url(#clip0_5_9325)">
<path d="M4.75329 88.6568L9.45286 87.9765L18.606 55.6624L13.7088 54.7508C13.8319 52.7994 14.5776 52.0722 21.2664 52.658L41.5066 54.4016L39.6637 61.4964C39.2087 63.2317 38.3564 63.9371 35.5964 63.5215L36.6329 57.7048L24.4791 56.1013L20.3313 70.6313L30.7849 71.5218C31.5148 68.8544 32.3413 67.3926 34.3478 67.5653C34.9802 67.6056 35.5181 67.7748 35.8154 67.9936C34.8505 70.3462 33.8945 73.2442 33.0538 76.7093C32.4363 79.034 30.3886 79.6533 28.6343 78.702L29.9129 74.595L19.5586 73.6359L15.4406 88.1028L28.8618 89.817L32.4853 85.3096C34.2635 83.0738 35.5979 83.1487 36.9952 84.0074L31.8337 93.3099L2.97023 90.8324C2.77656 89.7255 3.44067 88.8531 4.75329 88.6568Z" fill="#69D6FE"/>
<path d="M47.806 70.1863C46.365 70.0895 44.8238 70.4862 43.3762 71.1787C43.0741 70.8996 42.9756 70.5434 43.0161 70.1762C43.2159 68.3096 49.1153 65.5915 52.8059 65.8415C54.8099 65.9841 55.3904 67.1206 55.0976 69.571C54.9083 71.1333 53.9547 74.0614 53.1717 76.0657L53.4988 76.2215C58.1557 69.7807 62.5754 66.4835 68.27 66.8761C71.5389 67.0992 73.0313 68.7086 72.6147 72.2307C72.2588 75.2018 68.1455 86.2404 67.7265 89.7324C67.5469 91.4152 68.0242 92.1354 69.2543 92.2187C70.9756 92.3233 72.7763 91.2384 73.7004 90.5576C74.0025 90.8367 74.101 91.1928 74.0605 91.5601C73.8106 93.6733 68.5726 96.7934 65.0235 96.5625C62.5978 96.393 61.1344 95.1453 61.5437 91.5328C62.0639 87.1227 66.4056 77.1882 66.7388 74.3706C66.9791 72.1368 66.1077 71.2966 64.3145 71.1674C60.9761 70.9499 57.4481 74.9036 54.9701 78.4393C51.8878 82.7213 49.588 88.9123 49.3165 94.2429L42.8908 94.7584C45.5892 86.5635 48.7251 75.5427 49.0762 72.5113C49.2857 70.7653 48.8302 70.3165 47.8108 70.2466L47.806 70.1863Z" fill="#69D6FE"/>
<path d="M83.9974 72.5008C82.5217 72.4069 81.0523 72.8281 79.57 73.5234C79.2356 73.2772 79.1347 72.891 79.1752 72.5237C79.375 70.6571 85.2348 67.8815 88.8858 68.074C90.8179 68.192 91.7087 69.2733 91.4482 71.6908C90.9465 76.7668 86.9321 90.3457 85.4815 94.9214C81.4631 108.015 76.0698 113.12 68.0288 112.673C64.2017 112.464 62.799 110.665 62.9939 108.739C63.1331 107.423 64.0316 105.986 65.6504 105.249C66.9659 107.267 68.8388 108.391 71.4729 108.544C75.161 108.764 77.1267 105.815 79.608 97.0915C81.1121 91.8743 84.9488 77.8243 85.3412 74.0008C85.4327 72.9621 85.0119 72.5105 84.0297 72.4679L83.9974 72.5008ZM95.8941 56.9548C95.6432 59.4928 94.0048 61.2928 90.8797 61.1188C88.6673 60.9929 87.4591 59.8764 87.6396 57.7687C87.9357 54.9237 89.8366 53.3454 92.7509 53.506C95.0328 53.6263 96.1141 54.9047 95.8941 56.9548Z" fill="#69D6FE"/>
<path d="M122.599 81.3263C121.654 92.2017 113.26 99.1243 104.805 98.7409C98.2788 98.4453 95.1583 94.843 95.8567 86.9906C96.7615 76.4824 104.722 68.9575 113.175 69.3108C119.912 69.6198 123.277 73.6575 122.599 81.3263ZM116.782 82.4603C117.219 77.4501 115.908 73.3083 111.592 73.1085C106.54 72.8767 102.099 78.0868 101.39 86.2434C100.922 91.7414 102.926 94.4929 107.137 94.7011C112.47 94.9407 116.15 89.3973 116.747 82.4631L116.782 82.4603Z" fill="#69D6FE"/>
<path d="M147.267 90.3286L146.942 90.2029C143.48 95.8502 139.1 100.085 133.247 99.8867C129.777 99.7707 128.084 97.8437 128.337 94.0314C128.683 88.7555 132.537 80.5893 132.771 76.9606C132.874 75.1928 132.421 74.7741 131.404 74.7344C129.933 74.7007 128.463 75.1219 127.021 75.8747C126.686 75.6285 126.585 75.2423 126.593 74.9079C126.721 73.0168 132.502 70.1262 136.183 70.2556C138.145 70.3105 139.085 71.5699 138.918 74.2832C138.686 77.4871 134.461 88.4436 134.218 91.9518C134.052 94.2403 134.466 95.4812 136.674 95.5468C142.175 95.7121 149.845 82.386 150.196 72.3773C152.145 71.4019 154.136 70.9389 157.204 70.8444C153.769 80.3118 151.288 91.2194 150.389 99.1789C148.887 112.708 140.868 116.021 132.807 115.757C125.026 115.502 120.562 112.584 120.811 108.711C120.987 106.118 122.653 104.225 125.313 103.83C125.966 109.359 129.422 111.903 134.995 112.093C140.568 112.283 144.058 110.031 144.695 101.85C145.102 96.9031 145.664 93.8851 147.304 90.3559L147.267 90.3286Z" fill="#69D6FE"/>
<path d="M184.083 72.5411C186.436 72.686 190.187 72.8098 192.229 72.555C192.673 74.6125 191.054 76.6535 188.08 76.6191C187.311 76.6201 185.436 76.3458 183.316 76.0609C181.843 82.0946 180.389 90.5536 180.3 92.927C180.188 95.4539 180.476 96.4318 181.947 96.4655C183.626 96.4825 186.901 95.0366 188.934 93.3568C189.387 93.7755 189.597 94.2137 189.571 94.7618C189.464 96.9242 183.195 101.128 178.261 101.069C175.322 101.032 174.094 99.674 174.26 96.0811C174.44 92.214 176.001 84.6565 178.17 75.5333L173.406 74.9751C172.98 73.5835 174.022 72.1954 178.968 72.4054L180.537 65.8179C182.039 64.939 184.166 64.4347 186.022 64.4678L184.189 72.5629L184.083 72.5411Z" fill="#69D6FE"/>
<path d="M200.758 61.2227C200.832 59.0932 200.29 58.439 199.03 58.4187C197.981 58.4119 195.753 58.5299 194.423 58.5152C194.203 58.3813 194.079 58.1485 194.095 57.9046C194.121 57.3564 194.471 56.9339 195.318 56.593C196.939 55.8865 203.476 54.5734 205.12 54.5932C206.589 54.5967 206.971 55.4457 206.887 57.8794C206.774 60.831 203.487 76.5054 202.261 81.7002L202.595 81.9464C206.707 75.246 210.862 71.6971 216.562 71.7252C219.849 71.7345 221.441 73.2753 221.337 76.7723C221.224 79.7239 218.001 90.9641 217.899 94.4912C217.826 96.1959 218.368 96.8502 219.628 96.8704C221.377 96.8818 223.064 95.6847 223.948 94.9464C224.283 95.1926 224.416 95.5459 224.41 95.9104C224.336 98.0399 219.366 101.442 215.799 101.425C213.35 101.409 211.79 100.26 211.917 96.6093C212.052 92.1997 215.608 82.0553 215.693 79.1968C215.757 76.9468 214.821 76.1725 213.003 76.1667C209.647 76.1629 206.448 80.3025 204.263 83.9968C201.545 88.4619 199.741 94.7345 199.889 100.062L193.812 101.004C196.361 89.6362 200.579 65.0897 200.721 61.1953L200.758 61.2227Z" fill="#69D6FE"/>
<path d="M240.229 97.0075C243.652 96.9756 247.091 95.3953 249.56 93.4983C249.959 93.6787 250.093 94.032 250.097 94.5171C250.03 98.0414 244.491 101.337 238.062 101.368C231.389 101.418 227.801 98.5203 227.939 90.2274C228.102 80.0518 235.992 71.6528 243.226 71.6186C248.048 71.5957 250.075 73.769 250.036 77.2001C249.954 81.8481 245.769 85.4601 233.338 88.6719C233.293 94.6517 236.034 97.0104 240.226 96.9774L240.229 97.0075ZM244.212 79.1234C244.255 77.4818 243.232 75.6224 241.206 75.6333C237.921 75.6541 234.515 80.6901 233.567 85.8626C242.093 83.2068 244.163 81.5543 244.212 79.1234Z" fill="#69D6FE"/>
<path d="M288.237 75.3793C288.257 77.8046 286.506 79.9473 283.166 80.5793C283.144 76.8194 282.183 74.8639 279.81 74.9027C275.761 74.9848 271.74 81.0712 271.765 87.9251C271.782 94.2337 274.796 96.5098 278.984 96.4165C281.916 96.3633 284.955 95.0274 287.136 93.457C287.57 93.6345 287.703 93.9879 287.707 94.4729C287.73 97.3833 282.787 100.692 276.576 100.826C270.434 100.955 266.463 98.0883 266.433 89.8697C266.385 80.9852 272.557 71.2072 281.909 71.003C286.654 70.8953 288.269 73.1623 288.275 75.4067L288.237 75.3793Z" fill="#69D6FE"/>
<path d="M321.778 93.8934C321.809 96.0145 316.994 99.6164 313.474 99.7471C311.033 99.8216 309.976 98.4199 309.907 95.8165C309.886 94.2408 310.121 91.9467 310.617 89.8441L310.26 89.7514C306.708 96.8923 302.807 100.118 298.693 100.265C294.65 100.408 291.79 96.5722 291.665 90.2117C291.436 78.6418 298.814 70.8299 309.831 70.4618C311.295 70.405 312.698 70.4744 313.799 70.6894C316.241 68.006 317.645 67.6506 319.197 68.2542C315.893 78.0448 314.925 85.1604 315.038 90.4905C315.086 93.7022 315.617 95.0855 317.08 95.0287C318.824 94.9798 320.469 93.6951 321.282 92.9322C321.648 93.1455 321.784 93.5289 321.778 93.8934ZM306.56 74.5768C300.912 74.7569 296.931 80.4761 297.064 88.2315C297.158 92.8956 298.79 95.3736 300.812 95.3024C304.647 95.1767 308.869 89.4079 311.106 79.8243C311.549 77.9382 312.063 75.6219 312.063 75.6219C310.645 74.9468 309.108 74.5241 306.528 74.6097L306.56 74.5768Z" fill="#69D6FE"/>
<path d="M327.782 74.1784C326.321 74.2653 324.896 74.8043 323.533 75.6721C323.166 75.4588 323.033 75.1055 323.004 74.7438C322.923 72.8694 328.35 69.4914 332.039 69.2865C334.059 69.1851 334.806 70.2173 334.9 72.6973C334.956 74.2703 334.461 77.2526 334 79.3524L334.357 79.4451C337.964 72.5425 341.506 68.7697 347.18 68.4662C350.452 68.2947 352.049 69.8958 352.225 73.4006C352.281 74.9736 351.979 77.3034 351.612 78.3945L351.969 78.4873C355.575 71.5847 359.118 67.8119 364.791 67.5084C368.063 67.3369 369.784 68.7459 369.961 72.2508C370.094 75.213 367.721 86.5974 367.897 90.1022C367.963 91.7957 368.572 92.4143 369.827 92.3742C371.569 92.2952 373.176 90.9831 373.989 90.2202C374.356 90.4335 374.489 90.7868 374.518 91.1485C374.618 93.264 369.88 96.9508 366.33 97.1446C363.894 97.2793 362.234 96.199 362.083 92.5709C361.903 88.1562 364.641 77.8347 364.518 74.993C364.408 72.7569 363.405 72.0183 361.597 72.133C358.255 72.3101 355.733 76.6078 353.803 80.4333C351.412 85.0542 350.104 91.4083 350.668 96.7022L344.375 97.9958C345.762 89.5725 347.153 79.0253 347.036 75.8191C346.941 73.7639 345.794 72.9761 343.983 73.0607C340.641 73.2378 338.119 77.5355 336.189 81.361C333.798 85.9818 332.49 92.336 333.055 97.6298L326.761 98.9235C328.148 90.5001 329.516 79.2268 329.378 76.2042C329.307 74.4504 328.787 74.0674 327.743 74.1209L327.782 74.1784Z" fill="#69D6FE"/>
<path d="M387.415 76.311C390.02 70.4293 394.621 65.4794 399.07 65.1528C403.518 64.8263 405.79 68.3147 406.243 74.8309C407.024 85.8713 400.402 94.8359 389.977 95.6116C388.657 95.7174 387.4 95.7273 386.279 95.6959L385.575 107.401L394.027 108.179C394.222 109.741 393.223 110.792 391.345 110.913C389.191 111.085 385.845 111.202 380.63 111.56C377.434 111.816 374.031 112.089 372.646 112.261C372.003 111.22 372.562 109.902 374.55 109.408L379.888 107.979C380.967 97.4569 382.653 77.0874 382.413 73.2237C382.273 71.4754 381.788 71.0897 380.746 71.1733C379.287 71.2903 377.864 71.8595 376.538 72.7546C376.171 72.5413 376.003 72.1908 375.974 71.8291C375.824 69.9603 381.172 66.4673 384.856 66.2021C386.871 66.0405 387.655 67.1 387.819 69.5744C387.944 71.1418 387.521 74.1487 387.095 76.2457L387.452 76.3384L387.415 76.311ZM386.466 91.4945C388.316 91.8922 389.861 91.9806 391.736 91.8301C397.574 91.3921 401.15 83.673 400.697 77.1567C400.335 72.2106 399.199 69.8142 396.835 69.9736C392.736 70.3024 387.175 79.8493 386.464 91.4644L386.466 91.4945Z" fill="#69D6FE"/>
<path d="M442.037 85.7014C442.207 87.8114 437.692 91.6622 434.151 91.9766C431.72 92.1717 430.564 90.8386 430.321 88.2491C430.196 86.6818 430.255 84.3715 430.612 82.28L430.255 82.1873C427.206 89.5002 423.53 92.9197 419.434 93.2786C415.407 93.632 412.282 89.9694 411.705 83.6451C410.642 72.142 417.466 63.9499 428.434 62.979C429.893 62.862 431.289 62.8409 432.42 62.9929C434.676 60.1727 436.041 59.7598 437.62 60.2702C435.027 70.2161 434.551 77.3529 435.046 82.6523C435.337 85.8446 435.969 87.1893 437.428 87.0723C439.165 86.933 440.733 85.5634 441.474 84.7759C441.84 84.9892 442.008 85.3397 442.037 85.7014ZM425.424 67.2855C419.802 67.7972 416.22 73.6967 416.908 81.4075C417.35 86.0438 419.151 88.4475 421.163 88.2558C424.982 87.9191 428.767 81.9426 430.332 72.2612C430.634 70.3562 431.006 68.0208 431.006 68.0208C429.558 67.4089 427.994 67.0793 425.426 67.3157L425.424 67.2855Z" fill="#69D6FE"/>
<path d="M448.952 66.8847C448.87 65.8599 448.315 65.4797 447.345 65.5879C445.889 65.7351 444.471 66.3645 443.182 67.287C442.815 67.0737 442.647 66.7232 442.584 66.3643C442.399 64.4982 447.596 60.8657 451.273 60.5101C453.215 60.3239 454.302 61.2378 454.565 63.6436C454.867 66.5316 453.137 80.2609 453.473 83.1462C453.643 84.8314 454.287 85.4471 455.535 85.3167C457.269 85.1472 458.802 83.7804 459.541 82.9628C459.908 83.1761 460.076 83.5266 460.139 83.8855C460.378 85.9899 455.902 89.8983 452.367 90.2729C449.94 90.5282 448.218 89.544 447.824 85.9353C447.425 82.2663 449.248 69.2576 448.99 66.9121L448.952 66.8847ZM455.936 48.4869C456.209 51.0133 454.972 53.0237 451.851 53.3347C449.632 53.5734 448.198 52.6873 447.994 50.5802C447.697 47.7524 449.227 45.9006 452.139 45.6062C454.427 45.362 455.739 46.4702 455.971 48.4841L455.936 48.4869Z" fill="#69D6FE"/>
<path d="M481.996 77.4602C479.318 84.167 475.828 87.7232 471.742 88.2028C467.722 88.6466 464.465 85.0855 463.68 78.778C462.235 67.3055 468.742 58.6535 479.689 57.4112C483.5 56.9842 486.575 57.4049 488.213 58.2139C486.807 67.2757 486.738 72.0744 487.265 76.4612C487.553 78.7436 488.673 82.6884 488.976 85.1517C490.415 96.5639 484.72 102.694 474.743 103.828C466.985 104.723 462.016 102.483 461.533 98.6383C461.22 96.0544 462.485 93.9508 465.044 93.1691C466.767 98.5217 470.667 100.514 476.207 99.8576C481.75 99.2309 484.782 96.5001 483.817 88.3868C483.426 85.2632 482.44 81.247 481.962 77.463L481.996 77.4602ZM476.904 61.912C471.291 62.5443 467.903 68.671 468.869 76.3595C469.45 80.9846 471.35 83.3198 473.36 83.0979C477.171 82.6708 480.773 76.5876 481.986 66.8738C482.253 64.9715 482.509 62.4938 482.509 62.4938C481.031 61.9449 479.432 61.6182 476.904 61.912Z" fill="#69D6FE"/>
<path d="M496.092 60.1298C494.638 60.3071 493.26 60.9941 492.008 61.9439C491.643 61.7608 491.441 61.413 491.377 61.0541C491.088 59.1965 496.169 55.4216 499.836 54.9454C501.843 54.6933 502.69 55.6569 503.062 58.1146C503.291 59.6736 503.114 62.6911 502.864 64.8043L503.219 64.8669C506.106 57.7186 509.555 53.65 515.227 52.8916C518.477 52.4488 520.365 53.7535 520.886 57.2003C521.332 60.1375 520.157 71.6381 520.68 75.1151C520.92 76.7947 521.596 77.3775 522.842 77.2169C524.571 76.9871 526.03 75.5656 526.768 74.748C527.133 74.9311 527.335 75.2789 527.399 75.6378C527.707 77.7366 523.383 81.7845 519.854 82.2496C517.433 82.5652 515.681 81.644 515.148 78.0465C514.482 73.6708 516.158 63.1918 515.76 60.4025C515.442 58.1831 514.342 57.5433 512.543 57.7786C509.223 58.227 506.825 62.7574 505.286 66.6729C503.396 71.4356 502.723 77.8601 503.876 83.0765L497.727 84.8741C498.201 76.4027 498.411 65.0706 497.961 62.0731C497.682 60.336 497.164 59.9832 496.127 60.127L496.092 60.1298Z" fill="#69D6FE"/>
<path d="M560.231 66.5727C557.944 73.3694 554.677 77.0898 550.638 77.7172C546.633 78.3419 543.177 74.9181 542.046 68.6686C539.947 57.3093 545.943 48.3949 556.779 46.6458C560.541 46.0406 563.641 46.338 565.341 47.051C564.729 52.9247 564.856 59.7401 565.325 66.8921L566.755 86.8901L573.588 87.1003C573.828 88.7799 572.617 89.8174 571.168 90.055C569.096 90.3729 565.429 90.8491 561.804 91.413C558.491 91.9518 555.35 92.4465 553.494 92.8381C552.957 91.8193 553.002 90.6327 555.214 89.8788L561.057 87.7719L560.298 72.2098C560.212 69.8202 560.309 68.4169 560.615 66.5722L560.261 66.5096L560.231 66.5727ZM554.215 51.2806C548.657 52.1512 545.627 58.4008 547.043 66.0229C547.899 70.5956 549.933 72.8593 551.936 72.5469C555.732 71.939 558.94 65.7358 559.627 56.0035C559.753 54.0822 559.87 51.6157 559.87 51.6157C558.363 51.1299 556.771 50.8935 554.215 51.2806Z" fill="#69D6FE"/>
<path d="M600.618 64.5461C602.34 64.226 603.725 62.7498 604.391 61.9076C604.79 62.0879 604.991 62.4055 605.054 62.7644C605.502 64.8521 601.437 69.0915 597.921 69.7073C595.509 70.1435 594.184 68.8846 593.666 66.3476C593.332 64.797 593.148 62.5062 593.259 60.4041L592.905 60.3415C591.094 66.5237 587.963 71.5073 582.208 72.5453C578.796 73.1527 576.611 71.6292 575.823 67.9004C574.71 62.7416 576.214 54.0359 575.475 50.4852C575.126 48.7537 574.541 48.4365 573.506 48.6106C572.06 48.8783 570.719 49.5926 569.543 50.6273C569.144 50.447 568.944 50.1293 568.88 49.7704C568.487 47.9211 573.34 43.9218 576.958 43.2676C578.889 42.9307 580.157 43.921 580.721 46.6059C581.392 49.7374 580.284 61.2023 581.014 64.6324C581.473 66.8708 582.228 67.9934 584.396 67.5767C589.806 66.5966 593.611 52.1548 591.188 42.4293C592.828 41.0843 594.646 40.2104 597.594 39.4885C596.775 46.7135 596.983 56.7077 597.767 60.3762C598.437 63.5077 599.204 64.781 600.653 64.5434L600.618 64.5461Z" fill="#69D6FE"/>
<path d="M620.872 60.7981C624.21 60.136 627.179 57.926 629.126 55.6159C629.587 55.7002 629.79 56.048 629.898 56.5247C630.732 59.9465 626.109 64.2003 619.813 65.4638C613.277 66.7769 609.052 64.6586 607.109 56.5631C604.741 46.6512 610.327 36.9809 617.414 35.5629C622.127 34.6085 624.678 36.3453 625.473 39.7095C626.572 44.2628 623.385 48.5531 611.976 54.0491C613.457 59.8762 616.708 61.6175 620.803 60.8037L620.872 60.7981ZM620.327 42.6706C619.953 41.0624 618.495 39.4502 616.5 39.853C613.301 40.504 611.194 46.0425 611.575 51.2297C619.278 47.0321 620.868 45.0541 620.327 42.6706Z" fill="#69D6FE"/>
<path d="M648.726 33.2629C649.226 35.134 647.573 36.753 645.902 37.2814C644.699 34.9207 642.464 34.0687 639.749 34.6505C637.379 35.1743 636.515 36.6087 637.015 38.4798C637.421 40.0551 639.06 41.319 642.918 43.224C648.05 45.7549 650.446 47.2918 651.197 50.1135C652.698 55.7569 647.868 59.6027 642.644 60.7195C637.49 61.8308 634.101 60.9802 633.301 57.9805C632.791 55.9888 633.591 54.1955 635.642 53.1815C637.227 55.9364 640.19 57.5795 643.694 56.813C646.134 56.2836 647.307 54.7939 646.8 52.8324C646.399 51.3175 644.75 49.933 639.66 47.4897C634.575 45.1068 633.477 43.6174 632.775 40.9738C631.471 36.0427 635.977 31.6464 640.821 30.5904C645.425 29.5841 648.037 30.77 648.689 33.2355L648.726 33.2629Z" fill="#69D6FE"/>
<path d="M662.167 26.9365C664.509 26.5059 668.152 25.7282 670.049 24.9693C671.141 26.8232 670.246 29.1702 667.33 29.8592C666.575 30.0411 664.702 30.2217 662.521 30.4877C663.012 36.6065 664.386 45.0207 665.024 47.3054C665.711 49.7681 666.339 50.6278 667.744 50.2724C669.357 49.9003 672.048 47.7126 673.489 45.6252C674.071 45.9122 674.415 46.279 674.563 46.8132C675.151 48.9198 670.491 54.4508 665.687 55.5643C662.84 56.2477 661.188 55.2578 660.212 51.8171C659.144 48.0805 658.187 40.5126 657.378 31.2947L652.569 31.9231C651.701 30.6883 652.275 29.1255 657.086 28.1024L656.483 21.4466C657.643 20.231 659.521 19.231 661.34 18.8121L662.169 26.9666L662.167 26.9365Z" fill="#69D6FE"/>
</g>
<defs>
<clipPath id="clip0_5_9325">
<rect width="672.997" height="88.2067" fill="white" transform="translate(6.10352e-05 53.8179) rotate(-4.58669)"/>
</clipPath>
</defs>
</svg>
