<svg width="105" height="48" viewBox="0 0 105 48" fill="none" xmlns="http://www.w3.org/2000/svg">
<path d="M2.09269 8.68V1.24H24.8927V8.392H10.6847V8.68H12.1247V10.6H13.5647V12.04H11.1647V13.96H10.6847V14.92H12.6047V15.88H10.6847V16.216H22.8767V18.28H22.3967V18.76H22.8767V19.24H20.9567V20.2H22.8767V20.68H25.7567V21.64H22.8767V23.368H10.6847V24.52H11.1647V25H10.6847V30.28H9.72469V31.72H13.5647V33.64H10.6847V35.56H13.0847V36.52H10.6847V37H2.09269V36.52H4.49269V35.56H2.09269V33.64H4.97269V31.72H1.13269V30.28H2.09269V25H2.57269V24.52H2.09269V21.64H4.97269V20.68H2.09269V20.2H0.172688V19.24H2.09269V18.76H1.61269V18.28H2.09269V15.88H4.01269V14.92H2.09269V13.96H2.57269V12.04H4.97269V10.6H3.53269V8.68H2.09269ZM42.9654 21.64L42.8214 22.168H50.1174L49.9734 21.64H52.8534L52.6134 20.68H49.7334L49.5894 20.2H47.6694L47.4294 19.24H49.3494V19.144C49.3014 19 49.3014 18.904 49.2534 18.76H48.7734C48.7254 18.616 48.6774 18.424 48.6294 18.28H49.1094C48.9174 17.512 48.7254 16.696 48.5334 15.88H50.4534C50.3574 15.544 50.3094 15.256 50.2134 14.92H48.2934C48.1974 14.584 48.1494 14.296 48.0534 13.96H48.5334C48.3894 13.336 48.2454 12.664 48.0534 12.04H50.4534C50.3574 11.56 50.2134 11.08 50.1174 10.6H48.6774C48.5334 9.928 48.3414 9.304 48.1974 8.68H46.7574C46.6614 8.344 46.6134 8.008 46.5174 7.672H46.3254C46.2294 8.008 46.1814 8.344 46.0854 8.68H47.5254C47.3814 9.304 47.2374 9.928 47.0934 10.6H48.5334C48.4374 11.08 48.2934 11.56 48.1974 12.04H45.7974C45.6534 12.664 45.5094 13.336 45.3654 13.96H44.8854C44.7894 14.296 44.7414 14.584 44.6454 14.92H46.5654C46.4694 15.256 46.4214 15.544 46.3254 15.88H44.4054C44.2134 16.696 44.0214 17.512 43.8294 18.28H43.3494C43.3014 18.424 43.2534 18.616 43.2054 18.76H43.6854C43.6374 18.904 43.6374 19 43.5894 19.144V19.24H41.6694L41.4294 20.2H43.3494L43.2054 20.68H46.0854L45.8454 21.64H42.9654ZM39.1254 8.68L41.4774 1.24H51.7494L54.1014 8.68H55.5414L56.1654 10.6H57.6054L58.0374 12.04H55.6374L56.2614 13.96H55.7814L56.0694 14.92H57.9894L58.2774 15.88H56.3574L57.1254 18.28H56.6454L56.7894 18.76H57.2694L57.4134 19.24H55.4934L55.7814 20.2H57.7014L57.8454 20.68H60.7254L61.0134 21.64H58.1334L59.0454 24.52H59.5254L59.6694 25H59.1894L60.8214 30.28H59.8614L60.2934 31.72H64.1334L64.7094 33.64H61.8294L62.4054 35.56H64.8054L65.0934 36.52H62.6934L62.8374 37H53.8134L53.6694 36.52H56.0694L55.8294 35.56H53.4294L52.9494 33.64H55.8294L55.3494 31.72H51.5094L51.1734 30.28H52.1334L51.7494 28.792H41.1894L40.8054 30.28H39.8454L39.5094 31.72H43.3494L42.8694 33.64H39.9894L39.5094 35.56H41.9094L41.6694 36.52H39.2694L39.1254 37H30.3894L30.5334 36.52H32.9334L33.2214 35.56H30.8214L31.3974 33.64H34.2774L34.8534 31.72H31.0134L31.4454 30.28H32.4054L34.0374 25H34.5174L34.6614 24.52H34.1814L35.0934 21.64H37.9734L38.2614 20.68H35.3814L35.5254 20.2H33.6054L33.8934 19.24H35.8134L35.9574 18.76H35.4774L35.6214 18.28H36.1014L36.8694 15.88H38.7894L39.0774 14.92H37.1574L37.4454 13.96H37.9254L38.5494 12.04H40.9494L41.3814 10.6H39.9414L40.5654 8.68H39.1254ZM92.7969 19.24C92.7969 19.144 92.7969 19.048 92.7969 18.952C92.7969 18.904 92.7969 18.808 92.7969 18.76H92.3169C92.3169 18.616 92.3169 18.424 92.3169 18.28H92.7969C92.7489 17.416 92.7009 16.648 92.6049 15.88H94.5249C94.4769 15.544 94.4289 15.256 94.3329 14.92H92.4129C92.3649 14.584 92.2689 14.296 92.1729 13.96H92.6529C92.4609 13.288 92.2209 12.616 91.9329 12.04H94.3329C94.0929 11.512 93.8049 11.032 93.4689 10.6H92.0289C91.4049 9.784 90.6369 9.112 89.7729 8.68H88.3329C87.4209 8.2 86.3169 7.96 85.1649 7.96C84.0129 7.96 82.9569 8.2 81.9969 8.68H83.4369C82.6209 9.112 81.8529 9.784 81.2289 10.6H82.6689C82.3329 11.032 82.0449 11.512 81.8049 12.04H79.4049C79.1169 12.616 78.8769 13.288 78.6849 13.96H78.2049C78.1089 14.296 78.0129 14.584 77.9649 14.92H79.8849C79.7889 15.256 79.7409 15.544 79.6929 15.88H77.7729C77.6769 16.648 77.6289 17.416 77.5809 18.28H77.1009C77.1009 18.424 77.1009 18.616 77.1009 18.76H77.5809C77.5809 18.808 77.5809 18.904 77.5809 18.952C77.5809 19.048 77.5809 19.144 77.5809 19.24H75.6609C75.6609 19.576 75.6609 19.912 75.6609 20.2H77.5809C77.6289 20.344 77.6289 20.536 77.6289 20.68H80.5089C80.5569 21.016 80.5569 21.304 80.6049 21.64H77.7249C77.8209 22.696 78.0129 23.656 78.2529 24.52H78.7329C78.7809 24.664 78.8289 24.856 78.8769 25H78.3969C79.2609 27.736 80.7969 29.56 82.8609 30.28H81.9009C82.6209 30.52 83.3889 30.664 84.2049 30.664C85.0209 30.664 85.7889 30.52 86.5089 30.28H87.4689C89.5329 29.56 91.0689 27.736 91.9809 25H92.4609C92.5089 24.856 92.5569 24.664 92.6049 24.52H92.1249C92.3649 23.656 92.5569 22.696 92.6529 21.64H95.5329C95.5809 21.304 95.5809 21.016 95.6289 20.68H92.7489C92.7489 20.536 92.7489 20.344 92.7969 20.2H90.8769C90.8769 19.912 90.8769 19.576 90.8769 19.24H92.7969ZM81.3729 37.48C81.3249 37.432 81.3249 37.336 81.2769 37.288C80.4129 37.096 79.5489 36.856 78.7809 36.52H81.1809C80.5089 36.232 79.8369 35.944 79.2129 35.56H76.8129C75.9009 35.032 75.0369 34.36 74.2209 33.64H77.1009C76.4769 33.064 75.9009 32.392 75.3729 31.72H71.5329C71.1969 31.24 70.8609 30.76 70.5729 30.28H71.5329C70.6209 28.744 69.9489 26.968 69.4689 25H69.9489C69.9009 24.856 69.8529 24.664 69.8529 24.52H69.3729C69.1809 23.608 69.0369 22.648 68.9409 21.64H71.8209C71.7729 21.304 71.7729 21.016 71.7249 20.68H68.8449C68.8449 20.536 68.8449 20.344 68.7969 20.2H66.8769C66.8769 19.864 66.8769 19.576 66.8769 19.24H68.7969C68.7969 19.144 68.7969 19.048 68.7969 18.952C68.7969 18.904 68.7969 18.808 68.7969 18.76H68.3169C68.3169 18.616 68.3169 18.424 68.3169 18.28H68.7969C68.7969 17.464 68.8449 16.648 68.9409 15.88H70.8609C70.9089 15.544 70.9569 15.256 71.0049 14.92H69.0849C69.1329 14.584 69.1809 14.248 69.2289 13.96H69.7089C69.8529 13.288 69.9969 12.664 70.1889 12.04H72.5889C72.7329 11.56 72.8769 11.08 73.0689 10.6H71.6289C71.8689 9.928 72.1569 9.304 72.4929 8.68H71.0529C73.2129 4.552 76.7649 1.912 81.2769 0.999997H82.2369C83.4849 0.759997 84.7809 0.615999 86.1249 0.615999C87.4689 0.615999 88.7649 0.759997 90.0129 0.999997H89.0529C93.5649 1.912 97.1169 4.552 99.2769 8.68H100.717C101.053 9.304 101.341 9.928 101.581 10.6H103.021C103.213 11.08 103.357 11.56 103.501 12.04H101.101C101.293 12.664 101.437 13.288 101.581 13.96H101.101C101.149 14.248 101.197 14.584 101.245 14.92H103.165C103.213 15.208 103.261 15.544 103.309 15.88H101.389C101.485 16.648 101.533 17.464 101.533 18.28H101.053C101.053 18.424 101.053 18.616 101.053 18.76H101.533C101.533 18.808 101.533 18.904 101.533 18.952C101.533 19.048 101.533 19.144 101.533 19.24H99.6129C99.6129 19.576 99.6129 19.864 99.6129 20.2H101.533C101.485 20.344 101.485 20.536 101.485 20.68H104.365C104.317 21.016 104.317 21.304 104.269 21.64H101.389C101.293 22.648 101.149 23.608 100.957 24.52H101.437C101.437 24.664 101.389 24.856 101.341 25H100.861C100.381 26.968 99.7089 28.744 98.7969 30.28H97.8369C97.5489 30.76 97.2129 31.24 96.8769 31.72H100.717C100.189 32.392 99.6129 33.064 98.9889 33.64H96.1089C95.2929 34.36 94.4289 35.032 93.5169 35.56H95.9169C95.2929 35.944 94.6209 36.232 93.9489 36.52H91.5489C91.1169 36.664 90.7329 36.808 90.3009 36.952C90.3969 37.144 90.5409 37.336 90.6849 37.48H89.7249C90.2049 38.056 90.8289 38.536 91.4529 38.92H92.4129C94.0449 39.928 96.1089 40.312 98.0289 40.312C99.5649 40.312 100.957 40.024 102.061 39.64L102.349 40.84H103.789L103.933 41.32H102.493L103.597 45.88C102.205 46.6 99.9009 47.08 97.0689 47.08C91.3089 47.08 86.7969 44.824 83.8209 41.32H85.2609C85.1169 41.176 85.0209 40.984 84.8769 40.84H83.4369C82.9569 40.264 82.5249 39.592 82.0929 38.92H81.1329C80.8929 38.44 80.6049 37.96 80.4129 37.48H81.3729Z" fill="white"/>
</svg>
