<svg width="124" height="90" viewBox="0 0 124 90" fill="none" xmlns="http://www.w3.org/2000/svg">
<path d="M29.3373 73.1499C38.0097 73.1499 42.7617 67.4475 42.7617 60.3195V29.5503C42.7617 21.3531 38.1285 16.0071 29.5749 16.0071C20.9025 16.0071 16.1505 21.9471 16.1505 29.5503V60.2007C16.1505 67.8039 20.6649 73.1499 29.3373 73.1499ZM29.4561 89.1879C10.5669 89.1879 -0.00634766 77.5455 -0.00634766 60.9135V29.0751C-0.00634766 12.5619 11.9925 0.0878906 29.4561 0.0878906C47.3949 0.0878906 58.9185 13.0371 58.9185 28.9563V60.9135C58.9185 77.9019 48.1077 89.1879 29.4561 89.1879Z" fill="white"/>
<path d="M67.4591 87.9999V72.7935C67.4591 57.8247 79.4579 49.1523 90.2687 41.7867C98.8223 35.7279 106.663 30.9759 106.663 24.3231C106.663 18.6207 102.505 13.9875 94.7831 13.9875C87.1799 13.9875 82.5467 19.0959 79.5767 26.3427L65.6771 19.3335C71.0231 7.45349 80.6459 0.0878906 94.9019 0.0878906C112.484 0.0878906 123.057 10.7799 123.057 24.4419C123.057 38.1039 111.89 45.8259 101.436 52.8351C92.5259 58.8939 83.6159 64.3587 83.6159 72.5559H122.701V87.9999H67.4591Z" fill="white"/>
</svg>
