<svg width="95" height="90" viewBox="0 0 95 90" fill="none" xmlns="http://www.w3.org/2000/svg">
<path d="M29.7005 73.1499C38.3729 73.1499 43.1249 67.4475 43.1249 60.3195V29.5503C43.1249 21.3531 38.4917 16.0071 29.9381 16.0071C21.2657 16.0071 16.5137 21.9471 16.5137 29.5503V60.2007C16.5137 67.8039 21.0281 73.1499 29.7005 73.1499ZM29.8193 89.1879C10.9301 89.1879 0.356934 77.5455 0.356934 60.9135V29.0751C0.356934 12.5619 12.3557 0.0878906 29.8193 0.0878906C47.7581 0.0878906 59.2817 13.0371 59.2817 28.9563V60.9135C59.2817 77.9019 48.4709 89.1879 29.8193 89.1879Z" fill="white"/>
<path d="M94.4335 87.9999H78.2767V16.3635H67.7035V1.27589H94.4335V87.9999Z" fill="white"/>
</svg>
