<svg width="2329" height="111" viewBox="0 0 2329 111" fill="none" xmlns="http://www.w3.org/2000/svg">
<mask id="path-1-outside-1_2001_2" maskUnits="userSpaceOnUse" x="0.560059" y="0.400024" width="2328" height="111" fill="black">
<rect fill="white" x="0.560059" y="0.400024" width="2328" height="111"/>
<path d="M17.8101 108V18.56H1.56006V2.70002H55.3801V18.56H39.3901V108H17.8101Z"/>
<path d="M65.192 108V2.70002H86.642V45.86H105.232V2.70002H126.682V108H105.232V61.33H86.642V108H65.192Z"/>
<path d="M142.754 108V2.70002H188.644V17.52H164.074V45.47H183.054V60.42H164.074V93.44H188.904V108H142.754Z"/>
<path d="M232.383 108V2.70002H276.843V17.39H253.703V45.73H273.333V60.68H253.703V108H232.383Z"/>
<path d="M317.248 109.43C293.328 109.43 286.828 96.82 286.828 74.72V2.70002H307.888V77.71C307.888 85.77 308.798 93.83 317.248 93.83C325.698 93.83 326.608 85.77 326.608 77.71V2.70002H347.798V74.72C347.798 96.82 341.168 109.43 317.248 109.43Z"/>
<path d="M372.644 108V18.56H356.394V2.70002H410.214V18.56H394.224V108H372.644Z"/>
<path d="M449.406 109.43C425.486 109.43 418.986 96.82 418.986 74.72V2.70002H440.046V77.71C440.046 85.77 440.956 93.83 449.406 93.83C457.856 93.83 458.766 85.77 458.766 77.71V2.70002H479.956V74.72C479.956 96.82 473.326 109.43 449.406 109.43Z"/>
<path d="M494.922 108V2.70002H522.222C543.412 2.70002 556.412 8.94003 556.412 30.52C556.412 43.39 553.552 52.1 543.412 56.65L557.972 108H536.002L524.042 60.29H516.242V108H494.922ZM516.242 47.55H522.612C532.882 47.55 536.262 42.48 536.262 32.21C536.262 22.46 533.532 17.13 523.652 17.13H516.242V47.55Z"/>
<path d="M570.713 108V2.70002H616.603V17.52H592.033V45.47H611.013V60.42H592.033V93.44H616.863V108H570.713Z"/>
<path d="M689.852 109.43C666.582 109.43 658.782 96.43 658.782 74.85V35.59C658.782 14.01 666.582 1.40002 689.852 1.40002C712.992 1.40002 720.922 14.14 720.922 35.59V74.98C720.922 96.43 712.992 109.43 689.852 109.43ZM689.852 94.09C697.912 94.09 699.082 87.33 699.082 80.18V30.39C699.082 23.11 697.912 16.74 689.852 16.74C681.792 16.74 680.622 23.11 680.622 30.39V80.18C680.622 87.33 681.532 94.09 689.852 94.09Z"/>
<path d="M735.245 108V2.70002H779.705V17.39H756.565V45.73H776.195V60.68H756.565V108H735.245Z"/>
<path d="M822.969 108V2.70002H848.709C875.359 2.70002 883.289 12.84 883.289 35.72V74.07C883.289 97.47 875.359 108 849.229 108H822.969ZM844.289 93.05H848.969C860.669 93.05 861.319 87.46 861.319 76.41V32.86C861.319 22.2 860.149 17.78 848.839 17.78H844.289V93.05Z"/>
<path d="M897.491 108V2.70002H943.381V17.52H918.811V45.47H937.791V60.42H918.811V93.44H943.641V108H897.491Z"/>
<path d="M983.87 109.43C960.21 109.43 953.06 95.39 953.06 74.33V36.63C953.06 14.92 960.21 1.40002 983.87 1.40002C1006.49 1.40002 1013.38 13.62 1013.38 31.82V40.66H992.58V30.91C992.58 23.5 992.32 16.74 984 16.74C975.42 16.74 974.77 23.76 974.77 31.56V79.4C974.77 88.37 976.46 94.09 984 94.09C992.19 94.09 992.58 87.07 992.58 79.4V69.13H1013.38V77.84C1013.38 96.17 1006.88 109.43 983.87 109.43Z"/>
<path d="M1026.47 108V2.70002H1072.36V17.52H1047.79V45.47H1066.78V60.42H1047.79V93.44H1072.62V108H1026.47Z"/>
<path d="M1083.6 108V2.70002H1098.55L1121.95 57.43V2.70002H1139.76V108H1125.33L1101.93 49.76V108H1083.6Z"/>
<path d="M1165.47 108V18.56H1149.22V2.70002H1203.04V18.56H1187.05V108H1165.47Z"/>
<path d="M1212.59 108V2.70002H1239.89C1261.08 2.70002 1274.08 8.94003 1274.08 30.52C1274.08 43.39 1271.22 52.1 1261.08 56.65L1275.64 108H1253.67L1241.71 60.29H1233.91V108H1212.59ZM1233.91 47.55H1240.28C1250.55 47.55 1253.93 42.48 1253.93 32.21C1253.93 22.46 1251.2 17.13 1241.32 17.13H1233.91V47.55Z"/>
<path d="M1283.18 108L1303.59 2.70002H1327.38L1347.66 108H1327.9L1324 84.86H1307.36L1303.33 108H1283.18ZM1309.31 71.6H1321.92L1315.55 29.22L1309.31 71.6Z"/>
<path d="M1358.33 108V2.70002H1379.65V93.44H1404.48V108H1358.33Z"/>
<path d="M1414.83 108V2.70002H1436.15V108H1414.83Z"/>
<path d="M1448.25 108V94.74L1475.16 17.39H1449.55V2.70002H1496.35V14.4L1468.92 93.44H1496.61V108H1448.25Z"/>
<path d="M1507.88 108V2.70002H1553.77V17.52H1529.2V45.47H1548.18V60.42H1529.2V93.44H1554.03V108H1507.88Z"/>
<path d="M1565.01 108V2.70002H1590.75C1617.4 2.70002 1625.33 12.84 1625.33 35.72V74.07C1625.33 97.47 1617.4 108 1591.27 108H1565.01ZM1586.33 93.05H1591.01C1602.71 93.05 1603.36 87.46 1603.36 76.41V32.86C1603.36 22.2 1602.19 17.78 1590.88 17.78H1586.33V93.05Z"/>
<path d="M1672.03 108V2.70002H1717.92V17.52H1693.35V45.47H1712.33V60.42H1693.35V93.44H1718.18V108H1672.03Z"/>
<path d="M1758.41 109.43C1734.75 109.43 1727.6 95.39 1727.6 74.33V36.63C1727.6 14.92 1734.75 1.40002 1758.41 1.40002C1781.03 1.40002 1787.92 13.62 1787.92 31.82V40.66H1767.12V30.91C1767.12 23.5 1766.86 16.74 1758.54 16.74C1749.96 16.74 1749.31 23.76 1749.31 31.56V79.4C1749.31 88.37 1751 94.09 1758.54 94.09C1766.73 94.09 1767.12 87.07 1767.12 79.4V69.13H1787.92V77.84C1787.92 96.17 1781.42 109.43 1758.41 109.43Z"/>
<path d="M1830.53 109.43C1807.26 109.43 1799.46 96.43 1799.46 74.85V35.59C1799.46 14.01 1807.26 1.40002 1830.53 1.40002C1853.67 1.40002 1861.6 14.14 1861.6 35.59V74.98C1861.6 96.43 1853.67 109.43 1830.53 109.43ZM1830.53 94.09C1838.59 94.09 1839.76 87.33 1839.76 80.18V30.39C1839.76 23.11 1838.59 16.74 1830.53 16.74C1822.47 16.74 1821.3 23.11 1821.3 30.39V80.18C1821.3 87.33 1822.21 94.09 1830.53 94.09Z"/>
<path d="M1903.09 109.43C1883.59 109.43 1874.23 99.03 1873.32 76.67L1891.78 73.55C1892.17 86.68 1895.29 93.05 1902.18 93.05C1907.64 93.05 1909.33 89.02 1909.33 84.47C1909.33 75.5 1904.78 70.43 1897.76 64.32L1886.84 54.83C1879.04 48.2 1873.45 40.53 1873.45 28.18C1873.45 10.89 1884.5 1.40002 1902.05 1.40002C1923.24 1.40002 1927.53 17.13 1928.31 30.65L1909.72 33.38C1909.46 23.76 1908.42 17.13 1901.4 17.13C1896.46 17.13 1893.99 21.55 1893.99 26.1C1893.99 33.64 1897.63 37.67 1903.48 42.74L1914.14 52.1C1922.98 59.77 1930.26 69 1930.26 83.3C1930.26 98.38 1919.47 109.43 1903.09 109.43Z"/>
<path d="M1954.57 108V66.27L1934.03 2.70002H1954.18L1965.49 39.75L1975.89 2.70002H1995.52L1975.24 66.27V108H1954.57Z"/>
<path d="M2031.06 109.43C2011.56 109.43 2002.2 99.03 2001.29 76.67L2019.75 73.55C2020.14 86.68 2023.26 93.05 2030.15 93.05C2035.61 93.05 2037.3 89.02 2037.3 84.47C2037.3 75.5 2032.75 70.43 2025.73 64.32L2014.81 54.83C2007.01 48.2 2001.42 40.53 2001.42 28.18C2001.42 10.89 2012.47 1.40002 2030.02 1.40002C2051.21 1.40002 2055.5 17.13 2056.28 30.65L2037.69 33.38C2037.43 23.76 2036.39 17.13 2029.37 17.13C2024.43 17.13 2021.96 21.55 2021.96 26.1C2021.96 33.64 2025.6 37.67 2031.45 42.74L2042.11 52.1C2050.95 59.77 2058.23 69 2058.23 83.3C2058.23 98.38 2047.44 109.43 2031.06 109.43Z"/>
<path d="M2079.4 108V18.56H2063.15V2.70002H2116.97V18.56H2100.98V108H2079.4Z"/>
<path d="M2126.52 108V2.70002H2172.41V17.52H2147.84V45.47H2166.82V60.42H2147.84V93.44H2172.67V108H2126.52Z"/>
<path d="M2183.26 108L2185.08 2.70002H2207.83L2220.83 69.13L2234.61 2.70002H2256.58L2258.53 108H2242.93L2241.24 36.5L2227.72 108H2214.46L2200.55 36.11L2198.99 108H2183.26Z"/>
<path d="M2300.07 109.43C2280.57 109.43 2271.21 99.03 2270.3 76.67L2288.76 73.55C2289.15 86.68 2292.27 93.05 2299.16 93.05C2304.62 93.05 2306.31 89.02 2306.31 84.47C2306.31 75.5 2301.76 70.43 2294.74 64.32L2283.82 54.83C2276.02 48.2 2270.43 40.53 2270.43 28.18C2270.43 10.89 2281.48 1.40002 2299.03 1.40002C2320.22 1.40002 2324.51 17.13 2325.29 30.65L2306.7 33.38C2306.44 23.76 2305.4 17.13 2298.38 17.13C2293.44 17.13 2290.97 21.55 2290.97 26.1C2290.97 33.64 2294.61 37.67 2300.46 42.74L2311.12 52.1C2319.96 59.77 2327.24 69 2327.24 83.3C2327.24 98.38 2316.45 109.43 2300.07 109.43Z"/>
</mask>
<path d="M17.8101 108V18.56H1.56006V2.70002H55.3801V18.56H39.3901V108H17.8101Z" fill="black"/>
<path d="M65.192 108V2.70002H86.642V45.86H105.232V2.70002H126.682V108H105.232V61.33H86.642V108H65.192Z" fill="black"/>
<path d="M142.754 108V2.70002H188.644V17.52H164.074V45.47H183.054V60.42H164.074V93.44H188.904V108H142.754Z" fill="black"/>
<path d="M232.383 108V2.70002H276.843V17.39H253.703V45.73H273.333V60.68H253.703V108H232.383Z" fill="black"/>
<path d="M317.248 109.43C293.328 109.43 286.828 96.82 286.828 74.72V2.70002H307.888V77.71C307.888 85.77 308.798 93.83 317.248 93.83C325.698 93.83 326.608 85.77 326.608 77.71V2.70002H347.798V74.72C347.798 96.82 341.168 109.43 317.248 109.43Z" fill="black"/>
<path d="M372.644 108V18.56H356.394V2.70002H410.214V18.56H394.224V108H372.644Z" fill="black"/>
<path d="M449.406 109.43C425.486 109.43 418.986 96.82 418.986 74.72V2.70002H440.046V77.71C440.046 85.77 440.956 93.83 449.406 93.83C457.856 93.83 458.766 85.77 458.766 77.71V2.70002H479.956V74.72C479.956 96.82 473.326 109.43 449.406 109.43Z" fill="black"/>
<path d="M494.922 108V2.70002H522.222C543.412 2.70002 556.412 8.94003 556.412 30.52C556.412 43.39 553.552 52.1 543.412 56.65L557.972 108H536.002L524.042 60.29H516.242V108H494.922ZM516.242 47.55H522.612C532.882 47.55 536.262 42.48 536.262 32.21C536.262 22.46 533.532 17.13 523.652 17.13H516.242V47.55Z" fill="black"/>
<path d="M570.713 108V2.70002H616.603V17.52H592.033V45.47H611.013V60.42H592.033V93.44H616.863V108H570.713Z" fill="black"/>
<path d="M689.852 109.43C666.582 109.43 658.782 96.43 658.782 74.85V35.59C658.782 14.01 666.582 1.40002 689.852 1.40002C712.992 1.40002 720.922 14.14 720.922 35.59V74.98C720.922 96.43 712.992 109.43 689.852 109.43ZM689.852 94.09C697.912 94.09 699.082 87.33 699.082 80.18V30.39C699.082 23.11 697.912 16.74 689.852 16.74C681.792 16.74 680.622 23.11 680.622 30.39V80.18C680.622 87.33 681.532 94.09 689.852 94.09Z" fill="black"/>
<path d="M735.245 108V2.70002H779.705V17.39H756.565V45.73H776.195V60.68H756.565V108H735.245Z" fill="black"/>
<path d="M822.969 108V2.70002H848.709C875.359 2.70002 883.289 12.84 883.289 35.72V74.07C883.289 97.47 875.359 108 849.229 108H822.969ZM844.289 93.05H848.969C860.669 93.05 861.319 87.46 861.319 76.41V32.86C861.319 22.2 860.149 17.78 848.839 17.78H844.289V93.05Z" fill="black"/>
<path d="M897.491 108V2.70002H943.381V17.52H918.811V45.47H937.791V60.42H918.811V93.44H943.641V108H897.491Z" fill="black"/>
<path d="M983.87 109.43C960.21 109.43 953.06 95.39 953.06 74.33V36.63C953.06 14.92 960.21 1.40002 983.87 1.40002C1006.49 1.40002 1013.38 13.62 1013.38 31.82V40.66H992.58V30.91C992.58 23.5 992.32 16.74 984 16.74C975.42 16.74 974.77 23.76 974.77 31.56V79.4C974.77 88.37 976.46 94.09 984 94.09C992.19 94.09 992.58 87.07 992.58 79.4V69.13H1013.38V77.84C1013.38 96.17 1006.88 109.43 983.87 109.43Z" fill="black"/>
<path d="M1026.47 108V2.70002H1072.36V17.52H1047.79V45.47H1066.78V60.42H1047.79V93.44H1072.62V108H1026.47Z" fill="black"/>
<path d="M1083.6 108V2.70002H1098.55L1121.95 57.43V2.70002H1139.76V108H1125.33L1101.93 49.76V108H1083.6Z" fill="black"/>
<path d="M1165.47 108V18.56H1149.22V2.70002H1203.04V18.56H1187.05V108H1165.47Z" fill="black"/>
<path d="M1212.59 108V2.70002H1239.89C1261.08 2.70002 1274.08 8.94003 1274.08 30.52C1274.08 43.39 1271.22 52.1 1261.08 56.65L1275.64 108H1253.67L1241.71 60.29H1233.91V108H1212.59ZM1233.91 47.55H1240.28C1250.55 47.55 1253.93 42.48 1253.93 32.21C1253.93 22.46 1251.2 17.13 1241.32 17.13H1233.91V47.55Z" fill="black"/>
<path d="M1283.18 108L1303.59 2.70002H1327.38L1347.66 108H1327.9L1324 84.86H1307.36L1303.33 108H1283.18ZM1309.31 71.6H1321.92L1315.55 29.22L1309.31 71.6Z" fill="black"/>
<path d="M1358.33 108V2.70002H1379.65V93.44H1404.48V108H1358.33Z" fill="black"/>
<path d="M1414.83 108V2.70002H1436.15V108H1414.83Z" fill="black"/>
<path d="M1448.25 108V94.74L1475.16 17.39H1449.55V2.70002H1496.35V14.4L1468.92 93.44H1496.61V108H1448.25Z" fill="black"/>
<path d="M1507.88 108V2.70002H1553.77V17.52H1529.2V45.47H1548.18V60.42H1529.2V93.44H1554.03V108H1507.88Z" fill="black"/>
<path d="M1565.01 108V2.70002H1590.75C1617.4 2.70002 1625.33 12.84 1625.33 35.72V74.07C1625.33 97.47 1617.4 108 1591.27 108H1565.01ZM1586.33 93.05H1591.01C1602.71 93.05 1603.36 87.46 1603.36 76.41V32.86C1603.36 22.2 1602.19 17.78 1590.88 17.78H1586.33V93.05Z" fill="black"/>
<path d="M1672.03 108V2.70002H1717.92V17.52H1693.35V45.47H1712.33V60.42H1693.35V93.44H1718.18V108H1672.03Z" fill="black"/>
<path d="M1758.41 109.43C1734.75 109.43 1727.6 95.39 1727.6 74.33V36.63C1727.6 14.92 1734.75 1.40002 1758.41 1.40002C1781.03 1.40002 1787.92 13.62 1787.92 31.82V40.66H1767.12V30.91C1767.12 23.5 1766.86 16.74 1758.54 16.74C1749.96 16.74 1749.31 23.76 1749.31 31.56V79.4C1749.31 88.37 1751 94.09 1758.54 94.09C1766.73 94.09 1767.12 87.07 1767.12 79.4V69.13H1787.92V77.84C1787.92 96.17 1781.42 109.43 1758.41 109.43Z" fill="black"/>
<path d="M1830.53 109.43C1807.26 109.43 1799.46 96.43 1799.46 74.85V35.59C1799.46 14.01 1807.26 1.40002 1830.53 1.40002C1853.67 1.40002 1861.6 14.14 1861.6 35.59V74.98C1861.6 96.43 1853.67 109.43 1830.53 109.43ZM1830.53 94.09C1838.59 94.09 1839.76 87.33 1839.76 80.18V30.39C1839.76 23.11 1838.59 16.74 1830.53 16.74C1822.47 16.74 1821.3 23.11 1821.3 30.39V80.18C1821.3 87.33 1822.21 94.09 1830.53 94.09Z" fill="black"/>
<path d="M1903.09 109.43C1883.59 109.43 1874.23 99.03 1873.32 76.67L1891.78 73.55C1892.17 86.68 1895.29 93.05 1902.18 93.05C1907.64 93.05 1909.33 89.02 1909.33 84.47C1909.33 75.5 1904.78 70.43 1897.76 64.32L1886.84 54.83C1879.04 48.2 1873.45 40.53 1873.45 28.18C1873.45 10.89 1884.5 1.40002 1902.05 1.40002C1923.24 1.40002 1927.53 17.13 1928.31 30.65L1909.72 33.38C1909.46 23.76 1908.42 17.13 1901.4 17.13C1896.46 17.13 1893.99 21.55 1893.99 26.1C1893.99 33.64 1897.63 37.67 1903.48 42.74L1914.14 52.1C1922.98 59.77 1930.26 69 1930.26 83.3C1930.26 98.38 1919.47 109.43 1903.09 109.43Z" fill="black"/>
<path d="M1954.57 108V66.27L1934.03 2.70002H1954.18L1965.49 39.75L1975.89 2.70002H1995.52L1975.24 66.27V108H1954.57Z" fill="black"/>
<path d="M2031.06 109.43C2011.56 109.43 2002.2 99.03 2001.29 76.67L2019.75 73.55C2020.14 86.68 2023.26 93.05 2030.15 93.05C2035.61 93.05 2037.3 89.02 2037.3 84.47C2037.3 75.5 2032.75 70.43 2025.73 64.32L2014.81 54.83C2007.01 48.2 2001.42 40.53 2001.42 28.18C2001.42 10.89 2012.47 1.40002 2030.02 1.40002C2051.21 1.40002 2055.5 17.13 2056.28 30.65L2037.69 33.38C2037.43 23.76 2036.39 17.13 2029.37 17.13C2024.43 17.13 2021.96 21.55 2021.96 26.1C2021.96 33.64 2025.6 37.67 2031.45 42.74L2042.11 52.1C2050.95 59.77 2058.23 69 2058.23 83.3C2058.23 98.38 2047.44 109.43 2031.06 109.43Z" fill="black"/>
<path d="M2079.4 108V18.56H2063.15V2.70002H2116.97V18.56H2100.98V108H2079.4Z" fill="black"/>
<path d="M2126.52 108V2.70002H2172.41V17.52H2147.84V45.47H2166.82V60.42H2147.84V93.44H2172.67V108H2126.52Z" fill="black"/>
<path d="M2183.26 108L2185.08 2.70002H2207.83L2220.83 69.13L2234.61 2.70002H2256.58L2258.53 108H2242.93L2241.24 36.5L2227.72 108H2214.46L2200.55 36.11L2198.99 108H2183.26Z" fill="black"/>
<path d="M2300.07 109.43C2280.57 109.43 2271.21 99.03 2270.3 76.67L2288.76 73.55C2289.15 86.68 2292.27 93.05 2299.16 93.05C2304.62 93.05 2306.31 89.02 2306.31 84.47C2306.31 75.5 2301.76 70.43 2294.74 64.32L2283.82 54.83C2276.02 48.2 2270.43 40.53 2270.43 28.18C2270.43 10.89 2281.48 1.40002 2299.03 1.40002C2320.22 1.40002 2324.51 17.13 2325.29 30.65L2306.7 33.38C2306.44 23.76 2305.4 17.13 2298.38 17.13C2293.44 17.13 2290.97 21.55 2290.97 26.1C2290.97 33.64 2294.61 37.67 2300.46 42.74L2311.12 52.1C2319.96 59.77 2327.24 69 2327.24 83.3C2327.24 98.38 2316.45 109.43 2300.07 109.43Z" fill="black"/>
<path d="M17.8101 108V18.56H1.56006V2.70002H55.3801V18.56H39.3901V108H17.8101Z" stroke="white" stroke-width="2" mask="url(#path-1-outside-1_2001_2)"/>
<path d="M65.192 108V2.70002H86.642V45.86H105.232V2.70002H126.682V108H105.232V61.33H86.642V108H65.192Z" stroke="white" stroke-width="2" mask="url(#path-1-outside-1_2001_2)"/>
<path d="M142.754 108V2.70002H188.644V17.52H164.074V45.47H183.054V60.42H164.074V93.44H188.904V108H142.754Z" stroke="white" stroke-width="2" mask="url(#path-1-outside-1_2001_2)"/>
<path d="M232.383 108V2.70002H276.843V17.39H253.703V45.73H273.333V60.68H253.703V108H232.383Z" stroke="white" stroke-width="2" mask="url(#path-1-outside-1_2001_2)"/>
<path d="M317.248 109.43C293.328 109.43 286.828 96.82 286.828 74.72V2.70002H307.888V77.71C307.888 85.77 308.798 93.83 317.248 93.83C325.698 93.83 326.608 85.77 326.608 77.71V2.70002H347.798V74.72C347.798 96.82 341.168 109.43 317.248 109.43Z" stroke="white" stroke-width="2" mask="url(#path-1-outside-1_2001_2)"/>
<path d="M372.644 108V18.56H356.394V2.70002H410.214V18.56H394.224V108H372.644Z" stroke="white" stroke-width="2" mask="url(#path-1-outside-1_2001_2)"/>
<path d="M449.406 109.43C425.486 109.43 418.986 96.82 418.986 74.72V2.70002H440.046V77.71C440.046 85.77 440.956 93.83 449.406 93.83C457.856 93.83 458.766 85.77 458.766 77.71V2.70002H479.956V74.72C479.956 96.82 473.326 109.43 449.406 109.43Z" stroke="white" stroke-width="2" mask="url(#path-1-outside-1_2001_2)"/>
<path d="M494.922 108V2.70002H522.222C543.412 2.70002 556.412 8.94003 556.412 30.52C556.412 43.39 553.552 52.1 543.412 56.65L557.972 108H536.002L524.042 60.29H516.242V108H494.922ZM516.242 47.55H522.612C532.882 47.55 536.262 42.48 536.262 32.21C536.262 22.46 533.532 17.13 523.652 17.13H516.242V47.55Z" stroke="white" stroke-width="2" mask="url(#path-1-outside-1_2001_2)"/>
<path d="M570.713 108V2.70002H616.603V17.52H592.033V45.47H611.013V60.42H592.033V93.44H616.863V108H570.713Z" stroke="white" stroke-width="2" mask="url(#path-1-outside-1_2001_2)"/>
<path d="M689.852 109.43C666.582 109.43 658.782 96.43 658.782 74.85V35.59C658.782 14.01 666.582 1.40002 689.852 1.40002C712.992 1.40002 720.922 14.14 720.922 35.59V74.98C720.922 96.43 712.992 109.43 689.852 109.43ZM689.852 94.09C697.912 94.09 699.082 87.33 699.082 80.18V30.39C699.082 23.11 697.912 16.74 689.852 16.74C681.792 16.74 680.622 23.11 680.622 30.39V80.18C680.622 87.33 681.532 94.09 689.852 94.09Z" stroke="white" stroke-width="2" mask="url(#path-1-outside-1_2001_2)"/>
<path d="M735.245 108V2.70002H779.705V17.39H756.565V45.73H776.195V60.68H756.565V108H735.245Z" stroke="white" stroke-width="2" mask="url(#path-1-outside-1_2001_2)"/>
<path d="M822.969 108V2.70002H848.709C875.359 2.70002 883.289 12.84 883.289 35.72V74.07C883.289 97.47 875.359 108 849.229 108H822.969ZM844.289 93.05H848.969C860.669 93.05 861.319 87.46 861.319 76.41V32.86C861.319 22.2 860.149 17.78 848.839 17.78H844.289V93.05Z" stroke="white" stroke-width="2" mask="url(#path-1-outside-1_2001_2)"/>
<path d="M897.491 108V2.70002H943.381V17.52H918.811V45.47H937.791V60.42H918.811V93.44H943.641V108H897.491Z" stroke="white" stroke-width="2" mask="url(#path-1-outside-1_2001_2)"/>
<path d="M983.87 109.43C960.21 109.43 953.06 95.39 953.06 74.33V36.63C953.06 14.92 960.21 1.40002 983.87 1.40002C1006.49 1.40002 1013.38 13.62 1013.38 31.82V40.66H992.58V30.91C992.58 23.5 992.32 16.74 984 16.74C975.42 16.74 974.77 23.76 974.77 31.56V79.4C974.77 88.37 976.46 94.09 984 94.09C992.19 94.09 992.58 87.07 992.58 79.4V69.13H1013.38V77.84C1013.38 96.17 1006.88 109.43 983.87 109.43Z" stroke="white" stroke-width="2" mask="url(#path-1-outside-1_2001_2)"/>
<path d="M1026.47 108V2.70002H1072.36V17.52H1047.79V45.47H1066.78V60.42H1047.79V93.44H1072.62V108H1026.47Z" stroke="white" stroke-width="2" mask="url(#path-1-outside-1_2001_2)"/>
<path d="M1083.6 108V2.70002H1098.55L1121.95 57.43V2.70002H1139.76V108H1125.33L1101.93 49.76V108H1083.6Z" stroke="white" stroke-width="2" mask="url(#path-1-outside-1_2001_2)"/>
<path d="M1165.47 108V18.56H1149.22V2.70002H1203.04V18.56H1187.05V108H1165.47Z" stroke="white" stroke-width="2" mask="url(#path-1-outside-1_2001_2)"/>
<path d="M1212.59 108V2.70002H1239.89C1261.08 2.70002 1274.08 8.94003 1274.08 30.52C1274.08 43.39 1271.22 52.1 1261.08 56.65L1275.64 108H1253.67L1241.71 60.29H1233.91V108H1212.59ZM1233.91 47.55H1240.28C1250.55 47.55 1253.93 42.48 1253.93 32.21C1253.93 22.46 1251.2 17.13 1241.32 17.13H1233.91V47.55Z" stroke="white" stroke-width="2" mask="url(#path-1-outside-1_2001_2)"/>
<path d="M1283.18 108L1303.59 2.70002H1327.38L1347.66 108H1327.9L1324 84.86H1307.36L1303.33 108H1283.18ZM1309.31 71.6H1321.92L1315.55 29.22L1309.31 71.6Z" stroke="white" stroke-width="2" mask="url(#path-1-outside-1_2001_2)"/>
<path d="M1358.33 108V2.70002H1379.65V93.44H1404.48V108H1358.33Z" stroke="white" stroke-width="2" mask="url(#path-1-outside-1_2001_2)"/>
<path d="M1414.83 108V2.70002H1436.15V108H1414.83Z" stroke="white" stroke-width="2" mask="url(#path-1-outside-1_2001_2)"/>
<path d="M1448.25 108V94.74L1475.16 17.39H1449.55V2.70002H1496.35V14.4L1468.92 93.44H1496.61V108H1448.25Z" stroke="white" stroke-width="2" mask="url(#path-1-outside-1_2001_2)"/>
<path d="M1507.88 108V2.70002H1553.77V17.52H1529.2V45.47H1548.18V60.42H1529.2V93.44H1554.03V108H1507.88Z" stroke="white" stroke-width="2" mask="url(#path-1-outside-1_2001_2)"/>
<path d="M1565.01 108V2.70002H1590.75C1617.4 2.70002 1625.33 12.84 1625.33 35.72V74.07C1625.33 97.47 1617.4 108 1591.27 108H1565.01ZM1586.33 93.05H1591.01C1602.71 93.05 1603.36 87.46 1603.36 76.41V32.86C1603.36 22.2 1602.19 17.78 1590.88 17.78H1586.33V93.05Z" stroke="white" stroke-width="2" mask="url(#path-1-outside-1_2001_2)"/>
<path d="M1672.03 108V2.70002H1717.92V17.52H1693.35V45.47H1712.33V60.42H1693.35V93.44H1718.18V108H1672.03Z" stroke="white" stroke-width="2" mask="url(#path-1-outside-1_2001_2)"/>
<path d="M1758.41 109.43C1734.75 109.43 1727.6 95.39 1727.6 74.33V36.63C1727.6 14.92 1734.75 1.40002 1758.41 1.40002C1781.03 1.40002 1787.92 13.62 1787.92 31.82V40.66H1767.12V30.91C1767.12 23.5 1766.86 16.74 1758.54 16.74C1749.96 16.74 1749.31 23.76 1749.31 31.56V79.4C1749.31 88.37 1751 94.09 1758.54 94.09C1766.73 94.09 1767.12 87.07 1767.12 79.4V69.13H1787.92V77.84C1787.92 96.17 1781.42 109.43 1758.41 109.43Z" stroke="white" stroke-width="2" mask="url(#path-1-outside-1_2001_2)"/>
<path d="M1830.53 109.43C1807.26 109.43 1799.46 96.43 1799.46 74.85V35.59C1799.46 14.01 1807.26 1.40002 1830.53 1.40002C1853.67 1.40002 1861.6 14.14 1861.6 35.59V74.98C1861.6 96.43 1853.67 109.43 1830.53 109.43ZM1830.53 94.09C1838.59 94.09 1839.76 87.33 1839.76 80.18V30.39C1839.76 23.11 1838.59 16.74 1830.53 16.74C1822.47 16.74 1821.3 23.11 1821.3 30.39V80.18C1821.3 87.33 1822.21 94.09 1830.53 94.09Z" stroke="white" stroke-width="2" mask="url(#path-1-outside-1_2001_2)"/>
<path d="M1903.09 109.43C1883.59 109.43 1874.23 99.03 1873.32 76.67L1891.78 73.55C1892.17 86.68 1895.29 93.05 1902.18 93.05C1907.64 93.05 1909.33 89.02 1909.33 84.47C1909.33 75.5 1904.78 70.43 1897.76 64.32L1886.84 54.83C1879.04 48.2 1873.45 40.53 1873.45 28.18C1873.45 10.89 1884.5 1.40002 1902.05 1.40002C1923.24 1.40002 1927.53 17.13 1928.31 30.65L1909.72 33.38C1909.46 23.76 1908.42 17.13 1901.4 17.13C1896.46 17.13 1893.99 21.55 1893.99 26.1C1893.99 33.64 1897.63 37.67 1903.48 42.74L1914.14 52.1C1922.98 59.77 1930.26 69 1930.26 83.3C1930.26 98.38 1919.47 109.43 1903.09 109.43Z" stroke="white" stroke-width="2" mask="url(#path-1-outside-1_2001_2)"/>
<path d="M1954.57 108V66.27L1934.03 2.70002H1954.18L1965.49 39.75L1975.89 2.70002H1995.52L1975.24 66.27V108H1954.57Z" stroke="white" stroke-width="2" mask="url(#path-1-outside-1_2001_2)"/>
<path d="M2031.06 109.43C2011.56 109.43 2002.2 99.03 2001.29 76.67L2019.75 73.55C2020.14 86.68 2023.26 93.05 2030.15 93.05C2035.61 93.05 2037.3 89.02 2037.3 84.47C2037.3 75.5 2032.75 70.43 2025.73 64.32L2014.81 54.83C2007.01 48.2 2001.42 40.53 2001.42 28.18C2001.42 10.89 2012.47 1.40002 2030.02 1.40002C2051.21 1.40002 2055.5 17.13 2056.28 30.65L2037.69 33.38C2037.43 23.76 2036.39 17.13 2029.37 17.13C2024.43 17.13 2021.96 21.55 2021.96 26.1C2021.96 33.64 2025.6 37.67 2031.45 42.74L2042.11 52.1C2050.95 59.77 2058.23 69 2058.23 83.3C2058.23 98.38 2047.44 109.43 2031.06 109.43Z" stroke="white" stroke-width="2" mask="url(#path-1-outside-1_2001_2)"/>
<path d="M2079.4 108V18.56H2063.15V2.70002H2116.97V18.56H2100.98V108H2079.4Z" stroke="white" stroke-width="2" mask="url(#path-1-outside-1_2001_2)"/>
<path d="M2126.52 108V2.70002H2172.41V17.52H2147.84V45.47H2166.82V60.42H2147.84V93.44H2172.67V108H2126.52Z" stroke="white" stroke-width="2" mask="url(#path-1-outside-1_2001_2)"/>
<path d="M2183.26 108L2185.08 2.70002H2207.83L2220.83 69.13L2234.61 2.70002H2256.58L2258.53 108H2242.93L2241.24 36.5L2227.72 108H2214.46L2200.55 36.11L2198.99 108H2183.26Z" stroke="white" stroke-width="2" mask="url(#path-1-outside-1_2001_2)"/>
<path d="M2300.07 109.43C2280.57 109.43 2271.21 99.03 2270.3 76.67L2288.76 73.55C2289.15 86.68 2292.27 93.05 2299.16 93.05C2304.62 93.05 2306.31 89.02 2306.31 84.47C2306.31 75.5 2301.76 70.43 2294.74 64.32L2283.82 54.83C2276.02 48.2 2270.43 40.53 2270.43 28.18C2270.43 10.89 2281.48 1.40002 2299.03 1.40002C2320.22 1.40002 2324.51 17.13 2325.29 30.65L2306.7 33.38C2306.44 23.76 2305.4 17.13 2298.38 17.13C2293.44 17.13 2290.97 21.55 2290.97 26.1C2290.97 33.64 2294.61 37.67 2300.46 42.74L2311.12 52.1C2319.96 59.77 2327.24 69 2327.24 83.3C2327.24 98.38 2316.45 109.43 2300.07 109.43Z" stroke="white" stroke-width="2" mask="url(#path-1-outside-1_2001_2)"/>
</svg>
