<svg width="121" height="90" viewBox="0 0 121 90" fill="none" xmlns="http://www.w3.org/2000/svg">
<path d="M29.3978 73.1499C38.0702 73.1499 42.8222 67.4475 42.8222 60.3195V29.5503C42.8222 21.3531 38.189 16.0071 29.6354 16.0071C20.963 16.0071 16.211 21.9471 16.211 29.5503V60.2007C16.211 67.8039 20.7254 73.1499 29.3978 73.1499ZM29.5166 89.1879C10.6274 89.1879 0.0541992 77.5455 0.0541992 60.9135V29.0751C0.0541992 12.5619 12.053 0.0878906 29.5166 0.0878906C47.4554 0.0878906 58.979 13.0371 58.979 28.9563V60.9135C58.979 77.9019 48.1682 89.1879 29.5166 89.1879Z" fill="white"/>
<path d="M91.3984 89.1879C80.35 89.1879 71.0836 85.7427 63.5992 77.0703L77.6176 66.6159C81.3004 72.1995 85.9336 74.4567 91.2796 74.4567C98.764 74.4567 104.11 70.1799 104.11 62.9331C104.11 55.6863 98.17 50.9343 89.26 50.9343H80.35V36.0843H89.26C98.764 36.0843 103.041 30.7383 103.041 24.5607C103.041 18.2643 98.2888 14.1063 90.8044 14.1063C84.0328 14.1063 80.35 17.3139 77.6176 22.4223L63.8368 15.2943C68.9452 5.79029 79.162 0.0878906 90.5668 0.0878906C107.436 0.0878906 118.722 9.59189 118.722 24.4419C118.722 32.4015 115.04 38.6979 108.862 43.0935C115.99 47.2515 120.267 53.9043 120.267 62.9331C120.267 77.7831 110.05 89.1879 91.3984 89.1879Z" fill="white"/>
</svg>
