<svg width="60" height="59" viewBox="0 0 60 59" fill="none" xmlns="http://www.w3.org/2000/svg">
<path d="M51.1618 13.4324V48.893C51.1618 53.8771 48.6818 56.3573 43.7693 56.3573H27.1038C31.1642 55.7889 35.3832 54.9461 40.0969 53.6387C44.9378 52.2556 47.1556 49.1555 47.1556 43.5991V8.68683C47.1556 7.87774 47.094 7.11439 46.9678 6.40527C49.7575 7.3357 51.1618 9.68185 51.1618 13.4324Z" fill="white"/>
<path d="M43.9122 8.687V43.5993C43.9122 47.7724 42.6006 49.5611 39.2144 50.5149C30.1047 53.0189 23.0221 53.7581 15.0094 54.1874C10.5977 54.4497 8.02222 52.3034 8.02222 48.1541V12.6456C8.02222 8.32931 10.5739 6.13536 14.4371 5.89688C23.0221 5.39608 30.1047 4.20373 36.782 2.70137C41.3606 1.62824 43.9122 3.94141 43.9122 8.687ZM25.7645 37.8283C23.4036 38.2097 20.8043 38.5675 16.8457 38.7821C15.8441 38.8776 15.4149 39.4497 15.4149 40.2128C15.4149 40.9999 15.9872 41.6199 16.8457 41.5723C20.8759 41.3337 23.5467 40.9523 26.2176 40.523C27.0284 40.3799 27.4577 39.7359 27.4577 39.0922C27.4577 38.3528 26.8615 37.6376 25.7645 37.8283ZM34.8504 28.2656C29.3892 29.4817 23.809 30.4595 16.8457 30.9127C15.8441 30.984 15.4149 31.5803 15.4149 32.3195C15.4149 33.1065 15.9872 33.7265 16.8457 33.6789C23.809 33.2257 29.3892 32.2479 35.1127 30.984C36.2572 30.7457 36.5195 30.1733 36.5195 29.4817C36.5195 28.7186 35.9473 28.051 34.8504 28.2656ZM34.8504 20.3483C29.3892 21.5645 23.809 22.5422 16.8457 22.9953C15.8441 23.0668 15.4149 23.663 15.4149 24.4022C15.4149 25.1892 15.9872 25.8092 16.8457 25.7616C23.809 25.3084 29.3892 24.3306 35.1127 23.0668C36.2572 22.8284 36.5195 22.256 36.5195 21.5645C36.5195 20.8014 35.9473 20.1336 34.8504 20.3483ZM34.8504 12.4549C29.3892 13.6472 23.809 14.6249 16.8457 15.078C15.8441 15.1496 15.4149 15.7458 15.4149 16.5089C15.4149 17.2958 15.9872 17.892 16.8457 17.8443C23.809 17.3912 29.3892 16.4373 35.1127 15.1496C36.2572 14.9111 36.5195 14.3388 36.5195 13.6472C36.5195 12.8841 35.9473 12.2164 34.8504 12.4549Z" fill="white"/>
</svg>
