<svg width="300" height="47" viewBox="0 0 300 47" fill="none" xmlns="http://www.w3.org/2000/svg">
<g clip-path="url(#clip0_1_9)">
<path d="M46.9138 23.4646C46.9138 10.5304 36.3989 0 23.4646 0C10.5304 0 0 10.5304 0 23.4646C0 36.3989 10.5304 46.9293 23.4646 46.9293C27.2798 46.9293 30.8778 45.9988 34.0571 44.3703L35.2357 43.7345C42.2146 39.6712 46.9293 32.1185 46.9293 23.4802L46.9138 23.4646ZM23.4646 4.54404C33.8865 4.54404 42.3697 13.0273 42.3697 23.4646C42.3697 28.4584 40.4001 33.0025 37.2364 36.3834L32.6148 28.4584C33.4988 28.0862 34.2587 27.6055 34.91 27.0471C35.5614 26.4888 36.1042 25.8375 36.5385 25.1241C36.9727 24.4107 37.2984 23.6507 37.5155 22.8598C37.7481 22.0689 37.8567 21.2624 37.8567 20.4249C37.8567 19.3238 37.6551 18.2382 37.2674 17.1836C36.8797 16.129 36.2903 15.183 35.4994 14.3455C34.7084 13.5081 33.7159 12.8412 32.5372 12.3294C31.3586 11.8176 29.9628 11.554 28.3809 11.554H8.80893C12.2829 7.30459 17.5558 4.57506 23.4646 4.57506V4.54404ZM4.54404 23.4646C4.54404 21.5105 4.83871 19.6185 5.39702 17.835H27.2798C28.4119 17.835 29.2494 18.0986 29.8077 18.6104C30.366 19.1222 30.6452 19.7115 30.6452 20.3629C30.6452 21.0143 30.366 21.6036 29.8077 22.1309C29.2494 22.6582 28.4119 22.9218 27.2798 22.9218H18.812L11.8952 29.2649V38.384C7.42866 34.9256 4.52854 29.513 4.52854 23.4491L4.54404 23.4646ZM23.4646 42.3697C21.9913 42.3697 20.549 42.1836 19.1687 41.8579V29.2339H25.3567L31.7928 40.4001C29.2804 41.6408 26.4578 42.3542 23.4646 42.3542V42.3697Z" fill="#CE0016"/>
<path d="M57.5062 39.3763V28.908L65.8344 21.2622H76.0236C77.3883 21.2622 78.4119 20.9365 79.0633 20.3006C79.7146 19.6648 80.0713 18.9514 80.0713 18.1604C80.0713 17.3695 79.7302 16.6716 79.0633 16.0513C78.3964 15.4309 77.3883 15.1207 76.0236 15.1207H57.5062V7.52148H77.3418C79.2494 7.52148 80.9243 7.83166 82.3511 8.45201C83.7779 9.07235 84.9721 9.8788 85.9181 10.8869C86.8797 11.8949 87.5775 13.0271 88.0583 14.2988C88.5236 15.5705 88.7717 16.8732 88.7717 18.207C88.7717 19.215 88.6321 20.1921 88.3685 21.1381C88.1048 22.0841 87.7016 22.9992 87.1898 23.8676C86.678 24.7361 86.0267 25.5116 85.2357 26.1939C84.4448 26.8763 83.5143 27.4501 82.4597 27.8999L89.6402 39.3608H80.9088L74.3486 28.8459H66.2531V39.3608H57.5217L57.5062 39.3763Z" fill="white"/>
<path d="M95.4249 39.3763V7.52148H104.156V39.3608H95.4249V39.3763Z" fill="white"/>
<path d="M109.941 24.6745L118.269 17.0287V31.9946H124.007C125.403 31.9946 126.613 31.7464 127.652 31.2657C128.676 30.7849 129.544 30.149 130.242 29.3581C130.94 28.5671 131.467 27.6676 131.808 26.6441C132.15 25.6205 132.336 24.5969 132.336 23.5733C132.336 22.5498 132.165 21.4797 131.808 20.4561C131.452 19.4325 130.94 18.533 130.242 17.7421C129.544 16.9511 128.676 16.3153 127.652 15.8345C126.613 15.3537 125.403 15.1056 124.007 15.1056H109.957V7.50635H125.837C128.381 7.50635 130.63 7.9561 132.553 8.87111C134.476 9.78612 136.073 10.9803 137.345 12.4846C138.617 13.989 139.578 15.6794 140.214 17.5715C140.85 19.4635 141.176 21.4176 141.176 23.4183C141.176 25.4189 140.85 27.373 140.214 29.265C139.578 31.1571 138.617 32.863 137.345 34.3674C136.073 35.8717 134.476 37.0814 132.553 37.9809C130.63 38.8959 128.381 39.3457 125.837 39.3457H109.957V24.6434L109.941 24.6745Z" fill="white"/>
<path d="M173.93 7.52148V15.1207H155.692V19.8199H173.93L167.184 26.7678H155.738V31.7771H173.945V39.3763H146.96V7.52148H173.945H173.93Z" fill="white"/>
<path d="M265.896 11.9883H257.274V17.773L265.896 11.9883Z" fill="white"/>
<path d="M257.274 19.634V39.3766H265.896V13.6787L257.274 19.634Z" fill="white"/>
<path d="M271.759 39.3766V11.9883H293.874L300 20.456V39.3766H291.889V23.2941L289.439 19.8977H280.257V39.3611H271.759V39.3766Z" fill="white"/>
<path d="M186.818 39.3918V7.52148H216.532V16.6406L208.669 21.4948V15.1983H195.363V31.746H215.912V39.3918H186.818Z" fill="white"/>
<path d="M222.007 39.3767V19.8978L229.901 12.0039H251.334V31.4828L243.44 39.3767H222.007ZM240.059 31.6689L242.664 28.7068V19.6807H233.297L230.692 22.6429V31.6689H240.059Z" fill="white"/>
</g>
<defs>
<clipPath id="clip0_1_9">
<rect width="300" height="46.9138" fill="white"/>
</clipPath>
</defs>
</svg>
