<svg width="154" height="165" viewBox="0 0 154 165" fill="none" xmlns="http://www.w3.org/2000/svg">
<g clip-path="url(#clip0_5_11472)">
<path d="M29.1669 57.3004L73.8518 40.3289L128.629 71.5815L119.808 119.937L89.1444 123.944L59.793 138.907L75.9212 120.556L38.4289 108.064L29.1669 57.3004Z" fill="white" stroke="#362C73" stroke-width="2" stroke-linecap="round" stroke-linejoin="round"/>
<path d="M36.3904 51.2402L81.0754 34.2687L135.853 65.5213L127.032 113.877L96.3679 117.883L67.0165 132.847L83.1447 114.496L45.6524 102.004L36.3904 51.2402Z" fill="#FFC56E" stroke="#FFC56E" stroke-width="1.5" stroke-linecap="round" stroke-linejoin="round"/>
<path d="M83.4783 13.777C83.6103 13.6939 83.7646 13.6707 83.9067 13.7171L90.3278 15.817C90.4699 15.8634 90.5807 15.9734 90.6381 16.1185C90.686 16.2605 90.6772 16.4155 90.6022 16.5489L82.6484 30.0033C82.5295 30.2065 82.2903 30.2968 82.063 30.2224C81.8357 30.1481 81.6961 29.934 81.7202 29.6998L83.2529 14.1455C83.2712 13.9936 83.3462 13.8602 83.4783 13.777Z" fill="#362C73"/>
<path d="M99.7747 22.0963C99.926 22.0826 100.071 22.1512 100.173 22.2581L104.678 27.3003C104.776 27.4166 104.821 27.5682 104.793 27.717C104.765 27.8659 104.681 27.9962 104.552 28.0698L90.9707 35.7464C90.7663 35.8586 90.5076 35.8161 90.3555 35.64C90.2034 35.4639 90.1834 35.2047 90.3181 35.0171L99.3942 22.2983C99.4756 22.1775 99.6171 22.0974 99.7653 22.0932L99.7747 22.0963Z" fill="#362C73"/>
<path d="M72.575 13.2014C72.461 13.101 72.3033 13.0705 72.1584 13.0968L65.5447 14.503C65.3967 14.5388 65.271 14.6346 65.2054 14.7711C65.1398 14.9075 65.1311 15.0626 65.1916 15.1982L71.6126 29.4159C71.7113 29.6272 71.9451 29.7457 72.1718 29.6935C72.3986 29.6414 72.5679 29.4441 72.5701 29.2131L72.7627 13.5892C72.7589 13.4405 72.7015 13.2954 72.575 13.2014Z" fill="#362C73"/>
<path d="M29.1669 57.3004L73.8518 40.3289L128.629 71.5815L119.808 119.937L89.1444 123.944L59.793 138.907L75.9212 120.556L38.4289 108.064L29.1669 57.3004Z" stroke="#362C73" stroke-width="2" stroke-linecap="round" stroke-linejoin="round"/>
<path d="M78.0154 90.9967C74.6196 90.1122 72.3111 89.4924 71.0901 89.1373C69.8863 88.7868 69.3997 88.1697 69.6302 87.2862C70.1183 85.4152 72.1739 81.2237 75.797 74.7115C79.4202 68.1993 81.4762 64.3964 81.965 63.3027C82.4584 62.1916 82.8844 61.5163 83.2429 61.2766C83.6015 61.037 84.2968 60.9961 85.3288 61.1539C86.3653 61.2944 88.5283 61.6913 91.8179 62.3447C95.1294 62.9853 97.4261 63.4725 98.7082 63.8065C100.008 64.145 100.529 64.8079 100.271 65.7954C100.194 66.0899 100.063 66.3795 99.8777 66.6643C96.7396 71.1752 93.2543 75.4568 89.4217 79.5093C85.6945 83.4412 82.8709 86.924 80.9509 89.9575C80.2933 90.9888 79.3148 91.3352 78.0154 90.9967ZM76.4789 103.695C75.1803 104.56 73.6221 105.107 71.8045 105.336C70.0041 105.57 68.1337 105.434 66.1933 104.929C64.2701 104.428 62.7703 103.51 61.6939 102.175C60.6174 100.84 60.2622 99.4711 60.6283 98.0679C60.9944 96.6646 61.8376 95.5245 63.1581 94.6474C64.5004 93.7575 66.0718 93.1954 67.8721 92.9614C69.6724 92.7273 71.5342 92.8607 73.4573 93.3617C75.3978 93.8671 76.893 94.8024 77.9431 96.1675C79.0151 97.5198 79.368 98.8975 79.002 100.301C78.6404 101.687 77.7994 102.818 76.4789 103.695Z" fill="#C230BC"/>
</g>
<defs>
<clipPath id="clip0_5_11472">
<rect width="117" height="135" fill="white" transform="translate(41.9612) rotate(18.1089)"/>
</clipPath>
</defs>
</svg>
