<svg transform="scale(1)" version="1.1" id="Layer_1" xmlns="http://www.w3.org/2000/svg" xmlns:xlink="http://www.w3.org/1999/xlink" x="0px" y="0px" viewBox="0 0 500 500" xml:space="preserve" class="show_show__wrapper__graphic__5Waiy "><title>React</title><style type="text/css">
	.st0{fill:#81947e;}
	.st1{fill:#FFFFFF;}
	.st2{fill:#0e7544;}
	.st3{fill:none;}
</style><g id="chairs"><path class="st0" d="M367.8,291.5c0,0,16.4-105.5,20.7-113.5s18-9,44.5-5.8c9.7,1.2,16.5,3.3,21.2,5.4c6.3,2.9,9.8,9.6,8.6,16.4
		l-18.6,104.9L367.8,291.5z"></path><path class="st0" d="M444.1,299.7H444l-76.3-7.4c-0.4,0-0.7-0.4-0.7-0.8c0,0,0,0,0-0.1c0.7-4.3,16.5-105.7,20.8-113.7
		s16.9-9.6,45.3-6.2c8.6,1,15.8,2.9,21.4,5.5c6.5,3,10.2,10.1,9,17.2L444.9,299C444.8,299.4,444.5,299.7,444.1,299.7z M368.6,290.8
		l74.9,7.3L462,193.9c1.1-6.4-2.2-12.8-8.1-15.5c-5.5-2.6-12.6-4.4-21-5.4c-23-2.8-39.3-2.9-43.8,5.4
		C385.2,185.8,370.2,281.1,368.6,290.8z"></path><path class="st1" d="M422.9,299.7h-0.1c-0.4-0.1-0.7-0.5-0.6-0.9l18.6-104.9v-0.1c0.7-2.7,0.3-5.5-1.1-7.9c-2.1-3.3-6.4-5.3-12.7-6
		c-0.4,0-0.7-0.4-0.7-0.8s0.4-0.7,0.8-0.7c0,0,0,0,0,0c6.8,0.8,11.4,3,13.8,6.7c1.7,2.7,2.1,6,1.3,9.1L423.6,299
		C423.6,299.4,423.3,299.7,422.9,299.7z"></path><path class="st0" d="M151,291.5c0,0-16.5-105.5-20.7-113.5s-18-9-44.5-5.8c-9.7,1.2-16.5,3.3-21.2,5.4c-6.3,2.9-9.8,9.6-8.6,16.4
		l18.6,104.9L151,291.5z"></path><path class="st0" d="M74.6,299.7c-0.4,0-0.7-0.3-0.7-0.6L55.3,194.1c-1.2-7.1,2.5-14.1,9-17.2c5.7-2.6,12.9-4.5,21.4-5.5
		c28.4-3.4,41.1-1.7,45.3,6.2s20,109.4,20.7,113.7c0.1,0.4-0.2,0.8-0.6,0.9c0,0,0,0-0.1,0L74.6,299.7L74.6,299.7z M108.5,171.3
		c-7.6,0.1-15.1,0.7-22.7,1.7c-8.4,1-15.5,2.8-21,5.4c-5.9,2.7-9.3,9.1-8.1,15.5l18.5,104.2l74.9-7.3c-1.5-9.7-16.5-105-20.5-112.4
		C126.8,173.2,119.4,171.3,108.5,171.3L108.5,171.3z"></path><path class="st1" d="M95.8,299.7c-0.4,0-0.7-0.3-0.7-0.6L76.5,194.2c-0.9-3.1-0.4-6.4,1.3-9.1c2.4-3.7,7-5.9,13.8-6.7
		c0.4-0.1,0.8,0.2,0.8,0.6s-0.2,0.8-0.6,0.8c0,0,0,0,0,0c-6.3,0.7-10.6,2.7-12.7,6c-1.4,2.4-1.8,5.2-1.1,7.9v0.1l18.7,104.9
		c0.1,0.4-0.2,0.8-0.6,0.9L95.8,299.7z"></path></g><g id="character_female"><path class="st1" d="M320.9,200.3c0,0-18.9-17.2-21.6-19.5s-3.7-14.2-4.6-18.4s-5.5,0.9-2.8,7.4s-7.4-10.1-13.3-13.3
		s-7.8,14.2-6.9,21.1s12.4,12,17.5,16.6s23.5,32.2,23.5,32.2L320.9,200.3z"></path><path class="st0" d="M312.6,227.1c-0.3,0-0.5-0.1-0.6-0.3c-0.2-0.3-18.4-27.6-23.3-32c-1.8-1.6-3.8-3-5.8-4.3
		c-5.3-3.6-11.2-7.6-11.9-12.7c-0.8-5.9,0.3-19,4.4-21.8c1.1-0.8,2.5-0.8,3.6-0.1c3.5,1.9,8,7.7,11.1,11.6l0.6,0.7
		c-0.7-2.4-0.3-5,1.1-7c0.5-0.7,1.3-1,2.1-0.9c0.5,0.1,1.2,0.6,1.6,2.1c0.2,1.1,0.5,2.7,0.8,4.6c0.7,4.7,1.8,11.9,3.6,13.4
		c2.7,2.3,20.9,18.9,21.7,19.6c0.2,0.2,0.3,0.5,0.2,0.8l-8.3,26c-0.1,0.3-0.3,0.5-0.6,0.5L312.6,227.1z M277.1,156.8
		c-0.4,0-0.7,0.1-1,0.3c-3.2,2.2-4.6,14.2-3.8,20.4c0.6,4.5,6.3,8.3,11.3,11.7c2.1,1.3,4.1,2.8,6,4.4c4.5,4.1,19,25.5,22.7,31
		l7.7-24c-2.6-2.4-18.8-17.1-21.2-19.2c-2.1-1.7-3.1-7.5-4.1-14.3c-0.3-1.9-0.5-3.4-0.7-4.5c-0.2-0.7-0.4-0.9-0.5-0.9
		s-0.3,0.1-0.6,0.4c-0.9,1.1-1.7,3.9-0.3,7.4c0.5,1.1,0.9,2,0.1,2.4s-1.1,0-3.9-3.6s-7.4-9.5-10.6-11.2
		C277.9,156.9,277.5,156.8,277.1,156.8z"></path><g id="Character_Female-2"><path class="st0" d="M412.1,279.9c0,0,10.9,13.5,11.2,36.5l-86.3-1.6l13.8-51.1L412.1,279.9L412.1,279.9z"></path><path class="st0" d="M360.1,114.4c0.2-0.4,0.5-0.8,0.7-1.1c8.2-12.6,25.5-13.8,36.8-4.4c0.8,0.8,1.7,1.4,2.7,1.8
			c1.2,0.3,2.5,0.5,3.7,0.5c4.4,0.6,7.4,4.5,9.9,8.1c7.1,10.7,8.3,28.5,8.3,41.1c0,9.9-2.4,20-8.4,27.8
			c-8.6,11.1-23.1,15.7-37.1,16.9c-15.4,1.3-32.6-1.8-42.5-13.7c-4.1-5-6.7-12-4.5-18.1c1.9-5.3,6.9-8.8,10.6-13.1
			C351.5,147.6,351.5,128.7,360.1,114.4L360.1,114.4z"></path><path class="st2" d="M363.6,178c0,0-29.1,20.7-34.5,23.3s-17.5-13.2-17.5-13.2L291,213c0,0,21.2,20.1,31.8,24.4
			s32.9-5.8,40.3-11.1S363.6,178,363.6,178z"></path><path class="st2" d="M349.8,272.9c0,0,0.7-28.6-1.5-61.4c1-17.2,6.4-21.2,10.9-29c8.3-14.5,48.1-16.5,64.5-0.5s-11.6,99-11.6,99
			L349.8,272.9z"></path><path class="st1" d="M371.4,169l-1.6,17.5l4.9,24.1l23.1-27.1c0.9-15.7,2-31.3,2.3-47c0.1-0.6-0.2-1.2-0.8-1.3
			c-0.2-0.1-0.5,0-0.7,0.1l-4.6,0.6c-0.1-2.9-0.3-5.8-0.4-8.7c-1.2,1.4-2.2,3-3,4.6l-12.8-1.1c-0.5-2.6-1-5.2-1.5-7.8
			c-1,1.1-1,2.6-1.2,4.1s-0.8,3.1-2.1,3.5c-0.6,0.1-1.3,0.1-1.9-0.1l-9.7-1.9c-0.1,0-1.7,26.1-1.6,28.3
			C360.1,165.9,371.4,168.9,371.4,169L371.4,169z"></path><path class="st0" d="M374.7,211.4c-0.1,0-0.1,0-0.2,0c-0.3-0.1-0.5-0.3-0.5-0.6l-4.9-24.1c0-0.1,0-0.1,0-0.2l1.5-16.9
			c-2.4-0.8-11.3-4.3-11.8-12.7c-0.1-1.4,0.5-11,0.7-15c0.8-13.6,0.8-13.6,1.1-13.9c0.2-0.2,0.4-0.2,0.6-0.2l9.7,1.9
			c0.5,0.1,1,0.2,1.6,0.1c1.2-0.3,1.5-2.1,1.6-2.8c0-0.2,0-0.4,0.1-0.6c0-1.4,0.4-2.7,1.3-3.9c0.2-0.2,0.5-0.3,0.8-0.2
			c0.3,0.1,0.5,0.3,0.5,0.6l1.4,7.2L390,131c0.8-1.5,1.8-3,2.9-4.3c0.2-0.2,0.5-0.3,0.8-0.2c0.3,0.1,0.5,0.4,0.5,0.7l0.4,7.9
			l3.8-0.4c0.7-0.2,1.5,0,2,0.5c0.3,0.4,0.4,0.9,0.4,1.5c-0.2,12-0.9,24.2-1.6,36.1c-0.2,3.6-0.4,7.3-0.6,10.9
			c0,0.2-0.1,0.3-0.2,0.4l-23.1,27.1C375.1,211.3,374.9,211.4,374.7,211.4z M370.6,186.5l4.6,22.5l21.9-25.7
			c0.2-3.6,0.4-7.1,0.6-10.7c0.7-11.8,1.4-24,1.6-36c0-0.2,0-0.3,0-0.5c0,0-0.1-0.1-0.7,0l-4.6,0.6c-0.2,0-0.4,0-0.6-0.2
			c-0.2-0.1-0.3-0.3-0.3-0.5l-0.3-6.6c-0.6,0.9-1.2,1.9-1.7,2.8c-0.1,0.3-0.4,0.4-0.7,0.4l-12.8-1.1c-0.3,0-0.6-0.3-0.7-0.6l-1-5.3
			c0,0.3-0.1,0.6-0.1,0.9s0,0.4-0.1,0.7c-0.3,2.2-1.2,3.7-2.7,4.1c-0.7,0.2-1.5,0.1-2.2-0.1l-8.9-1.7c-0.4,4.4-1.6,25.6-1.5,27.4
			c0.5,8.5,11.1,11.5,11.3,11.6c0.3,0.1,0.6,0.4,0.5,0.7v0.1L370.6,186.5z M371.4,169L371.4,169z"></path><path class="st1" d="M392.1,149.3c1.3-3.7,6.2-6.4,10.1-5.4c5,1.3,4.4,7,2.4,10.6c-2.5,4.5-8.1,6.1-12.6,3.7c0,0-0.1,0-0.1-0.1"></path><path class="st0" d="M396.5,160.1c-1.8,0-3.5-0.4-5-1.3c-0.4-0.2-0.5-0.7-0.3-1c0.2-0.4,0.7-0.5,1-0.3c2,1.1,4.3,1.4,6.5,0.8
			c2.2-0.6,4-2.1,5.2-4.1c1.1-2,1.8-5,0.9-7.2c-0.5-1.2-1.6-2.1-2.9-2.3c-3.4-0.9-8,1.6-9.2,4.9c-0.1,0.4-0.6,0.6-1,0.5
			c-0.4-0.1-0.6-0.6-0.5-1c1.5-4.1,6.8-7,11-5.9c1.7,0.4,3.2,1.6,3.9,3.2c1.2,2.8,0.2,6.3-1,8.5
			C403.5,158.1,400.1,160.1,396.5,160.1L396.5,160.1z"></path><path class="st1" d="M373,138.6c0,0-7.3,8.3-6.1,10s5.4,1.3,5.4,1.3"></path><path class="st0" d="M371,150.7c-1.5,0-3.8-0.2-4.7-1.7c-0.6-0.9-0.6-3.4,6.1-11c0.3-0.3,0.7-0.3,1.1-0.1c0.3,0.3,0.3,0.7,0.1,1.1
			c0,0,0,0,0,0c-3.6,4-6.4,8.3-6,9.1c0.8,1.1,3.7,1.1,4.7,1c0.4-0.1,0.8,0.2,0.8,0.6c0,0,0,0,0,0c0.1,0.4-0.2,0.8-0.6,0.8
			c0,0,0,0,0,0C371.9,150.7,371.5,150.7,371,150.7z"></path><path class="st0" d="M371.4,169c0,0,6.5,1.9,14.9-2.6c0,0-4.1,12-15.8,12L371.4,169L371.4,169z"></path><path class="st0" d="M370.5,179.2c-0.2,0-0.4-0.1-0.5-0.2c-0.1-0.2-0.2-0.4-0.2-0.6l0.9-9.5c0-0.2,0.1-0.4,0.3-0.5
			c0.2-0.1,0.4-0.2,0.5-0.2h0.1c0.1,0,6.4,1.7,14.4-2.5c0.3-0.1,0.6-0.1,0.8,0.1c0.2,0.2,0.3,0.5,0.2,0.8
			C387.1,166.8,382.6,179.2,370.5,179.2L370.5,179.2z M372.1,169.9l-0.7,7.8c7.8-0.4,11.9-6.6,13.5-9.7
			C380.9,169.9,376.4,170.5,372.1,169.9z"></path><ellipse class="st0" transform="matrix(3.316162e-03 -1 1 3.316162e-03 241.0747 521.2461)" cx="382" cy="139.7" rx="2.8" ry="1.2"></ellipse><ellipse class="st0" transform="matrix(5.617004e-02 -0.9984 0.9984 5.617004e-02 207.4201 496.4764)" cx="366.3" cy="138.5" rx="2.8" ry="1.2"></ellipse><path class="st1" d="M389.9,266.1c-17.9-3.9-55.7-34.3-56.6-35.2s-14.2-4.4-16.5-8.5s-3-16.2-3-16.2s-12.8-7.5-12.6-10.2
			s25.7,9.2,27.9,10.4c0,0,2.2-6.5,5.2-4.8s4.3,12.9,8.5,14.8s43.5,20.4,43.5,20.4S407.8,270,389.9,266.1z"></path><path class="st0" d="M392.5,267.2c-0.9,0-1.8-0.1-2.8-0.3c-18-3.9-55.5-34-57-35.4c-1.1-0.5-2.2-0.9-3.3-1.3
			c-4.6-1.7-11.5-4.2-13.3-7.3c-2.1-3.9-2.9-14-3-16.2c-3.5-2-12.9-7.9-12.6-10.7c0-0.4,0.3-0.7,0.6-0.9c0.6-0.3,1.9-1,14.6,4.4
			c5.4,2.3,10.9,4.9,13,5.9c0.5-1.4,1.8-3.9,3.6-4.6c0.8-0.3,1.6-0.2,2.3,0.2c1.6,0.9,2.6,3.6,3.8,6.8c1.2,3.3,2.6,7.1,4.7,8
			c4.1,1.9,43.1,20.2,43.5,20.4c0.1,0.1,0.2,0.2,0.3,0.3c2.4,3.8,4.6,7.8,6.6,11.8c4.1,8.6,5.2,14.3,3.3,17.1
			C395.8,266.6,394.1,267.3,392.5,267.2z M302,196.3c0.5,1.6,6.5,5.9,12.2,9.2c0.2,0.1,0.4,0.4,0.4,0.6c0,0.1,0.7,12,2.9,15.9
			c1.5,2.6,8.4,5.1,12.5,6.6c2.6,1,3.5,1.3,3.9,1.7c1.5,1.5,38.9,31.3,56.2,35l0,0c2.8,0.6,4.7,0.3,5.5-1c3.2-4.7-5.9-21-9.8-27.1
			c-3-1.4-39.3-18.5-43.2-20.3c-2.6-1.2-4-5-5.4-8.8c-1-2.6-2-5.4-3.1-6c-0.3-0.2-0.7-0.2-1-0.1c-1.3,0.5-2.6,3-3.1,4.5
			c-0.1,0.2-0.2,0.4-0.4,0.5c-0.2,0.1-0.4,0.1-0.6,0c-3.4-1.8-23-10.7-26.6-10.7L302,196.3z"></path></g><path class="st1" d="M366.4,153.9c2.8,0.5,5.5,1.2,8.2,2.1c2.9,1.1,0.9,5.1-3.6,4.2S365.4,154.9,366.4,153.9z"></path><path class="st0" d="M372.2,161.1c-0.5,0-0.9-0.1-1.4-0.1c-2.5-0.4-4.6-2.3-5.4-4.7c-0.4-0.9-0.3-2,0.4-2.8
		c0.2-0.2,0.4-0.2,0.6-0.2c2.8,0.5,5.6,1.2,8.3,2.1c1.3,0.4,2.1,1.7,1.8,3.1C376.2,159.8,374.6,161.1,372.2,161.1z M366.8,154.8
		c0,0.4,0,0.9,0.2,1.3c0.7,1.8,2.2,3.1,4.1,3.4c2.3,0.5,3.8-0.6,4-1.5c0.2-0.6-0.1-1-0.8-1.3C371.9,155.9,369.4,155.3,366.8,154.8
		L366.8,154.8z"></path><path class="st2" d="M423.7,209.3c-3.7,28.5-19.6,60-31.1,59.4s-31.1-15.1-31.1-15.1l5.4-27.3l14.7,5.3c0,0-1.5-5.2,2.9-5.3
		c0,0,8.2-27.2,12.2-33"></path><path class="st1" d="M389,246.6c0,0-3.2-9.3-7.4-15"></path><path class="st0" d="M389,247.3c-0.3,0-0.6-0.2-0.7-0.5c0-0.1-3.2-9.2-7.3-14.8c-0.2-0.3-0.2-0.8,0.2-1.1s0.8-0.2,1.1,0.2
		c4.3,5.7,7.4,14.8,7.5,15.2c0.1,0.4-0.1,0.8-0.4,0.9c0,0,0,0,0,0C389.2,247.3,389.1,247.3,389,247.3z"></path><line class="st3" x1="390.6" y1="231.3" x2="384.5" y2="226.3"></line><path class="st0" d="M390.6,232.1c-0.2,0-0.3-0.1-0.5-0.2l-6.1-5c-0.3-0.3-0.4-0.8-0.1-1.1c0.3-0.3,0.8-0.4,1.1-0.1l6.1,5
		c0.3,0.3,0.4,0.7,0.1,1c0,0,0,0,0,0C391,232,390.8,232.1,390.6,232.1z"></path><path class="st0" d="M392.9,269.5h-0.4c-11.6-0.7-30.7-14.7-31.5-15.3c-0.2-0.2-0.4-0.5-0.3-0.8l5.4-27.3c0-0.2,0.2-0.4,0.4-0.5
		c0.2-0.1,0.4-0.1,0.6,0l13.5,4.9c-0.2-1.2,0.1-2.4,0.8-3.5c0.6-0.8,1.5-1.3,2.5-1.4c1.2-3.8,8.4-27.2,12.1-32.7
		c0.2-0.3,0.7-0.4,1-0.2c0.3,0.2,0.4,0.7,0.2,1c-3.9,5.7-12,32.5-12.1,32.8c-0.1,0.3-0.4,0.5-0.7,0.5c-0.7,0-1.4,0.3-1.9,0.8
		c-0.9,1.2-0.3,3.5-0.3,3.5c0.1,0.4-0.1,0.8-0.5,0.9c-0.2,0-0.3,0-0.5,0l-13.9-5l-5.2,26c2.8,2,20.1,14.1,30.4,14.7h0.3
		c10.7,0,26.4-30.4,30-58.7c0.1-0.4,0.4-0.7,0.8-0.6c0.4,0.1,0.7,0.4,0.7,0.8c0,0,0,0,0,0C421,236.2,405.5,269.5,392.9,269.5z"></path><path class="st0" d="M351.1,220.6c-0.3,0-0.6-0.2-0.7-0.6l-0.3-0.9c-0.8-3-0.8-6.2,0.1-9.2l5.6-19c0.1-0.4,0.5-0.6,0.9-0.5
		c0,0,0,0,0,0c0.4,0.1,0.6,0.5,0.5,0.9l-5.6,19c-0.8,2.8-0.8,5.7-0.1,8.4l0.3,1c0.1,0.4-0.1,0.8-0.5,0.9c0,0,0,0,0,0L351.1,220.6z"></path></g><g id="Character_Male"><path class="st1" d="M235.6,200.5c0,0,8.6-34.7,10.1-33.2s2,7.5,0.2,12.2c0,0,12-18.2,14.5-16s8,7.2,7.2,11.5s-13.4,25-13.4,25
		l-3.5,7.9L235.6,200.5z"></path><path class="st0" d="M250.8,208.7c-0.1,0-0.2,0-0.3-0.1l-15.2-7.4c-0.3-0.2-0.5-0.5-0.4-0.9c0-0.1,2.1-8.3,4.3-16.4
		c4.6-16.9,5.6-17.1,6.2-17.3c0.3-0.1,0.6,0,0.9,0.2c1.4,1.4,1.9,5.2,1.4,9c3.4-4.9,9.3-12.7,12-13.1c0.5-0.1,0.9,0.1,1.3,0.4
		c2.5,2.2,8.3,7.5,7.5,12.2c-0.8,4.3-13,24.4-13.5,25.2l-3.4,7.8C251.3,208.6,251.1,208.8,250.8,208.7L250.8,208.7z M236.5,200.1
		l14,6.9l3.2-7.2c3.6-5.8,12.8-21.5,13.4-24.8c0.7-3.9-4.7-8.7-7-10.8c-1.3-0.4-7.4,6.8-13.3,15.8c-0.2,0.3-0.6,0.4-1,0.3
		c-0.3-0.2-0.5-0.6-0.4-0.9c1.5-4,1.2-8.9,0.3-10.8C244,171.7,239.9,186.5,236.5,200.1L236.5,200.1z"></path><path class="st2" d="M173.5,181.5l39.9,48.4l22.7-35.4l20,13c0,0-19.5,59.5-36.2,60.4s-49.5-34.9-49.5-34.9L173.5,181.5
		L173.5,181.5z"></path><path class="st2" d="M131.6,169.3c0,0-39.7,8.6-42.8,23.4s13.6,113.4,13.6,125.8l89.2-1.8c0,0-11.8-90.2-12.7-105
		s-3.1-27.9-5.4-30.2S138.8,163.6,131.6,169.3L131.6,169.3z"></path><path class="st0" d="M127.3,177.7c0.7,2.2,31.8,74.4,31.8,74.4l-5.8-65.7L127.3,177.7L127.3,177.7z"></path><path class="st0" d="M159.1,252.9c-0.3,0-0.6-0.2-0.7-0.5c-1.3-2.9-31.1-72.3-31.8-74.5c-0.1-0.3,0-0.6,0.2-0.8
		c0.2-0.2,0.5-0.3,0.8-0.2l26,8.7c0.3,0.1,0.5,0.4,0.5,0.6l5.8,65.7c0,0.4-0.2,0.7-0.6,0.8C159.2,252.9,159.1,252.9,159.1,252.9z
		 M128.6,178.9c3.2,7.9,19.2,45.2,29.3,68.6l-5.3-60.5L128.6,178.9z"></path><path class="st0" d="M116.5,135.8c-1.8-11.9,4.6-23.2,12.7-19.7c2.8-12,54.8-18.7,47.7,11.7c-1,3.1-3.1,6.8-6.1,8.3
		c-3.3,1.7-7.1,1.3-10.1,3.9c-3.2,2.8-5.6,7.1-8.6,10.2c-4.7,5.1-10.5,8.9-17.1,11.2c-2.4,0.8-3.1,2-5.2,3.1c-1,0.5-2.1,0.8-3.2,1.1
		C126.7,165.6,116.3,144.3,116.5,135.8z"></path><path class="st1" d="M168,126.4c3.2,3.8,4.7,7.5,2,16.5c-0.1,2,4.8,8.2,4.6,10.3c-0.1,1.2-4.9,0.7-5,1.9c-0.4,4.6-0.4,7.3-0.9,11.9
		c-0.6,5-13.5,4.4-15.7,2.8l0.3,16.6c0,0-3.6,9-13.7,3.6s-12.3-12.2-12.3-12.2l3.9-20.9c0,0,9.5,0.6,15.1-9.3
		c7.6-10.7,6.8-20.5,6.8-20.5s9.1-1.6,13.8,2.7L168,126.4z"></path><path class="st0" d="M145.6,192.4c-2.3-0.1-4.5-0.7-6.4-1.8c-10.4-5.5-12.5-12.4-12.6-12.7c0-0.1,0-0.2,0-0.4l3.9-20.8
		c0.1-0.4,0.4-0.6,0.8-0.6c0.4,0,9.1,0.4,14.4-9c7.5-10.5,6.7-20,6.7-20.1c0-0.4,0.2-0.7,0.6-0.8c0.4-0.1,8.5-1.4,13.5,2.2l0.7-2.3
		c0.1-0.3,0.3-0.5,0.6-0.5c0.3-0.1,0.5,0,0.7,0.2c3.5,4.1,4.9,8,2.2,17.2c0,0.8,1.2,2.9,2.2,4.6c1.6,2.7,2.5,4.4,2.4,5.6
		s-1.6,1.4-3.1,1.7c-0.6,0.1-1.3,0.2-1.9,0.4c-0.1,1.8-0.2,3.4-0.3,4.8c-0.1,2.2-0.2,4.2-0.6,7c-0.1,1-0.7,2.4-3,3.4
		c-3.6,1.6-9.8,1.4-12.7,0.4l0.3,15.4c0,0.1,0,0.2-0.1,0.3c-1,2.4-3,4.3-5.4,5.2C147.7,192.3,146.7,192.5,145.6,192.4z M128.1,177.6
		c0.4,1,2.9,6.9,11.8,11.6c3.1,1.7,5.9,2.1,8.2,1.2c2-0.8,3.6-2.3,4.4-4.3l-0.3-16.5c0-0.4,0.3-0.7,0.7-0.8c0.2,0,0.3,0,0.5,0.2
		c1.4,1,8.6,1.7,12.4,0c1.3-0.6,2-1.3,2.1-2.2c0.3-2.7,0.4-4.7,0.5-6.9c0.1-1.5,0.2-3.1,0.3-5c0.1-1.2,1.6-1.4,3.1-1.7
		c0.6-0.1,1.3-0.2,1.9-0.4c-0.1-0.9-1.3-2.9-2.2-4.6c-1.6-2.7-2.5-4.4-2.4-5.5c0-0.1,0-0.1,0-0.2c2.3-7.8,1.6-11.4-1-14.8l-0.6,2
		c-0.1,0.2-0.3,0.4-0.5,0.5c-0.2,0.1-0.5,0-0.7-0.2c-3.6-3.3-10.4-2.9-12.5-2.6c0.1,2.5-0.3,11-7,20.3c-5,8.7-12.8,9.6-15.1,9.6
		L128.1,177.6z"></path><path class="st1" d="M168.9,163.3c0,0-5.4,0.8-5.7-4.4l6-0.3L168.9,163.3z"></path><path class="st0" d="M168.2,164.1c-1.4,0-2.8-0.4-3.9-1.2c-1.1-1-1.8-2.4-1.8-3.9c0-0.2,0.1-0.4,0.2-0.6c0.1-0.1,0.3-0.2,0.5-0.2
		l6-0.3c0.2,0,0.4,0.1,0.6,0.2c0.1,0.2,0.2,0.4,0.2,0.6l-0.4,4.7c0,0.3-0.3,0.6-0.6,0.7C168.7,164,168.4,164.1,168.2,164.1z
		 M168.9,163.3L168.9,163.3z M164.1,159.6c0.1,0.8,0.5,1.5,1.1,2.1c0.9,0.6,1.9,0.9,3,0.9l0.2-3.2L164.1,159.6z"></path><path class="st1" d="M151.4,140.3c-9.7-13.6-21,1.7-5.2,12.7"></path><path class="st0" d="M146.2,153.8c-0.2,0-0.3,0-0.4-0.1c-7.1-4.9-8.8-10.6-8-14.3c0.3-2.4,2.1-4.4,4.5-5c3.2-0.7,6.8,1.3,9.8,5.5
		c0.3,0.3,0.2,0.8-0.1,1.1c-0.3,0.3-0.8,0.2-1.1-0.1c0,0,0-0.1-0.1-0.1c-2.6-3.7-5.6-5.5-8.2-4.9c-1.8,0.5-3.1,2-3.4,3.8
		c-0.6,3.2,1,8.3,7.4,12.8c0.3,0.2,0.4,0.7,0.2,1C146.7,153.6,146.5,153.7,146.2,153.8L146.2,153.8z"></path><path class="st0" d="M153.1,169.8c0,0-6.6-2.5-9.5-7.2c0,0-0.2,12.1,9.9,16.1L153.1,169.8z"></path><path class="st0" d="M153.5,179.4c-0.1,0-0.2,0-0.3,0c-10.5-4.2-10.4-16.7-10.4-16.8c0-0.3,0.2-0.6,0.6-0.7
		c0.3-0.1,0.7,0.1,0.8,0.3c2.7,4.5,9,6.9,9.1,6.9c0.3,0.1,0.5,0.4,0.5,0.7l0.4,8.9c0,0.3-0.1,0.5-0.3,0.6
		C153.8,179.4,153.6,179.4,153.5,179.4z M144.5,165c0.5,3.4,2.2,9.5,8.1,12.4l-0.3-7.2C149.4,169,146.8,167.3,144.5,165z"></path><ellipse class="st0" transform="matrix(6.470646e-02 -0.9979 0.9979 6.470646e-02 15.2676 296.474)" cx="165.8" cy="140.1" rx="2.9" ry="1.2"></ellipse><path class="st0" d="M184.1,262.1c-0.4,0-0.7-0.3-0.7-0.6l-5.4-42.5c-0.1-0.4,0.2-0.8,0.6-0.8c0.4-0.1,0.8,0.2,0.8,0.7l5.4,42.5
		c0.1,0.4-0.2,0.8-0.6,0.8C184.2,262.2,184.1,262.2,184.1,262.1L184.1,262.1z"></path></g><g id="Table"><g id="Table-2"><rect class="st1" x="47.9" y="332.5" width="412.5" height="84.8"></rect><path class="st0" d="M460.4,418H47.9c-0.4,0-0.7-0.3-0.8-0.8v-84.8c0-0.4,0.3-0.8,0.8-0.8h412.5c0.4,0,0.8,0.3,0.8,0.8v84.8
			C461.2,417.6,460.8,418,460.4,418C460.4,418,460.4,418,460.4,418z M48.6,416.5h411v-83.3h-411V416.5z"></path></g><polygon class="st1" points="41.1,320.7 467,320.7 437.9,287.3 70.3,287.3 	"></polygon><path class="st0" d="M467,321.4H41.1c-0.4,0-0.8-0.3-0.8-0.7c0-0.2,0.1-0.4,0.2-0.5l29.2-33.4c0.1-0.2,0.4-0.3,0.6-0.2h367.6
		c0.2,0,0.4,0.1,0.6,0.2l29.1,33.4c0.2,0.2,0.2,0.5,0.1,0.8C467.6,321.3,467.3,321.4,467,321.4z M42.7,319.9h422.7l-27.8-31.9h-367
		L42.7,319.9z"></path><polygon class="st1" points="163,307.9 162.1,311.9 215.9,314.3 258.6,294.4 257.6,292.1 	"></polygon><path class="st0" d="M215.9,315L215.9,315l-53.8-2.4c-0.2,0-0.4-0.1-0.6-0.3c-0.1-0.2-0.2-0.4-0.1-0.6l0.9-4
		c0.1-0.3,0.3-0.5,0.6-0.6l94.6-15.9c0.3-0.1,0.7,0.1,0.8,0.4l1,2.3c0.2,0.4,0,0.8-0.4,1c0,0,0,0,0,0l-42.7,20
		C216.1,315,216,315,215.9,315z M163,311.2l52.7,2.3l41.9-19.5l-0.5-1.1l-93.5,15.7L163,311.2z"></path><rect class="st1" x="40.8" y="320.8" width="426.6" height="13.6"></rect><path class="st0" d="M467.4,335.1H40.8c-0.4,0-0.7-0.3-0.8-0.8v-13.6c0-0.4,0.3-0.7,0.8-0.8h426.6c0.4,0,0.8,0.3,0.8,0.8v13.6
		C468.2,334.8,467.9,335.1,467.4,335.1z M41.6,333.6h425.1v-12.1H41.6L41.6,333.6z"></path><polygon class="st1" points="216.5,310 163,307.9 207.3,290.6 257.6,292.1 	"></polygon><path class="st0" d="M216.5,310.7L216.5,310.7l-53.5-2c-0.4,0-0.7-0.3-0.7-0.7c0-0.3,0.2-0.6,0.5-0.7L207,290c0.1,0,0.2-0.1,0.3,0
		l50.3,1.4c0.4,0,0.7,0.3,0.8,0.7c0,0.3-0.2,0.6-0.5,0.7l-41,17.9C216.8,310.7,216.6,310.7,216.5,310.7z M166.6,307.3l49.8,1.9
		l37.8-16.5l-46.8-1.3L166.6,307.3z"></path><polygon class="st1" points="216.5,310 222,249 266.3,231.7 257.6,292.1 	"></polygon><path class="st0" d="M216.5,310.7c-0.2,0-0.3,0-0.4-0.1c-0.2-0.2-0.3-0.4-0.3-0.7l5.5-60.9c0-0.3,0.2-0.5,0.5-0.6L266,231
		c0.2-0.1,0.5-0.1,0.7,0.1c0.2,0.2,0.3,0.4,0.3,0.7l-8.7,60.3c0,0.3-0.2,0.5-0.4,0.6l-41,17.9C216.7,310.7,216.6,310.7,216.5,310.7z
		 M222.7,249.6l-5.3,59.2l39.5-17.2l8.5-58.7L222.7,249.6z"></path><polygon class="st1" points="293,294.7 314.2,310.6 365.1,301.6 339.7,288.3 	"></polygon><path class="st0" d="M314.2,311.3c-0.2,0-0.3-0.1-0.5-0.1l-21.2-15.9c-0.3-0.2-0.4-0.7-0.2-1c0.1-0.2,0.3-0.3,0.5-0.3l46.6-6.4
		c0.2,0,0.3,0,0.5,0.1l25.5,13.2c0.4,0.2,0.5,0.7,0.3,1c-0.1,0.2-0.3,0.3-0.5,0.4l-50.9,9L314.2,311.3z M295,295.2l19.5,14.6
		l48.4-8.6l-23.3-12.1L295,295.2z"></path><polygon class="st1" points="347.9,300 370.2,318 416.3,304.2 390.8,291 	"></polygon><path class="st0" d="M370.2,318.7c-0.2,0-0.3-0.1-0.5-0.2l-22.3-18c-0.3-0.3-0.4-0.7-0.1-1.1c0.1-0.1,0.3-0.2,0.4-0.3l42.9-9
		c0.2,0,0.3,0,0.5,0.1l25.4,13.2c0.4,0.2,0.5,0.7,0.3,1c-0.1,0.2-0.2,0.3-0.4,0.4l-46.1,13.8C370.3,318.8,370.2,318.8,370.2,318.7z
		 M349.6,300.4l20.7,16.8l44-13.1l-23.6-12.3L349.6,300.4z"></path></g><g id="Right_Hand"><path class="st1" d="M173.7,285c0,0,17.8-11.2,22.1-10.6c3.3,0.5,6.2,3.8,8.4,6c2.9,2.9,5.2,5.6,5.8,9.8c0.4,2,0,4.1-1.2,5.8
		c-1.9,2.3-4.6,1.6-6.4-0.2c-2.4-2.4-4-3-6.4-2.4c-6.4,3.5-21.6,3.6-21.6,3.6L173.7,285L173.7,285z"></path><path class="st0" d="M205.9,298.1c-1.6-0.1-3-0.7-4.1-1.9c-2.2-2.2-3.5-2.8-5.6-2.2c-6.5,3.6-21.3,3.7-21.9,3.7l0,0
		c-0.4,0-0.7-0.3-0.7-0.7l-0.6-11.9c0-0.3,0.1-0.5,0.3-0.7c1.9-1.2,18.1-11.4,22.6-10.8c3.2,0.5,5.9,3.2,8,5.4l0.8,0.8
		c2.8,2.8,5.4,5.7,6,10.2c0.4,2.2,0,4.5-1.3,6.3c-0.8,1-2,1.6-3.2,1.7L205.9,298.1z M197.5,292.3c1.8,0,3.3,0.9,5.3,2.9
		c0.8,0.9,2,1.4,3.2,1.5c0.8-0.1,1.6-0.5,2.1-1.2c1.3-1.6,1.2-3.9,1-5.2c-0.6-4.1-2.9-6.6-5.6-9.3l-0.8-0.9c-2-2.1-4.5-4.6-7.2-5
		c-2.9-0.4-14.1,5.8-21.2,10.3l0.6,10.7c3.1-0.1,15.2-0.5,20.6-3.5c0.1,0,0.1-0.1,0.2-0.1C196.3,292.4,196.9,292.3,197.5,292.3z"></path><path class="st2" d="M121.8,192.1c1.9,11.3-3.5,62.5,0.9,68.6s58.3,17.5,58.3,17.5l-4.4,24.1c0,0-63-3.1-79.6-11.8
		s-14.4-68.2-13.1-84.3C88,168.1,119.9,180.9,121.8,192.1z"></path><path class="st0" d="M176.6,303.1L176.6,303.1c-2.6-0.1-63.4-3.2-79.9-11.9c-7.3-3.9-11.9-17.3-13.6-40c-1-15-1-30,0.1-45
		c0-0.4,0.4-0.7,0.8-0.7c0.4,0,0.7,0.4,0.7,0.8c-1,14.9-1.1,29.9-0.1,44.8c1.7,21.8,6.1,35.2,12.8,38.8c15.3,8,71.9,11.3,78.6,11.7
		l4.1-22.8c-8.1-1.7-53.7-11.7-58-17.6c-2.8-3.8-2-22.5-1.3-40.6c0.2-4.9,0.4-9.6,0.5-13.8c0-0.4,0.4-0.7,0.8-0.7
		c0.4,0,0.7,0.4,0.7,0.8c-0.1,4.2-0.3,8.9-0.5,13.8c-0.7,16.2-1.5,36.3,1,39.6c3.5,4.8,42.9,14,57.8,17.2c0.4,0.1,0.6,0.5,0.6,0.9
		l-4.4,24.1C177.4,302.9,177,303.1,176.6,303.1z"></path></g><g id="bubble_chat"><path class="st1" d="M214.4,97.3c-16.2,0-29.3,13.1-29.3,29.3c0,7.8,3.1,15.3,8.7,20.8c-3.6,4.1-8.4,8.1-14.3,9.8
		c7.7-0.3,15.4-1.6,22.7-3.9c14.7,6.7,32.1,0.3,38.9-14.5s0.3-32.1-14.5-38.9C222.8,98.2,218.6,97.3,214.4,97.3L214.4,97.3z"></path><path class="st0" d="M179.4,158c-0.4,0-0.8-0.3-0.8-0.7c0-0.3,0.2-0.6,0.5-0.7c4.7-1.4,9.2-4.4,13.5-9c-11.5-12-11.2-31.1,0.8-42.6
		c12-11.5,31.1-11.2,42.6,0.8s11.2,31.1-0.8,42.6c-8.9,8.5-22,10.8-33.2,5.8C194.8,156.4,187.1,157.7,179.4,158L179.4,158z
		 M214.4,98c-15.8,0-28.6,12.8-28.6,28.6c0,7.6,3,14.9,8.5,20.3c0.3,0.3,0.3,0.7,0,1c-2.9,3.3-6.3,6.1-10.2,8.2
		c6.1-0.6,12-1.8,17.8-3.6c0.2-0.1,0.4-0.1,0.5,0c14.3,6.7,31.3,0.5,38-13.8c6.7-14.3,0.5-31.3-13.8-38
		C222.8,98.9,218.6,98,214.4,98z"></path><polygon class="st1" points="213.7,109.7 203.1,128.4 213.5,127.4 199.9,146.1 232.1,119.6 219.2,119.8 229.5,109.2 	"></polygon><path class="st0" d="M199.9,146.8c-0.4,0-0.7-0.3-0.7-0.8c0-0.2,0.1-0.3,0.1-0.4l12.6-17.3l-8.7,0.8c-0.3,0-0.5-0.1-0.7-0.3
		c-0.1-0.2-0.1-0.5,0-0.8l10.6-18.7c0.1-0.2,0.4-0.4,0.6-0.4l15.8-0.4c0.3,0,0.6,0.2,0.7,0.4c0.1,0.3,0.1,0.6-0.1,0.8l-9,9.3
		l11.1-0.2c0.3,0,0.6,0.2,0.7,0.5c0.1,0.3,0,0.6-0.2,0.8l-32.2,26.5C200.3,146.7,200.1,146.8,199.9,146.8z M213.5,126.6
		c0.3,0,0.5,0.1,0.6,0.4c0.2,0.2,0.2,0.6,0,0.8L204,141.8l26-21.4l-10.8,0.2c-0.4,0-0.8-0.3-0.8-0.8c0-0.2,0.1-0.4,0.2-0.5l9-9.2
		l-13.5,0.4l-9.7,17.1L213.5,126.6L213.5,126.6z"></path></g><g id="lamp"><path class="st1" d="M311.6,121.1c0.8-0.4,1.1-1.3,0.8-2.1c-0.2-0.5-0.6-0.8-1.1-0.9c0.7-0.2,1.2-0.8,1.2-1.5c0-0.5-0.3-1-0.7-1.3
		h0.7v-3.2l-16.3,0.2v3.2h0.7c-0.5,0.3-0.7,0.8-0.7,1.3c0,0.7,0.5,1.4,1.2,1.5c-0.8,0.2-1.4,1-1.2,1.9c0.1,0.5,0.4,0.9,0.9,1.1
		c-0.8,0.4-1.1,1.3-0.8,2.1c0.2,0.5,0.6,0.8,1.1,0.9c0.2,3.6,5.6,4.9,9.6,3.9c2.3-0.6,4.2-1.9,4.3-4c0.8-0.2,1.4-1,1.2-1.8
		C312.4,121.7,312.1,121.3,311.6,121.1L311.6,121.1z"></path><path class="st0" d="M304.4,129.1c-2,0.1-4-0.5-5.7-1.6c-1-0.7-1.6-1.7-1.8-2.8c-1.1-0.5-1.6-1.9-1.1-3c0.1-0.2,0.2-0.3,0.3-0.4
		c-0.3-0.4-0.5-0.9-0.5-1.4c0-0.6,0.2-1.1,0.6-1.5c-0.4-0.4-0.6-1-0.6-1.5c0-0.3,0-0.6,0.1-0.8c-0.1-0.1-0.2-0.3-0.2-0.5v-3.2
		c0-0.4,0.3-0.7,0.7-0.8l16.3-0.2l0,0c0.4,0,0.8,0.3,0.8,0.8v3.2c0,0.2-0.1,0.3-0.1,0.5c0.1,0.3,0.2,0.6,0.2,0.8
		c0,0.6-0.2,1.1-0.6,1.5c0.4,0.4,0.6,1,0.6,1.5c0,0.5-0.2,1-0.5,1.4c0.3,0.4,0.5,0.9,0.5,1.4c0,0.9-0.5,1.7-1.3,2.1
		c-0.3,2-2.1,3.5-4.8,4.2C306.3,129,305.3,129.1,304.4,129.1z M296.9,114.7c0.3,0,0.6,0.2,0.7,0.5c0.1,0.3,0,0.7-0.3,0.8
		c-0.2,0.1-0.4,0.4-0.4,0.7c0,0.4,0.3,0.7,0.6,0.8c0.3,0.1,0.6,0.4,0.6,0.7c0,0.4-0.2,0.7-0.6,0.7c-0.4,0.1-0.6,0.4-0.6,0.8
		c0,0.3,0.2,0.6,0.5,0.7c0.4,0.2,0.5,0.6,0.4,1c-0.1,0.2-0.2,0.3-0.4,0.4c-0.3,0.1-0.5,0.4-0.5,0.7c0,0.4,0.3,0.7,0.6,0.8
		c0.3,0.1,0.6,0.4,0.6,0.7c0.1,0.9,0.6,1.7,1.3,2.2c1.7,1.2,4.8,1.6,7.4,1c1.1-0.3,3.6-1.1,3.7-3.3c0-0.3,0.2-0.6,0.6-0.7
		c0.4-0.1,0.6-0.4,0.6-0.8c0-0.3-0.2-0.6-0.5-0.7c-0.3-0.1-0.4-0.4-0.5-0.7c0-0.3,0.2-0.6,0.4-0.7c0.3-0.1,0.5-0.4,0.5-0.7
		c0-0.4-0.3-0.7-0.6-0.8c-0.3-0.1-0.6-0.4-0.6-0.7c0-0.4,0.2-0.7,0.6-0.7c0.4-0.1,0.7-0.5,0.6-1c0-0.2-0.2-0.4-0.4-0.5
		c-0.3-0.2-0.4-0.5-0.3-0.8c0.1-0.3,0.4-0.5,0.7-0.5v-1.7l-14.8,0.1L296.9,114.7z"></path><path class="st1" d="M320.4,98.7c0.1,5.4-2.6,10.4-7,13.5l-18.2,0.2c-7.5-5-9.5-15.1-4.5-22.5c5-7.5,15.1-9.5,22.5-4.5
		C317.6,88.3,320.4,93.3,320.4,98.7z"></path><path class="st0" d="M295.2,113.1c-0.1,0-0.3,0-0.4-0.1c-7.8-5.2-10-15.7-4.8-23.6s15.7-10,23.6-4.8c4.7,3.1,7.6,8.4,7.6,14.1l0,0
		c0,5.6-2.7,10.9-7.3,14.1c-0.1,0.1-0.3,0.1-0.4,0.1L295.2,113.1L295.2,113.1z M304.2,83.3H304c-8.5,0.1-15.4,7.1-15.3,15.6
		c0,5,2.6,9.8,6.7,12.6l17.8-0.2c4.1-2.9,6.5-7.7,6.5-12.7l0,0C319.5,90.2,312.6,83.3,304.2,83.3L304.2,83.3z"></path><path class="st0" d="M311.3,119.1h-13.9c-0.4,0-0.8-0.3-0.8-0.8s0.3-0.8,0.8-0.8h13.9c0.4,0,0.8,0.3,0.8,0.8
		S311.7,119.1,311.3,119.1z"></path><path class="st0" d="M311.8,116.1h-14.9c-0.4,0-0.8-0.3-0.8-0.8s0.3-0.8,0.8-0.8h14.9c0.4,0,0.8,0.3,0.8,0.8
		S312.2,116.1,311.8,116.1L311.8,116.1z"></path><path class="st0" d="M311.6,122h-14.5c-0.4,0-0.8-0.3-0.8-0.8s0.3-0.8,0.8-0.8h14.5c0.4,0,0.8,0.3,0.8,0.8S312,122,311.6,122z"></path><path class="st0" d="M311.3,124.8h-13.9c-0.4,0-0.8-0.3-0.8-0.8s0.3-0.8,0.8-0.8h13.9c0.4,0,0.8,0.3,0.8,0.8
		S311.7,124.8,311.3,124.8z"></path><path class="st0" d="M306.8,112.7L306.8,112.7c-0.4,0-0.7-0.4-0.7-0.8c0,0,0,0,0,0l0.3-6.5c-1.2,0.1-3,0.1-4.3,0l0.3,6.5
		c0,0.4-0.3,0.8-0.7,0.8s-0.8-0.3-0.8-0.7l0,0l-0.3-6.7c-2.8-0.3-3-1.1-3.1-1.3c-0.2-1,0.1-2.1,0.8-2.8c0.5-0.6,1.4-1,2.2-0.8
		c1.6,0.3,1.6,2.8,1.6,3.6c1.5,0.1,2.9,0.1,4.4,0c0-0.7,0-3.3,1.6-3.6c0.8-0.1,1.6,0.2,2.2,0.8c0.7,0.7,1,1.8,0.8,2.8
		c-0.1,0.3-0.3,1-3.1,1.3l-0.3,6.7C307.6,112.4,307.2,112.7,306.8,112.7C306.8,112.7,306.8,112.7,306.8,112.7z M298.8,103.4
		c0.5,0.2,1.1,0.3,1.7,0.4c0-1.1-0.2-2-0.4-2c-0.3,0-0.6,0.1-0.8,0.4C299,102.5,298.8,103,298.8,103.4L298.8,103.4z M308.3,101.8
		L308.3,101.8c-0.3,0-0.5,1-0.5,2c0.6,0,1.1-0.2,1.7-0.4c0-0.5-0.1-0.9-0.5-1.3C308.8,101.9,308.6,101.8,308.3,101.8L308.3,101.8z"></path><path class="st0" d="M304.7,75c-0.4,0-0.7-0.3-0.8-0.8v-10c0-0.4,0.3-0.8,0.8-0.8s0.8,0.3,0.8,0.8v10C305.5,74.7,305.1,75,304.7,75
		z"></path><path class="st0" d="M304.7,75c-0.4,0-0.7-0.3-0.8-0.8v-10c0-0.4,0.3-0.8,0.8-0.8s0.8,0.3,0.8,0.8v10C305.5,74.7,305.1,75,304.7,75
		z"></path><path class="st0" d="M281.3,98.4h-10c-0.4,0-0.8-0.3-0.8-0.8s0.3-0.8,0.8-0.8h10c0.4,0,0.8,0.3,0.8,0.8S281.7,98.4,281.3,98.4z"></path><path class="st0" d="M338.1,98.4h-10c-0.4,0-0.8-0.3-0.8-0.8s0.3-0.8,0.8-0.8h10c0.4,0,0.8,0.3,0.8,0.8S338.5,98.4,338.1,98.4z"></path><path class="st0" d="M338.1,98.4h-10c-0.4,0-0.8-0.3-0.8-0.8s0.3-0.8,0.8-0.8h10c0.4,0,0.8,0.3,0.8,0.8S338.5,98.4,338.1,98.4z"></path><path class="st0" d="M281.3,98.4h-10c-0.4,0-0.8-0.3-0.8-0.8s0.3-0.8,0.8-0.8h10c0.4,0,0.8,0.3,0.8,0.8S281.7,98.4,281.3,98.4z"></path><path class="st0" d="M281.1,122c-0.2,0-0.4-0.1-0.5-0.2c-0.3-0.3-0.3-0.8,0-1.1l7.1-7.1c0.3-0.3,0.8-0.3,1.1,0
		c0.3,0.3,0.3,0.8,0,1.1l0,0l-7.1,7.1C281.5,121.9,281.3,122,281.1,122z"></path><path class="st0" d="M321.2,81.8c-0.2,0-0.4-0.1-0.5-0.2c-0.3-0.3-0.3-0.8,0-1.1l7.1-7.1c0.3-0.3,0.8-0.3,1.1,0
		c0.3,0.3,0.3,0.8,0,1.1l0,0l-7.1,7.1C321.6,81.7,321.4,81.8,321.2,81.8z"></path><path class="st0" d="M321.2,81.8c-0.2,0-0.4-0.1-0.5-0.2c-0.3-0.3-0.3-0.8,0-1.1l7.1-7.1c0.3-0.3,0.8-0.3,1.1,0
		c0.3,0.3,0.3,0.8,0,1.1l0,0l-7.1,7.1C321.6,81.7,321.4,81.8,321.2,81.8z"></path><path class="st0" d="M281.1,122c-0.2,0-0.4-0.1-0.5-0.2c-0.3-0.3-0.3-0.8,0-1.1l7.1-7.1c0.3-0.3,0.8-0.3,1.1,0
		c0.3,0.3,0.3,0.8,0,1.1l0,0l-7.1,7.1C281.5,121.9,281.3,122,281.1,122z"></path><path class="st0" d="M288.2,81.8c-0.2,0-0.4-0.1-0.5-0.2l-7.1-7.1c-0.3-0.3-0.3-0.8,0-1.1c0.3-0.3,0.8-0.3,1.1,0l7.1,7.1
		c0.3,0.3,0.3,0.8,0,1.1C288.5,81.7,288.4,81.8,288.2,81.8z"></path><path class="st0" d="M328.3,122c-0.2,0-0.4-0.1-0.5-0.2l-7.1-7.1c-0.3-0.3-0.3-0.8,0-1.1c0.3-0.3,0.8-0.3,1.1,0l7.1,7.1
		c0.3,0.3,0.3,0.8,0,1.1c0,0,0,0,0,0C328.7,121.9,328.5,122,328.3,122z"></path><path class="st0" d="M328.3,122c-0.2,0-0.4-0.1-0.5-0.2l-7.1-7.1c-0.3-0.3-0.3-0.8,0-1.1c0.3-0.3,0.8-0.3,1.1,0l7.1,7.1
		c0.3,0.3,0.3,0.8,0,1.1c0,0,0,0,0,0C328.7,121.9,328.5,122,328.3,122z"></path><path class="st0" d="M288.2,81.8c-0.2,0-0.4-0.1-0.5-0.2l-7.1-7.1c-0.3-0.3-0.3-0.8,0-1.1c0.3-0.3,0.8-0.3,1.1,0l7.1,7.1
		c0.3,0.3,0.3,0.8,0,1.1C288.5,81.7,288.4,81.8,288.2,81.8z"></path><path class="st0" d="M295.7,76.8c-0.3,0-0.6-0.2-0.7-0.5l-3.9-9.2c-0.2-0.4,0-0.8,0.4-1c0,0,0,0,0,0c0.4-0.2,0.8,0,1,0.4l3.8,9.2
		c0.2,0.4,0,0.8-0.4,1c0,0,0,0,0,0C295.9,76.8,295.8,76.8,295.7,76.8z"></path><path class="st0" d="M295.7,76.8c-0.3,0-0.6-0.2-0.7-0.5l-3.9-9.2c-0.2-0.4,0-0.8,0.4-1c0,0,0,0,0,0c0.4-0.2,0.8,0,1,0.4l3.8,9.2
		c0.2,0.4,0,0.8-0.4,1c0,0,0,0,0,0C295.9,76.8,295.8,76.8,295.7,76.8z"></path><path class="st0" d="M273.9,111.2c-0.4,0-0.7-0.4-0.7-0.8c0-0.3,0.2-0.5,0.4-0.7l9.2-3.8c0.4-0.2,0.8,0,1,0.4s0,0.8-0.4,1l-9.2,3.8
		C274.1,111.2,274,111.2,273.9,111.2z"></path><path class="st0" d="M326.3,89.4c-0.3,0-0.6-0.2-0.7-0.5c-0.2-0.4,0-0.8,0.4-1c0,0,0,0,0,0l9.2-3.8c0.4-0.2,0.8,0,1,0.4
		s0,0.8-0.4,1l-9.2,3.8C326.5,89.3,326.4,89.4,326.3,89.4z"></path><path class="st0" d="M326.3,89.4c-0.3,0-0.6-0.2-0.7-0.5c-0.2-0.4,0-0.8,0.4-1c0,0,0,0,0,0l9.2-3.8c0.4-0.2,0.8,0,1,0.4
		s0,0.8-0.4,1l-9.2,3.8C326.5,89.3,326.4,89.4,326.3,89.4z"></path><path class="st0" d="M273.9,111.2c-0.4,0-0.7-0.4-0.7-0.8c0-0.3,0.2-0.5,0.4-0.7l9.2-3.8c0.4-0.2,0.8,0,1,0.4s0,0.8-0.4,1l-9.2,3.8
		C274.1,111.2,274,111.2,273.9,111.2z"></path><path class="st0" d="M313.6,76.8c-0.1,0-0.2,0-0.3-0.1c-0.4-0.2-0.6-0.6-0.4-1c0,0,0,0,0,0l3.8-9.2c0.2-0.4,0.6-0.6,1-0.4
		c0,0,0,0,0,0c0.4,0.2,0.6,0.6,0.4,1c0,0,0,0,0,0l-3.8,9.2C314.2,76.6,313.9,76.8,313.6,76.8z"></path><path class="st0" d="M313.6,76.8c-0.1,0-0.2,0-0.3-0.1c-0.4-0.2-0.6-0.6-0.4-1c0,0,0,0,0,0l3.8-9.2c0.2-0.4,0.6-0.6,1-0.4
		c0,0,0,0,0,0c0.4,0.2,0.6,0.6,0.4,1c0,0,0,0,0,0l-3.8,9.2C314.2,76.6,313.9,76.8,313.6,76.8z"></path><path class="st0" d="M283.1,89.4c-0.1,0-0.2,0-0.3-0.1l-9.2-3.8c-0.4-0.2-0.6-0.6-0.4-1c0,0,0,0,0,0c0.2-0.4,0.6-0.6,1-0.4
		c0,0,0,0,0,0l9.2,3.8c0.4,0.1,0.6,0.6,0.4,1C283.7,89.3,283.4,89.5,283.1,89.4z"></path><path class="st0" d="M335.6,111.1c-0.1,0-0.2,0-0.3-0.1l-9.3-3.8c-0.4-0.2-0.6-0.6-0.4-1c0,0,0,0,0,0c0.2-0.4,0.6-0.6,1-0.4
		c0,0,0,0,0,0l9.3,3.8c0.4,0.1,0.6,0.6,0.4,1C336.2,110.9,335.9,111.1,335.6,111.1L335.6,111.1z"></path><path class="st0" d="M335.6,111.1c-0.1,0-0.2,0-0.3-0.1l-9.3-3.8c-0.4-0.2-0.6-0.6-0.4-1c0,0,0,0,0,0c0.2-0.4,0.6-0.6,1-0.4
		c0,0,0,0,0,0l9.3,3.8c0.4,0.1,0.6,0.6,0.4,1C336.2,110.9,335.9,111.1,335.6,111.1L335.6,111.1z"></path><path class="st0" d="M283.1,89.4c-0.1,0-0.2,0-0.3-0.1l-9.2-3.8c-0.4-0.2-0.6-0.6-0.4-1c0,0,0,0,0,0c0.2-0.4,0.6-0.6,1-0.4
		c0,0,0,0,0,0l9.2,3.8c0.4,0.1,0.6,0.6,0.4,1C283.7,89.3,283.4,89.5,283.1,89.4z"></path></g></svg>