<svg width="600" height="343" viewBox="0 0 600 343" fill="none" xmlns="http://www.w3.org/2000/svg">
<g clip-path="url(#clip0_5_11454)">
<g opacity="0.3">
<path d="M111.32 163.953L112.256 169.274C104.892 181.06 97.9836 190.945 91.4811 198.915C84.9785 206.885 78.4154 213.285 71.7453 218.122C65.0752 222.96 58.3269 225.991 51.5195 227.188C45.6415 228.222 40.3723 227.951 35.7544 226.344C31.1365 224.737 27.3297 221.885 24.4037 217.777C21.4776 213.669 19.45 208.541 18.3673 202.384C17.5133 197.528 17.3811 192.282 17.9817 186.572C18.5822 180.861 19.8525 175.009 21.8307 168.961C23.8089 162.912 26.409 156.587 29.6461 149.934C32.8833 143.281 36.8189 136.241 41.4641 128.742C46.2815 120.997 51.1654 114.174 56.139 108.269C61.1125 102.365 65.7164 97.6269 69.9657 94.0054C74.215 90.3839 78.2424 87.5439 82.0713 85.4813C85.9001 83.4188 89.1232 82.1334 91.795 81.6635C94.4668 81.1937 96.951 81.4275 99.085 82.3935C101.219 83.3595 103.018 85.0072 104.504 87.3326C105.991 89.6579 107.009 92.4489 107.585 95.7248C108.668 101.882 107.782 109.103 104.901 117.37C102.019 125.637 98.098 133.848 93.0589 141.968C88.0198 150.087 83.0581 156.876 78.1463 162.315C73.2345 167.753 69.5377 170.703 67.0285 171.144C65.3325 171.442 63.6574 171.042 61.984 169.971C60.3106 168.9 59.3248 167.517 59.0266 165.821C58.4791 162.707 59.4708 158.677 61.9936 153.682C64.5165 148.688 67.3835 144.016 70.6411 139.659C73.8987 135.301 75.8993 133.057 76.666 132.922C77.0377 132.857 77.2754 132.983 77.3326 133.308C77.4184 133.796 77.2867 134.682 76.9183 135.992C76.55 137.302 76.3978 138.071 76.4469 138.35C76.5245 138.792 76.7239 138.972 77.0492 138.915C77.9785 138.751 80.2131 135.796 83.7572 130.071C87.3012 124.346 90.3837 118.175 93.0045 111.558C95.6253 104.942 96.6027 99.74 95.9326 95.9298C95.6548 94.3499 95.0938 93.2031 94.2729 92.4851C93.4521 91.7672 92.3563 91.5288 90.9855 91.7699C87.1752 92.44 81.9336 96.5474 75.2605 104.092C68.5874 111.637 62.0267 120.91 55.5511 131.893C49.0754 142.876 44.0278 153.944 40.3808 165.076C36.7338 176.208 35.5694 185.658 36.93 193.395C37.7145 197.856 39.046 201.478 40.8974 204.242C42.7488 207.006 45.1322 208.982 47.9971 210.155C50.862 211.328 54.1415 211.589 57.7891 210.948C65.6885 209.559 74.094 204.919 83.048 196.997C92.0021 189.075 101.421 178.077 111.348 163.973L111.32 163.953Z" fill="white"/>
<path d="M117.636 148.112C124.587 139.154 131.642 132.141 138.783 127.124C145.925 122.108 151.62 119.214 155.871 118.466C157.01 118.266 158.164 118.566 159.308 119.347C160.451 120.128 161.433 121.081 162.211 122.238C162.989 123.394 163.455 124.27 163.561 124.875C163.733 125.85 163.487 126.636 162.803 127.235C162.118 127.835 160.891 128.625 159.101 129.611C159.628 130.428 160.335 131.454 161.153 132.699C161.97 133.945 162.654 134.974 163.127 135.753C163.599 136.532 163.897 137.27 164.011 137.921C164.24 139.222 163.345 141.894 161.325 145.938C159.306 149.982 157.932 152.93 157.158 154.791C156.383 156.652 156.216 158.836 156.645 161.276C157.352 165.295 159.566 166.99 163.26 166.34C166.955 165.69 172.412 161.042 179.266 152.483L180.141 157.455C169.056 175.189 160.549 184.565 154.602 185.611C152.487 185.983 150.855 185.552 149.703 184.317C148.552 183.082 147.751 181.115 147.273 178.397C146.517 174.099 146.975 167.575 148.631 158.877C142.238 169.103 137.439 176.414 134.213 180.814C130.987 185.213 128.135 187.655 125.649 188.092C124.441 188.305 122.77 187.521 120.617 185.767C118.465 184.014 116.392 181.624 114.418 178.57C112.444 175.516 111.146 172.224 110.525 168.692C110.075 166.136 109.955 163.954 110.141 162.149C110.326 160.344 110.972 158.434 112.071 156.372C113.169 154.311 115.01 151.568 117.605 148.07L117.636 148.112ZM155.18 132.241C142.171 141.211 133.033 148.495 127.808 154.06C122.583 159.626 120.407 164.823 121.249 169.609C121.555 171.351 122.111 172.738 122.911 173.747C123.711 174.756 124.622 175.171 125.644 174.991C126.249 174.885 127.229 174.329 128.627 173.293C133.75 168.919 138.201 163.585 141.989 157.339C145.777 151.092 150.173 142.726 155.18 132.241Z" fill="white"/>
<path d="M217.827 157.103C224.163 149.139 229.604 142.218 234.128 136.344C238.652 130.471 242.198 125.847 244.79 122.47C247.381 119.092 249.656 116.225 251.659 113.86C253.662 111.496 254.974 110.236 255.624 110.121C256.871 109.854 258.28 110.924 259.908 113.368C261.535 115.812 262.46 117.805 262.738 119.385C262.922 120.431 261.628 123.149 258.844 127.615C256.061 132.08 254.017 135.577 252.702 138.18C251.388 140.782 250.949 143.326 251.386 145.812C251.643 147.276 252.34 148.375 253.475 149.11C254.61 149.844 255.872 150.077 257.22 149.84C258.8 149.562 260.539 148.418 262.46 146.404C264.381 144.389 267.328 140.853 271.332 135.838L272.354 141.646C268.398 146.94 264.779 151.553 261.49 155.461C258.201 159.368 255.261 162.4 252.685 164.506C250.11 166.611 247.86 167.845 245.954 168.181C244.258 168.479 242.727 168.077 241.364 167C240 165.922 239.138 164.421 238.803 162.516C238.468 160.611 238.47 158.718 238.786 156.699C239.101 154.679 239.704 152.25 240.613 149.384C241.522 146.517 242.759 143.066 244.344 139.003C245.929 134.94 247.381 131.211 248.705 127.841C243.948 133.348 239.787 138.559 236.224 143.497C232.662 148.435 229.799 152.722 227.609 156.341C225.419 159.96 223.715 162.798 222.449 164.865C219.998 168.769 217.462 170.964 214.837 171.425C212.002 171.924 210.23 170.152 209.523 166.132C209.237 164.506 209.791 161.391 211.161 156.79C212.532 152.19 214.608 146.292 217.387 139.073C217.634 138.574 217.678 137.872 217.515 136.943C217.323 135.851 216.695 135.41 215.603 135.602C214.395 135.815 212.876 137.256 211.018 139.906C209.161 142.556 205.627 148.063 200.407 156.382C198.973 158.718 197.391 161.703 195.705 165.329C194.019 168.955 192.777 171.425 191.989 172.665C191.201 173.905 190.324 174.635 189.325 174.81C187.373 175.153 185.231 173.734 182.922 170.547C180.613 167.36 179.062 163.441 178.249 158.818C177.656 155.449 177.699 152.424 178.385 149.788C179.071 147.153 180.251 143.783 181.956 139.723C184.677 133.808 186.984 129.498 188.911 126.835C190.838 124.173 193.055 122.61 195.633 122.156C197.213 121.878 198.591 121.948 199.793 122.383C200.995 122.818 201.681 123.584 201.873 124.676C202.073 125.814 201.405 127.872 199.892 130.844C198.379 133.817 196.32 136.958 193.763 140.258C192.414 142.123 191.201 144.349 190.142 146.906C189.083 149.464 188.637 151.291 188.817 152.313C189.075 153.777 189.786 154.418 190.925 154.218C191.854 154.054 193.865 151.736 196.936 147.268C200.006 142.8 203.411 137.914 207.129 132.638C210.848 127.361 214.349 122.889 217.659 119.241C220.97 115.593 223.961 113.534 226.633 113.064C228.259 112.778 229.713 113.145 230.998 114.189C232.284 115.232 233.084 116.648 233.398 118.437C233.611 119.645 233.177 121.949 232.099 125.348C231.02 128.747 229.309 133.048 226.982 138.2C224.654 143.352 221.592 149.639 217.792 157.038L217.827 157.103Z" fill="white"/>
<path d="M271.057 143.263L270.052 137.548C276.218 127.937 281.424 118.997 285.671 110.729C289.918 102.462 293.264 95.8852 295.714 91.0232C298.165 86.1612 300.464 82.6192 302.616 80.4203C304.768 78.2215 307.68 76.7993 311.374 76.1496C313.233 75.8228 314.284 76.3563 314.534 77.7736C314.734 78.912 314.289 80.7388 313.171 83.2348C312.053 85.7307 310.552 88.3659 308.614 91.1019C306.036 94.693 303.69 99.0576 301.525 104.181C299.36 109.304 297.048 115.77 294.539 123.565C297.089 120.769 299.98 117.458 303.285 113.644C306.59 109.829 309.275 106.842 311.38 104.651C313.486 102.461 315.63 100.623 317.82 99.1835C320.01 97.7445 322.286 96.7933 324.702 96.3684C326.235 96.0988 327.26 96.2059 327.819 96.6586C328.377 97.1112 328.798 98.1391 329.076 99.719C329.803 103.855 329.515 108.073 328.188 112.378C326.861 116.683 324.699 121.279 321.683 126.192C318.667 131.106 314.857 136.542 310.233 142.529C312.261 142.891 314.278 142.92 316.299 142.564C322.619 141.453 330.23 135.156 339.152 123.647L340.186 129.525C336.7 133.947 333.27 138.143 329.896 142.113C326.523 146.084 323.263 149.339 320.125 151.927C316.988 154.515 313.953 156.055 311.002 156.573C309.91 156.765 308.728 156.854 307.475 156.811C306.222 156.767 305.035 156.689 303.924 156.501C302.813 156.313 301.403 156.058 299.662 155.694C297.921 155.329 296.585 155.085 295.653 154.961C293.988 155.709 293.049 156.09 292.817 156.131C290.912 156.466 288.547 156.091 285.725 155.031C284.549 158.83 283.367 163.685 282.179 169.594C280.991 175.504 279.951 180.214 279.063 183.747C278.175 187.28 276.748 190.741 274.836 194.167C273.706 195.779 272.872 196.62 272.338 196.714C269.991 197.127 268.466 195.263 267.738 191.128C267.105 187.527 267.167 183.659 267.926 179.526C268.684 175.393 269.8 171.388 271.301 167.531C272.803 163.675 274.458 159.743 276.342 155.747C278.227 151.751 279.522 148.768 280.261 146.842C286.251 130.507 290.751 116.734 293.706 105.484C283.864 122.927 276.309 135.537 271.065 143.31L271.057 143.263ZM304.918 141.452C309.311 134.835 312.485 129.319 314.435 124.88C316.385 120.442 317.174 117.165 316.798 115.028C316.422 112.89 315.268 112.183 313.246 112.539C310.528 113.017 307.091 115.944 302.954 121.295C298.817 126.645 294.795 133.604 290.908 142.143C294.85 140.995 297.52 140.382 298.916 140.28C300.311 140.178 302.296 140.572 304.941 141.448L304.918 141.452Z" fill="white"/>
<path d="M345.694 108.006C352.646 99.0469 359.7 92.034 366.841 87.0176C373.983 82.0012 379.678 79.1076 383.929 78.3599C385.068 78.1597 386.222 78.4596 387.366 79.2406C388.509 80.0215 389.491 80.9746 390.269 82.1311C391.048 83.2877 391.513 84.1639 391.619 84.7679C391.791 85.7437 391.546 86.5293 390.861 87.1288C390.176 87.7283 388.95 88.5188 387.159 89.5044C387.686 90.3219 388.393 91.3472 389.211 92.5926C390.029 93.838 390.713 94.8674 391.185 95.6466C391.657 96.4258 391.955 97.1639 392.069 97.8144C392.298 99.1155 391.403 101.788 389.383 105.832C387.364 109.875 385.99 112.823 385.216 114.684C384.441 116.545 384.275 118.73 384.704 121.169C385.41 125.189 387.625 126.883 391.319 126.234C395.013 125.584 400.471 120.935 407.325 112.377L408.199 117.349C397.114 135.082 388.608 144.459 382.66 145.505C380.546 145.876 378.913 145.445 377.762 144.21C376.61 142.976 375.809 141.009 375.331 138.291C374.576 133.992 375.033 127.469 376.689 118.771C370.296 128.997 365.498 136.307 362.271 140.707C359.045 145.107 356.193 147.548 353.707 147.986C352.499 148.198 350.828 147.414 348.676 145.661C346.523 143.908 344.45 141.518 342.476 138.464C340.502 135.41 339.204 132.117 338.583 128.586C338.134 126.03 338.013 123.848 338.199 122.042C338.384 120.237 339.031 118.327 340.129 116.266C341.228 114.205 343.069 111.462 345.663 107.963L345.694 108.006ZM383.238 92.134C370.229 101.104 361.091 108.388 355.866 113.954C350.641 119.519 348.465 124.716 349.307 129.502C349.613 131.245 350.169 132.632 350.969 133.641C351.769 134.65 352.68 135.064 353.703 134.885C354.307 134.778 355.287 134.223 356.686 133.186C361.808 128.813 366.26 123.479 370.047 117.232C373.835 110.985 378.232 102.619 383.238 92.134Z" fill="white"/>
<path d="M445.612 105.5L446.662 111.471C442.585 119.206 438.563 125.207 434.594 129.473C430.626 133.74 427.049 136.141 423.819 136.709C419.358 137.494 415.623 135.732 412.618 131.446C409.613 127.16 407.618 122.217 406.642 116.665C406.27 114.55 406.119 112.469 406.222 110.463C406.324 108.457 406.553 106.764 406.937 105.403C407.32 104.042 408.092 101.895 409.248 98.9369C414.869 85.5415 420.897 78.2779 427.309 77.1502C430.631 76.5659 432.506 77.5536 432.955 80.1093C433.262 81.8518 432.671 84.7581 431.164 88.8554C429.657 92.9527 428.213 95.9131 426.795 97.7912C422.861 103.202 420.33 106.928 419.204 108.97C418.079 111.013 417.718 113.184 418.122 115.484C418.466 117.436 419.499 118.954 421.192 119.998C422.884 121.042 424.904 121.357 427.25 120.944C429.806 120.495 432.454 119.071 435.213 116.646C437.972 114.221 441.418 110.525 445.593 105.527L445.612 105.5ZM433.636 69.9537C432.265 70.1948 430.898 69.9084 429.482 69.0794C428.067 68.2505 427.234 67.0556 426.957 65.4758C426.536 63.0827 427.204 60.2107 428.985 56.8556C430.767 53.5004 432.856 51.6241 435.319 51.191C436.945 50.905 438.405 51.175 439.673 51.982C440.941 52.789 441.733 54.1587 442.068 56.0639C442.48 58.4104 441.819 61.1855 440.087 64.4122C438.355 67.6389 436.211 69.4769 433.655 69.9264L433.636 69.9537Z" fill="white"/>
<path d="M510.793 99.6898L487.602 126.762C482.298 141.275 477.084 152.348 471.978 159.952C466.873 167.557 462.775 171.631 459.731 172.166C458.105 172.452 457.116 171.596 456.76 169.575C456.07 165.648 457.19 160.302 460.088 153.493C461.247 150.822 462.646 148.157 464.29 145.52C465.935 142.884 467.516 140.57 469.057 138.574C470.598 136.579 472.628 134.09 475.192 131.1C477.756 128.11 479.498 126.032 480.426 124.91C483.91 112.849 486.341 103.655 487.7 97.3558C483.545 103.691 479.873 108.96 476.652 113.119C473.431 117.278 470.416 120.563 467.564 123.004C464.712 125.446 461.995 126.882 459.439 127.332C456.651 127.822 453.703 126.041 450.6 122.012C447.496 117.983 445.51 113.638 444.685 108.944C444.301 106.761 444.411 104.394 444.99 101.825C445.568 99.2563 446.698 96.4228 448.381 93.3245C450.064 90.2262 452.292 86.9602 455.111 83.5182C457.931 80.0763 461.344 76.6018 465.327 73.0991C472.833 66.3419 478.942 62.5371 483.612 61.7158C487.097 61.1029 489.064 62.0743 489.514 64.63C490.135 68.1615 486.957 72.2892 479.975 76.99C475.707 79.8244 471.577 83.3052 467.63 87.4243C463.684 91.5434 460.611 95.7245 458.454 99.9363C456.296 104.148 455.495 107.762 456.022 110.759C456.279 112.223 456.836 113.346 457.707 114.079C458.579 114.812 459.563 115.094 460.724 114.89C462.629 114.555 464.658 113.288 466.795 111.14C468.932 108.992 472.013 105.264 476.046 100.004C477.875 97.5987 480.207 93.8353 483.019 88.718C485.832 83.6006 488.248 79.6309 490.201 76.8444C492.154 74.0578 494.083 72.497 495.988 72.162C497.08 71.97 498.024 72.1632 498.816 72.7185C499.609 73.2738 500.133 74.2115 500.362 75.5126C500.803 78.0218 500.441 81.8219 499.304 86.932C498.167 92.0421 495.938 100.482 492.685 112.216L509.927 94.3571L510.863 99.6776L510.793 99.6898Z" fill="white"/>
<path d="M561.712 69.8491C554.016 82.1965 550.514 90.4769 551.253 94.6822C551.666 97.0287 552.823 98.0229 554.728 97.6878C556.308 97.41 558.205 96.2141 560.448 94.1191C562.69 92.0242 566.117 88.3558 570.786 83.1753L571.779 88.821C565.383 97.8021 560.426 104.35 556.883 108.446C553.34 112.543 550.27 114.831 547.644 115.293C543.184 116.077 540.434 113.519 539.401 107.641C539.094 105.898 539.071 104.13 539.311 102.363C539.551 100.596 540.007 98.6958 540.637 96.6929C541.267 94.6899 542.273 91.8304 543.624 88.0719C544.975 84.3134 546.577 80.0795 548.377 75.3319C545.542 77.4592 542.213 81.2781 538.342 86.7733C535.817 90.2592 533.705 93.5048 532.053 96.502C530.4 99.4991 528.642 102.85 526.775 106.532C524.907 110.214 523.545 112.681 522.602 113.996C521.66 115.311 520.643 116.065 519.504 116.265C517.762 116.572 515.836 115.018 513.731 111.628C511.626 108.238 510.134 104.117 509.285 99.2844C508.758 96.2873 508.693 93.8795 509.073 92.0882C509.453 90.2969 510.375 87.6436 511.853 84.1981C514.604 77.7744 517.085 72.9547 519.33 69.7816C521.574 66.6085 523.962 64.7993 526.471 64.358C528.214 64.0516 529.661 64.1085 530.836 64.5246C532.011 64.9407 532.709 65.7761 532.929 67.0307C533.023 67.565 532.963 68.1745 532.744 68.8357C532.525 69.497 532.247 70.0967 531.938 70.6541C531.629 71.2115 530.937 72.3152 529.862 73.9653C522.941 85.0027 519.729 91.9387 520.228 94.7732C520.505 96.353 521.156 97.0531 522.201 96.8692C522.852 96.7548 523.946 95.4846 525.436 93.0667C526.927 90.6488 528.881 87.4551 531.258 83.54C533.635 79.625 536.518 75.4533 539.931 71.021C543.343 66.5886 547.318 62.2249 551.894 57.8752C554.42 55.3473 556.637 53.9274 558.542 53.5924C559.425 53.4371 560.474 54.4982 561.754 56.74C563.035 58.9819 563.855 61.3287 564.288 63.7914C564.5 64.9995 563.657 67.016 561.744 69.8914L561.712 69.8491Z" fill="white"/>
<path d="M145.359 213.965C145.645 215.592 145.48 217.106 144.833 218.465C145.221 218.9 145.793 219.566 146.55 220.462C147.306 221.359 147.895 222.118 148.358 222.707C148.801 223.324 149.078 223.946 149.197 224.62C149.348 225.479 148.914 227.232 147.883 229.952C146.853 232.673 144.957 237.149 142.155 243.415C139.353 249.68 136.589 255.891 133.886 262.042L138.732 263.993C145.172 258.118 150.586 251.992 154.95 245.62L156.098 252.148C152.333 258.798 148.393 264.856 144.23 270.331C145.163 272.778 145.677 274.34 145.796 275.014C146.858 281.054 145.191 288.461 140.817 297.23C136.439 305.976 131.135 313.951 124.901 321.131C118.666 328.311 114.144 332.148 111.309 332.647C106.825 333.435 103.896 329.855 102.503 321.932C102.078 319.516 103.081 315.004 105.558 308.389C108.012 301.778 111.656 293.353 116.467 283.118C121.278 272.882 127.411 260.091 134.891 244.74C125.085 258.44 118.921 266.974 116.427 270.358C113.928 273.72 111.43 276.674 108.904 279.202C106.379 281.73 103.98 283.206 101.679 283.61C99.3794 284.015 97.0131 283.09 94.5574 280.839C92.1018 278.588 89.9785 275.776 88.1685 272.43C86.3543 269.06 85.226 266.049 84.7602 263.4C84.2086 260.264 84.1228 257.596 84.5258 255.394C84.933 253.214 86.0031 250.583 87.7637 247.519C91.6174 240.422 96.6213 234.009 102.784 228.327C108.919 222.625 115.262 218.109 121.782 214.734C128.307 211.383 134.062 209.245 139.104 208.359C142.542 207.754 144.669 209.632 145.433 213.976L145.359 213.965ZM99.4365 268.268C101.969 267.823 104.926 266.249 108.279 263.528C111.637 260.829 115.153 257.121 118.803 252.408C123.281 246.686 127.156 241.478 130.422 236.76C133.688 232.042 136.094 228.289 137.659 225.475C139.224 222.661 139.978 221.091 139.912 220.72C139.818 220.185 139.537 219.947 139.049 220.033C137.121 220.372 133.349 222.353 127.739 225.998C122.152 229.639 116.54 233.956 110.93 238.966C105.32 243.976 101.212 248.675 98.6297 253.057C97.6175 254.792 96.9137 257.191 96.5101 260.208C96.1107 263.249 95.9769 265.212 96.1363 266.118C96.4468 267.884 97.5273 268.58 99.4092 268.249L99.4365 268.268ZM128.014 275.506C124.762 282.617 121.735 290.598 118.882 299.435C116.028 308.272 114.735 313.314 114.96 314.592C115.107 315.428 115.614 315.722 116.477 315.451C117.339 315.179 118.624 314.45 120.359 313.283C123.975 310.827 127.755 305.899 131.695 298.475C134.336 293.34 135.932 289.203 136.486 286.088C137.04 282.973 137.172 279.5 136.951 275.659C133.433 276.9 130.458 276.873 128.046 275.548L128.014 275.506Z" fill="white"/>
<path d="M192.545 236.852C186.485 248.697 181.798 257.185 178.462 262.323C175.126 267.46 172.145 270.26 169.543 270.718C167.475 271.081 165.419 270.557 163.374 269.144C161.329 267.731 159.577 265.668 158.11 262.908C156.647 260.171 155.607 257.121 155.023 253.798C154.639 251.614 154.505 249.626 154.593 247.814C154.682 246.002 155.133 243.935 155.903 241.644C156.674 239.352 157.784 236.81 159.233 234.016C160.681 231.223 162.495 228.053 164.666 224.462C165.957 222.271 167.046 220.427 167.956 218.925C168.865 217.424 169.779 216.353 170.766 215.701C171.753 215.048 173.431 214.513 175.824 214.093C177.567 213.786 179.257 213.728 180.919 213.915C182.58 214.102 183.452 214.428 183.542 214.939C183.714 215.915 183.211 217.824 182.061 220.684C180.912 223.545 178.876 227.089 175.948 231.412C173.02 235.735 169.537 240.036 165.469 244.416C164.987 247.807 164.909 250.359 165.203 252.032C165.616 254.379 166.726 255.381 168.515 255.066C169.166 254.952 170.16 254.202 171.497 252.817C172.834 251.432 175.01 248.822 178.075 245.002C181.139 241.182 183.897 237.798 186.345 234.829C188.133 232.599 190.109 229.401 192.275 225.235C194.44 221.07 196.231 217.905 197.647 215.74C200.918 210.781 203.197 207.53 204.436 205.995C205.675 204.46 206.978 203.56 208.349 203.319C209.719 203.078 210.606 203.353 211.214 204.085C211.821 204.816 212.348 206.448 212.785 208.934C212.985 210.072 213.033 211.022 212.95 211.779C212.868 212.536 212.562 213.524 212.085 214.758C211.607 215.991 210.6 218.3 209.032 221.642C207.464 224.983 205.65 228.967 203.557 233.551C202.408 236.004 201.501 238.607 200.82 241.409C200.139 244.212 199.897 246.242 200.126 247.543C200.624 250.378 201.989 251.599 204.219 251.206C206.078 250.88 208.081 249.737 210.278 247.794C212.475 245.85 215.729 242.428 220.095 237.564L221.06 243.047C215.727 250.045 211.763 255.149 209.189 258.356C206.616 261.563 204.322 264.05 202.329 265.79C200.336 267.53 198.321 268.603 196.323 268.954C191.746 269.759 188.991 267.441 188.031 261.981C187.667 259.914 187.85 257.007 188.604 253.258C189.358 249.509 190.67 244.032 192.545 236.852Z" fill="white"/>
<path d="M233.003 238.504L233.363 240.548C233.927 243.755 235.158 246.125 237.052 247.636C238.947 249.147 241.174 249.69 243.729 249.24C246.285 248.791 249.056 247.657 251.693 245.9C254.33 244.142 256.897 241.99 259.345 239.428C261.793 236.866 264.787 233.465 268.24 229.265L269.115 234.237C264.261 242.731 259.496 249.413 254.801 254.311C250.105 259.209 244.969 262.148 239.417 263.124C234.561 263.978 230.396 262.77 226.9 259.505C223.404 256.24 221.084 251.354 219.935 244.826C218.93 239.11 219.343 233.697 221.194 228.557C223.045 223.417 226.527 217.751 231.657 211.507C235.171 207.249 238.814 203.854 242.584 201.322C246.354 198.791 249.847 197.267 253.053 196.703C255.609 196.253 257.732 196.479 259.451 197.398C261.169 198.317 262.219 199.929 262.632 202.276C263.236 205.714 262.559 209.354 260.6 213.196C258.641 217.037 255.334 221.116 250.672 225.385C246.009 229.654 240.119 234.019 232.976 238.485L233.003 238.504ZM232.881 233.04C237.448 230.273 241.213 227.168 244.2 223.721C247.186 220.273 249.291 217.125 250.483 214.232C251.675 211.34 252.18 209.311 251.972 208.126C251.764 206.941 251.06 206.347 249.922 206.547C248.946 206.718 247.453 207.628 245.467 209.27C243.48 210.913 241.536 212.932 239.638 215.349C237.739 217.767 236.112 220.496 234.801 223.529C233.49 226.562 232.828 229.744 232.857 233.045L232.881 233.04Z" fill="white"/>
<path d="M268.343 231.618L267.999 229.667C279.449 212.372 287.292 200.31 291.524 193.458C291.555 186.555 293.848 182.702 298.425 181.897C299.563 181.697 300.852 181.806 302.267 182.228L303.029 183.698C302.934 184.386 302.981 185.336 303.194 186.544C303.378 187.589 304.108 189.425 305.392 192.097C306.676 194.769 307.693 197.01 308.47 198.837C309.246 200.665 309.835 202.789 310.256 205.182C310.889 208.783 310.681 212.364 309.635 215.95C308.589 219.535 306.774 223.111 304.192 226.679C301.61 230.247 298.157 234.04 293.811 238.062C295.82 238.044 297.405 237.932 298.543 237.732C300.774 237.34 303.092 236.358 305.475 234.789C307.858 233.22 310.245 231.267 312.609 228.911C314.973 226.556 317.68 223.565 320.754 219.934L321.719 225.417C315.946 233.45 310.626 239.703 305.737 244.18C300.848 248.656 296.419 251.255 292.446 251.954C287.334 252.853 282.211 251.503 277.079 247.926C274.066 245.773 272.021 243.546 270.973 241.263C269.925 238.981 269.051 235.781 268.336 231.715L268.343 231.618ZM296.603 213.762L293.044 202.101C290.345 206.504 284.406 215.093 275.255 227.888C278.654 228.009 281.052 228.569 282.449 229.569C283.847 230.568 285.947 232.57 288.736 235.625C292.16 233.442 294.654 230.871 296.163 227.875C297.672 224.88 298.038 221.103 297.233 216.526C297.139 215.991 297.049 215.48 296.929 215.07C296.809 214.66 296.704 214.2 296.584 213.79L296.603 213.762Z" fill="white"/>
<path d="M341.663 172.665L345.171 172.048C347.141 166.36 349.125 162.251 351.091 159.677C353.058 157.104 355.542 155.565 358.539 155.038C361.536 154.511 363.142 154.924 363.383 156.294C363.497 156.945 362.646 158.915 360.81 162.232C358.974 165.549 357.633 168.275 356.768 170.439C358.664 170.322 360.35 170.241 361.819 170.15C363.288 170.059 364.451 169.998 365.285 169.972C363.185 176.281 360.347 182.888 356.716 189.754C355.162 189.907 353.868 190.039 352.834 190.149C351.799 190.259 350.714 190.354 349.652 190.445C348.59 190.536 347.273 190.672 345.723 190.849C343.606 196.107 341.887 200.769 340.57 204.857C339.253 208.945 338.32 212.629 337.795 215.907C337.269 219.185 337.254 222.23 337.744 225.018C338.406 228.782 340.224 230.402 343.221 229.875C345.289 229.512 347.815 227.942 350.773 225.146C353.73 222.351 357.618 218.17 362.412 212.608L363.376 218.091C351.476 236.639 342.028 246.516 334.988 247.754C332.549 248.183 330.406 247.578 328.561 245.938C326.716 244.299 325.539 241.967 325.016 238.993C324.661 236.972 324.658 234.505 325.008 231.593C325.359 228.681 326.129 224.21 327.329 218.227C326.676 219.012 326.07 219.79 325.507 220.535C324.944 221.281 324.418 221.972 323.927 222.586C323.436 223.199 322.93 223.863 322.378 224.535C321.826 225.207 321.281 225.925 320.737 226.644L319.744 220.998C324.618 215.207 330.062 205.579 336.054 192.118C335.233 192.215 334.458 192.303 333.757 192.402C333.056 192.502 332.192 192.63 331.216 192.801C328.01 193.365 325.654 193.995 324.152 194.714C323.53 194.991 322.958 195.283 322.41 195.571C321.862 195.859 321.483 196.022 321.274 196.059C321.065 196.095 320.92 195.953 320.863 195.628C320.549 193.839 321.19 190.948 322.787 186.954C324.041 183.596 325.359 181.017 326.705 179.271C328.051 177.526 329.85 176.179 332.06 175.264C334.27 174.348 337.501 173.516 341.683 172.781L341.663 172.665Z" fill="white"/>
</g>
<g opacity="0.3">
<path d="M111.32 163.953L112.256 169.274C104.892 181.06 97.9836 190.945 91.481 198.915C84.9785 206.885 78.4154 213.285 71.7453 218.122C65.0751 222.96 58.3268 225.991 51.5195 227.188C45.6414 228.222 40.3723 227.951 35.7544 226.344C31.1365 224.737 27.3297 221.885 24.4036 217.777C21.4776 213.669 19.45 208.541 18.3672 202.384C17.5133 197.528 17.3811 192.282 17.9817 186.572C18.5822 180.861 19.8524 175.009 21.8306 168.961C23.8088 162.912 26.409 156.587 29.6461 149.934C32.8832 143.281 36.8189 136.241 41.464 128.742C46.2815 120.997 51.1654 114.174 56.1389 108.269C61.1125 102.365 65.7164 97.6269 69.9657 94.0054C74.2149 90.3839 78.2424 87.5439 82.0712 85.4813C85.9001 83.4188 89.1231 82.1334 91.795 81.6636C94.4668 81.1937 96.951 81.4275 99.0849 82.3935C101.219 83.3595 103.018 85.0072 104.504 87.3326C105.991 89.6579 107.009 92.449 107.585 95.7249C108.668 101.882 107.782 109.103 104.901 117.37C102.019 125.638 98.0979 133.848 93.0589 141.968C88.0198 150.087 83.058 156.876 78.1463 162.315C73.2345 167.753 69.5377 170.703 67.0285 171.144C65.3324 171.442 63.6573 171.042 61.984 169.971C60.3106 168.9 59.3248 167.517 59.0265 165.821C58.479 162.707 59.4708 158.677 61.9936 153.682C64.5164 148.688 67.3834 144.016 70.641 139.659C73.8987 135.301 75.8992 133.057 76.6659 132.922C77.0377 132.857 77.2754 132.983 77.3326 133.308C77.4184 133.796 77.2867 134.682 76.9183 135.992C76.5499 137.302 76.3978 138.071 76.4468 138.35C76.5244 138.792 76.7238 138.972 77.0491 138.915C77.9784 138.751 80.2131 135.796 83.7571 130.071C87.3012 124.346 90.3836 118.175 93.0044 111.558C95.6252 104.942 96.6026 99.74 95.9325 95.9298C95.6547 94.3499 95.0937 93.2031 94.2729 92.4852C93.452 91.7672 92.3562 91.5288 90.9855 91.7699C87.1752 92.44 81.9335 96.5474 75.2604 104.092C68.5873 111.637 62.0266 120.91 55.551 131.893C49.0754 142.876 44.0278 153.944 40.3808 165.076C36.7338 176.208 35.5694 185.658 36.9299 193.395C37.7144 197.856 39.046 201.478 40.8974 204.242C42.7487 207.006 45.1322 208.982 47.9971 210.155C50.862 211.328 54.1415 211.59 57.7891 210.948C65.6884 209.559 74.0939 204.919 83.048 196.997C92.002 189.075 101.421 178.077 111.348 163.973L111.32 163.953Z" fill="#FFFBFB"/>
<path d="M117.636 148.112C124.587 139.153 131.641 132.141 138.783 127.124C145.925 122.108 151.619 119.214 155.871 118.466C157.01 118.266 158.164 118.566 159.307 119.347C160.451 120.128 161.433 121.081 162.211 122.238C162.989 123.394 163.455 124.27 163.561 124.874C163.733 125.85 163.487 126.636 162.802 127.235C162.117 127.835 160.891 128.625 159.101 129.611C159.628 130.428 160.335 131.454 161.153 132.699C161.97 133.945 162.654 134.974 163.127 135.753C163.599 136.532 163.897 137.27 164.011 137.921C164.24 139.222 163.344 141.894 161.325 145.938C159.306 149.982 157.932 152.93 157.157 154.791C156.383 156.652 156.216 158.836 156.645 161.276C157.352 165.295 159.566 166.99 163.26 166.34C166.954 165.69 172.412 161.042 179.266 152.483L180.141 157.455C169.056 175.189 160.549 184.565 154.602 185.611C152.487 185.983 150.855 185.552 149.703 184.317C148.552 183.082 147.751 181.115 147.273 178.397C146.517 174.099 146.975 167.575 148.631 158.877C142.237 169.103 137.439 176.414 134.213 180.814C130.987 185.213 128.135 187.655 125.649 188.092C124.441 188.305 122.77 187.521 120.617 185.767C118.465 184.014 116.392 181.624 114.418 178.57C112.443 175.516 111.146 172.224 110.525 168.692C110.075 166.136 109.955 163.954 110.141 162.149C110.326 160.344 110.972 158.434 112.071 156.372C113.169 154.311 115.01 151.568 117.605 148.07L117.636 148.112ZM155.18 132.241C142.171 141.211 133.032 148.495 127.808 154.06C122.583 159.626 120.407 164.823 121.249 169.609C121.555 171.351 122.111 172.738 122.911 173.747C123.711 174.756 124.622 175.171 125.644 174.991C126.248 174.885 127.229 174.329 128.627 173.293C133.75 168.919 138.201 163.585 141.989 157.339C145.777 151.092 150.173 142.726 155.18 132.241Z" fill="#FFFBFB"/>
<path d="M217.827 157.103C224.163 149.139 229.604 142.218 234.128 136.344C238.652 130.471 242.198 125.847 244.79 122.47C247.381 119.092 249.656 116.225 251.659 113.86C253.662 111.496 254.974 110.236 255.624 110.121C256.871 109.854 258.28 110.924 259.908 113.368C261.535 115.812 262.46 117.805 262.738 119.385C262.922 120.431 261.628 123.149 258.844 127.615C256.061 132.08 254.017 135.577 252.702 138.18C251.388 140.782 250.949 143.326 251.386 145.812C251.643 147.276 252.34 148.375 253.475 149.11C254.61 149.844 255.872 150.077 257.22 149.84C258.8 149.562 260.539 148.418 262.46 146.404C264.381 144.389 267.328 140.853 271.332 135.838L272.354 141.646C268.398 146.94 264.779 151.553 261.49 155.461C258.201 159.368 255.261 162.4 252.685 164.506C250.11 166.611 247.86 167.845 245.954 168.181C244.258 168.479 242.727 168.077 241.364 167C240 165.922 239.138 164.421 238.803 162.516C238.468 160.611 238.47 158.718 238.786 156.699C239.101 154.679 239.704 152.25 240.613 149.384C241.522 146.517 242.759 143.066 244.344 139.003C245.929 134.94 247.381 131.211 248.704 127.841C243.948 133.348 239.787 138.559 236.224 143.497C232.662 148.435 229.799 152.722 227.609 156.341C225.419 159.96 223.715 162.798 222.449 164.865C219.998 168.769 217.462 170.964 214.837 171.425C212.002 171.924 210.23 170.152 209.523 166.132C209.237 164.506 209.791 161.391 211.161 156.79C212.532 152.19 214.608 146.292 217.387 139.073C217.634 138.574 217.678 137.872 217.515 136.943C217.323 135.851 216.695 135.41 215.603 135.602C214.395 135.815 212.876 137.256 211.018 139.906C209.161 142.556 205.627 148.063 200.407 156.382C198.973 158.718 197.391 161.703 195.705 165.329C194.019 168.955 192.777 171.425 191.989 172.665C191.201 173.905 190.324 174.635 189.325 174.81C187.373 175.153 185.231 173.734 182.922 170.547C180.613 167.36 179.062 163.442 178.249 158.818C177.656 155.449 177.699 152.424 178.385 149.788C179.071 147.153 180.251 143.783 181.956 139.723C184.677 133.808 186.984 129.498 188.911 126.835C190.839 124.173 193.055 122.61 195.633 122.156C197.213 121.878 198.591 121.948 199.793 122.383C200.995 122.818 201.681 123.584 201.873 124.676C202.073 125.814 201.405 127.872 199.892 130.844C198.379 133.817 196.32 136.958 193.763 140.258C192.414 142.123 191.201 144.349 190.142 146.906C189.083 149.464 188.637 151.291 188.817 152.313C189.075 153.777 189.786 154.418 190.925 154.218C191.854 154.054 193.865 151.736 196.936 147.268C200.006 142.8 203.411 137.914 207.129 132.638C210.848 127.361 214.349 122.889 217.659 119.241C220.97 115.593 223.961 113.534 226.633 113.064C228.259 112.778 229.713 113.145 230.998 114.189C232.284 115.232 233.084 116.648 233.398 118.437C233.611 119.645 233.177 121.949 232.099 125.348C231.02 128.747 229.309 133.048 226.982 138.2C224.654 143.352 221.592 149.639 217.792 157.038L217.827 157.103Z" fill="#FFFBFB"/>
<path d="M270.052 137.548C276.218 127.937 281.424 118.997 285.671 110.729C289.917 102.462 293.264 95.8852 295.714 91.0232C298.164 86.1612 300.464 82.6192 302.616 80.4203C304.768 78.2215 307.68 76.7993 311.374 76.1497C313.232 75.8228 314.284 76.3564 314.534 77.7736C314.734 78.912 314.289 80.7388 313.171 83.2348C312.053 85.7308 310.552 88.3659 308.614 91.1019C306.036 94.693 303.69 99.0576 301.525 104.181C299.36 109.304 297.048 115.77 294.539 123.565C297.089 120.769 299.98 117.458 303.285 113.644C306.59 109.829 309.274 106.842 311.38 104.651C313.486 102.461 315.63 100.623 317.82 99.1835C320.01 97.7445 322.286 96.7934 324.702 96.3684C326.235 96.0988 327.26 96.206 327.819 96.6586C328.377 97.1113 328.798 98.1391 329.075 99.719C329.803 103.855 329.515 108.073 328.188 112.378C326.861 116.683 324.699 121.279 321.683 126.192C318.667 131.106 314.857 136.543 310.233 142.529C312.261 142.891 314.278 142.92 316.299 142.564C322.619 141.453 330.23 135.156 339.152 123.647L340.185 129.525C336.7 133.947 333.27 138.143 329.896 142.113C326.523 146.084 323.263 149.34 320.125 151.927C316.988 154.515 313.953 156.055 311.002 156.573C309.91 156.765 308.728 156.854 307.475 156.811C306.222 156.767 305.035 156.689 303.924 156.501C302.813 156.313 301.403 156.058 299.662 155.694C297.921 155.329 296.585 155.085 295.653 154.961C293.988 155.709 293.049 156.09 292.817 156.131C290.912 156.466 288.547 156.091 285.725 155.031C284.549 158.83 283.367 163.685 282.179 169.594C280.99 175.504 279.951 180.214 279.063 183.747C278.175 187.28 276.748 190.741 274.836 194.167C273.706 195.779 272.872 196.62 272.337 196.714C269.991 197.127 268.466 195.263 267.738 191.128C267.105 187.527 267.167 183.659 267.926 179.526C268.684 175.393 269.8 171.388 271.301 167.531C272.802 163.675 274.458 159.743 276.342 155.747C278.226 151.751 279.522 148.768 280.261 146.842C286.251 130.507 290.751 116.734 293.706 105.484C283.864 122.927 276.309 135.537 271.065 143.31L270.052 137.548ZM304.918 141.452C309.311 134.835 312.485 129.319 314.435 124.88C316.385 120.442 317.174 117.165 316.798 115.028C316.422 112.89 315.268 112.183 313.246 112.539C310.528 113.017 307.091 115.944 302.954 121.295C298.817 126.645 294.795 133.604 290.908 142.143C294.85 140.995 297.52 140.382 298.916 140.28C300.311 140.178 302.296 140.572 304.941 141.448L304.918 141.452Z" fill="#FFFBFB"/>
<path d="M345.694 108.006C352.646 99.0469 359.7 92.034 366.841 87.0176C373.983 82.0012 379.678 79.1076 383.929 78.3599C385.068 78.1597 386.222 78.4596 387.366 79.2406C388.509 80.0215 389.491 80.9746 390.269 82.1311C391.047 83.2877 391.513 84.1639 391.619 84.7679C391.791 85.7437 391.546 86.5294 390.861 87.1289C390.176 87.7283 388.949 88.5188 387.159 89.5044C387.686 90.3219 388.393 91.3472 389.211 92.5926C390.029 93.838 390.713 94.8674 391.185 95.6466C391.657 96.4258 391.955 97.1639 392.069 97.8144C392.298 99.1155 391.403 101.788 389.383 105.832C387.364 109.875 385.99 112.823 385.216 114.684C384.441 116.545 384.274 118.73 384.703 121.169C385.41 125.189 387.624 126.883 391.319 126.234C395.013 125.584 400.471 120.935 407.325 112.377L408.199 117.349C397.114 135.082 388.608 144.459 382.66 145.505C380.546 145.876 378.913 145.445 377.762 144.21C376.61 142.976 375.809 141.009 375.331 138.291C374.575 133.992 375.033 127.469 376.689 118.771C370.296 128.997 365.498 136.307 362.271 140.707C359.045 145.107 356.193 147.548 353.707 147.986C352.499 148.198 350.828 147.414 348.676 145.661C346.523 143.908 344.45 141.518 342.476 138.464C340.502 135.41 339.204 132.117 338.583 128.586C338.134 126.03 338.013 123.848 338.199 122.042C338.384 120.237 339.03 118.327 340.129 116.266C341.228 114.205 343.069 111.462 345.663 107.963L345.694 108.006ZM383.238 92.134C370.229 101.104 361.091 108.388 355.866 113.954C350.641 119.519 348.465 124.716 349.307 129.502C349.613 131.245 350.169 132.632 350.969 133.641C351.769 134.65 352.68 135.064 353.703 134.885C354.307 134.778 355.287 134.223 356.685 133.186C361.808 128.813 366.26 123.479 370.047 117.232C373.835 110.985 378.232 102.619 383.238 92.134Z" fill="#FFFBFB"/>
<path d="M445.612 105.5L446.662 111.471C442.585 119.206 438.563 125.207 434.594 129.473C430.626 133.74 427.049 136.141 423.819 136.709C419.358 137.494 415.623 135.732 412.618 131.446C409.613 127.16 407.618 122.217 406.642 116.665C406.27 114.55 406.119 112.469 406.222 110.463C406.324 108.457 406.553 106.764 406.937 105.403C407.32 104.042 408.092 101.895 409.248 98.9369C414.869 85.5415 420.897 78.2779 427.309 77.1502C430.631 76.5659 432.506 77.5537 432.955 80.1093C433.262 81.8518 432.671 84.7581 431.164 88.8554C429.657 92.9527 428.213 95.9131 426.795 97.7912C422.861 103.202 420.33 106.928 419.204 108.97C418.079 111.013 417.718 113.184 418.122 115.484C418.466 117.436 419.499 118.954 421.192 119.998C422.884 121.042 424.904 121.357 427.25 120.944C429.806 120.495 432.454 119.071 435.213 116.646C437.972 114.221 441.418 110.525 445.593 105.527L445.612 105.5ZM433.636 69.9537C432.265 70.1948 430.898 69.9084 429.482 69.0794C428.067 68.2505 427.234 67.0556 426.957 65.4758C426.536 63.0827 427.204 60.2107 428.985 56.8556C430.767 53.5004 432.856 51.6241 435.319 51.191C436.945 50.905 438.405 51.175 439.673 51.982C440.941 52.789 441.733 54.1588 442.068 56.0639C442.48 58.4104 441.819 61.1855 440.087 64.4122C438.355 67.6389 436.211 69.477 433.655 69.9264L433.636 69.9537Z" fill="#FFFBFB"/>
<path d="M510.793 99.6898L487.602 126.762C482.298 141.275 477.084 152.348 471.978 159.952C466.872 167.557 462.775 171.631 459.731 172.166C458.105 172.452 457.116 171.596 456.76 169.575C456.07 165.648 457.189 160.302 460.088 153.493C461.247 150.822 462.646 148.157 464.29 145.52C465.935 142.884 467.516 140.57 469.057 138.574C470.598 136.579 472.628 134.09 475.192 131.1C477.756 128.11 479.498 126.032 480.426 124.91C483.91 112.849 486.341 103.655 487.7 97.3558C483.545 103.691 479.873 108.96 476.652 113.119C473.431 117.278 470.416 120.563 467.564 123.004C464.712 125.446 461.995 126.882 459.439 127.332C456.651 127.822 453.703 126.041 450.6 122.012C447.496 117.983 445.51 113.638 444.685 108.944C444.301 106.76 444.411 104.394 444.99 101.825C445.568 99.2563 446.698 96.4228 448.381 93.3245C450.063 90.2262 452.291 86.9602 455.111 83.5182C457.931 80.0763 461.344 76.6018 465.327 73.0991C472.833 66.3419 478.942 62.537 483.612 61.7158C487.097 61.1029 489.064 62.0743 489.514 64.63C490.135 68.1614 486.957 72.2892 479.975 76.99C475.707 79.8244 471.577 83.3052 467.63 87.4243C463.684 91.5434 460.611 95.7245 458.454 99.9362C456.296 104.148 455.495 107.762 456.022 110.759C456.279 112.223 456.836 113.346 457.707 114.079C458.579 114.812 459.563 115.094 460.724 114.89C462.629 114.555 464.658 113.288 466.795 111.14C468.932 108.992 472.013 105.264 476.046 100.004C477.875 97.5987 480.207 93.8353 483.019 88.7179C485.832 83.6006 488.248 79.6309 490.201 76.8444C492.154 74.0578 494.083 72.497 495.988 72.162C497.08 71.9699 498.024 72.1632 498.816 72.7185C499.609 73.2737 500.133 74.2115 500.362 75.5125C500.803 78.0218 500.441 81.8218 499.304 86.932C498.167 92.0421 495.938 100.482 492.685 112.216L509.927 94.3571L510.863 99.6775L510.793 99.6898Z" fill="#FFFBFB"/>
<path d="M561.712 69.8491C554.016 82.1965 550.514 90.4769 551.253 94.6822C551.666 97.0287 552.823 98.0229 554.728 97.6879C556.308 97.41 558.205 96.2141 560.448 94.1191C562.69 92.0242 566.117 88.3558 570.786 83.1753L571.779 88.821C565.383 97.8021 560.426 104.35 556.883 108.446C553.34 112.543 550.27 114.831 547.644 115.293C543.184 116.077 540.434 113.519 539.401 107.641C539.094 105.898 539.071 104.13 539.311 102.363C539.551 100.596 540.007 98.6958 540.637 96.6929C541.267 94.6899 542.273 91.8304 543.624 88.0719C544.975 84.3134 546.577 80.0795 548.377 75.3319C545.542 77.4592 542.213 81.2781 538.342 86.7733C535.817 90.2592 533.705 93.5048 532.052 96.502C530.4 99.4991 528.642 102.85 526.775 106.532C524.907 110.214 523.545 112.681 522.602 113.996C521.66 115.311 520.643 116.065 519.504 116.265C517.762 116.572 515.836 115.018 513.731 111.628C511.626 108.238 510.134 104.117 509.285 99.2844C508.758 96.2873 508.693 93.8795 509.073 92.0882C509.453 90.2969 510.375 87.6436 511.853 84.1981C514.604 77.7744 517.085 72.9547 519.33 69.7816C521.574 66.6085 523.962 64.7993 526.471 64.358C528.214 64.0516 529.661 64.1085 530.836 64.5246C532.011 64.9407 532.709 65.7761 532.929 67.0307C533.023 67.565 532.963 68.1745 532.744 68.8357C532.525 69.497 532.247 70.0967 531.938 70.6541C531.629 71.2115 530.937 72.3152 529.862 73.9653C522.941 85.0028 519.729 91.9387 520.228 94.7732C520.505 96.353 521.156 97.0531 522.201 96.8692C522.852 96.7548 523.946 95.4846 525.436 93.0667C526.927 90.6488 528.881 87.4551 531.258 83.54C533.635 79.625 536.518 75.4533 539.931 71.021C543.343 66.5886 547.318 62.2249 551.894 57.8752C554.42 55.3473 556.637 53.9274 558.542 53.5924C559.425 53.4371 560.474 54.4982 561.754 56.74C563.035 58.9819 563.855 61.3287 564.288 63.7914C564.5 64.9995 563.657 67.016 561.744 69.8914L561.712 69.8491Z" fill="#FFFBFB"/>
<path d="M145.359 213.965C145.645 215.592 145.48 217.106 144.833 218.465C145.221 218.9 145.793 219.566 146.55 220.462C147.306 221.359 147.895 222.118 148.358 222.707C148.801 223.324 149.078 223.946 149.197 224.62C149.348 225.479 148.914 227.232 147.883 229.952C146.853 232.673 144.957 237.149 142.155 243.415C139.353 249.68 136.589 255.891 133.886 262.042L138.732 263.993C145.172 258.118 150.586 251.992 154.95 245.62L156.098 252.148C152.333 258.798 148.393 264.856 144.23 270.331C145.163 272.778 145.677 274.34 145.796 275.014C146.858 281.054 145.191 288.461 140.817 297.23C136.439 305.976 131.135 313.951 124.9 321.131C118.666 328.311 114.144 332.148 111.309 332.647C106.825 333.435 103.896 329.855 102.503 321.932C102.078 319.516 103.081 315.004 105.558 308.389C108.012 301.778 111.656 293.353 116.467 283.118C121.278 272.882 127.411 260.091 134.891 244.74C125.085 258.441 118.921 266.974 116.427 270.358C113.928 273.72 111.43 276.674 108.904 279.202C106.379 281.73 103.98 283.206 101.679 283.61C99.3794 284.015 97.0131 283.09 94.5574 280.839C92.1017 278.588 89.9784 275.776 88.1684 272.43C86.3543 269.06 85.226 266.049 84.7602 263.4C84.2086 260.264 84.1227 257.596 84.5258 255.394C84.9329 253.214 86.0031 250.583 87.7636 247.519C91.6173 240.422 96.6212 234.009 102.783 228.327C108.918 222.625 115.262 218.109 121.782 214.734C128.307 211.383 134.062 209.245 139.104 208.359C142.542 207.754 144.669 209.632 145.433 213.976L145.359 213.965ZM99.4365 268.268C101.969 267.823 104.926 266.249 108.279 263.528C111.637 260.829 115.153 257.121 118.803 252.408C123.281 246.686 127.156 241.478 130.422 236.76C133.688 232.042 136.094 228.289 137.659 225.475C139.224 222.661 139.978 221.091 139.912 220.72C139.818 220.185 139.537 219.947 139.049 220.033C137.121 220.372 133.349 222.353 127.739 225.998C122.152 229.639 116.54 233.956 110.93 238.966C105.32 243.976 101.212 248.675 98.6297 253.057C97.6174 254.792 96.9136 257.191 96.5101 260.208C96.1106 263.249 95.9769 265.212 96.1362 266.118C96.4468 267.884 97.5273 268.58 99.4092 268.249L99.4365 268.268ZM128.014 275.506C124.762 282.617 121.735 290.598 118.881 299.435C116.028 308.272 114.735 313.314 114.96 314.592C115.107 315.428 115.614 315.722 116.476 315.451C117.339 315.179 118.624 314.45 120.359 313.283C123.975 310.827 127.755 305.899 131.695 298.475C134.336 293.34 135.932 289.203 136.486 286.088C137.04 282.973 137.172 279.5 136.951 275.659C133.433 276.9 130.458 276.873 128.046 275.548L128.014 275.506Z" fill="#FFFBFB"/>
<path d="M192.545 236.852C186.485 248.697 181.798 257.185 178.462 262.323C175.126 267.46 172.145 270.26 169.543 270.718C167.475 271.081 165.419 270.557 163.374 269.144C161.329 267.731 159.577 265.668 158.11 262.908C156.647 260.171 155.607 257.121 155.023 253.798C154.639 251.614 154.505 249.626 154.593 247.814C154.682 246.002 155.133 243.935 155.903 241.644C156.674 239.352 157.784 236.81 159.233 234.016C160.681 231.223 162.495 228.053 164.666 224.462C165.957 222.271 167.046 220.427 167.956 218.925C168.865 217.424 169.779 216.353 170.766 215.701C171.753 215.048 173.431 214.513 175.824 214.093C177.567 213.786 179.257 213.728 180.919 213.915C182.58 214.102 183.452 214.428 183.542 214.939C183.714 215.915 183.211 217.824 182.061 220.684C180.912 223.545 178.876 227.089 175.948 231.412C173.02 235.735 169.537 240.036 165.469 244.416C164.987 247.807 164.909 250.359 165.203 252.032C165.616 254.379 166.726 255.381 168.515 255.066C169.166 254.952 170.16 254.202 171.497 252.817C172.834 251.432 175.01 248.822 178.075 245.002C181.139 241.182 183.897 237.798 186.345 234.829C188.133 232.599 190.109 229.401 192.275 225.235C194.441 221.07 196.231 217.905 197.647 215.74C200.918 210.781 203.197 207.53 204.436 205.995C205.675 204.46 206.978 203.56 208.349 203.319C209.719 203.078 210.606 203.353 211.214 204.085C211.821 204.816 212.348 206.448 212.785 208.934C212.985 210.072 213.033 211.022 212.95 211.779C212.868 212.536 212.562 213.524 212.085 214.758C211.607 215.991 210.6 218.3 209.032 221.642C207.464 224.983 205.65 228.967 203.557 233.551C202.408 236.004 201.501 238.607 200.82 241.409C200.139 244.212 199.897 246.242 200.126 247.543C200.624 250.378 201.989 251.599 204.219 251.206C206.078 250.88 208.081 249.737 210.278 247.794C212.475 245.85 215.729 242.428 220.095 237.564L221.06 243.047C215.727 250.045 211.763 255.149 209.189 258.356C206.616 261.563 204.322 264.05 202.329 265.79C200.336 267.53 198.321 268.603 196.323 268.954C191.746 269.759 188.991 267.441 188.031 261.981C187.667 259.914 187.85 257.007 188.604 253.258C189.358 249.509 190.67 244.032 192.545 236.852Z" fill="#FFFBFB"/>
<path d="M233.003 238.504L233.363 240.548C233.926 243.755 235.158 246.125 237.052 247.636C238.947 249.147 241.174 249.69 243.729 249.24C246.285 248.791 249.056 247.657 251.693 245.9C254.33 244.142 256.897 241.99 259.345 239.428C261.793 236.866 264.787 233.465 268.24 229.265L269.115 234.237C264.261 242.731 259.496 249.413 254.801 254.311C250.105 259.209 244.969 262.148 239.417 263.124C234.561 263.978 230.396 262.77 226.9 259.505C223.404 256.24 221.083 251.354 219.935 244.826C218.93 239.11 219.343 233.697 221.194 228.557C223.045 223.417 226.527 217.751 231.657 211.507C235.171 207.249 238.814 203.854 242.584 201.322C246.354 198.791 249.847 197.267 253.053 196.703C255.608 196.253 257.732 196.479 259.45 197.398C261.169 198.317 262.219 199.929 262.632 202.276C263.236 205.714 262.559 209.354 260.6 213.196C258.641 217.037 255.334 221.116 250.672 225.385C246.009 229.654 240.118 234.019 232.976 238.485L233.003 238.504ZM232.881 233.04C237.448 230.273 241.213 227.168 244.2 223.721C247.186 220.273 249.291 217.125 250.483 214.232C251.675 211.34 252.18 209.311 251.972 208.126C251.764 206.941 251.06 206.347 249.922 206.547C248.946 206.718 247.453 207.628 245.467 209.27C243.48 210.913 241.536 212.932 239.638 215.349C237.739 217.767 236.112 220.496 234.801 223.529C233.49 226.562 232.828 229.744 232.857 233.045L232.881 233.04Z" fill="#FFFBFB"/>
<path d="M268.343 231.618L267.999 229.667C279.449 212.372 287.292 200.31 291.524 193.458C291.555 186.555 293.848 182.702 298.425 181.897C299.563 181.697 300.852 181.806 302.267 182.228L303.029 183.698C302.934 184.386 302.981 185.336 303.194 186.544C303.378 187.589 304.108 189.425 305.392 192.097C306.676 194.769 307.693 197.01 308.47 198.837C309.246 200.665 309.835 202.789 310.256 205.182C310.889 208.783 310.681 212.364 309.635 215.95C308.589 219.535 306.774 223.111 304.192 226.679C301.61 230.247 298.157 234.04 293.811 238.062C295.82 238.044 297.405 237.932 298.543 237.732C300.774 237.34 303.092 236.357 305.475 234.789C307.858 233.22 310.245 231.267 312.609 228.911C314.973 226.556 317.68 223.565 320.754 219.934L321.719 225.417C315.946 233.45 310.626 239.703 305.737 244.18C300.848 248.656 296.419 251.255 292.446 251.954C287.334 252.853 282.211 251.503 277.079 247.926C274.066 245.773 272.021 243.546 270.973 241.263C269.925 238.981 269.051 235.781 268.336 231.715L268.343 231.618ZM296.603 213.762L293.044 202.101C290.345 206.504 284.406 215.093 275.255 227.888C278.654 228.009 281.052 228.569 282.449 229.569C283.847 230.568 285.947 232.57 288.736 235.625C292.16 233.442 294.654 230.871 296.163 227.875C297.672 224.88 298.038 221.103 297.233 216.526C297.139 215.991 297.049 215.48 296.929 215.07C296.809 214.66 296.704 214.2 296.584 213.79L296.603 213.762Z" fill="#FFFBFB"/>
<path d="M341.663 172.665L345.171 172.048C347.141 166.36 349.125 162.251 351.091 159.677C353.058 157.104 355.542 155.565 358.539 155.038C361.536 154.511 363.141 154.924 363.382 156.294C363.497 156.945 362.646 158.915 360.81 162.232C358.974 165.549 357.633 168.275 356.768 170.439C358.664 170.322 360.35 170.241 361.819 170.15C363.288 170.059 364.451 169.998 365.285 169.972C363.185 176.281 360.347 182.888 356.716 189.754C355.162 189.907 353.868 190.039 352.833 190.149C351.799 190.259 350.714 190.354 349.652 190.445C348.59 190.536 347.273 190.672 345.723 190.849C343.606 196.107 341.887 200.769 340.57 204.857C339.253 208.945 338.32 212.629 337.795 215.907C337.269 219.185 337.254 222.23 337.744 225.018C338.406 228.782 340.224 230.402 343.221 229.875C345.289 229.512 347.815 227.942 350.772 225.146C353.73 222.351 357.617 218.17 362.412 212.608L363.376 218.091C351.476 236.639 342.028 246.516 334.988 247.754C332.549 248.183 330.406 247.578 328.561 245.938C326.716 244.299 325.539 241.967 325.016 238.993C324.661 236.972 324.658 234.505 325.008 231.593C325.359 228.681 326.129 224.21 327.328 218.227C326.676 219.012 326.07 219.79 325.507 220.535C324.943 221.281 324.418 221.972 323.927 222.586C323.436 223.199 322.93 223.863 322.378 224.535C321.825 225.207 321.281 225.925 320.737 226.644L319.744 220.998C324.618 215.207 330.062 205.579 336.054 192.118C335.233 192.215 334.458 192.303 333.757 192.402C333.056 192.502 332.192 192.63 331.216 192.801C328.01 193.365 325.654 193.995 324.151 194.714C323.53 194.991 322.958 195.283 322.41 195.571C321.862 195.859 321.483 196.022 321.274 196.059C321.065 196.095 320.92 195.953 320.863 195.628C320.548 193.839 321.19 190.948 322.787 186.954C324.041 183.596 325.359 181.017 326.705 179.271C328.051 177.526 329.85 176.179 332.06 175.264C334.27 174.348 337.501 173.516 341.683 172.781L341.663 172.665Z" fill="#FFFBFB"/>
</g>
</g>
<defs>
<clipPath id="clip0_5_11454">
<rect width="564.694" height="247.953" fill="white" transform="translate(0 97.8067) rotate(-9.9741)"/>
</clipPath>
</defs>
</svg>
