<svg width="177" height="169" viewBox="0 0 177 169" fill="none" xmlns="http://www.w3.org/2000/svg">
<path d="M133.731 109.112L139.983 80.1631L88.0954 43.889L17.9379 71.9863L51.3736 140.306L128.029 135.534L131.016 121.703L156.498 119.883L133.731 109.112Z" fill="white" stroke="black" stroke-width="2" stroke-linecap="round" stroke-linejoin="round"/>
<path d="M72.7783 14.6629C72.4467 15.4709 71.5426 15.8584 70.7309 15.5392C69.921 15.2078 69.5338 14.2931 69.8514 13.4955C70.1708 12.6858 71.0872 12.3 71.8989 12.6192C72.7105 12.9385 73.0959 13.8653 72.7783 14.6629Z" fill="black"/>
<path d="M74.7136 9.84438C74.3942 10.6541 73.4779 11.0399 72.6662 10.7206C71.8545 10.4014 71.4674 9.48676 71.7868 8.67699C72.1062 7.86723 73.0347 7.48329 73.8342 7.80072C74.6459 8.11997 75.0312 9.04676 74.7015 9.84257L74.7136 9.84438Z" fill="black"/>
<path d="M69.6671 18.1764L65.2284 29.2075" stroke="black" stroke-width="2" stroke-linecap="round" stroke-linejoin="round"/>
<path d="M56.2405 11.8355C56.3615 12.6982 55.7705 13.4925 54.906 13.6127C54.0416 13.7328 53.2452 13.1426 53.1242 12.2798C53.0033 11.4171 53.5943 10.6228 54.4587 10.5027C55.3232 10.3825 56.1178 10.985 56.2405 11.8355Z" fill="black"/>
<path d="M55.5094 6.69576C55.6303 7.55846 55.0393 8.35276 54.1749 8.47291C53.3104 8.59305 52.514 8.00278 52.3931 7.14008C52.2721 6.27737 52.8631 5.48307 53.7276 5.36292C54.5921 5.24278 55.3866 5.84521 55.5094 6.69576Z" fill="black"/>
<path d="M55.3095 16.4304L56.9975 28.2094" stroke="black" stroke-width="2" stroke-linecap="round" stroke-linejoin="round"/>
<path d="M40.5257 17.6399C41.0604 18.3156 40.9386 19.3038 40.2618 19.8369C39.5729 20.3682 38.5807 20.2582 38.0479 19.5704C37.515 18.8826 37.6246 17.8926 38.3135 17.3613C39.0024 16.83 39.9928 16.9521 40.5257 17.6399Z" fill="black"/>
<path d="M37.309 13.5599C37.8437 14.2355 37.7219 15.2237 37.0434 15.769C36.3544 16.3003 35.3623 16.1903 34.8294 15.5025C34.2965 14.8147 34.4061 13.8247 35.095 13.2934C35.784 12.7621 36.7743 12.8842 37.3072 13.572L37.309 13.5599Z" fill="black"/>
<path d="M42.0197 22.0855L49.3699 31.4501" stroke="black" stroke-width="2" stroke-linecap="round" stroke-linejoin="round"/>
<path d="M29.813 30.51C30.6246 30.8293 31.0118 31.7439 30.6924 32.5537C30.3608 33.3617 29.4549 33.7614 28.645 33.43C27.8333 33.1107 27.4461 32.1961 27.7655 31.3863C28.0971 30.5784 29.0134 30.1926 29.8112 30.5222L29.813 30.51Z" fill="black"/>
<path d="M24.983 28.5757C25.7946 28.8949 26.1818 29.8096 25.8624 30.6193C25.5308 31.4273 24.6145 31.8131 23.815 31.4956C23.0033 31.1764 22.6179 30.2496 22.9355 29.452C23.2671 28.644 24.1834 28.2583 24.9812 28.5878L24.983 28.5757Z" fill="black"/>
<path d="M33.3359 33.6169L44.4036 38.0672" stroke="black" stroke-width="2" stroke-linecap="round" stroke-linejoin="round"/>
<path d="M133.731 109.112L139.983 80.1631L88.0954 43.889L17.9379 71.9863L51.3736 140.306L128.029 135.534L131.016 121.703L156.498 119.883L133.731 109.112Z" stroke="black" stroke-width="2" stroke-linecap="round" stroke-linejoin="round"/>
<g style="mix-blend-mode:multiply">
<path d="M12.6361 123.139L35.9491 150.613L122.542 87.2767L12.6361 123.139Z" fill="#A7F06E"/>
</g>
<path d="M133.731 109.112L139.983 80.1631L88.0954 43.889L17.9379 71.9863L51.3736 140.306L128.029 135.534L131.016 121.703L156.498 119.883L133.731 109.112Z" stroke="black" stroke-width="2" stroke-linecap="round" stroke-linejoin="round"/>
<path opacity="0.5" d="M141.731 93.1122L147.983 64.1632L96.0954 27.889L25.9379 55.9864L59.3736 124.306L136.029 119.534L139.016 105.703L164.498 103.883L141.731 93.1122Z" fill="#8EE4E9"/>
<g clip-path="url(#clip0_5_9520)">
<path d="M74.89 87.1875C74.61 88.6075 74.17 89.8475 73.58 90.8975C72.99 91.9475 72.21 92.8375 71.24 93.5475C70.27 94.2575 69.1 94.7975 67.71 95.1575C66.33 95.5175 64.71 95.6975 62.87 95.6975C61.54 95.6975 60.35 95.5875 59.3 95.3775C58.25 95.1675 57.37 94.8975 56.66 94.5675C56.41 94.4475 56.24 94.2975 56.14 94.1475C56.05 93.9875 56 93.7775 56 93.4875C56 93.3975 56 93.2375 56.02 93.0175C56.04 92.7975 56.07 92.5575 56.13 92.2875C56.18 92.0175 56.25 91.7475 56.33 91.4575C56.41 91.1675 56.51 90.9075 56.62 90.6875C56.74 90.4575 56.87 90.2775 57.01 90.1275C57.15 89.9775 57.31 89.9075 57.5 89.9075C57.69 89.9075 57.92 89.9775 58.19 90.1075C58.46 90.2375 58.83 90.3875 59.28 90.5375C59.73 90.6975 60.3 90.8375 60.97 90.9675C61.64 91.0975 62.47 91.1675 63.45 91.1675C64.25 91.1675 64.96 91.1075 65.59 90.9775C66.22 90.8475 66.77 90.6475 67.24 90.3675C67.71 90.0875 68.09 89.7275 68.38 89.2875C68.67 88.8475 68.88 88.3075 69 87.6675C69.2 86.6475 69.41 85.7975 69.61 85.1175C69.81 84.4375 70 83.8675 70.17 83.4275C69.89 83.9475 69.49 84.4575 68.96 84.9675C68.44 85.4775 67.84 85.9275 67.17 86.3375C66.5 86.7475 65.78 87.0675 65 87.3075C64.23 87.5475 63.45 87.6675 62.67 87.6675C61.47 87.6675 60.46 87.4675 59.63 87.0575C58.81 86.6475 58.14 86.0875 57.63 85.3675C57.11 84.6475 56.74 83.8075 56.52 82.8375C56.29 81.8675 56.18 80.8175 56.18 79.6975C56.18 78.6775 56.27 77.5875 56.46 76.4175C56.65 75.2475 56.94 74.0775 57.34 72.9275C57.74 71.7675 58.24 70.6575 58.85 69.5975C59.46 68.5375 60.19 67.5975 61.04 66.7775C61.89 65.9575 62.87 65.3075 63.97 64.8175C65.07 64.3375 66.31 64.0875 67.68 64.0875C68.98 64.0875 70.13 64.3575 71.13 64.8975C72.13 65.4375 73 66.2175 73.75 67.2575L74.12 65.4075C74.18 65.0775 74.43 64.8475 74.86 64.7075C75.29 64.5675 75.98 64.4975 76.93 64.4975C77.4 64.4975 77.79 64.5175 78.1 64.5575C78.41 64.5975 78.66 64.6475 78.84 64.7175C79.02 64.7875 79.14 64.8775 79.2 64.9975C79.26 65.1175 79.28 65.2475 79.25 65.4075L74.87 87.1775L74.89 87.1875ZM72.17 71.6775C71.62 70.8175 71.02 70.1775 70.35 69.7475C69.69 69.3175 68.92 69.1075 68.04 69.1075C67.38 69.1075 66.79 69.2675 66.25 69.5775C65.71 69.8875 65.23 70.3075 64.8 70.8275C64.37 71.3475 64 71.9575 63.68 72.6475C63.36 73.3375 63.09 74.0575 62.88 74.8075C62.67 75.5575 62.51 76.3075 62.41 77.0575C62.31 77.8075 62.26 78.5175 62.26 79.1875C62.26 79.7175 62.31 80.2075 62.4 80.6375C62.49 81.0775 62.64 81.4475 62.83 81.7475C63.03 82.0475 63.28 82.2875 63.58 82.4475C63.88 82.6075 64.26 82.6975 64.69 82.6975C65.38 82.6975 66.08 82.4875 66.8 82.0775C67.52 81.6675 68.19 81.0975 68.82 80.3875C69.44 79.6775 70 78.8475 70.47 77.8875C70.95 76.9375 71.29 75.9175 71.51 74.8375L72.17 71.6775Z" fill="#446FC1"/>
<path d="M104.07 72.4775C104.07 73.5975 103.96 74.7575 103.75 75.9475C103.54 77.1375 103.21 78.2975 102.75 79.4275C102.3 80.5575 101.71 81.6275 101 82.6175C100.29 83.6075 99.44 84.4875 98.45 85.2375C97.46 85.9975 96.32 86.5975 95.04 87.0275C93.76 87.4675 92.31 87.6875 90.7 87.6875C89.09 87.6875 87.76 87.5075 86.61 87.1375C85.46 86.7675 84.5 86.2275 83.74 85.5175C82.97 84.8075 82.4 83.9275 82.03 82.8975C81.66 81.8575 81.47 80.6675 81.47 79.3275C81.47 78.2075 81.58 77.0475 81.79 75.8575C82 74.6675 82.33 73.5175 82.79 72.3875C83.24 71.2675 83.83 70.1975 84.54 69.1875C85.25 68.1775 86.1 67.2975 87.09 66.5475C88.08 65.7975 89.22 65.2075 90.5 64.7675C91.78 64.3275 93.23 64.1075 94.84 64.1075C96.45 64.1075 97.78 64.2875 98.93 64.6575C100.08 65.0275 101.04 65.5675 101.8 66.2775C102.56 66.9875 103.14 67.8675 103.51 68.8975C103.88 69.9275 104.07 71.1275 104.07 72.4675V72.4775ZM97.98 72.8675C97.98 72.2075 97.91 71.6275 97.78 71.1175C97.65 70.6075 97.43 70.1775 97.12 69.8275C96.81 69.4775 96.42 69.2075 95.95 69.0175C95.47 68.8275 94.89 68.7375 94.2 68.7375C93.42 68.7375 92.72 68.8875 92.09 69.1975C91.46 69.5075 90.91 69.9075 90.41 70.4275C89.92 70.9475 89.49 71.5375 89.13 72.2175C88.77 72.8975 88.47 73.6075 88.24 74.3575C88.01 75.1075 87.83 75.8675 87.72 76.6475C87.61 77.4175 87.56 78.1575 87.56 78.8575C87.56 79.5175 87.63 80.0975 87.76 80.6175C87.89 81.1375 88.11 81.5675 88.42 81.9175C88.72 82.2675 89.12 82.5375 89.59 82.7275C90.07 82.9175 90.65 83.0075 91.34 83.0075C92.12 83.0075 92.82 82.8575 93.45 82.5475C94.08 82.2375 94.63 81.8275 95.13 81.3075C95.62 80.7875 96.05 80.1875 96.41 79.5075C96.77 78.8275 97.07 78.1075 97.3 77.3475C97.53 76.5875 97.71 75.8275 97.82 75.0575C97.93 74.2875 97.98 73.5575 97.98 72.8575V72.8675Z" fill="#446FC1"/>
<path d="M116 82.5975C116 82.8775 115.97 83.2075 115.91 83.5775C115.85 83.9475 115.77 84.3275 115.66 84.7175C115.56 85.0975 115.43 85.4575 115.27 85.7975C115.11 86.1375 114.93 86.4075 114.73 86.6075C114.43 86.9075 114.05 87.1275 113.59 87.2775C113.13 87.4275 112.54 87.4975 111.82 87.4975C111.26 87.4975 110.79 87.4575 110.43 87.3675C110.06 87.2775 109.77 87.1575 109.56 86.9775C109.35 86.8075 109.2 86.5975 109.13 86.3575C109.05 86.1175 109.01 85.8375 109.01 85.5275C109.01 85.2775 109.03 84.9675 109.08 84.5975C109.13 84.2275 109.2 83.8475 109.31 83.4575C109.42 83.0675 109.55 82.6975 109.71 82.3475C109.87 81.9975 110.05 81.7075 110.27 81.4875C110.61 81.1475 111.01 80.9075 111.47 80.7775C111.92 80.6475 112.48 80.5775 113.13 80.5775C113.74 80.5775 114.23 80.6275 114.59 80.7275C114.96 80.8275 115.25 80.9675 115.46 81.1475C115.67 81.3275 115.81 81.5375 115.88 81.7875C115.95 82.0375 115.99 82.3075 115.99 82.5875L116 82.5975ZM116.45 77.2075C116.42 77.3675 116.34 77.5075 116.23 77.6275C116.12 77.7475 115.94 77.8575 115.73 77.9475C115.51 78.0375 115.23 78.0975 114.9 78.1475C114.56 78.1975 114.15 78.2175 113.67 78.2175C113.19 78.2175 112.76 78.1975 112.44 78.1475C112.12 78.0975 111.87 78.0375 111.7 77.9475C111.53 77.8575 111.41 77.7575 111.35 77.6275C111.29 77.4975 111.27 77.3575 111.3 77.2075L114.96 55.9275C114.99 55.7275 115.07 55.5475 115.21 55.3875C115.34 55.2275 115.54 55.0975 115.81 54.9975C116.08 54.8975 116.42 54.8175 116.84 54.7775C117.26 54.7375 117.78 54.7075 118.39 54.7075C119 54.7075 119.53 54.7275 119.93 54.7775C120.33 54.8275 120.64 54.8975 120.87 54.9975C121.1 55.0975 121.24 55.2275 121.3 55.3875C121.36 55.5475 121.37 55.7275 121.32 55.9275L116.47 77.2075H116.45Z" fill="#446FC1"/>
</g>
<defs>
<clipPath id="clip0_5_9520">
<rect width="65.33" height="40.99" fill="white" transform="translate(56 54.7075)"/>
</clipPath>
</defs>
</svg>
