<svg width="209" height="27" viewBox="0 0 209 27" fill="none" xmlns="http://www.w3.org/2000/svg">
<path d="M1.06289 24.0201C0.724917 23.7424 0.524096 23.4887 0.460421 23.259C0.337968 22.8042 0.200822 21.7511 0.0440828 20.1045L0 19.2668C0 19.0897 0.0832675 18.9557 0.254701 18.8695C0.421236 18.7785 0.646548 18.7355 0.925739 18.7355C1.32738 18.7355 1.57229 18.8743 1.66535 19.1519C2.21884 21.0044 3.0907 22.3686 4.27114 23.259C5.45647 24.1445 6.76916 24.5897 8.219 24.5897C9.82067 24.5897 11.1432 24.1637 12.1865 23.3164C13.2297 22.4692 13.7538 21.3443 13.7538 19.9513C13.7538 18.9652 13.5628 18.1467 13.1759 17.5005C12.7889 16.8543 12.2599 16.3086 11.584 15.8682C10.908 15.423 9.88925 14.863 8.53737 14.1785L7.61163 13.7237C6.10302 12.9626 4.91768 12.3068 4.05562 11.7468C3.19356 11.1915 2.45394 10.507 1.84168 9.69324C1.22452 8.88427 0.920841 7.95563 0.920841 6.9169C0.920841 4.89209 1.75352 3.23108 3.41397 1.93865C5.07932 0.646216 7.45979 0 10.5701 0C12.1375 0 13.7538 0.277633 15.4192 0.837687C15.6347 0.914275 15.8355 1.03873 16.0217 1.21584C16.2078 1.39295 16.3302 1.58443 16.389 1.78547C16.6976 2.67102 16.9278 3.38904 17.0796 3.93474C17.2315 4.48043 17.3099 5.01655 17.3099 5.55267C17.3099 5.8303 17.0796 5.96912 16.6192 5.96912C16.34 5.96912 16.0706 5.91646 15.811 5.81594C15.5514 5.71542 15.3898 5.58618 15.3261 5.43779C14.6502 4.04483 13.8714 3.0061 12.9946 2.32159C12.1179 1.63708 11.0452 1.29722 9.78639 1.29722C8.24838 1.29722 6.97978 1.64665 5.98057 2.34074C4.98136 3.03961 4.48175 4.13578 4.48175 5.62926C4.48175 6.3377 4.76094 6.99828 5.31443 7.6062C5.86791 8.21412 6.56834 8.77417 7.41571 9.27678C8.26308 9.78418 9.43862 10.416 10.9472 11.1771C12.3922 11.9143 13.5628 12.5701 14.4543 13.1541C15.3457 13.7381 16.1 14.4609 16.7172 15.3225C17.3343 16.1841 17.6429 17.2085 17.6429 18.4004C17.6429 20.655 16.7172 22.4596 14.8755 23.819C13.0289 25.1737 10.5995 25.8534 7.58224 25.8534C4.99605 25.8534 2.8262 25.2455 1.07268 24.0296L1.06289 24.0201Z" fill="white"/>
<path d="M21.3135 26.1234C21.1078 26.0325 21 25.9128 21 25.7644C21 25.4341 21.4261 25.1421 22.2833 24.8884C23.0327 24.6587 23.6842 24.338 24.2278 23.9167C24.7715 23.5003 25.2417 22.8445 25.6287 21.9589C27.0002 18.8667 28.2002 16.0616 29.2239 13.539C30.2476 11.0163 31.4721 7.87143 32.8975 4.09466C33.1816 3.30963 33.3628 2.57246 33.4411 1.88795C33.5195 1.86402 33.7056 1.80658 34.0044 1.71563C34.3032 1.62947 34.5824 1.49544 34.842 1.31833C35.0477 1.16515 35.2094 0.94017 35.3269 0.633816C35.4445 0.327462 35.5277 0.126417 35.5816 0.0258943C35.6061 0.00196038 35.6404 -0.00761319 35.6796 0.00674716C35.7188 0.0211075 35.7481 0.0402546 35.7775 0.0641885C35.8314 0.193432 35.8755 0.332248 35.9147 0.480639C35.9539 0.633816 35.998 0.772632 36.0518 0.897089C37.9719 6.80398 40.2789 13.5677 42.9728 21.193C43.4626 22.586 44.0112 23.529 44.6039 24.0268C45.2015 24.5199 45.9656 24.8454 46.9011 24.9938C47.3174 25.0703 47.6358 25.19 47.8562 25.3528C48.0766 25.5203 48.1844 25.6878 48.1844 25.8649C48.1844 26.1186 47.8072 26.2431 47.0578 26.2431L44.9566 26.1665C43.5018 26.066 42.4047 26.0133 41.6503 26.0133L37.5653 26.0516C36.811 26.0516 36.4388 25.8985 36.4388 25.5969C36.4388 25.4437 36.5612 25.3001 36.8061 25.1613C37.051 25.0225 37.3547 24.9267 37.7221 24.8741C39.3042 24.6204 40.0928 24.0508 40.0928 23.1652C40.0928 22.3562 39.5883 20.3027 38.5743 17.0094C38.5205 16.8323 38.4225 16.7174 38.2805 16.6695C38.1384 16.6169 37.8837 16.5929 37.5213 16.5929H30.1692C29.8851 16.5929 29.6647 16.8227 29.508 17.2775C29.2239 18.0864 28.8859 19.1443 28.499 20.4511C28.112 21.7579 27.9161 22.5238 27.9161 22.7488C27.9161 23.2801 28.1316 23.7348 28.5578 24.1178C28.9839 24.5007 29.5227 24.764 30.1741 24.9172C30.6394 25.0464 30.9725 25.1565 31.1635 25.257C31.3595 25.3575 31.4574 25.4964 31.4574 25.6735C31.4574 25.9511 31.0803 26.0899 30.3309 26.0899C29.8655 26.0899 29.4737 26.0756 29.1651 26.0516L26.7944 26.0133C26.3536 26.0133 25.8687 26.0325 25.3348 26.0708C24.8009 26.1091 24.4091 26.1282 24.1495 26.1282C23.4246 26.2048 22.7486 26.2431 22.1266 26.2431C21.7886 26.2431 21.5192 26.2 21.3086 26.1091L21.3135 26.1234ZM37.2617 15.3436C37.4184 15.3436 37.5457 15.3292 37.6486 15.3053C37.7515 15.2814 37.8053 15.2287 37.8053 15.1521L37.727 14.774L34.6951 5.49719C34.5383 5.04244 34.4208 4.81268 34.3473 4.81268C34.2934 4.81268 34.1906 5.02808 34.0387 5.45889L30.4974 14.774L30.419 15.0803C30.419 15.2096 30.4778 15.2814 30.5954 15.3101C30.7129 15.334 30.9284 15.3484 31.237 15.3484H37.2666L37.2617 15.3436Z" fill="white"/>
<path d="M53 25.6615C53 25.4844 53.1029 25.3456 53.3086 25.245C53.5143 25.1445 53.8376 25.0536 54.2833 24.977C55.2678 24.7999 55.9487 24.5031 56.3258 24.0819C56.703 23.6654 56.8891 22.9857 56.8891 22.0475V4.94431C56.8891 4.08269 56.703 3.46041 56.3258 3.08225C55.9487 2.70409 55.2678 2.42167 54.2833 2.24456C53.4261 2.09139 53 1.83769 53 1.48346C53 1.20583 53.3772 1.06701 54.1266 1.06701L56.5364 1.10531C56.9234 1.12924 57.5748 1.1436 58.481 1.1436C59.2059 1.1436 59.7104 1.12924 59.9994 1.10531L62.2574 1.06701C63.0068 1.06701 63.384 1.20583 63.384 1.48346C63.384 1.83769 62.9578 2.09139 62.1007 2.24456C61.1945 2.39774 60.6165 2.67537 60.3716 3.08225C60.1267 3.48913 60.0043 4.10662 60.0043 4.94431V12.0527C60.0043 12.5361 60.0679 12.7755 60.2002 12.7755C60.3324 12.7755 60.499 12.7037 60.7047 12.5649C60.9104 12.426 61.0916 12.2681 61.2484 12.091L69.0266 4.33639C69.4135 3.95823 69.6094 3.57529 69.6094 3.19713C69.6094 2.99609 69.5458 2.8094 69.4135 2.64665C69.2862 2.4839 69.1049 2.37381 68.8698 2.32594C68.429 2.20148 68.1155 2.0866 67.9343 1.98608C67.7531 1.88555 67.66 1.74674 67.66 1.56963C67.66 1.29199 68.0371 1.15318 68.7865 1.15318H70.8878C71.4854 1.15318 73.1459 1.11488 75.8692 1.03829L77.1917 1C77.4513 1 77.657 1.03829 77.8137 1.11488C77.9705 1.19147 78.0488 1.29199 78.0488 1.42124C78.0488 1.77546 77.6227 2.02916 76.7655 2.18233C74.3263 2.61315 72.3573 3.45083 70.8535 4.69061C69.4527 5.82986 68.2037 6.93561 67.1016 7.99827C65.9995 9.06094 64.7603 10.3294 63.3889 11.799C63.335 11.8516 63.3105 11.9139 63.3105 11.9904C63.3105 12.1436 63.3986 12.3064 63.5848 12.4835L72.9989 22.2916C73.9051 23.2777 74.581 23.9191 75.0218 24.2111C75.4626 24.5031 76.2121 24.7616 77.2798 24.9913C77.7452 25.0919 78.0782 25.1924 78.2693 25.2977C78.4652 25.3982 78.5631 25.5275 78.5631 25.6759C78.5631 25.9535 78.186 26.0923 77.4366 26.0923C76.3982 26.0923 75.4675 26.054 74.6349 25.9774C73.5965 25.9248 72.7295 25.9008 72.0291 25.9008H70.9417C70.6037 25.9248 69.918 25.9391 68.8796 25.9391C68.1253 25.9391 67.753 25.8003 67.753 25.5227C67.753 25.3456 67.8314 25.2115 67.9882 25.1254C68.1449 25.0344 68.4143 24.9531 68.8061 24.8765C69.5311 24.6994 69.8935 24.4457 69.8935 24.1154C69.8935 23.9143 69.6976 23.5984 69.3106 23.1676L61.0672 14.2737C60.6263 13.8429 60.3275 13.6275 60.1708 13.6275C60.0679 13.6275 60.0141 13.8046 60.0141 14.1589C60.0141 15.705 60.0777 18.2276 60.21 21.722C60.2639 22.6363 60.4647 23.3686 60.8125 23.9287C61.1602 24.4887 61.7921 24.843 62.6982 24.9913C63.139 25.0679 63.4623 25.1541 63.6729 25.2594C63.8787 25.3599 63.9815 25.4987 63.9815 25.6759C63.9815 25.9535 63.6044 26.0923 62.855 26.0923C62.0272 26.0923 61.2729 26.0397 60.5969 25.9391C60.1316 25.8625 59.6124 25.8242 59.0393 25.8242C58.5985 25.8242 58.1528 25.8434 57.6973 25.8817C57.2417 25.92 56.9136 25.9391 56.7079 25.9391C55.7233 26.0397 54.8662 26.0923 54.1413 26.0923C53.4163 26.0923 53.0147 25.9535 53.0147 25.6759L53 25.6615Z" fill="white"/>
<path d="M84 25.5945C84 25.4174 84.1029 25.2786 84.3086 25.178C84.5143 25.0775 84.8376 24.9866 85.2833 24.91C86.2923 24.7329 87.027 24.4361 87.4825 24.0149C87.9381 23.5984 88.1634 22.9426 88.1634 22.0571V4.95388C88.1634 4.06833 87.9772 3.4269 87.6001 3.03438C87.2229 2.64187 86.5421 2.35466 85.5576 2.17755C84.7004 2.02437 84.2743 1.77067 84.2743 1.41645C84.2743 1.13882 84.6514 1 85.4009 1C86.3854 1 87.5805 1.02393 88.9814 1.07659L92.2876 1.11488L97.6167 1.07659L100.923 1C101.364 1 101.599 1.11488 101.623 1.33986C101.677 1.54091 101.785 2.10096 101.952 3.01045C102.118 3.92472 102.206 4.67146 102.206 5.25545C102.206 5.63361 102.025 5.82508 101.663 5.82508C101.535 5.82508 101.442 5.80114 101.388 5.74849C101.334 5.69583 101.285 5.59531 101.231 5.44213C101.178 5.31768 101.075 4.98739 100.918 4.45606C100.761 3.92472 100.58 3.55614 100.374 3.3551C99.7523 2.67059 98.8853 2.33073 97.7685 2.33073H92.6745C92.4149 2.33073 92.1161 2.4504 91.7782 2.68973C91.4402 2.92907 91.2737 3.21628 91.2737 3.54657V11.6027C91.2737 11.8325 91.3471 12.0287 91.4892 12.1915C91.6312 12.3542 91.7929 12.4404 91.9741 12.4404H95.824C96.5489 12.4404 97.0534 12.316 97.3424 12.0623C97.6265 11.8086 97.8714 11.3155 98.082 10.5784C98.2388 10.0231 98.469 9.74067 98.7824 9.74067C98.8853 9.74067 98.998 9.79811 99.1106 9.91299C99.2233 10.0279 99.2869 10.1715 99.2869 10.3486L99.2478 11.3347L99.1694 13.0053L99.2086 15.0205L99.2478 15.9348C99.2478 16.3656 99.1302 16.581 98.9 16.581C98.513 16.581 98.2143 16.1741 98.0036 15.3651C97.8469 14.7572 97.6363 14.3216 97.362 14.0536C97.0877 13.7855 96.7057 13.6563 96.2158 13.6563H92.601C92.1063 13.6563 91.7635 13.7185 91.5724 13.8477C91.3765 13.977 91.2786 14.2402 91.2786 14.6471V21.947C91.2786 22.8852 91.4794 23.541 91.881 23.9239C92.2827 24.3021 92.939 24.4935 93.8452 24.4935H96.7252C97.5824 24.4935 98.2877 24.4409 98.8461 24.3404C99.4045 24.2398 99.8747 24.0723 100.267 23.8473C100.654 23.5936 101.011 23.2442 101.334 22.8038C101.658 22.3586 102.04 21.7316 102.48 20.9226C102.662 20.5923 102.843 20.4296 103.024 20.4296C103.362 20.4296 103.529 20.6067 103.529 20.9609C103.529 21.2912 103.387 21.9805 103.103 23.0336C102.818 24.0867 102.559 24.8669 102.324 25.3695C102.299 25.4222 102.26 25.5083 102.206 25.6376C102.152 25.7668 102.094 25.8578 102.03 25.9248C101.966 25.987 101.878 26.0205 101.775 26.0205C101.256 26.0205 98.9735 25.9822 94.9276 25.9056C93.1398 25.829 91.3618 25.7907 89.5985 25.7907C88.8736 25.7907 88.1977 25.829 87.5756 25.9056C86.2531 25.9822 85.4351 26.0205 85.1266 26.0205C84.3723 26.0205 84 25.8817 84 25.6041V25.5945Z" fill="white"/>
<path d="M130.911 23.9502C128.761 22.8825 127.027 21.3829 125.719 19.4468C124.411 17.5106 123.755 15.2993 123.755 12.8127C123.755 10.3261 124.44 8.26179 125.817 6.31142C127.193 4.3658 129.03 2.82353 131.342 1.69412C133.649 0.564706 136.127 0 138.772 0C140.119 0 141.216 0.0711815 142.059 0.208799C142.901 0.346416 144.116 0.60267 145.693 0.982304C146.056 1.08196 146.32 1.23381 146.492 1.43312C146.658 1.63243 146.771 1.91241 146.82 2.26357C147.026 4.22343 147.143 5.66604 147.168 6.59615C147.192 6.748 147.133 6.88087 146.991 6.99002C146.849 7.10391 146.688 7.16085 146.506 7.16085C146.168 7.16085 145.948 6.98527 145.845 6.63411C145.561 5.55215 145.243 4.69323 144.89 4.0526C144.542 3.41196 144.052 2.88048 143.43 2.44864C142.784 2.04528 141.995 1.73208 141.079 1.5043C140.158 1.27652 139.169 1.16738 138.106 1.16738C136.137 1.16738 134.359 1.67039 132.777 2.67642C131.195 3.68245 129.951 5.00643 129.045 6.65309C128.139 8.29976 127.683 10.0508 127.683 11.911C127.683 13.9943 128.139 16.0016 129.045 17.9235C129.951 19.8454 131.215 21.4019 132.836 22.5977C134.457 23.7936 136.304 24.3868 138.38 24.3868C140.168 24.3868 141.682 23.9929 142.911 23.2004C144.141 22.4079 145.213 21.2358 146.119 19.6793C146.198 19.5274 146.315 19.4088 146.467 19.3234C146.624 19.238 146.766 19.1905 146.893 19.1905C147.05 19.1905 147.177 19.2427 147.28 19.3424C147.383 19.442 147.437 19.5939 147.437 19.7932C147.437 20.0969 147.319 20.6426 147.089 21.4304C146.854 22.2229 146.624 22.892 146.389 23.4472C146.183 23.7983 146.026 24.0261 145.924 24.1258C145.821 24.2254 145.561 24.3393 145.145 24.4627C144.239 24.8139 143.122 25.0843 141.799 25.2742C140.477 25.464 139.14 25.5589 137.793 25.5589C135.353 25.5589 133.061 25.0274 130.906 23.9597L130.911 23.9502Z" fill="white"/>
<path d="M156.83 25.1522C155.65 24.4973 154.719 23.5957 154.029 22.4378C153.343 21.2846 153 19.9891 153 18.556C153 17.1229 153.382 15.8179 154.146 14.4844C154.91 13.151 155.949 12.0738 157.256 11.2433C158.564 10.4129 159.985 10 161.518 10C163.051 10 164.344 10.3464 165.564 11.0345C166.783 11.7273 167.748 12.6527 168.463 13.8248C169.178 14.9922 169.531 16.245 169.531 17.5737C169.531 19.0828 169.193 20.4874 168.517 21.7924C167.841 23.0974 166.847 24.1461 165.524 24.9386C164.202 25.7311 162.605 26.125 160.739 26.125C159.314 26.125 158.011 25.7975 156.83 25.1474V25.1522ZM165.564 22.9313C166.083 21.9537 166.342 20.4684 166.342 18.4848C166.342 17.2795 166.107 16.1121 165.642 14.9827C165.177 13.8533 164.525 12.9374 163.697 12.2304C162.87 11.528 161.919 11.1769 160.857 11.1769C160.102 11.1769 159.456 11.2908 158.912 11.5138C158.368 11.7416 157.874 12.1307 157.433 12.6812C156.967 13.2601 156.639 13.9672 156.458 14.8119C156.277 15.6518 156.184 16.6151 156.184 17.6923C156.184 18.9499 156.419 20.1362 156.884 21.2514C157.35 22.3713 157.991 23.273 158.809 23.9658C159.627 24.6586 160.538 25.0003 161.552 25.0003C163.497 25.0003 164.834 24.3075 165.559 22.9265L165.564 22.9313Z" fill="white"/>
<path d="M176 25.9489C176 25.7733 176.069 25.6452 176.216 25.574C176.358 25.4981 176.583 25.4222 176.896 25.3462C177.494 25.1944 177.92 25.0283 178.18 24.8385C178.439 24.6486 178.567 24.3449 178.567 23.9131V15.7367C178.567 14.0806 177.984 13.16 176.818 12.9844C176.558 12.9607 176.431 12.7946 176.431 12.4956C176.431 12.2204 176.549 12.0685 176.779 12.0448C178.361 11.6936 179.723 11.0672 180.864 10.1609C181.099 9.98527 181.28 9.89511 181.407 9.89511C181.564 9.89511 181.643 9.9568 181.643 10.0849C181.643 10.3602 181.603 10.8394 181.525 11.518C181.501 11.8218 181.452 12.377 181.388 13.1932C181.324 14.0094 181.29 14.669 181.29 15.172V23.9131C181.29 24.3165 181.427 24.6154 181.696 24.8195C181.971 25.0188 182.392 25.1944 182.96 25.3462C183.269 25.4222 183.499 25.4981 183.641 25.574C183.783 25.6499 183.857 25.7733 183.857 25.9489C183.857 26.2241 183.597 26.3617 183.078 26.3617C182.431 26.3617 181.883 26.3238 181.447 26.2479C180.874 26.1957 180.369 26.1719 179.928 26.1719C179.512 26.1719 179.022 26.1957 178.449 26.2479C178.033 26.3238 177.474 26.3617 176.779 26.3617C176.26 26.3617 176 26.2241 176 25.9489ZM178.508 6.26011C178.131 5.89471 177.945 5.44864 177.945 4.9219C177.945 4.39516 178.131 3.91112 178.508 3.54572C178.885 3.18033 179.345 3 179.889 3C180.433 3 180.932 3.18033 181.31 3.54572C181.687 3.91112 181.873 4.36668 181.873 4.9219C181.873 5.47711 181.687 5.89471 181.31 6.26011C180.932 6.62551 180.462 6.80583 179.889 6.80583C179.316 6.80583 178.885 6.62551 178.508 6.26011Z" fill="white"/>
<path d="M190.015 25.8972C190.015 25.7216 190.078 25.603 190.211 25.5413C190.338 25.4796 190.573 25.3989 190.911 25.2945C191.455 25.1711 191.871 25.0098 192.155 24.8247C192.439 24.6349 192.581 24.317 192.581 23.8661V15.7657C192.581 14.9637 192.488 14.3468 192.307 13.9197C192.126 13.4926 191.734 13.2032 191.141 13.0513C190.882 12.9754 190.754 12.814 190.754 12.5625C190.754 12.2873 190.872 12.1354 191.102 12.1117C191.905 11.9124 192.586 11.6609 193.145 11.3572C193.703 11.0535 194.32 10.6644 194.991 10.1898C195.172 10.0664 195.314 10 195.417 10C195.545 10 195.613 10.0902 195.613 10.2657L195.535 11.0582C195.51 11.2575 195.481 11.5043 195.456 11.7938C195.432 12.0832 195.417 12.3775 195.417 12.6812C195.417 12.9327 195.442 13.0845 195.496 13.132C196.431 12.2778 197.401 11.6419 198.415 11.2291C199.429 10.8162 200.541 10.6074 201.76 10.6074C202.98 10.6074 204.048 11.1104 204.89 12.1165C205.733 13.1225 206.154 14.3658 206.154 15.8464V23.8709C206.154 24.3217 206.291 24.6302 206.56 24.7963C206.835 24.9623 207.256 25.1284 207.824 25.304C208.133 25.4037 208.363 25.4986 208.505 25.5887C208.647 25.6789 208.721 25.807 208.721 25.9826C208.721 26.2104 208.461 26.3195 207.942 26.3195C207.241 26.3195 206.683 26.2816 206.267 26.2056C205.747 26.1534 205.267 26.1297 204.827 26.1297C204.41 26.1297 203.92 26.1534 203.347 26.2056C202.931 26.2816 202.363 26.3195 201.638 26.3195C201.119 26.3195 200.859 26.2056 200.859 25.9826C200.859 25.807 200.933 25.6742 201.075 25.5887C201.217 25.4986 201.442 25.4084 201.755 25.304C202.324 25.1284 202.745 24.9576 203.019 24.7963C203.293 24.6349 203.426 24.3265 203.426 23.8709V15.9555C203.426 14.8736 203.107 14.0194 202.471 13.393C201.834 12.7666 200.986 12.4392 199.924 12.4154C198.317 12.4154 196.877 12.9184 195.608 13.9245C195.403 14.1238 195.295 14.4133 195.295 14.7929V23.8756C195.295 24.3265 195.437 24.6491 195.721 24.8342C196.005 25.024 196.421 25.1806 196.965 25.304C197.274 25.3799 197.504 25.4606 197.646 25.5508C197.788 25.6409 197.861 25.7596 197.861 25.9067C197.861 26.1819 197.602 26.3195 197.083 26.3195C196.407 26.3195 195.848 26.2816 195.407 26.2056C194.834 26.1534 194.345 26.1297 193.928 26.1297C193.512 26.1297 193.022 26.1534 192.449 26.2056C192.033 26.2816 191.474 26.3195 190.779 26.3195C190.26 26.3195 190 26.1819 190 25.9067L190.015 25.8972Z" fill="white"/>
</svg>
