<svg width="353" height="380" viewBox="0 0 353 380" fill="none" xmlns="http://www.w3.org/2000/svg">
<path d="M45.838 16.028C45.642 16.42 45.46 16.896 45.292 17.456C45.152 17.988 45.026 18.492 44.914 18.968C44.69 19.976 44.396 21.124 44.032 22.412C43.668 23.7 43.234 25.03 42.73 26.402C42.226 27.774 41.624 29.132 40.924 30.476C40.252 31.82 39.482 33.08 38.614 34.256C37.354 35.908 35.884 37.476 34.204 38.96C32.524 40.416 30.648 41.732 28.576 42.908C26.504 44.056 24.222 45.036 21.73 45.848L17.152 40.85C19.924 40.178 22.318 39.352 24.334 38.372C26.378 37.364 28.156 36.244 29.668 35.012C31.18 33.752 32.496 32.408 33.616 30.98C34.54 29.804 35.324 28.53 35.968 27.158C36.64 25.786 37.186 24.4 37.606 23C38.054 21.6 38.362 20.312 38.53 19.136C38.11 19.136 37.41 19.136 36.43 19.136C35.478 19.136 34.344 19.136 33.028 19.136C31.74 19.136 30.382 19.136 28.954 19.136C27.554 19.136 26.196 19.136 24.88 19.136C23.564 19.136 22.374 19.136 21.31 19.136C20.274 19.136 19.49 19.136 18.958 19.136C18.006 19.136 17.068 19.15 16.144 19.178C15.248 19.206 14.52 19.248 13.96 19.304V13.382C14.408 13.41 14.926 13.452 15.514 13.508C16.102 13.564 16.718 13.62 17.362 13.676C18.006 13.704 18.552 13.718 19 13.718C19.42 13.718 20.05 13.718 20.89 13.718C21.73 13.718 22.696 13.718 23.788 13.718C24.88 13.718 26.014 13.718 27.19 13.718C28.394 13.718 29.584 13.718 30.76 13.718C31.936 13.718 33.042 13.718 34.078 13.718C35.114 13.718 36.01 13.718 36.766 13.718C37.55 13.718 38.096 13.718 38.404 13.718C38.824 13.718 39.342 13.704 39.958 13.676C40.574 13.62 41.148 13.522 41.68 13.382L45.838 16.028ZM87.838 23.042C87.642 23.266 87.418 23.546 87.166 23.882C86.914 24.218 86.718 24.498 86.578 24.722C86.214 25.31 85.71 26.038 85.066 26.906C84.45 27.774 83.75 28.712 82.966 29.72C82.182 30.7 81.384 31.624 80.572 32.492C79.76 33.36 78.976 34.088 78.22 34.676L74.02 31.736C74.804 31.176 75.602 30.518 76.414 29.762C77.226 29.006 77.954 28.236 78.598 27.452C79.242 26.64 79.732 25.94 80.068 25.352C79.732 25.352 79.102 25.352 78.178 25.352C77.254 25.352 76.162 25.352 74.902 25.352C73.67 25.352 72.368 25.352 70.996 25.352C69.624 25.352 68.308 25.352 67.048 25.352C65.788 25.352 64.696 25.352 63.772 25.352C62.848 25.352 62.204 25.352 61.84 25.352C61.14 25.352 60.426 25.38 59.698 25.436C58.998 25.464 58.256 25.52 57.472 25.604V20.186C58.144 20.298 58.858 20.382 59.614 20.438C60.398 20.494 61.14 20.522 61.84 20.522C62.204 20.522 62.876 20.522 63.856 20.522C64.864 20.522 66.054 20.522 67.426 20.522C68.798 20.522 70.226 20.522 71.71 20.522C73.194 20.522 74.608 20.522 75.952 20.522C77.296 20.522 78.444 20.522 79.396 20.522C80.376 20.522 81.02 20.522 81.328 20.522C81.636 20.522 82.014 20.508 82.462 20.48C82.91 20.452 83.344 20.424 83.764 20.396C84.212 20.34 84.534 20.284 84.73 20.228L87.838 23.042ZM73.432 27.452C73.376 29.02 73.306 30.574 73.222 32.114C73.138 33.626 72.928 35.11 72.592 36.566C72.284 37.994 71.78 39.394 71.08 40.766C70.38 42.11 69.4 43.384 68.14 44.588C66.908 45.82 65.312 46.982 63.352 48.074L58.9 44.504C59.46 44.28 60.006 44.042 60.538 43.79C61.098 43.51 61.686 43.146 62.302 42.698C63.898 41.606 65.102 40.458 65.914 39.254C66.726 38.022 67.258 36.692 67.51 35.264C67.79 33.808 67.93 32.198 67.93 30.434C67.93 29.93 67.902 29.426 67.846 28.922C67.79 28.39 67.72 27.9 67.636 27.452H73.432ZM102.622 12.08C103.35 12.584 104.204 13.2 105.184 13.928C106.164 14.656 107.172 15.454 108.208 16.322C109.272 17.162 110.266 17.988 111.19 18.8C112.114 19.612 112.87 20.34 113.458 20.984L109.174 25.352C108.642 24.764 107.942 24.064 107.074 23.252C106.206 22.44 105.268 21.6 104.26 20.732C103.252 19.864 102.258 19.038 101.278 18.254C100.298 17.47 99.43 16.812 98.674 16.28L102.622 12.08ZM97.372 40.052C99.556 39.744 101.614 39.31 103.546 38.75C105.478 38.19 107.27 37.546 108.922 36.818C110.574 36.09 112.086 35.334 113.458 34.55C115.838 33.122 118.022 31.498 120.01 29.678C121.998 27.858 123.734 25.968 125.218 24.008C126.702 22.02 127.878 20.088 128.746 18.212L132.022 24.134C130.958 26.01 129.642 27.886 128.074 29.762C126.534 31.638 124.784 33.43 122.824 35.138C120.864 36.818 118.75 38.33 116.482 39.674C115.054 40.542 113.514 41.368 111.862 42.152C110.21 42.908 108.46 43.58 106.612 44.168C104.792 44.784 102.888 45.26 100.9 45.596L97.372 40.052ZM159.322 15.23C159.042 17.358 158.678 19.626 158.23 22.034C157.782 24.442 157.18 26.878 156.424 29.342C155.612 32.17 154.66 34.606 153.568 36.65C152.476 38.694 151.272 40.276 149.956 41.396C148.668 42.488 147.254 43.034 145.714 43.034C144.174 43.034 142.746 42.516 141.43 41.48C140.142 40.416 139.106 38.96 138.322 37.112C137.566 35.264 137.188 33.164 137.188 30.812C137.188 28.376 137.678 26.08 138.658 23.924C139.638 21.768 140.996 19.864 142.732 18.212C144.496 16.532 146.54 15.216 148.864 14.264C151.216 13.312 153.75 12.836 156.466 12.836C159.07 12.836 161.408 13.256 163.48 14.096C165.58 14.936 167.372 16.098 168.856 17.582C170.34 19.066 171.474 20.802 172.258 22.79C173.042 24.778 173.434 26.92 173.434 29.216C173.434 32.156 172.832 34.788 171.628 37.112C170.424 39.436 168.632 41.354 166.252 42.866C163.9 44.378 160.96 45.414 157.432 45.974L154.282 40.976C155.094 40.892 155.808 40.794 156.424 40.682C157.04 40.57 157.628 40.444 158.188 40.304C159.532 39.968 160.778 39.492 161.926 38.876C163.102 38.232 164.124 37.448 164.992 36.524C165.86 35.572 166.532 34.466 167.008 33.206C167.512 31.946 167.764 30.56 167.764 29.048C167.764 27.396 167.512 25.884 167.008 24.512C166.504 23.14 165.762 21.95 164.782 20.942C163.802 19.906 162.612 19.122 161.212 18.59C159.812 18.03 158.202 17.75 156.382 17.75C154.142 17.75 152.168 18.156 150.46 18.968C148.752 19.752 147.31 20.774 146.134 22.034C144.958 23.294 144.062 24.652 143.446 26.108C142.858 27.564 142.564 28.95 142.564 30.266C142.564 31.666 142.732 32.842 143.068 33.794C143.404 34.718 143.81 35.418 144.286 35.894C144.79 36.342 145.322 36.566 145.882 36.566C146.47 36.566 147.044 36.272 147.604 35.684C148.192 35.068 148.766 34.144 149.326 32.912C149.886 31.68 150.446 30.126 151.006 28.25C151.65 26.234 152.196 24.078 152.644 21.782C153.092 19.486 153.414 17.246 153.61 15.062L159.322 15.23ZM196.03 9.896H200.776V14.264C200.776 15.636 200.608 17.064 200.272 18.548C199.936 20.004 199.334 21.418 198.466 22.79C197.598 24.134 196.338 25.324 194.686 26.36C194.49 26.024 194.182 25.618 193.762 25.142C193.342 24.638 192.908 24.162 192.46 23.714C192.04 23.266 191.676 22.93 191.368 22.706C192.768 21.866 193.79 20.97 194.434 20.018C195.106 19.066 195.54 18.086 195.736 17.078C195.932 16.07 196.03 15.104 196.03 14.18V9.896ZM198.382 9.896H208.588V14.558H198.382V9.896ZM206.152 9.896H210.982V19.052C210.982 19.612 211.01 19.962 211.066 20.102C211.15 20.242 211.318 20.312 211.57 20.312C211.654 20.312 211.78 20.312 211.948 20.312C212.116 20.312 212.284 20.312 212.452 20.312C212.62 20.312 212.732 20.312 212.788 20.312C213.012 20.312 213.166 20.214 213.25 20.018C213.362 19.822 213.446 19.416 213.502 18.8C213.558 18.184 213.6 17.26 213.628 16.028C214.104 16.42 214.748 16.784 215.56 17.12C216.4 17.428 217.128 17.666 217.744 17.834C217.604 19.542 217.366 20.886 217.03 21.866C216.722 22.818 216.274 23.49 215.686 23.882C215.098 24.274 214.314 24.47 213.334 24.47C213.082 24.47 212.788 24.47 212.452 24.47C212.144 24.47 211.822 24.47 211.486 24.47C211.178 24.47 210.898 24.47 210.646 24.47C209.498 24.47 208.588 24.316 207.916 24.008C207.272 23.672 206.81 23.112 206.53 22.328C206.278 21.544 206.152 20.466 206.152 19.094V9.896ZM193.804 26.318H211.234V30.854H193.804V26.318ZM209.68 26.318H210.646L211.57 26.15L214.888 27.452C214.076 30.364 212.97 32.94 211.57 35.18C210.17 37.392 208.504 39.324 206.572 40.976C204.668 42.6 202.54 43.958 200.188 45.05C197.836 46.17 195.302 47.094 192.586 47.822C192.418 47.346 192.18 46.828 191.872 46.268C191.592 45.708 191.284 45.148 190.948 44.588C190.612 44.028 190.276 43.566 189.94 43.202C192.404 42.726 194.7 42.04 196.828 41.144C198.956 40.248 200.874 39.128 202.582 37.784C204.29 36.44 205.746 34.886 206.95 33.122C208.182 31.33 209.092 29.314 209.68 27.074V26.318ZM199.348 30.56C200.916 33.752 203.254 36.44 206.362 38.624C209.498 40.78 213.32 42.292 217.828 43.16C217.464 43.524 217.072 43.972 216.652 44.504C216.232 45.064 215.826 45.624 215.434 46.184C215.07 46.744 214.762 47.262 214.51 47.738C209.75 46.562 205.746 44.658 202.498 42.026C199.278 39.366 196.716 36.006 194.812 31.946L199.348 30.56ZM177.424 29.888C178.628 29.664 180 29.37 181.54 29.006C183.108 28.642 184.774 28.25 186.538 27.83C188.302 27.382 190.08 26.948 191.872 26.528L192.376 30.896C190.052 31.624 187.7 32.366 185.32 33.122C182.968 33.878 180.798 34.55 178.81 35.138L177.424 29.888ZM178.054 16.112H192.544V20.774H178.054V16.112ZM183.388 8.3H188.344V42.32C188.344 43.552 188.218 44.504 187.966 45.176C187.714 45.848 187.224 46.394 186.496 46.814C185.796 47.178 184.928 47.416 183.892 47.528C182.856 47.64 181.582 47.696 180.07 47.696C180.014 47.052 179.846 46.282 179.566 45.386C179.286 44.49 178.992 43.72 178.684 43.076C179.496 43.104 180.28 43.132 181.036 43.16C181.792 43.16 182.31 43.16 182.59 43.16C182.898 43.132 183.108 43.062 183.22 42.95C183.332 42.838 183.388 42.642 183.388 42.362V8.3ZM250 11.45C249.972 11.926 249.944 12.416 249.916 12.92C249.888 13.396 249.874 13.872 249.874 14.348C249.846 14.74 249.832 15.342 249.832 16.154C249.832 16.938 249.832 17.834 249.832 18.842C249.832 19.822 249.832 20.83 249.832 21.866C249.86 22.874 249.874 23.812 249.874 24.68C249.874 25.52 249.874 26.192 249.874 26.696C249.874 29.188 249.776 31.442 249.58 33.458C249.412 35.474 249.034 37.336 248.446 39.044C247.858 40.752 246.948 42.348 245.716 43.832C244.484 45.288 242.832 46.688 240.76 48.032L235.888 44.21C236.7 43.846 237.568 43.356 238.492 42.74C239.444 42.124 240.214 41.494 240.802 40.85C241.586 40.01 242.23 39.128 242.734 38.204C243.266 37.28 243.672 36.258 243.952 35.138C244.232 34.018 244.428 32.772 244.54 31.4C244.652 30 244.708 28.418 244.708 26.654C244.708 25.87 244.694 24.904 244.666 23.756C244.666 22.608 244.652 21.432 244.624 20.228C244.596 18.996 244.568 17.862 244.54 16.826C244.512 15.762 244.47 14.936 244.414 14.348C244.386 13.844 244.316 13.326 244.204 12.794C244.12 12.234 244.036 11.786 243.952 11.45H250ZM233.914 19.682C234.614 19.766 235.3 19.85 235.972 19.934C236.672 19.99 237.372 20.032 238.072 20.06C238.8 20.088 239.542 20.102 240.298 20.102C242.09 20.102 243.98 20.06 245.968 19.976C247.956 19.892 249.874 19.766 251.722 19.598C253.57 19.43 255.18 19.22 256.552 18.968L256.51 24.428C255.222 24.568 253.682 24.708 251.89 24.848C250.098 24.96 248.208 25.058 246.22 25.142C244.232 25.198 242.3 25.226 240.424 25.226C239.808 25.226 239.122 25.212 238.366 25.184C237.638 25.156 236.882 25.128 236.098 25.1C235.342 25.072 234.614 25.03 233.914 24.974V19.682ZM229.588 12.164C229.42 12.696 229.238 13.298 229.042 13.97C228.846 14.614 228.706 15.16 228.622 15.608C228.342 16.756 228.062 18.128 227.782 19.724C227.502 21.32 227.264 23 227.068 24.764C226.9 26.5 226.802 28.194 226.774 29.846C226.774 31.498 226.914 32.982 227.194 34.298C227.474 33.654 227.796 32.87 228.16 31.946C228.524 31.022 228.874 30.182 229.21 29.426L231.856 31.106C231.436 32.282 231.044 33.514 230.68 34.802C230.316 36.09 229.98 37.308 229.672 38.456C229.392 39.576 229.154 40.528 228.958 41.312C228.902 41.648 228.846 42.026 228.79 42.446C228.734 42.838 228.706 43.146 228.706 43.37C228.734 43.594 228.748 43.86 228.748 44.168C228.776 44.504 228.804 44.826 228.832 45.134L224.128 45.596C223.848 44.756 223.512 43.594 223.12 42.11C222.728 40.626 222.392 39.002 222.112 37.238C221.86 35.446 221.734 33.696 221.734 31.988C221.734 29.664 221.804 27.452 221.944 25.352C222.112 23.224 222.308 21.292 222.532 19.556C222.756 17.792 222.952 16.336 223.12 15.188C223.204 14.6 223.26 13.984 223.288 13.34C223.316 12.696 223.344 12.108 223.372 11.576L229.588 12.164ZM253.318 9.98C253.71 10.82 254.116 11.814 254.536 12.962C254.984 14.082 255.32 15.048 255.544 15.86L252.646 16.826C252.366 15.93 252.03 14.922 251.638 13.802C251.246 12.682 250.854 11.702 250.462 10.862L253.318 9.98ZM257.644 8.636C258.036 9.476 258.456 10.47 258.904 11.618C259.352 12.738 259.702 13.704 259.954 14.516L257.098 15.44C256.79 14.544 256.426 13.55 256.006 12.458C255.614 11.366 255.208 10.4 254.788 9.56L257.644 8.636ZM278.728 15.818L299.476 14.264L299.896 18.38L279.148 20.102L278.728 15.818ZM279.736 22.202L298.888 20.648L299.308 24.722L280.114 26.36L279.736 22.202ZM278.938 28.796L300.484 26.822L300.946 30.98L279.442 33.08L278.938 28.796ZM285.826 8.342H291.076C290.964 11.982 290.95 15.496 291.034 18.884C291.118 22.272 291.3 25.422 291.58 28.334C291.86 31.218 292.224 33.752 292.672 35.936C293.148 38.092 293.708 39.786 294.352 41.018C294.996 42.222 295.738 42.824 296.578 42.824C296.998 42.824 297.306 42.488 297.502 41.816C297.726 41.116 297.88 39.856 297.964 38.036C298.496 38.624 299.126 39.17 299.854 39.674C300.61 40.15 301.268 40.528 301.828 40.808C301.576 42.656 301.226 44.084 300.778 45.092C300.33 46.128 299.728 46.842 298.972 47.234C298.244 47.626 297.292 47.822 296.116 47.822C294.268 47.822 292.728 47.122 291.496 45.722C290.264 44.322 289.256 42.376 288.472 39.884C287.716 37.364 287.142 34.438 286.75 31.106C286.358 27.774 286.092 24.176 285.952 20.312C285.84 16.448 285.798 12.458 285.826 8.342ZM296.074 31.484L300.652 32.954C299.224 35.39 297.432 37.546 295.276 39.422C293.148 41.298 290.768 42.922 288.136 44.294C285.504 45.666 282.746 46.8 279.862 47.696C279.694 47.332 279.442 46.884 279.106 46.352C278.798 45.82 278.462 45.288 278.098 44.756C277.762 44.224 277.454 43.776 277.174 43.412C279.918 42.74 282.508 41.858 284.944 40.766C287.38 39.646 289.55 38.316 291.454 36.776C293.386 35.208 294.926 33.444 296.074 31.484ZM291.79 11.114L294.352 8.216C295.332 8.692 296.34 9.28 297.376 9.98C298.412 10.652 299.224 11.282 299.812 11.87L297.082 15.104C296.746 14.684 296.27 14.236 295.654 13.76C295.066 13.284 294.436 12.822 293.764 12.374C293.092 11.898 292.434 11.478 291.79 11.114ZM264.7 18.8H276.838V23H264.7V18.8ZM262.684 26.066H278.056V30.308H262.684V26.066ZM263.104 32.702L266.338 31.862C266.674 33.038 266.982 34.312 267.262 35.684C267.542 37.028 267.724 38.19 267.808 39.17L264.406 40.094C264.378 39.058 264.238 37.868 263.986 36.524C263.734 35.152 263.44 33.878 263.104 32.702ZM262.222 42.278C263.622 42.082 265.204 41.83 266.968 41.522C268.76 41.214 270.65 40.892 272.638 40.556C274.626 40.192 276.614 39.828 278.602 39.464L278.938 43.622C276.222 44.21 273.478 44.784 270.706 45.344C267.934 45.904 265.428 46.408 263.188 46.856L262.222 42.278ZM274.738 31.568L278.35 32.408C278.014 33.612 277.664 34.83 277.3 36.062C276.964 37.294 276.642 38.344 276.334 39.212L273.268 38.414C273.464 37.77 273.646 37.042 273.814 36.23C274.01 35.418 274.192 34.606 274.36 33.794C274.528 32.954 274.654 32.212 274.738 31.568ZM268.438 20.48H272.806V43.076L268.438 43.874V20.48ZM268.228 8.3H270.874V9.266H272.302V10.568C271.49 12.136 270.412 13.942 269.068 15.986C267.724 18.002 266.016 19.948 263.944 21.824C263.748 21.488 263.468 21.11 263.104 20.69C262.74 20.27 262.362 19.864 261.97 19.472C261.606 19.08 261.256 18.772 260.92 18.548C262.124 17.54 263.188 16.462 264.112 15.314C265.036 14.138 265.848 12.948 266.548 11.744C267.248 10.54 267.808 9.392 268.228 8.3ZM268.9 8.3H272.386C273.198 9 274.052 9.784 274.948 10.652C275.872 11.492 276.726 12.346 277.51 13.214C278.322 14.054 278.98 14.838 279.484 15.566L276.25 19.43C275.83 18.702 275.256 17.876 274.528 16.952C273.8 16 273.016 15.076 272.176 14.18C271.336 13.284 270.524 12.514 269.74 11.87H268.9V8.3ZM321.61 11.114C321.498 11.646 321.372 12.234 321.232 12.878C321.092 13.494 320.966 14.068 320.854 14.6C320.742 15.216 320.602 15.916 320.434 16.7C320.266 17.456 320.098 18.226 319.93 19.01C319.79 19.766 319.636 20.508 319.468 21.236C319.188 22.44 318.838 23.84 318.418 25.436C317.998 27.032 317.508 28.754 316.948 30.602C316.388 32.422 315.758 34.256 315.058 36.104C314.358 37.952 313.616 39.758 312.832 41.522C312.048 43.258 311.208 44.826 310.312 46.226L304.852 44.042C305.832 42.726 306.742 41.256 307.582 39.632C308.45 37.98 309.234 36.3 309.934 34.592C310.634 32.856 311.25 31.148 311.782 29.468C312.342 27.76 312.818 26.178 313.21 24.722C313.63 23.266 313.952 22.02 314.176 20.984C314.568 19.08 314.876 17.246 315.1 15.482C315.324 13.718 315.408 12.052 315.352 10.484L321.61 11.114ZM336.058 15.356C336.73 16.28 337.416 17.414 338.116 18.758C338.844 20.074 339.558 21.474 340.258 22.958C340.958 24.442 341.588 25.87 342.148 27.242C342.708 28.614 343.142 29.804 343.45 30.812L338.116 33.248C337.864 32.072 337.486 30.77 336.982 29.342C336.506 27.914 335.946 26.472 335.302 25.016C334.658 23.532 333.972 22.132 333.244 20.816C332.544 19.5 331.816 18.394 331.06 17.498L336.058 15.356ZM304.558 19.724C305.314 19.78 306.056 19.808 306.784 19.808C307.54 19.78 308.296 19.752 309.052 19.724C309.752 19.696 310.592 19.654 311.572 19.598C312.552 19.514 313.588 19.43 314.68 19.346C315.8 19.262 316.92 19.178 318.04 19.094C319.16 18.982 320.196 18.898 321.148 18.842C322.1 18.786 322.884 18.758 323.5 18.758C325.012 18.758 326.328 19.01 327.448 19.514C328.568 19.99 329.45 20.816 330.094 21.992C330.766 23.168 331.102 24.764 331.102 26.78C331.102 28.432 331.032 30.224 330.892 32.156C330.752 34.088 330.5 35.936 330.136 37.7C329.8 39.464 329.324 40.962 328.708 42.194C328.036 43.65 327.112 44.658 325.936 45.218C324.788 45.778 323.416 46.058 321.82 46.058C321.036 46.058 320.182 45.988 319.258 45.848C318.334 45.736 317.508 45.61 316.78 45.47L315.898 39.926C316.43 40.066 317.018 40.206 317.662 40.346C318.334 40.486 318.964 40.598 319.552 40.682C320.168 40.766 320.658 40.808 321.022 40.808C321.722 40.808 322.338 40.682 322.87 40.43C323.402 40.15 323.836 39.674 324.172 39.002C324.564 38.19 324.886 37.14 325.138 35.852C325.39 34.564 325.572 33.178 325.684 31.694C325.824 30.182 325.894 28.74 325.894 27.368C325.894 26.248 325.726 25.422 325.39 24.89C325.082 24.358 324.62 24.008 324.004 23.84C323.416 23.644 322.688 23.546 321.82 23.546C321.176 23.546 320.308 23.602 319.216 23.714C318.124 23.798 316.948 23.91 315.688 24.05C314.456 24.162 313.308 24.288 312.244 24.428C311.18 24.568 310.354 24.666 309.766 24.722C309.15 24.834 308.366 24.96 307.414 25.1C306.49 25.212 305.706 25.324 305.062 25.436L304.558 19.724ZM335.302 9.518C335.666 10.022 336.044 10.624 336.436 11.324C336.856 12.024 337.262 12.724 337.654 13.424C338.046 14.124 338.382 14.74 338.662 15.272L335.26 16.742C334.98 16.154 334.658 15.51 334.294 14.81C333.93 14.11 333.552 13.41 333.16 12.71C332.768 12.01 332.376 11.408 331.984 10.904L335.302 9.518ZM340.3 7.628C340.664 8.16 341.056 8.776 341.476 9.476C341.896 10.176 342.302 10.876 342.694 11.576C343.114 12.276 343.436 12.864 343.66 13.34L340.342 14.768C339.894 13.9 339.362 12.92 338.746 11.828C338.13 10.708 337.528 9.756 336.94 8.972L340.3 7.628ZM33.4586 112V73.468H57.1706V79.916H41.1546V89.952H54.8306V96.4H41.1546V112H33.4586ZM56.3467 112L68.6707 73.468H77.7707L90.0947 112H81.9827L76.5227 91.928C75.9334 89.9173 75.3614 87.8373 74.8067 85.688C74.2867 83.504 73.732 81.3893 73.1427 79.344H72.9347C72.4494 81.424 71.912 83.5387 71.3227 85.688C70.768 87.8373 70.2134 89.9173 69.6587 91.928L64.1467 112H56.3467ZM63.9907 102.12V96.14H82.2947V102.12H63.9907ZM100.09 112L88.3377 73.468H96.4497L101.494 92.24C102.118 94.3547 102.655 96.4173 103.106 98.428C103.591 100.404 104.128 102.484 104.718 104.668H104.978C105.602 102.484 106.156 100.404 106.642 98.428C107.127 96.4173 107.664 94.3547 108.254 92.24L113.246 73.468H121.046L109.294 112H100.09ZM125.525 112V73.468H149.133V79.916H133.221V88.808H146.689V95.256H133.221V105.552H149.705V112H125.525ZM157.517 112V73.468H170.881C173.62 73.468 176.081 73.832 178.265 74.56C180.449 75.2533 182.182 76.4667 183.465 78.2C184.748 79.8987 185.389 82.2213 185.389 85.168C185.389 88.0107 184.748 90.3507 183.465 92.188C182.182 93.9907 180.449 95.3253 178.265 96.192C176.081 97.024 173.62 97.44 170.881 97.44H165.213V112H157.517ZM165.213 91.356H170.205C172.701 91.356 174.59 90.836 175.873 89.796C177.19 88.756 177.849 87.2133 177.849 85.168C177.849 83.088 177.19 81.6493 175.873 80.852C174.59 80.02 172.701 79.604 170.205 79.604H165.213V91.356ZM178.421 112L169.477 95.464L174.885 90.68L187.053 112H178.421ZM218.962 76.38C218.616 79.0147 218.165 81.8227 217.61 84.804C217.056 87.7853 216.31 90.8013 215.374 93.852C214.369 97.3533 213.19 100.369 211.838 102.9C210.486 105.431 208.996 107.389 207.366 108.776C205.772 110.128 204.021 110.804 202.114 110.804C200.208 110.804 198.44 110.163 196.81 108.88C195.216 107.563 193.933 105.76 192.962 103.472C192.026 101.184 191.558 98.584 191.558 95.672C191.558 92.656 192.165 89.8133 193.378 87.144C194.592 84.4747 196.273 82.1173 198.422 80.072C200.606 77.992 203.137 76.3627 206.014 75.184C208.926 74.0053 212.064 73.416 215.426 73.416C218.65 73.416 221.545 73.936 224.11 74.976C226.71 76.016 228.929 77.4547 230.766 79.292C232.604 81.1293 234.008 83.2787 234.978 85.74C235.949 88.2013 236.434 90.8533 236.434 93.696C236.434 97.336 235.689 100.595 234.198 103.472C232.708 106.349 230.489 108.724 227.542 110.596C224.63 112.468 220.99 113.751 216.622 114.444L212.722 108.256C213.728 108.152 214.612 108.031 215.374 107.892C216.137 107.753 216.865 107.597 217.558 107.424C219.222 107.008 220.765 106.419 222.186 105.656C223.642 104.859 224.908 103.888 225.982 102.744C227.057 101.565 227.889 100.196 228.478 98.636C229.102 97.076 229.414 95.36 229.414 93.488C229.414 91.4427 229.102 89.5707 228.478 87.872C227.854 86.1733 226.936 84.7 225.722 83.452C224.509 82.1693 223.036 81.1987 221.302 80.54C219.569 79.8467 217.576 79.5 215.322 79.5C212.549 79.5 210.105 80.0027 207.99 81.008C205.876 81.9787 204.09 83.244 202.634 84.804C201.178 86.364 200.069 88.0453 199.306 89.848C198.578 91.6507 198.214 93.3667 198.214 94.996C198.214 96.7293 198.422 98.1853 198.838 99.364C199.254 100.508 199.757 101.375 200.346 101.964C200.97 102.519 201.629 102.796 202.322 102.796C203.05 102.796 203.761 102.432 204.454 101.704C205.182 100.941 205.893 99.7973 206.586 98.272C207.28 96.7467 207.973 94.8227 208.666 92.5C209.464 90.004 210.14 87.3347 210.694 84.492C211.249 81.6493 211.648 78.876 211.89 76.172L218.962 76.38ZM251.722 112L239.97 73.468H248.082L253.126 92.24C253.75 94.3547 254.288 96.4173 254.738 98.428C255.224 100.404 255.761 102.484 256.35 104.668H256.61C257.234 102.484 257.789 100.404 258.274 98.428C258.76 96.4173 259.297 94.3547 259.886 92.24L264.878 73.468H272.678L260.926 112H251.722ZM277.158 112V73.468H284.854V112H277.158ZM294.322 112V73.468H306.958C309.801 73.468 312.349 73.8493 314.602 74.612C316.89 75.3747 318.693 76.64 320.01 78.408C321.362 80.1413 322.038 82.5333 322.038 85.584C322.038 88.496 321.362 90.9053 320.01 92.812C318.693 94.684 316.907 96.0707 314.654 96.972C312.435 97.8733 309.939 98.324 307.166 98.324H302.018V112H294.322ZM302.018 92.24H306.646C309.281 92.24 311.239 91.6853 312.522 90.576C313.839 89.4667 314.498 87.8027 314.498 85.584C314.498 83.3653 313.805 81.8227 312.418 80.956C311.066 80.0547 309.055 79.604 306.386 79.604H302.018V92.24ZM45.3711 148.436C45.3711 151.04 45.1751 153.406 44.7831 155.534C44.4191 157.634 43.7751 159.552 42.8511 161.288C41.9271 162.996 40.6391 164.536 38.9871 165.908C37.3351 167.28 35.2491 168.526 32.7291 169.646L28.2351 165.404C30.2511 164.704 31.9871 163.92 33.4431 163.052C34.9271 162.184 36.1451 161.12 37.0971 159.86C38.0491 158.572 38.7491 157.032 39.1971 155.24C39.6731 153.42 39.9111 151.222 39.9111 148.646V137.474C39.9111 136.606 39.8831 135.85 39.8271 135.206C39.7711 134.534 39.7151 133.988 39.6591 133.568H45.6651C45.6091 133.988 45.5391 134.534 45.4551 135.206C45.3991 135.85 45.3711 136.606 45.3711 137.474V148.436ZM30.2091 133.946C30.1531 134.338 30.0971 134.87 30.0411 135.542C29.9851 136.186 29.9571 136.914 29.9571 137.726V152.762C29.9571 153.378 29.9711 153.98 29.9991 154.568C30.0271 155.128 30.0411 155.632 30.0411 156.08C30.0691 156.5 30.0971 156.864 30.1251 157.172H24.2451C24.3011 156.864 24.3431 156.5 24.3711 156.08C24.3991 155.632 24.4271 155.128 24.4551 154.568C24.4831 153.98 24.4971 153.378 24.4971 152.762V137.726C24.4971 137.11 24.4691 136.48 24.4131 135.836C24.3851 135.192 24.3291 134.562 24.2451 133.946H30.2091ZM16.3491 141.506C16.6291 141.534 16.9931 141.59 17.4411 141.674C17.8891 141.73 18.4071 141.786 18.9951 141.842C19.5831 141.87 20.2271 141.884 20.9271 141.884H48.4791C49.5991 141.884 50.5091 141.856 51.2091 141.8C51.9091 141.744 52.5391 141.674 53.0991 141.59V147.176C52.6511 147.12 52.0491 147.092 51.2931 147.092C50.5371 147.064 49.5991 147.05 48.4791 147.05H20.9271C20.2271 147.05 19.5831 147.064 18.9951 147.092C18.4351 147.092 17.9311 147.106 17.4831 147.134C17.0631 147.162 16.6851 147.19 16.3491 147.218V141.506ZM59.8191 147.554C60.3231 147.582 60.9671 147.624 61.7511 147.68C62.5351 147.708 63.3471 147.736 64.1871 147.764C65.0551 147.792 65.8531 147.806 66.5811 147.806C67.2811 147.806 68.1491 147.806 69.1851 147.806C70.2211 147.806 71.3411 147.806 72.5451 147.806C73.7771 147.806 75.0371 147.806 76.3251 147.806C77.6411 147.806 78.9431 147.806 80.2311 147.806C81.5191 147.806 82.7371 147.806 83.8851 147.806C85.0331 147.806 86.0551 147.806 86.9511 147.806C87.8751 147.806 88.6031 147.806 89.1351 147.806C90.1151 147.806 91.0391 147.778 91.9071 147.722C92.7751 147.638 93.4891 147.582 94.0491 147.554V154.148C93.5731 154.12 92.8591 154.078 91.9071 154.022C90.9551 153.966 90.0311 153.938 89.1351 153.938C88.6031 153.938 87.8751 153.938 86.9511 153.938C86.0271 153.938 84.9911 153.938 83.8431 153.938C82.6951 153.938 81.4771 153.938 80.1891 153.938C78.9291 153.938 77.6411 153.938 76.3251 153.938C75.0091 153.938 73.7351 153.938 72.5031 153.938C71.2991 153.938 70.1791 153.938 69.1431 153.938C68.1351 153.938 67.2811 153.938 66.5811 153.938C65.3771 153.938 64.1451 153.966 62.8851 154.022C61.6251 154.05 60.6031 154.092 59.8191 154.148V147.554ZM128.951 132.98C129.315 133.484 129.707 134.086 130.127 134.786C130.547 135.486 130.939 136.186 131.303 136.886C131.695 137.586 132.031 138.202 132.311 138.734L128.909 140.162C128.489 139.294 127.971 138.314 127.355 137.222C126.767 136.102 126.193 135.136 125.633 134.324L128.951 132.98ZM133.907 131.09C134.299 131.622 134.705 132.238 135.125 132.938C135.545 133.638 135.951 134.338 136.343 135.038C136.763 135.71 137.085 136.298 137.309 136.802L133.991 138.23C133.543 137.334 133.011 136.34 132.395 135.248C131.779 134.156 131.177 133.218 130.589 132.434L133.907 131.09ZM110.849 134.786C110.737 135.43 110.653 136.172 110.597 137.012C110.541 137.852 110.513 138.566 110.513 139.154C110.513 139.574 110.513 140.316 110.513 141.38C110.513 142.416 110.513 143.648 110.513 145.076C110.513 146.504 110.513 148.002 110.513 149.57C110.513 151.11 110.513 152.608 110.513 154.064C110.513 155.492 110.513 156.766 110.513 157.886C110.513 159.006 110.513 159.832 110.513 160.364C110.513 161.26 110.737 161.876 111.185 162.212C111.633 162.548 112.319 162.814 113.243 163.01C113.887 163.094 114.629 163.164 115.469 163.22C116.309 163.248 117.191 163.262 118.115 163.262C119.207 163.262 120.411 163.234 121.727 163.178C123.071 163.094 124.415 162.996 125.759 162.884C127.131 162.772 128.419 162.618 129.623 162.422C130.827 162.226 131.863 162.016 132.731 161.792V167.924C131.415 168.12 129.889 168.274 128.153 168.386C126.417 168.526 124.639 168.624 122.819 168.68C121.027 168.764 119.347 168.806 117.779 168.806C116.407 168.806 115.105 168.764 113.873 168.68C112.669 168.596 111.619 168.484 110.723 168.344C108.903 167.98 107.489 167.294 106.481 166.286C105.473 165.25 104.969 163.836 104.969 162.044C104.969 161.232 104.969 160.182 104.969 158.894C104.969 157.578 104.969 156.136 104.969 154.568C104.969 152.972 104.969 151.376 104.969 149.78C104.969 148.156 104.969 146.63 104.969 145.202C104.969 143.746 104.969 142.486 104.969 141.422C104.969 140.358 104.969 139.602 104.969 139.154C104.969 138.846 104.955 138.426 104.927 137.894C104.899 137.362 104.857 136.816 104.801 136.256C104.773 135.696 104.717 135.206 104.633 134.786H110.849ZM108.077 147.68C109.421 147.4 110.849 147.064 112.361 146.672C113.873 146.252 115.399 145.804 116.939 145.328C118.479 144.852 119.935 144.376 121.307 143.9C122.707 143.396 123.953 142.906 125.045 142.43C125.801 142.15 126.543 141.828 127.271 141.464C128.027 141.1 128.811 140.666 129.623 140.162L131.891 145.496C131.079 145.804 130.225 146.154 129.329 146.546C128.461 146.91 127.677 147.218 126.977 147.47C125.745 147.946 124.331 148.45 122.735 148.982C121.167 149.514 119.529 150.046 117.821 150.578C116.113 151.082 114.419 151.558 112.739 152.006C111.087 152.454 109.547 152.846 108.119 153.182L108.077 147.68ZM174.983 138.524C174.815 138.776 174.563 139.168 174.227 139.7C173.919 140.232 173.681 140.722 173.513 141.17C172.925 142.486 172.197 143.956 171.329 145.58C170.489 147.204 169.523 148.842 168.431 150.494C167.367 152.118 166.233 153.644 165.029 155.072C163.461 156.836 161.725 158.586 159.821 160.322C157.945 162.03 155.957 163.612 153.857 165.068C151.785 166.496 149.657 167.728 147.473 168.764L143.147 164.228C145.415 163.36 147.613 162.268 149.741 160.952C151.869 159.636 153.843 158.208 155.663 156.668C157.483 155.128 159.051 153.63 160.367 152.174C161.291 151.11 162.159 149.976 162.971 148.772C163.811 147.568 164.553 146.378 165.197 145.202C165.841 143.998 166.317 142.892 166.625 141.884C166.345 141.884 165.841 141.884 165.113 141.884C164.385 141.884 163.531 141.884 162.551 141.884C161.599 141.884 160.591 141.884 159.527 141.884C158.463 141.884 157.441 141.884 156.461 141.884C155.509 141.884 154.669 141.884 153.941 141.884C153.213 141.884 152.695 141.884 152.387 141.884C151.799 141.884 151.183 141.912 150.539 141.968C149.895 141.996 149.279 142.038 148.691 142.094C148.131 142.122 147.697 142.15 147.389 142.178V136.214C147.809 136.242 148.327 136.284 148.943 136.34C149.559 136.396 150.175 136.438 150.791 136.466C151.435 136.494 151.967 136.508 152.387 136.508C152.751 136.508 153.325 136.508 154.109 136.508C154.893 136.508 155.789 136.508 156.797 136.508C157.805 136.508 158.841 136.508 159.905 136.508C160.997 136.508 162.033 136.508 163.013 136.508C164.021 136.508 164.889 136.508 165.617 136.508C166.345 136.508 166.877 136.508 167.213 136.508C168.137 136.508 168.977 136.452 169.733 136.34C170.517 136.228 171.119 136.102 171.539 135.962L174.983 138.524ZM165.575 151.586C166.667 152.454 167.829 153.462 169.061 154.61C170.293 155.758 171.511 156.948 172.715 158.18C173.919 159.412 175.025 160.602 176.033 161.75C177.069 162.87 177.937 163.85 178.637 164.69L173.849 168.848C172.813 167.42 171.623 165.936 170.279 164.396C168.963 162.856 167.563 161.33 166.079 159.818C164.623 158.278 163.139 156.822 161.627 155.45L165.575 151.586ZM202.367 133.316C202.227 134.072 202.003 135.052 201.695 136.256C201.387 137.46 200.939 138.818 200.351 140.33C199.903 141.366 199.385 142.444 198.797 143.564C198.237 144.656 197.663 145.636 197.075 146.504C197.439 146.336 197.901 146.196 198.461 146.084C199.021 145.944 199.595 145.846 200.183 145.79C200.799 145.706 201.345 145.664 201.821 145.664C203.585 145.664 205.041 146.168 206.189 147.176C207.365 148.184 207.953 149.682 207.953 151.67C207.953 152.23 207.953 152.916 207.953 153.728C207.981 154.54 208.009 155.394 208.037 156.29C208.065 157.158 208.093 158.012 208.121 158.852C208.149 159.692 208.163 160.448 208.163 161.12H203.123C203.179 160.644 203.207 160.084 203.207 159.44C203.235 158.768 203.249 158.068 203.249 157.34C203.277 156.612 203.291 155.912 203.291 155.24C203.319 154.54 203.333 153.91 203.333 153.35C203.333 152.006 202.969 151.082 202.241 150.578C201.541 150.046 200.757 149.78 199.889 149.78C198.713 149.78 197.523 150.074 196.319 150.662C195.143 151.222 194.149 151.894 193.337 152.678C192.721 153.294 192.091 153.98 191.447 154.736C190.831 155.492 190.159 156.346 189.431 157.298L184.937 153.938C186.757 152.258 188.325 150.634 189.641 149.066C190.985 147.498 192.119 145.944 193.043 144.404C193.967 142.864 194.723 141.324 195.311 139.784C195.731 138.664 196.067 137.502 196.319 136.298C196.599 135.066 196.767 133.918 196.823 132.854L202.367 133.316ZM186.575 137.18C187.639 137.348 188.871 137.474 190.271 137.558C191.671 137.642 192.903 137.684 193.967 137.684C195.815 137.684 197.831 137.642 200.015 137.558C202.227 137.474 204.467 137.334 206.735 137.138C209.003 136.914 211.159 136.634 213.203 136.298L213.161 141.17C211.677 141.366 210.067 141.548 208.331 141.716C206.623 141.856 204.873 141.982 203.081 142.094C201.317 142.178 199.623 142.248 197.999 142.304C196.375 142.332 194.933 142.346 193.673 142.346C193.113 142.346 192.413 142.346 191.573 142.346C190.761 142.318 189.921 142.29 189.053 142.262C188.185 142.206 187.359 142.15 186.575 142.094V137.18ZM219.839 149.108C219.391 149.248 218.859 149.43 218.243 149.654C217.655 149.85 217.053 150.06 216.437 150.284C215.849 150.48 215.317 150.676 214.841 150.872C213.497 151.404 211.901 152.048 210.053 152.804C208.233 153.56 206.329 154.442 204.341 155.45C203.081 156.122 202.017 156.78 201.149 157.424C200.281 158.068 199.623 158.726 199.175 159.398C198.727 160.042 198.503 160.756 198.503 161.54C198.503 162.128 198.629 162.618 198.881 163.01C199.133 163.374 199.511 163.668 200.015 163.892C200.519 164.116 201.149 164.27 201.905 164.354C202.661 164.438 203.557 164.48 204.593 164.48C206.385 164.48 208.359 164.382 210.515 164.186C212.671 163.962 214.673 163.668 216.521 163.304L216.353 168.722C215.457 168.834 214.323 168.946 212.951 169.058C211.579 169.198 210.151 169.296 208.667 169.352C207.211 169.408 205.811 169.436 204.467 169.436C202.283 169.436 200.323 169.226 198.587 168.806C196.851 168.386 195.479 167.672 194.471 166.664C193.491 165.628 193.001 164.214 193.001 162.422C193.001 160.966 193.323 159.65 193.967 158.474C194.639 157.298 195.521 156.234 196.613 155.282C197.705 154.33 198.895 153.476 200.183 152.72C201.499 151.936 202.787 151.222 204.047 150.578C205.335 149.906 206.497 149.332 207.533 148.856C208.569 148.38 209.535 147.96 210.431 147.596C211.355 147.204 212.237 146.812 213.077 146.42C213.889 146.056 214.673 145.706 215.429 145.37C216.185 145.006 216.955 144.628 217.739 144.236L219.839 149.108ZM234.749 150.032H255.119V153.98H234.749V150.032ZM234.161 157.172H255.833V161.288H234.161V157.172ZM246.719 151.25H251.171V169.982H246.719V151.25ZM238.529 151.46H242.855V159.482C242.855 160.182 242.771 161.008 242.603 161.96C242.435 162.912 242.141 163.934 241.721 165.026C241.329 166.09 240.769 167.112 240.041 168.092C239.313 169.1 238.403 169.982 237.311 170.738C236.947 170.29 236.443 169.772 235.799 169.184C235.155 168.624 234.581 168.176 234.077 167.84C235.253 167.112 236.163 166.23 236.807 165.194C237.479 164.158 237.927 163.122 238.151 162.086C238.403 161.05 238.529 160.182 238.529 159.482V151.46ZM229.793 138.65H240.335V141.926H229.793V138.65ZM249.281 138.65H259.865V141.926H249.281V138.65ZM257.891 132.938H262.847V164.9C262.847 166.188 262.707 167.196 262.427 167.924C262.175 168.68 261.657 169.268 260.873 169.688C260.117 170.108 259.179 170.374 258.059 170.486C256.939 170.598 255.567 170.64 253.943 170.612C253.887 170.164 253.775 169.632 253.607 169.016C253.467 168.428 253.299 167.826 253.103 167.21C252.907 166.594 252.683 166.076 252.431 165.656C253.383 165.684 254.307 165.712 255.203 165.74C256.099 165.74 256.715 165.726 257.051 165.698C257.359 165.698 257.569 165.628 257.681 165.488C257.821 165.348 257.891 165.138 257.891 164.858V132.938ZM230.255 132.938H243.527V147.848H230.255V144.236H238.823V136.508H230.255V132.938ZM260.495 132.938V136.508H251.045V144.362H260.495V147.974H246.257V132.938H260.495ZM227.273 132.938H232.187V170.78H227.273V132.938ZM267.593 137.726H286.199V142.388H267.593V137.726ZM274.649 146.504H281.705V151.082H274.649V146.504ZM274.229 131.3H279.227V139.826H274.229V131.3ZM280.067 146.504H284.813C284.813 146.504 284.813 146.63 284.813 146.882C284.813 147.134 284.813 147.428 284.813 147.764C284.813 148.072 284.799 148.324 284.771 148.52C284.743 151.908 284.687 154.792 284.603 157.172C284.547 159.524 284.463 161.484 284.351 163.052C284.239 164.592 284.099 165.81 283.931 166.706C283.763 167.602 283.539 168.232 283.259 168.596C282.839 169.212 282.405 169.646 281.957 169.898C281.537 170.15 281.019 170.332 280.403 170.444C279.899 170.528 279.241 170.584 278.429 170.612C277.645 170.64 276.805 170.64 275.909 170.612C275.853 169.94 275.713 169.17 275.489 168.302C275.265 167.434 274.971 166.678 274.607 166.034C275.279 166.09 275.895 166.132 276.455 166.16C277.015 166.16 277.463 166.16 277.799 166.16C278.079 166.188 278.303 166.16 278.471 166.076C278.667 165.964 278.849 165.782 279.017 165.53C279.241 165.194 279.409 164.424 279.521 163.22C279.661 162.016 279.773 160.154 279.857 157.634C279.941 155.086 280.011 151.698 280.067 147.47V146.504ZM290.231 138.944H306.779V143.606H290.231V138.944ZM290.651 131.258L295.859 132.056C295.411 134.856 294.823 137.586 294.095 140.246C293.395 142.878 292.541 145.314 291.533 147.554C290.553 149.794 289.433 151.74 288.173 153.392C287.893 153.112 287.487 152.762 286.955 152.342C286.451 151.894 285.919 151.46 285.359 151.04C284.799 150.62 284.323 150.27 283.931 149.99C285.135 148.562 286.171 146.868 287.039 144.908C287.907 142.948 288.635 140.806 289.223 138.482C289.839 136.13 290.315 133.722 290.651 131.258ZM298.883 141.758L303.839 142.262C303.167 146.994 302.159 151.18 300.815 154.82C299.499 158.46 297.707 161.61 295.439 164.27C293.171 166.902 290.287 169.1 286.787 170.864C286.647 170.5 286.409 170.038 286.073 169.478C285.737 168.918 285.387 168.358 285.023 167.798C284.659 167.238 284.323 166.79 284.015 166.454C287.179 165.026 289.755 163.178 291.743 160.91C293.759 158.642 295.327 155.926 296.447 152.762C297.567 149.57 298.379 145.902 298.883 141.758ZM292.709 142.724C293.381 146.308 294.305 149.64 295.481 152.72C296.657 155.8 298.197 158.502 300.101 160.826C302.033 163.122 304.413 164.914 307.241 166.202C306.849 166.51 306.429 166.916 305.981 167.42C305.561 167.952 305.141 168.484 304.721 169.016C304.329 169.576 304.007 170.08 303.755 170.528C300.731 168.932 298.211 166.832 296.195 164.228C294.207 161.596 292.597 158.53 291.365 155.03C290.133 151.502 289.125 147.652 288.341 143.48L292.709 142.724ZM271.709 140.204H276.497V150.62C276.497 152.888 276.343 155.184 276.035 157.508C275.755 159.832 275.167 162.1 274.271 164.312C273.403 166.496 272.073 168.582 270.281 170.57C269.861 170.038 269.287 169.45 268.559 168.806C267.831 168.19 267.173 167.672 266.585 167.252C268.097 165.516 269.217 163.71 269.945 161.834C270.673 159.93 271.149 158.026 271.373 156.122C271.597 154.19 271.709 152.328 271.709 150.536V140.204ZM313.709 156.416L312.827 140.918L312.617 135.038H318.833L318.623 140.918L317.741 156.416H313.709ZM315.725 167.588C314.605 167.588 313.681 167.196 312.953 166.412C312.253 165.628 311.903 164.676 311.903 163.556C311.903 162.38 312.253 161.414 312.953 160.658C313.681 159.902 314.605 159.524 315.725 159.524C316.845 159.524 317.755 159.902 318.455 160.658C319.183 161.414 319.547 162.38 319.547 163.556C319.547 164.676 319.183 165.628 318.455 166.412C317.755 167.196 316.845 167.588 315.725 167.588ZM329.254 156.416L328.372 140.918L328.162 135.038H334.378L334.168 140.918L333.286 156.416H329.254ZM331.27 167.588C330.15 167.588 329.226 167.196 328.498 166.412C327.798 165.628 327.448 164.676 327.448 163.556C327.448 162.38 327.798 161.414 328.498 160.658C329.226 159.902 330.15 159.524 331.27 159.524C332.39 159.524 333.3 159.902 334 160.658C334.728 161.414 335.092 162.38 335.092 163.556C335.092 164.676 334.728 165.628 334 166.412C333.3 167.196 332.39 167.588 331.27 167.588Z" fill="#1A1A1A"/>
<path d="M65.0489 209.024C64.8809 209.36 64.7249 209.768 64.5809 210.248C64.4609 210.704 64.3529 211.136 64.2569 211.544C64.0649 212.408 63.8129 213.392 63.5009 214.496C63.1889 215.6 62.8169 216.74 62.3849 217.916C61.9529 219.092 61.4369 220.256 60.8369 221.408C60.2609 222.56 59.6009 223.64 58.8569 224.648C57.7769 226.064 56.5169 227.408 55.0769 228.68C53.6369 229.928 52.0289 231.056 50.2529 232.064C48.4769 233.048 46.5209 233.888 44.3849 234.584L40.4609 230.3C42.8369 229.724 44.8889 229.016 46.6169 228.176C48.3689 227.312 49.8929 226.352 51.1889 225.296C52.4849 224.216 53.6129 223.064 54.5729 221.84C55.3649 220.832 56.0369 219.74 56.5889 218.564C57.1649 217.388 57.6329 216.2 57.9929 215C58.3769 213.8 58.6409 212.696 58.7849 211.688C58.4249 211.688 57.8249 211.688 56.9849 211.688C56.1689 211.688 55.1969 211.688 54.0689 211.688C52.9649 211.688 51.8009 211.688 50.5769 211.688C49.3769 211.688 48.2129 211.688 47.0849 211.688C45.9569 211.688 44.9369 211.688 44.0249 211.688C43.1369 211.688 42.4649 211.688 42.0089 211.688C41.1929 211.688 40.3889 211.7 39.5969 211.724C38.8289 211.748 38.2049 211.784 37.7249 211.832V206.756C38.1089 206.78 38.5529 206.816 39.0569 206.864C39.5609 206.912 40.0889 206.96 40.6409 207.008C41.1929 207.032 41.6609 207.044 42.0449 207.044C42.4049 207.044 42.9449 207.044 43.6649 207.044C44.3849 207.044 45.2129 207.044 46.1489 207.044C47.0849 207.044 48.0569 207.044 49.0649 207.044C50.0969 207.044 51.1169 207.044 52.1249 207.044C53.1329 207.044 54.0809 207.044 54.9689 207.044C55.8569 207.044 56.6249 207.044 57.2729 207.044C57.9449 207.044 58.4129 207.044 58.6769 207.044C59.0369 207.044 59.4809 207.032 60.0089 207.008C60.5369 206.96 61.0289 206.876 61.4849 206.756L65.0489 209.024ZM101.049 215.036C100.881 215.228 100.689 215.468 100.473 215.756C100.257 216.044 100.089 216.284 99.9689 216.476C99.6569 216.98 99.2249 217.604 98.6729 218.348C98.1449 219.092 97.5449 219.896 96.8729 220.76C96.2009 221.6 95.5169 222.392 94.8209 223.136C94.1249 223.88 93.4529 224.504 92.8049 225.008L89.2049 222.488C89.8769 222.008 90.5609 221.444 91.2569 220.796C91.9529 220.148 92.5769 219.488 93.1289 218.816C93.6809 218.12 94.1009 217.52 94.3889 217.016C94.1009 217.016 93.5609 217.016 92.7689 217.016C91.9769 217.016 91.0409 217.016 89.9609 217.016C88.9049 217.016 87.7889 217.016 86.6129 217.016C85.4369 217.016 84.3089 217.016 83.2289 217.016C82.1489 217.016 81.2129 217.016 80.4209 217.016C79.6289 217.016 79.0769 217.016 78.7649 217.016C78.1649 217.016 77.5529 217.04 76.9289 217.088C76.3289 217.112 75.6929 217.16 75.0209 217.232V212.588C75.5969 212.684 76.2089 212.756 76.8569 212.804C77.5289 212.852 78.1649 212.876 78.7649 212.876C79.0769 212.876 79.6529 212.876 80.4929 212.876C81.3569 212.876 82.3769 212.876 83.5529 212.876C84.7289 212.876 85.9529 212.876 87.2249 212.876C88.4969 212.876 89.7089 212.876 90.8609 212.876C92.0129 212.876 92.9969 212.876 93.8129 212.876C94.6529 212.876 95.2049 212.876 95.4689 212.876C95.7329 212.876 96.0569 212.864 96.4409 212.84C96.8249 212.816 97.1969 212.792 97.5569 212.768C97.9409 212.72 98.2169 212.672 98.3849 212.624L101.049 215.036ZM88.7009 218.816C88.6529 220.16 88.5929 221.492 88.5209 222.812C88.4489 224.108 88.2689 225.38 87.9809 226.628C87.7169 227.852 87.2849 229.052 86.6849 230.228C86.0849 231.38 85.2449 232.472 84.1649 233.504C83.1089 234.56 81.7409 235.556 80.0609 236.492L76.2449 233.432C76.7249 233.24 77.1929 233.036 77.6489 232.82C78.1289 232.58 78.6329 232.268 79.1609 231.884C80.5289 230.948 81.5609 229.964 82.2569 228.932C82.9529 227.876 83.4089 226.736 83.6249 225.512C83.8649 224.264 83.9849 222.884 83.9849 221.372C83.9849 220.94 83.9609 220.508 83.9129 220.076C83.8649 219.62 83.8049 219.2 83.7329 218.816H88.7009ZM113.721 205.64C114.345 206.072 115.077 206.6 115.917 207.224C116.757 207.848 117.621 208.532 118.509 209.276C119.421 209.996 120.273 210.704 121.065 211.4C121.857 212.096 122.505 212.72 123.009 213.272L119.337 217.016C118.881 216.512 118.281 215.912 117.537 215.216C116.793 214.52 115.989 213.8 115.125 213.056C114.261 212.312 113.409 211.604 112.569 210.932C111.729 210.26 110.985 209.696 110.337 209.24L113.721 205.64ZM109.221 229.616C111.093 229.352 112.857 228.98 114.513 228.5C116.169 228.02 117.705 227.468 119.121 226.844C120.537 226.22 121.833 225.572 123.009 224.9C125.049 223.676 126.921 222.284 128.625 220.724C130.329 219.164 131.817 217.544 133.089 215.864C134.361 214.16 135.369 212.504 136.113 210.896L138.921 215.972C138.009 217.58 136.881 219.188 135.537 220.796C134.217 222.404 132.717 223.94 131.037 225.404C129.357 226.844 127.545 228.14 125.601 229.292C124.377 230.036 123.057 230.744 121.641 231.416C120.225 232.064 118.725 232.64 117.141 233.144C115.581 233.672 113.949 234.08 112.245 234.368L109.221 229.616ZM157.173 207.836C158.277 207.98 159.513 208.088 160.881 208.16C162.273 208.208 163.677 208.232 165.093 208.232C166.533 208.208 167.913 208.16 169.233 208.088C170.553 207.992 171.693 207.896 172.653 207.8V212.444C171.549 212.54 170.337 212.624 169.017 212.696C167.697 212.744 166.341 212.768 164.949 212.768C163.557 212.768 162.189 212.744 160.845 212.696C159.525 212.624 158.301 212.54 157.173 212.444V207.836ZM160.053 223.208C159.909 223.808 159.801 224.348 159.729 224.828C159.657 225.284 159.621 225.752 159.621 226.232C159.621 226.616 159.717 226.976 159.909 227.312C160.101 227.624 160.389 227.9 160.773 228.14C161.181 228.356 161.697 228.524 162.321 228.644C162.969 228.74 163.749 228.788 164.661 228.788C166.269 228.788 167.781 228.716 169.197 228.572C170.613 228.404 172.113 228.164 173.697 227.852L173.769 232.712C172.617 232.928 171.285 233.096 169.773 233.216C168.285 233.336 166.521 233.396 164.481 233.396C161.385 233.396 159.081 232.88 157.569 231.848C156.057 230.792 155.301 229.34 155.301 227.492C155.301 226.796 155.349 226.076 155.445 225.332C155.565 224.564 155.721 223.724 155.913 222.812L160.053 223.208ZM151.629 205.424C151.533 205.664 151.425 206 151.305 206.432C151.185 206.864 151.065 207.284 150.945 207.692C150.849 208.1 150.777 208.412 150.729 208.628C150.657 209.132 150.537 209.792 150.369 210.608C150.225 211.4 150.069 212.3 149.901 213.308C149.757 214.292 149.613 215.3 149.469 216.332C149.325 217.364 149.205 218.36 149.109 219.32C149.037 220.28 149.001 221.12 149.001 221.84C149.001 222.176 149.001 222.56 149.001 222.992C149.025 223.424 149.073 223.82 149.145 224.18C149.313 223.772 149.493 223.364 149.685 222.956C149.877 222.548 150.069 222.14 150.261 221.732C150.453 221.3 150.621 220.892 150.765 220.508L152.997 222.272C152.661 223.256 152.313 224.312 151.953 225.44C151.617 226.568 151.305 227.636 151.017 228.644C150.753 229.628 150.549 230.444 150.405 231.092C150.357 231.356 150.309 231.656 150.261 231.992C150.237 232.328 150.225 232.592 150.225 232.784C150.225 232.976 150.225 233.204 150.225 233.468C150.249 233.756 150.273 234.02 150.297 234.26L146.121 234.548C145.761 233.3 145.437 231.644 145.149 229.58C144.861 227.492 144.717 225.224 144.717 222.776C144.717 221.432 144.777 220.064 144.897 218.672C145.017 217.28 145.161 215.948 145.329 214.676C145.497 213.38 145.653 212.204 145.797 211.148C145.965 210.092 146.109 209.216 146.229 208.52C146.277 208.016 146.337 207.452 146.409 206.828C146.505 206.18 146.565 205.568 146.589 204.992L151.629 205.424ZM194.073 216.188H210.237V219.788H194.073V216.188ZM194.073 223.28H210.237V226.916H194.073V223.28ZM193.605 230.516H211.857V234.404H193.605V230.516ZM200.625 211.112H204.621V231.668H200.625V211.112ZM202.929 202.472L207.501 203.408C206.853 204.992 206.169 206.576 205.449 208.16C204.729 209.72 204.069 211.04 203.469 212.12L199.797 211.184C200.205 210.392 200.601 209.492 200.985 208.484C201.369 207.476 201.729 206.456 202.065 205.424C202.425 204.368 202.713 203.384 202.929 202.472ZM194.685 202.328L198.825 203.372C198.249 205.34 197.541 207.284 196.701 209.204C195.885 211.124 194.973 212.912 193.965 214.568C192.957 216.224 191.877 217.688 190.725 218.96C190.557 218.648 190.305 218.252 189.969 217.772C189.633 217.292 189.285 216.812 188.925 216.332C188.565 215.828 188.253 215.432 187.989 215.144C189.477 213.632 190.797 211.748 191.949 209.492C193.101 207.212 194.013 204.824 194.685 202.328ZM196.449 208.988H211.173V212.768H196.449V236.204H192.273V211.148L194.397 208.988H196.449ZM177.801 220.832C179.313 220.52 181.113 220.112 183.201 219.608C185.313 219.08 187.437 218.54 189.573 217.988L190.077 221.84C188.133 222.392 186.165 222.956 184.173 223.532C182.181 224.084 180.357 224.588 178.701 225.044L177.801 220.832ZM178.521 209.24H189.645V213.2H178.521V209.24ZM182.733 202.436H186.873V231.38C186.873 232.436 186.765 233.276 186.549 233.9C186.333 234.524 185.937 235.004 185.361 235.34C184.761 235.7 184.017 235.928 183.129 236.024C182.265 236.144 181.209 236.204 179.961 236.204C179.913 235.628 179.769 234.932 179.529 234.116C179.289 233.3 179.025 232.592 178.737 231.992C179.457 232.016 180.129 232.04 180.753 232.064C181.401 232.064 181.845 232.052 182.085 232.028C182.325 232.028 182.493 231.98 182.589 231.884C182.685 231.788 182.733 231.608 182.733 231.344V202.436ZM231.297 207.44C231.153 207.032 230.985 206.528 230.793 205.928C230.601 205.328 230.385 204.728 230.145 204.128L235.005 203.552C235.197 204.488 235.413 205.424 235.653 206.36C235.893 207.272 236.157 208.172 236.445 209.06C236.733 209.924 237.021 210.74 237.309 211.508C237.861 212.996 238.509 214.46 239.253 215.9C240.021 217.316 240.693 218.432 241.269 219.248C241.581 219.704 241.893 220.136 242.205 220.544C242.541 220.928 242.877 221.3 243.213 221.66L240.981 224.9C240.477 224.804 239.841 224.708 239.073 224.612C238.305 224.492 237.465 224.384 236.553 224.288C235.665 224.192 234.765 224.096 233.853 224C232.965 223.904 232.149 223.832 231.405 223.784L231.765 219.968C232.365 220.016 233.001 220.076 233.673 220.148C234.345 220.196 234.969 220.244 235.545 220.292C236.145 220.34 236.637 220.376 237.021 220.4C236.589 219.704 236.133 218.912 235.653 218.024C235.173 217.136 234.705 216.212 234.249 215.252C233.793 214.268 233.373 213.284 232.989 212.3C232.605 211.292 232.269 210.38 231.981 209.564C231.717 208.748 231.489 208.04 231.297 207.44ZM218.193 209.132C220.425 209.396 222.525 209.576 224.493 209.672C226.461 209.768 228.297 209.792 230.001 209.744C231.705 209.696 233.265 209.588 234.681 209.42C235.785 209.276 236.853 209.12 237.885 208.952C238.941 208.784 239.973 208.58 240.981 208.34C242.013 208.1 242.985 207.836 243.897 207.548L244.473 212.084C243.681 212.3 242.817 212.504 241.881 212.696C240.969 212.888 240.021 213.068 239.037 213.236C238.053 213.38 237.081 213.512 236.121 213.632C233.697 213.896 231.033 214.052 228.129 214.1C225.225 214.148 221.937 214.028 218.265 213.74L218.193 209.132ZM225.393 221.408C224.841 222.248 224.409 223.076 224.097 223.892C223.785 224.684 223.629 225.476 223.629 226.268C223.629 227.78 224.289 228.884 225.609 229.58C226.929 230.252 228.813 230.588 231.261 230.588C233.229 230.588 235.005 230.504 236.589 230.336C238.197 230.168 239.637 229.964 240.909 229.724L240.657 234.26C239.649 234.452 238.329 234.644 236.697 234.836C235.089 235.028 233.181 235.124 230.973 235.124C228.549 235.1 226.437 234.776 224.637 234.152C222.837 233.552 221.445 232.652 220.461 231.452C219.477 230.228 218.985 228.764 218.985 227.06C218.985 225.956 219.141 224.876 219.453 223.82C219.789 222.74 220.269 221.588 220.893 220.364L225.393 221.408ZM284.145 231.128C283.305 231.896 282.333 232.532 281.229 233.036C280.125 233.54 278.841 233.792 277.377 233.792C276.033 233.792 274.941 233.324 274.101 232.388C273.285 231.452 272.877 230.108 272.877 228.356C272.877 227.396 272.937 226.364 273.057 225.26C273.201 224.132 273.357 223.004 273.525 221.876C273.693 220.748 273.837 219.68 273.957 218.672C274.101 217.64 274.173 216.716 274.173 215.9C274.173 215.012 273.957 214.352 273.525 213.92C273.093 213.464 272.493 213.236 271.725 213.236C270.885 213.236 269.949 213.536 268.917 214.136C267.885 214.712 266.829 215.456 265.749 216.368C264.669 217.28 263.637 218.252 262.653 219.284C261.693 220.316 260.853 221.3 260.133 222.236L260.097 216.692C260.529 216.212 261.093 215.648 261.789 215C262.509 214.352 263.313 213.68 264.201 212.984C265.113 212.288 266.061 211.64 267.045 211.04C268.053 210.416 269.061 209.912 270.069 209.528C271.101 209.144 272.097 208.952 273.057 208.952C274.353 208.952 275.409 209.192 276.225 209.672C277.065 210.128 277.689 210.764 278.097 211.58C278.505 212.372 278.709 213.272 278.709 214.28C278.709 215.216 278.649 216.236 278.529 217.34C278.409 218.42 278.265 219.524 278.097 220.652C277.929 221.78 277.785 222.896 277.665 224C277.569 225.104 277.521 226.112 277.521 227.024C277.521 227.504 277.641 227.9 277.881 228.212C278.121 228.5 278.457 228.644 278.889 228.644C279.561 228.644 280.305 228.428 281.121 227.996C281.937 227.54 282.753 226.892 283.569 226.052L284.145 231.128ZM259.269 213.956C258.885 214.004 258.393 214.064 257.793 214.136C257.193 214.208 256.545 214.292 255.849 214.388C255.177 214.484 254.493 214.58 253.797 214.676C253.101 214.772 252.453 214.856 251.853 214.928L251.385 210.32C251.913 210.344 252.405 210.356 252.861 210.356C253.341 210.332 253.893 210.308 254.517 210.284C255.093 210.236 255.777 210.176 256.569 210.104C257.385 210.008 258.201 209.9 259.017 209.78C259.857 209.66 260.637 209.528 261.357 209.384C262.077 209.24 262.641 209.096 263.049 208.952L264.489 210.788C264.273 211.076 264.021 211.436 263.733 211.868C263.469 212.3 263.193 212.744 262.905 213.2C262.617 213.632 262.365 214.016 262.149 214.352L260.025 221.12C259.641 221.672 259.161 222.368 258.585 223.208C258.033 224.048 257.445 224.936 256.821 225.872C256.197 226.808 255.585 227.708 254.985 228.572C254.385 229.436 253.845 230.192 253.365 230.84L250.521 226.916C250.977 226.34 251.493 225.68 252.069 224.936C252.669 224.168 253.293 223.364 253.941 222.524C254.589 221.66 255.225 220.808 255.849 219.968C256.473 219.104 257.049 218.3 257.577 217.556C258.129 216.788 258.585 216.128 258.945 215.576L259.017 214.64L259.269 213.956ZM258.837 207.044C258.837 206.516 258.837 205.988 258.837 205.46C258.837 204.908 258.789 204.356 258.693 203.804L263.949 203.984C263.805 204.536 263.649 205.34 263.481 206.396C263.337 207.428 263.181 208.616 263.013 209.96C262.869 211.304 262.725 212.72 262.581 214.208C262.461 215.672 262.353 217.136 262.257 218.6C262.185 220.064 262.149 221.432 262.149 222.704C262.149 223.688 262.149 224.684 262.149 225.692C262.173 226.7 262.197 227.732 262.221 228.788C262.245 229.844 262.293 230.936 262.365 232.064C262.389 232.376 262.425 232.808 262.473 233.36C262.521 233.936 262.569 234.428 262.617 234.836H257.649C257.697 234.404 257.721 233.924 257.721 233.396C257.745 232.868 257.757 232.46 257.757 232.172C257.781 230.996 257.805 229.904 257.829 228.896C257.853 227.888 257.865 226.82 257.865 225.692C257.889 224.564 257.925 223.256 257.973 221.768C257.997 221.216 258.033 220.52 258.081 219.68C258.129 218.816 258.177 217.88 258.225 216.872C258.297 215.84 258.369 214.796 258.441 213.74C258.513 212.684 258.573 211.7 258.621 210.788C258.693 209.852 258.741 209.06 258.765 208.412C258.813 207.74 258.837 207.284 258.837 207.044ZM286.511 208.232C287.231 208.208 287.915 208.184 288.563 208.16C289.211 208.112 289.715 208.076 290.075 208.052C290.819 207.98 291.731 207.896 292.811 207.8C293.891 207.704 295.103 207.596 296.447 207.476C297.815 207.356 299.267 207.236 300.803 207.116C302.339 206.972 303.935 206.828 305.591 206.684C306.839 206.588 308.087 206.504 309.335 206.432C310.583 206.336 311.759 206.264 312.863 206.216C313.991 206.144 314.963 206.096 315.779 206.072L315.815 210.68C315.167 210.68 314.423 210.692 313.583 210.716C312.743 210.74 311.903 210.788 311.063 210.86C310.247 210.908 309.515 211.004 308.867 211.148C307.787 211.436 306.779 211.928 305.843 212.624C304.931 213.296 304.127 214.1 303.431 215.036C302.735 215.972 302.195 216.98 301.811 218.06C301.451 219.116 301.271 220.184 301.271 221.264C301.271 222.44 301.475 223.484 301.883 224.396C302.291 225.284 302.855 226.052 303.575 226.7C304.319 227.324 305.183 227.852 306.167 228.284C307.151 228.692 308.207 229.004 309.335 229.22C310.487 229.436 311.675 229.58 312.899 229.652L311.207 234.584C309.695 234.488 308.219 234.248 306.779 233.864C305.363 233.48 304.031 232.952 302.783 232.28C301.559 231.608 300.479 230.792 299.543 229.832C298.607 228.848 297.875 227.732 297.347 226.484C296.819 225.212 296.555 223.796 296.555 222.236C296.555 220.484 296.831 218.888 297.383 217.448C297.935 216.008 298.619 214.748 299.435 213.668C300.251 212.564 301.067 211.712 301.883 211.112C301.211 211.184 300.395 211.28 299.435 211.4C298.499 211.496 297.479 211.616 296.375 211.76C295.295 211.88 294.191 212.012 293.063 212.156C291.935 212.3 290.843 212.468 289.787 212.66C288.755 212.828 287.819 212.996 286.979 213.164L286.511 208.232ZM120.232 249.472H124.696V255.196H120.232V249.472ZM107.056 252.568H137.908V260.308H133.444V256.348H111.34V260.308H107.056V252.568ZM110.296 259.228H135.028V262.72H110.296V259.228ZM106.768 270.604H138.412V274.348H106.768V270.604ZM110.872 264.88H134.272V268.336H110.872V264.88ZM124.624 271.36C125.704 273.736 127.42 275.596 129.772 276.94C132.124 278.284 135.172 279.148 138.916 279.532C138.484 279.988 138.016 280.588 137.512 281.332C137.032 282.076 136.648 282.736 136.36 283.312C133.624 282.88 131.26 282.196 129.268 281.26C127.276 280.348 125.584 279.148 124.192 277.66C122.824 276.148 121.684 274.324 120.772 272.188L124.624 271.36ZM120.124 257.176H124.48V267.184C124.48 268.432 124.348 269.68 124.084 270.928C123.844 272.176 123.388 273.388 122.716 274.564C122.068 275.716 121.144 276.82 119.944 277.876C118.768 278.932 117.268 279.904 115.444 280.792C113.62 281.704 111.4 282.52 108.784 283.24C108.616 282.904 108.376 282.52 108.064 282.088C107.776 281.68 107.452 281.26 107.092 280.828C106.756 280.396 106.42 280.036 106.084 279.748C108.58 279.172 110.668 278.524 112.348 277.804C114.052 277.084 115.408 276.304 116.416 275.464C117.448 274.624 118.228 273.748 118.756 272.836C119.284 271.9 119.644 270.964 119.836 270.028C120.028 269.068 120.124 268.096 120.124 267.112V257.176ZM141.976 251.308H154.648V255.304H141.976V251.308ZM142.3 261.604H154.288V265.564H142.3V261.604ZM141.112 274.096C142.288 273.808 143.62 273.484 145.108 273.124C146.62 272.74 148.204 272.32 149.86 271.864C151.516 271.408 153.172 270.952 154.828 270.496L155.368 274.312C153.112 274.984 150.82 275.668 148.492 276.364C146.164 277.036 144.076 277.636 142.228 278.164L141.112 274.096ZM160.084 259.804V262.036H169.516V259.804H160.084ZM160.084 265.312V267.544H169.516V265.312H160.084ZM160.084 254.296V256.528H169.516V254.296H160.084ZM156.052 250.804H173.764V271.108H156.052V250.804ZM165.16 269.488H169.264V278.164C169.264 278.692 169.3 279.028 169.372 279.172C169.468 279.292 169.672 279.352 169.984 279.352C170.056 279.352 170.188 279.352 170.38 279.352C170.596 279.352 170.812 279.352 171.028 279.352C171.244 279.352 171.388 279.352 171.46 279.352C171.676 279.352 171.832 279.256 171.928 279.064C172.048 278.872 172.132 278.476 172.18 277.876C172.252 277.252 172.3 276.352 172.324 275.176C172.612 275.392 172.96 275.608 173.368 275.824C173.8 276.016 174.244 276.196 174.7 276.364C175.18 276.508 175.6 276.64 175.96 276.76C175.84 278.392 175.624 279.664 175.312 280.576C175.024 281.488 174.604 282.124 174.052 282.484C173.524 282.868 172.828 283.06 171.964 283.06C171.796 283.06 171.58 283.06 171.316 283.06C171.076 283.06 170.824 283.06 170.56 283.06C170.296 283.06 170.044 283.06 169.804 283.06C169.564 283.06 169.36 283.06 169.192 283.06C168.088 283.06 167.248 282.904 166.672 282.592C166.096 282.28 165.7 281.764 165.484 281.044C165.268 280.348 165.16 279.4 165.16 278.2V269.488ZM158.752 270.532H163C162.856 272.092 162.616 273.532 162.28 274.852C161.968 276.148 161.452 277.336 160.732 278.416C160.012 279.496 159.016 280.456 157.744 281.296C156.496 282.136 154.888 282.856 152.92 283.456C152.776 283.096 152.572 282.688 152.308 282.232C152.044 281.8 151.756 281.368 151.444 280.936C151.132 280.528 150.832 280.18 150.544 279.892C152.224 279.484 153.592 278.98 154.648 278.38C155.704 277.756 156.508 277.06 157.06 276.292C157.612 275.5 158.008 274.636 158.248 273.7C158.488 272.74 158.656 271.684 158.752 270.532ZM146.368 252.892H150.508V274.024L146.368 274.672V252.892ZM200.008 250.984C199.984 251.176 199.948 251.488 199.9 251.92C199.876 252.328 199.852 252.748 199.828 253.18C199.804 253.588 199.78 253.888 199.756 254.08C199.732 254.56 199.72 255.208 199.72 256.024C199.72 256.816 199.72 257.704 199.72 258.688C199.72 259.672 199.72 260.668 199.72 261.676C199.744 262.66 199.756 263.596 199.756 264.484C199.78 265.348 199.792 266.068 199.792 266.644L195.292 265.132C195.292 264.676 195.292 264.076 195.292 263.332C195.292 262.564 195.292 261.736 195.292 260.848C195.292 259.936 195.28 259.036 195.256 258.148C195.256 257.26 195.244 256.456 195.22 255.736C195.196 255.016 195.172 254.476 195.148 254.116C195.1 253.372 195.04 252.724 194.968 252.172C194.896 251.596 194.836 251.2 194.788 250.984H200.008ZM179.668 255.448C180.724 255.448 181.924 255.436 183.268 255.412C184.612 255.388 186.016 255.364 187.48 255.34C188.944 255.316 190.384 255.292 191.8 255.268C193.216 255.244 194.548 255.232 195.796 255.232C197.044 255.208 198.124 255.196 199.036 255.196C199.948 255.196 200.944 255.196 202.024 255.196C203.104 255.172 204.172 255.16 205.228 255.16C206.284 255.16 207.244 255.16 208.108 255.16C208.996 255.16 209.68 255.16 210.16 255.16L210.124 259.408C208.996 259.36 207.508 259.324 205.66 259.3C203.812 259.252 201.556 259.228 198.892 259.228C197.26 259.228 195.604 259.252 193.924 259.3C192.244 259.324 190.576 259.36 188.92 259.408C187.264 259.456 185.668 259.516 184.132 259.588C182.596 259.636 181.144 259.708 179.776 259.804L179.668 255.448ZM199.144 266.104C199.144 268.072 198.904 269.704 198.424 271C197.968 272.296 197.272 273.28 196.336 273.952C195.4 274.6 194.236 274.924 192.844 274.924C192.172 274.924 191.464 274.78 190.72 274.492C190 274.204 189.328 273.784 188.704 273.232C188.08 272.68 187.576 271.996 187.192 271.18C186.832 270.364 186.652 269.404 186.652 268.3C186.652 266.932 186.976 265.756 187.624 264.772C188.272 263.764 189.136 262.984 190.216 262.432C191.32 261.856 192.532 261.568 193.852 261.568C195.436 261.568 196.756 261.928 197.812 262.648C198.892 263.344 199.696 264.292 200.224 265.492C200.776 266.692 201.052 268.048 201.052 269.56C201.052 270.736 200.86 271.96 200.476 273.232C200.092 274.504 199.456 275.752 198.568 276.976C197.704 278.176 196.528 279.268 195.04 280.252C193.576 281.236 191.74 282.04 189.532 282.664L185.68 278.848C187.216 278.536 188.644 278.128 189.964 277.624C191.284 277.12 192.436 276.484 193.42 275.716C194.428 274.948 195.208 274 195.76 272.872C196.336 271.744 196.624 270.388 196.624 268.804C196.624 267.652 196.336 266.788 195.76 266.212C195.208 265.636 194.536 265.348 193.744 265.348C193.288 265.348 192.844 265.456 192.412 265.672C191.98 265.888 191.632 266.212 191.368 266.644C191.104 267.076 190.972 267.604 190.972 268.228C190.972 269.044 191.248 269.704 191.8 270.208C192.376 270.688 193.024 270.928 193.744 270.928C194.32 270.928 194.824 270.748 195.256 270.388C195.712 270.028 196.012 269.428 196.156 268.588C196.3 267.748 196.18 266.62 195.796 265.204L199.144 266.104ZM220.42 252.568C220.924 252.64 221.464 252.688 222.04 252.712C222.616 252.736 223.168 252.748 223.696 252.748C224.08 252.748 224.656 252.748 225.424 252.748C226.192 252.724 227.056 252.7 228.016 252.676C229 252.652 229.972 252.628 230.932 252.604C231.892 252.58 232.756 252.556 233.524 252.532C234.316 252.484 234.928 252.448 235.36 252.424C236.104 252.352 236.692 252.292 237.124 252.244C237.556 252.172 237.88 252.1 238.096 252.028L240.436 255.232C240.028 255.496 239.608 255.76 239.176 256.024C238.744 256.288 238.324 256.576 237.916 256.888C237.436 257.224 236.86 257.668 236.188 258.22C235.516 258.748 234.796 259.312 234.028 259.912C233.284 260.512 232.552 261.1 231.832 261.676C231.136 262.252 230.5 262.768 229.924 263.224C230.524 263.08 231.1 262.984 231.652 262.936C232.204 262.864 232.768 262.828 233.344 262.828C235.384 262.828 237.208 263.224 238.816 264.016C240.448 264.808 241.732 265.888 242.668 267.256C243.628 268.6 244.108 270.148 244.108 271.9C244.108 273.796 243.628 275.512 242.668 277.048C241.708 278.584 240.256 279.808 238.312 280.72C236.392 281.632 233.98 282.088 231.076 282.088C229.42 282.088 227.92 281.848 226.576 281.368C225.256 280.888 224.212 280.204 223.444 279.316C222.676 278.428 222.292 277.384 222.292 276.184C222.292 275.2 222.556 274.288 223.084 273.448C223.636 272.584 224.392 271.888 225.352 271.36C226.336 270.832 227.464 270.568 228.736 270.568C230.392 270.568 231.784 270.904 232.912 271.576C234.064 272.224 234.94 273.1 235.54 274.204C236.164 275.308 236.488 276.52 236.512 277.84L232.3 278.416C232.276 277.096 231.94 276.04 231.292 275.248C230.668 274.432 229.828 274.024 228.772 274.024C228.1 274.024 227.56 274.204 227.152 274.564C226.744 274.9 226.54 275.296 226.54 275.752C226.54 276.424 226.876 276.964 227.548 277.372C228.22 277.78 229.096 277.984 230.176 277.984C232.216 277.984 233.92 277.744 235.288 277.264C236.656 276.76 237.676 276.052 238.348 275.14C239.044 274.204 239.392 273.1 239.392 271.828C239.392 270.748 239.056 269.8 238.384 268.984C237.736 268.168 236.848 267.532 235.72 267.076C234.592 266.62 233.32 266.392 231.904 266.392C230.512 266.392 229.24 266.572 228.088 266.932C226.936 267.268 225.844 267.76 224.812 268.408C223.804 269.032 222.808 269.8 221.824 270.712C220.864 271.6 219.904 272.596 218.944 273.7L215.668 270.316C216.316 269.788 217.048 269.2 217.864 268.552C218.68 267.88 219.508 267.184 220.348 266.464C221.212 265.744 222.016 265.072 222.76 264.448C223.528 263.8 224.176 263.26 224.704 262.828C225.208 262.42 225.796 261.94 226.468 261.388C227.14 260.836 227.836 260.272 228.556 259.696C229.276 259.096 229.96 258.532 230.608 258.004C231.256 257.452 231.796 256.984 232.228 256.6C231.868 256.6 231.4 256.612 230.824 256.636C230.248 256.66 229.612 256.684 228.916 256.708C228.244 256.732 227.56 256.756 226.864 256.78C226.192 256.804 225.556 256.84 224.956 256.888C224.38 256.912 223.9 256.936 223.516 256.96C223.036 256.984 222.532 257.02 222.004 257.068C221.476 257.116 220.996 257.176 220.564 257.248L220.42 252.568Z" fill="#1A1A1A"/>
<path d="M84.2219 327.096H109.654V336.208H84.2219V327.096ZM46.7539 311.388H77.6939V319.344H46.7539V311.388ZM46.1419 338.52H77.4219V346.748H46.1419V338.52ZM45.9379 326.348H78.1019V334.372H45.9379V326.348ZM94.2859 331.176H103.874V369.12H94.2859V331.176ZM57.4299 305.608H67.0179V314.788H57.4299V305.608ZM57.4299 334.168H67.0179V369.392H57.4299V334.168ZM79.8699 310.096L91.2259 313.224C91.1805 313.859 90.5232 314.312 89.2539 314.584V333.964C89.2539 336.503 89.1179 339.313 88.8459 342.396C88.6192 345.479 88.1432 348.652 87.4179 351.916C86.7379 355.135 85.6952 358.263 84.2899 361.3C82.9299 364.337 81.1165 367.08 78.8499 369.528C78.4419 368.803 77.8072 367.987 76.9459 367.08C76.1299 366.173 75.2459 365.312 74.2939 364.496C73.3872 363.725 72.5485 363.159 71.7779 362.796C73.6365 360.756 75.1099 358.535 76.1979 356.132C77.2859 353.729 78.0792 351.259 78.5779 348.72C79.1219 346.136 79.4619 343.597 79.5979 341.104C79.7792 338.565 79.8699 336.14 79.8699 333.828V310.096ZM101.766 305.54L109.654 312.68C107.251 313.768 104.667 314.765 101.902 315.672C99.1819 316.533 96.4165 317.304 93.6059 317.984C90.8405 318.664 88.1432 319.253 85.5139 319.752C85.2872 318.709 84.8565 317.44 84.2219 315.944C83.6325 314.448 83.0432 313.224 82.4539 312.272C84.8112 311.728 87.1685 311.093 89.5259 310.368C91.9285 309.643 94.1725 308.872 96.2579 308.056C98.3885 307.24 100.225 306.401 101.766 305.54ZM66.4059 346.476C66.9045 346.748 67.6072 347.201 68.5139 347.836C69.4205 348.471 70.3725 349.173 71.3699 349.944C72.4125 350.669 73.3419 351.349 74.1579 351.984C75.0192 352.619 75.6539 353.095 76.0619 353.412L70.4179 360.416C69.8739 359.736 69.1939 358.965 68.3779 358.104C67.6072 357.197 66.7685 356.291 65.8619 355.384C65.0005 354.477 64.1392 353.616 63.2779 352.8C62.4619 351.984 61.7365 351.281 61.1019 350.692L66.4059 346.476ZM49.7459 320.228L57.2939 318.392C57.8379 319.48 58.3139 320.704 58.7219 322.064C59.1299 323.379 59.4019 324.535 59.5379 325.532L51.5819 327.708C51.5365 326.665 51.3325 325.441 50.9699 324.036C50.6525 322.631 50.2445 321.361 49.7459 320.228ZM66.4059 318.256L75.1099 319.888C74.4752 321.339 73.8859 322.676 73.3419 323.9C72.8432 325.124 72.3672 326.189 71.9139 327.096L64.0939 325.532C64.3659 324.807 64.6379 324.036 64.9099 323.22C65.2272 322.359 65.5219 321.497 65.7939 320.636C66.0659 319.775 66.2699 318.981 66.4059 318.256ZM57.4979 343.484L64.4339 346C63.3912 348.448 62.1219 350.896 60.6259 353.344C59.1299 355.792 57.4979 358.081 55.7299 360.212C54.0072 362.343 52.2392 364.156 50.4259 365.652C49.7005 364.609 48.7032 363.385 47.4339 361.98C46.2099 360.575 45.0765 359.464 44.0339 358.648C45.8019 357.515 47.5245 356.132 49.2019 354.5C50.9245 352.823 52.4885 351.055 53.8939 349.196C55.3445 347.292 56.5459 345.388 57.4979 343.484ZM156.44 305.132L165.756 307.988C164.441 311.841 162.832 315.74 160.928 319.684C159.069 323.628 157.029 327.391 154.808 330.972C152.632 334.508 150.365 337.591 148.008 340.22C147.736 339.404 147.283 338.339 146.648 337.024C146.013 335.709 145.356 334.395 144.676 333.08C143.996 331.72 143.361 330.632 142.772 329.816C144.631 327.821 146.399 325.509 148.076 322.88C149.799 320.205 151.363 317.349 152.768 314.312C154.219 311.275 155.443 308.215 156.44 305.132ZM151.272 324.648L160.656 315.264V315.332V369.392H151.272V324.648ZM180.444 305.268H190.1V368.916H180.444V305.268ZM164.26 316.08H208.052V325.464H164.26V316.08ZM172.76 349.876H198.192V358.648H172.76V349.876ZM193.228 321.452C194.361 325.169 195.812 328.932 197.58 332.74C199.348 336.548 201.297 340.129 203.428 343.484C205.604 346.793 207.871 349.649 210.228 352.052C209.095 352.913 207.803 354.092 206.352 355.588C204.901 357.039 203.745 358.421 202.884 359.736C200.527 356.835 198.305 353.435 196.22 349.536C194.135 345.592 192.253 341.399 190.576 336.956C188.944 332.468 187.516 327.957 186.292 323.424L193.228 321.452ZM177.724 320.636L184.796 322.54C183.572 327.345 182.099 332.06 180.376 336.684C178.653 341.308 176.681 345.615 174.46 349.604C172.284 353.593 169.859 357.039 167.184 359.94C166.64 359.169 165.937 358.308 165.076 357.356C164.26 356.404 163.399 355.497 162.492 354.636C161.631 353.729 160.837 353.004 160.112 352.46C162.696 350.057 165.099 347.133 167.32 343.688C169.587 340.243 171.604 336.525 173.372 332.536C175.185 328.547 176.636 324.58 177.724 320.636ZM282.514 338.588V343.348H297.678V338.588H282.514ZM274.558 331.584H306.042V350.352H274.558V331.584ZM289.45 313.428C288.453 315.151 287.183 316.987 285.642 318.936C284.101 320.885 282.355 322.767 280.406 324.58C278.502 326.348 276.507 327.867 274.422 329.136C273.969 327.957 273.311 326.597 272.45 325.056C271.589 323.469 270.773 322.177 270.002 321.18C272.087 320.001 274.082 318.505 275.986 316.692C277.935 314.833 279.681 312.861 281.222 310.776C282.763 308.691 283.987 306.719 284.894 304.86H293.394C294.709 306.855 296.182 308.827 297.814 310.776C299.491 312.725 301.259 314.471 303.118 316.012C305.022 317.553 306.949 318.777 308.898 319.684C308.037 320.817 307.153 322.2 306.246 323.832C305.385 325.419 304.637 326.892 304.002 328.252C302.143 327.119 300.285 325.736 298.426 324.104C296.613 322.427 294.913 320.659 293.326 318.8C291.785 316.941 290.493 315.151 289.45 313.428ZM285.642 324.784H294.346V337.704C294.346 340.469 294.142 343.303 293.734 346.204C293.326 349.105 292.487 351.984 291.218 354.84C289.994 357.651 288.158 360.325 285.71 362.864C283.307 365.403 280.066 367.669 275.986 369.664C275.578 368.984 275.011 368.213 274.286 367.352C273.606 366.491 272.881 365.629 272.11 364.768C271.339 363.952 270.637 363.295 270.002 362.796C273.493 361.164 276.281 359.351 278.366 357.356C280.451 355.316 282.015 353.185 283.058 350.964C284.101 348.743 284.781 346.499 285.098 344.232C285.461 341.92 285.642 339.699 285.642 337.568V324.784ZM294.89 346.204C296.069 349.513 297.837 352.551 300.194 355.316C302.551 358.081 305.385 360.189 308.694 361.64C308.014 362.229 307.266 362.977 306.45 363.884C305.679 364.791 304.931 365.72 304.206 366.672C303.481 367.669 302.891 368.576 302.438 369.392C298.721 367.307 295.661 364.383 293.258 360.62C290.855 356.857 288.929 352.664 287.478 348.04L294.89 346.204ZM279.386 321.52H300.262V329H279.386V321.52ZM251.098 317.576H270.75V324.92H251.098V317.576ZM251.098 327.912H270.75V335.256H251.098V327.912ZM246.474 338.248H270.07V345.796H246.474V338.248ZM257.966 311.864H265.718V342.464H257.966V311.864ZM260.074 348.584L263.678 347.428C264.313 348.743 264.902 350.216 265.446 351.848C265.99 353.435 266.353 354.817 266.534 355.996L262.726 357.356C262.545 356.177 262.205 354.772 261.706 353.14C261.207 351.463 260.663 349.944 260.074 348.584ZM255.722 349.4L259.666 348.72C260.165 350.488 260.595 352.415 260.958 354.5C261.321 356.54 261.525 358.285 261.57 359.736L257.422 360.552C257.377 359.056 257.195 357.265 256.878 355.18C256.561 353.095 256.175 351.168 255.722 349.4ZM251.098 349.672L255.11 349.264C255.427 351.259 255.609 353.435 255.654 355.792C255.745 358.149 255.745 360.167 255.654 361.844L251.438 362.388C251.574 360.665 251.597 358.625 251.506 356.268C251.461 353.911 251.325 351.712 251.098 349.672ZM245.93 348.04L251.166 349.06C251.075 351.191 250.894 353.276 250.622 355.316C250.395 357.356 250.01 359.26 249.466 361.028C248.967 362.751 248.242 364.269 247.29 365.584L242.462 363C243.278 361.821 243.913 360.461 244.366 358.92C244.819 357.333 245.159 355.611 245.386 353.752C245.658 351.893 245.839 349.989 245.93 348.04ZM246.474 307.24H272.042V315.128H254.498V343.552H246.474V307.24ZM265.786 338.248H273.81C273.81 338.248 273.81 338.656 273.81 339.472C273.81 340.243 273.787 340.877 273.742 341.376C273.561 346.771 273.334 351.191 273.062 354.636C272.835 358.036 272.541 360.665 272.178 362.524C271.815 364.383 271.362 365.675 270.818 366.4C270.229 367.261 269.594 367.873 268.914 368.236C268.234 368.644 267.463 368.916 266.602 369.052C265.877 369.233 264.993 369.347 263.95 369.392C262.907 369.437 261.797 369.437 260.618 369.392C260.573 368.213 260.369 366.899 260.006 365.448C259.643 364.043 259.167 362.841 258.578 361.844C259.349 361.935 260.029 362.003 260.618 362.048C261.207 362.048 261.706 362.048 262.114 362.048C262.477 362.048 262.794 361.98 263.066 361.844C263.338 361.708 263.61 361.481 263.882 361.164C264.199 360.711 264.471 359.759 264.698 358.308C264.925 356.857 265.129 354.636 265.31 351.644C265.491 348.652 265.65 344.64 265.786 339.608V338.248Z" fill="url(#paint0_linear_41_90)"/>
<defs>
<linearGradient id="paint0_linear_41_90" x1="43.4306" y1="359.886" x2="120.358" y2="218.283" gradientUnits="userSpaceOnUse">
<stop stop-color="#FFB2B8"/>
<stop offset="0.14" stop-color="#FF7DB8"/>
<stop offset="0.18" stop-color="#FA75BC"/>
<stop offset="0.24" stop-color="#ED62C7"/>
<stop offset="0.31" stop-color="#D842D9"/>
<stop offset="0.38" stop-color="#BB15F2"/>
<stop offset="0.42" stop-color="#AD00FF"/>
<stop offset="0.51" stop-color="#A711FE"/>
<stop offset="0.59" stop-color="#A41BFE"/>
<stop offset="0.62" stop-color="#9A35FC"/>
<stop offset="0.68" stop-color="#8C5DFB"/>
<stop offset="0.74" stop-color="#817EF9"/>
<stop offset="0.8" stop-color="#7897F8"/>
<stop offset="0.86" stop-color="#71A9F7"/>
<stop offset="0.93" stop-color="#6EB4F7"/>
<stop offset="1" stop-color="#6DB8F7"/>
</linearGradient>
</defs>
</svg>
