<svg width="461" height="380" viewBox="0 0 461 380" fill="none" xmlns="http://www.w3.org/2000/svg">
<path d="M149.01 160.898H170.702V167.336H149.01V160.898ZM117.574 147.5H143.732V153.126H117.574V147.5ZM117.052 170.584H143.674V176.442H117.052V170.584ZM116.878 160.434H144.196V166.118H116.878V160.434ZM158.406 163.74H165.192V195.93H158.406V163.74ZM127.318 142.222H134.046V149.994H127.318V142.222ZM127.318 165.77H134.046V196.104H127.318V165.77ZM145.878 146.282L153.998 148.602C153.959 149.105 153.476 149.433 152.548 149.588V166.64C152.548 168.805 152.432 171.183 152.2 173.774C152.007 176.326 151.601 178.955 150.982 181.662C150.363 184.33 149.455 186.921 148.256 189.434C147.057 191.947 145.472 194.248 143.5 196.336C143.229 195.795 142.785 195.215 142.166 194.596C141.586 193.977 140.967 193.378 140.31 192.798C139.691 192.257 139.092 191.851 138.512 191.58C140.213 189.801 141.547 187.887 142.514 185.838C143.519 183.75 144.254 181.604 144.718 179.4C145.221 177.196 145.53 175.011 145.646 172.846C145.801 170.642 145.878 168.535 145.878 166.524V146.282ZM164.844 142.338L170.412 147.384C168.44 148.273 166.294 149.085 163.974 149.82C161.654 150.555 159.276 151.212 156.84 151.792C154.443 152.333 152.123 152.817 149.88 153.242C149.687 152.507 149.377 151.618 148.952 150.574C148.527 149.53 148.101 148.66 147.676 147.964C149.764 147.5 151.871 146.978 153.998 146.398C156.125 145.779 158.116 145.122 159.972 144.426C161.867 143.73 163.491 143.034 164.844 142.338ZM133.582 176.674C134.007 176.906 134.626 177.331 135.438 177.95C136.289 178.569 137.178 179.245 138.106 179.98C139.034 180.676 139.865 181.333 140.6 181.952C141.373 182.532 141.953 182.957 142.34 183.228L138.28 188.216C137.816 187.675 137.217 187.017 136.482 186.244C135.786 185.432 135.013 184.62 134.162 183.808C133.35 182.996 132.557 182.223 131.784 181.488C131.011 180.753 130.353 180.154 129.812 179.69L133.582 176.674ZM120.474 153.996L125.868 152.72C126.371 153.764 126.815 154.943 127.202 156.258C127.589 157.534 127.84 158.636 127.956 159.564L122.33 161.13C122.253 160.163 122.04 159.023 121.692 157.708C121.383 156.355 120.977 155.117 120.474 153.996ZM134.916 152.604L141.122 153.822C140.581 155.137 140.059 156.413 139.556 157.65C139.053 158.849 138.589 159.873 138.164 160.724L132.596 159.564C132.867 158.907 133.157 158.172 133.466 157.36C133.775 156.548 134.065 155.736 134.336 154.924C134.607 154.073 134.8 153.3 134.916 152.604ZM127.376 173.948L132.248 175.804C131.32 177.892 130.199 179.999 128.884 182.126C127.569 184.214 126.139 186.167 124.592 187.984C123.045 189.801 121.499 191.329 119.952 192.566C119.449 191.831 118.753 190.981 117.864 190.014C116.975 189.009 116.163 188.216 115.428 187.636C116.936 186.669 118.444 185.451 119.952 183.982C121.46 182.474 122.852 180.869 124.128 179.168C125.443 177.428 126.525 175.688 127.376 173.948ZM197.324 147.906H227.02V153.938H197.324V147.906ZM195.41 159.042H228.702V165.132H195.41V159.042ZM195.526 170.062H228.296V176.152H195.526V170.062ZM208.518 141.642H215.42V162.986H208.518V141.642ZM215.884 164.842H222.728V188.854C222.728 190.517 222.515 191.812 222.09 192.74C221.665 193.707 220.891 194.461 219.77 195.002C218.649 195.505 217.276 195.814 215.652 195.93C214.067 196.085 212.191 196.162 210.026 196.162C209.871 195.195 209.581 194.074 209.156 192.798C208.731 191.561 208.286 190.497 207.822 189.608C209.253 189.647 210.645 189.685 211.998 189.724C213.351 189.724 214.26 189.724 214.724 189.724C215.149 189.724 215.439 189.666 215.594 189.55C215.787 189.395 215.884 189.105 215.884 188.68V164.842ZM197.846 180.096L203.356 176.906C204.284 177.795 205.212 178.801 206.14 179.922C207.068 181.043 207.919 182.165 208.692 183.286C209.465 184.407 210.065 185.432 210.49 186.36L204.458 189.898C204.149 188.97 203.627 187.945 202.892 186.824C202.157 185.664 201.345 184.504 200.456 183.344C199.605 182.145 198.735 181.063 197.846 180.096ZM179.46 145.296H194.366V184.968H179.46V178.762H187.928V151.502H179.46V145.296ZM179.808 161.768H191.06V167.858H179.808V161.768ZM176.154 145.296H182.592V190.13H176.154V145.296ZM250.22 161.304L285.484 156.606L286.47 163.16L251.206 167.974L250.22 161.304ZM272.028 145.412L277.248 142.164C278.253 143.053 279.297 144.059 280.38 145.18C281.463 146.301 282.468 147.423 283.396 148.544C284.324 149.627 285.059 150.632 285.6 151.56L279.974 155.098C279.51 154.209 278.833 153.203 277.944 152.082C277.055 150.922 276.088 149.762 275.044 148.602C274.039 147.442 273.033 146.379 272.028 145.412ZM246.972 142.222L253.642 144.368C252.173 147.809 250.433 151.231 248.422 154.634C246.45 158.037 244.304 161.227 241.984 164.204C239.703 167.181 237.344 169.791 234.908 172.034C234.715 171.454 234.386 170.719 233.922 169.83C233.458 168.941 232.955 168.051 232.414 167.162C231.911 166.273 231.447 165.538 231.022 164.958C233.149 163.179 235.198 161.072 237.17 158.636C239.142 156.2 240.979 153.59 242.68 150.806C244.381 147.983 245.812 145.122 246.972 142.222ZM240.998 158.868L248.074 151.734L248.19 151.85V196.104H240.998V158.868ZM261.066 142.628H268.142C268.219 148.815 268.49 154.595 268.954 159.97C269.457 165.306 270.153 170.004 271.042 174.064C271.931 178.124 273.033 181.353 274.348 183.75C275.663 186.109 277.19 187.404 278.93 187.636C279.587 187.675 280.109 186.94 280.496 185.432C280.883 183.924 281.192 181.565 281.424 178.356C281.849 178.82 282.429 179.323 283.164 179.864C283.899 180.405 284.633 180.908 285.368 181.372C286.103 181.797 286.683 182.126 287.108 182.358C286.605 186.109 285.929 188.989 285.078 191C284.266 193.011 283.357 194.364 282.352 195.06C281.347 195.795 280.303 196.123 279.22 196.046C276.475 195.775 274.116 194.77 272.144 193.03C270.172 191.29 268.509 188.873 267.156 185.78C265.841 182.687 264.759 178.994 263.908 174.702C263.096 170.41 262.477 165.577 262.052 160.202C261.627 154.789 261.298 148.931 261.066 142.628ZM322.778 151.27C322.391 154.209 321.889 157.341 321.27 160.666C320.651 163.991 319.82 167.355 318.776 170.758C317.655 174.663 316.34 178.027 314.832 180.85C313.324 183.673 311.661 185.857 309.844 187.404C308.065 188.912 306.113 189.666 303.986 189.666C301.859 189.666 299.887 188.951 298.07 187.52C296.291 186.051 294.861 184.04 293.778 181.488C292.734 178.936 292.212 176.036 292.212 172.788C292.212 169.424 292.889 166.253 294.242 163.276C295.595 160.299 297.471 157.669 299.868 155.388C302.304 153.068 305.127 151.251 308.336 149.936C311.584 148.621 315.083 147.964 318.834 147.964C322.43 147.964 325.659 148.544 328.52 149.704C331.42 150.864 333.895 152.469 335.944 154.518C337.993 156.567 339.559 158.965 340.642 161.71C341.725 164.455 342.266 167.413 342.266 170.584C342.266 174.644 341.435 178.279 339.772 181.488C338.109 184.697 335.635 187.346 332.348 189.434C329.1 191.522 325.04 192.953 320.168 193.726L315.818 186.824C316.939 186.708 317.925 186.573 318.776 186.418C319.627 186.263 320.439 186.089 321.212 185.896C323.068 185.432 324.789 184.775 326.374 183.924C327.998 183.035 329.409 181.952 330.608 180.676C331.807 179.361 332.735 177.834 333.392 176.094C334.088 174.354 334.436 172.44 334.436 170.352C334.436 168.071 334.088 165.983 333.392 164.088C332.696 162.193 331.671 160.55 330.318 159.158C328.965 157.727 327.321 156.645 325.388 155.91C323.455 155.137 321.231 154.75 318.718 154.75C315.625 154.75 312.899 155.311 310.54 156.432C308.181 157.515 306.19 158.926 304.566 160.666C302.942 162.406 301.705 164.281 300.854 166.292C300.042 168.303 299.636 170.217 299.636 172.034C299.636 173.967 299.868 175.591 300.332 176.906C300.796 178.182 301.357 179.149 302.014 179.806C302.71 180.425 303.445 180.734 304.218 180.734C305.03 180.734 305.823 180.328 306.596 179.516C307.408 178.665 308.201 177.389 308.974 175.688C309.747 173.987 310.521 171.841 311.294 169.25C312.183 166.466 312.937 163.489 313.556 160.318C314.175 157.147 314.619 154.054 314.89 151.038L322.778 151.27ZM65.4399 225.516C66.2133 225.593 67.1219 225.671 68.1659 225.748C69.2099 225.825 70.1379 225.864 70.9499 225.864H102.502C103.391 225.864 104.319 225.825 105.286 225.748C106.253 225.671 107.142 225.593 107.954 225.516V233.462C107.103 233.385 106.195 233.327 105.228 233.288C104.261 233.249 103.353 233.23 102.502 233.23H70.9499C70.1766 233.23 69.2486 233.249 68.1659 233.288C67.0833 233.327 66.1746 233.385 65.4399 233.462V225.516ZM82.1439 261.186V229.982H90.2639V261.186H82.1439ZM61.6699 256.43C62.5979 256.585 63.5646 256.701 64.5699 256.778C65.5753 256.855 66.5226 256.894 67.4119 256.894H105.634C106.678 256.894 107.664 256.855 108.592 256.778C109.52 256.662 110.351 256.546 111.086 256.43V264.84C110.235 264.724 109.288 264.647 108.244 264.608C107.2 264.569 106.33 264.55 105.634 264.55H67.4119C66.5613 264.55 65.6333 264.569 64.6279 264.608C63.6226 264.647 62.6366 264.724 61.6699 264.84V256.43ZM124.484 224.82C125.567 224.936 126.785 225.033 128.138 225.11C129.491 225.149 130.651 225.168 131.618 225.168H160.85C161.701 225.168 162.629 225.168 163.634 225.168C164.678 225.129 165.451 225.091 165.954 225.052C165.915 225.709 165.877 226.56 165.838 227.604C165.799 228.609 165.78 229.537 165.78 230.388V260.432C165.78 261.437 165.799 262.617 165.838 263.97C165.915 265.323 165.973 266.425 166.012 267.276H157.602C157.641 266.425 157.66 265.497 157.66 264.492C157.699 263.448 157.718 262.404 157.718 261.36V232.65H131.676C130.439 232.65 129.124 232.669 127.732 232.708C126.379 232.747 125.296 232.805 124.484 232.882V224.82ZM123.73 256.314C124.735 256.391 125.857 256.469 127.094 256.546C128.37 256.623 129.665 256.662 130.98 256.662H162.3V264.26H131.212C130.091 264.26 128.795 264.299 127.326 264.376C125.895 264.453 124.697 264.531 123.73 264.608V256.314ZM191.3 220.064C192.228 220.605 193.291 221.243 194.49 221.978C195.689 222.713 196.907 223.467 198.144 224.24C199.42 225.013 200.599 225.767 201.682 226.502C202.803 227.198 203.751 227.817 204.524 228.358L200.174 234.796C199.401 234.216 198.453 233.559 197.332 232.824C196.211 232.089 195.051 231.335 193.852 230.562C192.653 229.789 191.455 229.054 190.256 228.358C189.096 227.623 188.033 226.985 187.066 226.444L191.3 220.064ZM180.512 261.244C182.716 260.857 184.92 260.393 187.124 259.852C189.367 259.272 191.59 258.557 193.794 257.706C196.037 256.855 198.202 255.869 200.29 254.748C203.577 252.892 206.631 250.804 209.454 248.484C212.315 246.164 214.867 243.689 217.11 241.06C219.391 238.431 221.305 235.743 222.852 232.998L227.318 240.886C224.611 244.907 221.267 248.697 217.284 252.254C213.34 255.811 208.99 258.963 204.234 261.708C202.262 262.829 200.097 263.873 197.738 264.84C195.418 265.807 193.117 266.638 190.836 267.334C188.593 268.069 186.602 268.591 184.862 268.9L180.512 261.244ZM182.368 233.288C183.335 233.829 184.417 234.467 185.616 235.202C186.853 235.898 188.091 236.633 189.328 237.406C190.565 238.179 191.725 238.914 192.808 239.61C193.929 240.306 194.857 240.925 195.592 241.466L191.358 247.962C190.507 247.382 189.541 246.744 188.458 246.048C187.375 245.313 186.215 244.559 184.978 243.786C183.779 242.974 182.581 242.22 181.382 241.524C180.222 240.828 179.139 240.229 178.134 239.726L182.368 233.288ZM279.75 226.676C279.518 227.024 279.17 227.565 278.706 228.3C278.281 229.035 277.952 229.711 277.72 230.33C276.908 232.147 275.903 234.177 274.704 236.42C273.544 238.663 272.21 240.925 270.702 243.206C269.233 245.449 267.667 247.556 266.004 249.528C263.839 251.964 261.441 254.381 258.812 256.778C256.221 259.137 253.476 261.321 250.576 263.332C247.715 265.304 244.776 267.005 241.76 268.436L235.786 262.172C238.918 260.973 241.953 259.465 244.892 257.648C247.831 255.831 250.557 253.859 253.07 251.732C255.583 249.605 257.749 247.537 259.566 245.526C260.842 244.057 262.041 242.491 263.162 240.828C264.322 239.165 265.347 237.522 266.236 235.898C267.125 234.235 267.783 232.708 268.208 231.316C267.821 231.316 267.125 231.316 266.12 231.316C265.115 231.316 263.935 231.316 262.582 231.316C261.267 231.316 259.875 231.316 258.406 231.316C256.937 231.316 255.525 231.316 254.172 231.316C252.857 231.316 251.697 231.316 250.692 231.316C249.687 231.316 248.971 231.316 248.546 231.316C247.734 231.316 246.883 231.355 245.994 231.432C245.105 231.471 244.254 231.529 243.442 231.606C242.669 231.645 242.069 231.683 241.644 231.722V223.486C242.224 223.525 242.939 223.583 243.79 223.66C244.641 223.737 245.491 223.795 246.342 223.834C247.231 223.873 247.966 223.892 248.546 223.892C249.049 223.892 249.841 223.892 250.924 223.892C252.007 223.892 253.244 223.892 254.636 223.892C256.028 223.892 257.459 223.892 258.928 223.892C260.436 223.892 261.867 223.892 263.22 223.892C264.612 223.892 265.811 223.892 266.816 223.892C267.821 223.892 268.556 223.892 269.02 223.892C270.296 223.892 271.456 223.815 272.5 223.66C273.583 223.505 274.414 223.331 274.994 223.138L279.75 226.676ZM266.758 244.714C268.266 245.913 269.871 247.305 271.572 248.89C273.273 250.475 274.955 252.119 276.618 253.82C278.281 255.521 279.808 257.165 281.2 258.75C282.631 260.297 283.829 261.65 284.796 262.81L278.184 268.552C276.753 266.58 275.11 264.531 273.254 262.404C271.437 260.277 269.503 258.17 267.454 256.082C265.443 253.955 263.394 251.945 261.306 250.05L266.758 244.714ZM301.036 221.514C302.003 221.669 303.047 221.785 304.168 221.862C305.289 221.901 306.314 221.92 307.242 221.92C307.977 221.92 309.137 221.92 310.722 221.92C312.307 221.92 314.086 221.92 316.058 221.92C318.03 221.92 320.002 221.92 321.974 221.92C323.946 221.92 325.686 221.92 327.194 221.92C328.741 221.92 329.862 221.92 330.558 221.92C331.563 221.92 332.607 221.901 333.69 221.862C334.773 221.785 335.817 221.669 336.822 221.514V228.996C335.817 228.919 334.773 228.861 333.69 228.822C332.607 228.783 331.563 228.764 330.558 228.764C329.862 228.764 328.741 228.764 327.194 228.764C325.686 228.764 323.946 228.764 321.974 228.764C320.002 228.764 318.03 228.764 316.058 228.764C314.086 228.764 312.307 228.764 310.722 228.764C309.175 228.764 308.035 228.764 307.3 228.764C306.295 228.764 305.212 228.783 304.052 228.822C302.931 228.861 301.925 228.919 301.036 228.996V221.514ZM294.308 236.362C295.159 236.439 296.067 236.517 297.034 236.594C298.039 236.671 298.987 236.71 299.876 236.71C300.379 236.71 301.384 236.71 302.892 236.71C304.4 236.71 306.217 236.71 308.344 236.71C310.471 236.71 312.752 236.71 315.188 236.71C317.663 236.71 320.118 236.71 322.554 236.71C325.029 236.71 327.329 236.71 329.456 236.71C331.583 236.71 333.381 236.71 334.85 236.71C336.358 236.71 337.363 236.71 337.866 236.71C338.485 236.71 339.316 236.691 340.36 236.652C341.443 236.575 342.371 236.478 343.144 236.362V243.902C342.448 243.825 341.597 243.786 340.592 243.786C339.587 243.747 338.678 243.728 337.866 243.728C337.363 243.728 336.358 243.728 334.85 243.728C333.381 243.728 331.583 243.728 329.456 243.728C327.329 243.728 325.029 243.728 322.554 243.728C320.118 243.728 317.663 243.728 315.188 243.728C312.752 243.728 310.471 243.728 308.344 243.728C306.217 243.728 304.4 243.728 302.892 243.728C301.384 243.728 300.379 243.728 299.876 243.728C299.025 243.728 298.078 243.747 297.034 243.786C296.029 243.825 295.12 243.883 294.308 243.96V236.362ZM324.004 240.364C324.004 244.153 323.675 247.556 323.018 250.572C322.361 253.549 321.413 256.237 320.176 258.634C319.48 259.949 318.552 261.302 317.392 262.694C316.232 264.086 314.898 265.401 313.39 266.638C311.882 267.875 310.258 268.919 308.518 269.77L301.732 264.84C303.781 264.028 305.753 262.868 307.648 261.36C309.543 259.852 311.07 258.247 312.23 256.546C313.699 254.303 314.685 251.829 315.188 249.122C315.691 246.415 315.942 243.515 315.942 240.422L324.004 240.364ZM377.812 222.268C377.425 223.119 377.019 224.085 376.594 225.168C376.169 226.212 375.743 227.391 375.318 228.706C374.97 229.789 374.525 231.181 373.984 232.882C373.443 234.545 372.843 236.381 372.186 238.392C371.529 240.364 370.833 242.413 370.098 244.54C369.402 246.628 368.725 248.658 368.068 250.63C367.411 252.602 366.792 254.4 366.212 256.024C365.632 257.609 365.129 258.905 364.704 259.91L356.12 260.2C356.661 258.963 357.261 257.455 357.918 255.676C358.575 253.897 359.271 251.964 360.006 249.876C360.741 247.749 361.456 245.584 362.152 243.38C362.887 241.176 363.563 239.049 364.182 237C364.839 234.951 365.419 233.056 365.922 231.316C366.463 229.576 366.889 228.165 367.198 227.082C367.585 225.574 367.875 224.337 368.068 223.37C368.3 222.365 368.474 221.359 368.59 220.354L377.812 222.268ZM388.194 241.002C389.238 242.549 390.359 244.366 391.558 246.454C392.757 248.542 393.936 250.727 395.096 253.008C396.295 255.251 397.397 257.416 398.402 259.504C399.407 261.592 400.239 263.467 400.896 265.13L393.066 268.61C392.409 266.831 391.597 264.821 390.63 262.578C389.702 260.335 388.677 258.054 387.556 255.734C386.473 253.414 385.352 251.229 384.192 249.18C383.071 247.092 381.988 245.352 380.944 243.96L388.194 241.002ZM355.598 257.648C356.913 257.571 358.498 257.474 360.354 257.358C362.249 257.203 364.279 257.029 366.444 256.836C368.609 256.604 370.813 256.372 373.056 256.14C375.337 255.908 377.561 255.676 379.726 255.444C381.93 255.173 383.979 254.922 385.874 254.69C387.769 254.458 389.373 254.245 390.688 254.052L392.428 261.476C390.997 261.669 389.277 261.882 387.266 262.114C385.294 262.346 383.167 262.597 380.886 262.868C378.605 263.1 376.285 263.351 373.926 263.622C371.567 263.893 369.267 264.144 367.024 264.376C364.781 264.608 362.713 264.821 360.818 265.014C358.923 265.169 357.319 265.323 356.004 265.478C355.269 265.555 354.399 265.671 353.394 265.826C352.427 265.942 351.48 266.058 350.552 266.174L349.218 257.706C350.185 257.706 351.248 257.706 352.408 257.706C353.607 257.706 354.67 257.687 355.598 257.648Z" fill="#1A1A1A"/>
<path d="M72.1362 48V13.914H93.1122V19.618H78.9442V28.496H91.0422V34.2H78.9442V48H72.1362ZM92.3834 48L103.285 13.914H111.335L122.237 48H115.061L110.231 30.244C109.71 28.4653 109.204 26.6253 108.713 24.724C108.253 22.792 107.763 20.9213 107.241 19.112H107.057C106.628 20.952 106.153 22.8227 105.631 24.724C105.141 26.6253 104.65 28.4653 104.159 30.244L99.2834 48H92.3834ZM99.1454 39.26V33.97H115.337V39.26H99.1454ZM131.079 48L120.683 13.914H127.859L132.321 30.52C132.873 32.3907 133.348 34.2153 133.747 35.994C134.176 37.742 134.652 39.582 135.173 41.514H135.403C135.955 39.582 136.446 37.742 136.875 35.994C137.304 34.2153 137.78 32.3907 138.301 30.52L142.717 13.914H149.617L139.221 48H131.079ZM153.58 48V13.914H174.464V19.618H160.388V27.484H172.302V33.188H160.388V42.296H174.97V48H153.58ZM181.88 48V13.914H193.702C196.125 13.914 198.302 14.236 200.234 14.88C202.166 15.4933 203.7 16.5667 204.834 18.1C205.969 19.6027 206.536 21.6573 206.536 24.264C206.536 26.7787 205.969 28.8487 204.834 30.474C203.7 32.0687 202.166 33.2493 200.234 34.016C198.302 34.752 196.125 35.12 193.702 35.12H188.688V48H181.88ZM188.688 29.738H193.104C195.312 29.738 196.984 29.278 198.118 28.358C199.284 27.438 199.866 26.0733 199.866 24.264C199.866 22.424 199.284 21.1513 198.118 20.446C196.984 19.71 195.312 19.342 193.104 19.342H188.688V29.738ZM200.372 48L192.46 33.372L197.244 29.14L208.008 48H200.372ZM247.368 21.182C246.693 21.6113 245.972 22.0253 245.206 22.424C244.47 22.8227 243.672 23.2367 242.814 23.666C242.108 24.034 241.234 24.4633 240.192 24.954C239.18 25.4447 238.076 25.9967 236.88 26.61C235.714 27.1927 234.534 27.8213 233.338 28.496C232.142 29.14 231.022 29.7993 229.98 30.474C228.078 31.7313 226.53 33.0347 225.334 34.384C224.168 35.7333 223.586 37.2207 223.586 38.846C223.586 40.4713 224.383 41.7287 225.978 42.618C227.572 43.4767 229.964 43.906 233.154 43.906C234.748 43.906 236.435 43.8447 238.214 43.722C240.023 43.5687 241.802 43.3693 243.55 43.124C245.298 42.848 246.846 42.5413 248.196 42.204L248.104 48.828C246.816 49.0427 245.405 49.242 243.872 49.426C242.369 49.61 240.728 49.748 238.95 49.84C237.202 49.932 235.331 49.978 233.338 49.978C231.038 49.978 228.906 49.794 226.944 49.426C225.012 49.0887 223.31 48.5213 221.838 47.724C220.396 46.9267 219.262 45.8533 218.434 44.504C217.636 43.1547 217.238 41.4987 217.238 39.536C217.238 37.5733 217.667 35.7947 218.526 34.2C219.384 32.6053 220.55 31.1333 222.022 29.784C223.524 28.4347 225.165 27.162 226.944 25.966C228.048 25.23 229.213 24.5247 230.44 23.85C231.666 23.1447 232.862 22.47 234.028 21.826C235.224 21.182 236.328 20.5993 237.34 20.078C238.382 19.526 239.241 19.0507 239.916 18.652C240.805 18.1307 241.587 17.6553 242.262 17.226C242.936 16.7967 243.58 16.3367 244.194 15.846L247.368 21.182ZM224.23 11.338C224.996 13.362 225.794 15.3093 226.622 17.18C227.48 19.0507 228.324 20.7987 229.152 22.424C230.01 24.0493 230.792 25.506 231.498 26.794L226.3 29.876C225.472 28.4653 224.613 26.886 223.724 25.138C222.834 23.39 221.945 21.55 221.056 19.618C220.166 17.6553 219.308 15.6773 218.48 13.684L224.23 11.338ZM295.944 17.364C295.729 17.7933 295.53 18.3147 295.346 18.928C295.192 19.5107 295.054 20.0627 294.932 20.584C294.686 21.688 294.364 22.9453 293.966 24.356C293.567 25.7667 293.092 27.2233 292.54 28.726C291.988 30.2287 291.328 31.716 290.562 33.188C289.826 34.66 288.982 36.04 288.032 37.328C286.652 39.1373 285.042 40.8547 283.202 42.48C281.362 44.0747 279.307 45.516 277.038 46.804C274.768 48.0613 272.269 49.1347 269.54 50.024L264.526 44.55C267.562 43.814 270.184 42.9093 272.392 41.836C274.63 40.732 276.578 39.5053 278.234 38.156C279.89 36.776 281.331 35.304 282.558 33.74C283.57 32.452 284.428 31.0567 285.134 29.554C285.87 28.0513 286.468 26.5333 286.928 25C287.418 23.4667 287.756 22.056 287.94 20.768C287.48 20.768 286.713 20.768 285.64 20.768C284.597 20.768 283.355 20.768 281.914 20.768C280.503 20.768 279.016 20.768 277.452 20.768C275.918 20.768 274.431 20.768 272.99 20.768C271.548 20.768 270.245 20.768 269.08 20.768C267.945 20.768 267.086 20.768 266.504 20.768C265.461 20.768 264.434 20.7833 263.422 20.814C262.44 20.8447 261.643 20.8907 261.03 20.952V14.466C261.52 14.4967 262.088 14.5427 262.732 14.604C263.376 14.6653 264.05 14.7267 264.756 14.788C265.461 14.8187 266.059 14.834 266.55 14.834C267.01 14.834 267.7 14.834 268.62 14.834C269.54 14.834 270.598 14.834 271.794 14.834C272.99 14.834 274.232 14.834 275.52 14.834C276.838 14.834 278.142 14.834 279.43 14.834C280.718 14.834 281.929 14.834 283.064 14.834C284.198 14.834 285.18 14.834 286.008 14.834C286.866 14.834 287.464 14.834 287.802 14.834C288.262 14.834 288.829 14.8187 289.504 14.788C290.178 14.7267 290.807 14.6193 291.39 14.466L295.944 17.364ZM341.944 25.046C341.729 25.2913 341.484 25.598 341.208 25.966C340.932 26.334 340.717 26.6407 340.564 26.886C340.165 27.53 339.613 28.3273 338.908 29.278C338.233 30.2287 337.466 31.256 336.608 32.36C335.749 33.4333 334.875 34.4453 333.986 35.396C333.096 36.3467 332.238 37.144 331.41 37.788L326.81 34.568C327.668 33.9547 328.542 33.234 329.432 32.406C330.321 31.578 331.118 30.7347 331.824 29.876C332.529 28.9867 333.066 28.22 333.434 27.576C333.066 27.576 332.376 27.576 331.364 27.576C330.352 27.576 329.156 27.576 327.776 27.576C326.426 27.576 325 27.576 323.498 27.576C321.995 27.576 320.554 27.576 319.174 27.576C317.794 27.576 316.598 27.576 315.586 27.576C314.574 27.576 313.868 27.576 313.47 27.576C312.703 27.576 311.921 27.6067 311.124 27.668C310.357 27.6987 309.544 27.76 308.686 27.852V21.918C309.422 22.0407 310.204 22.1327 311.032 22.194C311.89 22.2553 312.703 22.286 313.47 22.286C313.868 22.286 314.604 22.286 315.678 22.286C316.782 22.286 318.085 22.286 319.588 22.286C321.09 22.286 322.654 22.286 324.28 22.286C325.905 22.286 327.454 22.286 328.926 22.286C330.398 22.286 331.655 22.286 332.698 22.286C333.771 22.286 334.476 22.286 334.814 22.286C335.151 22.286 335.565 22.2707 336.056 22.24C336.546 22.2093 337.022 22.1787 337.482 22.148C337.972 22.0867 338.325 22.0253 338.54 21.964L341.944 25.046ZM326.166 29.876C326.104 31.5933 326.028 33.2953 325.936 34.982C325.844 36.638 325.614 38.2633 325.246 39.858C324.908 41.422 324.356 42.9553 323.59 44.458C322.823 45.93 321.75 47.3253 320.37 48.644C319.02 49.9933 317.272 51.266 315.126 52.462L310.25 48.552C310.863 48.3067 311.461 48.046 312.044 47.77C312.657 47.4633 313.301 47.0647 313.976 46.574C315.724 45.378 317.042 44.1207 317.932 42.802C318.821 41.4527 319.404 39.996 319.68 38.432C319.986 36.8373 320.14 35.074 320.14 33.142C320.14 32.59 320.109 32.038 320.048 31.486C319.986 30.9033 319.91 30.3667 319.818 29.876H326.166ZM358.136 13.04C358.933 13.592 359.868 14.2667 360.942 15.064C362.015 15.8613 363.119 16.7353 364.254 17.686C365.419 18.606 366.508 19.5107 367.52 20.4C368.532 21.2893 369.36 22.0867 370.004 22.792L365.312 27.576C364.729 26.932 363.962 26.1653 363.012 25.276C362.061 24.3867 361.034 23.4667 359.93 22.516C358.826 21.5653 357.737 20.6607 356.664 19.802C355.59 18.9433 354.64 18.2227 353.812 17.64L358.136 13.04ZM352.386 43.676C354.778 43.3387 357.032 42.8633 359.148 42.25C361.264 41.6367 363.226 40.9313 365.036 40.134C366.845 39.3367 368.501 38.5087 370.004 37.65C372.61 36.086 375.002 34.3073 377.18 32.314C379.357 30.3207 381.258 28.2507 382.884 26.104C384.509 23.9267 385.797 21.8107 386.748 19.756L390.336 26.242C389.17 28.2967 387.729 30.3513 386.012 32.406C384.325 34.4607 382.408 36.4233 380.262 38.294C378.115 40.134 375.8 41.79 373.316 43.262C371.752 44.2127 370.065 45.1173 368.256 45.976C366.446 46.804 364.53 47.54 362.506 48.184C360.512 48.8587 358.427 49.38 356.25 49.748L352.386 43.676ZM136.43 71.982C136.307 72.5647 136.169 73.2087 136.016 73.914C135.863 74.5887 135.725 75.2173 135.602 75.8C135.479 76.4747 135.326 77.2413 135.142 78.1C134.958 78.928 134.774 79.7713 134.59 80.63C134.437 81.458 134.268 82.2707 134.084 83.068C133.777 84.3867 133.394 85.92 132.934 87.668C132.474 89.416 131.937 91.302 131.324 93.326C130.711 95.3193 130.021 97.328 129.254 99.352C128.487 101.376 127.675 103.354 126.816 105.286C125.957 107.187 125.037 108.905 124.056 110.438L118.076 108.046C119.149 106.605 120.146 104.995 121.066 103.216C122.017 101.407 122.875 99.5667 123.642 97.696C124.409 95.7947 125.083 93.924 125.666 92.084C126.279 90.2133 126.801 88.4807 127.23 86.886C127.69 85.2913 128.043 83.9267 128.288 82.792C128.717 80.7067 129.055 78.698 129.3 76.766C129.545 74.834 129.637 73.0093 129.576 71.292L136.43 71.982ZM152.254 76.628C152.99 77.64 153.741 78.882 154.508 80.354C155.305 81.7953 156.087 83.3287 156.854 84.954C157.621 86.5793 158.311 88.1433 158.924 89.646C159.537 91.1487 160.013 92.452 160.35 93.556L154.508 96.224C154.232 94.936 153.818 93.51 153.266 91.946C152.745 90.382 152.131 88.8027 151.426 87.208C150.721 85.5827 149.969 84.0493 149.172 82.608C148.405 81.1667 147.608 79.9553 146.78 78.974L152.254 76.628ZM117.754 81.412C118.582 81.4733 119.395 81.504 120.192 81.504C121.02 81.4733 121.848 81.4427 122.676 81.412C123.443 81.3813 124.363 81.3353 125.436 81.274C126.509 81.182 127.644 81.09 128.84 80.998C130.067 80.906 131.293 80.814 132.52 80.722C133.747 80.5993 134.881 80.5073 135.924 80.446C136.967 80.3847 137.825 80.354 138.5 80.354C140.156 80.354 141.597 80.63 142.824 81.182C144.051 81.7033 145.017 82.608 145.722 83.896C146.458 85.184 146.826 86.932 146.826 89.14C146.826 90.9493 146.749 92.912 146.596 95.028C146.443 97.144 146.167 99.168 145.768 101.1C145.4 103.032 144.879 104.673 144.204 106.022C143.468 107.617 142.456 108.721 141.168 109.334C139.911 109.947 138.408 110.254 136.66 110.254C135.801 110.254 134.866 110.177 133.854 110.024C132.842 109.901 131.937 109.763 131.14 109.61L130.174 103.538C130.757 103.691 131.401 103.845 132.106 103.998C132.842 104.151 133.532 104.274 134.176 104.366C134.851 104.458 135.387 104.504 135.786 104.504C136.553 104.504 137.227 104.366 137.81 104.09C138.393 103.783 138.868 103.262 139.236 102.526C139.665 101.637 140.018 100.487 140.294 99.076C140.57 97.6653 140.769 96.1473 140.892 94.522C141.045 92.866 141.122 91.2867 141.122 89.784C141.122 88.5573 140.938 87.6527 140.57 87.07C140.233 86.4873 139.727 86.104 139.052 85.92C138.408 85.7053 137.611 85.598 136.66 85.598C135.955 85.598 135.004 85.6593 133.808 85.782C132.612 85.874 131.324 85.9967 129.944 86.15C128.595 86.2727 127.337 86.4107 126.172 86.564C125.007 86.7173 124.102 86.8247 123.458 86.886C122.783 87.0087 121.925 87.1467 120.882 87.3C119.87 87.4227 119.011 87.5453 118.306 87.668L117.754 81.412ZM151.426 70.234C151.825 70.786 152.239 71.4453 152.668 72.212C153.128 72.9787 153.573 73.7453 154.002 74.512C154.431 75.2787 154.799 75.9533 155.106 76.536L151.38 78.146C151.073 77.502 150.721 76.7967 150.322 76.03C149.923 75.2633 149.509 74.4967 149.08 73.73C148.651 72.9633 148.221 72.304 147.792 71.752L151.426 70.234ZM156.9 68.164C157.299 68.7467 157.728 69.4213 158.188 70.188C158.648 70.9547 159.093 71.7213 159.522 72.488C159.982 73.2547 160.335 73.8987 160.58 74.42L156.946 75.984C156.455 75.0333 155.873 73.96 155.198 72.764C154.523 71.5373 153.864 70.4947 153.22 69.636L156.9 68.164ZM173.46 69.222H179.21V95.626H173.46V69.222ZM189.79 69.222H195.586V95.626H189.79V69.222ZM163.524 91.946H205.614V97.328H163.524V91.946ZM165.134 77.778H204.188V83.114H165.134V77.778ZM187.72 101.698L192.734 98.938C194.053 99.8887 195.494 100.962 197.058 102.158C198.653 103.323 200.186 104.504 201.658 105.7C203.13 106.896 204.341 107.969 205.292 108.92L199.818 112.14C198.99 111.22 197.871 110.147 196.46 108.92C195.08 107.693 193.623 106.451 192.09 105.194C190.557 103.906 189.1 102.741 187.72 101.698ZM175.438 99.122L181.326 101.376C180.161 102.695 178.857 104.013 177.416 105.332C175.975 106.651 174.472 107.893 172.908 109.058C171.344 110.254 169.811 111.281 168.308 112.14C167.94 111.741 167.48 111.297 166.928 110.806C166.376 110.315 165.824 109.84 165.272 109.38C164.751 108.951 164.26 108.583 163.8 108.276C165.272 107.479 166.744 106.574 168.216 105.562C169.688 104.55 171.053 103.477 172.31 102.342C173.598 101.207 174.641 100.134 175.438 99.122ZM217.896 77.87H228.614V81.55H217.896V77.87ZM217.758 106.666H231.466V110.622H217.758V106.666ZM215.412 88.726H230.086V92.038H215.412V88.726ZM213.158 83.206H217.896V89.968C217.896 91.5013 217.819 93.188 217.666 95.028C217.513 96.8373 217.237 98.708 216.838 100.64C216.439 102.572 215.857 104.443 215.09 106.252C214.354 108.061 213.403 109.702 212.238 111.174C212.023 110.867 211.686 110.484 211.226 110.024C210.766 109.595 210.291 109.165 209.8 108.736C209.34 108.337 208.926 108.046 208.558 107.862C209.969 106.083 210.981 104.136 211.594 102.02C212.238 99.904 212.652 97.8033 212.836 95.718C213.051 93.602 213.158 91.6547 213.158 89.876V83.206ZM215.826 83.206H232.248V97.604H215.688V93.786H227.326V87.07H215.826V83.206ZM215.78 99.444H233.03V111.91H228.2V103.4H220.426V112.048H215.78V99.444ZM235.008 74.512H240.252V100.548H235.008V74.512ZM245.082 69.866H250.464V105.516C250.464 107.08 250.28 108.276 249.912 109.104C249.575 109.932 248.961 110.561 248.072 110.99C247.152 111.45 245.987 111.741 244.576 111.864C243.165 112.017 241.448 112.094 239.424 112.094C239.363 111.573 239.225 110.975 239.01 110.3C238.826 109.625 238.611 108.935 238.366 108.23C238.121 107.555 237.875 106.973 237.63 106.482C239.01 106.513 240.298 106.543 241.494 106.574C242.69 106.574 243.518 106.574 243.978 106.574C244.377 106.574 244.653 106.497 244.806 106.344C244.99 106.16 245.082 105.869 245.082 105.47V69.866ZM220.012 69.498H223.048V70.602H224.796V72.166C223.416 74.0367 221.668 76.0913 219.552 78.33C217.467 80.538 214.845 82.654 211.686 84.678C211.502 84.2793 211.211 83.8193 210.812 83.298C210.413 82.7767 209.984 82.286 209.524 81.826C209.095 81.366 208.711 80.998 208.374 80.722C210.214 79.6793 211.87 78.5293 213.342 77.272C214.814 75.984 216.102 74.6807 217.206 73.362C218.341 72.0433 219.276 70.7553 220.012 69.498ZM221.162 69.498H224.934C226.007 70.2953 227.142 71.2 228.338 72.212C229.534 73.1933 230.684 74.1747 231.788 75.156C232.892 76.1067 233.812 76.9807 234.548 77.778L231.052 81.872C230.377 81.0747 229.534 80.17 228.522 79.158C227.51 78.1153 226.437 77.0727 225.302 76.03C224.198 74.9873 223.14 74.1133 222.128 73.408H221.162V69.498ZM283.538 70.924C283.507 71.1693 283.461 71.568 283.4 72.12C283.369 72.6413 283.339 73.178 283.308 73.73C283.277 74.2513 283.247 74.6347 283.216 74.88C283.185 75.4933 283.17 76.3213 283.17 77.364C283.17 78.376 283.17 79.5107 283.17 80.768C283.17 82.0253 283.17 83.298 283.17 84.586C283.201 85.8433 283.216 87.0393 283.216 88.174C283.247 89.278 283.262 90.198 283.262 90.934L277.512 89.002C277.512 88.4193 277.512 87.6527 277.512 86.702C277.512 85.7207 277.512 84.6627 277.512 83.528C277.512 82.3627 277.497 81.2127 277.466 80.078C277.466 78.9433 277.451 77.916 277.42 76.996C277.389 76.076 277.359 75.386 277.328 74.926C277.267 73.9753 277.19 73.1473 277.098 72.442C277.006 71.706 276.929 71.2 276.868 70.924H283.538ZM257.548 76.628C258.897 76.628 260.431 76.6127 262.148 76.582C263.865 76.5513 265.659 76.5207 267.53 76.49C269.401 76.4593 271.241 76.4287 273.05 76.398C274.859 76.3673 276.561 76.352 278.156 76.352C279.751 76.3213 281.131 76.306 282.296 76.306C283.461 76.306 284.734 76.306 286.114 76.306C287.494 76.2753 288.859 76.26 290.208 76.26C291.557 76.26 292.784 76.26 293.888 76.26C295.023 76.26 295.897 76.26 296.51 76.26L296.464 81.688C295.023 81.6267 293.121 81.5807 290.76 81.55C288.399 81.4887 285.516 81.458 282.112 81.458C280.027 81.458 277.911 81.4887 275.764 81.55C273.617 81.5807 271.486 81.6267 269.37 81.688C267.254 81.7493 265.215 81.826 263.252 81.918C261.289 81.9793 259.434 82.0713 257.686 82.194L257.548 76.628ZM282.434 90.244C282.434 92.7587 282.127 94.844 281.514 96.5C280.931 98.156 280.042 99.4133 278.846 100.272C277.65 101.1 276.163 101.514 274.384 101.514C273.525 101.514 272.621 101.33 271.67 100.962C270.75 100.594 269.891 100.057 269.094 99.352C268.297 98.6467 267.653 97.7727 267.162 96.73C266.702 95.6873 266.472 94.4607 266.472 93.05C266.472 91.302 266.886 89.7993 267.714 88.542C268.542 87.254 269.646 86.2573 271.026 85.552C272.437 84.816 273.985 84.448 275.672 84.448C277.696 84.448 279.383 84.908 280.732 85.828C282.112 86.7173 283.139 87.9287 283.814 89.462C284.519 90.9953 284.872 92.728 284.872 94.66C284.872 96.1627 284.627 97.7267 284.136 99.352C283.645 100.977 282.833 102.572 281.698 104.136C280.594 105.669 279.091 107.065 277.19 108.322C275.319 109.579 272.973 110.607 270.152 111.404L265.23 106.528C267.193 106.129 269.017 105.608 270.704 104.964C272.391 104.32 273.863 103.507 275.12 102.526C276.408 101.545 277.405 100.333 278.11 98.892C278.846 97.4507 279.214 95.718 279.214 93.694C279.214 92.222 278.846 91.118 278.11 90.382C277.405 89.646 276.546 89.278 275.534 89.278C274.951 89.278 274.384 89.416 273.832 89.692C273.28 89.968 272.835 90.382 272.498 90.934C272.161 91.486 271.992 92.1607 271.992 92.958C271.992 94.0007 272.345 94.844 273.05 95.488C273.786 96.1013 274.614 96.408 275.534 96.408C276.27 96.408 276.914 96.178 277.466 95.718C278.049 95.258 278.432 94.4913 278.616 93.418C278.8 92.3447 278.647 90.9033 278.156 89.094L282.434 90.244ZM309.62 72.948C310.264 73.04 310.954 73.1013 311.69 73.132C312.426 73.1627 313.131 73.178 313.806 73.178C314.297 73.178 315.033 73.178 316.014 73.178C316.995 73.1473 318.099 73.1167 319.326 73.086C320.583 73.0553 321.825 73.0247 323.052 72.994C324.279 72.9633 325.383 72.9327 326.364 72.902C327.376 72.8407 328.158 72.7947 328.71 72.764C329.661 72.672 330.412 72.5953 330.964 72.534C331.516 72.442 331.93 72.35 332.206 72.258L335.196 76.352C334.675 76.6893 334.138 77.0267 333.586 77.364C333.034 77.7013 332.497 78.0693 331.976 78.468C331.363 78.8973 330.627 79.4647 329.768 80.17C328.909 80.8447 327.989 81.5653 327.008 82.332C326.057 83.0987 325.122 83.85 324.202 84.586C323.313 85.322 322.5 85.9813 321.764 86.564C322.531 86.38 323.267 86.2573 323.972 86.196C324.677 86.104 325.398 86.058 326.134 86.058C328.741 86.058 331.071 86.564 333.126 87.576C335.211 88.588 336.852 89.968 338.048 91.716C339.275 93.4333 339.888 95.4113 339.888 97.65C339.888 100.073 339.275 102.265 338.048 104.228C336.821 106.191 334.966 107.755 332.482 108.92C330.029 110.085 326.947 110.668 323.236 110.668C321.12 110.668 319.203 110.361 317.486 109.748C315.799 109.135 314.465 108.261 313.484 107.126C312.503 105.991 312.012 104.657 312.012 103.124C312.012 101.867 312.349 100.701 313.024 99.628C313.729 98.524 314.695 97.6347 315.922 96.96C317.179 96.2853 318.621 95.948 320.246 95.948C322.362 95.948 324.141 96.3773 325.582 97.236C327.054 98.064 328.173 99.1833 328.94 100.594C329.737 102.005 330.151 103.553 330.182 105.24L324.8 105.976C324.769 104.289 324.34 102.94 323.512 101.928C322.715 100.885 321.641 100.364 320.292 100.364C319.433 100.364 318.743 100.594 318.222 101.054C317.701 101.483 317.44 101.989 317.44 102.572C317.44 103.431 317.869 104.121 318.728 104.642C319.587 105.163 320.706 105.424 322.086 105.424C324.693 105.424 326.87 105.117 328.618 104.504C330.366 103.86 331.669 102.955 332.528 101.79C333.417 100.594 333.862 99.1833 333.862 97.558C333.862 96.178 333.433 94.9667 332.574 93.924C331.746 92.8813 330.611 92.0687 329.17 91.486C327.729 90.9033 326.103 90.612 324.294 90.612C322.515 90.612 320.89 90.842 319.418 91.302C317.946 91.7313 316.551 92.36 315.232 93.188C313.944 93.9853 312.671 94.9667 311.414 96.132C310.187 97.2667 308.961 98.5393 307.734 99.95L303.548 95.626C304.376 94.9513 305.311 94.2 306.354 93.372C307.397 92.5133 308.455 91.624 309.528 90.704C310.632 89.784 311.659 88.9253 312.61 88.128C313.591 87.3 314.419 86.61 315.094 86.058C315.738 85.5367 316.489 84.9233 317.348 84.218C318.207 83.5127 319.096 82.792 320.016 82.056C320.936 81.2893 321.81 80.5687 322.638 79.894C323.466 79.1887 324.156 78.5907 324.708 78.1C324.248 78.1 323.65 78.1153 322.914 78.146C322.178 78.1767 321.365 78.2073 320.476 78.238C319.617 78.2687 318.743 78.2993 317.854 78.33C316.995 78.3607 316.183 78.4067 315.416 78.468C314.68 78.4987 314.067 78.5293 313.576 78.56C312.963 78.5907 312.319 78.6367 311.644 78.698C310.969 78.7593 310.356 78.836 309.804 78.928L309.62 72.948Z" fill="#1A1A1A"/>
<path d="M44.9194 363V312.34H77.2194V322.472H57.0914V333.556H74.3634V343.688H57.0914V363H44.9194ZM75.4333 363L91.1413 312.34H105.693L121.401 363H108.617L102.293 337.704C101.613 335.165 100.933 332.468 100.253 329.612C99.6187 326.756 98.9613 324.036 98.2813 321.452H98.0093C97.42 324.081 96.7853 326.824 96.1053 329.68C95.4253 332.491 94.768 335.165 94.1333 337.704L87.8093 363H75.4333ZM86.1093 351.372V341.988H110.589V351.372H86.1093ZM132.814 363L117.65 312.34H130.502L136.282 335.46C137.053 338.18 137.71 340.855 138.254 343.484C138.844 346.113 139.501 348.833 140.226 351.644H140.566C141.337 348.833 141.994 346.113 142.538 343.484C143.128 340.855 143.785 338.18 144.51 335.46L150.222 312.34H162.598L147.434 363H132.814ZM167.126 363V312.34H199.222V322.472H179.298V331.856H196.23V342.056H179.298V352.8H199.97V363H167.126ZM228.353 313.768C229.713 313.904 231.231 314.017 232.909 314.108C234.631 314.199 236.105 314.244 237.329 314.244H272.009C273.097 314.244 274.321 314.221 275.681 314.176C277.041 314.131 277.97 314.085 278.469 314.04C278.423 314.856 278.378 315.921 278.333 317.236C278.287 318.551 278.265 319.775 278.265 320.908V356.2C278.265 357.333 278.287 358.761 278.333 360.484C278.423 362.207 278.514 363.725 278.605 365.04H266.637C266.682 363.725 266.705 362.456 266.705 361.232C266.75 360.008 266.773 358.761 266.773 357.492V324.92H237.329C235.787 324.92 234.155 324.943 232.433 324.988C230.755 325.033 229.395 325.101 228.353 325.192V313.768ZM227.537 350.352C228.851 350.443 230.279 350.533 231.821 350.624C233.362 350.715 234.926 350.76 236.513 350.76H273.437V361.64H236.853C235.583 361.64 234.019 361.685 232.161 361.776C230.302 361.867 228.761 361.98 227.537 362.116V350.352ZM288.941 335.528C295.151 333.941 300.705 332.128 305.601 330.088C310.497 328.048 314.849 325.872 318.657 323.56C320.969 322.155 323.349 320.477 325.797 318.528C328.245 316.579 330.557 314.584 332.733 312.544C334.909 310.459 336.699 308.555 338.105 306.832L347.013 315.332C344.882 317.417 342.502 319.548 339.873 321.724C337.289 323.855 334.591 325.895 331.781 327.844C329.015 329.793 326.295 331.561 323.621 333.148C320.991 334.644 318.067 336.185 314.849 337.772C311.63 339.359 308.23 340.855 304.649 342.26C301.113 343.665 297.577 344.889 294.041 345.932L288.941 335.528ZM317.025 328.864L328.857 326.28V356.676C328.857 357.764 328.879 358.965 328.925 360.28C328.97 361.549 329.038 362.751 329.129 363.884C329.219 365.017 329.355 365.901 329.537 366.536H316.481C316.571 365.901 316.662 365.017 316.753 363.884C316.843 362.751 316.911 361.549 316.957 360.28C317.002 358.965 317.025 357.764 317.025 356.676V328.864ZM369.861 310.232C371.039 311.048 372.422 312.068 374.009 313.292C375.595 314.471 377.227 315.763 378.905 317.168C380.627 318.528 382.237 319.888 383.733 321.248C385.274 322.563 386.543 323.764 387.541 324.852L379.109 333.488C378.202 332.491 377.046 331.335 375.641 330.02C374.235 328.66 372.717 327.277 371.085 325.872C369.453 324.421 367.843 323.061 366.257 321.792C364.67 320.523 363.265 319.457 362.041 318.596L369.861 310.232ZM359.797 355.384C363.151 354.931 366.325 354.296 369.317 353.48C372.354 352.664 375.21 351.712 377.885 350.624C380.559 349.536 383.007 348.357 385.229 347.088C389.309 344.731 393.026 342.056 396.381 339.064C399.735 336.027 402.659 332.876 405.153 329.612C407.691 326.303 409.709 323.061 411.205 319.888L417.597 331.516C415.783 334.735 413.539 337.908 410.865 341.036C408.19 344.119 405.175 347.043 401.821 349.808C398.511 352.573 394.953 355.067 391.145 357.288C388.833 358.648 386.339 359.94 383.665 361.164C380.99 362.343 378.225 363.363 375.369 364.224C372.513 365.131 369.657 365.811 366.801 366.264L359.797 355.384Z" fill="url(#paint0_linear_38_1865)"/>
<defs>
<linearGradient id="paint0_linear_38_1865" x1="39.6161" y1="359.886" x2="100.478" y2="199.602" gradientUnits="userSpaceOnUse">
<stop stop-color="#FFB2B8"/>
<stop offset="0.14" stop-color="#FF7DB8"/>
<stop offset="0.18" stop-color="#FA75BC"/>
<stop offset="0.24" stop-color="#ED62C7"/>
<stop offset="0.31" stop-color="#D842D9"/>
<stop offset="0.38" stop-color="#BB15F2"/>
<stop offset="0.42" stop-color="#AD00FF"/>
<stop offset="0.51" stop-color="#A711FE"/>
<stop offset="0.59" stop-color="#A41BFE"/>
<stop offset="0.62" stop-color="#9A35FC"/>
<stop offset="0.68" stop-color="#8C5DFB"/>
<stop offset="0.74" stop-color="#817EF9"/>
<stop offset="0.8" stop-color="#7897F8"/>
<stop offset="0.86" stop-color="#71A9F7"/>
<stop offset="0.93" stop-color="#6EB4F7"/>
<stop offset="1" stop-color="#6DB8F7"/>
</linearGradient>
</defs>
</svg>
