<svg width="536" height="324" viewBox="0 0 536 324" fill="none" xmlns="http://www.w3.org/2000/svg">
<g clip-path="url(#clip0_2007_37)">
<path d="M222.339 227.235L180.732 230.302L147.2 170.795L199.854 140.472L398.907 160.396L489.923 205.994L485.069 275.114L309.739 268.438L239.983 235.867L235.653 265.935L222.339 227.235Z" fill="white" stroke="black" stroke-width="2" stroke-linecap="round" stroke-linejoin="round"/>
<path d="M230.293 219.094L188.686 222.161L155.155 162.655L207.809 132.331L406.861 152.255L497.877 197.854L493.024 266.973L317.693 260.297L247.937 227.727L243.607 257.794L230.293 219.094Z" fill="#FFE766" stroke="#FFF84B" stroke-width="1.5" stroke-linecap="round" stroke-linejoin="round"/>
<path d="M352.312 68.5581L350.8 123.532" stroke="black" stroke-width="3" stroke-linecap="round" stroke-linejoin="round"/>
<path d="M392.439 81.9805L369.069 132.102" stroke="black" stroke-width="3" stroke-linecap="round" stroke-linejoin="round"/>
<path d="M311.603 76.3172L332.135 129.512" stroke="black" stroke-width="3" stroke-linecap="round" stroke-linejoin="round"/>
<path d="M222.339 227.235L180.732 230.302L147.2 170.795L199.854 140.472L398.907 160.396L489.923 205.994L485.069 275.114L309.739 268.438L239.983 235.867L235.653 265.935L222.339 227.235Z" stroke="black" stroke-width="2" stroke-linecap="round" stroke-linejoin="round"/>
</g>
<path d="M245.829 169.415L238.792 173.161L238.814 173.193L238.924 173.214C239.475 173.315 239.872 173.634 240.115 174.173C240.361 174.692 240.535 175.654 240.638 177.059C240.722 178.251 240.903 179.024 241.179 179.379C241.478 179.718 242.104 179.976 243.059 180.151C244.234 180.367 245.401 180.42 246.56 180.31L246.572 182.875C245.128 182.989 243.708 182.918 242.313 182.662C240.734 182.371 239.617 181.891 238.962 181.22C238.322 180.571 237.958 179.555 237.871 178.173C237.783 176.999 237.629 176.183 237.41 175.725C237.212 175.252 236.902 174.977 236.48 174.9C236.057 174.822 235.39 174.994 234.478 175.414C233.587 175.82 230.639 177.3 225.634 179.853L224.404 177.406L241.941 168.416L241.924 168.356L228.457 165.881L228.913 163.403L246.345 166.606L245.829 169.415ZM232.322 160.186L233.108 157.768C237.396 159.22 241.505 160.307 245.434 161.029L244.963 163.591C241.089 162.879 236.876 161.744 232.322 160.186ZM256.376 170.271C261.018 170.004 264.468 170.078 266.726 170.493C272.344 171.526 274.723 174.383 273.862 179.064C272.79 184.902 267.471 186.943 257.905 185.185L258.193 182.534C262.251 183.279 265.287 183.334 267.302 182.698C269.316 182.063 270.504 180.763 270.865 178.798C271.159 177.201 270.914 175.951 270.131 175.048C269.351 174.126 267.961 173.482 265.96 173.114C264.05 172.763 260.899 172.715 256.506 172.971L256.376 170.271ZM292.862 170.172L296.442 170.829L293.398 185.074L290.644 184.568L292.862 170.172ZM289.306 190.3L289.964 186.72L293.269 187.327L292.611 190.908L289.306 190.3ZM319.978 185.745L319.989 185.69L308.684 184.466L308.974 181.957C311.431 182.219 313.911 182.048 316.413 181.445C318.915 180.842 321.885 179.708 325.322 178.044L325.305 177.983L314.565 176.01L315.02 173.531L330.387 176.355L329.936 178.806C325.705 180.762 321.817 182.144 318.271 182.954L318.261 183.009L332.41 184.556L332.12 187.065L324.781 186.257C322.7 186.634 321.062 187.234 319.866 188.058C318.689 188.886 318.001 189.841 317.802 190.925C317.398 193.128 319.261 194.609 323.391 195.368C324.879 195.641 326.363 195.772 327.846 195.759L327.711 198.354C326.118 198.346 324.523 198.195 322.926 197.901C319.658 197.301 317.39 196.372 316.122 195.114C314.875 193.841 314.405 192.369 314.712 190.698C314.901 189.67 315.445 188.726 316.343 187.867C317.241 187.007 318.453 186.299 319.978 185.745ZM341.916 182.089L342.382 179.556L358.354 182.491L357.889 185.024L341.916 182.089ZM337.146 194.109C337.483 192.273 339.276 190.259 342.526 188.066L344.311 190.13C341.738 191.84 340.349 193.255 340.143 194.375C339.944 195.458 340.444 196.452 341.645 197.355C342.849 198.241 344.635 198.901 347.003 199.336C348.343 199.583 349.926 199.75 351.75 199.839C353.594 199.931 355.125 199.908 356.346 199.772L356.416 202.49C355.159 202.619 353.563 202.63 351.628 202.521C349.711 202.415 348.009 202.226 346.522 201.953C343.291 201.359 340.839 200.348 339.165 198.921C337.491 197.494 336.818 195.89 337.146 194.109ZM377.209 204.602C379.367 204.733 381.144 204.205 382.539 203.019C383.955 201.818 384.879 200.043 385.311 197.693C385.699 195.581 385.343 193.694 384.245 192.031C383.149 190.349 381.552 189.23 379.452 188.673C378.382 192.121 377.333 194.993 376.303 197.29C375.292 199.591 374.314 201.299 373.369 202.416C372.423 203.533 371.538 204.272 370.712 204.633C369.905 204.997 369.061 205.098 368.18 204.936C366.766 204.676 365.624 203.612 364.752 201.744C363.881 199.876 363.664 197.748 364.103 195.361C364.747 191.855 366.464 189.228 369.252 187.482C372.043 185.718 375.367 185.19 379.222 185.898C382.325 186.468 384.707 187.912 386.369 190.229C388.05 192.55 388.615 195.206 388.065 198.199C387.491 201.32 386.231 203.688 384.282 205.304C382.356 206.905 380.021 207.577 377.279 207.32L377.209 204.602ZM376.563 188.285C374.032 188.218 371.891 188.869 370.141 190.236C368.393 191.585 367.299 193.462 366.857 195.867C366.57 197.428 366.642 198.846 367.072 200.12C367.524 201.38 368.062 202.067 368.686 202.182C368.98 202.236 369.304 202.172 369.66 201.991C370.02 201.791 370.455 201.387 370.965 200.779C371.497 200.155 372.035 199.343 372.58 198.343C373.143 197.345 373.773 195.981 374.471 194.249C375.169 192.517 375.866 190.529 376.563 188.285ZM398.257 209.039L410.375 211.266L411.351 205.951L399.234 203.724L398.257 209.039ZM407.975 191.324L417.751 193.12L417.306 195.544L408.218 193.874L407.662 196.903L416.474 198.522L416.034 200.918L407.221 199.299L406.614 202.604L414.738 204.096L412.638 215.525L409.691 214.984L409.944 213.607L397.827 211.38L397.574 212.757L394.6 212.211L396.7 200.782L403.64 202.057L405.244 193.327L397.698 191.941L396.524 198.33C395.472 204.058 393.651 208.392 391.061 211.332L389.282 208.614C391.324 205.972 392.883 201.722 393.96 195.866L395.225 188.981L404.946 190.767L405.462 187.958L408.491 188.515L407.975 191.324ZM425.333 215.381L422.5 216.853C421.223 214.512 419.841 212.218 418.356 209.971L421.076 208.336C422.686 210.833 424.105 213.182 425.333 215.381ZM217.868 203.369C219.852 202.177 221.532 200.417 222.909 198.089L215.171 196.667C214.063 197.944 212.966 199.061 211.879 200.019C213.9 200.998 215.897 202.114 217.868 203.369ZM227.816 192.3L210.301 189.082L209.755 192.056L206.946 191.54L207.922 186.225L217.974 188.072L218.48 185.318L221.509 185.875L221.003 188.629L231.055 190.476L230.079 195.791L227.27 195.275L227.816 192.3ZM205.697 194.926L206.153 192.448L213.698 193.834C214.502 192.767 215.233 191.677 215.893 190.565L218.752 191.432C218.264 192.329 217.645 193.326 216.893 194.421L230.497 196.921L230.042 199.399L225.856 198.63C224.391 201.436 222.583 203.58 220.432 205.064C222.616 206.604 224.996 208.474 227.571 210.675L225.487 212.569C222.758 210.17 220.216 208.147 217.862 206.499C214.64 207.919 210.186 208.562 204.497 208.428L204.259 205.85C208.757 205.955 212.352 205.553 215.043 204.643C213.424 203.643 211.657 202.673 209.742 201.733C209.456 201.946 209.009 202.263 208.4 202.682L206.427 200.868C208.43 199.471 210.243 197.868 211.866 196.06L205.697 194.926ZM242.452 200.029C241.219 200.542 240.432 200.901 240.091 201.104C239.75 201.307 239.553 201.555 239.499 201.849C239.448 202.124 239.529 202.405 239.743 202.691C239.956 202.977 240.503 203.561 241.385 204.445C244.661 207.685 247.873 211.226 251.019 215.069L248.634 216.737C245.469 212.891 242.347 209.433 239.267 206.361C237.746 204.829 236.816 203.795 236.478 203.258C236.14 202.722 236.046 202.05 236.194 201.242C236.349 200.397 236.691 199.777 237.219 199.38C237.766 198.987 239.047 198.369 241.062 197.524C244.703 195.992 248.496 194.202 252.44 192.156L253.928 194.593C249.646 196.824 245.821 198.636 242.452 200.029ZM267.313 209.75C267.664 207.84 268.581 206.206 270.064 204.846C271.548 203.487 273.515 202.491 275.965 201.86L275.975 201.805C271.719 201.212 267.489 200.53 263.284 199.757L263.765 197.141C271.109 198.49 278.624 199.682 286.311 200.714L285.968 203.356C281.297 202.953 277.651 203.375 275.031 204.62C272.411 205.866 270.883 207.673 270.448 210.041C270.087 212.006 270.461 213.688 271.57 215.087C272.701 216.472 274.369 217.366 276.572 217.771C277.6 217.96 278.757 218.068 280.042 218.096L279.887 220.8C278.466 220.786 277.15 220.667 275.938 220.445C272.817 219.871 270.476 218.615 268.915 216.677C267.354 214.739 266.82 212.43 267.313 209.75ZM307.648 206.059L310.444 205.718C311.235 208.331 311.672 211.22 311.755 214.386C311.859 217.537 311.614 220.728 311.021 223.959L308.129 223.428C308.679 220.435 308.91 217.422 308.822 214.388C308.734 211.354 308.343 208.578 307.648 206.059ZM296.115 203.598C294.756 206.347 293.779 209.337 293.186 212.568C292.781 214.771 292.815 216.704 293.287 218.366C293.763 220.01 294.378 220.901 295.131 221.039C295.645 221.134 296.418 220.697 297.45 219.729C298.482 218.761 299.592 217.313 300.781 215.387L303.21 216.887C301.813 219.325 300.289 221.161 298.639 222.396C297.011 223.615 295.591 224.113 294.379 223.89C292.874 223.614 291.68 222.312 290.797 219.987C289.915 217.661 289.747 215.011 290.294 212.037C290.925 208.604 291.949 205.508 293.367 202.751L296.115 203.598ZM335.462 211.17L338.258 210.829C339.05 213.442 339.487 216.331 339.569 219.497C339.673 222.648 339.429 225.839 338.835 229.07L335.943 228.539C336.493 225.546 336.724 222.533 336.636 219.499C336.549 216.465 336.157 213.689 335.462 211.17ZM323.929 208.709C322.57 211.458 321.594 214.448 321 217.679C320.595 219.882 320.629 221.815 321.102 223.477C321.578 225.121 322.192 226.012 322.945 226.15C323.459 226.245 324.232 225.808 325.264 224.84C326.296 223.871 327.406 222.424 328.595 220.498L331.024 221.998C329.627 224.436 328.104 226.272 326.454 227.507C324.825 228.726 323.405 229.224 322.193 229.001C320.688 228.725 319.494 227.423 318.612 225.098C317.73 222.772 317.562 220.122 318.108 217.148C318.739 213.715 319.763 210.619 321.181 207.862L323.929 208.709ZM358.89 214.592L361.568 213.803C362.269 215.773 362.869 217.572 363.366 219.201L360.698 219.935C360.215 218.328 359.612 216.547 358.89 214.592ZM363.338 214.242L366.049 213.431C366.741 215.247 367.355 217.068 367.893 218.894L365.191 219.65C364.644 217.879 364.026 216.077 363.338 214.242ZM350.221 210.949L353.153 211.573C351.97 216.67 351.096 220.752 350.533 223.818C350.236 225.433 350.087 226.763 350.085 227.806C350.083 228.85 350.25 229.696 350.586 230.347C350.925 230.978 351.37 231.449 351.92 231.759C352.474 232.051 353.219 232.282 354.156 232.454C357.901 233.143 361.343 230.938 364.481 225.84L366.915 227.312C365.093 230.412 363.046 232.617 360.774 233.927C358.521 235.24 356.146 235.667 353.65 235.208C350.657 234.658 348.71 233.532 347.808 231.829C346.928 230.111 346.854 227.26 347.586 223.276C348.254 219.641 349.132 215.532 350.221 210.949ZM384.886 222.159L387.606 221.918C387.677 222.672 387.791 223.86 387.948 225.483C388.786 225.466 389.554 225.522 390.252 225.65C391.757 225.927 392.877 226.597 393.611 227.662C394.364 228.731 394.6 230.027 394.32 231.55C394.013 233.221 393.276 234.443 392.11 235.215C390.964 235.973 389.547 236.196 387.858 235.886C386.977 235.724 386.033 235.437 385.027 235.024L385.721 232.646C386.572 232.973 387.355 233.203 388.071 233.334C388.989 233.503 389.758 233.398 390.378 233.018C391.02 232.624 391.417 232.013 391.569 231.187C391.727 230.324 391.619 229.621 391.245 229.078C390.87 228.534 390.251 228.184 389.388 228.025C389.021 227.958 388.609 227.929 388.151 227.94C388.246 229.286 388.312 230.266 388.351 230.881L385.774 231.119C385.744 230.867 385.704 230.413 385.653 229.759C385.606 229.086 385.56 228.565 385.514 228.196C384.852 228.283 383.709 228.462 382.084 228.733C382.558 233.071 382.915 236.914 383.154 240.26L380.362 240.43C380.046 236.158 379.716 232.425 379.373 229.231C378.862 229.327 378.045 229.49 376.921 229.72C375.8 229.931 375.083 230.065 374.769 230.121L374.257 227.636C374.71 227.548 375.497 227.399 376.617 227.187C377.741 226.957 378.568 226.796 379.098 226.703C379.068 226.451 378.87 224.897 378.503 222.039L381.238 221.716C381.378 222.71 381.567 224.215 381.803 226.233C383.351 225.967 384.504 225.789 385.26 225.701C385.129 224.348 385.005 223.167 384.886 222.159ZM411.611 221.888L414.026 223.157C412.835 224.988 410.865 228.119 408.115 232.548L408.138 232.581C409.303 231.922 410.417 231.69 411.482 231.886C412.639 232.098 413.5 232.731 414.066 233.784C414.632 234.837 414.876 236.447 414.801 238.616C414.757 240.506 414.84 241.812 415.049 242.533C415.261 243.237 415.624 243.636 416.138 243.73C417.662 244.01 419.469 241.922 421.56 237.467L423.912 238.611C422.477 241.668 421.096 243.759 419.77 244.881C418.444 246.004 417.056 246.432 415.605 246.166C414.375 245.94 413.477 245.3 412.912 244.247C412.364 243.198 412.105 241.461 412.133 239.037C412.142 237.331 412.023 236.122 411.774 235.412C411.543 234.706 411.18 234.307 410.684 234.216C409.619 234.02 408.351 234.622 406.879 236.022C405.407 237.421 403.467 240.026 401.059 243.835L398.725 242.438C402.768 235.931 407.063 229.081 411.611 221.888ZM440.239 228.771L443.819 229.429L440.774 243.673L438.02 243.167L440.239 228.771ZM436.682 248.9L437.34 245.32L440.645 245.927L439.987 249.507L436.682 248.9Z" fill="black"/>
<defs>
<clipPath id="clip0_2007_37">
<rect width="492" height="285" fill="white" transform="matrix(-0.983533 -0.180727 -0.180727 0.983533 535.406 42.917)"/>
</clipPath>
</defs>
</svg>
