<svg width="526" height="349" viewBox="0 0 526 349" fill="none" xmlns="http://www.w3.org/2000/svg">
<mask id="path-1-outside-1_1_11" maskUnits="userSpaceOnUse" x="0.0141602" y="0.339355" width="526" height="348" fill="black">
<rect fill="white" x="0.0141602" y="0.339355" width="526" height="348"/>
<path d="M73.7681 1.33936V12.0205H43.5557V91H31.2266V12.0205H1.01416V1.33936H73.7681Z"/>
<path d="M92.9966 83.9199C100.28 83.9199 105.265 81.1733 107.95 75.6802C110.676 70.1463 112.04 64.0021 112.04 57.2476C112.04 51.144 111.063 46.1799 109.11 42.355C106.017 36.3328 100.687 33.3218 93.1187 33.3218C86.4048 33.3218 81.522 35.8853 78.4702 41.0122C75.4185 46.1392 73.8926 52.3241 73.8926 59.5669C73.8926 66.5249 75.4185 72.3232 78.4702 76.9619C81.522 81.6006 86.3641 83.9199 92.9966 83.9199ZM93.4238 23.7393C101.847 23.7393 108.967 26.5469 114.786 32.1621C120.605 37.7773 123.514 46.0374 123.514 56.9424C123.514 67.4811 120.951 76.1888 115.824 83.0654C110.697 89.9421 102.742 93.3804 91.959 93.3804C82.9665 93.3804 75.8254 90.349 70.5356 84.2861C65.2459 78.1826 62.6011 70.0039 62.6011 59.75C62.6011 48.7637 65.3883 40.0153 70.9629 33.5049C76.5374 26.9945 84.0244 23.7393 93.4238 23.7393Z"/>
<path d="M133.893 1.33936H144.452V53.4023L172.65 25.6313H186.688L161.664 50.1064L188.092 91H174.054L153.668 58.041L144.452 66.4639V91H133.893V1.33936Z"/>
<path d="M234.969 25.6313H247.115C245.569 29.8224 242.131 39.3846 236.8 54.3179C232.813 65.5483 229.476 74.7036 226.791 81.7837C220.443 98.4666 215.967 108.639 213.363 112.301C210.759 115.963 206.283 117.794 199.935 117.794C198.389 117.794 197.188 117.733 196.334 117.611C195.52 117.489 194.503 117.265 193.282 116.94V106.93C195.195 107.459 196.578 107.785 197.433 107.907C198.287 108.029 199.04 108.09 199.691 108.09C201.725 108.09 203.211 107.744 204.146 107.052C205.123 106.401 205.937 105.587 206.588 104.611C206.791 104.285 207.524 102.617 208.785 99.606C210.047 96.5949 210.962 94.3569 211.532 92.8921L187.362 25.6313H199.813L217.33 78.854L234.969 25.6313Z"/>
<path d="M280.077 83.9199C287.36 83.9199 292.345 81.1733 295.03 75.6802C297.757 70.1463 299.12 64.0021 299.12 57.2476C299.12 51.144 298.143 46.1799 296.19 42.355C293.097 36.3328 287.767 33.3218 280.199 33.3218C273.485 33.3218 268.602 35.8853 265.55 41.0122C262.499 46.1392 260.973 52.3241 260.973 59.5669C260.973 66.5249 262.499 72.3232 265.55 76.9619C268.602 81.6006 273.444 83.9199 280.077 83.9199ZM280.504 23.7393C288.927 23.7393 296.048 26.5469 301.866 32.1621C307.685 37.7773 310.594 46.0374 310.594 56.9424C310.594 67.4811 308.031 76.1888 302.904 83.0654C297.777 89.9421 289.822 93.3804 279.039 93.3804C270.047 93.3804 262.905 90.349 257.616 84.2861C252.326 78.1826 249.681 70.0039 249.681 59.75C249.681 48.7637 252.468 40.0153 258.043 33.5049C263.618 26.9945 271.104 23.7393 280.504 23.7393Z"/>
<path d="M21.7051 116.339V171.759C21.7051 178.27 22.9258 183.681 25.3672 187.995C28.9886 194.505 35.0921 197.76 43.6777 197.76C53.9723 197.76 60.971 194.241 64.6738 187.201C66.6676 183.376 67.6646 178.229 67.6646 171.759V116.339H79.9937V166.693C79.9937 177.72 78.5085 186.204 75.5381 192.145C70.0856 202.969 59.791 208.38 44.6543 208.38C29.5176 208.38 19.2433 202.969 13.8315 192.145C10.8612 186.204 9.37598 177.72 9.37598 166.693V116.339H21.7051Z"/>
<path d="M94.8887 140.631H105.326V149.909C108.418 146.084 111.694 143.337 115.152 141.669C118.611 140.001 122.456 139.167 126.688 139.167C135.965 139.167 142.232 142.401 145.487 148.871C147.277 152.411 148.172 157.477 148.172 164.069V206H137.003V164.801C137.003 160.814 136.413 157.599 135.233 155.158C133.28 151.089 129.74 149.054 124.613 149.054C122.009 149.054 119.872 149.319 118.204 149.848C115.193 150.743 112.548 152.533 110.27 155.219C108.438 157.375 107.238 159.613 106.668 161.933C106.139 164.211 105.875 167.487 105.875 171.759V206H94.8887V140.631Z"/>
<path d="M161.969 140.937H173.138V206H161.969V140.937ZM161.969 116.339H173.138V128.791H161.969V116.339Z"/>
<path d="M192.672 140.631L210.128 193.854L228.377 140.631H240.401L215.743 206H204.024L179.916 140.631H192.672Z"/>
<path d="M274.522 139.167C279.161 139.167 283.657 140.265 288.011 142.462C292.365 144.619 295.681 147.427 297.96 150.885C300.157 154.181 301.622 158.026 302.354 162.421C303.006 165.432 303.331 170.233 303.331 176.825H255.418C255.622 183.458 257.188 188.788 260.118 192.816C263.048 196.804 267.585 198.798 273.729 198.798C279.466 198.798 284.044 196.906 287.462 193.122C289.415 190.924 290.799 188.381 291.612 185.492H302.416C302.131 187.893 301.174 190.578 299.547 193.549C297.96 196.479 296.17 198.879 294.176 200.751C290.839 204.006 286.709 206.203 281.786 207.343C279.141 207.994 276.15 208.319 272.813 208.319C264.675 208.319 257.778 205.369 252.123 199.469C246.467 193.528 243.639 185.228 243.639 174.567C243.639 164.069 246.487 155.544 252.184 148.993C257.88 142.442 265.326 139.167 274.522 139.167ZM292.04 168.097C291.592 163.336 290.554 159.532 288.927 156.684C285.916 151.394 280.89 148.749 273.851 148.749C268.806 148.749 264.574 150.58 261.156 154.242C257.738 157.864 255.927 162.482 255.724 168.097H292.04Z"/>
<path d="M314.686 140.631H325.123V151.923C325.978 149.726 328.073 147.06 331.41 143.927C334.746 140.753 338.591 139.167 342.945 139.167C343.149 139.167 343.495 139.187 343.983 139.228C344.471 139.268 345.305 139.35 346.485 139.472V151.068C345.834 150.946 345.224 150.865 344.654 150.824C344.125 150.784 343.535 150.763 342.884 150.763C337.35 150.763 333.098 152.554 330.128 156.134C327.158 159.674 325.672 163.764 325.672 168.402V206H314.686V140.631Z"/>
<path d="M360.038 185.492C360.363 189.154 361.279 191.962 362.784 193.915C365.551 197.455 370.353 199.225 377.188 199.225C381.257 199.225 384.838 198.35 387.931 196.601C391.023 194.81 392.569 192.064 392.569 188.361C392.569 185.553 391.328 183.417 388.846 181.952C387.259 181.057 384.126 180.019 379.447 178.839L370.719 176.642C365.144 175.259 361.035 173.712 358.39 172.003C353.67 169.033 351.31 164.923 351.31 159.674C351.31 153.489 353.527 148.485 357.962 144.66C362.438 140.835 368.44 138.922 375.968 138.922C385.815 138.922 392.915 141.811 397.269 147.589C399.995 151.251 401.318 155.198 401.236 159.43H390.86C390.657 156.948 389.782 154.69 388.236 152.655C385.713 149.766 381.339 148.322 375.113 148.322C370.963 148.322 367.809 149.115 365.653 150.702C363.537 152.289 362.479 154.385 362.479 156.989C362.479 159.837 363.883 162.116 366.69 163.825C368.318 164.842 370.719 165.737 373.893 166.51L381.156 168.28C389.05 170.193 394.339 172.044 397.025 173.834C401.297 176.642 403.434 181.057 403.434 187.079C403.434 192.898 401.216 197.923 396.781 202.155C392.386 206.387 385.672 208.502 376.639 208.502C366.914 208.502 360.017 206.305 355.948 201.911C351.92 197.475 349.763 192.003 349.479 185.492H360.038Z"/>
<path d="M413.507 140.937H424.676V206H413.507V140.937ZM413.507 116.339H424.676V128.791H413.507V116.339Z"/>
<path d="M441.036 122.382H452.145V140.631H462.582V149.604H452.145V192.267C452.145 194.546 452.918 196.072 454.464 196.845C455.318 197.292 456.743 197.516 458.736 197.516C459.265 197.516 459.835 197.516 460.445 197.516C461.056 197.475 461.768 197.414 462.582 197.333V206C461.32 206.366 459.998 206.631 458.614 206.793C457.271 206.956 455.807 207.038 454.22 207.038C449.093 207.038 445.614 205.736 443.783 203.131C441.952 200.486 441.036 197.069 441.036 192.877V149.604H432.186V140.631H441.036V122.382Z"/>
<path d="M511.961 140.631H524.107C522.561 144.822 519.123 154.385 513.792 169.318C509.805 180.548 506.468 189.704 503.783 196.784C497.435 213.467 492.959 223.639 490.355 227.301C487.751 230.963 483.275 232.794 476.927 232.794C475.381 232.794 474.181 232.733 473.326 232.611C472.512 232.489 471.495 232.265 470.274 231.94V221.93C472.187 222.459 473.57 222.785 474.425 222.907C475.279 223.029 476.032 223.09 476.683 223.09C478.718 223.09 480.203 222.744 481.139 222.052C482.115 221.401 482.929 220.587 483.58 219.611C483.784 219.285 484.516 217.617 485.777 214.606C487.039 211.595 487.954 209.357 488.524 207.892L464.354 140.631H476.805L494.322 193.854L511.961 140.631Z"/>
<path d="M8.82666 231.339H21.0947V268.388H67.7256V231.339H79.9937V321H67.7256V279.069H21.0947V321H8.82666V231.339Z"/>
<path d="M120.829 313.92C128.112 313.92 133.097 311.173 135.782 305.68C138.508 300.146 139.872 294.002 139.872 287.248C139.872 281.144 138.895 276.18 136.942 272.355C133.849 266.333 128.519 263.322 120.951 263.322C114.237 263.322 109.354 265.885 106.302 271.012C103.25 276.139 101.725 282.324 101.725 289.567C101.725 296.525 103.25 302.323 106.302 306.962C109.354 311.601 114.196 313.92 120.829 313.92ZM121.256 253.739C129.679 253.739 136.799 256.547 142.618 262.162C148.437 267.777 151.346 276.037 151.346 286.942C151.346 297.481 148.783 306.189 143.656 313.065C138.529 319.942 130.574 323.38 119.791 323.38C110.799 323.38 103.657 320.349 98.3677 314.286C93.078 308.183 90.4331 300.004 90.4331 289.75C90.4331 278.764 93.2204 270.015 98.7949 263.505C104.369 256.994 111.856 253.739 121.256 253.739Z"/>
<path d="M168.5 300.492C168.825 304.154 169.741 306.962 171.246 308.915C174.013 312.455 178.814 314.225 185.65 314.225C189.719 314.225 193.3 313.35 196.393 311.601C199.485 309.81 201.031 307.064 201.031 303.361C201.031 300.553 199.79 298.417 197.308 296.952C195.721 296.057 192.588 295.019 187.909 293.839L179.181 291.642C173.606 290.259 169.496 288.712 166.852 287.003C162.132 284.033 159.771 279.923 159.771 274.674C159.771 268.489 161.989 263.485 166.424 259.66C170.9 255.835 176.902 253.922 184.43 253.922C194.277 253.922 201.377 256.811 205.731 262.589C208.457 266.251 209.78 270.198 209.698 274.43H199.322C199.119 271.948 198.244 269.69 196.698 267.655C194.175 264.766 189.801 263.322 183.575 263.322C179.425 263.322 176.271 264.115 174.115 265.702C171.999 267.289 170.941 269.385 170.941 271.989C170.941 274.837 172.345 277.116 175.152 278.825C176.78 279.842 179.181 280.737 182.354 281.51L189.618 283.28C197.512 285.193 202.801 287.044 205.487 288.834C209.759 291.642 211.896 296.057 211.896 302.079C211.896 307.898 209.678 312.923 205.243 317.155C200.848 321.387 194.134 323.502 185.101 323.502C175.376 323.502 168.479 321.305 164.41 316.911C160.382 312.475 158.225 307.003 157.94 300.492H168.5Z"/>
<path d="M249.557 313.615C254.684 313.615 258.936 311.479 262.313 307.206C265.731 302.893 267.44 296.464 267.44 287.919C267.44 282.711 266.687 278.235 265.182 274.491C262.333 267.289 257.125 263.688 249.557 263.688C241.948 263.688 236.739 267.493 233.932 275.102C232.426 279.171 231.673 284.338 231.673 290.604C231.673 295.65 232.426 299.943 233.932 303.483C236.78 310.237 241.988 313.615 249.557 313.615ZM221.114 255.937H231.795V264.604C233.993 261.633 236.393 259.334 238.998 257.707C242.7 255.265 247.054 254.044 252.059 254.044C259.465 254.044 265.751 256.893 270.919 262.589C276.087 268.245 278.67 276.343 278.67 286.881C278.67 301.123 274.947 311.295 267.501 317.399C262.781 321.264 257.288 323.197 251.021 323.197C246.098 323.197 241.968 322.119 238.631 319.962C236.678 318.742 234.501 316.646 232.101 313.676V347.062H221.114V255.937Z"/>
<path d="M289.049 255.937H300.218V321H289.049V255.937ZM289.049 231.339H300.218V243.791H289.049V231.339Z"/>
<path d="M316.578 237.382H327.687V255.631H338.124V264.604H327.687V307.267C327.687 309.546 328.46 311.072 330.006 311.845C330.86 312.292 332.285 312.516 334.278 312.516C334.807 312.516 335.377 312.516 335.987 312.516C336.598 312.475 337.31 312.414 338.124 312.333V321C336.862 321.366 335.54 321.631 334.156 321.793C332.813 321.956 331.349 322.038 329.762 322.038C324.635 322.038 321.156 320.736 319.325 318.131C317.494 315.486 316.578 312.069 316.578 307.877V264.604H307.728V255.631H316.578V237.382Z"/>
<path d="M355.094 303.605C355.094 306.779 356.253 309.281 358.573 311.112C360.892 312.943 363.639 313.859 366.812 313.859C370.678 313.859 374.422 312.964 378.043 311.173C384.146 308.203 387.198 303.34 387.198 296.586V287.736C385.855 288.59 384.126 289.302 382.01 289.872C379.894 290.442 377.819 290.849 375.785 291.093L369.132 291.947C365.144 292.476 362.153 293.31 360.16 294.45C356.782 296.362 355.094 299.414 355.094 303.605ZM381.705 281.388C384.228 281.063 385.917 280.005 386.771 278.214C387.259 277.238 387.503 275.834 387.503 274.003C387.503 270.259 386.161 267.554 383.475 265.885C380.83 264.176 377.026 263.322 372.062 263.322C366.324 263.322 362.255 264.868 359.854 267.96C358.512 269.669 357.637 272.213 357.23 275.59H346.976C347.18 267.533 349.784 261.938 354.789 258.805C359.834 255.631 365.673 254.044 372.306 254.044C379.996 254.044 386.242 255.509 391.043 258.439C395.804 261.369 398.185 265.926 398.185 272.111V309.77C398.185 310.909 398.408 311.824 398.856 312.516C399.344 313.208 400.341 313.554 401.847 313.554C402.335 313.554 402.884 313.533 403.495 313.493C404.105 313.411 404.756 313.31 405.448 313.188V321.305C403.739 321.793 402.437 322.099 401.542 322.221C400.646 322.343 399.426 322.404 397.879 322.404C394.095 322.404 391.349 321.061 389.64 318.375C388.744 316.951 388.114 314.937 387.748 312.333C385.51 315.263 382.295 317.806 378.104 319.962C373.913 322.119 369.295 323.197 364.249 323.197C358.186 323.197 353.222 321.366 349.356 317.704C345.532 314.001 343.619 309.383 343.619 303.849C343.619 297.786 345.511 293.087 349.295 289.75C353.08 286.413 358.044 284.359 364.188 283.585L381.705 281.388Z"/>
<path d="M414.056 231.339H425.042V321H414.056V231.339Z"/>
</mask>
<path d="M73.7681 1.33936V12.0205H43.5557V91H31.2266V12.0205H1.01416V1.33936H73.7681Z" fill="#4085C2"/>
<path d="M92.9966 83.9199C100.28 83.9199 105.265 81.1733 107.95 75.6802C110.676 70.1463 112.04 64.0021 112.04 57.2476C112.04 51.144 111.063 46.1799 109.11 42.355C106.017 36.3328 100.687 33.3218 93.1187 33.3218C86.4048 33.3218 81.522 35.8853 78.4702 41.0122C75.4185 46.1392 73.8926 52.3241 73.8926 59.5669C73.8926 66.5249 75.4185 72.3232 78.4702 76.9619C81.522 81.6006 86.3641 83.9199 92.9966 83.9199ZM93.4238 23.7393C101.847 23.7393 108.967 26.5469 114.786 32.1621C120.605 37.7773 123.514 46.0374 123.514 56.9424C123.514 67.4811 120.951 76.1888 115.824 83.0654C110.697 89.9421 102.742 93.3804 91.959 93.3804C82.9665 93.3804 75.8254 90.349 70.5356 84.2861C65.2459 78.1826 62.6011 70.0039 62.6011 59.75C62.6011 48.7637 65.3883 40.0153 70.9629 33.5049C76.5374 26.9945 84.0244 23.7393 93.4238 23.7393Z" fill="#4085C2"/>
<path d="M133.893 1.33936H144.452V53.4023L172.65 25.6313H186.688L161.664 50.1064L188.092 91H174.054L153.668 58.041L144.452 66.4639V91H133.893V1.33936Z" fill="#4085C2"/>
<path d="M234.969 25.6313H247.115C245.569 29.8224 242.131 39.3846 236.8 54.3179C232.813 65.5483 229.476 74.7036 226.791 81.7837C220.443 98.4666 215.967 108.639 213.363 112.301C210.759 115.963 206.283 117.794 199.935 117.794C198.389 117.794 197.188 117.733 196.334 117.611C195.52 117.489 194.503 117.265 193.282 116.94V106.93C195.195 107.459 196.578 107.785 197.433 107.907C198.287 108.029 199.04 108.09 199.691 108.09C201.725 108.09 203.211 107.744 204.146 107.052C205.123 106.401 205.937 105.587 206.588 104.611C206.791 104.285 207.524 102.617 208.785 99.606C210.047 96.5949 210.962 94.3569 211.532 92.8921L187.362 25.6313H199.813L217.33 78.854L234.969 25.6313Z" fill="#4085C2"/>
<path d="M280.077 83.9199C287.36 83.9199 292.345 81.1733 295.03 75.6802C297.757 70.1463 299.12 64.0021 299.12 57.2476C299.12 51.144 298.143 46.1799 296.19 42.355C293.097 36.3328 287.767 33.3218 280.199 33.3218C273.485 33.3218 268.602 35.8853 265.55 41.0122C262.499 46.1392 260.973 52.3241 260.973 59.5669C260.973 66.5249 262.499 72.3232 265.55 76.9619C268.602 81.6006 273.444 83.9199 280.077 83.9199ZM280.504 23.7393C288.927 23.7393 296.048 26.5469 301.866 32.1621C307.685 37.7773 310.594 46.0374 310.594 56.9424C310.594 67.4811 308.031 76.1888 302.904 83.0654C297.777 89.9421 289.822 93.3804 279.039 93.3804C270.047 93.3804 262.905 90.349 257.616 84.2861C252.326 78.1826 249.681 70.0039 249.681 59.75C249.681 48.7637 252.468 40.0153 258.043 33.5049C263.618 26.9945 271.104 23.7393 280.504 23.7393Z" fill="#4085C2"/>
<path d="M21.7051 116.339V171.759C21.7051 178.27 22.9258 183.681 25.3672 187.995C28.9886 194.505 35.0921 197.76 43.6777 197.76C53.9723 197.76 60.971 194.241 64.6738 187.201C66.6676 183.376 67.6646 178.229 67.6646 171.759V116.339H79.9937V166.693C79.9937 177.72 78.5085 186.204 75.5381 192.145C70.0856 202.969 59.791 208.38 44.6543 208.38C29.5176 208.38 19.2433 202.969 13.8315 192.145C10.8612 186.204 9.37598 177.72 9.37598 166.693V116.339H21.7051Z" fill="#4085C2"/>
<path d="M94.8887 140.631H105.326V149.909C108.418 146.084 111.694 143.337 115.152 141.669C118.611 140.001 122.456 139.167 126.688 139.167C135.965 139.167 142.232 142.401 145.487 148.871C147.277 152.411 148.172 157.477 148.172 164.069V206H137.003V164.801C137.003 160.814 136.413 157.599 135.233 155.158C133.28 151.089 129.74 149.054 124.613 149.054C122.009 149.054 119.872 149.319 118.204 149.848C115.193 150.743 112.548 152.533 110.27 155.219C108.438 157.375 107.238 159.613 106.668 161.933C106.139 164.211 105.875 167.487 105.875 171.759V206H94.8887V140.631Z" fill="#4085C2"/>
<path d="M161.969 140.937H173.138V206H161.969V140.937ZM161.969 116.339H173.138V128.791H161.969V116.339Z" fill="#4085C2"/>
<path d="M192.672 140.631L210.128 193.854L228.377 140.631H240.401L215.743 206H204.024L179.916 140.631H192.672Z" fill="#4085C2"/>
<path d="M274.522 139.167C279.161 139.167 283.657 140.265 288.011 142.462C292.365 144.619 295.681 147.427 297.96 150.885C300.157 154.181 301.622 158.026 302.354 162.421C303.006 165.432 303.331 170.233 303.331 176.825H255.418C255.622 183.458 257.188 188.788 260.118 192.816C263.048 196.804 267.585 198.798 273.729 198.798C279.466 198.798 284.044 196.906 287.462 193.122C289.415 190.924 290.799 188.381 291.612 185.492H302.416C302.131 187.893 301.174 190.578 299.547 193.549C297.96 196.479 296.17 198.879 294.176 200.751C290.839 204.006 286.709 206.203 281.786 207.343C279.141 207.994 276.15 208.319 272.813 208.319C264.675 208.319 257.778 205.369 252.123 199.469C246.467 193.528 243.639 185.228 243.639 174.567C243.639 164.069 246.487 155.544 252.184 148.993C257.88 142.442 265.326 139.167 274.522 139.167ZM292.04 168.097C291.592 163.336 290.554 159.532 288.927 156.684C285.916 151.394 280.89 148.749 273.851 148.749C268.806 148.749 264.574 150.58 261.156 154.242C257.738 157.864 255.927 162.482 255.724 168.097H292.04Z" fill="#4085C2"/>
<path d="M314.686 140.631H325.123V151.923C325.978 149.726 328.073 147.06 331.41 143.927C334.746 140.753 338.591 139.167 342.945 139.167C343.149 139.167 343.495 139.187 343.983 139.228C344.471 139.268 345.305 139.35 346.485 139.472V151.068C345.834 150.946 345.224 150.865 344.654 150.824C344.125 150.784 343.535 150.763 342.884 150.763C337.35 150.763 333.098 152.554 330.128 156.134C327.158 159.674 325.672 163.764 325.672 168.402V206H314.686V140.631Z" fill="#4085C2"/>
<path d="M360.038 185.492C360.363 189.154 361.279 191.962 362.784 193.915C365.551 197.455 370.353 199.225 377.188 199.225C381.257 199.225 384.838 198.35 387.931 196.601C391.023 194.81 392.569 192.064 392.569 188.361C392.569 185.553 391.328 183.417 388.846 181.952C387.259 181.057 384.126 180.019 379.447 178.839L370.719 176.642C365.144 175.259 361.035 173.712 358.39 172.003C353.67 169.033 351.31 164.923 351.31 159.674C351.31 153.489 353.527 148.485 357.962 144.66C362.438 140.835 368.44 138.922 375.968 138.922C385.815 138.922 392.915 141.811 397.269 147.589C399.995 151.251 401.318 155.198 401.236 159.43H390.86C390.657 156.948 389.782 154.69 388.236 152.655C385.713 149.766 381.339 148.322 375.113 148.322C370.963 148.322 367.809 149.115 365.653 150.702C363.537 152.289 362.479 154.385 362.479 156.989C362.479 159.837 363.883 162.116 366.69 163.825C368.318 164.842 370.719 165.737 373.893 166.51L381.156 168.28C389.05 170.193 394.339 172.044 397.025 173.834C401.297 176.642 403.434 181.057 403.434 187.079C403.434 192.898 401.216 197.923 396.781 202.155C392.386 206.387 385.672 208.502 376.639 208.502C366.914 208.502 360.017 206.305 355.948 201.911C351.92 197.475 349.763 192.003 349.479 185.492H360.038Z" fill="#4085C2"/>
<path d="M413.507 140.937H424.676V206H413.507V140.937ZM413.507 116.339H424.676V128.791H413.507V116.339Z" fill="#4085C2"/>
<path d="M441.036 122.382H452.145V140.631H462.582V149.604H452.145V192.267C452.145 194.546 452.918 196.072 454.464 196.845C455.318 197.292 456.743 197.516 458.736 197.516C459.265 197.516 459.835 197.516 460.445 197.516C461.056 197.475 461.768 197.414 462.582 197.333V206C461.32 206.366 459.998 206.631 458.614 206.793C457.271 206.956 455.807 207.038 454.22 207.038C449.093 207.038 445.614 205.736 443.783 203.131C441.952 200.486 441.036 197.069 441.036 192.877V149.604H432.186V140.631H441.036V122.382Z" fill="#4085C2"/>
<path d="M511.961 140.631H524.107C522.561 144.822 519.123 154.385 513.792 169.318C509.805 180.548 506.468 189.704 503.783 196.784C497.435 213.467 492.959 223.639 490.355 227.301C487.751 230.963 483.275 232.794 476.927 232.794C475.381 232.794 474.181 232.733 473.326 232.611C472.512 232.489 471.495 232.265 470.274 231.94V221.93C472.187 222.459 473.57 222.785 474.425 222.907C475.279 223.029 476.032 223.09 476.683 223.09C478.718 223.09 480.203 222.744 481.139 222.052C482.115 221.401 482.929 220.587 483.58 219.611C483.784 219.285 484.516 217.617 485.777 214.606C487.039 211.595 487.954 209.357 488.524 207.892L464.354 140.631H476.805L494.322 193.854L511.961 140.631Z" fill="#4085C2"/>
<path d="M8.82666 231.339H21.0947V268.388H67.7256V231.339H79.9937V321H67.7256V279.069H21.0947V321H8.82666V231.339Z" fill="#4085C2"/>
<path d="M120.829 313.92C128.112 313.92 133.097 311.173 135.782 305.68C138.508 300.146 139.872 294.002 139.872 287.248C139.872 281.144 138.895 276.18 136.942 272.355C133.849 266.333 128.519 263.322 120.951 263.322C114.237 263.322 109.354 265.885 106.302 271.012C103.25 276.139 101.725 282.324 101.725 289.567C101.725 296.525 103.25 302.323 106.302 306.962C109.354 311.601 114.196 313.92 120.829 313.92ZM121.256 253.739C129.679 253.739 136.799 256.547 142.618 262.162C148.437 267.777 151.346 276.037 151.346 286.942C151.346 297.481 148.783 306.189 143.656 313.065C138.529 319.942 130.574 323.38 119.791 323.38C110.799 323.38 103.657 320.349 98.3677 314.286C93.078 308.183 90.4331 300.004 90.4331 289.75C90.4331 278.764 93.2204 270.015 98.7949 263.505C104.369 256.994 111.856 253.739 121.256 253.739Z" fill="#4085C2"/>
<path d="M168.5 300.492C168.825 304.154 169.741 306.962 171.246 308.915C174.013 312.455 178.814 314.225 185.65 314.225C189.719 314.225 193.3 313.35 196.393 311.601C199.485 309.81 201.031 307.064 201.031 303.361C201.031 300.553 199.79 298.417 197.308 296.952C195.721 296.057 192.588 295.019 187.909 293.839L179.181 291.642C173.606 290.259 169.496 288.712 166.852 287.003C162.132 284.033 159.771 279.923 159.771 274.674C159.771 268.489 161.989 263.485 166.424 259.66C170.9 255.835 176.902 253.922 184.43 253.922C194.277 253.922 201.377 256.811 205.731 262.589C208.457 266.251 209.78 270.198 209.698 274.43H199.322C199.119 271.948 198.244 269.69 196.698 267.655C194.175 264.766 189.801 263.322 183.575 263.322C179.425 263.322 176.271 264.115 174.115 265.702C171.999 267.289 170.941 269.385 170.941 271.989C170.941 274.837 172.345 277.116 175.152 278.825C176.78 279.842 179.181 280.737 182.354 281.51L189.618 283.28C197.512 285.193 202.801 287.044 205.487 288.834C209.759 291.642 211.896 296.057 211.896 302.079C211.896 307.898 209.678 312.923 205.243 317.155C200.848 321.387 194.134 323.502 185.101 323.502C175.376 323.502 168.479 321.305 164.41 316.911C160.382 312.475 158.225 307.003 157.94 300.492H168.5Z" fill="#4085C2"/>
<path d="M249.557 313.615C254.684 313.615 258.936 311.479 262.313 307.206C265.731 302.893 267.44 296.464 267.44 287.919C267.44 282.711 266.687 278.235 265.182 274.491C262.333 267.289 257.125 263.688 249.557 263.688C241.948 263.688 236.739 267.493 233.932 275.102C232.426 279.171 231.673 284.338 231.673 290.604C231.673 295.65 232.426 299.943 233.932 303.483C236.78 310.237 241.988 313.615 249.557 313.615ZM221.114 255.937H231.795V264.604C233.993 261.633 236.393 259.334 238.998 257.707C242.7 255.265 247.054 254.044 252.059 254.044C259.465 254.044 265.751 256.893 270.919 262.589C276.087 268.245 278.67 276.343 278.67 286.881C278.67 301.123 274.947 311.295 267.501 317.399C262.781 321.264 257.288 323.197 251.021 323.197C246.098 323.197 241.968 322.119 238.631 319.962C236.678 318.742 234.501 316.646 232.101 313.676V347.062H221.114V255.937Z" fill="#4085C2"/>
<path d="M289.049 255.937H300.218V321H289.049V255.937ZM289.049 231.339H300.218V243.791H289.049V231.339Z" fill="#4085C2"/>
<path d="M316.578 237.382H327.687V255.631H338.124V264.604H327.687V307.267C327.687 309.546 328.46 311.072 330.006 311.845C330.86 312.292 332.285 312.516 334.278 312.516C334.807 312.516 335.377 312.516 335.987 312.516C336.598 312.475 337.31 312.414 338.124 312.333V321C336.862 321.366 335.54 321.631 334.156 321.793C332.813 321.956 331.349 322.038 329.762 322.038C324.635 322.038 321.156 320.736 319.325 318.131C317.494 315.486 316.578 312.069 316.578 307.877V264.604H307.728V255.631H316.578V237.382Z" fill="#4085C2"/>
<path d="M355.094 303.605C355.094 306.779 356.253 309.281 358.573 311.112C360.892 312.943 363.639 313.859 366.812 313.859C370.678 313.859 374.422 312.964 378.043 311.173C384.146 308.203 387.198 303.34 387.198 296.586V287.736C385.855 288.59 384.126 289.302 382.01 289.872C379.894 290.442 377.819 290.849 375.785 291.093L369.132 291.947C365.144 292.476 362.153 293.31 360.16 294.45C356.782 296.362 355.094 299.414 355.094 303.605ZM381.705 281.388C384.228 281.063 385.917 280.005 386.771 278.214C387.259 277.238 387.503 275.834 387.503 274.003C387.503 270.259 386.161 267.554 383.475 265.885C380.83 264.176 377.026 263.322 372.062 263.322C366.324 263.322 362.255 264.868 359.854 267.96C358.512 269.669 357.637 272.213 357.23 275.59H346.976C347.18 267.533 349.784 261.938 354.789 258.805C359.834 255.631 365.673 254.044 372.306 254.044C379.996 254.044 386.242 255.509 391.043 258.439C395.804 261.369 398.185 265.926 398.185 272.111V309.77C398.185 310.909 398.408 311.824 398.856 312.516C399.344 313.208 400.341 313.554 401.847 313.554C402.335 313.554 402.884 313.533 403.495 313.493C404.105 313.411 404.756 313.31 405.448 313.188V321.305C403.739 321.793 402.437 322.099 401.542 322.221C400.646 322.343 399.426 322.404 397.879 322.404C394.095 322.404 391.349 321.061 389.64 318.375C388.744 316.951 388.114 314.937 387.748 312.333C385.51 315.263 382.295 317.806 378.104 319.962C373.913 322.119 369.295 323.197 364.249 323.197C358.186 323.197 353.222 321.366 349.356 317.704C345.532 314.001 343.619 309.383 343.619 303.849C343.619 297.786 345.511 293.087 349.295 289.75C353.08 286.413 358.044 284.359 364.188 283.585L381.705 281.388Z" fill="#4085C2"/>
<path d="M414.056 231.339H425.042V321H414.056V231.339Z" fill="#4085C2"/>
<path d="M73.7681 1.33936V12.0205H43.5557V91H31.2266V12.0205H1.01416V1.33936H73.7681Z" stroke="white" stroke-width="2" mask="url(#path-1-outside-1_1_11)"/>
<path d="M92.9966 83.9199C100.28 83.9199 105.265 81.1733 107.95 75.6802C110.676 70.1463 112.04 64.0021 112.04 57.2476C112.04 51.144 111.063 46.1799 109.11 42.355C106.017 36.3328 100.687 33.3218 93.1187 33.3218C86.4048 33.3218 81.522 35.8853 78.4702 41.0122C75.4185 46.1392 73.8926 52.3241 73.8926 59.5669C73.8926 66.5249 75.4185 72.3232 78.4702 76.9619C81.522 81.6006 86.3641 83.9199 92.9966 83.9199ZM93.4238 23.7393C101.847 23.7393 108.967 26.5469 114.786 32.1621C120.605 37.7773 123.514 46.0374 123.514 56.9424C123.514 67.4811 120.951 76.1888 115.824 83.0654C110.697 89.9421 102.742 93.3804 91.959 93.3804C82.9665 93.3804 75.8254 90.349 70.5356 84.2861C65.2459 78.1826 62.6011 70.0039 62.6011 59.75C62.6011 48.7637 65.3883 40.0153 70.9629 33.5049C76.5374 26.9945 84.0244 23.7393 93.4238 23.7393Z" stroke="white" stroke-width="2" mask="url(#path-1-outside-1_1_11)"/>
<path d="M133.893 1.33936H144.452V53.4023L172.65 25.6313H186.688L161.664 50.1064L188.092 91H174.054L153.668 58.041L144.452 66.4639V91H133.893V1.33936Z" stroke="white" stroke-width="2" mask="url(#path-1-outside-1_1_11)"/>
<path d="M234.969 25.6313H247.115C245.569 29.8224 242.131 39.3846 236.8 54.3179C232.813 65.5483 229.476 74.7036 226.791 81.7837C220.443 98.4666 215.967 108.639 213.363 112.301C210.759 115.963 206.283 117.794 199.935 117.794C198.389 117.794 197.188 117.733 196.334 117.611C195.52 117.489 194.503 117.265 193.282 116.94V106.93C195.195 107.459 196.578 107.785 197.433 107.907C198.287 108.029 199.04 108.09 199.691 108.09C201.725 108.09 203.211 107.744 204.146 107.052C205.123 106.401 205.937 105.587 206.588 104.611C206.791 104.285 207.524 102.617 208.785 99.606C210.047 96.5949 210.962 94.3569 211.532 92.8921L187.362 25.6313H199.813L217.33 78.854L234.969 25.6313Z" stroke="white" stroke-width="2" mask="url(#path-1-outside-1_1_11)"/>
<path d="M280.077 83.9199C287.36 83.9199 292.345 81.1733 295.03 75.6802C297.757 70.1463 299.12 64.0021 299.12 57.2476C299.12 51.144 298.143 46.1799 296.19 42.355C293.097 36.3328 287.767 33.3218 280.199 33.3218C273.485 33.3218 268.602 35.8853 265.55 41.0122C262.499 46.1392 260.973 52.3241 260.973 59.5669C260.973 66.5249 262.499 72.3232 265.55 76.9619C268.602 81.6006 273.444 83.9199 280.077 83.9199ZM280.504 23.7393C288.927 23.7393 296.048 26.5469 301.866 32.1621C307.685 37.7773 310.594 46.0374 310.594 56.9424C310.594 67.4811 308.031 76.1888 302.904 83.0654C297.777 89.9421 289.822 93.3804 279.039 93.3804C270.047 93.3804 262.905 90.349 257.616 84.2861C252.326 78.1826 249.681 70.0039 249.681 59.75C249.681 48.7637 252.468 40.0153 258.043 33.5049C263.618 26.9945 271.104 23.7393 280.504 23.7393Z" stroke="white" stroke-width="2" mask="url(#path-1-outside-1_1_11)"/>
<path d="M21.7051 116.339V171.759C21.7051 178.27 22.9258 183.681 25.3672 187.995C28.9886 194.505 35.0921 197.76 43.6777 197.76C53.9723 197.76 60.971 194.241 64.6738 187.201C66.6676 183.376 67.6646 178.229 67.6646 171.759V116.339H79.9937V166.693C79.9937 177.72 78.5085 186.204 75.5381 192.145C70.0856 202.969 59.791 208.38 44.6543 208.38C29.5176 208.38 19.2433 202.969 13.8315 192.145C10.8612 186.204 9.37598 177.72 9.37598 166.693V116.339H21.7051Z" stroke="white" stroke-width="2" mask="url(#path-1-outside-1_1_11)"/>
<path d="M94.8887 140.631H105.326V149.909C108.418 146.084 111.694 143.337 115.152 141.669C118.611 140.001 122.456 139.167 126.688 139.167C135.965 139.167 142.232 142.401 145.487 148.871C147.277 152.411 148.172 157.477 148.172 164.069V206H137.003V164.801C137.003 160.814 136.413 157.599 135.233 155.158C133.28 151.089 129.74 149.054 124.613 149.054C122.009 149.054 119.872 149.319 118.204 149.848C115.193 150.743 112.548 152.533 110.27 155.219C108.438 157.375 107.238 159.613 106.668 161.933C106.139 164.211 105.875 167.487 105.875 171.759V206H94.8887V140.631Z" stroke="white" stroke-width="2" mask="url(#path-1-outside-1_1_11)"/>
<path d="M161.969 140.937H173.138V206H161.969V140.937ZM161.969 116.339H173.138V128.791H161.969V116.339Z" stroke="white" stroke-width="2" mask="url(#path-1-outside-1_1_11)"/>
<path d="M192.672 140.631L210.128 193.854L228.377 140.631H240.401L215.743 206H204.024L179.916 140.631H192.672Z" stroke="white" stroke-width="2" mask="url(#path-1-outside-1_1_11)"/>
<path d="M274.522 139.167C279.161 139.167 283.657 140.265 288.011 142.462C292.365 144.619 295.681 147.427 297.96 150.885C300.157 154.181 301.622 158.026 302.354 162.421C303.006 165.432 303.331 170.233 303.331 176.825H255.418C255.622 183.458 257.188 188.788 260.118 192.816C263.048 196.804 267.585 198.798 273.729 198.798C279.466 198.798 284.044 196.906 287.462 193.122C289.415 190.924 290.799 188.381 291.612 185.492H302.416C302.131 187.893 301.174 190.578 299.547 193.549C297.96 196.479 296.17 198.879 294.176 200.751C290.839 204.006 286.709 206.203 281.786 207.343C279.141 207.994 276.15 208.319 272.813 208.319C264.675 208.319 257.778 205.369 252.123 199.469C246.467 193.528 243.639 185.228 243.639 174.567C243.639 164.069 246.487 155.544 252.184 148.993C257.88 142.442 265.326 139.167 274.522 139.167ZM292.04 168.097C291.592 163.336 290.554 159.532 288.927 156.684C285.916 151.394 280.89 148.749 273.851 148.749C268.806 148.749 264.574 150.58 261.156 154.242C257.738 157.864 255.927 162.482 255.724 168.097H292.04Z" stroke="white" stroke-width="2" mask="url(#path-1-outside-1_1_11)"/>
<path d="M314.686 140.631H325.123V151.923C325.978 149.726 328.073 147.06 331.41 143.927C334.746 140.753 338.591 139.167 342.945 139.167C343.149 139.167 343.495 139.187 343.983 139.228C344.471 139.268 345.305 139.35 346.485 139.472V151.068C345.834 150.946 345.224 150.865 344.654 150.824C344.125 150.784 343.535 150.763 342.884 150.763C337.35 150.763 333.098 152.554 330.128 156.134C327.158 159.674 325.672 163.764 325.672 168.402V206H314.686V140.631Z" stroke="white" stroke-width="2" mask="url(#path-1-outside-1_1_11)"/>
<path d="M360.038 185.492C360.363 189.154 361.279 191.962 362.784 193.915C365.551 197.455 370.353 199.225 377.188 199.225C381.257 199.225 384.838 198.35 387.931 196.601C391.023 194.81 392.569 192.064 392.569 188.361C392.569 185.553 391.328 183.417 388.846 181.952C387.259 181.057 384.126 180.019 379.447 178.839L370.719 176.642C365.144 175.259 361.035 173.712 358.39 172.003C353.67 169.033 351.31 164.923 351.31 159.674C351.31 153.489 353.527 148.485 357.962 144.66C362.438 140.835 368.44 138.922 375.968 138.922C385.815 138.922 392.915 141.811 397.269 147.589C399.995 151.251 401.318 155.198 401.236 159.43H390.86C390.657 156.948 389.782 154.69 388.236 152.655C385.713 149.766 381.339 148.322 375.113 148.322C370.963 148.322 367.809 149.115 365.653 150.702C363.537 152.289 362.479 154.385 362.479 156.989C362.479 159.837 363.883 162.116 366.69 163.825C368.318 164.842 370.719 165.737 373.893 166.51L381.156 168.28C389.05 170.193 394.339 172.044 397.025 173.834C401.297 176.642 403.434 181.057 403.434 187.079C403.434 192.898 401.216 197.923 396.781 202.155C392.386 206.387 385.672 208.502 376.639 208.502C366.914 208.502 360.017 206.305 355.948 201.911C351.92 197.475 349.763 192.003 349.479 185.492H360.038Z" stroke="white" stroke-width="2" mask="url(#path-1-outside-1_1_11)"/>
<path d="M413.507 140.937H424.676V206H413.507V140.937ZM413.507 116.339H424.676V128.791H413.507V116.339Z" stroke="white" stroke-width="2" mask="url(#path-1-outside-1_1_11)"/>
<path d="M441.036 122.382H452.145V140.631H462.582V149.604H452.145V192.267C452.145 194.546 452.918 196.072 454.464 196.845C455.318 197.292 456.743 197.516 458.736 197.516C459.265 197.516 459.835 197.516 460.445 197.516C461.056 197.475 461.768 197.414 462.582 197.333V206C461.32 206.366 459.998 206.631 458.614 206.793C457.271 206.956 455.807 207.038 454.22 207.038C449.093 207.038 445.614 205.736 443.783 203.131C441.952 200.486 441.036 197.069 441.036 192.877V149.604H432.186V140.631H441.036V122.382Z" stroke="white" stroke-width="2" mask="url(#path-1-outside-1_1_11)"/>
<path d="M511.961 140.631H524.107C522.561 144.822 519.123 154.385 513.792 169.318C509.805 180.548 506.468 189.704 503.783 196.784C497.435 213.467 492.959 223.639 490.355 227.301C487.751 230.963 483.275 232.794 476.927 232.794C475.381 232.794 474.181 232.733 473.326 232.611C472.512 232.489 471.495 232.265 470.274 231.94V221.93C472.187 222.459 473.57 222.785 474.425 222.907C475.279 223.029 476.032 223.09 476.683 223.09C478.718 223.09 480.203 222.744 481.139 222.052C482.115 221.401 482.929 220.587 483.58 219.611C483.784 219.285 484.516 217.617 485.777 214.606C487.039 211.595 487.954 209.357 488.524 207.892L464.354 140.631H476.805L494.322 193.854L511.961 140.631Z" stroke="white" stroke-width="2" mask="url(#path-1-outside-1_1_11)"/>
<path d="M8.82666 231.339H21.0947V268.388H67.7256V231.339H79.9937V321H67.7256V279.069H21.0947V321H8.82666V231.339Z" stroke="white" stroke-width="2" mask="url(#path-1-outside-1_1_11)"/>
<path d="M120.829 313.92C128.112 313.92 133.097 311.173 135.782 305.68C138.508 300.146 139.872 294.002 139.872 287.248C139.872 281.144 138.895 276.18 136.942 272.355C133.849 266.333 128.519 263.322 120.951 263.322C114.237 263.322 109.354 265.885 106.302 271.012C103.25 276.139 101.725 282.324 101.725 289.567C101.725 296.525 103.25 302.323 106.302 306.962C109.354 311.601 114.196 313.92 120.829 313.92ZM121.256 253.739C129.679 253.739 136.799 256.547 142.618 262.162C148.437 267.777 151.346 276.037 151.346 286.942C151.346 297.481 148.783 306.189 143.656 313.065C138.529 319.942 130.574 323.38 119.791 323.38C110.799 323.38 103.657 320.349 98.3677 314.286C93.078 308.183 90.4331 300.004 90.4331 289.75C90.4331 278.764 93.2204 270.015 98.7949 263.505C104.369 256.994 111.856 253.739 121.256 253.739Z" stroke="white" stroke-width="2" mask="url(#path-1-outside-1_1_11)"/>
<path d="M168.5 300.492C168.825 304.154 169.741 306.962 171.246 308.915C174.013 312.455 178.814 314.225 185.65 314.225C189.719 314.225 193.3 313.35 196.393 311.601C199.485 309.81 201.031 307.064 201.031 303.361C201.031 300.553 199.79 298.417 197.308 296.952C195.721 296.057 192.588 295.019 187.909 293.839L179.181 291.642C173.606 290.259 169.496 288.712 166.852 287.003C162.132 284.033 159.771 279.923 159.771 274.674C159.771 268.489 161.989 263.485 166.424 259.66C170.9 255.835 176.902 253.922 184.43 253.922C194.277 253.922 201.377 256.811 205.731 262.589C208.457 266.251 209.78 270.198 209.698 274.43H199.322C199.119 271.948 198.244 269.69 196.698 267.655C194.175 264.766 189.801 263.322 183.575 263.322C179.425 263.322 176.271 264.115 174.115 265.702C171.999 267.289 170.941 269.385 170.941 271.989C170.941 274.837 172.345 277.116 175.152 278.825C176.78 279.842 179.181 280.737 182.354 281.51L189.618 283.28C197.512 285.193 202.801 287.044 205.487 288.834C209.759 291.642 211.896 296.057 211.896 302.079C211.896 307.898 209.678 312.923 205.243 317.155C200.848 321.387 194.134 323.502 185.101 323.502C175.376 323.502 168.479 321.305 164.41 316.911C160.382 312.475 158.225 307.003 157.94 300.492H168.5Z" stroke="white" stroke-width="2" mask="url(#path-1-outside-1_1_11)"/>
<path d="M249.557 313.615C254.684 313.615 258.936 311.479 262.313 307.206C265.731 302.893 267.44 296.464 267.44 287.919C267.44 282.711 266.687 278.235 265.182 274.491C262.333 267.289 257.125 263.688 249.557 263.688C241.948 263.688 236.739 267.493 233.932 275.102C232.426 279.171 231.673 284.338 231.673 290.604C231.673 295.65 232.426 299.943 233.932 303.483C236.78 310.237 241.988 313.615 249.557 313.615ZM221.114 255.937H231.795V264.604C233.993 261.633 236.393 259.334 238.998 257.707C242.7 255.265 247.054 254.044 252.059 254.044C259.465 254.044 265.751 256.893 270.919 262.589C276.087 268.245 278.67 276.343 278.67 286.881C278.67 301.123 274.947 311.295 267.501 317.399C262.781 321.264 257.288 323.197 251.021 323.197C246.098 323.197 241.968 322.119 238.631 319.962C236.678 318.742 234.501 316.646 232.101 313.676V347.062H221.114V255.937Z" stroke="white" stroke-width="2" mask="url(#path-1-outside-1_1_11)"/>
<path d="M289.049 255.937H300.218V321H289.049V255.937ZM289.049 231.339H300.218V243.791H289.049V231.339Z" stroke="white" stroke-width="2" mask="url(#path-1-outside-1_1_11)"/>
<path d="M316.578 237.382H327.687V255.631H338.124V264.604H327.687V307.267C327.687 309.546 328.46 311.072 330.006 311.845C330.86 312.292 332.285 312.516 334.278 312.516C334.807 312.516 335.377 312.516 335.987 312.516C336.598 312.475 337.31 312.414 338.124 312.333V321C336.862 321.366 335.54 321.631 334.156 321.793C332.813 321.956 331.349 322.038 329.762 322.038C324.635 322.038 321.156 320.736 319.325 318.131C317.494 315.486 316.578 312.069 316.578 307.877V264.604H307.728V255.631H316.578V237.382Z" stroke="white" stroke-width="2" mask="url(#path-1-outside-1_1_11)"/>
<path d="M355.094 303.605C355.094 306.779 356.253 309.281 358.573 311.112C360.892 312.943 363.639 313.859 366.812 313.859C370.678 313.859 374.422 312.964 378.043 311.173C384.146 308.203 387.198 303.34 387.198 296.586V287.736C385.855 288.59 384.126 289.302 382.01 289.872C379.894 290.442 377.819 290.849 375.785 291.093L369.132 291.947C365.144 292.476 362.153 293.31 360.16 294.45C356.782 296.362 355.094 299.414 355.094 303.605ZM381.705 281.388C384.228 281.063 385.917 280.005 386.771 278.214C387.259 277.238 387.503 275.834 387.503 274.003C387.503 270.259 386.161 267.554 383.475 265.885C380.83 264.176 377.026 263.322 372.062 263.322C366.324 263.322 362.255 264.868 359.854 267.96C358.512 269.669 357.637 272.213 357.23 275.59H346.976C347.18 267.533 349.784 261.938 354.789 258.805C359.834 255.631 365.673 254.044 372.306 254.044C379.996 254.044 386.242 255.509 391.043 258.439C395.804 261.369 398.185 265.926 398.185 272.111V309.77C398.185 310.909 398.408 311.824 398.856 312.516C399.344 313.208 400.341 313.554 401.847 313.554C402.335 313.554 402.884 313.533 403.495 313.493C404.105 313.411 404.756 313.31 405.448 313.188V321.305C403.739 321.793 402.437 322.099 401.542 322.221C400.646 322.343 399.426 322.404 397.879 322.404C394.095 322.404 391.349 321.061 389.64 318.375C388.744 316.951 388.114 314.937 387.748 312.333C385.51 315.263 382.295 317.806 378.104 319.962C373.913 322.119 369.295 323.197 364.249 323.197C358.186 323.197 353.222 321.366 349.356 317.704C345.532 314.001 343.619 309.383 343.619 303.849C343.619 297.786 345.511 293.087 349.295 289.75C353.08 286.413 358.044 284.359 364.188 283.585L381.705 281.388Z" stroke="white" stroke-width="2" mask="url(#path-1-outside-1_1_11)"/>
<path d="M414.056 231.339H425.042V321H414.056V231.339Z" stroke="white" stroke-width="2" mask="url(#path-1-outside-1_1_11)"/>
<mask id="mask0_1_11" style="mask-type:alpha" maskUnits="userSpaceOnUse" x="1" y="1" width="524" height="347">
<path d="M73.7681 1.33936V12.0205H43.5557V91H31.2266V12.0205H1.01416V1.33936H73.7681Z" fill="#4085C2"/>
<path d="M92.9966 83.9199C100.28 83.9199 105.265 81.1733 107.95 75.6802C110.676 70.1463 112.04 64.0021 112.04 57.2476C112.04 51.144 111.063 46.1799 109.11 42.355C106.017 36.3328 100.687 33.3218 93.1187 33.3218C86.4048 33.3218 81.522 35.8853 78.4702 41.0122C75.4185 46.1392 73.8926 52.3241 73.8926 59.5669C73.8926 66.5249 75.4185 72.3232 78.4702 76.9619C81.522 81.6006 86.3641 83.9199 92.9966 83.9199ZM93.4238 23.7393C101.847 23.7393 108.967 26.5469 114.786 32.1621C120.605 37.7773 123.514 46.0374 123.514 56.9424C123.514 67.4811 120.951 76.1888 115.824 83.0654C110.697 89.9421 102.742 93.3804 91.959 93.3804C82.9665 93.3804 75.8254 90.349 70.5356 84.2861C65.2459 78.1826 62.6011 70.0039 62.6011 59.75C62.6011 48.7637 65.3883 40.0153 70.9629 33.5049C76.5374 26.9945 84.0244 23.7393 93.4238 23.7393Z" fill="#4085C2"/>
<path d="M133.893 1.33936H144.452V53.4023L172.65 25.6313H186.688L161.664 50.1064L188.092 91H174.054L153.668 58.041L144.452 66.4639V91H133.893V1.33936Z" fill="#4085C2"/>
<path d="M234.969 25.6313H247.115C245.569 29.8224 242.131 39.3846 236.8 54.3179C232.813 65.5483 229.476 74.7036 226.791 81.7837C220.443 98.4666 215.967 108.639 213.363 112.301C210.759 115.963 206.283 117.794 199.935 117.794C198.389 117.794 197.188 117.733 196.334 117.611C195.52 117.489 194.503 117.265 193.282 116.94V106.93C195.195 107.459 196.578 107.785 197.433 107.907C198.287 108.029 199.04 108.09 199.691 108.09C201.725 108.09 203.211 107.744 204.146 107.052C205.123 106.401 205.937 105.587 206.588 104.611C206.791 104.285 207.524 102.617 208.785 99.606C210.047 96.5949 210.962 94.3569 211.532 92.8921L187.362 25.6313H199.813L217.33 78.854L234.969 25.6313Z" fill="#4085C2"/>
<path d="M280.077 83.9199C287.36 83.9199 292.345 81.1733 295.03 75.6802C297.757 70.1463 299.12 64.0021 299.12 57.2476C299.12 51.144 298.143 46.1799 296.19 42.355C293.097 36.3328 287.767 33.3218 280.199 33.3218C273.485 33.3218 268.602 35.8853 265.55 41.0122C262.499 46.1392 260.973 52.3241 260.973 59.5669C260.973 66.5249 262.499 72.3232 265.55 76.9619C268.602 81.6006 273.444 83.9199 280.077 83.9199ZM280.504 23.7393C288.927 23.7393 296.048 26.5469 301.866 32.1621C307.685 37.7773 310.594 46.0374 310.594 56.9424C310.594 67.4811 308.031 76.1888 302.904 83.0654C297.777 89.9421 289.822 93.3804 279.039 93.3804C270.047 93.3804 262.905 90.349 257.616 84.2861C252.326 78.1826 249.681 70.0039 249.681 59.75C249.681 48.7637 252.468 40.0153 258.043 33.5049C263.618 26.9945 271.104 23.7393 280.504 23.7393Z" fill="#4085C2"/>
<path d="M21.7051 116.339V171.759C21.7051 178.27 22.9258 183.681 25.3672 187.995C28.9886 194.505 35.0921 197.76 43.6777 197.76C53.9723 197.76 60.971 194.241 64.6738 187.201C66.6676 183.376 67.6646 178.229 67.6646 171.759V116.339H79.9937V166.693C79.9937 177.72 78.5085 186.204 75.5381 192.145C70.0856 202.969 59.791 208.38 44.6543 208.38C29.5176 208.38 19.2433 202.969 13.8315 192.145C10.8612 186.204 9.37598 177.72 9.37598 166.693V116.339H21.7051Z" fill="#4085C2"/>
<path d="M94.8887 140.631H105.326V149.909C108.418 146.084 111.694 143.337 115.152 141.669C118.611 140.001 122.456 139.167 126.688 139.167C135.965 139.167 142.232 142.401 145.487 148.871C147.277 152.411 148.172 157.477 148.172 164.069V206H137.003V164.801C137.003 160.814 136.413 157.599 135.233 155.158C133.28 151.089 129.74 149.054 124.613 149.054C122.009 149.054 119.872 149.319 118.204 149.848C115.193 150.743 112.548 152.533 110.27 155.219C108.438 157.375 107.238 159.613 106.668 161.933C106.139 164.211 105.875 167.487 105.875 171.759V206H94.8887V140.631Z" fill="#4085C2"/>
<path d="M161.969 140.937H173.138V206H161.969V140.937ZM161.969 116.339H173.138V128.791H161.969V116.339Z" fill="#4085C2"/>
<path d="M192.672 140.631L210.128 193.854L228.377 140.631H240.401L215.743 206H204.024L179.916 140.631H192.672Z" fill="#4085C2"/>
<path d="M274.522 139.167C279.161 139.167 283.657 140.265 288.011 142.462C292.365 144.619 295.681 147.427 297.96 150.885C300.157 154.181 301.622 158.026 302.354 162.421C303.006 165.432 303.331 170.233 303.331 176.825H255.418C255.622 183.458 257.188 188.788 260.118 192.816C263.048 196.804 267.585 198.798 273.729 198.798C279.466 198.798 284.044 196.906 287.462 193.122C289.415 190.924 290.799 188.381 291.612 185.492H302.416C302.131 187.893 301.174 190.578 299.547 193.549C297.96 196.479 296.17 198.879 294.176 200.751C290.839 204.006 286.709 206.203 281.786 207.343C279.141 207.994 276.15 208.319 272.813 208.319C264.675 208.319 257.778 205.369 252.123 199.469C246.467 193.528 243.639 185.228 243.639 174.567C243.639 164.069 246.487 155.544 252.184 148.993C257.88 142.442 265.326 139.167 274.522 139.167ZM292.04 168.097C291.592 163.336 290.554 159.532 288.927 156.684C285.916 151.394 280.89 148.749 273.851 148.749C268.806 148.749 264.574 150.58 261.156 154.242C257.738 157.864 255.927 162.482 255.724 168.097H292.04Z" fill="#4085C2"/>
<path d="M314.686 140.631H325.123V151.923C325.978 149.726 328.073 147.06 331.41 143.927C334.746 140.753 338.591 139.167 342.945 139.167C343.149 139.167 343.495 139.187 343.983 139.228C344.471 139.268 345.305 139.35 346.485 139.472V151.068C345.834 150.946 345.224 150.865 344.654 150.824C344.125 150.784 343.535 150.763 342.884 150.763C337.35 150.763 333.098 152.554 330.128 156.134C327.158 159.674 325.672 163.764 325.672 168.402V206H314.686V140.631Z" fill="#4085C2"/>
<path d="M360.038 185.492C360.363 189.154 361.279 191.962 362.784 193.915C365.551 197.455 370.353 199.225 377.188 199.225C381.257 199.225 384.838 198.35 387.931 196.601C391.023 194.81 392.569 192.064 392.569 188.361C392.569 185.553 391.328 183.417 388.846 181.952C387.259 181.057 384.126 180.019 379.447 178.839L370.719 176.642C365.144 175.259 361.035 173.712 358.39 172.003C353.67 169.033 351.31 164.923 351.31 159.674C351.31 153.489 353.527 148.485 357.962 144.66C362.438 140.835 368.44 138.922 375.968 138.922C385.815 138.922 392.915 141.811 397.269 147.589C399.995 151.251 401.318 155.198 401.236 159.43H390.86C390.657 156.948 389.782 154.69 388.236 152.655C385.713 149.766 381.339 148.322 375.113 148.322C370.963 148.322 367.809 149.115 365.653 150.702C363.537 152.289 362.479 154.385 362.479 156.989C362.479 159.837 363.883 162.116 366.69 163.825C368.318 164.842 370.719 165.737 373.893 166.51L381.156 168.28C389.05 170.193 394.339 172.044 397.025 173.834C401.297 176.642 403.434 181.057 403.434 187.079C403.434 192.898 401.216 197.923 396.781 202.155C392.386 206.387 385.672 208.502 376.639 208.502C366.914 208.502 360.017 206.305 355.948 201.911C351.92 197.475 349.763 192.003 349.479 185.492H360.038Z" fill="#4085C2"/>
<path d="M413.507 140.937H424.676V206H413.507V140.937ZM413.507 116.339H424.676V128.791H413.507V116.339Z" fill="#4085C2"/>
<path d="M441.036 122.382H452.145V140.631H462.582V149.604H452.145V192.267C452.145 194.546 452.918 196.072 454.464 196.845C455.318 197.292 456.743 197.516 458.736 197.516C459.265 197.516 459.835 197.516 460.445 197.516C461.056 197.475 461.768 197.414 462.582 197.333V206C461.32 206.366 459.998 206.631 458.614 206.793C457.271 206.956 455.807 207.038 454.22 207.038C449.093 207.038 445.614 205.736 443.783 203.131C441.952 200.486 441.036 197.069 441.036 192.877V149.604H432.186V140.631H441.036V122.382Z" fill="#4085C2"/>
<path d="M511.961 140.631H524.107C522.561 144.822 519.123 154.385 513.792 169.318C509.805 180.548 506.468 189.704 503.783 196.784C497.435 213.467 492.959 223.639 490.355 227.301C487.751 230.963 483.275 232.794 476.927 232.794C475.381 232.794 474.181 232.733 473.326 232.611C472.512 232.489 471.495 232.265 470.274 231.94V221.93C472.187 222.459 473.57 222.785 474.425 222.907C475.279 223.029 476.032 223.09 476.683 223.09C478.718 223.09 480.203 222.744 481.139 222.052C482.115 221.401 482.929 220.587 483.58 219.611C483.784 219.285 484.516 217.617 485.777 214.606C487.039 211.595 487.954 209.357 488.524 207.892L464.354 140.631H476.805L494.322 193.854L511.961 140.631Z" fill="#4085C2"/>
<path d="M8.82666 231.339H21.0947V268.388H67.7256V231.339H79.9937V321H67.7256V279.069H21.0947V321H8.82666V231.339Z" fill="#4085C2"/>
<path d="M120.829 313.92C128.112 313.92 133.097 311.173 135.782 305.68C138.508 300.146 139.872 294.002 139.872 287.248C139.872 281.144 138.895 276.18 136.942 272.355C133.849 266.333 128.519 263.322 120.951 263.322C114.237 263.322 109.354 265.885 106.302 271.012C103.25 276.139 101.725 282.324 101.725 289.567C101.725 296.525 103.25 302.323 106.302 306.962C109.354 311.601 114.196 313.92 120.829 313.92ZM121.256 253.739C129.679 253.739 136.799 256.547 142.618 262.162C148.437 267.777 151.346 276.037 151.346 286.942C151.346 297.481 148.783 306.189 143.656 313.065C138.529 319.942 130.574 323.38 119.791 323.38C110.799 323.38 103.657 320.349 98.3677 314.286C93.078 308.183 90.4331 300.004 90.4331 289.75C90.4331 278.764 93.2204 270.015 98.7949 263.505C104.369 256.994 111.856 253.739 121.256 253.739Z" fill="#4085C2"/>
<path d="M168.5 300.492C168.825 304.154 169.741 306.962 171.246 308.915C174.013 312.455 178.814 314.225 185.65 314.225C189.719 314.225 193.3 313.35 196.393 311.601C199.485 309.81 201.031 307.064 201.031 303.361C201.031 300.553 199.79 298.417 197.308 296.952C195.721 296.057 192.588 295.019 187.909 293.839L179.181 291.642C173.606 290.259 169.496 288.712 166.852 287.003C162.132 284.033 159.771 279.923 159.771 274.674C159.771 268.489 161.989 263.485 166.424 259.66C170.9 255.835 176.902 253.922 184.43 253.922C194.277 253.922 201.377 256.811 205.731 262.589C208.457 266.251 209.78 270.198 209.698 274.43H199.322C199.119 271.948 198.244 269.69 196.698 267.655C194.175 264.766 189.801 263.322 183.575 263.322C179.425 263.322 176.271 264.115 174.115 265.702C171.999 267.289 170.941 269.385 170.941 271.989C170.941 274.837 172.345 277.116 175.152 278.825C176.78 279.842 179.181 280.737 182.354 281.51L189.618 283.28C197.512 285.193 202.801 287.044 205.487 288.834C209.759 291.642 211.896 296.057 211.896 302.079C211.896 307.898 209.678 312.923 205.243 317.155C200.848 321.387 194.134 323.502 185.101 323.502C175.376 323.502 168.479 321.305 164.41 316.911C160.382 312.475 158.225 307.003 157.94 300.492H168.5Z" fill="#4085C2"/>
<path d="M249.557 313.615C254.684 313.615 258.936 311.479 262.313 307.206C265.731 302.893 267.44 296.464 267.44 287.919C267.44 282.711 266.687 278.235 265.182 274.491C262.333 267.289 257.125 263.688 249.557 263.688C241.948 263.688 236.739 267.493 233.932 275.102C232.426 279.171 231.673 284.338 231.673 290.604C231.673 295.65 232.426 299.943 233.932 303.483C236.78 310.237 241.988 313.615 249.557 313.615ZM221.114 255.937H231.795V264.604C233.993 261.633 236.393 259.334 238.998 257.707C242.7 255.265 247.054 254.044 252.059 254.044C259.465 254.044 265.751 256.893 270.919 262.589C276.087 268.245 278.67 276.343 278.67 286.881C278.67 301.123 274.947 311.295 267.501 317.399C262.781 321.264 257.288 323.197 251.021 323.197C246.098 323.197 241.968 322.119 238.631 319.962C236.678 318.742 234.501 316.646 232.101 313.676V347.062H221.114V255.937Z" fill="#4085C2"/>
<path d="M289.049 255.937H300.218V321H289.049V255.937ZM289.049 231.339H300.218V243.791H289.049V231.339Z" fill="#4085C2"/>
<path d="M316.578 237.382H327.687V255.631H338.124V264.604H327.687V307.267C327.687 309.546 328.46 311.072 330.006 311.845C330.86 312.292 332.285 312.516 334.278 312.516C334.807 312.516 335.377 312.516 335.987 312.516C336.598 312.475 337.31 312.414 338.124 312.333V321C336.862 321.366 335.54 321.631 334.156 321.793C332.813 321.956 331.349 322.038 329.762 322.038C324.635 322.038 321.156 320.736 319.325 318.131C317.494 315.486 316.578 312.069 316.578 307.877V264.604H307.728V255.631H316.578V237.382Z" fill="#4085C2"/>
<path d="M355.094 303.605C355.094 306.779 356.253 309.281 358.573 311.112C360.892 312.943 363.639 313.859 366.812 313.859C370.678 313.859 374.422 312.964 378.043 311.173C384.146 308.203 387.198 303.34 387.198 296.586V287.736C385.855 288.59 384.126 289.302 382.01 289.872C379.894 290.442 377.819 290.849 375.785 291.093L369.132 291.947C365.144 292.476 362.153 293.31 360.16 294.45C356.782 296.362 355.094 299.414 355.094 303.605ZM381.705 281.388C384.228 281.063 385.917 280.005 386.771 278.214C387.259 277.238 387.503 275.834 387.503 274.003C387.503 270.259 386.161 267.554 383.475 265.885C380.83 264.176 377.026 263.322 372.062 263.322C366.324 263.322 362.255 264.868 359.854 267.96C358.512 269.669 357.637 272.213 357.23 275.59H346.976C347.18 267.533 349.784 261.938 354.789 258.805C359.834 255.631 365.673 254.044 372.306 254.044C379.996 254.044 386.242 255.509 391.043 258.439C395.804 261.369 398.185 265.926 398.185 272.111V309.77C398.185 310.909 398.408 311.824 398.856 312.516C399.344 313.208 400.341 313.554 401.847 313.554C402.335 313.554 402.884 313.533 403.495 313.493C404.105 313.411 404.756 313.31 405.448 313.188V321.305C403.739 321.793 402.437 322.099 401.542 322.221C400.646 322.343 399.426 322.404 397.879 322.404C394.095 322.404 391.349 321.061 389.64 318.375C388.744 316.951 388.114 314.937 387.748 312.333C385.51 315.263 382.295 317.806 378.104 319.962C373.913 322.119 369.295 323.197 364.249 323.197C358.186 323.197 353.222 321.366 349.356 317.704C345.532 314.001 343.619 309.383 343.619 303.849C343.619 297.786 345.511 293.087 349.295 289.75C353.08 286.413 358.044 284.359 364.188 283.585L381.705 281.388Z" fill="#4085C2"/>
<path d="M414.056 231.339H425.042V321H414.056V231.339Z" fill="#4085C2"/>
</mask>
<g mask="url(#mask0_1_11)">
<g opacity="0.5">
<path d="M73.7681 1.33936V12.0205H43.5557V91H31.2266V12.0205H1.01416V1.33936H73.7681Z" fill="black"/>
<path d="M92.9966 83.9199C100.28 83.9199 105.265 81.1733 107.95 75.6802C110.676 70.1463 112.04 64.0021 112.04 57.2476C112.04 51.144 111.063 46.1799 109.11 42.355C106.017 36.3328 100.687 33.3218 93.1187 33.3218C86.4048 33.3218 81.522 35.8853 78.4702 41.0122C75.4185 46.1392 73.8926 52.3241 73.8926 59.5669C73.8926 66.5249 75.4185 72.3232 78.4702 76.9619C81.522 81.6006 86.3641 83.9199 92.9966 83.9199ZM93.4238 23.7393C101.847 23.7393 108.967 26.5469 114.786 32.1621C120.605 37.7773 123.514 46.0374 123.514 56.9424C123.514 67.4811 120.951 76.1888 115.824 83.0654C110.697 89.9421 102.742 93.3804 91.959 93.3804C82.9665 93.3804 75.8254 90.349 70.5356 84.2861C65.2459 78.1826 62.6011 70.0039 62.6011 59.75C62.6011 48.7637 65.3883 40.0153 70.9629 33.5049C76.5374 26.9945 84.0244 23.7393 93.4238 23.7393Z" fill="black"/>
<path d="M133.893 1.33936H144.452V53.4023L172.65 25.6313H186.688L161.664 50.1064L188.092 91H174.054L153.668 58.041L144.452 66.4639V91H133.893V1.33936Z" fill="black"/>
<path d="M234.969 25.6313H247.115C245.569 29.8224 242.131 39.3846 236.8 54.3179C232.813 65.5483 229.476 74.7036 226.791 81.7837C220.443 98.4666 215.967 108.639 213.363 112.301C210.759 115.963 206.283 117.794 199.935 117.794C198.389 117.794 197.188 117.733 196.334 117.611C195.52 117.489 194.503 117.265 193.282 116.94V106.93C195.195 107.459 196.578 107.785 197.433 107.907C198.287 108.029 199.04 108.09 199.691 108.09C201.725 108.09 203.211 107.744 204.146 107.052C205.123 106.401 205.937 105.587 206.588 104.611C206.791 104.285 207.524 102.617 208.785 99.606C210.047 96.5949 210.962 94.3569 211.532 92.8921L187.362 25.6313H199.813L217.33 78.854L234.969 25.6313Z" fill="black"/>
<path d="M280.077 83.9199C287.36 83.9199 292.345 81.1733 295.03 75.6802C297.757 70.1463 299.12 64.0021 299.12 57.2476C299.12 51.144 298.143 46.1799 296.19 42.355C293.097 36.3328 287.767 33.3218 280.199 33.3218C273.485 33.3218 268.602 35.8853 265.55 41.0122C262.499 46.1392 260.973 52.3241 260.973 59.5669C260.973 66.5249 262.499 72.3232 265.55 76.9619C268.602 81.6006 273.444 83.9199 280.077 83.9199ZM280.504 23.7393C288.927 23.7393 296.048 26.5469 301.866 32.1621C307.685 37.7773 310.594 46.0374 310.594 56.9424C310.594 67.4811 308.031 76.1888 302.904 83.0654C297.777 89.9421 289.822 93.3804 279.039 93.3804C270.047 93.3804 262.905 90.349 257.616 84.2861C252.326 78.1826 249.681 70.0039 249.681 59.75C249.681 48.7637 252.468 40.0153 258.043 33.5049C263.618 26.9945 271.104 23.7393 280.504 23.7393Z" fill="black"/>
<path d="M21.7051 116.339V171.759C21.7051 178.27 22.9258 183.681 25.3672 187.995C28.9886 194.505 35.0921 197.76 43.6777 197.76C53.9723 197.76 60.971 194.241 64.6738 187.201C66.6676 183.376 67.6646 178.229 67.6646 171.759V116.339H79.9937V166.693C79.9937 177.72 78.5085 186.204 75.5381 192.145C70.0856 202.969 59.791 208.38 44.6543 208.38C29.5176 208.38 19.2433 202.969 13.8315 192.145C10.8612 186.204 9.37598 177.72 9.37598 166.693V116.339H21.7051Z" fill="black"/>
<path d="M94.8887 140.631H105.326V149.909C108.418 146.084 111.694 143.337 115.152 141.669C118.611 140.001 122.456 139.167 126.688 139.167C135.965 139.167 142.232 142.401 145.487 148.871C147.277 152.411 148.172 157.477 148.172 164.069V206H137.003V164.801C137.003 160.814 136.413 157.599 135.233 155.158C133.28 151.089 129.74 149.054 124.613 149.054C122.009 149.054 119.872 149.319 118.204 149.848C115.193 150.743 112.548 152.533 110.27 155.219C108.438 157.375 107.238 159.613 106.668 161.933C106.139 164.211 105.875 167.487 105.875 171.759V206H94.8887V140.631Z" fill="black"/>
<path d="M161.969 140.937H173.138V206H161.969V140.937ZM161.969 116.339H173.138V128.791H161.969V116.339Z" fill="black"/>
<path d="M192.672 140.631L210.128 193.854L228.377 140.631H240.401L215.743 206H204.024L179.916 140.631H192.672Z" fill="black"/>
<path d="M274.522 139.167C279.161 139.167 283.657 140.265 288.011 142.462C292.365 144.619 295.681 147.427 297.96 150.885C300.157 154.181 301.622 158.026 302.354 162.421C303.006 165.432 303.331 170.233 303.331 176.825H255.418C255.622 183.458 257.188 188.788 260.118 192.816C263.048 196.804 267.585 198.798 273.729 198.798C279.466 198.798 284.044 196.906 287.462 193.122C289.415 190.924 290.799 188.381 291.612 185.492H302.416C302.131 187.893 301.174 190.578 299.547 193.549C297.96 196.479 296.17 198.879 294.176 200.751C290.839 204.006 286.709 206.203 281.786 207.343C279.141 207.994 276.15 208.319 272.813 208.319C264.675 208.319 257.778 205.369 252.123 199.469C246.467 193.528 243.639 185.228 243.639 174.567C243.639 164.069 246.487 155.544 252.184 148.993C257.88 142.442 265.326 139.167 274.522 139.167ZM292.04 168.097C291.592 163.336 290.554 159.532 288.927 156.684C285.916 151.394 280.89 148.749 273.851 148.749C268.806 148.749 264.574 150.58 261.156 154.242C257.738 157.864 255.927 162.482 255.724 168.097H292.04Z" fill="black"/>
<path d="M314.686 140.631H325.123V151.923C325.978 149.726 328.073 147.06 331.41 143.927C334.746 140.753 338.591 139.167 342.945 139.167C343.149 139.167 343.495 139.187 343.983 139.228C344.471 139.268 345.305 139.35 346.485 139.472V151.068C345.834 150.946 345.224 150.865 344.654 150.824C344.125 150.784 343.535 150.763 342.884 150.763C337.35 150.763 333.098 152.554 330.128 156.134C327.158 159.674 325.672 163.764 325.672 168.402V206H314.686V140.631Z" fill="black"/>
<path d="M360.038 185.492C360.363 189.154 361.279 191.962 362.784 193.915C365.551 197.455 370.353 199.225 377.188 199.225C381.257 199.225 384.838 198.35 387.931 196.601C391.023 194.81 392.569 192.064 392.569 188.361C392.569 185.553 391.328 183.417 388.846 181.952C387.259 181.057 384.126 180.019 379.447 178.839L370.719 176.642C365.144 175.259 361.035 173.712 358.39 172.003C353.67 169.033 351.31 164.923 351.31 159.674C351.31 153.489 353.527 148.485 357.962 144.66C362.438 140.835 368.44 138.922 375.968 138.922C385.815 138.922 392.915 141.811 397.269 147.589C399.995 151.251 401.318 155.198 401.236 159.43H390.86C390.657 156.948 389.782 154.69 388.236 152.655C385.713 149.766 381.339 148.322 375.113 148.322C370.963 148.322 367.809 149.115 365.653 150.702C363.537 152.289 362.479 154.385 362.479 156.989C362.479 159.837 363.883 162.116 366.69 163.825C368.318 164.842 370.719 165.737 373.893 166.51L381.156 168.28C389.05 170.193 394.339 172.044 397.025 173.834C401.297 176.642 403.434 181.057 403.434 187.079C403.434 192.898 401.216 197.923 396.781 202.155C392.386 206.387 385.672 208.502 376.639 208.502C366.914 208.502 360.017 206.305 355.948 201.911C351.92 197.475 349.763 192.003 349.479 185.492H360.038Z" fill="black"/>
<path d="M413.507 140.937H424.676V206H413.507V140.937ZM413.507 116.339H424.676V128.791H413.507V116.339Z" fill="black"/>
<path d="M441.036 122.382H452.145V140.631H462.582V149.604H452.145V192.267C452.145 194.546 452.918 196.072 454.464 196.845C455.318 197.292 456.743 197.516 458.736 197.516C459.265 197.516 459.835 197.516 460.445 197.516C461.056 197.475 461.768 197.414 462.582 197.333V206C461.32 206.366 459.998 206.631 458.614 206.793C457.271 206.956 455.807 207.038 454.22 207.038C449.093 207.038 445.614 205.736 443.783 203.131C441.952 200.486 441.036 197.069 441.036 192.877V149.604H432.186V140.631H441.036V122.382Z" fill="black"/>
<path d="M511.961 140.631H524.107C522.561 144.822 519.123 154.385 513.792 169.318C509.805 180.548 506.468 189.704 503.783 196.784C497.435 213.467 492.959 223.639 490.355 227.301C487.751 230.963 483.275 232.794 476.927 232.794C475.381 232.794 474.181 232.733 473.326 232.611C472.512 232.489 471.495 232.265 470.274 231.94V221.93C472.187 222.459 473.57 222.785 474.425 222.907C475.279 223.029 476.032 223.09 476.683 223.09C478.718 223.09 480.203 222.744 481.139 222.052C482.115 221.401 482.929 220.587 483.58 219.611C483.784 219.285 484.516 217.617 485.777 214.606C487.039 211.595 487.954 209.357 488.524 207.892L464.354 140.631H476.805L494.322 193.854L511.961 140.631Z" fill="black"/>
<path d="M8.82666 231.339H21.0947V268.388H67.7256V231.339H79.9937V321H67.7256V279.069H21.0947V321H8.82666V231.339Z" fill="black"/>
<path d="M120.829 313.92C128.112 313.92 133.097 311.173 135.782 305.68C138.508 300.146 139.872 294.002 139.872 287.248C139.872 281.144 138.895 276.18 136.942 272.355C133.849 266.333 128.519 263.322 120.951 263.322C114.237 263.322 109.354 265.885 106.302 271.012C103.25 276.139 101.725 282.324 101.725 289.567C101.725 296.525 103.25 302.323 106.302 306.962C109.354 311.601 114.196 313.92 120.829 313.92ZM121.256 253.739C129.679 253.739 136.799 256.547 142.618 262.162C148.437 267.777 151.346 276.037 151.346 286.942C151.346 297.481 148.783 306.189 143.656 313.065C138.529 319.942 130.574 323.38 119.791 323.38C110.799 323.38 103.657 320.349 98.3677 314.286C93.078 308.183 90.4331 300.004 90.4331 289.75C90.4331 278.764 93.2204 270.015 98.7949 263.505C104.369 256.994 111.856 253.739 121.256 253.739Z" fill="black"/>
<path d="M168.5 300.492C168.825 304.154 169.741 306.962 171.246 308.915C174.013 312.455 178.814 314.225 185.65 314.225C189.719 314.225 193.3 313.35 196.393 311.601C199.485 309.81 201.031 307.064 201.031 303.361C201.031 300.553 199.79 298.417 197.308 296.952C195.721 296.057 192.588 295.019 187.909 293.839L179.181 291.642C173.606 290.259 169.496 288.712 166.852 287.003C162.132 284.033 159.771 279.923 159.771 274.674C159.771 268.489 161.989 263.485 166.424 259.66C170.9 255.835 176.902 253.922 184.43 253.922C194.277 253.922 201.377 256.811 205.731 262.589C208.457 266.251 209.78 270.198 209.698 274.43H199.322C199.119 271.948 198.244 269.69 196.698 267.655C194.175 264.766 189.801 263.322 183.575 263.322C179.425 263.322 176.271 264.115 174.115 265.702C171.999 267.289 170.941 269.385 170.941 271.989C170.941 274.837 172.345 277.116 175.152 278.825C176.78 279.842 179.181 280.737 182.354 281.51L189.618 283.28C197.512 285.193 202.801 287.044 205.487 288.834C209.759 291.642 211.896 296.057 211.896 302.079C211.896 307.898 209.678 312.923 205.243 317.155C200.848 321.387 194.134 323.502 185.101 323.502C175.376 323.502 168.479 321.305 164.41 316.911C160.382 312.475 158.225 307.003 157.94 300.492H168.5Z" fill="black"/>
<path d="M249.557 313.615C254.684 313.615 258.936 311.479 262.313 307.206C265.731 302.893 267.44 296.464 267.44 287.919C267.44 282.711 266.687 278.235 265.182 274.491C262.333 267.289 257.125 263.688 249.557 263.688C241.948 263.688 236.739 267.493 233.932 275.102C232.426 279.171 231.673 284.338 231.673 290.604C231.673 295.65 232.426 299.943 233.932 303.483C236.78 310.237 241.988 313.615 249.557 313.615ZM221.114 255.937H231.795V264.604C233.993 261.633 236.393 259.334 238.998 257.707C242.7 255.265 247.054 254.044 252.059 254.044C259.465 254.044 265.751 256.893 270.919 262.589C276.087 268.245 278.67 276.343 278.67 286.881C278.67 301.123 274.947 311.295 267.501 317.399C262.781 321.264 257.288 323.197 251.021 323.197C246.098 323.197 241.968 322.119 238.631 319.962C236.678 318.742 234.501 316.646 232.101 313.676V347.062H221.114V255.937Z" fill="black"/>
<path d="M289.049 255.937H300.218V321H289.049V255.937ZM289.049 231.339H300.218V243.791H289.049V231.339Z" fill="black"/>
<path d="M316.578 237.382H327.687V255.631H338.124V264.604H327.687V307.267C327.687 309.546 328.46 311.072 330.006 311.845C330.86 312.292 332.285 312.516 334.278 312.516C334.807 312.516 335.377 312.516 335.987 312.516C336.598 312.475 337.31 312.414 338.124 312.333V321C336.862 321.366 335.54 321.631 334.156 321.793C332.813 321.956 331.349 322.038 329.762 322.038C324.635 322.038 321.156 320.736 319.325 318.131C317.494 315.486 316.578 312.069 316.578 307.877V264.604H307.728V255.631H316.578V237.382Z" fill="black"/>
<path d="M355.094 303.605C355.094 306.779 356.253 309.281 358.573 311.112C360.892 312.943 363.639 313.859 366.812 313.859C370.678 313.859 374.422 312.964 378.043 311.173C384.146 308.203 387.198 303.34 387.198 296.586V287.736C385.855 288.59 384.126 289.302 382.01 289.872C379.894 290.442 377.819 290.849 375.785 291.093L369.132 291.947C365.144 292.476 362.153 293.31 360.16 294.45C356.782 296.362 355.094 299.414 355.094 303.605ZM381.705 281.388C384.228 281.063 385.917 280.005 386.771 278.214C387.259 277.238 387.503 275.834 387.503 274.003C387.503 270.259 386.161 267.554 383.475 265.885C380.83 264.176 377.026 263.322 372.062 263.322C366.324 263.322 362.255 264.868 359.854 267.96C358.512 269.669 357.637 272.213 357.23 275.59H346.976C347.18 267.533 349.784 261.938 354.789 258.805C359.834 255.631 365.673 254.044 372.306 254.044C379.996 254.044 386.242 255.509 391.043 258.439C395.804 261.369 398.185 265.926 398.185 272.111V309.77C398.185 310.909 398.408 311.824 398.856 312.516C399.344 313.208 400.341 313.554 401.847 313.554C402.335 313.554 402.884 313.533 403.495 313.493C404.105 313.411 404.756 313.31 405.448 313.188V321.305C403.739 321.793 402.437 322.099 401.542 322.221C400.646 322.343 399.426 322.404 397.879 322.404C394.095 322.404 391.349 321.061 389.64 318.375C388.744 316.951 388.114 314.937 387.748 312.333C385.51 315.263 382.295 317.806 378.104 319.962C373.913 322.119 369.295 323.197 364.249 323.197C358.186 323.197 353.222 321.366 349.356 317.704C345.532 314.001 343.619 309.383 343.619 303.849C343.619 297.786 345.511 293.087 349.295 289.75C353.08 286.413 358.044 284.359 364.188 283.585L381.705 281.388Z" fill="black"/>
<path d="M414.056 231.339H425.042V321H414.056V231.339Z" fill="black"/>
</g>
</g>
</svg>
