<svg width="959" height="183" viewBox="0 0 959 183" fill="none" xmlns="http://www.w3.org/2000/svg">
<path d="M958.175 84.5C958.591 85 958.529 85.5625 957.987 86.1875C957.487 86.8125 956.883 87.4167 956.175 88C955.675 88.4167 955.32 88.75 955.112 89C953.529 90.4167 950.904 92.2917 947.237 94.625C943.57 96.9583 939.55 99.125 935.175 101.125C930.8 103.125 926.8 104.333 923.175 104.75C919.55 105.167 917.008 104.188 915.55 101.813C914.175 98.3125 913.883 94.6667 914.675 90.875C915.425 87.0417 916.925 83.6458 919.175 80.6875C920.508 79.1042 922.112 78.2292 923.987 78.0625C925.862 77.8958 927.029 79.0208 927.487 81.4375C927.779 82.6458 927.425 83.9792 926.425 85.4375C925.425 86.8542 924.175 88.1667 922.675 89.375C921.216 90.5833 919.945 91.4167 918.862 91.875C918.362 94.5 918.216 96.7292 918.425 98.5625C918.758 101.229 920.341 102.521 923.175 102.438C926.05 102.354 929.383 101.542 933.175 100C937.008 98.4167 940.57 96.6875 943.862 94.8125C947.154 92.9375 949.425 91.5208 950.675 90.5625C953.05 88.8958 955.154 86.9375 956.987 84.6875C957.154 84.4792 957.341 84.375 957.55 84.375C957.8 84.3333 958.008 84.375 958.175 84.5ZM923.612 82.75C921.737 84.0417 920.383 86.1667 919.55 89.125C920.591 88.1667 921.55 87.1042 922.425 85.9375C923.3 84.7292 923.695 83.6667 923.612 82.75Z" fill="white"/>
<path d="M913.987 46.0625C914.445 46.3125 914.737 46.6667 914.862 47.125C915.029 47.5417 915.029 48 914.862 48.5C909.779 60.4583 905.383 72.625 901.675 85C897.966 97.375 894.779 109.833 892.112 122.375C891.945 123.083 891.57 123.625 890.987 124C890.445 124.417 889.82 124.604 889.112 124.562C888.445 124.438 887.925 124.104 887.55 123.562C887.175 123.021 887.07 122.396 887.237 121.688C891.07 104.604 895.904 87.7083 901.737 71C898.779 76.3333 895.675 81.5625 892.425 86.6875C889.216 91.7708 885.633 96.6458 881.675 101.312C880.341 102.812 878.779 103.833 876.987 104.375C875.154 104.875 873.779 104.083 872.862 102C872.404 100.042 872.612 98.1042 873.487 96.1875C874.362 94.2708 875.404 92.4792 876.612 90.8125C878.32 88.4792 880.404 86.375 882.862 84.5C885.362 82.5833 888.091 81.7083 891.05 81.875C891.591 81.9583 892.008 82.1458 892.3 82.4375C896.008 76.1042 899.529 69.6458 902.862 63.0625C904.737 59.4375 906.633 55.8542 908.55 52.3125C908.55 52.3125 908.695 52.0417 908.987 51.5C909.279 50.9583 909.591 50.3542 909.925 49.6875C910.3 48.9792 910.612 48.375 910.862 47.875C911.154 47.3333 911.3 47.0625 911.3 47.0625C911.591 46.5625 911.987 46.2292 912.487 46.0625C913.029 45.8542 913.529 45.8542 913.987 46.0625ZM881.487 98.1875C884.404 94.5625 887.091 90.7917 889.55 86.875C886.883 87.5 884.508 88.9167 882.425 91.125C880.3 93.2917 878.591 95.5625 877.3 97.9375C876.425 100.146 876.175 101.438 876.55 101.812C876.925 102.146 877.612 101.917 878.612 101.125C879.612 100.333 880.57 99.3542 881.487 98.1875Z" fill="white"/>
<path d="M839.612 87.9376C839.612 87.9792 839.591 88.0001 839.55 88.0001C839.591 88.0001 839.612 87.9792 839.612 87.9376ZM883.487 84.6876C884.779 84.3126 885.32 84.4584 885.112 85.1251C884.904 85.7501 884.237 86.6876 883.112 87.9376C881.987 89.1459 880.695 90.4167 879.237 91.7501C877.779 93.0417 876.466 94.1876 875.3 95.1876C874.175 96.1459 873.487 96.7084 873.237 96.8751C872.279 97.5834 871.3 98.3334 870.3 99.1251C867.8 101.125 865.195 102.958 862.487 104.625C859.779 106.25 856.841 107.25 853.675 107.625C851.3 107.333 849.695 106.354 848.862 104.688C848.029 103.021 847.675 101.083 847.8 98.8751C847.925 96.6667 848.237 94.5834 848.737 92.6251C846.695 95.1251 844.404 97.3751 841.862 99.3751C839.362 100.875 837.383 101.167 835.925 100.25C834.466 99.3334 833.55 97.8126 833.175 95.6876C832.8 93.5626 832.987 91.4376 833.737 89.3126C834.404 86.7709 835.237 85.1042 836.237 84.3126C837.279 83.5209 838.216 83.2917 839.05 83.6251C839.925 83.9584 840.445 84.5834 840.612 85.5001C840.82 86.3751 840.404 87.2501 839.362 88.1251C839.404 88.1251 839.445 88.1251 839.487 88.1251C839.529 88.0834 839.55 88.0417 839.55 88.0001C839.508 88.0417 839.466 88.1042 839.425 88.1876C838.633 89.5209 837.945 91.0626 837.362 92.8126C836.82 94.5209 836.862 96.1042 837.487 97.5626C838.445 97.9792 839.55 97.6667 840.8 96.6251C842.05 95.5417 843.279 94.1876 844.487 92.5626C845.695 90.8959 846.737 89.3959 847.612 88.0626C848.112 87.3126 848.508 86.7292 848.8 86.3126C849.133 85.8542 849.466 85.3334 849.8 84.7501C850.508 83.3751 851.425 82.2917 852.55 81.5001C853.3 81.0417 854.008 80.9792 854.675 81.3126C855.383 81.6042 855.862 82.1251 856.112 82.8751C856.362 83.5834 856.216 84.2709 855.675 84.9376C855.508 85.1459 855.362 85.3334 855.237 85.5001C855.195 85.5001 855.175 85.5001 855.175 85.5001L855.237 85.5626C855.195 85.6042 855.133 85.6667 855.05 85.7501C855.008 85.7917 854.987 85.8334 854.987 85.8751C854.404 86.6251 853.904 87.3959 853.487 88.1876C851.654 91.6459 850.55 95.3126 850.175 99.1876C850.091 103.688 851.508 105.813 854.425 105.563C857.383 105.313 860.925 103.771 865.05 100.938C869.216 98.1042 873.07 95.0626 876.612 91.8126C880.154 88.5626 882.445 86.1876 883.487 84.6876Z" fill="white"/>
<path d="M775.425 77.7502C774.383 77.7085 773.633 77.2502 773.175 76.3752C772.716 75.5002 772.779 74.6252 773.362 73.7502C773.862 72.9586 774.445 72.4169 775.112 72.1252C775.82 71.7919 776.612 71.8961 777.487 72.4377C778.029 72.8544 778.341 73.3961 778.425 74.0627C778.55 74.7294 778.404 75.3544 777.987 75.9377C777.695 76.4377 777.32 76.8752 776.862 77.2502C776.445 77.5835 775.966 77.7502 775.425 77.7502ZM837.237 83.6877C837.612 83.7294 837.841 83.896 837.925 84.1877C838.05 84.4794 838.029 84.7502 837.862 85.0002C837.737 85.2502 837.487 85.3752 837.112 85.3752C835.154 85.0419 833.175 84.8335 831.175 84.7502C825.3 84.4169 819.425 84.3335 813.55 84.5002C812.341 84.5419 811.133 84.5835 809.925 84.6252C808.383 88.8335 806.841 93.0627 805.3 97.3127C805.341 97.7294 805.383 98.146 805.425 98.5627C805.675 102.229 805.091 105.938 803.675 109.688C802.3 113.479 800.279 116.667 797.612 119.25C797.112 119.667 796.57 119.729 795.987 119.438C795.445 119.188 795.154 118.729 795.112 118.063C795.112 118.063 795.112 118.042 795.112 118C795.112 117.959 795.112 117.896 795.112 117.813C795.112 117.729 795.112 117.646 795.112 117.563C795.112 117.479 795.112 117.417 795.112 117.375C795.112 117.334 795.112 117.313 795.112 117.313C795.862 114.229 796.716 111.209 797.675 108.25C799.216 103.125 800.862 98.0419 802.612 93.0002C801.154 90.2502 798.675 88.4169 795.175 87.5002C795.091 87.4585 795.008 87.4377 794.925 87.4377C794.883 87.396 794.841 87.3752 794.8 87.3752C788.758 93.2085 783.508 97.5002 779.05 100.25C778.758 100.417 778.425 100.604 778.05 100.813C776.466 101.813 774.695 102.646 772.737 103.313C770.779 103.979 769.175 103.563 767.925 102.063C766.716 99.521 766.591 96.396 767.55 92.6877C768.466 88.9377 769.779 85.9585 771.487 83.7502C772.237 82.9585 773.029 82.6669 773.862 82.8752C774.695 83.0835 775.3 83.5835 775.675 84.3752C776.091 85.1252 775.987 85.9585 775.362 86.8752C774.029 88.7502 772.883 90.9585 771.925 93.5002C771.008 96.0002 770.633 98.396 770.8 100.688C770.8 100.729 770.82 100.792 770.862 100.875C770.904 100.917 770.966 100.938 771.05 100.938C774.091 100.854 777.341 99.6252 780.8 97.2502C784.258 94.8335 787.279 92.4794 789.862 90.1877C790.32 89.8127 790.737 89.4585 791.112 89.1252C791.82 88.4585 792.55 87.771 793.3 87.0627C792.216 86.9377 791.112 86.8544 789.987 86.8127C789.695 86.8127 789.487 86.7085 789.362 86.5002C789.237 86.2502 789.195 86.0002 789.237 85.7502C789.32 85.5002 789.508 85.3335 789.8 85.2502C791.758 84.7919 793.737 84.4377 795.737 84.1877C795.862 84.1877 795.966 84.1877 796.05 84.1877C796.175 84.1877 796.279 84.1669 796.362 84.1252C802.237 78.5835 807.404 72.4794 811.862 65.8127C812.987 62.3961 814.05 58.9794 815.05 55.5627C815.091 55.3544 815.133 55.1669 815.175 55.0002C815.966 52.3336 816.55 49.6461 816.925 46.9377C817.091 45.8544 817.591 45.1669 818.425 44.8752C819.258 44.5836 820.05 44.6669 820.8 45.1252C821.55 45.5419 821.925 46.3127 821.925 47.4377C821.008 52.6461 819.633 57.7294 817.8 62.6877C817.425 63.7294 817.07 64.7711 816.737 65.8127C814.737 71.6044 812.654 77.396 810.487 83.1877C819.404 82.896 828.32 83.0627 837.237 83.6877ZM810.612 69.6252C806.987 74.5002 802.883 79.271 798.3 83.9377C800.841 83.6877 803.383 83.5002 805.925 83.3752C807.508 78.7919 809.07 74.2086 810.612 69.6252ZM803.987 103.875C804.237 102.584 804.362 101.292 804.362 100C802.779 104.459 801.3 108.938 799.925 113.438C801.008 112.063 801.862 110.5 802.487 108.75C803.154 107.042 803.654 105.417 803.987 103.875ZM803.112 91.5627C803.862 89.3127 804.633 87.0627 805.425 84.8127C802.466 84.9794 799.508 85.271 796.55 85.6877C796.341 85.896 796.133 86.1044 795.925 86.3127C798.966 87.3544 801.362 89.1044 803.112 91.5627Z" fill="white"/>
<path d="M773.862 84.3127C774.195 84.3544 774.404 84.521 774.487 84.8127C774.612 85.1044 774.591 85.3752 774.425 85.6252C774.3 85.8752 774.05 86.0002 773.675 86.0002C771.758 85.6669 769.8 85.4585 767.8 85.3752C761.925 85.0419 756.029 84.9585 750.112 85.1252C748.945 85.1669 747.758 85.2085 746.55 85.2502C744.966 89.4585 743.425 93.6877 741.925 97.9377C741.966 98.3544 742.008 98.771 742.05 99.1877C742.3 102.854 741.716 106.563 740.3 110.313C738.925 114.104 736.904 117.292 734.237 119.875C733.737 120.292 733.195 120.354 732.612 120.063C732.07 119.813 731.779 119.354 731.737 118.688C731.737 118.688 731.737 118.667 731.737 118.625C731.737 118.584 731.737 118.521 731.737 118.438C731.737 118.354 731.737 118.271 731.737 118.188C731.737 118.104 731.737 118.042 731.737 118C731.737 117.959 731.737 117.938 731.737 117.938C732.487 114.854 733.32 111.834 734.237 108.875C735.82 103.75 737.487 98.6669 739.237 93.6252C738.32 91.9169 736.987 90.5419 735.237 89.5002C733.029 92.6252 730.55 95.4169 727.8 97.8752C725.05 100.292 722.05 101.854 718.8 102.563C716.133 103.021 713.695 102.604 711.487 101.313C709.279 100.021 707.737 98.1044 706.862 95.5627C706.612 94.896 706.404 94.1877 706.237 93.4377C704.987 95.271 703.695 97.0835 702.362 98.8752C701.029 100.709 699.633 102.542 698.175 104.375C697.175 105.75 695.82 106.604 694.112 106.938C692.362 107.021 691.175 106.417 690.55 105.125C689.925 103.792 689.862 102.375 690.362 100.875C692.195 93.7085 695.695 87.4585 700.862 82.1252C702.612 80.3335 704.737 78.896 707.237 77.8127C708.32 77.4794 709.175 77.6252 709.8 78.2502C710.425 78.8335 710.716 79.5627 710.675 80.4377C710.633 81.3127 710.112 81.9794 709.112 82.4377C706.07 83.896 703.466 86.1252 701.3 89.1252C699.175 92.0835 697.508 95.2502 696.3 98.6252C699.716 94.1669 702.925 89.5835 705.925 84.8752C706.425 84.1252 707.029 83.7294 707.737 83.6877C708.487 83.646 709.154 83.8752 709.737 84.3752C710.32 84.8752 710.57 85.5419 710.487 86.3752C710.07 88.0835 709.779 89.771 709.612 91.4377C709.487 93.0627 709.779 94.6669 710.487 96.2502C711.82 98.5835 713.508 99.8752 715.55 100.125C717.633 100.375 719.737 100 721.862 99.0002C723.987 98.0002 725.82 96.7294 727.362 95.1877C729.445 93.1877 731.425 90.9794 733.3 88.5627C732.8 88.396 732.3 88.2502 731.8 88.1252C730.091 87.6669 728.362 87.4377 726.612 87.4377C726.32 87.4377 726.091 87.3335 725.925 87.1252C725.8 86.8752 725.779 86.6252 725.862 86.3752C725.945 86.1252 726.133 85.9585 726.425 85.8752C728.383 85.4169 730.362 85.0627 732.362 84.8127C733.695 84.6877 735.008 84.5627 736.3 84.4377C739.883 79.146 743.05 73.5419 745.8 67.6252C748.55 61.7086 750.904 55.9169 752.862 50.2502C753.112 49.4169 753.32 48.5627 753.487 47.6877C753.487 47.6877 753.508 47.6669 753.55 47.6252C753.55 47.6252 753.55 47.6044 753.55 47.5627C753.716 46.4794 754.216 45.7919 755.05 45.5002C755.883 45.2086 756.675 45.2919 757.425 45.7502C758.175 46.1669 758.529 46.9377 758.487 48.0627C757.612 53.2711 756.237 58.3544 754.362 63.3127C754.029 64.3544 753.695 65.3961 753.362 66.4377C751.362 72.2294 749.279 78.021 747.112 83.8127C756.029 83.521 764.945 83.6877 773.862 84.3127ZM742.05 78.7502C741.05 80.4585 739.945 82.2919 738.737 84.2502C739.987 84.1669 741.258 84.0835 742.55 84.0002C744.841 77.4585 747.05 70.8961 749.175 64.3127C747.008 69.2294 744.633 74.0419 742.05 78.7502ZM731.3 86.5627C732.258 86.8127 733.175 87.146 734.05 87.5627C734.425 87.0627 734.8 86.5419 735.175 86.0002C733.883 86.1669 732.591 86.3544 731.3 86.5627ZM740.55 104.5C740.841 103.209 740.987 101.917 740.987 100.625C739.404 105.084 737.904 109.563 736.487 114.063C737.57 112.688 738.445 111.125 739.112 109.375C739.779 107.667 740.258 106.042 740.55 104.5ZM739.737 92.1877C740.487 89.9377 741.258 87.6877 742.05 85.4377C740.633 85.521 739.195 85.6252 737.737 85.7502C737.154 86.7085 736.55 87.646 735.925 88.5627C737.425 89.521 738.695 90.7294 739.737 92.1877Z" fill="white"/>
<path d="M685.675 87.4376C685.966 87.6459 686.32 87.7709 686.737 87.8126C687.195 87.8542 687.675 87.8751 688.175 87.8751C688.716 87.8334 689.175 87.8542 689.55 87.9376C689.966 87.9792 690.195 88.1667 690.237 88.5001C690.07 89.0001 689.591 89.3542 688.8 89.5626C688.05 89.7292 687.237 89.7917 686.362 89.7501C685.487 89.7084 684.8 89.5834 684.3 89.3751C682.966 88.7084 682.029 87.7917 681.487 86.6251C680.945 85.4167 680.695 84.1042 680.737 82.6876C676.529 86.3126 672.883 90.4792 669.8 95.1876C666.758 99.8959 664.154 104.792 661.987 109.875C661.862 110.208 661.654 110.458 661.362 110.625C661.029 110.792 660.675 110.792 660.3 110.625C659.966 110.458 659.758 110.188 659.675 109.813C659.55 109.479 659.487 109.125 659.487 108.75C659.487 108.375 659.445 108.042 659.362 107.75C658.862 99.5417 660.675 91.8959 664.8 84.8126C665.383 83.9792 666.091 83.6042 666.925 83.6876C667.758 83.7709 668.445 84.1459 668.987 84.8126C669.529 85.4792 669.591 86.2709 669.175 87.1876C668.091 89.3542 667.216 91.5626 666.55 93.8126C670.675 86.2292 676.195 79.8751 683.112 74.7501C683.862 74.2501 684.591 74.1459 685.3 74.4376C686.05 74.7292 686.57 75.2292 686.862 75.9376C687.195 76.6459 687.091 77.3751 686.55 78.1251C685.675 79.4584 684.966 81.0626 684.425 82.9376C683.883 84.8126 684.3 86.3126 685.675 87.4376Z" fill="white"/>
<path d="M648.8 79.8753C649.3 79.0837 649.945 78.667 650.737 78.6253C651.57 78.542 652.258 78.7712 652.8 79.3128C653.383 79.8128 653.57 80.5212 653.362 81.4378C650.445 94.1045 647.008 106.667 643.05 119.125C643.716 119.042 644.279 119.063 644.737 119.188C645.237 119.313 645.508 119.688 645.55 120.313C645.466 120.563 645.32 120.771 645.112 120.938C644.904 121.104 644.675 121.167 644.425 121.125C643.758 121 643.091 120.959 642.425 121C639.925 128.542 636.925 135.938 633.425 143.188C630.175 149.813 626.383 156.188 622.05 162.313C621.55 162.979 620.925 163.334 620.175 163.375C619.383 163.459 618.695 163.229 618.112 162.688C617.154 161.604 616.57 159.625 616.362 156.75C616.112 153.917 616.383 151.104 617.175 148.313C618.633 143.146 621.112 138 624.612 132.875C628.07 127.75 632.279 123.813 637.237 121.063C640.279 112.146 642.925 103.125 645.175 94.0003C643.633 96.4587 641.883 98.7503 639.925 100.875C637.216 103.75 634.591 104.979 632.05 104.563C629.466 104.146 628.237 101.896 628.362 97.8128C628.862 94.6045 629.925 91.5628 631.55 88.6878C633.175 85.8128 635.195 83.2087 637.612 80.8753C640.154 78.6253 642.3 77.3337 644.05 77.0003C645.8 76.667 647.07 76.8545 647.862 77.5628C648.654 78.2712 648.883 79.1045 648.55 80.0628C648.216 80.9795 647.258 81.5837 645.675 81.8753C643.758 82.292 641.716 83.7295 639.55 86.1878C637.425 88.6045 635.737 91.2712 634.487 94.1878C633.195 97.0628 632.904 99.3753 633.612 101.125L633.3 101C634.883 101.667 636.404 101.292 637.862 99.8753C639.362 98.4587 640.716 96.6462 641.925 94.4378C643.175 92.2295 644.195 90.2503 644.987 88.5003C645.279 87.8753 645.55 87.3337 645.8 86.8753C646.341 85.6253 646.883 84.3545 647.425 83.0628C647.883 82.0212 648.341 80.9587 648.8 79.8753ZM619.612 157.438C626.737 146.688 632.362 135.313 636.487 123.313C632.112 126.063 628.445 129.792 625.487 134.5C622.487 139.25 620.445 143.959 619.362 148.625C619.32 148.667 619.3 148.729 619.3 148.813C619.091 150.104 618.945 151.563 618.862 153.188C618.779 154.813 619.029 156.229 619.612 157.438Z" fill="white"/>
<path d="M603.8 87.4376C604.091 87.6459 604.445 87.7709 604.862 87.8126C605.32 87.8542 605.8 87.8751 606.3 87.8751C606.841 87.8334 607.3 87.8542 607.675 87.9376C608.091 87.9792 608.32 88.1667 608.362 88.5001C608.195 89.0001 607.716 89.3542 606.925 89.5626C606.175 89.7292 605.362 89.7917 604.487 89.7501C603.612 89.7084 602.925 89.5834 602.425 89.3751C601.091 88.7084 600.154 87.7917 599.612 86.6251C599.07 85.4167 598.82 84.1042 598.862 82.6876C594.654 86.3126 591.008 90.4792 587.925 95.1876C584.883 99.8959 582.279 104.792 580.112 109.875C579.987 110.208 579.779 110.458 579.487 110.625C579.154 110.792 578.8 110.792 578.425 110.625C578.091 110.458 577.883 110.188 577.8 109.813C577.675 109.479 577.612 109.125 577.612 108.75C577.612 108.375 577.57 108.042 577.487 107.75C576.987 99.5417 578.8 91.8959 582.925 84.8126C583.508 83.9792 584.216 83.6042 585.05 83.6876C585.883 83.7709 586.57 84.1459 587.112 84.8126C587.654 85.4792 587.716 86.2709 587.3 87.1876C586.216 89.3542 585.341 91.5626 584.675 93.8126C588.8 86.2292 594.32 79.8751 601.237 74.7501C601.987 74.2501 602.716 74.1459 603.425 74.4376C604.175 74.7292 604.695 75.2292 604.987 75.9376C605.32 76.6459 605.216 77.3751 604.675 78.1251C603.8 79.4584 603.091 81.0626 602.55 82.9376C602.008 84.8126 602.425 86.3126 603.8 87.4376Z" fill="white"/>
<path d="M584.8 84.4377C585.008 84.6043 585.133 84.8127 585.175 85.0627C585.216 85.3127 585.154 85.5418 584.987 85.7502C584.154 86.8752 583.258 87.896 582.3 88.8127C577.508 93.5627 572.362 97.8543 566.862 101.688C566.404 101.979 565.966 102.271 565.55 102.563C563.758 103.771 561.883 104.875 559.925 105.875C557.966 106.875 555.904 107.458 553.737 107.625C551.487 107.458 549.904 106.5 548.987 104.75C548.07 103 547.695 101.125 547.862 99.1252C547.945 96.9168 548.258 94.7502 548.8 92.6252C547.716 93.8752 546.633 95.0418 545.55 96.1252C544.133 97.7502 542.445 99.1043 540.487 100.188C537.987 101.104 536.175 100.854 535.05 99.4377C533.925 97.9793 533.57 96.0627 533.987 93.6877C534.112 92.896 534.32 91.896 534.612 90.6877C534.987 89.3127 535.279 87.9793 535.487 86.6877C535.737 85.3543 535.695 84.3752 535.362 83.7502C533.07 81.7085 529.675 80.646 525.175 80.5627C520.716 80.4793 516.32 80.6877 511.987 81.1877C510.362 81.3543 508.883 81.4793 507.55 81.5627C508.883 83.6043 509.425 86.1252 509.175 89.1252C508.966 92.0835 508.425 94.5835 507.55 96.6252C506.716 98.7502 505.466 100.604 503.8 102.188C502.133 103.771 500.154 104.813 497.862 105.313C495.529 105.313 493.862 104.5 492.862 102.875C491.82 101.25 491.279 99.3543 491.237 97.1877C491.195 94.9793 491.445 93.021 491.987 91.3127C492.695 88.6877 493.883 86.2918 495.55 84.1252C497.216 81.9168 499.279 80.2085 501.737 79.0002C503.029 78.5418 504.008 78.7293 504.675 79.5627C505.758 79.521 507.133 79.4585 508.8 79.3752C510.466 79.2918 512.008 79.2085 513.425 79.1252C514.216 79.0835 514.841 79.0418 515.3 79.0002C516.3 78.9585 517.445 78.9168 518.737 78.8752C521.07 78.6668 523.55 78.5835 526.175 78.6252C528.841 78.6668 531.279 79.0418 533.487 79.7502C535.737 80.4168 537.404 81.6668 538.487 83.5002C538.57 83.6668 538.654 83.8543 538.737 84.0627C538.862 84.271 538.945 84.4793 538.987 84.6877C539.07 84.8543 539.112 84.9377 539.112 84.9377C539.487 86.9377 539.425 88.9377 538.925 90.9377C538.8 91.396 538.716 91.8543 538.675 92.3127C538.55 92.9377 538.383 93.5418 538.175 94.1252C537.8 95.2918 537.612 96.4168 537.612 97.5002C537.612 97.5418 537.654 97.6043 537.737 97.6877C537.862 97.771 537.987 97.8335 538.112 97.8752C538.237 97.8752 538.362 97.8752 538.487 97.8752C540.32 97.1668 542.154 95.6252 543.987 93.2502C545.862 90.8335 547.57 88.3752 549.112 85.8752C550.029 84.4168 550.841 83.2085 551.55 82.2502L552.3 81.4377C552.883 81.0627 553.508 80.9585 554.175 81.1252C554.883 81.2502 555.425 81.5835 555.8 82.1252C556.133 82.5835 556.279 83.0627 556.237 83.5627C556.195 84.0627 556.008 84.521 555.675 84.9377C555.508 85.146 555.362 85.3335 555.237 85.5002C555.237 85.5002 555.216 85.521 555.175 85.5627C555.175 85.6043 555.154 85.646 555.112 85.6877C555.112 85.6877 555.091 85.7085 555.05 85.7502C555.05 85.7918 555.029 85.8127 554.987 85.8127C554.445 86.6043 553.945 87.396 553.487 88.1877C552.862 89.3543 552.341 90.5418 551.925 91.7502C551.008 94.2085 550.445 96.7293 550.237 99.3127C550.029 101.854 550.55 103.729 551.8 104.938C553.091 106.104 555.529 105.875 559.112 104.25C563.237 102.167 567.112 99.7085 570.737 96.8752C574.404 94.0002 577.841 90.9168 581.05 87.6252C581.966 86.6668 582.779 85.6877 583.487 84.6877C583.654 84.4793 583.862 84.3543 584.112 84.3127C584.362 84.2293 584.591 84.271 584.8 84.4377ZM504.487 79.5627C504.487 79.521 504.487 79.4793 504.487 79.4377C504.487 79.396 504.487 79.396 504.487 79.4377C504.487 79.4377 504.487 79.4585 504.487 79.5002C504.487 79.5002 504.487 79.521 504.487 79.5627ZM497.55 102.438C500.675 101.729 502.987 99.9585 504.487 97.1252C506.029 94.2502 506.841 91.271 506.925 88.1877C506.925 87.146 506.82 86.0627 506.612 84.9377C506.404 83.8127 505.925 82.9168 505.175 82.2502C504.966 82.7502 504.55 83.1668 503.925 83.5002C501.633 84.6668 499.779 86.3543 498.362 88.5627C496.945 90.7293 496.05 93.1043 495.675 95.6877C495.55 96.3543 495.487 97.1877 495.487 98.1877C495.487 99.1877 495.633 100.104 495.925 100.938C496.216 101.771 496.758 102.271 497.55 102.438Z" fill="white"/>
<path d="M473.987 119.375C474.195 119.375 474.362 119.437 474.487 119.562C474.654 119.729 474.716 119.917 474.675 120.125C474.675 120.333 474.591 120.5 474.425 120.625C474.258 120.792 474.07 120.875 473.862 120.875C472.779 120.875 471.695 120.958 470.612 121.125C465.154 135.417 458.383 149.167 450.3 162.375C449.3 163.542 448.425 163.958 447.675 163.625C446.925 163.333 446.32 162.708 445.862 161.75C445.362 160.833 445.05 159.958 444.925 159.125C443.966 153.875 444.55 148.625 446.675 143.375C448.758 138.125 451.57 133.375 455.112 129.125C458.07 125.667 461.612 123 465.737 121.125C470.57 109.583 473.966 98.5208 475.925 87.9375C472.841 92.4375 469.591 96.875 466.175 101.25C465.966 101.542 465.737 101.812 465.487 102.062C464.82 103.062 463.987 103.812 462.987 104.312C460.195 104.396 458.612 103.146 458.237 100.562C457.862 97.9375 458.175 95.0416 459.175 91.875C460.133 88.7083 461.237 86.3333 462.487 84.75C463.445 83.3333 464.487 82.6666 465.612 82.75C466.737 82.8333 467.466 83.3333 467.8 84.25C468.175 85.1666 467.737 86.2083 466.487 87.375C465.57 88.0833 464.695 89.3125 463.862 91.0625C463.029 92.8125 462.445 94.625 462.112 96.5C461.737 98.3333 461.82 99.75 462.362 100.75C463.612 99.375 465.05 97.6666 466.675 95.625C468.3 93.5833 469.758 91.6458 471.05 89.8125C471.633 88.9375 472.3 88.0208 473.05 87.0625C473.883 85.9791 474.654 84.875 475.362 83.75C476.112 82.5833 476.591 81.4375 476.8 80.3125C476.883 79.6875 477.175 79.2083 477.675 78.875C480.008 77.3333 481.237 77.9583 481.362 80.75C481.487 83.5416 481.008 87.2708 479.925 91.9375C478.883 96.5625 477.716 100.917 476.425 105C475.175 109.042 474.341 111.542 473.925 112.5C473.05 114.875 472.154 117.229 471.237 119.562C472.154 119.437 473.07 119.375 473.987 119.375ZM447.55 157.562C453.675 147.312 459.487 135.792 464.987 123C459.529 126 455.3 130.25 452.3 135.75C449.966 139.833 448.362 144.104 447.487 148.562C447.445 148.729 447.404 148.937 447.362 149.187C447.154 150.437 447.008 151.854 446.925 153.437C446.841 155.062 447.05 156.437 447.55 157.562Z" fill="white"/>
<path d="M445.175 84.5C445.591 85 445.529 85.5625 444.987 86.1875C444.487 86.8125 443.883 87.4167 443.175 88C442.675 88.4167 442.32 88.75 442.112 89C440.529 90.4167 437.904 92.2917 434.237 94.625C430.57 96.9583 426.55 99.125 422.175 101.125C417.8 103.125 413.8 104.333 410.175 104.75C406.55 105.167 404.008 104.188 402.55 101.813C401.175 98.3125 400.883 94.6667 401.675 90.875C402.425 87.0417 403.925 83.6458 406.175 80.6875C407.508 79.1042 409.112 78.2292 410.987 78.0625C412.862 77.8958 414.029 79.0208 414.487 81.4375C414.779 82.6458 414.425 83.9792 413.425 85.4375C412.425 86.8542 411.175 88.1667 409.675 89.375C408.216 90.5833 406.945 91.4167 405.862 91.875C405.362 94.5 405.216 96.7292 405.425 98.5625C405.758 101.229 407.341 102.521 410.175 102.438C413.05 102.354 416.383 101.542 420.175 100C424.008 98.4167 427.57 96.6875 430.862 94.8125C434.154 92.9375 436.425 91.5208 437.675 90.5625C440.05 88.8958 442.154 86.9375 443.987 84.6875C444.154 84.4792 444.341 84.375 444.55 84.375C444.8 84.3333 445.008 84.375 445.175 84.5ZM410.612 82.75C408.737 84.0417 407.383 86.1667 406.55 89.125C407.591 88.1667 408.55 87.1042 409.425 85.9375C410.3 84.7292 410.695 83.6667 410.612 82.75Z" fill="white"/>
<path d="M390.925 115.562C391.091 115.604 391.175 115.667 391.175 115.75C391.216 115.875 391.216 115.979 391.175 116.062C391.133 116.188 391.029 116.25 390.862 116.25C389.529 116.375 388.216 116.625 386.925 117C385.633 120.458 383.8 123.792 381.425 127C379.05 130.208 376.675 132.979 374.3 135.312C371.508 138.229 368.237 140.396 364.487 141.812C364.154 141.896 363.758 141.979 363.3 142.062C362.8 142.146 362.383 142.125 362.05 142C361.716 141.875 361.612 141.542 361.737 141C363.404 136.833 365.841 132.771 369.05 128.812C372.216 124.896 375.883 121.667 380.05 119.125C381.633 116.125 382.466 113.333 382.55 110.75C382.633 108.167 381.55 106.021 379.3 104.312C378.175 103.438 377.925 102.458 378.55 101.375C379.175 100.292 380.195 99.0625 381.612 97.6875C382.987 96.3542 384.279 94.8542 385.487 93.1875C386.737 91.5208 387.487 89.6458 387.737 87.5625C387.945 84.8125 387.466 83 386.3 82.125C385.133 81.25 383.32 81.7917 380.862 83.75C380.279 84.2083 379.758 84.6875 379.3 85.1875C379.133 85.3542 378.945 85.4167 378.737 85.375C378.529 85.3333 378.383 85.2292 378.3 85.0625C378.216 84.8542 378.258 84.6458 378.425 84.4375C380.758 81.4792 382.925 79.8958 384.925 79.6875C386.966 79.4792 388.529 80.3125 389.612 82.1875C390.737 84.0625 391.091 86.6042 390.675 89.8125C390.216 91.9792 389.383 94.0417 388.175 96C387.008 97.9167 385.716 99.75 384.3 101.5C386.466 103.5 387.716 105.75 388.05 108.25C388.425 110.792 388.154 113.438 387.237 116.188C388.445 115.854 389.675 115.646 390.925 115.562ZM364.8 138.188C367.05 136.104 369.487 133.521 372.112 130.438C374.737 127.396 377.05 124.229 379.05 120.938C372.758 125.604 368.008 131.354 364.8 138.188Z" fill="white"/>
<path d="M377.487 84.6877C378.529 84.5627 378.883 84.7919 378.55 85.3752C378.258 85.9169 377.529 86.6669 376.362 87.6252C375.195 88.5835 373.904 89.5835 372.487 90.6252C371.112 91.6252 369.862 92.5002 368.737 93.2502C367.612 93.9585 366.925 94.3752 366.675 94.5002C363.55 96.4585 360.341 98.2919 357.05 100C353.758 101.667 350.3 102.979 346.675 103.938C343.716 104.813 341.675 104.313 340.55 102.438C339.425 100.563 339.091 98.3127 339.55 95.6877C340.008 91.5627 341.445 87.8127 343.862 84.4377C344.57 83.646 345.341 83.3752 346.175 83.6252C347.05 83.8335 347.695 84.3335 348.112 85.1252C348.529 85.8752 348.425 86.6877 347.8 87.5627C346.425 89.521 345.279 91.7085 344.362 94.1252C343.445 96.5002 343.154 98.8752 343.487 101.25C344.362 102.084 345.57 102.354 347.112 102.063C348.654 101.771 350.112 101.334 351.487 100.75C352.154 100.5 352.737 100.313 353.237 100.188C357.695 98.3544 361.987 96.1669 366.112 93.6252C370.279 91.0835 374.07 88.1044 377.487 84.6877ZM347.8 78.5002C346.258 78.2919 345.445 77.6044 345.362 76.4377C345.32 75.271 345.737 74.2502 346.612 73.3752C347.529 72.5002 348.612 72.4377 349.862 73.1877C350.612 73.7294 350.945 74.4169 350.862 75.2502C350.779 76.0419 350.445 76.771 349.862 77.4377C349.279 78.1044 348.591 78.4585 347.8 78.5002Z" fill="white"/>
<path d="M350.8 24.0003C351.341 23.3336 351.966 23.0211 352.675 23.0628C353.425 23.1044 354.05 23.3961 354.55 23.9378C355.05 24.4794 355.216 25.1878 355.05 26.0628C354.05 28.8544 352.82 31.5836 351.362 34.2503C350.779 35.3753 350.216 36.5003 349.675 37.6253C344.716 47.3753 339.466 56.9586 333.925 66.3753C332.508 69.9169 331.091 73.4794 329.675 77.0628C329.508 77.5628 329.32 78.0836 329.112 78.6253C326.737 84.9586 324.57 91.3753 322.612 97.8753C320.654 104.334 319.362 110.938 318.737 117.688C318.57 119.354 318.529 121.042 318.612 122.75C318.695 124.459 319.05 126.084 319.675 127.625C320.091 128.542 320.695 129.229 321.487 129.688C321.904 129.979 322.091 130.313 322.05 130.688C322.05 131.104 321.883 131.438 321.55 131.688C321.216 131.938 320.82 131.959 320.362 131.75C317.862 130.084 316.487 127.125 316.237 122.875C316.029 118.667 316.341 114.188 317.175 109.438C318.05 104.729 318.883 100.813 319.675 97.6878C319.8 97.1878 319.904 96.7294 319.987 96.3128C321.57 89.6878 323.466 83.1461 325.675 76.6878C322.05 80.9794 318.258 85.1253 314.3 89.1253C310.341 93.1253 306.029 96.7294 301.362 99.9378C298.987 101.521 296.737 102.375 294.612 102.5C292.529 102.584 290.404 101.542 288.237 99.3753C286.737 97.6669 285.779 95.6878 285.362 93.4378C284.112 95.2711 282.82 97.0836 281.487 98.8753C280.112 100.709 278.716 102.542 277.3 104.375C276.3 105.75 274.945 106.604 273.237 106.938C271.487 107.021 270.3 106.417 269.675 105.125C269.05 103.792 268.987 102.375 269.487 100.875C271.32 93.7086 274.82 87.4586 279.987 82.1253C281.737 80.3336 283.862 78.8961 286.362 77.8128C287.445 77.4794 288.3 77.6253 288.925 78.2503C289.55 78.8336 289.841 79.5628 289.8 80.4378C289.758 81.3128 289.216 81.9794 288.175 82.4378C285.175 83.8961 282.591 86.1253 280.425 89.1253C278.3 92.0836 276.633 95.2503 275.425 98.6253C278.841 94.1669 282.05 89.5836 285.05 84.8753C285.508 84.1253 286.112 83.7294 286.862 83.6878C287.612 83.6461 288.279 83.8753 288.862 84.3753C289.445 84.8753 289.695 85.5419 289.612 86.3753C288.82 88.9169 288.591 91.4378 288.925 93.9378C289.258 96.4378 290.716 98.3544 293.3 99.6878C295.8 100.229 299.195 98.9378 303.487 95.8128C307.779 92.6461 312.112 88.8128 316.487 84.3128C320.904 79.7711 324.487 75.7294 327.237 72.1878C330.112 64.3961 333.258 56.7294 336.675 49.1878C338.675 44.8128 340.82 40.5003 343.112 36.2503C345.404 32.0003 347.966 27.9169 350.8 24.0003Z" fill="white"/>
<path d="M217.175 77.7502C216.133 77.7085 215.383 77.2502 214.925 76.3752C214.466 75.5002 214.529 74.6252 215.112 73.7502C215.612 72.9586 216.195 72.4169 216.862 72.1252C217.57 71.7919 218.362 71.8961 219.237 72.4377C219.779 72.8544 220.091 73.3961 220.175 74.0627C220.3 74.7294 220.154 75.3544 219.737 75.9377C219.445 76.4377 219.07 76.8752 218.612 77.2502C218.195 77.5835 217.716 77.7502 217.175 77.7502ZM278.987 83.6877C279.362 83.7294 279.591 83.896 279.675 84.1877C279.8 84.4794 279.779 84.7502 279.612 85.0002C279.487 85.2502 279.237 85.3752 278.862 85.3752C276.904 85.0419 274.925 84.8335 272.925 84.7502C267.05 84.4169 261.175 84.3335 255.3 84.5002C254.091 84.5419 252.883 84.5835 251.675 84.6252C250.133 88.8335 248.591 93.0627 247.05 97.3127C247.091 97.7294 247.133 98.146 247.175 98.5627C247.425 102.229 246.841 105.938 245.425 109.688C244.05 113.479 242.029 116.667 239.362 119.25C238.862 119.667 238.32 119.729 237.737 119.438C237.195 119.188 236.904 118.729 236.862 118.063C236.862 118.063 236.862 118.042 236.862 118C236.862 117.959 236.862 117.896 236.862 117.813C236.862 117.729 236.862 117.646 236.862 117.563C236.862 117.479 236.862 117.417 236.862 117.375C236.862 117.334 236.862 117.313 236.862 117.313C237.612 114.229 238.466 111.209 239.425 108.25C240.966 103.125 242.612 98.0419 244.362 93.0002C242.904 90.2502 240.425 88.4169 236.925 87.5002C236.841 87.4585 236.758 87.4377 236.675 87.4377C236.633 87.396 236.591 87.3752 236.55 87.3752C230.508 93.2085 225.258 97.5002 220.8 100.25C220.508 100.417 220.175 100.604 219.8 100.813C218.216 101.813 216.445 102.646 214.487 103.313C212.529 103.979 210.925 103.563 209.675 102.063C208.466 99.521 208.341 96.396 209.3 92.6877C210.216 88.9377 211.529 85.9585 213.237 83.7502C213.987 82.9585 214.779 82.6669 215.612 82.8752C216.445 83.0835 217.05 83.5835 217.425 84.3752C217.841 85.1252 217.737 85.9585 217.112 86.8752C215.779 88.7502 214.633 90.9585 213.675 93.5002C212.758 96.0002 212.383 98.396 212.55 100.688C212.55 100.729 212.57 100.792 212.612 100.875C212.654 100.917 212.716 100.938 212.8 100.938C215.841 100.854 219.091 99.6252 222.55 97.2502C226.008 94.8335 229.029 92.4794 231.612 90.1877C232.07 89.8127 232.487 89.4585 232.862 89.1252C233.57 88.4585 234.3 87.771 235.05 87.0627C233.966 86.9377 232.862 86.8544 231.737 86.8127C231.445 86.8127 231.237 86.7085 231.112 86.5002C230.987 86.2502 230.945 86.0002 230.987 85.7502C231.07 85.5002 231.258 85.3335 231.55 85.2502C233.508 84.7919 235.487 84.4377 237.487 84.1877C237.612 84.1877 237.716 84.1877 237.8 84.1877C237.925 84.1877 238.029 84.1669 238.112 84.1252C243.987 78.5835 249.154 72.4794 253.612 65.8127C254.737 62.3961 255.8 58.9794 256.8 55.5627C256.841 55.3544 256.883 55.1669 256.925 55.0002C257.716 52.3336 258.3 49.6461 258.675 46.9377C258.841 45.8544 259.341 45.1669 260.175 44.8752C261.008 44.5836 261.8 44.6669 262.55 45.1252C263.3 45.5419 263.675 46.3127 263.675 47.4377C262.758 52.6461 261.383 57.7294 259.55 62.6877C259.175 63.7294 258.82 64.7711 258.487 65.8127C256.487 71.6044 254.404 77.396 252.237 83.1877C261.154 82.896 270.07 83.0627 278.987 83.6877ZM252.362 69.6252C248.737 74.5002 244.633 79.271 240.05 83.9377C242.591 83.6877 245.133 83.5002 247.675 83.3752C249.258 78.7919 250.82 74.2086 252.362 69.6252ZM245.737 103.875C245.987 102.584 246.112 101.292 246.112 100C244.529 104.459 243.05 108.938 241.675 113.438C242.758 112.063 243.612 110.5 244.237 108.75C244.904 107.042 245.404 105.417 245.737 103.875ZM244.862 91.5627C245.612 89.3127 246.383 87.0627 247.175 84.8127C244.216 84.9794 241.258 85.271 238.3 85.6877C238.091 85.896 237.883 86.1044 237.675 86.3127C240.716 87.3544 243.112 89.1044 244.862 91.5627Z" fill="white"/>
<path d="M197.425 79.8753C197.925 79.0837 198.57 78.667 199.362 78.6253C200.195 78.542 200.883 78.7712 201.425 79.3128C202.008 79.8128 202.195 80.5212 201.987 81.4378C199.07 94.1045 195.633 106.667 191.675 119.125C192.341 119.042 192.904 119.063 193.362 119.188C193.862 119.313 194.133 119.688 194.175 120.313C194.091 120.563 193.945 120.771 193.737 120.938C193.529 121.104 193.3 121.167 193.05 121.125C192.383 121 191.716 120.959 191.05 121C188.55 128.542 185.55 135.938 182.05 143.188C178.8 149.813 175.008 156.188 170.675 162.313C170.175 162.979 169.55 163.334 168.8 163.375C168.008 163.459 167.32 163.229 166.737 162.688C165.779 161.604 165.195 159.625 164.987 156.75C164.737 153.917 165.008 151.104 165.8 148.313C167.258 143.146 169.737 138 173.237 132.875C176.695 127.75 180.904 123.813 185.862 121.063C188.904 112.146 191.55 103.125 193.8 94.0003C192.258 96.4587 190.508 98.7503 188.55 100.875C185.841 103.75 183.216 104.979 180.675 104.563C178.091 104.146 176.862 101.896 176.987 97.8128C177.487 94.6045 178.55 91.5628 180.175 88.6878C181.8 85.8128 183.82 83.2087 186.237 80.8753C188.779 78.6253 190.925 77.3337 192.675 77.0003C194.425 76.667 195.695 76.8545 196.487 77.5628C197.279 78.2712 197.508 79.1045 197.175 80.0628C196.841 80.9795 195.883 81.5837 194.3 81.8753C192.383 82.292 190.341 83.7295 188.175 86.1878C186.05 88.6045 184.362 91.2712 183.112 94.1878C181.82 97.0628 181.529 99.3753 182.237 101.125L181.925 101C183.508 101.667 185.029 101.292 186.487 99.8753C187.987 98.4587 189.341 96.6462 190.55 94.4378C191.8 92.2295 192.82 90.2503 193.612 88.5003C193.904 87.8753 194.175 87.3337 194.425 86.8753C194.966 85.6253 195.508 84.3545 196.05 83.0628C196.508 82.0212 196.966 80.9587 197.425 79.8753ZM168.237 157.438C175.362 146.688 180.987 135.313 185.112 123.313C180.737 126.063 177.07 129.792 174.112 134.5C171.112 139.25 169.07 143.959 167.987 148.625C167.945 148.667 167.925 148.729 167.925 148.813C167.716 150.104 167.57 151.563 167.487 153.188C167.404 154.813 167.654 156.229 168.237 157.438Z" fill="white"/>
<path d="M184.112 84.6877C185.154 84.5627 185.508 84.7919 185.175 85.3752C184.883 85.9169 184.154 86.6669 182.987 87.6252C181.82 88.5835 180.529 89.5835 179.112 90.6252C177.737 91.6252 176.487 92.5002 175.362 93.2502C174.237 93.9585 173.55 94.3752 173.3 94.5002C170.175 96.4585 166.966 98.2919 163.675 100C160.383 101.667 156.925 102.979 153.3 103.938C150.341 104.813 148.3 104.313 147.175 102.438C146.05 100.563 145.716 98.3127 146.175 95.6877C146.633 91.5627 148.07 87.8127 150.487 84.4377C151.195 83.646 151.966 83.3752 152.8 83.6252C153.675 83.8335 154.32 84.3335 154.737 85.1252C155.154 85.8752 155.05 86.6877 154.425 87.5627C153.05 89.521 151.904 91.7085 150.987 94.1252C150.07 96.5002 149.779 98.8752 150.112 101.25C150.987 102.084 152.195 102.354 153.737 102.063C155.279 101.771 156.737 101.334 158.112 100.75C158.779 100.5 159.362 100.313 159.862 100.188C164.32 98.3544 168.612 96.1669 172.737 93.6252C176.904 91.0835 180.695 88.1044 184.112 84.6877ZM154.425 78.5002C152.883 78.2919 152.07 77.6044 151.987 76.4377C151.945 75.271 152.362 74.2502 153.237 73.3752C154.154 72.5002 155.237 72.4377 156.487 73.1877C157.237 73.7294 157.57 74.4169 157.487 75.2502C157.404 76.0419 157.07 76.771 156.487 77.4377C155.904 78.1044 155.216 78.4585 154.425 78.5002Z" fill="white"/>
<path d="M119.8 36.9376C127.8 45.6876 132.966 55.8335 135.3 67.3751C137.675 78.8751 137.612 90.3335 135.112 101.75C132.362 114.708 127.341 126.292 120.05 136.5C112.758 146.708 103.883 155.313 93.4246 162.313C82.9662 169.354 71.5704 174.583 59.2371 178C46.9454 181.417 34.4246 182.813 21.6746 182.188C12.4662 181.896 6.27874 179.813 3.11207 175.938C-0.0545979 172.063 -0.804598 167.313 0.862069 161.688C2.5704 156.063 6.11207 150.458 11.4871 144.875C13.9037 142.333 16.4662 139.979 19.1746 137.813C21.5912 124.854 25.2579 111.104 30.1746 96.5626C35.1329 81.9793 41.2996 68.0001 48.6746 54.6251C56.0912 41.2501 64.6537 29.8335 74.3621 20.3751C73.7787 20.2918 73.1746 20.2293 72.5496 20.1876C62.2579 19.396 52.3621 21.0001 42.8621 25.0001C34.6537 28.5418 27.5496 33.7918 21.5496 40.7501C15.5912 47.7085 11.9246 55.646 10.5496 64.5626C9.96624 69.6043 10.7579 74.396 12.9246 78.9376C13.4246 80.1876 13.2996 81.1876 12.5496 81.9376C11.8412 82.6876 10.9662 83.0001 9.92457 82.8751C8.8829 82.7085 8.17457 81.9585 7.79957 80.6251C6.42457 73.3751 6.7579 66.2918 8.79957 59.3751C10.8412 52.4585 14.1329 46.1251 18.6746 40.3751C23.2162 34.6251 28.5079 29.8126 34.5496 25.9376C40.8412 22.021 47.6121 19.2501 54.8621 17.6251C62.6954 15.9168 70.6329 15.5626 78.6746 16.5626C83.8412 12.146 89.3204 8.6043 95.1121 5.93763C100.945 3.2293 107.05 1.58347 113.425 1.00013C118.008 0.708468 122.55 1.02097 127.05 1.93763C127.925 2.14597 128.591 2.6043 129.05 3.31263C129.508 3.9793 129.654 4.75013 129.487 5.62513C129.279 6.50013 128.82 7.1668 128.112 7.62513C127.404 8.08347 126.591 8.2293 125.675 8.06263C118.216 6.52097 111.112 6.6668 104.362 8.50013C97.6537 10.2918 91.3621 13.3751 85.4871 17.7501C98.8204 20.7501 110.258 27.146 119.8 36.9376ZM129.237 100.563C130.945 91.9376 131.258 83.2501 130.175 74.5001C129.133 65.7501 126.425 57.521 122.05 49.8126C117.55 42.3126 111.675 36.146 104.425 31.3126C97.2162 26.4793 89.3621 23.1668 80.8621 21.3751C72.2371 28.9585 64.5704 38.1043 57.8621 48.8126C51.1954 59.521 45.5287 70.4793 40.8621 81.6876C36.1954 92.896 32.5912 103 30.0496 112C28.0496 119.083 26.3621 126.271 24.9871 133.563C34.0704 127.521 43.9662 123.417 54.6746 121.25C62.6329 119.625 70.6537 119.333 78.7371 120.375C81.4454 120.75 84.1121 121.271 86.7371 121.938C87.4871 122.146 88.0287 122.563 88.3621 123.188C88.7371 123.813 88.8412 124.5 88.6746 125.25C88.4662 126 88.0287 126.542 87.3621 126.875C86.7371 127.25 86.0496 127.333 85.2996 127.125C82.8829 126.417 80.4454 125.854 77.9871 125.438C68.5287 123.979 59.1537 124.417 49.8621 126.75C40.6121 129.083 32.0496 132.958 24.1746 138.375C23.0912 145.167 22.5496 152 22.5496 158.875C22.4662 160.292 21.9037 161.229 20.8621 161.688C19.8621 162.146 18.8621 162.125 17.8621 161.625C16.8621 161.167 16.3412 160.208 16.2996 158.75C16.6746 153.875 17.3412 148.583 18.2996 142.875C16.7162 144.208 15.1954 145.604 13.7371 147.063C10.5287 150.104 7.79957 153.542 5.54957 157.375C2.59124 162.583 1.71624 167.229 2.92457 171.313C4.1329 175.438 7.86207 178.146 14.1121 179.438C20.4871 180.438 26.9037 180.688 33.3621 180.188C44.6954 179.438 55.6537 177 66.2371 172.875C82.2371 166.75 95.8829 157.396 107.175 144.813C118.466 132.271 125.82 117.521 129.237 100.563Z" fill="white"/>
</svg>
