<svg width="462" height="222" viewBox="0 0 462 222" fill="none" xmlns="http://www.w3.org/2000/svg">
<path d="M16.5165 169.685C17.4738 168.517 19.0654 168.103 20.4628 168.617L20.4667 168.618L22.7352 169.457L22.9003 169.523C24.5843 170.243 25.4473 172.146 24.8466 173.897L24.8456 173.899C24.0194 176.299 22.7689 178.638 21.1493 180.855C20.4093 181.868 19.7115 182.907 19.0663 183.959L19.1229 184.005L23.9052 187.62C25.1909 185.358 26.6323 183.167 28.2128 181.084C30.3124 178.312 32.5416 175.503 34.8309 172.726L34.8329 172.724C35.7787 171.579 37.3624 171.129 38.786 171.659H38.787L41.0555 172.499L41.0712 172.505C41.9216 172.828 42.6678 173.479 43.0634 174.387H43.0624C43.4504 175.264 43.4568 176.242 43.1093 177.111L43.1063 177.117C41.6722 180.668 39.6831 183.993 37.1962 187.003L37.1952 187.002C36.3991 187.967 35.6232 188.959 34.869 189.971C37.538 189.251 40.1082 188.399 42.537 187.429L43.701 186.95C47.121 185.502 50.6949 184.216 54.326 183.131C54.332 183.129 54.3386 183.128 54.3446 183.126C55.4396 182.81 56.6598 183.028 57.58 183.782H57.579L58.6093 184.62C58.657 184.653 58.7029 184.688 58.7479 184.725C59.9122 185.673 60.353 187.257 59.8241 188.675L59.8231 188.679L58.9803 190.922L58.9813 190.923C58.6492 191.82 57.9744 192.52 57.1385 192.903L57.1278 192.908C53.3837 194.598 49.3687 196.127 45.204 197.45L45.205 197.451C43.1086 198.118 41.0568 198.896 39.0682 199.772L45.9686 205.387L54.5087 210.896L54.5096 210.897C55.8916 211.79 56.4802 213.526 55.8973 215.08L55.8983 215.081L55.0526 217.334C55.0506 217.339 55.0488 217.345 55.0468 217.351C54.7084 218.229 54.0414 218.927 53.1923 219.311L53.1844 219.314L52.453 219.641C52.444 219.645 52.4347 219.648 52.4257 219.652C51.8935 219.881 51.2865 219.993 50.6561 219.927V219.928C50.6548 219.928 50.6535 219.927 50.6522 219.927C50.6503 219.927 50.6483 219.927 50.6464 219.927V219.926C50.2971 219.889 49.9357 219.803 49.577 219.645L49.5712 219.642L44.0868 217.203L44.076 217.198C43.3553 216.873 42.7717 216.317 42.4081 215.634L42.4052 215.629L41.9755 214.816C39.9712 213.731 38.0237 212.424 36.1786 210.923L36.1727 210.919C36.0787 212.684 35.4801 214.321 34.3153 215.731H34.3143C33.359 216.888 31.7773 217.315 30.369 216.797V216.796L28.1014 215.963H28.0995C26.8474 215.502 25.9407 214.37 25.8075 213.008V213.007C25.583 210.757 25.4239 208.417 25.329 206.042L22.87 210.861C22.059 212.46 20.174 213.184 18.5009 212.565H18.4999L16.2313 211.727H16.2303C14.5893 211.119 13.6362 209.4 14.0057 207.684L14.0077 207.677C14.558 205.167 15.4001 202.763 16.5135 200.527C17.1204 199.306 17.7489 198.054 18.3905 196.778L13.5682 192.556L9.96667 196.562L9.96082 196.568C8.89461 197.743 7.17474 198.069 5.75183 197.356L5.7489 197.355L3.97937 196.465L3.98035 196.464C2.88997 195.922 2.17111 194.862 2.05359 193.669L2.05457 193.668C1.80106 191.148 2.66511 188.824 4.45886 187.022C4.77545 186.702 5.08682 186.377 5.39539 186.048L3.55457 183.829L3.54675 183.82C2.63404 182.707 2.48594 181.153 3.1825 179.887L3.18445 179.883L4.13171 178.171L4.1366 178.163C4.97878 176.658 6.80088 175.96 8.44714 176.571L8.44812 176.57L10.7089 177.407C10.7487 177.422 10.7888 177.438 10.828 177.454C11.3775 176.502 11.9857 175.567 12.6503 174.658C13.8826 172.969 15.183 171.3 16.5165 169.684V169.685Z" fill="#1A1A1A" stroke="white" stroke-width="4" stroke-linejoin="round"/>
<path d="M58.249 128.627C59.2072 128.119 60.3824 128.074 61.4003 128.589L61.4013 128.588C61.4053 128.59 61.409 128.593 61.413 128.595C61.4174 128.597 61.4224 128.598 61.4267 128.601L61.4257 128.602C62.8039 129.297 63.8805 130.405 64.6679 131.777L71.5224 128.682V128.681C73.0204 127.999 74.7856 128.49 75.7275 129.817L75.7285 129.816L77.3828 132.145L77.5468 132.398C77.7809 132.795 77.9221 133.226 77.9804 133.663C79.2902 132.956 80.9357 133.179 82.0107 134.244L83.8261 136.041L83.8281 136.043L83.9521 136.173C84.5534 136.836 84.8824 137.722 84.83 138.646L84.5263 144.256C85.2356 144.253 85.9553 144.361 86.6728 144.569H86.6738C87.2613 144.74 87.7808 145.064 88.1884 145.489L88.3564 145.678L88.3642 145.688L89.7226 147.353H89.7236C90.7995 148.668 90.7385 150.567 89.5917 151.815L89.5878 151.818L88.0673 153.463L88.0605 153.471C87.3557 154.225 86.3626 154.605 85.3603 154.553C85.3477 154.552 85.3348 154.552 85.3222 154.551C84.822 154.515 84.3163 154.612 83.7343 154.923C86.5418 155.941 89.3866 156.798 92.2382 157.483H92.2392C96.9016 158.603 101.682 159.468 106.438 160.05H106.442C107.536 160.186 108.489 160.838 109.018 161.793C109.029 161.813 109.037 161.834 109.048 161.855L109.692 163.037L109.695 163.042C110.386 164.319 110.19 165.897 109.206 166.969L109.201 166.975L107.682 168.619L107.674 168.627C106.969 169.381 105.951 169.787 104.901 169.706H104.899C99.9607 169.321 94.9357 168.526 89.956 167.349H89.955C87.7564 166.828 85.5961 166.215 83.4843 165.522L90.9345 179.143V179.144C91.6351 180.426 91.4407 182.002 90.455 183.076L90.4501 183.082L88.9296 184.727L88.9286 184.726C88.2616 185.451 87.3421 185.825 86.4179 185.825C85.9548 185.825 85.474 185.731 85.0165 185.525V185.524L83.4228 184.812C83.418 184.81 83.4129 184.807 83.4081 184.805C82.7422 184.501 82.1802 183.99 81.8203 183.33V183.329L77.5468 175.512C77.1812 177.348 76.6586 179.157 75.9853 180.915C75.6943 181.686 75.1396 182.315 74.4238 182.704L74.416 182.708L73.1913 183.365L73.1923 183.366C71.9227 184.05 70.3422 183.873 69.2626 182.886V182.887L67.6064 181.378V181.377C66.6749 180.53 66.2923 179.247 66.5937 178.036V178.034C67.4112 174.765 68.0557 171.482 68.5107 168.276C68.6635 167.19 68.7745 166.099 68.8476 165.003C67.8124 165.689 67.0239 166.371 66.4687 167.014C65.7113 167.896 64.566 168.322 63.4326 168.175L63.4286 168.174L61.6357 167.938L61.624 167.936C60.5605 167.789 59.6073 167.149 59.082 166.188L59.081 166.186L58.4179 164.97V164.969C57.8355 163.903 57.8547 162.598 58.5097 161.546C58.9348 160.856 59.412 160.207 59.9355 159.597C59.9188 159.582 59.9012 159.567 59.8847 159.552C59.3596 159.064 58.7245 158.647 57.9902 158.318V158.318C57.4737 158.088 57.0619 157.747 56.7529 157.379C56.7464 157.371 56.7397 157.363 56.7333 157.356L54.4423 154.539V154.538C53.8358 153.801 53.5831 152.857 53.705 151.943V151.942L53.9433 150.162L53.9443 150.15C54.091 149.103 54.7176 148.176 55.6425 147.651L55.2714 147.669C55.2691 147.669 55.2669 147.67 55.2646 147.67L55.2499 147.671L55.249 147.67C54.1543 147.73 53.0981 147.257 52.414 146.407V146.408L51.0185 144.685L51.0195 144.684C50.1193 143.572 50.0029 142.02 50.748 140.787C51.8435 138.965 53.4716 137.598 55.5087 136.717C55.6648 136.649 55.8173 136.575 55.9687 136.503L55.6093 136.012V136.011C55.0711 135.278 54.8556 134.365 54.9921 133.484L55.2587 131.766L55.2597 131.762C55.425 130.71 56.0734 129.792 57.0214 129.287L58.2392 128.633L58.249 128.627ZM59.1074 146.594C59.9642 146.732 60.766 147.192 61.3173 147.939L61.3222 147.944C61.9841 148.849 62.8095 149.65 63.7861 150.333L60.9941 145.227L59.1074 146.594ZM74.5605 138.833C73.9129 139.145 73.1746 139.247 72.4511 139.112V139.113C71.8088 138.994 71.2943 139.095 70.7372 139.461L70.7294 139.466C70.3633 139.704 69.9967 139.935 69.6318 140.162L74.0156 148.182C74.2043 146.632 74.3917 145.089 74.5732 143.558C74.7585 141.986 74.7521 140.402 74.5605 138.833Z" fill="#1A1A1A" stroke="white" stroke-width="4" stroke-linejoin="round"/>
<path d="M130.727 128.352C131.22 128.245 131.735 128.233 132.232 128.317C132.24 128.319 132.249 128.32 132.257 128.321C134.132 128.663 136.102 128.941 138.122 129.148L138.99 129.232L138.995 129.233C142.173 129.533 145.208 130.781 148.005 132.856L148.473 133.216C150.614 134.922 152.167 137.028 153.033 139.485L153.208 140.017L153.21 140.022C153.855 142.151 154.474 144.466 155.049 146.912C155.076 147.028 155.091 147.145 155.098 147.262C155.152 147.659 155.147 148.065 155.079 148.46C155.078 148.468 155.077 148.476 155.075 148.484C154.628 150.906 153.997 153.342 153.198 155.721C152.356 158.23 151.152 160.722 149.642 163.137L149.641 163.139C149.233 163.788 148.637 164.308 147.922 164.62L147.917 164.622L145.753 165.557L145.752 165.557C145.244 165.78 144.721 165.876 144.226 165.876C142.99 165.876 141.792 165.281 141.06 164.214L140.919 163.994L139.458 161.525V161.524C138.734 160.305 138.749 158.795 139.486 157.592V157.591C141.079 154.991 142.197 152.372 142.84 149.803L142.841 149.801C143.288 148.02 143.178 145.994 142.394 143.722L137.195 140.507H135.308C135.106 141.285 134.881 142.065 134.627 142.842V142.844C133.984 144.798 133.103 146.675 132.012 148.421C131.763 148.832 131.453 149.156 131.147 149.403C131.141 149.408 131.134 149.414 131.128 149.419C129.899 150.388 128.594 151.235 127.247 151.93L127.243 151.932C125.818 152.663 124.186 153.242 122.396 153.652L122.387 153.655C122.055 153.729 121.668 153.773 121.245 153.737V153.739C119.668 153.621 118.194 153.151 116.898 152.307V152.306C115.72 151.54 114.716 150.517 113.903 149.307C113.898 149.298 113.892 149.29 113.887 149.282C113.653 148.923 113.462 148.503 113.356 148.031L113.357 148.03L112.74 145.406L112.739 145.407C112.603 144.854 112.613 144.317 112.693 143.851L112.697 143.828C113.232 140.926 114.48 138.289 116.391 136.004L116.397 135.996C118.076 134.009 119.978 132.218 122.075 130.68C122.527 130.34 123.02 130.138 123.48 130.026L123.502 130.021L130.703 128.358L130.727 128.352Z" fill="#1A1A1A" stroke="white" stroke-width="4" stroke-linejoin="round"/>
<path d="M213.177 111.37C213.499 111.36 213.809 111.393 214.102 111.459L214.39 111.537L214.407 111.542L223.499 114.455L223.716 114.532C224.713 114.922 225.488 115.733 225.828 116.751L225.895 116.973V116.975L226.428 118.997C226.913 120.836 225.888 122.722 224.099 123.335L224.1 123.336L223.329 123.6C223.575 124.557 223.415 125.549 222.924 126.364C224.044 126.621 225.138 126.951 226.202 127.348L226.207 127.35C228.389 128.17 230.45 129.303 232.329 130.72C232.427 130.772 232.522 130.83 232.611 130.898C233.398 131.504 233.897 132.402 233.999 133.379H233.998L234.594 139.027L234.596 139.041C234.645 139.535 234.597 140.045 234.428 140.548L234.427 140.547C233.577 143.092 232.318 145.512 230.687 147.744L230.683 147.748C229.114 149.882 227.288 151.897 225.256 153.731L225.255 153.73C224.909 154.045 224.526 154.267 224.14 154.418L224.127 154.423L219.323 156.265L219.318 156.267C218.132 156.718 216.776 156.52 215.764 155.716C214.573 154.77 213.255 154.37 211.56 154.514C209.379 154.704 207.197 154.763 205.061 154.695C204.82 154.919 204.569 155.145 204.31 155.372L204.311 155.373C203.192 156.361 201.813 156.905 200.343 156.905C199.797 156.905 199.262 156.827 198.75 156.692H198.748C198.502 156.627 198.292 156.533 198.233 156.508C198.221 156.503 198.21 156.499 198.198 156.494C196.612 155.783 195.209 154.764 194.034 153.477V153.476C192.985 152.332 192.101 151.09 191.409 149.775C191.404 149.765 191.399 149.754 191.394 149.744C191.283 149.524 191.166 149.24 191.091 148.905L191.089 148.906C190.741 147.399 190.352 145.941 189.922 144.581V144.578C189.314 142.643 189.132 140.601 189.37 138.52C189.379 138.391 189.397 138.287 189.408 138.224H189.407L191.104 128.787C191.343 127.445 192.319 126.354 193.62 125.963L193.885 125.895L195.909 125.441L196.199 125.388C197.284 125.234 198.369 125.581 199.16 126.304C199.853 126.136 200.577 126.04 201.321 126.013L201.614 126.002L201.917 123.256L201.504 123.377L201.505 123.378C199.698 123.918 197.777 122.979 197.091 121.227V121.226L196.16 118.843L196.158 118.838C195.586 117.359 196.045 115.678 197.299 114.696L197.762 114.347C200.101 112.657 202.833 111.756 205.826 111.647V111.646L213.16 111.37H213.177ZM217.813 144.143L219.157 144.236C220.379 142.891 221.572 141.484 222.706 140.04L222.708 140.037C223.211 139.399 223.51 138.725 223.615 137.958C222.97 137.608 222.316 137.324 221.662 137.109V137.108C221.226 136.965 220.746 136.855 220.224 136.776L217.813 144.143ZM200.509 138.644L200.49 142.929L200.852 143.9C201.323 143.799 201.802 143.732 202.288 143.697C201.986 142.945 201.747 142.168 201.575 141.368V141.367C201.373 140.429 201.221 139.466 201.115 138.481L200.509 138.644ZM212.341 122.539V122.54L212.379 123.542L212.627 122.322C212.527 122.314 212.427 122.306 212.326 122.299L212.341 122.539Z" fill="#A90BFE" stroke="white" stroke-width="4" stroke-linejoin="round"/>
<path d="M182.864 104.855C184.599 104.468 186.384 105.398 187.036 107.074C187.047 107.102 187.055 107.132 187.065 107.161L187.952 109.431L188.027 109.641C188.368 110.695 188.201 111.844 187.586 112.76L187.583 112.764C186.745 114.006 185.755 115.312 184.639 116.642C184.152 117.222 184.013 117.642 183.993 117.962L184.453 120.917L184.489 121.241C184.593 122.849 183.608 124.339 182.076 124.878L182.077 124.879L181.464 125.095C180.624 128.416 180.105 131.934 179.92 135.586C179.708 139.809 179.671 144.095 179.812 148.33L181.342 151.688L181.348 151.7H181.347C181.747 152.593 181.779 153.627 181.393 154.56C181.014 155.476 180.27 156.205 179.337 156.56L179.336 156.559L176.946 157.481L176.945 157.48C176.508 157.649 176.063 157.721 175.642 157.721C174.871 157.721 174.105 157.472 173.471 156.996V156.998C171.498 155.527 170.145 153.513 169.431 151.094L169.297 150.605C168.73 148.377 168.547 146.086 168.751 143.796L168.953 139.134L168.36 139.268L168.356 139.269C166.626 139.652 164.844 138.739 164.189 137.051L163.258 134.67L163.2 134.51C162.928 133.705 162.947 132.818 163.274 132.013C165.124 127.402 167.484 122.929 170.297 118.712C173.007 114.65 175.832 110.61 178.691 106.706L178.695 106.701C179.206 106.008 179.959 105.505 180.827 105.313V105.312L182.863 104.856L182.864 104.855Z" fill="#A90BFE" stroke="white" stroke-width="4" stroke-linejoin="round"/>
<path d="M261.698 111.52C262.441 110.621 263.59 110.156 264.763 110.303L266.105 110.47C266.139 110.472 266.174 110.472 266.208 110.476C267.687 110.654 268.868 111.769 269.145 113.212L269.188 113.505L269.489 116.401V116.403C269.599 117.479 269.19 118.557 268.372 119.287L268.371 119.286C264.047 123.191 261.073 127.967 259.51 133.509L259.511 133.51C257.851 139.402 256.472 145.523 255.413 151.719C255.489 152.148 255.617 152.487 255.783 152.771L255.871 152.911L255.875 152.917C256.949 154.528 257.346 156.387 257.097 158.345C256.943 159.556 256.154 160.573 255.057 161.044L253.146 161.867C253.142 161.869 253.136 161.871 253.132 161.873C252.716 162.048 252.265 162.148 251.788 162.148C250.981 162.148 250.168 161.865 249.519 161.289C248.479 160.366 247.677 159.214 247.132 157.892V157.891C246.812 157.118 246.474 156.392 246.131 155.736V155.736C245.85 155.202 245.732 154.626 245.745 154.073V154.065L245.961 146.585L245.962 146.555C245.972 146.323 246.005 146.018 246.111 145.684H246.11C246.673 143.85 247.18 141.986 247.633 140.116L247.004 140.175L246.994 140.176C245.166 140.336 243.483 139.017 243.288 137.134L242.987 134.238L242.988 134.237C242.893 133.329 243.17 132.433 243.728 131.743L243.73 131.74C246.579 128.233 249.652 124.761 252.866 121.421V121.42C255.951 118.218 258.922 114.888 261.696 111.522L261.698 111.52Z" fill="#A90BFE" stroke="white" stroke-width="4" stroke-linejoin="round"/>
<path d="M274.688 133.453C276.448 133.093 278.21 134.146 278.682 135.907L279.68 139.618H279.679C279.804 140.066 279.825 140.515 279.773 140.928V140.93L278.265 152.805L284.253 153.329L284.286 153.333C284.514 153.356 284.772 153.404 285.031 153.49L305.704 160.328C305.818 160.365 305.927 160.414 306.03 160.469C307.092 160.953 307.842 161.944 308 163.11L308.026 163.37V163.375L308.127 165.178C308.194 166.271 307.726 167.288 306.941 167.962L306.935 167.966C305.918 168.833 304.677 169.323 303.341 169.323C303.094 169.323 302.866 169.304 302.671 169.282C302.664 169.281 302.656 169.281 302.649 169.28L301.037 169.077V169.076C300.789 169.046 300.555 168.99 300.332 168.912C297.094 167.779 293.887 166.692 290.767 165.663L287.677 164.653C283.861 163.417 279.582 162.593 274.943 162.213L271.464 162.165V162.164C270.418 162.149 269.454 161.658 268.823 160.857L268.818 160.852L268.183 160.041L268.176 160.033C267.624 159.32 267.38 158.42 267.489 157.529L267.49 157.519L269.733 139.864L269.76 137.211C269.776 135.598 270.923 134.233 272.483 133.91L274.683 133.454L274.688 133.453Z" fill="#A90BFE" stroke="white" stroke-width="4" stroke-linejoin="round"/>
<path d="M289.43 120.215C290 120.178 290.553 120.293 291.037 120.512L291.24 120.603L295.426 120.251L295.438 120.25C296.196 120.191 296.923 120.383 297.535 120.766L297.791 120.941L297.807 120.953L301.096 123.487L301.101 123.491C301.602 123.88 301.974 124.395 302.193 124.962L302.278 125.208L302.28 125.217C303.056 127.825 303.335 130.551 303.111 133.32C302.916 135.754 302.646 138.296 302.319 140.883L302.317 140.882C302.291 141.105 302.243 141.291 302.234 141.324C302.23 141.341 302.225 141.358 302.221 141.375L299.039 152.736L299.038 152.735C298.648 154.142 297.402 155.139 295.948 155.222L294.128 155.33L294.011 155.333H293.932C292.765 155.333 291.671 154.74 291.04 153.746L291.037 153.74C290.919 153.553 290.845 153.516 290.822 153.505C290.786 153.487 290.647 153.428 290.288 153.44C290.277 153.44 290.266 153.44 290.255 153.441C289.089 153.46 287.939 153.352 286.832 153.1C286.434 153.316 285.989 153.456 285.518 153.5H285.517L283.703 153.667C283.701 153.667 283.699 153.668 283.697 153.668L283.69 153.669L283.689 153.668C282.859 153.747 282.04 153.514 281.385 153.05L281.376 153.043L280.701 152.559C280.651 152.523 280.604 152.482 280.558 152.442C280.102 152.08 279.755 151.616 279.536 151.097L279.533 151.089C278.58 148.798 278.277 146.331 278.602 143.787L279.384 137.611L279.389 137.577C279.397 137.522 279.405 137.476 279.411 137.445L279.424 137.386C279.422 137.396 279.418 137.417 279.414 137.445C279.42 137.403 279.427 137.361 279.436 137.32C279.998 134.722 280.63 132.106 281.313 129.551V129.549C282.095 126.636 283.352 123.985 285.069 121.689V121.69C285.673 120.878 286.605 120.375 287.619 120.32V120.321L289.43 120.214V120.215Z" fill="#A90BFE" stroke="white" stroke-width="4" stroke-linejoin="round"/>
<path d="M296.879 103.685C297.792 103.63 298.674 103.946 299.342 104.53C299.346 104.534 299.351 104.537 299.356 104.541C300.505 105.564 301.154 106.896 301.215 108.339C301.935 108.473 302.651 108.64 303.36 108.844L303.952 109.024L303.954 109.025C305.882 109.64 307.699 110.311 309.358 111.036C309.361 111.037 309.364 111.038 309.367 111.039C309.372 111.041 309.376 111.043 309.381 111.045C309.386 111.048 309.391 111.05 309.396 111.052H309.395C309.42 111.063 309.445 111.076 309.47 111.087L309.471 111.086L309.482 111.092C309.483 111.093 309.485 111.094 309.486 111.095C310.601 111.623 311.352 112.718 311.423 113.964L311.531 115.773L311.532 115.793C311.587 116.896 311.102 117.981 310.202 118.67L310.203 118.671L308.87 119.696V119.697C307.931 120.418 306.125 121.17 303.761 120.094C303.749 120.089 303.737 120.084 303.726 120.079C303.397 119.921 303.064 119.702 302.766 119.406L302.761 119.401C302.243 118.883 301.65 118.59 300.849 118.491L300.845 118.49L299.615 118.334L299.226 120.375L299.227 120.376C298.934 121.941 297.606 123.054 296.072 123.148L296.068 123.149L294.247 123.255C294.208 123.258 294.169 123.259 294.13 123.259H294.05C293.012 123.259 292.019 122.786 291.365 121.96L291.358 121.951C290.255 120.542 289.771 118.884 289.897 117.119L289.777 117.104L283.997 117.69L283.99 117.691C283.022 117.786 282.042 117.462 281.317 116.783V116.782L280.011 115.563C279.209 114.822 278.81 113.733 278.947 112.646L279.168 110.883L279.169 110.872C279.346 109.519 280.315 108.39 281.646 108.022H281.647C283.697 107.456 285.843 107.162 288.031 107.156C289.203 107.152 290.413 107.197 291.656 107.289L291.989 106.197C292.407 104.821 293.644 103.866 295.066 103.786H295.068L296.879 103.685Z" fill="#A90BFE" stroke="white" stroke-width="4" stroke-linejoin="round"/>
<path d="M327.217 134.42L327.231 134.421L328.956 134.553C328.989 134.554 329.022 134.552 329.055 134.554C330.745 134.673 332.07 136.008 332.214 137.661L332.224 137.822V137.831L332.303 140.06L332.304 140.073C332.331 140.987 331.992 141.883 331.346 142.552L331.341 142.557C330.388 143.537 329.661 144.821 329.217 146.424L329.132 146.749C328.635 148.77 328.089 150.778 327.511 152.726L327.611 152.813L327.615 152.817C328.452 153.553 328.876 154.653 328.753 155.758V155.762L328.548 157.557C328.379 159.08 327.218 160.282 325.731 160.537L325.725 160.538L323.382 160.932L323.381 160.93C323.16 160.971 322.965 160.982 322.812 160.982C322.131 160.982 321.47 160.779 320.909 160.408L320.898 160.4C319.836 159.688 318.982 158.766 318.388 157.656C317.822 156.598 317.522 155.43 317.493 154.206L317.492 154.207C317.344 151.726 317.739 149.208 318.633 146.729C319.183 145.196 319.704 143.665 320.186 142.159L320.656 140.661C320.784 140.239 320.993 139.859 321.249 139.538L324.292 135.706V135.707C324.957 134.861 325.959 134.401 327.006 134.411L327.217 134.42Z" fill="#1A1A1A" stroke="white" stroke-width="4" stroke-linejoin="round"/>
<path d="M347.417 135.609C348.447 135.583 349.493 136.023 350.183 136.885L350.972 137.851C351.507 138.498 352.06 139.15 352.627 139.802L353.487 140.778L353.489 140.78C354.432 141.841 355.467 142.722 356.556 143.418C356.61 143.445 356.663 143.473 356.714 143.505C357.834 144.196 358.458 145.468 358.308 146.783L358.105 148.581L358.104 148.588C357.941 149.98 356.944 151.138 355.573 151.494L355.574 151.495L353.611 152.008C353.596 152.011 353.581 152.015 353.566 152.018C353.324 152.076 353.043 152.117 352.743 152.117C352.114 152.117 351.467 151.948 350.891 151.575C349.197 150.488 347.585 149.153 346.101 147.613V147.612C344.641 146.102 343.33 144.472 342.208 142.75L342.209 142.749C341.766 142.073 341.593 141.283 341.673 140.523C341.674 140.518 341.674 140.513 341.674 140.509L341.879 138.712H341.88C342.067 137.025 343.469 135.746 345.152 135.689V135.688L347.398 135.61L347.417 135.609Z" fill="#1A1A1A" stroke="white" stroke-width="4" stroke-linejoin="round"/>
<path d="M341.723 154.206C342.766 154.18 343.807 154.621 344.498 155.485L344.581 155.578C344.633 155.629 344.679 155.659 344.723 155.679L344.789 155.702L344.797 155.705L347.361 156.481C347.754 156.598 348.075 156.601 348.402 156.506L348.546 156.458L348.884 156.341C350.568 155.795 352.311 155.78 354.028 156.286C354.047 156.291 354.067 156.296 354.087 156.302C355.39 156.695 356.332 157.82 356.49 159.165L356.511 159.437V159.44L356.59 161.657L356.591 161.904C356.554 163.134 355.846 164.231 354.783 164.797L354.78 164.799C352.888 165.801 350.848 166.31 348.721 166.31C348.175 166.31 347.626 166.277 347.074 166.212L347.069 166.211C345.128 165.977 343.148 165.579 341.177 165.028L340.333 164.783C339.729 164.601 339.157 164.25 338.714 163.725V163.724L336.578 161.229L336.576 161.226C335.831 160.352 335.559 159.14 335.91 158.011H335.911L336.309 156.699L336.31 156.696C336.738 155.3 338.003 154.34 339.453 154.286L339.457 154.285L341.703 154.207C341.709 154.207 341.717 154.206 341.723 154.206Z" fill="#1A1A1A" stroke="white" stroke-width="4" stroke-linejoin="round"/>
<path d="M416.4 148.409L416.667 148.444L416.672 148.445L418.884 148.828H418.885C420.515 149.111 421.717 150.521 421.717 152.185V152.189C421.713 154.004 421.727 155.795 421.756 157.538L421.791 159.265V159.266C421.829 161.05 422.179 162.9 422.838 164.764L423.494 165.712L423.503 165.724C424.093 166.589 424.267 167.699 423.922 168.727L423.922 168.728L423.35 170.445L423.348 170.449C422.909 171.758 421.727 172.657 420.38 172.765L420.108 172.775H420.051C420.025 172.775 419.998 172.775 419.971 172.774L417.6 172.679V172.678C416.429 172.633 415.381 171.991 414.797 171.008V171.007C413.123 168.179 412.156 165.06 411.93 161.755L411.864 160.672C411.724 158.149 411.701 155.646 411.803 153.221C411.804 153.215 411.803 153.208 411.803 153.202C411.829 152.707 411.959 152.187 412.234 151.699L413.097 150.147L413.102 150.139C413.771 148.951 415.07 148.288 416.4 148.409Z" fill="#1A1A1A" stroke="white" stroke-width="4" stroke-linejoin="round"/>
<path d="M381.93 129.387C383.27 129.13 384.629 129.316 385.836 129.972L385.842 129.976L387.555 130.916L387.563 130.92C387.957 131.139 388.312 131.435 388.6 131.803L388.719 131.964L388.72 131.965C389.252 132.735 389.979 133.458 390.913 134.107L391.326 134.38V134.381C392.143 134.898 393.003 135.416 393.892 135.933C394.267 135.568 394.617 135.181 394.938 134.771L395.347 134.259C396.312 133.078 397.353 131.983 398.456 130.995V130.995C399.365 130.178 400.644 129.911 401.802 130.289L401.801 130.29L403.469 130.828L403.472 130.829C404.269 131.089 404.932 131.629 405.351 132.327L405.358 132.337C406.539 134.331 406.319 136.563 404.952 138.382L404.946 138.39C404.448 139.046 404.08 139.607 403.832 140.055L403.825 140.067C403.644 140.387 403.399 140.705 403.079 140.98L403.078 140.979L402.275 141.68L402.935 142.178L403.14 142.346C404.128 143.217 404.528 144.582 404.156 145.857L404.154 145.864L403.637 147.61C403.635 147.616 403.633 147.623 403.631 147.629C403.294 148.73 402.426 149.595 401.308 149.92L401.297 149.923C399.321 150.485 397.331 150.111 395.628 148.937L395.621 148.932C395.038 148.527 394.471 148.167 393.933 147.85C392.467 148.919 390.943 149.927 389.383 150.86C386.904 152.343 384.197 153.509 381.341 154.327L381.34 154.325C381.002 154.425 380.677 154.46 380.399 154.46C379.997 154.46 379.648 154.386 379.367 154.3C379.353 154.296 379.339 154.292 379.326 154.287L377.596 153.718V153.717C375.902 153.16 374.921 151.393 375.349 149.664L375.956 147.21H375.958C376.226 146.11 377.023 145.234 378.051 144.842L379.566 144.258C381.09 143.666 382.641 143.047 384.195 142.41L384.199 142.408C384.456 142.303 384.707 142.189 384.953 142.068C384.544 141.762 384.149 141.451 383.769 141.133L383.192 140.641C381.851 139.471 380.542 138.148 379.294 136.703V136.702C378.508 135.794 378.254 134.541 378.637 133.4L379.211 131.682C379.587 130.552 380.524 129.714 381.663 129.445L381.93 129.387Z" fill="#1A1A1A" stroke="white" stroke-width="4" stroke-linejoin="round"/>
<path d="M402.015 158.25C402.861 157.603 403.943 157.405 404.936 157.657L405.135 157.712L405.142 157.715L406.637 158.2C406.696 158.213 406.755 158.228 406.813 158.248C408.412 158.772 409.408 160.387 409.119 162.07L409.118 162.077L408.732 164.273L408.731 164.272C408.629 164.871 408.364 165.429 407.973 165.887C405.698 168.56 403.382 171.385 401.095 174.283C399.084 176.832 396.752 179.011 394.14 180.776C394.293 181.272 394.468 181.76 394.662 182.237C395.598 184.534 395.504 186.945 394.308 189.098C394.306 189.103 394.303 189.109 394.3 189.114C393.69 190.19 392.549 190.854 391.317 190.854C391.17 190.854 390.964 190.844 390.732 190.801V190.802L388.52 190.42L388.516 190.419C387.363 190.216 386.374 189.434 385.932 188.321V188.32L383.724 182.786L380.769 182.154C379.893 181.966 379.111 181.442 378.612 180.671L378.611 180.67L376.654 177.639L376.647 177.628C376.33 177.129 376.132 176.534 376.115 175.899C376.065 174.263 376.201 172.679 376.528 171.186L376.529 171.182C376.914 169.447 377.728 167.81 378.891 166.322C378.899 166.312 378.907 166.303 378.915 166.294C379.237 165.897 379.649 165.563 380.141 165.333L380.145 165.33L381.778 164.57L381.783 164.567C382.773 164.109 383.922 164.148 384.879 164.677H384.878L386.443 165.536L386.473 165.552C386.922 165.809 387.324 166.167 387.631 166.622L387.757 166.822L387.758 166.825L390.27 171.18C391.795 170.17 393.026 168.861 394.018 167.199C396.104 163.706 398.793 160.692 402.015 158.25Z" fill="#1A1A1A" stroke="white" stroke-width="4" stroke-linejoin="round"/>
<path d="M442.311 166.921C443.254 165.348 445.265 164.801 446.87 165.673L446.873 165.674L448.846 166.75H448.848C449.677 167.203 450.268 167.974 450.51 168.863L450.659 169.387C451.42 172.003 452.515 174.566 453.921 177.008C455.449 179.659 457.203 182.233 459.126 184.664C459.167 184.707 459.208 184.752 459.246 184.799C460.199 185.989 460.246 187.653 459.399 188.895L459.393 188.904L458.344 190.424L458.339 190.431C457.709 191.336 456.672 191.902 455.535 191.902C452.049 191.902 448.798 192.414 445.855 193.412L445.853 193.413C444.283 193.944 442.664 194.412 441.01 194.821C441.144 194.953 441.277 195.085 441.411 195.215C443.838 197.576 444.823 200.684 444.463 204.213C444.461 204.229 444.459 204.244 444.457 204.26C444.454 204.282 444.438 204.398 444.408 204.541L444.41 204.542C444.037 206.386 443.197 208.01 441.856 209.259L441.855 209.258L439.367 211.578C439.338 211.605 439.308 211.631 439.278 211.656C439.233 211.694 439.069 211.831 438.867 211.958L438.868 211.959C438.863 211.962 438.857 211.965 438.852 211.968C438.847 211.971 438.841 211.976 438.836 211.98L438.835 211.979C437.321 212.936 435.591 213.48 433.728 213.619C432.881 213.683 432.256 213.896 431.733 214.23L431.723 214.236C431.171 214.583 430.541 214.763 429.904 214.763C429.184 214.763 428.456 214.534 427.845 214.069V214.07L426.387 212.966V212.965C425.996 212.67 425.684 212.302 425.459 211.894V211.893L425.334 211.669C424.507 211.241 423.77 210.679 423.139 209.987V209.987L421.364 208.038V208.037C421.036 207.681 420.794 207.263 420.645 206.82L420.646 206.82L419.262 202.73L419.263 202.729C418.929 201.741 419.059 200.646 419.63 199.763L421.234 197.268L421.255 197.236C421.581 196.751 422.043 196.315 422.638 196.032C423.791 195.483 425.018 195.219 426.273 195.265H426.286C426.556 195.277 426.824 195.306 427.089 195.346L425.354 194.242L425.349 194.24C423.977 193.363 423.414 191.645 423.981 190.13L423.982 190.126L424.828 187.884L424.83 187.879C425.324 186.579 426.569 185.668 428.015 185.666L428.761 185.66C432.239 185.615 435.638 185.319 438.885 184.792L439.579 184.676C441.819 184.285 444.018 183.766 446.153 183.128C445.504 182.094 444.855 181.06 444.203 180.029L444.202 180.027C442.602 177.493 441.381 174.751 440.585 171.879L440.586 171.878C440.329 170.965 440.468 169.99 440.95 169.19L442.311 166.92V166.921ZM434.013 202.74C434.025 202.731 434.036 202.721 434.047 202.712C434.008 202.611 433.966 202.51 433.918 202.411L434.013 202.74Z" fill="#1A1A1A" stroke="white" stroke-width="4" stroke-linejoin="round"/>
<path d="M128.165 21.1026C129.417 20.4513 130.916 20.6351 131.97 21.5186L132.175 21.7052L132.179 21.7091C133.993 23.5053 135.183 25.7616 135.761 28.3458L135.868 28.8673V28.8692C136.039 29.7758 136.22 30.6673 136.411 31.5392L151.676 27.8897L151.684 27.8878C153.234 27.5228 154.816 28.2607 155.542 29.6602L155.545 29.6661L156.74 31.9854L156.859 32.2374C157.398 33.516 157.117 34.9988 156.145 35.9933L156.142 35.9962L154.068 38.1095C154.004 38.1745 153.937 38.2352 153.867 38.2921C153.496 38.6144 153.033 38.881 152.488 39.0245L152.489 39.0255L152.484 39.0265C152.481 39.0272 152.478 39.0287 152.476 39.0294L152.475 39.0284L127.246 45.7227L126.643 47.1476L126.642 47.1466C126.308 47.94 125.701 48.5593 124.95 48.9171L124.944 48.92L124.33 49.2101C123.569 55.7838 122.969 62.5149 122.545 69.2374C122.08 76.6188 121.77 84.0358 121.627 91.297L121.626 91.296C121.603 92.5762 120.874 93.7221 119.765 94.2979L117.446 95.5011L117.445 95.5001C116.911 95.7806 116.359 95.8888 115.859 95.8888C114.711 95.8886 113.55 95.3057 112.897 94.2052L110.982 90.9952C110.971 90.9783 110.961 90.9616 110.951 90.9444C110.653 90.4152 110.478 89.7867 110.497 89.1202V89.1134C110.721 82.0798 111.094 74.7915 111.61 67.4561C112.092 60.5346 112.478 53.6338 112.761 46.9181L111.984 45.4112L111.984 45.4102C111.275 44.0368 111.57 42.3882 112.651 41.3409L112.655 41.337C114.928 39.1448 117.568 37.4314 120.485 36.2423H120.486C122.135 35.5712 123.805 34.9649 125.479 34.4308L124.035 25.9493L124.036 25.9483C123.775 24.4359 124.546 22.9869 125.839 22.3097L125.847 22.3048L128.165 21.1017V21.1026Z" fill="#1A1A1A" stroke="white" stroke-width="5" stroke-linejoin="round"/>
<path d="M131.396 59.3174C132.92 58.4114 134.928 58.7882 135.985 60.291L138.149 63.3574C138.164 63.3789 138.177 63.4021 138.191 63.4238C138.508 63.8904 138.694 64.4184 138.753 64.9521H138.755L140.185 77.4726L140.206 77.7158C140.264 78.9264 139.679 80.0815 138.67 80.7529L136.554 82.164C135.974 82.5516 135.303 82.7441 134.642 82.7441C133.744 82.7441 132.86 82.3908 132.198 81.7265C132.195 81.7232 132.191 81.7192 132.187 81.7158L129.397 78.8838L129.398 78.8828C128.81 78.2877 128.47 77.5105 128.414 76.7012L128.415 76.7002L127.486 63.8828L127.487 63.8818C127.393 62.5892 128.031 61.3535 129.141 60.6806L129.143 60.6787L131.382 59.3262L131.396 59.3174Z" fill="#1A1A1A" stroke="white" stroke-width="5" stroke-linejoin="round"/>
<path d="M144.381 54.9711C145.902 53.9755 147.885 54.3424 148.974 55.7181L149.076 55.8539L149.086 55.8666L151.25 58.934H151.249C151.463 59.2344 151.666 59.6213 151.781 60.0922H151.782L152.682 63.7201C153.845 65.9642 155.358 67.9604 157.191 69.6664V69.6674C159.019 71.3697 161.414 72.8117 164.358 73.9066C165.578 74.2652 166.823 74.4308 168.06 74.4008C168.455 74.391 168.85 74.3321 169.245 74.225L169.196 73.3412V73.3402C169.123 72.0741 169.753 70.8571 170.855 70.1927L173.093 68.8402C174.013 68.2835 175.153 68.1827 176.168 68.5941H176.167C177.828 69.2597 179.109 70.4484 179.795 72.1146C179.827 72.1814 179.858 72.2494 179.884 72.3197L180.864 74.9408L180.934 75.1459C181.082 75.6223 181.113 76.0964 181.068 76.5306L181.069 76.5316L180.824 78.8685L180.823 78.8676C180.745 79.6289 180.418 80.3464 179.879 80.9066L179.877 80.9095C178.486 82.3516 176.801 83.4471 174.887 84.1693L174.885 84.1703L170.827 85.6976C170.55 85.8021 170.218 85.8855 169.847 85.9095L169.848 85.9115C169.245 85.9518 168.637 85.975 168.021 85.975C164.535 85.9749 161.105 85.2642 157.8 83.8802H157.799C153.949 82.2671 150.693 79.8265 148.14 76.6283C146.32 74.9045 144.809 73.0019 143.655 70.9496V70.9486C142.554 68.99 141.542 66.7785 140.639 64.3656C140.632 64.3465 140.625 64.3272 140.618 64.308C140.481 63.9116 140.405 63.466 140.424 63.0023L140.425 62.9828L140.615 59.1332L140.616 59.1263C140.673 58.0453 141.238 57.0213 142.183 56.4086L144.381 54.9711Z" fill="#1A1A1A" stroke="white" stroke-width="5" stroke-linejoin="round"/>
<path d="M161.086 49.7765C162.547 48.9004 164.438 49.2137 165.529 50.5411L167.581 53.0372H167.58C168.186 53.7697 168.442 54.6959 168.349 55.5909V55.5958C168.225 56.7714 168.286 58.1809 168.568 59.795L169.494 65.132V65.1339C169.725 66.4875 169.13 67.852 167.978 68.6046L167.979 68.6056L165.772 70.049C165.763 70.0547 165.754 70.0609 165.745 70.0665C165.201 70.4128 164.557 70.6105 163.884 70.6105C162.961 70.6105 162.047 70.2396 161.375 69.5275L158.675 66.6632C158.613 66.597 158.556 66.5266 158.502 66.4552C158.073 65.9195 157.784 65.2388 157.745 64.4835L157.183 54.2902L157.182 54.2911C157.105 53.021 157.737 51.8 158.842 51.1339L161.079 49.7814L161.086 49.7765Z" fill="#1A1A1A" stroke="white" stroke-width="5" stroke-linejoin="round"/>
<path d="M177.102 46.2353C177.906 45.8765 178.822 45.8359 179.663 46.1347L179.831 46.1991L179.993 46.2704C180.79 46.6498 181.423 47.3271 181.739 48.1767L181.74 48.1757L185.925 59.3661C185.936 59.3952 185.946 59.4246 185.956 59.454C186.004 59.5993 186.142 60.0129 186.142 60.5351C186.142 60.5432 186.14 60.5514 186.14 60.5595L186.434 66.9062H186.435C186.514 68.2151 185.842 69.4085 184.783 70.0536L184.779 70.0566L182.541 71.414L182.54 71.413C181.974 71.7593 181.356 71.915 180.756 71.915C179.651 71.9149 178.587 71.384 177.926 70.4355L177.923 70.4316L175.505 66.9491C175.501 66.9439 175.497 66.9388 175.493 66.9335C175.03 66.2558 174.831 65.4441 174.904 64.6484L174.907 64.6161C175.084 62.9454 174.84 61.1162 174.109 59.1659L174.108 59.164C173.094 56.4529 172.477 53.6659 172.284 50.8847L172.285 50.8837C172.181 49.4297 172.999 48.086 174.308 47.496L177.092 46.2402L177.102 46.2353Z" fill="#1A1A1A" stroke="white" stroke-width="5" stroke-linejoin="round"/>
<path d="M216.403 10.5593C217.586 10.3436 218.777 10.7832 219.541 11.6941L220.237 12.5076C220.456 12.7575 220.662 12.9862 220.855 13.1941H220.854C221.337 13.7146 221.801 14.4542 222.003 15.4294C222.206 16.4073 222.112 17.4592 221.729 18.5486C221.726 18.5561 221.724 18.5645 221.721 18.572C221.388 19.4922 220.67 20.2195 219.752 20.5622L219.739 20.5671L219.33 20.7165L218.966 23.1091C219.5 23.1676 220.018 23.2314 220.516 23.3074C222.479 23.5983 224.286 24.3746 225.869 25.5837C225.936 25.6284 226.001 25.6761 226.064 25.7273C226.678 26.2284 227.11 26.9425 227.25 27.7536L227.273 27.9177L227.274 27.9265L227.586 30.5798C227.779 32.1874 226.784 33.6814 225.259 34.1492L225.253 34.1511L222.59 34.9607C222.583 34.963 222.575 34.9653 222.568 34.9675C221.181 35.3743 219.686 34.8393 218.875 33.6384L218.874 33.6374C218.809 33.5421 218.756 33.4724 218.713 33.4236C218.508 33.4433 218.302 33.4626 218.097 33.4773L217.807 37.4031L218.372 37.281C220.087 36.9023 221.765 37.9285 222.257 39.5661L223.064 42.239L223.066 42.2478C223.554 43.8887 222.715 45.6681 221.075 46.2986L221.076 46.2995L216.728 47.9734L214.816 68.3728L215.363 70.7331L215.534 70.7722L215.537 70.7732C216.857 71.0724 217.888 72.1558 218.088 73.53L218.416 75.7663H218.417C218.525 76.4857 218.392 77.2076 218.062 77.8288C218.058 77.836 218.054 77.8432 218.05 77.8503L216.639 80.4431C216.635 80.4513 216.63 80.4594 216.625 80.4675C216.166 81.2902 215.349 81.9339 214.326 82.1208L212.118 82.531C211.97 82.5621 211.845 82.5776 211.755 82.5847C211.618 82.5956 211.496 82.5945 211.484 82.5945C210.341 82.5945 209.245 82.0027 208.634 80.9812V80.9822C206.793 77.915 205.5 74.5971 204.8 71.1238L204.676 70.4714C204.088 67.1935 204.01 63.6931 204.422 60.0759L204.43 60.0134L205.463 52.6052L205.038 52.782C204.156 53.1577 203.169 53.1297 202.319 52.7243C201.463 52.3164 200.842 51.5762 200.571 50.698C200.569 50.6928 200.567 50.6876 200.566 50.6824L199.759 48.0046L199.758 47.9997C199.513 47.1803 199.582 46.2591 200.023 45.4529C201.099 43.4799 202.785 42.1109 204.984 41.6267L204.994 41.6247C205.558 41.5027 206.131 41.3408 206.706 41.1433C207.166 39.8333 207.429 38.4333 207.484 36.9577L207.633 32.8376L203.946 32.1882V32.1892C202.576 31.9528 201.5 30.8915 201.245 29.5242L201.244 29.5183L200.83 27.2722L200.797 27.0574C200.671 25.9821 201.074 24.8994 201.901 24.1706L201.904 24.1687C203.508 22.76 205.457 22.1455 207.549 22.3347L207.97 22.3835L207.986 22.3865C208.159 22.412 208.332 22.4335 208.503 22.4558C208.694 21.4264 208.879 20.3886 209.055 19.3484L209.056 19.3435C209.495 16.7757 210.525 14.3889 212.093 12.2673L212.29 12.0271C212.773 11.4881 213.428 11.1124 214.157 10.9773V10.9763L216.395 10.5613L216.403 10.5593Z" fill="#1A1A1A" stroke="white" stroke-width="5" stroke-linejoin="round"/>
<path d="M264.482 12.0064L266.704 12.0855L266.729 12.0865C268.131 12.1506 269.352 13.0905 269.761 14.4488L270.563 17.1128C271.091 18.8321 270.161 20.68 268.424 21.2466C266.646 21.8384 264.894 22.9884 263.24 24.7749L263.238 24.7779C263.047 24.9831 262.852 25.1816 262.656 25.3775C263.678 25.7042 264.506 26.5118 264.828 27.5816L265.633 30.2525C266.002 31.4712 265.637 32.7883 264.719 33.6451L264.715 33.648C263.985 34.327 263.187 34.8594 262.334 35.2417L264.75 35.5025H264.749C266.249 35.661 267.463 36.8175 267.682 38.3238H267.683L268.011 40.5669L268.031 40.7271C268.193 42.3754 267.113 43.9388 265.429 44.3013L265.43 44.3023C262.78 44.876 259.971 45.115 257.084 45.0064V45.0054L251.597 44.8052L250.983 46.481L254.39 46.606H254.389C257.847 46.7302 260.938 48.0723 263.513 50.4849H263.512C264.145 51.0771 264.495 51.8669 264.556 52.6665C264.557 52.6746 264.557 52.6829 264.558 52.691L264.823 56.6685H264.823C264.867 57.3257 264.709 57.9322 264.453 58.4263C264.451 58.4308 264.448 58.4355 264.446 58.44L260.657 65.6421C262.456 67.9011 264.462 70.0414 266.642 72.0269L267.671 72.9468C269.988 74.9816 272.3 76.765 274.556 78.2681C274.639 78.31 274.72 78.3562 274.799 78.4078C275.783 79.0518 276.343 80.1555 276.3 81.3101L276.237 83.1207C276.236 83.128 276.236 83.1358 276.236 83.1431C276.173 84.5708 275.205 85.8187 273.803 86.2085L273.793 86.2115L271.131 86.941C271.087 86.9532 271.041 86.9635 270.996 86.9732C270.835 87.0079 270.574 87.0562 270.253 87.0562C269.588 87.0562 268.969 86.8561 268.456 86.5269L268.45 86.523C265.436 84.5758 262.498 82.3786 259.716 79.9976L259.714 79.9957C257.472 78.0719 255.359 75.8911 253.409 73.4888C252.738 74.103 252.107 74.7483 251.523 75.4205L251.519 75.4253C249.663 77.5486 247.236 78.6959 244.407 78.5835C244.403 78.5833 244.398 78.5838 244.393 78.5835C242.99 78.5196 241.769 77.5798 241.36 76.2212V76.2222L240.554 73.5494L240.552 73.5435C240.235 72.4825 240.463 71.3217 241.188 70.4576C242.563 68.8114 244.2 67.2783 246.04 65.8843C246.758 65.34 247.224 64.8034 247.522 64.2652C247.174 63.6771 246.756 63.0777 246.265 62.4751V62.4742C245.744 61.8369 245.315 61.157 244.982 60.4419L239.297 74.479L239.293 74.4898C238.851 75.568 237.873 76.3464 236.706 76.5201H236.703L234.465 76.8501L234.464 76.8492C233.396 77.0111 232.375 76.6407 231.659 75.9429L231.653 75.9371L233.406 74.1529L231.653 75.9361C230.444 74.7488 229.758 73.2106 229.824 71.4654L229.899 69.4458L229.901 69.4068C229.919 69.049 229.997 68.6472 230.175 68.2398L240.084 45.2964L236.592 45.9126C236.587 45.9136 236.581 45.9147 236.575 45.9156C234.926 46.195 233.328 45.2046 232.839 43.606L232.836 43.5962L232.03 40.9185L232.028 40.9097C231.615 39.5217 232.137 37.9716 233.422 37.1539L233.842 36.8941C234.402 36.5583 234.975 36.2564 235.561 35.9917C234.651 35.6306 233.91 34.8767 233.606 33.8658L232.799 31.1929V31.1919C232.432 29.9742 232.797 28.6585 233.714 27.8023L233.716 27.8003L236.018 25.6548L236.024 25.6499C236.559 25.1538 237.273 24.8231 238.059 24.772V24.771L242.022 24.5054L242.189 24.4996H242.274C242.304 24.4996 242.335 24.5004 242.365 24.5015L250.146 24.7876C249.961 23.7781 250.249 22.7321 250.941 21.9605C250.944 21.9569 250.947 21.9533 250.95 21.9498C252.59 20.1428 254.403 18.3889 256.349 16.7476C258.365 15.043 260.54 13.5696 262.829 12.3775L262.863 12.3609C263.406 12.0883 263.949 12.0045 264.392 12.0044C264.422 12.0044 264.452 12.0053 264.482 12.0064Z" fill="#1A1A1A" stroke="white" stroke-width="5" stroke-linejoin="round"/>
<path d="M254.156 3.21082L255.553 3.24792L255.579 3.24988C255.949 3.26754 256.33 3.34656 256.699 3.4989L256.856 3.56824L256.861 3.57117L259.858 5.00281L259.857 5.00378C260.815 5.45923 261.462 6.32286 261.675 7.29773L261.712 7.49597L261.715 7.51941L262.044 9.76648H262.043C262.29 11.4424 261.244 13.0391 259.597 13.4686H259.594L256.517 14.2675C256.49 14.2747 256.462 14.2817 256.433 14.288C256.165 14.3479 255.773 14.4039 255.32 14.3534V14.3524L248.739 13.6464L236.766 15.7528L236.765 15.7489C236.452 15.8048 236.194 15.8016 236.189 15.8016C234.827 15.8015 233.596 14.9623 233.099 13.6864C233.064 13.6055 233.032 13.5229 233.006 13.4374L232.2 10.7655L232.201 10.7645C231.719 9.17656 232.484 7.47126 233.999 6.78015L233.998 6.77917C237.302 5.26722 240.857 4.25349 244.552 3.75867L245.897 3.59363C248.599 3.2931 251.367 3.16512 254.156 3.21082Z" fill="#1A1A1A" stroke="white" stroke-width="5" stroke-linejoin="round"/>
<path d="M237.96 11.4525L239.769 11.516L239.81 11.5179C241.023 11.581 242.151 12.3095 242.675 13.4701L242.924 14.0502C243.398 15.2162 243.724 16.4094 243.877 17.6097L243.939 18.2103L243.94 18.2152C243.948 18.3216 243.979 18.5756 244.507 19.0248C244.512 19.0285 244.517 19.0318 244.522 19.0355L246.272 20.4144H246.271C247.117 21.0772 247.574 22.1018 247.535 23.1449L247.536 23.1459L247.472 24.8822C247.472 24.8892 247.471 24.8967 247.471 24.9037C247.408 26.2962 246.48 27.5244 245.115 27.9379L242.448 28.7474L242.447 28.7445C242.1 28.8523 241.772 28.8929 241.484 28.8929C240.959 28.8929 240.409 28.7692 239.892 28.4838V28.4847C239.886 28.4816 239.88 28.4781 239.874 28.475C239.869 28.4719 239.863 28.4693 239.858 28.4662V28.4652C238.203 27.5526 236.816 26.2476 235.722 24.6527C234.802 23.3161 234.006 21.9566 233.365 20.6107L233.367 20.6097C233.099 20.0528 233.043 19.521 233.043 19.1517C233.043 19.1218 233.044 19.0918 233.045 19.0619L233.14 16.4213H233.142C233.167 15.6841 233.435 15.0266 233.829 14.5121L233.846 14.4906L235.23 12.723L235.232 12.724C235.915 11.8468 236.944 11.4315 237.923 11.4515L237.96 11.4525Z" fill="#1A1A1A" stroke="white" stroke-width="5" stroke-linejoin="round"/>
<path d="M248.826 11.1224C250.173 10.7016 251.626 11.1889 252.46 12.2991C254.154 14.55 254.808 17.2155 254.474 20.0657V20.0677C254.242 22.0325 254.094 23.897 254.033 25.6087C254.033 25.6155 254.033 25.6224 254.032 25.6292C253.97 27.057 253.002 28.3048 251.6 28.6946L251.591 28.6976L248.928 29.427C248.883 29.4393 248.838 29.4496 248.793 29.4593C248.632 29.494 248.371 29.5423 248.05 29.5423C247.002 29.5423 245.998 29.0469 245.362 28.1741C245.359 28.17 245.356 28.1655 245.353 28.1614C243.747 25.9301 243.125 23.3042 243.415 20.4974C243.618 18.4976 243.75 16.6479 243.812 14.9876L243.813 14.9661C243.876 13.5737 244.804 12.3456 246.168 11.9319V11.931L248.789 11.136C248.802 11.1319 248.814 11.1263 248.826 11.1224Z" fill="#1A1A1A" stroke="white" stroke-width="5" stroke-linejoin="round"/>
<path d="M304.803 34.1199L307.455 34.1306C307.461 34.1306 307.466 34.1306 307.472 34.1306C309.238 34.1493 310.683 35.4875 310.875 37.2107L310.89 37.3787L310.891 37.3894L311.114 41.1902H311.112C311.161 41.966 310.942 42.7004 310.556 43.2908L310.555 43.2927L304.176 53.03C304.756 53.6499 305.281 54.3374 305.751 55.0857H305.752L308.251 59.0593L308.258 59.0691H308.257C308.311 59.1564 308.357 59.2395 308.396 59.3142L308.49 59.5115L308.501 59.5378C309.404 61.642 309.792 63.9386 309.699 66.3279V66.3298C309.608 68.6538 309.097 70.9858 308.199 73.2527C308.193 73.2683 308.187 73.2841 308.181 73.2996C308.044 73.6258 307.851 73.9501 307.598 74.2429L307.593 74.2488L301.08 81.7498C301.075 81.7559 301.069 81.7622 301.064 81.7683C300.637 82.2496 300.052 82.6461 299.34 82.8298L299.339 82.8289L297.164 83.4089L297.165 83.4099C296.869 83.4893 296.566 83.5261 296.275 83.5261C295.264 83.526 294.289 83.08 293.624 82.283L291.996 80.3347V80.3337C291.273 79.4742 291.053 78.3658 291.27 77.3699C291.271 77.3633 291.273 77.3569 291.275 77.3503L291.741 75.2849L291.747 75.2605C292.005 74.1719 292.784 73.2267 293.9 72.8093V72.8083C295.348 72.2643 296.304 71.3746 296.959 69.9548C297.626 68.5045 298.076 66.9856 298.302 65.4226L295.774 62.2937L288.496 69.1248L288.493 69.1277C287.648 69.9179 286.477 70.2229 285.372 69.9744L285.365 69.9734L283.404 69.5261V69.5251C281.976 69.2001 280.895 68.0079 280.737 66.5261L280.386 63.2898L280.387 63.2888C280.277 62.2797 280.615 61.2729 281.308 60.5388V60.5378L287.368 54.1179C286.839 53.8227 286.319 53.5373 285.808 53.2654L285.807 53.2644C284.052 52.3299 282.212 51.3004 280.338 50.2097C279.22 49.5709 278.549 48.3601 278.603 47.071L278.708 44.4304C278.753 43.2677 279.378 42.2481 280.3 41.656L280.311 41.6492C281.839 40.6777 283.593 40.2614 285.409 40.6785H285.408L288.12 41.2947H288.119C288.397 41.3574 288.644 41.4506 288.859 41.5544L289.066 41.6619L289.097 41.6804L295.379 45.3494C296.223 44.2679 297.086 43.1359 297.953 41.9578L297.956 41.9529C299.412 39.9845 300.681 37.967 301.74 35.9636V35.9646C302.334 34.8345 303.506 34.12 304.793 34.1199H304.803Z" fill="#1A1A1A" stroke="white" stroke-width="5" stroke-linejoin="round"/>
<path d="M317.171 45.4973C317.863 44.1884 319.32 43.4556 320.8 43.7063H320.801L324.09 44.2649L324.094 44.2659C325.541 44.5143 326.691 45.657 326.925 47.1291L327.089 48.1037C327.951 52.9574 329.414 57.5125 331.439 61.6575C333.648 66.1799 335.994 70.8442 338.416 75.5168L339.178 76.2893L339.188 76.2991C340.07 77.2036 340.401 78.5244 340.019 79.7522L340.017 79.7561L339.227 82.2795C339.011 82.9687 338.592 83.5463 338.069 83.9621C338.059 83.9708 338.047 83.979 338.036 83.9875C337.126 84.6873 336.039 85.0812 334.879 85.0813C333.93 85.0813 333.035 84.8159 332.241 84.3918L332.24 84.3909L330.251 83.3264V83.3244C329.599 82.9786 329.11 82.4507 328.804 81.8537L328.799 81.844C326.318 76.9585 323.788 71.993 321.216 66.9465V66.9455C318.464 61.5606 316.659 55.6339 315.85 49.343C315.848 49.3261 315.846 49.3091 315.844 49.2922C315.777 48.6675 315.868 47.9532 316.228 47.2795H316.227L317.17 45.4963L317.171 45.4973Z" fill="#1A1A1A" stroke="white" stroke-width="5" stroke-linejoin="round"/>
<path d="M333.808 40.9436C334.734 40.4969 335.813 40.4829 336.751 40.9114L336.938 41.0032L336.941 41.0051L338.598 41.8899C338.633 41.9061 338.668 41.9209 338.703 41.9387C340.01 42.6244 340.706 44.043 340.518 45.4563L338.775 58.5696C338.657 59.5116 338.157 60.3546 337.413 60.9094L337.412 60.9085C336.806 61.3622 336.084 61.5969 335.345 61.5969C335.143 61.5969 334.964 61.5766 334.919 61.5715C334.88 61.5672 334.842 61.5621 334.803 61.5559L331.599 61.0442V61.0432C330.612 60.887 329.714 60.3018 329.182 59.4085L329.181 59.4094L328.603 58.4456L328.604 58.4446C328.206 57.7857 328.039 57.0085 328.133 56.2424L329.538 44.7805C329.68 43.6075 330.412 42.6058 331.445 42.0969L331.453 42.093L333.797 40.9485L333.808 40.9436Z" fill="#1A1A1A" stroke="white" stroke-width="5" stroke-linejoin="round"/>
<path d="M343.157 45.7903C343.887 45.3183 344.766 45.1431 345.611 45.2874L345.61 45.2884L348.878 45.844C350.082 46.0395 351.07 46.8535 351.516 47.9515C351.568 48.0652 351.612 48.1835 351.647 48.306C352.451 51.1424 352.56 53.9554 351.897 56.636L351.896 56.6419C351.311 58.9857 350.372 61.374 349.117 63.7405L349.116 63.7395C348.505 64.9011 347.312 65.5794 346.065 65.5794C345.854 65.5794 345.645 65.56 345.441 65.5228C345.436 65.5219 345.431 65.5207 345.426 65.5198L342.265 64.9241C342.259 64.923 342.253 64.9214 342.248 64.9202C340.592 64.5955 339.412 63.126 339.45 61.4417V61.4368C339.512 58.9095 339.831 56.4639 340.403 54.1604H340.404C340.885 52.2129 341.295 50.1909 341.618 48.1536C341.619 48.1449 341.62 48.136 341.622 48.1272C341.769 47.2563 342.251 46.4378 343.012 45.889L343.157 45.7903Z" fill="#1A1A1A" stroke="white" stroke-width="5" stroke-linejoin="round"/>
<path d="M129.086 22.877C129.646 22.5847 130.326 22.6917 130.771 23.13L130.772 23.131C132.389 24.7322 133.44 26.7913 133.902 29.2384V29.2393C134.208 30.8621 134.549 32.4403 134.919 33.9513L152.141 29.8351H152.143C152.796 29.6814 153.46 29.9905 153.767 30.5811L153.768 30.5821L154.965 32.9073C155.256 33.4674 155.151 34.1484 154.715 34.5948L154.714 34.5958L152.641 36.7091C152.617 36.7329 152.59 36.7523 152.564 36.7706C152.399 36.9165 152.202 37.0329 151.976 37.0919L151.977 37.0929L125.788 44.0401L124.802 46.3663L124.8 46.3653C124.661 46.6986 124.41 46.9599 124.09 47.1124H124.088L122.472 47.877C121.645 54.8355 120.999 61.9787 120.549 69.1114C120.083 76.5205 119.77 83.9666 119.627 91.2579C119.618 91.795 119.311 92.2796 118.843 92.5226L116.526 93.7257L116.525 93.7247C116.307 93.8405 116.078 93.8888 115.859 93.8888C115.37 93.8886 114.882 93.6392 114.611 93.1788V93.1778L112.698 89.9708L112.693 89.961C112.561 89.7275 112.488 89.4569 112.496 89.1788V89.1778C112.719 82.1705 113.091 74.9073 113.606 67.5968L113.787 64.9102C114.198 58.6916 114.532 52.5062 114.781 46.4727L113.761 44.4942V44.4952C113.461 43.9179 113.585 43.2214 114.043 42.7774V42.7765C116.131 40.7622 118.556 39.1887 121.24 38.0948L122.102 37.7511C123.972 37.0191 125.863 36.3747 127.746 35.8311L126.007 25.6143V25.6134C125.895 24.9831 126.215 24.3698 126.767 24.0811L126.769 24.0802L129.086 22.877Z" fill="#FF46DC" stroke="#FF46DC" stroke-linejoin="round"/>
<path d="M132.419 61.0371C133.068 60.6511 133.912 60.8162 134.352 61.4463H134.351L136.514 64.5107C136.522 64.5208 136.527 64.5325 136.533 64.543C136.663 64.734 136.744 64.9534 136.767 65.1787L138.2 77.7119H138.199C138.263 78.256 138.013 78.7896 137.56 79.0898L135.445 80.5C135.202 80.6628 134.919 80.7441 134.642 80.7441C134.267 80.7441 133.895 80.5964 133.614 80.3144L133.612 80.3125L130.822 77.4805V77.4795C130.577 77.2328 130.433 76.9072 130.409 76.5625V76.5615L129.481 63.7392L129.48 63.5371C129.511 63.0689 129.767 62.639 130.177 62.3906L132.416 61.0381L132.419 61.0371Z" fill="#FF46DC" stroke="#FF46DC" stroke-linejoin="round"/>
<path d="M145.476 56.6459C146.092 56.2416 146.892 56.3685 147.361 56.9047L147.449 57.0179L147.451 57.0199L149.614 60.0834L149.686 60.1927C149.754 60.3076 149.811 60.4386 149.844 60.5844H149.843L150.798 64.432C152.079 66.9628 153.769 69.2136 155.828 71.1302C157.895 73.0542 160.549 74.633 163.725 75.806C165.162 76.2363 166.639 76.4366 168.11 76.4008L168.558 76.3754C169.505 76.2908 170.428 76.0087 171.323 75.5394L171.193 73.2289V73.2279C171.161 72.6938 171.427 72.1823 171.889 71.9047L174.127 70.5521C174.515 70.3172 174.993 70.2759 175.417 70.4476H175.416C176.644 70.9377 177.516 71.7777 177.975 72.9457C177.988 72.9692 178 72.9939 178.01 73.0199L178.997 75.6605H178.996C179.08 75.8795 179.103 76.1079 179.079 76.3256L178.835 78.6615C178.803 78.9839 178.664 79.2845 178.438 79.5199V79.5209C177.26 80.742 175.828 81.6768 174.181 82.2982H174.18L170.122 83.8265C169.998 83.8732 169.859 83.9076 169.711 83.9164L169.71 83.9154C169.146 83.9531 168.584 83.975 168.021 83.975C164.812 83.9749 161.644 83.3217 158.573 82.0355C154.976 80.5288 151.961 78.2518 149.609 75.265C147.879 73.6428 146.464 71.866 145.398 69.9691C144.354 68.1123 143.384 65.9955 142.512 63.6644L142.508 63.6537C142.447 63.4764 142.414 63.2803 142.422 63.0853V63.0814L142.614 59.2318V59.2308C142.638 58.7726 142.877 58.343 143.269 58.0883L145.476 56.6449V56.6459Z" fill="#FF46DC" stroke="#FF46DC" stroke-linejoin="round"/>
<path d="M162.116 51.4923C162.734 51.1213 163.528 51.2557 163.984 51.8107L166.035 54.3048L166.122 54.423C166.314 54.7071 166.395 55.0483 166.36 55.3849V55.3859C166.212 56.7878 166.292 58.3899 166.599 60.1437L167.522 65.4708L167.536 65.5773C167.587 66.1107 167.338 66.6359 166.883 66.9327L164.677 68.3751L164.672 68.3781C164.436 68.5282 164.163 68.6105 163.884 68.6105C163.496 68.6105 163.113 68.4555 162.83 68.1554L160.131 65.2911C160.112 65.2705 160.095 65.2479 160.079 65.2247C159.884 64.9896 159.757 64.6938 159.741 64.3741L159.179 54.1681L159.18 54.1671C159.149 53.6333 159.413 53.1223 159.875 52.8448L162.114 51.4923H162.116Z" fill="#FF46DC" stroke="#FF46DC" stroke-linejoin="round"/>
<path d="M177.916 48.0624C178.279 47.9007 178.692 47.8916 179.065 48.0458C179.434 48.199 179.727 48.4989 179.866 48.8759L184.052 60.0673L184.058 60.0839C184.093 60.1896 184.142 60.3497 184.142 60.5351C184.142 60.5463 184.139 60.5572 184.138 60.5683L184.439 67.0331H184.437C184.467 67.5733 184.191 68.0728 183.743 68.3456L183.742 68.3466L181.504 69.704L181.503 69.703C181.267 69.849 181.012 69.915 180.756 69.915C180.293 69.9149 179.847 69.6935 179.567 69.2909L179.566 69.29L177.148 65.8085L177.145 65.8056C176.95 65.521 176.864 65.1752 176.896 64.8329L176.897 64.8261C177.11 62.8055 176.807 60.6637 175.982 58.4638L175.981 58.4628C175.031 55.9233 174.458 53.3261 174.279 50.747L174.28 50.746C174.234 50.1359 174.576 49.5692 175.13 49.3193L177.914 48.0634L177.916 48.0624Z" fill="#FF46DC" stroke="#FF46DC" stroke-linejoin="round"/>
<path d="M216.761 12.5271C217.231 12.4413 217.703 12.6148 218.008 12.9802C218.513 13.5819 218.974 14.1075 219.386 14.5525C219.661 14.8483 219.928 15.2692 220.045 15.8357C220.163 16.4023 220.125 17.0821 219.842 17.8855L219.841 17.8904C219.707 18.2619 219.418 18.5525 219.052 18.6892L219.049 18.6902L217.529 19.2478L216.668 24.9206C217.948 24.9994 219.141 25.1202 220.226 25.2859H220.225C221.872 25.5303 223.388 26.187 224.725 27.2273C224.751 27.2418 224.777 27.259 224.8 27.2781C225.034 27.4685 225.2 27.7316 225.266 28.029L225.288 28.1589L225.289 28.1599L225.601 30.8152L225.61 30.9343C225.628 31.5254 225.246 32.0613 224.673 32.237L224.671 32.238L222.009 33.0466L222.004 33.0486C221.486 33.2006 220.929 33.0225 220.595 32.6052L220.532 32.5183C220.131 31.9241 219.768 31.6522 219.484 31.5251C219.203 31.3993 218.952 31.3941 218.73 31.4158L218.729 31.4148C217.902 31.5017 217.067 31.54 216.234 31.5505L215.615 39.9285L218.797 39.2351C219.476 39.0827 220.146 39.4881 220.342 40.1433L221.149 42.8161L221.15 42.8181C221.345 43.4742 221.007 44.1828 220.356 44.4324L220.357 44.4333L214.853 46.5525L212.794 68.5076L213.698 72.4079L215.094 72.7234L215.192 72.7497C215.672 72.898 216.038 73.3118 216.111 73.822H216.11L216.439 76.0642L216.451 76.1716C216.468 76.4208 216.413 76.6699 216.295 76.8904L216.293 76.8943L214.882 79.487L214.879 79.4919C214.69 79.8312 214.361 80.0827 213.96 80.154L213.961 80.155L211.723 80.5701C211.611 80.596 211.511 80.5945 211.484 80.5945C211.026 80.5945 210.59 80.3573 210.349 79.9529L210.032 79.4109C208.474 76.6891 207.373 73.7711 206.76 70.7283L206.644 70.1179C206.094 67.0525 206.017 63.749 206.41 60.3025L206.411 60.2898L207.928 49.4167L204.25 50.9451L204.249 50.9441C203.904 51.0895 203.517 51.08 203.179 50.9187C202.839 50.7562 202.591 50.4635 202.482 50.1091L202.481 50.1052L201.674 47.4275V47.4265C201.575 47.0924 201.606 46.7254 201.779 46.4109H201.778C202.604 44.8961 203.833 43.9279 205.415 43.5798L205.416 43.5788C206.356 43.3755 207.308 43.0798 208.245 42.7019C208.99 40.9397 209.408 39.0373 209.483 37.0329L209.694 31.1697L204.286 30.2175V30.2185C203.74 30.1244 203.312 29.703 203.21 29.157V29.156L202.796 26.9089C202.712 26.4502 202.873 25.9803 203.223 25.6716L203.224 25.6706C204.404 24.6344 205.81 24.1841 207.376 24.3279L207.692 24.364L207.695 24.365C208.534 24.4884 209.347 24.5728 210.126 24.6316C210.441 23.0062 210.746 21.3481 211.028 19.6814V19.6804C211.413 17.4292 212.314 15.3334 213.702 13.4568C213.898 13.1912 214.194 13.0037 214.522 12.9431L216.76 12.5271H216.761Z" fill="#35A3FF" stroke="#35A3FF" stroke-linejoin="round"/>
<path d="M264.409 14.0044L266.632 14.0845H266.637C267.198 14.1101 267.685 14.4857 267.847 15.0259H267.846L268.652 17.7007C268.863 18.3895 268.491 19.1211 267.804 19.3453L267.803 19.3443C265.648 20.0589 263.618 21.4229 261.773 23.4156L261.772 23.4165C260.36 24.9364 258.834 26.1517 257.213 27.0533L261.699 27.2183L261.704 27.2193C262.265 27.2449 262.751 27.6198 262.913 28.1597L263.72 30.8316L263.761 31.0142C263.826 31.4429 263.674 31.8841 263.354 32.1832V32.1841C261.873 33.5613 260.087 34.1481 258.082 33.9009C257.008 33.7689 255.962 33.6697 254.954 33.604C254.822 34.5274 254.399 35.3429 253.697 35.9976L253.698 35.9986C253.593 36.0974 253.502 36.1962 253.421 36.2925L264.535 37.4908H264.534C265.132 37.5518 265.617 38.0132 265.703 38.6128L266.032 40.8589L266.045 40.9878C266.078 41.6256 265.65 42.2084 265.006 42.3462L265.007 42.3472C262.529 42.8836 259.888 43.11 257.159 43.0074L250.218 42.7544L248.156 48.3785L254.317 48.605C257.265 48.7109 259.903 49.8434 262.145 51.9439C262.363 52.1482 262.5 52.4156 262.547 52.6978L262.562 52.8199L262.563 52.8248L262.827 56.8003C262.845 57.0557 262.783 57.3008 262.677 57.5064L262.676 57.5093L258.288 65.8521C260.356 68.5807 262.709 71.1503 265.296 73.5064L266.351 74.4498C268.773 76.5771 271.201 78.4481 273.583 80.0249C273.625 80.0385 273.667 80.0559 273.704 80.0806C274.096 80.3369 274.317 80.7746 274.3 81.2349L274.301 81.2359L274.238 83.0513V83.0552C274.212 83.6304 273.823 84.1272 273.267 84.2818L273.265 84.2828L270.603 85.0123C270.594 85.0147 270.584 85.0162 270.575 85.0181C270.484 85.0378 270.377 85.0562 270.253 85.0562C269.993 85.0562 269.746 84.9773 269.537 84.8433H269.536C266.967 83.1833 264.451 81.3349 262.042 79.3414L261.017 78.4781C258.414 76.2447 255.983 73.6413 253.788 70.7261L253.585 70.7193C252.28 71.7471 251.077 72.8844 250.013 74.1089L250.012 74.1099C248.521 75.8163 246.66 76.6718 244.487 76.5855H244.484C243.923 76.5598 243.437 76.1847 243.275 75.6451L242.469 72.9722L242.468 72.9712C242.341 72.5451 242.434 72.0813 242.725 71.7378C243.992 70.2212 245.516 68.7911 247.249 67.4781L247.498 67.2828C248.653 66.3476 249.375 65.3141 249.732 64.148C249.245 63.1646 248.603 62.1794 247.816 61.2124V61.2115C246.644 59.7795 246.071 58.1234 246.139 56.3101L246.14 56.3062C246.165 55.7469 246.537 55.2582 247.076 55.0943L247.159 55.0679L246.213 55.0005L244.948 55.1978L237.444 73.729L237.443 73.731C237.265 74.1636 236.875 74.4726 236.412 74.5415H236.411L234.18 74.8697C234.179 74.8698 234.178 74.8705 234.177 74.8707L234.173 74.8716L234.172 74.8707C233.751 74.9369 233.347 74.7955 233.056 74.5113L233.055 74.5103C232.211 73.6808 231.781 72.6743 231.823 71.5415L231.898 69.5191V69.5113C231.906 69.358 231.939 69.1957 232.009 69.0367L243.295 42.9058L242.322 42.8707L236.244 43.9429H236.241C235.585 44.0542 234.947 43.661 234.751 43.022V43.0201L233.945 40.3414V40.3404C233.777 39.7764 233.993 39.1581 234.502 38.8374C236.466 37.5829 238.614 36.8383 240.878 36.6177L242.286 36.4771C243.604 36.342 244.945 36.1926 246.292 36.0347L247.3 33.2925L242.21 33.107L237.058 34.2017L237.053 34.2027C236.384 34.3387 235.717 33.9475 235.52 33.2867V33.2876L234.714 30.6158L234.673 30.4332C234.608 30.0045 234.759 29.5633 235.079 29.2642H235.08L237.382 27.1187L237.383 27.1177C237.574 26.9406 237.819 26.8185 238.083 26.7789L238.198 26.7662L242.156 26.5005L242.189 26.4996H242.292L252.823 26.8873L252.142 24.5582V24.5552C252.015 24.113 252.124 23.6365 252.43 23.2955L252.432 23.2935C254.012 21.552 255.762 19.8597 257.641 18.2749L258.364 17.6802C260.065 16.3177 261.87 15.1318 263.752 14.1519L263.759 14.148C263.969 14.0424 264.193 14.0045 264.392 14.0044C264.398 14.0044 264.404 14.0042 264.409 14.0044ZM254.572 58.7623C254.957 58.194 255.371 57.6644 255.814 57.1734C255.82 57.1652 255.825 57.1558 255.832 57.148C256.144 56.8044 256.335 56.3539 256.378 55.7486L251.713 55.4087L254.572 58.7623Z" fill="#35A3FF" stroke="#35A3FF" stroke-linejoin="round"/>
<path d="M246.119 5.58191C249.17 5.24261 252.313 5.12961 255.478 5.24695H255.483C255.614 5.25317 255.746 5.27815 255.873 5.32312L255.998 5.37488L255.999 5.37585L258.996 6.8075H258.995C259.349 6.97448 259.599 7.28448 259.701 7.64636L259.735 7.80457L259.736 7.80945L260.065 10.0555H260.064C260.159 10.6855 259.798 11.2829 259.212 11.496L259.092 11.5331L256.015 12.3319C256.009 12.3333 256.003 12.3346 255.998 12.3358C255.868 12.3648 255.709 12.3847 255.542 12.3661V12.3651L248.671 11.6278L236.42 13.7831L236.419 13.7811C236.317 13.8007 236.226 13.8016 236.189 13.8016C235.644 13.8015 235.149 13.4611 234.955 12.9442C234.941 12.9176 234.93 12.8896 234.921 12.8602L234.115 10.1913L234.085 10.0712C233.959 9.47224 234.264 8.85479 234.833 8.59753C237.95 7.17126 241.312 6.21049 244.817 5.74109L246.119 5.58191Z" fill="#35A3FF" stroke="#35A3FF" stroke-linejoin="round"/>
<path d="M237.889 13.4506V13.4515L239.698 13.515H239.706C240.195 13.5404 240.645 13.8355 240.852 14.2933L241.071 14.8041C241.556 15.9961 241.853 17.1928 241.945 18.3676V18.3685C242.006 19.1552 242.406 19.8799 243.268 20.5961C243.273 20.5998 243.278 20.6029 243.283 20.6068L245.034 21.9857H245.033C245.368 22.2459 245.552 22.6546 245.536 23.0717L245.537 23.0726L245.474 24.809V24.8129C245.45 25.3375 245.121 25.8 244.635 25.9906L244.535 26.0248L241.867 26.8344L241.866 26.8334C241.733 26.876 241.604 26.8929 241.484 26.8929C241.268 26.8929 241.053 26.8414 240.852 26.7289V26.7299C239.482 25.9806 238.311 24.8914 237.369 23.5179V23.5189C236.502 22.2593 235.762 20.9906 235.171 19.7504L235.172 19.7494C235.072 19.5441 235.043 19.3313 235.043 19.1517C235.043 19.1459 235.043 19.14 235.043 19.1342L235.139 16.4935C235.148 16.2054 235.253 15.9415 235.417 15.7279L235.42 15.724L236.801 13.9603C237.065 13.616 237.477 13.4423 237.882 13.4506H237.889Z" fill="#35A3FF" stroke="#35A3FF" stroke-linejoin="round"/>
<path d="M249.423 13.0315C249.951 12.8665 250.53 13.0578 250.863 13.5013L251.109 13.844C252.21 15.4631 252.685 17.3335 252.531 19.3899L252.488 19.8333C252.25 21.8447 252.098 23.764 252.034 25.5374V25.5413C252.009 26.1165 251.62 26.6133 251.064 26.7679L251.062 26.7688L248.4 27.4974C248.391 27.4998 248.381 27.5023 248.372 27.5042C248.281 27.5239 248.174 27.5423 248.05 27.5423C247.633 27.5423 247.232 27.3454 246.978 26.9964L246.976 26.9935C245.683 25.1971 245.16 23.0706 245.405 20.7034C245.61 18.6679 245.748 16.7729 245.811 15.0608V15.0569C245.836 14.4974 246.208 14.0088 246.748 13.845L249.406 13.0384C249.412 13.0364 249.417 13.0333 249.423 13.0315Z" fill="#35A3FF" stroke="#35A3FF" stroke-linejoin="round"/>
<path d="M304.795 36.1199L307.448 36.1306H307.45C308.17 36.1382 308.767 36.6663 308.878 37.363L308.894 37.5046V37.5066L309.115 41.2986C309.14 41.6231 309.05 41.9394 308.882 42.196L301.576 53.3494C302.524 54.0916 303.355 55.0296 304.061 56.1531H304.06L306.559 60.1248L306.56 60.1267L306.616 60.2273L306.661 60.322L306.664 60.3269H306.663C307.39 62.0191 307.738 63.8799 307.711 65.8542L307.701 66.2507C307.619 68.334 307.16 70.4445 306.34 72.5164L306.336 72.5261C306.275 72.6722 306.19 72.8139 306.084 72.9363L306.083 72.9373L299.57 80.4382L299.567 80.4421C299.38 80.6526 299.132 80.8159 298.843 80.8914L296.648 81.4763L296.649 81.4773C296.526 81.5102 296.397 81.5261 296.275 81.5261C295.852 81.526 295.44 81.3387 295.158 80.9998V80.9988L293.531 79.0525V79.0515C293.229 78.6965 293.131 78.2278 293.225 77.7947L293.226 77.7908L293.692 75.7253L293.694 75.7205C293.805 75.2507 294.14 74.8518 294.606 74.6794C296.549 73.9487 297.901 72.6854 298.775 70.7927L298.94 70.4246C299.716 68.6384 300.203 66.7577 300.388 64.821L295.975 59.3611L287.128 67.6658L287.127 67.6667C286.772 67.9993 286.279 68.1282 285.812 68.0232H285.81L283.848 67.5759C283.243 67.4384 282.789 66.9347 282.724 66.3093V66.3083L282.374 63.0769C282.326 62.6486 282.47 62.2201 282.762 61.9109L290.564 53.6453C289.252 52.8716 287.973 52.1521 286.747 51.4998C285.012 50.5754 283.187 49.555 281.325 48.4714V48.4705C280.858 48.2011 280.576 47.6915 280.6 47.1492L280.706 44.5115C280.724 44.0274 280.985 43.5934 281.381 43.3386L281.383 43.3376C282.533 42.6067 283.746 42.3483 284.962 42.6277H284.961L287.676 43.2449H287.675C287.75 43.2617 287.822 43.2843 287.89 43.3113L288.082 43.4041L288.088 43.407L295.871 47.9529C297.068 46.4553 298.31 44.846 299.564 43.1433L299.565 43.1423C301.078 41.0961 302.401 38.993 303.508 36.8972C303.759 36.4202 304.252 36.12 304.793 36.1199H304.795Z" fill="#1A1A1A" stroke="#1A1A1A" stroke-linejoin="round"/>
<path d="M318.938 46.4319C319.229 45.8806 319.843 45.5725 320.466 45.678L323.755 46.2366L323.756 46.2375C324.368 46.3428 324.853 46.8271 324.95 47.4455H324.949C325.812 52.846 327.39 57.9247 329.642 62.5354C331.9 67.1583 334.3 71.9289 336.778 76.7053L337.754 77.6936L337.756 77.6955C338.132 78.0809 338.27 78.6393 338.109 79.1575V79.1584L337.318 81.6819C337.229 81.9687 337.051 82.2166 336.823 82.3977L336.818 82.4026L336.512 82.0061L336.817 82.4026C336.236 82.8489 335.573 83.0812 334.879 83.0813C334.307 83.0813 333.734 82.9215 333.185 82.6282H333.184L331.201 81.5666L331.102 81.51C330.876 81.3691 330.701 81.1699 330.583 80.9407L330.582 80.9387C328.1 76.0517 325.57 71.0843 322.997 66.0373C320.355 60.8675 318.615 55.1632 317.834 49.0881L317.832 49.0784C317.802 48.7945 317.846 48.4877 317.996 48.2112H317.997L318.938 46.4319Z" fill="#1A1A1A" stroke="#1A1A1A" stroke-linejoin="round"/>
<path d="M334.677 42.7444C335.043 42.5678 335.465 42.552 335.841 42.6975L335.999 42.7698L337.714 43.6839C337.734 43.6913 337.755 43.7001 337.774 43.7102C338.319 43.9965 338.615 44.5916 338.536 45.1936L336.79 58.3274L336.789 58.3264C336.74 58.7172 336.53 59.0701 336.218 59.304L336.219 59.3049C335.962 59.4987 335.659 59.5969 335.345 59.5969C335.267 59.5969 335.188 59.5885 335.141 59.5833C335.133 59.5824 335.125 59.5816 335.118 59.5803L331.914 59.0696V59.0686C331.494 59.003 331.114 58.7526 330.893 58.3753V58.3743L330.318 57.4163L330.319 57.4153C330.15 57.1386 330.077 56.8092 330.118 56.4856L331.523 45.0237C331.581 44.5336 331.89 44.1076 332.329 43.8909L332.33 43.8899L334.675 42.7454L334.677 42.7444Z" fill="#1A1A1A" stroke="#1A1A1A" stroke-linejoin="round"/>
<path d="M344.181 47.511C344.498 47.2826 344.894 47.1943 345.274 47.2591L348.557 47.8177H348.558C349.071 47.901 349.493 48.2569 349.675 48.7376C349.696 48.7728 349.712 48.8108 349.723 48.8509C350.444 51.3944 350.525 53.8529 349.956 56.1565V56.1575C349.414 58.3256 348.539 60.5623 347.35 62.803L347.349 62.802C347.095 63.2901 346.594 63.5794 346.065 63.5794C345.976 63.5794 345.888 63.5719 345.8 63.556L345.797 63.555L342.636 62.9583H342.632C341.932 62.8209 341.433 62.1983 341.449 61.4866V61.4856C341.508 59.0935 341.81 56.7943 342.344 54.6429C342.839 52.6392 343.26 50.5611 343.592 48.4671L343.593 48.4622C343.657 48.0878 343.863 47.7401 344.181 47.511Z" fill="#1A1A1A" stroke="#1A1A1A" stroke-linejoin="round"/>
</svg>
