<svg width="664" height="457" viewBox="0 0 664 457" fill="none" xmlns="http://www.w3.org/2000/svg">
<g filter="url(#filter0_d_2001_3)">
<mask id="path-1-outside-1_2001_3" maskUnits="userSpaceOnUse" x="57.8" y="91.1895" width="182" height="66" fill="black">
<rect fill="white" x="57.8" y="91.1895" width="182" height="66"/>
<path d="M60.2063 93.0894H77.3963L87.0263 114.419L96.6563 93.0894H113.846L94.4963 130.349V155.189H79.5563V130.349L60.2063 93.0894ZM149.791 129.989V135.209C149.791 147.809 143.851 156.089 129.991 156.089C116.311 156.089 110.191 147.809 110.191 135.209V129.989C110.191 116.219 117.391 109.289 129.991 109.289C142.771 109.289 149.791 116.219 149.791 129.989ZM129.991 144.749C135.571 144.749 136.291 140.519 136.291 134.579V130.619C136.291 123.959 134.851 120.629 129.991 120.629C125.131 120.629 123.691 123.959 123.691 130.619V134.579C123.691 140.519 124.411 144.749 129.991 144.749ZM195.781 110.189V155.189H182.551V151.679C180.751 154.559 178.681 156.089 173.101 156.089C164.281 156.089 156.541 151.769 156.541 138.269V110.189H170.041V135.749C170.041 141.869 171.481 144.569 175.981 144.569C180.571 144.569 182.281 142.049 182.281 135.839V110.189H195.781ZM238.295 116.849L228.215 124.049C227.405 122.699 226.145 120.809 223.535 120.809C219.665 120.809 217.415 123.509 217.415 129.539V155.189H203.915V110.189H217.055V113.609C218.405 111.899 221.375 109.289 226.505 109.289C231.635 109.289 235.685 111.809 238.295 116.849Z"/>
</mask>
<path d="M60.2063 93.0894H77.3963L87.0263 114.419L96.6563 93.0894H113.846L94.4963 130.349V155.189H79.5563V130.349L60.2063 93.0894ZM149.791 129.989V135.209C149.791 147.809 143.851 156.089 129.991 156.089C116.311 156.089 110.191 147.809 110.191 135.209V129.989C110.191 116.219 117.391 109.289 129.991 109.289C142.771 109.289 149.791 116.219 149.791 129.989ZM129.991 144.749C135.571 144.749 136.291 140.519 136.291 134.579V130.619C136.291 123.959 134.851 120.629 129.991 120.629C125.131 120.629 123.691 123.959 123.691 130.619V134.579C123.691 140.519 124.411 144.749 129.991 144.749ZM195.781 110.189V155.189H182.551V151.679C180.751 154.559 178.681 156.089 173.101 156.089C164.281 156.089 156.541 151.769 156.541 138.269V110.189H170.041V135.749C170.041 141.869 171.481 144.569 175.981 144.569C180.571 144.569 182.281 142.049 182.281 135.839V110.189H195.781ZM238.295 116.849L228.215 124.049C227.405 122.699 226.145 120.809 223.535 120.809C219.665 120.809 217.415 123.509 217.415 129.539V155.189H203.915V110.189H217.055V113.609C218.405 111.899 221.375 109.289 226.505 109.289C231.635 109.289 235.685 111.809 238.295 116.849Z" fill="white"/>
<path d="M60.2063 93.0894V92.0894H58.5602L59.3188 93.5503L60.2063 93.0894ZM77.3963 93.0894L78.3077 92.678L78.042 92.0894H77.3963V93.0894ZM87.0263 114.419L86.1149 114.831L87.0263 116.85L87.9377 114.831L87.0263 114.419ZM96.6563 93.0894V92.0894H96.0106L95.7449 92.678L96.6563 93.0894ZM113.846 93.0894L114.734 93.5503L115.492 92.0894H113.846V93.0894ZM94.4963 130.349L93.6088 129.889L93.4963 130.105V130.349H94.4963ZM94.4963 155.189V156.189H95.4963V155.189H94.4963ZM79.5563 155.189H78.5563V156.189H79.5563V155.189ZM79.5563 130.349H80.5563V130.105L80.4438 129.889L79.5563 130.349ZM60.2063 94.0894H77.3963V92.0894H60.2063V94.0894ZM76.4849 93.5009L86.1149 114.831L87.9377 114.008L78.3077 92.678L76.4849 93.5009ZM87.9377 114.831L97.5677 93.5009L95.7449 92.678L86.1149 114.008L87.9377 114.831ZM96.6563 94.0894H113.846V92.0894H96.6563V94.0894ZM112.959 92.6286L93.6088 129.889L95.3838 130.81L114.734 93.5503L112.959 92.6286ZM93.4963 130.349V155.189H95.4963V130.349H93.4963ZM94.4963 154.189H79.5563V156.189H94.4963V154.189ZM80.5563 155.189V130.349H78.5563V155.189H80.5563ZM80.4438 129.889L61.0938 92.6286L59.3188 93.5503L78.6688 130.81L80.4438 129.889ZM148.791 129.989V135.209H150.791V129.989H148.791ZM148.791 135.209C148.791 141.369 147.338 146.316 144.339 149.713C141.36 153.088 136.717 155.089 129.991 155.089V157.089C137.126 157.089 142.383 154.951 145.839 151.036C149.275 147.143 150.791 141.649 150.791 135.209H148.791ZM129.991 155.089C123.359 155.089 118.713 153.09 115.709 149.71C112.687 146.31 111.191 141.363 111.191 135.209H109.191C109.191 141.656 110.756 147.149 114.214 151.039C117.69 154.949 122.944 157.089 129.991 157.089V155.089ZM111.191 135.209V129.989H109.191V135.209H111.191ZM111.191 129.989C111.191 123.27 112.947 118.383 116.082 115.175C119.213 111.97 123.87 110.289 129.991 110.289V108.289C123.513 108.289 118.27 110.074 114.651 113.777C111.036 117.476 109.191 122.939 109.191 129.989H111.191ZM129.991 110.289C136.206 110.289 140.86 111.972 143.966 115.172C147.078 118.378 148.791 123.264 148.791 129.989H150.791C150.791 122.945 148.995 117.481 145.402 113.779C141.803 110.072 136.556 108.289 129.991 108.289V110.289ZM129.991 145.749C131.51 145.749 132.785 145.462 133.828 144.863C134.88 144.259 135.621 143.381 136.133 142.33C137.124 140.296 137.291 137.531 137.291 134.579H135.291C135.291 137.568 135.099 139.888 134.335 141.454C133.97 142.203 133.484 142.754 132.832 143.129C132.17 143.509 131.263 143.749 129.991 143.749V145.749ZM137.291 134.579V130.619H135.291V134.579H137.291ZM137.291 130.619C137.291 127.269 136.939 124.536 135.829 122.625C135.257 121.641 134.485 120.874 133.479 120.362C132.484 119.856 131.317 119.629 129.991 119.629V121.629C131.095 121.629 131.931 121.819 132.573 122.145C133.204 122.466 133.703 122.947 134.099 123.629C134.924 125.048 135.291 127.31 135.291 130.619H137.291ZM129.991 119.629C128.665 119.629 127.499 119.856 126.503 120.362C125.498 120.874 124.726 121.641 124.154 122.625C123.044 124.536 122.691 127.269 122.691 130.619H124.691C124.691 127.31 125.059 125.048 125.884 123.629C126.28 122.947 126.779 122.466 127.41 122.145C128.052 121.819 128.887 121.629 129.991 121.629V119.629ZM122.691 130.619V134.579H124.691V130.619H122.691ZM122.691 134.579C122.691 137.531 122.859 140.296 123.85 142.33C124.362 143.381 125.103 144.259 126.155 144.863C127.198 145.462 128.473 145.749 129.991 145.749V143.749C128.72 143.749 127.813 143.509 127.151 143.129C126.499 142.754 126.013 142.203 125.648 141.454C124.884 139.888 124.691 137.568 124.691 134.579H122.691ZM195.781 110.189H196.781V109.189H195.781V110.189ZM195.781 155.189V156.189H196.781V155.189H195.781ZM182.551 155.189H181.551V156.189H182.551V155.189ZM182.551 151.679H183.551V148.193L181.703 151.149L182.551 151.679ZM156.541 110.189V109.189H155.541V110.189H156.541ZM170.041 110.189H171.041V109.189H170.041V110.189ZM182.281 110.189V109.189H181.281V110.189H182.281ZM194.781 110.189V155.189H196.781V110.189H194.781ZM195.781 154.189H182.551V156.189H195.781V154.189ZM183.551 155.189V151.679H181.551V155.189H183.551ZM181.703 151.149C180.855 152.507 180.006 153.447 178.786 154.076C177.545 154.715 175.813 155.089 173.101 155.089V157.089C175.97 157.089 178.063 156.699 179.702 155.853C181.362 154.997 182.448 153.732 183.399 152.209L181.703 151.149ZM173.101 155.089C168.839 155.089 164.977 154.044 162.187 151.503C159.416 148.977 157.541 144.827 157.541 138.269H155.541C155.541 145.212 157.537 149.972 160.84 152.981C164.126 155.974 168.544 157.089 173.101 157.089V155.089ZM157.541 138.269V110.189H155.541V138.269H157.541ZM156.541 111.189H170.041V109.189H156.541V111.189ZM169.041 110.189V135.749H171.041V110.189H169.041ZM169.041 135.749C169.041 138.833 169.393 141.294 170.482 142.994C171.645 144.809 173.511 145.569 175.981 145.569V143.569C173.952 143.569 172.848 142.98 172.166 141.915C171.41 140.735 171.041 138.785 171.041 135.749H169.041ZM175.981 145.569C178.464 145.569 180.412 144.877 181.667 143.113C182.859 141.439 183.281 138.985 183.281 135.839H181.281C181.281 138.904 180.849 140.815 180.038 141.953C179.291 143.002 178.089 143.569 175.981 143.569V145.569ZM183.281 135.839V110.189H181.281V135.839H183.281ZM182.281 111.189H195.781V109.189H182.281V111.189ZM238.295 116.849L238.876 117.663L239.581 117.159L239.182 116.39L238.295 116.849ZM228.215 124.049L227.357 124.564L227.914 125.493L228.796 124.863L228.215 124.049ZM217.415 155.189V156.189H218.415V155.189H217.415ZM203.915 155.189H202.915V156.189H203.915V155.189ZM203.915 110.189V109.189H202.915V110.189H203.915ZM217.055 110.189H218.055V109.189H217.055V110.189ZM217.055 113.609H216.055V116.49L217.839 114.229L217.055 113.609ZM237.713 116.036L227.633 123.236L228.796 124.863L238.876 117.663L237.713 116.036ZM229.072 123.535C228.263 122.186 226.743 119.809 223.535 119.809V121.809C225.546 121.809 226.546 123.213 227.357 124.564L229.072 123.535ZM223.535 119.809C221.34 119.809 219.484 120.592 218.216 122.322C216.99 123.997 216.415 126.428 216.415 129.539H218.415C218.415 126.621 218.964 124.687 219.83 123.504C220.655 122.377 221.859 121.809 223.535 121.809V119.809ZM216.415 129.539V155.189H218.415V129.539H216.415ZM217.415 154.189H203.915V156.189H217.415V154.189ZM204.915 155.189V110.189H202.915V155.189H204.915ZM203.915 111.189H217.055V109.189H203.915V111.189ZM216.055 110.189V113.609H218.055V110.189H216.055ZM217.839 114.229C219.056 112.688 221.761 110.289 226.505 110.289V108.289C220.988 108.289 217.753 111.111 216.27 112.99L217.839 114.229ZM226.505 110.289C231.23 110.289 234.954 112.573 237.407 117.309L239.182 116.39C236.415 111.046 232.039 108.289 226.505 108.289V110.289Z" fill="black" mask="url(#path-1-outside-1_2001_3)"/>
<mask id="path-3-outside-2_2001_3" maskUnits="userSpaceOnUse" x="245.2" y="59" width="360" height="102" fill="black">
<rect fill="white" x="245.2" y="59" width="360" height="102"/>
<path d="M310.085 95.56L290.486 158H268.645L247.085 61.4H272.285L282.786 119.08L299.866 61.4H320.165L337.665 119.5L348.166 61.4H373.366L351.806 158H329.826L310.085 95.56ZM382.481 61.4H443.521V80.72H405.721V98.36H439.321V117.68H405.721V138.68H443.521V158H382.481V61.4ZM455.489 61.4H489.229C512.049 61.4 525.349 69.38 525.349 87.02C525.349 96.96 521.009 102.7 514.289 107.18C523.109 111.52 528.429 118.38 528.429 130.28C528.429 145.68 518.069 158 492.309 158H455.489V61.4ZM478.729 117.54V138.68H489.789C500.149 138.68 505.189 135.18 505.189 128.04C505.189 120.2 499.869 117.54 488.109 117.54H478.729ZM478.729 80.58V98.22H488.529C497.909 98.22 502.109 95.28 502.109 89.68C502.109 83.94 499.169 80.58 486.429 80.58H478.729ZM560.395 117.82V98.5H567.955C573.835 98.5 579.155 95.42 579.155 88.56C579.155 82.54 574.815 79.04 568.935 79.04C563.195 79.04 559.835 82.54 558.715 87.58H538.695C539.675 71.62 552.695 60 570.335 60C588.675 60 602.255 73.02 602.255 87.16C602.255 98.5 594.975 104.8 589.655 107.88C597.495 112.08 603.655 119.5 603.655 130.7C603.655 146.66 592.735 159.4 571.455 159.4C550.175 159.4 537.995 147.5 537.295 131.26H557.315C558.155 136.58 562.355 140.08 569.635 140.08C576.915 140.08 580.555 135.18 580.555 129.02C580.555 121.88 576.495 117.82 567.955 117.82H560.395Z"/>
</mask>
<path d="M310.085 95.56L290.486 158H268.645L247.085 61.4H272.285L282.786 119.08L299.866 61.4H320.165L337.665 119.5L348.166 61.4H373.366L351.806 158H329.826L310.085 95.56ZM382.481 61.4H443.521V80.72H405.721V98.36H439.321V117.68H405.721V138.68H443.521V158H382.481V61.4ZM455.489 61.4H489.229C512.049 61.4 525.349 69.38 525.349 87.02C525.349 96.96 521.009 102.7 514.289 107.18C523.109 111.52 528.429 118.38 528.429 130.28C528.429 145.68 518.069 158 492.309 158H455.489V61.4ZM478.729 117.54V138.68H489.789C500.149 138.68 505.189 135.18 505.189 128.04C505.189 120.2 499.869 117.54 488.109 117.54H478.729ZM478.729 80.58V98.22H488.529C497.909 98.22 502.109 95.28 502.109 89.68C502.109 83.94 499.169 80.58 486.429 80.58H478.729ZM560.395 117.82V98.5H567.955C573.835 98.5 579.155 95.42 579.155 88.56C579.155 82.54 574.815 79.04 568.935 79.04C563.195 79.04 559.835 82.54 558.715 87.58H538.695C539.675 71.62 552.695 60 570.335 60C588.675 60 602.255 73.02 602.255 87.16C602.255 98.5 594.975 104.8 589.655 107.88C597.495 112.08 603.655 119.5 603.655 130.7C603.655 146.66 592.735 159.4 571.455 159.4C550.175 159.4 537.995 147.5 537.295 131.26H557.315C558.155 136.58 562.355 140.08 569.635 140.08C576.915 140.08 580.555 135.18 580.555 129.02C580.555 121.88 576.495 117.82 567.955 117.82H560.395Z" fill="white"/>
<path d="M310.085 95.56L311.039 95.2586L310.082 92.2318L309.131 95.2605L310.085 95.56ZM290.486 158V159H291.22L291.44 158.299L290.486 158ZM268.646 158L267.67 158.218L267.844 159H268.646V158ZM247.085 61.4V60.4H245.838L246.11 61.6178L247.085 61.4ZM272.285 61.4L273.269 61.2209L273.12 60.4H272.285V61.4ZM282.785 119.08L281.802 119.259L283.744 119.364L282.785 119.08ZM299.866 61.4V60.4H299.119L298.907 61.1161L299.866 61.4ZM320.165 61.4L321.123 61.1116L320.909 60.4H320.165V61.4ZM337.665 119.5L336.708 119.788L338.65 119.678L337.665 119.5ZM348.166 61.4V60.4H347.33L347.181 61.2222L348.166 61.4ZM373.366 61.4L374.341 61.6178L374.613 60.4H373.366V61.4ZM351.806 158V159H352.607L352.781 158.218L351.806 158ZM329.826 158L328.872 158.301L329.093 159H329.826V158ZM309.131 95.2605L289.531 157.701L291.44 158.299L311.04 95.8595L309.131 95.2605ZM290.486 157H268.646V159H290.486V157ZM269.621 157.782L248.061 61.1822L246.11 61.6178L267.67 158.218L269.621 157.782ZM247.085 62.4H272.285V60.4H247.085V62.4ZM271.302 61.5791L281.802 119.259L283.769 118.901L273.269 61.2209L271.302 61.5791ZM283.744 119.364L300.824 61.6839L298.907 61.1161L281.827 118.796L283.744 119.364ZM299.866 62.4H320.165V60.4H299.866V62.4ZM319.208 61.6884L336.708 119.788L338.623 119.212L321.123 61.1116L319.208 61.6884ZM338.65 119.678L349.15 61.5778L347.181 61.2222L336.681 119.322L338.65 119.678ZM348.166 62.4H373.366V60.4H348.166V62.4ZM372.39 61.1822L350.83 157.782L352.781 158.218L374.341 61.6178L372.39 61.1822ZM351.806 157H329.826V159H351.806V157ZM330.779 157.699L311.039 95.2586L309.132 95.8614L328.872 158.301L330.779 157.699ZM382.481 61.4V60.4H381.481V61.4H382.481ZM443.521 61.4H444.521V60.4H443.521V61.4ZM443.521 80.72V81.72H444.521V80.72H443.521ZM405.721 80.72V79.72H404.721V80.72H405.721ZM405.721 98.36H404.721V99.36H405.721V98.36ZM439.321 98.36H440.321V97.36H439.321V98.36ZM439.321 117.68V118.68H440.321V117.68H439.321ZM405.721 117.68V116.68H404.721V117.68H405.721ZM405.721 138.68H404.721V139.68H405.721V138.68ZM443.521 138.68H444.521V137.68H443.521V138.68ZM443.521 158V159H444.521V158H443.521ZM382.481 158H381.481V159H382.481V158ZM382.481 62.4H443.521V60.4H382.481V62.4ZM442.521 61.4V80.72H444.521V61.4H442.521ZM443.521 79.72H405.721V81.72H443.521V79.72ZM404.721 80.72V98.36H406.721V80.72H404.721ZM405.721 99.36H439.321V97.36H405.721V99.36ZM438.321 98.36V117.68H440.321V98.36H438.321ZM439.321 116.68H405.721V118.68H439.321V116.68ZM404.721 117.68V138.68H406.721V117.68H404.721ZM405.721 139.68H443.521V137.68H405.721V139.68ZM442.521 138.68V158H444.521V138.68H442.521ZM443.521 157H382.481V159H443.521V157ZM383.481 158V61.4H381.481V158H383.481ZM455.489 61.4V60.4H454.489V61.4H455.489ZM514.289 107.18L513.734 106.348L512.29 107.311L513.847 108.077L514.289 107.18ZM455.489 158H454.489V159H455.489V158ZM478.729 117.54V116.54H477.729V117.54H478.729ZM478.729 138.68H477.729V139.68H478.729V138.68ZM478.729 80.58V79.58H477.729V80.58H478.729ZM478.729 98.22H477.729V99.22H478.729V98.22ZM455.489 62.4H489.229V60.4H455.489V62.4ZM489.229 62.4C500.551 62.4 509.346 64.385 515.284 68.422C521.156 72.4143 524.349 78.4911 524.349 87.02H526.349C526.349 77.9089 522.891 71.1756 516.408 66.768C509.991 62.405 500.726 60.4 489.229 60.4V62.4ZM524.349 87.02C524.349 91.8364 523.3 95.5746 521.479 98.6364C519.654 101.706 517.014 104.161 513.734 106.348L514.843 108.012C518.283 105.719 521.173 103.064 523.198 99.6586C525.228 96.2453 526.349 92.1436 526.349 87.02H524.349ZM513.847 108.077C518.141 110.19 521.518 112.883 523.828 116.44C526.135 119.992 527.429 124.484 527.429 130.28H529.429C529.429 124.176 528.062 119.288 525.505 115.35C522.95 111.417 519.256 108.51 514.73 106.283L513.847 108.077ZM527.429 130.28C527.429 137.746 524.925 144.377 519.376 149.157C513.807 153.954 505.042 157 492.309 157V159C505.335 159 514.63 155.886 520.681 150.673C526.752 145.443 529.429 138.214 529.429 130.28H527.429ZM492.309 157H455.489V159H492.309V157ZM456.489 158V61.4H454.489V158H456.489ZM477.729 117.54V138.68H479.729V117.54H477.729ZM478.729 139.68H489.789V137.68H478.729V139.68ZM489.789 139.68C495.049 139.68 499.142 138.798 501.943 136.86C504.813 134.874 506.189 131.878 506.189 128.04H504.189C504.189 131.342 503.044 133.666 500.805 135.215C498.496 136.812 494.889 137.68 489.789 137.68V139.68ZM506.189 128.04C506.189 125.97 505.838 124.169 505.066 122.641C504.289 121.103 503.115 119.898 501.565 118.988C498.519 117.198 494.014 116.54 488.109 116.54V118.54C493.964 118.54 497.999 119.212 500.552 120.712C501.802 121.447 502.693 122.377 503.281 123.543C503.875 124.718 504.189 126.19 504.189 128.04H506.189ZM488.109 116.54H478.729V118.54H488.109V116.54ZM477.729 80.58V98.22H479.729V80.58H477.729ZM478.729 99.22H488.529V97.22H478.729V99.22ZM488.529 99.22C493.289 99.22 496.916 98.4803 499.379 96.8901C501.922 95.248 503.109 92.7751 503.109 89.68H501.109C501.109 92.1849 500.196 93.982 498.294 95.2099C496.312 96.4897 493.148 97.22 488.529 97.22V99.22ZM503.109 89.68C503.109 86.6242 502.311 83.9589 499.602 82.1464C497.012 80.4134 492.832 79.58 486.429 79.58V81.58C492.766 81.58 496.425 82.4266 498.49 83.8086C500.436 85.111 501.109 86.9958 501.109 89.68H503.109ZM486.429 79.58H478.729V81.58H486.429V79.58ZM560.395 117.82H559.395V118.82H560.395V117.82ZM560.395 98.5V97.5H559.395V98.5H560.395ZM558.715 87.58V88.58H559.517L559.691 87.7969L558.715 87.58ZM538.695 87.58L537.696 87.5187L537.631 88.58H538.695V87.58ZM589.655 107.88L589.154 107.015L587.6 107.914L589.182 108.761L589.655 107.88ZM537.295 131.26V130.26H536.251L536.296 131.303L537.295 131.26ZM557.315 131.26L558.302 131.104L558.169 130.26H557.315V131.26ZM561.395 117.82V98.5H559.395V117.82H561.395ZM560.395 99.5H567.955V97.5H560.395V99.5ZM567.955 99.5C571.054 99.5 574.092 98.69 576.379 96.8879C578.697 95.0605 580.155 92.2794 580.155 88.56H578.155C578.155 91.7006 576.952 93.8895 575.141 95.3171C573.297 96.77 570.735 97.5 567.955 97.5V99.5ZM580.155 88.56C580.155 85.2938 578.969 82.6325 576.916 80.7971C574.877 78.9738 572.068 78.04 568.935 78.04V80.04C571.681 80.04 573.982 80.8562 575.583 82.2879C577.171 83.7075 578.155 85.8061 578.155 88.56H580.155ZM568.935 78.04C565.849 78.04 563.33 78.9863 561.429 80.6717C559.539 82.3474 558.333 84.6882 557.738 87.3631L559.691 87.7969C560.216 85.4318 561.251 83.5025 562.755 82.1683C564.249 80.8437 566.28 80.04 568.935 80.04V78.04ZM558.715 86.58H538.695V88.58H558.715V86.58ZM539.693 87.6413C540.637 72.2704 553.159 61 570.335 61V59C552.23 59 538.713 70.9696 537.696 87.5187L539.693 87.6413ZM570.335 61C588.243 61 601.255 73.6855 601.255 87.16H603.255C603.255 72.3545 589.106 59 570.335 59V61ZM601.255 87.16C601.255 97.9887 594.327 104.019 589.154 107.015L590.156 108.745C595.622 105.581 603.255 99.0113 603.255 87.16H601.255ZM589.182 108.761C596.767 112.824 602.655 119.941 602.655 130.7H604.655C604.655 119.059 598.223 111.336 590.127 106.999L589.182 108.761ZM602.655 130.7C602.655 138.448 600.008 145.349 594.842 150.314C589.675 155.279 581.893 158.4 571.455 158.4V160.4C582.296 160.4 590.614 157.151 596.227 151.756C601.841 146.361 604.655 138.912 604.655 130.7H602.655ZM571.455 158.4C560.999 158.4 552.884 155.478 547.311 150.663C541.745 145.855 538.633 139.087 538.294 131.217L536.296 131.303C536.656 139.673 539.984 146.975 546.003 152.177C552.016 157.372 560.63 160.4 571.455 160.4V158.4ZM537.295 132.26H557.315V130.26H537.295V132.26ZM556.327 131.416C556.784 134.31 558.169 136.756 560.462 138.467C562.742 140.167 565.839 141.08 569.635 141.08V139.08C566.15 139.08 563.507 138.243 561.657 136.863C559.821 135.494 558.685 133.53 558.302 131.104L556.327 131.416ZM569.635 141.08C573.512 141.08 576.526 139.767 578.563 137.534C580.587 135.315 581.555 132.291 581.555 129.02H579.555C579.555 131.909 578.702 134.415 577.086 136.186C575.483 137.943 573.037 139.08 569.635 139.08V141.08ZM581.555 129.02C581.555 125.261 580.481 122.156 578.133 120.005C575.799 117.868 572.367 116.82 567.955 116.82V118.82C572.082 118.82 574.95 119.802 576.782 121.48C578.598 123.144 579.555 125.639 579.555 129.02H581.555ZM567.955 116.82H560.395V118.82H567.955V116.82Z" fill="black" mask="url(#path-3-outside-2_2001_3)"/>
</g>
<g filter="url(#filter1_d_2001_3)">
<mask id="path-5-outside-3_2001_3" maskUnits="userSpaceOnUse" x="68" y="211" width="533" height="187" fill="black">
<rect fill="white" x="68" y="211" width="533" height="187"/>
<path d="M75.6764 212.65H125.816V228.52H94.7664V243.01H122.366V258.88H94.7664V276.13H125.816V292H75.6764V212.65ZM185.212 292H166.352L157.267 276.36L148.182 292H129.322L147.262 262.56L130.472 234.5H149.332L157.267 249.105L165.202 234.5H184.062L167.272 262.56L185.212 292ZM241.573 259.11V267.16C241.573 282.11 233.983 293.15 219.493 293.15C214.318 293.15 210.753 292.345 208.223 290.85V313.85H190.973V234.5H208.223V237.375C210.868 234.845 214.548 233.35 219.608 233.35C232.603 233.35 241.573 242.665 241.573 259.11ZM216.273 278.66C223.403 278.66 224.323 273.255 224.323 265.665V260.605C224.323 252.095 222.483 247.84 216.273 247.84C210.063 247.84 208.223 252.095 208.223 260.605V267.39C208.223 274.06 209.603 278.66 216.273 278.66ZM283.162 274.405L295.812 283.26C291.787 290.275 284.887 293.15 274.422 293.15C256.252 293.15 248.432 281.42 248.432 267.16V259.11C248.432 241.285 257.632 233.35 272.582 233.35C289.257 233.35 296.732 242.895 296.732 260.835V267.62H265.682C265.912 274.175 267.522 278.66 274.537 278.66C279.942 278.66 281.092 277.05 283.162 274.405ZM272.697 247.84C268.212 247.84 266.257 250.945 265.797 256.12H279.482C279.137 249.795 276.722 247.84 272.697 247.84ZM349.903 243.01L337.023 252.21C335.988 250.485 334.378 248.07 331.043 248.07C326.098 248.07 323.223 251.52 323.223 259.225V292H305.973V234.5H322.763V238.87C324.488 236.685 328.283 233.35 334.838 233.35C341.393 233.35 346.568 236.57 349.903 243.01ZM355.652 292V234.5H372.902V292H355.652ZM355.077 228.75V212.65H373.477V228.75H355.077ZM417.928 274.405L430.578 283.26C426.553 290.275 419.653 293.15 409.188 293.15C391.018 293.15 383.198 281.42 383.198 267.16V259.11C383.198 241.285 392.398 233.35 407.348 233.35C424.023 233.35 431.498 242.895 431.498 260.835V267.62H400.448C400.678 274.175 402.288 278.66 409.303 278.66C414.708 278.66 415.858 277.05 417.928 274.405ZM407.463 247.84C402.978 247.84 401.023 250.945 400.563 256.12H414.248C413.903 249.795 411.488 247.84 407.463 247.84ZM440.738 292V234.5H457.528V238.87C459.368 236.57 463.623 233.35 469.718 233.35C480.988 233.35 490.878 238.41 490.878 255.89V292H473.628V259.225C473.628 251.52 471.788 248.07 466.268 248.07C460.288 248.07 457.988 251.75 457.988 259.11V292H440.738ZM534.161 274.405L546.926 283.26C542.671 290.16 536.346 293.15 525.536 293.15C508.746 293.15 499.546 282.57 499.546 267.16V259.11C499.546 242.205 508.746 233.35 526.686 233.35C535.771 233.35 543.016 236.685 546.926 243.24L534.046 252.21C532.436 249.91 530.481 247.84 526.226 247.84C518.636 247.84 516.796 252.095 516.796 260.605V265.665C516.796 273.255 517.716 278.66 526.226 278.66C530.136 278.66 532.321 277.395 534.161 274.405ZM584.588 274.405L597.238 283.26C593.213 290.275 586.313 293.15 575.848 293.15C557.678 293.15 549.858 281.42 549.858 267.16V259.11C549.858 241.285 559.058 233.35 574.008 233.35C590.683 233.35 598.158 242.895 598.158 260.835V267.62H567.108C567.338 274.175 568.948 278.66 575.963 278.66C581.368 278.66 582.518 277.05 584.588 274.405ZM574.123 247.84C569.638 247.84 567.683 250.945 567.223 256.12H580.908C580.563 249.795 578.148 247.84 574.123 247.84ZM116.138 345.895L103.373 355.095C101.188 352.565 98.888 351.07 93.5979 351.07C91.1829 351.07 88.193 351.53 88.193 354.06C88.193 356.015 90.033 356.935 95.3229 357.97C111.078 360.96 116.943 367.285 116.943 377.865C116.943 389.365 108.778 396.15 93.943 396.15C82.213 396.15 74.6229 393.62 69.4479 386.605L82.788 376.945C84.743 379.59 87.043 381.43 93.5979 381.43C97.393 381.43 99.693 380.395 99.693 378.325C99.693 376.14 97.7379 375.335 92.333 374.185C79.3379 371.31 70.9429 366.02 70.9429 354.75C70.9429 343.25 79.2229 336.35 93.943 336.35C103.373 336.35 111.653 338.535 116.138 345.895ZM121.53 351.99V337.5H128.89V324.85H146.14V337.5H156.49V351.99H146.14V373.495C146.14 378.095 147.405 380.05 151.66 380.05H156.49V395H149.705C135.675 395 128.89 391.895 128.89 375.68V351.99H121.53ZM161.65 377.865C161.65 365.79 170.85 359.925 182.81 359.925H193.045V358.2C193.045 352.565 192.01 350.38 183.96 350.38C179.015 350.38 176.715 351.3 174.645 354.29L162.57 345.895C167.055 338.765 173.725 336.35 185.915 336.35C200.865 336.35 209.835 340.605 209.835 358.315V395H193.045V390.285C191.09 393.39 187.985 396.15 181.66 396.15C170.39 396.15 161.65 389.94 161.65 377.865ZM193.045 373.84V372.115H185.225C180.855 372.115 178.44 373.61 178.44 377.405C178.44 380.74 181.085 382.58 185.455 382.58C191.205 382.58 193.045 379.13 193.045 373.84ZM264.158 346.01L251.278 355.21C250.243 353.485 248.633 351.07 245.298 351.07C240.353 351.07 237.478 354.52 237.478 362.225V395H220.228V337.5H237.018V341.87C238.743 339.685 242.538 336.35 249.093 336.35C255.648 336.35 260.823 339.57 264.158 346.01ZM265.056 351.99V337.5H272.416V324.85H289.666V337.5H300.016V351.99H289.666V373.495C289.666 378.095 290.931 380.05 295.186 380.05H300.016V395H293.231C279.201 395 272.416 391.895 272.416 375.68V351.99H265.056ZM351.865 345.895L339.1 355.095C336.915 352.565 334.615 351.07 329.325 351.07C326.91 351.07 323.92 351.53 323.92 354.06C323.92 356.015 325.76 356.935 331.05 357.97C346.805 360.96 352.67 367.285 352.67 377.865C352.67 389.365 344.505 396.15 329.67 396.15C317.94 396.15 310.35 393.62 305.175 386.605L318.515 376.945C320.47 379.59 322.77 381.43 329.325 381.43C333.12 381.43 335.42 380.395 335.42 378.325C335.42 376.14 333.465 375.335 328.06 374.185C315.065 371.31 306.67 366.02 306.67 354.75C306.67 343.25 314.95 336.35 329.67 336.35C339.1 336.35 347.38 338.535 351.865 345.895ZM390.033 395V315.65H407.283V341.41C409.123 339.225 413.263 336.35 419.013 336.35C430.283 336.35 440.173 341.41 440.173 358.89V395H422.923V362.225C422.923 354.52 421.083 351.07 415.563 351.07C409.583 351.07 407.283 354.75 407.283 362.11V395H390.033ZM483.57 377.405L496.22 386.26C492.195 393.275 485.295 396.15 474.83 396.15C456.66 396.15 448.84 384.42 448.84 370.16V362.11C448.84 344.285 458.04 336.35 472.99 336.35C489.665 336.35 497.14 345.895 497.14 363.835V370.62H466.09C466.32 377.175 467.93 381.66 474.945 381.66C480.35 381.66 481.5 380.05 483.57 377.405ZM473.105 350.84C468.62 350.84 466.665 353.945 466.205 359.12H479.89C479.545 352.795 477.13 350.84 473.105 350.84ZM550.311 346.01L537.431 355.21C536.396 353.485 534.786 351.07 531.451 351.07C526.506 351.07 523.631 354.52 523.631 362.225V395H506.381V337.5H523.171V341.87C524.896 339.685 528.691 336.35 535.246 336.35C541.801 336.35 546.976 339.57 550.311 346.01ZM586.217 377.405L598.867 386.26C594.842 393.275 587.942 396.15 577.477 396.15C559.307 396.15 551.487 384.42 551.487 370.16V362.11C551.487 344.285 560.687 336.35 575.637 336.35C592.312 336.35 599.787 345.895 599.787 363.835V370.62H568.737C568.967 377.175 570.577 381.66 577.592 381.66C582.997 381.66 584.147 380.05 586.217 377.405ZM575.752 350.84C571.267 350.84 569.312 353.945 568.852 359.12H582.537C582.192 352.795 579.777 350.84 575.752 350.84Z"/>
</mask>
<path d="M75.6764 212.65H125.816V228.52H94.7664V243.01H122.366V258.88H94.7664V276.13H125.816V292H75.6764V212.65ZM185.212 292H166.352L157.267 276.36L148.182 292H129.322L147.262 262.56L130.472 234.5H149.332L157.267 249.105L165.202 234.5H184.062L167.272 262.56L185.212 292ZM241.573 259.11V267.16C241.573 282.11 233.983 293.15 219.493 293.15C214.318 293.15 210.753 292.345 208.223 290.85V313.85H190.973V234.5H208.223V237.375C210.868 234.845 214.548 233.35 219.608 233.35C232.603 233.35 241.573 242.665 241.573 259.11ZM216.273 278.66C223.403 278.66 224.323 273.255 224.323 265.665V260.605C224.323 252.095 222.483 247.84 216.273 247.84C210.063 247.84 208.223 252.095 208.223 260.605V267.39C208.223 274.06 209.603 278.66 216.273 278.66ZM283.162 274.405L295.812 283.26C291.787 290.275 284.887 293.15 274.422 293.15C256.252 293.15 248.432 281.42 248.432 267.16V259.11C248.432 241.285 257.632 233.35 272.582 233.35C289.257 233.35 296.732 242.895 296.732 260.835V267.62H265.682C265.912 274.175 267.522 278.66 274.537 278.66C279.942 278.66 281.092 277.05 283.162 274.405ZM272.697 247.84C268.212 247.84 266.257 250.945 265.797 256.12H279.482C279.137 249.795 276.722 247.84 272.697 247.84ZM349.903 243.01L337.023 252.21C335.988 250.485 334.378 248.07 331.043 248.07C326.098 248.07 323.223 251.52 323.223 259.225V292H305.973V234.5H322.763V238.87C324.488 236.685 328.283 233.35 334.838 233.35C341.393 233.35 346.568 236.57 349.903 243.01ZM355.652 292V234.5H372.902V292H355.652ZM355.077 228.75V212.65H373.477V228.75H355.077ZM417.928 274.405L430.578 283.26C426.553 290.275 419.653 293.15 409.188 293.15C391.018 293.15 383.198 281.42 383.198 267.16V259.11C383.198 241.285 392.398 233.35 407.348 233.35C424.023 233.35 431.498 242.895 431.498 260.835V267.62H400.448C400.678 274.175 402.288 278.66 409.303 278.66C414.708 278.66 415.858 277.05 417.928 274.405ZM407.463 247.84C402.978 247.84 401.023 250.945 400.563 256.12H414.248C413.903 249.795 411.488 247.84 407.463 247.84ZM440.738 292V234.5H457.528V238.87C459.368 236.57 463.623 233.35 469.718 233.35C480.988 233.35 490.878 238.41 490.878 255.89V292H473.628V259.225C473.628 251.52 471.788 248.07 466.268 248.07C460.288 248.07 457.988 251.75 457.988 259.11V292H440.738ZM534.161 274.405L546.926 283.26C542.671 290.16 536.346 293.15 525.536 293.15C508.746 293.15 499.546 282.57 499.546 267.16V259.11C499.546 242.205 508.746 233.35 526.686 233.35C535.771 233.35 543.016 236.685 546.926 243.24L534.046 252.21C532.436 249.91 530.481 247.84 526.226 247.84C518.636 247.84 516.796 252.095 516.796 260.605V265.665C516.796 273.255 517.716 278.66 526.226 278.66C530.136 278.66 532.321 277.395 534.161 274.405ZM584.588 274.405L597.238 283.26C593.213 290.275 586.313 293.15 575.848 293.15C557.678 293.15 549.858 281.42 549.858 267.16V259.11C549.858 241.285 559.058 233.35 574.008 233.35C590.683 233.35 598.158 242.895 598.158 260.835V267.62H567.108C567.338 274.175 568.948 278.66 575.963 278.66C581.368 278.66 582.518 277.05 584.588 274.405ZM574.123 247.84C569.638 247.84 567.683 250.945 567.223 256.12H580.908C580.563 249.795 578.148 247.84 574.123 247.84ZM116.138 345.895L103.373 355.095C101.188 352.565 98.888 351.07 93.5979 351.07C91.1829 351.07 88.193 351.53 88.193 354.06C88.193 356.015 90.033 356.935 95.3229 357.97C111.078 360.96 116.943 367.285 116.943 377.865C116.943 389.365 108.778 396.15 93.943 396.15C82.213 396.15 74.6229 393.62 69.4479 386.605L82.788 376.945C84.743 379.59 87.043 381.43 93.5979 381.43C97.393 381.43 99.693 380.395 99.693 378.325C99.693 376.14 97.7379 375.335 92.333 374.185C79.3379 371.31 70.9429 366.02 70.9429 354.75C70.9429 343.25 79.2229 336.35 93.943 336.35C103.373 336.35 111.653 338.535 116.138 345.895ZM121.53 351.99V337.5H128.89V324.85H146.14V337.5H156.49V351.99H146.14V373.495C146.14 378.095 147.405 380.05 151.66 380.05H156.49V395H149.705C135.675 395 128.89 391.895 128.89 375.68V351.99H121.53ZM161.65 377.865C161.65 365.79 170.85 359.925 182.81 359.925H193.045V358.2C193.045 352.565 192.01 350.38 183.96 350.38C179.015 350.38 176.715 351.3 174.645 354.29L162.57 345.895C167.055 338.765 173.725 336.35 185.915 336.35C200.865 336.35 209.835 340.605 209.835 358.315V395H193.045V390.285C191.09 393.39 187.985 396.15 181.66 396.15C170.39 396.15 161.65 389.94 161.65 377.865ZM193.045 373.84V372.115H185.225C180.855 372.115 178.44 373.61 178.44 377.405C178.44 380.74 181.085 382.58 185.455 382.58C191.205 382.58 193.045 379.13 193.045 373.84ZM264.158 346.01L251.278 355.21C250.243 353.485 248.633 351.07 245.298 351.07C240.353 351.07 237.478 354.52 237.478 362.225V395H220.228V337.5H237.018V341.87C238.743 339.685 242.538 336.35 249.093 336.35C255.648 336.35 260.823 339.57 264.158 346.01ZM265.056 351.99V337.5H272.416V324.85H289.666V337.5H300.016V351.99H289.666V373.495C289.666 378.095 290.931 380.05 295.186 380.05H300.016V395H293.231C279.201 395 272.416 391.895 272.416 375.68V351.99H265.056ZM351.865 345.895L339.1 355.095C336.915 352.565 334.615 351.07 329.325 351.07C326.91 351.07 323.92 351.53 323.92 354.06C323.92 356.015 325.76 356.935 331.05 357.97C346.805 360.96 352.67 367.285 352.67 377.865C352.67 389.365 344.505 396.15 329.67 396.15C317.94 396.15 310.35 393.62 305.175 386.605L318.515 376.945C320.47 379.59 322.77 381.43 329.325 381.43C333.12 381.43 335.42 380.395 335.42 378.325C335.42 376.14 333.465 375.335 328.06 374.185C315.065 371.31 306.67 366.02 306.67 354.75C306.67 343.25 314.95 336.35 329.67 336.35C339.1 336.35 347.38 338.535 351.865 345.895ZM390.033 395V315.65H407.283V341.41C409.123 339.225 413.263 336.35 419.013 336.35C430.283 336.35 440.173 341.41 440.173 358.89V395H422.923V362.225C422.923 354.52 421.083 351.07 415.563 351.07C409.583 351.07 407.283 354.75 407.283 362.11V395H390.033ZM483.57 377.405L496.22 386.26C492.195 393.275 485.295 396.15 474.83 396.15C456.66 396.15 448.84 384.42 448.84 370.16V362.11C448.84 344.285 458.04 336.35 472.99 336.35C489.665 336.35 497.14 345.895 497.14 363.835V370.62H466.09C466.32 377.175 467.93 381.66 474.945 381.66C480.35 381.66 481.5 380.05 483.57 377.405ZM473.105 350.84C468.62 350.84 466.665 353.945 466.205 359.12H479.89C479.545 352.795 477.13 350.84 473.105 350.84ZM550.311 346.01L537.431 355.21C536.396 353.485 534.786 351.07 531.451 351.07C526.506 351.07 523.631 354.52 523.631 362.225V395H506.381V337.5H523.171V341.87C524.896 339.685 528.691 336.35 535.246 336.35C541.801 336.35 546.976 339.57 550.311 346.01ZM586.217 377.405L598.867 386.26C594.842 393.275 587.942 396.15 577.477 396.15C559.307 396.15 551.487 384.42 551.487 370.16V362.11C551.487 344.285 560.687 336.35 575.637 336.35C592.312 336.35 599.787 345.895 599.787 363.835V370.62H568.737C568.967 377.175 570.577 381.66 577.592 381.66C582.997 381.66 584.147 380.05 586.217 377.405ZM575.752 350.84C571.267 350.84 569.312 353.945 568.852 359.12H582.537C582.192 352.795 579.777 350.84 575.752 350.84Z" fill="white"/>
<path d="M75.6764 212.65V211.65H74.6764V212.65H75.6764ZM125.816 212.65H126.816V211.65H125.816V212.65ZM125.816 228.52V229.52H126.816V228.52H125.816ZM94.7664 228.52V227.52H93.7664V228.52H94.7664ZM94.7664 243.01H93.7664V244.01H94.7664V243.01ZM122.366 243.01H123.366V242.01H122.366V243.01ZM122.366 258.88V259.88H123.366V258.88H122.366ZM94.7664 258.88V257.88H93.7664V258.88H94.7664ZM94.7664 276.13H93.7664V277.13H94.7664V276.13ZM125.816 276.13H126.816V275.13H125.816V276.13ZM125.816 292V293H126.816V292H125.816ZM75.6764 292H74.6764V293H75.6764V292ZM75.6764 213.65H125.816V211.65H75.6764V213.65ZM124.816 212.65V228.52H126.816V212.65H124.816ZM125.816 227.52H94.7664V229.52H125.816V227.52ZM93.7664 228.52V243.01H95.7664V228.52H93.7664ZM94.7664 244.01H122.366V242.01H94.7664V244.01ZM121.366 243.01V258.88H123.366V243.01H121.366ZM122.366 257.88H94.7664V259.88H122.366V257.88ZM93.7664 258.88V276.13H95.7664V258.88H93.7664ZM94.7664 277.13H125.816V275.13H94.7664V277.13ZM124.816 276.13V292H126.816V276.13H124.816ZM125.816 291H75.6764V293H125.816V291ZM76.6764 292V212.65H74.6764V292H76.6764ZM185.212 292V293H186.992L186.066 291.48L185.212 292ZM166.352 292L165.487 292.502L165.776 293H166.352V292ZM157.267 276.36L158.132 275.858L157.267 274.369L156.402 275.858L157.267 276.36ZM148.182 292V293H148.758L149.047 292.502L148.182 292ZM129.322 292L128.468 291.48L127.542 293H129.322V292ZM147.262 262.56L148.116 263.08L148.43 262.565L148.12 262.047L147.262 262.56ZM130.472 234.5V233.5H128.708L129.614 235.013L130.472 234.5ZM149.332 234.5L150.211 234.023L149.927 233.5H149.332V234.5ZM157.267 249.105L156.388 249.582L157.267 251.2L158.146 249.582L157.267 249.105ZM165.202 234.5V233.5H164.607L164.323 234.023L165.202 234.5ZM184.062 234.5L184.92 235.013L185.826 233.5H184.062V234.5ZM167.272 262.56L166.414 262.047L166.104 262.565L166.418 263.08L167.272 262.56ZM185.212 291H166.352V293H185.212V291ZM167.217 291.498L158.132 275.858L156.402 276.862L165.487 292.502L167.217 291.498ZM156.402 275.858L147.317 291.498L149.047 292.502L158.132 276.862L156.402 275.858ZM148.182 291H129.322V293H148.182V291ZM130.176 292.52L148.116 263.08L146.408 262.04L128.468 291.48L130.176 292.52ZM148.12 262.047L131.33 233.987L129.614 235.013L146.404 263.073L148.12 262.047ZM130.472 235.5H149.332V233.5H130.472V235.5ZM148.453 234.977L156.388 249.582L158.146 248.628L150.211 234.023L148.453 234.977ZM158.146 249.582L166.081 234.977L164.323 234.023L156.388 248.628L158.146 249.582ZM165.202 235.5H184.062V233.5H165.202V235.5ZM183.204 233.987L166.414 262.047L168.13 263.073L184.92 235.013L183.204 233.987ZM166.418 263.08L184.358 292.52L186.066 291.48L168.126 262.04L166.418 263.08ZM208.223 290.85L208.732 289.989L207.223 289.098V290.85H208.223ZM208.223 313.85V314.85H209.223V313.85H208.223ZM190.973 313.85H189.973V314.85H190.973V313.85ZM190.973 234.5V233.5H189.973V234.5H190.973ZM208.223 234.5H209.223V233.5H208.223V234.5ZM208.223 237.375H207.223V239.715L208.914 238.098L208.223 237.375ZM240.573 259.11V267.16H242.573V259.11H240.573ZM240.573 267.16C240.573 274.479 238.714 280.733 235.186 285.136C231.681 289.51 226.457 292.15 219.493 292.15V294.15C227.018 294.15 232.835 291.27 236.747 286.387C240.637 281.532 242.573 274.791 242.573 267.16H240.573ZM219.493 292.15C214.404 292.15 211.043 291.355 208.732 289.989L207.714 291.711C210.462 293.335 214.232 294.15 219.493 294.15V292.15ZM207.223 290.85V313.85H209.223V290.85H207.223ZM208.223 312.85H190.973V314.85H208.223V312.85ZM191.973 313.85V234.5H189.973V313.85H191.973ZM190.973 235.5H208.223V233.5H190.973V235.5ZM207.223 234.5V237.375H209.223V234.5H207.223ZM208.914 238.098C211.343 235.775 214.76 234.35 219.608 234.35V232.35C214.336 232.35 210.393 233.915 207.532 236.652L208.914 238.098ZM219.608 234.35C225.853 234.35 231.058 236.58 234.714 240.725C238.38 244.881 240.573 251.064 240.573 259.11H242.573C242.573 250.711 240.281 244.014 236.213 239.402C232.135 234.777 226.357 232.35 219.608 232.35V234.35ZM216.273 279.66C218.179 279.66 219.757 279.299 221.037 278.564C222.325 277.824 223.236 276.748 223.87 275.447C225.106 272.913 225.323 269.442 225.323 265.665H223.323C223.323 269.478 223.08 272.505 222.073 274.571C221.586 275.57 220.93 276.319 220.041 276.83C219.142 277.346 217.932 277.66 216.273 277.66V279.66ZM225.323 265.665V260.605H223.323V265.665H225.323ZM225.323 260.605C225.323 256.329 224.871 252.903 223.491 250.529C222.786 249.314 221.837 248.374 220.604 247.746C219.381 247.125 217.936 246.84 216.273 246.84V248.84C217.714 248.84 218.828 249.087 219.697 249.529C220.556 249.966 221.231 250.621 221.762 251.534C222.855 253.415 223.323 256.371 223.323 260.605H225.323ZM216.273 246.84C214.609 246.84 213.164 247.125 211.942 247.746C210.709 248.374 209.76 249.314 209.054 250.529C207.675 252.903 207.223 256.329 207.223 260.605H209.223C209.223 256.371 209.691 253.415 210.784 251.534C211.314 250.621 211.99 249.966 212.849 249.529C213.718 249.087 214.831 248.84 216.273 248.84V246.84ZM207.223 260.605V267.39H209.223V260.605H207.223ZM207.223 267.39C207.223 270.743 207.559 273.802 208.887 276.037C210.285 278.39 212.669 279.66 216.273 279.66V277.66C213.207 277.66 211.566 276.63 210.606 275.015C209.577 273.283 209.223 270.707 209.223 267.39H207.223ZM283.162 274.405L283.736 273.586L282.959 273.042L282.375 273.789L283.162 274.405ZM295.812 283.26L296.68 283.758L297.135 282.965L296.386 282.441L295.812 283.26ZM296.732 267.62V268.62H297.732V267.62H296.732ZM265.682 267.62V266.62H264.647L264.683 267.655L265.682 267.62ZM265.797 256.12L264.801 256.031L264.705 257.12H265.797V256.12ZM279.482 256.12V257.12H280.538L280.481 256.066L279.482 256.12ZM282.589 275.224L295.239 284.079L296.386 282.441L283.736 273.586L282.589 275.224ZM294.945 282.762C291.169 289.344 284.698 292.15 274.422 292.15V294.15C285.077 294.15 292.406 291.206 296.68 283.758L294.945 282.762ZM274.422 292.15C265.564 292.15 259.36 289.299 255.358 284.835C251.34 280.352 249.432 274.118 249.432 267.16H247.432C247.432 274.462 249.435 281.223 253.869 286.17C258.32 291.136 265.11 294.15 274.422 294.15V292.15ZM249.432 267.16V259.11H247.432V267.16H249.432ZM249.432 259.11C249.432 250.36 251.689 244.213 255.612 240.249C259.534 236.287 265.276 234.35 272.582 234.35V232.35C264.939 232.35 258.606 234.381 254.19 238.842C249.776 243.302 247.432 250.035 247.432 259.11H249.432ZM272.582 234.35C280.727 234.35 286.444 236.674 290.15 241.014C293.883 245.386 295.732 251.979 295.732 260.835H297.732C297.732 251.751 295.844 244.602 291.671 239.716C287.471 234.798 281.112 232.35 272.582 232.35V234.35ZM295.732 260.835V267.62H297.732V260.835H295.732ZM296.732 266.62H265.682V268.62H296.732V266.62ZM264.683 267.655C264.799 270.959 265.26 273.967 266.736 276.157C268.277 278.443 270.792 279.66 274.537 279.66V277.66C271.268 277.66 269.47 276.634 268.395 275.039C267.255 273.348 266.796 270.836 266.682 267.585L264.683 267.655ZM274.537 279.66C277.33 279.66 279.175 279.246 280.615 278.382C282.027 277.535 282.947 276.303 283.95 275.021L282.375 273.789C281.308 275.152 280.618 276.048 279.586 276.667C278.583 277.269 277.15 277.66 274.537 277.66V279.66ZM272.697 246.84C270.192 246.84 268.271 247.725 266.949 249.425C265.67 251.07 265.038 253.365 264.801 256.031L266.794 256.209C267.016 253.7 267.593 251.855 268.527 250.653C269.419 249.507 270.718 248.84 272.697 248.84V246.84ZM265.797 257.12H279.482V255.12H265.797V257.12ZM280.481 256.066C280.304 252.815 279.589 250.47 278.214 248.94C276.803 247.371 274.867 246.84 272.697 246.84V248.84C274.552 248.84 275.836 249.287 276.726 250.277C277.651 251.305 278.316 253.1 278.484 256.174L280.481 256.066ZM349.903 243.01L350.484 243.824L351.189 243.32L350.791 242.55L349.903 243.01ZM337.023 252.21L336.165 252.724L336.723 253.653L337.604 253.024L337.023 252.21ZM323.223 292V293H324.223V292H323.223ZM305.973 292H304.973V293H305.973V292ZM305.973 234.5V233.5H304.973V234.5H305.973ZM322.763 234.5H323.763V233.5H322.763V234.5ZM322.763 238.87H321.763V241.75L323.548 239.49L322.763 238.87ZM349.322 242.196L336.442 251.396L337.604 253.024L350.484 243.824L349.322 242.196ZM337.88 251.696C336.846 249.972 334.977 247.07 331.043 247.07V249.07C333.779 249.07 335.13 250.998 336.165 252.724L337.88 251.696ZM331.043 247.07C328.311 247.07 326.029 248.04 324.472 250.167C322.955 252.239 322.223 255.276 322.223 259.225H324.223C324.223 255.469 324.928 252.929 326.085 251.349C327.201 249.825 328.83 249.07 331.043 249.07V247.07ZM322.223 259.225V292H324.223V259.225H322.223ZM323.223 291H305.973V293H323.223V291ZM306.973 292V234.5H304.973V292H306.973ZM305.973 235.5H322.763V233.5H305.973V235.5ZM321.763 234.5V238.87H323.763V234.5H321.763ZM323.548 239.49C325.139 237.474 328.669 234.35 334.838 234.35V232.35C327.896 232.35 323.837 235.896 321.978 238.25L323.548 239.49ZM334.838 234.35C340.988 234.35 345.837 237.333 349.015 243.47L350.791 242.55C347.299 235.807 341.798 232.35 334.838 232.35V234.35ZM355.652 292H354.652V293H355.652V292ZM355.652 234.5V233.5H354.652V234.5H355.652ZM372.902 234.5H373.902V233.5H372.902V234.5ZM372.902 292V293H373.902V292H372.902ZM355.077 228.75H354.077V229.75H355.077V228.75ZM355.077 212.65V211.65H354.077V212.65H355.077ZM373.477 212.65H374.477V211.65H373.477V212.65ZM373.477 228.75V229.75H374.477V228.75H373.477ZM356.652 292V234.5H354.652V292H356.652ZM355.652 235.5H372.902V233.5H355.652V235.5ZM371.902 234.5V292H373.902V234.5H371.902ZM372.902 291H355.652V293H372.902V291ZM356.077 228.75V212.65H354.077V228.75H356.077ZM355.077 213.65H373.477V211.65H355.077V213.65ZM372.477 212.65V228.75H374.477V212.65H372.477ZM373.477 227.75H355.077V229.75H373.477V227.75ZM417.928 274.405L418.502 273.586L417.725 273.042L417.141 273.789L417.928 274.405ZM430.578 283.26L431.445 283.758L431.9 282.965L431.152 282.441L430.578 283.26ZM431.498 267.62V268.62H432.498V267.62H431.498ZM400.448 267.62V266.62H399.412L399.449 267.655L400.448 267.62ZM400.563 256.12L399.567 256.031L399.47 257.12H400.563V256.12ZM414.248 256.12V257.12H415.304L415.247 256.066L414.248 256.12ZM417.355 275.224L430.005 284.079L431.152 282.441L418.502 273.586L417.355 275.224ZM429.711 282.762C425.935 289.344 419.464 292.15 409.188 292.15V294.15C419.842 294.15 427.172 291.206 431.445 283.758L429.711 282.762ZM409.188 292.15C400.33 292.15 394.125 289.299 390.124 284.835C386.106 280.352 384.198 274.118 384.198 267.16H382.198C382.198 274.462 384.2 281.223 388.635 286.17C393.086 291.136 399.876 294.15 409.188 294.15V292.15ZM384.198 267.16V259.11H382.198V267.16H384.198ZM384.198 259.11C384.198 250.36 386.455 244.213 390.378 240.249C394.299 236.287 400.042 234.35 407.348 234.35V232.35C399.704 232.35 393.372 234.381 388.956 238.842C384.541 243.302 382.198 250.035 382.198 259.11H384.198ZM407.348 234.35C415.493 234.35 421.209 236.674 424.916 241.014C428.649 245.386 430.498 251.979 430.498 260.835H432.498C432.498 251.751 430.61 244.602 426.437 239.716C422.237 234.798 415.878 232.35 407.348 232.35V234.35ZM430.498 260.835V267.62H432.498V260.835H430.498ZM431.498 266.62H400.448V268.62H431.498V266.62ZM399.449 267.655C399.565 270.959 400.026 273.967 401.502 276.157C403.043 278.443 405.557 279.66 409.303 279.66V277.66C406.034 277.66 404.236 276.634 403.16 275.039C402.02 273.348 401.562 270.836 401.447 267.585L399.449 267.655ZM409.303 279.66C412.095 279.66 413.94 279.246 415.381 278.382C416.793 277.535 417.712 276.303 418.716 275.021L417.141 273.789C416.074 275.152 415.383 276.048 414.352 276.667C413.348 277.269 411.916 277.66 409.303 277.66V279.66ZM407.463 246.84C404.957 246.84 403.037 247.725 401.714 249.425C400.435 251.07 399.804 253.365 399.567 256.031L401.559 256.209C401.782 253.7 402.358 251.855 403.293 250.653C404.184 249.507 405.484 248.84 407.463 248.84V246.84ZM400.563 257.12H414.248V255.12H400.563V257.12ZM415.247 256.066C415.069 252.815 414.355 250.47 412.979 248.94C411.569 247.371 409.633 246.84 407.463 246.84V248.84C409.318 248.84 410.602 249.287 411.492 250.277C412.417 251.305 413.082 253.1 413.25 256.174L415.247 256.066ZM440.738 292H439.738V293H440.738V292ZM440.738 234.5V233.5H439.738V234.5H440.738ZM457.528 234.5H458.528V233.5H457.528V234.5ZM457.528 238.87H456.528V241.721L458.309 239.495L457.528 238.87ZM490.878 292V293H491.878V292H490.878ZM473.628 292H472.628V293H473.628V292ZM457.988 292V293H458.988V292H457.988ZM441.738 292V234.5H439.738V292H441.738ZM440.738 235.5H457.528V233.5H440.738V235.5ZM456.528 234.5V238.87H458.528V234.5H456.528ZM458.309 239.495C459.999 237.383 463.985 234.35 469.718 234.35V232.35C463.262 232.35 458.738 235.757 456.748 238.245L458.309 239.495ZM469.718 234.35C475.224 234.35 480.233 235.588 483.86 238.812C487.465 242.016 489.878 247.338 489.878 255.89H491.878C491.878 246.962 489.347 241.014 485.189 237.318C481.054 233.642 475.483 232.35 469.718 232.35V234.35ZM489.878 255.89V292H491.878V255.89H489.878ZM490.878 291H473.628V293H490.878V291ZM474.628 292V259.225H472.628V292H474.628ZM474.628 259.225C474.628 255.345 474.176 252.307 472.865 250.225C471.481 248.028 469.264 247.07 466.268 247.07V249.07C468.793 249.07 470.256 249.837 471.172 251.291C472.161 252.861 472.628 255.4 472.628 259.225H474.628ZM466.268 247.07C463.057 247.07 460.636 248.073 459.074 250.246C457.565 252.345 456.988 255.366 456.988 259.11H458.988C458.988 255.494 459.562 252.995 460.698 251.414C461.781 249.907 463.5 249.07 466.268 249.07V247.07ZM456.988 259.11V292H458.988V259.11H456.988ZM457.988 291H440.738V293H457.988V291ZM534.161 274.405L534.731 273.583L533.863 272.981L533.309 273.881L534.161 274.405ZM546.926 283.26L547.777 283.785L548.274 282.978L547.496 282.438L546.926 283.26ZM546.926 243.24L547.497 244.061L548.262 243.528L547.785 242.728L546.926 243.24ZM534.046 252.21L533.226 252.783L533.799 253.601L534.617 253.031L534.046 252.21ZM533.591 275.227L546.356 284.082L547.496 282.438L534.731 273.583L533.591 275.227ZM546.075 282.735C544.037 286.039 541.534 288.368 538.267 289.886C534.981 291.413 530.857 292.15 525.536 292.15V294.15C531.025 294.15 535.468 293.392 539.11 291.699C542.773 289.997 545.559 287.381 547.777 283.785L546.075 282.735ZM525.536 292.15C517.357 292.15 511.14 289.579 506.965 285.24C502.784 280.896 500.546 274.668 500.546 267.16H498.546C498.546 275.062 500.907 281.829 505.524 286.627C510.147 291.431 516.925 294.15 525.536 294.15V292.15ZM500.546 267.16V259.11H498.546V267.16H500.546ZM500.546 259.11C500.546 250.834 502.794 244.695 507.078 240.615C511.37 236.526 517.867 234.35 526.686 234.35V232.35C517.565 232.35 510.491 234.601 505.698 239.167C500.897 243.74 498.546 250.481 498.546 259.11H500.546ZM526.686 234.35C535.529 234.35 542.387 237.584 546.067 243.752L547.785 242.728C543.644 235.786 536.012 232.35 526.686 232.35V234.35ZM546.354 242.419L533.474 251.389L534.617 253.031L547.497 244.061L546.354 242.419ZM534.865 251.637C534.037 250.454 533.059 249.237 531.678 248.327C530.277 247.405 528.529 246.84 526.226 246.84V248.84C528.177 248.84 529.534 249.31 530.577 249.998C531.64 250.698 532.444 251.666 533.226 252.783L534.865 251.637ZM526.226 246.84C522.239 246.84 519.492 247.97 517.831 250.479C516.244 252.876 515.796 256.338 515.796 260.605H517.796C517.796 256.362 518.268 253.442 519.498 251.583C520.655 249.837 522.623 248.84 526.226 248.84V246.84ZM515.796 260.605V265.665H517.796V260.605H515.796ZM515.796 265.665C515.796 269.433 516.008 272.94 517.448 275.499C518.189 276.816 519.248 277.876 520.724 278.596C522.184 279.307 523.999 279.66 526.226 279.66V277.66C524.198 277.66 522.706 277.337 521.6 276.798C520.51 276.267 519.744 275.502 519.191 274.518C518.043 272.478 517.796 269.487 517.796 265.665H515.796ZM526.226 279.66C528.286 279.66 529.99 279.327 531.448 278.532C532.911 277.734 534.032 276.522 535.012 274.929L533.309 273.881C532.45 275.278 531.558 276.194 530.491 276.776C529.419 277.361 528.075 277.66 526.226 277.66V279.66ZM584.588 274.405L585.162 273.586L584.385 273.042L583.801 273.789L584.588 274.405ZM597.238 283.26L598.106 283.758L598.56 282.965L597.812 282.441L597.238 283.26ZM598.158 267.62V268.62H599.158V267.62H598.158ZM567.108 267.62V266.62H566.073L566.109 267.655L567.108 267.62ZM567.223 256.12L566.227 256.031L566.13 257.12H567.223V256.12ZM580.908 256.12V257.12H581.964L581.907 256.066L580.908 256.12ZM584.015 275.224L596.665 284.079L597.812 282.441L585.162 273.586L584.015 275.224ZM596.371 282.762C592.595 289.344 586.124 292.15 575.848 292.15V294.15C586.502 294.15 593.832 291.206 598.106 283.758L596.371 282.762ZM575.848 292.15C566.99 292.15 560.786 289.299 556.784 284.835C552.766 280.352 550.858 274.118 550.858 267.16H548.858C548.858 274.462 550.861 281.223 555.295 286.17C559.746 291.136 566.536 294.15 575.848 294.15V292.15ZM550.858 267.16V259.11H548.858V267.16H550.858ZM550.858 259.11C550.858 250.36 553.115 244.213 557.038 240.249C560.959 236.287 566.702 234.35 574.008 234.35V232.35C566.364 232.35 560.032 234.381 555.616 238.842C551.202 243.302 548.858 250.035 548.858 259.11H550.858ZM574.008 234.35C582.153 234.35 587.869 236.674 591.576 241.014C595.309 245.386 597.158 251.979 597.158 260.835H599.158C599.158 251.751 597.27 244.602 593.097 239.716C588.897 234.798 582.538 232.35 574.008 232.35V234.35ZM597.158 260.835V267.62H599.158V260.835H597.158ZM598.158 266.62H567.108V268.62H598.158V266.62ZM566.109 267.655C566.225 270.959 566.686 273.967 568.162 276.157C569.703 278.443 572.217 279.66 575.963 279.66V277.66C572.694 277.66 570.896 276.634 569.821 275.039C568.681 273.348 568.222 270.836 568.108 267.585L566.109 267.655ZM575.963 279.66C578.755 279.66 580.6 279.246 582.041 278.382C583.453 277.535 584.373 276.303 585.376 275.021L583.801 273.789C582.734 275.152 582.043 276.048 581.012 276.667C580.009 277.269 578.576 277.66 575.963 277.66V279.66ZM574.123 246.84C571.617 246.84 569.697 247.725 568.374 249.425C567.096 251.07 566.464 253.365 566.227 256.031L568.219 256.209C568.442 253.7 569.018 251.855 569.953 250.653C570.844 249.507 572.144 248.84 574.123 248.84V246.84ZM567.223 257.12H580.908V255.12H567.223V257.12ZM581.907 256.066C581.729 252.815 581.015 250.47 579.639 248.94C578.229 247.371 576.293 246.84 574.123 246.84V248.84C575.978 248.84 577.262 249.287 578.152 250.277C579.077 251.305 579.742 253.1 579.91 256.174L581.907 256.066ZM116.138 345.895L116.723 346.706L117.474 346.165L116.992 345.375L116.138 345.895ZM103.373 355.095L102.616 355.749L103.215 356.442L103.958 355.906L103.373 355.095ZM95.3229 357.97L95.1309 358.951L95.1365 358.952L95.3229 357.97ZM69.4479 386.605L68.8614 385.795L68.0443 386.387L68.6432 387.199L69.4479 386.605ZM82.7879 376.945L83.5921 376.351L83.0035 375.554L82.2014 376.135L82.7879 376.945ZM92.333 374.185L92.1169 375.161L92.1248 375.163L92.333 374.185ZM115.553 345.084L102.788 354.284L103.958 355.906L116.723 346.706L115.553 345.084ZM104.13 354.441C102.985 353.116 101.753 351.996 100.066 351.224C98.3853 350.456 96.3341 350.07 93.5979 350.07V352.07C96.1518 352.07 97.8956 352.431 99.2341 353.043C100.565 353.652 101.576 354.544 102.616 355.749L104.13 354.441ZM93.5979 350.07C92.3582 350.07 90.8457 350.183 89.6097 350.691C88.9808 350.95 88.371 351.331 87.916 351.902C87.4487 352.488 87.193 353.214 87.193 354.06H89.193C89.193 353.641 89.311 353.361 89.4798 353.149C89.6609 352.922 89.9495 352.714 90.3699 352.541C91.2327 352.187 92.4227 352.07 93.5979 352.07V350.07ZM87.193 354.06C87.193 354.717 87.3515 355.344 87.7347 355.91C88.1084 356.463 88.6491 356.89 89.3001 357.24C90.5702 357.924 92.4913 358.435 95.1309 358.951L95.515 356.989C92.8646 356.47 91.2207 356.003 90.2483 355.48C89.7781 355.226 89.5281 354.992 89.3915 354.79C89.2644 354.602 89.193 354.38 89.193 354.06H87.193ZM95.1365 358.952C102.934 360.432 108.118 362.711 111.351 365.795C114.543 368.84 115.943 372.777 115.943 377.865H117.943C117.943 372.373 116.411 367.858 112.731 364.348C109.093 360.877 103.466 358.498 95.5094 356.988L95.1365 358.952ZM115.943 377.865C115.943 383.358 114.005 387.624 110.379 390.541C106.722 393.483 101.225 395.15 93.943 395.15V397.15C101.496 397.15 107.499 395.425 111.633 392.099C115.798 388.749 117.943 383.872 117.943 377.865H115.943ZM93.943 395.15C82.3529 395.15 75.1541 392.655 70.2527 386.011L68.6432 387.199C74.0918 394.585 82.073 397.15 93.943 397.15V395.15ZM70.0345 387.415L83.3745 377.755L82.2014 376.135L68.8614 385.795L70.0345 387.415ZM81.9838 377.539C83.012 378.931 84.192 380.192 86.0334 381.08C87.8564 381.96 90.2354 382.43 93.5979 382.43V380.43C90.4055 380.43 88.357 379.98 86.9025 379.279C85.4664 378.586 84.5189 377.604 83.5921 376.351L81.9838 377.539ZM93.5979 382.43C95.5594 382.43 97.2615 382.167 98.5109 381.551C99.8133 380.908 100.693 379.83 100.693 378.325H98.693C98.693 378.89 98.4226 379.364 97.6263 379.757C96.7769 380.176 95.4315 380.43 93.5979 380.43V382.43ZM100.693 378.325C100.693 377.62 100.532 376.957 100.135 376.362C99.7456 375.78 99.1821 375.341 98.5087 374.984C97.2006 374.289 95.2217 373.777 92.5411 373.207L92.1248 375.163C94.8492 375.743 96.5503 376.208 97.5709 376.75C98.0619 377.011 98.325 377.254 98.4716 377.474C98.6096 377.68 98.693 377.938 98.693 378.325H100.693ZM92.549 373.209C86.1086 371.784 80.9451 369.786 77.4035 366.846C73.9128 363.948 71.9429 360.092 71.9429 354.75H69.9429C69.9429 360.678 72.1706 365.102 76.1261 368.385C80.0308 371.626 85.5623 373.711 92.1169 375.161L92.549 373.209ZM71.9429 354.75C71.9429 349.261 73.9068 344.963 77.5518 342.015C81.2259 339.043 86.7241 337.35 93.943 337.35V335.35C86.4418 335.35 80.44 337.107 76.2941 340.46C72.1191 343.837 69.9429 348.739 69.9429 354.75H71.9429ZM93.943 337.35C103.272 337.35 111.08 339.517 115.284 346.415L116.992 345.375C112.226 337.553 103.474 335.35 93.943 335.35V337.35ZM121.53 351.99H120.53V352.99H121.53V351.99ZM121.53 337.5V336.5H120.53V337.5H121.53ZM128.89 337.5V338.5H129.89V337.5H128.89ZM128.89 324.85V323.85H127.89V324.85H128.89ZM146.14 324.85H147.14V323.85H146.14V324.85ZM146.14 337.5H145.14V338.5H146.14V337.5ZM156.49 337.5H157.49V336.5H156.49V337.5ZM156.49 351.99V352.99H157.49V351.99H156.49ZM146.14 351.99V350.99H145.14V351.99H146.14ZM156.49 380.05H157.49V379.05H156.49V380.05ZM156.49 395V396H157.49V395H156.49ZM128.89 351.99H129.89V350.99H128.89V351.99ZM122.53 351.99V337.5H120.53V351.99H122.53ZM121.53 338.5H128.89V336.5H121.53V338.5ZM129.89 337.5V324.85H127.89V337.5H129.89ZM128.89 325.85H146.14V323.85H128.89V325.85ZM145.14 324.85V337.5H147.14V324.85H145.14ZM146.14 338.5H156.49V336.5H146.14V338.5ZM155.49 337.5V351.99H157.49V337.5H155.49ZM156.49 350.99H146.14V352.99H156.49V350.99ZM145.14 351.99V373.495H147.14V351.99H145.14ZM145.14 373.495C145.14 375.829 145.448 377.773 146.523 379.121C147.648 380.532 149.404 381.05 151.66 381.05V379.05C149.662 379.05 148.658 378.59 148.087 377.874C147.465 377.095 147.14 375.761 147.14 373.495H145.14ZM151.66 381.05H156.49V379.05H151.66V381.05ZM155.49 380.05V395H157.49V380.05H155.49ZM156.49 394H149.705V396H156.49V394ZM149.705 394C142.693 394 137.819 393.205 134.667 390.645C131.573 388.131 129.89 383.691 129.89 375.68H127.89C127.89 383.884 129.6 389.104 133.406 392.197C137.154 395.242 142.688 396 149.705 396V394ZM129.89 375.68V351.99H127.89V375.68H129.89ZM128.89 350.99H121.53V352.99H128.89V350.99ZM193.045 359.925V360.925H194.045V359.925H193.045ZM174.645 354.29L174.074 355.111L174.897 355.683L175.467 354.859L174.645 354.29ZM162.57 345.895L161.724 345.363L161.215 346.171L161.999 346.716L162.57 345.895ZM209.835 395V396H210.835V395H209.835ZM193.045 395H192.045V396H193.045V395ZM193.045 390.285H194.045V386.82L192.199 389.752L193.045 390.285ZM193.045 372.115H194.045V371.115H193.045V372.115ZM162.65 377.865C162.65 372.11 164.827 367.925 168.362 365.154C171.93 362.357 176.978 360.925 182.81 360.925V358.925C176.682 358.925 171.151 360.426 167.128 363.58C163.073 366.76 160.65 371.545 160.65 377.865H162.65ZM182.81 360.925H193.045V358.925H182.81V360.925ZM194.045 359.925V358.2H192.045V359.925H194.045ZM194.045 358.2C194.045 355.421 193.821 353.044 192.224 351.466C190.643 349.903 187.982 349.38 183.96 349.38V351.38C187.988 351.38 189.869 351.95 190.818 352.888C191.752 353.811 192.045 355.344 192.045 358.2H194.045ZM183.96 349.38C181.444 349.38 179.475 349.611 177.84 350.29C176.169 350.985 174.938 352.111 173.823 353.721L175.467 354.859C176.423 353.479 177.376 352.65 178.608 352.137C179.877 351.609 181.531 351.38 183.96 351.38V349.38ZM175.216 353.469L163.141 345.074L161.999 346.716L174.074 355.111L175.216 353.469ZM163.417 346.427C165.554 343.03 168.181 340.789 171.723 339.378C175.302 337.952 179.87 337.35 185.915 337.35V335.35C179.771 335.35 174.908 335.956 170.983 337.52C167.022 339.098 164.071 341.63 161.724 345.363L163.417 346.427ZM185.915 337.35C193.345 337.35 199.027 338.419 202.858 341.473C206.634 344.484 208.835 349.614 208.835 358.315H210.835C210.835 349.306 208.551 343.454 204.105 339.909C199.714 336.409 193.435 335.35 185.915 335.35V337.35ZM208.835 358.315V395H210.835V358.315H208.835ZM209.835 394H193.045V396H209.835V394ZM194.045 395V390.285H192.045V395H194.045ZM192.199 389.752C191.278 391.214 190.117 392.548 188.48 393.523C186.846 394.495 184.671 395.15 181.66 395.15V397.15C184.974 397.15 187.514 396.425 189.503 395.241C191.488 394.059 192.857 392.461 193.891 390.818L192.199 389.752ZM181.66 395.15C176.199 395.15 171.447 393.645 168.077 390.774C164.73 387.922 162.65 383.641 162.65 377.865H160.65C160.65 384.164 162.941 389.025 166.78 392.297C170.598 395.55 175.851 397.15 181.66 397.15V395.15ZM194.045 373.84V372.115H192.045V373.84H194.045ZM193.045 371.115H185.225V373.115H193.045V371.115ZM185.225 371.115C182.961 371.115 181.006 371.496 179.6 372.532C178.132 373.615 177.44 375.277 177.44 377.405H179.44C179.44 375.738 179.956 374.755 180.787 374.142C181.682 373.482 183.119 373.115 185.225 373.115V371.115ZM177.44 377.405C177.44 379.372 178.239 380.976 179.721 382.052C181.161 383.098 183.15 383.58 185.455 383.58V381.58C183.391 381.58 181.872 381.142 180.896 380.434C179.964 379.757 179.44 378.773 179.44 377.405H177.44ZM185.455 383.58C188.539 383.58 190.775 382.644 192.197 380.806C193.578 379.021 194.045 376.566 194.045 373.84H192.045C192.045 376.404 191.592 378.319 190.615 379.582C189.68 380.791 188.121 381.58 185.455 381.58V383.58ZM264.158 346.01L264.739 346.824L265.445 346.32L265.046 345.55L264.158 346.01ZM251.278 355.21L250.421 355.724L250.978 356.653L251.859 356.024L251.278 355.21ZM237.478 395V396H238.478V395H237.478ZM220.228 395H219.228V396H220.228V395ZM220.228 337.5V336.5H219.228V337.5H220.228ZM237.018 337.5H238.018V336.5H237.018V337.5ZM237.018 341.87H236.018V344.751L237.803 342.49L237.018 341.87ZM263.577 345.196L250.697 354.396L251.859 356.024L264.739 346.824L263.577 345.196ZM252.136 354.695C251.101 352.972 249.232 350.07 245.298 350.07V352.07C248.034 352.07 249.385 353.998 250.421 355.724L252.136 354.695ZM245.298 350.07C242.566 350.07 240.285 351.04 238.727 353.167C237.21 355.239 236.478 358.276 236.478 362.225H238.478C238.478 358.469 239.184 355.929 240.341 354.349C241.457 352.825 243.085 352.07 245.298 352.07V350.07ZM236.478 362.225V395H238.478V362.225H236.478ZM237.478 394H220.228V396H237.478V394ZM221.228 395V337.5H219.228V395H221.228ZM220.228 338.5H237.018V336.5H220.228V338.5ZM236.018 337.5V341.87H238.018V337.5H236.018ZM237.803 342.49C239.395 340.474 242.925 337.35 249.093 337.35V335.35C242.152 335.35 238.092 338.896 236.233 341.25L237.803 342.49ZM249.093 337.35C255.243 337.35 260.092 340.333 263.27 346.47L265.046 345.55C261.554 338.807 256.053 335.35 249.093 335.35V337.35ZM265.056 351.99H264.056V352.99H265.056V351.99ZM265.056 337.5V336.5H264.056V337.5H265.056ZM272.416 337.5V338.5H273.416V337.5H272.416ZM272.416 324.85V323.85H271.416V324.85H272.416ZM289.666 324.85H290.666V323.85H289.666V324.85ZM289.666 337.5H288.666V338.5H289.666V337.5ZM300.016 337.5H301.016V336.5H300.016V337.5ZM300.016 351.99V352.99H301.016V351.99H300.016ZM289.666 351.99V350.99H288.666V351.99H289.666ZM300.016 380.05H301.016V379.05H300.016V380.05ZM300.016 395V396H301.016V395H300.016ZM272.416 351.99H273.416V350.99H272.416V351.99ZM266.056 351.99V337.5H264.056V351.99H266.056ZM265.056 338.5H272.416V336.5H265.056V338.5ZM273.416 337.5V324.85H271.416V337.5H273.416ZM272.416 325.85H289.666V323.85H272.416V325.85ZM288.666 324.85V337.5H290.666V324.85H288.666ZM289.666 338.5H300.016V336.5H289.666V338.5ZM299.016 337.5V351.99H301.016V337.5H299.016ZM300.016 350.99H289.666V352.99H300.016V350.99ZM288.666 351.99V373.495H290.666V351.99H288.666ZM288.666 373.495C288.666 375.829 288.973 377.773 290.048 379.121C291.174 380.532 292.929 381.05 295.186 381.05V379.05C293.187 379.05 292.183 378.59 291.612 377.874C290.991 377.095 290.666 375.761 290.666 373.495H288.666ZM295.186 381.05H300.016V379.05H295.186V381.05ZM299.016 380.05V395H301.016V380.05H299.016ZM300.016 394H293.231V396H300.016V394ZM293.231 394C286.218 394 281.344 393.205 278.193 390.645C275.099 388.131 273.416 383.691 273.416 375.68H271.416C271.416 383.884 273.125 389.104 276.931 392.197C280.68 395.242 286.214 396 293.231 396V394ZM273.416 375.68V351.99H271.416V375.68H273.416ZM272.416 350.99H265.056V352.99H272.416V350.99ZM351.865 345.895L352.45 346.706L353.201 346.165L352.719 345.375L351.865 345.895ZM339.1 355.095L338.344 355.749L338.942 356.442L339.685 355.906L339.1 355.095ZM331.05 357.97L330.858 358.951L330.864 358.952L331.05 357.97ZM305.175 386.605L304.589 385.795L303.772 386.387L304.371 387.199L305.175 386.605ZM318.516 376.945L319.32 376.351L318.731 375.554L317.929 376.135L318.516 376.945ZM328.06 374.185L327.844 375.161L327.852 375.163L328.06 374.185ZM351.281 345.084L338.516 354.284L339.685 355.906L352.45 346.706L351.281 345.084ZM339.857 354.441C338.713 353.116 337.481 351.996 335.793 351.224C334.113 350.456 332.062 350.07 329.326 350.07V352.07C331.879 352.07 333.623 352.431 334.962 353.043C336.293 353.652 337.303 354.544 338.344 355.749L339.857 354.441ZM329.326 350.07C328.086 350.07 326.573 350.183 325.337 350.691C324.708 350.95 324.099 351.331 323.644 351.902C323.176 352.488 322.921 353.214 322.921 354.06H324.921C324.921 353.641 325.039 353.361 325.207 353.149C325.388 352.922 325.677 352.714 326.097 352.541C326.96 352.187 328.15 352.07 329.326 352.07V350.07ZM322.921 354.06C322.921 354.717 323.079 355.344 323.462 355.91C323.836 356.463 324.377 356.89 325.028 357.24C326.298 357.924 328.219 358.435 330.858 358.951L331.242 356.989C328.592 356.47 326.948 356.003 325.976 355.48C325.506 355.226 325.256 354.992 325.119 354.79C324.992 354.602 324.921 354.38 324.921 354.06H322.921ZM330.864 358.952C338.662 360.432 343.846 362.711 347.078 365.795C350.27 368.84 351.671 372.777 351.671 377.865H353.671C353.671 372.373 352.138 367.858 348.459 364.348C344.82 360.877 339.194 358.498 331.237 356.988L330.864 358.952ZM351.671 377.865C351.671 383.358 349.733 387.624 346.107 390.541C342.449 393.483 336.952 395.15 329.671 395.15V397.15C337.224 397.15 343.227 395.425 347.36 392.099C351.525 388.749 353.671 383.872 353.671 377.865H351.671ZM329.671 395.15C318.08 395.15 310.882 392.655 305.98 386.011L304.371 387.199C309.819 394.585 317.801 397.15 329.671 397.15V395.15ZM305.762 387.415L319.102 377.755L317.929 376.135L304.589 385.795L305.762 387.415ZM317.711 377.539C318.74 378.931 319.92 380.192 321.761 381.08C323.584 381.96 325.963 382.43 329.326 382.43V380.43C326.133 380.43 324.085 379.98 322.63 379.279C321.194 378.586 320.246 377.604 319.32 376.351L317.711 377.539ZM329.326 382.43C331.287 382.43 332.989 382.167 334.238 381.551C335.541 380.908 336.421 379.83 336.421 378.325H334.421C334.421 378.89 334.15 379.364 333.354 379.757C332.504 380.176 331.159 380.43 329.326 380.43V382.43ZM336.421 378.325C336.421 377.62 336.259 376.957 335.862 376.362C335.473 375.78 334.91 375.341 334.236 374.984C332.928 374.289 330.949 373.777 328.269 373.207L327.852 375.163C330.577 375.743 332.278 376.208 333.298 376.75C333.789 377.011 334.052 377.254 334.199 377.474C334.337 377.68 334.421 377.938 334.421 378.325H336.421ZM328.277 373.209C321.836 371.784 316.673 369.786 313.131 366.846C309.64 363.948 307.671 360.092 307.671 354.75H305.671C305.671 360.678 307.898 365.102 311.854 368.385C315.758 371.626 321.29 373.711 327.844 375.161L328.277 373.209ZM307.671 354.75C307.671 349.261 309.634 344.963 313.279 342.015C316.953 339.043 322.452 337.35 329.671 337.35V335.35C322.169 335.35 316.168 337.107 312.022 340.46C307.847 343.837 305.671 348.739 305.671 354.75H307.671ZM329.671 337.35C339 337.35 346.808 339.517 351.012 346.415L352.719 345.375C347.953 337.553 339.201 335.35 329.671 335.35V337.35ZM390.033 395H389.033V396H390.033V395ZM390.033 315.65V314.65H389.033V315.65H390.033ZM407.283 315.65H408.283V314.65H407.283V315.65ZM407.283 341.41H406.283V344.15L408.048 342.054L407.283 341.41ZM440.173 395V396H441.173V395H440.173ZM422.923 395H421.923V396H422.923V395ZM407.283 395V396H408.283V395H407.283ZM391.033 395V315.65H389.033V395H391.033ZM390.033 316.65H407.283V314.65H390.033V316.65ZM406.283 315.65V341.41H408.283V315.65H406.283ZM408.048 342.054C409.725 340.062 413.598 337.35 419.013 337.35V335.35C412.928 335.35 408.52 338.388 406.518 340.766L408.048 342.054ZM419.013 337.35C424.519 337.35 429.528 338.588 433.155 341.812C436.759 345.016 439.173 350.338 439.173 358.89H441.173C441.173 349.962 438.642 344.014 434.484 340.318C430.348 336.642 424.777 335.35 419.013 335.35V337.35ZM439.173 358.89V395H441.173V358.89H439.173ZM440.173 394H422.923V396H440.173V394ZM423.923 395V362.225H421.923V395H423.923ZM423.923 362.225C423.923 358.345 423.47 355.307 422.159 353.225C420.775 351.028 418.559 350.07 415.563 350.07V352.07C418.087 352.07 419.551 352.837 420.467 354.291C421.456 355.861 421.923 358.4 421.923 362.225H423.923ZM415.563 350.07C412.351 350.07 409.931 351.073 408.368 353.246C406.86 355.345 406.283 358.366 406.283 362.11H408.283C408.283 358.494 408.856 355.995 409.992 354.414C411.075 352.907 412.794 352.07 415.563 352.07V350.07ZM406.283 362.11V395H408.283V362.11H406.283ZM407.283 394H390.033V396H407.283V394ZM483.57 377.405L484.144 376.586L483.367 376.042L482.783 376.789L483.57 377.405ZM496.22 386.26L497.087 386.758L497.542 385.965L496.794 385.441L496.22 386.26ZM497.14 370.62V371.62H498.14V370.62H497.14ZM466.09 370.62V369.62H465.054L465.091 370.655L466.09 370.62ZM466.205 359.12L465.209 359.031L465.112 360.12H466.205V359.12ZM479.89 359.12V360.12H480.946L480.889 359.066L479.89 359.12ZM482.997 378.224L495.647 387.079L496.794 385.441L484.144 376.586L482.997 378.224ZM495.353 385.762C491.577 392.344 485.106 395.15 474.83 395.15V397.15C485.484 397.15 492.814 394.206 497.087 386.758L495.353 385.762ZM474.83 395.15C465.972 395.15 459.767 392.299 455.766 387.835C451.748 383.352 449.84 377.118 449.84 370.16H447.84C447.84 377.462 449.842 384.223 454.277 389.17C458.728 394.136 465.518 397.15 474.83 397.15V395.15ZM449.84 370.16V362.11H447.84V370.16H449.84ZM449.84 362.11C449.84 353.36 452.097 347.213 456.02 343.249C459.941 339.287 465.684 337.35 472.99 337.35V335.35C465.346 335.35 459.014 337.381 454.598 341.842C450.184 346.302 447.84 353.035 447.84 362.11H449.84ZM472.99 337.35C481.135 337.35 486.851 339.674 490.558 344.014C494.291 348.386 496.14 354.979 496.14 363.835H498.14C498.14 354.751 496.252 347.602 492.079 342.716C487.879 337.798 481.52 335.35 472.99 335.35V337.35ZM496.14 363.835V370.62H498.14V363.835H496.14ZM497.14 369.62H466.09V371.62H497.14V369.62ZM465.091 370.655C465.207 373.959 465.668 376.967 467.144 379.157C468.685 381.443 471.199 382.66 474.945 382.66V380.66C471.676 380.66 469.878 379.634 468.802 378.039C467.663 376.348 467.204 373.836 467.09 370.585L465.091 370.655ZM474.945 382.66C477.737 382.66 479.582 382.246 481.023 381.382C482.435 380.535 483.355 379.303 484.358 378.021L482.783 376.789C481.716 378.152 481.025 379.048 479.994 379.667C478.991 380.269 477.558 380.66 474.945 380.66V382.66ZM473.105 349.84C470.599 349.84 468.679 350.725 467.356 352.425C466.078 354.07 465.446 356.365 465.209 359.031L467.201 359.209C467.424 356.7 468 354.855 468.935 353.653C469.826 352.507 471.126 351.84 473.105 351.84V349.84ZM466.205 360.12H479.89V358.12H466.205V360.12ZM480.889 359.066C480.711 355.815 479.997 353.47 478.621 351.94C477.211 350.371 475.275 349.84 473.105 349.84V351.84C474.96 351.84 476.244 352.287 477.134 353.277C478.059 354.305 478.724 356.1 478.892 359.174L480.889 359.066ZM550.311 346.01L550.892 346.824L551.597 346.32L551.199 345.55L550.311 346.01ZM537.431 355.21L536.573 355.724L537.13 356.653L538.012 356.024L537.431 355.21ZM523.631 395V396H524.631V395H523.631ZM506.381 395H505.381V396H506.381V395ZM506.381 337.5V336.5H505.381V337.5H506.381ZM523.171 337.5H524.171V336.5H523.171V337.5ZM523.171 341.87H522.171V344.751L523.955 342.49L523.171 341.87ZM549.729 345.196L536.849 354.396L538.012 356.024L550.892 346.824L549.729 345.196ZM538.288 354.695C537.254 352.972 535.385 350.07 531.451 350.07V352.07C534.187 352.07 535.537 353.998 536.573 355.724L538.288 354.695ZM531.451 350.07C528.719 350.07 526.437 351.04 524.879 353.167C523.362 355.239 522.631 358.276 522.631 362.225H524.631C524.631 358.469 525.336 355.929 526.493 354.349C527.609 352.825 529.238 352.07 531.451 352.07V350.07ZM522.631 362.225V395H524.631V362.225H522.631ZM523.631 394H506.381V396H523.631V394ZM507.381 395V337.5H505.381V395H507.381ZM506.381 338.5H523.171V336.5H506.381V338.5ZM522.171 337.5V341.87H524.171V337.5H522.171ZM523.955 342.49C525.547 340.474 529.077 337.35 535.246 337.35V335.35C528.304 335.35 524.244 338.896 522.386 341.25L523.955 342.49ZM535.246 337.35C541.396 337.35 546.245 340.333 549.423 346.47L551.199 345.55C547.707 338.807 542.205 335.35 535.246 335.35V337.35ZM586.217 377.405L586.79 376.586L586.013 376.042L585.429 376.789L586.217 377.405ZM598.867 386.26L599.734 386.758L600.189 385.965L599.44 385.441L598.867 386.26ZM599.787 370.62V371.62H600.787V370.62H599.787ZM568.737 370.62V369.62H567.701L567.737 370.655L568.737 370.62ZM568.852 359.12L567.856 359.031L567.759 360.12H568.852V359.12ZM582.537 359.12V360.12H583.593L583.535 359.066L582.537 359.12ZM585.643 378.224L598.293 387.079L599.44 385.441L586.79 376.586L585.643 378.224ZM597.999 385.762C594.223 392.344 587.752 395.15 577.477 395.15V397.15C588.131 397.15 595.46 394.206 599.734 386.758L597.999 385.762ZM577.477 395.15C568.619 395.15 562.414 392.299 558.413 387.835C554.394 383.352 552.487 377.118 552.487 370.16H550.487C550.487 377.462 552.489 384.223 556.923 389.17C561.374 394.136 568.165 397.15 577.477 397.15V395.15ZM552.487 370.16V362.11H550.487V370.16H552.487ZM552.487 362.11C552.487 353.36 554.743 347.213 558.666 343.249C562.588 339.287 568.33 337.35 575.637 337.35V335.35C567.993 335.35 561.661 337.381 557.245 341.842C552.83 346.302 550.487 353.035 550.487 362.11H552.487ZM575.637 337.35C583.782 337.35 589.498 339.674 593.204 344.014C596.938 348.386 598.787 354.979 598.787 363.835H600.787C600.787 354.751 598.898 347.602 594.725 342.716C590.526 337.798 584.167 335.35 575.637 335.35V337.35ZM598.787 363.835V370.62H600.787V363.835H598.787ZM599.787 369.62H568.737V371.62H599.787V369.62ZM567.737 370.655C567.853 373.959 568.314 376.967 569.791 379.157C571.332 381.443 573.846 382.66 577.592 382.66V380.66C574.322 380.66 572.524 379.634 571.449 378.039C570.309 376.348 569.85 373.836 569.736 370.585L567.737 370.655ZM577.592 382.66C580.384 382.66 582.229 382.246 583.669 381.382C585.081 380.535 586.001 379.303 587.004 378.021L585.429 376.789C584.362 378.152 583.672 379.048 582.64 379.667C581.637 380.269 580.204 380.66 577.592 380.66V382.66ZM575.752 349.84C573.246 349.84 571.325 350.725 570.003 352.425C568.724 354.07 568.093 356.365 567.856 359.031L569.848 359.209C570.071 356.7 570.647 354.855 571.582 353.653C572.473 352.507 573.773 351.84 575.752 351.84V349.84ZM568.852 360.12H582.537V358.12H568.852V360.12ZM583.535 359.066C583.358 355.815 582.643 353.47 581.268 351.94C579.858 350.371 577.922 349.84 575.752 349.84V351.84C577.607 351.84 578.891 352.287 579.78 353.277C580.705 354.305 581.37 356.1 581.538 359.174L583.535 359.066Z" fill="black" mask="url(#path-5-outside-3_2001_3)"/>
</g>
<defs>
<filter id="filter0_d_2001_3" x="0.206299" y="0" width="663.448" height="219.4" filterUnits="userSpaceOnUse" color-interpolation-filters="sRGB">
<feFlood flood-opacity="0" result="BackgroundImageFix"/>
<feColorMatrix in="SourceAlpha" type="matrix" values="0 0 0 0 0 0 0 0 0 0 0 0 0 0 0 0 0 0 127 0" result="hardAlpha"/>
<feOffset/>
<feGaussianBlur stdDeviation="30"/>
<feComposite in2="hardAlpha" operator="out"/>
<feColorMatrix type="matrix" values="0 0 0 0 0.0117647 0 0 0 0 0.129412 0 0 0 0 0.745098 0 0 0 1 0"/>
<feBlend mode="normal" in2="BackgroundImageFix" result="effect1_dropShadow_2001_3"/>
<feBlend mode="normal" in="SourceGraphic" in2="effect1_dropShadow_2001_3" result="shape"/>
</filter>
<filter id="filter1_d_2001_3" x="2.44795" y="152.65" width="650.339" height="303.5" filterUnits="userSpaceOnUse" color-interpolation-filters="sRGB">
<feFlood flood-opacity="0" result="BackgroundImageFix"/>
<feColorMatrix in="SourceAlpha" type="matrix" values="0 0 0 0 0 0 0 0 0 0 0 0 0 0 0 0 0 0 127 0" result="hardAlpha"/>
<feOffset dx="-7"/>
<feGaussianBlur stdDeviation="30"/>
<feComposite in2="hardAlpha" operator="out"/>
<feColorMatrix type="matrix" values="0 0 0 0 0.0117647 0 0 0 0 0.129412 0 0 0 0 0.745098 0 0 0 1 0"/>
<feBlend mode="normal" in2="BackgroundImageFix" result="effect1_dropShadow_2001_3"/>
<feBlend mode="normal" in="SourceGraphic" in2="effect1_dropShadow_2001_3" result="shape"/>
</filter>
</defs>
</svg>
