<svg width="786" height="231" viewBox="0 0 786 231" fill="none" xmlns="http://www.w3.org/2000/svg">
<path d="M40.5912 86.6566L41.1877 93.1894L50.0312 92.385C52.5408 92.1567 54.2465 91.9212 55.5465 91.6423L56.1139 97.8565C54.7847 97.8167 52.8255 97.9146 50.5549 98.1211L25.0203 100.444C22.5904 100.665 20.6855 100.919 19.3855 101.197L18.8181 94.9833C19.9082 95.0448 21.4293 94.9867 23.8592 94.7657L24.6559 94.6932L23.8158 85.4915C23.6412 83.5795 23.4814 82.2685 23.1838 80.7693L29.7168 80.1751C29.6702 81.4244 29.7179 82.8259 29.907 84.8973L30.7508 94.1388L35.053 93.7475L33.6273 78.1324C33.4345 76.0212 33.3074 75.0688 33.0135 73.6094L39.5465 73.0152C39.4927 74.1848 39.5583 75.3437 39.7438 77.3752L40.0638 80.8806L46.1985 80.3226C48.1903 80.1414 49.5012 79.982 50.8411 79.6995L51.4048 85.8738C49.9562 85.8449 48.6778 85.921 46.8056 86.0913L40.5912 86.6566ZM31.0865 63.5024L37.5399 62.9154C41.0726 67.2934 47.2234 70.8709 54.8113 73.0324C53.7656 75.2161 53.2338 76.8711 52.5939 79.54C48.7835 78.28 45.596 76.8027 42.7451 75.0538C39.7603 73.1564 37.4635 71.3169 34.9383 68.735C33.0381 71.6793 31.3331 73.6819 28.4442 76.3546C25.7037 78.8934 22.9195 80.954 19.7152 82.812C18.5951 80.2228 17.8377 78.9662 16.334 77.0144C22.8551 73.6498 28.376 68.5688 31.0865 63.5024ZM72.9202 76.0443L63.28 76.9212C61.5671 77.077 60.6545 77.2002 59.4305 77.432L59.0122 72.8511C60.1784 72.8655 61.0584 72.8256 62.8908 72.6589L66.8744 72.2966C66.396 71.4564 66.2112 71.1921 65.7039 70.4751L62.1984 70.794C60.2863 70.9679 58.6205 71.1998 57.277 71.4425L56.7933 66.1445C58.0825 66.1879 59.1255 66.1734 61.2767 65.9777C60.57 64.837 60.0736 64.2395 58.8346 62.9866L64.3166 60.56C65.5522 62.2149 66.0233 62.9753 67.4113 65.4196L68.5666 65.3146L68.3302 62.7253C68.2283 61.61 68.0614 60.6612 67.8691 59.8754L73.8444 59.3318C73.8266 60.0163 73.8559 60.7767 73.9613 61.9319L74.2232 64.8L75.8565 64.6514L75.5946 61.7834C75.4928 60.668 75.3875 59.9546 75.1988 59.2086L81.1742 58.6651C81.1165 59.3532 81.1676 60.3526 81.2767 61.5477L81.5131 64.1369L82.7082 64.0282C83.7938 61.8408 84.2497 60.6748 84.7885 58.6576L90.6233 60.095C89.9539 61.5617 89.545 62.362 88.9225 63.4629C91.3127 63.2455 92.1818 63.0861 93.4818 62.8072L93.9655 68.1051C92.6002 68.1088 90.88 68.185 88.9679 68.3589L85.6615 68.6597C85.2781 69.7389 85.1731 69.9091 84.8801 70.6587L88.6246 70.3181C90.4172 70.155 91.3298 70.0318 92.5139 69.8036L92.9322 74.3846C91.6465 74.381 90.7665 74.4209 89.0138 74.5804L78.8557 75.5044L78.9684 76.7392L87.4534 75.9674C89.1265 75.8152 90.1586 75.6812 91.3427 75.453L91.7283 79.6754C90.5621 79.661 89.4829 79.719 87.8098 79.8712L79.3249 80.643L79.4376 81.8779L89.7949 80.9357C92.1053 80.7256 93.7313 80.4973 94.872 80.2329L95.3302 85.252C93.6426 85.2449 92.2012 85.2957 90.2493 85.4732L84.1146 86.0312C87.0089 87.8164 90.9966 88.8193 96.6102 89.1521C95.3001 91.5205 94.8044 92.6902 94.139 95.0803C88.0109 93.9508 83.6679 92.1368 79.98 89.1386C80.1579 90.2069 80.2159 90.4024 80.3069 91.3983L80.4232 92.673C80.576 94.346 80.7213 95.4976 80.9789 96.5586L74.645 97.1348C74.7314 95.8818 74.7093 94.7592 74.5638 93.1658L74.4547 91.9708C74.3638 90.9749 74.3528 90.8554 74.2908 89.7364C72.3976 91.8767 71.3224 92.8582 69.2804 94.2489C67.0863 95.7337 64.979 96.8492 62.151 97.9901C61.0819 95.9586 60.1615 94.6767 58.4297 92.8661C63.6442 91.468 67.1818 89.7404 69.8137 87.3321L64.2367 87.8394C62.2449 88.0206 60.6986 88.2416 59.1197 88.5459L58.6615 83.5268C60.0703 83.5593 61.6311 83.4976 63.7823 83.3019L73.5021 82.4178L73.3894 81.1829L65.4223 81.9076C63.7492 82.0598 62.6773 82.1975 61.5728 82.4185L61.1872 78.196C62.3136 78.2141 63.3529 78.1597 65.0658 78.0039L73.0329 77.2791L72.9202 76.0443ZM72.9692 71.7422L78.4665 71.2421C78.7885 70.3693 78.8826 70.0796 79.1285 69.254L72.0378 69.899C72.5669 70.855 72.7155 71.1628 72.9692 71.7422ZM100.955 58.4322L108.379 58.3593C107.24 63.0418 106.725 70.5995 107.108 77.8747L110.27 78.6314C109.562 82.3107 109.371 85.9429 109.735 89.9263C109.804 90.6832 109.837 91.0417 110.033 91.8673L103.21 92.8093C103.101 92.056 103.072 91.7374 102.818 90.7162C101.574 85.4472 100.979 82.007 100.633 78.2227C100.215 73.6418 100.235 68.5792 100.747 62.7488C100.97 59.9169 100.984 59.6345 100.955 58.4322ZM112.337 67.8397L111.842 61.0969C113.751 61.3249 115.88 61.332 118.988 61.0494C124.286 60.5674 128.161 59.8937 130.768 58.9737L131.668 65.76C131.31 65.7926 130.915 65.8687 128.746 66.307C126.023 66.8358 123.129 67.2597 120.381 67.5097C117.951 67.7308 115.952 67.8323 113.5 67.8143C113.178 67.8035 112.899 67.8288 112.337 67.8397ZM115.171 72.9239L120.963 74.7668C119.345 77.2837 118.665 79.0727 118.796 80.5067C118.963 82.3391 120.847 83.1719 124.233 82.8639C127.778 82.5414 131.073 81.6793 134.003 80.3284L135.045 87.3429C134.02 87.5566 134.02 87.5566 131.702 88.1289C129.58 88.6432 127.129 89.0671 124.858 89.2736C121.154 89.6106 118.636 89.3174 116.46 88.3507C114.112 87.2789 112.453 84.9396 112.216 82.3504C112.038 80.3985 112.515 78.146 113.561 75.9623C114.035 74.9954 114.238 74.5753 115.171 72.9239ZM150.751 67.1169L150.245 60.6963C151.915 60.9461 154.725 60.9315 157.752 60.6561C158.589 60.58 159.266 60.5184 160.617 60.3553C160.399 57.9653 160.399 57.9653 160.144 55.1769C160.057 54.2208 159.915 53.5509 159.741 52.9643L166.629 52.2975C166.546 53.5904 166.587 55.3539 166.947 59.2975C169.351 58.7977 171.698 58.1022 173.168 57.4865L173.985 63.7984C173.471 63.8854 173.355 63.9361 172.533 64.1715C171.324 64.5627 169.553 64.9647 167.583 65.3849C167.907 68.4884 168.019 69.2815 168.716 73.837C171.578 74.8219 173.085 75.4881 175.461 76.8786C175.675 77.0198 175.885 77.1212 176.261 77.2877L174.37 84.2878C173.352 83.2558 171.686 82.1623 169.284 80.9348C169.299 81.0941 169.31 81.2136 169.313 81.2535C169.622 84.6394 166.364 87.2252 161.265 87.689C155.409 88.2217 151.689 85.7485 151.267 81.1277C151.049 78.7377 151.935 76.5685 153.76 74.9967C155.175 73.7835 157.236 73.0338 159.745 72.8055C160.582 72.7294 161.187 72.7547 162.078 72.8343C161.936 71.7226 161.918 71.5234 161.667 69.6584C161.504 68.3077 161.453 67.75 161.286 66.3594C160.373 66.4826 159.815 66.5333 159.019 66.6058C157.824 66.7145 155.506 66.845 152.149 67.0299C151.667 67.0335 151.348 67.0625 151.229 67.0734C151.149 67.0807 150.95 67.0988 150.751 67.1169ZM162.841 79.4323L162.732 78.6791C161.703 78.4112 161.095 78.346 160.258 78.4221C158.426 78.5888 157.376 79.4073 157.478 80.5226C157.572 81.5583 158.67 82.1413 160.263 81.9963C162.175 81.8224 162.986 81.0257 162.841 79.4323ZM140.761 54.4899L148.218 54.3338C147.932 55.1631 147.658 56.5537 147.423 58.3825C146.683 63.9123 146.54 68.5041 146.922 74.0121L150.084 74.7688C149.202 78.745 149.058 82.0115 149.52 87.0704C149.538 87.2696 149.625 87.7838 149.785 88.6529L143.078 89.5442C142.973 88.8308 142.973 88.8308 142.472 86.4262C141.246 80.9147 140.887 78.7383 140.494 74.4362C139.981 68.8195 140.02 65.2815 140.618 58.1982C140.773 56.3766 140.834 55.2866 140.78 54.6891C140.776 54.6493 140.769 54.5696 140.761 54.4899ZM183.387 63.8269C185.737 63.6131 187.867 65.3874 188.082 67.7376C188.3 70.1277 186.526 72.2571 184.176 72.4709C181.786 72.6883 179.656 70.914 179.438 68.5239C179.223 66.1737 180.997 64.0443 183.387 63.8269ZM196.652 62.6202C199.002 62.4064 201.133 64.1807 201.347 66.531C201.565 68.921 199.792 71.0505 197.441 71.2642C195.051 71.4817 192.921 69.7073 192.703 67.3173C192.488 64.9671 194.262 62.8376 196.652 62.6202ZM209.957 61.4099C212.308 61.1961 214.438 62.9705 214.652 65.3207C214.87 67.7107 213.097 69.8402 210.746 70.054C208.356 70.2714 206.226 68.4971 206.008 66.107C205.793 63.7568 207.567 61.6273 209.957 61.4099ZM42.0078 134.726L41.7896 132.336L31.034 133.314C31.9841 145.92 31.266 152.572 28.4505 157.809C26.5302 155.694 25.179 154.532 22.8714 153.015C24.138 150.61 24.6951 148.792 24.9873 145.833C25.4095 142.1 25.226 135.69 24.4804 127.524C24.113 123.501 23.9859 122.548 23.5905 120.857C25.1188 120.879 26.7195 120.814 29.269 120.582L52.1744 118.498C54.2458 118.31 55.7523 118.092 57.1755 117.842C57.1615 119.009 57.2089 119.968 57.3871 121.92L57.8418 126.899C58.0163 128.811 58.1653 130.003 58.3721 130.948C57.0901 130.984 55.5328 131.086 53.5809 131.263L47.6056 131.807L47.8238 134.197L52.9227 133.733C54.9543 133.548 56.823 133.338 57.9311 133.157C57.9753 134.96 58.0483 136.641 58.1902 138.194L59.2122 149.388C59.4268 151.738 59.5866 153.049 59.9131 154.425L53.8183 154.979L53.6946 153.625L40.031 154.868L40.1547 156.222L34.0598 156.777C34.081 155.248 34.0152 153.648 33.8188 151.497L32.7859 140.184C32.684 139.068 32.4914 137.399 32.2372 135.494C33.559 135.454 34.7976 135.382 36.9885 135.182L42.0078 134.726ZM42.4697 139.785L38.6853 140.129L38.9072 142.559L42.6916 142.215L42.4697 139.785ZM43.1135 146.836L39.3291 147.18L39.5655 149.769L43.3499 149.425L43.1135 146.836ZM49.1658 148.896L53.2291 148.526L52.9927 145.937L48.9294 146.307L49.1658 148.896ZM48.5075 141.686L52.5708 141.316L52.3489 138.886L48.2857 139.256L48.5075 141.686ZM30.5612 128.136L51.8732 126.197L51.6731 124.006L30.3611 125.945L30.5612 128.136ZM75.7374 131.095L75.1844 124.599C77.2488 124.773 79.5376 124.765 82.4057 124.504C83.8796 124.37 84.8719 124.24 86.0162 124.015C85.1191 117.269 85.1118 117.189 84.6622 115.784L91.7456 115.059C91.7351 115.823 91.7243 116.146 91.7643 116.584C91.7789 116.743 91.8007 116.982 91.8733 117.337C91.9822 118.09 92.193 119.959 92.5345 122.82C94.8159 122.291 96.4128 121.744 97.9878 120.958L98.9537 127.578C98.2838 127.719 98.0484 127.781 96.676 128.146C95.2674 128.556 95.1914 128.603 93.2974 128.976C93.5118 130.884 93.5482 131.283 93.6319 132.199C94.0974 137.298 93.668 141.393 92.3581 144.204C90.8854 147.43 89.0646 149.484 85.2159 152.204C83.1726 150.06 81.7416 148.905 79.2747 147.402C83.254 145.233 85.6649 142.603 86.5583 139.63C87.1406 137.649 87.2048 135.274 86.7793 130.613C86.7757 130.573 86.7575 130.374 86.7357 130.135C85.193 130.396 84.2007 130.526 82.4878 130.682C80.9741 130.82 79.6957 130.896 78.2942 130.943C76.9723 130.983 76.9723 130.983 75.7374 131.095ZM65.458 117.933L72.8386 117.823C72.1555 121.34 71.8166 125.106 71.7603 129.328C71.7069 131.824 71.8602 134.822 72.1984 138.527C72.1984 138.527 72.2312 138.885 72.3728 139.997C72.7705 138.193 73.2335 136.665 73.9571 134.912L78.8288 136.799C76.6214 141.217 74.9398 147.435 75.0099 150.843L68.6182 151.665C68.4223 150.839 68.4223 150.839 67.7732 148.569C66.7106 144.85 65.8904 140.265 65.5049 136.043C65.1048 131.661 65.0932 129.774 65.5063 121.101C65.5673 119.569 65.5526 118.968 65.458 117.933ZM103.976 124.952L102.915 117.738C103.596 117.717 104.114 117.67 104.433 117.641C105.469 117.546 106.895 117.336 111.212 116.662C117.39 115.699 120.283 115.275 132.393 113.732C135.689 113.311 136.044 113.239 136.746 113.014L137.763 120.192C137.198 120.163 137.039 120.177 136.64 120.213C133.852 120.467 130.365 121.869 127.772 123.832C124.011 126.624 121.97 130.224 122.268 133.49C122.475 135.761 123.693 137.216 126.061 138.085C127.767 138.733 131.212 139.063 133.801 138.827C134.199 138.791 134.438 138.769 134.989 138.639L134.767 146.331C134.199 146.262 133.999 146.28 133.275 146.265C128.694 146.24 125.648 145.875 122.993 144.952C118.092 143.188 115.328 139.744 114.866 134.686C114.564 131.379 115.407 128.29 117.43 125.375C118.349 124.006 119.233 123.122 121.025 121.634L107.354 124.123C105.815 124.423 105.421 124.499 103.976 124.952ZM181.342 133.378L179.639 140.241C178.494 139.14 176.781 137.97 174.456 136.696C174.532 137.974 174.521 138.296 174.232 139.086C173.747 140.375 172.983 141.248 171.607 142.015C170.192 142.787 168.117 143.377 166.125 143.558C160.429 144.077 156.672 141.647 156.265 137.185C155.999 134.278 157.483 131.612 160.021 130.377C161.52 129.638 163.088 129.215 165.08 129.033C165.877 128.961 166.438 128.95 167.369 129.026C167.278 128.472 167.216 128.237 167.144 127.44C167.057 126.926 167.038 126.727 166.871 125.336C165.003 125.546 164.405 125.6 163.728 125.662C162.812 125.745 161.493 125.825 159.697 125.948C158.057 126.017 157.459 126.072 156.623 126.148C156.583 126.151 156.344 126.173 156.108 126.235L155.722 120.245C157.305 120.422 160.112 120.368 163.498 120.06C164.294 119.987 164.613 119.958 166.203 119.774C166.119 118.857 166.017 117.742 165.995 117.503C165.966 117.184 165.955 117.065 165.883 116.268C164.731 116.413 163.38 116.576 162.424 116.663C160.313 116.855 160.154 116.87 156.952 117C156.431 117.007 156.351 117.015 155.873 117.058C155.793 117.065 155.594 117.084 155.399 117.142L155.088 111.105C156.631 111.286 159.195 111.213 162.661 110.898C167.959 110.416 174.481 109.26 177.324 108.279L178.029 114.24C177.232 114.312 177.232 114.312 175.186 114.779C174.512 114.881 174.081 115 172.144 115.337C172.17 116.058 172.213 116.978 172.388 118.89C174.959 118.455 177.117 117.897 178.432 117.336L179.169 123.213C178.336 123.329 178.336 123.329 176.254 123.84C175.15 124.061 175.15 124.061 172.937 124.463C173.268 127.204 173.355 127.718 173.754 129.891C176.286 130.785 177.959 131.517 180.209 132.839C180.759 133.15 180.926 133.215 181.342 133.378ZM167.972 134.755C166.784 134.501 166.259 134.469 165.223 134.563C163.67 134.704 162.624 135.563 162.718 136.598C162.813 137.634 163.867 138.181 165.5 138.032C167.412 137.858 168.223 137.062 168.081 135.508C168.052 135.189 167.976 134.795 167.972 134.755ZM154.718 144.435L148.051 145.323C147.934 144.49 147.934 144.49 147.321 141.734C146.538 138.432 145.87 134.195 145.524 130.411C145.27 127.622 145.138 124.421 145.137 121.328C145.154 119.76 145.154 119.76 145.561 113.217C145.647 111.964 145.665 110.837 145.632 110.479C145.625 110.399 145.618 110.32 145.603 110.16L152.861 110.022C152.434 111.507 152.008 114.759 151.77 118.315C151.518 122.154 151.501 123.722 151.713 130.008L154.919 130.801C154.152 134.285 153.991 137.794 154.416 142.455C154.485 143.211 154.565 143.646 154.718 144.435ZM187.742 106.689L195.561 106.098C195.352 108.647 195.845 119.326 196.452 125.979C196.816 129.962 197.084 131.143 197.86 132.157C198.726 133.283 200.504 133.844 202.695 133.645C206.798 133.272 209.763 130.552 210.924 126.108C211.524 123.885 211.77 121.734 211.859 118.753C215.018 120.796 216.409 121.513 219.053 122.316C218.085 128.429 217.036 131.457 215.066 134.086C212.232 137.798 208.246 139.888 203.027 140.362C198.964 140.732 195.846 140.011 193.509 138.176C191.038 136.191 190.049 133.711 189.54 128.134C189.445 127.098 189.445 127.098 188.913 119.073C188.625 115.043 188.36 111.251 188.218 109.698C188.105 108.463 188.007 107.829 187.742 106.689ZM224.225 105.499L231.874 104.803C231.758 106.621 231.828 109.145 232.094 112.053C232.908 120.976 234.798 127.592 236.471 127.44C236.909 127.4 237.3 126.842 237.604 125.77C238.276 123.46 238.786 121.124 239.046 118.69C241.078 120.714 242.238 121.533 245.041 123.206C244.485 126.349 243.747 128.826 242.716 131.169C241.482 133.932 239.462 135.562 237.032 135.783C234.801 135.986 232.783 135.005 231.022 132.875C228.682 130.116 227.243 126.231 226.146 119.944C225.693 117.174 225.228 113.842 224.643 108.312C224.479 106.962 224.443 106.563 224.225 105.499ZM244.568 107.906L250.369 104.566C256.118 110.349 259.692 117.375 261.687 126.913L254.797 130.191C253.544 121.308 250.079 113.71 244.568 107.906ZM288.775 112.56L288.887 114.237C291.817 113.77 292.795 113.48 295.344 112.364C297.927 115.142 299.167 117.72 299.465 120.986C299.741 124.014 298.5 127.139 296.122 129.243C293.823 131.34 290.604 132.597 286.7 132.952C282.597 133.325 279.272 132.543 276.812 130.678C274.737 129.06 273.646 126.789 273.347 123.523C273.267 122.646 273.227 121.766 273.198 120.564C271.956 120.597 270.257 120.47 267.986 120.235C267.175 120.148 266.932 120.13 266.251 120.152L266.148 113.735C268.042 114.245 269.541 114.39 273.206 114.498C273.21 114.096 273.285 112.724 273.4 110.464C271.792 110.45 270.456 110.33 267.819 110.048C267.211 109.983 266.968 109.965 266.36 109.9L266.234 103.686C268.042 104.124 270.392 104.352 273.568 104.384C273.766 101.715 273.769 99.9878 273.646 98.6334C273.635 98.5139 273.616 98.3148 273.595 98.0758L281.019 98.0029C280.697 99.3175 280.618 100.208 280.395 103.924C284.288 103.449 286.573 102.96 288.948 102.142L289.313 108.776C288.404 108.939 288.404 108.939 286.466 109.276C283.859 109.754 282.628 109.906 279.959 110.149C279.966 110.67 279.966 110.67 279.858 112.126C279.826 112.651 279.815 112.974 279.776 114.303C280.134 114.27 280.493 114.237 280.612 114.226C283.719 113.944 286.519 113.368 288.775 112.56ZM288.931 114.715L289.201 118.988C288.806 119.064 288.766 119.068 287.941 119.263C286.13 119.669 283.715 120.049 281.723 120.231C281.324 120.267 281.046 120.292 279.927 120.354C279.934 120.875 279.963 121.636 280.021 122.273C280.167 123.866 280.663 124.906 281.569 125.586C282.605 126.376 284.119 126.68 285.991 126.51C290.333 126.115 292.748 123.967 292.457 120.78C292.272 118.749 291.079 116.688 288.931 114.715ZM326.112 101.814C325.861 108.745 324.976 114.007 323.254 118.903C321.409 124.212 318.944 126.685 315.319 127.015C309.981 127.501 305.771 122.742 305.105 115.453C304.68 110.792 305.888 106.425 308.577 102.886C311.733 98.7435 316.607 96.2518 322.463 95.7191C327.801 95.2335 332.665 96.5985 335.897 99.4374C338.693 101.914 340.401 105.655 340.812 110.156C341.284 115.335 339.762 120.213 336.688 123.505C334.201 126.181 331.171 127.742 325.674 129.126C324.456 126.344 323.568 124.979 321.691 122.901C325.41 122.281 327.822 121.419 329.871 120.108C332.789 118.196 334.197 114.694 333.808 110.432C333.498 107.046 332.056 104.446 329.586 102.903C328.477 102.201 327.568 101.922 326.112 101.814ZM319.228 102.52C317.577 102.911 316.356 103.625 315.071 104.947C312.646 107.417 311.271 111.277 311.595 114.822C311.853 117.65 313.132 119.783 314.526 119.656C315.522 119.566 316.431 118.077 317.349 114.941C318.416 111.229 319.15 106.504 319.228 102.52ZM369.769 100.011L375.374 96.73C378.243 100.004 380.947 104.979 382.76 110.317L376.511 114.018C375.212 109.035 372.284 102.915 369.769 100.011ZM345.117 107.596L343.915 101.038C344.078 101.063 344.198 101.052 344.277 101.045C345.552 100.929 349.307 100.266 351.904 99.6683C352.163 95.4675 352.227 93.0919 352.104 91.7376C352.089 91.5782 352.067 91.3392 352.042 91.0604L359.314 91.0817C359.198 91.5742 359.173 91.7372 359.162 92.0595C359.133 92.1826 359.126 92.5447 359.108 92.7873L358.96 94.2467C358.787 96.3109 358.657 97.9695 358.596 98.6177C359.266 98.4764 359.744 98.4329 360.302 98.3822C362.772 98.1576 364.651 98.5087 366.104 99.461C368.285 100.909 369.303 103.267 369.714 107.768C370.281 113.982 369.834 119.204 368.496 122.138C368.025 123.144 367.109 124.111 366.161 124.72C365.397 125.151 364.379 125.444 363.104 125.56C361.272 125.727 359.454 125.611 356.676 125.101C356.69 123.934 356.65 123.496 356.585 122.779C356.425 121.027 356.167 119.966 355.551 118.053C357.905 118.763 359.984 119.096 361.139 118.991C361.976 118.915 362.446 118.35 362.768 117.035C363.205 115.228 363.316 111.162 363.036 108.094C362.883 106.421 362.557 105.487 361.988 104.977C361.503 104.499 360.931 104.39 359.536 104.517C359.178 104.549 358.779 104.586 357.95 104.741C357.113 111.405 355.348 118.474 352.74 125.539C352.49 126.325 352.421 126.452 352.237 127.071L345.348 124.203C347.552 120.629 350.178 112.437 351.225 105.875C348.749 106.462 346.239 107.132 345.117 107.596ZM371.09 89.408L374.526 87.4486C376.146 88.9079 377.399 90.3202 379.016 92.6232L375.514 94.7492C373.931 92.3628 372.67 90.8709 371.09 89.408ZM365.819 92.3778L369.447 90.3206C371.2 91.9284 372.642 93.6448 373.91 95.6582L370.293 97.8348C368.75 95.4448 367.619 94.0616 365.819 92.3778ZM407.153 95.9279L413.679 97.0212C413.451 97.6042 413.234 98.3068 413.024 99.089C414.788 99.4908 415.958 99.9869 417.251 100.954C419.621 102.706 420.925 105.118 421.202 108.145C421.642 112.965 419.326 117.072 414.702 119.662C412.638 120.813 410.494 121.53 406.822 122.226C405.989 120.133 405.166 118.601 404.112 117.171C401.599 120.01 398.275 121.879 395.248 122.154C390.547 122.582 387.272 119.707 386.818 114.727C386.509 111.341 387.605 107.948 389.957 105.123C391.405 103.385 392.788 102.255 395.164 100.995C395.04 99.6404 395.004 99.2421 394.887 97.5256C393.171 97.6416 393.171 97.6416 390.219 97.8699C389.618 97.8844 388.98 97.9424 388.263 98.0076C387.706 98.0583 387.546 98.0728 386.992 98.1634L386.338 91.8768C388.689 92.1048 390.735 92.0794 393.802 91.8004L394.041 91.7786L394.595 91.6881C394.588 91.1666 394.588 91.1666 394.558 89.9643C394.562 89.5623 394.522 89.1242 394.482 88.686C394.409 87.8893 394.38 87.5706 394.249 87.0202L401.126 86.6758C400.917 87.8998 400.895 88.5444 400.871 90.9164C407.292 89.9708 412.484 88.7755 415.627 87.5658L416.495 93.9936C415.862 94.0914 415.702 94.1059 414.797 94.3087C411.024 95.2143 405.012 96.2431 401.043 96.7648C401.04 97.1667 401.04 97.1667 401.062 97.8475C401.084 98.0866 401.095 98.2061 401.131 99.0462C402.898 98.6043 403.608 98.4594 404.963 98.3362C405.719 98.2674 406.038 98.2384 406.842 98.2456C407.077 97.3004 407.146 96.7318 407.153 95.9279ZM405.465 115.722C408.076 115.284 409.641 114.82 411.089 113.965C413.301 112.68 414.586 110.474 414.386 108.283C414.222 106.491 413.364 105.444 411.487 104.691C410.044 109.12 408.148 112.546 405.465 115.722ZM395.851 107.64C393.838 109.349 392.861 111.406 393.061 113.597C393.195 115.071 393.869 115.853 394.985 115.752C395.742 115.683 396.397 115.382 397.107 114.796C396.563 112.797 396.149 110.465 395.851 107.64ZM401.575 104.348C401.811 106.937 401.957 108.089 402.338 110.062C403.684 108.092 404.936 105.528 405.522 103.587C405.16 103.58 405.041 103.591 404.682 103.623C403.527 103.728 402.622 103.931 401.575 104.348ZM430.162 91.9069L429.287 85.3995C430.978 85.4464 432.459 85.392 435.049 85.1565C438.594 84.834 443.001 84.2724 446.996 83.5878C448.737 83.3088 449.244 83.1422 449.972 82.7547L453.679 87.2775C452.698 87.9692 452.698 87.9692 447.742 93.0792C445.794 95.0638 445.132 95.7265 442.641 97.9212C444.821 97.1606 445.961 96.8962 448.033 96.7078C451.777 96.3671 454.526 97.0007 456.805 98.641C458.873 100.18 460.08 102.4 460.342 105.268C460.709 109.291 459.128 112.648 455.7 115.129C453.096 116.972 449.356 118.236 445.372 118.599C438.64 119.211 434.293 116.916 433.89 112.494C433.551 108.789 436.614 105.82 441.235 105.399C444.103 105.138 446.754 106.022 448.646 107.818C449.522 108.622 450.033 109.379 450.765 110.798C452.829 109.646 453.701 108.202 453.516 106.17C453.261 103.382 450.396 101.915 445.974 102.317C441.752 102.701 437.41 104.422 434.04 107.098C432.877 108.007 431.694 109.119 430.488 110.434L426.231 104.716C429.739 102.67 437.548 95.3721 442.04 90.0231C439.951 90.4542 438.365 90.6788 432.773 91.4686C431.701 91.6063 430.952 91.7548 430.162 91.9069ZM444.994 113.131C444.301 111.266 443.091 110.331 441.538 110.473C440.621 110.556 440.031 111.132 440.104 111.929C440.202 113.004 441.539 113.565 443.69 113.37C444.168 113.326 444.248 113.319 444.994 113.131ZM487.619 103.108L481.046 103.706C481.053 102.902 481.02 102.543 480.962 101.906C480.893 101.149 480.893 101.149 480.519 98.8135L478.569 86.2585C478.34 84.6325 477.978 82.8581 477.6 80.9244L486.882 80.0801C486.846 81.0071 486.862 83.8173 486.895 85.5012L487.251 98.2011C487.324 99.8814 487.357 100.682 487.412 101.279C487.448 101.678 487.488 102.116 487.619 103.108ZM489.271 113.28L481.264 114.009L480.576 106.48L488.583 105.751L489.271 113.28Z" fill="white"/>
<path d="M33.8803 182.588L41.1381 183.334C41.1056 183.417 40.6497 184.583 39.7416 186.955L50.4465 185.861C51.6017 185.756 52.1086 185.589 52.8292 185.122L56.6946 188.305C56.2638 188.866 56.1661 189.116 55.9347 190.101C54.2318 197.406 52.5134 201.9 49.9292 206.151C47.6925 209.809 44.7024 213.134 41.0712 216.034C39.0473 217.624 37.4941 218.649 34.554 220.322C32.8437 217.867 31.7749 216.719 29.3477 214.771C35.2063 212.069 38.8558 209.368 42.1064 205.377C39.4511 203.57 37.3828 202.473 34.246 201.111L37.9705 195.712C41.6904 197.301 43.0379 197.982 45.7148 199.586C47.1189 196.928 47.8786 194.69 48.4751 191.985L37.4479 193.068C35.5012 197.262 33.0508 200.778 29.3511 204.689C27.2498 202.792 25.924 201.909 23.2038 200.71C27.5661 196.578 30.1324 193.011 32.079 188.375C33.0089 186.242 33.5297 184.468 33.8803 182.588ZM89.9654 178.33L96.8116 182.045C96.0043 182.882 95.9681 182.925 95.3925 183.66C92.5401 187.173 89.9373 189.9 86.9216 192.504L88.3218 207.84C88.6201 211.107 88.7545 212.139 89.15 214.272L81.4219 214.975C81.4284 212.845 81.3882 211.965 81.0754 208.54L80.0716 197.545C76.1505 200.352 73.0946 202.076 67.5836 204.626C66.2644 202.055 65.3477 200.813 63.1739 198.56C71.5963 195.344 77.4184 191.802 83.3809 186.279C86.5704 183.378 88.992 180.427 89.9654 178.33ZM107.699 179.569L115.391 180.235C115.337 180.521 115.319 180.763 115.33 180.883C115.301 181.006 115.258 181.411 115.273 182.013L115.226 182.82L115.15 183.751C114.67 196.085 112.399 204.646 107.73 211.577C105.817 209.984 103.096 208.344 100.804 207.428C105.719 201.438 108.471 190.223 107.699 179.569ZM120.045 179.731L126.896 177.782C126.9 177.822 126.903 177.862 126.907 177.902C127.042 179.376 128.22 183.928 129.134 186.455C131.828 193.962 134.81 198.912 139.498 203.627C137.015 205.459 135.353 207.057 133.662 209.219C127.728 202.729 123.422 193.843 120.89 182.827C120.814 182.432 120.748 182.157 120.741 182.077L120.324 180.589L120.248 180.194C120.248 180.194 120.146 179.963 120.045 179.731ZM132.777 175.761C135.246 175.537 137.42 177.347 137.649 179.857C137.875 182.326 136.068 184.539 133.599 184.764C131.129 184.988 128.912 183.142 128.686 180.672C128.457 178.162 130.267 175.989 132.777 175.761ZM132.98 177.992C131.745 178.104 130.804 179.234 130.917 180.469C131.026 181.664 132.156 182.606 133.351 182.497C134.586 182.384 135.528 181.255 135.418 180.06C135.306 178.825 134.175 177.883 132.98 177.992ZM145.506 202.558L144.473 191.245C142.923 191.426 142.09 191.542 140.986 191.763L140.538 186.864C141.748 186.914 142.827 186.856 145.177 186.643L172.903 184.121C175.213 183.91 176.246 183.776 177.426 183.508L177.873 188.408C176.544 188.368 175.505 188.423 173.194 188.633L159.85 189.847L161.053 203.032C162.513 202.297 163.201 201.913 164.37 201.083C163.185 199.986 162.598 199.276 161.225 197.433L165.175 195.387L164.458 195.452C162.984 195.586 162.191 195.699 161.286 195.901L160.82 190.803C161.787 190.835 162.548 190.806 164.181 190.658L171.073 190.031C172.347 189.915 173.34 189.784 174.006 189.603L177.114 192.413C176.908 192.793 176.908 192.793 176.322 194.293C175.396 196.465 174.285 198.374 172.891 200.268C174.959 200.923 176.513 201.224 179.548 201.47C178.531 203.53 178.014 204.903 177.475 207.362C173.535 206.435 171.336 205.671 169.014 204.436C167.229 206.004 165.908 206.928 163.315 208.449C162.576 206.95 162.203 206.381 161.243 205.103C161.384 206.657 161.559 207.685 161.776 208.75L155.681 209.304C155.717 208.377 155.684 207.577 155.542 205.581C152.294 206.52 151.273 206.773 145.179 208.211C144.628 208.342 144.197 208.461 143.498 208.725L141.772 203.018C142.134 203.026 142.334 203.007 142.573 202.986C143.011 202.946 143.684 202.844 145.506 202.558ZM150.09 190.734L150.206 192.009L154.269 191.639L154.153 190.365L150.09 190.734ZM150.501 195.236L150.628 196.63L154.691 196.26L154.564 194.866L150.501 195.236ZM150.923 199.856L151.079 201.569C151.829 201.421 153.169 201.138 155.099 200.722L154.986 199.487L150.923 199.856ZM170.115 194.938L165.892 195.322C166.849 196.56 167.208 196.969 168.164 197.766C169.036 196.763 169.464 196.162 170.115 194.938ZM172.758 174.615L173.191 179.355C173.351 181.108 173.478 182.06 173.685 183.005C173.286 183.041 172.207 183.099 170.411 183.223L148.223 185.241C146.39 185.408 145.438 185.534 144.29 185.719C144.315 184.673 144.267 183.713 144.111 182L143.678 177.26C143.522 175.547 143.391 174.555 143.177 173.53C144.502 173.53 145.462 173.483 147.374 173.309L168.407 171.395C170.319 171.222 171.272 171.095 172.575 170.856C172.547 171.862 172.591 172.782 172.758 174.615ZM149.487 176.651L149.596 177.846L166.964 176.266L166.855 175.071L149.487 176.651ZM149.854 180.674L149.96 181.83L167.328 180.25L167.222 179.094L149.854 180.674ZM202.798 181.16L202.619 179.208C200.124 179.596 200.124 179.596 197.347 179.969C196.358 180.139 195.724 180.237 194.736 180.407L193.698 174.758C194.621 174.755 194.9 174.729 196.573 174.577C197.775 171.897 198.502 169.742 199.011 167.407L205.512 167.779C205.216 168.489 205.216 168.489 204.496 170.282C204.134 171.158 203.294 172.962 202.78 173.932C203.653 173.812 204.366 173.707 204.801 173.628C205.677 173.548 206.905 173.356 208.408 173.099C207.56 172.172 207.205 171.802 205.919 170.474L210.405 167.696C213.423 170.393 215.615 172.845 218.133 176.231L213.528 179.903C212.727 178.61 212.448 178.194 212.035 177.629C209.826 178.071 209.587 178.093 208.124 178.346L208.335 180.657L213.155 180.218C214.629 180.084 215.263 179.986 216.407 179.762C216.378 180.768 216.404 181.489 216.517 182.724L217.149 189.655C217.273 191.009 217.375 191.683 217.589 192.708C216.908 192.73 216.749 192.744 215.908 192.78C218.018 196.083 218.789 197.499 220.732 201.62L215.533 204.061C214.996 202.583 214.884 202.232 214.412 201.03C210.483 201.99 206.703 202.815 198.385 204.536C197.32 204.753 197.125 204.811 196.379 205L194.928 198.786C195.971 198.771 196.369 198.735 196.847 198.691C197.883 198.597 202.406 197.985 204.307 197.691L203.954 193.828L199.493 194.233C198.138 194.357 197.345 194.469 196.201 194.693C196.182 193.611 196.142 192.731 196.037 191.576L195.415 184.764C195.324 183.768 195.197 182.816 195.019 181.747C195.942 181.744 196.743 181.711 198.256 181.573L202.798 181.16ZM209.491 193.324L209.808 196.789C210.242 196.71 211.072 196.554 212.216 196.329C211.868 195.598 211.774 195.446 211.292 194.566L215.267 192.798C214.829 192.838 214.63 192.856 214.272 192.889L209.491 193.324ZM203.249 186.1L200.898 186.313L201.149 189.062L203.5 188.848L203.249 186.1ZM208.786 185.596L209.037 188.345L211.507 188.12L211.256 185.371L208.786 185.596ZM187.93 187.252L191.515 186.926C192.87 186.803 193.424 186.712 194.133 186.567C194.137 187.491 194.123 187.773 194.192 188.53C194.765 199.644 194.455 202.403 192.344 204.363C191.193 205.391 189.708 205.847 186.442 206.145C186.043 206.181 185.406 206.239 184.287 206.3C183.819 203.813 183.474 202.679 182.528 200.235C183.897 200.271 185.302 200.264 186.059 200.195C187.453 200.068 188.033 199.814 188.261 199.231C188.687 198.188 188.774 196.494 188.573 192.536L184.749 192.883C183.793 192.97 183.159 193.068 181.931 193.26C182.187 189.02 182.123 183.924 181.719 179.061C182.607 179.101 182.806 179.083 184.559 178.923L187.507 178.655L187.208 175.389L184.061 175.675C182.468 175.82 181.754 175.925 180.769 176.135L180.235 170.279C181.205 170.352 182.125 170.308 183.998 170.138L189.176 169.667C190.809 169.518 191.802 169.388 192.627 169.192C192.649 170.315 192.682 171.115 192.813 172.549L193.428 179.281C193.57 180.835 193.697 181.787 193.937 183.533C193.093 183.529 192.531 183.54 191.097 183.67L187.99 183.953C187.976 184.236 187.951 184.399 187.965 184.558C187.987 184.797 187.951 185.724 187.93 187.252ZM243.659 188.77L237.086 189.368C237.093 188.564 237.06 188.205 237.002 187.568C236.933 186.811 236.933 186.811 236.559 184.475L234.609 171.92C234.38 170.294 234.018 168.52 233.64 166.586L242.922 165.742C242.886 166.669 242.902 169.479 242.935 171.163L243.291 183.863C243.364 185.543 243.397 186.344 243.452 186.941C243.488 187.339 243.528 187.778 243.659 188.77ZM245.311 198.942L237.304 199.67L236.616 192.142L244.623 191.413L245.311 198.942ZM283.894 170.61L290.421 171.704C290.193 172.287 289.976 172.989 289.766 173.771C291.53 174.173 292.7 174.669 293.993 175.636C296.362 177.389 297.667 179.8 297.943 182.828C298.383 187.648 296.067 191.754 291.444 194.344C289.38 195.496 287.236 196.213 283.564 196.908C282.73 194.815 281.908 193.283 280.853 191.853C278.341 194.692 275.017 196.561 271.99 196.837C267.289 197.264 264.014 194.389 263.559 189.41C263.25 186.024 264.346 182.631 266.699 179.806C268.147 178.067 269.53 176.938 271.905 175.677C271.782 174.323 271.745 173.924 271.629 172.208C269.912 172.324 269.912 172.324 266.961 172.552C266.36 172.567 265.722 172.625 265.005 172.69C264.447 172.741 264.288 172.755 263.734 172.846L263.08 166.559C265.43 166.787 267.476 166.762 270.544 166.483L270.783 166.461L271.337 166.37C271.329 165.849 271.329 165.849 271.3 164.647C271.303 164.245 271.263 163.807 271.223 163.368C271.151 162.572 271.121 162.253 270.991 161.703L277.868 161.358C277.658 162.582 277.637 163.227 277.613 165.599C284.033 164.653 289.226 163.458 292.369 162.248L293.237 168.676C292.603 168.774 292.444 168.788 291.539 168.991C287.765 169.897 281.754 170.925 277.785 171.447C277.782 171.849 277.782 171.849 277.804 172.53C277.825 172.769 277.836 172.888 277.873 173.729C279.64 173.287 280.35 173.142 281.704 173.019C282.461 172.95 282.78 172.921 283.584 172.928C283.819 171.983 283.887 171.414 283.894 170.61ZM282.207 190.404C284.818 189.966 286.382 189.503 287.831 188.648C290.043 187.362 291.328 185.157 291.128 182.966C290.964 181.173 290.105 180.127 288.229 179.374C286.786 183.803 284.889 187.228 282.207 190.404ZM272.592 182.322C270.579 184.032 269.602 186.089 269.802 188.279C269.937 189.753 270.611 190.536 271.726 190.434C272.483 190.365 273.139 190.065 273.848 189.478C273.304 187.479 272.89 185.147 272.592 182.322ZM278.317 179.03C278.553 181.619 278.698 182.771 279.08 184.745C280.426 182.774 281.678 180.211 282.264 178.269C281.902 178.262 281.782 178.273 281.424 178.306C280.269 178.411 279.363 178.614 278.317 179.03ZM309.718 157.818L316.95 157.843C316.777 158.582 316.737 158.586 316.484 161.099C316.373 162.073 316.326 162.439 316.21 163.373C318.734 162.862 320.422 162.428 321.66 161.913L322.369 168.356C321.42 168.522 321.42 168.522 319.45 168.942C318.385 169.16 316.212 169.558 315.224 169.728C314.219 174.559 313.434 177.402 311.937 181.675C311.267 183.584 310.974 184.334 309.704 187.582C309.277 188.625 309.277 188.625 309.089 189.204L302.272 186.25C304.755 182.208 306.987 176.302 308.267 170.522C307.51 170.591 307.51 170.591 306.036 170.725C305.12 170.808 305.12 170.808 304.2 170.852C304.041 170.866 303.882 170.881 302.647 170.993L302.065 164.62C303.604 164.761 305.447 164.714 307.917 164.489C308.355 164.449 308.555 164.431 309.348 164.319C309.358 163.996 309.358 163.996 309.553 162.613C309.748 161.23 309.809 159.256 309.718 157.818ZM338.212 165.027L335.838 171.147C331.879 169.137 327.812 167.7 322.926 166.538L325.73 160.74C330.913 162.076 334.31 163.213 338.212 165.027ZM339.519 183.303L337.146 189.865C335.515 188.287 333.885 187.15 331.61 185.991C331.662 187.874 331.289 189.073 330.316 190.286C328.904 191.981 326.199 193.151 323.012 193.44C319.825 193.73 317.029 193.021 315.243 191.496C313.805 190.261 312.971 188.61 312.8 186.738C312.379 182.117 315.948 178.539 321.485 178.035C322.322 177.959 322.963 177.941 324.295 178.021C324.038 176.518 323.929 175.765 323.845 174.849C323.696 173.215 323.659 171.933 323.655 170.126L330.253 169.807C330.062 171.23 330.052 172.436 330.226 174.348C330.357 175.782 330.546 176.97 330.967 178.94C333.495 179.795 335.465 180.7 337.425 181.927C337.552 181.996 338.236 182.456 339.519 183.303ZM324.957 183.945C323.845 183.645 323.157 183.587 322.201 183.674C320.328 183.844 319.206 184.749 319.319 185.984C319.424 187.14 320.609 187.795 322.322 187.639C324.314 187.458 325.269 186.487 325.117 184.814C325.091 184.536 325 183.981 324.957 183.945ZM362.832 158.409L363.519 164.171C367.259 163.348 369.001 163.069 374.02 162.613C374.299 162.587 375.136 162.511 375.976 162.475L376.71 169.196C374.776 169.131 373.657 169.193 371.466 169.392C367.084 169.791 364.278 170.287 360.363 171.406L359.449 165.786C357.555 166.159 357.08 166.242 355.853 166.434C355.517 170.24 355.069 173.253 354.332 177.498C353.656 181.094 353.497 181.992 352.254 187.286C351.791 189.256 351.791 189.256 351.599 190.238L344.026 188.235C346.19 182.897 348.055 174.735 348.856 167.231C348.577 167.257 348.378 167.275 348.219 167.289C346.944 167.405 346.104 167.442 344.384 167.518C344.344 167.521 344.185 167.536 343.985 167.554C343.667 167.583 343.507 167.598 343.073 167.677L342.599 161.173C344.175 161.271 346.301 161.238 348.691 161.021C348.81 161.01 349.089 160.985 349.448 160.952C349.675 157.718 349.692 156.15 349.579 154.915C349.568 154.796 349.55 154.597 349.525 154.318L357.025 154.198C356.859 155.016 356.776 155.426 356.718 156.555C356.7 156.798 356.566 157.975 356.393 160.039C359.117 159.51 360.688 159.126 362.832 158.409ZM359.962 173.612L365.913 174.998C364.563 176.928 364.046 178.301 364.158 179.536C364.326 181.368 366.039 182.096 369.385 181.792C372.492 181.509 376.298 180.52 378.644 179.383L379.759 186.31C378.97 186.463 378.615 186.535 377.669 186.741C373.972 187.6 372.39 187.864 369.96 188.085C362.152 188.796 358.019 186.641 357.561 181.622C357.35 179.312 358.062 176.998 359.962 173.612ZM404.023 158.197C403.772 165.128 402.887 170.39 401.165 175.286C399.32 180.595 396.855 183.068 393.23 183.398C387.892 183.884 383.682 179.126 383.016 171.836C382.591 167.175 383.799 162.808 386.488 159.27C389.644 155.127 394.518 152.635 400.374 152.102C405.712 151.617 410.576 152.982 413.808 155.821C416.604 158.297 418.312 162.038 418.723 166.539C419.195 171.718 417.673 176.596 414.599 179.888C412.112 182.564 409.082 184.125 403.585 185.509C402.367 182.728 401.479 181.362 399.602 179.284C403.321 178.664 405.733 177.802 407.782 176.491C410.7 174.579 412.108 171.077 411.719 166.815C411.41 163.429 409.967 160.829 407.497 159.287C406.388 158.584 405.479 158.305 404.023 158.197ZM397.139 158.903C395.488 159.294 394.267 160.008 392.982 161.33C390.557 163.8 389.182 167.66 389.506 171.205C389.764 174.034 391.043 176.166 392.438 176.04C393.433 175.949 394.342 174.461 395.261 171.325C396.327 167.613 397.061 162.887 397.139 158.903ZM432.423 165.695L432.306 164.42C430.902 167.078 429.646 168.719 427.289 171.062L423.127 167.705C424.832 166.144 425.415 165.489 426.313 164.323L422.887 164.634C422.875 163.189 422.879 162.346 422.78 161.27L422.558 158.84C422.424 157.366 422.297 156.414 422.054 155.071C423.379 155.07 423.94 155.06 425.932 154.878L428.163 154.675C427.83 154.103 427.732 153.911 427.402 153.379L424.534 153.64C423.885 151.811 423.341 150.696 422.073 148.682C424.626 148.49 426.502 148.36 427.498 148.269C438.891 147.233 448.063 145.635 452.452 143.991L456.706 148.786C454.515 149.427 452.118 150.006 449.232 150.51L452.987 150.73C452.81 150.988 452.669 151.201 452.603 151.368C452.187 152.088 452.187 152.088 451.825 152.523L453.698 152.353C456.048 152.139 456.721 152.037 457.826 151.817C457.794 152.783 457.885 153.779 458.045 155.532L458.27 158.002C458.379 159.197 458.492 159.99 458.782 161.409L455.555 161.703C456.885 162.626 457.359 162.985 458.921 164.248L455.359 168.79C452.993 166.635 451.559 165.44 449.711 164.122C449.476 165.067 449.161 165.578 448.597 165.991C447.807 166.585 446.779 166.759 441.361 167.252L440.525 167.328C440.166 167.802 440.061 167.972 439.703 168.447L447.312 167.755C448.706 167.628 449.459 167.519 450.085 167.342L454.157 170.144C453.933 170.325 453.784 170.459 453.024 171.372C451.902 172.719 450.059 174.533 448.34 175.935C450.893 176.185 454.022 176.141 457.089 175.862C458.125 175.768 459.277 175.623 461.381 175.351C460.462 177.604 460.071 179.045 459.692 181.489C454.614 181.751 451.797 181.686 448.095 181.179C445.861 180.9 444.057 180.502 442.239 179.944C437.477 182.345 433.607 183.501 426.201 184.656C425.092 182.187 424.476 181.158 423.153 179.431C428.73 178.924 432.167 178.29 435.788 177.037C434.643 176.378 434.085 175.987 432.962 175.125C430.88 176.519 429.577 177.2 426.753 178.381C425.488 176.407 424.633 175.4 423.097 173.974C428.825 172.047 431.566 170.392 433.8 167.578C432.731 167.314 432.543 167.009 432.423 165.695ZM428.404 160.397L432.005 161.556C431.885 160.683 431.881 160.643 431.75 160.093L437.407 159.578C437.375 160.103 437.426 160.661 437.484 161.298L437.593 162.493C437.655 163.171 437.734 163.163 441.12 162.855C444.865 162.515 444.905 162.511 444.763 160.074C446.045 160.479 446.537 160.595 447.519 160.787L450.017 158.23C451.498 159.06 452.009 159.375 452.69 159.795L452.461 157.285L443.299 158.118C444.15 158.643 444.411 158.861 445.28 159.585L440.932 162.551C439.331 160.849 438.983 160.559 437.603 159.52L439.355 158.477L428.321 159.481L428.404 160.397ZM445.263 171.716L437.416 172.43C438.828 173.386 439.879 173.893 441.665 174.534C443.232 173.668 444.018 173.035 445.263 171.716ZM436.546 152.346L433.091 152.781C433.508 153.386 433.606 153.578 433.979 154.146L437.365 153.838C436.977 153.111 436.923 152.955 436.546 152.346ZM443.261 153.302L445.85 153.067C446.19 152.393 446.382 151.853 446.664 150.984C446.345 151.013 444.879 151.227 442.3 151.582C442.677 152.19 442.967 152.726 443.261 153.302ZM466.762 146.304L476.521 145.417C476.373 144.225 476.271 143.552 476.006 142.411L482.738 141.799C482.684 142.968 482.667 143.653 482.776 144.848L492.894 143.927C495.403 143.699 496.79 143.492 498.011 143.221L498.535 148.957C497.006 148.935 495.525 148.99 493.573 149.167L483.256 150.106L483.387 151.54L491.354 150.815C493.744 150.598 494.497 150.489 495.641 150.264C495.657 151.749 495.668 152.31 495.839 154.183L496.602 162.548C496.773 164.42 496.864 164.974 497.118 166.437C495.872 166.43 495.152 166.455 492.761 166.673L484.834 167.394L484.972 168.908L495.25 167.973C497.72 167.748 499.147 167.538 500.287 167.273L500.826 173.169C499.496 173.129 498.055 173.18 495.585 173.405L485.467 174.325C485.663 176.476 485.849 177.624 486.182 179.08L479.37 179.699C479.457 178.005 479.427 177.244 479.213 174.894L469.453 175.782C467.103 175.996 465.437 176.227 464.256 176.495L463.718 170.6C464.928 170.651 466.409 170.596 468.879 170.372L478.718 169.476L478.58 167.963L471.051 168.648C468.741 168.858 467.908 168.974 466.724 169.202C466.712 167.757 466.683 166.997 466.526 165.284L465.763 156.918C465.61 155.245 465.494 154.413 465.247 153.029C466.413 153.044 467.213 153.011 469.564 152.797L477.132 152.109L477.002 150.675L467.043 151.581C465.131 151.755 463.544 151.979 462.125 152.269L461.601 146.533C462.851 146.58 464.65 146.496 466.762 146.304ZM477.533 156.491L471.836 157.009L471.978 158.562L477.674 158.044L477.533 156.491ZM478.038 162.027L472.342 162.546L472.483 164.099L478.18 163.581L478.038 162.027ZM484.434 163.012L490.529 162.458L490.387 160.904L484.292 161.459L484.434 163.012ZM483.929 157.475L490.023 156.921L489.882 155.367L483.787 155.922L483.929 157.475ZM503.631 151.988L502.571 144.774C503.252 144.752 503.77 144.705 504.088 144.676C505.124 144.582 506.551 144.372 510.867 143.698C516.571 142.818 520.417 142.267 527.96 141.3L532.049 140.767L533.715 140.535C535.065 140.372 535.301 140.311 535.5 140.293C535.779 140.267 535.934 140.213 536.402 140.05L537.418 147.227C536.853 147.198 536.694 147.213 536.296 147.249C533.507 147.503 530.02 148.904 527.428 150.867C523.666 153.66 521.621 157.219 521.92 160.486C522.131 162.796 523.348 164.252 525.717 165.121C527.383 165.773 530.947 166.091 533.456 165.863C533.775 165.834 534.054 165.809 534.648 165.714L534.423 173.366C533.854 173.297 533.734 173.308 532.931 173.301C528.353 173.316 525.303 172.91 522.648 171.987C517.748 170.224 514.983 166.78 514.521 161.721C514.219 158.415 515.062 155.326 517.085 152.411C518.005 151.042 518.888 150.158 520.68 148.67L518.826 149.039C517.957 149.198 516.574 149.445 509.179 150.72C505.511 151.455 505.311 151.473 503.631 151.988ZM527.968 153.268L531.644 151.287C533.404 152.975 534.759 154.619 536.035 156.712L532.371 158.812C530.907 156.415 529.729 154.956 527.968 153.268ZM533.331 150.411L536.771 148.491C538.35 149.954 539.607 151.406 541.187 153.753L537.639 155.803C535.961 153.264 534.827 151.841 533.331 150.411ZM569.411 147.892L568.654 147.961C568.101 148.493 567.952 148.627 567.065 149.471C568.156 150.858 568.627 151.618 569.363 153.078C570.943 156.308 572.082 160.421 572.424 164.166C572.922 169.623 571.637 171.387 566.857 171.822C566.259 171.876 565.578 171.898 564.26 171.978C563.756 169.975 563.538 169.352 562.755 167.817C561.383 169.066 560.402 169.758 558.465 170.978C557.541 169.215 556.715 168.085 555.15 166.34C558.763 164.565 562.463 161.979 565.946 158.77C565.776 158.224 565.721 158.068 565.511 157.525C563.1 159.712 561.445 160.947 558.6 162.772C557.748 161.364 557.295 160.803 556.085 159.427C555.969 159.919 555.879 160.249 555.705 160.987C554.901 160.097 554.314 159.387 553.618 158.366C553.843 159.51 553.894 160.068 554.043 161.701L554.64 168.234C554.854 170.584 555.003 171.775 555.279 173.035L549.184 173.59C549.209 172.102 549.161 170.7 548.987 168.788L548.605 164.605C548.492 163.371 548.456 162.53 548.43 161.368C547.594 164.095 546.925 165.562 545.694 167.481C544.911 165.062 544.168 163.523 542.777 161.481C544.695 159.177 546.331 155.534 547.01 151.978L545.656 152.101C544.739 152.185 544.066 152.286 543.005 152.543L542.47 146.687C543.52 146.753 544.042 146.745 545.317 146.629L546.95 146.481L546.684 143.573C546.098 143.747 546.098 143.747 543.748 144.402C543.193 142.726 542.548 141.379 541.305 139.202C546.621 138.036 551.049 136.388 552.613 135.041L554.874 138.249C555.758 138.249 556.236 138.206 557.869 138.057L563.247 137.568L563.214 137.209C563.109 136.054 563.007 135.381 562.764 134.479L569.098 133.903C568.997 134.555 569.023 135.275 569.15 136.669L569.183 137.028L575.038 136.495C577.07 136.31 577.628 136.26 578.533 136.057C578.49 136.904 578.519 137.665 578.636 138.939L578.937 142.246C579.043 143.401 579.152 144.154 579.395 145.056L577.005 145.273L577.187 147.265C576.343 147.261 575.904 147.301 574.59 147.421L574.311 147.446C574.71 149.619 574.903 150.405 575.204 151.502C576.242 150.122 576.702 149.438 577.249 148.384L581.017 152.7C579.652 154.471 578.635 155.648 577.31 156.974C578.444 159.28 579.535 160.667 581.839 163.028C580.583 165.111 579.736 166.834 578.785 169.17C576.26 166.588 574.633 164.166 573.001 160.378C571.323 156.514 570.319 152.991 569.411 147.892ZM553.663 151.373L553.224 151.413C554.732 153.404 555.435 154.063 557.579 155.555C557.04 156.689 556.877 157.105 556.461 158.268C558.959 157.036 561.045 155.682 563.637 153.719C563.355 153.263 563.264 153.15 562.992 152.814C561.522 153.871 560.461 154.57 558.369 155.845C557.285 154.096 556.513 153.122 555.282 151.949C557.802 150.956 559.757 149.935 561.723 148.591L560.608 148.693C559.293 148.812 558.895 148.848 557.946 149.015L557.753 146.904L555.602 147.1L555.988 151.322C555.22 151.271 554.499 151.297 553.663 151.373ZM552.607 145.966L553.244 145.908C554.12 145.829 554.754 145.731 555.305 145.6C555.261 145.122 555.243 144.923 555.184 144.286L554.835 140.462C553.412 141.153 553.336 141.201 552.214 141.664L552.607 145.966ZM573.295 142.92L573.157 141.406L560.649 142.544L560.787 144.057L573.295 142.92ZM566.929 163.822C565.872 165.003 565.431 165.445 563.874 166.871C564.921 166.897 565.602 166.875 565.92 166.846C566.478 166.795 566.854 166.52 566.927 165.991C567.035 165.419 567.035 165.419 566.929 163.822ZM613.047 137.054L613.42 138.948L613.029 139.064C612.363 139.245 611.074 139.644 609.158 140.22L606.214 140.969C606.598 141.657 606.943 142.349 607.32 142.957C612.339 141.617 614.989 140.734 616.409 140.002L617.541 145.803C616.675 146.002 616.556 146.013 612.728 147.205C612.377 147.317 612.257 147.328 610.378 147.861C612.049 150.319 613.581 152.148 616.146 154.726L610.567 158.286C608.104 157.265 605.507 156.979 602.041 157.295C597.62 157.697 595.273 158.834 595.426 160.507C595.51 161.423 596.365 161.988 598.027 162.158C598.918 162.238 600.606 162.245 601.88 162.129C605.944 161.759 611.734 160.068 614.362 158.503L615.893 165.152C614.948 165.358 614.673 165.424 613.112 165.927C609.209 167.166 605.739 167.883 602.274 168.198C600.202 168.387 597.914 168.394 596.009 168.206C591.271 167.793 588.178 165.143 587.825 161.279C587.57 158.49 589.17 155.774 591.965 154.275C594.224 153.065 596.89 152.341 600.355 152.026C602.467 151.834 604.071 151.808 605.896 152.004C605.317 151.373 604.954 150.924 604.588 150.436L604.081 149.719L603.806 149.342C600.695 150.027 595.23 150.885 590.182 151.465C587.839 151.758 587.68 151.773 586.735 151.979L585.918 146.109C587.087 146.163 587.848 146.134 590.039 145.935C593.863 145.587 597.669 145.04 600.859 144.348C600.664 143.965 600.283 143.316 599.754 142.36C596.397 142.987 594.213 143.266 589.393 143.704C587.644 143.904 587.246 143.94 586.413 144.056L585.523 138.273C586.929 138.265 588.25 138.225 590.083 138.059C592.353 137.852 595.41 137.454 597.184 137.091L597.036 136.784C596.938 136.592 596.746 136.248 596.499 135.748C595.901 134.477 595.713 134.173 595.147 133.26L602.042 131.79C602.307 132.93 602.666 133.781 603.655 135.82C605.781 135.346 607.86 134.795 609.775 134.219C609.152 133.111 608.822 132.579 608.047 131.565L611.74 130.225C613.284 132.173 614.277 133.81 615.252 136.131L613.047 137.054ZM613.504 129.743L616.958 128.425C618.393 130.061 619.433 131.774 620.397 133.976L616.841 135.504C615.732 133.035 614.975 131.778 613.504 129.743ZM625.52 139.494L625.036 133.313C627.437 133.657 631.566 133.562 636.585 133.106C637.063 133.062 637.581 133.015 638.772 132.867C638.493 130.241 638.387 129.528 638.137 128.546L645.148 127.909C645.047 129.002 645.073 129.281 645.208 132.08C650.477 131.28 654.141 130.505 656.394 129.657L657.149 135.734C656.001 135.918 655.762 135.94 653.676 136.411C651.04 137.012 648.828 137.414 645.731 137.817C645.822 138.812 645.822 138.812 645.96 140.326C650.44 139.678 653.435 139.044 656.129 138.196L656.845 144.276C656.012 144.392 656.012 144.392 654.313 144.707C652.539 145.07 648.74 145.696 646.557 145.975C646.764 147.804 646.764 147.804 646.996 149.47C649.119 149.839 650.437 150.201 652.65 151.125C654.78 152.015 655.283 152.251 658.29 153.945C658.924 154.289 659.217 154.423 659.891 154.764L656.692 161.521C655.381 160.355 655.381 160.355 653.75 159.218C651.733 157.795 649.668 156.738 647.77 156.187C647.934 157.98 647.764 159.2 647.181 160.298C646.052 162.449 643.127 163.84 638.785 164.235C632.252 164.829 628.303 162.497 627.881 157.876C627.616 154.968 629.23 152.411 632.308 150.927C634.115 150.039 636.472 149.463 639.3 149.206C639.818 149.159 639.938 149.148 640.535 149.094C640.372 147.743 640.259 146.95 640.241 146.751C639.404 146.827 637.775 147.015 637.177 147.07C634.867 147.28 633.031 147.407 630.749 147.494C628.989 147.573 628.786 147.552 627.591 147.66L627.129 141.718C628.914 141.917 632.924 141.833 636.987 141.464C637.823 141.388 638.421 141.333 639.652 141.181C639.627 140.902 639.616 140.783 639.598 140.584C639.59 140.504 639.59 140.504 639.463 139.552C639.412 138.994 639.412 138.994 639.376 138.596C638.463 138.719 638.065 138.755 637.706 138.788C635.555 138.983 634.874 139.005 630.275 139.223C628.758 139.32 628.758 139.32 627.277 139.375C626.715 139.386 626.317 139.422 626.197 139.433C626.038 139.447 625.799 139.469 625.52 139.494ZM641.077 155.029C640.099 154.877 639.538 154.888 638.622 154.971C636.192 155.192 634.859 155.996 634.972 157.231C635.063 158.227 636.233 158.723 638.225 158.542C640.455 158.339 641.342 157.495 641.179 155.703C641.157 155.464 641.077 155.029 641.077 155.029ZM685.172 123.264L692.253 127.359C691.352 128.044 690.986 128.438 687.583 132.082C685.458 134.323 682.468 137.206 678.529 140.697C677.526 141.592 677.309 141.853 677.342 142.211C677.386 142.689 677.386 142.689 681.381 145.097C686.01 147.849 689.647 150.29 694.422 153.751C694.679 153.929 695.063 154.175 695.751 154.675L690.586 161.009C689.51 159.781 688.543 158.865 686.246 157.025C682.525 154.11 681.026 153.082 673.603 148.335C671.47 146.963 670.687 146.311 670.078 145.362C669.651 144.638 669.321 143.664 669.241 142.787C669.113 141.393 669.511 140.031 670.365 138.829C670.869 138.181 671.419 137.609 673.718 135.512C678.652 131.046 680.893 128.754 683.391 125.755C684.259 124.712 684.618 124.238 685.172 123.264ZM707.72 152.903L704.045 146.53C705.044 145.595 705.631 144.98 706.612 143.846C709.033 140.895 710.376 139.327 710.554 139.069C710.535 138.428 710.47 137.27 710.273 134.677C705.837 135.362 705.837 135.362 704.385 135.735L703.492 129.47C704.415 129.466 704.897 129.462 705.574 129.401C706.57 129.31 708.236 129.078 709.898 128.807C709.894 128.325 709.894 128.325 709.821 127.528C709.785 126.688 709.734 125.689 709.65 124.773C709.537 123.538 709.461 123.143 709.251 122.158L716.316 121.676C716.244 122.646 716.234 125.178 716.376 127.615L718.756 129.487C718.087 130.07 717.374 131.059 716.494 132.424L716.505 132.985C716.545 133.423 716.552 133.503 716.545 133.865C721.103 128.792 725.002 126.188 728.508 125.869C732.372 125.517 735.147 127.755 735.489 131.499C735.612 132.854 735.493 134.19 735.002 137.609C734.226 142.74 733.977 145.293 734.068 146.289C734.133 147.006 734.532 147.412 735.129 147.357C735.727 147.303 736.501 146.55 737.156 145.365C738.021 143.841 738.788 142.124 739.157 140.886C740.303 143.312 741.1 144.565 743.089 146.995C740.48 152.293 738.065 154.44 734.241 154.788C730.417 155.136 727.758 152.848 727.401 148.944C727.198 146.713 727.378 144.287 728.187 138.188C728.472 136.034 728.587 134.658 728.529 134.02C728.464 133.303 727.989 132.945 727.272 133.01C726.316 133.097 724.976 133.821 723.637 134.987C721.139 137.102 718.833 139.561 717.305 141.749C717.436 143.625 717.542 144.78 717.647 145.935C718.164 151.592 718.654 155.644 718.995 157.179L711.789 157.875C711.897 156.419 711.82 154.257 711.591 151.748L711.391 149.557C711.373 149.358 711.351 149.119 711.318 148.76C711.296 148.521 711.282 148.362 711.274 148.282C711.26 148.123 711.238 147.884 711.209 147.565C708.69 151.208 708.125 152.063 707.72 152.903ZM766.699 141.192L760.126 141.79C760.133 140.986 760.101 140.627 760.042 139.99C759.973 139.233 759.973 139.233 759.599 136.897L757.65 124.342C757.421 122.717 757.058 120.942 756.681 119.008L765.962 118.164C765.927 119.091 765.942 121.901 765.975 123.585L766.332 136.285C766.405 137.965 766.438 138.766 766.492 139.363C766.529 139.762 766.569 140.2 766.699 141.192ZM768.351 151.364L760.344 152.092L759.657 144.564L767.664 143.835L768.351 151.364Z" fill="white"/>
</svg>
