<svg width="666" height="1459" viewBox="0 0 666 1459" fill="none" xmlns="http://www.w3.org/2000/svg">
<g filter="url(#filter0_d_3_41)">
<path d="M144 1222.1C144 1197.34 164.337 1177 189.1 1177V1187C169.86 1187 154 1202.86 154 1222.1L154.011 1223.01C154.496 1242.09 170.16 1257.46 189.1 1257.46C208.295 1257.46 223.711 1242.09 224.188 1223.01L224.199 1222.1C224.199 1202.9 209.083 1187.49 190.011 1187.01L189.1 1187V1177C214.122 1177 234.199 1197.08 234.199 1222.1C234.199 1247.03 214.218 1267.46 189.1 1267.46C164.289 1267.46 144 1247.07 144 1222.1ZM204.84 1222.1C204.84 1213.32 197.877 1206.36 189.1 1206.36C180.322 1206.36 173.359 1213.32 173.359 1222.1C173.359 1230.62 180.583 1237.84 189.1 1237.84C197.811 1237.84 204.84 1230.68 204.84 1222.1ZM214.831 1222.76C214.481 1236.5 203.176 1247.84 189.1 1247.84C175.279 1247.84 163.726 1236.5 163.368 1222.76L163.359 1222.1C163.359 1207.8 174.8 1196.36 189.1 1196.36C203.4 1196.36 214.84 1207.8 214.84 1222.1L214.831 1222.76Z" fill="#FFFAFA"/>
</g>
<g filter="url(#filter1_d_3_41)">
<path d="M184.16 1063.04C184.16 1053.31 181.347 1047.16 177.299 1043.35C173.156 1039.45 166.257 1036.64 155.42 1036.64C140.309 1036.64 124.189 1042.43 109.227 1053.83L109.228 1053.83C100.182 1060.73 88.3716 1073.01 81.3564 1082.69C81.3385 1082.71 81.32 1082.74 81.3018 1082.76C77.3834 1088.07 75.7517 1090.54 71.9512 1093.17C70.3215 1094.44 68.5383 1095.38 67.0205 1096.02C65.6043 1096.61 63.1635 1097.48 60.5205 1097.48C51.5039 1097.48 45.5115 1090.56 42.457 1085.25C39.0467 1079.31 37.0001 1071.73 37 1064.08C37 1059.75 37.3636 1055.02 40.7627 1050.05C43.4345 1046.14 47.764 1042.55 52.8682 1038.42C65.597 1027.88 101.712 988.776 120.482 964.606L120.497 964.587C121.256 963.614 121.991 962.67 122.704 961.756C116.62 964.524 115.583 965.016 105.975 969.592C100.557 972.295 95.7011 974.239 90.1602 974.239C79.2851 974.239 71.2078 966.721 65.1602 957.506C65.1306 957.461 65.1011 957.416 65.0723 957.37C59.5709 948.684 55.9805 939.531 55.9805 930.439C55.9805 925.78 56.984 922.043 59.1592 917.071L59.3154 916.73C60.9979 913.245 64.5529 911.032 68.4453 911.08C72.463 911.13 76.0607 913.581 77.5791 917.301C82.0387 928.227 87.1415 930.58 90.9404 930.58V940.58L90.4912 940.574C81.0776 940.367 73.4391 933.621 68.3203 921.08C66.5005 925.24 65.9805 927.58 65.9805 930.439C65.9805 936.939 68.5805 944.22 73.5205 952.02C78.9804 960.339 84.4402 964.239 90.1602 964.239C93.2802 964.239 96.4006 963.2 101.601 960.6C112.52 955.4 112.521 955.4 121.101 951.5C127.601 948.64 132.281 946.559 134.101 945.779C140.6 942.659 145.28 940.84 147.36 939.8C150.22 938.76 151.781 938.24 152.561 937.72H152.82C153.08 937.72 153.341 937.979 153.341 937.979L153.334 938.125C153.242 938.885 151.778 940.762 128.381 970.739L126.551 973.074C107.132 997.638 72.3184 1035.31 59.2207 1046.14C48.3007 1054.98 47 1056.8 47 1064.08L47.0049 1064.64C47.2002 1076.21 53.408 1087.13 60.1914 1087.47L60.5205 1087.48C61.8205 1087.48 64.4205 1086.44 65.9805 1085.14C68.0279 1083.77 68.6819 1083.01 71.7744 1078.83L73.2607 1076.82C80.8007 1066.42 93.2803 1053.42 103.16 1045.88C119.54 1033.4 137.74 1026.64 155.42 1026.64L156.582 1026.65C180.808 1027.05 194.16 1040.01 194.16 1063.04L194.153 1064C193.874 1084.05 184.78 1098.81 167.12 1108.02C156.46 1088 140.86 1077.86 120.58 1077.86C101.08 1077.86 87.5605 1088.78 87.5605 1104.38C87.5607 1123.1 107.06 1135.32 136.7 1135.32C186.488 1135.32 223.223 1107.16 223.794 1068.63L223.801 1067.72C223.801 1036.51 199.741 1015.02 164.319 1014.68L163.48 1014.68C140.861 1014.68 120.321 1021.7 93.8008 1038.6L93.54 1038.34C98.74 1032.88 98.7403 1032.88 112 1018.84C128.38 1001.55 134.608 995.208 145.141 985.184L149.96 980.62C170.191 961.364 173.056 959.017 179.762 955.371L181.16 954.62C187.709 951.094 189.378 949.275 189.476 946.092L189.48 945.779C189.48 942.399 187.66 938.759 184.28 934.6C175.96 925.24 167.64 919.26 161.92 919H161.4V909H161.92L162.374 909.01C168.093 909.27 173.518 912.141 177.879 915.208C182.223 918.263 186.648 922.33 190.905 927.012L191.755 927.956L192.042 928.294C195.84 932.968 199.48 938.877 199.48 945.779C199.48 949.55 198.415 953.419 195.189 956.899C192.709 959.575 189.275 961.608 185.901 963.425C185.89 963.431 185.878 963.437 185.866 963.443C182.287 965.352 180.518 966.358 177.1 969.185C173.3 972.326 167.729 977.513 156.854 987.863C156.844 987.873 156.833 987.883 156.822 987.894C148.481 995.763 143.252 1000.81 136.162 1008.06C145.161 1005.78 154.132 1004.68 163.48 1004.68C183.397 1004.68 200.967 1010.68 213.703 1021.9C226.542 1033.2 233.801 1049.23 233.801 1067.72C233.801 1114.46 189.891 1145.32 136.7 1145.32C120.674 1145.32 106.357 1142.04 95.6924 1135.33C84.7419 1128.45 77.5606 1117.77 77.5605 1104.38C77.5605 1093.44 82.4034 1083.98 90.4893 1077.48C98.4252 1071.09 109.032 1067.86 120.58 1067.86C141.556 1067.86 158.304 1077.15 170.305 1094.12C173.901 1091.26 176.698 1088.06 178.8 1084.57C182.234 1078.86 184.16 1071.8 184.16 1063.04ZM113.696 1090.35C127.436 1090.65 138.597 1100.48 143.46 1117.12C135.4 1118.94 132.54 1119.2 126.82 1119.2V1109.2C127.567 1109.2 128.25 1109.19 128.896 1109.18C124.545 1103.01 118.801 1100.34 113.04 1100.34C110.141 1100.34 108.495 1101.15 107.803 1101.69C107.256 1102.13 107.181 1102.42 107.181 1102.82C107.181 1102.98 107.199 1103.2 107.502 1103.63C107.864 1104.13 108.677 1104.97 110.306 1105.87C113.635 1107.71 119.245 1109.2 126.82 1109.2V1119.2C109.4 1119.2 97.1807 1112.44 97.1807 1102.82C97.1808 1095.54 103.68 1090.34 113.04 1090.34L113.696 1090.35ZM161.4 919L160.873 919.012C158.275 919.135 156.249 920.202 153.08 922.64C148.4 926.28 144.24 928.1 129.681 932.52C112.521 937.46 97.9604 940.58 90.9404 940.58V930.58C93.3551 930.58 97.8998 929.99 104.455 928.615C110.799 927.285 118.459 925.342 126.848 922.929C141.367 918.519 143.882 917.126 146.941 914.746L146.983 914.714C150.905 911.698 155.186 909 161.4 909V919Z" fill="#FFFAFA"/>
</g>
<g filter="url(#filter2_d_3_41)">
<path d="M24.0806 782.901C24.0806 765.816 33.6572 752.072 48.1275 743.052C62.4065 734.151 81.8162 729.481 103.76 729.481C114.223 729.481 125.258 730.304 138.113 732.094C136.161 727.622 133.837 722.706 131.255 717.64C113.473 722.654 94.7026 725.561 78.5406 725.561C66.4373 725.561 55.8511 723.395 46.6441 717.525C37.4975 711.692 30.8112 702.901 25.1587 691.737C22.9971 687.468 24.1634 682.265 27.941 679.327L30.2808 677.507C32.6203 675.687 35.5278 675.065 38.2466 675.568C27.8821 670.791 18.7524 663.148 11.0308 652.962C8.01271 648.981 8.39661 643.382 11.9292 639.85L14.0093 637.77L14.3355 637.457C17.7674 634.319 22.9404 633.954 26.7906 636.632C37.1035 643.806 44.9971 646.28 57.2203 646.28V656.28C42.9204 656.28 33.0404 653.161 21.0806 644.841L19.0005 646.921C31.2204 663.041 46.8202 671.36 65.2798 671.36C78.2798 671.36 94.1406 668.76 112.081 663.82C117.541 671.88 124.3 682.8 127.94 690.08C104.8 697.1 85.0402 700.74 69.1802 700.74V690.74C81.0241 690.74 95.6917 688.498 113.043 683.919C111.337 681.078 109.502 678.138 107.682 675.313C92.0068 679.219 77.6597 681.36 65.2798 681.36C57.0616 681.36 49.3406 679.946 42.1685 677.218C42.7966 677.66 43.3841 678.179 43.9136 678.778C48.2914 683.732 51.9187 686.536 55.4849 688.208C59.0052 689.858 63.1821 690.74 69.1802 690.74V700.74C55.1403 700.74 46.3004 696.58 36.4205 685.401L34.0806 687.221C44.3181 707.44 56.3191 715.314 77.524 715.555L78.5406 715.561C95.9605 715.561 117.02 711.921 136.26 705.681C144.32 720.501 151.08 735.841 153.42 744.681C133.774 741.155 118.764 739.58 105.081 739.485L103.76 739.481C62.4203 739.481 34.0807 757.161 34.0806 782.901L34.0845 783.412C34.2523 794.145 39.6949 804.339 49.4205 811.761C62.7699 822.088 82.9515 827.046 111.383 827.346L114.161 827.36C129.5 827.36 142.24 826.061 149.52 823.721C154.81 822.21 157.659 818.99 157.832 814.772L157.84 814.36C157.84 805.147 145.748 794.926 134.954 794.609L134.44 794.601C132.88 794.601 130.54 794.861 128.201 795.641C114.941 799.021 110.26 799.54 99.6002 799.54V789.54C109.263 789.54 113.124 789.154 125.461 786.018C128.803 784.961 132.052 784.601 134.44 784.601C142.833 784.601 150.882 788.45 156.669 793.316C162.258 798.013 167.84 805.492 167.84 814.36C167.84 818.878 166.319 823.204 163.244 826.709C160.341 830.016 156.52 832.073 152.548 833.251C143.711 836.084 129.682 837.36 114.161 837.36C83.5548 837.36 59.7371 832.385 43.3013 819.67V819.669C31.3113 810.496 24.0806 797.319 24.0806 782.901ZM224.92 639.641C224.92 625.861 208.28 611.301 181.76 601.941L179.161 606.36C190.081 615.46 198.661 625.861 205.161 637.301C211.498 648.757 212.351 650.159 215.861 650.289L216.6 650.301C221.386 650.301 224.708 646.397 224.911 640.243L224.92 639.641ZM252.22 617.54C252.22 610 248.06 603.76 238.44 597C231.16 591.8 221.8 587.64 208.541 584L206.201 587.901C219.201 597.78 227.78 607.141 235.84 620.141L236.545 621.254C239.829 626.362 241.405 627.6 244.369 627.677L244.68 627.681C249.1 627.681 252.22 623.52 252.22 617.54ZM148.567 662.634C146.94 663.225 145.755 663.654 144.665 664.038C146.165 666.617 147.506 668.932 149.235 671.938C152.396 670.678 155.111 669.544 157.456 668.514C156.003 667.166 154.309 665.62 152.191 663.714C151.604 663.185 151.093 662.601 150.66 661.977C149.994 662.186 149.297 662.406 148.567 662.634ZM262.22 617.54C262.22 622.173 261.021 626.947 258.126 630.83C255.1 634.888 250.36 637.681 244.68 637.681C241.367 637.681 237.793 636.93 234.384 634.203C234.734 635.973 234.92 637.787 234.92 639.641C234.92 644.532 233.652 649.563 230.461 653.605C227.113 657.846 222.147 660.301 216.6 660.301C215.593 660.301 213.632 660.295 211.449 659.662C213.054 662.576 213.86 665.877 213.86 669.28C213.86 679.596 206.702 686.69 198.016 692.123C191.012 696.504 181.17 700.972 168.195 705.984L168.525 706.563C169.17 707.597 169.869 708.74 170.587 709.928L172.916 713.796L173.068 714.059C173.118 714.147 173.166 714.237 173.212 714.327C174.82 717.418 176.246 719.961 177.419 722.021C178.369 723.69 179.374 725.42 180.063 726.738L183.741 732.62L183.756 732.647C188.953 741.019 191.501 747.556 191.501 755.601C191.501 763.651 189.17 773.381 184.754 779.53C180.727 785.442 174.474 788.481 167.72 788.481C164.533 788.481 161.501 787.817 158.48 786.241C155.765 784.825 153.413 782.844 151.277 780.851C151.193 780.772 151.11 780.693 151.029 780.611C146.958 776.54 144.619 774.467 142.589 773C140.638 771.589 138.695 770.534 135.047 768.773V768.774C122.788 762.88 108.662 759.62 96.48 759.62C85.1257 759.62 76.3507 762.043 70.7769 765.44C65.3674 768.736 63.5806 772.428 63.5806 775.881C63.5807 779.128 64.869 781.955 69.9537 784.571C75.6548 787.505 85.2985 789.54 99.6002 789.54V799.54C70.1677 799.54 54.0879 791.479 53.5923 776.595L53.5806 775.881C53.5806 760.281 71.2602 749.62 96.48 749.62C110.26 749.62 125.86 753.261 139.38 759.761C146.92 763.401 149.78 765.22 158.1 773.54C162 777.18 164.34 778.481 167.72 778.481C171.36 778.481 174.48 776.921 176.56 773.801C179.331 770.023 181.37 762.828 181.495 756.236L181.501 755.601C181.501 750.141 179.94 745.461 175.26 737.921L171.36 731.681C170.385 729.731 168.039 725.953 164.964 720.132L164.34 718.941C162.78 716.341 161.22 713.74 159.92 711.66L153.68 700.74C190.86 687.22 203.86 679.16 203.86 669.28C203.86 663.739 199.956 659.906 194.04 659.672L193.46 659.66C192.68 659.66 191.9 659.661 190.86 659.921L187.228 660.522C184.523 660.96 184.23 660.961 183.06 660.961V650.961C183.496 650.961 183.531 650.958 183.547 650.957C183.548 650.957 183.55 650.957 183.552 650.957C183.557 650.957 183.569 650.956 183.589 650.954C183.635 650.95 183.725 650.939 183.883 650.918C184.626 650.819 185.904 650.607 188.91 650.107C191.003 649.642 192.651 649.66 193.46 649.66C196.225 649.66 198.979 650.126 201.549 651.115C200.004 648.668 198.352 645.652 196.465 642.24C194.331 638.484 191.948 634.848 189.303 631.343C189.38 632.01 189.42 632.696 189.42 633.401C189.42 635.849 188.961 638.458 187.686 641.049C186.444 643.573 184.684 645.56 182.808 647.168C181.486 648.301 179.955 649.367 178.252 650.396C180.084 650.797 181.658 650.961 183.06 650.961V660.961L182.473 660.954C176.379 660.828 169.508 658.734 160.44 654.2L158.88 656.28C166.68 663.3 169.02 665.641 174.22 671.101C169.02 674.481 160.7 678.381 144.84 684.36L140.509 676.824C136.926 670.597 135.025 667.33 129.76 658.36C139.64 655.241 139.64 655.24 145.36 653.16C157.06 649.52 159.66 648.481 164.6 646.141C175.683 641.103 179.202 638.262 179.411 633.834L179.42 633.401C179.42 627.607 173.076 623.767 162.752 623.532L161.741 623.521C157.321 623.521 153.42 624.561 151.86 626.381L151.375 626.954C146.368 632.772 141.59 635.205 121.44 642.761L120.364 640.688C115.379 631.007 113.49 626.157 113.15 621.881L113.121 621.441C112.341 613.641 112.08 612.601 109.22 610.261C105.946 606.987 98.5237 605.42 88.1353 605.325L87.1207 605.32C80.6208 605.32 74.9006 605.841 69.7007 607.141L68.1119 607.528C60.5029 609.463 57.8215 611.398 55.1402 616.761H58.7798C67.3598 616.761 75.4201 618.841 80.1002 622.481C85.8201 626.641 95.1805 638.08 101.42 648.74C87.3805 653.16 68.9203 656.28 57.2203 656.28V646.28C64.472 646.28 75.0577 644.892 85.2935 642.651C84.4694 641.563 83.638 640.504 82.8091 639.485C79.1331 634.968 76.0147 631.874 74.2183 630.568C74.1315 630.504 74.0452 630.44 73.9605 630.374C71.7435 628.65 66.2397 626.761 58.7798 626.761H55.1402C51.6745 626.761 48.4554 624.966 46.6334 622.018C44.8115 619.07 44.646 615.388 46.1959 612.288C48.0739 608.532 50.5088 604.971 54.688 602.227C58.4423 599.761 62.8627 598.476 67.4097 597.406C73.6209 595.869 80.1706 595.32 87.1207 595.32C92.9786 595.32 98.4337 595.732 103.122 596.751C107.405 597.682 112.219 599.364 115.868 602.781C117.853 604.441 120.097 606.703 121.417 610.58C122.148 612.729 122.519 615.266 122.804 617.854L123.071 620.445L123.105 620.886C123.193 622.461 123.708 624.634 126.321 630.181C139.676 624.925 141.421 623.287 144.178 619.979L144.268 619.872C146.914 616.785 150.493 615.356 153.004 614.646C155.786 613.859 158.809 613.521 161.741 613.521C166.037 613.521 170.269 614.018 174.116 615.194C173.668 614.809 173.216 614.424 172.758 614.043C168.997 610.908 168.058 605.511 170.541 601.29L173.141 596.87L173.376 596.49C175.879 592.635 180.717 590.968 185.088 592.511C194.746 595.92 203.433 600.063 210.743 604.783C207.583 601.79 204.1 598.864 200.15 595.862C196.09 592.776 195.002 587.129 197.626 582.756L199.965 578.856C202.273 575.009 206.861 573.17 211.187 574.358C225.093 578.175 235.641 582.727 244.189 588.818C254.964 596.39 262.22 605.256 262.22 617.54Z" fill="#FFFAFA"/>
</g>
<g filter="url(#filter3_d_3_41)">
<path d="M76.8203 442.521C76.8203 413.779 95.4903 390.66 123.74 390.66C125.716 390.66 127.625 390.747 129.599 391.026C129.598 389.346 129.595 387.962 129.583 386.554C100.768 390.728 78.8459 397.046 62.834 405.372C62.6133 405.487 62.3878 405.593 62.1592 405.691C59.2049 406.957 54.49 408.06 50.6807 408.061C38.0339 408.061 27.6259 398.757 19.8682 387.675C19.8095 387.591 19.7514 387.507 19.6953 387.421C14.4663 379.44 10.0001 369.859 10 361.4C10 358.637 10.7109 356.044 11.6768 353.469C12.977 350.002 16.0872 347.537 19.7598 347.062C23.4321 346.588 27.0657 348.182 29.2041 351.205C32.3421 355.642 35.3111 358.291 38.21 359.886C41.0528 361.449 44.4112 362.32 48.8604 362.32V372.32L47.7725 372.307C36.6251 372.022 28.3444 367.307 21.04 356.98C20.2601 359.06 20 360.36 20 361.4C20.0001 366.86 23.1206 374.401 28.0605 381.94C35.2269 392.178 42.8971 397.88 50.3271 398.056L50.6807 398.061C52.8743 398.06 55.9818 397.375 57.8613 396.646L58.2207 396.5C77.7207 386.36 104.501 379.341 139.341 375.181C139.601 384.28 139.601 386.361 139.601 392.601V405.08C132.321 401.44 129.2 400.66 123.74 400.66C102.16 400.66 86.8203 418.081 86.8203 442.521L86.8311 443.649C87.2852 466.89 101.739 484.338 120.737 484.887L121.66 484.9C127.9 484.9 132.84 483.34 137.78 480.22C133.62 497.9 127.64 508.82 115.42 521.04C106.32 530.14 97.4803 536.12 83.4404 543.4L84.7402 546.521C108.416 539.72 119.892 534.871 131.696 526.774L132.841 525.98C156.131 509.6 168.588 485.41 168.972 456.386L168.98 455C168.98 440.7 166.641 431.6 159.881 418.86V413.4C159.881 403.78 160.66 386.881 161.7 373.101C170.54 372.321 174.961 372.061 183.801 372.061L186.858 372.069C201.852 372.162 212.547 372.954 226.44 374.66C234.971 375.879 238.932 376.412 241.322 376.474L241.78 376.48C247.07 376.48 250.895 373.552 251.129 369.114L251.141 368.681C251.141 364.521 249.84 361.921 246.46 359.061C239.911 353.267 228.971 348.45 221.911 348.154L221.24 348.141C217.34 348.141 214.74 348.66 210.061 350.74C201.221 354.64 199.14 354.901 163 358.021C164.3 347.361 164.821 345.02 168.721 338C170.671 334.588 171.25 332.775 171.314 330.419L171.32 329.94C171.32 323.96 166.64 319.8 156.5 316.42C147.14 313.56 137 312 127.12 312C118.8 312 115.42 313.04 110.74 317.2C122.7 319.02 129.2 322.4 133.36 328.12C137 333.06 138.3 341.381 138.82 361.141C121.14 363.221 113.34 364.001 102.94 365.561L87.6494 367.792C56.5386 372.321 55.6854 372.32 48.8604 372.32V362.32C54.8724 362.32 54.8832 362.451 86.0986 357.911L101.495 355.665C110.038 354.384 116.948 353.606 128.479 352.274C128.218 347.316 127.865 343.58 127.392 340.687C126.672 336.285 125.806 334.725 125.31 334.052C125.297 334.035 125.286 334.019 125.273 334.002C123.366 331.38 119.978 328.721 109.236 327.086C105.403 326.503 102.252 323.757 101.151 320.039C100.051 316.321 101.199 312.303 104.097 309.727C107.079 307.076 110.302 304.847 114.554 303.504C118.529 302.249 122.707 302 127.12 302C137.675 302 148.445 303.609 158.456 306.566L159.423 306.856L159.663 306.934C165.259 308.799 170.488 311.223 174.43 314.797C178.757 318.72 181.32 323.868 181.32 329.94C181.32 332.023 181.098 334.178 180.336 336.592C179.644 338.782 178.615 340.827 177.461 342.855L177.462 342.856C176.492 344.602 175.853 345.855 175.396 346.897C185.217 346.02 191.119 345.422 195.251 344.788C199.68 344.108 201.667 343.467 204.666 342.183L206.024 341.591C211.795 339.029 215.77 338.141 221.24 338.141C226.688 338.141 232.743 339.941 237.919 342.18C243.174 344.453 248.608 347.653 252.92 351.427L253.355 351.801C255.527 353.701 257.59 356.005 259.05 358.987C260.637 362.23 261.141 365.517 261.141 368.681C261.14 374.038 258.807 378.809 254.865 382.055C251.079 385.173 246.35 386.48 241.78 386.48C238.551 386.48 233.749 385.805 225.161 384.578C210.754 382.81 199.989 382.061 183.801 382.061C178.604 382.061 175.044 382.151 171.085 382.396C170.365 393.91 169.881 405.997 169.881 413.4V416.424C176.503 429.477 178.98 439.873 178.98 455C178.98 487.762 165.023 515.572 138.593 534.16L138.587 534.164C125.055 543.665 112.402 548.979 87.501 556.132C82.6198 557.534 77.463 555.054 75.5098 550.366L74.21 547.246C72.2103 542.447 74.2214 536.916 78.8369 534.522C92.2902 527.547 100.194 522.124 108.35 513.969C114.698 507.62 119.077 501.819 122.372 494.894C122.136 494.897 121.899 494.9 121.66 494.9C94.654 494.9 76.8204 470.325 76.8203 442.521ZM103.98 433.16C103.98 419.12 112.04 408.2 122.44 408.2C133.1 408.2 139.341 419.12 139.341 438.36L139.336 439.026C139.152 452.918 133.202 460.98 123.221 460.98V450.98C125.175 450.98 126.125 450.369 126.945 449.221C128.068 447.65 129.341 444.311 129.341 438.36C129.341 429.578 127.877 423.994 126.175 420.973C124.764 418.468 123.604 418.2 122.44 418.2C121.036 418.2 119.186 418.878 117.353 421.359C115.48 423.893 113.98 427.974 113.98 433.16C113.98 439.891 115.599 444.714 117.546 447.54C119.346 450.154 121.265 450.98 123.221 450.98V460.98L122.687 460.972C111.715 460.627 104.222 449.641 103.986 433.925L103.98 433.16Z" fill="#FFFAFA"/>
</g>
<g filter="url(#filter4_d_3_41)">
<path d="M157.82 155.08C157.82 146.257 157.65 141.446 156.865 133.821C149.879 137.147 142.012 140.516 132.579 144.321V145.719C132.579 148.682 132.741 153.77 132.941 160.17C136.414 160.953 139.102 161.2 142.079 161.2H157.82V155.08ZM49.9203 180.502C48.7487 181.604 47.4615 182.427 46.1869 183.04H49.9203V180.502ZM93.3197 182.298C94.1507 181.378 94.9166 180.531 95.6527 179.726C94.8052 179.217 94.0224 178.615 93.3197 177.923V182.298ZM59.9203 121.54V157.16H44.3197V121.54H59.9203ZM99.4398 121.54V157.16H83.3197V121.54H99.4398ZM185.227 117.43C184.257 118.107 183.291 118.769 182.328 119.418C184.772 119.687 186.999 119.939 189.024 120.184C187.739 119.282 186.474 118.365 185.227 117.43ZM59.9203 83.5798V116.08H44.3197V83.5798H59.9203ZM99.4398 83.5798V116.08H83.3197V83.5798H99.4398ZM209.94 34.4392C201.36 54.4592 195.38 64.5999 183.16 80.1999L181.778 79.1657C167.581 68.3693 155.908 54.2402 149.36 39.3796C147.8 35.9997 147.8 35.9992 147.02 34.4392H209.94ZM93.3197 68.1198H93.7094C95.0061 66.7988 96.0783 65.6903 97.1508 64.5788C97.9925 63.7065 98.8373 62.8316 99.7846 61.8601H93.3197V68.1198ZM37.6361 61.8601C41.0629 63.5747 44.4047 65.4132 48.9252 68.1198H49.9203V61.8601H37.6361ZM163.299 44.4392C167.993 52.1012 174.188 59.4483 181.42 65.9138C186.544 58.8172 190.422 52.4345 194.383 44.4392H163.299ZM99.7562 27.154C98.7293 28.0176 97.6784 28.6848 96.7611 29.1775C95.7198 29.7367 94.5631 30.2393 93.3197 30.7048V34.4646C95.63 31.8734 97.4426 29.8166 99.7562 27.154ZM167.82 171.2H142.079C137.4 171.2 133.24 170.68 127.52 169.12L129.34 178.479C133.76 177.179 137.66 176.66 142.079 176.66H167.82V233.34H124.14C118.68 233.34 112.7 232.56 107.24 230.74L109.06 240.88C114.52 239.32 118.68 238.8 124.14 238.8H258.039C259.502 238.8 260.509 238.114 260.628 237.385L260.64 237.24C260.64 236.785 260.441 236.329 259.695 235.526L259.34 235.16C248.42 224.76 244.779 221.639 233.079 212.019C225.28 221.119 222.68 224.24 215.14 233.34H195.12V176.66H250.76L251.046 176.654C252.446 176.593 253.36 176.074 253.36 175.099C253.36 174.644 252.961 173.991 252.165 172.964L251.8 172.5C241.14 163.66 238.02 161.059 226.84 152.219C219.82 160.539 217.74 162.88 210.46 171.2H195.12V141.82C202.424 139.301 205.093 137.758 205.252 135.773L205.26 135.58C205.26 132.2 201.88 131.42 166.26 127.78C167.56 138.96 167.82 144.16 167.82 155.08V171.2ZM249.46 35.9997C249.46 34.9597 248.42 33.6593 245.82 31.0593C236.46 23.5195 233.6 21.1796 224.24 14.4196C217.74 20.3995 215.66 22.4794 208.9 28.9792H141.039C135.58 28.9792 131.42 28.4599 125.96 26.9001L127.52 36.2595C131.68 34.9595 135.84 34.4392 141.039 34.4392H142.6C147.02 53.6792 158.2 75.2596 172.76 92.4196C155.08 110.88 145.72 118.94 123.62 133.5L124.92 136.62C154.3 124.92 168.08 117.9 185.499 104.9C198.239 115.56 213.32 124.139 232.3 131.939C235.713 133.402 238.44 134.179 239.838 134.27L240.1 134.28C241.319 134.28 242.081 133.594 242.814 132.009L242.96 131.679C246.6 118.68 250.76 113.22 260.38 107.24V104.12C228.661 100.74 215.4 97.8797 201.88 91.1198C214.62 78.6399 222.16 68.2391 238.02 41.9792C246.08 39.9642 249.26 38.4375 249.451 36.2165L249.46 35.9997ZM141.16 82.7995C141.16 84.8844 140.657 87.191 139.267 89.3972C138.044 91.3387 136.484 92.6322 135.334 93.4577C134.533 94.0332 133.603 94.6025 132.579 95.1755V115.21C142.627 107.896 149.941 101.407 159.452 91.7722C151.89 81.7159 145.395 70.598 140.488 59.3757C140.105 59.6617 139.71 59.9214 139.306 60.1521C136.729 61.6247 134.106 61.86 132.46 61.8601H123.058C126.475 64.445 129.164 66.649 133.726 70.5319C135.182 71.6055 136.855 72.9475 138.185 74.5905C139.996 76.828 141.16 79.5852 141.16 82.7995ZM94.4994 17.28C94.4994 14.5987 91.3006 13.5163 77.4037 12.1062L74.4799 11.82C71.0999 11.3 65.6395 10.7797 58.6195 9.99972C59.9195 24.5597 59.9203 27.6801 59.9203 46.4001H29.7601C24.0401 46.4001 19.3595 45.88 13.1195 44.32L14.6801 53.6794C20.3999 52.3794 24.3002 51.8601 29.7601 51.8601H59.9203V78.1198H46.14C35.4801 71.6199 31.8397 70.06 20.3998 64.8601C21.1798 78.6399 21.4398 89.5603 21.4398 111.4L21.4271 119.886C21.3667 139.053 21.0823 154.04 20.3998 170.42L20.4037 170.823C20.4822 174.61 21.7687 175.281 28.3265 175.352L29.7601 175.36C41.1999 175.36 44.3197 174.319 44.3197 169.639V162.62H59.9203V193.04H27.1596C20.3997 193.04 15.9793 192.52 9.9994 190.7L11.3002 200.32C16.5 199.02 21.4398 198.5 27.1596 198.5H59.6596C59.3996 232.04 59.4003 232.04 58.8803 245.04V245.82L58.8851 246.176C58.9986 249.784 60.9271 250.759 67.9799 250.759C80.5734 250.759 83.8948 249.54 84.0902 244.5L84.1 244C83.84 232.3 83.8397 232.3 83.3197 198.5H134.28L134.612 198.494C136.118 198.437 137.014 197.982 137.127 197.129L137.14 196.939C137.14 196.484 136.741 196.03 136.12 195.052L135.84 194.599C126.22 186.279 123.36 183.68 113.48 175.62C106.2 182.9 104.12 185.24 97.1 193.04H83.3197V162.62H99.4398V168.08C99.6998 171.46 100.74 171.979 107.76 171.979C120.24 171.979 123.1 170.679 123.1 165.479C122.84 156.899 122.579 149.619 122.579 145.719V89.0398C129.599 85.6598 131.16 84.6195 131.16 82.7995C131.16 81.4996 130.38 80.4595 127.52 78.3796C120.5 72.3996 118.16 70.5798 110.62 65.1198C105.16 70.5796 103.6 72.4 97.8803 78.1198H83.3197V51.8601H132.46L132.746 51.8532C134.052 51.7963 134.936 51.3418 135.048 50.489L135.06 50.2995C135.06 49.7795 134.539 48.9996 133.499 47.9597C124.4 39.3799 121.28 37.0391 111.4 28.9792C104.9 36.5192 102.82 38.8601 96.0599 46.4001H83.3197V23.2595C91.3797 21.2445 94.316 19.7177 94.4916 17.4968L94.4994 17.28ZM104.499 17.28C104.499 19.8386 103.8 21.9502 102.765 23.6755C103.105 23.2819 103.459 22.8751 103.826 22.4499C107.363 18.3471 113.524 17.8069 117.721 21.2312H117.722C118.17 20.5808 118.697 19.9784 119.3 19.4401C121.859 17.1559 125.41 16.3426 128.707 17.2849C133.212 18.5719 136.443 18.9792 141.039 18.9792H204.868C209.489 14.523 211.918 12.1677 217.469 7.06027C220.966 3.84345 226.243 3.53142 230.095 6.3132C237.279 11.5018 240.777 14.1907 246.039 18.403L252.093 23.2722L252.501 23.6198C252.634 23.7393 252.765 23.8625 252.891 23.989C254.196 25.2941 255.561 26.71 256.615 28.115C257.541 29.3508 259.46 32.1343 259.46 35.9997C259.46 42.921 254.313 46.4892 251.458 47.9675C249.483 48.9902 247.097 49.8328 244.488 50.5935C234.092 67.6738 227.079 78.0925 219.22 87.2683C228.472 90.0165 240.647 91.9599 261.44 94.1755C266.524 94.7174 270.38 99.0072 270.38 104.12V107.24C270.38 110.696 268.595 113.907 265.66 115.732C261.475 118.333 259.199 120.376 257.536 122.679C255.815 125.065 254.259 128.413 252.589 134.376C252.471 134.799 252.325 135.215 252.152 135.619C251.583 136.945 250.527 139.136 248.53 140.99C246.1 143.246 243.098 144.28 240.1 144.28C237.967 144.28 235.8 143.74 234.268 143.292C232.498 142.774 230.512 142.051 228.416 141.155C223.839 139.272 219.458 137.334 215.255 135.326C215.257 135.414 215.26 135.499 215.26 135.58C215.26 141.915 210.826 145.449 208.239 147.033C207.3 147.608 206.251 148.147 205.12 148.664V161.2H205.922C210.943 155.464 213.297 152.763 219.197 145.771L219.531 145.394C223.059 141.61 228.94 141.132 233.042 144.376C241.494 151.058 245.4 154.223 251.332 159.126L258.183 164.802L258.567 165.137C258.942 165.482 259.29 165.855 259.609 166.253C260.159 166.94 260.881 167.867 261.487 168.851C261.9 169.523 263.36 171.884 263.36 175.099C263.36 179.699 260.726 183.169 257.606 184.952C255.029 186.425 252.406 186.66 250.76 186.66H205.12V223.34H210.443C215.875 216.792 218.775 213.343 225.488 205.511L225.828 205.134C229.415 201.349 235.358 200.947 239.431 204.296C250.536 213.426 254.595 216.881 264.231 226.012L266.237 227.919L266.411 228.089C267.556 229.234 270.64 232.323 270.64 237.24C270.64 242.263 267.432 245.375 265.332 246.724C263.01 248.217 260.41 248.8 258.039 248.8H124.14C119.543 248.8 116.312 249.208 111.807 250.495C109.089 251.271 106.169 250.861 103.77 249.366C101.371 247.87 99.7166 245.429 99.2172 242.646L97.3969 232.507C96.7733 229.033 98.0278 225.487 100.697 223.177C103.365 220.868 107.054 220.137 110.402 221.253C114.668 222.675 119.555 223.34 124.14 223.34H157.82V186.66H142.079C142.036 186.66 141.992 186.661 141.949 186.661C142.091 186.784 142.235 186.91 142.381 187.036C143.183 187.729 143.869 188.546 144.414 189.455C144.507 189.609 144.6 189.753 144.714 189.926C144.765 190.003 145.047 190.422 145.219 190.693C145.409 190.992 145.85 191.695 146.238 192.598C146.66 193.584 147.14 195.078 147.14 196.939C147.14 201.652 144.379 205.184 141.098 206.933C138.494 208.322 135.855 208.5 134.28 208.5H93.476C93.8429 232.29 93.867 233.424 94.0971 243.777C94.0987 243.851 94.1 243.926 94.1 244C94.1 246.175 93.8163 249.226 92.1449 252.226C90.3317 255.481 87.5705 257.481 84.7787 258.65C82.2273 259.719 79.4711 260.178 76.9555 260.424C74.3528 260.678 71.3417 260.759 67.9799 260.759C65.988 260.759 64.0044 260.692 62.1713 260.449C60.4023 260.214 58.116 259.738 55.8969 258.523C53.3904 257.151 51.3461 255.039 50.1254 252.266C49.0428 249.807 48.8803 247.431 48.8803 245.82V245.04C48.8803 244.907 48.8828 244.773 48.8881 244.64C49.3433 233.258 49.3918 232.1 49.5795 208.5H27.1596C22.1108 208.5 18.0012 208.952 13.725 210.021C10.9657 210.711 8.04313 210.193 5.68885 208.597C3.33446 207.001 1.77097 204.478 1.39002 201.659L0.0902202 192.039C-0.365841 188.664 0.926855 185.289 3.52088 183.083C6.11493 180.876 9.65353 180.141 12.9115 181.133C13.6027 181.343 14.2651 181.53 14.9096 181.7C13.3075 180.308 12.0968 178.547 11.349 176.524C10.4555 174.107 10.3998 171.755 10.3998 170.42C10.3998 170.281 10.4028 170.142 10.4086 170.004C11.1809 151.467 11.4398 134.715 11.4398 111.4C11.4398 89.6657 11.1809 78.9486 10.4154 65.4245C10.3652 64.5371 10.4342 63.6593 10.6117 62.8112C10.0913 62.5794 9.58652 62.3051 9.10682 61.9831C6.8208 60.4488 5.2685 58.0396 4.81581 55.3239L3.25624 45.9636C2.70212 42.6389 3.85987 39.2588 6.33631 36.9724C8.81298 34.6859 12.2752 33.8004 15.5453 34.6179C20.9774 35.9759 24.8424 36.4001 29.7601 36.4001H49.9057C49.8609 26.0996 49.6522 22.0073 48.6596 10.8894C48.3928 7.90128 49.4813 4.95052 51.6254 2.85226C53.7694 0.75405 56.7424 -0.270004 59.724 0.0612428C66.2288 0.784 71.9888 1.34134 75.6654 1.88741C83.5419 2.64045 89.3723 3.34565 93.2816 4.41964C95.2036 4.94767 97.946 5.88336 100.271 7.92355C103.23 10.52 104.499 13.9607 104.499 17.28Z" fill="#FFFAFA"/>
</g>
<g filter="url(#filter5_d_3_41)">
<path d="M649.04 1418.18C649.04 1404.4 642.021 1395.04 626.681 1387.5C610.561 1379.7 594.961 1374.5 575.721 1370.08L574.681 1372.68C591.061 1384.64 604.841 1399.72 614.981 1416.62C627.461 1437.16 627.46 1437.16 628.24 1438.2C630.507 1440.97 632.286 1442.28 634.05 1442.36L634.221 1442.36C641.761 1442.36 649.04 1430.66 649.04 1418.18ZM659.04 1418.18C659.04 1426.24 656.724 1434.1 652.973 1440.19C649.535 1445.78 643.194 1452.36 634.221 1452.36C627.371 1452.36 622.898 1447.46 620.501 1444.53C620.412 1444.42 620.325 1444.31 620.24 1444.2C619.072 1442.64 618.644 1441.91 606.435 1421.81C606.425 1421.8 606.415 1421.78 606.405 1421.76C596.964 1406.03 584.1 1391.94 568.783 1380.76C565.093 1378.06 563.699 1373.21 565.396 1368.97L566.436 1366.37L566.616 1365.94C568.572 1361.63 573.306 1359.27 577.959 1360.33C597.165 1364.75 613.094 1369.97 629.451 1377.74L631.036 1378.5L631.092 1378.53C639.611 1382.71 646.722 1387.83 651.675 1394.58C656.763 1401.52 659.04 1409.44 659.04 1418.18Z" fill="#FFFAFA"/>
</g>
<g filter="url(#filter6_d_3_41)">
<path d="M335 1359.84C335 1335.27 337.572 1317.18 346.263 1276.63L346.286 1276.52C349.648 1261.63 350.12 1257.57 350.12 1253.52C350.12 1247.59 349.172 1243.59 344.105 1235.14C342.058 1231.73 342.229 1227.43 344.54 1224.19C346.851 1220.95 350.862 1219.39 354.755 1220.22C365.369 1222.47 373.128 1227.82 381.492 1237.25C386.028 1242.32 389.795 1247.64 392.475 1252.85C395.087 1257.93 397 1263.57 397 1269.12C397 1271.9 396.738 1274.63 395.646 1277.8C394.679 1280.61 393.171 1283.42 391.361 1286.56L391.362 1286.56C387.635 1293.08 384.747 1298.66 382.575 1303.87C378.911 1312.89 376.032 1324.02 374.423 1334.92C376.632 1330.38 378.826 1325.99 382.376 1318.89C384.508 1314.62 389.352 1312.46 393.951 1313.71L396.592 1314.43C401.875 1315.87 405.016 1321.3 403.639 1326.59L395.719 1357.08C395.713 1357.1 395.709 1357.12 395.703 1357.14C390.923 1375.06 388.36 1390.29 388.36 1396.32C388.36 1397.82 388.532 1399.07 388.806 1403.39C389.024 1405.57 389.32 1408.47 389.32 1410.72C389.32 1422.63 380.823 1433.2 367.801 1433.2C356.149 1433.2 348.748 1424.59 344.306 1414.88C344.294 1414.85 344.282 1414.83 344.271 1414.8C338.433 1401.74 335 1380.49 335 1359.84ZM404.525 1274.02C408.191 1271.1 413.431 1271.1 417.093 1274.1C421.892 1278.03 425.498 1280.2 428.911 1281.48C432.27 1282.74 436.044 1283.36 441.48 1283.36V1293.36L440.324 1293.35C428.518 1293.17 420.991 1290.21 410.761 1281.84L408.84 1283.52C412.92 1289.76 417.96 1295.28 423.96 1299.6C431.167 1304.95 439.952 1307.59 451.622 1307.75L452.761 1307.76C457.561 1307.76 462.841 1307.28 469.561 1306.32C470.041 1320 470.521 1358.4 470.521 1361.28C466.321 1361.07 463.59 1360.86 460.723 1360.81L459.48 1360.8C430.441 1360.8 410.761 1373.76 410.761 1392.72C410.761 1409.49 426.109 1420.69 449.252 1421.03L450.36 1421.04C477 1421.04 492.84 1409.76 492.84 1391.28C492.84 1390.56 492.841 1389.6 492.601 1388.16C499.8 1392 506.281 1397.04 511.801 1402.8C521.251 1412.25 522.474 1413.47 524.963 1413.59L525.48 1413.6C530.363 1413.6 533.668 1408.19 533.87 1400L533.88 1399.2C533.88 1391.04 530.521 1384.56 523.561 1379.52C515.881 1373.52 506.28 1369.2 492.12 1365.12C490.095 1349.6 488.914 1334.07 488.774 1316.17L488.761 1312.56V1303.44C519.237 1296.82 534.132 1290.44 534.59 1283.38L534.601 1283.04C534.601 1281.02 533.757 1278.78 532.465 1277.32L532.2 1277.04C528.945 1273.79 522.537 1271.43 517.558 1271.29L517.08 1271.28C514.92 1271.28 513.72 1271.76 511.32 1273.68C504.12 1279.2 500.76 1280.88 489.96 1284.24C491.085 1270.07 491.999 1265.17 495.075 1258.29L495.721 1256.88C497.641 1252.56 498.12 1251.12 498.12 1248.72C498.12 1244.4 495 1240.8 488.761 1238.16C481.081 1234.56 472.44 1232.88 463.32 1232.88C455.64 1232.88 452.04 1234.08 447.48 1237.92C457.8 1238.88 464.281 1242.24 466.681 1248.48C468.601 1253.04 469.08 1260 469.32 1290C460.2 1292.16 450.84 1293.36 441.48 1293.36V1283.36C447.388 1283.36 453.332 1282.83 459.239 1281.84C459.12 1271.61 458.947 1264.94 458.651 1260.34C458.28 1254.58 457.758 1253.06 457.464 1252.36C457.423 1252.26 457.384 1252.17 457.347 1252.07C457.057 1251.32 455.733 1248.73 446.554 1247.88C442.54 1247.5 439.143 1244.76 437.938 1240.91C436.732 1237.06 437.955 1232.87 441.039 1230.27C443.971 1227.8 447.139 1225.73 451.174 1224.44C455.039 1223.2 459.051 1222.88 463.32 1222.88C473.599 1222.88 483.675 1224.76 492.853 1229.04C500.504 1232.32 508.12 1238.51 508.12 1248.72C508.12 1253.42 506.803 1256.57 504.858 1260.94C504.831 1261 504.804 1261.06 504.775 1261.12C503.624 1263.58 502.8 1265.56 502.151 1268.02C503.049 1267.39 504.042 1266.66 505.188 1265.78C506.576 1264.68 508.325 1263.41 510.467 1262.52C512.922 1261.5 515.164 1261.28 517.08 1261.28C521.028 1261.28 525.162 1262.18 528.771 1263.53C532.312 1264.86 536.244 1266.94 539.271 1269.97C542.709 1273.41 544.601 1278.41 544.601 1283.04C544.601 1288.63 541.63 1292.86 538.555 1295.69C535.528 1298.46 531.582 1300.69 527.338 1302.56C520.28 1305.69 510.687 1308.6 498.761 1311.43V1312.56C498.761 1329.06 499.644 1343.39 501.256 1357.46C512.829 1361.22 521.895 1365.55 529.618 1371.56C538.93 1378.39 543.88 1387.77 543.88 1399.2C543.88 1404.64 542.847 1410.15 540.208 1414.68C537.448 1419.41 532.452 1423.6 525.48 1423.6C524.339 1423.6 522.41 1423.54 520.182 1422.75C518.076 1422 516.407 1420.84 515.094 1419.79C512.738 1417.9 509.51 1414.65 504.729 1409.87C504.679 1409.82 504.629 1409.77 504.58 1409.72C503.168 1408.25 501.686 1406.83 500.144 1405.48C497.576 1411.76 493.23 1417.13 487.346 1421.27C477.799 1427.99 464.909 1431.04 450.36 1431.04C437.029 1431.04 424.915 1427.89 415.838 1421.41C406.502 1414.74 400.761 1404.73 400.761 1392.72C400.761 1379.29 407.898 1368.41 418.744 1361.29C429.366 1354.32 443.617 1350.8 459.48 1350.8C459.789 1350.8 460.096 1350.8 460.402 1350.81C460.281 1341.53 460.078 1327.96 459.852 1317.48C457.389 1317.66 455.045 1317.76 452.761 1317.76C439.052 1317.76 427.697 1314.78 418.117 1307.71V1307.72C410.992 1302.58 405.131 1296.12 400.471 1288.99C397.743 1284.82 398.504 1279.28 402.255 1275.99L404.175 1274.31L404.525 1274.02ZM449.357 1376.89C457.409 1377.01 463.47 1377.98 469.32 1380L469.399 1380.01C469.56 1380.06 469.561 1380.27 469.561 1380.48L469.55 1381.21C469.501 1383.14 469.29 1386.45 469.08 1387.92C468.963 1388.63 468.823 1389.31 468.665 1389.98C468.649 1389.97 468.633 1389.97 468.617 1389.97C468.633 1389.97 468.649 1389.98 468.665 1389.98C467.855 1393.38 466.489 1396.23 464.28 1398.24C460.2 1402.8 451.32 1405.44 441.48 1405.44V1395.44C445.558 1395.44 449.219 1394.89 452.074 1394C455.075 1393.07 456.438 1392.01 456.828 1391.57L457.182 1391.2C457.303 1391.08 457.427 1390.96 457.554 1390.84C457.771 1390.64 458.411 1389.88 458.938 1387.66C455.772 1387.14 452.165 1386.88 447.721 1386.88C439.626 1386.88 434.122 1388.26 431.031 1389.91C428.921 1391.03 428.518 1391.87 428.449 1392.25C428.609 1392.43 428.959 1392.74 429.674 1393.14C431.719 1394.3 435.614 1395.44 441.48 1395.44V1405.44L440.831 1405.44C427.277 1405.27 418.44 1400.04 418.44 1392.48C418.441 1382.88 429.721 1376.88 447.721 1376.88L449.357 1376.89ZM360.12 1253.52C360.12 1258.8 359.4 1263.84 356.04 1278.72C347.4 1319.04 345 1336.32 345 1359.84C345 1379.76 348.36 1399.44 353.4 1410.72C357.12 1418.86 361.741 1422.94 367.263 1423.19L367.801 1423.2C374.521 1423.2 379.32 1417.92 379.32 1410.72C379.32 1409.04 379.08 1406.64 378.84 1404.24C378.63 1400.88 378.42 1398.81 378.371 1397.05L378.36 1396.32C378.36 1388.88 381.24 1372.56 386.04 1354.56L393.96 1324.08L391.32 1323.36C384.84 1336.32 382.92 1340.16 377.16 1352.4C371.4 1364.88 369.721 1368.24 365.641 1375.92C363.721 1368.72 363 1362 363 1352.88C363 1336.08 367.08 1315.44 373.32 1300.08C375.72 1294.32 378.841 1288.32 382.681 1281.6C386.055 1275.75 386.899 1273.49 386.991 1269.86L387 1269.12C387 1262.61 382.496 1253.62 374.796 1244.78L374.04 1243.92C366.6 1235.52 360.6 1231.68 352.681 1230C358.44 1239.6 360.12 1245.36 360.12 1253.52Z" fill="#FFFAFA"/>
</g>
<g filter="url(#filter7_d_3_41)">
<path d="M481.501 1142.3C480.819 1125.46 480.534 1115.99 480.474 1105.01L480.461 1100.18V1079.38C484.881 1086.92 486.961 1090.04 491.121 1094.72C501.781 1106.68 515.821 1117.6 530.641 1125.66C543.64 1132.68 565.74 1140.74 571.981 1140.74C574.321 1140.74 574.581 1140.22 576.661 1133.72C580.301 1122.54 584.981 1116.82 594.601 1111.88L594.861 1109.02C557.941 1107.2 536.101 1103.56 512.961 1094.72C500.481 1090.04 492.941 1085.36 483.841 1076.78H584.201L584.487 1076.77C585.794 1076.72 586.677 1076.28 586.789 1075.62L586.801 1075.48C586.801 1075.03 586.602 1074.57 585.856 1073.77L585.501 1073.4C573.801 1064.04 569.901 1061.18 557.941 1052.08C549.362 1060.14 546.761 1062.74 538.441 1071.32H480.461V1061.7C487.262 1059.43 489.671 1058.14 489.815 1055.94L489.821 1055.72C489.821 1052.86 486.181 1051.82 469.021 1050.78C465.381 1050.52 459.661 1050 452.381 1049.48C453.161 1057.02 453.421 1060.92 453.421 1065.6V1071.32H374.901C364.501 1071.32 360.081 1070.8 352.801 1069.24L354.101 1078.6C360.601 1077.3 365.541 1076.78 374.641 1076.78H432.881C425.341 1086.4 415.721 1095.76 403.501 1105.64C386.601 1119.42 372.041 1128.26 345.001 1141.52L345.781 1144.38C369.701 1138.66 382.961 1134.24 399.601 1126.96C421.441 1117.08 434.961 1108.24 453.421 1091.34V1105.38C453.421 1118.38 453.161 1126.96 452.381 1143.08C452.381 1148.2 453.524 1149.2 461.808 1149.31L463.561 1149.32C477.666 1149.32 481.279 1148.1 481.491 1142.82L481.501 1142.3ZM425.872 1054.8C425.536 1055.75 425.075 1056.73 424.445 1057.7C423.446 1059.23 422.239 1060.41 420.97 1061.32H443.326C443.242 1059.45 443.094 1057.4 442.855 1054.8H425.872ZM486.527 1028.28C486.389 1028.63 486.233 1028.98 486.057 1029.34H504.464C504.321 1028.98 504.199 1028.63 504.095 1028.28H486.527ZM513.481 988.12V1012.82H477.601V988.12H513.481ZM487.601 1002.82H503.481V998.12H487.601V1002.82ZM496.391 965.588C496.232 967.427 495.664 969.464 494.355 971.419C494.054 971.868 493.734 972.28 493.404 972.66H503.396C503.337 970.243 503.249 968.044 503.127 965.605C501.965 965.614 500.737 965.62 499.441 965.62C498.388 965.62 497.365 965.613 496.391 965.588ZM440.457 964.88C439.084 965.112 437.57 965.271 435.93 965.381C435.372 968.579 433.657 970.966 431.804 972.66H440.661C440.597 969.024 440.541 966.845 440.457 964.88ZM453.521 947.731C459.805 948.343 465.326 948.834 468.984 949.307C473.137 949.607 476.76 949.949 479.833 950.409C479.876 949.261 479.908 948.281 479.938 947.42H453.517C453.518 947.523 453.519 947.627 453.521 947.731ZM397.907 947.42C400.697 947.663 403.242 947.889 405.563 948.101C405.571 947.869 405.581 947.642 405.589 947.42H397.907ZM440.821 998.12H426.761V1029.34H441.603C440.77 1027.11 440.641 1024.87 440.578 1023.81C440.562 1023.53 440.557 1023.26 440.564 1022.98C440.821 1012.17 440.821 1007.83 440.821 1000.6V998.12ZM499.821 1055.72C499.821 1057.59 499.427 1059.5 498.547 1061.32H534.214C536.708 1058.76 538.691 1056.75 540.656 1054.8H499.788C499.81 1055.11 499.821 1055.41 499.821 1055.72ZM450.817 1005.67C450.804 1010.5 450.756 1015.03 450.561 1023.22C450.804 1027.36 451.506 1028.08 459.09 1028.15L460.701 1028.16C474.481 1028.16 477.341 1027.12 477.601 1022.7V1018.28H513.481V1023.74L513.485 1024.05C513.564 1026.95 514.85 1027.57 521.407 1027.63L522.841 1027.64C531.941 1027.64 537.921 1026.6 539.221 1025.04C539.903 1024.36 540.188 1023.48 540.248 1021.87L540.261 1021.14C540.261 1013.6 540.001 1002.68 540.001 988.12H589.141C590.603 988.12 591.609 987.663 591.729 986.963L591.741 986.82C591.741 986.365 591.542 985.91 590.795 985.106L590.441 984.74C580.302 975.38 576.921 972.52 566.001 963.94C558.981 972 556.641 974.34 549.881 982.66H540.261V969.66C547.061 967.645 549.226 966.606 549.355 964.888L549.361 964.72C549.361 961.34 544.161 960.3 512.701 957.44C513.221 966.8 513.481 970.96 513.481 980.58V982.66H477.601V969.4C484.401 967.637 486.322 966.606 486.436 964.652L486.441 964.46C486.441 961.6 482.54 960.299 467.981 959.259C464.081 958.739 457.841 958.22 450.041 957.44C450.561 965.5 450.561 965.5 450.821 982.66H416.761V968.88C423.781 966.8 426.121 965.24 426.121 963.16C426.121 960.04 425.08 959.78 388.681 956.66C389.721 966.28 389.981 969.14 389.981 982.66H369.961C363.461 982.66 356.961 981.88 349.942 980.32L351.241 989.68C357.221 988.64 362.681 988.12 369.701 988.12H389.981C389.461 1026.86 389.461 1026.86 388.681 1050C388.681 1054.14 390.052 1055.09 396.65 1055.19L398.041 1055.2C413.901 1055.2 416.761 1054.16 416.761 1049.22V1044.8H579.001L579.333 1044.79C580.84 1044.74 581.736 1044.28 581.849 1043.43L581.861 1043.24C581.861 1042.72 581.601 1042.2 580.561 1041.16C569.641 1032.06 566.261 1029.46 554.821 1021.4C547.021 1029.2 544.681 1031.54 537.141 1039.34H416.761V988.12H450.821L450.817 1005.67ZM453.421 913.759C453.421 910.9 449.26 909.86 433.661 908.56C429.761 908.3 423.521 907.78 415.461 907C415.981 913.5 415.981 916.36 415.981 924.42V931.96H372.561C365.281 931.96 358.781 931.439 351.241 929.88L352.801 939.24C360.601 937.68 364.241 937.42 372.561 937.42H415.981C415.721 942.62 415.721 944.7 415.461 950.94C415.461 955.1 416.761 955.62 425.601 955.62C440.94 955.62 443.281 954.84 443.541 950.68C443.541 944.44 443.281 940.02 443.281 937.42H490.081C490.081 942.88 490.081 943.92 489.821 950.94V951.46L489.825 951.792C489.904 954.916 491.197 955.545 497.962 955.613L499.441 955.62C515.821 955.62 517.901 955.1 517.901 950.16C517.641 943.92 517.641 941.32 517.641 937.42H587.061C589.011 937.42 590.047 936.963 590.169 936.048L590.181 935.86C590.181 935.373 589.953 934.656 589.067 933.712L588.881 933.52C577.181 923.9 573.281 921.04 561.061 911.94C553.261 920.26 550.661 922.86 542.601 931.96H517.641V919.74C524.441 917.977 527.338 916.214 527.513 914.214L527.521 914.02C527.521 911.16 523.621 910.12 507.501 908.56C503.601 908.3 496.841 907.78 489.301 907C490.081 914.28 490.341 916.62 490.341 924.16L490.081 929.36V931.96H443.281C443.281 925.98 443.281 925.72 443.541 919.48C451.341 917.14 453.421 915.839 453.421 913.759ZM463.421 913.759C463.421 916.145 462.762 918.667 461.156 920.952C460.904 921.31 460.639 921.645 460.368 921.96H480.331C480.283 916.626 480.035 914.384 479.358 908.065C479.036 905.065 480.087 902.08 482.217 899.942C484.347 897.804 487.329 896.743 490.33 897.053C497.728 897.819 504.364 898.328 508.166 898.582C508.265 898.588 508.365 898.597 508.464 898.606C516.338 899.368 522.222 900.077 526.179 901.152C528.1 901.674 530.813 902.589 533.13 904.555C536.081 907.06 537.521 910.495 537.521 914.02C537.521 917.42 536.23 920.028 534.627 921.96H538.116C544.114 915.265 547.064 912.249 553.766 905.1L554.098 904.762C557.599 901.362 563.081 900.977 567.033 903.92C577.756 911.904 582.2 915.18 591.109 922.423L595.233 925.796L595.6 926.114C595.72 926.223 595.838 926.334 595.952 926.449C598.082 928.579 600.181 931.753 600.181 935.86C600.181 937.87 599.65 940.075 598.307 942.089C597.005 944.042 595.319 945.251 593.873 945.974C591.264 947.279 588.611 947.42 587.061 947.42H527.802C527.818 947.87 527.837 948.343 527.857 948.841C535.492 949.624 540.961 950.318 544.778 951.077C547.529 951.624 550.741 952.429 553.392 954.1C554.835 955.01 556.415 956.362 557.609 958.342C557.885 958.027 558.17 957.705 558.46 957.372C561.958 953.355 567.991 952.786 572.179 956.077C581.907 963.721 585.867 966.997 593.634 974.093L597.224 977.392L597.512 977.669C598.657 978.814 601.741 981.903 601.741 986.82C601.741 992.463 597.794 995.559 595.498 996.707C593.188 997.862 590.849 998.12 589.141 998.12H550.04C550.064 1001.35 550.097 1004.36 550.13 1007.14C550.152 1009.03 550.174 1010.83 550.193 1012.53C553.439 1010.84 557.454 1011.02 560.58 1013.23C570.789 1020.42 574.817 1023.43 583.114 1030.28L586.963 1033.48L587.305 1033.78C587.416 1033.88 587.525 1033.98 587.632 1034.09C588.777 1035.23 591.861 1038.32 591.861 1043.24C591.861 1047.95 589.1 1051.48 585.819 1053.23C583.215 1054.62 580.576 1054.8 579.001 1054.8H578.024C580.964 1057.06 583.908 1059.36 587.652 1062.33L591.748 1065.59L591.962 1065.77C592.173 1065.95 592.377 1066.13 592.572 1066.33C593.718 1067.47 596.801 1070.56 596.801 1075.48C596.801 1081.12 592.853 1084.22 590.558 1085.37C588.247 1086.52 585.91 1086.78 584.201 1086.78H520.32C540.743 1094.09 561.068 1097.34 595.354 1099.03C598.074 1099.17 600.623 1100.4 602.409 1102.46C604.196 1104.52 605.067 1107.21 604.82 1109.93L604.56 1112.78C604.25 1116.2 602.216 1119.21 599.169 1120.78C595.203 1122.81 592.846 1124.7 591.118 1126.8C589.35 1128.96 587.762 1131.93 586.17 1136.82C585.669 1138.38 585.203 1139.82 584.769 1141C584.368 1142.1 583.751 1143.67 582.783 1145.15C581.624 1146.92 579.802 1148.8 577.036 1149.88C574.76 1150.76 572.649 1150.74 571.981 1150.74C568.941 1150.74 565.234 1149.88 562.07 1149.01C558.581 1148.06 554.557 1146.74 550.419 1145.23C542.187 1142.22 532.939 1138.27 525.89 1134.46C525.881 1134.45 525.872 1134.45 525.863 1134.44C513.084 1127.49 500.815 1118.53 490.504 1108.51C490.602 1117.94 490.889 1126.98 491.493 1141.9C491.499 1142.03 491.501 1142.16 491.501 1142.3C491.501 1144.57 491.194 1147.77 489.366 1150.88C487.405 1154.21 484.473 1156.16 481.626 1157.27C478.995 1158.3 476.114 1158.75 473.397 1158.99C470.588 1159.24 467.297 1159.32 463.561 1159.32C461.054 1159.32 458.673 1159.28 456.604 1159.06C454.666 1158.86 451.941 1158.41 449.363 1156.96C446.244 1155.21 444.235 1152.51 443.238 1149.48C442.431 1147.02 442.381 1144.58 442.381 1143.08C442.381 1142.92 442.385 1142.76 442.393 1142.6C443.006 1129.92 443.291 1122.01 443.384 1112.92C431.264 1122.22 419.505 1128.93 403.723 1136.07C403.685 1136.09 403.647 1136.11 403.609 1136.12C386.324 1143.68 372.483 1148.28 348.107 1154.11C342.855 1155.36 337.554 1152.22 336.133 1147.01L335.354 1144.15C334.092 1139.52 336.292 1134.65 340.598 1132.54C367.226 1119.48 381.068 1111.03 397.182 1097.89L397.214 1097.86C401.907 1094.07 406.157 1090.39 410.012 1086.78H374.641C366.101 1086.78 361.826 1087.25 356.063 1088.41C353.361 1088.95 350.556 1088.35 348.31 1086.75C346.064 1085.16 344.575 1082.7 344.196 1079.98L342.897 1070.62C342.448 1067.38 343.604 1064.14 345.993 1061.92C348.383 1059.69 351.706 1058.78 354.897 1059.46C361.389 1060.85 365.097 1061.32 374.901 1061.32H383.202C381.656 1059.95 380.474 1058.24 379.718 1056.28C378.779 1053.85 378.681 1051.49 378.681 1050C378.681 1049.89 378.683 1049.77 378.687 1049.66C379.389 1028.83 379.453 1026.89 379.843 998.12H369.701C363.264 998.12 358.377 998.589 352.954 999.532C350.283 999.996 347.537 999.356 345.347 997.758C343.156 996.16 341.709 993.741 341.336 991.055L340.036 981.696C339.586 978.451 340.753 975.191 343.161 972.969C345.569 970.748 348.912 969.848 352.11 970.558C358.524 971.983 364.291 972.66 369.961 972.66H379.887C379.745 967.181 379.418 964.008 378.739 957.735C378.418 954.764 379.443 951.804 381.532 949.668C382.491 948.687 383.63 947.93 384.867 947.42H372.561C364.758 947.42 361.791 947.64 354.762 949.046C352.106 949.577 349.349 949.009 347.12 947.47C344.891 945.932 343.382 943.555 342.937 940.883L341.377 931.524C340.835 928.271 341.932 924.959 344.309 922.673C346.686 920.386 350.037 919.419 353.267 920.088C360.029 921.487 365.838 921.96 372.561 921.96H405.977C405.971 915.802 405.926 913.207 405.493 907.798C405.257 904.848 406.34 901.945 408.449 899.87C410.559 897.795 413.479 896.762 416.424 897.047C423.433 897.725 429.003 898.2 432.806 898.476L434.326 898.582L434.491 898.594C442.126 899.231 447.945 899.863 451.915 900.899C453.842 901.402 456.543 902.284 458.87 904.193C461.816 906.61 463.421 910.046 463.421 913.759Z" fill="#FFFAFA"/>
</g>
<g filter="url(#filter8_d_3_41)">
<path d="M553 746.5C553 744.94 552.22 743.9 549.88 741.82C540.26 734.54 537.4 732.46 527 725.961C520.24 732.721 518.16 734.8 511.4 741.82H411.82C398.04 734.54 393.62 732.2 379.32 725.7C380.1 739.48 380.36 747.54 380.36 772.5C380.36 789.66 380.36 795.12 379.32 820.08C379.563 825.199 380.493 825.976 389.177 826.053L391.02 826.06C399.835 826.06 405.967 825.084 408.233 823.605L408.44 823.461C409.415 822.73 409.933 821.541 409.994 819.681L410 819.301V807.08H513.48V820.341C513.724 824.484 515.11 825.657 521.495 825.788L522.84 825.801C530.38 825.801 538.18 825.02 540.52 823.98C543.38 822.94 544.16 821.38 544.16 818C543.38 804.22 543.38 797.98 543.12 754.56C551.179 750.027 552.896 748.665 552.995 746.693L553 746.5ZM513.48 747.28V801.62H410V747.28H513.48ZM420 791.62H503.48V757.28H420V791.62ZM397.599 723.22C402.785 725.758 407.356 728.155 414.297 731.82H507.158C510.446 728.423 512.614 726.218 515.602 723.22H397.599ZM520.76 584C512.44 592.32 509.84 594.92 501.78 604.02H396.74C389.72 604.02 384.26 603.5 376.72 601.94L378.28 611.04C384.52 609.74 389.46 609.48 396.74 609.48H546.76C548.58 609.48 549.88 608.7 549.88 607.66C549.88 607.205 549.68 606.551 548.934 605.524L548.579 605.06C536.88 595.7 533.24 592.84 520.76 584ZM551.18 711.14C551.18 710.62 550.66 709.84 549.62 708.54C537.4 699.18 533.76 696.32 521.02 687.48C512.96 696.06 510.62 698.661 502.56 707.761H396.74C389.46 707.761 385.04 707.24 377.24 705.94L378.8 714.78C385.56 713.74 390.5 713.221 396.74 713.22H547.8L548.181 713.211C549.976 713.123 551.103 712.409 551.176 711.261L551.18 711.14ZM551.7 676.301C551.7 675.716 551.407 675.277 550.823 674.546L550.14 673.7C538.18 664.34 534.28 661.48 521.8 652.64C513.74 661.22 511.139 663.821 503.079 672.921H397.78C391.54 672.921 385.04 672.141 377.5 670.841L379.32 679.94C386.86 678.64 391.02 678.381 397.78 678.381H548.06L548.444 678.371C550.266 678.283 551.608 677.569 551.696 676.421L551.7 676.301ZM583.16 641.72C583.16 641.233 582.703 640.289 581.575 639.101L581.34 638.86C569.38 628.72 565.74 625.86 552.74 616.5C543.9 625.6 541.04 628.461 532.46 638.341H367.1C358.78 638.341 353.32 637.82 345 636.261L346.56 645.36C355.14 644.06 358.78 643.801 367.1 643.801H579.26L579.69 643.791C581.719 643.703 583.068 642.989 583.156 641.841L583.16 641.72ZM593.16 641.72C593.159 647.2 589.59 650.607 586.728 652.106C584.095 653.485 581.337 653.801 579.26 653.801H540.575C544.201 656.466 547.581 659.036 552.11 662.554L556.303 665.825L556.529 666.008C557.049 666.44 557.525 666.924 557.949 667.453C558.055 667.585 558.157 667.712 558.27 667.851C558.375 667.981 558.507 668.143 558.631 668.299C558.859 668.583 559.247 669.074 559.63 669.648C560.524 670.989 561.7 673.243 561.7 676.301C561.699 681.693 558.232 685.075 555.479 686.59C552.892 688.013 550.166 688.381 548.06 688.381H539.57C544.387 691.912 548.638 695.192 555.701 700.601C556.343 701.093 556.924 701.662 557.429 702.294C557.979 702.981 558.702 703.908 559.307 704.891C559.72 705.563 561.18 707.925 561.18 711.14C561.18 715.744 558.618 719.286 555.485 721.201C552.767 722.862 549.886 723.22 547.8 723.22H541.258C545.056 725.751 548.103 727.964 552.527 731.289L555.914 733.846L556.224 734.091C556.325 734.174 556.426 734.259 556.524 734.346C558.705 736.285 563 740.025 563 746.5C563 748.452 562.59 750.68 561.327 752.909C560.201 754.895 558.716 756.31 557.512 757.295C556.336 758.257 554.866 759.244 553.155 760.293C553.383 798.604 553.417 804.592 554.144 817.435C554.155 817.623 554.16 817.812 554.16 818C554.16 820.157 553.979 823.616 552.039 826.925C549.968 830.459 546.864 832.257 544.273 833.251C542.653 833.925 540.913 834.301 539.662 834.534C538.133 834.819 536.415 835.048 534.645 835.228C531.097 835.59 526.922 835.801 522.84 835.801C520.805 835.801 518.758 835.735 516.87 835.475C515.033 835.223 512.629 834.699 510.315 833.321C504.434 829.82 503.671 823.872 503.497 820.928C503.486 820.732 503.48 820.536 503.48 820.341V817.08H420V819.301C420 822.897 419.066 827.991 414.44 831.461C412.603 832.838 410.586 833.608 409.088 834.074C407.457 834.581 405.685 834.952 403.883 835.229C400.274 835.784 395.903 836.06 391.02 836.06C388.434 836.06 386.027 836.032 383.987 835.857C382.1 835.695 379.397 835.338 376.823 834.025C373.626 832.394 371.499 829.77 370.396 826.732C369.531 824.349 369.397 821.925 369.331 820.555C369.317 820.258 369.316 819.961 369.329 819.664C370.362 794.858 370.36 789.538 370.36 772.5C370.36 747.663 370.102 739.801 369.336 726.265C369.223 724.264 369.714 722.313 370.696 720.639C369.836 719.452 369.224 718.057 368.953 716.518L367.392 707.678C366.828 704.482 367.851 701.21 370.135 698.903C372.42 696.597 375.682 695.542 378.884 696.076C386.356 697.321 390.193 697.761 396.74 697.761H498.066C501.444 693.957 503.786 691.342 506.511 688.381H397.78C391.519 688.381 387.933 688.603 381.019 689.795C375.679 690.715 370.577 687.215 369.514 681.901L367.694 672.802C367.047 669.569 368.036 666.226 370.335 663.864C372.635 661.502 375.95 660.426 379.199 660.986C386.489 662.243 392.356 662.921 397.78 662.921H498.595C501.917 659.212 504.313 656.623 506.965 653.801H437.033H367.1C359.281 653.801 356.141 654.023 348.058 655.248C342.672 656.064 337.624 652.418 336.704 647.05L335.144 637.95C334.591 634.724 335.651 631.431 337.984 629.135C340.316 626.838 343.626 625.828 346.843 626.431C354.574 627.881 359.417 628.341 367.1 628.341H527.918C531.076 624.753 533.474 622.123 535.967 619.48H396.74C389.768 619.48 385.6 619.73 380.32 620.83C377.663 621.383 374.895 620.834 372.652 619.306C370.409 617.779 368.883 615.405 368.424 612.73L366.864 603.63C366.305 600.371 367.393 597.046 369.771 594.749C372.149 592.451 375.509 591.477 378.746 592.147C385.615 593.568 390.396 594.02 396.74 594.02H497.296C503.366 587.254 506.404 584.215 513.689 576.929L514.018 576.615C517.473 573.458 522.688 573.111 526.54 575.84C537.64 583.702 541.937 586.971 550.744 593.99L554.827 597.252L555.04 597.428C555.533 597.845 555.985 598.309 556.389 598.813C557.896 600.697 559.88 603.71 559.88 607.66C559.88 608.209 559.84 608.737 559.771 609.243C570.46 616.953 574.856 620.333 583.602 627.681L587.807 631.232L588.115 631.505C588.215 631.597 588.315 631.692 588.412 631.789C589.504 632.881 590.511 634.102 591.313 635.438C591.916 636.443 593.16 638.734 593.16 641.72Z" fill="#FFFAFA"/>
</g>
<g filter="url(#filter9_d_3_41)">
<path d="M454.2 363.561C454.2 354.201 451.56 347.72 443.16 337.88C447.72 337.4 449.64 337.4 452.76 337.4C494.04 337.4 519 361.88 519 402.92L518.994 404.076C518.75 428.299 510.829 449.03 495 466.04L494.322 466.768C480.036 481.969 462.199 492.324 436.92 500.12L437.88 503.48C463.08 500.12 478.439 496.04 493.319 489.08C527.576 473.251 546.716 446.027 547.306 411.986L547.319 410.36C547.319 362.84 509.16 329 455.64 329C419.88 329 385.8 343.88 365.16 368.36C352.68 383 345 401.24 345 416.36L345.011 417.284C345.227 426.856 348.779 436.985 354.359 443.96C361.319 452.6 363.24 455.96 364.68 461.72C366.84 470.6 368.28 473.961 370.2 477.561C372.758 481.513 377.568 484.339 382.666 484.512L383.16 484.521C394.973 484.52 408.646 471.729 423.95 446.605L424.68 445.4C441.69 416.814 453.816 383.809 454.19 364.471L454.2 363.561ZM438.359 338.6C438.599 338.6 439.799 341.96 440.279 343.88C440.999 346.04 441.24 349.16 441.24 351.8C441.24 362.36 434.04 382.28 422.04 404.84C406.44 434.36 390.6 454.28 382.68 454.28L382.297 454.268C374.266 453.747 366.359 436.981 366.359 420.68C366.359 400.52 375.48 380.12 392.04 363.561C405.96 349.881 418.92 342.92 438.359 338.6ZM376.359 420.68C376.359 427.475 378.069 434.385 380.463 439.338C381.374 441.223 382.267 442.578 383.003 443.47C383.195 443.325 383.408 443.161 383.64 442.971C385.725 441.262 388.438 438.446 391.655 434.403C398.049 426.37 405.582 414.581 413.198 400.168L413.211 400.144C419.042 389.18 423.632 378.998 426.736 370.418C429.935 361.577 431.24 355.291 431.24 351.8C431.24 351.461 431.233 351.134 431.224 350.82C418.605 354.779 409.256 360.665 399.065 370.676C384.101 385.66 376.359 403.596 376.359 420.68ZM464.2 363.561C464.2 374.877 460.689 389.36 455.323 404.191C449.882 419.234 442.227 435.466 433.273 450.514C433.265 450.528 433.257 450.542 433.248 450.557C425.221 463.893 417.297 474.532 409.434 481.953C401.71 489.242 392.871 494.52 383.16 494.521C374.457 494.521 366.27 489.894 361.804 482.992C361.651 482.756 361.508 482.514 361.376 482.266C358.969 477.752 357.273 473.567 354.979 464.146L354.808 463.481C353.944 460.239 352.83 458.001 346.572 450.233C346.565 450.225 346.558 450.216 346.551 450.207C339.286 441.126 335 428.328 335 416.36C335 398.279 343.951 377.843 357.515 361.914L358.592 360.656C381.437 334.419 417.9 319 455.64 319C513.524 319 557.319 356.227 557.319 410.36C557.319 449.567 535.369 480.667 497.515 498.158L497.514 498.157C481.397 505.69 464.952 509.959 439.201 513.393C434.283 514.048 429.628 510.998 428.265 506.228L427.305 502.867C425.81 497.635 428.773 492.168 433.973 490.564C458.409 483.028 474.727 473.258 487.651 459.257C487.66 459.247 487.67 459.237 487.679 459.228C501.916 443.927 509 425.294 509 402.92C509 384.445 503.425 370.858 494.336 361.888C486.69 354.343 475.738 349.255 461.373 347.816C463.453 353.03 464.2 358.121 464.2 363.561Z" fill="#FFFAFA"/>
</g>
<g filter="url(#filter10_d_3_41)">
<path d="M571.982 157.42C571.982 155.86 571.202 154.82 568.603 152.74C559.503 146.5 556.643 144.42 546.503 137.66C540.003 143.9 537.923 145.98 531.683 152.74H470.322C471.622 146.76 471.883 144.16 473.183 135.84C480.723 133.5 483.322 131.68 483.322 129.08C483.322 125.7 482.542 125.701 442.242 121.021C442.762 125.18 443.022 126.741 443.022 129.601C443.022 135.321 441.983 143.381 440.163 152.74H377.503C367.883 152.74 359.823 151.96 351.503 150.401L353.063 159.76C362.943 158.46 368.143 158.2 377.503 158.2H438.862C434.962 174.32 427.682 188.1 417.022 200.58C399.863 220.6 379.323 233.08 345.003 245.3L346.043 248.42C361.642 245.82 368.143 244.52 377.242 242.441C397.002 237.761 413.902 230.22 428.202 220.08C448.742 205 462.002 184.98 469.022 158.2H534.543C533.243 177.7 530.123 195.381 526.223 206.561L525.7 208.085C523.148 215.298 521.38 216.441 515.043 216.441V206.441C515.26 206.441 515.457 206.435 515.636 206.432C515.925 205.729 516.282 204.758 516.735 203.398C516.75 203.354 516.765 203.31 516.78 203.267C519.599 195.187 522.117 182.734 523.649 168.2H476.534C472.391 181.231 466.684 192.782 459.295 202.985C460.235 202.801 461.217 202.75 462.218 202.85C482.951 204.923 506.463 206.441 515.043 206.441V216.441L514.147 216.436C504.45 216.342 481.373 214.815 461.223 212.8L460.702 216.441C491.122 224.76 493.983 225.8 499.442 231.26C502.562 234.38 503.863 236.98 504.383 242.7C504.643 245.3 505.423 246.08 508.022 246.08C520.564 246.08 536.128 241.797 542.564 236.455L542.862 236.2C551.442 228.66 555.602 214.1 562.362 164.96C570.942 160.54 571.982 159.76 571.982 157.42ZM449.782 73.1798V111.401H404.022V73.1798H449.782ZM527.522 73.1798V111.401H477.603V73.1798H527.522ZM487.603 101.401H517.522V83.1798H487.603V101.401ZM414.022 101.401H439.782V83.1798H414.022V101.401ZM449.782 30.5402V67.7198H404.022V30.5402H449.782ZM527.522 30.5402V67.7198H477.603V30.5402H527.522ZM487.603 57.7198H517.522V40.5402H487.603V57.7198ZM414.022 57.7198H439.782V40.5402H414.022V57.7198ZM563.663 28.9806C563.663 27.6806 562.883 26.3805 560.543 24.5607C551.703 18.0607 548.843 16.2401 539.223 10.0001C533.243 16.2401 531.162 18.3202 525.442 25.0802H406.883C393.363 18.0602 388.942 15.9801 374.902 10.0001C375.682 28.9801 375.942 36.5202 375.942 54.4601C375.942 83.3199 375.682 104.9 374.902 126.22C374.902 131.42 376.723 132.46 385.822 132.46C392.371 132.46 398.92 131.484 401.687 130.005L401.942 129.86C403.242 128.82 404.022 127.52 404.022 124.92V116.86H527.522V125.96C527.766 129.86 529.153 131.018 535.109 131.148L536.362 131.16C550.719 131.16 555.56 129.696 556.085 124.877L556.123 124.401C555.928 111.726 555.441 93.347 555.209 84.84L555.083 80.2003L555.343 50.8204V36.7804C561.387 33.5062 563.528 31.4518 563.656 29.1993L563.663 28.9806ZM493.322 129.08C493.322 134.746 490.027 138.588 486.666 140.852C485.633 141.547 484.491 142.171 483.272 142.74H527.324C528.039 141.977 528.703 141.273 529.339 140.606C527.791 140.29 526.003 139.74 524.263 138.695C518.737 135.38 517.784 129.888 517.563 126.86H493.177C493.338 127.974 493.322 128.834 493.322 129.08ZM573.663 28.9806C573.663 33.7472 571.298 37.3014 568.73 39.7404C567.729 40.6919 566.584 41.5835 565.343 42.4337V50.8204C565.343 50.8497 565.342 50.879 565.342 50.9083L565.083 80.2003L565.205 84.5675C565.281 87.3333 565.385 91.2442 565.502 95.8048C565.73 104.714 565.99 115.742 566.121 124.246C566.124 124.464 566.121 124.682 566.11 124.9C565.969 127.722 565.154 130.998 562.797 133.924C562.315 134.522 561.8 135.06 561.267 135.55C563.732 137.234 565.894 138.729 568.427 140.479L574.258 144.493L574.558 144.707C574.656 144.78 574.754 144.855 574.85 144.932C576.201 146.013 577.981 147.504 579.355 149.394C581.115 151.814 581.982 154.522 581.982 157.42C581.982 158.74 581.847 160.961 580.661 163.374C579.516 165.704 577.862 167.264 576.543 168.293C575.235 169.314 573.53 170.339 571.559 171.419C568.493 193.18 565.867 208.208 562.936 218.839C559.747 230.4 555.861 238.09 549.464 243.712C549.459 243.717 549.453 243.721 549.447 243.726C544.639 247.933 537.389 250.896 530.595 252.813C523.501 254.813 515.434 256.08 508.022 256.08C506.266 256.08 501.984 255.953 498.472 252.648C495.068 249.444 494.592 245.285 494.433 243.695C494.43 243.666 494.427 243.635 494.424 243.606C494.214 241.302 493.91 240.428 493.749 240.067C493.634 239.808 493.41 239.37 492.371 238.331C491.208 237.168 490.556 236.618 489.863 236.162C489.15 235.692 488.041 235.094 485.87 234.267C481.238 232.501 473.496 230.307 458.064 226.086C453.203 224.756 450.09 220.016 450.803 215.026L451.089 213.021C446.04 218.505 440.393 223.536 434.121 228.141C434.077 228.173 434.032 228.206 433.987 228.237C418.535 239.195 400.426 247.226 379.547 252.171C379.522 252.177 379.496 252.183 379.471 252.189C370.127 254.324 363.424 255.661 347.687 258.284C342.833 259.093 338.112 256.25 336.556 251.582L335.516 248.463C333.794 243.299 336.52 237.706 341.648 235.88C375.015 224 393.801 212.306 409.43 194.072C416.25 186.086 421.495 177.59 425.229 168.2H377.503C368.523 168.2 363.762 168.439 354.367 169.675C349.024 170.378 344.084 166.72 343.198 161.404L341.639 152.044C341.102 148.823 342.171 145.543 344.503 143.258C346.835 140.973 350.136 139.97 353.346 140.571C361.041 142.014 368.483 142.74 377.503 142.74H431.766C432.602 137.314 433.022 132.857 433.022 129.601C433.022 128.574 432.987 127.857 432.884 126.86H413.934C413.773 128.578 413.372 130.372 412.561 132.142C411.396 134.683 409.727 136.439 408.189 137.669C407.84 137.949 407.472 138.205 407.088 138.436C404.025 140.274 400.033 141.141 397.014 141.621C393.582 142.167 389.673 142.46 385.822 142.46C383.439 142.46 381.127 142.397 379.054 142.142C377.065 141.897 374.462 141.387 371.988 139.973C369.128 138.338 367.089 135.876 365.974 132.92C365.019 130.391 364.902 127.908 364.902 126.22C364.902 126.098 364.905 125.976 364.909 125.855C365.683 104.708 365.942 83.2632 365.942 54.4601C365.942 36.7103 365.688 29.32 364.911 10.4113C364.77 6.98383 366.396 3.72254 369.218 1.77258C372.04 -0.177368 375.665 -0.544303 378.821 0.799924C392.312 6.54598 397.204 8.81831 409.313 15.0802H520.848C524.749 10.5952 527.158 8.13682 532.003 3.08117L532.319 2.76477C535.654 -0.419472 540.763 -0.919529 544.664 1.61047C553.119 7.09481 556.517 9.2715 563.318 14.2032L566.467 16.504L566.682 16.6671C569.535 18.8866 573.663 22.7836 573.663 28.9806Z" fill="#FFFAFA"/>
</g>
<defs>
<filter id="filter0_d_3_41" x="144" y="1177" width="96.1992" height="96.46" filterUnits="userSpaceOnUse" color-interpolation-filters="sRGB">
<feFlood flood-opacity="0" result="BackgroundImageFix"/>
<feColorMatrix in="SourceAlpha" type="matrix" values="0 0 0 0 0 0 0 0 0 0 0 0 0 0 0 0 0 0 127 0" result="hardAlpha"/>
<feOffset dx="6" dy="6"/>
<feComposite in2="hardAlpha" operator="out"/>
<feColorMatrix type="matrix" values="0 0 0 0 0 0 0 0 0 0 0 0 0 0 0 0 0 0 1 0"/>
<feBlend mode="normal" in2="BackgroundImageFix" result="effect1_dropShadow_3_41"/>
<feBlend mode="normal" in="SourceGraphic" in2="effect1_dropShadow_3_41" result="shape"/>
</filter>
<filter id="filter1_d_3_41" x="37" y="909" width="202.801" height="242.319" filterUnits="userSpaceOnUse" color-interpolation-filters="sRGB">
<feFlood flood-opacity="0" result="BackgroundImageFix"/>
<feColorMatrix in="SourceAlpha" type="matrix" values="0 0 0 0 0 0 0 0 0 0 0 0 0 0 0 0 0 0 127 0" result="hardAlpha"/>
<feOffset dx="6" dy="6"/>
<feComposite in2="hardAlpha" operator="out"/>
<feColorMatrix type="matrix" values="0 0 0 0 0 0 0 0 0 0 0 0 0 0 0 0 0 0 1 0"/>
<feBlend mode="normal" in2="BackgroundImageFix" result="effect1_dropShadow_3_41"/>
<feBlend mode="normal" in="SourceGraphic" in2="effect1_dropShadow_3_41" result="shape"/>
</filter>
<filter id="filter2_d_3_41" x="9" y="574" width="259.22" height="269.36" filterUnits="userSpaceOnUse" color-interpolation-filters="sRGB">
<feFlood flood-opacity="0" result="BackgroundImageFix"/>
<feColorMatrix in="SourceAlpha" type="matrix" values="0 0 0 0 0 0 0 0 0 0 0 0 0 0 0 0 0 0 127 0" result="hardAlpha"/>
<feOffset dx="6" dy="6"/>
<feComposite in2="hardAlpha" operator="out"/>
<feColorMatrix type="matrix" values="0 0 0 0 0 0 0 0 0 0 0 0 0 0 0 0 0 0 1 0"/>
<feBlend mode="normal" in2="BackgroundImageFix" result="effect1_dropShadow_3_41"/>
<feBlend mode="normal" in="SourceGraphic" in2="effect1_dropShadow_3_41" result="shape"/>
</filter>
<filter id="filter3_d_3_41" x="10" y="302" width="257.141" height="260.522" filterUnits="userSpaceOnUse" color-interpolation-filters="sRGB">
<feFlood flood-opacity="0" result="BackgroundImageFix"/>
<feColorMatrix in="SourceAlpha" type="matrix" values="0 0 0 0 0 0 0 0 0 0 0 0 0 0 0 0 0 0 127 0" result="hardAlpha"/>
<feOffset dx="6" dy="6"/>
<feComposite in2="hardAlpha" operator="out"/>
<feColorMatrix type="matrix" values="0 0 0 0 0 0 0 0 0 0 0 0 0 0 0 0 0 0 1 0"/>
<feBlend mode="normal" in2="BackgroundImageFix" result="effect1_dropShadow_3_41"/>
<feBlend mode="normal" in="SourceGraphic" in2="effect1_dropShadow_3_41" result="shape"/>
</filter>
<filter id="filter4_d_3_41" x="0" y="0" width="276.64" height="266.76" filterUnits="userSpaceOnUse" color-interpolation-filters="sRGB">
<feFlood flood-opacity="0" result="BackgroundImageFix"/>
<feColorMatrix in="SourceAlpha" type="matrix" values="0 0 0 0 0 0 0 0 0 0 0 0 0 0 0 0 0 0 127 0" result="hardAlpha"/>
<feOffset dx="6" dy="6"/>
<feComposite in2="hardAlpha" operator="out"/>
<feColorMatrix type="matrix" values="0 0 0 0 0 0 0 0 0 0 0 0 0 0 0 0 0 0 1 0"/>
<feBlend mode="normal" in2="BackgroundImageFix" result="effect1_dropShadow_3_41"/>
<feBlend mode="normal" in="SourceGraphic" in2="effect1_dropShadow_3_41" result="shape"/>
</filter>
<filter id="filter5_d_3_41" x="564.68" y="1360.08" width="100.361" height="98.2815" filterUnits="userSpaceOnUse" color-interpolation-filters="sRGB">
<feFlood flood-opacity="0" result="BackgroundImageFix"/>
<feColorMatrix in="SourceAlpha" type="matrix" values="0 0 0 0 0 0 0 0 0 0 0 0 0 0 0 0 0 0 127 0" result="hardAlpha"/>
<feOffset dx="6" dy="6"/>
<feComposite in2="hardAlpha" operator="out"/>
<feColorMatrix type="matrix" values="0 0 0 0 0 0 0 0 0 0 0 0 0 0 0 0 0 0 1 0"/>
<feBlend mode="normal" in2="BackgroundImageFix" result="effect1_dropShadow_3_41"/>
<feBlend mode="normal" in="SourceGraphic" in2="effect1_dropShadow_3_41" result="shape"/>
</filter>
<filter id="filter6_d_3_41" x="335" y="1220" width="215.601" height="219.2" filterUnits="userSpaceOnUse" color-interpolation-filters="sRGB">
<feFlood flood-opacity="0" result="BackgroundImageFix"/>
<feColorMatrix in="SourceAlpha" type="matrix" values="0 0 0 0 0 0 0 0 0 0 0 0 0 0 0 0 0 0 127 0" result="hardAlpha"/>
<feOffset dx="6" dy="6"/>
<feComposite in2="hardAlpha" operator="out"/>
<feColorMatrix type="matrix" values="0 0 0 0 0 0 0 0 0 0 0 0 0 0 0 0 0 0 1 0"/>
<feBlend mode="normal" in2="BackgroundImageFix" result="effect1_dropShadow_3_41"/>
<feBlend mode="normal" in="SourceGraphic" in2="effect1_dropShadow_3_41" result="shape"/>
</filter>
<filter id="filter7_d_3_41" x="335" y="897" width="275.862" height="268.32" filterUnits="userSpaceOnUse" color-interpolation-filters="sRGB">
<feFlood flood-opacity="0" result="BackgroundImageFix"/>
<feColorMatrix in="SourceAlpha" type="matrix" values="0 0 0 0 0 0 0 0 0 0 0 0 0 0 0 0 0 0 127 0" result="hardAlpha"/>
<feOffset dx="6" dy="6"/>
<feComposite in2="hardAlpha" operator="out"/>
<feColorMatrix type="matrix" values="0 0 0 0 0 0 0 0 0 0 0 0 0 0 0 0 0 0 1 0"/>
<feBlend mode="normal" in2="BackgroundImageFix" result="effect1_dropShadow_3_41"/>
<feBlend mode="normal" in="SourceGraphic" in2="effect1_dropShadow_3_41" result="shape"/>
</filter>
<filter id="filter8_d_3_41" x="335" y="574" width="264.16" height="268.06" filterUnits="userSpaceOnUse" color-interpolation-filters="sRGB">
<feFlood flood-opacity="0" result="BackgroundImageFix"/>
<feColorMatrix in="SourceAlpha" type="matrix" values="0 0 0 0 0 0 0 0 0 0 0 0 0 0 0 0 0 0 127 0" result="hardAlpha"/>
<feOffset dx="6" dy="6"/>
<feComposite in2="hardAlpha" operator="out"/>
<feColorMatrix type="matrix" values="0 0 0 0 0 0 0 0 0 0 0 0 0 0 0 0 0 0 1 0"/>
<feBlend mode="normal" in2="BackgroundImageFix" result="effect1_dropShadow_3_41"/>
<feBlend mode="normal" in="SourceGraphic" in2="effect1_dropShadow_3_41" result="shape"/>
</filter>
<filter id="filter9_d_3_41" x="335" y="319" width="228.319" height="200.481" filterUnits="userSpaceOnUse" color-interpolation-filters="sRGB">
<feFlood flood-opacity="0" result="BackgroundImageFix"/>
<feColorMatrix in="SourceAlpha" type="matrix" values="0 0 0 0 0 0 0 0 0 0 0 0 0 0 0 0 0 0 127 0" result="hardAlpha"/>
<feOffset dx="6" dy="6"/>
<feComposite in2="hardAlpha" operator="out"/>
<feColorMatrix type="matrix" values="0 0 0 0 0 0 0 0 0 0 0 0 0 0 0 0 0 0 1 0"/>
<feBlend mode="normal" in2="BackgroundImageFix" result="effect1_dropShadow_3_41"/>
<feBlend mode="normal" in="SourceGraphic" in2="effect1_dropShadow_3_41" result="shape"/>
</filter>
<filter id="filter10_d_3_41" x="335" y="0" width="252.982" height="264.421" filterUnits="userSpaceOnUse" color-interpolation-filters="sRGB">
<feFlood flood-opacity="0" result="BackgroundImageFix"/>
<feColorMatrix in="SourceAlpha" type="matrix" values="0 0 0 0 0 0 0 0 0 0 0 0 0 0 0 0 0 0 127 0" result="hardAlpha"/>
<feOffset dx="6" dy="6"/>
<feComposite in2="hardAlpha" operator="out"/>
<feColorMatrix type="matrix" values="0 0 0 0 0 0 0 0 0 0 0 0 0 0 0 0 0 0 1 0"/>
<feBlend mode="normal" in2="BackgroundImageFix" result="effect1_dropShadow_3_41"/>
<feBlend mode="normal" in="SourceGraphic" in2="effect1_dropShadow_3_41" result="shape"/>
</filter>
</defs>
</svg>
