<?xml version="1.0" encoding="UTF-8"?>
<svg id="Layer_1" data-name="Layer 1" xmlns="http://www.w3.org/2000/svg" viewBox="0 0 408 336">
  <path d="M173.41,153.48c-8.96,0-16.29,6.8-16.29,16.26s7.33,16.26,16.29,16.26,16.29-6.88,16.29-16.26-7.32-16.26-16.29-16.26ZM173.33,179.55c-5,0-9.22-4.04-9.22-9.81s4.31-9.81,9.22-9.81,9.22,3.96,9.22,9.81-4.31,9.89-9.22,9.81Z"/>
  <path d="M208.57,153.48c-8.96,0-16.29,6.88-16.29,16.26s7.32,16.26,16.29,16.26,16.29-6.88,16.29-16.26-7.32-16.26-16.29-16.26ZM208.57,179.55c-5,0-9.22-4.04-9.22-9.81s4.31-9.81,9.22-9.81,9.22,3.96,9.22,9.81-4.31,9.89-9.22,9.81Z"/>
  <path d="M251.83,157.1h-.26c-1.55-1.89-4.65-3.61-8.53-3.61-8.1,0-15.6,7.14-15.6,16.34s7.5,16.17,15.6,16.17c3.88,0,6.89-1.72,8.53-3.7h.26v2.32c0,6.28-3.36,9.55-8.7,9.55-4.39,0-7.07-3.1-8.19-5.76l-6.2,2.58c1.72,4.3,6.46,9.55,14.39,9.55,8.44,0,15.51-4.82,15.51-16.86v-29.16l-6.81-.09v2.67ZM243.64,179.64c-4.91,0-9.05-4.13-9.05-9.81s4.14-9.89,9.05-9.89,8.7,4.13,8.7,9.89-3.79,9.81-8.7,9.81Z"/>
  <rect x="262.86" y="137.4" width="6.98" height="47.66"/>
  <path d="M289.05,179.55c-3.7,0-6.29-1.63-7.93-4.9l21.8-9.03-.78-1.81c-1.38-3.61-5.51-10.32-13.96-10.32s-15.34,6.62-15.34,16.26c0,9.12,6.89,16.26,16.11,16.26,7.41,0,11.72-4.56,13.53-7.23l-5.52-3.7c-1.81,2.75-4.31,4.56-7.93,4.47ZM288.45,159.76c2.84,0,5.26,1.38,6.03,3.44l-14.56,6.02c-.17-6.19,4.91-9.46,8.53-9.46Z"/>
  <path d="M157.03,158.71h-24.7v6.92h17.47c-.46,3.8-1.83,6.57-3.93,8.56-2.56,2.42-6.49,5.1-13.54,5.1-10.79,0-19.21-8.21-19.21-18.41s8.42-18.41,19.21-18.41c5.85,0,10.15,2.16,13.26,4.93l5.21-4.93c-4.39-3.98-10.25-7-18.39-7-14.82,0-27.35,11.41-27.35,25.33s12.44,25.33,27.26,25.33c8.05,0,14-2.42,18.75-7.09,4.85-4.58,6.31-10.98,6.31-16.16,0-1.56-.09-2.94-.37-4.15Z"/>
</svg>