<svg width="177" height="169" viewBox="0 0 177 169" fill="none" xmlns="http://www.w3.org/2000/svg">
<path d="M133.731 109.112L139.983 80.1631L88.0954 43.8889L17.9379 71.9863L51.3736 140.306L128.029 135.534L131.016 121.703L156.498 119.883L133.731 109.112Z" fill="white" stroke="black" stroke-width="2" stroke-linecap="round" stroke-linejoin="round"/>
<path d="M72.7783 14.663C72.4467 15.471 71.5426 15.8585 70.7309 15.5393C69.921 15.2079 69.5339 14.2932 69.8514 13.4956C70.1708 12.6858 71.0872 12.3001 71.8989 12.6193C72.7106 12.9386 73.0959 13.8654 72.7783 14.663Z" fill="black"/>
<path d="M74.7137 9.84464C74.3943 10.6544 73.4779 11.0402 72.6662 10.7209C71.8546 10.4017 71.4674 9.48702 71.7868 8.67725C72.1062 7.86749 73.0347 7.48355 73.8342 7.80098C74.6459 8.12023 75.0313 9.04702 74.7015 9.84283L74.7137 9.84464Z" fill="black"/>
<path d="M69.6671 18.1764L65.2285 29.2074" stroke="black" stroke-width="2" stroke-linecap="round" stroke-linejoin="round"/>
<path d="M56.2406 11.8357C56.3615 12.6984 55.7705 13.4927 54.906 13.6128C54.0416 13.733 53.2452 13.1427 53.1243 12.28C53.0033 11.4173 53.5943 10.623 54.4588 10.5028C55.3232 10.3827 56.1178 10.9851 56.2406 11.8357Z" fill="black"/>
<path d="M55.5094 6.69602C55.6304 7.55872 55.0393 8.35302 54.1749 8.47317C53.3104 8.59331 52.5141 8.00304 52.3931 7.14033C52.2722 6.27763 52.8632 5.48333 53.7276 5.36318C54.5921 5.24304 55.3866 5.84547 55.5094 6.69602Z" fill="black"/>
<path d="M55.3095 16.4307L56.9975 28.2096" stroke="black" stroke-width="2" stroke-linecap="round" stroke-linejoin="round"/>
<path d="M40.5257 17.64C41.0604 18.3156 40.9386 19.3038 40.2619 19.8369C39.5729 20.3682 38.5808 20.2582 38.0479 19.5704C37.515 18.8826 37.6246 17.8926 38.3135 17.3613C39.0025 16.83 39.9928 16.9522 40.5257 17.64Z" fill="black"/>
<path d="M37.309 13.5599C37.8437 14.2356 37.7219 15.2238 37.0434 15.769C36.3545 16.3004 35.3623 16.1904 34.8294 15.5025C34.2965 14.8147 34.4061 13.8247 35.0951 13.2934C35.784 12.7621 36.7743 12.8843 37.3072 13.5721L37.309 13.5599Z" fill="black"/>
<path d="M42.0198 22.0854L49.37 31.45" stroke="black" stroke-width="2" stroke-linecap="round" stroke-linejoin="round"/>
<path d="M29.813 30.5102C30.6247 30.8295 31.0118 31.7441 30.6924 32.5539C30.3608 33.3618 29.4549 33.7616 28.645 33.4302C27.8333 33.1109 27.4461 32.1963 27.7655 31.3865C28.0971 30.5785 29.0135 30.1928 29.8112 30.5224L29.813 30.5102Z" fill="black"/>
<path d="M24.983 28.5757C25.7947 28.8949 26.1818 29.8095 25.8624 30.6193C25.5308 31.4273 24.6145 31.813 23.815 31.4956C23.0033 31.1763 22.618 30.2495 22.9355 29.4519C23.2671 28.644 24.1835 28.2582 24.9812 28.5878L24.983 28.5757Z" fill="black"/>
<path d="M33.3359 33.6172L44.4036 38.0675" stroke="black" stroke-width="2" stroke-linecap="round" stroke-linejoin="round"/>
<path d="M133.731 109.112L139.983 80.1631L88.0954 43.8889L17.9379 71.9863L51.3736 140.306L128.029 135.534L131.016 121.703L156.498 119.883L133.731 109.112Z" stroke="black" stroke-width="2" stroke-linecap="round" stroke-linejoin="round"/>
<g style="mix-blend-mode:multiply">
<path d="M12.6361 123.139L35.9491 150.613L122.542 87.2765L12.6361 123.139Z" fill="#A7F06E"/>
</g>
<path d="M133.731 109.112L139.983 80.1631L88.0954 43.8889L17.9379 71.9863L51.3736 140.306L128.029 135.534L131.016 121.703L156.498 119.883L133.731 109.112Z" stroke="black" stroke-width="2" stroke-linecap="round" stroke-linejoin="round"/>
<path opacity="0.5" d="M141.731 93.1121L147.983 64.1631L96.0954 27.8889L25.9379 55.9863L59.3737 124.306L136.029 119.534L139.016 105.703L164.498 103.883L141.731 93.1121Z" fill="#8EE4E9"/>
<g clip-path="url(#clip0_5_26630)">
<path d="M74.89 87.1874C74.61 88.6074 74.17 89.8474 73.58 90.8974C72.99 91.9474 72.21 92.8374 71.24 93.5474C70.27 94.2574 69.1 94.7974 67.71 95.1574C66.33 95.5174 64.71 95.6974 62.87 95.6974C61.54 95.6974 60.35 95.5874 59.3 95.3774C58.25 95.1674 57.37 94.8974 56.66 94.5674C56.41 94.4474 56.24 94.2974 56.14 94.1474C56.05 93.9874 56 93.7774 56 93.4874C56 93.3974 56 93.2374 56.02 93.0174C56.04 92.7974 56.07 92.5574 56.13 92.2874C56.18 92.0174 56.25 91.7474 56.33 91.4574C56.41 91.1674 56.51 90.9074 56.62 90.6874C56.74 90.4574 56.87 90.2774 57.01 90.1274C57.15 89.9774 57.31 89.9074 57.5 89.9074C57.69 89.9074 57.92 89.9774 58.19 90.1074C58.46 90.2374 58.83 90.3874 59.28 90.5374C59.73 90.6974 60.3 90.8374 60.97 90.9674C61.64 91.0974 62.47 91.1674 63.45 91.1674C64.25 91.1674 64.96 91.1074 65.59 90.9774C66.22 90.8474 66.77 90.6474 67.24 90.3674C67.71 90.0874 68.09 89.7274 68.38 89.2874C68.67 88.8474 68.88 88.3074 69 87.6674C69.2 86.6474 69.41 85.7974 69.61 85.1174C69.81 84.4374 70 83.8674 70.17 83.4274C69.89 83.9474 69.49 84.4574 68.96 84.9674C68.44 85.4774 67.84 85.9274 67.17 86.3374C66.5 86.7474 65.78 87.0674 65 87.3074C64.23 87.5474 63.45 87.6674 62.67 87.6674C61.47 87.6674 60.46 87.4674 59.63 87.0574C58.81 86.6474 58.14 86.0874 57.63 85.3674C57.11 84.6474 56.74 83.8074 56.52 82.8374C56.29 81.8674 56.18 80.8174 56.18 79.6974C56.18 78.6774 56.27 77.5874 56.46 76.4174C56.65 75.2474 56.94 74.0774 57.34 72.9274C57.74 71.7674 58.24 70.6574 58.85 69.5974C59.46 68.5374 60.19 67.5974 61.04 66.7774C61.89 65.9574 62.87 65.3074 63.97 64.8174C65.07 64.3374 66.31 64.0874 67.68 64.0874C68.98 64.0874 70.13 64.3574 71.13 64.8974C72.13 65.4374 73 66.2174 73.75 67.2574L74.12 65.4074C74.18 65.0774 74.43 64.8474 74.86 64.7074C75.29 64.5674 75.98 64.4974 76.93 64.4974C77.4 64.4974 77.79 64.5174 78.1 64.5574C78.41 64.5974 78.66 64.6474 78.84 64.7174C79.02 64.7874 79.14 64.8774 79.2 64.9974C79.26 65.1174 79.28 65.2474 79.25 65.4074L74.87 87.1774L74.89 87.1874ZM72.17 71.6774C71.62 70.8174 71.02 70.1774 70.35 69.7474C69.69 69.3174 68.92 69.1074 68.04 69.1074C67.38 69.1074 66.79 69.2674 66.25 69.5774C65.71 69.8874 65.23 70.3074 64.8 70.8274C64.37 71.3474 64 71.9574 63.68 72.6474C63.36 73.3374 63.09 74.0574 62.88 74.8074C62.67 75.5574 62.51 76.3074 62.41 77.0574C62.31 77.8074 62.26 78.5174 62.26 79.1874C62.26 79.7174 62.31 80.2074 62.4 80.6374C62.49 81.0774 62.64 81.4474 62.83 81.7474C63.03 82.0474 63.28 82.2874 63.58 82.4474C63.88 82.6074 64.26 82.6974 64.69 82.6974C65.38 82.6974 66.08 82.4874 66.8 82.0774C67.52 81.6674 68.19 81.0974 68.82 80.3874C69.44 79.6774 70 78.8474 70.47 77.8874C70.95 76.9374 71.29 75.9174 71.51 74.8374L72.17 71.6774Z" fill="#446FC1"/>
<path d="M104.07 72.4774C104.07 73.5974 103.96 74.7574 103.75 75.9474C103.54 77.1374 103.21 78.2974 102.75 79.4274C102.3 80.5574 101.71 81.6274 101 82.6174C100.29 83.6074 99.44 84.4874 98.45 85.2374C97.46 85.9974 96.32 86.5974 95.04 87.0274C93.76 87.4674 92.31 87.6874 90.7 87.6874C89.09 87.6874 87.76 87.5074 86.61 87.1374C85.46 86.7674 84.5 86.2274 83.74 85.5174C82.97 84.8074 82.4 83.9274 82.03 82.8974C81.66 81.8574 81.47 80.6674 81.47 79.3274C81.47 78.2074 81.58 77.0474 81.79 75.8574C82 74.6674 82.33 73.5174 82.79 72.3874C83.24 71.2674 83.83 70.1974 84.54 69.1874C85.25 68.1774 86.1 67.2974 87.09 66.5474C88.08 65.7974 89.22 65.2074 90.5 64.7674C91.78 64.3274 93.23 64.1074 94.84 64.1074C96.45 64.1074 97.78 64.2874 98.93 64.6574C100.08 65.0274 101.04 65.5674 101.8 66.2774C102.56 66.9874 103.14 67.8674 103.51 68.8974C103.88 69.9274 104.07 71.1274 104.07 72.4674V72.4774ZM97.98 72.8674C97.98 72.2074 97.91 71.6274 97.78 71.1174C97.65 70.6074 97.43 70.1774 97.12 69.8274C96.81 69.4774 96.42 69.2074 95.95 69.0174C95.47 68.8274 94.89 68.7374 94.2 68.7374C93.42 68.7374 92.72 68.8874 92.09 69.1974C91.46 69.5074 90.91 69.9074 90.41 70.4274C89.92 70.9474 89.49 71.5374 89.13 72.2174C88.77 72.8974 88.47 73.6074 88.24 74.3574C88.01 75.1074 87.83 75.8674 87.72 76.6474C87.61 77.4174 87.56 78.1574 87.56 78.8574C87.56 79.5174 87.63 80.0974 87.76 80.6174C87.89 81.1374 88.11 81.5674 88.42 81.9174C88.72 82.2674 89.12 82.5374 89.59 82.7274C90.07 82.9174 90.65 83.0074 91.34 83.0074C92.12 83.0074 92.82 82.8574 93.45 82.5474C94.08 82.2374 94.63 81.8274 95.13 81.3074C95.62 80.7874 96.05 80.1874 96.41 79.5074C96.77 78.8274 97.07 78.1074 97.3 77.3474C97.53 76.5874 97.71 75.8274 97.82 75.0574C97.93 74.2874 97.98 73.5574 97.98 72.8574V72.8674Z" fill="#446FC1"/>
<path d="M116 82.5975C116 82.8775 115.97 83.2075 115.91 83.5775C115.85 83.9475 115.77 84.3275 115.66 84.7175C115.56 85.0975 115.43 85.4575 115.27 85.7975C115.11 86.1375 114.93 86.4075 114.73 86.6075C114.43 86.9075 114.05 87.1275 113.59 87.2775C113.13 87.4275 112.54 87.4975 111.82 87.4975C111.26 87.4975 110.79 87.4575 110.43 87.3675C110.06 87.2775 109.77 87.1575 109.56 86.9775C109.35 86.8075 109.2 86.5975 109.13 86.3575C109.05 86.1175 109.01 85.8375 109.01 85.5275C109.01 85.2775 109.03 84.9675 109.08 84.5975C109.13 84.2275 109.2 83.8475 109.31 83.4575C109.42 83.0675 109.55 82.6975 109.71 82.3475C109.87 81.9975 110.05 81.7075 110.27 81.4875C110.61 81.1475 111.01 80.9075 111.47 80.7775C111.92 80.6475 112.48 80.5775 113.13 80.5775C113.74 80.5775 114.23 80.6275 114.59 80.7275C114.96 80.8275 115.25 80.9675 115.46 81.1475C115.67 81.3275 115.81 81.5375 115.88 81.7875C115.95 82.0375 115.99 82.3075 115.99 82.5875L116 82.5975ZM116.45 77.2075C116.42 77.3675 116.34 77.5075 116.23 77.6275C116.12 77.7475 115.94 77.8575 115.73 77.9475C115.51 78.0375 115.23 78.0975 114.9 78.1475C114.56 78.1975 114.15 78.2175 113.67 78.2175C113.19 78.2175 112.76 78.1975 112.44 78.1475C112.12 78.0975 111.87 78.0375 111.7 77.9475C111.53 77.8575 111.41 77.7575 111.35 77.6275C111.29 77.4975 111.27 77.3575 111.3 77.2075L114.96 55.9275C114.99 55.7275 115.07 55.5475 115.21 55.3875C115.34 55.2275 115.54 55.0975 115.81 54.9975C116.08 54.8975 116.42 54.8175 116.84 54.7775C117.26 54.7375 117.78 54.7075 118.39 54.7075C119 54.7075 119.53 54.7275 119.93 54.7775C120.33 54.8275 120.64 54.8975 120.87 54.9975C121.1 55.0975 121.24 55.2275 121.3 55.3875C121.36 55.5475 121.37 55.7275 121.32 55.9275L116.47 77.2075H116.45Z" fill="#446FC1"/>
</g>
<defs>
<clipPath id="clip0_5_26630">
<rect width="65.33" height="40.99" fill="white" transform="translate(56 54.7075)"/>
</clipPath>
</defs>
</svg>
