<svg width="320" height="320" viewBox="0 0 320 320" fill="none" xmlns="http://www.w3.org/2000/svg">
<g clip-path="url(#clip0_1_67)">
<path d="M160.897 319.99V0.0399178C228.944 -0.109573 290.943 45.4253 311.929 109.816C345.728 213.533 269.022 319.263 160.897 319.99Z" fill="#0D24A6"/>
<path d="M158.914 319.99C91.494 320.977 28.0301 274.126 7.8819 210.214L158.914 161.012V319.99Z" fill="#FF614C"/>
<path d="M157.907 159.038L6.9054 208.709C-7.11465 160.463 -0.019928 107.135 30.2522 66.6328L157.907 159.038Z" fill="#FFD212"/>
<path d="M110.217 7.99268L157.907 157.035L30.7604 65.1281C50.8489 38.7977 78.1915 17.6697 110.217 7.99268Z" fill="#00AE35"/>
<path d="M158.914 0.039875V153.059L111.204 7.51441C126.46 2.3221 142.751 -0.378699 158.914 0.039875Z" fill="#AC00B5"/>
<path d="M279.217 163.663C278.414 163.663 277.698 163.516 277.069 163.22C276.444 162.925 275.948 162.518 275.581 161.999C275.213 161.48 275.022 160.885 275.007 160.215H277.393C277.42 160.665 277.609 161.031 277.961 161.311C278.314 161.592 278.732 161.732 279.217 161.732C279.603 161.732 279.944 161.646 280.24 161.476C280.539 161.302 280.772 161.061 280.939 160.754C281.109 160.444 281.194 160.088 281.194 159.686C281.194 159.277 281.107 158.917 280.933 158.607C280.762 158.296 280.526 158.054 280.223 157.879C279.92 157.705 279.573 157.616 279.183 157.612C278.842 157.612 278.511 157.682 278.189 157.823C277.87 157.963 277.622 158.154 277.444 158.396L275.257 158.004L275.808 151.868H282.922V153.879H277.836L277.535 156.794H277.603C277.808 156.506 278.117 156.268 278.529 156.078C278.942 155.889 279.404 155.794 279.916 155.794C280.617 155.794 281.242 155.959 281.791 156.288C282.34 156.618 282.774 157.071 283.092 157.646C283.41 158.218 283.567 158.878 283.564 159.624C283.567 160.408 283.386 161.105 283.018 161.715C282.654 162.321 282.145 162.798 281.49 163.146C280.838 163.491 280.081 163.663 279.217 163.663ZM289.842 163.76C288.865 163.756 288.024 163.516 287.319 163.038C286.619 162.561 286.079 161.87 285.7 160.965C285.325 160.059 285.139 158.97 285.143 157.698C285.143 156.429 285.331 155.347 285.706 154.453C286.084 153.559 286.624 152.879 287.325 152.413C288.029 151.944 288.869 151.709 289.842 151.709C290.815 151.709 291.653 151.944 292.353 152.413C293.058 152.883 293.6 153.565 293.978 154.459C294.357 155.349 294.545 156.429 294.541 157.698C294.541 158.974 294.351 160.065 293.973 160.97C293.598 161.876 293.06 162.567 292.359 163.044C291.658 163.521 290.819 163.76 289.842 163.76ZM289.842 161.72C290.509 161.72 291.041 161.385 291.439 160.715C291.836 160.044 292.033 159.038 292.029 157.698C292.029 156.815 291.939 156.08 291.757 155.493C291.579 154.906 291.325 154.465 290.995 154.169C290.67 153.874 290.285 153.726 289.842 153.726C289.179 153.726 288.649 154.057 288.251 154.72C287.853 155.383 287.653 156.376 287.649 157.698C287.649 158.592 287.738 159.338 287.916 159.936C288.098 160.531 288.353 160.978 288.683 161.277C289.012 161.573 289.399 161.72 289.842 161.72ZM302.664 161.323V160.709C302.664 160.243 302.763 159.815 302.96 159.425C303.161 159.031 303.45 158.717 303.829 158.482C304.212 158.243 304.678 158.124 305.227 158.124C305.784 158.124 306.252 158.241 306.63 158.476C307.013 158.711 307.301 159.025 307.494 159.419C307.691 159.809 307.789 160.239 307.789 160.709V161.323C307.789 161.788 307.691 162.218 307.494 162.612C307.297 163.003 307.007 163.315 306.625 163.55C306.242 163.788 305.776 163.908 305.227 163.908C304.67 163.908 304.202 163.788 303.824 163.55C303.445 163.315 303.157 163.003 302.96 162.612C302.763 162.218 302.664 161.788 302.664 161.323ZM304.318 160.709V161.323C304.318 161.592 304.382 161.845 304.511 162.084C304.644 162.323 304.882 162.442 305.227 162.442C305.572 162.442 305.806 162.324 305.931 162.09C306.06 161.855 306.125 161.599 306.125 161.323V160.709C306.125 160.432 306.064 160.175 305.943 159.936C305.822 159.698 305.583 159.578 305.227 159.578C304.886 159.578 304.649 159.698 304.517 159.936C304.384 160.175 304.318 160.432 304.318 160.709ZM296.693 154.663V154.05C296.693 153.58 296.793 153.15 296.994 152.76C297.195 152.366 297.485 152.052 297.863 151.817C298.246 151.582 298.708 151.465 299.25 151.465C299.81 151.465 300.28 151.582 300.659 151.817C301.038 152.052 301.325 152.366 301.522 152.76C301.719 153.15 301.818 153.58 301.818 154.05V154.663C301.818 155.133 301.717 155.563 301.517 155.953C301.32 156.343 301.03 156.656 300.647 156.891C300.269 157.122 299.803 157.237 299.25 157.237C298.697 157.237 298.229 157.12 297.846 156.885C297.467 156.646 297.18 156.334 296.983 155.948C296.789 155.557 296.693 155.129 296.693 154.663ZM298.358 154.05V154.663C298.358 154.94 298.422 155.196 298.551 155.431C298.683 155.665 298.916 155.783 299.25 155.783C299.598 155.783 299.835 155.665 299.96 155.431C300.089 155.196 300.153 154.94 300.153 154.663V154.05C300.153 153.773 300.092 153.516 299.971 153.277C299.85 153.038 299.61 152.919 299.25 152.919C298.913 152.919 298.68 153.04 298.551 153.283C298.422 153.525 298.358 153.781 298.358 154.05ZM297.443 163.504L305.443 151.868H306.931L298.931 163.504H297.443Z" fill="white"/>
<path d="M18.9595 151.868V163.504H16.4993V154.203H16.4311L13.7664 155.874V153.692L16.647 151.868H18.9595ZM25.9752 163.663C25.1721 163.663 24.4562 163.516 23.8274 163.22C23.2024 162.925 22.7062 162.518 22.3388 161.999C21.9714 161.48 21.7801 160.885 21.7649 160.215H24.1513C24.1778 160.665 24.3672 161.031 24.7195 161.311C25.0718 161.592 25.4903 161.732 25.9752 161.732C26.3615 161.732 26.7024 161.646 26.9979 161.476C27.2971 161.302 27.5301 161.061 27.6968 160.754C27.8672 160.444 27.9524 160.088 27.9524 159.686C27.9524 159.277 27.8653 158.917 27.6911 158.607C27.5206 158.296 27.2839 158.054 26.9808 157.879C26.6778 157.705 26.3312 157.616 25.9411 157.612C25.6002 157.612 25.2687 157.682 24.9468 157.823C24.6286 157.963 24.3805 158.154 24.2024 158.396L22.0149 158.004L22.5661 151.868H29.6797V153.879H24.5945L24.2933 156.794H24.3615C24.5661 156.506 24.8748 156.268 25.2877 156.078C25.7005 155.889 26.1627 155.794 26.674 155.794C27.3748 155.794 27.9998 155.959 28.549 156.288C29.0983 156.618 29.532 157.071 29.8502 157.646C30.1683 158.218 30.3255 158.878 30.3218 159.624C30.3255 160.408 30.1437 161.105 29.7763 161.715C29.4127 162.321 28.9032 162.798 28.2479 163.146C27.5964 163.491 26.8388 163.663 25.9752 163.663ZM38.407 161.323V160.709C38.407 160.243 38.5055 159.815 38.7024 159.425C38.9032 159.031 39.193 158.717 39.5718 158.482C39.9543 158.243 40.4202 158.124 40.9695 158.124C41.5263 158.124 41.9941 158.241 42.3729 158.476C42.7555 158.711 43.0433 159.025 43.2365 159.419C43.4335 159.809 43.532 160.239 43.532 160.709V161.323C43.532 161.788 43.4335 162.218 43.2365 162.612C43.0396 163.003 42.7498 163.315 42.3672 163.55C41.9846 163.788 41.5187 163.908 40.9695 163.908C40.4127 163.908 39.9449 163.788 39.5661 163.55C39.1873 163.315 38.8994 163.003 38.7024 162.612C38.5055 162.218 38.407 161.788 38.407 161.323ZM40.0604 160.709V161.323C40.0604 161.592 40.1248 161.845 40.2536 162.084C40.3861 162.323 40.6248 162.442 40.9695 162.442C41.3142 162.442 41.549 162.324 41.674 162.09C41.8028 161.855 41.8672 161.599 41.8672 161.323V160.709C41.8672 160.432 41.8066 160.175 41.6854 159.936C41.5642 159.698 41.3255 159.578 40.9695 159.578C40.6286 159.578 40.3918 159.698 40.2593 159.936C40.1267 160.175 40.0604 160.432 40.0604 160.709ZM32.4354 154.663V154.05C32.4354 153.58 32.5358 153.15 32.7365 152.76C32.9373 152.366 33.2271 152.052 33.6058 151.817C33.9884 151.582 34.4505 151.465 34.9922 151.465C35.5528 151.465 36.0225 151.582 36.4013 151.817C36.7801 152.052 37.068 152.366 37.2649 152.76C37.4619 153.15 37.5604 153.58 37.5604 154.05V154.663C37.5604 155.133 37.46 155.563 37.2593 155.953C37.0623 156.343 36.7725 156.656 36.3899 156.891C36.0111 157.122 35.5452 157.237 34.9922 157.237C34.4392 157.237 33.9714 157.12 33.5888 156.885C33.21 156.646 32.9221 156.334 32.7252 155.948C32.532 155.557 32.4354 155.129 32.4354 154.663ZM34.1002 154.05V154.663C34.1002 154.94 34.1646 155.196 34.2933 155.431C34.4259 155.665 34.6589 155.783 34.9922 155.783C35.3407 155.783 35.5774 155.665 35.7024 155.431C35.8312 155.196 35.8956 154.94 35.8956 154.663V154.05C35.8956 153.773 35.835 153.516 35.7138 153.277C35.5926 153.038 35.3521 152.919 34.9922 152.919C34.6551 152.919 34.4221 153.04 34.2933 153.283C34.1646 153.525 34.1002 153.781 34.1002 154.05ZM33.1854 163.504L41.1854 151.868H42.674L34.674 163.504H33.1854Z" fill="white"/>
<path d="M77.6699 278.114V276.341L81.8119 272.506C82.1642 272.165 82.4596 271.858 82.6983 271.585C82.9407 271.313 83.1244 271.046 83.2494 270.784C83.3744 270.519 83.4369 270.233 83.4369 269.926C83.4369 269.585 83.3593 269.292 83.204 269.046C83.0487 268.796 82.8365 268.604 82.5676 268.472C82.2987 268.335 81.9937 268.267 81.6528 268.267C81.2968 268.267 80.9862 268.339 80.721 268.483C80.4559 268.627 80.2513 268.833 80.1074 269.102C79.9634 269.371 79.8915 269.691 79.8915 270.063H77.5562C77.5562 269.301 77.7286 268.64 78.0733 268.08C78.418 267.519 78.9009 267.085 79.5221 266.779C80.1434 266.472 80.8593 266.318 81.6699 266.318C82.5032 266.318 83.2286 266.466 83.846 266.761C84.4672 267.053 84.9502 267.458 85.2949 267.977C85.6396 268.496 85.8119 269.091 85.8119 269.761C85.8119 270.201 85.7248 270.635 85.5505 271.063C85.3801 271.491 85.0752 271.966 84.6358 272.489C84.1964 273.008 83.5771 273.631 82.7778 274.358L81.079 276.023V276.102H85.9653V278.114H77.6699ZM92.3105 278.369C91.3332 278.366 90.4923 278.125 89.7878 277.648C89.087 277.171 88.5472 276.479 88.1684 275.574C87.7934 274.669 87.6078 273.58 87.6116 272.307C87.6116 271.038 87.7991 269.957 88.1741 269.063C88.5529 268.169 89.0927 267.489 89.7934 267.023C90.498 266.553 91.337 266.318 92.3105 266.318C93.284 266.318 94.1211 266.553 94.8219 267.023C95.5264 267.493 96.0681 268.174 96.4469 269.068C96.8256 269.958 97.0131 271.038 97.0094 272.307C97.0094 273.583 96.82 274.674 96.4412 275.58C96.0662 276.485 95.5283 277.176 94.8275 277.654C94.1268 278.131 93.2878 278.369 92.3105 278.369ZM92.3105 276.33C92.9772 276.33 93.5094 275.994 93.9071 275.324C94.3048 274.654 94.5018 273.648 94.498 272.307C94.498 271.424 94.4071 270.69 94.2253 270.102C94.0472 269.515 93.7934 269.074 93.4639 268.779C93.1381 268.483 92.7537 268.335 92.3105 268.335C91.6476 268.335 91.1173 268.667 90.7196 269.33C90.3219 269.993 90.1211 270.985 90.1173 272.307C90.1173 273.201 90.2063 273.947 90.3844 274.546C90.5662 275.14 90.8219 275.587 91.1514 275.886C91.4809 276.182 91.8673 276.33 92.3105 276.33ZM105.133 275.932V275.318C105.133 274.852 105.231 274.424 105.428 274.034C105.629 273.64 105.919 273.326 106.298 273.091C106.68 272.852 107.146 272.733 107.695 272.733C108.252 272.733 108.72 272.851 109.099 273.085C109.481 273.32 109.769 273.635 109.962 274.029C110.159 274.419 110.258 274.849 110.258 275.318V275.932C110.258 276.398 110.159 276.828 109.962 277.222C109.766 277.612 109.476 277.924 109.093 278.159C108.711 278.398 108.245 278.517 107.695 278.517C107.139 278.517 106.671 278.398 106.292 278.159C105.913 277.924 105.625 277.612 105.428 277.222C105.231 276.828 105.133 276.398 105.133 275.932ZM106.786 275.318V275.932C106.786 276.201 106.851 276.455 106.98 276.693C107.112 276.932 107.351 277.051 107.695 277.051C108.04 277.051 108.275 276.934 108.4 276.699C108.529 276.464 108.593 276.208 108.593 275.932V275.318C108.593 275.042 108.533 274.784 108.411 274.546C108.29 274.307 108.051 274.188 107.695 274.188C107.355 274.188 107.118 274.307 106.985 274.546C106.853 274.784 106.786 275.042 106.786 275.318ZM99.1613 269.273V268.659C99.1613 268.19 99.2617 267.76 99.4625 267.369C99.6632 266.976 99.953 266.661 100.332 266.426C100.714 266.191 101.176 266.074 101.718 266.074C102.279 266.074 102.748 266.191 103.127 266.426C103.506 266.661 103.794 266.976 103.991 267.369C104.188 267.76 104.286 268.19 104.286 268.659V269.273C104.286 269.743 104.186 270.172 103.985 270.563C103.788 270.953 103.498 271.265 103.116 271.5C102.737 271.731 102.271 271.847 101.718 271.847C101.165 271.847 100.697 271.729 100.315 271.494C99.936 271.256 99.6481 270.943 99.4511 270.557C99.2579 270.167 99.1613 269.739 99.1613 269.273ZM100.826 268.659V269.273C100.826 269.549 100.891 269.805 101.019 270.04C101.152 270.275 101.385 270.392 101.718 270.392C102.067 270.392 102.303 270.275 102.428 270.04C102.557 269.805 102.622 269.549 102.622 269.273V268.659C102.622 268.383 102.561 268.125 102.44 267.886C102.319 267.648 102.078 267.529 101.718 267.529C101.381 267.529 101.148 267.65 101.019 267.892C100.891 268.135 100.826 268.39 100.826 268.659ZM99.9113 278.114L107.911 266.477H109.4L101.4 278.114H99.9113Z" fill="white"/>
<path d="M71.7714 45.2313V56.8677H69.3111V47.5665H69.243L66.5782 49.237V47.0552L69.4589 45.2313H71.7714ZM79.0995 57.1234C78.1222 57.1196 77.2813 56.879 76.5768 56.4018C75.876 55.9245 75.3362 55.2332 74.9574 54.3279C74.5824 53.4226 74.3968 52.3336 74.4006 51.0609C74.4006 49.7919 74.5881 48.7105 74.9631 47.8165C75.3419 46.9226 75.8817 46.2427 76.5824 45.7768C77.287 45.3071 78.126 45.0722 79.0995 45.0722C80.073 45.0722 80.9101 45.3071 81.6109 45.7768C82.3154 46.2465 82.8571 46.9283 83.2359 47.8222C83.6146 48.7124 83.8021 49.7919 83.7984 51.0609C83.7984 52.3374 83.609 53.4283 83.2302 54.3336C82.8552 55.2389 82.3173 55.9302 81.6165 56.4074C80.9158 56.8847 80.0768 57.1234 79.0995 57.1234ZM79.0995 55.0836C79.7662 55.0836 80.2984 54.7484 80.6961 54.0779C81.0938 53.4074 81.2908 52.4018 81.287 51.0609C81.287 50.1783 81.1961 49.4434 81.0143 48.8563C80.8362 48.2692 80.5824 47.8279 80.2529 47.5324C79.9271 47.237 79.5427 47.0893 79.0995 47.0893C78.4366 47.0893 77.9063 47.4207 77.5086 48.0836C77.1109 48.7465 76.9101 49.7389 76.9063 51.0609C76.9063 51.9548 76.9953 52.701 77.1734 53.2995C77.3552 53.8942 77.6109 54.3412 77.9404 54.6404C78.2699 54.9359 78.6563 55.0836 79.0995 55.0836ZM91.9219 54.6859V54.0722C91.9219 53.6063 92.0204 53.1783 92.2174 52.7881C92.4181 52.3942 92.7079 52.0798 93.0867 51.8449C93.4693 51.6063 93.9352 51.487 94.4844 51.487C95.0413 51.487 95.5091 51.6044 95.8878 51.8393C96.2704 52.0741 96.5583 52.3885 96.7515 52.7824C96.9485 53.1726 97.0469 53.6025 97.0469 54.0722V54.6859C97.0469 55.1518 96.9485 55.5817 96.7515 55.9756C96.5545 56.3658 96.2647 56.6783 95.8822 56.9131C95.4996 57.1518 95.0337 57.2711 94.4844 57.2711C93.9276 57.2711 93.4598 57.1518 93.081 56.9131C92.7022 56.6783 92.4144 56.3658 92.2174 55.9756C92.0204 55.5817 91.9219 55.1518 91.9219 54.6859ZM93.5753 54.0722V54.6859C93.5753 54.9548 93.6397 55.2086 93.7685 55.4472C93.9011 55.6859 94.1397 55.8052 94.4844 55.8052C94.8291 55.8052 95.064 55.6878 95.189 55.4529C95.3178 55.2181 95.3822 54.9624 95.3822 54.6859V54.0722C95.3822 53.7957 95.3216 53.5381 95.2003 53.2995C95.0791 53.0609 94.8405 52.9415 94.4844 52.9415C94.1435 52.9415 93.9068 53.0609 93.7742 53.2995C93.6416 53.5381 93.5753 53.7957 93.5753 54.0722ZM85.9503 48.0268V47.4131C85.9503 46.9434 86.0507 46.5135 86.2515 46.1234C86.4522 45.7294 86.742 45.415 87.1208 45.1802C87.5034 44.9453 87.9655 44.8279 88.5072 44.8279C89.0678 44.8279 89.5375 44.9453 89.9163 45.1802C90.295 45.415 90.5829 45.7294 90.7799 46.1234C90.9769 46.5135 91.0753 46.9434 91.0753 47.4131V48.0268C91.0753 48.4965 90.975 48.9264 90.7742 49.3165C90.5772 49.7067 90.2875 50.0192 89.9049 50.254C89.5261 50.4851 89.0602 50.6006 88.5072 50.6006C87.9541 50.6006 87.4863 50.4832 87.1038 50.2484C86.725 50.0097 86.4371 49.6972 86.2401 49.3109C86.0469 48.9207 85.9503 48.4927 85.9503 48.0268ZM87.6151 47.4131V48.0268C87.6151 48.3033 87.6795 48.559 87.8083 48.7938C87.9409 49.0287 88.1738 49.1461 88.5072 49.1461C88.8556 49.1461 89.0924 49.0287 89.2174 48.7938C89.3462 48.559 89.4106 48.3033 89.4106 48.0268V47.4131C89.4106 47.1366 89.35 46.879 89.2288 46.6404C89.1075 46.4018 88.867 46.2824 88.5072 46.2824C88.17 46.2824 87.9371 46.4037 87.8083 46.6461C87.6795 46.8885 87.6151 47.1442 87.6151 47.4131ZM86.7003 56.8677L94.7003 45.2313H96.189L88.189 56.8677H86.7003Z" fill="white"/>
<path d="M132.739 31.1151C131.936 31.1151 131.22 30.9674 130.591 30.672C129.966 30.3765 129.47 29.9693 129.102 29.4504C128.735 28.9314 128.544 28.3367 128.529 27.6663H130.915C130.941 28.117 131.131 28.4826 131.483 28.7629C131.835 29.0432 132.254 29.1833 132.739 29.1833C133.125 29.1833 133.466 29.0981 133.762 28.9276C134.061 28.7534 134.294 28.5129 134.46 28.2061C134.631 27.8954 134.716 27.5394 134.716 27.1379C134.716 26.7288 134.629 26.3689 134.455 26.0583C134.284 25.7477 134.047 25.5053 133.744 25.3311C133.441 25.1568 133.095 25.0678 132.705 25.064C132.364 25.064 132.032 25.1341 131.71 25.2742C131.392 25.4144 131.144 25.6057 130.966 25.8481L128.779 25.4561L129.33 19.3197H136.443V21.3311H131.358L131.057 24.2458H131.125C131.33 23.9579 131.638 23.7193 132.051 23.5299C132.464 23.3405 132.926 23.2458 133.438 23.2458C134.138 23.2458 134.763 23.4106 135.313 23.7401C135.862 24.0697 136.296 24.5223 136.614 25.0981C136.932 25.6701 137.089 26.3292 137.085 27.0754C137.089 27.8595 136.907 28.5564 136.54 29.1663C136.176 29.7723 135.667 30.2496 135.012 30.5981C134.36 30.9428 133.602 31.1151 132.739 31.1151ZM145.171 28.7742V28.1606C145.171 27.6947 145.269 27.2667 145.466 26.8765C145.667 26.4826 145.957 26.1682 146.335 25.9333C146.718 25.6947 147.184 25.5754 147.733 25.5754C148.29 25.5754 148.758 25.6928 149.137 25.9276C149.519 26.1625 149.807 26.4769 150 26.8708C150.197 27.261 150.296 27.6909 150.296 28.1606V28.7742C150.296 29.2401 150.197 29.6701 150 30.064C149.803 30.4542 149.513 30.7667 149.131 31.0015C148.748 31.2401 148.282 31.3595 147.733 31.3595C147.176 31.3595 146.708 31.2401 146.33 31.0015C145.951 30.7667 145.663 30.4542 145.466 30.064C145.269 29.6701 145.171 29.2401 145.171 28.7742ZM146.824 28.1606V28.7742C146.824 29.0432 146.888 29.297 147.017 29.5356C147.15 29.7742 147.388 29.8936 147.733 29.8936C148.078 29.8936 148.313 29.7761 148.438 29.5413C148.566 29.3064 148.631 29.0508 148.631 28.7742V28.1606C148.631 27.8841 148.57 27.6265 148.449 27.3879C148.328 27.1492 148.089 27.0299 147.733 27.0299C147.392 27.0299 147.155 27.1492 147.023 27.3879C146.89 27.6265 146.824 27.8841 146.824 28.1606ZM139.199 22.1151V21.5015C139.199 21.0318 139.299 20.6019 139.5 20.2117C139.701 19.8178 139.991 19.5034 140.369 19.2686C140.752 19.0337 141.214 18.9163 141.756 18.9163C142.316 18.9163 142.786 19.0337 143.165 19.2686C143.544 19.5034 143.832 19.8178 144.029 20.2117C144.226 20.6019 144.324 21.0318 144.324 21.5015V22.1151C144.324 22.5848 144.224 23.0148 144.023 23.4049C143.826 23.7951 143.536 24.1076 143.154 24.3424C142.775 24.5735 142.309 24.689 141.756 24.689C141.203 24.689 140.735 24.5716 140.352 24.3367C139.974 24.0981 139.686 23.7856 139.489 23.3992C139.296 23.0091 139.199 22.5811 139.199 22.1151ZM140.864 21.5015V22.1151C140.864 22.3917 140.928 22.6473 141.057 22.8822C141.19 23.117 141.422 23.2345 141.756 23.2345C142.104 23.2345 142.341 23.117 142.466 22.8822C142.595 22.6473 142.659 22.3917 142.659 22.1151V21.5015C142.659 21.225 142.599 20.9674 142.477 20.7288C142.356 20.4901 142.116 20.3708 141.756 20.3708C141.419 20.3708 141.186 20.492 141.057 20.7345C140.928 20.9769 140.864 21.2326 140.864 21.5015ZM139.949 30.9561L147.949 19.3197H149.438L141.438 30.9561H139.949Z" fill="white"/>
</g>
<defs>
<clipPath id="clip0_1_67">
<rect width="320" height="320" fill="white"/>
</clipPath>
</defs>
</svg>
