<svg width="322" height="422" viewBox="0 0 322 422" fill="none" xmlns="http://www.w3.org/2000/svg">
<g clip-path="url(#clip0_2031_5)">
<path d="M162.02 160.987V0C271.332 0.717534 348.159 108.886 311.931 213.167C294.717 262.727 252.028 302.002 201.156 314.927C119.062 335.786 36.8398 290.452 9.29294 211.134L162.02 160.987Z" fill="#FF3217"/>
<path d="M160.039 159.98L8.17793 208.683C-6.54628 160.05 1.51769 107.411 31.1752 66.2623C39.1495 55.2003 51.2753 41.7665 62.2961 33.8238C63.2219 33.1561 65.9697 30.6846 66.7362 31.2626L160.029 159.98H160.039Z" fill="#00BA63"/>
<path d="M160.039 0V156.014L67.7418 30.3058C94.1438 10.6135 127.047 0.179383 160.039 0Z" fill="#FFD212"/>
<path d="M276.18 163.5L281.004 153.954V153.875H275.385V151.863H283.549V153.903L278.72 163.5H276.18ZM289.548 163.755C288.571 163.752 287.73 163.511 287.025 163.034C286.324 162.557 285.785 161.865 285.406 160.96C285.031 160.055 284.845 158.966 284.849 157.693C284.849 156.424 285.037 155.343 285.412 154.449C285.79 153.555 286.33 152.875 287.031 152.409C287.735 151.939 288.574 151.704 289.548 151.704C290.521 151.704 291.358 151.939 292.059 152.409C292.764 152.879 293.305 153.56 293.684 154.454C294.063 155.344 294.251 156.424 294.247 157.693C294.247 158.969 294.057 160.06 293.679 160.966C293.304 161.871 292.766 162.562 292.065 163.04C291.364 163.517 290.525 163.755 289.548 163.755ZM289.548 161.716C290.215 161.716 290.747 161.38 291.144 160.71C291.542 160.04 291.739 159.034 291.735 157.693C291.735 156.81 291.644 156.076 291.463 155.488C291.285 154.901 291.031 154.46 290.701 154.165C290.376 153.869 289.991 153.721 289.548 153.721C288.885 153.721 288.355 154.053 287.957 154.716C287.559 155.379 287.358 156.371 287.355 157.693C287.355 158.587 287.444 159.333 287.622 159.932C287.804 160.526 288.059 160.973 288.389 161.272C288.718 161.568 289.105 161.716 289.548 161.716ZM302.37 161.318V160.704C302.37 160.238 302.469 159.81 302.666 159.42C302.867 159.026 303.156 158.712 303.535 158.477C303.918 158.238 304.384 158.119 304.933 158.119C305.49 158.119 305.957 158.236 306.336 158.471C306.719 158.706 307.007 159.021 307.2 159.415C307.397 159.805 307.495 160.235 307.495 160.704V161.318C307.495 161.784 307.397 162.214 307.2 162.608C307.003 162.998 306.713 163.31 306.331 163.545C305.948 163.784 305.482 163.903 304.933 163.903C304.376 163.903 303.908 163.784 303.529 163.545C303.151 163.31 302.863 162.998 302.666 162.608C302.469 162.214 302.37 161.784 302.37 161.318ZM304.024 160.704V161.318C304.024 161.587 304.088 161.841 304.217 162.079C304.349 162.318 304.588 162.437 304.933 162.437C305.278 162.437 305.512 162.32 305.637 162.085C305.766 161.85 305.831 161.594 305.831 161.318V160.704C305.831 160.428 305.77 160.17 305.649 159.932C305.528 159.693 305.289 159.574 304.933 159.574C304.592 159.574 304.355 159.693 304.223 159.932C304.09 160.17 304.024 160.428 304.024 160.704ZM296.399 154.659V154.045C296.399 153.576 296.499 153.146 296.7 152.755C296.901 152.361 297.19 152.047 297.569 151.812C297.952 151.577 298.414 151.46 298.956 151.46C299.516 151.46 299.986 151.577 300.365 151.812C300.743 152.047 301.031 152.361 301.228 152.755C301.425 153.146 301.524 153.576 301.524 154.045V154.659C301.524 155.129 301.423 155.558 301.223 155.949C301.026 156.339 300.736 156.651 300.353 156.886C299.974 157.117 299.509 157.233 298.956 157.233C298.403 157.233 297.935 157.115 297.552 156.88C297.173 156.642 296.885 156.329 296.689 155.943C296.495 155.553 296.399 155.125 296.399 154.659ZM298.064 154.045V154.659C298.064 154.935 298.128 155.191 298.257 155.426C298.389 155.661 298.622 155.778 298.956 155.778C299.304 155.778 299.541 155.661 299.666 155.426C299.795 155.191 299.859 154.935 299.859 154.659V154.045C299.859 153.769 299.798 153.511 299.677 153.272C299.556 153.034 299.315 152.915 298.956 152.915C298.618 152.915 298.385 153.036 298.257 153.278C298.128 153.521 298.064 153.776 298.064 154.045ZM297.149 163.5L305.149 151.863H306.637L298.637 163.5H297.149Z" fill="white"/>
<path d="M19.8631 125.63V123.857L24.0051 120.022C24.3574 119.681 24.6529 119.374 24.8915 119.102C25.1339 118.829 25.3176 118.562 25.4426 118.301C25.5676 118.035 25.6301 117.749 25.6301 117.443C25.6301 117.102 25.5525 116.808 25.3972 116.562C25.2419 116.312 25.0298 116.121 24.7608 115.988C24.4919 115.852 24.187 115.784 23.8461 115.784C23.49 115.784 23.1794 115.856 22.9142 115.999C22.6491 116.143 22.4445 116.35 22.3006 116.619C22.1567 116.888 22.0847 117.208 22.0847 117.579H19.7495C19.7495 116.818 19.9218 116.157 20.2665 115.596C20.6112 115.035 21.0942 114.602 21.7154 114.295C22.3366 113.988 23.0525 113.835 23.8631 113.835C24.6964 113.835 25.4218 113.982 26.0392 114.278C26.6605 114.57 27.1434 114.975 27.4881 115.494C27.8328 116.013 28.0051 116.607 28.0051 117.278C28.0051 117.717 27.918 118.151 27.7438 118.579C27.5733 119.007 27.2684 119.482 26.829 120.005C26.3896 120.524 25.7703 121.147 24.9711 121.874L23.2722 123.539V123.619H28.1586V125.63H19.8631ZM34.5037 125.886C33.5265 125.882 32.6855 125.641 31.981 125.164C31.2802 124.687 30.7405 123.996 30.3617 123.09C29.9867 122.185 29.8011 121.096 29.8049 119.823C29.8049 118.554 29.9924 117.473 30.3674 116.579C30.7462 115.685 31.2859 115.005 31.9867 114.539C32.6912 114.07 33.5302 113.835 34.5037 113.835C35.4772 113.835 36.3143 114.07 37.0151 114.539C37.7196 115.009 38.2613 115.691 38.6401 116.585C39.0189 117.475 39.2064 118.554 39.2026 119.823C39.2026 121.1 39.0132 122.191 38.6344 123.096C38.2594 124.001 37.7215 124.693 37.0208 125.17C36.32 125.647 35.481 125.886 34.5037 125.886ZM34.5037 123.846C35.1704 123.846 35.7026 123.511 36.1003 122.84C36.498 122.17 36.695 121.164 36.6912 119.823C36.6912 118.941 36.6003 118.206 36.4185 117.619C36.2405 117.032 35.9867 116.59 35.6571 116.295C35.3314 115.999 34.9469 115.852 34.5037 115.852C33.8409 115.852 33.3105 116.183 32.9128 116.846C32.5151 117.509 32.3143 118.501 32.3105 119.823C32.3105 120.717 32.3996 121.463 32.5776 122.062C32.7594 122.657 33.0151 123.104 33.3446 123.403C33.6742 123.698 34.0605 123.846 34.5037 123.846ZM47.3262 123.448V122.835C47.3262 122.369 47.4247 121.941 47.6216 121.551C47.8224 121.157 48.1122 120.842 48.4909 120.607C48.8735 120.369 49.3394 120.249 49.8887 120.249C50.4455 120.249 50.9133 120.367 51.2921 120.602C51.6747 120.837 51.9625 121.151 52.1557 121.545C52.3527 121.935 52.4512 122.365 52.4512 122.835V123.448C52.4512 123.914 52.3527 124.344 52.1557 124.738C51.9587 125.128 51.669 125.441 51.2864 125.676C50.9038 125.914 50.4379 126.034 49.8887 126.034C49.3319 126.034 48.8641 125.914 48.4853 125.676C48.1065 125.441 47.8186 125.128 47.6216 124.738C47.4247 124.344 47.3262 123.914 47.3262 123.448ZM48.9796 122.835V123.448C48.9796 123.717 49.044 123.971 49.1728 124.21C49.3053 124.448 49.544 124.568 49.8887 124.568C50.2334 124.568 50.4682 124.45 50.5932 124.215C50.722 123.981 50.7864 123.725 50.7864 123.448V122.835C50.7864 122.558 50.7258 122.301 50.6046 122.062C50.4834 121.823 50.2447 121.704 49.8887 121.704C49.5478 121.704 49.311 121.823 49.1784 122.062C49.0459 122.301 48.9796 122.558 48.9796 122.835ZM41.3546 116.789V116.176C41.3546 115.706 41.455 115.276 41.6557 114.886C41.8565 114.492 42.1462 114.177 42.525 113.943C42.9076 113.708 43.3697 113.59 43.9114 113.59C44.472 113.59 44.9417 113.708 45.3205 113.943C45.6993 114.177 45.9872 114.492 46.1841 114.886C46.3811 115.276 46.4796 115.706 46.4796 116.176V116.789C46.4796 117.259 46.3792 117.689 46.1784 118.079C45.9815 118.469 45.6917 118.782 45.3091 119.016C44.9303 119.248 44.4644 119.363 43.9114 119.363C43.3584 119.363 42.8906 119.246 42.508 119.011C42.1292 118.772 41.8413 118.46 41.6444 118.073C41.4512 117.683 41.3546 117.255 41.3546 116.789ZM43.0194 116.176V116.789C43.0194 117.066 43.0837 117.321 43.2125 117.556C43.3451 117.791 43.5781 117.909 43.9114 117.909C44.2599 117.909 44.4966 117.791 44.6216 117.556C44.7504 117.321 44.8148 117.066 44.8148 116.789V116.176C44.8148 115.899 44.7542 115.641 44.633 115.403C44.5118 115.164 44.2712 115.045 43.9114 115.045C43.5743 115.045 43.3413 115.166 43.2125 115.409C43.0837 115.651 43.0194 115.907 43.0194 116.176ZM42.1046 125.63L50.1046 113.994H51.5932L43.5932 125.63H42.1046Z" fill="white"/>
<path d="M108.552 26.295V37.9314H106.092V28.6303H106.023L103.359 30.3007V28.1189L106.239 26.295H108.552ZM115.88 38.1871C114.903 38.1833 114.062 37.9428 113.357 37.4655C112.657 36.9882 112.117 36.2969 111.738 35.3916C111.363 34.4863 111.177 33.3973 111.181 32.1246C111.181 30.8556 111.369 29.7742 111.744 28.8803C112.122 27.9863 112.662 27.3064 113.363 26.8405C114.068 26.3708 114.907 26.1359 115.88 26.1359C116.854 26.1359 117.691 26.3708 118.391 26.8405C119.096 27.3102 119.638 27.992 120.016 28.8859C120.395 29.7761 120.583 30.8556 120.579 32.1246C120.579 33.4011 120.389 34.492 120.011 35.3973C119.636 36.3026 119.098 36.9939 118.397 37.4712C117.696 37.9484 116.857 38.1871 115.88 38.1871ZM115.88 36.1473C116.547 36.1473 117.079 35.8121 117.477 35.1416C117.874 34.4712 118.071 33.4655 118.068 32.1246C118.068 31.242 117.977 30.5072 117.795 29.92C117.617 29.3329 117.363 28.8916 117.033 28.5962C116.708 28.3007 116.323 28.153 115.88 28.153C115.217 28.153 114.687 28.4844 114.289 29.1473C113.891 29.8102 113.691 30.8026 113.687 32.1246C113.687 33.0185 113.776 33.7647 113.954 34.3632C114.136 34.9579 114.391 35.4049 114.721 35.7041C115.05 35.9996 115.437 36.1473 115.88 36.1473ZM128.702 35.7496V35.1359C128.702 34.67 128.801 34.242 128.998 33.8519C129.199 33.4579 129.488 33.1435 129.867 32.9087C130.25 32.67 130.716 32.5507 131.265 32.5507C131.822 32.5507 132.29 32.6681 132.668 32.903C133.051 33.1378 133.339 33.4522 133.532 33.8462C133.729 34.2363 133.827 34.6662 133.827 35.1359V35.7496C133.827 36.2155 133.729 36.6454 133.532 37.0394C133.335 37.4295 133.045 37.742 132.663 37.9769C132.28 38.2155 131.814 38.3348 131.265 38.3348C130.708 38.3348 130.24 38.2155 129.862 37.9769C129.483 37.742 129.195 37.4295 128.998 37.0394C128.801 36.6454 128.702 36.2155 128.702 35.7496ZM130.356 35.1359V35.7496C130.356 36.0185 130.42 36.2723 130.549 36.5109C130.682 36.7496 130.92 36.8689 131.265 36.8689C131.61 36.8689 131.845 36.7515 131.97 36.5166C132.098 36.2818 132.163 36.0261 132.163 35.7496V35.1359C132.163 34.8594 132.102 34.6019 131.981 34.3632C131.86 34.1246 131.621 34.0053 131.265 34.0053C130.924 34.0053 130.687 34.1246 130.555 34.3632C130.422 34.6019 130.356 34.8594 130.356 35.1359ZM122.731 29.0905V28.4769C122.731 28.0072 122.831 27.5772 123.032 27.1871C123.233 26.7931 123.523 26.4787 123.901 26.2439C124.284 26.009 124.746 25.8916 125.288 25.8916C125.848 25.8916 126.318 26.009 126.697 26.2439C127.076 26.4787 127.363 26.7931 127.56 27.1871C127.757 27.5772 127.856 28.0072 127.856 28.4769V29.0905C127.856 29.5602 127.755 29.9901 127.555 30.3803C127.358 30.7704 127.068 31.0829 126.685 31.3178C126.307 31.5488 125.841 31.6644 125.288 31.6644C124.735 31.6644 124.267 31.5469 123.884 31.3121C123.505 31.0734 123.218 30.7609 123.021 30.3746C122.827 29.9844 122.731 29.5564 122.731 29.0905ZM124.396 28.4769V29.0905C124.396 29.367 124.46 29.6227 124.589 29.8575C124.721 30.0924 124.954 30.2098 125.288 30.2098C125.636 30.2098 125.873 30.0924 125.998 29.8575C126.127 29.6227 126.191 29.367 126.191 29.0905V28.4769C126.191 28.2003 126.13 27.9428 126.009 27.7041C125.888 27.4655 125.648 27.3462 125.288 27.3462C124.951 27.3462 124.718 27.4674 124.589 27.7098C124.46 27.9522 124.396 28.2079 124.396 28.4769ZM123.481 37.9314L131.481 26.295H132.97L124.97 37.9314H123.481Z" fill="white"/>
</g>
<path d="M30.3239 359.71C30.2784 359.252 30.0833 358.896 29.7386 358.642C29.3939 358.388 28.9261 358.261 28.3352 358.261C27.9337 358.261 27.5947 358.318 27.3182 358.432C27.0417 358.542 26.8295 358.695 26.6818 358.892C26.5379 359.089 26.4659 359.312 26.4659 359.562C26.4583 359.771 26.5019 359.953 26.5966 360.108C26.6951 360.263 26.8295 360.398 27 360.511C27.1705 360.621 27.3674 360.718 27.5909 360.801C27.8144 360.881 28.053 360.949 28.3068 361.006L29.3523 361.256C29.8598 361.369 30.3258 361.521 30.75 361.71C31.1742 361.9 31.5417 362.133 31.8523 362.409C32.1629 362.686 32.4034 363.011 32.5739 363.386C32.7481 363.761 32.8371 364.191 32.8409 364.676C32.8371 365.388 32.6553 366.006 32.2955 366.528C31.9394 367.047 31.4242 367.451 30.75 367.739C30.0795 368.023 29.2708 368.165 28.3239 368.165C27.3845 368.165 26.5663 368.021 25.8693 367.733C25.1761 367.445 24.6345 367.019 24.2443 366.455C23.858 365.886 23.6553 365.184 23.6364 364.347H26.017C26.0436 364.737 26.1553 365.062 26.3523 365.324C26.553 365.581 26.8201 365.777 27.1534 365.909C27.4905 366.038 27.8712 366.102 28.2955 366.102C28.7121 366.102 29.0739 366.042 29.3807 365.92C29.6913 365.799 29.9318 365.631 30.1023 365.415C30.2727 365.199 30.358 364.951 30.358 364.67C30.358 364.409 30.2803 364.189 30.125 364.011C29.9735 363.833 29.75 363.682 29.4545 363.557C29.1629 363.432 28.8049 363.318 28.3807 363.216L27.1136 362.898C26.1326 362.659 25.358 362.286 24.7898 361.778C24.2216 361.271 23.9394 360.587 23.9432 359.727C23.9394 359.023 24.1269 358.407 24.5057 357.881C24.8883 357.354 25.4129 356.943 26.0795 356.648C26.7462 356.352 27.5038 356.205 28.3523 356.205C29.2159 356.205 29.9697 356.352 30.6136 356.648C31.2614 356.943 31.7652 357.354 32.125 357.881C32.4848 358.407 32.6705 359.017 32.6818 359.71H30.3239ZM40.0469 364.284V359.273H42.4673V368H40.1435V366.415H40.0526C39.8556 366.926 39.5279 367.337 39.0696 367.648C38.6151 367.958 38.0601 368.114 37.4048 368.114C36.8215 368.114 36.3082 367.981 35.8651 367.716C35.4219 367.451 35.0753 367.074 34.8253 366.585C34.5791 366.097 34.4541 365.511 34.4503 364.83V359.273H36.8707V364.398C36.8745 364.913 37.0128 365.32 37.2855 365.619C37.5582 365.919 37.9238 366.068 38.3821 366.068C38.6738 366.068 38.9465 366.002 39.2003 365.869C39.4541 365.733 39.6586 365.532 39.8139 365.267C39.973 365.002 40.0507 364.674 40.0469 364.284ZM44.4034 371.273V359.273H46.7898V360.739H46.8977C47.0038 360.504 47.1572 360.265 47.358 360.023C47.5625 359.777 47.8277 359.572 48.1534 359.409C48.483 359.242 48.892 359.159 49.3807 359.159C50.017 359.159 50.6042 359.326 51.142 359.659C51.6799 359.989 52.1098 360.487 52.4318 361.153C52.7538 361.816 52.9148 362.648 52.9148 363.648C52.9148 364.621 52.7576 365.443 52.4432 366.114C52.1326 366.78 51.7083 367.286 51.1705 367.631C50.6364 367.972 50.0379 368.142 49.375 368.142C48.9053 368.142 48.5057 368.064 48.1761 367.909C47.8504 367.754 47.5833 367.559 47.375 367.324C47.1667 367.085 47.0076 366.845 46.8977 366.602H46.8239V371.273H44.4034ZM46.7727 363.636C46.7727 364.155 46.8447 364.608 46.9886 364.994C47.1326 365.381 47.3409 365.682 47.6136 365.898C47.8864 366.11 48.2178 366.216 48.608 366.216C49.0019 366.216 49.3352 366.108 49.608 365.892C49.8807 365.672 50.0871 365.369 50.2273 364.983C50.3712 364.593 50.4432 364.144 50.4432 363.636C50.4432 363.133 50.3731 362.689 50.233 362.307C50.0928 361.924 49.8864 361.625 49.6136 361.409C49.3409 361.193 49.0057 361.085 48.608 361.085C48.214 361.085 47.8807 361.189 47.608 361.398C47.339 361.606 47.1326 361.902 46.9886 362.284C46.8447 362.667 46.7727 363.117 46.7727 363.636ZM54.5284 371.273V359.273H56.9148V360.739H57.0227C57.1288 360.504 57.2822 360.265 57.483 360.023C57.6875 359.777 57.9527 359.572 58.2784 359.409C58.608 359.242 59.017 359.159 59.5057 359.159C60.142 359.159 60.7292 359.326 61.267 359.659C61.8049 359.989 62.2348 360.487 62.5568 361.153C62.8788 361.816 63.0398 362.648 63.0398 363.648C63.0398 364.621 62.8826 365.443 62.5682 366.114C62.2576 366.78 61.8333 367.286 61.2955 367.631C60.7614 367.972 60.1629 368.142 59.5 368.142C59.0303 368.142 58.6307 368.064 58.3011 367.909C57.9754 367.754 57.7083 367.559 57.5 367.324C57.2917 367.085 57.1326 366.845 57.0227 366.602H56.9489V371.273H54.5284ZM56.8977 363.636C56.8977 364.155 56.9697 364.608 57.1136 364.994C57.2576 365.381 57.4659 365.682 57.7386 365.898C58.0114 366.11 58.3428 366.216 58.733 366.216C59.1269 366.216 59.4602 366.108 59.733 365.892C60.0057 365.672 60.2121 365.369 60.3523 364.983C60.4962 364.593 60.5682 364.144 60.5682 363.636C60.5682 363.133 60.4981 362.689 60.358 362.307C60.2178 361.924 60.0114 361.625 59.7386 361.409C59.4659 361.193 59.1307 361.085 58.733 361.085C58.339 361.085 58.0057 361.189 57.733 361.398C57.464 361.606 57.2576 361.902 57.1136 362.284C56.9697 362.667 56.8977 363.117 56.8977 363.636ZM68.5966 368.17C67.714 368.17 66.9508 367.983 66.3068 367.608C65.6667 367.229 65.1723 366.703 64.8239 366.028C64.4754 365.35 64.3011 364.564 64.3011 363.67C64.3011 362.769 64.4754 361.981 64.8239 361.307C65.1723 360.629 65.6667 360.102 66.3068 359.727C66.9508 359.348 67.714 359.159 68.5966 359.159C69.4792 359.159 70.2405 359.348 70.8807 359.727C71.5246 360.102 72.0208 360.629 72.3693 361.307C72.7178 361.981 72.892 362.769 72.892 363.67C72.892 364.564 72.7178 365.35 72.3693 366.028C72.0208 366.703 71.5246 367.229 70.8807 367.608C70.2405 367.983 69.4792 368.17 68.5966 368.17ZM68.608 366.295C69.0095 366.295 69.3447 366.182 69.6136 365.955C69.8826 365.723 70.0852 365.409 70.2216 365.011C70.3617 364.614 70.4318 364.161 70.4318 363.653C70.4318 363.146 70.3617 362.693 70.2216 362.295C70.0852 361.898 69.8826 361.583 69.6136 361.352C69.3447 361.121 69.0095 361.006 68.608 361.006C68.2027 361.006 67.8617 361.121 67.5852 361.352C67.3125 361.583 67.1061 361.898 66.9659 362.295C66.8295 362.693 66.7614 363.146 66.7614 363.653C66.7614 364.161 66.8295 364.614 66.9659 365.011C67.1061 365.409 67.3125 365.723 67.5852 365.955C67.8617 366.182 68.2027 366.295 68.608 366.295ZM74.4659 368V359.273H76.8125V360.795H76.9034C77.0625 360.254 77.3295 359.845 77.7045 359.568C78.0795 359.288 78.5114 359.148 79 359.148C79.1212 359.148 79.2519 359.155 79.392 359.17C79.5322 359.186 79.6553 359.206 79.7614 359.233V361.381C79.6477 361.347 79.4905 361.316 79.2898 361.29C79.089 361.263 78.9053 361.25 78.7386 361.25C78.3826 361.25 78.0644 361.328 77.7841 361.483C77.5076 361.634 77.2879 361.847 77.125 362.119C76.9659 362.392 76.8864 362.706 76.8864 363.062V368H74.4659ZM86.0923 359.273V361.091H80.8366V359.273H86.0923ZM82.0298 357.182H84.4503V365.318C84.4503 365.542 84.4844 365.716 84.5526 365.841C84.6207 365.962 84.7154 366.047 84.8366 366.097C84.9616 366.146 85.1056 366.17 85.2685 366.17C85.3821 366.17 85.4957 366.161 85.6094 366.142C85.723 366.119 85.8101 366.102 85.8707 366.091L86.2514 367.892C86.1302 367.93 85.9598 367.973 85.7401 368.023C85.5204 368.076 85.2533 368.108 84.9389 368.119C84.3556 368.142 83.8442 368.064 83.4048 367.886C82.9692 367.708 82.6302 367.432 82.3878 367.057C82.1454 366.682 82.026 366.208 82.0298 365.636V357.182ZM91.3722 371.273V359.273H93.7585V360.739H93.8665C93.9725 360.504 94.1259 360.265 94.3267 360.023C94.5313 359.777 94.7964 359.572 95.1222 359.409C95.4517 359.242 95.8608 359.159 96.3494 359.159C96.9858 359.159 97.5729 359.326 98.1108 359.659C98.6487 359.989 99.0786 360.487 99.4006 361.153C99.7225 361.816 99.8835 362.648 99.8835 363.648C99.8835 364.621 99.7263 365.443 99.4119 366.114C99.1013 366.78 98.6771 367.286 98.1392 367.631C97.6051 367.972 97.0066 368.142 96.3438 368.142C95.8741 368.142 95.4744 368.064 95.1449 367.909C94.8191 367.754 94.5521 367.559 94.3438 367.324C94.1354 367.085 93.9763 366.845 93.8665 366.602H93.7926V371.273H91.3722ZM93.7415 363.636C93.7415 364.155 93.8134 364.608 93.9574 364.994C94.1013 365.381 94.3097 365.682 94.5824 365.898C94.8551 366.11 95.1866 366.216 95.5767 366.216C95.9706 366.216 96.304 366.108 96.5767 365.892C96.8494 365.672 97.0559 365.369 97.196 364.983C97.34 364.593 97.4119 364.144 97.4119 363.636C97.4119 363.133 97.3419 362.689 97.2017 362.307C97.0616 361.924 96.8551 361.625 96.5824 361.409C96.3097 361.193 95.9744 361.085 95.5767 361.085C95.1828 361.085 94.8494 361.189 94.5767 361.398C94.3078 361.606 94.1013 361.902 93.9574 362.284C93.8134 362.667 93.7415 363.117 93.7415 363.636ZM105.44 368.17C104.558 368.17 103.795 367.983 103.151 367.608C102.51 367.229 102.016 366.703 101.668 366.028C101.319 365.35 101.145 364.564 101.145 363.67C101.145 362.769 101.319 361.981 101.668 361.307C102.016 360.629 102.51 360.102 103.151 359.727C103.795 359.348 104.558 359.159 105.44 359.159C106.323 359.159 107.084 359.348 107.724 359.727C108.368 360.102 108.865 360.629 109.213 361.307C109.562 361.981 109.736 362.769 109.736 363.67C109.736 364.564 109.562 365.35 109.213 366.028C108.865 366.703 108.368 367.229 107.724 367.608C107.084 367.983 106.323 368.17 105.44 368.17ZM105.452 366.295C105.853 366.295 106.188 366.182 106.457 365.955C106.726 365.723 106.929 365.409 107.065 365.011C107.205 364.614 107.276 364.161 107.276 363.653C107.276 363.146 107.205 362.693 107.065 362.295C106.929 361.898 106.726 361.583 106.457 361.352C106.188 361.121 105.853 361.006 105.452 361.006C105.046 361.006 104.705 361.121 104.429 361.352C104.156 361.583 103.95 361.898 103.81 362.295C103.673 362.693 103.605 363.146 103.605 363.653C103.605 364.161 103.673 364.614 103.81 365.011C103.95 365.409 104.156 365.723 104.429 365.955C104.705 366.182 105.046 366.295 105.452 366.295ZM115.253 368.17C114.37 368.17 113.607 367.983 112.963 367.608C112.323 367.229 111.829 366.703 111.48 366.028C111.132 365.35 110.957 364.564 110.957 363.67C110.957 362.769 111.132 361.981 111.48 361.307C111.829 360.629 112.323 360.102 112.963 359.727C113.607 359.348 114.37 359.159 115.253 359.159C116.135 359.159 116.897 359.348 117.537 359.727C118.181 360.102 118.677 360.629 119.026 361.307C119.374 361.981 119.548 362.769 119.548 363.67C119.548 364.564 119.374 365.35 119.026 366.028C118.677 366.703 118.181 367.229 117.537 367.608C116.897 367.983 116.135 368.17 115.253 368.17ZM115.264 366.295C115.666 366.295 116.001 366.182 116.27 365.955C116.539 365.723 116.741 365.409 116.878 365.011C117.018 364.614 117.088 364.161 117.088 363.653C117.088 363.146 117.018 362.693 116.878 362.295C116.741 361.898 116.539 361.583 116.27 361.352C116.001 361.121 115.666 361.006 115.264 361.006C114.859 361.006 114.518 361.121 114.241 361.352C113.969 361.583 113.762 361.898 113.622 362.295C113.486 362.693 113.418 363.146 113.418 363.653C113.418 364.161 113.486 364.614 113.622 365.011C113.762 365.409 113.969 365.723 114.241 365.955C114.518 366.182 114.859 366.295 115.264 366.295ZM123.543 356.364V368H121.122V356.364H123.543ZM126.896 368.148C126.521 368.148 126.199 368.015 125.93 367.75C125.665 367.481 125.533 367.159 125.533 366.784C125.533 366.413 125.665 366.095 125.93 365.83C126.199 365.564 126.521 365.432 126.896 365.432C127.26 365.432 127.578 365.564 127.851 365.83C128.124 366.095 128.26 366.413 128.26 366.784C128.26 367.034 128.196 367.263 128.067 367.472C127.942 367.676 127.777 367.841 127.572 367.966C127.368 368.087 127.143 368.148 126.896 368.148ZM126.896 362.034C126.521 362.034 126.199 361.902 125.93 361.636C125.665 361.371 125.533 361.049 125.533 360.67C125.533 360.299 125.665 359.983 125.93 359.722C126.199 359.456 126.521 359.324 126.896 359.324C127.26 359.324 127.578 359.456 127.851 359.722C128.124 359.983 128.26 360.299 128.26 360.67C128.26 360.924 128.196 361.155 128.067 361.364C127.942 361.568 127.777 361.731 127.572 361.852C127.368 361.973 127.143 362.034 126.896 362.034ZM134.388 368L139.212 358.455V358.375H133.592V356.364H141.757V358.403L136.928 368H134.388ZM147.756 368.256C146.778 368.252 145.938 368.011 145.233 367.534C144.532 367.057 143.992 366.366 143.614 365.46C143.239 364.555 143.053 363.466 143.057 362.193C143.057 360.924 143.244 359.843 143.619 358.949C143.998 358.055 144.538 357.375 145.239 356.909C145.943 356.439 146.782 356.205 147.756 356.205C148.729 356.205 149.566 356.439 150.267 356.909C150.972 357.379 151.513 358.061 151.892 358.955C152.271 359.845 152.458 360.924 152.455 362.193C152.455 363.47 152.265 364.561 151.886 365.466C151.511 366.371 150.973 367.062 150.273 367.54C149.572 368.017 148.733 368.256 147.756 368.256ZM147.756 366.216C148.422 366.216 148.955 365.881 149.352 365.21C149.75 364.54 149.947 363.534 149.943 362.193C149.943 361.311 149.852 360.576 149.67 359.989C149.492 359.402 149.239 358.96 148.909 358.665C148.583 358.369 148.199 358.222 147.756 358.222C147.093 358.222 146.563 358.553 146.165 359.216C145.767 359.879 145.566 360.871 145.562 362.193C145.562 363.087 145.652 363.833 145.83 364.432C146.011 365.027 146.267 365.473 146.597 365.773C146.926 366.068 147.312 366.216 147.756 366.216ZM160.578 365.818V365.205C160.578 364.739 160.677 364.311 160.874 363.92C161.074 363.527 161.364 363.212 161.743 362.977C162.125 362.739 162.591 362.619 163.141 362.619C163.697 362.619 164.165 362.737 164.544 362.972C164.927 363.206 165.214 363.521 165.408 363.915C165.605 364.305 165.703 364.735 165.703 365.205V365.818C165.703 366.284 165.605 366.714 165.408 367.108C165.211 367.498 164.921 367.811 164.538 368.045C164.156 368.284 163.69 368.403 163.141 368.403C162.584 368.403 162.116 368.284 161.737 368.045C161.358 367.811 161.071 367.498 160.874 367.108C160.677 366.714 160.578 366.284 160.578 365.818ZM162.232 365.205V365.818C162.232 366.087 162.296 366.341 162.425 366.58C162.557 366.818 162.796 366.938 163.141 366.938C163.485 366.938 163.72 366.82 163.845 366.585C163.974 366.35 164.038 366.095 164.038 365.818V365.205C164.038 364.928 163.978 364.67 163.857 364.432C163.735 364.193 163.497 364.074 163.141 364.074C162.8 364.074 162.563 364.193 162.43 364.432C162.298 364.67 162.232 364.928 162.232 365.205ZM154.607 359.159V358.545C154.607 358.076 154.707 357.646 154.908 357.256C155.108 356.862 155.398 356.547 155.777 356.312C156.16 356.078 156.622 355.96 157.163 355.96C157.724 355.96 158.194 356.078 158.572 356.312C158.951 356.547 159.239 356.862 159.436 357.256C159.633 357.646 159.732 358.076 159.732 358.545V359.159C159.732 359.629 159.631 360.059 159.43 360.449C159.233 360.839 158.944 361.152 158.561 361.386C158.182 361.617 157.716 361.733 157.163 361.733C156.61 361.733 156.143 361.616 155.76 361.381C155.381 361.142 155.093 360.83 154.896 360.443C154.703 360.053 154.607 359.625 154.607 359.159ZM156.271 358.545V359.159C156.271 359.436 156.336 359.691 156.464 359.926C156.597 360.161 156.83 360.278 157.163 360.278C157.512 360.278 157.749 360.161 157.874 359.926C158.002 359.691 158.067 359.436 158.067 359.159V358.545C158.067 358.269 158.006 358.011 157.885 357.773C157.764 357.534 157.523 357.415 157.163 357.415C156.826 357.415 156.593 357.536 156.464 357.778C156.336 358.021 156.271 358.277 156.271 358.545ZM155.357 368L163.357 356.364H164.845L156.845 368H155.357ZM28.1364 392H24.0114V380.364H28.1705C29.3409 380.364 30.3485 380.597 31.1932 381.062C32.0379 381.525 32.6875 382.189 33.142 383.057C33.6004 383.924 33.8295 384.962 33.8295 386.17C33.8295 387.383 33.6004 388.424 33.142 389.295C32.6875 390.167 32.0341 390.835 31.1818 391.301C30.3333 391.767 29.3182 392 28.1364 392ZM26.4716 389.892H28.0341C28.7614 389.892 29.3731 389.763 29.8693 389.506C30.3693 389.244 30.7443 388.841 30.9943 388.295C31.2481 387.746 31.375 387.038 31.375 386.17C31.375 385.311 31.2481 384.608 30.9943 384.062C30.7443 383.517 30.3712 383.116 29.875 382.858C29.3788 382.6 28.767 382.472 28.0398 382.472H26.4716V389.892ZM39.5838 392.17C38.6861 392.17 37.9134 391.989 37.2656 391.625C36.6217 391.258 36.1255 390.739 35.777 390.068C35.4285 389.394 35.2543 388.597 35.2543 387.676C35.2543 386.778 35.4285 385.991 35.777 385.312C36.1255 384.634 36.616 384.106 37.2486 383.727C37.8849 383.348 38.6312 383.159 39.4872 383.159C40.063 383.159 40.599 383.252 41.0952 383.438C41.5952 383.619 42.0308 383.894 42.402 384.261C42.777 384.629 43.0687 385.091 43.277 385.648C43.4853 386.201 43.5895 386.848 43.5895 387.591V388.256H36.2202V386.756H41.3111C41.3111 386.407 41.2353 386.098 41.0838 385.83C40.9323 385.561 40.7221 385.35 40.4531 385.199C40.188 385.044 39.8793 384.966 39.527 384.966C39.1596 384.966 38.8338 385.051 38.5497 385.222C38.2694 385.388 38.0497 385.614 37.8906 385.898C37.7315 386.178 37.6501 386.491 37.6463 386.835V388.261C37.6463 388.693 37.7259 389.066 37.8849 389.381C38.0478 389.695 38.277 389.938 38.5724 390.108C38.8679 390.278 39.2183 390.364 39.6236 390.364C39.8925 390.364 40.1387 390.326 40.3622 390.25C40.5857 390.174 40.777 390.061 40.9361 389.909C41.0952 389.758 41.2164 389.572 41.2997 389.352L43.5384 389.5C43.4247 390.038 43.1918 390.508 42.8395 390.909C42.491 391.307 42.0402 391.617 41.4872 391.841C40.938 392.061 40.3035 392.17 39.5838 392.17ZM53.071 383.273L50.0199 392H47.2926L44.2415 383.273H46.7983L48.6108 389.517H48.7017L50.5085 383.273H53.071ZM58.0057 392.17C57.108 392.17 56.3352 391.989 55.6875 391.625C55.0436 391.258 54.5473 390.739 54.1989 390.068C53.8504 389.394 53.6761 388.597 53.6761 387.676C53.6761 386.778 53.8504 385.991 54.1989 385.312C54.5473 384.634 55.0379 384.106 55.6705 383.727C56.3068 383.348 57.053 383.159 57.9091 383.159C58.4848 383.159 59.0208 383.252 59.517 383.438C60.017 383.619 60.4527 383.894 60.8239 384.261C61.1989 384.629 61.4905 385.091 61.6989 385.648C61.9072 386.201 62.0114 386.848 62.0114 387.591V388.256H54.642V386.756H59.733C59.733 386.407 59.6572 386.098 59.5057 385.83C59.3542 385.561 59.1439 385.35 58.875 385.199C58.6098 385.044 58.3011 384.966 57.9489 384.966C57.5814 384.966 57.2557 385.051 56.9716 385.222C56.6913 385.388 56.4716 385.614 56.3125 385.898C56.1534 386.178 56.072 386.491 56.0682 386.835V388.261C56.0682 388.693 56.1477 389.066 56.3068 389.381C56.4697 389.695 56.6989 389.938 56.9943 390.108C57.2898 390.278 57.6402 390.364 58.0455 390.364C58.3144 390.364 58.5606 390.326 58.7841 390.25C59.0076 390.174 59.1989 390.061 59.358 389.909C59.517 389.758 59.6383 389.572 59.7216 389.352L61.9602 389.5C61.8466 390.038 61.6136 390.508 61.2614 390.909C60.9129 391.307 60.4621 391.617 59.9091 391.841C59.3598 392.061 58.7254 392.17 58.0057 392.17ZM66.0114 380.364V392H63.5909V380.364H66.0114ZM71.8935 392.17C71.0109 392.17 70.2476 391.983 69.6037 391.608C68.9635 391.229 68.4692 390.703 68.1207 390.028C67.7723 389.35 67.598 388.564 67.598 387.67C67.598 386.769 67.7723 385.981 68.1207 385.307C68.4692 384.629 68.9635 384.102 69.6037 383.727C70.2476 383.348 71.0109 383.159 71.8935 383.159C72.776 383.159 73.5374 383.348 74.1776 383.727C74.8215 384.102 75.3177 384.629 75.6662 385.307C76.0147 385.981 76.1889 386.769 76.1889 387.67C76.1889 388.564 76.0147 389.35 75.6662 390.028C75.3177 390.703 74.8215 391.229 74.1776 391.608C73.5374 391.983 72.776 392.17 71.8935 392.17ZM71.9048 390.295C72.3063 390.295 72.6416 390.182 72.9105 389.955C73.1795 389.723 73.3821 389.409 73.5185 389.011C73.6586 388.614 73.7287 388.161 73.7287 387.653C73.7287 387.146 73.6586 386.693 73.5185 386.295C73.3821 385.898 73.1795 385.583 72.9105 385.352C72.6416 385.121 72.3063 385.006 71.9048 385.006C71.4995 385.006 71.1586 385.121 70.8821 385.352C70.6094 385.583 70.4029 385.898 70.2628 386.295C70.1264 386.693 70.0582 387.146 70.0582 387.653C70.0582 388.161 70.1264 388.614 70.2628 389.011C70.4029 389.409 70.6094 389.723 70.8821 389.955C71.1586 390.182 71.4995 390.295 71.9048 390.295ZM77.7628 395.273V383.273H80.1491V384.739H80.2571C80.3632 384.504 80.5166 384.265 80.7173 384.023C80.9219 383.777 81.187 383.572 81.5128 383.409C81.8423 383.242 82.2514 383.159 82.7401 383.159C83.3764 383.159 83.9635 383.326 84.5014 383.659C85.0393 383.989 85.4692 384.487 85.7912 385.153C86.1132 385.816 86.2741 386.648 86.2741 387.648C86.2741 388.621 86.117 389.443 85.8026 390.114C85.492 390.78 85.0677 391.286 84.5298 391.631C83.9957 391.972 83.3973 392.142 82.7344 392.142C82.2647 392.142 81.8651 392.064 81.5355 391.909C81.2098 391.754 80.9427 391.559 80.7344 391.324C80.526 391.085 80.367 390.845 80.2571 390.602H80.1832V395.273H77.7628ZM80.1321 387.636C80.1321 388.155 80.2041 388.608 80.348 388.994C80.492 389.381 80.7003 389.682 80.973 389.898C81.2457 390.11 81.5772 390.216 81.9673 390.216C82.3613 390.216 82.6946 390.108 82.9673 389.892C83.2401 389.672 83.4465 389.369 83.5866 388.983C83.7306 388.593 83.8026 388.144 83.8026 387.636C83.8026 387.133 83.7325 386.689 83.5923 386.307C83.4522 385.924 83.2457 385.625 82.973 385.409C82.7003 385.193 82.3651 385.085 81.9673 385.085C81.5734 385.085 81.2401 385.189 80.9673 385.398C80.6984 385.606 80.492 385.902 80.348 386.284C80.2041 386.667 80.1321 387.117 80.1321 387.636ZM87.8878 392V383.273H90.1946V384.812H90.2969C90.4787 384.301 90.7817 383.898 91.206 383.602C91.6302 383.307 92.1378 383.159 92.7287 383.159C93.3272 383.159 93.8366 383.309 94.2571 383.608C94.6776 383.903 94.9579 384.305 95.098 384.812H95.1889C95.367 384.312 95.6889 383.913 96.1548 383.614C96.6245 383.311 97.1795 383.159 97.8196 383.159C98.634 383.159 99.295 383.419 99.8026 383.938C100.314 384.453 100.57 385.184 100.57 386.131V392H98.1548V386.608C98.1548 386.123 98.026 385.759 97.7685 385.517C97.5109 385.275 97.1889 385.153 96.8026 385.153C96.3632 385.153 96.0204 385.294 95.7741 385.574C95.5279 385.85 95.4048 386.216 95.4048 386.67V392H93.0582V386.557C93.0582 386.129 92.9351 385.788 92.6889 385.534C92.4465 385.28 92.1264 385.153 91.7287 385.153C91.4598 385.153 91.2173 385.222 91.0014 385.358C90.7893 385.491 90.6207 385.678 90.4957 385.92C90.3707 386.159 90.3082 386.439 90.3082 386.761V392H87.8878ZM106.459 392.17C105.561 392.17 104.788 391.989 104.141 391.625C103.497 391.258 103 390.739 102.652 390.068C102.304 389.394 102.129 388.597 102.129 387.676C102.129 386.778 102.304 385.991 102.652 385.312C103 384.634 103.491 384.106 104.124 383.727C104.76 383.348 105.506 383.159 106.362 383.159C106.938 383.159 107.474 383.252 107.97 383.438C108.47 383.619 108.906 383.894 109.277 384.261C109.652 384.629 109.944 385.091 110.152 385.648C110.36 386.201 110.464 386.848 110.464 387.591V388.256H103.095V386.756H108.186C108.186 386.407 108.11 386.098 107.959 385.83C107.807 385.561 107.597 385.35 107.328 385.199C107.063 385.044 106.754 384.966 106.402 384.966C106.035 384.966 105.709 385.051 105.425 385.222C105.144 385.388 104.925 385.614 104.766 385.898C104.607 386.178 104.525 386.491 104.521 386.835V388.261C104.521 388.693 104.601 389.066 104.76 389.381C104.923 389.695 105.152 389.938 105.447 390.108C105.743 390.278 106.093 390.364 106.499 390.364C106.768 390.364 107.014 390.326 107.237 390.25C107.461 390.174 107.652 390.061 107.811 389.909C107.97 389.758 108.091 389.572 108.175 389.352L110.413 389.5C110.3 390.038 110.067 390.508 109.714 390.909C109.366 391.307 108.915 391.617 108.362 391.841C107.813 392.061 107.179 392.17 106.459 392.17ZM114.464 386.955V392H112.044V383.273H114.351V384.812H114.453C114.646 384.305 114.97 383.903 115.425 383.608C115.879 383.309 116.43 383.159 117.078 383.159C117.684 383.159 118.213 383.292 118.663 383.557C119.114 383.822 119.464 384.201 119.714 384.693C119.964 385.182 120.089 385.765 120.089 386.443V392H117.669V386.875C117.673 386.341 117.536 385.924 117.26 385.625C116.983 385.322 116.603 385.17 116.118 385.17C115.792 385.17 115.504 385.241 115.254 385.381C115.008 385.521 114.815 385.725 114.675 385.994C114.538 386.259 114.468 386.58 114.464 386.955ZM126.639 383.273V385.091H121.384V383.273H126.639ZM122.577 381.182H124.997V389.318C124.997 389.542 125.031 389.716 125.099 389.841C125.168 389.962 125.262 390.047 125.384 390.097C125.509 390.146 125.652 390.17 125.815 390.17C125.929 390.17 126.043 390.161 126.156 390.142C126.27 390.119 126.357 390.102 126.418 390.091L126.798 391.892C126.677 391.93 126.507 391.973 126.287 392.023C126.067 392.076 125.8 392.108 125.486 392.119C124.902 392.142 124.391 392.064 123.952 391.886C123.516 391.708 123.177 391.432 122.935 391.057C122.692 390.682 122.573 390.208 122.577 389.636V381.182ZM133.284 379.818L129.534 393.75H127.449L131.199 379.818H133.284ZM138.393 392.17C137.511 392.17 136.748 391.983 136.104 391.608C135.464 391.229 134.969 390.703 134.621 390.028C134.272 389.35 134.098 388.564 134.098 387.67C134.098 386.769 134.272 385.981 134.621 385.307C134.969 384.629 135.464 384.102 136.104 383.727C136.748 383.348 137.511 383.159 138.393 383.159C139.276 383.159 140.037 383.348 140.678 383.727C141.321 384.102 141.818 384.629 142.166 385.307C142.515 385.981 142.689 386.769 142.689 387.67C142.689 388.564 142.515 389.35 142.166 390.028C141.818 390.703 141.321 391.229 140.678 391.608C140.037 391.983 139.276 392.17 138.393 392.17ZM138.405 390.295C138.806 390.295 139.142 390.182 139.411 389.955C139.679 389.723 139.882 389.409 140.018 389.011C140.159 388.614 140.229 388.161 140.229 387.653C140.229 387.146 140.159 386.693 140.018 386.295C139.882 385.898 139.679 385.583 139.411 385.352C139.142 385.121 138.806 385.006 138.405 385.006C138 385.006 137.659 385.121 137.382 385.352C137.109 385.583 136.903 385.898 136.763 386.295C136.626 386.693 136.558 387.146 136.558 387.653C136.558 388.161 136.626 388.614 136.763 389.011C136.903 389.409 137.109 389.723 137.382 389.955C137.659 390.182 138 390.295 138.405 390.295ZM144.263 395.273V383.273H146.649V384.739H146.757C146.863 384.504 147.017 384.265 147.217 384.023C147.422 383.777 147.687 383.572 148.013 383.409C148.342 383.242 148.751 383.159 149.24 383.159C149.876 383.159 150.464 383.326 151.001 383.659C151.539 383.989 151.969 384.487 152.291 385.153C152.613 385.816 152.774 386.648 152.774 387.648C152.774 388.621 152.617 389.443 152.303 390.114C151.992 390.78 151.568 391.286 151.03 391.631C150.496 391.972 149.897 392.142 149.234 392.142C148.765 392.142 148.365 392.064 148.036 391.909C147.71 391.754 147.443 391.559 147.234 391.324C147.026 391.085 146.867 390.845 146.757 390.602H146.683V395.273H144.263ZM146.632 387.636C146.632 388.155 146.704 388.608 146.848 388.994C146.992 389.381 147.2 389.682 147.473 389.898C147.746 390.11 148.077 390.216 148.467 390.216C148.861 390.216 149.195 390.108 149.467 389.892C149.74 389.672 149.946 389.369 150.087 388.983C150.231 388.593 150.303 388.144 150.303 387.636C150.303 387.133 150.232 386.689 150.092 386.307C149.952 385.924 149.746 385.625 149.473 385.409C149.2 385.193 148.865 385.085 148.467 385.085C148.073 385.085 147.74 385.189 147.467 385.398C147.198 385.606 146.992 385.902 146.848 386.284C146.704 386.667 146.632 387.117 146.632 387.636ZM158.365 392.17C157.467 392.17 156.695 391.989 156.047 391.625C155.403 391.258 154.907 390.739 154.558 390.068C154.21 389.394 154.036 388.597 154.036 387.676C154.036 386.778 154.21 385.991 154.558 385.312C154.907 384.634 155.397 384.106 156.03 383.727C156.666 383.348 157.412 383.159 158.268 383.159C158.844 383.159 159.38 383.252 159.876 383.438C160.376 383.619 160.812 383.894 161.183 384.261C161.558 384.629 161.85 385.091 162.058 385.648C162.267 386.201 162.371 386.848 162.371 387.591V388.256H155.001V386.756H160.092C160.092 386.407 160.017 386.098 159.865 385.83C159.714 385.561 159.503 385.35 159.234 385.199C158.969 385.044 158.661 384.966 158.308 384.966C157.941 384.966 157.615 385.051 157.331 385.222C157.051 385.388 156.831 385.614 156.672 385.898C156.513 386.178 156.431 386.491 156.428 386.835V388.261C156.428 388.693 156.507 389.066 156.666 389.381C156.829 389.695 157.058 389.938 157.354 390.108C157.649 390.278 158 390.364 158.405 390.364C158.674 390.364 158.92 390.326 159.143 390.25C159.367 390.174 159.558 390.061 159.717 389.909C159.876 389.758 159.998 389.572 160.081 389.352L162.32 389.5C162.206 390.038 161.973 390.508 161.621 390.909C161.272 391.307 160.821 391.617 160.268 391.841C159.719 392.061 159.085 392.17 158.365 392.17ZM163.95 392V383.273H166.297V384.795H166.388C166.547 384.254 166.814 383.845 167.189 383.568C167.564 383.288 167.996 383.148 168.484 383.148C168.606 383.148 168.736 383.155 168.876 383.17C169.017 383.186 169.14 383.206 169.246 383.233V385.381C169.132 385.347 168.975 385.316 168.774 385.29C168.573 385.263 168.39 385.25 168.223 385.25C167.867 385.25 167.549 385.328 167.268 385.483C166.992 385.634 166.772 385.847 166.609 386.119C166.45 386.392 166.371 386.706 166.371 387.062V392H163.95ZM172.736 392.165C172.179 392.165 171.683 392.068 171.247 391.875C170.812 391.678 170.467 391.388 170.213 391.006C169.963 390.619 169.838 390.138 169.838 389.562C169.838 389.078 169.927 388.67 170.105 388.341C170.283 388.011 170.526 387.746 170.832 387.545C171.139 387.345 171.488 387.193 171.878 387.091C172.272 386.989 172.685 386.917 173.116 386.875C173.624 386.822 174.033 386.773 174.344 386.727C174.654 386.678 174.88 386.606 175.02 386.511C175.16 386.417 175.23 386.277 175.23 386.091V386.057C175.23 385.697 175.116 385.419 174.889 385.222C174.666 385.025 174.348 384.926 173.935 384.926C173.499 384.926 173.152 385.023 172.895 385.216C172.637 385.405 172.467 385.644 172.384 385.932L170.145 385.75C170.259 385.22 170.482 384.761 170.815 384.375C171.149 383.985 171.579 383.686 172.105 383.477C172.635 383.265 173.249 383.159 173.946 383.159C174.431 383.159 174.895 383.216 175.338 383.33C175.785 383.443 176.181 383.619 176.526 383.858C176.874 384.097 177.149 384.403 177.349 384.778C177.55 385.15 177.651 385.595 177.651 386.114V392H175.355V390.79H175.287C175.147 391.062 174.959 391.303 174.724 391.511C174.49 391.716 174.207 391.877 173.878 391.994C173.548 392.108 173.168 392.165 172.736 392.165ZM173.429 390.494C173.785 390.494 174.099 390.424 174.372 390.284C174.645 390.14 174.859 389.947 175.014 389.705C175.17 389.462 175.247 389.187 175.247 388.881V387.955C175.171 388.004 175.067 388.049 174.935 388.091C174.806 388.129 174.66 388.165 174.497 388.199C174.334 388.229 174.171 388.258 174.009 388.284C173.846 388.307 173.698 388.328 173.565 388.347C173.281 388.388 173.033 388.455 172.821 388.545C172.609 388.636 172.444 388.759 172.327 388.915C172.209 389.066 172.151 389.256 172.151 389.483C172.151 389.812 172.27 390.064 172.509 390.239C172.751 390.409 173.058 390.494 173.429 390.494ZM184.17 383.273V385.091H178.915V383.273H184.17ZM180.108 381.182H182.528V389.318C182.528 389.542 182.563 389.716 182.631 389.841C182.699 389.962 182.794 390.047 182.915 390.097C183.04 390.146 183.184 390.17 183.347 390.17C183.46 390.17 183.574 390.161 183.688 390.142C183.801 390.119 183.888 390.102 183.949 390.091L184.33 391.892C184.208 391.93 184.038 391.973 183.818 392.023C183.598 392.076 183.331 392.108 183.017 392.119C182.434 392.142 181.922 392.064 181.483 391.886C181.047 391.708 180.708 391.432 180.466 391.057C180.223 390.682 180.104 390.208 180.108 389.636V381.182ZM185.747 392V383.273H188.168V392H185.747ZM186.963 382.148C186.603 382.148 186.295 382.028 186.037 381.79C185.783 381.547 185.656 381.258 185.656 380.92C185.656 380.587 185.783 380.301 186.037 380.062C186.295 379.82 186.603 379.699 186.963 379.699C187.323 379.699 187.63 379.82 187.884 380.062C188.141 380.301 188.27 380.587 188.27 380.92C188.27 381.258 188.141 381.547 187.884 381.79C187.63 382.028 187.323 382.148 186.963 382.148ZM194.05 392.17C193.167 392.17 192.404 391.983 191.76 391.608C191.12 391.229 190.625 390.703 190.277 390.028C189.929 389.35 189.754 388.564 189.754 387.67C189.754 386.769 189.929 385.981 190.277 385.307C190.625 384.629 191.12 384.102 191.76 383.727C192.404 383.348 193.167 383.159 194.05 383.159C194.932 383.159 195.694 383.348 196.334 383.727C196.978 384.102 197.474 384.629 197.822 385.307C198.171 385.981 198.345 386.769 198.345 387.67C198.345 388.564 198.171 389.35 197.822 390.028C197.474 390.703 196.978 391.229 196.334 391.608C195.694 391.983 194.932 392.17 194.05 392.17ZM194.061 390.295C194.463 390.295 194.798 390.182 195.067 389.955C195.336 389.723 195.538 389.409 195.675 389.011C195.815 388.614 195.885 388.161 195.885 387.653C195.885 387.146 195.815 386.693 195.675 386.295C195.538 385.898 195.336 385.583 195.067 385.352C194.798 385.121 194.463 385.006 194.061 385.006C193.656 385.006 193.315 385.121 193.038 385.352C192.766 385.583 192.559 385.898 192.419 386.295C192.283 386.693 192.214 387.146 192.214 387.653C192.214 388.161 192.283 388.614 192.419 389.011C192.559 389.409 192.766 389.723 193.038 389.955C193.315 390.182 193.656 390.295 194.061 390.295ZM202.339 386.955V392H199.919V383.273H202.226V384.812H202.328C202.521 384.305 202.845 383.903 203.3 383.608C203.754 383.309 204.305 383.159 204.953 383.159C205.559 383.159 206.088 383.292 206.538 383.557C206.989 383.822 207.339 384.201 207.589 384.693C207.839 385.182 207.964 385.765 207.964 386.443V392H205.544V386.875C205.548 386.341 205.411 385.924 205.135 385.625C204.858 385.322 204.478 385.17 203.993 385.17C203.667 385.17 203.379 385.241 203.129 385.381C202.883 385.521 202.69 385.725 202.55 385.994C202.413 386.259 202.343 386.58 202.339 386.955ZM211.287 392.148C210.912 392.148 210.59 392.015 210.321 391.75C210.056 391.481 209.923 391.159 209.923 390.784C209.923 390.413 210.056 390.095 210.321 389.83C210.59 389.564 210.912 389.432 211.287 389.432C211.651 389.432 211.969 389.564 212.241 389.83C212.514 390.095 212.651 390.413 212.651 390.784C212.651 391.034 212.586 391.263 212.457 391.472C212.332 391.676 212.168 391.841 211.963 391.966C211.759 392.087 211.533 392.148 211.287 392.148ZM211.287 386.034C210.912 386.034 210.59 385.902 210.321 385.636C210.056 385.371 209.923 385.049 209.923 384.67C209.923 384.299 210.056 383.983 210.321 383.722C210.59 383.456 210.912 383.324 211.287 383.324C211.651 383.324 211.969 383.456 212.241 383.722C212.514 383.983 212.651 384.299 212.651 384.67C212.651 384.924 212.586 385.155 212.457 385.364C212.332 385.568 212.168 385.731 211.963 385.852C211.759 385.973 211.533 386.034 211.287 386.034ZM218.318 392V390.227L222.46 386.392C222.813 386.051 223.108 385.744 223.347 385.472C223.589 385.199 223.773 384.932 223.898 384.67C224.023 384.405 224.085 384.119 224.085 383.812C224.085 383.472 224.008 383.178 223.852 382.932C223.697 382.682 223.485 382.491 223.216 382.358C222.947 382.222 222.642 382.153 222.301 382.153C221.945 382.153 221.634 382.225 221.369 382.369C221.104 382.513 220.9 382.72 220.756 382.989C220.612 383.258 220.54 383.578 220.54 383.949H218.205C218.205 383.187 218.377 382.527 218.722 381.966C219.066 381.405 219.549 380.972 220.17 380.665C220.792 380.358 221.508 380.205 222.318 380.205C223.152 380.205 223.877 380.352 224.494 380.648C225.116 380.939 225.598 381.345 225.943 381.864C226.288 382.383 226.46 382.977 226.46 383.648C226.46 384.087 226.373 384.521 226.199 384.949C226.028 385.377 225.723 385.852 225.284 386.375C224.845 386.894 224.225 387.517 223.426 388.244L221.727 389.909V389.989H226.614V392H218.318ZM232.959 392.256C231.982 392.252 231.141 392.011 230.436 391.534C229.735 391.057 229.196 390.366 228.817 389.46C228.442 388.555 228.256 387.466 228.26 386.193C228.26 384.924 228.447 383.843 228.822 382.949C229.201 382.055 229.741 381.375 230.442 380.909C231.146 380.439 231.985 380.205 232.959 380.205C233.932 380.205 234.769 380.439 235.47 380.909C236.175 381.379 236.716 382.061 237.095 382.955C237.474 383.845 237.661 384.924 237.658 386.193C237.658 387.47 237.468 388.561 237.089 389.466C236.714 390.371 236.177 391.062 235.476 391.54C234.775 392.017 233.936 392.256 232.959 392.256ZM232.959 390.216C233.625 390.216 234.158 389.881 234.555 389.21C234.953 388.54 235.15 387.534 235.146 386.193C235.146 385.311 235.055 384.576 234.874 383.989C234.696 383.402 234.442 382.96 234.112 382.665C233.786 382.369 233.402 382.222 232.959 382.222C232.296 382.222 231.766 382.553 231.368 383.216C230.97 383.879 230.769 384.871 230.766 386.193C230.766 387.087 230.855 387.833 231.033 388.432C231.214 389.027 231.47 389.473 231.8 389.773C232.129 390.068 232.516 390.216 232.959 390.216ZM245.781 389.818V389.205C245.781 388.739 245.88 388.311 246.077 387.92C246.277 387.527 246.567 387.212 246.946 386.977C247.329 386.739 247.795 386.619 248.344 386.619C248.901 386.619 249.368 386.737 249.747 386.972C250.13 387.206 250.418 387.521 250.611 387.915C250.808 388.305 250.906 388.735 250.906 389.205V389.818C250.906 390.284 250.808 390.714 250.611 391.108C250.414 391.498 250.124 391.811 249.741 392.045C249.359 392.284 248.893 392.403 248.344 392.403C247.787 392.403 247.319 392.284 246.94 392.045C246.562 391.811 246.274 391.498 246.077 391.108C245.88 390.714 245.781 390.284 245.781 389.818ZM247.435 389.205V389.818C247.435 390.087 247.499 390.341 247.628 390.58C247.76 390.818 247.999 390.938 248.344 390.938C248.688 390.938 248.923 390.82 249.048 390.585C249.177 390.35 249.241 390.095 249.241 389.818V389.205C249.241 388.928 249.181 388.67 249.06 388.432C248.938 388.193 248.7 388.074 248.344 388.074C248.003 388.074 247.766 388.193 247.634 388.432C247.501 388.67 247.435 388.928 247.435 389.205ZM239.81 383.159V382.545C239.81 382.076 239.91 381.646 240.111 381.256C240.312 380.862 240.601 380.547 240.98 380.312C241.363 380.078 241.825 379.96 242.366 379.96C242.927 379.96 243.397 380.078 243.776 380.312C244.154 380.547 244.442 380.862 244.639 381.256C244.836 381.646 244.935 382.076 244.935 382.545V383.159C244.935 383.629 244.834 384.059 244.634 384.449C244.437 384.839 244.147 385.152 243.764 385.386C243.385 385.617 242.92 385.733 242.366 385.733C241.813 385.733 241.346 385.616 240.963 385.381C240.584 385.142 240.296 384.83 240.099 384.443C239.906 384.053 239.81 383.625 239.81 383.159ZM241.474 382.545V383.159C241.474 383.436 241.539 383.691 241.668 383.926C241.8 384.161 242.033 384.278 242.366 384.278C242.715 384.278 242.952 384.161 243.077 383.926C243.205 383.691 243.27 383.436 243.27 383.159V382.545C243.27 382.269 243.209 382.011 243.088 381.773C242.967 381.534 242.726 381.415 242.366 381.415C242.029 381.415 241.796 381.536 241.668 381.778C241.539 382.021 241.474 382.277 241.474 382.545ZM240.56 392L248.56 380.364H250.048L242.048 392H240.56ZM24.0114 416V404.364H31.8523V406.392H26.4716V409.165H31.4489V411.193H26.4716V413.972H31.875V416H24.0114ZM33.7628 416V407.273H36.0696V408.812H36.1719C36.3537 408.301 36.6567 407.898 37.081 407.602C37.5052 407.307 38.0128 407.159 38.6037 407.159C39.2022 407.159 39.7116 407.309 40.1321 407.608C40.5526 407.903 40.8329 408.305 40.973 408.812H41.0639C41.242 408.312 41.5639 407.913 42.0298 407.614C42.4995 407.311 43.0545 407.159 43.6946 407.159C44.509 407.159 45.17 407.419 45.6776 407.938C46.1889 408.453 46.4446 409.184 46.4446 410.131V416H44.0298V410.608C44.0298 410.123 43.901 409.759 43.6435 409.517C43.3859 409.275 43.0639 409.153 42.6776 409.153C42.2382 409.153 41.8954 409.294 41.6491 409.574C41.4029 409.85 41.2798 410.216 41.2798 410.67V416H38.9332V410.557C38.9332 410.129 38.8101 409.788 38.5639 409.534C38.3215 409.28 38.0014 409.153 37.6037 409.153C37.3348 409.153 37.0923 409.222 36.8764 409.358C36.6643 409.491 36.4957 409.678 36.3707 409.92C36.2457 410.159 36.1832 410.439 36.1832 410.761V416H33.7628ZM52.3338 416.17C51.4361 416.17 50.6634 415.989 50.0156 415.625C49.3717 415.258 48.8755 414.739 48.527 414.068C48.1785 413.394 48.0043 412.597 48.0043 411.676C48.0043 410.778 48.1785 409.991 48.527 409.312C48.8755 408.634 49.366 408.106 49.9986 407.727C50.6349 407.348 51.3812 407.159 52.2372 407.159C52.813 407.159 53.349 407.252 53.8452 407.438C54.3452 407.619 54.7808 407.894 55.152 408.261C55.527 408.629 55.8187 409.091 56.027 409.648C56.2353 410.201 56.3395 410.848 56.3395 411.591V412.256H48.9702V410.756H54.0611C54.0611 410.407 53.9853 410.098 53.8338 409.83C53.6823 409.561 53.4721 409.35 53.2031 409.199C52.938 409.044 52.6293 408.966 52.277 408.966C51.9096 408.966 51.5838 409.051 51.2997 409.222C51.0194 409.388 50.7997 409.614 50.6406 409.898C50.4815 410.178 50.4001 410.491 50.3963 410.835V412.261C50.3963 412.693 50.4759 413.066 50.6349 413.381C50.7978 413.695 51.027 413.938 51.3224 414.108C51.6179 414.278 51.9683 414.364 52.3736 414.364C52.6425 414.364 52.8887 414.326 53.1122 414.25C53.3357 414.174 53.527 414.061 53.6861 413.909C53.8452 413.758 53.9664 413.572 54.0497 413.352L56.2884 413.5C56.1747 414.038 55.9418 414.508 55.5895 414.909C55.241 415.307 54.7902 415.617 54.2372 415.841C53.688 416.061 53.0535 416.17 52.3338 416.17ZM57.919 416V407.273H60.2656V408.795H60.3565C60.5156 408.254 60.7827 407.845 61.1577 407.568C61.5327 407.288 61.9645 407.148 62.4531 407.148C62.5743 407.148 62.705 407.155 62.8452 407.17C62.9853 407.186 63.1084 407.206 63.2145 407.233V409.381C63.1009 409.347 62.9437 409.316 62.7429 409.29C62.5421 409.263 62.3584 409.25 62.1918 409.25C61.8357 409.25 61.5175 409.328 61.2372 409.483C60.9607 409.634 60.741 409.847 60.5781 410.119C60.419 410.392 60.3395 410.706 60.3395 411.062V416H57.919ZM67.9915 419.455C67.2074 419.455 66.535 419.347 65.9744 419.131C65.4176 418.919 64.9744 418.629 64.6449 418.261C64.3153 417.894 64.1013 417.481 64.0028 417.023L66.2415 416.722C66.3097 416.896 66.4176 417.059 66.5653 417.21C66.7131 417.362 66.9081 417.483 67.1506 417.574C67.3968 417.669 67.696 417.716 68.0483 417.716C68.5748 417.716 69.0085 417.587 69.3494 417.33C69.6941 417.076 69.8665 416.65 69.8665 416.051V414.455H69.7642C69.6581 414.697 69.4991 414.926 69.2869 415.142C69.0748 415.358 68.8021 415.534 68.4688 415.67C68.1354 415.807 67.7377 415.875 67.2756 415.875C66.6203 415.875 66.0237 415.723 65.4858 415.42C64.9517 415.114 64.5256 414.646 64.2074 414.017C63.893 413.384 63.7358 412.585 63.7358 411.619C63.7358 410.631 63.8968 409.805 64.2188 409.142C64.5407 408.479 64.9688 407.983 65.5028 407.653C66.0407 407.324 66.6297 407.159 67.2699 407.159C67.7585 407.159 68.1676 407.242 68.4972 407.409C68.8267 407.572 69.0919 407.777 69.2926 408.023C69.4972 408.265 69.6544 408.504 69.7642 408.739H69.8551V407.273H72.2585V416.085C72.2585 416.828 72.0767 417.449 71.7131 417.949C71.3494 418.449 70.8456 418.824 70.2017 419.074C69.5616 419.328 68.8248 419.455 67.9915 419.455ZM68.0426 414.057C68.4328 414.057 68.7623 413.96 69.0312 413.767C69.304 413.57 69.5123 413.29 69.6562 412.926C69.804 412.559 69.8778 412.119 69.8778 411.608C69.8778 411.097 69.8059 410.653 69.6619 410.278C69.518 409.9 69.3097 409.606 69.0369 409.398C68.7642 409.189 68.4328 409.085 68.0426 409.085C67.6449 409.085 67.3097 409.193 67.0369 409.409C66.7642 409.621 66.5578 409.917 66.4176 410.295C66.2775 410.674 66.2074 411.112 66.2074 411.608C66.2074 412.112 66.2775 412.547 66.4176 412.915C66.5616 413.278 66.768 413.561 67.0369 413.761C67.3097 413.958 67.6449 414.057 68.0426 414.057ZM78.1619 416.17C77.2642 416.17 76.4915 415.989 75.8438 415.625C75.1998 415.258 74.7036 414.739 74.3551 414.068C74.0066 413.394 73.8324 412.597 73.8324 411.676C73.8324 410.778 74.0066 409.991 74.3551 409.312C74.7036 408.634 75.1941 408.106 75.8267 407.727C76.4631 407.348 77.2093 407.159 78.0653 407.159C78.6411 407.159 79.1771 407.252 79.6733 407.438C80.1733 407.619 80.6089 407.894 80.9801 408.261C81.3551 408.629 81.6468 409.091 81.8551 409.648C82.0634 410.201 82.1676 410.848 82.1676 411.591V412.256H74.7983V410.756H79.8892C79.8892 410.407 79.8134 410.098 79.6619 409.83C79.5104 409.561 79.3002 409.35 79.0312 409.199C78.7661 409.044 78.4574 408.966 78.1051 408.966C77.7377 408.966 77.4119 409.051 77.1278 409.222C76.8475 409.388 76.6278 409.614 76.4688 409.898C76.3097 410.178 76.2282 410.491 76.2244 410.835V412.261C76.2244 412.693 76.304 413.066 76.4631 413.381C76.6259 413.695 76.8551 413.938 77.1506 414.108C77.446 414.278 77.7964 414.364 78.2017 414.364C78.4706 414.364 78.7169 414.326 78.9403 414.25C79.1638 414.174 79.3551 414.061 79.5142 413.909C79.6733 413.758 79.7945 413.572 79.8778 413.352L82.1165 413.5C82.0028 414.038 81.7699 414.508 81.4176 414.909C81.0691 415.307 80.6184 415.617 80.0653 415.841C79.5161 416.061 78.8816 416.17 78.1619 416.17ZM86.1676 410.955V416H83.7472V407.273H86.054V408.812H86.1562C86.3494 408.305 86.6733 407.903 87.1278 407.608C87.5824 407.309 88.1335 407.159 88.7812 407.159C89.3873 407.159 89.9157 407.292 90.3665 407.557C90.8172 407.822 91.1676 408.201 91.4176 408.693C91.6676 409.182 91.7926 409.765 91.7926 410.443V416H89.3722V410.875C89.3759 410.341 89.2396 409.924 88.9631 409.625C88.6866 409.322 88.3059 409.17 87.821 409.17C87.4953 409.17 87.2074 409.241 86.9574 409.381C86.7112 409.521 86.518 409.725 86.3778 409.994C86.2415 410.259 86.1714 410.58 86.1676 410.955ZM97.6435 416.17C96.7495 416.17 95.9806 415.981 95.3366 415.602C94.6965 415.22 94.2041 414.689 93.8594 414.011C93.5185 413.333 93.348 412.553 93.348 411.67C93.348 410.777 93.5204 409.992 93.8651 409.318C94.2135 408.64 94.7079 408.112 95.348 407.733C95.9882 407.35 96.7495 407.159 97.6321 407.159C98.3935 407.159 99.0601 407.297 99.6321 407.574C100.204 407.85 100.657 408.239 100.99 408.739C101.323 409.239 101.507 409.826 101.541 410.5H99.2571C99.1927 410.064 99.0223 409.714 98.7457 409.449C98.473 409.18 98.1151 409.045 97.6719 409.045C97.2969 409.045 96.9692 409.148 96.6889 409.352C96.4124 409.553 96.1965 409.847 96.0412 410.233C95.8859 410.619 95.8082 411.087 95.8082 411.636C95.8082 412.193 95.884 412.667 96.0355 413.057C96.1908 413.447 96.4086 413.744 96.6889 413.949C96.9692 414.153 97.2969 414.256 97.6719 414.256C97.9484 414.256 98.1965 414.199 98.4162 414.085C98.6397 413.972 98.8234 413.807 98.9673 413.591C99.1151 413.371 99.2116 413.108 99.2571 412.801H101.541C101.503 413.468 101.321 414.055 100.996 414.562C100.674 415.066 100.229 415.46 99.6605 415.744C99.0923 416.028 98.42 416.17 97.6435 416.17ZM104.585 419.273C104.278 419.273 103.991 419.248 103.722 419.199C103.456 419.153 103.237 419.095 103.062 419.023L103.608 417.216C103.892 417.303 104.148 417.35 104.375 417.358C104.606 417.366 104.805 417.313 104.972 417.199C105.142 417.085 105.28 416.892 105.386 416.619L105.528 416.25L102.398 407.273H104.943L106.75 413.682H106.841L108.665 407.273H111.227L107.835 416.943C107.672 417.413 107.451 417.822 107.17 418.17C106.894 418.523 106.544 418.794 106.119 418.983C105.695 419.176 105.184 419.273 104.585 419.273ZM123.43 409.761L121.214 409.898C121.177 409.708 121.095 409.538 120.97 409.386C120.845 409.231 120.68 409.108 120.476 409.017C120.275 408.922 120.035 408.875 119.754 408.875C119.379 408.875 119.063 408.955 118.805 409.114C118.548 409.269 118.419 409.477 118.419 409.739C118.419 409.947 118.502 410.123 118.669 410.267C118.836 410.411 119.122 410.527 119.527 410.614L121.107 410.932C121.955 411.106 122.588 411.386 123.004 411.773C123.421 412.159 123.629 412.667 123.629 413.295C123.629 413.867 123.461 414.369 123.124 414.801C122.79 415.233 122.332 415.57 121.749 415.812C121.169 416.051 120.5 416.17 119.743 416.17C118.588 416.17 117.667 415.93 116.982 415.449C116.3 414.964 115.9 414.305 115.783 413.472L118.163 413.347C118.235 413.699 118.41 413.968 118.686 414.153C118.963 414.335 119.317 414.426 119.749 414.426C120.173 414.426 120.514 414.345 120.771 414.182C121.033 414.015 121.165 413.801 121.169 413.54C121.165 413.32 121.072 413.14 120.891 413C120.709 412.856 120.429 412.746 120.05 412.67L118.538 412.369C117.686 412.199 117.052 411.903 116.635 411.483C116.222 411.062 116.016 410.527 116.016 409.875C116.016 409.314 116.167 408.831 116.47 408.426C116.777 408.021 117.207 407.708 117.76 407.489C118.317 407.269 118.968 407.159 119.714 407.159C120.817 407.159 121.684 407.392 122.317 407.858C122.953 408.324 123.324 408.958 123.43 409.761ZM130.75 412.284V407.273H133.17V416H130.847V414.415H130.756C130.559 414.926 130.231 415.337 129.773 415.648C129.318 415.958 128.763 416.114 128.108 416.114C127.525 416.114 127.011 415.981 126.568 415.716C126.125 415.451 125.778 415.074 125.528 414.585C125.282 414.097 125.157 413.511 125.153 412.83V407.273H127.574V412.398C127.578 412.913 127.716 413.32 127.989 413.619C128.261 413.919 128.627 414.068 129.085 414.068C129.377 414.068 129.65 414.002 129.903 413.869C130.157 413.733 130.362 413.532 130.517 413.267C130.676 413.002 130.754 412.674 130.75 412.284ZM135.107 419.273V407.273H137.493V408.739H137.601C137.707 408.504 137.86 408.265 138.061 408.023C138.266 407.777 138.531 407.572 138.857 407.409C139.186 407.242 139.595 407.159 140.084 407.159C140.72 407.159 141.307 407.326 141.845 407.659C142.383 407.989 142.813 408.487 143.135 409.153C143.457 409.816 143.618 410.648 143.618 411.648C143.618 412.621 143.461 413.443 143.146 414.114C142.836 414.78 142.411 415.286 141.874 415.631C141.339 415.972 140.741 416.142 140.078 416.142C139.608 416.142 139.209 416.064 138.879 415.909C138.554 415.754 138.286 415.559 138.078 415.324C137.87 415.085 137.711 414.845 137.601 414.602H137.527V419.273H135.107ZM137.476 411.636C137.476 412.155 137.548 412.608 137.692 412.994C137.836 413.381 138.044 413.682 138.317 413.898C138.589 414.11 138.921 414.216 139.311 414.216C139.705 414.216 140.038 414.108 140.311 413.892C140.584 413.672 140.79 413.369 140.93 412.983C141.074 412.593 141.146 412.144 141.146 411.636C141.146 411.133 141.076 410.689 140.936 410.307C140.796 409.924 140.589 409.625 140.317 409.409C140.044 409.193 139.709 409.085 139.311 409.085C138.917 409.085 138.584 409.189 138.311 409.398C138.042 409.606 137.836 409.902 137.692 410.284C137.548 410.667 137.476 411.117 137.476 411.636ZM145.232 419.273V407.273H147.618V408.739H147.726C147.832 408.504 147.985 408.265 148.186 408.023C148.391 407.777 148.656 407.572 148.982 407.409C149.311 407.242 149.72 407.159 150.209 407.159C150.845 407.159 151.432 407.326 151.97 407.659C152.508 407.989 152.938 408.487 153.26 409.153C153.582 409.816 153.743 410.648 153.743 411.648C153.743 412.621 153.586 413.443 153.271 414.114C152.961 414.78 152.536 415.286 151.999 415.631C151.464 415.972 150.866 416.142 150.203 416.142C149.733 416.142 149.334 416.064 149.004 415.909C148.679 415.754 148.411 415.559 148.203 415.324C147.995 415.085 147.836 414.845 147.726 414.602H147.652V419.273H145.232ZM147.601 411.636C147.601 412.155 147.673 412.608 147.817 412.994C147.961 413.381 148.169 413.682 148.442 413.898C148.714 414.11 149.046 414.216 149.436 414.216C149.83 414.216 150.163 414.108 150.436 413.892C150.709 413.672 150.915 413.369 151.055 412.983C151.199 412.593 151.271 412.144 151.271 411.636C151.271 411.133 151.201 410.689 151.061 410.307C150.921 409.924 150.714 409.625 150.442 409.409C150.169 409.193 149.834 409.085 149.436 409.085C149.042 409.085 148.709 409.189 148.436 409.398C148.167 409.606 147.961 409.902 147.817 410.284C147.673 410.667 147.601 411.117 147.601 411.636ZM159.3 416.17C158.417 416.17 157.654 415.983 157.01 415.608C156.37 415.229 155.875 414.703 155.527 414.028C155.179 413.35 155.004 412.564 155.004 411.67C155.004 410.769 155.179 409.981 155.527 409.307C155.875 408.629 156.37 408.102 157.01 407.727C157.654 407.348 158.417 407.159 159.3 407.159C160.182 407.159 160.944 407.348 161.584 407.727C162.228 408.102 162.724 408.629 163.072 409.307C163.421 409.981 163.595 410.769 163.595 411.67C163.595 412.564 163.421 413.35 163.072 414.028C162.724 414.703 162.228 415.229 161.584 415.608C160.944 415.983 160.182 416.17 159.3 416.17ZM159.311 414.295C159.713 414.295 160.048 414.182 160.317 413.955C160.586 413.723 160.788 413.409 160.925 413.011C161.065 412.614 161.135 412.161 161.135 411.653C161.135 411.146 161.065 410.693 160.925 410.295C160.788 409.898 160.586 409.583 160.317 409.352C160.048 409.121 159.713 409.006 159.311 409.006C158.906 409.006 158.565 409.121 158.288 409.352C158.016 409.583 157.809 409.898 157.669 410.295C157.533 410.693 157.464 411.146 157.464 411.653C157.464 412.161 157.533 412.614 157.669 413.011C157.809 413.409 158.016 413.723 158.288 413.955C158.565 414.182 158.906 414.295 159.311 414.295ZM165.169 416V407.273H167.516V408.795H167.607C167.766 408.254 168.033 407.845 168.408 407.568C168.783 407.288 169.214 407.148 169.703 407.148C169.824 407.148 169.955 407.155 170.095 407.17C170.235 407.186 170.358 407.206 170.464 407.233V409.381C170.351 409.347 170.194 409.316 169.993 409.29C169.792 409.263 169.608 409.25 169.442 409.25C169.086 409.25 168.768 409.328 168.487 409.483C168.211 409.634 167.991 409.847 167.828 410.119C167.669 410.392 167.589 410.706 167.589 411.062V416H165.169ZM176.795 407.273V409.091H171.54V407.273H176.795ZM172.733 405.182H175.153V413.318C175.153 413.542 175.188 413.716 175.256 413.841C175.324 413.962 175.419 414.047 175.54 414.097C175.665 414.146 175.809 414.17 175.972 414.17C176.085 414.17 176.199 414.161 176.312 414.142C176.426 414.119 176.513 414.102 176.574 414.091L176.955 415.892C176.833 415.93 176.663 415.973 176.443 416.023C176.223 416.076 175.956 416.108 175.642 416.119C175.059 416.142 174.547 416.064 174.108 415.886C173.672 415.708 173.333 415.432 173.091 415.057C172.848 414.682 172.729 414.208 172.733 413.636V405.182ZM182.075 416V407.273H184.422V408.795H184.513C184.672 408.254 184.939 407.845 185.314 407.568C185.689 407.288 186.121 407.148 186.609 407.148C186.731 407.148 186.861 407.155 187.001 407.17C187.142 407.186 187.265 407.206 187.371 407.233V409.381C187.257 409.347 187.1 409.316 186.899 409.29C186.698 409.263 186.515 409.25 186.348 409.25C185.992 409.25 185.674 409.328 185.393 409.483C185.117 409.634 184.897 409.847 184.734 410.119C184.575 410.392 184.496 410.706 184.496 411.062V416H182.075ZM192.193 416.17C191.295 416.17 190.523 415.989 189.875 415.625C189.231 415.258 188.735 414.739 188.386 414.068C188.038 413.394 187.864 412.597 187.864 411.676C187.864 410.778 188.038 409.991 188.386 409.312C188.735 408.634 189.225 408.106 189.858 407.727C190.494 407.348 191.241 407.159 192.097 407.159C192.672 407.159 193.208 407.252 193.705 407.438C194.205 407.619 194.64 407.894 195.011 408.261C195.386 408.629 195.678 409.091 195.886 409.648C196.095 410.201 196.199 410.848 196.199 411.591V412.256H188.83V410.756H193.92C193.92 410.407 193.845 410.098 193.693 409.83C193.542 409.561 193.331 409.35 193.062 409.199C192.797 409.044 192.489 408.966 192.136 408.966C191.769 408.966 191.443 409.051 191.159 409.222C190.879 409.388 190.659 409.614 190.5 409.898C190.341 410.178 190.259 410.491 190.256 410.835V412.261C190.256 412.693 190.335 413.066 190.494 413.381C190.657 413.695 190.886 413.938 191.182 414.108C191.477 414.278 191.828 414.364 192.233 414.364C192.502 414.364 192.748 414.326 192.972 414.25C193.195 414.174 193.386 414.061 193.545 413.909C193.705 413.758 193.826 413.572 193.909 413.352L196.148 413.5C196.034 414.038 195.801 414.508 195.449 414.909C195.1 415.307 194.65 415.617 194.097 415.841C193.547 416.061 192.913 416.17 192.193 416.17ZM205.04 409.761L202.824 409.898C202.786 409.708 202.705 409.538 202.58 409.386C202.455 409.231 202.29 409.108 202.085 409.017C201.884 408.922 201.644 408.875 201.364 408.875C200.989 408.875 200.672 408.955 200.415 409.114C200.157 409.269 200.028 409.477 200.028 409.739C200.028 409.947 200.112 410.123 200.278 410.267C200.445 410.411 200.731 410.527 201.136 410.614L202.716 410.932C203.564 411.106 204.197 411.386 204.614 411.773C205.03 412.159 205.239 412.667 205.239 413.295C205.239 413.867 205.07 414.369 204.733 414.801C204.4 415.233 203.941 415.57 203.358 415.812C202.778 416.051 202.11 416.17 201.352 416.17C200.197 416.17 199.277 415.93 198.591 415.449C197.909 414.964 197.509 414.305 197.392 413.472L199.773 413.347C199.845 413.699 200.019 413.968 200.295 414.153C200.572 414.335 200.926 414.426 201.358 414.426C201.782 414.426 202.123 414.345 202.381 414.182C202.642 414.015 202.775 413.801 202.778 413.54C202.775 413.32 202.682 413.14 202.5 413C202.318 412.856 202.038 412.746 201.659 412.67L200.148 412.369C199.295 412.199 198.661 411.903 198.244 411.483C197.831 411.062 197.625 410.527 197.625 409.875C197.625 409.314 197.777 408.831 198.08 408.426C198.386 408.021 198.816 407.708 199.369 407.489C199.926 407.269 200.578 407.159 201.324 407.159C202.426 407.159 203.294 407.392 203.926 407.858C204.563 408.324 204.934 408.958 205.04 409.761ZM210.74 416.17C209.842 416.17 209.07 415.989 208.422 415.625C207.778 415.258 207.282 414.739 206.933 414.068C206.585 413.394 206.411 412.597 206.411 411.676C206.411 410.778 206.585 409.991 206.933 409.312C207.282 408.634 207.772 408.106 208.405 407.727C209.041 407.348 209.787 407.159 210.643 407.159C211.219 407.159 211.755 407.252 212.251 407.438C212.751 407.619 213.187 407.894 213.558 408.261C213.933 408.629 214.225 409.091 214.433 409.648C214.642 410.201 214.746 410.848 214.746 411.591V412.256H207.376V410.756H212.467C212.467 410.407 212.392 410.098 212.24 409.83C212.089 409.561 211.878 409.35 211.609 409.199C211.344 409.044 211.036 408.966 210.683 408.966C210.316 408.966 209.99 409.051 209.706 409.222C209.426 409.388 209.206 409.614 209.047 409.898C208.888 410.178 208.806 410.491 208.803 410.835V412.261C208.803 412.693 208.882 413.066 209.041 413.381C209.204 413.695 209.433 413.938 209.729 414.108C210.024 414.278 210.375 414.364 210.78 414.364C211.049 414.364 211.295 414.326 211.518 414.25C211.742 414.174 211.933 414.061 212.092 413.909C212.251 413.758 212.373 413.572 212.456 413.352L214.695 413.5C214.581 414.038 214.348 414.508 213.996 414.909C213.647 415.307 213.196 415.617 212.643 415.841C212.094 416.061 211.46 416.17 210.74 416.17ZM216.325 416V407.273H218.672V408.795H218.763C218.922 408.254 219.189 407.845 219.564 407.568C219.939 407.288 220.371 407.148 220.859 407.148C220.981 407.148 221.111 407.155 221.251 407.17C221.392 407.186 221.515 407.206 221.621 407.233V409.381C221.507 409.347 221.35 409.316 221.149 409.29C220.948 409.263 220.765 409.25 220.598 409.25C220.242 409.25 219.924 409.328 219.643 409.483C219.367 409.634 219.147 409.847 218.984 410.119C218.825 410.392 218.746 410.706 218.746 411.062V416H216.325ZM231.274 407.273L228.223 416H225.496L222.445 407.273H225.001L226.814 413.517H226.905L228.712 407.273H231.274ZM236.209 416.17C235.311 416.17 234.538 415.989 233.891 415.625C233.247 415.258 232.75 414.739 232.402 414.068C232.054 413.394 231.879 412.597 231.879 411.676C231.879 410.778 232.054 409.991 232.402 409.312C232.75 408.634 233.241 408.106 233.874 407.727C234.51 407.348 235.256 407.159 236.112 407.159C236.688 407.159 237.224 407.252 237.72 407.438C238.22 407.619 238.656 407.894 239.027 408.261C239.402 408.629 239.694 409.091 239.902 409.648C240.11 410.201 240.214 410.848 240.214 411.591V412.256H232.845V410.756H237.936C237.936 410.407 237.86 410.098 237.709 409.83C237.557 409.561 237.347 409.35 237.078 409.199C236.813 409.044 236.504 408.966 236.152 408.966C235.785 408.966 235.459 409.051 235.175 409.222C234.894 409.388 234.675 409.614 234.516 409.898C234.357 410.178 234.275 410.491 234.271 410.835V412.261C234.271 412.693 234.351 413.066 234.51 413.381C234.673 413.695 234.902 413.938 235.197 414.108C235.493 414.278 235.843 414.364 236.249 414.364C236.518 414.364 236.764 414.326 236.987 414.25C237.211 414.174 237.402 414.061 237.561 413.909C237.72 413.758 237.841 413.572 237.925 413.352L240.163 413.5C240.05 414.038 239.817 414.508 239.464 414.909C239.116 415.307 238.665 415.617 238.112 415.841C237.563 416.061 236.929 416.17 236.209 416.17ZM250.19 407.273V409.091H244.804V407.273H250.19ZM246.037 416V406.642C246.037 406.009 246.16 405.485 246.406 405.068C246.656 404.652 246.997 404.339 247.429 404.131C247.861 403.922 248.351 403.818 248.901 403.818C249.272 403.818 249.611 403.847 249.918 403.903C250.228 403.96 250.459 404.011 250.611 404.057L250.179 405.875C250.084 405.845 249.967 405.816 249.827 405.79C249.69 405.763 249.55 405.75 249.406 405.75C249.05 405.75 248.802 405.833 248.662 406C248.522 406.163 248.452 406.392 248.452 406.688V416H246.037ZM257.266 412.284V407.273H259.686V416H257.362V414.415H257.271C257.074 414.926 256.747 415.337 256.288 415.648C255.834 415.958 255.279 416.114 254.624 416.114C254.04 416.114 253.527 415.981 253.084 415.716C252.641 415.451 252.294 415.074 252.044 414.585C251.798 414.097 251.673 413.511 251.669 412.83V407.273H254.089V412.398C254.093 412.913 254.232 413.32 254.504 413.619C254.777 413.919 255.143 414.068 255.601 414.068C255.893 414.068 256.165 414.002 256.419 413.869C256.673 413.733 256.877 413.532 257.033 413.267C257.192 413.002 257.269 412.674 257.266 412.284ZM264.043 410.955V416H261.622V407.273H263.929V408.812H264.031C264.224 408.305 264.548 407.903 265.003 407.608C265.457 407.309 266.009 407.159 266.656 407.159C267.262 407.159 267.791 407.292 268.241 407.557C268.692 407.822 269.043 408.201 269.293 408.693C269.543 409.182 269.668 409.765 269.668 410.443V416H267.247V410.875C267.251 410.341 267.115 409.924 266.838 409.625C266.562 409.322 266.181 409.17 265.696 409.17C265.37 409.17 265.082 409.241 264.832 409.381C264.586 409.521 264.393 409.725 264.253 409.994C264.116 410.259 264.046 410.58 264.043 410.955ZM274.791 416.142C274.128 416.142 273.528 415.972 272.99 415.631C272.456 415.286 272.032 414.78 271.717 414.114C271.407 413.443 271.251 412.621 271.251 411.648C271.251 410.648 271.412 409.816 271.734 409.153C272.056 408.487 272.484 407.989 273.018 407.659C273.556 407.326 274.145 407.159 274.786 407.159C275.274 407.159 275.681 407.242 276.007 407.409C276.337 407.572 276.602 407.777 276.803 408.023C277.007 408.265 277.162 408.504 277.268 408.739H277.342V404.364H279.757V416H277.371V414.602H277.268C277.155 414.845 276.994 415.085 276.786 415.324C276.581 415.559 276.314 415.754 275.984 415.909C275.659 416.064 275.261 416.142 274.791 416.142ZM275.558 414.216C275.948 414.216 276.278 414.11 276.547 413.898C276.82 413.682 277.028 413.381 277.172 412.994C277.32 412.608 277.393 412.155 277.393 411.636C277.393 411.117 277.321 410.667 277.178 410.284C277.034 409.902 276.825 409.606 276.553 409.398C276.28 409.189 275.948 409.085 275.558 409.085C275.161 409.085 274.825 409.193 274.553 409.409C274.28 409.625 274.073 409.924 273.933 410.307C273.793 410.689 273.723 411.133 273.723 411.636C273.723 412.144 273.793 412.593 273.933 412.983C274.077 413.369 274.284 413.672 274.553 413.892C274.825 414.108 275.161 414.216 275.558 414.216ZM283.162 416.148C282.787 416.148 282.465 416.015 282.196 415.75C281.931 415.481 281.798 415.159 281.798 414.784C281.798 414.413 281.931 414.095 282.196 413.83C282.465 413.564 282.787 413.432 283.162 413.432C283.526 413.432 283.844 413.564 284.116 413.83C284.389 414.095 284.526 414.413 284.526 414.784C284.526 415.034 284.461 415.263 284.332 415.472C284.207 415.676 284.043 415.841 283.838 415.966C283.634 416.087 283.408 416.148 283.162 416.148ZM283.162 410.034C282.787 410.034 282.465 409.902 282.196 409.636C281.931 409.371 281.798 409.049 281.798 408.67C281.798 408.299 281.931 407.983 282.196 407.722C282.465 407.456 282.787 407.324 283.162 407.324C283.526 407.324 283.844 407.456 284.116 407.722C284.389 407.983 284.526 408.299 284.526 408.67C284.526 408.924 284.461 409.155 284.332 409.364C284.207 409.568 284.043 409.731 283.838 409.852C283.634 409.973 283.408 410.034 283.162 410.034ZM295.256 404.364V416H292.795V406.699H292.727L290.062 408.369V406.188L292.943 404.364H295.256ZM302.584 416.256C301.607 416.252 300.766 416.011 300.061 415.534C299.36 415.057 298.821 414.366 298.442 413.46C298.067 412.555 297.881 411.466 297.885 410.193C297.885 408.924 298.072 407.843 298.447 406.949C298.826 406.055 299.366 405.375 300.067 404.909C300.771 404.439 301.61 404.205 302.584 404.205C303.557 404.205 304.394 404.439 305.095 404.909C305.8 405.379 306.341 406.061 306.72 406.955C307.099 407.845 307.286 408.924 307.283 410.193C307.283 411.47 307.093 412.561 306.714 413.466C306.339 414.371 305.802 415.062 305.101 415.54C304.4 416.017 303.561 416.256 302.584 416.256ZM302.584 414.216C303.25 414.216 303.783 413.881 304.18 413.21C304.578 412.54 304.775 411.534 304.771 410.193C304.771 409.311 304.68 408.576 304.499 407.989C304.321 407.402 304.067 406.96 303.737 406.665C303.411 406.369 303.027 406.222 302.584 406.222C301.921 406.222 301.391 406.553 300.993 407.216C300.595 407.879 300.394 408.871 300.391 410.193C300.391 411.087 300.48 411.833 300.658 412.432C300.839 413.027 301.095 413.473 301.425 413.773C301.754 414.068 302.141 414.216 302.584 414.216ZM315.406 413.818V413.205C315.406 412.739 315.505 412.311 315.702 411.92C315.902 411.527 316.192 411.212 316.571 410.977C316.954 410.739 317.42 410.619 317.969 410.619C318.526 410.619 318.993 410.737 319.372 410.972C319.755 411.206 320.043 411.521 320.236 411.915C320.433 412.305 320.531 412.735 320.531 413.205V413.818C320.531 414.284 320.433 414.714 320.236 415.108C320.039 415.498 319.749 415.811 319.366 416.045C318.984 416.284 318.518 416.403 317.969 416.403C317.412 416.403 316.944 416.284 316.565 416.045C316.187 415.811 315.899 415.498 315.702 415.108C315.505 414.714 315.406 414.284 315.406 413.818ZM317.06 413.205V413.818C317.06 414.087 317.124 414.341 317.253 414.58C317.385 414.818 317.624 414.938 317.969 414.938C318.313 414.938 318.548 414.82 318.673 414.585C318.802 414.35 318.866 414.095 318.866 413.818V413.205C318.866 412.928 318.806 412.67 318.685 412.432C318.563 412.193 318.325 412.074 317.969 412.074C317.628 412.074 317.391 412.193 317.259 412.432C317.126 412.67 317.06 412.928 317.06 413.205ZM309.435 407.159V406.545C309.435 406.076 309.535 405.646 309.736 405.256C309.937 404.862 310.226 404.547 310.605 404.312C310.988 404.078 311.45 403.96 311.991 403.96C312.552 403.96 313.022 404.078 313.401 404.312C313.779 404.547 314.067 404.862 314.264 405.256C314.461 405.646 314.56 406.076 314.56 406.545V407.159C314.56 407.629 314.459 408.059 314.259 408.449C314.062 408.839 313.772 409.152 313.389 409.386C313.01 409.617 312.545 409.733 311.991 409.733C311.438 409.733 310.971 409.616 310.588 409.381C310.209 409.142 309.921 408.83 309.724 408.443C309.531 408.053 309.435 407.625 309.435 407.159ZM311.099 406.545V407.159C311.099 407.436 311.164 407.691 311.293 407.926C311.425 408.161 311.658 408.278 311.991 408.278C312.34 408.278 312.577 408.161 312.702 407.926C312.83 407.691 312.895 407.436 312.895 407.159V406.545C312.895 406.269 312.834 406.011 312.713 405.773C312.592 405.534 312.351 405.415 311.991 405.415C311.654 405.415 311.421 405.536 311.293 405.778C311.164 406.021 311.099 406.277 311.099 406.545ZM310.185 416L318.185 404.364H319.673L311.673 416H310.185Z" fill="black"/>
<path d="M7.31818 368.182C6.49242 368.182 5.71591 368.027 4.98864 367.716C4.26515 367.405 3.62689 366.975 3.07386 366.426C2.52462 365.873 2.0928 365.235 1.77841 364.511C1.4678 363.788 1.31439 363.011 1.31818 362.182C1.32197 361.352 1.47917 360.576 1.78977 359.852C2.10417 359.129 2.53598 358.492 3.08523 357.943C3.63447 357.39 4.27083 356.958 4.99432 356.648C5.7178 356.337 6.49242 356.182 7.31818 356.182C8.14773 356.182 8.92424 356.337 9.64773 356.648C10.375 356.958 11.0114 357.39 11.5568 357.943C12.1061 358.492 12.536 359.129 12.8466 359.852C13.1572 360.576 13.3144 361.352 13.3182 362.182C13.322 363.011 13.1686 363.788 12.858 364.511C12.5473 365.235 12.1174 365.873 11.5682 366.426C11.0189 366.975 10.3807 367.405 9.65341 367.716C8.92614 368.027 8.14773 368.182 7.31818 368.182Z" fill="#FF3217"/>
<path d="M7.31818 392.182C6.49242 392.182 5.71591 392.027 4.98864 391.716C4.26515 391.405 3.62689 390.975 3.07386 390.426C2.52462 389.873 2.0928 389.235 1.77841 388.511C1.4678 387.788 1.31439 387.011 1.31818 386.182C1.32197 385.352 1.47917 384.576 1.78977 383.852C2.10417 383.129 2.53598 382.492 3.08523 381.943C3.63447 381.39 4.27083 380.958 4.99432 380.648C5.7178 380.337 6.49242 380.182 7.31818 380.182C8.14773 380.182 8.92424 380.337 9.64773 380.648C10.375 380.958 11.0114 381.39 11.5568 381.943C12.1061 382.492 12.536 383.129 12.8466 383.852C13.1572 384.576 13.3144 385.352 13.3182 386.182C13.322 387.011 13.1686 387.788 12.858 388.511C12.5473 389.235 12.1174 389.873 11.5682 390.426C11.0189 390.975 10.3807 391.405 9.65341 391.716C8.92614 392.027 8.14773 392.182 7.31818 392.182Z" fill="#00BA63"/>
<path d="M7.31818 416.182C6.49242 416.182 5.71591 416.027 4.98864 415.716C4.26515 415.405 3.62689 414.975 3.07386 414.426C2.52462 413.873 2.0928 413.235 1.77841 412.511C1.4678 411.788 1.31439 411.011 1.31818 410.182C1.32197 409.352 1.47917 408.576 1.78977 407.852C2.10417 407.129 2.53598 406.492 3.08523 405.943C3.63447 405.39 4.27083 404.958 4.99432 404.648C5.7178 404.337 6.49242 404.182 7.31818 404.182C8.14773 404.182 8.92424 404.337 9.64773 404.648C10.375 404.958 11.0114 405.39 11.5568 405.943C12.1061 406.492 12.536 407.129 12.8466 407.852C13.1572 408.576 13.3144 409.352 13.3182 410.182C13.322 411.011 13.1686 411.788 12.858 412.511C12.5473 413.235 12.1174 413.873 11.5682 414.426C11.0189 414.975 10.3807 415.405 9.65341 415.716C8.92614 416.027 8.14773 416.182 7.31818 416.182Z" fill="#FFD212"/>
<defs>
<clipPath id="clip0_2031_5">
<rect width="320" height="320" fill="white" transform="translate(1)"/>
</clipPath>
</defs>
</svg>
