<svg width="190" height="56" viewBox="0 0 190 56" fill="none" xmlns="http://www.w3.org/2000/svg">
<path d="M83.2778 51.8676C83.1004 51.8676 82.9464 51.8069 82.8158 51.6856C82.6944 51.5549 82.6338 51.4009 82.6338 51.2236C82.6338 51.0369 82.6944 50.8876 82.8158 50.7756C82.9464 50.6543 83.1004 50.5889 83.2778 50.5796C83.6978 50.5516 84.0151 50.5049 84.2298 50.4396C84.4538 50.3649 84.6031 50.2436 84.6778 50.0756C84.7524 49.8983 84.7851 49.6509 84.7758 49.3336C84.7664 49.0163 84.7478 48.5963 84.7198 48.0736C84.7011 47.5416 84.6778 46.9769 84.6498 46.3796C84.1178 46.9303 83.5251 47.4996 82.8718 48.0876C82.2184 48.6663 81.5558 49.2169 80.8838 49.7396C80.2211 50.2529 79.6004 50.6916 79.0218 51.0556C78.8724 51.1489 78.7091 51.1676 78.5318 51.1116C78.3638 51.0556 78.2331 50.9529 78.1398 50.8036C78.0464 50.6449 78.0231 50.4816 78.0698 50.3136C78.1258 50.1456 78.2284 50.0149 78.3778 49.9216C78.7511 49.6883 79.1758 49.3943 79.6518 49.0396C80.1371 48.6849 80.6411 48.2976 81.1638 47.8776C81.6958 47.4483 82.2138 47.0096 82.7178 46.5616C83.2218 46.1136 83.6838 45.6796 84.1038 45.2596H79.1198C78.9424 45.2596 78.7931 45.1989 78.6718 45.0776C78.5504 44.9563 78.4898 44.8069 78.4898 44.6296C78.4898 44.4616 78.5504 44.3169 78.6718 44.1956C78.7931 44.0649 78.9424 43.9996 79.1198 43.9996H84.5378C84.5191 43.6169 84.5004 43.2716 84.4818 42.9636C84.4724 42.6556 84.4631 42.4129 84.4538 42.2356C84.4444 42.0489 84.5051 41.8949 84.6358 41.7736C84.7664 41.6429 84.9204 41.5729 85.0978 41.5636C85.2751 41.5636 85.4244 41.6243 85.5458 41.7456C85.6764 41.8669 85.7464 42.0163 85.7558 42.1936C85.7651 42.4176 85.7744 42.6883 85.7838 43.0056C85.7931 43.3136 85.8071 43.6449 85.8258 43.9996H88.1078C88.2851 43.9996 88.4344 44.0649 88.5558 44.1956C88.6771 44.3169 88.7378 44.4616 88.7378 44.6296C88.7378 44.8069 88.6771 44.9563 88.5558 45.0776C88.4344 45.1989 88.2851 45.2596 88.1078 45.2596H85.8818C85.9191 45.9969 85.9518 46.7343 85.9798 47.4716C86.0171 48.1996 86.0498 48.8016 86.0778 49.2776C86.1244 50.2016 85.9191 50.8643 85.4618 51.2656C85.0138 51.6669 84.2858 51.8676 83.2778 51.8676ZM93.3018 47.3456C93.1244 47.3456 92.9704 47.2849 92.8398 47.1636C92.7184 47.0329 92.6578 46.8789 92.6578 46.7016C92.6578 46.5149 92.7184 46.3609 92.8398 46.2396C92.9704 46.1183 93.1244 46.0576 93.3018 46.0576H102.024C102.201 46.0576 102.35 46.1183 102.472 46.2396C102.602 46.3609 102.668 46.5149 102.668 46.7016C102.668 46.8789 102.602 47.0329 102.472 47.1636C102.35 47.2849 102.201 47.3456 102.024 47.3456H93.3018ZM108.744 52.0496C108.585 52.1149 108.422 52.1149 108.254 52.0496C108.086 51.9936 107.964 51.8816 107.89 51.7136C107.815 51.5549 107.81 51.3916 107.876 51.2236C107.941 51.0556 108.053 50.9343 108.212 50.8596C109.696 50.1969 110.956 49.3896 111.992 48.4376C113.037 47.4763 113.788 46.4309 114.246 45.3016C114.451 44.8069 114.479 44.4196 114.33 44.1396C114.19 43.8503 113.821 43.7056 113.224 43.7056H107.806C107.628 43.7056 107.474 43.6449 107.344 43.5236C107.222 43.3929 107.162 43.2389 107.162 43.0616C107.162 42.8749 107.222 42.7209 107.344 42.5996C107.474 42.4689 107.628 42.4036 107.806 42.4036H113.224C113.98 42.4036 114.563 42.5483 114.974 42.8376C115.394 43.1269 115.646 43.5236 115.73 44.0276C115.814 44.5316 115.72 45.1149 115.45 45.7776C114.927 47.0656 114.087 48.2509 112.93 49.3336C111.782 50.4069 110.386 51.3123 108.744 52.0496ZM117.438 43.8316C117.064 43.8316 116.742 43.6963 116.472 43.4256C116.201 43.1549 116.066 42.8329 116.066 42.4596C116.066 42.0769 116.201 41.7549 116.472 41.4936C116.742 41.2229 117.064 41.0876 117.438 41.0876C117.82 41.0876 118.142 41.2229 118.404 41.4936C118.674 41.7549 118.81 42.0769 118.81 42.4596C118.81 42.8329 118.674 43.1549 118.404 43.4256C118.142 43.6963 117.82 43.8316 117.438 43.8316ZM117.438 43.1456C117.624 43.1456 117.783 43.0803 117.914 42.9496C118.054 42.8096 118.124 42.6463 118.124 42.4596C118.124 42.2636 118.054 42.1003 117.914 41.9696C117.783 41.8296 117.624 41.7596 117.438 41.7596C117.242 41.7596 117.074 41.8296 116.934 41.9696C116.803 42.1003 116.738 42.2636 116.738 42.4596C116.738 42.6463 116.803 42.8096 116.934 42.9496C117.074 43.0803 117.242 43.1456 117.438 43.1456ZM122.254 51.2376C122.086 51.3029 121.922 51.2983 121.764 51.2236C121.605 51.1489 121.493 51.0276 121.428 50.8596C121.362 50.6916 121.367 50.5283 121.442 50.3696C121.526 50.2016 121.652 50.0849 121.82 50.0196C122.585 49.7396 123.35 49.4083 124.116 49.0256C124.881 48.6336 125.614 48.2136 126.314 47.7656C127.023 47.3083 127.662 46.8369 128.232 46.3516C128.81 45.8663 129.291 45.3903 129.674 44.9236C129.786 44.7836 129.93 44.7089 130.108 44.6996C130.285 44.6809 130.444 44.7276 130.584 44.8396C130.724 44.9516 130.803 45.0963 130.822 45.2736C130.84 45.4509 130.794 45.6096 130.682 45.7496C130.308 46.2069 129.804 46.6969 129.17 47.2196C128.535 47.7423 127.83 48.2603 127.056 48.7736C126.281 49.2776 125.478 49.7443 124.648 50.1736C123.826 50.6029 123.028 50.9576 122.254 51.2376ZM123.682 45.8056C123.458 45.6096 123.201 45.4043 122.912 45.1896C122.632 44.9749 122.347 44.7696 122.058 44.5736C121.778 44.3776 121.521 44.2096 121.288 44.0696C121.138 43.9763 121.04 43.8456 120.994 43.6776C120.947 43.5003 120.97 43.3369 121.064 43.1876C121.157 43.0289 121.292 42.9263 121.47 42.8796C121.647 42.8329 121.81 42.8609 121.96 42.9636C122.193 43.1129 122.468 43.3043 122.786 43.5376C123.112 43.7616 123.43 43.9903 123.738 44.2236C124.046 44.4476 124.293 44.6343 124.48 44.7836C124.62 44.8956 124.699 45.0403 124.718 45.2176C124.746 45.3949 124.704 45.5536 124.592 45.6936C124.489 45.8336 124.344 45.9176 124.158 45.9456C123.98 45.9736 123.822 45.9269 123.682 45.8056ZM136.94 52.0496C136.781 52.1149 136.618 52.1149 136.45 52.0496C136.282 51.9936 136.16 51.8816 136.086 51.7136C136.02 51.5549 136.016 51.3916 136.072 51.2236C136.137 51.0556 136.249 50.9343 136.408 50.8596C137.892 50.1969 139.152 49.3896 140.188 48.4376C141.233 47.4763 141.984 46.4309 142.442 45.3016C142.647 44.8069 142.675 44.4196 142.526 44.1396C142.386 43.8503 142.017 43.7056 141.42 43.7056H136.002C135.824 43.7056 135.67 43.6449 135.54 43.5236C135.418 43.3929 135.358 43.2389 135.358 43.0616C135.358 42.8749 135.418 42.7209 135.54 42.5996C135.67 42.4689 135.824 42.4036 136.002 42.4036H141.42C142.176 42.4036 142.759 42.5483 143.17 42.8376C143.59 43.1269 143.842 43.5236 143.926 44.0276C144.01 44.5316 143.916 45.1149 143.646 45.7776C143.123 47.0656 142.283 48.2509 141.126 49.3336C139.978 50.4069 138.582 51.3123 136.94 52.0496ZM149.75 50.8876C149.6 50.8876 149.47 50.8316 149.358 50.7196C149.246 50.6076 149.19 50.4723 149.19 50.3136C149.19 50.1549 149.246 50.0243 149.358 49.9216C149.47 49.8096 149.6 49.7536 149.75 49.7536H153.096V47.2336H150.996C150.837 47.2336 150.702 47.1776 150.59 47.0656C150.478 46.9536 150.422 46.8183 150.422 46.6596C150.422 46.5009 150.478 46.3656 150.59 46.2536C150.702 46.1416 150.837 46.0856 150.996 46.0856H156.316C156.474 46.0856 156.61 46.1416 156.722 46.2536C156.834 46.3656 156.89 46.5009 156.89 46.6596C156.89 46.8183 156.834 46.9536 156.722 47.0656C156.61 47.1776 156.474 47.2336 156.316 47.2336H154.244V49.7536H157.618C157.776 49.7536 157.912 49.8096 158.024 49.9216C158.136 50.0243 158.192 50.1549 158.192 50.3136C158.192 50.4723 158.136 50.6076 158.024 50.7196C157.912 50.8316 157.776 50.8876 157.618 50.8876H149.75ZM163.302 47.3456C163.124 47.3456 162.97 47.2849 162.84 47.1636C162.718 47.0329 162.658 46.8789 162.658 46.7016C162.658 46.5149 162.718 46.3609 162.84 46.2396C162.97 46.1183 163.124 46.0576 163.302 46.0576H172.024C172.201 46.0576 172.35 46.1183 172.472 46.2396C172.602 46.3609 172.668 46.5149 172.668 46.7016C172.668 46.8789 172.602 47.0329 172.472 47.1636C172.35 47.2849 172.201 47.3456 172.024 47.3456H163.302ZM180.158 52.4416C179.99 52.5069 179.822 52.5069 179.654 52.4416C179.495 52.3763 179.378 52.2596 179.304 52.0916C179.238 51.9329 179.238 51.7696 179.304 51.6016C179.369 51.4336 179.486 51.3169 179.654 51.2516C180.68 50.8129 181.52 50.3369 182.174 49.8236C182.836 49.3103 183.35 48.7689 183.714 48.1996C184.087 47.6303 184.353 47.0516 184.512 46.4636C184.624 46.0809 184.689 45.7729 184.708 45.5396C184.726 45.2969 184.684 45.1103 184.582 44.9796C184.432 44.7649 184.106 44.6249 183.602 44.5596C183.107 44.4943 182.43 44.4616 181.572 44.4616C180.918 44.4616 180.396 44.4709 180.004 44.4896C179.621 44.5083 179.322 44.5503 179.108 44.6156C178.902 44.6716 178.739 44.7696 178.618 44.9096C178.524 45.0309 178.473 45.2409 178.464 45.5396C178.464 45.8383 178.515 46.3096 178.618 46.9536C178.646 47.1309 178.608 47.2943 178.506 47.4436C178.403 47.5836 178.258 47.6676 178.072 47.6956C177.894 47.7236 177.731 47.6863 177.582 47.5836C177.442 47.4809 177.358 47.3409 177.33 47.1636C177.208 46.3609 177.148 45.7169 177.148 45.2316C177.157 44.7463 177.311 44.3449 177.61 44.0276C177.806 43.8129 178.044 43.6449 178.324 43.5236C178.604 43.4023 178.958 43.3136 179.388 43.2576C179.826 43.2016 180.368 43.1689 181.012 43.1596V41.3956C181.012 41.2089 181.072 41.0549 181.194 40.9336C181.324 40.8123 181.478 40.7516 181.656 40.7516C181.842 40.7516 181.996 40.8123 182.118 40.9336C182.239 41.0549 182.3 41.2089 182.3 41.3956V43.1596C183.242 43.1783 183.975 43.2623 184.498 43.4116C185.03 43.5516 185.431 43.7989 185.702 44.1536C185.972 44.4989 186.089 44.8816 186.052 45.3016C186.024 45.7123 185.93 46.2163 185.772 46.8136C185.585 47.4763 185.272 48.1529 184.834 48.8436C184.395 49.5343 183.793 50.1876 183.028 50.8036C182.272 51.4196 181.315 51.9656 180.158 52.4416ZM188.46 43.1036C188.357 43.1969 188.231 43.2343 188.082 43.2156C187.942 43.1876 187.83 43.1176 187.746 43.0056C187.624 42.8376 187.494 42.6649 187.354 42.4876C187.214 42.3103 187.069 42.1469 186.92 41.9976C186.836 41.9043 186.794 41.7969 186.794 41.6756C186.794 41.5449 186.84 41.4329 186.934 41.3396C187.036 41.2369 187.153 41.1949 187.284 41.2136C187.414 41.2323 187.531 41.2883 187.634 41.3816C187.764 41.4936 187.918 41.6476 188.096 41.8436C188.273 42.0396 188.427 42.2169 188.558 42.3756C188.651 42.4876 188.684 42.6183 188.656 42.7676C188.628 42.9076 188.562 43.0196 188.46 43.1036ZM187.214 44.1256C187.102 44.2096 186.976 44.2376 186.836 44.2096C186.696 44.1816 186.588 44.1116 186.514 43.9996C186.392 43.8223 186.262 43.6403 186.122 43.4536C185.991 43.2669 185.856 43.0989 185.716 42.9496C185.632 42.8563 185.59 42.7489 185.59 42.6276C185.599 42.4969 185.655 42.3896 185.758 42.3056C185.87 42.2123 185.986 42.1749 186.108 42.1936C186.238 42.2123 186.35 42.2729 186.444 42.3756C186.574 42.4969 186.724 42.6603 186.892 42.8656C187.069 43.0616 187.218 43.2389 187.34 43.3976C187.424 43.5189 187.452 43.6496 187.424 43.7896C187.396 43.9296 187.326 44.0416 187.214 44.1256Z" fill="#21012D"/>
<g clip-path="url(#clip0_1_48)">
<path d="M22.0786 24.5839C22.3148 25.2403 22.4298 25.9469 22.4298 26.7062C22.4298 27.4656 22.3148 28.1992 22.0786 28.844C21.8423 29.4901 21.506 30.0474 21.0697 30.5223C20.6334 30.9972 20.1059 31.364 19.4946 31.6278C18.8821 31.8968 18.2008 32.0255 17.4432 32.0255C16.6857 32.0255 16.0031 31.8968 15.3918 31.6278C14.7793 31.364 14.258 30.9972 13.8217 30.5223C13.3804 30.0474 13.0441 29.4888 12.8129 28.844C12.5766 28.1979 12.4566 27.4862 12.4566 26.7062C12.4566 25.9263 12.5766 25.239 12.8129 24.5839C13.0441 23.9327 13.3792 23.3702 13.8217 22.8953C14.258 22.4204 14.7805 22.0484 15.3918 21.7846C16.0044 21.5207 16.6907 21.3869 17.4432 21.3869C18.1958 21.3869 18.8833 21.5207 19.4946 21.7846C20.1072 22.0484 20.6334 22.4204 21.0697 22.8953C21.506 23.3702 21.8423 23.9339 22.0786 24.5839ZM46.209 28.0344C45.4665 29.7539 44.5639 31.2211 43.5401 32.4503C43.6001 33.4632 43.5801 34.5314 43.4651 35.6524C42.5775 44.4429 36.8584 49.0247 28.414 48.1161C26.5976 47.9256 24.9675 47.4906 23.5124 46.8663C22.5948 47.2434 21.601 47.5536 20.5322 47.7853C12.1341 49.6296 6.13365 45.4455 4.36852 36.9021C3.98724 35.0629 3.87723 33.328 4.00724 31.7166C3.3747 30.9316 2.78341 30.0538 2.23587 29.0821C-2.0632 21.4281 -0.0517996 14.258 7.29373 9.88852C8.87885 8.94383 10.444 8.30289 11.9741 7.93094C12.5054 7.07377 13.1329 6.22175 13.8605 5.38518C19.6046 -1.19029 26.8439 -1.43225 33.1556 4.40961C34.5157 5.66447 35.5883 7.00298 36.4071 8.38655C37.3659 8.64009 38.3435 8.98631 39.3473 9.44578C47.1941 13.0353 49.6568 20.0497 46.2103 28.0344H46.209ZM26.1013 26.7062C26.1013 25.3844 25.8851 24.1913 25.4538 23.1167C25.0225 22.042 24.42 21.1282 23.6524 20.374C22.8799 19.6198 21.9673 19.0419 20.9085 18.6391C19.8546 18.2311 18.6958 18.029 17.442 18.029C16.1881 18.029 15.0343 18.2311 13.9755 18.6391C12.9166 19.0419 12.0041 19.6211 11.2365 20.374C10.464 21.1282 9.86142 22.042 9.43514 23.1167C9.00386 24.1913 8.78759 25.3844 8.78759 26.7062C8.78759 28.028 9.00386 29.2262 9.43514 30.3009C9.86142 31.3756 10.464 32.2894 11.2365 33.0436C12.0041 33.7978 12.9166 34.3757 13.9755 34.7785C15.0343 35.1813 16.1881 35.3886 17.442 35.3886C18.6958 35.3886 19.8546 35.1813 20.9085 34.7785C21.9673 34.3757 22.8799 33.7978 23.6524 33.0436C24.42 32.2894 25.0225 31.3756 25.4538 30.3009C25.8851 29.2262 26.1013 28.028 26.1013 26.7062ZM38.9498 18.4473H28.184V34.9651H31.7205V28.5299H38.4035V25.1669H31.7205V21.809H38.9498V18.446V18.4473Z" fill="url(#paint0_linear_1_48)"/>
<path d="M53.17 26.7082C53.17 25.2796 53.4026 23.9836 53.8688 22.8227C54.3339 21.6618 54.9839 20.6746 55.8165 19.8586C56.649 19.0426 57.6379 18.4171 58.7817 17.9783C59.9243 17.542 61.1744 17.3219 62.5307 17.3219C63.8871 17.3219 65.1359 17.5407 66.2797 17.9783C67.4236 18.4159 68.4124 19.0426 69.245 19.8586C70.0775 20.6746 70.7276 21.6618 71.1926 22.8227C71.6576 23.9836 71.8914 25.2796 71.8914 26.7082C71.8914 28.1368 71.6589 29.4329 71.1926 30.5938C70.7276 31.7547 70.0775 32.7418 69.245 33.5578C68.4124 34.3738 67.4236 34.9993 66.2797 35.4369C65.1359 35.8745 63.8858 36.0933 62.5307 36.0933C61.1756 36.0933 59.9243 35.8745 58.7817 35.4369C57.6379 35.0006 56.649 34.3738 55.8165 33.5578C54.9839 32.7418 54.3339 31.7534 53.8688 30.5938C53.4038 29.4329 53.17 28.1381 53.17 26.7082ZM57.1391 26.7082C57.1391 27.5487 57.2653 28.3183 57.5191 29.0172C57.7716 29.7147 58.1354 30.3209 58.6092 30.8332C59.083 31.3467 59.6505 31.7457 60.3118 32.0314C60.9731 32.3184 61.7119 32.46 62.5295 32.46C63.347 32.46 64.0858 32.3184 64.7471 32.0314C65.4084 31.7457 65.976 31.3467 66.4498 30.8332C66.9235 30.3196 67.2873 29.7147 67.5411 29.0172C67.7936 28.3196 67.9211 27.5499 67.9211 26.7082C67.9211 25.8665 67.7949 25.1187 67.5411 24.4134C67.2873 23.7069 66.9235 23.0968 66.4498 22.5833C65.976 22.071 65.4084 21.6721 64.7471 21.385C64.0858 21.0993 63.347 20.9565 62.5295 20.9565C61.7119 20.9565 60.9731 21.0993 60.3118 21.385C59.6505 21.6721 59.0817 22.071 58.6092 22.5833C58.1354 23.0968 57.7716 23.7056 57.5191 24.4134C57.2653 25.12 57.1391 25.8845 57.1391 26.7082ZM74.3653 17.7762H80.8095C81.7084 17.7762 82.5572 17.8611 83.3585 18.0285C84.1585 18.1971 84.8573 18.4879 85.4536 18.8985C86.0499 19.3103 86.5237 19.8663 86.875 20.5639C87.2263 21.2615 87.4013 22.1405 87.4013 23.1998C87.4013 24.259 87.2375 25.1174 86.9112 25.824C86.5837 26.5306 86.1349 27.093 85.5636 27.5139C84.9911 27.9348 84.3135 28.2334 83.5297 28.4097C82.7459 28.586 81.8959 28.6735 80.9808 28.6735H78.1869V35.6364H74.3641V17.7749L74.3653 17.7762ZM78.1881 25.3453H80.737C81.0796 25.3453 81.4108 25.3118 81.7296 25.2449C82.0484 25.1779 82.3334 25.0647 82.5872 24.9051C82.8397 24.7455 83.0447 24.5267 83.1997 24.2487C83.3547 23.9707 83.4322 23.6219 83.4322 23.2011C83.4322 22.7467 83.3297 22.3812 83.126 22.1045C82.9222 21.8265 82.6609 21.6129 82.3422 21.461C82.0234 21.3104 81.6684 21.2126 81.2771 21.1714C80.8845 21.1289 80.5095 21.1083 80.1495 21.1083H78.1894V25.3465L78.1881 25.3453ZM89.8277 17.7762H101.615V21.4095H93.6505V24.7391H101.174V28.3724H93.6505V32.0044H102.056V35.6377H89.8277V17.7762ZM104.996 17.7762H110.192L117.567 30.1884H117.616V17.7762H121.439V35.6377H116.44L108.868 22.9218H108.819V35.6377H104.996V17.7762ZM132.122 17.7762H143.762V21.4095H135.945V25.0428H143.174V28.6748H135.945V35.6377H132.122V17.7762ZM150.622 17.7762H153.784L161.33 35.6377H157.018L155.522 31.8538H148.783L147.337 35.6377H143.123L150.621 17.7762H150.622ZM152.092 22.9745L149.985 28.5242H154.224L152.092 22.9745ZM158.783 17.7762H163.144L167.432 29.4818H167.481L171.842 17.7762H175.935L168.78 35.6377H165.717L158.783 17.7762ZM177.773 17.7762H189.56V21.4095H181.596V24.7391H189.119V28.3724H181.596V32.0044H190.001V35.6377H177.773V17.7762Z" fill="url(#paint1_linear_1_48)"/>
</g>
<defs>
<linearGradient id="paint0_linear_1_48" x1="7.13747" y1="43.6552" x2="41.6669" y2="10.117" gradientUnits="userSpaceOnUse">
<stop stop-color="#FFB2B8"/>
<stop offset="0.14" stop-color="#FF7DB8"/>
<stop offset="0.18" stop-color="#FA75BC"/>
<stop offset="0.24" stop-color="#ED62C7"/>
<stop offset="0.31" stop-color="#D842D9"/>
<stop offset="0.38" stop-color="#BB15F2"/>
<stop offset="0.42" stop-color="#AD00FF"/>
<stop offset="0.51" stop-color="#A711FE"/>
<stop offset="0.59" stop-color="#A41BFE"/>
<stop offset="0.62" stop-color="#9A35FC"/>
<stop offset="0.68" stop-color="#8C5DFB"/>
<stop offset="0.74" stop-color="#817EF9"/>
<stop offset="0.8" stop-color="#7897F8"/>
<stop offset="0.86" stop-color="#71A9F7"/>
<stop offset="0.93" stop-color="#6EB4F7"/>
<stop offset="1" stop-color="#6DB8F7"/>
</linearGradient>
<linearGradient id="paint1_linear_1_48" x1="53.17" y1="26.7082" x2="190" y2="26.7082" gradientUnits="userSpaceOnUse">
<stop stop-color="#FFB2B8"/>
<stop offset="0.14" stop-color="#FF7DB8"/>
<stop offset="0.19" stop-color="#FA75BC"/>
<stop offset="0.26" stop-color="#ED62C7"/>
<stop offset="0.34" stop-color="#D842D9"/>
<stop offset="0.44" stop-color="#BB15F2"/>
<stop offset="0.48" stop-color="#AD00FF"/>
<stop offset="0.55" stop-color="#A711FE"/>
<stop offset="0.61" stop-color="#A41BFE"/>
<stop offset="0.64" stop-color="#9A35FC"/>
<stop offset="0.7" stop-color="#8C5DFB"/>
<stop offset="0.75" stop-color="#817EF9"/>
<stop offset="0.81" stop-color="#7897F8"/>
<stop offset="0.87" stop-color="#71A9F7"/>
<stop offset="0.93" stop-color="#6EB4F7"/>
<stop offset="1" stop-color="#6DB8F7"/>
</linearGradient>
<clipPath id="clip0_1_48">
<rect width="190" height="48" fill="white" transform="translate(0 0.228752)"/>
</clipPath>
</defs>
</svg>
