<svg width="192" height="56" viewBox="0 0 192 56" fill="none" xmlns="http://www.w3.org/2000/svg">
<path d="M86.2778 51.425C86.1004 51.425 85.9464 51.3643 85.8158 51.243C85.6944 51.1123 85.6338 50.9583 85.6338 50.781C85.6338 50.5943 85.6944 50.445 85.8158 50.333C85.9464 50.2116 86.1004 50.1463 86.2778 50.137C86.6978 50.109 87.0151 50.0623 87.2298 49.997C87.4538 49.9223 87.6031 49.801 87.6778 49.633C87.7524 49.4556 87.7851 49.2083 87.7758 48.891C87.7664 48.5736 87.7478 48.1536 87.7198 47.631C87.7011 47.099 87.6778 46.5343 87.6498 45.937C87.1178 46.4876 86.5251 47.057 85.8718 47.645C85.2184 48.2236 84.5558 48.7743 83.8838 49.297C83.2211 49.8103 82.6004 50.249 82.0218 50.613C81.8724 50.7063 81.7091 50.725 81.5318 50.669C81.3638 50.613 81.2331 50.5103 81.1398 50.361C81.0464 50.2023 81.0231 50.039 81.0698 49.871C81.1258 49.703 81.2284 49.5723 81.3778 49.479C81.7511 49.2456 82.1758 48.9516 82.6518 48.597C83.1371 48.2423 83.6411 47.855 84.1638 47.435C84.6958 47.0056 85.2138 46.567 85.7178 46.119C86.2218 45.671 86.6838 45.237 87.1038 44.817H82.1198C81.9424 44.817 81.7931 44.7563 81.6718 44.635C81.5504 44.5136 81.4898 44.3643 81.4898 44.187C81.4898 44.019 81.5504 43.8743 81.6718 43.753C81.7931 43.6223 81.9424 43.557 82.1198 43.557H87.5378C87.5191 43.1743 87.5004 42.829 87.4818 42.521C87.4724 42.213 87.4631 41.9703 87.4538 41.793C87.4444 41.6063 87.5051 41.4523 87.6358 41.331C87.7664 41.2003 87.9204 41.1303 88.0978 41.121C88.2751 41.121 88.4244 41.1816 88.5458 41.303C88.6764 41.4243 88.7464 41.5736 88.7558 41.751C88.7651 41.975 88.7744 42.2456 88.7838 42.563C88.7931 42.871 88.8071 43.2023 88.8258 43.557H91.1078C91.2851 43.557 91.4344 43.6223 91.5558 43.753C91.6771 43.8743 91.7378 44.019 91.7378 44.187C91.7378 44.3643 91.6771 44.5136 91.5558 44.635C91.4344 44.7563 91.2851 44.817 91.1078 44.817H88.8818C88.9191 45.5543 88.9518 46.2916 88.9798 47.029C89.0171 47.757 89.0498 48.359 89.0778 48.835C89.1244 49.759 88.9191 50.4216 88.4618 50.823C88.0138 51.2243 87.2858 51.425 86.2778 51.425ZM96.3018 46.903C96.1244 46.903 95.9704 46.8423 95.8398 46.721C95.7184 46.5903 95.6578 46.4363 95.6578 46.259C95.6578 46.0723 95.7184 45.9183 95.8398 45.797C95.9704 45.6756 96.1244 45.615 96.3018 45.615H105.024C105.201 45.615 105.35 45.6756 105.472 45.797C105.602 45.9183 105.668 46.0723 105.668 46.259C105.668 46.4363 105.602 46.5903 105.472 46.721C105.35 46.8423 105.201 46.903 105.024 46.903H96.3018ZM111.744 51.607C111.585 51.6723 111.422 51.6723 111.254 51.607C111.086 51.551 110.964 51.439 110.89 51.271C110.815 51.1123 110.81 50.949 110.876 50.781C110.941 50.613 111.053 50.4916 111.212 50.417C112.696 49.7543 113.956 48.947 114.992 47.995C116.037 47.0336 116.788 45.9883 117.246 44.859C117.451 44.3643 117.479 43.977 117.33 43.697C117.19 43.4076 116.821 43.263 116.224 43.263H110.806C110.628 43.263 110.474 43.2023 110.344 43.081C110.222 42.9503 110.162 42.7963 110.162 42.619C110.162 42.4323 110.222 42.2783 110.344 42.157C110.474 42.0263 110.628 41.961 110.806 41.961H116.224C116.98 41.961 117.563 42.1056 117.974 42.395C118.394 42.6843 118.646 43.081 118.73 43.585C118.814 44.089 118.72 44.6723 118.45 45.335C117.927 46.623 117.087 47.8083 115.93 48.891C114.782 49.9643 113.386 50.8696 111.744 51.607ZM120.438 43.389C120.064 43.389 119.742 43.2536 119.472 42.983C119.201 42.7123 119.066 42.3903 119.066 42.017C119.066 41.6343 119.201 41.3123 119.472 41.051C119.742 40.7803 120.064 40.645 120.438 40.645C120.82 40.645 121.142 40.7803 121.404 41.051C121.674 41.3123 121.81 41.6343 121.81 42.017C121.81 42.3903 121.674 42.7123 121.404 42.983C121.142 43.2536 120.82 43.389 120.438 43.389ZM120.438 42.703C120.624 42.703 120.783 42.6376 120.914 42.507C121.054 42.367 121.124 42.2036 121.124 42.017C121.124 41.821 121.054 41.6576 120.914 41.527C120.783 41.387 120.624 41.317 120.438 41.317C120.242 41.317 120.074 41.387 119.934 41.527C119.803 41.6576 119.738 41.821 119.738 42.017C119.738 42.2036 119.803 42.367 119.934 42.507C120.074 42.6376 120.242 42.703 120.438 42.703ZM125.254 50.795C125.086 50.8603 124.922 50.8556 124.764 50.781C124.605 50.7063 124.493 50.585 124.428 50.417C124.362 50.249 124.367 50.0856 124.442 49.927C124.526 49.759 124.652 49.6423 124.82 49.577C125.585 49.297 126.35 48.9656 127.116 48.583C127.881 48.191 128.614 47.771 129.314 47.323C130.023 46.8656 130.662 46.3943 131.232 45.909C131.81 45.4236 132.291 44.9476 132.674 44.481C132.786 44.341 132.93 44.2663 133.108 44.257C133.285 44.2383 133.444 44.285 133.584 44.397C133.724 44.509 133.803 44.6536 133.822 44.831C133.84 45.0083 133.794 45.167 133.682 45.307C133.308 45.7643 132.804 46.2543 132.17 46.777C131.535 47.2996 130.83 47.8176 130.056 48.331C129.281 48.835 128.478 49.3016 127.648 49.731C126.826 50.1603 126.028 50.515 125.254 50.795ZM126.682 45.363C126.458 45.167 126.201 44.9616 125.912 44.747C125.632 44.5323 125.347 44.327 125.058 44.131C124.778 43.935 124.521 43.767 124.288 43.627C124.138 43.5336 124.04 43.403 123.994 43.235C123.947 43.0576 123.97 42.8943 124.064 42.745C124.157 42.5863 124.292 42.4836 124.47 42.437C124.647 42.3903 124.81 42.4183 124.96 42.521C125.193 42.6703 125.468 42.8616 125.786 43.095C126.112 43.319 126.43 43.5476 126.738 43.781C127.046 44.005 127.293 44.1916 127.48 44.341C127.62 44.453 127.699 44.5976 127.718 44.775C127.746 44.9523 127.704 45.111 127.592 45.251C127.489 45.391 127.344 45.475 127.158 45.503C126.98 45.531 126.822 45.4843 126.682 45.363ZM139.94 51.607C139.781 51.6723 139.618 51.6723 139.45 51.607C139.282 51.551 139.16 51.439 139.086 51.271C139.02 51.1123 139.016 50.949 139.072 50.781C139.137 50.613 139.249 50.4916 139.408 50.417C140.892 49.7543 142.152 48.947 143.188 47.995C144.233 47.0336 144.984 45.9883 145.442 44.859C145.647 44.3643 145.675 43.977 145.526 43.697C145.386 43.4076 145.017 43.263 144.42 43.263H139.002C138.824 43.263 138.67 43.2023 138.54 43.081C138.418 42.9503 138.358 42.7963 138.358 42.619C138.358 42.4323 138.418 42.2783 138.54 42.157C138.67 42.0263 138.824 41.961 139.002 41.961H144.42C145.176 41.961 145.759 42.1056 146.17 42.395C146.59 42.6843 146.842 43.081 146.926 43.585C147.01 44.089 146.916 44.6723 146.646 45.335C146.123 46.623 145.283 47.8083 144.126 48.891C142.978 49.9643 141.582 50.8696 139.94 51.607ZM152.75 50.445C152.6 50.445 152.47 50.389 152.358 50.277C152.246 50.165 152.19 50.0296 152.19 49.871C152.19 49.7123 152.246 49.5816 152.358 49.479C152.47 49.367 152.6 49.311 152.75 49.311H156.096V46.791H153.996C153.837 46.791 153.702 46.735 153.59 46.623C153.478 46.511 153.422 46.3756 153.422 46.217C153.422 46.0583 153.478 45.923 153.59 45.811C153.702 45.699 153.837 45.643 153.996 45.643H159.316C159.474 45.643 159.61 45.699 159.722 45.811C159.834 45.923 159.89 46.0583 159.89 46.217C159.89 46.3756 159.834 46.511 159.722 46.623C159.61 46.735 159.474 46.791 159.316 46.791H157.244V49.311H160.618C160.776 49.311 160.912 49.367 161.024 49.479C161.136 49.5816 161.192 49.7123 161.192 49.871C161.192 50.0296 161.136 50.165 161.024 50.277C160.912 50.389 160.776 50.445 160.618 50.445H152.75ZM171.356 51.873C171.178 51.873 171.024 51.8076 170.894 51.677C170.772 51.5556 170.712 51.4063 170.712 51.229V45.181C170.086 45.7596 169.424 46.3196 168.724 46.861C168.024 47.393 167.328 47.869 166.638 48.289C166.488 48.3823 166.325 48.4056 166.148 48.359C165.98 48.3123 165.844 48.2143 165.742 48.065C165.648 47.9063 165.625 47.743 165.672 47.575C165.718 47.3976 165.816 47.2623 165.966 47.169C166.88 46.6183 167.758 46.0116 168.598 45.349C169.438 44.6863 170.212 43.9863 170.922 43.249C171.631 42.5116 172.238 41.7743 172.742 41.037C172.844 40.8876 172.98 40.799 173.148 40.771C173.325 40.7336 173.488 40.7663 173.638 40.869C173.787 40.9716 173.876 41.1116 173.904 41.289C173.941 41.4663 173.908 41.6296 173.806 41.779C173.563 42.1243 173.288 42.479 172.98 42.843C172.681 43.1976 172.359 43.557 172.014 43.921V51.229C172.014 51.4063 171.948 51.5556 171.818 51.677C171.696 51.8076 171.542 51.873 171.356 51.873ZM183.158 51.999C182.99 52.0643 182.822 52.0643 182.654 51.999C182.495 51.9336 182.378 51.817 182.304 51.649C182.238 51.4903 182.238 51.327 182.304 51.159C182.369 50.991 182.486 50.8743 182.654 50.809C183.68 50.3703 184.52 49.8943 185.174 49.381C185.836 48.8676 186.35 48.3263 186.714 47.757C187.087 47.1876 187.353 46.609 187.512 46.021C187.624 45.6383 187.689 45.3303 187.708 45.097C187.726 44.8543 187.684 44.6676 187.582 44.537C187.432 44.3223 187.106 44.1823 186.602 44.117C186.107 44.0516 185.43 44.019 184.572 44.019C183.918 44.019 183.396 44.0283 183.004 44.047C182.621 44.0656 182.322 44.1076 182.108 44.173C181.902 44.229 181.739 44.327 181.618 44.467C181.524 44.5883 181.473 44.7983 181.464 45.097C181.464 45.3956 181.515 45.867 181.618 46.511C181.646 46.6883 181.608 46.8516 181.506 47.001C181.403 47.141 181.258 47.225 181.072 47.253C180.894 47.281 180.731 47.2436 180.582 47.141C180.442 47.0383 180.358 46.8983 180.33 46.721C180.208 45.9183 180.148 45.2743 180.148 44.789C180.157 44.3036 180.311 43.9023 180.61 43.585C180.806 43.3703 181.044 43.2023 181.324 43.081C181.604 42.9596 181.958 42.871 182.388 42.815C182.826 42.759 183.368 42.7263 184.012 42.717V40.953C184.012 40.7663 184.072 40.6123 184.194 40.491C184.324 40.3696 184.478 40.309 184.656 40.309C184.842 40.309 184.996 40.3696 185.118 40.491C185.239 40.6123 185.3 40.7663 185.3 40.953V42.717C186.242 42.7356 186.975 42.8196 187.498 42.969C188.03 43.109 188.431 43.3563 188.702 43.711C188.972 44.0563 189.089 44.439 189.052 44.859C189.024 45.2696 188.93 45.7736 188.772 46.371C188.585 47.0336 188.272 47.7103 187.834 48.401C187.395 49.0916 186.793 49.745 186.028 50.361C185.272 50.977 184.315 51.523 183.158 51.999ZM191.46 42.661C191.357 42.7543 191.231 42.7916 191.082 42.773C190.942 42.745 190.83 42.675 190.746 42.563C190.624 42.395 190.494 42.2223 190.354 42.045C190.214 41.8676 190.069 41.7043 189.92 41.555C189.836 41.4616 189.794 41.3543 189.794 41.233C189.794 41.1023 189.84 40.9903 189.934 40.897C190.036 40.7943 190.153 40.7523 190.284 40.771C190.414 40.7896 190.531 40.8456 190.634 40.939C190.764 41.051 190.918 41.205 191.096 41.401C191.273 41.597 191.427 41.7743 191.558 41.933C191.651 42.045 191.684 42.1756 191.656 42.325C191.628 42.465 191.562 42.577 191.46 42.661ZM190.214 43.683C190.102 43.767 189.976 43.795 189.836 43.767C189.696 43.739 189.588 43.669 189.514 43.557C189.392 43.3796 189.262 43.1976 189.122 43.011C188.991 42.8243 188.856 42.6563 188.716 42.507C188.632 42.4136 188.59 42.3063 188.59 42.185C188.599 42.0543 188.655 41.947 188.758 41.863C188.87 41.7696 188.986 41.7323 189.108 41.751C189.238 41.7696 189.35 41.8303 189.444 41.933C189.574 42.0543 189.724 42.2176 189.892 42.423C190.069 42.619 190.218 42.7963 190.34 42.955C190.424 43.0763 190.452 43.207 190.424 43.347C190.396 43.487 190.326 43.599 190.214 43.683Z" fill="#21012D"/>
<g clip-path="url(#clip0_24_85)">
<path d="M22.0785 24.8742C22.3148 25.5306 22.4298 26.2371 22.4298 26.9965C22.4298 27.7558 22.3148 28.4894 22.0785 29.1343C21.8422 29.7803 21.506 30.3376 21.0697 30.8125C20.6334 31.2875 20.1058 31.6543 19.4946 31.9181C18.882 32.1871 18.2007 32.3158 17.4432 32.3158C16.6856 32.3158 16.003 32.1871 15.3918 31.9181C14.7792 31.6543 14.2579 31.2875 13.8216 30.8125C13.3804 30.3376 13.0441 29.7791 12.8128 29.1343C12.5766 28.4882 12.4565 27.7764 12.4565 26.9965C12.4565 26.2165 12.5766 25.5293 12.8128 24.8742C13.0441 24.2229 13.3791 23.6605 13.8216 23.1856C14.2579 22.7107 14.7805 22.3387 15.3918 22.0749C16.0043 21.811 16.6906 21.6772 17.4432 21.6772C18.1957 21.6772 18.8833 21.811 19.4946 22.0749C20.1071 22.3387 20.6334 22.7107 21.0697 23.1856C21.506 23.6605 21.8422 24.2242 22.0785 24.8742ZM46.209 28.3247C45.4664 30.0442 44.5639 31.5114 43.54 32.7405C43.6 33.7534 43.58 34.8217 43.465 35.9427C42.5775 44.7331 36.8583 49.315 28.4139 48.4063C26.5976 48.2158 24.9674 47.7808 23.5123 47.1566C22.5948 47.5337 21.601 47.8439 20.5321 48.0756C12.134 49.9199 6.13359 45.7357 4.36846 37.1924C3.98718 35.3532 3.87717 33.6183 4.00718 32.0069C3.37464 31.2218 2.78334 30.3441 2.2358 29.3724C-2.06326 21.7184 -0.0518607 14.5483 7.29367 10.1788C8.87879 9.23411 10.4439 8.59316 11.974 8.22121C12.5053 7.36404 13.1328 6.51202 13.8604 5.67545C19.6046 -0.900014 26.8438 -1.14198 33.1555 4.69988C34.5156 5.95474 35.5882 7.29326 36.407 8.67682C37.3658 8.93036 38.3434 9.27658 39.3472 9.73605C47.1941 13.3256 49.6567 20.3399 46.2102 28.3247H46.209ZM26.1013 26.9965C26.1013 25.6747 25.885 24.4816 25.4537 23.4069C25.0225 22.3323 24.4199 21.4185 23.6524 20.6643C22.8798 19.9101 21.9672 19.3322 20.9084 18.9293C19.8546 18.5214 18.6957 18.3193 17.4419 18.3193C16.1881 18.3193 15.0342 18.5214 13.9754 18.9293C12.9166 19.3322 12.004 19.9114 11.2365 20.6643C10.4639 21.4185 9.86136 22.3323 9.43508 23.4069C9.00379 24.4816 8.78753 25.6747 8.78753 26.9965C8.78753 28.3183 9.00379 29.5165 9.43508 30.5912C9.86136 31.6659 10.4639 32.5797 11.2365 33.3339C12.004 34.0881 12.9166 34.6659 13.9754 35.0688C15.0342 35.4716 16.1881 35.6788 17.4419 35.6788C18.6957 35.6788 19.8546 35.4716 20.9084 35.0688C21.9672 34.6659 22.8798 34.0881 23.6524 33.3339C24.4199 32.5797 25.0225 31.6659 25.4537 30.5912C25.885 29.5165 26.1013 28.3183 26.1013 26.9965ZM38.9497 18.7376H28.1839V35.2554H31.7204V28.8202H38.4034V25.4572H31.7204V22.0993H38.9497V18.7363V18.7376Z" fill="url(#paint0_linear_24_85)"/>
<path d="M53.1702 26.9985C53.1702 25.5699 53.4027 24.2738 53.869 23.1129C54.334 21.952 54.984 20.9649 55.8166 20.1489C56.6492 19.3329 57.638 18.7074 58.7818 18.2685C59.9244 17.8322 61.1745 17.6122 62.5308 17.6122C63.8872 17.6122 65.136 17.8309 66.2799 18.2685C67.4237 18.7061 68.4125 19.3329 69.2451 20.1489C70.0776 20.9649 70.7277 21.952 71.1927 23.1129C71.6578 24.2738 71.8915 25.5699 71.8915 26.9985C71.8915 28.4271 71.659 29.7232 71.1927 30.8841C70.7277 32.045 70.0776 33.0321 69.2451 33.8481C68.4125 34.6641 67.4237 35.2896 66.2799 35.7272C65.136 36.1648 63.8859 36.3836 62.5308 36.3836C61.1757 36.3836 59.9244 36.1648 58.7818 35.7272C57.638 35.2909 56.6492 34.6641 55.8166 33.8481C54.984 33.0321 54.334 32.0437 53.869 30.8841C53.4039 29.7232 53.1702 28.4284 53.1702 26.9985ZM57.1392 26.9985C57.1392 27.8389 57.2655 28.6086 57.5192 29.3074C57.7717 30.005 58.1355 30.6112 58.6093 31.1235C59.0831 31.637 59.6506 32.036 60.3119 32.3217C60.9732 32.6087 61.712 32.7503 62.5296 32.7503C63.3472 32.7503 64.086 32.6087 64.7473 32.3217C65.4086 32.036 65.9761 31.637 66.4499 31.1235C66.9237 30.6099 67.2874 30.005 67.5412 29.3074C67.7937 28.6099 67.9212 27.8402 67.9212 26.9985C67.9212 26.1568 67.795 25.409 67.5412 24.7037C67.2874 23.9971 66.9237 23.3871 66.4499 22.8736C65.9761 22.3613 65.4086 21.9623 64.7473 21.6753C64.086 21.3896 63.3472 21.2467 62.5296 21.2467C61.712 21.2467 60.9732 21.3896 60.3119 21.6753C59.6506 21.9623 59.0818 22.3613 58.6093 22.8736C58.1355 23.3871 57.7717 23.9958 57.5192 24.7037C57.2655 25.4103 57.1392 26.1748 57.1392 26.9985ZM74.3655 18.0665H80.8097C81.7085 18.0665 82.5573 18.1514 83.3586 18.3187C84.1587 18.4873 84.8575 18.7782 85.4538 19.1888C86.05 19.6006 86.5238 20.1566 86.8751 20.8542C87.2264 21.5518 87.4014 22.4308 87.4014 23.49C87.4014 24.5493 87.2376 25.4077 86.9114 26.1143C86.5838 26.8209 86.1351 27.3833 85.5638 27.8042C84.9912 28.225 84.3137 28.5236 83.5299 28.7C82.7461 28.8763 81.896 28.9638 80.9809 28.9638H78.187V35.9267H74.3642V18.0652L74.3655 18.0665ZM78.1882 25.6355H80.7372C81.0797 25.6355 81.411 25.6021 81.7297 25.5351C82.0485 25.4682 82.3335 25.355 82.5873 25.1954C82.8398 25.0358 83.0448 24.817 83.1998 24.539C83.3549 24.261 83.4324 23.9122 83.4324 23.4913C83.4324 23.037 83.3299 22.6715 83.1261 22.3948C82.9223 22.1168 82.6611 21.9031 82.3423 21.7513C82.0235 21.6007 81.6685 21.5029 81.2772 21.4617C80.8847 21.4192 80.5096 21.3986 80.1496 21.3986H78.1895V25.6368L78.1882 25.6355ZM89.8278 18.0665H101.615V21.6998H93.6506V25.0293H101.174V28.6626H93.6506V32.2947H102.056V35.928H89.8278V18.0665ZM104.996 18.0665H110.192L117.567 30.4786H117.616V18.0665H121.439V35.928H116.44L108.868 23.212H108.819V35.928H104.996V18.0665ZM132.122 18.0665H143.762V21.6998H135.945V25.3331H143.174V28.9651H135.945V35.928H132.122V18.0665ZM150.622 18.0665H153.784L161.331 35.928H157.018L155.523 32.1441H148.783L147.337 35.928H143.123L150.621 18.0665H150.622ZM152.092 23.2648L149.985 28.8145H154.224L152.092 23.2648ZM158.783 18.0665H163.144L167.432 29.7721H167.481L171.843 18.0665H175.935L168.78 35.928H165.717L158.783 18.0665ZM177.773 18.0665H189.56V21.6998H181.596V25.0293H189.119V28.6626H181.596V32.2947H190.001V35.928H177.773V18.0665Z" fill="url(#paint1_linear_24_85)"/>
</g>
<defs>
<linearGradient id="paint0_linear_24_85" x1="7.13741" y1="43.9455" x2="41.6668" y2="10.4073" gradientUnits="userSpaceOnUse">
<stop stop-color="#FFB2B8"/>
<stop offset="0.14" stop-color="#FF7DB8"/>
<stop offset="0.18" stop-color="#FA75BC"/>
<stop offset="0.24" stop-color="#ED62C7"/>
<stop offset="0.31" stop-color="#D842D9"/>
<stop offset="0.38" stop-color="#BB15F2"/>
<stop offset="0.42" stop-color="#AD00FF"/>
<stop offset="0.51" stop-color="#A711FE"/>
<stop offset="0.59" stop-color="#A41BFE"/>
<stop offset="0.62" stop-color="#9A35FC"/>
<stop offset="0.68" stop-color="#8C5DFB"/>
<stop offset="0.74" stop-color="#817EF9"/>
<stop offset="0.8" stop-color="#7897F8"/>
<stop offset="0.86" stop-color="#71A9F7"/>
<stop offset="0.93" stop-color="#6EB4F7"/>
<stop offset="1" stop-color="#6DB8F7"/>
</linearGradient>
<linearGradient id="paint1_linear_24_85" x1="53.1702" y1="26.9985" x2="190" y2="26.9985" gradientUnits="userSpaceOnUse">
<stop stop-color="#FFB2B8"/>
<stop offset="0.14" stop-color="#FF7DB8"/>
<stop offset="0.19" stop-color="#FA75BC"/>
<stop offset="0.26" stop-color="#ED62C7"/>
<stop offset="0.34" stop-color="#D842D9"/>
<stop offset="0.44" stop-color="#BB15F2"/>
<stop offset="0.48" stop-color="#AD00FF"/>
<stop offset="0.55" stop-color="#A711FE"/>
<stop offset="0.61" stop-color="#A41BFE"/>
<stop offset="0.64" stop-color="#9A35FC"/>
<stop offset="0.7" stop-color="#8C5DFB"/>
<stop offset="0.75" stop-color="#817EF9"/>
<stop offset="0.81" stop-color="#7897F8"/>
<stop offset="0.87" stop-color="#71A9F7"/>
<stop offset="0.93" stop-color="#6EB4F7"/>
<stop offset="1" stop-color="#6DB8F7"/>
</linearGradient>
<clipPath id="clip0_24_85">
<rect width="190" height="48" fill="white" transform="translate(0 0.519028)"/>
</clipPath>
</defs>
</svg>
