<svg width="1440" height="269" viewBox="0 0 1440 269" fill="none" xmlns="http://www.w3.org/2000/svg">
<path d="M59.558 4.72998V105.842H140.754V4.72998H204.332V269H140.754V158.696H59.558V269H-4.02V4.72998H59.558ZM349.896 129.205H446.029V157.547C446.029 236.445 408.878 272.83 348.747 272.83C288.616 272.83 244.571 236.445 244.571 157.547V121.545C244.571 36.519 288.616 0.899982 348.747 0.899982C406.197 0.899982 438.369 34.604 446.029 86.309H385.515C382.834 69.84 371.727 53.754 348.747 53.754C322.32 53.754 308.149 72.904 308.149 116.183V157.547C308.149 200.826 322.32 219.976 348.747 219.976C374.408 219.976 382.834 203.89 385.132 182.059H349.896V129.205ZM486.325 4.72998H653.313V57.584H549.903V111.97H641.823V164.824H549.903V269H486.325V4.72998ZM877.99 269H779.559V4.72998H877.99C938.121 4.72998 982.166 34.221 982.166 117.715V156.015C982.166 238.743 938.121 269 877.99 269ZM877.99 216.146C910.928 216.146 918.588 191.634 918.588 156.015V117.715C918.588 82.096 910.928 57.584 877.99 57.584H843.137V216.146H877.99ZM1051.69 269H983.896L1075.82 4.72998H1137.1L1229.02 269H1161.22L1147.05 223.806H1065.47L1051.69 269ZM1106.46 92.82L1081.94 170.952H1130.58L1106.46 92.82ZM1439.22 157.547C1439.22 236.445 1395.18 272.83 1335.05 272.83C1274.92 272.83 1230.87 236.445 1230.87 157.547V116.183C1230.87 36.519 1274.92 0.899982 1335.05 0.899982C1395.18 0.899982 1439.22 36.519 1439.22 116.183V157.547ZM1294.45 116.183V157.547C1294.45 200.826 1308.62 219.976 1335.05 219.976C1361.47 219.976 1375.64 200.826 1375.64 157.547V116.183C1375.64 72.904 1361.47 53.754 1335.05 53.754C1308.62 53.754 1294.45 72.904 1294.45 116.183Z" fill="white" fill-opacity="0.3"/>
</svg>
