<svg width="528" height="71" viewBox="0 0 528 71" fill="none" xmlns="http://www.w3.org/2000/svg">
<path d="M0.46875 48.5V33.7H39.3688V48.5H0.46875ZM92.9477 0.999994V27.4H114.148V0.999994H130.748V70H114.148V41.2H92.9477V70H76.3477V0.999994H92.9477ZM168.754 33.5H193.854V40.9C193.854 61.5 184.154 71 168.454 71C152.754 71 141.254 61.5 141.254 40.9V31.5C141.254 9.29999 152.754 -4.76837e-06 168.454 -4.76837e-06C183.454 -4.76837e-06 191.854 8.8 193.854 22.3H178.054C177.354 18 174.454 13.8 168.454 13.8C161.554 13.8 157.854 18.8 157.854 30.1V40.9C157.854 52.2 161.554 57.2 168.454 57.2C175.154 57.2 177.354 53 177.954 47.3H168.754V33.5ZM204.375 0.999994H247.975V14.8H220.975V29H244.975V42.8H220.975V70H204.375V0.999994ZM306.638 70H280.938V0.999994H306.638C322.338 0.999994 333.838 8.7 333.838 30.5V40.5C333.838 62.1 322.338 70 306.638 70ZM306.638 56.2C315.238 56.2 317.238 49.8 317.238 40.5V30.5C317.238 21.2 315.238 14.8 306.638 14.8H297.538V56.2H306.638ZM351.989 70H334.289L358.289 0.999994H374.289L398.289 70H380.589L376.889 58.2H355.589L351.989 70ZM366.289 24L359.889 44.4H372.589L366.289 24ZM453.173 40.9C453.173 61.5 441.673 71 425.973 71C410.273 71 398.773 61.5 398.773 40.9V30.1C398.773 9.29999 410.273 -4.76837e-06 425.973 -4.76837e-06C441.673 -4.76837e-06 453.173 9.29999 453.173 30.1V40.9ZM415.373 30.1V40.9C415.373 52.2 419.073 57.2 425.973 57.2C432.873 57.2 436.573 52.2 436.573 40.9V30.1C436.573 18.8 432.873 13.8 425.973 13.8C419.073 13.8 415.373 18.8 415.373 30.1ZM488.652 48.5V33.7H527.552V48.5H488.652Z" fill="white"/>
</svg>
