<svg width="189" height="308" viewBox="0 0 189 308" fill="none" xmlns="http://www.w3.org/2000/svg">
<path d="M40 48V13C55.1619 13 68.5994 22.7636 73.2847 37.1844L40 48Z" fill="#2CA4DE"/>
<path d="M40 48.0002L73.2847 37.1846C77.97 51.6054 72.8373 67.4032 60.5711 76.3158L40 48.0002Z" fill="#228FCE"/>
<path d="M40 48L60.5711 76.3156C48.3049 85.2281 31.6952 85.2281 19.429 76.3156L40 48Z" fill="#1E7DBE"/>
<path d="M40 48.0002L19.4289 76.3158C7.1627 67.4032 2.03001 51.6054 6.71529 37.1846L40 48.0002Z" fill="#1A68AE"/>
<path d="M40.0002 48L6.71545 37.1844C11.4007 22.7636 24.8383 13 40.0002 13V48Z" fill="#18539E"/>
<path d="M71.0563 48.0002C71.0563 65.1521 57.1519 79.0565 39.9999 79.0565C22.848 79.0565 8.9436 65.1521 8.9436 48.0002C8.9436 30.8482 22.848 16.9438 39.9999 16.9438C57.1519 16.9438 71.0563 30.8482 71.0563 48.0002Z" fill="white"/>
<path d="M59.0166 55.0652V44.5356H61.5465V48.5496H65.0093V44.5356H67.5251V55.0652H65.0093V50.7403H61.5465V55.0652H59.0166Z" fill="#2C2C2C"/>
<path d="M52.294 55.0652V46.6416H49.4531V44.5356H57.6789V46.6416H54.8239V55.0652H52.294Z" fill="#2C2C2C"/>
<path d="M41.6403 55.0652V44.5356H48.3114V46.6416H44.1702V48.592H47.6895V50.7121H44.1702V52.9452H48.4668V55.0652H41.6403Z" fill="#2C2C2C"/>
<path d="M29.6178 55.0652L27.7097 44.5356H30.282L30.9463 49.3411C31.0877 50.4435 31.229 51.546 31.3703 52.6766H31.4269C31.6247 51.546 31.8368 50.4294 32.0488 49.3411L33.1229 44.5356H35.2571L36.3454 49.3411C36.5574 50.4153 36.7411 51.546 36.9531 52.6766H37.0238C37.151 51.546 37.2924 50.4294 37.4196 49.3411L38.1121 44.5356H40.5007L38.6775 55.0652H35.4974L34.5504 50.4859C34.3808 49.6803 34.2395 48.8323 34.1405 48.0408H34.084C33.9427 48.8323 33.8155 49.6803 33.66 50.4859L32.7413 55.0652H29.6178Z" fill="#2C2C2C"/>
<path d="M21.0248 45.289H13.6314L11.7831 41.5913H19.1775L21.0248 45.289Z" fill="#18539E"/>
<path d="M24.7221 45.289L22.8737 48.9857L21.0244 45.289L19.177 41.5913H22.8737L24.7221 45.289Z" fill="#1A68AE"/>
<path d="M26.572 48.9853L24.7226 52.682H21.0249L22.8743 48.9853L24.7226 45.2886L26.572 48.9853Z" fill="#1E7DBE"/>
<path d="M24.7223 52.6821L22.8739 56.3798H15.4825L17.3299 52.6821H24.7223Z" fill="#228FCE"/>
<path d="M17.3281 52.682H17.3301L15.4828 56.3797H11.7831L13.6314 52.682L17.3281 45.2886L19.1775 48.9853L17.3281 52.682Z" fill="#2CA4DE"/>
<path d="M97 35V0C112.162 0 125.599 9.76361 130.285 24.1844L97 35Z" fill="#2CA4DE"/>
<path d="M97 35.0002L130.285 24.1846C134.97 38.6054 129.837 54.4032 117.571 63.3158L97 35.0002Z" fill="#228FCE"/>
<path d="M97 35L117.571 63.3156C105.305 72.2281 88.6952 72.2281 76.429 63.3156L97 35Z" fill="#1E7DBE"/>
<path d="M97 35.0002L76.4289 63.3158C64.1627 54.4032 59.03 38.6054 63.7153 24.1846L97 35.0002Z" fill="#1A68AE"/>
<path d="M97.0002 35L63.7155 24.1844C68.4007 9.76361 81.8383 0 97.0002 0V35Z" fill="#18539E"/>
<path d="M128.056 35.0002C128.056 52.1521 114.152 66.0565 96.9999 66.0565C79.848 66.0565 65.9436 52.1521 65.9436 35.0002C65.9436 17.8482 79.848 3.94385 96.9999 3.94385C114.152 3.94385 128.056 17.8482 128.056 35.0002Z" fill="white"/>
<path d="M116.017 42.0652V31.5356H118.547V35.5496H122.009V31.5356H124.525V42.0652H122.009V37.7403H118.547V42.0652H116.017Z" fill="#2C2C2C"/>
<path d="M109.294 42.0652V33.6416H106.453V31.5356H114.679V33.6416H111.824V42.0652H109.294Z" fill="#2C2C2C"/>
<path d="M98.6401 42.0652V31.5356H105.311V33.6416H101.17V35.592H104.689V37.7121H101.17V39.9452H105.467V42.0652H98.6401Z" fill="#2C2C2C"/>
<path d="M86.6178 42.0652L84.7097 31.5356H87.282L87.9463 36.3411C88.0877 37.4435 88.229 38.546 88.3703 39.6766H88.4269C88.6247 38.546 88.8368 37.4294 89.0488 36.3411L90.1229 31.5356H92.2571L93.3454 36.3411C93.5574 37.4153 93.7411 38.546 93.9531 39.6766H94.0238C94.151 38.546 94.2924 37.4294 94.4196 36.3411L95.1121 31.5356H97.5007L95.6775 42.0652H92.4974L91.5504 37.4859C91.3808 36.6803 91.2395 35.8323 91.1405 35.0408H91.084C90.9427 35.8323 90.8155 36.6803 90.66 37.4859L89.7413 42.0652H86.6178Z" fill="#2C2C2C"/>
<path d="M78.0248 32.289H70.6314L68.7831 28.5913H76.1775L78.0248 32.289Z" fill="#18539E"/>
<path d="M81.7221 32.289L79.8737 35.9857L78.0244 32.289L76.177 28.5913H79.8737L81.7221 32.289Z" fill="#1A68AE"/>
<path d="M83.572 35.9853L81.7226 39.682H78.0249L79.8743 35.9853L81.7226 32.2886L83.572 35.9853Z" fill="#1E7DBE"/>
<path d="M81.7222 39.6821L79.8738 43.3798H72.4824L74.3298 39.6821H81.7222Z" fill="#228FCE"/>
<path d="M74.3281 39.682H74.3301L72.4828 43.3797H68.7831L70.6314 39.682L74.3281 32.2886L76.1775 35.9853L74.3281 39.682Z" fill="#2CA4DE"/>
<path d="M154 48V13C169.162 13 182.599 22.7636 187.285 37.1844L154 48Z" fill="#2CA4DE"/>
<path d="M154 48.0002L187.285 37.1846C191.97 51.6054 186.837 67.4032 174.571 76.3158L154 48.0002Z" fill="#228FCE"/>
<path d="M154 48L174.571 76.3156C162.305 85.2281 145.695 85.2281 133.429 76.3156L154 48Z" fill="#1E7DBE"/>
<path d="M154 48.0002L133.429 76.3158C121.163 67.4032 116.03 51.6054 120.715 37.1846L154 48.0002Z" fill="#1A68AE"/>
<path d="M154 48L120.715 37.1844C125.401 22.7636 138.838 13 154 13V48Z" fill="#18539E"/>
<path d="M185.056 48.0002C185.056 65.1521 171.152 79.0565 154 79.0565C136.848 79.0565 122.944 65.1521 122.944 48.0002C122.944 30.8482 136.848 16.9438 154 16.9438C171.152 16.9438 185.056 30.8482 185.056 48.0002Z" fill="white"/>
<path d="M173.017 55.0652V44.5356H175.547V48.5496H179.009V44.5356H181.525V55.0652H179.009V50.7403H175.547V55.0652H173.017Z" fill="#2C2C2C"/>
<path d="M166.294 55.0652V46.6416H163.453V44.5356H171.679V46.6416H168.824V55.0652H166.294Z" fill="#2C2C2C"/>
<path d="M155.64 55.0652V44.5356H162.311V46.6416H158.17V48.592H161.689V50.7121H158.17V52.9452H162.467V55.0652H155.64Z" fill="#2C2C2C"/>
<path d="M143.618 55.0652L141.71 44.5356H144.282L144.946 49.3411C145.088 50.4435 145.229 51.546 145.37 52.6766H145.427C145.625 51.546 145.837 50.4294 146.049 49.3411L147.123 44.5356H149.257L150.345 49.3411C150.557 50.4153 150.741 51.546 150.953 52.6766H151.024C151.151 51.546 151.292 50.4294 151.42 49.3411L152.112 44.5356H154.501L152.677 55.0652H149.497L148.55 50.4859C148.381 49.6803 148.239 48.8323 148.141 48.0408H148.084C147.943 48.8323 147.815 49.6803 147.66 50.4859L146.741 55.0652H143.618Z" fill="#2C2C2C"/>
<path d="M135.025 45.289H127.632L125.783 41.5913H133.178L135.025 45.289Z" fill="#18539E"/>
<path d="M138.722 45.289L136.874 48.9857L135.024 45.289L133.177 41.5913H136.874L138.722 45.289Z" fill="#1A68AE"/>
<path d="M140.572 48.9853L138.723 52.682H135.025L136.874 48.9853L138.723 45.2886L140.572 48.9853Z" fill="#1E7DBE"/>
<path d="M138.722 52.6821L136.874 56.3798H129.483L131.33 52.6821H138.722Z" fill="#228FCE"/>
<path d="M131.328 52.682H131.33L129.483 56.3797H125.783L127.632 52.682L131.328 45.2886L133.178 48.9853L131.328 52.682Z" fill="#2CA4DE"/>
<path d="M64.3777 110H60.7332L60.7566 107.668H64.3777C65.4324 107.668 66.3152 107.438 67.0261 106.977C67.7449 106.516 68.2839 105.855 68.6433 104.996C69.0105 104.137 69.1941 103.113 69.1941 101.926V101C69.1941 100.078 69.0886 99.2617 68.8777 98.5508C68.6746 97.8398 68.3699 97.2422 67.9636 96.7578C67.5652 96.2734 67.073 95.9062 66.4871 95.6562C65.9089 95.4062 65.241 95.2812 64.4832 95.2812H60.6628V92.9375H64.4832C65.616 92.9375 66.6511 93.1289 67.5886 93.5117C68.5261 93.8867 69.3347 94.4297 70.0144 95.1406C70.7019 95.8516 71.2292 96.7031 71.5964 97.6953C71.9636 98.6875 72.1472 99.7969 72.1472 101.023V101.926C72.1472 103.152 71.9636 104.262 71.5964 105.254C71.2292 106.246 70.7019 107.098 70.0144 107.809C69.3269 108.512 68.5066 109.055 67.5535 109.438C66.6082 109.812 65.5496 110 64.3777 110ZM62.3621 92.9375V110H59.4207V92.9375H62.3621ZM78.2644 107.188L81.1941 97.3203H82.9988L82.5066 100.273L79.5535 110H77.9363L78.2644 107.188ZM76.5417 97.3203L78.8269 107.234L79.0144 110H77.2097L73.7761 97.3203H76.5417ZM85.741 107.117L87.9558 97.3203H90.7097L87.2878 110H85.4832L85.741 107.117ZM83.3035 97.3203L86.198 107.07L86.5613 110H84.9441L81.9558 100.262L81.4636 97.3203H83.3035ZM104.081 107.668V110H95.0222V107.668H104.081ZM95.8542 92.9375V110H92.9128V92.9375H95.8542ZM102.897 100.062V102.359H95.0222V100.062H102.897ZM104.022 92.9375V95.2812H95.0222V92.9375H104.022ZM113.737 92.9375V110H110.819V92.9375H113.737ZM119.093 92.9375V95.2812H105.51V92.9375H119.093ZM132.616 100.062V102.395H123.557V100.062H132.616ZM124.284 92.9375V110H121.343V92.9375H124.284ZM134.878 92.9375V110H131.948V92.9375H134.878Z" fill="black"/>
<path d="M75.6055 160.668V160.219C75.6055 158.695 75.8268 157.283 76.2695 155.98C76.7122 154.665 77.3503 153.526 78.1836 152.562C79.0299 151.586 80.0586 150.831 81.2695 150.297C82.4935 149.75 83.8737 149.477 85.4102 149.477C86.9596 149.477 88.3398 149.75 89.5508 150.297C90.7747 150.831 91.8099 151.586 92.6562 152.562C93.5026 153.526 94.1471 154.665 94.5898 155.98C95.0326 157.283 95.2539 158.695 95.2539 160.219V160.668C95.2539 162.191 95.0326 163.604 94.5898 164.906C94.1471 166.208 93.5026 167.348 92.6562 168.324C91.8099 169.288 90.7812 170.043 89.5703 170.59C88.3594 171.124 86.9857 171.391 85.4492 171.391C83.8997 171.391 82.513 171.124 81.2891 170.59C80.0781 170.043 79.0495 169.288 78.2031 168.324C77.3568 167.348 76.7122 166.208 76.2695 164.906C75.8268 163.604 75.6055 162.191 75.6055 160.668ZM80.3125 160.219V160.668C80.3125 161.618 80.4102 162.517 80.6055 163.363C80.8008 164.21 81.1068 164.952 81.5234 165.59C81.9401 166.228 82.474 166.729 83.125 167.094C83.776 167.458 84.5508 167.641 85.4492 167.641C86.3216 167.641 87.0768 167.458 87.7148 167.094C88.3659 166.729 88.8997 166.228 89.3164 165.59C89.7331 164.952 90.0391 164.21 90.2344 163.363C90.4427 162.517 90.5469 161.618 90.5469 160.668V160.219C90.5469 159.281 90.4427 158.396 90.2344 157.562C90.0391 156.716 89.7266 155.967 89.2969 155.316C88.8802 154.665 88.3464 154.158 87.6953 153.793C87.0573 153.415 86.2956 153.227 85.4102 153.227C84.5247 153.227 83.7565 153.415 83.1055 153.793C82.4674 154.158 81.9401 154.665 81.5234 155.316C81.1068 155.967 80.8008 156.716 80.6055 157.562C80.4102 158.396 80.3125 159.281 80.3125 160.219ZM103.926 153.891V171H99.2188V149.867H103.711L103.926 153.891ZM110.391 149.73L110.352 154.105C110.065 154.053 109.753 154.014 109.414 153.988C109.089 153.962 108.763 153.949 108.438 153.949C107.63 153.949 106.921 154.066 106.309 154.301C105.697 154.522 105.182 154.848 104.766 155.277C104.362 155.694 104.049 156.202 103.828 156.801C103.607 157.4 103.477 158.07 103.438 158.812L102.363 158.891C102.363 157.562 102.493 156.332 102.754 155.199C103.014 154.066 103.405 153.07 103.926 152.211C104.46 151.352 105.124 150.681 105.918 150.199C106.725 149.717 107.656 149.477 108.711 149.477C108.997 149.477 109.303 149.503 109.629 149.555C109.967 149.607 110.221 149.665 110.391 149.73Z" fill="black"/>
<path d="M54.3281 295.668V298H45.2695V295.668H54.3281ZM46.1016 280.938V298H43.1602V280.938H46.1016ZM53.1445 288.062V290.359H45.2695V288.062H53.1445ZM54.2695 280.938V283.281H45.2695V280.938H54.2695ZM62.2617 285.32V287.383H55.1133V285.32H62.2617ZM57.1758 282.215H60V294.496C60 294.887 60.0547 295.188 60.1641 295.398C60.2812 295.602 60.4414 295.738 60.6445 295.809C60.8477 295.879 61.0859 295.914 61.3594 295.914C61.5547 295.914 61.7422 295.902 61.9219 295.879C62.1016 295.855 62.2461 295.832 62.3555 295.809L62.3672 297.965C62.1328 298.035 61.8594 298.098 61.5469 298.152C61.2422 298.207 60.8906 298.234 60.4922 298.234C59.8438 298.234 59.2695 298.121 58.7695 297.895C58.2695 297.66 57.8789 297.281 57.5977 296.758C57.3164 296.234 57.1758 295.539 57.1758 294.672V282.215ZM67.2305 280V298H64.418V280H67.2305ZM66.7383 291.191L65.8242 291.18C65.832 290.305 65.9531 289.496 66.1875 288.754C66.4297 288.012 66.7656 287.367 67.1953 286.82C67.6328 286.266 68.1562 285.84 68.7656 285.543C69.375 285.238 70.0508 285.086 70.793 285.086C71.418 285.086 71.9805 285.172 72.4805 285.344C72.9883 285.516 73.4258 285.793 73.793 286.176C74.1602 286.551 74.4375 287.043 74.625 287.652C74.8203 288.254 74.918 288.988 74.918 289.855V298H72.082V289.832C72.082 289.223 71.9922 288.738 71.8125 288.379C71.6406 288.02 71.3867 287.762 71.0508 287.605C70.7148 287.441 70.3047 287.359 69.8203 287.359C69.3125 287.359 68.8633 287.461 68.4727 287.664C68.0898 287.867 67.7695 288.145 67.5117 288.496C67.2539 288.848 67.0586 289.254 66.9258 289.715C66.8008 290.176 66.7383 290.668 66.7383 291.191ZM83.3672 298.234C82.4297 298.234 81.582 298.082 80.8242 297.777C80.0742 297.465 79.4336 297.031 78.9023 296.477C78.3789 295.922 77.9766 295.27 77.6953 294.52C77.4141 293.77 77.2734 292.961 77.2734 292.094V291.625C77.2734 290.633 77.418 289.734 77.707 288.93C77.9961 288.125 78.3984 287.438 78.9141 286.867C79.4297 286.289 80.0391 285.848 80.7422 285.543C81.4453 285.238 82.207 285.086 83.0273 285.086C83.9336 285.086 84.7266 285.238 85.4062 285.543C86.0859 285.848 86.6484 286.277 87.0938 286.832C87.5469 287.379 87.8828 288.031 88.1016 288.789C88.3281 289.547 88.4414 290.383 88.4414 291.297V292.504H78.6445V290.477H85.6523V290.254C85.6367 289.746 85.5352 289.27 85.3477 288.824C85.168 288.379 84.8906 288.02 84.5156 287.746C84.1406 287.473 83.6406 287.336 83.0156 287.336C82.5469 287.336 82.1289 287.438 81.7617 287.641C81.4023 287.836 81.1016 288.121 80.8594 288.496C80.6172 288.871 80.4297 289.324 80.2969 289.855C80.1719 290.379 80.1094 290.969 80.1094 291.625V292.094C80.1094 292.648 80.1836 293.164 80.332 293.641C80.4883 294.109 80.7148 294.52 81.0117 294.871C81.3086 295.223 81.668 295.5 82.0898 295.703C82.5117 295.898 82.9922 295.996 83.5312 295.996C84.2109 295.996 84.8164 295.859 85.3477 295.586C85.8789 295.312 86.3398 294.926 86.7305 294.426L88.2188 295.867C87.9453 296.266 87.5898 296.648 87.1523 297.016C86.7148 297.375 86.1797 297.668 85.5469 297.895C84.9219 298.121 84.1953 298.234 83.3672 298.234ZM93.4805 287.734V298H90.6562V285.32H93.3516L93.4805 287.734ZM97.3594 285.238L97.3359 287.863C97.1641 287.832 96.9766 287.809 96.7734 287.793C96.5781 287.777 96.3828 287.77 96.1875 287.77C95.7031 287.77 95.2773 287.84 94.9102 287.98C94.543 288.113 94.2344 288.309 93.9844 288.566C93.7422 288.816 93.5547 289.121 93.4219 289.48C93.2891 289.84 93.2109 290.242 93.1875 290.688L92.543 290.734C92.543 289.938 92.6211 289.199 92.7773 288.52C92.9336 287.84 93.168 287.242 93.4805 286.727C93.8008 286.211 94.1992 285.809 94.6758 285.52C95.1602 285.23 95.7188 285.086 96.3516 285.086C96.5234 285.086 96.707 285.102 96.9023 285.133C97.1055 285.164 97.2578 285.199 97.3594 285.238ZM104.484 298.234C103.547 298.234 102.699 298.082 101.941 297.777C101.191 297.465 100.551 297.031 100.02 296.477C99.4961 295.922 99.0938 295.27 98.8125 294.52C98.5312 293.77 98.3906 292.961 98.3906 292.094V291.625C98.3906 290.633 98.5352 289.734 98.8242 288.93C99.1133 288.125 99.5156 287.438 100.031 286.867C100.547 286.289 101.156 285.848 101.859 285.543C102.562 285.238 103.324 285.086 104.145 285.086C105.051 285.086 105.844 285.238 106.523 285.543C107.203 285.848 107.766 286.277 108.211 286.832C108.664 287.379 109 288.031 109.219 288.789C109.445 289.547 109.559 290.383 109.559 291.297V292.504H99.7617V290.477H106.77V290.254C106.754 289.746 106.652 289.27 106.465 288.824C106.285 288.379 106.008 288.02 105.633 287.746C105.258 287.473 104.758 287.336 104.133 287.336C103.664 287.336 103.246 287.438 102.879 287.641C102.52 287.836 102.219 288.121 101.977 288.496C101.734 288.871 101.547 289.324 101.414 289.855C101.289 290.379 101.227 290.969 101.227 291.625V292.094C101.227 292.648 101.301 293.164 101.449 293.641C101.605 294.109 101.832 294.52 102.129 294.871C102.426 295.223 102.785 295.5 103.207 295.703C103.629 295.898 104.109 295.996 104.648 295.996C105.328 295.996 105.934 295.859 106.465 295.586C106.996 295.312 107.457 294.926 107.848 294.426L109.336 295.867C109.062 296.266 108.707 296.648 108.27 297.016C107.832 297.375 107.297 297.668 106.664 297.895C106.039 298.121 105.312 298.234 104.484 298.234ZM119.391 295.012V285.32H122.227V298H119.555L119.391 295.012ZM119.789 292.375L120.738 292.352C120.738 293.203 120.645 293.988 120.457 294.707C120.27 295.418 119.98 296.039 119.59 296.57C119.199 297.094 118.699 297.504 118.09 297.801C117.48 298.09 116.75 298.234 115.898 298.234C115.281 298.234 114.715 298.145 114.199 297.965C113.684 297.785 113.238 297.508 112.863 297.133C112.496 296.758 112.211 296.27 112.008 295.668C111.805 295.066 111.703 294.348 111.703 293.512V285.32H114.527V293.535C114.527 293.996 114.582 294.383 114.691 294.695C114.801 295 114.949 295.246 115.137 295.434C115.324 295.621 115.543 295.754 115.793 295.832C116.043 295.91 116.309 295.949 116.59 295.949C117.395 295.949 118.027 295.793 118.488 295.48C118.957 295.16 119.289 294.73 119.484 294.191C119.688 293.652 119.789 293.047 119.789 292.375ZM127.945 287.898V298H125.121V285.32H127.781L127.945 287.898ZM127.488 291.191L126.527 291.18C126.527 290.305 126.637 289.496 126.855 288.754C127.074 288.012 127.395 287.367 127.816 286.82C128.238 286.266 128.762 285.84 129.387 285.543C130.02 285.238 130.75 285.086 131.578 285.086C132.156 285.086 132.684 285.172 133.16 285.344C133.645 285.508 134.062 285.77 134.414 286.129C134.773 286.488 135.047 286.949 135.234 287.512C135.43 288.074 135.527 288.754 135.527 289.551V298H132.703V289.797C132.703 289.18 132.609 288.695 132.422 288.344C132.242 287.992 131.98 287.742 131.637 287.594C131.301 287.438 130.898 287.359 130.43 287.359C129.898 287.359 129.445 287.461 129.07 287.664C128.703 287.867 128.402 288.145 128.168 288.496C127.934 288.848 127.762 289.254 127.652 289.715C127.543 290.176 127.488 290.668 127.488 291.191ZM135.352 290.441L134.027 290.734C134.027 289.969 134.133 289.246 134.344 288.566C134.562 287.879 134.879 287.277 135.293 286.762C135.715 286.238 136.234 285.828 136.852 285.531C137.469 285.234 138.176 285.086 138.973 285.086C139.621 285.086 140.199 285.176 140.707 285.355C141.223 285.527 141.66 285.801 142.02 286.176C142.379 286.551 142.652 287.039 142.84 287.641C143.027 288.234 143.121 288.953 143.121 289.797V298H140.285V289.785C140.285 289.145 140.191 288.648 140.004 288.297C139.824 287.945 139.566 287.703 139.23 287.57C138.895 287.43 138.492 287.359 138.023 287.359C137.586 287.359 137.199 287.441 136.863 287.605C136.535 287.762 136.258 287.984 136.031 288.273C135.805 288.555 135.633 288.879 135.516 289.246C135.406 289.613 135.352 290.012 135.352 290.441Z" fill="black"/>
<g filter="url(#filter0_d_61_1027)">
<path d="M39.6313 273C59.3099 273 75.2626 257.047 75.2626 237.369C75.2626 217.69 59.3099 201.737 39.6313 201.737C19.9527 201.737 4 217.69 4 237.369C4 257.047 19.9527 273 39.6313 273Z" fill="#627EEA"/>
<path d="M40.7402 210.645V230.398L57.4357 237.858L40.7402 210.645Z" fill="white" fill-opacity="0.602"/>
<path d="M40.7403 210.645L24.0426 237.858L40.7403 230.398V210.645Z" fill="white"/>
<path d="M40.7402 250.659V264.081L57.4469 240.967L40.7402 250.659Z" fill="white" fill-opacity="0.602"/>
<path d="M40.7402 264.081V250.657L24.0425 240.967L40.7402 264.081Z" fill="white"/>
<path d="M40.7402 247.553L57.4357 237.859L40.7402 230.403V247.553Z" fill="white" fill-opacity="0.2"/>
<path d="M24.0425 237.859L40.7402 247.553V230.403L24.0425 237.859Z" fill="white" fill-opacity="0.602"/>
</g>
<g filter="url(#filter1_d_61_1027)">
<path d="M92.8637 259.263C112.542 259.263 128.495 243.31 128.495 223.631C128.495 203.953 112.542 188 92.8637 188C73.1851 188 57.2324 203.953 57.2324 223.631C57.2324 243.31 73.1851 259.263 92.8637 259.263Z" fill="#627EEA"/>
<path d="M93.9729 196.908V216.661L110.668 224.121L93.9729 196.908Z" fill="white" fill-opacity="0.602"/>
<path d="M93.9729 196.908L77.2751 224.121L93.9729 216.661V196.908Z" fill="white"/>
<path d="M93.9729 236.922V250.344L110.68 227.23L93.9729 236.922Z" fill="white" fill-opacity="0.602"/>
<path d="M93.9729 250.344V236.919L77.2751 227.23L93.9729 250.344Z" fill="white"/>
<path d="M93.9729 233.815L110.668 224.121L93.9729 216.666V233.815Z" fill="white" fill-opacity="0.2"/>
<path d="M77.2751 224.121L93.9729 233.815V216.666L77.2751 224.121Z" fill="white" fill-opacity="0.602"/>
</g>
<g filter="url(#filter2_d_61_1027)">
<path d="M146.096 273C165.775 273 181.727 257.047 181.727 237.369C181.727 217.69 165.775 201.737 146.096 201.737C126.417 201.737 110.465 217.69 110.465 237.369C110.465 257.047 126.417 273 146.096 273Z" fill="#627EEA"/>
<path d="M147.205 210.645V230.398L163.901 237.858L147.205 210.645Z" fill="white" fill-opacity="0.602"/>
<path d="M147.205 210.645L130.507 237.858L147.205 230.398V210.645Z" fill="white"/>
<path d="M147.205 250.659V264.081L163.912 240.967L147.205 250.659Z" fill="white" fill-opacity="0.602"/>
<path d="M147.205 264.081V250.657L130.507 240.967L147.205 264.081Z" fill="white"/>
<path d="M147.205 247.553L163.901 237.859L147.205 230.403V247.553Z" fill="white" fill-opacity="0.2"/>
<path d="M130.507 237.859L147.205 247.553V230.403L130.507 237.859Z" fill="white" fill-opacity="0.602"/>
</g>
<defs>
<filter id="filter0_d_61_1027" x="0" y="201.737" width="79.2627" height="79.2627" filterUnits="userSpaceOnUse" color-interpolation-filters="sRGB">
<feFlood flood-opacity="0" result="BackgroundImageFix"/>
<feColorMatrix in="SourceAlpha" type="matrix" values="0 0 0 0 0 0 0 0 0 0 0 0 0 0 0 0 0 0 127 0" result="hardAlpha"/>
<feOffset dy="4"/>
<feGaussianBlur stdDeviation="2"/>
<feComposite in2="hardAlpha" operator="out"/>
<feColorMatrix type="matrix" values="0 0 0 0 0 0 0 0 0 0 0 0 0 0 0 0 0 0 0.25 0"/>
<feBlend mode="normal" in2="BackgroundImageFix" result="effect1_dropShadow_61_1027"/>
<feBlend mode="normal" in="SourceGraphic" in2="effect1_dropShadow_61_1027" result="shape"/>
</filter>
<filter id="filter1_d_61_1027" x="53.2324" y="188" width="79.2627" height="79.2627" filterUnits="userSpaceOnUse" color-interpolation-filters="sRGB">
<feFlood flood-opacity="0" result="BackgroundImageFix"/>
<feColorMatrix in="SourceAlpha" type="matrix" values="0 0 0 0 0 0 0 0 0 0 0 0 0 0 0 0 0 0 127 0" result="hardAlpha"/>
<feOffset dy="4"/>
<feGaussianBlur stdDeviation="2"/>
<feComposite in2="hardAlpha" operator="out"/>
<feColorMatrix type="matrix" values="0 0 0 0 0 0 0 0 0 0 0 0 0 0 0 0 0 0 0.25 0"/>
<feBlend mode="normal" in2="BackgroundImageFix" result="effect1_dropShadow_61_1027"/>
<feBlend mode="normal" in="SourceGraphic" in2="effect1_dropShadow_61_1027" result="shape"/>
</filter>
<filter id="filter2_d_61_1027" x="106.465" y="201.737" width="79.2627" height="79.2627" filterUnits="userSpaceOnUse" color-interpolation-filters="sRGB">
<feFlood flood-opacity="0" result="BackgroundImageFix"/>
<feColorMatrix in="SourceAlpha" type="matrix" values="0 0 0 0 0 0 0 0 0 0 0 0 0 0 0 0 0 0 127 0" result="hardAlpha"/>
<feOffset dy="4"/>
<feGaussianBlur stdDeviation="2"/>
<feComposite in2="hardAlpha" operator="out"/>
<feColorMatrix type="matrix" values="0 0 0 0 0 0 0 0 0 0 0 0 0 0 0 0 0 0 0.25 0"/>
<feBlend mode="normal" in2="BackgroundImageFix" result="effect1_dropShadow_61_1027"/>
<feBlend mode="normal" in="SourceGraphic" in2="effect1_dropShadow_61_1027" result="shape"/>
</filter>
</defs>
</svg>
