<svg width="197" height="334" viewBox="0 0 197 334" fill="none" xmlns="http://www.w3.org/2000/svg">
<path d="M42 48V13C57.1619 13 70.5994 22.7636 75.2847 37.1844L42 48Z" fill="#2CA4DE"/>
<path d="M42 47.9999L75.2847 37.1843C79.97 51.6051 74.8373 67.403 62.5711 76.3155L42 47.9999Z" fill="#228FCE"/>
<path d="M42 48L62.5711 76.3156C50.3049 85.2281 33.6952 85.2281 21.429 76.3156L42 48Z" fill="#1E7DBE"/>
<path d="M42 47.9999L21.4289 76.3155C9.1627 67.403 4.03001 51.6051 8.71529 37.1843L42 47.9999Z" fill="#1A68AE"/>
<path d="M42.0002 48L8.71545 37.1844C13.4007 22.7636 26.8383 13 42.0002 13V48Z" fill="#18539E"/>
<path d="M73.0563 47.9999C73.0563 65.1519 59.1519 79.0563 41.9999 79.0563C24.848 79.0563 10.9436 65.1519 10.9436 47.9999C10.9436 30.848 24.848 16.9436 41.9999 16.9436C59.1519 16.9436 73.0563 30.848 73.0563 47.9999Z" fill="white"/>
<path d="M61.0166 55.0652V44.5356H63.5465V48.5496H67.0093V44.5356H69.5251V55.0652H67.0093V50.7403H63.5465V55.0652H61.0166Z" fill="#2C2C2C"/>
<path d="M54.294 55.0652V46.6416H51.4531V44.5356H59.6789V46.6416H56.8239V55.0652H54.294Z" fill="#2C2C2C"/>
<path d="M43.6403 55.0652V44.5356H50.3114V46.6416H46.1702V48.592H49.6895V50.7121H46.1702V52.9452H50.4668V55.0652H43.6403Z" fill="#2C2C2C"/>
<path d="M31.6178 55.0652L29.7097 44.5356H32.282L32.9463 49.3411C33.0877 50.4435 33.229 51.546 33.3703 52.6766H33.4269C33.6247 51.546 33.8368 50.4294 34.0488 49.3411L35.1229 44.5356H37.2571L38.3454 49.3411C38.5574 50.4153 38.7411 51.546 38.9531 52.6766H39.0238C39.151 51.546 39.2924 50.4294 39.4196 49.3411L40.1121 44.5356H42.5007L40.6775 55.0652H37.4974L36.5504 50.4859C36.3808 49.6803 36.2395 48.8323 36.1405 48.0408H36.084C35.9427 48.8323 35.8155 49.6803 35.66 50.4859L34.7413 55.0652H31.6178Z" fill="#2C2C2C"/>
<path d="M23.0248 45.2893H15.6314L13.7831 41.5916H21.1775L23.0248 45.2893Z" fill="#18539E"/>
<path d="M26.7221 45.2893L24.8737 48.986L23.0244 45.2893L21.177 41.5916H24.8737L26.7221 45.2893Z" fill="#1A68AE"/>
<path d="M28.572 48.9858L26.7226 52.6825H23.0249L24.8743 48.9858L26.7226 45.2891L28.572 48.9858Z" fill="#1E7DBE"/>
<path d="M26.7223 52.6826L24.8739 56.3803H17.4825L19.3299 52.6826H26.7223Z" fill="#228FCE"/>
<path d="M19.3281 52.6825H19.3301L17.4828 56.3802H13.7831L15.6314 52.6825L19.3281 45.2891L21.1775 48.9858L19.3281 52.6825Z" fill="#2CA4DE"/>
<path d="M99 35V0C114.162 0 127.599 9.76361 132.285 24.1844L99 35Z" fill="#2CA4DE"/>
<path d="M99 34.9999L132.285 24.1843C136.97 38.6051 131.837 54.403 119.571 63.3155L99 34.9999Z" fill="#228FCE"/>
<path d="M99 35L119.571 63.3156C107.305 72.2281 90.6952 72.2281 78.429 63.3156L99 35Z" fill="#1E7DBE"/>
<path d="M99 34.9999L78.4289 63.3155C66.1627 54.403 61.03 38.6051 65.7153 24.1843L99 34.9999Z" fill="#1A68AE"/>
<path d="M99.0002 35L65.7155 24.1844C70.4007 9.76361 83.8383 0 99.0002 0V35Z" fill="#18539E"/>
<path d="M130.056 34.9999C130.056 52.1519 116.152 66.0563 98.9999 66.0563C81.848 66.0563 67.9436 52.1519 67.9436 34.9999C67.9436 17.848 81.848 3.9436 98.9999 3.9436C116.152 3.9436 130.056 17.848 130.056 34.9999Z" fill="white"/>
<path d="M118.017 42.0652V31.5356H120.547V35.5496H124.009V31.5356H126.525V42.0652H124.009V37.7403H120.547V42.0652H118.017Z" fill="#2C2C2C"/>
<path d="M111.294 42.0652V33.6416H108.453V31.5356H116.679V33.6416H113.824V42.0652H111.294Z" fill="#2C2C2C"/>
<path d="M100.64 42.0652V31.5356H107.311V33.6416H103.17V35.592H106.689V37.7121H103.17V39.9452H107.467V42.0652H100.64Z" fill="#2C2C2C"/>
<path d="M88.6178 42.0652L86.7097 31.5356H89.282L89.9463 36.3411C90.0877 37.4435 90.229 38.546 90.3703 39.6766H90.4269C90.6247 38.546 90.8368 37.4294 91.0488 36.3411L92.1229 31.5356H94.2571L95.3454 36.3411C95.5574 37.4153 95.7411 38.546 95.9531 39.6766H96.0238C96.151 38.546 96.2924 37.4294 96.4196 36.3411L97.1121 31.5356H99.5007L97.6775 42.0652H94.4974L93.5504 37.4859C93.3808 36.6803 93.2395 35.8323 93.1405 35.0408H93.084C92.9427 35.8323 92.8155 36.6803 92.66 37.4859L91.7413 42.0652H88.6178Z" fill="#2C2C2C"/>
<path d="M80.025 32.2893H72.6316L70.7832 28.5916H78.1776L80.025 32.2893Z" fill="#18539E"/>
<path d="M83.7221 32.2893L81.8737 35.986L80.0244 32.2893L78.177 28.5916H81.8737L83.7221 32.2893Z" fill="#1A68AE"/>
<path d="M85.572 35.9858L83.7226 39.6825H80.0249L81.8743 35.9858L83.7226 32.2891L85.572 35.9858Z" fill="#1E7DBE"/>
<path d="M83.7224 39.6826L81.8741 43.3803H74.4827L76.33 39.6826H83.7224Z" fill="#228FCE"/>
<path d="M76.3283 39.6825H76.3303L74.4829 43.3802H70.7832L72.6316 39.6825L76.3283 32.2891L78.1776 35.9858L76.3283 39.6825Z" fill="#2CA4DE"/>
<path d="M156 48V13C171.162 13 184.599 22.7636 189.285 37.1844L156 48Z" fill="#2CA4DE"/>
<path d="M156 47.9999L189.285 37.1843C193.97 51.6051 188.837 67.403 176.571 76.3155L156 47.9999Z" fill="#228FCE"/>
<path d="M156 48L176.571 76.3156C164.305 85.2281 147.695 85.2281 135.429 76.3156L156 48Z" fill="#1E7DBE"/>
<path d="M156 47.9999L135.429 76.3155C123.163 67.403 118.03 51.6051 122.715 37.1843L156 47.9999Z" fill="#1A68AE"/>
<path d="M156 48L122.715 37.1844C127.401 22.7636 140.838 13 156 13V48Z" fill="#18539E"/>
<path d="M187.056 47.9999C187.056 65.1519 173.152 79.0563 156 79.0563C138.848 79.0563 124.944 65.1519 124.944 47.9999C124.944 30.848 138.848 16.9436 156 16.9436C173.152 16.9436 187.056 30.848 187.056 47.9999Z" fill="white"/>
<path d="M175.017 55.0652V44.5356H177.547V48.5496H181.009V44.5356H183.525V55.0652H181.009V50.7403H177.547V55.0652H175.017Z" fill="#2C2C2C"/>
<path d="M168.294 55.0652V46.6416H165.453V44.5356H173.679V46.6416H170.824V55.0652H168.294Z" fill="#2C2C2C"/>
<path d="M157.64 55.0652V44.5356H164.311V46.6416H160.17V48.592H163.689V50.7121H160.17V52.9452H164.467V55.0652H157.64Z" fill="#2C2C2C"/>
<path d="M145.618 55.0652L143.71 44.5356H146.282L146.946 49.3411C147.088 50.4435 147.229 51.546 147.37 52.6766H147.427C147.625 51.546 147.837 50.4294 148.049 49.3411L149.123 44.5356H151.257L152.345 49.3411C152.557 50.4153 152.741 51.546 152.953 52.6766H153.024C153.151 51.546 153.292 50.4294 153.42 49.3411L154.112 44.5356H156.501L154.677 55.0652H151.497L150.55 50.4859C150.381 49.6803 150.239 48.8323 150.141 48.0408H150.084C149.943 48.8323 149.815 49.6803 149.66 50.4859L148.741 55.0652H145.618Z" fill="#2C2C2C"/>
<path d="M137.025 45.2893H129.632L127.783 41.5916H135.178L137.025 45.2893Z" fill="#18539E"/>
<path d="M140.722 45.2893L138.874 48.986L137.024 45.2893L135.177 41.5916H138.874L140.722 45.2893Z" fill="#1A68AE"/>
<path d="M142.572 48.9858L140.723 52.6825H137.025L138.874 48.9858L140.723 45.2891L142.572 48.9858Z" fill="#1E7DBE"/>
<path d="M140.722 52.6826L138.874 56.3803H131.483L133.33 52.6826H140.722Z" fill="#228FCE"/>
<path d="M133.328 52.6825H133.33L131.483 56.3802H127.783L129.632 52.6825L133.328 45.2891L135.178 48.9858L133.328 52.6825Z" fill="#2CA4DE"/>
<path d="M65.8777 112H62.2332L62.2566 109.668H65.8777C66.9324 109.668 67.8152 109.438 68.5261 108.977C69.2449 108.516 69.7839 107.855 70.1433 106.996C70.5105 106.137 70.6941 105.113 70.6941 103.926V103C70.6941 102.078 70.5886 101.262 70.3777 100.551C70.1746 99.8398 69.8699 99.2422 69.4636 98.7578C69.0652 98.2734 68.573 97.9062 67.9871 97.6562C67.4089 97.4062 66.741 97.2812 65.9832 97.2812H62.1628V94.9375H65.9832C67.116 94.9375 68.1511 95.1289 69.0886 95.5117C70.0261 95.8867 70.8347 96.4297 71.5144 97.1406C72.2019 97.8516 72.7292 98.7031 73.0964 99.6953C73.4636 100.688 73.6472 101.797 73.6472 103.023V103.926C73.6472 105.152 73.4636 106.262 73.0964 107.254C72.7292 108.246 72.2019 109.098 71.5144 109.809C70.8269 110.512 70.0066 111.055 69.0535 111.438C68.1082 111.812 67.0496 112 65.8777 112ZM63.8621 94.9375V112H60.9207V94.9375H63.8621ZM79.7644 109.188L82.6941 99.3203H84.4988L84.0066 102.273L81.0535 112H79.4363L79.7644 109.188ZM78.0417 99.3203L80.3269 109.234L80.5144 112H78.7097L75.2761 99.3203H78.0417ZM87.241 109.117L89.4558 99.3203H92.2097L88.7878 112H86.9832L87.241 109.117ZM84.8035 99.3203L87.698 109.07L88.0613 112H86.4441L83.4558 102.262L82.9636 99.3203H84.8035ZM105.581 109.668V112H96.5222V109.668H105.581ZM97.3542 94.9375V112H94.4128V94.9375H97.3542ZM104.397 102.062V104.359H96.5222V102.062H104.397ZM105.522 94.9375V97.2812H96.5222V94.9375H105.522ZM115.237 94.9375V112H112.319V94.9375H115.237ZM120.593 94.9375V97.2812H107.01V94.9375H120.593ZM134.116 102.062V104.395H125.057V102.062H134.116ZM125.784 94.9375V112H122.843V94.9375H125.784ZM136.378 94.9375V112H133.448V94.9375H136.378Z" fill="black"/>
<path d="M68.8125 323.22H65.168L65.1914 320.888H68.8125C69.8672 320.888 70.75 320.657 71.4609 320.196C72.1797 319.735 72.7188 319.075 73.0781 318.216C73.4453 317.356 73.6289 316.333 73.6289 315.146V314.22C73.6289 313.298 73.5234 312.481 73.3125 311.771C73.1094 311.06 72.8047 310.462 72.3984 309.978C72 309.493 71.5078 309.126 70.9219 308.876C70.3438 308.626 69.6758 308.501 68.918 308.501H65.0977V306.157H68.918C70.0508 306.157 71.0859 306.349 72.0234 306.731C72.9609 307.106 73.7695 307.649 74.4492 308.36C75.1367 309.071 75.6641 309.923 76.0312 310.915C76.3984 311.907 76.582 313.017 76.582 314.243V315.146C76.582 316.372 76.3984 317.481 76.0312 318.474C75.6641 319.466 75.1367 320.317 74.4492 321.028C73.7617 321.731 72.9414 322.274 71.9883 322.657C71.043 323.032 69.9844 323.22 68.8125 323.22ZM66.7969 306.157V323.22H63.8555V306.157H66.7969ZM79.5352 306.157H85.5703C86.8672 306.157 87.9727 306.353 88.8867 306.743C89.8008 307.134 90.5 307.712 90.9844 308.478C91.4766 309.235 91.7227 310.173 91.7227 311.29C91.7227 312.142 91.5664 312.892 91.2539 313.54C90.9414 314.188 90.5 314.735 89.9297 315.181C89.3594 315.618 88.6797 315.958 87.8906 316.2L87 316.634H81.5742L81.5508 314.302H85.6172C86.3203 314.302 86.9062 314.177 87.375 313.927C87.8438 313.677 88.1953 313.337 88.4297 312.907C88.6719 312.47 88.793 311.978 88.793 311.431C88.793 310.837 88.6758 310.321 88.4414 309.884C88.2148 309.438 87.8633 309.099 87.3867 308.864C86.9102 308.622 86.3047 308.501 85.5703 308.501H82.4766V323.22H79.5352V306.157ZM89.2734 323.22L85.2656 315.556L88.3477 315.544L92.4141 323.067V323.22H89.2734ZM104.73 317.665H107.66C107.566 318.782 107.254 319.778 106.723 320.653C106.191 321.521 105.445 322.204 104.484 322.704C103.523 323.204 102.355 323.454 100.98 323.454C99.9258 323.454 98.9766 323.267 98.1328 322.892C97.2891 322.509 96.5664 321.97 95.9648 321.274C95.3633 320.571 94.9023 319.724 94.582 318.731C94.2695 317.739 94.1133 316.63 94.1133 315.403V313.985C94.1133 312.759 94.2734 311.649 94.5938 310.657C94.9219 309.665 95.3906 308.817 96 308.114C96.6094 307.403 97.3398 306.86 98.1914 306.485C99.0508 306.11 100.016 305.923 101.086 305.923C102.445 305.923 103.594 306.173 104.531 306.673C105.469 307.173 106.195 307.864 106.711 308.747C107.234 309.63 107.555 310.642 107.672 311.782H104.742C104.664 311.048 104.492 310.419 104.227 309.896C103.969 309.372 103.586 308.974 103.078 308.7C102.57 308.419 101.906 308.278 101.086 308.278C100.414 308.278 99.8281 308.403 99.3281 308.653C98.8281 308.903 98.4102 309.271 98.0742 309.755C97.7383 310.239 97.4844 310.837 97.3125 311.548C97.1484 312.251 97.0664 313.056 97.0664 313.962V315.403C97.0664 316.263 97.1406 317.044 97.2891 317.747C97.4453 318.442 97.6797 319.04 97.9922 319.54C98.3125 320.04 98.7188 320.427 99.2109 320.7C99.7031 320.974 100.293 321.11 100.98 321.11C101.816 321.11 102.492 320.978 103.008 320.712C103.531 320.446 103.926 320.06 104.191 319.552C104.465 319.036 104.645 318.407 104.73 317.665ZM121.324 320.97V323.22H109.887V321.286L115.441 315.228C116.051 314.54 116.531 313.946 116.883 313.446C117.234 312.946 117.48 312.497 117.621 312.099C117.77 311.692 117.844 311.298 117.844 310.915C117.844 310.376 117.742 309.903 117.539 309.497C117.344 309.083 117.055 308.759 116.672 308.524C116.289 308.282 115.824 308.161 115.277 308.161C114.645 308.161 114.113 308.298 113.684 308.571C113.254 308.845 112.93 309.224 112.711 309.708C112.492 310.185 112.383 310.731 112.383 311.349H109.559C109.559 310.356 109.785 309.45 110.238 308.63C110.691 307.802 111.348 307.146 112.207 306.661C113.066 306.169 114.102 305.923 115.312 305.923C116.453 305.923 117.422 306.114 118.219 306.497C119.016 306.88 119.621 307.423 120.035 308.126C120.457 308.829 120.668 309.661 120.668 310.622C120.668 311.153 120.582 311.681 120.41 312.204C120.238 312.728 119.992 313.251 119.672 313.774C119.359 314.29 118.988 314.81 118.559 315.333C118.129 315.849 117.656 316.372 117.141 316.903L113.449 320.97H121.324ZM134.648 313.259V316.048C134.648 317.384 134.516 318.524 134.25 319.47C133.992 320.407 133.617 321.169 133.125 321.755C132.633 322.341 132.043 322.771 131.355 323.044C130.676 323.317 129.914 323.454 129.07 323.454C128.398 323.454 127.773 323.368 127.195 323.196C126.625 323.024 126.109 322.755 125.648 322.388C125.188 322.021 124.793 321.548 124.465 320.97C124.145 320.384 123.895 319.685 123.715 318.872C123.543 318.06 123.457 317.118 123.457 316.048V313.259C123.457 311.915 123.59 310.782 123.855 309.86C124.121 308.931 124.5 308.177 124.992 307.599C125.484 307.013 126.07 306.587 126.75 306.321C127.438 306.056 128.203 305.923 129.047 305.923C129.727 305.923 130.352 306.009 130.922 306.181C131.5 306.345 132.016 306.606 132.469 306.966C132.93 307.325 133.32 307.794 133.641 308.372C133.969 308.942 134.219 309.634 134.391 310.446C134.562 311.251 134.648 312.188 134.648 313.259ZM131.824 316.446V312.837C131.824 312.157 131.785 311.56 131.707 311.044C131.629 310.521 131.512 310.079 131.355 309.72C131.207 309.353 131.02 309.056 130.793 308.829C130.566 308.595 130.309 308.427 130.02 308.325C129.73 308.216 129.406 308.161 129.047 308.161C128.609 308.161 128.219 308.247 127.875 308.419C127.531 308.583 127.242 308.849 127.008 309.216C126.773 309.583 126.594 310.067 126.469 310.669C126.352 311.263 126.293 311.985 126.293 312.837V316.446C126.293 317.134 126.332 317.739 126.41 318.263C126.488 318.786 126.605 319.235 126.762 319.61C126.918 319.978 127.105 320.282 127.324 320.524C127.551 320.759 127.809 320.931 128.098 321.04C128.395 321.149 128.719 321.204 129.07 321.204C129.516 321.204 129.91 321.118 130.254 320.946C130.598 320.774 130.887 320.501 131.121 320.126C131.355 319.743 131.531 319.247 131.648 318.638C131.766 318.028 131.824 317.298 131.824 316.446Z" fill="black"/>
<path d="M1.61902 263.191C1.61902 281.074 16.1165 295.571 34 295.571C51.8835 295.571 66.3809 281.074 66.3809 263.191C66.3809 245.307 51.8835 230.81 34 230.81C16.1165 230.81 1.61902 245.307 1.61902 263.191Z" fill="#9D3835"/>
<path d="M24.0416 256.337C23.8388 256.661 23.7046 257.054 23.6374 257.412C23.5704 257.842 23.6031 258.273 23.7389 258.702V259.026C23.806 259.097 23.9074 259.134 23.9746 259.134C24.1087 258.991 24.2445 258.918 24.4131 258.883C24.7158 258.92 25.0201 258.847 25.3229 258.704C25.4914 258.741 25.6599 258.776 25.7958 258.812C26.3358 258.991 26.7743 259.315 27.1113 259.781C27.5499 260.139 27.7528 260.605 27.6841 261.108C27.5483 261.323 27.3797 261.537 27.2112 261.716C27.0426 261.896 26.9068 262.075 26.7726 262.254C26.4683 262.47 26.267 262.757 26.2 263.078C26.0985 263.329 25.9299 263.508 25.6943 263.544C25.4243 263.616 25.1887 263.724 24.9858 263.903C24.8843 263.939 24.85 263.974 24.8173 264.01C24.7158 264.19 24.6143 264.334 24.5145 264.477C24.3803 264.727 24.2445 264.943 24.1431 265.193C24.0089 265.409 23.9402 265.623 23.8731 265.838C23.7373 266.054 23.6374 266.268 23.6374 266.447C23.5704 266.484 23.536 266.555 23.536 266.663C23.4346 266.878 23.3675 267.092 23.3331 267.271C23.266 267.308 23.2317 267.271 23.2317 267.2C23.3331 266.484 23.4673 265.765 23.6358 265.014C23.6358 264.835 23.6702 264.692 23.7373 264.511C23.7373 264.475 23.7373 264.44 23.7029 264.369C23.6358 264.44 23.6015 264.405 23.6015 264.332C23.2987 264.369 23.0615 264.261 22.8929 264.045C22.3873 263.471 21.8817 262.934 21.3745 262.397C21.3401 262.325 21.3073 262.289 21.273 262.217C21.2059 262.11 21.2059 262.002 21.3401 261.896C21.1715 261.751 21.0357 261.609 20.9359 261.393C20.9359 261.322 20.9703 261.285 21.0701 261.214C21.0701 261.238 21.0815 261.238 21.1045 261.214V260.892C21.1715 260.892 21.2059 260.929 21.2403 260.929V260.713C21.3073 260.713 21.3417 260.75 21.3745 260.75C21.4088 260.713 21.4088 260.678 21.4088 260.642C21.4431 260.642 21.4759 260.678 21.5103 260.678C21.8146 260.283 22.0502 259.817 22.2532 259.351C22.3546 259.172 22.4217 258.993 22.4888 258.777C22.6573 258.49 22.8258 258.169 22.9944 257.882C22.9944 257.81 22.9944 257.774 23.0287 257.702C23.3659 257.165 23.7029 256.662 24.0073 256.125C24.0744 255.946 24.1758 255.802 24.2772 255.659H24.2429V255.588H24.2772C24.2429 255.803 24.1758 256.017 24.1087 256.196C24.0416 256.196 24.0416 256.268 24.0416 256.339V256.337ZM43.5366 247.591C43.6708 247.627 43.841 247.662 43.9752 247.699C44.4481 247.986 44.8523 248.344 45.1894 248.81C45.2564 248.881 45.2908 248.953 45.3579 249.026C45.7293 249.097 45.9993 249.276 46.2693 249.6C46.3707 249.779 46.4035 249.958 46.4035 250.137C46.3364 250.28 46.2693 250.424 46.2006 250.532C46.1335 250.603 46.0664 250.674 45.9977 250.711C45.8962 250.782 45.8292 250.819 45.7277 250.89C45.5935 250.961 45.4921 251.034 45.3906 251.106C45.2891 251.142 45.1877 251.177 45.0535 251.214L44.9865 251.285V251.248C44.9521 251.32 44.885 251.356 44.8179 251.356C44.795 251.381 44.7835 251.381 44.7835 251.356C44.7165 251.393 44.6821 251.427 44.6821 251.464H44.7165C44.6493 251.535 44.615 251.572 44.5479 251.608C44.5135 251.68 44.4808 251.716 44.4137 251.751C44.3794 251.751 44.3794 251.787 44.3467 251.787C44.3139 251.787 44.3123 251.824 44.2795 251.824C44.3139 251.861 44.3467 251.861 44.381 251.824V251.861C44.3467 251.932 44.3139 251.968 44.2795 252.04C44.1781 252.219 44.0767 252.363 43.8754 252.363C43.7396 252.471 43.6054 252.542 43.4712 252.614H43.3698C43.0998 252.758 42.8298 252.864 42.5942 252.972C42.4927 253.008 42.3912 253.008 42.3242 252.935C42.0885 252.935 41.8856 252.972 41.6827 253.078C41.5813 253.114 41.5142 253.114 41.4471 253.078C41.38 253.149 41.3129 253.149 41.2442 253.114C41.1754 253.08 41.1427 253.078 41.0757 253.043C41.0757 253.08 41.0413 253.08 41.0086 253.043C41.0757 253.007 41.0757 252.935 41.0086 252.901C40.7386 252.972 40.5029 253.116 40.3 253.33C39.963 253.546 39.6259 253.76 39.3215 253.904V253.868C38.9845 253.975 38.7145 254.083 38.4789 254.226C38.6474 254.37 38.8503 254.476 39.0515 254.513C39.3886 254.728 39.693 254.979 39.9613 255.229C39.9957 255.301 40.0628 255.301 40.1299 255.266C40.1642 255.266 40.1969 255.195 40.2313 255.123C40.3328 255.16 40.3999 255.16 40.534 255.16C40.4997 255.16 40.4997 255.123 40.534 255.088C40.804 255.125 41.074 255.16 41.344 255.231C42.3896 255.734 43.4008 256.342 44.3794 257.024C44.5479 257.203 44.7508 257.382 44.9521 257.527C45.1877 257.777 45.4577 258.064 45.7277 258.315C46.0648 258.709 46.3348 259.139 46.5376 259.605C46.6718 259.856 46.8077 260.143 46.8747 260.429C46.9091 260.609 46.9418 260.753 46.9762 260.896C47.0777 261.254 47.0777 261.612 47.0433 261.97C47.0089 262.007 46.9762 262.078 47.0089 262.113C46.9074 262.292 46.7733 262.437 46.6048 262.508C46.5376 262.579 46.5033 262.687 46.5376 262.758C46.5376 262.795 46.5721 262.795 46.5721 262.795V263.404C46.5721 263.44 46.5376 263.727 46.5049 264.299C46.5049 264.908 46.4706 265.732 46.4706 266.844C46.4706 266.844 46.4362 266.951 46.4362 267.167V268.063C46.4018 268.207 46.3691 268.313 46.3691 268.458C46.302 268.673 46.2677 268.924 46.2677 269.139V269.247C46.2677 269.713 46.2333 270.179 46.2333 270.609C46.3675 271.112 46.4018 271.578 46.3348 272.042V272.795C46.3004 272.866 46.3004 272.938 46.3691 273.011C46.4035 273.548 46.4035 274.122 46.3691 274.66C46.3348 274.802 46.2677 274.91 46.1662 274.946C46.0992 274.946 46.0648 274.91 46.1319 274.804H46.0648C46.0304 274.875 45.9977 274.912 45.9977 274.912C45.9633 274.912 45.9633 274.875 45.9633 274.84C45.8619 274.983 45.7604 275.056 45.659 275.127C45.659 275.306 45.6933 275.449 45.7261 275.63C45.659 275.773 45.659 275.917 45.7261 276.06C45.659 276.204 45.5919 276.383 45.5232 276.526C45.4561 276.562 45.389 276.597 45.3546 276.668C45.3546 276.776 45.3202 276.847 45.2532 276.884C45.119 276.955 45.0175 277.027 44.9832 277.134C44.6788 277.171 44.5446 277.313 44.5103 277.564C44.4432 277.851 44.4088 278.138 44.3761 278.388C44.3417 278.425 44.309 278.496 44.2747 278.533C44.2075 278.533 44.1732 278.533 44.1405 278.496C44.1061 278.533 44.1061 278.567 44.1061 278.604C44.039 278.496 43.9719 278.461 43.8361 278.461C43.7003 278.39 43.6005 278.39 43.4646 278.461V278.604C43.3305 278.496 43.229 278.533 43.229 278.64C43.162 278.64 43.0932 278.64 43.0262 278.677C42.9918 278.748 42.9918 278.82 42.959 278.893C42.9247 278.929 42.892 278.964 42.9247 279.001C42.8903 278.964 42.8232 278.964 42.7905 279.037C42.7562 279.074 42.6891 279.074 42.6547 279.074C42.5205 278.894 42.352 278.715 42.2161 278.5C41.9118 278.105 41.6091 277.747 41.3048 277.388C40.9333 276.851 40.5635 276.313 40.1921 275.811C39.8549 275.487 39.4165 275.345 38.9108 275.453C38.7079 275.416 38.5394 275.453 38.3708 275.56C38.2366 275.524 38.1008 275.56 38.0338 275.632C37.9994 275.811 37.9323 275.919 37.8652 275.99V276.027C37.5952 276.206 37.3596 276.35 37.0552 276.421C36.8867 276.493 36.7182 276.529 36.5824 276.529C36.4482 276.566 36.3467 276.6 36.2796 276.566C35.9426 276.423 35.6382 276.315 35.3011 276.171C34.9968 275.92 34.694 275.633 34.424 275.31C34.154 275.06 33.8841 274.773 33.7155 274.414C33.6811 274.306 33.6811 274.199 33.7499 274.056C33.7155 274.02 33.7499 273.948 33.7842 273.913C33.8186 273.879 33.8513 273.877 33.8857 273.842C33.9528 273.734 33.9528 273.592 33.8857 273.447C33.8186 273.339 33.7842 273.197 33.7842 273.052C33.8186 273.089 33.8513 273.052 33.8857 273.016L33.9201 272.979C33.853 272.943 33.853 272.908 33.8857 272.837L33.9201 272.8V272.943H33.9544C33.9888 272.585 34.1229 272.298 34.3929 272.047C34.4273 271.976 34.4273 271.905 34.46 271.832C34.5615 271.832 34.5958 271.76 34.6286 271.616C34.4928 271.579 34.3586 271.508 34.2244 271.508C34.1229 271.437 34.0215 271.329 33.9544 271.221C33.583 270.863 33.2459 270.468 32.9088 270.073C32.8417 269.715 32.9432 269.465 33.1788 269.212C33.313 269.07 33.5159 268.891 33.7188 268.71C33.7188 268.638 33.7859 268.567 33.8873 268.531C34.2244 268.172 34.4944 267.778 34.7988 267.311V267.275C34.6646 267.346 34.5631 267.383 34.4617 267.454C34.3946 267.491 34.3602 267.491 34.3602 267.418C34.3259 267.454 34.2932 267.454 34.2932 267.454C34.2588 267.454 34.2588 267.418 34.2588 267.383C34.0559 267.454 33.8203 267.491 33.6517 267.562C33.5846 267.633 33.5503 267.706 33.5503 267.741H33.4144V267.778C33.2459 267.849 33.1444 267.814 33.1117 267.635C32.9432 267.598 32.8074 267.564 32.6732 267.491C32.6061 267.491 32.539 267.527 32.5046 267.598C32.4032 267.598 32.3018 267.562 32.2346 267.562C31.8976 267.24 31.6619 266.845 31.5605 266.379C31.5261 266.237 31.5605 266.092 31.6276 265.984C31.6947 265.913 31.729 265.842 31.729 265.697C31.6947 265.769 31.729 265.769 31.7634 265.734L31.7978 265.697C31.7748 265.697 31.7634 265.685 31.7634 265.661C31.7634 265.732 31.7978 265.732 31.8305 265.697C31.8648 265.626 31.8648 265.555 31.8305 265.482C31.6963 265.697 31.5949 265.911 31.5278 266.127C31.4607 266.164 31.4263 266.127 31.3936 266.056C31.3936 265.769 31.428 265.482 31.5965 265.195C31.8665 264.694 32.1365 264.191 32.4392 263.689C32.1348 263.151 32.0006 262.614 32.0678 261.969C32.0449 261.944 32.0334 261.921 32.0334 261.897C31.9663 262.077 31.8976 262.256 31.7978 262.4C31.3249 262.616 30.9551 262.937 30.7865 263.404C30.8536 263.654 30.9224 263.906 30.9894 264.12C30.888 264.299 30.8552 264.478 30.9224 264.623C30.8552 264.767 30.7865 264.873 30.7194 264.946C30.7194 265.197 30.6523 265.412 30.4838 265.555C30.4494 265.591 30.4494 265.626 30.4494 265.626C30.4494 265.651 30.4609 265.663 30.4838 265.663C30.4494 265.771 30.4167 265.805 30.3496 265.771C30.2826 265.95 30.2138 266.094 30.114 266.165C29.9798 266.273 29.9111 266.381 29.8784 266.489C30.0125 266.776 30.0125 267.098 29.8784 267.421C29.8784 267.637 29.8784 267.851 29.9454 268.066C29.9798 268.245 30.0469 268.39 30.1484 268.532C30.3512 268.174 30.5869 267.816 30.8569 267.421H30.924C30.8569 267.779 30.7882 268.103 30.654 268.39C30.5869 268.498 30.5525 268.569 30.4854 268.64C30.5525 269.106 30.7554 269.572 30.991 270.038C31.0581 270.218 31.1596 270.433 31.2611 270.576C31.5654 271.221 31.9025 271.866 32.2723 272.475C32.3066 272.583 32.3737 272.691 32.4752 272.799C32.6094 273.049 32.7452 273.373 32.8794 273.66C32.9137 273.767 32.9464 273.839 32.9808 273.946C33.0152 274.054 33.0152 274.162 32.9808 274.268C32.9808 274.447 32.9464 274.592 32.8466 274.698C32.6781 274.698 32.5096 274.734 32.3737 274.769V274.84C32.3737 274.877 32.4081 274.877 32.4408 274.84C32.4408 274.948 32.4408 275.02 32.3737 275.091C32.1037 275.162 31.8337 275.199 31.5981 275.162C31.2611 275.054 30.924 274.983 30.5869 274.839C30.2498 274.623 29.9454 274.336 29.6755 274.014C29.5413 273.835 29.4055 273.656 29.2369 273.512C29.1011 273.404 29.034 273.261 28.9669 273.082V272.939C28.9326 272.616 28.9326 272.331 28.9669 272.044L29.0013 272.007C28.9342 271.899 28.8999 271.792 28.8671 271.649C28.7329 271.541 28.5971 271.362 28.4957 271.183C28.3615 271.075 28.2928 270.932 28.3615 270.68C28.3615 270.538 28.3615 270.357 28.2944 270.143C28.2601 270 28.2273 269.819 28.1602 269.64C28.1259 269.39 28.0588 269.138 28.0588 268.852C28.0244 268.852 28.0244 268.816 28.0244 268.781C27.9573 268.351 27.9573 267.885 28.0244 267.419C28.1602 267.098 28.2944 266.703 28.3615 266.308C28.5644 265.663 28.7329 265.054 28.9015 264.372C28.9358 264.301 28.9685 264.157 29.0029 264.014C29.0373 263.835 29.07 263.656 29.1371 263.477C29.2042 263.297 29.2386 263.118 29.2729 262.939C29.34 262.617 29.4415 262.294 29.5429 262.007C29.6771 261.899 29.8473 261.791 29.9815 261.72C30.0829 261.683 30.2171 261.612 30.3529 261.577C30.4543 261.577 30.5558 261.577 30.69 261.649C30.8585 261.612 31.0271 261.541 31.1629 261.398C31.3658 261.148 31.567 260.896 31.8043 260.682C31.8387 260.61 31.8387 260.539 31.8387 260.431C31.8043 260.073 31.8043 259.678 31.7716 259.356V257.887C31.873 257.529 32.0415 257.17 32.2445 256.847C32.143 256.847 32.076 256.883 32.076 256.955C32.0088 257.026 31.9418 257.062 31.9418 257.134C31.7389 257.384 31.5376 257.6 31.3347 257.85C31.3347 257.826 31.3232 257.814 31.3003 257.814C30.9289 258.029 30.6589 258.315 30.4576 258.675C30.3562 258.711 30.3235 258.746 30.3562 258.782V258.711C30.2204 258.854 30.1205 258.998 30.0518 259.177C30.0174 259.214 30.0174 259.249 30.0174 259.32C30.0174 259.356 29.9831 259.391 29.9831 259.428C29.9831 259.428 29.9487 259.391 29.9487 259.356C29.8817 259.393 29.8817 259.428 29.9144 259.499C29.5773 259.965 29.3416 260.503 29.2058 261.113H29.1715C29.07 261.184 29.0029 261.292 28.9685 261.363C28.9685 261.388 28.98 261.4 29.0029 261.4C29.07 261.363 29.1371 261.257 29.2058 261.113C29.3073 261.042 29.4087 260.897 29.5429 260.718C29.6771 260.539 29.8129 260.36 29.9144 260.109C29.9487 260.109 29.9814 260.109 30.0158 260.073C30.3201 259.572 30.69 259.106 31.0958 258.64V258.676C31.1972 258.534 31.2987 258.426 31.4328 258.282C31.3985 258.353 31.3658 258.426 31.297 258.426C31.23 258.569 31.1629 258.713 31.0614 258.856V258.819C31.0614 258.856 31.0271 258.89 30.9944 258.89C30.8258 259.141 30.69 259.393 30.5902 259.643C30.5231 259.643 30.4887 259.68 30.4887 259.68C30.4887 259.751 30.4887 259.788 30.5558 259.788C30.5902 259.716 30.6572 259.609 30.7243 259.537V259.609C30.6899 259.609 30.69 259.572 30.69 259.572C30.6229 259.609 30.6229 259.68 30.6556 259.715C30.5885 259.751 30.5885 259.786 30.5885 259.823V259.859C30.5214 259.859 30.4871 259.896 30.4871 259.967V259.716C30.3856 259.824 30.3529 259.932 30.3529 260.003C30.3873 260.04 30.3873 260.075 30.42 260.111C30.3856 260.148 30.3529 260.219 30.3529 260.29C30.2858 260.398 30.2515 260.506 30.2171 260.577C30.24 260.577 30.2624 260.565 30.2842 260.541C30.2498 260.577 30.2498 260.612 30.2171 260.612H30.1827C30.1484 260.756 30.1156 260.828 30.0485 260.899C29.9471 261.042 29.88 261.15 29.8129 261.294C29.8129 261.402 29.7786 261.473 29.6771 261.473C29.61 261.652 29.5086 261.868 29.4415 262.047L29.3073 262.19C29.2729 262.261 29.2402 262.332 29.2402 262.405C28.8017 263.158 28.4302 263.911 28.0604 264.663C28.0604 264.734 28.0261 264.771 27.9934 264.807C27.7577 265.344 27.4877 265.847 27.1833 266.277V266.313C26.9134 266.671 26.7104 267.066 26.5419 267.425C26.3734 267.783 26.272 268.106 26.1705 268.465C26.2048 268.428 26.2375 268.393 26.2375 268.357C26.272 268.357 26.272 268.393 26.272 268.428C26.2048 268.428 26.1705 268.465 26.2048 268.536C26.1378 268.572 26.1034 268.607 26.1378 268.644C26.0363 269.002 25.9692 269.325 26.0036 269.684C25.9365 269.971 25.8678 270.258 25.835 270.508C25.8007 270.687 25.8007 270.866 25.835 271.045C25.8007 271.117 25.8007 271.153 25.8007 271.188C25.9021 271.331 25.9021 271.51 25.835 271.654C25.835 271.762 25.835 271.833 25.8007 271.87C25.6992 272.157 25.565 272.444 25.4292 272.694C25.3621 272.981 25.3278 273.232 25.3278 273.519C25.2607 273.698 25.2263 273.877 25.1593 274.021C25.1593 274.058 25.1936 274.129 25.2263 274.2C25.1593 274.237 25.1593 274.272 25.2263 274.308C25.192 274.524 25.2263 274.703 25.3278 274.846C25.2607 274.953 25.2607 275.061 25.3278 275.133C25.3278 275.24 25.3278 275.312 25.3949 275.348C25.3278 275.456 25.3278 275.527 25.3949 275.564C25.3949 275.851 25.2607 276.066 25.0234 276.209C25.0234 276.233 25.0349 276.246 25.0578 276.246C24.6536 276.461 24.2478 276.496 23.8093 276.353C23.7078 276.353 23.6407 276.317 23.5736 276.246C23.3037 276.138 23.068 275.995 22.8651 275.78C22.7637 275.672 22.6295 275.6 22.5281 275.529C22.3252 275.421 22.1239 275.279 21.9553 275.171C21.8882 275.1 21.8212 275.063 21.7197 275.028C21.5168 274.884 21.3482 274.67 21.2141 274.42C20.9784 274.169 20.9097 273.882 20.9784 273.559C20.9441 273.487 20.9441 273.416 21.0128 273.343C21.1143 273.164 21.1814 272.985 21.2484 272.769C21.3155 272.59 21.417 272.482 21.5512 272.374C21.7197 272.195 21.8212 272.016 21.9226 271.729C22.0568 271.479 22.2269 271.226 22.3611 270.976C22.4953 270.868 22.5967 270.689 22.6639 270.475C22.7653 270.225 22.8324 269.972 22.8995 269.685C22.9666 269.543 23.0009 269.398 23.0337 269.219C23.068 268.898 23.1007 268.574 23.1351 268.252C23.1695 268.181 23.1695 268.108 23.2022 268.037C23.3707 266.997 23.7422 266.064 24.3149 265.24C24.382 265.169 24.4164 265.097 24.4507 265.024C24.4507 265.049 24.4621 265.061 24.4851 265.061C24.5195 265.024 24.5195 264.953 24.5195 264.918H24.5865L24.6209 264.882C24.6553 264.845 24.7223 264.811 24.7551 264.739C24.688 264.847 24.6209 264.918 24.5195 264.955C24.5195 265.063 24.4851 265.171 24.4523 265.242C24.3165 265.457 24.1824 265.708 24.0809 265.924C24.0466 266.103 24.0138 266.245 23.9467 266.424C23.9811 266.604 23.9811 266.748 23.9467 266.927C23.8797 267.071 23.8797 267.214 23.8797 267.357C23.8567 267.357 23.8453 267.345 23.8453 267.32C23.7782 267.391 23.7782 267.499 23.8109 267.571C23.7438 267.607 23.7094 267.678 23.7094 267.75C23.6424 267.929 23.6424 268.108 23.7094 268.252C23.6424 268.468 23.6424 268.647 23.6751 268.826C23.6751 268.826 23.7094 268.755 23.7422 268.682C23.7422 268.753 23.7422 268.826 23.8093 268.861C24.382 267.713 24.989 266.602 25.6976 265.564C26.069 265.026 26.4061 264.489 26.7432 263.95L26.7776 263.913L26.7432 263.877C26.8446 263.769 26.9117 263.661 26.9461 263.555C27.1146 263.376 27.2505 263.197 27.419 262.981C27.4533 262.944 27.4533 262.91 27.4861 262.838C28.0931 262.157 28.5987 261.405 29.1044 260.616C29.2402 260.329 29.3744 260.078 29.5429 259.791C29.61 259.755 29.6444 259.683 29.6444 259.612C29.7114 259.504 29.8129 259.396 29.88 259.289L29.8456 259.252C29.9127 259.216 29.9471 259.181 29.9798 259.144C29.9798 259.144 29.9454 259.144 29.9454 259.108C30.0469 259.036 30.114 258.929 30.1484 258.821C30.1713 258.845 30.1936 258.845 30.2154 258.821C30.2154 258.784 30.2154 258.749 30.1811 258.784C30.2481 258.713 30.3169 258.642 30.384 258.534C30.4069 258.581 30.4293 258.581 30.4511 258.534L30.4854 258.462C30.4625 258.462 30.4511 258.45 30.4511 258.426C30.4511 258.473 30.4396 258.497 30.4167 258.497H30.3823C30.4167 258.497 30.4494 258.461 30.4494 258.389V258.426C30.4494 258.426 30.4494 258.389 30.4838 258.318C30.4838 258.355 30.5182 258.389 30.5509 258.389V258.247C30.5509 258.294 30.5733 258.307 30.618 258.283L30.6523 258.247H30.618C30.7521 258.104 30.888 257.925 31.0221 257.709L31.0565 257.673C31.0909 257.673 31.1236 257.636 31.1236 257.602C31.6963 257.028 32.2036 256.348 32.6421 255.629H32.6765C32.7108 255.629 32.7435 255.593 32.7435 255.558C32.7435 255.629 32.7092 255.666 32.7092 255.701C32.575 255.88 32.5063 256.022 32.5063 256.203C32.4719 256.346 32.4048 256.49 32.3704 256.633C32.4719 256.525 32.6061 256.382 32.6748 256.238C32.7763 256.094 32.8777 255.951 33.0119 255.809C33.2819 255.45 33.5846 255.127 33.9217 254.84C34.1246 254.768 34.2932 254.697 34.5288 254.624C34.7644 254.661 35.0016 254.767 35.1702 254.946C35.3731 254.838 35.6087 254.767 35.8443 254.695C35.8787 254.767 35.9458 254.838 36.0473 254.838C36.2502 254.588 36.4858 254.301 36.6544 254.014C36.5529 254.05 36.4187 254.085 36.3516 254.085C35.9802 254.193 35.6431 254.228 35.3403 254.264C35.2389 254.335 35.1375 254.372 35.0704 254.372C34.8004 254.443 34.5648 254.48 34.3291 254.515H34.2621C33.925 254.515 33.6206 254.515 33.3506 254.478C33.115 254.515 32.9464 254.478 32.7779 254.334C32.0367 253.76 31.3281 253.151 30.6196 252.577C30.4854 252.541 30.4511 252.434 30.4511 252.29C30.4167 252.148 30.4854 252.003 30.5852 251.861C30.5852 251.718 30.6196 251.61 30.7538 251.502V251.431C30.8209 251.394 30.8552 251.394 30.8552 251.36H30.8209C30.9567 251.252 31.1252 251.109 31.2594 250.965C31.2938 250.857 31.3608 250.786 31.428 250.714C31.4623 250.607 31.5621 250.535 31.6979 250.535C31.7323 250.464 31.7994 250.427 31.8665 250.499C31.9336 250.499 32.0694 250.462 32.2036 250.462C32.3721 250.462 32.575 250.499 32.7763 250.499C32.9448 250.499 33.1133 250.535 33.2819 250.641C34.0575 250.821 34.8331 250.857 35.6431 250.713C35.7789 250.641 35.9131 250.605 36.0816 250.57C36.3516 250.499 36.6544 250.391 36.9587 250.32C37.4987 250.177 38.0387 249.998 38.577 249.746C38.9141 249.53 39.3182 249.316 39.6897 249.172C39.8582 249.029 39.9941 248.85 40.1626 248.671C40.2641 248.563 40.3311 248.455 40.2968 248.276C40.2968 248.205 40.3311 248.133 40.3982 247.989C40.3982 247.989 40.4326 247.953 40.4326 247.881C40.3655 247.881 40.3655 247.81 40.3982 247.739C40.3982 247.739 40.3982 247.702 40.4653 247.667C40.3639 247.667 40.3311 247.667 40.3982 247.596C40.5324 247.596 40.6339 247.488 40.6682 247.346C40.6011 247.309 40.6011 247.274 40.6011 247.274C40.7353 247.238 40.8367 247.166 40.9038 247.024C41.038 246.987 41.2082 246.953 41.4095 246.953V246.916C41.578 246.953 41.7809 246.987 42.0166 246.987C42.5222 247.13 43.0278 247.309 43.535 247.596L43.5366 247.591ZM28.6626 250.172C28.9669 250.459 29.1682 250.78 29.3711 251.141C29.5053 251.391 29.574 251.643 29.6411 251.928C29.7769 252.323 29.844 252.753 29.844 253.219C29.844 253.434 29.9454 253.648 30.0796 253.793C30.0453 253.937 30.0453 254.043 30.0453 254.116C29.9782 254.332 29.9111 254.511 29.8424 254.69C29.6738 254.906 29.4709 255.085 29.2696 255.12C29.1682 255.262 29.0668 255.37 28.9653 255.37C28.7968 255.478 28.5939 255.515 28.4253 255.515C28.2911 255.551 28.1897 255.515 28.0882 255.443C27.8853 255.443 27.6841 255.372 27.5155 255.228C27.4141 255.156 27.3126 255.12 27.1785 255.12C26.9755 255.012 26.807 254.904 26.6384 254.761C26.5026 254.654 26.4028 254.582 26.3014 254.511C26.1328 254.511 26.0314 254.44 25.9643 254.332C25.7958 254.261 25.6272 254.261 25.4587 254.332C25.2901 254.44 25.1543 254.548 25.0545 254.655C25.0098 254.655 24.9874 254.643 24.9874 254.619C24.6831 254.69 24.4475 254.906 24.3133 255.156H24.2118C24.2461 254.869 24.2789 254.548 24.346 254.224C24.4818 253.721 24.4475 253.184 24.2118 252.683C24.1447 252.433 24.0433 252.181 23.9762 251.967C23.8077 251.751 23.7062 251.537 23.7062 251.25C23.8077 251.034 23.8747 250.821 23.9418 250.605V250.497C24.0433 250.426 24.1104 250.318 24.1775 250.174C24.2445 250.102 24.3116 250.031 24.4475 249.994C24.5816 249.887 24.7174 249.744 24.8189 249.565C24.9547 249.386 25.1232 249.207 25.3245 249.027C25.426 248.956 25.5602 248.885 25.696 248.848C26.0003 248.848 26.3374 248.885 26.6745 248.885C27.5172 249.027 28.193 249.459 28.6642 250.175L28.6626 250.172ZM27.3813 263.363C27.2471 263.543 27.1457 263.65 27.0786 263.793C26.9772 263.936 26.9101 264.115 26.8757 264.259C26.9101 264.115 26.9772 264.009 27.0786 263.901C27.1801 263.722 27.2815 263.543 27.3813 263.363ZM32.5079 263.972V264.009C32.4408 264.188 32.3394 264.367 32.2723 264.511C32.2052 264.656 32.1381 264.798 32.0694 264.906C31.9679 265.122 31.9009 265.301 31.8665 265.48C31.9009 265.517 31.9679 265.551 32.0694 265.551V265.515C32.0694 265.467 32.0917 265.455 32.1365 265.478C32.2036 265.263 32.3394 265.084 32.5079 264.941C32.6094 264.87 32.7108 264.762 32.845 264.654C32.7108 264.438 32.575 264.224 32.5079 263.972ZM36.9931 255.118C36.5889 255.513 36.2174 255.942 35.8804 256.409C35.7789 256.551 35.6447 256.624 35.4762 256.624C35.4091 256.661 35.3748 256.732 35.342 256.803C35.1391 257.269 35.005 257.77 34.9706 258.273C34.9706 258.596 35.005 258.882 35.1391 259.205C35.1735 259.456 35.2062 259.708 35.2406 259.958C35.9818 259.349 36.6903 258.704 37.3989 258.059C37.3989 257.485 37.4332 257.198 37.4659 257.163C37.4659 257.021 37.4316 256.842 37.3989 256.662C37.4332 256.304 37.3989 255.946 37.3645 255.551C37.2631 255.48 37.1959 255.335 37.1959 255.121C37.2303 255.085 37.2974 255.014 37.3645 254.906C37.2287 254.977 37.0945 255.05 36.9931 255.121V255.118ZM37.3645 259.527C36.8916 259.922 36.386 260.316 35.8804 260.675C35.6104 260.746 35.4762 260.925 35.4762 261.141C35.4762 261.356 35.5433 261.499 35.6104 261.57C35.6104 261.678 35.6104 261.713 35.5433 261.75C35.5662 261.774 35.5776 261.798 35.5776 261.821C35.612 261.784 35.6447 261.75 35.7134 261.713V262.108C35.6464 262.108 35.5776 262.108 35.5106 262.071C35.3764 262.466 35.2749 262.859 35.2749 263.254C35.9163 262.717 36.4547 262.071 36.8261 261.282C37.029 260.852 37.1632 260.386 37.2647 259.847C37.299 259.776 37.3318 259.631 37.3662 259.523L37.3645 259.527ZM40.534 257.591C40.2984 257.628 40.0955 257.662 39.8599 257.699V258.202C39.8599 258.273 39.8255 258.344 39.7928 258.417C39.7928 258.668 39.7584 258.883 39.7584 259.063C39.7584 259.099 39.7241 259.099 39.6913 259.099H39.7257C39.7257 259.349 39.6913 259.602 39.6913 259.852C39.6913 259.923 39.7257 259.96 39.7584 259.995C39.6913 260.21 39.657 260.424 39.657 260.64C39.6913 260.603 39.7241 260.603 39.7584 260.603C39.7928 260.748 39.7584 260.927 39.6913 261.07C39.657 261.177 39.5899 261.32 39.5228 261.428C39.387 261.428 39.3543 261.536 39.3543 261.678C39.2872 261.715 39.2528 261.75 39.2528 261.786C39.1186 261.93 39.0172 262.073 38.9828 262.181C39.0499 262.252 39.1514 262.323 39.2855 262.323C39.7241 262.61 40.1283 262.897 40.5667 263.256C40.7697 263.435 40.9382 263.614 41.038 263.901C41.1051 264.117 41.038 264.331 40.9038 264.475C40.8367 264.583 40.8695 264.69 40.9709 264.762C41.038 264.941 41.0724 265.084 41.0724 265.263C41.0724 265.191 41.1068 265.12 41.1738 265.047C41.2409 265.118 41.2409 265.155 41.2753 265.226C41.2409 265.297 41.1738 265.334 41.1068 265.297C41.1738 265.656 41.1411 266.014 41.0724 266.301C40.8024 266.588 40.5324 266.731 40.2297 266.767C39.8926 266.838 39.6226 266.983 39.387 267.162C39.2184 267.304 39.0842 267.378 38.9828 267.412C38.6784 267.591 38.4772 267.807 38.3414 268.058C38.3414 268.129 38.3758 268.129 38.4428 268.094C38.6114 268.273 38.8142 268.452 39.0499 268.56C39.5555 268.847 40.0284 269.205 40.4669 269.6C40.5684 269.637 40.6698 269.743 40.7713 269.887C40.8384 269.995 40.9398 270.103 41.0413 270.245C41.0413 270.282 41.0069 270.282 40.9742 270.282C40.9071 270.498 40.8056 270.64 40.6715 270.748C40.57 270.785 40.5357 270.819 40.5357 270.891C40.5013 270.999 40.4342 271.07 40.3671 271.07C40.2657 271.106 40.1986 271.106 40.0972 271.106C39.8615 271.249 39.6586 271.357 39.4557 271.501C39.3543 271.501 39.2201 271.465 39.153 271.359C38.9501 271.287 38.8159 271.287 38.6801 271.359C38.613 271.359 38.5786 271.359 38.5459 271.395C38.4117 271.466 38.2759 271.538 38.1417 271.574V271.538C38.0076 271.645 37.9061 271.825 37.839 271.967C37.7719 272.075 37.7376 272.11 37.7032 272.075H37.7376C37.6705 272.112 37.6705 272.146 37.7032 272.112C37.7032 272.136 37.7147 272.148 37.7376 272.148C37.6705 272.185 37.6361 272.219 37.6361 272.256C37.569 272.256 37.5347 272.256 37.5347 272.219V272.327C37.5118 272.352 37.4894 272.364 37.4676 272.364C37.4332 272.4 37.4005 272.4 37.4005 272.435C37.3334 272.472 37.299 272.472 37.2647 272.472H37.2303C37.0961 272.579 36.9947 272.687 36.8932 272.759V272.614C36.8261 272.686 36.7247 272.722 36.6576 272.793C36.5905 272.865 36.5561 272.972 36.5905 273.08H36.4563C36.3892 273.152 36.3549 273.152 36.3549 273.08C36.2878 273.152 36.2878 273.223 36.3549 273.296C36.3101 273.296 36.2878 273.272 36.2878 273.225C36.2535 273.296 36.2535 273.333 36.3222 273.333C36.3893 273.296 36.525 273.261 36.6592 273.225C36.7607 273.225 36.8622 273.188 36.9636 273.082C37.5707 272.974 38.1434 272.795 38.7504 272.545C39.1546 272.473 39.5932 272.508 40.0317 272.616V272.4C40.0317 272.329 40.0661 272.258 40.0988 272.15C40.1331 272.186 40.2002 272.221 40.233 272.258C40.3 272.186 40.3344 272.079 40.3344 271.971C40.3344 272.007 40.3344 272.042 40.3688 272.042L40.4702 271.934C40.5717 271.934 40.6387 271.863 40.6387 271.684C40.6387 271.72 40.6731 271.755 40.6731 271.755C40.7402 271.826 40.7745 271.792 40.8073 271.684C40.8073 271.72 40.8417 271.755 40.8417 271.755C40.876 271.755 40.9087 271.755 40.9431 271.684H40.9775C41.0446 271.792 41.0789 271.792 41.146 271.684C41.1804 271.612 41.2131 271.576 41.2474 271.505H41.4831C41.5846 271.433 41.686 271.362 41.7187 271.218C41.7531 271.218 41.8202 271.218 41.8872 271.181C41.9544 271.002 42.0902 270.823 42.2587 270.644C42.2587 270.428 42.2587 270.178 42.2931 269.962C42.3601 269.783 42.3945 269.604 42.4616 269.459C42.4616 269.28 42.4616 269.136 42.4273 268.957C42.4273 268.419 42.3929 267.845 42.3929 267.237C42.3929 267.058 42.3585 266.807 42.3258 266.591C42.3258 266.484 42.2914 266.376 42.2587 266.268V264.87C42.1916 264.762 42.1916 264.69 42.2243 264.583C42.19 264.367 42.1572 264.224 42.19 264.08C42.19 263.972 42.2243 263.901 42.2243 263.901C42.2914 263.579 42.3585 263.219 42.3585 262.897C42.3242 262.289 42.3242 261.823 42.3585 261.499C42.4256 261.176 42.46 260.996 42.46 260.996C42.4943 260.817 42.527 260.638 42.527 260.423V259.24C42.0886 258.702 41.6156 258.2 41.1787 257.662C40.9431 257.662 40.7402 257.662 40.5373 257.591H40.534Z" fill="white"/>
<path d="M30.521 285.013C30.6057 285.048 30.6887 285.082 30.7717 285.115C30.9358 285.183 31.0912 285.251 31.2395 285.32C31.3895 285.387 31.5307 285.461 31.6666 285.52C31.8026 285.579 31.9332 285.64 32.055 285.701C32.3004 285.821 32.5175 285.945 32.7099 286.066C32.9024 286.177 33.0701 286.29 33.2113 286.405C33.7797 286.866 33.9456 287.353 33.7797 287.858C33.6597 288.229 33.409 288.587 33.0683 288.934C32.8988 289.108 32.7064 289.28 32.4999 289.452C32.2933 289.621 32.0709 289.776 31.8396 289.936C31.6296 290.08 31.3913 290.216 31.123 290.344C30.8546 290.475 30.5581 290.572 30.2315 290.674C30.069 290.723 29.8978 290.77 29.7196 290.815C29.6313 290.838 29.5395 290.86 29.4477 290.88C29.3559 290.895 29.2623 290.913 29.167 290.93C28.7857 290.993 28.3761 291.048 27.9383 291.09C26.1995 291.224 24.0318 291.057 21.6275 290.389C21.4386 290.336 21.2497 290.28 21.0573 290.224C20.8666 290.167 20.6689 290.113 20.48 290.044C20.0969 289.906 19.7086 289.767 19.3202 289.628C18.9371 289.477 18.5558 289.315 18.1745 289.157C18.0792 289.117 17.9839 289.079 17.8885 289.039C17.795 288.997 17.7032 288.954 17.6097 288.912C17.4243 288.827 17.2407 288.743 17.0571 288.66C15.3783 287.891 13.8301 286.65 12.5997 285.138C12.4832 284.997 12.3667 284.855 12.2502 284.712C12.1919 284.641 12.1319 284.57 12.0737 284.498C12.0172 284.425 11.9589 284.352 11.9024 284.279C11.673 283.985 11.4399 283.693 11.2017 283.4C10.7497 282.793 10.2713 282.188 9.82647 281.538C9.75233 281.434 9.68525 281.328 9.60934 281.204C9.57227 281.143 9.53167 281.077 9.48754 281.006C9.44517 280.933 9.40104 280.853 9.34984 280.763C9.45223 280.822 9.54226 280.877 9.63582 280.929C9.72938 280.98 9.82294 281.03 9.9218 281.084C9.89179 281.023 9.8406 280.898 9.75586 280.745C8.70551 278.887 7.65517 276.923 6.78488 274.757C5.4662 271.449 4.85718 267.916 4.85718 264.419C4.86247 263.925 4.88013 263.432 4.89425 262.94C4.92249 262.448 4.97016 261.957 5.01252 261.472C5.06372 261.026 5.13962 260.584 5.20671 260.143C5.23848 259.922 5.28438 259.705 5.33028 259.486C5.37617 259.268 5.42207 259.049 5.46797 258.83C5.53329 258.489 5.63038 258.154 5.72041 257.817L5.85104 257.313L5.91106 257.059L5.97814 256.807C6.13348 256.218 6.27647 255.623 6.47242 255.044C6.56598 254.754 6.65248 254.46 6.75486 254.173L7.07438 253.314C7.12911 253.172 7.17853 253.028 7.23856 252.887L7.41862 252.466L7.78227 251.625L8.18475 250.801L8.38776 250.389L8.60842 249.987L9.05328 249.184L9.53343 248.402L9.77528 248.011C9.85648 247.882 9.94651 247.757 10.033 247.63L10.5538 246.872C11.2811 245.887 12.0402 244.92 12.8875 244.03C13.2847 243.583 13.7243 243.177 14.1532 242.758C17.0783 239.994 20.5983 237.84 24.413 236.488C26.3196 235.811 28.2985 235.339 30.3003 235.083C32.3022 234.827 34.3252 234.789 36.3182 234.965C38.0252 235.118 39.7411 235.385 41.4058 235.815C41.7235 235.902 42.0748 235.989 42.3484 236.088C43.8013 236.651 45.2594 237.27 46.7034 237.981C47.06 238.167 47.4254 238.341 47.7838 238.532C48.1386 238.728 48.4952 238.925 48.8535 239.121C49.2048 239.331 49.5561 239.544 49.9092 239.756C50.0875 239.858 50.257 239.978 50.43 240.089C50.603 240.202 50.776 240.317 50.949 240.43C50.9348 240.52 50.9225 240.59 50.9048 240.706C51.0196 240.783 51.1308 240.866 51.2419 240.952C51.3532 241.037 51.4644 241.12 51.5756 241.205C51.7963 241.377 52.0257 241.543 52.2446 241.723C52.4618 241.906 52.679 242.088 52.896 242.273C53.0037 242.365 53.1149 242.455 53.2209 242.551L53.5351 242.841C54.9103 244.101 56.1566 245.494 57.2475 246.991C57.394 247.192 57.5759 247.437 57.6518 247.599C57.823 247.988 58.0225 248.374 58.2414 248.758C58.4444 249.153 58.6668 249.546 58.8998 249.94C59.1152 250.345 59.3464 250.751 59.5724 251.159C59.7825 251.578 60.0049 251.993 60.2043 252.418C60.305 252.644 60.4039 252.871 60.4992 253.101C60.5945 253.33 60.6951 253.558 60.7745 253.794L61.0252 254.497L61.1488 254.848L61.2582 255.204C61.3606 255.54 61.4595 255.913 61.5566 256.242C61.6484 256.572 61.7596 256.854 61.9184 257.001C61.8725 256.8 61.8249 256.596 61.7719 256.364C61.7225 256.131 61.6501 255.873 61.5601 255.562C61.6237 255.663 61.6836 255.766 61.742 255.873C61.7701 255.927 61.7984 255.981 61.8267 256.035C61.8514 256.091 61.8761 256.146 61.9008 256.204C61.9979 256.43 62.0844 256.666 62.1656 256.911C62.2062 257.033 62.245 257.156 62.2821 257.283C62.3193 257.408 62.3454 257.539 62.3773 257.667C62.4359 257.926 62.4905 258.192 62.5433 258.46C62.6158 258.288 62.6883 258.309 62.755 258.458C62.8276 258.608 62.8786 258.889 62.9227 259.235C63.1083 260.562 63.1594 261.895 63.1385 263.308C63.0643 263.214 63.0039 263.141 62.9372 263.056C62.9279 263.242 62.9088 263.423 62.9123 263.595C62.9157 263.896 62.932 264.198 62.9279 264.499L62.9053 265.403C62.9001 265.554 62.8983 265.704 62.8914 265.855L62.856 266.307C62.831 266.607 62.8043 266.91 62.7748 267.211C62.7289 267.548 62.6738 267.871 62.6158 268.188C62.5856 268.346 62.5555 268.5 62.5241 268.653C62.4853 268.805 62.4446 268.954 62.4023 269.102C62.3176 269.397 62.2274 269.684 62.1303 269.964C62.0226 270.242 61.9043 270.512 61.779 270.778C61.5866 271.211 61.3501 271.73 61.1223 272.287C61.0146 272.566 60.8769 272.845 60.7534 273.128C60.6916 273.269 60.628 273.41 60.5663 273.55C60.5062 273.691 60.4427 273.83 60.3738 273.964C60.2644 274.188 60.1585 274.407 60.0543 274.618C59.9519 274.83 59.8531 275.035 59.7366 275.226C59.6236 275.419 59.5071 275.603 59.3835 275.777C59.2582 275.951 59.1311 276.116 58.9722 276.262C58.4973 276.723 57.7029 278.053 56.9333 278.937C55.8847 280.203 54.7214 281.406 53.4716 282.447C53.3692 282.534 53.2703 282.591 53.1432 282.657C53.0797 282.69 53.009 282.725 52.9278 282.769C52.8449 282.809 52.7478 282.854 52.6365 282.909C52.6842 282.864 52.7283 282.824 52.7743 282.783C52.7743 282.783 52.7707 282.783 52.7689 282.784C52.4283 282.909 52.1052 283.113 51.791 283.344C51.4679 283.565 51.1449 283.806 50.8236 284.024C50.5782 284.187 50.3187 284.337 50.0716 284.498L49.6991 284.743C49.5756 284.825 49.4467 284.9 49.3213 284.981C49.0707 285.141 48.8235 285.31 48.5817 285.484C48.331 285.647 48.0874 285.821 47.8473 286.005C47.7379 286.087 47.6319 286.176 47.519 286.256C47.4042 286.334 47.2895 286.414 47.1747 286.494C46.9435 286.65 46.7069 286.802 46.4598 286.921C44.8322 287.697 43.1163 288.286 41.3705 288.667C41.1481 288.712 40.9327 288.761 40.7226 288.813C40.6184 288.839 40.5143 288.865 40.4137 288.894C40.3113 288.921 40.2089 288.945 40.1083 288.969C39.907 289.021 39.7093 289.079 39.5116 289.145C39.3139 289.209 39.1197 289.289 38.9202 289.357C38.5901 289.479 38.2388 289.616 37.8593 289.701C37.478 289.771 37.0685 289.784 36.6342 289.682C36.4223 289.635 35.9175 289.711 35.5468 289.732L35.1284 289.751H34.71L33.8733 289.75L33.778 289.651C34.1416 289.56 34.4876 289.459 34.8618 289.383C34.9625 289.362 35.0613 289.343 35.1619 289.32L35.4621 289.246C35.6615 289.195 35.8592 289.147 36.0604 289.096C36.4594 289.007 36.8513 288.877 37.2432 288.762C37.6757 288.644 38.0958 288.486 38.5407 288.37C38.6519 288.34 38.7649 288.312 38.8779 288.288C38.9926 288.26 39.1073 288.234 39.2239 288.204C39.4587 288.152 39.7023 288.11 39.9617 288.083C40.0377 288.074 40.1206 288.065 40.2036 288.051C40.2866 288.034 40.3731 288.015 40.4543 287.994C40.6184 287.952 40.7721 287.9 40.8727 287.843C41.0245 287.756 41.1833 287.685 41.3458 287.624C41.5064 287.556 41.6723 287.497 41.84 287.445C42.1737 287.335 42.525 287.264 42.8551 287.139C43.0245 287.08 43.1958 287.022 43.3688 286.965C43.54 286.908 43.7147 286.857 43.8825 286.789C44.2197 286.661 44.5586 286.534 44.8887 286.39C47.8808 285.016 50.5764 283.05 52.7884 280.667C52.9984 280.432 53.3268 280.114 53.3692 279.959C53.4557 279.645 53.6163 279.37 53.8281 279.123C54.0435 278.878 54.2783 278.637 54.5043 278.388C54.626 278.254 54.7373 278.12 54.8396 277.985C54.9385 277.846 55.0232 277.701 55.1027 277.554C55.1821 277.406 55.2545 277.255 55.3198 277.095C55.3516 277.015 55.3869 276.935 55.4134 276.85C55.4398 276.764 55.4645 276.676 55.4893 276.587C54.506 278.141 53.3604 279.541 52.0964 280.794C50.8324 282.047 49.4467 283.156 47.9497 284.116C47.9727 283.796 48.3681 283.606 48.6664 283.391L49.279 282.906L49.5844 282.664L49.8774 282.407L50.4635 281.896L51.0231 281.357L51.302 281.088L51.5686 280.806L52.0999 280.243L52.6013 279.655L52.8519 279.362L53.0867 279.056L53.2403 278.854C53.2121 278.854 53.1803 278.857 53.1449 278.859C53.272 278.734 53.3939 278.595 53.5245 278.47L53.9676 277.797L54.1918 277.465C54.2624 277.35 54.3348 277.237 54.4089 277.126L54.6666 276.74C54.7531 276.611 54.8414 276.485 54.9191 276.351L55.408 275.562C55.7099 275.023 56.0259 274.487 56.2872 273.928L56.3719 273.95C56.3331 274.148 56.2925 274.346 56.236 274.632C56.4284 274.233 56.6367 273.867 56.8097 273.505C56.9721 273.14 57.1222 272.792 57.2175 272.453C57.3022 272.102 57.3922 271.767 57.4928 271.433C57.5847 271.096 57.6765 270.757 57.7948 270.411C57.8459 270.268 57.8865 270.121 57.9254 269.973C57.9642 269.825 58.003 269.676 58.0384 269.528C58.0736 269.38 58.109 269.231 58.139 269.085C58.1619 268.935 58.1813 268.787 58.199 268.641C58.2202 268.454 58.2449 268.268 58.2731 268.083C58.169 268.294 58.0878 268.52 58.0154 268.751C57.9783 268.867 57.9501 268.985 57.9077 269.102C57.8688 269.218 57.8283 269.335 57.7894 269.45L57.7824 269.479H57.7789C57.7542 269.547 57.7312 269.613 57.7065 269.681C57.5335 270.185 57.311 270.677 57.1469 271.186C57.0533 271.438 56.958 271.689 56.8768 271.946C56.8362 272.074 56.7973 272.205 56.762 272.335C56.7197 272.464 56.6791 272.592 56.642 272.725C56.5749 272.961 56.5114 273.206 56.439 273.449C56.3543 273.688 56.2607 273.922 56.1477 274.141C55.3922 275.581 54.4654 276.933 53.4027 278.146C53.3374 278.226 53.2703 278.301 53.2032 278.376C53.1361 278.451 53.0726 278.524 53.009 278.598C52.8837 278.746 52.7637 278.896 52.6524 279.047C52.4229 279.344 52.204 279.641 52.0134 279.979C51.6815 280.521 51.3108 281.161 50.5306 281.449C50.4352 281.484 50.3169 281.594 50.1811 281.713C50.0433 281.832 49.8986 281.969 49.7679 282.075C49.3814 282.402 48.9648 282.69 48.5588 282.991L48.4298 282.963C48.6399 282.696 48.8306 282.43 49.0583 282.167C49.2949 281.88 49.5226 281.583 49.7556 281.296C49.9833 281.004 50.1952 280.697 50.4158 280.401C50.5394 280.241 50.6436 280.064 50.7618 279.899C50.8783 279.732 50.9983 279.567 51.1255 279.405C51.2508 279.24 51.3779 279.071 51.5209 278.91C51.5933 278.828 51.6674 278.748 51.7469 278.67C51.8263 278.591 51.911 278.511 51.9922 278.43C52.1882 278.24 52.4406 277.959 52.5218 277.767C52.7478 277.171 53.205 276.712 53.558 276.186C53.6499 276.052 53.7505 275.923 53.8405 275.788L54.1106 275.382L54.3807 274.976C54.4654 274.837 54.5413 274.694 54.619 274.553C56.0294 271.955 56.8909 269.09 57.1681 266.175C57.191 265.893 57.2616 265.484 57.1981 265.351C56.9245 264.8 57.0921 264.205 57.1363 263.598C57.1522 263.435 57.161 263.279 57.1593 263.126C57.1539 262.973 57.1327 262.821 57.108 262.672C57.0816 262.522 57.048 262.375 57.0039 262.223C56.9615 262.072 56.9103 261.921 56.8362 261.766C56.9809 263.418 56.9315 265.05 56.7091 266.634C56.4884 268.217 56.0965 269.759 55.5405 271.25C55.3604 271 55.5599 270.658 55.6375 270.338L55.8212 269.663L55.9694 268.98L56.0453 268.64C56.0683 268.525 56.0842 268.41 56.1036 268.295L56.2183 267.609C56.2536 267.379 56.2713 267.148 56.2995 266.917C56.3225 266.686 56.3596 266.458 56.3666 266.225C56.3913 265.763 56.4319 265.302 56.4213 264.838C56.4213 264.661 56.4213 264.485 56.4161 264.309C56.4143 264.134 56.3896 263.958 56.3772 263.783C56.3472 263.433 56.3313 263.084 56.2978 262.734C56.2413 261.624 56.1089 260.515 55.8935 259.423L55.9765 259.393C56.0206 259.475 56.063 259.555 56.1124 259.645C56.1601 259.736 56.2165 259.835 56.2695 259.955C56.2572 259.856 56.2395 259.758 56.2201 259.665C56.2024 259.569 56.1848 259.475 56.1671 259.381C56.1336 259.194 56.1018 259.013 56.0701 258.835C55.9924 258.484 55.8971 258.157 55.7788 257.86C55.514 257.264 55.2863 256.701 55.0585 256.082C55.0127 255.953 54.972 255.821 54.9173 255.694C54.8608 255.567 54.8061 255.441 54.7496 255.314C54.6331 255.063 54.5236 254.811 54.3753 254.589C54.1688 254.269 54.0029 253.932 53.8052 253.612C53.6163 253.287 53.4469 252.953 53.2509 252.633L52.9719 252.145C52.8766 251.983 52.7725 251.826 52.6736 251.667C52.573 251.508 52.4742 251.349 52.3718 251.19L52.0399 250.733C52.0187 250.704 52.0364 250.65 52.0364 250.537C52.9084 251.47 53.6428 252.531 54.2359 253.657C54.8326 254.783 55.3057 255.965 55.7064 257.163L55.627 256.819L55.5864 256.647L55.5351 256.478L55.3269 255.8L55.2739 255.63L55.2104 255.463L55.0833 255.131L54.9561 254.797L54.8908 254.63L54.8167 254.467L54.5201 253.815L54.4459 253.652L54.363 253.494L54.1971 253.175C53.9852 252.746 53.731 252.338 53.4909 251.92L53.9817 252.546C54.0665 252.649 54.1406 252.76 54.2165 252.868L54.4478 253.193C54.3683 252.976 54.3118 252.763 54.2606 252.555C54.2006 252.35 54.1459 252.148 54.0806 251.943C54.0488 251.84 54.0135 251.738 53.9746 251.634C53.9552 251.581 53.9341 251.529 53.9111 251.477C53.8864 251.427 53.8599 251.376 53.8317 251.324C53.7205 251.121 53.581 250.912 53.3992 250.7C53.5368 250.751 53.5986 250.775 53.7381 250.827C53.634 250.674 53.5404 250.518 53.4362 250.373C53.3303 250.229 53.2279 250.086 53.1256 249.946C53.0232 249.805 52.9226 249.664 52.8202 249.527C52.7125 249.393 52.6048 249.261 52.4971 249.129C51.6198 248.047 50.6453 247.041 49.5756 246.137C49.3831 245.979 49.1801 245.748 48.9418 245.807C48.7335 245.855 48.3787 245.621 48.3893 245.381C48.3981 245.164 48.0486 244.943 48.0044 244.953C47.782 244.995 47.572 244.877 47.3583 244.727C47.2524 244.653 47.1447 244.571 47.0353 244.498C46.9241 244.43 46.8093 244.374 46.6963 244.345C46.6575 244.406 46.6116 244.479 46.5322 244.604C44.6592 243.491 42.6609 242.683 40.599 242.148C40.1436 242.045 39.6934 241.911 39.2327 241.833C39.0032 241.788 38.7737 241.743 38.5442 241.703C38.313 241.673 38.0817 241.647 37.8505 241.623C37.3932 241.563 36.9307 241.562 36.4718 241.537C36.2441 241.522 36.0128 241.536 35.7833 241.536L35.0966 241.544L34.4117 241.588C34.184 241.603 33.9563 241.609 33.7285 241.64C33.2749 241.694 32.8212 241.727 32.3746 241.807C30.9888 242.012 29.6065 242.292 28.0584 242.817C28.392 242.459 28.2261 242.46 27.9066 242.556C26.3426 243.02 24.8332 243.663 23.3998 244.44C23.2003 244.555 22.9991 244.67 22.7996 244.785L22.4978 244.955C22.3971 245.012 22.3018 245.077 22.2029 245.136C22.007 245.257 21.8093 245.376 21.6098 245.49C21.4156 245.612 21.2214 245.734 21.029 245.855C20.8772 245.951 20.7165 246.04 20.5647 246.132C20.4147 246.226 20.2629 246.309 20.1164 246.377C19.8215 246.513 19.5391 246.582 19.3079 246.53C19.2302 246.511 19.0519 246.587 18.916 246.665C18.7235 246.777 18.5664 246.836 18.434 246.86C17.7738 247.559 17.1489 248.277 16.5928 249.043C16.3016 249.415 16.0421 249.81 15.7702 250.194C15.629 250.384 15.5107 250.587 15.3783 250.782C15.2512 250.98 15.1135 251.169 14.9882 251.369C14.1179 252.734 13.7719 253.864 13.4065 255.131C13.3412 255.329 13.2882 255.54 13.2247 255.75C13.1629 255.96 13.0958 256.174 13.027 256.388C12.9687 256.605 12.9105 256.824 12.8504 257.043C12.7922 257.262 12.7286 257.478 12.6898 257.697C12.6598 257.843 12.6103 258.031 12.6139 258.126C12.6298 258.945 12.568 259.871 12.4921 260.836C12.4832 261.08 12.4726 261.323 12.4585 261.57C12.4532 261.693 12.4426 261.815 12.4391 261.938V262.309C12.4373 262.555 12.4355 262.802 12.4355 263.047C12.4514 263.292 12.4673 263.534 12.4832 263.774C12.6615 266.011 13.1823 268.196 13.9908 270.265C14.4057 271.296 14.8875 272.299 15.4401 273.263C15.9944 274.228 16.6334 275.146 17.3236 276.024C18.2187 277.152 19.2249 278.2 20.33 279.116C20.42 279.191 20.5118 279.269 20.6053 279.346C20.7042 279.417 20.803 279.49 20.9002 279.556C21.0943 279.692 21.2832 279.81 21.4403 279.888C21.6486 279.979 21.8287 280.022 22.0176 280.111C22.1111 280.156 22.2082 280.212 22.3124 280.29C22.4147 280.37 22.5366 280.458 22.6672 280.587C22.7008 280.618 22.812 280.66 22.9637 280.71C23.1138 280.761 23.3045 280.822 23.5022 280.877C23.3981 281.039 23.3274 281.15 23.2321 281.3C23.4846 281.46 23.7228 281.627 23.9647 281.774C24.2118 281.917 24.4537 282.056 24.6955 282.195C25.7176 282.734 26.6656 283.205 27.5765 283.659C27.8078 283.763 28.0337 283.869 28.2579 283.978C28.3709 284.031 28.4803 284.093 28.5933 284.14C28.7062 284.191 28.8175 284.241 28.9305 284.29C29.1547 284.389 29.3736 284.5 29.596 284.597C29.8202 284.691 30.0426 284.787 30.265 284.886C30.3533 284.926 30.4398 284.966 30.5227 285.004L30.521 285.013ZM44.0325 242.396C43.8489 242.314 43.6724 242.236 43.4977 242.158C43.4112 242.12 43.3229 242.08 43.2364 242.042C43.1481 242.005 43.0581 241.972 42.9698 241.937C42.7897 241.868 42.6062 241.796 42.4137 241.722C43.1516 242.229 43.517 242.379 44.6045 242.669C44.405 242.568 44.2197 242.473 44.0343 242.394L44.0325 242.396ZM57.4717 257.413C57.4364 257.28 57.3834 257.153 57.334 257.028C57.2846 256.902 57.2387 256.781 57.2051 256.657L57.1116 256.711C57.1486 256.829 57.1857 256.949 57.2245 257.069C57.2616 257.191 57.304 257.313 57.334 257.443C57.4011 257.7 57.4717 257.977 57.5512 258.284C57.597 257.968 57.5458 257.681 57.4717 257.413ZM56.1548 253.584C56.0842 253.415 56.0118 253.245 55.9377 253.076C55.9553 253.238 55.9712 253.398 55.9888 253.554L56.033 253.638L56.1548 253.584ZM57.018 250.952C56.8044 250.662 56.589 250.372 56.3737 250.08C56.4884 250.361 56.612 250.599 56.785 250.857C56.8732 250.983 56.9686 251.119 57.0745 251.272C57.1822 251.423 57.3057 251.587 57.4488 251.774C57.2934 251.481 57.1522 251.211 57.018 250.954V250.952ZM56.8132 251.529C56.642 251.161 56.4337 250.81 56.2377 250.448C55.8317 249.732 55.3621 249.03 54.7884 248.371C54.8396 248.475 54.8926 248.579 54.9544 248.704C54.8591 248.593 54.7672 248.489 54.6772 248.385C54.6331 248.332 54.589 248.282 54.5448 248.232L54.4054 248.086C54.4266 248.174 54.4407 248.239 54.4813 248.292C54.6878 248.602 54.8944 248.913 55.1027 249.224C55.3022 249.539 55.4911 249.861 55.687 250.177C55.7505 250.276 55.8212 250.424 55.8759 250.471C56.033 250.599 56.1777 250.751 56.3137 250.914C56.4478 251.079 56.5785 251.253 56.6879 251.446C56.8009 251.635 56.9103 251.832 57.0215 252.026L57.1892 252.32C57.2422 252.419 57.2952 252.518 57.3516 252.616C57.1874 252.247 56.9933 251.894 56.8185 251.529H56.8132ZM58.3755 250.184C58.1425 249.808 57.9183 249.428 57.6817 249.054C57.4329 248.689 57.184 248.324 56.9174 247.973C56.6385 247.632 56.3578 247.296 56.0524 246.985C57.1434 248.353 58.1019 249.827 58.9051 251.378L59.0357 251.324C58.8063 250.95 58.5909 250.566 58.3738 250.182L58.3755 250.184ZM59.6342 251.545C59.4594 251.168 59.2546 250.803 59.0499 250.445C59.0146 250.382 58.9404 250.368 58.8151 250.286C59.124 250.817 59.3623 251.197 59.56 251.597L59.6342 251.545ZM58.868 251.767L58.8204 251.783C58.9422 252.03 59.0711 252.273 59.3111 252.772C59.094 252.266 58.9775 252.019 58.868 251.769V251.767ZM57.6235 251.86L57.7135 252.042L57.7965 252.228L57.9677 252.598C58.808 254.366 59.4647 256.223 59.8742 258.131C60.2909 260.04 60.4921 261.992 60.4762 263.943C60.4603 265.575 60.3685 267.216 60.0808 268.836L60.2432 268.872C60.6845 267.221 60.8046 265.474 60.8717 263.765C60.8805 263.475 60.8981 263.185 60.8981 262.893L60.884 262.018C60.8805 261.872 60.884 261.726 60.8734 261.58L60.8434 261.144C60.8222 260.854 60.8081 260.562 60.7799 260.27C60.7286 259.99 60.6721 259.703 60.6245 259.419C60.5998 259.279 60.5821 259.138 60.5574 259.002C60.5327 258.867 60.5097 258.735 60.4939 258.606C60.2714 256.838 59.6889 255.215 58.9651 253.662L58.8627 253.68C58.9369 253.878 59.0198 254.074 59.087 254.276L59.2864 254.881C59.3499 255.082 59.4241 255.281 59.4788 255.486L59.6465 256.098C59.1399 254.535 58.4391 253.146 57.62 251.854L57.6235 251.86ZM59.8937 254.062L59.8266 254.053L60.1637 255.074L60.245 255.086L59.8937 254.062ZM62.3878 259.343L62.328 258.957L62.2979 258.764L62.2592 258.573L62.1021 257.808L62.0226 257.426L61.9255 257.048C61.9326 257.179 61.945 257.309 61.9608 257.438C61.9714 257.568 61.9856 257.697 62.0032 257.825C62.0385 258.083 62.0897 258.337 62.1479 258.589L62.1938 258.778L62.2345 258.969L62.3211 259.35C62.3826 259.604 62.4446 259.859 62.5044 260.113L62.3878 259.343ZM56.3225 278.099C56.1671 278.325 56.0188 278.557 55.8582 278.779L55.3657 279.438C55.2827 279.548 55.205 279.661 55.1168 279.767L54.8555 280.085C54.6807 280.297 54.5077 280.511 54.3295 280.719L53.7769 281.331C53.6834 281.432 53.5933 281.536 53.498 281.635L53.2067 281.929C53.0496 282.084 52.9631 282.294 52.6789 282.701C53.0426 282.421 53.2879 282.211 53.5033 282.037C53.6022 281.934 53.6993 281.84 53.7875 281.743C53.8758 281.647 53.9623 281.555 54.0488 281.465L54.416 281.086L54.5996 280.896L54.7761 280.7L55.4752 279.909L56.1371 279.087C56.2501 278.951 56.3525 278.809 56.4566 278.666L56.7674 278.24C57.5847 277.093 58.3155 275.881 58.9333 274.609C60.1461 272.055 60.9281 269.288 61.2353 266.477C61.2653 266.192 61.3024 265.907 61.3235 265.62C61.3394 265.333 61.3571 265.046 61.373 264.76L61.3977 264.33L61.4048 263.901C61.4118 263.614 61.4189 263.331 61.4277 263.046C61.4259 262.536 61.4153 262.145 61.4065 261.815C61.4065 261.65 61.3907 261.502 61.3765 261.361C61.3624 261.22 61.3483 261.088 61.3306 260.96C61.313 260.831 61.2935 260.701 61.2724 260.567C61.2494 260.433 61.2265 260.292 61.1859 260.141C61.1117 259.838 61.0164 259.487 60.8911 259.034L60.9988 259.887L61.0535 260.313L61.0887 260.741C61.1664 261.566 61.2794 262.401 61.2953 263.239C61.2918 263.581 61.29 263.924 61.2865 264.264C61.2724 264.605 61.2406 264.944 61.2123 265.281C61.1947 265.45 61.1841 265.618 61.1576 265.787C61.1312 265.956 61.1029 266.122 61.0729 266.289C61.0429 266.456 61.0111 266.623 60.9775 266.79C60.9599 266.873 60.944 266.957 60.9246 267.039L60.8558 267.285C60.7728 267.576 60.7057 267.876 60.6457 268.186C60.5821 268.494 60.5027 268.803 60.4321 269.116L60.3191 269.582C60.2732 269.735 60.2238 269.886 60.1726 270.037C60.0684 270.336 59.9625 270.63 59.8231 270.901C59.7259 271.084 59.6695 271.365 59.5954 271.602C59.5441 271.76 59.4982 271.918 59.4417 272.075L59.267 272.54L59.0958 273.006L59.011 273.239L58.9192 273.469C58.8116 273.74 58.6633 274.018 58.5468 274.294C58.4249 274.567 58.3225 274.833 58.3384 275.094L58.0825 275.482C57.9978 275.612 57.9006 275.734 57.8106 275.859L57.2616 276.605C57.2369 276.634 57.2175 276.674 57.1963 276.709C56.9103 277.175 56.6402 277.653 56.3225 278.101V278.099ZM58.8504 273.104C58.951 272.815 59.0198 272.528 59.1258 272.266L59.0181 272.255C58.921 272.513 58.8257 272.77 58.7233 273.044C58.6121 273.316 58.4832 273.602 58.3455 273.926C58.5891 273.674 58.7409 273.389 58.8504 273.105V273.104ZM58.1866 271.536C58.0895 271.803 57.9819 272.066 57.8777 272.328L57.7171 272.721L57.5335 273.105C57.0586 274.136 56.4425 275.101 55.747 276.015C55.8512 276.055 55.9182 276.08 56.0171 276.116C56.1354 275.954 56.2377 275.784 56.3455 275.614C56.4531 275.443 56.5608 275.27 56.672 275.094C56.7867 274.92 56.8839 274.734 56.9915 274.546C57.0975 274.359 57.2051 274.166 57.3164 273.969C57.3181 274.091 57.3199 274.188 57.3216 274.289C57.4417 274.247 57.5512 274.171 57.6535 274.072C57.7542 273.971 57.8353 273.842 57.9165 273.7C57.996 273.557 58.0684 273.399 58.1372 273.236C58.206 273.072 58.2731 272.905 58.3261 272.735C58.9104 271.047 59.3111 269.307 59.5247 267.292C59.4877 267.492 59.4541 267.678 59.4223 267.854C59.4065 267.941 59.3923 268.028 59.3747 268.109C59.3552 268.193 59.3358 268.273 59.3182 268.353C59.2441 268.671 59.1735 268.97 59.0975 269.293C59.0781 269.09 59.0693 268.984 59.0481 268.765C59.0128 268.972 58.9881 269.173 58.9457 269.366C58.9051 269.559 58.8645 269.747 58.8239 269.931C58.785 270.115 58.7462 270.296 58.7074 270.475C58.6597 270.653 58.6138 270.826 58.5661 271.002L58.4885 271.023L58.5927 270.461L58.6685 269.896C58.5485 270.456 58.3596 270.995 58.1884 271.536H58.1866ZM58.3614 261.664L58.3826 261.848L58.3931 262.034L58.4161 262.406C58.4285 262.655 58.4532 262.901 58.4585 263.15L58.4655 263.896L58.4708 264.269L58.4549 264.643L58.4267 265.389C58.4144 265.637 58.3843 265.884 58.3649 266.133L58.3314 266.505L58.3155 266.691L58.289 266.875C58.2625 267.058 58.3067 267.247 58.3402 267.637C58.5326 266.331 58.7215 265.022 58.7427 263.697C58.7427 263.658 58.7921 263.621 58.8592 263.52C58.9881 264.92 58.9175 266.336 58.6792 267.722C58.4461 269.109 58.0701 270.465 57.6164 271.788C57.6712 271.669 57.7259 271.551 57.7789 271.431L57.9201 271.066L58.1972 270.331L58.4267 269.578L58.5397 269.201C58.5732 269.074 58.6015 268.946 58.6333 268.819L58.8133 268.049C58.8663 267.79 58.9069 267.53 58.9528 267.27C59.0569 266.752 59.1011 266.223 59.1717 265.698V266.571V266.79L59.161 267.007L59.1381 267.445C59.2105 267.2 59.3023 266.978 59.387 266.757C59.4664 266.536 59.5495 266.321 59.6253 266.098C59.6624 265.987 59.6995 265.872 59.7313 265.756C59.7471 265.697 59.7648 265.637 59.7772 265.577C59.7877 265.516 59.7984 265.453 59.8072 265.391C59.8442 265.137 59.8601 264.864 59.846 264.558C59.9237 264.692 59.959 264.753 60.0384 264.89C60.0525 264.687 60.0649 264.488 60.079 264.294C60.0826 264.097 60.0861 263.904 60.0896 263.715C60.0931 263.524 60.0967 263.336 60.1002 263.148C60.1073 262.96 60.0914 262.774 60.0861 262.587C60.042 261.064 59.8672 259.541 59.5282 258.051C59.4682 257.787 59.4294 257.455 59.1964 257.347C58.9881 257.252 58.8663 256.805 59.0039 256.612C59.1381 256.431 58.9704 256.012 58.9316 255.992C58.5397 255.764 58.5132 255.011 58.2184 254.594C58.1513 254.62 58.0701 254.651 57.9289 254.705C57.3075 253.2 56.5449 251.776 55.657 250.445C56.5096 252.101 57.1327 253.803 57.7383 255.651C57.7665 255.734 57.7824 255.818 57.7982 255.925C57.8106 256.035 57.8195 256.169 57.8424 256.353C57.5317 255.545 57.2316 254.763 56.9068 254.02C56.8309 253.833 56.7408 253.652 56.6508 253.474C56.5608 253.297 56.4708 253.12 56.3807 252.948C56.2925 252.772 56.1883 252.609 56.0842 252.447C55.98 252.285 55.8723 252.127 55.7629 251.973C55.7788 252.068 55.7947 252.159 55.8088 252.251C55.86 252.372 55.9129 252.494 55.9712 252.616C56.0277 252.737 56.0912 252.857 56.1424 252.984C56.2554 253.233 56.3684 253.485 56.4831 253.737C56.5431 253.862 56.5926 253.991 56.6402 254.119C56.6879 254.248 56.7338 254.378 56.7779 254.507C56.8627 254.766 56.9421 255.022 56.9774 255.286C57.0056 255.472 57.1257 255.705 57.2051 255.917C57.2316 255.988 57.2581 256.058 57.2828 256.129L57.3499 256.344L57.484 256.777L57.6218 257.208C57.6623 257.353 57.7029 257.497 57.7453 257.641C57.8177 257.895 57.8724 258.177 57.9324 258.443C57.9889 258.709 58.0719 258.954 58.2396 259.134C58.2467 259.275 58.2607 259.414 58.2625 259.555L58.2678 259.977L58.2731 260.398C58.2731 260.537 58.2802 260.676 58.2714 260.817C58.2714 260.852 58.2784 260.892 58.282 260.928L58.3667 261.669L58.3614 261.664ZM54.9067 253.327C54.9826 253.469 55.0391 253.614 55.1027 253.747C55.1645 253.883 55.2245 254.013 55.2827 254.145C55.341 254.278 55.4063 254.408 55.4575 254.549C55.3357 254.408 55.2615 254.342 55.1203 254.196C55.1662 254.279 55.2121 254.361 55.2563 254.443C55.3004 254.524 55.3374 254.606 55.3763 254.686C55.4557 254.848 55.5316 255.004 55.6058 255.157C55.7647 255.461 55.8812 255.767 56.0135 256.07L55.9624 256.127C55.7947 255.821 55.6446 255.513 55.4593 255.22C55.5122 255.338 55.5705 255.454 55.6164 255.574L55.754 255.936L55.89 256.297C55.9341 256.419 55.9818 256.537 56.0153 256.663L56.2324 257.401L56.2854 257.586L56.326 257.773L56.4054 258.149C56.5237 258.648 56.5767 259.159 56.6402 259.668C56.665 259.924 56.672 260.183 56.6861 260.438C56.6914 260.567 56.6967 260.695 56.702 260.824C56.702 260.953 56.6967 261.083 56.6932 261.213C56.8009 261.184 56.8697 261.167 56.9704 261.139L56.9597 260.868C56.9562 260.777 56.9438 260.687 56.9368 260.596C56.9209 260.416 56.9033 260.231 56.8856 260.045C56.8768 259.951 56.8697 259.858 56.8609 259.764C56.8521 259.668 56.8344 259.574 56.8221 259.479C56.7938 259.286 56.7656 259.089 56.7373 258.888C56.8114 258.973 56.8715 259.042 56.9333 259.114C57.0056 259.016 57.048 258.901 57.0692 258.775C57.0904 258.648 57.0921 258.507 57.0692 258.361C57.0251 258.069 56.9262 257.749 56.8327 257.443C56.3172 255.908 55.634 254.434 54.6684 252.864C54.7531 253.029 54.8326 253.181 54.9067 253.325V253.327ZM49.2278 245.44C49.0301 245.275 48.82 245.124 48.6187 244.964L48.3133 244.727C48.2127 244.647 48.1033 244.578 47.9974 244.503L47.3619 244.06C47.1465 243.917 46.9241 243.783 46.7052 243.646L46.3768 243.439C46.2656 243.373 46.1509 243.312 46.0379 243.248L45.36 242.867L44.6627 242.523L44.3132 242.351L43.9548 242.196L44.3309 242.387L44.6998 242.593C44.9452 242.73 45.1976 242.85 45.443 242.985C46.7793 243.686 48.0468 244.51 49.2278 245.443V245.44ZM40.5037 241.793C40.8303 241.892 41.1463 242.022 41.4658 242.139C41.6247 242.2 41.7853 242.255 41.9442 242.32L42.4137 242.521C42.5126 242.563 42.6468 242.631 42.7139 242.631C42.8092 242.631 42.9045 242.633 42.9981 242.646C43.0916 242.66 43.1852 242.681 43.2788 242.706C43.4676 242.752 43.6548 242.817 43.8454 242.886C44.036 242.952 44.2197 243.045 44.4085 243.13C44.5957 243.215 44.7845 243.3 44.977 243.375C44.7916 243.284 44.608 243.191 44.4244 243.095C44.2408 242.999 44.0608 242.897 43.8719 242.812C43.6848 242.721 43.4959 242.631 43.307 242.54C43.2117 242.495 43.1181 242.448 43.021 242.405C42.9239 242.365 42.8251 242.325 42.728 242.285C42.532 242.205 42.3343 242.125 42.1331 242.048C42.0342 242.008 41.9301 241.974 41.8277 241.944C41.7235 241.913 41.6194 241.882 41.5152 241.85C41.3052 241.789 41.0933 241.73 40.8779 241.678C40.659 241.636 40.4366 241.598 40.2107 241.567C40.3572 241.683 40.4137 241.763 40.5037 241.795V241.793ZM37.185 241.164C37.3509 241.174 37.4639 241.106 37.6934 240.999C37.478 240.969 37.2767 240.967 37.0649 240.953C36.8531 240.941 36.6289 240.927 36.3641 240.912C36.8054 241.075 37.0208 241.155 37.1867 241.165L37.185 241.164Z" fill="white"/>
<g clip-path="url(#clip0_61_1141)">
<mask id="mask0_61_1141" style="mask-type:luminance" maskUnits="userSpaceOnUse" x="43" y="221" width="68" height="68">
<path d="M111 221H43V289H111V221Z" fill="white"/>
</mask>
<g mask="url(#mask0_61_1141)">
<path d="M43 255C43 273.778 58.2223 289 77 289C95.7777 289 111 273.778 111 255C111 236.222 95.7777 221 77 221C58.2223 221 43 236.222 43 255Z" fill="#0C0F18"/>
<g filter="url(#filter0_d_61_1141)">
<path d="M77 221.797L100.478 231.522L110.203 255L100.478 278.478L77 288.203L53.5219 278.478L43.7969 255L53.5219 231.522L77 221.797Z" fill="url(#paint0_radial_61_1141)" fill-opacity="0.4"/>
</g>
<path d="M77 228.438L95.7825 236.217L103.562 255L95.7825 273.783L77 281.562L58.2175 273.783L50.4375 255L58.2175 236.217L77 228.438Z" fill="#0321BE"/>
<path opacity="0.7" d="M77 235.078L91.0869 240.913L96.9219 255L91.0869 269.087L77 274.922L62.9131 269.087L57.0781 255L62.9131 240.913L77 235.078Z" fill="#405EFF"/>
</g>
</g>
<g clip-path="url(#clip1_61_1141)">
<mask id="mask1_61_1141" style="mask-type:luminance" maskUnits="userSpaceOnUse" x="86" y="221" width="68" height="68">
<path d="M154 221H86V289H154V221Z" fill="white"/>
</mask>
<g mask="url(#mask1_61_1141)">
<path d="M120 289C138.778 289 154 273.778 154 255C154 236.223 138.778 221 120 221C101.222 221 86 236.223 86 255C86 273.778 101.222 289 120 289Z" fill="#FFCD00"/>
<path d="M128.592 265.497V257.501L127.376 257.636L122.6 258.222V266.194L128.592 265.497Z" fill="#000A23"/>
<path d="M99.5603 271.924L99.6268 253.397L100.607 254.188L106.883 259.478L106.818 277.795L99.5603 271.924Z" fill="#000A23"/>
<path d="M141.701 256.084C141.701 256.084 141.699 256.085 141.698 256.086L132.343 257.11L130.52 257.295L130.401 257.306V267.111L120.79 268.223V258.443L108.692 259.919L108.625 278.669L143.583 274.769L143.65 255.875L141.701 256.084Z" fill="#000A23"/>
<path d="M135.574 246.441C134.724 242.936 134.412 238.964 134.695 235.708L139.625 235.159L135.574 246.441Z" fill="#000A23"/>
<path d="M102.846 233.664L136.902 229.873C137.185 229.842 137.494 230.039 137.705 230.213C138.12 230.552 138.883 231.38 139.702 233.338L104.801 237.22C104.218 235.722 103.555 234.519 102.844 233.666L102.846 233.664Z" fill="#000A23"/>
<path d="M127.969 247.128L128.089 247.749L126.648 244.975L123.191 244.608L121.773 246.983L118.907 247.049L115.691 244.327L112.354 244.233L107.643 248.619L105.076 251.624L102.768 244.847L104.857 239.036L132.881 235.914C132.598 239.864 133.091 244.656 134.282 248.577H134.02L132.986 245.744L128.52 246.441L127.969 247.128Z" fill="#000A23"/>
<path d="M103.237 238.196C102.309 235.679 101.405 234.677 100.939 234.301C100.593 234.02 100.291 233.914 100.044 233.983C99.5914 234.11 99.0838 234.825 98.7004 235.892C97.4691 239.323 97.5697 245.422 98.8053 250.536L103.237 238.196Z" fill="#000A23"/>
<path d="M105.076 251.621L104.542 251.837L104.439 251.902L100.062 252.39L102.768 244.847L104.14 249.25C104.159 249.302 104.527 250.359 105.076 251.624L105.076 251.621Z" fill="#000A23"/>
<path d="M126.793 260.548C126.79 260.748 126.741 260.944 126.649 261.121C126.556 261.299 126.425 261.452 126.264 261.57L126.496 263.995L124.808 264.167L125.205 261.685C125.043 261.598 124.91 261.466 124.822 261.305C124.733 261.143 124.695 260.96 124.709 260.776C124.727 260.475 124.845 260.189 125.043 259.963C125.242 259.736 125.511 259.583 125.807 259.526C125.807 259.526 125.79 259.536 125.794 259.536C126.385 259.468 126.894 259.923 126.794 260.539L126.793 260.548Z" fill="#FFCD00"/>
<path d="M102.423 246.364C106.71 246.364 109.051 247.868 109.051 251.059C109.051 252.901 108.104 254.172 106.657 254.872C108.525 255.546 109.629 256.895 109.629 259.126C109.629 261.902 107.788 264.262 103.002 264.262H96.3479V246.364H102.423L102.423 246.364ZM100.03 253.445H102.476C104.501 253.445 105.369 252.667 105.369 251.396C105.369 250.125 104.738 249.424 102.081 249.424H100.03V253.445L100.03 253.445ZM100.03 261.201H102.687C104.896 261.201 105.948 260.371 105.948 258.841C105.948 257.155 104.817 256.506 102.345 256.506H100.03V261.201Z" stroke="#000A23" stroke-width="2.52026" stroke-linejoin="round"/>
<path d="M102.423 246.364C106.71 246.364 109.051 247.868 109.051 251.059C109.051 252.901 108.104 254.172 106.657 254.872C108.525 255.546 109.629 256.895 109.629 259.126C109.629 261.902 107.788 264.262 103.002 264.262H96.3479V246.364H102.423L102.423 246.364ZM100.03 253.445H102.476C104.501 253.445 105.369 252.667 105.369 251.396C105.369 250.125 104.738 249.424 102.081 249.424H100.03V253.445L100.03 253.445ZM100.03 261.201H102.687C104.896 261.201 105.948 260.371 105.948 258.841C105.948 257.155 104.817 256.506 102.345 256.506H100.03V261.201Z" stroke="#000A23" stroke-width="2.52026" stroke-linejoin="round"/>
<path d="M126.934 254.95V256.584C126.934 262.057 124.357 264.496 120.254 264.496C116.151 264.496 113.311 262.057 113.311 256.584V254.302C113.311 248.517 116.178 246.131 120.254 246.131C124.067 246.131 126.356 248.258 126.908 251.915H123.384C123.068 250.281 122.095 249.192 120.254 249.192C118.124 249.192 116.993 250.618 116.993 254.042V256.584C116.993 260.008 118.124 261.435 120.254 261.435C122.385 261.435 123.174 260.164 123.384 258.011H120.333V254.95H126.934H126.934Z" stroke="#000A23" stroke-width="2.52026" stroke-linejoin="round"/>
<path d="M126.934 254.95V256.584C126.934 262.057 124.357 264.496 120.254 264.496C116.151 264.496 113.311 262.057 113.311 256.584V254.302C113.311 248.517 116.178 246.131 120.254 246.131C124.067 246.131 126.356 248.258 126.908 251.915H123.384C123.068 250.281 122.095 249.192 120.254 249.192C118.124 249.192 116.993 250.618 116.993 254.042V256.584C116.993 260.008 118.124 261.435 120.254 261.435C122.385 261.435 123.174 260.164 123.384 258.011H120.333V254.95H126.934H126.934Z" stroke="#000A23" stroke-width="2.52026" stroke-linejoin="round"/>
<path d="M143.029 246.364V249.451H138.033V264.262H134.351V249.451H129.354V246.364H143.03H143.029Z" stroke="#000A23" stroke-width="2.52026" stroke-linejoin="round"/>
<path d="M143.029 246.364V249.451H138.033V264.262H134.351V249.451H129.354V246.364H143.03H143.029Z" stroke="#000A23" stroke-width="2.52026" stroke-linejoin="round"/>
<path d="M102.423 246.364C106.71 246.364 109.051 247.868 109.051 251.059C109.051 252.901 108.104 254.172 106.657 254.872C108.525 255.546 109.629 256.895 109.629 259.126C109.629 261.902 107.788 264.262 103.002 264.262H96.3479V246.364H102.423L102.423 246.364ZM100.03 253.445H102.476C104.501 253.445 105.369 252.667 105.369 251.396C105.369 250.125 104.738 249.424 102.081 249.424H100.03V253.445L100.03 253.445ZM100.03 261.201H102.687C104.896 261.201 105.948 260.371 105.948 258.841C105.948 257.155 104.817 256.506 102.345 256.506H100.03V261.201Z" fill="white"/>
<path d="M102.423 246.364C106.71 246.364 109.051 247.868 109.051 251.059C109.051 252.901 108.104 254.172 106.657 254.872C108.525 255.546 109.629 256.895 109.629 259.126C109.629 261.902 107.788 264.262 103.002 264.262H96.3479V246.364H102.423L102.423 246.364ZM100.03 253.445H102.476C104.501 253.445 105.369 252.667 105.369 251.396C105.369 250.125 104.738 249.424 102.081 249.424H100.03V253.445L100.03 253.445ZM100.03 261.201H102.687C104.896 261.201 105.948 260.371 105.948 258.841C105.948 257.155 104.817 256.506 102.345 256.506H100.03V261.201Z" fill="white"/>
<path d="M126.934 254.95V256.584C126.934 262.057 124.357 264.496 120.254 264.496C116.151 264.496 113.311 262.057 113.311 256.584V254.302C113.311 248.517 116.178 246.131 120.254 246.131C124.067 246.131 126.356 248.258 126.908 251.915H123.384C123.068 250.281 122.095 249.192 120.254 249.192C118.124 249.192 116.993 250.618 116.993 254.042V256.584C116.993 260.008 118.124 261.435 120.254 261.435C122.385 261.435 123.174 260.164 123.384 258.011H120.333V254.95H126.934H126.934Z" fill="white"/>
<path d="M126.934 254.95V256.584C126.934 262.057 124.357 264.496 120.254 264.496C116.151 264.496 113.311 262.057 113.311 256.584V254.302C113.311 248.517 116.178 246.131 120.254 246.131C124.067 246.131 126.356 248.258 126.908 251.915H123.384C123.068 250.281 122.095 249.192 120.254 249.192C118.124 249.192 116.993 250.618 116.993 254.042V256.584C116.993 260.008 118.124 261.435 120.254 261.435C122.385 261.435 123.174 260.164 123.384 258.011H120.333V254.95H126.934H126.934Z" fill="white"/>
<path d="M143.029 246.364V249.451H138.033V264.262H134.351V249.451H129.354V246.364H143.03H143.029Z" fill="white"/>
<path d="M143.029 246.364V249.451H138.033V264.262H134.351V249.451H129.354V246.364H143.03H143.029Z" fill="white"/>
</g>
</g>
<g clip-path="url(#clip2_61_1141)">
<path d="M163.025 297.797C181.743 297.797 196.918 282.68 196.918 264.031C196.918 245.383 181.743 230.266 163.025 230.266C144.307 230.266 129.133 245.383 129.133 264.031C129.133 282.68 144.307 297.797 163.025 297.797Z" fill="#F21414"/>
<mask id="mask2_61_1141" style="mask-type:luminance" maskUnits="userSpaceOnUse" x="129" y="230" width="68" height="68">
<path d="M163.025 297.797C181.743 297.797 196.918 282.68 196.918 264.031C196.918 245.383 181.743 230.266 163.025 230.266C144.307 230.266 129.133 245.383 129.133 264.031C129.133 282.68 144.307 297.797 163.025 297.797Z" fill="white"/>
</mask>
<g mask="url(#mask2_61_1141)">
<path d="M187.489 255.132C186.922 252.101 185.274 249.06 182.839 246.539C182.139 243.706 181.106 240.836 179.767 238.009C175.7 229.413 169.223 224.27 164.504 221.469C164.356 221.382 164.186 221.334 164.011 221.334C164.003 221.334 163.993 221.334 163.985 221.334L163.158 221.356C162.728 221.366 162.358 221.662 162.251 222.079C162.145 222.496 162.334 222.929 162.707 223.143C167.342 225.783 173.694 230.68 177.634 239.009C178.395 240.617 179.052 242.241 179.6 243.862C177.626 242.6 175.588 241.924 173.678 241.924C173.386 241.924 173.098 241.94 172.817 241.971C171.722 242.096 169.918 242.587 168.134 243.59C166.033 244.772 164.536 246.354 163.799 248.165C163.669 248.484 163.563 248.809 163.468 249.126C163.354 248.862 163.235 248.595 163.102 248.331C162.305 246.731 161.017 245.258 159.384 244.073C157.755 242.89 155.939 242.109 154.135 241.816C153.613 241.731 153.083 241.689 152.553 241.689C150.56 241.689 148.543 242.286 146.561 243.463C144.971 244.408 143.752 245.52 143.008 246.288C139.64 249.759 137.891 254.918 138.445 259.749C139.369 267.825 146.413 273.799 152.627 279.069C156.287 282.173 159.745 285.107 161.083 287.844L161.125 287.929C161.883 289.494 162.76 290.944 164.038 290.944C164.133 290.944 164.228 290.936 164.324 290.917C165.034 290.79 165.553 290.241 165.866 289.291C166.078 288.647 166.176 287.886 166.24 287.298L166.25 287.203C166.574 284.33 169.759 280.634 173.135 276.725C176.399 272.941 180.099 268.651 182.031 264.126C183.62 260.409 184.193 256.235 183.742 251.676C184.445 252.949 184.935 254.266 185.176 255.56C185.486 257.215 185.409 258.875 184.945 260.636C184.524 262.233 183.79 263.876 182.701 265.66C180.639 269.039 177.616 272.371 174.693 275.595C171.945 278.625 169.29 283.031 167.591 287.377C166.494 290.189 164.859 295.437 166.25 299.006C166.343 299.244 166.526 299.434 166.759 299.537C166.884 299.59 167.013 299.619 167.146 299.619C167.262 299.619 167.382 299.598 167.493 299.552L167.898 299.394C168.394 299.204 168.638 298.647 168.447 298.156C167.644 296.097 168.142 292.464 169.817 288.193C171.425 284.088 173.901 279.966 176.442 277.165C179.415 273.889 182.486 270.499 184.683 266.901C187.264 262.672 188.184 258.82 187.492 255.127L187.489 255.132ZM163.611 251.652C163.611 251.652 163.619 251.652 163.621 251.652C163.619 251.652 163.614 251.652 163.611 251.652C163.606 251.652 163.6 251.652 163.595 251.652C163.579 251.652 163.563 251.65 163.547 251.647C163.569 251.647 163.587 251.652 163.611 251.652ZM164.038 289.988C164.038 289.988 164.024 289.988 164.019 289.988C164.03 289.988 164.04 289.988 164.051 289.988C164.045 289.988 164.043 289.988 164.038 289.988ZM171.341 275.196C167.724 279.391 164.308 283.354 163.902 286.949L163.892 287.052C163.855 287.398 163.815 287.678 163.775 287.905C163.629 287.657 163.455 287.335 163.251 286.91L163.205 286.82C161.65 283.636 158.009 280.55 154.159 277.282C148.276 272.292 141.611 266.64 140.79 259.485C140.313 255.333 141.815 250.903 144.706 247.922C145.806 246.787 148.753 244.139 152.354 244.041C152.423 244.041 152.489 244.039 152.558 244.039C152.961 244.039 153.364 244.07 153.759 244.136C155.184 244.369 156.689 245.018 158.001 245.971C159.307 246.919 160.373 248.131 160.995 249.382C161.133 249.656 161.266 249.965 161.393 250.266L161.398 250.277C161.615 250.784 161.82 251.262 162.071 251.65C162.485 252.289 162.999 252.613 163.595 252.613C163.608 252.613 163.621 252.613 163.637 252.613C163.659 252.613 163.677 252.613 163.696 252.611C164.114 252.584 164.703 252.381 165.121 251.563C165.323 251.169 165.463 250.689 165.614 250.177V250.171C165.728 249.788 165.845 249.393 165.983 249.052C166.664 247.376 168.166 246.261 169.308 245.625C170.774 244.804 172.258 244.403 173.084 244.311C173.275 244.289 173.474 244.279 173.673 244.279C175.838 244.279 178.448 245.57 180.7 247.743C182.036 253.572 181.75 258.775 179.852 263.216C178.061 267.405 174.489 271.547 171.335 275.204L171.341 275.196Z" fill="white"/>
</g>
</g>
<path d="M77.8787 199.121C79.0503 200.293 80.9497 200.293 82.1213 199.121L101.213 180.029C102.385 178.858 102.385 176.958 101.213 175.787C100.042 174.615 98.1421 174.615 96.9706 175.787L80 192.757L63.0294 175.787C61.8579 174.615 59.9584 174.615 58.7868 175.787C57.6152 176.958 57.6152 178.858 58.7868 180.029L77.8787 199.121ZM77 142L77 197L83 197L83 142L77 142Z" fill="black"/>
<path d="M112.879 139.879C114.05 138.707 115.95 138.707 117.121 139.879L136.213 158.971C137.385 160.142 137.385 162.042 136.213 163.213C135.042 164.385 133.142 164.385 131.971 163.213L115 146.243L98.0294 163.213C96.8579 164.385 94.9584 164.385 93.7868 163.213C92.6152 162.042 92.6152 160.142 93.7868 158.971L112.879 139.879ZM112 197L112 142L118 142L118 197L112 197Z" fill="black"/>
<defs>
<filter id="filter0_d_61_1141" x="-56.2031" y="121.797" width="266.406" height="266.406" filterUnits="userSpaceOnUse" color-interpolation-filters="sRGB">
<feFlood flood-opacity="0" result="BackgroundImageFix"/>
<feColorMatrix in="SourceAlpha" type="matrix" values="0 0 0 0 0 0 0 0 0 0 0 0 0 0 0 0 0 0 127 0" result="hardAlpha"/>
<feOffset/>
<feGaussianBlur stdDeviation="50"/>
<feComposite in2="hardAlpha" operator="out"/>
<feColorMatrix type="matrix" values="0 0 0 0 0.53766 0 0 0 0 0.810165 0 0 0 0 0.926953 0 0 0 0.2 0"/>
<feBlend mode="normal" in2="BackgroundImageFix" result="effect1_dropShadow_61_1141"/>
<feBlend mode="normal" in="SourceGraphic" in2="effect1_dropShadow_61_1141" result="shape"/>
</filter>
<radialGradient id="paint0_radial_61_1141" cx="0" cy="0" r="1" gradientUnits="userSpaceOnUse" gradientTransform="translate(76.9014 255.047) rotate(90) scale(38.6687 83.6885)">
<stop stop-color="#07155B"/>
<stop offset="1" stop-color="#1938E0"/>
</radialGradient>
<clipPath id="clip0_61_1141">
<rect width="68" height="68" fill="white" transform="translate(43 221)"/>
</clipPath>
<clipPath id="clip1_61_1141">
<rect width="68" height="68" fill="white" transform="translate(86 221)"/>
</clipPath>
<clipPath id="clip2_61_1141">
<rect width="68" height="68" fill="white" transform="translate(129 230)"/>
</clipPath>
</defs>
</svg>
