<?xml version="1.0" encoding="UTF-8"?><svg id="a" xmlns="http://www.w3.org/2000/svg" width="267" height="80" viewBox="0 0 267 80"><polygon points="116.48 6.674 119.135 6.674 119.135 9.297 121.564 9.297 121.564 6.674 124.219 6.674 124.219 14.618 121.564 14.618 121.564 11.958 119.135 11.958 119.135 14.618 116.48 14.618 116.48 6.674 116.48 6.674"/><polygon points="127.71 9.308 125.373 9.308 125.373 6.674 132.704 6.674 132.704 9.308 130.365 9.308 130.365 14.618 127.71 14.618 127.71 9.308 127.71 9.308"/><polygon points="133.867 6.674 136.635 6.674 138.338 9.465 140.039 6.674 142.809 6.674 142.809 14.618 140.165 14.618 140.165 10.681 138.338 13.505 138.292 13.505 136.464 10.681 136.464 14.618 133.867 14.618 133.867 6.674 133.867 6.674"/><polygon points="144.13 6.674 146.786 6.674 146.786 11.992 150.519 11.992 150.519 14.618 144.13 14.618 144.13 6.674 144.13 6.674"/><polygon points="133.471 73.326 114.188 67.973 109.892 19.776 157.108 19.776 152.807 67.965 133.471 73.326"/><polygon points="149.124 64.896 152.8 23.716 133.5 23.716 133.5 69.228 149.124 64.896"/><polygon points="133.518 35.539 147.775 35.539 148.305 29.627 133.518 29.627 133.497 29.627 118.695 29.627 120.29 47.503 133.497 47.503 133.518 47.503 140.777 47.503 140.09 55.169 133.497 56.949 133.497 56.949 133.492 56.951 126.909 55.173 126.488 50.458 120.554 50.458 121.382 59.739 133.49 63.101 133.518 63.094 133.518 63.092 145.615 59.739 147.238 41.592 133.518 41.592 133.497 41.592 125.696 41.592 125.156 35.539 133.497 35.539 133.518 35.539" style="fill:#fff;"/></svg>