<svg width="64" height="64" viewBox="0 0 64 64" fill="none" xmlns="http://www.w3.org/2000/svg">
<path d="M62.9205 31.9736C62.9205 48.8141 49.261 62.4736 32.4205 62.4736C15.58 62.4736 1.9375 48.8141 1.9375 31.9736C1.9375 15.1331 15.597 1.47363 32.4375 1.47363C49.278 1.47363 62.9375 15.1331 62.9375 31.9736H62.9205Z" fill="#FFB601" stroke="#231815" stroke-width="2" stroke-miterlimit="10"/>
<path d="M31.9642 49.8026C28.2402 49.8026 25.4472 48.3163 23.5852 45.3436C23.0625 44.4943 22.9318 43.743 23.1932 43.0896C23.4545 42.4363 23.9608 41.9953 24.7122 41.7666C25.5288 41.5053 26.1985 41.5053 26.7212 41.7666C27.2438 42.028 27.8155 42.4853 28.4362 43.1386C28.7955 43.6286 29.2528 44.037 29.8082 44.3636C30.3962 44.6576 31.0822 44.8046 31.8662 44.8046C33.5322 44.8046 34.8552 44.3963 35.8352 43.5796C36.8152 42.763 37.3052 41.391 37.3052 39.4636C37.3052 37.7323 36.8152 36.344 35.8352 35.2986C34.8552 34.2533 33.4505 33.7306 31.6212 33.7306C29.9878 33.7306 29.1712 32.9303 29.1712 31.3296C29.1712 29.729 29.9878 28.9286 31.6212 28.9286C33.2545 28.9286 34.4632 28.455 35.2472 27.5076C36.0312 26.5276 36.4232 25.3353 36.4232 23.9306C36.4232 22.2973 35.9495 21.154 35.0022 20.5006C34.0875 19.8146 33.0422 19.4716 31.8662 19.4716C31.2128 19.4716 30.6248 19.635 30.1022 19.9616C29.6122 20.2883 29.1875 20.6803 28.8282 21.1376C28.2075 21.791 27.6195 22.2483 27.0642 22.5096C26.5415 22.771 25.8882 22.7383 25.1042 22.4116C24.3528 22.1176 23.8628 21.644 23.6342 20.9906C23.4055 20.3046 23.5852 19.5696 24.1732 18.7856C25.1205 17.381 26.2638 16.3193 27.6032 15.6006C28.9752 14.8493 30.4288 14.4736 31.9642 14.4736C33.9568 14.4736 35.6882 14.8656 37.1582 15.6496C38.6608 16.401 39.8205 17.4626 40.6372 18.8346C41.4865 20.2066 41.9112 21.8236 41.9112 23.6856C41.9112 25.3843 41.4538 26.9196 40.5392 28.2916C39.6572 29.631 38.5302 30.611 37.1582 31.2316C38.7915 31.8523 40.1145 32.914 41.1272 34.4166C42.1725 35.9193 42.6952 37.667 42.6952 39.6596C42.6952 42.763 41.7478 45.2293 39.8532 47.0586C37.9912 48.888 35.3615 49.8026 31.9642 49.8026Z" fill="black"/>
</svg>
