<svg width="63" height="63" viewBox="0 0 63 63" fill="none" xmlns="http://www.w3.org/2000/svg">
<path d="M61.983 31.5C61.983 48.3405 48.3235 62 31.483 62C14.6425 62 1 48.3405 1 31.5C1 14.6595 14.6595 1 31.5 1C48.3405 1 62 14.6595 62 31.5H61.983Z" fill="#FFB601" stroke="#231815" stroke-width="2" stroke-miterlimit="10"/>
<path d="M25.772 46.6522C23.924 46.6522 23 46.1482 23 45.1402C23 43.8242 23.21 42.5362 23.63 41.2762C24.05 39.9882 24.75 38.6582 25.73 37.2862C26.738 35.9142 28.096 34.4162 29.804 32.7922C30.644 31.9802 31.442 31.1682 32.198 30.3562C32.954 29.5442 33.57 28.7462 34.046 27.9622C34.522 27.1502 34.774 26.3942 34.802 25.6942C34.83 24.3782 34.536 23.3982 33.92 22.7542C33.332 22.1102 32.464 21.7882 31.316 21.7882C29.888 21.7882 28.936 22.4742 28.46 23.8462C28.18 24.6862 27.844 25.3302 27.452 25.7782C27.06 26.2262 26.458 26.4502 25.646 26.4502C24.862 26.4502 24.246 26.1982 23.798 25.6942C23.35 25.1622 23.224 24.4342 23.42 23.5102C23.896 21.4382 24.834 19.8422 26.234 18.7222C27.634 17.5742 29.328 17.0002 31.316 17.0002C32.94 17.0002 34.396 17.3502 35.684 18.0502C37 18.7222 38.022 19.7162 38.75 21.0322C39.506 22.3202 39.856 23.9162 39.8 25.8202C39.772 27.1642 39.464 28.3822 38.876 29.4742C38.316 30.5662 37.546 31.6442 36.566 32.7082C35.614 33.7442 34.508 34.8642 33.248 36.0682C32.044 37.2722 30.966 38.4062 30.014 39.4702C29.09 40.5342 28.544 41.4022 28.376 42.0742H36.44C38.288 42.0742 39.212 42.8302 39.212 44.3422C39.212 45.8822 38.288 46.6522 36.44 46.6522H25.772Z" fill="black"/>
</svg>
