<svg width="33" height="32" viewBox="0 0 33 32" fill="none" xmlns="http://www.w3.org/2000/svg">
<rect x="1.5" y="1" width="30" height="30" rx="5" stroke="#1B0220" stroke-width="2"/>
<path d="M16.2872 15.2005C15.485 14.3219 14.9608 13.2255 14.7807 12.0494H10.1001C9.79277 12.0698 9.48467 12.0242 9.1964 11.9158C8.90813 11.8074 8.64634 11.6387 8.42857 11.4209C8.2108 11.2031 8.04206 10.9413 7.93366 10.6531C7.82527 10.3648 7.77971 10.0567 7.80004 9.74938C7.80004 9.44438 7.67888 9.15187 7.46321 8.9362C7.24754 8.72053 6.95502 8.59937 6.65002 8.59937C6.34502 8.59937 6.0525 8.72053 5.83683 8.9362C5.62116 9.15187 5.5 9.44438 5.5 9.74938C5.51155 10.5475 5.70009 11.333 6.05201 12.0494C6.43997 12.8017 7.05035 13.4161 7.80004 13.809V26.9997H11.2501V21.2496H18.1502V26.9997H21.6003V17.65C19.5941 17.492 17.7102 16.6234 16.2872 15.2005Z" fill="#1B0220"/>
<path d="M27.3498 8.60008H25.0498L23.5892 7.13955C23.061 6.6108 22.347 6.30952 21.5997 6.30004H18.7247C18.5636 5.65464 18.195 5.08001 17.6756 4.66447C17.1561 4.24893 16.5146 4.01548 15.8496 4V11.3141C15.9087 12.4756 16.3679 13.5808 17.1491 14.4422C18.4355 15.6788 20.118 16.4203 21.8987 16.5352L25.8663 14.9482C26.3318 14.7613 26.751 14.4752 27.0946 14.1097C27.4382 13.7443 27.698 13.3083 27.8558 12.8321L28.4998 11.0726C28.5173 10.9544 28.5173 10.8343 28.4998 10.7161V9.7501C28.4998 9.44509 28.3787 9.15258 28.163 8.93691C27.9473 8.72124 27.6548 8.60008 27.3498 8.60008ZM21.5997 10.9001C21.3723 10.9001 21.1499 10.8327 20.9608 10.7063C20.7717 10.5799 20.6243 10.4003 20.5372 10.1902C20.4502 9.98005 20.4274 9.74882 20.4718 9.52574C20.5162 9.30266 20.6257 9.09774 20.7865 8.93691C20.9474 8.77608 21.1523 8.66655 21.3753 8.62217C21.5984 8.5778 21.8297 8.60058 22.0398 8.68762C22.2499 8.77466 22.4295 8.92206 22.5559 9.11118C22.6823 9.3003 22.7497 9.52264 22.7497 9.7501C22.7497 10.0551 22.6286 10.3476 22.4129 10.5633C22.1972 10.779 21.9047 10.9001 21.5997 10.9001Z" fill="#1B0220"/>
</svg>
