<svg width="63" height="64" viewBox="0 0 63 64" fill="none" xmlns="http://www.w3.org/2000/svg">
<path d="M61.983 31.9736C61.983 48.8141 48.3235 62.4736 31.483 62.4736C14.6425 62.4736 1 48.8141 1 31.9736C1 15.1331 14.6595 1.47363 31.5 1.47363C48.3405 1.47363 62 15.1331 62 31.9736H61.983Z" fill="#FFB601" stroke="#231815" stroke-width="2" stroke-miterlimit="10"/>
<path d="M35.876 49.4206C34.2427 49.4206 33.426 48.457 33.426 46.5296V41.9236H22.94C20.98 41.9236 20 41.254 20 39.9146C20 39.1633 20.0817 38.51 20.245 37.9546C20.4083 37.3993 20.6533 36.8276 20.98 36.2396L32.348 16.9336C32.74 16.215 33.1973 15.7086 33.72 15.4146C34.2753 15.1206 34.9613 14.9736 35.778 14.9736C37.5093 14.9736 38.375 15.9373 38.375 17.8646V37.3176H40.286C42.2133 37.3176 43.177 38.0853 43.177 39.6206C43.177 41.156 42.4747 41.9236 41.07 41.9236H38.375V46.5296C38.375 48.457 37.542 49.4206 35.876 49.4206ZM25.243 37.3176H33.426V23.3036L25.243 37.3176Z" fill="black"/>
</svg>
