<svg width="63" height="63" viewBox="0 0 63 63" fill="none" xmlns="http://www.w3.org/2000/svg">
<path d="M61.983 31.5C61.983 48.3405 48.3235 62 31.483 62C14.6425 62 1 48.3405 1 31.5C1 14.6595 14.6595 1 31.5 1C48.3405 1 62 14.6595 62 31.5H61.983Z" fill="#FFB601" stroke="#231815" stroke-width="2" stroke-miterlimit="10"/>
<path d="M34.8888 46.8202C33.0968 46.8202 32.2008 45.8962 32.2008 44.0482V23.1322L29.0928 24.8122C27.4408 25.6802 26.2088 25.3162 25.3968 23.7202C24.5848 22.1242 25.0188 20.9202 26.6988 20.1082L31.6128 17.7562C32.2288 17.4482 32.7888 17.2522 33.2928 17.1682C33.8248 17.0562 34.4128 17.0002 35.0568 17.0002C36.7368 17.0002 37.5768 17.9242 37.5768 19.7722V44.0482C37.5768 45.8962 36.6808 46.8202 34.8888 46.8202Z" fill="black"/>
</svg>
