<svg width="33" height="32" viewBox="0 0 33 32" fill="none" xmlns="http://www.w3.org/2000/svg">
<path d="M0.5 5.53846C0.5 4.06957 1.08351 2.66084 2.12218 1.62218C3.16084 0.583515 4.56957 0 6.03846 0H26.9615C28.4304 0 29.8392 0.583515 30.8778 1.62218C31.9165 2.66084 32.5 4.06957 32.5 5.53846V26.4615C32.5 27.9304 31.9165 29.3392 30.8778 30.3778C29.8392 31.4165 28.4304 32 26.9615 32H6.03846C4.56957 32 3.16084 31.4165 2.12218 30.3778C1.08351 29.3392 0.5 27.9304 0.5 26.4615V5.53846ZM6.03846 2.46154C5.22241 2.46154 4.43978 2.78571 3.86275 3.36275C3.28571 3.93978 2.96154 4.72241 2.96154 5.53846V14.7692H30.0385V5.53846C30.0385 4.72241 29.7143 3.93978 29.1373 3.36275C28.5602 2.78571 27.7776 2.46154 26.9615 2.46154H6.03846ZM2.96154 20.7335L6.03846 17.2308H2.96154V20.7335ZM4.98985 22.1538H10.5209L12.0606 17.2308H9.31354L4.98985 22.1538ZM2.96154 24.6154V26.4615C2.96154 27.2776 3.28571 28.0602 3.86275 28.6373C4.43978 29.2143 5.22241 29.5385 6.03846 29.5385H8.21077L9.75046 24.6154H2.96154ZM12.3302 24.6154L10.7905 29.5385H22.2095L20.6711 24.6154H12.3302ZM23.2495 24.6154L24.7892 29.5385H26.9615C27.7776 29.5385 28.5602 29.2143 29.1373 28.6373C29.7143 28.0602 30.0385 27.2776 30.0385 26.4615V24.6154H23.2495ZM28.0102 22.1538L23.6865 17.2308H20.9394L22.4791 22.1538H28.0102ZM19.8994 22.1538L18.3609 17.2308H14.6403L13.1006 22.1538H19.8994ZM30.0385 20.7335V17.2308H26.9615L30.0385 20.7335Z" fill="#1B0220"/>
</svg>
