<svg width="54" height="48" viewBox="0 0 54 48" fill="none" xmlns="http://www.w3.org/2000/svg">
<path d="M34.9973 7.97251L14.6249 18.4095C14.0301 18.715 13.7928 19.4489 14.0955 20.0481C14.4003 20.6462 15.129 20.887 15.7249 20.5815L36.0973 10.1435C36.6942 9.83698 36.9315 9.10413 36.6278 8.50492C36.323 7.90464 35.5932 7.66601 34.9962 7.97251H34.9973Z" fill="#3E7976"/>
<path d="M32.8171 24.8473C33.1209 25.4455 33.8507 25.6841 34.4466 25.3776L43.21 20.8883C43.807 20.5818 44.0422 19.8489 43.7395 19.2497C43.4347 18.6515 42.7059 18.4129 42.11 18.7173L33.3466 23.2066C32.7517 23.5131 32.5144 24.246 32.8171 24.8473Z" fill="#3E7976"/>
<path d="M38.6968 13.3286L29.9334 17.819C29.3364 18.1245 29.0991 18.8584 29.4039 19.4565C29.7077 20.0568 30.4354 20.2954 31.0323 19.9889L39.7957 15.4996C40.3927 15.1941 40.63 14.4602 40.3262 13.861C40.0214 13.2629 39.2927 13.0242 38.6968 13.3286Z" fill="#3E7976"/>
<path d="M2.33832 27.5473C2.33832 27.5473 2.33641 27.5454 2.33545 27.5444L2.33832 27.5473Z" fill="#3E7976"/>
<path d="M53.0576 19.0896L53.0608 19.0927L42.3146 3.3402L42.3124 3.33808C41.9085 2.75477 41.4244 2.251 40.8939 1.82996C40.0976 1.1968 39.1979 0.742882 38.2698 0.444864C37.3385 0.146846 36.3777 0.000488281 35.4348 0.000488281C34.2188 0.00366997 33.0291 0.239115 31.9776 0.774699L31.9807 0.771517L5.87615 13.897C5.14947 14.2099 4.43228 14.5811 3.75834 15.0371C2.71525 15.7435 1.76393 16.6577 1.07838 17.836C0.737715 18.4246 0.465605 19.0758 0.281035 19.78C0.0964649 20.4842 0.000488281 21.2414 0.000488281 22.0432C0.000488281 22.1737 0.00365234 22.3062 0.00892578 22.4431V22.4409C0.0300195 23.0041 0.155527 23.5248 0.322168 24.0074C0.576348 24.7317 0.930723 25.384 1.29459 25.9811C1.6574 26.5729 2.03287 27.1042 2.33451 27.5433L13.2062 43.2014V43.1993C14.1523 44.6438 15.2977 45.838 16.6392 46.679C17.3153 47.1011 18.042 47.4341 18.8045 47.6579C19.5671 47.8817 20.3665 47.9994 21.186 47.9994C22.7153 47.9994 24.2994 47.5932 25.8772 46.7999L51.3596 33.9767C52.121 33.5959 52.429 32.6626 52.0483 31.8969C51.6675 31.1312 50.7415 30.8215 49.98 31.2044L24.4977 44.0255C23.2732 44.6406 22.1742 44.8973 21.1849 44.8983C20.6544 44.8983 20.1513 44.8241 19.6704 44.6809C18.9448 44.4667 18.2582 44.1008 17.6011 43.5652C16.9451 43.0296 16.3228 42.3275 15.7607 41.4621L15.748 41.442L4.87314 25.7817L4.87103 25.7796C4.45443 25.1751 3.98615 24.5069 3.64021 23.8738C3.46936 23.5577 3.32697 23.2501 3.23521 22.9818C3.13924 22.7114 3.09705 22.4834 3.08967 22.3211C3.0865 22.2267 3.08439 22.1334 3.08439 22.0432C3.08439 21.3029 3.19936 20.6857 3.39236 20.1512C3.6824 19.3505 4.15068 18.7099 4.78771 18.1425C5.42369 17.5793 6.23475 17.1052 7.13967 16.7234L7.18607 16.7033L33.3687 3.53959L33.375 3.5364C33.8876 3.27126 34.6312 3.09945 35.4348 3.10263C36.267 3.10051 37.1582 3.27975 37.9281 3.62655C38.3141 3.80048 38.6696 4.01472 38.9807 4.26289C39.2918 4.51 39.5587 4.78999 39.777 5.10604L50.52 20.8522L50.5232 20.8575C50.7816 21.2319 50.9166 21.6741 50.9166 22.1217C50.9166 22.302 50.8955 22.4844 50.8491 22.6637C50.694 23.2851 50.2785 23.8069 49.7121 24.0975H49.71L24.0463 37.2421C23.5453 37.4977 23.0148 37.6186 22.4854 37.6197C21.9369 37.6197 21.3896 37.485 20.9012 37.2337C20.4119 36.9812 19.9805 36.6122 19.6451 36.1264L10.2531 22.5279C9.76689 21.8258 8.80818 21.6498 8.10787 22.1387C7.40967 22.6276 7.23564 23.5938 7.7208 24.2959L17.1128 37.8944C17.7403 38.8022 18.5662 39.5139 19.4911 39.9911C20.4171 40.4705 21.4444 40.7208 22.4854 40.7208C23.5263 40.7208 24.5019 40.4885 25.4448 40.007L25.506 39.9742L51.1085 26.8614V26.8635C52.4701 26.1677 53.4668 24.911 53.8391 23.423C53.9467 22.9935 53.9994 22.5565 53.9994 22.1238C53.9994 21.0505 53.6767 19.99 53.0544 19.0917L53.0576 19.0896Z" fill="#3E7976"/>
<path d="M18.9204 26.3668L23.0295 32.3177L31.3721 28.0436L27.2619 22.0928L18.9204 26.3668Z" fill="#3E7976"/>
</svg>
