<svg width="31" height="31" viewBox="0 0 31 31" fill="none" xmlns="http://www.w3.org/2000/svg">
<path d="M10.375 28.6667C12.7912 28.6667 14.75 26.708 14.75 24.2917C14.75 21.8755 12.7912 19.9167 10.375 19.9167C7.95875 19.9167 6 21.8755 6 24.2917C6 26.708 7.95875 28.6667 10.375 28.6667Z" stroke="#2379E7" stroke-width="2" stroke-linecap="round" stroke-linejoin="round"/>
<path d="M21.625 17.4167C24.0412 17.4167 26 15.458 26 13.0417C26 10.6255 24.0412 8.66675 21.625 8.66675C19.2088 8.66675 17.25 10.6255 17.25 13.0417C17.25 15.458 19.2088 17.4167 21.625 17.4167Z" stroke="#2379E7" stroke-width="2" stroke-linecap="round" stroke-linejoin="round"/>
<path d="M7.33826 17.4188C7.59379 15.6513 8.38356 14.0041 9.60169 12.6982C10.8198 11.3922 12.4081 10.4898 14.1536 10.1121" stroke="#2379E7" stroke-width="2" stroke-linecap="round" stroke-linejoin="round"/>
<path d="M24.5457 20.5552C24.1624 22.3007 23.2608 23.8898 21.9589 25.1141C20.6571 26.3385 19.0158 27.141 17.25 27.4166" stroke="#2379E7" stroke-width="2" stroke-linecap="round" stroke-linejoin="round"/>
<path d="M12.8754 8.66675L14.7504 9.91675L13.4404 11.9986" stroke="#2379E7" stroke-width="2" stroke-linecap="round" stroke-linejoin="round"/>
<path d="M19.125 28.6666L17.25 27.4166L18.56 25.3347" stroke="#2379E7" stroke-width="2" stroke-linecap="round" stroke-linejoin="round"/>
</svg>
