<svg width="31" height="32" viewBox="0 0 31 32" fill="none" xmlns="http://www.w3.org/2000/svg">
<path d="M10.2126 11.4271C11.4526 9.52085 12.6801 7.5646 13.4451 5.64835C13.7701 4.83585 14.7701 4.4546 15.4664 4.9846C19.6789 8.1946 26.0001 14.3996 26.0001 20.1771C26.0001 21.6446 25.7501 22.8846 25.3376 23.9271M7.83262 15.1771C6.76637 16.9946 6.00012 18.6933 6.00012 20.1771C6.00012 24.0608 8.80762 26.8133 11.1014 28.1421C11.6276 28.4458 12.1389 27.8108 11.8639 27.2696C11.2564 26.0783 10.6664 24.5383 10.6664 23.3021C10.6664 21.5883 11.9726 20.2108 12.9064 19.3271C13.1451 19.1008 13.5201 19.1033 13.7276 19.3596C14.1126 19.8346 14.4976 20.4371 14.8826 20.9246C14.9337 20.9905 14.9999 21.043 15.0757 21.0777C15.1516 21.1123 15.2347 21.128 15.3179 21.1235C15.4011 21.1189 15.482 21.0942 15.5536 21.0515C15.6252 21.0089 15.6853 20.9494 15.7289 20.8783C16.9614 18.9783 17.2476 16.5558 17.3139 14.7446C17.3339 14.1971 17.9739 13.9283 18.3401 14.3346C19.9451 16.1096 22.0001 18.9896 22.0001 21.4271C22.0001 23.6971 20.7276 26.1096 19.6276 27.6921C19.3051 28.1546 19.6589 28.7833 20.1989 28.6158C20.9044 28.3936 21.579 28.0828 22.2064 27.6908" stroke="#D94606" stroke-width="2" stroke-linecap="round"/>
</svg>
