<svg width="28" height="29" viewBox="0 0 28 29" fill="none" xmlns="http://www.w3.org/2000/svg">
<path d="M20.5315 18.5574H19.2341L18.7742 18.1142C19.8006 16.9226 20.5507 15.5189 20.9709 14.0036C21.3911 12.4884 21.471 10.899 21.2049 9.34934C20.433 4.78633 16.6228 1.1425 12.0242 0.584431C10.4075 0.380025 8.76549 0.547946 7.22373 1.07535C5.68197 1.60275 4.28137 2.47565 3.12909 3.62725C1.97681 4.77886 1.10339 6.17864 0.575684 7.7195C0.0479746 9.26036 -0.120046 10.9014 0.0844809 12.5172C0.642874 17.113 4.28885 20.921 8.85453 21.6924C10.4051 21.9584 11.9954 21.8786 13.5115 21.4586C15.0277 21.0387 16.4322 20.289 17.6246 19.2632L18.068 19.7228V21.0195L25.0479 27.9953C25.7213 28.6682 26.8216 28.6682 27.495 27.9953C28.1683 27.3223 28.1683 26.2226 27.495 25.5496L20.5315 18.5574ZM10.6775 18.5574C6.58811 18.5574 3.28703 15.2583 3.28703 11.1713C3.28703 7.08425 6.58811 3.7851 10.6775 3.7851C14.7669 3.7851 18.068 7.08425 18.068 11.1713C18.068 15.2583 14.7669 18.5574 10.6775 18.5574Z" fill="white"/>
</svg>
