<svg width="22" height="26" viewBox="0 0 22 26" fill="none" xmlns="http://www.w3.org/2000/svg">
<path d="M6.25 7.85156V5.89844C6.25 5.60547 6.49414 5.3125 6.83594 5.3125H8.78906C9.08203 5.3125 9.375 5.60547 9.375 5.89844V7.85156C9.375 8.19336 9.08203 8.4375 8.78906 8.4375H6.83594C6.49414 8.4375 6.25 8.19336 6.25 7.85156ZM13.0859 8.4375C12.7441 8.4375 12.5 8.19336 12.5 7.85156V5.89844C12.5 5.60547 12.7441 5.3125 13.0859 5.3125H15.0391C15.332 5.3125 15.625 5.60547 15.625 5.89844V7.85156C15.625 8.19336 15.332 8.4375 15.0391 8.4375H13.0859ZM6.83594 13.125C6.49414 13.125 6.25 12.8809 6.25 12.5391V10.5859C6.25 10.293 6.49414 10 6.83594 10H8.78906C9.08203 10 9.375 10.293 9.375 10.5859V12.5391C9.375 12.8809 9.08203 13.125 8.78906 13.125H6.83594ZM13.0859 13.125C12.7441 13.125 12.5 12.8809 12.5 12.5391V10.5859C12.5 10.293 12.7441 10 13.0859 10H15.0391C15.332 10 15.625 10.293 15.625 10.5859V12.5391C15.625 12.8809 15.332 13.125 15.0391 13.125H13.0859ZM9.375 17.2266C9.375 17.5684 9.08203 17.8125 8.78906 17.8125H6.83594C6.49414 17.8125 6.25 17.5684 6.25 17.2266V15.2734C6.25 14.9805 6.49414 14.6875 6.83594 14.6875H8.78906C9.08203 14.6875 9.375 14.9805 9.375 15.2734V17.2266ZM13.0859 17.8125C12.7441 17.8125 12.5 17.5684 12.5 17.2266V15.2734C12.5 14.9805 12.7441 14.6875 13.0859 14.6875H15.0391C15.332 14.6875 15.625 14.9805 15.625 15.2734V17.2266C15.625 17.5684 15.332 17.8125 15.0391 17.8125H13.0859ZM21.875 23.8672V25.625H0V23.8672C0 23.5742 0.244141 23.2812 0.585938 23.2812H1.51367V1.79688C1.51367 1.16211 2.05078 0.625 2.68555 0.625H19.1406C19.7754 0.625 20.3125 1.16211 20.3125 1.79688V23.2812H21.2891C21.582 23.2812 21.875 23.5742 21.875 23.8672ZM3.85742 23.2324H9.375V19.9609C9.375 19.668 9.61914 19.375 9.96094 19.375H11.9141C12.207 19.375 12.5 19.668 12.5 19.9609V23.2324H17.9688V3.01758L3.90625 2.96875L3.85742 23.2324Z" fill="white"/>
</svg>
