<svg width="20" height="21" viewBox="0 0 20 21" fill="none" xmlns="http://www.w3.org/2000/svg">
<path d="M4.16289 4.70559C4.53978 4.53411 4.90942 4.40261 5.27069 4.30808C5.57914 3.78961 5.98433 3.28854 6.49712 2.81654C8.87637 0.626213 11.6073 0.718299 13.773 3.18395C14.0483 3.49745 14.2845 3.81623 14.4838 4.1382C15.061 4.27826 15.6519 4.51793 16.2492 4.87151C19.0192 6.51148 19.7779 9.19855 18.1562 12.069C17.95 12.4342 17.7266 12.7628 17.4888 13.0565C17.5371 13.662 17.497 14.3115 17.3531 15.0025C16.6858 18.206 14.4236 19.7751 11.2558 19.0833C10.8528 18.9954 10.4785 18.8795 10.1322 18.7388C9.58496 18.9726 8.96954 19.1341 8.28356 19.2075C5.1009 19.5479 2.94427 17.8305 2.6079 14.5324C2.56508 14.1129 2.55709 13.7128 2.58088 13.3322C2.19425 12.8715 1.85365 12.3219 1.57341 11.6762C0.273665 8.68262 1.20304 6.05227 4.1628 4.70559H4.16289Z" stroke="url(#paint0_linear_1_1710)" stroke-width="2"/>
<defs>
<linearGradient id="paint0_linear_1_1710" x1="16.3087" y1="17.5345" x2="3.35872" y2="4.8849" gradientUnits="userSpaceOnUse">
<stop stop-color="#EC9DBC"/>
<stop offset="0.483" stop-color="#8E81B9"/>
<stop offset="1" stop-color="#7ECAF0"/>
</linearGradient>
</defs>
</svg>
