<svg width="36" height="23" viewBox="0 0 36 23" fill="none" xmlns="http://www.w3.org/2000/svg">
<path d="M2.69126 14.8038C6.19209 17.8258 11.8372 19.3807 17.526 19.3807C21.2675 19.3807 24.4839 18.8113 27.0658 17.6725C29.6477 16.5119 31.048 14.9571 31.2887 12.9861V12.8766C29.8227 14.6286 27.8097 15.8768 25.206 16.6652C25.206 16.6652 25.206 16.6652 25.2279 16.6652C27.1314 15.5702 28.2254 14.2125 28.5099 12.6139C26.6063 15.7673 22.9523 17.3221 17.5479 17.3221C14.966 17.3221 12.7561 16.8404 10.8526 15.8549C8.97087 14.8914 8.03003 13.7088 8.03003 12.3292C8.03003 10.9495 8.90524 9.78887 10.6994 8.80342C12.4936 7.83986 14.7691 7.33618 17.526 7.33618C21.5957 7.33618 24.4621 8.32164 26.1249 10.3364V10.2707C25.9718 9.02241 25.0966 8.05885 23.4774 7.33618C21.8583 6.61351 19.8672 6.26312 17.526 6.26312C13.9814 6.26312 10.4368 7.22668 8.24883 9.11C7.13294 10.0517 6.58593 11.1028 6.58593 12.2854C6.58593 14.0154 7.87687 15.5264 10.043 16.6652C8.77395 16.3148 7.61431 15.833 6.56406 15.2636C3.69775 13.7088 2.27554 11.8474 2.27554 9.63558C2.27554 7.42378 3.78527 5.56236 6.80474 4.00752C9.8242 2.45269 13.3688 1.68622 17.5041 1.68622C26.1687 1.68622 32.0107 4.20461 35.0739 9.2414C34.6363 6.65731 32.8859 4.48931 29.8227 2.73738C26.475 0.897861 22.3397 0 17.5041 0C13.8064 0 10.59 0.525573 7.87687 1.57673C3.01947 3.43815 0 6.30693 0 9.63558C0 11.6065 0.875208 13.2927 2.69126 14.8038Z" fill="url(#paint0_linear_61_937)"/>
<path d="M29.9321 6.10999C26.475 4.20477 22.3397 3.24121 17.526 3.24121C14.069 3.24121 10.962 3.83249 8.29259 5.03694C5.62321 6.24138 4.11347 7.79621 3.80715 9.70143V9.78903C4.39792 8.89117 5.47004 8.03711 7.02354 7.33634C7.89875 6.85456 8.83959 6.43847 9.8242 6.10999C9.34284 6.39468 8.88335 6.70126 8.44575 7.02974C7.2861 7.9495 6.67346 8.97876 6.58593 10.1175C7.35174 8.47508 9.1678 7.11735 11.2683 6.43847C13.325 5.71581 15.4912 5.34352 17.526 5.34352C21.2019 5.34352 27.0658 6.59176 27.0658 10.3146C27.0658 14.125 20.9175 15.3514 17.526 15.3514C15.0098 15.3514 12.8218 14.8477 10.962 13.8404C9.99924 13.4024 9.32096 12.8768 8.949 12.3074V12.3731C9.12404 13.5557 10.0649 14.5192 11.7497 15.2857C13.4126 16.0522 15.3599 16.4025 17.526 16.4025C20.5236 16.4025 23.1274 15.8113 25.2716 14.6068C27.4378 13.4243 28.488 11.9789 28.488 10.3146C28.488 8.56268 27.3721 7.13924 25.1185 6.00049C25.0528 5.9567 24.9653 5.9348 24.8778 5.891C29.035 7.00785 32.7765 9.19775 32.7765 12.9644C32.7765 18.9428 23.3899 20.9138 17.5041 20.9138C14.244 20.9138 10.7869 20.3225 7.48302 19.1618C4.13535 18.045 1.20341 15.8989 0 13.2491C0.153161 15.0886 1.11589 16.731 2.9757 18.1983C6.62969 21.1546 12.0779 22.5781 17.526 22.5781C22.0552 22.5781 26.0812 21.6802 29.6914 19.8407C33.3016 18.045 35.0958 15.7456 35.0958 12.9425C35.0739 10.2927 33.3892 7.99331 29.9321 6.10999Z" fill="url(#paint1_linear_61_937)"/>
<defs>
<linearGradient id="paint0_linear_61_937" x1="0.00544817" y1="9.72769" x2="35.0842" y2="9.72769" gradientUnits="userSpaceOnUse">
<stop stop-color="#2CA4DE"/>
<stop offset="1" stop-color="#19539D"/>
</linearGradient>
<linearGradient id="paint1_linear_61_937" x1="0.00544817" y1="12.9302" x2="35.0842" y2="12.9302" gradientUnits="userSpaceOnUse">
<stop stop-color="#19539D"/>
<stop offset="1" stop-color="#627EEA"/>
</linearGradient>
</defs>
</svg>
