<svg width="29" height="29" viewBox="0 0 29 29" fill="none" xmlns="http://www.w3.org/2000/svg">
<path d="M14.7344 23.6626C9.47036 23.6626 5.21436 19.4066 5.21436 14.1426C5.21436 8.87856 9.47036 4.62256 14.7344 4.62256C19.9984 4.62256 24.2544 8.87856 24.2544 14.1426C24.2544 19.4066 19.9984 23.6626 14.7344 23.6626ZM14.7344 5.74256C10.0864 5.74256 6.33436 9.49456 6.33436 14.1426C6.33436 18.7906 10.0864 22.5426 14.7344 22.5426C19.3824 22.5426 23.1344 18.7906 23.1344 14.1426C23.1344 9.49456 19.3824 5.74256 14.7344 5.74256Z" fill="#0046B8"/>
<path d="M13.6144 18.2866L8.74237 13.4146L9.52637 12.6306L13.6144 16.7186L19.9424 10.3906L20.7264 11.1746L13.6144 18.2866Z" fill="#0046B8"/>
</svg>
