<svg width="26" height="26" viewBox="0 0 26 26" fill="none" xmlns="http://www.w3.org/2000/svg">
<path d="M10.8535 17.9824L5.87122 12.9989L7.5316 11.3385L10.8535 14.6593L17.4951 8.0166L19.1566 9.67816L10.8535 17.9824Z" fill="white"/>
<path fill-rule="evenodd" clip-rule="evenodd" d="M0 12.9167C0 5.78315 5.78315 0 12.9167 0C20.0502 0 25.8334 5.78315 25.8334 12.9167C25.8334 20.0502 20.0502 25.8334 12.9167 25.8334C5.78315 25.8334 0 20.0502 0 12.9167ZM12.9167 23.4849C11.5289 23.4849 10.1546 23.2115 8.87241 22.6804C7.59022 22.1493 6.42519 21.3709 5.44384 20.3895C4.46249 19.4082 3.68405 18.2432 3.15294 16.961C2.62184 15.6788 2.34849 14.3045 2.34849 12.9167C2.34849 11.5289 2.62184 10.1546 3.15294 8.87241C3.68405 7.59022 4.46249 6.42519 5.44384 5.44384C6.42519 4.46249 7.59022 3.68405 8.87241 3.15294C10.1546 2.62184 11.5289 2.34849 12.9167 2.34849C15.7195 2.34849 18.4076 3.46192 20.3895 5.44384C22.3715 7.42576 23.4849 10.1138 23.4849 12.9167C23.4849 15.7195 22.3715 18.4076 20.3895 20.3895C18.4076 22.3715 15.7195 23.4849 12.9167 23.4849Z" fill="white"/>
</svg>
