<svg width="30" height="30" viewBox="0 0 30 30" fill="none" xmlns="http://www.w3.org/2000/svg">
<path d="M2.14282 17.1429C2.14282 8.57152 5.54776 1.66426 15.0005 1.66426C24.436 1.66426 27.8571 8.57152 27.8571 17.1429" stroke="#0046B8" stroke-width="1.73116" stroke-linecap="round"/>
<path d="M2.14282 17.4479C2.14282 12.7341 5.40813 11.5557 7.04077 11.5557C9.97955 11.5557 10.7143 13.9126 10.7143 15.091V19.8049C10.7143 22.6331 8.26526 23.3403 7.04077 23.3403C5.40813 23.3403 2.14282 22.1617 2.14282 17.4479Z" fill="#D7E0FF" stroke="#0046B8" stroke-width="1.73116"/>
<path d="M27.8572 17.4479C27.8572 12.7341 24.5919 11.5557 22.9593 11.5557C20.0205 11.5557 19.2858 13.9126 19.2858 15.091V19.8049C19.2858 22.6331 21.7348 23.3403 22.9593 23.3403C24.5919 23.3403 27.8572 22.1617 27.8572 17.4479Z" fill="#D7E0FF" stroke="#0046B8" stroke-width="1.73116"/>
<path d="M27.8533 17.2063C27.8533 17.2063 28.4246 24.6704 24.9664 26.8272C21.5085 28.984 17.2354 27.9974 17.2354 27.9974" stroke="#0046B8" stroke-width="1.73116" stroke-linecap="round"/>
</svg>
