<svg width="20" height="20" viewBox="0 0 20 20" fill="none" xmlns="http://www.w3.org/2000/svg">
<path fill-rule="evenodd" clip-rule="evenodd" d="M10.0015 20C11.3147 20 12.615 19.7413 13.8283 19.2388C15.0416 18.7362 16.1439 17.9997 17.0725 17.0711C18.0011 16.1425 18.7377 15.0401 19.2403 13.8268C19.7428 12.6136 20.0015 11.3132 20.0015 10C20.0015 8.68678 19.7428 7.38642 19.2403 6.17317C18.7377 4.95991 18.0011 3.85752 17.0725 2.92893C16.1439 2.00035 15.0416 1.26375 13.8283 0.761205C12.615 0.258658 11.3147 -1.95685e-08 10.0015 0C7.3493 3.95203e-08 4.80576 1.05357 2.9304 2.92893C1.05503 4.8043 0.00146484 7.34784 0.00146484 10C0.00146484 12.6522 1.05503 15.1957 2.9304 17.0711C4.80576 18.9464 7.3493 20 10.0015 20ZM9.74369 14.0444L15.2992 7.37778L13.5926 5.95556L8.8148 11.6878L6.34258 9.21445L4.77147 10.7856L8.1048 14.1189L8.9648 14.9789L9.74369 14.0444Z" fill="white"/>
</svg>
