<svg width="34" height="33" viewBox="0 0 34 33" fill="none" xmlns="http://www.w3.org/2000/svg">
<g clip-path="url(#clip0_88_1353)">
<path d="M28.5935 3.70886H32.4037C32.9623 3.70886 33.4193 4.16591 33.4193 4.72452V31.3523C33.4193 31.9109 32.9623 32.3679 32.4037 32.3679H1.59574C1.03713 32.3679 0.580078 31.9109 0.580078 31.3523V4.72452C0.580078 4.16591 1.03713 3.70886 1.59574 3.70886H5.67435" stroke="#231815" stroke-width="1.16076" stroke-linecap="round" stroke-linejoin="round"/>
<path d="M11.6802 3.70886H22.4651" stroke="#231815" stroke-width="1.16076" stroke-linecap="round" stroke-linejoin="round"/>
<path d="M0.580078 10.0336H33.4193" stroke="#231815" stroke-width="1.16076" stroke-linecap="round" stroke-linejoin="round"/>
<path d="M8.63916 0.682251V6.32062" stroke="#231815" stroke-width="1.16076" stroke-linecap="round" stroke-linejoin="round"/>
<path d="M25.6748 0.682251V6.32062" stroke="#231815" stroke-width="1.16076" stroke-linecap="round" stroke-linejoin="round"/>
<path d="M8.49381 15.2926C8.49381 15.0157 8.26937 14.7913 7.99251 14.7913C7.71565 14.7913 7.49121 15.0157 7.49121 15.2926C7.49121 15.5694 7.71565 15.7939 7.99251 15.7939C8.26937 15.7939 8.49381 15.5694 8.49381 15.2926Z" stroke="#231815" stroke-width="1.16076" stroke-linecap="round" stroke-linejoin="round"/>
<path d="M14.5544 15.2926C14.5544 15.0157 14.3299 14.7913 14.0531 14.7913C13.7762 14.7913 13.5518 15.0157 13.5518 15.2926C13.5518 15.5694 13.7762 15.7939 14.0531 15.7939C14.3299 15.7939 14.5544 15.5694 14.5544 15.2926Z" stroke="#231815" stroke-width="1.16076" stroke-linecap="round" stroke-linejoin="round"/>
<path d="M20.4699 15.2926C20.4699 15.0157 20.2454 14.7913 19.9686 14.7913C19.6917 14.7913 19.4673 15.0157 19.4673 15.2926C19.4673 15.5694 19.6917 15.7939 19.9686 15.7939C20.2454 15.7939 20.4699 15.5694 20.4699 15.2926Z" stroke="#231815" stroke-width="1.16076" stroke-linecap="round" stroke-linejoin="round"/>
<path d="M26.0968 15.2926C26.0968 15.0157 25.8724 14.7913 25.5955 14.7913C25.3187 14.7913 25.0942 15.0157 25.0942 15.2926C25.0942 15.5694 25.3187 15.7939 25.5955 15.7939C25.8724 15.7939 26.0968 15.5694 26.0968 15.2926Z" stroke="#231815" stroke-width="1.16076" stroke-linecap="round" stroke-linejoin="round"/>
<path d="M8.55485 21.1978C8.55485 20.921 8.33041 20.6965 8.05355 20.6965C7.77669 20.6965 7.55225 20.921 7.55225 21.1978C7.55225 21.4747 7.77669 21.6991 8.05355 21.6991C8.33041 21.6991 8.55485 21.4747 8.55485 21.1978Z" stroke="#231815" stroke-width="1.16076" stroke-linecap="round" stroke-linejoin="round"/>
<path d="M14.6139 21.1978C14.6139 20.921 14.3895 20.6965 14.1126 20.6965C13.8358 20.6965 13.6113 20.921 13.6113 21.1978C13.6113 21.4747 13.8358 21.6991 14.1126 21.6991C14.3895 21.6991 14.6139 21.4747 14.6139 21.1978Z" stroke="#231815" stroke-width="1.16076" stroke-linecap="round" stroke-linejoin="round"/>
<path d="M20.5309 21.1978C20.5309 20.921 20.3065 20.6965 20.0296 20.6965C19.7528 20.6965 19.5283 20.921 19.5283 21.1978C19.5283 21.4747 19.7528 21.6991 20.0296 21.6991C20.3065 21.6991 20.5309 21.4747 20.5309 21.1978Z" stroke="#231815" stroke-width="1.16076" stroke-linecap="round" stroke-linejoin="round"/>
<path d="M26.1579 21.1978C26.1579 20.921 25.9334 20.6965 25.6566 20.6965C25.3797 20.6965 25.1553 20.921 25.1553 21.1978C25.1553 21.4747 25.3797 21.6991 25.6566 21.6991C25.9334 21.6991 26.1579 21.4747 26.1579 21.1978Z" stroke="#231815" stroke-width="1.16076" stroke-linecap="round" stroke-linejoin="round"/>
<path d="M8.62711 26.8129C8.62711 26.5361 8.40267 26.3116 8.12581 26.3116C7.84895 26.3116 7.62451 26.5361 7.62451 26.8129C7.62451 27.0898 7.84895 27.3142 8.12581 27.3142C8.40267 27.3142 8.62711 27.0898 8.62711 26.8129Z" stroke="#231815" stroke-width="1.16076" stroke-linecap="round" stroke-linejoin="round"/>
<path d="M14.6882 26.8129C14.6882 26.5361 14.4637 26.3116 14.1868 26.3116C13.91 26.3116 13.6855 26.5361 13.6855 26.8129C13.6855 27.0898 13.91 27.3142 14.1868 27.3142C14.4637 27.3142 14.6882 27.0898 14.6882 26.8129Z" stroke="#231815" stroke-width="1.16076" stroke-linecap="round" stroke-linejoin="round"/>
<path d="M20.6047 26.8129C20.6047 26.5361 20.3802 26.3116 20.1034 26.3116C19.8265 26.3116 19.6021 26.5361 19.6021 26.8129C19.6021 27.0898 19.8265 27.3142 20.1034 27.3142C20.3802 27.3142 20.6047 27.0898 20.6047 26.8129Z" stroke="#231815" stroke-width="1.16076" stroke-linecap="round" stroke-linejoin="round"/>
</g>
<defs>
<clipPath id="clip0_88_1353">
<rect width="34" height="32.8465" fill="white" transform="translate(0 0.101807)"/>
</clipPath>
</defs>
</svg>
