<svg width="62" height="48" viewBox="0 0 62 48" fill="none" xmlns="http://www.w3.org/2000/svg">
<path d="M61.9976 11.4509C61.9976 8.84848 59.8881 6.73818 57.2882 6.73818C54.6884 6.73818 52.5765 8.84848 52.5765 11.4509C52.5765 12.7236 53.0814 13.8776 53.9013 14.7236C50.6983 21.3636 44.5746 23.6824 39.8302 21.583C35.6028 19.7115 34.0443 14.3636 33.5163 10.2194C35.2395 9.31273 36.4153 7.50546 36.4153 5.42061C36.4153 2.42667 33.991 0 30.9988 0C28.0066 0 25.5823 2.42667 25.5823 5.42061C25.5823 7.50546 26.7569 9.31273 28.4812 10.2194C27.9533 14.3636 26.3948 19.7115 22.1674 21.583C17.4218 23.6812 11.2993 21.3636 8.09633 14.7236C8.91613 13.8776 9.42109 12.7236 9.42109 11.4509C9.42109 8.84848 7.31164 6.73818 4.71176 6.73818C2.11066 6.73818 0 8.84848 0 11.4509C0 13.8485 1.78977 15.8242 4.10266 16.1236L9.53129 36.0121H52.4699L57.8986 16.1236C60.2127 15.8242 62.0012 13.8485 62.0012 11.4509H61.9976Z" fill="#3E7976"/>
<path d="M55.0976 44.4921C55.0976 46.4291 53.5295 48 51.592 48H10.4044C8.46807 48 6.8999 46.4303 6.8999 44.4921V44.2C6.8999 42.2606 8.46807 40.6909 10.4044 40.6909H51.5908C53.5283 40.6909 55.0964 42.2606 55.0964 44.2V44.4921H55.0976Z" fill="#3E7976"/>
</svg>
