<svg width="24" height="15" viewBox="0 0 24 15" fill="none" xmlns="http://www.w3.org/2000/svg">
<path d="M8.75034 14.5003C8.91231 14.6293 9.13202 14.7018 9.36107 14.7018C9.59017 14.7018 9.80983 14.6293 9.97174 14.5003L23.747 3.12028C23.909 2.99126 24 2.81629 24 2.63384C24 2.45134 23.909 2.27637 23.747 2.14735L21.3042 0.20149C20.9669 -0.0671403 20.4201 -0.0671862 20.0828 0.20149L9.3613 9.14904L3.91716 5.20226C3.7552 5.07325 3.53548 5.00073 3.30644 5.00073C3.07739 5.00073 2.85773 5.07325 2.69577 5.20226L0.252924 7.14817C-0.084308 7.41684 -0.084308 7.85242 0.252924 8.1211L8.75034 14.5003Z" fill="white"/>
</svg>
