<svg width="33" height="25" viewBox="0 0 33 25" fill="none" xmlns="http://www.w3.org/2000/svg">
<path d="M10.1285 19.9006L3.33312 13.1052C2.96696 12.739 2.47033 12.5333 1.9525 12.5333C1.43466 12.5333 0.938038 12.739 0.571874 13.1052C0.205709 13.4714 0 13.968 0 14.4858C0 14.7422 0.0505033 14.9961 0.148626 15.233C0.246748 15.4699 0.390567 15.6851 0.571874 15.8665L8.75771 24.0523C9.52146 24.816 10.7552 24.816 11.519 24.0523L32.2381 3.33312C32.6043 2.96696 32.81 2.47033 32.81 1.9525C32.81 1.43466 32.6043 0.938039 32.2381 0.571874C31.872 0.20571 31.3753 0 30.8575 0C30.3397 0 29.843 0.20571 29.4769 0.571874L10.1285 19.9006Z" fill="#3E7976"/>
</svg>
