<svg width="41" height="40" viewBox="0 0 41 40" fill="none" xmlns="http://www.w3.org/2000/svg">
<path d="M5.50001 24.0405H10.3413V34.53H5.50001V26.8162" stroke="white" stroke-width="2" stroke-linecap="round" stroke-linejoin="round"/>
<path d="M12.4105 25.5158L13.8436 24.0827C13.8436 24.0827 19.6139 22.282 21.1768 21.8443C22.7398 21.4067 23.115 23.9522 22.3022 24.3987C21.4894 24.8453 19.0883 26.1547 19.0883 26.1547L19.4917 28.1171H27.5606C27.5606 28.1171 30.0752 26.8396 31.138 26.3394C32.2009 25.8392 34.1931 26.527 34.8225 27.3397C33.2637 28.4025 28.3674 32.1515 28.3674 32.1515L19.4917 33.7653L10.616 33.4667" stroke="white" stroke-width="2" stroke-linecap="round" stroke-linejoin="round"/>
<path opacity="0.2" d="M27.4789 19.5239C23.9139 19.5239 21.0239 18.0788 21.0239 16.2963V8.22753C21.0239 6.44504 23.9139 5 27.4789 5C31.044 5 33.934 6.44504 33.934 8.22753V16.2963C33.934 18.0788 31.044 19.5239 27.4789 19.5239Z" fill="white"/>
<path d="M21.0239 12.262V16.2964C21.0239 18.0789 23.9139 19.5239 27.4789 19.5239C31.044 19.5239 33.934 18.0789 33.934 16.2964V12.262" stroke="white" stroke-width="2" stroke-linecap="round" stroke-linejoin="round"/>
<path d="M21.0239 8.22754V12.2619C21.0239 14.0444 23.9139 15.4895 27.4789 15.4895C31.044 15.4895 33.934 14.0444 33.934 12.2619V8.22754" stroke="white" stroke-width="2" stroke-linecap="round" stroke-linejoin="round"/>
<path d="M21.0239 8.22753C21.0239 6.44505 23.9139 5 27.4789 5C31.044 5 33.934 6.44505 33.934 8.22753C33.934 10.01 31.044 11.4551 27.4789 11.4551C23.9139 11.4551 21.0239 10.01 21.0239 8.22753Z" stroke="white" stroke-width="2" stroke-linecap="round" stroke-linejoin="round"/>
</svg>
