<svg width="30" height="30" viewBox="0 0 30 30" fill="none" xmlns="http://www.w3.org/2000/svg">
<path d="M15 19.4687C14.8333 19.4687 14.6771 19.4429 14.5313 19.3912C14.3854 19.3396 14.25 19.2508 14.125 19.125L9.625 14.625C9.375 14.375 9.255 14.0833 9.265 13.75C9.275 13.4167 9.395 13.125 9.625 12.875C9.875 12.625 10.1721 12.495 10.5163 12.485C10.8604 12.475 11.1571 12.5946 11.4063 12.8438L13.75 15.1875V6.25C13.75 5.89584 13.87 5.59917 14.11 5.36C14.35 5.12084 14.6467 5.00084 15 5C15.3533 4.99917 15.6504 5.11917 15.8913 5.36C16.1321 5.60084 16.2517 5.8975 16.25 6.25V15.1875L18.5938 12.8438C18.8438 12.5938 19.1408 12.4738 19.485 12.4838C19.8292 12.4938 20.1258 12.6242 20.375 12.875C20.6042 13.125 20.7242 13.4167 20.735 13.75C20.7458 14.0833 20.6258 14.375 20.375 14.625L15.875 19.125C15.75 19.25 15.6146 19.3387 15.4688 19.3912C15.3229 19.4437 15.1667 19.4696 15 19.4687ZM7.5 25C6.8125 25 6.22417 24.7554 5.735 24.2662C5.24583 23.7771 5.00083 23.1883 5 22.5V20C5 19.6458 5.12 19.3492 5.36 19.11C5.6 18.8708 5.89667 18.7508 6.25 18.75C6.60333 18.7492 6.90042 18.8692 7.14125 19.11C7.38208 19.3508 7.50167 19.6475 7.5 20V22.5H22.5V20C22.5 19.6458 22.62 19.3492 22.86 19.11C23.1 18.8708 23.3967 18.7508 23.75 18.75C24.1033 18.7492 24.4004 18.8692 24.6413 19.11C24.8821 19.3508 25.0017 19.6475 25 20V22.5C25 23.1875 24.7554 23.7762 24.2663 24.2662C23.7771 24.7562 23.1883 25.0008 22.5 25H7.5Z" fill="#212121"/>
</svg>
