<svg width="19" height="26" viewBox="0 0 19 26" fill="none" xmlns="http://www.w3.org/2000/svg">
<path d="M14.0625 12.7344V14.1016C14.0625 14.4434 13.7695 14.6875 13.4766 14.6875H5.27344C4.93164 14.6875 4.6875 14.4434 4.6875 14.1016V12.7344C4.6875 12.4414 4.93164 12.1484 5.27344 12.1484H13.4766C13.7695 12.1484 14.0625 12.4414 14.0625 12.7344ZM13.4766 16.25C13.7695 16.25 14.0625 16.543 14.0625 16.8359V18.2031C14.0625 18.5449 13.7695 18.7891 13.4766 18.7891H5.27344C4.93164 18.7891 4.6875 18.5449 4.6875 18.2031V16.8359C4.6875 16.543 4.93164 16.25 5.27344 16.25H13.4766ZM18.75 7.07031V23.2812C18.75 24.5996 17.6758 25.625 16.4062 25.625H2.34375C1.02539 25.625 0 24.5996 0 23.2812V2.96875C0 1.69922 1.02539 0.625 2.34375 0.625H12.3047C12.8906 0.625 13.5254 0.917969 13.9648 1.35742L18.0176 5.41016C18.457 5.84961 18.75 6.48438 18.75 7.07031ZM12.5 3.16406V6.875H16.2109L12.5 3.16406ZM16.4062 23.2812V9.21875H11.3281C10.6445 9.21875 10.1562 8.73047 10.1562 8.04688V2.96875H2.34375V23.2812H16.4062Z" fill="white"/>
</svg>
