<svg width="87" height="82" viewBox="0 0 87 82" fill="none" xmlns="http://www.w3.org/2000/svg">
<path d="M54.1175 20.9989H11.6198L1 1H43.5023M54.1175 20.9989L43.5023 1M54.1175 20.9989L64.7512 41.0022M43.5023 1H64.7512L75.3709 20.9989M75.3709 20.9989L64.7512 41.0022M75.3709 20.9989L86 41.0022L75.3709 61.001M64.7512 41.0022L54.1175 61.0011L75.3709 61.001M75.3709 61.001L64.7512 81H22.2627M75.3709 61.001H32.8825M22.2627 81L32.8825 61.001M22.2627 81L1 81L32.8686 20.9989L43.5023 41.0022L32.8686 61.0011L32.8825 61.001" stroke="white" stroke-width="2" stroke-linejoin="bevel"/>
</svg>
