<svg width="364" height="347" viewBox="0 0 364 347" fill="none" xmlns="http://www.w3.org/2000/svg">
<g filter="url(#filter0_d_56_67034)">
<path d="M219.973 101.746H67.9813L30 30H182.008L219.973 101.746Z" fill="#18539E"/>
<path d="M295.985 101.746L258.004 173.508L219.973 101.746L182.008 30H258.004L295.985 101.746Z" fill="#1A68AE"/>
<path d="M295.985 245.254L258.004 317H106.046L144.027 245.254H295.985Z" fill="#228FCE"/>
<path d="M143.977 245.254L144.027 245.254L106.046 317L30 317L143.977 101.746L182.008 173.508L143.977 245.254Z" fill="#2CA4DE"/>
<path d="M334 173.508L295.985 245.254L219.973 245.254L258.004 173.508L295.985 101.746L334 173.508Z" fill="#1E7DBE"/>
</g>
<defs>
<filter id="filter0_d_56_67034" x="-1.52588e-05" y="0" width="364" height="347" filterUnits="userSpaceOnUse" color-interpolation-filters="sRGB">
<feFlood flood-opacity="0" result="BackgroundImageFix"/>
<feColorMatrix in="SourceAlpha" type="matrix" values="0 0 0 0 0 0 0 0 0 0 0 0 0 0 0 0 0 0 127 0" result="hardAlpha"/>
<feOffset/>
<feGaussianBlur stdDeviation="15"/>
<feComposite in2="hardAlpha" operator="out"/>
<feColorMatrix type="matrix" values="0 0 0 0 0.052809 0 0 0 0 0.0805999 0 0 0 0 0.608626 0 0 0 0.2 0"/>
<feBlend mode="normal" in2="BackgroundImageFix" result="effect1_dropShadow_56_67034"/>
<feBlend mode="normal" in="SourceGraphic" in2="effect1_dropShadow_56_67034" result="shape"/>
</filter>
</defs>
</svg>
