<svg width="41" height="40" viewBox="0 0 41 40" fill="none" xmlns="http://www.w3.org/2000/svg">
<path d="M6.00001 24.0405H10.8413V34.53H6.00001V26.8162" stroke="#212534" stroke-width="2" stroke-linecap="round" stroke-linejoin="round"/>
<path d="M12.9105 25.5158L14.3436 24.0827C14.3436 24.0827 20.1139 22.282 21.6768 21.8443C23.2398 21.4067 23.615 23.9522 22.8022 24.3987C21.9894 24.8453 19.5883 26.1547 19.5883 26.1547L19.9917 28.1171H28.0606C28.0606 28.1171 30.5752 26.8396 31.638 26.3394C32.7009 25.8392 34.6931 26.527 35.3225 27.3397C33.7637 28.4025 28.8674 32.1515 28.8674 32.1515L19.9917 33.7653L11.116 33.4667" stroke="#212534" stroke-width="2" stroke-linecap="round" stroke-linejoin="round"/>
<path d="M27.9789 19.5239C24.4139 19.5239 21.5239 18.0788 21.5239 16.2963V8.22753C21.5239 6.44504 24.4139 5 27.9789 5C31.544 5 34.434 6.44504 34.434 8.22753V16.2963C34.434 18.0788 31.544 19.5239 27.9789 19.5239Z" fill="#D9D9D9"/>
<path d="M21.5239 12.262V16.2964C21.5239 18.0789 24.4139 19.5239 27.9789 19.5239C31.544 19.5239 34.434 18.0789 34.434 16.2964V12.262" stroke="#212534" stroke-width="2" stroke-linecap="round" stroke-linejoin="round"/>
<path d="M21.5239 8.22754V12.2619C21.5239 14.0444 24.4139 15.4895 27.9789 15.4895C31.544 15.4895 34.434 14.0444 34.434 12.2619V8.22754" stroke="#212534" stroke-width="2" stroke-linecap="round" stroke-linejoin="round"/>
<path d="M21.5239 8.22753C21.5239 6.44505 24.4139 5 27.9789 5C31.544 5 34.434 6.44505 34.434 8.22753C34.434 10.01 31.544 11.4551 27.9789 11.4551C24.4139 11.4551 21.5239 10.01 21.5239 8.22753Z" stroke="#212534" stroke-width="2" stroke-linecap="round" stroke-linejoin="round"/>
</svg>
