<svg width="28" height="28" viewBox="0 0 28 28" fill="none" xmlns="http://www.w3.org/2000/svg">
<path d="M27.4532 13.4673C27.4127 13.3787 26.4546 11.2514 24.3382 9.135C21.5065 6.30766 17.9376 4.8125 14.0001 4.8125C10.0626 4.8125 6.49366 6.30766 3.66522 9.135C1.54881 11.2514 0.590688 13.3787 0.546938 13.4673C0.47284 13.6353 0.43457 13.8169 0.43457 14.0005C0.43457 14.1842 0.47284 14.3658 0.546938 14.5338C0.587407 14.6234 1.54553 16.7497 3.66303 18.8661C6.49366 21.6934 10.0626 23.1875 14.0001 23.1875C17.9376 23.1875 21.5065 21.6934 24.3338 18.8661C26.4513 16.7497 27.4094 14.6234 27.4499 14.5338C27.5245 14.366 27.5634 14.1845 27.5639 14.0009C27.5645 13.8173 27.5268 13.6356 27.4532 13.4673ZM22.4154 17.0767C20.0671 19.3889 17.2365 20.5625 14.0001 20.5625C10.7637 20.5625 7.93303 19.3889 5.58803 17.0756C4.66529 16.1626 3.87155 15.1278 3.22881 14C3.87173 12.8726 4.66546 11.8382 5.58803 10.9255C7.93413 8.61109 10.7637 7.4375 14.0001 7.4375C17.2365 7.4375 20.066 8.61109 22.4121 10.9255C23.3348 11.8382 24.1285 12.8726 24.7713 14C24.1285 15.1278 23.3348 16.1625 22.4121 17.0756L22.4154 17.0767ZM14.0001 9.1875C13.0482 9.1875 12.1178 9.46975 11.3264 9.99855C10.535 10.5274 9.91814 11.279 9.55389 12.1583C9.18965 13.0377 9.09434 14.0053 9.28004 14.9389C9.46573 15.8724 9.92407 16.7299 10.5971 17.403C11.2702 18.076 12.1277 18.5343 13.0612 18.72C13.9947 18.9057 14.9624 18.8104 15.8417 18.4462C16.7211 18.0819 17.4727 17.4651 18.0015 16.6737C18.5303 15.8823 18.8126 14.9518 18.8126 14C18.8111 12.7241 18.3036 11.5009 17.4014 10.5986C16.4992 9.69644 15.276 9.18895 14.0001 9.1875ZM14.0001 16.1875C13.5674 16.1875 13.1445 16.0592 12.7848 15.8188C12.425 15.5785 12.1446 15.2368 11.9791 14.8371C11.8135 14.4374 11.7702 13.9976 11.8546 13.5732C11.939 13.1489 12.1473 12.7591 12.4533 12.4532C12.7592 12.1473 13.149 11.9389 13.5733 11.8545C13.9976 11.7701 14.4375 11.8134 14.8372 11.979C15.2369 12.1446 15.5785 12.425 15.8189 12.7847C16.0593 13.1444 16.1876 13.5674 16.1876 14C16.1876 14.5802 15.9571 15.1366 15.5469 15.5468C15.1366 15.957 14.5802 16.1875 14.0001 16.1875Z" fill="black"/>
</svg>
