<svg width="28" height="28" viewBox="0 0 28 28" fill="none" xmlns="http://www.w3.org/2000/svg">
<path d="M6.22131 3.49227C6.10605 3.36234 5.96615 3.25659 5.80971 3.18113C5.65328 3.10567 5.48342 3.06201 5.30999 3.05268C5.13656 3.04335 4.96299 3.06853 4.79937 3.12677C4.63574 3.18501 4.4853 3.27515 4.35676 3.39196C4.22822 3.50877 4.12415 3.64993 4.05057 3.80726C3.97699 3.96459 3.93537 4.13496 3.92812 4.30849C3.92087 4.48202 3.94814 4.65527 4.00834 4.81819C4.06853 4.98111 4.16047 5.13046 4.27881 5.25758L6.02881 7.18805C2.26084 9.69711 0.625688 13.2977 0.546938 13.4673C0.47284 13.6353 0.43457 13.8169 0.43457 14.0005C0.43457 14.1841 0.47284 14.3657 0.546938 14.5337C0.587407 14.6234 1.54553 16.7496 3.66303 18.866C6.49366 21.6934 10.0626 23.1874 14.0001 23.1874C15.9137 23.198 17.8102 22.8262 19.5782 22.0937L21.7755 24.5109C22.0109 24.7637 22.3363 24.9135 22.6814 24.9279C23.0265 24.9423 23.3633 24.8202 23.6189 24.5879C23.8745 24.3556 24.0283 24.0319 24.0468 23.6871C24.0654 23.3422 23.9472 23.0039 23.718 22.7455L6.22131 3.49227ZM14.0001 20.5624C10.7637 20.5624 7.93303 19.3888 5.58803 17.0755C4.66562 16.1622 3.87192 15.1275 3.22881 13.9999C3.80522 12.9816 5.28397 10.7296 7.82256 9.15571L17.6762 19.9959C16.4878 20.3753 15.2475 20.5665 14.0001 20.5624ZM27.4532 14.5337C27.4138 14.6223 26.4688 16.7212 24.3907 18.8168C24.2717 18.9489 24.1271 19.0554 23.9657 19.1299C23.8043 19.2045 23.6294 19.2454 23.4517 19.2503C23.2739 19.2552 23.0971 19.2239 22.9318 19.1584C22.7665 19.0929 22.6163 18.9945 22.4902 18.8691C22.3641 18.7438 22.2648 18.5941 22.1983 18.4292C22.1318 18.2644 22.0995 18.0877 22.1034 17.9099C22.1072 17.7322 22.1471 17.5571 22.2207 17.3952C22.2942 17.2334 22.3999 17.0881 22.5313 16.9684C23.4043 16.0808 24.1573 15.0829 24.7713 13.9999C24.1286 12.8721 23.3348 11.8373 22.4121 10.9243C20.066 8.61102 17.2365 7.43743 14.0001 7.43743C13.6337 7.43743 13.2673 7.45274 12.9063 7.48336C12.7324 7.502 12.5565 7.48567 12.3889 7.43535C12.2214 7.38503 12.0656 7.30172 11.9307 7.19033C11.7959 7.07894 11.6846 6.94171 11.6035 6.78671C11.5224 6.63171 11.4732 6.46206 11.4586 6.28774C11.444 6.11341 11.4644 5.93794 11.5186 5.77162C11.5728 5.6053 11.6597 5.45149 11.7742 5.31924C11.8887 5.18699 12.0285 5.07896 12.1854 5.00151C12.3422 4.92405 12.513 4.87873 12.6876 4.86821C13.1174 4.83102 13.5626 4.81243 14.0001 4.81243C17.9376 4.81243 21.5065 6.30758 24.3349 9.13493C26.4513 11.2513 27.4094 13.3787 27.4499 13.4673C27.5245 13.635 27.5634 13.8165 27.5639 14.0001C27.5645 14.1837 27.5268 14.3655 27.4532 14.5337Z" fill="black"/>
</svg>
