<svg width="43" height="42" viewBox="0 0 43 42" fill="none" xmlns="http://www.w3.org/2000/svg">
<path d="M36.6654 9.62603V35.0386C36.6654 38.6103 34.8881 40.3878 31.3676 40.3878H19.4244C22.3343 39.9804 25.3578 39.3764 28.7358 38.4395C32.205 37.4483 33.7944 35.2267 33.7944 31.2447V6.22515C33.7944 5.64532 33.7503 5.09827 33.6598 4.59009C35.659 5.25687 36.6654 6.93822 36.6654 9.62603Z" fill="white"/>
<path d="M31.4702 6.22515V31.2448C31.4702 34.2353 30.5303 35.5172 28.1036 36.2008C21.5752 37.9952 16.4995 38.5249 10.7573 38.8326C7.59571 39.0205 5.75 37.4825 5.75 34.5089V9.06206C5.75 5.96881 7.57863 4.39654 10.3472 4.22563C16.4995 3.86674 21.5752 3.01225 26.3604 1.9356C29.6417 1.16655 31.4702 2.82427 31.4702 6.22515ZM18.4649 27.109C16.773 27.3823 14.9102 27.6387 12.0733 27.7925C11.3555 27.8609 11.0479 28.271 11.0479 28.8179C11.0479 29.3819 11.458 29.8262 12.0733 29.7921C14.9614 29.6211 16.8755 29.3477 18.7896 29.0401C19.3706 28.9375 19.6782 28.4761 19.6782 28.0148C19.6782 27.4849 19.251 26.9723 18.4649 27.109ZM24.9762 20.256C21.0625 21.1275 17.0635 21.8282 12.0733 22.153C11.3555 22.2041 11.0479 22.6314 11.0479 23.1611C11.0479 23.7252 11.458 24.1695 12.0733 24.1354C17.0635 23.8106 21.0625 23.1099 25.1641 22.2041C25.9843 22.0333 26.1723 21.6231 26.1723 21.1275C26.1723 20.5806 25.7623 20.1021 24.9762 20.256ZM24.9762 14.5821C21.0625 15.4537 17.0635 16.1544 12.0733 16.479C11.3555 16.5303 11.0479 16.9576 11.0479 17.4873C11.0479 18.0513 11.458 18.4956 12.0733 18.4615C17.0635 18.1367 21.0625 17.436 25.1641 16.5303C25.9843 16.3594 26.1723 15.9493 26.1723 15.4537C26.1723 14.9068 25.7623 14.4283 24.9762 14.5821ZM24.9762 8.92535C21.0625 9.77984 17.0635 10.4805 12.0733 10.8052C11.3555 10.8565 11.0479 11.2837 11.0479 11.8306C11.0479 12.3946 11.458 12.8218 12.0733 12.7877C17.0635 12.4629 21.0625 11.7794 25.1641 10.8565C25.9843 10.6856 26.1723 10.2754 26.1723 9.77984C26.1723 9.23296 25.7623 8.75444 24.9762 8.92535Z" fill="white"/>
</svg>
