<svg width="64" height="64" viewBox="0 0 64 64" fill="none" xmlns="http://www.w3.org/2000/svg">
<g clip-path="url(#clip0_0_3160)">
<g filter="url(#filter0_d_0_3160)">
<path d="M48.861 16.789C47.7735 16.3065 46.7071 15.9324 45.663 15.664C44.7717 14.1927 43.6026 12.777 42.1214 11.4379C35.2462 5.23151 27.3533 5.49457 21.1009 12.4809C20.303 13.3705 19.6197 14.2694 19.0457 15.1802C17.3789 15.5807 15.6739 16.2562 13.9465 17.2596C5.94435 21.9074 3.75356 29.519 8.43664 37.6513C9.03306 38.689 9.67687 39.6157 10.3654 40.4498C10.2232 42.167 10.3378 44.0058 10.7538 45.9648C12.6826 55.0411 19.2195 59.4866 28.3697 57.5276C29.5336 57.2751 30.6158 56.9459 31.6164 56.5507C33.1963 57.2143 34.9777 57.6703 36.9565 57.8792C46.1502 58.8455 52.3803 53.9769 53.3532 44.6323C53.4783 43.4413 53.5007 42.3111 53.4296 41.2297C54.55 39.9237 55.5335 38.3705 56.3432 36.5383C60.0981 28.0596 57.4149 20.608 48.861 16.7876V16.789ZM33.7322 38.9481C33.2621 40.0889 32.6065 41.0605 31.7705 41.8616C30.9292 42.6627 29.9338 43.2774 28.7805 43.711C27.6272 44.1393 26.3698 44.3534 25.0032 44.3534C23.6366 44.3534 22.3793 44.1393 21.2259 43.711C20.0726 43.2774 19.0786 42.6627 18.236 41.8616C17.3999 41.0605 16.7443 40.0889 16.2743 38.9481C15.8042 37.8126 15.5752 36.5396 15.5752 35.1344C15.5752 33.7292 15.8042 32.4562 16.2743 31.3154C16.7443 30.1746 17.3999 29.203 18.236 28.4019C19.0773 27.6009 20.0726 26.9862 21.2259 26.5579C22.3793 26.1296 23.6366 25.9101 25.0032 25.9101C26.3698 25.9101 27.6272 26.1296 28.7805 26.5579C29.9338 26.9862 30.9278 27.6009 31.7705 28.4019C32.6065 29.203 33.2621 30.1746 33.7322 31.3154C34.2022 32.4562 34.4313 33.7306 34.4313 35.1344C34.4313 36.5383 34.2022 37.8126 33.7322 38.9481ZM48.4292 29.9261H40.5586V33.4992H47.8394V37.0657H40.5586V43.9093H36.705V26.3596H48.4292V29.9261ZM28.9556 31.0788C28.475 30.5738 27.9063 30.1839 27.2388 29.905C26.5726 29.6194 25.8287 29.4819 25.0032 29.4819C24.1777 29.4819 23.4352 29.6194 22.7677 29.905C22.1015 30.1852 21.5327 30.5738 21.0508 31.0788C20.5755 31.5838 20.2095 32.1813 19.9528 32.8792C19.7013 33.5706 19.5697 34.3228 19.5697 35.1344C19.5697 35.9461 19.7013 36.7154 19.9528 37.4015C20.2095 38.0876 20.5755 38.6798 21.0508 39.1848C21.5314 39.6897 22.1001 40.085 22.7677 40.3652C23.4338 40.6455 24.1777 40.7882 25.0032 40.7882C25.8287 40.7882 26.5713 40.6455 27.2388 40.3652C27.905 40.085 28.4737 39.6897 28.9556 39.1848C29.4309 38.6798 29.7969 38.0876 30.0536 37.4015C30.3051 36.7154 30.4368 35.958 30.4368 35.1344C30.4368 34.3109 30.3051 33.5706 30.0536 32.8792C29.7969 32.1826 29.4309 31.5838 28.9556 31.0788Z" fill="url(#paint0_linear_0_3160)"/>
</g>
</g>
<defs>
<filter id="filter0_d_0_3160" x="-1" y="0" width="66" height="65" filterUnits="userSpaceOnUse" color-interpolation-filters="sRGB">
<feFlood flood-opacity="0" result="BackgroundImageFix"/>
<feColorMatrix in="SourceAlpha" type="matrix" values="0 0 0 0 0 0 0 0 0 0 0 0 0 0 0 0 0 0 127 0" result="hardAlpha"/>
<feOffset/>
<feGaussianBlur stdDeviation="3.5"/>
<feComposite in2="hardAlpha" operator="out"/>
<feColorMatrix type="matrix" values="0 0 0 0 1 0 0 0 0 0.542255 0 0 0 0 0.902087 0 0 0 0.2 0"/>
<feBlend mode="normal" in2="BackgroundImageFix" result="effect1_dropShadow_0_3160"/>
<feBlend mode="normal" in="SourceGraphic" in2="effect1_dropShadow_0_3160" result="shape"/>
</filter>
<linearGradient id="paint0_linear_0_3160" x1="13.7741" y1="53.1401" x2="50.4766" y2="16.5868" gradientUnits="userSpaceOnUse">
<stop stop-color="#FFB2B8"/>
<stop offset="0.14" stop-color="#FF7DB8"/>
<stop offset="0.18" stop-color="#FA75BC"/>
<stop offset="0.24" stop-color="#ED62C7"/>
<stop offset="0.31" stop-color="#D842D9"/>
<stop offset="0.38" stop-color="#BB15F2"/>
<stop offset="0.42" stop-color="#AD00FF"/>
<stop offset="0.51" stop-color="#A711FE"/>
<stop offset="0.59" stop-color="#A41BFE"/>
<stop offset="0.62" stop-color="#9A35FC"/>
<stop offset="0.68" stop-color="#8C5DFB"/>
<stop offset="0.74" stop-color="#817EF9"/>
<stop offset="0.8" stop-color="#7897F8"/>
<stop offset="0.86" stop-color="#71A9F7"/>
<stop offset="0.93" stop-color="#6EB4F7"/>
<stop offset="1" stop-color="#6DB8F7"/>
</linearGradient>
<clipPath id="clip0_0_3160">
<rect width="64" height="64" fill="white"/>
</clipPath>
</defs>
</svg>
