<svg width="48" height="48" viewBox="0 0 48 48" fill="none" xmlns="http://www.w3.org/2000/svg">
<path d="M24 0C10.7456 0 0 10.7447 0 24C0 37.2553 10.7456 48 24 48C37.2544 48 48 37.2553 48 24C48 10.7447 37.2553 0 24 0ZM19.47 35.5116C19.47 33.8606 20.8088 32.5219 22.4597 32.5219C24.1106 32.5219 25.4484 33.8606 25.4484 35.5116C25.4484 37.1625 24.1097 38.5003 22.4597 38.5003C20.8097 38.5003 19.47 37.1606 19.47 35.5116ZM32.2144 20.5172C31.8769 21.435 31.3894 22.2319 30.8363 22.8947C29.7253 24.2213 28.4091 25.0247 27.3263 25.6172C26.6025 26.0081 25.9641 26.31 25.5666 26.5331C25.2947 26.6831 25.1466 26.8097 25.0734 26.8922C25.0013 26.9794 24.9769 27.015 24.9328 27.1575C24.9075 27.2522 24.8803 27.4022 24.8803 27.6347V28.8075C24.8803 29.4141 24.3881 29.9072 23.7816 29.9072H21.1331C20.5256 29.9072 20.0334 29.4141 20.0334 28.8075V27.6347C20.0334 27.0309 20.1038 26.4403 20.2584 25.8741C20.4122 25.3106 20.6531 24.7753 20.9625 24.3094C21.5813 23.3644 22.4194 22.7344 23.2106 22.2956C23.9044 21.9141 24.5906 21.5962 25.2281 21.2381C25.8647 20.8828 26.4319 20.4966 26.85 20.0784C27.1303 19.7991 27.3478 19.5112 27.5147 19.1859C27.7331 18.7519 27.885 18.2419 27.8888 17.4619C27.8897 17.2312 27.8231 16.9275 27.6422 16.5806C27.4613 16.2347 27.1669 15.8597 26.7741 15.5222C25.9819 14.8425 24.8203 14.3466 23.4881 14.3484C21.9609 14.3541 20.9391 14.7122 20.1516 15.1566C19.3678 15.6047 19.1175 16.0566 19.1175 16.0566C18.7172 16.4053 18.1237 16.4175 17.7094 16.0856L15.6741 14.4544C15.4191 14.2509 15.2691 13.9444 15.2616 13.6172C15.2559 13.2909 15.3956 12.9787 15.6422 12.7641C15.6422 12.7641 16.2759 11.7863 17.7469 10.9472C19.2113 10.1044 21.1519 9.495 23.4881 9.50062C25.3828 9.50062 27.1294 10.0219 28.5759 10.875C30.0225 11.7328 31.1916 12.9131 31.9369 14.3325C32.4319 15.2766 32.7356 16.3416 32.7366 17.4619C32.7375 18.5672 32.5537 19.6003 32.2144 20.5181V20.5172Z" fill="#367F7B"/>
</svg>
