<svg width="60" height="46" viewBox="0 0 60 46" fill="none" xmlns="http://www.w3.org/2000/svg">
<path d="M26.1307 28.7572H36.0203C38.0086 28.7572 39.6184 27.1462 39.6184 25.159C39.6184 23.1719 38.0086 21.5645 36.0203 21.5645H21.636C12.643 21.5645 12.1367 23.6817 8.98926 26.828L13.7383 41.8912C9.09805 33.097 13.6541 41.7316 13.7383 41.8912C14.0163 41.9424 14.0163 41.9424 13.7383 41.8912C13.2356 41.8013 15.6131 42.2319 13.7383 41.8912L30.9377 45.0162C32.1371 45.2362 33.3731 44.9607 34.3703 44.2569C34.3703 44.2569 56.3222 28.9926 57.9415 27.6418C59.4886 26.2248 59.4697 24.1667 58.0527 22.6243C56.6333 21.0759 53.9862 21.4048 52.2214 22.7106C50.6045 24.0602 39.5558 31.3192 39.5558 31.3192H26.1307L26.0881 31.3393C25.3808 31.3156 24.8273 30.7242 24.8497 30.0157C24.8757 29.3096 25.4672 28.7548 26.1733 28.7797L26.1307 28.7572Z" fill="#3E7976"/>
<rect y="29.4355" width="8.69514" height="16.4939" rx="2" transform="rotate(-17.8572 0 29.4355)" fill="#3E7976"/>
<circle cx="7.82668" cy="40.3912" r="2.12908" transform="rotate(-20.5402 7.82668 40.3912)" fill="white"/>
<path d="M42.8768 8.89158L40.4401 10.3562C40.3324 10.4246 40.2199 10.4539 40.1024 10.4441C39.985 10.4344 39.8822 10.3953 39.7942 10.327C39.7061 10.2586 39.6376 10.1733 39.5887 10.0709C39.5397 9.9686 39.5299 9.85377 39.5593 9.72644L40.2052 6.95823L38.0473 5.09811C37.9495 5.01023 37.8884 4.91005 37.8641 4.79756C37.8398 4.68507 37.8471 4.57532 37.8858 4.4683C37.9246 4.36129 37.9833 4.27341 38.062 4.20466C38.1407 4.13592 38.2483 4.09198 38.3849 4.07284L41.2327 3.82385L42.3337 1.21675C42.3826 1.09958 42.4586 1.0117 42.5615 0.953114C42.6645 0.894528 42.7696 0.865234 42.8768 0.865234C42.9841 0.865234 43.0892 0.894528 43.1922 0.953114C43.2951 1.0117 43.371 1.09958 43.42 1.21675L44.5209 3.82385L47.3687 4.07284C47.5057 4.09237 47.6134 4.13631 47.6917 4.20466C47.77 4.27301 47.8287 4.36089 47.8678 4.4683C47.907 4.57571 47.9144 4.68566 47.8901 4.79815C47.8659 4.91063 47.8046 5.01062 47.7064 5.09811L45.5485 6.95823L46.1944 9.72644C46.2237 9.85338 46.214 9.96821 46.165 10.0709C46.1161 10.1737 46.0476 10.259 45.9595 10.327C45.8714 10.3949 45.7687 10.434 45.6512 10.4441C45.5338 10.4543 45.4213 10.425 45.3136 10.3562L42.8768 8.89158Z" fill="#3E7976"/>
<path d="M20.64 8.89158L18.2032 10.3562C18.0956 10.4246 17.983 10.4539 17.8656 10.4441C17.7482 10.4344 17.6454 10.3953 17.5573 10.327C17.4693 10.2586 17.4008 10.1733 17.3518 10.0709C17.3029 9.9686 17.2931 9.85377 17.3225 9.72644L17.9684 6.95823L15.8105 5.09811C15.7126 5.01023 15.6516 4.91005 15.6273 4.79756C15.603 4.68507 15.6103 4.57532 15.649 4.4683C15.6878 4.36129 15.7465 4.27341 15.8252 4.20466C15.9039 4.13592 16.0115 4.09198 16.1481 4.07284L18.9959 3.82385L20.0969 1.21675C20.1458 1.09958 20.2218 1.0117 20.3247 0.953114C20.4277 0.894528 20.5328 0.865234 20.64 0.865234C20.7473 0.865234 20.8524 0.894528 20.9553 0.953114C21.0583 1.0117 21.1342 1.09958 21.1832 1.21675L22.2841 3.82385L25.1319 4.07284C25.2689 4.09237 25.3766 4.13631 25.4549 4.20466C25.5332 4.27301 25.5919 4.36089 25.631 4.4683C25.6702 4.57571 25.6776 4.68566 25.6533 4.79815C25.6291 4.91063 25.5678 5.01062 25.4695 5.09811L23.3117 6.95823L23.9576 9.72644C23.9869 9.85338 23.9771 9.96821 23.9282 10.0709C23.8793 10.1737 23.8108 10.259 23.7227 10.327C23.6346 10.3949 23.5319 10.434 23.4144 10.4441C23.297 10.4543 23.1844 10.425 23.0768 10.3562L20.64 8.89158Z" fill="#3E7976"/>
<path d="M31.7582 17.7929L28.8054 19.565C28.675 19.6477 28.5386 19.6831 28.3963 19.6713C28.254 19.6595 28.1295 19.6122 28.0227 19.5295C27.916 19.4468 27.833 19.3436 27.7737 19.2198C27.7144 19.096 27.7026 18.957 27.7381 18.803L28.5208 15.4538L25.906 13.2033C25.7874 13.097 25.7134 12.9758 25.684 12.8397C25.6546 12.7036 25.6633 12.5708 25.7103 12.4413C25.7573 12.3118 25.8284 12.2055 25.9238 12.1223C26.0191 12.0392 26.1496 11.986 26.3151 11.9628L29.766 11.6616L31.1001 8.50733C31.1594 8.36556 31.2514 8.25924 31.3761 8.18835C31.5009 8.11747 31.6282 8.08203 31.7582 8.08203C31.8882 8.08203 32.0155 8.11747 32.1403 8.18835C32.2651 8.25924 32.3571 8.36556 32.4164 8.50733L33.7505 11.6616L37.2013 11.9628C37.3674 11.9865 37.4978 12.0396 37.5927 12.1223C37.6875 12.205 37.7587 12.3113 37.8061 12.4413C37.8536 12.5713 37.8626 12.7043 37.8332 12.8404C37.8038 12.9765 37.7295 13.0974 37.6105 13.2033L34.9956 15.4538L35.7783 18.803C35.8139 18.9566 35.802 19.0955 35.7427 19.2198C35.6834 19.3441 35.6004 19.4473 35.4937 19.5295C35.387 19.6118 35.2624 19.659 35.1201 19.6713C34.9778 19.6836 34.8415 19.6482 34.711 19.565L31.7582 17.7929Z" fill="#3E7976"/>
</svg>
