<svg width="51" height="51" viewBox="0 0 51 51" fill="none" xmlns="http://www.w3.org/2000/svg">
<circle cx="25.5" cy="25.5" r="22.5" fill="white" stroke="url(#paint0_linear_1_296)" stroke-width="6"/>
<g clip-path="url(#clip0_1_296)">
<path d="M25.2967 39.5399C24.2001 39.5399 23.2667 39.5632 22.4851 39.5982C21.7034 39.6449 20.9451 39.6916 20.2217 39.75C20.1634 39.4698 20.1401 39.2013 20.1401 38.9561C20.1401 38.7576 20.1867 38.6292 20.2917 38.5592C20.3851 38.4891 20.4901 38.4424 20.6067 38.4074C21.5051 38.2439 22.1234 38.0571 22.4501 37.8587C22.7884 37.6602 22.9517 37.3566 22.9517 36.9363V25.8334C22.9517 24.9928 22.8117 24.3507 22.5317 23.8954C22.2517 23.4517 21.5984 23.1832 20.5601 23.1015C20.1984 23.0431 20.0117 22.8213 20.0117 22.4243V22.1091C20.0117 21.9807 20.0351 21.8639 20.0934 21.7472C20.2567 21.7472 20.5017 21.7472 20.8284 21.7239C21.1551 21.7122 21.4934 21.7005 21.8551 21.6772C22.2167 21.6655 22.5784 21.6421 22.9517 21.6188C23.3134 21.5954 23.6517 21.5604 23.9551 21.5371C24.6551 21.4553 25.3317 21.3386 25.9734 21.1985C26.6151 21.0584 27.0467 20.9883 27.2801 20.9883C27.7234 20.9883 27.9567 21.1985 27.9567 21.6188C27.9567 21.9223 27.9101 22.3309 27.8284 22.833C27.7467 23.335 27.7001 24.0355 27.7001 24.9345V36.913C27.7001 37.3333 27.8867 37.6368 28.2484 37.8353C28.6101 38.0338 29.2167 38.2089 30.0567 38.384C30.3601 38.4424 30.5234 38.6175 30.5234 38.9328V39.3531C30.5234 39.4932 30.5001 39.6216 30.4417 39.7267C29.7417 39.6683 28.9834 39.6216 28.1784 39.5749C27.3617 39.5282 26.4167 39.5165 25.3201 39.5165L25.2967 39.5399Z" fill="#AC37BD"/>
</g>
<circle cx="24.5" cy="15.25" r="3.5" fill="#A438C1"/>
<defs>
<linearGradient id="paint0_linear_1_296" x1="6" y1="-1.5" x2="45" y2="59.625" gradientUnits="userSpaceOnUse">
<stop stop-color="#923ACA"/>
<stop offset="1" stop-color="#D94BC4"/>
</linearGradient>
<clipPath id="clip0_1_296">
<rect width="10.5" height="18.75" fill="white" transform="translate(20 21)"/>
</clipPath>
</defs>
</svg>
