<svg width="61" height="60" viewBox="0 0 61 60" fill="none" xmlns="http://www.w3.org/2000/svg">
<rect x="0.958008" y="0.208496" width="59.5833" height="59.5833" rx="29.7917" fill="url(#paint0_radial_326_99)"/>
<rect x="0.958008" y="0.208496" width="59.5833" height="59.5833" rx="29.7917" fill="url(#paint1_radial_326_99)"/>
<path d="M22.7418 10.9336H38.7578C44.8591 10.9336 49.8164 15.8909 49.8164 21.9923V38.0083C49.8164 40.9412 48.6513 43.754 46.5774 45.8279C44.5035 47.9018 41.6907 49.0669 38.7578 49.0669H22.7418C16.6404 49.0669 11.6831 44.1096 11.6831 38.0083V21.9923C11.6831 19.0593 12.8482 16.2465 14.9221 14.1726C16.996 12.0987 19.8088 10.9336 22.7418 10.9336ZM22.3604 14.7469C20.54 14.7469 18.7941 15.4701 17.5069 16.7573C16.2196 18.0446 15.4964 19.7905 15.4964 21.6109V38.3896C15.4964 42.1839 18.5662 45.2536 22.3604 45.2536H39.1391C40.9596 45.2536 42.7054 44.5304 43.9927 43.2432C45.2799 41.9559 46.0031 40.21 46.0031 38.3896V21.6109C46.0031 17.8167 42.9334 14.7469 39.1391 14.7469H22.3604ZM40.7598 17.6069C41.3919 17.6069 41.9981 17.858 42.445 18.305C42.892 18.752 43.1431 19.3582 43.1431 19.9903C43.1431 20.6224 42.892 21.2286 42.445 21.6755C41.9981 22.1225 41.3919 22.3736 40.7598 22.3736C40.1277 22.3736 39.5215 22.1225 39.0745 21.6755C38.6275 21.2286 38.3764 20.6224 38.3764 19.9903C38.3764 19.3582 38.6275 18.752 39.0745 18.305C39.5215 17.858 40.1277 17.6069 40.7598 17.6069ZM30.7498 20.4669C33.2782 20.4669 35.703 21.4713 37.4909 23.2592C39.2787 25.047 40.2831 27.4719 40.2831 30.0003C40.2831 32.5287 39.2787 34.9535 37.4909 36.7413C35.703 38.5292 33.2782 39.5336 30.7498 39.5336C28.2214 39.5336 25.7965 38.5292 24.0087 36.7413C22.2208 34.9535 21.2164 32.5287 21.2164 30.0003C21.2164 27.4719 22.2208 25.047 24.0087 23.2592C25.7965 21.4713 28.2214 20.4669 30.7498 20.4669ZM30.7498 24.2803C29.2327 24.2803 27.7778 24.8829 26.7051 25.9556C25.6324 27.0283 25.0298 28.4832 25.0298 30.0003C25.0298 31.5173 25.6324 32.9722 26.7051 34.0449C27.7778 35.1176 29.2327 35.7203 30.7498 35.7203C32.2668 35.7203 33.7217 35.1176 34.7944 34.0449C35.8671 32.9722 36.4698 31.5173 36.4698 30.0003C36.4698 28.4832 35.8671 27.0283 34.7944 25.9556C33.7217 24.8829 32.2668 24.2803 30.7498 24.2803Z" fill="white"/>
<defs>
<radialGradient id="paint0_radial_326_99" cx="0" cy="0" r="1" gradientUnits="userSpaceOnUse" gradientTransform="translate(16.7849 64.381) rotate(-90) scale(59.0515 54.9225)">
<stop stop-color="#FFDD55"/>
<stop offset="0.1" stop-color="#FFDD55"/>
<stop offset="0.5" stop-color="#FF543E"/>
<stop offset="1" stop-color="#C837AB"/>
</radialGradient>
<radialGradient id="paint1_radial_326_99" cx="0" cy="0" r="1" gradientUnits="userSpaceOnUse" gradientTransform="translate(-9.02252 4.50078) rotate(78.6806) scale(26.3963 108.806)">
<stop stop-color="#3771C8"/>
<stop offset="0.128" stop-color="#3771C8"/>
<stop offset="1" stop-color="#6600FF" stop-opacity="0"/>
</radialGradient>
</defs>
</svg>
