<svg width="4" height="19" viewBox="0 0 4 19" fill="none" xmlns="http://www.w3.org/2000/svg">
<path d="M2 3C2.55228 3 3 2.55228 3 2C3 1.44772 2.55228 1 2 1C1.44772 1 1 1.44772 1 2C1 2.55228 1.44772 3 2 3Z" stroke="#7E7E7E" stroke-width="2" stroke-linecap="round" stroke-linejoin="round"/>
<path d="M2 10.3335C2.55228 10.3335 3 9.88578 3 9.3335C3 8.78121 2.55228 8.3335 2 8.3335C1.44772 8.3335 1 8.78121 1 9.3335C1 9.88578 1.44772 10.3335 2 10.3335Z" stroke="#7E7E7E" stroke-width="2" stroke-linecap="round" stroke-linejoin="round"/>
<path d="M2 17.6665C2.55228 17.6665 3 17.2188 3 16.6665C3 16.1142 2.55228 15.6665 2 15.6665C1.44772 15.6665 1 16.1142 1 16.6665C1 17.2188 1.44772 17.6665 2 17.6665Z" stroke="#7E7E7E" stroke-width="2" stroke-linecap="round" stroke-linejoin="round"/>
</svg>
