<svg width="28" height="28" viewBox="0 0 28 28" fill="none" xmlns="http://www.w3.org/2000/svg">
<path d="M17.2644 22.2776C15.8622 22.2776 14.3396 22.1266 12.6333 21.8991C11.9945 21.8138 11.3798 21.7766 10.7913 21.7766C5.88677 21.7766 2.89852 24.4301 2.89852 24.4301L1.42847 9.78693C1.42847 9.78693 3.22448 6.26287 9.21627 6.26287C9.34534 6.26287 9.4766 6.26506 9.61004 6.26725C11.5045 6.31537 13.1299 6.43568 14.589 6.43568C17.4503 6.43568 19.6839 5.96975 22.0858 3.56787L26.5726 18.2132C23.5493 21.326 20.782 22.2776 17.2644 22.2776Z" fill="white"/>
<path d="M27.8143 17.8326L23.3278 3.1873C23.2618 2.97276 23.1415 2.77889 22.9787 2.62445C22.8158 2.47 22.6158 2.36023 22.3981 2.30574C22.2931 2.28168 22.1903 2.26855 22.0853 2.26855C21.744 2.26855 21.4115 2.40199 21.1665 2.64918C19.0753 4.74043 17.2421 5.13637 14.5887 5.13637C13.7837 5.13637 12.8999 5.09699 11.9637 5.05543C11.2287 5.02262 10.4674 4.98762 9.64276 4.96793C9.49838 4.96355 9.35619 4.96355 9.21619 4.96355C2.50494 4.96355 0.359005 9.02356 0.271505 9.19637C0.158346 9.41834 0.111274 9.66812 0.13588 9.91606L1.60588 24.5614C1.62955 24.7997 1.71872 25.0267 1.8635 25.2175C2.00829 25.4082 2.20304 25.5551 2.42619 25.642C2.64962 25.7283 2.89248 25.7515 3.12821 25.7091C3.36394 25.6666 3.58346 25.5602 3.76276 25.4014C3.78463 25.3817 6.48182 23.0761 10.7912 23.0761C11.3424 23.0761 11.9046 23.1132 12.4603 23.1876C14.4881 23.4567 15.969 23.577 17.2618 23.577C21.4028 23.577 24.4653 22.2426 27.5015 19.1189C27.6647 18.9526 27.78 18.7452 27.835 18.5188C27.8901 18.2924 27.8829 18.0553 27.8143 17.8326ZM17.264 22.2776C15.8618 22.2776 14.3393 22.1267 12.6331 21.8992C11.9943 21.8139 11.3796 21.7767 10.7912 21.7767C5.88682 21.7767 2.89869 24.4301 2.89869 24.4301L1.42869 9.78699C1.42869 9.78699 3.22463 6.26293 9.21619 6.26293C9.34526 6.26293 9.47651 6.26512 9.60994 6.2673C11.5043 6.31543 13.1296 6.43574 14.5887 6.43574C17.4499 6.43574 19.6834 5.9698 22.0853 3.56793L26.5718 18.2132C23.5487 21.3261 20.7815 22.2776 17.264 22.2776Z" fill="#C0C0C0"/>
<path d="M8.67564 11.8454C7.88155 13.5341 8.6472 15.8157 10.0582 16.8569C10.4279 17.1304 10.8326 17.3491 11.2198 17.5198C12.0358 17.8763 13.0289 18.0732 13.904 18.1279C16.9163 18.3182 19.852 15.5991 17.9576 12.2741C16.3606 9.47851 10.2616 8.46788 8.67564 11.8454Z" fill="#E74600"/>
</svg>
