<svg width="24" height="24" viewBox="0 0 24 24" fill="none" xmlns="http://www.w3.org/2000/svg">
<path d="M14.1358 8.952C14.0759 8.952 14.0166 8.9638 13.9613 8.98671C13.9059 9.00963 13.8557 9.04322 13.8133 9.08556C13.771 9.1279 13.7374 9.17817 13.7145 9.2335C13.6916 9.28882 13.6798 9.34812 13.6798 9.408V11.412L11.9998 9.18C11.9579 9.11208 11.8998 9.05566 11.8306 9.01585C11.7615 8.97605 11.6835 8.9541 11.6038 8.952C11.5439 8.952 11.4846 8.9638 11.4293 8.98671C11.3739 9.00963 11.3237 9.04322 11.2813 9.08556C11.239 9.1279 11.2054 9.17817 11.1825 9.2335C11.1596 9.28882 11.1478 9.34812 11.1478 9.408V12.816C11.1478 12.8759 11.1596 12.9352 11.1825 12.9905C11.2054 13.0458 11.239 13.0961 11.2813 13.1384C11.3237 13.1808 11.3739 13.2144 11.4293 13.2373C11.4846 13.2602 11.5439 13.272 11.6038 13.272C11.6636 13.272 11.7229 13.2602 11.7783 13.2373C11.8336 13.2144 11.8839 13.1808 11.9262 13.1384C11.9685 13.0961 12.0021 13.0458 12.025 12.9905C12.048 12.9352 12.0598 12.8759 12.0598 12.816V10.8L13.7278 13.092C13.7702 13.1559 13.834 13.2027 13.9078 13.224C13.963 13.2373 14.0205 13.2373 14.0758 13.224C14.1284 13.2431 14.1845 13.2509 14.2403 13.2468C14.2962 13.2426 14.3505 13.2267 14.3998 13.2L14.5198 13.116C14.603 13.0285 14.6501 12.9128 14.6518 12.792V9.408C14.6523 9.34272 14.6389 9.27807 14.6123 9.21844C14.5857 9.1588 14.5467 9.10557 14.4977 9.06234C14.4488 9.01911 14.3912 8.98688 14.3287 8.96785C14.2663 8.94881 14.2005 8.94341 14.1358 8.952ZM8.63976 12.324H7.36776V9.408C7.36776 9.28706 7.31971 9.17108 7.2342 9.08556C7.14868 9.00004 7.0327 8.952 6.91176 8.952C6.79082 8.952 6.67483 9.00004 6.58932 9.08556C6.5038 9.17108 6.45576 9.28706 6.45576 9.408V12.816C6.45576 12.9369 6.5038 13.0529 6.58932 13.1384C6.67483 13.224 6.79082 13.272 6.91176 13.272H8.63976C8.76183 13.272 8.87908 13.2244 8.96651 13.1392C9.05394 13.054 9.10463 12.938 9.10776 12.816C9.11101 12.7526 9.10132 12.6891 9.07926 12.6295C9.05721 12.5699 9.02325 12.5155 8.97946 12.4694C8.93568 12.4234 8.88298 12.3868 8.82457 12.3618C8.76617 12.3368 8.70329 12.3239 8.63976 12.324ZM9.97176 8.952C9.84969 8.95196 9.73243 8.99962 9.645 9.0848C9.55757 9.16999 9.50689 9.28597 9.50376 9.408V12.816C9.50689 12.938 9.55757 13.054 9.645 13.1392C9.73243 13.2244 9.84969 13.272 9.97176 13.272C10.0927 13.272 10.2087 13.224 10.2942 13.1384C10.3797 13.0529 10.4278 12.9369 10.4278 12.816V9.408C10.4278 9.28706 10.3797 9.17108 10.2942 9.08556C10.2087 9.00004 10.0927 8.952 9.97176 8.952ZM19.0918 0H4.90776C3.60705 0.00316861 2.36052 0.521277 1.44078 1.44102C0.521033 2.36076 0.00292447 3.60729 -0.000244141 4.908V19.092C0.00292447 20.3927 0.521033 21.6392 1.44078 22.559C2.36052 23.4787 3.60705 23.9968 4.90776 24H19.0918C20.3925 23.9968 21.639 23.4787 22.5587 22.559C23.4785 21.6392 23.9966 20.3927 23.9998 19.092V4.908C23.9966 3.60729 23.4785 2.36076 22.5587 1.44102C21.639 0.521277 20.3925 0.00316861 19.0918 0ZM19.4638 14.736C19.4154 14.8067 19.3634 14.8748 19.3078 14.94C19.0216 15.2921 18.6999 15.6139 18.3478 15.9C15.9478 18.144 11.9158 20.832 11.3758 20.412C10.8358 19.992 12.1438 18.3 10.7398 18.012C10.6402 18.0245 10.5394 18.0245 10.4398 18.012C6.31176 17.436 3.23976 14.544 3.23976 11.076C3.23976 7.176 7.18776 4.02 12.0478 4.02C16.9078 4.02 20.8558 7.176 20.8558 11.076C20.8141 12.4173 20.324 13.706 19.4638 14.736ZM17.4118 8.964H15.5998C15.5399 8.964 15.4806 8.9758 15.4253 8.99871C15.3699 9.02163 15.3197 9.05522 15.2773 9.09756C15.235 9.1399 15.2014 9.19017 15.1785 9.2455C15.1556 9.30082 15.1438 9.36012 15.1438 9.42V12.828C15.1438 12.9489 15.1918 13.0649 15.2773 13.1504C15.3628 13.236 15.4788 13.284 15.5998 13.284H17.3758C17.4967 13.284 17.6127 13.236 17.6982 13.1504C17.7837 13.0649 17.8318 12.9489 17.8318 12.828C17.8318 12.7681 17.82 12.7088 17.797 12.6535C17.7741 12.5982 17.7405 12.5479 17.6982 12.5056C17.6559 12.4632 17.6056 12.4296 17.5503 12.4067C17.4949 12.3838 17.4356 12.372 17.3758 12.372H16.1398V11.652H17.4118C17.5338 11.6489 17.6498 11.5982 17.735 11.5108C17.8201 11.4233 17.8678 11.3061 17.8678 11.184C17.8678 11.0631 17.8197 10.9471 17.7342 10.8616C17.6487 10.776 17.5327 10.728 17.4118 10.728H16.1398V9.996H17.4118C17.4716 9.996 17.5309 9.98421 17.5863 9.96129C17.6416 9.93837 17.6919 9.90478 17.7342 9.86244C17.7765 9.8201 17.8101 9.76983 17.833 9.7145C17.856 9.65918 17.8678 9.59988 17.8678 9.54C17.8866 9.47103 17.889 9.39858 17.8747 9.32852C17.8604 9.25846 17.8298 9.19274 17.7854 9.13667C17.741 9.08061 17.6841 9.03577 17.6192 9.00577C17.5543 8.97578 17.4832 8.96147 17.4118 8.964Z" fill="white"/>
</svg>
