<svg width="50" height="50" viewBox="0 0 50 50" fill="none" xmlns="http://www.w3.org/2000/svg">
<g clip-path="url(#clip0_1_74)">
<path d="M38.7281 0H11.2719C5.04659 0 0 5.04659 0 11.2719V38.7281C0 44.9534 5.04659 50 11.2719 50H38.7281C44.9534 50 50 44.9534 50 38.7281V11.2719C50 5.04659 44.9534 0 38.7281 0Z" fill="white"/>
<path d="M41.6658 22.6453C41.6658 15.1859 34.1877 9.11719 24.9955 9.11719C15.8033 9.11719 8.3252 15.1859 8.3252 22.6453C8.3252 29.3328 14.2564 34.9328 22.2674 35.9922C22.8096 36.1094 23.5486 36.35 23.7361 36.8141C23.9049 37.2359 23.8455 37.8953 23.7908 38.3219C23.7908 38.3219 23.5955 39.4984 23.5533 39.7484C23.4799 40.1703 23.2189 41.3969 24.9971 40.6469C26.7768 39.8969 34.5971 34.9937 38.0939 30.9687C40.5096 28.3187 41.6674 25.6312 41.6674 22.6453H41.6658Z" fill="#01B902"/>
<path d="M36.1188 26.9516H31.4359C31.2594 26.9516 31.1172 26.8094 31.1172 26.6328V26.6281V19.3656V19.3578C31.1172 19.1813 31.2594 19.0391 31.4359 19.0391H36.1188C36.2938 19.0391 36.4375 19.1828 36.4375 19.3578V20.5406C36.4375 20.7172 36.2953 20.8594 36.1188 20.8594H32.9359V22.0875H36.1188C36.2938 22.0875 36.4375 22.2312 36.4375 22.4062V23.5891C36.4375 23.7656 36.2953 23.9078 36.1188 23.9078H32.9359V25.1359H36.1188C36.2938 25.1359 36.4375 25.2797 36.4375 25.4547V26.6375C36.4375 26.8141 36.2953 26.9563 36.1188 26.9563V26.9516Z" fill="white"/>
<path d="M18.7951 26.9531C18.9701 26.9531 19.1139 26.8109 19.1139 26.6344V25.4516C19.1139 25.2766 18.9701 25.1328 18.7951 25.1328H15.6123V19.3578C15.6123 19.1828 15.4686 19.0391 15.2936 19.0391H14.1107C13.9342 19.0391 13.792 19.1813 13.792 19.3578V26.6281V26.6344C13.792 26.8109 13.9342 26.9531 14.1107 26.9531H18.7936H18.7951Z" fill="white"/>
<path d="M21.614 19.0391H20.4328C20.2567 19.0391 20.114 19.1818 20.114 19.3578V26.6328C20.114 26.8089 20.2567 26.9516 20.4328 26.9516H21.614C21.7901 26.9516 21.9328 26.8089 21.9328 26.6328V19.3578C21.9328 19.1818 21.7901 19.0391 21.614 19.0391Z" fill="white"/>
<path d="M29.6623 19.0391H28.4794C28.3029 19.0391 28.1607 19.1813 28.1607 19.3578V23.6781L24.8326 19.1828C24.8248 19.1719 24.8154 19.1609 24.8076 19.15C24.8076 19.15 24.8076 19.15 24.806 19.1484C24.7998 19.1422 24.7935 19.1344 24.7873 19.1281C24.7857 19.1266 24.7826 19.125 24.781 19.1234C24.7748 19.1188 24.7701 19.1141 24.7638 19.1094C24.7607 19.1078 24.7576 19.1047 24.7544 19.1031C24.7498 19.0984 24.7435 19.0953 24.7373 19.0922C24.7341 19.0906 24.731 19.0875 24.7279 19.0859C24.7216 19.0828 24.7169 19.0797 24.7107 19.0766C24.7076 19.075 24.7044 19.0734 24.7013 19.0719C24.6951 19.0687 24.6888 19.0656 24.6826 19.0641C24.6794 19.0641 24.6763 19.0609 24.6716 19.0609C24.6654 19.0594 24.6591 19.0562 24.6529 19.0547C24.6498 19.0547 24.6451 19.0531 24.6419 19.0516C24.6357 19.0516 24.6294 19.0484 24.6232 19.0469C24.6185 19.0469 24.6138 19.0469 24.6091 19.0453C24.6029 19.0453 24.5982 19.0437 24.5919 19.0437C24.5857 19.0437 24.581 19.0437 24.5748 19.0437C24.5716 19.0437 24.5669 19.0437 24.5638 19.0437H23.3888C23.2138 19.0437 23.0701 19.1859 23.0701 19.3625V26.6375C23.0701 26.8125 23.2123 26.9563 23.3888 26.9563H24.5716C24.7482 26.9563 24.8904 26.8141 24.8904 26.6375V22.3172L28.2232 26.8187C28.2466 26.8516 28.2748 26.8781 28.306 26.8984C28.306 26.8984 28.3091 26.9 28.3091 26.9016C28.3154 26.9062 28.3216 26.9094 28.3294 26.9141C28.3326 26.9156 28.3357 26.9172 28.3388 26.9187C28.3435 26.9219 28.3498 26.9234 28.3544 26.9266C28.3591 26.9297 28.3654 26.9312 28.3701 26.9328C28.3732 26.9328 28.3763 26.9359 28.3794 26.9359C28.3873 26.9391 28.3935 26.9406 28.4013 26.9422C28.4013 26.9422 28.4044 26.9422 28.406 26.9422C28.4326 26.9484 28.4607 26.9531 28.4888 26.9531H29.6638C29.8388 26.9531 29.9826 26.8109 29.9826 26.6344V19.3594C29.9826 19.1844 29.8404 19.0406 29.6638 19.0406L29.6623 19.0391Z" fill="white"/>
</g>
<defs>
<clipPath id="clip0_1_74">
<rect width="50" height="50" fill="white"/>
</clipPath>
</defs>
</svg>
