<svg width="36" height="36" viewBox="0 0 36 36" fill="none" xmlns="http://www.w3.org/2000/svg">
<g clip-path="url(#clip0_1_1752)">
<path d="M27.8842 0H8.11575C3.63354 0 0 3.63354 0 8.11575V27.8842C0 32.3665 3.63354 36 8.11575 36H27.8842C32.3665 36 36 32.3665 36 27.8842V8.11575C36 3.63354 32.3665 0 27.8842 0Z" fill="white"/>
<path d="M29.9994 16.3047C29.9994 10.934 24.6151 6.56445 17.9968 6.56445C11.3784 6.56445 5.99414 10.934 5.99414 16.3047C5.99414 21.1197 10.2646 25.1517 16.0325 25.9145C16.4229 25.9988 16.955 26.1721 17.09 26.5062C17.2115 26.81 17.1688 27.2847 17.1294 27.5918C17.1294 27.5918 16.9888 28.439 16.9584 28.619C16.9055 28.9227 16.7176 29.8058 17.9979 29.2658C19.2793 28.7258 24.9099 25.1956 27.4276 22.2976C29.1669 20.3896 30.0005 18.4546 30.0005 16.3047H29.9994Z" fill="#01B902"/>
<path d="M26.0054 19.405H22.6338C22.5067 19.405 22.4043 19.3026 22.4043 19.1755V19.1721V13.9431V13.9375C22.4043 13.8104 22.5067 13.708 22.6338 13.708H26.0054C26.1314 13.708 26.2349 13.8115 26.2349 13.9375V14.7891C26.2349 14.9163 26.1325 15.0186 26.0054 15.0186H23.7138V15.9029H26.0054C26.1314 15.9029 26.2349 16.0064 26.2349 16.1324V16.984C26.2349 17.1111 26.1325 17.2135 26.0054 17.2135H23.7138V18.0978H26.0054C26.1314 18.0978 26.2349 18.2013 26.2349 18.3273V19.1789C26.2349 19.306 26.1325 19.4084 26.0054 19.4084V19.405Z" fill="white"/>
<path d="M13.5324 19.4061C13.6584 19.4061 13.7619 19.3038 13.7619 19.1766V18.325C13.7619 18.199 13.6584 18.0955 13.5324 18.0955H11.2408V13.9375C11.2408 13.8115 11.1373 13.708 11.0113 13.708H10.1597C10.0326 13.708 9.93018 13.8104 9.93018 13.9375V19.1721V19.1766C9.93018 19.3038 10.0326 19.4061 10.1597 19.4061H13.5313H13.5324Z" fill="white"/>
<path d="M15.5622 13.708H14.7117C14.5849 13.708 14.4822 13.8108 14.4822 13.9375V19.1755C14.4822 19.3023 14.5849 19.405 14.7117 19.405H15.5622C15.6889 19.405 15.7917 19.3023 15.7917 19.1755V13.9375C15.7917 13.8108 15.6889 13.708 15.5622 13.708Z" fill="white"/>
<path d="M21.357 13.708H20.5053C20.3782 13.708 20.2758 13.8104 20.2758 13.9375V17.0481L17.8796 13.8115C17.874 13.8036 17.8672 13.7958 17.8616 13.7879C17.8616 13.7879 17.8616 13.7879 17.8605 13.7868C17.856 13.7823 17.8515 13.7766 17.847 13.7721C17.8458 13.771 17.8436 13.7699 17.8425 13.7688C17.838 13.7654 17.8346 13.762 17.8301 13.7586C17.8278 13.7575 17.8256 13.7553 17.8233 13.7541C17.82 13.7508 17.8155 13.7485 17.811 13.7463C17.8087 13.7451 17.8065 13.7429 17.8042 13.7418C17.7997 13.7395 17.7963 13.7373 17.7918 13.735C17.7896 13.7339 17.7873 13.7328 17.7851 13.7316C17.7806 13.7294 17.7761 13.7271 17.7716 13.726C17.7693 13.726 17.7671 13.7238 17.7637 13.7238C17.7592 13.7226 17.7547 13.7204 17.7502 13.7193C17.748 13.7193 17.7446 13.7181 17.7423 13.717C17.7378 13.717 17.7333 13.7148 17.7288 13.7136C17.7255 13.7136 17.7221 13.7136 17.7187 13.7125C17.7142 13.7125 17.7108 13.7114 17.7063 13.7114C17.7018 13.7114 17.6985 13.7114 17.694 13.7114C17.6917 13.7114 17.6883 13.7114 17.6861 13.7114H16.8401C16.7141 13.7114 16.6106 13.8138 16.6106 13.9409V19.1789C16.6106 19.3049 16.713 19.4084 16.8401 19.4084H17.6917C17.8188 19.4084 17.9212 19.306 17.9212 19.1789V16.0683L20.3208 19.3094C20.3377 19.333 20.358 19.3521 20.3805 19.3668C20.3805 19.3668 20.3827 19.3679 20.3827 19.369C20.3872 19.3724 20.3917 19.3746 20.3973 19.378C20.3996 19.3791 20.4018 19.3803 20.4041 19.3814C20.4075 19.3836 20.412 19.3848 20.4153 19.387C20.4187 19.3893 20.4232 19.3904 20.4266 19.3915C20.4288 19.3915 20.4311 19.3938 20.4333 19.3938C20.439 19.396 20.4435 19.3971 20.4491 19.3983C20.4491 19.3983 20.4513 19.3983 20.4525 19.3983C20.4716 19.4028 20.4918 19.4061 20.5121 19.4061H21.3581C21.4841 19.4061 21.5876 19.3038 21.5876 19.1766V13.9386C21.5876 13.8126 21.4852 13.7091 21.3581 13.7091L21.357 13.708Z" fill="white"/>
</g>
<defs>
<clipPath id="clip0_1_1752">
<rect width="36" height="36" fill="white"/>
</clipPath>
</defs>
</svg>
