<svg width="40" height="40" viewBox="0 0 40 40" fill="none" xmlns="http://www.w3.org/2000/svg">
<path d="M31.1066 18.0666C31.1062 18.2988 31.0136 18.5214 30.8493 18.6854C30.6849 18.8495 30.4622 18.9416 30.23 18.9416H27.7933V20.505H30.2316C30.3497 20.4998 30.4675 20.5186 30.578 20.5602C30.6886 20.6018 30.7896 20.6654 30.8749 20.7471C30.9602 20.8287 31.0281 20.9268 31.0745 21.0355C31.1209 21.1441 31.1448 21.261 31.1448 21.3791C31.1448 21.4972 31.1209 21.6141 31.0745 21.7228C31.0281 21.8314 30.9602 21.9295 30.8749 22.0112C30.7896 22.0929 30.6886 22.1564 30.578 22.198C30.4675 22.2397 30.3497 22.2584 30.2316 22.2533H26.9166C26.6859 22.2515 26.4651 22.1589 26.3022 21.9954C26.1394 21.8319 26.0475 21.6107 26.0466 21.38V14.7533C26.0466 14.275 26.4383 13.8783 26.9216 13.8783H30.235C30.4577 13.8925 30.6666 13.991 30.8192 14.1539C30.9717 14.3168 31.0564 14.5317 31.056 14.7549C31.0555 14.978 30.97 15.1926 30.8169 15.3549C30.6637 15.5172 30.4544 15.615 30.2316 15.6283H27.7933V17.1916H30.2316C30.715 17.1916 31.1066 17.5866 31.1066 18.0666ZM24.275 22.2083C24.1858 22.2377 24.0922 22.2518 23.9983 22.25C23.8612 22.2523 23.7256 22.2221 23.6024 22.1619C23.4793 22.1016 23.3722 22.013 23.29 21.9033L19.8966 17.2966V21.38C19.88 21.5999 19.7808 21.8055 19.619 21.9555C19.4573 22.1055 19.2448 22.1889 19.0241 22.1889C18.8035 22.1889 18.591 22.1055 18.4293 21.9555C18.2675 21.8055 18.1683 21.5999 18.1516 21.38V14.7533C18.151 14.6391 18.1729 14.5258 18.2162 14.4201C18.2594 14.3144 18.3232 14.2182 18.4037 14.1372C18.4843 14.0562 18.58 13.9919 18.6855 13.9481C18.791 13.9042 18.9041 13.8816 19.0183 13.8816C19.2883 13.8816 19.5383 14.025 19.705 14.2333L23.125 18.8583V14.7533C23.125 14.275 23.5166 13.8783 24 13.8783C24.4783 13.8783 24.875 14.275 24.875 14.7533V21.38C24.8758 21.5638 24.8181 21.7432 24.7102 21.8921C24.6023 22.041 24.4499 22.1517 24.275 22.2083ZM16.025 22.2533C15.7939 22.252 15.5727 22.1595 15.4095 21.9959C15.2463 21.8324 15.1542 21.611 15.1533 21.38V14.7533C15.1533 14.275 15.545 13.8783 16.0283 13.8783C16.51 13.8783 16.9016 14.275 16.9016 14.7533V21.38C16.9003 21.6117 16.8074 21.8336 16.6432 21.9972C16.479 22.1608 16.2568 22.2529 16.025 22.2533ZM13.475 22.2533H10.165C9.93388 22.2511 9.71282 22.1585 9.54925 21.9952C9.38567 21.8319 9.29259 21.6111 9.28998 21.38V14.7533C9.28998 14.275 9.68665 13.8783 10.165 13.8783C10.6483 13.8783 11.04 14.275 11.04 14.7533V20.5033H13.48C13.712 20.5033 13.9346 20.5955 14.0987 20.7596C14.2628 20.9237 14.355 21.1462 14.355 21.3783C14.355 21.6104 14.2628 21.8329 14.0987 21.997C13.9346 22.1611 13.712 22.2533 13.48 22.2533M20.005 4.28662C10.8166 4.28662 3.33832 10.3583 3.33832 17.8166C3.33832 24.5 9.26832 30.0983 17.2766 31.1616C17.8183 31.275 18.5583 31.52 18.745 31.9816C18.9116 32.3983 18.855 33.045 18.7983 33.4816L18.57 34.8983C18.5083 35.315 18.2366 36.545 20.0266 35.7933C21.82 35.045 29.6333 30.13 33.1333 26.1066C35.5233 23.4816 36.6666 20.795 36.6666 17.8166C36.6666 10.3583 29.1866 4.28662 20 4.28662" fill="black"/>
</svg>
