<svg width="80" height="80" viewBox="0 0 80 80" fill="none" xmlns="http://www.w3.org/2000/svg">
<rect x="1" y="1" width="78" height="78" rx="39" stroke="#FB2C2B" stroke-width="2"/>
<path d="M37.8928 30.8217L38.9939 29.6921C39.4601 29.2137 40.214 29.2137 40.6752 29.6921L50.317 39.5794C50.7832 40.0577 50.7832 40.8312 50.317 41.3044L40.6752 51.1968C40.209 51.6751 39.4551 51.6751 38.9939 51.1968L37.8928 50.0671C37.4216 49.5837 37.4316 48.7949 37.9126 48.3217L43.8892 42.4799H29.6348C28.9752 42.4799 28.4445 41.9354 28.4445 41.2586V39.6302C28.4445 38.9534 28.9752 38.409 29.6348 38.409H43.8892L37.9126 32.5672C37.4266 32.0939 37.4167 31.3052 37.8928 30.8217Z" fill="#FB2C2B"/>
</svg>
