<svg width="27" height="27" viewBox="0 0 27 27" fill="none" xmlns="http://www.w3.org/2000/svg">
<path d="M1.00006 11.625C1.00006 17.4925 6.59631 22.25 13.5001 22.25C14.3584 22.2492 15.1917 22.1783 16.0001 22.0375V26C18.0876 23.9563 21.6251 20.375 23.8201 17.6213C25.1951 15.915 26.0001 13.85 26.0001 11.625C26.0001 5.7575 20.4038 1 13.5001 1C6.59631 1 1.00006 5.7575 1.00006 11.625Z" stroke="white" stroke-width="1.5" stroke-linecap="round" stroke-linejoin="round"/>
<path d="M6.00006 9.125V14.125H7.25006M9.75006 9.125V14.125M12.3751 14.125V9.125L15.3751 14.125V9.125M20.3751 9.125H18.0001V11.625M18.0001 11.625V14.125H20.3751M18.0001 11.625H19.8001" stroke="white" stroke-width="1.5" stroke-linecap="round" stroke-linejoin="round"/>
</svg>
