<svg width="28" height="27" viewBox="0 0 28 27" fill="none" xmlns="http://www.w3.org/2000/svg">
<path d="M16.9375 10.7617V14.9219C16.9375 15.0391 16.8203 15.0977 16.7031 15.0977H16.0586C16 15.0977 15.9414 15.0391 15.8828 15.0391L14.0078 12.4609V14.9219C14.0078 15.0391 13.8906 15.0977 13.832 15.0977H13.1289C13.0117 15.0977 12.9531 15.0391 12.9531 14.9219V10.7617C12.9531 10.6445 13.0117 10.5859 13.1289 10.5859H13.832C13.8906 10.5859 13.9492 10.5859 13.9492 10.6445L15.8828 13.2227V10.7617C15.8828 10.6445 15.9414 10.5859 16.0586 10.5859H16.7031C16.8203 10.5273 16.9375 10.6445 16.9375 10.7617ZM12.1328 10.5273C12.1914 10.5273 12.3086 10.6445 12.3086 10.7617V14.9219C12.3086 15.0391 12.1914 15.0977 12.1328 15.0977H11.4297C11.3125 15.0977 11.2539 15.0391 11.2539 14.9219V10.7617C11.2539 10.6445 11.3125 10.5273 11.4297 10.5273H12.1328ZM10.4922 14.043C10.6094 14.043 10.668 14.1602 10.668 14.2188V14.9219C10.668 14.9805 10.6094 15.0977 10.4922 15.0977H7.79688C7.73828 15.0977 7.73828 15.0391 7.67969 15.0391C7.67969 14.9805 7.62109 14.9805 7.62109 14.9219V10.7617C7.62109 10.6445 7.73828 10.5273 7.79688 10.5273H8.5C8.61719 10.5273 8.67578 10.6445 8.67578 10.7617V14.043H10.4922ZM20.4531 10.5273C20.5117 10.5273 20.6289 10.6445 20.6289 10.7617V11.4062C20.6289 11.5234 20.5117 11.582 20.4531 11.582H18.6367V12.2852H20.4531C20.5117 12.2852 20.6289 12.4023 20.6289 12.4609V13.1641C20.6289 13.2812 20.5117 13.3398 20.4531 13.3398H18.6367V14.043H20.4531C20.5117 14.043 20.6289 14.1602 20.6289 14.2188V14.9219C20.6289 15.0391 20.5117 15.0977 20.4531 15.0977H17.7578C17.6406 15.0977 17.582 14.9805 17.582 14.9219V10.7617C17.582 10.6445 17.6406 10.5273 17.7578 10.5273H20.4531ZM27.25 5.42969V22.1289C27.1914 24.7656 25.082 26.9336 22.4453 26.875H5.74609C3.10938 26.875 0.941406 24.7656 1 22.1289V5.37109C1 2.79297 3.10938 0.625 5.74609 0.625H22.5039C25.082 0.683594 27.25 2.79297 27.25 5.42969ZM23.6172 12.6367C23.6172 8.35938 19.3398 4.84375 14.0664 4.84375C8.79297 4.84375 4.51562 8.35938 4.51562 12.6367C4.51562 16.4453 7.91406 19.668 12.4844 20.2539C13.5977 20.4883 13.4805 20.8984 13.2461 22.4219C13.1875 22.6562 13.0117 23.3594 14.0664 22.9492C15.0625 22.5391 19.5742 19.7266 21.5664 17.3828C22.9727 15.8594 23.6172 14.3359 23.6172 12.6367Z" fill="white"/>
</svg>
