<svg width="54" height="48" viewBox="0 0 54 48" fill="none" xmlns="http://www.w3.org/2000/svg">
<path d="M34.9973 7.97349L14.6249 18.4105C14.0301 18.7159 13.7928 19.4498 14.0955 20.0491C14.4003 20.6472 15.129 20.888 15.7249 20.5825L36.0973 10.1445C36.6942 9.83796 36.9315 9.10511 36.6278 8.50589C36.323 7.90561 35.5932 7.66699 34.9962 7.97349H34.9973Z" fill="#3E7976"/>
<path d="M32.8171 24.8483C33.1209 25.4465 33.8507 25.6851 34.4466 25.3786L43.21 20.8892C43.807 20.5827 44.0422 19.8499 43.7395 19.2507C43.4347 18.6525 42.7059 18.4139 42.11 18.7183L33.3466 23.2076C32.7517 23.5141 32.5144 24.247 32.8171 24.8483Z" fill="#3E7976"/>
<path d="M38.6968 13.3276L29.9334 17.8181C29.3364 18.1235 29.0991 18.8574 29.4039 19.4556C29.7077 20.0558 30.4354 20.2945 31.0323 19.988L39.7957 15.4986C40.3927 15.1932 40.63 14.4593 40.3262 13.86C40.0214 13.2619 39.2927 13.0233 38.6968 13.3276Z" fill="#3E7976"/>
<path d="M2.33832 27.5458C2.33832 27.5458 2.33641 27.5439 2.33545 27.543L2.33832 27.5458Z" fill="#3E7976"/>
<path d="M53.0576 19.0891L53.0608 19.0922L42.3146 3.33971L42.3124 3.33759C41.9085 2.75428 41.4244 2.25051 40.8939 1.82947C40.0976 1.19631 39.1979 0.742394 38.2698 0.444376C37.3385 0.146358 36.3777 0 35.4348 0C34.2188 0.00318169 33.0291 0.238627 31.9776 0.774211L31.9807 0.771029L5.87615 13.8966C5.14947 14.2094 4.43228 14.5806 3.75834 15.0367C2.71525 15.743 1.76393 16.6572 1.07838 17.8355C0.737715 18.4241 0.465605 19.0753 0.281035 19.7795C0.0964649 20.4837 0.000488281 21.2409 0.000488281 22.0427C0.000488281 22.1732 0.00365234 22.3058 0.00892578 22.4426V22.4404C0.0300195 23.0036 0.155527 23.5243 0.322168 24.0069C0.576348 24.7313 0.930723 25.3835 1.29459 25.9806C1.6574 26.5724 2.03287 27.1037 2.33451 27.5428L13.2062 43.201V43.1988C14.1523 44.6433 15.2977 45.8375 16.6392 46.6785C17.3153 47.1006 18.042 47.4337 18.8045 47.6574C19.5671 47.8812 20.3665 47.9989 21.186 47.9989C22.7153 47.9989 24.2994 47.5927 25.8772 46.7994L51.3596 33.9762C52.121 33.5954 52.429 32.6621 52.0483 31.8964C51.6675 31.1307 50.7415 30.821 49.98 31.2039L24.4977 44.025C23.2732 44.6401 22.1742 44.8968 21.1849 44.8979C20.6544 44.8979 20.1513 44.8236 19.6704 44.6804C18.9448 44.4662 18.2582 44.1003 17.6011 43.5647C16.9451 43.0291 16.3228 42.3271 15.7607 41.4616L15.748 41.4415L4.87314 25.7812L4.87103 25.7791C4.45443 25.1746 3.98615 24.5064 3.64021 23.8733C3.46936 23.5572 3.32697 23.2497 3.23521 22.9813C3.13924 22.7109 3.09705 22.4829 3.08967 22.3206C3.0865 22.2262 3.08439 22.1329 3.08439 22.0427C3.08439 21.3025 3.19936 20.6852 3.39236 20.1507C3.6824 19.35 4.15068 18.7094 4.78771 18.142C5.42369 17.5788 6.23475 17.1048 7.13967 16.7229L7.18607 16.7028L33.3687 3.5391L33.375 3.53592C33.8876 3.27078 34.6312 3.09896 35.4348 3.10215C36.267 3.10002 37.1582 3.27926 37.9281 3.62606C38.3141 3.8 38.6696 4.01423 38.9807 4.2624C39.2918 4.50951 39.5587 4.7895 39.777 5.10555L50.52 20.8517L50.5232 20.857C50.7816 21.2314 50.9166 21.6737 50.9166 22.1212C50.9166 22.3015 50.8955 22.4839 50.8491 22.6632C50.694 23.2847 50.2785 23.8064 49.7121 24.097H49.71L24.0463 37.2417C23.5453 37.4972 23.0148 37.6182 22.4854 37.6192C21.9369 37.6192 21.3896 37.4845 20.9012 37.2332C20.4119 36.9808 19.9805 36.6117 19.6451 36.1259L10.2531 22.5274C9.76689 21.8253 8.80818 21.6493 8.10787 22.1382C7.40967 22.6271 7.23564 23.5933 7.7208 24.2954L17.1128 37.8939C17.7403 38.8017 18.5662 39.5134 19.4911 39.9906C20.4171 40.47 21.4444 40.7203 22.4854 40.7203C23.5263 40.7203 24.5019 40.488 25.4448 40.0065L25.506 39.9737L51.1085 26.8609V26.863C52.4701 26.1673 53.4668 24.9105 53.8391 23.4225C53.9467 22.993 53.9994 22.556 53.9994 22.1233C53.9994 21.05 53.6767 19.9895 53.0544 19.0912L53.0576 19.0891Z" fill="#3E7976"/>
<path d="M18.9204 26.3678L23.0295 32.3186L31.3721 28.0446L27.2619 22.0938L18.9204 26.3678Z" fill="#3E7976"/>
</svg>
