<svg width="41" height="40" viewBox="0 0 41 40" fill="none" xmlns="http://www.w3.org/2000/svg">
<mask id="mask0_15_923" style="mask-type:luminance" maskUnits="userSpaceOnUse" x="6" y="5" width="29" height="28">
<path d="M18.6855 30.7832H8.89819C8.52737 30.7832 8.17173 30.6381 7.90952 30.3799C7.64731 30.1217 7.5 29.7715 7.5 29.4063V7.37684C7.5 7.01168 7.64731 6.66148 7.90952 6.40327C8.17173 6.14506 8.52737 6 8.89819 6H28.4728C28.8436 6 29.1993 6.14506 29.4615 6.40327C29.7237 6.66148 29.871 7.01168 29.871 7.37684V15.2937" stroke="white" stroke-width="2" stroke-linecap="round" stroke-linejoin="round"/>
<path d="M29.8264 20.4569C31.8443 20.4569 33.4804 22.007 33.4804 23.9198C33.4804 26.4098 31.0439 28.5371 29.8264 29.6914C29.0148 30.4609 28 31.2305 26.782 32C25.5641 31.2305 24.5493 30.4609 23.7376 29.6914C22.5194 28.5371 20.0837 26.4098 20.0837 23.9198C20.0837 22.007 21.7198 20.4569 23.7376 20.4569C25.0078 20.4569 26.1273 21.072 26.782 22.0053C27.1242 21.5237 27.58 21.1311 28.1103 20.8613C28.6406 20.5916 29.2296 20.4528 29.8264 20.4569Z" fill="#555555" stroke="white" stroke-width="2" stroke-linejoin="round"/>
<path d="M13.0927 11.5073H24.2782" stroke="white" stroke-width="2" stroke-linecap="round"/>
</mask>
<g mask="url(#mask0_15_923)">
<path d="M3.62643 2.18726H37.1829V35.2315H3.62643V2.18726Z" fill="#212534"/>
</g>
</svg>
