<svg width="40" height="41" viewBox="0 0 40 41" fill="none" xmlns="http://www.w3.org/2000/svg">
<path d="M34.875 7H4.875C4.37772 7 3.90081 7.19754 3.54917 7.54917C3.19754 7.90081 3 8.37772 3 8.875V30.125C3 30.9538 3.32924 31.7487 3.91529 32.3347C4.50134 32.9208 5.2962 33.25 6.125 33.25H33.625C34.4538 33.25 35.2487 32.9208 35.8347 32.3347C36.4208 31.7487 36.75 30.9538 36.75 30.125V8.875C36.75 8.37772 36.5525 7.90081 36.2008 7.54917C35.8492 7.19754 35.3723 7 34.875 7ZM30.0547 10.75L19.875 20.0813L9.69531 10.75H30.0547ZM6.75 29.5V13.1375L18.6078 24.0078C18.9536 24.3249 19.4058 24.5008 19.875 24.5008C20.3442 24.5008 20.7964 24.3249 21.1422 24.0078L33 13.1375V29.5H6.75Z" fill="#3E7976"/>
</svg>
