<svg width="41" height="40" viewBox="0 0 41 40" fill="none" xmlns="http://www.w3.org/2000/svg">
<mask id="mask0_15_915" style="mask-type:luminance" maskUnits="userSpaceOnUse" x="6" y="5" width="28" height="28">
<path d="M18.1855 30.7832H8.39819C8.02737 30.7832 7.67173 30.6381 7.40952 30.3799C7.14731 30.1217 7 29.7715 7 29.4063V7.37684C7 7.01168 7.14731 6.66148 7.40952 6.40327C7.67173 6.14506 8.02737 6 8.39819 6H27.9728C28.3436 6 28.6993 6.14506 28.9615 6.40327C29.2237 6.66148 29.371 7.01168 29.371 7.37684V15.2937" stroke="white" stroke-width="2" stroke-linecap="round" stroke-linejoin="round"/>
<path d="M29.3264 20.4569C31.3443 20.4569 32.9804 22.007 32.9804 23.9198C32.9804 26.4098 30.5439 28.5371 29.3264 29.6914C28.5148 30.4609 27.5 31.2305 26.282 32C25.0641 31.2305 24.0493 30.4609 23.2376 29.6914C22.0194 28.5371 19.5837 26.4098 19.5837 23.9198C19.5837 22.007 21.2198 20.4569 23.2376 20.4569C24.5078 20.4569 25.6273 21.072 26.282 22.0053C26.6242 21.5237 27.08 21.1311 27.6103 20.8613C28.1406 20.5916 28.7296 20.4528 29.3264 20.4569Z" fill="#555555" stroke="white" stroke-width="2" stroke-linejoin="round"/>
<path d="M12.5927 11.5073H23.7782" stroke="white" stroke-width="2" stroke-linecap="round"/>
</mask>
<g mask="url(#mask0_15_915)">
<path d="M3.12643 2.18726H36.6829V35.2315H3.12643V2.18726Z" fill="white"/>
</g>
</svg>
