<svg width="74" height="52" viewBox="0 0 74 52" fill="none" xmlns="http://www.w3.org/2000/svg">
<circle cx="38.7299" cy="26" r="24.7929" stroke="#3E7976" stroke-width="2"/>
<path d="M39.6813 6.9657C29.1689 6.9657 20.647 15.4876 20.647 26" stroke="#3E7976" stroke-width="2" stroke-linecap="round"/>
<path d="M13.389 5.67505C13.389 3.64449 10.4154 3.57451 10.4154 5.65131V14.8294C10.4154 15.2805 10.049 15.6442 9.59731 15.6442H9.37773C8.9273 15.6442 8.55967 15.2805 8.55967 14.8294V5.61757C8.55967 4.45796 7.77548 4.11058 7.02517 4.11058C6.27486 4.11058 5.48816 4.45796 5.48816 5.61757V14.8294C5.48816 15.2805 5.12179 15.6442 4.67009 15.6442H4.45303C4.00008 15.6442 3.63496 15.2805 3.63496 14.8294V5.65131C3.63622 3.57326 0.66132 3.64449 0.66132 5.67505V14.5333C0.646263 18.2683 1.54212 19.2392 3.02141 20.4025C4.21338 21.3397 5.2322 21.877 5.2322 24.2025V47.8895H8.81563V24.2025C8.81563 21.877 9.83319 21.3397 11.0252 20.4025C12.5057 19.2392 13.4016 18.2683 13.3878 14.5333V5.67505H13.389Z" fill="#3E7976"/>
<path d="M68.8175 6.40028C68.1664 8.56204 66.2165 15.6646 65.7285 20.0381C65.2404 24.4092 67.5164 25.8662 68.9807 28.2966L69.7887 30.3209V47.9362H73.3721V6.40028C73.3721 3.80866 69.7937 3.16138 68.8175 6.40028Z" fill="#3E7976"/>
</svg>
