<svg width="16" height="21" viewBox="0 0 16 21" fill="none" xmlns="http://www.w3.org/2000/svg">
<path d="M11.7146 6.30952C11.7146 4.38482 10.1541 2.82381 8.22885 2.82381C6.94372 2.82381 5.82115 3.51934 5.21672 4.55429L3.58076 2.82381C4.64063 1.41272 6.32812 0.5 8.22885 0.5C11.4374 0.5 14.0384 3.10092 14.0384 6.30952V12.119H11.7146V6.30952Z" fill="#D9D9D9"/>
<path d="M15.7812 18.1761C15.7812 19.4594 14.7407 20.4999 13.4574 20.4999H3.00029C1.71697 20.4999 0.676483 19.4594 0.676483 18.1761V11.2047C0.676483 9.92134 1.71697 8.88086 3.00029 8.88086H13.4574C14.7407 8.88086 15.7812 9.92134 15.7812 11.2047V18.1761Z" fill="#FFAC33"/>
</svg>
