<svg width="12" height="19" viewBox="0 0 12 19" fill="none" xmlns="http://www.w3.org/2000/svg">
<path d="M2.8886 18.8638C3.99317 18.8638 4.8886 17.9683 4.8886 16.8638C4.8886 15.7592 3.99317 14.8638 2.8886 14.8638C1.78403 14.8638 0.888596 15.7592 0.888596 16.8638C0.888596 17.9683 1.78403 18.8638 2.8886 18.8638Z" fill="#BE1931"/>
<path d="M4.8886 12.1366C4.8886 13.0404 3.99326 13.773 2.8886 13.773C1.78393 13.773 0.888596 13.0404 0.888596 12.1366V1.77307C0.888596 0.869259 1.78393 0.136719 2.8886 0.136719C3.99326 0.136719 4.8886 0.869259 4.8886 1.77307V12.1366Z" fill="#BE1931"/>
<path d="M9.67648 18.8638C10.781 18.8638 11.6765 17.9683 11.6765 16.8638C11.6765 15.7592 10.781 14.8638 9.67648 14.8638C8.57191 14.8638 7.67648 15.7592 7.67648 16.8638C7.67648 17.9683 8.57191 18.8638 9.67648 18.8638Z" fill="#BE1931"/>
<path d="M11.6765 12.1366C11.6765 13.0404 10.7805 13.773 9.67647 13.773C8.57247 13.773 7.67647 13.0404 7.67647 12.1366V1.77307C7.67647 0.869259 8.57247 0.136719 9.67647 0.136719C10.7805 0.136719 11.6765 0.869259 11.6765 1.77307V12.1366Z" fill="#BE1931"/>
</svg>
