<svg width="46" height="48" viewBox="0 0 46 48" fill="none" xmlns="http://www.w3.org/2000/svg">
<path d="M44.0009 24.9164C43.7755 24.3277 43.7755 23.6761 44.0009 23.0864L45.8301 18.2948C46.2622 17.1642 45.8461 15.8883 44.8324 15.2273L40.5296 12.4233C39.9998 12.0783 39.6174 11.5505 39.4511 10.942L38.1086 5.99109C37.7911 4.82484 36.7032 4.03547 35.4941 4.09547L30.3618 4.35141C29.7305 4.38234 29.1104 4.18172 28.6172 3.78609L24.616 0.569531C23.6728 -0.189844 22.3275 -0.189844 21.3842 0.569531L17.3831 3.78609C16.8898 4.18172 16.2698 4.38328 15.6385 4.35141L10.5062 4.09547C9.29708 4.03547 8.20824 4.82484 7.89164 5.99109L6.54914 10.942C6.38379 11.5505 6.00049 12.0783 5.47063 12.4233L1.16788 15.2273C0.154198 15.8883 -0.262925 17.1642 0.16829 18.2948L1.99837 23.0864C2.22384 23.6761 2.22384 24.3277 1.99837 24.9164L0.169229 29.7089C-0.261985 30.8377 0.155137 32.1155 1.16882 32.7764L5.47157 35.5795C6.00143 35.9236 6.38379 36.4505 6.55008 37.0598L7.89258 42.0098C8.21012 43.177 9.29802 43.9664 10.5071 43.9064L15.6394 43.6505C16.2707 43.6186 16.8908 43.8202 17.384 44.2167L21.3852 47.4333C22.3284 48.1917 23.6737 48.1917 24.6169 47.4333L28.6181 44.2167C29.1113 43.8211 29.7314 43.6195 30.3627 43.6505L35.495 43.9064C36.7041 43.9664 37.7929 43.178 38.1096 42.0098L39.452 37.0598C39.6174 36.4505 40.0007 35.9236 40.5306 35.5795L44.8333 32.7764C45.847 32.1155 46.2641 30.8386 45.831 29.7089L44.0019 24.9164H44.0009ZM18.408 29.5983L16.8776 29.8992C16.7743 29.9189 16.7029 29.8936 16.6343 29.813L12.4574 24.9436L12.3936 24.9567L13.4721 30.4336C13.488 30.5105 13.4467 30.5714 13.3687 30.5873L11.9163 30.8723C11.8383 30.8873 11.7782 30.8452 11.7622 30.7673L10.0947 22.3027C10.0787 22.2248 10.121 22.1648 10.1971 22.1498L11.7397 21.847C11.8299 21.8292 11.9144 21.8527 11.983 21.9333L16.1495 26.8177L16.2144 26.8045L15.1321 21.3155C15.1171 21.2377 15.1593 21.1767 15.2354 21.1608L16.6879 20.8758C16.7658 20.8598 16.826 20.9011 16.8419 20.9789L18.5104 29.4436C18.5264 29.5214 18.4841 29.5823 18.4071 29.5973L18.408 29.5983ZM25.9435 28.1198L20.3386 29.2195C20.2625 29.2345 20.2015 29.1933 20.1855 29.1164L18.517 20.6517C18.501 20.5739 18.5424 20.512 18.6203 20.497L24.2242 19.3973C24.3003 19.3823 24.3623 19.4236 24.3783 19.5014L24.6489 20.873C24.6649 20.9498 24.6216 21.0108 24.5455 21.0258L20.7792 21.7655C20.7285 21.7748 20.7078 21.8058 20.7172 21.8583L21.0592 23.5898C21.0695 23.6405 21.1005 23.6611 21.1513 23.6517L24.2891 23.0358C24.3652 23.0208 24.4272 23.063 24.4422 23.1389L24.7118 24.4983C24.7259 24.5761 24.6846 24.6361 24.6085 24.6511L21.4707 25.267C21.4199 25.2773 21.3993 25.3083 21.4087 25.3598L21.7657 27.1683C21.776 27.2198 21.807 27.2395 21.8577 27.2292L25.6241 26.4905C25.7001 26.4745 25.7622 26.5167 25.7762 26.5936L26.0468 27.967C26.0637 28.0439 26.0205 28.1048 25.9444 28.1198H25.9435ZM35.3287 26.1445C35.3297 26.2242 35.2771 26.2889 35.1859 26.3058L33.9007 26.558C33.8115 26.5758 33.7495 26.5336 33.7082 26.4623L31.1237 21.3352L31.0974 21.3398L30.638 27.0652C30.6267 27.1477 30.5863 27.2095 30.4952 27.2264L29.21 27.4786C29.132 27.4936 29.0719 27.4523 29.0296 27.3802L25.0998 19.3589C25.0716 19.2839 25.0867 19.2277 25.1778 19.2098L26.835 18.8855C26.9252 18.8677 26.9882 18.907 27.0135 18.9839L29.3537 24.2123L29.38 24.2077L29.7915 18.4392C29.8019 18.3558 29.8451 18.2958 29.9343 18.278L31.0523 18.0586C31.1284 18.0436 31.1894 18.0839 31.2308 18.157L33.8519 23.3302L33.8782 23.3245L34.0078 17.6123C34.0041 17.5195 34.0464 17.4698 34.1375 17.453L35.7825 17.1305C35.8717 17.1127 35.9065 17.1577 35.9093 17.2373L35.3297 26.1436L35.3287 26.1445Z" fill="#3E7976"/>
</svg>
