<svg width="18" height="21" viewBox="0 0 18 21" fill="none" xmlns="http://www.w3.org/2000/svg">
<path d="M14.6359 2.63379H15.7503V3.96873H14.6359V2.63379Z" fill="#66757F"/>
<path d="M15.2975 2.63379H4.13114C2.89781 2.63379 1.89786 3.63374 1.89786 4.86707V18.2667C1.89786 19.5001 2.89781 20.5 4.13114 20.5H15.2975C16.5309 20.5 17.5308 19.5001 17.5308 18.2667V4.86707C17.5308 3.63374 16.5309 2.63379 15.2975 2.63379Z" fill="#55ACEE"/>
<path d="M14.1809 2.63379H3.0145C1.78117 2.63379 0.781219 3.63374 0.781219 4.86707V18.2667C0.781219 19.5001 1.78117 20.5 3.0145 20.5H14.1809C15.4142 20.5 16.4142 19.5001 16.4142 18.2667V4.86707C16.4142 3.63374 15.4142 2.63379 14.1809 2.63379Z" fill="#CCD6DD"/>
<path d="M14.7392 8.77512C14.7392 9.08387 14.4896 9.33344 14.1809 9.33344H3.0145C2.7063 9.33344 2.45618 9.08387 2.45618 8.77512C2.45618 8.46692 2.7063 8.2168 3.0145 8.2168H14.1809C14.4896 8.2168 14.7392 8.46692 14.7392 8.77512ZM14.7392 11.5667C14.7392 11.8755 14.4896 12.125 14.1809 12.125H3.0145C2.7063 12.125 2.45618 11.8755 2.45618 11.5667C2.45618 11.258 2.7063 11.0084 3.0145 11.0084H14.1809C14.4896 11.0084 14.7392 11.258 14.7392 11.5667ZM14.7392 14.3583C14.7392 14.6671 14.4896 14.9166 14.1809 14.9166H3.0145C2.7063 14.9166 2.45618 14.6671 2.45618 14.3583C2.45618 14.0496 2.7063 13.8 3.0145 13.8H14.1809C14.4896 13.8 14.7392 14.0496 14.7392 14.3583ZM10.2727 17.1499C10.2727 17.4587 10.0231 17.7082 9.71433 17.7082H3.0145C2.7063 17.7082 2.45618 17.4587 2.45618 17.1499C2.45618 16.8412 2.7063 16.5916 3.0145 16.5916H9.71433C10.0231 16.5916 10.2727 16.8412 10.2727 17.1499Z" fill="#99AAB5"/>
<path d="M3.48125 5.27547C3.08931 5.27547 2.77162 4.90363 2.77162 4.44413C2.77162 3.98519 3.08931 3.61279 3.48125 3.61279C3.87263 3.61279 4.19031 3.98519 4.19031 4.44413C4.19031 4.90307 3.87263 5.27547 3.48125 5.27547Z" fill="#292F33"/>
<path d="M3.87598 4.3552C3.84527 4.0872 3.66717 3.91301 3.46897 3.78739C3.19818 3.61598 2.91065 3.2246 2.91065 2.73942C2.91065 2.12304 3.28528 1.56974 3.74812 1.56974C4.21097 1.56974 4.5856 2.07502 4.5856 2.63334H5.70001C5.68829 1.5167 4.82066 0.5 3.74812 0.5C2.66833 0.5 1.79401 1.51558 1.79401 2.73607C1.79401 3.77064 2.37745 4.61817 3.22833 4.92803C3.65265 5.08213 3.91171 4.67846 3.87598 4.3552Z" fill="#66757F"/>
<path d="M6.83116 5.27547C6.43922 5.27547 6.12154 4.90363 6.12154 4.44413C6.12154 3.98519 6.43922 3.61279 6.83116 3.61279C7.22254 3.61279 7.54023 3.98519 7.54023 4.44413C7.54023 4.90307 7.22254 5.27547 6.83116 5.27547Z" fill="#292F33"/>
<path d="M7.22591 4.3552C7.1952 4.0872 7.0171 3.91301 6.81889 3.78739C6.54811 3.61598 6.26058 3.2246 6.26058 2.73942C6.26058 2.12304 6.63521 1.56974 7.09805 1.56974C7.5609 1.56974 7.93553 2.07502 7.93553 2.63334H9.04994C9.03877 1.5167 8.17059 0.5 7.09805 0.5C6.01826 0.5 5.14394 1.51558 5.14394 2.73607C5.14394 3.77064 5.72738 4.61817 6.57826 4.92803C7.00258 5.08213 7.26164 4.67846 7.22591 4.3552Z" fill="#66757F"/>
<path d="M10.1811 5.27547C9.78915 5.27547 9.47147 4.90363 9.47147 4.44413C9.47147 3.98519 9.78915 3.61279 10.1811 3.61279C10.5725 3.61279 10.8907 3.98519 10.8907 4.44413C10.8902 4.90307 10.5725 5.27547 10.1811 5.27547Z" fill="#292F33"/>
<path d="M10.5758 4.3552C10.5451 4.0872 10.367 3.91301 10.1694 3.78739C9.89859 3.61598 9.61105 3.2246 9.61105 2.73942C9.61105 2.12304 9.98569 1.56974 10.4485 1.56974C10.9114 1.56974 11.286 2.07502 11.286 2.63334H12.4004C12.3893 1.5167 11.5211 0.5 10.4485 0.5C9.36874 0.5 8.49442 1.51558 8.49442 2.73607C8.49442 3.77064 9.07786 4.61817 9.92874 4.92803C10.3525 5.08213 10.6116 4.67846 10.5758 4.3552Z" fill="#66757F"/>
<path d="M13.531 5.27547C13.1391 5.27547 12.8214 4.90363 12.8214 4.44413C12.8214 3.98519 13.1391 3.61279 13.531 3.61279C13.9224 3.61279 14.2406 3.98519 14.2406 4.44413C14.2401 4.90307 13.9224 5.27547 13.531 5.27547Z" fill="#292F33"/>
<path d="M13.9257 4.3552C13.895 4.0872 13.7169 3.91301 13.5193 3.78739C13.2485 3.61598 12.961 3.2246 12.961 2.73942C12.961 2.12304 13.3356 1.56974 13.7984 1.56974C14.2613 1.56974 14.6359 2.07502 14.6359 2.63334H15.7503C15.7392 1.5167 14.871 0.5 13.7984 0.5C12.7187 0.5 11.8443 1.51558 11.8443 2.73607C11.8443 3.77064 12.4278 4.61817 13.2787 4.92803C13.7024 5.08213 13.9615 4.67846 13.9257 4.3552Z" fill="#66757F"/>
</svg>
