<svg width="21" height="17" viewBox="0 0 21 17" fill="none" xmlns="http://www.w3.org/2000/svg">
<path d="M5.4314 16.0725C7.93575 16.0725 9.96593 12.6822 9.96593 8.50011C9.96593 4.318 7.93575 0.927734 5.4314 0.927734C2.92704 0.927734 0.896866 4.318 0.896866 8.50011C0.896866 12.6822 2.92704 16.0725 5.4314 16.0725Z" fill="#F5F8FA"/>
<path d="M5.43139 16.5C2.64898 16.5 0.469238 12.9861 0.469238 8.5C0.469238 4.01393 2.64898 0.5 5.43139 0.5C8.2138 0.5 10.3935 4.01393 10.3935 8.5C10.3935 12.9861 8.2138 16.5 5.43139 16.5ZM5.43139 1.35525C3.16669 1.35525 1.32449 4.56015 1.32449 8.5C1.32449 12.4398 3.16669 15.6448 5.43139 15.6448C7.69609 15.6448 9.5383 12.4398 9.5383 8.5C9.5383 4.56015 7.69609 1.35525 5.43139 1.35525Z" fill="#E1E8ED"/>
<path d="M4.15764 11.3279C5.71952 11.3279 6.98567 10.0618 6.98567 8.4999C6.98567 6.93802 5.71952 5.67188 4.15764 5.67188C2.59577 5.67188 1.32962 6.93802 1.32962 8.4999C1.32962 10.0618 2.59577 11.3279 4.15764 11.3279Z" fill="#8899A6"/>
<path d="M4.15766 10.5326C5.28025 10.5326 6.1903 9.62252 6.1903 8.49993C6.1903 7.37733 5.28025 6.46729 4.15766 6.46729C3.03506 6.46729 2.12502 7.37733 2.12502 8.49993C2.12502 9.62252 3.03506 10.5326 4.15766 10.5326Z" fill="#292F33"/>
<path d="M4.90856 7.85512C5.3576 7.85512 5.72162 7.4911 5.72162 7.04206C5.72162 6.59302 5.3576 6.229 4.90856 6.229C4.45952 6.229 4.0955 6.59302 4.0955 7.04206C4.0955 7.4911 4.45952 7.85512 4.90856 7.85512Z" fill="#F5F8FA"/>
<path d="M15.9259 16.0725C18.4302 16.0725 20.4604 12.6822 20.4604 8.50011C20.4604 4.318 18.4302 0.927734 15.9259 0.927734C13.4215 0.927734 11.3913 4.318 11.3913 8.50011C11.3913 12.6822 13.4215 16.0725 15.9259 16.0725Z" fill="#F5F8FA"/>
<path d="M15.9259 16.5C13.1435 16.5 10.9637 12.9861 10.9637 8.5C10.9637 4.01393 13.1435 0.5 15.9259 0.5C18.7083 0.5 20.8886 4.01393 20.8886 8.5C20.8886 12.9861 18.7083 16.5 15.9259 16.5ZM15.9259 1.35525C13.6612 1.35525 11.819 4.56072 11.819 8.5C11.819 12.4398 13.6612 15.6448 15.9259 15.6448C18.1906 15.6448 20.0334 12.4398 20.0334 8.5C20.0334 4.56015 18.1906 1.35525 15.9259 1.35525Z" fill="#E1E8ED"/>
<path d="M14.6521 11.3279C16.214 11.3279 17.4801 10.0618 17.4801 8.4999C17.4801 6.93802 16.214 5.67188 14.6521 5.67188C13.0902 5.67188 11.8241 6.93802 11.8241 8.4999C11.8241 10.0618 13.0902 11.3279 14.6521 11.3279Z" fill="#8899A6"/>
<path d="M14.6521 10.5326C15.7747 10.5326 16.6848 9.62252 16.6848 8.49993C16.6848 7.37733 15.7747 6.46729 14.6521 6.46729C13.5295 6.46729 12.6195 7.37733 12.6195 8.49993C12.6195 9.62252 13.5295 10.5326 14.6521 10.5326Z" fill="#292F33"/>
<path d="M15.403 7.85512C15.8521 7.85512 16.2161 7.4911 16.2161 7.04206C16.2161 6.59302 15.8521 6.229 15.403 6.229C14.954 6.229 14.59 6.59302 14.59 7.04206C14.59 7.4911 14.954 7.85512 15.403 7.85512Z" fill="#F5F8FA"/>
</svg>
