<svg width="80" height="80" viewBox="0 0 80 80" fill="none" xmlns="http://www.w3.org/2000/svg">
<path d="M40 80C62.0914 80 80 62.0914 80 40C80 17.9086 62.0914 0 40 0C17.9086 0 0 17.9086 0 40C0 62.0914 17.9086 80 40 80Z" fill="white"/>
<path d="M39.1958 6.40088L19.1998 39.5772L39.1958 30.484V6.40088Z" fill="#53A1D8"/>
<path d="M39.1958 30.484L19.1998 39.5772L39.1958 51.3898V30.484Z" fill="#468CC8"/>
<path d="M39.1958 6.40088V30.484L59.1836 39.577L39.1958 6.40088Z" fill="#2A5298"/>
<path d="M39.1958 30.484V51.3898L59.1836 39.577L39.1958 30.484Z" fill="#3D7BB8"/>
<path d="M19.1998 43.3655L39.1958 71.5359V55.1788L19.1998 43.3655Z" fill="#3D7BB8"/>
<path d="M39.1958 55.1788V71.5359L59.1998 43.3655L39.1958 55.1788Z" fill="#3366A8"/>
</svg>
