<svg width="31" height="31" viewBox="0 0 31 31" fill="none" xmlns="http://www.w3.org/2000/svg">
<path fill-rule="evenodd" clip-rule="evenodd" d="M6.74038 15.9853C6.18356 14.4543 6.07848 12.7954 6.43765 11.2063C6.79683 9.61718 7.60513 8.16476 8.76631 7.02199C9.9275 5.87921 11.3926 5.09422 12.9873 4.76048C14.5819 4.42674 16.2389 4.55831 17.7609 5.13952C19.2829 5.72074 20.6058 6.72711 21.5721 8.03882C22.5384 9.35052 23.1073 10.9123 23.2112 12.5382C23.3151 14.1641 22.9496 15.7855 22.1581 17.2096C21.3666 18.6336 20.1826 19.8002 18.7469 20.5704L20.8525 26.3555C20.9627 26.6581 20.9481 26.9921 20.812 27.284C20.6759 27.5759 20.4294 27.8017 20.1268 27.9119C19.8242 28.022 19.4902 28.0075 19.1983 27.8713C18.9064 27.7352 18.6806 27.4888 18.5704 27.1861L16.4648 21.401C14.4636 21.8186 12.3789 21.5009 10.5929 20.5063C8.80681 19.5116 7.43909 17.9066 6.74038 15.9853ZM13.078 12.3089C13.2818 11.8711 13.6512 11.5322 14.1048 11.3666C14.4074 11.2564 14.6539 11.0306 14.79 10.7387C14.9261 10.4468 14.9407 10.1128 14.8305 9.81022C14.7204 9.50759 14.4945 9.26112 14.2027 9.12502C13.9108 8.98891 13.5768 8.97433 13.2742 9.08448C12.215 9.46999 11.3523 10.2605 10.876 11.282C10.3996 12.3036 10.3486 13.4726 10.7341 14.5318C10.8442 14.8344 11.0701 15.0809 11.362 15.217C11.6538 15.3531 11.9878 15.3676 12.2904 15.2575C12.5931 15.1474 12.8395 14.9215 12.9756 14.6296C13.1117 14.3377 13.1263 14.0038 13.0162 13.7011C12.8509 13.247 12.8725 12.7455 13.078 12.3089Z" fill="#01FFAA"/>
</svg>
