<svg width="18" height="18" viewBox="0 0 18 18" fill="none" xmlns="http://www.w3.org/2000/svg">
<path fill-rule="evenodd" clip-rule="evenodd" d="M9 1C9.17681 1 9.34638 1.07024 9.47141 1.19526C9.59643 1.32029 9.66667 1.48986 9.66667 1.66667V2.33333C9.66667 2.51014 9.59643 2.67971 9.47141 2.80474C9.34638 2.92976 9.17681 3 9 3C8.82319 3 8.65362 2.92976 8.5286 2.80474C8.40357 2.67971 8.33333 2.51014 8.33333 2.33333V1.66667C8.33333 1.48986 8.40357 1.32029 8.5286 1.19526C8.65362 1.07024 8.82319 1 9 1ZM8.518 4.20133C8.54689 4.09555 8.60975 4.0022 8.69691 3.93566C8.78407 3.86912 8.89068 3.83307 9.00033 3.83307C9.10999 3.83307 9.2166 3.86912 9.30376 3.93566C9.39091 4.0022 9.45378 4.09555 9.48267 4.20133C9.83467 5.49133 10.2307 6.32333 10.8487 6.95067C11.47 7.582 12.3653 8.056 13.82 8.524C13.9208 8.5564 14.0087 8.61995 14.071 8.70549C14.1334 8.79103 14.167 8.89415 14.167 9C14.167 9.10585 14.1334 9.20897 14.071 9.29451C14.0087 9.38005 13.9208 9.4436 13.82 9.476C12.3653 9.944 11.47 10.418 10.8487 11.0493C10.2307 11.676 9.83467 12.5087 9.482 13.7987C9.4529 13.9042 9.38999 13.9972 9.30292 14.0635C9.21586 14.1298 9.10944 14.1657 9 14.1657C8.89056 14.1657 8.78415 14.1298 8.69708 14.0635C8.61001 13.9972 8.5471 13.9042 8.518 13.7987C8.16533 12.5087 7.76933 11.6767 7.15133 11.0493C6.53 10.418 5.63467 9.944 4.18 9.476C4.07923 9.4436 3.99134 9.38005 3.92899 9.29451C3.86664 9.20897 3.83305 9.10585 3.83305 9C3.83305 8.89415 3.86664 8.79103 3.92899 8.70549C3.99134 8.61995 4.07923 8.5564 4.18 8.524C5.63467 8.056 6.53 7.582 7.15133 6.95067C7.76933 6.324 8.16533 5.49133 8.518 4.20133ZM9.66667 15.6667C9.66667 15.4899 9.59643 15.3203 9.47141 15.1953C9.34638 15.0702 9.17681 15 9 15C8.82319 15 8.65362 15.0702 8.5286 15.1953C8.40357 15.3203 8.33333 15.4899 8.33333 15.6667V16.3333C8.33333 16.5101 8.40357 16.6797 8.5286 16.8047C8.65362 16.9298 8.82319 17 9 17C9.17681 17 9.34638 16.9298 9.47141 16.8047C9.59643 16.6797 9.66667 16.5101 9.66667 16.3333V15.6667ZM17 9C17 9.17681 16.9298 9.34638 16.8047 9.47141C16.6797 9.59643 16.5101 9.66667 16.3333 9.66667H15.6667C15.4899 9.66667 15.3203 9.59643 15.1953 9.47141C15.0702 9.34638 15 9.17681 15 9C15 8.82319 15.0702 8.65362 15.1953 8.5286C15.3203 8.40357 15.4899 8.33333 15.6667 8.33333H16.3333C16.5101 8.33333 16.6797 8.40357 16.8047 8.5286C16.9298 8.65362 17 8.82319 17 9ZM2.33333 9.66667C2.51014 9.66667 2.67971 9.59643 2.80474 9.47141C2.92976 9.34638 3 9.17681 3 9C3 8.82319 2.92976 8.65362 2.80474 8.5286C2.67971 8.40357 2.51014 8.33333 2.33333 8.33333H1.66667C1.48986 8.33333 1.32029 8.40357 1.19526 8.5286C1.07024 8.65362 1 8.82319 1 9C1 9.17681 1.07024 9.34638 1.19526 9.47141C1.32029 9.59643 1.48986 9.66667 1.66667 9.66667H2.33333ZM14.8047 3.19533C14.9296 3.32035 14.9999 3.48989 14.9999 3.66667C14.9999 3.84344 14.9296 4.01298 14.8047 4.138L12.8047 6.138C12.7432 6.20167 12.6696 6.25246 12.5883 6.2874C12.5069 6.32234 12.4195 6.34073 12.3309 6.3415C12.2424 6.34227 12.1546 6.3254 12.0727 6.29188C11.9908 6.25836 11.9163 6.20886 11.8537 6.14626C11.7911 6.08367 11.7416 6.00923 11.7081 5.9273C11.6746 5.84537 11.6577 5.75759 11.6585 5.66907C11.6593 5.58055 11.6777 5.49307 11.7126 5.41173C11.7475 5.33039 11.7983 5.25683 11.862 5.19533L13.862 3.19533C13.987 3.07035 14.1566 3.00014 14.3333 3.00014C14.5101 3.00014 14.6796 3.07035 14.8047 3.19533ZM3.19533 4.138C3.07389 4.01227 3.0067 3.84386 3.00822 3.66907C3.00974 3.49427 3.07985 3.32706 3.20345 3.20345C3.32706 3.07985 3.49427 3.00974 3.66907 3.00822C3.84386 3.0067 4.01227 3.07389 4.138 3.19533L6.138 5.19533C6.25944 5.32107 6.32664 5.48947 6.32512 5.66427C6.3236 5.83907 6.25348 6.00627 6.12988 6.12988C6.00627 6.25348 5.83907 6.3236 5.66427 6.32512C5.48947 6.32664 5.32107 6.25944 5.19533 6.138L3.19533 4.138ZM3.19533 14.8047C3.07035 14.6796 3.00014 14.5101 3.00014 14.3333C3.00014 14.1566 3.07035 13.987 3.19533 13.862L5.19533 11.862C5.32107 11.7406 5.48947 11.6734 5.66427 11.6749C5.83907 11.6764 6.00627 11.7465 6.12988 11.8701C6.25348 11.9937 6.3236 12.1609 6.32512 12.3357C6.32664 12.5105 6.25944 12.6789 6.138 12.8047L4.138 14.8047C4.01298 14.9296 3.84344 14.9999 3.66667 14.9999C3.48989 14.9999 3.32035 14.9296 3.19533 14.8047ZM14.8047 13.862C14.9261 13.9877 14.9933 14.1561 14.9918 14.3309C14.9903 14.5057 14.9202 14.6729 14.7965 14.7965C14.6729 14.9202 14.5057 14.9903 14.3309 14.9918C14.1561 14.9933 13.9877 14.9261 13.862 14.8047L11.862 12.8047C11.7406 12.6789 11.6734 12.5105 11.6749 12.3357C11.6764 12.1609 11.7465 11.9937 11.8701 11.8701C11.9937 11.7465 12.1609 11.6764 12.3357 11.6749C12.5105 11.6734 12.6789 11.7406 12.8047 11.862L14.8047 13.862Z" fill="#FFFF01"/>
</svg>
