<svg width="48" height="48" viewBox="0 0 48 48" fill="none" xmlns="http://www.w3.org/2000/svg">
<path d="M16.183 9.59961C12.1827 9.59961 8.92773 12.8565 8.92773 16.8596C8.92773 17.4155 9.37867 17.8665 9.93367 17.8665C10.4887 17.8665 10.9396 17.4155 10.9396 16.8596C10.9396 13.9665 13.2918 11.6134 16.183 11.6134C16.739 11.6134 17.189 11.1624 17.189 10.6065C17.189 10.0505 16.738 9.59961 16.183 9.59961Z" fill="#3E7976"/>
<path d="M33.9056 28.2666C35.7244 25.4128 36.7781 22.0275 36.7781 18.4003C36.7781 8.25375 28.53 0 18.3891 0C14.7628 0 11.3803 1.05469 8.52844 2.87437C6.25594 4.32375 4.32281 6.25875 2.87438 8.53219C1.05563 11.385 0 14.7722 0 18.4003C0 28.5459 8.25 36.8006 18.3891 36.8006C22.0153 36.8006 25.3997 35.745 28.2516 33.9244C30.5231 32.475 32.4572 30.54 33.9056 28.2666ZM24.3525 30.0225C22.5647 30.945 20.5359 31.4663 18.3891 31.4663C11.1891 31.4663 5.32969 25.6031 5.32969 18.3994C5.32969 16.2516 5.85094 14.2219 6.7725 12.4331C8.02125 10.0087 10.005 8.025 12.4275 6.77719C14.2153 5.85469 16.2422 5.33344 18.3881 5.33344C25.5891 5.33344 31.4475 11.1947 31.4475 18.4003C31.4475 20.5472 30.9263 22.575 30.0047 24.3647C28.7578 26.7891 26.775 28.7738 24.3525 30.0234V30.0225Z" fill="#3E7976"/>
<path d="M46.8299 41.1698L36.2136 30.5742C34.7024 32.782 32.7664 34.718 30.5596 36.232L41.1758 46.8277C41.9568 47.6086 42.9805 47.9995 44.0024 47.9995C45.0243 47.9995 46.0489 47.6086 46.8299 46.8277C48.3899 45.2648 48.3899 42.7327 46.8299 41.1698Z" fill="#3E7976"/>
</svg>
