<svg width="20" height="19" viewBox="0 0 20 19" fill="none" xmlns="http://www.w3.org/2000/svg">
<path d="M19.6676 7.14049C19.5378 6.74118 19.1836 6.45848 18.7663 6.42071L13.0739 5.9039L10.8243 0.63673C10.6582 0.249757 10.2803 0 9.8596 0C9.43895 0 9.06088 0.249757 8.89584 0.63673L6.64619 5.9039L0.952948 6.42071C0.535606 6.45923 0.182204 6.74194 0.0516155 7.14049C-0.0782209 7.53981 0.0416859 7.97778 0.357325 8.25462L4.66028 12.0279L3.39156 17.6161C3.29873 18.027 3.4582 18.4519 3.79912 18.6984C3.98236 18.8315 4.19765 18.898 4.4137 18.898C4.59935 18.898 4.78515 18.8487 4.9511 18.7494L9.8596 15.8143L14.7672 18.7494C15.1272 18.9645 15.5799 18.9448 15.9201 18.6984C16.261 18.4519 16.4205 18.027 16.3277 17.6161L15.0589 12.0279L19.3619 8.25462C19.6774 7.97778 19.7974 7.54071 19.6676 7.14049Z" fill="white"/>
</svg>
