<svg width="64" height="64" viewBox="0 0 64 64" fill="none" xmlns="http://www.w3.org/2000/svg">
<g clip-path="url(#clip0_0_3155)">
<g filter="url(#filter0_d_0_3155)">
<path d="M18.6667 18.6667V13.3333C18.6667 11.789 19.1137 10.2777 19.9538 8.98183C20.7938 7.68597 21.991 6.66095 23.4008 6.0305C24.8106 5.40004 26.3727 5.19111 27.8986 5.42892C29.4245 5.66672 30.8489 6.3411 32 7.37065C33.1511 6.3411 34.5756 5.66672 36.1015 5.42892C37.6274 5.19111 39.1895 5.40004 40.5993 6.0305C42.009 6.66095 43.2062 7.68597 44.0462 8.98183C44.8863 10.2777 45.3333 11.789 45.3334 13.3333V18.6667H49.3334C50.3942 18.6667 51.4116 19.0881 52.1618 19.8382C52.9119 20.5884 53.3334 21.6058 53.3334 22.6667V49.3466C53.3334 51.8185 52.3514 54.189 50.6036 55.9369C48.8557 57.6847 46.4852 58.6667 44.0134 58.6667H21.3334C18.5044 58.6667 15.7913 57.5428 13.7909 55.5425C11.7905 53.5421 10.6667 50.829 10.6667 48V22.6667C10.6667 21.6058 11.0881 20.5884 11.8383 19.8382C12.5884 19.0881 13.6058 18.6667 14.6667 18.6667H18.6667ZM36.36 54.6667C35.2754 53.1045 34.6939 51.2484 34.6934 49.3466V22.6667H14.6667V48C14.6667 48.8755 14.8391 49.7424 15.1742 50.5512C15.5092 51.36 16.0003 52.095 16.6193 52.714C17.2384 53.3331 17.9733 53.8242 18.7821 54.1592C19.591 54.4942 20.4579 54.6667 21.3334 54.6667H36.36ZM30.6667 18.6667V13.3333C30.6667 12.2725 30.2453 11.255 29.4951 10.5049C28.745 9.75475 27.7276 9.33332 26.6667 9.33332C25.6058 9.33332 24.5884 9.75475 23.8383 10.5049C23.0881 11.255 22.6667 12.2725 22.6667 13.3333V18.6667H30.6667ZM34.6667 18.6667H41.3334V13.3333C41.3334 12.5099 41.0794 11.7066 40.606 11.033C40.1325 10.3593 39.4628 9.84817 38.688 9.56932C37.9133 9.29047 37.0714 9.25749 36.2773 9.47488C35.4831 9.69227 34.7754 10.1494 34.2507 10.784C34.52 11.584 34.6667 12.4427 34.6667 13.3333V18.6667ZM38.6934 49.3466C38.6934 50.7576 39.2539 52.1108 40.2515 53.1085C41.2492 54.1062 42.6024 54.6667 44.0134 54.6667C45.4243 54.6667 46.7775 54.1062 47.7752 53.1085C48.7729 52.1108 49.3334 50.7576 49.3334 49.3466V22.6667H38.6934V49.3466Z" fill="#DB00B2"/>
</g>
</g>
<defs>
<filter id="filter0_d_0_3155" x="3.66669" y="-1.6665" width="56.6667" height="67.3333" filterUnits="userSpaceOnUse" color-interpolation-filters="sRGB">
<feFlood flood-opacity="0" result="BackgroundImageFix"/>
<feColorMatrix in="SourceAlpha" type="matrix" values="0 0 0 0 0 0 0 0 0 0 0 0 0 0 0 0 0 0 127 0" result="hardAlpha"/>
<feOffset/>
<feGaussianBlur stdDeviation="3.5"/>
<feComposite in2="hardAlpha" operator="out"/>
<feColorMatrix type="matrix" values="0 0 0 0 0.964706 0 0 0 0 0.258824 0 0 0 0 0.843137 0 0 0 0.7 0"/>
<feBlend mode="normal" in2="BackgroundImageFix" result="effect1_dropShadow_0_3155"/>
<feBlend mode="normal" in="SourceGraphic" in2="effect1_dropShadow_0_3155" result="shape"/>
</filter>
<clipPath id="clip0_0_3155">
<rect width="64" height="64" fill="white"/>
</clipPath>
</defs>
</svg>
