<svg width="27" height="25" viewBox="0 0 27 25" fill="none" xmlns="http://www.w3.org/2000/svg">
<path d="M1 8C1 1 7.73077 1 13.5 1C19.2692 1 26 1 26 8C26 16 19.2692 7 19.2692 7H7.73077C7.73077 7 1 16 1 8ZM8.69231 10C8.69231 10 3.88462 15 3.88462 24H23.1154C23.1154 15 18.3077 10 18.3077 10H8.69231Z" fill="white" stroke="black" stroke-width="2" stroke-linecap="round" stroke-linejoin="round"/>
<path d="M13.5 21C15.6242 21 17.3461 19.2091 17.3461 17C17.3461 14.7909 15.6242 13 13.5 13C11.3758 13 9.65384 14.7909 9.65384 17C9.65384 19.2091 11.3758 21 13.5 21Z" fill="#F77F7F" stroke="black" stroke-width="2" stroke-linecap="round" stroke-linejoin="round"/>
</svg>
