<svg width="61" height="60" viewBox="0 0 61 60" fill="none" xmlns="http://www.w3.org/2000/svg">
<rect x="0.631169" y="0.297917" width="59.4042" height="59.4042" rx="29.7021" fill="white"/>
<rect x="0.631169" y="0.297917" width="59.4042" height="59.4042" rx="29.7021" stroke="black" stroke-width="0.595833"/>
<path d="M26.2587 25.5695V23.9418C25.7003 23.8657 25.1336 23.8184 24.5557 23.8184C17.5854 23.8193 11.9155 29.4921 11.9155 36.465C11.9155 40.7439 14.0525 44.5301 17.3118 46.8195C15.2082 44.5598 13.9171 41.5327 13.9171 38.2087C13.9171 31.3351 19.4266 25.7291 26.2587 25.5695Z" fill="#25F4EE"/>
<path d="M26.5573 43.9845C29.6672 43.9845 32.2031 41.5096 32.319 38.4259L32.3301 10.8897H37.3582C37.2534 10.3236 37.1959 9.74176 37.1959 9.146H30.3285L30.3174 36.6822C30.2024 39.7659 27.6656 42.2408 24.5557 42.2408C23.5892 42.2408 22.6793 41.9986 21.8779 41.5773C22.927 43.0324 24.6317 43.9845 26.5573 43.9845Z" fill="#25F4EE"/>
<path d="M46.7493 20.2368V18.7056C44.8312 18.7056 43.0448 18.1349 41.5469 17.1577C42.8806 18.6908 44.693 19.796 46.7493 20.2368Z" fill="#25F4EE"/>
<path d="M41.5468 17.1583C40.0851 15.4786 39.1974 13.2876 39.1974 10.8906H37.3582C37.8423 13.5085 39.3959 15.7542 41.5468 17.1583Z" fill="#FE2C55"/>
<path d="M24.5558 30.6891C21.3726 30.6891 18.783 33.2801 18.783 36.4649C18.783 38.6828 20.0407 40.6093 21.8781 41.5772C21.1936 40.6279 20.7845 39.4661 20.7845 38.2086C20.7845 35.0238 23.3742 32.4328 26.5574 32.4328C27.152 32.4328 27.7215 32.5312 28.2603 32.7001V25.6854C27.702 25.6093 27.1353 25.562 26.5574 25.562C26.4572 25.562 26.3589 25.5676 26.2588 25.5694V30.9564C25.7199 30.7875 25.1494 30.6891 24.5558 30.6891Z" fill="#FE2C55"/>
<path d="M46.7493 20.2358V25.5754C43.1886 25.5754 39.8884 24.4359 37.1949 22.501V36.4635C37.1949 43.4364 31.525 49.1101 24.5547 49.1101C21.8612 49.1101 19.3643 48.2601 17.3108 46.818C19.6203 49.2985 22.9093 50.8538 26.5563 50.8538C33.5257 50.8538 39.1965 45.181 39.1965 38.2072V24.2447C41.89 26.1786 45.1901 27.3182 48.7509 27.3182V20.4474C48.0645 20.4474 47.3949 20.3731 46.7493 20.2349V20.2358Z" fill="#FE2C55"/>
<path d="M37.1949 36.465V22.5025C39.8884 24.4365 43.1886 25.577 46.7493 25.577V20.2373C44.693 19.7965 42.8806 18.6913 41.5468 17.1583C39.395 15.7542 37.8423 13.5085 37.3582 10.8906H32.3301L32.319 38.4268C32.2039 41.5105 29.6672 43.9855 26.5572 43.9855C24.6317 43.9855 22.9269 43.0333 21.8779 41.5783C20.0405 40.6104 18.7828 38.6839 18.7828 36.466C18.7828 33.2811 21.3724 30.6902 24.5556 30.6902C25.1502 30.6902 25.7197 30.7885 26.2586 30.9574V25.5705C19.4265 25.7301 13.917 31.3361 13.917 38.2097C13.917 41.5337 15.2081 44.5608 17.3117 46.8205C19.3643 48.2625 21.8621 49.1126 24.5556 49.1126C31.525 49.1126 37.1959 43.4398 37.1959 36.466L37.1949 36.465Z" fill="black"/>
</svg>
