<svg width="28" height="28" viewBox="0 0 28 28" fill="none" xmlns="http://www.w3.org/2000/svg">
<path d="M22.0849 2.26855C21.7437 2.26855 21.4112 2.40199 21.1662 2.65137C19.0749 4.74262 17.2418 5.13855 14.5884 5.13855C13.7834 5.13855 12.8996 5.09699 11.9612 5.05762C11.2262 5.0248 10.4649 4.9898 9.64026 4.97012C9.49589 4.96574 9.3537 4.96574 9.2137 4.96574C2.50464 4.96574 0.356512 9.02356 0.269011 9.19637C0.155969 9.41838 0.108904 9.66813 0.133386 9.91606L1.60339 24.5614C1.62739 24.7998 1.71666 25.027 1.86137 25.2181C2.00609 25.4091 2.20065 25.5565 2.4237 25.6442C2.57433 25.7029 2.73452 25.7333 2.8962 25.7339C3.20901 25.7339 3.51745 25.6201 3.76026 25.4036C3.78214 25.3839 6.47932 23.0782 10.7887 23.0782C11.3399 23.0782 11.9021 23.1176 12.4578 23.192C14.4856 23.4611 15.9665 23.5814 17.2593 23.5814C21.4003 23.5814 24.4628 22.247 27.499 19.1211C27.6615 18.9543 27.776 18.7468 27.8307 18.5205C27.8853 18.2942 27.8781 18.0573 27.8096 17.8348L23.3231 3.18949C23.2571 2.97495 23.1369 2.78108 22.974 2.62663C22.8111 2.47219 22.6111 2.36241 22.3934 2.30793C22.295 2.28168 22.1899 2.26855 22.0849 2.26855Z" fill="#E74600"/>
<mask id="mask0_1_408" style="mask-type:luminance" maskUnits="userSpaceOnUse" x="0" y="2" width="27" height="23">
<path d="M20.7078 2.26855C20.3879 2.26855 20.0763 2.39362 19.8466 2.62736C17.8865 4.58744 16.1684 4.95855 13.6814 4.95855C12.9269 4.95855 12.0985 4.91959 11.219 4.88269C10.5301 4.85193 9.81656 4.81913 9.0436 4.80068C8.90828 4.79658 8.77501 4.79658 8.64379 4.79658C2.35552 4.79658 0.342121 8.59988 0.260109 8.76186C0.154157 8.96994 0.110044 9.20403 0.132991 9.43641L1.51079 23.1632C1.53329 23.3867 1.61696 23.5996 1.7526 23.7787C1.88824 23.9577 2.0706 24.0959 2.27966 24.1781C2.42084 24.2331 2.57098 24.2616 2.72252 24.2621C3.01571 24.2621 3.30481 24.1555 3.53239 23.9525C3.55289 23.9341 6.08091 21.7731 10.12 21.7731C10.6367 21.7731 11.1636 21.81 11.6844 21.8797C13.585 22.1319 14.9731 22.2446 16.1848 22.2446C20.066 22.2446 22.9364 20.9939 25.7823 18.0641C25.9345 17.9077 26.0419 17.7133 26.0931 17.5012C26.1443 17.2891 26.1375 17.0671 26.0734 16.8585L21.8682 3.13173C21.8064 2.93065 21.6937 2.74893 21.541 2.60418C21.3884 2.45942 21.2009 2.35653 20.9968 2.30546C20.9046 2.28086 20.8062 2.26855 20.7078 2.26855Z" fill="white"/>
</mask>
<g mask="url(#mask0_1_408)">
<path d="M22.0487 2.45943C21.819 2.28311 21.6263 2.44098 21.6263 2.44098C21.3967 2.72392 20.7078 3.48868 20.7078 3.48868C17.3084 6.88808 14.2657 6.14997 9.01285 6.01875C3.10389 5.86908 1.34678 9.31564 1.34678 9.31564L2.03568 16.18L0.420044 17.3569L1.1602 24.086L1.61742 24.5084C1.65227 24.0491 3.5119 22.3412 4.93686 21.6831C6.52174 20.9511 8.89189 20.2745 11.8443 20.6682C17.456 21.4145 20.9456 21.2914 24.9088 17.2113C24.9088 17.2113 25.0237 17.1109 25.3394 16.7746C25.6572 16.4404 25.9545 16.4404 25.9545 16.4404L26.096 16.4056L22.0487 2.45943Z" fill="white"/>
<path d="M1.84496 14.3982L0.848511 13.6129C0.975629 13.451 4.04698 9.63331 9.9867 9.9306L10.1774 9.94086C16.0597 10.2279 18.4995 10.3489 21.8969 6.98432C22.0691 6.78749 23.0533 5.66803 23.5289 5.30103L24.3019 6.30567C24.0046 6.53326 23.246 7.36363 22.8359 7.83315L22.8052 7.868C19.0039 11.6426 16.033 11.497 10.1138 11.2059L9.92314 11.1956C4.63337 10.9353 1.87161 14.3634 1.84496 14.3982Z" fill="#E74600"/>
<path d="M1.48211 12.1368L0.450806 11.4008C0.584075 11.2142 3.76614 6.8614 9.82273 7.35963C15.1289 7.79429 18.5529 7.80454 21.3167 4.27598C21.4705 4.0689 22.3234 2.93918 22.9488 2.60498L23.5454 3.72444C23.2973 3.85566 22.7191 4.51176 22.3275 5.04484C18.9302 9.37507 14.4564 9.00807 9.72021 8.62056C4.37713 8.18385 1.51081 12.0979 1.48211 12.1368ZM2.04594 16.6864L1.11305 15.8294C1.25657 15.6715 4.66622 12.0282 10.6552 12.346C11.2477 12.3767 11.8136 12.4136 12.3549 12.4485C16.7158 12.7314 19.3484 12.9016 22.6638 9.38942C23.3445 8.63081 24.2568 7.67127 24.6772 7.4806L25.202 8.63491C25.0073 8.74973 24.2097 9.5637 23.5966 10.2485C19.861 14.2056 16.6789 13.9985 12.2728 13.7135C11.7357 13.6787 11.1759 13.6417 10.5895 13.613C5.22186 13.324 2.07669 16.6536 2.04594 16.6864Z" fill="#E74600"/>
<path d="M9.6156 4.53609L11.8545 15.0152C11.8545 15.0152 5.02087 14.275 0.795203 18.7508L-0.0966778 8.76176C-0.0987281 8.75971 1.57432 3.96611 9.6156 4.53609Z" fill="#00538B"/>
<path d="M0.957197 20.5081L-0.104858 19.8151C0.405666 19.0339 1.3201 18.1995 1.35906 18.1646C1.47797 18.0395 5.0455 14.4556 11.1615 14.9415L11.8771 14.999C16.9475 15.4172 19.74 15.6468 23.5536 11.823C23.5925 11.7841 24.5336 10.843 25.2328 10.3284L25.9852 11.3494C25.3619 11.8107 24.4598 12.7088 24.4516 12.719C20.2218 16.9611 16.8593 16.6823 11.7705 16.266L11.059 16.2066C5.55602 15.7596 2.27144 19.0442 2.23864 19.0791C2.20173 19.1119 1.37546 19.8664 0.957197 20.5081Z" fill="#E74600"/>
<path d="M1.15201 23.3376L0.13916 22.5769C0.936727 21.5149 2.67333 19.563 5.35923 18.4189C7.06713 17.6911 9.10717 17.4184 11.422 17.605C12.1088 17.6624 12.7485 17.7239 13.3554 17.7833C17.7963 18.218 20.0271 18.4394 24.4906 14.4434C24.4906 14.4434 25.2225 13.7442 25.7208 13.1497L26.6947 13.9616C26.1493 14.6156 25.3825 15.3455 25.3517 15.3742C20.4535 19.7537 17.7348 19.4892 13.2303 19.0463C12.6316 18.9869 11.9981 18.9233 11.3174 18.87C9.23839 18.6998 7.35007 18.9479 5.8554 19.5856C3.44014 20.6128 1.87166 22.3781 1.15201 23.3376Z" fill="#E74600"/>
</g>
<path d="M3.58531 7.24711C3.59187 7.18805 3.63343 7.17711 3.67062 7.21649L3.88718 7.4418C3.92656 7.48118 4.00749 7.50743 4.06437 7.49868L4.37937 7.4418C4.43624 7.43086 4.46031 7.46368 4.43187 7.51618L4.28093 7.78961C4.25031 7.83774 4.25031 7.92524 4.27874 7.97555L4.43624 8.25993C4.46468 8.31024 4.44062 8.34305 4.38593 8.33211L4.06874 8.26868C4.01187 8.25555 3.93312 8.2818 3.89374 8.32774L3.67718 8.56618C3.63781 8.60774 3.60062 8.5968 3.59187 8.53774L3.54812 8.21618C3.54156 8.15711 3.48906 8.0893 3.43874 8.06743L3.15437 7.93618C3.09968 7.9143 3.09968 7.87055 3.15218 7.8443L3.43874 7.7043C3.49124 7.67805 3.53937 7.60805 3.54593 7.55118L3.58531 7.24711ZM4.43843 11.1956C4.45156 11.1365 4.49093 11.1299 4.52593 11.1737L4.72062 11.4187C4.75562 11.4646 4.83218 11.4952 4.89124 11.4909L5.20843 11.4668C5.26531 11.4624 5.28718 11.4974 5.25218 11.5456L5.07499 11.8037C5.04218 11.8518 5.03343 11.9349 5.05749 11.9896L5.18656 12.2849C5.20843 12.3374 5.18437 12.3702 5.12749 12.3549L4.81906 12.2609C4.76437 12.2434 4.68124 12.2631 4.63968 12.3002L4.40124 12.519C4.35968 12.5606 4.32031 12.5431 4.31812 12.484L4.30499 12.1602C4.30499 12.1034 4.26124 12.029 4.20874 12.0027L3.93749 11.8474C3.88718 11.819 3.88937 11.7774 3.94406 11.7577L4.24374 11.644C4.29843 11.6243 4.35312 11.5609 4.36624 11.5018L4.43843 11.1956ZM4.96781 14.6715C4.97437 14.6146 5.01374 14.6015 5.05312 14.6431L5.27187 14.864C5.31343 14.9056 5.39437 14.9296 5.45124 14.9209L5.76406 14.8596C5.82093 14.8487 5.84499 14.8837 5.81656 14.934L5.66781 15.2096C5.63937 15.2577 5.64156 15.3431 5.66999 15.3956L5.82968 15.6777C5.86031 15.7259 5.83624 15.7609 5.77937 15.7499L5.46218 15.6931C5.40531 15.6821 5.32656 15.7084 5.28937 15.7521L5.07718 15.9927C5.03999 16.0365 5.00062 16.0234 4.99187 15.9665L4.94374 15.6449C4.93718 15.5859 4.88468 15.5202 4.83218 15.4984L4.54562 15.3737C4.49312 15.3496 4.49093 15.3081 4.54343 15.2818L4.82781 15.1352C4.88031 15.1112 4.92843 15.0412 4.93499 14.9843L4.96781 14.6715ZM6.16874 6.14243C6.18187 6.08555 6.22124 6.0768 6.25624 6.12274L6.44874 6.36774C6.48374 6.41368 6.56031 6.44868 6.61937 6.4443L6.93656 6.41805C6.99562 6.41368 7.01531 6.44868 6.98031 6.4968L6.80093 6.75493C6.76812 6.80086 6.75937 6.88618 6.78124 6.93868L6.90812 7.23399C6.93218 7.28868 6.90593 7.3193 6.84906 7.3018L6.54062 7.20774C6.48593 7.19024 6.40499 7.20774 6.36124 7.24711L6.12281 7.46149C6.07906 7.50086 6.04187 7.48555 6.03968 7.42649L6.03093 7.10055C6.03093 7.04368 5.98718 6.97149 5.93687 6.94305L5.66562 6.78774C5.61531 6.75711 5.61749 6.71774 5.67218 6.69586L5.97187 6.5843C6.02656 6.56243 6.08124 6.49899 6.09437 6.4443L6.16874 6.14243ZM6.84031 10.2002C6.85562 10.1456 6.89718 10.1368 6.92999 10.1849L7.10937 10.4409C7.14218 10.489 7.21874 10.5262 7.27781 10.524L7.59499 10.5174C7.65406 10.5152 7.67156 10.5524 7.63656 10.5984L7.44406 10.8456C7.40687 10.8893 7.39374 10.9746 7.41562 11.0271L7.52718 11.3312C7.54906 11.3859 7.52062 11.4165 7.46593 11.3946L7.16187 11.2852C7.10718 11.2634 7.02624 11.2787 6.98031 11.3159L6.73093 11.5193C6.68499 11.5565 6.64999 11.539 6.65218 11.4799L6.65874 11.154C6.66093 11.0949 6.62156 11.0206 6.57343 10.9921L6.31093 10.8215C6.26062 10.7887 6.26718 10.7493 6.32187 10.7318L6.62812 10.6377C6.68281 10.6181 6.74187 10.559 6.75718 10.5021L6.84031 10.2002ZM7.65624 13.9102C7.67156 13.8534 7.71093 13.8446 7.74593 13.8927L7.93187 14.1399C7.96687 14.1859 8.04343 14.2231 8.10031 14.2187L8.41968 14.199C8.47874 14.1946 8.49843 14.2318 8.46343 14.2799L8.27968 14.5337C8.24468 14.5774 8.23374 14.6627 8.25562 14.7174L8.37812 15.0149C8.39999 15.0718 8.37374 15.1002 8.31906 15.0827L8.01281 14.9821C7.95812 14.9624 7.87718 14.9799 7.83343 15.0193L7.59062 15.2293C7.54687 15.2687 7.50968 15.2534 7.50968 15.1921L7.50531 14.8684C7.50531 14.8093 7.46374 14.7371 7.41343 14.7087L7.14656 14.5468C7.09624 14.5162 7.10062 14.4768 7.15531 14.4571L7.45718 14.3521C7.51187 14.3324 7.56874 14.2712 7.58406 14.2143L7.65624 13.9102ZM8.07406 7.95368C8.09593 7.90118 8.13531 7.89899 8.16593 7.94711L8.32124 8.21618C8.34968 8.26649 8.42187 8.31243 8.48093 8.31461L8.79812 8.3343C8.85718 8.33868 8.87031 8.37805 8.82874 8.41961L8.61656 8.6493C8.57499 8.69086 8.55531 8.7718 8.57062 8.82868L8.65374 9.14149C8.67124 9.19618 8.63843 9.22243 8.58593 9.19836L8.29499 9.06055C8.24468 9.03649 8.15937 9.04086 8.11343 9.07368L7.84656 9.25305C7.79843 9.28586 7.76562 9.26399 7.76999 9.20493L7.80499 8.88336C7.81156 8.82649 7.77874 8.74774 7.73281 8.71493L7.48562 8.52024C7.43968 8.48524 7.44843 8.44368 7.50531 8.43055L7.81812 8.36274C7.87499 8.3518 7.94062 8.29711 7.96031 8.24243L8.07406 7.95368ZM8.81781 11.7884C8.83749 11.7359 8.87687 11.7293 8.90749 11.7796L9.07593 12.0377C9.10656 12.0881 9.17874 12.1274 9.23781 12.1274L9.55718 12.134C9.61624 12.134 9.63374 12.1734 9.59437 12.2171L9.39093 12.4577C9.35374 12.4993 9.33843 12.5824 9.35593 12.6371L9.45437 12.9477C9.47187 13.0024 9.44343 13.0309 9.39093 13.0068L9.09124 12.8843C9.03874 12.8624 8.95562 12.8734 8.90968 12.9084L8.65156 13.1009C8.60562 13.1359 8.57062 13.1184 8.57499 13.0593L8.59468 12.7356C8.59906 12.6765 8.56187 12.6021 8.51374 12.5693L8.25999 12.3877C8.21187 12.3549 8.21843 12.3134 8.27531 12.2981L8.58374 12.2149C8.64062 12.2018 8.70187 12.1406 8.71937 12.0837L8.81781 11.7884ZM5.37031 8.74118C5.38562 8.68649 5.42718 8.67993 5.45999 8.72586L5.64156 8.97961C5.67437 9.02774 5.74874 9.06493 5.80781 9.06274L6.12499 9.0518C6.18406 9.04961 6.20156 9.0868 6.16656 9.13274L5.97624 9.37993C5.94124 9.42586 5.92812 9.50899 5.94999 9.56368L6.06374 9.86555C6.08562 9.92024 6.05718 9.95086 6.00249 9.93118L5.69843 9.8218C5.64374 9.79993 5.56281 9.81524 5.51687 9.85461L5.26749 10.0559C5.22156 10.0931 5.18656 10.0756 5.18656 10.0165L5.19093 9.69274C5.19093 9.63368 5.15156 9.56149 5.10343 9.52868L4.84093 9.36024C4.79062 9.32961 4.79718 9.28805 4.85187 9.27055L5.15593 9.1743C5.21062 9.1568 5.26968 9.09555 5.28499 9.04086L5.37031 8.74118ZM6.01562 12.5299C6.02656 12.4709 6.06593 12.4621 6.10312 12.5059L6.30874 12.7356C6.34812 12.7815 6.42687 12.8121 6.48374 12.8012L6.79874 12.7574C6.85781 12.7509 6.87968 12.7859 6.84687 12.834L6.68499 13.1009C6.65437 13.149 6.65218 13.2321 6.67624 13.2868L6.82281 13.5756C6.84906 13.6281 6.82499 13.6609 6.76812 13.6456L6.45531 13.5712C6.39843 13.5559 6.31749 13.5777 6.27812 13.6193L6.05281 13.849C6.01124 13.8906 5.97406 13.8774 5.96749 13.8184L5.93906 13.4946C5.9348 13.4629 5.92306 13.4327 5.9048 13.4065C5.88654 13.3802 5.86229 13.3587 5.83406 13.3437L5.55406 13.2037C5.50156 13.1796 5.50374 13.1381 5.55624 13.1118L5.84937 12.9849C5.90406 12.9609 5.95437 12.8931 5.96312 12.834L6.01562 12.5299ZM8.86812 5.8668C8.89218 5.8143 8.93374 5.8143 8.95781 5.86461L9.09781 6.14243C9.12187 6.19493 9.19187 6.24524 9.25093 6.24961L9.56812 6.29118C9.62499 6.29774 9.63812 6.3393 9.59437 6.37649L9.36687 6.59305C9.3253 6.63024 9.29906 6.71118 9.31218 6.77024L9.37562 7.08524C9.38874 7.1443 9.35593 7.16836 9.30343 7.13993L9.02124 6.98461C8.97093 6.95618 8.8878 6.95618 8.83968 6.9868L8.56187 7.15086C8.51156 7.1793 8.47874 7.15743 8.48968 7.10055L8.54218 6.78118C8.55312 6.72211 8.52468 6.64555 8.48093 6.60618L8.24687 6.39836C8.20312 6.3568 8.21406 6.31743 8.27312 6.31086L8.59031 6.26055C8.64937 6.2518 8.71499 6.20149 8.73906 6.1468L8.86812 5.8668ZM9.61187 9.67086C9.63593 9.61836 9.67531 9.61618 9.70374 9.66649L9.85249 9.93993C9.87874 9.99024 9.94874 10.0384 10.01 10.0427L10.3272 10.0712C10.3862 10.0756 10.3994 10.1149 10.3578 10.1543L10.1391 10.3796C10.0975 10.419 10.0756 10.5021 10.0887 10.5568L10.1653 10.8718C10.1784 10.9287 10.1478 10.9549 10.0953 10.9287L9.80656 10.7843C9.75624 10.7581 9.67093 10.7602 9.62499 10.7931L9.35374 10.9659C9.30562 10.9987 9.27062 10.9768 9.27718 10.9199L9.32093 10.5984C9.32968 10.5415 9.29906 10.4627 9.25312 10.4256L9.01249 10.2265C8.96656 10.1893 8.97749 10.1477 9.03437 10.139L9.34718 10.0799C9.40406 10.069 9.46968 10.0143 9.49156 9.9618L9.61187 9.67086ZM10.3469 13.5821C10.3666 13.5274 10.4059 13.5231 10.4366 13.5734L10.6028 13.8359C10.6334 13.8862 10.7078 13.9277 10.7669 13.9277L11.0862 13.9343C11.1453 13.9365 11.1606 13.9759 11.1212 14.0196L10.9178 14.2559C10.8806 14.2996 10.8631 14.3827 10.8806 14.4374L10.9769 14.7481C10.9944 14.8027 10.9659 14.8312 10.9112 14.8071L10.6137 14.6824C10.5612 14.6584 10.4781 14.6693 10.4322 14.7043L10.1719 14.8946C10.1259 14.9274 10.0909 14.9077 10.0953 14.8509L10.1172 14.5271C10.1179 14.4949 10.1111 14.4629 10.0975 14.4337C10.0838 14.4045 10.0636 14.3788 10.0384 14.3587L9.78468 14.1749C9.73656 14.1421 9.74312 14.1006 9.79999 14.0874L10.1084 14.0065C10.1653 13.9934 10.2266 13.9343 10.2462 13.8774L10.3469 13.5821ZM1.32999 8.86586C1.32343 8.8068 1.35843 8.78711 1.40656 8.81774L1.66687 8.98618C1.71718 9.01899 1.80031 9.02774 1.85281 9.00149L2.14593 8.87243C2.19843 8.84836 2.23124 8.8768 2.21374 8.93149L2.12843 9.23336C2.11093 9.29024 2.13281 9.37118 2.16999 9.41493L2.38656 9.65555C2.42593 9.69711 2.41281 9.73649 2.35374 9.73649L2.03218 9.74961C1.97312 9.74961 1.90093 9.79555 1.87468 9.84586L1.71937 10.1259C1.69312 10.1784 1.65156 10.1762 1.62968 10.1215L1.51593 9.81961C1.49624 9.76493 1.43062 9.71024 1.37374 9.6993L1.06531 9.63805C1.00843 9.62711 0.997493 9.58774 1.04124 9.55055L1.28843 9.34711C1.31236 9.32544 1.33108 9.29864 1.3432 9.26872C1.35532 9.23879 1.36053 9.20652 1.35843 9.1743L1.32999 8.86586ZM2.16343 16.1349C2.15468 16.0781 2.18749 16.0562 2.23781 16.0846L2.50687 16.2421C2.55718 16.2727 2.64031 16.2749 2.69281 16.2487L2.97718 16.1087C3.02968 16.0846 3.06249 16.1109 3.04718 16.1677L2.97499 16.4718C2.96187 16.5265 2.98374 16.6074 3.02531 16.649L3.25499 16.8787C3.29656 16.9202 3.28343 16.9596 3.22437 16.964L2.90281 16.9902C2.84374 16.9924 2.77593 17.0406 2.74968 17.0931L2.60749 17.3796C2.58124 17.4343 2.54187 17.4299 2.51781 17.3774L2.38874 17.0799C2.36687 17.0274 2.29906 16.9771 2.24218 16.9662L1.93374 16.9202C1.87687 16.9115 1.86374 16.8721 1.90749 16.8327L2.14374 16.6206C2.18749 16.5812 2.21593 16.5024 2.20718 16.4434L2.16343 16.1349ZM1.64499 12.2477C1.63843 12.1887 1.67343 12.169 1.72156 12.1996L1.98406 12.3659C2.03437 12.3965 2.11749 12.4031 2.16999 12.379L2.46093 12.2456C2.51343 12.2215 2.54624 12.2499 2.52874 12.3046L2.44781 12.6065C2.43031 12.6612 2.45218 12.7443 2.49156 12.7881L2.71249 13.0243C2.75406 13.0659 2.73874 13.1052 2.68187 13.1052L2.36031 13.1227C2.30124 13.1249 2.23124 13.1687 2.20499 13.219L2.05406 13.5034C2.02781 13.5537 1.98624 13.5515 1.96437 13.499L1.84624 13.1971C1.82437 13.1424 1.75874 13.0899 1.70187 13.0812L1.39343 13.0243C1.33437 13.0134 1.32562 12.974 1.36937 12.9368L1.61437 12.7312C1.65812 12.694 1.69093 12.6152 1.68218 12.5562L1.64499 12.2477ZM2.91156 10.0099C2.91812 9.95086 2.95749 9.93774 2.99687 9.9793L3.21343 10.2024C3.25499 10.244 3.33374 10.2702 3.39062 10.2615L3.70343 10.2024C3.76249 10.1915 3.78656 10.2243 3.75593 10.2768L3.60718 10.5502C3.57874 10.6006 3.57874 10.6859 3.60718 10.7362L3.76468 11.0206C3.79531 11.0709 3.77124 11.1037 3.71437 11.0949L3.39718 11.0337C3.34031 11.0206 3.26156 11.049 3.22437 11.0927L3.00999 11.3312C2.97062 11.3749 2.93343 11.3618 2.92468 11.3049L2.87874 10.9834C2.87218 10.9287 2.81968 10.8609 2.76718 10.8368L2.48281 10.7099C2.42812 10.6859 2.42812 10.6443 2.48062 10.6181L2.76499 10.4781C2.81749 10.4496 2.86562 10.3818 2.87218 10.3227L2.91156 10.0099ZM3.21124 13.779C3.21781 13.7221 3.25718 13.709 3.29656 13.7506L3.51312 13.9715C3.55468 14.0131 3.63343 14.0393 3.69031 14.0284L4.00531 13.9693C4.06218 13.9562 4.08843 13.9912 4.05781 14.0415L3.90906 14.3171C3.88062 14.3674 3.88062 14.4527 3.90906 14.5031L4.06874 14.7874C4.09718 14.8377 4.07531 14.8727 4.01843 14.8596L3.70124 14.8006C3.64437 14.7874 3.56562 14.8159 3.52624 14.8596L3.31187 15.0937C3.27468 15.1374 3.23531 15.1243 3.22656 15.0696L3.18062 14.7481C3.17406 14.689 3.12156 14.6234 3.06906 14.5993L2.78249 14.4746C2.72781 14.4506 2.72781 14.409 2.78031 14.3827L3.06468 14.2384C3.11718 14.2143 3.16531 14.1443 3.17187 14.0852L3.21124 13.779Z" fill="white"/>
</svg>
