<svg width="41" height="40" viewBox="0 0 41 40" fill="none" xmlns="http://www.w3.org/2000/svg">
<path opacity="0.2" fill-rule="evenodd" clip-rule="evenodd" d="M12.7304 13C12.7304 12.7348 12.8358 12.4804 13.0233 12.2929C13.2108 12.1054 13.4652 12 13.7304 12H33.7304C33.9956 12 34.25 12.1054 34.4375 12.2929C34.6251 12.4804 34.7304 12.7348 34.7304 13V33C34.7304 33.2652 34.6251 33.5196 34.4375 33.7071C34.25 33.8946 33.9956 34 33.7304 34H13.7304C13.4652 34 13.2108 33.8946 13.0233 33.7071C12.8358 33.5196 12.7304 33.2652 12.7304 33V13Z" fill="white"/>
<path fill-rule="evenodd" clip-rule="evenodd" d="M9.73041 10C9.73041 9.73478 9.83576 9.48043 10.0233 9.29289C10.2108 9.10536 10.4652 9 10.7304 9H30.7304C30.9956 9 31.25 9.10536 31.4375 9.29289C31.6251 9.48043 31.7304 9.73478 31.7304 10V30C31.7304 30.2652 31.6251 30.5196 31.4375 30.7071C31.25 30.8946 30.9956 31 30.7304 31H10.7304C10.4652 31 10.2108 30.8946 10.0233 30.7071C9.83576 30.5196 9.73041 30.2652 9.73041 30V10ZM11.7304 11V29H29.7304V11H11.7304Z" fill="white"/>
</svg>
