<svg width="134" height="134" viewBox="0 0 134 134" fill="none" xmlns="http://www.w3.org/2000/svg">
<g filter="url(#filter0_d_61_1215)">
<rect x="4.66675" y="3" width="120" height="120" rx="20" fill="white"/>
<rect x="4.66675" y="3" width="120" height="120" rx="20" stroke="#1853A0"/>
</g>
<path d="M38.0952 46.2578H24.903L40.7298 85.2289L47.326 68.9863L38.0952 46.2578Z" fill="#1853A0"/>
<path d="M55.768 46.2578L40.7515 85.2289H53.9248L68.9413 46.2578H55.768Z" fill="#1A68B0"/>
<path d="M91.6978 35.4768L71.4911 85.2293H84.6833L104.89 35.4768H91.6978Z" fill="#2CA6E0"/>
<path d="M68.8667 46.2578H55.6744L71.5013 85.2289L78.0974 68.9863L68.8667 46.2578Z" fill="#2291D0"/>
<path d="M64.0956 93.5609C64.0956 84.2603 71.6352 76.7207 80.9358 76.7207H103.868C103.868 86.0213 96.3283 93.5609 87.0277 93.5609H64.0956Z" fill="#4FBCEC"/>
<path d="M64.0322 93.7165C64.0322 84.4213 71.5675 76.886 80.8628 76.886H104.032C104.032 86.1812 96.4969 93.7165 87.2017 93.7165H64.0322Z" fill="#4FBCEC"/>
<path d="M74.8314 86.8211V89.9817H72.5171V80.6277H76.1395C78.3532 80.6277 79.7774 81.5759 79.7774 83.6604C79.7774 85.745 78.3687 86.8211 76.1395 86.8211H74.8314ZM75.7215 84.9473C76.9368 84.9473 77.4631 84.5936 77.4631 83.6604C77.4631 82.9004 76.9368 82.494 75.7215 82.494H74.8314V84.9473H75.7215Z" fill="white"/>
<path d="M85.8692 89.9742L84.267 86.4373H83.0673V89.9742H80.7529V80.6277H84.3753C86.589 80.6277 88.0132 81.6135 88.0132 83.5701C88.0132 84.7892 87.4559 85.617 86.4807 86.046L88.4003 89.9742H85.8615H85.8692ZM84.0967 84.571C85.0333 84.571 85.6989 84.4506 85.6989 83.5701C85.6989 82.6896 85.0333 82.5015 84.0967 82.5015H83.0673V84.571H84.0967Z" fill="white"/>
<path d="M92.9668 90.1099C90.7763 90.1099 89.1741 88.823 89.1741 86.0311V84.5712C89.1741 81.7492 90.7763 80.4924 92.9668 80.4924C95.1573 80.4924 96.7595 81.7492 96.7595 84.5712V86.0311C96.7595 88.823 95.1573 90.1099 92.9668 90.1099ZM91.4961 86.0311C91.4961 87.5588 92.0147 88.2436 92.9745 88.2436C93.9343 88.2436 94.4529 87.5663 94.4529 86.0311V84.5712C94.4529 83.0435 93.9343 82.3587 92.9745 82.3587C92.0147 82.3587 91.4961 83.036 91.4961 84.5712V86.0311Z" fill="white"/>
<defs>
<filter id="filter0_d_61_1215" x="0.166748" y="0.5" width="133" height="133" filterUnits="userSpaceOnUse" color-interpolation-filters="sRGB">
<feFlood flood-opacity="0" result="BackgroundImageFix"/>
<feColorMatrix in="SourceAlpha" type="matrix" values="0 0 0 0 0 0 0 0 0 0 0 0 0 0 0 0 0 0 127 0" result="hardAlpha"/>
<feOffset dx="2" dy="4"/>
<feGaussianBlur stdDeviation="3"/>
<feComposite in2="hardAlpha" operator="out"/>
<feColorMatrix type="matrix" values="0 0 0 0 0.0941176 0 0 0 0 0.32549 0 0 0 0 0.627451 0 0 0 0.2 0"/>
<feBlend mode="normal" in2="BackgroundImageFix" result="effect1_dropShadow_61_1215"/>
<feBlend mode="normal" in="SourceGraphic" in2="effect1_dropShadow_61_1215" result="shape"/>
</filter>
</defs>
</svg>
