<svg width="41" height="40" viewBox="0 0 41 40" fill="none" xmlns="http://www.w3.org/2000/svg">
<path opacity="0.2" fill-rule="evenodd" clip-rule="evenodd" d="M12 11.9545C12 11.7014 12.1006 11.4586 12.2796 11.2796C12.4586 11.1006 12.7014 11 12.9545 11H32.0455C32.2986 11 32.5414 11.1006 32.7204 11.2796C32.8994 11.4586 33 11.7014 33 11.9545V31.0455C33 31.2986 32.8994 31.5414 32.7204 31.7204C32.5414 31.8994 32.2986 32 32.0455 32H12.9545C12.7014 32 12.4586 31.8994 12.2796 31.7204C12.1006 31.5414 12 31.2986 12 31.0455V11.9545Z" fill="#212534"/>
<path fill-rule="evenodd" clip-rule="evenodd" d="M9 9C9 8.73478 9.10536 8.48043 9.29289 8.29289C9.48043 8.10536 9.73478 8 10 8H30C30.2652 8 30.5196 8.10536 30.7071 8.29289C30.8946 8.48043 31 8.73478 31 9V29C31 29.2652 30.8946 29.5196 30.7071 29.7071C30.5196 29.8946 30.2652 30 30 30H10C9.73478 30 9.48043 29.8946 9.29289 29.7071C9.10536 29.5196 9 29.2652 9 29V9ZM11 10V28H29V10H11Z" fill="#212534"/>
</svg>
