<svg width="70" height="71" viewBox="0 0 70 71" fill="none" xmlns="http://www.w3.org/2000/svg">
<path d="M35.0003 6.3335C37.101 6.33184 39.1321 7.08597 40.7227 8.45813C42.3133 9.83029 43.3572 11.7289 43.6636 13.8071C43.9701 15.8853 43.5186 18.0043 42.3918 19.7772C41.2649 21.5501 39.5379 22.8583 37.5262 23.4631L37.0303 23.5972L44.1091 31.691L49.4291 34.3481C50.1018 34.6766 50.6224 35.2512 50.8831 35.953C51.1439 36.6548 51.1248 37.4299 50.8299 38.118C50.5349 38.8061 49.9867 39.3544 49.2987 39.6495C48.6106 39.9445 47.8355 39.9637 47.1337 39.7031L46.8216 39.566L41.5016 36.906C40.9942 36.6524 40.5265 36.3262 40.1133 35.9377L39.7195 35.5293L36.7503 32.1372L34.8253 39.8314C34.651 40.5314 34.3484 41.193 33.9328 41.7827L33.612 42.1968L39.2353 47.3389C39.9592 47.9997 40.5049 48.8323 40.822 49.7597L40.9591 50.2264L43.1116 58.8335H43.7503C44.4937 58.8343 45.2088 59.119 45.7493 59.6293C46.2899 60.1396 46.6152 60.8371 46.6588 61.5792C46.7023 62.3214 46.4609 63.0521 45.9837 63.6222C45.5066 64.1922 44.8298 64.5586 44.0916 64.6464L43.7503 64.6668H41.0612C40.408 64.6668 39.7703 64.4674 39.2335 64.0953C38.6967 63.7231 38.2862 63.196 38.057 62.5843L37.9491 62.2343L35.3007 51.6439L26.5216 43.6172C25.4188 43.0562 24.5229 42.159 23.9635 41.0554C23.404 39.9518 23.21 38.6988 23.4095 37.4777L23.5087 37.0022L25.0049 31.0172L24.0628 31.6881L19.9999 38.4606C19.6173 39.0994 19.0049 39.5676 18.2882 39.7694C17.5715 39.9712 16.8047 39.8913 16.1451 39.546C15.4854 39.2007 14.9828 38.6161 14.7402 37.9122C14.4976 37.2082 14.5334 36.4381 14.8403 35.7597L14.9978 35.4564L19.0608 28.6868C19.3896 28.1383 19.8064 27.6476 20.2945 27.2343L20.6737 26.9427L28.7295 21.1822C27.5309 19.9491 26.7222 18.3901 26.4045 16.7C26.0868 15.0099 26.2742 13.2636 26.9432 11.6794C27.6122 10.0951 28.7333 8.74318 30.1663 7.7924C31.5992 6.84163 33.2806 6.33419 35.0003 6.3335ZM27.172 45.8572C27.5355 45.9782 27.8717 46.1696 28.1612 46.4205C28.4508 46.6714 28.6881 46.9769 28.8595 47.3195C29.031 47.6622 29.1332 48.0352 29.1605 48.4174C29.1877 48.7996 29.1394 49.1833 29.0183 49.5468L27.7758 53.2685C27.4896 54.1278 27.0073 54.9087 26.367 55.5493L21.5341 60.3822C21.8609 60.9992 21.9556 61.7129 21.8009 62.3938C21.6462 63.0746 21.2525 63.6774 20.6911 64.0926C20.1298 64.5077 19.4381 64.7078 18.7418 64.6563C18.0456 64.6049 17.3908 64.3054 16.8966 63.8122L15.4587 62.3743C14.9065 61.8219 14.5964 61.0729 14.5964 60.2918C14.5964 59.5108 14.9065 58.7617 15.4587 58.2093L22.2428 51.4252L23.4824 47.7035C23.6034 47.34 23.7948 47.0038 24.0457 46.7143C24.2966 46.4247 24.6021 46.1874 24.9447 46.016C25.2873 45.8445 25.6604 45.7423 26.0426 45.715C26.4247 45.6878 26.8085 45.7361 27.172 45.8572Z" fill="white"/>
</svg>
