<svg width="61" height="60" viewBox="0 0 61 60" fill="none" xmlns="http://www.w3.org/2000/svg">
<rect x="0.333374" width="60" height="60" rx="30" fill="#FF0209"/>
<path d="M40.7861 40.9082C40.0524 40.9878 39.3015 41.0016 38.5817 40.9999C32.9668 40.9947 27.352 40.9895 21.7388 40.986C19.9722 40.986 18.0481 40.9289 16.6829 39.806C15.1447 38.5377 14.8246 36.3384 14.7 34.3486C14.5269 31.6216 14.5131 28.886 14.655 26.1573C14.7328 24.6589 14.8695 23.1241 15.5149 21.7675C15.9787 20.7934 16.7521 19.9178 17.7418 19.4576C18.8925 18.9229 20.0968 19.0181 21.3357 19.0163C24.3014 19.0129 27.2672 19.0111 30.2329 19.0077C33.3164 19.0042 36.4015 19.0025 39.4849 18.999C40.9418 18.999 42.506 19.0284 43.6947 19.8711C45.2295 20.9577 45.6465 23.0255 45.8386 24.8959C46.1933 28.341 46.1985 31.8223 45.8524 35.2674C45.7088 36.688 45.47 38.1899 44.5339 39.2679C43.6065 40.3372 42.2309 40.749 40.7878 40.9065L40.7861 40.9082Z" fill="white"/>
<path d="M35.3546 30.0017L26.9869 25.1689V34.8327L35.3546 30.0017Z" fill="#FF0209"/>
</svg>
