<svg width="62" height="78" viewBox="0 0 62 78" fill="none" xmlns="http://www.w3.org/2000/svg">
<g filter="url(#filter0_f_1_608)">
<ellipse cx="29.8626" cy="72.172" rx="10.2061" ry="3.64504" fill="black" fill-opacity="0.2"/>
</g>
<path fill-rule="evenodd" clip-rule="evenodd" d="M30.8889 0.00012207C47.9484 0.00012207 61.7779 13.8296 61.7779 30.8891C61.7779 43.9692 53.6478 55.1504 42.1653 59.6551L32.6482 72.6637C32.4498 72.9361 32.1864 73.1583 31.8802 73.3118C31.5739 73.4652 31.2339 73.5453 30.8889 73.5453C30.5438 73.5453 30.2038 73.4652 29.8976 73.3118C29.5914 73.1583 29.3279 72.9361 29.1295 72.6637L19.6124 59.6551C8.12994 55.1504 -0.00012207 43.9692 -0.00012207 30.8891C-0.00012207 13.8296 13.8294 0.00012207 30.8889 0.00012207Z" fill="#F2685B"/>
<path d="M30.8892 53.249C43.2959 53.249 53.3534 43.1913 53.3533 30.7846C53.3531 18.3778 43.2953 8.32019 30.8885 8.32019C18.4818 8.32019 8.4243 18.3778 8.42448 30.7846C8.42466 43.1913 18.4825 53.249 30.8892 53.249Z" fill="#B6E1F2"/>
<path fill-rule="evenodd" clip-rule="evenodd" d="M10.8921 35.8896C11.0871 35.9658 11.767 37.5251 11.9437 38.312C12.035 38.7199 12.012 39.2264 12.2176 39.4549C12.5138 39.7847 13.0892 39.627 13.3835 39.3636C13.6312 39.1416 13.8532 38.7685 14.0693 38.4493C14.2946 38.1163 14.4187 37.7117 14.5718 37.3294C14.8923 36.5306 15.1281 35.6577 15.3488 34.8839C15.5722 34.099 15.8014 33.232 16.2402 32.5528C16.8425 31.6207 17.6478 31.1136 17.9316 30.0154C18.0354 29.6147 17.9401 29.2081 17.9999 28.7811C18.0354 28.5296 18.4019 27.6455 18.4801 27.5469C18.5865 27.4116 18.9359 27.21 19.0739 27.2041C19.5514 27.1817 19.8496 27.5824 19.9882 27.8668C20.1084 28.1131 20.1124 28.435 20.2851 28.7128C20.3633 28.8389 20.5518 29.0603 20.6963 29.078C20.9091 29.105 21.0674 28.9802 21.1305 28.9408C21.2349 28.8764 21.409 28.7654 21.4734 28.6892C21.7985 28.3076 21.8176 27.476 21.8616 26.9065C21.9043 26.3607 22.033 25.8247 22.0449 25.3294C22.0744 24.0453 21.6277 22.6403 21.9306 21.3528C22.0692 20.7643 22.3253 20.292 22.6163 19.8441C22.7989 19.5629 22.9723 19.2253 23.1878 18.9987C23.3921 18.7839 23.6771 18.6105 23.9189 18.4043C24.1613 18.198 24.3806 17.9563 24.6276 17.7875C25.0336 17.5096 25.4277 17.3874 25.8389 17.262C27.1473 16.862 28.1714 16.079 28.9701 15.1364C29.2434 14.8133 29.535 14.5394 29.7932 14.2221C30.3147 13.5804 30.7246 12.7967 31.0044 11.9363C31.1476 11.4968 31.3736 11.1231 31.4616 10.6331C31.4957 10.4452 31.5608 9.63269 31.5299 9.39885C31.4833 9.04547 30.5545 8.6126 29.5764 8.33936C17.7812 9.01919 8.42424 18.799 8.42424 30.7648C8.42424 32.7892 8.69355 34.7499 9.19539 36.6154C9.8332 36.5208 10.2562 35.6419 10.8921 35.8896Z" fill="#46BF00"/>
<path fill-rule="evenodd" clip-rule="evenodd" d="M31.0984 16.9203C31.3121 16.3898 31.9027 15.3305 31.9064 15.1973C32.6446 15.0057 33.315 15.4488 33.7965 15.7454C34.3229 16.0702 34.786 16.3103 35.085 16.8055C34.9089 17.4817 34.7961 18.367 34.3559 18.8296C33.7947 19.4201 33.0931 18.8569 32.3484 18.6786C32.1366 18.6274 31.8431 18.5833 31.678 18.6098C31.1159 18.7007 31.5515 19.5648 31.2488 19.9462C30.3547 19.9356 30.1144 18.9222 30.4088 18.2443C30.5592 17.8983 30.8903 17.4384 31.0993 16.9194L31.0984 16.9203Z" fill="#46BF00"/>
<path fill-rule="evenodd" clip-rule="evenodd" d="M30.7335 21.1512C30.2436 21.2192 29.6873 21.7389 29.5504 21.9484C29.0298 22.7424 29.2169 24.0283 28.8401 24.7682C28.6649 25.112 28.2422 25.3681 27.8934 25.6792C27.2496 26.2538 26.4551 26.821 25.7619 27.2744C25.3103 27.5699 24.9232 27.7557 24.6672 28.0438C24.5337 28.1936 24.2207 28.5488 24.3117 28.9548C24.3551 29.1488 24.6187 29.3019 24.8152 29.3534C25.1274 29.4361 26.1523 29.581 26.5912 29.5245C26.7358 29.5057 26.9076 29.3911 27.1237 29.3248C27.3057 29.2691 27.5371 29.2675 27.6859 29.211C27.9002 29.13 28.1342 28.8885 28.3961 28.6986C28.6598 28.5071 28.9082 28.3229 29.1064 28.1576C29.5504 27.7876 30.1509 27.5028 30.5268 27.1042C30.7803 26.8349 30.9589 26.4387 31.1775 26.1359C31.3519 25.8944 31.533 25.6587 31.71 25.3952C32.057 24.8803 32.4933 24.309 32.6277 23.7721C32.8123 23.0297 32.541 22.4666 32.1837 22.0344C31.8988 21.6898 31.2643 21.0784 30.7335 21.1512Z" fill="#46BF00"/>
<path fill-rule="evenodd" clip-rule="evenodd" d="M51.6849 22.2573C51.392 22.2606 51.0754 22.2395 50.7765 22.2671C50.2011 22.321 47.665 22.4786 47.4167 22.587C47.2465 22.6612 46.9628 22.8327 46.8452 22.9299C46.2652 23.4094 46.1535 24.2777 46.2048 25.1697C46.3171 27.1114 47.2978 28.2898 47.3247 30.2899C47.3293 30.6406 47.2052 31.1215 47.3247 31.5241C47.4068 31.8006 47.6597 32.0949 47.8502 32.3925C48.5635 33.5038 49.5607 34.3361 50.1591 35.4783C50.2569 35.6655 51.4255 37.1835 52.1651 37.9921C52.9356 35.724 53.3534 33.2937 53.3534 30.7648C53.3534 27.7538 52.7589 24.8814 51.6843 22.2573H51.6849Z" fill="#46BF00"/>
<path fill-rule="evenodd" clip-rule="evenodd" d="M23.9326 30.8781C23.5054 30.1827 22.7849 29.011 21.9436 29.8006C21.7496 30.1563 21.5557 30.4168 21.2915 30.7989C21.1144 31.056 20.6394 31.4806 20.705 31.9178C20.7921 32.4996 21.8274 32.4664 22.3024 32.6764C22.5169 32.7716 22.7071 33.0608 22.9873 33.1159C23.734 33.2628 24.3505 32.4801 24.2914 31.678C24.2774 31.4921 24.0797 31.118 23.9326 30.8793V30.8781Z" fill="#46BF00"/>
<path fill-rule="evenodd" clip-rule="evenodd" d="M27.6143 29.5505C27.3204 29.4488 26.8561 29.9629 26.4956 30.0225C26.2511 30.0632 25.9901 29.9818 25.845 30.1175C25.6229 30.325 25.3739 31.0751 25.5586 31.6746C26.287 32.2457 27.6869 31.8672 27.8746 30.637C27.9359 30.2369 27.8312 29.6265 27.6143 29.5519V29.5505Z" fill="#46BF00"/>
<path fill-rule="evenodd" clip-rule="evenodd" d="M18.384 35.5314C18.671 35.1342 19.419 35.3697 19.5 34.6887C19.1913 33.8702 17.9759 34.5941 18.384 35.5314Z" fill="#46BF00"/>
<path fill-rule="evenodd" clip-rule="evenodd" d="M30.1597 39.958C29.8359 40.1951 30.5367 40.8921 30.5715 40.8724C30.9663 41.0628 31.5017 40.8586 31.3486 40.4152C31.254 40.1413 30.4907 39.7156 30.1597 39.958Z" fill="#46BF00"/>
<path fill-rule="evenodd" clip-rule="evenodd" d="M20.469 42.1065C20.046 41.8654 19.5383 42.1972 18.9832 42.0152C18.6633 41.9108 18.5123 41.5324 18.0919 41.6947C18.0741 41.6999 18.0465 41.6953 18.0459 41.7177C17.6235 42.0198 17.6872 42.9046 17.8856 43.3407C17.9533 43.4892 18.2679 43.815 18.4801 43.8892C18.7389 43.9798 19.0194 43.8991 19.3714 43.8662C19.8877 43.8176 20.2877 43.7119 20.5144 43.455C20.7994 43.1312 20.8934 42.3489 20.4684 42.1065H20.469Z" fill="#46BF00"/>
<path fill-rule="evenodd" clip-rule="evenodd" d="M36.4911 42.0383C36.0589 41.6534 34.9035 41.8571 34.2053 41.8098C33.8663 41.7861 33.5556 41.7047 33.2909 41.6955C32.9704 41.6843 32.6617 42.0127 32.6965 42.3129C32.7175 42.4916 32.996 42.7366 33.1537 42.8161C33.4735 42.9763 34.9081 43.2121 35.3022 43.2956C35.5177 43.3415 35.7555 43.4138 35.965 43.3869C36.5246 43.3153 36.9713 42.4666 36.4911 42.0383Z" fill="#46BF00"/>
<path fill-rule="evenodd" clip-rule="evenodd" d="M23.0058 45.4203C22.6695 45.3132 22.4409 45.0879 22.0685 45.1228C21.2146 45.2036 21.3223 46.1809 21.7026 46.6539C21.987 47.0086 22.391 47.3298 22.6623 47.6142C23.1983 48.1751 24.1277 47.6871 24.3307 47.111C24.4733 46.7058 24.401 46.066 24.1481 45.8315C23.9038 45.6049 23.465 45.5668 23.0052 45.4203H23.0058Z" fill="#46BF00"/>
<path fill-rule="evenodd" clip-rule="evenodd" d="M45.7482 47.6151C45.7482 47.6151 45.7535 47.6079 45.7561 47.6046C45.653 47.6953 45.5492 47.7859 45.4448 47.8746C45.5531 47.8082 45.6576 47.7242 45.7482 47.6145V47.6151Z" fill="#46BF00"/>
<path fill-rule="evenodd" clip-rule="evenodd" d="M45.9079 45.1925C45.3817 45.3797 45.2011 45.8796 44.8109 46.2665C44.669 46.407 44.4529 46.4996 44.3767 46.6093C44.047 47.0862 44.2973 47.9894 44.8562 48.0945C45.027 48.059 45.2431 47.9979 45.4448 47.8744C45.5492 47.7851 45.653 47.6951 45.7561 47.6045C46.0215 47.2747 46.3808 46.4648 46.434 46.0149C46.4859 45.5755 46.3223 45.0782 45.9085 45.1919L45.9079 45.1925Z" fill="#46BF00"/>
<path fill-rule="evenodd" clip-rule="evenodd" d="M41.0622 50.015C41.3053 49.0908 41.0005 48.0418 40.6051 47.4546C40.36 47.092 39.9193 46.6756 39.5304 46.449C38.643 45.9307 36.8925 45.8302 35.8737 46.2434C35.5164 46.3886 35.3351 46.7439 35.0507 46.9062C34.6769 47.1196 32.1329 47.5906 31.5306 47.5689C31.0465 47.5512 30.7233 47.3239 30.5019 47.0428C30.3541 46.8549 30.1702 46.5935 30.0907 46.38C30.0027 46.1436 30.0388 45.8368 29.9305 45.58C29.8667 45.4282 29.4739 45.1405 29.2447 45.0545C29.0916 44.9967 28.8801 44.9829 28.7415 44.9855C27.9658 45.0026 27.035 45.1839 26.6843 45.6253C26.5076 45.8473 25.9354 47.0743 25.8612 47.3627C25.7627 47.7469 25.6799 48.3184 25.7699 48.7565C25.8139 48.9706 26.0845 49.9034 26.1358 50.151C26.2816 50.8564 26.5759 51.3622 27.0041 51.7964C27.2203 52.0151 29.2742 52.8145 30.4448 53.2231C30.5919 53.2257 30.739 53.229 30.8868 53.229C34.2414 53.229 37.4239 52.492 40.2825 51.1737C40.4303 50.999 40.5492 50.8486 40.6031 50.7678C40.7653 50.526 40.9919 50.2725 41.0603 50.0137L41.0622 50.015Z" fill="#46BF00"/>
<defs>
<filter id="filter0_f_1_608" x="17.6565" y="66.527" width="24.4122" height="11.29" filterUnits="userSpaceOnUse" color-interpolation-filters="sRGB">
<feFlood flood-opacity="0" result="BackgroundImageFix"/>
<feBlend mode="normal" in="SourceGraphic" in2="BackgroundImageFix" result="shape"/>
<feGaussianBlur stdDeviation="1" result="effect1_foregroundBlur_1_608"/>
</filter>
</defs>
</svg>
