<svg width="50" height="48" viewBox="0 0 50 48" fill="none" xmlns="http://www.w3.org/2000/svg">
<g clip-path="url(#clip0_1_9253)">
<path d="M15.7823 18.8644C15.5945 19.1402 15.4704 19.4753 15.4083 19.7808C15.3462 20.147 15.3765 20.5148 15.5022 20.881V21.1568C15.5642 21.2176 15.6581 21.2488 15.7202 21.2488C15.8444 21.1272 15.9701 21.0649 16.1261 21.0352C16.4062 21.0664 16.6879 21.0041 16.968 20.8825C17.124 20.9136 17.28 20.9433 17.4057 20.9744C17.9054 21.1272 18.3112 21.403 18.6232 21.8004C19.029 22.1058 19.2168 22.5032 19.1532 22.9317C19.0275 23.1156 18.8715 23.298 18.7155 23.4507C18.5596 23.6035 18.4339 23.7562 18.3097 23.9089C18.028 24.0928 17.8418 24.3375 17.7797 24.6118C17.6858 24.8253 17.5298 24.978 17.3118 25.0092C17.0619 25.07 16.8438 25.1619 16.6561 25.3146C16.5622 25.3458 16.5304 25.3754 16.5001 25.4066C16.4062 25.5593 16.3123 25.6824 16.2199 25.8039C16.0958 26.0175 15.9701 26.2013 15.8762 26.4149C15.752 26.5987 15.6884 26.7811 15.6263 26.965C15.5006 27.1489 15.4083 27.3312 15.4083 27.484C15.3462 27.5151 15.3144 27.5759 15.3144 27.6678C15.2205 27.8517 15.1584 28.0341 15.1266 28.1868C15.0645 28.218 15.0327 28.1868 15.0327 28.126C15.1266 27.5151 15.2508 26.9027 15.4067 26.2621C15.4067 26.1094 15.4385 25.9878 15.5006 25.8336C15.5006 25.8025 15.5006 25.7728 15.4688 25.712C15.4067 25.7728 15.3749 25.7432 15.3749 25.6809C15.0948 25.712 14.8752 25.6201 14.7192 25.4362C14.2513 24.9469 13.7834 24.4887 13.314 24.0305C13.2822 23.9697 13.2519 23.9386 13.2201 23.8778C13.158 23.7858 13.158 23.6939 13.2822 23.6035C13.1262 23.4804 13.0005 23.3588 12.9081 23.1749C12.9081 23.1141 12.9399 23.083 13.0323 23.0222C13.0323 23.043 13.0429 23.043 13.0641 23.0222V22.7479C13.1262 22.7479 13.158 22.779 13.1898 22.779V22.5952C13.2519 22.5952 13.2837 22.6263 13.314 22.6263C13.3458 22.5952 13.3458 22.5655 13.3458 22.5344C13.3776 22.5344 13.4078 22.5655 13.4396 22.5655C13.7213 22.2289 13.9394 21.8315 14.1271 21.4341C14.221 21.2814 14.2831 21.1287 14.3452 20.9448C14.5012 20.7001 14.6572 20.4258 14.8131 20.1811C14.8131 20.1203 14.8131 20.0892 14.8449 20.0284C15.1569 19.5702 15.4688 19.1417 15.7505 18.6835C15.8126 18.5308 15.9065 18.4077 16.0004 18.2861H15.9686V18.2253H16.0004C15.9686 18.4092 15.9065 18.5916 15.8444 18.7443C15.7823 18.7443 15.7823 18.8051 15.7823 18.8659V18.8644ZM33.824 11.4074C33.9481 11.4385 34.1056 11.4682 34.2298 11.4993C34.6675 11.744 35.0415 12.0494 35.3534 12.4468C35.4155 12.5076 35.4473 12.5684 35.5094 12.6307C35.8532 12.6915 36.103 12.8442 36.3529 13.12C36.4468 13.2727 36.4771 13.4255 36.4771 13.5782C36.415 13.6998 36.3529 13.8229 36.2893 13.9148C36.2272 13.9756 36.1651 14.0364 36.1015 14.0675C36.0076 14.1283 35.9455 14.1595 35.8517 14.2202C35.7275 14.281 35.6336 14.3433 35.5397 14.4041C35.4458 14.4353 35.3519 14.4649 35.2278 14.4961L35.1657 14.5568V14.5257C35.1339 14.5865 35.0718 14.6176 35.0097 14.6176C34.9885 14.6384 34.9779 14.6384 34.9779 14.6176C34.9158 14.6488 34.884 14.6784 34.884 14.7096H34.9158C34.8537 14.7704 34.8219 14.8015 34.7598 14.8326C34.728 14.8934 34.6977 14.9246 34.6357 14.9542C34.6039 14.9542 34.6039 14.9854 34.5736 14.9854C34.5433 14.9854 34.5418 15.0165 34.5115 15.0165C34.5433 15.0477 34.5736 15.0477 34.6054 15.0165V15.0477C34.5736 15.1085 34.5433 15.1396 34.5115 15.2004C34.4176 15.3531 34.3237 15.4762 34.1374 15.4762C34.0118 15.5681 33.8876 15.6289 33.7634 15.6897H33.6695C33.4197 15.8128 33.1698 15.9032 32.9517 15.9952C32.8578 16.0263 32.7639 16.0263 32.7019 15.964C32.4838 15.964 32.296 15.9952 32.1082 16.0856C32.0144 16.1168 31.9523 16.1168 31.8902 16.0856C31.8281 16.1464 31.766 16.1464 31.7024 16.1168C31.6388 16.0871 31.6085 16.0856 31.5464 16.056C31.5464 16.0871 31.5146 16.0871 31.4843 16.056C31.5464 16.0248 31.5464 15.964 31.4843 15.9344C31.2345 15.9952 31.0164 16.1182 30.8286 16.3006C30.5167 16.4845 30.2047 16.6669 29.9231 16.79V16.7588C29.6111 16.8508 29.3613 16.9427 29.1432 17.0643C29.2992 17.1873 29.4869 17.2778 29.6732 17.3089C29.9852 17.4928 30.2668 17.7063 30.5152 17.9199C30.547 17.9807 30.6091 17.9807 30.6711 17.951C30.7029 17.951 30.7332 17.8902 30.765 17.8294C30.8589 17.8605 30.921 17.8605 31.0452 17.8605C31.0134 17.8605 31.0134 17.8294 31.0452 17.7997C31.295 17.8309 31.5449 17.8605 31.7948 17.9213C32.7624 18.3499 33.6983 18.8689 34.6039 19.4501C34.7598 19.6028 34.9476 19.7556 35.1339 19.8786C35.3519 20.0922 35.6018 20.3368 35.8517 20.5504C36.1636 20.887 36.4135 21.2532 36.6012 21.6506C36.7254 21.8641 36.8511 22.1088 36.9132 22.3535C36.945 22.5062 36.9753 22.6293 37.0071 22.7508C37.101 23.0563 37.101 23.3618 37.0692 23.6672C37.0374 23.6984 37.0071 23.7592 37.0374 23.7888C36.9435 23.9415 36.8193 24.0646 36.6633 24.1254C36.6012 24.1862 36.5694 24.2781 36.6012 24.3389C36.6012 24.3701 36.6331 24.3701 36.6331 24.3701V24.8891C36.6331 24.9202 36.6012 25.1649 36.571 25.6527C36.571 26.1717 36.5392 26.8745 36.5392 27.8221C36.5392 27.8221 36.5074 27.914 36.5074 28.0979V28.8615C36.4756 28.9846 36.4453 29.075 36.4453 29.1981C36.3832 29.382 36.3514 29.5955 36.3514 29.7794V29.8713C36.3514 30.2687 36.3196 30.6661 36.3196 31.0323C36.4438 31.4609 36.4756 31.8583 36.4135 32.2542V32.8962C36.3817 32.957 36.3817 33.0178 36.4453 33.0801C36.4771 33.5383 36.4771 34.0276 36.4453 34.4858C36.4135 34.6074 36.3514 34.6993 36.2575 34.7305C36.1954 34.7305 36.1636 34.6993 36.2257 34.6089H36.1636C36.1318 34.6697 36.1015 34.7008 36.1015 34.7008C36.0697 34.7008 36.0697 34.6697 36.0697 34.64C35.9758 34.7616 35.8819 34.8239 35.7881 34.8847C35.7881 35.0374 35.8199 35.159 35.8501 35.3132C35.7881 35.4348 35.7881 35.5579 35.8501 35.6795C35.7881 35.8025 35.726 35.9553 35.6624 36.0768C35.6003 36.108 35.5382 36.1376 35.5064 36.1984C35.5064 36.2904 35.4746 36.3512 35.4125 36.3823C35.2883 36.4431 35.1944 36.5039 35.1626 36.5958C34.881 36.627 34.7568 36.7486 34.725 36.9621C34.6629 37.2067 34.6311 37.4514 34.6008 37.6649C34.569 37.6961 34.5387 37.7569 34.5069 37.788C34.4448 37.788 34.413 37.788 34.3828 37.7569C34.351 37.788 34.351 37.8177 34.351 37.8488C34.2889 37.7569 34.2268 37.7272 34.1011 37.7272C33.9754 37.6664 33.883 37.6664 33.7573 37.7272V37.8488C33.6332 37.7569 33.5393 37.788 33.5393 37.8799C33.4772 37.8799 33.4136 37.8799 33.3515 37.9111C33.3197 37.9719 33.3197 38.0327 33.2894 38.0949C33.2576 38.1261 33.2273 38.1557 33.2576 38.1869C33.2258 38.1557 33.1637 38.1557 33.1334 38.218C33.1016 38.2492 33.0396 38.2492 33.0078 38.2492C32.8836 38.0964 32.7276 37.9437 32.6019 37.7598C32.3202 37.4232 32.0401 37.1178 31.7584 36.8123C31.4147 36.3541 31.0724 35.8959 30.7287 35.4674C30.4167 35.1916 30.0109 35.07 29.543 35.162C29.3552 35.1308 29.1992 35.162 29.0432 35.2539C28.9191 35.2227 28.7934 35.2539 28.7313 35.3147C28.6995 35.4674 28.6374 35.5593 28.5753 35.6201V35.6513C28.3255 35.804 28.1074 35.9271 27.8257 35.9879C27.6698 36.0487 27.5138 36.0798 27.3881 36.0798C27.2639 36.111 27.17 36.1406 27.1079 36.111C26.796 35.9894 26.5143 35.8974 26.2024 35.7744C25.9207 35.5608 25.6406 35.3162 25.3907 35.0404C25.1408 34.8268 24.891 34.5822 24.735 34.2767C24.7032 34.1848 24.7032 34.0928 24.7668 33.9713C24.735 33.9401 24.7668 33.8793 24.7986 33.8497C24.8304 33.82 24.8607 33.8185 24.8925 33.7889C24.9546 33.6969 24.9546 33.5753 24.8925 33.4523C24.8304 33.3603 24.7986 33.2388 24.7986 33.1157C24.8304 33.1468 24.8607 33.1157 24.8925 33.0845L24.9243 33.0534C24.8622 33.0223 24.8622 32.9926 24.8925 32.9318L24.9243 32.9007V33.0223H24.9561C24.9879 32.7168 25.1121 32.4721 25.3619 32.2586C25.3937 32.1978 25.3937 32.137 25.424 32.0747C25.5179 32.0747 25.5497 32.014 25.58 31.8909C25.4543 31.8597 25.3301 31.7989 25.2059 31.7989C25.1121 31.7381 25.0182 31.6462 24.9561 31.5543C24.6123 31.2488 24.3004 30.9122 23.9884 30.5756C23.9263 30.2702 24.0202 30.0566 24.2383 29.8416C24.3625 29.72 24.5502 29.5673 24.738 29.4131C24.738 29.3523 24.8001 29.2915 24.894 29.2604C25.2059 28.9549 25.4558 28.6183 25.7375 28.2209V28.1898C25.6133 28.2506 25.5194 28.2817 25.4255 28.3425C25.3634 28.3737 25.3316 28.3737 25.3316 28.3114C25.2998 28.3425 25.2695 28.3425 25.2695 28.3425C25.2377 28.3425 25.2378 28.3114 25.2378 28.2817C25.05 28.3425 24.8319 28.3737 24.6759 28.4345C24.6138 28.4952 24.582 28.5575 24.582 28.5872H24.4564V28.6183C24.3004 28.6791 24.2065 28.6495 24.1762 28.4967C24.0202 28.4656 23.8945 28.4359 23.7704 28.3737C23.7083 28.3737 23.6462 28.4048 23.6144 28.4656C23.5205 28.4656 23.4266 28.4345 23.3645 28.4345C23.0526 28.1601 22.8345 27.8235 22.7406 27.4261C22.7088 27.3046 22.7406 27.1815 22.8027 27.0895C22.8648 27.0287 22.8966 26.968 22.8966 26.8449C22.8648 26.9057 22.8966 26.9057 22.9284 26.876L22.9602 26.8449C22.939 26.8449 22.9284 26.8345 22.9284 26.8137C22.9284 26.8745 22.9602 26.8745 22.9905 26.8449C23.0223 26.7841 23.0223 26.7233 22.9905 26.661C22.8663 26.8449 22.7724 27.0273 22.7103 27.2111C22.6483 27.2423 22.6165 27.2111 22.5862 27.1503C22.5862 26.9057 22.618 26.661 22.7739 26.4163C23.0238 25.9893 23.2737 25.5608 23.5538 25.1322C23.2722 24.674 23.148 24.2159 23.2101 23.6657C23.1889 23.645 23.1783 23.6247 23.1783 23.6049C23.1162 23.7577 23.0526 23.9104 22.9602 24.0335C22.5226 24.2173 22.1803 24.4917 22.0244 24.8891C22.0864 25.1026 22.15 25.3176 22.2121 25.5C22.1182 25.6527 22.088 25.8054 22.15 25.9285C22.088 26.0516 22.0244 26.142 21.9623 26.2043C21.9623 26.4178 21.9002 26.6017 21.7442 26.7233C21.7124 26.7544 21.7124 26.7841 21.7124 26.7841C21.7124 26.8048 21.723 26.8152 21.7442 26.8152C21.7124 26.9072 21.6821 26.9368 21.62 26.9072C21.5579 27.0599 21.4943 27.183 21.402 27.2438C21.2778 27.3357 21.2142 27.4276 21.1839 27.5196C21.3081 27.7642 21.3081 28.0385 21.1839 28.3143C21.1839 28.4982 21.1839 28.6806 21.246 28.8645C21.2778 29.0172 21.3399 29.1403 21.4338 29.2619C21.6215 28.9564 21.8396 28.6509 22.0895 28.3143H22.1516C22.0895 28.6198 22.0259 28.8956 21.9017 29.1403C21.8396 29.2322 21.8078 29.293 21.7457 29.3538C21.8078 29.7512 21.9956 30.1486 22.2136 30.546C22.2757 30.6987 22.3696 30.8826 22.4635 31.0042C22.7452 31.5543 23.0571 32.1044 23.3994 32.6234C23.4312 32.7153 23.4932 32.8073 23.5871 32.8992C23.7113 33.1127 23.837 33.3885 23.9612 33.6332C23.993 33.7251 24.0233 33.7859 24.0551 33.8778C24.0869 33.9698 24.0869 34.0617 24.0551 34.1522C24.0551 34.3049 24.0233 34.428 23.9309 34.5184C23.7749 34.5184 23.6189 34.5496 23.4932 34.5792V34.64C23.4932 34.6711 23.525 34.6711 23.5553 34.64C23.5553 34.7319 23.5553 34.7927 23.4932 34.8535C23.2434 34.9143 22.9935 34.9455 22.7755 34.9143C22.4635 34.8224 22.1516 34.7616 21.8396 34.6385C21.5277 34.4547 21.246 34.21 20.9961 33.9357C20.8719 33.7829 20.7463 33.6302 20.5903 33.5071C20.4646 33.4152 20.4025 33.2936 20.3404 33.1409V33.0193C20.3086 32.7435 20.3086 32.5003 20.3404 32.2556L20.3722 32.2245C20.3101 32.1326 20.2783 32.0406 20.248 31.9191C20.1239 31.8271 19.9982 31.6744 19.9043 31.5217C19.7801 31.4297 19.7165 31.3081 19.7801 31.0931C19.7801 30.9715 19.7801 30.8173 19.718 30.6349C19.6862 30.5133 19.6559 30.3591 19.5939 30.2064C19.5621 29.9929 19.5 29.7779 19.5 29.5347C19.4682 29.5347 19.4682 29.5036 19.4682 29.4739C19.4061 29.1076 19.4061 28.7103 19.4682 28.3129C19.5939 28.0385 19.718 27.7019 19.7801 27.3653C19.9679 26.8152 20.1239 26.2962 20.2798 25.715C20.3116 25.6542 20.3419 25.5311 20.3737 25.4095C20.4055 25.2568 20.4358 25.1041 20.4979 24.9513C20.56 24.7986 20.5918 24.6459 20.6236 24.4931C20.6857 24.2188 20.7796 23.943 20.8735 23.6984C20.9976 23.6064 21.1551 23.5145 21.2793 23.4537C21.3732 23.4226 21.4974 23.3618 21.6231 23.3321C21.7169 23.3321 21.8108 23.3321 21.935 23.3929C22.091 23.3618 22.247 23.301 22.3726 23.1794C22.5604 22.9659 22.7467 22.7508 22.9663 22.5685C22.9981 22.5077 22.9981 22.4469 22.9981 22.3549C22.9663 22.0495 22.9663 21.7129 22.936 21.4386V20.1856C23.0299 19.8801 23.1858 19.5747 23.3736 19.2989C23.2797 19.2989 23.2176 19.33 23.2176 19.3908C23.1556 19.4516 23.0935 19.4827 23.0935 19.5435C22.9057 19.7571 22.7194 19.9409 22.5316 20.1544C22.5316 20.1337 22.5211 20.1233 22.4998 20.1233C22.1561 20.3072 21.9062 20.5504 21.72 20.8573C21.6261 20.8884 21.5958 20.9181 21.6261 20.9492V20.8884C21.5004 21.01 21.408 21.1331 21.3444 21.2858C21.3126 21.317 21.3126 21.3466 21.3126 21.4074C21.3126 21.4386 21.2808 21.4682 21.2808 21.4994C21.2808 21.4994 21.249 21.4682 21.249 21.4386C21.1869 21.4697 21.1869 21.4994 21.2172 21.5602C20.9053 21.9575 20.6872 22.4157 20.5615 22.9362H20.5297C20.4358 22.997 20.3737 23.0889 20.3419 23.1497C20.3419 23.1705 20.3525 23.1809 20.3737 23.1809C20.4358 23.1497 20.4979 23.0593 20.5615 22.9362C20.6554 22.8754 20.7493 22.7523 20.8735 22.5996C20.9976 22.4469 21.1233 22.2941 21.2172 22.0806C21.249 22.0806 21.2793 22.0806 21.3111 22.0495C21.5928 21.6224 21.935 21.225 22.3106 20.8276V20.8588C22.4044 20.7372 22.4983 20.6453 22.6225 20.5222C22.5907 20.583 22.5604 20.6453 22.4968 20.6453C22.4347 20.7668 22.3726 20.8899 22.2788 21.0115V20.9804C22.2788 21.0115 22.247 21.0412 22.2167 21.0412C22.0607 21.2547 21.935 21.4697 21.8426 21.6832C21.7805 21.6832 21.7487 21.7144 21.7487 21.7144C21.7487 21.7752 21.7487 21.8063 21.8108 21.8063C21.8426 21.7455 21.9047 21.6536 21.9668 21.5928V21.6536C21.935 21.6536 21.935 21.6224 21.935 21.6224C21.8729 21.6536 21.8729 21.7144 21.9032 21.744C21.8411 21.7752 21.8411 21.8048 21.8411 21.836V21.8671C21.779 21.8671 21.7472 21.8982 21.7472 21.959V21.7455C21.6533 21.8374 21.6231 21.9294 21.6231 21.9902C21.6549 22.0213 21.6549 22.051 21.6851 22.0821C21.6533 22.1132 21.6231 22.174 21.6231 22.2348C21.561 22.3268 21.5292 22.4187 21.4974 22.4795C21.5186 22.4795 21.5393 22.4691 21.5595 22.4484C21.5277 22.4795 21.5277 22.5091 21.4974 22.5091H21.4656C21.4338 22.6322 21.4035 22.693 21.3414 22.7538C21.2475 22.8754 21.1854 22.9673 21.1233 23.0904C21.1233 23.1823 21.0915 23.2431 20.9976 23.2431C20.9356 23.3959 20.8417 23.5797 20.7796 23.7325L20.6554 23.8541C20.6236 23.9149 20.5933 23.9756 20.5933 24.0379C20.1875 24.68 19.8437 25.322 19.5015 25.9626C19.5015 26.0234 19.4697 26.0545 19.4394 26.0857C19.2213 26.5439 18.9715 26.9724 18.6898 27.3387V27.3698C18.4399 27.6753 18.2522 28.0119 18.0962 28.3173C17.9402 28.6228 17.8463 28.8986 17.7524 29.204C17.7842 29.1729 17.8145 29.1432 17.8145 29.1121C17.8463 29.1121 17.8463 29.1432 17.8463 29.1729C17.7842 29.1729 17.7524 29.204 17.7842 29.2648C17.7222 29.296 17.6904 29.3256 17.7222 29.3568C17.6283 29.6622 17.5662 29.938 17.598 30.2435C17.5359 30.4881 17.4723 30.7328 17.442 30.9463C17.4102 31.0991 17.4102 31.2518 17.442 31.4045C17.4102 31.4653 17.4102 31.4965 17.4102 31.5261C17.5041 31.6477 17.5041 31.8004 17.442 31.9235C17.442 32.0154 17.442 32.0762 17.4102 32.1074C17.3163 32.352 17.1921 32.5967 17.0664 32.8102C17.0044 33.0549 16.9726 33.2684 16.9726 33.5131C16.9105 33.6658 16.8787 33.8185 16.8166 33.9416C16.8166 33.9727 16.8484 34.0335 16.8787 34.0943C16.8166 34.1255 16.8166 34.1551 16.8787 34.1863C16.8469 34.3701 16.8787 34.5229 16.9726 34.6445C16.9105 34.7364 16.9105 34.8283 16.9726 34.8891C16.9726 34.9811 16.9726 35.0418 17.0346 35.073C16.9726 35.1649 16.9726 35.2257 17.0346 35.2569C17.0346 35.5015 16.9105 35.6854 16.6909 35.807C16.6909 35.8277 16.7015 35.8381 16.7227 35.8381C16.3487 36.022 15.9731 36.0516 15.5673 35.93C15.4734 35.93 15.4113 35.8989 15.3492 35.8381C15.0993 35.7462 14.8813 35.6246 14.6935 35.4407C14.5996 35.3488 14.4754 35.288 14.3816 35.2272C14.1938 35.1353 14.0075 35.0137 13.8515 34.9217C13.7894 34.8609 13.7274 34.8298 13.6335 34.8001C13.4457 34.6771 13.2897 34.4947 13.1655 34.2812C12.9475 34.0676 12.8839 33.823 12.9475 33.5472C12.9157 33.4864 12.9157 33.4256 12.9793 33.3633C13.0732 33.2106 13.1353 33.0578 13.1973 32.874C13.2594 32.7213 13.3533 32.6293 13.4775 32.5374C13.6335 32.3847 13.7274 32.2319 13.8212 31.9873C13.9454 31.7737 14.1029 31.5587 14.2271 31.3452C14.3513 31.2533 14.4452 31.1005 14.5072 30.9182C14.6011 30.7046 14.6632 30.4896 14.7253 30.245C14.7874 30.1234 14.8192 30.0003 14.8495 29.8476C14.8813 29.5732 14.9116 29.2974 14.9434 29.0231C14.9752 28.9623 14.9752 28.9001 15.0055 28.8393C15.1614 27.9525 15.5052 27.1578 16.0352 26.4549C16.0973 26.3941 16.1291 26.3333 16.1609 26.271C16.1609 26.2918 16.1715 26.3022 16.1927 26.3022C16.2245 26.271 16.2245 26.2102 16.2245 26.1806H16.2866L16.3184 26.1494C16.3502 26.1183 16.4123 26.0886 16.4425 26.0279C16.3805 26.1198 16.3184 26.1806 16.2245 26.2117C16.2245 26.3037 16.1927 26.3956 16.1624 26.4564C16.0367 26.6403 15.9125 26.8538 15.8186 27.0376C15.7868 27.1904 15.7566 27.312 15.6945 27.4647C15.7263 27.6174 15.7263 27.7405 15.6945 27.8932C15.6324 28.0163 15.6324 28.1379 15.6324 28.2595C15.6112 28.2595 15.6006 28.2491 15.6006 28.2283C15.5385 28.2891 15.5385 28.3811 15.5688 28.4419C15.5067 28.473 15.4749 28.5338 15.4749 28.5946C15.4128 28.7473 15.4128 28.9001 15.4749 29.0231C15.4128 29.207 15.4128 29.3597 15.4431 29.5125C15.4431 29.5125 15.4749 29.4517 15.5052 29.3894C15.5052 29.4502 15.5052 29.5125 15.5673 29.5421C16.0973 28.5635 16.6591 27.6159 17.3148 26.7307C17.6586 26.2725 17.9705 25.8143 18.2825 25.3547L18.3143 25.3235L18.2825 25.2924C18.3763 25.2004 18.4384 25.1085 18.4702 25.0181C18.6262 24.8653 18.7519 24.7126 18.9079 24.5287C18.9397 24.4976 18.9397 24.4679 18.97 24.4071C19.5318 23.8259 19.9997 23.1853 20.4676 22.5121C20.5933 22.2675 20.7175 22.0539 20.8735 21.8093C20.9356 21.7781 20.9674 21.7173 20.9674 21.6565C21.0294 21.5646 21.1233 21.4727 21.1854 21.3807L21.1536 21.3496C21.2157 21.3185 21.2475 21.2888 21.2778 21.2577C21.2778 21.2577 21.246 21.2577 21.246 21.2265C21.3399 21.1657 21.402 21.0738 21.4338 20.9819C21.455 21.0026 21.4757 21.0026 21.4959 20.9819C21.4959 20.9507 21.4959 20.9211 21.4641 20.9507C21.5261 20.8899 21.5897 20.8291 21.6518 20.7372C21.673 20.7777 21.6937 20.7777 21.7139 20.7372L21.7457 20.6764C21.7245 20.6764 21.7139 20.666 21.7139 20.6453C21.7139 20.6858 21.7033 20.7061 21.6821 20.7061H21.6503C21.6821 20.7061 21.7124 20.6749 21.7124 20.6141V20.6453C21.7124 20.6453 21.7124 20.6141 21.7442 20.5533C21.7442 20.5845 21.776 20.6141 21.8063 20.6141V20.4925C21.8063 20.5331 21.827 20.5434 21.8684 20.5237L21.9002 20.4925H21.8684C21.9926 20.3709 22.1182 20.2182 22.2424 20.0343L22.2742 20.0032C22.306 20.0032 22.3363 19.9721 22.3363 19.9424C22.8663 19.4531 23.3358 18.8733 23.7416 18.2609H23.7734C23.8052 18.2609 23.8355 18.2298 23.8355 18.2001C23.8355 18.2609 23.8037 18.292 23.8037 18.3217C23.6795 18.4744 23.6159 18.596 23.6159 18.7502C23.5841 18.8718 23.522 18.9949 23.4902 19.1165C23.5841 19.0245 23.7083 18.903 23.7719 18.7799C23.8658 18.6568 23.9597 18.5352 24.0838 18.4136C24.3337 18.1082 24.6138 17.8324 24.9258 17.5877C25.1136 17.5269 25.2696 17.4661 25.4876 17.4038C25.7057 17.435 25.9253 17.5254 26.0812 17.6782C26.269 17.5862 26.4871 17.5254 26.7051 17.4646C26.7369 17.5254 26.799 17.5862 26.8929 17.5862C27.0807 17.3727 27.2987 17.128 27.4547 16.8834C27.3608 16.9145 27.2367 16.9442 27.1746 16.9442C26.8308 17.0361 26.5189 17.0658 26.2387 17.0969C26.1448 17.1577 26.0509 17.1888 25.9889 17.1888C25.739 17.2496 25.5209 17.2808 25.3029 17.3104H25.2408C24.9288 17.3104 24.6472 17.3104 24.3973 17.2793C24.1792 17.3104 24.0233 17.2793 23.8673 17.1562C23.1813 16.6669 22.5256 16.1479 21.8699 15.6586C21.7457 15.6274 21.7139 15.537 21.7139 15.4139C21.6821 15.2923 21.7457 15.1692 21.8381 15.0477C21.8381 14.9261 21.8699 14.8341 21.9941 14.7422V14.6814C22.0562 14.6503 22.088 14.6503 22.088 14.6206H22.0562C22.1818 14.5287 22.3378 14.4071 22.462 14.284C22.4938 14.1921 22.5559 14.1313 22.618 14.0705C22.6498 13.9786 22.7421 13.9178 22.8678 13.9178C22.8996 13.857 22.9617 13.8258 23.0238 13.8866C23.0859 13.8866 23.2116 13.8555 23.3358 13.8555C23.4917 13.8555 23.6795 13.8866 23.8658 13.8866C24.0217 13.8866 24.1777 13.9178 24.3337 14.0082C25.0515 14.1609 25.7693 14.1921 26.5189 14.069C26.6446 14.0082 26.7687 13.9771 26.9247 13.9474C27.1746 13.8866 27.4547 13.7947 27.7364 13.7339C28.2361 13.6123 28.7358 13.4596 29.2341 13.2446C29.546 13.0607 29.92 12.8783 30.2638 12.7552C30.4198 12.6336 30.5455 12.4809 30.7014 12.3282C30.7953 12.2363 30.8574 12.1443 30.8256 11.9916C30.8256 11.9308 30.8574 11.87 30.9195 11.7469C30.9195 11.7469 30.9513 11.7158 30.9513 11.655C30.8892 11.655 30.8892 11.5942 30.9195 11.5334C30.9195 11.5334 30.9195 11.5023 30.9816 11.4726C30.8877 11.4726 30.8574 11.4726 30.9195 11.4118C31.0437 11.4118 31.1376 11.3199 31.1694 11.1983C31.1073 11.1671 31.1073 11.1375 31.1073 11.1375C31.2314 11.1064 31.3253 11.0456 31.3874 10.924C31.5116 10.8928 31.6691 10.8632 31.8554 10.8632V10.832C32.0113 10.8632 32.1991 10.8928 32.4172 10.8928C32.8851 11.0144 33.353 11.1671 33.8225 11.4118L33.824 11.4074ZM20.0588 13.6078C20.3404 13.8525 20.5267 14.1268 20.7145 14.4338C20.8386 14.6473 20.9022 14.8623 20.9643 15.1055C21.09 15.4421 21.1521 15.8083 21.1521 16.2057C21.1521 16.3896 21.246 16.572 21.3702 16.6951C21.3384 16.8181 21.3384 16.9086 21.3384 16.9709C21.2763 17.1547 21.2142 17.3075 21.1506 17.4602C20.9946 17.6441 20.8068 17.7968 20.6206 17.8264C20.5267 17.948 20.4328 18.04 20.3389 18.04C20.1829 18.1319 19.9952 18.163 19.8392 18.163C19.715 18.1942 19.6211 18.163 19.5272 18.1022C19.3395 18.1022 19.1532 18.0414 18.9972 17.9184C18.9033 17.8576 18.8094 17.8264 18.6853 17.8264C18.4975 17.7345 18.3415 17.6426 18.1855 17.521C18.0598 17.429 17.9675 17.3683 17.8736 17.3075C17.7176 17.3075 17.6237 17.2467 17.5616 17.1547C17.4057 17.0939 17.2497 17.0939 17.0937 17.1547C16.9377 17.2467 16.812 17.3386 16.7197 17.4305C16.6783 17.4305 16.6576 17.4201 16.6576 17.3994C16.3759 17.4602 16.1579 17.6441 16.0337 17.8576H15.9398C15.9716 17.6129 16.0019 17.3386 16.064 17.0628C16.1897 16.6343 16.1579 16.1761 15.9398 15.749C15.8777 15.5355 15.7838 15.3205 15.7217 15.1381C15.5658 14.9542 15.4719 14.7719 15.4719 14.5272C15.5658 14.3433 15.6278 14.1609 15.6899 13.9771V13.8851C15.7838 13.8243 15.8459 13.7324 15.908 13.6093C15.9701 13.5485 16.0322 13.4877 16.1579 13.4566C16.282 13.3647 16.4077 13.2431 16.5016 13.0903C16.6273 12.9376 16.7833 12.7849 16.9695 12.6322C17.0634 12.5714 17.1876 12.5106 17.3133 12.4794C17.5949 12.4794 17.9069 12.5106 18.2189 12.5106C18.9987 12.6322 19.6241 12.9999 20.0603 13.6108L20.0588 13.6078ZM18.873 24.855C18.7489 25.0077 18.655 25.0996 18.5929 25.2212C18.499 25.3428 18.4369 25.4955 18.4051 25.6186C18.4369 25.4955 18.499 25.4051 18.5929 25.3131C18.6868 25.1604 18.7807 25.0077 18.873 24.855ZM23.6174 25.3739V25.4051C23.5553 25.5578 23.4614 25.7105 23.3994 25.8336C23.3373 25.9567 23.2752 26.0783 23.2116 26.1702C23.1177 26.3541 23.0556 26.5068 23.0238 26.6595C23.0556 26.6907 23.1177 26.7203 23.2116 26.7203V26.6892C23.2116 26.6487 23.2323 26.6383 23.2737 26.658C23.3358 26.4742 23.4614 26.3214 23.6174 26.1999C23.7113 26.1391 23.8052 26.0471 23.9294 25.9552C23.8052 25.7713 23.6795 25.5889 23.6174 25.3739ZM27.7682 17.825C27.3941 18.1616 27.0504 18.5278 26.7384 18.9252C26.6446 19.0468 26.5204 19.1091 26.3644 19.1091C26.3023 19.1402 26.2705 19.201 26.2402 19.2618C26.0525 19.6592 25.9283 20.0862 25.8965 20.5148C25.8965 20.7906 25.9283 21.0338 26.0525 21.3096C26.0843 21.5231 26.1145 21.7381 26.1463 21.9516C26.8323 21.4326 27.488 20.8825 28.1437 20.3324C28.1437 19.8431 28.1755 19.5984 28.2058 19.5687C28.2058 19.4471 28.174 19.2944 28.1437 19.1417C28.1755 18.8362 28.1437 18.5308 28.1119 18.1942C28.0181 18.1334 27.956 18.0103 27.956 17.8279C27.9878 17.7968 28.0499 17.736 28.1119 17.6441C27.9862 17.7048 27.8621 17.7671 27.7682 17.8279V17.825ZM28.1119 21.5839C27.6743 21.9205 27.2064 22.2571 26.7384 22.5625C26.4886 22.6233 26.3644 22.7761 26.3644 22.9599C26.3644 23.1438 26.4265 23.2654 26.4886 23.3262C26.4886 23.4181 26.4886 23.4478 26.4265 23.4789C26.4477 23.4997 26.4583 23.5199 26.4583 23.5397C26.4901 23.5086 26.5204 23.4789 26.584 23.4478V23.7844C26.5219 23.7844 26.4583 23.7844 26.3962 23.7532C26.272 24.0898 26.1781 24.4249 26.1781 24.7615C26.7718 24.3033 27.27 23.7532 27.6137 23.08C27.8015 22.7138 27.9257 22.3164 28.0196 21.8567C28.0514 21.7959 28.0817 21.6728 28.1135 21.5809L28.1119 21.5839ZM31.0452 19.9335C30.8271 19.9646 30.6393 19.9943 30.4213 20.0254V20.454C30.4213 20.5148 30.3895 20.5756 30.3592 20.6378C30.3592 20.8514 30.3274 21.0352 30.3274 21.188C30.3274 21.2191 30.2956 21.2191 30.2653 21.2191H30.2971C30.2971 21.4326 30.2653 21.6476 30.2653 21.8612C30.2653 21.922 30.2971 21.9531 30.3274 21.9828C30.2653 22.1666 30.2335 22.349 30.2335 22.5329C30.2653 22.5017 30.2956 22.5017 30.3274 22.5017C30.3592 22.6248 30.3274 22.7775 30.2653 22.8991C30.2335 22.9911 30.1714 23.1127 30.1093 23.2046C29.9836 23.2046 29.9534 23.2965 29.9534 23.4181C29.8913 23.4492 29.8595 23.4789 29.8595 23.51C29.7353 23.6331 29.6414 23.7547 29.6096 23.8466C29.6717 23.9074 29.7656 23.9682 29.8898 23.9682C30.2956 24.2129 30.6696 24.4576 31.0755 24.763C31.2633 24.9157 31.4192 25.0685 31.5116 25.3131C31.5737 25.497 31.5116 25.6794 31.3874 25.8025C31.3253 25.8944 31.3556 25.9863 31.4495 26.0471C31.5116 26.1999 31.5434 26.3214 31.5434 26.4742C31.5434 26.4134 31.5752 26.3526 31.6373 26.2903C31.6994 26.3511 31.6994 26.3822 31.7312 26.443C31.6994 26.5038 31.6373 26.535 31.5752 26.5038C31.6373 26.8093 31.607 27.1148 31.5434 27.3594C31.2935 27.6041 31.0437 27.7257 30.7635 27.7568C30.4516 27.8176 30.2017 27.9407 29.9836 28.0934C29.8277 28.215 29.7035 28.2773 29.6096 28.3069C29.3279 28.4597 29.1417 28.6435 29.016 28.8571C29.016 28.9178 29.0478 28.9178 29.1099 28.8882C29.2659 29.0409 29.4536 29.1936 29.6717 29.2856C30.1396 29.5302 30.5773 29.8357 30.9831 30.1723C31.077 30.2034 31.1709 30.2939 31.2648 30.417C31.3269 30.5089 31.4207 30.6008 31.5146 30.7224C31.5146 30.7536 31.4828 30.7536 31.4525 30.7536C31.3905 30.9374 31.2966 31.059 31.1724 31.151C31.0785 31.1821 31.0467 31.2118 31.0467 31.2725C31.0149 31.3645 30.9528 31.4253 30.8907 31.4253C30.7968 31.4564 30.7348 31.4564 30.6409 31.4564C30.4228 31.578 30.235 31.6699 30.0472 31.793C29.9534 31.793 29.8292 31.7619 29.7671 31.6714C29.5793 31.6106 29.4551 31.6106 29.3295 31.6714C29.2674 31.6714 29.2356 31.6714 29.2053 31.7026C29.0811 31.7634 28.9554 31.8242 28.8312 31.8553V31.8242C28.7071 31.9161 28.6132 32.0688 28.5511 32.1904C28.489 32.2823 28.4572 32.312 28.4254 32.2823H28.4572C28.3951 32.3135 28.3951 32.3431 28.4254 32.3135C28.4254 32.3342 28.436 32.3446 28.4572 32.3446C28.3951 32.3758 28.3633 32.4054 28.3633 32.4366C28.3012 32.4366 28.2694 32.4366 28.2694 32.4054V32.4973C28.2482 32.5181 28.2275 32.5285 28.2073 32.5285C28.1755 32.5596 28.1453 32.5596 28.1453 32.5893C28.0832 32.6204 28.0514 32.6204 28.0196 32.6204H27.9878C27.8636 32.7124 27.7697 32.8043 27.6758 32.8651V32.742C27.6137 32.8028 27.5198 32.8339 27.4578 32.8947C27.3957 32.9555 27.3639 33.0475 27.3957 33.1394H27.2715C27.2094 33.2002 27.1776 33.2002 27.1776 33.1394C27.1155 33.2002 27.1155 33.261 27.1776 33.3233C27.1362 33.3233 27.1155 33.303 27.1155 33.2625C27.0837 33.3233 27.0837 33.3544 27.1473 33.3544C27.2094 33.3233 27.3351 33.2936 27.4593 33.2625C27.5532 33.2625 27.647 33.2313 27.7409 33.1409C28.3027 33.049 28.8328 32.8962 29.3946 32.6827C29.7686 32.6219 30.1745 32.6516 30.5803 32.7435V32.5596C30.5803 32.4988 30.6121 32.438 30.6424 32.3461C30.6742 32.3772 30.7363 32.4069 30.7666 32.438C30.8286 32.3772 30.8604 32.2853 30.8604 32.1934C30.8604 32.2245 30.8604 32.2542 30.8922 32.2542L30.9861 32.1622C31.08 32.1622 31.1421 32.1014 31.1421 31.9487C31.1421 31.9798 31.1739 32.0095 31.1739 32.0095C31.236 32.0703 31.2678 32.0406 31.2981 31.9487C31.2981 31.9798 31.3299 32.0095 31.3299 32.0095C31.3617 32.0095 31.392 32.0095 31.4238 31.9487H31.4556C31.5177 32.0406 31.5495 32.0406 31.6115 31.9487C31.6433 31.8879 31.6736 31.8568 31.7054 31.796H31.9235C32.0174 31.7352 32.1113 31.6744 32.1416 31.5513C32.1734 31.5513 32.2354 31.5513 32.2975 31.5202C32.3596 31.3674 32.4853 31.2147 32.6413 31.062C32.6413 30.8781 32.6413 30.6646 32.6731 30.4807C32.7352 30.328 32.767 30.1753 32.8291 30.0522C32.8291 29.8995 32.8291 29.7764 32.7973 29.6237C32.7973 29.1655 32.7655 28.6761 32.7655 28.1572C32.7655 28.0044 32.7337 27.7909 32.7034 27.607C32.7034 27.5151 32.6716 27.4232 32.6413 27.3312V26.1391C32.5792 26.0471 32.5792 25.9863 32.6095 25.8944C32.5777 25.7105 32.5474 25.5889 32.5777 25.4659C32.5777 25.3739 32.6095 25.3131 32.6095 25.3131C32.6716 25.0388 32.7337 24.7319 32.7337 24.4576C32.7019 23.9386 32.7019 23.5412 32.7337 23.2654C32.7957 22.9896 32.8275 22.8368 32.8275 22.8368C32.8594 22.6841 32.8896 22.5314 32.8896 22.3475V21.3392C32.4838 20.881 32.0462 20.4525 31.6418 19.9943C31.4238 19.9943 31.236 19.9943 31.0482 19.9335H31.0452Z" fill="white"/>
<path d="M22.0153 42.7802C22.088 42.8098 22.1591 42.8395 22.2303 42.8676C22.3711 42.9255 22.5044 42.9833 22.6316 43.0426C22.7603 43.099 22.8815 43.1627 22.9981 43.2131C23.1147 43.2635 23.2267 43.3154 23.3312 43.3673C23.5417 43.4697 23.728 43.5749 23.893 43.6787C24.0581 43.7736 24.202 43.87 24.3231 43.9679C24.8107 44.3608 24.9531 44.776 24.8107 45.2075C24.7077 45.5234 24.4927 45.8288 24.2004 46.1254C24.0551 46.2737 23.89 46.4204 23.7128 46.5672C23.5356 46.7111 23.3448 46.843 23.1465 46.9795C22.9663 47.1025 22.7618 47.2182 22.5316 47.3279C22.3015 47.4391 22.0471 47.5222 21.7669 47.6097C21.6276 47.6512 21.4807 47.6912 21.3278 47.7298C21.252 47.7491 21.1733 47.7683 21.0946 47.7846C21.0158 47.798 20.9356 47.8128 20.8538 47.8276C20.5267 47.881 20.1754 47.9285 19.7998 47.9641C18.3082 48.0782 16.4486 47.9359 14.3861 47.3665C14.2241 47.3205 14.062 47.2731 13.897 47.2256C13.7334 47.1767 13.5638 47.1307 13.4018 47.0714C13.0732 46.9543 12.74 46.8356 12.4069 46.717C12.0783 46.588 11.7512 46.4501 11.4241 46.3152C11.3423 46.2811 11.2605 46.2484 11.1788 46.2143C11.0985 46.1788 11.0197 46.1417 10.9395 46.1061C10.7805 46.0334 10.623 45.9623 10.4655 45.8911C9.02538 45.2357 7.69732 44.177 6.64183 42.8869C6.54189 42.7668 6.44194 42.6452 6.342 42.5236C6.29202 42.4628 6.24054 42.402 6.19056 42.3412C6.1421 42.279 6.09213 42.2167 6.04367 42.1544C5.84681 41.9038 5.64692 41.6547 5.44249 41.4041C5.05482 40.8866 4.64444 40.3706 4.26283 39.816C4.19922 39.7271 4.14168 39.6366 4.07656 39.5313C4.04476 39.4794 4.00993 39.4231 3.97208 39.3623C3.93573 39.3 3.89787 39.2318 3.85396 39.1547C3.94179 39.2051 4.01902 39.2526 4.09928 39.297C4.17954 39.34 4.2598 39.383 4.3446 39.429C4.31886 39.3771 4.27494 39.2703 4.20225 39.1399C3.30123 37.5547 2.40021 35.8792 1.65364 34.0316C0.522442 31.2098 0 28.1967 0 25.2133C0.00454298 24.7922 0.0196862 24.3711 0.0318008 23.9515C0.05603 23.5318 0.0969168 23.1137 0.133261 22.7C0.177176 22.3189 0.242292 21.9422 0.299836 21.5656C0.327094 21.3773 0.366467 21.1919 0.405839 21.0051C0.445212 20.8198 0.484584 20.6329 0.523957 20.4461C0.579987 20.1555 0.663275 19.8693 0.740505 19.5816L0.852565 19.1516L0.904052 18.9351L0.961597 18.7201C1.09486 18.2174 1.21752 17.7103 1.38561 17.2165C1.46587 16.9689 1.54007 16.7183 1.6279 16.4736L1.90199 15.7411C1.94894 15.6195 1.99134 15.4965 2.04283 15.3764L2.19729 15.0175L2.50924 14.2999L2.8545 13.597L3.02865 13.2456L3.21794 12.903L3.59955 12.218L4.01145 11.5507L4.21891 11.2171C4.28857 11.1074 4.3658 11.0006 4.44 10.8924L4.88673 10.2459C5.51063 9.4051 6.16179 8.58066 6.88867 7.82146C7.22939 7.44038 7.60646 7.0934 7.97444 6.73604C10.4837 4.37838 13.5032 2.54118 16.7757 1.38755C18.4112 0.810738 20.1087 0.407414 21.826 0.189441C23.5432 -0.0285316 25.2786 -0.0611534 26.9883 0.0886103C28.4527 0.219097 29.9246 0.44745 31.3526 0.813704C31.6252 0.887844 31.9265 0.961985 32.1612 1.0465C33.4075 1.52693 34.6584 2.05481 35.8971 2.66128C36.203 2.81994 36.5164 2.96823 36.8239 3.13133C37.1282 3.29889 37.4341 3.46645 37.7415 3.63401C38.0429 3.81343 38.3442 3.99433 38.6471 4.17523C38.8001 4.26272 38.9454 4.36503 39.0938 4.45993C39.2422 4.55631 39.3906 4.65418 39.539 4.75056C39.5269 4.82767 39.5163 4.88698 39.5012 4.98633C39.5996 5.05157 39.695 5.12275 39.7904 5.1954C39.8858 5.26806 39.9812 5.33924 40.0766 5.41189C40.2659 5.55869 40.4628 5.69956 40.6506 5.85377C40.8368 6.00947 41.0231 6.16516 41.2093 6.32234C41.3017 6.40093 41.3971 6.47803 41.488 6.55959L41.7575 6.80722C42.9372 7.88225 44.0063 9.06998 44.9422 10.3467C45.0678 10.5187 45.2238 10.7278 45.2889 10.8657C45.4358 11.1978 45.6069 11.527 45.7947 11.8547C45.9689 12.1913 46.1597 12.5264 46.3596 12.863C46.5443 13.2085 46.7427 13.554 46.9365 13.9025C47.1167 14.2598 47.3075 14.6142 47.4786 14.976C47.565 15.1688 47.6498 15.363 47.7315 15.5588C47.8133 15.7545 47.8996 15.9487 47.9678 16.1504L48.1828 16.7494L48.2888 17.049L48.3827 17.353C48.4705 17.6391 48.5553 17.9579 48.6386 18.2382C48.7174 18.5199 48.8128 18.7601 48.9491 18.8862C48.9097 18.7142 48.8688 18.5407 48.8234 18.342C48.781 18.1433 48.7189 17.9238 48.6417 17.6584C48.6962 17.7444 48.7477 17.8319 48.7976 17.9238C48.8219 17.9698 48.8461 18.0158 48.8703 18.0617C48.8915 18.1092 48.9127 18.1566 48.9339 18.2056C49.0172 18.3983 49.0914 18.6 49.1611 18.8091C49.1959 18.9129 49.2292 19.0181 49.261 19.1264C49.2928 19.2332 49.3155 19.3444 49.3428 19.4541C49.3928 19.675 49.4397 19.9019 49.4851 20.1303C49.5472 19.9835 49.6093 20.0012 49.6669 20.1288C49.7289 20.2563 49.7729 20.4965 49.8107 20.7916C49.9697 21.923 50.0136 23.0603 49.9955 24.2658C49.9319 24.1857 49.8804 24.1235 49.8228 24.0508C49.8153 24.2095 49.7986 24.3637 49.8016 24.5105C49.8047 24.767 49.8183 25.025 49.8153 25.2815L49.7956 26.0526C49.791 26.1816 49.7895 26.3091 49.7835 26.4381L49.7532 26.8237C49.732 27.0802 49.7093 27.3382 49.6835 27.5947C49.6441 27.8824 49.5972 28.1582 49.5472 28.4281C49.5215 28.563 49.4957 28.695 49.4685 28.8254C49.4352 28.9544 49.4003 29.082 49.364 29.208C49.2913 29.4601 49.2141 29.7047 49.1308 29.9435C49.0384 30.1807 48.9369 30.4106 48.8294 30.6374C48.6644 31.0067 48.4614 31.45 48.2661 31.9245C48.1737 32.1632 48.0556 32.4005 47.9496 32.6422C47.8966 32.7623 47.8421 32.8824 47.7891 33.0025C47.7376 33.1226 47.6831 33.2412 47.624 33.3554C47.5301 33.5467 47.4393 33.7335 47.3499 33.913C47.2621 34.0939 47.1773 34.2688 47.0774 34.4319C46.9804 34.5965 46.8805 34.7537 46.7745 34.902C46.667 35.0503 46.5579 35.1911 46.4216 35.3157C46.0143 35.7086 45.3329 36.843 44.6726 37.5977C43.7731 38.6772 42.7752 39.7033 41.703 40.5915C41.6152 40.6657 41.5304 40.7146 41.4213 40.771C41.3668 40.7991 41.3063 40.8288 41.2366 40.8659C41.1654 40.9 41.0821 40.9385 40.9867 40.986C41.0276 40.9474 41.0655 40.9133 41.1049 40.8777C41.1049 40.8777 41.1018 40.8777 41.1003 40.8792C40.808 40.986 40.5309 41.1594 40.2614 41.3567C39.9843 41.545 39.7071 41.7511 39.4315 41.9364C39.221 42.0758 38.9984 42.2033 38.7864 42.3412L38.4669 42.5503C38.3609 42.62 38.2504 42.6838 38.1428 42.7535C37.9278 42.8899 37.7158 43.0337 37.5083 43.182C37.2933 43.3214 37.0843 43.4697 36.8784 43.6268C36.7845 43.6965 36.6936 43.7722 36.5967 43.8404C36.4983 43.9071 36.3998 43.9753 36.3014 44.0435C36.103 44.177 35.9001 44.306 35.6881 44.4083C34.2919 45.0696 32.82 45.5723 31.3223 45.897C31.1315 45.9356 30.9468 45.9771 30.7666 46.0216C30.6772 46.0438 30.5879 46.0661 30.5015 46.0913C30.4137 46.1135 30.3259 46.1343 30.2396 46.155C30.0669 46.1995 29.8973 46.2484 29.7277 46.3048C29.5581 46.3597 29.3915 46.4279 29.2204 46.4857C28.9372 46.5895 28.6359 46.7066 28.3103 46.7793C27.9832 46.8386 27.6319 46.8505 27.2594 46.763C27.0777 46.7229 26.6446 46.7882 26.3266 46.806L25.9677 46.8223H25.6088L24.891 46.8208L24.8092 46.7363C25.1211 46.6592 25.418 46.5732 25.739 46.5079C25.8253 46.4901 25.9101 46.4738 25.9964 46.4546L26.2539 46.3908C26.425 46.3478 26.5946 46.3063 26.7672 46.2633C27.1095 46.1876 27.4456 46.0764 27.7818 45.9786C28.1528 45.8777 28.5132 45.7428 28.8948 45.6435C28.9902 45.6183 29.0872 45.5945 29.1841 45.5738C29.2825 45.55 29.3809 45.5278 29.4809 45.5026C29.6823 45.4581 29.8913 45.4225 30.1139 45.3988C30.179 45.3914 30.2502 45.384 30.3213 45.3721C30.3925 45.3573 30.4667 45.341 30.5364 45.3232C30.6772 45.2876 30.809 45.2431 30.8953 45.1942C31.0255 45.12 31.1618 45.0592 31.3011 45.0073C31.4389 44.9495 31.5813 44.8991 31.7251 44.8546C32.0113 44.7612 32.3127 44.7004 32.5959 44.5936C32.7412 44.5432 32.8881 44.4943 33.0365 44.4454C33.1834 44.3964 33.3333 44.3534 33.4772 44.2956C33.7664 44.1859 34.0572 44.0776 34.3404 43.9545C36.9071 42.7831 39.2195 41.1061 41.117 39.0731C41.2972 38.873 41.5788 38.6016 41.6152 38.4696C41.6894 38.2012 41.8272 37.967 42.0089 37.7564C42.1937 37.5473 42.3951 37.3412 42.5889 37.1292C42.6934 37.015 42.7888 36.9008 42.8766 36.7852C42.9614 36.6665 43.0341 36.5435 43.1022 36.4174C43.1704 36.2914 43.2325 36.1624 43.2885 36.026C43.3158 35.9578 43.3461 35.8895 43.3688 35.8169C43.3915 35.7442 43.4127 35.6686 43.4339 35.593C42.5904 36.9186 41.6076 38.1123 40.5234 39.1814C39.4391 40.2505 38.2504 41.1965 36.9662 42.015C36.9859 41.7422 37.3251 41.5806 37.581 41.3967L38.1065 40.983L38.3685 40.7769L38.6198 40.5574L39.1226 40.1215L39.6026 39.6618L39.8419 39.432L40.0706 39.1918L40.5264 38.7113L40.9564 38.2101L41.1715 37.9595L41.3729 37.6986L41.5046 37.5266C41.4804 37.5266 41.4532 37.5295 41.4229 37.531C41.5319 37.4243 41.6364 37.3056 41.7484 37.1989L42.1285 36.625L42.3209 36.3418C42.3814 36.2439 42.4435 36.1476 42.5071 36.0527L42.7282 35.7235C42.8024 35.6137 42.8781 35.5055 42.9448 35.3913L43.3642 34.7181C43.6232 34.2585 43.8942 33.8018 44.1184 33.3243L44.1911 33.3436C44.1577 33.5126 44.1229 33.6816 44.0744 33.9248C44.2395 33.5853 44.4182 33.2724 44.5666 32.964C44.7059 32.6526 44.8346 32.356 44.9164 32.0669C44.9891 31.7673 45.0663 31.4812 45.1526 31.1965C45.2314 30.9088 45.3101 30.6196 45.4116 30.3246C45.4555 30.203 45.4903 30.0769 45.5237 29.9509C45.557 29.8249 45.5903 29.6973 45.6206 29.5713C45.6509 29.4453 45.6811 29.3177 45.7069 29.1932C45.7266 29.0657 45.7432 28.9396 45.7584 28.8151C45.7766 28.6549 45.7977 28.4963 45.822 28.3391C45.7326 28.5185 45.663 28.7113 45.6009 28.9085C45.5691 29.0078 45.5449 29.1087 45.5085 29.208C45.4752 29.3074 45.4404 29.4067 45.4071 29.5046L45.401 29.5298H45.398C45.3768 29.5876 45.3571 29.644 45.3359 29.7018C45.1875 30.1318 44.9967 30.5514 44.8558 30.9859C44.7756 31.2009 44.6938 31.4144 44.6241 31.6339C44.5893 31.7436 44.556 31.8548 44.5257 31.966C44.4894 32.0758 44.4545 32.1855 44.4227 32.2982C44.3652 32.4998 44.3107 32.7089 44.2486 32.9165C44.1759 33.1197 44.0956 33.3198 43.9987 33.5067C43.3506 34.7344 42.5556 35.8881 41.644 36.9231C41.5879 36.9913 41.5304 37.055 41.4728 37.1188C41.4153 37.1826 41.3608 37.2448 41.3063 37.3086C41.1987 37.4346 41.0958 37.5622 41.0004 37.6912C40.8035 37.9447 40.6157 38.1983 40.4522 38.4859C40.1675 38.9486 39.8495 39.4943 39.1801 39.7404C39.0984 39.7701 38.9969 39.8635 38.8803 39.9658C38.7622 40.0666 38.638 40.1838 38.526 40.2742C38.1943 40.553 37.8369 40.7991 37.4886 41.0556L37.3781 41.0319C37.5583 40.8036 37.7219 40.5767 37.9172 40.3528C38.1201 40.1081 38.3155 39.8546 38.5154 39.6099C38.7107 39.3608 38.8924 39.0983 39.0817 38.8463C39.1877 38.7098 39.2771 38.5586 39.3785 38.4177C39.4785 38.2754 39.5814 38.1345 39.6905 37.9966C39.798 37.8557 39.907 37.7119 40.0297 37.574C40.0918 37.5043 40.1554 37.4361 40.2235 37.3694C40.2917 37.3027 40.3643 37.2345 40.434 37.1648C40.6021 37.0031 40.8186 36.7629 40.8883 36.5998C41.0821 36.0912 41.4743 35.6997 41.7772 35.2505C41.856 35.1363 41.9423 35.0266 42.0195 34.9109L42.2512 34.5654L42.4829 34.2184C42.5556 34.0998 42.6207 33.9782 42.6873 33.8581C43.8973 31.6413 44.6363 29.1976 44.874 26.711C44.8937 26.4707 44.9543 26.1223 44.8998 26.0081C44.665 25.5381 44.8089 25.0309 44.8468 24.5134C44.8604 24.3741 44.868 24.2406 44.8664 24.1101C44.8619 23.9796 44.8437 23.8506 44.8225 23.7231C44.7998 23.5956 44.771 23.4695 44.7332 23.3405C44.6968 23.2115 44.6529 23.0825 44.5893 22.9506C44.7135 24.3592 44.6711 25.7516 44.4803 27.1024C44.291 28.4533 43.9548 29.7685 43.4778 31.0408C43.3233 30.8272 43.4945 30.5351 43.5611 30.2623L43.7186 29.687L43.8458 29.1042L43.9109 28.8136C43.9306 28.7157 43.9442 28.6178 43.9609 28.52L44.0593 27.9343C44.0896 27.7385 44.1047 27.5413 44.129 27.3441C44.1486 27.1469 44.1805 26.9527 44.1865 26.754C44.2077 26.3595 44.2425 25.9666 44.2335 25.5707C44.2335 25.4194 44.2335 25.2697 44.2289 25.1199C44.2274 24.9701 44.2062 24.8204 44.1956 24.6706C44.1698 24.3726 44.1562 24.0745 44.1274 23.7765C44.079 22.829 43.9654 21.8829 43.7807 20.9517L43.8518 20.9265C43.8897 20.9962 43.926 21.0644 43.9684 21.1415C44.0093 21.2186 44.0578 21.3032 44.1032 21.4055C44.0926 21.3209 44.0775 21.2379 44.0608 21.1578C44.0457 21.0763 44.0305 20.9962 44.0154 20.9161C43.9866 20.756 43.9594 20.6018 43.9321 20.4505C43.8655 20.151 43.7837 19.8722 43.6822 19.6187C43.4551 19.1101 43.2597 18.6297 43.0644 18.1018C43.025 17.992 42.9902 17.8794 42.9432 17.7711C42.8948 17.6629 42.8478 17.5546 42.7994 17.4464C42.6994 17.2328 42.6056 17.0178 42.4783 16.828C42.3012 16.5552 42.1588 16.2675 41.9892 15.9947C41.8272 15.7174 41.6818 15.4327 41.5137 15.1599L41.2745 14.7432C41.1927 14.6053 41.1033 14.4719 41.0185 14.3354C40.9322 14.2005 40.8474 14.0641 40.7596 13.9291L40.4749 13.5392C40.4567 13.514 40.4719 13.468 40.4719 13.3716C41.2199 14.1679 41.8499 15.0724 42.3587 16.0333C42.8706 16.9941 43.2764 18.0024 43.6201 19.0241L43.552 18.7305L43.5172 18.5837L43.4733 18.4399L43.2946 17.8616L43.2491 17.7162L43.1946 17.5739L43.0856 17.2907L42.9766 17.006L42.9205 16.8636L42.8569 16.7242L42.6025 16.1682L42.5389 16.0288L42.4677 15.8939L42.3254 15.6225C42.1437 15.2563 41.9256 14.9078 41.7197 14.5519L42.1407 15.0857C42.2133 15.1732 42.2769 15.2681 42.3421 15.3601L42.5404 15.6373C42.4723 15.452 42.4238 15.2711 42.3799 15.0932C42.3284 14.9182 42.2815 14.7462 42.2255 14.5712C42.1982 14.4837 42.1679 14.3962 42.1346 14.3073C42.1179 14.2628 42.0998 14.2183 42.0801 14.1738C42.0589 14.1308 42.0362 14.0878 42.0119 14.0433C41.9165 13.8698 41.7969 13.6919 41.6409 13.511C41.759 13.554 41.812 13.5748 41.9317 13.6192C41.8423 13.4888 41.7621 13.3553 41.6727 13.2322C41.5819 13.1092 41.494 12.9876 41.4062 12.8675C41.3184 12.7473 41.2321 12.6272 41.1442 12.5101C41.0519 12.3959 40.9595 12.2832 40.8671 12.1705C40.1145 11.2482 39.2786 10.3897 38.3609 9.61862C38.1958 9.48369 38.0217 9.28647 37.8173 9.33689C37.6386 9.37841 37.3342 9.17823 37.3433 8.9736C37.3508 8.78825 37.051 8.59993 37.0131 8.60883C36.8223 8.64442 36.6421 8.54359 36.4589 8.41606C36.368 8.3523 36.2757 8.28261 36.1818 8.22033C36.0864 8.1625 35.9879 8.11505 35.891 8.08985C35.8577 8.14174 35.8183 8.20402 35.7502 8.31078C34.1435 7.36179 32.4293 6.67228 30.6606 6.21558C30.2699 6.12809 29.8837 6.01391 29.4885 5.94719C29.2916 5.90863 29.0947 5.87008 28.8979 5.83598C28.6995 5.81077 28.5011 5.78853 28.3027 5.76777C27.9105 5.71735 27.5138 5.71587 27.1201 5.69511C26.9247 5.68176 26.7263 5.69363 26.5295 5.69363L25.9404 5.70104L25.3528 5.73811C25.1575 5.75146 24.9621 5.75591 24.7668 5.7826C24.3776 5.82856 23.9884 5.85674 23.6053 5.92495C22.4166 6.09992 21.2308 6.33865 19.9028 6.78646C20.189 6.481 20.0466 6.48248 19.7726 6.56404C18.4309 6.95995 17.1361 7.50858 15.9065 8.1714C15.7354 8.26927 15.5627 8.36713 15.3916 8.465L15.1327 8.61031C15.0463 8.65924 14.9646 8.71411 14.8798 8.76452C14.7117 8.86832 14.5421 8.96915 14.3709 9.06702C14.2044 9.17081 14.0378 9.27461 13.8727 9.37841C13.7425 9.45996 13.6047 9.53558 13.4745 9.61417C13.3458 9.69425 13.2155 9.76542 13.0898 9.82325C12.8369 9.93891 12.5946 9.99822 12.3963 9.95374C12.3296 9.93743 12.1767 10.0027 12.0601 10.0694C11.895 10.1643 11.7603 10.2147 11.6467 10.2355C11.0803 10.8316 10.5442 11.444 10.0672 12.0979C9.81737 12.4152 9.59477 12.7518 9.36156 13.0795C9.24041 13.2411 9.13896 13.4146 9.02538 13.5807C8.91635 13.7497 8.79823 13.9114 8.69071 14.0819C7.94415 15.2459 7.64734 16.2097 7.33388 17.2907C7.27785 17.4597 7.23242 17.6391 7.1779 17.8186C7.1249 17.998 7.06736 18.1804 7.0083 18.3627C6.95833 18.5481 6.90835 18.7349 6.85687 18.9218C6.80689 19.1086 6.75238 19.2925 6.71906 19.4793C6.69332 19.6039 6.65092 19.764 6.65395 19.8456C6.66758 20.544 6.61457 21.3343 6.54946 22.1573C6.54189 22.3648 6.5328 22.5724 6.52069 22.783C6.51614 22.8883 6.50706 22.9921 6.50403 23.0974V23.4132C6.50251 23.6237 6.501 23.8343 6.501 24.0434C6.51463 24.2525 6.52826 24.4586 6.54189 24.6632C6.69483 26.5716 7.14156 28.4355 7.83512 30.2C8.19099 31.0793 8.6044 31.9349 9.07838 32.7579C9.55388 33.5808 10.1021 34.3637 10.6942 35.1126C11.4619 36.0749 12.3251 36.969 13.2731 37.7505C13.3503 37.8142 13.429 37.881 13.5093 37.9462C13.5941 38.007 13.6789 38.0693 13.7622 38.1256C13.9288 38.2413 14.0908 38.3421 14.2256 38.4088C14.4043 38.4859 14.5587 38.523 14.7208 38.5986C14.801 38.6372 14.8843 38.6846 14.9737 38.7514C15.0615 38.8196 15.166 38.8952 15.278 39.0049C15.3068 39.0316 15.4022 39.0672 15.5324 39.1102C15.6612 39.1532 15.8247 39.2051 15.9943 39.2526C15.905 39.3905 15.8444 39.4854 15.7626 39.6129C15.9792 39.7493 16.1836 39.8916 16.3911 40.0177C16.6031 40.1393 16.8105 40.2579 17.018 40.3765C17.8948 40.8362 18.708 41.238 19.4894 41.625C19.6877 41.714 19.8816 41.8045 20.0739 41.8979C20.1708 41.9424 20.2647 41.9958 20.3616 42.0358C20.4585 42.0788 20.5539 42.1218 20.6509 42.1633C20.8432 42.2478 21.031 42.3427 21.2218 42.4258C21.4141 42.5058 21.6049 42.5874 21.7957 42.6719C21.8714 42.706 21.9456 42.7401 22.0168 42.7727L22.0153 42.7802ZM33.6059 6.42762C33.4484 6.35793 33.297 6.2912 33.1471 6.22447C33.0729 6.19185 32.9972 6.15775 32.923 6.12512C32.8472 6.09399 32.77 6.06581 32.6943 6.03616C32.5398 5.97684 32.3823 5.91605 32.2173 5.85229C32.8503 6.28527 33.1637 6.41279 34.0966 6.66042C33.9254 6.57442 33.7664 6.49286 33.6074 6.42613L33.6059 6.42762ZM45.1345 19.2376C45.1042 19.1234 45.0588 19.0152 45.0164 18.9084C44.974 18.8017 44.9346 18.6979 44.9058 18.5926L44.8256 18.6385C44.8574 18.7394 44.8892 18.8417 44.9225 18.944C44.9543 19.0478 44.9906 19.1516 45.0164 19.2628C45.0739 19.4823 45.1345 19.718 45.2026 19.9805C45.242 19.7106 45.1981 19.466 45.1345 19.2376ZM44.0048 15.971C43.9442 15.8271 43.8821 15.6818 43.8185 15.538C43.8337 15.6759 43.8473 15.8123 43.8624 15.9458L43.9003 16.0169L44.0048 15.971ZM44.7453 13.726C44.5621 13.4784 44.3773 13.2307 44.1926 12.9816C44.291 13.2218 44.397 13.425 44.5454 13.6444C44.6211 13.7527 44.7029 13.8684 44.7938 13.9988C44.8861 14.1278 44.9921 14.2672 45.1148 14.4274C44.9815 14.1768 44.8604 13.9469 44.7453 13.7275V13.726ZM44.5696 14.2183C44.4227 13.9039 44.244 13.6044 44.076 13.296C43.7277 12.6851 43.3249 12.086 42.8327 11.524C42.8766 11.613 42.922 11.702 42.975 11.8087C42.8933 11.7138 42.8145 11.6249 42.7373 11.5359C42.6994 11.4914 42.6616 11.4484 42.6237 11.4054L42.5041 11.2809C42.5223 11.3565 42.5344 11.4113 42.5692 11.4573C42.7464 11.7212 42.9236 11.9867 43.1022 12.2521C43.2734 12.5205 43.4354 12.7948 43.6035 13.0647C43.658 13.1492 43.7186 13.2752 43.7655 13.3153C43.9003 13.425 44.0245 13.554 44.1411 13.6934C44.2562 13.8342 44.3682 13.9825 44.4621 14.1471C44.559 14.3087 44.6529 14.4763 44.7483 14.6424L44.8922 14.893C44.9376 14.9775 44.983 15.062 45.0315 15.1451C44.8907 14.8307 44.7241 14.5297 44.5742 14.2183H44.5696ZM45.9098 13.0706C45.7099 12.7503 45.5176 12.4256 45.3147 12.1068C45.1012 11.7954 44.8876 11.484 44.659 11.1845C44.4197 10.8938 44.1789 10.6077 43.917 10.3422C44.8528 11.5092 45.6751 12.7666 46.3641 14.0893L46.4762 14.0433C46.2793 13.7245 46.0946 13.3968 45.9083 13.0691L45.9098 13.0706ZM46.9895 14.2316C46.8396 13.9099 46.6639 13.5985 46.4883 13.293C46.458 13.2396 46.3944 13.2278 46.2869 13.1581C46.5519 13.6103 46.7563 13.9351 46.9259 14.2761L46.9895 14.2316ZM46.3323 14.4214L46.2914 14.4348C46.3959 14.6453 46.5065 14.8529 46.7124 15.2785C46.5261 14.847 46.4262 14.6364 46.3323 14.4229V14.4214ZM45.2647 14.5L45.3419 14.6557L45.4131 14.8144L45.56 15.1302C46.2808 16.6382 46.8441 18.2219 47.1955 19.85C47.5529 21.4781 47.7255 23.1433 47.7119 24.807C47.6982 26.1994 47.6195 27.5992 47.3726 28.9811L47.512 29.0123C47.8905 27.6036 47.9935 26.1134 48.0511 24.6558C48.0586 24.4082 48.0738 24.1605 48.0738 23.9114L48.0617 23.1656C48.0586 23.041 48.0617 22.9165 48.0526 22.7919L48.0268 22.4197C48.0087 22.1721 47.9966 21.923 47.9723 21.6739C47.9284 21.4351 47.8799 21.1905 47.8391 20.9488C47.8179 20.8287 47.8027 20.7085 47.7815 20.5929C47.7603 20.4772 47.7406 20.3645 47.727 20.2548C47.5362 18.7468 47.0365 17.3619 46.4156 16.0377L46.3278 16.0525C46.3914 16.2216 46.4625 16.3891 46.5201 16.5611L46.6912 17.0772C46.7457 17.2492 46.8093 17.4182 46.8563 17.5932L47.0001 18.1151C46.5655 16.7821 45.9643 15.5973 45.2617 14.4956L45.2647 14.5ZM47.2121 16.3787L47.1546 16.3713L47.4438 17.2417L47.5135 17.2521L47.2121 16.3787ZM49.3519 20.8835L49.3004 20.5543L49.2746 20.3897L49.2413 20.2266L49.1065 19.5742L49.0384 19.248L48.9551 18.9262C48.9612 19.0374 48.9718 19.1486 48.9854 19.2584C48.9945 19.3696 49.0066 19.4793 49.0217 19.589C49.052 19.8085 49.096 20.025 49.1459 20.24L49.1853 20.4016L49.2201 20.5647L49.2943 20.8895C49.3473 21.1059 49.4003 21.3239 49.4518 21.5404L49.3519 20.8835ZM44.1487 36.883C44.0154 37.0758 43.8882 37.273 43.7504 37.4628L43.3279 38.0248C43.2567 38.1182 43.1901 38.2146 43.1144 38.305L42.8902 38.5764C42.7403 38.7573 42.5919 38.9397 42.439 39.1176L41.965 39.6396C41.8847 39.7256 41.8075 39.8145 41.7257 39.8991L41.4759 40.1497C41.3411 40.2816 41.2669 40.461 41.0231 40.808C41.335 40.5693 41.5455 40.3899 41.7303 40.2416C41.8151 40.1541 41.8984 40.074 41.9741 39.991C42.0498 39.9094 42.124 39.8308 42.1982 39.7537L42.5132 39.4305L42.6707 39.2689L42.8221 39.1013L43.4218 38.4266L43.9896 37.7253C44.0866 37.6096 44.1744 37.488 44.2637 37.3664L44.5303 37.0031C45.2314 36.0245 45.8583 34.991 46.3883 33.9055C47.4287 31.7273 48.0995 29.3667 48.363 26.969C48.3888 26.7258 48.4206 26.4826 48.4387 26.2379C48.4524 25.9933 48.4675 25.7486 48.4811 25.504L48.5023 25.1377L48.5084 24.7714C48.5144 24.5268 48.5205 24.2851 48.5281 24.0419C48.5266 23.6074 48.5175 23.2738 48.5099 22.9921C48.5099 22.8512 48.4963 22.7252 48.4842 22.6051C48.472 22.485 48.4599 22.3723 48.4448 22.2625C48.4296 22.1528 48.413 22.0416 48.3948 21.9274C48.3751 21.8132 48.3554 21.6931 48.3206 21.5641C48.257 21.3061 48.1752 21.0066 48.0677 20.6196L48.1601 21.3476L48.207 21.7109L48.2373 22.0757C48.304 22.78 48.4009 23.4918 48.4145 24.2065C48.4115 24.4986 48.41 24.7907 48.4069 25.0814C48.3948 25.372 48.3676 25.6611 48.3433 25.9488C48.3282 26.0926 48.3191 26.2365 48.2964 26.3803C48.2737 26.5241 48.2494 26.6665 48.2237 26.8088C48.198 26.9512 48.1707 27.0935 48.1419 27.2359C48.1268 27.307 48.1132 27.3782 48.0965 27.4479L48.0374 27.6585C47.9663 27.9061 47.9087 28.1626 47.8572 28.4266C47.8027 28.689 47.7346 28.953 47.674 29.2199L47.5771 29.6173C47.5377 29.7478 47.4953 29.8768 47.4514 30.0058C47.362 30.2608 47.2712 30.5114 47.1516 30.7427C47.0683 30.8984 47.0198 31.1386 46.9562 31.3403C46.9123 31.4752 46.8729 31.6102 46.8245 31.7436L46.6745 32.141L46.5277 32.5384L46.455 32.7371L46.3762 32.9328C46.2838 33.1641 46.1566 33.4014 46.0567 33.6372C45.9522 33.87 45.8644 34.0968 45.878 34.3192L45.6584 34.6499C45.5857 34.7611 45.5025 34.8649 45.4252 34.9717L44.9543 35.6078C44.9331 35.633 44.9164 35.6671 44.8982 35.6968C44.6529 36.0942 44.4212 36.5019 44.1487 36.8845V36.883ZM46.3172 32.6214C46.4035 32.3753 46.4625 32.1306 46.5534 31.9067L46.461 31.8978C46.3777 32.1173 46.296 32.3367 46.2081 32.571C46.1127 32.8023 46.0022 33.047 45.8841 33.3228C46.093 33.1078 46.2233 32.8646 46.3172 32.6229V32.6214ZM45.7478 31.2839C45.6645 31.5123 45.5721 31.7362 45.4828 31.9601L45.345 32.2952L45.1875 32.6229C44.7801 33.5022 44.2516 34.3252 43.655 35.1051C43.7443 35.1392 43.8019 35.16 43.8867 35.1911C43.9881 35.0532 44.076 34.9079 44.1683 34.7626C44.2607 34.6173 44.3531 34.469 44.4485 34.3192C44.5469 34.171 44.6302 34.0123 44.7226 33.8522C44.8134 33.692 44.9058 33.5274 45.0012 33.3599C45.0027 33.4637 45.0042 33.5467 45.0058 33.6327C45.1087 33.5971 45.2026 33.5319 45.2904 33.4474C45.3768 33.3614 45.4464 33.2516 45.5161 33.13C45.5842 33.0084 45.6463 32.8735 45.7054 32.7341C45.7644 32.5947 45.822 32.4524 45.8674 32.3071C46.3687 30.8673 46.7124 29.383 46.8956 27.6644C46.8638 27.8349 46.8351 27.9936 46.8078 28.1434C46.7942 28.2175 46.7821 28.2916 46.7669 28.3613C46.7503 28.4325 46.7336 28.5007 46.7185 28.5689C46.6549 28.8403 46.5943 29.0953 46.5292 29.3711C46.5125 29.1976 46.5049 29.1072 46.4868 28.9203C46.4565 29.0968 46.4353 29.2688 46.3989 29.4334C46.3641 29.598 46.3293 29.7581 46.2944 29.9153C46.2611 30.0725 46.2278 30.2267 46.1945 30.3794C46.1536 30.5307 46.1142 30.679 46.0734 30.8287L46.0067 30.8465L46.0961 30.3676L46.1612 29.8857C46.0582 30.3631 45.8962 30.8228 45.7493 31.2839H45.7478ZM45.8977 22.8631L45.9159 23.0202L45.9249 23.1789L45.9446 23.4962C45.9552 23.7083 45.9764 23.9188 45.981 24.1309L45.987 24.767L45.9916 25.0858L45.978 25.4046L45.9537 26.0407C45.9431 26.2528 45.9174 26.4633 45.9007 26.6754L45.872 26.9927L45.8583 27.1514L45.8356 27.3085C45.8129 27.4642 45.8507 27.6259 45.8795 27.958C46.0446 26.8444 46.2066 25.7279 46.2248 24.598C46.2248 24.5639 46.2672 24.5327 46.3247 24.4467C46.4353 25.6404 46.3747 26.8489 46.1703 28.0307C45.9704 29.2139 45.6478 30.3705 45.2586 31.4989C45.3056 31.3981 45.3525 31.2973 45.398 31.195L45.5191 30.8836L45.7569 30.2564L45.9537 29.6143L46.0506 29.2925C46.0794 29.1843 46.1036 29.0746 46.1309 28.9663L46.2854 28.3094C46.3308 28.0885 46.3656 27.8675 46.405 27.6451C46.4943 27.2033 46.5322 26.7525 46.5928 26.3047V27.049V27.2359L46.5837 27.4212L46.564 27.7949C46.6261 27.5858 46.7048 27.396 46.7775 27.2077C46.8457 27.0194 46.9168 26.8355 46.982 26.6457C47.0138 26.5508 47.0456 26.4529 47.0728 26.3536C47.0864 26.3032 47.1016 26.2528 47.1122 26.2009C47.1213 26.149 47.1304 26.0956 47.1379 26.0422C47.1697 25.8257 47.1834 25.5929 47.1712 25.3319C47.2379 25.4461 47.2682 25.498 47.3363 25.6152C47.3484 25.4417 47.359 25.2726 47.3711 25.1066C47.3742 24.939 47.3772 24.7744 47.3802 24.6128C47.3832 24.4497 47.3863 24.2895 47.3893 24.1294C47.3954 23.9692 47.3817 23.8106 47.3772 23.6504C47.3393 22.3515 47.1894 21.0526 46.8987 19.7818C46.8472 19.5564 46.8139 19.2732 46.614 19.1813C46.4353 19.0997 46.3308 18.7186 46.4489 18.554C46.564 18.3998 46.4201 18.0425 46.3868 18.0247C46.0506 17.8304 46.0279 17.1884 45.775 16.8325C45.7175 16.8547 45.6478 16.8814 45.5267 16.9274C44.9936 15.6433 44.3395 14.4289 43.5777 13.293C44.3092 14.7061 44.8437 16.1578 45.3631 17.734C45.3874 17.8052 45.401 17.8764 45.4146 17.9683C45.4252 18.0617 45.4328 18.1759 45.4525 18.3331C45.186 17.6436 44.9285 16.9763 44.6499 16.3432C44.5848 16.183 44.5075 16.0288 44.4303 15.8776C44.3531 15.7263 44.2759 15.5751 44.1986 15.4283C44.1229 15.2785 44.0336 15.1391 43.9442 15.0012C43.8549 14.8633 43.7625 14.7284 43.6686 14.5964C43.6822 14.678 43.6959 14.7551 43.708 14.8337C43.7519 14.9375 43.7973 15.0413 43.8473 15.1451C43.8958 15.2488 43.9503 15.3512 43.9942 15.4594C44.0911 15.6714 44.188 15.8865 44.2865 16.1015C44.3379 16.2082 44.3803 16.318 44.4212 16.4277C44.4621 16.5374 44.5015 16.6486 44.5393 16.7583C44.612 16.9793 44.6802 17.1973 44.7105 17.4226C44.7347 17.5813 44.8377 17.78 44.9058 17.9609C44.9285 18.0217 44.9512 18.081 44.9724 18.1418L45.03 18.3257L45.1451 18.6949L45.2632 19.0626C45.298 19.1857 45.3329 19.3088 45.3692 19.4319C45.4313 19.6483 45.4782 19.8886 45.5297 20.1154C45.5782 20.3423 45.6493 20.5514 45.7932 20.7056C45.7993 20.8257 45.8114 20.9443 45.8129 21.0644L45.8174 21.4247L45.822 21.7836C45.822 21.9022 45.828 22.0208 45.8205 22.1409C45.8205 22.1706 45.8265 22.2047 45.8296 22.2358L45.9022 22.8675L45.8977 22.8631ZM42.9342 15.7515C42.9993 15.8731 43.0477 15.9962 43.1022 16.1104C43.1553 16.226 43.2067 16.3372 43.2567 16.4499C43.3067 16.5626 43.3627 16.6738 43.4066 16.7939C43.3021 16.6738 43.2385 16.6175 43.1174 16.4929C43.1568 16.5641 43.1961 16.6338 43.234 16.7035C43.2719 16.7732 43.3037 16.8429 43.337 16.9111C43.4051 17.049 43.4702 17.1824 43.5338 17.3129C43.6701 17.5724 43.7701 17.8334 43.8836 18.0914L43.8397 18.1403C43.6959 17.8793 43.5671 17.6169 43.4081 17.3663C43.4536 17.4671 43.5035 17.5665 43.5429 17.6688L43.661 17.9772L43.7776 18.2856C43.8155 18.3894 43.8564 18.4903 43.8852 18.597L44.0714 19.2272L44.1168 19.3844L44.1517 19.5445L44.2198 19.8648C44.3213 20.2904 44.3667 20.7263 44.4212 21.1608C44.4424 21.3788 44.4485 21.5997 44.4606 21.8177C44.4651 21.9274 44.4697 22.0371 44.4742 22.1469C44.4742 22.2566 44.4697 22.3678 44.4667 22.479C44.559 22.4538 44.6181 22.439 44.7044 22.4153L44.6953 22.1839C44.6923 22.1068 44.6817 22.0297 44.6756 21.9526C44.662 21.7984 44.6469 21.6412 44.6317 21.4826C44.6241 21.4025 44.6181 21.3224 44.6105 21.2424C44.6029 21.1608 44.5878 21.0807 44.5772 20.9992C44.553 20.8346 44.5287 20.667 44.5045 20.495C44.5681 20.5677 44.6196 20.627 44.6726 20.6878C44.7347 20.6048 44.771 20.5069 44.7892 20.3986C44.8074 20.2904 44.8089 20.1703 44.7892 20.0457C44.7513 19.7966 44.6665 19.5238 44.5863 19.2628C44.1441 17.9535 43.5581 16.6961 42.7297 15.3571C42.8024 15.498 42.8706 15.627 42.9342 15.75V15.7515ZM38.0626 9.02402C37.893 8.88315 37.7128 8.75414 37.5401 8.61773L37.2782 8.41606C37.1918 8.34785 37.0979 8.28854 37.0071 8.22478L36.4619 7.84667C36.2772 7.72507 36.0864 7.6109 35.8986 7.49376L35.6169 7.3173C35.5215 7.26096 35.4231 7.20906 35.3262 7.15419L34.7447 6.82946L34.1465 6.53586L33.8467 6.38906L33.5393 6.25709L33.8618 6.4202L34.1783 6.59517C34.3888 6.71232 34.6054 6.81463 34.8159 6.93029C35.9622 7.52786 37.0495 8.23071 38.0626 9.02698V9.02402ZM30.5788 5.91308C30.8589 5.9976 31.13 6.10881 31.4041 6.20816C31.5404 6.26006 31.6782 6.30751 31.8145 6.36237L32.2173 6.53438C32.3021 6.56997 32.4172 6.6278 32.4747 6.6278C32.5565 6.6278 32.6383 6.62928 32.7185 6.64114C32.7988 6.653 32.879 6.6708 32.9593 6.69156C33.1213 6.73159 33.2818 6.78646 33.4454 6.84577C33.6089 6.90212 33.7664 6.98071 33.9285 7.05336C34.089 7.12602 34.251 7.19868 34.4161 7.26244C34.2571 7.18533 34.0996 7.10526 33.9421 7.02371C33.7846 6.94215 33.6301 6.85467 33.4681 6.78201C33.3076 6.7049 33.1456 6.6278 32.9835 6.55069C32.9018 6.51214 32.8215 6.4721 32.7382 6.43503C32.6549 6.40093 32.5701 6.36682 32.4868 6.33272C32.3187 6.26451 32.1491 6.1963 31.9765 6.13106C31.8917 6.09695 31.8024 6.0673 31.7145 6.04209C31.6252 6.0154 31.5358 5.98871 31.4465 5.96202C31.2663 5.91012 31.0846 5.8597 30.8998 5.81522C30.712 5.77963 30.5212 5.74701 30.3274 5.72032C30.4531 5.81967 30.5015 5.88788 30.5788 5.91457V5.91308ZM27.7318 5.37631C27.8742 5.3852 27.9711 5.32737 28.168 5.23544C27.9832 5.21023 27.8106 5.20875 27.6289 5.19689C27.4472 5.18651 27.2548 5.17464 27.0277 5.1613C27.4063 5.30068 27.591 5.36889 27.7334 5.37779L27.7318 5.37631Z" fill="white"/>
<path d="M37.4917 9.71822C37.5901 9.77309 37.6961 9.84278 37.7885 9.9184C38.6047 10.5797 39.3725 11.3004 40.0645 12.0878L40.0236 12.1352C39.8116 11.9321 39.5936 11.7363 39.3922 11.5258C39.1741 11.3137 38.9621 11.1165 38.741 10.9371C38.5093 10.7681 38.2716 10.6138 38.0156 10.473C37.8566 10.3899 37.6931 10.3039 37.5371 10.2046C37.4584 10.1557 37.3811 10.1038 37.3054 10.0489L37.1934 9.96585L37.0783 9.8843C36.7724 9.66781 36.5028 9.4009 36.2484 9.13696C36.3529 9.17996 36.4574 9.22445 36.5619 9.26745C36.6633 9.31638 36.7663 9.36532 36.8693 9.41425C37.0737 9.51508 37.2872 9.6085 37.4917 9.71822Z" fill="white"/>
<path d="M30.2517 6.76159L30.238 6.87725C29.1553 6.6311 28.0514 6.47392 26.9429 6.42202C27.2139 6.36568 27.4911 6.3375 27.7712 6.32564C28.0498 6.32119 28.327 6.35085 28.6056 6.38199C28.6753 6.39088 28.7449 6.3983 28.8146 6.41016L29.022 6.45168L29.4355 6.54213C29.7126 6.59699 29.9821 6.68596 30.2532 6.7601L30.2517 6.76159Z" fill="white"/>
<path d="M33.7468 8.59424L33.7801 8.49341C34.6387 8.89673 35.4716 9.36085 36.2681 9.88577C35.3519 9.59069 34.5645 9.10581 33.7483 8.59424H33.7468Z" fill="white"/>
<path d="M37.4917 9.35659C37.2463 9.27058 37.0268 9.15937 36.8314 9.01702C36.633 8.8806 36.4528 8.72046 36.3014 8.5188C36.5028 8.65522 36.7072 8.78422 36.9056 8.92509L37.4901 9.35659H37.4917Z" fill="white"/>
<path d="M42.601 17.5416L42.5238 17.5876L42.3345 17.1428L42.121 16.7068L42.1664 16.7053L42.3951 17.1175L42.601 17.5416Z" fill="white"/>
<path d="M46.1006 20.2907C45.9522 19.9333 45.7932 19.5537 45.6902 19.1578C45.6418 18.9591 45.5827 18.7619 45.5433 18.5617C45.5025 18.3616 45.4722 18.1599 45.457 17.9597C45.5706 18.1762 45.6842 18.3942 45.7993 18.6136C45.8553 18.7248 45.9189 18.8346 45.9689 18.9473C46.0204 19.0614 46.0718 19.1756 46.1233 19.2898C46.1733 19.4025 46.2203 19.5315 46.2536 19.6575C46.5231 20.7711 46.7003 21.9055 46.7866 23.0487L46.7245 23.0635C46.6851 22.7462 46.614 22.4319 46.5837 22.116C46.5004 21.4577 46.3671 20.869 46.0991 20.2907H46.1006Z" fill="white"/>
<path d="M45.8599 17.4705C45.9053 17.595 45.9553 17.7166 45.9946 17.8426L46.1127 18.2208L46.2324 18.5989L46.2914 18.7872L46.3414 18.9785C46.3066 18.9192 46.2733 18.8584 46.2415 18.7976C46.2081 18.7383 46.1748 18.6775 46.1461 18.6182C46.087 18.498 46.037 18.375 45.9961 18.2504C45.9553 18.1259 45.925 17.9983 45.9053 17.8679C45.8841 17.7374 45.8629 17.6069 45.8583 17.4705H45.8599Z" fill="white"/>
<path d="M31.8326 46.1879C31.6176 46.2591 31.451 46.2917 31.3253 46.3244C31.1981 46.354 31.1088 46.3703 31.0391 46.3763C30.8983 46.3866 30.8377 46.3496 30.7166 46.2769C30.9013 46.2472 31.0906 46.2013 31.2769 46.1761C31.4631 46.1494 31.6509 46.1494 31.8341 46.1894L31.8326 46.1879Z" fill="white"/>
<path d="M47.9314 24.1446L47.8345 24.115C47.8482 23.8881 47.8436 23.6597 47.8497 23.4329L47.9042 23.4477L47.9209 23.7961C47.9269 23.9118 47.933 24.029 47.9314 24.1446Z" fill="white"/>
</g>
<defs>
<clipPath id="clip0_1_9253">
<rect width="50" height="48" fill="white"/>
</clipPath>
</defs>
</svg>
