<svg width="30" height="30" viewBox="0 0 30 30" fill="none" xmlns="http://www.w3.org/2000/svg">
<path fill-rule="evenodd" clip-rule="evenodd" d="M19.6338 14.1163C19.8682 14.3507 19.9998 14.6685 19.9998 15C19.9998 15.3315 19.8682 15.6493 19.6338 15.8837L12.5626 22.955C12.4473 23.0744 12.3093 23.1696 12.1568 23.2351C12.0043 23.3006 11.8403 23.3351 11.6743 23.3366C11.5083 23.338 11.3437 23.3064 11.1901 23.2435C11.0365 23.1807 10.8969 23.0879 10.7796 22.9705C10.6622 22.8531 10.5694 22.7136 10.5065 22.5599C10.4437 22.4063 10.4121 22.2417 10.4135 22.0757C10.4149 21.9098 10.4494 21.7457 10.5149 21.5932C10.5804 21.4407 10.6757 21.3028 10.7951 21.1875L16.9826 15L10.7951 8.8125C10.5674 8.57675 10.4414 8.26099 10.4442 7.93325C10.4471 7.6055 10.5785 7.29199 10.8103 7.06023C11.042 6.82847 11.3556 6.69701 11.6833 6.69416C12.0111 6.69131 12.3268 6.8173 12.5626 7.045L19.6338 14.1163Z" fill="white"/>
</svg>
