<svg width="20" height="20" viewBox="0 0 20 20" fill="none" xmlns="http://www.w3.org/2000/svg">
<path d="M9.12828 5.12991C9.16852 5.08871 9.2166 5.05599 9.2697 5.03368C9.32279 5.01136 9.37982 4.99991 9.43741 5C9.495 5.00009 9.55199 5.01171 9.60502 5.03419C9.65804 5.05667 9.70603 5.08954 9.74614 5.13086L14.6569 10.1695C14.7431 10.258 14.7914 10.3767 14.7914 10.5002C14.7914 10.6238 14.7431 10.7425 14.6569 10.831L9.74614 15.8696C9.70597 15.9109 9.65793 15.9437 9.60487 15.9661C9.55181 15.9885 9.4948 16 9.43721 16C9.37962 16 9.32261 15.9885 9.26955 15.9661C9.21649 15.9437 9.16845 15.9109 9.12828 15.8696C9.04561 15.785 8.99933 15.6714 8.99933 15.5531C8.99933 15.4348 9.04561 15.3212 9.12828 15.2366L13.7462 10.5002L9.12828 5.762C9.0459 5.67742 8.9998 5.56402 8.9998 5.44595C8.9998 5.32789 9.0459 5.21449 9.12828 5.12991ZM5.33768 5.12991C5.37792 5.08871 5.42601 5.05599 5.4791 5.03368C5.5322 5.01136 5.58922 4.99991 5.64682 5C5.70441 5.00009 5.7614 5.01171 5.81442 5.03419C5.86745 5.05667 5.91544 5.08954 5.95555 5.13086L10.8663 10.1695C10.9525 10.258 11.0008 10.3767 11.0008 10.5002C11.0008 10.6238 10.9525 10.7425 10.8663 10.831L5.95555 15.8696C5.91537 15.9109 5.86734 15.9437 5.81428 15.9661C5.76122 15.9885 5.70421 16 5.64662 16C5.58902 16 5.53201 15.9885 5.47895 15.9661C5.42589 15.9437 5.37786 15.9109 5.33768 15.8696C5.25502 15.785 5.20874 15.6714 5.20874 15.5531C5.20874 15.4348 5.25502 15.3212 5.33768 15.2366L9.95557 10.5002L5.33768 5.762C5.2553 5.67742 5.2092 5.56402 5.2092 5.44595C5.2092 5.32789 5.2553 5.21449 5.33768 5.12991Z" fill="white"/>
</svg>
