<svg width="85" height="92" viewBox="0 0 85 92" fill="none" xmlns="http://www.w3.org/2000/svg">
<path d="M54.6429 30.3571V0H0V91.0714H24.2857V72.8571H30.3571V91.0714H85V30.3571H54.6429ZM15.1786 78.9286H9.10714V72.8571H15.1786V78.9286ZM15.1786 63.75H9.10714V57.6786H15.1786V63.75ZM15.1786 48.5714H9.10714V42.5H15.1786V48.5714ZM15.1786 33.3929H9.10714V27.3214H15.1786V33.3929ZM15.1786 18.2143H9.10714V12.1429H15.1786V18.2143ZM39.4643 12.1429H45.5357V18.2143H39.4643V12.1429ZM30.3571 63.75H24.2857V57.6786H30.3571V63.75ZM30.3571 48.5714H24.2857V42.5H30.3571V48.5714ZM30.3571 33.3929H24.2857V27.3214H30.3571V33.3929ZM30.3571 18.2143H24.2857V12.1429H30.3571V18.2143ZM45.5357 78.9286H39.4643V72.8571H45.5357V78.9286ZM45.5357 63.75H39.4643V57.6786H45.5357V63.75ZM45.5357 48.5714H39.4643V42.5H45.5357V48.5714ZM45.5357 33.3929H39.4643V27.3214H45.5357V33.3929ZM78.9286 85H54.6429V78.9286H60.7143V72.8571H54.6429V63.75H60.7143V57.6786H54.6429V48.5714H60.7143V42.5H54.6429V36.4286H78.9286V85Z" fill="white"/>
<path d="M66.7859 72.8571H72.8574V78.9286H66.7859V72.8571ZM66.7859 57.6786H72.8574V63.75H66.7859V57.6786ZM66.7859 42.5H72.8574V48.5714H66.7859V42.5Z" fill="white"/>
</svg>
