<svg width="31" height="30" viewBox="0 0 31 30" fill="none" xmlns="http://www.w3.org/2000/svg">
<path fill-rule="evenodd" clip-rule="evenodd" d="M15.5004 0C24.0419 0.000167065 30.9998 5.7392 31 12.777C31 15.5952 29.9104 18.1333 27.6733 20.6416C24.4196 24.448 17.1573 29.0656 15.5004 29.7745C13.8449 30.4825 14.0909 29.3329 14.1491 28.9342C14.1782 28.7768 14.2504 28.3289 14.3666 27.5913C14.4247 27.1782 14.4834 26.5583 14.3236 26.1599C14.1493 25.7172 13.4661 25.4958 12.9577 25.3778C5.50557 24.3891 0 19.092 0 12.777C0.000212805 5.7391 6.9443 0 15.5004 0ZM5.13271 9.13287C4.97303 9.13292 4.84229 9.26584 4.84216 9.42801V16.3039C4.84216 16.4662 4.97295 16.599 5.13271 16.5991H9.49092C9.65067 16.599 9.78147 16.4662 9.78147 16.3039V15.1824C9.78134 15.0202 9.65059 14.8873 9.49092 14.8872H6.52699V9.42801C6.52687 9.26582 6.39616 9.13287 6.23645 9.13287H5.13271ZM11.0012 9.13287C10.8411 9.13309 10.7117 9.26528 10.7116 9.42801V16.3039C10.7116 16.4668 10.841 16.5988 11.0012 16.5991H12.1058C12.2661 16.5988 12.3955 16.4668 12.3955 16.3039V9.42801C12.3954 9.26527 12.266 9.13308 12.1058 9.13287H11.0012ZM13.7614 9.13287C13.6019 9.13309 13.4573 9.26595 13.4571 9.42801V16.3039C13.4571 16.4661 13.6018 16.5988 13.7614 16.5991H14.8514C15.0257 16.599 15.1566 16.4662 15.1566 16.3039V12.2171L18.2503 16.4662C18.2697 16.4958 18.2943 16.5204 18.3234 16.54H18.338C18.338 16.5499 18.3429 16.5548 18.3526 16.5548C18.3526 16.5548 18.3585 16.5607 18.3672 16.5695H18.3956V16.5843H18.4248C18.4442 16.5941 18.4688 16.5991 18.4979 16.5991H19.587C19.7613 16.5991 19.8922 16.4662 19.8922 16.3039V9.42801C19.892 9.26581 19.7612 9.13287 19.587 9.13287H18.4979C18.3382 9.13287 18.1929 9.26581 18.1927 9.42801V13.501L15.0981 9.26568C15.0981 9.25593 15.0931 9.24592 15.0835 9.23617C15.0739 9.22645 15.0647 9.21638 15.0552 9.20666C15.046 9.19731 15.0405 9.1919 15.0405 9.1919C15.0405 9.1919 15.0354 9.1919 15.0259 9.1919C15.0258 9.18229 15.0208 9.1772 15.0113 9.17714V9.16238H14.9821C14.9725 9.15264 14.9675 9.14763 14.9675 9.14763H14.9529C14.9433 9.14756 14.9382 9.14264 14.9382 9.13287H13.7614ZM21.2435 9.13287C21.0837 9.13287 20.953 9.26581 20.9529 9.42801V16.3039C20.9529 16.4662 21.0837 16.5991 21.2435 16.5991H25.6008C25.7606 16.5991 25.8914 16.4662 25.8914 16.3039V15.1824C25.8912 15.0202 25.7605 14.8872 25.6008 14.8872H22.6377V13.7223H25.6008C25.7605 13.7223 25.8912 13.5893 25.8914 13.4272V12.3056C25.8914 12.1433 25.7606 12.0105 25.6008 12.0105H22.6377V10.8447H25.6008C25.7606 10.8447 25.8914 10.7118 25.8914 10.5495V9.42801C25.8912 9.26581 25.7605 9.13287 25.6008 9.13287H21.2435Z" fill="white"/>
</svg>
