<svg width="36" height="36" viewBox="0 0 36 36" fill="none" xmlns="http://www.w3.org/2000/svg">
<path d="M13.5 33.0008V25.5008C13.5 24.0863 13.5 23.3798 13.0605 22.9403C12.621 22.5008 11.9145 22.5008 10.5 22.5008H9.75C7.6275 22.5008 6.567 22.5008 5.91 23.1608C5.25 23.8193 5.25 24.8798 5.25 27.0008V33.0008H13.5ZM13.5 33.0008H22.5M13.5 33.0008V24.0008C13.5 21.8798 13.5 20.8193 14.16 20.1608C14.817 19.5008 15.8775 19.5008 18 19.5008C20.1225 19.5008 21.1815 19.5008 21.84 20.1608C22.5 20.8193 22.5 21.8798 22.5 24.0008V33.0008M22.5 33.0008H30.75V30.0008C30.75 27.8798 30.75 26.8193 30.09 26.1608C29.4315 25.5008 28.371 25.5008 26.25 25.5008H25.5C24.0855 25.5008 23.379 25.5008 22.9395 25.9403C22.5 26.3798 22.5 27.0863 22.5 28.5008V33.0008ZM3 33.0008H33M19.0365 3.86775L20.0925 5.99775C20.1821 6.15734 20.3042 6.29631 20.451 6.40562C20.5978 6.51493 20.7659 6.59215 20.9445 6.63225L22.8585 6.95175C24.0825 7.15725 24.3705 8.05275 23.4885 8.93625L22.0005 10.4363C21.8701 10.5839 21.7744 10.7589 21.7204 10.9484C21.6664 11.1379 21.6555 11.337 21.6885 11.5313L22.1145 13.3883C22.4505 14.8583 21.6765 15.4268 20.3865 14.6588L18.5925 13.5878C18.409 13.4926 18.2053 13.4429 17.9985 13.4429C17.7918 13.4429 17.588 13.4926 17.4045 13.5878L15.6105 14.6588C14.3265 15.4268 13.5465 14.8523 13.8825 13.3883L14.3085 11.5313C14.3415 11.337 14.3306 11.1379 14.2766 10.9484C14.2226 10.7589 14.1269 10.5839 13.9965 10.4363L12.51 8.93625C11.634 8.05275 11.916 7.15725 13.14 6.95175L15.0525 6.63225C15.2301 6.59121 15.3972 6.51341 15.5429 6.40387C15.6886 6.29433 15.8097 6.15547 15.8985 5.99625L16.9545 3.86625C17.5305 2.71125 18.4665 2.71125 19.0365 3.86625" stroke="black" stroke-width="2.5" stroke-linecap="round" stroke-linejoin="round"/>
</svg>
