<svg width="100" height="84" viewBox="0 0 100 84" fill="none" xmlns="http://www.w3.org/2000/svg">
<path d="M66.6667 16.6667C66.6667 21.0869 64.9107 25.3262 61.7851 28.4518C58.6595 31.5774 54.4203 33.3333 50 33.3333C45.5797 33.3333 41.3405 31.5774 38.2149 28.4518C35.0893 25.3262 33.3333 21.0869 33.3333 16.6667C33.3333 12.2464 35.0893 8.00716 38.2149 4.88155C41.3405 1.75595 45.5797 0 50 0C54.4203 0 58.6595 1.75595 61.7851 4.88155C64.9107 8.00716 66.6667 12.2464 66.6667 16.6667ZM94.4444 27.7778C94.4444 30.7246 93.2738 33.5508 91.1901 35.6345C89.1063 37.7183 86.2802 38.8889 83.3333 38.8889C80.3865 38.8889 77.5603 37.7183 75.4766 35.6345C73.3929 33.5508 72.2222 30.7246 72.2222 27.7778C72.2222 24.8309 73.3929 22.0048 75.4766 19.921C77.5603 17.8373 80.3865 16.6667 83.3333 16.6667C86.2802 16.6667 89.1063 17.8373 91.1901 19.921C93.2738 22.0048 94.4444 24.8309 94.4444 27.7778ZM72.2222 66.6667C72.2222 60.773 69.881 55.1207 65.7135 50.9532C61.546 46.7857 55.8937 44.4444 50 44.4444C44.1063 44.4444 38.454 46.7857 34.2865 50.9532C30.119 55.1207 27.7778 60.773 27.7778 66.6667V83.3333H72.2222V66.6667ZM27.7778 27.7778C27.7778 30.7246 26.6071 33.5508 24.5234 35.6345C22.4397 37.7183 19.6135 38.8889 16.6667 38.8889C13.7198 38.8889 10.8937 37.7183 8.80993 35.6345C6.72619 33.5508 5.55556 30.7246 5.55556 27.7778C5.55556 24.8309 6.72619 22.0048 8.80993 19.921C10.8937 17.8373 13.7198 16.6667 16.6667 16.6667C19.6135 16.6667 22.4397 17.8373 24.5234 19.921C26.6071 22.0048 27.7778 24.8309 27.7778 27.7778ZM83.3333 83.3333V66.6667C83.3345 61.0191 81.9008 55.4638 79.1667 50.5222C81.6297 49.8919 84.2042 49.8325 86.6937 50.3484C89.1832 50.8644 91.5219 51.9422 93.5316 53.4995C95.5412 55.0568 97.1686 57.0526 98.2896 59.3345C99.4106 61.6164 99.9956 64.1243 100 66.6667V83.3333H83.3333ZM20.8333 50.5222C18.0992 55.4638 16.6655 61.0191 16.6667 66.6667V83.3333H1.47622e-06V66.6667C-0.00106927 64.1225 0.580352 61.6118 1.69971 59.327C2.81906 57.0422 4.44663 55.0441 6.45769 53.4856C8.46874 51.9272 10.8099 50.8499 13.3017 50.3362C15.7935 49.8225 18.3699 49.8862 20.8333 50.5222Z" fill="white"/>
</svg>
