<svg width="21" height="20" viewBox="0 0 21 20" fill="none" xmlns="http://www.w3.org/2000/svg">
<path fill-rule="evenodd" clip-rule="evenodd" d="M18.5893 1.91061C18.8177 2.13907 18.8936 2.47901 18.7838 2.7829L13.3671 17.7829C13.3593 17.8046 13.3506 17.826 13.3409 17.847C13.2379 18.0719 13.0725 18.2624 12.8643 18.396C12.6562 18.5296 12.414 18.6006 12.1667 18.6006C11.9193 18.6006 11.6772 18.5296 11.4691 18.396C11.2659 18.2656 11.1034 18.0809 10.9999 17.8631L8.21223 12.2877L2.63679 9.49994C2.41893 9.39647 2.23428 9.234 2.10389 9.03082C1.9703 8.82266 1.89929 8.58053 1.89929 8.33319C1.89929 8.08586 1.9703 7.84373 2.10389 7.63557C2.23747 7.42742 2.42801 7.26199 2.65285 7.15895C2.67386 7.14933 2.69525 7.14058 2.71698 7.13273L17.717 1.71607C18.0209 1.60633 18.3608 1.68214 18.5893 1.91061ZM9.84732 11.8311L12.1101 16.3567L15.9471 5.73128L9.84732 11.8311ZM14.7686 4.55276L4.14315 8.38973L8.66881 10.6526L14.7686 4.55276Z" fill="white"/>
</svg>
