<svg width="20" height="21" viewBox="0 0 20 21" fill="none" xmlns="http://www.w3.org/2000/svg">
<path fill-rule="evenodd" clip-rule="evenodd" d="M3.33311 4.68669C2.87288 4.68669 2.49978 5.05978 2.49978 5.52002V5.89555L9.58574 10.3983C9.70998 10.4757 9.85341 10.5167 9.99978 10.5167C10.1462 10.5167 10.2896 10.4757 10.4138 10.3983C10.4144 10.3979 10.4151 10.3976 10.4157 10.3972L17.4998 5.89555V5.52002C17.4998 5.05978 17.1267 4.68669 16.6664 4.68669H3.33311ZM19.1664 6.33932V5.52002C19.1664 4.13931 18.0472 3.02002 16.6664 3.02002H3.33311C1.9524 3.02002 0.833113 4.13931 0.833113 5.52002V6.33929C0.832972 6.34815 0.832973 6.357 0.833113 6.36584V15.52C0.833113 16.9007 1.9524 18.02 3.33311 18.02H16.6664C18.0472 18.02 19.1664 16.9007 19.1664 15.52V6.36581C19.1666 6.35699 19.1666 6.34816 19.1664 6.33932ZM17.4998 7.87025L11.3006 11.8095C10.9107 12.0538 10.4599 12.1834 9.99978 12.1834C9.53969 12.1834 9.0889 12.0538 8.69901 11.8095L8.6945 11.8067L2.49978 7.87025V15.52C2.49978 15.9803 2.87288 16.3534 3.33311 16.3534H16.6664C17.1267 16.3534 17.4998 15.9803 17.4998 15.52V7.87025Z" fill="url(#paint0_linear_15004_1045)"/>
<defs>
<linearGradient id="paint0_linear_15004_1045" x1="0.833008" y1="10.52" x2="19.1666" y2="10.52" gradientUnits="userSpaceOnUse">
<stop stop-color="#00F4AE"/>
<stop offset="1" stop-color="#0C408C"/>
</linearGradient>
</defs>
</svg>
