<svg width="21" height="21" viewBox="0 0 21 21" fill="none" xmlns="http://www.w3.org/2000/svg">
<path fill-rule="evenodd" clip-rule="evenodd" d="M18.5894 2.43087C18.8179 2.65933 18.8937 2.99927 18.7839 3.30316L13.3673 18.3032C13.3594 18.3249 13.3507 18.3463 13.341 18.3673C13.238 18.5921 13.0726 18.7827 12.8644 18.9163C12.6563 19.0498 12.4141 19.1209 12.1668 19.1209C11.9195 19.1209 11.6773 19.0498 11.4692 18.9163C11.266 18.7859 11.1035 18.6012 11.0001 18.3833L8.21235 12.8079L2.63691 10.0202C2.41905 9.91673 2.2344 9.75426 2.10401 9.55108C1.97042 9.34292 1.89941 9.10079 1.89941 8.85346C1.89941 8.60613 1.97042 8.36399 2.10401 8.15584C2.23759 7.94768 2.42813 7.78225 2.65298 7.67922C2.67398 7.66959 2.69537 7.66084 2.7171 7.653L17.7171 2.23633C18.021 2.12659 18.3609 2.2024 18.5894 2.43087ZM9.84744 12.3513L12.1103 16.877L15.9472 6.25154L9.84744 12.3513ZM14.7687 5.07303L4.14327 8.91L8.66893 11.1728L14.7687 5.07303Z" fill="black"/>
</svg>
