<svg width="195" height="164" viewBox="0 0 195 164" fill="none" xmlns="http://www.w3.org/2000/svg">
<path d="M48.4782 9.00961C48.5429 8.84478 48.6684 8.71949 48.8297 8.66599L56.1186 6.24766C56.2798 6.19416 56.4553 6.21957 56.6057 6.31307C56.7453 6.41013 56.8419 6.55732 56.8632 6.72948L58.6649 24.3536C58.6933 24.619 58.5355 24.8626 58.2774 24.9482C58.0194 25.0338 57.7473 24.9329 57.6114 24.7032L48.5207 9.49737C48.4349 9.34661 48.4136 9.17445 48.4782 9.00961Z" fill="#362C73"/>
<path d="M68.9941 5.59614C69.1232 5.48162 69.3023 5.44607 69.4671 5.47505L76.9883 7.03027C77.1566 7.07002 77.2998 7.17784 77.3749 7.33217C77.45 7.48649 77.4605 7.66222 77.3923 7.81629L70.1502 23.9722C70.0389 24.2122 69.7737 24.348 69.5158 24.2902C69.258 24.2324 69.0648 24.0097 69.0614 23.7479L68.7823 6.03682C68.7753 5.87186 68.8507 5.70346 68.9833 5.5997L68.9941 5.59614Z" fill="#362C73"/>
<path d="M38.1183 15.8404C37.9464 15.8258 37.7815 15.9044 37.6668 16.0261L32.5669 21.7688C32.4557 21.9013 32.4053 22.0733 32.4374 22.2419C32.4695 22.4105 32.566 22.5577 32.7128 22.6405L48.176 31.2631C48.4087 31.389 48.7025 31.3393 48.8747 31.1388C49.0468 30.9383 49.0686 30.6443 48.9148 30.4325L38.5516 16.0671C38.4478 15.9343 38.2975 15.8408 38.1183 15.8404Z" fill="#362C73"/>
<path opacity="0.5" d="M129.734 88.925L99.2421 36.1915L46.4526 42.2013L17.7244 95.4011L33.1985 106.673L19.4995 119.35L41.3141 112.584L81.6533 128.34L129.734 88.925Z" fill="#27FF63"/>
<path d="M82.461 85.8392C79.0541 84.9984 76.7379 84.4084 75.5123 84.0691C74.3042 83.7341 73.8095 83.1233 74.0282 82.2368C74.4915 80.3595 76.4913 76.1414 80.0277 69.5825C83.5641 63.0236 85.5695 59.1941 86.0438 58.0941C86.5224 56.9766 86.9394 56.2958 87.2947 56.0516C87.65 55.8073 88.3446 55.7574 89.3785 55.9019C90.4167 56.029 92.5847 56.3981 95.8823 57.009C99.2016 57.6068 101.504 58.0645 102.791 58.3819C104.094 58.7036 104.624 59.3598 104.379 60.3506C104.307 60.6461 104.179 60.9374 103.998 61.2246C100.92 65.776 97.4918 70.1026 93.7135 74.2045C90.039 78.1846 87.2619 81.7037 85.3823 84.7621C84.7385 85.8018 83.7647 86.1609 82.461 85.8392ZM81.0928 98.5576C79.8058 99.4386 78.2552 100.006 76.4409 100.259C74.6439 100.516 72.7721 100.404 70.8252 99.924C68.8958 99.4479 67.3841 98.5493 66.2902 97.2282C65.1963 95.9071 64.823 94.5426 65.1705 93.1346C65.5179 91.7267 66.346 90.5756 67.6547 89.6815C68.985 88.7742 70.5486 88.192 72.3455 87.9347C74.1425 87.6773 76.0056 87.7868 77.9351 88.2629C79.8819 88.7433 81.3893 89.6593 82.4572 91.0108C83.5469 92.3493 83.918 93.7225 83.5705 95.1305C83.2274 96.521 82.4014 97.6634 81.0928 98.5576Z" fill="#7693F8"/>
<path d="M139.685 99.085C140.254 98.6192 140.401 97.8102 140.033 97.1741L109.541 44.4406C109.242 43.924 108.665 43.6336 108.072 43.7011L55.2829 49.7109C54.7954 49.7664 54.3658 50.0569 54.1327 50.4886L25.4045 103.688C25.0478 104.349 25.2344 105.172 25.8412 105.614L39.8407 115.811L27.4807 127.25C26.9665 127.725 26.8502 128.494 27.2006 129.101C27.551 129.707 28.2748 129.991 28.944 129.783L50.2572 123.172L90.1075 138.737C90.6126 138.934 91.1849 138.843 91.6042 138.5L139.685 99.085Z" stroke="#0F0F0F" stroke-width="3" stroke-linecap="round" stroke-linejoin="round"/>
</svg>
