<svg width="836" height="420" viewBox="0 0 836 420" fill="none" xmlns="http://www.w3.org/2000/svg">
<path d="M2.37305 412V413.5H3.87305H59.373H60.873V412V6.99998V5.49998H59.373H3.87305H2.37305V6.99998V412ZM123.396 412V413.5H124.896H181.396H182.896V412V225H225.896C259.206 225 284.525 214.897 301.5 196.453C318.457 178.03 326.896 151.494 326.896 119C326.896 83.599 320 55.1821 303.738 35.6041C287.429 15.9689 261.936 5.49998 225.396 5.49998H124.896H123.396V6.99998V412ZM363.631 412V413.5H365.131H457.631C500.401 413.5 529.786 401.792 548.418 378.948C566.995 356.173 574.631 322.623 574.631 279.5V130.5C574.631 89.3737 567.119 58.0322 547.991 36.991C528.833 15.9177 498.327 5.49998 453.131 5.49998H365.131H363.631V6.99998V412ZM832.303 153.5H833.803V152V120C833.803 83.3687 827.163 53.8294 810.785 33.4357C794.35 12.972 768.346 2 730.303 2C686.967 2 659.182 15.5026 642.323 39.6411C625.549 63.6581 619.803 97.9255 619.803 139V282C619.803 319.847 625.557 353.844 642.314 378.408C659.149 403.087 686.915 418 730.303 418C770.398 418 796.422 405.242 812.339 382.805C828.176 360.48 833.803 328.841 833.803 291.5V261.5V260H832.303H778.803H777.303V261.5V291.5C777.303 315.584 776.653 335.361 770.496 349.138C767.448 355.959 763.067 361.256 756.753 364.87C750.415 368.498 742.009 370.5 730.803 370.5C711.563 370.5 699.044 365.584 691.183 353.554C683.196 341.332 679.803 321.485 679.803 291V130.5C679.803 105.441 680.952 85.0483 687.899 70.9115C691.342 63.9055 696.198 58.466 703.063 54.7572C709.951 51.0356 718.966 49 730.803 49C742.401 49 751.007 50.9144 757.42 54.3676C763.801 57.8038 768.12 62.8217 771.064 69.2495C774.024 75.7135 775.597 83.6135 776.418 92.7746C777.239 101.932 777.303 112.241 777.303 123.5V152V153.5H778.803H832.303ZM207.396 181.5H182.896V49H207.896C236.185 49 251.483 52.6767 259.928 62.8932C264.163 68.0172 266.799 74.9311 268.363 84.2406C269.927 93.5554 270.396 105.138 270.396 119.5C270.396 144.439 266.382 159.747 256.797 168.916C247.194 178.102 231.615 181.5 207.396 181.5ZM453.631 370H423.131V50.5H452.131C480.962 50.5 496.268 56.9638 504.601 70.5949C508.821 77.4973 511.344 86.3721 512.8 97.4993C514.255 108.623 514.631 121.884 514.631 137.5V269C514.631 285.387 514.567 299.917 513.519 312.524C512.47 325.137 510.442 335.703 506.578 344.191C502.734 352.635 497.068 359.039 488.656 363.361C480.204 367.705 468.873 370 453.631 370Z" stroke="url(#paint0_linear_2010_7)" stroke-width="3"/>
<defs>
<linearGradient id="paint0_linear_2010_7" x1="3.87305" y1="416.5" x2="832.303" y2="416.5" gradientUnits="userSpaceOnUse">
<stop stop-color="#4AC7FA"/>
<stop offset="1" stop-color="#E649F5"/>
</linearGradient>
</defs>
</svg>
