<svg width="240" height="109" viewBox="0 0 240 109" fill="none" xmlns="http://www.w3.org/2000/svg">
<mask id="path-1-outside-1_2002_68" maskUnits="userSpaceOnUse" x="-0.0479736" y="-0.189819" width="240" height="109" fill="black">
<rect fill="white" x="-0.0479736" y="-0.189819" width="240" height="109"/>
<path d="M108.211 97.1303C106.256 97.7791 103.923 98.1077 101.197 98.1077C95.5132 98.1077 90.8235 96.4076 87.1111 93.0073C82.6103 88.909 80.3681 82.8969 80.3681 74.963C80.3681 67.0291 82.676 60.9268 87.2918 56.8284C91.0616 53.4857 95.7431 51.8102 101.353 51.8102C106.962 51.8102 111.726 53.5842 115.553 57.1241C119.972 61.2224 122.181 66.947 122.181 74.306C122.181 78.2072 121.705 81.4678 120.76 84.0961C119.988 86.6093 118.855 88.6954 117.36 90.3545L122.387 95.077L117.623 100.062L112.358 95.077C110.757 96.0462 109.377 96.7279 108.219 97.1221L108.211 97.1303ZM106.256 89.2375L101.846 85.0241L106.552 80.0963L110.962 84.3096C111.652 82.8887 112.137 81.6403 112.416 80.5726C112.851 78.9711 113.065 77.0985 113.065 74.963C113.065 70.0598 112.063 66.2653 110.059 63.5796C108.055 60.9021 105.131 59.5552 101.287 59.5552C97.6732 59.5552 94.7986 60.8446 92.6468 63.4154C90.4949 65.9861 89.419 69.838 89.419 74.963C89.419 80.9586 90.9549 85.2541 94.0348 87.8412C96.0306 89.5249 98.4124 90.3627 101.197 90.3627C102.24 90.3627 103.25 90.2313 104.219 89.9767C104.753 89.837 105.435 89.5906 106.264 89.2375H106.256Z"/>
<path d="M141.692 94.569C141.629 94.6439 141.479 94.8685 141.242 95.2428C141.005 95.6171 140.718 95.9477 140.388 96.2347C139.383 97.1393 138.41 97.7507 137.474 98.0814C136.538 98.412 135.44 98.5742 134.18 98.5742C130.556 98.5742 128.11 97.2641 126.85 94.6501C126.145 93.209 125.796 91.0816 125.796 88.268V73.4575H132.359V88.268C132.359 89.6654 132.521 90.7198 132.851 91.4247C133.438 92.6725 134.58 93.2963 136.289 93.2963C138.479 93.2963 139.976 92.4104 140.787 90.6387C141.205 89.6779 141.417 88.4052 141.417 86.8269V73.4575H147.911V98.0252H141.685V94.5565L141.692 94.569Z"/>
<path d="M153.542 76.1275C155.232 73.9627 158.14 72.8834 162.263 72.8834C164.946 72.8834 167.329 73.4199 169.413 74.4867C171.496 75.5536 172.538 77.5686 172.538 80.5257V91.799C172.538 92.5788 172.551 93.5271 172.582 94.6375C172.626 95.4798 172.757 96.0475 172.963 96.3532C173.175 96.6526 173.487 96.9022 173.905 97.0956V98.0438H166.936C166.743 97.551 166.605 97.0831 166.531 96.6464C166.456 96.2097 166.393 95.7168 166.35 95.1616C165.464 96.1223 164.447 96.9396 163.293 97.6196C161.914 98.4181 160.354 98.8174 158.614 98.8174C156.399 98.8174 154.565 98.1811 153.117 96.9146C151.67 95.6482 150.946 93.8452 150.946 91.5182C150.946 88.4987 152.107 86.309 154.428 84.9614C155.7 84.2253 157.572 83.7012 160.049 83.383L162.232 83.1148C163.417 82.965 164.26 82.7779 164.771 82.5533C165.682 82.1603 166.144 81.5551 166.144 80.7254C166.144 79.721 165.794 79.0222 165.102 78.6417C164.403 78.2611 163.38 78.0677 162.032 78.0677C160.516 78.0677 159.45 78.442 158.82 79.1969C158.37 79.7522 158.071 80.507 157.921 81.4491H151.739C151.876 79.303 152.475 77.5374 153.535 76.1525L153.542 76.1275ZM158.302 93.396C158.901 93.8889 159.637 94.1384 160.504 94.1384C161.883 94.1384 163.155 93.7329 164.316 92.9219C165.476 92.1109 166.081 90.6323 166.125 88.48V86.0906C165.719 86.3464 165.314 86.5523 164.902 86.7082C164.49 86.8642 163.923 87.0139 163.205 87.1449L161.764 87.4132C160.417 87.6565 159.45 87.9497 158.863 88.2928C157.878 88.8793 157.378 89.7901 157.378 91.0191C157.378 92.1171 157.684 92.9032 158.302 93.3836V93.396Z"/>
<path d="M176.871 64.8106H183.278V98.0376H176.871V64.8106Z"/>
<path d="M194.635 64.6111V70.5378H188.141V64.6111H194.635ZM194.635 73.4699V98.0377H188.141V73.4699H194.635Z"/>
<path d="M212.054 93.4647V98.2684L209.022 98.3807C205.996 98.4868 203.925 97.9627 202.82 96.8023C202.103 96.0662 201.741 94.9308 201.741 93.396V78.2674H198.322V73.6944H201.741V66.8444H208.08V73.6944H212.06V78.2674H208.08V91.25C208.08 92.2544 208.204 92.8845 208.46 93.134C208.716 93.3836 209.496 93.5083 210.8 93.5083C210.993 93.5083 211.199 93.5083 211.417 93.4959C211.636 93.4896 211.848 93.4772 212.06 93.4647H212.054Z"/>
<path d="M226.128 91.5932L231.187 73.4699H238L229.59 97.6322C227.974 102.292 226.689 105.181 225.747 106.298C224.805 107.414 222.915 107.976 220.083 107.976C219.515 107.976 219.053 107.976 218.71 107.963C218.367 107.957 217.849 107.932 217.157 107.882V102.742L217.968 102.785C218.598 102.816 219.197 102.792 219.764 102.717C220.332 102.642 220.813 102.467 221.206 102.199C221.58 101.943 221.929 101.413 222.247 100.596C222.566 99.7783 222.703 99.2854 222.64 99.1107L213.651 73.4575H220.775L226.128 91.5807V91.5932Z"/>
<path d="M18.8977 39.5023C21.0496 39.5023 22.7908 39.2641 24.1377 38.7878C26.6838 37.8761 27.9568 36.1842 27.9568 33.712C27.9568 32.2665 27.3244 31.1495 26.0678 30.3611C24.803 29.589 22.8236 28.9073 20.1215 28.316L15.5057 27.2811C10.9638 26.2545 7.82643 25.1375 6.09346 23.9302C3.15315 21.9097 1.683 18.7559 1.683 14.4604C1.683 10.5428 3.10387 7.29035 5.94562 4.695C8.78737 2.09964 12.9596 0.810181 18.4624 0.810181C23.0618 0.810181 26.9795 2.03394 30.2237 4.47324C33.4679 6.92076 35.168 10.4606 35.324 15.1093H26.5606C26.4046 12.4811 25.2629 10.6085 23.1275 9.49969C21.7066 8.76872 19.9408 8.39913 17.83 8.39913C15.4811 8.39913 13.6085 8.87549 12.204 9.82C10.7996 10.7645 10.1015 12.095 10.1015 13.7952C10.1015 15.3557 10.7914 16.5219 12.1712 17.294C13.0582 17.8114 14.9554 18.4109 17.8547 19.1009L25.3697 20.9077C28.6632 21.6962 31.1518 22.7557 32.8272 24.0862C35.4308 26.1477 36.7367 29.1209 36.7367 33.0221C36.7367 36.9234 35.209 40.34 32.162 42.9765C29.1149 45.6129 24.8112 46.9352 19.2427 46.9352C13.6742 46.9352 9.09125 45.6375 5.83884 43.034C2.58644 40.4304 0.952026 36.8577 0.952026 32.3076H9.64974C9.92899 34.3034 10.4711 35.7982 11.2759 36.792C12.7543 38.5906 15.2922 39.4941 18.8813 39.4941L18.8977 39.5023Z"/>
<path d="M61.3692 23.0731C63.3468 25.1942 64.3388 28.3011 64.3388 32.4061C64.3388 36.7357 63.3656 40.0359 61.4253 42.3006C59.4851 44.5714 56.9834 45.7068 53.9265 45.7068C51.98 45.7068 50.358 45.2202 49.0728 44.2408C48.3679 43.698 47.6816 42.9119 47.0079 41.8763V54.678H40.6694V20.4341H46.8082V24.065C47.4945 22.9982 48.2306 22.156 49.0105 21.5384C50.4329 20.4404 52.1298 19.8914 54.0887 19.8914C56.9522 19.8914 59.3791 20.9519 61.3692 23.0668V23.0731ZM57.7258 32.718C57.7258 30.8215 57.2954 29.1495 56.4344 27.6897C55.5735 26.2298 54.176 25.5061 52.2421 25.5061C49.9213 25.5061 48.3242 26.6104 47.457 28.8189C47.0079 29.9917 46.7833 31.4765 46.7833 33.2795C46.7833 36.1368 47.5381 38.1394 49.0541 39.2998C49.9525 39.9735 51.0193 40.3167 52.2483 40.3167C54.0326 40.3167 55.3926 39.6242 56.3284 38.2454C57.2642 36.8605 57.7321 35.0201 57.7321 32.7242L57.7258 32.718Z"/>
<path d="M89.2347 37.7898C89.0725 39.2497 88.3114 40.7282 86.9638 42.2317C84.8676 44.6211 81.9292 45.8189 78.1549 45.8189C75.0356 45.8189 72.2906 44.8145 69.9074 42.7994C67.5242 40.7844 66.3327 37.5091 66.3327 32.9736C66.3327 28.7188 67.4057 25.4623 69.558 23.1914C71.7104 20.9205 74.499 19.7851 77.9303 19.7851C79.9703 19.7851 81.8045 20.1657 83.439 20.933C85.0735 21.7004 86.4211 22.9107 87.4879 24.5639C88.4486 26.0237 89.0662 27.7144 89.3532 29.6359C89.5154 30.7651 89.584 32.3872 89.5529 34.5021H72.7834C72.8707 36.9663 73.6443 38.6944 75.0979 39.6864C75.9838 40.304 77.0444 40.6097 78.2921 40.6097C79.6085 40.6097 80.6815 40.2354 81.505 39.4805C81.9542 39.075 82.3535 38.5135 82.6966 37.7898H89.2409H89.2347ZM82.8962 30.2598C82.7902 28.5629 82.2786 27.2715 81.3553 26.3918C80.432 25.5122 79.2903 25.0755 77.924 25.0755C76.4393 25.0755 75.2913 25.5434 74.4741 26.4729C73.6568 27.4025 73.1453 28.6689 72.9331 30.2598H82.8962Z"/>
<path d="M115.646 37.7898C115.484 39.2497 114.723 40.7282 113.375 42.2317C111.279 44.6211 108.34 45.8189 104.566 45.8189C101.447 45.8189 98.7018 44.8145 96.3186 42.7994C93.9355 40.7844 92.7439 37.5091 92.7439 32.9736C92.7439 28.7188 93.8169 25.4623 95.9693 23.1914C98.1216 20.9205 100.91 19.7851 104.342 19.7851C106.382 19.7851 108.216 20.1657 109.85 20.933C111.485 21.7004 112.832 22.9107 113.899 24.5639C114.86 26.0237 115.477 27.7144 115.764 29.6359C115.927 30.7651 115.995 32.3872 115.964 34.5021H99.1946C99.282 36.9663 100.056 38.6944 101.509 39.6864C102.395 40.304 103.456 40.6097 104.703 40.6097C106.02 40.6097 107.093 40.2354 107.916 39.4805C108.365 39.075 108.765 38.5135 109.108 37.7898H115.652H115.646ZM109.307 30.2598C109.201 28.5629 108.69 27.2715 107.767 26.3918C106.843 25.5122 105.702 25.0755 104.335 25.0755C102.85 25.0755 101.703 25.5434 100.885 26.4729C100.068 27.4025 99.5565 28.6689 99.3444 30.2598H109.307Z"/>
<path d="M142.605 11.8247V45.008H136.379V41.6017C135.462 43.0615 134.426 44.1221 133.253 44.7772C132.087 45.4385 130.633 45.7691 128.893 45.7691C126.029 45.7691 123.621 44.6087 121.668 42.288C119.716 39.9672 118.736 36.9851 118.736 33.348C118.736 29.1556 119.697 25.8554 121.625 23.4535C123.552 21.0516 126.123 19.8476 129.348 19.8476C130.833 19.8476 132.149 20.172 133.303 20.8271C134.458 21.4821 135.393 22.3867 136.111 23.5409V11.8247H142.605ZM125.343 32.8739C125.343 35.1447 125.792 36.9539 126.69 38.3077C127.576 39.674 128.924 40.3602 130.739 40.3602C132.555 40.3602 133.934 39.6864 134.876 38.3327C135.818 36.9789 136.292 35.2321 136.292 33.0797C136.292 30.0727 135.537 27.9266 134.021 26.6352C133.091 25.8554 132.012 25.4624 130.783 25.4624C128.911 25.4624 127.533 26.1736 126.659 27.5897C125.786 29.0059 125.343 30.7714 125.343 32.8739Z"/>
<path d="M163.912 45.8127C160.555 45.8127 157.935 44.8208 156.045 42.8369C154.155 40.853 153.213 38.6508 153.213 36.2302C153.213 34.2338 153.705 32.5182 154.697 31.0896C155.683 29.6609 157.305 28.251 159.551 26.8535L160.25 26.4231C159.289 25.3438 158.547 24.2395 158.022 23.1103C157.498 21.9812 157.236 20.8083 157.236 19.5918C157.236 17.1712 158.047 15.2809 159.663 13.9208C161.279 12.5608 163.381 11.8808 165.958 11.8808C168.31 11.8808 170.256 12.5733 171.791 13.9645C173.326 15.3557 174.093 17.1337 174.093 19.2985C174.093 21.2512 173.632 22.8358 172.708 24.0524C171.785 25.2689 170.437 26.3981 168.653 27.4337L173.351 33.2481C173.894 32.4683 174.305 31.6198 174.599 30.7028C174.892 29.7857 175.041 28.8187 175.06 27.7956H180.75C180.662 29.8106 180.182 31.8444 179.309 33.9032C178.828 35.0573 178.049 36.3363 176.969 37.7337L182.996 44.9892H175.216L172.927 42.1694C171.816 43.205 170.781 43.9723 169.826 44.4714C168.117 45.3573 166.145 45.8003 163.912 45.8003V45.8127ZM163.556 30.5343C161.953 31.6011 160.892 32.5432 160.374 33.3542C159.857 34.1652 159.601 35.0573 159.601 36.0368C159.601 37.1348 160.044 38.1392 160.936 39.0563C161.828 39.9734 162.97 40.4288 164.367 40.4288C165.415 40.4288 166.407 40.1855 167.343 39.6989C168.279 39.2123 169.04 38.6633 169.626 38.0644L163.556 30.5343ZM163.126 19.3734C163.126 19.9723 163.338 20.6087 163.756 21.2699C164.024 21.7067 164.61 22.4802 165.509 23.5907C166.407 22.9606 167.05 22.4241 167.443 21.9874C168.191 21.1764 168.566 20.2967 168.566 19.3484C168.566 18.656 168.341 18.0383 167.892 17.5018C167.443 16.9653 166.763 16.6908 165.846 16.6908C165.278 16.6908 164.742 16.8468 164.249 17.1649C163.5 17.6328 163.126 18.369 163.126 19.3734Z"/>
</mask>
<path d="M108.211 97.1303C106.256 97.7791 103.923 98.1077 101.197 98.1077C95.5132 98.1077 90.8235 96.4076 87.1111 93.0073C82.6103 88.909 80.3681 82.8969 80.3681 74.963C80.3681 67.0291 82.676 60.9268 87.2918 56.8284C91.0616 53.4857 95.7431 51.8102 101.353 51.8102C106.962 51.8102 111.726 53.5842 115.553 57.1241C119.972 61.2224 122.181 66.947 122.181 74.306C122.181 78.2072 121.705 81.4678 120.76 84.0961C119.988 86.6093 118.855 88.6954 117.36 90.3545L122.387 95.077L117.623 100.062L112.358 95.077C110.757 96.0462 109.377 96.7279 108.219 97.1221L108.211 97.1303ZM106.256 89.2375L101.846 85.0241L106.552 80.0963L110.962 84.3096C111.652 82.8887 112.137 81.6403 112.416 80.5726C112.851 78.9711 113.065 77.0985 113.065 74.963C113.065 70.0598 112.063 66.2653 110.059 63.5796C108.055 60.9021 105.131 59.5552 101.287 59.5552C97.6732 59.5552 94.7986 60.8446 92.6468 63.4154C90.4949 65.9861 89.419 69.838 89.419 74.963C89.419 80.9586 90.9549 85.2541 94.0348 87.8412C96.0306 89.5249 98.4124 90.3627 101.197 90.3627C102.24 90.3627 103.25 90.2313 104.219 89.9767C104.753 89.837 105.435 89.5906 106.264 89.2375H106.256Z" fill="white"/>
<path d="M141.692 94.569C141.629 94.6439 141.479 94.8685 141.242 95.2428C141.005 95.6171 140.718 95.9477 140.388 96.2347C139.383 97.1393 138.41 97.7507 137.474 98.0814C136.538 98.412 135.44 98.5742 134.18 98.5742C130.556 98.5742 128.11 97.2641 126.85 94.6501C126.145 93.209 125.796 91.0816 125.796 88.268V73.4575H132.359V88.268C132.359 89.6654 132.521 90.7198 132.851 91.4247C133.438 92.6725 134.58 93.2963 136.289 93.2963C138.479 93.2963 139.976 92.4104 140.787 90.6387C141.205 89.6779 141.417 88.4052 141.417 86.8269V73.4575H147.911V98.0252H141.685V94.5565L141.692 94.569Z" fill="white"/>
<path d="M153.542 76.1275C155.232 73.9627 158.14 72.8834 162.263 72.8834C164.946 72.8834 167.329 73.4199 169.413 74.4867C171.496 75.5536 172.538 77.5686 172.538 80.5257V91.799C172.538 92.5788 172.551 93.5271 172.582 94.6375C172.626 95.4798 172.757 96.0475 172.963 96.3532C173.175 96.6526 173.487 96.9022 173.905 97.0956V98.0438H166.936C166.743 97.551 166.605 97.0831 166.531 96.6464C166.456 96.2097 166.393 95.7168 166.35 95.1616C165.464 96.1223 164.447 96.9396 163.293 97.6196C161.914 98.4181 160.354 98.8174 158.614 98.8174C156.399 98.8174 154.565 98.1811 153.117 96.9146C151.67 95.6482 150.946 93.8452 150.946 91.5182C150.946 88.4987 152.107 86.309 154.428 84.9614C155.7 84.2253 157.572 83.7012 160.049 83.383L162.232 83.1148C163.417 82.965 164.26 82.7779 164.771 82.5533C165.682 82.1603 166.144 81.5551 166.144 80.7254C166.144 79.721 165.794 79.0222 165.102 78.6417C164.403 78.2611 163.38 78.0677 162.032 78.0677C160.516 78.0677 159.45 78.442 158.82 79.1969C158.37 79.7522 158.071 80.507 157.921 81.4491H151.739C151.876 79.303 152.475 77.5374 153.535 76.1525L153.542 76.1275ZM158.302 93.396C158.901 93.8889 159.637 94.1384 160.504 94.1384C161.883 94.1384 163.155 93.7329 164.316 92.9219C165.476 92.1109 166.081 90.6323 166.125 88.48V86.0906C165.719 86.3464 165.314 86.5523 164.902 86.7082C164.49 86.8642 163.923 87.0139 163.205 87.1449L161.764 87.4132C160.417 87.6565 159.45 87.9497 158.863 88.2928C157.878 88.8793 157.378 89.7901 157.378 91.0191C157.378 92.1171 157.684 92.9032 158.302 93.3836V93.396Z" fill="white"/>
<path d="M176.871 64.8106H183.278V98.0376H176.871V64.8106Z" fill="white"/>
<path d="M194.635 64.6111V70.5378H188.141V64.6111H194.635ZM194.635 73.4699V98.0377H188.141V73.4699H194.635Z" fill="white"/>
<path d="M212.054 93.4647V98.2684L209.022 98.3807C205.996 98.4868 203.925 97.9627 202.82 96.8023C202.103 96.0662 201.741 94.9308 201.741 93.396V78.2674H198.322V73.6944H201.741V66.8444H208.08V73.6944H212.06V78.2674H208.08V91.25C208.08 92.2544 208.204 92.8845 208.46 93.134C208.716 93.3836 209.496 93.5083 210.8 93.5083C210.993 93.5083 211.199 93.5083 211.417 93.4959C211.636 93.4896 211.848 93.4772 212.06 93.4647H212.054Z" fill="white"/>
<path d="M226.128 91.5932L231.187 73.4699H238L229.59 97.6322C227.974 102.292 226.689 105.181 225.747 106.298C224.805 107.414 222.915 107.976 220.083 107.976C219.515 107.976 219.053 107.976 218.71 107.963C218.367 107.957 217.849 107.932 217.157 107.882V102.742L217.968 102.785C218.598 102.816 219.197 102.792 219.764 102.717C220.332 102.642 220.813 102.467 221.206 102.199C221.58 101.943 221.929 101.413 222.247 100.596C222.566 99.7783 222.703 99.2854 222.64 99.1107L213.651 73.4575H220.775L226.128 91.5807V91.5932Z" fill="white"/>
<path d="M18.8977 39.5023C21.0496 39.5023 22.7908 39.2641 24.1377 38.7878C26.6838 37.8761 27.9568 36.1842 27.9568 33.712C27.9568 32.2665 27.3244 31.1495 26.0678 30.3611C24.803 29.589 22.8236 28.9073 20.1215 28.316L15.5057 27.2811C10.9638 26.2545 7.82643 25.1375 6.09346 23.9302C3.15315 21.9097 1.683 18.7559 1.683 14.4604C1.683 10.5428 3.10387 7.29035 5.94562 4.695C8.78737 2.09964 12.9596 0.810181 18.4624 0.810181C23.0618 0.810181 26.9795 2.03394 30.2237 4.47324C33.4679 6.92076 35.168 10.4606 35.324 15.1093H26.5606C26.4046 12.4811 25.2629 10.6085 23.1275 9.49969C21.7066 8.76872 19.9408 8.39913 17.83 8.39913C15.4811 8.39913 13.6085 8.87549 12.204 9.82C10.7996 10.7645 10.1015 12.095 10.1015 13.7952C10.1015 15.3557 10.7914 16.5219 12.1712 17.294C13.0582 17.8114 14.9554 18.4109 17.8547 19.1009L25.3697 20.9077C28.6632 21.6962 31.1518 22.7557 32.8272 24.0862C35.4308 26.1477 36.7367 29.1209 36.7367 33.0221C36.7367 36.9234 35.209 40.34 32.162 42.9765C29.1149 45.6129 24.8112 46.9352 19.2427 46.9352C13.6742 46.9352 9.09125 45.6375 5.83884 43.034C2.58644 40.4304 0.952026 36.8577 0.952026 32.3076H9.64974C9.92899 34.3034 10.4711 35.7982 11.2759 36.792C12.7543 38.5906 15.2922 39.4941 18.8813 39.4941L18.8977 39.5023Z" fill="white"/>
<path d="M61.3692 23.0731C63.3468 25.1942 64.3388 28.3011 64.3388 32.4061C64.3388 36.7357 63.3656 40.0359 61.4253 42.3006C59.4851 44.5714 56.9834 45.7068 53.9265 45.7068C51.98 45.7068 50.358 45.2202 49.0728 44.2408C48.3679 43.698 47.6816 42.9119 47.0079 41.8763V54.678H40.6694V20.4341H46.8082V24.065C47.4945 22.9982 48.2306 22.156 49.0105 21.5384C50.4329 20.4404 52.1298 19.8914 54.0887 19.8914C56.9522 19.8914 59.3791 20.9519 61.3692 23.0668V23.0731ZM57.7258 32.718C57.7258 30.8215 57.2954 29.1495 56.4344 27.6897C55.5735 26.2298 54.176 25.5061 52.2421 25.5061C49.9213 25.5061 48.3242 26.6104 47.457 28.8189C47.0079 29.9917 46.7833 31.4765 46.7833 33.2795C46.7833 36.1368 47.5381 38.1394 49.0541 39.2998C49.9525 39.9735 51.0193 40.3167 52.2483 40.3167C54.0326 40.3167 55.3926 39.6242 56.3284 38.2454C57.2642 36.8605 57.7321 35.0201 57.7321 32.7242L57.7258 32.718Z" fill="white"/>
<path d="M89.2347 37.7898C89.0725 39.2497 88.3114 40.7282 86.9638 42.2317C84.8676 44.6211 81.9292 45.8189 78.1549 45.8189C75.0356 45.8189 72.2906 44.8145 69.9074 42.7994C67.5242 40.7844 66.3327 37.5091 66.3327 32.9736C66.3327 28.7188 67.4057 25.4623 69.558 23.1914C71.7104 20.9205 74.499 19.7851 77.9303 19.7851C79.9703 19.7851 81.8045 20.1657 83.439 20.933C85.0735 21.7004 86.4211 22.9107 87.4879 24.5639C88.4486 26.0237 89.0662 27.7144 89.3532 29.6359C89.5154 30.7651 89.584 32.3872 89.5529 34.5021H72.7834C72.8707 36.9663 73.6443 38.6944 75.0979 39.6864C75.9838 40.304 77.0444 40.6097 78.2921 40.6097C79.6085 40.6097 80.6815 40.2354 81.505 39.4805C81.9542 39.075 82.3535 38.5135 82.6966 37.7898H89.2409H89.2347ZM82.8962 30.2598C82.7902 28.5629 82.2786 27.2715 81.3553 26.3918C80.432 25.5122 79.2903 25.0755 77.924 25.0755C76.4393 25.0755 75.2913 25.5434 74.4741 26.4729C73.6568 27.4025 73.1453 28.6689 72.9331 30.2598H82.8962Z" fill="white"/>
<path d="M115.646 37.7898C115.484 39.2497 114.723 40.7282 113.375 42.2317C111.279 44.6211 108.34 45.8189 104.566 45.8189C101.447 45.8189 98.7018 44.8145 96.3186 42.7994C93.9355 40.7844 92.7439 37.5091 92.7439 32.9736C92.7439 28.7188 93.8169 25.4623 95.9693 23.1914C98.1216 20.9205 100.91 19.7851 104.342 19.7851C106.382 19.7851 108.216 20.1657 109.85 20.933C111.485 21.7004 112.832 22.9107 113.899 24.5639C114.86 26.0237 115.477 27.7144 115.764 29.6359C115.927 30.7651 115.995 32.3872 115.964 34.5021H99.1946C99.282 36.9663 100.056 38.6944 101.509 39.6864C102.395 40.304 103.456 40.6097 104.703 40.6097C106.02 40.6097 107.093 40.2354 107.916 39.4805C108.365 39.075 108.765 38.5135 109.108 37.7898H115.652H115.646ZM109.307 30.2598C109.201 28.5629 108.69 27.2715 107.767 26.3918C106.843 25.5122 105.702 25.0755 104.335 25.0755C102.85 25.0755 101.703 25.5434 100.885 26.4729C100.068 27.4025 99.5565 28.6689 99.3444 30.2598H109.307Z" fill="white"/>
<path d="M142.605 11.8247V45.008H136.379V41.6017C135.462 43.0615 134.426 44.1221 133.253 44.7772C132.087 45.4385 130.633 45.7691 128.893 45.7691C126.029 45.7691 123.621 44.6087 121.668 42.288C119.716 39.9672 118.736 36.9851 118.736 33.348C118.736 29.1556 119.697 25.8554 121.625 23.4535C123.552 21.0516 126.123 19.8476 129.348 19.8476C130.833 19.8476 132.149 20.172 133.303 20.8271C134.458 21.4821 135.393 22.3867 136.111 23.5409V11.8247H142.605ZM125.343 32.8739C125.343 35.1447 125.792 36.9539 126.69 38.3077C127.576 39.674 128.924 40.3602 130.739 40.3602C132.555 40.3602 133.934 39.6864 134.876 38.3327C135.818 36.9789 136.292 35.2321 136.292 33.0797C136.292 30.0727 135.537 27.9266 134.021 26.6352C133.091 25.8554 132.012 25.4624 130.783 25.4624C128.911 25.4624 127.533 26.1736 126.659 27.5897C125.786 29.0059 125.343 30.7714 125.343 32.8739Z" fill="white"/>
<path d="M163.912 45.8127C160.555 45.8127 157.935 44.8208 156.045 42.8369C154.155 40.853 153.213 38.6508 153.213 36.2302C153.213 34.2338 153.705 32.5182 154.697 31.0896C155.683 29.6609 157.305 28.251 159.551 26.8535L160.25 26.4231C159.289 25.3438 158.547 24.2395 158.022 23.1103C157.498 21.9812 157.236 20.8083 157.236 19.5918C157.236 17.1712 158.047 15.2809 159.663 13.9208C161.279 12.5608 163.381 11.8808 165.958 11.8808C168.31 11.8808 170.256 12.5733 171.791 13.9645C173.326 15.3557 174.093 17.1337 174.093 19.2985C174.093 21.2512 173.632 22.8358 172.708 24.0524C171.785 25.2689 170.437 26.3981 168.653 27.4337L173.351 33.2481C173.894 32.4683 174.305 31.6198 174.599 30.7028C174.892 29.7857 175.041 28.8187 175.06 27.7956H180.75C180.662 29.8106 180.182 31.8444 179.309 33.9032C178.828 35.0573 178.049 36.3363 176.969 37.7337L182.996 44.9892H175.216L172.927 42.1694C171.816 43.205 170.781 43.9723 169.826 44.4714C168.117 45.3573 166.145 45.8003 163.912 45.8003V45.8127ZM163.556 30.5343C161.953 31.6011 160.892 32.5432 160.374 33.3542C159.857 34.1652 159.601 35.0573 159.601 36.0368C159.601 37.1348 160.044 38.1392 160.936 39.0563C161.828 39.9734 162.97 40.4288 164.367 40.4288C165.415 40.4288 166.407 40.1855 167.343 39.6989C168.279 39.2123 169.04 38.6633 169.626 38.0644L163.556 30.5343ZM163.126 19.3734C163.126 19.9723 163.338 20.6087 163.756 21.2699C164.024 21.7067 164.61 22.4802 165.509 23.5907C166.407 22.9606 167.05 22.4241 167.443 21.9874C168.191 21.1764 168.566 20.2967 168.566 19.3484C168.566 18.656 168.341 18.0383 167.892 17.5018C167.443 16.9653 166.763 16.6908 165.846 16.6908C165.278 16.6908 164.742 16.8468 164.249 17.1649C163.5 17.6328 163.126 18.369 163.126 19.3734Z" fill="white"/>
<path d="M108.211 97.1303C106.256 97.7791 103.923 98.1077 101.197 98.1077C95.5132 98.1077 90.8235 96.4076 87.1111 93.0073C82.6103 88.909 80.3681 82.8969 80.3681 74.963C80.3681 67.0291 82.676 60.9268 87.2918 56.8284C91.0616 53.4857 95.7431 51.8102 101.353 51.8102C106.962 51.8102 111.726 53.5842 115.553 57.1241C119.972 61.2224 122.181 66.947 122.181 74.306C122.181 78.2072 121.705 81.4678 120.76 84.0961C119.988 86.6093 118.855 88.6954 117.36 90.3545L122.387 95.077L117.623 100.062L112.358 95.077C110.757 96.0462 109.377 96.7279 108.219 97.1221L108.211 97.1303ZM106.256 89.2375L101.846 85.0241L106.552 80.0963L110.962 84.3096C111.652 82.8887 112.137 81.6403 112.416 80.5726C112.851 78.9711 113.065 77.0985 113.065 74.963C113.065 70.0598 112.063 66.2653 110.059 63.5796C108.055 60.9021 105.131 59.5552 101.287 59.5552C97.6732 59.5552 94.7986 60.8446 92.6468 63.4154C90.4949 65.9861 89.419 69.838 89.419 74.963C89.419 80.9586 90.9549 85.2541 94.0348 87.8412C96.0306 89.5249 98.4124 90.3627 101.197 90.3627C102.24 90.3627 103.25 90.2313 104.219 89.9767C104.753 89.837 105.435 89.5906 106.264 89.2375H106.256Z" stroke="#2B2B2B" stroke-width="1.6" mask="url(#path-1-outside-1_2002_68)"/>
<path d="M141.692 94.569C141.629 94.6439 141.479 94.8685 141.242 95.2428C141.005 95.6171 140.718 95.9477 140.388 96.2347C139.383 97.1393 138.41 97.7507 137.474 98.0814C136.538 98.412 135.44 98.5742 134.18 98.5742C130.556 98.5742 128.11 97.2641 126.85 94.6501C126.145 93.209 125.796 91.0816 125.796 88.268V73.4575H132.359V88.268C132.359 89.6654 132.521 90.7198 132.851 91.4247C133.438 92.6725 134.58 93.2963 136.289 93.2963C138.479 93.2963 139.976 92.4104 140.787 90.6387C141.205 89.6779 141.417 88.4052 141.417 86.8269V73.4575H147.911V98.0252H141.685V94.5565L141.692 94.569Z" stroke="#2B2B2B" stroke-width="1.6" mask="url(#path-1-outside-1_2002_68)"/>
<path d="M153.542 76.1275C155.232 73.9627 158.14 72.8834 162.263 72.8834C164.946 72.8834 167.329 73.4199 169.413 74.4867C171.496 75.5536 172.538 77.5686 172.538 80.5257V91.799C172.538 92.5788 172.551 93.5271 172.582 94.6375C172.626 95.4798 172.757 96.0475 172.963 96.3532C173.175 96.6526 173.487 96.9022 173.905 97.0956V98.0438H166.936C166.743 97.551 166.605 97.0831 166.531 96.6464C166.456 96.2097 166.393 95.7168 166.35 95.1616C165.464 96.1223 164.447 96.9396 163.293 97.6196C161.914 98.4181 160.354 98.8174 158.614 98.8174C156.399 98.8174 154.565 98.1811 153.117 96.9146C151.67 95.6482 150.946 93.8452 150.946 91.5182C150.946 88.4987 152.107 86.309 154.428 84.9614C155.7 84.2253 157.572 83.7012 160.049 83.383L162.232 83.1148C163.417 82.965 164.26 82.7779 164.771 82.5533C165.682 82.1603 166.144 81.5551 166.144 80.7254C166.144 79.721 165.794 79.0222 165.102 78.6417C164.403 78.2611 163.38 78.0677 162.032 78.0677C160.516 78.0677 159.45 78.442 158.82 79.1969C158.37 79.7522 158.071 80.507 157.921 81.4491H151.739C151.876 79.303 152.475 77.5374 153.535 76.1525L153.542 76.1275ZM158.302 93.396C158.901 93.8889 159.637 94.1384 160.504 94.1384C161.883 94.1384 163.155 93.7329 164.316 92.9219C165.476 92.1109 166.081 90.6323 166.125 88.48V86.0906C165.719 86.3464 165.314 86.5523 164.902 86.7082C164.49 86.8642 163.923 87.0139 163.205 87.1449L161.764 87.4132C160.417 87.6565 159.45 87.9497 158.863 88.2928C157.878 88.8793 157.378 89.7901 157.378 91.0191C157.378 92.1171 157.684 92.9032 158.302 93.3836V93.396Z" stroke="#2B2B2B" stroke-width="1.6" mask="url(#path-1-outside-1_2002_68)"/>
<path d="M176.871 64.8106H183.278V98.0376H176.871V64.8106Z" stroke="#2B2B2B" stroke-width="1.6" mask="url(#path-1-outside-1_2002_68)"/>
<path d="M194.635 64.6111V70.5378H188.141V64.6111H194.635ZM194.635 73.4699V98.0377H188.141V73.4699H194.635Z" stroke="#2B2B2B" stroke-width="1.6" mask="url(#path-1-outside-1_2002_68)"/>
<path d="M212.054 93.4647V98.2684L209.022 98.3807C205.996 98.4868 203.925 97.9627 202.82 96.8023C202.103 96.0662 201.741 94.9308 201.741 93.396V78.2674H198.322V73.6944H201.741V66.8444H208.08V73.6944H212.06V78.2674H208.08V91.25C208.08 92.2544 208.204 92.8845 208.46 93.134C208.716 93.3836 209.496 93.5083 210.8 93.5083C210.993 93.5083 211.199 93.5083 211.417 93.4959C211.636 93.4896 211.848 93.4772 212.06 93.4647H212.054Z" stroke="#2B2B2B" stroke-width="1.6" mask="url(#path-1-outside-1_2002_68)"/>
<path d="M226.128 91.5932L231.187 73.4699H238L229.59 97.6322C227.974 102.292 226.689 105.181 225.747 106.298C224.805 107.414 222.915 107.976 220.083 107.976C219.515 107.976 219.053 107.976 218.71 107.963C218.367 107.957 217.849 107.932 217.157 107.882V102.742L217.968 102.785C218.598 102.816 219.197 102.792 219.764 102.717C220.332 102.642 220.813 102.467 221.206 102.199C221.58 101.943 221.929 101.413 222.247 100.596C222.566 99.7783 222.703 99.2854 222.64 99.1107L213.651 73.4575H220.775L226.128 91.5807V91.5932Z" stroke="#2B2B2B" stroke-width="1.6" mask="url(#path-1-outside-1_2002_68)"/>
<path d="M18.8977 39.5023C21.0496 39.5023 22.7908 39.2641 24.1377 38.7878C26.6838 37.8761 27.9568 36.1842 27.9568 33.712C27.9568 32.2665 27.3244 31.1495 26.0678 30.3611C24.803 29.589 22.8236 28.9073 20.1215 28.316L15.5057 27.2811C10.9638 26.2545 7.82643 25.1375 6.09346 23.9302C3.15315 21.9097 1.683 18.7559 1.683 14.4604C1.683 10.5428 3.10387 7.29035 5.94562 4.695C8.78737 2.09964 12.9596 0.810181 18.4624 0.810181C23.0618 0.810181 26.9795 2.03394 30.2237 4.47324C33.4679 6.92076 35.168 10.4606 35.324 15.1093H26.5606C26.4046 12.4811 25.2629 10.6085 23.1275 9.49969C21.7066 8.76872 19.9408 8.39913 17.83 8.39913C15.4811 8.39913 13.6085 8.87549 12.204 9.82C10.7996 10.7645 10.1015 12.095 10.1015 13.7952C10.1015 15.3557 10.7914 16.5219 12.1712 17.294C13.0582 17.8114 14.9554 18.4109 17.8547 19.1009L25.3697 20.9077C28.6632 21.6962 31.1518 22.7557 32.8272 24.0862C35.4308 26.1477 36.7367 29.1209 36.7367 33.0221C36.7367 36.9234 35.209 40.34 32.162 42.9765C29.1149 45.6129 24.8112 46.9352 19.2427 46.9352C13.6742 46.9352 9.09125 45.6375 5.83884 43.034C2.58644 40.4304 0.952026 36.8577 0.952026 32.3076H9.64974C9.92899 34.3034 10.4711 35.7982 11.2759 36.792C12.7543 38.5906 15.2922 39.4941 18.8813 39.4941L18.8977 39.5023Z" stroke="#2B2B2B" stroke-width="1.6" mask="url(#path-1-outside-1_2002_68)"/>
<path d="M61.3692 23.0731C63.3468 25.1942 64.3388 28.3011 64.3388 32.4061C64.3388 36.7357 63.3656 40.0359 61.4253 42.3006C59.4851 44.5714 56.9834 45.7068 53.9265 45.7068C51.98 45.7068 50.358 45.2202 49.0728 44.2408C48.3679 43.698 47.6816 42.9119 47.0079 41.8763V54.678H40.6694V20.4341H46.8082V24.065C47.4945 22.9982 48.2306 22.156 49.0105 21.5384C50.4329 20.4404 52.1298 19.8914 54.0887 19.8914C56.9522 19.8914 59.3791 20.9519 61.3692 23.0668V23.0731ZM57.7258 32.718C57.7258 30.8215 57.2954 29.1495 56.4344 27.6897C55.5735 26.2298 54.176 25.5061 52.2421 25.5061C49.9213 25.5061 48.3242 26.6104 47.457 28.8189C47.0079 29.9917 46.7833 31.4765 46.7833 33.2795C46.7833 36.1368 47.5381 38.1394 49.0541 39.2998C49.9525 39.9735 51.0193 40.3167 52.2483 40.3167C54.0326 40.3167 55.3926 39.6242 56.3284 38.2454C57.2642 36.8605 57.7321 35.0201 57.7321 32.7242L57.7258 32.718Z" stroke="#2B2B2B" stroke-width="1.6" mask="url(#path-1-outside-1_2002_68)"/>
<path d="M89.2347 37.7898C89.0725 39.2497 88.3114 40.7282 86.9638 42.2317C84.8676 44.6211 81.9292 45.8189 78.1549 45.8189C75.0356 45.8189 72.2906 44.8145 69.9074 42.7994C67.5242 40.7844 66.3327 37.5091 66.3327 32.9736C66.3327 28.7188 67.4057 25.4623 69.558 23.1914C71.7104 20.9205 74.499 19.7851 77.9303 19.7851C79.9703 19.7851 81.8045 20.1657 83.439 20.933C85.0735 21.7004 86.4211 22.9107 87.4879 24.5639C88.4486 26.0237 89.0662 27.7144 89.3532 29.6359C89.5154 30.7651 89.584 32.3872 89.5529 34.5021H72.7834C72.8707 36.9663 73.6443 38.6944 75.0979 39.6864C75.9838 40.304 77.0444 40.6097 78.2921 40.6097C79.6085 40.6097 80.6815 40.2354 81.505 39.4805C81.9542 39.075 82.3535 38.5135 82.6966 37.7898H89.2409H89.2347ZM82.8962 30.2598C82.7902 28.5629 82.2786 27.2715 81.3553 26.3918C80.432 25.5122 79.2903 25.0755 77.924 25.0755C76.4393 25.0755 75.2913 25.5434 74.4741 26.4729C73.6568 27.4025 73.1453 28.6689 72.9331 30.2598H82.8962Z" stroke="#2B2B2B" stroke-width="1.6" mask="url(#path-1-outside-1_2002_68)"/>
<path d="M115.646 37.7898C115.484 39.2497 114.723 40.7282 113.375 42.2317C111.279 44.6211 108.34 45.8189 104.566 45.8189C101.447 45.8189 98.7018 44.8145 96.3186 42.7994C93.9355 40.7844 92.7439 37.5091 92.7439 32.9736C92.7439 28.7188 93.8169 25.4623 95.9693 23.1914C98.1216 20.9205 100.91 19.7851 104.342 19.7851C106.382 19.7851 108.216 20.1657 109.85 20.933C111.485 21.7004 112.832 22.9107 113.899 24.5639C114.86 26.0237 115.477 27.7144 115.764 29.6359C115.927 30.7651 115.995 32.3872 115.964 34.5021H99.1946C99.282 36.9663 100.056 38.6944 101.509 39.6864C102.395 40.304 103.456 40.6097 104.703 40.6097C106.02 40.6097 107.093 40.2354 107.916 39.4805C108.365 39.075 108.765 38.5135 109.108 37.7898H115.652H115.646ZM109.307 30.2598C109.201 28.5629 108.69 27.2715 107.767 26.3918C106.843 25.5122 105.702 25.0755 104.335 25.0755C102.85 25.0755 101.703 25.5434 100.885 26.4729C100.068 27.4025 99.5565 28.6689 99.3444 30.2598H109.307Z" stroke="#2B2B2B" stroke-width="1.6" mask="url(#path-1-outside-1_2002_68)"/>
<path d="M142.605 11.8247V45.008H136.379V41.6017C135.462 43.0615 134.426 44.1221 133.253 44.7772C132.087 45.4385 130.633 45.7691 128.893 45.7691C126.029 45.7691 123.621 44.6087 121.668 42.288C119.716 39.9672 118.736 36.9851 118.736 33.348C118.736 29.1556 119.697 25.8554 121.625 23.4535C123.552 21.0516 126.123 19.8476 129.348 19.8476C130.833 19.8476 132.149 20.172 133.303 20.8271C134.458 21.4821 135.393 22.3867 136.111 23.5409V11.8247H142.605ZM125.343 32.8739C125.343 35.1447 125.792 36.9539 126.69 38.3077C127.576 39.674 128.924 40.3602 130.739 40.3602C132.555 40.3602 133.934 39.6864 134.876 38.3327C135.818 36.9789 136.292 35.2321 136.292 33.0797C136.292 30.0727 135.537 27.9266 134.021 26.6352C133.091 25.8554 132.012 25.4624 130.783 25.4624C128.911 25.4624 127.533 26.1736 126.659 27.5897C125.786 29.0059 125.343 30.7714 125.343 32.8739Z" stroke="#2B2B2B" stroke-width="1.6" mask="url(#path-1-outside-1_2002_68)"/>
<path d="M163.912 45.8127C160.555 45.8127 157.935 44.8208 156.045 42.8369C154.155 40.853 153.213 38.6508 153.213 36.2302C153.213 34.2338 153.705 32.5182 154.697 31.0896C155.683 29.6609 157.305 28.251 159.551 26.8535L160.25 26.4231C159.289 25.3438 158.547 24.2395 158.022 23.1103C157.498 21.9812 157.236 20.8083 157.236 19.5918C157.236 17.1712 158.047 15.2809 159.663 13.9208C161.279 12.5608 163.381 11.8808 165.958 11.8808C168.31 11.8808 170.256 12.5733 171.791 13.9645C173.326 15.3557 174.093 17.1337 174.093 19.2985C174.093 21.2512 173.632 22.8358 172.708 24.0524C171.785 25.2689 170.437 26.3981 168.653 27.4337L173.351 33.2481C173.894 32.4683 174.305 31.6198 174.599 30.7028C174.892 29.7857 175.041 28.8187 175.06 27.7956H180.75C180.662 29.8106 180.182 31.8444 179.309 33.9032C178.828 35.0573 178.049 36.3363 176.969 37.7337L182.996 44.9892H175.216L172.927 42.1694C171.816 43.205 170.781 43.9723 169.826 44.4714C168.117 45.3573 166.145 45.8003 163.912 45.8003V45.8127ZM163.556 30.5343C161.953 31.6011 160.892 32.5432 160.374 33.3542C159.857 34.1652 159.601 35.0573 159.601 36.0368C159.601 37.1348 160.044 38.1392 160.936 39.0563C161.828 39.9734 162.97 40.4288 164.367 40.4288C165.415 40.4288 166.407 40.1855 167.343 39.6989C168.279 39.2123 169.04 38.6633 169.626 38.0644L163.556 30.5343ZM163.126 19.3734C163.126 19.9723 163.338 20.6087 163.756 21.2699C164.024 21.7067 164.61 22.4802 165.509 23.5907C166.407 22.9606 167.05 22.4241 167.443 21.9874C168.191 21.1764 168.566 20.2967 168.566 19.3484C168.566 18.656 168.341 18.0383 167.892 17.5018C167.443 16.9653 166.763 16.6908 165.846 16.6908C165.278 16.6908 164.742 16.8468 164.249 17.1649C163.5 17.6328 163.126 18.369 163.126 19.3734Z" stroke="#2B2B2B" stroke-width="1.6" mask="url(#path-1-outside-1_2002_68)"/>
</svg>
