<svg width="967" height="116" viewBox="0 0 967 116" fill="none" xmlns="http://www.w3.org/2000/svg">
<mask id="path-1-outside-1_2002_66" maskUnits="userSpaceOnUse" x="0" y="0.392822" width="967" height="115" fill="black">
<rect fill="white" y="0.392822" width="967" height="115"/>
<path d="M68.7453 85.7611C62.0014 91.8665 53.3672 94.9191 42.8427 94.9191C29.8318 94.9191 19.6138 90.793 12.1546 82.5574C4.72957 74.2548 1 62.8995 1 48.4914C1 32.8925 5.24047 20.8663 13.7044 12.4295C21.0613 5.06611 30.4278 1.39282 41.8038 1.39282C57.0287 1.39282 68.1492 6.32409 75.1826 16.1866C79.0655 21.7217 81.1601 27.2736 81.4326 32.859H62.5293C61.3032 28.5819 59.7194 25.3447 57.812 23.1642C54.372 19.2896 49.28 17.344 42.5361 17.344C35.7923 17.344 30.2405 20.078 26.2725 25.5627C22.3045 31.0307 20.312 38.7799 20.312 48.8101C20.312 58.8404 22.4067 66.3379 26.5961 71.3195C30.7854 76.3179 36.1158 78.8003 42.5872 78.8003C49.0586 78.8003 54.2698 76.6533 57.7439 72.3762C59.6683 70.0783 61.2691 66.6231 62.5293 62.0105H81.2453C79.6104 71.7556 75.4381 79.6725 68.7283 85.7611H68.7453Z"/>
<path d="M114.19 86.743C114.076 86.8795 113.803 87.2891 113.37 87.9718C112.938 88.6544 112.415 89.2575 111.812 89.7809C109.98 91.4306 108.205 92.5457 106.498 93.1487C104.792 93.7517 102.789 94.0476 100.491 94.0476C93.8801 94.0476 89.42 91.6582 87.1217 86.8909C85.836 84.2626 85.1988 80.3827 85.1988 75.2513V48.2629H97.1684V75.274C97.1684 77.8227 97.4642 79.7456 98.0672 81.0313C99.1367 83.3068 101.219 84.4446 104.336 84.4446C108.33 84.4446 111.061 82.829 112.54 79.5976C113.302 77.8455 113.689 75.5244 113.689 72.6458V48.2629H125.533V93.0691H114.178V86.743H114.19Z"/>
<path d="M155.173 84.7291V93.4901L149.643 93.6949C144.125 93.8883 140.348 92.9326 138.334 90.8163C137.025 89.4737 136.365 87.4029 136.365 84.6039V57.0126H130.13V48.6726H136.365V36.1683H147.925V48.6612H155.184V57.0012H147.925V80.6786C147.925 82.5104 148.153 83.6596 148.619 84.1147C149.086 84.5698 150.508 84.7974 152.886 84.7974C153.239 84.7974 153.614 84.7974 154.013 84.7746C154.411 84.7632 154.798 84.7405 155.184 84.7177L155.173 84.7291Z"/>
<path d="M181.035 84.7291V93.4901L175.505 93.6949C169.987 93.8883 166.209 92.9326 164.195 90.8163C162.887 89.4737 162.227 87.4029 162.227 84.6039V57.0126H155.992V48.6726H162.227V36.1683H173.787V48.6612H181.046V57.0012H173.787V80.6786C173.787 82.5104 174.014 83.6596 174.481 84.1147C174.947 84.5698 176.37 84.7974 178.748 84.7974C179.1 84.7974 179.476 84.7974 179.874 84.7746C180.272 84.7632 180.659 84.7405 181.046 84.7177L181.035 84.7291Z"/>
<path d="M198.455 32.1063V42.9153H186.61V32.1063H198.455ZM198.455 48.2629V93.069H186.61V48.2629H198.455Z"/>
<path d="M228.697 56.9328C224.737 56.9328 222.018 58.6168 220.539 61.9846C219.777 63.771 219.39 66.0465 219.39 68.8114V93.069H207.75V48.3425H219.026V54.8848C220.528 52.5865 221.95 50.9253 223.292 49.9127C225.693 48.1036 228.742 47.2048 232.44 47.2048C237.06 47.2048 240.837 48.4222 243.773 50.8457C246.708 53.2692 248.176 57.2969 248.176 62.9062V93.0804H236.206V65.819C236.206 63.4638 235.888 61.6547 235.262 60.3917C234.113 58.0934 231.928 56.9328 228.708 56.9328H228.697Z"/>
<path d="M269.475 100.92C270.727 101.989 272.854 102.524 275.824 102.524C280.034 102.524 282.844 101.113 284.266 98.2913C285.199 96.4823 285.666 93.4444 285.666 89.1663V86.2877C284.54 88.2105 283.345 89.6441 282.059 90.5999C279.738 92.3862 276.712 93.2737 273.002 93.2737C267.268 93.2737 262.683 91.2484 259.247 87.2093C255.81 83.1701 254.104 77.6974 254.104 70.7796C254.104 63.8618 255.754 58.5256 259.064 53.9858C262.375 49.4461 267.063 47.1819 273.128 47.1819C275.369 47.1819 277.326 47.5232 278.987 48.2059C281.832 49.3892 284.13 51.551 285.871 54.7026V48.2514H297.226V90.7592C297.226 96.5391 296.259 100.897 294.313 103.832C290.979 108.873 284.585 111.399 275.13 111.399C269.418 111.399 264.753 110.272 261.147 108.031C257.54 105.778 255.549 102.422 255.162 97.9614H267.871C268.201 99.3267 268.736 100.317 269.475 100.92ZM267.518 77.777C269.1 81.5545 271.944 83.4546 276.04 83.4546C278.771 83.4546 281.081 82.4192 282.969 80.3484C284.858 78.2776 285.803 74.978 285.803 70.461C285.803 66.2171 284.904 62.9744 283.117 60.7557C281.331 58.537 278.93 57.422 275.927 57.422C271.83 57.422 268.997 59.3562 267.439 63.2133C266.619 65.2727 266.21 67.81 266.21 70.8137C266.21 73.4193 266.642 75.729 267.518 77.7656V77.777Z"/>
<path d="M302.517 64.0442H326.046V75.149H302.517V64.0442Z"/>
<path d="M370.146 79.9158C369.851 82.5782 368.462 85.2748 366.005 88.0168C362.182 92.3746 356.823 94.5591 349.939 94.5591C344.25 94.5591 339.244 92.7273 334.898 89.0522C330.551 85.3772 328.378 79.4038 328.378 71.132C328.378 63.3723 330.335 57.4331 334.261 53.2915C338.186 49.15 343.272 47.0792 349.53 47.0792C353.25 47.0792 356.595 47.7732 359.576 49.1727C362.557 50.5722 365.015 52.7795 366.961 55.7947C368.713 58.4571 369.839 61.5405 370.363 65.0449C370.658 67.1043 370.784 70.0625 370.727 73.9196H340.143C340.302 78.4139 341.713 81.5656 344.364 83.3747C345.98 84.5011 347.914 85.0586 350.19 85.0586C352.59 85.0586 354.547 84.3759 356.049 82.9992C356.868 82.2596 357.597 81.2356 358.222 79.9158H370.158H370.146ZM358.586 66.1827C358.393 63.0879 357.46 60.7327 355.776 59.1284C354.092 57.5241 352.01 56.7276 349.518 56.7276C346.81 56.7276 344.717 57.581 343.226 59.2763C341.736 60.9716 340.803 63.2813 340.416 66.1827H358.586Z"/>
<path d="M417.16 32.5498V93.0688H405.805V86.8565C404.132 89.5189 402.244 91.4531 400.105 92.6478C397.977 93.8539 395.326 94.4569 392.151 94.4569C386.929 94.4569 382.537 92.3406 378.976 88.108C375.415 83.8755 373.628 78.4368 373.628 71.8035C373.628 64.1576 375.38 58.1387 378.896 53.7582C382.412 49.3777 387.1 47.1818 392.982 47.1818C395.69 47.1818 398.091 47.7734 400.196 48.9681C402.301 50.1628 404.007 51.8126 405.316 53.9175V32.5498H417.16ZM385.677 70.9502C385.677 75.0917 386.497 78.3913 388.135 80.8603C389.751 83.3521 392.208 84.6036 395.519 84.6036C398.83 84.6036 401.345 83.3748 403.063 80.9058C404.781 78.4368 405.646 75.251 405.646 71.3256C405.646 65.8415 404.269 61.9275 401.504 59.5723C399.809 58.1501 397.84 57.4332 395.599 57.4332C392.186 57.4332 389.671 58.7303 388.078 61.3131C386.485 63.8959 385.677 67.1158 385.677 70.9502Z"/>
<path d="M438.312 100.92C439.563 101.989 441.691 102.524 444.661 102.524C448.87 102.524 451.681 101.113 453.103 98.2914C454.036 96.4823 454.502 93.4444 454.502 89.1663V86.2877C453.376 88.2106 452.181 89.6442 450.896 90.5999C448.575 92.3862 445.548 93.2737 441.839 93.2737C436.104 93.2737 431.519 91.2484 428.083 87.2093C424.647 83.1701 422.94 77.6974 422.94 70.7796C422.94 63.8619 424.59 58.5256 427.901 53.9859C431.212 49.4461 435.9 47.1819 441.964 47.1819C444.205 47.1819 446.162 47.5232 447.824 48.2059C450.668 49.3892 452.966 51.551 454.707 54.7027V48.2514H466.062V90.7592C466.062 96.5392 465.095 100.897 463.15 103.832C459.816 108.873 453.422 111.399 443.967 111.399C438.255 111.399 433.59 110.272 429.983 108.031C426.376 105.778 424.385 102.422 423.998 97.9614H436.707C437.037 99.3267 437.572 100.317 438.312 100.92ZM436.343 77.777C437.925 81.5545 440.769 83.4546 444.865 83.4546C447.596 83.4546 449.906 82.4192 451.794 80.3484C453.683 78.2777 454.628 74.9781 454.628 70.461C454.628 66.2171 453.729 62.9744 451.942 60.7557C450.156 58.537 447.755 57.422 444.752 57.422C440.656 57.422 437.822 59.3562 436.264 63.2133C435.444 65.2727 435.035 67.81 435.035 70.8138C435.035 73.4193 435.467 75.729 436.343 77.7656V77.777Z"/>
<path d="M513.121 79.9158C512.825 82.5782 511.437 85.2748 508.98 88.0168C505.157 92.3746 499.798 94.5591 492.914 94.5591C487.225 94.5591 482.219 92.7273 477.873 89.0522C473.526 85.3772 471.353 79.4038 471.353 71.132C471.353 63.3723 473.31 57.4331 477.235 53.2915C481.161 49.15 486.247 47.0792 492.505 47.0792C496.225 47.0792 499.57 47.7732 502.551 49.1727C505.532 50.5722 507.99 52.7795 509.935 55.7947C511.688 58.4571 512.814 61.5405 513.337 65.0449C513.633 67.1043 513.758 70.0625 513.702 73.9196H483.118C483.277 78.4139 484.688 81.5656 487.339 83.3747C488.955 84.5011 490.889 85.0586 493.164 85.0586C495.565 85.0586 497.522 84.3759 499.024 82.9992C499.843 82.2596 500.571 81.2356 501.197 79.9158H513.133H513.121ZM501.561 66.1827C501.368 63.0879 500.435 60.7327 498.751 59.1284C497.067 57.5241 494.985 56.7276 492.493 56.7276C489.785 56.7276 487.692 57.581 486.201 59.2763C484.711 60.9716 483.778 63.2813 483.391 66.1827H501.561Z"/>
<path d="M581.811 7.23511V22.8009H555.557V95.1498H537.101V22.8009H510.731V7.23511H581.811Z"/>
<path d="M606.765 82.7275C606.469 85.3899 605.081 88.0865 602.624 90.8285C598.801 95.1863 593.442 97.3708 586.558 97.3708C580.869 97.3708 575.863 95.539 571.516 91.8639C567.17 88.1889 564.997 82.2155 564.997 73.9437C564.997 66.184 566.954 60.2448 570.879 56.1032C574.805 51.9617 579.891 49.8909 586.148 49.8909C589.869 49.8909 593.214 50.5849 596.195 51.9844C599.176 53.3839 601.634 55.5912 603.579 58.6064C605.331 61.2688 606.458 64.3522 606.981 67.8566C607.277 69.916 607.402 72.8742 607.345 76.7313H576.762C576.921 81.2256 578.332 84.3773 580.983 86.1864C582.598 87.3128 584.533 87.8703 586.808 87.8703C589.209 87.8703 591.166 87.1876 592.668 85.8109C593.487 85.0713 594.215 84.0473 594.841 82.7275H606.776H606.765ZM595.205 69.0057C595.012 65.911 594.079 63.5557 592.395 61.9515C590.711 60.3472 588.629 59.5507 586.137 59.5507C583.429 59.5507 581.336 60.4041 579.845 62.0994C578.355 63.7947 577.422 66.1044 577.035 69.0057H595.205Z"/>
<path d="M639.807 67.1512C639.591 65.4786 639.034 63.9767 638.123 62.6341C636.815 60.825 634.778 59.9262 632.013 59.9262C628.077 59.9262 625.38 61.8832 623.935 65.8086C623.173 67.8907 622.786 70.6555 622.786 74.1144C622.786 77.5733 623.173 80.0537 623.935 82.0448C625.323 85.7768 627.951 87.6314 631.809 87.6314C634.539 87.6314 636.485 86.8918 637.634 85.4127C638.783 83.9335 639.477 82.0107 639.728 79.6555H651.663C651.39 83.2167 650.104 86.5846 647.806 89.7704C644.142 94.8904 638.715 97.4618 631.536 97.4618C624.356 97.4618 619.054 95.3228 615.675 91.0447C612.284 86.7666 610.589 81.2142 610.589 74.3989C610.589 66.696 612.455 60.7113 616.21 56.4332C619.964 52.1551 625.118 50.016 631.706 50.016C637.304 50.016 641.889 51.279 645.462 53.7935C649.023 56.3194 651.14 60.7682 651.8 67.1512H639.807Z"/>
<path d="M698.096 69.5746V95.8803H686.172V68.6189C686.172 66.2067 685.763 64.2611 684.943 62.782C683.874 60.6998 681.86 59.6531 678.879 59.6531C675.898 59.6531 673.452 60.6885 671.847 62.7592C670.243 64.83 669.447 67.7769 669.447 71.6226V95.8803H657.807V35.4864H669.447V56.911C671.142 54.3055 673.099 52.4964 675.329 51.461C677.559 50.437 679.903 49.925 682.361 49.925C685.125 49.925 687.629 50.4029 689.881 51.3586C692.134 52.3143 693.989 53.7821 695.434 55.7618C696.663 57.4344 697.413 59.1525 697.687 60.916C697.96 62.6796 698.096 65.5696 698.096 69.5746Z"/>
<path d="M727.929 59.7557C723.969 59.7557 721.25 61.4396 719.771 64.8075C719.008 66.5938 718.621 68.8694 718.621 71.6342V95.8919H706.982V51.1654H718.257V57.7077C719.759 55.4093 721.181 53.7482 722.524 52.7355C724.925 50.9265 727.974 50.0276 731.672 50.0276C736.291 50.0276 740.069 51.245 743.004 53.6685C745.94 56.092 747.407 60.1198 747.407 65.7291V95.9032H735.438V68.6418C735.438 66.2866 735.119 64.4775 734.494 63.2146C733.344 60.9162 731.16 59.7557 727.94 59.7557H727.929Z"/>
<path d="M793.352 56.7517C797.129 61.4963 799.006 67.0942 799.006 73.5683C799.006 80.0423 797.118 85.7767 793.352 90.4417C789.585 95.118 783.851 97.4505 776.171 97.4505C768.491 97.4505 762.768 95.118 758.99 90.4417C755.213 85.7654 753.335 80.1447 753.335 73.5683C753.335 66.9918 755.224 61.4963 758.99 56.7517C762.756 52.0072 768.491 49.6406 776.171 49.6406C783.851 49.6406 789.574 52.0072 793.352 56.7517ZM776.137 59.5507C772.723 59.5507 770.095 60.7681 768.241 63.1916C766.397 65.6151 765.476 69.074 765.476 73.5683C765.476 78.0625 766.397 81.5328 768.241 83.9677C770.084 86.4025 772.712 87.6313 776.137 87.6313C779.562 87.6313 782.178 86.4139 784.01 83.9677C785.842 81.5328 786.752 78.0625 786.752 73.5683C786.752 69.074 785.842 65.6151 784.01 63.1916C782.178 60.7681 779.55 59.5507 776.137 59.5507Z"/>
<path d="M805.514 35.2928H817.2V95.8915H805.514V35.2928Z"/>
<path d="M863.769 56.7517C867.546 61.4963 869.424 67.0942 869.424 73.5683C869.424 80.0423 867.535 85.7767 863.769 90.4417C860.003 95.118 854.268 97.4505 846.588 97.4505C838.908 97.4505 833.185 95.118 829.408 90.4417C825.63 85.7654 823.753 80.1447 823.753 73.5683C823.753 66.9918 825.642 61.4963 829.408 56.7517C833.174 52.0072 838.908 49.6406 846.588 49.6406C854.268 49.6406 859.991 52.0072 863.769 56.7517ZM846.543 59.5507C843.129 59.5507 840.501 60.7681 838.647 63.1916C836.803 65.6151 835.882 69.074 835.882 73.5683C835.882 78.0625 836.803 81.5328 838.647 83.9677C840.49 86.4025 843.118 87.6313 846.543 87.6313C849.968 87.6313 852.584 86.4139 854.416 83.9677C856.248 81.5328 857.158 78.0625 857.158 73.5683C857.158 69.074 856.248 65.6151 854.416 63.1916C852.584 60.7681 849.956 59.5507 846.543 59.5507Z"/>
<path d="M888.311 103.743C889.562 104.812 891.69 105.347 894.66 105.347C898.87 105.347 901.68 103.936 903.102 101.115C904.035 99.3055 904.502 96.2676 904.502 91.9895V89.1109C903.375 91.0338 902.181 92.4674 900.895 93.4232C898.574 95.2095 895.547 96.097 891.838 96.097C886.104 96.097 881.518 94.0717 878.082 90.0325C874.646 85.9934 872.939 80.5206 872.939 73.6029C872.939 66.6851 874.589 61.3489 877.9 56.8091C881.211 52.2693 885.899 50.0051 891.963 50.0051C894.205 50.0051 896.162 50.3465 897.823 51.0291C900.667 52.2124 902.966 54.3742 904.706 57.5259V51.0746H916.062V93.5825C916.062 99.3624 915.094 103.72 913.149 106.656C909.815 111.696 903.421 114.222 893.966 114.222C888.254 114.222 883.589 113.096 879.982 110.854C876.376 108.601 874.384 105.245 873.997 100.785H886.707C887.037 102.15 887.571 103.14 888.311 103.743ZM886.343 80.6003C887.924 84.3777 890.769 86.2778 894.865 86.2778C897.595 86.2778 899.905 85.2425 901.794 83.1717C903.682 81.1009 904.627 77.8013 904.627 73.2843C904.627 69.0403 903.728 65.7976 901.942 63.579C900.155 61.3603 897.755 60.2452 894.751 60.2452C890.655 60.2452 887.822 62.1795 886.263 66.0366C885.444 68.096 885.034 70.6332 885.034 73.637C885.034 76.2425 885.466 78.5523 886.343 80.5889V80.6003Z"/>
<path d="M943.039 84.1269L952.266 51.0741H964.691L949.353 95.1407C946.407 103.64 944.063 108.908 942.345 110.945C940.627 112.981 937.179 114.005 932.014 114.005C930.978 114.005 930.136 114.005 929.51 113.982C928.885 113.971 927.94 113.926 926.677 113.835V104.459L928.156 104.539C929.306 104.596 930.398 104.55 931.433 104.414C932.469 104.277 933.345 103.959 934.062 103.469C934.744 103.003 935.381 102.036 935.962 100.545C936.542 99.0546 936.792 98.1558 936.678 97.8372L920.283 51.0513H933.276L943.039 84.1041V84.1269Z"/>
</mask>
<path d="M68.7453 85.7611C62.0014 91.8665 53.3672 94.9191 42.8427 94.9191C29.8318 94.9191 19.6138 90.793 12.1546 82.5574C4.72957 74.2548 1 62.8995 1 48.4914C1 32.8925 5.24047 20.8663 13.7044 12.4295C21.0613 5.06611 30.4278 1.39282 41.8038 1.39282C57.0287 1.39282 68.1492 6.32409 75.1826 16.1866C79.0655 21.7217 81.1601 27.2736 81.4326 32.859H62.5293C61.3032 28.5819 59.7194 25.3447 57.812 23.1642C54.372 19.2896 49.28 17.344 42.5361 17.344C35.7923 17.344 30.2405 20.078 26.2725 25.5627C22.3045 31.0307 20.312 38.7799 20.312 48.8101C20.312 58.8404 22.4067 66.3379 26.5961 71.3195C30.7854 76.3179 36.1158 78.8003 42.5872 78.8003C49.0586 78.8003 54.2698 76.6533 57.7439 72.3762C59.6683 70.0783 61.2691 66.6231 62.5293 62.0105H81.2453C79.6104 71.7556 75.4381 79.6725 68.7283 85.7611H68.7453Z" fill="white"/>
<path d="M114.19 86.743C114.076 86.8795 113.803 87.2891 113.37 87.9718C112.938 88.6544 112.415 89.2575 111.812 89.7809C109.98 91.4306 108.205 92.5457 106.498 93.1487C104.792 93.7517 102.789 94.0476 100.491 94.0476C93.8801 94.0476 89.42 91.6582 87.1217 86.8909C85.836 84.2626 85.1988 80.3827 85.1988 75.2513V48.2629H97.1684V75.274C97.1684 77.8227 97.4642 79.7456 98.0672 81.0313C99.1367 83.3068 101.219 84.4446 104.336 84.4446C108.33 84.4446 111.061 82.829 112.54 79.5976C113.302 77.8455 113.689 75.5244 113.689 72.6458V48.2629H125.533V93.0691H114.178V86.743H114.19Z" fill="white"/>
<path d="M155.173 84.7291V93.4901L149.643 93.6949C144.125 93.8883 140.348 92.9326 138.334 90.8163C137.025 89.4737 136.365 87.4029 136.365 84.6039V57.0126H130.13V48.6726H136.365V36.1683H147.925V48.6612H155.184V57.0012H147.925V80.6786C147.925 82.5104 148.153 83.6596 148.619 84.1147C149.086 84.5698 150.508 84.7974 152.886 84.7974C153.239 84.7974 153.614 84.7974 154.013 84.7746C154.411 84.7632 154.798 84.7405 155.184 84.7177L155.173 84.7291Z" fill="white"/>
<path d="M181.035 84.7291V93.4901L175.505 93.6949C169.987 93.8883 166.209 92.9326 164.195 90.8163C162.887 89.4737 162.227 87.4029 162.227 84.6039V57.0126H155.992V48.6726H162.227V36.1683H173.787V48.6612H181.046V57.0012H173.787V80.6786C173.787 82.5104 174.014 83.6596 174.481 84.1147C174.947 84.5698 176.37 84.7974 178.748 84.7974C179.1 84.7974 179.476 84.7974 179.874 84.7746C180.272 84.7632 180.659 84.7405 181.046 84.7177L181.035 84.7291Z" fill="white"/>
<path d="M198.455 32.1063V42.9153H186.61V32.1063H198.455ZM198.455 48.2629V93.069H186.61V48.2629H198.455Z" fill="white"/>
<path d="M228.697 56.9328C224.737 56.9328 222.018 58.6168 220.539 61.9846C219.777 63.771 219.39 66.0465 219.39 68.8114V93.069H207.75V48.3425H219.026V54.8848C220.528 52.5865 221.95 50.9253 223.292 49.9127C225.693 48.1036 228.742 47.2048 232.44 47.2048C237.06 47.2048 240.837 48.4222 243.773 50.8457C246.708 53.2692 248.176 57.2969 248.176 62.9062V93.0804H236.206V65.819C236.206 63.4638 235.888 61.6547 235.262 60.3917C234.113 58.0934 231.928 56.9328 228.708 56.9328H228.697Z" fill="white"/>
<path d="M269.475 100.92C270.727 101.989 272.854 102.524 275.824 102.524C280.034 102.524 282.844 101.113 284.266 98.2913C285.199 96.4823 285.666 93.4444 285.666 89.1663V86.2877C284.54 88.2105 283.345 89.6441 282.059 90.5999C279.738 92.3862 276.712 93.2737 273.002 93.2737C267.268 93.2737 262.683 91.2484 259.247 87.2093C255.81 83.1701 254.104 77.6974 254.104 70.7796C254.104 63.8618 255.754 58.5256 259.064 53.9858C262.375 49.4461 267.063 47.1819 273.128 47.1819C275.369 47.1819 277.326 47.5232 278.987 48.2059C281.832 49.3892 284.13 51.551 285.871 54.7026V48.2514H297.226V90.7592C297.226 96.5391 296.259 100.897 294.313 103.832C290.979 108.873 284.585 111.399 275.13 111.399C269.418 111.399 264.753 110.272 261.147 108.031C257.54 105.778 255.549 102.422 255.162 97.9614H267.871C268.201 99.3267 268.736 100.317 269.475 100.92ZM267.518 77.777C269.1 81.5545 271.944 83.4546 276.04 83.4546C278.771 83.4546 281.081 82.4192 282.969 80.3484C284.858 78.2776 285.803 74.978 285.803 70.461C285.803 66.2171 284.904 62.9744 283.117 60.7557C281.331 58.537 278.93 57.422 275.927 57.422C271.83 57.422 268.997 59.3562 267.439 63.2133C266.619 65.2727 266.21 67.81 266.21 70.8137C266.21 73.4193 266.642 75.729 267.518 77.7656V77.777Z" fill="white"/>
<path d="M302.517 64.0442H326.046V75.149H302.517V64.0442Z" fill="white"/>
<path d="M370.146 79.9158C369.851 82.5782 368.462 85.2748 366.005 88.0168C362.182 92.3746 356.823 94.5591 349.939 94.5591C344.25 94.5591 339.244 92.7273 334.898 89.0522C330.551 85.3772 328.378 79.4038 328.378 71.132C328.378 63.3723 330.335 57.4331 334.261 53.2915C338.186 49.15 343.272 47.0792 349.53 47.0792C353.25 47.0792 356.595 47.7732 359.576 49.1727C362.557 50.5722 365.015 52.7795 366.961 55.7947C368.713 58.4571 369.839 61.5405 370.363 65.0449C370.658 67.1043 370.784 70.0625 370.727 73.9196H340.143C340.302 78.4139 341.713 81.5656 344.364 83.3747C345.98 84.5011 347.914 85.0586 350.19 85.0586C352.59 85.0586 354.547 84.3759 356.049 82.9992C356.868 82.2596 357.597 81.2356 358.222 79.9158H370.158H370.146ZM358.586 66.1827C358.393 63.0879 357.46 60.7327 355.776 59.1284C354.092 57.5241 352.01 56.7276 349.518 56.7276C346.81 56.7276 344.717 57.581 343.226 59.2763C341.736 60.9716 340.803 63.2813 340.416 66.1827H358.586Z" fill="white"/>
<path d="M417.16 32.5498V93.0688H405.805V86.8565C404.132 89.5189 402.244 91.4531 400.105 92.6478C397.977 93.8539 395.326 94.4569 392.151 94.4569C386.929 94.4569 382.537 92.3406 378.976 88.108C375.415 83.8755 373.628 78.4368 373.628 71.8035C373.628 64.1576 375.38 58.1387 378.896 53.7582C382.412 49.3777 387.1 47.1818 392.982 47.1818C395.69 47.1818 398.091 47.7734 400.196 48.9681C402.301 50.1628 404.007 51.8126 405.316 53.9175V32.5498H417.16ZM385.677 70.9502C385.677 75.0917 386.497 78.3913 388.135 80.8603C389.751 83.3521 392.208 84.6036 395.519 84.6036C398.83 84.6036 401.345 83.3748 403.063 80.9058C404.781 78.4368 405.646 75.251 405.646 71.3256C405.646 65.8415 404.269 61.9275 401.504 59.5723C399.809 58.1501 397.84 57.4332 395.599 57.4332C392.186 57.4332 389.671 58.7303 388.078 61.3131C386.485 63.8959 385.677 67.1158 385.677 70.9502Z" fill="white"/>
<path d="M438.312 100.92C439.563 101.989 441.691 102.524 444.661 102.524C448.87 102.524 451.681 101.113 453.103 98.2914C454.036 96.4823 454.502 93.4444 454.502 89.1663V86.2877C453.376 88.2106 452.181 89.6442 450.896 90.5999C448.575 92.3862 445.548 93.2737 441.839 93.2737C436.104 93.2737 431.519 91.2484 428.083 87.2093C424.647 83.1701 422.94 77.6974 422.94 70.7796C422.94 63.8619 424.59 58.5256 427.901 53.9859C431.212 49.4461 435.9 47.1819 441.964 47.1819C444.205 47.1819 446.162 47.5232 447.824 48.2059C450.668 49.3892 452.966 51.551 454.707 54.7027V48.2514H466.062V90.7592C466.062 96.5392 465.095 100.897 463.15 103.832C459.816 108.873 453.422 111.399 443.967 111.399C438.255 111.399 433.59 110.272 429.983 108.031C426.376 105.778 424.385 102.422 423.998 97.9614H436.707C437.037 99.3267 437.572 100.317 438.312 100.92ZM436.343 77.777C437.925 81.5545 440.769 83.4546 444.865 83.4546C447.596 83.4546 449.906 82.4192 451.794 80.3484C453.683 78.2777 454.628 74.9781 454.628 70.461C454.628 66.2171 453.729 62.9744 451.942 60.7557C450.156 58.537 447.755 57.422 444.752 57.422C440.656 57.422 437.822 59.3562 436.264 63.2133C435.444 65.2727 435.035 67.81 435.035 70.8138C435.035 73.4193 435.467 75.729 436.343 77.7656V77.777Z" fill="white"/>
<path d="M513.121 79.9158C512.825 82.5782 511.437 85.2748 508.98 88.0168C505.157 92.3746 499.798 94.5591 492.914 94.5591C487.225 94.5591 482.219 92.7273 477.873 89.0522C473.526 85.3772 471.353 79.4038 471.353 71.132C471.353 63.3723 473.31 57.4331 477.235 53.2915C481.161 49.15 486.247 47.0792 492.505 47.0792C496.225 47.0792 499.57 47.7732 502.551 49.1727C505.532 50.5722 507.99 52.7795 509.935 55.7947C511.688 58.4571 512.814 61.5405 513.337 65.0449C513.633 67.1043 513.758 70.0625 513.702 73.9196H483.118C483.277 78.4139 484.688 81.5656 487.339 83.3747C488.955 84.5011 490.889 85.0586 493.164 85.0586C495.565 85.0586 497.522 84.3759 499.024 82.9992C499.843 82.2596 500.571 81.2356 501.197 79.9158H513.133H513.121ZM501.561 66.1827C501.368 63.0879 500.435 60.7327 498.751 59.1284C497.067 57.5241 494.985 56.7276 492.493 56.7276C489.785 56.7276 487.692 57.581 486.201 59.2763C484.711 60.9716 483.778 63.2813 483.391 66.1827H501.561Z" fill="white"/>
<path d="M581.811 7.23511V22.8009H555.557V95.1498H537.101V22.8009H510.731V7.23511H581.811Z" fill="white"/>
<path d="M606.765 82.7275C606.469 85.3899 605.081 88.0865 602.624 90.8285C598.801 95.1863 593.442 97.3708 586.558 97.3708C580.869 97.3708 575.863 95.539 571.516 91.8639C567.17 88.1889 564.997 82.2155 564.997 73.9437C564.997 66.184 566.954 60.2448 570.879 56.1032C574.805 51.9617 579.891 49.8909 586.148 49.8909C589.869 49.8909 593.214 50.5849 596.195 51.9844C599.176 53.3839 601.634 55.5912 603.579 58.6064C605.331 61.2688 606.458 64.3522 606.981 67.8566C607.277 69.916 607.402 72.8742 607.345 76.7313H576.762C576.921 81.2256 578.332 84.3773 580.983 86.1864C582.598 87.3128 584.533 87.8703 586.808 87.8703C589.209 87.8703 591.166 87.1876 592.668 85.8109C593.487 85.0713 594.215 84.0473 594.841 82.7275H606.776H606.765ZM595.205 69.0057C595.012 65.911 594.079 63.5557 592.395 61.9515C590.711 60.3472 588.629 59.5507 586.137 59.5507C583.429 59.5507 581.336 60.4041 579.845 62.0994C578.355 63.7947 577.422 66.1044 577.035 69.0057H595.205Z" fill="white"/>
<path d="M639.807 67.1512C639.591 65.4786 639.034 63.9767 638.123 62.6341C636.815 60.825 634.778 59.9262 632.013 59.9262C628.077 59.9262 625.38 61.8832 623.935 65.8086C623.173 67.8907 622.786 70.6555 622.786 74.1144C622.786 77.5733 623.173 80.0537 623.935 82.0448C625.323 85.7768 627.951 87.6314 631.809 87.6314C634.539 87.6314 636.485 86.8918 637.634 85.4127C638.783 83.9335 639.477 82.0107 639.728 79.6555H651.663C651.39 83.2167 650.104 86.5846 647.806 89.7704C644.142 94.8904 638.715 97.4618 631.536 97.4618C624.356 97.4618 619.054 95.3228 615.675 91.0447C612.284 86.7666 610.589 81.2142 610.589 74.3989C610.589 66.696 612.455 60.7113 616.21 56.4332C619.964 52.1551 625.118 50.016 631.706 50.016C637.304 50.016 641.889 51.279 645.462 53.7935C649.023 56.3194 651.14 60.7682 651.8 67.1512H639.807Z" fill="white"/>
<path d="M698.096 69.5746V95.8803H686.172V68.6189C686.172 66.2067 685.763 64.2611 684.943 62.782C683.874 60.6998 681.86 59.6531 678.879 59.6531C675.898 59.6531 673.452 60.6885 671.847 62.7592C670.243 64.83 669.447 67.7769 669.447 71.6226V95.8803H657.807V35.4864H669.447V56.911C671.142 54.3055 673.099 52.4964 675.329 51.461C677.559 50.437 679.903 49.925 682.361 49.925C685.125 49.925 687.629 50.4029 689.881 51.3586C692.134 52.3143 693.989 53.7821 695.434 55.7618C696.663 57.4344 697.413 59.1525 697.687 60.916C697.96 62.6796 698.096 65.5696 698.096 69.5746Z" fill="white"/>
<path d="M727.929 59.7557C723.969 59.7557 721.25 61.4396 719.771 64.8075C719.008 66.5938 718.621 68.8694 718.621 71.6342V95.8919H706.982V51.1654H718.257V57.7077C719.759 55.4093 721.181 53.7482 722.524 52.7355C724.925 50.9265 727.974 50.0276 731.672 50.0276C736.291 50.0276 740.069 51.245 743.004 53.6685C745.94 56.092 747.407 60.1198 747.407 65.7291V95.9032H735.438V68.6418C735.438 66.2866 735.119 64.4775 734.494 63.2146C733.344 60.9162 731.16 59.7557 727.94 59.7557H727.929Z" fill="white"/>
<path d="M793.352 56.7517C797.129 61.4963 799.006 67.0942 799.006 73.5683C799.006 80.0423 797.118 85.7767 793.352 90.4417C789.585 95.118 783.851 97.4505 776.171 97.4505C768.491 97.4505 762.768 95.118 758.99 90.4417C755.213 85.7654 753.335 80.1447 753.335 73.5683C753.335 66.9918 755.224 61.4963 758.99 56.7517C762.756 52.0072 768.491 49.6406 776.171 49.6406C783.851 49.6406 789.574 52.0072 793.352 56.7517ZM776.137 59.5507C772.723 59.5507 770.095 60.7681 768.241 63.1916C766.397 65.6151 765.476 69.074 765.476 73.5683C765.476 78.0625 766.397 81.5328 768.241 83.9677C770.084 86.4025 772.712 87.6313 776.137 87.6313C779.562 87.6313 782.178 86.4139 784.01 83.9677C785.842 81.5328 786.752 78.0625 786.752 73.5683C786.752 69.074 785.842 65.6151 784.01 63.1916C782.178 60.7681 779.55 59.5507 776.137 59.5507Z" fill="white"/>
<path d="M805.514 35.2928H817.2V95.8915H805.514V35.2928Z" fill="white"/>
<path d="M863.769 56.7517C867.546 61.4963 869.424 67.0942 869.424 73.5683C869.424 80.0423 867.535 85.7767 863.769 90.4417C860.003 95.118 854.268 97.4505 846.588 97.4505C838.908 97.4505 833.185 95.118 829.408 90.4417C825.63 85.7654 823.753 80.1447 823.753 73.5683C823.753 66.9918 825.642 61.4963 829.408 56.7517C833.174 52.0072 838.908 49.6406 846.588 49.6406C854.268 49.6406 859.991 52.0072 863.769 56.7517ZM846.543 59.5507C843.129 59.5507 840.501 60.7681 838.647 63.1916C836.803 65.6151 835.882 69.074 835.882 73.5683C835.882 78.0625 836.803 81.5328 838.647 83.9677C840.49 86.4025 843.118 87.6313 846.543 87.6313C849.968 87.6313 852.584 86.4139 854.416 83.9677C856.248 81.5328 857.158 78.0625 857.158 73.5683C857.158 69.074 856.248 65.6151 854.416 63.1916C852.584 60.7681 849.956 59.5507 846.543 59.5507Z" fill="white"/>
<path d="M888.311 103.743C889.562 104.812 891.69 105.347 894.66 105.347C898.87 105.347 901.68 103.936 903.102 101.115C904.035 99.3055 904.502 96.2676 904.502 91.9895V89.1109C903.375 91.0338 902.181 92.4674 900.895 93.4232C898.574 95.2095 895.547 96.097 891.838 96.097C886.104 96.097 881.518 94.0717 878.082 90.0325C874.646 85.9934 872.939 80.5206 872.939 73.6029C872.939 66.6851 874.589 61.3489 877.9 56.8091C881.211 52.2693 885.899 50.0051 891.963 50.0051C894.205 50.0051 896.162 50.3465 897.823 51.0291C900.667 52.2124 902.966 54.3742 904.706 57.5259V51.0746H916.062V93.5825C916.062 99.3624 915.094 103.72 913.149 106.656C909.815 111.696 903.421 114.222 893.966 114.222C888.254 114.222 883.589 113.096 879.982 110.854C876.376 108.601 874.384 105.245 873.997 100.785H886.707C887.037 102.15 887.571 103.14 888.311 103.743ZM886.343 80.6003C887.924 84.3777 890.769 86.2778 894.865 86.2778C897.595 86.2778 899.905 85.2425 901.794 83.1717C903.682 81.1009 904.627 77.8013 904.627 73.2843C904.627 69.0403 903.728 65.7976 901.942 63.579C900.155 61.3603 897.755 60.2452 894.751 60.2452C890.655 60.2452 887.822 62.1795 886.263 66.0366C885.444 68.096 885.034 70.6332 885.034 73.637C885.034 76.2425 885.466 78.5523 886.343 80.5889V80.6003Z" fill="white"/>
<path d="M943.039 84.1269L952.266 51.0741H964.691L949.353 95.1407C946.407 103.64 944.063 108.908 942.345 110.945C940.627 112.981 937.179 114.005 932.014 114.005C930.978 114.005 930.136 114.005 929.51 113.982C928.885 113.971 927.94 113.926 926.677 113.835V104.459L928.156 104.539C929.306 104.596 930.398 104.55 931.433 104.414C932.469 104.277 933.345 103.959 934.062 103.469C934.744 103.003 935.381 102.036 935.962 100.545C936.542 99.0546 936.792 98.1558 936.678 97.8372L920.283 51.0513H933.276L943.039 84.1041V84.1269Z" fill="white"/>
<path d="M68.7453 85.7611C62.0014 91.8665 53.3672 94.9191 42.8427 94.9191C29.8318 94.9191 19.6138 90.793 12.1546 82.5574C4.72957 74.2548 1 62.8995 1 48.4914C1 32.8925 5.24047 20.8663 13.7044 12.4295C21.0613 5.06611 30.4278 1.39282 41.8038 1.39282C57.0287 1.39282 68.1492 6.32409 75.1826 16.1866C79.0655 21.7217 81.1601 27.2736 81.4326 32.859H62.5293C61.3032 28.5819 59.7194 25.3447 57.812 23.1642C54.372 19.2896 49.28 17.344 42.5361 17.344C35.7923 17.344 30.2405 20.078 26.2725 25.5627C22.3045 31.0307 20.312 38.7799 20.312 48.8101C20.312 58.8404 22.4067 66.3379 26.5961 71.3195C30.7854 76.3179 36.1158 78.8003 42.5872 78.8003C49.0586 78.8003 54.2698 76.6533 57.7439 72.3762C59.6683 70.0783 61.2691 66.6231 62.5293 62.0105H81.2453C79.6104 71.7556 75.4381 79.6725 68.7283 85.7611H68.7453Z" stroke="#707070" stroke-width="2" mask="url(#path-1-outside-1_2002_66)"/>
<path d="M114.19 86.743C114.076 86.8795 113.803 87.2891 113.37 87.9718C112.938 88.6544 112.415 89.2575 111.812 89.7809C109.98 91.4306 108.205 92.5457 106.498 93.1487C104.792 93.7517 102.789 94.0476 100.491 94.0476C93.8801 94.0476 89.42 91.6582 87.1217 86.8909C85.836 84.2626 85.1988 80.3827 85.1988 75.2513V48.2629H97.1684V75.274C97.1684 77.8227 97.4642 79.7456 98.0672 81.0313C99.1367 83.3068 101.219 84.4446 104.336 84.4446C108.33 84.4446 111.061 82.829 112.54 79.5976C113.302 77.8455 113.689 75.5244 113.689 72.6458V48.2629H125.533V93.0691H114.178V86.743H114.19Z" stroke="#707070" stroke-width="2" mask="url(#path-1-outside-1_2002_66)"/>
<path d="M155.173 84.7291V93.4901L149.643 93.6949C144.125 93.8883 140.348 92.9326 138.334 90.8163C137.025 89.4737 136.365 87.4029 136.365 84.6039V57.0126H130.13V48.6726H136.365V36.1683H147.925V48.6612H155.184V57.0012H147.925V80.6786C147.925 82.5104 148.153 83.6596 148.619 84.1147C149.086 84.5698 150.508 84.7974 152.886 84.7974C153.239 84.7974 153.614 84.7974 154.013 84.7746C154.411 84.7632 154.798 84.7405 155.184 84.7177L155.173 84.7291Z" stroke="#707070" stroke-width="2" mask="url(#path-1-outside-1_2002_66)"/>
<path d="M181.035 84.7291V93.4901L175.505 93.6949C169.987 93.8883 166.209 92.9326 164.195 90.8163C162.887 89.4737 162.227 87.4029 162.227 84.6039V57.0126H155.992V48.6726H162.227V36.1683H173.787V48.6612H181.046V57.0012H173.787V80.6786C173.787 82.5104 174.014 83.6596 174.481 84.1147C174.947 84.5698 176.37 84.7974 178.748 84.7974C179.1 84.7974 179.476 84.7974 179.874 84.7746C180.272 84.7632 180.659 84.7405 181.046 84.7177L181.035 84.7291Z" stroke="#707070" stroke-width="2" mask="url(#path-1-outside-1_2002_66)"/>
<path d="M198.455 32.1063V42.9153H186.61V32.1063H198.455ZM198.455 48.2629V93.069H186.61V48.2629H198.455Z" stroke="#707070" stroke-width="2" mask="url(#path-1-outside-1_2002_66)"/>
<path d="M228.697 56.9328C224.737 56.9328 222.018 58.6168 220.539 61.9846C219.777 63.771 219.39 66.0465 219.39 68.8114V93.069H207.75V48.3425H219.026V54.8848C220.528 52.5865 221.95 50.9253 223.292 49.9127C225.693 48.1036 228.742 47.2048 232.44 47.2048C237.06 47.2048 240.837 48.4222 243.773 50.8457C246.708 53.2692 248.176 57.2969 248.176 62.9062V93.0804H236.206V65.819C236.206 63.4638 235.888 61.6547 235.262 60.3917C234.113 58.0934 231.928 56.9328 228.708 56.9328H228.697Z" stroke="#707070" stroke-width="2" mask="url(#path-1-outside-1_2002_66)"/>
<path d="M269.475 100.92C270.727 101.989 272.854 102.524 275.824 102.524C280.034 102.524 282.844 101.113 284.266 98.2913C285.199 96.4823 285.666 93.4444 285.666 89.1663V86.2877C284.54 88.2105 283.345 89.6441 282.059 90.5999C279.738 92.3862 276.712 93.2737 273.002 93.2737C267.268 93.2737 262.683 91.2484 259.247 87.2093C255.81 83.1701 254.104 77.6974 254.104 70.7796C254.104 63.8618 255.754 58.5256 259.064 53.9858C262.375 49.4461 267.063 47.1819 273.128 47.1819C275.369 47.1819 277.326 47.5232 278.987 48.2059C281.832 49.3892 284.13 51.551 285.871 54.7026V48.2514H297.226V90.7592C297.226 96.5391 296.259 100.897 294.313 103.832C290.979 108.873 284.585 111.399 275.13 111.399C269.418 111.399 264.753 110.272 261.147 108.031C257.54 105.778 255.549 102.422 255.162 97.9614H267.871C268.201 99.3267 268.736 100.317 269.475 100.92ZM267.518 77.777C269.1 81.5545 271.944 83.4546 276.04 83.4546C278.771 83.4546 281.081 82.4192 282.969 80.3484C284.858 78.2776 285.803 74.978 285.803 70.461C285.803 66.2171 284.904 62.9744 283.117 60.7557C281.331 58.537 278.93 57.422 275.927 57.422C271.83 57.422 268.997 59.3562 267.439 63.2133C266.619 65.2727 266.21 67.81 266.21 70.8137C266.21 73.4193 266.642 75.729 267.518 77.7656V77.777Z" stroke="#707070" stroke-width="2" mask="url(#path-1-outside-1_2002_66)"/>
<path d="M302.517 64.0442H326.046V75.149H302.517V64.0442Z" stroke="#707070" stroke-width="2" mask="url(#path-1-outside-1_2002_66)"/>
<path d="M370.146 79.9158C369.851 82.5782 368.462 85.2748 366.005 88.0168C362.182 92.3746 356.823 94.5591 349.939 94.5591C344.25 94.5591 339.244 92.7273 334.898 89.0522C330.551 85.3772 328.378 79.4038 328.378 71.132C328.378 63.3723 330.335 57.4331 334.261 53.2915C338.186 49.15 343.272 47.0792 349.53 47.0792C353.25 47.0792 356.595 47.7732 359.576 49.1727C362.557 50.5722 365.015 52.7795 366.961 55.7947C368.713 58.4571 369.839 61.5405 370.363 65.0449C370.658 67.1043 370.784 70.0625 370.727 73.9196H340.143C340.302 78.4139 341.713 81.5656 344.364 83.3747C345.98 84.5011 347.914 85.0586 350.19 85.0586C352.59 85.0586 354.547 84.3759 356.049 82.9992C356.868 82.2596 357.597 81.2356 358.222 79.9158H370.158H370.146ZM358.586 66.1827C358.393 63.0879 357.46 60.7327 355.776 59.1284C354.092 57.5241 352.01 56.7276 349.518 56.7276C346.81 56.7276 344.717 57.581 343.226 59.2763C341.736 60.9716 340.803 63.2813 340.416 66.1827H358.586Z" stroke="#707070" stroke-width="2" mask="url(#path-1-outside-1_2002_66)"/>
<path d="M417.16 32.5498V93.0688H405.805V86.8565C404.132 89.5189 402.244 91.4531 400.105 92.6478C397.977 93.8539 395.326 94.4569 392.151 94.4569C386.929 94.4569 382.537 92.3406 378.976 88.108C375.415 83.8755 373.628 78.4368 373.628 71.8035C373.628 64.1576 375.38 58.1387 378.896 53.7582C382.412 49.3777 387.1 47.1818 392.982 47.1818C395.69 47.1818 398.091 47.7734 400.196 48.9681C402.301 50.1628 404.007 51.8126 405.316 53.9175V32.5498H417.16ZM385.677 70.9502C385.677 75.0917 386.497 78.3913 388.135 80.8603C389.751 83.3521 392.208 84.6036 395.519 84.6036C398.83 84.6036 401.345 83.3748 403.063 80.9058C404.781 78.4368 405.646 75.251 405.646 71.3256C405.646 65.8415 404.269 61.9275 401.504 59.5723C399.809 58.1501 397.84 57.4332 395.599 57.4332C392.186 57.4332 389.671 58.7303 388.078 61.3131C386.485 63.8959 385.677 67.1158 385.677 70.9502Z" stroke="#707070" stroke-width="2" mask="url(#path-1-outside-1_2002_66)"/>
<path d="M438.312 100.92C439.563 101.989 441.691 102.524 444.661 102.524C448.87 102.524 451.681 101.113 453.103 98.2914C454.036 96.4823 454.502 93.4444 454.502 89.1663V86.2877C453.376 88.2106 452.181 89.6442 450.896 90.5999C448.575 92.3862 445.548 93.2737 441.839 93.2737C436.104 93.2737 431.519 91.2484 428.083 87.2093C424.647 83.1701 422.94 77.6974 422.94 70.7796C422.94 63.8619 424.59 58.5256 427.901 53.9859C431.212 49.4461 435.9 47.1819 441.964 47.1819C444.205 47.1819 446.162 47.5232 447.824 48.2059C450.668 49.3892 452.966 51.551 454.707 54.7027V48.2514H466.062V90.7592C466.062 96.5392 465.095 100.897 463.15 103.832C459.816 108.873 453.422 111.399 443.967 111.399C438.255 111.399 433.59 110.272 429.983 108.031C426.376 105.778 424.385 102.422 423.998 97.9614H436.707C437.037 99.3267 437.572 100.317 438.312 100.92ZM436.343 77.777C437.925 81.5545 440.769 83.4546 444.865 83.4546C447.596 83.4546 449.906 82.4192 451.794 80.3484C453.683 78.2777 454.628 74.9781 454.628 70.461C454.628 66.2171 453.729 62.9744 451.942 60.7557C450.156 58.537 447.755 57.422 444.752 57.422C440.656 57.422 437.822 59.3562 436.264 63.2133C435.444 65.2727 435.035 67.81 435.035 70.8138C435.035 73.4193 435.467 75.729 436.343 77.7656V77.777Z" stroke="#707070" stroke-width="2" mask="url(#path-1-outside-1_2002_66)"/>
<path d="M513.121 79.9158C512.825 82.5782 511.437 85.2748 508.98 88.0168C505.157 92.3746 499.798 94.5591 492.914 94.5591C487.225 94.5591 482.219 92.7273 477.873 89.0522C473.526 85.3772 471.353 79.4038 471.353 71.132C471.353 63.3723 473.31 57.4331 477.235 53.2915C481.161 49.15 486.247 47.0792 492.505 47.0792C496.225 47.0792 499.57 47.7732 502.551 49.1727C505.532 50.5722 507.99 52.7795 509.935 55.7947C511.688 58.4571 512.814 61.5405 513.337 65.0449C513.633 67.1043 513.758 70.0625 513.702 73.9196H483.118C483.277 78.4139 484.688 81.5656 487.339 83.3747C488.955 84.5011 490.889 85.0586 493.164 85.0586C495.565 85.0586 497.522 84.3759 499.024 82.9992C499.843 82.2596 500.571 81.2356 501.197 79.9158H513.133H513.121ZM501.561 66.1827C501.368 63.0879 500.435 60.7327 498.751 59.1284C497.067 57.5241 494.985 56.7276 492.493 56.7276C489.785 56.7276 487.692 57.581 486.201 59.2763C484.711 60.9716 483.778 63.2813 483.391 66.1827H501.561Z" stroke="#707070" stroke-width="2" mask="url(#path-1-outside-1_2002_66)"/>
<path d="M581.811 7.23511V22.8009H555.557V95.1498H537.101V22.8009H510.731V7.23511H581.811Z" stroke="#707070" stroke-width="2" mask="url(#path-1-outside-1_2002_66)"/>
<path d="M606.765 82.7275C606.469 85.3899 605.081 88.0865 602.624 90.8285C598.801 95.1863 593.442 97.3708 586.558 97.3708C580.869 97.3708 575.863 95.539 571.516 91.8639C567.17 88.1889 564.997 82.2155 564.997 73.9437C564.997 66.184 566.954 60.2448 570.879 56.1032C574.805 51.9617 579.891 49.8909 586.148 49.8909C589.869 49.8909 593.214 50.5849 596.195 51.9844C599.176 53.3839 601.634 55.5912 603.579 58.6064C605.331 61.2688 606.458 64.3522 606.981 67.8566C607.277 69.916 607.402 72.8742 607.345 76.7313H576.762C576.921 81.2256 578.332 84.3773 580.983 86.1864C582.598 87.3128 584.533 87.8703 586.808 87.8703C589.209 87.8703 591.166 87.1876 592.668 85.8109C593.487 85.0713 594.215 84.0473 594.841 82.7275H606.776H606.765ZM595.205 69.0057C595.012 65.911 594.079 63.5557 592.395 61.9515C590.711 60.3472 588.629 59.5507 586.137 59.5507C583.429 59.5507 581.336 60.4041 579.845 62.0994C578.355 63.7947 577.422 66.1044 577.035 69.0057H595.205Z" stroke="#707070" stroke-width="2" mask="url(#path-1-outside-1_2002_66)"/>
<path d="M639.807 67.1512C639.591 65.4786 639.034 63.9767 638.123 62.6341C636.815 60.825 634.778 59.9262 632.013 59.9262C628.077 59.9262 625.38 61.8832 623.935 65.8086C623.173 67.8907 622.786 70.6555 622.786 74.1144C622.786 77.5733 623.173 80.0537 623.935 82.0448C625.323 85.7768 627.951 87.6314 631.809 87.6314C634.539 87.6314 636.485 86.8918 637.634 85.4127C638.783 83.9335 639.477 82.0107 639.728 79.6555H651.663C651.39 83.2167 650.104 86.5846 647.806 89.7704C644.142 94.8904 638.715 97.4618 631.536 97.4618C624.356 97.4618 619.054 95.3228 615.675 91.0447C612.284 86.7666 610.589 81.2142 610.589 74.3989C610.589 66.696 612.455 60.7113 616.21 56.4332C619.964 52.1551 625.118 50.016 631.706 50.016C637.304 50.016 641.889 51.279 645.462 53.7935C649.023 56.3194 651.14 60.7682 651.8 67.1512H639.807Z" stroke="#707070" stroke-width="2" mask="url(#path-1-outside-1_2002_66)"/>
<path d="M698.096 69.5746V95.8803H686.172V68.6189C686.172 66.2067 685.763 64.2611 684.943 62.782C683.874 60.6998 681.86 59.6531 678.879 59.6531C675.898 59.6531 673.452 60.6885 671.847 62.7592C670.243 64.83 669.447 67.7769 669.447 71.6226V95.8803H657.807V35.4864H669.447V56.911C671.142 54.3055 673.099 52.4964 675.329 51.461C677.559 50.437 679.903 49.925 682.361 49.925C685.125 49.925 687.629 50.4029 689.881 51.3586C692.134 52.3143 693.989 53.7821 695.434 55.7618C696.663 57.4344 697.413 59.1525 697.687 60.916C697.96 62.6796 698.096 65.5696 698.096 69.5746Z" stroke="#707070" stroke-width="2" mask="url(#path-1-outside-1_2002_66)"/>
<path d="M727.929 59.7557C723.969 59.7557 721.25 61.4396 719.771 64.8075C719.008 66.5938 718.621 68.8694 718.621 71.6342V95.8919H706.982V51.1654H718.257V57.7077C719.759 55.4093 721.181 53.7482 722.524 52.7355C724.925 50.9265 727.974 50.0276 731.672 50.0276C736.291 50.0276 740.069 51.245 743.004 53.6685C745.94 56.092 747.407 60.1198 747.407 65.7291V95.9032H735.438V68.6418C735.438 66.2866 735.119 64.4775 734.494 63.2146C733.344 60.9162 731.16 59.7557 727.94 59.7557H727.929Z" stroke="#707070" stroke-width="2" mask="url(#path-1-outside-1_2002_66)"/>
<path d="M793.352 56.7517C797.129 61.4963 799.006 67.0942 799.006 73.5683C799.006 80.0423 797.118 85.7767 793.352 90.4417C789.585 95.118 783.851 97.4505 776.171 97.4505C768.491 97.4505 762.768 95.118 758.99 90.4417C755.213 85.7654 753.335 80.1447 753.335 73.5683C753.335 66.9918 755.224 61.4963 758.99 56.7517C762.756 52.0072 768.491 49.6406 776.171 49.6406C783.851 49.6406 789.574 52.0072 793.352 56.7517ZM776.137 59.5507C772.723 59.5507 770.095 60.7681 768.241 63.1916C766.397 65.6151 765.476 69.074 765.476 73.5683C765.476 78.0625 766.397 81.5328 768.241 83.9677C770.084 86.4025 772.712 87.6313 776.137 87.6313C779.562 87.6313 782.178 86.4139 784.01 83.9677C785.842 81.5328 786.752 78.0625 786.752 73.5683C786.752 69.074 785.842 65.6151 784.01 63.1916C782.178 60.7681 779.55 59.5507 776.137 59.5507Z" stroke="#707070" stroke-width="2" mask="url(#path-1-outside-1_2002_66)"/>
<path d="M805.514 35.2928H817.2V95.8915H805.514V35.2928Z" stroke="#707070" stroke-width="2" mask="url(#path-1-outside-1_2002_66)"/>
<path d="M863.769 56.7517C867.546 61.4963 869.424 67.0942 869.424 73.5683C869.424 80.0423 867.535 85.7767 863.769 90.4417C860.003 95.118 854.268 97.4505 846.588 97.4505C838.908 97.4505 833.185 95.118 829.408 90.4417C825.63 85.7654 823.753 80.1447 823.753 73.5683C823.753 66.9918 825.642 61.4963 829.408 56.7517C833.174 52.0072 838.908 49.6406 846.588 49.6406C854.268 49.6406 859.991 52.0072 863.769 56.7517ZM846.543 59.5507C843.129 59.5507 840.501 60.7681 838.647 63.1916C836.803 65.6151 835.882 69.074 835.882 73.5683C835.882 78.0625 836.803 81.5328 838.647 83.9677C840.49 86.4025 843.118 87.6313 846.543 87.6313C849.968 87.6313 852.584 86.4139 854.416 83.9677C856.248 81.5328 857.158 78.0625 857.158 73.5683C857.158 69.074 856.248 65.6151 854.416 63.1916C852.584 60.7681 849.956 59.5507 846.543 59.5507Z" stroke="#707070" stroke-width="2" mask="url(#path-1-outside-1_2002_66)"/>
<path d="M888.311 103.743C889.562 104.812 891.69 105.347 894.66 105.347C898.87 105.347 901.68 103.936 903.102 101.115C904.035 99.3055 904.502 96.2676 904.502 91.9895V89.1109C903.375 91.0338 902.181 92.4674 900.895 93.4232C898.574 95.2095 895.547 96.097 891.838 96.097C886.104 96.097 881.518 94.0717 878.082 90.0325C874.646 85.9934 872.939 80.5206 872.939 73.6029C872.939 66.6851 874.589 61.3489 877.9 56.8091C881.211 52.2693 885.899 50.0051 891.963 50.0051C894.205 50.0051 896.162 50.3465 897.823 51.0291C900.667 52.2124 902.966 54.3742 904.706 57.5259V51.0746H916.062V93.5825C916.062 99.3624 915.094 103.72 913.149 106.656C909.815 111.696 903.421 114.222 893.966 114.222C888.254 114.222 883.589 113.096 879.982 110.854C876.376 108.601 874.384 105.245 873.997 100.785H886.707C887.037 102.15 887.571 103.14 888.311 103.743ZM886.343 80.6003C887.924 84.3777 890.769 86.2778 894.865 86.2778C897.595 86.2778 899.905 85.2425 901.794 83.1717C903.682 81.1009 904.627 77.8013 904.627 73.2843C904.627 69.0403 903.728 65.7976 901.942 63.579C900.155 61.3603 897.755 60.2452 894.751 60.2452C890.655 60.2452 887.822 62.1795 886.263 66.0366C885.444 68.096 885.034 70.6332 885.034 73.637C885.034 76.2425 885.466 78.5523 886.343 80.5889V80.6003Z" stroke="#707070" stroke-width="2" mask="url(#path-1-outside-1_2002_66)"/>
<path d="M943.039 84.1269L952.266 51.0741H964.691L949.353 95.1407C946.407 103.64 944.063 108.908 942.345 110.945C940.627 112.981 937.179 114.005 932.014 114.005C930.978 114.005 930.136 114.005 929.51 113.982C928.885 113.971 927.94 113.926 926.677 113.835V104.459L928.156 104.539C929.306 104.596 930.398 104.55 931.433 104.414C932.469 104.277 933.345 103.959 934.062 103.469C934.744 103.003 935.381 102.036 935.962 100.545C936.542 99.0546 936.792 98.1558 936.678 97.8372L920.283 51.0513H933.276L943.039 84.1041V84.1269Z" stroke="#707070" stroke-width="2" mask="url(#path-1-outside-1_2002_66)"/>
</svg>
