<svg width="287" height="81" viewBox="0 0 287 81" fill="none" xmlns="http://www.w3.org/2000/svg">
<mask id="path-1-outside-1_2002_78" maskUnits="userSpaceOnUse" x="0" y="0.846802" width="287" height="81" fill="black">
<rect fill="white" y="0.846802" width="287" height="81"/>
<path d="M29.3288 8.95759H9.29924V18.2639H26.8383V25.2911H9.29924V42.2552H1V1.8468H29.3288V8.95759Z"/>
<path d="M55.9904 17.7869C58.3423 20.7786 59.5219 24.3084 59.5219 28.3905C59.5219 32.4727 58.3423 36.0886 55.9904 39.03C53.6384 41.9787 50.0572 43.4494 45.2609 43.4494C40.4647 43.4494 36.8905 41.9787 34.5315 39.03C32.1795 36.0814 31 32.5373 31 28.3905C31 24.2438 32.1795 20.7786 34.5315 17.7869C36.8834 14.7952 40.4647 13.303 45.2609 13.303C50.0572 13.303 53.6313 14.7952 55.9904 17.7869ZM45.2325 19.5518C43.1008 19.5518 41.4594 20.3194 40.3012 21.8476C39.1501 23.3757 38.5746 25.5567 38.5746 28.3905C38.5746 31.2244 39.1501 33.4125 40.3012 34.9478C41.4523 36.4831 43.0937 37.258 45.2325 37.258C47.3713 37.258 49.0056 36.4903 50.1496 34.9478C51.2936 33.4125 51.862 31.2244 51.862 28.3905C51.862 25.5567 51.2936 23.3757 50.1496 21.8476C49.0056 20.3194 47.3642 19.5518 45.2325 19.5518Z"/>
<path d="M80.0997 24.3443C79.9647 23.2897 79.6165 22.3427 79.048 21.4961C78.2309 20.3554 76.959 19.7886 75.2323 19.7886C72.7738 19.7886 71.0898 21.0226 70.1874 23.4977C69.7113 24.8106 69.4697 26.554 69.4697 28.735C69.4697 30.9159 69.7113 32.4799 70.1874 33.7354C71.0614 36.0886 72.6956 37.258 75.1044 37.258C76.8098 37.258 78.0248 36.7917 78.7425 35.859C79.4602 34.9264 79.8936 33.7139 80.0499 32.2288H87.5037C87.3332 34.4744 86.5302 36.598 85.0949 38.6068C82.8069 41.8352 79.4175 43.4566 74.9339 43.4566C70.4503 43.4566 67.1391 42.1079 65.0287 39.4103C62.9183 36.7128 61.8525 33.2117 61.8525 28.9143C61.8525 24.0573 63.0249 20.2836 65.3627 17.5861C67.7004 14.8886 70.9264 13.5398 75.0405 13.5398C78.5365 13.5398 81.4 14.3361 83.6312 15.9217C85.8552 17.5144 87.1769 20.3195 87.589 24.3443H80.0997Z"/>
<path d="M109.183 38.4777C109.112 38.5638 108.941 38.8221 108.671 39.2525C108.401 39.683 108.074 40.0632 107.698 40.3932C106.554 41.4335 105.445 42.1366 104.379 42.5168C103.314 42.8971 102.063 43.0836 100.628 43.0836C96.4994 43.0836 93.714 41.577 92.2787 38.571C91.4757 36.9137 91.0778 34.4673 91.0778 31.2317V14.2142H98.5529V31.246C98.5529 32.8531 98.7377 34.0655 99.1143 34.8762C99.7822 36.3111 101.083 37.0285 103.029 37.0285C105.523 37.0285 107.229 36.0098 108.153 33.9723C108.629 32.8674 108.87 31.4039 108.87 29.5888V14.2142H116.267V42.4666H109.176V38.4777H109.183Z"/>
<path d="M142.281 15.5055C144.462 16.926 145.72 19.3581 146.047 22.8161H138.749C138.65 21.8691 138.38 21.1158 137.953 20.5634C137.15 19.559 135.786 19.0568 133.861 19.0568C132.276 19.0568 131.139 19.3079 130.471 19.8101C129.796 20.3123 129.462 20.9006 129.462 21.575C129.462 22.4215 129.818 23.0385 130.535 23.4188C131.253 23.8133 133.79 24.5021 138.138 25.4634C141.037 26.1522 143.219 27.1996 144.668 28.5986C146.104 30.0191 146.821 31.784 146.821 33.9148C146.821 36.7127 145.791 39.0013 143.737 40.7734C141.684 42.5454 138.501 43.4279 134.202 43.4279C129.903 43.4279 126.577 42.4881 124.488 40.6156C122.399 38.7431 121.355 36.354 121.355 33.4484H128.752C128.908 34.7613 129.235 35.694 129.754 36.2464C130.656 37.2293 132.333 37.7243 134.77 37.7243C136.205 37.7243 137.342 37.5091 138.188 37.0786C139.033 36.6482 139.453 35.9953 139.453 35.1344C139.453 34.2735 139.112 33.6708 138.429 33.2404C137.747 32.8099 135.211 32.0638 130.826 31.0092C127.672 30.2128 125.44 29.2228 124.147 28.0247C122.847 26.8481 122.2 25.1549 122.2 22.9453C122.2 20.3338 123.209 18.0954 125.234 16.2158C127.259 14.3433 130.102 13.4034 133.775 13.4034C137.257 13.4034 140.099 14.1065 142.302 15.5055H142.281Z"/>
<path d="M181.269 17.7869C183.628 20.7786 184.8 24.3084 184.8 28.3905C184.8 32.4727 183.621 36.0886 181.269 39.03C178.917 41.9787 175.335 43.4494 170.539 43.4494C165.743 43.4494 162.169 41.9787 159.81 39.03C157.451 36.0814 156.278 32.5373 156.278 28.3905C156.278 24.2438 157.458 20.7786 159.81 17.7869C162.162 14.7952 165.743 13.303 170.539 13.303C175.335 13.303 178.91 14.7952 181.269 17.7869ZM170.518 19.5518C168.386 19.5518 166.745 20.3194 165.587 21.8476C164.435 23.3757 163.86 25.5567 163.86 28.3905C163.86 31.2244 164.435 33.4125 165.587 34.9478C166.738 36.4831 168.379 37.258 170.518 37.258C172.657 37.258 174.291 36.4903 175.435 34.9478C176.579 33.4125 177.147 31.2244 177.147 28.3905C177.147 25.5567 176.579 23.3757 175.435 21.8476C174.291 20.3194 172.649 19.5518 170.518 19.5518Z"/>
<path d="M200.802 19.681C198.329 19.681 196.631 20.7428 195.707 22.8664C195.231 23.9928 194.99 25.4276 194.99 27.171V42.4666H187.721V14.2644H194.762V18.3896C195.7 16.9404 196.588 15.893 197.427 15.2545C198.926 14.1138 200.83 13.547 203.14 13.547C206.025 13.547 208.384 14.3146 210.217 15.8428C212.05 17.3709 212.967 19.9106 212.967 23.4475V42.4738H205.492V25.2841C205.492 23.7991 205.293 22.6583 204.902 21.862C204.184 20.4128 202.82 19.681 200.809 19.681H200.802Z"/>
<path d="M138.532 57.5823C135.598 57.5823 133.622 58.5509 132.62 60.4879C132.059 61.5784 131.775 63.25 131.775 65.5171V79.0263H124.428V50.7668H131.391V55.6955C132.521 53.8087 133.502 52.5245 134.333 51.8357C135.697 50.6807 137.474 50.0995 139.655 50.0995C139.79 50.0995 139.904 50.0995 140.003 50.1139C140.096 50.1211 140.309 50.1354 140.628 50.1498V57.7187C140.167 57.6684 139.762 57.6326 139.399 57.6182C139.044 57.6039 138.753 57.5895 138.532 57.5895V57.5823Z"/>
<path d="M168.368 70.7257C168.183 72.4045 167.316 74.1048 165.781 75.8338C163.394 78.5816 160.047 79.9591 155.748 79.9591C152.195 79.9591 149.069 78.804 146.355 76.4867C143.64 74.1694 142.283 70.4029 142.283 65.1872C142.283 60.2943 143.505 56.5493 145.957 53.9379C148.408 51.3264 151.584 50.0207 155.492 50.0207C157.816 50.0207 159.905 50.4583 161.767 51.3408C163.628 52.2232 165.163 53.615 166.378 55.5162C167.472 57.195 168.176 59.1392 168.503 61.3489C168.688 62.6475 168.766 64.5128 168.73 66.9449H149.63C149.73 69.7787 150.611 71.766 152.267 72.9067C153.276 73.617 154.483 73.9685 155.905 73.9685C157.404 73.9685 158.626 73.5381 159.564 72.67C160.076 72.2036 160.53 71.558 160.921 70.7257H168.375H168.368ZM161.149 62.0664C161.028 60.115 160.445 58.6299 159.393 57.6183C158.342 56.6067 157.041 56.1045 155.485 56.1045C153.794 56.1045 152.487 56.6426 151.556 57.7116C150.625 58.7805 150.042 60.2369 149.801 62.0664H161.149Z"/>
<path d="M192.605 52.0584C194.786 53.4789 196.044 55.911 196.371 59.369H189.074C188.974 58.422 188.704 57.6687 188.278 57.1162C187.475 56.1118 186.11 55.6096 184.185 55.6096C182.6 55.6096 181.463 55.8607 180.796 56.3629C180.12 56.8651 179.786 57.4534 179.786 58.1278C179.786 58.9744 180.142 59.5914 180.859 59.9716C181.577 60.3662 184.114 61.0549 188.462 62.0163C191.362 62.705 193.543 63.7525 194.992 65.1515C196.428 66.572 197.145 68.3369 197.145 70.4676C197.145 73.2656 196.115 75.5542 194.062 77.3262C192.008 79.0983 188.825 79.9807 184.526 79.9807C180.227 79.9807 176.902 79.0409 174.813 77.1684C172.724 75.2959 171.679 72.9069 171.679 70.0013H179.076C179.232 71.3142 179.559 72.2468 180.078 72.7993C180.98 73.7821 182.657 74.2772 185.094 74.2772C186.53 74.2772 187.667 74.0619 188.512 73.6315C189.358 73.201 189.777 72.5482 189.777 71.6872C189.777 70.8263 189.436 70.2237 188.754 69.7932C188.072 69.3628 185.535 68.6166 181.151 67.562C177.996 66.7657 175.765 65.7756 174.472 64.5775C173.171 63.4009 172.525 61.7078 172.525 59.4981C172.525 56.8867 173.534 54.6483 175.559 52.7686C177.584 50.8961 180.426 49.9563 184.1 49.9563C187.581 49.9563 190.424 50.6594 192.626 52.0584H192.605Z"/>
<path d="M217.907 75.0305C217.836 75.1166 217.666 75.3748 217.395 75.8053C217.125 76.2357 216.799 76.616 216.422 76.946C215.278 77.9863 214.17 78.6894 213.104 79.0696C212.038 79.4498 210.787 79.6364 209.352 79.6364C205.224 79.6364 202.438 78.1298 201.003 75.1237C200.2 73.4665 199.802 71.02 199.802 67.7844V50.767H207.277V67.7988C207.277 69.4058 207.462 70.6183 207.838 71.429C208.506 72.8638 209.807 73.5813 211.754 73.5813C214.248 73.5813 215.953 72.5625 216.877 70.525C217.353 69.4202 217.594 67.9566 217.594 66.1415V50.767H224.991V79.0194H217.9V75.0305H217.907Z"/>
<path d="M229.837 46.5541H236.878V80H229.837V46.5541Z"/>
<path d="M256.76 73.7534V79.2776L253.307 79.4067C249.861 79.5287 247.502 78.926 246.244 77.5916C245.427 76.7451 245.015 75.4393 245.015 73.6745V56.2768H241.121V51.018H245.015V43.1406H252.234V51.018H256.768V56.2768H252.234V71.2065C252.234 72.3616 252.376 73.0862 252.668 73.3731C252.959 73.6601 253.847 73.8036 255.332 73.8036C255.553 73.8036 255.787 73.8036 256.036 73.7892C256.284 73.7821 256.526 73.7677 256.768 73.7534H256.76Z"/>
<path d="M281.46 52.0584C283.641 53.4789 284.899 55.911 285.226 59.369H277.928C277.829 58.422 277.559 57.6687 277.132 57.1162C276.329 56.1118 274.965 55.6096 273.039 55.6096C271.455 55.6096 270.318 55.8607 269.65 56.3629C268.975 56.8651 268.641 57.4534 268.641 58.1278C268.641 58.9744 268.996 59.5914 269.714 59.9716C270.432 60.3662 272.968 61.0549 277.317 62.0163C280.216 62.705 282.398 63.7525 283.847 65.1515C285.282 66.572 286 68.3369 286 70.4676C286 73.2656 284.97 75.5542 282.916 77.3262C280.863 79.0983 277.679 79.9807 273.381 79.9807C269.082 79.9807 265.756 79.0409 263.667 77.1684C261.578 75.2959 260.534 72.9069 260.534 70.0013H267.93C268.087 71.3142 268.414 72.2468 268.932 72.7993C269.835 73.7821 271.512 74.2772 273.949 74.2772C275.384 74.2772 276.521 74.0619 277.367 73.6315C278.212 73.201 278.632 72.5482 278.632 71.6872C278.632 70.8263 278.29 70.2237 277.608 69.7932C276.926 69.3628 274.39 68.6166 270.005 67.562C266.85 66.7657 264.619 65.7756 263.326 64.5775C262.026 63.4009 261.379 61.7078 261.379 59.4981C261.379 56.8867 262.388 54.6483 264.413 52.7686C266.438 50.8961 269.281 49.9563 272.954 49.9563C276.436 49.9563 279.278 50.6594 281.481 52.0584H281.46Z"/>
</mask>
<path d="M29.3288 8.95759H9.29924V18.2639H26.8383V25.2911H9.29924V42.2552H1V1.8468H29.3288V8.95759Z" fill="white"/>
<path d="M55.9904 17.7869C58.3423 20.7786 59.5219 24.3084 59.5219 28.3905C59.5219 32.4727 58.3423 36.0886 55.9904 39.03C53.6384 41.9787 50.0572 43.4494 45.2609 43.4494C40.4647 43.4494 36.8905 41.9787 34.5315 39.03C32.1795 36.0814 31 32.5373 31 28.3905C31 24.2438 32.1795 20.7786 34.5315 17.7869C36.8834 14.7952 40.4647 13.303 45.2609 13.303C50.0572 13.303 53.6313 14.7952 55.9904 17.7869ZM45.2325 19.5518C43.1008 19.5518 41.4594 20.3194 40.3012 21.8476C39.1501 23.3757 38.5746 25.5567 38.5746 28.3905C38.5746 31.2244 39.1501 33.4125 40.3012 34.9478C41.4523 36.4831 43.0937 37.258 45.2325 37.258C47.3713 37.258 49.0056 36.4903 50.1496 34.9478C51.2936 33.4125 51.862 31.2244 51.862 28.3905C51.862 25.5567 51.2936 23.3757 50.1496 21.8476C49.0056 20.3194 47.3642 19.5518 45.2325 19.5518Z" fill="white"/>
<path d="M80.0997 24.3443C79.9647 23.2897 79.6165 22.3427 79.048 21.4961C78.2309 20.3554 76.959 19.7886 75.2323 19.7886C72.7738 19.7886 71.0898 21.0226 70.1874 23.4977C69.7113 24.8106 69.4697 26.554 69.4697 28.735C69.4697 30.9159 69.7113 32.4799 70.1874 33.7354C71.0614 36.0886 72.6956 37.258 75.1044 37.258C76.8098 37.258 78.0248 36.7917 78.7425 35.859C79.4602 34.9264 79.8936 33.7139 80.0499 32.2288H87.5037C87.3332 34.4744 86.5302 36.598 85.0949 38.6068C82.8069 41.8352 79.4175 43.4566 74.9339 43.4566C70.4503 43.4566 67.1391 42.1079 65.0287 39.4103C62.9183 36.7128 61.8525 33.2117 61.8525 28.9143C61.8525 24.0573 63.0249 20.2836 65.3627 17.5861C67.7004 14.8886 70.9264 13.5398 75.0405 13.5398C78.5365 13.5398 81.4 14.3361 83.6312 15.9217C85.8552 17.5144 87.1769 20.3195 87.589 24.3443H80.0997Z" fill="white"/>
<path d="M109.183 38.4777C109.112 38.5638 108.941 38.8221 108.671 39.2525C108.401 39.683 108.074 40.0632 107.698 40.3932C106.554 41.4335 105.445 42.1366 104.379 42.5168C103.314 42.8971 102.063 43.0836 100.628 43.0836C96.4994 43.0836 93.714 41.577 92.2787 38.571C91.4757 36.9137 91.0778 34.4673 91.0778 31.2317V14.2142H98.5529V31.246C98.5529 32.8531 98.7377 34.0655 99.1143 34.8762C99.7822 36.3111 101.083 37.0285 103.029 37.0285C105.523 37.0285 107.229 36.0098 108.153 33.9723C108.629 32.8674 108.87 31.4039 108.87 29.5888V14.2142H116.267V42.4666H109.176V38.4777H109.183Z" fill="white"/>
<path d="M142.281 15.5055C144.462 16.926 145.72 19.3581 146.047 22.8161H138.749C138.65 21.8691 138.38 21.1158 137.953 20.5634C137.15 19.559 135.786 19.0568 133.861 19.0568C132.276 19.0568 131.139 19.3079 130.471 19.8101C129.796 20.3123 129.462 20.9006 129.462 21.575C129.462 22.4215 129.818 23.0385 130.535 23.4188C131.253 23.8133 133.79 24.5021 138.138 25.4634C141.037 26.1522 143.219 27.1996 144.668 28.5986C146.104 30.0191 146.821 31.784 146.821 33.9148C146.821 36.7127 145.791 39.0013 143.737 40.7734C141.684 42.5454 138.501 43.4279 134.202 43.4279C129.903 43.4279 126.577 42.4881 124.488 40.6156C122.399 38.7431 121.355 36.354 121.355 33.4484H128.752C128.908 34.7613 129.235 35.694 129.754 36.2464C130.656 37.2293 132.333 37.7243 134.77 37.7243C136.205 37.7243 137.342 37.5091 138.188 37.0786C139.033 36.6482 139.453 35.9953 139.453 35.1344C139.453 34.2735 139.112 33.6708 138.429 33.2404C137.747 32.8099 135.211 32.0638 130.826 31.0092C127.672 30.2128 125.44 29.2228 124.147 28.0247C122.847 26.8481 122.2 25.1549 122.2 22.9453C122.2 20.3338 123.209 18.0954 125.234 16.2158C127.259 14.3433 130.102 13.4034 133.775 13.4034C137.257 13.4034 140.099 14.1065 142.302 15.5055H142.281Z" fill="white"/>
<path d="M181.269 17.7869C183.628 20.7786 184.8 24.3084 184.8 28.3905C184.8 32.4727 183.621 36.0886 181.269 39.03C178.917 41.9787 175.335 43.4494 170.539 43.4494C165.743 43.4494 162.169 41.9787 159.81 39.03C157.451 36.0814 156.278 32.5373 156.278 28.3905C156.278 24.2438 157.458 20.7786 159.81 17.7869C162.162 14.7952 165.743 13.303 170.539 13.303C175.335 13.303 178.91 14.7952 181.269 17.7869ZM170.518 19.5518C168.386 19.5518 166.745 20.3194 165.587 21.8476C164.435 23.3757 163.86 25.5567 163.86 28.3905C163.86 31.2244 164.435 33.4125 165.587 34.9478C166.738 36.4831 168.379 37.258 170.518 37.258C172.657 37.258 174.291 36.4903 175.435 34.9478C176.579 33.4125 177.147 31.2244 177.147 28.3905C177.147 25.5567 176.579 23.3757 175.435 21.8476C174.291 20.3194 172.649 19.5518 170.518 19.5518Z" fill="white"/>
<path d="M200.802 19.681C198.329 19.681 196.631 20.7428 195.707 22.8664C195.231 23.9928 194.99 25.4276 194.99 27.171V42.4666H187.721V14.2644H194.762V18.3896C195.7 16.9404 196.588 15.893 197.427 15.2545C198.926 14.1138 200.83 13.547 203.14 13.547C206.025 13.547 208.384 14.3146 210.217 15.8428C212.05 17.3709 212.967 19.9106 212.967 23.4475V42.4738H205.492V25.2841C205.492 23.7991 205.293 22.6583 204.902 21.862C204.184 20.4128 202.82 19.681 200.809 19.681H200.802Z" fill="white"/>
<path d="M138.532 57.5823C135.598 57.5823 133.622 58.5509 132.62 60.4879C132.059 61.5784 131.775 63.25 131.775 65.5171V79.0263H124.428V50.7668H131.391V55.6955C132.521 53.8087 133.502 52.5245 134.333 51.8357C135.697 50.6807 137.474 50.0995 139.655 50.0995C139.79 50.0995 139.904 50.0995 140.003 50.1139C140.096 50.1211 140.309 50.1354 140.628 50.1498V57.7187C140.167 57.6684 139.762 57.6326 139.399 57.6182C139.044 57.6039 138.753 57.5895 138.532 57.5895V57.5823Z" fill="white"/>
<path d="M168.368 70.7257C168.183 72.4045 167.316 74.1048 165.781 75.8338C163.394 78.5816 160.047 79.9591 155.748 79.9591C152.195 79.9591 149.069 78.804 146.355 76.4867C143.64 74.1694 142.283 70.4029 142.283 65.1872C142.283 60.2943 143.505 56.5493 145.957 53.9379C148.408 51.3264 151.584 50.0207 155.492 50.0207C157.816 50.0207 159.905 50.4583 161.767 51.3408C163.628 52.2232 165.163 53.615 166.378 55.5162C167.472 57.195 168.176 59.1392 168.503 61.3489C168.688 62.6475 168.766 64.5128 168.73 66.9449H149.63C149.73 69.7787 150.611 71.766 152.267 72.9067C153.276 73.617 154.483 73.9685 155.905 73.9685C157.404 73.9685 158.626 73.5381 159.564 72.67C160.076 72.2036 160.53 71.558 160.921 70.7257H168.375H168.368ZM161.149 62.0664C161.028 60.115 160.445 58.6299 159.393 57.6183C158.342 56.6067 157.041 56.1045 155.485 56.1045C153.794 56.1045 152.487 56.6426 151.556 57.7116C150.625 58.7805 150.042 60.2369 149.801 62.0664H161.149Z" fill="white"/>
<path d="M192.605 52.0584C194.786 53.4789 196.044 55.911 196.371 59.369H189.074C188.974 58.422 188.704 57.6687 188.278 57.1162C187.475 56.1118 186.11 55.6096 184.185 55.6096C182.6 55.6096 181.463 55.8607 180.796 56.3629C180.12 56.8651 179.786 57.4534 179.786 58.1278C179.786 58.9744 180.142 59.5914 180.859 59.9716C181.577 60.3662 184.114 61.0549 188.462 62.0163C191.362 62.705 193.543 63.7525 194.992 65.1515C196.428 66.572 197.145 68.3369 197.145 70.4676C197.145 73.2656 196.115 75.5542 194.062 77.3262C192.008 79.0983 188.825 79.9807 184.526 79.9807C180.227 79.9807 176.902 79.0409 174.813 77.1684C172.724 75.2959 171.679 72.9069 171.679 70.0013H179.076C179.232 71.3142 179.559 72.2468 180.078 72.7993C180.98 73.7821 182.657 74.2772 185.094 74.2772C186.53 74.2772 187.667 74.0619 188.512 73.6315C189.358 73.201 189.777 72.5482 189.777 71.6872C189.777 70.8263 189.436 70.2237 188.754 69.7932C188.072 69.3628 185.535 68.6166 181.151 67.562C177.996 66.7657 175.765 65.7756 174.472 64.5775C173.171 63.4009 172.525 61.7078 172.525 59.4981C172.525 56.8867 173.534 54.6483 175.559 52.7686C177.584 50.8961 180.426 49.9563 184.1 49.9563C187.581 49.9563 190.424 50.6594 192.626 52.0584H192.605Z" fill="white"/>
<path d="M217.907 75.0305C217.836 75.1166 217.666 75.3748 217.395 75.8053C217.125 76.2357 216.799 76.616 216.422 76.946C215.278 77.9863 214.17 78.6894 213.104 79.0696C212.038 79.4498 210.787 79.6364 209.352 79.6364C205.224 79.6364 202.438 78.1298 201.003 75.1237C200.2 73.4665 199.802 71.02 199.802 67.7844V50.767H207.277V67.7988C207.277 69.4058 207.462 70.6183 207.838 71.429C208.506 72.8638 209.807 73.5813 211.754 73.5813C214.248 73.5813 215.953 72.5625 216.877 70.525C217.353 69.4202 217.594 67.9566 217.594 66.1415V50.767H224.991V79.0194H217.9V75.0305H217.907Z" fill="white"/>
<path d="M229.837 46.5541H236.878V80H229.837V46.5541Z" fill="white"/>
<path d="M256.76 73.7534V79.2776L253.307 79.4067C249.861 79.5287 247.502 78.926 246.244 77.5916C245.427 76.7451 245.015 75.4393 245.015 73.6745V56.2768H241.121V51.018H245.015V43.1406H252.234V51.018H256.768V56.2768H252.234V71.2065C252.234 72.3616 252.376 73.0862 252.668 73.3731C252.959 73.6601 253.847 73.8036 255.332 73.8036C255.553 73.8036 255.787 73.8036 256.036 73.7892C256.284 73.7821 256.526 73.7677 256.768 73.7534H256.76Z" fill="white"/>
<path d="M281.46 52.0584C283.641 53.4789 284.899 55.911 285.226 59.369H277.928C277.829 58.422 277.559 57.6687 277.132 57.1162C276.329 56.1118 274.965 55.6096 273.039 55.6096C271.455 55.6096 270.318 55.8607 269.65 56.3629C268.975 56.8651 268.641 57.4534 268.641 58.1278C268.641 58.9744 268.996 59.5914 269.714 59.9716C270.432 60.3662 272.968 61.0549 277.317 62.0163C280.216 62.705 282.398 63.7525 283.847 65.1515C285.282 66.572 286 68.3369 286 70.4676C286 73.2656 284.97 75.5542 282.916 77.3262C280.863 79.0983 277.679 79.9807 273.381 79.9807C269.082 79.9807 265.756 79.0409 263.667 77.1684C261.578 75.2959 260.534 72.9069 260.534 70.0013H267.93C268.087 71.3142 268.414 72.2468 268.932 72.7993C269.835 73.7821 271.512 74.2772 273.949 74.2772C275.384 74.2772 276.521 74.0619 277.367 73.6315C278.212 73.201 278.632 72.5482 278.632 71.6872C278.632 70.8263 278.29 70.2237 277.608 69.7932C276.926 69.3628 274.39 68.6166 270.005 67.562C266.85 66.7657 264.619 65.7756 263.326 64.5775C262.026 63.4009 261.379 61.7078 261.379 59.4981C261.379 56.8867 262.388 54.6483 264.413 52.7686C266.438 50.8961 269.281 49.9563 272.954 49.9563C276.436 49.9563 279.278 50.6594 281.481 52.0584H281.46Z" fill="white"/>
<path d="M29.3288 8.95759H9.29924V18.2639H26.8383V25.2911H9.29924V42.2552H1V1.8468H29.3288V8.95759Z" stroke="#939393" stroke-width="1.88872" mask="url(#path-1-outside-1_2002_78)"/>
<path d="M55.9904 17.7869C58.3423 20.7786 59.5219 24.3084 59.5219 28.3905C59.5219 32.4727 58.3423 36.0886 55.9904 39.03C53.6384 41.9787 50.0572 43.4494 45.2609 43.4494C40.4647 43.4494 36.8905 41.9787 34.5315 39.03C32.1795 36.0814 31 32.5373 31 28.3905C31 24.2438 32.1795 20.7786 34.5315 17.7869C36.8834 14.7952 40.4647 13.303 45.2609 13.303C50.0572 13.303 53.6313 14.7952 55.9904 17.7869ZM45.2325 19.5518C43.1008 19.5518 41.4594 20.3194 40.3012 21.8476C39.1501 23.3757 38.5746 25.5567 38.5746 28.3905C38.5746 31.2244 39.1501 33.4125 40.3012 34.9478C41.4523 36.4831 43.0937 37.258 45.2325 37.258C47.3713 37.258 49.0056 36.4903 50.1496 34.9478C51.2936 33.4125 51.862 31.2244 51.862 28.3905C51.862 25.5567 51.2936 23.3757 50.1496 21.8476C49.0056 20.3194 47.3642 19.5518 45.2325 19.5518Z" stroke="#939393" stroke-width="1.88872" mask="url(#path-1-outside-1_2002_78)"/>
<path d="M80.0997 24.3443C79.9647 23.2897 79.6165 22.3427 79.048 21.4961C78.2309 20.3554 76.959 19.7886 75.2323 19.7886C72.7738 19.7886 71.0898 21.0226 70.1874 23.4977C69.7113 24.8106 69.4697 26.554 69.4697 28.735C69.4697 30.9159 69.7113 32.4799 70.1874 33.7354C71.0614 36.0886 72.6956 37.258 75.1044 37.258C76.8098 37.258 78.0248 36.7917 78.7425 35.859C79.4602 34.9264 79.8936 33.7139 80.0499 32.2288H87.5037C87.3332 34.4744 86.5302 36.598 85.0949 38.6068C82.8069 41.8352 79.4175 43.4566 74.9339 43.4566C70.4503 43.4566 67.1391 42.1079 65.0287 39.4103C62.9183 36.7128 61.8525 33.2117 61.8525 28.9143C61.8525 24.0573 63.0249 20.2836 65.3627 17.5861C67.7004 14.8886 70.9264 13.5398 75.0405 13.5398C78.5365 13.5398 81.4 14.3361 83.6312 15.9217C85.8552 17.5144 87.1769 20.3195 87.589 24.3443H80.0997Z" stroke="#939393" stroke-width="1.88872" mask="url(#path-1-outside-1_2002_78)"/>
<path d="M109.183 38.4777C109.112 38.5638 108.941 38.8221 108.671 39.2525C108.401 39.683 108.074 40.0632 107.698 40.3932C106.554 41.4335 105.445 42.1366 104.379 42.5168C103.314 42.8971 102.063 43.0836 100.628 43.0836C96.4994 43.0836 93.714 41.577 92.2787 38.571C91.4757 36.9137 91.0778 34.4673 91.0778 31.2317V14.2142H98.5529V31.246C98.5529 32.8531 98.7377 34.0655 99.1143 34.8762C99.7822 36.3111 101.083 37.0285 103.029 37.0285C105.523 37.0285 107.229 36.0098 108.153 33.9723C108.629 32.8674 108.87 31.4039 108.87 29.5888V14.2142H116.267V42.4666H109.176V38.4777H109.183Z" stroke="#939393" stroke-width="1.88872" mask="url(#path-1-outside-1_2002_78)"/>
<path d="M142.281 15.5055C144.462 16.926 145.72 19.3581 146.047 22.8161H138.749C138.65 21.8691 138.38 21.1158 137.953 20.5634C137.15 19.559 135.786 19.0568 133.861 19.0568C132.276 19.0568 131.139 19.3079 130.471 19.8101C129.796 20.3123 129.462 20.9006 129.462 21.575C129.462 22.4215 129.818 23.0385 130.535 23.4188C131.253 23.8133 133.79 24.5021 138.138 25.4634C141.037 26.1522 143.219 27.1996 144.668 28.5986C146.104 30.0191 146.821 31.784 146.821 33.9148C146.821 36.7127 145.791 39.0013 143.737 40.7734C141.684 42.5454 138.501 43.4279 134.202 43.4279C129.903 43.4279 126.577 42.4881 124.488 40.6156C122.399 38.7431 121.355 36.354 121.355 33.4484H128.752C128.908 34.7613 129.235 35.694 129.754 36.2464C130.656 37.2293 132.333 37.7243 134.77 37.7243C136.205 37.7243 137.342 37.5091 138.188 37.0786C139.033 36.6482 139.453 35.9953 139.453 35.1344C139.453 34.2735 139.112 33.6708 138.429 33.2404C137.747 32.8099 135.211 32.0638 130.826 31.0092C127.672 30.2128 125.44 29.2228 124.147 28.0247C122.847 26.8481 122.2 25.1549 122.2 22.9453C122.2 20.3338 123.209 18.0954 125.234 16.2158C127.259 14.3433 130.102 13.4034 133.775 13.4034C137.257 13.4034 140.099 14.1065 142.302 15.5055H142.281Z" stroke="#939393" stroke-width="1.88872" mask="url(#path-1-outside-1_2002_78)"/>
<path d="M181.269 17.7869C183.628 20.7786 184.8 24.3084 184.8 28.3905C184.8 32.4727 183.621 36.0886 181.269 39.03C178.917 41.9787 175.335 43.4494 170.539 43.4494C165.743 43.4494 162.169 41.9787 159.81 39.03C157.451 36.0814 156.278 32.5373 156.278 28.3905C156.278 24.2438 157.458 20.7786 159.81 17.7869C162.162 14.7952 165.743 13.303 170.539 13.303C175.335 13.303 178.91 14.7952 181.269 17.7869ZM170.518 19.5518C168.386 19.5518 166.745 20.3194 165.587 21.8476C164.435 23.3757 163.86 25.5567 163.86 28.3905C163.86 31.2244 164.435 33.4125 165.587 34.9478C166.738 36.4831 168.379 37.258 170.518 37.258C172.657 37.258 174.291 36.4903 175.435 34.9478C176.579 33.4125 177.147 31.2244 177.147 28.3905C177.147 25.5567 176.579 23.3757 175.435 21.8476C174.291 20.3194 172.649 19.5518 170.518 19.5518Z" stroke="#939393" stroke-width="1.88872" mask="url(#path-1-outside-1_2002_78)"/>
<path d="M200.802 19.681C198.329 19.681 196.631 20.7428 195.707 22.8664C195.231 23.9928 194.99 25.4276 194.99 27.171V42.4666H187.721V14.2644H194.762V18.3896C195.7 16.9404 196.588 15.893 197.427 15.2545C198.926 14.1138 200.83 13.547 203.14 13.547C206.025 13.547 208.384 14.3146 210.217 15.8428C212.05 17.3709 212.967 19.9106 212.967 23.4475V42.4738H205.492V25.2841C205.492 23.7991 205.293 22.6583 204.902 21.862C204.184 20.4128 202.82 19.681 200.809 19.681H200.802Z" stroke="#939393" stroke-width="1.88872" mask="url(#path-1-outside-1_2002_78)"/>
<path d="M138.532 57.5823C135.598 57.5823 133.622 58.5509 132.62 60.4879C132.059 61.5784 131.775 63.25 131.775 65.5171V79.0263H124.428V50.7668H131.391V55.6955C132.521 53.8087 133.502 52.5245 134.333 51.8357C135.697 50.6807 137.474 50.0995 139.655 50.0995C139.79 50.0995 139.904 50.0995 140.003 50.1139C140.096 50.1211 140.309 50.1354 140.628 50.1498V57.7187C140.167 57.6684 139.762 57.6326 139.399 57.6182C139.044 57.6039 138.753 57.5895 138.532 57.5895V57.5823Z" stroke="#939393" stroke-width="1.88872" mask="url(#path-1-outside-1_2002_78)"/>
<path d="M168.368 70.7257C168.183 72.4045 167.316 74.1048 165.781 75.8338C163.394 78.5816 160.047 79.9591 155.748 79.9591C152.195 79.9591 149.069 78.804 146.355 76.4867C143.64 74.1694 142.283 70.4029 142.283 65.1872C142.283 60.2943 143.505 56.5493 145.957 53.9379C148.408 51.3264 151.584 50.0207 155.492 50.0207C157.816 50.0207 159.905 50.4583 161.767 51.3408C163.628 52.2232 165.163 53.615 166.378 55.5162C167.472 57.195 168.176 59.1392 168.503 61.3489C168.688 62.6475 168.766 64.5128 168.73 66.9449H149.63C149.73 69.7787 150.611 71.766 152.267 72.9067C153.276 73.617 154.483 73.9685 155.905 73.9685C157.404 73.9685 158.626 73.5381 159.564 72.67C160.076 72.2036 160.53 71.558 160.921 70.7257H168.375H168.368ZM161.149 62.0664C161.028 60.115 160.445 58.6299 159.393 57.6183C158.342 56.6067 157.041 56.1045 155.485 56.1045C153.794 56.1045 152.487 56.6426 151.556 57.7116C150.625 58.7805 150.042 60.2369 149.801 62.0664H161.149Z" stroke="#939393" stroke-width="1.88872" mask="url(#path-1-outside-1_2002_78)"/>
<path d="M192.605 52.0584C194.786 53.4789 196.044 55.911 196.371 59.369H189.074C188.974 58.422 188.704 57.6687 188.278 57.1162C187.475 56.1118 186.11 55.6096 184.185 55.6096C182.6 55.6096 181.463 55.8607 180.796 56.3629C180.12 56.8651 179.786 57.4534 179.786 58.1278C179.786 58.9744 180.142 59.5914 180.859 59.9716C181.577 60.3662 184.114 61.0549 188.462 62.0163C191.362 62.705 193.543 63.7525 194.992 65.1515C196.428 66.572 197.145 68.3369 197.145 70.4676C197.145 73.2656 196.115 75.5542 194.062 77.3262C192.008 79.0983 188.825 79.9807 184.526 79.9807C180.227 79.9807 176.902 79.0409 174.813 77.1684C172.724 75.2959 171.679 72.9069 171.679 70.0013H179.076C179.232 71.3142 179.559 72.2468 180.078 72.7993C180.98 73.7821 182.657 74.2772 185.094 74.2772C186.53 74.2772 187.667 74.0619 188.512 73.6315C189.358 73.201 189.777 72.5482 189.777 71.6872C189.777 70.8263 189.436 70.2237 188.754 69.7932C188.072 69.3628 185.535 68.6166 181.151 67.562C177.996 66.7657 175.765 65.7756 174.472 64.5775C173.171 63.4009 172.525 61.7078 172.525 59.4981C172.525 56.8867 173.534 54.6483 175.559 52.7686C177.584 50.8961 180.426 49.9563 184.1 49.9563C187.581 49.9563 190.424 50.6594 192.626 52.0584H192.605Z" stroke="#939393" stroke-width="1.88872" mask="url(#path-1-outside-1_2002_78)"/>
<path d="M217.907 75.0305C217.836 75.1166 217.666 75.3748 217.395 75.8053C217.125 76.2357 216.799 76.616 216.422 76.946C215.278 77.9863 214.17 78.6894 213.104 79.0696C212.038 79.4498 210.787 79.6364 209.352 79.6364C205.224 79.6364 202.438 78.1298 201.003 75.1237C200.2 73.4665 199.802 71.02 199.802 67.7844V50.767H207.277V67.7988C207.277 69.4058 207.462 70.6183 207.838 71.429C208.506 72.8638 209.807 73.5813 211.754 73.5813C214.248 73.5813 215.953 72.5625 216.877 70.525C217.353 69.4202 217.594 67.9566 217.594 66.1415V50.767H224.991V79.0194H217.9V75.0305H217.907Z" stroke="#939393" stroke-width="1.88872" mask="url(#path-1-outside-1_2002_78)"/>
<path d="M229.837 46.5541H236.878V80H229.837V46.5541Z" stroke="#939393" stroke-width="1.88872" mask="url(#path-1-outside-1_2002_78)"/>
<path d="M256.76 73.7534V79.2776L253.307 79.4067C249.861 79.5287 247.502 78.926 246.244 77.5916C245.427 76.7451 245.015 75.4393 245.015 73.6745V56.2768H241.121V51.018H245.015V43.1406H252.234V51.018H256.768V56.2768H252.234V71.2065C252.234 72.3616 252.376 73.0862 252.668 73.3731C252.959 73.6601 253.847 73.8036 255.332 73.8036C255.553 73.8036 255.787 73.8036 256.036 73.7892C256.284 73.7821 256.526 73.7677 256.768 73.7534H256.76Z" stroke="#939393" stroke-width="1.88872" mask="url(#path-1-outside-1_2002_78)"/>
<path d="M281.46 52.0584C283.641 53.4789 284.899 55.911 285.226 59.369H277.928C277.829 58.422 277.559 57.6687 277.132 57.1162C276.329 56.1118 274.965 55.6096 273.039 55.6096C271.455 55.6096 270.318 55.8607 269.65 56.3629C268.975 56.8651 268.641 57.4534 268.641 58.1278C268.641 58.9744 268.996 59.5914 269.714 59.9716C270.432 60.3662 272.968 61.0549 277.317 62.0163C280.216 62.705 282.398 63.7525 283.847 65.1515C285.282 66.572 286 68.3369 286 70.4676C286 73.2656 284.97 75.5542 282.916 77.3262C280.863 79.0983 277.679 79.9807 273.381 79.9807C269.082 79.9807 265.756 79.0409 263.667 77.1684C261.578 75.2959 260.534 72.9069 260.534 70.0013H267.93C268.087 71.3142 268.414 72.2468 268.932 72.7993C269.835 73.7821 271.512 74.2772 273.949 74.2772C275.384 74.2772 276.521 74.0619 277.367 73.6315C278.212 73.201 278.632 72.5482 278.632 71.6872C278.632 70.8263 278.29 70.2237 277.608 69.7932C276.926 69.3628 274.39 68.6166 270.005 67.562C266.85 66.7657 264.619 65.7756 263.326 64.5775C262.026 63.4009 261.379 61.7078 261.379 59.4981C261.379 56.8867 262.388 54.6483 264.413 52.7686C266.438 50.8961 269.281 49.9563 272.954 49.9563C276.436 49.9563 279.278 50.6594 281.481 52.0584H281.46Z" stroke="#939393" stroke-width="1.88872" mask="url(#path-1-outside-1_2002_78)"/>
</svg>
