<svg width="592" height="98" viewBox="0 0 592 98" fill="none" xmlns="http://www.w3.org/2000/svg">
<mask id="path-1-outside-1_2001_55" maskUnits="userSpaceOnUse" x="0.265625" y="0" width="592" height="98" fill="black">
<rect fill="white" x="0.265625" width="592" height="98"/>
<path d="M1.26562 1.57397H20.4497V94.2071H1.26562V1.57397Z"/>
<path d="M66.5748 38.9508C60.5221 38.9508 56.3653 41.5249 54.1043 46.6731C52.9389 49.4038 52.3476 52.8823 52.3476 57.1087V94.1898H34.5549V25.8193H51.791V35.8201C54.0869 32.3068 56.2609 29.7675 58.3133 28.2195C61.9831 25.4541 66.6443 24.0801 72.2796 24.0801C79.341 24.0801 85.1153 25.9411 89.6026 29.6457C94.0899 33.3504 96.3336 39.5073 96.3336 48.0819V94.2072H78.0365V52.5344C78.0365 48.9342 77.5495 46.1687 76.5929 44.2381C74.8363 40.7248 71.4969 38.9508 66.5574 38.9508H66.5748Z"/>
<path d="M138.945 81.4409V94.8333L130.493 95.1464C122.057 95.442 116.283 93.981 113.204 90.746C111.204 88.6937 110.195 85.5282 110.195 81.2496V39.0725H100.664V26.3237H110.195V7.22656H127.866V26.3237H138.963V39.0725H127.866V75.2666C127.866 78.0668 128.214 79.8234 128.927 80.5191C129.64 81.2148 131.815 81.5627 135.45 81.5627C135.989 81.5627 136.563 81.5627 137.171 81.5279C137.78 81.5105 138.372 81.4757 138.963 81.4409H138.945Z"/>
<path d="M203.751 74.0837C203.299 78.1536 201.177 82.2756 197.42 86.4673C191.576 93.1286 183.384 96.468 172.862 96.468C164.165 96.468 156.513 93.6678 149.869 88.05C143.225 82.4322 139.903 73.301 139.903 60.6566C139.903 48.7948 142.894 39.7158 148.895 33.3849C154.895 27.054 162.67 23.8885 172.236 23.8885C177.923 23.8885 183.036 24.9495 187.593 27.0888C192.15 29.2281 195.907 32.6023 198.881 37.2113C201.559 41.2812 203.281 45.9946 204.081 51.3515C204.534 54.4996 204.725 59.0217 204.638 64.9178H157.887C158.13 71.7879 160.287 76.6056 164.339 79.3711C166.809 81.0929 169.766 81.9452 173.244 81.9452C176.914 81.9452 179.906 80.9016 182.201 78.7971C183.454 77.6666 184.567 76.1012 185.523 74.0837H203.768H203.751ZM186.08 53.0908C185.784 48.36 184.358 44.7597 181.784 42.3074C179.21 39.855 176.027 38.6375 172.236 38.6375C168.096 38.6375 164.896 39.942 162.617 42.5335C160.339 45.125 158.913 48.6557 158.321 53.0908H186.08Z"/>
<path d="M245.876 42.2206C238.693 42.2206 233.857 44.5686 231.405 49.2646C230.031 51.9083 229.335 55.9608 229.335 61.4568V94.2072H211.351V25.6976H228.396V37.6463C231.162 33.0721 233.562 29.9588 235.597 28.2891C238.936 25.4889 243.284 24.0801 248.624 24.0801C248.954 24.0801 249.232 24.0801 249.476 24.1149C249.702 24.1323 250.224 24.167 251.007 24.2018V42.5511C249.876 42.4293 248.885 42.3423 247.998 42.3076C247.128 42.2728 246.415 42.238 245.876 42.238V42.2206Z"/>
<path d="M258.92 33.1068C263.634 27.0715 271.739 24.0626 283.235 24.0626C290.714 24.0626 297.358 25.5584 303.167 28.5325C308.976 31.5067 311.881 37.1245 311.881 45.3686V76.7971C311.881 78.9712 311.916 81.6149 312.003 84.7107C312.124 87.0588 312.49 88.6415 313.064 89.4937C313.655 90.3286 314.525 91.0243 315.69 91.5634V94.2071H296.262C295.723 92.8331 295.341 91.5286 295.132 90.3112C294.923 89.0937 294.749 87.7197 294.627 86.1717C292.158 88.8502 289.323 91.1286 286.105 93.0244C282.261 95.2507 277.913 96.3638 273.061 96.3638C266.886 96.3638 261.773 94.5898 257.738 91.059C253.703 87.5283 251.685 82.5019 251.685 76.0144C251.685 67.5964 254.92 61.4916 261.39 57.7348C264.938 55.6824 270.156 54.2215 277.061 53.3344L283.148 52.5865C286.453 52.1691 288.801 51.6473 290.227 51.0212C292.766 49.9255 294.054 48.2384 294.054 45.9252C294.054 43.125 293.08 41.177 291.149 40.116C289.201 39.0551 286.349 38.5159 282.592 38.5159C278.365 38.5159 275.391 39.5595 273.635 41.664C272.382 43.2119 271.547 45.3164 271.13 47.9427H253.894C254.277 41.9596 255.946 37.0375 258.903 33.1764L258.92 33.1068ZM272.208 81.2496C273.878 82.6236 275.93 83.3193 278.348 83.3193C282.192 83.3193 285.74 82.1888 288.975 79.9278C292.21 77.6667 293.897 73.5447 294.019 67.5442V60.8828C292.888 61.5959 291.758 62.1699 290.61 62.6047C289.462 63.0395 287.879 63.4569 285.879 63.8222L281.861 64.5701C278.104 65.2484 275.409 66.0658 273.774 67.0224C271.026 68.6573 269.634 71.1967 269.634 74.623C269.634 77.6841 270.487 79.8756 272.208 81.2148V81.2496Z"/>
<path d="M360.824 50.2734C360.493 47.7167 359.641 45.4208 358.25 43.3685C356.25 40.6031 353.136 39.2291 348.91 39.2291C342.892 39.2291 338.77 42.2206 336.561 48.2211C335.396 51.4039 334.805 55.6303 334.805 60.9177C334.805 66.205 335.396 69.9966 336.561 73.0403C338.683 78.7451 342.701 81.5801 348.597 81.5801C352.771 81.5801 355.745 80.4496 357.502 78.1886C359.259 75.9275 360.32 72.9882 360.702 69.3879H378.947C378.53 74.8318 376.564 79.98 373.051 84.8499C367.451 92.6766 359.154 96.6074 348.18 96.6074C337.205 96.6074 329.1 93.3376 323.934 86.7979C318.751 80.2583 316.16 71.7707 316.16 61.3525C316.16 49.5777 319.012 40.4292 324.752 33.8895C330.491 27.3499 338.37 24.0801 348.44 24.0801C356.998 24.0801 364.007 26.0107 369.468 29.8544C374.912 33.7156 378.147 40.5161 379.156 50.2734H360.824Z"/>
<path d="M420.098 81.4409V94.8333L411.645 95.1464C403.21 95.442 397.435 93.981 394.357 90.746C392.357 88.6937 391.348 85.5282 391.348 81.2496V39.0725H381.817V26.3237H391.348V7.22656H409.019V26.3237H420.115V39.0725H409.019V75.2666C409.019 78.0668 409.367 79.8234 410.08 80.5191C410.793 81.2148 412.967 81.5627 416.602 81.5627C417.141 81.5627 417.715 81.5627 418.324 81.5279C418.933 81.5105 419.524 81.4757 420.115 81.4409H420.098Z"/>
<path d="M447.369 1V17.523H429.264V1H447.369ZM447.369 25.6975V94.1897H429.264V25.6975H447.369Z"/>
<path d="M455.388 25.6975H475.441L489.669 76.2231L504.209 25.6975H523.393L498.765 94.1897H479.911L455.405 25.6975H455.388Z"/>
<path d="M589.38 74.0837C588.928 78.1536 586.806 82.2756 583.049 86.4673C577.205 93.1286 569.013 96.468 558.491 96.468C549.794 96.468 542.141 93.6678 535.497 88.05C528.854 82.4322 525.531 73.301 525.531 60.6566C525.531 48.7948 528.523 39.7158 534.523 33.3849C540.524 27.054 548.298 23.8885 557.864 23.8885C563.552 23.8885 568.665 24.9495 573.222 27.0888C577.779 29.2281 581.536 32.6023 584.51 37.2113C587.188 41.2812 588.91 45.9946 589.71 51.3515C590.163 54.4996 590.354 59.0217 590.267 64.9178H543.516C543.759 71.7879 545.916 76.6056 549.968 79.3711C552.438 81.0929 555.395 81.9452 558.873 81.9452C562.543 81.9452 565.535 80.9016 567.83 78.7971C569.083 77.6666 570.196 76.1012 571.152 74.0837H589.397H589.38ZM571.709 53.0908C571.413 48.36 569.987 44.7597 567.413 42.3074C564.839 39.855 561.656 38.6375 557.847 38.6375C553.708 38.6375 550.507 39.942 548.229 42.5335C545.951 45.125 544.524 48.6557 543.933 53.0908H571.709Z"/>
</mask>
<path d="M1.26562 1.57397H20.4497V94.2071H1.26562V1.57397Z" fill="white"/>
<path d="M66.5748 38.9508C60.5221 38.9508 56.3653 41.5249 54.1043 46.6731C52.9389 49.4038 52.3476 52.8823 52.3476 57.1087V94.1898H34.5549V25.8193H51.791V35.8201C54.0869 32.3068 56.2609 29.7675 58.3133 28.2195C61.9831 25.4541 66.6443 24.0801 72.2796 24.0801C79.341 24.0801 85.1153 25.9411 89.6026 29.6457C94.0899 33.3504 96.3336 39.5073 96.3336 48.0819V94.2072H78.0365V52.5344C78.0365 48.9342 77.5495 46.1687 76.5929 44.2381C74.8363 40.7248 71.4969 38.9508 66.5574 38.9508H66.5748Z" fill="white"/>
<path d="M138.945 81.4409V94.8333L130.493 95.1464C122.057 95.442 116.283 93.981 113.204 90.746C111.204 88.6937 110.195 85.5282 110.195 81.2496V39.0725H100.664V26.3237H110.195V7.22656H127.866V26.3237H138.963V39.0725H127.866V75.2666C127.866 78.0668 128.214 79.8234 128.927 80.5191C129.64 81.2148 131.815 81.5627 135.45 81.5627C135.989 81.5627 136.563 81.5627 137.171 81.5279C137.78 81.5105 138.372 81.4757 138.963 81.4409H138.945Z" fill="white"/>
<path d="M203.751 74.0837C203.299 78.1536 201.177 82.2756 197.42 86.4673C191.576 93.1286 183.384 96.468 172.862 96.468C164.165 96.468 156.513 93.6678 149.869 88.05C143.225 82.4322 139.903 73.301 139.903 60.6566C139.903 48.7948 142.894 39.7158 148.895 33.3849C154.895 27.054 162.67 23.8885 172.236 23.8885C177.923 23.8885 183.036 24.9495 187.593 27.0888C192.15 29.2281 195.907 32.6023 198.881 37.2113C201.559 41.2812 203.281 45.9946 204.081 51.3515C204.534 54.4996 204.725 59.0217 204.638 64.9178H157.887C158.13 71.7879 160.287 76.6056 164.339 79.3711C166.809 81.0929 169.766 81.9452 173.244 81.9452C176.914 81.9452 179.906 80.9016 182.201 78.7971C183.454 77.6666 184.567 76.1012 185.523 74.0837H203.768H203.751ZM186.08 53.0908C185.784 48.36 184.358 44.7597 181.784 42.3074C179.21 39.855 176.027 38.6375 172.236 38.6375C168.096 38.6375 164.896 39.942 162.617 42.5335C160.339 45.125 158.913 48.6557 158.321 53.0908H186.08Z" fill="white"/>
<path d="M245.876 42.2206C238.693 42.2206 233.857 44.5686 231.405 49.2646C230.031 51.9083 229.335 55.9608 229.335 61.4568V94.2072H211.351V25.6976H228.396V37.6463C231.162 33.0721 233.562 29.9588 235.597 28.2891C238.936 25.4889 243.284 24.0801 248.624 24.0801C248.954 24.0801 249.232 24.0801 249.476 24.1149C249.702 24.1323 250.224 24.167 251.007 24.2018V42.5511C249.876 42.4293 248.885 42.3423 247.998 42.3076C247.128 42.2728 246.415 42.238 245.876 42.238V42.2206Z" fill="white"/>
<path d="M258.92 33.1068C263.634 27.0715 271.739 24.0626 283.235 24.0626C290.714 24.0626 297.358 25.5584 303.167 28.5325C308.976 31.5067 311.881 37.1245 311.881 45.3686V76.7971C311.881 78.9712 311.916 81.6149 312.003 84.7107C312.124 87.0588 312.49 88.6415 313.064 89.4937C313.655 90.3286 314.525 91.0243 315.69 91.5634V94.2071H296.262C295.723 92.8331 295.341 91.5286 295.132 90.3112C294.923 89.0937 294.749 87.7197 294.627 86.1717C292.158 88.8502 289.323 91.1286 286.105 93.0244C282.261 95.2507 277.913 96.3638 273.061 96.3638C266.886 96.3638 261.773 94.5898 257.738 91.059C253.703 87.5283 251.685 82.5019 251.685 76.0144C251.685 67.5964 254.92 61.4916 261.39 57.7348C264.938 55.6824 270.156 54.2215 277.061 53.3344L283.148 52.5865C286.453 52.1691 288.801 51.6473 290.227 51.0212C292.766 49.9255 294.054 48.2384 294.054 45.9252C294.054 43.125 293.08 41.177 291.149 40.116C289.201 39.0551 286.349 38.5159 282.592 38.5159C278.365 38.5159 275.391 39.5595 273.635 41.664C272.382 43.2119 271.547 45.3164 271.13 47.9427H253.894C254.277 41.9596 255.946 37.0375 258.903 33.1764L258.92 33.1068ZM272.208 81.2496C273.878 82.6236 275.93 83.3193 278.348 83.3193C282.192 83.3193 285.74 82.1888 288.975 79.9278C292.21 77.6667 293.897 73.5447 294.019 67.5442V60.8828C292.888 61.5959 291.758 62.1699 290.61 62.6047C289.462 63.0395 287.879 63.4569 285.879 63.8222L281.861 64.5701C278.104 65.2484 275.409 66.0658 273.774 67.0224C271.026 68.6573 269.634 71.1967 269.634 74.623C269.634 77.6841 270.487 79.8756 272.208 81.2148V81.2496Z" fill="white"/>
<path d="M360.824 50.2734C360.493 47.7167 359.641 45.4208 358.25 43.3685C356.25 40.6031 353.136 39.2291 348.91 39.2291C342.892 39.2291 338.77 42.2206 336.561 48.2211C335.396 51.4039 334.805 55.6303 334.805 60.9177C334.805 66.205 335.396 69.9966 336.561 73.0403C338.683 78.7451 342.701 81.5801 348.597 81.5801C352.771 81.5801 355.745 80.4496 357.502 78.1886C359.259 75.9275 360.32 72.9882 360.702 69.3879H378.947C378.53 74.8318 376.564 79.98 373.051 84.8499C367.451 92.6766 359.154 96.6074 348.18 96.6074C337.205 96.6074 329.1 93.3376 323.934 86.7979C318.751 80.2583 316.16 71.7707 316.16 61.3525C316.16 49.5777 319.012 40.4292 324.752 33.8895C330.491 27.3499 338.37 24.0801 348.44 24.0801C356.998 24.0801 364.007 26.0107 369.468 29.8544C374.912 33.7156 378.147 40.5161 379.156 50.2734H360.824Z" fill="white"/>
<path d="M420.098 81.4409V94.8333L411.645 95.1464C403.21 95.442 397.435 93.981 394.357 90.746C392.357 88.6937 391.348 85.5282 391.348 81.2496V39.0725H381.817V26.3237H391.348V7.22656H409.019V26.3237H420.115V39.0725H409.019V75.2666C409.019 78.0668 409.367 79.8234 410.08 80.5191C410.793 81.2148 412.967 81.5627 416.602 81.5627C417.141 81.5627 417.715 81.5627 418.324 81.5279C418.933 81.5105 419.524 81.4757 420.115 81.4409H420.098Z" fill="white"/>
<path d="M447.369 1V17.523H429.264V1H447.369ZM447.369 25.6975V94.1897H429.264V25.6975H447.369Z" fill="white"/>
<path d="M455.388 25.6975H475.441L489.669 76.2231L504.209 25.6975H523.393L498.765 94.1897H479.911L455.405 25.6975H455.388Z" fill="white"/>
<path d="M589.38 74.0837C588.928 78.1536 586.806 82.2756 583.049 86.4673C577.205 93.1286 569.013 96.468 558.491 96.468C549.794 96.468 542.141 93.6678 535.497 88.05C528.854 82.4322 525.531 73.301 525.531 60.6566C525.531 48.7948 528.523 39.7158 534.523 33.3849C540.524 27.054 548.298 23.8885 557.864 23.8885C563.552 23.8885 568.665 24.9495 573.222 27.0888C577.779 29.2281 581.536 32.6023 584.51 37.2113C587.188 41.2812 588.91 45.9946 589.71 51.3515C590.163 54.4996 590.354 59.0217 590.267 64.9178H543.516C543.759 71.7879 545.916 76.6056 549.968 79.3711C552.438 81.0929 555.395 81.9452 558.873 81.9452C562.543 81.9452 565.535 80.9016 567.83 78.7971C569.083 77.6666 570.196 76.1012 571.152 74.0837H589.397H589.38ZM571.709 53.0908C571.413 48.36 569.987 44.7597 567.413 42.3074C564.839 39.855 561.656 38.6375 557.847 38.6375C553.708 38.6375 550.507 39.942 548.229 42.5335C545.951 45.125 544.524 48.6557 543.933 53.0908H571.709Z" fill="white"/>
<path d="M1.26562 1.57397H20.4497V94.2071H1.26562V1.57397Z" stroke="#2C969F" stroke-width="2" mask="url(#path-1-outside-1_2001_55)"/>
<path d="M66.5748 38.9508C60.5221 38.9508 56.3653 41.5249 54.1043 46.6731C52.9389 49.4038 52.3476 52.8823 52.3476 57.1087V94.1898H34.5549V25.8193H51.791V35.8201C54.0869 32.3068 56.2609 29.7675 58.3133 28.2195C61.9831 25.4541 66.6443 24.0801 72.2796 24.0801C79.341 24.0801 85.1153 25.9411 89.6026 29.6457C94.0899 33.3504 96.3336 39.5073 96.3336 48.0819V94.2072H78.0365V52.5344C78.0365 48.9342 77.5495 46.1687 76.5929 44.2381C74.8363 40.7248 71.4969 38.9508 66.5574 38.9508H66.5748Z" stroke="#2C969F" stroke-width="2" mask="url(#path-1-outside-1_2001_55)"/>
<path d="M138.945 81.4409V94.8333L130.493 95.1464C122.057 95.442 116.283 93.981 113.204 90.746C111.204 88.6937 110.195 85.5282 110.195 81.2496V39.0725H100.664V26.3237H110.195V7.22656H127.866V26.3237H138.963V39.0725H127.866V75.2666C127.866 78.0668 128.214 79.8234 128.927 80.5191C129.64 81.2148 131.815 81.5627 135.45 81.5627C135.989 81.5627 136.563 81.5627 137.171 81.5279C137.78 81.5105 138.372 81.4757 138.963 81.4409H138.945Z" stroke="#2C969F" stroke-width="2" mask="url(#path-1-outside-1_2001_55)"/>
<path d="M203.751 74.0837C203.299 78.1536 201.177 82.2756 197.42 86.4673C191.576 93.1286 183.384 96.468 172.862 96.468C164.165 96.468 156.513 93.6678 149.869 88.05C143.225 82.4322 139.903 73.301 139.903 60.6566C139.903 48.7948 142.894 39.7158 148.895 33.3849C154.895 27.054 162.67 23.8885 172.236 23.8885C177.923 23.8885 183.036 24.9495 187.593 27.0888C192.15 29.2281 195.907 32.6023 198.881 37.2113C201.559 41.2812 203.281 45.9946 204.081 51.3515C204.534 54.4996 204.725 59.0217 204.638 64.9178H157.887C158.13 71.7879 160.287 76.6056 164.339 79.3711C166.809 81.0929 169.766 81.9452 173.244 81.9452C176.914 81.9452 179.906 80.9016 182.201 78.7971C183.454 77.6666 184.567 76.1012 185.523 74.0837H203.768H203.751ZM186.08 53.0908C185.784 48.36 184.358 44.7597 181.784 42.3074C179.21 39.855 176.027 38.6375 172.236 38.6375C168.096 38.6375 164.896 39.942 162.617 42.5335C160.339 45.125 158.913 48.6557 158.321 53.0908H186.08Z" stroke="#2C969F" stroke-width="2" mask="url(#path-1-outside-1_2001_55)"/>
<path d="M245.876 42.2206C238.693 42.2206 233.857 44.5686 231.405 49.2646C230.031 51.9083 229.335 55.9608 229.335 61.4568V94.2072H211.351V25.6976H228.396V37.6463C231.162 33.0721 233.562 29.9588 235.597 28.2891C238.936 25.4889 243.284 24.0801 248.624 24.0801C248.954 24.0801 249.232 24.0801 249.476 24.1149C249.702 24.1323 250.224 24.167 251.007 24.2018V42.5511C249.876 42.4293 248.885 42.3423 247.998 42.3076C247.128 42.2728 246.415 42.238 245.876 42.238V42.2206Z" stroke="#2C969F" stroke-width="2" mask="url(#path-1-outside-1_2001_55)"/>
<path d="M258.92 33.1068C263.634 27.0715 271.739 24.0626 283.235 24.0626C290.714 24.0626 297.358 25.5584 303.167 28.5325C308.976 31.5067 311.881 37.1245 311.881 45.3686V76.7971C311.881 78.9712 311.916 81.6149 312.003 84.7107C312.124 87.0588 312.49 88.6415 313.064 89.4937C313.655 90.3286 314.525 91.0243 315.69 91.5634V94.2071H296.262C295.723 92.8331 295.341 91.5286 295.132 90.3112C294.923 89.0937 294.749 87.7197 294.627 86.1717C292.158 88.8502 289.323 91.1286 286.105 93.0244C282.261 95.2507 277.913 96.3638 273.061 96.3638C266.886 96.3638 261.773 94.5898 257.738 91.059C253.703 87.5283 251.685 82.5019 251.685 76.0144C251.685 67.5964 254.92 61.4916 261.39 57.7348C264.938 55.6824 270.156 54.2215 277.061 53.3344L283.148 52.5865C286.453 52.1691 288.801 51.6473 290.227 51.0212C292.766 49.9255 294.054 48.2384 294.054 45.9252C294.054 43.125 293.08 41.177 291.149 40.116C289.201 39.0551 286.349 38.5159 282.592 38.5159C278.365 38.5159 275.391 39.5595 273.635 41.664C272.382 43.2119 271.547 45.3164 271.13 47.9427H253.894C254.277 41.9596 255.946 37.0375 258.903 33.1764L258.92 33.1068ZM272.208 81.2496C273.878 82.6236 275.93 83.3193 278.348 83.3193C282.192 83.3193 285.74 82.1888 288.975 79.9278C292.21 77.6667 293.897 73.5447 294.019 67.5442V60.8828C292.888 61.5959 291.758 62.1699 290.61 62.6047C289.462 63.0395 287.879 63.4569 285.879 63.8222L281.861 64.5701C278.104 65.2484 275.409 66.0658 273.774 67.0224C271.026 68.6573 269.634 71.1967 269.634 74.623C269.634 77.6841 270.487 79.8756 272.208 81.2148V81.2496Z" stroke="#2C969F" stroke-width="2" mask="url(#path-1-outside-1_2001_55)"/>
<path d="M360.824 50.2734C360.493 47.7167 359.641 45.4208 358.25 43.3685C356.25 40.6031 353.136 39.2291 348.91 39.2291C342.892 39.2291 338.77 42.2206 336.561 48.2211C335.396 51.4039 334.805 55.6303 334.805 60.9177C334.805 66.205 335.396 69.9966 336.561 73.0403C338.683 78.7451 342.701 81.5801 348.597 81.5801C352.771 81.5801 355.745 80.4496 357.502 78.1886C359.259 75.9275 360.32 72.9882 360.702 69.3879H378.947C378.53 74.8318 376.564 79.98 373.051 84.8499C367.451 92.6766 359.154 96.6074 348.18 96.6074C337.205 96.6074 329.1 93.3376 323.934 86.7979C318.751 80.2583 316.16 71.7707 316.16 61.3525C316.16 49.5777 319.012 40.4292 324.752 33.8895C330.491 27.3499 338.37 24.0801 348.44 24.0801C356.998 24.0801 364.007 26.0107 369.468 29.8544C374.912 33.7156 378.147 40.5161 379.156 50.2734H360.824Z" stroke="#2C969F" stroke-width="2" mask="url(#path-1-outside-1_2001_55)"/>
<path d="M420.098 81.4409V94.8333L411.645 95.1464C403.21 95.442 397.435 93.981 394.357 90.746C392.357 88.6937 391.348 85.5282 391.348 81.2496V39.0725H381.817V26.3237H391.348V7.22656H409.019V26.3237H420.115V39.0725H409.019V75.2666C409.019 78.0668 409.367 79.8234 410.08 80.5191C410.793 81.2148 412.967 81.5627 416.602 81.5627C417.141 81.5627 417.715 81.5627 418.324 81.5279C418.933 81.5105 419.524 81.4757 420.115 81.4409H420.098Z" stroke="#2C969F" stroke-width="2" mask="url(#path-1-outside-1_2001_55)"/>
<path d="M447.369 1V17.523H429.264V1H447.369ZM447.369 25.6975V94.1897H429.264V25.6975H447.369Z" stroke="#2C969F" stroke-width="2" mask="url(#path-1-outside-1_2001_55)"/>
<path d="M455.388 25.6975H475.441L489.669 76.2231L504.209 25.6975H523.393L498.765 94.1897H479.911L455.405 25.6975H455.388Z" stroke="#2C969F" stroke-width="2" mask="url(#path-1-outside-1_2001_55)"/>
<path d="M589.38 74.0837C588.928 78.1536 586.806 82.2756 583.049 86.4673C577.205 93.1286 569.013 96.468 558.491 96.468C549.794 96.468 542.141 93.6678 535.497 88.05C528.854 82.4322 525.531 73.301 525.531 60.6566C525.531 48.7948 528.523 39.7158 534.523 33.3849C540.524 27.054 548.298 23.8885 557.864 23.8885C563.552 23.8885 568.665 24.9495 573.222 27.0888C577.779 29.2281 581.536 32.6023 584.51 37.2113C587.188 41.2812 588.91 45.9946 589.71 51.3515C590.163 54.4996 590.354 59.0217 590.267 64.9178H543.516C543.759 71.7879 545.916 76.6056 549.968 79.3711C552.438 81.0929 555.395 81.9452 558.873 81.9452C562.543 81.9452 565.535 80.9016 567.83 78.7971C569.083 77.6666 570.196 76.1012 571.152 74.0837H589.397H589.38ZM571.709 53.0908C571.413 48.36 569.987 44.7597 567.413 42.3074C564.839 39.855 561.656 38.6375 557.847 38.6375C553.708 38.6375 550.507 39.942 548.229 42.5335C545.951 45.125 544.524 48.6557 543.933 53.0908H571.709Z" stroke="#2C969F" stroke-width="2" mask="url(#path-1-outside-1_2001_55)"/>
</svg>
