<svg width="850" height="89" viewBox="0 0 850 89" fill="none" xmlns="http://www.w3.org/2000/svg">
<mask id="path-1-outside-1_2002_65" maskUnits="userSpaceOnUse" x="0" y="0" width="850" height="89" fill="black">
<rect fill="white" width="850" height="89"/>
<path d="M59.9165 15.7886H18.2603V35.1433H54.7368V49.7581H18.2603V85.039H1V1H59.9165V15.7886Z"/>
<path d="M116.298 30.6875C121.478 37.276 124.075 45.0495 124.075 54.0396C124.075 63.0296 121.478 70.9927 116.298 77.4706C111.118 83.9643 103.231 87.2033 92.6687 87.2033C82.106 87.2033 74.2348 83.9643 69.0395 77.4706C63.8599 70.9769 61.2623 63.1718 61.2623 54.0396C61.2623 44.9073 63.8599 37.276 69.0395 30.6875C74.2192 24.099 82.106 20.8126 92.6687 20.8126C103.231 20.8126 111.103 24.099 116.298 30.6875ZM92.6061 34.5742C87.9116 34.5742 84.2968 36.2648 81.7461 39.6302C79.211 42.9955 77.9435 47.7987 77.9435 54.0396C77.9435 60.2805 79.211 65.0994 81.7461 68.4806C84.2812 71.8617 87.896 73.5681 92.6061 73.5681C97.3163 73.5681 100.915 71.8775 103.435 68.4806C105.954 65.0994 107.206 60.2805 107.206 54.0396C107.206 47.7987 105.954 42.9955 103.435 39.6302C100.915 36.2648 97.3007 34.5742 92.6061 34.5742Z"/>
<path d="M169.393 45.1286C169.096 42.806 168.329 40.7205 167.077 38.8561C165.278 36.3439 162.477 35.0957 158.674 35.0957C153.26 35.0957 149.551 37.8133 147.564 43.2642C146.515 46.1556 145.983 49.9949 145.983 54.7981C145.983 59.6012 146.515 63.0455 147.564 65.8105C149.488 70.9928 153.087 73.5682 158.392 73.5682C162.148 73.5682 164.824 72.5412 166.404 70.4872C167.985 68.4333 168.939 65.7631 169.284 62.4926H185.699C185.323 67.4379 183.555 72.1146 180.394 76.5386C175.355 83.6485 167.891 87.2192 158.017 87.2192C148.143 87.2192 140.85 84.2488 136.203 78.3081C131.555 72.3674 129.208 64.6571 129.208 55.1931C129.208 44.4966 131.79 36.1859 136.938 30.2452C142.087 24.3045 149.191 21.3341 158.251 21.3341C165.951 21.3341 172.257 23.0879 177.17 26.5797C182.068 30.0872 184.979 36.2649 185.887 45.1286H169.393Z"/>
<path d="M233.442 76.2544C233.286 76.444 232.91 77.0128 232.316 77.9608C231.721 78.9088 231.001 79.7462 230.172 80.473C227.652 82.7639 225.211 84.3123 222.864 85.1497C220.517 85.9871 217.763 86.3979 214.602 86.3979C205.51 86.3979 199.376 83.0799 196.215 76.4598C194.446 72.8101 193.57 67.4224 193.57 60.2967V22.8196H210.032V60.3283C210.032 63.8674 210.439 66.5376 211.268 68.323C212.739 71.4829 215.603 73.0629 219.891 73.0629C225.383 73.0629 229.139 70.8193 231.173 66.3322C232.222 63.899 232.754 60.6759 232.754 56.6785V22.8196H249.044V85.0391H233.427V76.2544H233.442Z"/>
<path d="M306.333 25.6635C311.137 28.7918 313.907 34.1479 314.627 41.7634H298.556C298.337 39.6779 297.742 38.0189 296.803 36.8023C295.035 34.5903 292.03 33.4843 287.789 33.4843C284.3 33.4843 281.796 34.0373 280.325 35.1433C278.839 36.2493 278.103 37.5449 278.103 39.0301C278.103 40.8944 278.886 42.2532 280.466 43.0906C282.046 43.9596 287.633 45.4764 297.21 47.5935C303.594 49.1103 308.399 51.4171 311.591 54.498C314.752 57.6264 316.332 61.5131 316.332 66.2057C316.332 72.3676 314.063 77.4077 309.541 81.3102C305.018 85.2128 298.008 87.1562 288.541 87.1562C279.073 87.1562 271.75 85.0864 267.149 80.9627C262.548 76.8389 260.248 71.5776 260.248 65.1787H276.538C276.883 68.07 277.602 70.124 278.745 71.3406C280.732 73.5052 284.425 74.5953 289.792 74.5953C292.953 74.5953 295.457 74.1213 297.319 73.1734C299.182 72.2254 300.105 70.7876 300.105 68.8916C300.105 66.9957 299.354 65.6685 297.851 64.7205C296.349 63.7725 290.763 62.1293 281.108 59.8068C274.16 58.053 269.246 55.8726 266.398 53.2341C263.534 50.6429 262.11 46.9141 262.11 42.0478C262.11 36.2967 264.332 31.3672 268.792 27.2276C273.252 23.1039 279.511 21.0341 287.602 21.0341C295.269 21.0341 301.529 22.5825 306.38 25.6635H306.333Z"/>
<path d="M395.763 30.8749C400.959 37.4634 403.541 45.2368 403.541 54.2269C403.541 63.217 400.943 71.1801 395.763 77.658C390.584 84.1517 382.697 87.3906 372.134 87.3906C361.572 87.3906 353.7 84.1517 348.505 77.658C343.31 71.1643 340.728 63.3592 340.728 54.2269C340.728 45.0947 343.325 37.4634 348.505 30.8749C353.685 24.2864 361.572 21 372.134 21C382.697 21 390.568 24.2864 395.763 30.8749ZM372.087 34.7616C367.393 34.7616 363.778 36.4522 361.227 39.8175C358.692 43.1829 357.425 47.986 357.425 54.2269C357.425 60.4678 358.692 65.2868 361.227 68.6679C363.762 72.0491 367.377 73.7554 372.087 73.7554C376.798 73.7554 380.397 72.0649 382.916 68.6679C385.435 65.2868 386.687 60.4678 386.687 54.2269C386.687 47.986 385.435 43.1829 382.916 39.8175C380.397 36.4522 376.782 34.7616 372.087 34.7616Z"/>
<path d="M438.781 35.0458C433.335 35.0458 429.596 37.3842 427.561 42.0609C426.513 44.5415 425.981 47.7014 425.981 51.5408V85.2259H409.972V23.117H425.48V32.2019C427.546 29.0103 429.502 26.7035 431.348 25.2973C434.65 22.7852 438.844 21.537 443.93 21.537C450.283 21.537 455.478 23.2276 459.515 26.5929C463.553 29.9583 465.571 35.5514 465.571 43.3407V85.2417H449.109V47.3854C449.109 44.1149 448.671 41.6027 447.81 39.8489C446.23 36.6574 443.225 35.0458 438.797 35.0458H438.781Z"/>
<path d="M524.236 37.8046C517.773 37.8046 513.423 39.9376 511.216 44.2035C509.98 46.6051 509.354 50.2864 509.354 55.2792V85.0301H493.174V22.7948H508.509V33.6493C510.997 29.4939 513.157 26.6658 514.988 25.149C517.992 22.6052 521.904 21.3255 526.708 21.3255C527.006 21.3255 527.256 21.3255 527.475 21.3571C527.678 21.3729 528.148 21.4045 528.852 21.4361V38.1048C527.835 37.9942 526.943 37.9152 526.145 37.8836C525.362 37.852 524.721 37.8204 524.236 37.8204V37.8046Z"/>
<path d="M589.942 66.7499C589.535 70.4471 587.626 74.1916 584.246 77.9994C578.988 84.0507 571.617 87.0842 562.15 87.0842C554.326 87.0842 547.44 84.5405 541.463 79.4371C535.485 74.3338 532.496 66.0389 532.496 54.5525C532.496 43.7771 535.188 35.5296 540.586 29.7785C545.985 24.0273 552.98 21.1518 561.587 21.1518C566.704 21.1518 571.304 22.1156 575.404 24.0589C579.504 26.0023 582.884 29.0675 585.56 33.2544C587.97 36.9516 589.519 41.2333 590.239 46.0996C590.646 48.9594 590.818 53.0673 590.74 58.4235H548.677C548.896 64.6644 550.836 69.0409 554.482 71.5531C556.704 73.1172 559.365 73.8914 562.494 73.8914C565.796 73.8914 568.488 72.9434 570.553 71.0317C571.68 70.0047 572.681 68.5827 573.542 66.7499H589.957H589.942ZM574.043 47.6796C573.777 43.3821 572.494 40.1115 570.178 37.8837C567.862 35.656 564.998 34.55 561.571 34.55C557.847 34.55 554.967 35.735 552.917 38.0891C550.867 40.4433 549.584 43.6507 549.052 47.6796H574.043Z"/>
<path d="M643.319 25.6391C648.123 28.7675 650.892 34.1236 651.612 41.7391H635.541C635.322 39.6535 634.728 37.9946 633.789 36.778C632.02 34.566 629.016 33.46 624.775 33.46C621.286 33.46 618.782 34.013 617.311 35.119C615.824 36.225 615.089 37.5206 615.089 39.0058C615.089 40.8701 615.871 42.2289 617.452 43.0663C619.032 43.9353 624.619 45.4521 634.196 47.5692C640.58 49.086 645.384 51.3928 648.576 54.4737C651.737 57.6021 653.318 61.4888 653.318 66.1814C653.318 72.3433 651.049 77.3834 646.527 81.2859C642.004 85.1885 634.994 87.1319 625.526 87.1319C616.059 87.1319 608.735 85.0621 604.135 80.9383C599.534 76.8146 597.234 71.5533 597.234 65.1544H613.524C613.868 68.0457 614.588 70.0997 615.73 71.3163C617.718 73.4809 621.411 74.571 626.778 74.571C629.939 74.571 632.443 74.097 634.305 73.1491C636.167 72.2011 637.091 70.7633 637.091 68.8673C637.091 66.9714 636.339 65.6442 634.837 64.6962C633.335 63.7482 627.748 62.105 618.093 59.7825C611.145 58.0287 606.232 55.8483 603.384 53.2097C600.52 50.6186 599.096 46.8898 599.096 42.0235C599.096 36.2724 601.318 31.3429 605.778 27.2033C610.238 23.0796 616.497 21.0098 624.587 21.0098C632.255 21.0098 638.515 22.5582 643.366 25.6391H643.319Z"/>
<path d="M699.041 76.2301C698.884 76.4197 698.509 76.9885 697.914 77.9365C697.319 78.8845 696.6 79.7219 695.77 80.4487C693.251 82.7396 690.81 84.288 688.462 85.1254C686.115 85.9628 683.361 86.3736 680.2 86.3736C671.108 86.3736 664.974 83.0556 661.813 76.4355C660.045 72.7858 659.168 67.3981 659.168 60.2724V22.7953H675.631V60.304C675.631 63.8431 676.038 66.5133 676.867 68.2987C678.338 71.4586 681.201 73.0386 685.489 73.0386C690.982 73.0386 694.737 70.795 696.772 66.3079C697.82 63.8747 698.352 60.6516 698.352 56.6542V22.7953H714.642V85.0148H699.025V76.2301H699.041Z"/>
<path d="M725.313 13.5172H740.82V87.1744H725.313V13.5172Z"/>
<path d="M784.607 73.4176V85.5834L777.001 85.8678C769.412 86.1364 764.217 84.8092 761.447 81.8705C759.647 80.0061 758.74 77.1305 758.74 73.2438V34.9293H750.164V23.3481H758.74V5.99993H774.638V23.3481H784.622V34.9293H774.638V67.8086C774.638 70.3524 774.951 71.9482 775.593 72.5802C776.235 73.2122 778.191 73.5282 781.461 73.5282C781.946 73.5282 782.463 73.5282 783.01 73.4966C783.558 73.4808 784.09 73.4492 784.622 73.4176H784.607Z"/>
<path d="M839.001 25.6391C843.805 28.7675 846.575 34.1236 847.294 41.7391H831.223C831.004 39.6535 830.41 37.9946 829.471 36.778C827.702 34.566 824.698 33.46 820.457 33.46C816.968 33.46 814.464 34.013 812.993 35.119C811.506 36.225 810.771 37.5206 810.771 39.0058C810.771 40.8701 811.553 42.2289 813.134 43.0663C814.714 43.9353 820.301 45.4521 829.878 47.5692C836.262 49.086 841.066 51.3928 844.259 54.4737C847.42 57.6021 849 61.4888 849 66.1814C849 72.3433 846.731 77.3834 842.209 81.2859C837.686 85.1885 830.676 87.1319 821.208 87.1319C811.741 87.1319 804.418 85.0621 799.817 80.9384C795.216 76.8146 792.916 71.5533 792.916 65.1544H809.206C809.55 68.0457 810.27 70.0997 811.412 71.3163C813.4 73.4809 817.093 74.571 822.46 74.571C825.621 74.571 828.125 74.097 829.987 73.1491C831.849 72.2011 832.773 70.7633 832.773 68.8673C832.773 66.9714 832.021 65.6442 830.519 64.6962C829.017 63.7482 823.43 62.105 813.775 59.7825C806.827 58.0287 801.914 55.8483 799.066 53.2097C796.202 50.6186 794.778 46.8898 794.778 42.0235C794.778 36.2724 797 31.3429 801.46 27.2033C805.92 23.0796 812.179 21.0098 820.269 21.0098C827.937 21.0098 834.197 22.5582 839.048 25.6391H839.001Z"/>
</mask>
<path d="M59.9165 15.7886H18.2603V35.1433H54.7368V49.7581H18.2603V85.039H1V1H59.9165V15.7886Z" fill="white"/>
<path d="M116.298 30.6875C121.478 37.276 124.075 45.0495 124.075 54.0396C124.075 63.0296 121.478 70.9927 116.298 77.4706C111.118 83.9643 103.231 87.2033 92.6687 87.2033C82.106 87.2033 74.2348 83.9643 69.0395 77.4706C63.8599 70.9769 61.2623 63.1718 61.2623 54.0396C61.2623 44.9073 63.8599 37.276 69.0395 30.6875C74.2192 24.099 82.106 20.8126 92.6687 20.8126C103.231 20.8126 111.103 24.099 116.298 30.6875ZM92.6061 34.5742C87.9116 34.5742 84.2968 36.2648 81.7461 39.6302C79.211 42.9955 77.9435 47.7987 77.9435 54.0396C77.9435 60.2805 79.211 65.0994 81.7461 68.4806C84.2812 71.8617 87.896 73.5681 92.6061 73.5681C97.3163 73.5681 100.915 71.8775 103.435 68.4806C105.954 65.0994 107.206 60.2805 107.206 54.0396C107.206 47.7987 105.954 42.9955 103.435 39.6302C100.915 36.2648 97.3007 34.5742 92.6061 34.5742Z" fill="white"/>
<path d="M169.393 45.1286C169.096 42.806 168.329 40.7205 167.077 38.8561C165.278 36.3439 162.477 35.0957 158.674 35.0957C153.26 35.0957 149.551 37.8133 147.564 43.2642C146.515 46.1556 145.983 49.9949 145.983 54.7981C145.983 59.6012 146.515 63.0455 147.564 65.8105C149.488 70.9928 153.087 73.5682 158.392 73.5682C162.148 73.5682 164.824 72.5412 166.404 70.4872C167.985 68.4333 168.939 65.7631 169.284 62.4926H185.699C185.323 67.4379 183.555 72.1146 180.394 76.5386C175.355 83.6485 167.891 87.2192 158.017 87.2192C148.143 87.2192 140.85 84.2488 136.203 78.3081C131.555 72.3674 129.208 64.6571 129.208 55.1931C129.208 44.4966 131.79 36.1859 136.938 30.2452C142.087 24.3045 149.191 21.3341 158.251 21.3341C165.951 21.3341 172.257 23.0879 177.17 26.5797C182.068 30.0872 184.979 36.2649 185.887 45.1286H169.393Z" fill="white"/>
<path d="M233.442 76.2544C233.286 76.444 232.91 77.0128 232.316 77.9608C231.721 78.9088 231.001 79.7462 230.172 80.473C227.652 82.7639 225.211 84.3123 222.864 85.1497C220.517 85.9871 217.763 86.3979 214.602 86.3979C205.51 86.3979 199.376 83.0799 196.215 76.4598C194.446 72.8101 193.57 67.4224 193.57 60.2967V22.8196H210.032V60.3283C210.032 63.8674 210.439 66.5376 211.268 68.323C212.739 71.4829 215.603 73.0629 219.891 73.0629C225.383 73.0629 229.139 70.8193 231.173 66.3322C232.222 63.899 232.754 60.6759 232.754 56.6785V22.8196H249.044V85.0391H233.427V76.2544H233.442Z" fill="white"/>
<path d="M306.333 25.6635C311.137 28.7918 313.907 34.1479 314.627 41.7634H298.556C298.337 39.6779 297.742 38.0189 296.803 36.8023C295.035 34.5903 292.03 33.4843 287.789 33.4843C284.3 33.4843 281.796 34.0373 280.325 35.1433C278.839 36.2493 278.103 37.5449 278.103 39.0301C278.103 40.8944 278.886 42.2532 280.466 43.0906C282.046 43.9596 287.633 45.4764 297.21 47.5935C303.594 49.1103 308.399 51.4171 311.591 54.498C314.752 57.6264 316.332 61.5131 316.332 66.2057C316.332 72.3676 314.063 77.4077 309.541 81.3102C305.018 85.2128 298.008 87.1562 288.541 87.1562C279.073 87.1562 271.75 85.0864 267.149 80.9627C262.548 76.8389 260.248 71.5776 260.248 65.1787H276.538C276.883 68.07 277.602 70.124 278.745 71.3406C280.732 73.5052 284.425 74.5953 289.792 74.5953C292.953 74.5953 295.457 74.1213 297.319 73.1734C299.182 72.2254 300.105 70.7876 300.105 68.8916C300.105 66.9957 299.354 65.6685 297.851 64.7205C296.349 63.7725 290.763 62.1293 281.108 59.8068C274.16 58.053 269.246 55.8726 266.398 53.2341C263.534 50.6429 262.11 46.9141 262.11 42.0478C262.11 36.2967 264.332 31.3672 268.792 27.2276C273.252 23.1039 279.511 21.0341 287.602 21.0341C295.269 21.0341 301.529 22.5825 306.38 25.6635H306.333Z" fill="white"/>
<path d="M395.763 30.8749C400.959 37.4634 403.541 45.2368 403.541 54.2269C403.541 63.217 400.943 71.1801 395.763 77.658C390.584 84.1517 382.697 87.3906 372.134 87.3906C361.572 87.3906 353.7 84.1517 348.505 77.658C343.31 71.1643 340.728 63.3592 340.728 54.2269C340.728 45.0947 343.325 37.4634 348.505 30.8749C353.685 24.2864 361.572 21 372.134 21C382.697 21 390.568 24.2864 395.763 30.8749ZM372.087 34.7616C367.393 34.7616 363.778 36.4522 361.227 39.8175C358.692 43.1829 357.425 47.986 357.425 54.2269C357.425 60.4678 358.692 65.2868 361.227 68.6679C363.762 72.0491 367.377 73.7554 372.087 73.7554C376.798 73.7554 380.397 72.0649 382.916 68.6679C385.435 65.2868 386.687 60.4678 386.687 54.2269C386.687 47.986 385.435 43.1829 382.916 39.8175C380.397 36.4522 376.782 34.7616 372.087 34.7616Z" fill="white"/>
<path d="M438.781 35.0458C433.335 35.0458 429.596 37.3842 427.561 42.0609C426.513 44.5415 425.981 47.7014 425.981 51.5408V85.2259H409.972V23.117H425.48V32.2019C427.546 29.0103 429.502 26.7035 431.348 25.2973C434.65 22.7852 438.844 21.537 443.93 21.537C450.283 21.537 455.478 23.2276 459.515 26.5929C463.553 29.9583 465.571 35.5514 465.571 43.3407V85.2417H449.109V47.3854C449.109 44.1149 448.671 41.6027 447.81 39.8489C446.23 36.6574 443.225 35.0458 438.797 35.0458H438.781Z" fill="white"/>
<path d="M524.236 37.8046C517.773 37.8046 513.423 39.9376 511.216 44.2035C509.98 46.6051 509.354 50.2864 509.354 55.2792V85.0301H493.174V22.7948H508.509V33.6493C510.997 29.4939 513.157 26.6658 514.988 25.149C517.992 22.6052 521.904 21.3255 526.708 21.3255C527.006 21.3255 527.256 21.3255 527.475 21.3571C527.678 21.3729 528.148 21.4045 528.852 21.4361V38.1048C527.835 37.9942 526.943 37.9152 526.145 37.8836C525.362 37.852 524.721 37.8204 524.236 37.8204V37.8046Z" fill="white"/>
<path d="M589.942 66.7499C589.535 70.4471 587.626 74.1916 584.246 77.9994C578.988 84.0507 571.617 87.0842 562.15 87.0842C554.326 87.0842 547.44 84.5405 541.463 79.4371C535.485 74.3338 532.496 66.0389 532.496 54.5525C532.496 43.7771 535.188 35.5296 540.586 29.7785C545.985 24.0273 552.98 21.1518 561.587 21.1518C566.704 21.1518 571.304 22.1156 575.404 24.0589C579.504 26.0023 582.884 29.0675 585.56 33.2544C587.97 36.9516 589.519 41.2333 590.239 46.0996C590.646 48.9594 590.818 53.0673 590.74 58.4235H548.677C548.896 64.6644 550.836 69.0409 554.482 71.5531C556.704 73.1172 559.365 73.8914 562.494 73.8914C565.796 73.8914 568.488 72.9434 570.553 71.0317C571.68 70.0047 572.681 68.5827 573.542 66.7499H589.957H589.942ZM574.043 47.6796C573.777 43.3821 572.494 40.1115 570.178 37.8837C567.862 35.656 564.998 34.55 561.571 34.55C557.847 34.55 554.967 35.735 552.917 38.0891C550.867 40.4433 549.584 43.6507 549.052 47.6796H574.043Z" fill="white"/>
<path d="M643.319 25.6391C648.123 28.7675 650.892 34.1236 651.612 41.7391H635.541C635.322 39.6535 634.728 37.9946 633.789 36.778C632.02 34.566 629.016 33.46 624.775 33.46C621.286 33.46 618.782 34.013 617.311 35.119C615.824 36.225 615.089 37.5206 615.089 39.0058C615.089 40.8701 615.871 42.2289 617.452 43.0663C619.032 43.9353 624.619 45.4521 634.196 47.5692C640.58 49.086 645.384 51.3928 648.576 54.4737C651.737 57.6021 653.318 61.4888 653.318 66.1814C653.318 72.3433 651.049 77.3834 646.527 81.2859C642.004 85.1885 634.994 87.1319 625.526 87.1319C616.059 87.1319 608.735 85.0621 604.135 80.9383C599.534 76.8146 597.234 71.5533 597.234 65.1544H613.524C613.868 68.0457 614.588 70.0997 615.73 71.3163C617.718 73.4809 621.411 74.571 626.778 74.571C629.939 74.571 632.443 74.097 634.305 73.1491C636.167 72.2011 637.091 70.7633 637.091 68.8673C637.091 66.9714 636.339 65.6442 634.837 64.6962C633.335 63.7482 627.748 62.105 618.093 59.7825C611.145 58.0287 606.232 55.8483 603.384 53.2097C600.52 50.6186 599.096 46.8898 599.096 42.0235C599.096 36.2724 601.318 31.3429 605.778 27.2033C610.238 23.0796 616.497 21.0098 624.587 21.0098C632.255 21.0098 638.515 22.5582 643.366 25.6391H643.319Z" fill="white"/>
<path d="M699.041 76.2301C698.884 76.4197 698.509 76.9885 697.914 77.9365C697.319 78.8845 696.6 79.7219 695.77 80.4487C693.251 82.7396 690.81 84.288 688.462 85.1254C686.115 85.9628 683.361 86.3736 680.2 86.3736C671.108 86.3736 664.974 83.0556 661.813 76.4355C660.045 72.7858 659.168 67.3981 659.168 60.2724V22.7953H675.631V60.304C675.631 63.8431 676.038 66.5133 676.867 68.2987C678.338 71.4586 681.201 73.0386 685.489 73.0386C690.982 73.0386 694.737 70.795 696.772 66.3079C697.82 63.8747 698.352 60.6516 698.352 56.6542V22.7953H714.642V85.0148H699.025V76.2301H699.041Z" fill="white"/>
<path d="M725.313 13.5172H740.82V87.1744H725.313V13.5172Z" fill="white"/>
<path d="M784.607 73.4176V85.5834L777.001 85.8678C769.412 86.1364 764.217 84.8092 761.447 81.8705C759.647 80.0061 758.74 77.1305 758.74 73.2438V34.9293H750.164V23.3481H758.74V5.99993H774.638V23.3481H784.622V34.9293H774.638V67.8086C774.638 70.3524 774.951 71.9482 775.593 72.5802C776.235 73.2122 778.191 73.5282 781.461 73.5282C781.946 73.5282 782.463 73.5282 783.01 73.4966C783.558 73.4808 784.09 73.4492 784.622 73.4176H784.607Z" fill="white"/>
<path d="M839.001 25.6391C843.805 28.7675 846.575 34.1236 847.294 41.7391H831.223C831.004 39.6535 830.41 37.9946 829.471 36.778C827.702 34.566 824.698 33.46 820.457 33.46C816.968 33.46 814.464 34.013 812.993 35.119C811.506 36.225 810.771 37.5206 810.771 39.0058C810.771 40.8701 811.553 42.2289 813.134 43.0663C814.714 43.9353 820.301 45.4521 829.878 47.5692C836.262 49.086 841.066 51.3928 844.259 54.4737C847.42 57.6021 849 61.4888 849 66.1814C849 72.3433 846.731 77.3834 842.209 81.2859C837.686 85.1885 830.676 87.1319 821.208 87.1319C811.741 87.1319 804.418 85.0621 799.817 80.9384C795.216 76.8146 792.916 71.5533 792.916 65.1544H809.206C809.55 68.0457 810.27 70.0997 811.412 71.3163C813.4 73.4809 817.093 74.571 822.46 74.571C825.621 74.571 828.125 74.097 829.987 73.1491C831.849 72.2011 832.773 70.7633 832.773 68.8673C832.773 66.9714 832.021 65.6442 830.519 64.6962C829.017 63.7482 823.43 62.105 813.775 59.7825C806.827 58.0287 801.914 55.8483 799.066 53.2097C796.202 50.6186 794.778 46.8898 794.778 42.0235C794.778 36.2724 797 31.3429 801.46 27.2033C805.92 23.0796 812.179 21.0098 820.269 21.0098C827.937 21.0098 834.197 22.5582 839.048 25.6391H839.001Z" fill="white"/>
<path d="M59.9165 15.7886H18.2603V35.1433H54.7368V49.7581H18.2603V85.039H1V1H59.9165V15.7886Z" stroke="#939393" stroke-width="2" mask="url(#path-1-outside-1_2002_65)"/>
<path d="M116.298 30.6875C121.478 37.276 124.075 45.0495 124.075 54.0396C124.075 63.0296 121.478 70.9927 116.298 77.4706C111.118 83.9643 103.231 87.2033 92.6687 87.2033C82.106 87.2033 74.2348 83.9643 69.0395 77.4706C63.8599 70.9769 61.2623 63.1718 61.2623 54.0396C61.2623 44.9073 63.8599 37.276 69.0395 30.6875C74.2192 24.099 82.106 20.8126 92.6687 20.8126C103.231 20.8126 111.103 24.099 116.298 30.6875ZM92.6061 34.5742C87.9116 34.5742 84.2968 36.2648 81.7461 39.6302C79.211 42.9955 77.9435 47.7987 77.9435 54.0396C77.9435 60.2805 79.211 65.0994 81.7461 68.4806C84.2812 71.8617 87.896 73.5681 92.6061 73.5681C97.3163 73.5681 100.915 71.8775 103.435 68.4806C105.954 65.0994 107.206 60.2805 107.206 54.0396C107.206 47.7987 105.954 42.9955 103.435 39.6302C100.915 36.2648 97.3007 34.5742 92.6061 34.5742Z" stroke="#939393" stroke-width="2" mask="url(#path-1-outside-1_2002_65)"/>
<path d="M169.393 45.1286C169.096 42.806 168.329 40.7205 167.077 38.8561C165.278 36.3439 162.477 35.0957 158.674 35.0957C153.26 35.0957 149.551 37.8133 147.564 43.2642C146.515 46.1556 145.983 49.9949 145.983 54.7981C145.983 59.6012 146.515 63.0455 147.564 65.8105C149.488 70.9928 153.087 73.5682 158.392 73.5682C162.148 73.5682 164.824 72.5412 166.404 70.4872C167.985 68.4333 168.939 65.7631 169.284 62.4926H185.699C185.323 67.4379 183.555 72.1146 180.394 76.5386C175.355 83.6485 167.891 87.2192 158.017 87.2192C148.143 87.2192 140.85 84.2488 136.203 78.3081C131.555 72.3674 129.208 64.6571 129.208 55.1931C129.208 44.4966 131.79 36.1859 136.938 30.2452C142.087 24.3045 149.191 21.3341 158.251 21.3341C165.951 21.3341 172.257 23.0879 177.17 26.5797C182.068 30.0872 184.979 36.2649 185.887 45.1286H169.393Z" stroke="#939393" stroke-width="2" mask="url(#path-1-outside-1_2002_65)"/>
<path d="M233.442 76.2544C233.286 76.444 232.91 77.0128 232.316 77.9608C231.721 78.9088 231.001 79.7462 230.172 80.473C227.652 82.7639 225.211 84.3123 222.864 85.1497C220.517 85.9871 217.763 86.3979 214.602 86.3979C205.51 86.3979 199.376 83.0799 196.215 76.4598C194.446 72.8101 193.57 67.4224 193.57 60.2967V22.8196H210.032V60.3283C210.032 63.8674 210.439 66.5376 211.268 68.323C212.739 71.4829 215.603 73.0629 219.891 73.0629C225.383 73.0629 229.139 70.8193 231.173 66.3322C232.222 63.899 232.754 60.6759 232.754 56.6785V22.8196H249.044V85.0391H233.427V76.2544H233.442Z" stroke="#939393" stroke-width="2" mask="url(#path-1-outside-1_2002_65)"/>
<path d="M306.333 25.6635C311.137 28.7918 313.907 34.1479 314.627 41.7634H298.556C298.337 39.6779 297.742 38.0189 296.803 36.8023C295.035 34.5903 292.03 33.4843 287.789 33.4843C284.3 33.4843 281.796 34.0373 280.325 35.1433C278.839 36.2493 278.103 37.5449 278.103 39.0301C278.103 40.8944 278.886 42.2532 280.466 43.0906C282.046 43.9596 287.633 45.4764 297.21 47.5935C303.594 49.1103 308.399 51.4171 311.591 54.498C314.752 57.6264 316.332 61.5131 316.332 66.2057C316.332 72.3676 314.063 77.4077 309.541 81.3102C305.018 85.2128 298.008 87.1562 288.541 87.1562C279.073 87.1562 271.75 85.0864 267.149 80.9627C262.548 76.8389 260.248 71.5776 260.248 65.1787H276.538C276.883 68.07 277.602 70.124 278.745 71.3406C280.732 73.5052 284.425 74.5953 289.792 74.5953C292.953 74.5953 295.457 74.1213 297.319 73.1734C299.182 72.2254 300.105 70.7876 300.105 68.8916C300.105 66.9957 299.354 65.6685 297.851 64.7205C296.349 63.7725 290.763 62.1293 281.108 59.8068C274.16 58.053 269.246 55.8726 266.398 53.2341C263.534 50.6429 262.11 46.9141 262.11 42.0478C262.11 36.2967 264.332 31.3672 268.792 27.2276C273.252 23.1039 279.511 21.0341 287.602 21.0341C295.269 21.0341 301.529 22.5825 306.38 25.6635H306.333Z" stroke="#939393" stroke-width="2" mask="url(#path-1-outside-1_2002_65)"/>
<path d="M395.763 30.8749C400.959 37.4634 403.541 45.2368 403.541 54.2269C403.541 63.217 400.943 71.1801 395.763 77.658C390.584 84.1517 382.697 87.3906 372.134 87.3906C361.572 87.3906 353.7 84.1517 348.505 77.658C343.31 71.1643 340.728 63.3592 340.728 54.2269C340.728 45.0947 343.325 37.4634 348.505 30.8749C353.685 24.2864 361.572 21 372.134 21C382.697 21 390.568 24.2864 395.763 30.8749ZM372.087 34.7616C367.393 34.7616 363.778 36.4522 361.227 39.8175C358.692 43.1829 357.425 47.986 357.425 54.2269C357.425 60.4678 358.692 65.2868 361.227 68.6679C363.762 72.0491 367.377 73.7554 372.087 73.7554C376.798 73.7554 380.397 72.0649 382.916 68.6679C385.435 65.2868 386.687 60.4678 386.687 54.2269C386.687 47.986 385.435 43.1829 382.916 39.8175C380.397 36.4522 376.782 34.7616 372.087 34.7616Z" stroke="#939393" stroke-width="2" mask="url(#path-1-outside-1_2002_65)"/>
<path d="M438.781 35.0458C433.335 35.0458 429.596 37.3842 427.561 42.0609C426.513 44.5415 425.981 47.7014 425.981 51.5408V85.2259H409.972V23.117H425.48V32.2019C427.546 29.0103 429.502 26.7035 431.348 25.2973C434.65 22.7852 438.844 21.537 443.93 21.537C450.283 21.537 455.478 23.2276 459.515 26.5929C463.553 29.9583 465.571 35.5514 465.571 43.3407V85.2417H449.109V47.3854C449.109 44.1149 448.671 41.6027 447.81 39.8489C446.23 36.6574 443.225 35.0458 438.797 35.0458H438.781Z" stroke="#939393" stroke-width="2" mask="url(#path-1-outside-1_2002_65)"/>
<path d="M524.236 37.8046C517.773 37.8046 513.423 39.9376 511.216 44.2035C509.98 46.6051 509.354 50.2864 509.354 55.2792V85.0301H493.174V22.7948H508.509V33.6493C510.997 29.4939 513.157 26.6658 514.988 25.149C517.992 22.6052 521.904 21.3255 526.708 21.3255C527.006 21.3255 527.256 21.3255 527.475 21.3571C527.678 21.3729 528.148 21.4045 528.852 21.4361V38.1048C527.835 37.9942 526.943 37.9152 526.145 37.8836C525.362 37.852 524.721 37.8204 524.236 37.8204V37.8046Z" stroke="#939393" stroke-width="2" mask="url(#path-1-outside-1_2002_65)"/>
<path d="M589.942 66.7499C589.535 70.4471 587.626 74.1916 584.246 77.9994C578.988 84.0507 571.617 87.0842 562.15 87.0842C554.326 87.0842 547.44 84.5405 541.463 79.4371C535.485 74.3338 532.496 66.0389 532.496 54.5525C532.496 43.7771 535.188 35.5296 540.586 29.7785C545.985 24.0273 552.98 21.1518 561.587 21.1518C566.704 21.1518 571.304 22.1156 575.404 24.0589C579.504 26.0023 582.884 29.0675 585.56 33.2544C587.97 36.9516 589.519 41.2333 590.239 46.0996C590.646 48.9594 590.818 53.0673 590.74 58.4235H548.677C548.896 64.6644 550.836 69.0409 554.482 71.5531C556.704 73.1172 559.365 73.8914 562.494 73.8914C565.796 73.8914 568.488 72.9434 570.553 71.0317C571.68 70.0047 572.681 68.5827 573.542 66.7499H589.957H589.942ZM574.043 47.6796C573.777 43.3821 572.494 40.1115 570.178 37.8837C567.862 35.656 564.998 34.55 561.571 34.55C557.847 34.55 554.967 35.735 552.917 38.0891C550.867 40.4433 549.584 43.6507 549.052 47.6796H574.043Z" stroke="#939393" stroke-width="2" mask="url(#path-1-outside-1_2002_65)"/>
<path d="M643.319 25.6391C648.123 28.7675 650.892 34.1236 651.612 41.7391H635.541C635.322 39.6535 634.728 37.9946 633.789 36.778C632.02 34.566 629.016 33.46 624.775 33.46C621.286 33.46 618.782 34.013 617.311 35.119C615.824 36.225 615.089 37.5206 615.089 39.0058C615.089 40.8701 615.871 42.2289 617.452 43.0663C619.032 43.9353 624.619 45.4521 634.196 47.5692C640.58 49.086 645.384 51.3928 648.576 54.4737C651.737 57.6021 653.318 61.4888 653.318 66.1814C653.318 72.3433 651.049 77.3834 646.527 81.2859C642.004 85.1885 634.994 87.1319 625.526 87.1319C616.059 87.1319 608.735 85.0621 604.135 80.9383C599.534 76.8146 597.234 71.5533 597.234 65.1544H613.524C613.868 68.0457 614.588 70.0997 615.73 71.3163C617.718 73.4809 621.411 74.571 626.778 74.571C629.939 74.571 632.443 74.097 634.305 73.1491C636.167 72.2011 637.091 70.7633 637.091 68.8673C637.091 66.9714 636.339 65.6442 634.837 64.6962C633.335 63.7482 627.748 62.105 618.093 59.7825C611.145 58.0287 606.232 55.8483 603.384 53.2097C600.52 50.6186 599.096 46.8898 599.096 42.0235C599.096 36.2724 601.318 31.3429 605.778 27.2033C610.238 23.0796 616.497 21.0098 624.587 21.0098C632.255 21.0098 638.515 22.5582 643.366 25.6391H643.319Z" stroke="#939393" stroke-width="2" mask="url(#path-1-outside-1_2002_65)"/>
<path d="M699.041 76.2301C698.884 76.4197 698.509 76.9885 697.914 77.9365C697.319 78.8845 696.6 79.7219 695.77 80.4487C693.251 82.7396 690.81 84.288 688.462 85.1254C686.115 85.9628 683.361 86.3736 680.2 86.3736C671.108 86.3736 664.974 83.0556 661.813 76.4355C660.045 72.7858 659.168 67.3981 659.168 60.2724V22.7953H675.631V60.304C675.631 63.8431 676.038 66.5133 676.867 68.2987C678.338 71.4586 681.201 73.0386 685.489 73.0386C690.982 73.0386 694.737 70.795 696.772 66.3079C697.82 63.8747 698.352 60.6516 698.352 56.6542V22.7953H714.642V85.0148H699.025V76.2301H699.041Z" stroke="#939393" stroke-width="2" mask="url(#path-1-outside-1_2002_65)"/>
<path d="M725.313 13.5172H740.82V87.1744H725.313V13.5172Z" stroke="#939393" stroke-width="2" mask="url(#path-1-outside-1_2002_65)"/>
<path d="M784.607 73.4176V85.5834L777.001 85.8678C769.412 86.1364 764.217 84.8092 761.447 81.8705C759.647 80.0061 758.74 77.1305 758.74 73.2438V34.9293H750.164V23.3481H758.74V5.99993H774.638V23.3481H784.622V34.9293H774.638V67.8086C774.638 70.3524 774.951 71.9482 775.593 72.5802C776.235 73.2122 778.191 73.5282 781.461 73.5282C781.946 73.5282 782.463 73.5282 783.01 73.4966C783.558 73.4808 784.09 73.4492 784.622 73.4176H784.607Z" stroke="#939393" stroke-width="2" mask="url(#path-1-outside-1_2002_65)"/>
<path d="M839.001 25.6391C843.805 28.7675 846.575 34.1236 847.294 41.7391H831.223C831.004 39.6535 830.41 37.9946 829.471 36.778C827.702 34.566 824.698 33.46 820.457 33.46C816.968 33.46 814.464 34.013 812.993 35.119C811.506 36.225 810.771 37.5206 810.771 39.0058C810.771 40.8701 811.553 42.2289 813.134 43.0663C814.714 43.9353 820.301 45.4521 829.878 47.5692C836.262 49.086 841.066 51.3928 844.259 54.4737C847.42 57.6021 849 61.4888 849 66.1814C849 72.3433 846.731 77.3834 842.209 81.2859C837.686 85.1885 830.676 87.1319 821.208 87.1319C811.741 87.1319 804.418 85.0621 799.817 80.9384C795.216 76.8146 792.916 71.5533 792.916 65.1544H809.206C809.55 68.0457 810.27 70.0997 811.412 71.3163C813.4 73.4809 817.093 74.571 822.46 74.571C825.621 74.571 828.125 74.097 829.987 73.1491C831.849 72.2011 832.773 70.7633 832.773 68.8673C832.773 66.9714 832.021 65.6442 830.519 64.6962C829.017 63.7482 823.43 62.105 813.775 59.7825C806.827 58.0287 801.914 55.8483 799.066 53.2097C796.202 50.6186 794.778 46.8898 794.778 42.0235C794.778 36.2724 797 31.3429 801.46 27.2033C805.92 23.0796 812.179 21.0098 820.269 21.0098C827.937 21.0098 834.197 22.5582 839.048 25.6391H839.001Z" stroke="#939393" stroke-width="2" mask="url(#path-1-outside-1_2002_65)"/>
</svg>
