<svg width="285" height="113" viewBox="0 0 285 113" fill="none" xmlns="http://www.w3.org/2000/svg">
<mask id="path-1-outside-1_2002_74" maskUnits="userSpaceOnUse" x="0" y="0.734619" width="285" height="113" fill="black">
<rect fill="white" y="0.734619" width="285" height="113"/>
<path d="M36.2878 45.6812C32.775 48.8614 28.2775 50.4515 22.7954 50.4515C16.0182 50.4515 10.6957 48.3022 6.81034 44.0124C2.94269 39.6877 1 33.7728 1 26.2678C1 18.1425 3.20882 11.8781 7.61757 7.48349C11.4497 3.648 16.3286 1.73462 22.2543 1.73462C30.1847 1.73462 35.9773 4.30326 39.641 9.44055C41.6635 12.3237 42.7546 15.2156 42.8965 18.125H33.05C32.4113 15.8971 31.5863 14.2109 30.5928 13.0751C28.8009 11.0569 26.1486 10.0434 22.6357 10.0434C19.1229 10.0434 16.2311 11.4675 14.1642 14.3245C12.0973 17.1727 11.0594 21.2091 11.0594 26.4338C11.0594 31.6585 12.1505 35.5638 14.3327 38.1587C16.5149 40.7623 19.2915 42.0554 22.6624 42.0554C26.0332 42.0554 28.7477 40.937 30.5573 38.7091C31.5597 37.5122 32.3936 35.7124 33.05 33.3097H42.7989C41.9473 38.3859 39.774 42.5097 36.2789 45.6812H36.2878Z"/>
<path d="M59.9592 46.1924C59.9 46.2635 59.7577 46.4769 59.5325 46.8325C59.3073 47.1881 59.0347 47.5022 58.7206 47.7748C57.7664 48.6342 56.8418 49.215 55.9528 49.5291C55.0638 49.8432 54.0208 49.9973 52.8236 49.9973C49.3802 49.9973 47.057 48.7527 45.8598 46.2695C45.1901 44.9004 44.8582 42.8794 44.8582 40.2065V26.1486H51.093V40.2184C51.093 41.5459 51.2471 42.5475 51.5612 43.2173C52.1183 44.4026 53.2029 44.9952 54.8268 44.9952C56.907 44.9952 58.3294 44.1537 59.0999 42.4705C59.497 41.5578 59.6985 40.3488 59.6985 38.8493V26.1486H65.8681V49.4876H59.9533V46.1924H59.9592Z"/>
<path d="M81.3072 45.1436V49.7071L78.4269 49.8138C75.5525 49.9145 73.5848 49.4167 72.5358 48.3143C71.8543 47.615 71.5105 46.5363 71.5105 45.0784V30.7063H68.2627V26.3621H71.5105V19.8488H77.532V26.3562H81.3131V30.7004H77.532V43.0337C77.532 43.9879 77.6505 44.5865 77.8935 44.8235C78.1365 45.0606 78.8773 45.1791 80.116 45.1791C80.2997 45.1791 80.4953 45.1791 80.7027 45.1673C80.9101 45.1614 81.1116 45.1495 81.3131 45.1376L81.3072 45.1436Z"/>
<path d="M94.7782 45.1436V49.7071L91.8979 49.8138C89.0235 49.9145 87.0558 49.4167 86.0068 48.3143C85.3253 47.615 84.9815 46.5363 84.9815 45.0784V30.7063H81.7337V26.3621H84.9815V19.8488H91.003V26.3562H94.7842V30.7004H91.003V43.0337C91.003 43.9879 91.1215 44.5865 91.3645 44.8235C91.6075 45.0606 92.3483 45.1791 93.587 45.1791C93.7707 45.1791 93.9663 45.1791 94.1737 45.1673C94.3811 45.1614 94.5827 45.1495 94.7842 45.1376L94.7782 45.1436Z"/>
<path d="M103.852 17.7328V23.3631H97.6822V17.7328H103.852ZM103.852 26.1486V49.4876H97.6822V26.1486H103.852Z"/>
<path d="M119.605 30.6649C117.542 30.6649 116.126 31.542 115.355 33.2963C114.958 34.2268 114.757 35.4121 114.757 36.8523V49.4878H108.694V26.1903H114.567V29.5981C115.35 28.4009 116.09 27.5356 116.79 27.0082C118.04 26.0658 119.629 25.5976 121.555 25.5976C123.961 25.5976 125.929 26.2318 127.458 27.4941C128.987 28.7565 129.751 30.8545 129.751 33.7764V49.4938H123.516V35.2936C123.516 34.0668 123.35 33.1244 123.024 32.4666C122.426 31.2694 121.288 30.6649 119.611 30.6649H119.605Z"/>
<path d="M140.846 53.577C141.498 54.1341 142.606 54.4127 144.153 54.4127C146.346 54.4127 147.81 53.6778 148.551 52.208C149.037 51.2657 149.28 49.6833 149.28 47.4548V45.9554C148.693 46.957 148.071 47.7038 147.401 48.2016C146.192 49.1321 144.615 49.5944 142.683 49.5944C139.696 49.5944 137.308 48.5394 135.518 46.4355C133.728 44.3315 132.839 41.4808 132.839 37.8774C132.839 34.274 133.699 31.4945 135.423 29.1297C137.148 26.765 139.59 25.5856 142.748 25.5856C143.916 25.5856 144.935 25.7634 145.801 26.119C147.282 26.7354 148.48 27.8614 149.386 29.5031V26.1427H155.301V48.2846C155.301 51.2953 154.797 53.5652 153.784 55.0943C152.047 57.7198 148.717 59.0355 143.792 59.0355C140.816 59.0355 138.386 58.4487 136.508 57.2812C134.629 56.1077 133.592 54.3594 133.39 52.0361H140.01C140.182 52.7473 140.461 53.2629 140.846 53.577ZM139.827 41.5223C140.65 43.4899 142.132 44.4797 144.266 44.4797C145.688 44.4797 146.891 43.9404 147.875 42.8617C148.859 41.7831 149.351 40.0643 149.351 37.7115C149.351 35.5008 148.883 33.8118 147.952 32.6561C147.022 31.5004 145.771 30.9196 144.206 30.9196C142.073 30.9196 140.597 31.9271 139.785 33.9362C139.358 35.0089 139.145 36.3306 139.145 37.8952C139.145 39.2524 139.37 40.4555 139.827 41.5164V41.5223Z"/>
<path d="M158.057 34.3689H170.313V40.1532H158.057V34.3689Z"/>
<path d="M193.284 42.6363C193.13 44.0231 192.407 45.4277 191.127 46.856C189.136 49.1259 186.344 50.2638 182.759 50.2638C179.795 50.2638 177.188 49.3097 174.924 47.3954C172.66 45.4811 171.528 42.3696 171.528 38.0609C171.528 34.019 172.547 30.9253 174.592 28.768C176.636 26.6107 179.286 25.532 182.545 25.532C184.483 25.532 186.226 25.8936 187.778 26.6225C189.331 27.3515 190.611 28.5013 191.625 30.0718C192.538 31.4587 193.124 33.0648 193.397 34.8902C193.551 35.9629 193.616 37.5038 193.587 39.513H177.656C177.739 41.854 178.474 43.4956 179.855 44.438C180.696 45.0247 181.704 45.3151 182.889 45.3151C184.14 45.3151 185.159 44.9595 185.941 44.2424C186.368 43.8572 186.747 43.3238 187.073 42.6363H193.29H193.284ZM187.263 35.4828C187.162 33.8708 186.676 32.644 185.799 31.8083C184.922 30.9727 183.837 30.5578 182.539 30.5578C181.129 30.5578 180.038 31.0023 179.262 31.8854C178.486 32.7685 178 33.9716 177.798 35.4828H187.263Z"/>
<path d="M217.773 17.9638V49.4876H211.859V46.2516C210.987 47.6384 210.003 48.646 208.889 49.2683C207.781 49.8965 206.4 50.2106 204.747 50.2106C202.026 50.2106 199.739 49.1082 197.884 46.9035C196.028 44.6988 195.098 41.8659 195.098 38.4107C195.098 34.428 196.011 31.2928 197.842 29.0111C199.673 26.7293 202.115 25.5855 205.179 25.5855C206.59 25.5855 207.84 25.8937 208.937 26.516C210.033 27.1383 210.922 27.9976 211.604 29.094V17.9638H217.773ZM201.374 37.9662C201.374 40.1235 201.801 41.8422 202.654 43.1283C203.496 44.4262 204.776 45.0781 206.501 45.0781C208.225 45.0781 209.535 44.4381 210.43 43.152C211.325 41.8659 211.776 40.2065 211.776 38.1618C211.776 35.3051 211.058 33.2664 209.618 32.0396C208.735 31.2987 207.71 30.9254 206.542 30.9254C204.764 30.9254 203.455 31.601 202.625 32.9464C201.795 34.2917 201.374 35.9689 201.374 37.9662Z"/>
<path d="M228.791 53.577C229.443 54.1341 230.551 54.4127 232.098 54.4127C234.291 54.4127 235.755 53.6778 236.495 52.208C236.981 51.2657 237.224 49.6833 237.224 47.4548V45.9554C236.638 46.957 236.015 47.7038 235.346 48.2016C234.137 49.1321 232.56 49.5944 230.628 49.5944C227.641 49.5944 225.253 48.5394 223.463 46.4355C221.673 44.3315 220.784 41.4808 220.784 37.8774C220.784 34.274 221.643 31.4944 223.368 29.1297C225.093 26.765 227.534 25.5856 230.693 25.5856C231.861 25.5856 232.88 25.7634 233.746 26.119C235.227 26.7354 236.424 27.8614 237.331 29.5031V26.1427H243.246V48.2846C243.246 51.2953 242.742 53.5652 241.729 55.0943C239.992 57.7198 236.661 59.0355 231.736 59.0355C228.761 59.0355 226.331 58.4487 224.453 57.2812C222.574 56.1077 221.537 54.3594 221.335 52.0361H227.955C228.127 52.7473 228.406 53.2629 228.791 53.577ZM227.766 41.5223C228.589 43.4899 230.071 44.4797 232.205 44.4797C233.627 44.4797 234.83 43.9404 235.814 42.8617C236.798 41.7831 237.29 40.0643 237.29 37.7115C237.29 35.5008 236.821 33.8118 235.891 32.6561C234.96 31.5004 233.71 30.9196 232.145 30.9196C230.012 30.9196 228.536 31.9271 227.724 33.9362C227.297 35.0089 227.084 36.3306 227.084 37.8952C227.084 39.2524 227.309 40.4555 227.766 41.5164V41.5223Z"/>
<path d="M267.758 42.6363C267.604 44.0231 266.881 45.4277 265.601 46.856C263.61 49.1259 260.818 50.2638 257.233 50.2638C254.269 50.2638 251.662 49.3097 249.398 47.3954C247.134 45.4811 246.002 42.3696 246.002 38.0609C246.002 34.019 247.021 30.9253 249.066 28.768C251.111 26.6107 253.76 25.532 257.019 25.532C258.957 25.532 260.7 25.8936 262.253 26.6225C263.805 27.3515 265.086 28.5013 266.099 30.0718C267.012 31.4587 267.598 33.0648 267.871 34.8902C268.025 35.9629 268.09 37.5038 268.061 39.513H252.13C252.213 41.854 252.948 43.4956 254.329 44.438C255.17 45.0247 256.178 45.3151 257.363 45.3151C258.614 45.3151 259.633 44.9595 260.415 44.2424C260.842 43.8572 261.221 43.3238 261.547 42.6363H267.764H267.758ZM261.737 35.4828C261.636 33.8708 261.15 32.644 260.273 31.8083C259.396 30.9727 258.311 30.5578 257.013 30.5578C255.603 30.5578 254.512 31.0023 253.736 31.8854C252.96 32.7685 252.474 33.9716 252.272 35.4828H261.737Z"/>
<path d="M83.5621 56.2717V64.3798H69.8865V102.066H60.2731V64.3798H46.5372V56.2717H83.5621Z"/>
<path d="M96.5602 95.5948C96.4062 96.9816 95.6831 98.3862 94.403 99.8146C92.4116 102.084 89.6202 103.222 86.0346 103.222C83.0712 103.222 80.4635 102.268 78.1996 100.354C75.9356 98.4396 74.8036 95.3281 74.8036 91.0195C74.8036 86.9775 75.823 83.8838 77.8677 81.7265C79.9124 79.5692 82.5616 78.4906 85.8212 78.4906C87.7592 78.4906 89.5016 78.8521 91.0544 79.5811C92.6072 80.31 93.8873 81.4598 94.9008 83.0304C95.8135 84.4172 96.4002 86.0233 96.6729 87.8487C96.8269 88.9214 96.8921 90.4624 96.8625 92.4715H80.9317C81.0147 94.8125 81.7496 96.4542 83.1305 97.3965C83.9721 97.9832 84.9796 98.2736 86.1649 98.2736C87.4155 98.2736 88.4348 97.918 89.2172 97.2009C89.6439 96.8157 90.0232 96.2823 90.3491 95.5948H96.5662H96.5602ZM90.5388 88.4473C90.438 86.8353 89.9521 85.6085 89.0749 84.7728C88.1978 83.9371 87.1132 83.5223 85.8153 83.5223C84.4047 83.5223 83.3142 83.9668 82.5379 84.8498C81.7615 85.7329 81.2755 86.936 81.074 88.4473H90.5388Z"/>
<path d="M113.771 87.4812C113.659 86.6099 113.368 85.8276 112.894 85.1283C112.213 84.186 111.152 83.7178 109.712 83.7178C107.661 83.7178 106.257 84.7371 105.504 86.7818C105.107 87.8664 104.905 89.3066 104.905 91.1082C104.905 92.9099 105.107 94.2019 105.504 95.2391C106.227 97.183 107.596 98.1491 109.605 98.1491C111.027 98.1491 112.041 97.7638 112.639 96.9934C113.238 96.2229 113.6 95.2213 113.73 93.9945H119.947C119.805 95.8495 119.135 97.6038 117.938 99.2633C116.03 101.93 113.203 103.27 109.463 103.27C105.723 103.27 102.961 102.155 101.201 99.9271C99.435 97.6987 98.5519 94.8065 98.5519 91.2564C98.5519 87.2441 99.5239 84.1267 101.48 81.8983C103.435 79.6699 106.12 78.5557 109.552 78.5557C112.468 78.5557 114.856 79.2135 116.717 80.5233C118.572 81.839 119.674 84.1563 120.018 87.4812H113.771Z"/>
<path d="M144.133 88.7436V102.446H137.922V88.2458C137.922 86.9893 137.709 85.9759 137.282 85.2054C136.725 84.1209 135.676 83.5756 134.123 83.5756C132.571 83.5756 131.296 84.1149 130.461 85.1936C129.625 86.2722 129.21 87.8072 129.21 89.8104V102.446H123.147V70.9875H129.21V82.1473C130.093 80.7901 131.113 79.8478 132.274 79.3084C133.436 78.775 134.657 78.5083 135.937 78.5083C137.377 78.5083 138.681 78.7573 139.854 79.2551C141.028 79.7529 141.994 80.5175 142.747 81.5487C143.387 82.4199 143.778 83.3148 143.92 84.2335C144.062 85.1521 144.133 86.6575 144.133 88.7436Z"/>
<path d="M159.673 83.6289C157.61 83.6289 156.194 84.5061 155.424 86.2603C155.026 87.1908 154.825 88.3762 154.825 89.8163V102.452H148.762V79.1543H154.635V82.5621C155.418 81.365 156.158 80.4997 156.858 79.9722C158.108 79.0299 159.697 78.5617 161.623 78.5617C164.029 78.5617 165.997 79.1958 167.526 80.4582C169.055 81.7206 169.819 83.8186 169.819 86.7404V102.458H163.585V88.2576C163.585 87.0308 163.419 86.0885 163.093 85.4306C162.494 84.2334 161.356 83.6289 159.679 83.6289H159.673Z"/>
<path d="M193.751 82.0643C195.719 84.5357 196.697 87.4516 196.697 90.8238C196.697 94.1961 195.713 97.1831 193.751 99.613C191.789 102.049 188.802 103.264 184.802 103.264C180.801 103.264 177.82 102.049 175.853 99.613C173.885 97.1772 172.907 94.2494 172.907 90.8238C172.907 87.3983 173.891 84.5357 175.853 82.0643C177.814 79.5929 180.801 78.3602 184.802 78.3602C188.802 78.3602 191.783 79.5929 193.751 82.0643ZM184.784 83.5222C183.006 83.5222 181.637 84.1564 180.671 85.4188C179.711 86.6811 179.231 88.4828 179.231 90.8238C179.231 93.1649 179.711 94.9725 180.671 96.2408C181.631 97.5091 183 98.1492 184.784 98.1492C186.568 98.1492 187.931 97.515 188.885 96.2408C189.839 94.9725 190.314 93.1649 190.314 90.8238C190.314 88.4828 189.839 86.6811 188.885 85.4188C187.931 84.1564 186.562 83.5222 184.784 83.5222Z"/>
<path d="M200.087 70.8866H206.173V102.452H200.087V70.8866Z"/>
<path d="M230.431 82.0643C232.398 84.5357 233.376 87.4516 233.376 90.8238C233.376 94.1961 232.392 97.1831 230.431 99.613C228.469 102.049 225.482 103.264 221.481 103.264C217.481 103.264 214.5 102.049 212.532 99.613C210.565 97.1772 209.587 94.2494 209.587 90.8238C209.587 87.3983 210.571 84.5357 212.532 82.0643C214.494 79.5929 217.481 78.3602 221.481 78.3602C225.482 78.3602 228.463 79.5929 230.431 82.0643ZM221.458 83.5222C219.68 83.5222 218.311 84.1564 217.345 85.4188C216.385 86.6811 215.905 88.4828 215.905 90.8238C215.905 93.1649 216.385 94.9725 217.345 96.2408C218.305 97.5091 219.674 98.1492 221.458 98.1492C223.242 98.1492 224.605 97.515 225.559 96.2408C226.513 94.9725 226.987 93.1649 226.987 90.8238C226.987 88.4828 226.513 86.6811 225.559 85.4188C224.605 84.1564 223.236 83.5222 221.458 83.5222Z"/>
<path d="M243.214 106.542C243.866 107.099 244.975 107.377 246.522 107.377C248.714 107.377 250.178 106.642 250.919 105.173C251.405 104.23 251.648 102.648 251.648 100.419V98.9199C251.061 99.9215 250.439 100.668 249.769 101.166C248.56 102.097 246.984 102.559 245.052 102.559C242.065 102.559 239.676 101.504 237.886 99.4C236.097 97.296 235.208 94.4453 235.208 90.8419C235.208 87.2386 236.067 84.459 237.792 82.0943C239.516 79.7295 241.958 78.5501 245.117 78.5501C246.284 78.5501 247.304 78.7279 248.169 79.0835C249.651 79.6999 250.848 80.826 251.755 82.4676V79.1072H257.669V101.249C257.669 104.26 257.166 106.53 256.152 108.059C254.416 110.684 251.085 112 246.16 112C243.185 112 240.755 111.413 238.876 110.246C236.997 109.072 235.96 107.324 235.759 105.001H242.379C242.551 105.712 242.829 106.227 243.214 106.542ZM242.189 94.4868C243.013 96.4545 244.495 97.4442 246.628 97.4442C248.051 97.4442 249.254 96.9049 250.238 95.8262C251.221 94.7476 251.713 93.0289 251.713 90.676C251.713 88.4654 251.245 86.7763 250.315 85.6206C249.384 84.4649 248.134 83.8841 246.569 83.8841C244.435 83.8841 242.96 84.8916 242.148 86.9007C241.721 87.9735 241.508 89.2951 241.508 90.8597C241.508 92.2169 241.733 93.42 242.189 94.4809V94.4868Z"/>
<path d="M271.722 96.3238L276.528 79.1069H283L275.011 102.061C273.476 106.488 272.255 109.232 271.36 110.293C270.465 111.354 268.669 111.887 265.979 111.887C265.439 111.887 265.001 111.887 264.675 111.875C264.349 111.869 263.857 111.846 263.199 111.798V106.915L263.97 106.956C264.568 106.986 265.137 106.962 265.676 106.891C266.216 106.82 266.672 106.654 267.046 106.399C267.401 106.156 267.733 105.652 268.035 104.876C268.338 104.1 268.468 103.631 268.409 103.465L259.868 79.0951H266.637L271.722 96.3119V96.3238Z"/>
</mask>
<path d="M36.2878 45.6812C32.775 48.8614 28.2775 50.4515 22.7954 50.4515C16.0182 50.4515 10.6957 48.3022 6.81034 44.0124C2.94269 39.6877 1 33.7728 1 26.2678C1 18.1425 3.20882 11.8781 7.61757 7.48349C11.4497 3.648 16.3286 1.73462 22.2543 1.73462C30.1847 1.73462 35.9773 4.30326 39.641 9.44055C41.6635 12.3237 42.7546 15.2156 42.8965 18.125H33.05C32.4113 15.8971 31.5863 14.2109 30.5928 13.0751C28.8009 11.0569 26.1486 10.0434 22.6357 10.0434C19.1229 10.0434 16.2311 11.4675 14.1642 14.3245C12.0973 17.1727 11.0594 21.2091 11.0594 26.4338C11.0594 31.6585 12.1505 35.5638 14.3327 38.1587C16.5149 40.7623 19.2915 42.0554 22.6624 42.0554C26.0332 42.0554 28.7477 40.937 30.5573 38.7091C31.5597 37.5122 32.3936 35.7124 33.05 33.3097H42.7989C41.9473 38.3859 39.774 42.5097 36.2789 45.6812H36.2878Z" fill="white"/>
<path d="M59.9592 46.1924C59.9 46.2635 59.7577 46.4769 59.5325 46.8325C59.3073 47.1881 59.0347 47.5022 58.7206 47.7748C57.7664 48.6342 56.8418 49.215 55.9528 49.5291C55.0638 49.8432 54.0208 49.9973 52.8236 49.9973C49.3802 49.9973 47.057 48.7527 45.8598 46.2695C45.1901 44.9004 44.8582 42.8794 44.8582 40.2065V26.1486H51.093V40.2184C51.093 41.5459 51.2471 42.5475 51.5612 43.2173C52.1183 44.4026 53.2029 44.9952 54.8268 44.9952C56.907 44.9952 58.3294 44.1537 59.0999 42.4705C59.497 41.5578 59.6985 40.3488 59.6985 38.8493V26.1486H65.8681V49.4876H59.9533V46.1924H59.9592Z" fill="white"/>
<path d="M81.3072 45.1436V49.7071L78.4269 49.8138C75.5525 49.9145 73.5848 49.4167 72.5358 48.3143C71.8543 47.615 71.5105 46.5363 71.5105 45.0784V30.7063H68.2627V26.3621H71.5105V19.8488H77.532V26.3562H81.3131V30.7004H77.532V43.0337C77.532 43.9879 77.6505 44.5865 77.8935 44.8235C78.1365 45.0606 78.8773 45.1791 80.116 45.1791C80.2997 45.1791 80.4953 45.1791 80.7027 45.1673C80.9101 45.1614 81.1116 45.1495 81.3131 45.1376L81.3072 45.1436Z" fill="white"/>
<path d="M94.7782 45.1436V49.7071L91.8979 49.8138C89.0235 49.9145 87.0558 49.4167 86.0068 48.3143C85.3253 47.615 84.9815 46.5363 84.9815 45.0784V30.7063H81.7337V26.3621H84.9815V19.8488H91.003V26.3562H94.7842V30.7004H91.003V43.0337C91.003 43.9879 91.1215 44.5865 91.3645 44.8235C91.6075 45.0606 92.3483 45.1791 93.587 45.1791C93.7707 45.1791 93.9663 45.1791 94.1737 45.1673C94.3811 45.1614 94.5827 45.1495 94.7842 45.1376L94.7782 45.1436Z" fill="white"/>
<path d="M103.852 17.7328V23.3631H97.6822V17.7328H103.852ZM103.852 26.1486V49.4876H97.6822V26.1486H103.852Z" fill="white"/>
<path d="M119.605 30.6649C117.542 30.6649 116.126 31.542 115.355 33.2963C114.958 34.2268 114.757 35.4121 114.757 36.8523V49.4878H108.694V26.1903H114.567V29.5981C115.35 28.4009 116.09 27.5356 116.79 27.0082C118.04 26.0658 119.629 25.5976 121.555 25.5976C123.961 25.5976 125.929 26.2318 127.458 27.4941C128.987 28.7565 129.751 30.8545 129.751 33.7764V49.4938H123.516V35.2936C123.516 34.0668 123.35 33.1244 123.024 32.4666C122.426 31.2694 121.288 30.6649 119.611 30.6649H119.605Z" fill="white"/>
<path d="M140.846 53.577C141.498 54.1341 142.606 54.4127 144.153 54.4127C146.346 54.4127 147.81 53.6778 148.551 52.208C149.037 51.2657 149.28 49.6833 149.28 47.4548V45.9554C148.693 46.957 148.071 47.7038 147.401 48.2016C146.192 49.1321 144.615 49.5944 142.683 49.5944C139.696 49.5944 137.308 48.5394 135.518 46.4355C133.728 44.3315 132.839 41.4808 132.839 37.8774C132.839 34.274 133.699 31.4945 135.423 29.1297C137.148 26.765 139.59 25.5856 142.748 25.5856C143.916 25.5856 144.935 25.7634 145.801 26.119C147.282 26.7354 148.48 27.8614 149.386 29.5031V26.1427H155.301V48.2846C155.301 51.2953 154.797 53.5652 153.784 55.0943C152.047 57.7198 148.717 59.0355 143.792 59.0355C140.816 59.0355 138.386 58.4487 136.508 57.2812C134.629 56.1077 133.592 54.3594 133.39 52.0361H140.01C140.182 52.7473 140.461 53.2629 140.846 53.577ZM139.827 41.5223C140.65 43.4899 142.132 44.4797 144.266 44.4797C145.688 44.4797 146.891 43.9404 147.875 42.8617C148.859 41.7831 149.351 40.0643 149.351 37.7115C149.351 35.5008 148.883 33.8118 147.952 32.6561C147.022 31.5004 145.771 30.9196 144.206 30.9196C142.073 30.9196 140.597 31.9271 139.785 33.9362C139.358 35.0089 139.145 36.3306 139.145 37.8952C139.145 39.2524 139.37 40.4555 139.827 41.5164V41.5223Z" fill="white"/>
<path d="M158.057 34.3689H170.313V40.1532H158.057V34.3689Z" fill="white"/>
<path d="M193.284 42.6363C193.13 44.0231 192.407 45.4277 191.127 46.856C189.136 49.1259 186.344 50.2638 182.759 50.2638C179.795 50.2638 177.188 49.3097 174.924 47.3954C172.66 45.4811 171.528 42.3696 171.528 38.0609C171.528 34.019 172.547 30.9253 174.592 28.768C176.636 26.6107 179.286 25.532 182.545 25.532C184.483 25.532 186.226 25.8936 187.778 26.6225C189.331 27.3515 190.611 28.5013 191.625 30.0718C192.538 31.4587 193.124 33.0648 193.397 34.8902C193.551 35.9629 193.616 37.5038 193.587 39.513H177.656C177.739 41.854 178.474 43.4956 179.855 44.438C180.696 45.0247 181.704 45.3151 182.889 45.3151C184.14 45.3151 185.159 44.9595 185.941 44.2424C186.368 43.8572 186.747 43.3238 187.073 42.6363H193.29H193.284ZM187.263 35.4828C187.162 33.8708 186.676 32.644 185.799 31.8083C184.922 30.9727 183.837 30.5578 182.539 30.5578C181.129 30.5578 180.038 31.0023 179.262 31.8854C178.486 32.7685 178 33.9716 177.798 35.4828H187.263Z" fill="white"/>
<path d="M217.773 17.9638V49.4876H211.859V46.2516C210.987 47.6384 210.003 48.646 208.889 49.2683C207.781 49.8965 206.4 50.2106 204.747 50.2106C202.026 50.2106 199.739 49.1082 197.884 46.9035C196.028 44.6988 195.098 41.8659 195.098 38.4107C195.098 34.428 196.011 31.2928 197.842 29.0111C199.673 26.7293 202.115 25.5855 205.179 25.5855C206.59 25.5855 207.84 25.8937 208.937 26.516C210.033 27.1383 210.922 27.9976 211.604 29.094V17.9638H217.773ZM201.374 37.9662C201.374 40.1235 201.801 41.8422 202.654 43.1283C203.496 44.4262 204.776 45.0781 206.501 45.0781C208.225 45.0781 209.535 44.4381 210.43 43.152C211.325 41.8659 211.776 40.2065 211.776 38.1618C211.776 35.3051 211.058 33.2664 209.618 32.0396C208.735 31.2987 207.71 30.9254 206.542 30.9254C204.764 30.9254 203.455 31.601 202.625 32.9464C201.795 34.2917 201.374 35.9689 201.374 37.9662Z" fill="white"/>
<path d="M228.791 53.577C229.443 54.1341 230.551 54.4127 232.098 54.4127C234.291 54.4127 235.755 53.6778 236.495 52.208C236.981 51.2657 237.224 49.6833 237.224 47.4548V45.9554C236.638 46.957 236.015 47.7038 235.346 48.2016C234.137 49.1321 232.56 49.5944 230.628 49.5944C227.641 49.5944 225.253 48.5394 223.463 46.4355C221.673 44.3315 220.784 41.4808 220.784 37.8774C220.784 34.274 221.643 31.4944 223.368 29.1297C225.093 26.765 227.534 25.5856 230.693 25.5856C231.861 25.5856 232.88 25.7634 233.746 26.119C235.227 26.7354 236.424 27.8614 237.331 29.5031V26.1427H243.246V48.2846C243.246 51.2953 242.742 53.5652 241.729 55.0943C239.992 57.7198 236.661 59.0355 231.736 59.0355C228.761 59.0355 226.331 58.4487 224.453 57.2812C222.574 56.1077 221.537 54.3594 221.335 52.0361H227.955C228.127 52.7473 228.406 53.2629 228.791 53.577ZM227.766 41.5223C228.589 43.4899 230.071 44.4797 232.205 44.4797C233.627 44.4797 234.83 43.9404 235.814 42.8617C236.798 41.7831 237.29 40.0643 237.29 37.7115C237.29 35.5008 236.821 33.8118 235.891 32.6561C234.96 31.5004 233.71 30.9196 232.145 30.9196C230.012 30.9196 228.536 31.9271 227.724 33.9362C227.297 35.0089 227.084 36.3306 227.084 37.8952C227.084 39.2524 227.309 40.4555 227.766 41.5164V41.5223Z" fill="white"/>
<path d="M267.758 42.6363C267.604 44.0231 266.881 45.4277 265.601 46.856C263.61 49.1259 260.818 50.2638 257.233 50.2638C254.269 50.2638 251.662 49.3097 249.398 47.3954C247.134 45.4811 246.002 42.3696 246.002 38.0609C246.002 34.019 247.021 30.9253 249.066 28.768C251.111 26.6107 253.76 25.532 257.019 25.532C258.957 25.532 260.7 25.8936 262.253 26.6225C263.805 27.3515 265.086 28.5013 266.099 30.0718C267.012 31.4587 267.598 33.0648 267.871 34.8902C268.025 35.9629 268.09 37.5038 268.061 39.513H252.13C252.213 41.854 252.948 43.4956 254.329 44.438C255.17 45.0247 256.178 45.3151 257.363 45.3151C258.614 45.3151 259.633 44.9595 260.415 44.2424C260.842 43.8572 261.221 43.3238 261.547 42.6363H267.764H267.758ZM261.737 35.4828C261.636 33.8708 261.15 32.644 260.273 31.8083C259.396 30.9727 258.311 30.5578 257.013 30.5578C255.603 30.5578 254.512 31.0023 253.736 31.8854C252.96 32.7685 252.474 33.9716 252.272 35.4828H261.737Z" fill="white"/>
<path d="M83.5621 56.2717V64.3798H69.8865V102.066H60.2731V64.3798H46.5372V56.2717H83.5621Z" fill="white"/>
<path d="M96.5602 95.5948C96.4062 96.9816 95.6831 98.3862 94.403 99.8146C92.4116 102.084 89.6202 103.222 86.0346 103.222C83.0712 103.222 80.4635 102.268 78.1996 100.354C75.9356 98.4396 74.8036 95.3281 74.8036 91.0195C74.8036 86.9775 75.823 83.8838 77.8677 81.7265C79.9124 79.5692 82.5616 78.4906 85.8212 78.4906C87.7592 78.4906 89.5016 78.8521 91.0544 79.5811C92.6072 80.31 93.8873 81.4598 94.9008 83.0304C95.8135 84.4172 96.4002 86.0233 96.6729 87.8487C96.8269 88.9214 96.8921 90.4624 96.8625 92.4715H80.9317C81.0147 94.8125 81.7496 96.4542 83.1305 97.3965C83.9721 97.9832 84.9796 98.2736 86.1649 98.2736C87.4155 98.2736 88.4348 97.918 89.2172 97.2009C89.6439 96.8157 90.0232 96.2823 90.3491 95.5948H96.5662H96.5602ZM90.5388 88.4473C90.438 86.8353 89.9521 85.6085 89.0749 84.7728C88.1978 83.9371 87.1132 83.5223 85.8153 83.5223C84.4047 83.5223 83.3142 83.9668 82.5379 84.8498C81.7615 85.7329 81.2755 86.936 81.074 88.4473H90.5388Z" fill="white"/>
<path d="M113.771 87.4812C113.659 86.6099 113.368 85.8276 112.894 85.1283C112.213 84.186 111.152 83.7178 109.712 83.7178C107.661 83.7178 106.257 84.7371 105.504 86.7818C105.107 87.8664 104.905 89.3066 104.905 91.1082C104.905 92.9099 105.107 94.2019 105.504 95.2391C106.227 97.183 107.596 98.1491 109.605 98.1491C111.027 98.1491 112.041 97.7638 112.639 96.9934C113.238 96.2229 113.6 95.2213 113.73 93.9945H119.947C119.805 95.8495 119.135 97.6038 117.938 99.2633C116.03 101.93 113.203 103.27 109.463 103.27C105.723 103.27 102.961 102.155 101.201 99.9271C99.435 97.6987 98.5519 94.8065 98.5519 91.2564C98.5519 87.2441 99.5239 84.1267 101.48 81.8983C103.435 79.6699 106.12 78.5557 109.552 78.5557C112.468 78.5557 114.856 79.2135 116.717 80.5233C118.572 81.839 119.674 84.1563 120.018 87.4812H113.771Z" fill="white"/>
<path d="M144.133 88.7436V102.446H137.922V88.2458C137.922 86.9893 137.709 85.9759 137.282 85.2054C136.725 84.1209 135.676 83.5756 134.123 83.5756C132.571 83.5756 131.296 84.1149 130.461 85.1936C129.625 86.2722 129.21 87.8072 129.21 89.8104V102.446H123.147V70.9875H129.21V82.1473C130.093 80.7901 131.113 79.8478 132.274 79.3084C133.436 78.775 134.657 78.5083 135.937 78.5083C137.377 78.5083 138.681 78.7573 139.854 79.2551C141.028 79.7529 141.994 80.5175 142.747 81.5487C143.387 82.4199 143.778 83.3148 143.92 84.2335C144.062 85.1521 144.133 86.6575 144.133 88.7436Z" fill="white"/>
<path d="M159.673 83.6289C157.61 83.6289 156.194 84.5061 155.424 86.2603C155.026 87.1908 154.825 88.3762 154.825 89.8163V102.452H148.762V79.1543H154.635V82.5621C155.418 81.365 156.158 80.4997 156.858 79.9722C158.108 79.0299 159.697 78.5617 161.623 78.5617C164.029 78.5617 165.997 79.1958 167.526 80.4582C169.055 81.7206 169.819 83.8186 169.819 86.7404V102.458H163.585V88.2576C163.585 87.0308 163.419 86.0885 163.093 85.4306C162.494 84.2334 161.356 83.6289 159.679 83.6289H159.673Z" fill="white"/>
<path d="M193.751 82.0643C195.719 84.5357 196.697 87.4516 196.697 90.8238C196.697 94.1961 195.713 97.1831 193.751 99.613C191.789 102.049 188.802 103.264 184.802 103.264C180.801 103.264 177.82 102.049 175.853 99.613C173.885 97.1772 172.907 94.2494 172.907 90.8238C172.907 87.3983 173.891 84.5357 175.853 82.0643C177.814 79.5929 180.801 78.3602 184.802 78.3602C188.802 78.3602 191.783 79.5929 193.751 82.0643ZM184.784 83.5222C183.006 83.5222 181.637 84.1564 180.671 85.4188C179.711 86.6811 179.231 88.4828 179.231 90.8238C179.231 93.1649 179.711 94.9725 180.671 96.2408C181.631 97.5091 183 98.1492 184.784 98.1492C186.568 98.1492 187.931 97.515 188.885 96.2408C189.839 94.9725 190.314 93.1649 190.314 90.8238C190.314 88.4828 189.839 86.6811 188.885 85.4188C187.931 84.1564 186.562 83.5222 184.784 83.5222Z" fill="white"/>
<path d="M200.087 70.8866H206.173V102.452H200.087V70.8866Z" fill="white"/>
<path d="M230.431 82.0643C232.398 84.5357 233.376 87.4516 233.376 90.8238C233.376 94.1961 232.392 97.1831 230.431 99.613C228.469 102.049 225.482 103.264 221.481 103.264C217.481 103.264 214.5 102.049 212.532 99.613C210.565 97.1772 209.587 94.2494 209.587 90.8238C209.587 87.3983 210.571 84.5357 212.532 82.0643C214.494 79.5929 217.481 78.3602 221.481 78.3602C225.482 78.3602 228.463 79.5929 230.431 82.0643ZM221.458 83.5222C219.68 83.5222 218.311 84.1564 217.345 85.4188C216.385 86.6811 215.905 88.4828 215.905 90.8238C215.905 93.1649 216.385 94.9725 217.345 96.2408C218.305 97.5091 219.674 98.1492 221.458 98.1492C223.242 98.1492 224.605 97.515 225.559 96.2408C226.513 94.9725 226.987 93.1649 226.987 90.8238C226.987 88.4828 226.513 86.6811 225.559 85.4188C224.605 84.1564 223.236 83.5222 221.458 83.5222Z" fill="white"/>
<path d="M243.214 106.542C243.866 107.099 244.975 107.377 246.522 107.377C248.714 107.377 250.178 106.642 250.919 105.173C251.405 104.23 251.648 102.648 251.648 100.419V98.9199C251.061 99.9215 250.439 100.668 249.769 101.166C248.56 102.097 246.984 102.559 245.052 102.559C242.065 102.559 239.676 101.504 237.886 99.4C236.097 97.296 235.208 94.4453 235.208 90.8419C235.208 87.2386 236.067 84.459 237.792 82.0943C239.516 79.7295 241.958 78.5501 245.117 78.5501C246.284 78.5501 247.304 78.7279 248.169 79.0835C249.651 79.6999 250.848 80.826 251.755 82.4676V79.1072H257.669V101.249C257.669 104.26 257.166 106.53 256.152 108.059C254.416 110.684 251.085 112 246.16 112C243.185 112 240.755 111.413 238.876 110.246C236.997 109.072 235.96 107.324 235.759 105.001H242.379C242.551 105.712 242.829 106.227 243.214 106.542ZM242.189 94.4868C243.013 96.4545 244.495 97.4442 246.628 97.4442C248.051 97.4442 249.254 96.9049 250.238 95.8262C251.221 94.7476 251.713 93.0289 251.713 90.676C251.713 88.4654 251.245 86.7763 250.315 85.6206C249.384 84.4649 248.134 83.8841 246.569 83.8841C244.435 83.8841 242.96 84.8916 242.148 86.9007C241.721 87.9735 241.508 89.2951 241.508 90.8597C241.508 92.2169 241.733 93.42 242.189 94.4809V94.4868Z" fill="white"/>
<path d="M271.722 96.3238L276.528 79.1069H283L275.011 102.061C273.476 106.488 272.255 109.232 271.36 110.293C270.465 111.354 268.669 111.887 265.979 111.887C265.439 111.887 265.001 111.887 264.675 111.875C264.349 111.869 263.857 111.846 263.199 111.798V106.915L263.97 106.956C264.568 106.986 265.137 106.962 265.676 106.891C266.216 106.82 266.672 106.654 267.046 106.399C267.401 106.156 267.733 105.652 268.035 104.876C268.338 104.1 268.468 103.631 268.409 103.465L259.868 79.0951H266.637L271.722 96.3119V96.3238Z" fill="white"/>
<path d="M36.2878 45.6812C32.775 48.8614 28.2775 50.4515 22.7954 50.4515C16.0182 50.4515 10.6957 48.3022 6.81034 44.0124C2.94269 39.6877 1 33.7728 1 26.2678C1 18.1425 3.20882 11.8781 7.61757 7.48349C11.4497 3.648 16.3286 1.73462 22.2543 1.73462C30.1847 1.73462 35.9773 4.30326 39.641 9.44055C41.6635 12.3237 42.7546 15.2156 42.8965 18.125H33.05C32.4113 15.8971 31.5863 14.2109 30.5928 13.0751C28.8009 11.0569 26.1486 10.0434 22.6357 10.0434C19.1229 10.0434 16.2311 11.4675 14.1642 14.3245C12.0973 17.1727 11.0594 21.2091 11.0594 26.4338C11.0594 31.6585 12.1505 35.5638 14.3327 38.1587C16.5149 40.7623 19.2915 42.0554 22.6624 42.0554C26.0332 42.0554 28.7477 40.937 30.5573 38.7091C31.5597 37.5122 32.3936 35.7124 33.05 33.3097H42.7989C41.9473 38.3859 39.774 42.5097 36.2789 45.6812H36.2878Z" stroke="#707070" stroke-width="2" mask="url(#path-1-outside-1_2002_74)"/>
<path d="M59.9592 46.1924C59.9 46.2635 59.7577 46.4769 59.5325 46.8325C59.3073 47.1881 59.0347 47.5022 58.7206 47.7748C57.7664 48.6342 56.8418 49.215 55.9528 49.5291C55.0638 49.8432 54.0208 49.9973 52.8236 49.9973C49.3802 49.9973 47.057 48.7527 45.8598 46.2695C45.1901 44.9004 44.8582 42.8794 44.8582 40.2065V26.1486H51.093V40.2184C51.093 41.5459 51.2471 42.5475 51.5612 43.2173C52.1183 44.4026 53.2029 44.9952 54.8268 44.9952C56.907 44.9952 58.3294 44.1537 59.0999 42.4705C59.497 41.5578 59.6985 40.3488 59.6985 38.8493V26.1486H65.8681V49.4876H59.9533V46.1924H59.9592Z" stroke="#707070" stroke-width="2" mask="url(#path-1-outside-1_2002_74)"/>
<path d="M81.3072 45.1436V49.7071L78.4269 49.8138C75.5525 49.9145 73.5848 49.4167 72.5358 48.3143C71.8543 47.615 71.5105 46.5363 71.5105 45.0784V30.7063H68.2627V26.3621H71.5105V19.8488H77.532V26.3562H81.3131V30.7004H77.532V43.0337C77.532 43.9879 77.6505 44.5865 77.8935 44.8235C78.1365 45.0606 78.8773 45.1791 80.116 45.1791C80.2997 45.1791 80.4953 45.1791 80.7027 45.1673C80.9101 45.1614 81.1116 45.1495 81.3131 45.1376L81.3072 45.1436Z" stroke="#707070" stroke-width="2" mask="url(#path-1-outside-1_2002_74)"/>
<path d="M94.7782 45.1436V49.7071L91.8979 49.8138C89.0235 49.9145 87.0558 49.4167 86.0068 48.3143C85.3253 47.615 84.9815 46.5363 84.9815 45.0784V30.7063H81.7337V26.3621H84.9815V19.8488H91.003V26.3562H94.7842V30.7004H91.003V43.0337C91.003 43.9879 91.1215 44.5865 91.3645 44.8235C91.6075 45.0606 92.3483 45.1791 93.587 45.1791C93.7707 45.1791 93.9663 45.1791 94.1737 45.1673C94.3811 45.1614 94.5827 45.1495 94.7842 45.1376L94.7782 45.1436Z" stroke="#707070" stroke-width="2" mask="url(#path-1-outside-1_2002_74)"/>
<path d="M103.852 17.7328V23.3631H97.6822V17.7328H103.852ZM103.852 26.1486V49.4876H97.6822V26.1486H103.852Z" stroke="#707070" stroke-width="2" mask="url(#path-1-outside-1_2002_74)"/>
<path d="M119.605 30.6649C117.542 30.6649 116.126 31.542 115.355 33.2963C114.958 34.2268 114.757 35.4121 114.757 36.8523V49.4878H108.694V26.1903H114.567V29.5981C115.35 28.4009 116.09 27.5356 116.79 27.0082C118.04 26.0658 119.629 25.5976 121.555 25.5976C123.961 25.5976 125.929 26.2318 127.458 27.4941C128.987 28.7565 129.751 30.8545 129.751 33.7764V49.4938H123.516V35.2936C123.516 34.0668 123.35 33.1244 123.024 32.4666C122.426 31.2694 121.288 30.6649 119.611 30.6649H119.605Z" stroke="#707070" stroke-width="2" mask="url(#path-1-outside-1_2002_74)"/>
<path d="M140.846 53.577C141.498 54.1341 142.606 54.4127 144.153 54.4127C146.346 54.4127 147.81 53.6778 148.551 52.208C149.037 51.2657 149.28 49.6833 149.28 47.4548V45.9554C148.693 46.957 148.071 47.7038 147.401 48.2016C146.192 49.1321 144.615 49.5944 142.683 49.5944C139.696 49.5944 137.308 48.5394 135.518 46.4355C133.728 44.3315 132.839 41.4808 132.839 37.8774C132.839 34.274 133.699 31.4945 135.423 29.1297C137.148 26.765 139.59 25.5856 142.748 25.5856C143.916 25.5856 144.935 25.7634 145.801 26.119C147.282 26.7354 148.48 27.8614 149.386 29.5031V26.1427H155.301V48.2846C155.301 51.2953 154.797 53.5652 153.784 55.0943C152.047 57.7198 148.717 59.0355 143.792 59.0355C140.816 59.0355 138.386 58.4487 136.508 57.2812C134.629 56.1077 133.592 54.3594 133.39 52.0361H140.01C140.182 52.7473 140.461 53.2629 140.846 53.577ZM139.827 41.5223C140.65 43.4899 142.132 44.4797 144.266 44.4797C145.688 44.4797 146.891 43.9404 147.875 42.8617C148.859 41.7831 149.351 40.0643 149.351 37.7115C149.351 35.5008 148.883 33.8118 147.952 32.6561C147.022 31.5004 145.771 30.9196 144.206 30.9196C142.073 30.9196 140.597 31.9271 139.785 33.9362C139.358 35.0089 139.145 36.3306 139.145 37.8952C139.145 39.2524 139.37 40.4555 139.827 41.5164V41.5223Z" stroke="#707070" stroke-width="2" mask="url(#path-1-outside-1_2002_74)"/>
<path d="M158.057 34.3689H170.313V40.1532H158.057V34.3689Z" stroke="#707070" stroke-width="2" mask="url(#path-1-outside-1_2002_74)"/>
<path d="M193.284 42.6363C193.13 44.0231 192.407 45.4277 191.127 46.856C189.136 49.1259 186.344 50.2638 182.759 50.2638C179.795 50.2638 177.188 49.3097 174.924 47.3954C172.66 45.4811 171.528 42.3696 171.528 38.0609C171.528 34.019 172.547 30.9253 174.592 28.768C176.636 26.6107 179.286 25.532 182.545 25.532C184.483 25.532 186.226 25.8936 187.778 26.6225C189.331 27.3515 190.611 28.5013 191.625 30.0718C192.538 31.4587 193.124 33.0648 193.397 34.8902C193.551 35.9629 193.616 37.5038 193.587 39.513H177.656C177.739 41.854 178.474 43.4956 179.855 44.438C180.696 45.0247 181.704 45.3151 182.889 45.3151C184.14 45.3151 185.159 44.9595 185.941 44.2424C186.368 43.8572 186.747 43.3238 187.073 42.6363H193.29H193.284ZM187.263 35.4828C187.162 33.8708 186.676 32.644 185.799 31.8083C184.922 30.9727 183.837 30.5578 182.539 30.5578C181.129 30.5578 180.038 31.0023 179.262 31.8854C178.486 32.7685 178 33.9716 177.798 35.4828H187.263Z" stroke="#707070" stroke-width="2" mask="url(#path-1-outside-1_2002_74)"/>
<path d="M217.773 17.9638V49.4876H211.859V46.2516C210.987 47.6384 210.003 48.646 208.889 49.2683C207.781 49.8965 206.4 50.2106 204.747 50.2106C202.026 50.2106 199.739 49.1082 197.884 46.9035C196.028 44.6988 195.098 41.8659 195.098 38.4107C195.098 34.428 196.011 31.2928 197.842 29.0111C199.673 26.7293 202.115 25.5855 205.179 25.5855C206.59 25.5855 207.84 25.8937 208.937 26.516C210.033 27.1383 210.922 27.9976 211.604 29.094V17.9638H217.773ZM201.374 37.9662C201.374 40.1235 201.801 41.8422 202.654 43.1283C203.496 44.4262 204.776 45.0781 206.501 45.0781C208.225 45.0781 209.535 44.4381 210.43 43.152C211.325 41.8659 211.776 40.2065 211.776 38.1618C211.776 35.3051 211.058 33.2664 209.618 32.0396C208.735 31.2987 207.71 30.9254 206.542 30.9254C204.764 30.9254 203.455 31.601 202.625 32.9464C201.795 34.2917 201.374 35.9689 201.374 37.9662Z" stroke="#707070" stroke-width="2" mask="url(#path-1-outside-1_2002_74)"/>
<path d="M228.791 53.577C229.443 54.1341 230.551 54.4127 232.098 54.4127C234.291 54.4127 235.755 53.6778 236.495 52.208C236.981 51.2657 237.224 49.6833 237.224 47.4548V45.9554C236.638 46.957 236.015 47.7038 235.346 48.2016C234.137 49.1321 232.56 49.5944 230.628 49.5944C227.641 49.5944 225.253 48.5394 223.463 46.4355C221.673 44.3315 220.784 41.4808 220.784 37.8774C220.784 34.274 221.643 31.4944 223.368 29.1297C225.093 26.765 227.534 25.5856 230.693 25.5856C231.861 25.5856 232.88 25.7634 233.746 26.119C235.227 26.7354 236.424 27.8614 237.331 29.5031V26.1427H243.246V48.2846C243.246 51.2953 242.742 53.5652 241.729 55.0943C239.992 57.7198 236.661 59.0355 231.736 59.0355C228.761 59.0355 226.331 58.4487 224.453 57.2812C222.574 56.1077 221.537 54.3594 221.335 52.0361H227.955C228.127 52.7473 228.406 53.2629 228.791 53.577ZM227.766 41.5223C228.589 43.4899 230.071 44.4797 232.205 44.4797C233.627 44.4797 234.83 43.9404 235.814 42.8617C236.798 41.7831 237.29 40.0643 237.29 37.7115C237.29 35.5008 236.821 33.8118 235.891 32.6561C234.96 31.5004 233.71 30.9196 232.145 30.9196C230.012 30.9196 228.536 31.9271 227.724 33.9362C227.297 35.0089 227.084 36.3306 227.084 37.8952C227.084 39.2524 227.309 40.4555 227.766 41.5164V41.5223Z" stroke="#707070" stroke-width="2" mask="url(#path-1-outside-1_2002_74)"/>
<path d="M267.758 42.6363C267.604 44.0231 266.881 45.4277 265.601 46.856C263.61 49.1259 260.818 50.2638 257.233 50.2638C254.269 50.2638 251.662 49.3097 249.398 47.3954C247.134 45.4811 246.002 42.3696 246.002 38.0609C246.002 34.019 247.021 30.9253 249.066 28.768C251.111 26.6107 253.76 25.532 257.019 25.532C258.957 25.532 260.7 25.8936 262.253 26.6225C263.805 27.3515 265.086 28.5013 266.099 30.0718C267.012 31.4587 267.598 33.0648 267.871 34.8902C268.025 35.9629 268.09 37.5038 268.061 39.513H252.13C252.213 41.854 252.948 43.4956 254.329 44.438C255.17 45.0247 256.178 45.3151 257.363 45.3151C258.614 45.3151 259.633 44.9595 260.415 44.2424C260.842 43.8572 261.221 43.3238 261.547 42.6363H267.764H267.758ZM261.737 35.4828C261.636 33.8708 261.15 32.644 260.273 31.8083C259.396 30.9727 258.311 30.5578 257.013 30.5578C255.603 30.5578 254.512 31.0023 253.736 31.8854C252.96 32.7685 252.474 33.9716 252.272 35.4828H261.737Z" stroke="#707070" stroke-width="2" mask="url(#path-1-outside-1_2002_74)"/>
<path d="M83.5621 56.2717V64.3798H69.8865V102.066H60.2731V64.3798H46.5372V56.2717H83.5621Z" stroke="#707070" stroke-width="2" mask="url(#path-1-outside-1_2002_74)"/>
<path d="M96.5602 95.5948C96.4062 96.9816 95.6831 98.3862 94.403 99.8146C92.4116 102.084 89.6202 103.222 86.0346 103.222C83.0712 103.222 80.4635 102.268 78.1996 100.354C75.9356 98.4396 74.8036 95.3281 74.8036 91.0195C74.8036 86.9775 75.823 83.8838 77.8677 81.7265C79.9124 79.5692 82.5616 78.4906 85.8212 78.4906C87.7592 78.4906 89.5016 78.8521 91.0544 79.5811C92.6072 80.31 93.8873 81.4598 94.9008 83.0304C95.8135 84.4172 96.4002 86.0233 96.6729 87.8487C96.8269 88.9214 96.8921 90.4624 96.8625 92.4715H80.9317C81.0147 94.8125 81.7496 96.4542 83.1305 97.3965C83.9721 97.9832 84.9796 98.2736 86.1649 98.2736C87.4155 98.2736 88.4348 97.918 89.2172 97.2009C89.6439 96.8157 90.0232 96.2823 90.3491 95.5948H96.5662H96.5602ZM90.5388 88.4473C90.438 86.8353 89.9521 85.6085 89.0749 84.7728C88.1978 83.9371 87.1132 83.5223 85.8153 83.5223C84.4047 83.5223 83.3142 83.9668 82.5379 84.8498C81.7615 85.7329 81.2755 86.936 81.074 88.4473H90.5388Z" stroke="#707070" stroke-width="2" mask="url(#path-1-outside-1_2002_74)"/>
<path d="M113.771 87.4812C113.659 86.6099 113.368 85.8276 112.894 85.1283C112.213 84.186 111.152 83.7178 109.712 83.7178C107.661 83.7178 106.257 84.7371 105.504 86.7818C105.107 87.8664 104.905 89.3066 104.905 91.1082C104.905 92.9099 105.107 94.2019 105.504 95.2391C106.227 97.183 107.596 98.1491 109.605 98.1491C111.027 98.1491 112.041 97.7638 112.639 96.9934C113.238 96.2229 113.6 95.2213 113.73 93.9945H119.947C119.805 95.8495 119.135 97.6038 117.938 99.2633C116.03 101.93 113.203 103.27 109.463 103.27C105.723 103.27 102.961 102.155 101.201 99.9271C99.435 97.6987 98.5519 94.8065 98.5519 91.2564C98.5519 87.2441 99.5239 84.1267 101.48 81.8983C103.435 79.6699 106.12 78.5557 109.552 78.5557C112.468 78.5557 114.856 79.2135 116.717 80.5233C118.572 81.839 119.674 84.1563 120.018 87.4812H113.771Z" stroke="#707070" stroke-width="2" mask="url(#path-1-outside-1_2002_74)"/>
<path d="M144.133 88.7436V102.446H137.922V88.2458C137.922 86.9893 137.709 85.9759 137.282 85.2054C136.725 84.1209 135.676 83.5756 134.123 83.5756C132.571 83.5756 131.296 84.1149 130.461 85.1936C129.625 86.2722 129.21 87.8072 129.21 89.8104V102.446H123.147V70.9875H129.21V82.1473C130.093 80.7901 131.113 79.8478 132.274 79.3084C133.436 78.775 134.657 78.5083 135.937 78.5083C137.377 78.5083 138.681 78.7573 139.854 79.2551C141.028 79.7529 141.994 80.5175 142.747 81.5487C143.387 82.4199 143.778 83.3148 143.92 84.2335C144.062 85.1521 144.133 86.6575 144.133 88.7436Z" stroke="#707070" stroke-width="2" mask="url(#path-1-outside-1_2002_74)"/>
<path d="M159.673 83.6289C157.61 83.6289 156.194 84.5061 155.424 86.2603C155.026 87.1908 154.825 88.3762 154.825 89.8163V102.452H148.762V79.1543H154.635V82.5621C155.418 81.365 156.158 80.4997 156.858 79.9722C158.108 79.0299 159.697 78.5617 161.623 78.5617C164.029 78.5617 165.997 79.1958 167.526 80.4582C169.055 81.7206 169.819 83.8186 169.819 86.7404V102.458H163.585V88.2576C163.585 87.0308 163.419 86.0885 163.093 85.4306C162.494 84.2334 161.356 83.6289 159.679 83.6289H159.673Z" stroke="#707070" stroke-width="2" mask="url(#path-1-outside-1_2002_74)"/>
<path d="M193.751 82.0643C195.719 84.5357 196.697 87.4516 196.697 90.8238C196.697 94.1961 195.713 97.1831 193.751 99.613C191.789 102.049 188.802 103.264 184.802 103.264C180.801 103.264 177.82 102.049 175.853 99.613C173.885 97.1772 172.907 94.2494 172.907 90.8238C172.907 87.3983 173.891 84.5357 175.853 82.0643C177.814 79.5929 180.801 78.3602 184.802 78.3602C188.802 78.3602 191.783 79.5929 193.751 82.0643ZM184.784 83.5222C183.006 83.5222 181.637 84.1564 180.671 85.4188C179.711 86.6811 179.231 88.4828 179.231 90.8238C179.231 93.1649 179.711 94.9725 180.671 96.2408C181.631 97.5091 183 98.1492 184.784 98.1492C186.568 98.1492 187.931 97.515 188.885 96.2408C189.839 94.9725 190.314 93.1649 190.314 90.8238C190.314 88.4828 189.839 86.6811 188.885 85.4188C187.931 84.1564 186.562 83.5222 184.784 83.5222Z" stroke="#707070" stroke-width="2" mask="url(#path-1-outside-1_2002_74)"/>
<path d="M200.087 70.8866H206.173V102.452H200.087V70.8866Z" stroke="#707070" stroke-width="2" mask="url(#path-1-outside-1_2002_74)"/>
<path d="M230.431 82.0643C232.398 84.5357 233.376 87.4516 233.376 90.8238C233.376 94.1961 232.392 97.1831 230.431 99.613C228.469 102.049 225.482 103.264 221.481 103.264C217.481 103.264 214.5 102.049 212.532 99.613C210.565 97.1772 209.587 94.2494 209.587 90.8238C209.587 87.3983 210.571 84.5357 212.532 82.0643C214.494 79.5929 217.481 78.3602 221.481 78.3602C225.482 78.3602 228.463 79.5929 230.431 82.0643ZM221.458 83.5222C219.68 83.5222 218.311 84.1564 217.345 85.4188C216.385 86.6811 215.905 88.4828 215.905 90.8238C215.905 93.1649 216.385 94.9725 217.345 96.2408C218.305 97.5091 219.674 98.1492 221.458 98.1492C223.242 98.1492 224.605 97.515 225.559 96.2408C226.513 94.9725 226.987 93.1649 226.987 90.8238C226.987 88.4828 226.513 86.6811 225.559 85.4188C224.605 84.1564 223.236 83.5222 221.458 83.5222Z" stroke="#707070" stroke-width="2" mask="url(#path-1-outside-1_2002_74)"/>
<path d="M243.214 106.542C243.866 107.099 244.975 107.377 246.522 107.377C248.714 107.377 250.178 106.642 250.919 105.173C251.405 104.23 251.648 102.648 251.648 100.419V98.9199C251.061 99.9215 250.439 100.668 249.769 101.166C248.56 102.097 246.984 102.559 245.052 102.559C242.065 102.559 239.676 101.504 237.886 99.4C236.097 97.296 235.208 94.4453 235.208 90.8419C235.208 87.2386 236.067 84.459 237.792 82.0943C239.516 79.7295 241.958 78.5501 245.117 78.5501C246.284 78.5501 247.304 78.7279 248.169 79.0835C249.651 79.6999 250.848 80.826 251.755 82.4676V79.1072H257.669V101.249C257.669 104.26 257.166 106.53 256.152 108.059C254.416 110.684 251.085 112 246.16 112C243.185 112 240.755 111.413 238.876 110.246C236.997 109.072 235.96 107.324 235.759 105.001H242.379C242.551 105.712 242.829 106.227 243.214 106.542ZM242.189 94.4868C243.013 96.4545 244.495 97.4442 246.628 97.4442C248.051 97.4442 249.254 96.9049 250.238 95.8262C251.221 94.7476 251.713 93.0289 251.713 90.676C251.713 88.4654 251.245 86.7763 250.315 85.6206C249.384 84.4649 248.134 83.8841 246.569 83.8841C244.435 83.8841 242.96 84.8916 242.148 86.9007C241.721 87.9735 241.508 89.2951 241.508 90.8597C241.508 92.2169 241.733 93.42 242.189 94.4809V94.4868Z" stroke="#707070" stroke-width="2" mask="url(#path-1-outside-1_2002_74)"/>
<path d="M271.722 96.3238L276.528 79.1069H283L275.011 102.061C273.476 106.488 272.255 109.232 271.36 110.293C270.465 111.354 268.669 111.887 265.979 111.887C265.439 111.887 265.001 111.887 264.675 111.875C264.349 111.869 263.857 111.846 263.199 111.798V106.915L263.97 106.956C264.568 106.986 265.137 106.962 265.676 106.891C266.216 106.82 266.672 106.654 267.046 106.399C267.401 106.156 267.733 105.652 268.035 104.876C268.338 104.1 268.468 103.631 268.409 103.465L259.868 79.0951H266.637L271.722 96.3119V96.3238Z" stroke="#707070" stroke-width="2" mask="url(#path-1-outside-1_2002_74)"/>
</svg>
