<svg width="261" height="63" viewBox="0 0 261 63" fill="none" xmlns="http://www.w3.org/2000/svg">
<mask id="path-1-outside-1_2002_67" maskUnits="userSpaceOnUse" x="0" y="0" width="261" height="63" fill="black">
<rect fill="white" width="261" height="63"/>
<path d="M1 1H14V61H1V1Z"/>
<path d="M36.6553 37.0189C34.0741 37.0189 32.3013 38.1167 31.3371 40.3122C30.8401 41.4767 30.5879 42.9602 30.5879 44.7626V60.5764H23V31.4188H30.3506V35.6838C31.3297 34.1855 32.2568 33.1025 33.1321 32.4424C34.6971 31.263 36.685 30.6771 39.0882 30.6771C42.0996 30.6771 44.5622 31.4707 46.4759 33.0506C48.3895 34.6305 49.3464 37.2563 49.3464 40.913V60.5838H41.5433V42.8118C41.5433 41.2765 41.3357 40.0971 40.9277 39.2738C40.1786 37.7755 38.7544 37.0189 36.6479 37.0189H36.6553Z"/>
<path d="M67.5188 55.1394V60.8508L63.914 60.9843C60.3166 61.1104 57.8541 60.4873 56.5412 59.1077C55.6882 58.2325 55.258 56.8825 55.258 55.0578V37.0708H51.1933V31.6339H55.258V23.4896H62.794V31.6339H67.5263V37.0708H62.794V52.5063C62.794 53.7005 62.9423 54.4496 63.2465 54.7463C63.5506 55.043 64.4777 55.1913 66.028 55.1913C66.2579 55.1913 66.5027 55.1913 66.7623 55.1765C67.0219 55.1691 67.2741 55.1543 67.5263 55.1394H67.5188Z"/>
<path d="M95.156 52.0019C94.9632 53.7375 94.0583 55.4954 92.4561 57.283C89.9639 60.1238 86.4703 61.548 81.9828 61.548C78.2742 61.548 75.0105 60.3538 72.1771 57.958C69.3437 55.5622 67.927 51.6681 67.927 46.2757C67.927 41.217 69.2028 37.3452 71.7617 34.6453C74.3207 31.9454 77.6363 30.5954 81.7158 30.5954C84.1413 30.5954 86.322 31.0479 88.2653 31.9602C90.2087 32.8725 91.8108 34.3115 93.0792 36.2771C94.2214 38.0127 94.9558 40.0228 95.297 42.3074C95.4898 43.6499 95.5714 45.5784 95.5343 48.0929H75.5965C75.7004 51.0228 76.6201 53.0774 78.3483 54.2567C79.4016 54.991 80.6626 55.3545 82.146 55.3545C83.7111 55.3545 84.9869 54.9094 85.966 54.012C86.5 53.5298 86.9747 52.8623 87.3827 52.0019H95.1635H95.156ZM87.62 43.0491C87.4939 41.0316 86.8857 39.4962 85.7879 38.4504C84.6902 37.4045 83.3328 36.8853 81.7158 36.8853C79.9505 36.8853 78.5857 37.4416 77.614 38.5468C76.6424 39.652 76.0341 41.1577 75.7819 43.0491H87.62Z"/>
<path d="M113.121 38.4134C110.057 38.4134 107.995 39.4147 106.95 41.4174C106.364 42.5448 106.067 44.2731 106.067 46.6169V60.5838H98.3973V31.3669H105.666V36.4626C106.846 34.5118 107.869 33.1841 108.737 32.4721C110.161 31.2779 112.016 30.6771 114.293 30.6771C114.434 30.6771 114.552 30.6771 114.656 30.6919C114.753 30.6993 114.975 30.7142 115.309 30.729V38.5543C114.827 38.5024 114.404 38.4653 114.026 38.4504C113.655 38.4356 113.351 38.4208 113.121 38.4208V38.4134Z"/>
<path d="M118.684 34.5266C120.694 31.9528 124.15 30.6696 129.053 30.6696C132.243 30.6696 135.076 31.3075 137.553 32.5758C140.031 33.8442 141.27 36.24 141.27 39.7558V53.1589C141.27 54.0861 141.284 55.2135 141.321 56.5338C141.373 57.5352 141.529 58.2101 141.774 58.5736C142.026 58.9296 142.397 59.2263 142.894 59.4563V60.5837H134.609C134.379 59.9977 134.216 59.4414 134.127 58.9222C134.038 58.403 133.963 57.817 133.912 57.1569C132.858 58.2991 131.649 59.2708 130.277 60.0793C128.638 61.0287 126.783 61.5034 124.714 61.5034C122.081 61.5034 119.9 60.7469 118.179 59.2411C116.459 57.7354 115.598 55.5918 115.598 52.8252C115.598 49.2352 116.978 46.6317 119.737 45.0295C121.25 44.1543 123.475 43.5312 126.42 43.1529L129.016 42.834C130.425 42.656 131.427 42.4335 132.035 42.1664C133.118 41.6991 133.667 40.9797 133.667 39.9932C133.667 38.799 133.251 37.9682 132.428 37.5158C131.597 37.0633 130.381 36.8334 128.779 36.8334C126.976 36.8334 125.708 37.2784 124.959 38.1759C124.425 38.8361 124.069 39.7336 123.891 40.8536H116.54C116.703 38.302 117.415 36.2029 118.676 34.5563L118.684 34.5266ZM124.351 55.0578C125.063 55.6437 125.938 55.9404 126.969 55.9404C128.608 55.9404 130.121 55.4583 131.501 54.4941C132.881 53.5298 133.6 51.7719 133.652 49.2129V46.3721C133.17 46.6762 132.688 46.921 132.198 47.1064C131.709 47.2918 131.034 47.4698 130.181 47.6256L128.467 47.9445C126.865 48.2338 125.715 48.5824 125.018 48.9904C123.846 49.6876 123.253 50.7705 123.253 52.2318C123.253 53.5372 123.616 54.4718 124.351 55.0429V55.0578Z"/>
<path d="M162.142 41.8476C162.001 40.7572 161.638 39.7782 161.044 38.9029C160.191 37.7236 158.864 37.1376 157.061 37.1376C154.495 37.1376 152.737 38.4134 151.795 40.9723C151.298 42.3297 151.046 44.1321 151.046 46.387C151.046 48.6419 151.298 50.2589 151.795 51.5569C152.7 53.9898 154.413 55.1988 156.928 55.1988C158.708 55.1988 159.976 54.7167 160.725 53.7524C161.474 52.7882 161.927 51.5346 162.09 49.9992H169.871C169.693 52.3209 168.855 54.5164 167.356 56.5933C164.968 59.9311 161.43 61.6074 156.75 61.6074C152.069 61.6074 148.613 60.2129 146.41 57.424C144.199 54.6351 143.094 51.0154 143.094 46.5724C143.094 41.5509 144.311 37.6494 146.758 34.8605C149.206 32.0715 152.566 30.6771 156.861 30.6771C160.51 30.6771 163.499 31.5004 165.828 33.1396C168.15 34.7863 169.53 37.6865 169.96 41.8476H162.142Z"/>
<path d="M187.42 55.1394V60.8508L183.816 60.9843C180.218 61.1104 177.756 60.4873 176.443 59.1077C175.59 58.2325 175.16 56.8825 175.16 55.0578V37.0708H171.095V31.6339H175.16V23.4896H182.696V31.6339H187.428V37.0708H182.696V52.5063C182.696 53.7005 182.844 54.4496 183.148 54.7463C183.452 55.043 184.379 55.1913 185.929 55.1913C186.159 55.1913 186.404 55.1913 186.664 55.1765C186.923 55.1691 187.176 55.1543 187.428 55.1394H187.42Z"/>
<path d="M199.051 20.8342V27.8807H191.329V20.8342H199.051ZM199.051 31.3668V60.5763H191.329V31.3668H199.051Z"/>
<path d="M202.47 31.3668H211.022L217.09 52.9142L223.29 31.3668H231.472L220.969 60.5763H212.928L202.477 31.3668H202.47Z"/>
<path d="M259.613 52.0019C259.42 53.7375 258.515 55.4954 256.913 57.283C254.421 60.1238 250.927 61.548 246.44 61.548C242.731 61.548 239.467 60.3538 236.634 57.958C233.801 55.5622 232.384 51.6681 232.384 46.2757C232.384 41.217 233.66 37.3452 236.219 34.6453C238.778 31.9454 242.093 30.5954 246.173 30.5954C248.598 30.5954 250.779 31.0479 252.722 31.9602C254.666 32.8725 256.268 34.3115 257.536 36.2771C258.678 38.0127 259.413 40.0228 259.754 42.3074C259.947 43.6499 260.028 45.5784 259.991 48.0929H240.053C240.157 51.0228 241.077 53.0774 242.805 54.2567C243.859 54.991 245.119 55.3545 246.603 55.3545C248.168 55.3545 249.444 54.9094 250.423 54.012C250.957 53.5298 251.432 52.8623 251.84 52.0019H259.62H259.613ZM252.077 43.0491C251.951 41.0316 251.343 39.4962 250.245 38.4504C249.147 37.4045 247.79 36.8853 246.165 36.8853C244.4 36.8853 243.035 37.4416 242.064 38.5468C241.092 39.652 240.484 41.1577 240.231 43.0491H252.077Z"/>
</mask>
<path d="M1 1H14V61H1V1Z" fill="white"/>
<path d="M36.6553 37.0189C34.0741 37.0189 32.3013 38.1167 31.3371 40.3122C30.8401 41.4767 30.5879 42.9602 30.5879 44.7626V60.5764H23V31.4188H30.3506V35.6838C31.3297 34.1855 32.2568 33.1025 33.1321 32.4424C34.6971 31.263 36.685 30.6771 39.0882 30.6771C42.0996 30.6771 44.5622 31.4707 46.4759 33.0506C48.3895 34.6305 49.3464 37.2563 49.3464 40.913V60.5838H41.5433V42.8118C41.5433 41.2765 41.3357 40.0971 40.9277 39.2738C40.1786 37.7755 38.7544 37.0189 36.6479 37.0189H36.6553Z" fill="white"/>
<path d="M67.5188 55.1394V60.8508L63.914 60.9843C60.3166 61.1104 57.8541 60.4873 56.5412 59.1077C55.6882 58.2325 55.258 56.8825 55.258 55.0578V37.0708H51.1933V31.6339H55.258V23.4896H62.794V31.6339H67.5263V37.0708H62.794V52.5063C62.794 53.7005 62.9423 54.4496 63.2465 54.7463C63.5506 55.043 64.4777 55.1913 66.028 55.1913C66.2579 55.1913 66.5027 55.1913 66.7623 55.1765C67.0219 55.1691 67.2741 55.1543 67.5263 55.1394H67.5188Z" fill="white"/>
<path d="M95.156 52.0019C94.9632 53.7375 94.0583 55.4954 92.4561 57.283C89.9639 60.1238 86.4703 61.548 81.9828 61.548C78.2742 61.548 75.0105 60.3538 72.1771 57.958C69.3437 55.5622 67.927 51.6681 67.927 46.2757C67.927 41.217 69.2028 37.3452 71.7617 34.6453C74.3207 31.9454 77.6363 30.5954 81.7158 30.5954C84.1413 30.5954 86.322 31.0479 88.2653 31.9602C90.2087 32.8725 91.8108 34.3115 93.0792 36.2771C94.2214 38.0127 94.9558 40.0228 95.297 42.3074C95.4898 43.6499 95.5714 45.5784 95.5343 48.0929H75.5965C75.7004 51.0228 76.6201 53.0774 78.3483 54.2567C79.4016 54.991 80.6626 55.3545 82.146 55.3545C83.7111 55.3545 84.9869 54.9094 85.966 54.012C86.5 53.5298 86.9747 52.8623 87.3827 52.0019H95.1635H95.156ZM87.62 43.0491C87.4939 41.0316 86.8857 39.4962 85.7879 38.4504C84.6902 37.4045 83.3328 36.8853 81.7158 36.8853C79.9505 36.8853 78.5857 37.4416 77.614 38.5468C76.6424 39.652 76.0341 41.1577 75.7819 43.0491H87.62Z" fill="white"/>
<path d="M113.121 38.4134C110.057 38.4134 107.995 39.4147 106.95 41.4174C106.364 42.5448 106.067 44.2731 106.067 46.6169V60.5838H98.3973V31.3669H105.666V36.4626C106.846 34.5118 107.869 33.1841 108.737 32.4721C110.161 31.2779 112.016 30.6771 114.293 30.6771C114.434 30.6771 114.552 30.6771 114.656 30.6919C114.753 30.6993 114.975 30.7142 115.309 30.729V38.5543C114.827 38.5024 114.404 38.4653 114.026 38.4504C113.655 38.4356 113.351 38.4208 113.121 38.4208V38.4134Z" fill="white"/>
<path d="M118.684 34.5266C120.694 31.9528 124.15 30.6696 129.053 30.6696C132.243 30.6696 135.076 31.3075 137.553 32.5758C140.031 33.8442 141.27 36.24 141.27 39.7558V53.1589C141.27 54.0861 141.284 55.2135 141.321 56.5338C141.373 57.5352 141.529 58.2101 141.774 58.5736C142.026 58.9296 142.397 59.2263 142.894 59.4563V60.5837H134.609C134.379 59.9977 134.216 59.4414 134.127 58.9222C134.038 58.403 133.963 57.817 133.912 57.1569C132.858 58.2991 131.649 59.2708 130.277 60.0793C128.638 61.0287 126.783 61.5034 124.714 61.5034C122.081 61.5034 119.9 60.7469 118.179 59.2411C116.459 57.7354 115.598 55.5918 115.598 52.8252C115.598 49.2352 116.978 46.6317 119.737 45.0295C121.25 44.1543 123.475 43.5312 126.42 43.1529L129.016 42.834C130.425 42.656 131.427 42.4335 132.035 42.1664C133.118 41.6991 133.667 40.9797 133.667 39.9932C133.667 38.799 133.251 37.9682 132.428 37.5158C131.597 37.0633 130.381 36.8334 128.779 36.8334C126.976 36.8334 125.708 37.2784 124.959 38.1759C124.425 38.8361 124.069 39.7336 123.891 40.8536H116.54C116.703 38.302 117.415 36.2029 118.676 34.5563L118.684 34.5266ZM124.351 55.0578C125.063 55.6437 125.938 55.9404 126.969 55.9404C128.608 55.9404 130.121 55.4583 131.501 54.4941C132.881 53.5298 133.6 51.7719 133.652 49.2129V46.3721C133.17 46.6762 132.688 46.921 132.198 47.1064C131.709 47.2918 131.034 47.4698 130.181 47.6256L128.467 47.9445C126.865 48.2338 125.715 48.5824 125.018 48.9904C123.846 49.6876 123.253 50.7705 123.253 52.2318C123.253 53.5372 123.616 54.4718 124.351 55.0429V55.0578Z" fill="white"/>
<path d="M162.142 41.8476C162.001 40.7572 161.638 39.7782 161.044 38.9029C160.191 37.7236 158.864 37.1376 157.061 37.1376C154.495 37.1376 152.737 38.4134 151.795 40.9723C151.298 42.3297 151.046 44.1321 151.046 46.387C151.046 48.6419 151.298 50.2589 151.795 51.5569C152.7 53.9898 154.413 55.1988 156.928 55.1988C158.708 55.1988 159.976 54.7167 160.725 53.7524C161.474 52.7882 161.927 51.5346 162.09 49.9992H169.871C169.693 52.3209 168.855 54.5164 167.356 56.5933C164.968 59.9311 161.43 61.6074 156.75 61.6074C152.069 61.6074 148.613 60.2129 146.41 57.424C144.199 54.6351 143.094 51.0154 143.094 46.5724C143.094 41.5509 144.311 37.6494 146.758 34.8605C149.206 32.0715 152.566 30.6771 156.861 30.6771C160.51 30.6771 163.499 31.5004 165.828 33.1396C168.15 34.7863 169.53 37.6865 169.96 41.8476H162.142Z" fill="white"/>
<path d="M187.42 55.1394V60.8508L183.816 60.9843C180.218 61.1104 177.756 60.4873 176.443 59.1077C175.59 58.2325 175.16 56.8825 175.16 55.0578V37.0708H171.095V31.6339H175.16V23.4896H182.696V31.6339H187.428V37.0708H182.696V52.5063C182.696 53.7005 182.844 54.4496 183.148 54.7463C183.452 55.043 184.379 55.1913 185.929 55.1913C186.159 55.1913 186.404 55.1913 186.664 55.1765C186.923 55.1691 187.176 55.1543 187.428 55.1394H187.42Z" fill="white"/>
<path d="M199.051 20.8342V27.8807H191.329V20.8342H199.051ZM199.051 31.3668V60.5763H191.329V31.3668H199.051Z" fill="white"/>
<path d="M202.47 31.3668H211.022L217.09 52.9142L223.29 31.3668H231.472L220.969 60.5763H212.928L202.477 31.3668H202.47Z" fill="white"/>
<path d="M259.613 52.0019C259.42 53.7375 258.515 55.4954 256.913 57.283C254.421 60.1238 250.927 61.548 246.44 61.548C242.731 61.548 239.467 60.3538 236.634 57.958C233.801 55.5622 232.384 51.6681 232.384 46.2757C232.384 41.217 233.66 37.3452 236.219 34.6453C238.778 31.9454 242.093 30.5954 246.173 30.5954C248.598 30.5954 250.779 31.0479 252.722 31.9602C254.666 32.8725 256.268 34.3115 257.536 36.2771C258.678 38.0127 259.413 40.0228 259.754 42.3074C259.947 43.6499 260.028 45.5784 259.991 48.0929H240.053C240.157 51.0228 241.077 53.0774 242.805 54.2567C243.859 54.991 245.119 55.3545 246.603 55.3545C248.168 55.3545 249.444 54.9094 250.423 54.012C250.957 53.5298 251.432 52.8623 251.84 52.0019H259.62H259.613ZM252.077 43.0491C251.951 41.0316 251.343 39.4962 250.245 38.4504C249.147 37.4045 247.79 36.8853 246.165 36.8853C244.4 36.8853 243.035 37.4416 242.064 38.5468C241.092 39.652 240.484 41.1577 240.231 43.0491H252.077Z" fill="white"/>
<path d="M1 1H14V61H1V1Z" stroke="#2C969F" stroke-width="2" mask="url(#path-1-outside-1_2002_67)"/>
<path d="M36.6553 37.0189C34.0741 37.0189 32.3013 38.1167 31.3371 40.3122C30.8401 41.4767 30.5879 42.9602 30.5879 44.7626V60.5764H23V31.4188H30.3506V35.6838C31.3297 34.1855 32.2568 33.1025 33.1321 32.4424C34.6971 31.263 36.685 30.6771 39.0882 30.6771C42.0996 30.6771 44.5622 31.4707 46.4759 33.0506C48.3895 34.6305 49.3464 37.2563 49.3464 40.913V60.5838H41.5433V42.8118C41.5433 41.2765 41.3357 40.0971 40.9277 39.2738C40.1786 37.7755 38.7544 37.0189 36.6479 37.0189H36.6553Z" stroke="#2C969F" stroke-width="2" mask="url(#path-1-outside-1_2002_67)"/>
<path d="M67.5188 55.1394V60.8508L63.914 60.9843C60.3166 61.1104 57.8541 60.4873 56.5412 59.1077C55.6882 58.2325 55.258 56.8825 55.258 55.0578V37.0708H51.1933V31.6339H55.258V23.4896H62.794V31.6339H67.5263V37.0708H62.794V52.5063C62.794 53.7005 62.9423 54.4496 63.2465 54.7463C63.5506 55.043 64.4777 55.1913 66.028 55.1913C66.2579 55.1913 66.5027 55.1913 66.7623 55.1765C67.0219 55.1691 67.2741 55.1543 67.5263 55.1394H67.5188Z" stroke="#2C969F" stroke-width="2" mask="url(#path-1-outside-1_2002_67)"/>
<path d="M95.156 52.0019C94.9632 53.7375 94.0583 55.4954 92.4561 57.283C89.9639 60.1238 86.4703 61.548 81.9828 61.548C78.2742 61.548 75.0105 60.3538 72.1771 57.958C69.3437 55.5622 67.927 51.6681 67.927 46.2757C67.927 41.217 69.2028 37.3452 71.7617 34.6453C74.3207 31.9454 77.6363 30.5954 81.7158 30.5954C84.1413 30.5954 86.322 31.0479 88.2653 31.9602C90.2087 32.8725 91.8108 34.3115 93.0792 36.2771C94.2214 38.0127 94.9558 40.0228 95.297 42.3074C95.4898 43.6499 95.5714 45.5784 95.5343 48.0929H75.5965C75.7004 51.0228 76.6201 53.0774 78.3483 54.2567C79.4016 54.991 80.6626 55.3545 82.146 55.3545C83.7111 55.3545 84.9869 54.9094 85.966 54.012C86.5 53.5298 86.9747 52.8623 87.3827 52.0019H95.1635H95.156ZM87.62 43.0491C87.4939 41.0316 86.8857 39.4962 85.7879 38.4504C84.6902 37.4045 83.3328 36.8853 81.7158 36.8853C79.9505 36.8853 78.5857 37.4416 77.614 38.5468C76.6424 39.652 76.0341 41.1577 75.7819 43.0491H87.62Z" stroke="#2C969F" stroke-width="2" mask="url(#path-1-outside-1_2002_67)"/>
<path d="M113.121 38.4134C110.057 38.4134 107.995 39.4147 106.95 41.4174C106.364 42.5448 106.067 44.2731 106.067 46.6169V60.5838H98.3973V31.3669H105.666V36.4626C106.846 34.5118 107.869 33.1841 108.737 32.4721C110.161 31.2779 112.016 30.6771 114.293 30.6771C114.434 30.6771 114.552 30.6771 114.656 30.6919C114.753 30.6993 114.975 30.7142 115.309 30.729V38.5543C114.827 38.5024 114.404 38.4653 114.026 38.4504C113.655 38.4356 113.351 38.4208 113.121 38.4208V38.4134Z" stroke="#2C969F" stroke-width="2" mask="url(#path-1-outside-1_2002_67)"/>
<path d="M118.684 34.5266C120.694 31.9528 124.15 30.6696 129.053 30.6696C132.243 30.6696 135.076 31.3075 137.553 32.5758C140.031 33.8442 141.27 36.24 141.27 39.7558V53.1589C141.27 54.0861 141.284 55.2135 141.321 56.5338C141.373 57.5352 141.529 58.2101 141.774 58.5736C142.026 58.9296 142.397 59.2263 142.894 59.4563V60.5837H134.609C134.379 59.9977 134.216 59.4414 134.127 58.9222C134.038 58.403 133.963 57.817 133.912 57.1569C132.858 58.2991 131.649 59.2708 130.277 60.0793C128.638 61.0287 126.783 61.5034 124.714 61.5034C122.081 61.5034 119.9 60.7469 118.179 59.2411C116.459 57.7354 115.598 55.5918 115.598 52.8252C115.598 49.2352 116.978 46.6317 119.737 45.0295C121.25 44.1543 123.475 43.5312 126.42 43.1529L129.016 42.834C130.425 42.656 131.427 42.4335 132.035 42.1664C133.118 41.6991 133.667 40.9797 133.667 39.9932C133.667 38.799 133.251 37.9682 132.428 37.5158C131.597 37.0633 130.381 36.8334 128.779 36.8334C126.976 36.8334 125.708 37.2784 124.959 38.1759C124.425 38.8361 124.069 39.7336 123.891 40.8536H116.54C116.703 38.302 117.415 36.2029 118.676 34.5563L118.684 34.5266ZM124.351 55.0578C125.063 55.6437 125.938 55.9404 126.969 55.9404C128.608 55.9404 130.121 55.4583 131.501 54.4941C132.881 53.5298 133.6 51.7719 133.652 49.2129V46.3721C133.17 46.6762 132.688 46.921 132.198 47.1064C131.709 47.2918 131.034 47.4698 130.181 47.6256L128.467 47.9445C126.865 48.2338 125.715 48.5824 125.018 48.9904C123.846 49.6876 123.253 50.7705 123.253 52.2318C123.253 53.5372 123.616 54.4718 124.351 55.0429V55.0578Z" stroke="#2C969F" stroke-width="2" mask="url(#path-1-outside-1_2002_67)"/>
<path d="M162.142 41.8476C162.001 40.7572 161.638 39.7782 161.044 38.9029C160.191 37.7236 158.864 37.1376 157.061 37.1376C154.495 37.1376 152.737 38.4134 151.795 40.9723C151.298 42.3297 151.046 44.1321 151.046 46.387C151.046 48.6419 151.298 50.2589 151.795 51.5569C152.7 53.9898 154.413 55.1988 156.928 55.1988C158.708 55.1988 159.976 54.7167 160.725 53.7524C161.474 52.7882 161.927 51.5346 162.09 49.9992H169.871C169.693 52.3209 168.855 54.5164 167.356 56.5933C164.968 59.9311 161.43 61.6074 156.75 61.6074C152.069 61.6074 148.613 60.2129 146.41 57.424C144.199 54.6351 143.094 51.0154 143.094 46.5724C143.094 41.5509 144.311 37.6494 146.758 34.8605C149.206 32.0715 152.566 30.6771 156.861 30.6771C160.51 30.6771 163.499 31.5004 165.828 33.1396C168.15 34.7863 169.53 37.6865 169.96 41.8476H162.142Z" stroke="#2C969F" stroke-width="2" mask="url(#path-1-outside-1_2002_67)"/>
<path d="M187.42 55.1394V60.8508L183.816 60.9843C180.218 61.1104 177.756 60.4873 176.443 59.1077C175.59 58.2325 175.16 56.8825 175.16 55.0578V37.0708H171.095V31.6339H175.16V23.4896H182.696V31.6339H187.428V37.0708H182.696V52.5063C182.696 53.7005 182.844 54.4496 183.148 54.7463C183.452 55.043 184.379 55.1913 185.929 55.1913C186.159 55.1913 186.404 55.1913 186.664 55.1765C186.923 55.1691 187.176 55.1543 187.428 55.1394H187.42Z" stroke="#2C969F" stroke-width="2" mask="url(#path-1-outside-1_2002_67)"/>
<path d="M199.051 20.8342V27.8807H191.329V20.8342H199.051ZM199.051 31.3668V60.5763H191.329V31.3668H199.051Z" stroke="#2C969F" stroke-width="2" mask="url(#path-1-outside-1_2002_67)"/>
<path d="M202.47 31.3668H211.022L217.09 52.9142L223.29 31.3668H231.472L220.969 60.5763H212.928L202.477 31.3668H202.47Z" stroke="#2C969F" stroke-width="2" mask="url(#path-1-outside-1_2002_67)"/>
<path d="M259.613 52.0019C259.42 53.7375 258.515 55.4954 256.913 57.283C254.421 60.1238 250.927 61.548 246.44 61.548C242.731 61.548 239.467 60.3538 236.634 57.958C233.801 55.5622 232.384 51.6681 232.384 46.2757C232.384 41.217 233.66 37.3452 236.219 34.6453C238.778 31.9454 242.093 30.5954 246.173 30.5954C248.598 30.5954 250.779 31.0479 252.722 31.9602C254.666 32.8725 256.268 34.3115 257.536 36.2771C258.678 38.0127 259.413 40.0228 259.754 42.3074C259.947 43.6499 260.028 45.5784 259.991 48.0929H240.053C240.157 51.0228 241.077 53.0774 242.805 54.2567C243.859 54.991 245.119 55.3545 246.603 55.3545C248.168 55.3545 249.444 54.9094 250.423 54.012C250.957 53.5298 251.432 52.8623 251.84 52.0019H259.62H259.613ZM252.077 43.0491C251.951 41.0316 251.343 39.4962 250.245 38.4504C249.147 37.4045 247.79 36.8853 246.165 36.8853C244.4 36.8853 243.035 37.4416 242.064 38.5468C241.092 39.652 240.484 41.1577 240.231 43.0491H252.077Z" stroke="#2C969F" stroke-width="2" mask="url(#path-1-outside-1_2002_67)"/>
</svg>
