<svg width="729" height="101" viewBox="0 0 729 101" fill="none" xmlns="http://www.w3.org/2000/svg">
<mask id="path-1-outside-1_2001_58" maskUnits="userSpaceOnUse" x="0" y="0.0917969" width="729" height="101" fill="black">
<rect fill="white" y="0.0917969" width="729" height="101"/>
<path d="M31.5085 66.8701C35.1667 66.8701 38.1268 66.4652 40.4167 65.6553C44.7451 64.1055 46.9094 61.2291 46.9094 57.0264C46.9094 54.5689 45.8342 52.67 43.6979 51.3296C41.5477 50.0171 38.1827 48.8582 33.5889 47.8529L25.7419 46.0936C18.0205 44.3482 12.6868 42.4493 9.74065 40.3968C4.74201 36.962 2.24268 31.6003 2.24268 24.2978C2.24268 17.6376 4.65823 12.1084 9.48932 7.69615C14.3204 3.28394 21.4135 1.0918 30.7685 1.0918C38.5876 1.0918 45.2478 3.17224 50.7631 7.31916C56.2783 11.48 59.1686 17.498 59.4339 25.4009H44.5357C44.2704 20.9328 42.3296 17.7493 38.6993 15.8643C36.2837 14.6217 33.2818 13.9933 29.6933 13.9933C25.7 13.9933 22.5165 14.8032 20.1289 16.4089C17.7413 18.0146 16.5544 20.2765 16.5544 23.1668C16.5544 25.8197 17.7273 27.8024 20.073 29.1149C21.581 29.9946 24.8064 31.0139 29.7352 32.1867L42.5111 35.2585C48.1101 36.5989 52.3409 38.4001 55.1892 40.6621C59.6154 44.1667 61.8355 49.2212 61.8355 55.8535C61.8355 62.4858 59.2384 68.2943 54.0583 72.7763C48.8781 77.2583 41.5616 79.5063 32.0949 79.5063C22.6282 79.5063 14.837 77.3002 9.3078 72.874C3.77857 68.4479 1 62.3741 1 54.6388H15.7865C16.2612 58.0317 17.1828 60.5729 18.5511 62.2624C21.0644 65.3202 25.3789 66.8561 31.4806 66.8561L31.5085 66.8701Z"/>
<path d="M114.849 28.5286C119.276 33.2759 121.496 40.2293 121.496 49.4168C121.496 59.1069 119.318 66.4931 114.975 71.5616C110.633 76.644 105.034 79.1852 98.192 79.1852C93.8356 79.1852 90.2053 78.0961 87.329 75.904C85.7512 74.6893 84.2153 72.9299 82.7073 70.6121V99.2636H68.5212V22.6223H82.2605V30.7486C83.7964 28.361 85.444 26.476 87.1894 25.0937C90.3729 22.6363 94.1707 21.4076 98.555 21.4076C104.964 21.4076 110.395 23.7812 114.849 28.5146V28.5286ZM106.695 50.1149C106.695 45.8702 105.732 42.1282 103.805 38.861C101.878 35.5937 98.7505 33.974 94.422 33.974C89.2279 33.974 85.6535 36.4454 83.7127 41.3882C82.7073 44.0132 82.2047 47.3363 82.2047 51.3715C82.2047 57.7665 83.8942 62.2485 87.2871 64.8455C89.2977 66.3535 91.6854 67.1215 94.436 67.1215C98.4293 67.1215 101.473 65.5716 103.568 62.4858C105.662 59.3861 106.709 55.2671 106.709 50.1289L106.695 50.1149Z"/>
<path d="M177.215 61.4663C176.852 64.7336 175.149 68.0427 172.133 71.4077C167.441 76.7555 160.865 79.4363 152.418 79.4363C145.436 79.4363 139.293 77.1883 133.959 72.6784C128.625 68.1684 125.958 60.838 125.958 50.6871C125.958 41.1645 128.36 33.876 133.177 28.7936C137.994 23.7112 144.235 21.17 151.915 21.17C156.481 21.17 160.586 22.0217 164.244 23.7391C167.902 25.4565 170.918 28.1653 173.306 31.8654C175.456 35.1327 176.838 38.9165 177.481 43.2171C177.844 45.7443 177.997 49.3746 177.927 54.108H140.396C140.591 59.6232 142.323 63.4909 145.576 65.711C147.559 67.0933 149.932 67.7775 152.725 67.7775C155.671 67.7775 158.072 66.9397 159.916 65.2502C160.921 64.3426 161.814 63.086 162.582 61.4663H177.229H177.215ZM163.029 44.6133C162.792 40.8155 161.647 37.9252 159.58 35.9565C157.514 33.9877 154.959 33.0103 151.901 33.0103C148.578 33.0103 146.009 34.0575 144.18 36.138C142.35 38.2184 141.206 41.0528 140.731 44.6133H163.029Z"/>
<path d="M236.326 61.4663C235.963 64.7336 234.26 68.0427 231.244 71.4077C226.553 76.7555 219.976 79.4363 211.529 79.4363C204.547 79.4363 198.404 77.1883 193.07 72.6784C187.736 68.1684 185.069 60.838 185.069 50.6871C185.069 41.1645 187.471 33.876 192.288 28.7936C197.105 23.7112 203.346 21.17 211.026 21.17C215.592 21.17 219.697 22.0217 223.355 23.7391C227.013 25.4565 230.029 28.1653 232.417 31.8654C234.567 35.1327 235.949 38.9165 236.592 43.2171C236.955 45.7443 237.108 49.3746 237.038 54.108H199.507C199.702 59.6232 201.434 63.4909 204.687 65.711C206.67 67.0933 209.043 67.7775 211.836 67.7775C214.782 67.7775 217.184 66.9397 219.027 65.2502C220.032 64.3426 220.926 63.086 221.693 61.4663H236.34H236.326ZM222.14 44.6133C221.903 40.8155 220.758 37.9252 218.691 35.9565C216.625 33.9877 214.07 33.0103 211.012 33.0103C207.689 33.0103 205.12 34.0575 203.291 36.138C201.462 38.2184 200.317 41.0528 199.842 44.6133H222.14Z"/>
<path d="M296.664 3.35361V77.6212H282.729V69.9976C280.677 73.2648 278.359 75.6385 275.734 77.1046C273.123 78.5846 269.87 79.3247 265.974 79.3247C259.565 79.3247 254.175 76.7276 249.805 71.5335C245.435 66.3393 243.243 59.6652 243.243 51.5249C243.243 42.142 245.393 34.7557 249.707 29.3801C254.022 24.0044 259.775 21.3096 266.993 21.3096C270.316 21.3096 273.262 22.0357 275.846 23.5018C278.429 24.9679 280.523 26.9925 282.129 29.5756V3.35361H296.664ZM258.029 50.4638C258.029 55.5462 259.035 59.5954 261.045 62.6253C263.028 65.6831 266.044 67.219 270.107 67.219C274.17 67.219 277.256 65.711 279.364 62.6811C281.473 59.6512 282.534 55.7417 282.534 50.9245C282.534 44.1945 280.844 39.3913 277.451 36.5011C275.371 34.7557 272.955 33.8761 270.205 33.8761C266.016 33.8761 262.93 35.4678 260.975 38.6374C259.021 41.8069 258.029 45.7583 258.029 50.4638Z"/>
<path d="M344.35 79.4223C336.838 79.4223 330.974 77.2023 326.743 72.7621C322.513 68.322 320.404 63.3932 320.404 57.9756C320.404 53.5076 321.507 49.6678 323.727 46.4704C325.933 43.2729 329.564 40.1173 334.59 36.9897L336.154 36.0263C334.004 33.6107 332.342 31.1393 331.169 28.6121C329.997 26.0848 329.41 23.4598 329.41 20.7371C329.41 15.3196 331.225 11.0889 334.842 8.045C338.458 5.00113 343.163 3.47919 348.93 3.47919C354.194 3.47919 358.55 5.02905 361.985 8.14274C365.42 11.2564 367.137 15.2358 367.137 20.0808C367.137 24.4512 366.104 27.9977 364.038 30.7204C361.971 33.4432 358.955 35.9704 354.962 38.2882L365.476 51.3015C366.691 49.5561 367.612 47.6572 368.268 45.6047C368.925 43.5522 369.26 41.3879 369.302 39.098H382.036C381.84 43.608 380.765 48.1598 378.81 52.7675C377.735 55.3506 375.99 58.213 373.574 61.3406L387.062 77.5793H369.651L364.526 71.2681C362.041 73.5859 359.723 75.3033 357.587 76.4203C353.761 78.4031 349.349 79.3944 344.35 79.3944V79.4223ZM343.554 45.2277C339.966 47.6153 337.592 49.7237 336.433 51.5388C335.275 53.354 334.702 55.3506 334.702 57.5428C334.702 60.0002 335.693 62.2482 337.69 64.3007C339.687 66.3532 342.242 67.3725 345.37 67.3725C347.715 67.3725 349.935 66.828 352.03 65.7389C354.124 64.6498 355.828 63.4211 357.14 62.0807L343.554 45.2277ZM342.591 20.2484C342.591 21.5888 343.066 23.013 344.001 24.4931C344.602 25.4705 345.914 27.2018 347.925 29.6872C349.935 28.277 351.374 27.0762 352.253 26.0988C353.929 24.2836 354.766 22.3149 354.766 20.1925C354.766 18.6427 354.264 17.2604 353.259 16.0596C352.253 14.8588 350.731 14.2444 348.679 14.2444C347.408 14.2444 346.207 14.5935 345.104 15.3056C343.429 16.3528 342.591 18.0004 342.591 20.2484Z"/>
<path d="M446.851 78.138C443.528 79.2411 439.562 79.7995 434.927 79.7995C425.265 79.7995 417.292 76.9093 410.981 71.1287C403.329 64.1613 399.517 53.9406 399.517 40.4527C399.517 26.9647 403.441 16.5904 411.288 9.62301C417.697 3.94019 425.656 1.0918 435.192 1.0918C444.729 1.0918 452.827 4.10774 459.334 10.1257C466.845 17.0931 470.601 26.8251 470.601 39.3356C470.601 45.9679 469.792 51.5111 468.186 55.9792C466.873 60.2518 464.947 63.7983 462.405 66.6188L470.951 74.6473L462.852 83.1227L453.902 74.6473C451.179 76.2949 448.834 77.4538 446.865 78.124L446.851 78.138ZM443.528 64.7198L436.03 57.557L444.03 49.1793L451.528 56.3422C452.701 53.9267 453.525 51.8043 454 49.9892C454.74 47.2665 455.103 44.083 455.103 40.4527C455.103 32.1169 453.399 25.6662 449.992 21.1004C446.586 16.5485 441.615 14.2586 435.08 14.2586C428.937 14.2586 424.05 16.4508 420.392 20.8211C416.733 25.1914 414.904 31.7399 414.904 40.4527C414.904 50.6454 417.515 57.9479 422.751 62.3462C426.144 65.2085 430.193 66.6327 434.927 66.6327C436.7 66.6327 438.417 66.4093 440.065 65.9765C440.973 65.7391 442.131 65.3202 443.542 64.7198H443.528Z"/>
<path d="M511.452 69.9699C511.312 70.1374 510.977 70.6401 510.446 71.4778C509.916 72.3156 509.274 73.0556 508.534 73.6979C506.286 75.7225 504.107 77.0909 502.013 77.8309C499.919 78.5709 497.461 78.9339 494.641 78.9339C486.528 78.9339 481.055 76.0018 478.234 70.1514C476.657 66.926 475.875 62.1647 475.875 55.8675V22.7201H490.564V55.8675C490.564 58.9952 490.927 61.3549 491.667 62.9327C492.979 65.7252 495.534 67.1215 499.36 67.1215C504.261 67.1215 507.612 65.1388 509.427 61.1734C510.363 59.0231 510.837 56.1747 510.837 52.6422V22.7201H525.373V77.7052H511.438V69.9419L511.452 69.9699Z"/>
<path d="M537.974 28.6961C541.758 23.851 548.264 21.4355 557.494 21.4355C563.497 21.4355 568.831 22.6362 573.495 25.0239C578.158 27.4115 580.49 31.9214 580.49 38.5398V63.7704C580.49 65.5157 580.518 67.638 580.588 70.1234C580.686 72.0084 580.979 73.279 581.44 73.9631C581.914 74.6334 582.612 75.1919 583.548 75.6247V77.747H567.952C567.519 76.644 567.212 75.5968 567.044 74.6194C566.876 73.642 566.737 72.5389 566.639 71.2963C564.656 73.4465 562.38 75.2756 559.797 76.7976C556.712 78.5848 553.221 79.4784 549.325 79.4784C544.369 79.4784 540.264 78.0542 537.024 75.2198C533.785 72.3854 532.165 68.3501 532.165 63.1421C532.165 56.3841 534.762 51.4832 539.956 48.4672C542.805 46.8196 546.994 45.6468 552.537 44.9347L557.424 44.3343C560.077 43.9992 561.962 43.5803 563.107 43.0776C565.145 42.198 566.178 40.8436 566.178 38.9866C566.178 36.7386 565.396 35.1748 563.847 34.323C562.283 33.4713 559.993 33.0385 556.977 33.0385C553.584 33.0385 551.196 33.8762 549.786 35.5657C548.781 36.8084 548.111 38.4979 547.776 40.6063H533.938C534.246 35.8031 535.586 31.8516 537.96 28.7519L537.974 28.6961ZM548.627 67.3448C549.968 68.4479 551.615 69.0064 553.556 69.0064C556.642 69.0064 559.49 68.0988 562.087 66.2837C564.684 64.4685 566.039 61.1593 566.136 56.3422V50.9945C565.229 51.567 564.321 52.0277 563.4 52.3768C562.478 52.7259 561.208 53.061 559.602 53.3542L556.377 53.9546C553.361 54.4991 551.196 55.1554 549.884 55.9233C547.678 57.2358 546.561 59.2744 546.561 62.025C546.561 64.4825 547.245 66.2418 548.627 67.3169V67.3448Z"/>
<path d="M590.186 3.36771H604.526V77.733H590.186V3.36771Z"/>
<path d="M629.945 2.9211V16.1857H615.41V2.9211H629.945ZM629.945 22.7481V77.7333H615.41V22.7481H629.945Z"/>
<path d="M668.929 67.4984V78.2497L662.143 78.501C655.371 78.7384 650.736 77.5655 648.264 74.9684C646.659 73.3208 645.849 70.7796 645.849 67.3448V33.4853H638.197V23.2506H645.849V7.91954H660.035V23.2506H668.943V33.4853H660.035V62.5416C660.035 64.7896 660.314 66.1999 660.886 66.7584C661.459 67.3169 663.204 67.5961 666.123 67.5961C666.555 67.5961 667.016 67.5961 667.505 67.5682C667.994 67.5542 668.468 67.5263 668.943 67.4984H668.929Z"/>
<path d="M700.429 63.3097L711.753 22.748H727L708.178 76.8256C704.562 87.2557 701.686 93.7204 699.577 96.2198C697.469 98.7191 693.238 99.9757 686.899 99.9757C685.628 99.9757 684.595 99.9757 683.827 99.9478C683.059 99.9338 681.9 99.878 680.351 99.7663V88.261L682.166 88.3587C683.576 88.4286 684.916 88.3727 686.187 88.2052C687.458 88.0376 688.533 87.6467 689.412 87.0463C690.25 86.4738 691.032 85.287 691.744 83.4579C692.456 81.6287 692.763 80.5257 692.624 80.1347L672.504 22.7201H688.449L700.429 63.2817V63.3097Z"/>
</mask>
<path d="M31.5085 66.8701C35.1667 66.8701 38.1268 66.4652 40.4167 65.6553C44.7451 64.1055 46.9094 61.2291 46.9094 57.0264C46.9094 54.5689 45.8342 52.67 43.6979 51.3296C41.5477 50.0171 38.1827 48.8582 33.5889 47.8529L25.7419 46.0936C18.0205 44.3482 12.6868 42.4493 9.74065 40.3968C4.74201 36.962 2.24268 31.6003 2.24268 24.2978C2.24268 17.6376 4.65823 12.1084 9.48932 7.69615C14.3204 3.28394 21.4135 1.0918 30.7685 1.0918C38.5876 1.0918 45.2478 3.17224 50.7631 7.31916C56.2783 11.48 59.1686 17.498 59.4339 25.4009H44.5357C44.2704 20.9328 42.3296 17.7493 38.6993 15.8643C36.2837 14.6217 33.2818 13.9933 29.6933 13.9933C25.7 13.9933 22.5165 14.8032 20.1289 16.4089C17.7413 18.0146 16.5544 20.2765 16.5544 23.1668C16.5544 25.8197 17.7273 27.8024 20.073 29.1149C21.581 29.9946 24.8064 31.0139 29.7352 32.1867L42.5111 35.2585C48.1101 36.5989 52.3409 38.4001 55.1892 40.6621C59.6154 44.1667 61.8355 49.2212 61.8355 55.8535C61.8355 62.4858 59.2384 68.2943 54.0583 72.7763C48.8781 77.2583 41.5616 79.5063 32.0949 79.5063C22.6282 79.5063 14.837 77.3002 9.3078 72.874C3.77857 68.4479 1 62.3741 1 54.6388H15.7865C16.2612 58.0317 17.1828 60.5729 18.5511 62.2624C21.0644 65.3202 25.3789 66.8561 31.4806 66.8561L31.5085 66.8701Z" fill="white"/>
<path d="M114.849 28.5286C119.276 33.2759 121.496 40.2293 121.496 49.4168C121.496 59.1069 119.318 66.4931 114.975 71.5616C110.633 76.644 105.034 79.1852 98.192 79.1852C93.8356 79.1852 90.2053 78.0961 87.329 75.904C85.7512 74.6893 84.2153 72.9299 82.7073 70.6121V99.2636H68.5212V22.6223H82.2605V30.7486C83.7964 28.361 85.444 26.476 87.1894 25.0937C90.3729 22.6363 94.1707 21.4076 98.555 21.4076C104.964 21.4076 110.395 23.7812 114.849 28.5146V28.5286ZM106.695 50.1149C106.695 45.8702 105.732 42.1282 103.805 38.861C101.878 35.5937 98.7505 33.974 94.422 33.974C89.2279 33.974 85.6535 36.4454 83.7127 41.3882C82.7073 44.0132 82.2047 47.3363 82.2047 51.3715C82.2047 57.7665 83.8942 62.2485 87.2871 64.8455C89.2977 66.3535 91.6854 67.1215 94.436 67.1215C98.4293 67.1215 101.473 65.5716 103.568 62.4858C105.662 59.3861 106.709 55.2671 106.709 50.1289L106.695 50.1149Z" fill="white"/>
<path d="M177.215 61.4663C176.852 64.7336 175.149 68.0427 172.133 71.4077C167.441 76.7555 160.865 79.4363 152.418 79.4363C145.436 79.4363 139.293 77.1883 133.959 72.6784C128.625 68.1684 125.958 60.838 125.958 50.6871C125.958 41.1645 128.36 33.876 133.177 28.7936C137.994 23.7112 144.235 21.17 151.915 21.17C156.481 21.17 160.586 22.0217 164.244 23.7391C167.902 25.4565 170.918 28.1653 173.306 31.8654C175.456 35.1327 176.838 38.9165 177.481 43.2171C177.844 45.7443 177.997 49.3746 177.927 54.108H140.396C140.591 59.6232 142.323 63.4909 145.576 65.711C147.559 67.0933 149.932 67.7775 152.725 67.7775C155.671 67.7775 158.072 66.9397 159.916 65.2502C160.921 64.3426 161.814 63.086 162.582 61.4663H177.229H177.215ZM163.029 44.6133C162.792 40.8155 161.647 37.9252 159.58 35.9565C157.514 33.9877 154.959 33.0103 151.901 33.0103C148.578 33.0103 146.009 34.0575 144.18 36.138C142.35 38.2184 141.206 41.0528 140.731 44.6133H163.029Z" fill="white"/>
<path d="M236.326 61.4663C235.963 64.7336 234.26 68.0427 231.244 71.4077C226.553 76.7555 219.976 79.4363 211.529 79.4363C204.547 79.4363 198.404 77.1883 193.07 72.6784C187.736 68.1684 185.069 60.838 185.069 50.6871C185.069 41.1645 187.471 33.876 192.288 28.7936C197.105 23.7112 203.346 21.17 211.026 21.17C215.592 21.17 219.697 22.0217 223.355 23.7391C227.013 25.4565 230.029 28.1653 232.417 31.8654C234.567 35.1327 235.949 38.9165 236.592 43.2171C236.955 45.7443 237.108 49.3746 237.038 54.108H199.507C199.702 59.6232 201.434 63.4909 204.687 65.711C206.67 67.0933 209.043 67.7775 211.836 67.7775C214.782 67.7775 217.184 66.9397 219.027 65.2502C220.032 64.3426 220.926 63.086 221.693 61.4663H236.34H236.326ZM222.14 44.6133C221.903 40.8155 220.758 37.9252 218.691 35.9565C216.625 33.9877 214.07 33.0103 211.012 33.0103C207.689 33.0103 205.12 34.0575 203.291 36.138C201.462 38.2184 200.317 41.0528 199.842 44.6133H222.14Z" fill="white"/>
<path d="M296.664 3.35361V77.6212H282.729V69.9976C280.677 73.2648 278.359 75.6385 275.734 77.1046C273.123 78.5846 269.87 79.3247 265.974 79.3247C259.565 79.3247 254.175 76.7276 249.805 71.5335C245.435 66.3393 243.243 59.6652 243.243 51.5249C243.243 42.142 245.393 34.7557 249.707 29.3801C254.022 24.0044 259.775 21.3096 266.993 21.3096C270.316 21.3096 273.262 22.0357 275.846 23.5018C278.429 24.9679 280.523 26.9925 282.129 29.5756V3.35361H296.664ZM258.029 50.4638C258.029 55.5462 259.035 59.5954 261.045 62.6253C263.028 65.6831 266.044 67.219 270.107 67.219C274.17 67.219 277.256 65.711 279.364 62.6811C281.473 59.6512 282.534 55.7417 282.534 50.9245C282.534 44.1945 280.844 39.3913 277.451 36.5011C275.371 34.7557 272.955 33.8761 270.205 33.8761C266.016 33.8761 262.93 35.4678 260.975 38.6374C259.021 41.8069 258.029 45.7583 258.029 50.4638Z" fill="white"/>
<path d="M344.35 79.4223C336.838 79.4223 330.974 77.2023 326.743 72.7621C322.513 68.322 320.404 63.3932 320.404 57.9756C320.404 53.5076 321.507 49.6678 323.727 46.4704C325.933 43.2729 329.564 40.1173 334.59 36.9897L336.154 36.0263C334.004 33.6107 332.342 31.1393 331.169 28.6121C329.997 26.0848 329.41 23.4598 329.41 20.7371C329.41 15.3196 331.225 11.0889 334.842 8.045C338.458 5.00113 343.163 3.47919 348.93 3.47919C354.194 3.47919 358.55 5.02905 361.985 8.14274C365.42 11.2564 367.137 15.2358 367.137 20.0808C367.137 24.4512 366.104 27.9977 364.038 30.7204C361.971 33.4432 358.955 35.9704 354.962 38.2882L365.476 51.3015C366.691 49.5561 367.612 47.6572 368.268 45.6047C368.925 43.5522 369.26 41.3879 369.302 39.098H382.036C381.84 43.608 380.765 48.1598 378.81 52.7675C377.735 55.3506 375.99 58.213 373.574 61.3406L387.062 77.5793H369.651L364.526 71.2681C362.041 73.5859 359.723 75.3033 357.587 76.4203C353.761 78.4031 349.349 79.3944 344.35 79.3944V79.4223ZM343.554 45.2277C339.966 47.6153 337.592 49.7237 336.433 51.5388C335.275 53.354 334.702 55.3506 334.702 57.5428C334.702 60.0002 335.693 62.2482 337.69 64.3007C339.687 66.3532 342.242 67.3725 345.37 67.3725C347.715 67.3725 349.935 66.828 352.03 65.7389C354.124 64.6498 355.828 63.4211 357.14 62.0807L343.554 45.2277ZM342.591 20.2484C342.591 21.5888 343.066 23.013 344.001 24.4931C344.602 25.4705 345.914 27.2018 347.925 29.6872C349.935 28.277 351.374 27.0762 352.253 26.0988C353.929 24.2836 354.766 22.3149 354.766 20.1925C354.766 18.6427 354.264 17.2604 353.259 16.0596C352.253 14.8588 350.731 14.2444 348.679 14.2444C347.408 14.2444 346.207 14.5935 345.104 15.3056C343.429 16.3528 342.591 18.0004 342.591 20.2484Z" fill="white"/>
<path d="M446.851 78.138C443.528 79.2411 439.562 79.7995 434.927 79.7995C425.265 79.7995 417.292 76.9093 410.981 71.1287C403.329 64.1613 399.517 53.9406 399.517 40.4527C399.517 26.9647 403.441 16.5904 411.288 9.62301C417.697 3.94019 425.656 1.0918 435.192 1.0918C444.729 1.0918 452.827 4.10774 459.334 10.1257C466.845 17.0931 470.601 26.8251 470.601 39.3356C470.601 45.9679 469.792 51.5111 468.186 55.9792C466.873 60.2518 464.947 63.7983 462.405 66.6188L470.951 74.6473L462.852 83.1227L453.902 74.6473C451.179 76.2949 448.834 77.4538 446.865 78.124L446.851 78.138ZM443.528 64.7198L436.03 57.557L444.03 49.1793L451.528 56.3422C452.701 53.9267 453.525 51.8043 454 49.9892C454.74 47.2665 455.103 44.083 455.103 40.4527C455.103 32.1169 453.399 25.6662 449.992 21.1004C446.586 16.5485 441.615 14.2586 435.08 14.2586C428.937 14.2586 424.05 16.4508 420.392 20.8211C416.733 25.1914 414.904 31.7399 414.904 40.4527C414.904 50.6454 417.515 57.9479 422.751 62.3462C426.144 65.2085 430.193 66.6327 434.927 66.6327C436.7 66.6327 438.417 66.4093 440.065 65.9765C440.973 65.7391 442.131 65.3202 443.542 64.7198H443.528Z" fill="white"/>
<path d="M511.452 69.9699C511.312 70.1374 510.977 70.6401 510.446 71.4778C509.916 72.3156 509.274 73.0556 508.534 73.6979C506.286 75.7225 504.107 77.0909 502.013 77.8309C499.919 78.5709 497.461 78.9339 494.641 78.9339C486.528 78.9339 481.055 76.0018 478.234 70.1514C476.657 66.926 475.875 62.1647 475.875 55.8675V22.7201H490.564V55.8675C490.564 58.9952 490.927 61.3549 491.667 62.9327C492.979 65.7252 495.534 67.1215 499.36 67.1215C504.261 67.1215 507.612 65.1388 509.427 61.1734C510.363 59.0231 510.837 56.1747 510.837 52.6422V22.7201H525.373V77.7052H511.438V69.9419L511.452 69.9699Z" fill="white"/>
<path d="M537.974 28.6961C541.758 23.851 548.264 21.4355 557.494 21.4355C563.497 21.4355 568.831 22.6362 573.495 25.0239C578.158 27.4115 580.49 31.9214 580.49 38.5398V63.7704C580.49 65.5157 580.518 67.638 580.588 70.1234C580.686 72.0084 580.979 73.279 581.44 73.9631C581.914 74.6334 582.612 75.1919 583.548 75.6247V77.747H567.952C567.519 76.644 567.212 75.5968 567.044 74.6194C566.876 73.642 566.737 72.5389 566.639 71.2963C564.656 73.4465 562.38 75.2756 559.797 76.7976C556.712 78.5848 553.221 79.4784 549.325 79.4784C544.369 79.4784 540.264 78.0542 537.024 75.2198C533.785 72.3854 532.165 68.3501 532.165 63.1421C532.165 56.3841 534.762 51.4832 539.956 48.4672C542.805 46.8196 546.994 45.6468 552.537 44.9347L557.424 44.3343C560.077 43.9992 561.962 43.5803 563.107 43.0776C565.145 42.198 566.178 40.8436 566.178 38.9866C566.178 36.7386 565.396 35.1748 563.847 34.323C562.283 33.4713 559.993 33.0385 556.977 33.0385C553.584 33.0385 551.196 33.8762 549.786 35.5657C548.781 36.8084 548.111 38.4979 547.776 40.6063H533.938C534.246 35.8031 535.586 31.8516 537.96 28.7519L537.974 28.6961ZM548.627 67.3448C549.968 68.4479 551.615 69.0064 553.556 69.0064C556.642 69.0064 559.49 68.0988 562.087 66.2837C564.684 64.4685 566.039 61.1593 566.136 56.3422V50.9945C565.229 51.567 564.321 52.0277 563.4 52.3768C562.478 52.7259 561.208 53.061 559.602 53.3542L556.377 53.9546C553.361 54.4991 551.196 55.1554 549.884 55.9233C547.678 57.2358 546.561 59.2744 546.561 62.025C546.561 64.4825 547.245 66.2418 548.627 67.3169V67.3448Z" fill="white"/>
<path d="M590.186 3.36771H604.526V77.733H590.186V3.36771Z" fill="white"/>
<path d="M629.945 2.9211V16.1857H615.41V2.9211H629.945ZM629.945 22.7481V77.7333H615.41V22.7481H629.945Z" fill="white"/>
<path d="M668.929 67.4984V78.2497L662.143 78.501C655.371 78.7384 650.736 77.5655 648.264 74.9684C646.659 73.3208 645.849 70.7796 645.849 67.3448V33.4853H638.197V23.2506H645.849V7.91954H660.035V23.2506H668.943V33.4853H660.035V62.5416C660.035 64.7896 660.314 66.1999 660.886 66.7584C661.459 67.3169 663.204 67.5961 666.123 67.5961C666.555 67.5961 667.016 67.5961 667.505 67.5682C667.994 67.5542 668.468 67.5263 668.943 67.4984H668.929Z" fill="white"/>
<path d="M700.429 63.3097L711.753 22.748H727L708.178 76.8256C704.562 87.2557 701.686 93.7204 699.577 96.2198C697.469 98.7191 693.238 99.9757 686.899 99.9757C685.628 99.9757 684.595 99.9757 683.827 99.9478C683.059 99.9338 681.9 99.878 680.351 99.7663V88.261L682.166 88.3587C683.576 88.4286 684.916 88.3727 686.187 88.2052C687.458 88.0376 688.533 87.6467 689.412 87.0463C690.25 86.4738 691.032 85.287 691.744 83.4579C692.456 81.6287 692.763 80.5257 692.624 80.1347L672.504 22.7201H688.449L700.429 63.2817V63.3097Z" fill="white"/>
<path d="M31.5085 66.8701C35.1667 66.8701 38.1268 66.4652 40.4167 65.6553C44.7451 64.1055 46.9094 61.2291 46.9094 57.0264C46.9094 54.5689 45.8342 52.67 43.6979 51.3296C41.5477 50.0171 38.1827 48.8582 33.5889 47.8529L25.7419 46.0936C18.0205 44.3482 12.6868 42.4493 9.74065 40.3968C4.74201 36.962 2.24268 31.6003 2.24268 24.2978C2.24268 17.6376 4.65823 12.1084 9.48932 7.69615C14.3204 3.28394 21.4135 1.0918 30.7685 1.0918C38.5876 1.0918 45.2478 3.17224 50.7631 7.31916C56.2783 11.48 59.1686 17.498 59.4339 25.4009H44.5357C44.2704 20.9328 42.3296 17.7493 38.6993 15.8643C36.2837 14.6217 33.2818 13.9933 29.6933 13.9933C25.7 13.9933 22.5165 14.8032 20.1289 16.4089C17.7413 18.0146 16.5544 20.2765 16.5544 23.1668C16.5544 25.8197 17.7273 27.8024 20.073 29.1149C21.581 29.9946 24.8064 31.0139 29.7352 32.1867L42.5111 35.2585C48.1101 36.5989 52.3409 38.4001 55.1892 40.6621C59.6154 44.1667 61.8355 49.2212 61.8355 55.8535C61.8355 62.4858 59.2384 68.2943 54.0583 72.7763C48.8781 77.2583 41.5616 79.5063 32.0949 79.5063C22.6282 79.5063 14.837 77.3002 9.3078 72.874C3.77857 68.4479 1 62.3741 1 54.6388H15.7865C16.2612 58.0317 17.1828 60.5729 18.5511 62.2624C21.0644 65.3202 25.3789 66.8561 31.4806 66.8561L31.5085 66.8701Z" stroke="#626262" stroke-width="2" mask="url(#path-1-outside-1_2001_58)"/>
<path d="M114.849 28.5286C119.276 33.2759 121.496 40.2293 121.496 49.4168C121.496 59.1069 119.318 66.4931 114.975 71.5616C110.633 76.644 105.034 79.1852 98.192 79.1852C93.8356 79.1852 90.2053 78.0961 87.329 75.904C85.7512 74.6893 84.2153 72.9299 82.7073 70.6121V99.2636H68.5212V22.6223H82.2605V30.7486C83.7964 28.361 85.444 26.476 87.1894 25.0937C90.3729 22.6363 94.1707 21.4076 98.555 21.4076C104.964 21.4076 110.395 23.7812 114.849 28.5146V28.5286ZM106.695 50.1149C106.695 45.8702 105.732 42.1282 103.805 38.861C101.878 35.5937 98.7505 33.974 94.422 33.974C89.2279 33.974 85.6535 36.4454 83.7127 41.3882C82.7073 44.0132 82.2047 47.3363 82.2047 51.3715C82.2047 57.7665 83.8942 62.2485 87.2871 64.8455C89.2977 66.3535 91.6854 67.1215 94.436 67.1215C98.4293 67.1215 101.473 65.5716 103.568 62.4858C105.662 59.3861 106.709 55.2671 106.709 50.1289L106.695 50.1149Z" stroke="#626262" stroke-width="2" mask="url(#path-1-outside-1_2001_58)"/>
<path d="M177.215 61.4663C176.852 64.7336 175.149 68.0427 172.133 71.4077C167.441 76.7555 160.865 79.4363 152.418 79.4363C145.436 79.4363 139.293 77.1883 133.959 72.6784C128.625 68.1684 125.958 60.838 125.958 50.6871C125.958 41.1645 128.36 33.876 133.177 28.7936C137.994 23.7112 144.235 21.17 151.915 21.17C156.481 21.17 160.586 22.0217 164.244 23.7391C167.902 25.4565 170.918 28.1653 173.306 31.8654C175.456 35.1327 176.838 38.9165 177.481 43.2171C177.844 45.7443 177.997 49.3746 177.927 54.108H140.396C140.591 59.6232 142.323 63.4909 145.576 65.711C147.559 67.0933 149.932 67.7775 152.725 67.7775C155.671 67.7775 158.072 66.9397 159.916 65.2502C160.921 64.3426 161.814 63.086 162.582 61.4663H177.229H177.215ZM163.029 44.6133C162.792 40.8155 161.647 37.9252 159.58 35.9565C157.514 33.9877 154.959 33.0103 151.901 33.0103C148.578 33.0103 146.009 34.0575 144.18 36.138C142.35 38.2184 141.206 41.0528 140.731 44.6133H163.029Z" stroke="#626262" stroke-width="2" mask="url(#path-1-outside-1_2001_58)"/>
<path d="M236.326 61.4663C235.963 64.7336 234.26 68.0427 231.244 71.4077C226.553 76.7555 219.976 79.4363 211.529 79.4363C204.547 79.4363 198.404 77.1883 193.07 72.6784C187.736 68.1684 185.069 60.838 185.069 50.6871C185.069 41.1645 187.471 33.876 192.288 28.7936C197.105 23.7112 203.346 21.17 211.026 21.17C215.592 21.17 219.697 22.0217 223.355 23.7391C227.013 25.4565 230.029 28.1653 232.417 31.8654C234.567 35.1327 235.949 38.9165 236.592 43.2171C236.955 45.7443 237.108 49.3746 237.038 54.108H199.507C199.702 59.6232 201.434 63.4909 204.687 65.711C206.67 67.0933 209.043 67.7775 211.836 67.7775C214.782 67.7775 217.184 66.9397 219.027 65.2502C220.032 64.3426 220.926 63.086 221.693 61.4663H236.34H236.326ZM222.14 44.6133C221.903 40.8155 220.758 37.9252 218.691 35.9565C216.625 33.9877 214.07 33.0103 211.012 33.0103C207.689 33.0103 205.12 34.0575 203.291 36.138C201.462 38.2184 200.317 41.0528 199.842 44.6133H222.14Z" stroke="#626262" stroke-width="2" mask="url(#path-1-outside-1_2001_58)"/>
<path d="M296.664 3.35361V77.6212H282.729V69.9976C280.677 73.2648 278.359 75.6385 275.734 77.1046C273.123 78.5846 269.87 79.3247 265.974 79.3247C259.565 79.3247 254.175 76.7276 249.805 71.5335C245.435 66.3393 243.243 59.6652 243.243 51.5249C243.243 42.142 245.393 34.7557 249.707 29.3801C254.022 24.0044 259.775 21.3096 266.993 21.3096C270.316 21.3096 273.262 22.0357 275.846 23.5018C278.429 24.9679 280.523 26.9925 282.129 29.5756V3.35361H296.664ZM258.029 50.4638C258.029 55.5462 259.035 59.5954 261.045 62.6253C263.028 65.6831 266.044 67.219 270.107 67.219C274.17 67.219 277.256 65.711 279.364 62.6811C281.473 59.6512 282.534 55.7417 282.534 50.9245C282.534 44.1945 280.844 39.3913 277.451 36.5011C275.371 34.7557 272.955 33.8761 270.205 33.8761C266.016 33.8761 262.93 35.4678 260.975 38.6374C259.021 41.8069 258.029 45.7583 258.029 50.4638Z" stroke="#626262" stroke-width="2" mask="url(#path-1-outside-1_2001_58)"/>
<path d="M344.35 79.4223C336.838 79.4223 330.974 77.2023 326.743 72.7621C322.513 68.322 320.404 63.3932 320.404 57.9756C320.404 53.5076 321.507 49.6678 323.727 46.4704C325.933 43.2729 329.564 40.1173 334.59 36.9897L336.154 36.0263C334.004 33.6107 332.342 31.1393 331.169 28.6121C329.997 26.0848 329.41 23.4598 329.41 20.7371C329.41 15.3196 331.225 11.0889 334.842 8.045C338.458 5.00113 343.163 3.47919 348.93 3.47919C354.194 3.47919 358.55 5.02905 361.985 8.14274C365.42 11.2564 367.137 15.2358 367.137 20.0808C367.137 24.4512 366.104 27.9977 364.038 30.7204C361.971 33.4432 358.955 35.9704 354.962 38.2882L365.476 51.3015C366.691 49.5561 367.612 47.6572 368.268 45.6047C368.925 43.5522 369.26 41.3879 369.302 39.098H382.036C381.84 43.608 380.765 48.1598 378.81 52.7675C377.735 55.3506 375.99 58.213 373.574 61.3406L387.062 77.5793H369.651L364.526 71.2681C362.041 73.5859 359.723 75.3033 357.587 76.4203C353.761 78.4031 349.349 79.3944 344.35 79.3944V79.4223ZM343.554 45.2277C339.966 47.6153 337.592 49.7237 336.433 51.5388C335.275 53.354 334.702 55.3506 334.702 57.5428C334.702 60.0002 335.693 62.2482 337.69 64.3007C339.687 66.3532 342.242 67.3725 345.37 67.3725C347.715 67.3725 349.935 66.828 352.03 65.7389C354.124 64.6498 355.828 63.4211 357.14 62.0807L343.554 45.2277ZM342.591 20.2484C342.591 21.5888 343.066 23.013 344.001 24.4931C344.602 25.4705 345.914 27.2018 347.925 29.6872C349.935 28.277 351.374 27.0762 352.253 26.0988C353.929 24.2836 354.766 22.3149 354.766 20.1925C354.766 18.6427 354.264 17.2604 353.259 16.0596C352.253 14.8588 350.731 14.2444 348.679 14.2444C347.408 14.2444 346.207 14.5935 345.104 15.3056C343.429 16.3528 342.591 18.0004 342.591 20.2484Z" stroke="#626262" stroke-width="2" mask="url(#path-1-outside-1_2001_58)"/>
<path d="M446.851 78.138C443.528 79.2411 439.562 79.7995 434.927 79.7995C425.265 79.7995 417.292 76.9093 410.981 71.1287C403.329 64.1613 399.517 53.9406 399.517 40.4527C399.517 26.9647 403.441 16.5904 411.288 9.62301C417.697 3.94019 425.656 1.0918 435.192 1.0918C444.729 1.0918 452.827 4.10774 459.334 10.1257C466.845 17.0931 470.601 26.8251 470.601 39.3356C470.601 45.9679 469.792 51.5111 468.186 55.9792C466.873 60.2518 464.947 63.7983 462.405 66.6188L470.951 74.6473L462.852 83.1227L453.902 74.6473C451.179 76.2949 448.834 77.4538 446.865 78.124L446.851 78.138ZM443.528 64.7198L436.03 57.557L444.03 49.1793L451.528 56.3422C452.701 53.9267 453.525 51.8043 454 49.9892C454.74 47.2665 455.103 44.083 455.103 40.4527C455.103 32.1169 453.399 25.6662 449.992 21.1004C446.586 16.5485 441.615 14.2586 435.08 14.2586C428.937 14.2586 424.05 16.4508 420.392 20.8211C416.733 25.1914 414.904 31.7399 414.904 40.4527C414.904 50.6454 417.515 57.9479 422.751 62.3462C426.144 65.2085 430.193 66.6327 434.927 66.6327C436.7 66.6327 438.417 66.4093 440.065 65.9765C440.973 65.7391 442.131 65.3202 443.542 64.7198H443.528Z" stroke="#626262" stroke-width="2" mask="url(#path-1-outside-1_2001_58)"/>
<path d="M511.452 69.9699C511.312 70.1374 510.977 70.6401 510.446 71.4778C509.916 72.3156 509.274 73.0556 508.534 73.6979C506.286 75.7225 504.107 77.0909 502.013 77.8309C499.919 78.5709 497.461 78.9339 494.641 78.9339C486.528 78.9339 481.055 76.0018 478.234 70.1514C476.657 66.926 475.875 62.1647 475.875 55.8675V22.7201H490.564V55.8675C490.564 58.9952 490.927 61.3549 491.667 62.9327C492.979 65.7252 495.534 67.1215 499.36 67.1215C504.261 67.1215 507.612 65.1388 509.427 61.1734C510.363 59.0231 510.837 56.1747 510.837 52.6422V22.7201H525.373V77.7052H511.438V69.9419L511.452 69.9699Z" stroke="#626262" stroke-width="2" mask="url(#path-1-outside-1_2001_58)"/>
<path d="M537.974 28.6961C541.758 23.851 548.264 21.4355 557.494 21.4355C563.497 21.4355 568.831 22.6362 573.495 25.0239C578.158 27.4115 580.49 31.9214 580.49 38.5398V63.7704C580.49 65.5157 580.518 67.638 580.588 70.1234C580.686 72.0084 580.979 73.279 581.44 73.9631C581.914 74.6334 582.612 75.1919 583.548 75.6247V77.747H567.952C567.519 76.644 567.212 75.5968 567.044 74.6194C566.876 73.642 566.737 72.5389 566.639 71.2963C564.656 73.4465 562.38 75.2756 559.797 76.7976C556.712 78.5848 553.221 79.4784 549.325 79.4784C544.369 79.4784 540.264 78.0542 537.024 75.2198C533.785 72.3854 532.165 68.3501 532.165 63.1421C532.165 56.3841 534.762 51.4832 539.956 48.4672C542.805 46.8196 546.994 45.6468 552.537 44.9347L557.424 44.3343C560.077 43.9992 561.962 43.5803 563.107 43.0776C565.145 42.198 566.178 40.8436 566.178 38.9866C566.178 36.7386 565.396 35.1748 563.847 34.323C562.283 33.4713 559.993 33.0385 556.977 33.0385C553.584 33.0385 551.196 33.8762 549.786 35.5657C548.781 36.8084 548.111 38.4979 547.776 40.6063H533.938C534.246 35.8031 535.586 31.8516 537.96 28.7519L537.974 28.6961ZM548.627 67.3448C549.968 68.4479 551.615 69.0064 553.556 69.0064C556.642 69.0064 559.49 68.0988 562.087 66.2837C564.684 64.4685 566.039 61.1593 566.136 56.3422V50.9945C565.229 51.567 564.321 52.0277 563.4 52.3768C562.478 52.7259 561.208 53.061 559.602 53.3542L556.377 53.9546C553.361 54.4991 551.196 55.1554 549.884 55.9233C547.678 57.2358 546.561 59.2744 546.561 62.025C546.561 64.4825 547.245 66.2418 548.627 67.3169V67.3448Z" stroke="#626262" stroke-width="2" mask="url(#path-1-outside-1_2001_58)"/>
<path d="M590.186 3.36771H604.526V77.733H590.186V3.36771Z" stroke="#626262" stroke-width="2" mask="url(#path-1-outside-1_2001_58)"/>
<path d="M629.945 2.9211V16.1857H615.41V2.9211H629.945ZM629.945 22.7481V77.7333H615.41V22.7481H629.945Z" stroke="#626262" stroke-width="2" mask="url(#path-1-outside-1_2001_58)"/>
<path d="M668.929 67.4984V78.2497L662.143 78.501C655.371 78.7384 650.736 77.5655 648.264 74.9684C646.659 73.3208 645.849 70.7796 645.849 67.3448V33.4853H638.197V23.2506H645.849V7.91954H660.035V23.2506H668.943V33.4853H660.035V62.5416C660.035 64.7896 660.314 66.1999 660.886 66.7584C661.459 67.3169 663.204 67.5961 666.123 67.5961C666.555 67.5961 667.016 67.5961 667.505 67.5682C667.994 67.5542 668.468 67.5263 668.943 67.4984H668.929Z" stroke="#626262" stroke-width="2" mask="url(#path-1-outside-1_2001_58)"/>
<path d="M700.429 63.3097L711.753 22.748H727L708.178 76.8256C704.562 87.2557 701.686 93.7204 699.577 96.2198C697.469 98.7191 693.238 99.9757 686.899 99.9757C685.628 99.9757 684.595 99.9757 683.827 99.9478C683.059 99.9338 681.9 99.878 680.351 99.7663V88.261L682.166 88.3587C683.576 88.4286 684.916 88.3727 686.187 88.2052C687.458 88.0376 688.533 87.6467 689.412 87.0463C690.25 86.4738 691.032 85.287 691.744 83.4579C692.456 81.6287 692.763 80.5257 692.624 80.1347L672.504 22.7201H688.449L700.429 63.2817V63.3097Z" stroke="#626262" stroke-width="2" mask="url(#path-1-outside-1_2001_58)"/>
</svg>
