<svg width="527" height="365" viewBox="0 0 527 365" fill="none" xmlns="http://www.w3.org/2000/svg">
<g opacity="0.5">
<path d="M91.9421 352.994C91.1017 353.18 91.115 351.983 91.3744 351.467L91.7698 349.301C91.9132 349.037 92.569 348.736 92.316 348.256C91.7484 346.73 89.734 349.837 89.29 350.24C88.8188 350.654 88.1835 351.144 87.8351 351.105C86.9263 350.927 87.5409 350.248 87.6159 349.618C87.8474 347.526 85.3749 349.851 84.7876 350.518C83.9884 351.083 83.1687 351.459 82.3695 352.024C81.8777 352.249 81.5909 352.778 81.0991 353.003C80.6072 353.229 80.2382 353.001 79.7463 353.227C79.4184 353.377 79.0905 353.528 78.7832 353.867C78.6193 353.942 78.4964 354.396 78.3804 354.647C78.0525 354.798 77.5533 353.637 76.8496 353.761C75.9887 353.759 75.3741 354.438 74.5337 354.625C73.714 355.001 73.0171 354.923 72.2517 354.48C71.1172 353.809 70.0783 352.698 68.8005 352.291C68.0351 351.848 67.3176 351.582 66.7161 351.063C66.1147 350.545 65.4927 349.838 65.0346 349.055C64.5765 348.273 63.7905 347.641 63.3119 346.669C62.6693 345.773 62.3546 344.726 62.0332 343.881C61.2399 341.863 60.4398 340.046 59.7898 337.763C59.345 335.784 59.672 333.251 59.555 331.121C59.4248 330.189 59.6225 329.105 59.9842 327.947C60.1276 327.683 60.2025 327.053 60.182 326.864C60.4208 326.159 60.7487 326.008 61.22 325.594C61.7867 324.738 61.9845 323.655 62.0867 323.012C62.6123 321.779 62.974 320.62 63.1923 319.726C64.9875 315.131 66.7621 310.347 68.9742 306.156C73.255 298.039 77.9798 289.52 84.181 282.706C85.7109 281.21 86.6872 279.373 88.1965 277.688C89.5213 275.89 91.1946 274.13 92.7245 272.634L94.705 270.535C95.0329 270.384 95.3403 270.045 95.6682 269.894C95.9961 269.744 96.1806 269.858 96.4879 269.518C96.8158 269.368 96.7474 269.002 97.0547 268.663C97.362 268.323 97.6693 267.984 97.9972 267.834C98.9604 267.193 99.4728 267.157 100.019 266.112C100.634 265.434 101.242 264.956 101.856 264.277C102.799 263.448 103.714 262.631 104.677 261.991C105.476 261.426 107.355 259.969 107.266 261.796C107.014 263.698 105.703 264.3 104.501 265.645C104.378 266.098 104.098 266.425 103.791 266.765C103.463 266.915 103.135 267.066 102.828 267.405C102.261 268.261 101.851 269.242 101.121 270.173C100.342 270.927 99.7752 271.783 99.1399 272.272C98.3613 273.027 97.5416 273.402 97.1388 274.183C96.572 275.038 96.7565 275.152 95.9574 275.717C95.4655 275.943 95.5066 276.321 95.2678 277.026C95.0289 277.731 94.4143 278.41 93.7996 279.089C93.4923 279.428 93.3489 279.693 93.021 279.843C92.6931 279.993 92.3446 279.955 92.0167 280.105C91.8734 280.369 91.819 281.188 91.6756 281.452C91.2249 282.056 90.6376 282.723 90.0024 283.212L88.1108 285.867C87.824 286.395 87.0728 287.137 87.0184 287.956C86.8339 287.842 86.1987 288.332 86.2877 288.886L86.2671 288.697C85.3246 289.526 84.7578 290.382 84.0477 291.502C83.7403 291.841 83.2691 292.256 83.1942 292.886C83.0713 293.339 83.4883 293.743 83.2494 294.448C82.69 296.69 80.6477 298.222 79.5074 300.135C78.9612 301.179 78.9275 302.187 78.1694 303.131C77.7666 303.911 77.1931 304.968 76.5852 305.445C75.6221 306.085 74.9457 306.197 74.6046 307.545C74.3657 308.25 74.6599 309.107 74.0452 309.786C73.6415 308.185 72.5359 311.471 72.3925 311.735C72.1536 312.44 72.3793 312.932 71.9765 313.713C71.7376 314.418 71.123 315.097 70.8362 315.625C70.1878 317.312 69.9357 319.214 69.6425 320.738C68.8986 322.866 68.2707 324.742 67.3217 326.567C66.6733 328.254 66.7285 329.817 66.408 331.353C66.1765 333.445 65.7399 335.233 65.8568 337.363C65.8025 338.182 65.7003 338.824 65.8099 339.568C65.94 340.501 66.3981 341.284 66.6717 341.952L67.6495 344.084C67.7591 344.828 67.7048 345.647 68.1628 346.43C68.826 347.515 70.0421 347.354 71.0669 347.281C71.7433 347.17 72.6315 347.16 73.3284 347.237C74.1893 347.239 75.0569 347.04 76.0612 346.778C76.9015 346.591 77.7897 346.581 78.63 346.394C79.3064 346.282 80.085 345.528 80.9048 345.152C81.7451 344.965 82.2369 344.74 83.0155 343.985C83.7941 343.231 84.7778 342.78 85.5497 342.228C86.9841 341.173 88.3911 340.131 89.4771 339.037C91.0275 337.73 92.3729 336.121 93.3698 334.473C95.7121 331.215 97.3301 327.892 98.9754 324.557C100.737 320.97 102.129 317.155 103.358 313.416C104.565 309.487 105.746 305.571 106.769 301.528C107.813 297.675 108.481 293.795 109.361 290.017C110.569 286.088 111.216 282.02 111.885 278.14C111.973 276.313 112.225 274.411 112.504 272.496C112.92 270.519 112.803 268.389 113.363 266.147C113.451 264.32 113.751 262.594 113.982 260.503C114.05 258.487 114.117 256.471 114.697 254.418C114.785 252.591 114.546 250.914 114.825 249C115.036 246.719 115.035 244.337 115.082 242.132L115.173 228.989C115.005 220.331 114.558 212 113.735 203.643C113.214 199.911 113.206 196.143 112.521 192.487C111.584 188.351 110.366 184.542 109.429 180.407C108.84 178.691 108.58 176.826 108.156 175.035L107.178 172.903C107.02 171.982 106.849 170.671 106.248 170.153C105.646 169.635 105.831 169.749 105.339 169.974L104.683 170.275C104.171 170.312 103.938 170.021 103.774 170.096C103.282 170.322 103.535 170.801 103.064 171.216C102.429 171.706 101.425 171.968 100.789 172.458C99.3345 173.324 98.9317 174.104 98.2832 175.791C98.3244 176.169 98.0855 176.874 97.7782 177.213L96.9584 177.589C96.4666 177.815 96.1798 178.344 95.7086 178.758C95.1212 179.425 94.6021 179.663 93.9257 179.774C93.2493 179.886 92.689 179.746 92.1223 180.601C91.651 181.016 91.2687 181.985 90.982 182.514C90.2513 183.445 89.4521 184.01 88.6941 184.953C88.1273 185.808 87.5126 186.487 86.898 187.166C86.1194 187.92 85.9143 187.617 85.074 187.804C84.0697 188.066 84.0976 189.641 83.3464 190.383C82.4928 191.767 81.2908 193.112 80.1094 194.647C79.6587 195.25 79.1669 195.476 78.4905 195.587C77.8347 195.888 77.7119 196.342 77.3297 197.311C76.5173 199.073 75.2741 200.04 74.4412 201.613C73.4237 203.072 72.2012 204.229 71.6961 205.651C70.8632 207.224 69.9553 209.427 68.7327 210.584C68.2615 210.998 67.913 210.96 67.5102 211.74C66.9434 212.595 66.4721 213.01 66.042 213.803C65.5913 214.406 65.373 215.301 65.1341 216.006C64.9158 216.9 64.5336 217.869 63.9395 218.737C63.2911 220.424 62.2942 222.072 60.9967 223.859C60.1432 225.243 59.7066 227.031 58.8942 228.793L56.0816 234.847C55.4331 236.534 55.0171 238.512 53.8563 240.235C53.6174 240.94 52.9822 241.43 52.5315 242.034C52.1286 242.814 52.0949 243.822 51.6853 244.804C51.0848 246.667 50.1084 248.505 49.6718 250.293C49.0919 252.346 48.5119 254.398 48.2325 256.313C47.8503 257.282 47.9599 258.026 47.8782 258.858C47.8444 259.866 47.4622 260.835 47.2439 261.729C47.1352 263.367 47.3955 265.233 46.5831 266.995C46.3648 267.889 45.8936 268.304 45.6547 269.009C45.2519 269.789 45.0063 270.696 45.1159 271.44C44.8844 273.531 45.3292 275.511 45.7535 277.301C45.8837 278.234 45.8293 279.053 46.1235 279.911C46.0691 280.73 46.3427 281.398 46.6368 282.256C46.767 283.189 46.9862 284.676 46.3921 285.544C45.2312 287.268 43.2012 285.221 42.5586 284.325C41.3352 283.099 40.1117 281.874 39.5029 279.969C38.9147 278.254 38.3264 276.539 37.8816 274.559C37.6212 272.693 36.8485 270.864 36.916 268.848C36.9498 267.84 37.1681 266.946 37.0379 266.013L36.4834 263.289C36.5716 261.462 36.4957 259.71 36.7751 257.796C37.2117 256.007 37.3477 254.357 37.7843 252.569C37.6747 251.825 37.893 250.931 38.3232 250.138C38.562 249.433 39.1767 248.754 39.0877 248.199C39.3265 247.494 39.2442 246.738 39.4831 246.033C39.3941 245.478 39.6603 244.76 39.8991 244.055C40.138 243.35 40.4174 241.435 41.2371 241.059L41.0732 241.135C41.3121 240.429 41.4143 239.787 41.8377 239.196C41.9126 238.566 42.4044 238.34 42.5067 237.698C42.4655 237.32 42.3971 236.954 42.5405 236.69C42.6633 236.237 42.9433 235.91 43.0661 235.456C43.3049 234.751 43.5027 233.668 43.9328 232.875L44.6767 230.747C44.9635 230.219 45.1818 229.325 45.6531 228.91C46.1038 228.306 46.1655 228.874 46.5139 228.912C47.0058 228.687 47.2241 227.793 47.2035 227.603C47.4012 226.52 47.7752 221.783 49.395 223.224C49.6001 223.527 49.8531 224.006 50.345 223.781C50.6523 223.441 50.5221 222.508 50.7816 221.992C51.0204 221.287 51.6351 220.608 51.71 219.978C52.0922 219.009 52.3584 218.291 52.9252 217.436C54.2294 215.448 55.3218 213.359 56.4142 211.27C56.981 210.415 57.7596 209.661 58.3263 208.805C58.4697 208.541 58.7629 207.017 58.2711 207.242L58.435 207.167C59.3981 206.527 59.9238 205.293 60.4905 204.438L63.379 200.136C64.2736 199.13 64.9632 197.821 65.8646 196.613C66.5748 195.494 67.6813 194.589 68.5554 193.394L71.0616 190.061C71.9357 188.866 72.8577 187.848 73.7523 186.842C76.0402 184.403 77.6245 182.089 79.933 179.839C81.1555 178.683 82.426 177.703 83.3206 176.697C84.3792 175.616 85.6908 175.015 86.5923 173.807C86.8996 173.468 87.1384 172.763 87.6303 172.537C88.1221 172.312 88.6345 172.275 89.1058 171.861C90.2329 171.145 90.2667 170.137 91.6194 169.914C92.7876 169.576 93.3817 168.709 94.3175 168.081C95.704 166.849 97.1384 165.795 98.45 165.193C99.4337 164.742 101.114 164.368 102.057 163.539C102.528 163.124 102.46 162.759 102.583 162.305C102.842 161.789 103.477 161.3 103.99 161.263C105.158 160.926 106.033 162.113 107.078 162.229C108.335 162.446 109.415 161.554 110.467 161.469C111.656 161.321 112.51 162.318 113.439 162.686C114.485 162.802 115.393 162.981 115.428 164.355C114.629 164.92 113.748 164.729 113.153 165.597C112.443 166.716 113.749 168.698 114.371 169.405C116.019 172.422 117.38 175.966 118.044 179.433C118.174 180.366 118.468 181.224 118.414 182.043C118.36 182.862 118.257 183.504 118.695 184.098C118.804 184.841 119.242 185.435 119.488 186.116C119.454 187.124 119.421 188.132 119.715 188.99C119.934 190.477 121.109 191.526 121.493 192.939C122.081 194.654 122.362 196.709 122.622 198.575C122.903 200.63 123.327 202.42 123.772 204.4C123.848 206.152 124.436 207.867 124.348 209.694C124.096 211.596 124.664 213.122 124.712 214.887C124.829 217.017 125.11 219.072 125.206 221.013C125.282 222.764 125.194 224.592 125.571 226.206C125.667 228.146 125.599 230.163 125.532 232.179C125.423 233.817 125.8 235.431 125.691 237.069C125.623 239.085 125.72 241.026 125.304 243.003C125.249 243.822 124.908 245.17 124.71 246.253C124.82 246.997 125.374 247.338 125.483 248.082C125.593 248.826 125.375 249.72 125.457 250.476C125.498 250.854 125.382 251.106 125.259 251.56L125.642 252.972C125.793 254.094 125.739 254.913 125.541 255.996C125.487 256.815 125.781 257.673 125.515 258.39C125.296 259.285 124.702 260.153 124.648 260.972L123.966 263.667L123.705 261.801C123.288 261.396 122.633 261.697 122.578 262.516C122.688 263.26 123.549 263.262 123.966 263.667C124.444 264.638 123.939 266.061 124.281 267.095C124.808 268.243 124.336 268.658 123.995 270.005L123.607 273.558C123.41 274.641 123.027 275.611 122.85 276.883C122.816 277.891 123.363 279.228 122.954 280.21C122.831 280.663 122.387 281.066 122.449 281.633L122.128 283.169C121.582 284.214 120.694 284.224 120.127 285.08C120.004 285.533 119.909 285.974 119.417 286.199C119.068 286.161 118.556 286.197 118.249 286.537C117.777 286.951 117.908 287.884 117.669 288.589C117.546 289.043 117.02 290.276 117.888 290.077C118.564 289.965 118.578 288.768 119.602 288.695C121.741 289.104 120.834 293.689 120.186 295.376C119.803 296.345 120.323 297.695 119.551 298.247C119.08 298.662 118.711 298.434 118.26 299.038C117.81 299.641 117.735 300.271 117.824 300.826C117.933 301.57 118.597 302.655 118.214 303.625C117.504 304.744 115.994 304.047 115.584 303.441C115.693 303.391 115.741 303.303 115.727 303.177C115.051 303.289 115.475 305.079 115.516 305.458C115.298 306.352 114.704 307.22 114.096 307.697C113.317 308.451 113.222 308.892 112.86 310.05C112.662 311.134 112.28 312.103 112.431 313.225C111.194 313.196 112.077 315.769 112.397 314.233C112.684 313.704 112.288 313.489 112.554 312.772C113.004 312.168 113.428 311.577 113.899 311.162C114.37 310.747 115.17 310.182 115.744 310.713C116.017 311.382 115.259 312.325 115 312.841C114.549 313.445 114.966 313.849 114.748 314.743C114.365 315.712 113.73 316.202 113.095 316.692C112.644 317.296 112.385 317.812 112.119 318.529C111.975 318.794 111.668 319.133 111.736 319.499C111.805 319.864 112.153 319.903 112.338 320.017C113.144 320.838 111.778 322.259 111.164 322.938C110.856 323.277 110.221 323.767 110.126 324.208C109.723 324.988 109.805 325.744 109.751 326.563C110.045 327.421 109.847 328.504 109.465 329.474C109.39 330.103 108.906 331.715 108.434 332.13C107.799 332.62 106.849 332.063 106.467 333.032C106.303 333.107 106.556 333.587 106.577 333.776C106.618 334.154 106.666 334.331 106.358 334.67C106.071 335.199 105.218 336.583 104.87 336.544C104.542 336.694 104.664 336.241 104.337 336.391C104.009 336.542 103.77 337.247 103.626 337.511C103.585 337.133 102.861 337.068 102.963 336.426C102.909 337.245 102.643 337.962 103.626 337.511C103.388 338.216 103.429 338.594 102.773 338.895C102.096 339.007 101.7 338.791 101.461 339.497C101.222 340.202 101.1 340.655 100.813 341.183C100.506 341.523 99.9593 342.567 100.8 342.381C101.291 342.155 101.53 341.45 102.07 341.401C102.603 341.554 102.241 342.712 101.982 343.228C101.743 343.933 101.292 344.537 100.678 345.216C100.37 345.555 100.227 345.819 99.8991 345.97C99.4073 346.195 98.7309 346.307 98.6081 346.76C98.3213 347.289 98.5743 347.768 98.2876 348.297C97.9053 349.266 97.3039 348.748 96.6275 348.86C96.4636 348.935 96.3202 349.199 95.9717 349.161C95.7872 349.047 95.6027 348.933 95.2269 348.907C94.5505 349.018 94.8858 350.254 94.2505 350.744C93.7793 351.159 93.3212 350.376 92.8294 350.602C92.153 350.713 92.0508 351.356 91.9758 351.986C92.2015 352.478 92.2905 353.032 91.7781 353.069L91.9421 352.994ZM82.2931 348.684C82.4982 348.987 83.1128 348.308 83.4407 348.158C83.7686 348.007 84.7523 347.556 84.1509 347.038C83.9252 346.546 83.3105 347.225 82.9826 347.375C82.6547 347.526 81.7122 348.355 82.2931 348.684ZM86.9923 344.941C87.4636 344.526 88.4473 344.075 88.5017 343.256C88.3921 342.512 87.8591 342.36 87.3878 342.774C86.9165 343.189 86.0498 345.77 86.9923 344.941ZM89.7398 347.254C90.1773 347.848 92.6704 345.712 92.5402 344.779C92.41 343.846 91.5359 345.041 91.0646 345.455C90.7573 345.795 89.3023 346.661 89.7398 347.254ZM90.4485 342.165C91.1248 342.053 92.1761 339.586 90.9873 339.734C89.9146 339.63 89.2803 342.502 90.4485 342.165ZM94.2966 346.157C94.6657 346.385 95.1164 345.781 95.2598 345.517L96.4206 343.793C96.147 343.125 97.602 342.259 98.2167 341.58C99.6032 340.349 99.9986 338.182 100.626 336.306C101.009 335.337 101.918 335.516 102.32 334.735C102.723 333.955 102.408 332.908 102.839 332.115C103.241 331.335 103.603 330.177 103.869 329.459C104.436 328.604 105.051 327.925 105.454 327.144C106.164 326.025 106.218 325.206 106.395 323.933C106.593 322.85 106.996 322.07 107.241 321.163C107.821 319.111 108.777 317.084 109.193 315.107C109.555 313.948 109.773 313.054 109.807 312.046C109.841 311.038 110.182 309.691 109.867 308.644L110.031 308.569C109.027 308.831 108.891 310.481 108.672 311.375C108.188 312.987 107.895 314.511 107.226 316.009C106.741 317.621 106.305 319.409 105.8 320.832C105.513 321.36 105.131 322.33 104.598 322.177C104.413 322.063 104.139 321.395 103.934 321.092C103.948 319.895 105.403 319.029 105.764 317.87L106.016 315.968C106.235 315.074 106.542 314.734 106.617 314.105C106.856 313.399 106.794 312.832 107.033 312.127C107.272 311.422 107.538 310.704 107.756 309.81L108.438 307.115C108.513 306.485 108.431 305.729 108.691 305.213C108.404 305.742 107.912 305.967 107.652 306.483C107.202 307.087 107.147 307.906 107.073 308.536C106.731 309.883 106.438 311.407 106.794 312.832C105.79 313.094 105.449 314.442 105.087 315.6C104.561 316.834 103.913 318.521 103.948 319.895C103.825 320.348 104.057 320.638 103.77 321.167C103.791 321.356 103.32 321.771 103.04 322.097C102.186 323.481 102.173 324.679 103.027 325.676C101.736 326.467 100.74 328.115 99.9339 329.676L98.2063 332.255C97.8035 333.035 97.7218 333.866 97.3396 334.836C97.0669 336.549 95.6531 337.793 94.8201 339.366L93.5844 341.719C93.2021 342.689 93.6123 343.295 94.4594 342.906C94.5005 343.284 93.8794 344.959 93.6264 344.479C93.8521 344.971 93.8456 345.967 94.3786 346.119L94.2966 346.157ZM96.5244 347.12C97.2007 347.009 97.3779 345.736 97.4528 345.107C97.6505 344.023 97.5071 344.288 96.8102 344.21C96.7896 344.021 96.6257 344.096 96.6051 343.907C96.7764 345.218 95.7178 346.299 96.5244 347.12ZM48.194 226.951C49.2188 226.878 49.3754 225.416 48.5556 225.792C48.3917 225.867 48.1528 226.573 48.194 226.951ZM98.9861 334.676C98.9655 334.487 99.2044 333.782 99.3478 333.518C99.5661 332.624 99.7985 332.914 100.222 332.323C100.386 332.248 100.345 331.87 100.461 331.618C100.604 331.354 100.536 330.988 100.843 330.648C101.082 329.943 101.533 329.34 101.819 328.811C102.27 328.207 102.509 327.502 102.748 326.797C102.912 326.722 102.966 325.903 103.13 325.828C103.273 325.564 103.484 323.283 104.127 324.18C104.564 324.773 103.82 326.901 103.718 327.543C103.193 328.777 102.045 329.303 101.704 330.651C101.527 331.923 100.796 332.854 100.414 333.823C100.339 334.453 98.9935 336.062 98.9588 334.689L98.9861 334.676ZM107.982 327.97C108.966 327.519 108.323 326.623 107.647 326.734C107.011 327.224 107.326 328.271 107.982 327.97ZM110.234 320.188C110.418 320.302 110.767 320.341 110.725 319.962C110.561 320.038 110.377 319.924 110.234 320.188ZM93.5396 278.017C93.6829 277.753 94.1954 277.716 93.8263 277.488C93.15 277.6 93.519 277.828 93.5396 278.017ZM110.004 308.581C111.766 307.376 111.765 304.994 111.689 303.242C111.887 302.159 112.29 301.379 112.324 300.371C112.282 299.993 112.214 299.627 112.685 299.212C112.849 299.137 113.594 299.391 113.505 298.836C113.464 298.458 112.268 298.808 112.104 298.883C111.285 299.259 111.251 300.267 111.196 301.086C111.019 302.358 110.678 303.706 110.317 304.864C109.811 306.287 109.45 307.446 109.976 308.594L110.004 308.581ZM109.202 302.795C109.345 302.531 109.325 302.341 109.277 302.165C109.256 301.976 109.4 301.712 109.188 301.61C108.976 301.509 109.208 301.799 109.277 302.165C108.949 302.315 108.71 303.02 109.202 302.795ZM110.266 299.13C110.574 298.791 110.355 297.303 110.313 296.925C110.621 296.586 110.86 295.881 110.982 295.427C110.941 295.049 110.688 294.57 110.217 294.984C109.91 295.324 110.347 295.917 110.388 296.295C110.266 296.749 110.313 296.925 110.027 297.454C109.74 297.982 109.46 298.309 109.686 298.801C109.727 299.179 109.795 299.545 110.266 299.13ZM112.09 296.111C112.548 296.893 113.237 295.584 113.524 295.056C113.763 294.351 113.517 293.67 113.592 293.04C113.625 292.032 114.008 291.062 114.062 290.243C112.894 290.581 112.464 291.373 112.662 292.672C112.813 293.794 111.795 295.253 112.09 296.111ZM115.63 298.854C115.739 299.598 116.819 298.706 116.757 298.139C116.388 297.911 115.356 298.186 115.63 298.854ZM117.617 295.76C117.924 295.42 118.348 294.829 117.466 294.638C116.933 294.485 116.524 295.467 116.428 295.908C116.108 297.444 117.337 296.086 117.781 295.684L117.617 295.76ZM114.205 289.979C114.608 289.199 114.854 288.292 115.093 287.587C115.379 287.059 115.659 286.732 115.762 286.089C116 285.384 116.136 283.734 115.412 283.669C114.176 283.64 114.197 286.211 114.122 286.841C114.163 287.219 114.047 287.471 114.068 287.66C113.945 288.113 113.617 288.264 113.665 288.44C113.303 289.599 113.98 289.487 114.233 289.967L114.205 289.979ZM119.447 292.538C119.897 291.934 119.296 291.416 119.111 291.302L119.153 291.681C119.009 291.945 118.996 293.142 119.447 292.538ZM109.848 258.627C110.012 258.552 110.34 258.402 110.319 258.213C110.429 258.956 109.848 258.627 109.848 258.627ZM80.1813 186.077C80.4754 186.935 81.1856 185.815 81.2399 184.996C81.1509 184.442 79.8872 185.22 80.1813 186.077ZM82.9817 183.602C83.1867 183.905 83.658 183.491 83.9448 182.962C83.5963 182.923 82.756 183.11 82.9817 183.602ZM84.1152 181.891C84.8121 181.969 85.1738 180.81 84.518 181.111C84.518 181.111 84.2107 181.45 84.1152 181.891ZM85.8907 179.489C86.0752 179.603 86.2597 179.717 86.3825 179.263C86.198 179.149 86.0341 179.225 85.8907 179.489ZM92.1628 179.392C92.1422 179.203 92.3062 179.127 92.3062 179.127C92.1966 178.384 91.3974 178.949 92.1628 179.392ZM93.8484 174.053C94.3196 173.638 95.1937 172.443 94.3328 172.441C93.8204 172.478 93.172 174.165 93.8484 174.053Z" fill="#FF0004"/>
<path d="M170.91 297.523C170.801 297.573 170.685 297.56 170.562 297.484C170.398 297.559 170.213 297.445 169.981 297.155C169.776 296.852 169.4 296.826 169.12 297.153L168.792 297.303L167.228 297.425C166.995 297.399 166.667 297.55 166.244 297.876C165.936 298.216 165.773 298.291 165.424 298.252C165.076 298.214 164.679 297.998 164.167 298.035C163.982 297.921 163.613 297.693 163.237 297.667C162.821 297.263 162.103 296.996 161.522 296.667C161.133 296.25 160.572 296.11 159.875 296.033L159.294 295.703C159.11 295.59 158.925 295.476 158.693 295.185C158.345 295.146 158.112 294.856 157.764 294.817C157.579 294.703 157.395 294.59 157.019 294.563C156.65 294.336 156.233 293.931 156.028 293.628L155.406 292.921C155.18 292.429 154.879 291.773 154.49 291.356C154.073 290.952 153.704 290.724 153.451 290.244C153.287 290.32 153.266 290.13 153.266 290.13C153.061 289.827 152.849 289.726 152.808 289.348L151.475 287.379C151.085 286.962 150.812 286.293 150.559 285.814C150.285 285.145 150.032 284.665 149.622 284.06L149.341 282.005C149.157 281.891 149.116 281.513 148.904 281.411L148.568 280.175C148.479 279.621 148.233 278.94 148.124 278.196L147.884 276.519C147.774 275.775 147.829 274.956 148.095 274.239C148.238 273.975 148.218 273.785 148.17 273.609C148.129 273.231 148.06 272.865 148.183 272.412C148.306 271.958 148.258 271.782 148.053 271.479L147.663 271.062C147.643 270.873 147.437 270.57 147.554 270.318L147.423 269.385L147.614 266.916C147.525 266.361 147.648 265.908 147.886 265.203L147.797 264.648C147.756 264.27 147.524 263.979 147.483 263.601C147.462 263.412 147.298 263.487 147.278 263.298C147.236 262.92 147.189 262.744 147.475 262.215C147.762 261.687 147.837 261.057 147.796 260.678L147.755 260.3C147.714 259.922 147.809 259.481 147.768 259.103C147.891 258.65 148.007 258.398 147.966 258.02C148.184 257.126 148.218 256.118 148.251 255.11C148.21 254.731 148.285 254.102 148.408 253.648C148.387 253.459 148.531 253.195 148.647 252.943C148.934 252.415 149.029 251.974 149.152 251.52C149.275 251.067 149.227 250.891 149.186 250.512L148.769 250.108C148.564 249.805 148.475 249.25 148.761 248.722C148.884 248.269 149.123 247.563 149.43 247.224C149.717 246.695 149.669 246.519 149.608 245.952L149.519 245.397C149.498 245.208 149.477 245.019 149.594 244.767C149.832 244.062 149.935 243.42 150.01 242.79C149.968 242.411 150.228 241.895 150.371 241.631C150.515 241.367 150.61 240.926 150.59 240.737C150.548 240.359 150.644 239.918 150.623 239.729L150.862 239.024C150.985 238.571 150.937 238.394 151.265 238.244C151.736 237.829 152.044 237.49 152.303 236.974C152.61 236.634 152.706 236.193 152.501 235.89C152.48 235.701 152.296 235.587 152.275 235.398C152.07 235.095 152.049 234.906 152.145 234.465L152.745 232.602C152.889 232.338 152.984 231.897 153.107 231.443L153.346 230.738L154.166 230.362C154.309 230.098 154.473 230.023 154.569 229.582C154.712 229.318 154.691 229.129 154.48 229.027L154.295 228.914C154.09 228.611 154.021 228.245 154.308 227.716C154.431 227.263 154.67 226.558 154.957 226.029C155.195 225.324 155.626 224.532 156.028 223.751L156.37 222.404C156.492 221.95 156.752 221.434 157.039 220.906L157.441 220.126C157.728 219.597 158.056 219.447 158.384 219.296L159.204 218.92C159.368 218.845 159.654 218.317 159.606 218.14C159.729 217.687 159.661 217.321 159.62 216.943C159.579 216.565 159.695 216.313 159.674 216.124C159.817 215.86 159.749 215.494 159.892 215.23C160.343 214.626 160.602 214.11 160.869 213.392C161.155 212.864 161.599 212.462 162.071 212.047C162.214 211.783 162.378 211.708 162.542 211.633C163.69 211.106 164.653 210.466 165.8 209.94C166.436 209.45 167.112 209.338 167.768 209.037C168.116 209.076 168.444 208.926 168.793 208.964L169.353 209.105C169.701 209.143 169.886 209.257 170.098 209.359L171.253 210.218C171.458 210.521 171.69 210.812 171.731 211.19C171.772 211.568 171.656 211.82 171.698 212.198C171.739 212.576 171.807 212.942 172.176 213.17C172.545 213.397 172.778 213.688 173.003 214.18C173.208 214.483 173.277 214.849 173.482 215.151C173.687 215.454 173.755 215.82 173.797 216.198C173.886 216.753 173.927 217.131 174.18 217.611C174.289 218.354 174.515 218.846 174.625 219.59C174.502 220.044 174.734 220.334 174.775 220.712C175.001 221.204 175.233 221.495 175.65 221.899L176.108 222.682C176.129 222.871 176.314 222.985 176.334 223.174C176.56 223.666 176.792 223.956 176.881 224.511L176.922 224.889C177.148 225.381 177.258 226.125 177.203 226.944L177.333 227.877C177.354 228.066 177.559 228.369 177.771 228.47C178.304 228.623 178.864 228.763 179.541 228.651C179.725 228.765 179.889 228.69 180.053 228.615C180.401 228.653 180.893 228.428 181.385 228.202C181.57 228.316 181.898 228.166 182.041 227.901C182.697 227.601 183.168 227.186 183.68 227.15C184.172 226.924 184.664 226.698 185.135 226.284L186.85 224.902C188.216 223.482 189.691 222.805 190.818 222.089C190.982 222.014 191.126 221.75 191.269 221.486L192.594 219.687C193.045 219.083 193.414 219.311 194.8 218.08L195.251 217.476C195.435 217.59 195.743 217.251 195.702 216.872L196.74 215.602C197.231 215.377 197.682 214.773 198.126 214.371C198.905 213.617 199.677 213.064 200.476 212.499C200.762 211.971 201.111 212.009 201.418 211.67C201.726 211.331 202.095 211.558 202.423 211.408C202.792 211.636 203.447 211.335 204.192 211.589C204.356 211.514 204.561 211.817 204.561 211.817C204.602 212.195 204.999 212.41 205.532 212.563L205.833 213.219L205.867 213.799L205.458 217.162C205.499 217.54 205.219 217.867 205.076 218.132C205.097 218.321 204.912 218.207 204.605 218.546C204.461 218.81 204.318 219.075 204.038 219.402C203.895 219.666 203.587 220.005 203.656 220.371C203.533 220.824 203.253 221.151 202.925 221.302C202.782 221.566 202.474 221.905 202.379 222.346C202.092 222.875 201.976 223.126 201.669 223.466L201.217 222.482C201.006 222.38 200.883 222.834 200.555 222.984C200.411 223.248 199.94 223.663 199.776 223.738C199.469 224.078 199.49 224.267 199.394 224.708C199.271 225.161 199.155 225.413 198.848 225.752C198.54 226.092 198.233 226.431 197.905 226.581C197.577 226.732 197.086 226.957 196.778 227.297C196.471 227.636 196.191 227.963 195.836 228.126L195.016 228.502C194.709 228.841 194.217 229.067 193.889 229.217C193.212 229.329 192.741 229.744 192.27 230.158C191.963 230.498 191.635 230.648 191.307 230.799C190.979 230.949 190.794 230.835 190.61 230.721C190.261 230.682 189.913 230.644 189.701 230.542L189.168 230.39C188.512 230.691 187.877 231.18 187.802 231.81L187.659 232.075C187.495 232.15 187.351 232.414 187.167 232.3C186.675 232.526 186.327 232.487 185.835 232.713C185.486 232.674 185.302 232.56 185.138 232.635C184.789 232.596 184.441 232.558 183.949 232.783C183.785 232.858 183.457 233.009 183.273 232.895C182.596 233.007 182.036 232.867 181.408 233.155L180.335 233.051C180.171 233.126 179.822 233.088 179.638 232.974C179.433 232.671 179.057 232.645 178.729 232.795L177.868 232.793C177.704 232.868 177.54 232.943 177.397 233.207C177.11 233.736 177.015 234.177 177.076 234.744C177.118 235.122 177.493 235.148 177.821 234.998C177.965 234.734 178.129 234.658 178.293 234.583C178.436 234.319 178.764 234.169 178.969 234.472C179.153 234.586 179.174 234.775 179.195 234.964C179.468 235.632 179.366 236.275 179.127 236.98C178.984 237.244 178.84 237.508 178.888 237.685C178.745 237.949 178.601 238.213 178.834 238.504C178.875 238.882 179.107 239.172 179.312 239.475L179.443 240.408L179.86 240.813C180.276 241.217 180.502 241.709 180.591 242.264L180.68 242.818C180.721 243.197 180.646 243.827 180.735 244.381C180.613 244.835 180.517 245.275 180.21 245.615C180.23 245.804 180.066 245.879 179.923 246.143C179.616 246.483 179.636 246.672 179.541 247.113L179.671 248.046C179.548 248.499 179.432 248.751 179.104 248.901L178.373 249.832L177.971 250.612C177.848 251.065 177.916 251.431 178.285 251.659C178.306 251.848 178.49 251.962 178.654 251.887C178.859 252.19 179.187 252.039 179.331 251.775C179.659 251.624 179.802 251.36 179.966 251.285C180.151 251.399 180.171 251.588 180.404 251.878C180.424 252.068 180.445 252.257 180.329 252.508C180.021 252.848 179.926 253.289 179.618 253.628L178.875 255.756C178.916 256.134 178.984 256.5 179.189 256.803C179.34 257.131 179.39 257.505 179.34 257.925C179.361 258.114 179.381 258.303 179.566 258.417C179.586 258.606 179.771 258.72 179.791 258.909C179.996 259.212 179.942 260.031 179.635 260.37L179.184 260.974C178.979 260.671 178.958 260.482 178.746 260.38C178.705 260.002 178.473 259.712 178.432 259.334L178.281 258.212C178.24 257.834 178.055 257.72 177.7 257.883C177.345 258.045 177.229 258.297 177.297 258.663C177.222 259.293 177.469 259.974 177.886 260.378L178.057 261.689C178.364 261.35 178.528 261.275 178.856 261.124L179.02 261.049C179.202 261.495 179.526 261.743 179.991 261.795L180.032 262.173C179.888 262.437 179.724 262.513 179.56 262.588C179.089 263.002 178.597 263.228 178.174 263.819C178.065 263.869 178.003 263.831 177.989 263.705C177.825 263.781 177.641 263.667 177.784 263.402C177.743 263.024 177.695 262.848 177.818 262.394C177.961 262.13 177.941 261.941 178.036 261.5L177.872 261.575C177.217 261.876 176.978 262.581 176.712 263.299C176.732 263.488 176.637 263.929 176.821 264.043C176.944 264.118 177.013 264.219 177.026 264.346C177.231 264.648 177.443 264.75 177.3 265.014C177.341 265.392 177.409 265.758 177.287 266.211C177.328 266.589 177.212 266.841 177.089 267.295C176.802 267.823 176.727 268.453 176.652 269.083C176.529 269.536 176.577 269.713 176.762 269.827C176.967 270.13 177.179 270.231 177.199 270.42C177.514 271.467 177.972 272.249 178.43 273.032C178.635 273.335 178.704 273.7 178.581 274.154C178.581 274.154 178.601 274.343 178.438 274.418C178.363 275.048 178.24 275.501 178.329 276.056L178.459 276.989C178.316 277.253 178.336 277.442 178.384 277.619C178.22 277.694 178.077 277.958 177.913 278.033C177.599 278.31 177.464 278.57 177.51 278.814C177.531 279.003 177.387 279.267 177.435 279.444C177.312 279.897 177.196 280.149 177.237 280.527C176.951 281.055 177.183 281.346 177.675 281.12C178.167 280.895 178.351 281.009 178.276 281.638C178.297 281.828 178.365 282.193 178.222 282.457C178.243 282.646 178.099 282.911 178.147 283.087C177.744 283.868 177.478 284.585 177.239 285.29C176.952 285.819 176.672 286.146 176.181 286.371C175.996 286.257 175.832 286.333 175.689 286.597C175.709 286.786 175.566 287.05 175.778 287.152C175.819 287.53 176.003 287.644 176.072 288.009C176.256 288.123 176.298 288.501 176.181 288.753L175.84 290.101C175.697 290.365 175.554 290.629 175.39 290.704L175.246 290.969C175.103 291.233 175.123 291.422 174.96 291.497C174.741 292.391 174.291 292.995 173.655 293.485C173.348 293.824 172.877 294.239 172.385 294.464C172.221 294.54 172.241 294.729 172.098 294.993C172.139 295.371 172.187 295.548 172.064 296.001L172.01 296.82C171.867 297.084 171.723 297.349 171.559 297.424C171.416 297.688 171.067 297.649 170.883 297.535L170.91 297.523ZM155.649 285.663C155.649 285.663 155.628 285.474 155.464 285.549C155.28 285.435 155.137 285.699 155.157 285.889C155.157 285.889 155.178 286.078 155.342 286.002C155.355 286.128 155.417 286.166 155.526 286.116C155.69 286.041 155.67 285.852 155.649 285.663ZM165.858 290.113C166.166 289.773 166.309 289.509 166.425 289.257C166.5 288.627 166.766 287.91 167.026 287.394C167.169 287.129 167.148 286.94 167.1 286.764L167.769 285.266C167.913 285.002 168.056 284.737 168.008 284.561C168.152 284.296 168.295 284.032 168.227 283.667C168.349 283.213 168.609 282.697 168.875 281.98L169.162 281.451C169.449 280.923 169.687 280.217 169.762 279.588C169.885 279.134 169.981 278.693 170.124 278.429L170.575 277.825C170.718 277.561 170.814 277.12 170.793 276.931C170.868 276.301 170.827 275.923 171.134 275.584C171.373 274.879 171.475 274.236 171.55 273.606C171.625 272.976 171.707 272.145 171.597 271.401C171.761 271.326 171.741 271.137 171.741 271.137L171.699 270.759C171.986 270.23 172.061 269.6 172.136 268.97C172.149 267.773 172.347 266.69 172.729 265.721C172.709 265.532 172.852 265.267 172.804 265.091C172.947 264.826 172.927 264.637 172.879 264.461C173.002 264.007 172.933 263.642 173.056 263.188L172.885 261.877L173.137 259.975C173.212 259.345 173.15 258.778 173.225 258.148C173.211 258.022 173.252 257.871 173.348 257.695C173.471 257.242 173.382 256.687 173.504 256.233C173.415 255.679 173.538 255.225 173.613 254.595L173.483 253.663L173.537 252.844C173.592 252.025 173.858 251.307 174.097 250.602C174.404 250.263 174.336 249.897 174.294 249.519C174.274 249.33 174.089 249.216 174.069 249.027C174.028 248.649 173.959 248.283 174.246 247.754C174.225 247.565 174.369 247.301 174.321 247.124C174.3 246.935 174.444 246.671 174.396 246.495C174.519 246.041 174.45 245.676 174.245 245.373C174.019 244.881 173.766 244.401 173.841 243.771C173.8 243.393 173.711 242.838 173.834 242.385C173.793 242.007 173.888 241.566 174.032 241.302C174.127 241.125 174.23 241.012 174.339 240.962C174.482 240.698 174.414 240.332 174.373 239.954C174.332 239.576 174.079 239.096 174.154 238.467L173.763 235.668C173.674 235.113 173.797 234.66 173.92 234.207C174.042 233.753 173.953 233.199 173.748 232.896C173.475 232.227 173.085 231.81 172.832 231.331C172.415 230.926 172.21 230.623 171.698 230.66C171.165 230.507 170.748 230.103 170.331 229.698L169.914 229.294C169.402 229.331 169.169 229.04 168.8 228.812C168.431 228.585 168.055 228.558 167.707 228.52L167.051 228.82L166.6 229.424C166.272 229.575 165.986 230.103 165.87 230.355C165.774 230.531 165.733 230.682 165.747 230.808C165.46 231.337 165.037 231.928 164.586 232.532C164.279 232.871 164.183 233.312 163.917 234.029L163.938 234.219C163.719 235.113 163.522 236.196 163.139 237.165C163.16 237.354 163.18 237.543 163.064 237.795C163.105 238.173 163.153 238.35 163.031 238.803L162.396 241.675C162.253 241.939 162.321 242.305 162.178 242.569C161.775 243.349 161.53 244.256 161.311 245.15C161.332 245.339 161.188 245.604 161.072 245.855C160.908 245.93 160.765 246.195 160.622 246.459C160.499 246.912 160.383 247.164 160.424 247.542C160.513 248.097 160.411 248.739 160.336 249.369L160.084 251.271C159.845 251.977 159.763 252.808 159.873 253.552C159.837 254.098 159.73 254.61 159.552 255.088C159.245 255.428 159.313 255.794 159.334 255.983L159.423 256.537C159.628 256.84 159.533 257.281 159.553 257.47C159.314 258.175 159.212 258.818 159.137 259.448C159.062 260.077 159.144 260.834 159.09 261.653C159.131 262.031 159.036 262.472 158.913 262.925C158.626 263.454 158.674 263.63 158.9 264.122C159.084 264.236 159.125 264.614 159.194 264.98C159.071 265.433 159.14 265.799 159.017 266.252C158.819 267.336 158.437 268.305 158.424 269.502C158.444 269.691 158.301 269.955 158.205 270.396C158.062 270.66 157.755 271 157.802 271.176C157.68 271.63 157.748 271.995 157.933 272.109C158.35 272.514 158.575 273.006 158.849 273.674C159.033 273.788 159.054 273.977 158.938 274.229C159.027 274.784 159.068 275.162 158.966 275.804L158.857 277.442C158.878 277.631 158.734 277.896 158.734 277.896C158.466 278.416 158.407 278.84 158.557 279.168C158.783 279.66 159.015 279.95 159.104 280.505C159.125 280.694 159.029 281.135 159.234 281.438C159.46 281.93 159.406 282.749 159.515 283.493C159.536 283.682 159.604 284.048 159.789 284.161L159.973 284.275C160.527 284.617 160.78 285.097 160.705 285.726C160.794 286.281 160.856 286.848 161.273 287.253L161.82 288.59C161.909 289.145 162.114 289.448 162.483 289.675C162.688 289.978 162.92 290.269 162.962 290.647C163.235 291.316 163.42 291.429 163.789 291.657C163.973 291.771 164.301 291.621 164.465 291.546C164.916 290.942 165.339 290.351 165.831 290.125L165.858 290.113ZM172.252 287.18C172.211 286.802 172.471 286.286 172.593 285.833L172.484 285.089C172.832 285.128 173.16 284.977 173.72 285.117L173.884 285.042C174.069 285.156 174.356 284.628 174.499 284.363L174.458 283.985C174.417 283.607 174.328 283.052 174.123 282.749C173.918 282.446 173.849 282.081 173.665 281.967C173.501 282.042 173.521 282.231 173.378 282.495L172.613 284.434C172.47 284.698 172.491 284.887 172.538 285.064C172.374 285.139 172.211 285.214 172.067 285.479C171.944 285.932 171.828 286.184 171.542 286.712L171.562 286.901C171.419 287.166 171.672 287.645 171.836 287.57C172 287.495 172.164 287.419 172.307 287.155L172.252 287.18ZM175.625 281.266L175.966 279.919C176.089 279.465 176 278.911 175.631 278.683C175.59 278.305 175.405 278.191 175.358 278.014C175.248 278.064 175.2 278.152 175.214 278.278C174.811 279.059 174.566 279.965 174.163 280.746C173.856 281.085 173.76 281.526 173.617 281.79L174.362 282.044C174.525 281.969 174.71 282.083 174.874 282.008C175.058 282.122 175.694 281.632 175.653 281.254L175.625 281.266ZM175.658 277.876C175.986 277.726 176.293 277.386 176.437 277.122C176.437 277.122 176.58 276.858 176.559 276.669C176.593 275.661 176.606 274.464 176.804 273.38L176.784 273.191C176.742 272.813 176.558 272.699 176.346 272.598C176.162 272.484 175.998 272.559 176.018 272.748C175.493 273.982 175.329 274.057 175.548 275.545L175.637 276.099C175.657 276.288 175.678 276.478 175.562 276.729C175.603 277.107 175.508 277.548 175.385 278.002L175.713 277.851L175.658 277.876ZM178.504 270.814C178.491 270.688 178.422 270.587 178.299 270.511C178.279 270.322 178.258 270.133 178.374 269.881C178.354 269.692 178.518 269.617 178.661 269.353C178.825 269.277 179.01 269.391 179.03 269.58C179.071 269.959 179.468 270.174 179.673 270.477L179.693 270.666C179.714 270.855 179.57 271.119 179.407 271.194C179.263 271.459 179.099 271.534 178.915 271.42C178.874 271.042 178.689 270.928 178.477 270.827L178.504 270.814ZM178.421 267.676L178.401 267.487C178.312 266.932 178.598 266.404 178.673 265.774C178.632 265.396 178.564 265.03 178.687 264.577C178.687 264.577 178.666 264.388 178.83 264.312C179.137 263.973 179.465 263.823 179.67 264.126L180.087 264.53L180.176 265.085C180.217 265.463 180.122 265.904 179.999 266.357C179.692 266.696 179.432 267.212 179.146 267.741C178.818 267.891 178.49 268.042 178.449 267.663L178.421 267.676ZM175.886 249.384C175.866 249.195 175.681 249.081 175.469 248.98C175.49 249.169 175.347 249.433 175.394 249.61C175.394 249.61 175.415 249.799 175.6 249.913C175.743 249.648 175.907 249.573 175.886 249.384ZM180 250.277C179.979 250.088 179.959 249.899 180.143 250.013C180.307 249.938 180.328 250.127 180.348 250.316C180.389 250.694 180.273 250.946 180.109 251.021L180 250.277ZM172.174 225.28C172.317 225.016 172.297 224.827 172.085 224.725L172.064 224.536C170.971 224.244 170.165 223.422 169.215 222.865C169.105 222.916 169.044 222.878 169.03 222.751L168.702 222.902C168.538 222.977 168.374 223.052 168.415 223.43L168.436 223.619C168.874 224.213 169.243 224.441 169.823 224.77C170.404 225.099 171.101 225.176 171.682 225.506C171.867 225.619 172.031 225.544 172.174 225.28ZM166.575 216.532C166.575 216.532 166.554 216.343 166.39 216.419C166.349 216.04 166.117 215.75 165.912 215.447C165.891 215.258 165.727 215.333 165.563 215.408C165.345 215.509 165.188 215.647 165.092 215.823C165.113 216.012 165.133 216.201 165.318 216.315C165.523 216.618 165.871 216.657 166.083 216.758C166.268 216.872 166.432 216.797 166.575 216.532ZM201.024 217.012L200.935 216.457C200.771 216.533 200.628 216.797 200.279 216.758C200.115 216.833 200.156 217.212 200.04 217.463C199.897 217.728 200.061 217.652 200.245 217.766C200.43 217.88 201.065 217.39 201.024 217.012Z" fill="#FF0004"/>
<path d="M231.551 269.515C230.621 269.147 229.781 269.334 228.92 269.331C227.683 269.303 226.877 268.482 225.947 268.114C224.854 267.821 223.829 267.894 222.921 267.715C221.663 267.498 220.57 267.205 219.62 266.648C217.864 265.27 217.822 262.51 216.25 261.246C215.464 260.614 215.026 260.02 214.691 258.785C214.144 257.447 213.481 256.362 212.961 255.012C212.434 253.864 212.448 252.667 212.276 251.356C211.893 249.944 212.193 248.218 211.974 246.73C211.803 245.419 211.181 244.712 211.146 243.338C211.07 241.586 211.158 239.759 211.11 237.995C211.047 235.046 210.964 231.908 211.065 228.884L211.419 223.957C211.363 222.395 211.807 220.405 211.751 218.842C211.662 218.287 211.416 217.606 211.163 217.127L211.067 215.186C210.793 214.517 210.547 213.836 210.601 213.017C210.676 212.387 211.148 211.972 211.25 211.33C211.591 209.982 211.112 209.011 211.098 207.826C211.207 206.188 211.343 204.538 211.848 203.115C211.923 202.485 212.21 201.957 212.285 201.327C212.387 200.684 212.318 200.319 212.769 199.715C213.5 198.784 214.811 198.183 215.679 197.983C216.991 197.382 218.118 196.667 219.327 196.707C220.4 196.811 221.281 197.002 222.449 196.665C224.13 196.291 226.03 197.405 226.905 198.592C228.19 200.385 229.687 202.279 229.237 205.265C228.917 206.801 228.439 208.211 228.118 209.748C227.846 211.461 227.874 213.036 227.58 214.56C227.239 215.908 226.345 216.914 226.168 218.186C226.257 218.741 226.482 219.233 226.571 219.788C226.66 220.342 226.394 221.06 226.319 221.69C226.121 222.773 226.272 223.895 226.259 225.092L226.007 226.994C226.096 227.549 226.486 227.966 226.575 228.521C226.746 229.832 225.872 231.027 226.234 232.25C226.454 233.737 226.748 234.595 226.448 236.321C225.766 239.016 226.156 241.814 226.342 244.31C226.349 245.696 225.454 246.702 225.769 247.749C225.94 249.06 226.467 250.208 226.659 251.708C226.851 253.208 227.029 254.318 226.893 255.968C226.982 256.523 226.879 257.165 227.296 257.57C227.57 258.238 228.246 258.127 228.376 259.059C228.602 259.551 228.507 259.992 228.78 260.661C228.985 260.964 229.423 261.557 229.676 262.037C230.134 262.819 230.899 263.262 231.924 263.189C232.928 262.927 233.686 261.984 234.417 261.054L237.394 257.306C238.105 256.186 239.047 255.357 239.573 254.123C240.262 252.814 240.583 251.278 241.225 249.792L242.712 245.537L243.477 243.598C243.552 242.968 243.49 242.401 243.729 241.696C243.927 240.613 244.541 239.934 244.739 238.851C244.896 237.389 244.635 235.523 244.949 234.188C245.147 233.105 245.946 232.54 245.98 231.532C246.136 230.071 246.102 228.697 246.586 227.085C246.927 225.738 247.637 224.618 247.466 223.307C247.295 221.996 247.493 220.913 247.97 219.503C248.291 217.966 248.748 216.367 249.089 215.019C249.41 213.483 249.703 211.959 250.208 210.536C250.733 209.302 249.906 208.292 250.22 206.957C250.541 205.42 250.998 203.821 251.523 202.587C251.926 201.807 252.616 200.498 253.32 200.374C254.324 200.112 254.441 202.242 254.386 203.061C254.394 204.447 254.265 205.896 254.108 207.358C253.951 208.819 253.986 210.193 253.666 211.729C253.488 213.002 252.778 214.121 252.437 215.469C252.362 216.099 252.096 216.816 252.185 217.371C252.131 218.19 252.24 218.934 252.159 219.765L251.838 221.302C251.763 221.932 251.845 222.688 251.791 223.507C251.614 224.78 251.109 226.202 250.98 227.651C250.966 228.848 250.769 229.931 250.407 231.09C249.902 232.513 250.101 233.811 249.78 235.348C249.418 236.506 249.262 237.968 248.948 239.303C248.443 240.725 247.917 241.959 247.788 243.408C247.515 245.121 247.434 245.952 246.58 247.336C246.055 248.57 245.365 249.879 244.86 251.301C244.334 252.535 243.973 253.694 243.816 255.155C243.434 256.124 242.512 257.143 242.642 258.076C242.868 258.568 243.243 258.594 242.957 259.122C242.718 259.827 242.158 259.687 241.85 260.027C240.723 260.742 240.594 262.191 240.581 263.388C240.567 264.585 239.912 264.886 239.017 265.892C238.095 266.91 237.159 267.538 236.107 267.623C235.595 267.66 235.034 267.52 234.611 268.111C234.304 268.45 234.372 268.816 234.065 269.156C233.375 270.464 232.241 269.794 231.496 269.54L231.551 269.515ZM216.129 250.383C215.835 249.525 214.019 251.549 214.641 252.257C215.167 253.405 216.424 251.241 216.129 250.383ZM212.127 236.536C212.038 235.981 211.382 236.282 211.471 236.837C211.513 237.215 212.216 237.091 212.127 236.536ZM217.422 235.894C217.948 234.661 218.945 233.012 217.598 232.24C217.393 231.937 216.833 231.797 216.935 231.155C217.058 230.701 217.755 230.779 217.878 230.325C218.349 229.911 218.117 229.62 217.748 229.392C217.542 229.09 217.399 229.354 217.31 228.799C217.269 228.421 217.412 228.157 217.344 227.791C217.747 227.011 218.197 226.407 218.416 225.513C218.613 224.43 217.971 223.533 217.492 222.562C217.157 221.326 217.921 219.387 218.03 217.749C218.084 216.93 217.695 216.513 217.421 215.845C217.004 215.44 216.895 214.697 216.218 214.808C215.747 215.223 214.996 215.964 214.709 216.493C214.47 217.198 214.935 216.985 215.188 217.465C215.625 218.058 215.523 218.7 215.796 219.369C215.599 220.452 215.688 221.007 216.146 221.789C216.419 222.458 216.693 223.127 216.427 223.844C215.881 224.889 215.266 225.568 214.884 226.537C214.74 226.801 214.809 227.167 214.665 227.431C214.215 228.035 213.887 228.185 213.607 228.512C212.992 229.191 213.286 230.049 213.047 230.754C213.519 230.339 214.031 230.303 214.359 230.152C214.687 230.002 214.994 229.663 215.322 229.512C214.96 230.671 215.671 231.933 215.658 233.13C215.877 234.617 216.452 235.148 217.449 235.882L217.422 235.894ZM211.905 226.315C211.782 226.769 212.014 227.059 212.11 226.618C212.096 226.492 212.028 226.391 211.905 226.315ZM213.474 221.228C213.269 220.925 213.159 220.181 212.688 220.596C212.381 220.935 212.613 221.226 212.654 221.604C212.859 221.907 213.932 222.011 213.474 221.228ZM214.235 210.556C213.866 210.329 213.538 210.479 213.252 211.007C213.108 211.272 213.177 211.637 213.033 211.902C213.525 211.676 213.751 212.168 214.222 211.753C214.509 211.225 214.42 210.67 214.235 210.556ZM217.085 212.227C217.228 211.963 217.283 211.144 216.914 210.916C216.565 210.877 215.725 211.064 215.951 211.556C215.664 212.085 215.446 212.979 216.006 213.119C216.587 213.448 216.846 212.932 217.112 212.215L217.085 212.227ZM209.071 178.383C209.228 176.922 208.824 175.32 209.445 173.646C209.732 173.117 210.156 172.526 210.094 171.959C210.053 171.581 209.656 171.365 209.636 171.176C209.41 170.684 209.506 170.244 209.464 169.865C209.347 167.735 209.743 165.569 209.995 163.667C210.316 162.13 210.424 160.492 211.647 159.336C212.869 158.18 215.001 157.202 216.381 156.966C217.221 156.78 217.802 157.109 218.499 157.186C219.339 156.999 220.159 156.623 221.068 156.802C222.653 156.869 223.548 158.245 225.011 158.766C225.592 159.095 226.33 159.55 226.624 160.408C226.754 161.341 226.72 162.349 226.85 163.282C227.111 165.147 226.346 167.086 225.718 168.962C225.316 169.742 224.906 170.724 224.708 171.808C224.469 172.513 224.6 173.446 224.19 174.427C223.951 175.133 223.316 175.622 222.886 176.415C222.34 177.46 222.449 178.203 222.415 179.212C217.747 193.263 207.861 193.628 208.277 191.651C208.686 188.287 208.82 181.873 209.044 178.396L209.071 178.383ZM217.124 206.254C217.247 205.801 217.67 205.209 217.158 205.246C216.666 205.471 216.051 206.15 216.14 206.705C216.181 207.083 216.291 207.827 216.619 207.677C217.275 207.376 217.001 206.707 217.124 206.254ZM218.764 207.884C218.252 207.92 218.197 208.739 218.546 208.778C218.874 208.628 219.256 207.658 218.764 207.884Z" fill="#FF0004"/>
<path d="M307.357 235.345C307.049 235.685 307.979 236.053 307.651 236.203C307.2 236.807 306.954 236.125 306.414 236.175C306.066 236.136 305.943 236.589 305.594 236.55C304.918 236.662 304.153 236.219 303.572 235.89C303.155 235.486 302.929 234.994 302.348 234.664C301.979 234.437 301.651 234.587 301.091 234.447C300.182 234.268 298.986 233.03 298.221 232.587C297.804 232.183 297.558 231.502 297.141 231.097C296.792 231.059 296.321 231.473 295.952 231.245C294.346 230.989 294.065 228.934 293.026 227.823C292.315 226.561 291.529 225.929 290.798 224.477C290.23 222.951 289.785 220.972 289.525 219.106C289.395 218.173 289.572 216.901 289.606 215.893C289.455 214.771 288.744 213.509 288.593 212.387C288.203 209.588 288.263 206.186 288.528 203.086C288.916 199.534 288.744 195.841 289.269 192.226C289.534 189.126 289.963 185.952 290.597 183.08C291.034 181.292 291.839 178.143 291.435 176.542C290.922 174.197 290.541 177.548 290.254 178.076C290.418 178.001 289.892 179.235 289.851 178.856C289.708 179.121 289.544 179.196 289.564 179.385C289.442 179.838 289.769 179.688 289.79 179.877C289.613 181.149 289.449 181.225 288.322 181.94C287.83 182.166 287.864 181.157 287.338 182.391L287.346 183.777C287.387 184.155 287.947 184.296 287.988 184.674C287.934 185.493 287.08 186.877 286.814 187.594C286.432 188.564 286.234 189.647 286.016 190.541C285.941 191.171 285.859 192.002 285.6 192.518C285.641 192.897 285.825 193.011 285.402 193.602C284.671 194.532 285.033 193.374 284.377 193.675C282.922 194.54 283.128 197.225 282.48 198.912L281.9 200.965C281.825 201.595 281.955 202.527 281.853 203.17C281.635 204.064 281.327 204.404 281.088 205.109C280.686 205.889 280.604 206.72 280.365 207.425C280.126 208.131 279.532 208.999 279.129 209.779C278.911 210.673 278.713 211.756 278.331 212.726C278.256 213.355 277.805 213.959 277.683 214.413C277.539 214.677 277.608 215.042 277.464 215.307C277.321 215.571 276.775 216.616 277.014 215.91C276.727 216.439 276.959 216.729 276.836 217.183C276.761 217.813 276.331 218.605 276.236 219.046C276.202 220.054 276.865 221.14 276.483 222.109C276.196 222.638 275.54 222.938 275.281 223.454C274.994 223.983 275.452 224.765 275.377 225.395C275.057 226.932 274.415 228.417 274.095 229.954C273.822 231.667 273.174 233.354 272.901 235.067C272.683 235.961 272.58 236.604 272.198 237.573C271.878 239.11 271.789 240.937 271.66 242.386C271.626 243.394 271.449 244.666 271.579 245.599C271.668 246.154 271.471 247.237 271.512 247.615C271.663 248.737 272.49 249.747 271.684 251.308C270.544 253.22 270.283 251.355 269.641 250.458C268.438 249.422 268.78 250.456 268.698 251.287C268.836 253.607 268.029 252.785 267.038 251.85C266.833 251.547 265.63 250.511 265.302 250.661C264.462 250.848 265.064 251.366 264.736 251.517C263.445 252.307 262.856 250.592 262.398 249.809C260.655 247.234 259.103 243.777 258.159 240.637C257.461 238.178 257.419 235.418 257.076 232.796C256.295 227.199 256.17 221.301 255.881 215.478C255.675 212.793 255.797 209.958 255.946 207.11C255.939 205.724 256.047 204.086 256.204 202.625C256.238 201.617 256.066 200.306 256.216 199.046C256.542 192.544 258.172 185.643 257.985 179.177C257.93 177.615 258.708 176.861 259.398 175.552L259.616 174.658C260.087 174.243 260.272 174.357 260.764 174.131C262.362 173.001 261.966 172.786 263.592 173.231C264.849 173.449 266.018 173.112 267.275 173.329C268.368 173.622 268.97 174.14 269.919 174.697C271.074 175.557 272.024 176.114 272.449 177.904C272.62 179.215 272.183 181.004 271.842 182.351C271.406 184.139 271.392 185.337 271.256 186.987C271.264 188.373 270.902 189.532 270.588 190.867C269.844 192.994 269.982 195.314 269.402 197.366C268.843 199.608 269.027 199.722 269.287 201.587C269.376 202.142 269.131 203.049 269.199 203.414C269.077 203.868 268.551 205.101 268.599 205.278C268.688 205.833 269.2 205.796 269.262 206.363C269.187 206.993 268.736 207.597 268.682 208.416L268.976 209.274L269.257 211.329C269.203 212.148 268.895 212.487 268.82 213.117C268.602 214.011 268.992 214.428 268.937 215.247C268.883 216.066 268.501 217.035 268.419 217.867C268.529 218.611 268.713 218.724 268.495 219.619C268.154 220.966 267.751 221.746 268.271 223.096C268.565 223.954 269.023 224.736 269.01 225.933C268.955 226.752 267.925 229.409 268.622 229.486C269.319 229.564 269.83 225.557 269.904 224.928C270.389 223.316 270.846 221.717 271.167 220.18C271.242 219.55 271.398 218.089 272.033 217.599C272.341 217.259 272.471 218.192 272.778 217.853C273.229 217.249 272.156 217.145 272.136 216.956C272.026 216.213 272.244 215.318 272.51 214.601C272.831 213.064 273.452 211.39 273.814 210.231C274.667 208.847 273.827 209.034 274.025 207.951C274.079 207.132 274.605 205.898 274.802 204.815C275.055 202.913 275.634 200.86 276.078 198.87C277.074 194.84 278.241 190.534 279.564 186.353C281.052 182.098 283.298 176.899 285.948 173.302C286.986 172.032 287.908 171.013 288.966 169.932C289.861 168.926 290.619 167.983 291.746 167.268C292.238 167.042 293.98 165.648 294.513 165.8C295.257 166.054 295.06 167.138 295.757 167.215C295.941 167.329 296.371 166.536 296.556 166.65C296.884 166.5 297.089 166.803 297.253 166.727C299.145 166.455 300.464 167.24 301.544 168.73C302.255 169.992 303.171 171.557 303.575 173.158C303.89 174.205 303.672 175.099 303.822 176.221C303.809 177.418 304.5 178.491 304.65 179.613C304.692 179.991 304.364 180.142 304.412 180.318C304.453 180.696 304.706 181.176 304.726 181.365C304.856 182.298 304.802 183.117 304.768 184.125C304.809 184.503 305.042 184.793 305.083 185.172C304.96 185.625 304.537 186.216 304.414 186.669C304.216 187.753 304.551 188.989 304.217 190.134C303.917 191.86 302.989 193.874 302.716 195.587C302.682 196.595 302.976 197.453 302.758 198.347C302.635 198.8 302.376 199.316 302.396 199.505C302.342 200.324 302.616 200.993 302.698 201.749C302.487 204.03 301.62 206.611 301.785 208.917C301.915 209.85 302.23 210.897 302.196 211.905C302.019 213.177 301.288 214.108 301.439 215.23L302.082 216.126C302.123 216.505 301.925 217.588 302.035 218.332C302.418 219.744 302.405 220.941 302.269 222.592C302.248 222.403 301.996 224.305 301.832 224.38C302.037 224.683 302.475 225.276 302.433 224.898C302.475 225.276 302.291 227.544 302.619 227.394C303.514 226.388 302.632 226.197 303.644 227.321C304.245 227.839 304.744 229 305.346 229.518C306.665 230.303 307.805 228.39 308.864 227.309C309.881 225.85 310.878 224.202 312.059 222.667C312.387 222.517 313.425 221.247 313.61 221.361C313.446 221.436 313.501 222.999 313.522 223.188C313.673 224.31 313.782 225.054 313.42 226.212C313.298 226.665 313.366 227.031 313.223 227.295C313.079 227.559 312.567 227.596 312.444 228.049C312.205 228.754 312.738 228.907 312.288 229.511C312.001 230.039 310.976 230.112 310.758 231.006C310.635 231.46 311.291 231.159 311.38 231.714C311.38 231.714 310.964 233.691 310.82 233.955C310.677 234.22 309.659 235.679 309.168 235.904C308.84 236.055 307.596 234.64 307.357 235.345ZM265.58 244.777C265.963 243.808 266.14 242.535 265.866 241.867C265.736 240.934 265.08 241.234 264.95 240.302C265.073 239.848 264.69 238.436 264.218 238.85C263.747 239.265 264.164 239.669 264.021 239.934C263.734 240.462 263.782 240.639 263.474 240.978L262.86 241.657C262.696 241.732 261.759 239.978 261.623 241.629C261.623 241.629 262.45 242.639 262.43 242.45L262.519 243.005C262.724 243.308 262.888 243.232 263.195 242.893C263.38 243.007 263.646 242.289 263.83 242.403C264.015 242.517 263.599 244.494 263.64 244.873C263.66 245.062 264.221 245.202 264.098 245.655C264.119 245.844 263.101 247.303 263.122 247.492C263.744 248.2 265.43 245.243 265.526 244.802L265.58 244.777ZM261.922 235.934C261.573 235.895 261.505 235.529 261.464 235.151L261.702 234.446C261.825 233.993 261.572 233.513 261.859 232.985C261.982 232.531 262.494 232.495 262.754 231.979C263.04 231.45 262.951 230.895 263.026 230.266C263.388 229.107 263.114 228.439 263.312 227.355C263.387 226.725 263.981 225.857 263.872 225.114C263.83 224.735 263.345 223.966 263.283 223.398C262.88 221.797 263.016 220.146 262.796 218.659C262.755 218.281 262.372 216.868 262.495 216.415C263.095 214.551 262.823 216.264 263.479 215.964C263.315 216.039 264.866 217.114 264.462 215.513C264.373 214.958 264.114 215.474 263.881 215.183C263.239 214.287 262.583 214.588 262.671 212.761C262.861 210.291 263.142 212.346 263.962 211.97C265.13 211.633 263.681 209.915 263.449 209.625L263.155 208.767C262.929 208.275 262.738 208.363 262.935 207.28C262.99 206.461 263.297 206.121 263.42 205.668C263.659 204.963 263.454 204.66 263.529 204.03L263.419 203.286C263.706 202.758 263.87 202.682 264.198 202.532C264.109 201.977 264.088 201.788 263.671 201.384C263.09 201.055 260.972 200.835 260.385 201.501C259.039 203.111 262.196 202.061 262.196 202.061C262.401 202.364 261.431 203.999 261.288 204.264C261.001 204.792 260.653 204.753 260.557 205.194L260.646 205.749C260.503 206.013 260.872 206.241 260.92 206.418L260.428 206.643L259.977 207.247C260.018 207.625 260.394 207.651 260.271 208.104C260.162 209.742 259.404 210.686 258.899 212.108C258.681 213.002 259.18 214.163 258.941 214.868C258.777 214.943 258.088 216.252 258.047 215.874C258.136 216.429 258.464 216.278 258.525 216.846C258.525 216.846 258.218 217.185 258.239 217.374C258.328 217.929 258.533 218.232 258.574 218.61C258.684 219.354 258.377 222.075 259.115 222.531C259.074 222.152 259.49 220.175 260.583 220.468C261.82 220.496 261.13 221.805 260.885 222.712C260.741 222.976 261.11 223.204 261.015 223.644C261.036 223.834 260.359 223.945 260.236 224.399C259.472 226.337 261.665 225.927 260.996 227.425C260.955 227.047 261.215 228.912 260.887 229.063C260.416 229.478 260.32 227.537 259.828 227.762C259.664 227.837 259.248 229.815 259.125 230.268C259.235 231.012 260 231.455 259.966 232.463C260.007 232.841 259.748 233.357 259.81 233.924C259.735 234.554 259.96 235.046 260.213 235.526C260.302 236.081 260.187 237.92 260.399 238.022L261.867 235.959L261.922 235.934ZM260.841 232.062C261.005 231.987 261.046 232.365 261.046 232.365C261.251 232.668 261.135 232.92 260.991 233.184C260.499 233.41 260.328 232.098 260.841 232.062ZM264.245 236.456C264.32 235.826 264.627 235.487 264.586 235.109C264.476 234.365 262.303 232.582 262.235 234.599C262.038 235.682 262.98 234.853 263.062 235.609C263.151 236.164 262.865 236.692 262.954 237.247C262.961 238.633 263.727 239.076 264.396 237.578C264.757 236.42 264.211 237.464 264.245 236.456ZM261.236 229.896C261.277 230.274 260.785 230.499 260.765 230.31C260.676 229.755 261.215 229.706 261.236 229.896ZM260.133 221.865C259.498 222.355 259.648 223.477 260.448 222.912C260.919 222.497 260.789 221.565 260.133 221.865ZM261.327 216.752C261.17 218.213 258.691 221.534 259.073 218.183C259.304 216.092 260.485 214.557 261.327 216.752ZM259.843 213.661C260.335 213.435 260.137 214.518 259.83 214.858C259.481 214.819 259.536 214 259.843 213.661ZM263.206 217.677C263.206 217.677 263.213 219.063 263.411 217.98C263.411 217.98 263.39 217.791 263.206 217.677ZM261.193 207.086C261.87 206.974 261.433 208.763 261.248 208.649C260.408 208.836 260.722 207.501 261.193 207.086ZM277.056 219.464C277.097 219.842 276.933 219.918 276.749 219.804C276.564 219.69 276.987 219.099 277.056 219.464ZM277.726 204.268C277.726 204.268 277.256 207.065 278.13 205.87C278.417 205.341 277.849 203.815 277.726 204.268ZM292.704 225.39C292.397 225.729 292.944 227.066 293.251 226.727C293.702 226.123 293.196 225.164 292.704 225.39ZM298.102 226.487C297.719 225.075 297.405 226.41 296.75 226.711C296.75 226.711 295.548 228.056 296.053 226.633C296.155 225.991 296.667 225.954 296.975 225.615C298.115 223.702 296.899 223.863 296.42 222.892C296.331 222.337 296.037 221.479 296.324 220.951C296.631 220.611 297.164 220.764 297.164 220.764C297.649 219.152 295.667 218.87 295.23 220.658C295.067 220.733 295.491 222.524 295.532 222.902C295.758 223.394 295.99 223.684 295.915 224.314C295.738 225.587 295.048 226.895 295.083 228.269C295.138 229.832 295.5 228.673 296.012 228.637L297.672 228.074C297.488 227.96 297.925 226.172 298.157 226.462L298.102 226.487ZM293.255 219.38C293.31 218.561 292.449 218.559 293.528 217.667C294.286 216.724 294.642 218.149 295.277 217.659C295.933 217.358 295.98 215.153 296.219 214.448C296.219 214.448 296.711 214.222 296.67 213.844C296.744 213.214 296.375 212.986 296.122 212.507C295.705 212.103 295.459 211.421 295.514 210.602C295.568 209.784 295.636 210.149 295.875 209.444C296.278 208.664 296.893 207.985 295.779 207.503C294.829 206.946 294.816 208.143 294.639 209.416C294.659 209.605 294.756 211.546 294.592 211.621C293.956 212.111 293.696 210.245 293.15 211.289C292.747 212.07 293.861 212.551 294.066 212.854L294.176 213.598C294.196 213.787 293.998 214.871 293.998 214.871C293.507 215.096 293.452 215.915 293.124 216.065C293.288 215.99 290.56 211.484 291.245 215.141C291.58 216.377 292.414 217.185 292.258 218.647C292.135 219.1 291.493 220.585 292.211 220.852C292.416 221.155 293.249 219.582 293.228 219.393L293.255 219.38ZM297.345 229.812C297.202 230.077 297.434 230.367 297.53 229.926C297.53 229.926 297.509 229.737 297.345 229.812ZM298.178 228.239C298.035 228.504 298.103 228.869 298.383 228.542C298.37 228.416 298.301 228.315 298.178 228.239ZM286.28 184.266C285.187 186.355 286.745 186.435 286.738 185.049C286.738 185.049 286.423 184.002 286.28 184.266ZM310.342 232.984C310.157 232.87 309.939 233.764 310.267 233.614C310.595 233.463 310.574 233.274 310.342 232.984ZM288.862 182.685C289.046 182.799 288.828 183.693 288.664 183.768C288.48 183.654 288.677 182.571 288.862 182.685Z" fill="#FF0004"/>
<path d="M449.607 189.861C448.813 189.861 448.156 189.799 447.479 189.547C445.972 189.146 443.852 188.993 442.869 187.79C442.484 187.238 442.481 186.148 441.639 185.972C440.845 185.972 440.565 186.299 439.668 185.784C438.762 185.107 437.836 184.242 437.074 183.301C436.881 183.025 436.689 182.75 436.585 182.235C436.4 182.121 436.372 181.77 436.2 181.684C436.007 181.408 435.707 181.546 435.514 181.27C435.158 181.07 434.973 180.956 434.773 180.518C433.954 179.239 432.809 178.111 431.806 176.718C431.373 175.99 430.94 175.262 430.847 174.411L430.35 173.183C429.973 172.794 429.637 172.782 429.424 172.318L428.165 170.149L427.956 168.756C427.743 168.291 427.523 168.028 427.459 167.528C427.074 166.977 427.078 166.048 426.857 165.422C426.553 164.47 426.4 163.415 426.143 162.639C425.574 161.974 425.497 161.447 425.357 160.419C425.224 159.554 424.819 158.813 424.535 158.05C423.36 156.571 423.195 154.264 422.95 152.359C422.645 151.406 422.656 150.276 422.536 149.438C422.568 148.497 422.019 148.021 421.907 147.344C421.775 146.479 421.875 145.904 421.606 145.101C421.465 144.073 421.148 143.094 421.056 142.243C420.751 141.291 420.818 140.499 420.862 139.585C420.722 138.558 420.453 137.755 420.02 137.027L419.642 134.256C419.337 133.304 419.541 132.449 419.448 131.598C419.608 130.433 419.455 129.378 419.335 128.54L419.223 125.482C418.954 124.679 419.19 124.041 419.058 123.175C419.226 122.172 418.957 121.369 419.001 120.455L419.116 117.822C419.204 117.219 419.284 116.818 419.084 116.381C419.171 115.778 418.951 115.515 418.887 115.015C418.695 114.74 418.803 114.326 418.911 113.913C419.019 113.499 418.77 112.885 418.866 112.444C419.335 111.303 419.707 112.621 420.309 112.345C421.19 111.743 419.812 111.117 419.49 111.066C418.941 110.59 418.917 109.311 418.812 108.433C418.759 106.803 418.843 105.11 418.762 103.493C418.978 102.666 418.974 101.576 418.569 100.835C418.513 100.497 418.492 100.308 418.02 100.359C417.719 100.497 417.503 101.324 417.367 101.387C416.902 101.6 416.332 100.934 416.44 100.521C416.472 99.5801 417.313 99.7566 417.722 99.2053C418.131 98.654 418.154 97.5514 418.378 96.8861C418.731 95.9965 418.482 95.3826 418.686 94.5283C418.709 93.4257 419.042 92.347 419.046 91.4187C419.133 90.8161 419.237 89.3126 418.528 90.0017C418.248 90.3287 418.312 90.8287 418.204 91.2422C418.096 91.6557 417.98 91.9074 417.851 92.1318C417.635 92.9588 417.652 94.0762 417.736 94.7653C417.628 95.1788 417.565 97.0605 416.975 96.2062C416.783 95.9306 416.999 95.1036 416.943 94.7653C417.03 94.1628 416.81 93.8997 416.91 93.3244C416.826 92.6353 417.406 92.1706 417.643 91.5327C417.859 90.7057 417.89 89.7649 417.779 89.0883C417.866 88.4857 417.81 88.1474 417.918 87.7339L418.142 87.0687C418.23 86.4662 418.149 84.8487 417.949 84.4113C417.151 83.3213 417.04 87.0449 417.104 87.5449C417.188 88.234 416.828 88.9619 416.748 89.7262L416.644 91.2298C416.7 91.5681 416.42 91.895 416.148 92.3836C415.76 93.124 415.764 94.2141 415.548 95.0411C415.38 96.0446 415.3 96.8089 415.269 97.7497C415.206 99.6314 414.508 101.572 414.137 103.43C413.921 104.257 414.053 105.123 414.022 106.064C413.99 107.005 413.581 107.556 413.229 108.446C413.013 109.272 413.145 110.138 413.093 110.89C413.062 111.831 413.017 112.744 412.849 113.748C412.818 114.689 412.281 115.464 412.077 116.319C412.025 117.07 411.946 117.835 412.07 118.539C412.018 119.29 411.794 119.956 411.542 120.633C411.154 121.374 411.21 121.712 411.931 122.275C411.438 122.137 411.278 123.302 411.17 123.716C411.147 124.818 411.387 125.27 411.656 126.073C411.788 126.939 411.765 128.042 412.034 128.845C412.119 129.534 412.282 129.459 412.058 130.124L411.426 131.34C411.146 131.667 411.038 132.081 410.965 132.644C411.021 132.982 411.098 133.509 410.989 133.923C411.074 134.612 410.549 135.415 410.497 136.167C410.466 137.107 410.229 137.745 410.026 138.6C409.509 139.564 409.393 139.816 408.628 140.167C408.68 139.415 409.313 138.199 408.463 137.861C407.613 137.522 407.237 139.514 407.314 140.042C407.154 141.207 407.315 142.424 408.048 143.014C408.433 143.565 408.597 143.49 408.545 144.241C408.738 144.517 408.706 145.458 408.87 145.383C408.578 145.682 408.098 147.954 408.398 147.816C407.882 148.781 407.529 149.67 407.334 150.686C407.246 151.289 407.174 151.851 407.25 152.379C406.897 153.268 407.005 152.855 407.383 153.245C407.575 153.52 408.06 153.496 408.288 153.921C408.365 154.448 408.12 154.925 408.149 155.275C407.924 155.941 407.677 157.708 407.076 157.984C406.883 157.708 406.442 156.819 406.073 156.591C406.21 156.528 406.838 156.24 406.618 155.977C406.454 156.052 405.337 157.293 405.337 157.293C405.113 157.958 405.124 159.21 405.338 159.675C405.694 159.875 406.179 159.851 406.38 160.288C406.436 160.627 406.027 161.178 406.056 161.529C405.84 162.356 405.615 163.021 405.391 163.686C405.119 164.175 404.599 166.068 404.11 165.002C404.033 164.475 404.386 163.585 404.658 163.096C404.71 162.345 404.934 161.679 404.85 160.99C404.633 159.435 404.248 161.266 404.024 161.931C403.62 163.572 402.707 165.116 402.459 166.884C402.235 167.549 402.127 167.962 402.62 168.1C403.105 168.076 403.037 167.711 403.414 168.1C403.627 168.565 403.438 169.379 403.494 169.718C403.27 170.383 402.81 171.686 402.076 171.096C401.863 170.631 402.075 168.714 401.374 169.565C400.849 170.368 401.475 171.372 401.423 172.123C401.371 172.875 401.018 173.765 400.63 174.505C399.805 175.446 399.048 175.959 398.716 177.037C398.22 178.191 398.051 179.195 397.535 180.16C397.018 181.124 396.85 182.128 396.518 183.207C396.246 183.695 396.402 183.458 395.945 183.833C395.481 184.046 395.365 184.298 395.12 184.774L395.1 184.585C394.82 184.912 394.39 185.274 394.274 185.526C394.166 185.939 394.351 186.053 394.407 186.392C394.083 187.632 393.281 187.47 392.576 187.231C392.255 187.18 391.734 187.055 391.434 187.192C391.133 187.33 391.005 187.555 390.841 187.63C390.124 188.157 389.226 187.643 388.569 187.58C386.934 187.403 385.379 186.826 383.844 186.074C383.303 185.76 382.918 185.209 382.389 184.922C381.712 184.67 381.139 185.297 380.337 185.135C379.68 185.072 379.075 184.258 378.377 183.817C377.807 183.152 377.675 182.286 377.254 181.586C376.898 181.385 376.597 181.523 376.405 181.248C376.212 180.972 376.156 180.634 375.779 180.244C375.531 179.63 374.926 178.816 374.364 178.312C373.987 177.923 373.459 177.636 373.026 176.908C372.593 176.18 372.624 175.239 372.183 174.35C372.051 173.484 371.357 172.909 371.061 172.118C370.62 171.229 370.487 170.363 370.21 169.399C368.927 165.951 368.408 162.152 368.198 158.377L367.9 152.823C367.768 151.958 367.511 151.182 367.543 150.241C367.566 149.138 367.55 148.021 367.409 146.994C367.364 143.144 367.303 139.334 367.073 135.37C366.671 133.701 366.863 131.595 366.617 129.689C366.38 127.945 366.784 126.304 366.559 124.588L366.458 120.399C366.51 119.648 366.562 118.896 366.293 118.093C366.316 116.99 366.492 116.148 366.653 114.983C366.68 112.952 366.25 110.933 366.442 108.827C366.389 107.197 366.472 105.504 366.556 103.811C366.619 101.93 366.551 100.34 366.778 98.3827C366.841 96.501 367.218 94.5087 367.245 92.4778C367.277 91.537 367.008 90.734 367.188 89.7578L367.248 86.786C367.279 85.8452 367.632 84.9555 367.663 84.0147C367.879 83.1877 367.575 82.2355 367.642 81.4439C367.833 79.3377 367.896 77.4561 368.109 75.539C367.976 74.6734 368.192 73.8464 368.06 72.9807C368.112 72.2289 368.028 71.5398 368.059 70.599C367.975 69.9099 368.006 68.969 368.195 68.1546C368.218 67.052 368.222 66.1237 368.418 65.1076C368.449 64.1668 368.63 63.1906 368.477 62.1359C368.345 61.2702 368.581 60.6323 368.613 59.6914C368.528 59.0023 368.58 58.2506 368.62 57.4715C368.651 56.5306 368.812 55.3653 368.679 54.4997C368.603 53.9723 368.246 53.7718 368.346 53.1966C368.591 52.7205 369.035 52.3184 369.327 52.0188C369.715 51.2784 370.124 50.7271 371.026 50.3135C371.627 50.0379 372.004 50.4274 372.584 49.9626C373.35 49.6117 373.971 49.5251 374.772 49.3235C375.557 49.1617 376.459 48.7481 377.008 49.2242C377.721 49.6251 377.882 50.8416 378.616 51.4316C378.993 51.8211 379.629 51.6947 380.014 52.2459C380.283 53.0489 380.231 53.8007 380.917 54.2142C381.63 54.6151 381.659 54.9659 381.627 55.9067C381.604 57.0093 381.757 58.0641 381.76 59.1541L381.645 61.7876C381.778 62.6533 381.862 63.3424 381.694 64.3459C381.478 65.1729 381.631 66.2276 381.278 67.1172C381.11 68.1207 380.838 68.6094 380.815 69.712C380.763 70.4638 380.86 71.1802 380.644 72.0072C380.784 73.0346 380.753 73.9755 380.885 74.8411C380.854 75.782 380.685 76.7855 380.641 77.699C380.61 78.6399 380.771 79.8563 380.611 81.0216C380.559 81.7734 380.115 82.1755 380.247 83.0412C380.332 83.7303 380.949 84.572 380.549 85.2851C380.277 85.7737 379.503 85.9628 379.431 86.5255C379.343 87.1281 379.679 87.1395 379.872 87.4151C380.085 87.8798 379.956 88.1042 379.896 88.6943C379.981 89.3834 379.813 90.3869 379.897 91.076C379.953 91.4143 380.146 91.6899 380.202 92.0282C380.45 92.6421 380.178 93.1308 380.118 93.7209C380.086 94.6617 379.918 95.6652 379.71 96.6539C379.378 97.7326 379.627 98.3466 379.603 99.4491C379.688 100.138 379.905 101.693 379.496 102.244C379.251 102.721 378.13 102.871 378.214 103.56C378.463 104.174 379.192 103.674 379.584 104.024C379.833 104.637 379.857 105.917 379.778 106.681C379.61 107.684 379.394 108.511 379.499 109.39L379.856 111.972C379.941 112.661 380.538 113.314 380.322 114.141C380.153 115.144 379.881 115.633 379.529 116.522C379.313 117.349 379.746 118.077 379.53 118.904C379.662 119.77 379.09 120.396 379.222 121.262C379.354 122.128 379.603 122.741 379.387 123.568C379.034 124.458 378.839 125.474 378.971 126.34C378.94 127.281 379.352 127.819 379.457 128.698C379.59 129.563 379.429 130.728 379.398 131.669C379.31 132.272 378.765 132.886 379.034 133.689C379.206 133.775 379.411 134.078 379.467 134.417C379.844 134.806 379.716 135.031 379.628 135.633C379.897 136.436 379.845 137.188 379.814 138.129C379.782 139.07 379.73 139.821 379.999 140.624C380.132 141.49 380.401 142.293 380.021 143.195C379.989 144.136 379.288 144.987 379.584 145.778C379.661 146.305 380.017 146.505 380.218 146.943L380.379 148.159C380.511 149.025 380.616 149.903 380.572 150.817C380.404 151.82 379.916 153.136 380.028 153.812C380.161 154.678 381.147 154.954 380.63 155.918C380.386 156.395 379.865 156.269 379.504 156.997C379.172 158.076 380.074 157.662 380.43 157.863C381.581 158.063 381.598 161.562 381.759 162.779C381.707 163.531 381.675 164.471 381.808 165.337C382.077 166.14 382.518 167.03 382.658 168.057C383.068 169.887 383.662 171.832 384.235 173.587C384.809 175.342 385.927 176.484 386.793 177.939C387.611 179.218 388.369 181.087 390.088 179.571C391.078 178.555 392.003 177.039 392.936 175.685C394.17 174.192 395.151 173.015 396.028 171.322C396.252 170.657 396.825 170.03 397.178 169.141C397.394 168.314 397.746 167.424 398.086 166.507C398.611 165.704 399.012 164.991 399.215 164.137C399.411 163.121 399.407 162.03 399.759 161.141C399.975 160.314 400.521 159.7 400.724 158.846C400.892 157.842 401.409 156.877 401.604 155.861C402.173 154.145 402.236 152.263 402.969 150.471C403.185 149.644 403.71 148.841 403.741 147.9C404.094 147.011 404.289 145.995 404.457 144.991C404.985 142.896 405.498 140.842 405.861 138.822C406.773 134.897 407.533 131.074 408.117 127.299C408.373 125.693 408.942 123.977 409.21 122.398C409.426 121.571 409.177 120.957 409.381 120.103C409.713 119.024 409.881 118.021 410.089 117.032L410.689 114.374C410.721 113.434 410.889 112.43 411.097 111.441C411.345 109.674 412.05 107.894 412.134 106.202C412.381 104.434 412.765 102.603 413.141 100.611L413.257 97.9777L413.836 95.1312C413.888 94.3794 413.804 93.6903 414.007 92.836C414.059 92.0842 414.468 91.5329 414.5 90.592C414.583 88.8994 415.324 87.2694 415.455 85.7533C415.487 84.8124 415.703 83.9855 415.755 83.2337C415.787 82.2928 416.187 81.5798 416.191 80.6515C416.407 79.8245 416.275 78.9588 416.47 77.9428C416.639 76.9393 417.039 76.2262 417.05 75.0963C417.113 73.2146 417.682 71.498 417.929 69.7302C418.129 67.7858 418.369 65.8563 418.753 64.0258C419.137 62.1953 419.2 60.3136 419.713 58.2588C420.097 56.4283 419.86 54.6844 420.107 52.9166C420.275 51.9131 420.491 51.0861 420.523 50.1453C420.61 49.5427 420.39 49.2796 420.498 48.8661C420.551 48.1144 420.667 47.8626 420.939 47.374C421.507 45.6574 421.085 43.7996 421.469 41.9691C421.738 40.3904 421.937 38.4461 422.021 36.7534C421.936 36.0643 422.289 35.1747 422.157 34.309C422.325 33.3055 422.248 32.7781 422.328 32.0138C422.66 30.9351 422.391 30.1321 422.571 29.156C422.439 28.2903 422.819 27.3881 422.871 26.6364C423.332 25.3333 424.297 23.038 425.463 24.3558C426.068 25.1702 426.333 24.8832 427.098 24.5323C428 24.1188 428.465 23.9057 429.335 24.4331C429.884 24.9091 429.66 25.5744 430.045 26.1256C430.177 26.9913 430.863 27.4047 430.995 28.2704C431.3 29.2226 431.589 30.2147 431.73 31.2421C431.622 31.6556 431.678 31.9939 431.754 32.5213C431.831 33.0486 432.023 33.3243 432.38 33.5247C432.464 34.2138 432.276 35.0283 432.509 35.6821C432.478 36.6229 432.747 37.4259 432.867 38.2643C433.08 38.729 433.308 39.1538 433.384 39.6812C433.689 40.6334 433.514 41.8385 433.482 42.7794C433.571 44.5586 433.671 46.3651 433.588 48.0577C433.689 49.8643 433.449 51.7938 433.229 53.5491C433.061 54.5526 432.768 54.8522 432.921 55.9069C433.054 56.7726 433.459 57.513 433.443 58.4139C433.38 60.2956 433.36 62.4883 432.86 64.5705C432.476 66.401 432.392 68.0936 432.637 69.9992C432.77 70.8649 432.862 71.7158 432.522 72.6327C431.89 73.8492 431.918 74.2001 432.107 75.404C432.487 76.8836 432.432 78.9271 432.177 80.5331C431.961 81.3601 431.737 82.0253 432.041 82.9776C432.182 84.005 432.314 84.8706 432.283 85.8115C432.259 86.9141 432.684 87.4801 432.804 88.3185C432.936 89.1841 432.604 90.2628 432.56 91.1764C432.645 91.8655 432.769 92.5694 432.669 93.1446C432.501 94.1481 432.1 94.8612 431.905 95.8773C431.689 96.7042 431.821 97.5699 431.79 98.5107C431.758 99.4516 431.426 100.53 431.245 101.506C431.214 102.447 431.742 102.734 431.847 103.613C432.233 104.164 431.9 105.242 432.033 106.108C431.981 106.86 431.833 108.053 431.789 108.966C432.094 109.918 432.771 110.17 432.611 111.335C432.395 112.162 432.034 112.89 431.955 113.654C431.847 114.068 432.203 114.268 432.116 114.871C432.172 115.209 432.064 115.623 432.092 115.973C431.708 117.804 431.946 119.548 431.862 121.24C431.995 122.106 431.758 122.744 432.027 123.547C432.004 124.65 432.565 125.153 432.22 126.204C432.133 126.807 431.596 127.583 431.672 128.11C431.749 128.637 432.105 128.838 432.161 129.176C432.109 129.928 432.302 130.203 432.399 130.92C432.916 132.337 432.812 133.84 432.886 135.659C432.718 136.663 432.794 137.19 433.071 138.155C433.34 138.958 433.309 139.899 433.429 140.737C433.505 141.265 433.397 141.678 433.625 142.103C433.701 142.63 433.929 143.055 434.142 143.52C434.111 144.461 433.738 145.161 434.007 145.964C434.255 146.578 434.796 146.893 434.901 147.771C435.042 148.798 435.495 149.715 435.499 150.805C435.768 151.608 435.716 152.36 435.801 153.049C435.713 153.652 435.933 153.915 435.825 154.328C436.038 154.793 435.957 155.194 436.158 155.631C436.235 156.159 436.591 156.359 436.784 156.635C436.86 157.162 436.752 157.576 436.808 157.914C436.776 158.855 437.141 159.217 437.402 159.858C437.679 160.823 437.803 161.527 438.224 162.227C438.794 162.893 438.926 163.758 439.23 164.71C439.663 165.438 439.796 166.304 440.052 167.08C440.137 167.769 440.085 168.52 440.354 169.324C440.602 169.937 440.735 170.803 441.12 171.354C441.669 171.83 442.318 171.731 442.724 172.472C443.726 173.865 444.6 175.482 445.454 176.91C445.702 177.524 446.272 178.189 446.52 178.803C446.597 179.331 446.545 180.083 446.922 180.472C447.471 180.948 448.072 180.672 448.449 181.062C448.882 181.79 449.159 182.755 449.107 183.506C449.183 184.034 448.891 184.333 449.131 184.785C449.324 185.061 449.844 185.186 450.174 185.399C450.887 185.8 451.701 185.989 452.542 186.166C453.22 186.418 453.885 186.642 454.706 186.629C455.179 186.578 456.505 186.731 455.968 187.506C455.688 187.833 455.031 187.771 454.731 187.908C454.43 188.046 454.486 188.385 454.158 188.535C453.449 189.224 453.032 189.614 452.219 189.788C451.262 189.863 450.66 190.139 449.655 190.038L449.607 189.861ZM376.03 165.142C375.953 164.614 375.653 164.752 375.729 165.279C375.806 165.807 376.27 165.594 376.03 165.142ZM374.725 159.123C374.124 159.399 374.457 160.702 375.222 160.351C375.651 159.989 375.49 158.772 374.725 159.123ZM374.948 156.076C374.948 156.076 374.787 154.859 374.399 155.6C374.235 155.675 374.896 156.828 375.08 156.942C375.196 156.69 375.004 156.414 374.948 156.076ZM376.412 158.548C376.42 158.709 376.769 158.748 376.721 158.571C376.905 158.685 376.913 158.847 377.077 158.772C377.057 158.583 376.536 158.458 376.4 158.52L376.412 158.548ZM376.209 152.553C376.025 152.439 375.119 151.762 374.983 151.825C374.51 151.876 374.294 152.703 374.487 152.979C374.735 153.593 375.036 153.455 375.521 153.431C375.985 153.218 376.47 153.194 376.209 152.553ZM374.107 145.444C374.051 145.106 373.966 144.417 373.666 144.555C373.345 144.503 373.033 145.771 373.041 145.933C373.118 146.46 373.31 146.736 373.775 146.523C374.239 146.31 374.163 145.782 374.107 145.444ZM374.691 141.669C375.079 140.929 375.431 140.039 374.418 139.776L374.194 140.441C374.134 141.031 373.862 141.52 373.926 142.02C373.982 142.358 374.058 142.886 374.359 142.748C374.659 142.61 374.575 141.921 374.691 141.669ZM374.273 139.677C374.217 139.339 374.305 138.736 373.969 138.725C373.484 138.749 373.909 139.315 373.917 139.477C373.937 139.666 374.101 139.591 374.273 139.677ZM373.871 135.627C373.591 135.954 373.11 137.068 373.731 136.981C374.204 136.93 374.192 135.678 373.871 135.627ZM375.105 134.135C375.02 133.445 374.311 134.135 374.34 134.485C374.588 135.099 374.997 134.548 375.105 134.135ZM397.475 184.356C397.39 183.667 398.24 184.005 398.433 184.281C398.188 184.757 397.559 185.045 397.475 184.356ZM373.905 128.994C373.789 129.246 374.037 129.86 374.29 129.545C374.57 129.218 374.041 128.931 373.905 128.994ZM398.85 173.436C398.365 173.46 397.568 174.751 398.518 174.514C398.818 174.377 399.807 173.361 398.85 173.436ZM375.416 120.03C375.136 120.357 375.328 120.632 375.629 120.494C376.094 120.281 375.681 119.743 375.416 120.03ZM402.775 159.857C401.577 159.48 401.305 161.987 402.119 162.176C402.476 162.377 402.688 160.46 402.775 159.857ZM403.848 157.148C403.492 156.948 402.911 157.413 403.276 157.775C403.489 158.239 404.041 157.424 403.848 157.148ZM406.839 157.828C407.052 158.293 406.41 158.19 406.546 158.128C406.675 157.903 406.839 157.828 406.839 157.828ZM406.726 145.539C406.834 145.125 406.894 144.535 407.05 144.298C406.974 143.771 406.337 143.898 406.072 144.185C405.547 144.988 406.201 146.342 405.664 147.118C405.72 147.456 405.247 147.507 405.311 148.007C405.203 148.421 405.56 148.621 405.86 148.483C406.754 147.908 406.709 146.44 406.741 145.499L406.726 145.539ZM408.197 147.809C408.518 147.86 410.137 148.938 408.899 149.34C408.298 149.615 408.518 147.86 408.197 147.809ZM408.966 146.53L408.633 145.227C408.934 145.089 409.214 144.762 409.591 145.151C409.947 145.352 410.08 146.218 409.644 146.781C409.536 147.195 409.171 146.833 408.966 146.53ZM408.391 140.011C408.391 140.011 408.552 141.228 408.339 140.763C408.146 140.487 408.426 140.16 408.391 140.011ZM409.79 140.825C409.974 140.939 410.003 141.29 409.729 141.415C409.265 141.628 409.352 141.026 409.79 140.825ZM410.178 129.63C410.178 129.63 409.909 128.827 409.737 128.74C409.416 128.689 409.213 129.543 409.221 129.705C409.276 130.043 409.469 130.319 409.353 130.571C409.266 131.173 409 131.46 409.029 131.811C408.676 132.701 409.41 133.291 409.955 132.677C410.664 131.987 410.311 130.495 410.178 129.63ZM411.795 123.925C412.116 123.976 411.988 124.201 411.872 124.453C411.687 124.339 411.679 124.177 411.795 123.925ZM431.456 160.666C431.68 160.001 431.347 158.698 430.862 158.722C430.213 158.821 430.691 161.017 430.318 161.718C430.919 161.442 431.383 161.229 431.443 160.639L431.456 160.666ZM412.975 118.421C413.624 118.322 413.58 119.236 413.136 119.638C412.643 119.5 412.339 118.548 412.975 118.421ZM430.311 153.482C430.234 152.955 429.297 153.219 429.546 153.833C429.458 154.436 430.087 154.148 430.311 153.482ZM429.497 151.275C428.864 150.11 428.547 151.512 428.844 152.302C429.113 153.105 430.046 151.751 429.497 151.275ZM427.619 143.501C427.542 142.974 427.787 142.497 427.594 142.222C427.646 141.47 426.428 140.904 426.396 141.845C426.309 142.447 426.837 142.734 426.893 143.073C426.806 143.675 426.424 144.214 426.625 144.652C426.573 145.403 427.499 146.269 427.823 145.028C428.047 144.363 427.519 144.076 427.606 143.474L427.619 143.501ZM414.369 115.764C414.1 114.961 415.166 114.472 414.925 114.02C415.002 114.547 415.366 114.909 415.142 115.575C414.918 116.24 414.57 116.201 414.369 115.764ZM426.591 138.447C426.514 137.92 426.322 137.644 426.614 137.345C426.894 137.018 427.236 137.258 427.487 136.58C427.983 135.426 426.397 135.79 426.153 136.266C425.327 137.207 425.283 138.12 425.874 138.975C425.894 139.164 426.315 139.864 426.771 139.489C427.072 139.351 426.639 138.624 426.631 138.462L426.591 138.447ZM413.859 112.127C413.782 111.599 414.568 111.438 414.508 112.028C414.4 112.441 413.778 112.528 413.859 112.127ZM426.176 130.763C426.043 129.897 426.015 129.547 426.046 128.606C426.154 128.192 426.291 128.13 426.262 127.779C426.234 127.428 426.049 127.314 425.993 126.976C425.909 126.287 426.346 126.086 426.754 125.535C426.978 124.87 427.635 122.551 426.697 122.815C426.233 123.028 426.257 124.307 425.716 123.993C425.36 123.792 425.821 122.489 425.607 122.024C425.531 121.497 425.282 120.883 424.93 121.773C424.542 122.513 424.954 123.052 424.902 123.804C424.987 124.493 424.634 125.382 424.43 126.237C424.378 126.988 424.463 127.678 424.423 128.457C424.255 129.46 424.692 129.26 425.125 129.988C425.374 130.601 425.102 131.09 424.857 131.566C424.449 132.118 423.868 132.582 424.116 133.196C424.549 133.924 425.259 133.235 425.675 132.845C426.063 132.105 426.308 131.629 426.188 130.79L426.176 130.763ZM414.76 109.332C414.952 109.607 414.672 109.934 414.351 109.883C413.858 109.745 414.519 108.879 414.76 109.332ZM425.537 116.895C425.289 116.281 425.08 114.888 426.05 114.84C426.514 114.627 426.728 115.092 427.288 114.438C427.416 114.214 427.448 113.273 427.392 112.935C426.959 112.207 425.777 112.947 425.508 112.144C425.131 111.755 425.972 109.55 424.987 109.637C424.193 109.637 424.816 111.933 424.879 112.433C424.603 113.85 424.88 114.814 424.905 116.093C424.817 116.696 424.361 119.089 425.154 119.089C426.132 119.203 425.887 117.297 425.51 116.908L425.537 116.895ZM426.849 120.694C426.657 120.418 426.213 120.82 426.433 121.084C426.646 121.548 427.09 121.146 426.849 120.694ZM426.211 106.826C425.962 106.212 425.469 106.074 425.121 106.036C424.3 106.048 424.408 105.635 424.487 104.87C424.411 104.343 424.647 103.705 423.998 103.804C423.377 103.891 423.345 104.832 423.073 105.32C422.965 105.734 422.905 106.324 423.097 106.6C423.483 107.151 424.171 106.273 424.636 106.06C424.548 106.662 424.531 107.563 425.174 107.666C425.667 107.803 426.26 107.366 426.183 106.839L426.211 106.826ZM425.393 95.0917C424.652 94.34 423.478 95.2422 423.803 96.3835C423.996 96.6591 424.516 96.7844 424.817 96.6466C425.418 96.3709 425.333 95.6817 425.421 95.0792L425.393 95.0917ZM424.909 97.4974C424.492 97.887 424.77 98.8517 425.398 98.5635C425.815 98.1739 425.502 97.06 424.909 97.4974ZM417.819 81.4601C417.518 81.5979 417.903 82.1492 418.204 82.0114C418.209 82.1192 418.267 82.148 418.376 82.0979C418.067 82.074 418.107 81.2949 417.806 81.4328L417.819 81.4601ZM424.75 88.2074C424.285 88.4204 424.061 89.0856 424.117 89.4239C424.193 89.9513 424.33 89.8886 424.558 90.3135C424.75 90.5891 425.163 91.1278 425.32 91.2543C426.162 91.4308 426.028 88.1834 424.722 88.2199L424.75 88.2074ZM423.659 87.4169C423.536 87.341 423.436 87.3869 423.359 87.5548C423.551 87.8304 423.68 87.606 423.659 87.4169ZM418.526 76.0074C418.138 76.7478 419.152 77.0109 418.903 76.397C418.895 76.2352 418.711 76.1213 418.526 76.0074ZM425.51 84.3847C425.317 84.109 424.884 83.3812 424.576 83.3573C424.352 84.0225 424.252 84.5978 424.376 85.3017C424.432 85.64 424.589 85.7664 424.946 85.9668C425.159 86.4316 425.03 86.656 425.086 86.9943C425.279 87.2699 425.355 87.7973 425.579 87.1321C425.996 86.7425 425.586 84.9121 425.522 84.412L425.51 84.3847ZM425.823 75.0433C425.939 74.7916 426.047 74.3781 426.147 73.8029C426.07 73.2755 425.843 72.8507 426.094 72.1729C425.445 72.2721 424.944 71.9725 424.427 72.9373C423.911 73.9021 423.995 74.5913 424.476 75.4956C424.532 75.8339 424.529 77.1256 425.014 77.1016C425.787 76.9125 425.618 75.5343 425.863 75.0581L425.823 75.0433ZM426.429 78.2395C426.925 77.0856 426.027 76.5708 425.88 77.7634C425.751 77.9878 425.664 78.5903 425.848 78.7042C426.041 78.9799 426.449 78.4285 426.441 78.2668L426.429 78.2395ZM426.046 71.9964C426.134 71.3938 426.078 71.0555 426.15 70.4928C426.238 69.8903 426.482 69.4141 426.418 68.9141C426.342 68.3867 426.579 67.7489 426.085 67.6111C425.592 67.4733 425.368 68.1385 425.26 68.552C424.799 69.8551 425.454 71.2093 426.071 72.0511L426.046 71.9964Z" fill="#FF0004"/>
<path d="M466.863 157.034C466.515 156.995 465.442 156.892 464.95 157.117C464.479 157.532 464.589 158.276 463.933 158.576C463.441 158.802 463.236 158.499 462.696 158.548C462.184 158.584 461.692 158.81 461.343 158.771C460.271 158.668 459.369 158.287 458.419 157.73C456.683 156.541 454.202 155.098 454.467 151.999L454.93 147.816C455.128 146.733 455.695 145.878 456.221 144.644C457.231 141.799 458.07 139.23 459.661 136.714C460.897 134.36 462.133 132.007 463.58 129.755C464.126 128.711 467.104 124.963 466.461 124.066C466.236 123.574 463.851 124.072 463.107 123.818C462.013 123.526 461.084 123.158 460.113 122.412C459.369 122.158 459.184 122.044 458.323 122.042C457.086 122.013 456.84 121.332 455.986 120.334C455.2 119.702 454.27 119.335 453.648 118.627C453.006 117.731 452.602 116.129 452.124 115.158C451.098 112.849 449.628 110.942 448.746 108.369C446.728 102.744 446.603 96.8457 449.333 90.0352C449.838 88.6125 450.569 87.6818 451.422 86.2978C451.73 85.9583 451.969 85.2533 452.276 84.9138C452.583 84.5744 453.588 84.3123 453.424 84.3875C453.874 83.7838 453.724 82.6618 454.126 81.8816C454.816 80.5728 456.039 79.4165 456.94 78.2091C460.3 73.4921 464.07 69.3811 467.614 64.778C469.103 62.9041 471.343 60.2887 473.289 59.1974C475.564 57.9557 477.211 58.5901 479.145 58.6959C480.217 58.7995 480.696 59.771 481.482 60.4031C481.708 60.8952 481.797 61.4499 482.214 61.8542C482.747 62.0068 483.286 61.9578 483.512 62.4499C483.717 62.7529 484.038 63.598 484.244 63.901C484.285 64.2791 484.469 64.393 484.722 64.8726C485.105 66.285 484.6 67.7077 484.28 69.2443C484.205 69.8741 484.54 71.11 484.301 71.8151C483.94 72.9735 481.952 73.6867 481.009 74.5159C478.865 76.6905 477.137 79.2694 474.787 81.141C473.517 82.1207 473.004 82.1572 472.335 83.6551C471.721 84.334 471.687 85.342 470.867 85.718C470.396 86.1326 469.842 85.7909 469.351 86.0165C467.732 86.9574 468.538 87.7786 467.849 89.0874C467.562 89.616 466.906 89.9167 466.483 90.5079C466.339 90.7722 466.36 90.9613 466.08 91.2882C465.609 91.7028 465.117 91.9284 464.809 92.2678C464.079 93.1985 464.701 93.9058 463.943 94.849C463.635 95.1884 463.41 94.6964 463.102 95.0358C462.447 95.3366 461.832 96.0155 461.429 96.7958C461.19 97.5009 461.109 98.3324 460.685 98.9236C460.398 99.4521 459.627 100.005 459.155 100.419C457.769 101.651 458.097 101.5 457.448 103.187C456.759 104.496 456.554 104.193 456.725 105.504C456.998 106.173 457.183 106.287 457.108 106.916C457.218 107.66 456.624 108.528 456.733 109.272C456.96 112.146 460.786 111.979 462.597 112.538C465.132 113.162 467.783 113.535 470.441 113.705C471.513 113.809 472.791 114.216 473.816 114.143C475.217 114.096 475.203 112.911 476.309 112.007C476.637 111.856 476.985 111.895 477.313 111.745C477.948 111.255 478.208 110.739 478.659 110.135C479.697 108.865 480.878 107.331 482.128 106.162C484.109 104.063 486.253 101.888 488.418 99.9025C490.563 97.728 493.131 94.9622 495.822 94.1248C497.482 93.562 500.256 93.481 497.688 96.2467C496.794 97.2526 496.028 96.8096 495.25 97.5637C494.758 97.7892 494.724 98.7973 494.417 99.1367C493.966 99.7404 493.433 99.5878 492.962 100.002C492.163 100.568 491.596 101.423 490.981 102.102C490.53 102.706 490.292 103.411 489.82 103.825C489.349 104.24 488.652 104.163 488.345 104.502C487.894 105.106 487.744 106.366 487.314 107.158C486.174 109.071 485.6 108.54 484.35 109.709C483.551 110.274 483.046 111.697 482.479 112.552L481.482 114.2C481.318 114.275 480.095 115.432 480.095 115.432C480.041 116.251 481.073 117.564 481.47 117.779C481.818 117.818 482.289 117.403 482.495 117.706C482.658 117.631 483.042 119.043 483.322 118.716C483.301 118.527 483.397 118.087 483.608 118.188C484.121 118.151 483.869 120.054 484.074 120.357C484.491 120.761 484.771 120.434 485.024 120.914C485.113 121.468 484.751 122.627 485.141 123.044C485.161 123.233 485.489 123.082 485.653 123.007C485.674 123.196 486.234 123.336 486.255 123.525L486.658 125.127C486.788 126.06 486.734 126.879 487.028 127.736C487.254 128.228 488.477 129.454 488.259 130.348C488.136 130.801 487.48 131.102 487.385 131.543C487.146 132.248 487.331 132.362 487.392 132.929C487.413 133.118 487.96 134.455 487.325 134.945C486.997 135.096 487.051 134.277 486.3 135.018C485.357 135.848 485.651 136.705 485.782 137.638C485.707 138.268 485.727 138.457 485.584 138.721C485.707 138.268 484.641 139.551 484.785 139.286C484.477 139.626 484.608 140.559 484.28 140.709C483.788 140.935 483.753 139.561 483.309 139.963C483.002 140.303 483.221 141.79 483.262 142.168C483.139 142.622 482.887 144.524 482.396 144.749C482.047 144.711 482.101 143.892 481.753 143.853C481.008 143.599 480.933 144.229 480.858 144.859C480.353 146.282 480.845 146.056 479.93 146.873C479.786 147.137 479.691 147.578 479.527 147.653C479.548 147.842 479.199 147.803 479.199 147.803C478.912 148.332 478.981 148.698 478.837 148.962C478.435 149.742 477.513 150.76 477.041 151.175C476.55 151.401 476.037 151.437 475.566 151.852C475.402 151.927 474.023 154.545 474.056 153.537C473.544 153.573 473.442 154.215 472.998 154.618C472.67 154.768 472.465 154.465 471.973 154.691C471.645 154.841 471.194 155.445 470.867 155.595C470.231 156.085 469.37 156.083 468.899 156.497C467.915 156.948 467.936 157.137 466.891 157.021L466.863 157.034ZM463.207 154.542C462.223 154.993 462.866 155.889 463.686 155.513C464.485 154.948 463.699 154.316 463.207 154.542ZM464.498 153.751C463.863 154.241 464.485 154.948 464.977 154.723C465.653 154.611 465.953 152.886 464.498 153.751ZM476.914 138.926C478.744 135.704 480.211 131.26 480.059 127.756C480.052 126.37 479.887 124.063 478.937 123.506C478.753 123.393 478.028 123.328 477.864 123.403C477.536 123.553 477.188 123.515 477.003 123.401C476.819 123.287 476.634 123.173 476.402 122.882C474.099 122.549 471.942 125.92 470.521 128.16C469.668 129.544 469.511 131.005 468.473 132.275C468.473 132.275 467.838 132.765 467.695 133.03C467.387 133.369 467.374 134.566 467.115 135.082C466.425 136.391 465.244 137.925 464.718 139.159C464.479 139.864 464.397 140.696 464.159 141.401C463.92 142.106 463.469 142.709 463.018 143.313C462.349 144.811 463.094 145.065 462.938 146.526L462.535 147.307C462.624 147.861 462.665 148.24 462.87 148.542C462.959 149.097 463.253 149.955 463.335 150.711C464.499 155.339 475.364 141.82 476.859 138.951L476.914 138.926ZM466.588 152.396C466.302 152.924 467.231 153.292 467.538 152.953C469.355 150.928 466.971 151.426 466.588 152.396ZM470.509 149.407C470.345 149.482 469.45 150.488 469.963 150.451C470.311 150.49 471.001 149.181 470.509 149.407ZM452.452 97.3396C451.215 97.3112 450.122 99.4003 451.564 99.7317C452.527 99.0915 453.524 97.4432 452.452 97.3396ZM476.227 146.586C475.563 145.5 474.697 148.082 474.881 148.195C475.462 148.525 476.316 147.141 476.227 146.586ZM474.907 143.419C474.907 143.419 475.508 143.938 475.419 143.383C475.453 142.375 474.907 143.419 474.907 143.419ZM455.567 95.9111C455.641 95.2812 455.198 95.6833 455.436 94.9782C455.511 94.3483 456.092 94.6775 456.236 94.4132C456.092 94.6775 455.018 90.6043 454.213 93.7527C453.728 95.3645 452.875 96.7485 455.334 95.6206C455.375 95.9988 455.28 96.4396 455.321 96.8178C455.8 97.7894 455.641 95.2812 455.539 95.9236L455.567 95.9111ZM469.038 125.069C468.73 125.408 468.676 126.227 469.147 125.812C469.782 125.323 469.816 124.315 469.038 125.069ZM456.255 92.2205C456.003 94.1228 457.587 91.8081 456.255 92.2205C455.149 93.125 455.688 90.6942 456.255 92.2205ZM459.472 90.1496C459.103 89.9218 459.056 89.7452 458.673 90.7146C458.817 90.4503 459.124 90.1108 459.472 90.1496ZM461.876 87.459L461.221 87.7597C461.064 89.2211 461.897 87.6481 461.876 87.459ZM461.91 86.4509C461.869 86.0728 461.439 86.8656 461.623 86.9795C461.767 86.7152 461.931 86.64 461.91 86.4509ZM462.948 85.1808C462.313 85.6706 462.901 87.386 463.209 87.0466C463.516 86.7071 463.42 84.7662 462.948 85.1808Z" fill="#FF0004"/>
</g>
</svg>
