<svg width="320" height="185" viewBox="0 0 320 185" fill="none" xmlns="http://www.w3.org/2000/svg">
<rect x="0.5" y="147.5" width="319" height="37" rx="18.5" fill="white" stroke="black"/>
<path d="M44.134 162.722V162.182H39.328V162.722H44.134ZM44.134 164.18V163.622H39.328V164.18H44.134ZM44.134 165.656V165.08H39.328V165.656H44.134ZM37.348 161.228H40.444C40.48 161.048 40.534 160.868 40.57 160.67H35.926V159.23H38.608C38.446 158.834 38.212 158.402 37.996 158.06L39.742 157.736C40.048 158.168 40.39 158.762 40.57 159.23H43.036C43.324 158.744 43.63 158.15 43.81 157.718L45.808 158.024C45.538 158.474 45.268 158.888 45.016 159.23H47.662V160.67H42.532L42.298 161.228H46.204V166.61H37.348V161.228ZM35.692 160.166L34.234 161.444C33.766 160.778 32.704 159.788 31.804 159.122L33.19 157.952C34.09 158.564 35.188 159.482 35.692 160.166ZM43.828 168.716V169.472H47.68V171.092H43.828V172.532C43.828 173.486 43.63 173.99 42.91 174.278C42.19 174.548 41.236 174.566 39.904 174.566C39.814 173.99 39.508 173.252 39.238 172.712C40.12 172.766 41.11 172.766 41.38 172.748C41.668 172.748 41.758 172.676 41.758 172.478V171.092H36.412C37.132 171.596 37.87 172.208 38.284 172.676L36.736 173.99C36.268 173.396 35.188 172.478 34.342 171.884L35.296 171.092H31.318V169.472H41.758V168.716C40.552 168.716 39.436 168.698 38.608 168.68C36.79 168.608 35.566 168.212 34.702 167.078C33.838 167.672 32.956 168.23 31.948 168.842L31.228 167.15C31.894 166.826 32.686 166.43 33.442 165.998V163.82H31.372V162.2H35.386V165.692C35.98 166.682 37.06 167.078 38.59 167.132C40.768 167.222 45.466 167.168 47.95 166.988C47.77 167.384 47.518 168.158 47.428 168.626C46.474 168.662 45.178 168.698 43.828 168.716ZM53.188 158.762H59.416C59.416 162.164 59.902 168.734 66.526 172.64C66.058 173.018 65.176 173.954 64.798 174.512C61.072 172.262 59.164 168.86 58.174 165.638C56.824 169.67 54.664 172.658 51.532 174.53C51.136 174.08 50.128 173.198 49.57 172.784C53.314 170.894 55.456 167.42 56.446 162.686L57.544 162.884C57.418 162.2 57.346 161.552 57.292 160.94H53.188V158.762ZM78.496 160.112L76.804 161.336C76.174 160.706 75.184 159.734 74.482 159.212L76.12 158.06C76.768 158.546 77.866 159.482 78.496 160.112ZM69.874 160.562L72.178 159.68C72.34 160.004 72.7 160.742 72.898 161.066C73.168 161.588 73.456 162.164 73.726 162.758C75.886 161.804 78.046 160.958 79.864 160.958C82.636 160.958 84.292 162.632 84.292 164.702C84.292 167.204 82.582 168.77 79.846 168.77C78.892 168.77 77.776 168.518 77.11 168.266L77.164 166.034C77.956 166.376 78.856 166.628 79.612 166.628C80.98 166.628 81.934 165.908 81.934 164.63C81.934 163.712 81.16 162.974 79.81 162.974C78.424 162.974 76.48 163.712 74.572 164.594L75.076 165.692C75.904 167.636 77.272 171.452 77.884 173.45L75.418 174.08C74.86 171.848 73.942 168.806 73.024 166.682L72.556 165.584C71.278 166.214 70.144 166.826 69.388 167.168L68.344 164.882C69.028 164.72 69.82 164.45 70.108 164.306C70.63 164.108 71.17 163.874 71.71 163.64C71.44 163.1 71.188 162.596 70.918 162.128C70.666 161.678 70.234 161.03 69.874 160.562ZM99.376 161.102V159.914H96.1V161.102H99.376ZM101.32 158.42V162.596H94.282V158.42H101.32ZM92.23 167.186L90.592 167.78V172.19C90.592 173.126 90.448 173.648 89.926 173.972C89.422 174.296 88.738 174.368 87.712 174.368C87.676 173.828 87.442 173 87.19 172.46C87.694 172.478 88.18 172.478 88.342 172.478C88.54 172.478 88.594 172.406 88.594 172.208V168.464C88.072 168.644 87.568 168.806 87.1 168.968L86.596 166.916C87.172 166.772 87.838 166.574 88.594 166.358V163.136H86.848V161.156H88.594V157.772H90.592V161.156H92.086V163.136H90.592V165.728L91.888 165.296L92.23 167.186ZM95.722 165.998V164.666H94.246V165.998H95.722ZM99.772 164.666V165.998H101.32V164.666H99.772ZM103.336 170.282H99.718C100.726 171.236 102.22 172.082 103.678 172.55C103.246 172.91 102.634 173.666 102.328 174.17C101.068 173.63 99.79 172.73 98.8 171.668V174.602H96.766V171.722C95.542 172.874 94.012 173.774 92.41 174.314C92.104 173.828 91.528 173.054 91.096 172.658C92.842 172.208 94.57 171.326 95.74 170.282H92.428V168.554H96.766V167.456H92.662V163.226H97.414V167.384H98.116V163.226H103.03V167.456H98.8V168.554H103.336V170.282ZM109.186 157.826L111.274 158.474C110.806 159.734 110.212 161.012 109.546 162.218V174.548H107.386V165.548C107.008 165.998 106.63 166.448 106.27 166.844C106.072 166.322 105.46 165.098 105.082 164.558C106.72 162.938 108.286 160.382 109.186 157.826ZM122.092 162.722H116.98V164.612H121.642V166.556H116.98V168.59H121.876V170.57H116.98V174.566H114.784V162.722H114.1C113.38 164.054 112.552 165.278 111.742 166.214C111.4 165.818 110.554 165.062 110.104 164.72C111.688 163.1 113.11 160.508 113.92 157.934L115.99 158.456C115.738 159.212 115.45 159.95 115.108 160.688H122.092V162.722ZM140.308 162.668H131.596C131.542 163.442 131.488 164.234 131.398 165.008H138.346C138.346 165.008 138.328 165.656 138.274 165.944C137.95 170.84 137.572 172.856 136.852 173.648C136.312 174.224 135.754 174.404 134.908 174.476C134.242 174.548 133.036 174.53 131.83 174.476C131.794 173.864 131.47 172.982 131.074 172.37C132.316 172.496 133.576 172.496 134.098 172.496C134.494 172.496 134.746 172.46 134.962 172.262C135.43 171.866 135.754 170.3 136.006 167.024H131.056C130.372 170.066 128.878 172.874 125.278 174.692C124.972 174.098 124.324 173.342 123.766 172.874C128.626 170.624 129.04 166.52 129.238 162.668H124.09V160.616H130.984V157.682H133.198V160.616H140.308V162.668ZM147.94 159.644L146.68 161.39C145.978 160.76 144.502 159.896 143.314 159.41L144.502 157.808C145.654 158.258 147.166 159.032 147.94 159.644ZM146.878 164.342L145.69 166.142C144.97 165.53 143.476 164.738 142.306 164.288L143.404 162.668C144.556 163.064 146.104 163.748 146.878 164.342ZM145.978 167.294L147.58 168.662C146.698 170.534 145.654 172.586 144.646 174.314L142.792 172.946C143.692 171.596 144.97 169.364 145.978 167.294ZM159.352 173.468L157.318 174.566C157.174 174.152 156.976 173.648 156.706 173.144C153.448 173.432 150.046 173.666 147.616 173.846L147.328 171.686L148.678 171.632C149.326 170.264 149.956 168.482 150.388 166.97H147.31V164.918H151.936V162.38H148.21V160.328H151.936V157.772H154.168V160.328H158.074V162.38H154.168V164.918H158.92V166.97H152.872L152.944 166.988C152.368 168.5 151.648 170.156 151 171.506C152.44 171.434 154.042 171.344 155.626 171.254C155.176 170.534 154.672 169.832 154.186 169.202L156.022 168.23C157.354 169.814 158.794 171.956 159.352 173.468ZM165.184 169.76C165.922 169.76 166.642 168.644 167.362 166.232C167.776 164.918 168.1 163.388 168.316 161.912C165.364 162.524 163.798 165.116 163.798 167.078C163.798 168.878 164.518 169.76 165.184 169.76ZM170.08 173.738L168.748 171.632C169.432 171.542 169.936 171.452 170.404 171.344C172.69 170.804 174.454 169.166 174.454 166.574C174.454 164.108 173.122 162.272 170.728 161.858C170.476 163.37 170.17 165.026 169.666 166.7C168.604 170.3 167.056 172.496 165.112 172.496C163.15 172.496 161.476 170.318 161.476 167.312C161.476 163.208 165.058 159.68 169.684 159.68C174.094 159.68 176.884 162.758 176.884 166.646C176.884 170.39 174.58 173.054 170.08 173.738ZM183.832 171.398C184.156 171.398 184.408 171.236 184.408 170.624C184.408 170.174 184.39 169.364 184.354 168.428C183.256 168.986 182.536 169.724 182.536 170.354C182.536 170.894 183.364 171.398 183.832 171.398ZM186.37 164.99V165.62C187.576 165.314 188.8 165.152 189.79 165.152C192.526 165.152 194.686 166.61 194.686 169.058C194.686 171.164 193.588 172.748 190.762 173.45C189.934 173.63 189.124 173.702 188.422 173.738L187.594 171.452C188.404 171.452 189.16 171.434 189.79 171.326C191.23 171.074 192.382 170.336 192.382 169.04C192.382 167.834 191.302 167.132 189.754 167.132C188.656 167.132 187.504 167.312 186.406 167.618C186.442 169.04 186.496 170.408 186.496 171.02C186.496 173.234 185.686 173.81 184.534 173.81C182.788 173.81 180.322 172.316 180.322 170.426C180.322 168.86 182.14 167.258 184.318 166.304C184.3 165.89 184.3 165.476 184.3 165.062V163.568C183.958 163.586 183.634 163.604 183.346 163.604C182.536 163.604 181.636 163.586 180.862 163.514L180.826 161.354C181.87 161.48 182.644 161.498 183.292 161.498C183.616 161.498 183.958 161.48 184.318 161.462C184.336 160.832 184.336 160.31 184.336 160.004C184.336 159.626 184.264 158.762 184.21 158.438H186.658C186.622 158.762 186.55 159.536 186.514 159.986C186.496 160.382 186.478 160.814 186.46 161.264C187.63 161.102 188.8 160.868 189.736 160.598L189.79 162.83C188.782 163.064 187.558 163.244 186.388 163.388C186.37 163.928 186.37 164.468 186.37 164.99ZM190.762 162.11L191.752 160.364C193.12 161.03 195.19 162.2 196.126 162.866L195.046 164.702C194.2 163.964 191.878 162.65 190.762 162.11ZM212.362 158.24L214.576 158.726C213.982 160.814 213.028 162.992 212.128 164.378C211.642 164.054 210.616 163.622 210.04 163.406C210.994 162.146 211.876 160.112 212.362 158.24ZM210.436 162.308L208.456 162.938C208.33 161.804 207.844 159.932 207.322 158.51L209.194 157.988C209.752 159.392 210.292 161.192 210.436 162.308ZM207.268 162.83L205.324 163.586C205.126 162.47 204.46 160.652 203.776 159.284L205.594 158.618C206.314 159.932 207.052 161.678 207.268 162.83ZM198.574 161.3L200.014 161.48C200.032 163.19 199.762 165.278 199.132 166.628L197.728 165.998C198.304 164.882 198.556 162.92 198.574 161.3ZM204.622 164.018L203.218 164.702C203.092 164 202.75 162.974 202.336 162.056V174.548H200.266V157.754H202.336V161.192L203.326 160.76C203.884 161.804 204.46 163.136 204.622 164.018ZM212.146 169.058L210.976 170.714C210.634 170.264 210.13 169.724 209.554 169.184C209.014 170.066 208.42 170.84 207.808 171.47C207.466 171.146 206.692 170.534 206.242 170.264C206.944 169.634 207.574 168.824 208.114 167.924C207.502 167.42 206.89 166.952 206.332 166.538L207.394 165.098C207.88 165.44 208.42 165.836 208.96 166.232C209.248 165.566 209.482 164.864 209.68 164.144L211.57 164.558C211.282 165.548 210.904 166.538 210.472 167.456C211.156 168.014 211.75 168.572 212.146 169.058ZM212.164 171.47V164.54H214.27V174.35H212.164V173.414H206.224V174.386H204.172V164.576H206.224V171.47H212.164ZM220.588 169.562C221.038 168.896 221.542 167.798 222.046 166.7C220.066 167.006 218.986 168.212 218.986 169.328C218.986 169.832 219.292 170.174 219.652 170.174C220.012 170.174 220.264 170.012 220.588 169.562ZM233.08 168.14L232.054 170.606C231.586 170.192 231.064 169.76 230.524 169.364C229.732 171.38 228.382 172.946 226.006 174.188L224.098 172.64C226.798 171.488 228.04 169.778 228.634 168.158C227.374 167.474 225.97 166.934 224.458 166.718C223.792 168.248 223.018 170.012 222.388 171.002C221.686 172.082 220.84 172.568 219.616 172.568C218.05 172.568 216.88 171.488 216.88 169.688C216.88 166.934 219.382 164.81 222.964 164.648C223.468 163.496 223.972 162.29 224.386 161.444C223.684 161.462 222.154 161.516 221.344 161.57C220.966 161.588 220.336 161.66 219.886 161.732L219.796 159.428C220.264 159.482 220.876 159.5 221.272 159.5C222.28 159.5 224.188 159.428 225.016 159.356C225.448 159.32 225.916 159.212 226.222 159.086L227.644 160.202C227.392 160.472 227.194 160.706 227.05 160.958C226.582 161.714 225.934 163.262 225.304 164.774C226.69 164.99 227.986 165.422 229.138 165.926C229.156 165.71 229.174 165.512 229.192 165.314C229.228 164.63 229.246 163.946 229.174 163.37L231.514 163.64C231.442 164.828 231.352 165.944 231.172 166.952C231.91 167.366 232.558 167.798 233.08 168.14ZM243.16 163.838V168.392C243.754 167.474 244.186 166.16 244.402 164.882C244.276 164.936 244.15 165.008 244.024 165.062C243.862 164.702 243.502 164.198 243.16 163.838ZM240.388 168.284H241.414V166.79H240.388V168.284ZM237.958 166.79V167.096C237.958 167.474 237.958 167.87 237.94 168.284H238.984V166.79H237.958ZM239.848 161.048H238.408C238.21 161.498 238.012 161.948 237.796 162.362H239.344C239.524 161.966 239.686 161.498 239.848 161.048ZM240.388 163.928V165.278H241.414V163.928H240.388ZM237.958 163.928V165.278H238.984V163.928H237.958ZM251.872 169.688V171.524H248.812V174.494H246.778V171.524H243.448V169.688H246.778V168.068H245.284C245.068 168.59 244.834 169.058 244.564 169.454C244.258 169.238 243.61 168.896 243.16 168.698V172.496C243.16 173.342 243.016 173.882 242.476 174.188C241.918 174.494 241.18 174.548 240.082 174.548C240.028 174.026 239.74 173.216 239.47 172.73C240.19 172.766 240.892 172.766 241.108 172.766C241.324 172.766 241.414 172.694 241.414 172.46V169.868H237.832C237.652 171.56 237.238 173.306 236.41 174.602C236.104 174.314 235.33 173.828 234.934 173.648C236.14 171.794 236.23 169.112 236.23 167.096V164.432C235.87 164.072 235.204 163.532 234.826 163.28C236.05 161.966 237.004 159.86 237.49 157.754L239.38 158.15C239.272 158.582 239.146 159.014 239.002 159.428H240.64L240.91 159.338L242.134 160.094C241.882 160.796 241.522 161.624 241.144 162.362H243.16V163.46C244.654 162.776 245.194 161.732 245.446 160.418H243.43V158.672H251.422C251.422 158.672 251.404 159.122 251.386 159.356C251.296 162.218 251.152 163.46 250.756 163.928C250.45 164.306 250.108 164.45 249.658 164.522C249.262 164.576 248.56 164.594 247.84 164.576C247.804 164.018 247.624 163.298 247.354 162.848C247.912 162.902 248.398 162.92 248.65 162.92C248.866 162.92 249.01 162.884 249.136 162.722C249.298 162.524 249.388 161.912 249.46 160.418H247.372C247.066 162.29 246.382 163.784 244.546 164.792L246.148 165.116C246.076 165.494 246.004 165.89 245.896 166.268H246.778V164.648H248.812V166.268H251.512V168.068H248.812V169.688H251.872ZM258.982 159.608L257.74 161.372C257.092 160.742 255.688 159.914 254.554 159.428L255.724 157.826C256.822 158.258 258.262 159.014 258.982 159.608ZM257.992 164.396L256.768 166.178C256.084 165.566 254.662 164.774 253.528 164.288L254.662 162.686C255.778 163.082 257.272 163.784 257.992 164.396ZM257.2 167.24L258.838 168.572C257.938 170.48 256.894 172.55 255.886 174.314L254.014 172.982C254.914 171.614 256.192 169.346 257.2 167.24ZM264.688 162.524V164.018C264.688 164.612 264.67 165.188 264.634 165.782H266.92V162.524H264.688ZM270.358 167.798H265.966C266.83 170.012 268.36 171.83 270.556 172.73C270.052 173.162 269.386 174.008 269.062 174.602C266.722 173.45 265.192 171.452 264.166 168.842C263.572 171.056 262.258 173.108 259.504 174.62C259.126 174.17 258.298 173.432 257.722 173.108C260.458 171.668 261.664 169.814 262.186 167.798H258.676V165.782H262.51C262.546 165.188 262.564 164.594 262.564 164V162.524H259.558V160.508H262.564V157.772H264.688V160.508H269.008V165.782H270.358V167.798ZM279.592 168.374L278.944 162.218L278.872 159.536H282.166L282.076 162.218L281.446 168.374H279.592ZM280.51 173.162C279.448 173.162 278.638 172.442 278.638 171.398C278.638 170.372 279.448 169.616 280.51 169.616C281.572 169.616 282.382 170.372 282.382 171.398C282.382 172.442 281.572 173.162 280.51 173.162Z" fill="black"/>
<path d="M13.25 128V93.0909H22.7273V120.364H36.8409V128H13.25ZM50.1491 93.0909V128H40.6719V93.0909H50.1491ZM84.8452 93.0909V128H76.9361L64.3224 109.659H64.1179V128H54.6406V93.0909H62.6861L75.0952 111.364H75.3679V93.0909H84.8452ZM89.3281 128V93.0909H114.487V100.727H98.8054V106.727H113.192V114.364H98.8054V120.364H114.419V128H89.3281ZM152.842 99.296H156.394C158.938 99.296 160.378 99.2 161.674 98.96V105.344C160.618 105.248 158.938 105.2 156.394 105.2H152.842V106.784C152.842 118.688 149.962 125.936 138.394 131.024L133.258 126.176C142.522 122.96 146.602 118.784 146.602 107.024V105.2H135.226V111.728C135.226 113.84 135.37 115.808 135.418 116.768H128.698C128.842 115.808 128.986 113.888 128.986 111.728V105.2H124.906C122.506 105.2 120.778 105.296 119.722 105.392V98.864C120.586 99.008 122.506 99.296 124.906 99.296H128.986V94.544C128.986 92.72 128.794 91.136 128.698 90.224H135.514C135.37 91.136 135.226 92.672 135.226 94.592V99.296H146.602V94.256C146.602 92.336 146.458 90.752 146.314 89.792H153.13C153.034 90.752 152.842 92.336 152.842 94.256V99.296ZM204.778 89.408C203.29 89.408 202.138 90.56 202.138 92C202.138 93.44 203.29 94.64 204.778 94.64C206.218 94.64 207.37 93.44 207.37 92C207.37 90.56 206.218 89.408 204.778 89.408ZM204.778 97.568C201.706 97.568 199.21 95.072 199.21 92C199.21 88.928 201.706 86.48 204.778 86.48C207.85 86.48 210.298 88.928 210.298 92C210.298 95.072 207.85 97.568 204.778 97.568ZM175.882 108.224L181.306 110.768C179.098 115.04 174.682 121.328 172.042 124.16L166.858 120.608C170.074 117.536 173.914 112.256 175.882 108.224ZM203.386 103.952H192.154V126.272C192.154 129.056 190.57 130.784 187.162 130.784C184.57 130.784 181.786 130.64 179.338 130.352L178.762 124.4C180.826 124.784 182.938 124.976 184.09 124.976C185.338 124.976 185.818 124.496 185.866 123.248C185.914 121.472 185.914 106.256 185.914 104V103.952H173.722C172.282 103.952 170.41 104 169.066 104.144V97.76C170.506 97.952 172.234 98.144 173.722 98.144H185.914V94.304C185.914 93.056 185.674 90.944 185.482 90.128H192.586C192.49 90.8 192.154 93.104 192.154 94.304V98.144H203.338C204.682 98.144 206.794 98 208.042 97.808V104.096C206.554 104 204.682 103.952 203.386 103.952ZM196.714 110.912L201.946 108.08C204.394 111.152 208.234 117.2 210.154 120.704L204.49 123.776C202.426 119.648 199.018 113.84 196.714 110.912ZM217.354 113.312V105.776C219.082 105.92 222.586 106.064 225.082 106.064H250.858C253.066 106.064 255.226 105.872 256.474 105.776V113.312C255.322 113.264 252.874 113.072 250.858 113.072H225.082C222.346 113.072 219.13 113.168 217.354 113.312ZM302.65 110.336L299.914 116.96C294.97 114.368 287.77 111.584 282.586 109.808V123.392C282.586 124.784 282.826 128.144 283.018 130.064H275.53C275.818 128.192 276.01 125.312 276.01 123.392V95.84C276.01 94.112 275.866 91.712 275.53 90.032H283.018C282.826 91.712 282.586 93.824 282.586 95.84V102.896C289.018 104.768 298.234 108.176 302.65 110.336Z" fill="#00B900"/>
<rect x="124" y="1" width="72" height="72" rx="36" fill="#25FD1E" stroke="#06C755" stroke-width="2"/>
<path d="M179.644 31.5655C180.388 31.5655 180.39 30.4062 179.644 30.4062C178.899 30.4062 178.899 31.5655 179.644 31.5655Z" fill="black"/>
<path d="M180.222 30.9583C180.222 27.554 180.386 24.2462 178.983 21.0505C177.08 16.7149 173.204 13.5443 168.888 11.8054C159.777 8.13446 147.381 10.6385 142.198 19.5532C140.933 21.7306 140.235 24.1979 140.2 26.7193C140.181 28.1317 140.2 29.5459 140.2 30.9583C140.2 31.7041 141.356 31.706 141.356 30.9583C141.356 27.8979 141.148 24.8413 142.312 21.9374C144.031 17.65 147.866 14.464 152.094 12.8237C160.752 9.46181 172.539 11.7707 177.346 20.3492C178.471 22.3586 179.053 24.5882 179.068 26.8893C179.078 28.2457 179.068 29.602 179.068 30.9583C179.068 31.7041 180.224 31.706 180.224 30.9583H180.222Z" fill="black"/>
<path d="M179.768 31.7121C181.076 31.7141 183.203 31.3315 183.351 33.1728C183.451 34.419 183.343 35.7174 183.34 36.9674C183.34 37.4369 183.405 37.9895 183.232 38.4358C182.906 39.2763 182.134 39.3652 181.365 39.3652H177.668C176.924 39.3613 176.922 40.5206 177.668 40.5225C179.053 40.5225 180.454 40.5862 181.839 40.5264C182.889 40.48 183.835 39.9467 184.272 38.9594C184.55 38.3315 184.492 37.6398 184.494 36.9694L184.501 34.1234C184.501 33.507 184.559 32.8617 184.347 32.2705C183.631 30.2824 181.452 30.5567 179.766 30.5548C179.022 30.5548 179.02 31.7121 179.766 31.7141L179.768 31.7121Z" fill="black"/>
<path d="M140.694 30.5531C139.008 30.5569 136.827 30.2806 136.112 32.2688C135.9 32.8581 135.956 33.5053 135.958 34.1216L135.966 36.9676C135.966 37.6381 135.91 38.3297 136.187 38.9577C136.623 39.9411 137.571 40.4782 138.621 40.5246C140.006 40.5845 141.405 40.5227 142.792 40.5207C143.535 40.5207 143.537 39.3615 142.792 39.3615H139.162C138.438 39.3654 137.684 39.3344 137.289 38.5906C137.041 38.1211 137.124 37.4816 137.122 36.9676C137.118 35.7214 137.016 34.4308 137.11 33.1884C137.253 31.3278 139.376 31.7143 140.694 31.7123C141.437 31.7123 141.439 30.5511 140.694 30.5531Z" fill="black"/>
<path d="M164.52 44.4401H160.632C160.091 44.4401 159.521 44.3821 159.041 44.6816C158.272 45.1588 158.263 45.9954 158.284 46.803C158.305 47.6106 158.623 48.3622 159.484 48.5844C159.96 48.7081 160.536 48.6327 161.02 48.6327H163.532C164.006 48.6327 164.555 48.6984 165.012 48.5477C166.019 48.2134 166.123 47.2648 166.106 46.3509C166.087 45.296 165.622 44.5676 164.52 44.4401C163.783 44.355 163.788 45.5143 164.52 45.5993C165.253 45.6843 165.035 47.3131 164.482 47.4735C164.1 47.5836 163.507 47.4735 163.114 47.4735H161.02C160.708 47.4735 160.166 47.5797 159.87 47.4735C159.218 47.2397 159.228 45.808 159.895 45.5993C160.249 45.4873 160.823 45.5993 161.189 45.5993H164.522C165.266 45.5993 165.268 44.4401 164.522 44.4401H164.52Z" fill="black"/>
<path d="M165.877 47.116C170.624 46.975 176.221 44.8961 177.989 40.1141C178.247 39.4128 177.132 39.1114 176.874 39.805C175.302 44.0556 170.055 45.8312 165.875 45.9548C165.133 45.9761 165.129 47.1373 165.875 47.1141L165.877 47.116Z" fill="black"/>
<path d="M148.024 36.3054C148.024 37.9225 147.932 39.5764 148.148 41.182C148.494 43.7633 149.598 46.2074 151.342 48.1433C154.708 51.8781 160.185 53.074 164.771 51.0009C169.356 48.9277 172.019 43.9275 171.978 38.877C171.968 37.5767 171.629 36.3382 170.843 35.2891C170.477 34.7983 170.03 34.2998 169.468 34.0371C168.763 33.7106 168.021 33.9076 167.277 33.9501C164.784 34.095 162.274 33.6545 160.06 32.4682C157.659 31.1834 155.413 29.0136 154.286 26.4884C154.107 26.0865 153.481 26.1329 153.288 26.4884C151.56 29.6628 149.83 32.8373 148.101 36.0098C147.745 36.6647 148.743 37.2502 149.099 36.5952C150.828 33.4207 152.558 30.2463 154.286 27.0738H153.288C154.06 28.8069 155.411 30.3912 156.825 31.6239C158.239 32.8566 159.8 33.7685 161.534 34.3655C162.54 34.7133 163.584 34.9278 164.64 35.0456C165.925 35.1886 167.146 35.0282 168.425 35.0031C170.057 34.9703 170.789 37.4627 170.822 38.7475C170.851 39.8585 170.774 40.9714 170.531 42.0553C169.99 44.4569 168.72 46.6595 166.869 48.2824C163.179 51.5168 157.594 51.7138 153.691 48.7403C151.433 47.0188 149.924 44.4453 149.39 41.665C149.053 39.9165 149.18 38.0752 149.18 36.3015C149.18 35.5557 148.024 35.5538 148.024 36.3015V36.3054Z" fill="black"/>
<path d="M152.107 54.1469C148.739 54.1334 145.098 53.8803 142.019 52.3733C141.374 52.0584 140.732 51.6874 140.196 51.2024C140.063 51.0826 139.946 50.9107 139.803 50.8044C139.661 50.6982 139.825 50.8527 139.746 50.7291L139.537 51.5212C144.127 49.4384 143.672 43.8392 143.672 39.635C143.672 36.619 143.568 33.601 144.159 30.6256C144.963 26.5837 146.747 22.6731 149.6 19.6706C152.097 17.043 155.428 15.1766 159.081 14.9235C162.734 14.6704 166.084 15.8122 168.872 18.0284C172.015 20.5266 174.201 24.1125 175.402 27.9168C176.423 31.1473 176.585 34.4145 176.585 37.7686C176.585 39.7432 176.498 41.7487 176.683 43.7175C176.954 46.6002 177.688 50.3523 180.681 51.5792L180.426 50.6112C179.713 51.3454 178.712 51.8574 177.8 52.2844C174.918 53.6349 171.674 54.0793 168.524 54.145C167.78 54.1605 167.778 55.3197 168.524 55.3043C171.837 55.2367 175.19 54.742 178.226 53.3587C179.28 52.8795 180.424 52.2747 181.243 51.4304C181.573 51.0904 181.382 50.6228 180.989 50.4624C178.363 49.3863 177.925 45.3617 177.779 42.9215C177.677 41.2116 177.741 39.4804 177.741 37.7686C177.741 34.4087 177.586 31.1164 176.598 27.8724C175.467 24.157 173.471 20.6347 170.602 17.9936C165.279 13.0938 157.413 12.3036 151.444 16.5445C145.198 20.9806 142.516 28.7669 142.516 36.192C142.516 38.1898 142.518 40.1798 142.582 42.1737C142.68 45.2554 142.071 49.1042 138.954 50.5185C138.676 50.6441 138.592 51.0691 138.746 51.3106C139.345 52.2477 140.47 52.8988 141.433 53.3702C144.705 54.97 148.519 55.2869 152.105 55.3004C152.849 55.3043 152.85 54.145 152.105 54.1412L152.107 54.1469Z" fill="black"/>
<path d="M151.593 48.1704V53.4914C151.593 53.9918 151.67 54.5637 151.267 54.9462C150.824 55.3674 149.993 55.578 149.437 55.7906C148.633 56.0978 147.814 56.3683 146.988 56.6098C144.462 57.3478 141.865 57.798 139.247 58.0337C138.513 58.0994 138.505 59.2606 139.247 59.193C142.048 58.9399 144.83 58.4665 147.527 57.657C148.387 57.4 149.238 57.1083 150.072 56.7779C150.733 56.5151 151.562 56.2697 152.082 55.7635C153.024 54.8477 152.747 53.2228 152.747 52.0326V48.1665C152.747 47.4207 151.591 47.4188 151.591 48.1665L151.593 48.1704Z" fill="black"/>
<path d="M167.287 48.1961C167.327 49.4365 167.369 50.6788 167.41 51.9192C167.45 53.1596 167.233 54.7343 168.296 55.5902C168.826 56.0172 169.581 56.2297 170.215 56.4577C171.136 56.79 172.074 57.0741 173.022 57.3175C175.669 58.0015 178.386 58.3724 181.112 58.5328C181.856 58.5772 181.852 57.416 181.112 57.3735C178.569 57.2248 176.043 56.8809 173.571 56.2606C172.2 55.9167 170.568 55.5748 169.321 54.8715C168.267 54.2764 168.583 52.4003 168.549 51.357C168.514 50.3137 168.479 49.251 168.445 48.198C168.419 47.4542 167.264 47.4503 167.289 48.198L167.287 48.1961Z" fill="black"/>
</svg>
