<svg width="421" height="123" viewBox="0 0 421 123" fill="none" xmlns="http://www.w3.org/2000/svg">
<path d="M87.8453 45.5789C87.0415 45.262 86.1521 45.065 85.1943 44.988C84.2366 44.9109 83.2446 44.6197 82.227 44.1315C81.5599 43.5064 81.2093 42.6671 81.1837 41.5966L81.7566 40.3291C82.321 39.7296 83.0992 39.4128 84.0998 39.3956C84.8437 39.7211 85.3825 39.8324 85.7331 39.7382C85.8443 38.4022 85.8956 36.8521 85.887 35.105C85.887 33.358 85.8015 31.5938 85.6476 29.821C85.4765 29.35 85.3312 28.8276 85.22 28.2538L84.6898 29.3671C83.5781 29.9837 82.2013 30.3948 80.5509 30.6089C78.9004 30.8145 77.7802 31.0114 77.1816 31.1998L78.1735 42.5472L77.6006 43.8147C77.0362 44.4142 76.258 44.731 75.2575 44.7482L73.9919 44.1744C73.4617 43.6691 73.1367 43.0782 73.0084 42.4102L72.0849 31.8421L71.5547 31.885C70.6482 32.2875 69.622 32.5701 68.4761 32.7414C67.792 32.7414 67.1592 32.5358 66.5777 32.1333C66.0133 31.5681 65.714 30.8145 65.6969 29.8724L66.2613 28.5621C67.3131 28.014 68.3308 27.6029 69.3142 27.3203C70.1693 27.0805 71.0416 26.875 71.9309 26.7037L71.2383 24.3829C71.3665 23.6549 71.4007 23.1239 71.3409 22.7728L70.9048 22.8071L66.9625 23.2524L65.7054 22.73C65.4232 22.4645 65.2009 22.1391 65.0384 21.7708C64.9529 25.2821 64.9187 28.7848 64.9358 32.2875C64.9615 37.0491 63.8669 41.6908 61.6349 46.1955C61.0705 46.795 60.2923 47.1118 59.2918 47.129L58.0262 46.5552C57.4874 45.99 57.1539 45.2706 57.0085 44.4056C58.9155 40.312 59.8562 36.03 59.822 31.5338C59.7878 27.0463 59.8305 22.593 59.9674 18.1739L59.5398 13.2496L59.3688 12.436C59.6681 11.3741 60.0443 10.3635 60.5147 9.41291C61.233 8.73635 62.0625 8.41948 63.0032 8.4623L65.8081 8.31671C66.7145 7.97415 67.6723 7.66584 68.6643 7.38323C69.6562 7.10062 70.7337 6.91221 71.8882 6.80944L72.5809 6.94646C73.3761 6.74949 74.1714 6.48401 74.9838 6.15001C75.7962 5.81601 77.1388 5.43919 79.0116 5.01955L85.3226 4.46289L86.6224 4.88253C87.8197 5.94447 88.367 7.22908 88.2729 8.72779L88.3499 11.8365C88.7774 13.0612 89.1451 14.4143 89.4359 15.9045C89.7267 17.386 89.9062 18.9019 89.9746 20.452C90.0687 21.4797 90.0944 22.5159 90.0516 23.5607C90.0089 24.6055 90.0431 25.6675 90.1371 26.7637C90.1884 27.346 90.368 27.9455 90.6844 28.5621L91.0521 32.8099L90.9666 38.505C90.941 40.4233 90.8041 42.4273 90.5732 44.5255C89.7181 45.1507 88.8116 45.5104 87.8539 45.5874L87.8453 45.5789ZM65.3292 19.0988C66.304 18.4309 67.3473 18.0797 68.4419 18.0455C69.5365 18.0112 70.3917 17.9256 70.9903 17.7714L71.0245 17.5744L70.5456 12.1191C69.5109 12.5045 68.5873 12.83 67.7664 13.0954C66.6033 13.4551 65.5943 13.6264 64.7477 13.6007L65.1325 18.0455C65.1154 18.6021 65.0983 19.1331 65.0812 19.6555L65.3206 19.0988H65.3292ZM84.8095 24.1516C84.8865 23.1753 84.895 22.1905 84.8437 21.2056C84.7924 20.2207 84.7155 19.2187 84.6299 18.1825C84.4162 16.8037 84.1169 15.4591 83.7406 14.1488C83.3643 12.8385 83.142 11.4083 83.0736 9.84968V9.79829L80.2259 10.0466C79.003 10.5434 77.4723 10.9973 75.6337 11.4255L76.1468 17.2661L79.5674 16.9664L81.4659 16.5039L82.8769 17.0606C83.4755 17.6258 83.7919 18.4052 83.809 19.4072L83.1591 20.8288C82.4579 21.3426 81.6968 21.7023 80.8758 21.9079L76.3948 22.3018C76.5402 23.201 76.5659 24.2972 76.4889 25.599L76.6257 26.07L77.6348 25.9843C79.7983 25.599 81.5856 25.2478 82.9795 24.931L84.2879 25.4962C84.6128 25.8559 84.8523 26.2413 85.0233 26.6438L84.801 24.1345L84.8095 24.1516Z" fill="#6DB8F7"/>
<path d="M107.223 49.6725C106.539 49.6725 105.906 49.467 105.325 49.0645C104.76 48.5592 104.47 47.8056 104.444 46.8036L105.299 44.928L106.462 43.2666L107.103 42.2817L107.505 41.3226C108.104 40.7231 108.899 40.4062 109.9 40.3805L111.165 40.9543C111.781 41.6823 112.072 42.6072 112.038 43.7462L111.114 45.9643L109.6 48.0453L109.028 48.7305C108.489 49.2272 107.882 49.5441 107.215 49.664L107.223 49.6725ZM105.231 21.2998C104.547 21.2998 103.914 21.0943 103.332 20.6918C102.759 20.0324 102.46 19.2102 102.434 18.2425L102.99 16.7866C104.589 16.2214 106.154 15.8103 107.668 15.5534C109.181 15.2879 110.464 14.9967 111.499 14.6798V13.6093L111.422 13.2753C110.695 13.438 109.866 13.2325 108.942 12.6673C108.309 12.1106 107.984 11.3227 107.959 10.3207L108.609 8.85628C109.703 8.40238 110.789 8.05126 111.867 7.79433C112.944 7.53741 113.851 7.31475 114.577 7.11778C114.424 6.48404 114.603 5.75609 115.116 4.93394C115.903 4.28308 116.809 3.97477 117.853 4.01759L119.118 4.59138C119.725 5.21656 120.042 5.71327 120.076 6.0644L121.136 5.97019C122.128 5.81604 123.129 5.61907 124.147 5.36215C125.164 5.11379 126.259 4.89969 127.439 4.73697L128.696 5.20799C129.397 5.85886 129.722 6.72383 129.654 7.8029L129.081 9.01899C128.174 9.78119 127.379 10.1409 126.695 10.1066C126.669 10.9202 126.575 11.5625 126.43 12.025L126.763 11.9993L129.705 11.16L134.28 10.7575C135.127 10.8174 135.922 11.0658 136.675 11.5197C137.273 12.1192 137.59 12.8814 137.607 13.8234L137.034 15.0909C136.41 15.6989 135.674 16.0329 134.836 16.11C133.425 15.913 131.988 15.9387 130.518 16.1957C126.404 17.3347 122.214 18.2168 117.93 18.8591C113.645 19.4928 109.412 20.315 105.231 21.3341V21.2998ZM127.448 42.1618C126.729 42.0933 126.028 41.8621 125.344 41.4682L124.01 40.0808L123.693 38.702C123.693 37.9912 123.907 37.2889 124.335 36.6038C123.796 36.7151 123.266 36.8093 122.753 36.8864C120.897 37.1776 119.093 37.4345 117.331 37.6572C115.963 37.9055 114.663 37.7257 113.449 37.1176C113.149 36.6894 112.79 36.3982 112.354 36.2441C111.593 35.3363 111.2 34.3343 111.165 33.2381L110.413 24.6484C110.413 23.9633 110.627 23.3638 111.029 22.8414L111.738 22.0535C112.85 21.4711 114.005 21.0429 115.193 20.7774C116.382 20.5119 117.588 20.3235 118.81 20.2208C119.854 20.3235 120.923 20.2978 122.009 20.1351C122.958 19.921 123.907 19.7241 124.848 19.5442C125.789 19.3644 126.832 19.2273 127.995 19.1246L129.26 19.6984C130.022 20.6061 130.355 21.6595 130.27 22.8671L130.133 25.796L130.552 30.6261C130.5 31.5424 130.261 32.4502 129.816 33.3666L128.893 33.889C128.927 34.2744 128.713 34.8139 128.26 35.499L127.131 35.893L127.944 36.2612L128.345 36.9549C128.918 36.8693 129.534 37.0748 130.193 37.5715C130.757 38.0768 131.048 38.8304 131.073 39.8324L130.5 41.0999C129.594 41.8621 128.576 42.2218 127.439 42.1961L127.448 42.1618ZM133.861 47.1461L133.365 46.992L126.285 47.6086C124.36 47.4544 122.479 47.2489 120.649 47.0091C118.81 46.7607 117.049 46.0499 115.364 44.8681L114.791 44.3799C113.799 43.3694 113.141 42.1704 112.824 40.8087C112.824 40.1236 113.038 39.5241 113.44 39.0017C114.005 38.4022 114.783 38.0939 115.783 38.0682L117.246 38.7191L118.545 40.843C119.597 41.4339 120.837 41.8107 122.265 41.9734C123.685 42.1447 125.07 42.3246 126.421 42.5301L132.202 42.0248L131.8 41.3311C131.8 40.6203 132.005 39.9695 132.407 39.3785C132.972 38.8133 133.759 38.5136 134.759 38.4879L136.025 39.0617C136.769 39.841 137.325 40.6888 137.684 41.6138C138.043 42.5387 138.205 43.6006 138.18 44.8081L137.607 46.0242C136.606 46.7607 135.358 47.129 133.87 47.129L133.861 47.1461ZM125.6 31.5767L125.575 31.2427L125.789 30.352L125.369 25.5733L125.404 24.2544L122.83 24.8197L118.785 25.1708L117.656 25.0766L115.296 25.8217L115.441 27.4659C115.467 27.3974 115.492 27.3461 115.527 27.3118C116.031 26.8151 116.724 26.5582 117.596 26.5496C118.161 26.6952 118.725 26.7123 119.298 26.5924L123.454 25.8388L124.617 26.3184C125.147 26.8236 125.421 27.5088 125.429 28.3909L124.916 29.7012H124.865V29.7525C123.693 30.4034 122.479 30.7888 121.222 30.9001C119.965 31.0115 118.734 31.1485 117.519 31.3198C116.903 31.3112 116.339 31.1142 115.817 30.7374C115.783 30.7117 115.749 30.6603 115.706 30.6004L115.869 32.4331L115.963 32.9127L119.247 32.7243C120.256 32.3731 121.342 32.1334 122.513 32.0049C123.685 31.8679 124.711 31.7308 125.609 31.5853L125.6 31.5767ZM120.786 13.1212L120.769 12.9242C121.025 12.1877 121.171 11.5796 121.188 11.0915L118.588 11.3227C117.622 11.4084 116.861 11.5711 116.296 11.8194L116.724 13.9262H117.16C118.391 13.6008 119.597 13.3353 120.777 13.1297L120.786 13.1212ZM139.514 40.1322C138.693 40.038 137.863 39.7554 137.008 39.2843V39.1387L136.692 39.0188C135.999 37.7514 135.486 36.3811 135.17 34.9167L135.631 33.5635C136.281 32.8613 137.145 32.5359 138.222 32.6044L139.437 33.1782C140.181 33.9232 140.634 34.6426 140.788 35.3449L141.096 35.559C141.694 36.1242 142.002 36.8864 142.028 37.8627L141.455 39.1302C140.89 39.6697 140.232 39.9951 139.505 40.1236L139.514 40.1322Z" fill="#6DB8F7"/>
<path d="M157.532 12.607C158.37 12.5299 159.079 12.744 159.678 13.2493C160.268 13.746 160.61 14.4311 160.687 15.3047C160.756 16.0754 160.756 16.8804 160.687 17.7112C160.619 18.5419 160.473 19.6466 160.268 21.0083C160.063 22.37 160.029 24.0229 160.166 25.9583C160.302 27.8938 160.422 29.4182 160.516 30.5487C160.585 31.2852 160.67 31.936 160.781 32.4927C160.892 33.0494 161.029 33.6488 161.183 34.2826C161.337 34.9163 161.457 35.5158 161.559 36.0725C161.653 36.6291 161.73 37.0402 161.79 37.2971C161.799 37.4256 161.833 37.5712 161.876 37.7253C162.397 37.417 162.885 37.2457 163.338 37.2115C164.142 37.143 164.869 37.3485 165.527 37.8195C166.186 38.2991 166.553 39.0014 166.639 39.9349C166.673 40.286 166.63 40.6371 166.511 40.9882C166.391 41.3394 166.22 41.6477 165.981 41.9131C165.741 42.1786 165.51 42.4441 165.271 42.701C165.031 42.9665 164.741 43.2577 164.399 43.5831C164.056 43.9086 163.757 44.1569 163.518 44.3453C163.278 44.5337 163.03 44.7136 162.791 44.8934C162.551 45.0733 162.244 45.2531 161.893 45.433C161.534 45.6128 161.2 45.7156 160.875 45.7413C159.781 45.8355 159.011 45.6385 158.566 45.1418C158.122 44.6451 157.686 43.9771 157.275 43.1378C156.865 42.2985 156.531 41.5706 156.283 40.9625C156.035 40.3545 155.856 39.8235 155.736 39.3782C155.616 38.9329 155.531 38.5646 155.488 38.2563C155.445 37.9566 155.385 37.5969 155.325 37.2029C155.257 36.8004 155.214 36.4664 155.189 36.1924C155.163 35.9183 155.12 35.6186 155.06 35.276C155 34.942 154.949 34.5652 154.915 34.1456C154.881 33.7259 154.838 33.3491 154.795 33.0151C154.752 32.6811 154.718 32.3985 154.701 32.1758L154.607 31.0625L154.393 28.6474C154.333 28.0051 154.214 26.9518 154.017 25.4959C153.82 24.04 153.735 22.9609 153.76 22.2587C153.778 21.5564 153.812 20.9484 153.863 20.426C153.914 19.9035 153.957 19.4753 153.991 19.1499C154.026 18.8245 154.102 18.4391 154.205 17.9852C154.308 17.5399 154.385 17.1973 154.427 16.9661C154.47 16.7349 154.53 16.4094 154.607 15.9812C154.684 15.553 154.744 15.1505 154.795 14.7737C154.846 14.3969 154.983 14.0286 155.206 13.6689C155.437 13.3092 155.727 13.0523 156.086 12.9067C156.446 12.7611 156.933 12.6584 157.54 12.607H157.532ZM174.566 9.65239C175.208 9.59244 175.815 9.72946 176.371 10.0549C176.935 10.3803 177.38 10.8085 177.722 11.3481C178.064 11.8876 178.329 12.4614 178.526 13.078C178.722 13.6946 178.833 14.3198 178.859 14.9707L178.893 15.8956L180.903 15.0392C181.322 14.9707 181.707 14.9878 182.074 15.082C182.442 15.1762 182.793 15.356 183.135 15.5958C183.477 15.8442 183.742 16.1696 183.922 16.5721C184.101 16.9746 184.212 17.4028 184.255 17.8567C184.324 18.6275 184.161 19.227 183.759 19.6552C183.357 20.0834 182.853 20.4688 182.237 20.837C181.621 21.1967 181.065 21.4793 180.561 21.6677C180.056 21.8562 179.714 21.9589 179.518 21.976L180.321 31.1995C180.518 31.2509 180.792 31.3537 181.151 31.5164C181.502 31.6791 181.861 31.859 182.22 32.0559C182.579 32.2529 182.998 32.5441 183.485 32.938C183.973 33.332 184.443 33.6831 184.888 33.9828C185.333 34.2826 185.743 34.5309 186.119 34.7279C186.496 34.9249 186.889 35.1647 187.299 35.4473C187.71 35.7385 188.069 36.081 188.36 36.475C188.651 36.8689 188.822 37.3571 188.873 37.9394C188.95 38.7787 188.693 39.4981 188.112 40.0976C187.53 40.6971 186.872 41.0311 186.136 41.0996C185.589 41.1509 185.042 41.0311 184.503 40.757C183.956 40.483 183.434 40.2003 182.921 39.9263C182.408 39.6437 181.775 39.2155 181.014 38.6331C180.561 38.3162 180.287 38.0936 180.176 37.9737C180.082 39.147 179.475 40.4658 178.337 41.9303C177.174 43.429 175.704 44.2511 173.942 44.4053C171.821 44.5937 170.111 43.9514 168.82 42.4955C167.528 41.0396 166.801 39.3696 166.639 37.5027C166.519 36.1239 166.69 34.9848 167.169 34.1027C167.64 33.2206 168.298 32.467 169.136 31.8418C169.974 31.2167 170.863 30.7371 171.83 30.3859C172.788 30.0434 173.608 29.8721 174.284 29.8807C174.284 29.4268 174.173 28.3306 173.968 26.5749C173.762 24.8279 173.643 23.8858 173.6 23.7659L168.212 25.5044C167.699 25.5473 167.255 25.5044 166.887 25.376C166.519 25.2475 166.169 25.0677 165.844 24.8364C165.519 24.6052 165.271 24.3226 165.117 23.98C164.954 23.6375 164.86 23.2692 164.826 22.8838C164.766 22.2415 164.826 21.6849 164.997 21.2138C165.168 20.7428 165.459 20.3917 165.878 20.1433C166.297 19.895 166.699 19.7151 167.092 19.5952C167.486 19.4839 167.862 19.3469 168.221 19.2013C168.58 19.0557 169.042 18.8844 169.606 18.6875C170.171 18.4905 170.641 18.3278 171.017 18.1993C171.394 18.0708 171.744 17.9595 172.052 17.8653C172.369 17.7711 172.625 17.7197 172.813 17.7026L172.882 15.1676C172.882 15.1676 172.745 15.0477 172.557 14.8079C172.377 14.5681 172.223 14.3455 172.112 14.1399C172.001 13.943 171.915 13.746 171.864 13.5576C171.813 13.3692 171.778 13.1465 171.753 12.8896C171.667 11.9561 171.898 11.211 172.428 10.6458C172.959 10.0806 173.66 9.76372 174.532 9.68664L174.566 9.65239ZM172.001 37.0231C172.095 37.3999 172.326 37.888 172.685 38.4704C173.044 39.0528 173.301 39.3439 173.463 39.3268C173.814 39.2925 174.122 38.8986 174.378 38.1278C174.635 37.3571 174.84 36.5178 174.985 35.5929C174.395 35.5501 173.856 35.6528 173.361 35.9098C172.865 36.1667 172.411 36.5349 172.001 37.0231Z" fill="#6DB8F7"/>
<path d="M225.841 12.761C226.26 12.6925 226.671 12.6925 227.081 12.7696C227.492 12.8467 227.868 13.0179 228.218 13.2749C228.569 13.5403 228.834 13.8572 229.031 14.2512C229.228 14.6365 229.347 15.0391 229.381 15.4587C229.416 15.8783 229.381 16.2466 229.287 16.5635C229.185 16.8803 229.048 17.1458 228.868 17.3513C228.689 17.5569 228.458 17.7539 228.167 17.9251C227.876 18.0964 227.62 18.2591 227.406 18.4047C227.192 18.5503 227.004 18.6873 226.833 18.7987C226.662 18.91 226.508 19.047 226.354 19.2012C226.209 19.3639 226.029 19.5009 225.833 19.6379C225.636 19.7664 225.456 19.9034 225.311 20.049C225.157 20.1946 224.943 20.383 224.652 20.6142C224.362 20.854 224.156 21.0339 224.02 21.1538C223.883 21.2822 223.729 21.4107 223.541 21.5563C223.361 21.7019 223.165 21.9074 222.959 22.1643C222.754 22.4213 222.592 22.6268 222.48 22.7638C222.369 22.9009 222.232 23.0978 222.096 23.3547C221.959 23.6117 221.839 23.8172 221.736 23.9714C221.634 24.1255 221.506 24.3225 221.352 24.5623C221.198 24.8021 221.044 25.0162 220.898 25.2131C220.753 25.4016 220.642 25.5728 220.556 25.727C220.471 25.8811 220.343 26.1124 220.18 26.4207C220.018 26.729 219.881 27.0202 219.795 27.3028C219.71 27.5854 219.599 27.9451 219.479 28.3733C219.359 28.81 219.248 29.2896 219.145 29.8377C219.043 30.3773 218.983 30.8825 218.957 31.3364C218.932 31.7903 218.94 32.2785 218.991 32.7923C219.06 33.5288 219.316 34.2568 219.761 34.959C220.214 35.6698 220.676 36.1751 221.155 36.492C221.634 36.8089 222.13 37.1172 222.643 37.434C223.156 37.7423 223.584 38.0335 223.934 38.2904C224.276 38.5559 224.618 38.8728 224.943 39.2496C225.268 39.6264 225.448 40.0375 225.491 40.4914C225.567 41.3564 225.319 42.1014 224.738 42.7181C224.165 43.3347 223.515 43.6772 222.814 43.7372C221.685 43.8399 220.599 43.5231 219.547 42.8037C218.495 42.0843 217.461 41.2022 216.452 40.1574C215.434 39.1126 214.664 38.0678 214.134 37.0315C213.604 35.9953 213.279 34.7792 213.159 33.3918C212.945 30.9767 213.202 28.6559 213.912 26.4207C214.596 24.254 215.374 22.584 216.246 21.4021C216.024 21.4535 215.408 21.6248 214.399 21.9074C212.851 22.3699 211.569 22.7467 210.542 23.0464C209.516 23.3462 208.456 23.6202 207.361 23.86C206.267 24.0998 205.3 24.2625 204.462 24.331C203.53 24.4167 202.769 24.1769 202.171 23.6288C201.572 23.0807 201.238 22.4213 201.17 21.6505C201.11 20.9739 201.179 20.4001 201.384 19.9291C201.589 19.4581 201.888 19.0898 202.282 18.8329C202.675 18.5674 203.111 18.4047 203.573 18.3276C204.035 18.2591 204.539 18.1564 205.078 18.0279C205.617 17.8994 206.087 17.7881 206.481 17.6853C206.874 17.5826 207.319 17.4541 207.806 17.3C208.293 17.1458 208.712 17.0345 209.063 16.9745C209.414 16.9146 209.79 16.8375 210.183 16.7519C210.577 16.6662 210.97 16.5806 211.346 16.4778C211.723 16.3836 212.09 16.2894 212.441 16.2123C212.792 16.1353 213.253 16.0154 213.843 15.8441C214.425 15.6814 214.912 15.5358 215.289 15.3987L224.593 12.9751L225.833 12.7182L225.841 12.761ZM230.887 13.2492C230.211 12.9494 229.741 12.5212 229.458 11.9646L227.688 8.9072L227.124 8.56464C226.773 8.20495 226.594 7.69967 226.602 7.05736C226.782 6.55209 227.158 6.1667 227.714 5.89265L228.578 5.81558C229.647 6.14101 230.425 6.77475 230.929 7.69967C231.904 8.88151 232.546 10.2518 232.845 11.8104C232.708 12.4356 232.357 12.8895 231.802 13.1635L230.887 13.2406V13.2492ZM235.256 11.5535C234.521 11.2966 234.016 10.8512 233.734 10.2261C233.375 9.44673 232.913 8.68453 232.34 7.93946C231.776 7.19439 231.383 6.36368 231.177 5.43876C231.348 4.83928 231.716 4.38538 232.272 4.07708L233.136 4C233.871 4.25692 234.393 4.71938 234.709 5.37025C235.162 6.08106 235.65 6.80044 236.188 7.55408C236.727 8.29915 237.035 9.18981 237.129 10.2175C237.018 10.7827 236.684 11.1938 236.12 11.4764L235.256 11.5535Z" fill="#6DB8F7"/>
<path d="M254.72 33.5802C255.139 33.5459 255.541 33.5802 255.917 33.6658C256.302 33.76 256.592 33.9142 256.806 34.1197C257.02 34.3252 257.259 34.5907 257.533 34.9076C257.807 35.2245 257.995 35.4471 258.106 35.5842C258.217 35.7212 258.38 35.8582 258.602 36.0038C258.824 36.1494 259.115 36.3121 259.474 36.5091C259.833 36.7061 260.133 36.8859 260.372 37.04C260.612 37.1942 260.817 37.3569 260.971 37.5196C261.133 37.6824 261.373 37.9136 261.715 38.2048C262.048 38.4959 262.305 38.7443 262.484 38.9413C262.664 39.1382 262.844 39.3438 263.023 39.5493C263.203 39.7634 263.391 39.9433 263.579 40.0803C263.767 40.2259 264.024 40.4143 264.332 40.6455C264.639 40.8767 264.913 41.108 265.144 41.3306C265.375 41.5533 265.589 41.8274 265.794 42.1528C265.999 42.4782 266.119 42.8465 266.162 43.2661C266.239 44.1311 265.999 44.8676 265.452 45.4671C264.905 46.0666 264.246 46.4006 263.476 46.4691C262.801 46.529 262.211 46.4262 261.698 46.1608C261.185 45.8953 260.714 45.5784 260.278 45.2187C259.842 44.8505 259.32 44.3281 258.705 43.6515C258.089 42.9749 257.61 42.5039 257.242 42.247C256.883 41.9901 256.327 41.6218 255.592 41.1508C254.856 40.6798 254.258 40.2516 253.805 39.8747C253.351 39.4894 252.958 39.0355 252.642 38.4959C252.317 37.9564 252.129 37.3997 252.086 36.8174C252.009 35.9524 252.231 35.2073 252.744 34.5993C253.257 33.9913 253.916 33.6487 254.72 33.5716V33.5802ZM260.748 6.88604C261.227 6.84322 261.655 6.88604 262.023 7.0145C262.39 7.14297 262.681 7.32281 262.895 7.54548C263.109 7.76814 263.297 8.02506 263.468 8.29911C263.639 8.57316 263.81 8.8729 263.981 9.19834C264.152 9.52377 264.289 9.81495 264.4 10.0633C264.503 10.3117 264.631 10.5429 264.776 10.757C264.922 10.9711 265.11 11.2623 265.341 11.6305C265.495 11.9388 265.58 12.1101 265.58 12.1444L272.652 9.72931C273.071 9.66079 273.456 9.67792 273.824 9.77213C274.191 9.86633 274.525 10.0376 274.841 10.2688C275.149 10.5001 275.406 10.7912 275.602 11.1509C275.791 11.5106 275.91 11.9131 275.953 12.3585C276.004 12.9408 275.919 13.4461 275.697 13.8914C275.474 14.3368 275.209 14.6622 274.884 14.8849C274.559 15.1075 274.209 15.3131 273.815 15.4929C273.422 15.6728 272.96 15.8612 272.404 16.0581C271.857 16.2551 271.421 16.3921 271.104 16.4863C270.788 16.5805 270.489 16.6833 270.206 16.8118C269.924 16.9317 269.42 17.1201 268.701 17.3856L270.343 20.0147L274.978 18.0022C275.397 17.9337 275.765 17.9508 276.098 18.0536C276.432 18.1563 276.757 18.3276 277.065 18.576C277.381 18.8243 277.638 19.1326 277.852 19.5009C278.057 19.8691 278.185 20.2631 278.219 20.6827C278.279 21.3935 278.142 21.9759 277.792 22.4469C277.441 22.9179 277.065 23.2776 276.646 23.5431C276.235 23.8086 275.679 24.0655 274.987 24.3224C274.457 24.528 274.174 24.6222 274.14 24.5879C274.209 24.6821 274.422 24.8534 274.773 25.1189C275.337 25.6242 275.808 26.0438 276.193 26.3778C276.577 26.7204 276.911 27.0972 277.193 27.5083C277.475 27.9193 277.638 28.4503 277.698 29.0926C277.732 29.5123 277.698 29.9062 277.578 30.2659C277.467 30.6341 277.304 30.9424 277.099 31.2079C276.894 31.4649 276.671 31.6875 276.432 31.8759C276.184 32.0643 275.91 32.2613 275.585 32.484C275.269 32.7066 274.935 32.9464 274.602 33.2034C274.268 33.4603 273.961 33.6658 273.687 33.82C273.405 33.9741 273.14 34.1111 272.875 34.231C272.609 34.3509 272.361 34.4195 272.139 34.4451C271.241 34.5222 270.506 34.2996 269.941 33.76C269.377 33.229 269.061 32.5696 268.992 31.7989C268.924 31.0281 269.138 30.2916 269.616 29.5037C269.728 29.3324 269.864 29.1868 270.018 29.0755C269.881 28.9556 269.736 28.8271 269.591 28.673C268.924 28.0478 268.351 27.4569 267.88 26.8745C267.436 26.943 266.94 27.0372 266.401 27.1486C265.862 27.2599 265.161 27.4055 264.297 27.5768C263.442 27.7481 262.673 27.9022 262.006 28.0478C261.339 28.1848 260.68 28.2876 260.039 28.339C259.303 28.4075 258.662 28.4417 258.132 28.4589C257.602 28.476 257.08 28.4161 256.584 28.279C256.088 28.142 255.652 27.8765 255.275 27.474C254.899 27.0715 254.677 26.4977 254.617 25.7526C254.574 25.273 254.617 24.8534 254.754 24.5023C254.882 24.1512 255.079 23.8172 255.344 23.5003C255.609 23.1834 255.9 22.9522 256.225 22.7895C256.55 22.6353 256.926 22.5497 257.345 22.5411L259.423 22.4041C260.287 22.327 261.167 22.1986 262.057 22.0016C262.946 21.8132 263.647 21.6419 264.152 21.5049L262.963 19.6122L260.672 20.1089C260.244 20.049 259.56 20.0319 258.628 20.0404C257.687 20.0575 256.892 20.0062 256.233 19.8863C255.575 19.7664 254.968 19.5009 254.412 19.0984C253.856 18.6959 253.54 18.0536 253.471 17.1886C253.403 16.3836 253.634 15.6642 254.155 15.039C254.685 14.4053 255.344 14.0627 256.148 13.9856C256.344 13.9685 256.601 13.9514 256.917 13.9428C257.242 13.9343 257.661 13.9257 258.183 13.9257C258.705 13.9257 259.175 13.9428 259.594 13.9685C260.013 13.9942 260.278 14.0028 260.372 13.9942C259.97 13.8058 259.637 13.5917 259.389 13.3519C259.141 13.1121 258.918 12.8295 258.73 12.4869C258.542 12.1444 258.38 11.7675 258.269 11.3393C258.149 10.9111 258.072 10.4744 258.029 10.0205C257.952 9.18121 258.166 8.47039 258.67 7.87091C259.166 7.27999 259.851 6.93743 260.723 6.86035L260.748 6.88604ZM274.14 24.5365C274.072 24.5108 274.055 24.528 274.097 24.5879C274.097 24.5537 274.106 24.5365 274.14 24.5365Z" fill="#6DB8F7"/>
<path d="M301.804 9.19013C302.155 9.15587 302.505 9.19869 302.856 9.31859C303.207 9.42992 303.54 9.63546 303.857 9.90951C304.173 10.1921 304.43 10.5004 304.618 10.843C304.806 11.1856 304.926 11.5966 304.968 12.0762L304.327 14.7139L308.586 14.0031C308.996 13.9346 309.389 13.9603 309.757 14.0716C310.125 14.183 310.45 14.3628 310.749 14.594C311.048 14.8253 311.296 15.1336 311.51 15.5018C311.724 15.8701 311.844 16.264 311.878 16.6837C311.938 17.326 311.835 17.8655 311.579 18.2937C311.322 18.7219 311.006 19.0473 310.621 19.2786C310.236 19.5098 309.834 19.6811 309.424 19.7924C309.013 19.9123 308.56 20.0151 308.064 20.1093C307.568 20.2035 307.055 20.2891 306.508 20.3662C305.96 20.4433 305.49 20.5375 305.097 20.6317C304.703 20.7345 304.318 20.8115 303.951 20.8801C303.583 20.9486 303.335 20.9999 303.215 21.0428C303.096 21.5395 302.984 22.1475 302.89 22.8669C302.788 23.5863 302.685 24.3827 302.565 25.2563C302.446 26.1298 302.36 26.7464 302.317 27.1232C302.266 27.5001 302.232 27.894 302.206 28.2965C302.18 28.7076 302.138 29.093 302.086 29.4527C302.035 29.8124 302.018 30.2149 302.018 30.6516C302.018 31.0884 302.018 31.6108 301.984 32.2103C301.958 32.8098 301.932 33.2808 301.915 33.6062C301.898 33.9317 301.873 34.3256 301.847 34.7795C301.821 35.2334 301.787 35.6616 301.736 36.0555C301.693 36.4495 301.633 36.8434 301.573 37.2374C301.513 37.6313 301.428 38.0938 301.334 38.6162C301.231 39.1472 301.171 39.6267 301.146 40.0721C301.12 40.5088 301.094 40.9884 301.077 41.4851C301.06 41.9904 301.043 42.47 301.035 42.9239C301.026 43.3778 300.949 43.8146 300.812 44.2342C300.667 44.6538 300.41 45.0221 300.034 45.3475C299.658 45.673 299.136 45.8614 298.461 45.9213C297.46 46.007 296.699 45.7243 296.152 45.082C295.613 44.4312 295.288 43.5491 295.194 42.4186C295.151 41.9048 295.134 41.331 295.143 40.6973C295.151 40.0635 295.194 39.4812 295.262 38.9588C295.331 38.4363 295.425 37.7769 295.553 36.989C295.681 36.2011 295.767 35.5845 295.827 35.1392C295.887 34.6939 295.938 34.0772 295.981 33.2808C296.023 32.4843 296.049 31.8848 296.041 31.4995C296.041 31.1141 296.041 30.6688 296.041 30.1892C296.041 29.701 296.075 29.1358 296.135 28.4764C296.186 27.8255 296.271 27.089 296.374 26.2668C296.477 25.4447 296.562 24.9137 296.622 24.6654C296.682 24.417 296.776 23.8946 296.896 23.1067C296.998 22.3873 297.05 21.9249 297.067 21.7279C297.041 21.7621 296.956 21.805 296.836 21.8478C296.648 21.9334 296.425 22.0533 296.16 22.2246C295.895 22.3959 295.621 22.5757 295.331 22.7556C295.04 22.944 294.749 23.0468 294.458 23.0724C293.526 23.1581 292.748 22.9183 292.115 22.3531C291.483 21.7964 291.132 21.1113 291.064 20.3063C290.987 19.4413 291.217 18.7219 291.748 18.1567C292.278 17.5915 292.919 17.1547 293.672 16.8464C294.424 16.5381 295.194 16.3069 295.989 16.1527C296.784 15.9985 297.469 15.8701 298.042 15.7502C298.127 15.2535 298.213 14.6454 298.298 13.926C298.384 13.2067 298.529 12.513 298.751 11.845C298.965 11.177 299.324 10.5861 299.812 10.0722C300.299 9.55838 300.966 9.26721 301.796 9.19013H301.804ZM312.579 36.3125C312.87 36.2868 313.178 36.321 313.511 36.4238C313.845 36.5266 314.127 36.6379 314.366 36.7664C314.606 36.8948 314.922 37.0661 315.307 37.2888C315.7 37.5114 316.008 37.657 316.239 37.717C316.47 37.7769 316.71 37.8369 316.958 37.8968C317.206 37.9568 317.462 37.991 317.719 37.9996C317.975 38.0081 318.334 37.9996 318.788 37.9568C319.241 37.9139 319.6 37.9054 319.874 37.9139C320.147 37.9225 320.506 37.9225 320.943 37.9139C321.379 37.9139 321.738 37.9225 322.02 37.9653C322.294 38.0081 322.584 38.0338 322.875 38.0595C323.166 38.0852 323.465 38.0938 323.756 38.1024L324.945 37.8026C325.329 37.7341 325.714 37.7427 326.108 37.8197C326.501 37.8968 326.877 38.0595 327.219 38.3079C327.561 38.5562 327.852 38.8645 328.074 39.2328C328.305 39.6011 328.434 40.0121 328.476 40.466C328.588 41.7249 328.169 42.5899 327.219 43.0781C326.27 43.5662 325.21 43.866 324.021 43.9687C323.602 44.003 323.243 44.003 322.926 43.9687C322.619 43.9345 322.302 43.9088 321.994 43.9002C321.687 43.9002 321.327 43.9002 320.925 43.9173C320.524 43.9345 320.233 43.9345 320.053 43.9173C319.874 43.9002 319.566 43.9173 319.13 43.9516C318.693 43.9858 318.334 44.003 318.044 43.9944C317.753 43.9944 317.462 43.9773 317.171 43.9773C316.881 43.9773 316.564 43.9516 316.222 43.9173C315.88 43.8831 315.547 43.8146 315.23 43.7118C314.914 43.609 314.597 43.4977 314.281 43.3778C313.964 43.2579 313.691 43.1466 313.477 43.0352C313.255 42.9239 312.844 42.7441 312.237 42.4871C311.63 42.2302 311.083 41.8791 310.587 41.4166C310.091 40.9542 309.817 40.3547 309.749 39.6182C309.672 38.7532 309.903 37.9996 310.45 37.3658C310.997 36.7321 311.698 36.381 312.571 36.3039L312.579 36.3125ZM317.616 21.0856C317.838 21.0685 318.386 20.9999 319.249 20.8972C320.113 20.7858 320.917 20.7602 321.669 20.803C322.422 20.8544 323.063 21.1027 323.602 21.5566C324.141 22.0105 324.457 22.6871 324.534 23.5949C324.568 23.946 324.509 24.3228 324.363 24.7253C324.218 25.1278 324.03 25.4789 323.799 25.7701C323.568 26.0699 323.277 26.3097 322.944 26.4981C322.602 26.6865 322.259 26.7978 321.909 26.8321L318.138 27.0205C317.778 26.952 317.419 26.9605 317.069 27.0376C316.718 27.1147 316.342 27.2431 315.94 27.4315C315.538 27.6114 315.179 27.757 314.888 27.8683C314.589 27.9796 314.324 28.0396 314.101 28.0567C313.169 28.1424 312.417 27.894 311.852 27.3288C311.288 26.7636 310.963 26.0784 310.894 25.2734C310.775 23.8603 311.399 22.8412 312.793 22.2332C314.178 21.6251 315.795 21.2397 317.625 21.077L317.616 21.0856Z" fill="#6DB8F7"/>
<path d="M353.626 7.58792C356.457 7.33956 358.997 7.81915 361.254 9.03525C363.512 10.2513 364.76 12.1611 364.983 14.7646C365.034 15.3726 364.931 16.0064 364.658 16.6401C364.393 17.2824 364.059 17.899 363.657 18.5071C363.255 19.1066 362.811 19.6461 362.315 20.1086C361.819 20.571 361.382 20.9221 360.998 21.1448C360.613 21.376 360.211 21.5816 359.792 21.7614C359.373 21.9413 359.039 22.0869 358.808 22.1896C358.578 22.2924 358.347 22.4208 358.116 22.5921C357.885 22.7548 357.645 22.9689 357.389 23.2173C357.132 23.4657 356.901 23.8596 356.688 24.3991C356.474 24.9387 356.346 25.4183 356.303 25.8465C356.26 26.2747 356.26 26.7029 356.294 27.1396C356.328 27.5764 356.346 27.9018 356.328 28.1331C356.32 28.3643 356.303 28.6298 356.303 28.9381C356.303 29.2464 356.277 29.5633 356.243 29.8887L356.448 31.139C356.517 31.5587 356.5 31.9612 356.405 32.3551C356.311 32.7491 356.149 33.1259 355.918 33.4685C355.687 33.811 355.388 34.1108 355.02 34.3506C354.652 34.5904 354.242 34.7359 353.797 34.7702C352.48 34.8815 351.617 34.5218 351.198 33.6826C350.787 32.8433 350.513 31.73 350.394 30.3512C350.325 29.6146 350.291 28.8096 350.283 27.9532C350.274 27.0968 350.3 26.2404 350.377 25.3926C350.445 24.5447 350.599 23.7055 350.838 22.8747C351.069 22.044 351.386 21.299 351.788 20.6481C352.181 19.9972 352.711 19.3635 353.37 18.7297C354.028 18.1046 354.635 17.6079 355.208 17.231C355.773 16.8542 356.337 16.5117 356.893 16.1862C357.449 15.8608 357.893 15.6039 358.235 15.4155C358.483 15.2956 358.714 15.1671 358.928 15.013C358.791 14.6019 358.295 14.2422 357.423 13.9253C356.388 13.5656 355.319 13.4286 354.233 13.5228C352.66 13.6598 351.36 13.9082 350.342 14.2507C349.325 14.6019 348.624 15.2442 348.256 16.1862L348.367 16.9056C348.401 17.2567 348.358 17.6164 348.239 17.9847C348.128 18.3529 347.965 18.6869 347.743 19.0038C347.529 19.3121 347.23 19.5776 346.836 19.7917C346.451 20.0058 346.084 20.1257 345.725 20.1599C344.698 20.2541 343.877 19.9201 343.279 19.1579C342.68 18.4043 342.338 17.5393 342.253 16.5716C342.03 14.0281 343.116 11.9641 345.502 10.3798C347.888 8.79545 350.59 7.87054 353.609 7.60505L353.626 7.58792ZM353.797 39.0437C354.729 38.958 355.61 39.1807 356.448 39.686C357.286 40.1998 357.757 41.0819 357.868 42.3323C357.962 43.4285 357.68 44.3362 357.013 45.0556C356.346 45.775 355.55 46.1775 354.618 46.2632C353.686 46.3488 352.848 46.109 352.104 45.5609C351.36 45.0128 350.95 44.2677 350.864 43.3342C350.77 42.2723 350.967 41.3131 351.437 40.4653C351.916 39.6175 352.694 39.1379 353.789 39.0437H353.797Z" fill="#6DB8F7"/>
<path d="M36.6045 69.9606C37.8359 69.8493 38.8877 70.1661 39.7685 70.9026C40.6408 71.6391 41.1368 72.6497 41.2479 73.9343C41.3505 75.0733 41.342 76.2552 41.2394 77.4884C41.1368 78.7216 40.923 80.3402 40.6237 82.3528C40.3244 84.3653 40.2731 86.7975 40.4697 89.6493C40.675 92.5012 40.846 94.7621 40.9914 96.4235C41.0854 97.5197 41.2137 98.4703 41.3847 99.2924C41.5558 100.115 41.7439 100.997 41.9748 101.93C42.1971 102.872 42.3853 103.746 42.5307 104.576C42.676 105.407 42.7872 105.998 42.8642 106.375C42.8813 106.563 42.924 106.777 42.9924 107.009C43.7621 106.563 44.4804 106.306 45.1474 106.246C46.3361 106.144 47.4136 106.443 48.3799 107.146C49.3462 107.848 49.8935 108.893 50.0132 110.272C50.056 110.794 49.9961 111.316 49.8251 111.83C49.6541 112.344 49.3975 112.798 49.0469 113.192C48.6963 113.586 48.3542 113.971 48.0036 114.365C47.653 114.751 47.2254 115.187 46.7209 115.658C46.2164 116.138 45.7802 116.506 45.4211 116.78L44.3436 117.594C43.9844 117.868 43.5397 118.133 43.0181 118.39C42.4879 118.656 41.9919 118.801 41.513 118.844C39.8968 118.99 38.7594 118.69 38.101 117.962C37.4425 117.234 36.8011 116.249 36.194 115.007C35.5868 113.766 35.0994 112.695 34.7317 111.796C34.364 110.897 34.0989 110.117 33.9193 109.458C33.7397 108.807 33.62 108.25 33.5601 107.805C33.5002 107.36 33.4147 106.837 33.3207 106.246C33.218 105.656 33.1582 105.159 33.1154 104.756C33.0727 104.354 33.0128 103.9 32.9273 103.412C32.8332 102.915 32.7648 102.358 32.7135 101.742C32.6622 101.125 32.6023 100.568 32.5339 100.072C32.4655 99.5751 32.4228 99.164 32.3886 98.83L32.2432 97.1943L31.9353 93.6316C31.8498 92.681 31.6702 91.1309 31.388 88.9813C31.1058 86.8318 30.9776 85.2389 31.0032 84.2026C31.0289 83.1664 31.0802 82.2671 31.1571 81.4964C31.2341 80.7256 31.294 80.1004 31.3538 79.6123C31.4051 79.1327 31.5163 78.5589 31.6702 77.8995C31.8242 77.24 31.9353 76.7433 32.0037 76.4008C32.0721 76.0582 32.1577 75.57 32.2688 74.9449C32.38 74.3111 32.4741 73.7202 32.5425 73.1635C32.6109 72.6069 32.8161 72.0588 33.1496 71.5278C33.4831 70.9968 33.9193 70.62 34.4495 70.4059C34.9797 70.1918 35.698 70.0462 36.5959 69.9692L36.6045 69.9606ZM61.7459 65.6015C62.6951 65.5159 63.5845 65.7128 64.414 66.1924C65.2435 66.672 65.9105 67.3057 66.4065 68.1022C66.9025 68.8987 67.3044 69.7465 67.5951 70.6543C67.8859 71.5621 68.0569 72.4955 68.0911 73.4462L68.1424 74.8078L71.1098 73.5404C71.7255 73.4376 72.2985 73.4633 72.8372 73.6089C73.376 73.7545 73.8976 74.0028 74.4107 74.3711C74.9238 74.7393 75.3086 75.2104 75.5737 75.8098C75.8388 76.4093 76.0013 77.0431 76.0611 77.7025C76.1638 78.8415 75.9158 79.7236 75.3257 80.3488C74.7357 80.974 73.9831 81.5563 73.0767 82.0873C72.1702 82.6268 71.3407 83.0293 70.6053 83.3119C69.8699 83.5946 69.3568 83.7487 69.066 83.7658L70.2547 97.3741C70.5454 97.4426 70.9559 97.5968 71.4775 97.8366C71.9992 98.0764 72.5294 98.3418 73.051 98.633C73.5812 98.9242 74.1969 99.361 74.9238 99.9433C75.6421 100.526 76.3348 101.04 76.9933 101.485C77.6517 101.93 78.2589 102.298 78.8062 102.581C79.3535 102.864 79.935 103.223 80.5507 103.652C81.1579 104.08 81.6795 104.585 82.1156 105.167C82.5518 105.75 82.7997 106.469 82.8767 107.326C82.9879 108.559 82.6116 109.621 81.7565 110.511C80.9013 111.402 79.9264 111.89 78.8404 111.984C78.0365 112.053 77.2327 111.89 76.4289 111.479C75.625 111.068 74.8554 110.657 74.0943 110.246C73.3418 109.835 72.4011 109.201 71.2723 108.336C70.6053 107.865 70.2034 107.548 70.0409 107.368C69.9041 109.098 68.9976 111.051 67.3215 113.209C65.6026 115.419 63.4391 116.635 60.8309 116.866C57.701 117.14 55.1783 116.198 53.2714 114.048C51.3644 111.899 50.2869 109.441 50.0474 106.683C49.8679 104.645 50.1244 102.966 50.8256 101.665C51.5268 100.363 52.4932 99.2411 53.7246 98.3247C54.956 97.3998 56.2815 96.689 57.6925 96.1837C59.1035 95.6784 60.3178 95.4301 61.3183 95.4386C61.3098 94.7706 61.1559 93.1435 60.8566 90.5657C60.5572 87.9793 60.3777 86.6005 60.3178 86.4121L52.3734 88.9728C51.6124 89.0413 50.9624 88.9728 50.4237 88.7844C49.8764 88.596 49.3719 88.3305 48.8844 87.9879C48.397 87.6453 48.0378 87.2257 47.8069 86.7204C47.5675 86.2152 47.4307 85.6756 47.3794 85.1104C47.2938 84.1598 47.3794 83.3376 47.6274 82.6525C47.8754 81.9588 48.3115 81.4364 48.9186 81.0682C49.5343 80.6999 50.1244 80.4344 50.7145 80.2631C51.296 80.0919 51.8518 79.9035 52.382 79.6893C52.9122 79.4752 53.5963 79.2269 54.4344 78.9357C55.2724 78.6445 55.9651 78.4047 56.5209 78.2163C57.0768 78.0279 57.5899 77.8566 58.0517 77.7196C58.5134 77.5826 58.8897 77.5055 59.1805 77.4798L59.2831 73.7373C59.2318 73.7373 59.0778 73.5661 58.8042 73.2064C58.5305 72.8467 58.3168 72.5212 58.1457 72.2215C57.9747 71.9218 57.855 71.6391 57.7866 71.3565C57.7096 71.0739 57.6583 70.7485 57.6241 70.3631C57.5044 68.9843 57.8379 67.8795 58.6246 67.0488C59.4113 66.2181 60.4461 65.7385 61.7288 65.6272L61.7459 65.6015ZM57.9576 105.99C58.103 106.555 58.4365 107.266 58.9667 108.122C59.4969 108.987 59.8817 109.407 60.1126 109.389C60.6342 109.347 61.0874 108.756 61.4637 107.617C61.84 106.486 62.1393 105.236 62.3531 103.874C61.4894 103.806 60.6855 103.96 59.9586 104.337C59.2232 104.713 58.5562 105.262 57.949 105.981L57.9576 105.99Z" fill="#FF46DC"/>
<path d="M101.211 85.0761L101.288 85.1446C101.245 85.196 101.22 85.196 101.22 85.1446C101.126 85.1446 101.126 85.1275 101.22 85.0761H101.211ZM104.828 69.0442C105.496 68.9843 106.145 69.0699 106.787 69.3011C107.428 69.5324 107.993 69.9349 108.471 70.5172C108.95 71.0996 109.267 71.7248 109.421 72.4099C109.575 73.0865 109.617 73.8144 109.54 74.5852L110.199 85.4358C110.148 85.9668 110.148 86.5063 110.199 87.0544C110.25 87.6025 110.336 88.2277 110.472 88.9299C110.609 89.6322 110.703 90.2488 110.78 90.7712C110.849 91.2936 110.968 91.9274 111.122 92.681C111.285 93.4346 111.473 94.3339 111.678 95.3958C111.892 96.4577 112.106 97.5454 112.32 98.6758C112.533 99.8063 112.704 100.637 112.824 101.177C112.944 101.716 113.072 102.264 113.218 102.829C113.363 103.395 113.517 103.917 113.679 104.405C113.842 104.893 114.141 105.476 114.586 106.161C115.03 106.837 115.663 107.445 116.501 107.968C117.339 108.49 118.391 108.696 119.674 108.584C119.913 108.567 120.204 108.49 120.546 108.362C120.897 108.233 121.23 108.122 121.555 108.019C121.88 107.916 122.145 107.822 122.351 107.737C122.556 107.642 122.821 107.54 123.146 107.411C123.471 107.291 123.787 107.197 124.086 107.146C124.394 107.094 124.694 107.009 124.993 106.889C125.292 106.769 125.6 106.64 125.925 106.52C126.25 106.401 126.515 106.281 126.72 106.161C126.926 106.049 127.114 105.887 127.285 105.681C127.456 105.476 127.661 105.253 127.909 105.013C128.148 104.773 128.414 104.525 128.704 104.26C128.995 103.994 129.294 103.634 129.611 103.172C129.927 102.709 130.372 102.281 130.928 101.87C131.484 101.459 132.219 101.219 133.125 101.142C134.408 101.031 135.477 101.365 136.332 102.153C137.187 102.941 137.675 103.951 137.777 105.184C137.863 106.135 137.658 106.992 137.179 107.745C136.7 108.507 136.084 109.304 135.349 110.135C134.605 110.965 133.929 111.667 133.314 112.25C132.698 112.832 132.151 113.26 131.672 113.543C131.193 113.826 130.782 114.074 130.449 114.297C130.107 114.519 129.696 114.708 129.209 114.87C128.721 115.033 128.2 115.196 127.635 115.367C127.08 115.538 126.661 115.658 126.378 115.727C126.096 115.804 125.72 115.941 125.232 116.146C124.754 116.352 124.283 116.532 123.847 116.66C123.402 116.797 123.009 116.9 122.658 116.977C122.308 117.054 121.932 117.123 121.53 117.183C121.128 117.243 120.717 117.277 120.281 117.294C119.854 117.303 119.375 117.328 118.853 117.345C118.331 117.363 117.904 117.38 117.57 117.388C117.237 117.388 116.86 117.465 116.441 117.594C113.021 116.746 110.224 114.905 108.035 112.087C105.855 109.261 104.572 106.195 104.187 102.881L101.861 90.2317C101.699 88.9042 101.57 87.6967 101.476 86.6005C101.399 85.7441 101.331 85.2474 101.271 85.1104C101.305 84.9648 101.339 84.5109 101.365 83.7401C101.331 82.7895 101.245 81.4193 101.117 79.6379C100.989 77.8566 100.895 76.5806 100.852 75.8184C100.809 75.0562 100.767 74.3282 100.732 73.6346C100.698 72.9409 100.767 72.2215 100.938 71.4593C101.109 70.7056 101.51 70.1319 102.152 69.7379C102.785 69.3525 103.674 69.1042 104.811 69.0014L104.828 69.0442ZM128.636 75.7156C127.695 75.3217 127.045 74.7308 126.686 73.9514L123.847 69.3183L123.018 68.813C122.547 68.3248 122.291 67.6312 122.265 66.7234C122.53 65.8841 123.069 65.2675 123.898 64.8564L125.318 64.7279C126.84 65.2161 127.952 66.1924 128.662 67.6654C130.047 69.3183 130.988 71.3394 131.484 73.7373C131.218 74.5766 130.68 75.1932 129.85 75.6043L128.644 75.707L128.636 75.7156ZM134.955 73.3691C133.972 73.0265 133.262 72.3414 132.843 71.3308C132.313 70.1319 131.612 69.01 130.757 67.9566C129.902 66.9118 129.311 65.6529 128.995 64.197C129.209 63.3149 129.722 62.6726 130.551 62.2701L131.971 62.1416C132.954 62.4842 133.681 63.1436 134.152 64.1028C134.87 65.2332 135.64 66.3294 136.443 67.3828C137.256 68.4362 137.726 69.7722 137.872 71.3822C137.615 72.2643 137.093 72.8895 136.315 73.2406L134.964 73.3605L134.955 73.3691Z" fill="#FF46DC"/>
<path d="M171.539 68.1366C172.103 68.0852 172.659 68.1366 173.198 68.2822C173.737 68.4278 174.241 68.6933 174.703 69.0872C175.165 69.4811 175.549 69.9265 175.857 70.4232C176.165 70.9199 176.345 71.4851 176.396 72.1017L176.336 74.6881L177.456 79.3298C177.901 78.9102 178.953 78.3621 180.612 77.6855C182.228 77.0175 183.879 76.4694 185.555 76.0326C185.555 75.9898 185.615 75.5959 185.743 74.8679C185.914 74.0886 186.17 73.3864 186.53 72.7526C186.88 72.1274 187.351 71.5793 187.924 71.1254C188.505 70.6715 189.266 70.3975 190.215 70.3119C190.788 70.2605 191.336 70.3119 191.874 70.4574C192.413 70.603 192.918 70.8771 193.379 71.2967C193.841 71.7078 194.217 72.1531 194.5 72.6327C194.782 73.1123 194.953 73.6861 195.004 74.3455L194.876 75.2876C195.492 75.2362 196.33 75.1505 197.399 75.0306C198.468 74.9107 199.545 74.8422 200.64 74.8165C201.734 74.7909 202.88 74.8679 204.069 75.0563C205.257 75.2362 206.609 75.6986 208.131 76.4266C209.653 77.1545 211.115 78.559 212.509 80.6401C213.912 82.7212 214.724 85.0677 214.955 87.6797C215.032 88.5361 215.066 89.3669 215.066 90.1804C215.066 90.994 215.023 91.8504 214.929 92.7411C214.835 93.6318 214.724 94.4967 214.579 95.3189C214.433 96.1496 214.245 96.8176 214.006 97.34C213.766 97.8624 213.552 98.2992 213.364 98.6503C213.176 99.0014 212.962 99.4296 212.723 99.9263C212.483 100.423 212.287 100.826 212.15 101.125C212.005 101.425 211.859 101.733 211.697 102.059C211.534 102.384 211.397 102.727 211.286 103.104C211.175 103.48 211.013 103.891 210.79 104.371C210.568 104.842 210.414 105.262 210.329 105.63C210.243 105.998 210.072 106.366 209.815 106.752C209.559 107.137 209.294 107.506 209.02 107.865C208.738 108.225 208.456 108.525 208.165 108.764C207.874 109.004 207.532 109.287 207.13 109.612C206.728 109.938 206.438 110.203 206.267 110.409C206.096 110.614 205.788 110.905 205.343 111.282C204.898 111.659 204.522 111.967 204.206 112.207C203.889 112.447 203.53 112.687 203.12 112.909C202.709 113.141 202.264 113.269 201.794 113.312C200.417 113.432 199.323 113.098 198.519 112.31C197.706 111.522 197.253 110.554 197.159 109.415C197.108 108.799 197.142 108.233 197.262 107.72C197.382 107.206 197.544 106.76 197.758 106.384C197.972 106.007 198.194 105.664 198.459 105.356C198.716 105.048 199.117 104.688 199.656 104.285C200.195 103.883 200.751 103.412 201.324 102.881C201.897 102.35 202.307 101.87 202.564 101.442C202.812 101.014 203.008 100.629 203.145 100.277C203.282 99.9349 203.427 99.5324 203.581 99.0871C203.735 98.6417 203.855 98.3077 203.958 98.0851C204.06 97.8624 204.171 97.5712 204.317 97.2287C204.454 96.8861 204.633 96.4493 204.847 95.9269C205.061 95.4045 205.24 94.9849 205.386 94.6594C205.523 94.334 205.642 94.0171 205.728 93.7003C205.813 93.3834 205.95 92.9552 206.121 92.4071C206.292 91.859 206.386 91.2338 206.42 90.5144C206.455 89.7951 206.438 89.05 206.369 88.2964C206.326 87.774 206.215 87.3201 206.036 86.9261C205.856 86.5322 205.668 86.1896 205.48 85.8984C205.283 85.6072 205.086 85.3675 204.881 85.1962C204.676 85.0249 204.445 84.8022 204.18 84.5367C203.385 84.2199 202.521 84.0143 201.58 83.903C200.64 83.7917 199.69 83.7574 198.741 83.7917C197.792 83.8259 196.595 83.9373 195.15 84.1085C193.704 84.2798 192.935 84.374 192.841 84.3826C192.396 85.3332 191.994 86.4636 191.635 87.7911C191.276 89.1185 190.814 90.7457 190.267 92.6811C189.719 94.6166 189.112 96.3123 188.454 97.7596C187.795 99.2069 187.051 100.423 186.23 101.399C186.282 101.494 186.547 101.759 187.017 102.196C187.487 102.633 188.069 103.189 188.779 103.874C189.48 104.551 190.053 105.185 190.489 105.767C190.925 106.349 191.173 107.069 191.25 107.925C191.353 109.116 190.994 110.16 190.164 111.068C189.335 111.976 188.351 112.481 187.214 112.584C186.359 112.661 185.572 112.498 184.845 112.113C184.118 111.719 183.46 111.257 182.861 110.708C182.262 110.16 181.63 109.45 180.954 108.576C180.278 107.702 179.971 107.309 180.022 107.403C179.475 107.694 178.902 108.011 178.312 108.379C177.722 108.747 177.055 109.133 176.302 109.561C175.549 109.989 174.788 110.332 174.027 110.589C173.258 110.845 172.428 111.017 171.53 111.094C168.443 111.368 166.057 110.64 164.356 108.927C162.654 107.206 161.662 104.756 161.38 101.579C161.226 99.7722 161.345 98.0765 161.756 96.4836C162.166 94.8907 162.816 93.4348 163.706 92.1159C164.595 90.7971 165.519 89.6152 166.476 88.5704C167.434 87.5256 168.529 86.4037 169.769 85.1962L167.614 75.339C167.451 74.5425 167.374 73.7375 167.4 72.9153C167.426 72.1017 167.579 71.3652 167.853 70.7229C168.127 70.0806 168.597 69.5068 169.247 69.0187C169.897 68.5305 170.675 68.2479 171.573 68.1708L171.539 68.1366ZM172.856 94.7194C173.027 94.471 172.779 94.7023 172.129 95.4302C171.479 96.1581 170.983 96.7748 170.641 97.28C170.299 97.7853 170.059 98.3334 169.923 98.9243C169.786 99.5067 169.786 100.106 169.94 100.714L170.196 101.982L171.009 102.196C171.24 102.084 171.564 101.922 172.009 101.716C172.445 101.511 172.813 101.322 173.104 101.151C173.403 100.98 173.848 100.689 174.463 100.277C175.071 99.8664 175.259 99.6694 175.019 99.6951L172.864 94.7108L172.856 94.7194ZM181.339 91.6792L183.229 86.1982C182.767 86.3866 182.288 86.6521 181.792 87.0032C181.296 87.3543 180.843 87.6455 180.432 87.8767C180.065 88.0566 179.859 88.1422 179.808 88.1508L181.339 91.6792Z" fill="#FF46DC"/>
<path d="M252.239 63.0147C253.659 62.8863 254.736 63.1946 255.472 63.914C256.207 64.6419 256.789 65.5497 257.216 66.6288C257.644 67.7164 257.96 68.727 258.166 69.669C258.362 70.6111 258.508 71.5188 258.585 72.3924L258.738 74.1737L258.85 75.4583C258.901 76.0064 258.952 76.5117 259.021 76.9913C259.089 77.4623 259.115 77.6507 259.106 77.5565L269.932 73.4458C270.394 73.3087 270.95 73.3002 271.574 73.4115C272.207 73.5228 272.763 73.7541 273.25 74.0881C273.729 74.4306 274.148 74.8931 274.482 75.484C274.815 76.0749 275.021 76.7087 275.072 77.3681C275.14 78.1731 274.944 78.8839 274.473 79.5005C274.003 80.1171 273.413 80.6224 272.703 81.0164C271.993 81.4103 271.164 81.8813 270.206 82.4209C269.248 82.9604 268.513 83.3115 268.008 83.4743C267.495 83.637 266.76 83.9453 265.793 84.3906C264.827 84.8359 264.092 85.1614 263.587 85.3755C263.083 85.5896 262.475 85.8122 261.783 86.0349C261.082 86.2661 260.577 86.4374 260.252 86.5659L261.133 96.68C261.176 96.68 261.526 96.6971 262.176 96.7314C262.826 96.7742 263.544 96.8256 264.34 96.9027C265.135 96.9798 265.793 97.0483 266.332 97.1253C266.862 97.2024 267.589 97.3309 268.513 97.5107C269.436 97.6906 270.505 98.0417 271.72 98.5555C272.934 99.0694 274.268 99.7459 275.73 100.577C277.184 101.407 278.424 102.307 279.442 103.266C280.459 104.234 281.015 105.304 281.118 106.494C281.22 107.685 280.878 108.79 280.066 109.672C279.262 110.554 278.313 111.042 277.218 111.145C276.603 111.196 275.961 111.085 275.294 110.811C274.627 110.537 273.875 110.143 273.045 109.646C272.216 109.141 271.463 108.661 270.805 108.19C270.146 107.719 269.385 107.274 268.539 106.846C267.692 106.417 266.606 106.092 265.297 105.869C263.989 105.647 262.706 105.518 261.466 105.484C261.466 105.535 261.389 106.195 261.21 107.479C261.03 108.764 260.851 109.817 260.663 110.648C260.474 111.479 260.192 112.361 259.816 113.303C259.44 114.245 258.85 115.204 258.02 116.189C257.191 117.174 255.891 117.885 254.086 118.33C252.282 118.775 250.059 119.109 247.399 119.349C245.458 119.52 243.132 118.407 240.438 116.009C237.744 113.611 236.282 111.085 236.051 108.421C235.743 104.859 237.3 102.058 240.729 100.011C244.158 97.9646 247.81 96.7228 251.692 96.2861L252.342 96.3032L251.128 82.4123C250.803 81.436 250.572 80.3398 250.443 79.1323C250.315 77.9248 250.161 76.5031 249.999 74.8674C249.828 73.2317 249.623 71.9214 249.366 70.9365C249.109 69.9516 248.733 69.0096 248.22 68.0932C248.1 67.2882 248.117 66.6202 248.263 66.0807C248.408 65.5411 248.673 65.0273 249.058 64.5391C249.443 64.051 249.913 63.6827 250.469 63.4429C251.025 63.2032 251.607 63.0576 252.222 63.0062L252.239 63.0147ZM245.295 108.267C245.458 108.49 245.629 108.678 245.809 108.832C245.988 108.987 246.322 109.243 246.809 109.603C247.297 109.963 247.613 110.194 247.767 110.271L249.862 110.451L251.743 109.783L252.616 105.039H252.47C250.82 105.295 249.34 105.638 248.041 106.083C246.698 106.537 245.697 107.171 245.056 107.993C245.099 107.993 245.184 108.079 245.295 108.259V108.267Z" fill="#FF46DC"/>
<path d="M364.064 117.944C362.187 117.515 360.389 116.749 358.692 115.645L358.239 115.138L356.509 112.974L356 107.746C356.339 106 357.041 104.49 358.115 103.217L359.201 102.191C360.049 101.166 361.169 100.343 362.526 99.7011C363.635 99.318 364.766 98.8898 365.919 98.4278C367.073 97.9658 368.419 97.8081 369.946 97.9771L370.206 98.0447L370.331 97.594V92.3658L369.686 83.8249L369.946 83.3178V77.7065L369.822 77.5826V71.5205L369.697 71.0135C369.867 69.9881 370.251 69.0191 370.851 68.0839C372.547 67.3289 374.391 66.9684 376.348 67.0022C378.395 67.2951 380.465 67.6782 382.557 68.1515C384.65 68.6247 386.629 69.4923 388.507 70.7656C389.66 72.2079 390.577 73.7853 391.255 75.4868C391.934 77.1882 392.149 79.1262 391.9 81.2896C391.73 82.653 391.221 83.8361 390.362 84.8615L389.151 86.0108C387.873 87.0362 386.335 87.4531 384.548 87.2841C383.734 87.1939 383.055 86.8559 382.501 86.2587C381.822 85.4925 381.517 84.5122 381.607 83.3291L382.501 81.6727L382.885 81.4812L382.501 81.1657C381.302 81.3347 380.137 81.2896 378.983 81.0417C377.829 80.7826 376.913 80.6361 376.235 80.591C376.314 81.9094 376.235 83.4192 375.975 85.1207C376.144 86.146 376.291 87.2052 376.427 88.3094C376.551 89.4137 376.619 90.563 376.619 91.7573V98.6419C376.45 100.005 376.325 101.324 376.235 102.597C376.834 104.174 377.049 106.056 376.879 108.276C376.37 109.47 375.85 110.552 375.341 111.532C374.832 112.512 374.187 113.549 373.418 114.653L372.389 115.16L371.496 116.051C370.466 116.986 369.324 117.56 368.046 117.774C366.768 117.989 365.444 118.045 364.076 117.966L364.064 117.944Z" fill="#FF46DC"/>
<path d="M321.148 77.18C322.618 77.0515 323.995 77.0858 325.278 77.2828C326.561 77.4797 327.835 77.8737 329.109 78.456C330.375 79.0384 331.538 79.7235 332.59 80.52C333.641 81.3164 334.539 82.3013 335.283 83.4746C336.036 84.6564 336.634 85.9153 337.088 87.2684C337.541 88.6216 337.823 89.9833 337.951 91.3535C338.037 92.3469 338.063 93.4174 338.011 94.5393C337.968 95.6698 337.874 96.8088 337.738 97.9735C337.601 99.1382 337.421 100.277 337.216 101.391C337.002 102.512 336.72 103.48 336.361 104.302C336.002 105.124 335.702 105.775 335.454 106.246C335.206 106.717 334.975 107.188 334.753 107.634C334.531 108.079 334.283 108.533 334.009 108.987C333.735 109.441 333.342 110.143 332.829 111.102C332.316 112.053 331.777 112.969 331.204 113.826C330.631 114.691 329.921 115.538 329.058 116.386C328.203 117.225 327.236 118.013 326.184 118.758C325.124 119.495 324.269 119.897 323.602 119.957C322.182 120.086 321.045 119.726 320.207 118.887C319.369 118.048 318.907 117.088 318.805 115.992C318.702 114.896 318.864 114.082 319.258 113.406C319.651 112.721 320.147 112.121 320.746 111.59C321.344 111.059 321.772 110.7 322.011 110.511C322.259 110.323 322.507 110.117 322.747 109.912C322.986 109.698 323.209 109.492 323.405 109.278C323.602 109.073 323.807 108.824 324.021 108.542C324.235 108.259 324.44 107.968 324.628 107.659C324.816 107.36 324.97 107.06 325.09 106.76C325.21 106.46 325.389 106.075 325.637 105.604C325.885 105.124 326.108 104.748 326.33 104.465C326.544 104.182 326.715 103.943 326.843 103.737C326.971 103.532 327.125 103.258 327.305 102.906C327.493 102.555 327.655 102.23 327.792 101.93C327.929 101.63 328.057 101.288 328.168 100.894C328.28 100.5 328.374 100.132 328.468 99.7891C328.553 99.4465 328.639 99.1297 328.707 98.8385C328.776 98.5473 328.835 98.1705 328.895 97.708C328.947 97.2456 328.998 96.8516 329.041 96.5091C329.083 96.1751 329.126 95.8411 329.169 95.5328C329.212 95.2244 329.254 94.8819 329.297 94.5136C329.34 94.1539 329.366 93.8028 329.383 93.4688C329.4 93.1348 329.4 92.8008 329.366 92.4668C329.331 92.0386 329.229 91.6104 329.075 91.1651C328.921 90.7198 328.707 90.2659 328.451 89.7863C328.194 89.3067 327.98 88.8871 327.801 88.5188C327.63 88.1505 327.527 87.8765 327.51 87.6795C327.407 87.6453 327.031 87.4312 326.381 87.0629C325.723 86.6861 325.192 86.4463 324.773 86.3435C324.354 86.2322 323.893 86.1294 323.388 86.0352C322.875 85.9325 322.311 85.9153 321.695 85.9667C321.267 86.001 320.814 86.0695 320.352 86.1551C319.882 86.2408 319.412 86.3692 318.95 86.5319C318.488 86.6947 318.018 86.8403 317.556 86.9773C317.094 87.1143 316.658 87.2342 316.265 87.3455C315.863 87.4483 315.341 87.5596 314.683 87.6624C314.024 87.7652 313.494 87.8765 313.101 87.9793C312.707 88.082 312.348 88.2105 312.023 88.3561C311.698 88.5017 311.399 88.6901 311.1 88.9042C310.809 89.1183 310.433 89.4694 309.971 89.9319C309.509 90.4029 309.081 90.7968 308.68 91.1223C308.278 91.4477 307.859 91.7303 307.431 91.9872C306.995 92.2356 306.499 92.3898 305.926 92.4411C304.506 92.5696 303.36 92.2356 302.505 91.4477C301.65 90.6598 301.171 89.7006 301.069 88.5616C300.966 87.4226 301.197 86.4292 301.744 85.5985C302.292 84.7592 303.147 83.9199 304.318 83.0721C305.49 82.2242 306.456 81.5648 307.226 81.0938C307.995 80.6227 308.671 80.2459 309.244 79.9804C309.817 79.715 310.321 79.518 310.766 79.381C311.211 79.2439 311.732 79.1155 312.348 78.9956C312.964 78.8757 313.485 78.7729 313.939 78.713C314.383 78.653 314.76 78.5674 315.067 78.4732C315.367 78.379 315.803 78.2419 316.359 78.0707C316.915 77.8994 317.428 77.7709 317.898 77.6853C318.368 77.5996 318.881 77.5054 319.454 77.4027C320.019 77.3085 320.583 77.2314 321.156 77.18H321.148ZM315.717 59.2811C316.282 59.2298 316.803 59.2726 317.265 59.3925C317.727 59.5209 318.129 59.7008 318.462 59.932C318.796 60.1632 319.053 60.4459 319.249 60.7627C319.446 61.0796 319.66 61.3708 319.899 61.6363C320.139 61.9017 320.421 62.1929 320.763 62.4927C321.096 62.801 321.387 63.0836 321.627 63.3491C321.866 63.6146 322.105 63.8715 322.336 64.1113C322.576 64.3511 322.918 64.7536 323.371 65.3102C323.824 65.8669 324.269 66.5263 324.688 67.28C325.116 68.0336 325.355 68.7615 325.415 69.4809C325.517 70.6199 325.201 71.6905 324.474 72.6839C323.747 73.6773 322.772 74.234 321.541 74.3367C320.78 74.4053 320.096 74.311 319.472 74.0541C318.847 73.7972 318.326 73.429 317.907 72.9322C317.479 72.4441 317.051 71.8617 316.607 71.1766C316.162 70.5 315.811 70.0376 315.555 69.7978C315.29 69.558 314.905 69.1812 314.383 68.6759C313.862 68.1706 313.443 67.7167 313.118 67.3142C312.793 66.9117 312.493 66.4236 312.203 65.8498C311.912 65.276 311.741 64.6594 311.681 63.9914C311.57 62.7068 311.912 61.6277 312.724 60.7456C313.528 59.8635 314.529 59.3668 315.709 59.264L315.717 59.2811Z" fill="#FF46DC"/>
</svg>
