<svg width="591" height="98" viewBox="0 0 591 98" fill="none" xmlns="http://www.w3.org/2000/svg">
<path d="M40.5652 36.71L40.3202 36.325C41.7202 34.89 43.6452 32.055 45.2202 29.08C46.9352 25.825 47.9852 23.27 48.8602 20.225H43.8902C42.8402 20.225 42.2802 20.26 41.2652 20.435L41.0202 19.21C41.8952 19.42 42.7702 19.49 43.8902 19.49H50.2252V14.52C50.2252 13.085 50.1902 12.315 49.9802 10.88C54.3202 11.265 54.6002 11.3 55.0902 11.475C55.3702 11.615 55.5102 11.755 55.5102 11.93C55.5102 12.245 55.0552 12.525 54.0052 12.84V19.49H58.4152C59.5002 18.125 59.8502 17.705 60.9702 16.375C62.7202 17.705 63.2452 18.16 64.9602 19.63C65.0652 19.77 65.1702 19.945 65.1702 20.015C65.1702 20.155 64.9952 20.225 64.7502 20.225H54.2852C55.1252 22.605 55.7902 23.9 57.3302 25.895C59.8152 29.15 62.1252 30.9 65.8352 32.405L65.7302 32.755C64.4002 33.455 63.7702 34.225 62.9302 36.185C62.7552 36.57 62.6852 36.675 62.5102 36.675C62.3002 36.675 61.9502 36.43 61.3902 35.87C59.3252 33.805 57.3652 30.935 56.2102 28.17C55.4402 26.28 55.0552 25.23 53.9352 21.52L54.0402 30.165C54.1102 37.83 54.1102 37.83 54.1802 41.61C54.1802 42.1 54.1102 42.31 53.9002 42.45C53.6202 42.66 52.4652 42.835 51.2052 42.835C50.3302 42.835 50.0852 42.66 50.0852 41.925V41.89L50.3302 30.655L50.4702 25.3C48.8252 28.52 47.4952 30.48 45.4652 32.65C43.9252 34.26 42.6302 35.31 40.5652 36.71ZM40.0752 30.235L40.1102 41.715C40.0752 42.555 39.5152 42.765 37.4852 42.765C36.4352 42.765 36.1552 42.59 36.1552 41.96C36.3652 36.675 36.4352 33.245 36.4352 29.815V24.355C34.8602 26.385 34.0202 27.295 32.3402 28.87L31.9902 28.555C35.4202 22.955 38.1502 15.675 38.8152 10.53C43.8902 11.72 44.3802 11.895 44.3802 12.385C44.3802 12.77 43.9252 12.945 42.8402 13.085C41.0202 17.25 40.0052 19.245 38.5002 21.485C39.0252 21.555 39.0252 21.555 39.2352 21.59C40.8102 21.765 41.2302 21.905 41.2302 22.255C41.2302 22.535 40.9152 22.745 40.0752 23.06V30.235ZM76.8952 38.915V41.05C76.8602 41.855 76.4052 41.995 73.9902 41.995C72.7302 41.995 72.5552 41.89 72.5552 41.155C72.7652 34.925 72.8002 31.145 72.8002 23.165C72.8002 15.99 72.7652 14.275 72.5902 11.3C74.6902 12.21 75.3202 12.525 77.2802 13.645H90.6152C91.5602 12.63 91.8752 12.315 92.8202 11.3C94.2202 12.315 94.6402 12.63 95.9002 13.645C96.2502 13.925 96.3902 14.1 96.3902 14.31C96.3902 14.625 96.1102 14.87 95.0602 15.43L95.0252 21.03C95.0252 31.495 95.0602 33.77 95.2702 40.665C95.2702 41.085 95.2002 41.26 95.0252 41.4C94.7102 41.645 93.6602 41.785 92.4002 41.785C91.2102 41.785 90.9302 41.68 90.9302 41.12C90.9302 41.085 90.9302 41.05 90.9302 41.015V38.915H76.8952ZM90.9302 25.37V14.38H76.8952V25.37H90.9302ZM90.9302 26.105H76.8952V38.18H90.9302V26.105ZM109.095 30.445L108.115 33.105C107.59 34.435 107.345 35.52 107.345 36.325C107.345 37.69 108.325 38.32 110.635 38.39V39.3H101.64V38.39C103.915 38.355 105.175 36.99 106.75 32.86L114.205 13.12L116.795 12.84L124.425 34.295C125.23 36.465 125.895 37.585 126.7 38.005C127.085 38.18 127.4 38.25 128.555 38.39V39.3H117.145V38.39C119.35 38.32 120.155 37.865 120.155 36.71C120.155 36.675 120.155 36.64 120.155 36.605C120.12 36.045 119.945 35.17 119.63 34.295L118.3 30.445H109.095ZM117.845 29.08L113.855 17.705L109.585 29.08H117.845ZM130.099 39.3V38.39C133.144 38.285 133.424 37.97 133.424 34.75V17.67C133.424 14.485 133.144 14.135 130.239 14.03V13.12H141.159V14.03C138.254 14.135 137.974 14.485 137.974 17.67V34.75C137.974 37.97 138.289 38.285 141.299 38.39V39.3H130.099ZM149.198 16.865C149.723 17.67 150.143 18.125 150.808 18.615C151.438 19.035 152.033 19.21 153.048 19.21C154.623 19.21 160.293 18.615 163.933 18.055C164.913 17.88 165.333 17.74 166.173 17.285C166.453 17.11 166.733 17.04 167.013 17.04C167.678 17.04 168.973 17.845 170.233 19.07C171.143 19.945 171.493 20.47 171.493 21.03C171.493 21.415 171.388 21.59 170.933 22.08C170.618 22.395 170.373 23.025 170.058 24.32C169.743 25.615 169.673 25.86 168.728 29.815C168.483 30.865 168.308 31.635 168.168 32.23C169.463 33.14 170.128 34.015 170.128 34.785C170.128 35.415 169.743 35.765 169.008 35.765C168.728 35.765 168.518 35.73 167.363 35.59C166.523 35.485 165.543 35.45 164.388 35.45C160.013 35.45 155.463 36.255 152.908 37.445C152.733 37.515 152.313 37.62 152.068 37.62C150.493 37.62 148.043 34.575 148.043 32.58C148.043 32.37 148.078 32.16 148.148 31.775C149.233 33.385 150.388 34.12 151.858 34.12C152.243 34.12 153.048 34.05 153.713 33.98C155.288 33.77 155.288 33.77 158.088 33.455C159.803 33.28 162.043 33.035 164.773 32.79C165.368 29.675 166.208 22.57 166.208 20.715C166.208 20.225 165.998 20.085 165.438 20.085C164.248 20.085 160.748 20.505 158.998 20.89C157.353 21.205 155.148 21.835 154.203 22.185C153.363 22.535 153.258 22.57 152.873 22.57C151.998 22.57 150.913 21.73 150.003 20.295C149.338 19.28 149.023 18.475 149.023 17.67C149.023 17.425 149.058 17.25 149.198 16.865ZM182.973 16.2L183.148 15.815C187.068 16.445 189.168 17.04 190.813 18.09C191.968 18.79 192.528 19.77 192.528 21.1C192.528 22.745 191.723 24.005 190.638 24.005C190.043 24.005 189.693 23.725 189.168 22.815C187.488 19.77 185.703 17.88 182.973 16.2ZM209.328 17.635L209.748 17.845C207.823 21.87 205.408 25.195 201.873 28.695C198.758 31.775 196.168 33.805 191.723 36.675C190.813 37.27 190.183 37.76 189.833 38.215C189.343 38.81 188.888 39.09 188.363 39.09C187.453 39.09 186.158 38.11 184.933 36.535C183.813 35.1 183.253 33.77 183.253 32.65C183.253 32.335 183.288 32.16 183.428 31.705C184.373 33.315 185.528 34.295 186.473 34.295C187.943 34.295 192.528 31.88 196.693 28.905C201.908 25.16 206.353 21.24 209.328 17.635ZM220.738 14.94L220.913 14.59C224.343 14.975 226.758 15.64 228.193 16.655C229.138 17.285 229.523 18.02 229.523 19.105C229.523 20.47 228.753 21.555 227.808 21.555C227.213 21.555 227.038 21.38 226.303 20.225C224.938 18.055 222.943 16.165 220.738 14.94ZM216.783 21.625L216.923 21.31C219.863 21.555 222.593 22.255 223.958 23.095C225.008 23.76 225.463 24.53 225.463 25.65C225.463 27.05 224.728 28.1 223.783 28.1C223.188 28.1 222.943 27.925 222.348 26.98C221.788 26.105 220.598 24.67 219.758 23.865C218.918 23.025 218.148 22.465 216.783 21.625ZM244.958 19.77L245.308 20.05C241.458 26.595 235.298 32.475 227.003 37.445C224.938 38.705 224.728 38.81 224.063 39.51C223.783 39.79 223.398 39.965 223.048 39.965C221.298 39.965 218.288 36.01 218.288 33.7C218.288 33.385 218.358 33.105 218.533 32.65C219.338 34.26 220.528 35.24 221.648 35.24C222.768 35.24 225.603 34.015 229.243 31.915C234.843 28.66 240.513 24.32 244.958 19.77ZM254.756 23.795L255.071 23.55C256.156 24.6 256.996 24.985 258.326 24.985C260.216 24.985 262.736 24.565 265.116 23.9C266.446 23.515 266.971 23.305 267.916 22.71C268.126 22.57 268.336 22.5 268.546 22.5C269.736 22.5 271.276 23.585 271.276 24.39C271.276 25.16 270.681 25.475 268.616 25.895C267.251 26.175 264.871 26.49 263.051 26.665C264.696 27.33 265.536 28.065 265.536 28.8C265.536 29.08 265.536 29.08 265.326 29.71C265.081 30.34 264.661 33.14 264.451 35.52C265.921 35.415 266.586 35.38 268.896 35.275C270.646 35.17 270.891 35.135 271.731 34.89C272.151 34.75 272.291 34.715 272.571 34.715C273.026 34.715 273.831 35.17 274.601 35.8C275.231 36.36 275.581 36.92 275.581 37.445C275.581 38.11 275.196 38.53 274.531 38.53C274.251 38.53 274.076 38.495 272.956 38.215C271.101 37.795 268.931 37.585 265.886 37.585C262.561 37.585 258.256 38.425 255.771 39.58C255.386 39.72 255.036 39.825 254.756 39.825C254.126 39.825 253.531 39.51 252.831 38.775C251.851 37.76 251.256 36.64 251.256 35.87C251.256 35.59 251.291 35.31 251.396 35.03C252.061 36.15 253.111 36.815 254.196 36.815C254.686 36.815 255.001 36.78 257.766 36.36C258.676 36.22 259.481 36.08 261.651 35.8C261.756 33.805 261.791 32.93 261.791 31.635C261.791 28.31 261.686 27.61 260.951 26.84C258.641 26.84 257.976 26.735 257.066 26.245C256.156 25.755 255.386 24.95 254.756 23.795ZM283.246 40.21L282.966 39.895C284.436 38.355 285.206 37.305 286.221 35.45C287.971 32.23 288.986 29.36 289.686 25.51C289.931 24.25 290.106 22.71 290.106 21.94C290.106 20.435 289.336 19.525 287.516 18.895C287.936 18.615 288.216 18.545 288.846 18.545C289.721 18.545 291.366 19.14 292.766 19.98C293.956 20.715 294.586 21.415 294.586 22.045C294.586 22.43 294.481 22.71 294.166 23.375C293.956 23.76 293.956 23.795 292.801 27.82C291.716 31.495 289.861 34.715 287.481 37.025C286.116 38.32 285.031 39.16 283.246 40.21ZM314.816 24.04L315.131 24.285C313.661 27.12 312.716 28.45 311.001 30.41C309.146 32.475 305.891 35.275 303.371 36.99C302.391 37.655 302.216 37.795 301.551 38.46C301.201 38.81 300.886 38.985 300.536 38.985C299.381 38.985 297.491 36.535 297.491 35.03C297.491 34.785 297.491 34.785 297.666 34.295C298.016 33.315 298.086 32.055 298.086 24.355C298.086 21.065 297.946 17.705 297.806 16.69C297.561 15.325 296.721 14.555 295.111 14.135C295.531 13.715 295.811 13.61 296.371 13.61C297.456 13.61 299.136 14.1 300.606 14.87C301.936 15.535 302.566 16.2 302.566 16.9C302.566 17.285 302.496 17.495 302.111 18.265C301.936 18.685 301.796 19.49 301.656 21.03C301.411 23.515 301.026 30.935 301.026 32.895C301.026 33.035 301.026 33.385 301.061 33.735C305.681 31.95 311.351 27.96 314.816 24.04ZM323.811 15.64L323.986 15.325C327.451 15.71 329.831 16.375 331.266 17.355C332.211 18.02 332.596 18.72 332.596 19.805C332.596 21.17 331.826 22.255 330.881 22.255C330.286 22.255 330.111 22.08 329.376 20.925C328.011 18.755 326.016 16.865 323.811 15.64ZM319.856 22.325L319.996 22.01C322.936 22.29 325.666 22.99 327.031 23.83C328.081 24.495 328.536 25.23 328.536 26.385C328.536 27.785 327.801 28.835 326.821 28.835C326.261 28.835 326.016 28.625 325.421 27.715C324.896 26.84 323.671 25.37 322.831 24.565C321.991 23.76 321.221 23.2 319.856 22.325ZM348.031 20.505L348.346 20.75C344.846 26.84 338.476 32.895 330.006 38.145C328.256 39.23 327.766 39.58 327.136 40.21C326.856 40.49 326.471 40.665 326.121 40.665C324.371 40.665 321.361 36.745 321.361 34.47C321.361 34.12 321.431 33.875 321.606 33.42C322.376 34.925 323.636 35.975 324.686 35.975C325.806 35.975 328.431 34.785 332.246 32.545C338.231 29.01 343.656 24.88 348.031 20.505ZM338.721 13.645L338.896 13.365C343.061 14.87 344.741 16.095 344.741 17.705C344.741 18.65 344.181 19.455 343.481 19.455C343.096 19.455 342.816 19.21 342.536 18.615C341.381 16.34 340.541 15.22 338.721 13.645ZM342.011 11.37L342.151 11.125C346.246 12 348.136 13.26 348.136 15.115C348.136 15.92 347.576 16.69 347.016 16.69C346.666 16.69 346.456 16.48 346.106 15.885C345.126 14.03 343.901 12.7 342.011 11.37ZM359.545 22.99C360.21 24.285 360.98 24.845 362.135 24.845C363.29 24.845 365.845 24.53 367.595 24.18C368.575 24.005 368.75 23.935 369.275 23.515C369.625 23.27 369.835 23.165 370.15 23.165C370.675 23.165 371.795 23.795 372.67 24.635C373.3 25.23 373.58 25.65 373.58 26.105C373.58 26.455 373.545 26.525 373.02 27.12C372.775 27.435 372.6 27.96 372.145 29.675C371.025 33.77 371.025 33.77 370.605 35.345C374.63 35.065 374.63 35.065 375.505 34.75C375.75 34.645 375.925 34.61 376.1 34.61C376.52 34.61 377.15 34.89 377.815 35.345C378.83 36.01 379.32 36.64 379.32 37.305C379.32 37.935 378.865 38.39 378.2 38.39C377.99 38.39 377.71 38.355 377.08 38.18C375.19 37.725 373.685 37.55 371.375 37.55C368.505 37.55 365.565 37.9 362.73 38.565C361.155 38.95 360.875 39.055 359.545 39.65C359.125 39.86 358.88 39.93 358.53 39.93C357.76 39.93 356.85 39.335 356.115 38.39C355.415 37.445 354.82 36.185 354.82 35.59C354.82 35.415 354.855 35.205 354.995 34.785C355.66 36.01 356.78 36.745 358.075 36.745C358.6 36.745 359.65 36.64 361.155 36.43C364.165 35.975 364.165 35.975 365.81 35.765C367 35.625 367 35.625 367.665 35.52C368.225 32.79 369.065 27.19 369.065 26.105C369.065 25.86 368.995 25.755 368.89 25.755C368.75 25.755 367.595 26 366.825 26.175C365.355 26.525 363.85 27.05 362.975 27.54C362.73 27.645 362.52 27.715 362.24 27.715C361.61 27.715 361.05 27.33 360.42 26.56C359.755 25.72 359.3 24.6 359.3 23.865C359.3 23.62 359.37 23.445 359.545 22.99ZM386.39 24.565C387.16 25.79 388.07 26.455 388.945 26.455C389.645 26.455 390.24 26.035 392.06 24.215C395.42 20.82 396.12 20.19 397.17 19.665C397.87 19.28 398.465 19.14 399.235 19.14C400.67 19.14 401.72 19.805 405.465 23.095C409.105 26.28 411.135 27.75 413.655 29.115C414.6 29.64 414.74 29.675 416 30.095C417.33 30.55 418.485 32.51 418.485 34.4C418.485 35.485 417.96 36.185 417.19 36.185C416.315 36.185 414.635 35.345 412.745 33.945C410.155 32.02 407.425 29.325 403.995 25.265C400.775 21.485 400.005 20.785 398.955 20.785C398.08 20.785 397.135 21.625 395.91 23.41C394.93 24.845 393.81 27.12 393.215 28.835C392.935 29.605 392.83 29.885 392.55 30.095C392.27 30.375 391.85 30.55 391.43 30.55C390.415 30.55 388.945 29.71 387.79 28.485C386.845 27.47 386.25 26.245 386.25 25.335C386.25 25.265 386.25 25.265 386.39 24.565ZM431.435 12.49C432.135 11.93 432.59 11.755 433.5 11.755C434.725 11.755 436.335 12.035 437.49 12.42C438.96 12.91 439.59 13.54 439.59 14.415C439.59 14.87 439.555 14.94 439.03 16.165C438.575 17.18 438.26 19.07 438.26 20.785C438.61 21.03 438.75 21.1 439.1 21.1C440.395 21.1 442.565 20.12 444.21 18.79C444.56 18.51 444.84 18.405 445.225 18.405C445.925 18.405 446.905 18.755 447.605 19.245C448.025 19.525 448.235 19.875 448.235 20.33C448.235 20.995 447.71 21.45 446.24 22.045C444.665 22.64 442.81 23.06 441.55 23.06C440.22 23.06 439.31 22.71 438.19 21.8C438.19 22.325 438.19 22.78 438.19 22.99C438.19 26.035 438.4 29.71 438.68 31.95C442.18 32.475 445.61 33.735 447.255 35.1C448.305 35.94 448.795 36.99 448.795 38.32C448.795 39.44 448.235 40.245 447.43 40.245C446.94 40.245 446.625 40.07 445.855 39.37C443.3 37.06 441.69 36.08 438.995 35.135C439.03 35.765 439.03 36.185 439.03 36.43C439.03 38.11 438.68 39.3 437.91 40.07C436.895 41.085 434.795 41.715 432.31 41.715C428.11 41.715 425.45 39.965 425.45 37.2C425.45 33.945 429.265 31.67 434.655 31.67C434.83 31.67 435.075 31.67 435.425 31.67C435.32 24.985 435.145 19.035 434.935 16.095C434.83 14.52 434.55 13.855 433.78 13.295C433.185 12.84 432.59 12.665 431.435 12.49ZM435.32 34.47C434.305 34.295 433.675 34.26 432.835 34.26C429.09 34.26 426.675 35.38 426.675 37.13C426.675 38.46 428.11 39.265 430.455 39.265C432.45 39.265 434.13 38.705 434.76 37.795C435.11 37.34 435.25 36.815 435.285 35.8C435.32 35.59 435.32 34.855 435.32 34.575C435.32 34.505 435.32 34.47 435.32 34.47ZM466.05 10.53L466.33 10.32C467.345 11.16 468.325 11.65 469.9 12.035C470.81 12.245 471.86 12.385 472.805 12.385C473.365 12.385 473.54 12.385 474.73 12.21C474.87 12.175 475.01 12.175 475.15 12.175C476.515 12.175 478.405 13.855 478.405 15.08C478.405 15.57 478.09 16.025 477.635 16.235C477.25 16.375 477.11 16.41 475.465 16.41C473.4 16.41 471.125 16.83 466.295 18.125L466.12 17.74C466.785 17.425 466.785 17.425 467.835 16.9C468.99 16.305 468.99 16.305 470.565 15.465C471.055 15.22 471.055 15.22 471.65 14.94C468.885 14.065 467.485 12.98 466.05 10.53ZM468.5 43.115L468.29 42.8C471.615 40.49 473.4 38.495 474.835 35.52C476.06 32.965 476.725 30.06 476.725 27.085C476.725 23.445 475.605 21.38 473.575 21.38C472.525 21.38 471.335 21.905 469.935 22.99C469.025 23.725 468.465 24.285 467.205 25.825C466.435 26.735 466.05 26.98 465.315 26.98C463.495 26.98 461.325 24.425 461.325 22.29C461.325 21.695 461.465 21.345 461.92 20.75C462.34 22.255 463.215 23.13 464.335 23.13C464.895 23.13 465.665 22.815 468.395 21.485C471.055 20.19 472.525 19.735 474.17 19.735C475.36 19.735 476.445 20.015 477.46 20.61C479.665 21.905 480.89 24.495 480.89 27.855C480.89 32.16 478.965 36.36 475.675 39.23C473.785 40.875 471.72 41.995 468.5 43.115ZM498.425 14.59L498.705 14.38C500.245 15.465 501.575 15.85 504.095 15.85C505.425 15.85 507.35 15.675 508.925 15.36C509.8 15.22 509.975 15.15 511.41 14.625C511.585 14.555 512.005 14.485 512.18 14.485C513.72 14.485 515.54 16.06 515.54 17.355C515.54 17.88 515.225 18.265 514.63 18.51C514.14 18.685 514.14 18.685 512.495 18.93C509.66 19.385 507.105 20.19 501.96 22.185L501.75 21.8C502.695 21.135 504.725 19.84 507 18.44C506.51 18.44 506.23 18.44 505.95 18.44C504.27 18.44 502.625 18.09 501.435 17.495C500.105 16.83 499.335 16.06 498.425 14.59ZM497.48 27.61L497.935 27.75C497.83 28.59 497.795 29.01 497.795 29.465C497.795 33.91 500.315 35.765 506.3 35.765C509.275 35.765 511.165 35.45 513.405 34.61C514 34.365 514.28 34.295 514.665 34.295C516.38 34.295 518.235 35.73 518.235 37.025C518.235 37.69 517.78 38.25 517.01 38.565C515.505 39.16 512.355 39.51 508.61 39.51C504.48 39.51 501.575 38.915 499.72 37.725C497.69 36.43 496.57 34.33 496.57 31.845C496.57 30.515 496.85 29.22 497.48 27.61ZM533.39 12.7C534.23 14.24 535 14.87 536.19 14.87C537.17 14.87 539.375 14.38 542.105 13.54C544.135 12.91 544.135 12.91 544.975 12.21C545.185 12 545.605 11.86 545.885 11.86C547.355 11.86 550.015 14.59 550.015 16.095C550.015 16.585 549.805 16.76 548.79 17.18C548.09 17.46 547.32 17.985 544.975 19.735C543.645 20.75 538.78 24.04 532.76 28.03C536.33 26.77 538.29 26.14 540.74 25.37C541.825 25.055 541.825 25.055 546.025 23.865C546.83 23.655 546.83 23.655 548.475 23.165C549.595 22.85 549.875 22.78 550.295 22.57C551.345 22.15 551.345 22.15 551.73 22.15C552.255 22.15 553.13 22.465 553.865 22.885C554.845 23.445 555.3 24.075 555.3 24.775C555.3 25.23 555.02 25.685 554.67 25.86C554.25 26.07 554.25 26.07 551.52 26.21C549.49 26.315 546.76 26.98 544.905 27.785C542.245 28.975 540.53 31.215 540.53 33.56C540.53 35.975 542.56 37.515 545.745 37.515C546.235 37.515 546.865 37.48 547.39 37.375C547.635 37.34 547.81 37.34 547.95 37.34C549.21 37.34 550.89 39.055 550.89 40.35C550.89 41.365 549.945 41.855 548.02 41.855C542.28 41.855 538.395 38.985 538.395 34.785C538.395 33.175 539.095 31.46 540.32 29.955C541.3 28.765 542.21 28.03 544.1 26.875C539.725 28.17 534.72 30.27 532.515 31.775C531.885 32.195 531.675 32.3 531.325 32.3C530.135 32.3 528.63 30.69 528.63 29.395C528.63 28.87 528.875 28.625 529.645 28.38C530.695 28.03 531.5 27.61 532.795 26.665C535.84 24.46 541.58 19.175 544.485 15.92C545.255 15.045 545.465 14.73 545.465 14.45C545.465 14.24 545.325 14.135 545.115 14.135C544.73 14.135 543.54 14.59 541.615 15.465C539.97 16.235 539.9 16.305 537.765 17.635C537.205 17.985 536.96 18.09 536.54 18.09C535.07 18.09 533.145 15.605 533.145 13.68C533.145 13.295 533.18 13.085 533.39 12.7Z" fill="black"/>
<path d="M7.82885 56.475L7.96885 56.125C13.1138 57.245 15.5988 57.945 18.7138 59.065C21.3038 57.525 22.7738 56.37 23.9988 55.005C28.0938 57 28.7238 57.35 28.7238 57.665C28.7238 57.945 28.3738 58.12 27.8138 58.12C27.8138 58.12 27.7438 58.12 27.6738 58.12C27.6388 58.12 27.5338 58.12 27.4288 58.12C27.3238 58.12 27.0088 58.12 26.6938 58.155C24.7338 59.275 23.9638 59.695 22.3188 60.535C23.6138 61.06 24.6638 61.62 25.4338 62.145C26.3788 62.775 26.9038 63.825 26.9038 65.085C26.9038 66.065 26.5188 66.73 25.9588 66.73C25.5738 66.73 25.5038 66.695 24.0688 65.575C21.8638 63.86 20.8488 63.125 19.0288 62.005C17.2088 62.74 15.7388 63.195 13.4988 63.79C14.5138 63.965 14.5138 63.965 16.5788 64.455C18.0488 64.805 18.5738 65.015 18.5738 65.295C18.5738 65.4 18.5038 65.54 18.3988 65.61C18.1888 65.715 17.6638 65.89 16.7888 66.065C16.2288 67.045 16.0538 67.29 15.7738 67.745H27.6038C28.7588 66.45 29.1438 66.065 30.3688 64.735C32.1538 66.1 32.6788 66.52 34.3938 67.955C34.4638 68.095 34.5338 68.2 34.5338 68.235C34.5338 68.375 34.3938 68.48 34.2538 68.48H15.3188C13.9188 70.65 12.6588 72.26 11.5388 73.31C11.8188 73.485 11.8538 73.52 12.2038 73.73H16.9988C16.9638 73.275 16.9638 72.925 16.9638 72.645C16.9638 72.505 16.9638 72.295 16.9638 72.05C16.9988 71.595 16.9988 71.245 16.9988 71.105C16.9988 70.615 16.9988 70.37 16.9288 69.775C17.9788 69.88 18.8188 69.915 19.3438 69.985C21.4088 70.125 22.1088 70.3 22.1088 70.65C22.1088 70.93 21.7238 71.175 20.7788 71.49C20.7788 72.365 20.7788 72.4 20.7788 73.73H26.0288C26.8688 72.82 27.1138 72.54 28.0238 71.665C29.3188 72.61 29.7038 72.89 30.8938 73.8C31.1738 74.01 31.2438 74.15 31.2438 74.29C31.2438 74.605 30.9988 74.815 30.0538 75.34V80.38L30.0888 81.815V82.27C30.0888 82.585 30.0888 82.585 30.0888 82.9C29.9838 84.65 29.4588 85.245 27.6038 85.77C27.0088 85.91 25.9238 86.085 25.4688 86.085C25.1538 86.085 25.1188 86.015 25.0488 85.56C24.9088 83.915 23.9288 83.005 21.7938 82.515V82.13C25.0838 82.34 25.0838 82.34 25.9238 82.375C26.3088 82.375 26.3788 82.27 26.3788 81.85V74.465H20.7788C20.7788 74.85 20.7788 75.27 20.7788 75.655V79.12C20.7788 81.955 20.8138 83.705 20.9188 87.1C20.8838 87.485 20.7438 87.66 20.3938 87.765C19.9388 87.905 18.9938 87.975 18.0838 87.975C17.1388 87.975 16.9988 87.905 16.9638 87.45C16.9988 83.005 17.0338 82.585 17.0338 81.675L16.9988 77.965V74.465H12.0988V80.765L12.1338 83.705V84.3C12.1338 84.65 12.1338 84.685 12.1338 85.07C12.0638 85.805 11.7138 85.945 9.71885 85.945C8.56385 85.945 8.31885 85.84 8.28385 85.315C8.31885 83.915 8.31885 83.915 8.31885 83.005C8.35385 81.185 8.38885 80.1 8.38885 79.82V76.04C6.77885 77.335 4.99385 78.385 1.87885 79.785L1.66885 79.505C6.39385 75.62 8.77385 72.89 11.2938 68.48H5.30885C4.43385 68.48 3.66385 68.515 2.40385 68.655L2.12385 67.43C3.34885 67.64 4.36385 67.745 5.30885 67.745H11.6788C12.7638 65.715 13.0438 65.05 13.3238 63.825C10.1388 64.665 8.56385 64.945 4.50385 65.505L4.36385 65.12C9.15885 63.685 12.5888 62.355 16.3338 60.395C14.1288 59.17 12.2388 58.295 7.82885 56.475ZM41.9538 75.2H61.3438C62.2888 74.15 62.3938 74.08 63.5488 72.925C62.7788 73.205 61.6938 73.38 60.9588 73.38C60.5038 73.38 60.5038 73.38 60.3988 72.645C60.2938 71.945 59.9088 71.315 59.3488 70.93C58.8588 70.615 58.4388 70.44 57.1788 70.09L57.2138 69.67C58.8588 69.81 60.5738 69.915 61.3438 69.915C62.0438 69.915 62.2888 69.74 62.5338 69.005C62.6388 68.585 62.8838 67.465 63.0588 66.555H57.0038C55.8488 70.125 53.9588 72.12 49.5138 74.43L49.2688 74.115C51.4038 72.015 52.5588 70.055 53.2938 67.22C53.9938 64.56 54.5188 60.22 54.5188 57.245C54.5188 56.72 54.4838 56.475 54.4488 55.635C56.4088 56.44 57.0038 56.72 58.8238 57.7H63.6188C64.4588 56.755 64.7038 56.475 65.5438 55.635C66.8038 56.51 67.1888 56.79 68.3438 57.7C68.6938 57.98 68.8338 58.155 68.8338 58.295C68.8338 58.61 68.5538 58.82 67.5738 59.31C67.1538 64.035 66.5239 68.235 66.0338 69.845C65.5438 71.42 65.0188 72.155 63.8638 72.785C65.4388 73.975 65.7538 74.255 67.1888 75.48C67.2938 75.585 67.3638 75.69 67.3638 75.76C67.3638 75.865 67.2238 75.935 66.9788 75.935H54.6238V80.1H59.4888C60.4688 78.945 60.7838 78.56 61.8338 77.405C63.4088 78.595 63.8638 79.015 65.4388 80.31C65.5788 80.485 65.6488 80.555 65.6488 80.625C65.6488 80.765 65.5088 80.835 65.2988 80.835H54.6238V85.665H62.0788C63.2688 84.405 63.6188 84.02 64.7388 82.76C66.5239 84.09 67.0488 84.51 68.7638 85.84C68.9038 86.015 68.9738 86.085 68.9738 86.19C68.9738 86.33 68.7989 86.4 68.5888 86.4H40.4138C39.0488 86.4 38.5238 86.435 37.6488 86.61L37.4038 85.35C38.3138 85.595 39.1538 85.665 40.4138 85.665H50.6338V80.835H43.8788C42.4088 80.835 41.9188 80.87 41.0088 81.01L40.7988 79.785C41.8138 80.03 42.5838 80.1 43.8438 80.1H50.6338V75.935H41.9888C40.7638 75.935 40.3088 75.97 39.2938 76.11L39.0488 74.92C40.0288 75.13 40.7988 75.2 41.9538 75.2ZM57.9838 61.725H63.6888C63.7938 60.675 63.7938 60.675 63.9688 58.435H58.3338C58.1938 60.115 58.1238 60.57 57.9838 61.725ZM63.5838 62.46H57.8788C57.6338 64.105 57.4938 64.805 57.2138 65.82H63.1638C63.3738 64.525 63.3738 64.35 63.5838 62.46ZM46.7838 60.22H48.5688C49.6188 58.995 49.6188 58.995 50.6688 57.77C52.0338 58.855 52.4188 59.205 53.7138 60.36C53.8888 60.5 53.9588 60.64 53.9588 60.71C53.9588 60.85 53.7838 60.955 53.5038 60.955H43.3538V67.57C43.3538 68.025 43.3888 68.165 43.5638 68.235C43.7738 68.34 44.5438 68.41 45.3838 68.41C46.3988 68.41 48.2538 68.27 48.9538 68.13C49.1638 68.095 49.3038 68.095 49.4438 68.095C49.7938 68.095 50.1788 68.34 50.5638 68.83C50.9838 69.39 51.2638 69.985 51.2638 70.37C51.2638 71.315 49.9688 71.56 45.2088 71.56C42.3388 71.56 41.1838 71.42 40.5188 70.965C39.8538 70.51 39.5738 69.705 39.5738 68.41V60.955H38.9788C38.1738 60.955 37.7888 60.99 37.0888 61.095L36.8788 59.94C37.7188 60.15 38.1738 60.22 39.0138 60.22H42.8988V57.735C42.8988 56.86 42.8638 56.44 42.7238 55.53C47.4838 55.95 48.1488 56.09 48.1488 56.51C48.1488 56.79 47.7638 57.035 46.7838 57.315V60.22ZM74.0488 62.075C74.5038 61.9 74.6088 61.865 75.2038 61.865C76.2538 61.865 78.2138 62.565 80.1388 63.65C80.8738 63.615 86.2288 62.985 91.3038 62.39C94.2088 62.04 94.4538 61.97 95.2938 61.515C95.6438 61.305 95.8188 61.235 96.0988 61.235C96.6938 61.235 97.6738 61.795 98.6888 62.705C99.8088 63.685 100.369 64.525 100.369 65.12C100.369 65.47 100.299 65.575 99.6338 66.555C99.2488 67.08 99.1788 67.36 98.3388 70.475C96.7988 76.32 96.6588 76.845 96.4488 77.755C97.7788 78.455 98.4438 79.225 98.4438 80.065C98.4438 80.695 98.0238 81.08 97.3238 81.08C96.9388 81.08 96.6938 81.045 95.7138 80.94C94.3488 80.765 92.5288 80.66 90.5688 80.66C87.5238 80.66 84.5838 80.87 81.6788 81.29C81.6788 81.535 81.6788 81.71 81.6788 81.85C81.6788 83.495 81.3638 84.09 80.4538 84.09C79.7188 84.09 78.9138 83.355 78.2488 82.06C77.7938 81.255 77.5838 80.555 77.5838 79.925C77.5838 79.785 77.5838 79.715 77.7588 79.015C77.9338 78.175 78.0038 77.405 78.0038 76.32C78.0038 72.4 77.4088 66.59 76.8488 65.085C76.3588 63.755 75.4488 62.775 74.0488 62.075ZM80.6988 65.82C81.0138 71.385 81.4338 77.72 81.5388 78.805C83.0438 78.735 91.2338 78.035 93.1238 77.86C94.2088 71.49 94.6288 68.62 95.0488 64.49C92.5288 64.49 84.5138 65.225 80.6988 65.82ZM130.119 57.665L130.294 57.385C132.079 57.84 133.234 58.295 134.459 58.96C135.859 59.73 136.384 60.395 136.384 61.375C136.384 62.355 135.824 63.23 135.159 63.23C134.739 63.23 134.599 63.09 134.039 62.145C132.919 60.15 131.799 58.89 130.119 57.665ZM133.269 55.39L133.409 55.145C135.124 55.39 136.244 55.705 137.469 56.265C138.974 56.895 139.534 57.56 139.534 58.68C139.534 59.59 139.044 60.36 138.484 60.36C138.134 60.36 137.959 60.22 137.504 59.45C136.384 57.665 135.124 56.44 133.269 55.39ZM109.714 74.5L109.469 74.15C112.759 71.42 115.944 67.57 118.429 63.37C119.514 61.515 119.934 60.57 119.934 59.87C119.934 59.38 119.829 59.065 119.444 58.61C119.024 58.085 118.744 57.875 117.799 57.42C118.219 57.245 118.394 57.21 118.709 57.21C119.969 57.21 121.929 58.015 123.364 59.065C124.099 59.625 124.484 60.185 124.484 60.71C124.484 61.2 124.414 61.34 123.539 62.46C123.294 62.74 123.294 62.74 122.559 63.755C122.944 63.79 123.154 63.825 123.294 63.825C123.959 63.825 126.129 63.51 127.424 63.195C128.474 62.985 128.649 62.915 129.629 62.355C129.909 62.215 130.154 62.145 130.364 62.145C130.924 62.145 131.799 62.67 132.779 63.58C133.689 64.49 134.144 65.19 134.144 65.75C134.144 66.17 133.969 66.485 133.479 66.87C132.744 67.395 132.709 67.465 131.694 69.145C129.244 73.24 127.739 75.27 125.534 77.58C121.264 82.06 115.944 85.35 110.344 86.925L110.169 86.54C112.374 85.35 113.529 84.58 115.244 83.215C119.619 79.68 123.049 75.935 125.779 71.63C127.004 69.705 128.719 66.52 128.999 65.575C129.069 65.365 129.104 65.225 129.139 65.155C129.174 65.05 129.209 65.015 129.209 64.98C129.209 64.91 129.139 64.805 129.104 64.805C129.069 64.805 129.069 64.805 128.999 64.805C128.964 64.805 128.929 64.77 128.859 64.77C128.824 64.77 128.789 64.77 128.719 64.805C128.649 64.84 128.509 64.875 128.299 64.875C127.984 64.91 126.479 65.26 125.674 65.505C124.939 65.75 124.939 65.75 124.344 65.925C124.134 65.96 123.994 65.995 123.889 65.995C123.259 65.995 122.489 65.575 121.719 64.77C118.184 69.25 113.914 72.715 109.714 74.5ZM138.286 77.93L138.111 77.545C142.381 75.06 146.861 71.49 151.166 67.15C154.911 63.37 157.046 60.57 157.046 59.415C157.046 58.68 156.241 57.77 154.946 57.105C155.401 57 155.611 56.965 156.066 56.965C157.116 56.965 158.236 57.35 159.601 58.155C161.211 59.1 162.156 60.15 162.156 60.955C162.156 61.585 161.981 61.795 160.756 62.67C160.616 62.775 160.616 62.775 158.481 64.805C156.031 67.08 156.031 67.08 153.546 69.215C154.736 69.985 155.646 70.755 155.961 71.28C156.276 71.77 156.311 72.12 156.346 74.71C156.381 76.32 156.381 76.775 156.591 83.425C156.626 83.915 156.626 84.405 156.626 84.755C156.626 86.19 156.171 86.89 155.191 86.89C153.896 86.89 151.971 84.755 151.971 83.285C151.971 82.935 152.006 82.69 152.181 82.165C152.636 80.73 152.951 76.915 152.951 73.135C152.951 71.35 152.846 70.86 152.356 70.195C149.451 72.4 146.966 74.045 144.866 75.165C142.801 76.25 140.281 77.3 138.286 77.93ZM176.051 61.2L176.226 60.815C180.146 61.445 182.246 62.04 183.891 63.09C185.046 63.79 185.606 64.77 185.606 66.1C185.606 67.745 184.801 69.005 183.716 69.005C183.121 69.005 182.771 68.725 182.246 67.815C180.566 64.77 178.781 62.88 176.051 61.2ZM202.406 62.635L202.826 62.845C200.901 66.87 198.486 70.195 194.951 73.695C191.836 76.775 189.246 78.805 184.801 81.675C183.891 82.27 183.261 82.76 182.911 83.215C182.421 83.81 181.966 84.09 181.441 84.09C180.531 84.09 179.236 83.11 178.011 81.535C176.891 80.1 176.331 78.77 176.331 77.65C176.331 77.335 176.366 77.16 176.506 76.705C177.451 78.315 178.606 79.295 179.551 79.295C181.021 79.295 185.606 76.88 189.771 73.905C194.986 70.16 199.431 66.24 202.406 62.635ZM224.666 62.46H232.296C233.451 61.06 233.801 60.64 234.991 59.31C236.741 60.675 237.301 61.095 239.016 62.565C239.191 62.705 239.261 62.845 239.261 62.95C239.261 63.09 239.086 63.195 238.841 63.195H221.936C221.901 65.085 221.691 67.745 221.481 69.18H229.951C230.966 68.06 230.966 68.06 232.016 66.905C233.136 67.71 234.151 68.48 235.096 69.18C235.516 69.6 235.656 69.81 235.656 70.02C235.656 70.125 235.586 70.265 235.446 70.335C235.341 70.44 235.166 70.545 234.921 70.685C234.816 70.755 234.606 70.895 234.361 71.07C234.081 74.99 233.521 79.435 233.136 81.36C232.471 84.475 231.491 85.98 229.601 86.68C228.831 86.995 226.941 87.31 226.101 87.31C225.716 87.31 225.646 87.24 225.611 86.54C225.541 85.63 225.226 85.035 224.526 84.545C223.861 84.09 223.301 83.88 219.801 82.865L219.836 82.375C224.771 82.865 225.751 82.935 227.186 82.935C228.306 82.935 228.621 82.655 228.971 81.08C229.636 78.42 230.161 73.87 230.266 69.915H221.376C220.501 75.06 219.066 78.42 216.406 81.465C214.166 83.985 211.541 85.77 207.236 87.555L206.991 87.24C210.701 84.51 212.626 82.445 214.306 79.47C216.616 75.375 217.701 70.195 217.736 63.195H210.211C209.511 63.195 208.636 63.265 207.761 63.44L207.411 62.11C208.636 62.355 209.616 62.46 210.211 62.46H220.711V58.505C220.711 57.84 220.676 57.21 220.536 55.81C225.051 56.23 226.241 56.44 226.241 56.965C226.241 57.35 225.891 57.56 224.736 57.91L224.666 62.46ZM262.921 71.175H267.506C268.486 70.055 269.396 69.04 270.271 68.06C272.021 69.39 272.546 69.81 274.226 71.315C274.366 71.49 274.436 71.595 274.436 71.665C274.436 71.805 274.261 71.91 274.051 71.91H262.501C261.941 73.135 260.401 76.005 259.491 77.475C258.651 78.84 257.916 79.925 256.551 81.78C261.066 81.57 264.286 81.325 267.506 80.975C266.281 78.455 265.406 77.09 263.761 75.095L264.076 74.78C267.646 76.81 269.186 77.93 270.831 79.645C272.336 81.22 272.931 82.2 272.931 83.25C272.931 84.965 271.636 86.925 270.481 86.925C269.956 86.925 269.641 86.505 269.221 85.21C268.906 84.16 268.591 83.39 268.066 82.2C264.356 83.32 264.321 83.32 252.981 85.945C252.841 87.03 252.631 87.485 252.281 87.485C251.861 87.485 251.686 86.855 250.461 81.78C251.896 81.85 252.491 81.85 253.366 81.85C253.681 81.85 254.101 81.85 254.941 81.85C256.026 78.945 257.391 74.325 257.846 71.91H252.981C252.176 71.91 251.546 71.98 250.776 72.12L250.531 70.86C251.511 71.105 252.141 71.175 252.981 71.175H259.106V63.895H255.186C254.381 63.895 253.961 63.93 253.261 64.105L253.051 62.88C253.961 63.09 254.416 63.16 255.221 63.16H259.106V60.115C259.106 58.47 259.036 57.595 258.826 55.88C263.306 56.3 263.551 56.335 263.936 56.44C264.251 56.545 264.391 56.685 264.391 56.895C264.391 57.21 264.181 57.35 262.921 57.875V63.16H266.736C267.856 61.83 268.206 61.41 269.326 60.185C271.076 61.515 271.566 61.9 273.211 63.335C273.351 63.51 273.421 63.58 273.421 63.685C273.421 63.79 273.281 63.895 273.071 63.895H262.921V71.175ZM243.916 56.615L244.091 56.335C249.061 57.49 250.671 58.47 250.671 60.29C250.671 61.62 249.516 63.055 248.501 63.055C247.941 63.055 247.696 62.81 247.381 62.04C246.366 59.555 245.701 58.47 243.916 56.615ZM241.676 64.245L241.816 63.93C246.401 65.085 248.116 66.17 248.116 67.885C248.116 69.25 246.926 70.72 245.806 70.72C245.211 70.72 245.071 70.545 244.511 68.97C243.741 66.905 243.146 65.925 241.676 64.245ZM241.781 76.985L241.851 76.53C244.056 76.95 244.056 76.95 244.441 76.95C244.931 76.95 245.246 76.67 245.666 75.865C246.156 74.955 247.766 71.735 249.061 69.04C250.391 66.275 251.161 64.56 252.351 61.62L252.806 61.76L248.116 76.705C247.766 77.79 247.626 78.455 247.626 78.91C247.626 79.225 247.731 79.61 247.941 80.24C248.536 81.85 248.711 82.515 248.711 83.355C248.711 85.525 247.101 87.31 245.106 87.31C244.406 87.31 243.986 86.925 243.986 86.33C243.986 86.015 244.021 85.595 244.126 85.175C244.406 83.6 244.651 81.5 244.651 80.345C244.651 79.365 244.406 78.63 243.916 78.105C243.531 77.685 243.041 77.44 241.781 76.985ZM279.686 61.935L279.966 61.69C281.541 63.02 282.591 63.405 284.761 63.405C285.881 63.405 286.861 63.3 288.226 62.985C288.926 61.76 289.451 60.08 289.451 59.135C289.451 57.945 288.646 57.315 286.651 56.86C287.386 56.44 287.736 56.335 288.541 56.335C289.766 56.335 291.306 56.65 292.496 57.14C293.476 57.56 294.036 58.085 294.036 58.68C294.036 58.96 293.861 59.31 293.441 59.765C292.881 60.43 292.251 61.305 291.586 62.355C294.701 61.27 295.016 61.095 296.206 60.115C296.486 59.87 296.801 59.765 297.186 59.765C298.726 59.765 300.021 60.535 300.021 61.445C300.021 62.18 299.391 62.565 297.116 63.335C294.946 64.07 292.671 64.63 289.871 65.12C288.821 66.625 288.541 67.045 288.156 67.605C286.826 69.565 286.826 69.565 286.336 70.23C288.471 69.075 289.836 68.655 291.341 68.655C292.496 68.655 293.581 69.075 294.316 69.845C294.771 70.335 295.016 70.755 295.296 71.7C295.891 71.35 295.891 71.35 298.621 69.985C299.671 69.46 300.931 68.725 301.631 68.27C302.121 67.955 302.331 67.64 302.331 67.325C302.331 66.625 301.666 65.96 300.406 65.365C300.931 65.19 301.141 65.155 301.491 65.155C303.556 65.155 306.636 67.815 306.636 69.635C306.636 70.335 306.286 70.685 305.271 70.93C301.281 71.98 298.061 73.1 295.821 74.255C295.891 76.6 295.891 76.67 295.891 77.02C295.891 78.735 295.821 79.505 295.611 79.89C295.331 80.45 294.631 80.8 293.896 80.8C292.951 80.8 292.356 80.24 292.356 79.33C292.356 79.225 292.356 79.225 292.461 77.93C292.496 77.125 292.531 76.635 292.531 75.69C288.786 77.79 287.386 79.26 287.386 81.045C287.386 82.725 289.031 83.495 292.601 83.495C294.876 83.495 297.501 83.11 299.041 82.55C299.951 82.2 300.196 82.13 300.511 82.13C301.071 82.13 301.946 82.445 302.646 82.935C303.381 83.46 303.801 84.125 303.801 84.79C303.801 85.42 303.311 85.945 302.506 86.19C301.211 86.575 298.831 86.785 295.681 86.785C291.831 86.785 289.451 86.33 287.771 85.28C286.441 84.44 285.741 83.11 285.741 81.465C285.741 79.785 286.616 78.07 288.401 76.355C289.241 75.55 290.116 74.92 292.531 73.345C292.496 72.015 292.391 71.56 292.111 70.895C291.796 70.3 291.166 69.915 290.431 69.915C288.296 69.915 285.846 71.7 283.116 75.235C282.206 76.39 281.891 76.635 281.331 76.635C280.456 76.635 279.791 75.41 279.791 73.765C279.791 73.345 279.896 72.96 280.071 72.68C280.316 72.33 280.351 72.295 281.436 71.56C282.766 70.685 285.076 68.025 286.931 65.33C286.371 65.365 286.021 65.4 285.776 65.4C284.236 65.4 282.696 65.015 281.786 64.35C280.946 63.79 280.386 63.125 279.686 61.935ZM313.111 64.875L313.426 64.595C314.756 65.925 316.051 66.485 317.836 66.485C318.921 66.485 320.111 66.31 321.476 65.96C321.511 65.085 321.511 64.665 321.511 63.965C321.511 61.305 321.371 60.045 321.056 59.38C320.636 58.505 319.831 58.015 318.256 57.7C318.921 57.175 319.341 57.035 320.251 57.035C321.686 57.035 323.506 57.42 324.696 58.015C325.536 58.435 325.991 59.03 325.991 59.695C325.991 60.045 325.921 60.29 325.501 60.955C324.941 61.935 324.661 63.055 324.451 65.085C325.886 64.525 326.376 64.245 327.426 63.405C327.951 62.985 328.336 62.81 328.756 62.81C329.421 62.81 330.471 63.16 330.891 63.545C331.136 63.755 331.276 64.07 331.276 64.42C331.276 65.085 330.576 65.645 328.931 66.345C327.286 67.045 325.711 67.535 324.136 67.885C323.996 69.88 323.996 70.58 323.961 73.73C327.426 72.435 330.121 71.875 332.851 71.875C338.136 71.875 341.461 74.465 341.461 78.595C341.461 82.48 338.486 85.49 334.636 85.49C332.536 85.49 330.716 84.545 329.281 82.69C328.406 81.535 327.916 80.485 327.391 78.42L327.776 78.28C329.316 81.01 331.031 82.305 333.131 82.305C335.861 82.305 337.716 80.31 337.716 77.405C337.716 74.815 335.931 73.38 332.676 73.38C329.981 73.38 326.761 74.325 323.996 75.935C324.031 77.51 324.031 77.51 324.206 80.8C324.241 81.395 324.276 81.92 324.276 82.375C324.276 83.635 323.961 84.65 323.296 85.49C322.666 86.295 322.001 86.68 321.301 86.68C320.846 86.68 320.426 86.505 320.076 86.155C319.936 85.98 319.936 85.98 319.341 85.315C317.906 83.635 317.241 83.145 315.946 82.865C315.071 82.69 314.896 82.62 314.546 82.34C314.126 82.025 313.881 81.535 313.881 80.975C313.881 80.275 314.301 79.505 315.141 78.665C316.681 77.16 318.046 76.285 321.301 74.71C321.371 72.61 321.406 70.475 321.476 68.34C320.391 68.515 319.901 68.585 319.096 68.585C316.331 68.585 314.616 67.5 313.111 64.875ZM321.161 77.37C318.851 78.84 317.101 80.625 317.101 81.43C317.101 81.675 317.276 81.92 317.626 82.13C318.361 82.515 319.446 82.83 320.146 82.83C320.671 82.83 320.811 82.655 320.916 81.99C320.986 81.43 321.161 78.455 321.161 77.37ZM333.586 61.27V60.885C334.321 60.815 334.636 60.815 335.161 60.815C337.261 60.815 338.906 61.2 340.411 62.075C342.021 62.985 342.896 64.245 342.896 65.61C342.896 66.87 342.196 67.605 341.076 67.605C340.761 67.605 340.481 67.535 339.956 67.36C339.466 67.22 339.186 67.15 338.801 67.15C338.031 67.15 336.491 67.395 334.461 67.815L334.321 67.5C337.016 66.1 338.626 65.085 338.626 64.735C338.626 64.455 338.171 63.72 337.611 63.16C336.561 62.145 335.546 61.655 333.586 61.27ZM377.896 74.43L377.931 84.405C377.931 86.12 377.371 86.785 375.586 87.38C374.711 87.66 373.941 87.8 373.346 87.8C372.961 87.8 372.891 87.695 372.856 87.17C372.786 86.085 372.436 85.35 371.771 84.93C371.246 84.58 370.861 84.44 369.461 83.985C369.461 84.65 369.461 84.93 369.496 85.84C369.496 86.19 369.426 86.365 369.251 86.47C368.936 86.68 368.096 86.82 366.976 86.82C366.066 86.82 365.891 86.715 365.891 86.12C365.961 83.005 365.961 83.005 365.961 80.975C363.686 81.885 361.271 82.725 356.021 84.335C355.881 85.315 355.706 85.7 355.391 85.7C355.006 85.7 354.866 85.245 353.816 81.08C354.341 81.15 354.761 81.15 355.006 81.15C355.321 81.15 355.636 81.15 356.651 81.08V70.195H355.111C354.516 70.195 353.921 70.265 353.396 70.37L353.186 69.215C353.781 69.39 354.481 69.46 355.216 69.46H368.131C368.971 68.445 369.251 68.165 370.126 67.185C371.491 68.27 371.876 68.62 373.171 69.74C373.276 69.88 373.311 69.95 373.311 70.02C373.311 70.125 373.206 70.195 372.996 70.195H369.426V79.61C369.426 79.96 369.426 81.255 369.461 83.53C371.386 83.635 372.786 83.705 373.626 83.705C374.011 83.705 374.081 83.635 374.081 83.25V65.995H368.271V66.485C368.271 67.115 367.816 67.255 365.786 67.255C364.736 67.255 364.526 67.15 364.526 66.52L364.596 60.605C364.596 58.365 364.561 57.105 364.491 55.46C366.171 56.195 366.696 56.475 368.341 57.35H373.941C374.676 56.475 374.921 56.23 375.761 55.39C376.986 56.265 377.371 56.58 378.596 57.525C378.841 57.77 378.946 57.91 378.946 58.085C378.946 58.365 378.736 58.575 377.896 59.1V74.43ZM365.961 70.195H360.046V73.065H365.961V70.195ZM365.961 73.8H360.046V76.635H365.961V73.8ZM365.961 77.37H360.046V80.835C362.986 80.625 363.721 80.555 365.961 80.24V77.37ZM374.081 65.26V61.935H368.271V65.26H374.081ZM374.081 61.2V58.085H368.271V61.2H374.081ZM357.736 65.995H352.066V86.925C352.066 87.73 351.576 87.905 349.511 87.905C348.356 87.905 348.146 87.8 348.146 87.135C348.321 81.605 348.356 77.93 348.356 64.98C348.356 58.96 348.321 57.56 348.216 55.39C350.036 56.125 350.596 56.405 352.381 57.35H357.421C358.296 56.475 358.541 56.23 359.381 55.39C360.536 56.23 360.886 56.51 362.006 57.385C362.286 57.63 362.391 57.77 362.391 57.91C362.391 58.19 362.181 58.4 361.306 58.89C361.306 60.29 361.306 61.2 361.306 62.145C361.306 63.685 361.306 64.56 361.376 66.38C361.376 67.115 360.886 67.29 358.891 67.29C357.911 67.29 357.736 67.185 357.736 66.625V65.995ZM357.736 65.26V61.935H352.066V65.26H357.736ZM357.736 61.2V58.085H352.066V61.2H357.736ZM389.411 79.82L389.656 79.435C392.386 80.8 393.996 81.43 394.696 81.43C395.431 81.43 395.921 80.975 396.516 79.75C397.986 76.775 399.071 72.225 399.071 69.11C399.071 67.08 398.511 66.275 397.041 66.275C396.166 66.275 395.361 66.45 393.961 66.905C390.636 75.025 388.711 79.645 388.256 80.765C386.646 84.475 386.016 85.35 385.036 85.35C384.056 85.35 383.391 84.02 383.391 82.06C383.391 80.835 383.566 80.345 384.406 79.54C386.051 77.825 388.011 74.255 390.776 67.85C388.816 68.69 387.871 69.145 386.961 69.705C386.436 70.02 386.226 70.09 385.911 70.09C385.281 70.09 384.581 69.6 383.951 68.76C383.251 67.745 382.761 66.45 382.761 65.54C382.761 65.26 382.796 65.05 382.971 64.63C383.706 66.17 384.616 66.8 386.051 66.8C386.961 66.8 388.676 66.45 391.441 65.75C392.176 63.65 392.666 61.48 392.666 60.115C392.666 58.715 391.826 57.84 389.831 57.175C390.426 56.825 390.706 56.755 391.196 56.755C391.966 56.755 393.261 56.965 394.241 57.28C396.236 57.91 397.286 58.715 397.286 59.66C397.286 60.01 397.181 60.325 396.831 60.85C396.096 61.97 395.711 62.74 394.661 65.225C395.851 64.98 396.411 64.91 397.216 64.91C398.896 64.91 400.226 65.435 400.996 66.485C401.836 67.57 402.151 68.9 402.151 71.28C402.151 75.585 400.541 81.08 398.616 83.46C397.461 84.895 395.851 85.735 394.241 85.735C393.716 85.735 393.261 85.525 393.051 85.175C392.876 84.895 392.876 84.895 392.806 83.845C392.736 83.04 391.756 81.85 389.411 79.82ZM404.461 65.155L404.636 64.77C407.541 65.295 409.606 66.345 411.531 68.235C413.281 69.985 414.226 72.085 414.226 74.185C414.226 76.355 413.316 77.65 411.776 77.65C411.216 77.65 410.831 77.475 410.236 76.95C409.466 76.25 408.801 76.145 404.846 76.11L404.776 75.76C407.646 75.025 409.291 74.535 409.921 74.22C410.096 74.115 410.166 73.975 410.166 73.66C410.166 72.96 409.746 71.315 409.256 70.23C408.171 67.745 406.701 66.205 404.461 65.155ZM430.536 73.205L430.746 72.925C433.406 74.325 434.946 74.955 435.611 74.955C435.926 74.955 436.136 74.71 436.311 74.15C436.591 73.065 436.906 71.175 437.151 68.55C434.386 68.9 430.851 69.705 428.471 70.545C428.331 72.435 428.296 73.59 428.296 75.375C428.296 79.365 428.576 80.66 429.661 81.465C430.431 82.06 431.586 82.305 433.721 82.305C436.206 82.305 438.656 81.92 440.161 81.325C440.931 81.01 441.071 80.975 441.526 80.975C442.156 80.975 443.136 81.43 443.836 82.025C444.466 82.55 444.746 83.04 444.746 83.6C444.746 84.23 444.291 84.755 443.556 85C442.296 85.42 439.566 85.7 436.766 85.7C431.341 85.7 428.646 84.86 427.141 82.69C426.266 81.5 425.846 79.715 425.636 76.74C425.566 75.795 425.531 74.71 425.461 71.56C423.956 72.05 423.151 72.435 421.646 73.31C421.191 73.59 420.841 73.695 420.491 73.695C419.511 73.695 418.391 72.925 417.446 71.56C416.816 70.65 416.396 69.67 416.396 69.005C416.396 68.9 416.431 68.55 416.501 68.27C417.411 69.635 418.496 70.23 420.001 70.23C420.841 70.23 422.171 69.985 425.391 69.18C425.356 68.83 425.356 68.83 425.321 67.15C425.251 66.03 425.111 64.735 424.971 64.14C424.656 62.95 423.676 62.145 421.856 61.585C422.451 61.235 422.801 61.13 423.606 61.13C424.656 61.13 425.986 61.41 427.141 61.9C428.681 62.53 429.346 63.23 429.346 64.14C429.346 64.42 429.311 64.595 429.136 65.12C428.856 65.96 428.856 65.96 428.611 68.375C431.061 67.78 431.936 67.605 432.461 67.5L437.291 66.52C437.396 64.21 437.396 63.79 437.396 62.075C437.396 60.15 437.151 59.345 436.311 58.54C435.786 58.015 435.261 57.7 434.211 57.385C434.736 57 435.086 56.895 435.786 56.895C437.081 56.895 439.146 57.525 440.371 58.33C441.386 58.96 441.736 59.45 441.736 60.22C441.736 60.57 441.701 60.71 441.386 61.34C440.966 62.25 440.686 63.545 440.406 65.89C442.856 65.365 442.856 65.365 444.186 64.7C444.536 64.525 444.921 64.42 445.201 64.42C446.076 64.42 447.476 64.945 448.456 65.68C448.981 66.065 449.191 66.415 449.191 66.975C449.191 67.675 448.631 68.025 447.511 68.025C447.336 68.025 447.336 68.025 446.041 67.99C445.656 67.955 444.571 67.955 444.011 67.955C442.996 67.955 442.191 67.99 440.196 68.2C439.846 72.015 439.496 74.535 439.111 75.585C438.691 76.915 438.096 77.72 437.186 78.315C436.626 78.665 436.031 78.84 435.506 78.84C434.771 78.84 434.421 78.49 434.246 77.58C434.071 76.565 434.071 76.565 430.536 73.205ZM466.411 55.95C466.831 55.81 467.006 55.775 467.356 55.775C468.266 55.775 469.596 56.265 470.786 57.035C472.396 58.05 473.341 59.24 473.341 60.22C473.341 61.095 472.921 61.515 471.031 62.705C468.161 64.455 466.271 65.89 464.171 67.78C462.701 69.18 461.966 70.23 461.966 71.07C461.966 71.595 462.281 72.155 463.016 72.82C463.681 73.415 463.681 73.415 466.201 75.305C467.811 76.495 469.946 78.385 471.311 79.75C472.816 81.29 473.446 82.655 473.446 84.265C473.446 86.155 472.536 87.52 471.311 87.52C470.506 87.52 470.086 87.1 469.526 85.77C468.231 82.76 466.446 80.03 463.541 76.53C461.546 74.185 461.196 73.765 460.846 73.135C460.426 72.365 460.251 71.77 460.251 71.07C460.251 70.16 460.601 69.285 461.301 68.235C462.106 67.115 462.106 67.115 465.606 62.845C467.531 60.535 468.441 59.1 468.441 58.365C468.441 57.945 468.196 57.455 467.776 56.965C467.391 56.545 467.356 56.51 466.411 55.95ZM487.971 64.385L488.321 64.175C489.721 65.715 490.701 66.205 492.451 66.205C493.781 66.205 495.181 66.03 496.651 65.68C497.281 63.335 497.666 61.27 497.666 60.045C497.666 59.38 497.421 58.785 496.931 58.365C496.511 57.98 496.021 57.77 494.901 57.455C495.531 57.07 495.776 57 496.721 57C497.981 57 499.486 57.35 500.746 57.945C501.691 58.365 502.286 59.03 502.286 59.66C502.286 60.08 502.216 60.185 501.726 60.885C501.166 61.55 500.816 62.32 499.871 64.77C501.936 64 502.566 63.65 503.861 62.565C504.246 62.215 504.666 62.04 505.016 62.04C505.681 62.04 506.696 62.32 507.221 62.67C507.571 62.88 507.781 63.23 507.781 63.615C507.781 63.65 507.781 63.65 507.781 63.685C507.711 64.91 505.226 66.065 498.786 67.85C498.331 69.11 498.331 69.11 497.246 72.365C496.581 74.395 496.581 74.395 494.691 79.925C493.676 82.97 493.151 84.37 492.766 85.07C492.416 85.665 491.926 85.98 491.366 85.98C490.911 85.98 490.491 85.735 490.246 85.385C489.721 84.65 489.371 83.285 489.371 82.2C489.371 81.255 489.476 81.01 490.246 80.1C491.926 78.035 493.921 73.835 495.846 68.235C495.041 68.375 494.446 68.41 493.536 68.41C490.806 68.41 489.231 67.255 487.971 64.385ZM503.651 71.28L503.511 70.93C505.961 69.005 509.041 67.85 511.841 67.85C514.151 67.85 515.656 68.795 515.656 70.195C515.656 71.175 515.096 71.665 513.941 71.665L512.576 71.63C511.596 71.63 510.581 71.875 509.496 72.4C509.251 72.505 509.251 72.505 508.026 73.205C507.606 73.45 507.501 73.52 507.081 73.765L506.871 73.45L510.406 70.125C510.021 70.09 509.706 70.09 509.531 70.09C507.851 70.09 505.751 70.51 503.651 71.28ZM502.531 76.635L502.951 76.74C502.881 77.405 502.846 77.755 502.846 78.07C502.846 81.045 504.841 82.515 508.971 82.515C510.511 82.515 511.386 82.375 512.786 81.885C513.031 81.78 513.276 81.745 513.486 81.745C514.186 81.745 515.411 82.375 516.111 83.145C516.461 83.53 516.636 83.915 516.636 84.44C516.636 85.665 515.026 86.225 511.421 86.225C508.061 86.225 505.471 85.56 504.001 84.335C502.671 83.215 501.936 81.57 501.936 79.645C501.936 78.595 502.111 77.79 502.531 76.635ZM508.796 58.995L508.936 58.715C511.036 59.205 512.611 59.765 513.626 60.36C514.676 60.99 515.096 61.585 515.096 62.46C515.096 63.44 514.501 64.315 513.836 64.315C513.486 64.315 513.206 64.07 512.891 63.51C511.701 61.445 510.616 60.29 508.796 58.995ZM511.911 56.615L512.016 56.335C513.941 56.58 515.656 57.035 516.741 57.56C517.861 58.085 518.281 58.68 518.281 59.695C518.281 60.605 517.791 61.41 517.231 61.41C516.916 61.41 516.706 61.2 516.356 60.71C515.096 58.785 513.906 57.7 511.911 56.615ZM542.151 59.485L542.361 59.17C544.006 59.8 545.616 60.22 546.456 60.22C546.596 60.22 546.596 60.22 547.261 60.15C547.401 60.115 547.576 60.115 547.716 60.115C548.661 60.115 549.326 60.71 549.326 61.62C549.326 62.285 548.941 62.845 547.891 63.58C546.561 64.49 544.601 65.47 542.466 66.31C544.076 68.445 545.896 71.035 547.156 72.995C547.961 74.22 548.206 74.955 548.206 76.075C548.206 77.895 547.471 78.98 546.281 78.98C545.581 78.98 545.511 78.91 544.076 77.475C542.431 75.795 539.351 74.78 535.956 74.78C532.211 74.78 529.971 76.18 529.971 78.595C529.971 80.975 532.456 82.41 536.656 82.41C538.161 82.41 538.721 82.34 540.156 81.955C540.401 81.92 540.611 81.885 540.821 81.885C542.221 81.885 543.971 83.46 543.971 84.65C543.971 85.91 542.886 86.33 539.526 86.33C536.726 86.33 534.276 85.98 532.246 85.28C529.166 84.23 527.276 81.99 527.276 79.435C527.276 75.69 531.126 73.275 537.146 73.275C539.561 73.275 541.801 73.555 543.936 74.08C543.166 71.945 541.871 69.67 540.016 67.115C537.391 67.885 534.976 68.27 532.596 68.27C530.356 68.27 528.991 67.885 527.486 66.8C526.471 66.065 525.841 65.47 525.141 64.49L525.456 64.21C527.241 65.575 528.781 66.065 531.126 66.065C533.366 66.065 535.956 65.645 538.126 64.945C536.131 62.845 534.416 61.41 532.876 60.605C531.546 59.94 531.196 59.59 531.196 59.03C531.196 57.98 532.841 57.175 535.011 57.175C536.761 57.175 537.986 57.42 539.456 58.015L539.316 58.435C538.686 58.365 538.581 58.365 538.126 58.365C537.076 58.365 536.481 58.54 536.481 58.925C536.481 59.135 536.691 59.415 538.056 60.92C538.896 61.83 538.966 61.935 539.841 63.02C540.296 63.58 540.296 63.58 540.681 64.035C542.921 63.125 543.726 62.705 545.021 61.83C544.041 60.92 543.901 60.815 542.151 59.485ZM570.886 69.985L571.236 70.16C569.836 73.8 569.556 74.675 569.136 76.39C568.856 77.58 568.681 78.735 568.681 79.33C568.681 79.96 568.751 80.24 569.171 81.465C569.241 81.745 569.276 81.92 569.276 82.235C569.276 83.18 568.576 83.915 567.596 83.915C566.161 83.915 564.306 82.55 562.976 80.555C561.226 77.895 560.351 74.22 560.351 69.495C560.351 69.25 560.351 69.25 560.421 66.17C560.421 65.925 560.421 65.715 560.421 65.61C560.421 62.81 560.071 61.795 558.356 59.835C559.161 59.835 559.651 60.01 560.736 60.675C562.416 61.655 563.641 62.88 564.341 64.28C564.586 64.77 564.656 65.12 564.656 65.645C564.656 65.96 564.586 66.24 564.411 66.94C563.921 68.585 563.641 70.58 563.641 72.12C563.641 73.66 563.886 75.235 564.341 76.565C564.656 77.51 564.971 77.965 565.706 78.525C567.981 74.605 569.346 72.33 570.886 69.985ZM577.746 64.21L577.886 63.825C581.071 64.35 583.346 65.645 585.131 67.885C586.776 69.915 587.581 72.26 587.581 74.885C587.581 77.265 586.391 78.945 584.676 78.945C584.116 78.945 583.766 78.77 583.276 78.21C582.436 77.265 581.701 77.125 577.921 77.055L577.851 76.705C580.931 75.795 582.261 75.375 582.821 75.13C583.451 74.85 583.556 74.71 583.556 74.01C583.556 72.47 583.101 70.44 582.436 68.97C581.386 66.695 579.916 65.19 577.746 64.21Z" fill="black"/>
</svg>
