<svg width="79" height="31" viewBox="0 0 79 31" fill="none" xmlns="http://www.w3.org/2000/svg">
<g clip-path="url(#clip0_1_3498)">
<path d="M13 0.5L0 7.98919V23.0108L13 30.5L26 23.0108V7.98919L13 0.5ZM24.128 21.9452L13 28.3554L1.872 21.9452V9.05481L13 2.64462L24.128 9.05481V21.9452Z" fill="white"/>
<path d="M4.80377 10.3242L13 14.9512L21.1963 10.3242L13 5.69727L4.80377 10.3242ZM13 13.4418L7.47865 10.3242L13 7.20663L18.5214 10.3242L13 13.4418Z" fill="white"/>
<path d="M4.54584 11.2458V20.5574L12.5133 25.2163V15.8759L4.54584 11.2458ZM5.86664 19.8048V13.5418L11.1842 16.6275V22.9203L5.86664 19.8048Z" fill="white"/>
<path d="M13.5159 25.2163L21.4542 20.5574V11.2458L13.5159 15.8749V25.2163Z" fill="url(#paint0_linear_1_3498)"/>
</g>
<path d="M37.9099 26.5V7.06H40.5739V26.5H37.9099ZM43.719 26.5V7.06H48.543C52.023 7.06 53.343 9.052 53.343 12.436C53.343 15.532 51.735 17.452 48.567 17.452H46.431V26.5H43.719ZM46.431 15.508H47.679C50.007 15.508 50.775 14.86 50.775 12.46C50.775 9.7 50.415 9.004 47.703 9.004H46.431V15.508ZM55.2503 26.5V7.06H59.4743C63.7943 7.06 65.2343 9.052 65.2343 12.988V20.14C65.2343 24.268 63.7703 26.5 59.6903 26.5H55.2503ZM57.9623 24.556H59.4983C62.4503 24.556 62.4983 22.78 62.4983 19.636V13.324C62.4983 10.324 62.2103 9.076 59.4263 9.076H57.9623V24.556ZM72.7785 26.716C68.6505 26.716 67.5465 23.884 67.5465 20.26V13.396C67.5465 9.46 68.6505 6.892 72.7785 6.892C76.4025 6.892 77.6745 8.98 77.6745 12.484V14.02H75.1065V12.652C75.1065 10.492 75.0585 9.004 72.8025 9.004C70.4985 9.004 70.2825 10.588 70.2825 12.988V20.692C70.2825 23.62 70.9305 24.58 72.8025 24.58C74.9865 24.58 75.1065 23.02 75.1065 20.716V19.276H77.6745V20.716C77.6745 24.292 76.5945 26.716 72.7785 26.716Z" fill="white"/>
<defs>
<linearGradient id="paint0_linear_1_3498" x1="13.5159" y1="25.2163" x2="21.4542" y2="25.2163" gradientUnits="userSpaceOnUse">
<stop stop-color="#4AC7FA"/>
<stop offset="1" stop-color="#E649F5"/>
</linearGradient>
<clipPath id="clip0_1_3498">
<rect width="26" height="30" fill="white" transform="translate(0 0.5)"/>
</clipPath>
</defs>
</svg>
