<svg width="309" height="236" viewBox="0 0 309 236" fill="none" xmlns="http://www.w3.org/2000/svg">
<g filter="url(#filter0_d_15_6)">
<path d="M131.824 96.9989H87.8269L76.8323 76H120.835L131.824 96.9989Z" fill="#18539E"/>
<path d="M153.828 96.9989L142.833 118.002L131.824 96.9989L120.835 76H142.833L153.828 96.9989Z" fill="#1A68AE"/>
<path d="M153.828 139.001L142.833 160H98.8455L109.84 139.001H153.828Z" fill="#228FCE"/>
<path d="M109.826 139.001L109.84 139.001L98.8455 160L76.8323 160L109.826 96.9988L120.835 118.002L109.826 139.001Z" fill="#2CA4DE"/>
<path d="M164.832 118.002L153.828 139.001L131.824 139.001L142.833 118.002L153.828 96.9989L164.832 118.002Z" fill="#1E7DBE"/>
</g>
<path d="M196.335 129H187.083V104.16H196.335C201.987 104.16 206.127 106.932 206.127 114.78V118.38C206.127 126.156 201.987 129 196.335 129ZM196.335 124.032C199.431 124.032 200.151 121.728 200.151 118.38V114.78C200.151 111.432 199.431 109.128 196.335 109.128H193.059V124.032H196.335ZM219.836 104.16V129H213.86V104.16H219.836ZM225.944 104.16H232.46L237.104 119.172L241.784 104.16H248.3L239.804 129H234.44L225.944 104.16ZM254.063 104.16H269.759V109.128H260.039V113.664H268.679V118.632H260.039V124.032H269.759V129H254.063V104.16ZM296.2 129H289.648L285.508 119.604H282.412V129H276.436V104.16H285.796C291.52 104.16 295.192 106.788 295.192 111.972C295.192 115.212 293.752 117.408 291.232 118.56L296.2 129ZM282.412 114.636H285.076C287.488 114.636 289.216 114.312 289.216 111.972C289.216 109.596 287.488 109.128 285.076 109.128H282.412V114.636Z" fill="white"/>
<defs>
<filter id="filter0_d_15_6" x="0.832275" y="0" width="240" height="236" filterUnits="userSpaceOnUse" color-interpolation-filters="sRGB">
<feFlood flood-opacity="0" result="BackgroundImageFix"/>
<feColorMatrix in="SourceAlpha" type="matrix" values="0 0 0 0 0 0 0 0 0 0 0 0 0 0 0 0 0 0 127 0" result="hardAlpha"/>
<feOffset/>
<feGaussianBlur stdDeviation="38"/>
<feComposite in2="hardAlpha" operator="out"/>
<feColorMatrix type="matrix" values="0 0 0 0 0.0941176 0 0 0 0 0.403922 0 0 0 0 1 0 0 0 0.6 0"/>
<feBlend mode="normal" in2="BackgroundImageFix" result="effect1_dropShadow_15_6"/>
<feBlend mode="normal" in="SourceGraphic" in2="effect1_dropShadow_15_6" result="shape"/>
</filter>
</defs>
</svg>
