<svg width="78" height="78" viewBox="0 0 78 78" fill="none" xmlns="http://www.w3.org/2000/svg">
<path d="M38.7898 77.7901C60.0362 77.7901 77.2598 60.5665 77.2598 39.3201C77.2598 18.0737 60.0362 0.850098 38.7898 0.850098C17.5434 0.850098 0.319824 18.0737 0.319824 39.3201C0.319824 60.5665 17.5434 77.7901 38.7898 77.7901Z" fill="#0059BA"/>
<path fill-rule="evenodd" clip-rule="evenodd" d="M30.4001 56.0601C37.2001 56.1001 41.4601 48.3001 37.2801 42.6001C36.5401 41.5901 35.6301 40.8001 34.8601 39.7301C31.7201 35.3501 29.5101 28.2901 33.7201 24.1301C36.5801 21.3101 34.4601 16.5801 30.6401 16.5601C26.8101 16.5401 24.6401 21.2301 27.4601 24.0901C31.6201 28.3001 29.3301 35.3301 26.1301 39.6701C25.3501 40.7301 24.4301 41.5201 23.6801 42.5101C19.4301 48.1601 23.5901 56.0201 30.3901 56.0601H30.4001Z" fill="url(#paint0_linear_190_31)"/>
<path fill-rule="evenodd" clip-rule="evenodd" d="M47.1702 22.5802C40.3702 22.5402 36.1102 30.3402 40.2902 36.0402C41.0302 37.0502 41.9402 37.8402 42.7102 38.9102C45.8502 43.2902 48.0602 50.3502 43.8502 54.5102C40.9902 57.3302 43.1102 62.0602 46.9302 62.0802C50.7602 62.1002 52.9302 57.4102 50.1102 54.5502C45.9502 50.3402 48.2402 43.3102 51.4402 38.9702C52.2202 37.9102 53.1402 37.1202 53.8902 36.1302C58.1402 30.4802 53.9802 22.6202 47.1802 22.5802H47.1702Z" fill="white"/>
<defs>
<linearGradient id="paint0_linear_190_31" x1="21.9701" y1="36.3101" x2="38.9401" y2="36.3101" gradientUnits="userSpaceOnUse">
<stop offset="0.04" stop-color="#E6819C"/>
<stop offset="1" stop-color="#E67EB4"/>
</linearGradient>
</defs>
</svg>
