<svg width="155" height="46" viewBox="0 0 155 46" fill="none" xmlns="http://www.w3.org/2000/svg">
<path d="M58.0886 15.44H63.6326C67.5446 15.44 69.6806 16.832 69.6806 19.784C69.6806 21.488 68.8166 22.664 67.4966 23.312C69.2006 23.936 70.2086 25.184 70.2086 27.248C70.2086 29.816 68.5286 32 64.1606 32H58.0886V15.44ZM61.4486 24.824V29.168H63.8726C65.8886 29.168 66.8486 28.4 66.8486 26.984C66.8486 25.424 65.8166 24.824 63.5606 24.824H61.4486ZM61.4486 18.272V21.992H63.6806C65.5286 21.992 66.3206 21.272 66.3206 20.096C66.3206 18.944 65.7446 18.272 63.3206 18.272H61.4486ZM79.2673 23.384H85.2912V24.896C85.2912 29.96 82.9392 32.216 79.1953 32.216C75.4752 32.216 72.8592 29.96 72.8592 24.896V22.784C72.8592 17.432 75.4752 15.224 79.1953 15.224C82.6753 15.224 84.7633 17.192 85.2673 20.576H82.0512C81.7633 19.064 80.8753 18.056 79.1953 18.056C77.2512 18.056 76.2192 19.376 76.2192 22.544V24.896C76.2192 28.064 77.2512 29.384 79.1953 29.384C81.0913 29.384 81.8593 28.208 82.0512 26.216H79.2673V23.384ZM87.1745 15.44H99.6545V18.296H95.0945V32H91.7345V18.296H87.1745V15.44ZM120.826 20.576H117.61C117.298 19.016 116.386 18.056 114.754 18.056C112.81 18.056 111.778 19.376 111.778 22.544V24.896C111.778 27.968 112.81 29.384 114.754 29.384C116.434 29.384 117.25 28.544 117.61 26.864H120.802C120.25 30.584 118.162 32.216 114.754 32.216C111.034 32.216 108.418 29.96 108.418 24.896V22.544C108.418 17.432 111.034 15.224 114.754 15.224C118.042 15.224 120.274 16.952 120.826 20.576ZM133.42 25.256V26.696C133.42 29.984 131.86 32.216 128.236 32.216C124.756 32.216 123.052 30.056 123.052 26.696V25.256C123.052 21.656 124.948 19.784 128.236 19.784C131.572 19.784 133.42 21.656 133.42 25.256ZM128.236 29.624C129.916 29.624 130.372 28.328 130.372 26.6V25.352C130.372 23.432 129.748 22.376 128.236 22.376C126.724 22.376 126.1 23.432 126.1 25.352V26.6C126.1 28.328 126.532 29.624 128.236 29.624ZM136.54 32V20H139.612V32H136.54ZM136.42 18.416V15.44H139.732V18.416H136.42ZM143.135 32V20H146.135V21.008C146.591 20.408 147.551 19.784 148.895 19.784C151.319 19.784 153.287 20.936 153.287 24.488V32H150.239V24.968C150.239 23.096 149.567 22.424 148.319 22.424C146.903 22.424 146.207 23.36 146.207 24.944V32H143.135Z" fill="white"/>
<g clip-path="url(#clip0_1_1588)">
<path d="M23 46C35.7025 46 46 35.7025 46 23C46 10.2975 35.7025 0 23 0C10.2975 0 0 10.2975 0 23C0 35.7025 10.2975 46 23 46Z" fill="#FFCD00"/>
<path d="M28.8123 30.1008V24.6917L27.9894 24.7828L24.7585 25.1791V30.572L28.8123 30.1008Z" fill="#000A23"/>
<path d="M9.17322 34.4481L9.21826 21.9154L9.88151 22.4507L14.1269 26.0293L14.0826 38.4201L9.17322 34.4481Z" fill="#000A23"/>
<path d="M37.68 23.7334C37.68 23.7334 37.6789 23.7342 37.6782 23.7345L31.35 24.4273L30.1164 24.5527L30.0361 24.5595V31.1925L23.5347 31.9451V25.3291L15.3508 26.3274L15.305 39.011L38.9532 36.3732L38.9989 23.5915L37.68 23.7334Z" fill="#000A23"/>
<path d="M33.5354 17.2098C32.9604 14.8389 32.7493 12.152 32.941 9.94965L36.2756 9.57785L33.5354 17.2098Z" fill="#000A23"/>
<path d="M11.3961 8.56666L34.4336 6.00226C34.6249 5.981 34.8342 6.11394 34.9772 6.23175C35.2579 6.46124 35.7741 7.0211 36.3279 8.34581L12.7183 10.9722C12.3238 9.95874 11.8752 9.14489 11.3943 8.5681L11.3961 8.56666Z" fill="#000A23"/>
<path d="M28.3911 17.6747L28.4722 18.0947L27.4969 16.2184L25.1584 15.9699L24.1994 17.5763L22.2608 17.6213L20.0851 15.78L17.828 15.7166L14.6407 18.6831L12.9045 20.7161L11.3428 16.1316L12.7561 12.2004L31.7139 10.0885C31.5219 12.7609 31.8555 16.0023 32.6614 18.655H32.4841L31.7849 16.7387L28.7633 17.2103L28.3911 17.6747Z" fill="#000A23"/>
<path d="M11.6605 11.6324C11.0326 9.92973 10.4208 9.25207 10.1056 8.99736C9.87143 8.80749 9.66715 8.7358 9.49999 8.78227C9.19412 8.86874 8.85078 9.35222 8.59139 10.0742C7.75844 12.3947 7.82653 16.5205 8.66236 19.9798L11.6605 11.6324Z" fill="#000A23"/>
<path d="M12.9042 20.7137L12.5432 20.86L12.4737 20.9043L9.51224 21.2339L11.3428 16.1316L12.2715 19.1098C12.2838 19.1451 12.5327 19.8604 12.9045 20.7161L12.9042 20.7137Z" fill="#000A23"/>
<path d="M27.5956 26.7531C27.5935 26.8882 27.56 27.0208 27.4976 27.1407C27.4353 27.2607 27.3463 27.3645 27.2372 27.4441L27.3942 29.0844L26.2525 29.2011L26.5213 27.5219C26.4118 27.4632 26.3217 27.3738 26.2619 27.2647C26.2021 27.1555 26.1758 27.0316 26.1855 26.9073C26.1978 26.7037 26.2774 26.5103 26.4118 26.3568C26.5462 26.2037 26.7281 26.0999 26.9284 26.0614C26.9284 26.0614 26.9169 26.0682 26.9198 26.0682C27.3193 26.0225 27.6634 26.3301 27.596 26.7466L27.5956 26.7531Z" fill="#FFCD00"/>
<path d="M11.11 17.1577C14.0098 17.1577 15.5932 18.1755 15.5932 20.3339C15.5932 21.5797 14.9526 22.4396 13.9741 22.9134C15.2372 23.3695 15.9844 24.2821 15.9844 25.7912C15.9844 27.6686 14.739 29.2657 11.5012 29.2657H7V17.1581H11.1096L11.11 17.1577ZM9.49091 21.9482H11.1453C12.515 21.9482 13.1023 21.4219 13.1023 20.5619C13.1023 19.7019 12.6753 19.2282 10.8783 19.2282H9.49055V21.9479L9.49091 21.9482ZM9.49091 27.1948H11.2879C12.7823 27.1948 13.4939 26.6332 13.4939 25.5981C13.4939 24.4575 12.729 24.0187 11.0566 24.0187H9.49091V27.1948Z" stroke="#000A23" stroke-width="2.52026" stroke-linejoin="round"/>
<path d="M11.11 17.1577C14.0098 17.1577 15.5932 18.1755 15.5932 20.3339C15.5932 21.5797 14.9526 22.4396 13.9741 22.9134C15.2372 23.3695 15.9844 24.2821 15.9844 25.7912C15.9844 27.6686 14.739 29.2657 11.5012 29.2657H7V17.1581H11.1096L11.11 17.1577ZM9.49091 21.9482H11.1453C12.515 21.9482 13.1023 21.4219 13.1023 20.5619C13.1023 19.7019 12.6753 19.2282 10.8783 19.2282H9.49055V21.9479L9.49091 21.9482ZM9.49091 27.1948H11.2879C12.7823 27.1948 13.4939 26.6332 13.4939 25.5981C13.4939 24.4575 12.729 24.0187 11.0566 24.0187H9.49091V27.1948Z" stroke="#000A23" stroke-width="2.52026" stroke-linejoin="round"/>
<path d="M27.6907 22.9661V24.0714C27.6907 27.7739 25.9473 29.4232 23.1718 29.4232C20.3963 29.4232 18.475 27.7739 18.475 24.0714V22.5273C18.475 18.6144 20.4143 17 23.1718 17C25.7513 17 27.2994 18.4389 27.673 20.9129H25.2891C25.0755 19.8076 24.4173 19.0705 23.1722 19.0705C21.7311 19.0705 20.9662 20.0356 20.9662 22.3518V24.0714C20.9662 26.3876 21.7311 27.3527 23.1722 27.3527C24.6132 27.3527 25.1468 26.4928 25.2891 25.0365H23.2255V22.9661H27.691H27.6907Z" stroke="#000A23" stroke-width="2.52026" stroke-linejoin="round"/>
<path d="M27.6907 22.9661V24.0714C27.6907 27.7739 25.9473 29.4232 23.1718 29.4232C20.3963 29.4232 18.475 27.7739 18.475 24.0714V22.5273C18.475 18.6144 20.4143 17 23.1718 17C25.7513 17 27.2994 18.4389 27.673 20.9129H25.2891C25.0755 19.8076 24.4173 19.0705 23.1722 19.0705C21.7311 19.0705 20.9662 20.0356 20.9662 22.3518V24.0714C20.9662 26.3876 21.7311 27.3527 23.1722 27.3527C24.6132 27.3527 25.1468 26.4928 25.2891 25.0365H23.2255V22.9661H27.691H27.6907Z" stroke="#000A23" stroke-width="2.52026" stroke-linejoin="round"/>
<path d="M38.5788 17.1577V19.2458H35.1987V29.2653H32.7082V19.2458H29.3277V17.1577H38.5791H38.5788Z" stroke="#000A23" stroke-width="2.52026" stroke-linejoin="round"/>
<path d="M38.5788 17.1577V19.2458H35.1987V29.2653H32.7082V19.2458H29.3277V17.1577H38.5791H38.5788Z" stroke="#000A23" stroke-width="2.52026" stroke-linejoin="round"/>
<path d="M11.11 17.1577C14.0098 17.1577 15.5932 18.1755 15.5932 20.3339C15.5932 21.5797 14.9526 22.4396 13.9741 22.9134C15.2372 23.3695 15.9844 24.2821 15.9844 25.7912C15.9844 27.6686 14.739 29.2657 11.5012 29.2657H7V17.1581H11.1096L11.11 17.1577ZM9.49091 21.9482H11.1453C12.515 21.9482 13.1023 21.4219 13.1023 20.5619C13.1023 19.7019 12.6753 19.2282 10.8783 19.2282H9.49055V21.9479L9.49091 21.9482ZM9.49091 27.1948H11.2879C12.7823 27.1948 13.4939 26.6332 13.4939 25.5981C13.4939 24.4575 12.729 24.0187 11.0566 24.0187H9.49091V27.1948Z" fill="white"/>
<path d="M11.11 17.1577C14.0098 17.1577 15.5932 18.1755 15.5932 20.3339C15.5932 21.5797 14.9526 22.4396 13.9741 22.9134C15.2372 23.3695 15.9844 24.2821 15.9844 25.7912C15.9844 27.6686 14.739 29.2657 11.5012 29.2657H7V17.1581H11.1096L11.11 17.1577ZM9.49091 21.9482H11.1453C12.515 21.9482 13.1023 21.4219 13.1023 20.5619C13.1023 19.7019 12.6753 19.2282 10.8783 19.2282H9.49055V21.9479L9.49091 21.9482ZM9.49091 27.1948H11.2879C12.7823 27.1948 13.4939 26.6332 13.4939 25.5981C13.4939 24.4575 12.729 24.0187 11.0566 24.0187H9.49091V27.1948Z" fill="white"/>
<path d="M27.6907 22.9661V24.0714C27.6907 27.7739 25.9473 29.4232 23.1718 29.4232C20.3963 29.4232 18.475 27.7739 18.475 24.0714V22.5273C18.475 18.6144 20.4143 17 23.1718 17C25.7513 17 27.2994 18.4389 27.673 20.9129H25.2891C25.0755 19.8076 24.4173 19.0705 23.1722 19.0705C21.7311 19.0705 20.9662 20.0356 20.9662 22.3518V24.0714C20.9662 26.3876 21.7311 27.3527 23.1722 27.3527C24.6132 27.3527 25.1468 26.4928 25.2891 25.0365H23.2255V22.9661H27.691H27.6907Z" fill="white"/>
<path d="M27.6907 22.9661V24.0714C27.6907 27.7739 25.9473 29.4232 23.1718 29.4232C20.3963 29.4232 18.475 27.7739 18.475 24.0714V22.5273C18.475 18.6144 20.4143 17 23.1718 17C25.7513 17 27.2994 18.4389 27.673 20.9129H25.2891C25.0755 19.8076 24.4173 19.0705 23.1722 19.0705C21.7311 19.0705 20.9662 20.0356 20.9662 22.3518V24.0714C20.9662 26.3876 21.7311 27.3527 23.1722 27.3527C24.6132 27.3527 25.1468 26.4928 25.2891 25.0365H23.2255V22.9661H27.691H27.6907Z" fill="white"/>
<path d="M38.5788 17.1577V19.2458H35.1987V29.2653H32.7082V19.2458H29.3277V17.1577H38.5791H38.5788Z" fill="white"/>
<path d="M38.5788 17.1577V19.2458H35.1987V29.2653H32.7082V19.2458H29.3277V17.1577H38.5791H38.5788Z" fill="white"/>
</g>
<defs>
<clipPath id="clip0_1_1588">
<rect width="46" height="46" fill="white"/>
</clipPath>
</defs>
</svg>
