<svg width="205" height="45" viewBox="0 0 205 45" fill="none" xmlns="http://www.w3.org/2000/svg">
<g clip-path="url(#clip0_1_3101)">
<path d="M25.6622 45.2107C35.3457 45.2107 43.1957 37.4087 43.1957 27.7845C43.1957 18.1603 35.3457 10.3584 25.6622 10.3584C15.9788 10.3584 8.12878 18.1603 8.12878 27.7845C8.12878 37.4087 15.9788 45.2107 25.6622 45.2107Z" fill="url(#paint0_radial_1_3101)"/>
<path fill-rule="evenodd" clip-rule="evenodd" d="M5.06632 12.8734C4.5599 15.4988 5.04182 15.2358 5.04182 15.2358C5.04182 15.2358 5.527 15.5248 6.36342 14.614C7.19984 13.7031 6.5856 11.2807 10.998 7.16474C10.998 7.16474 7.93171 10.5257 7.74057 12.8312C7.74057 12.8312 8.67828 10.6263 13.6657 9.19591C13.6657 9.19591 7.00871 10.9056 6.38466 16.6192C6.38466 16.6192 3.96525 19.9168 7.81245 23.7761L31.371 11.37C31.371 11.37 29.6933 4.60427 24.7973 2.91569C19.9029 1.22712 14.4662 -1.54605 10.4197 1.08261C5.87007 4.03762 5.83903 8.85657 5.06632 12.8734Z" fill="url(#paint1_linear_1_3101)"/>
<path d="M6.24907 22.3881L6.96786 23.7357C6.96786 23.7357 7.04628 25.9519 8.84164 26.7329C8.84164 26.7329 13.2345 22.8265 19.1482 19.446C19.5778 19.2187 20.1169 18.9362 20.5466 18.7089L20.6544 18.6521L22.0528 17.915C28.1871 14.9502 33.9064 13.5312 33.9064 13.5312C34.2642 11.6169 32.4639 10.3066 32.4639 10.3066L31.7451 8.95901C29.9481 3.26818 2.51622 17.7136 6.24907 22.3881Z" fill="#FFF7F3"/>
<path d="M26.1875 16.0442C26.1875 16.0442 23.1212 16.5329 21.744 17.0054C20.3669 17.4778 16.0394 20.5481 14.5169 21.3664C12.9943 22.1848 10.655 23.0177 8.91189 21.2479C8.90045 21.2366 8.34829 20.6472 8.33685 20.6358C7.14267 18.7508 10.655 15.6155 10.6615 15.6074L8.69788 17.1905C7.75364 18.0315 7.00381 18.8498 6.51699 19.6064C5.8325 20.6715 5.67403 21.6149 6.24417 22.3309L6.96297 23.6785C6.96297 23.6785 7.04138 25.8948 8.83674 26.6757C8.83674 26.6757 13.2296 22.7693 19.1433 19.3889C19.573 19.1616 20.1121 18.879 20.5417 18.6517L20.6495 18.5949C21.0792 18.3676 21.6183 18.0851 22.0479 17.8578L26.1859 16.0409L26.1875 16.0442Z" fill="#EFE8E6"/>
<path d="M4.80658 16.944C6.3566 16.944 7.61315 15.6952 7.61315 14.1546C7.61315 12.6141 6.3566 11.3652 4.80658 11.3652C3.25655 11.3652 2 12.6141 2 14.1546C2 15.6952 3.25655 16.944 4.80658 16.944Z" fill="#FFF7F3"/>
<path d="M13.34 28.7503C13.3687 28.7503 13.3914 28.7578 13.3914 28.8074C13.4065 29.0312 13.5078 29.3406 13.6816 29.6215C13.8916 29.9535 14.2468 30.1112 14.5959 30.1112C14.9451 30.1112 15.5028 29.8799 15.5028 29.3106C15.5028 28.7127 15.3864 28.5385 14.4433 28.1855C14.2257 28.1059 13.7617 27.8761 13.3914 27.5576C13.1375 27.3338 13.0286 26.9523 13.0286 26.5332C13.0286 26.093 13.1375 25.7971 13.5727 25.4727C13.8992 25.2278 14.1743 25.1272 14.6171 25.1272C15.1461 25.1272 15.4302 25.2143 15.5814 25.2714C15.6539 25.2999 15.7053 25.2864 15.7476 25.2353L15.8413 25.1422C15.87 25.1137 15.9063 25.0986 15.9501 25.0986C16.0015 25.0986 16.0151 25.1782 16.0227 25.2218L16.1391 26.4551C16.1391 26.4836 16.1239 26.4911 16.1028 26.4986L15.9426 26.5497C15.9063 26.5647 15.87 26.5497 15.8489 26.4986C15.7688 26.2898 15.6463 26.0089 15.3985 25.7491C15.2171 25.5478 14.9995 25.4456 14.673 25.4456C14.1289 25.4456 13.9037 25.9143 13.9037 26.1021C13.9037 26.3694 13.9113 26.5857 14.0927 26.766C14.2816 26.9613 14.6942 27.134 15.0509 27.2347C15.3985 27.3353 15.6826 27.5156 15.9788 27.7829C16.2615 28.0353 16.3779 28.3522 16.3779 28.8569C16.3779 29.7372 15.7461 30.4507 14.7894 30.4507C14.1365 30.4507 13.7949 30.3426 13.4911 30.1413C13.4035 30.0842 13.3611 30.0617 13.3249 30.0617C13.281 30.0617 13.2523 30.1127 13.2085 30.1848C13.1647 30.2644 13.1284 30.272 13.0785 30.272C12.9984 30.272 12.9697 30.2359 12.9773 30.1563L13.0936 28.7863C13.1012 28.7353 13.1224 28.7353 13.1511 28.7353L13.34 28.7503Z" fill="white"/>
<path d="M18.1567 28.4557C18.0993 28.6074 17.7426 29.5943 17.7426 29.8257C17.7426 29.9849 17.8076 30.1576 18.0252 30.1576H18.2792C18.3517 30.1576 18.3593 30.1862 18.3593 30.2147V30.3739C18.3593 30.431 18.3517 30.4536 18.2943 30.4536C18.2006 30.4536 17.9028 30.4325 17.3073 30.4325C16.7784 30.4325 16.6182 30.4536 16.5169 30.4536C16.4731 30.4536 16.4655 30.41 16.4655 30.3604V30.2237C16.4655 30.1802 16.4731 30.1591 16.5169 30.1591H16.7058C16.8796 30.1591 17.0534 30.0585 17.1985 29.8422C17.2998 29.6905 17.8152 28.4362 18.054 27.8023C18.1114 27.6581 18.6993 26.1079 18.7643 25.9126C18.7855 25.8405 18.8217 25.7474 18.7719 25.6678C18.7507 25.6392 18.7205 25.6032 18.7205 25.5747C18.7205 25.5536 18.7356 25.5236 18.793 25.5101C19.0258 25.459 19.4973 25.2727 19.6061 25.1496C19.6424 25.1135 19.6636 25.085 19.6998 25.085C19.7437 25.085 19.7573 25.1285 19.7799 25.2081C19.9175 25.6618 20.4842 27.2781 20.6218 27.7392C20.788 28.3025 21.2596 29.6424 21.3624 29.8377C21.4863 30.075 21.6737 30.1621 21.7825 30.1621H22.0289C22.0727 30.1621 22.0803 30.1907 22.0803 30.2267V30.3634C22.0803 30.407 22.0727 30.4566 22.0153 30.4566C21.8777 30.4566 21.7251 30.4355 20.7971 30.4355C20.1956 30.4355 19.9417 30.4566 19.7966 30.4566C19.724 30.4566 19.7165 30.413 19.7165 30.3634V30.2267C19.7165 30.1907 19.724 30.1621 19.7603 30.1621H19.9628C20.1593 30.1621 20.2243 30.09 20.1805 29.9023C20.1155 29.6424 19.8328 28.7201 19.7452 28.4602H18.1567V28.4557ZM19.6802 28.1673C19.6152 27.951 19.1875 26.4369 19.1361 26.2566C19.1074 26.1485 19.0923 26.0974 19.056 26.0974C19.0122 26.0974 18.991 26.1259 18.9683 26.1905C18.9321 26.2837 18.3079 27.9856 18.2504 28.1658H19.6802V28.1673Z" fill="white"/>
<path d="M27.1872 28.2682C27.1872 27.6268 27.1796 27.2738 27.166 26.9133C27.1585 26.6324 27.1222 25.9249 27.101 25.8167C27.0572 25.6365 26.8834 25.5358 26.7172 25.5358H26.4844C26.4481 25.5358 26.4406 25.5148 26.4406 25.4712V25.291C26.4406 25.2549 26.4481 25.2399 26.5056 25.2399C26.5857 25.2399 26.8169 25.2609 27.355 25.2609C27.7902 25.2609 27.964 25.2399 28.0441 25.2399C28.1091 25.2399 28.1167 25.2549 28.1167 25.297V25.4697C28.1167 25.5058 28.1091 25.5343 28.0804 25.5343H27.8779C27.754 25.5343 27.6814 25.6575 27.6603 25.9159C27.6089 26.3995 27.494 28.0293 27.494 28.9802V30.2134C27.494 30.3216 27.4864 30.4508 27.3852 30.4508C27.2764 30.4508 27.1827 30.4147 27.1026 30.3351C26.9786 30.2194 26.6235 29.8379 26.1882 29.3257C25.6652 28.7128 25.0849 28.0203 24.9473 27.8626C24.8234 27.7184 23.8229 26.4776 23.6566 26.2403H23.5992V27.6974C23.5992 28.2952 23.6642 29.183 23.6717 29.4564C23.6869 29.8739 23.8168 30.0903 24.1221 30.0903H24.3035C24.3549 30.0903 24.3609 30.1113 24.3609 30.1548V30.3276C24.3609 30.3712 24.3534 30.3847 24.3035 30.3847C24.2309 30.3847 23.7957 30.3636 23.4541 30.3636C23.2289 30.3636 22.7286 30.3847 22.6561 30.3847C22.6274 30.3847 22.6198 30.3696 22.6198 30.3201V30.1323C22.6198 30.1113 22.6274 30.0888 22.6637 30.0888H22.9176C23.0778 30.0888 23.1926 29.8574 23.2289 29.3752C23.2365 29.2385 23.2939 28.0849 23.2939 27.0169V26.368C23.2939 25.9429 23.0324 25.5388 22.6697 25.5313L22.4883 25.5238C22.4521 25.5238 22.4445 25.4953 22.4445 25.4727V25.2774C22.4445 25.2489 22.4521 25.2339 22.4883 25.2339C22.5246 25.2339 22.582 25.2414 22.7211 25.2414C22.8662 25.2489 23.0989 25.2564 23.4753 25.2564C23.7216 25.2564 23.9393 25.2414 24.0269 25.2414C24.1206 25.2414 24.1796 25.2699 24.237 25.3345C24.2733 25.3781 25.703 27.116 25.9207 27.3819C26.0219 27.5051 27.0814 28.824 27.1615 28.9186H27.1902V28.2622L27.1872 28.2682Z" fill="white"/>
<path d="M30.4427 25.7341H30.1903C29.9591 25.7341 29.5283 25.7416 29.2245 25.8483C29.0658 25.9625 28.7484 26.3996 28.5686 26.6579C28.5474 26.694 28.5248 26.715 28.496 26.7075L28.3373 26.6504C28.3086 26.6429 28.3011 26.6069 28.3086 26.5858C28.3872 26.2854 28.626 25.3406 28.6547 25.1964C28.6759 25.1032 28.7122 25.0747 28.762 25.0747C28.8119 25.0747 28.8346 25.1032 28.8996 25.1814C28.9782 25.282 29.1157 25.3466 29.3757 25.3601C29.758 25.3811 30.0603 25.4037 30.8084 25.4037H31.2256C32.0115 25.4037 32.3213 25.3751 32.6236 25.3601C32.7823 25.3526 33.0634 25.267 33.1496 25.1814C33.2221 25.1093 33.2644 25.0747 33.3158 25.0747C33.3672 25.0747 33.3884 25.1032 33.402 25.1889C33.4231 25.3466 33.5607 26.2343 33.6181 26.6144C33.6256 26.6429 33.6105 26.6715 33.5894 26.679L33.4382 26.7361C33.4095 26.7436 33.3944 26.721 33.3657 26.6715C33.207 26.4131 32.9259 26.0421 32.746 25.8693C32.5662 25.7627 31.9253 25.7326 31.7591 25.7326H31.5218V27.7019C31.5218 27.8026 31.5218 29.8064 31.5294 29.9146C31.5445 30.0933 31.6019 30.2015 31.7742 30.2015H32.0976C32.1626 30.2015 32.1702 30.2225 32.1702 30.2736V30.4388C32.1702 30.4748 32.1626 30.4959 32.0976 30.4959C32.0251 30.4959 31.7954 30.4748 30.9959 30.4748C30.1963 30.4748 29.9303 30.4959 29.8291 30.4959C29.7716 30.4959 29.7641 30.4673 29.7641 30.4103V30.2736C29.7641 30.224 29.7716 30.2015 29.814 30.2015H30.1812C30.3248 30.2015 30.4125 30.1158 30.4261 29.9867C30.4412 29.8364 30.4412 27.6388 30.4412 27.5021V25.7341H30.4427Z" fill="white"/>
<path d="M34.4221 28.4557C34.3647 28.6074 34.008 29.5943 34.008 29.8257C34.008 29.9849 34.073 30.1576 34.2906 30.1576H34.5446C34.6171 30.1576 34.6247 30.1862 34.6247 30.2147V30.3739C34.6247 30.431 34.6171 30.4536 34.5597 30.4536C34.466 30.4536 34.1682 30.4325 33.5727 30.4325C33.0438 30.4325 32.8836 30.4536 32.7823 30.4536C32.7385 30.4536 32.7309 30.41 32.7309 30.3604V30.2237C32.7309 30.1802 32.7385 30.1591 32.7823 30.1591H32.9712C33.145 30.1591 33.3188 30.0585 33.4639 29.8422C33.5652 29.6905 34.0806 28.4362 34.3194 27.8023C34.3768 27.6581 34.9647 26.1079 35.0297 25.9126C35.0509 25.8405 35.0871 25.7474 35.0373 25.6678C35.0161 25.6392 34.9859 25.6032 34.9859 25.5747C34.9859 25.5536 35.001 25.5236 35.0584 25.5101C35.2912 25.459 35.7627 25.2727 35.8715 25.1496C35.9078 25.1135 35.929 25.085 35.9652 25.085C36.0091 25.085 36.0227 25.1285 36.0453 25.2081C36.1829 25.6618 36.7496 27.2781 36.8872 27.7392C37.0534 28.3025 37.525 29.6424 37.6278 29.8377C37.7517 30.075 37.9391 30.1621 38.0479 30.1621H38.2943C38.3381 30.1621 38.3457 30.1907 38.3457 30.2267V30.3634C38.3457 30.407 38.3381 30.4566 38.2807 30.4566C38.1431 30.4566 37.9905 30.4355 37.0625 30.4355C36.461 30.4355 36.2071 30.4566 36.062 30.4566C35.9894 30.4566 35.9819 30.413 35.9819 30.3634V30.2267C35.9819 30.1907 35.9894 30.1621 36.0257 30.1621H36.2282C36.4247 30.1621 36.4897 30.09 36.4459 29.9023C36.3809 29.6424 36.0982 28.7201 36.0106 28.4602H34.4221V28.4557ZM35.9456 28.1673C35.8806 27.951 35.4529 26.4369 35.4015 26.2566C35.3728 26.1485 35.3577 26.0974 35.3214 26.0974C35.2776 26.0974 35.2564 26.1259 35.2337 26.1905C35.1975 26.2837 34.5733 27.9856 34.5158 28.1658H35.9456V28.1673Z" fill="white"/>
</g>
<g clip-path="url(#clip1_1_3101)">
<path d="M57.1535 28.8649C57.3232 28.8649 57.4573 28.9096 57.4573 29.2045C57.5466 30.5359 58.1453 32.3766 59.1729 34.0475C60.4149 36.0223 62.5147 36.9605 64.5788 36.9605C66.6429 36.9605 69.9401 35.5844 69.9401 32.1979C69.9401 28.6416 69.2521 27.605 63.6764 25.5052C62.3896 25.0316 59.6465 23.6645 57.4573 21.7702C55.9472 20.4566 55.3038 18.187 55.3038 15.694C55.3038 13.0759 55.9472 11.3156 58.5206 9.38558C60.4506 7.9291 62.0858 7.33042 64.7039 7.33042C67.8314 7.33042 69.5112 7.84868 70.4048 8.18823C70.8337 8.358 71.1375 8.27758 71.3877 7.97377L71.9417 7.41977C72.1115 7.25 72.3259 7.16064 72.585 7.16064C72.8888 7.16064 72.9693 7.63423 73.0139 7.89335L73.702 15.2294C73.702 15.3992 73.6126 15.4438 73.4875 15.4885L72.5404 15.7923C72.3259 15.8817 72.1115 15.7923 71.9864 15.4885C71.5128 14.2465 70.789 12.5755 69.3236 11.0297C68.2513 9.83236 66.9646 9.22474 65.0345 9.22474C61.8178 9.22474 60.4864 12.0126 60.4864 13.1295C60.4864 14.7201 60.5311 16.0068 61.6033 17.079C62.7203 18.2406 65.1596 19.2682 67.2684 19.8669C69.3236 20.4656 71.0035 21.5378 72.7548 23.1284C74.4257 24.6295 75.1138 26.5149 75.1138 29.5172C75.1138 34.7534 71.3787 38.9978 65.7226 38.9978C61.8625 38.9978 59.843 38.3544 58.047 37.1571C57.5287 36.8175 57.2785 36.6835 57.0641 36.6835C56.805 36.6835 56.6352 36.9873 56.3761 37.4162C56.1169 37.8898 55.9025 37.9345 55.6076 37.9345C55.134 37.9345 54.9643 37.72 55.0089 37.2464L55.697 29.0973C55.7416 28.7935 55.8667 28.7935 56.0365 28.7935L57.1535 28.8828V28.8649Z" fill="white"/>
<path d="M85.6308 27.1049C85.2913 28.0074 83.1825 33.878 83.1825 35.2541C83.1825 36.2013 83.5667 37.2288 84.8535 37.2288H86.3546C86.7835 37.2288 86.8282 37.3986 86.8282 37.5684V38.5156C86.8282 38.8551 86.7835 38.9891 86.444 38.9891C85.89 38.9891 84.1297 38.864 80.6091 38.864C77.4817 38.864 76.5345 38.9891 75.9358 38.9891C75.6767 38.9891 75.632 38.73 75.632 38.4351V37.622C75.632 37.3629 75.6767 37.2378 75.9358 37.2378H77.0528C78.0804 37.2378 79.1079 36.6391 79.9657 35.3524C80.5644 34.4499 83.6114 26.9888 85.0232 23.218C85.3628 22.3602 88.8387 13.1388 89.2229 11.9772C89.348 11.5483 89.5625 10.9943 89.2676 10.5207C89.1425 10.3509 88.9638 10.1365 88.9638 9.96668C88.9638 9.84158 89.0531 9.66287 89.3927 9.58245C90.7688 9.27865 93.5566 8.17065 94.2 7.43794C94.4144 7.22349 94.5395 7.05371 94.754 7.05371C95.0131 7.05371 95.0935 7.31284 95.2276 7.78642C96.0407 10.4849 99.3915 20.0995 100.205 22.8427C101.188 26.1935 103.975 34.164 104.583 35.3256C105.316 36.7374 106.424 37.2557 107.067 37.2557H108.524C108.783 37.2557 108.827 37.4254 108.827 37.6399V38.453C108.827 38.7121 108.783 39.007 108.443 39.007C107.63 39.007 106.728 38.8819 101.241 38.8819C97.6848 38.8819 96.1837 39.007 95.3258 39.007C94.8969 39.007 94.8523 38.7479 94.8523 38.453V37.6399C94.8523 37.4254 94.8969 37.2557 95.1114 37.2557H96.3088C97.4704 37.2557 97.8546 36.8267 97.5955 35.7098C97.2112 34.164 95.5403 28.6776 95.022 27.1318H85.6308V27.1049ZM94.6378 25.3893C94.2536 24.1026 91.7248 15.0956 91.421 14.0234C91.2513 13.38 91.1619 13.0762 90.9475 13.0762C90.6883 13.0762 90.5632 13.246 90.4292 13.6302C90.2148 14.1842 86.5244 24.3081 86.1848 25.3804H94.6378V25.3893Z" fill="white"/>
<path d="M139.02 25.9877C139.02 22.1722 138.976 20.0724 138.895 17.9279C138.851 16.2569 138.636 12.0483 138.511 11.405C138.252 10.3327 137.224 9.73402 136.241 9.73402H134.865C134.651 9.73402 134.606 9.60892 134.606 9.3498V8.27754C134.606 8.06309 134.651 7.97373 134.99 7.97373C135.464 7.97373 136.831 8.09883 140.012 8.09883C142.586 8.09883 143.613 7.97373 144.087 7.97373C144.471 7.97373 144.516 8.06309 144.516 8.31328V9.34086C144.516 9.55531 144.471 9.72509 144.301 9.72509H143.104C142.371 9.72509 141.942 10.4578 141.817 11.9947C141.513 14.8719 140.834 24.5669 140.834 30.2231V37.5591C140.834 38.2025 140.79 38.9709 140.191 38.9709C139.548 38.9709 138.994 38.7565 138.52 38.2829C137.787 37.5949 135.687 35.3253 133.114 32.2783C130.022 28.6326 126.591 24.5133 125.778 23.5751C125.045 22.7173 119.13 15.3366 118.147 13.9248H117.808V22.5922C117.808 26.1485 118.192 31.4294 118.236 33.0556C118.326 35.5397 119.094 36.8264 120.899 36.8264H121.971C122.275 36.8264 122.311 36.9515 122.311 37.2106V38.2382C122.311 38.4974 122.266 38.5778 121.971 38.5778C121.543 38.5778 118.969 38.4527 116.95 38.4527C115.618 38.4527 112.661 38.5778 112.232 38.5778C112.062 38.5778 112.017 38.4884 112.017 38.1935V37.0766C112.017 36.9515 112.062 36.8175 112.276 36.8175H113.778C114.725 36.8175 115.404 35.4414 115.618 32.5731C115.663 31.76 116.003 24.8975 116.003 18.5444V14.6843C116.003 12.1555 114.457 9.75189 112.312 9.70721L111.24 9.66254C111.025 9.66254 110.981 9.49276 110.981 9.35873V8.19712C110.981 8.02734 111.025 7.93799 111.24 7.93799C111.454 7.93799 111.794 7.98267 112.616 7.98267C113.474 8.02734 114.85 8.07202 117.075 8.07202C118.531 8.07202 119.818 7.98267 120.336 7.98267C120.89 7.98267 121.239 8.15244 121.578 8.53667C121.793 8.7958 130.246 19.1342 131.532 20.7157C132.131 21.4484 138.395 29.2938 138.868 29.8567H139.038V25.9519L139.02 25.9877Z" fill="white"/>
<path d="M158.267 10.9139H156.775C155.408 10.9139 152.861 10.9586 151.065 11.593C150.127 12.2721 148.251 14.8723 147.187 16.4092C147.062 16.6237 146.928 16.7488 146.759 16.7041L145.82 16.3645C145.651 16.3199 145.606 16.1054 145.651 15.9803C146.115 14.1932 147.527 8.57279 147.697 7.71499C147.822 7.16099 148.036 6.99121 148.331 6.99121C148.626 6.99121 148.76 7.16099 149.144 7.62563C149.609 8.22431 150.422 8.60853 151.959 8.68895C154.22 8.81405 156.007 8.94808 160.43 8.94808H162.896C167.542 8.94808 169.374 8.77831 171.161 8.68895C172.1 8.64428 173.762 8.13495 174.271 7.62563C174.7 7.19673 174.95 6.99121 175.254 6.99121C175.558 6.99121 175.683 7.16099 175.763 7.67031C175.888 8.60853 176.701 13.8894 177.041 16.1501C177.086 16.3199 176.996 16.4896 176.871 16.5343L175.978 16.8739C175.808 16.9185 175.718 16.7845 175.549 16.4896C174.61 14.9527 172.948 12.7457 171.885 11.7181C170.822 11.0837 167.033 10.905 166.05 10.905H164.647V22.6194C164.647 23.2181 164.647 35.138 164.692 35.7813C164.781 36.8447 165.121 37.488 166.14 37.488H168.052C168.436 37.488 168.481 37.6131 168.481 37.9169V38.8998C168.481 39.1143 168.436 39.2394 168.052 39.2394C167.623 39.2394 166.265 39.1143 161.538 39.1143C156.811 39.1143 155.238 39.2394 154.64 39.2394C154.3 39.2394 154.255 39.0696 154.255 38.7301V37.9169C154.255 37.6221 154.3 37.488 154.55 37.488H156.722C157.57 37.488 158.089 36.9787 158.169 36.2102C158.258 35.3167 158.258 22.2441 158.258 21.431V10.9139H158.267Z" fill="white"/>
<path d="M181.795 27.1049C181.455 28.0074 179.346 33.878 179.346 35.2541C179.346 36.2013 179.73 37.2288 181.017 37.2288H182.518C182.947 37.2288 182.992 37.3986 182.992 37.5684V38.5156C182.992 38.8551 182.947 38.9891 182.608 38.9891C182.054 38.9891 180.293 38.864 176.773 38.864C173.645 38.864 172.698 38.9891 172.1 38.9891C171.84 38.9891 171.796 38.73 171.796 38.4351V37.622C171.796 37.3629 171.84 37.2378 172.1 37.2378H173.216C174.244 37.2378 175.272 36.6391 176.129 35.3524C176.728 34.4499 179.775 26.9888 181.187 23.218C181.526 22.3602 185.002 13.1388 185.387 11.9772C185.512 11.5483 185.726 10.9943 185.431 10.5207C185.306 10.3509 185.127 10.1365 185.127 9.96668C185.127 9.84158 185.217 9.66287 185.556 9.58245C186.932 9.27865 189.72 8.17065 190.364 7.43794C190.578 7.22349 190.703 7.05371 190.918 7.05371C191.177 7.05371 191.257 7.31284 191.391 7.78642C192.204 10.4849 195.555 20.0995 196.368 22.8427C197.351 26.1935 200.139 34.164 200.747 35.3256C201.479 36.7374 202.587 37.2557 203.231 37.2557H204.687C204.946 37.2557 204.991 37.4254 204.991 37.6399V38.453C204.991 38.7121 204.946 39.007 204.607 39.007C203.794 39.007 202.891 38.8819 197.405 38.8819C193.849 38.8819 192.347 39.007 191.49 39.007C191.061 39.007 191.016 38.7479 191.016 38.453V37.6399C191.016 37.4254 191.061 37.2557 191.275 37.2557H192.472C193.634 37.2557 194.018 36.8267 193.759 35.7098C193.375 34.164 191.704 28.6776 191.186 27.1318H181.795V27.1049ZM190.802 25.3893C190.417 24.1026 187.889 15.0956 187.585 14.0234C187.415 13.38 187.326 13.0762 187.111 13.0762C186.852 13.0762 186.727 13.246 186.593 13.6302C186.378 14.1842 182.688 24.3081 182.349 25.3804H190.802V25.3893Z" fill="white"/>
</g>
<defs>
<radialGradient id="paint0_radial_1_3101" cx="0" cy="0" r="1" gradientUnits="userSpaceOnUse" gradientTransform="translate(25.6622 27.7845) scale(17.5334 17.4261)">
<stop offset="0.01" stop-color="#006D29"/>
<stop offset="1" stop-color="#054100"/>
</radialGradient>
<linearGradient id="paint1_linear_1_3101" x1="4.59728" y1="12.5279" x2="31.2044" y2="9.76137" gradientUnits="userSpaceOnUse">
<stop stop-color="#B61216"/>
<stop offset="0.03" stop-color="#BB0F15"/>
<stop offset="0.17" stop-color="#CE0813"/>
<stop offset="0.34" stop-color="#DB0312"/>
<stop offset="0.55" stop-color="#E20012"/>
<stop offset="1" stop-color="#E50012"/>
</linearGradient>
<clipPath id="clip0_1_3101">
<rect width="45" height="45" fill="white"/>
</clipPath>
<clipPath id="clip1_1_3101">
<rect width="150" height="32.2392" fill="white" transform="translate(55 7)"/>
</clipPath>
</defs>
</svg>
