<svg width="280" height="23" viewBox="0 0 280 23" fill="none" xmlns="http://www.w3.org/2000/svg">
<path d="M11.0965 3.85221C12.2431 2.69665 13.5786 1.85258 15 1.30326C11.0021 -0.239171 6.30283 0.604897 3.08059 3.85221L0.581721 6.37102C-0.193907 7.15312 -0.193907 8.41923 0.581721 9.20133L11.0814 19.7823C6.72774 15.3778 6.73279 8.25008 11.0965 3.85221Z" fill="#18539E"/>
<path d="M29.4182 6.37099L26.9194 3.85218C23.6954 0.604865 18.9978 -0.239203 15 1.30491C16.4214 1.85422 17.7568 2.69829 18.9034 3.85386C23.2672 8.25172 23.2722 15.3794 18.9186 19.784L29.4182 9.20297C30.1939 8.42087 30.1939 7.15477 29.4182 6.37267V6.37099Z" fill="#4FBCEC"/>
<path d="M18.9034 3.85413C17.7568 2.69856 16.4214 1.85449 15 1.30518C13.5785 1.85449 12.2431 2.69856 11.0965 3.85413C6.73278 8.25199 6.72772 15.3797 11.0814 19.7842L13.5971 22.3198C13.9849 22.71 14.4924 22.906 15 22.906C15.5075 22.906 16.015 22.71 16.4028 22.3198L18.9186 19.7842C23.2722 15.3797 23.2672 8.25199 18.9034 3.85413Z" fill="#228FCE"/>
<path d="M60.5678 11.8884L66.3334 1.57275H71.1355V21.9036H66.3033V10.4147L61.9 18.5485H59.1376L54.8322 10.5077V21.9108H50V1.57275H54.772L60.5678 11.8884Z" fill="white"/>
<path d="M88.3793 1.57275V5.63606H80.0094V9.34884H87.4459V13.4122H80.0094V17.8331H88.3793V21.8965H74.8609V1.57275H88.3793Z" fill="white"/>
<path d="M102.388 21.9036L98.82 14.2134H96.1555V21.9036H91.0071V1.57275H99.0684C103.999 1.57275 107.16 3.72602 107.16 7.96818C107.16 10.6222 105.918 12.4178 103.75 13.3621L108.025 21.9036H102.38H102.388ZM98.4512 10.1501C100.529 10.1501 102.019 9.88537 102.019 7.96818C102.019 6.05098 100.529 5.64322 98.4512 5.64322H96.1555V10.1501H98.4512Z" fill="white"/>
<path d="M121.175 7.84655C120.956 6.55173 120.031 5.34275 118.201 5.34275C116.064 5.34275 114.912 6.81642 114.912 10.1429V13.3263C114.912 16.5097 116.026 18.1264 118.201 18.1264C120.031 18.1264 120.866 17.2394 121.175 15.6226H126.075C125.329 20.1867 122.725 22.1898 118.201 22.1898C113.332 22.1898 109.771 19.3927 109.771 13.3191V10.1357C109.771 4.00501 113.339 1.26514 118.201 1.26514C122.447 1.26514 125.36 3.41841 126.075 7.83225H121.175V7.84655Z" fill="white"/>
<path d="M145.726 1.57275V13.684C145.726 19.6931 142.038 22.1969 137.296 22.1969C132.554 22.1969 128.866 19.6931 128.866 13.7126V1.57275H134.014V13.7126C134.014 16.6886 134.948 18.1336 137.304 18.1336C139.66 18.1336 140.593 16.6886 140.593 13.7126V1.57275H145.741H145.726Z" fill="white"/>
<path d="M160.826 21.9036L157.259 14.2134H154.594V21.9036H149.446V1.57275H157.507C162.437 1.57275 165.599 3.72602 165.599 7.96818C165.599 10.6222 164.357 12.4178 162.189 13.3621L166.464 21.9036H160.819H160.826ZM156.89 10.1501C158.967 10.1501 160.458 9.88537 160.458 7.96818C160.458 6.05098 158.967 5.64322 156.89 5.64322H154.594V10.1501H156.89Z" fill="white"/>
<path d="M171.741 1.57275L175.06 8.55478L178.38 1.57275H184.304L177.642 13.7698V21.9036H172.494V13.7698L165.825 1.57275H171.749H171.741Z" fill="white"/>
<path d="M197.656 1.57275L201.653 13.8557L205.687 1.57275H211.295L203.979 21.9036H199.357L192.049 1.57275H197.656Z" fill="white"/>
<path d="M209.443 21.9036L216.88 1.57275H221.84L229.277 21.9036H223.789L222.645 18.4269H216.044L214.93 21.9036H209.443ZM217.377 14.3636H221.313L219.364 8.35448L217.377 14.3636Z" fill="white"/>
<path d="M247.695 1.57275V13.684C247.695 19.6931 244.006 22.1969 239.265 22.1969C234.523 22.1969 230.834 19.6931 230.834 13.7126V1.57275H235.983V13.7126C235.983 16.6886 236.916 18.1336 239.272 18.1336C241.628 18.1336 242.561 16.6886 242.561 13.7126V1.57275H247.71H247.695Z" fill="white"/>
<path d="M256.561 17.8331H264.931V21.8965H251.413V1.57275H256.561V17.8331Z" fill="white"/>
<path d="M280 1.57275V5.63606H274.423V21.8965H269.275V5.63606H263.697V1.57275H280Z" fill="white"/>
</svg>
