<svg width="121" height="121" viewBox="0 0 121 121" fill="none" xmlns="http://www.w3.org/2000/svg">
<path d="M60.3198 120.85C93.4569 120.85 120.32 93.9872 120.32 60.8501C120.32 27.713 93.4569 0.850098 60.3198 0.850098C27.1827 0.850098 0.319824 27.713 0.319824 60.8501C0.319824 93.9872 27.1827 120.85 60.3198 120.85Z" fill="#0059BA"/>
<path fill-rule="evenodd" clip-rule="evenodd" d="M47.2346 86.9588C57.8403 87.0212 64.4844 74.8559 57.9651 65.9659C56.8109 64.3906 55.3916 63.1585 54.1907 61.4897C49.2934 54.6584 45.8465 43.6472 52.4127 37.159C56.8733 32.7608 53.5668 25.3836 47.6089 25.3524C41.6355 25.3212 38.251 32.636 42.6492 37.0966C49.1374 43.6628 45.5658 54.6272 40.5749 61.3961C39.3584 63.0493 37.9235 64.2814 36.7537 65.8255C30.1252 74.6376 36.6134 86.8965 47.219 86.9588H47.2346Z" fill="url(#paint0_linear_190_31)"/>
<path fill-rule="evenodd" clip-rule="evenodd" d="M73.3905 34.7414C62.7849 34.6791 56.1407 46.8444 62.6601 55.7344C63.8142 57.3097 65.2335 58.5418 66.4344 60.2106C71.3318 67.0419 74.7786 78.0531 68.2125 84.5413C63.7518 88.9395 67.0583 96.3167 73.0162 96.3479C78.9897 96.3791 82.3741 89.0643 77.9759 84.6037C71.4877 78.0375 75.0594 67.0731 80.0503 60.3042C81.2668 58.651 82.7017 57.4188 83.8714 55.8748C90.5 47.0627 84.0118 34.8038 73.4061 34.7414H73.3905Z" fill="white"/>
<defs>
<linearGradient id="paint0_linear_190_31" x1="34.0867" y1="56.1556" x2="60.5541" y2="56.1556" gradientUnits="userSpaceOnUse">
<stop offset="0.04" stop-color="#E6819C"/>
<stop offset="1" stop-color="#E67EB4"/>
</linearGradient>
</defs>
</svg>
