<svg width="211" height="36" viewBox="0 0 211 36" fill="none" xmlns="http://www.w3.org/2000/svg">
<path d="M15 33C23.2843 33 30 26.2843 30 18C30 9.71573 23.2843 3 15 3C6.71573 3 0 9.71573 0 18C0 26.2843 6.71573 33 15 33Z" fill="#FB2C2B"/>
<path d="M54.9061 31.004C53.0101 31.004 51.2341 30.728 49.5781 30.176C47.9221 29.6 46.4701 28.796 45.2221 27.764C43.9741 26.708 43.0021 25.46 42.3061 24.02C41.6101 22.556 41.2621 20.936 41.2621 19.16C41.2621 17.528 41.5861 15.968 42.2341 14.48C42.8821 12.968 43.8301 11.624 45.0781 10.448C46.3501 9.272 47.8981 8.336 49.7221 7.64C51.5461 6.944 53.6221 6.596 55.9501 6.596C56.6941 6.596 57.4621 6.656 58.2541 6.776C59.0701 6.896 59.8501 7.052 60.5941 7.244C61.3621 7.436 62.0221 7.652 62.5741 7.892C62.7661 7.988 62.9341 8.108 63.0781 8.252C63.2461 8.396 63.3421 8.6 63.3661 8.864C63.4861 9.728 63.5581 10.544 63.5821 11.312C63.6301 12.056 63.6541 12.692 63.6541 13.22C63.6541 13.508 63.5461 13.7 63.3301 13.796C63.1381 13.892 62.9221 13.892 62.6821 13.796C62.4661 13.7 62.3101 13.508 62.2141 13.22C62.0461 12.74 61.8541 12.236 61.6381 11.708C61.4461 11.18 61.1461 10.724 60.7381 10.34C60.2581 9.836 59.5981 9.416 58.7581 9.08C57.9181 8.744 56.8741 8.576 55.6261 8.576C54.4261 8.576 53.3461 8.84 52.3861 9.368C51.4261 9.872 50.6101 10.58 49.9381 11.492C49.2661 12.38 48.7501 13.4 48.3901 14.552C48.0301 15.68 47.8501 16.868 47.8501 18.116C47.8501 19.724 48.0061 21.2 48.3181 22.544C48.6301 23.864 49.1101 25.004 49.7581 25.964C50.4061 26.924 51.2101 27.668 52.1701 28.196C53.1541 28.7 54.3061 28.952 55.6261 28.952C57.4261 28.952 58.8661 28.58 59.9461 27.836C61.0501 27.092 61.9741 25.916 62.7181 24.308C62.9101 23.876 63.1861 23.672 63.5461 23.696C63.9061 23.72 64.0861 23.924 64.0861 24.308C64.0861 24.644 64.0501 25.04 63.9781 25.496C63.9301 25.928 63.8461 26.408 63.7261 26.936C63.6301 27.44 63.4981 27.98 63.3301 28.556C63.2581 28.82 63.1381 29.036 62.9701 29.204C62.8021 29.372 62.6101 29.516 62.3941 29.636C61.4821 30.044 60.4021 30.368 59.1541 30.608C57.9061 30.872 56.4901 31.004 54.9061 31.004ZM70.6735 30.608C70.5295 30.608 70.3855 30.56 70.2415 30.464C70.0975 30.368 70.0255 30.236 70.0255 30.068C70.0255 29.66 70.2535 29.396 70.7095 29.276C71.6215 29.084 72.2455 28.844 72.5815 28.556C72.9175 28.268 73.0855 27.752 73.0855 27.008V10.664C73.0855 9.896 72.9295 9.356 72.6175 9.044C72.3055 8.732 71.6695 8.468 70.7095 8.252C70.2535 8.132 70.0255 7.868 70.0255 7.46C70.0255 7.292 70.0975 7.16 70.2415 7.064C70.3855 6.968 70.5295 6.92 70.6735 6.92C71.2015 6.92 71.7895 6.932 72.4375 6.956C73.1095 6.98 73.7575 7.016 74.3815 7.064C75.0295 7.088 75.5935 7.1 76.0735 7.1C76.5535 7.1 77.1295 7.088 77.8015 7.064C78.4735 7.04 79.1575 7.016 79.8535 6.992C80.5495 6.968 81.1495 6.956 81.6535 6.956C81.8455 6.956 81.9895 7.004 82.0855 7.1C82.1815 7.172 82.2295 7.304 82.2295 7.496C82.2295 7.736 82.1695 7.904 82.0495 8C81.9295 8.096 81.7615 8.18 81.5455 8.252C80.5615 8.54 79.9255 8.84 79.6375 9.152C79.3495 9.464 79.2055 9.98 79.2055 10.7V26.972C79.2055 27.644 79.3615 28.136 79.6735 28.448C79.9855 28.736 80.6095 29.012 81.5455 29.276C81.7615 29.348 81.9295 29.432 82.0495 29.528C82.1695 29.624 82.2295 29.792 82.2295 30.032C82.2295 30.2 82.1815 30.332 82.0855 30.428C81.9895 30.524 81.8455 30.572 81.6535 30.572C81.1495 30.572 80.5495 30.56 79.8535 30.536C79.1575 30.512 78.4735 30.488 77.8015 30.464C77.1295 30.44 76.5535 30.428 76.0735 30.428C75.5935 30.428 75.0295 30.44 74.3815 30.464C73.7575 30.488 73.1095 30.512 72.4375 30.536C71.7895 30.584 71.2015 30.608 70.6735 30.608ZM87.5626 30.608C87.4186 30.608 87.2746 30.56 87.1306 30.464C86.9866 30.368 86.9146 30.236 86.9146 30.068C86.9146 29.66 87.1426 29.396 87.5986 29.276C88.5106 29.084 89.1346 28.844 89.4706 28.556C89.8066 28.268 89.9746 27.752 89.9746 27.008V10.664C89.9746 9.896 89.8186 9.356 89.5066 9.044C89.2186 8.708 88.6546 8.444 87.8146 8.252C87.5266 8.18 87.3226 8.072 87.2026 7.928C87.1066 7.784 87.0586 7.64 87.0586 7.496C87.0586 7.328 87.1186 7.196 87.2386 7.1C87.3826 6.98 87.5626 6.92 87.7786 6.92C88.3066 6.92 88.8826 6.932 89.5066 6.956C90.1306 6.98 90.7426 7.016 91.3426 7.064C91.9426 7.088 92.4826 7.1 92.9626 7.1C93.5386 7.1 94.0426 7.076 94.4746 7.028C94.9306 6.956 95.4346 6.896 95.9866 6.848C96.5386 6.776 97.2586 6.74 98.1466 6.74C101.099 6.74 103.439 7.376 105.167 8.648C106.895 9.896 107.759 11.612 107.759 13.796C107.759 15.308 107.435 16.712 106.787 18.008C106.139 19.28 105.155 20.312 103.835 21.104C102.539 21.872 100.895 22.256 98.9026 22.256C98.2546 22.256 97.7626 22.16 97.4266 21.968C97.0906 21.776 96.9226 21.536 96.9226 21.248C96.9226 21.056 97.0066 20.912 97.1746 20.816C97.3426 20.72 97.4866 20.672 97.6066 20.672C97.8946 20.672 98.1226 20.708 98.2906 20.78C98.4826 20.828 98.7346 20.852 99.0466 20.852C99.9586 20.852 100.643 20.3 101.099 19.196C101.579 18.068 101.819 16.616 101.819 14.84C101.819 12.56 101.495 10.928 100.847 9.944C100.223 8.936 99.3226 8.432 98.1466 8.432C97.4746 8.432 96.9706 8.588 96.6346 8.9C96.2986 9.212 96.1306 9.692 96.1306 10.34L96.0946 26.972C96.0946 27.716 96.2986 28.232 96.7066 28.52C97.1386 28.808 97.8706 29.06 98.9026 29.276C99.1186 29.324 99.2866 29.408 99.4066 29.528C99.5266 29.624 99.5866 29.792 99.5866 30.032C99.5866 30.2 99.5386 30.332 99.4426 30.428C99.3466 30.524 99.2026 30.572 99.0106 30.572C98.5066 30.572 97.8706 30.56 97.1026 30.536C96.3346 30.512 95.5666 30.488 94.7986 30.464C94.0546 30.44 93.4426 30.428 92.9626 30.428C92.4826 30.428 91.9186 30.44 91.2706 30.464C90.6466 30.488 89.9986 30.512 89.3266 30.536C88.6786 30.584 88.0906 30.608 87.5626 30.608ZM138.548 30.752C137.588 30.752 136.604 30.728 135.596 30.68C134.612 30.632 133.724 30.584 132.932 30.536C132.14 30.512 131.588 30.5 131.276 30.5C130.796 30.5 130.232 30.5 129.584 30.5C128.96 30.524 128.312 30.548 127.64 30.572C126.992 30.596 126.404 30.608 125.876 30.608C125.732 30.608 125.588 30.56 125.444 30.464C125.3 30.368 125.228 30.236 125.228 30.068C125.228 29.852 125.288 29.684 125.408 29.564C125.528 29.42 125.696 29.324 125.912 29.276C126.824 29.084 127.448 28.844 127.784 28.556C128.12 28.268 128.288 27.752 128.288 27.008V10.664C128.288 9.896 128.132 9.356 127.82 9.044C127.508 8.732 126.872 8.468 125.912 8.252C125.696 8.204 125.528 8.12 125.408 8C125.288 7.856 125.228 7.676 125.228 7.46C125.228 7.292 125.3 7.16 125.444 7.064C125.588 6.968 125.732 6.92 125.876 6.92C126.404 6.92 126.992 6.932 127.64 6.956C128.312 6.98 128.96 7.016 129.584 7.064C130.232 7.088 130.796 7.1 131.276 7.1C131.636 7.1 132.128 7.088 132.752 7.064C133.4 7.016 134.096 6.98 134.84 6.956C135.608 6.908 136.352 6.872 137.072 6.848C137.792 6.8 138.392 6.776 138.872 6.776C140.552 6.776 142.148 7.064 143.66 7.64C145.172 8.192 146.516 8.984 147.692 10.016C148.868 11.048 149.792 12.284 150.464 13.724C151.136 15.14 151.472 16.712 151.472 18.44C151.472 20.024 151.196 21.56 150.644 23.048C150.092 24.512 149.264 25.82 148.16 26.972C147.08 28.124 145.736 29.048 144.128 29.744C142.52 30.416 140.66 30.752 138.548 30.752ZM137.972 28.772C139.556 28.772 140.852 28.388 141.86 27.62C142.892 26.852 143.648 25.772 144.128 24.38C144.632 22.988 144.884 21.356 144.884 19.484C144.884 17.9 144.728 16.46 144.416 15.164C144.128 13.868 143.684 12.752 143.084 11.816C142.484 10.88 141.728 10.16 140.816 9.656C139.904 9.128 138.836 8.864 137.612 8.864C136.892 8.864 136.292 8.888 135.812 8.936C135.356 8.984 135.008 9.092 134.768 9.26C134.528 9.404 134.408 9.668 134.408 10.052V25.676C134.408 26.42 134.528 27.02 134.768 27.476C135.032 27.932 135.428 28.268 135.956 28.484C136.484 28.676 137.156 28.772 137.972 28.772ZM155.095 30.68C154.831 30.68 154.603 30.632 154.411 30.536C154.243 30.464 154.159 30.308 154.159 30.068C154.159 29.828 154.231 29.66 154.375 29.564C154.543 29.444 154.735 29.348 154.951 29.276C155.671 29.084 156.283 28.784 156.787 28.376C157.315 27.968 157.699 27.5 157.939 26.972C158.515 25.652 159.067 24.344 159.595 23.048C160.123 21.752 160.639 20.468 161.143 19.196C161.647 17.9 162.139 16.604 162.619 15.308C163.123 13.988 163.615 12.668 164.095 11.348C164.503 10.244 164.755 9.464 164.851 9.008C164.947 8.528 165.031 8.276 165.103 8.252C165.583 8.132 166.027 8.024 166.435 7.928C166.843 7.808 167.299 7.664 167.803 7.496C168.259 7.328 168.655 7.124 168.991 6.884C169.351 6.62 169.615 6.404 169.783 6.236C169.903 6.164 170.011 6.116 170.107 6.092C170.227 6.068 170.335 6.152 170.431 6.344C170.527 6.512 170.599 6.68 170.647 6.848C170.719 6.992 170.779 7.16 170.827 7.352C171.307 8.936 171.799 10.532 172.303 12.14C172.831 13.748 173.359 15.38 173.887 17.036C174.415 18.668 174.943 20.312 175.471 21.968C176.023 23.624 176.563 25.292 177.091 26.972C177.211 27.356 177.403 27.704 177.667 28.016C177.955 28.304 178.291 28.556 178.675 28.772C179.059 28.964 179.491 29.132 179.971 29.276C180.187 29.348 180.367 29.432 180.511 29.528C180.679 29.624 180.763 29.792 180.763 30.032C180.763 30.2 180.691 30.332 180.547 30.428C180.427 30.524 180.271 30.572 180.079 30.572C179.575 30.572 178.951 30.56 178.207 30.536C177.487 30.512 176.755 30.488 176.011 30.464C175.291 30.44 174.655 30.428 174.103 30.428C173.623 30.428 173.035 30.44 172.339 30.464C171.643 30.488 170.935 30.512 170.215 30.536C169.495 30.584 168.871 30.608 168.343 30.608C168.151 30.608 167.971 30.56 167.803 30.464C167.659 30.368 167.587 30.236 167.587 30.068C167.587 29.852 167.659 29.684 167.803 29.564C167.971 29.42 168.163 29.324 168.379 29.276C169.291 29.084 169.963 28.832 170.395 28.52C170.827 28.208 170.947 27.704 170.755 27.008C170.635 26.528 170.503 26.06 170.359 25.604C170.239 25.148 170.119 24.692 169.999 24.236C169.879 23.756 169.759 23.288 169.639 22.832C169.591 22.64 169.531 22.496 169.459 22.4C169.387 22.28 169.255 22.22 169.063 22.22H162.799C162.607 22.22 162.463 22.28 162.367 22.4C162.295 22.496 162.235 22.64 162.187 22.832C162.091 23.192 161.983 23.528 161.863 23.84C161.767 24.128 161.671 24.416 161.575 24.704C161.479 24.992 161.383 25.292 161.287 25.604C161.191 25.892 161.095 26.216 160.999 26.576C160.783 27.344 160.819 27.92 161.107 28.304C161.395 28.688 162.103 29.012 163.231 29.276C163.759 29.396 164.023 29.66 164.023 30.068C164.023 30.236 163.963 30.368 163.843 30.464C163.723 30.536 163.531 30.572 163.267 30.572C162.475 30.572 161.779 30.548 161.179 30.5C160.579 30.476 159.919 30.464 159.199 30.464C158.503 30.464 157.831 30.5 157.183 30.572C156.559 30.644 155.863 30.68 155.095 30.68ZM163.807 20.132H168.307C168.667 20.132 168.847 20.048 168.847 19.88C168.847 19.784 168.835 19.724 168.811 19.7C168.811 19.652 168.799 19.58 168.775 19.484L166.471 11.528C166.399 11.288 166.327 11.168 166.255 11.168C166.207 11.168 166.135 11.288 166.039 11.528L163.267 19.484C163.219 19.58 163.195 19.676 163.195 19.772C163.195 19.892 163.255 19.988 163.375 20.06C163.519 20.108 163.663 20.132 163.807 20.132ZM196.821 31.004C195.141 31.004 193.545 30.728 192.033 30.176C190.521 29.6 189.177 28.796 188.001 27.764C186.825 26.708 185.901 25.46 185.229 24.02C184.557 22.556 184.221 20.936 184.221 19.16C184.221 17.528 184.497 15.968 185.049 14.48C185.601 12.968 186.417 11.624 187.497 10.448C188.601 9.272 189.957 8.336 191.565 7.64C193.173 6.944 195.033 6.596 197.145 6.596C198.825 6.596 200.421 6.884 201.933 7.46C203.445 8.012 204.789 8.816 205.965 9.872C207.141 10.904 208.065 12.152 208.737 13.616C209.409 15.056 209.745 16.664 209.745 18.44C209.745 20.048 209.469 21.608 208.917 23.12C208.365 24.632 207.537 25.976 206.433 27.152C205.353 28.328 204.009 29.264 202.401 29.96C200.793 30.656 198.933 31.004 196.821 31.004ZM197.469 29.312C198.741 29.312 199.797 28.928 200.637 28.16C201.501 27.392 202.149 26.336 202.581 24.992C203.013 23.624 203.229 22.064 203.229 20.312C203.229 18.872 203.097 17.444 202.833 16.028C202.569 14.612 202.161 13.328 201.609 12.176C201.057 11 200.349 10.064 199.485 9.368C198.645 8.672 197.625 8.324 196.425 8.324C195.177 8.324 194.121 8.708 193.257 9.476C192.417 10.244 191.781 11.3 191.349 12.644C190.941 13.988 190.737 15.536 190.737 17.288C190.737 18.728 190.869 20.156 191.133 21.572C191.397 22.988 191.793 24.284 192.321 25.46C192.873 26.612 193.569 27.548 194.409 28.268C195.273 28.964 196.293 29.312 197.469 29.312Z" fill="white"/>
</svg>
