<svg width="193" height="91" viewBox="0 0 193 91" fill="none" xmlns="http://www.w3.org/2000/svg">
<path d="M18.043 0.400391V7.24039H14.243V53.6004H6.64302V7.24039H2.84302V0.400391H18.043Z" fill="white"/>
<path d="M41.22 0.400391V53.6004H33.62V30.4964H32.1V53.6004H24.5V0.400391H32.1V23.6564H33.62V0.400391H41.22Z" fill="white"/>
<path d="M58.7179 0.400391V7.24039H55.6779V22.8964H58.3379V29.7364H55.6779V46.7604H59.0979V53.6004H48.0779V0.400391H58.7179Z" fill="white"/>
<path d="M77.7179 0.400391H85.3179V46.7604H88.5099V53.6004H77.7179V0.400391Z" fill="white"/>
<path d="M105.627 0.400391V7.24039H102.587V22.8964H105.247V29.7364H102.587V46.7604H106.007V53.6004H94.9871V0.400391H105.627Z" fill="white"/>
<path d="M127.299 0.400391V7.24039H123.499V53.6004H115.899V7.24039H112.099V0.400391H127.299Z" fill="white"/>
<path d="M148.576 0.400391V7.24039H144.776V53.6004H137.176V7.24039H133.376V0.400391H148.576Z" fill="white"/>
<path d="M165.673 0.400391V7.24039H162.633V22.8964H165.293V29.7364H162.633V46.7604H166.053V53.6004H155.033V0.400391H165.673Z" fill="white"/>
<path d="M181.645 31.1804C181.645 30.4204 181.417 30.0404 180.885 30.0404H180.125V53.6004H172.525V0.400391H180.961C186.509 0.400391 189.245 2.68039 189.245 8.00039V18.7924C189.245 23.3524 188.941 25.5564 186.053 26.5444V26.6964C188.941 27.6084 189.245 29.8884 189.245 34.4484V46.6084C189.245 50.0284 189.321 51.0924 190.157 53.4484V53.6004H182.329C181.797 51.5484 181.645 50.1804 181.645 46.6844V31.1804ZM181.645 8.38039C181.645 7.62039 181.417 7.24039 180.885 7.24039H180.125V23.2004H180.885C181.417 23.2004 181.645 22.8204 181.645 22.0604V8.38039Z" fill="white"/>
<path d="M3.281 88.9036C3.281 88.9036 3.24133 88.8639 3.162 88.7846C3.094 88.6939 3.026 88.6089 2.958 88.5296C2.90133 88.4389 2.86733 88.3936 2.856 88.3936C4.13667 87.8043 5.31533 87.0449 6.392 86.1156C7.48 85.1863 8.43767 84.1606 9.265 83.0386C8.76633 82.7099 8.26767 82.4039 7.769 82.1206C7.27033 81.8373 6.82267 81.6219 6.426 81.4746L6.766 80.9816C7.18533 81.1629 7.63867 81.3896 8.126 81.6616C8.62467 81.9336 9.11767 82.2339 9.605 82.5626C10.7157 80.9759 11.5373 79.3326 12.07 77.6326L12.648 77.8196C12.104 79.5649 11.2597 81.2593 10.115 82.9026C10.557 83.2086 10.9707 83.5146 11.356 83.8206C11.7413 84.1266 12.0643 84.4213 12.325 84.7046C12.325 84.7046 12.2853 84.7499 12.206 84.8406C12.138 84.9199 12.07 84.9993 12.002 85.0786C11.934 85.1579 11.8943 85.2033 11.883 85.2146C11.6337 84.9199 11.322 84.6196 10.948 84.3136C10.5853 83.9963 10.1887 83.6903 9.758 83.3956C8.908 84.5289 7.93333 85.5773 6.834 86.5406C5.746 87.4926 4.56167 88.2803 3.281 88.9036ZM22.984 89.3626C22.9727 89.3399 22.9273 89.2493 22.848 89.0906C22.7687 88.9319 22.7177 88.8469 22.695 88.8356C23.511 88.6203 24.2987 88.3143 25.058 87.9176C25.8287 87.5096 26.5257 87.0053 27.149 86.4046C27.7837 85.8039 28.3107 85.1069 28.73 84.3136C29.1607 83.5089 29.4497 82.5966 29.597 81.5766L30.175 81.6616C30.0163 82.7269 29.7103 83.6846 29.257 84.5346C28.815 85.3733 28.2653 86.1099 27.608 86.7446C26.962 87.3793 26.2423 87.9176 25.449 88.3596C24.6557 88.7903 23.834 89.1246 22.984 89.3626ZM25.534 83.8716C25.5 83.6336 25.4377 83.3673 25.347 83.0726C25.2563 82.7779 25.1543 82.4946 25.041 82.2226C24.9277 81.9393 24.82 81.7126 24.718 81.5426L25.279 81.3556C25.347 81.5029 25.4377 81.7296 25.551 82.0356C25.6643 82.3303 25.772 82.6363 25.874 82.9536C25.9873 83.2596 26.0667 83.5146 26.112 83.7186L25.534 83.8716ZM22.491 84.5346C22.457 84.2966 22.389 84.0303 22.287 83.7356C22.1963 83.4296 22.0943 83.1406 21.981 82.8686C21.8677 82.5966 21.76 82.3756 21.658 82.2056L22.202 82.0016C22.2813 82.1489 22.3777 82.3756 22.491 82.6816C22.6043 82.9763 22.712 83.2823 22.814 83.5996C22.9273 83.9056 23.0123 84.1606 23.069 84.3646L22.491 84.5346ZM43.741 88.7336C42.8683 88.7336 42.2393 88.5863 41.854 88.2916C41.48 87.9856 41.293 87.4586 41.293 86.7106V82.1546C40.4317 82.3246 39.61 82.4776 38.828 82.6136C38.0573 82.7496 37.4113 82.8629 36.89 82.9536L36.754 82.3586C37.0033 82.3246 37.3603 82.2679 37.825 82.1886C38.2897 82.1093 38.8167 82.0186 39.406 81.9166C40.0067 81.8033 40.6357 81.6843 41.293 81.5596V77.2416H41.888V81.4576C42.6247 81.3216 43.35 81.1856 44.064 81.0496C44.778 80.9023 45.4353 80.7663 46.036 80.6416C46.648 80.5169 47.1637 80.4093 47.583 80.3186C48.0023 80.2166 48.2743 80.1429 48.399 80.0976L48.79 80.4036C48.552 80.8116 48.246 81.2876 47.872 81.8316C47.498 82.3643 47.1127 82.8856 46.716 83.3956C46.3193 83.9056 45.9567 84.3363 45.628 84.6876L45.135 84.2796C45.407 84.0303 45.713 83.7016 46.053 83.2936C46.393 82.8743 46.7273 82.4436 47.056 82.0016C47.3847 81.5483 47.6623 81.1516 47.889 80.8116C47.4697 80.9023 46.937 81.0156 46.291 81.1516C45.6563 81.2763 44.9593 81.4179 44.2 81.5766C43.4407 81.7239 42.67 81.8769 41.888 82.0356V86.6936C41.888 87.2489 42.0353 87.6286 42.33 87.8326C42.636 88.0253 43.1063 88.1216 43.741 88.1216C44.319 88.1216 44.9083 88.1046 45.509 88.0706C46.121 88.0366 46.7047 87.9856 47.26 87.9176C47.8153 87.8496 48.2857 87.7646 48.671 87.6626C48.671 87.6626 48.6653 87.7193 48.654 87.8326C48.6427 87.9346 48.6313 88.0423 48.62 88.1556C48.6087 88.2576 48.603 88.3086 48.603 88.3086C48.3083 88.3766 47.9457 88.4389 47.515 88.4956C47.0957 88.5523 46.6537 88.5976 46.189 88.6316C45.7243 88.6656 45.2767 88.6939 44.846 88.7166C44.4153 88.7279 44.047 88.7336 43.741 88.7336ZM67.847 83.4466C67.4503 83.4466 66.9007 83.4466 66.198 83.4466C65.5067 83.4353 64.7303 83.4296 63.869 83.4296C63.0077 83.4296 62.1123 83.4296 61.183 83.4296C60.2537 83.4296 59.3413 83.4296 58.446 83.4296C57.562 83.4296 56.7517 83.4353 56.015 83.4466C55.2783 83.4466 54.6777 83.4466 54.213 83.4466V82.8346C54.689 82.8346 55.2953 82.8403 56.032 82.8516C56.7687 82.8516 57.579 82.8516 58.463 82.8516C59.347 82.8516 60.248 82.8516 61.166 82.8516C62.0953 82.8516 62.9907 82.8516 63.852 82.8516C64.7247 82.8516 65.5067 82.8516 66.198 82.8516C66.8893 82.8403 67.439 82.8346 67.847 82.8346V83.4466ZM74.188 88.9546L73.899 88.3936C74.9417 88.0196 75.9843 87.5606 77.027 87.0166C78.081 86.4613 79.0897 85.8549 80.053 85.1976C81.0277 84.5403 81.9173 83.8603 82.722 83.1576C83.5267 82.4549 84.201 81.7636 84.745 81.0836C84.745 81.0836 84.7733 81.1403 84.83 81.2536C84.8867 81.3556 84.9377 81.4576 84.983 81.5596C85.0397 81.6503 85.068 81.7013 85.068 81.7126C84.5013 82.3586 83.81 83.0273 82.994 83.7186C82.178 84.3986 81.2827 85.0673 80.308 85.7246C79.3333 86.3706 78.3247 86.9713 77.282 87.5266C76.2393 88.0819 75.208 88.5579 74.188 88.9546ZM77.452 79.9956C77.3953 79.9276 77.248 79.8086 77.01 79.6386C76.772 79.4573 76.5 79.2589 76.194 79.0436C75.888 78.8283 75.599 78.6356 75.327 78.4656C75.055 78.2843 74.8567 78.1709 74.732 78.1256L75.072 77.5646C75.242 77.6666 75.4573 77.8083 75.718 77.9896C75.99 78.1596 76.2677 78.3466 76.551 78.5506C76.8457 78.7433 77.112 78.9246 77.35 79.0946C77.588 79.2533 77.758 79.3779 77.86 79.4686L77.452 79.9956ZM75.361 83.3276C75.2477 83.2256 75.0663 83.1009 74.817 82.9536C74.5677 82.8063 74.2957 82.6533 74.001 82.4946C73.7063 82.3246 73.423 82.1773 73.151 82.0526C72.879 81.9279 72.658 81.8429 72.488 81.7976L72.794 81.2366C72.9753 81.3159 73.2077 81.4236 73.491 81.5596C73.7743 81.6956 74.0633 81.8429 74.358 82.0016C74.664 82.1603 74.936 82.3076 75.174 82.4436C75.4233 82.5796 75.599 82.6816 75.701 82.7496L75.361 83.3276ZM83.283 79.8256C83.1357 79.5876 82.9317 79.3213 82.671 79.0266C82.4217 78.7206 82.1553 78.4316 81.872 78.1596C81.6 77.8763 81.3563 77.6553 81.141 77.4966L81.549 77.1566C81.753 77.3153 81.9967 77.5419 82.28 77.8366C82.5633 78.1199 82.841 78.4146 83.113 78.7206C83.385 79.0153 83.589 79.2646 83.725 79.4686L83.283 79.8256ZM84.558 78.6356C84.3993 78.3976 84.184 78.1369 83.912 77.8536C83.6513 77.5703 83.3737 77.2983 83.079 77.0376C82.7957 76.7656 82.5407 76.5503 82.314 76.3916L82.705 76.0346C82.909 76.1819 83.1583 76.3973 83.453 76.6806C83.759 76.9639 84.0537 77.2529 84.337 77.5476C84.6203 77.8309 84.8357 78.0689 84.983 78.2616L84.558 78.6356ZM88.604 89.8386V89.2266H96.016V84.8236H90.967V84.2116H96.016V80.1486H91.494C91.1653 80.7379 90.814 81.2876 90.44 81.7976C90.066 82.2963 89.6977 82.7326 89.335 83.1066L88.74 82.6986C89.1027 82.3699 89.4823 81.9393 89.879 81.4066C90.287 80.8739 90.6723 80.2903 91.035 79.6556C91.3977 79.0209 91.7093 78.3976 91.97 77.7856C92.2307 77.1623 92.412 76.6126 92.514 76.1366L93.16 76.3406C93.0127 76.8619 92.8257 77.3946 92.599 77.9386C92.3723 78.4826 92.1173 79.0153 91.834 79.5366H96.016V75.5756H96.628V79.5366H102.646V80.1486H96.628V84.2116H101.643V84.8236H96.628V89.2266H103.479V89.8386H88.604ZM119.493 90.4846C119.176 90.3599 118.813 90.1559 118.405 89.8726C118.008 89.5893 117.6 89.1983 117.181 88.6996C116.762 88.2009 116.359 87.5719 115.974 86.8126C115.305 87.5719 114.586 88.2463 113.815 88.8356C113.044 89.4136 112.251 89.8953 111.435 90.2806L111.095 89.7536C111.934 89.3796 112.744 88.8866 113.526 88.2746C114.308 87.6626 115.028 86.9769 115.685 86.2176C115.334 85.3903 115.011 84.4156 114.716 83.2936C114.433 82.1716 114.223 80.8739 114.087 79.4006H108.137V81.9676H112.251C112.251 82.7949 112.228 83.6053 112.183 84.3986C112.138 85.1919 112.053 85.9003 111.928 86.5236C111.837 86.9996 111.713 87.3679 111.554 87.6286C111.407 87.8893 111.203 88.0706 110.942 88.1726C110.681 88.2746 110.33 88.3256 109.888 88.3256H108.698C108.687 88.2349 108.658 88.1273 108.613 88.0026C108.579 87.8779 108.551 87.7816 108.528 87.7136H109.888C110.239 87.7136 110.5 87.6796 110.67 87.6116C110.84 87.5323 110.965 87.4019 111.044 87.2206C111.123 87.0279 111.203 86.7559 111.282 86.4046C111.35 86.1213 111.407 85.7699 111.452 85.3506C111.497 84.9199 111.531 84.4666 111.554 83.9906C111.577 83.5033 111.588 83.0329 111.588 82.5796H108.137C108.137 83.7016 108.086 84.6649 107.984 85.4696C107.893 86.2743 107.757 86.9713 107.576 87.5606C107.395 88.1499 107.168 88.6713 106.896 89.1246C106.624 89.5779 106.312 90.0086 105.961 90.4166L105.485 90.1106C105.836 89.6799 106.137 89.2379 106.386 88.7846C106.647 88.3313 106.862 87.8213 107.032 87.2546C107.202 86.6766 107.327 85.9966 107.406 85.2146C107.485 84.4326 107.525 83.5033 107.525 82.4266V78.7886H114.019C113.985 78.2786 113.957 77.7459 113.934 77.1906C113.911 76.6239 113.9 76.0403 113.9 75.4396H114.512C114.512 76.0403 114.518 76.6239 114.529 77.1906C114.552 77.7459 114.586 78.2786 114.631 78.7886H120.462V79.4006H114.682C114.807 80.7719 114.994 81.9733 115.243 83.0046C115.504 84.0359 115.793 84.9369 116.11 85.7076C116.62 85.0503 117.068 84.3646 117.453 83.6506C117.85 82.9253 118.167 82.1829 118.405 81.4236L119 81.7296C118.683 82.5909 118.297 83.4069 117.844 84.1776C117.402 84.9483 116.915 85.6623 116.382 86.3196C116.745 87.0563 117.119 87.6683 117.504 88.1556C117.901 88.6316 118.286 89.0113 118.66 89.2946C119.045 89.5666 119.397 89.7706 119.714 89.9066C119.827 89.6459 119.946 89.3229 120.071 88.9376C120.207 88.5409 120.326 88.1443 120.428 87.7476C120.541 87.3396 120.621 86.9996 120.666 86.7276L121.244 87.0166C121.176 87.3453 121.08 87.7193 120.955 88.1386C120.842 88.5466 120.723 88.9433 120.598 89.3286C120.473 89.7026 120.354 90.0143 120.241 90.2636C120.105 90.5469 119.856 90.6206 119.493 90.4846ZM118.932 78.4316C118.728 78.1936 118.484 77.9443 118.201 77.6836C117.918 77.4116 117.629 77.1623 117.334 76.9356C117.039 76.6976 116.767 76.5049 116.518 76.3576L116.909 75.8986C117.17 76.0686 117.459 76.2839 117.776 76.5446C118.093 76.7939 118.394 77.0489 118.677 77.3096C118.972 77.5589 119.198 77.7743 119.357 77.9556L118.932 78.4316ZM126.769 88.9376L126.48 88.3766C127.523 88.0026 128.565 87.5436 129.608 86.9996C130.662 86.4443 131.671 85.8379 132.634 85.1806C133.609 84.5233 134.498 83.8489 135.303 83.1576C136.108 82.4549 136.782 81.7636 137.326 81.0836C137.326 81.0836 137.354 81.1403 137.411 81.2536C137.468 81.3556 137.519 81.4576 137.564 81.5596C137.621 81.6503 137.649 81.7013 137.649 81.7126C137.082 82.3586 136.391 83.0273 135.575 83.7186C134.759 84.3986 133.864 85.0616 132.889 85.7076C131.914 86.3536 130.906 86.9543 129.863 87.5096C128.82 88.0649 127.789 88.5409 126.769 88.9376ZM130.033 79.9956C129.976 79.9276 129.829 79.8029 129.591 79.6216C129.353 79.4403 129.081 79.2419 128.775 79.0266C128.469 78.8113 128.18 78.6186 127.908 78.4486C127.636 78.2673 127.438 78.1539 127.313 78.1086L127.653 77.5476C127.823 77.6496 128.038 77.7913 128.299 77.9726C128.571 78.1426 128.849 78.3296 129.132 78.5336C129.427 78.7263 129.693 78.9076 129.931 79.0776C130.169 79.2476 130.339 79.3723 130.441 79.4516L130.033 79.9956ZM127.942 83.3276C127.829 83.2256 127.647 83.1009 127.398 82.9536C127.149 82.7949 126.877 82.6363 126.582 82.4776C126.287 82.3189 126.004 82.1773 125.732 82.0526C125.46 81.9279 125.239 81.8429 125.069 81.7976L125.375 81.2196C125.556 81.2989 125.789 81.4123 126.072 81.5596C126.355 81.6956 126.644 81.8429 126.939 82.0016C127.245 82.1603 127.517 82.3076 127.755 82.4436C128.004 82.5796 128.18 82.6816 128.282 82.7496L127.942 83.3276ZM142.851 88.5976C142.851 88.5976 142.817 88.5523 142.749 88.4616C142.692 88.3709 142.63 88.2859 142.562 88.2066C142.505 88.1159 142.471 88.0706 142.46 88.0706C143.367 87.6739 144.273 87.1696 145.18 86.5576C146.098 85.9456 146.971 85.2543 147.798 84.4836C148.637 83.7129 149.385 82.8969 150.042 82.0356C150.699 81.1743 151.221 80.3016 151.606 79.4176C151.187 79.4516 150.648 79.4913 149.991 79.5366C149.334 79.5706 148.637 79.6046 147.9 79.6386C147.175 79.6726 146.483 79.7066 145.826 79.7406C145.18 79.7633 144.647 79.7859 144.228 79.8086L144.143 79.1966C144.392 79.1966 144.778 79.1909 145.299 79.1796C145.832 79.1569 146.427 79.1343 147.084 79.1116C147.753 79.0776 148.416 79.0436 149.073 79.0096C149.73 78.9756 150.32 78.9416 150.841 78.9076C151.362 78.8736 151.736 78.8396 151.963 78.8056L152.371 79.0606C152.099 79.8086 151.725 80.5509 151.249 81.2876C150.784 82.0129 150.252 82.7213 149.651 83.4126C150.002 83.6959 150.393 84.0303 150.824 84.4156C151.255 84.8009 151.685 85.2089 152.116 85.6396C152.558 86.0589 152.972 86.4726 153.357 86.8806C153.742 87.2773 154.065 87.6343 154.326 87.9516C154.326 87.9516 154.286 87.9913 154.207 88.0706C154.128 88.1386 154.048 88.2066 153.969 88.2746C153.89 88.3426 153.844 88.3823 153.833 88.3936C153.595 88.0763 153.289 87.7193 152.915 87.3226C152.541 86.9146 152.133 86.4953 151.691 86.0646C151.26 85.6339 150.83 85.2259 150.399 84.8406C149.98 84.4553 149.606 84.1209 149.277 83.8376C148.336 84.8463 147.299 85.7699 146.166 86.6086C145.044 87.4359 143.939 88.0989 142.851 88.5976ZM161.772 89.6006C161.772 89.5893 161.738 89.5439 161.67 89.4646C161.613 89.3739 161.551 89.2833 161.483 89.1926C161.426 89.1019 161.392 89.0566 161.381 89.0566C163.036 88.4559 164.237 87.6003 164.985 86.4896C165.733 85.3676 166.113 83.9226 166.124 82.1546C165.342 82.1659 164.577 82.1773 163.829 82.1886C163.081 82.1999 162.401 82.2113 161.789 82.2226C161.188 82.2339 160.707 82.2453 160.344 82.2566C159.981 82.2566 159.8 82.2566 159.8 82.2566V81.6446C159.8 81.6446 159.976 81.6446 160.327 81.6446C160.678 81.6333 161.143 81.6276 161.721 81.6276C162.31 81.6163 162.973 81.6049 163.71 81.5936C164.447 81.5823 165.206 81.5709 165.988 81.5596C166.77 81.5483 167.524 81.5369 168.249 81.5256C168.986 81.5143 169.649 81.5086 170.238 81.5086C170.827 81.4973 171.298 81.4916 171.649 81.4916C172 81.4803 172.176 81.4746 172.176 81.4746V82.0696C172.176 82.0696 172.023 82.0753 171.717 82.0866C171.422 82.0866 171.014 82.0923 170.493 82.1036C169.983 82.1149 169.399 82.1263 168.742 82.1376C168.096 82.1376 167.422 82.1433 166.719 82.1546C166.708 84.0359 166.3 85.5773 165.495 86.7786C164.702 87.9686 163.461 88.9093 161.772 89.6006ZM162.129 78.2616L162.112 77.6666C162.112 77.6666 162.248 77.6666 162.52 77.6666C162.803 77.6553 163.172 77.6439 163.625 77.6326C164.09 77.6213 164.594 77.6099 165.138 77.5986C165.682 77.5759 166.22 77.5589 166.753 77.5476C167.297 77.5363 167.796 77.5249 168.249 77.5136C168.714 77.5023 169.082 77.4966 169.354 77.4966C169.637 77.4853 169.779 77.4796 169.779 77.4796L169.796 78.0916C169.796 78.0916 169.654 78.0973 169.371 78.1086C169.088 78.1086 168.719 78.1143 168.266 78.1256C167.813 78.1369 167.314 78.1483 166.77 78.1596C166.226 78.1709 165.682 78.1823 165.138 78.1936C164.594 78.2049 164.095 78.2163 163.642 78.2276C163.189 78.2389 162.82 78.2503 162.537 78.2616C162.265 78.2616 162.129 78.2616 162.129 78.2616ZM188.734 88.2746C188.621 88.0366 188.462 87.7703 188.258 87.4756C188.065 87.1696 187.85 86.8523 187.612 86.5236C187.431 86.5463 187.113 86.5859 186.66 86.6426C186.218 86.6879 185.691 86.7446 185.079 86.8126C184.467 86.8806 183.821 86.9543 183.141 87.0336C182.461 87.1016 181.792 87.1753 181.135 87.2546C180.478 87.3226 179.877 87.3906 179.333 87.4586C178.8 87.5153 178.37 87.5606 178.041 87.5946C177.724 87.6286 177.565 87.6456 177.565 87.6456L177.378 87.0506C177.389 87.0506 177.593 87.0279 177.99 86.9826C178.387 86.9373 178.897 86.8806 179.52 86.8126C179.758 86.4159 180.036 85.9059 180.353 85.2826C180.682 84.6593 181.016 83.9849 181.356 83.2596C181.696 82.5343 182.019 81.8259 182.325 81.1346C182.631 80.4319 182.892 79.8029 183.107 79.2476C183.322 78.6923 183.464 78.2729 183.532 77.9896L184.178 78.2446C184.099 78.4939 183.951 78.8736 183.736 79.3836C183.521 79.8936 183.266 80.4773 182.971 81.1346C182.688 81.7806 182.382 82.4493 182.053 83.1406C181.724 83.8319 181.401 84.4949 181.084 85.1296C180.767 85.7529 180.483 86.2856 180.234 86.7276C180.846 86.6596 181.492 86.5916 182.172 86.5236C182.852 86.4556 183.515 86.3876 184.161 86.3196C184.818 86.2403 185.413 86.1723 185.946 86.1156C186.479 86.0589 186.898 86.0136 187.204 85.9796C186.796 85.4356 186.382 84.9199 185.963 84.4326C185.555 83.9339 185.215 83.5599 184.943 83.3106L185.419 82.9196C185.68 83.1916 185.986 83.5373 186.337 83.9566C186.7 84.3646 187.062 84.8066 187.425 85.2826C187.799 85.7586 188.15 86.2233 188.479 86.6766C188.808 87.1299 189.08 87.5266 189.295 87.8666C189.295 87.8666 189.25 87.9006 189.159 87.9686C189.068 88.0366 188.978 88.1046 188.887 88.1726C188.796 88.2293 188.745 88.2633 188.734 88.2746Z" fill="white"/>
</svg>
