<svg width="129" height="99" viewBox="0 0 129 99" fill="none" xmlns="http://www.w3.org/2000/svg">
<path d="M10.56 92.456C5.28001 92.456 1.32001 88.736 1.32001 83.144C1.32001 77.744 5.28001 73.832 10.56 73.832C15.84 73.832 19.824 77.744 19.824 83.144C19.824 88.736 15.84 92.456 10.56 92.456ZM10.56 89.936C14.112 89.936 16.992 87.272 16.992 83.144C16.992 78.992 14.112 76.304 10.56 76.304C7.00801 76.304 4.12801 78.992 4.12801 83.144C4.12801 87.272 7.00801 89.936 10.56 89.936Z" fill="black"/>
<path d="M26.4452 90.872C26.4212 91.784 25.7492 92.192 25.0532 92.192C24.3812 92.192 23.6852 91.76 23.6852 90.968C23.6852 90.944 23.6852 90.92 23.6852 90.896C23.7812 89.024 23.8052 86.912 23.8052 84.872C23.8052 82.4 23.7572 80.048 23.7572 78.368C23.7572 75.416 23.7812 73.832 28.4852 73.832C28.9892 73.832 29.4692 73.856 29.8292 73.88C33.6212 74.12 35.3732 76.688 35.3732 79.28C35.3732 81.944 33.5252 84.656 30.1652 84.992C29.5892 85.064 29.0372 85.112 28.4372 85.112C27.8852 85.112 27.3092 85.064 26.6852 84.92C26.6132 84.896 26.5652 84.896 26.5172 84.896C26.3972 84.896 26.3732 84.968 26.3732 85.16C26.3732 86.648 26.4452 88.352 26.4452 89.936C26.4452 90.248 26.4452 90.56 26.4452 90.872ZM29.5892 76.376C29.5892 76.376 29.0132 76.352 28.4372 76.352C26.5172 76.352 26.3012 76.616 26.3012 78.848C26.3012 79.688 26.3252 80.672 26.3252 81.512C26.3252 81.656 26.3252 81.776 26.3252 81.92C26.3252 82.424 26.8052 82.592 28.2932 82.592C28.7492 82.592 29.2532 82.568 29.7572 82.52C31.5812 82.352 32.6852 80.696 32.6852 79.16C32.6852 77.72 31.7492 76.376 29.5892 76.376Z" fill="black"/>
<path d="M48.4806 76.448C48.4806 76.448 46.3446 76.424 44.7126 76.424C42.3126 76.424 41.8086 76.472 41.7366 77.504C41.6886 78.08 41.7126 79.256 41.6886 80.648C41.6886 81.128 41.7126 81.128 44.6646 81.128C45.7686 81.128 46.9206 81.128 47.3526 81.104C48.6966 81.032 48.6966 82.304 48.6966 82.376C48.6966 83.072 48.2646 83.744 47.4246 83.744C47.4006 83.744 47.3526 83.744 47.3046 83.744C46.7046 83.696 45.7926 83.672 44.8806 83.672C41.9046 83.672 41.6646 83.696 41.6646 84.2C41.6646 87.776 41.6886 88.328 41.7366 88.736C41.8566 89.84 42.2406 89.888 45.6246 89.888C47.0406 89.888 48.5766 89.864 49.0326 89.84C49.0806 89.84 49.1046 89.84 49.1526 89.84C49.9926 89.84 50.4486 90.44 50.4486 91.064C50.4486 91.712 49.9686 92.36 48.9366 92.408C48.6246 92.432 47.2326 92.456 45.8406 92.456C44.4726 92.456 43.0806 92.432 42.7686 92.408C40.5606 92.24 39.1926 91.448 39.0966 89.336C39.0486 88.328 39.0486 86.552 39.0486 84.608C39.0486 81.68 39.0726 78.416 39.1206 76.904C39.1686 74.984 40.4166 73.976 42.3606 73.88C42.7926 73.856 44.1606 73.832 45.5046 73.832C46.8726 73.832 48.1926 73.856 48.5526 73.88C49.4646 73.928 49.8966 74.528 49.8966 75.152C49.8966 75.8 49.3926 76.448 48.4806 76.448Z" fill="black"/>
<path d="M53.7534 91.064V91.04C53.8014 88.568 53.8254 85.664 53.8254 82.904C53.8254 80.504 53.8014 78.224 53.7774 76.424C53.7774 76.4 53.7774 76.352 53.7774 76.328C53.7774 74.648 54.7134 73.976 55.7694 73.976C56.6574 73.976 57.6174 74.48 58.1214 75.272C59.6334 77.672 63.6414 85.16 65.4654 87.896C65.6095 88.112 65.7294 88.232 65.8014 88.232C65.8734 88.232 65.9694 88.16 65.9694 87.224C65.9694 84.968 65.8974 77.48 65.8254 75.272C65.8014 74.48 66.4494 73.976 67.2174 73.976C67.9134 73.976 68.6094 74.408 68.6094 75.224C68.6094 75.248 68.6094 75.248 68.6094 75.272C68.5614 76.952 68.5374 79.28 68.5374 81.68C68.5374 84.728 68.5614 87.872 68.6094 89.96C68.6094 89.984 68.6094 90.008 68.6094 90.008C68.6094 91.448 67.5534 92.288 66.4254 92.288C65.6574 92.288 64.8894 91.904 64.3614 91.088C62.6814 88.424 58.1934 80.216 56.8974 78.032C56.8014 77.888 56.6334 77.576 56.5134 77.576C56.3694 77.576 56.3694 77.816 56.3694 78.92C56.3694 81.416 56.4414 88.496 56.5134 91.04C56.5134 91.064 56.5134 91.064 56.5134 91.088C56.5134 91.856 55.8414 92.216 55.1454 92.216C54.4494 92.216 53.7534 91.832 53.7534 91.064Z" fill="black"/>
<path d="M80.1107 91.16C80.1107 91.16 80.1107 91.136 80.1107 91.112C80.2787 86.912 80.8307 80.168 81.0227 76.688C81.1187 74.912 82.2227 74 83.3507 74C84.3347 74 85.3427 74.672 85.7747 76.064C86.6867 78.944 88.7987 86.384 89.3747 87.56C89.4467 87.704 89.5187 87.776 89.6147 87.776C89.6867 87.776 89.7827 87.704 89.8307 87.56C90.7427 85.352 92.6627 78.68 93.5987 75.944C94.0547 74.6 95.0867 73.976 96.0707 73.976C97.2707 73.976 98.4227 74.912 98.4707 76.592C98.5427 79.688 99.0707 87.488 99.2627 90.896C99.2627 90.92 99.2627 90.944 99.2627 90.992C99.2627 91.808 98.5667 92.24 97.8707 92.24C97.1747 92.24 96.4787 91.832 96.4307 90.992C96.1907 87.56 95.9507 78.032 95.9507 78.032C95.9507 77.624 95.8547 77.456 95.7347 77.456C95.6147 77.456 95.4467 77.672 95.3747 77.96C94.8467 79.952 92.3747 87.752 91.3907 90.32C91.0787 91.136 90.3107 91.688 89.5187 91.688C88.8467 91.688 88.1747 91.304 87.7907 90.344C87.0227 88.52 84.9107 80.912 84.0227 78.08C83.9267 77.792 83.8067 77.624 83.7107 77.624C83.5907 77.624 83.4947 77.816 83.4467 78.32C83.2787 80.432 82.9427 87.728 82.8227 91.04C82.7987 91.832 82.0787 92.24 81.3827 92.24C80.7347 92.24 80.1107 91.88 80.1107 91.16Z" fill="black"/>
<path d="M112.26 92.12C111.996 92.12 111.684 92 111.396 91.76C111.18 91.592 110.964 91.328 110.748 90.968C110.724 90.92 110.676 90.896 110.652 90.896C110.604 90.896 110.556 90.92 110.508 90.968C109.692 91.904 108.18 92.408 106.764 92.408C104.124 92.408 102.564 90.488 102.564 88.64C102.564 87.416 103.284 86.192 104.892 85.64C106.548 85.064 108.612 84.608 108.996 84.584C109.236 84.56 109.428 84.272 109.428 83.768C109.428 83.48 109.356 82.256 107.724 82.256C106.644 82.256 105.828 82.76 105.372 83.264C105.108 83.576 104.772 83.696 104.484 83.696C103.86 83.696 103.332 83.216 103.332 82.592C103.332 81.44 105.444 80.168 107.868 80.168C110.508 80.168 111.948 81.464 111.948 84.224C111.948 84.536 111.924 84.824 111.9 85.16C111.852 85.52 111.78 86.432 111.78 87.152C111.78 87.368 111.78 87.56 111.804 87.704C112.02 89.624 112.908 89.696 113.1 89.84C113.364 90.032 113.484 90.344 113.484 90.68C113.484 91.352 112.956 92.12 112.26 92.12ZM109.212 86.6H109.188C105.132 87.104 104.892 88.112 104.892 88.688C104.892 89.432 105.54 90.176 106.764 90.176C108.708 90.176 109.548 89.192 109.548 87.488C109.548 87.128 109.5 86.6 109.212 86.6Z" fill="black"/>
<path d="M118.799 81.464C118.823 81.512 118.847 81.536 118.871 81.536C118.895 81.536 118.919 81.536 118.943 81.512C119.831 80.744 120.959 80.264 122.279 80.264C125.591 80.264 128.087 82.664 128.087 86.288C128.087 89.792 125.591 92.312 122.279 92.312C120.959 92.312 119.831 91.808 118.943 91.04C118.895 91.016 118.847 90.968 118.823 90.968C118.775 90.968 118.751 91.016 118.751 91.112C118.751 93.752 118.799 96.032 118.823 97.016C118.847 97.76 118.343 98.264 117.599 98.264C116.951 98.264 116.327 97.832 116.327 97.016C116.327 96.968 116.327 96.944 116.327 96.896C116.399 96.032 116.399 94.232 116.399 92.12C116.399 88.496 116.351 83.984 116.351 81.704C116.351 80.816 116.975 80.36 117.599 80.36C118.151 80.36 118.703 80.744 118.799 81.464ZM122.231 90.128C124.151 90.128 125.687 88.664 125.687 86.288C125.687 83.936 124.151 82.496 122.231 82.496C120.311 82.496 118.775 83.936 118.775 86.288C118.775 88.664 120.311 90.128 122.231 90.128Z" fill="black"/>
<path d="M10.56 92.456C5.28001 92.456 1.32001 88.736 1.32001 83.144C1.32001 77.744 5.28001 73.832 10.56 73.832C15.84 73.832 19.824 77.744 19.824 83.144C19.824 88.736 15.84 92.456 10.56 92.456ZM10.56 89.936C14.112 89.936 16.992 87.272 16.992 83.144C16.992 78.992 14.112 76.304 10.56 76.304C7.00801 76.304 4.12801 78.992 4.12801 83.144C4.12801 87.272 7.00801 89.936 10.56 89.936Z" stroke="black"/>
<path d="M26.4452 90.872C26.4212 91.784 25.7492 92.192 25.0532 92.192C24.3812 92.192 23.6852 91.76 23.6852 90.968C23.6852 90.944 23.6852 90.92 23.6852 90.896C23.7812 89.024 23.8052 86.912 23.8052 84.872C23.8052 82.4 23.7572 80.048 23.7572 78.368C23.7572 75.416 23.7812 73.832 28.4852 73.832C28.9892 73.832 29.4692 73.856 29.8292 73.88C33.6212 74.12 35.3732 76.688 35.3732 79.28C35.3732 81.944 33.5252 84.656 30.1652 84.992C29.5892 85.064 29.0372 85.112 28.4372 85.112C27.8852 85.112 27.3092 85.064 26.6852 84.92C26.6132 84.896 26.5652 84.896 26.5172 84.896C26.3972 84.896 26.3732 84.968 26.3732 85.16C26.3732 86.648 26.4452 88.352 26.4452 89.936C26.4452 90.248 26.4452 90.56 26.4452 90.872ZM29.5892 76.376C29.5892 76.376 29.0132 76.352 28.4372 76.352C26.5172 76.352 26.3012 76.616 26.3012 78.848C26.3012 79.688 26.3252 80.672 26.3252 81.512C26.3252 81.656 26.3252 81.776 26.3252 81.92C26.3252 82.424 26.8052 82.592 28.2932 82.592C28.7492 82.592 29.2532 82.568 29.7572 82.52C31.5812 82.352 32.6852 80.696 32.6852 79.16C32.6852 77.72 31.7492 76.376 29.5892 76.376Z" stroke="black"/>
<path d="M48.4806 76.448C48.4806 76.448 46.3446 76.424 44.7126 76.424C42.3126 76.424 41.8086 76.472 41.7366 77.504C41.6886 78.08 41.7126 79.256 41.6886 80.648C41.6886 81.128 41.7126 81.128 44.6646 81.128C45.7686 81.128 46.9206 81.128 47.3526 81.104C48.6966 81.032 48.6966 82.304 48.6966 82.376C48.6966 83.072 48.2646 83.744 47.4246 83.744C47.4006 83.744 47.3526 83.744 47.3046 83.744C46.7046 83.696 45.7926 83.672 44.8806 83.672C41.9046 83.672 41.6646 83.696 41.6646 84.2C41.6646 87.776 41.6886 88.328 41.7366 88.736C41.8566 89.84 42.2406 89.888 45.6246 89.888C47.0406 89.888 48.5766 89.864 49.0326 89.84C49.0806 89.84 49.1046 89.84 49.1526 89.84C49.9926 89.84 50.4486 90.44 50.4486 91.064C50.4486 91.712 49.9686 92.36 48.9366 92.408C48.6246 92.432 47.2326 92.456 45.8406 92.456C44.4726 92.456 43.0806 92.432 42.7686 92.408C40.5606 92.24 39.1926 91.448 39.0966 89.336C39.0486 88.328 39.0486 86.552 39.0486 84.608C39.0486 81.68 39.0726 78.416 39.1206 76.904C39.1686 74.984 40.4166 73.976 42.3606 73.88C42.7926 73.856 44.1606 73.832 45.5046 73.832C46.8726 73.832 48.1926 73.856 48.5526 73.88C49.4646 73.928 49.8966 74.528 49.8966 75.152C49.8966 75.8 49.3926 76.448 48.4806 76.448Z" stroke="black"/>
<path d="M53.7534 91.064V91.04C53.8014 88.568 53.8254 85.664 53.8254 82.904C53.8254 80.504 53.8014 78.224 53.7774 76.424C53.7774 76.4 53.7774 76.352 53.7774 76.328C53.7774 74.648 54.7134 73.976 55.7694 73.976C56.6574 73.976 57.6174 74.48 58.1214 75.272C59.6334 77.672 63.6414 85.16 65.4654 87.896C65.6095 88.112 65.7294 88.232 65.8014 88.232C65.8734 88.232 65.9694 88.16 65.9694 87.224C65.9694 84.968 65.8974 77.48 65.8254 75.272C65.8014 74.48 66.4494 73.976 67.2174 73.976C67.9134 73.976 68.6094 74.408 68.6094 75.224C68.6094 75.248 68.6094 75.248 68.6094 75.272C68.5614 76.952 68.5374 79.28 68.5374 81.68C68.5374 84.728 68.5614 87.872 68.6094 89.96C68.6094 89.984 68.6094 90.008 68.6094 90.008C68.6094 91.448 67.5534 92.288 66.4254 92.288C65.6574 92.288 64.8894 91.904 64.3614 91.088C62.6814 88.424 58.1934 80.216 56.8974 78.032C56.8014 77.888 56.6334 77.576 56.5134 77.576C56.3694 77.576 56.3694 77.816 56.3694 78.92C56.3694 81.416 56.4414 88.496 56.5134 91.04C56.5134 91.064 56.5134 91.064 56.5134 91.088C56.5134 91.856 55.8414 92.216 55.1454 92.216C54.4494 92.216 53.7534 91.832 53.7534 91.064Z" stroke="black"/>
<path d="M80.1107 91.16C80.1107 91.16 80.1107 91.136 80.1107 91.112C80.2787 86.912 80.8307 80.168 81.0227 76.688C81.1187 74.912 82.2227 74 83.3507 74C84.3347 74 85.3427 74.672 85.7747 76.064C86.6867 78.944 88.7987 86.384 89.3747 87.56C89.4467 87.704 89.5187 87.776 89.6147 87.776C89.6867 87.776 89.7827 87.704 89.8307 87.56C90.7427 85.352 92.6627 78.68 93.5987 75.944C94.0547 74.6 95.0867 73.976 96.0707 73.976C97.2707 73.976 98.4227 74.912 98.4707 76.592C98.5427 79.688 99.0707 87.488 99.2627 90.896C99.2627 90.92 99.2627 90.944 99.2627 90.992C99.2627 91.808 98.5667 92.24 97.8707 92.24C97.1747 92.24 96.4787 91.832 96.4307 90.992C96.1907 87.56 95.9507 78.032 95.9507 78.032C95.9507 77.624 95.8547 77.456 95.7347 77.456C95.6147 77.456 95.4467 77.672 95.3747 77.96C94.8467 79.952 92.3747 87.752 91.3907 90.32C91.0787 91.136 90.3107 91.688 89.5187 91.688C88.8467 91.688 88.1747 91.304 87.7907 90.344C87.0227 88.52 84.9107 80.912 84.0227 78.08C83.9267 77.792 83.8067 77.624 83.7107 77.624C83.5907 77.624 83.4947 77.816 83.4467 78.32C83.2787 80.432 82.9427 87.728 82.8227 91.04C82.7987 91.832 82.0787 92.24 81.3827 92.24C80.7347 92.24 80.1107 91.88 80.1107 91.16Z" stroke="black"/>
<path d="M112.26 92.12C111.996 92.12 111.684 92 111.396 91.76C111.18 91.592 110.964 91.328 110.748 90.968C110.724 90.92 110.676 90.896 110.652 90.896C110.604 90.896 110.556 90.92 110.508 90.968C109.692 91.904 108.18 92.408 106.764 92.408C104.124 92.408 102.564 90.488 102.564 88.64C102.564 87.416 103.284 86.192 104.892 85.64C106.548 85.064 108.612 84.608 108.996 84.584C109.236 84.56 109.428 84.272 109.428 83.768C109.428 83.48 109.356 82.256 107.724 82.256C106.644 82.256 105.828 82.76 105.372 83.264C105.108 83.576 104.772 83.696 104.484 83.696C103.86 83.696 103.332 83.216 103.332 82.592C103.332 81.44 105.444 80.168 107.868 80.168C110.508 80.168 111.948 81.464 111.948 84.224C111.948 84.536 111.924 84.824 111.9 85.16C111.852 85.52 111.78 86.432 111.78 87.152C111.78 87.368 111.78 87.56 111.804 87.704C112.02 89.624 112.908 89.696 113.1 89.84C113.364 90.032 113.484 90.344 113.484 90.68C113.484 91.352 112.956 92.12 112.26 92.12ZM109.212 86.6H109.188C105.132 87.104 104.892 88.112 104.892 88.688C104.892 89.432 105.54 90.176 106.764 90.176C108.708 90.176 109.548 89.192 109.548 87.488C109.548 87.128 109.5 86.6 109.212 86.6Z" stroke="black"/>
<path d="M118.799 81.464C118.823 81.512 118.847 81.536 118.871 81.536C118.895 81.536 118.919 81.536 118.943 81.512C119.831 80.744 120.959 80.264 122.279 80.264C125.591 80.264 128.087 82.664 128.087 86.288C128.087 89.792 125.591 92.312 122.279 92.312C120.959 92.312 119.831 91.808 118.943 91.04C118.895 91.016 118.847 90.968 118.823 90.968C118.775 90.968 118.751 91.016 118.751 91.112C118.751 93.752 118.799 96.032 118.823 97.016C118.847 97.76 118.343 98.264 117.599 98.264C116.951 98.264 116.327 97.832 116.327 97.016C116.327 96.968 116.327 96.944 116.327 96.896C116.399 96.032 116.399 94.232 116.399 92.12C116.399 88.496 116.351 83.984 116.351 81.704C116.351 80.816 116.975 80.36 117.599 80.36C118.151 80.36 118.703 80.744 118.799 81.464ZM122.231 90.128C124.151 90.128 125.687 88.664 125.687 86.288C125.687 83.936 124.151 82.496 122.231 82.496C120.311 82.496 118.775 83.936 118.775 86.288C118.775 88.664 120.311 90.128 122.231 90.128Z" stroke="black"/>
<g filter="url(#filter0_f_1_1563)">
<ellipse cx="61.1362" cy="60.7488" rx="8.59073" ry="3.06812" fill="black" fill-opacity="0.2"/>
</g>
<path fill-rule="evenodd" clip-rule="evenodd" d="M62 0C76.3594 0 88 11.6406 88 26C88 37.0098 81.1567 46.4213 71.4917 50.213L63.4809 61.1627C63.3139 61.3919 63.0921 61.579 62.8344 61.7082C62.5766 61.8373 62.2905 61.9048 62 61.9048C61.7095 61.9048 61.4234 61.8373 61.1656 61.7082C60.9079 61.579 60.6861 61.3919 60.5191 61.1627L52.5083 50.213C42.8433 46.4213 36 37.0098 36 26C36 11.6406 47.6406 0 62 0Z" fill="#F2685B"/>
<path d="M62.0003 44.8206C72.4433 44.8206 80.909 36.3548 80.9088 25.9117C80.9087 15.4687 72.4428 7.00293 61.9997 7.00293C51.5567 7.00293 43.091 15.4687 43.0912 25.9117C43.0913 36.3548 51.5572 44.8206 62.0003 44.8206Z" fill="#B6E1F2"/>
<path fill-rule="evenodd" clip-rule="evenodd" d="M45.1682 30.2087C45.3324 30.2728 45.9047 31.5854 46.0534 32.2478C46.1302 32.5911 46.1109 33.0174 46.2839 33.2098C46.5333 33.4873 47.0176 33.3546 47.2653 33.1329C47.4738 32.946 47.6606 32.632 47.8425 32.3633C48.0322 32.083 48.1367 31.7424 48.2655 31.4206C48.5353 30.7483 48.7338 30.0135 48.9196 29.3622C49.1076 28.7015 49.3005 27.9717 49.6699 27.4001C50.1769 26.6155 50.8547 26.1887 51.0936 25.2643C51.1809 24.927 51.1007 24.5848 51.1511 24.2254C51.1809 24.0136 51.4894 23.2694 51.5552 23.1865C51.6448 23.0726 51.9389 22.9029 52.055 22.8979C52.457 22.8791 52.708 23.2164 52.8247 23.4558C52.9258 23.6631 52.9292 23.934 53.0746 24.1679C53.1404 24.274 53.2991 24.4604 53.4207 24.4753C53.5998 24.498 53.7331 24.3929 53.7861 24.3597C53.8741 24.3056 54.0206 24.2121 54.0748 24.148C54.3484 23.8268 54.3645 23.1268 54.4015 22.6475C54.4375 22.188 54.5458 21.7368 54.5558 21.32C54.5807 20.2391 54.2047 19.0565 54.4596 17.9728C54.5762 17.4774 54.7919 17.0799 55.0368 16.7028C55.1905 16.4662 55.3365 16.182 55.5178 15.9913C55.6898 15.8105 55.9297 15.6645 56.1332 15.4909C56.3372 15.3173 56.5219 15.1138 56.7298 14.9717C57.0714 14.7379 57.4032 14.635 57.7493 14.5294C58.8507 14.1927 59.7126 13.5337 60.3849 12.7403C60.6149 12.4683 60.8604 12.2377 61.0777 11.9707C61.5167 11.4305 61.8617 10.7709 62.0972 10.0466C62.2178 9.67676 62.408 9.36217 62.4821 8.94972C62.5108 8.79159 62.5655 8.10767 62.5396 7.91085C62.5003 7.61339 61.7185 7.24904 60.8953 7.01904C50.9669 7.59128 43.091 15.8232 43.091 25.8951C43.091 27.5991 43.3177 29.2495 43.7401 30.8196C44.2769 30.74 44.633 30.0003 45.1682 30.2087Z" fill="#46BF00"/>
<path fill-rule="evenodd" clip-rule="evenodd" d="M62.1764 14.2419C62.3563 13.7954 62.8534 12.9038 62.8565 12.7916C63.4779 12.6304 64.0422 13.0033 64.4474 13.253C64.8905 13.5264 65.2803 13.7285 65.532 14.1453C65.3838 14.7144 65.2888 15.4596 64.9183 15.849C64.4459 16.346 63.8554 15.872 63.2285 15.7219C63.0502 15.6788 62.8032 15.6417 62.6643 15.664C62.1911 15.7405 62.5577 16.4679 62.303 16.7888C61.5504 16.7799 61.3481 15.927 61.5959 15.3564C61.7225 15.0651 62.0012 14.678 62.1772 14.2412L62.1764 14.2419Z" fill="#46BF00"/>
<path fill-rule="evenodd" clip-rule="evenodd" d="M61.8692 17.8029C61.4568 17.8601 60.9886 18.2975 60.8733 18.4739C60.4352 19.1422 60.5927 20.2245 60.2755 20.8473C60.128 21.1367 59.7722 21.3523 59.4787 21.6142C58.9367 22.0978 58.268 22.5752 57.6845 22.9569C57.3043 23.2056 56.9786 23.362 56.7631 23.6045C56.6507 23.7306 56.3872 24.0296 56.4638 24.3713C56.5003 24.5346 56.7223 24.6634 56.8877 24.7069C57.1504 24.7764 58.0131 24.8984 58.3826 24.8508C58.5043 24.835 58.6489 24.7385 58.8307 24.6827C58.984 24.6359 59.1787 24.6345 59.304 24.587C59.4844 24.5188 59.6813 24.3155 59.9018 24.1557C60.1237 23.9945 60.3328 23.8395 60.4996 23.7003C60.8733 23.3889 61.3788 23.1491 61.6953 22.8136C61.9086 22.5869 62.059 22.2535 62.243 21.9986C62.3897 21.7953 62.5422 21.5969 62.6911 21.3751C62.9832 20.9417 63.3505 20.4608 63.4636 20.0089C63.619 19.384 63.3906 18.91 63.0899 18.5463C62.8501 18.2562 62.316 17.7416 61.8692 17.8029Z" fill="#46BF00"/>
<path fill-rule="evenodd" clip-rule="evenodd" d="M79.5045 18.7343C79.2579 18.7371 78.9915 18.7194 78.7399 18.7426C78.2556 18.788 76.1208 18.9207 75.9118 19.0119C75.7686 19.0744 75.5298 19.2187 75.4308 19.3005C74.9426 19.7041 74.8486 20.435 74.8917 21.1858C74.9863 22.8202 75.8118 23.812 75.8344 25.4956C75.8383 25.7908 75.7338 26.1955 75.8344 26.5344C75.9035 26.7672 76.1164 27.0149 76.2767 27.2654C76.8772 28.2008 77.7165 28.9013 78.2202 29.8628C78.3025 30.0204 79.2861 31.2981 79.9087 31.9787C80.5572 30.0696 80.9089 28.0239 80.9089 25.8953C80.9089 23.3609 80.4085 20.9431 79.504 18.7343H79.5045Z" fill="#46BF00"/>
<path fill-rule="evenodd" clip-rule="evenodd" d="M56.1447 25.9905C55.7851 25.4051 55.1787 24.4189 54.4705 25.0835C54.3073 25.3829 54.144 25.6022 53.9216 25.9238C53.7726 26.1402 53.3728 26.4976 53.428 26.8656C53.5013 27.3554 54.3727 27.3273 54.7726 27.5041C54.9531 27.5843 55.1132 27.8277 55.349 27.8741C55.9776 27.9977 56.4965 27.3389 56.4468 26.6637C56.435 26.5073 56.2686 26.1924 56.1447 25.9915V25.9905Z" fill="#46BF00"/>
<path fill-rule="evenodd" clip-rule="evenodd" d="M59.2437 24.873C58.9964 24.7874 58.6055 25.2201 58.3021 25.2703C58.0963 25.3046 57.8766 25.2361 57.7545 25.3502C57.5675 25.5249 57.3579 26.1563 57.5134 26.6609C58.1265 27.1416 59.3048 26.823 59.4628 25.7875C59.5144 25.4507 59.4263 24.9369 59.2437 24.8741V24.873Z" fill="#46BF00"/>
<path fill-rule="evenodd" clip-rule="evenodd" d="M51.4743 29.9071C51.7159 29.5728 52.3455 29.7709 52.4137 29.1978C52.1539 28.5088 51.1309 29.1181 51.4743 29.9071Z" fill="#46BF00"/>
<path fill-rule="evenodd" clip-rule="evenodd" d="M61.3862 33.6333C61.1136 33.8329 61.7036 34.4195 61.7329 34.4029C62.0652 34.5632 62.5158 34.3913 62.387 34.0181C62.3073 33.7875 61.6649 33.4293 61.3862 33.6333Z" fill="#46BF00"/>
<path fill-rule="evenodd" clip-rule="evenodd" d="M53.2294 35.4418C52.8733 35.2388 52.4459 35.5181 51.9787 35.3649C51.7095 35.277 51.5823 34.9585 51.2285 35.0951C51.2135 35.0995 51.1903 35.0956 51.1898 35.1144C50.8342 35.3688 50.8879 36.1135 51.0549 36.4806C51.1118 36.6056 51.3766 36.8798 51.5552 36.9423C51.7731 37.0186 52.0091 36.9506 52.3055 36.9229C52.7401 36.882 53.0768 36.793 53.2675 36.5768C53.5075 36.3043 53.5866 35.6458 53.2288 35.4418H53.2294Z" fill="#46BF00"/>
<path fill-rule="evenodd" clip-rule="evenodd" d="M66.7156 35.3845C66.3518 35.0606 65.3792 35.2319 64.7915 35.1921C64.5062 35.1722 64.2447 35.1037 64.0219 35.0959C63.7521 35.0865 63.4922 35.363 63.5215 35.6156C63.5392 35.766 63.7736 35.9723 63.9063 36.0392C64.1756 36.1741 65.3831 36.3725 65.7148 36.4428C65.8962 36.4815 66.0963 36.5423 66.2727 36.5196C66.7438 36.4594 67.1197 35.745 66.7156 35.3845Z" fill="#46BF00"/>
<path fill-rule="evenodd" clip-rule="evenodd" d="M55.3647 38.231C55.0816 38.1409 54.8892 37.9513 54.5757 37.9806C53.8569 38.0486 53.9476 38.8713 54.2677 39.2694C54.5071 39.5679 54.8472 39.8383 55.0755 40.0777C55.5267 40.5498 56.309 40.139 56.4798 39.6542C56.5998 39.313 56.539 38.7745 56.3261 38.5771C56.1205 38.3864 55.7511 38.3543 55.3641 38.231H55.3647Z" fill="#46BF00"/>
<path fill-rule="evenodd" clip-rule="evenodd" d="M74.5075 40.0782C74.5075 40.0782 74.5119 40.0721 74.5141 40.0693C74.4273 40.1456 74.34 40.2219 74.252 40.2966C74.3433 40.2407 74.4312 40.17 74.5075 40.0776V40.0782Z" fill="#46BF00"/>
<path fill-rule="evenodd" clip-rule="evenodd" d="M74.6418 38.0393C74.199 38.1969 74.0469 38.6176 73.7185 38.9433C73.5991 39.0616 73.4172 39.1395 73.353 39.2319C73.0755 39.6333 73.2861 40.3935 73.7567 40.4819C73.9004 40.4521 74.0823 40.4007 74.252 40.2967C74.34 40.2215 74.4273 40.1458 74.5141 40.0695C74.7375 39.7919 75.0399 39.1102 75.0847 38.7315C75.1284 38.3616 74.9907 37.9431 74.6424 38.0387L74.6418 38.0393Z" fill="#46BF00"/>
<path fill-rule="evenodd" clip-rule="evenodd" d="M70.5632 42.0984C70.7677 41.3205 70.5112 40.4376 70.1783 39.9433C69.9721 39.6381 69.6011 39.2876 69.2738 39.0968C68.5268 38.6606 67.0534 38.576 66.1958 38.9238C65.8951 39.046 65.7425 39.3451 65.5031 39.4816C65.1885 39.6613 63.0471 40.0577 62.5401 40.0395C62.1326 40.0246 61.8606 39.8333 61.6743 39.5966C61.5499 39.4385 61.3951 39.2185 61.3282 39.0388C61.2541 38.8397 61.2845 38.5815 61.1933 38.3654C61.1396 38.2376 60.809 37.9955 60.616 37.9231C60.4872 37.8744 60.3092 37.8628 60.1925 37.865C59.5396 37.8794 58.7561 38.032 58.4609 38.4035C58.3121 38.5904 57.8306 39.6232 57.7681 39.8659C57.6852 40.1893 57.6155 40.6703 57.6912 41.0391C57.7283 41.2194 57.9561 42.0045 57.9992 42.2129C58.1219 42.8067 58.3696 43.2324 58.7301 43.5979C58.912 43.782 60.6409 44.4548 61.6262 44.7987C61.75 44.8009 61.8739 44.8037 61.9983 44.8037C64.8219 44.8037 67.5007 44.1834 69.9069 43.0737C70.0313 42.9267 70.1313 42.8001 70.1767 42.732C70.3132 42.5286 70.504 42.3152 70.5615 42.0973L70.5632 42.0984Z" fill="#46BF00"/>
<defs>
<filter id="filter0_f_1_1563" x="50.5455" y="55.6807" width="21.1815" height="10.1362" filterUnits="userSpaceOnUse" color-interpolation-filters="sRGB">
<feFlood flood-opacity="0" result="BackgroundImageFix"/>
<feBlend mode="normal" in="SourceGraphic" in2="BackgroundImageFix" result="shape"/>
<feGaussianBlur stdDeviation="1" result="effect1_foregroundBlur_1_1563"/>
</filter>
</defs>
</svg>
