<svg width="319" height="73" viewBox="0 0 319 73" fill="none" xmlns="http://www.w3.org/2000/svg">
<path d="M29.728 28.3347C29.856 28.2281 30.0267 28.0574 30.24 27.8227C30.4747 27.5881 30.656 27.4707 30.784 27.4707C30.912 27.4707 31.2 27.7054 31.648 28.1747C32.1173 28.6227 32.5547 29.1027 32.96 29.6147C33.3653 30.1267 33.568 30.4574 33.568 30.6067C33.44 30.7347 33.28 30.8307 33.088 30.8947C32.9173 30.9374 32.6293 30.9907 32.224 31.0547C31.456 32.5054 30.4107 34.0414 29.088 35.6627C30.2613 36.0467 31.1573 36.5267 31.776 37.1027C32.3947 37.6574 32.7787 38.2334 32.928 38.8307C32.928 37.8921 32.8853 37.1241 32.8 36.5267L36.576 38.1267H45.76L46.528 37.1667C46.6133 37.0601 46.7307 36.9214 46.88 36.7507C47.0293 36.5587 47.1467 36.4201 47.232 36.3347C47.3387 36.2494 47.4347 36.2067 47.52 36.2067C47.648 36.2067 47.968 36.3881 48.48 36.7507C48.992 37.1134 49.4613 37.4974 49.888 37.9027C50.336 38.2867 50.56 38.5534 50.56 38.7027C50.2827 39.0014 49.8773 39.2041 49.344 39.3107V44.0147C49.3867 46.6601 49.472 49.1667 49.6 51.5347C49.4293 51.7481 49.056 51.9614 48.48 52.1747C47.9253 52.4094 47.264 52.5267 46.496 52.5267C46.0267 52.5267 45.792 52.3134 45.792 51.8867C45.792 51.8867 45.8347 51.6521 45.92 51.1827V50.4787H36.256V51.8867C36.256 51.9721 36.1387 52.0894 35.904 52.2387C35.6693 52.3881 35.3387 52.5161 34.912 52.6227C34.5067 52.7294 34.0373 52.7827 33.504 52.7827C33.2267 52.7827 33.0027 52.7187 32.832 52.5907C32.6827 52.4627 32.608 52.3134 32.608 52.1427C32.6933 50.9481 32.7573 49.7641 32.8 48.5907C32.864 47.4174 32.9067 45.9347 32.928 44.1427V39.7907C32.8213 40.1321 32.6507 40.3987 32.416 40.5907C32.1813 40.7827 31.904 40.8787 31.584 40.8787C31.2 40.8787 30.8267 40.7294 30.464 40.4307C30.2507 39.3001 29.7493 38.0734 28.96 36.7507V44.1107C29.0027 46.7561 29.088 49.2627 29.216 51.6307C29.0453 51.9081 28.672 52.1854 28.096 52.4627C27.5413 52.7614 26.8907 52.9107 26.144 52.9107C25.8453 52.9107 25.6107 52.8467 25.44 52.7187C25.2693 52.5907 25.184 52.4414 25.184 52.2707C25.2693 51.0121 25.344 49.7961 25.408 48.6227C25.472 47.4281 25.5147 45.8707 25.536 43.9507V39.3747C24 40.6974 22.592 41.7427 21.312 42.5107L21.024 42.2547C22.6027 40.6547 24.0853 38.7454 25.472 36.5267C26.88 34.3081 27.9467 32.2174 28.672 30.2547H26.464C25.184 30.2761 23.84 30.4254 22.432 30.7027L21.568 29.1347C22.3147 29.2627 23.232 29.3481 24.32 29.3907H25.632V29.3587C25.632 26.6707 25.4933 24.4841 25.216 22.7987C26.944 23.1614 28.128 23.4494 28.768 23.6627C29.408 23.8761 29.728 24.0681 29.728 24.2387C29.728 24.3241 29.6427 24.4201 29.472 24.5267L28.928 24.8787V29.1987L29.728 28.3347ZM46.08 24.1747C46.1867 24.0254 46.304 23.8654 46.432 23.6947C46.56 23.5027 46.688 23.3427 46.816 23.2147C46.944 23.0654 47.0507 22.9907 47.136 22.9907C47.264 22.9907 47.584 23.1934 48.096 23.5987C48.608 24.0041 49.088 24.4307 49.536 24.8787C49.984 25.3267 50.208 25.6254 50.208 25.7747C50.144 26.1161 49.8773 26.2867 49.408 26.2867H38.24C36.7253 26.3081 35.1253 26.4574 33.44 26.7347L32.608 25.1027C33.7813 25.2307 35.2 25.3161 36.864 25.3587H45.28L46.08 24.1747ZM45.184 28.1107C45.2907 27.9827 45.408 27.8227 45.536 27.6307C45.664 27.4387 45.7707 27.3001 45.856 27.2147C45.9413 27.1081 46.0267 27.0547 46.112 27.0547C46.24 27.0547 46.5493 27.2467 47.04 27.6307C47.5307 27.9934 47.9893 28.3881 48.416 28.8147C48.864 29.2414 49.088 29.5294 49.088 29.6787C48.9813 29.8067 48.8427 29.9134 48.672 29.9987C48.5227 30.0841 48.288 30.1587 47.968 30.2227V32.0467L48 33.1347C48.0213 33.9667 48.064 34.7561 48.128 35.5027C48.0213 35.6947 47.6907 35.8867 47.136 36.0787C46.6027 36.2707 45.952 36.3667 45.184 36.3667H44.576V35.2147H37.696V35.8867C37.696 36.0361 37.4293 36.2067 36.896 36.3987C36.384 36.5907 35.7547 36.6867 35.008 36.6867C34.496 36.6867 34.24 36.4734 34.24 36.0467C34.304 35.5134 34.3467 34.9801 34.368 34.4467C34.368 34.1267 34.3787 33.8707 34.4 33.6787V32.1747C34.4 30.3614 34.304 28.8147 34.112 27.5347L37.984 29.1347H44.48L45.184 28.1107ZM37.696 30.0307V34.3187H44.576V30.0307H37.696ZM39.488 43.6627V39.0227H36.256V43.6627H39.488ZM45.92 43.6627V39.0227H42.624V43.6627H45.92ZM39.488 44.5587H36.256V49.5827H39.488V44.5587ZM42.624 44.5587V49.5827H45.92V44.5587H42.624ZM63.872 40.4947C62.0373 43.2681 59.6693 45.6787 56.768 47.7267L56.416 47.3427C57.888 45.7001 59.1893 43.7161 60.32 41.3907C61.4507 39.0654 62.3573 36.6547 63.04 34.1587H61.184C60.096 34.1801 58.9653 34.3294 57.792 34.6067L56.96 33.0067C58.1333 33.1347 59.552 33.2201 61.216 33.2627H63.872V28.0147C61.4187 28.3347 59.1787 28.5374 57.152 28.6227L57.088 28.2387C59.2 27.6201 61.4293 26.7987 63.776 25.7747C66.144 24.7294 67.9893 23.7694 69.312 22.8947L73.312 26.6707C73.0987 26.8414 72.8213 26.9267 72.48 26.9267C72.1813 26.9267 71.7547 26.8414 71.2 26.6707C69.9413 26.9907 68.6613 27.2681 67.36 27.5027V33.2627H68.832L69.696 31.8867C69.7813 31.7374 69.9093 31.5347 70.08 31.2787C70.2507 31.0227 70.3893 30.8307 70.496 30.7027C70.6027 30.5747 70.6987 30.5107 70.784 30.5107C70.912 30.5107 71.2427 30.7454 71.776 31.2147C72.3093 31.6627 72.8107 32.1427 73.28 32.6547C73.7493 33.1667 73.984 33.4974 73.984 33.6467C73.8987 33.9881 73.6107 34.1587 73.12 34.1587H67.36V36.3987C69.2373 37.0174 70.6027 37.8067 71.456 38.7667C72.3307 39.7054 72.768 40.6334 72.768 41.5507C72.768 42.1054 72.608 42.5747 72.288 42.9587C71.9893 43.3427 71.6053 43.5347 71.136 43.5347C70.6667 43.5347 70.1973 43.3321 69.728 42.9267C69.6213 42.0307 69.344 41.0814 68.896 40.0787C68.4693 39.0547 67.9573 38.1054 67.36 37.2307V44.1747C67.4027 46.8201 67.488 49.3267 67.616 51.6947C67.4453 51.9721 67.072 52.2387 66.496 52.4947C65.92 52.7721 65.248 52.9107 64.48 52.9107C64.2027 52.9107 63.9787 52.8467 63.808 52.7187C63.6373 52.5907 63.552 52.4414 63.552 52.2707C63.6373 51.1187 63.7013 49.9881 63.744 48.8787C63.808 47.7694 63.8507 46.3614 63.872 44.6547V40.4947ZM80.8 29.7747C80.8 27.0867 80.6613 24.9001 80.384 23.2147C82.1547 23.5987 83.3707 23.9081 84.032 24.1427C84.7147 24.3561 85.056 24.5481 85.056 24.7187C85.056 24.8041 84.9707 24.9001 84.8 25.0067L84.256 25.3907V48.3027C84.256 49.2627 84.1493 50.0307 83.936 50.6067C83.7227 51.1827 83.2747 51.6414 82.592 51.9827C81.9307 52.3454 80.9387 52.5907 79.616 52.7187C79.5093 51.4601 79.2533 50.5961 78.848 50.1267C78.5707 49.8067 78.2187 49.5507 77.792 49.3587C77.3867 49.1667 76.8 48.9961 76.032 48.8467V48.3987C78.2933 48.5481 79.648 48.6227 80.096 48.6227C80.3733 48.6227 80.5547 48.5801 80.64 48.4947C80.7467 48.4094 80.8 48.2601 80.8 48.0467V29.7747ZM74.176 31.9507C74.176 29.2627 74.0373 27.0761 73.76 25.3907C75.488 25.7747 76.672 26.0734 77.312 26.2867C77.952 26.5001 78.272 26.6921 78.272 26.8627C78.272 26.9481 78.1867 27.0441 78.016 27.1507L77.472 27.5347V37.1347C77.5147 39.7801 77.6 42.2867 77.728 44.6547C77.5787 44.9107 77.1947 45.1774 76.576 45.4547C75.9787 45.7321 75.3813 45.8707 74.784 45.8707C74.5067 45.8707 74.2827 45.8067 74.112 45.6787C73.9627 45.5507 73.888 45.4014 73.888 45.2307C74.0373 43.3961 74.1333 41.3587 74.176 39.1187V31.9507ZM115.968 24.1427C116.075 23.9934 116.224 23.7907 116.416 23.5347C116.608 23.2787 116.757 23.0974 116.864 22.9907C116.971 22.8627 117.067 22.7987 117.152 22.7987C117.28 22.7987 117.643 23.0334 118.24 23.5027C118.837 23.9507 119.403 24.4201 119.936 24.9107C120.469 25.4014 120.736 25.7214 120.736 25.8707C120.651 26.2121 120.352 26.3827 119.84 26.3827H98.432V33.1667C98.432 35.7694 98.304 38.1694 98.048 40.3667C97.792 42.5641 97.2053 44.7934 96.288 47.0547C95.392 49.2947 94.0373 51.2681 92.224 52.9747L91.904 52.7187C93.1627 50.0947 93.984 47.2041 94.368 44.0467C94.752 40.8681 94.944 37.2414 94.944 33.1667V28.4307C94.944 26.5107 94.848 24.8787 94.656 23.5347L99.008 25.4547H115.04L115.968 24.1427ZM114.016 28.1427C114.101 28.0361 114.219 27.8974 114.368 27.7267C114.517 27.5347 114.635 27.3961 114.72 27.3107C114.827 27.2254 114.923 27.1827 115.008 27.1827C115.136 27.1827 115.477 27.3854 116.032 27.7907C116.587 28.1961 117.109 28.6227 117.6 29.0707C118.091 29.4974 118.336 29.7854 118.336 29.9347C118.144 30.2121 117.739 30.4254 117.12 30.5747V37.6467C117.099 37.7107 116.896 37.8174 116.512 37.9667C116.149 38.1161 115.744 38.2334 115.296 38.3187C116.917 39.6841 117.728 40.5161 117.728 40.8147C117.728 40.9427 117.611 41.0281 117.376 41.0707L116.768 41.1667C114.869 41.8494 113.088 42.4147 111.424 42.8627C111.339 43.1401 111.029 43.3321 110.496 43.4387V44.7827H115.392L116.288 43.5347C116.373 43.4281 116.501 43.2467 116.672 42.9907C116.864 42.7347 117.013 42.5534 117.12 42.4467C117.248 42.3187 117.355 42.2547 117.44 42.2547C117.568 42.2547 117.92 42.4787 118.496 42.9267C119.072 43.3534 119.605 43.8014 120.096 44.2707C120.608 44.7401 120.864 45.0494 120.864 45.1987C120.8 45.5401 120.512 45.7107 120 45.7107H110.496V48.7187C110.496 49.6574 110.379 50.3934 110.144 50.9267C109.909 51.4814 109.451 51.9294 108.768 52.2707C108.085 52.6121 107.061 52.8361 105.696 52.9427C105.632 52.3454 105.536 51.8547 105.408 51.4707C105.28 51.1081 105.099 50.8094 104.864 50.5747C104.587 50.2974 104.224 50.0627 103.776 49.8707C103.328 49.6574 102.709 49.4867 101.92 49.3587V48.9427C104.395 49.1134 105.845 49.1987 106.272 49.1987C106.528 49.1987 106.688 49.1561 106.752 49.0707C106.837 48.9854 106.88 48.8467 106.88 48.6547V45.7107H102.848C101.333 45.7321 99.7333 45.8814 98.048 46.1587L97.248 44.5267C98.4213 44.6547 99.84 44.7401 101.504 44.7827H106.88C106.88 43.6307 106.827 42.7241 106.72 42.0627L110.048 42.5107C110.987 41.8921 111.819 41.2947 112.544 40.7187H105.312C103.797 40.7401 102.197 40.8894 100.512 41.1667L99.648 39.5667C100.821 39.6947 102.24 39.7801 103.904 39.8227H113.248L114.656 38.4147C114.549 38.4361 114.389 38.4467 114.176 38.4467H113.568V37.3587H104.288V37.9027C104.288 38.0094 104.128 38.1587 103.808 38.3507C103.509 38.5214 103.125 38.6814 102.656 38.8307C102.187 38.9587 101.739 39.0227 101.312 39.0227C101.077 39.0227 100.896 38.9587 100.768 38.8307C100.661 38.7027 100.608 38.5534 100.608 38.3827C100.693 37.5507 100.757 36.4841 100.8 35.1827V33.2627C100.8 30.7667 100.683 28.8041 100.448 27.3747L104.48 29.0707H113.248L114.016 28.1427ZM113.568 32.6867V29.9987H104.288V32.6867H113.568ZM104.288 33.6147V36.4627H113.568V33.6147H104.288ZM148.32 38.5107C148.448 38.3614 148.608 38.1587 148.8 37.9027C148.992 37.6254 149.141 37.4227 149.248 37.2947C149.376 37.1667 149.483 37.1027 149.568 37.1027C149.696 37.1027 150.08 37.3481 150.72 37.8387C151.36 38.3081 151.968 38.7987 152.544 39.3107C153.12 39.8227 153.408 40.1534 153.408 40.3027C153.323 40.6441 153.045 40.8147 152.576 40.8147H143.488V50.4147H149.792L150.816 48.9747C150.901 48.8467 151.051 48.6441 151.264 48.3667C151.477 48.0681 151.648 47.8547 151.776 47.7267C151.904 47.5774 152.011 47.5027 152.096 47.5027C152.224 47.5027 152.619 47.7587 153.28 48.2707C153.941 48.7614 154.56 49.2734 155.136 49.8067C155.733 50.3401 156.032 50.6814 156.032 50.8307C155.947 51.1721 155.648 51.3427 155.136 51.3427H132.544C131.029 51.3641 129.429 51.5134 127.744 51.7907L126.944 50.1587C128.117 50.2867 129.536 50.3721 131.2 50.4147H139.52V40.8147H136.192C134.677 40.8361 133.077 40.9854 131.392 41.2627L130.56 39.6307C131.733 39.7587 133.152 39.8441 134.816 39.8867H139.52V31.6947H134.08C132.139 35.0014 129.867 37.6147 127.264 39.5347L126.912 39.2467C128.427 36.9427 129.749 34.0947 130.88 30.7027C131.221 29.6787 131.531 28.4841 131.808 27.1187C132.085 25.7534 132.235 24.6441 132.256 23.7907L137.792 25.6147C137.749 25.8067 137.621 25.9667 137.408 26.0947C137.216 26.2227 136.949 26.2867 136.608 26.2867C135.861 28.1854 135.179 29.6894 134.56 30.7987H139.52V29.4547C139.52 26.7667 139.381 24.5801 139.104 22.8947L144.608 23.5667C144.565 23.8227 144.459 24.0254 144.288 24.1747C144.139 24.3241 143.872 24.4307 143.488 24.4947V30.7987H148.32L149.312 29.4547C149.419 29.3054 149.568 29.1027 149.76 28.8467C149.952 28.5907 150.101 28.3987 150.208 28.2707C150.336 28.1427 150.443 28.0787 150.528 28.0787C150.656 28.0787 151.029 28.3134 151.648 28.7827C152.288 29.2307 152.885 29.7107 153.44 30.2227C154.016 30.7134 154.304 31.0334 154.304 31.1827C154.24 31.5241 153.941 31.6947 153.408 31.6947H143.488V39.8867H147.328L148.32 38.5107ZM183.872 29.4547C184.192 29.4547 184.693 29.6681 185.376 30.0947C186.059 30.5001 186.656 30.9801 187.168 31.5347C187.701 32.0894 187.968 32.5907 187.968 33.0387C187.968 33.3374 187.872 33.5827 187.68 33.7747C187.509 33.9667 187.221 34.1801 186.816 34.4147C186.432 34.6707 186.112 34.8947 185.856 35.0867C185.621 35.2787 185.408 35.5241 185.216 35.8227C183.125 38.9801 180.928 41.5614 178.624 43.5667C176.341 45.5507 173.952 47.0867 171.456 48.1747C168.96 49.2627 166.165 50.1267 163.072 50.7667L162.72 50.7987C162.549 50.7987 162.464 50.7454 162.464 50.6387C162.464 50.5321 162.603 50.4254 162.88 50.3187C171.52 46.6921 177.984 40.9427 182.272 33.0707C182.4 32.8147 182.464 32.6227 182.464 32.4947C182.464 32.3241 182.379 32.2387 182.208 32.2387C182.123 32.2387 181.995 32.2707 181.824 32.3347C181.077 32.6547 180.459 32.8894 179.968 33.0387C179.499 33.1881 179.083 33.2627 178.72 33.2627C178.251 33.2627 177.771 33.1134 177.28 32.8147C175.573 34.7347 173.76 36.3347 171.84 37.6147C169.92 38.8947 168.043 39.8867 166.208 40.5907C166.016 40.6761 165.867 40.7187 165.76 40.7187C165.675 40.7187 165.632 40.6974 165.632 40.6547C165.632 40.5907 165.792 40.4414 166.112 40.2067C167.84 38.9267 169.387 37.4867 170.752 35.8867C172.117 34.2654 173.184 32.7721 173.952 31.4067C174.72 30.0414 175.104 29.0921 175.104 28.5587C175.104 28.1961 174.944 27.8867 174.624 27.6307C174.325 27.3747 173.931 27.1827 173.44 27.0547C173.163 26.9907 173.024 26.9161 173.024 26.8307C173.024 26.7454 173.184 26.6494 173.504 26.5427C174.101 26.3721 174.667 26.2867 175.2 26.2867C175.84 26.2867 176.523 26.4574 177.248 26.7987C177.973 27.1401 178.581 27.5561 179.072 28.0467C179.563 28.5161 179.808 28.9427 179.808 29.3267C179.808 29.4334 179.765 29.5614 179.68 29.7107C179.616 29.8387 179.541 29.9667 179.456 30.0947C178.859 30.9054 178.411 31.4921 178.112 31.8547C178.837 31.7481 180.053 31.2147 181.76 30.2547C182.272 29.9561 182.667 29.7534 182.944 29.6467C183.243 29.5187 183.552 29.4547 183.872 29.4547ZM221.792 40.7507C222.219 40.7507 222.763 40.9214 223.424 41.2627C224.107 41.5827 224.693 41.9881 225.184 42.4787C225.696 42.9481 225.952 43.4067 225.952 43.8547C225.952 44.2814 225.771 44.6334 225.408 44.9107C225.045 45.1881 224.64 45.3267 224.192 45.3267C223.979 45.3267 223.776 45.2947 223.584 45.2307C221.451 44.5481 219.157 44.2067 216.704 44.2067C215.339 44.2067 213.877 44.3134 212.32 44.5267C210.528 44.7614 208.288 45.1454 205.6 45.6787C205.237 45.7427 204.704 45.8921 204 46.1267C203.552 46.2761 203.221 46.3507 203.008 46.3507C202.24 46.3507 201.483 46.0734 200.736 45.5187C199.989 44.9641 199.371 44.3347 198.88 43.6307C198.389 42.9267 198.144 42.4041 198.144 42.0627C198.144 41.9347 198.208 41.8707 198.336 41.8707C198.507 41.8707 198.795 41.9774 199.2 42.1907C200.053 42.6387 201.003 42.8627 202.048 42.8627C202.475 42.8627 203.861 42.7241 206.208 42.4467C206.933 42.3827 207.616 42.3187 208.256 42.2547C208.896 42.1907 209.493 42.1267 210.048 42.0627C210.261 40.1001 210.368 38.4574 210.368 37.1347C210.368 36.2601 210.304 35.6627 210.176 35.3427C210.112 35.1721 210.016 35.0121 209.888 34.8627L208.384 35.1827C207.829 35.2894 207.275 35.4601 206.72 35.6947C206.251 35.8867 205.899 35.9827 205.664 35.9827C205.045 35.9827 204.384 35.6521 203.68 34.9907C202.976 34.3294 202.432 33.6361 202.048 32.9107C201.835 32.5481 201.728 32.2921 201.728 32.1427C201.728 32.0361 201.781 31.9827 201.888 31.9827C201.931 31.9827 202.091 32.0361 202.368 32.1427C203.115 32.4201 204.043 32.5587 205.152 32.5587C206.133 32.5587 207.808 32.4201 210.176 32.1427C212.565 31.8441 214.133 31.5667 214.88 31.3107C215.307 31.1401 215.573 31.0334 215.68 30.9907C216.576 30.6281 217.248 30.4467 217.696 30.4467C218.101 30.4467 218.592 30.6067 219.168 30.9267C219.744 31.2254 220.245 31.5774 220.672 31.9827C221.12 32.3881 221.344 32.7187 221.344 32.9747C221.344 33.1881 221.216 33.3694 220.96 33.5187C220.725 33.6681 220.416 33.7427 220.032 33.7427L219.264 33.7107C217.728 33.7107 215.659 33.9134 213.056 34.3187C214.08 34.8734 214.592 35.4067 214.592 35.9187C214.592 36.0467 214.507 36.2281 214.336 36.4627C214.187 36.6974 214.069 36.9321 213.984 37.1667C213.856 37.5081 213.717 38.1374 213.568 39.0547C213.419 39.9507 213.291 40.8467 213.184 41.7427L214.4 41.6467C215.851 41.4974 216.896 41.4121 217.536 41.3907C218.091 41.3694 218.816 41.2734 219.712 41.1027L220.448 40.9427C221.173 40.8147 221.621 40.7507 221.792 40.7507ZM249.6 38.8947C251.733 39.6627 253.632 40.6547 255.296 41.8707C256.981 43.0654 257.824 44.3241 257.824 45.6467C257.824 46.3721 257.611 46.9374 257.184 47.3427C256.757 47.7481 256.277 47.9507 255.744 47.9507C255.296 47.9507 254.891 47.7907 254.528 47.4707C254.165 47.1294 253.867 46.6601 253.632 46.0627C253.12 44.7827 252.448 43.5667 251.616 42.4147C250.784 41.2627 249.899 40.3134 248.96 39.5667C247.125 41.5934 245.003 43.3961 242.592 44.9747C240.203 46.5321 237.269 47.9827 233.792 49.3267C233.664 49.3694 233.557 49.3907 233.472 49.3907C233.344 49.3907 233.28 49.3481 233.28 49.2627C233.28 49.1561 233.408 49.0281 233.664 48.8787C235.904 47.6414 238.123 46.0521 240.32 44.1107C242.539 42.1694 244.469 40.1534 246.112 38.0627C247.776 35.9721 248.917 34.1054 249.536 32.4627C249.621 32.2281 249.664 32.0467 249.664 31.9187C249.664 31.8121 249.611 31.7587 249.504 31.7587C249.291 31.7587 248.491 31.9614 247.104 32.3667C245.739 32.7721 244.608 33.1667 243.712 33.5507L243.072 33.8707C242.859 33.9774 242.645 34.0734 242.432 34.1587C242.24 34.2441 242.059 34.2867 241.888 34.2867C241.355 34.2867 240.789 34.0521 240.192 33.5827C239.595 33.0921 239.093 32.5161 238.688 31.8547C238.283 31.1934 238.08 30.6067 238.08 30.0947C238.08 29.9454 238.101 29.8281 238.144 29.7427C238.187 29.6361 238.24 29.5827 238.304 29.5827C238.368 29.5827 238.485 29.6787 238.656 29.8707C238.827 30.0414 239.008 30.1801 239.2 30.2867C239.797 30.6494 240.523 30.8307 241.376 30.8307C241.973 30.8307 244.725 30.3934 249.632 29.5187C249.952 29.4547 250.357 29.2414 250.848 28.8787C250.891 28.8574 251.008 28.7827 251.2 28.6547C251.392 28.5054 251.563 28.4307 251.712 28.4307C252.032 28.4307 252.491 28.6334 253.088 29.0387C253.685 29.4441 254.219 29.9027 254.688 30.4147C255.157 30.9267 255.392 31.3427 255.392 31.6627C255.392 31.8334 255.328 31.9934 255.2 32.1427C255.072 32.2707 254.848 32.4627 254.528 32.7187C253.952 33.1454 253.557 33.5294 253.344 33.8707C252.043 35.8121 250.795 37.4867 249.6 38.8947ZM281.888 34.7347C284.32 34.8414 286.4 35.2361 288.128 35.9187C289.856 36.6014 290.72 37.7107 290.72 39.2467C290.72 39.8441 290.56 40.3347 290.24 40.7187C289.941 41.0814 289.547 41.2627 289.056 41.2627C288.331 41.2627 287.509 40.6974 286.592 39.5667C285.717 38.4787 284.917 37.6147 284.192 36.9747C283.488 36.3347 282.72 35.8334 281.888 35.4707V35.7587C281.888 38.0841 281.909 39.8227 281.952 40.9747C282.037 43.3854 282.133 45.0707 282.24 46.0307C282.368 47.0547 282.432 47.8654 282.432 48.4627C282.432 49.1027 282.325 49.6467 282.112 50.0947C281.899 50.5427 281.643 50.8734 281.344 51.0867C281.067 51.3001 280.8 51.4067 280.544 51.4067C280.096 51.4067 279.669 51.0974 279.264 50.4787C278.88 49.8814 278.56 49.1774 278.304 48.3667C278.069 47.5561 277.952 46.9161 277.952 46.4467C277.952 46.0627 278.005 45.4121 278.112 44.4947C278.219 43.6414 278.315 42.6174 278.4 41.4227C278.549 39.5027 278.624 37.2947 278.624 34.7987L278.592 30.4787C278.592 29.3054 278.528 28.4521 278.4 27.9187C278.293 27.4707 278.123 27.1081 277.888 26.8307C277.675 26.5534 277.355 26.3187 276.928 26.1267C276.8 26.0627 276.683 26.0201 276.576 25.9987C276.469 25.9561 276.395 25.9241 276.352 25.9027C276.309 25.8601 276.288 25.8174 276.288 25.7747C276.288 25.5401 276.768 25.2947 277.728 25.0387C278.709 24.7614 279.467 24.6227 280 24.6227C280.427 24.6227 280.811 24.7081 281.152 24.8787C281.515 25.0281 281.899 25.2947 282.304 25.6787C282.645 26.0201 282.816 26.4467 282.816 26.9587C282.816 27.3214 282.731 27.7267 282.56 28.1747C282.24 28.9641 282.048 29.6894 281.984 30.3507C281.92 31.0121 281.888 32.2707 281.888 34.1267V34.7347Z" fill="white"/>
</svg>
