<svg width="300" height="50" viewBox="0 0 300 50" fill="none" xmlns="http://www.w3.org/2000/svg">
<path d="M232.746 43.5508C232.909 43.5508 233.032 43.6717 233.032 43.8167V48.6427C233.032 48.7878 232.909 48.9086 232.746 48.9086H232.623C232.459 48.9086 232.337 48.7878 232.337 48.6427V48.5058C232.337 48.3608 232.214 48.2399 232.067 48.2399H228.537C228.373 48.2399 228.25 48.1191 228.25 47.9821V47.8371C228.25 47.7001 228.373 47.5792 228.537 47.5792H232.067C232.214 47.5792 232.337 47.4584 232.337 47.2973V44.6627C232.337 44.5016 232.377 44.3807 232.419 44.3807C232.476 44.3807 232.516 44.3163 232.516 44.2195C232.516 44.139 232.435 44.0584 232.337 44.0584C232.255 44.0584 232.173 44.0987 232.173 44.139C232.173 44.1793 232.05 44.2195 231.903 44.2195H228.537C228.373 44.2195 228.25 44.0987 228.25 43.9537V43.8167C228.25 43.6717 228.373 43.5508 228.537 43.5508H232.746Z" fill="white"/>
<path d="M239.524 48.9087H239.377C239.238 48.9087 239.115 48.7878 239.115 48.6428V45.831C239.115 45.686 238.993 45.5652 238.83 45.5652C238.683 45.5652 238.544 45.5893 238.502 45.6296C238.462 45.6699 238.421 45.831 238.421 45.968C238.421 46.113 238.298 46.2339 238.151 46.2339H237.481C237.334 46.2339 237.171 46.2742 237.13 46.3144C237.089 46.3547 237.072 46.4917 237.072 46.6367C237.072 46.7737 236.95 46.8945 236.787 46.8945H235.969C235.822 46.8945 235.7 46.7737 235.7 46.6367V46.4917C235.7 46.3547 235.822 46.2339 235.969 46.2339H236.64C236.803 46.2339 236.95 46.1936 236.991 46.1694C237.032 46.1291 237.072 45.968 237.072 45.831C237.072 45.686 237.195 45.5652 237.334 45.5652H238.012C238.151 45.5652 238.315 45.5248 238.356 45.4846C238.397 45.4443 238.421 45.3073 238.421 45.1623C238.421 45.0012 238.544 44.8804 238.707 44.8804H238.83C238.993 44.8804 239.115 44.7595 239.115 44.6225V44.4775C239.115 44.3405 239.238 44.2196 239.377 44.2196C239.524 44.2196 239.663 44.1955 239.704 44.1552C239.745 44.1149 239.786 43.9538 239.786 43.8168C239.786 43.6718 239.908 43.5509 240.055 43.5509C240.194 43.5509 240.358 43.5107 240.399 43.4704C240.44 43.4301 240.464 43.2931 240.464 43.1481C240.464 42.9869 240.587 42.8903 240.75 42.8903H240.873C241.037 42.8903 241.158 43.0112 241.158 43.1481V43.2931C241.158 43.4301 241.037 43.5509 240.873 43.5509C240.726 43.5509 240.587 43.5752 240.545 43.6154C240.505 43.6557 240.464 43.8169 240.464 43.9538C240.464 44.0988 240.341 44.2196 240.194 44.2196C240.055 44.2196 239.892 44.2599 239.851 44.3002C239.827 44.3405 239.786 44.4775 239.786 44.6386V48.6428C239.786 48.7878 239.663 48.9087 239.524 48.9087Z" fill="white"/>
<path d="M244.771 44.2195C244.632 44.2195 244.51 44.0987 244.51 43.9537V43.8167C244.51 43.6717 244.632 43.5508 244.771 43.5508H245.589C245.736 43.5508 245.858 43.6717 245.858 43.8167C245.858 43.9537 245.899 44.1148 245.94 44.1552C245.98 44.1954 246.12 44.2195 246.283 44.2195C246.43 44.2195 246.553 44.3404 246.553 44.4774V44.6224C246.553 44.7594 246.43 44.8803 246.267 44.8803H246.144C245.98 44.8803 245.858 44.7835 245.858 44.6224C245.858 44.4774 245.833 44.3404 245.793 44.3001C245.752 44.2599 245.589 44.2195 245.45 44.2195H244.771ZM244.771 48.9086C244.632 48.9086 244.51 48.7878 244.51 48.6427V48.5058C244.51 48.3608 244.632 48.2399 244.771 48.2399H245.45C245.589 48.2399 245.752 48.1996 245.793 48.1594C245.833 48.1432 245.858 47.9821 245.858 47.8371C245.858 47.7001 245.98 47.5792 246.144 47.5792H246.814C246.961 47.5792 247.1 47.539 247.141 47.4986C247.182 47.4584 247.223 47.3214 247.223 47.1603C247.223 47.0153 247.346 46.8944 247.493 46.8944C247.632 46.8944 247.795 46.8783 247.836 46.838C247.876 46.7978 247.901 46.6366 247.901 46.4916C247.901 46.3547 248.024 46.2338 248.163 46.2338C248.326 46.2338 248.473 46.1935 248.514 46.1693C248.554 46.1291 248.596 45.9679 248.596 45.8309C248.596 45.6859 248.693 45.5651 248.857 45.5651C249.004 45.5651 249.143 45.5247 249.184 45.4845C249.225 45.4442 249.266 45.3073 249.266 45.1461V44.4774C249.266 44.3404 249.389 44.2195 249.536 44.2195H249.675C249.822 44.2195 249.944 44.3404 249.944 44.4774V45.283C249.944 45.4442 249.822 45.5651 249.675 45.5651C249.536 45.5651 249.372 45.5892 249.331 45.6295C249.29 45.6698 249.266 45.8309 249.266 45.9679C249.266 46.113 249.143 46.2338 249.004 46.2338C248.857 46.2338 248.693 46.2741 248.653 46.3143C248.612 46.3547 248.596 46.4916 248.596 46.6366C248.596 46.7736 248.473 46.8944 248.31 46.8944C248.163 46.8944 248.024 46.9347 247.983 46.975C247.942 47.0153 247.901 47.1603 247.901 47.3214C247.901 47.4584 247.779 47.5792 247.632 47.5792C247.493 47.5792 247.329 47.5954 247.304 47.6356C247.263 47.676 247.223 47.8371 247.223 47.9821C247.223 48.1191 247.1 48.2399 246.961 48.2399H246.283C246.12 48.2399 245.98 48.2802 245.94 48.3204C245.899 48.3447 245.858 48.5058 245.858 48.6427C245.858 48.7878 245.736 48.9086 245.589 48.9086H244.771Z" fill="white"/>
<path d="M255.665 48.9087H255.518C255.379 48.9087 255.256 48.7878 255.256 48.6428V43.1481C255.256 43.0112 255.379 42.8903 255.518 42.8903H255.665C255.804 42.8903 255.926 43.0112 255.926 43.1481V44.6225C255.926 44.7595 256.049 44.8804 256.196 44.8804H257.013C257.176 44.8804 257.299 45.0012 257.299 45.1623C257.299 45.3073 257.315 45.4443 257.356 45.4846C257.397 45.5248 257.561 45.5652 257.708 45.5652H258.378C258.525 45.5652 258.648 45.686 258.648 45.831C258.648 45.968 258.689 46.1291 258.729 46.1694C258.77 46.1936 258.909 46.2339 259.056 46.2339C259.219 46.2339 259.342 46.3547 259.342 46.4917V46.6367C259.342 46.7737 259.219 46.8945 259.056 46.8945H258.934C258.77 46.8945 258.648 46.7737 258.648 46.6367C258.648 46.4917 258.623 46.3547 258.582 46.3144C258.541 46.2742 258.378 46.2339 258.239 46.2339H257.561C257.422 46.2339 257.299 46.113 257.299 45.968C257.299 45.831 257.258 45.6699 257.218 45.6296C257.176 45.5893 257.029 45.5652 256.866 45.5652H256.196C256.049 45.5652 255.926 45.686 255.926 45.831V48.6428C255.926 48.7878 255.804 48.9087 255.665 48.9087Z" fill="white"/>
<path d="M267.192 44.8803C267.331 44.8803 267.454 45.0011 267.454 45.1622V46.6366C267.454 46.7736 267.331 46.8944 267.192 46.8944C267.045 46.8944 266.881 46.9347 266.841 46.975C266.8 47.0153 266.784 47.1603 266.784 47.3214C266.784 47.4584 266.661 47.5792 266.514 47.5792C266.375 47.5792 266.211 47.5954 266.171 47.6356C266.129 47.676 266.105 47.8371 266.105 47.9821C266.105 48.1191 265.982 48.2399 265.819 48.2399C265.68 48.2399 265.533 48.2802 265.492 48.3204C265.451 48.3447 265.411 48.5058 265.411 48.6427C265.411 48.7878 265.288 48.9086 265.149 48.9086H263.654C263.49 48.9086 263.367 48.7878 263.367 48.6427V48.5058C263.367 48.3608 263.49 48.2399 263.654 48.2399H265.002C265.149 48.2399 265.312 48.1996 265.353 48.1594C265.394 48.1191 265.411 47.9821 265.411 47.8371C265.411 47.7001 265.533 47.5792 265.68 47.5792C265.844 47.5792 265.982 47.539 266.024 47.4986C266.064 47.4584 266.105 47.3214 266.105 47.1603C266.105 47.0153 266.211 46.8944 266.375 46.8944C266.514 46.8944 266.661 46.8783 266.702 46.838C266.742 46.7978 266.784 46.6366 266.784 46.4916V45.9921C266.784 45.847 266.824 45.7262 266.865 45.7262C266.906 45.7262 266.947 45.6456 266.947 45.5651C266.947 45.4684 266.865 45.3878 266.784 45.3878C266.677 45.3878 266.619 45.4281 266.619 45.4845C266.619 45.5247 266.498 45.5651 266.334 45.5651H263.654C263.49 45.5651 263.367 45.6859 263.367 45.8309V46.6366C263.367 46.7736 263.245 46.8944 263.106 46.8944H262.959C262.819 46.8944 262.698 46.7736 262.698 46.6366V45.1622C262.698 45.0011 262.819 44.8803 262.959 44.8803H264.471C264.618 44.8803 264.741 44.7594 264.741 44.6224V43.8167C264.741 43.6717 264.863 43.5508 265.002 43.5508H265.149C265.288 43.5508 265.411 43.6717 265.411 43.8167V44.6224C265.411 44.7594 265.533 44.8803 265.697 44.8803H267.192Z" fill="white"/>
<path d="M273.538 47.1605C273.538 47.3216 273.563 47.4586 273.603 47.4988C273.644 47.5392 273.807 47.5794 273.946 47.5794C274.093 47.5794 274.216 47.7003 274.216 47.8373V48.6429C274.216 48.7879 274.093 48.9088 273.946 48.9088H273.807C273.66 48.9088 273.538 48.7879 273.538 48.6429V47.9822C273.538 47.8373 273.497 47.6761 273.456 47.6358C273.415 47.5956 273.276 47.5794 273.113 47.5794C272.966 47.5794 272.843 47.4586 272.843 47.2975V47.1766C272.843 47.0155 272.72 46.8946 272.581 46.8946H270.391C270.253 46.8946 270.13 46.7738 270.13 46.6368V46.4918C270.13 46.3548 270.253 46.234 270.391 46.234H272.581C272.72 46.234 272.843 46.1131 272.843 45.9681C272.843 45.8311 272.827 45.67 272.786 45.6297C272.745 45.5894 272.581 45.5653 272.434 45.5653C272.296 45.5653 272.173 45.4444 272.173 45.2832V45.1624C272.173 45.0013 272.05 44.8805 271.903 44.8805H270.391C270.253 44.8805 270.13 44.7596 270.13 44.6226V44.4776C270.13 44.3406 270.253 44.2197 270.391 44.2197H271.903C272.05 44.2197 272.173 44.0989 272.173 43.9539V43.1482C272.173 43.0113 272.296 42.8904 272.434 42.8904H272.581C272.72 42.8904 272.843 43.0113 272.843 43.1482V43.9539C272.843 44.0989 272.966 44.2197 273.129 44.2197H275.295C275.442 44.2197 275.564 44.3406 275.564 44.4776V44.6226C275.564 44.7596 275.442 44.8805 275.295 44.8805H273.129C272.966 44.8805 272.843 45.0013 272.843 45.1624C272.843 45.3074 272.884 45.4444 272.925 45.4847C272.966 45.5249 273.113 45.5653 273.276 45.5653C273.415 45.5653 273.538 45.6861 273.538 45.8311V45.9681C273.538 46.1131 273.66 46.234 273.807 46.234H275.989C276.137 46.234 276.259 46.3548 276.259 46.4918V46.6368C276.259 46.7738 276.137 46.8946 275.989 46.8946H273.807C273.66 46.8946 273.538 47.0155 273.538 47.1605ZM275.585 43.2892C275.585 43.4262 275.463 43.547 275.299 43.547H275.176C275.013 43.547 274.89 43.4262 274.89 43.2892V42.4835C274.89 42.3224 275.013 42.2015 275.176 42.2015H275.299C275.463 42.2015 275.585 42.3224 275.585 42.4835V43.2892ZM276.671 42.2015C276.811 42.2015 276.933 42.3224 276.933 42.4835V43.2892C276.933 43.4262 276.811 43.547 276.671 43.547H276.525C276.386 43.547 276.263 43.4262 276.263 43.2892V42.4835C276.263 42.3224 276.386 42.2015 276.525 42.2015H276.671Z" fill="white"/>
<path d="M282.776 44.8804C282.924 44.8804 283.046 45.0013 283.046 45.1624V45.9681C283.046 46.1132 282.924 46.234 282.776 46.234C282.637 46.234 282.474 46.2742 282.433 46.3145C282.393 46.3548 282.368 46.4918 282.368 46.6368C282.368 46.7738 282.245 46.8946 282.082 46.8946H281.959C281.796 46.8946 281.673 46.7738 281.673 46.6368V46.4918C281.673 46.3548 281.796 46.234 281.943 46.234C282.106 46.234 282.245 46.1936 282.286 46.1695C282.327 46.1293 282.368 46.0084 282.368 45.9117C282.368 45.807 282.393 45.7264 282.45 45.7264C282.491 45.7264 282.532 45.6458 282.532 45.5653C282.532 45.4686 282.45 45.388 282.368 45.388C282.27 45.388 282.189 45.4283 282.189 45.4847C282.189 45.5249 282.066 45.5653 281.919 45.5653H281.412C281.265 45.5653 281.102 45.5894 281.085 45.6297C281.044 45.67 281.003 45.8311 281.003 45.9681C281.003 46.1132 280.88 46.234 280.733 46.234H280.594C280.448 46.234 280.325 46.3548 280.325 46.4918C280.325 46.6368 280.35 46.798 280.39 46.8382C280.431 46.8785 280.594 46.8946 280.733 46.8946C280.88 46.8946 281.003 47.0155 281.003 47.1766V48.6429C281.003 48.788 280.88 48.9088 280.733 48.9088H280.594C280.448 48.9088 280.325 48.788 280.325 48.6429V47.3216C280.325 47.1605 280.284 47.0155 280.243 46.9752C280.202 46.9349 280.063 46.8946 279.9 46.8946C279.753 46.8946 279.63 46.7738 279.63 46.6368V46.4918C279.63 46.3548 279.508 46.234 279.369 46.234H278.551C278.405 46.234 278.282 46.1132 278.282 45.9681V45.8311C278.282 45.6861 278.405 45.5653 278.551 45.5653H279.369C279.508 45.5653 279.63 45.4444 279.63 45.2832V44.4776C279.63 44.3406 279.753 44.2197 279.916 44.2197H280.039C280.202 44.2197 280.325 44.3406 280.325 44.4776V45.2832C280.325 45.4444 280.448 45.5653 280.594 45.5653C280.733 45.5653 280.88 45.5249 280.922 45.4847C280.963 45.4444 281.003 45.3075 281.003 45.1624C281.003 45.0013 281.126 44.8804 281.265 44.8804H282.776Z" fill="white"/>
<path d="M290.214 44.8805H288.048C287.884 44.8805 287.762 45.0013 287.762 45.1624V47.2975C287.762 47.4586 287.639 47.5794 287.5 47.5794H287.353C287.215 47.5794 287.092 47.4586 287.092 47.2975V45.1624C287.092 45.0013 286.969 44.8805 286.822 44.8805H286.005C285.841 44.8805 285.719 44.7596 285.719 44.6226V44.4776C285.719 44.3406 285.841 44.2197 286.005 44.2197H286.822C286.969 44.2197 287.092 44.0989 287.092 43.9539V43.1482C287.092 43.0113 287.215 42.8904 287.353 42.8904H287.5C287.639 42.8904 287.762 43.0113 287.762 43.1482V43.9539C287.762 44.0989 287.884 44.2197 288.048 44.2197H290.214C290.377 44.2197 290.5 44.0989 290.5 43.9539V43.8169C290.5 43.6719 290.622 43.551 290.769 43.551H290.908C291.055 43.551 291.178 43.6719 291.178 43.8169V43.9539C291.178 44.0989 291.301 44.2197 291.44 44.2197H292.257C292.42 44.2197 292.543 44.3406 292.543 44.4776V44.6226C292.543 44.7596 292.42 44.8805 292.257 44.8805H291.44C291.301 44.8805 291.178 45.0013 291.178 45.1624V47.9822C291.178 48.1192 291.055 48.2401 290.908 48.2401C290.769 48.2401 290.606 48.2804 290.565 48.3206C290.524 48.3448 290.5 48.506 290.5 48.6429C290.5 48.7879 290.377 48.9088 290.214 48.9088C290.075 48.9088 289.928 48.9491 289.887 48.9894C289.845 49.0296 289.805 49.1666 289.805 49.3117C289.805 49.4728 289.682 49.5936 289.543 49.5936H287.353C287.215 49.5936 287.092 49.4728 287.092 49.3117V49.1908C287.092 49.0296 287.215 48.9088 287.353 48.9088H289.396C289.543 48.9088 289.706 48.8846 289.748 48.8444C289.789 48.804 289.805 48.6429 289.805 48.506C289.805 48.3609 289.928 48.2401 290.075 48.2401C290.238 48.2401 290.377 48.1998 290.418 48.1596C290.458 48.1434 290.5 47.9822 290.5 47.8373V45.1624C290.5 45.0013 290.377 44.8805 290.214 44.8805ZM291.848 43.2892C291.848 43.4262 291.725 43.547 291.586 43.547H291.44C291.301 43.547 291.178 43.4262 291.178 43.2892V42.4835C291.178 42.3224 291.301 42.2015 291.44 42.2015H291.586C291.725 42.2015 291.848 42.3224 291.848 42.4835V43.2892ZM292.951 42.2015C293.098 42.2015 293.221 42.3224 293.221 42.4835V43.2892C293.221 43.4262 293.098 43.547 292.951 43.547H292.812C292.665 43.547 292.543 43.4262 292.543 43.2892V42.4835C292.543 42.3224 292.665 42.2015 292.812 42.2015H292.951Z" fill="white"/>
<path d="M296.176 46.2339C296.037 46.2339 295.914 46.113 295.914 45.968C295.914 45.831 295.873 45.6699 295.832 45.6297C295.791 45.5893 295.644 45.5652 295.505 45.5652C295.341 45.5652 295.219 45.4443 295.219 45.2832V45.1623C295.219 45.0012 295.341 44.8803 295.505 44.8803H295.628C295.791 44.8803 295.914 45.0012 295.914 45.1623C295.914 45.3074 295.93 45.4443 295.971 45.4846C296.012 45.5249 296.176 45.5652 296.323 45.5652H299.714C299.877 45.5652 300 45.686 300 45.831V45.968C300 46.113 299.877 46.2339 299.714 46.2339H296.176Z" fill="white"/>
<path d="M3.15039 33.3957C3.15039 32.7511 3.07275 32.0703 2.8807 31.8809C2.68865 31.6916 1.92045 31.5023 1.22988 31.5023C0.576092 31.5023 -6.10352e-05 30.9343 -6.10352e-05 30.2897V10.6997C-6.10352e-05 10.0189 0.576092 9.45085 1.22988 9.45085C1.92045 9.45085 2.68865 9.26159 2.8807 9.07224C3.07275 8.88289 3.15039 8.23833 3.15039 7.55755C3.15039 6.80021 3.72655 6.345 4.41711 6.345H14.6775C15.3681 6.345 15.9442 6.80021 15.9442 7.55755C15.9442 8.23833 16.1363 8.88289 16.3284 9.07224C16.5204 9.26159 17.1742 9.45085 17.9424 9.45085C18.6329 9.45085 19.2091 10.0189 19.2091 10.6997V11.3443C19.2091 12.025 18.6329 12.5931 17.8647 12.5931H17.2886C16.5204 12.5931 15.9442 12.025 15.9442 11.3443C15.9442 10.6997 15.8299 9.94232 15.6378 9.75305C15.4457 9.5637 14.6775 9.45085 14.0238 9.45085H5.1894C4.4212 9.45085 3.73063 9.5637 3.53858 9.75305C3.34653 9.94232 3.15448 10.6997 3.15448 11.3443V29.6049C3.15448 30.2857 3.34653 31.0431 3.53858 31.2324C3.73063 31.4217 4.4212 31.4983 5.1894 31.4983H14.0278C14.6816 31.4983 15.4499 31.4217 15.6419 31.2324C15.8339 31.0431 15.9483 30.2857 15.9483 29.6049C15.9483 28.9604 16.5245 28.3924 17.2927 28.3924H17.8689C18.6371 28.3924 19.2132 28.9604 19.2132 29.6049V30.2857C19.2132 30.9303 18.6371 31.4983 17.9465 31.4983C17.1783 31.4983 16.5245 31.6876 16.3325 31.877C16.1404 32.0663 15.9483 32.747 15.9483 33.3916C15.9483 34.1489 15.3722 34.717 14.6816 34.717H4.4212C3.73063 34.717 3.15448 34.1489 3.15448 33.3916L3.15039 33.3957Z" fill="white"/>
<path d="M28.1293 34.725C27.4387 34.725 26.8626 34.157 26.8626 33.3996C26.8626 32.7551 26.7849 32.0744 26.5929 31.885C26.4008 31.6957 25.6326 31.5063 24.9421 31.5063C24.2882 31.5063 23.7121 30.9383 23.7121 30.2938V10.6997C23.7121 10.0189 24.2882 9.45085 24.9421 9.45085C25.6326 9.45085 26.4008 9.26159 26.5929 9.07224C26.7849 8.88289 26.8626 8.23833 26.8626 7.55755C26.8626 6.80021 27.4387 6.345 28.1293 6.345H38.3897C39.0803 6.345 39.6565 6.80021 39.6565 7.55755C39.6565 8.23833 39.8485 8.88289 40.0405 9.07224C40.2326 9.26159 40.8864 9.45085 41.6546 9.45085C42.3452 9.45085 42.9213 10.0189 42.9213 10.6997V30.2897C42.9213 30.9343 42.3452 31.5023 41.6546 31.5023C40.8864 31.5023 40.2326 31.6916 40.0405 31.8809C39.8485 32.0703 39.6565 32.7511 39.6565 33.3957C39.6565 34.153 39.0803 34.7209 38.3897 34.7209H28.1293V34.725ZM37.74 31.5023C38.3938 31.5023 39.162 31.4257 39.3541 31.2364C39.5461 31.0471 39.6605 30.2897 39.6605 29.609V11.3443C39.6605 10.6997 39.5461 9.94232 39.3541 9.75305C39.162 9.5637 38.3938 9.45085 37.74 9.45085H28.9016C28.1334 9.45085 27.4428 9.5637 27.2508 9.75305C27.0587 9.94232 26.8667 10.6997 26.8667 11.3443V29.6049C26.8667 30.2857 27.0587 31.0431 27.2508 31.2324C27.4428 31.4217 28.1334 31.4983 28.9016 31.4983H37.74V31.5023Z" fill="white"/>
<path d="M49.4224 34.725H48.7686C48.078 34.725 47.5019 34.157 47.5019 33.3996V7.55755C47.5019 6.913 48.078 6.345 48.7686 6.345H49.4224C50.113 6.345 50.6891 6.913 50.6891 7.55755V33.3996C50.6891 34.157 50.113 34.725 49.4224 34.725Z" fill="white"/>
<path d="M56.4548 6.345H60.2999C60.9905 6.345 61.5666 6.913 61.5666 7.55755V10.7037C61.5666 11.3483 61.7587 12.1056 61.9507 12.2949C62.1427 12.4843 62.7966 12.597 63.5648 12.597C64.2553 12.597 64.8315 13.1651 64.8315 13.9224V17.0283C64.8315 17.7091 64.9092 18.3536 65.1012 18.543C65.2932 18.7323 66.0614 18.9217 66.752 18.9217C67.4058 18.9217 67.9819 19.4896 67.9819 20.1704V23.2763C67.9819 24.0336 68.174 24.7144 68.3661 24.9038C68.5581 25.0931 69.2487 25.2825 69.9024 25.2825C70.6706 25.2825 71.1692 24.7144 71.1692 23.9571V7.55755C71.1692 6.913 71.7453 6.345 72.5135 6.345H73.0896C73.8579 6.345 74.434 6.913 74.434 7.55755V33.3996C74.434 34.157 73.8579 34.725 73.0896 34.725H72.5135C71.7453 34.725 71.1692 34.157 71.1692 33.3996V32.8317C71.1692 32.0743 70.593 31.5063 69.9024 31.5063H69.2487C68.5581 31.5063 67.9819 30.9383 67.9819 30.2938V27.1878C67.9819 26.5071 67.9043 25.7497 67.7122 25.5604C67.5202 25.3711 66.752 25.2945 66.0614 25.2945C65.4076 25.2945 64.8315 24.7265 64.8315 23.9692V20.823C64.8315 20.1785 64.6394 19.4212 64.4474 19.2318C64.2553 19.0425 63.5648 18.9297 62.9109 18.9297C62.1427 18.9297 61.5666 18.3617 61.5666 17.7171V14.4985C61.5666 13.8177 61.4522 13.1731 61.2601 12.9838C61.0681 12.7944 60.2999 12.6051 59.6461 12.6051C58.9556 12.6051 58.3794 13.1731 58.3794 13.9304V33.4037C58.3794 34.161 57.8032 34.7291 57.1495 34.7291H56.4589C55.8051 34.7291 55.2289 34.161 55.2289 33.4037V7.55755C55.2289 6.913 55.8051 6.345 56.4589 6.345H56.4548Z" fill="white"/>
<path d="M137.676 10.893C137.676 10.2122 137.1 9.64424 136.332 9.64424H129.299C128.645 9.64424 128.069 9.0762 128.069 8.43164V7.75087C128.069 7.10633 128.645 6.53833 129.299 6.53833H149.207C149.861 6.53833 150.437 7.10633 150.437 7.75087V8.43164C150.437 9.0762 149.861 9.64424 149.207 9.64424H142.098C141.406 9.64424 140.831 10.2122 140.831 10.893V33.589C140.831 34.3463 140.254 34.9143 139.601 34.9143H138.91C138.256 34.9143 137.68 34.3463 137.68 33.589V10.893H137.676Z" fill="white"/>
<path d="M155.431 34.9143C154.74 34.9143 154.164 34.3463 154.164 33.5889C154.164 32.9444 154.086 32.2636 153.894 32.0743C153.702 31.885 152.934 31.6956 152.243 31.6956C151.589 31.6956 151.013 31.1276 151.013 30.4831V10.893C151.013 10.2122 151.589 9.64423 152.243 9.64423C152.934 9.64423 153.702 9.45488 153.894 9.26553C154.086 9.07618 154.164 8.43171 154.164 7.75087C154.164 6.99354 154.74 6.53833 155.431 6.53833H165.691C166.381 6.53833 166.958 6.99354 166.958 7.75087C166.958 8.43171 167.15 9.07618 167.341 9.26553C167.534 9.45488 168.188 9.64423 168.956 9.64423C169.646 9.64423 170.223 10.2122 170.223 10.893V30.4831C170.223 31.1276 169.646 31.6956 168.956 31.6956C168.188 31.6956 167.534 31.885 167.341 32.0743C167.15 32.2636 166.958 32.9444 166.958 33.5889C166.958 34.3463 166.381 34.9143 165.691 34.9143H155.431ZM165.037 31.6915C165.691 31.6915 166.459 31.615 166.651 31.4257C166.843 31.2363 166.958 30.479 166.958 29.7982V11.5376C166.958 10.893 166.843 10.1357 166.651 9.94634C166.459 9.75699 165.691 9.64423 165.037 9.64423H156.198C155.431 9.64423 154.74 9.75699 154.548 9.94634C154.356 10.1357 154.164 10.893 154.164 11.5376V29.7982C154.164 30.479 154.356 31.2363 154.548 31.4257C154.74 31.615 155.431 31.6915 156.198 31.6915H165.037Z" fill="white"/>
<path d="M190.482 12.7863C189.714 12.7863 189.137 12.2184 189.137 11.5376C189.137 10.893 189.023 10.1357 188.831 9.94634C188.639 9.75699 187.871 9.64423 187.217 9.64423H178.379C177.61 9.64423 176.919 9.75699 176.728 9.94634C176.536 10.1357 176.344 10.893 176.344 11.5376V29.7982C176.344 30.479 176.536 31.2363 176.728 31.4257C176.919 31.615 177.61 31.6915 178.379 31.6915H187.217C187.871 31.6915 188.639 31.615 188.831 31.4257C189.023 31.2363 189.137 30.479 189.137 29.7982V24.3438C189.137 23.663 189.329 23.095 189.599 23.095C189.791 23.095 189.984 22.7163 189.984 22.2611C189.984 21.8824 189.599 21.5038 189.137 21.5038C188.754 21.5038 188.369 21.6931 188.369 21.8824C188.369 22.0718 187.793 22.2611 187.102 22.2611H184.03C183.376 22.2611 182.8 21.6931 182.8 21.0124V20.3678C182.8 19.687 183.376 19.1189 184.03 19.1189H191.062C191.83 19.1189 192.406 19.687 192.406 20.3678V30.4831C192.406 31.1276 191.83 31.6956 191.14 31.6956C190.371 31.6956 189.718 31.885 189.526 32.0743C189.333 32.2636 189.141 32.9444 189.141 33.5889C189.141 34.3463 188.566 34.9143 187.875 34.9143H177.615C176.923 34.9143 176.348 34.3463 176.348 33.5889C176.348 32.9444 176.27 32.2636 176.078 32.0743C175.886 31.885 175.118 31.6956 174.428 31.6956C173.773 31.6956 173.197 31.1276 173.197 30.4831V10.893C173.197 10.2122 173.773 9.64423 174.428 9.64423C175.118 9.64423 175.886 9.45488 176.078 9.26553C176.27 9.07618 176.348 8.43171 176.348 7.75087C176.348 6.99354 176.923 6.53833 177.615 6.53833H187.875C188.566 6.53833 189.141 6.99354 189.141 7.75087C189.141 8.43171 189.333 9.07618 189.526 9.26553C189.718 9.45488 190.371 9.64423 191.14 9.64423C191.83 9.64423 192.406 10.2122 192.406 10.893V11.5376C192.406 12.2184 191.83 12.7863 191.062 12.7863H190.482Z" fill="white"/>
<path d="M196.897 7.7469C196.897 7.10236 197.473 6.53436 198.127 6.53436H211.579C212.269 6.53436 212.845 7.10236 212.845 7.7469V8.42771C212.845 9.07226 212.269 9.64023 211.579 9.64023H202.164C201.396 9.64023 200.82 9.45088 200.82 9.26161C200.82 8.99568 200.55 8.88291 200.052 8.88291C199.667 8.88291 199.284 9.18503 199.284 9.64023C199.284 10.0189 199.476 10.3975 199.667 10.3975C199.859 10.3975 200.052 10.9656 200.052 11.7229V17.8984C200.052 18.543 200.628 19.111 201.319 19.111H208.428C209.082 19.111 209.658 19.679 209.658 20.3598V21.0043C209.658 21.6851 209.082 22.2532 208.428 22.2532H201.319C200.628 22.2532 200.052 22.8211 200.052 23.5784V30.4751C200.052 31.1196 200.628 31.6876 201.319 31.6876H211.579C212.269 31.6876 212.845 32.2556 212.845 33.013V33.581C212.845 34.3383 212.269 34.9063 211.579 34.9063H198.127C197.473 34.9063 196.897 34.3383 196.897 33.581V7.7469Z" fill="white"/>
<path d="M224.683 10.893C224.683 10.2122 224.107 9.64423 223.339 9.64423H216.306C215.653 9.64423 215.076 9.07618 215.076 8.43171V7.75087C215.076 7.10633 215.653 6.53833 216.306 6.53833H236.215C236.868 6.53833 237.445 7.10633 237.445 7.75087V8.43171C237.445 9.07618 236.868 9.64423 236.215 9.64423H229.105C228.414 9.64423 227.838 10.2122 227.838 10.893V33.5889C227.838 34.3463 227.262 34.9143 226.608 34.9143H225.917C225.263 34.9143 224.688 34.3463 224.688 33.5889V10.893H224.683Z" fill="white"/>
<path d="M256.658 34.9144H256.081C255.314 34.9144 254.737 34.3463 254.737 33.589V23.5866C254.737 22.8292 254.161 22.2612 253.471 22.2612H243.21C242.519 22.2612 241.943 22.8292 241.943 23.5866V33.589C241.943 34.3463 241.367 34.9144 240.714 34.9144H240.023C239.369 34.9144 238.793 34.3463 238.793 33.589V7.7469C238.793 7.10236 239.369 6.53436 240.023 6.53436H240.714C241.367 6.53436 241.943 7.10236 241.943 7.7469V17.9025C241.943 18.547 242.519 19.115 243.21 19.115H253.471C254.161 19.115 254.737 18.547 254.737 17.9025V7.7469C254.737 7.10236 255.314 6.53436 256.081 6.53436H256.658C257.426 6.53436 258.002 7.10236 258.002 7.7469V33.589C258.002 34.3463 257.426 34.9144 256.658 34.9144Z" fill="white"/>
<path d="M260.96 7.7469C260.96 7.10236 261.536 6.53436 262.19 6.53436H275.642C276.332 6.53436 276.909 7.10236 276.909 7.7469V8.42771C276.909 9.07226 276.332 9.64023 275.642 9.64023H266.228C265.459 9.64023 264.883 9.45088 264.883 9.26161C264.883 8.99568 264.614 8.88291 264.115 8.88291C263.731 8.88291 263.347 9.18503 263.347 9.64023C263.347 10.0189 263.539 10.3975 263.731 10.3975C263.923 10.3975 264.115 10.9656 264.115 11.7229V17.8984C264.115 18.543 264.691 19.111 265.382 19.111H272.492C273.145 19.111 273.722 19.679 273.722 20.3598V21.0043C273.722 21.6851 273.145 22.2532 272.492 22.2532H265.382C264.691 22.2532 264.115 22.8211 264.115 23.5784V30.4751C264.115 31.1196 264.691 31.6876 265.382 31.6876H275.642C276.332 31.6876 276.909 32.2556 276.909 33.013V33.581C276.909 34.3383 276.332 34.9063 275.642 34.9063H262.19C261.536 34.9063 260.96 34.3383 260.96 33.581V7.7469Z" fill="white"/>
<path d="M295.354 6.53436C296.045 6.53436 296.62 6.98957 296.62 7.7469C296.62 8.42771 296.813 9.07226 297.005 9.26161C297.197 9.45088 297.85 9.64023 298.619 9.64023C299.31 9.64023 299.885 10.2083 299.885 10.889V17.8984C299.885 18.543 299.31 19.111 298.619 19.111C297.85 19.111 297.197 19.3003 297.005 19.4132C296.813 19.6024 296.62 20.3598 296.62 21.0043C296.62 21.6851 296.045 22.2532 295.354 22.2532H291.509C290.855 22.2532 290.279 22.8211 290.279 23.4657C290.279 24.223 290.357 24.9038 290.549 25.0932C290.741 25.2825 291.509 25.4719 292.199 25.4719C292.854 25.4719 293.429 25.9271 293.429 26.6844C293.429 27.3652 293.621 28.0097 293.814 28.199C294.006 28.3884 294.696 28.5777 295.349 28.5777C296.118 28.5777 296.616 29.1457 296.616 29.7902C296.616 30.471 296.809 31.2284 297.001 31.4177C297.193 31.6071 297.846 31.6836 298.615 31.6836C299.306 31.6836 299.881 32.2516 299.881 33.0089V33.5769C299.881 34.3343 299.306 34.9023 298.537 34.9023H297.961C297.193 34.9023 296.616 34.3343 296.616 33.5769C296.616 32.9324 296.502 32.2516 296.31 32.0623C296.118 31.8729 295.349 31.6836 294.696 31.6836C294.006 31.6836 293.429 31.1156 293.429 30.471C293.429 29.7902 293.352 29.0329 293.159 28.8436C292.967 28.7671 292.199 28.5777 291.509 28.5777C290.855 28.5777 290.279 28.0097 290.279 27.3652C290.279 26.6844 290.087 25.9271 289.895 25.7377C289.702 25.5484 289.012 25.4719 288.358 25.4719C287.59 25.4719 287.014 24.9038 287.014 24.1465V23.5784C287.014 22.8211 286.438 22.2532 285.747 22.2532H285.093C284.403 22.2532 283.827 22.8211 283.827 23.5784V33.581C283.827 34.3383 283.25 34.9063 282.597 34.9063H281.906C281.253 34.9063 280.676 34.3383 280.676 33.581V7.7469C280.676 7.10236 281.253 6.53436 281.906 6.53436H295.358H295.354ZM296.625 11.5376C296.625 10.8931 296.51 10.1358 296.319 9.94641C296.126 9.75706 295.358 9.64429 294.704 9.64429H285.097C284.407 9.64429 283.831 10.2123 283.831 10.8931V17.9025C283.831 18.547 284.407 19.115 285.097 19.115H294.704C295.358 19.115 296.126 18.9257 296.319 18.7363C296.51 18.547 296.625 17.9025 296.625 17.2217V11.5376Z" fill="white"/>
<path d="M86.4804 19.5094C86.3861 20.0895 86.3251 20.6817 86.2918 21.2819H90.7341C90.7747 20.6776 90.865 20.0854 90.991 19.5094H88.4089C88.4617 19.2113 88.5276 18.9132 88.5967 18.6232C89.704 14.1234 92.8747 10.4173 97.0634 8.5361V6.50174C91.543 8.65691 87.4365 13.5676 86.4804 19.5094Z" fill="white"/>
<path d="M120.245 19.5094C119.288 13.5676 115.181 8.65691 109.661 6.50174V8.5361C113.85 10.4173 117.02 14.1234 118.128 18.6232C118.202 18.9172 118.263 19.2113 118.315 19.5094H115.733C115.86 20.0854 115.946 20.6776 115.99 21.2819H120.433C120.4 20.6817 120.338 20.0895 120.245 19.5094Z" fill="white"/>
<path d="M115.99 23.0589C115.95 23.6631 115.86 24.2553 115.733 24.8313H118.315C117.425 29.7298 114.12 33.8025 109.657 35.8046V37.839C115.177 35.6838 119.284 30.7732 120.241 24.8313C120.334 24.2512 120.396 23.659 120.428 23.0589H115.986H115.99Z" fill="white"/>
<path d="M97.9666 6.17984V9.01582C97.6601 9.13671 97.3617 9.26964 97.0674 9.41062C93.3203 11.2113 90.4845 14.567 89.426 18.6276H91.2243C92.2536 15.1994 94.7382 12.3835 97.9707 10.8809C98.5463 10.6111 99.1471 10.3855 99.7682 10.2042V5.70047C99.1552 5.82937 98.5544 5.99051 97.9707 6.18388L97.9666 6.17984Z" fill="white"/>
<path d="M98.5015 33.7017C98.3178 33.6292 98.1422 33.5486 97.9625 33.4681C94.73 31.9614 92.2454 29.1496 91.2162 25.7215H89.4178C90.5625 30.1003 93.7698 33.6614 97.9625 35.3332V38.1692C98.5503 38.3625 99.1471 38.5237 99.7601 38.6525V34.1488C99.3308 34.0239 98.9105 33.8749 98.4975 33.7057L98.5015 33.7017Z" fill="white"/>
<path d="M109.661 9.41074C109.367 9.26977 109.064 9.13684 108.762 9.01595V6.17997C108.174 5.9866 107.577 5.82547 106.964 5.69656V10.2003C107.585 10.3816 108.186 10.6072 108.762 10.8771C111.994 12.3837 114.479 15.1955 115.508 18.6237H117.306C116.248 14.563 113.412 11.2074 109.665 9.40668L109.661 9.41074Z" fill="white"/>
<path d="M115.504 25.7216C114.475 29.1498 111.99 31.9656 108.758 33.4682C108.582 33.5488 108.402 33.6293 108.219 33.7019C107.81 33.8711 107.385 34.016 106.956 34.145V38.6487C107.569 38.5198 108.17 38.3586 108.754 38.1653V35.3293C112.942 33.6575 116.154 30.0964 117.298 25.7176H115.5H115.504V25.7216Z" fill="white"/>
<path d="M90.991 24.8313C90.865 24.2553 90.7747 23.6631 90.7341 23.0589H86.2918C86.3251 23.659 86.3861 24.2512 86.4804 24.8313C87.4365 30.7732 91.543 35.6838 97.0634 37.839V35.8046C92.6016 33.7985 89.2959 29.7258 88.4048 24.8313H90.991Z" fill="white"/>
<path d="M117.85 32.6946C117.319 33.3996 116.734 34.0763 116.084 34.7169C115.435 35.3574 114.749 35.9375 114.033 36.4571L115.316 37.722C116.028 37.1903 116.706 36.6062 117.355 35.9697C118.001 35.3292 118.597 34.6605 119.132 33.9596L117.85 32.6946Z" fill="white"/>
<path d="M119.668 11.1106L118.373 12.3876C122.349 18.2972 122.349 26.0398 118.373 31.9535L119.668 33.2305C124.314 26.5917 124.314 17.7494 119.668 11.1106Z" fill="white"/>
<path d="M117.355 8.3752C116.706 7.7387 116.028 7.15055 115.316 6.62283L114.033 7.89178C114.749 8.41544 115.435 8.99154 116.084 9.63203C116.734 10.2725 117.323 10.9493 117.85 11.6543L119.132 10.3893C118.593 9.68845 118.001 9.01975 117.355 8.37918V8.3752Z" fill="white"/>
<path d="M90.6398 34.7129C89.9902 34.0724 89.4016 33.3957 88.8748 32.6907L87.5919 33.9556C88.1309 34.6566 88.7236 35.3253 89.3691 35.9657C90.0187 36.6022 90.6967 37.1904 91.4081 37.7181L92.691 36.4532C91.9764 35.9295 91.2894 35.3535 90.6398 34.7129Z" fill="white"/>
<path d="M92.1439 6.09515L93.439 7.37215C99.4333 3.45252 107.287 3.45252 113.285 7.37215L114.581 6.09515C107.847 1.51487 98.878 1.51487 92.1439 6.09515Z" fill="white"/>
<path d="M113.285 36.9729C107.291 40.8926 99.4374 40.8926 93.439 36.9729L92.1439 38.25C98.878 42.8302 107.847 42.8302 114.581 38.25L113.285 36.9729Z" fill="white"/>
<path d="M91.4041 6.62296C90.6927 7.1547 90.0147 7.73882 89.3651 8.37533C88.7195 9.01581 88.1228 9.68451 87.5878 10.3855L88.8748 11.6504C89.4057 10.9454 89.9903 10.2687 90.6399 9.62817C91.2895 8.9876 91.9764 8.40752 92.6911 7.88787L91.4082 6.61893L91.4041 6.62296Z" fill="white"/>
<path d="M88.3519 12.3915L87.056 11.1145C82.4105 17.7533 82.4105 26.5957 87.056 33.2345L88.3519 31.9575C84.3755 26.0478 84.3755 18.3053 88.3519 12.3915Z" fill="white"/>
<path d="M88.3519 12.3915L87.056 11.1145C82.4105 17.7533 82.4105 26.5957 87.056 33.2345L88.3519 31.9575C84.3755 26.0478 84.3755 18.3053 88.3519 12.3915Z" fill="white"/>
<path d="M90.6398 34.7129C89.9902 34.0724 89.4016 33.3957 88.8748 32.6907L87.5919 33.9556C88.1309 34.6566 88.7236 35.3253 89.3691 35.9657C90.0187 36.6022 90.6967 37.1904 91.4081 37.7181L92.691 36.4532C91.9764 35.9295 91.2894 35.3535 90.6398 34.7129Z" fill="white"/>
<path d="M91.4041 6.62296C90.6927 7.1547 90.0147 7.73882 89.3651 8.37533C88.7195 9.01581 88.1228 9.68451 87.5878 10.3855L88.8748 11.6504C89.4057 10.9454 89.9903 10.2687 90.6399 9.62817C91.2895 8.9876 91.9764 8.40752 92.6911 7.88787L91.4082 6.61893L91.4041 6.62296Z" fill="white"/>
<path d="M86.4804 19.5094C86.3861 20.0895 86.3251 20.6817 86.2918 21.2819H90.7341C90.7747 20.6776 90.865 20.0854 90.991 19.5094H88.4089C88.4617 19.2113 88.5276 18.9132 88.5967 18.6232C89.704 14.1234 92.8747 10.4173 97.0634 8.5361V6.50174C91.543 8.65691 87.4365 13.5676 86.4804 19.5094Z" fill="white"/>
<path d="M90.991 24.8313C90.865 24.2553 90.7747 23.6631 90.7341 23.0589H86.2918C86.3251 23.659 86.3861 24.2512 86.4804 24.8313C87.4365 30.7732 91.543 35.6838 97.0634 37.839V35.8046C92.6016 33.7985 89.2959 29.7258 88.4048 24.8313H90.991Z" fill="white"/>
<path d="M97.9666 6.17984V9.01582C97.6601 9.13671 97.3617 9.26964 97.0674 9.41062C93.3203 11.2113 90.4845 14.567 89.426 18.6276H91.2243C92.2536 15.1994 94.7382 12.3835 97.9707 10.8809C98.5463 10.6111 99.1471 10.3855 99.7682 10.2042V5.70047C99.1552 5.82937 98.5544 5.99051 97.9707 6.18388L97.9666 6.17984Z" fill="white"/>
<path d="M98.5015 33.7017C98.3178 33.6292 98.1422 33.5486 97.9625 33.4681C94.73 31.9614 92.2454 29.1496 91.2162 25.7215H89.4178C90.5625 30.1003 93.7698 33.6614 97.9625 35.3332V38.1692C98.5503 38.3625 99.1471 38.5237 99.7601 38.6525V34.1488C99.3308 34.0239 98.9105 33.8749 98.4975 33.7057L98.5015 33.7017Z" fill="white"/>
<path d="M113.285 36.9729C107.291 40.8926 99.4374 40.8926 93.439 36.9729L92.1439 38.25C98.878 42.8302 107.847 42.8302 114.581 38.25L113.285 36.9729Z" fill="white"/>
<path d="M92.1439 6.09515L93.439 7.37215C99.4333 3.45252 107.287 3.45252 113.285 7.37215L114.581 6.09515C107.847 1.51487 98.878 1.51487 92.1439 6.09515Z" fill="white"/>
<path d="M115.504 25.7216C114.475 29.1498 111.99 31.9656 108.758 33.4682C108.582 33.5488 108.402 33.6293 108.219 33.7019C107.81 33.8711 107.385 34.016 106.956 34.145V38.6487C107.569 38.5198 108.17 38.3586 108.754 38.1653V35.3293C112.942 33.6575 116.154 30.0964 117.298 25.7176H115.5H115.504V25.7216Z" fill="white"/>
<path d="M109.661 9.41074C109.367 9.26977 109.064 9.13684 108.762 9.01595V6.17997C108.174 5.9866 107.577 5.82547 106.964 5.69656V10.2003C107.585 10.3816 108.186 10.6072 108.762 10.8771C111.994 12.3837 114.479 15.1955 115.508 18.6237H117.306C116.248 14.563 113.412 11.2074 109.665 9.40668L109.661 9.41074Z" fill="white"/>
<path d="M117.85 32.6946C117.319 33.3996 116.734 34.0763 116.084 34.7169C115.435 35.3574 114.749 35.9375 114.033 36.4571L115.316 37.722C116.028 37.1903 116.706 36.6062 117.355 35.9697C118.001 35.3292 118.597 34.6605 119.132 33.9596L117.85 32.6946Z" fill="white"/>
<path d="M117.355 8.3752C116.706 7.7387 116.028 7.15055 115.316 6.62283L114.033 7.89178C114.749 8.41544 115.435 8.99154 116.084 9.63203C116.734 10.2725 117.323 10.9493 117.85 11.6543L119.132 10.3893C118.593 9.68845 118.001 9.01975 117.355 8.37918V8.3752Z" fill="white"/>
<path d="M120.245 19.5094C119.288 13.5676 115.181 8.65691 109.661 6.50174V8.5361C113.85 10.4173 117.02 14.1234 118.128 18.6232C118.202 18.9172 118.263 19.2113 118.315 19.5094H115.733C115.86 20.0854 115.946 20.6776 115.99 21.2819H120.433C120.4 20.6817 120.338 20.0895 120.245 19.5094Z" fill="white"/>
<path d="M115.99 23.0589C115.95 23.6631 115.86 24.2553 115.733 24.8313H118.315C117.425 29.7298 114.12 33.8025 109.657 35.8046V37.839C115.177 35.6838 119.284 30.7732 120.241 24.8313C120.334 24.2512 120.396 23.659 120.428 23.0589H115.986H115.99Z" fill="white"/>
<path d="M119.668 11.1106L118.373 12.3876C122.349 18.2972 122.349 26.0398 118.373 31.9535L119.668 33.2305C124.314 26.5917 124.314 17.7494 119.668 11.1106Z" fill="white"/>
<path d="M117.355 8.3752C116.706 7.7387 116.028 7.15055 115.316 6.62283L114.033 7.89178C114.749 8.41544 115.435 8.99154 116.084 9.63203C116.734 10.2725 117.323 10.9493 117.85 11.6543L119.132 10.3893C118.593 9.68845 118.001 9.01975 117.355 8.37918V8.3752Z" fill="white"/>
<path d="M117.85 32.6946C117.319 33.3996 116.734 34.0763 116.084 34.7169C115.435 35.3574 114.749 35.9375 114.033 36.4571L115.316 37.722C116.028 37.1903 116.706 36.6062 117.355 35.9697C118.001 35.3292 118.597 34.6605 119.132 33.9596L117.85 32.6946Z" fill="white"/>
<path d="M109.661 9.41074C109.367 9.26977 109.064 9.13684 108.762 9.01595V6.17997C108.174 5.9866 107.577 5.82547 106.964 5.69656V10.2003C107.585 10.3816 108.186 10.6072 108.762 10.8771C111.994 12.3837 114.479 15.1955 115.508 18.6237H117.306C116.248 14.563 113.412 11.2074 109.665 9.40668L109.661 9.41074Z" fill="white"/>
<path d="M115.504 25.7216C114.475 29.1498 111.99 31.9656 108.758 33.4682C108.582 33.5488 108.402 33.6293 108.219 33.7019C107.81 33.8711 107.385 34.016 106.956 34.145V38.6487C107.569 38.5198 108.17 38.3586 108.754 38.1653V35.3293C112.942 33.6575 116.154 30.0964 117.298 25.7176H115.5H115.504V25.7216Z" fill="white"/>
<path d="M92.1439 6.09515L93.439 7.37215C99.4333 3.45252 107.287 3.45252 113.285 7.37215L114.581 6.09515C107.847 1.51487 98.878 1.51487 92.1439 6.09515Z" fill="white"/>
<path d="M113.285 36.9729C107.291 40.8926 99.4374 40.8926 93.439 36.9729L92.1439 38.25C98.878 42.8302 107.847 42.8302 114.581 38.25L113.285 36.9729Z" fill="white"/>
<path d="M98.5015 33.7017C98.3178 33.6292 98.1422 33.5486 97.9625 33.4681C94.73 31.9614 92.2454 29.1496 91.2162 25.7215H89.4178C90.5625 30.1003 93.7698 33.6614 97.9625 35.3332V38.1692C98.5503 38.3625 99.1471 38.5237 99.7601 38.6525V34.1488C99.3308 34.0239 98.9105 33.8749 98.4975 33.7057L98.5015 33.7017Z" fill="white"/>
<path d="M97.9666 6.17984V9.01582C97.6601 9.13671 97.3617 9.26964 97.0674 9.41062C93.3203 11.2113 90.4845 14.567 89.426 18.6276H91.2243C92.2536 15.1994 94.7382 12.3835 97.9707 10.8809C98.5463 10.6111 99.1471 10.3855 99.7682 10.2042V5.70047C99.1552 5.82937 98.5544 5.99051 97.9707 6.18388L97.9666 6.17984Z" fill="white"/>
<path d="M90.991 24.8313C90.865 24.2553 90.7747 23.6631 90.7341 23.0589H86.2918C86.3251 23.659 86.3861 24.2512 86.4804 24.8313C87.4365 30.7732 91.543 35.6838 97.0634 37.839V35.8046C92.6016 33.7985 89.2959 29.7258 88.4048 24.8313H90.991Z" fill="white"/>
<path d="M86.4804 19.5094C86.3861 20.0895 86.3251 20.6817 86.2918 21.2819H90.7341C90.7747 20.6776 90.865 20.0854 90.991 19.5094H88.4089C88.4617 19.2113 88.5276 18.9132 88.5967 18.6232C89.704 14.1234 92.8747 10.4173 97.0634 8.5361V6.50174C91.543 8.65691 87.4365 13.5676 86.4804 19.5094Z" fill="white"/>
<path d="M91.4041 6.62296C90.6927 7.1547 90.0147 7.73882 89.3651 8.37533C88.7195 9.01581 88.1228 9.68451 87.5878 10.3855L88.8748 11.6504C89.4057 10.9454 89.9903 10.2687 90.6399 9.62817C91.2895 8.9876 91.9764 8.40752 92.6911 7.88787L91.4082 6.61893L91.4041 6.62296Z" fill="white"/>
<path d="M90.6398 34.7129C89.9902 34.0724 89.4016 33.3957 88.8748 32.6907L87.5919 33.9556C88.1309 34.6566 88.7236 35.3253 89.3691 35.9657C90.0187 36.6022 90.6967 37.1904 91.4081 37.7181L92.691 36.4532C91.9764 35.9295 91.2894 35.3535 90.6398 34.7129Z" fill="white"/>
<path d="M88.3519 12.3915L87.056 11.1145C82.4105 17.7533 82.4105 26.5957 87.056 33.2345L88.3519 31.9575C84.3755 26.0478 84.3755 18.3053 88.3519 12.3915Z" fill="white"/>
<path d="M120.245 19.5094C119.288 13.5676 115.181 8.65691 109.661 6.50174V8.5361C113.85 10.4173 117.02 14.1234 118.128 18.6232C118.202 18.9172 118.263 19.2113 118.315 19.5094H115.733C115.86 20.0854 115.946 20.6776 115.99 21.2819H120.433C120.4 20.6817 120.338 20.0895 120.245 19.5094Z" fill="white"/>
<path d="M115.99 23.0589C115.95 23.6631 115.86 24.2553 115.733 24.8313H118.315C117.425 29.7298 114.12 33.8025 109.657 35.8046V37.839C115.177 35.6838 119.284 30.7732 120.241 24.8313C120.334 24.2512 120.396 23.659 120.428 23.0589H115.986H115.99Z" fill="white"/>
<path d="M119.668 11.1106L118.373 12.3876C122.349 18.2972 122.349 26.0398 118.373 31.9535L119.668 33.2305C124.314 26.5917 124.314 17.7494 119.668 11.1106Z" fill="white"/>
<path d="M88.3519 12.3915L87.056 11.1145C82.4105 17.7533 82.4105 26.5957 87.056 33.2345L88.3519 31.9575C84.3755 26.0478 84.3755 18.3053 88.3519 12.3915Z" fill="white"/>
<path d="M90.6398 34.7129C89.9902 34.0724 89.4016 33.3957 88.8748 32.6907L87.5919 33.9556C88.1309 34.6566 88.7236 35.3253 89.3691 35.9657C90.0187 36.6022 90.6967 37.1904 91.4081 37.7181L92.691 36.4532C91.9764 35.9295 91.2894 35.3535 90.6398 34.7129Z" fill="white"/>
<path d="M91.4041 6.62296C90.6927 7.1547 90.0147 7.73882 89.3651 8.37533C88.7195 9.01581 88.1228 9.68451 87.5878 10.3855L88.8748 11.6504C89.4057 10.9454 89.9903 10.2687 90.6399 9.62817C91.2895 8.9876 91.9764 8.40752 92.6911 7.88787L91.4082 6.61893L91.4041 6.62296Z" fill="white"/>
<path d="M86.4804 19.5094C86.3861 20.0895 86.3251 20.6817 86.2918 21.2819H90.7341C90.7747 20.6776 90.865 20.0854 90.991 19.5094H88.4089C88.4617 19.2113 88.5276 18.9132 88.5967 18.6232C89.704 14.1234 92.8747 10.4173 97.0634 8.5361V6.50174C91.543 8.65691 87.4365 13.5676 86.4804 19.5094Z" fill="white"/>
<path d="M90.991 24.8313C90.865 24.2553 90.7747 23.6631 90.7341 23.0589H86.2918C86.3251 23.659 86.3861 24.2512 86.4804 24.8313C87.4365 30.7732 91.543 35.6838 97.0634 37.839V35.8046C92.6016 33.7985 89.2959 29.7258 88.4048 24.8313H90.991Z" fill="white"/>
<path d="M97.9666 6.17984V9.01582C97.6601 9.13671 97.3617 9.26964 97.0674 9.41062C93.3203 11.2113 90.4845 14.567 89.426 18.6276H91.2243C92.2536 15.1994 94.7382 12.3835 97.9707 10.8809C98.5463 10.6111 99.1471 10.3855 99.7682 10.2042V5.70047C99.1552 5.82937 98.5544 5.99051 97.9707 6.18388L97.9666 6.17984Z" fill="white"/>
<path d="M98.5015 33.7017C98.3178 33.6292 98.1422 33.5486 97.9625 33.4681C94.73 31.9614 92.2454 29.1496 91.2162 25.7215H89.4178C90.5625 30.1003 93.7698 33.6614 97.9625 35.3332V38.1692C98.5503 38.3625 99.1471 38.5237 99.7601 38.6525V34.1488C99.3308 34.0239 98.9105 33.8749 98.4975 33.7057L98.5015 33.7017Z" fill="white"/>
<path d="M113.285 36.9729C107.291 40.8926 99.4374 40.8926 93.439 36.9729L92.1439 38.25C98.878 42.8302 107.847 42.8302 114.581 38.25L113.285 36.9729Z" fill="white"/>
<path d="M92.1439 6.09515L93.439 7.37215C99.4333 3.45252 107.287 3.45252 113.285 7.37215L114.581 6.09515C107.847 1.51487 98.878 1.51487 92.1439 6.09515Z" fill="white"/>
<path d="M115.504 25.7216C114.475 29.1498 111.99 31.9656 108.758 33.4682C108.582 33.5488 108.402 33.6293 108.219 33.7019C107.81 33.8711 107.385 34.016 106.956 34.145V38.6487C107.569 38.5198 108.17 38.3586 108.754 38.1653V35.3293C112.942 33.6575 116.154 30.0964 117.298 25.7176H115.5H115.504V25.7216Z" fill="white"/>
<path d="M109.661 9.41074C109.367 9.26977 109.064 9.13684 108.762 9.01595V6.17997C108.174 5.9866 107.577 5.82547 106.964 5.69656V10.2003C107.585 10.3816 108.186 10.6072 108.762 10.8771C111.994 12.3837 114.479 15.1955 115.508 18.6237H117.306C116.248 14.563 113.412 11.2074 109.665 9.40668L109.661 9.41074Z" fill="white"/>
<path d="M117.85 32.6946C117.319 33.3996 116.734 34.0763 116.084 34.7169C115.435 35.3574 114.749 35.9375 114.033 36.4571L115.316 37.722C116.028 37.1903 116.706 36.6062 117.355 35.9697C118.001 35.3292 118.597 34.6605 119.132 33.9596L117.85 32.6946Z" fill="white"/>
<path d="M117.355 8.3752C116.706 7.7387 116.028 7.15055 115.316 6.62283L114.033 7.89178C114.749 8.41544 115.435 8.99154 116.084 9.63203C116.734 10.2725 117.323 10.9493 117.85 11.6543L119.132 10.3893C118.593 9.68845 118.001 9.01975 117.355 8.37918V8.3752Z" fill="white"/>
<path d="M120.245 19.5094C119.288 13.5676 115.181 8.65691 109.661 6.50174V8.5361C113.85 10.4173 117.02 14.1234 118.128 18.6232C118.202 18.9172 118.263 19.2113 118.315 19.5094H115.733C115.86 20.0854 115.946 20.6776 115.99 21.2819H120.433C120.4 20.6817 120.338 20.0895 120.245 19.5094Z" fill="white"/>
<path d="M120.245 24.8313C120.338 24.2512 120.4 23.659 120.433 23.0589H115.99C115.95 23.6631 115.86 24.2553 115.733 24.8313H118.315C117.425 29.7298 114.12 33.8025 109.657 35.8046V37.839C115.177 35.6838 119.284 30.7732 120.241 24.8313H120.245Z" fill="white"/>
<path d="M119.668 11.1106L118.373 12.3876C122.349 18.2972 122.349 26.0398 118.373 31.9535L119.668 33.2305C124.314 26.5917 124.314 17.7494 119.668 11.1106Z" fill="white"/>
<path d="M116.084 9.62805C116.734 10.2685 117.323 10.9453 117.85 11.6502L119.132 10.3854C118.593 9.68439 118.001 9.01569 117.355 8.3752C116.706 7.7387 116.028 7.15055 115.316 6.62283L114.033 7.89178C114.749 8.41544 115.435 8.99154 116.084 9.63203V9.62805Z" fill="white"/>
<path d="M116.084 34.7129C115.435 35.3535 114.749 35.9335 114.033 36.4532L115.316 37.7181C116.028 37.1864 116.706 36.6022 117.355 35.9657C118.001 35.3253 118.597 34.6566 119.132 33.9556L117.85 32.6907C117.319 33.3957 116.734 34.0724 116.084 34.7129Z" fill="white"/>
<path d="M106.96 5.69668V10.2005C107.581 10.3817 108.182 10.6073 108.758 10.8772C111.99 12.3838 114.475 15.1956 115.504 18.6238H117.302C116.244 14.5631 113.408 11.2075 109.661 9.4068C109.367 9.26583 109.064 9.1329 108.762 9.01209V6.17606C108.174 5.9827 107.577 5.82156 106.964 5.69266L106.96 5.69668Z" fill="white"/>
<path d="M106.96 38.6487C107.573 38.5198 108.174 38.3586 108.758 38.1653V35.3293C112.946 33.6575 116.159 30.0964 117.302 25.7176H115.504C114.475 29.1457 111.99 31.9615 108.758 33.4641C108.582 33.5447 108.402 33.6253 108.219 33.6978C107.81 33.867 107.385 34.012 106.956 34.1409V38.6446H106.96V38.6487Z" fill="white"/>
<path d="M113.285 7.37215L114.581 6.09515C107.847 1.51487 98.878 1.51487 92.1439 6.09515L93.439 7.37215C99.4333 3.45252 107.287 3.45252 113.285 7.37215Z" fill="white"/>
<path d="M93.439 36.9729L92.1439 38.25C98.878 42.8302 107.847 42.8302 114.581 38.25L113.285 36.9729C107.291 40.8926 99.4374 40.8926 93.439 36.9729Z" fill="white"/>
<path d="M99.7641 38.6485V34.1448C99.3349 34.0199 98.9145 33.8709 98.5015 33.7017C98.3178 33.6292 98.1422 33.5486 97.9625 33.4681C94.73 31.9614 92.2454 29.1496 91.2162 25.7215H89.4178C90.5625 30.1003 93.7698 33.6614 97.9625 35.3332V38.1692C98.5503 38.3625 99.1471 38.5237 99.7601 38.6525L99.7641 38.6485Z" fill="white"/>
<path d="M99.7642 5.69656C99.1512 5.82547 98.5504 5.98648 97.9666 6.17984V9.01582C97.6601 9.13671 97.3617 9.26964 97.0674 9.41062C93.3203 11.2113 90.4845 14.567 89.426 18.6276H91.2243C92.2536 15.1994 94.7382 12.3835 97.9707 10.8809C98.5463 10.6111 99.1471 10.3855 99.7682 10.2042V5.70047L99.7642 5.69656Z" fill="white"/>
<path d="M86.4804 24.8313C87.4365 30.7732 91.543 35.6838 97.0634 37.839V35.8046C92.6016 33.7985 89.2959 29.7258 88.4048 24.8313H90.987C90.8601 24.2553 90.7707 23.6631 90.7301 23.0589H86.2878C86.3211 23.659 86.3821 24.2512 86.4764 24.8313H86.4804Z" fill="white"/>
<path d="M97.0634 8.5361V6.50174C91.543 8.65691 87.4365 13.5676 86.4804 19.5094C86.3861 20.0895 86.3251 20.6817 86.2918 21.2819H90.7341C90.7747 20.6776 90.865 20.0854 90.991 19.5094H88.4089C88.4617 19.2113 88.5276 18.9132 88.5967 18.6232C89.704 14.1234 92.8747 10.4173 97.0634 8.5361Z" fill="white"/>
<path d="M90.6399 9.62817C91.2895 8.9876 91.9764 8.40752 92.6911 7.88787L91.4082 6.61893C90.6968 7.15067 90.0187 7.73479 89.3691 8.37126C88.7236 9.01183 88.1268 9.68053 87.5919 10.3814L88.8788 11.6464C89.4097 10.9414 89.9943 10.2646 90.6439 9.62411L90.6399 9.62817Z" fill="white"/>
<path d="M90.6398 34.7129C89.9902 34.0724 89.4016 33.3957 88.8748 32.6907L87.5919 33.9556C88.1309 34.6566 88.7236 35.3253 89.3691 35.9657C90.0187 36.6022 90.6967 37.1904 91.4081 37.7181L92.691 36.4532C91.9764 35.9295 91.2894 35.3535 90.6398 34.7129Z" fill="white"/>
<path d="M88.3519 12.3915L87.056 11.1145C82.4105 17.7533 82.4105 26.5957 87.056 33.2345L88.3519 31.9575C84.3755 26.0478 84.3755 18.3053 88.3519 12.3915Z" fill="white"/>
<path d="M120.245 19.5094C119.288 13.5676 115.181 8.65691 109.661 6.50174V8.5361C113.85 10.4173 117.02 14.1234 118.128 18.6232C118.202 18.9172 118.263 19.2113 118.315 19.5094H115.733C115.86 20.0854 115.946 20.6776 115.99 21.2819H120.433C120.4 20.6817 120.338 20.0895 120.245 19.5094Z" fill="white"/>
<path d="M120.245 24.8313C120.338 24.2512 120.4 23.659 120.433 23.0589H115.99C115.95 23.6631 115.86 24.2553 115.733 24.8313H118.315C117.425 29.7298 114.12 33.8025 109.657 35.8046V37.839C115.177 35.6838 119.284 30.7732 120.241 24.8313H120.245Z" fill="white"/>
<path d="M119.668 11.1106L118.373 12.3876C122.349 18.2972 122.349 26.0398 118.373 31.9535L119.668 33.2305C124.314 26.5917 124.314 17.7494 119.668 11.1106Z" fill="white"/>
<path d="M103.36 0.000274658C90.9381 0.000274658 80.8697 9.92621 80.8697 22.1726C80.8697 34.4188 90.9381 44.3447 103.36 44.3447C115.782 44.3447 125.85 34.4188 125.85 22.1726C125.85 9.92621 115.782 0.000274658 103.36 0.000274658ZM103.36 42.5723C91.9307 42.5723 82.6673 33.4399 82.6673 22.1726C82.6673 10.9052 91.9348 1.77276 103.36 1.77276C114.785 1.77276 124.053 10.9052 124.053 22.1726C124.053 33.4399 114.789 42.5723 103.36 42.5723Z" fill="white"/>
<path d="M116.084 9.62805C116.734 10.2685 117.323 10.9453 117.85 11.6502L119.132 10.3854C118.593 9.68439 118.001 9.01569 117.355 8.3752C116.706 7.7387 116.028 7.15055 115.316 6.62283L114.033 7.89178C114.749 8.41544 115.435 8.99154 116.084 9.63203V9.62805Z" fill="white"/>
<path d="M116.084 34.7129C115.435 35.3535 114.749 35.9335 114.033 36.4532L115.316 37.7181C116.028 37.1864 116.706 36.6022 117.355 35.9657C118.001 35.3253 118.597 34.6566 119.132 33.9556L117.85 32.6907C117.319 33.3957 116.734 34.0724 116.084 34.7129Z" fill="white"/>
<path d="M106.96 5.69668V10.2005C107.581 10.3817 108.182 10.6073 108.758 10.8772C111.99 12.3838 114.475 15.1956 115.504 18.6238H117.302C116.244 14.5631 113.408 11.2075 109.661 9.4068C109.367 9.26583 109.064 9.1329 108.762 9.01209V6.17606C108.174 5.9827 107.577 5.82156 106.964 5.69266L106.96 5.69668Z" fill="white"/>
<path d="M106.96 38.6487C107.573 38.5198 108.174 38.3586 108.758 38.1653V35.3293C112.946 33.6575 116.159 30.0964 117.302 25.7176H115.504C114.475 29.1457 111.99 31.9615 108.758 33.4641C108.582 33.5447 108.402 33.6253 108.219 33.6978C107.81 33.867 107.385 34.012 106.956 34.1409V38.6446H106.96V38.6487Z" fill="white"/>
<path d="M113.285 7.37215L114.581 6.09515C107.847 1.51487 98.878 1.51487 92.1439 6.09515L93.439 7.37215C99.4333 3.45252 107.287 3.45252 113.285 7.37215Z" fill="white"/>
<path d="M93.439 36.9729L92.1439 38.25C98.878 42.8302 107.847 42.8302 114.581 38.25L113.285 36.9729C107.291 40.8926 99.4374 40.8926 93.439 36.9729Z" fill="white"/>
<path d="M99.7641 38.6485V34.1448C99.3349 34.0199 98.9145 33.8709 98.5015 33.7017C98.3178 33.6292 98.1422 33.5486 97.9625 33.4681C94.73 31.9614 92.2454 29.1496 91.2162 25.7215H89.4178C90.5625 30.1003 93.7698 33.6614 97.9625 35.3332V38.1692C98.5503 38.3625 99.1471 38.5237 99.7601 38.6525L99.7641 38.6485Z" fill="white"/>
<path d="M99.7642 5.69656C99.1512 5.82547 98.5504 5.98648 97.9666 6.17984V9.01582C97.6601 9.13671 97.3617 9.26964 97.0674 9.41062C93.3203 11.2113 90.4845 14.567 89.426 18.6276H91.2243C92.2536 15.1994 94.7382 12.3835 97.9707 10.8809C98.5463 10.6111 99.1471 10.3855 99.7682 10.2042V5.70047L99.7642 5.69656Z" fill="white"/>
<path d="M86.4804 24.8313C87.4365 30.7732 91.543 35.6838 97.0634 37.839V35.8046C92.6016 33.7985 89.2959 29.7258 88.4048 24.8313H90.987C90.8601 24.2553 90.7707 23.6631 90.7301 23.0589H86.2878C86.3211 23.659 86.3821 24.2512 86.4764 24.8313H86.4804Z" fill="white"/>
<path d="M97.0634 8.5361V6.50174C91.543 8.65691 87.4365 13.5676 86.4804 19.5094C86.3861 20.0895 86.3251 20.6817 86.2918 21.2819H90.7341C90.7747 20.6776 90.865 20.0854 90.991 19.5094H88.4089C88.4617 19.2113 88.5276 18.9132 88.5967 18.6232C89.704 14.1234 92.8747 10.4173 97.0634 8.5361Z" fill="white"/>
<path d="M90.6399 9.62817C91.2895 8.9876 91.9764 8.40752 92.6911 7.88787L91.4082 6.61893C90.6968 7.15067 90.0187 7.73479 89.3691 8.37126C88.7236 9.01183 88.1268 9.68053 87.5919 10.3814L88.8788 11.6464C89.4097 10.9414 89.9943 10.2646 90.6439 9.62411L90.6399 9.62817Z" fill="white"/>
<path d="M90.6398 34.7129C89.9902 34.0724 89.4016 33.3957 88.8748 32.6907L87.5919 33.9556C88.1309 34.6566 88.7236 35.3253 89.3691 35.9657C90.0187 36.6022 90.6967 37.1904 91.4081 37.7181L92.691 36.4532C91.9764 35.9295 91.2894 35.3535 90.6398 34.7129Z" fill="white"/>
<path d="M88.3519 12.3915L87.056 11.1145C82.4105 17.7533 82.4105 26.5957 87.056 33.2345L88.3519 31.9575C84.3755 26.0478 84.3755 18.3053 88.3519 12.3915Z" fill="white"/>
<path d="M119.668 11.1106L118.373 12.3876C122.349 18.2972 122.349 26.0398 118.373 31.9535L119.668 33.2305C124.314 26.5917 124.314 17.7494 119.668 11.1106Z" fill="white"/>
<path d="M115.99 23.0589C115.95 23.6631 115.86 24.2553 115.733 24.8313H118.315C117.425 29.7298 114.12 33.8025 109.657 35.8046V37.839C115.177 35.6838 119.284 30.7732 120.241 24.8313C120.334 24.2512 120.396 23.659 120.428 23.0589H115.986H115.99Z" fill="white"/>
<path d="M120.245 19.5094C119.288 13.5676 115.181 8.65691 109.661 6.50174V8.5361C113.85 10.4173 117.02 14.1234 118.128 18.6232C118.202 18.9172 118.263 19.2113 118.315 19.5094H115.733C115.86 20.0854 115.946 20.6776 115.99 21.2819H120.433C120.4 20.6817 120.338 20.0895 120.245 19.5094Z" fill="white"/>
<path d="M88.3519 12.3915L87.056 11.1145C82.4105 17.7533 82.4105 26.5957 87.056 33.2345L88.3519 31.9575C84.3755 26.0478 84.3755 18.3053 88.3519 12.3915Z" fill="white"/>
<path d="M90.6398 34.7129C89.9902 34.0724 89.4016 33.3957 88.8748 32.6907L87.5919 33.9556C88.1309 34.6566 88.7236 35.3253 89.3691 35.9657C90.0187 36.6022 90.6967 37.1904 91.4081 37.7181L92.691 36.4532C91.9764 35.9295 91.2894 35.3535 90.6398 34.7129Z" fill="white"/>
<path d="M91.4041 6.62296C90.6927 7.1547 90.0147 7.73882 89.3651 8.37533C88.7195 9.01581 88.1228 9.68451 87.5878 10.3855L88.8748 11.6504C89.4057 10.9454 89.9903 10.2687 90.6399 9.62817C91.2895 8.9876 91.9764 8.40752 92.6911 7.88787L91.4082 6.61893L91.4041 6.62296Z" fill="white"/>
<path d="M86.4804 19.5094C86.3861 20.0895 86.3251 20.6817 86.2918 21.2819H90.7341C90.7747 20.6776 90.865 20.0854 90.991 19.5094H88.4089C88.4617 19.2113 88.5276 18.9132 88.5967 18.6232C89.704 14.1234 92.8747 10.4173 97.0634 8.5361V6.50174C91.543 8.65691 87.4365 13.5676 86.4804 19.5094Z" fill="white"/>
<path d="M90.991 24.8313C90.865 24.2553 90.7747 23.6631 90.7341 23.0589H86.2918C86.3251 23.659 86.3861 24.2512 86.4804 24.8313C87.4365 30.7732 91.543 35.6838 97.0634 37.839V35.8046C92.6016 33.7985 89.2959 29.7258 88.4048 24.8313H90.991Z" fill="white"/>
<path d="M97.9666 6.17984V9.01582C97.6601 9.13671 97.3617 9.26964 97.0674 9.41062C93.3203 11.2113 90.4845 14.567 89.426 18.6276H91.2243C92.2536 15.1994 94.7382 12.3835 97.9707 10.8809C98.5463 10.6111 99.1471 10.3855 99.7682 10.2042V5.70047C99.1552 5.82937 98.5544 5.99051 97.9707 6.18388L97.9666 6.17984Z" fill="white"/>
<path d="M98.5015 33.7017C98.3178 33.6292 98.1422 33.5486 97.9625 33.4681C94.73 31.9614 92.2454 29.1496 91.2162 25.7215H89.4178C90.5625 30.1003 93.7698 33.6614 97.9625 35.3332V38.1692C98.5503 38.3625 99.1471 38.5237 99.7601 38.6525V34.1488C99.3308 34.0239 98.9105 33.8749 98.4975 33.7057L98.5015 33.7017Z" fill="white"/>
<path d="M113.285 36.9729C107.291 40.8926 99.4374 40.8926 93.439 36.9729L92.1439 38.25C98.878 42.8302 107.847 42.8302 114.581 38.25L113.285 36.9729Z" fill="white"/>
<path d="M92.1439 6.09515L93.439 7.37215C99.4333 3.45252 107.287 3.45252 113.285 7.37215L114.581 6.09515C107.847 1.51487 98.878 1.51487 92.1439 6.09515Z" fill="white"/>
<path d="M115.504 25.7216C114.475 29.1498 111.99 31.9656 108.758 33.4682C108.582 33.5488 108.402 33.6293 108.219 33.7019C107.81 33.8711 107.385 34.016 106.956 34.145V38.6487C107.569 38.5198 108.17 38.3586 108.754 38.1653V35.3293C112.942 33.6575 116.154 30.0964 117.298 25.7176H115.5H115.504V25.7216Z" fill="white"/>
<path d="M109.661 9.41074C109.367 9.26977 109.064 9.13684 108.762 9.01595V6.17997C108.174 5.9866 107.577 5.82547 106.964 5.69656V10.2003C107.585 10.3816 108.186 10.6072 108.762 10.8771C111.994 12.3837 114.479 15.1955 115.508 18.6237H117.306C116.248 14.563 113.412 11.2074 109.665 9.40668L109.661 9.41074Z" fill="white"/>
<path d="M117.85 32.6946C117.319 33.3996 116.734 34.0763 116.084 34.7169C115.435 35.3574 114.749 35.9375 114.033 36.4571L115.316 37.722C116.028 37.1903 116.706 36.6062 117.355 35.9697C118.001 35.3292 118.597 34.6605 119.132 33.9596L117.85 32.6946Z" fill="white"/>
<path d="M117.355 8.3752C116.706 7.7387 116.028 7.15055 115.316 6.62283L114.033 7.89178C114.749 8.41544 115.435 8.99154 116.084 9.63203C116.734 10.2725 117.323 10.9493 117.85 11.6543L119.132 10.3893C118.593 9.68845 118.001 9.01975 117.355 8.37918V8.3752Z" fill="white"/>
<path d="M119.668 11.1106L118.373 12.3876C122.349 18.2972 122.349 26.0398 118.373 31.9535L119.668 33.2305C124.314 26.5917 124.314 17.7494 119.668 11.1106Z" fill="white"/>
<path d="M115.99 23.0589C115.95 23.6631 115.86 24.2553 115.733 24.8313H118.315C117.425 29.7298 114.12 33.8025 109.657 35.8046V37.839C115.177 35.6838 119.284 30.7732 120.241 24.8313C120.334 24.2512 120.396 23.659 120.428 23.0589H115.986H115.99Z" fill="white"/>
<path d="M120.245 19.5094C119.288 13.5676 115.181 8.65691 109.661 6.50174V8.5361C113.85 10.4173 117.02 14.1234 118.128 18.6232C118.202 18.9172 118.263 19.2113 118.315 19.5094H115.733C115.86 20.0854 115.946 20.6776 115.99 21.2819H120.433C120.4 20.6817 120.338 20.0895 120.245 19.5094Z" fill="white"/>
<path d="M117.355 8.3752C116.706 7.7387 116.028 7.15055 115.316 6.62283L114.033 7.89178C114.749 8.41544 115.435 8.99154 116.084 9.63203C116.734 10.2725 117.323 10.9493 117.85 11.6543L119.132 10.3893C118.593 9.68845 118.001 9.01975 117.355 8.37918V8.3752Z" fill="white"/>
<path d="M117.85 32.6946C117.319 33.3996 116.734 34.0763 116.084 34.7169C115.435 35.3574 114.749 35.9375 114.033 36.4571L115.316 37.722C116.028 37.1903 116.706 36.6062 117.355 35.9697C118.001 35.3292 118.597 34.6605 119.132 33.9596L117.85 32.6946Z" fill="white"/>
<path d="M109.661 9.41074C109.367 9.26977 109.064 9.13684 108.762 9.01595V6.17997C108.174 5.9866 107.577 5.82547 106.964 5.69656V10.2003C107.585 10.3816 108.186 10.6072 108.762 10.8771C111.994 12.3837 114.479 15.1955 115.508 18.6237H117.306C116.248 14.563 113.412 11.2074 109.665 9.40668L109.661 9.41074Z" fill="white"/>
<path d="M115.504 25.7216C114.475 29.1498 111.99 31.9656 108.758 33.4682C108.582 33.5488 108.402 33.6293 108.219 33.7019C107.81 33.8711 107.385 34.016 106.956 34.145V38.6487C107.569 38.5198 108.17 38.3586 108.754 38.1653V35.3293C112.942 33.6575 116.154 30.0964 117.298 25.7176H115.5H115.504V25.7216Z" fill="white"/>
<path d="M92.1439 6.09515L93.439 7.37215C99.4333 3.45252 107.287 3.45252 113.285 7.37215L114.581 6.09515C107.847 1.51487 98.878 1.51487 92.1439 6.09515Z" fill="white"/>
<path d="M113.285 36.9729C107.291 40.8926 99.4374 40.8926 93.439 36.9729L92.1439 38.25C98.878 42.8302 107.847 42.8302 114.581 38.25L113.285 36.9729Z" fill="white"/>
<path d="M98.5015 33.7017C98.3178 33.6292 98.1422 33.5486 97.9625 33.4681C94.73 31.9614 92.2454 29.1496 91.2162 25.7215H89.4178C90.5625 30.1003 93.7698 33.6614 97.9625 35.3332V38.1692C98.5503 38.3625 99.1471 38.5237 99.7601 38.6525V34.1488C99.3308 34.0239 98.9105 33.8749 98.4975 33.7057L98.5015 33.7017Z" fill="white"/>
<path d="M97.9666 6.17984V9.01582C97.6601 9.13671 97.3617 9.26964 97.0674 9.41062C93.3203 11.2113 90.4845 14.567 89.426 18.6276H91.2243C92.2536 15.1994 94.7382 12.3835 97.9707 10.8809C98.5463 10.6111 99.1471 10.3855 99.7682 10.2042V5.70047C99.1552 5.82937 98.5544 5.99051 97.9707 6.18388L97.9666 6.17984Z" fill="white"/>
<path d="M90.991 24.8313C90.865 24.2553 90.7747 23.6631 90.7341 23.0589H86.2918C86.3251 23.659 86.3861 24.2512 86.4804 24.8313C87.4365 30.7732 91.543 35.6838 97.0634 37.839V35.8046C92.6016 33.7985 89.2959 29.7258 88.4048 24.8313H90.991Z" fill="white"/>
<path d="M86.4804 19.5094C86.3861 20.0895 86.3251 20.6817 86.2918 21.2819H90.7341C90.7747 20.6776 90.865 20.0854 90.991 19.5094H88.4089C88.4617 19.2113 88.5276 18.9132 88.5967 18.6232C89.704 14.1234 92.8747 10.4173 97.0634 8.5361V6.50174C91.543 8.65691 87.4365 13.5676 86.4804 19.5094Z" fill="white"/>
<path d="M91.4041 6.62296C90.6927 7.1547 90.0147 7.73882 89.3651 8.37533C88.7195 9.01581 88.1228 9.68451 87.5878 10.3855L88.8748 11.6504C89.4057 10.9454 89.9903 10.2687 90.6399 9.62817C91.2895 8.9876 91.9764 8.40752 92.6911 7.88787L91.4082 6.61893L91.4041 6.62296Z" fill="white"/>
<path d="M90.6398 34.7129C89.9902 34.0724 89.4016 33.3957 88.8748 32.6907L87.5919 33.9556C88.1309 34.6566 88.7236 35.3253 89.3691 35.9657C90.0187 36.6022 90.6967 37.1904 91.4081 37.7181L92.691 36.4532C91.9764 35.9295 91.2894 35.3535 90.6398 34.7129Z" fill="white"/>
<path d="M88.3519 12.3915L87.056 11.1145C82.4105 17.7533 82.4105 26.5957 87.056 33.2345L88.3519 31.9575C84.3755 26.0478 84.3755 18.3053 88.3519 12.3915Z" fill="white"/>
<path d="M119.668 11.1106L118.373 12.3876C122.349 18.2972 122.349 26.0398 118.373 31.9535L119.668 33.2305C124.314 26.5917 124.314 17.7494 119.668 11.1106Z" fill="white"/>
<path d="M115.99 23.0589C115.95 23.6631 115.86 24.2553 115.733 24.8313H118.315C117.425 29.7298 114.12 33.8025 109.657 35.8046V37.839C115.177 35.6838 119.284 30.7732 120.241 24.8313C120.334 24.2512 120.396 23.659 120.428 23.0589H115.986H115.99Z" fill="white"/>
<path d="M120.245 19.5094C119.288 13.5676 115.181 8.65691 109.661 6.50174V8.5361C113.85 10.4173 117.02 14.1234 118.128 18.6232C118.202 18.9172 118.263 19.2113 118.315 19.5094H115.733C115.86 20.0854 115.946 20.6776 115.99 21.2819H120.433C120.4 20.6817 120.338 20.0895 120.245 19.5094Z" fill="white"/>
<path d="M88.3519 12.3915L87.056 11.1145C82.4105 17.7533 82.4105 26.5957 87.056 33.2345L88.3519 31.9575C84.3755 26.0478 84.3755 18.3053 88.3519 12.3915Z" fill="white"/>
<path d="M90.6398 34.7129C89.9902 34.0724 89.4016 33.3957 88.8748 32.6907L87.5919 33.9556C88.1309 34.6566 88.7236 35.3253 89.3691 35.9657C90.0187 36.6022 90.6967 37.1904 91.4081 37.7181L92.691 36.4532C91.9764 35.9295 91.2894 35.3535 90.6398 34.7129Z" fill="white"/>
<path d="M91.4041 6.62296C90.6927 7.1547 90.0147 7.73882 89.3651 8.37533C88.7195 9.01581 88.1228 9.68451 87.5878 10.3855L88.8748 11.6504C89.4057 10.9454 89.9903 10.2687 90.6399 9.62817C91.2895 8.9876 91.9764 8.40752 92.6911 7.88787L91.4082 6.61893L91.4041 6.62296Z" fill="white"/>
<path d="M86.4804 19.5094C86.3861 20.0895 86.3251 20.6817 86.2918 21.2819H90.7341C90.7747 20.6776 90.865 20.0854 90.991 19.5094H88.4089C88.4617 19.2113 88.5276 18.9132 88.5967 18.6232C89.704 14.1234 92.8747 10.4173 97.0634 8.5361V6.50174C91.543 8.65691 87.4365 13.5676 86.4804 19.5094Z" fill="white"/>
<path d="M90.991 24.8313C90.865 24.2553 90.7747 23.6631 90.7341 23.0589H86.2918C86.3251 23.659 86.3861 24.2512 86.4804 24.8313C87.4365 30.7732 91.543 35.6838 97.0634 37.839V35.8046C92.6016 33.7985 89.2959 29.7258 88.4048 24.8313H90.991Z" fill="white"/>
<path d="M97.9666 6.17984V9.01582C97.6601 9.13671 97.3617 9.26964 97.0674 9.41062C93.3203 11.2113 90.4845 14.567 89.426 18.6276H91.2243C92.2536 15.1994 94.7382 12.3835 97.9707 10.8809C98.5463 10.6111 99.1471 10.3855 99.7682 10.2042V5.70047C99.1552 5.82937 98.5544 5.99051 97.9707 6.18388L97.9666 6.17984Z" fill="white"/>
<path d="M98.5015 33.7017C98.3178 33.6292 98.1422 33.5486 97.9625 33.4681C94.73 31.9614 92.2454 29.1496 91.2162 25.7215H89.4178C90.5625 30.1003 93.7698 33.6614 97.9625 35.3332V38.1692C98.5503 38.3625 99.1471 38.5237 99.7601 38.6525V34.1488C99.3308 34.0239 98.9105 33.8749 98.4975 33.7057L98.5015 33.7017Z" fill="white"/>
<path d="M113.285 36.9729C107.291 40.8926 99.4374 40.8926 93.439 36.9729L92.1439 38.25C98.878 42.8302 107.847 42.8302 114.581 38.25L113.285 36.9729Z" fill="white"/>
<path d="M92.1439 6.09515L93.439 7.37215C99.4333 3.45252 107.287 3.45252 113.285 7.37215L114.581 6.09515C107.847 1.51487 98.878 1.51487 92.1439 6.09515Z" fill="white"/>
<path d="M115.504 25.7216C114.475 29.1498 111.99 31.9656 108.758 33.4682C108.582 33.5488 108.402 33.6293 108.219 33.7019C107.81 33.8711 107.385 34.016 106.956 34.145V38.6487C107.569 38.5198 108.17 38.3586 108.754 38.1653V35.3293C112.942 33.6575 116.154 30.0964 117.298 25.7176H115.5H115.504V25.7216Z" fill="white"/>
<path d="M109.661 9.41074C109.367 9.26977 109.064 9.13684 108.762 9.01595V6.17997C108.174 5.9866 107.577 5.82547 106.964 5.69656V10.2003C107.585 10.3816 108.186 10.6072 108.762 10.8771C111.994 12.3837 114.479 15.1955 115.508 18.6237H117.306C116.248 14.563 113.412 11.2074 109.665 9.40668L109.661 9.41074Z" fill="white"/>
<path d="M117.85 32.6946C117.319 33.3996 116.734 34.0763 116.084 34.7169C115.435 35.3574 114.749 35.9375 114.033 36.4571L115.316 37.722C116.028 37.1903 116.706 36.6062 117.355 35.9697C118.001 35.3292 118.597 34.6605 119.132 33.9596L117.85 32.6946Z" fill="white"/>
<path d="M117.355 8.3752C116.706 7.7387 116.028 7.15055 115.316 6.62283L114.033 7.89178C114.749 8.41544 115.435 8.99154 116.084 9.63203C116.734 10.2725 117.323 10.9493 117.85 11.6543L119.132 10.3893C118.593 9.68845 118.001 9.01975 117.355 8.37918V8.3752Z" fill="white"/>
<path d="M119.668 11.1106L118.373 12.3876C122.349 18.2972 122.349 26.0398 118.373 31.9535L119.668 33.2305C124.314 26.5917 124.314 17.7494 119.668 11.1106Z" fill="white"/>
<path d="M115.99 23.0589C115.95 23.6631 115.86 24.2553 115.733 24.8313H118.315C117.425 29.7298 114.12 33.8025 109.657 35.8046V37.839C115.177 35.6838 119.284 30.7732 120.241 24.8313C120.334 24.2512 120.396 23.659 120.428 23.0589H115.986H115.99Z" fill="white"/>
<path d="M120.245 19.5094C119.288 13.5676 115.181 8.65691 109.661 6.50174V8.5361C113.85 10.4173 117.02 14.1234 118.128 18.6232C118.202 18.9172 118.263 19.2113 118.315 19.5094H115.733C115.86 20.0854 115.946 20.6776 115.99 21.2819H120.433C120.4 20.6817 120.338 20.0895 120.245 19.5094Z" fill="white"/>
<path d="M106.061 13.8862V5.53129C105.473 5.43863 104.872 5.37821 104.263 5.34598V13.4833H102.465V5.34598C101.856 5.37821 101.256 5.43863 100.667 5.53129V13.8459L106.065 13.8822H106.061V13.8862ZM100.663 38.8138C101.252 38.9065 101.852 38.9669 102.461 38.9992V30.8618H104.259V38.9992C104.868 38.9669 105.468 38.9065 106.057 38.8138V30.4549L100.659 30.4952H100.663V38.8138Z" fill="white"/>
<path d="M98.865 31.0749C98.865 30.6358 98.8122 30.1726 98.6813 30.0437C98.5504 29.9147 98.0195 29.7859 97.5455 29.7859C97.0959 29.7859 96.7 29.3991 96.7 28.96V15.6341C96.7 15.1708 97.0959 14.7841 97.5455 14.7841C98.0195 14.7841 98.5504 14.6552 98.6813 14.5263C98.8122 14.3974 98.865 13.9583 98.865 13.4951C98.865 12.9794 99.2618 12.6692 99.7358 12.6692H106.789C107.263 12.6692 107.659 12.9794 107.659 13.4951C107.659 13.9583 107.789 14.3974 107.924 14.5263C108.055 14.6552 108.505 14.7841 109.032 14.7841C109.506 14.7841 109.902 15.1708 109.902 15.6341V16.0732C109.902 16.5365 109.506 16.9232 108.979 16.9232H108.582C108.055 16.9232 107.659 16.5365 107.659 16.0732C107.659 15.6341 107.581 15.1185 107.446 14.9895C107.311 14.8607 106.785 14.7841 106.339 14.7841H100.267C99.7399 14.7841 99.2618 14.8607 99.1309 14.9895C99 15.1185 98.865 15.6341 98.865 16.0732V28.4968C98.865 28.96 98.9959 29.4756 99.1309 29.6046C99.2659 29.7334 99.7399 29.7859 100.267 29.7859H106.339C106.789 29.7859 107.315 29.7334 107.446 29.6046C107.577 29.4756 107.659 28.96 107.659 28.4968C107.659 28.0577 108.055 27.6709 108.582 27.6709H108.979C109.506 27.6709 109.902 28.0577 109.902 28.4968V28.96C109.902 29.3991 109.506 29.7859 109.032 29.7859C108.505 29.7859 108.055 29.9147 107.924 30.0437C107.794 30.1726 107.659 30.6358 107.659 31.0749C107.659 31.5906 107.263 31.9773 106.789 31.9773H99.7358C99.2618 31.9773 98.865 31.5906 98.865 31.0749Z" fill="white"/>
<path d="M106.789 32.4289H99.7358C98.9919 32.4289 98.4081 31.8328 98.4081 31.0754C98.4081 30.7128 98.3707 30.4711 98.3382 30.3664C98.2033 30.3141 97.8805 30.2375 97.5415 30.2375C96.835 30.2375 96.2382 29.6533 96.2382 28.9605V15.6346C96.2382 14.9296 96.835 14.3334 97.5415 14.3334C97.8764 14.3334 98.2033 14.2568 98.3382 14.2045C98.3667 14.1119 98.4041 13.8903 98.4041 13.4955C98.4041 12.7663 98.9756 12.2185 99.7317 12.2185H106.785C107.541 12.2185 108.112 12.7663 108.112 13.4955C108.112 13.8339 108.198 14.1119 108.243 14.2005C108.333 14.2448 108.62 14.3293 109.028 14.3293C109.759 14.3293 110.356 14.9135 110.356 15.6306V16.0697C110.356 16.7988 109.747 17.3708 108.975 17.3708H108.578C107.802 17.3708 107.197 16.7988 107.197 16.0697C107.197 15.7353 107.148 15.4452 107.107 15.3203C106.976 15.2801 106.682 15.2317 106.335 15.2317H100.263C99.8382 15.2317 99.5602 15.2841 99.4537 15.3203C99.4008 15.4493 99.3228 15.7675 99.3228 16.0697V28.4932C99.3228 28.8154 99.4008 29.1297 99.4537 29.2626C99.5561 29.2908 99.8049 29.3311 100.267 29.3311H106.339C106.702 29.3311 106.985 29.2949 107.115 29.2626C107.152 29.1337 107.202 28.8517 107.202 28.4932C107.202 27.7882 107.822 27.2162 108.582 27.2162H108.979C109.739 27.2162 110.36 27.7882 110.36 28.4932V28.9564C110.36 29.6493 109.751 30.2335 109.032 30.2335C108.624 30.2335 108.341 30.318 108.251 30.3624C108.198 30.4671 108.116 30.7611 108.116 31.0714C108.116 31.8287 107.533 32.4249 106.789 32.4249V32.4289ZM99.2252 30.1408C99.2821 30.3422 99.3228 30.6363 99.3228 31.0754C99.3228 31.3292 99.5073 31.5266 99.7358 31.5266H106.789C107.021 31.5266 107.202 31.3292 107.202 31.0754C107.202 30.8216 107.246 30.447 107.361 30.1367C107.148 30.1932 106.829 30.2375 106.339 30.2375H100.267C99.7683 30.2375 99.4455 30.1972 99.2252 30.1408ZM108.582 28.1226C108.305 28.1226 108.116 28.3159 108.116 28.4972C108.116 28.7147 108.1 29.1458 107.998 29.4963C108.317 29.3835 108.713 29.3351 109.032 29.3351C109.249 29.3351 109.445 29.1579 109.445 28.9605V28.4972C109.445 28.3159 109.257 28.1226 108.979 28.1226H108.582ZM98.5716 15.0787C98.2358 15.1874 97.8236 15.2317 97.5455 15.2317C97.3415 15.2317 97.1577 15.4211 97.1577 15.6306V28.9564C97.1577 29.1458 97.3496 29.3311 97.5455 29.3311C97.8236 29.3311 98.2277 29.3754 98.5634 29.4841C98.4529 29.1579 98.4081 28.7631 98.4081 28.4932V16.0697C98.4081 15.8118 98.4569 15.405 98.5716 15.0787ZM107.99 15.0746C108.1 15.4251 108.116 15.8562 108.116 16.0737C108.116 16.2912 108.321 16.4725 108.582 16.4725H108.979C109.241 16.4725 109.445 16.2952 109.445 16.0737V15.6346C109.445 15.4171 109.257 15.2358 109.032 15.2358C108.713 15.2358 108.309 15.1915 107.99 15.0746ZM100.263 14.3334H106.335C106.559 14.3334 107.005 14.3495 107.361 14.4583C107.25 14.1682 107.197 13.8057 107.197 13.4955C107.197 13.149 106.878 13.1209 106.785 13.1209H99.7317C99.6333 13.1209 99.3187 13.149 99.3187 13.4955C99.3187 13.9547 99.274 14.2528 99.2171 14.4542C99.5317 14.3616 99.9317 14.3334 100.263 14.3334Z" fill="white"/>
</svg>
