<svg width="168" height="42" viewBox="0 0 168 42" fill="none" xmlns="http://www.w3.org/2000/svg">
<path d="M58.924 16.586L56.218 18.522C55.624 17.51 54.876 17.136 53.512 17.136C52.302 17.136 51.774 17.686 51.774 18.456C51.774 19.358 52.566 19.864 54.48 20.414C57.78 21.36 59.034 22.592 59.034 25.188C59.034 27.938 57.186 29.72 53.732 29.72C50.96 29.72 49.09 29.038 47.66 27.234L50.388 25.32C51.136 26.266 52.06 26.684 53.424 26.684C54.832 26.684 55.382 26.09 55.382 25.364C55.382 24.484 54.766 24.044 52.522 23.318C49.442 22.328 48.122 20.92 48.122 18.478C48.122 15.97 49.772 14.1 53.468 14.1C55.888 14.1 57.846 14.914 58.924 16.586ZM59.9173 21.272V18.5H61.3253V16.08H64.6253V18.5H66.6053V21.272H64.6253V25.386C64.6253 26.266 64.8673 26.64 65.6813 26.64H66.6053V29.5H65.3073C62.6233 29.5 61.3253 28.906 61.3253 25.804V21.272H59.9173ZM77.4923 23.34V24.616C77.4923 27.696 76.0403 29.72 72.6523 29.72C69.3083 29.72 67.8123 27.696 67.8123 24.616V23.34C67.8123 19.974 69.5723 18.28 72.6523 18.28C75.7763 18.28 77.4923 19.974 77.4923 23.34ZM72.6523 26.948C74.0163 26.948 74.1923 25.914 74.1923 24.462V23.494C74.1923 21.866 73.8403 21.052 72.6523 21.052C71.4643 21.052 71.1123 21.866 71.1123 23.494V24.462C71.1123 25.914 71.2883 26.948 72.6523 26.948ZM87.5463 20.128L85.0823 21.888C84.8843 21.558 84.5763 21.096 83.9383 21.096C82.9923 21.096 82.4423 21.756 82.4423 23.23V29.5H79.1423V18.5H82.3543V19.336C82.6843 18.918 83.4103 18.28 84.6643 18.28C85.9183 18.28 86.9083 18.896 87.5463 20.128ZM87.6373 26.222C87.6373 23.912 89.3973 22.79 91.6853 22.79H93.6433V22.46C93.6433 21.382 93.4453 20.964 91.9053 20.964C90.9593 20.964 90.5193 21.14 90.1233 21.712L87.8133 20.106C88.6713 18.742 89.9473 18.28 92.2793 18.28C95.1393 18.28 96.8553 19.094 96.8553 22.482V29.5H93.6433V28.598C93.2693 29.192 92.6753 29.72 91.4653 29.72C89.3093 29.72 87.6373 28.532 87.6373 26.222ZM93.6433 25.452V25.122H92.1473C91.3113 25.122 90.8493 25.408 90.8493 26.134C90.8493 26.772 91.3553 27.124 92.1913 27.124C93.2913 27.124 93.6433 26.464 93.6433 25.452ZM104.894 18.874V18.5H108.194V29.28C108.194 33.24 105.95 33.812 103.266 33.812C101.154 33.812 99.8115 33.328 98.7335 31.766L100.89 30.204C101.374 30.798 101.99 31.084 102.826 31.084C104.366 31.084 104.894 30.886 104.894 29.28V29.082C104.344 29.5 103.64 29.72 102.826 29.72C100.01 29.72 98.5135 27.696 98.5135 24.748V23.208C98.5135 19.974 100.274 18.28 102.826 18.28C103.662 18.28 104.344 18.5 104.894 18.874ZM103.354 26.948C104.608 26.948 104.894 26.068 104.894 24.792V23.252C104.894 21.778 104.476 21.052 103.354 21.052C102.166 21.052 101.814 21.866 101.814 23.494V24.462C101.814 25.914 101.99 26.948 103.354 26.948ZM116.48 26.134L118.9 27.828C118.13 29.17 116.81 29.72 114.808 29.72C111.332 29.72 109.836 27.476 109.836 24.748V23.208C109.836 19.798 111.596 18.28 114.456 18.28C117.646 18.28 119.076 20.106 119.076 23.538V24.836H113.136C113.18 26.09 113.488 26.948 114.83 26.948C115.864 26.948 116.084 26.64 116.48 26.134ZM114.478 21.052C113.62 21.052 113.246 21.646 113.158 22.636H115.776C115.71 21.426 115.248 21.052 114.478 21.052ZM137.916 19.006H134.44C134.286 18.038 133.626 17.136 132.328 17.136C130.81 17.136 129.996 18.236 129.996 20.722V23.098C129.996 25.474 130.788 26.684 132.328 26.684C133.626 26.684 134.22 26.024 134.44 24.814H137.916C137.388 28.224 135.54 29.72 132.328 29.72C128.874 29.72 126.344 27.63 126.344 23.098V20.722C126.344 16.146 128.874 14.1 132.328 14.1C135.342 14.1 137.41 15.706 137.916 19.006ZM148.906 23.34V24.616C148.906 27.696 147.454 29.72 144.066 29.72C140.722 29.72 139.226 27.696 139.226 24.616V23.34C139.226 19.974 140.986 18.28 144.066 18.28C147.19 18.28 148.906 19.974 148.906 23.34ZM144.066 26.948C145.43 26.948 145.606 25.914 145.606 24.462V23.494C145.606 21.866 145.254 21.052 144.066 21.052C142.878 21.052 142.526 21.866 142.526 23.494V24.462C142.526 25.914 142.702 26.948 144.066 26.948ZM150.886 29.5V18.5H154.186V29.5H150.886ZM150.776 17.4V14.32H154.296V17.4H150.776ZM156.486 29.5V18.5H159.698V19.336C160.05 18.896 160.864 18.28 162.03 18.28C164.186 18.28 166.078 19.248 166.078 22.592V29.5H162.778V23.23C162.778 21.756 162.426 21.096 161.37 21.096C160.226 21.096 159.786 21.8 159.786 23.208V29.5H156.486Z" fill="white"/>
<rect y="0.5" width="40" height="41" rx="20" fill="black" fill-opacity="0.01"/>
<path d="M26.1034 16.2269L23.5049 20.7902H28.6982L26.1034 16.2269Z" fill="#6DB6E3"/>
<path d="M13.9079 16.1964L11.3093 20.7634H16.5027L13.9079 16.1964Z" fill="#3D7BB3"/>
<path d="M25.8928 15.6775L22.9445 10.5L20 15.6775L22.9445 20.855L25.8928 15.6775Z" fill="#6DB6E3"/>
<path d="M20 15.6775L22.9445 10.5H17.0517L14.1072 15.6775H20Z" fill="#2A5293"/>
<path d="M20 15.6775H14.1072L17.0517 20.855L22.9445 20.855L20 15.6775Z" fill="#3366A3"/>
<path d="M20 26.8414L17.4014 31.4046H22.5986L20 26.8414Z" fill="#4587C3"/>
<path d="M20 25.8952L22.5986 21.3319H17.4014L20 25.8952Z" fill="#2A5293"/>
<path d="M19.7856 26.3225L16.8374 21.145L13.8928 26.3225L16.8374 31.4962L19.7856 26.3225Z" fill="#3D7BB3"/>
<path d="M13.8928 26.3225L16.8374 21.145H10.9483L8 26.3225H13.8928Z" fill="#6DB6E3"/>
<path d="M13.8928 26.3225H8L10.9483 31.4962H16.8374L13.8928 26.3225Z" fill="#2A5293"/>
<path d="M32 26.3225L29.0517 21.145L26.1072 26.3225L29.0517 31.4962L32 26.3225Z" fill="#3366A3"/>
<path d="M26.1072 26.3225L29.0517 21.145H23.1589L20.2144 26.3225H26.1072Z" fill="#4587C3"/>
<path d="M26.1072 26.3225H20.2144L23.1589 31.4962H29.0517L26.1072 26.3225Z" fill="#6DB6E3"/>
</svg>
