<svg width="258" height="40" viewBox="0 0 258 40" fill="none" xmlns="http://www.w3.org/2000/svg">
<g clip-path="url(#clip0_1_14)">
<path d="M182.25 11.7483H170.678C170.158 11.7483 169.67 11.8779 169.213 12.137C168.755 12.3961 168.398 12.7548 168.137 13.2132C167.878 13.6716 167.748 14.1832 167.748 14.7528V26.9172C167.748 27.4868 167.878 27.9984 168.137 28.4568C168.396 28.9152 168.755 29.2723 169.213 29.533C169.67 29.7921 170.158 29.9217 170.678 29.9217H182.25V35.67H170.716C169.134 35.67 167.675 35.2681 166.34 34.4642C165.005 33.6603 163.948 32.5791 163.169 31.2188C162.39 29.8586 162.002 28.3887 162.002 26.8059V14.8641C162.002 13.2813 162.39 11.8114 163.169 10.4512C163.948 9.0909 165.005 8.00967 166.34 7.2058C167.675 6.40193 169.134 6 170.716 6H182.251V11.7483H182.25Z" fill="black"/>
<path d="M203.374 14.4012C204.45 15.0573 205.309 15.9226 205.952 16.9972C206.595 18.0734 206.917 19.2161 206.917 20.4286V28.7363C206.917 29.9487 206.595 31.0864 205.952 32.1477C205.309 33.2107 204.45 34.0644 203.374 34.7072C202.298 35.3499 201.155 35.6721 199.943 35.6721H193.786C192.573 35.6721 191.431 35.3516 190.354 34.7072C189.278 34.0644 188.42 33.2107 187.777 32.1477C187.134 31.0848 186.812 29.9471 186.812 28.7363V20.4286C186.812 19.2178 187.132 18.0734 187.777 16.9972C188.42 15.9209 189.278 15.0556 190.354 14.4012C191.431 13.7468 192.573 13.418 193.786 13.418H199.943C201.153 13.418 202.298 13.7452 203.374 14.4012ZM193.211 19.3523C193.025 19.4769 192.871 19.6363 192.748 19.834C192.623 20.0316 192.562 20.2292 192.562 20.4269V28.7346C192.562 28.9323 192.623 29.1233 192.748 29.3093C192.871 29.4953 193.025 29.6431 193.211 29.7544C193.397 29.8657 193.588 29.9205 193.786 29.9205H199.943C200.14 29.9205 200.331 29.8657 200.517 29.7544C200.703 29.6431 200.856 29.4953 200.981 29.3093C201.104 29.1233 201.167 28.9323 201.167 28.7346V20.4269C201.167 20.2292 201.105 20.0316 200.981 19.834C200.856 19.6363 200.703 19.4752 200.517 19.3523C200.331 19.2294 200.14 19.1663 199.943 19.1663H193.786C193.588 19.1663 193.397 19.2277 193.211 19.3523Z" fill="black"/>
<path d="M218.227 10.1522V11.7483H212.479V6H214.075C216.369 6 218.227 7.85853 218.227 10.1522Z" fill="black"/>
<path d="M218.227 13.418H212.479V35.6705H218.227V13.418Z" fill="black"/>
<path d="M239.664 14.364C240.727 14.9951 241.574 15.8472 242.206 16.9234C242.837 17.9997 243.151 19.1673 243.151 20.4279V35.6714H237.364V20.4279C237.364 20.2053 237.314 20.001 237.216 19.8167C237.117 19.6306 236.975 19.4895 236.789 19.3898C236.603 19.2918 236.401 19.242 236.178 19.242H229.576V35.6714H223.79V16.3105C223.79 15.495 224.067 14.8091 224.623 14.2527C225.18 13.6963 225.866 13.4189 226.681 13.4189H236.177C237.437 13.4189 238.6 13.7345 239.663 14.364H239.664Z" fill="black"/>
<path d="M62.1322 6C60.5492 6 59.3998 6.85378 58.6822 8.55967L48 35.6729H54.5279L62.1156 15.649L69.7365 35.6729H76.2278L65.544 8.55967C64.8513 6.85378 63.7135 6 62.1322 6Z" fill="black"/>
<path d="M86.6492 6H80.9003V35.6729H86.6492V6Z" fill="black"/>
<path d="M105.419 6C103.836 6 102.687 6.85378 101.969 8.55967L91.2869 35.6746H97.8148L105.402 15.6507L113.023 35.6746H119.515L108.831 8.55967C108.138 6.85378 107 6 105.419 6Z" fill="black"/>
<path d="M146.832 10.4314C146.053 9.08427 144.99 8.00791 143.643 7.20397C142.294 6.40002 140.818 5.99805 139.21 5.99805H124.187V35.671H129.936V11.7486H139.283C139.826 11.7486 140.321 11.8782 140.766 12.1373C141.211 12.3964 141.57 12.7552 141.843 13.2136C142.115 13.6721 142.251 14.1837 142.251 14.7534V26.9189C142.251 27.4887 142.115 28.0003 141.843 28.4587C141.57 28.9172 141.211 29.2743 140.766 29.5351C140.321 29.7959 139.826 29.9238 139.283 29.9238H132.235V35.6726H139.208C140.816 35.6726 142.293 35.2707 143.641 34.4667C144.989 33.6628 146.052 32.5881 146.831 31.2393C147.61 29.8922 147.998 28.4139 147.998 26.8076V14.8647C147.998 13.2568 147.61 11.7802 146.831 10.4314H146.832Z" fill="black"/>
</g>
<path d="M21.1111 14.8098C21.4317 14.0561 21.6081 13.2263 21.6081 12.3559C21.6081 8.87625 18.777 6.05566 15.2843 6.05566C12.4769 6.05566 10.0986 7.87747 9.27251 10.3989L9.26233 10.3956L2.50929 29.1696C2.2735 29.8253 2.14288 30.5317 2.14288 31.2669C2.14288 34.6925 4.92993 37.4691 8.36837 37.4691C11.0503 37.4691 13.3352 35.7808 14.2105 33.4115L21.1111 14.8081V14.8098Z" fill="#FFF000"/>
<path d="M37.2312 9.61332H37.2719L37.121 9.397C36.8767 8.9407 36.5781 8.51652 36.2321 8.13458L28.8022 1.42871L18.7583 29.1698C18.5225 29.8256 18.3919 30.532 18.3919 31.2671C18.3919 34.6927 21.179 37.4694 24.6174 37.4694C27.2993 37.4694 29.5842 35.7811 30.4595 33.4117L37.3601 14.8083C37.6807 14.0546 37.8572 13.2248 37.8572 12.3545C37.8572 11.3726 37.6315 10.4414 37.2278 9.61332H37.2312Z" fill="#F20C3E"/>
<defs>
<clipPath id="clip0_1_14">
<rect width="210" height="30" fill="white" transform="translate(48 6)"/>
</clipPath>
</defs>
</svg>
