<svg width="414" height="110" viewBox="0 0 414 110" fill="none" xmlns="http://www.w3.org/2000/svg">
<path d="M156.569 30.84H171.354C181.785 30.84 187.481 34.552 187.481 42.424C187.481 46.968 185.178 50.104 181.657 51.832C186.201 53.496 188.889 56.824 188.889 62.328C188.889 69.176 184.41 75 172.761 75H156.569V30.84ZM165.529 55.864V67.448H171.993C177.369 67.448 179.93 65.4 179.93 61.624C179.93 57.464 177.177 55.864 171.161 55.864H165.529ZM165.529 38.392V48.312H171.482C176.41 48.312 178.521 46.392 178.521 43.256C178.521 40.184 176.986 38.392 170.521 38.392H165.529ZM213.046 52.024H229.11V56.056C229.11 69.56 222.838 75.576 212.854 75.576C202.934 75.576 195.958 69.56 195.958 56.056V50.424C195.958 36.152 202.934 30.264 212.854 30.264C222.134 30.264 227.702 35.512 229.046 44.536H220.47C219.702 40.504 217.334 37.816 212.854 37.816C207.67 37.816 204.918 41.336 204.918 49.784V56.056C204.918 64.504 207.67 68.024 212.854 68.024C217.91 68.024 219.958 64.888 220.47 59.576H213.046V52.024ZM234.132 30.84H267.412V38.456H255.252V75H246.292V38.456H234.132V30.84ZM323.868 44.536H315.292C314.46 40.376 312.028 37.816 307.676 37.816C302.492 37.816 299.74 41.336 299.74 49.784V56.056C299.74 64.248 302.492 68.024 307.676 68.024C312.156 68.024 314.332 65.784 315.292 61.304H323.804C322.332 71.224 316.764 75.576 307.676 75.576C297.756 75.576 290.78 69.56 290.78 56.056V49.784C290.78 36.152 297.756 30.264 307.676 30.264C316.444 30.264 322.396 34.872 323.868 44.536ZM357.453 57.016V60.856C357.453 69.624 353.293 75.576 343.629 75.576C334.349 75.576 329.805 69.816 329.805 60.856V57.016C329.805 47.416 334.861 42.424 343.629 42.424C352.525 42.424 357.453 47.416 357.453 57.016ZM343.629 68.664C348.109 68.664 349.325 65.208 349.325 60.6V57.272C349.325 52.152 347.661 49.336 343.629 49.336C339.597 49.336 337.933 52.152 337.933 57.272V60.6C337.933 65.208 339.085 68.664 343.629 68.664ZM365.774 75V43H373.966V75H365.774ZM365.454 38.776V30.84H374.286V38.776H365.454ZM383.359 75V43H391.359V45.688C392.575 44.088 395.135 42.424 398.719 42.424C405.183 42.424 410.431 45.496 410.431 54.968V75H402.303V56.248C402.303 51.256 400.511 49.464 397.183 49.464C393.407 49.464 391.551 51.96 391.551 56.184V75H383.359Z" fill="white"/>
<g clip-path="url(#clip0_1_11)">
<path d="M55 110C85.3757 110 110 85.3757 110 55C110 24.6243 85.3757 0 55 0C24.6243 0 0 24.6243 0 55C0 85.3757 24.6243 110 55 110Z" fill="#FFCD00"/>
<path d="M68.8989 71.98V59.0452L66.9312 59.2632L59.2051 60.2108V73.1068L68.8989 71.98Z" fill="#000A23"/>
<path d="M21.936 82.3757L22.0437 52.4061L23.6297 53.6864L33.7818 62.2438L33.6758 91.8739L21.936 82.3757Z" fill="#000A23"/>
<path d="M90.1042 56.7537C90.1042 56.7537 90.1017 56.7554 90.0999 56.7563L74.9674 58.413L72.0176 58.7128L71.8255 58.7292V74.5905L56.2786 76.3902V60.5694L36.7084 62.9566L36.599 93.2871L93.1488 86.9791L93.2582 56.4143L90.1042 56.7537Z" fill="#000A23"/>
<path d="M80.1934 41.1537C78.8184 35.4841 78.3135 29.0589 78.7719 23.7925L86.7461 22.9034L80.1934 41.1537Z" fill="#000A23"/>
<path d="M27.2515 20.4853L82.3411 14.3531C82.7986 14.3022 83.2991 14.6201 83.6411 14.9018C84.3123 15.4506 85.5468 16.7894 86.871 19.9572L30.4133 26.2377C29.4699 23.8142 28.3973 21.868 27.2472 20.4888L27.2515 20.4853Z" fill="#000A23"/>
<path d="M67.8918 42.2653L68.0856 43.2698L65.7535 38.7831L60.1614 38.1886L57.868 42.0301L53.2322 42.1378L48.0295 37.7346L42.6321 37.583L35.0103 44.6767L30.8587 49.5382L27.124 38.5755L30.5037 29.1746L75.8375 24.1244C75.3783 30.5151 76.1761 38.2662 78.1033 44.6095H77.6794L76.0073 40.0271L68.7817 41.1548L67.8918 42.2653Z" fill="#000A23"/>
<path d="M27.8839 27.8164C26.3822 23.7448 24.9194 22.1243 24.1656 21.5152C23.6056 21.0612 23.1171 20.8898 22.7174 21.0009C21.9859 21.2077 21.1649 22.3638 20.5446 24.0903C18.5528 29.6393 18.7156 39.5054 20.7143 47.7777L27.8839 27.8164Z" fill="#000A23"/>
<path d="M30.8578 49.5326L29.9946 49.8824L29.8283 49.9883L22.7467 50.7766L27.124 38.5755L29.345 45.6971C29.3743 45.7815 29.9696 47.4921 30.8587 49.5382L30.8578 49.5326Z" fill="#000A23"/>
<path d="M65.9895 63.9746C65.9844 64.2977 65.9043 64.6147 65.7552 64.9016C65.6062 65.1885 65.3934 65.4366 65.1323 65.627L65.508 69.5495L62.7778 69.8286L63.4205 65.8131C63.1586 65.6726 62.9432 65.459 62.8002 65.1979C62.6572 64.9369 62.5943 64.6406 62.6176 64.3433C62.6469 63.8566 62.8373 63.3939 63.1586 63.0269C63.4799 62.6608 63.915 62.4127 64.394 62.3205C64.394 62.3205 64.3664 62.3369 64.3733 62.3369C65.3288 62.2274 66.1515 62.9632 65.9904 63.9591L65.9895 63.9746Z" fill="#FFCD00"/>
<path d="M26.5673 41.0293C33.5016 41.0293 37.288 43.4631 37.288 48.6244C37.288 51.6035 35.7562 53.66 33.4163 54.7929C36.4368 55.8835 38.2236 58.0658 38.2236 61.6747C38.2236 66.164 35.2453 69.9831 27.5029 69.9831H16.7391V41.0302H26.5664L26.5673 41.0293ZM22.6957 52.4849H26.6517C29.9272 52.4849 31.3315 51.2262 31.3315 49.1698C31.3315 47.1133 30.3106 45.9804 26.0133 45.9804H22.6948V52.484L22.6957 52.4849ZM22.6957 65.0311H26.9929C30.5665 65.0311 32.268 63.688 32.268 61.2129C32.268 58.4853 30.439 57.436 26.4398 57.436H22.6957V65.0311Z" stroke="#000A23" stroke-width="6" stroke-linejoin="round"/>
<path d="M26.5673 41.0293C33.5016 41.0293 37.288 43.4631 37.288 48.6244C37.288 51.6035 35.7562 53.66 33.4163 54.7929C36.4368 55.8835 38.2236 58.0658 38.2236 61.6747C38.2236 66.164 35.2453 69.9831 27.5029 69.9831H16.7391V41.0302H26.5664L26.5673 41.0293ZM22.6957 52.4849H26.6517C29.9272 52.4849 31.3315 51.2262 31.3315 49.1698C31.3315 47.1133 30.3106 45.9804 26.0133 45.9804H22.6948V52.484L22.6957 52.4849ZM22.6957 65.0311H26.9929C30.5665 65.0311 32.268 63.688 32.268 61.2129C32.268 58.4853 30.439 57.436 26.4398 57.436H22.6957V65.0311Z" stroke="#000A23" stroke-width="6" stroke-linejoin="round"/>
<path d="M66.2168 54.919V57.5622C66.2168 66.416 62.0479 70.36 55.4108 70.36C48.7737 70.36 44.1793 66.416 44.1793 57.5622V53.8697C44.1793 44.5128 48.8168 40.6523 55.4108 40.6523C61.5793 40.6523 65.2812 44.0932 66.1746 50.0093H60.474C59.9631 47.3661 58.3891 45.6035 55.4117 45.6035C51.9656 45.6035 50.1366 47.9115 50.1366 53.4502V57.5622C50.1366 63.1009 51.9656 65.4088 55.4117 65.4088C58.8578 65.4088 60.1337 63.3524 60.474 59.8702H55.5392V54.919H66.2177H66.2168Z" stroke="#000A23" stroke-width="6" stroke-linejoin="round"/>
<path d="M66.2168 54.919V57.5622C66.2168 66.416 62.0479 70.36 55.4108 70.36C48.7737 70.36 44.1793 66.416 44.1793 57.5622V53.8697C44.1793 44.5128 48.8168 40.6523 55.4108 40.6523C61.5793 40.6523 65.2812 44.0932 66.1746 50.0093H60.474C59.9631 47.3661 58.3891 45.6035 55.4117 45.6035C51.9656 45.6035 50.1366 47.9115 50.1366 53.4502V57.5622C50.1366 63.1009 51.9656 65.4088 55.4117 65.4088C58.8578 65.4088 60.1337 63.3524 60.474 59.8702H55.5392V54.919H66.2177H66.2168Z" stroke="#000A23" stroke-width="6" stroke-linejoin="round"/>
<path d="M92.2535 41.0293V46.0226H84.1708V69.9822H78.2151V46.0226H70.1315V41.0293H92.2544H92.2535Z" stroke="#000A23" stroke-width="6" stroke-linejoin="round"/>
<path d="M92.2535 41.0293V46.0226H84.1708V69.9822H78.2151V46.0226H70.1315V41.0293H92.2544H92.2535Z" stroke="#000A23" stroke-width="6" stroke-linejoin="round"/>
<path d="M26.5673 41.0293C33.5016 41.0293 37.288 43.4631 37.288 48.6244C37.288 51.6035 35.7562 53.66 33.4163 54.7929C36.4368 55.8835 38.2236 58.0658 38.2236 61.6747C38.2236 66.164 35.2453 69.9831 27.5029 69.9831H16.7391V41.0302H26.5664L26.5673 41.0293ZM22.6957 52.4849H26.6517C29.9272 52.4849 31.3315 51.2262 31.3315 49.1698C31.3315 47.1133 30.3106 45.9804 26.0133 45.9804H22.6948V52.484L22.6957 52.4849ZM22.6957 65.0311H26.9929C30.5665 65.0311 32.268 63.688 32.268 61.2129C32.268 58.4853 30.439 57.436 26.4398 57.436H22.6957V65.0311Z" fill="white"/>
<path d="M26.5673 41.0293C33.5016 41.0293 37.288 43.4631 37.288 48.6244C37.288 51.6035 35.7562 53.66 33.4163 54.7929C36.4368 55.8835 38.2236 58.0658 38.2236 61.6747C38.2236 66.164 35.2453 69.9831 27.5029 69.9831H16.7391V41.0302H26.5664L26.5673 41.0293ZM22.6957 52.4849H26.6517C29.9272 52.4849 31.3315 51.2262 31.3315 49.1698C31.3315 47.1133 30.3106 45.9804 26.0133 45.9804H22.6948V52.484L22.6957 52.4849ZM22.6957 65.0311H26.9929C30.5665 65.0311 32.268 63.688 32.268 61.2129C32.268 58.4853 30.439 57.436 26.4398 57.436H22.6957V65.0311Z" fill="white"/>
<path d="M66.2168 54.919V57.5622C66.2168 66.416 62.0479 70.36 55.4108 70.36C48.7737 70.36 44.1793 66.416 44.1793 57.5622V53.8697C44.1793 44.5128 48.8168 40.6523 55.4108 40.6523C61.5793 40.6523 65.2812 44.0932 66.1746 50.0093H60.474C59.9631 47.3661 58.3891 45.6035 55.4117 45.6035C51.9656 45.6035 50.1366 47.9115 50.1366 53.4502V57.5622C50.1366 63.1009 51.9656 65.4088 55.4117 65.4088C58.8578 65.4088 60.1337 63.3524 60.474 59.8702H55.5392V54.919H66.2177H66.2168Z" fill="white"/>
<path d="M66.2168 54.919V57.5622C66.2168 66.416 62.0479 70.36 55.4108 70.36C48.7737 70.36 44.1793 66.416 44.1793 57.5622V53.8697C44.1793 44.5128 48.8168 40.6523 55.4108 40.6523C61.5793 40.6523 65.2812 44.0932 66.1746 50.0093H60.474C59.9631 47.3661 58.3891 45.6035 55.4117 45.6035C51.9656 45.6035 50.1366 47.9115 50.1366 53.4502V57.5622C50.1366 63.1009 51.9656 65.4088 55.4117 65.4088C58.8578 65.4088 60.1337 63.3524 60.474 59.8702H55.5392V54.919H66.2177H66.2168Z" fill="white"/>
<path d="M92.2535 41.0293V46.0226H84.1708V69.9822H78.2151V46.0226H70.1315V41.0293H92.2544H92.2535Z" fill="white"/>
<path d="M92.2535 41.0293V46.0226H84.1708V69.9822H78.2151V46.0226H70.1315V41.0293H92.2544H92.2535Z" fill="white"/>
</g>
<defs>
<clipPath id="clip0_1_11">
<rect width="110" height="110" fill="white"/>
</clipPath>
</defs>
</svg>
