<svg width="280" height="82" viewBox="0 0 280 82" fill="none" xmlns="http://www.w3.org/2000/svg">
<path d="M67.2995 16.3329C65.5899 15.57 63.9133 14.985 62.2746 14.5644C60.8755 12.2577 59.0376 10.0285 56.7116 7.92852C45.9196 -1.81625 33.5322 -1.40655 23.7091 9.56311C22.46 10.9579 21.389 12.3761 20.485 13.8086C17.8669 14.4317 15.1863 15.498 12.4773 17.0711C-0.0872282 24.3673 -3.52843 36.3221 3.827 49.0929C4.76263 50.7175 5.77578 52.1796 6.85437 53.4861C6.63557 56.1799 6.81727 59.0695 7.46992 62.1437C10.4969 76.3964 20.758 83.3771 35.1267 80.2995C36.9546 79.9083 38.6525 79.3927 40.2233 78.7666C42.7055 79.807 45.497 80.5255 48.6085 80.8519C63.0448 82.3664 72.827 74.7258 74.3528 60.0525C74.547 58.1861 74.5832 56.4059 74.4753 54.7127C76.229 52.663 77.774 50.2178 79.0451 47.3453C84.9406 34.0267 80.7251 22.3243 67.2999 16.3329H67.2995Z" fill="url(#paint0_linear_1_14)"/>
<path d="M19.8676 50.6583C19.8676 47.4469 21.0128 44.7137 23.3025 42.4606C25.5906 40.2075 28.3812 39.0806 31.6711 39.0806C34.961 39.0806 37.7804 40.2155 40.0851 42.4828C42.3594 44.7518 43.4959 47.5377 43.4959 50.8412C43.4959 54.1748 42.3519 56.969 40.0622 59.2213C37.7575 61.4597 34.9302 62.5783 31.5794 62.5783C28.2603 62.5783 25.4776 61.4367 23.2338 59.1531C20.9899 56.8999 19.8676 54.0689 19.8676 50.6583ZM25.0984 50.7495C25.0984 52.9725 25.6893 54.731 26.8717 56.0245C28.0845 57.3343 29.6836 57.9884 31.6707 57.9884C33.6716 57.9884 35.2707 57.3419 36.4697 56.0475C37.6671 54.754 38.266 53.0261 38.266 50.8638C38.266 48.7015 37.6671 46.9744 36.4697 45.6809C35.2557 44.371 33.6566 43.7169 31.6707 43.7169C29.7144 43.7169 28.1303 44.371 26.9175 45.6809C25.7048 46.9899 25.0984 48.6801 25.0984 50.7495Z" fill="white"/>
<path d="M51.4166 44.493V61.9391H46.2771V44.493H44.4567V39.6972H46.2771V31.1117C46.2771 28.3103 46.7614 26.3313 47.7312 25.1742C49.0661 23.561 51.007 22.7542 53.5534 22.7542C54.4636 22.7542 55.6076 23.0203 56.9871 23.553V28.805L56.4645 28.5313C55.3571 27.9676 54.4482 27.6864 53.7351 27.6864C52.8261 27.6864 52.2122 28.0136 51.893 28.6681C51.575 29.3076 51.4162 30.5408 51.4162 32.3675V39.6976H56.9867V44.4935H51.4162L51.4166 44.493Z" fill="white"/>
<path d="M113.571 35.0536C111.256 32.775 108.442 31.6354 105.114 31.6354C101.816 31.6354 99.002 32.775 96.7023 35.0381C94.403 37.3017 93.2531 40.0511 93.2531 43.2718C93.2531 46.705 94.388 49.5456 96.6418 51.8092C98.8961 54.1029 101.68 55.2575 105.023 55.2575C108.397 55.2575 111.226 54.1334 113.556 51.8699C115.855 49.6063 117.005 46.8113 117.005 43.4542C117.005 40.1428 115.855 37.3322 113.571 35.0536ZM109.939 48.6798C108.729 49.9863 107.126 50.6395 105.113 50.6395C103.116 50.6395 101.513 49.9863 100.287 48.6647C99.107 47.3582 98.5173 45.5964 98.5173 43.363C98.5173 41.2819 99.1224 39.5803 100.333 38.2742C101.558 36.9527 103.146 36.2994 105.113 36.2994C107.11 36.2994 108.714 36.9527 109.939 38.2742C111.135 39.5653 111.74 41.3124 111.74 43.4848C111.74 45.6571 111.135 47.3884 109.939 48.6798ZM139.244 35.0385C137.262 32.775 134.736 31.6359 131.679 31.6359C129.093 31.6359 126.793 32.6536 124.766 34.6891V32.2586H119.638V66.7724H124.766V52.113C126.823 54.2092 129.168 55.2575 131.77 55.2575C134.781 55.2575 137.277 54.1485 139.259 51.9306C141.256 49.6825 142.254 46.9025 142.254 43.545C142.254 40.1269 141.256 37.2866 139.244 35.0385ZM135.219 48.6191C134.055 49.9712 132.587 50.6395 130.802 50.6395C128.91 50.6395 127.398 49.9712 126.233 48.6342C125.068 47.2821 124.478 45.5504 124.478 43.4542C124.478 41.3124 125.068 39.5803 126.233 38.2742C127.413 36.9527 128.941 36.2994 130.832 36.2994C132.617 36.2994 134.085 36.9828 135.264 38.3349C136.414 39.687 137.004 41.4338 137.004 43.576C137.004 45.5964 136.399 47.2674 135.219 48.6195L135.219 48.6191ZM161.029 46.3254C159.97 47.9813 159.032 49.1054 158.215 49.7281C157.368 50.3357 156.309 50.6395 155.038 50.6395C153.389 50.6395 152.043 50.1077 150.984 49.0292C149.94 47.9508 149.35 46.4769 149.214 44.6544H165.159L165.19 43.4391C165.19 39.7477 164.237 36.8614 162.346 34.7803C160.439 32.6842 157.853 31.6359 154.585 31.6359C151.317 31.6359 148.73 32.7143 146.763 34.8716C144.812 37.059 143.828 39.9151 143.828 43.4542C143.828 47.0243 144.842 49.88 146.854 52.0373C148.866 54.1791 151.529 55.2579 154.857 55.2579C156.007 55.2579 157.081 55.1366 158.08 54.8779C159.063 54.6348 159.986 54.2552 160.833 53.7233C161.696 53.1919 162.497 52.5231 163.239 51.7029C163.98 50.8827 164.691 49.9105 165.372 48.756L161.03 46.3254H161.029ZM150.272 38.6994C150.605 38.1981 150.983 37.7729 151.437 37.4084C151.876 37.0439 152.39 36.7702 152.935 36.5882C153.479 36.3907 154.07 36.2994 154.69 36.2994C157.429 36.2994 159.168 37.6666 159.879 40.4315H149.546C149.713 39.7783 149.955 39.2162 150.273 38.6998L150.272 38.6994ZM167.972 32.2561H173.137V34.3217C174.935 32.5314 176.961 31.6359 179.217 31.6359C181.806 31.6359 183.825 32.4552 185.273 34.0924C186.522 35.4838 187.148 37.7562 187.148 40.9082V54.6076H181.982V42.1234C181.982 39.9205 181.677 38.3989 181.068 37.5565C180.474 36.7007 179.392 36.2722 177.823 36.2722C176.116 36.2722 174.904 36.838 174.188 37.9704C173.489 39.0869 173.137 41.0387 173.137 43.8221V54.608H167.972V32.2561H167.972ZM207.791 37.0753V54.608H202.625V37.0753H200.796V32.2561H202.625V23.6282C202.625 20.8122 203.113 18.824 204.088 17.6615C205.428 16.0395 207.379 15.228 209.939 15.228C210.853 15.228 212.003 15.4967 213.39 16.0311V21.3102L212.864 21.0349C211.751 20.4691 210.837 20.1858 210.121 20.1858C209.208 20.1858 208.59 20.5139 208.27 21.1717C207.95 21.8145 207.791 23.0545 207.791 24.8895V32.2561H213.39V37.0753H207.791ZM229.955 32.2586V34.8561C227.912 32.7143 225.582 31.6354 222.995 31.6354C219.985 31.6354 217.489 32.7595 215.492 34.9925C213.495 37.2255 212.496 40.0055 212.496 43.3626C212.496 46.7807 213.495 49.6214 215.492 51.9C217.504 54.133 220.045 55.2571 223.132 55.2571C225.567 55.2571 227.837 54.2544 229.955 52.2645V54.6038H235.128V32.2577H229.955V32.2586ZM228.518 48.6647C227.353 49.9863 225.809 50.6395 223.903 50.6395C222.118 50.6395 220.65 49.9557 219.47 48.5886C218.336 47.2519 217.761 45.5048 217.761 43.363C217.761 41.3576 218.351 39.6716 219.516 38.3194C220.711 36.9673 222.179 36.299 223.949 36.299C225.824 36.299 227.353 36.9673 228.518 38.2889C229.698 39.6561 230.288 41.3877 230.288 43.4843C230.288 45.5809 229.698 47.2976 228.518 48.6647ZM241.575 32.2561L247.333 44.8093L253.07 32.2561H258.851L247.287 56.1464L235.814 32.2561H241.574H241.575ZM275.658 46.3254C274.599 47.9813 273.661 49.1054 272.844 49.7281C272.012 50.3357 270.953 50.6395 269.667 50.6395C268.018 50.6395 266.672 50.1077 265.628 49.0292C264.569 47.9508 263.979 46.4769 263.842 44.6544H279.788L279.818 43.4391C279.818 39.7477 278.865 36.8614 276.974 34.7803C275.068 32.6842 272.481 31.6359 269.213 31.6359C265.946 31.6359 263.358 32.7143 261.392 34.8716C259.44 37.059 258.472 39.9151 258.472 43.4542C258.472 47.0243 259.47 49.88 261.483 52.0373C263.494 54.1791 266.157 55.2579 269.486 55.2579C270.636 55.2579 271.71 55.1366 272.708 54.8779C273.691 54.6348 274.614 54.2552 275.477 53.7233C276.324 53.1919 277.125 52.5231 277.867 51.7029C278.623 50.8827 279.319 49.9105 280 48.756L275.658 46.3254ZM264.917 38.6994C265.235 38.1981 265.613 37.7729 266.067 37.4084C266.52 37.0439 267.02 36.7702 267.564 36.5882C268.109 36.3907 268.699 36.2994 269.319 36.2994C272.073 36.2994 273.798 37.6666 274.508 40.4315H264.176C264.342 39.7783 264.6 39.2162 264.917 38.6998L264.917 38.6994Z" fill="url(#paint1_linear_1_14)"/>
<defs>
<linearGradient id="paint0_linear_1_14" x1="12.2073" y1="73.4088" x2="69.8372" y2="16.0161" gradientUnits="userSpaceOnUse">
<stop stop-color="#EC9DBC"/>
<stop offset="0.483" stop-color="#8E81B9"/>
<stop offset="1" stop-color="#7ECAF0"/>
</linearGradient>
<linearGradient id="paint1_linear_1_14" x1="137.766" y1="93.1033" x2="236.825" y2="-5.54889" gradientUnits="userSpaceOnUse">
<stop stop-color="#EC9DBC"/>
<stop offset="0.483" stop-color="#8E81B9"/>
<stop offset="1" stop-color="#7ECAF0"/>
</linearGradient>
</defs>
</svg>
