<svg width="419" height="277" viewBox="0 0 419 277" fill="none" xmlns="http://www.w3.org/2000/svg">
<g clip-path="url(#clip0_37_5245)">
<path d="M273.921 36.9776C269.786 35.155 265.73 33.7418 261.76 32.7281C258.37 27.1702 253.924 21.822 248.292 16.7635C222.147 -6.68143 192.132 -5.6877 168.355 20.7035C165.321 24.0642 162.722 27.4598 160.54 30.9004C154.201 32.4135 147.717 34.9652 141.149 38.7553C110.718 56.3128 102.387 85.066 120.196 115.787C122.464 119.707 124.912 123.207 127.53 126.358C126.99 132.845 127.425 139.791 129.007 147.191C136.342 181.477 161.2 198.271 195.997 190.87C200.423 189.917 204.538 188.673 208.343 187.18C214.351 189.687 221.126 191.41 228.651 192.199C263.612 195.849 287.304 177.458 291.004 142.158C291.48 137.659 291.565 133.389 291.294 129.304C295.555 124.371 299.295 118.503 302.374 111.582C316.653 79.553 306.45 51.4041 273.921 36.9726V36.9776ZM216.389 120.685C214.602 124.995 212.108 128.665 208.929 131.691C205.73 134.717 201.945 137.039 197.559 138.677C193.173 140.295 188.392 141.104 183.195 141.104C177.998 141.104 173.216 140.295 168.831 138.677C164.445 137.039 160.665 134.717 157.46 131.691C154.281 128.665 151.788 124.995 150 120.685C148.213 116.396 147.342 111.587 147.342 106.279C147.342 100.971 148.213 96.1618 150 91.8523C151.788 87.5428 154.281 83.8725 157.46 80.8464C160.66 77.8203 164.445 75.4982 168.831 73.8803C173.216 72.2624 177.998 71.4335 183.195 71.4335C188.392 71.4335 193.173 72.2624 197.559 73.8803C201.945 75.4982 205.725 77.8203 208.929 80.8464C212.108 83.8725 214.602 87.5428 216.389 91.8523C218.177 96.1618 219.048 100.976 219.048 106.279C219.048 111.582 218.177 116.396 216.389 120.685ZM272.279 86.604H242.349V100.102H270.036V113.574H242.349V139.426H227.694V73.1313H272.279V86.604ZM198.225 90.9584C196.397 89.0509 194.235 87.5778 191.696 86.5241C189.163 85.4455 186.334 84.9262 183.195 84.9262C180.056 84.9262 177.232 85.4455 174.693 86.5241C172.16 87.5828 169.997 89.0509 168.165 90.9584C166.357 92.866 164.965 95.1231 163.989 97.7597C163.033 100.371 162.532 103.213 162.532 106.279C162.532 109.345 163.033 112.251 163.989 114.843C164.965 117.434 166.357 119.672 168.165 121.579C169.992 123.487 172.155 124.98 174.693 126.038C177.227 127.097 180.056 127.636 183.195 127.636C186.334 127.636 189.158 127.097 191.696 126.038C194.23 124.98 196.392 123.487 198.225 121.579C200.032 119.672 201.424 117.434 202.401 114.843C203.357 112.251 203.857 109.39 203.857 106.279C203.857 103.168 203.357 100.371 202.401 97.7597C201.424 95.1281 200.032 92.866 198.225 90.9584Z" fill="url(#paint0_linear_37_5245)"/>
<path d="M0 249.161C0 244.921 0.71095 241.076 2.13786 237.635C3.56476 234.195 5.55242 231.264 8.10083 228.842C10.6542 226.425 13.6783 224.562 17.183 223.264C20.6826 221.966 24.5128 221.316 28.6633 221.316C32.8139 221.316 36.644 221.966 40.1437 223.264C43.6433 224.562 46.6724 226.42 49.2258 228.842C51.7792 231.259 53.7669 234.19 55.1888 237.635C56.6157 241.076 57.3266 244.921 57.3266 249.161C57.3266 253.4 56.6157 257.245 55.1888 260.686C53.7619 264.126 51.7742 267.058 49.2258 269.48C46.6724 271.897 43.6483 273.759 40.1437 275.052C36.644 276.351 32.8139 277 28.6633 277C24.5128 277 20.6826 276.351 17.183 275.052C13.6783 273.754 10.6542 271.897 8.10083 269.48C5.55242 267.058 3.55976 264.126 2.13786 260.686C0.71095 257.245 0 253.4 0 249.161ZM12.1562 249.161C12.1562 251.657 12.5418 253.94 13.3178 256.007C14.0938 258.079 15.2053 259.872 16.6573 261.395C18.1092 262.918 19.8465 264.102 21.8742 264.95C23.9019 265.799 26.16 266.224 28.6633 266.224C31.1667 266.224 33.4297 265.804 35.4524 264.95C37.4801 264.102 39.2174 262.918 40.6694 261.395C42.1213 259.872 43.2328 258.079 44.0088 256.007C44.7849 253.935 45.1704 251.652 45.1704 249.161C45.1704 246.669 44.7799 244.447 44.0088 242.349C43.2328 240.252 42.1213 238.444 40.6694 236.921C39.2174 235.403 37.4801 234.215 35.4524 233.366C33.4247 232.517 31.1616 232.093 28.6633 232.093C26.165 232.093 23.8969 232.517 21.8742 233.366C19.8465 234.215 18.1092 235.398 16.6573 236.921C15.2053 238.444 14.0938 240.252 13.3178 242.349C12.5418 244.447 12.1562 246.714 12.1562 249.161ZM64.9068 222.665H84.6381C87.3918 222.665 89.9903 222.914 92.4436 223.414C94.8968 223.913 97.0347 224.777 98.8571 225.995C100.685 227.219 102.132 228.867 103.208 230.934C104.284 233.006 104.82 235.613 104.82 238.754C104.82 241.895 104.319 244.442 103.318 246.539C102.317 248.636 100.94 250.304 99.1926 251.553C97.4402 252.801 95.3675 253.685 92.9642 254.209C90.561 254.734 87.9626 254.993 85.1588 254.993H76.6024V275.652H64.8967V222.665H64.9068ZM76.6124 245.121H84.4178C85.4692 245.121 86.4806 245.021 87.4569 244.821C88.4332 244.621 89.3094 244.287 90.0854 243.813C90.8614 243.338 91.4873 242.689 91.9629 241.865C92.4385 241.041 92.6739 240.007 92.6739 238.759C92.6739 237.411 92.3634 236.327 91.7376 235.503C91.1118 234.679 90.3107 234.045 89.3344 233.596C88.3581 233.146 87.2716 232.862 86.07 232.737C84.8684 232.612 83.7169 232.547 82.6204 232.547H76.6174V245.121H76.6124ZM112.255 222.665H148.348V233.441H123.961V243.318H146.996V254.094H123.961V264.871H149.7V275.647H112.255V222.66V222.665ZM158.702 222.665H174.608L197.194 259.487H197.344V222.665H209.049V275.652H193.744L170.558 237.93H170.408V275.652H158.702V222.665ZM241.768 222.665H277.411V233.441H253.474V244.217H275.608V254.993H253.474V275.652H241.768V222.665ZM298.419 222.665H308.097L331.208 275.652H318L313.424 264.426H292.786L288.36 275.652H275.453L298.414 222.665H298.419ZM302.92 238.085L296.466 254.549H309.449L302.92 238.085ZM323.407 222.665H336.765L349.898 257.39H350.048L363.406 222.665H375.937L354.028 275.652H344.651L323.417 222.665H323.407ZM381.56 222.665H417.653V233.441H393.266V243.318H416.301V254.094H393.266V264.871H419.005V275.647H381.56V222.66V222.665Z" fill="url(#paint1_linear_37_5245)"/>
</g>
<defs>
<linearGradient id="paint0_linear_37_5245" x1="140.493" y1="174.297" x2="279.14" y2="35.2913" gradientUnits="userSpaceOnUse">
<stop stop-color="#FFB2B8"/>
<stop offset="0.14" stop-color="#FF7DB8"/>
<stop offset="0.18" stop-color="#FA75BC"/>
<stop offset="0.24" stop-color="#ED62C7"/>
<stop offset="0.31" stop-color="#D842D9"/>
<stop offset="0.38" stop-color="#BB15F2"/>
<stop offset="0.42" stop-color="#AD00FF"/>
<stop offset="0.51" stop-color="#A711FE"/>
<stop offset="0.59" stop-color="#A41BFE"/>
<stop offset="0.62" stop-color="#9A35FC"/>
<stop offset="0.68" stop-color="#8C5DFB"/>
<stop offset="0.74" stop-color="#817EF9"/>
<stop offset="0.8" stop-color="#7897F8"/>
<stop offset="0.86" stop-color="#71A9F7"/>
<stop offset="0.93" stop-color="#6EB4F7"/>
<stop offset="1" stop-color="#6DB8F7"/>
</linearGradient>
<linearGradient id="paint1_linear_37_5245" x1="0" y1="249.161" x2="419" y2="249.161" gradientUnits="userSpaceOnUse">
<stop stop-color="#FFB2B8"/>
<stop offset="0.14" stop-color="#FF7DB8"/>
<stop offset="0.18" stop-color="#FA75BC"/>
<stop offset="0.24" stop-color="#ED62C7"/>
<stop offset="0.31" stop-color="#D842D9"/>
<stop offset="0.38" stop-color="#BB15F2"/>
<stop offset="0.42" stop-color="#AD00FF"/>
<stop offset="0.51" stop-color="#A711FE"/>
<stop offset="0.59" stop-color="#A41BFE"/>
<stop offset="0.62" stop-color="#9A35FC"/>
<stop offset="0.68" stop-color="#8C5DFB"/>
<stop offset="0.74" stop-color="#817EF9"/>
<stop offset="0.8" stop-color="#7897F8"/>
<stop offset="0.86" stop-color="#71A9F7"/>
<stop offset="0.93" stop-color="#6EB4F7"/>
<stop offset="1" stop-color="#6DB8F7"/>
</linearGradient>
<clipPath id="clip0_37_5245">
<rect width="419" height="277" fill="white"/>
</clipPath>
</defs>
</svg>
