<svg width="92" height="68" viewBox="0 0 92 68" fill="none" xmlns="http://www.w3.org/2000/svg">
<path d="M8.78789 52.7188L15.6238 59.5137C16.7449 60.6348 17.702 61.4004 18.4949 61.8105C19.2879 62.2116 20.0809 62.4395 20.8738 62.4941V63H12.0555V62.4941C12.5841 62.4941 12.9624 62.4076 13.1902 62.2344C13.4272 62.0521 13.5457 61.8516 13.5457 61.6328C13.5457 61.4141 13.5001 61.2181 13.409 61.0449C13.327 60.8717 13.0444 60.5482 12.5613 60.0742L6.16289 53.7441V59.7188C6.16289 60.6576 6.22214 61.2773 6.34063 61.5781C6.43177 61.806 6.62318 62.002 6.91484 62.166C7.30677 62.3848 7.72149 62.4941 8.15899 62.4941H8.78789V63H0.885548V62.4941H1.5418C2.30742 62.4941 2.86341 62.2708 3.20977 61.8242C3.42852 61.5326 3.53789 60.8307 3.53789 59.7188V47.7422C3.53789 46.8034 3.47865 46.179 3.36016 45.8691C3.26901 45.6504 3.08216 45.459 2.79961 45.2949C2.39857 45.0762 1.9793 44.9668 1.5418 44.9668H0.885548V44.4609H8.78789V44.9668H8.15899C7.7306 44.9668 7.31589 45.0716 6.91484 45.2812C6.63229 45.4271 6.43633 45.6458 6.32695 45.9375C6.21758 46.2292 6.16289 46.8307 6.16289 47.7422V53.416C6.34518 53.2428 6.96953 52.6641 8.03594 51.6797C10.743 49.2005 12.379 47.5462 12.9441 46.7168C13.1902 46.3522 13.3133 46.0332 13.3133 45.7598C13.3133 45.5501 13.2176 45.3678 13.0262 45.2129C12.8348 45.0488 12.5112 44.9668 12.0555 44.9668H11.6316V44.4609H18.4402V44.9668C18.0392 44.9759 17.6746 45.0306 17.3465 45.1309C17.0184 45.2311 16.6173 45.4271 16.1434 45.7188C15.6694 46.0013 15.0861 46.4616 14.3934 47.0996C14.1928 47.2819 13.2677 48.2161 11.618 49.9023L8.78789 52.7188ZM27.6266 45.4727V52.8008H31.7009C32.7582 52.8008 33.4645 52.6413 33.82 52.3223C34.294 51.903 34.5583 51.1647 34.613 50.1074H35.1188V56.5605H34.613C34.4854 55.6582 34.3578 55.0794 34.2302 54.8242C34.0661 54.5052 33.7972 54.2546 33.4235 54.0723C33.0498 53.89 32.4756 53.7988 31.7009 53.7988H27.6266V59.9102C27.6266 60.7305 27.6631 61.2318 27.736 61.4141C27.8089 61.5872 27.9365 61.7285 28.1188 61.8379C28.3011 61.9382 28.6475 61.9883 29.1579 61.9883H32.3024C33.3506 61.9883 34.1117 61.9154 34.5856 61.7695C35.0596 61.6237 35.5153 61.3366 35.9528 60.9082C36.5179 60.3431 37.0967 59.4909 37.6891 58.3516H38.236L36.6364 63H22.3493V62.4941H23.0055C23.443 62.4941 23.8578 62.3893 24.2497 62.1797C24.5414 62.0339 24.7373 61.8151 24.8376 61.5234C24.947 61.2318 25.0016 60.6348 25.0016 59.7324V47.6875C25.0016 46.5117 24.8832 45.7871 24.6462 45.5137C24.318 45.1491 23.7712 44.9668 23.0055 44.9668H22.3493V44.4609H36.6364L36.8415 48.5215H36.3083C36.1169 47.5462 35.9027 46.8763 35.6657 46.5117C35.4378 46.1471 35.096 45.8691 34.6403 45.6777C34.2757 45.541 33.6332 45.4727 32.7126 45.4727H27.6266ZM48.6529 62.4941V63H40.7095V62.4941H41.3658C42.1314 62.4941 42.6874 62.2708 43.0338 61.8242C43.2525 61.5326 43.3619 60.8307 43.3619 59.7188V47.7422C43.3619 46.8034 43.3026 46.1836 43.1841 45.8828C43.093 45.6549 42.9061 45.459 42.6236 45.2949C42.2226 45.0762 41.8033 44.9668 41.3658 44.9668H40.7095V44.4609H48.6529V44.9668H47.983C47.2265 44.9668 46.675 45.1901 46.3287 45.6367C46.1008 45.9284 45.9869 46.6302 45.9869 47.7422V59.7188C45.9869 60.6576 46.0461 61.2773 46.1646 61.5781C46.2558 61.806 46.4472 62.002 46.7388 62.166C47.1308 62.3848 47.5455 62.4941 47.983 62.4941H48.6529ZM51.5913 55.6855H58.6596V57.75H51.5913V55.6855ZM73.7113 56.793H66.5335L65.2757 59.7188C64.9658 60.4388 64.8109 60.9766 64.8109 61.332C64.8109 61.6146 64.943 61.8652 65.2073 62.084C65.4808 62.2936 66.0641 62.4303 66.9573 62.4941V63H61.1195V62.4941C61.8942 62.3574 62.3955 62.1797 62.6234 61.9609C63.0882 61.5234 63.6032 60.6348 64.1683 59.2949L70.6898 44.0371H71.1683L77.6214 59.459C78.1409 60.6986 78.6103 61.5052 79.0296 61.8789C79.458 62.2435 80.0504 62.4486 80.807 62.4941V63H73.4925V62.4941C74.2308 62.4577 74.7275 62.3346 74.9827 62.125C75.2471 61.9154 75.3792 61.6602 75.3792 61.3594C75.3792 60.9583 75.1969 60.3249 74.8323 59.459L73.7113 56.793ZM73.3284 55.7812L70.1839 48.2891L66.9573 55.7812H73.3284ZM90.8957 62.4941V63H82.9523V62.4941H83.6086C84.3742 62.4941 84.9302 62.2708 85.2766 61.8242C85.4953 61.5326 85.6047 60.8307 85.6047 59.7188V47.7422C85.6047 46.8034 85.5454 46.1836 85.427 45.8828C85.3358 45.6549 85.149 45.459 84.8664 45.2949C84.4654 45.0762 84.0461 44.9668 83.6086 44.9668H82.9523V44.4609H90.8957V44.9668H90.2258C89.4693 44.9668 88.9178 45.1901 88.5715 45.6367C88.3436 45.9284 88.2297 46.6302 88.2297 47.7422V59.7188C88.2297 60.6576 88.2889 61.2773 88.4074 61.5781C88.4986 61.806 88.69 62.002 88.9816 62.166C89.3736 62.3848 89.7883 62.4941 90.2258 62.4941H90.8957Z" fill="white"/>
<path d="M89.8276 16.0743V16.2183C89.8276 17.086 89.3478 17.6618 88.3362 17.6618C87.2286 17.6618 86.073 17.4218 84.9214 17.4218C83.8618 17.4218 82.8022 17.4698 81.7945 17.6618C82.6142 17.038 83.334 16.2183 83.8138 15.2546C82.6582 14.2909 80.2991 13.8111 78.8556 13.8111C70.1467 13.8111 64.6607 16.89 56.7195 19.2972C56.8155 20.0209 56.9594 20.7407 56.9594 21.4164C56.9594 23.3398 55.8518 26.3267 54.4563 27.6742C53.2527 27.6742 52.9648 26.0868 52.9648 25.1231C52.9648 23.6316 53.8805 22.1402 54.2644 20.6967C54.5043 19.829 54.5523 18.9173 54.5523 18.0016C54.5523 17.2779 54.5043 16.6061 54.4563 15.9824C55.324 16.3662 56.2357 16.994 56.4276 18.0016C59.9423 16.2703 63.597 14.8268 67.3997 13.7192C66.3401 12.1317 67.0638 9.82053 65.8122 8.23309C66.7759 8.37704 67.9795 8.61695 68.7472 9.29272C69.4669 9.24473 70.0947 8.86087 70.6705 8.47301C69.8028 10.0125 69.0351 11.5999 68.2634 13.1873C69.5629 12.7555 70.8624 12.3676 72.162 12.1277C74.1333 10.8282 75.8207 9.19275 77.1682 7.26943L75.8207 5.58603C76.4444 5.15418 77.1682 4.86228 77.9879 4.76632C79.4314 5.49006 81.2587 4.71833 81.9345 6.83358C79.7672 8.70892 77.0722 9.86451 75.1489 11.9838C76.5924 11.8398 78.0359 11.7438 79.4793 11.7438C82.9461 11.7438 87.8044 12.5156 89.8276 15.7384V16.0743ZM76.6883 28.8258C76.3525 30.3653 74.813 31.7608 74.2812 33.928C77.9879 36.1912 88.6681 39.3181 90.6913 41.8692C89.0559 42.5929 87.2766 43.1687 85.4452 43.1687C80.6829 43.1687 76.3005 39.8019 72.7418 36.915C70.2866 39.514 67.6396 41.4853 63.8889 41.4853C62.3975 41.4853 60.7141 41.1495 59.7504 39.8979C60.0863 39.9459 60.4742 39.9459 60.858 39.9459C64.6127 39.9459 68.4633 38.1665 70.7225 35.1836C69.5189 33.4522 67.6916 32.2486 65.8122 31.3329C63.745 34.6038 60.998 37.3468 58.3549 40.0898C57.4392 41.0535 55.7558 43.1687 54.3124 43.1687C54.1204 42.7369 54.0245 42.2531 54.0245 41.7732C54.0245 39.8499 55.276 37.9226 56.5276 36.5271L56.4316 38.6463C59.5105 36.2392 61.6297 33.0643 64.4207 30.4652L63.3611 29.6455L65.2364 29.4536L66.584 26.9025L65.6683 26.3267C66.1001 25.6509 66.6799 25.0272 67.4477 24.6913C66.1961 23.1998 64.8486 21.1285 64.8486 19.1572C64.8486 18.9173 64.8966 18.7254 64.8966 18.5334C68.1674 22.0482 69.275 25.0791 74.7131 25.0791H74.953C76.0126 25.0791 78.3677 25.0312 78.3677 24.1155C78.3677 22.624 74.853 19.5931 73.8454 18.7254C73.7494 18.6774 73.6534 18.6774 73.6054 18.6774C72.5458 18.6774 72.3539 21.9482 71.5382 22.672C69.9028 22.2881 69.275 19.6411 69.0831 18.2456L69.9987 18.9693C72.6938 18.9693 73.4655 16.4182 77.4081 16.4182C78.9475 16.4182 80.7269 17.2379 80.7269 18.9693C80.439 19.3532 80.0551 19.5451 79.5713 19.5451C77.9359 19.5451 76.3965 18.3415 74.7091 18.2456C76.4404 21.6124 81.1587 21.8563 82.8901 24.5993C82.9381 24.7433 82.9381 24.9352 82.9381 25.0791C82.9381 27.4383 79.7153 27.8701 77.9319 27.8701C77.3081 27.8701 76.6803 27.8222 76.0566 27.7262L76.6803 28.8338L76.6883 28.8258ZM61.7217 11.356C61.9136 11.9798 62.0576 12.6075 62.0576 13.2793C62.0576 14.147 61.7697 14.8667 60.95 15.2026C59.8424 13.7591 59.5545 11.7878 58.4469 10.3923C59.5545 10.3923 60.854 10.5363 61.7177 11.356H61.7217ZM59.9423 23.9155C59.9423 22.664 60.2782 21.2205 60.5181 20.0169C61.5778 21.3165 62.8773 23.3837 62.8773 25.1191C62.8773 26.0348 62.3975 27.1864 61.4338 27.3343C60.4702 26.5626 59.9423 25.1191 59.9423 23.9195V23.9155ZM68.9431 1.05963C69.4229 0.579795 70.0507 0.143949 70.7225 0C71.6382 0.143949 72.4059 0.287898 73.3216 0.287898C74.3812 0.287898 75.0049 1.10761 75.3408 2.01929C73.8973 3.46278 72.9817 2.88698 71.4902 3.65471C70.6705 4.03857 69.9508 4.61837 69.179 5.0982C66.8679 6.58967 64.7046 7.60131 62.0576 8.27308C64.6087 6.25379 67.1598 4.18252 69.323 1.77537L68.9391 1.05163L68.9431 1.05963ZM72.9817 29.3056C72.3579 29.3056 71.7781 29.1137 71.2503 28.7778C71.8741 28.6339 72.2619 28.154 72.4059 27.5263C71.4422 27.2384 70.5306 26.8025 69.6629 26.3227C68.9431 27.7182 67.5956 28.6819 66.9678 30.1733C68.6032 31.137 70.7225 31.6168 72.118 32.8684C72.8417 31.6168 73.5135 30.3653 74.1373 29.0657C73.7534 29.2097 73.3655 29.3056 72.9817 29.3056Z" fill="white"/>
<path d="M0.582216 31.6106L0 32.2006L0.782715 31.9268C4.75798 30.5385 8.64842 26.4583 11.4901 23.4773L11.625 23.3346C12.5196 22.355 13.63 21.1364 14.7983 20.2995L14.9371 20.1992L14.8562 20.0488C14.22 18.8803 12.7972 18.8803 11.8564 18.8803C11.7176 18.8803 11.5672 18.8919 11.413 18.9035C11.2549 18.915 11.093 18.9266 10.9272 18.9266H10.8462L10.7884 18.9845C10.449 19.3238 9.56223 19.5938 8.14717 19.7866C8.40936 19.5398 8.6677 19.293 8.92989 19.0423C9.9131 18.1052 10.9272 17.1372 11.9798 16.2502C12.3461 15.9301 12.7432 15.6255 13.1288 15.3324C13.5182 15.0354 13.9231 14.723 14.3086 14.3875L14.3935 14.3027C14.6171 14.0867 14.8677 13.8399 14.9641 13.462L14.9988 13.327L14.8793 13.2537C13.846 12.6135 12.589 12.4824 11.4901 12.4361H11.4515L11.4168 12.4477C10.1753 12.8873 8.91061 13.1226 7.43772 13.3116C8.79108 11.4643 10.5146 9.97569 12.1841 8.53336C13.4218 7.46512 14.7058 6.3583 15.8471 5.10109L15.8972 5.0471V4.78871C15.8972 3.2384 13.8768 2.95302 12.5389 2.7602C12.2728 2.72163 12.0338 2.68693 11.8448 2.64836L11.7793 2.63293L10.0365 3.47751L10.8269 4.26809C9.13424 7.77364 6.12677 10.9205 3.68994 13.2768C3.4586 13.4967 3.21568 13.7203 2.96892 13.9402C2.2826 14.5649 1.57314 15.2128 0.987069 15.934C0.647764 16.3158 0.242911 16.9212 0.242911 17.6385C0.242911 18.0782 0.4704 18.4715 0.852118 18.6875L0.952367 18.7454L1.75436 18.2247C4.67315 16.3158 6.08821 15.3941 9.76658 15.0123C7.54568 16.8865 5.50214 18.942 3.59355 20.8934L3.55885 20.9281L3.51643 21.0785C3.43161 21.3678 3.35449 21.6377 3.35449 21.954C3.35449 22.5363 3.55885 23.1379 3.94827 23.6894L4.06395 23.8513L4.22203 23.7318C5.70264 22.6211 7.41458 22.0234 9.14581 22.0041C8.14332 23.1225 7.15239 24.2717 6.19617 25.3824C4.40325 27.461 2.54864 29.6129 0.582216 31.6106Z" fill="white"/>
<path d="M6.7514 30.1143C6.41209 30.1143 6.07664 30.1606 5.79132 30.2107L5.49057 30.2608L5.66408 30.5115C6.07664 31.1054 6.30799 31.8921 6.52777 32.6519C6.96732 34.152 7.4223 35.6985 9.30004 35.6985H9.90925V35.5057C9.90925 32.9951 10.3912 30.4267 10.9272 27.7927L11.0891 26.9905L8.3631 30.4806C7.86571 30.2377 7.32205 30.1143 6.74754 30.1143H6.7514Z" fill="white"/>
<path d="M1.13744 33.9669C0.933088 33.9669 0.686321 33.9978 0.358583 34.0633L0.127239 34.1096L0.219776 34.3256C0.443409 34.8616 0.601494 35.5057 0.771147 36.1883C1.21456 37.9892 1.71966 40.0293 3.65524 40.4265L3.78633 40.4535L4.43795 39.42V39.3737C4.48808 38.9148 4.5382 38.4404 4.5382 37.9622C4.5382 35.9723 3.48944 33.9631 1.14515 33.9631L1.13744 33.9669Z" fill="white"/>
<path d="M39.0856 12.8681C38.5497 12.7022 37.9983 12.5287 37.5665 12.2742L37.4855 12.2472C36.5254 12.1546 35.4921 12.1083 34.4973 12.1083C32.7391 12.1083 31.0117 12.2703 29.3576 12.5942C30.4063 10.3768 31.7481 8.4331 33.1632 6.37759C33.5873 5.7644 34.0115 5.14737 34.4279 4.51876L34.4896 4.4262L34.4433 4.32593C33.9343 3.2654 32.5925 3.088 31.6093 2.95688L31.2623 2.9106L31.2045 2.94145C29.3576 3.98656 27.0711 4.88898 24.4068 5.62943L23.1267 4.15239L22.9802 4.33365C22.2746 5.21678 21.916 6.11535 21.916 7.00619C21.916 7.83534 21.916 9.38179 23.2694 9.38179H23.5855L23.6434 9.32009C25.151 7.68879 27.6186 7.07561 29.7971 6.5357C29.9205 6.50485 30.0401 6.474 30.1596 6.447C29.4463 8.23641 26.967 11.5916 25.8412 13.0609L25.606 13.1342C22.3054 14.1831 16.1594 16.1345 16.1594 20.4653C16.1594 20.9513 16.3213 21.5722 16.6684 21.9809L14.1236 25.5058L11.4361 25.286L11.8063 25.6562C12.7741 26.6242 12.9707 27.7155 13.1481 28.6758C13.3678 29.8752 13.5568 30.9087 15.1723 31.0476L15.288 31.0591L15.3497 30.9589C15.6851 30.4305 16.0283 29.7942 16.0283 29.0923C16.0283 28.6797 15.9435 28.267 15.8625 27.8698C15.7815 27.4726 15.7044 27.0985 15.7044 26.7244C15.7044 25.4055 16.0784 24.1444 16.4409 22.9258L16.7108 22.0195C16.9151 22.2393 17.1735 22.3936 17.5012 22.4129H17.5436L17.5822 22.4013C21.1487 20.9821 24.4184 18.46 27.8693 14.4608C29.5966 14.0983 31.0965 13.9209 32.4537 13.9209C34.3315 13.9209 35.7273 14.2024 36.6025 14.7616C35.5422 16.4816 33.6722 17.8622 30.9037 18.9883C30.2251 18.5255 29.0183 18.4407 27.85 18.3597C27.2408 18.3173 26.6624 18.2787 26.2267 18.1823L26.0956 18.1553L25.4671 19.1618L27.0711 20.3766C27.1097 20.8973 27.1097 21.4295 27.1097 21.9462C27.1097 22.8062 27.0557 23.5621 26.9439 24.1869C24.8309 25.3361 22.4288 26.1421 19.7992 26.5817L19.4908 26.6319L19.6758 26.8864C20.2349 27.6423 21.3454 27.7387 22.425 27.8312C22.9956 27.8814 23.5354 27.9277 23.9441 28.0703L23.9865 28.0858L25.8296 27.8158C23.6742 30.9087 19.271 35.0313 16.0476 36.2924L16.0052 36.3078L15.9743 36.3425C15.5618 36.8053 15.5078 37.4416 15.5078 38.0008C15.5078 38.4173 15.5772 39.1809 16.0399 39.5858L16.1363 39.6668L16.2519 39.6128C20.6089 37.5804 25.3399 35.5944 31.0194 35.5944C31.806 35.5944 32.6041 35.6406 33.3676 35.6869C34.9253 35.8257 36.5061 36.1034 38.06 36.5161C38.2875 36.5855 38.5227 36.6703 38.7617 36.7552C39.1473 36.894 39.5483 37.0367 39.93 37.1254H40.25C41.079 37.1292 41.4646 36.7436 41.4646 35.9183C41.4646 33.1416 36.7143 31.9654 34.8212 31.9654C34.5127 31.9654 34.1657 32.0425 33.8302 32.1158C33.5796 32.1736 33.3406 32.2238 33.1246 32.2431C31.86 32.4166 30.5683 32.4706 29.3113 32.513C29.319 32.1197 29.319 31.7494 29.319 31.3946C29.319 28.7645 29.3267 27.1795 32.3034 25.7873C32.901 25.5096 33.6452 25.1664 34.1117 24.4915C34.1773 24.3565 34.1773 24.2756 34.1773 24.1714C34.1773 22.9913 31.7559 22.9566 31.4782 22.9566C31.0811 22.9566 30.7032 22.9566 30.2984 22.9875C30.2791 22.7985 30.2791 22.6173 30.2791 22.4052C30.2791 21.7187 30.549 21.2791 31.0772 21.1017L31.1852 21.067L31.4166 19.7326C33.9035 19.1657 38.4147 17.9663 41.6458 16.1191L41.7306 16.0728L41.7923 15.583V15.3979C41.7923 13.7011 40.3541 13.2537 39.0856 12.8565V12.8681ZM24.0906 15.3863C22.8452 17.1449 20.8403 18.6451 18.8276 19.3045C18.762 19.1464 18.7312 19.0114 18.7312 18.8919C18.7312 16.8518 22.2592 15.8376 24.0906 15.3902V15.3863ZM26.6316 30.3688C26.593 31.2172 26.5468 32.0888 26.4349 32.9835C25.2474 33.3036 24.0752 33.7278 22.9416 34.1366C21.9044 34.5107 20.8403 34.8963 19.7645 35.201C20.821 34.449 21.8929 33.7008 22.9378 32.9719C24.1523 32.1235 25.4093 31.2481 26.6316 30.3727V30.3688Z" fill="white"/>
</svg>
