<svg width="230" height="36" viewBox="0 0 230 36" fill="none" xmlns="http://www.w3.org/2000/svg">
<g clip-path="url(#clip0_61_1333)">
<path d="M75.5074 23.3119H71.8921V4.15558H64.9451V2.3038H82.5253V4.15558H75.5074V23.3119Z" fill="#18539E"/>
<path fill-rule="evenodd" clip-rule="evenodd" d="M64.3116 1.73334H83.1584V4.72593H76.1405V23.8823H71.2587V4.72593H64.3116V1.73334ZM65.5781 2.87416V3.58511H72.5252V22.7414H74.874V3.58511H81.8919V2.87416H65.5781Z" fill="#18539E"/>
<path d="M86.1389 23.3119V2.3038H100.813V4.15558H89.8251V11.3073H99.395V13.1591H89.8251V21.3963H101.167V23.3119H86.1389Z" fill="#18539E"/>
<path fill-rule="evenodd" clip-rule="evenodd" d="M85.5055 1.73334H101.446V4.72593H90.4582V10.7368H100.028V13.7294H90.4582V20.8258H101.8V23.8823H85.5055V1.73334ZM86.772 2.87416V22.7414H100.534V21.9666H89.1917V12.5886H98.7616V11.8776H89.1917V3.58511H100.179V2.87416H86.772Z" fill="#18539E"/>
<path d="M105.351 23.3119V2.3038H108.966V21.4601H118.82V23.3758H105.351V23.3119Z" fill="#18539E"/>
<path fill-rule="evenodd" clip-rule="evenodd" d="M104.718 1.73334H109.6V20.8897H119.453V23.9461H104.718V1.73334ZM105.984 2.87416V22.8053H118.187V22.0305H108.333V2.87416H105.984Z" fill="#18539E"/>
<path d="M123.57 23.3119V2.3038H138.244V4.15558H127.256V11.3073H136.826V13.1591H127.256V21.3963H138.598V23.3119H123.57Z" fill="#18539E"/>
<path fill-rule="evenodd" clip-rule="evenodd" d="M122.936 1.73334H138.876V4.72593H127.889V10.7368H137.459V13.7294H127.889V20.8258H139.231V23.8823H122.936V1.73334ZM124.203 2.87416V22.7414H137.964V21.9666H126.622V12.5886H136.192V11.8776H126.622V3.58511H137.61V2.87416H124.203Z" fill="#18539E"/>
<path d="M156.745 13.9897C155.115 14.9475 152.846 15.4584 150.153 15.4584C148.735 15.4584 147.53 15.3945 146.466 15.2029V23.3763H142.851V2.43205C145.261 2.24049 147.742 2.17664 150.365 2.17664C154.122 2.17664 156.816 3.13446 158.305 4.60312C159.368 5.62479 160.006 6.83801 160.006 8.49822C159.864 11.0524 158.517 12.9042 156.745 13.9897ZM149.444 4.15613C148.38 4.15613 147.459 4.15613 146.396 4.28384V13.2873C147.459 13.415 148.664 13.4789 149.798 13.4789C153.697 13.3512 156.107 11.8187 156.107 8.56208C156.107 5.3055 152.917 4.15613 149.444 4.15613Z" fill="#18539E"/>
<path fill-rule="evenodd" clip-rule="evenodd" d="M143.484 2.95683V22.8058H145.833V14.5071L146.59 14.6435C147.594 14.8243 148.751 14.8879 150.152 14.8879C152.764 14.8879 154.898 14.392 156.394 13.5149C157.998 12.5302 159.237 10.8473 159.373 8.48397C159.369 6.98785 158.802 5.91513 157.843 4.99319L157.837 4.98771C156.511 3.67989 154.02 2.74699 150.365 2.74699C147.963 2.74699 145.689 2.80079 143.484 2.95683ZM142.795 1.86379C145.23 1.67024 147.732 1.60617 150.365 1.60617C154.222 1.60617 157.117 2.58783 158.769 4.21564C159.932 5.33359 160.639 6.68273 160.639 8.49817V8.51242L160.638 8.52665C160.486 11.2617 159.035 13.2765 157.101 14.4613L157.091 14.4675C155.326 15.5041 152.925 16.0287 150.152 16.0287C149.032 16.0287 148.023 15.9896 147.099 15.8761V23.9467H142.218V1.9097L142.795 1.86379ZM149.427 3.58566H149.444C151.241 3.58566 153.042 3.8807 154.414 4.65432C155.825 5.4499 156.74 6.73141 156.74 8.56203C156.74 10.3286 156.079 11.701 154.816 12.6346C153.578 13.5504 151.844 13.9826 149.821 14.0489L149.809 14.0492H149.798C148.64 14.0492 147.407 13.9842 146.312 13.8527L145.762 13.7867V3.78439L146.312 3.71838C147.417 3.58566 148.374 3.58566 149.427 3.58566ZM147.029 4.79338V12.7809C147.914 12.8653 148.872 12.9081 149.786 12.9084C151.656 12.8457 153.073 12.448 154.013 11.7529C154.93 11.0742 155.474 10.0521 155.474 8.56203C155.474 7.13607 154.794 6.21459 153.742 5.62135C152.651 5.00613 151.119 4.72648 149.444 4.72648C148.573 4.72648 147.826 4.72695 147.029 4.79338Z" fill="#18539E"/>
<path d="M175.462 23.8228C167.452 23.8228 164.474 18.2675 164.474 12.6483C164.474 7.09295 168.232 1.79303 175.817 1.79303C183.685 1.79303 186.875 7.09295 186.875 12.6483C186.875 18.2675 183.543 23.8228 175.462 23.8228ZM175.533 3.70866C170.713 3.70866 168.232 7.98692 168.232 12.776C168.232 17.5651 170.925 21.8433 175.817 21.8433C180.708 21.8433 183.047 17.6289 183.047 12.776C183.047 7.98692 180.424 3.70866 175.533 3.70866Z" fill="#18539E"/>
<path fill-rule="evenodd" clip-rule="evenodd" d="M167.785 5.50475C166.011 7.40376 165.108 9.98014 165.108 12.6483C165.108 15.3786 165.833 18.0379 167.47 19.9999C169.088 21.9378 171.642 23.2524 175.462 23.2524C179.322 23.2524 181.988 21.9342 183.703 19.9881C185.435 18.023 186.242 15.3656 186.242 12.6483C186.242 9.95944 185.469 7.3833 183.801 5.49221C182.15 3.62054 179.575 2.36342 175.816 2.36342C172.204 2.36342 169.548 3.61862 167.785 5.50475ZM166.817 4.77001C168.829 2.61735 171.844 1.2226 175.816 1.2226C179.927 1.2226 182.881 2.61543 184.792 4.78256C186.686 6.93026 187.508 9.78175 187.508 12.6483C187.508 15.5501 186.649 18.48 184.695 20.6974C182.724 22.9337 179.683 24.3932 175.462 24.3932C171.272 24.3932 168.332 22.9301 166.458 20.6855C164.605 18.4651 163.841 15.5371 163.841 12.6483C163.841 9.76105 164.817 6.9098 166.817 4.77001ZM169.546 6.1321C170.869 4.32789 172.88 3.13823 175.533 3.13823C178.215 3.13823 180.278 4.32226 181.647 6.1243C183.003 7.90972 183.68 10.2969 183.68 12.776C183.68 15.2738 183.08 17.6594 181.797 19.44C180.498 21.2435 178.5 22.4137 175.816 22.4137C173.136 22.4137 171.056 21.2309 169.669 19.4307C168.295 17.6459 167.598 15.258 167.598 12.776C167.598 10.3028 168.237 7.91782 169.546 6.1321ZM170.603 6.7607C169.466 8.31138 168.865 10.4601 168.865 12.776C168.865 15.083 169.515 17.2288 170.71 18.7804C171.893 20.3166 173.606 21.2729 175.816 21.2729C178.024 21.2729 179.642 20.3359 180.735 18.819C181.844 17.2791 182.414 15.1311 182.414 12.776C182.414 10.466 181.78 8.31948 180.602 6.7685C179.436 5.23415 177.742 4.27905 175.533 4.27905C173.365 4.27905 171.726 5.22852 170.603 6.7607Z" fill="#18539E"/>
<path d="M200.481 13.8614H196.015V23.3757H192.399V2.49531C195.093 2.30375 197.645 2.2399 200.41 2.2399C203.671 2.2399 205.726 2.62303 207.357 3.96398C208.42 4.79408 209.2 5.94345 209.2 7.60367C209.2 11.0518 206.719 13.159 203.812 13.4783L209.838 23.3119H205.797L200.481 13.8614ZM200.622 4.09167C199.134 4.02782 197.574 4.09169 196.015 4.28325V11.9458H200.693C204.096 11.9458 205.514 10.8603 205.514 8.05066C205.514 5.0495 203.316 4.28324 200.622 4.09167Z" fill="#18539E"/>
<path fill-rule="evenodd" clip-rule="evenodd" d="M193.034 3.0246V22.8056H195.382V13.2913H200.871L206.187 22.7417H208.766L202.806 13.0146L203.737 12.9123C206.327 12.6278 208.568 10.7623 208.568 7.60395C208.568 6.13338 207.889 5.13401 206.943 4.39531L206.931 4.38564C205.483 3.1947 203.634 2.81059 200.411 2.81059C197.858 2.81059 195.494 2.86523 193.034 3.0246ZM192.35 1.92695C195.065 1.73389 197.635 1.66977 200.411 1.66977C203.706 1.66977 205.967 2.05122 207.779 3.53805C208.956 4.45927 209.834 5.75732 209.834 7.60395C209.834 10.9882 207.603 13.2338 204.789 13.8912L210.912 23.8826H205.409L200.093 14.4321H196.649V23.9464H191.767V1.96844L192.35 1.92695ZM195.93 3.71835C197.526 3.52229 199.125 3.45661 200.653 3.52219L200.663 3.52261L200.673 3.52331C202.049 3.62118 203.422 3.87006 204.456 4.55933C205.535 5.27894 206.148 6.40879 206.148 8.05094C206.148 9.52904 205.776 10.7001 204.8 11.479C203.844 12.2424 202.444 12.5165 200.694 12.5165H195.382V3.78562L195.93 3.71835ZM196.649 4.7868V11.3757H200.694C202.347 11.3757 203.357 11.107 203.96 10.6252C204.544 10.1589 204.881 9.38243 204.881 8.05094C204.881 6.69193 204.395 5.93807 203.702 5.47637C202.966 4.98555 201.896 4.75544 200.583 4.6613C199.312 4.60726 197.984 4.64891 196.649 4.7868Z" fill="#18539E"/>
<path d="M222.389 23.3119H218.773V4.15558H211.826V2.3038H229.407V4.15558H222.389V23.3119Z" fill="#18539E"/>
<path fill-rule="evenodd" clip-rule="evenodd" d="M211.193 1.73334H230.04V4.72593H223.022V23.8823H218.14V4.72593H211.193V1.73334ZM212.459 2.87416V3.58511H219.406V22.7414H221.755V3.58511H228.773V2.87416H212.459Z" fill="#18539E"/>
<path d="M142.616 33.8562V27.4479H147.114V28.0003H143.72V30.1733H146.664V30.7257H143.72V33.2301H147.195V33.8194H142.616V33.8562Z" fill="#4FBCEC"/>
<path fill-rule="evenodd" clip-rule="evenodd" d="M142.362 27.2198H147.366V28.2286H143.972V29.9452H146.916V30.954H143.972V33.0021H147.448V34.0477H142.615V33.8563H142.362V27.2198ZM142.869 33.5913V27.6761H146.859V27.7723H143.466V30.4015H146.41V30.4976H143.466V33.4584H146.941V33.5913H142.869Z" fill="#4FBCEC"/>
<path d="M156.923 32.2357C156.678 31.9043 156.392 31.4991 156.146 31.1677H156.064C155.819 31.536 155.533 31.9411 155.328 32.2726L154.184 33.893H153.121L155.574 30.6152L153.202 27.4479H154.388L155.533 29.0316C155.778 29.363 156.024 29.6945 156.187 30.0628H156.269C156.473 29.7681 156.759 29.363 156.964 29.0684L158.109 27.4479H159.213L156.759 30.5416L159.294 33.8562H158.109L156.923 32.2357Z" fill="#4FBCEC"/>
<path fill-rule="evenodd" clip-rule="evenodd" d="M152.726 27.2198H154.526L155.745 28.9061L155.751 28.9142C155.923 29.1467 156.103 29.3907 156.256 29.6534C156.304 29.5848 156.353 29.5145 156.402 29.4442C156.525 29.2691 156.647 29.0943 156.749 28.9476L156.75 28.946L157.97 27.2198H159.705L157.069 30.544L159.777 34.0845H157.972L156.712 32.3624C156.712 32.3622 156.713 32.3626 156.712 32.3624C156.589 32.1957 156.455 32.0103 156.323 31.8268C156.252 31.7289 156.181 31.6307 156.113 31.5362C156.083 31.5807 156.052 31.6252 156.022 31.6695C155.851 31.9205 155.684 32.1666 155.55 32.3835L155.543 32.3954L154.323 34.1213H152.645L155.268 30.6154L152.726 27.2198ZM153.679 27.6761L155.879 30.6153L153.597 33.665H154.045L155.111 32.1559C155.249 31.9321 155.425 31.673 155.598 31.4189C155.684 31.2932 155.769 31.1687 155.847 31.0504L155.921 30.9396H156.282L156.357 31.0412C156.481 31.208 156.614 31.3931 156.747 31.5767C156.88 31.7611 157.012 31.9448 157.134 32.1093L157.135 32.1103L158.245 33.6282H158.813L156.45 30.5393L158.721 27.6761H158.248L157.179 29.1894C157.179 29.1897 157.179 29.1891 157.179 29.1894C157.076 29.337 156.953 29.5127 156.831 29.6871C156.708 29.8622 156.586 30.037 156.484 30.1838L156.409 30.291H156.016L155.952 30.1476C155.8 29.8051 155.57 29.4931 155.322 29.1582L155.321 29.1562L154.251 27.6761H153.679Z" fill="#4FBCEC"/>
<path d="M168.726 27.9263C167.172 28.0368 166.681 29.3627 166.681 30.6517C166.681 31.4988 166.886 33.2298 168.766 33.3771C169.789 33.4508 170.484 33.0825 170.933 32.7878V33.5613C170.606 33.7822 169.502 34.04 168.562 33.9664C166.354 33.8559 165.496 32.2722 165.536 30.6149C165.577 28.6998 166.64 27.2634 168.848 27.2634C169.829 27.2634 170.525 27.4844 170.974 27.7054V28.5524C170.484 28.1841 169.543 27.8527 168.726 27.9263Z" fill="#4FBCEC"/>
<path fill-rule="evenodd" clip-rule="evenodd" d="M166.575 28.3661C166.075 28.913 165.809 29.6954 165.789 30.6194C165.769 31.4148 165.967 32.1731 166.412 32.7388C166.851 33.2964 167.545 33.6871 168.575 33.7387L168.583 33.7391C169.023 33.7735 169.508 33.7306 169.925 33.6512C170.132 33.6116 170.318 33.5638 170.469 33.514C170.555 33.4857 170.625 33.4583 170.679 33.4334V33.2098C170.215 33.4512 169.58 33.6648 168.746 33.6046L168.744 33.6045C167.697 33.5225 167.105 32.9898 166.788 32.3728C166.478 31.7703 166.427 31.0857 166.427 30.6518C166.427 29.9866 166.553 29.2889 166.899 28.7351C167.253 28.1702 167.834 27.7616 168.702 27.6992C169.399 27.6371 170.164 27.8399 170.72 28.1228V27.8445C170.304 27.6621 169.69 27.4917 168.847 27.4917C167.811 27.4917 167.068 27.826 166.575 28.3661ZM166.183 28.0761C166.784 27.4192 167.676 27.0353 168.847 27.0353C169.873 27.0353 170.61 27.2667 171.095 27.5052L171.227 27.57V29.0397L170.811 28.7278C170.366 28.3935 169.492 28.0867 168.75 28.1535L168.745 28.1539C168.061 28.2026 167.621 28.5119 167.341 28.9592C167.053 29.4183 166.934 30.028 166.934 30.6518C166.934 31.065 166.985 31.6695 167.248 32.1811C167.503 32.6779 167.953 33.0843 168.787 33.1498C169.722 33.217 170.357 32.8831 170.784 32.6034L171.186 32.3399V33.6754L171.085 33.7439C170.974 33.8189 170.816 33.8856 170.643 33.9425C170.466 34.0009 170.256 34.0543 170.029 34.0976C169.578 34.1837 169.043 34.2328 168.543 34.1941C167.368 34.1344 166.53 33.6782 165.999 33.0028C165.473 32.3348 165.261 31.4721 165.282 30.6103C165.304 29.6193 165.59 28.726 166.183 28.0761Z" fill="#4FBCEC"/>
<path d="M181.697 30.7624H178.099V33.8929H176.995V27.4846H178.099V30.21H181.697V27.4846H182.801V33.8929H181.697V30.7624Z" fill="#4FBCEC"/>
<path fill-rule="evenodd" clip-rule="evenodd" d="M176.741 27.2563H178.352V29.9816H181.443V27.2563H183.053V34.1209H181.443V30.9904H178.352V34.1209H176.741V27.2563ZM177.248 27.7126V33.6646H177.845V30.5341H181.95V33.6646H182.547V27.7126H181.95V30.438H177.845V27.7126H177.248Z" fill="#4FBCEC"/>
<path d="M193.239 31.9043H190.295L189.518 33.8562H188.455L191.235 27.4479H192.503L195.324 33.8562H194.057L193.239 31.9043ZM191.808 28.2581H191.726C191.603 28.6264 191.44 28.9947 191.276 29.3262L190.54 31.3518H193.034L192.176 29.2157C192.012 28.8842 191.89 28.5896 191.808 28.2581Z" fill="#4FBCEC"/>
<path fill-rule="evenodd" clip-rule="evenodd" d="M191.062 27.2198H192.675L195.697 34.0845H193.881L193.064 32.1325H190.473L189.696 34.0845H188.084L191.062 27.2198ZM191.408 27.6761L188.826 33.6282H189.34L190.117 31.6762H193.414L194.232 33.6282H194.951L192.331 27.6761H191.408ZM191.538 28.0301H192.011L192.055 28.2087C192.132 28.5198 192.247 28.7991 192.407 29.1231L192.411 29.1305L193.396 31.5801H190.191L191.04 29.2443L191.045 29.2336C191.206 28.9072 191.365 28.5485 191.483 28.1927L191.538 28.0301ZM191.753 28.8886C191.676 29.0686 191.594 29.2433 191.513 29.4083L190.89 31.1238H192.673L191.941 29.301C191.871 29.1603 191.809 29.0245 191.753 28.8886Z" fill="#4FBCEC"/>
<path d="M201.811 28.4423H201.77V33.8562H200.871V27.4479H202.179C203.447 29.2157 205.082 31.6096 205.859 32.7513H205.941V27.4479H206.84V33.8562H205.45C204.428 32.4199 202.956 30.2469 201.811 28.4423Z" fill="#4FBCEC"/>
<path fill-rule="evenodd" clip-rule="evenodd" d="M200.618 27.2198H202.318L202.392 27.3242C203.478 28.8384 204.833 30.8103 205.688 32.0636V27.2198H207.094V34.0845H205.312L205.237 33.9795C204.338 32.7154 203.091 30.8831 202.024 29.2308V34.0845H200.618V27.2198ZM201.125 27.6761V33.6282H201.517V28.2142H201.959L202.032 28.3292C203.147 30.0868 204.573 32.1954 205.589 33.6282H206.587V27.6761H206.194V32.9796H205.718L205.643 32.8707C204.882 31.7512 203.296 29.4302 202.042 27.6761H201.125Z" fill="#4FBCEC"/>
<path d="M213.518 30.7622C213.518 32.3827 214.254 33.3403 215.971 33.3771C216.584 33.3771 217.198 33.3403 217.525 33.1561V31.1673H215.971V30.6517H218.547V33.4508C218.138 33.7822 216.871 33.9664 216.053 34.0032C214.785 34.04 213.968 33.8191 213.395 33.3034C212.7 32.7142 212.332 31.8671 212.332 30.799C212.332 29.8783 212.618 28.9207 213.273 28.2578C213.845 27.7054 214.785 27.2634 216.053 27.2634C217.034 27.2634 217.934 27.4844 218.383 27.7054V28.5524C217.934 28.1841 216.952 27.8895 216.135 27.8895C214.213 27.9263 213.518 29.2522 213.518 30.7622Z" fill="#4FBCEC"/>
<path fill-rule="evenodd" clip-rule="evenodd" d="M213.459 28.4116C212.86 29.0198 212.585 29.9152 212.585 30.7991C212.585 31.8184 212.934 32.6 213.568 33.1374L213.574 33.1421C214.075 33.5939 214.809 33.8109 216.042 33.7753C216.438 33.7574 216.944 33.7036 217.399 33.6146C217.626 33.5701 217.835 33.5177 218.009 33.4585C218.129 33.4176 218.223 33.3764 218.293 33.337V30.88H216.223V30.9393H217.777V33.2827L217.658 33.3497C217.448 33.4681 217.169 33.5285 216.888 33.562C216.6 33.5961 216.281 33.6054 215.97 33.6054H215.964C215.052 33.5858 214.359 33.3185 213.902 32.8066C213.453 32.3029 213.264 31.5983 213.264 30.7623C213.264 29.9809 213.443 29.2189 213.898 28.6414C214.363 28.0527 215.094 27.6813 216.128 27.6615L216.134 27.6614C216.574 27.6614 217.05 27.7402 217.475 27.8662C217.707 27.935 217.931 28.02 218.129 28.1182V27.8469C217.687 27.6666 216.907 27.4917 216.052 27.4917C214.854 27.4917 213.982 27.9075 213.459 28.4116ZM213.087 28.1022C213.708 27.5023 214.716 27.0353 216.052 27.0353C217.066 27.0353 218.009 27.2622 218.504 27.5052L218.636 27.57V29.0683L218.212 28.7214C218.024 28.5671 217.703 28.4142 217.317 28.2997C216.935 28.1866 216.514 28.1181 216.136 28.1178C215.25 28.1354 214.675 28.4451 214.311 28.9057C213.939 29.3778 213.77 30.0338 213.77 30.7623C213.77 31.5468 213.949 32.1312 214.297 32.5207C214.637 32.9014 215.17 33.1313 215.973 33.149C216.275 33.149 216.568 33.1398 216.821 33.1096C217.007 33.0875 217.157 33.0557 217.271 33.0155V31.3956H215.717V30.4237H218.799V33.5525L218.715 33.6205C218.579 33.7313 218.389 33.817 218.188 33.8852C217.984 33.9549 217.749 34.013 217.506 34.0605C217.021 34.1556 216.486 34.2122 216.065 34.2312L216.06 34.2314C214.761 34.2691 213.861 34.0447 213.218 33.4673C212.463 32.8263 212.078 31.9146 212.078 30.7991C212.078 29.8426 212.374 28.8239 213.082 28.1063L213.087 28.1022Z" fill="#4FBCEC"/>
<path d="M224.745 33.8562V27.4479H229.243V28.0003H225.849V30.1733H228.793V30.7257H225.849V33.2301H229.325V33.8194H224.745V33.8562Z" fill="#4FBCEC"/>
<path fill-rule="evenodd" clip-rule="evenodd" d="M224.491 27.2198H229.495V28.2286H226.102V29.9452H229.046V30.954H226.102V33.0021H229.577V34.0477H224.745V33.8563H224.491V27.2198ZM224.998 33.5913V27.6761H228.989V27.7723H225.595V30.4015H228.539V30.4976H225.595V33.4584H229.071V33.5913H224.998Z" fill="#4FBCEC"/>
<path d="M4.21021 23.159C9.6869 27.8867 18.5181 30.3191 27.4177 30.3191C33.2709 30.3191 38.3026 29.4284 42.3417 27.6469C46.3808 25.8312 48.5714 23.3988 48.948 20.3155V20.1442C46.6546 22.8849 43.5055 24.8377 39.4322 26.071C39.4322 26.071 39.4322 26.071 39.4664 26.071C42.4444 24.358 44.1558 22.234 44.6008 19.7331C41.6229 24.6664 35.9066 27.0987 27.4519 27.0987C23.4129 27.0987 19.9557 26.3451 16.9778 24.8034C14.034 23.296 12.5622 21.446 12.5622 19.2877C12.5622 17.1294 13.9313 15.3137 16.7381 13.7721C19.545 12.2647 23.1048 11.4767 27.4177 11.4767C33.7844 11.4767 38.2684 13.0184 40.8698 16.1702V16.0674C40.6302 14.1146 39.2611 12.6073 36.7281 11.4767C34.1951 10.3462 31.0802 9.79802 27.4177 9.79802C21.8725 9.79802 16.3274 11.3054 12.9045 14.2517C11.1588 15.7248 10.303 17.3692 10.303 19.2192C10.303 21.9257 12.3226 24.2895 15.7113 26.071C13.726 25.5228 11.9118 24.7691 10.2688 23.8784C5.78476 21.446 3.55985 18.534 3.55985 15.0739C3.55985 11.6138 5.92167 8.70175 10.6453 6.26937C15.369 3.83699 20.9141 2.63793 27.3835 2.63793C40.9383 2.63793 50.0775 6.57769 54.8696 14.4572C54.185 10.4147 51.4467 7.02307 46.6546 4.28236C41.4175 1.40461 34.9482 0 27.3835 0C21.5987 0 16.567 0.822206 12.3226 2.46663C4.72365 5.37863 0 9.86655 0 15.0739C0 18.1572 1.36917 20.7951 4.21021 23.159Z" fill="url(#paint0_linear_61_1333)"/>
<path d="M46.8257 9.55871C41.4175 6.57819 34.9481 5.0708 27.4177 5.0708C22.0095 5.0708 17.1489 5.99579 12.9729 7.88003C8.79694 9.76427 6.43511 12.1966 5.9559 15.1772V15.3142C6.88009 13.9096 8.55733 12.5735 10.9876 11.4772C12.3568 10.7235 13.8286 10.0726 15.369 9.55871C14.6159 10.0041 13.8971 10.4837 13.2125 10.9976C11.3984 12.4364 10.4399 14.0466 10.303 15.8281C11.5011 13.2587 14.3421 11.1346 17.6281 10.0726C20.8457 8.94205 24.2344 8.35965 27.4177 8.35965C33.1682 8.35965 42.3417 10.3124 42.3417 16.1364C42.3417 22.0974 32.7232 24.0159 27.4177 24.0159C23.4813 24.0159 20.0584 23.228 17.1489 21.6521C15.6428 20.9669 14.5817 20.1447 13.9998 19.254V19.3567C14.2736 21.2067 15.7455 22.7141 18.3812 23.9132C20.9826 25.1122 24.029 25.6604 27.4177 25.6604C32.1071 25.6604 36.1804 24.7354 39.5349 22.8511C42.9236 21.0012 44.5666 18.7401 44.5666 16.1364C44.5666 13.3957 42.8209 11.1689 39.2953 9.38742C39.1926 9.3189 39.0557 9.28464 38.9188 9.21612C45.4223 10.9633 51.2755 14.3892 51.2755 20.2817C51.2755 29.6344 36.5912 32.7177 27.3835 32.7177C22.2833 32.7177 16.8751 31.7927 11.7064 29.977C6.46934 28.2298 1.88261 24.8724 0 20.7271C0.239605 23.6048 1.74569 26.1742 4.65519 28.4696C10.3715 33.0945 18.8946 35.3214 27.4177 35.3214C34.5032 35.3214 40.8014 33.9167 46.4492 31.039C52.097 28.2298 54.9039 24.6326 54.9039 20.2475C54.8696 16.1021 52.234 12.505 46.8257 9.55871Z" fill="url(#paint1_linear_61_1333)"/>
</g>
<defs>
<linearGradient id="paint0_linear_61_1333" x1="0.00852311" y1="15.218" x2="54.8856" y2="15.218" gradientUnits="userSpaceOnUse">
<stop stop-color="#2CA4DE"/>
<stop offset="1" stop-color="#19539D"/>
</linearGradient>
<linearGradient id="paint1_linear_61_1333" x1="0.0085231" y1="20.2283" x2="54.8856" y2="20.2283" gradientUnits="userSpaceOnUse">
<stop stop-color="#19539D"/>
<stop offset="1" stop-color="#627EEA"/>
</linearGradient>
<clipPath id="clip0_61_1333">
<rect width="230" height="35.3214" fill="white"/>
</clipPath>
</defs>
</svg>
