<svg width="140" height="140" viewBox="0 0 140 140" fill="none" xmlns="http://www.w3.org/2000/svg">
<g filter="url(#filter0_d_190_13)">
<path d="M70 10L112.426 27.5736L130 70L112.426 112.426L70 130L27.5736 112.426L10 70L27.5736 27.5736L70 10Z" fill="url(#paint0_radial_190_13)" fill-opacity="0.4" shape-rendering="crispEdges"/>
</g>
<path d="M70 22L103.941 36.0589L118 70L103.941 103.941L70 118L36.0589 103.941L22 70L36.0589 36.0589L70 22Z" fill="#0321BE"/>
<path opacity="0.7" d="M70 34L95.4558 44.5442L106 70L95.4558 95.4558L70 106L44.5442 95.4558L34 70L44.5442 44.5442L70 34Z" fill="#405EFF"/>
<defs>
<filter id="filter0_d_190_13" x="0" y="0" width="140" height="140" filterUnits="userSpaceOnUse" color-interpolation-filters="sRGB">
<feFlood flood-opacity="0" result="BackgroundImageFix"/>
<feColorMatrix in="SourceAlpha" type="matrix" values="0 0 0 0 0 0 0 0 0 0 0 0 0 0 0 0 0 0 127 0" result="hardAlpha"/>
<feOffset/>
<feGaussianBlur stdDeviation="5"/>
<feComposite in2="hardAlpha" operator="out"/>
<feColorMatrix type="matrix" values="0 0 0 0 0.53766 0 0 0 0 0.810165 0 0 0 0 0.926953 0 0 0 0.2 0"/>
<feBlend mode="normal" in2="BackgroundImageFix" result="effect1_dropShadow_190_13"/>
<feBlend mode="normal" in="SourceGraphic" in2="effect1_dropShadow_190_13" result="shape"/>
</filter>
<radialGradient id="paint0_radial_190_13" cx="0" cy="0" r="1" gradientUnits="userSpaceOnUse" gradientTransform="translate(69.8218 70.0841) rotate(90) scale(69.8766 151.23)">
<stop stop-color="#07155B"/>
<stop offset="1" stop-color="#1938E0"/>
</radialGradient>
</defs>
</svg>
