<svg width="325" height="63" viewBox="0 0 325 63" fill="none" xmlns="http://www.w3.org/2000/svg">
<path d="M95.716 22.9468L91.726 25.7968C90.586 24.0108 89.218 23.1368 86.558 23.1368C84.164 23.1368 82.872 24.2388 82.872 26.0248C82.872 28.0768 84.544 28.9888 88.04 29.8628C93.512 31.2308 95.982 33.2828 95.982 37.9188C95.982 42.2128 93.094 45.5568 86.938 45.5568C82.34 45.5568 79.148 44.3028 76.83 41.2628L80.896 38.4508C82.302 40.1988 83.898 41.0728 86.596 41.0728C89.636 41.0728 90.662 39.7428 90.662 38.1468C90.662 36.3228 89.56 35.2968 85.304 34.1948C80.136 32.8268 77.552 30.3568 77.552 26.0248C77.552 21.8828 80.288 18.6528 86.52 18.6528C90.7 18.6528 93.854 20.0588 95.716 22.9468ZM101.689 30.3188V26.2148H104.121V22.0348H108.947V26.2148H112.671V30.3188H108.947V38.2608C108.947 40.1608 109.327 40.9588 111.113 40.9588H112.671V45.2148H110.619C106.021 45.2148 104.121 43.9228 104.121 39.0208V30.3188H101.689ZM135.207 34.5368V36.8168C135.207 42.0228 132.737 45.5568 126.999 45.5568C121.489 45.5568 118.791 42.1368 118.791 36.8168V34.5368C118.791 28.8368 121.793 25.8728 126.999 25.8728C132.281 25.8728 135.207 28.8368 135.207 34.5368ZM126.999 41.4528C129.659 41.4528 130.381 39.4008 130.381 36.6648V34.6888C130.381 31.6488 129.393 29.9768 126.999 29.9768C124.605 29.9768 123.617 31.6488 123.617 34.6888V36.6648C123.617 39.4008 124.301 41.4528 126.999 41.4528ZM156.26 28.8368L152.536 31.4968C152.042 30.7748 151.358 30.0528 150.142 30.0528C148.318 30.0528 147.102 31.3828 147.102 34.0428V45.2148H142.238V26.2148H146.988V27.8108C147.634 26.8608 148.888 25.8728 151.13 25.8728C153.41 25.8728 155.12 26.8608 156.26 28.8368ZM160.415 39.5908C160.415 35.5628 163.455 33.8148 167.445 33.8148H171.207V32.7128C171.207 30.5848 170.561 29.9008 167.825 29.9008C165.963 29.9008 165.051 30.1668 164.253 31.4208L160.833 29.0268C162.239 26.7088 164.367 25.8728 168.281 25.8728C173.183 25.8728 175.957 27.3168 175.957 32.7508V45.2148H171.207V43.5428C170.447 44.8348 169.307 45.5568 167.103 45.5568C163.151 45.5568 160.415 43.4668 160.415 39.5908ZM171.207 38.1088V37.3868H168.015C166.039 37.3868 165.165 38.0328 165.165 39.5148C165.165 40.9588 166.267 41.6428 167.939 41.6428C170.143 41.6428 171.207 40.6928 171.207 38.1088ZM194.551 27.2028V26.2148H199.377V44.8348C199.377 51.1808 195.805 52.6628 191.017 52.6628C187.483 52.6628 185.241 51.8268 183.569 49.2428L186.837 46.8868C187.673 48.0268 188.775 48.5968 190.561 48.5968C193.449 48.5968 194.551 47.7608 194.551 44.8348V44.2268C193.525 45.1008 192.195 45.5568 190.485 45.5568C185.507 45.5568 182.961 42.0228 182.961 36.9688V34.3848C182.961 28.8368 185.963 25.8728 190.485 25.8728C192.195 25.8728 193.525 26.3288 194.551 27.2028ZM191.169 41.4528C193.753 41.4528 194.551 39.5908 194.551 37.0828V34.6888C194.551 31.6488 193.563 29.9768 191.169 29.9768C188.775 29.9768 187.787 31.6488 187.787 34.6888V36.6648C187.787 39.4008 188.547 41.4528 191.169 41.4528ZM218.172 39.8188L221.782 42.3268C220.452 44.6448 218.248 45.5568 214.828 45.5568C209.128 45.5568 206.392 41.8708 206.392 36.9688V34.3848C206.392 28.6468 209.28 25.8728 214.22 25.8728C219.578 25.8728 222.048 28.9888 222.048 34.7648V36.9308H211.218C211.256 39.5528 212.092 41.4528 214.79 41.4528C216.804 41.4528 217.45 40.8448 218.172 39.8188ZM214.258 29.9768C212.32 29.9768 211.408 31.3068 211.218 33.4728H217.184C217.07 31.0028 216.082 29.9768 214.258 29.9768ZM262.15 27.1268H257.058C256.564 24.6568 255.12 23.1368 252.536 23.1368C249.458 23.1368 247.824 25.2268 247.824 30.2428V33.9668C247.824 38.8308 249.458 41.0728 252.536 41.0728C255.196 41.0728 256.488 39.7428 257.058 37.0828H262.112C261.238 42.9728 257.932 45.5568 252.536 45.5568C246.646 45.5568 242.504 41.9848 242.504 33.9668V30.2428C242.504 22.1488 246.646 18.6528 252.536 18.6528C257.742 18.6528 261.276 21.3888 262.15 27.1268ZM284.751 34.5368V36.8168C284.751 42.0228 282.281 45.5568 276.543 45.5568C271.033 45.5568 268.335 42.1368 268.335 36.8168V34.5368C268.335 28.8368 271.337 25.8728 276.543 25.8728C281.825 25.8728 284.751 28.8368 284.751 34.5368ZM276.543 41.4528C279.203 41.4528 279.925 39.4008 279.925 36.6648V34.6888C279.925 31.6488 278.937 29.9768 276.543 29.9768C274.149 29.9768 273.161 31.6488 273.161 34.6888V36.6648C273.161 39.4008 273.845 41.4528 276.543 41.4528ZM292.352 45.2148V26.2148H297.216V45.2148H292.352ZM292.162 23.7068V18.9948H297.406V23.7068H292.162ZM305.453 45.2148V26.2148H310.203V27.8108C310.925 26.8608 312.445 25.8728 314.573 25.8728C318.411 25.8728 321.527 27.6968 321.527 33.3208V45.2148H316.701V34.0808C316.701 31.1168 315.637 30.0528 313.661 30.0528C311.419 30.0528 310.317 31.5348 310.317 34.0428V45.2148H305.453Z" fill="white"/>
<rect y="2.2373" width="60" height="60" rx="30" fill="black" fill-opacity="0.01"/>
<path d="M40.1724 24.2822L35.8414 31.8876H44.497L40.1724 24.2822Z" fill="#6DB6E3"/>
<path d="M19.8464 24.2313L15.5155 31.843H24.1711L19.8464 24.2313Z" fill="#3D7BB3"/>
<path d="M39.8214 23.3665L34.9076 14.7373L30 23.3665L34.9076 31.9957L39.8214 23.3665Z" fill="#6DB6E3"/>
<path d="M30 23.3665L34.9076 14.7373H25.0862L20.1786 23.3665H30Z" fill="#2A5293"/>
<path d="M30 23.3665H20.1786L25.0862 31.9957L34.9076 31.9957L30 23.3665Z" fill="#3366A3"/>
<path d="M30 41.9729L25.6691 49.5783H34.3309L30 41.9729Z" fill="#4587C3"/>
<path d="M30 40.3959L34.3309 32.7905H25.6691L30 40.3959Z" fill="#2A5293"/>
<path d="M29.6427 41.1081L24.7289 32.4789L19.8214 41.1081L24.7289 49.7309L29.6427 41.1081Z" fill="#3D7BB3"/>
<path d="M19.8214 41.1081L24.7289 32.4789H14.9138L10 41.1081H19.8214Z" fill="#6DB6E3"/>
<path d="M19.8214 41.1081H10L14.9138 49.7309H24.7289L19.8214 41.1081Z" fill="#2A5293"/>
<path d="M50 41.1081L45.0862 32.4789L40.1786 41.1081L45.0862 49.7309L50 41.1081Z" fill="#3366A3"/>
<path d="M40.1786 41.1081L45.0862 32.4789H35.2648L30.3573 41.1081H40.1786Z" fill="#4587C3"/>
<path d="M40.1786 41.1081H30.3573L35.2648 49.7309H45.0862L40.1786 41.1081Z" fill="#6DB6E3"/>
</svg>
