<svg width="360" height="99" viewBox="0 0 360 99" fill="none" xmlns="http://www.w3.org/2000/svg">
<path d="M313.406 0C324.727 0 331.817 4.23281 337 10.8281L325.293 20.2781C321.837 16.2422 316.931 13.6828 310.973 13.6828C300.348 13.6828 292.097 21.5578 290.329 31.5C288.561 41.4422 294.013 49.3172 304.638 49.3172C310.596 49.3172 316.415 46.7578 321.301 42.7219L329.354 52.1719C322.294 58.3734 313.228 63 302.205 63C283.338 63 272.395 49.1203 275.533 31.5C278.671 13.8797 294.539 0 313.416 0H313.406ZM324.945 52.3687L320.298 46.6594C316.167 49.8094 310.1 52.0734 304.142 52.0734L302.692 60.2437C311.43 60.2437 318.481 57.4875 324.945 52.3687ZM325.908 16.2422L332.532 10.8281C328.212 5.5125 321.857 2.75625 312.91 2.75625L311.46 10.9266C317.12 10.9266 322.214 12.9937 325.908 16.2422Z" fill="black"/>
<path d="M345.463 2H360L349.537 61H335L345.463 2ZM346.373 58.2467L350.101 37.2033H342.882L339.153 58.2467H346.373Z" fill="black"/>
<path d="M27.7895 33.1592L53.2105 2.8833H40.6842L23 22.4519L27.7895 33.1592Z" fill="white"/>
<path d="M65.7367 29.0978L70.1578 2.8833H59.1052L54.6841 29.0978H65.7367Z" fill="white"/>
<path d="M87.1055 26.8825L91.5265 2.8833H101.842L97.7897 26.8825H87.1055Z" fill="white"/>
<path d="M122.105 22.4517L116.579 4.72925L114.368 6.94455L104.789 59.3734H116.579L122.105 22.4517Z" fill="white"/>
<path d="M154.526 26.8824L157.842 6.94458L155.632 8.05223L135.737 36.1128L139.421 48.6661L154.526 26.8824Z" fill="white"/>
<path d="M189.895 11.3753L182.158 2.8833L172.947 56.7891V59.3736L183.632 52.7277L189.895 11.3753Z" fill="white"/>
<path d="M228.579 59.3735L237.421 43.4972L228.579 42.0203L216.421 59.3735H228.579Z" fill="white"/>
<path d="M270.947 59.3735L265.789 42.0203H254.737L259.895 59.3735H270.947Z" fill="white"/>
<path d="M324.368 2.88324C329.379 4.95086 333.088 9.40608 334.316 11.3752L324.368 17.6519C322.011 12.3352 312.579 11.2522 308.158 11.3752L310 1.40637C314.126 0.224873 321.298 1.89866 324.368 2.88324Z" fill="white"/>
<path d="M327.316 52.7277L321.053 43.4973C316.042 49.4047 306.439 50.6354 302.263 50.5124L299.684 60.8505C311.768 62.0319 323.14 55.9276 327.316 52.7277Z" fill="white"/>
<path d="M347.947 59.3734L352 34.2666H341.684L337.632 59.3734H347.947Z" fill="white"/>
<path d="M27.7895 33.1592L53.2105 2.8833H40.6842L23 22.4519L27.7895 33.1592Z" stroke="black"/>
<path d="M65.7367 29.0978L70.1578 2.8833H59.1052L54.6841 29.0978H65.7367Z" stroke="black"/>
<path d="M87.1055 26.8825L91.5265 2.8833H101.842L97.7897 26.8825H87.1055Z" stroke="black"/>
<path d="M122.105 22.4517L116.579 4.72925L114.368 6.94455L104.789 59.3734H116.579L122.105 22.4517Z" stroke="black"/>
<path d="M154.526 26.8824L157.842 6.94458L155.632 8.05223L135.737 36.1128L139.421 48.6661L154.526 26.8824Z" stroke="black"/>
<path d="M189.895 11.3753L182.158 2.8833L172.947 56.7891V59.3736L183.632 52.7277L189.895 11.3753Z" stroke="black"/>
<path d="M228.579 59.3735L237.421 43.4972L228.579 42.0203L216.421 59.3735H228.579Z" stroke="black"/>
<path d="M270.947 59.3735L265.789 42.0203H254.737L259.895 59.3735H270.947Z" stroke="black"/>
<path d="M324.368 2.88324C329.379 4.95086 333.088 9.40608 334.316 11.3752L324.368 17.6519C322.011 12.3352 312.579 11.2522 308.158 11.3752L310 1.40637C314.126 0.224873 321.298 1.89866 324.368 2.88324Z" stroke="black"/>
<path d="M327.316 52.7277L321.053 43.4973C316.042 49.4047 306.439 50.6354 302.263 50.5124L299.684 60.8505C311.768 62.0319 323.14 55.9276 327.316 52.7277Z" stroke="black"/>
<path d="M347.947 59.3734L352 34.2666H341.684L337.632 59.3734H347.947Z" stroke="black"/>
<path d="M15.4979 32L0 1H16.2517L24.8965 19L39.8462 1H56L29.7916 32L24.7888 61H10.4951L15.4979 32ZM49.842 3.8H41.5203L26.7175 21.5L29.6839 27.6L49.842 3.8Z" fill="#0A0A0A"/>
<path d="M57.3333 1H71.7378L65.1966 38.6C63.8054 46.6 67.0711 49.4 72.1028 49.4C77.6279 49.4 81.5644 46.6 82.9556 38.6L89.4968 1H104L97.074 40.8C94.6075 55 82.7484 63 69.7251 63C56.7018 63 47.9999 54.6 50.3974 40.8L57.3333 1ZM63.9929 25.1L67.7025 3.8H60.5003L56.7906 25.1H63.9929ZM96.1564 25.1L99.8661 3.8H92.5652L88.8555 25.1H96.1564Z" fill="black"/>
<path d="M113.497 1H127.103L136.628 33.4L157.593 1H171L160.493 61H145.993L150.671 34.3L132.635 63H130.252L122.307 34.1L117.599 61H103L113.497 1ZM114.401 58.2L120.142 25.4L115.762 9L107.141 58.2H114.391H114.401ZM152.031 26.5L154.693 11.3L138.008 37.4L139.885 45.4L152.031 26.5Z" fill="black"/>
<path d="M180.303 1H219L216.768 14H192.399L190.547 24.8H213.064L210.861 37.6H188.345L186.493 48.4H211.933L209.769 61H170L180.303 1ZM182.399 51.2L189.271 11.2L183.422 3.8L174.074 58.2L182.389 51.2H182.399Z" fill="black"/>
<path d="M252.999 0H255.59L274 61H258.252L256.348 54.9H232.725L228.748 61H213L252.999 0ZM226.645 58.2452L235.566 44.5694H227.492L218.472 58.2452H226.645ZM253.208 44.5694L249.002 29.6145H248.803L239.154 44.5694H253.208ZM261.132 58.2452H269.405L265.269 44.5694H257.195L261.132 58.2452Z" fill="black"/>
<path d="M222 91.3685L224.226 83.4258L238.978 83.5877L240.831 76.9798C241.01 76.3421 240.795 75.8107 239.909 75.8001L227.825 75.6686L230.061 67.7002L242.145 67.8317C250.369 67.9239 251.209 69.2976 249.073 76.9041L247.173 83.6797L249.452 83.7048L247.225 91.6475L222 91.3685Z" fill="#070002"/>
<path d="M269.321 89.4159L269.779 87.7786C270.159 86.4172 270.041 85.7483 268.681 85.0371L267.975 84.6676L265.258 87.0043C261.036 90.6336 257.681 91.7686 254.403 91.7319L251.154 91.6955L253.351 83.8651L254.269 83.8769C256.769 83.9028 258.533 83.1708 260.76 81.3032L261.344 80.8092L256.129 77.7434L258.574 69.0249L268.427 74.9262L273.188 70.9672C276.493 68.2185 279.143 67.215 283.311 67.2631L281.052 75.3174C279.331 75.2989 278.435 75.7054 277.187 76.7789L274.84 78.7847L275.106 78.9274C278.181 80.5759 279.336 83.5156 278.05 88.0946L277.652 89.5113L269.32 89.4192L269.321 89.4159Z" fill="#070002"/>
<path d="M301.293 85.435L298.348 85.4033C296.724 89.5071 293.093 92.1152 287.65 92.0543L282.76 91.9991L284.965 84.139L288.604 84.1774C290.465 84.197 290.91 83.7019 291.34 82.1737L292.663 77.4526L302.773 77.5637C303.33 77.5703 304.112 77.1589 304.348 76.3278L304.512 75.7463L287.373 75.5593L289.452 68.146L314.618 68.4238L312.328 76.5863C310.747 82.2243 306.71 85.4924 301.293 85.435Z" fill="#070002"/>
<path d="M342.981 80.1237C340.098 87.2231 335.452 92.4634 322.898 92.3269L315.428 92.246L317.532 84.7477L324.059 84.8207C330.892 84.8952 333.396 83.0288 335.627 78.1514C338.716 71.4153 342.327 69.0595 347.32 68.9474L344.829 77.8336C343.968 78.0201 343.686 78.4336 342.988 80.1254L342.981 80.1237ZM318.399 82.8353L320.245 76.2539L331.663 76.3788L329.817 82.9602L318.399 82.8353ZM320.539 75.1981L322.392 68.5903L333.81 68.7152L331.957 75.323L320.539 75.1981Z" fill="#070002"/>
</svg>
