<svg width="143" height="50" viewBox="0 0 143 50" fill="none" xmlns="http://www.w3.org/2000/svg">
<g filter="url(#filter0_d_2002_14)">
<path d="M25 10L35.6066 14.3934L40 25L35.6066 35.6066L25 40L14.3934 35.6066L10 25L14.3934 14.3934L25 10Z" fill="url(#paint0_radial_2002_14)" fill-opacity="0.4" shape-rendering="crispEdges"/>
</g>
<path d="M25 13L33.4853 16.5147L37 25L33.4853 33.4853L25 37L16.5147 33.4853L13 25L16.5147 16.5147L25 13Z" fill="#0321BE"/>
<path opacity="0.7" d="M25 16L31.364 18.636L34 25L31.364 31.364L25 34L18.636 31.364L16 25L18.636 18.636L25 16Z" fill="#405EFF"/>
<path d="M54.608 16.44V23.232H60.944V16.44H63.728V33H60.944V25.632H54.608V33H51.824V16.44H54.608ZM72.9785 24.504H79.0025V25.776C79.0025 30.984 76.6265 33.216 72.9065 33.216C69.2105 33.216 66.7145 30.984 66.7145 25.776V23.784C66.7145 18.456 69.2105 16.224 72.9065 16.224C76.2665 16.224 78.4025 18.096 78.9305 21.576H76.2425C75.8345 19.656 74.7785 18.648 72.9065 18.648C70.6985 18.648 69.4985 20.088 69.4985 23.664V25.776C69.4985 29.352 70.6985 30.792 72.9065 30.792C75.0185 30.792 76.0745 29.544 76.2665 26.928H72.9785V24.504ZM81.9881 16.44H92.1401V18.864H84.7721V23.616H91.4201V26.016H84.7721V33H81.9881V16.44ZM106.189 33H100.597V16.44H106.189C109.909 16.44 112.405 18.432 112.405 23.736V25.704C112.405 31.008 109.909 33 106.189 33ZM106.189 30.6C108.565 30.6 109.621 29.112 109.621 25.704V23.736C109.621 20.328 108.565 18.864 106.189 18.864H103.381V30.6H106.189ZM116.329 33H113.353L119.113 16.44H121.753L127.513 33H124.561L123.433 29.568H117.457L116.329 33ZM120.433 20.472L118.225 27.168H122.641L120.433 20.472ZM140.88 25.776C140.88 30.984 138.384 33.216 134.664 33.216C130.968 33.216 128.472 30.984 128.472 25.776V23.664C128.472 18.456 130.968 16.224 134.664 16.224C138.384 16.224 140.88 18.456 140.88 23.664V25.776ZM131.256 23.664V25.776C131.256 29.352 132.456 30.792 134.664 30.792C136.872 30.792 138.096 29.352 138.096 25.776V23.664C138.096 20.088 136.872 18.648 134.664 18.648C132.456 18.648 131.256 20.088 131.256 23.664Z" fill="white"/>
<defs>
<filter id="filter0_d_2002_14" x="0" y="0" width="50" height="50" filterUnits="userSpaceOnUse" color-interpolation-filters="sRGB">
<feFlood flood-opacity="0" result="BackgroundImageFix"/>
<feColorMatrix in="SourceAlpha" type="matrix" values="0 0 0 0 0 0 0 0 0 0 0 0 0 0 0 0 0 0 127 0" result="hardAlpha"/>
<feOffset/>
<feGaussianBlur stdDeviation="5"/>
<feComposite in2="hardAlpha" operator="out"/>
<feColorMatrix type="matrix" values="0 0 0 0 0.53766 0 0 0 0 0.810165 0 0 0 0 0.926953 0 0 0 0.2 0"/>
<feBlend mode="normal" in2="BackgroundImageFix" result="effect1_dropShadow_2002_14"/>
<feBlend mode="normal" in="SourceGraphic" in2="effect1_dropShadow_2002_14" result="shape"/>
</filter>
<radialGradient id="paint0_radial_2002_14" cx="0" cy="0" r="1" gradientUnits="userSpaceOnUse" gradientTransform="translate(24.9555 25.021) rotate(90) scale(17.4692 37.8074)">
<stop stop-color="#07155B"/>
<stop offset="1" stop-color="#1938E0"/>
</radialGradient>
</defs>
</svg>
