<svg width="214" height="42" viewBox="0 0 214 42" fill="none" xmlns="http://www.w3.org/2000/svg">
<path d="M35 36C43.2843 36 50 29.2843 50 21C50 12.7157 43.2843 6 35 6C26.7157 6 20 12.7157 20 21C20 29.2843 26.7157 36 35 36Z" fill="#FB2C2B"/>
<path d="M74.5822 34.504C72.7102 34.504 70.9582 34.228 69.3262 33.676C67.6942 33.1 66.2542 32.296 65.0062 31.264C63.7582 30.208 62.7862 28.948 62.0902 27.484C61.3942 26.02 61.0462 24.4 61.0462 22.624C61.0462 20.968 61.3702 19.396 62.0182 17.908C62.6902 16.396 63.6622 15.064 64.9342 13.912C66.2062 12.736 67.7302 11.812 69.5062 11.14C71.3062 10.444 73.3342 10.096 75.5902 10.096C76.3582 10.096 77.1262 10.156 77.8942 10.276C78.6862 10.372 79.4422 10.516 80.1622 10.708C80.9062 10.9 81.5782 11.104 82.1782 11.32C82.3942 11.416 82.5742 11.548 82.7182 11.716C82.8862 11.86 82.9822 12.076 83.0062 12.364C83.1022 13.156 83.1742 13.924 83.2222 14.668C83.2702 15.412 83.2942 16.084 83.2942 16.684C83.2942 16.948 83.1982 17.128 83.0062 17.224C82.8142 17.32 82.5982 17.332 82.3582 17.26C82.1422 17.164 81.9862 16.972 81.8902 16.684C81.7222 16.132 81.5182 15.58 81.2782 15.028C81.0622 14.476 80.7262 13.996 80.2702 13.588C79.7902 13.108 79.1182 12.712 78.2542 12.4C77.4142 12.088 76.3942 11.932 75.1942 11.932C73.9702 11.932 72.8542 12.196 71.8462 12.724C70.8622 13.252 70.0102 13.972 69.2902 14.884C68.5942 15.796 68.0542 16.828 67.6702 17.98C67.2862 19.132 67.0942 20.332 67.0942 21.58C67.0942 23.164 67.2622 24.64 67.5982 26.008C67.9342 27.352 68.4502 28.516 69.1462 29.5C69.8422 30.484 70.6942 31.252 71.7022 31.804C72.7102 32.356 73.8982 32.632 75.2662 32.632C77.0422 32.632 78.4822 32.26 79.5862 31.516C80.6902 30.748 81.6142 29.584 82.3582 28.024C82.5502 27.592 82.8142 27.388 83.1502 27.412C83.5102 27.436 83.6902 27.64 83.6902 28.024C83.6902 28.336 83.6542 28.72 83.5822 29.176C83.5342 29.608 83.4502 30.076 83.3302 30.58C83.2102 31.084 83.0662 31.6 82.8982 32.128C82.8022 32.416 82.6702 32.644 82.5022 32.812C82.3582 32.956 82.1662 33.088 81.9262 33.208C81.0142 33.592 79.9342 33.904 78.6862 34.144C77.4382 34.384 76.0702 34.504 74.5822 34.504ZM87.9016 34.108C87.7096 34.108 87.5416 34.072 87.3976 34C87.2536 33.904 87.1816 33.772 87.1816 33.604C87.1816 33.22 87.4336 32.968 87.9376 32.848C88.8496 32.656 89.4856 32.416 89.8456 32.128C90.2056 31.816 90.3856 31.276 90.3856 30.508V14.164C90.3856 13.396 90.2296 12.856 89.9176 12.544C89.6056 12.208 88.9696 11.932 88.0096 11.716C87.5056 11.596 87.2536 11.344 87.2536 10.96C87.2536 10.792 87.3256 10.66 87.4696 10.564C87.6136 10.468 87.7816 10.42 87.9736 10.42C88.5256 10.42 89.1016 10.432 89.7016 10.456C90.3256 10.48 90.9256 10.516 91.5016 10.564C92.1016 10.588 92.6536 10.6 93.1576 10.6C93.6376 10.6 94.1776 10.588 94.7776 10.564C95.4016 10.54 96.0256 10.516 96.6496 10.492C97.2976 10.468 97.8856 10.456 98.4136 10.456C98.6296 10.456 98.7976 10.504 98.9176 10.6C99.0376 10.672 99.0976 10.792 99.0976 10.96C99.0976 11.2 99.0256 11.368 98.8816 11.464C98.7616 11.56 98.5696 11.644 98.3056 11.716C97.3456 11.98 96.7096 12.28 96.3976 12.616C96.0856 12.928 95.9296 13.456 95.9296 14.2V30.472C95.9296 31.168 96.0976 31.684 96.4336 32.02C96.7936 32.332 97.4416 32.608 98.3776 32.848C98.6176 32.92 98.7976 33.004 98.9176 33.1C99.0616 33.196 99.1336 33.352 99.1336 33.568C99.1336 33.736 99.0736 33.868 98.9536 33.964C98.8576 34.06 98.7016 34.108 98.4856 34.108C97.9576 34.108 97.3696 34.084 96.7216 34.036C96.0736 34.012 95.4376 33.988 94.8136 33.964C94.1896 33.94 93.6376 33.928 93.1576 33.928C92.6536 33.928 92.1016 33.94 91.5016 33.964C90.9016 33.988 90.2896 34.012 89.6656 34.036C89.0416 34.084 88.4536 34.108 87.9016 34.108ZM102.131 34.108C101.939 34.108 101.771 34.072 101.627 34C101.483 33.904 101.411 33.772 101.411 33.604C101.411 33.22 101.663 32.968 102.167 32.848C103.079 32.656 103.703 32.416 104.039 32.128C104.399 31.816 104.579 31.264 104.579 30.472V14.344C104.579 13.528 104.435 12.94 104.147 12.58C103.859 12.196 103.283 11.908 102.419 11.716C102.107 11.644 101.891 11.548 101.771 11.428C101.651 11.284 101.591 11.128 101.591 10.96C101.591 10.816 101.663 10.696 101.807 10.6C101.951 10.48 102.143 10.42 102.383 10.42C102.935 10.42 103.487 10.432 104.039 10.456C104.615 10.48 105.167 10.516 105.695 10.564C106.247 10.588 106.763 10.6 107.243 10.6C107.819 10.6 108.323 10.576 108.755 10.528C109.211 10.456 109.703 10.396 110.231 10.348C110.783 10.276 111.443 10.24 112.211 10.24C115.139 10.24 117.455 10.864 119.159 12.112C120.887 13.336 121.751 15.028 121.751 17.188C121.751 18.7 121.427 20.092 120.779 21.364C120.155 22.636 119.195 23.668 117.899 24.46C116.627 25.228 115.007 25.612 113.039 25.612C112.415 25.612 111.935 25.516 111.599 25.324C111.287 25.132 111.131 24.904 111.131 24.64C111.131 24.472 111.203 24.34 111.347 24.244C111.515 24.124 111.659 24.064 111.779 24.064C112.043 24.064 112.271 24.1 112.463 24.172C112.655 24.22 112.919 24.244 113.255 24.244C114.263 24.244 115.019 23.68 115.523 22.552C116.051 21.424 116.315 19.936 116.315 18.088C116.315 15.88 115.955 14.284 115.235 13.3C114.515 12.316 113.507 11.824 112.211 11.824C111.539 11.824 111.023 11.98 110.663 12.292C110.327 12.58 110.159 13.036 110.159 13.66L110.123 30.4C110.123 31.168 110.327 31.72 110.735 32.056C111.143 32.368 111.851 32.632 112.859 32.848C113.123 32.896 113.315 32.98 113.435 33.1C113.579 33.196 113.651 33.352 113.651 33.568C113.651 33.736 113.591 33.868 113.471 33.964C113.351 34.06 113.183 34.108 112.967 34.108C112.439 34.108 111.827 34.084 111.131 34.036C110.459 34.012 109.787 33.988 109.115 33.964C108.443 33.94 107.867 33.928 107.387 33.928C106.883 33.928 106.331 33.94 105.731 33.964C105.131 33.988 104.507 34.012 103.859 34.036C103.235 34.084 102.659 34.108 102.131 34.108ZM147.121 34.252C146.305 34.252 145.405 34.228 144.421 34.18C143.461 34.132 142.561 34.084 141.721 34.036C140.881 34.012 140.245 34 139.813 34C139.333 34 138.805 34 138.229 34C137.653 34.024 137.053 34.048 136.429 34.072C135.829 34.096 135.253 34.108 134.701 34.108C134.533 34.108 134.377 34.072 134.233 34C134.089 33.904 134.017 33.772 134.017 33.604C134.017 33.388 134.077 33.22 134.197 33.1C134.341 32.98 134.533 32.896 134.773 32.848C135.685 32.656 136.309 32.416 136.645 32.128C136.981 31.816 137.149 31.276 137.149 30.508V14.164C137.149 13.396 136.993 12.856 136.681 12.544C136.369 12.208 135.733 11.932 134.773 11.716C134.533 11.668 134.341 11.584 134.197 11.464C134.077 11.344 134.017 11.176 134.017 10.96C134.017 10.792 134.089 10.66 134.233 10.564C134.377 10.468 134.533 10.42 134.701 10.42C135.253 10.42 135.829 10.432 136.429 10.456C137.053 10.48 137.653 10.516 138.229 10.564C138.829 10.588 139.369 10.6 139.849 10.6C140.233 10.6 140.737 10.588 141.361 10.564C141.985 10.516 142.657 10.48 143.377 10.456C144.121 10.408 144.829 10.372 145.501 10.348C146.197 10.3 146.761 10.276 147.193 10.276C149.017 10.276 150.697 10.564 152.233 11.14C153.793 11.692 155.149 12.496 156.301 13.552C157.477 14.584 158.389 15.808 159.037 17.224C159.685 18.64 160.009 20.2 160.009 21.904C160.009 23.512 159.721 25.06 159.145 26.548C158.569 28.012 157.729 29.332 156.625 30.508C155.521 31.66 154.177 32.572 152.593 33.244C151.009 33.916 149.185 34.252 147.121 34.252ZM146.581 32.416C148.213 32.416 149.581 32.02 150.685 31.228C151.789 30.412 152.605 29.296 153.133 27.88C153.685 26.44 153.961 24.772 153.961 22.876C153.961 21.268 153.781 19.816 153.421 18.52C153.085 17.2 152.581 16.072 151.909 15.136C151.261 14.2 150.445 13.48 149.461 12.976C148.501 12.448 147.409 12.184 146.185 12.184C145.417 12.184 144.769 12.208 144.241 12.256C143.737 12.304 143.353 12.424 143.089 12.616C142.825 12.808 142.693 13.12 142.693 13.552V29.248C142.693 30.04 142.837 30.664 143.125 31.12C143.437 31.576 143.881 31.912 144.457 32.128C145.057 32.32 145.765 32.416 146.581 32.416ZM161.257 34.18C160.993 34.18 160.765 34.132 160.573 34.036C160.405 33.964 160.321 33.82 160.321 33.604C160.321 33.364 160.393 33.196 160.537 33.1C160.705 32.98 160.921 32.884 161.185 32.812C161.881 32.62 162.481 32.32 162.985 31.912C163.513 31.504 163.909 31 164.173 30.4C164.773 29.056 165.337 27.736 165.865 26.44C166.393 25.12 166.909 23.824 167.413 22.552C167.917 21.256 168.421 19.948 168.925 18.628C169.429 17.284 169.933 15.928 170.437 14.56C170.797 13.576 171.025 12.868 171.121 12.436C171.217 11.98 171.289 11.716 171.337 11.644C171.769 11.524 172.177 11.416 172.561 11.32C172.945 11.224 173.353 11.092 173.785 10.924C174.217 10.756 174.577 10.54 174.865 10.276C175.177 10.012 175.405 9.808 175.549 9.664C175.645 9.592 175.741 9.556 175.837 9.556C175.933 9.532 176.029 9.604 176.125 9.772C176.197 9.916 176.257 10.072 176.305 10.24C176.377 10.384 176.437 10.552 176.485 10.744C176.989 12.352 177.505 13.996 178.033 15.676C178.561 17.332 179.089 18.988 179.617 20.644C180.169 22.3 180.709 23.944 181.237 25.576C181.765 27.184 182.281 28.756 182.785 30.292C182.929 30.772 183.145 31.18 183.433 31.516C183.745 31.852 184.093 32.116 184.477 32.308C184.861 32.5 185.293 32.668 185.773 32.812C186.037 32.884 186.241 32.98 186.385 33.1C186.553 33.196 186.637 33.352 186.637 33.568C186.637 33.736 186.565 33.868 186.421 33.964C186.277 34.06 186.109 34.108 185.917 34.108C185.437 34.108 184.837 34.084 184.117 34.036C183.421 34.012 182.713 33.988 181.993 33.964C181.273 33.94 180.637 33.928 180.085 33.928C179.629 33.928 179.065 33.94 178.393 33.964C177.745 33.988 177.085 34.012 176.413 34.036C175.741 34.06 175.165 34.072 174.685 34.072C174.469 34.072 174.277 34.036 174.109 33.964C173.965 33.868 173.893 33.736 173.893 33.568C173.893 33.352 173.977 33.184 174.145 33.064C174.313 32.944 174.517 32.86 174.757 32.812C175.645 32.62 176.293 32.368 176.701 32.056C177.109 31.744 177.241 31.276 177.097 30.652C177.001 30.196 176.881 29.716 176.737 29.212C176.593 28.708 176.449 28.204 176.305 27.7C176.185 27.172 176.053 26.668 175.909 26.188C175.861 25.996 175.801 25.852 175.729 25.756C175.657 25.66 175.513 25.612 175.297 25.612H168.925C168.757 25.612 168.625 25.66 168.529 25.756C168.433 25.852 168.361 26.008 168.313 26.224C168.217 26.56 168.109 26.896 167.989 27.232C167.869 27.568 167.749 27.904 167.629 28.24C167.533 28.576 167.437 28.912 167.341 29.248C167.245 29.584 167.149 29.908 167.053 30.22C166.885 30.94 166.957 31.492 167.269 31.876C167.581 32.26 168.253 32.572 169.285 32.812C169.861 32.932 170.149 33.184 170.149 33.568C170.149 33.736 170.077 33.868 169.933 33.964C169.813 34.036 169.609 34.072 169.321 34.072C168.625 34.072 167.977 34.048 167.377 34C166.777 33.976 166.117 33.964 165.397 33.964C164.677 33.964 163.993 34 163.345 34.072C162.697 34.144 162.001 34.18 161.257 34.18ZM169.933 23.668H174.613C174.973 23.668 175.153 23.584 175.153 23.416C175.153 23.344 175.141 23.284 175.117 23.236C175.117 23.188 175.105 23.128 175.081 23.056L172.669 14.92C172.597 14.656 172.525 14.524 172.453 14.524C172.405 14.524 172.321 14.656 172.201 14.92L169.357 23.056C169.309 23.152 169.285 23.248 169.285 23.344C169.285 23.464 169.345 23.548 169.465 23.596C169.609 23.644 169.765 23.668 169.933 23.668ZM200.146 34.504C198.49 34.504 196.906 34.228 195.394 33.676C193.906 33.1 192.574 32.296 191.398 31.264C190.246 30.208 189.334 28.96 188.662 27.52C188.014 26.056 187.69 24.436 187.69 22.66C187.69 21.028 187.954 19.468 188.482 17.98C189.034 16.468 189.85 15.124 190.93 13.948C192.01 12.772 193.342 11.836 194.926 11.14C196.534 10.444 198.382 10.096 200.47 10.096C202.15 10.096 203.734 10.384 205.222 10.96C206.734 11.512 208.066 12.316 209.218 13.372C210.37 14.404 211.282 15.652 211.954 17.116C212.626 18.556 212.962 20.164 212.962 21.94C212.962 23.548 212.686 25.108 212.134 26.62C211.582 28.132 210.766 29.476 209.686 30.652C208.606 31.828 207.262 32.764 205.654 33.46C204.07 34.156 202.234 34.504 200.146 34.504ZM200.794 32.848C202.162 32.848 203.302 32.464 204.214 31.696C205.15 30.928 205.846 29.86 206.302 28.492C206.758 27.124 206.986 25.552 206.986 23.776C206.986 22.312 206.842 20.872 206.554 19.456C206.29 18.016 205.858 16.72 205.258 15.568C204.682 14.416 203.938 13.504 203.026 12.832C202.114 12.136 201.034 11.788 199.786 11.788C198.442 11.788 197.302 12.172 196.366 12.94C195.454 13.708 194.77 14.764 194.314 16.108C193.858 17.452 193.63 19.012 193.63 20.788C193.63 22.276 193.774 23.74 194.062 25.18C194.35 26.596 194.782 27.88 195.358 29.032C195.934 30.184 196.666 31.108 197.554 31.804C198.466 32.5 199.546 32.848 200.794 32.848Z" fill="black"/>
</svg>
