<svg width="213" height="58" viewBox="0 0 213 58" fill="none" xmlns="http://www.w3.org/2000/svg">
<path d="M69.8503 38.5412C69.5799 38.3191 69.4193 38.1162 69.3683 37.9324C69.2704 37.5686 69.1607 36.7261 69.0353 35.4088L69 34.7387C69 34.597 69.0666 34.4898 69.2038 34.4209C69.337 34.3481 69.5172 34.3136 69.7406 34.3136C70.0619 34.3136 70.2578 34.4247 70.3322 34.6468C70.775 36.1287 71.4725 37.2201 72.4168 37.9324C73.3651 38.6408 74.4152 38.9969 75.575 38.9969C76.8563 38.9969 77.9143 38.6561 78.7489 37.9783C79.5835 37.3005 80.0028 36.4006 80.0028 35.2863C80.0028 34.4975 79.85 33.8426 79.5404 33.3257C79.2309 32.8087 78.8077 32.3722 78.2669 32.0199C77.7262 31.6638 76.9112 31.2157 75.8297 30.6681L75.0891 30.3043C73.8823 29.6955 72.934 29.1709 72.2444 28.7228C71.5548 28.2786 70.9631 27.731 70.4733 27.0801C69.9796 26.4329 69.7367 25.69 69.7367 24.8591C69.7367 23.2393 70.4028 21.9105 71.7311 20.8766C73.0633 19.8426 74.9677 19.3257 77.4558 19.3257C78.7097 19.3257 80.0028 19.5478 81.335 19.9958C81.5074 20.0571 81.6681 20.1566 81.817 20.2983C81.9659 20.44 82.0638 20.5932 82.1109 20.754C82.3577 21.4624 82.5419 22.0368 82.6633 22.4734C82.7848 22.9099 82.8475 23.3388 82.8475 23.7677C82.8475 23.9898 82.6633 24.1008 82.295 24.1008C82.0717 24.1008 81.8562 24.0587 81.6485 23.9783C81.4408 23.8979 81.3115 23.7945 81.2606 23.6758C80.7198 22.5615 80.0968 21.7305 79.3954 21.1829C78.694 20.6353 77.8359 20.3634 76.8289 20.3634C75.5985 20.3634 74.5837 20.643 73.7843 21.1982C72.985 21.7573 72.5853 22.6342 72.5853 23.829C72.5853 24.3957 72.8087 24.9242 73.2514 25.4105C73.6942 25.8968 74.2545 26.3448 74.9324 26.7469C75.6103 27.1528 76.5507 27.6583 77.7576 28.2671C78.9135 28.8569 79.85 29.3815 80.5631 29.8487C81.2762 30.3158 81.8797 30.8941 82.3734 31.5833C82.8671 32.2726 83.114 33.0921 83.114 34.0456C83.114 35.8492 82.3734 37.2929 80.9001 38.3804C79.4229 39.4641 77.4793 40.0079 75.0656 40.0079C72.9967 40.0079 71.2609 39.5215 69.8581 38.5489L69.8503 38.5412Z" fill="white"/>
<path d="M83.1179 39.8967C82.9533 39.824 82.8671 39.7282 82.8671 39.6095C82.8671 39.3453 83.208 39.1117 83.8937 38.9087C84.4932 38.7249 85.0144 38.4684 85.4493 38.1314C85.8842 37.7982 86.2604 37.2736 86.57 36.5652C87.6671 34.0915 88.6271 31.8475 89.446 29.8294C90.265 27.8114 91.2446 25.2955 92.3848 22.2742C92.6121 21.6462 92.7571 21.0564 92.8198 20.5089C92.8824 20.4897 93.0313 20.4438 93.2704 20.371C93.5094 20.3021 93.7327 20.1949 93.9404 20.0532C94.105 19.9306 94.2343 19.7507 94.3283 19.5056C94.4224 19.2605 94.489 19.0997 94.5321 19.0193C94.5517 19.0001 94.5791 18.9924 94.6104 19.0039C94.6418 19.0154 94.6653 19.0307 94.6888 19.0499C94.7319 19.1533 94.7672 19.2643 94.7985 19.383C94.8299 19.5056 94.8651 19.6166 94.9082 19.7162C96.4442 24.4416 98.2898 29.8524 100.445 35.9525C100.837 37.0668 101.276 37.8212 101.75 38.2195C102.228 38.6139 102.839 38.8743 103.587 38.993C103.92 39.0543 104.175 39.15 104.352 39.2802C104.528 39.4142 104.614 39.5482 104.614 39.6899C104.614 39.8929 104.312 39.9924 103.713 39.9924L102.032 39.9312C100.868 39.8508 99.9904 39.8086 99.3869 39.8086L96.119 39.8393C95.5156 39.8393 95.2178 39.7167 95.2178 39.4755C95.2178 39.3529 95.3158 39.2381 95.5117 39.127C95.7076 39.016 95.9505 38.9394 96.2444 38.8973C97.51 38.6943 98.1409 38.2386 98.1409 37.5302C98.1409 36.883 97.7373 35.2403 96.9262 32.6057C96.8831 32.464 96.8047 32.3721 96.6911 32.3338C96.5775 32.2917 96.3737 32.2725 96.0838 32.2725H90.2023C89.975 32.2725 89.7987 32.4563 89.6733 32.8201C89.446 33.4673 89.1757 34.3136 88.8661 35.359C88.5566 36.4044 88.3998 37.0171 88.3998 37.197C88.3998 37.6221 88.5722 37.9859 88.9131 38.2922C89.254 38.5986 89.6851 38.8092 90.2062 38.9317C90.5784 39.0351 90.8449 39.1232 90.9977 39.2036C91.1544 39.284 91.2328 39.3951 91.2328 39.5368C91.2328 39.7589 90.9311 39.8699 90.3316 39.8699C89.9593 39.8699 89.6459 39.8584 89.399 39.8393L87.5025 39.8086C87.1499 39.8086 86.762 39.824 86.3349 39.8546C85.9078 39.8852 85.5943 39.9005 85.3866 39.9005C84.8067 39.9618 84.266 39.9924 83.7683 39.9924C83.498 39.9924 83.2824 39.958 83.114 39.8852L83.1179 39.8967ZM95.8761 31.2731C96.0015 31.2731 96.1033 31.2616 96.1856 31.2424C96.2679 31.2233 96.311 31.1812 96.311 31.1199L96.2483 30.8174L93.8229 23.3962C93.6975 23.0324 93.6034 22.8486 93.5447 22.8486C93.5016 22.8486 93.4193 23.0209 93.2978 23.3655L90.4648 30.8174L90.4021 31.0625C90.4021 31.1659 90.4491 31.2233 90.5432 31.2463C90.6372 31.2654 90.8096 31.2769 91.0565 31.2769H95.88L95.8761 31.2731Z" fill="white"/>
<path d="M106.605 39.6669C106.605 39.5252 106.687 39.4142 106.851 39.3337C107.016 39.2533 107.275 39.1806 107.631 39.1193C108.419 38.9776 108.963 38.7402 109.265 38.4032C109.567 38.0701 109.716 37.5263 109.716 36.7758V23.0936C109.716 22.4043 109.567 21.9065 109.265 21.604C108.963 21.3015 108.419 21.0755 107.631 20.9339C106.945 20.8113 106.605 20.6084 106.605 20.325C106.605 20.1029 106.906 19.9918 107.506 19.9918L109.434 20.0225C109.743 20.0416 110.264 20.0531 110.989 20.0531C111.569 20.0531 111.973 20.0416 112.204 20.0225L114.01 19.9918C114.61 19.9918 114.912 20.1029 114.912 20.325C114.912 20.6084 114.571 20.8113 113.885 20.9339C113.16 21.0564 112.698 21.2785 112.502 21.604C112.306 21.9295 112.208 22.4235 112.208 23.0936V28.7801C112.208 29.1669 112.259 29.3584 112.365 29.3584C112.47 29.3584 112.604 29.3009 112.768 29.1899C112.933 29.0788 113.078 28.9525 113.203 28.8108L119.425 22.6073C119.735 22.3048 119.892 21.9984 119.892 21.6959C119.892 21.5351 119.841 21.3857 119.735 21.2555C119.633 21.1253 119.488 21.0372 119.3 20.999C118.947 20.8994 118.697 20.8075 118.552 20.7271C118.407 20.6467 118.332 20.5356 118.332 20.3939C118.332 20.1718 118.634 20.0608 119.233 20.0608H120.914C121.392 20.0608 122.721 20.0301 124.899 19.9689L125.957 19.9382C126.165 19.9382 126.33 19.9689 126.455 20.0301C126.58 20.0914 126.643 20.1718 126.643 20.2752C126.643 20.5586 126.302 20.7615 125.616 20.8841C123.665 21.2287 122.09 21.8988 120.887 22.8906C119.766 23.802 118.767 24.6866 117.886 25.5367C117.004 26.3868 116.013 27.4016 114.915 28.5772C114.872 28.6193 114.853 28.6691 114.853 28.7304C114.853 28.8529 114.923 28.9831 115.072 29.1248L122.603 36.9711C123.328 37.7599 123.869 38.273 124.222 38.5066C124.574 38.7402 125.174 38.947 126.028 39.1308C126.4 39.2112 126.667 39.2916 126.819 39.3759C126.976 39.4563 127.055 39.5597 127.055 39.6784C127.055 39.9005 126.753 40.0115 126.153 40.0115C125.323 40.0115 124.578 39.9809 123.912 39.9196C123.081 39.8775 122.388 39.8584 121.827 39.8584H120.958C120.687 39.8775 120.139 39.889 119.308 39.889C118.704 39.889 118.407 39.7779 118.407 39.5558C118.407 39.4142 118.469 39.3069 118.595 39.238C118.72 39.1653 118.936 39.1002 119.249 39.0389C119.829 38.8972 120.119 38.6943 120.119 38.43C120.119 38.2692 119.962 38.0165 119.653 37.6718L113.058 30.5569C112.705 30.2123 112.466 30.04 112.341 30.04C112.259 30.04 112.216 30.1817 112.216 30.465C112.216 31.7019 112.267 33.72 112.372 36.5154C112.416 37.2468 112.576 37.8327 112.854 38.2807C113.133 38.7287 113.638 39.0121 114.363 39.1308C114.716 39.1921 114.974 39.261 115.143 39.3452C115.307 39.4256 115.39 39.5367 115.39 39.6784C115.39 39.9005 115.088 40.0115 114.488 40.0115C113.826 40.0115 113.223 39.9694 112.682 39.889C112.31 39.8277 111.894 39.7971 111.436 39.7971C111.083 39.7971 110.727 39.8124 110.362 39.843C109.998 39.8737 109.735 39.889 109.571 39.889C108.783 39.9694 108.097 40.0115 107.518 40.0115C106.938 40.0115 106.616 39.9005 106.616 39.6784L106.605 39.6669Z" fill="white"/>
<path d="M129.155 39.667C129.155 39.5253 129.237 39.4143 129.402 39.3338C129.566 39.2534 129.825 39.1807 130.181 39.1194C130.989 38.9777 131.576 38.7403 131.941 38.4033C132.305 38.0702 132.485 37.5456 132.485 36.8371V23.155C132.485 22.4465 132.336 21.9334 132.035 21.6194C131.733 21.3054 131.188 21.0756 130.401 20.934C129.715 20.8114 129.374 20.6085 129.374 20.3251C129.374 20.103 129.676 19.9919 130.275 19.9919C131.063 19.9919 132.019 20.0111 133.14 20.0532L135.785 20.0838L140.048 20.0532L142.693 19.9919C143.045 19.9919 143.233 20.0838 143.253 20.2638C143.296 20.4247 143.382 20.8727 143.516 21.6003C143.649 22.3317 143.719 22.929 143.719 23.3962C143.719 23.6987 143.574 23.8519 143.284 23.8519C143.183 23.8519 143.108 23.8328 143.065 23.7906C143.022 23.7485 142.983 23.6681 142.94 23.5456C142.896 23.446 142.814 23.1818 142.689 22.7567C142.563 22.3317 142.418 22.0368 142.254 21.876C141.756 21.3284 141.063 21.0565 140.169 21.0565H136.094C135.887 21.0565 135.648 21.1522 135.377 21.3437C135.107 21.5352 134.974 21.7649 134.974 22.0291V28.4739C134.974 28.6577 135.032 28.8147 135.146 28.9449C135.26 29.0751 135.389 29.144 135.534 29.144H138.614C139.194 29.144 139.597 29.0445 139.828 28.8415C140.056 28.6386 140.252 28.2441 140.42 27.6544C140.545 27.2102 140.73 26.9843 140.98 26.9843C141.063 26.9843 141.153 27.0302 141.243 27.1221C141.333 27.214 141.384 27.3289 141.384 27.4706L141.353 28.2594L141.29 29.5959L141.321 31.208L141.353 31.9394C141.353 32.2841 141.259 32.4564 141.074 32.4564C140.765 32.4564 140.526 32.1309 140.357 31.4837C140.232 30.9974 140.064 30.6489 139.844 30.4345C139.625 30.2201 139.319 30.1167 138.927 30.1167H136.035C135.64 30.1167 135.365 30.1665 135.213 30.2698C135.056 30.3732 134.977 30.5838 134.977 30.9093V36.7491C134.977 37.4996 135.138 38.0242 135.459 38.3306C135.781 38.6331 136.306 38.7863 137.031 38.7863H139.335C140.02 38.7863 140.585 38.7441 141.031 38.6637C141.478 38.5833 141.854 38.4493 142.168 38.2693C142.477 38.0663 142.763 37.7868 143.022 37.4345C143.28 37.0784 143.586 36.5767 143.939 35.9296C144.084 35.6654 144.229 35.5352 144.374 35.5352C144.644 35.5352 144.777 35.6768 144.777 35.9602C144.777 36.2244 144.664 36.7759 144.436 37.6183C144.209 38.4608 144.001 39.0849 143.813 39.487C143.794 39.5291 143.762 39.5981 143.719 39.7015C143.676 39.8049 143.629 39.8776 143.578 39.9312C143.527 39.981 143.457 40.0078 143.375 40.0078C142.959 40.0078 141.133 39.9772 137.897 39.9159C136.466 39.8546 135.044 39.824 133.633 39.824C133.054 39.824 132.513 39.8546 132.015 39.9159C130.957 39.9772 130.303 40.0078 130.056 40.0078C129.453 40.0078 129.155 39.8968 129.155 39.6747V39.667Z" fill="white"/>
<path d="M159.326 38.6789C157.606 37.8173 156.219 36.6072 155.173 35.0449C154.127 33.4825 153.601 31.698 153.601 29.6915C153.601 27.6849 154.15 26.0191 155.251 24.4453C156.352 22.8753 157.822 21.6307 159.671 20.7194C161.517 19.808 163.499 19.3523 165.615 19.3523C166.693 19.3523 167.57 19.4097 168.244 19.5208C168.918 19.6318 169.89 19.8386 171.152 20.145C171.442 20.2254 171.653 20.3479 171.791 20.5088C171.924 20.6696 172.014 20.8955 172.053 21.1789C172.218 22.7604 172.312 23.9245 172.331 24.6751C172.351 24.7976 172.304 24.9048 172.19 24.9929C172.077 25.0848 171.947 25.1307 171.802 25.1307C171.532 25.1307 171.356 24.9891 171.273 24.7057C171.046 23.8326 170.791 23.1395 170.509 22.6225C170.231 22.1056 169.839 21.6767 169.342 21.3282C168.824 21.0027 168.193 20.75 167.461 20.5662C166.724 20.3824 165.933 20.2943 165.082 20.2943C163.507 20.2943 162.085 20.7002 160.819 21.512C159.553 22.3238 158.558 23.3922 157.833 24.721C157.108 26.0498 156.744 27.4628 156.744 28.9639C156.744 30.645 157.108 32.2648 157.833 33.8156C158.558 35.3665 159.569 36.6225 160.866 37.5875C162.163 38.5525 163.64 39.0312 165.302 39.0312C166.732 39.0312 167.943 38.7133 168.926 38.0739C169.91 37.4344 170.768 36.4885 171.493 35.2325C171.555 35.11 171.649 35.0142 171.771 34.9453C171.896 34.8764 172.01 34.8381 172.112 34.8381C172.237 34.8381 172.339 34.8802 172.421 34.9606C172.504 35.041 172.547 35.1636 172.547 35.3244C172.547 35.5695 172.453 36.0098 172.269 36.6455C172.08 37.285 171.896 37.8249 171.708 38.273C171.544 38.5563 171.418 38.7402 171.336 38.8206C171.254 38.901 171.046 38.9929 170.713 39.0925C169.988 39.3758 169.095 39.5941 168.037 39.7473C166.979 39.9004 165.909 39.977 164.832 39.977C162.88 39.977 161.046 39.5481 159.322 38.6865L159.326 38.6789Z" fill="white"/>
<path d="M178.413 39.1806C177.468 38.6522 176.724 37.9246 176.171 36.9903C175.623 36.0597 175.348 35.0143 175.348 33.8579C175.348 32.7014 175.654 31.6484 176.265 30.5723C176.877 29.4963 177.707 28.627 178.753 27.9569C179.8 27.2868 180.936 26.9536 182.162 26.9536C183.389 26.9536 184.423 27.2332 185.399 27.7884C186.375 28.3475 187.147 29.0942 187.719 30.04C188.291 30.9821 188.573 31.993 188.573 33.0652C188.573 34.2829 188.303 35.4164 187.762 36.4695C187.221 37.5225 186.426 38.3688 185.368 39.0083C184.31 39.6478 183.032 39.9656 181.539 39.9656C180.399 39.9656 179.357 39.7014 178.413 39.1768V39.1806ZM185.399 37.3885C185.814 36.5997 186.022 35.4011 186.022 33.8004C186.022 32.8278 185.834 31.8858 185.462 30.9744C185.089 30.063 184.568 29.324 183.906 28.7534C183.244 28.1867 182.484 27.9033 181.633 27.9033C181.03 27.9033 180.513 27.9952 180.078 28.1752C179.643 28.359 179.247 28.673 178.895 29.1172C178.522 29.5844 178.26 30.1549 178.115 30.8365C177.97 31.5143 177.895 32.2917 177.895 33.1609C177.895 34.1757 178.083 35.133 178.456 36.0329C178.828 36.9367 179.341 37.6642 179.996 38.2233C180.65 38.7824 181.379 39.0581 182.19 39.0581C183.745 39.0581 184.815 38.499 185.395 37.3847L185.399 37.3885Z" fill="white"/>
<path d="M190.411 39.6363C190.411 39.4946 190.465 39.3912 190.583 39.3338C190.697 39.2725 190.877 39.2112 191.128 39.15C191.606 39.0274 191.947 38.8934 192.154 38.7402C192.362 38.587 192.464 38.342 192.464 37.9935V31.3956C192.464 30.0591 191.998 29.3163 191.065 29.1746C190.857 29.1554 190.755 29.0214 190.755 28.7801C190.755 28.558 190.849 28.4355 191.034 28.4164C192.299 28.133 193.389 27.6275 194.302 26.8961C194.49 26.7544 194.635 26.6817 194.736 26.6817C194.862 26.6817 194.925 26.7315 194.925 26.8349C194.925 27.057 194.893 27.4437 194.831 27.9913C194.811 28.2364 194.772 28.6844 194.721 29.3431C194.67 30.0017 194.642 30.534 194.642 30.9399V37.9935C194.642 38.319 194.752 38.5602 194.968 38.7249C195.187 38.8857 195.524 39.0274 195.979 39.15C196.225 39.2112 196.41 39.2725 196.523 39.3338C196.637 39.395 196.696 39.4946 196.696 39.6363C196.696 39.8584 196.488 39.9694 196.073 39.9694C195.555 39.9694 195.117 39.9388 194.768 39.8775C194.309 39.8354 193.906 39.8163 193.553 39.8163C193.22 39.8163 192.828 39.8354 192.37 39.8775C192.037 39.9388 191.59 39.9694 191.034 39.9694C190.618 39.9694 190.411 39.8584 190.411 39.6363ZM192.417 23.7484C192.115 23.4536 191.966 23.0936 191.966 22.6686C191.966 22.2435 192.115 21.8529 192.417 21.558C192.719 21.2632 193.087 21.1177 193.522 21.1177C193.957 21.1177 194.356 21.2632 194.658 21.558C194.96 21.8529 195.109 22.2205 195.109 22.6686C195.109 23.1166 194.96 23.4536 194.658 23.7484C194.356 24.0433 193.98 24.1888 193.522 24.1888C193.063 24.1888 192.719 24.0433 192.417 23.7484Z" fill="white"/>
<path d="M198.032 39.6363C198.032 39.4946 198.083 39.3989 198.189 39.3491C198.29 39.2994 198.479 39.2343 198.749 39.15C199.184 39.0504 199.517 38.9202 199.744 38.7709C199.971 38.6177 200.085 38.3612 200.085 37.9974V31.4607C200.085 30.8136 200.011 30.3158 199.866 29.9711C199.721 29.6265 199.407 29.3929 198.933 29.2704C198.725 29.2091 198.624 29.0789 198.624 28.8759C198.624 28.6538 198.718 28.5313 198.902 28.5122C199.544 28.3513 200.089 28.1484 200.536 27.9033C200.982 27.6582 201.476 27.3442 202.013 26.9613C202.158 26.8617 202.272 26.8081 202.354 26.8081C202.456 26.8081 202.511 26.8809 202.511 27.0225L202.448 27.662C202.428 27.8229 202.405 28.022 202.385 28.2556C202.366 28.4892 202.354 28.7266 202.354 28.9717C202.354 29.1746 202.373 29.2972 202.416 29.3355C203.165 28.6462 203.941 28.1331 204.752 27.7999C205.563 27.4667 206.452 27.2983 207.428 27.2983C208.404 27.2983 209.258 27.7042 209.932 28.516C210.606 29.3278 210.943 30.3311 210.943 31.5258V38.0012C210.943 38.365 211.053 38.6139 211.268 38.7479C211.488 38.882 211.824 39.016 212.279 39.1577C212.526 39.2381 212.71 39.3147 212.824 39.3874C212.937 39.4602 212.996 39.5636 212.996 39.7053C212.996 39.8891 212.788 39.9771 212.373 39.9771C211.813 39.9771 211.366 39.9465 211.033 39.8852C210.618 39.8431 210.234 39.824 209.881 39.824C209.548 39.824 209.156 39.8431 208.698 39.8852C208.365 39.9465 207.91 39.9771 207.33 39.9771C206.915 39.9771 206.707 39.8852 206.707 39.7053C206.707 39.5636 206.766 39.4564 206.88 39.3874C206.993 39.3147 207.173 39.2419 207.424 39.1577C207.879 39.016 208.216 38.8781 208.435 38.7479C208.655 38.6177 208.76 38.3688 208.76 38.0012V31.6139C208.76 30.7408 208.506 30.0515 207.996 29.5461C207.487 29.0406 206.809 28.7764 205.959 28.7572C204.673 28.7572 203.521 29.1631 202.507 29.975C202.342 30.1358 202.256 30.3694 202.256 30.6757V38.005C202.256 38.3688 202.369 38.6292 202.597 38.7786C202.824 38.9317 203.157 39.0581 203.592 39.1577C203.839 39.2189 204.023 39.284 204.137 39.3568C204.25 39.4295 204.309 39.5253 204.309 39.644C204.309 39.8661 204.101 39.9771 203.686 39.9771C203.145 39.9771 202.699 39.9465 202.346 39.8852C201.888 39.8431 201.496 39.824 201.163 39.824C200.83 39.824 200.438 39.8431 199.979 39.8852C199.646 39.9465 199.2 39.9771 198.643 39.9771C198.228 39.9771 198.02 39.8661 198.02 39.644L198.032 39.6363Z" fill="white"/>
<g clip-path="url(#clip0_2010_2)">
<path d="M18.9388 22.6371C18.7134 22.9681 18.5644 23.3702 18.4899 23.7368C18.4154 24.1763 18.4518 24.6176 18.6026 25.0571V25.388C18.6771 25.461 18.7897 25.4984 18.8643 25.4984C19.0133 25.3525 19.1641 25.2777 19.3513 25.2421C19.6874 25.2795 20.0254 25.2048 20.3616 25.0589C20.5488 25.0962 20.736 25.1318 20.8868 25.1692C21.4865 25.3525 21.9735 25.6834 22.3478 26.1603C22.8348 26.5268 23.0601 27.0037 22.9838 27.518C22.833 27.7386 22.6458 27.9575 22.4587 28.1407C22.2715 28.324 22.1207 28.5073 21.9717 28.6906C21.6337 28.9112 21.4101 29.2048 21.3356 29.534C21.223 29.7902 21.0358 29.9735 20.7741 30.0109C20.4743 30.0838 20.2126 30.1941 19.9873 30.3774C19.8746 30.4148 19.8365 30.4504 19.8001 30.4877C19.6874 30.671 19.5748 30.8187 19.4639 30.9646C19.3149 31.2208 19.1641 31.4415 19.0514 31.6977C18.9024 31.9183 18.8261 32.1372 18.7516 32.3578C18.6008 32.5785 18.4899 32.7973 18.4899 32.9806C18.4154 33.018 18.3772 33.0909 18.3772 33.2013C18.2646 33.4219 18.1901 33.6408 18.1519 33.824C18.0774 33.8614 18.0392 33.824 18.0392 33.7511C18.1519 33.018 18.3009 32.2831 18.4881 31.5144C18.4881 31.3311 18.5263 31.1852 18.6008 31.0002C18.6008 30.9628 18.6008 30.9272 18.5626 30.8543C18.4881 30.9272 18.4499 30.8916 18.4499 30.8169C18.1138 30.8543 17.8503 30.7439 17.6631 30.5233C17.1016 29.9361 16.5401 29.3863 15.9767 28.8365C15.9386 28.7635 15.9022 28.7261 15.8641 28.6532C15.7896 28.5429 15.7896 28.4325 15.9386 28.324C15.7514 28.1763 15.6006 28.0304 15.4897 27.8098C15.4897 27.7368 15.5279 27.6994 15.6387 27.6265C15.6387 27.6514 15.6515 27.6514 15.6769 27.6265V27.2973C15.7514 27.2973 15.7896 27.3347 15.8277 27.3347V27.114C15.9022 27.114 15.9404 27.1514 15.9767 27.1514C16.0149 27.114 16.0149 27.0784 16.0149 27.0411C16.0531 27.0411 16.0894 27.0784 16.1276 27.0784C16.4656 26.6745 16.7272 26.1977 16.9526 25.7208C17.0652 25.5375 17.1397 25.3542 17.2142 25.1336C17.4014 24.84 17.5886 24.5108 17.7758 24.2172C17.7758 24.1443 17.7758 24.1069 17.8139 24.0339C18.1883 23.4841 18.5626 22.9699 18.9006 22.4201C18.9751 22.2368 19.0878 22.0891 19.2004 21.9432H19.1623V21.8702H19.2004C19.1623 22.0909 19.0878 22.3097 19.0133 22.493C18.9388 22.493 18.9388 22.566 18.9388 22.6389V22.6371ZM40.5888 13.6887C40.7378 13.7261 40.9268 13.7616 41.0758 13.799C41.6009 14.0926 42.0498 14.4592 42.4241 14.936C42.4986 15.009 42.5368 15.0819 42.6113 15.1567C43.0238 15.2296 43.3236 15.4129 43.6235 15.7439C43.7361 15.9271 43.7725 16.1104 43.7725 16.2937C43.698 16.4396 43.6235 16.5873 43.5472 16.6976C43.4726 16.7706 43.3981 16.8435 43.3218 16.8809C43.2092 16.9538 43.1347 16.9912 43.022 17.0642C42.873 17.1371 42.7603 17.2118 42.6476 17.2848C42.535 17.3222 42.4223 17.3577 42.2733 17.3951L42.1988 17.4681V17.4307C42.1606 17.5037 42.0861 17.541 42.0116 17.541C41.9862 17.5659 41.9735 17.5659 41.9735 17.541C41.899 17.5784 41.8608 17.614 41.8608 17.6513H41.899C41.8245 17.7243 41.7863 17.7617 41.7118 17.799C41.6736 17.872 41.6373 17.9094 41.5628 17.9449C41.5246 17.9449 41.5246 17.9823 41.4883 17.9823C41.4519 17.9823 41.4501 18.0197 41.4138 18.0197C41.4519 18.057 41.4883 18.057 41.5264 18.0197V18.057C41.4883 18.13 41.4519 18.1674 41.4138 18.2403C41.3011 18.4236 41.1884 18.5713 40.9649 18.5713C40.8141 18.6816 40.6651 18.7546 40.5161 18.8275H40.4034C40.1036 18.9752 39.8037 19.0837 39.5421 19.1941C39.4294 19.2314 39.3167 19.2314 39.2422 19.1567C38.9806 19.1567 38.7552 19.1941 38.5299 19.3026C38.4172 19.34 38.3427 19.34 38.2682 19.3026C38.1937 19.3756 38.1192 19.3756 38.0429 19.34C37.9666 19.3044 37.9302 19.3026 37.8557 19.267C37.8557 19.3044 37.8176 19.3044 37.7812 19.267C37.8557 19.2296 37.8557 19.1567 37.7812 19.1211C37.4814 19.1941 37.2197 19.3417 36.9944 19.5606C36.62 19.7812 36.2457 20.0001 35.9077 20.1478V20.1104C35.5333 20.2208 35.2335 20.3311 34.9718 20.477C35.159 20.6247 35.3843 20.7332 35.6078 20.7706C35.9822 20.9912 36.3202 21.2475 36.6182 21.5037C36.6564 21.5766 36.7309 21.5766 36.8054 21.541C36.8435 21.541 36.8799 21.4681 36.918 21.3951C37.0307 21.4325 37.1052 21.4325 37.2542 21.4325C37.2161 21.4325 37.2161 21.3951 37.2542 21.3596C37.5541 21.3969 37.8539 21.4325 38.1537 21.5055C39.3149 22.0197 40.4379 22.6425 41.5246 23.34C41.7118 23.5233 41.9371 23.7065 42.1606 23.8542C42.4223 24.1105 42.7221 24.4041 43.022 24.6603C43.3963 25.0642 43.6962 25.5037 43.9215 25.9806C44.0705 26.2368 44.2213 26.5304 44.2958 26.824C44.334 27.0073 44.3703 27.155 44.4085 27.3009C44.5212 27.6674 44.5212 28.034 44.483 28.4005C44.4448 28.4379 44.4085 28.5108 44.4448 28.5464C44.3322 28.7297 44.1832 28.8774 43.996 28.9503C43.9215 29.0233 43.8833 29.1336 43.9215 29.2066C43.9215 29.2439 43.9597 29.2439 43.9597 29.2439V29.8667C43.9597 29.9041 43.9215 30.1977 43.8852 30.7831C43.8852 31.4059 43.847 32.2493 43.847 33.3863C43.847 33.3863 43.8088 33.4966 43.8088 33.7173V34.6337C43.7707 34.7813 43.7343 34.8899 43.7343 35.0376C43.6598 35.2582 43.6217 35.5144 43.6217 35.7351V35.8454C43.6217 36.3223 43.5835 36.7991 43.5835 37.2387C43.7325 37.7529 43.7707 38.2298 43.6962 38.7049V39.4753C43.658 39.5483 43.658 39.6212 43.7343 39.696C43.7725 40.2458 43.7725 40.833 43.7343 41.3828C43.6962 41.5287 43.6217 41.639 43.509 41.6764C43.4345 41.6764 43.3963 41.639 43.4708 41.5305H43.3963C43.3582 41.6034 43.3218 41.6408 43.3218 41.6408C43.2837 41.6408 43.2837 41.6034 43.2837 41.5679C43.171 41.7138 43.0583 41.7885 42.9457 41.8615C42.9457 42.0447 42.9838 42.1906 43.0202 42.3757C42.9457 42.5216 42.9457 42.6693 43.0202 42.8152C42.9457 42.9629 42.8712 43.1462 42.7948 43.2921C42.7203 43.3294 42.6458 43.365 42.6077 43.438C42.6077 43.5483 42.5695 43.6213 42.495 43.6586C42.346 43.7316 42.2333 43.8045 42.1952 43.9149C41.8572 43.9522 41.7082 44.0981 41.67 44.3544C41.5955 44.648 41.5573 44.9415 41.521 45.1978C41.4828 45.2351 41.4465 45.3081 41.4083 45.3455C41.3338 45.3455 41.2957 45.3455 41.2593 45.3081C41.2211 45.3455 41.2211 45.3811 41.2211 45.4184C41.1466 45.3081 41.0721 45.2725 40.9213 45.2725C40.7705 45.1996 40.6596 45.1996 40.5088 45.2725V45.4184C40.3598 45.3081 40.2471 45.3455 40.2471 45.4558C40.1726 45.4558 40.0963 45.4558 40.0218 45.4931C39.9836 45.5661 39.9836 45.6391 39.9473 45.7138C39.9091 45.7512 39.8728 45.7867 39.9091 45.8241C39.871 45.7867 39.7965 45.7867 39.7601 45.8615C39.722 45.8988 39.6475 45.8988 39.6093 45.8988C39.4603 45.7156 39.2731 45.5323 39.1223 45.3117C38.7843 44.9077 38.4481 44.5412 38.1101 44.1746C37.6976 43.6248 37.2869 43.075 36.8744 42.5607C36.5001 42.2298 36.0131 42.0839 35.4516 42.1942C35.2262 42.1568 35.0391 42.1942 34.8519 42.3045C34.7029 42.2672 34.5521 42.3045 34.4776 42.3775C34.4394 42.5607 34.3649 42.6711 34.2904 42.744V42.7814C33.9905 42.9647 33.7289 43.1124 33.3909 43.1853C33.2037 43.2583 33.0165 43.2956 32.8657 43.2956C32.7167 43.333 32.604 43.3686 32.5295 43.333C32.1552 43.1871 31.8172 43.0768 31.4428 42.9291C31.1048 42.6728 30.7687 42.3793 30.4688 42.0483C30.169 41.7921 29.8692 41.4985 29.682 41.1319C29.6438 41.0216 29.6438 40.9113 29.7202 40.7654C29.682 40.728 29.7201 40.655 29.7583 40.6195C29.7965 40.5839 29.8328 40.5821 29.871 40.5465C29.9455 40.4362 29.9455 40.2903 29.871 40.1426C29.7965 40.0323 29.7583 39.8864 29.7583 39.7387C29.7965 39.776 29.8328 39.7387 29.871 39.7013L29.9091 39.6639C29.8346 39.6266 29.8346 39.591 29.871 39.518L29.9091 39.4807V39.6266H29.9473C29.9855 39.26 30.1345 38.9664 30.4343 38.7102C30.4725 38.6372 30.4725 38.5643 30.5088 38.4895C30.6215 38.4895 30.6596 38.4166 30.696 38.2689C30.5452 38.2315 30.3961 38.1586 30.2471 38.1586C30.1345 38.0856 30.0218 37.9753 29.9473 37.865C29.5348 37.4984 29.1605 37.0945 28.7861 36.6906C28.7116 36.3241 28.8243 36.0678 29.0859 35.8098C29.235 35.6639 29.4603 35.4806 29.6856 35.2956C29.6856 35.2226 29.7601 35.1497 29.8728 35.1123C30.2471 34.7458 30.547 34.3418 30.885 33.865V33.8276C30.736 33.9006 30.6233 33.9379 30.5106 34.0109C30.4361 34.0482 30.398 34.0482 30.398 33.9735C30.3598 34.0109 30.3235 34.0109 30.3235 34.0109C30.2853 34.0109 30.2853 33.9735 30.2853 33.9379C30.06 34.0109 29.7983 34.0482 29.6111 34.1212C29.5366 34.1941 29.4985 34.2689 29.4985 34.3045H29.3476V34.3418C29.1605 34.4148 29.0478 34.3792 29.0114 34.1959C28.8243 34.1586 28.6734 34.123 28.5244 34.0482C28.4499 34.0482 28.3754 34.0856 28.3373 34.1586C28.2246 34.1586 28.1119 34.1212 28.0374 34.1212C27.6631 33.792 27.4014 33.3881 27.2887 32.9112C27.2506 32.7653 27.2887 32.6176 27.3633 32.5073C27.4378 32.4344 27.4759 32.3614 27.4759 32.2137C27.4378 32.2867 27.4759 32.2867 27.5141 32.2511L27.5522 32.2137C27.5268 32.2137 27.5141 32.2013 27.5141 32.1763C27.5141 32.2493 27.5522 32.2493 27.5886 32.2137C27.6267 32.1408 27.6267 32.0678 27.5886 31.9931C27.4396 32.2137 27.3269 32.4326 27.2524 32.6532C27.1779 32.6906 27.1397 32.6532 27.1034 32.5803C27.1034 32.2867 27.1416 31.9931 27.3287 31.6995C27.6286 31.187 27.9284 30.6728 28.2646 30.1585C27.9266 29.6087 27.7776 29.0589 27.8521 28.3987C27.8266 28.3738 27.8139 28.3495 27.8139 28.3258C27.7394 28.5091 27.6631 28.6923 27.5522 28.84C27.0271 29.0607 26.6164 29.3899 26.4292 29.8667C26.5037 30.123 26.58 30.381 26.6545 30.5998C26.5419 30.7831 26.5055 30.9664 26.58 31.1141C26.5055 31.2617 26.4292 31.3703 26.3547 31.445C26.3547 31.7013 26.2802 31.9219 26.093 32.0678C26.0549 32.1052 26.0549 32.1408 26.0549 32.1408C26.0549 32.1657 26.0676 32.1781 26.093 32.1781C26.0549 32.2884 26.0185 32.324 25.944 32.2884C25.8695 32.4717 25.7932 32.6194 25.6824 32.6924C25.5333 32.8027 25.457 32.913 25.4207 33.0233C25.5697 33.3169 25.5697 33.6461 25.4207 33.9771C25.4207 34.1977 25.4207 34.4166 25.4952 34.6372C25.5333 34.8205 25.6078 34.9682 25.7205 35.1141C25.9458 34.7475 26.2075 34.381 26.5074 33.9771H26.5819C26.5074 34.3436 26.431 34.6746 26.282 34.9682C26.2075 35.0785 26.1694 35.1515 26.0949 35.2244C26.1694 35.7013 26.3947 36.1781 26.6564 36.655C26.7309 36.8383 26.8435 37.0589 26.9562 37.2048C27.2942 37.865 27.6685 38.5251 28.0792 39.1479C28.1174 39.2582 28.1919 39.3686 28.3046 39.4789C28.4536 39.7351 28.6044 40.0661 28.7534 40.3597C28.7916 40.47 28.8279 40.5429 28.8661 40.6533C28.9042 40.7636 28.9042 40.8739 28.8661 40.9824C28.8661 41.1657 28.8279 41.3134 28.7171 41.422C28.5299 41.422 28.3427 41.4593 28.1919 41.4949V41.5679C28.1919 41.6052 28.2301 41.6052 28.2664 41.5679C28.2664 41.6782 28.2664 41.7511 28.1919 41.8241C27.8921 41.897 27.5922 41.9344 27.3305 41.897C26.9562 41.7867 26.5819 41.7138 26.2075 41.5661C25.8332 41.3454 25.4952 41.0518 25.1953 40.7227C25.0463 40.5394 24.8955 40.3561 24.7083 40.2084C24.5575 40.0981 24.483 39.9522 24.4085 39.7689V39.623C24.3703 39.292 24.3703 39.0002 24.4085 38.7066L24.4467 38.6693C24.3722 38.5589 24.334 38.4486 24.2977 38.3027C24.1486 38.1924 23.9978 38.0091 23.8852 37.8258C23.7361 37.7155 23.6598 37.5696 23.7361 37.3116C23.7361 37.1657 23.7361 36.9806 23.6616 36.7618C23.6235 36.6159 23.5871 36.4308 23.5126 36.2475C23.4745 35.9913 23.4 35.7333 23.4 35.4415C23.3618 35.4415 23.3618 35.4041 23.3618 35.3685C23.2873 34.929 23.2873 34.4522 23.3618 33.9753C23.5126 33.6461 23.6616 33.2422 23.7361 32.8383C23.9615 32.1781 24.1486 31.5553 24.3358 30.8578C24.374 30.7849 24.4103 30.6372 24.4485 30.4913C24.4866 30.308 24.523 30.1247 24.5975 29.9415C24.672 29.7582 24.7102 29.5749 24.7483 29.3916C24.8228 29.0624 24.9355 28.7315 25.0482 28.4379C25.1972 28.3276 25.3862 28.2172 25.5352 28.1443C25.6478 28.1069 25.7968 28.034 25.9477 27.9984C26.0603 27.9984 26.173 27.9984 26.322 28.0713C26.5092 28.034 26.6963 27.961 26.8472 27.8151C27.0725 27.5589 27.296 27.3009 27.5595 27.082C27.5977 27.0091 27.5977 26.9361 27.5977 26.8258C27.5595 26.4592 27.5595 26.0553 27.5232 25.7261V24.2226C27.6358 23.856 27.823 23.4895 28.0483 23.1585C27.9357 23.1585 27.8612 23.1959 27.8612 23.2688C27.7867 23.3418 27.7122 23.3791 27.7122 23.4521C27.4868 23.7083 27.2633 23.929 27.038 24.1852C27.038 24.1603 27.0253 24.1478 26.9998 24.1478C26.5873 24.3685 26.2875 24.6603 26.064 25.0286C25.9513 25.066 25.915 25.1016 25.9513 25.1389V25.066C25.8005 25.2119 25.6896 25.3596 25.6133 25.5429C25.5751 25.5802 25.5751 25.6158 25.5751 25.6888C25.5751 25.7261 25.537 25.7617 25.537 25.7991C25.537 25.7991 25.4988 25.7617 25.4988 25.7261C25.4243 25.7635 25.4243 25.7991 25.4607 25.872C25.0863 26.3489 24.8246 26.8987 24.6738 27.5233H24.6357C24.523 27.5962 24.4485 27.7066 24.4103 27.7795C24.4103 27.8044 24.423 27.8169 24.4485 27.8169C24.523 27.7795 24.5975 27.671 24.6738 27.5233C24.7865 27.4503 24.8991 27.3026 25.0482 27.1194C25.1972 26.9361 25.348 26.7528 25.4607 26.4966C25.4988 26.4966 25.5352 26.4966 25.5733 26.4592C25.9113 25.9468 26.322 25.4699 26.7727 24.993V25.0304C26.8853 24.8845 26.998 24.7742 27.147 24.6265C27.1088 24.6994 27.0725 24.7742 26.9962 24.7742C26.9217 24.9201 26.8472 25.0678 26.7345 25.2137V25.1763C26.7345 25.2137 26.6963 25.2493 26.66 25.2493C26.4728 25.5055 26.322 25.7635 26.2112 26.0197C26.1367 26.0197 26.0985 26.0571 26.0985 26.0571C26.0985 26.13 26.0985 26.1674 26.173 26.1674C26.2112 26.0945 26.2857 25.9841 26.3602 25.9112V25.9841C26.322 25.9841 26.322 25.9468 26.322 25.9468C26.2475 25.9841 26.2475 26.0571 26.2838 26.0927C26.2093 26.13 26.2093 26.1656 26.2093 26.203V26.2404C26.1348 26.2404 26.0967 26.2777 26.0967 26.3507V26.0945C25.984 26.2048 25.9477 26.3151 25.9477 26.3881C25.9858 26.4254 25.9858 26.461 26.0222 26.4984C25.984 26.5357 25.9477 26.6087 25.9477 26.6816C25.8732 26.792 25.835 26.9023 25.7968 26.9752C25.8223 26.9752 25.8471 26.9628 25.8713 26.9379C25.8332 26.9752 25.8332 27.0108 25.7968 27.0108H25.7587C25.7205 27.1585 25.6842 27.2315 25.6097 27.3044C25.497 27.4503 25.4225 27.5607 25.348 27.7083C25.348 27.8187 25.3098 27.8916 25.1972 27.8916C25.1227 28.0749 25.01 28.2955 24.9355 28.4788L24.7865 28.6247C24.7483 28.6977 24.712 28.7706 24.712 28.8454C24.225 29.6158 23.8125 30.3863 23.4018 31.155C23.4018 31.2279 23.3636 31.2653 23.3273 31.3027C23.0656 31.8525 22.7658 32.3667 22.4278 32.8062V32.8436C22.1279 33.2102 21.9026 33.6141 21.7154 33.9806C21.5283 34.3472 21.4156 34.6781 21.3029 35.0447C21.3411 35.0073 21.3774 34.9717 21.3774 34.9344C21.4156 34.9344 21.4156 34.9717 21.4156 35.0073C21.3411 35.0073 21.3029 35.0447 21.3411 35.1176C21.2666 35.155 21.2284 35.1906 21.2666 35.228C21.1539 35.5945 21.0794 35.9255 21.1176 36.292C21.0431 36.5856 20.9667 36.8792 20.9304 37.1354C20.8922 37.3187 20.8922 37.502 20.9304 37.6853C20.8922 37.7582 20.8922 37.7956 20.8922 37.8312C21.0049 37.9771 21.0049 38.1604 20.9304 38.3081C20.9304 38.4184 20.9304 38.4913 20.8922 38.5287C20.7796 38.8223 20.6306 39.1159 20.4797 39.3721C20.4052 39.6657 20.3671 39.9219 20.3671 40.2155C20.2926 40.3988 20.2544 40.5821 20.1799 40.7298C20.1799 40.7671 20.2181 40.8401 20.2544 40.913C20.1799 40.9504 20.1799 40.986 20.2544 41.0234C20.2162 41.244 20.2544 41.4273 20.3671 41.5732C20.2926 41.6835 20.2926 41.7938 20.3671 41.8668C20.3671 41.9771 20.3671 42.0501 20.4416 42.0874C20.3671 42.1978 20.3671 42.2707 20.4416 42.3081C20.4416 42.6017 20.2926 42.8223 20.0291 42.9682C20.0291 42.9931 20.0418 43.0056 20.0672 43.0056C19.6184 43.2262 19.1677 43.2618 18.6807 43.1159C18.5681 43.1159 18.4935 43.0785 18.419 43.0056C18.1192 42.8953 17.8575 42.7494 17.6322 42.5287C17.5195 42.4184 17.3705 42.3454 17.2579 42.2725C17.0325 42.1622 16.809 42.0163 16.6218 41.9059C16.5473 41.833 16.4728 41.7956 16.3602 41.76C16.1348 41.6123 15.9477 41.3935 15.7987 41.1373C15.537 40.881 15.4607 40.5874 15.537 40.2565C15.4988 40.1835 15.4988 40.1106 15.5751 40.0358C15.6878 39.8525 15.7623 39.6693 15.8368 39.4486C15.9113 39.2654 16.024 39.155 16.173 39.0447C16.3602 38.8614 16.4728 38.6782 16.5855 38.3846C16.7345 38.1283 16.9235 37.8703 17.0725 37.6141C17.2215 37.5038 17.3342 37.3205 17.4087 37.1016C17.5214 36.8454 17.5959 36.5874 17.6704 36.2938C17.7449 36.1479 17.783 36.0002 17.8194 35.8169C17.8575 35.4878 17.8939 35.1568 17.932 34.8276C17.9702 34.7547 17.9702 34.6799 18.0065 34.607C18.1937 33.5429 18.6062 32.5892 19.2422 31.7457C19.3167 31.6728 19.3549 31.5998 19.3931 31.5251C19.3931 31.55 19.4058 31.5625 19.4312 31.5625C19.4694 31.5251 19.4694 31.4521 19.4694 31.4166H19.5439L19.582 31.3792C19.6202 31.3418 19.6947 31.3062 19.7311 31.2333C19.6565 31.3436 19.582 31.4166 19.4694 31.4539C19.4694 31.5642 19.4312 31.6746 19.3949 31.7475C19.244 31.9682 19.095 32.2244 18.9824 32.445C18.9442 32.6283 18.9079 32.7742 18.8334 32.9575C18.8715 33.1408 18.8715 33.2885 18.8334 33.4717C18.7589 33.6194 18.7589 33.7653 18.7589 33.9112C18.7334 33.9112 18.7207 33.8988 18.7207 33.8739C18.6462 33.9468 18.6462 34.0571 18.6825 34.1301C18.608 34.1675 18.5699 34.2404 18.5699 34.3134C18.4954 34.4966 18.4954 34.6799 18.5699 34.8276C18.4954 35.0482 18.4954 35.2315 18.5317 35.4148C18.5317 35.4148 18.5699 35.3418 18.6062 35.2671C18.6062 35.3401 18.6062 35.4148 18.6807 35.4504C19.3167 34.276 19.9909 33.139 20.7778 32.0767C21.1903 31.5269 21.5646 30.977 21.9389 30.4254L21.9771 30.3881L21.9389 30.3507C22.0516 30.2404 22.1261 30.1301 22.1643 30.0215C22.3514 29.8383 22.5023 29.655 22.6894 29.4343C22.7276 29.397 22.7276 29.3614 22.7639 29.2884C23.4381 28.5909 23.9996 27.8222 24.5611 27.0144C24.712 26.7208 24.861 26.4646 25.0482 26.171C25.1227 26.1336 25.1608 26.0606 25.1608 25.9877C25.2353 25.8774 25.348 25.7671 25.4225 25.6567L25.3843 25.6194C25.4588 25.582 25.497 25.5464 25.5333 25.509C25.5333 25.509 25.4952 25.509 25.4952 25.4717C25.6078 25.3987 25.6824 25.2884 25.7205 25.1781C25.746 25.203 25.7708 25.203 25.795 25.1781C25.795 25.1407 25.795 25.1051 25.7569 25.1407C25.8314 25.0678 25.9077 24.9948 25.9822 24.8845C26.0076 24.9331 26.0325 24.9331 26.0567 24.8845L26.0949 24.8115C26.0694 24.8115 26.0567 24.7991 26.0567 24.7742C26.0567 24.8228 26.044 24.8471 26.0185 24.8471H25.9804C26.0185 24.8471 26.0549 24.8098 26.0549 24.7368V24.7742C26.0549 24.7742 26.0549 24.7368 26.093 24.6638C26.093 24.7012 26.1312 24.7368 26.1675 24.7368V24.5909C26.1675 24.6395 26.1924 24.652 26.242 24.6283L26.2802 24.5909H26.242C26.3911 24.445 26.5419 24.2617 26.6909 24.0411L26.7291 24.0037C26.7672 24.0037 26.8036 23.9663 26.8036 23.9307C27.4396 23.3436 28.0029 22.6478 28.4899 21.9129H28.5281C28.5662 21.9129 28.6026 21.8756 28.6026 21.84C28.6026 21.9129 28.5644 21.9503 28.5644 21.9859C28.4154 22.1692 28.3391 22.3151 28.3391 22.5001C28.3009 22.646 28.2264 22.7937 28.1883 22.9396C28.3009 22.8293 28.4499 22.6834 28.5263 22.5357C28.6389 22.388 28.7516 22.2421 28.9006 22.0962C29.2004 21.7297 29.5366 21.3987 29.911 21.1051C30.1363 21.0321 30.3235 20.9592 30.5851 20.8845C30.8468 20.9218 31.1103 21.0304 31.2975 21.2136C31.5228 21.1033 31.7845 21.0304 32.0462 20.9574C32.0843 21.0304 32.1588 21.1033 32.2715 21.1033C32.4968 20.8471 32.7585 20.5535 32.9457 20.2599C32.833 20.2973 32.684 20.3329 32.6095 20.3329C32.197 20.4432 31.8226 20.4788 31.4865 20.5161C31.3738 20.5891 31.2611 20.6265 31.1866 20.6265C30.8868 20.6994 30.6251 20.7368 30.3634 20.7724H30.2889C29.9146 20.7724 29.5766 20.7724 29.2768 20.735C29.0151 20.7724 28.8279 20.735 28.6407 20.5873C27.8176 20.0001 27.0307 19.3773 26.2439 18.7901C26.0949 18.7528 26.0567 18.6442 26.0567 18.4965C26.0185 18.3506 26.0949 18.2029 26.2057 18.057C26.2057 17.9111 26.2439 17.8008 26.3929 17.6905V17.6175C26.4674 17.5802 26.5055 17.5802 26.5055 17.5446H26.4674C26.6182 17.4343 26.8054 17.2884 26.9544 17.1407C26.9925 17.0303 27.0671 16.9574 27.1416 16.8844C27.1797 16.7741 27.2906 16.7012 27.4414 16.7012C27.4796 16.6282 27.5541 16.5908 27.6286 16.6638C27.7031 16.6638 27.8539 16.6264 28.0029 16.6264C28.1901 16.6264 28.4154 16.6638 28.6389 16.6638C28.8261 16.6638 29.0133 16.7012 29.2004 16.8097C30.0618 16.993 30.9231 17.0303 31.8226 16.8827C31.9735 16.8097 32.1225 16.7723 32.3096 16.7367C32.6095 16.6638 32.9457 16.5535 33.2837 16.4805C33.8833 16.3346 34.483 16.1513 35.0809 15.8933C35.4552 15.6727 35.9041 15.4538 36.3166 15.3061C36.5037 15.1602 36.6546 14.977 36.8417 14.7937C36.9544 14.6834 37.0289 14.573 36.9907 14.3898C36.9907 14.3168 37.0289 14.2438 37.1034 14.0962C37.1034 14.0962 37.1416 14.0588 37.1416 13.9858C37.0671 13.9858 37.067 13.9129 37.1034 13.8399C37.1034 13.8399 37.1034 13.8026 37.1779 13.767C37.0652 13.767 37.0289 13.767 37.1034 13.694C37.2524 13.694 37.3651 13.5837 37.4032 13.4378C37.3287 13.4004 37.3287 13.3648 37.3287 13.3648C37.4777 13.3275 37.5904 13.2545 37.6649 13.1086C37.8139 13.0712 38.0029 13.0357 38.2264 13.0357V12.9983C38.4136 13.0357 38.6389 13.0712 38.9006 13.0712C39.4621 13.2172 40.0236 13.4004 40.587 13.694L40.5888 13.6887ZM24.0705 16.3293C24.4085 16.6229 24.632 16.9521 24.8573 17.3204C25.0064 17.5766 25.0827 17.8346 25.1572 18.1264C25.308 18.5304 25.3825 18.9699 25.3825 19.4467C25.3825 19.6674 25.4952 19.8862 25.6442 20.0339C25.606 20.1816 25.606 20.2901 25.606 20.3649C25.5315 20.5855 25.457 20.7688 25.3807 20.9521C25.1935 21.1727 24.9682 21.356 24.7447 21.3916C24.632 21.5375 24.5194 21.6478 24.4067 21.6478C24.2195 21.7581 23.9942 21.7955 23.807 21.7955C23.658 21.8329 23.5453 21.7955 23.4327 21.7225C23.2073 21.7225 22.9838 21.6496 22.7967 21.5019C22.684 21.4289 22.5713 21.3916 22.4223 21.3916C22.197 21.2813 22.0098 21.1709 21.8226 21.025C21.6718 20.9147 21.561 20.8418 21.4483 20.7688C21.2611 20.7688 21.1485 20.6958 21.074 20.5855C20.8868 20.5126 20.6996 20.5126 20.5124 20.5855C20.3253 20.6958 20.1744 20.8062 20.0636 20.9165C20.0139 20.9165 19.9891 20.904 19.9891 20.8791C19.6511 20.9521 19.3894 21.1727 19.2404 21.4289H19.1277C19.1659 21.1354 19.2023 20.8062 19.2768 20.4752C19.4276 19.961 19.3894 19.4111 19.1277 18.8987C19.0532 18.6425 18.9406 18.3844 18.8661 18.1656C18.6789 17.9449 18.5662 17.7261 18.5662 17.4325C18.6789 17.2118 18.7534 16.993 18.8279 16.7723V16.662C18.9406 16.5891 19.0151 16.4787 19.0896 16.3311C19.1641 16.2581 19.2386 16.1851 19.3894 16.1478C19.5384 16.0375 19.6893 15.8915 19.8019 15.7083C19.9528 15.525 20.1399 15.3417 20.3634 15.1584C20.4761 15.0855 20.6251 15.0125 20.7759 14.9752C21.1139 14.9752 21.4883 15.0125 21.8626 15.0125C22.7985 15.1584 23.549 15.5997 24.0723 16.3328L24.0705 16.3293ZM22.6476 29.8258C22.4986 30.0091 22.386 30.1194 22.3115 30.2653C22.1988 30.4112 22.1243 30.5945 22.0861 30.7422C22.1243 30.5945 22.1988 30.4859 22.3115 30.3756C22.4241 30.1923 22.5368 30.0091 22.6476 29.8258ZM28.3409 30.4486V30.4859C28.2664 30.6692 28.1537 30.8525 28.0792 31.0002C28.0047 31.1479 27.9302 31.2938 27.8539 31.4041C27.7412 31.6247 27.6667 31.808 27.6286 31.9913C27.6667 32.0287 27.7412 32.0642 27.8539 32.0642V32.0269C27.8539 31.9782 27.8787 31.9658 27.9284 31.9895C28.0029 31.7689 28.1537 31.5856 28.3409 31.4397C28.4536 31.3667 28.5662 31.2564 28.7152 31.1461C28.5662 30.9254 28.4154 30.7066 28.3409 30.4486ZM33.3218 21.3898C32.873 21.7937 32.4605 22.2332 32.0861 22.7101C31.9735 22.856 31.8245 22.9307 31.6373 22.9307C31.5628 22.9681 31.5246 23.0411 31.4883 23.114C31.2629 23.5909 31.1139 24.1033 31.0758 24.6176C31.0758 24.9485 31.1139 25.2404 31.2629 25.5713C31.3011 25.8276 31.3375 26.0856 31.3756 26.3418C32.1988 25.719 32.9856 25.0589 33.7725 24.3987C33.7725 23.8115 33.8106 23.5179 33.847 23.4823C33.847 23.3364 33.8088 23.1532 33.7725 22.9699C33.8106 22.6033 33.7725 22.2368 33.7343 21.8329C33.6217 21.7599 33.5472 21.6122 33.5472 21.3934C33.5853 21.356 33.6598 21.283 33.7343 21.1727C33.5835 21.2457 33.4345 21.3204 33.3218 21.3934V21.3898ZM33.7343 25.9005C33.2092 26.3044 32.6476 26.7083 32.0861 27.0749C31.7863 27.1478 31.6373 27.3311 31.6373 27.5518C31.6373 27.7724 31.7118 27.9183 31.7863 27.9913C31.7863 28.1016 31.7863 28.1372 31.7118 28.1745C31.7372 28.1995 31.75 28.2238 31.75 28.2475C31.7881 28.2101 31.8245 28.1745 31.9008 28.1372V28.5411C31.8263 28.5411 31.75 28.5411 31.6754 28.5037C31.5264 28.9076 31.4138 29.3098 31.4138 29.7137C32.1261 29.1639 32.724 28.5037 33.1365 27.6959C33.3618 27.2564 33.5108 26.7795 33.6235 26.2279C33.6616 26.155 33.698 26.0073 33.7361 25.8969L33.7343 25.9005ZM37.2542 23.9201C36.9925 23.9574 36.7672 23.993 36.5055 24.0304V24.5446C36.5055 24.6176 36.4674 24.6905 36.431 24.7653C36.431 25.0215 36.3929 25.2421 36.3929 25.4254C36.3929 25.4628 36.3547 25.4628 36.3184 25.4628H36.3565C36.3565 25.719 36.3184 25.977 36.3184 26.2332C36.3184 26.3062 36.3565 26.3436 36.3929 26.3792C36.3184 26.5998 36.2802 26.8187 36.2802 27.0393C36.3184 27.0019 36.3547 27.0019 36.3929 27.0019C36.431 27.1496 36.3929 27.3329 36.3184 27.4788C36.2802 27.5891 36.2057 27.735 36.1312 27.8454C35.9804 27.8454 35.944 27.9557 35.944 28.1016C35.8695 28.139 35.8314 28.1745 35.8314 28.2119C35.6824 28.3596 35.5697 28.5055 35.5315 28.6158C35.606 28.6888 35.7187 28.7617 35.8677 28.7617C36.3547 29.0553 36.8036 29.3489 37.2906 29.7155C37.5159 29.8988 37.7031 30.082 37.8139 30.3756C37.8884 30.5963 37.8139 30.8151 37.6649 30.9628C37.5904 31.0731 37.6267 31.1835 37.7394 31.2564C37.8139 31.4397 37.8521 31.5856 37.8521 31.7689C37.8521 31.6959 37.8902 31.623 37.9647 31.5482C38.0392 31.6212 38.0392 31.6585 38.0774 31.7315C38.0392 31.8045 37.9647 31.8418 37.8902 31.8045C37.9647 32.171 37.9284 32.5376 37.8521 32.8312C37.5522 33.1247 37.2524 33.2707 36.9162 33.308C36.5419 33.381 36.242 33.5287 35.9804 33.7119C35.7932 33.8578 35.6442 33.9326 35.5315 33.9682C35.1935 34.1514 34.97 34.3721 34.8192 34.6283C34.8192 34.7013 34.8573 34.7013 34.9319 34.6657C35.119 34.849 35.3444 35.0322 35.606 35.1426C36.1675 35.4361 36.6927 35.8027 37.1797 36.2066C37.2924 36.244 37.4051 36.3525 37.5177 36.5002C37.5922 36.6105 37.7049 36.7209 37.8176 36.8668C37.8176 36.9041 37.7794 36.9041 37.743 36.9041C37.6685 37.1248 37.5559 37.2707 37.4069 37.381C37.2942 37.4184 37.256 37.454 37.256 37.5269C37.2179 37.6372 37.1434 37.7102 37.0689 37.7102C36.9562 37.7476 36.8817 37.7476 36.769 37.7476C36.5074 37.8935 36.282 38.0038 36.0567 38.1515C35.944 38.1515 35.795 38.1141 35.7205 38.0056C35.4952 37.9326 35.3462 37.9326 35.1953 38.0056C35.1208 38.0056 35.0827 38.0056 35.0463 38.0429C34.8973 38.1159 34.7465 38.1888 34.5975 38.2262V38.1888C34.4485 38.2992 34.3358 38.4824 34.2613 38.6283C34.1868 38.7387 34.1486 38.7743 34.1105 38.7387H34.1486C34.0741 38.776 34.0741 38.8116 34.1105 38.776C34.1105 38.8009 34.1232 38.8134 34.1486 38.8134C34.0741 38.8508 34.036 38.8863 34.036 38.9237C33.9615 38.9237 33.9233 38.9237 33.9233 38.8863V38.9967C33.8979 39.0216 33.873 39.034 33.8488 39.034C33.8106 39.0714 33.7743 39.0714 33.7743 39.107C33.6998 39.1444 33.6616 39.1444 33.6235 39.1444H33.5853C33.4363 39.2547 33.3236 39.365 33.211 39.438V39.2903C33.1365 39.3632 33.0238 39.4006 32.9493 39.4735C32.8748 39.5465 32.8366 39.6568 32.8748 39.7671H32.7258C32.6513 39.8401 32.6131 39.8401 32.6131 39.7671C32.5386 39.8401 32.5386 39.913 32.6131 39.9878C32.5634 39.9878 32.5386 39.9635 32.5386 39.9148C32.5005 39.9878 32.5005 40.0251 32.5768 40.0251C32.6513 39.9878 32.8021 39.9522 32.9511 39.9148C33.0638 39.9148 33.1764 39.8775 33.2891 39.7689C33.9633 39.6586 34.5993 39.4753 35.2735 39.2191C35.7223 39.1461 36.2093 39.1817 36.6963 39.292V39.0714C36.6963 38.9984 36.7345 38.9255 36.7709 38.8152C36.809 38.8525 36.8835 38.8881 36.9199 38.9255C36.9944 38.8525 37.0325 38.7422 37.0325 38.6319C37.0325 38.6693 37.0325 38.7049 37.0707 38.7049L37.1833 38.5945C37.296 38.5945 37.3705 38.5216 37.3705 38.3383C37.3705 38.3757 37.4087 38.4113 37.4087 38.4113C37.4832 38.4842 37.5213 38.4486 37.5577 38.3383C37.5577 38.3757 37.5959 38.4113 37.5959 38.4113C37.634 38.4113 37.6704 38.4113 37.7085 38.3383H37.7467C37.8212 38.4486 37.8593 38.4486 37.9339 38.3383C37.972 38.2654 38.0084 38.228 38.0465 38.155H38.3082C38.4209 38.0821 38.5335 38.0091 38.5699 37.8614C38.608 37.8614 38.6825 37.8614 38.757 37.8241C38.8315 37.6408 38.9824 37.4575 39.1695 37.2742C39.1695 37.0536 39.1695 36.7974 39.2077 36.5767C39.2822 36.3935 39.3204 36.2102 39.3949 36.0625C39.3949 35.8792 39.3949 35.7315 39.3567 35.5483C39.3567 34.9984 39.3186 34.4112 39.3186 33.7885C39.3186 33.6052 39.2804 33.3489 39.244 33.1283C39.244 33.018 39.2059 32.9077 39.1695 32.7973V31.3667C39.095 31.2564 39.095 31.1835 39.1314 31.0731C39.0932 30.8525 39.0569 30.7066 39.0932 30.5589C39.0932 30.4486 39.1314 30.3756 39.1314 30.3756C39.2059 30.0464 39.2804 29.6781 39.2804 29.3489C39.2422 28.7261 39.2422 28.2493 39.2804 27.9183C39.3549 27.5873 39.3931 27.4041 39.3931 27.4041C39.4312 27.2208 39.4676 27.0375 39.4676 26.8169V25.6069C38.9806 25.0571 38.4554 24.5428 37.9702 23.993C37.7085 23.993 37.4832 23.993 37.2579 23.9201H37.2542Z" fill="white"/>
<path d="M26.4183 51.3364C26.5055 51.372 26.591 51.4076 26.6764 51.4414C26.8454 51.5108 27.0053 51.5802 27.1579 51.6513C27.3124 51.7189 27.4578 51.7955 27.5977 51.856C27.7376 51.9165 27.8721 51.9787 27.9975 52.041C28.25 52.1638 28.4736 52.2901 28.6716 52.4147C28.8697 52.5286 29.0423 52.6442 29.1877 52.7617C29.7729 53.2332 29.9437 53.7314 29.7729 54.2492C29.6493 54.6282 29.3912 54.9948 29.0405 55.3506C28.8661 55.5286 28.668 55.7047 28.4554 55.8809C28.2428 56.0535 28.0138 56.2119 27.7758 56.3756C27.5595 56.5232 27.3142 56.662 27.038 56.7937C26.7618 56.9272 26.4565 57.0268 26.1203 57.1318C25.9531 57.1816 25.7768 57.2297 25.5933 57.2759C25.5025 57.2991 25.408 57.3222 25.3135 57.3418C25.219 57.3578 25.1227 57.3756 25.0245 57.3934C24.632 57.4574 24.2104 57.5144 23.7598 57.5571C21.9698 57.6941 19.7383 57.5233 17.2633 56.84C17.0689 56.7848 16.8744 56.7279 16.6764 56.6709C16.4801 56.6122 16.2766 56.5571 16.0821 56.4859C15.6878 56.3453 15.288 56.203 14.8882 56.0606C14.4939 55.9058 14.1014 55.7403 13.7089 55.5784C13.6108 55.5375 13.5126 55.4983 13.4145 55.4574C13.3182 55.4147 13.2237 55.3702 13.1274 55.3275C12.9366 55.2403 12.7476 55.1549 12.5586 55.0695C10.8305 54.283 9.23678 53.0126 7.9702 51.4645C7.85026 51.3204 7.73033 51.1745 7.61039 51.0285C7.55043 50.9556 7.48864 50.8826 7.42868 50.8097C7.37053 50.735 7.31056 50.6602 7.25241 50.5855C7.01617 50.2848 6.7763 49.9858 6.53098 49.6851C6.06578 49.0641 5.57332 48.4449 5.11539 47.7794C5.03907 47.6727 4.97002 47.5641 4.89188 47.4378C4.85372 47.3755 4.81192 47.3079 4.76649 47.2349C4.72288 47.1602 4.67745 47.0783 4.62475 46.9858C4.73015 47.0463 4.82282 47.1033 4.91914 47.1566C5.01545 47.2082 5.11176 47.2598 5.21352 47.315C5.18263 47.2527 5.12993 47.1246 5.0427 46.968C3.96148 45.0659 2.88025 43.0552 1.98437 40.8381C0.626931 37.452 0 33.8363 0 30.2562C0.00545157 29.7508 0.0236235 29.2455 0.038161 28.7419C0.0672361 28.2384 0.1163 27.7366 0.159913 27.2401C0.212611 26.7828 0.290751 26.3309 0.359804 25.8789C0.392513 25.6529 0.43976 25.4305 0.487007 25.2063C0.534254 24.9839 0.581501 24.7597 0.628748 24.5355C0.695984 24.1867 0.795929 23.8433 0.888606 23.4981L1.02308 22.9821L1.08486 22.7223L1.15392 22.4643C1.31383 21.8611 1.46102 21.2526 1.66273 20.66C1.75904 20.3629 1.84808 20.0622 1.95348 19.7686L2.28239 18.8896C2.33872 18.7437 2.38961 18.596 2.45139 18.4518L2.63674 18.0212L3.01108 17.16L3.4254 16.3166L3.63438 15.8949L3.86153 15.4838L4.31946 14.6618L4.81374 13.8611L5.06269 13.4607C5.14628 13.329 5.23896 13.2009 5.328 13.071L5.86407 12.2952C6.61276 11.2863 7.39415 10.297 8.2664 9.38594C8.67527 8.92865 9.12775 8.51227 9.56933 8.08345C12.5804 5.25425 16.2039 3.04961 20.1308 1.66526C22.0934 0.973081 24.1305 0.489092 26.1912 0.227525C28.2519 -0.0340426 30.3344 -0.0731887 32.386 0.106528C34.1432 0.263112 35.9095 0.537135 37.6231 0.97664C37.9502 1.06561 38.3118 1.15458 38.5935 1.256C40.089 1.83252 41.59 2.46597 43.0765 3.19374C43.4436 3.38413 43.8197 3.56207 44.1886 3.7578C44.5539 3.95886 44.921 4.15993 45.2898 4.361C45.6515 4.57631 46.0131 4.79339 46.3765 5.01047C46.5601 5.11546 46.7345 5.23823 46.9126 5.35211C47.0907 5.46777 47.2688 5.58521 47.4468 5.70087C47.4323 5.7934 47.4196 5.86457 47.4014 5.98379C47.5195 6.06208 47.634 6.14749 47.7485 6.23468C47.863 6.32187 47.9775 6.40728 48.0919 6.49447C48.3191 6.67063 48.5553 6.83967 48.7807 7.02472C49.0042 7.21155 49.2277 7.39839 49.4512 7.587C49.5621 7.68131 49.6765 7.77384 49.7856 7.8717L50.109 8.16885C51.5246 9.4589 52.8076 10.8842 53.9306 12.4162C54.0814 12.6226 54.2686 12.8735 54.3467 13.039C54.523 13.4376 54.7283 13.8326 54.9537 14.2258C55.1626 14.6297 55.3916 15.0319 55.6315 15.4358C55.8532 15.8504 56.0912 16.265 56.3238 16.6831C56.5401 17.112 56.769 17.5372 56.9744 17.9714C57.078 18.2027 57.1797 18.4358 57.2779 18.6707C57.376 18.9056 57.4796 19.1387 57.5613 19.3807L57.8194 20.0995L57.9466 20.459L58.0592 20.8237C58.1646 21.1672 58.2664 21.5497 58.3663 21.886C58.4608 22.2241 58.5753 22.5124 58.7389 22.6636C58.6916 22.4572 58.6426 22.249 58.588 22.0106C58.5372 21.7721 58.4627 21.5088 58.37 21.1903C58.4354 21.2935 58.4972 21.3985 58.5571 21.5088C58.5862 21.564 58.6153 21.6191 58.6444 21.6743C58.6698 21.7312 58.6953 21.7882 58.7207 21.8469C58.8206 22.0782 58.9097 22.3202 58.9933 22.5711C59.0351 22.6956 59.0751 22.822 59.1132 22.9519C59.1514 23.08 59.1786 23.2134 59.2113 23.3451C59.2713 23.6102 59.3276 23.8825 59.3822 24.1565C59.4567 23.9803 59.5312 24.0017 59.6002 24.1547C59.6747 24.3077 59.7274 24.596 59.7729 24.9501C59.9637 26.3078 60.0164 27.6725 59.9945 29.1192C59.9182 29.0231 59.8564 28.9483 59.7874 28.8612C59.7783 29.0515 59.7583 29.2366 59.7619 29.4128C59.7656 29.7206 59.7819 30.0302 59.7783 30.338L59.7547 31.2633C59.7492 31.4181 59.7474 31.5711 59.7401 31.7259L59.7038 32.1886C59.6784 32.4964 59.6511 32.806 59.6202 33.1138C59.573 33.459 59.5166 33.79 59.4567 34.1139C59.4258 34.2758 59.3949 34.4341 59.3622 34.5907C59.3222 34.7455 59.2804 34.8986 59.2368 35.0498C59.1496 35.3523 59.0569 35.6459 58.9569 35.9324C58.8461 36.2171 58.7243 36.4929 58.5953 36.7651C58.3972 37.2082 58.1537 37.7402 57.9193 38.3096C57.8085 38.5961 57.6667 38.8808 57.5395 39.1708C57.4759 39.315 57.4105 39.4591 57.3469 39.6032C57.2851 39.7473 57.2197 39.8897 57.1488 40.0267C57.0362 40.2562 56.9271 40.4804 56.8199 40.6957C56.7145 40.9128 56.6128 41.1228 56.4928 41.3185C56.3765 41.516 56.2566 41.7047 56.1294 41.8826C56.0004 42.0605 55.8695 42.2296 55.706 42.379C55.2172 42.8506 54.3994 44.2118 53.6071 45.1175C52.5277 46.4129 51.3302 47.6442 50.0436 48.71C49.9382 48.799 49.8365 48.8577 49.7056 48.9253C49.6402 48.9591 49.5675 48.9947 49.4839 49.0392C49.3985 49.0801 49.2986 49.1264 49.1841 49.1833C49.2331 49.1371 49.2786 49.0962 49.3258 49.0534C49.3258 49.0534 49.3222 49.0535 49.3204 49.0552C48.9697 49.1833 48.6371 49.3915 48.3136 49.6282C47.9811 49.8542 47.6486 50.1015 47.3178 50.3239C47.0652 50.4912 46.7981 50.6442 46.5437 50.8097L46.1603 51.0606C46.0331 51.1442 45.9004 51.2207 45.7714 51.3044C45.5134 51.4681 45.2589 51.6407 45.01 51.8186C44.752 51.9859 44.5012 52.1638 44.254 52.3524C44.1414 52.436 44.0323 52.5268 43.916 52.6086C43.7979 52.6887 43.6798 52.7706 43.5617 52.8524C43.3236 53.0125 43.0801 53.1674 42.8257 53.2901C41.1503 54.0837 39.384 54.6869 37.5868 55.0766C37.3578 55.1229 37.1361 55.1727 36.9199 55.2261C36.8126 55.2528 36.7054 55.2795 36.6019 55.3097C36.4965 55.3364 36.3911 55.3613 36.2875 55.3862C36.0803 55.4396 35.8768 55.4983 35.6733 55.5659C35.4697 55.6318 35.2699 55.7136 35.0645 55.783C34.7247 55.9076 34.3631 56.0482 33.9724 56.1353C33.5799 56.2065 33.1583 56.2208 32.7112 56.1158C32.4932 56.0677 31.9735 56.146 31.5919 56.1674L31.1612 56.1869H30.7305L29.8692 56.1852L29.771 56.0837C30.1454 55.9912 30.5015 55.888 30.8868 55.8097C30.9904 55.7884 31.0921 55.7688 31.1957 55.7457L31.5046 55.6691C31.71 55.6175 31.9135 55.5677 32.1207 55.5161C32.5313 55.4254 32.9348 55.2919 33.3382 55.1745C33.7834 55.0535 34.2159 54.8916 34.6738 54.7723C34.7883 54.7421 34.9046 54.7136 35.0209 54.6887C35.139 54.6602 35.2571 54.6336 35.3771 54.6033C35.6188 54.5499 35.8695 54.5072 36.1367 54.4788C36.2148 54.4699 36.3002 54.461 36.3856 54.4467C36.471 54.4289 36.5601 54.4094 36.6437 54.388C36.8126 54.3453 36.9707 54.2919 37.0743 54.2332C37.2306 54.1442 37.3941 54.0713 37.5613 54.009C37.7267 53.9396 37.8975 53.8791 38.0701 53.8257C38.4136 53.7136 38.7752 53.6407 39.115 53.5126C39.2895 53.4521 39.4657 53.3933 39.6438 53.3346C39.8201 53.2759 40 53.2243 40.1726 53.1549C40.5197 53.0232 40.8686 52.8933 41.2084 52.7456C44.2886 51.3399 47.0634 49.3275 49.3404 46.888C49.5566 46.6477 49.8946 46.3221 49.9382 46.1638C50.0273 45.8417 50.1926 45.5605 50.4107 45.3079C50.6324 45.057 50.8741 44.8097 51.1067 44.5552C51.2321 44.4182 51.3465 44.2812 51.4519 44.1424C51.5537 44 51.6409 43.8524 51.7227 43.7011C51.8045 43.5499 51.879 43.3951 51.9462 43.2313C51.9789 43.1495 52.0153 43.0676 52.0425 42.9805C52.0698 42.8933 52.0952 42.8025 52.1207 42.7118C51.1085 44.3025 49.9291 45.7349 48.628 47.0178C47.3269 48.3008 45.9004 49.436 44.3594 50.4182C44.3831 50.0908 44.7901 49.8969 45.0972 49.6762L45.7278 49.1798L46.0422 48.9325L46.3438 48.6691L46.9471 48.146L47.5232 47.5944L47.8103 47.3186L48.0847 47.0303L48.6317 46.4538L49.1477 45.8524L49.4058 45.5516L49.6475 45.2385L49.8056 45.0321C49.7765 45.0321 49.7438 45.0356 49.7074 45.0374C49.8383 44.9093 49.9637 44.7669 50.0981 44.6388L50.5542 43.9502L50.785 43.6104C50.8577 43.4929 50.9322 43.3773 51.0085 43.2634L51.2739 42.8684C51.3629 42.7367 51.4538 42.6068 51.5337 42.4698L52.0371 41.6619C52.3478 41.1103 52.6731 40.5623 52.942 39.9893L53.0293 40.0125C52.9893 40.2153 52.9475 40.4182 52.8893 40.71C53.0874 40.3025 53.3018 39.9271 53.4799 39.5569C53.6471 39.1833 53.8016 38.8274 53.8997 38.4804C53.9869 38.121 54.0796 37.7776 54.1832 37.4359C54.2777 37.0907 54.3722 36.7438 54.4939 36.3897C54.5466 36.2438 54.5884 36.0925 54.6284 35.9413C54.6684 35.79 54.7083 35.637 54.7447 35.4857C54.781 35.3345 54.8174 35.1815 54.8483 35.032C54.8719 34.879 54.8919 34.7277 54.9101 34.5783C54.9319 34.3861 54.9573 34.1957 54.9864 34.0071C54.8792 34.2224 54.7956 34.4537 54.7211 34.6904C54.6829 34.8096 54.6538 34.9306 54.6102 35.0498C54.5702 35.169 54.5284 35.2882 54.4885 35.4057L54.4812 35.4359H54.4776C54.4521 35.5053 54.4285 35.5729 54.4031 35.6423C54.225 36.1584 53.996 36.6619 53.827 37.1833C53.7307 37.4413 53.6326 37.6975 53.549 37.9609C53.5072 38.0925 53.4672 38.226 53.4309 38.3594C53.3872 38.4911 53.3455 38.6228 53.3073 38.758C53.2382 39 53.1728 39.2509 53.0983 39.5C53.0111 39.7438 52.9148 39.984 52.7985 40.2082C52.0207 41.6815 51.0667 43.0659 49.9727 44.3079C49.9055 44.3897 49.8365 44.4662 49.7674 44.5427C49.6983 44.6193 49.6329 44.694 49.5675 44.7705C49.4385 44.9218 49.3149 45.0748 49.2004 45.2296C48.9642 45.5339 48.7389 45.8381 48.5426 46.1833C48.201 46.7385 47.8194 47.3933 47.0162 47.6887C46.918 47.7243 46.7963 47.8364 46.6564 47.9591C46.5146 48.0801 46.3656 48.2207 46.2311 48.3292C45.8332 48.6638 45.4043 48.9591 44.9864 49.267L44.8537 49.2385C45.07 48.9645 45.2662 48.6922 45.5006 48.4236C45.7441 48.13 45.9786 47.8257 46.2184 47.5321C46.4528 47.2332 46.6709 46.9182 46.8981 46.6157C47.0253 46.452 47.1325 46.2705 47.2542 46.1015C47.3742 45.9307 47.4977 45.7616 47.6286 45.5961C47.7576 45.4271 47.8884 45.2545 48.0356 45.089C48.1101 45.0054 48.1864 44.9235 48.2682 44.8435C48.35 44.7634 48.4372 44.6815 48.5208 44.5979C48.7225 44.404 48.9824 44.1157 49.066 43.92C49.2986 43.3096 49.7692 42.8399 50.1327 42.3007C50.2271 42.1637 50.3307 42.0321 50.4234 41.8933L50.7014 41.4787L50.9795 41.0623C51.0667 40.9199 51.1448 40.774 51.2248 40.6299C52.6767 37.9697 53.5635 35.0373 53.8488 32.0533C53.8724 31.7651 53.9451 31.3469 53.8797 31.2099C53.598 30.6459 53.7707 30.0373 53.8161 29.4163C53.8325 29.2491 53.8415 29.0889 53.8397 28.9323C53.8343 28.7757 53.8125 28.6209 53.787 28.4679C53.7598 28.3149 53.7252 28.1636 53.6798 28.0088C53.6362 27.854 53.5835 27.6992 53.5072 27.5409C53.6562 29.2313 53.6053 30.9021 53.3763 32.5231C53.1492 34.1441 52.7458 35.7224 52.1734 37.2491C51.988 36.9929 52.1934 36.6423 52.2733 36.3149L52.4623 35.6245L52.6149 34.9252L52.6931 34.5765C52.7167 34.4591 52.7331 34.3416 52.753 34.2242L52.8712 33.5213C52.9075 33.2864 52.9257 33.0498 52.9548 32.8131C52.9784 32.5765 53.0165 32.3434 53.0238 32.1049C53.0492 31.6316 53.091 31.1601 53.0801 30.685C53.0801 30.5035 53.0801 30.3238 53.0747 30.1441C53.0729 29.9644 53.0474 29.7846 53.0347 29.6049C53.0038 29.2473 52.9875 28.8896 52.9529 28.532C52.8948 27.395 52.7585 26.2597 52.5368 25.1423L52.6222 25.112C52.6676 25.1957 52.7113 25.2775 52.7621 25.37C52.8112 25.4626 52.8693 25.564 52.9239 25.6868C52.9111 25.5853 52.893 25.4857 52.873 25.3896C52.8548 25.2917 52.8366 25.1957 52.8185 25.0996C52.7839 24.9074 52.7512 24.7223 52.7185 24.5408C52.6386 24.1814 52.5404 23.8469 52.4187 23.5426C52.1461 22.9323 51.9117 22.3558 51.6773 21.7223C51.63 21.5906 51.5882 21.4554 51.5319 21.3255C51.4737 21.1956 51.4174 21.0657 51.3593 20.9358C51.2393 20.6796 51.1267 20.4216 50.974 20.1938C50.7614 19.8664 50.5906 19.5212 50.3871 19.1938C50.1926 18.8611 50.0182 18.5195 49.8165 18.192L49.5293 17.692C49.4312 17.5266 49.324 17.3664 49.2222 17.2027C49.1187 17.0408 49.0169 16.8771 48.9115 16.7152L48.5699 16.2472C48.5481 16.2169 48.5662 16.1618 48.5662 16.0461C49.4639 17.0016 50.2199 18.0871 50.8305 19.2401C51.4447 20.3931 51.9317 21.6031 52.3442 22.8291L52.2624 22.4768L52.2206 22.3006L52.1679 22.128L51.9535 21.4341L51.899 21.2597L51.8335 21.0889L51.7027 20.749L51.5719 20.4074L51.5046 20.2365L51.4283 20.0693L51.123 19.402L51.0467 19.2348L50.9613 19.0728L50.7905 18.7472C50.5724 18.3077 50.3107 17.8896 50.0636 17.4625L50.5688 18.1031C50.656 18.2081 50.7323 18.3219 50.8105 18.4323L51.0485 18.765C50.9667 18.5426 50.9086 18.3255 50.8559 18.112C50.7941 17.902 50.7378 17.6956 50.6705 17.4856C50.6378 17.3807 50.6015 17.2757 50.5615 17.1689C50.5415 17.1155 50.5197 17.0621 50.4961 17.0088C50.4707 16.9572 50.4434 16.9056 50.4143 16.8522C50.2998 16.644 50.1563 16.4305 49.9691 16.2134C50.1109 16.265 50.1744 16.2899 50.318 16.3433C50.2108 16.1867 50.1145 16.0266 50.0073 15.8789C49.8982 15.7312 49.7928 15.5853 49.6874 15.4411C49.582 15.297 49.4785 15.1529 49.3731 15.0123C49.2622 14.8753 49.1514 14.7401 49.0405 14.6048C48.1374 13.4981 47.1343 12.4678 46.0331 11.5425C45.835 11.3806 45.626 11.144 45.3807 11.2045C45.1663 11.2543 44.801 11.0141 44.8119 10.7685C44.821 10.5461 44.4612 10.3201 44.4158 10.3308C44.1868 10.3735 43.9706 10.2525 43.7507 10.0995C43.6417 10.023 43.5308 9.93933 43.4181 9.86459C43.3036 9.7952 43.1855 9.73826 43.0692 9.70801C43.0293 9.77029 42.982 9.84502 42.9002 9.97314C40.9722 8.83434 38.9151 8.00693 36.7927 7.45889C36.3238 7.3539 35.8604 7.21689 35.3862 7.13682C35.1499 7.09056 34.9137 7.04429 34.6774 7.00337C34.4394 6.97312 34.2013 6.94643 33.9633 6.92152C33.4926 6.86102 33.0165 6.85924 32.5441 6.83433C32.3097 6.81831 32.0716 6.83255 31.8354 6.83255L31.1285 6.84144L30.4234 6.88593C30.189 6.90194 29.9546 6.90728 29.7202 6.93931C29.2531 6.99447 28.7861 7.02828 28.3264 7.11013C26.8999 7.3201 25.477 7.60657 23.8833 8.14394C24.2268 7.77739 24.056 7.77917 23.7271 7.87704C22.117 8.35213 20.5633 9.0105 19.0878 9.80588C18.8824 9.92331 18.6753 10.0408 18.4699 10.1582L18.1592 10.3326C18.0556 10.3913 17.9575 10.4571 17.8557 10.5176C17.654 10.6422 17.4505 10.7632 17.2451 10.8806C17.0452 11.0052 16.8454 11.1297 16.6473 11.2543C16.491 11.3521 16.3256 11.4429 16.1694 11.5372C16.0149 11.6333 15.8586 11.7187 15.7078 11.7881C15.4043 11.9269 15.1136 11.9981 14.8755 11.9447C14.7956 11.9251 14.612 12.0034 14.4721 12.0835C14.274 12.1974 14.1123 12.2578 13.976 12.2828C13.2964 12.9981 12.6531 13.7329 12.0807 14.5176C11.7808 14.8984 11.5137 15.3024 11.2339 15.6956C11.0885 15.8895 10.9667 16.0977 10.8305 16.297C10.6996 16.4999 10.5579 16.6938 10.4289 16.8984C9.53298 18.2953 9.17681 19.4518 8.80065 20.749C8.73342 20.9519 8.6789 21.1672 8.61348 21.3825C8.54988 21.5978 8.48083 21.8166 8.40996 22.0355C8.34999 22.2579 8.29002 22.4821 8.22824 22.7063C8.16827 22.9305 8.10285 23.1512 8.06287 23.3754C8.03198 23.5248 7.9811 23.717 7.98474 23.8149C8.00109 24.6529 7.93749 25.6013 7.85935 26.5889C7.85026 26.838 7.83936 27.0871 7.82482 27.3398C7.81937 27.4661 7.80847 27.5907 7.80483 27.717V28.096C7.80302 28.3487 7.8012 28.6014 7.8012 28.8523C7.81755 29.1031 7.83391 29.3505 7.85026 29.596C8.0338 31.8861 8.56987 34.1228 9.40214 36.2402C9.82918 37.2954 10.3253 38.3221 10.8941 39.3096C11.4647 40.2972 12.1225 41.2367 12.833 42.1353C13.7543 43.2901 14.7901 44.363 15.9277 45.3008C16.0204 45.3773 16.1148 45.4573 16.2112 45.5356C16.3129 45.6086 16.4147 45.6833 16.5146 45.7509C16.7145 45.8897 16.909 46.0107 17.0707 46.0908C17.2851 46.1833 17.4705 46.2278 17.6649 46.3186C17.7612 46.3648 17.8612 46.4218 17.9684 46.5018C18.0738 46.5837 18.1992 46.6744 18.3336 46.8061C18.3682 46.8381 18.4826 46.8808 18.6389 46.9324C18.7934 46.984 18.9896 47.0463 19.1932 47.1033C19.086 47.2687 19.0133 47.3826 18.9151 47.5356C19.175 47.6993 19.4203 47.8702 19.6693 48.0214C19.9237 48.1673 20.1726 48.3097 20.4216 48.452C21.4737 49.0036 22.4496 49.4858 23.3872 49.9503C23.6253 50.057 23.8579 50.1656 24.0887 50.2777C24.205 50.331 24.3176 50.3951 24.4339 50.4431C24.5502 50.4947 24.6647 50.5463 24.781 50.5962C25.0118 50.6976 25.2371 50.8115 25.4661 50.9111C25.6969 51.0072 25.9259 51.1051 26.1548 51.2065C26.2457 51.2474 26.3347 51.2883 26.4201 51.3275L26.4183 51.3364ZM40.3271 7.71334C40.1381 7.62971 39.9564 7.54963 39.7765 7.46956C39.6874 7.43042 39.5966 7.38949 39.5075 7.35034C39.4167 7.31298 39.324 7.27917 39.2331 7.24358C39.0478 7.17241 38.8588 7.09945 38.6607 7.02294C39.4203 7.54252 39.7965 7.69554 40.9159 7.9927C40.7105 7.88949 40.5197 7.79163 40.3289 7.71156L40.3271 7.71334ZM54.1614 23.0853C54.125 22.9483 54.0705 22.8184 54.0196 22.6903C53.9687 22.5622 53.9215 22.4376 53.887 22.3113L53.7907 22.3665C53.8288 22.4874 53.867 22.6102 53.907 22.733C53.9451 22.8576 53.9887 22.9821 54.0196 23.1156C54.0887 23.3789 54.1614 23.6618 54.2431 23.9768C54.2904 23.6529 54.2377 23.3593 54.1614 23.0853ZM52.8057 19.1654C52.7331 18.9928 52.6585 18.8184 52.5822 18.6458C52.6004 18.8113 52.6168 18.975 52.6349 19.1351L52.6804 19.2205L52.8057 19.1654ZM53.6944 16.4714C53.4745 16.1742 53.2528 15.8771 53.0311 15.5782C53.1492 15.8664 53.2764 16.1102 53.4545 16.3735C53.5453 16.5034 53.6435 16.6422 53.7525 16.7988C53.8633 16.9536 53.9906 17.1209 54.1377 17.313C53.9778 17.0123 53.8325 16.7365 53.6944 16.4732V16.4714ZM53.4836 17.0621C53.3073 16.6849 53.0929 16.3255 52.8912 15.9554C52.4732 15.2223 51.9898 14.5034 51.3992 13.829C51.4519 13.9358 51.5065 14.0426 51.5701 14.1707C51.4719 14.0568 51.3774 13.95 51.2848 13.8433C51.2393 13.7899 51.1939 13.7383 51.1485 13.6867L51.0049 13.5372C51.0267 13.628 51.0412 13.6938 51.083 13.749C51.2957 14.0657 51.5083 14.3842 51.7227 14.7027C51.928 15.0248 52.1225 15.354 52.3242 15.6778C52.3896 15.7792 52.4623 15.9305 52.5186 15.9785C52.6804 16.1102 52.8294 16.265 52.9693 16.4323C53.1074 16.6013 53.2419 16.7792 53.3545 16.9767C53.4708 17.1707 53.5835 17.3718 53.698 17.571L53.8706 17.8718C53.9251 17.9732 53.9796 18.0746 54.0378 18.1743C53.8688 17.797 53.6689 17.4358 53.489 17.0621H53.4836ZM55.0918 15.6849C54.8519 15.3006 54.6211 14.9109 54.3776 14.5283C54.1214 14.1547 53.8652 13.781 53.5908 13.4216C53.3037 13.0728 53.0147 12.7294 52.7003 12.4109C53.8234 13.8112 54.8101 15.3201 55.6369 16.9073L55.7714 16.8522C55.5352 16.4696 55.3135 16.0764 55.09 15.6831L55.0918 15.6849ZM56.3874 17.0782C56.2075 16.692 55.9967 16.3184 55.7859 15.9518C55.7496 15.8878 55.6733 15.8735 55.5443 15.7899C55.8623 16.3326 56.1076 16.7223 56.3111 17.1315L56.3874 17.0782ZM55.5988 17.3059L55.5497 17.3219C55.6751 17.5746 55.8077 17.8237 56.0549 18.3344C55.8314 17.8166 55.7114 17.5639 55.5988 17.3077V17.3059ZM54.3176 17.4002L54.4103 17.5871L54.4957 17.7775L54.672 18.1565C55.537 19.9661 56.213 21.8664 56.6346 23.8202C57.0634 25.7739 57.2706 27.7722 57.2542 29.7686C57.2379 31.4395 57.1434 33.1192 56.8472 34.7776L57.0144 34.8149C57.4687 33.1245 57.5922 31.3363 57.6613 29.5871C57.6704 29.29 57.6885 28.9928 57.6885 28.6939L57.674 27.7989C57.6704 27.6494 57.674 27.4999 57.6631 27.3505L57.6322 26.9038C57.6104 26.6067 57.5959 26.3078 57.5668 26.0088C57.5141 25.7223 57.4559 25.4287 57.4069 25.1387C57.3814 24.9946 57.3633 24.8505 57.3378 24.7117C57.3124 24.5729 57.2888 24.4376 57.2724 24.306C57.0434 22.4963 56.4438 20.8344 55.6987 19.2454L55.5933 19.2632C55.6696 19.4661 55.755 19.6671 55.8241 19.8736L56.0294 20.4928C56.0949 20.6992 56.1712 20.902 56.2275 21.112L56.4001 21.7383C55.8786 20.1387 55.1572 18.717 54.314 17.3949L54.3176 17.4002ZM56.6546 19.6547L56.5855 19.6458L56.9326 20.6903L57.0162 20.7027L56.6546 19.6547ZM59.2222 25.0604L59.1605 24.6654L59.1296 24.4679L59.0896 24.2722L58.9279 23.4892L58.8461 23.0978L58.7461 22.7117C58.7534 22.8451 58.7661 22.9786 58.7825 23.1102C58.7934 23.2437 58.8079 23.3754 58.8261 23.507C58.8624 23.7704 58.9151 24.0302 58.9751 24.2882L59.0224 24.4821L59.0641 24.6779L59.1532 25.0675C59.2168 25.3273 59.2804 25.5889 59.3422 25.8487L59.2222 25.0604ZM52.9784 44.2598C52.8185 44.4911 52.6658 44.7278 52.5005 44.9556L51.9935 45.6299C51.9081 45.742 51.8281 45.8577 51.7372 45.9662L51.4683 46.2919C51.2884 46.5089 51.1103 46.7278 50.9268 46.9413L50.358 47.5677C50.2617 47.6709 50.169 47.7776 50.0709 47.8791L49.771 48.1798C49.6093 48.3381 49.5203 48.5534 49.2277 48.9698C49.602 48.6833 49.8546 48.468 50.0763 48.2901C50.1781 48.1851 50.278 48.089 50.3689 47.9894C50.4597 47.8915 50.5488 47.7972 50.6378 47.7047L51.0158 47.3168L51.2048 47.1228L51.3865 46.9218L52.1061 46.1121L52.7876 45.2705C52.9039 45.1317 53.0093 44.9858 53.1165 44.8399L53.4363 44.404C54.2777 43.2296 55.03 41.9893 55.666 40.6869C56.9144 38.073 57.7194 35.2402 58.0356 32.363C58.0665 32.0711 58.1047 31.7793 58.1265 31.4857C58.1428 31.1921 58.161 30.8985 58.1774 30.6049L58.2028 30.1654L58.2101 29.7259C58.2173 29.4323 58.2246 29.1423 58.2337 28.8505C58.2319 28.3291 58.221 27.9288 58.2119 27.5907C58.2119 27.4216 58.1955 27.2704 58.181 27.1263C58.1665 26.9821 58.1519 26.8469 58.1337 26.7152C58.1156 26.5836 58.0956 26.4501 58.0738 26.3131C58.0502 26.1761 58.0265 26.032 57.9847 25.8771C57.9084 25.5675 57.8103 25.2081 57.6813 24.7437L57.7921 25.6174L57.8484 26.0533L57.8848 26.491C57.9647 27.3362 58.081 28.1903 58.0974 29.048C58.0938 29.3985 58.0919 29.7491 58.0883 30.0978C58.0738 30.4466 58.0411 30.7936 58.012 31.1387C57.9938 31.3113 57.9829 31.4839 57.9557 31.6565C57.9284 31.8291 57.8993 32 57.8684 32.1708C57.8375 32.3416 57.8048 32.5124 57.7703 32.6832C57.7521 32.7687 57.7358 32.8541 57.7158 32.9377L57.6449 33.1904C57.5595 33.4875 57.4905 33.7953 57.4287 34.1121C57.3633 34.427 57.2815 34.7438 57.2088 35.064L57.0925 35.5409C57.0452 35.6975 56.9944 35.8523 56.9417 36.0071C56.8345 36.3132 56.7254 36.6139 56.5819 36.8915C56.4819 37.0783 56.4238 37.3665 56.3474 37.6085C56.2947 37.7705 56.2475 37.9324 56.1894 38.0925L56.0094 38.5694L55.8332 39.0463L55.746 39.2847L55.6515 39.5196C55.5406 39.7972 55.388 40.0819 55.268 40.3648C55.1427 40.6441 55.0373 40.9164 55.0536 41.1833L54.7901 41.5801C54.7029 41.7135 54.6029 41.8381 54.5103 41.9662L53.9451 42.7296C53.9197 42.7598 53.8997 42.8007 53.8779 42.8363C53.5835 43.3132 53.3055 43.8025 52.9784 44.2616V44.2598ZM55.5806 39.1459C55.6842 38.8505 55.755 38.5569 55.8641 38.2883L55.7532 38.2776C55.6533 38.5409 55.5552 38.8043 55.4498 39.0854C55.3353 39.363 55.2026 39.6566 55.0609 39.9876C55.3116 39.7295 55.4679 39.4377 55.5806 39.1477V39.1459ZM54.8973 37.5409C54.7974 37.8149 54.6865 38.0836 54.5793 38.3523L54.414 38.7545L54.225 39.1477C53.7361 40.2029 53.1019 41.1904 52.386 42.1264C52.4932 42.1673 52.5622 42.1922 52.664 42.2296C52.7858 42.0641 52.8912 41.8897 53.002 41.7153C53.1129 41.5409 53.2237 41.363 53.3382 41.1833C53.4563 41.0054 53.5562 40.815 53.6671 40.6228C53.7761 40.4306 53.887 40.2331 54.0015 40.032C54.0033 40.1566 54.0051 40.2562 54.0069 40.3594C54.1305 40.3167 54.2431 40.2384 54.3485 40.137C54.4521 40.0338 54.5357 39.9021 54.6193 39.7562C54.7011 39.6103 54.7756 39.4484 54.8465 39.2811C54.9173 39.1139 54.9864 38.9431 55.0409 38.7687C55.6424 37.0409 56.0549 35.2598 56.2748 33.1975C56.2366 33.4021 56.2021 33.5925 56.1694 33.7722C56.153 33.8612 56.1385 33.9502 56.1203 34.0338C56.1003 34.1192 56.0803 34.201 56.0621 34.2829C55.9858 34.6085 55.9131 34.9146 55.835 35.2455C55.815 35.0373 55.8059 34.9288 55.7841 34.7046C55.7478 34.9164 55.7223 35.1228 55.6787 35.3203C55.6369 35.5178 55.5951 35.7099 55.5533 35.8986C55.5134 36.0872 55.4734 36.2722 55.4334 36.4555C55.3843 36.637 55.3371 36.8149 55.288 36.9947L55.2081 37.016L55.3153 36.4413L55.3934 35.863C55.2699 36.4359 55.0754 36.9875 54.8991 37.5409H54.8973ZM55.0772 27.4359L55.099 27.6245L55.1099 27.8149L55.1336 28.1957C55.1463 28.4501 55.1717 28.7028 55.1772 28.9572L55.1844 29.7206L55.1899 30.1032L55.1735 30.4857L55.1445 31.2491C55.1317 31.5035 55.1009 31.7562 55.0809 32.0106L55.0463 32.3914L55.03 32.5818L55.0027 32.7704C54.9755 32.9573 55.0209 33.1512 55.0554 33.5498C55.2535 32.2135 55.4479 30.8736 55.4697 29.5177C55.4697 29.4768 55.5206 29.4394 55.5897 29.3362C55.7223 30.7686 55.6497 32.2188 55.4043 33.637C55.1645 35.0569 54.7774 36.4448 54.3104 37.7989C54.3667 37.6779 54.423 37.5569 54.4776 37.4342L54.6229 37.0605L54.9082 36.3078L55.1445 35.5373L55.2608 35.1512C55.2953 35.0213 55.3244 34.8897 55.3571 34.7598L55.5424 33.9715C55.5969 33.7064 55.6387 33.4413 55.686 33.1743C55.7932 32.6441 55.8386 32.1032 55.9113 31.5658V32.459V32.6832L55.9004 32.9057L55.8768 33.3541C55.9513 33.1032 56.0458 32.8754 56.133 32.6494C56.2148 32.4235 56.3002 32.2028 56.3783 31.9751C56.4165 31.8612 56.4547 31.7437 56.4874 31.6245C56.5037 31.564 56.5219 31.5035 56.5346 31.4412C56.5455 31.379 56.5564 31.3149 56.5655 31.2508C56.6037 30.9911 56.62 30.7117 56.6055 30.3985C56.6854 30.5355 56.7218 30.5978 56.8036 30.7384C56.8181 30.5302 56.8308 30.3274 56.8454 30.1281C56.849 29.927 56.8526 29.7295 56.8563 29.5355C56.8599 29.3398 56.8635 29.1476 56.8672 28.9555C56.8744 28.7633 56.8581 28.5729 56.8526 28.3807C56.8072 26.822 56.6273 25.2633 56.2784 23.7383C56.2166 23.4679 56.1766 23.128 55.9368 23.0177C55.7223 22.9198 55.597 22.4625 55.7387 22.265C55.8768 22.08 55.7042 21.6511 55.6642 21.6298C55.2608 21.3967 55.2335 20.6262 54.93 20.1992C54.861 20.2259 54.7774 20.2579 54.632 20.3131C53.9924 18.7721 53.2073 17.3148 52.2933 15.9518C53.171 17.6476 53.8125 19.3896 54.4358 21.281C54.4648 21.3664 54.4812 21.4519 54.4975 21.5622C54.5103 21.6743 54.5194 21.8113 54.543 21.9999C54.2232 21.1725 53.9142 20.3718 53.5799 19.612C53.5017 19.4198 53.409 19.2348 53.3164 19.0533C53.2237 18.8718 53.131 18.6903 53.0383 18.5141C52.9475 18.3344 52.8403 18.1671 52.7331 18.0017C52.6258 17.8362 52.515 17.6743 52.4023 17.5159C52.4187 17.6138 52.435 17.7063 52.4496 17.8006C52.5023 17.9251 52.5568 18.0497 52.6168 18.1743C52.6749 18.2988 52.7403 18.4216 52.793 18.5515C52.9093 18.8059 53.0256 19.0639 53.1437 19.3219C53.2055 19.4501 53.2564 19.5817 53.3055 19.7134C53.3545 19.8451 53.4018 19.9785 53.4472 20.1102C53.5344 20.3753 53.6162 20.6369 53.6526 20.9074C53.6816 21.0978 53.8052 21.3362 53.887 21.5533C53.9142 21.6262 53.9415 21.6974 53.9669 21.7704L54.036 21.991L54.1741 22.4341L54.3158 22.8754C54.3576 23.023 54.3994 23.1707 54.443 23.3184C54.5175 23.5782 54.5739 23.8665 54.6357 24.1387C54.6938 24.4109 54.7792 24.6618 54.9518 24.8469C54.9591 24.991 54.9737 25.1334 54.9755 25.2775L54.9809 25.7099L54.9864 26.1405C54.9864 26.2828 54.9936 26.4252 54.9846 26.5693C54.9846 26.6049 54.9918 26.6458 54.9955 26.6832L55.0827 27.4412L55.0772 27.4359ZM51.521 18.902C51.5991 19.0479 51.6573 19.1956 51.7227 19.3326C51.7863 19.4714 51.8481 19.6049 51.9081 19.7401C51.968 19.8753 52.0353 20.0088 52.088 20.1529C51.9626 20.0088 51.8862 19.9412 51.7409 19.7917C51.7881 19.8771 51.8354 19.9607 51.8808 20.0444C51.9262 20.128 51.9644 20.2116 52.0044 20.2935C52.0861 20.459 52.1643 20.6191 52.2406 20.7757C52.4041 21.0871 52.5241 21.4003 52.6604 21.7099L52.6077 21.7686C52.435 21.4554 52.2806 21.1405 52.0898 20.8398C52.1443 20.9608 52.2043 21.08 52.2515 21.2027L52.3932 21.5729L52.5332 21.943C52.5786 22.0675 52.6277 22.1885 52.6622 22.3166L52.8857 23.0729L52.9402 23.2615L52.982 23.4536L53.0638 23.838C53.1855 24.3487 53.2401 24.8718 53.3055 25.3932C53.3309 25.6547 53.3382 25.9199 53.3527 26.1814C53.3582 26.3131 53.3636 26.4448 53.3691 26.5764C53.3691 26.7081 53.3636 26.8416 53.36 26.975C53.4708 26.9448 53.5417 26.927 53.6453 26.8985L53.6344 26.6209C53.6307 26.5284 53.618 26.4359 53.6108 26.3433C53.5944 26.1583 53.5762 25.9697 53.5581 25.7793C53.549 25.6832 53.5417 25.5871 53.5326 25.491C53.5235 25.3932 53.5054 25.2971 53.4926 25.1992C53.4636 25.0017 53.4345 24.8006 53.4054 24.5942C53.4817 24.6814 53.5435 24.7526 53.6071 24.8255C53.6816 24.7259 53.7252 24.6085 53.747 24.4786C53.7689 24.3487 53.7707 24.2045 53.747 24.0551C53.7016 23.7561 53.5999 23.4287 53.5035 23.1156C52.9729 21.5444 52.2697 20.0355 51.2757 18.4287C51.3629 18.5977 51.4447 18.7526 51.521 18.9002V18.902ZM45.6751 10.829C45.4716 10.66 45.2553 10.5052 45.0482 10.3415L44.7338 10.0995C44.6302 10.0176 44.5175 9.94645 44.4085 9.86993L43.7543 9.41619C43.5326 9.27028 43.3037 9.13327 43.0783 8.9927L42.7403 8.78096C42.6258 8.71334 42.5077 8.65106 42.3914 8.58523L41.6936 8.19555L40.9758 7.84323L40.616 7.66707L40.2471 7.50871L40.6342 7.70444L41.014 7.9144C41.2666 8.05498 41.5264 8.17775 41.779 8.31654C43.1546 9.03363 44.4594 9.87705 45.6751 10.8326V10.829ZM36.6945 7.09589C37.0307 7.19732 37.356 7.33077 37.6849 7.44999C37.8484 7.51227 38.0138 7.56921 38.1774 7.63504L38.6607 7.84145C38.7625 7.88416 38.9006 7.95355 38.9697 7.95355C39.0678 7.95355 39.1659 7.95533 39.2622 7.96957C39.3585 7.9838 39.4548 8.00515 39.5512 8.03006C39.7456 8.07811 39.9382 8.14394 40.1345 8.21512C40.3307 8.28273 40.5197 8.37704 40.7142 8.46423C40.9068 8.55142 41.1012 8.63861 41.2993 8.71512C41.1085 8.62259 40.9195 8.52651 40.7305 8.42864C40.5415 8.33078 40.3562 8.22579 40.1617 8.13861C39.9691 8.04608 39.7747 7.95355 39.5802 7.86102C39.4821 7.81476 39.3858 7.76672 39.2858 7.72223C39.1859 7.68131 39.0841 7.64038 38.9842 7.59946C38.7825 7.51761 38.579 7.43575 38.3718 7.35746C38.27 7.31654 38.1628 7.28095 38.0574 7.2507C37.9502 7.21867 37.843 7.18664 37.7358 7.15461C37.5195 7.09234 37.3015 7.03184 37.0798 6.97846C36.8544 6.93575 36.6255 6.89661 36.3929 6.86458C36.5437 6.98379 36.6019 7.06565 36.6945 7.09767V7.09589ZM33.2782 6.45176C33.449 6.46244 33.5653 6.39304 33.8016 6.28272C33.5799 6.25247 33.3727 6.25069 33.1546 6.23646C32.9366 6.224 32.7058 6.20977 32.4332 6.19375C32.8875 6.36101 33.1092 6.44287 33.28 6.45354L33.2782 6.45176Z" fill="white"/>
<path d="M44.99 11.6621C45.1081 11.7279 45.2353 11.8116 45.3462 11.9023C46.3256 12.6959 47.247 13.5607 48.0774 14.5055L48.0283 14.5625C47.7739 14.3187 47.5123 14.0838 47.2706 13.8312C47.0089 13.5767 46.7545 13.3401 46.4892 13.1248C46.2112 12.9219 45.9259 12.7369 45.6188 12.5678C45.4279 12.4682 45.2317 12.365 45.0445 12.2457C44.95 12.187 44.8574 12.1247 44.7665 12.0589L44.632 11.9593L44.4939 11.8614C44.1268 11.6016 43.8034 11.2813 43.4981 10.9646C43.6235 11.0162 43.7489 11.0696 43.8743 11.1212C43.996 11.1799 44.1196 11.2386 44.2431 11.2973C44.4885 11.4183 44.7447 11.5304 44.99 11.6621Z" fill="white"/>
<path d="M36.302 8.114L36.2857 8.25279C34.9864 7.95742 33.6616 7.7688 32.3315 7.70652C32.6567 7.63891 32.9893 7.6051 33.3255 7.59087C33.6598 7.58553 33.9924 7.62112 34.3267 7.65848C34.4103 7.66916 34.4939 7.67805 34.5775 7.69229L34.8265 7.74211L35.3226 7.85065C35.6551 7.91649 35.9786 8.02325 36.3038 8.11222L36.302 8.114Z" fill="white"/>
<path d="M40.4961 10.3131L40.5361 10.1921C41.5664 10.6761 42.5659 11.2331 43.5217 11.863C42.4223 11.5089 41.4774 10.927 40.4979 10.3131H40.4961Z" fill="white"/>
<path d="M44.99 11.2278C44.6956 11.1246 44.4321 10.9911 44.1977 10.8203C43.9597 10.6566 43.7434 10.4644 43.5617 10.2224C43.8034 10.3861 44.0487 10.5409 44.2868 10.71L44.9882 11.2278H44.99Z" fill="white"/>
<path d="M51.1212 21.05L51.0285 21.1051L50.8014 20.5713L50.5452 20.0482L50.5997 20.0464L50.8741 20.5411L51.1212 21.05Z" fill="white"/>
<path d="M55.3207 24.3489C55.1426 23.9201 54.9518 23.4646 54.8283 22.9895C54.7701 22.7511 54.6993 22.5144 54.652 22.2742C54.6029 22.034 54.5666 21.792 54.5484 21.5518C54.6847 21.8115 54.821 22.0731 54.9591 22.3365C55.0263 22.4699 55.1027 22.6016 55.1626 22.7368C55.2244 22.8738 55.2862 23.0108 55.348 23.1479C55.408 23.2831 55.4643 23.4379 55.5043 23.5891C55.8277 24.9254 56.0403 26.2867 56.1439 27.6586L56.0694 27.6763C56.0222 27.2956 55.9368 26.9183 55.9004 26.5393C55.8005 25.7493 55.6406 25.0429 55.3189 24.3489H55.3207Z" fill="white"/>
<path d="M55.0318 20.9646C55.0863 21.1141 55.1463 21.26 55.1935 21.4112L55.3353 21.865L55.4788 22.3187L55.5497 22.5447L55.6097 22.7742C55.5679 22.703 55.5279 22.6301 55.4897 22.5571C55.4498 22.486 55.4098 22.413 55.3753 22.3418C55.3044 22.1977 55.2444 22.05 55.1954 21.9005C55.1463 21.7511 55.1099 21.5981 55.0863 21.4415C55.0609 21.2849 55.0354 21.1283 55.03 20.9646H55.0318Z" fill="white"/>
<path d="M38.1992 55.4257C37.9411 55.5111 37.7412 55.5503 37.5904 55.5894C37.4378 55.625 37.3305 55.6446 37.247 55.6517C37.078 55.6642 37.0053 55.6197 36.8599 55.5325C37.0816 55.4969 37.3087 55.4417 37.5323 55.4115C37.7558 55.3795 37.9811 55.3795 38.201 55.4275L38.1992 55.4257Z" fill="white"/>
<path d="M57.5177 28.9735L57.4014 28.9379C57.4178 28.6657 57.4123 28.3916 57.4196 28.1194L57.485 28.1372L57.505 28.5553C57.5123 28.6941 57.5195 28.8347 57.5177 28.9735Z" fill="white"/>
</g>
<defs>
<clipPath id="clip0_2010_2">
<rect width="60" height="57.6" fill="white"/>
</clipPath>
</defs>
</svg>
