<svg width="370" height="37" viewBox="0 0 370 37" fill="none" xmlns="http://www.w3.org/2000/svg">
<path d="M15 34.0001C23.2843 34.0001 30 27.279 30 18.9881C30 10.6972 23.2843 3.97607 15 3.97607C6.71573 3.97607 0 10.6972 0 18.9881C0 27.279 6.71573 34.0001 15 34.0001Z" fill="#F21414"/>
<mask id="mask0_187_10" style="mask-type:luminance" maskUnits="userSpaceOnUse" x="0" y="3" width="30" height="31">
<path d="M15 34.0001C23.2843 34.0001 30 27.279 30 18.9881C30 10.6972 23.2843 3.97607 15 3.97607C6.71573 3.97607 0 10.6972 0 18.9881C0 27.279 6.71573 34.0001 15 34.0001Z" fill="white"/>
</mask>
<g mask="url(#mask0_187_10)">
<path d="M25.8272 15.0315C25.5762 13.684 24.8468 12.3319 23.769 11.211C23.4593 9.95158 23.002 8.67573 22.4097 7.41867C20.6095 3.59699 17.7432 1.31056 15.6544 0.0652317C15.5887 0.0264985 15.5137 0.00537109 15.4363 0.00537109C15.4328 0.00537109 15.4281 0.00537109 15.4245 0.00537109L15.0586 0.0147612C14.8686 0.0194561 14.7045 0.150914 14.6575 0.336364C14.6106 0.521814 14.6939 0.714306 14.8593 0.809378C16.9105 1.98311 19.7217 4.16038 21.4656 7.86351C21.8022 8.57831 22.093 9.30016 22.3358 10.0208C21.4621 9.45979 20.5602 9.15931 19.7146 9.15931C19.5856 9.15931 19.4578 9.16635 19.3335 9.18044C18.8491 9.2356 18.0504 9.45392 17.2611 9.89994C16.3311 10.4258 15.6685 11.1288 15.3425 11.934C15.285 12.076 15.2381 12.2204 15.1959 12.3613C15.1454 12.2439 15.0926 12.1253 15.034 12.008C14.681 11.2967 14.111 10.6417 13.3886 10.1147C12.6673 9.5889 11.864 9.24147 11.0653 9.11119C10.8342 9.07363 10.5997 9.05485 10.3651 9.05485C9.48319 9.05485 8.59069 9.32011 7.71344 9.8436C7.00977 10.2638 6.47029 10.7579 6.14073 11.0995C4.65011 12.6429 3.87607 14.9364 4.12119 17.0844C4.53049 20.6748 7.64777 23.331 10.398 25.6737C12.0176 27.054 13.5481 28.3581 14.1403 29.5752L14.1591 29.6128C14.4945 30.3088 14.8827 30.9532 15.448 30.9532C15.4902 30.9532 15.5324 30.9497 15.5747 30.9414C15.889 30.8851 16.1188 30.641 16.2572 30.2184C16.3511 29.932 16.3944 29.594 16.4226 29.3323L16.4273 29.29C16.5704 28.013 17.9801 26.3697 19.4742 24.6315C20.9191 22.9495 22.5563 21.0422 23.4113 19.0304C24.1149 17.3778 24.3683 15.5221 24.1689 13.4951C24.4797 14.0608 24.6966 14.6465 24.8034 15.2216C24.9406 15.9576 24.9066 16.6958 24.7013 17.4787C24.5149 18.1888 24.19 18.9189 23.708 19.7123C22.7955 21.2147 21.4574 22.696 20.1638 24.1291C18.9476 25.4765 17.7725 27.4355 17.0207 29.3675C16.5352 30.6175 15.8116 32.9509 16.4273 34.5378C16.4683 34.6434 16.5493 34.7279 16.6525 34.7737C16.7076 34.7971 16.765 34.8101 16.8237 34.8101C16.8753 34.8101 16.9281 34.8007 16.9773 34.7807L17.1568 34.7103C17.3761 34.6258 17.484 34.3781 17.3995 34.1598C17.0442 33.2443 17.2647 31.6292 18.0059 29.7301C18.7177 27.905 19.8131 26.0728 20.9378 24.8275C22.2537 23.3709 23.613 21.8638 24.5852 20.264C25.7275 18.3837 26.1345 16.6712 25.8284 15.0291L25.8272 15.0315ZM15.2592 13.4845C15.2592 13.4845 15.2627 13.4845 15.2639 13.4845C15.2627 13.4845 15.2604 13.4845 15.2592 13.4845C15.2568 13.4845 15.2545 13.4845 15.2521 13.4845C15.2451 13.4845 15.2381 13.4833 15.231 13.4822C15.2404 13.4822 15.2486 13.4845 15.2592 13.4845ZM15.448 30.5283C15.448 30.5283 15.4421 30.5283 15.4398 30.5283C15.4445 30.5283 15.4492 30.5283 15.4539 30.5283C15.4515 30.5283 15.4503 30.5283 15.448 30.5283ZM18.6802 23.9519C17.0794 25.8169 15.5676 27.5787 15.3882 29.1773L15.3835 29.2231C15.3671 29.3769 15.3495 29.5013 15.3319 29.6022C15.2674 29.4919 15.19 29.3487 15.0997 29.1597L15.0797 29.1198C14.3913 27.7043 12.7799 26.3322 11.0758 24.8791C8.47224 22.6608 5.52267 20.1478 5.15911 16.967C4.948 15.1207 5.61298 13.1512 6.89249 11.826C7.3792 11.3213 8.68334 10.1441 10.2772 10.1006C10.3077 10.1006 10.337 10.0995 10.3675 10.0995C10.5457 10.0995 10.724 10.1136 10.8987 10.1429C11.5297 10.2462 12.1959 10.5349 12.7764 10.9586C13.3546 11.38 13.826 11.9188 14.1016 12.4751C14.1626 12.5972 14.2213 12.7345 14.2776 12.8683L14.2799 12.873C14.3761 13.0984 14.4664 13.3108 14.5778 13.4833C14.7607 13.7674 14.9883 13.9118 15.2521 13.9118C15.258 13.9118 15.2639 13.9118 15.2709 13.9118C15.2803 13.9118 15.2885 13.9118 15.2967 13.9106C15.482 13.8988 15.7424 13.8085 15.9277 13.4446C16.0168 13.2697 16.079 13.0561 16.1458 12.8284V12.8261C16.1962 12.6559 16.2478 12.4798 16.3088 12.3284C16.6102 11.5831 17.2752 11.0878 17.7807 10.8049C18.4292 10.4399 19.086 10.2614 19.4519 10.2204C19.5364 10.211 19.6243 10.2063 19.7123 10.2063C20.6704 10.2063 21.8256 10.7802 22.8225 11.7462C23.4136 14.3378 23.2869 16.6512 22.4472 18.6255C21.6544 20.4882 20.0735 22.3298 18.6779 23.9554L18.6802 23.9519Z" fill="white"/>
</g>
<path d="M54.0229 31.7403C53.0629 31.7403 52.0789 31.7163 51.0709 31.6683C50.0869 31.6203 49.1989 31.5723 48.4069 31.5243C47.6149 31.5003 47.0629 31.4883 46.7509 31.4883C46.2709 31.4883 45.7069 31.4883 45.0589 31.4883C44.4349 31.5123 43.7869 31.5363 43.1149 31.5603C42.4669 31.5843 41.8789 31.5963 41.3509 31.5963C41.2069 31.5963 41.0629 31.5483 40.9189 31.4523C40.7749 31.3563 40.7029 31.2243 40.7029 31.0563C40.7029 30.8403 40.7629 30.6723 40.8829 30.5523C41.0029 30.4083 41.1709 30.3123 41.3869 30.2643C42.2989 30.0723 42.9229 29.8323 43.2589 29.5443C43.5949 29.2563 43.7629 28.7403 43.7629 27.9963V11.6523C43.7629 10.8843 43.6069 10.3443 43.2949 10.0323C42.9829 9.72028 42.3469 9.45628 41.3869 9.24028C41.1709 9.19228 41.0029 9.10828 40.8829 8.98828C40.7629 8.84428 40.7029 8.66428 40.7029 8.44828C40.7029 8.28028 40.7749 8.14828 40.9189 8.05228C41.0629 7.95628 41.2069 7.90828 41.3509 7.90828C41.8789 7.90828 42.4669 7.92028 43.1149 7.94428C43.7869 7.96828 44.4349 8.00428 45.0589 8.05228C45.7069 8.07628 46.2709 8.08828 46.7509 8.08828C47.1109 8.08828 47.6029 8.07628 48.2269 8.05228C48.8749 8.00428 49.5709 7.96828 50.3149 7.94428C51.0829 7.89628 51.8269 7.86028 52.5469 7.83628C53.2669 7.78828 53.8669 7.76428 54.3469 7.76428C56.0269 7.76428 57.6229 8.05228 59.1349 8.62828C60.6469 9.18028 61.9909 9.97228 63.1669 11.0043C64.3429 12.0363 65.2669 13.2723 65.9389 14.7123C66.6109 16.1283 66.9469 17.7003 66.9469 19.4283C66.9469 21.0123 66.6709 22.5483 66.1189 24.0363C65.5669 25.5003 64.7389 26.8083 63.6349 27.9603C62.5549 29.1123 61.2109 30.0363 59.6029 30.7323C57.9949 31.4043 56.1349 31.7403 54.0229 31.7403ZM53.4469 29.7603C55.0309 29.7603 56.3269 29.3763 57.3349 28.6083C58.3669 27.8403 59.1229 26.7603 59.6029 25.3683C60.1069 23.9763 60.3589 22.3443 60.3589 20.4723C60.3589 18.8883 60.2029 17.4483 59.8909 16.1523C59.6029 14.8563 59.1589 13.7403 58.5589 12.8043C57.9589 11.8683 57.2029 11.1483 56.2909 10.6443C55.3789 10.1163 54.3109 9.85228 53.0869 9.85228C52.3669 9.85228 51.7669 9.87628 51.2869 9.92428C50.8309 9.97228 50.4829 10.0803 50.2429 10.2483C50.0029 10.3923 49.8829 10.6563 49.8829 11.0403V26.6643C49.8829 27.4083 50.0029 28.0083 50.2429 28.4643C50.5069 28.9203 50.9029 29.2563 51.4309 29.4723C51.9589 29.6643 52.6309 29.7603 53.4469 29.7603ZM85.8449 31.9923C84.1649 31.9923 82.5689 31.7163 81.0569 31.1643C79.5449 30.5883 78.2009 29.7843 77.0249 28.7523C75.8489 27.6963 74.9249 26.4483 74.2529 25.0083C73.5809 23.5443 73.2449 21.9243 73.2449 20.1483C73.2449 18.5163 73.5209 16.9563 74.0729 15.4683C74.6249 13.9563 75.4409 12.6123 76.5209 11.4363C77.6249 10.2603 78.9809 9.32428 80.5889 8.62828C82.1969 7.93228 84.0569 7.58428 86.1689 7.58428C87.8489 7.58428 89.4449 7.87228 90.9569 8.44828C92.4689 9.00028 93.8129 9.80428 94.9889 10.8603C96.1649 11.8923 97.0889 13.1403 97.7609 14.6043C98.4329 16.0443 98.7689 17.6523 98.7689 19.4283C98.7689 21.0363 98.4929 22.5963 97.9409 24.1083C97.3889 25.6203 96.5609 26.9643 95.4569 28.1403C94.3769 29.3163 93.0329 30.2523 91.4249 30.9483C89.8169 31.6443 87.9569 31.9923 85.8449 31.9923ZM86.4929 30.3003C87.7649 30.3003 88.8209 29.9163 89.6609 29.1483C90.5249 28.3803 91.1729 27.3243 91.6049 25.9803C92.0369 24.6123 92.2529 23.0523 92.2529 21.3003C92.2529 19.8603 92.1209 18.4323 91.8569 17.0163C91.5929 15.6003 91.1849 14.3163 90.6329 13.1643C90.0809 11.9883 89.3729 11.0523 88.5089 10.3563C87.6689 9.66028 86.6489 9.31228 85.4489 9.31228C84.2009 9.31228 83.1449 9.69628 82.2809 10.4643C81.4409 11.2323 80.8049 12.2883 80.3729 13.6323C79.9649 14.9763 79.7609 16.5243 79.7609 18.2763C79.7609 19.7163 79.8929 21.1443 80.1569 22.5603C80.4209 23.9763 80.8169 25.2723 81.3449 26.4483C81.8969 27.6003 82.5929 28.5363 83.4329 29.2563C84.2969 29.9523 85.3169 30.3003 86.4929 30.3003ZM127.849 32.1723C127.513 32.1723 126.985 31.9803 126.265 31.5963C125.569 31.2363 124.825 30.5763 124.033 29.6163C123.361 28.8963 122.689 28.1883 122.017 27.4923C121.369 26.7723 120.709 26.0643 120.037 25.3683C119.365 24.6483 118.693 23.9403 118.021 23.2443C117.349 22.5243 116.677 21.8163 116.005 21.1203C115.357 20.4243 114.697 19.7283 114.025 19.0323C113.353 18.3123 112.681 17.6043 112.009 16.9083C111.361 16.1883 110.701 15.4683 110.029 14.7483C110.005 14.7003 109.945 14.6283 109.849 14.5323C109.753 14.4363 109.681 14.3883 109.633 14.3883C109.537 14.3883 109.465 14.4723 109.417 14.6403C109.393 14.8083 109.381 14.9523 109.381 15.0723C109.381 16.1523 109.393 17.4363 109.417 18.9243C109.465 20.4123 109.501 21.9123 109.525 23.4243C109.573 24.9123 109.597 26.2443 109.597 27.4203C109.597 28.2363 109.849 28.8603 110.353 29.2923C110.881 29.7003 111.625 30.0243 112.585 30.2643C112.801 30.3123 113.017 30.3963 113.233 30.5163C113.449 30.6123 113.557 30.7803 113.557 31.0203C113.557 31.1883 113.461 31.3203 113.269 31.4163C113.077 31.5123 112.885 31.5603 112.693 31.5603C112.045 31.5603 111.505 31.5483 111.073 31.5243C110.641 31.5003 110.233 31.4883 109.849 31.4883C109.489 31.4643 109.057 31.4523 108.553 31.4523C108.001 31.4523 107.461 31.4643 106.933 31.4883C106.429 31.5123 106.009 31.5363 105.673 31.5603C105.361 31.5843 105.205 31.5963 105.205 31.5963C105.061 31.5963 104.881 31.5483 104.665 31.4523C104.473 31.3563 104.377 31.2243 104.377 31.0563C104.377 30.8403 104.461 30.6843 104.629 30.5883C104.821 30.4683 105.025 30.3603 105.241 30.2643C105.793 30.0483 106.213 29.6883 106.501 29.1843C106.813 28.6803 106.993 28.0683 107.041 27.3483C107.137 26.4603 107.233 25.2843 107.329 23.8203C107.449 22.3563 107.557 20.7123 107.653 18.8883C107.749 17.0643 107.797 15.1683 107.797 13.2003C107.797 11.9523 107.485 11.0523 106.861 10.5003C106.237 9.94828 105.481 9.50428 104.593 9.16828C104.377 9.12028 104.161 9.03628 103.945 8.91628C103.729 8.77228 103.621 8.59228 103.621 8.37628C103.621 8.16028 103.705 8.01628 103.873 7.94428C104.065 7.84828 104.293 7.80028 104.557 7.80028C104.941 7.80028 105.409 7.81228 105.961 7.83628C106.537 7.86028 107.149 7.88428 107.797 7.90828C108.469 7.90828 109.153 7.92028 109.849 7.94428C110.545 7.96828 111.217 7.98028 111.865 7.98028C112.057 7.98028 112.201 8.01628 112.297 8.08828C112.417 8.13628 112.513 8.22028 112.585 8.34028C113.209 9.03628 113.833 9.74428 114.457 10.4643C115.105 11.1603 115.741 11.8563 116.365 12.5523C117.013 13.2483 117.649 13.9443 118.273 14.6403C118.921 15.3363 119.557 16.0443 120.181 16.7643C120.805 17.4603 121.429 18.1563 122.053 18.8523C122.701 19.5483 123.337 20.2563 123.961 20.9763C124.609 21.6723 125.245 22.3683 125.869 23.0643C125.941 23.1603 126.025 23.2563 126.121 23.3523C126.217 23.4483 126.301 23.4963 126.373 23.4963C126.565 23.4963 126.661 23.3283 126.661 22.9923C126.661 22.1523 126.661 21.2403 126.661 20.2563C126.661 19.2483 126.661 18.2283 126.661 17.1963C126.661 16.1403 126.649 15.1323 126.625 14.1723C126.625 13.1883 126.601 12.3243 126.553 11.5803C126.529 10.8843 126.277 10.3803 125.797 10.0683C125.341 9.75628 124.657 9.48028 123.745 9.24028C123.529 9.19228 123.337 9.12028 123.169 9.02428C123.001 8.90428 122.917 8.72428 122.917 8.48428C122.917 8.31628 123.001 8.18428 123.169 8.08828C123.337 7.99228 123.505 7.94428 123.673 7.94428C124.321 7.94428 124.849 7.95628 125.257 7.98028C125.665 7.98028 126.037 7.99228 126.373 8.01628C126.709 8.01628 127.081 8.01628 127.489 8.01628C127.969 8.01628 128.377 8.01628 128.713 8.01628C129.049 7.99228 129.409 7.96828 129.793 7.94428C130.201 7.92028 130.705 7.90828 131.305 7.90828C131.569 7.90828 131.773 7.95628 131.917 8.05228C132.085 8.14828 132.169 8.28028 132.169 8.44828C132.169 8.83228 131.869 9.08428 131.269 9.20428C130.453 9.37228 129.853 9.61228 129.469 9.92428C129.085 10.2363 128.893 10.7523 128.893 11.4723C128.893 12.5043 128.881 13.5363 128.857 14.5683C128.833 15.5763 128.797 16.5723 128.749 17.5563C128.701 18.5403 128.653 19.5003 128.605 20.4363C128.557 21.3483 128.521 22.2243 128.497 23.0643C128.473 23.9043 128.461 24.6723 128.461 25.3683C128.461 25.9203 128.497 26.5563 128.569 27.2763C128.641 27.9723 128.713 28.6203 128.785 29.2203C128.857 29.7963 128.893 30.1923 128.893 30.4083C128.893 31.0563 128.797 31.5123 128.605 31.7763C128.437 32.0403 128.185 32.1723 127.849 32.1723ZM136.375 31.6683C136.111 31.6683 135.883 31.6203 135.691 31.5243C135.523 31.4523 135.439 31.2963 135.439 31.0563C135.439 30.8163 135.511 30.6483 135.655 30.5523C135.823 30.4323 136.015 30.3363 136.231 30.2643C136.951 30.0723 137.563 29.7723 138.067 29.3643C138.595 28.9563 138.979 28.4883 139.219 27.9603C139.795 26.6403 140.347 25.3323 140.875 24.0363C141.403 22.7403 141.919 21.4563 142.423 20.1843C142.927 18.8883 143.419 17.5923 143.899 16.2963C144.403 14.9763 144.895 13.6563 145.375 12.3363C145.783 11.2323 146.035 10.4523 146.131 9.99628C146.227 9.51628 146.311 9.26428 146.383 9.24028C146.863 9.12028 147.307 9.01228 147.715 8.91628C148.123 8.79628 148.579 8.65228 149.083 8.48428C149.539 8.31628 149.935 8.11228 150.271 7.87228C150.631 7.60828 150.895 7.39228 151.063 7.22428C151.183 7.15228 151.291 7.10428 151.387 7.08028C151.507 7.05628 151.615 7.14028 151.711 7.33228C151.807 7.50028 151.879 7.66828 151.927 7.83628C151.999 7.98028 152.059 8.14828 152.107 8.34028C152.587 9.92428 153.079 11.5203 153.583 13.1283C154.111 14.7363 154.639 16.3683 155.167 18.0243C155.695 19.6563 156.223 21.3003 156.751 22.9563C157.303 24.6123 157.843 26.2803 158.371 27.9603C158.491 28.3443 158.683 28.6923 158.947 29.0043C159.235 29.2923 159.571 29.5443 159.955 29.7603C160.339 29.9523 160.771 30.1203 161.251 30.2643C161.467 30.3363 161.647 30.4203 161.791 30.5163C161.959 30.6123 162.043 30.7803 162.043 31.0203C162.043 31.1883 161.971 31.3203 161.827 31.4163C161.707 31.5123 161.551 31.5603 161.359 31.5603C160.855 31.5603 160.231 31.5483 159.487 31.5243C158.767 31.5003 158.035 31.4763 157.291 31.4523C156.571 31.4283 155.935 31.4163 155.383 31.4163C154.903 31.4163 154.315 31.4283 153.619 31.4523C152.923 31.4763 152.215 31.5003 151.495 31.5243C150.775 31.5723 150.151 31.5963 149.623 31.5963C149.431 31.5963 149.251 31.5483 149.083 31.4523C148.939 31.3563 148.867 31.2243 148.867 31.0563C148.867 30.8403 148.939 30.6723 149.083 30.5523C149.251 30.4083 149.443 30.3123 149.659 30.2643C150.571 30.0723 151.243 29.8203 151.675 29.5083C152.107 29.1963 152.227 28.6923 152.035 27.9963C151.915 27.5163 151.783 27.0483 151.639 26.5923C151.519 26.1363 151.399 25.6803 151.279 25.2243C151.159 24.7443 151.039 24.2763 150.919 23.8203C150.871 23.6283 150.811 23.4843 150.739 23.3883C150.667 23.2683 150.535 23.2083 150.343 23.2083H144.079C143.887 23.2083 143.743 23.2683 143.647 23.3883C143.575 23.4843 143.515 23.6283 143.467 23.8203C143.371 24.1803 143.263 24.5163 143.143 24.8283C143.047 25.1163 142.951 25.4043 142.855 25.6923C142.759 25.9803 142.663 26.2803 142.567 26.5923C142.471 26.8803 142.375 27.2043 142.279 27.5643C142.063 28.3323 142.099 28.9083 142.387 29.2923C142.675 29.6763 143.383 30.0003 144.511 30.2643C145.039 30.3843 145.303 30.6483 145.303 31.0563C145.303 31.2243 145.243 31.3563 145.123 31.4523C145.003 31.5243 144.811 31.5603 144.547 31.5603C143.755 31.5603 143.059 31.5363 142.459 31.4883C141.859 31.4643 141.199 31.4523 140.479 31.4523C139.783 31.4523 139.111 31.4883 138.463 31.5603C137.839 31.6323 137.143 31.6683 136.375 31.6683ZM145.087 21.1203H149.587C149.947 21.1203 150.127 21.0363 150.127 20.8683C150.127 20.7723 150.115 20.7123 150.091 20.6883C150.091 20.6403 150.079 20.5683 150.055 20.4723L147.751 12.5163C147.679 12.2763 147.607 12.1563 147.535 12.1563C147.487 12.1563 147.415 12.2763 147.319 12.5163L144.547 20.4723C144.499 20.5683 144.475 20.6643 144.475 20.7603C144.475 20.8803 144.535 20.9763 144.655 21.0483C144.799 21.0963 144.943 21.1203 145.087 21.1203ZM169.274 31.5963C169.13 31.5963 168.962 31.5483 168.77 31.4523C168.602 31.3563 168.518 31.2243 168.518 31.0563C168.518 30.8403 168.59 30.6723 168.734 30.5523C168.902 30.4083 169.094 30.3123 169.31 30.2643C170.222 30.0723 170.87 29.8323 171.254 29.5443C171.662 29.2563 171.866 28.7403 171.866 27.9963V12.9483C171.866 12.0363 171.842 11.3763 171.794 10.9683C171.746 10.5363 171.686 10.2603 171.614 10.1403C171.542 9.99628 171.446 9.90028 171.326 9.85228C171.158 9.73228 170.894 9.66028 170.534 9.63628C170.198 9.61228 169.97 9.60028 169.85 9.60028H169.238C168.446 9.60028 167.69 9.80428 166.97 10.2123C166.25 10.6203 165.674 11.1123 165.242 11.6883C165.122 11.8563 164.942 12.0963 164.702 12.4083C164.462 12.7203 164.21 12.9963 163.946 13.2363C163.682 13.4763 163.418 13.5963 163.154 13.5963C162.938 13.5963 162.782 13.5363 162.686 13.4163C162.614 13.2723 162.578 13.1163 162.578 12.9483C162.578 12.6363 162.662 12.3123 162.83 11.9763C163.31 11.0403 163.658 10.2363 163.874 9.56428C164.114 8.89228 164.27 8.11228 164.342 7.22428C164.39 6.88828 164.498 6.64828 164.666 6.50428C164.834 6.36028 165.038 6.28828 165.278 6.28828C165.47 6.28828 165.662 6.44428 165.854 6.75628C166.046 7.06828 166.262 7.32028 166.502 7.51228C166.766 7.70428 167.186 7.84828 167.762 7.94428C168.338 8.04028 168.782 8.08828 169.094 8.08828L182.846 8.05228C183.398 8.05228 183.866 7.99228 184.25 7.87228C184.658 7.75228 184.946 7.64428 185.114 7.54828C185.522 7.30828 185.846 7.04428 186.086 6.75628C186.326 6.46828 186.602 6.32428 186.914 6.32428C187.082 6.32428 187.19 6.37228 187.238 6.46828C187.31 6.56428 187.346 6.70828 187.346 6.90028C187.346 6.99628 187.334 7.10428 187.31 7.22428C187.31 7.34428 187.298 7.46428 187.274 7.58428C187.154 8.06428 187.022 8.54428 186.878 9.02428C186.758 9.48028 186.65 9.92428 186.554 10.3563C186.482 10.7883 186.446 11.2203 186.446 11.6523V12.4083C186.446 12.8403 186.398 13.1763 186.302 13.4163C186.23 13.6323 186.074 13.7403 185.834 13.7403C185.594 13.7403 185.39 13.6323 185.222 13.4163C185.078 13.2003 184.922 12.8403 184.754 12.3363C184.442 11.3763 184.022 10.6803 183.494 10.2483C182.966 9.81628 182.186 9.60028 181.154 9.60028H179.678C179.294 9.60028 178.97 9.69628 178.706 9.88828C178.466 10.0803 178.286 10.4523 178.166 11.0043C178.046 11.5323 177.986 12.3243 177.986 13.3803V27.9603C177.986 28.6323 178.166 29.1243 178.526 29.4363C178.91 29.7243 179.57 30.0003 180.506 30.2643C180.722 30.3363 180.902 30.4203 181.046 30.5163C181.214 30.6123 181.298 30.7803 181.298 31.0203C181.298 31.1883 181.226 31.3203 181.082 31.4163C180.962 31.5123 180.806 31.5603 180.614 31.5603C180.11 31.5603 179.498 31.5483 178.778 31.5243C178.058 31.5003 177.338 31.4763 176.618 31.4523C175.922 31.4283 175.334 31.4163 174.854 31.4163C174.374 31.4163 173.798 31.4283 173.126 31.4523C172.454 31.4763 171.77 31.5003 171.074 31.5243C170.402 31.5723 169.802 31.5963 169.274 31.5963ZM191.96 31.5963C191.816 31.5963 191.672 31.5483 191.528 31.4523C191.384 31.3563 191.312 31.2243 191.312 31.0563C191.312 30.6483 191.54 30.3843 191.996 30.2643C192.908 30.0723 193.532 29.8323 193.868 29.5443C194.204 29.2563 194.372 28.7403 194.372 27.9963V11.6523C194.372 10.8843 194.216 10.3443 193.904 10.0323C193.592 9.72028 192.956 9.45628 191.996 9.24028C191.54 9.12028 191.312 8.85628 191.312 8.44828C191.312 8.28028 191.384 8.14828 191.528 8.05228C191.672 7.95628 191.816 7.90828 191.96 7.90828C192.488 7.90828 193.076 7.92028 193.724 7.94428C194.396 7.96828 195.044 8.00428 195.668 8.05228C196.316 8.07628 196.88 8.08828 197.36 8.08828C197.84 8.08828 198.416 8.07628 199.088 8.05228C199.76 8.02828 200.444 8.00428 201.14 7.98028C201.836 7.95628 202.436 7.94428 202.94 7.94428C203.132 7.94428 203.276 7.99228 203.372 8.08828C203.468 8.16028 203.516 8.29228 203.516 8.48428C203.516 8.72428 203.456 8.89228 203.336 8.98828C203.216 9.08428 203.048 9.16828 202.832 9.24028C201.848 9.52828 201.212 9.82828 200.924 10.1403C200.636 10.4523 200.492 10.9683 200.492 11.6883V27.9603C200.492 28.6323 200.648 29.1243 200.96 29.4363C201.272 29.7243 201.896 30.0003 202.832 30.2643C203.048 30.3363 203.216 30.4203 203.336 30.5163C203.456 30.6123 203.516 30.7803 203.516 31.0203C203.516 31.1883 203.468 31.3203 203.372 31.4163C203.276 31.5123 203.132 31.5603 202.94 31.5603C202.436 31.5603 201.836 31.5483 201.14 31.5243C200.444 31.5003 199.76 31.4763 199.088 31.4523C198.416 31.4283 197.84 31.4163 197.36 31.4163C196.88 31.4163 196.316 31.4283 195.668 31.4523C195.044 31.4763 194.396 31.5003 193.724 31.5243C193.076 31.5723 192.488 31.5963 191.96 31.5963ZM221.161 31.9923C219.481 31.9923 217.885 31.7163 216.373 31.1643C214.861 30.5883 213.517 29.7843 212.341 28.7523C211.165 27.6963 210.241 26.4483 209.569 25.0083C208.897 23.5443 208.561 21.9243 208.561 20.1483C208.561 18.5163 208.837 16.9563 209.389 15.4683C209.941 13.9563 210.757 12.6123 211.837 11.4363C212.941 10.2603 214.297 9.32428 215.905 8.62828C217.513 7.93228 219.373 7.58428 221.485 7.58428C223.165 7.58428 224.761 7.87228 226.273 8.44828C227.785 9.00028 229.129 9.80428 230.305 10.8603C231.481 11.8923 232.405 13.1403 233.077 14.6043C233.749 16.0443 234.085 17.6523 234.085 19.4283C234.085 21.0363 233.809 22.5963 233.257 24.1083C232.705 25.6203 231.877 26.9643 230.773 28.1403C229.693 29.3163 228.349 30.2523 226.741 30.9483C225.133 31.6443 223.273 31.9923 221.161 31.9923ZM221.809 30.3003C223.081 30.3003 224.137 29.9163 224.977 29.1483C225.841 28.3803 226.489 27.3243 226.921 25.9803C227.353 24.6123 227.569 23.0523 227.569 21.3003C227.569 19.8603 227.437 18.4323 227.173 17.0163C226.909 15.6003 226.501 14.3163 225.949 13.1643C225.397 11.9883 224.689 11.0523 223.825 10.3563C222.985 9.66028 221.965 9.31228 220.765 9.31228C219.517 9.31228 218.461 9.69628 217.597 10.4643C216.757 11.2323 216.121 12.2883 215.689 13.6323C215.281 14.9763 215.077 16.5243 215.077 18.2763C215.077 19.7163 215.209 21.1443 215.473 22.5603C215.737 23.9763 216.133 25.2723 216.661 26.4483C217.213 27.6003 217.909 28.5363 218.749 29.2563C219.613 29.9523 220.633 30.3003 221.809 30.3003ZM263.166 32.1723C262.83 32.1723 262.302 31.9803 261.582 31.5963C260.886 31.2363 260.142 30.5763 259.35 29.6163C258.678 28.8963 258.006 28.1883 257.334 27.4923C256.686 26.7723 256.026 26.0643 255.354 25.3683C254.682 24.6483 254.01 23.9403 253.338 23.2443C252.666 22.5243 251.994 21.8163 251.322 21.1203C250.674 20.4243 250.014 19.7283 249.342 19.0323C248.67 18.3123 247.998 17.6043 247.326 16.9083C246.678 16.1883 246.018 15.4683 245.346 14.7483C245.322 14.7003 245.262 14.6283 245.166 14.5323C245.07 14.4363 244.998 14.3883 244.95 14.3883C244.854 14.3883 244.782 14.4723 244.734 14.6403C244.71 14.8083 244.698 14.9523 244.698 15.0723C244.698 16.1523 244.71 17.4363 244.734 18.9243C244.782 20.4123 244.818 21.9123 244.842 23.4243C244.89 24.9123 244.914 26.2443 244.914 27.4203C244.914 28.2363 245.166 28.8603 245.67 29.2923C246.198 29.7003 246.942 30.0243 247.902 30.2643C248.118 30.3123 248.334 30.3963 248.55 30.5163C248.766 30.6123 248.874 30.7803 248.874 31.0203C248.874 31.1883 248.778 31.3203 248.586 31.4163C248.394 31.5123 248.202 31.5603 248.01 31.5603C247.362 31.5603 246.822 31.5483 246.39 31.5243C245.958 31.5003 245.55 31.4883 245.166 31.4883C244.806 31.4643 244.374 31.4523 243.87 31.4523C243.318 31.4523 242.778 31.4643 242.25 31.4883C241.746 31.5123 241.326 31.5363 240.99 31.5603C240.678 31.5843 240.522 31.5963 240.522 31.5963C240.378 31.5963 240.198 31.5483 239.982 31.4523C239.79 31.3563 239.694 31.2243 239.694 31.0563C239.694 30.8403 239.778 30.6843 239.946 30.5883C240.138 30.4683 240.342 30.3603 240.558 30.2643C241.11 30.0483 241.53 29.6883 241.818 29.1843C242.13 28.6803 242.31 28.0683 242.358 27.3483C242.454 26.4603 242.55 25.2843 242.646 23.8203C242.766 22.3563 242.874 20.7123 242.97 18.8883C243.066 17.0643 243.114 15.1683 243.114 13.2003C243.114 11.9523 242.802 11.0523 242.178 10.5003C241.554 9.94828 240.798 9.50428 239.91 9.16828C239.694 9.12028 239.478 9.03628 239.262 8.91628C239.046 8.77228 238.938 8.59228 238.938 8.37628C238.938 8.16028 239.022 8.01628 239.19 7.94428C239.382 7.84828 239.61 7.80028 239.874 7.80028C240.258 7.80028 240.726 7.81228 241.278 7.83628C241.854 7.86028 242.466 7.88428 243.114 7.90828C243.786 7.90828 244.47 7.92028 245.166 7.94428C245.862 7.96828 246.534 7.98028 247.182 7.98028C247.374 7.98028 247.518 8.01628 247.614 8.08828C247.734 8.13628 247.83 8.22028 247.902 8.34028C248.526 9.03628 249.15 9.74428 249.774 10.4643C250.422 11.1603 251.058 11.8563 251.682 12.5523C252.33 13.2483 252.966 13.9443 253.59 14.6403C254.238 15.3363 254.874 16.0443 255.498 16.7643C256.122 17.4603 256.746 18.1563 257.37 18.8523C258.018 19.5483 258.654 20.2563 259.278 20.9763C259.926 21.6723 260.562 22.3683 261.186 23.0643C261.258 23.1603 261.342 23.2563 261.438 23.3523C261.534 23.4483 261.618 23.4963 261.69 23.4963C261.882 23.4963 261.978 23.3283 261.978 22.9923C261.978 22.1523 261.978 21.2403 261.978 20.2563C261.978 19.2483 261.978 18.2283 261.978 17.1963C261.978 16.1403 261.966 15.1323 261.942 14.1723C261.942 13.1883 261.918 12.3243 261.87 11.5803C261.846 10.8843 261.594 10.3803 261.114 10.0683C260.658 9.75628 259.974 9.48028 259.062 9.24028C258.846 9.19228 258.654 9.12028 258.486 9.02428C258.318 8.90428 258.234 8.72428 258.234 8.48428C258.234 8.31628 258.318 8.18428 258.486 8.08828C258.654 7.99228 258.822 7.94428 258.99 7.94428C259.638 7.94428 260.166 7.95628 260.574 7.98028C260.982 7.98028 261.354 7.99228 261.69 8.01628C262.026 8.01628 262.398 8.01628 262.806 8.01628C263.286 8.01628 263.694 8.01628 264.03 8.01628C264.366 7.99228 264.726 7.96828 265.11 7.94428C265.518 7.92028 266.022 7.90828 266.622 7.90828C266.886 7.90828 267.09 7.95628 267.234 8.05228C267.402 8.14828 267.486 8.28028 267.486 8.44828C267.486 8.83228 267.186 9.08428 266.586 9.20428C265.77 9.37228 265.17 9.61228 264.786 9.92428C264.402 10.2363 264.21 10.7523 264.21 11.4723C264.21 12.5043 264.198 13.5363 264.174 14.5683C264.15 15.5763 264.114 16.5723 264.066 17.5563C264.018 18.5403 263.97 19.5003 263.922 20.4363C263.874 21.3483 263.838 22.2243 263.814 23.0643C263.79 23.9043 263.778 24.6723 263.778 25.3683C263.778 25.9203 263.814 26.5563 263.886 27.2763C263.958 27.9723 264.03 28.6203 264.102 29.2203C264.174 29.7963 264.21 30.1923 264.21 30.4083C264.21 31.0563 264.114 31.5123 263.922 31.7763C263.754 32.0403 263.502 32.1723 263.166 32.1723ZM297.747 31.7403C296.787 31.7403 295.803 31.7163 294.795 31.6683C293.811 31.6203 292.923 31.5723 292.131 31.5243C291.339 31.5003 290.787 31.4883 290.475 31.4883C289.995 31.4883 289.431 31.4883 288.783 31.4883C288.159 31.5123 287.511 31.5363 286.839 31.5603C286.191 31.5843 285.603 31.5963 285.075 31.5963C284.931 31.5963 284.787 31.5483 284.643 31.4523C284.499 31.3563 284.427 31.2243 284.427 31.0563C284.427 30.8403 284.487 30.6723 284.607 30.5523C284.727 30.4083 284.895 30.3123 285.111 30.2643C286.023 30.0723 286.647 29.8323 286.983 29.5443C287.319 29.2563 287.487 28.7403 287.487 27.9963V11.6523C287.487 10.8843 287.331 10.3443 287.019 10.0323C286.707 9.72028 286.071 9.45628 285.111 9.24028C284.895 9.19228 284.727 9.10828 284.607 8.98828C284.487 8.84428 284.427 8.66428 284.427 8.44828C284.427 8.28028 284.499 8.14828 284.643 8.05228C284.787 7.95628 284.931 7.90828 285.075 7.90828C285.603 7.90828 286.191 7.92028 286.839 7.94428C287.511 7.96828 288.159 8.00428 288.783 8.05228C289.431 8.07628 289.995 8.08828 290.475 8.08828C290.835 8.08828 291.327 8.07628 291.951 8.05228C292.599 8.00428 293.295 7.96828 294.039 7.94428C294.807 7.89628 295.551 7.86028 296.271 7.83628C296.991 7.78828 297.591 7.76428 298.071 7.76428C299.751 7.76428 301.347 8.05228 302.859 8.62828C304.371 9.18028 305.715 9.97228 306.891 11.0043C308.067 12.0363 308.991 13.2723 309.663 14.7123C310.335 16.1283 310.671 17.7003 310.671 19.4283C310.671 21.0123 310.395 22.5483 309.843 24.0363C309.291 25.5003 308.463 26.8083 307.359 27.9603C306.279 29.1123 304.935 30.0363 303.327 30.7323C301.719 31.4043 299.859 31.7403 297.747 31.7403ZM297.171 29.7603C298.755 29.7603 300.051 29.3763 301.059 28.6083C302.091 27.8403 302.847 26.7603 303.327 25.3683C303.831 23.9763 304.083 22.3443 304.083 20.4723C304.083 18.8883 303.927 17.4483 303.615 16.1523C303.327 14.8563 302.883 13.7403 302.283 12.8043C301.683 11.8683 300.927 11.1483 300.015 10.6443C299.103 10.1163 298.035 9.85228 296.811 9.85228C296.091 9.85228 295.491 9.87628 295.011 9.92428C294.555 9.97228 294.207 10.0803 293.967 10.2483C293.727 10.3923 293.607 10.6563 293.607 11.0403V26.6643C293.607 27.4083 293.727 28.0083 293.967 28.4643C294.231 28.9203 294.627 29.2563 295.155 29.4723C295.683 29.6643 296.355 29.7603 297.171 29.7603ZM314.294 31.6683C314.03 31.6683 313.802 31.6203 313.61 31.5243C313.442 31.4523 313.358 31.2963 313.358 31.0563C313.358 30.8163 313.43 30.6483 313.574 30.5523C313.742 30.4323 313.934 30.3363 314.15 30.2643C314.87 30.0723 315.482 29.7723 315.986 29.3643C316.514 28.9563 316.898 28.4883 317.138 27.9603C317.714 26.6403 318.266 25.3323 318.794 24.0363C319.322 22.7403 319.838 21.4563 320.342 20.1843C320.846 18.8883 321.338 17.5923 321.818 16.2963C322.322 14.9763 322.814 13.6563 323.294 12.3363C323.702 11.2323 323.954 10.4523 324.05 9.99628C324.146 9.51628 324.23 9.26428 324.302 9.24028C324.782 9.12028 325.226 9.01228 325.634 8.91628C326.042 8.79628 326.498 8.65228 327.002 8.48428C327.458 8.31628 327.854 8.11228 328.19 7.87228C328.55 7.60828 328.814 7.39228 328.982 7.22428C329.102 7.15228 329.21 7.10428 329.306 7.08028C329.426 7.05628 329.534 7.14028 329.63 7.33228C329.726 7.50028 329.798 7.66828 329.846 7.83628C329.918 7.98028 329.978 8.14828 330.026 8.34028C330.506 9.92428 330.998 11.5203 331.502 13.1283C332.03 14.7363 332.558 16.3683 333.086 18.0243C333.614 19.6563 334.142 21.3003 334.67 22.9563C335.222 24.6123 335.762 26.2803 336.29 27.9603C336.41 28.3443 336.602 28.6923 336.866 29.0043C337.154 29.2923 337.49 29.5443 337.874 29.7603C338.258 29.9523 338.69 30.1203 339.17 30.2643C339.386 30.3363 339.566 30.4203 339.71 30.5163C339.878 30.6123 339.962 30.7803 339.962 31.0203C339.962 31.1883 339.89 31.3203 339.746 31.4163C339.626 31.5123 339.47 31.5603 339.278 31.5603C338.774 31.5603 338.15 31.5483 337.406 31.5243C336.686 31.5003 335.954 31.4763 335.21 31.4523C334.49 31.4283 333.854 31.4163 333.302 31.4163C332.822 31.4163 332.234 31.4283 331.538 31.4523C330.842 31.4763 330.134 31.5003 329.414 31.5243C328.694 31.5723 328.07 31.5963 327.542 31.5963C327.35 31.5963 327.17 31.5483 327.002 31.4523C326.858 31.3563 326.786 31.2243 326.786 31.0563C326.786 30.8403 326.858 30.6723 327.002 30.5523C327.17 30.4083 327.362 30.3123 327.578 30.2643C328.49 30.0723 329.162 29.8203 329.594 29.5083C330.026 29.1963 330.146 28.6923 329.954 27.9963C329.834 27.5163 329.702 27.0483 329.558 26.5923C329.438 26.1363 329.318 25.6803 329.198 25.2243C329.078 24.7443 328.958 24.2763 328.838 23.8203C328.79 23.6283 328.73 23.4843 328.658 23.3883C328.586 23.2683 328.454 23.2083 328.262 23.2083H321.998C321.806 23.2083 321.662 23.2683 321.566 23.3883C321.494 23.4843 321.434 23.6283 321.386 23.8203C321.29 24.1803 321.182 24.5163 321.062 24.8283C320.966 25.1163 320.87 25.4043 320.774 25.6923C320.678 25.9803 320.582 26.2803 320.486 26.5923C320.39 26.8803 320.294 27.2043 320.198 27.5643C319.982 28.3323 320.018 28.9083 320.306 29.2923C320.594 29.6763 321.302 30.0003 322.43 30.2643C322.958 30.3843 323.222 30.6483 323.222 31.0563C323.222 31.2243 323.162 31.3563 323.042 31.4523C322.922 31.5243 322.73 31.5603 322.466 31.5603C321.674 31.5603 320.978 31.5363 320.378 31.4883C319.778 31.4643 319.118 31.4523 318.398 31.4523C317.702 31.4523 317.03 31.4883 316.382 31.5603C315.758 31.6323 315.062 31.6683 314.294 31.6683ZM323.006 21.1203H327.506C327.866 21.1203 328.046 21.0363 328.046 20.8683C328.046 20.7723 328.034 20.7123 328.01 20.6883C328.01 20.6403 327.998 20.5683 327.974 20.4723L325.67 12.5163C325.598 12.2763 325.526 12.1563 325.454 12.1563C325.406 12.1563 325.334 12.2763 325.238 12.5163L322.466 20.4723C322.418 20.5683 322.394 20.6643 322.394 20.7603C322.394 20.8803 322.454 20.9763 322.574 21.0483C322.718 21.0963 322.862 21.1203 323.006 21.1203ZM356.021 31.9923C354.341 31.9923 352.745 31.7163 351.233 31.1643C349.721 30.5883 348.377 29.7843 347.201 28.7523C346.025 27.6963 345.101 26.4483 344.429 25.0083C343.757 23.5443 343.421 21.9243 343.421 20.1483C343.421 18.5163 343.697 16.9563 344.249 15.4683C344.801 13.9563 345.617 12.6123 346.697 11.4363C347.801 10.2603 349.157 9.32428 350.765 8.62828C352.373 7.93228 354.233 7.58428 356.345 7.58428C358.025 7.58428 359.621 7.87228 361.133 8.44828C362.645 9.00028 363.989 9.80428 365.165 10.8603C366.341 11.8923 367.265 13.1403 367.937 14.6043C368.609 16.0443 368.945 17.6523 368.945 19.4283C368.945 21.0363 368.669 22.5963 368.117 24.1083C367.565 25.6203 366.737 26.9643 365.633 28.1403C364.553 29.3163 363.209 30.2523 361.601 30.9483C359.993 31.6443 358.133 31.9923 356.021 31.9923ZM356.669 30.3003C357.941 30.3003 358.997 29.9163 359.837 29.1483C360.701 28.3803 361.349 27.3243 361.781 25.9803C362.213 24.6123 362.429 23.0523 362.429 21.3003C362.429 19.8603 362.297 18.4323 362.033 17.0163C361.769 15.6003 361.361 14.3163 360.809 13.1643C360.257 11.9883 359.549 11.0523 358.685 10.3563C357.845 9.66028 356.825 9.31228 355.625 9.31228C354.377 9.31228 353.321 9.69628 352.457 10.4643C351.617 11.2323 350.981 12.2883 350.549 13.6323C350.141 14.9763 349.937 16.5243 349.937 18.2763C349.937 19.7163 350.069 21.1443 350.333 22.5603C350.597 23.9763 350.993 25.2723 351.521 26.4483C352.073 27.6003 352.769 28.5363 353.609 29.2563C354.473 29.9523 355.493 30.3003 356.669 30.3003Z" fill="white"/>
</svg>
