<svg width="310" height="37" viewBox="0 0 310 37" fill="none" xmlns="http://www.w3.org/2000/svg">
<path d="M150 0V36.3573H139.709V11.959L124.145 29.008H122.114L98.1973 1.1946V0H109.859L123.13 15.7895L139.709 0H150Z" fill="black"/>
<path d="M90.6793 0C97.1198 0 100.626 3.50589 100.626 9.9723V26.385C100.626 32.8515 97.1198 36.3573 90.6793 36.3573H52.8937V28.1769H88.5758C91.1468 28.1769 91.5363 27.7874 91.5363 25.2164V11.1409C91.5363 8.56995 91.1468 8.1804 88.5758 8.1804H52.8937V0H90.6793Z" fill="black"/>
<path d="M9.9723 36.3573C3.53186 36.3573 0 32.8515 0 26.385V0H9.08934V25.2164C9.08934 27.7874 9.47888 28.1769 12.0499 28.1769H39.3698C41.9408 28.1769 42.3303 27.7874 42.3303 25.2164V0H51.4197V26.385C51.4197 32.8515 47.9138 36.3573 41.4733 36.3573H9.9723Z" fill="black"/>
<path d="M165.632 24.3867C165.109 24.3867 164.608 24.312 164.128 24.1627C163.659 24.0027 163.237 23.7413 162.864 23.3787C162.491 23.016 162.197 22.5307 161.984 21.9227C161.771 21.304 161.664 20.5413 161.664 19.6347V12.5147H162.608V19.5707C162.608 20.5733 162.747 21.368 163.024 21.9547C163.312 22.5307 163.685 22.936 164.144 23.1707C164.603 23.4053 165.099 23.5227 165.632 23.5227C166.187 23.5227 166.693 23.4053 167.152 23.1707C167.621 22.936 167.995 22.5307 168.272 21.9547C168.56 21.368 168.704 20.5733 168.704 19.5707V12.5147H169.632V19.6347C169.632 20.5413 169.525 21.304 169.312 21.9227C169.099 22.5307 168.8 23.016 168.416 23.3787C168.043 23.7413 167.616 24.0027 167.136 24.1627C166.656 24.312 166.155 24.3867 165.632 24.3867ZM173.361 24.1787V15.6347H174.129L174.241 16.9467H174.273C174.7 16.52 175.143 16.1627 175.601 15.8747C176.071 15.576 176.599 15.4267 177.185 15.4267C178.071 15.4267 178.721 15.704 179.137 16.2587C179.564 16.8027 179.777 17.624 179.777 18.7227V24.1787H178.849V18.8507C178.849 17.9653 178.7 17.3147 178.401 16.8987C178.113 16.472 177.633 16.2587 176.961 16.2587C176.471 16.2587 176.028 16.3867 175.633 16.6427C175.239 16.8987 174.791 17.2827 174.289 17.7947V24.1787H173.361ZM183.31 24.1787V15.6347H184.238V24.1787H183.31ZM183.79 13.6507C183.566 13.6507 183.385 13.5813 183.246 13.4427C183.118 13.2933 183.054 13.1013 183.054 12.8667C183.054 12.6427 183.118 12.4613 183.246 12.3227C183.385 12.184 183.566 12.1147 183.79 12.1147C184.003 12.1147 184.179 12.184 184.318 12.3227C184.457 12.4613 184.526 12.6427 184.526 12.8667C184.526 13.1013 184.457 13.2933 184.318 13.4427C184.179 13.5813 184.003 13.6507 183.79 13.6507ZM193.451 27.9707V24.7387L193.499 23.0747C193.126 23.4373 192.71 23.7467 192.251 24.0027C191.793 24.2587 191.286 24.3867 190.731 24.3867C190.017 24.3867 189.393 24.216 188.859 23.8747C188.337 23.5333 187.926 23.032 187.627 22.3707C187.339 21.6987 187.195 20.8827 187.195 19.9227C187.195 19.0053 187.371 18.2107 187.723 17.5387C188.075 16.8667 188.534 16.3493 189.099 15.9867C189.675 15.6133 190.299 15.4267 190.971 15.4267C191.483 15.4267 191.931 15.5173 192.315 15.6987C192.71 15.8693 193.099 16.1147 193.483 16.4347H193.515L193.627 15.6347H194.395V27.9707H193.451ZM190.891 23.5707C191.35 23.5707 191.787 23.4587 192.203 23.2347C192.619 23 193.035 22.664 193.451 22.2267V17.2987C193.025 16.9147 192.619 16.6427 192.235 16.4827C191.851 16.3227 191.457 16.2427 191.051 16.2427C190.518 16.2427 190.033 16.408 189.595 16.7387C189.169 17.0587 188.827 17.496 188.571 18.0507C188.315 18.5947 188.187 19.2187 188.187 19.9227C188.187 20.6587 188.289 21.304 188.491 21.8587C188.705 22.4027 189.014 22.824 189.419 23.1227C189.825 23.4213 190.315 23.5707 190.891 23.5707ZM200.515 24.3867C199.63 24.3867 198.974 24.1147 198.547 23.5707C198.131 23.0267 197.923 22.2 197.923 21.0907V15.6347H198.867V20.9787C198.867 21.864 199.011 22.5147 199.299 22.9307C199.598 23.3467 200.072 23.5547 200.723 23.5547C201.214 23.5547 201.656 23.4213 202.051 23.1547C202.456 22.888 202.899 22.4667 203.379 21.8907V15.6347H204.323V24.1787H203.523L203.443 22.7707H203.411C202.984 23.2507 202.542 23.64 202.083 23.9387C201.635 24.2373 201.112 24.3867 200.515 24.3867ZM211.249 24.3867C210.513 24.3867 209.841 24.2107 209.233 23.8587C208.635 23.496 208.155 22.984 207.793 22.3227C207.441 21.6613 207.265 20.8613 207.265 19.9227C207.265 19.2293 207.366 18.6053 207.569 18.0507C207.771 17.496 208.049 17.0267 208.401 16.6427C208.763 16.248 209.169 15.9493 209.617 15.7467C210.065 15.5333 210.529 15.4267 211.009 15.4267C211.691 15.4267 212.278 15.5867 212.769 15.9067C213.259 16.216 213.638 16.6693 213.905 17.2667C214.171 17.8533 214.305 18.5627 214.305 19.3947C214.305 19.512 214.299 19.6293 214.289 19.7467C214.289 19.8533 214.278 19.9653 214.257 20.0827H208.209C208.23 20.7653 208.369 21.3733 208.625 21.9067C208.891 22.4293 209.254 22.8453 209.713 23.1547C210.171 23.4533 210.71 23.6027 211.329 23.6027C211.787 23.6027 212.198 23.5387 212.561 23.4107C212.923 23.272 213.265 23.0907 213.585 22.8667L213.953 23.5547C213.611 23.768 213.227 23.96 212.801 24.1307C212.374 24.3013 211.857 24.3867 211.249 24.3867ZM208.209 19.3307H213.441C213.441 18.3067 213.222 17.5333 212.785 17.0107C212.347 16.488 211.755 16.2267 211.009 16.2267C210.55 16.2267 210.118 16.3493 209.713 16.5947C209.307 16.84 208.971 17.192 208.705 17.6507C208.438 18.1093 208.273 18.6693 208.209 19.3307ZM221.165 24.1787V12.5147H223.901C225.107 12.5147 226.104 12.7493 226.893 13.2187C227.683 13.688 228.269 14.3547 228.653 15.2187C229.048 16.0827 229.245 17.112 229.245 18.3067C229.245 19.5013 229.053 20.5413 228.669 21.4267C228.285 22.3013 227.699 22.9787 226.909 23.4587C226.12 23.9387 225.133 24.1787 223.949 24.1787H221.165ZM222.125 23.3627H223.805C224.829 23.3627 225.672 23.1547 226.333 22.7387C226.995 22.312 227.48 21.72 227.789 20.9627C228.099 20.1947 228.253 19.3093 228.253 18.3067C228.253 17.2933 228.099 16.4133 227.789 15.6667C227.48 14.92 226.995 14.344 226.333 13.9387C225.672 13.5333 224.829 13.3307 223.805 13.3307H222.125V23.3627ZM234.187 24.3867C233.729 24.3867 233.313 24.3013 232.939 24.1307C232.566 23.9493 232.267 23.688 232.043 23.3467C231.819 22.9947 231.707 22.552 231.707 22.0187C231.707 21.08 232.139 20.3653 233.003 19.8747C233.878 19.3733 235.254 19.0213 237.131 18.8187C237.153 18.392 237.11 17.9867 237.003 17.6027C236.907 17.208 236.715 16.8827 236.427 16.6267C236.15 16.3707 235.739 16.2427 235.195 16.2427C234.641 16.2427 234.129 16.3547 233.659 16.5787C233.201 16.792 232.817 17.0053 232.507 17.2187L232.107 16.5307C232.321 16.3813 232.587 16.2213 232.907 16.0507C233.238 15.88 233.606 15.736 234.011 15.6187C234.417 15.4907 234.849 15.4267 235.307 15.4267C235.99 15.4267 236.534 15.576 236.939 15.8747C237.345 16.1627 237.633 16.5573 237.803 17.0587C237.985 17.56 238.075 18.1307 238.075 18.7707V24.1787H237.307L237.211 23.0907H237.147C236.731 23.4427 236.273 23.7467 235.771 24.0027C235.27 24.2587 234.742 24.3867 234.187 24.3867ZM234.379 23.5867C234.849 23.5867 235.302 23.48 235.739 23.2667C236.177 23.0427 236.641 22.712 237.131 22.2747V19.5067C236.022 19.624 235.137 19.7947 234.475 20.0187C233.814 20.2427 233.339 20.5147 233.051 20.8347C232.774 21.1547 232.635 21.5333 232.635 21.9707C232.635 22.568 232.806 22.9893 233.147 23.2347C233.489 23.4693 233.899 23.5867 234.379 23.5867ZM243.711 24.3867C243.145 24.3867 242.703 24.28 242.383 24.0667C242.073 23.8427 241.849 23.5333 241.711 23.1387C241.583 22.744 241.519 22.2853 241.519 21.7627V16.4347H240.207V15.7307L241.551 15.6347L241.663 13.1867H242.447V15.6347H244.895V16.4347H242.447V21.8267C242.447 22.36 242.537 22.7867 242.719 23.1067C242.911 23.4267 243.295 23.5867 243.871 23.5867C244.031 23.5867 244.207 23.5653 244.399 23.5227C244.591 23.4693 244.761 23.4053 244.911 23.3307L245.135 24.0667C244.889 24.152 244.639 24.2267 244.383 24.2907C244.137 24.3547 243.913 24.3867 243.711 24.3867ZM248.897 24.3867C248.439 24.3867 248.023 24.3013 247.649 24.1307C247.276 23.9493 246.977 23.688 246.753 23.3467C246.529 22.9947 246.417 22.552 246.417 22.0187C246.417 21.08 246.849 20.3653 247.713 19.8747C248.588 19.3733 249.964 19.0213 251.841 18.8187C251.863 18.392 251.82 17.9867 251.713 17.6027C251.617 17.208 251.425 16.8827 251.137 16.6267C250.86 16.3707 250.449 16.2427 249.905 16.2427C249.351 16.2427 248.839 16.3547 248.369 16.5787C247.911 16.792 247.527 17.0053 247.217 17.2187L246.817 16.5307C247.031 16.3813 247.297 16.2213 247.617 16.0507C247.948 15.88 248.316 15.736 248.721 15.6187C249.127 15.4907 249.559 15.4267 250.017 15.4267C250.7 15.4267 251.244 15.576 251.649 15.8747C252.055 16.1627 252.343 16.5573 252.513 17.0587C252.695 17.56 252.785 18.1307 252.785 18.7707V24.1787H252.017L251.921 23.0907H251.857C251.441 23.4427 250.983 23.7467 250.481 24.0027C249.98 24.2587 249.452 24.3867 248.897 24.3867ZM249.089 23.5867C249.559 23.5867 250.012 23.48 250.449 23.2667C250.887 23.0427 251.351 22.712 251.841 22.2747V19.5067C250.732 19.624 249.847 19.7947 249.185 20.0187C248.524 20.2427 248.049 20.5147 247.761 20.8347C247.484 21.1547 247.345 21.5333 247.345 21.9707C247.345 22.568 247.516 22.9893 247.857 23.2347C248.199 23.4693 248.609 23.5867 249.089 23.5867ZM260.347 24.1787V12.5147H261.643L264.027 19.2187C264.176 19.6347 264.325 20.0613 264.475 20.4987C264.624 20.9253 264.779 21.352 264.939 21.7787H265.003C265.152 21.352 265.296 20.9253 265.435 20.4987C265.584 20.0613 265.728 19.6347 265.867 19.2187L268.267 12.5147H269.547V24.1787H268.635V16.7867C268.635 16.456 268.64 16.1093 268.651 15.7467C268.661 15.3733 268.677 15 268.699 14.6267C268.72 14.2427 268.736 13.8907 268.747 13.5707H268.683L267.771 16.1787L265.323 22.9307H264.555L262.091 16.1787L261.163 13.5707H261.099C261.131 13.8907 261.152 14.2427 261.163 14.6267C261.184 15 261.2 15.3733 261.211 15.7467C261.221 16.1093 261.227 16.456 261.227 16.7867V24.1787H260.347ZM273.324 24.1787V15.6347H274.252V24.1787H273.324ZM273.804 13.6507C273.58 13.6507 273.399 13.5813 273.26 13.4427C273.132 13.2933 273.068 13.1013 273.068 12.8667C273.068 12.6427 273.132 12.4613 273.26 12.3227C273.399 12.184 273.58 12.1147 273.804 12.1147C274.018 12.1147 274.194 12.184 274.332 12.3227C274.471 12.4613 274.54 12.6427 274.54 12.8667C274.54 13.1013 274.471 13.2933 274.332 13.4427C274.194 13.5813 274.018 13.6507 273.804 13.6507ZM277.914 24.1787V15.6347H278.682L278.794 16.9467H278.826C279.252 16.52 279.695 16.1627 280.154 15.8747C280.623 15.576 281.151 15.4267 281.738 15.4267C282.623 15.4267 283.274 15.704 283.69 16.2587C284.116 16.8027 284.33 17.624 284.33 18.7227V24.1787H283.402V18.8507C283.402 17.9653 283.252 17.3147 282.954 16.8987C282.666 16.472 282.186 16.2587 281.514 16.2587C281.023 16.2587 280.58 16.3867 280.186 16.6427C279.791 16.8987 279.343 17.2827 278.842 17.7947V24.1787H277.914ZM287.862 24.1787V15.6347H288.79V24.1787H287.862ZM288.342 13.6507C288.118 13.6507 287.937 13.5813 287.798 13.4427C287.67 13.2933 287.606 13.1013 287.606 12.8667C287.606 12.6427 287.67 12.4613 287.798 12.3227C287.937 12.184 288.118 12.1147 288.342 12.1147C288.556 12.1147 288.732 12.184 288.87 12.3227C289.009 12.4613 289.078 12.6427 289.078 12.8667C289.078 13.1013 289.009 13.2933 288.87 13.4427C288.732 13.5813 288.556 13.6507 288.342 13.6507ZM292.452 24.1787V15.6347H293.22L293.332 16.9467H293.364C293.791 16.52 294.233 16.1627 294.692 15.8747C295.161 15.576 295.689 15.4267 296.276 15.4267C297.161 15.4267 297.812 15.704 298.228 16.2587C298.655 16.8027 298.868 17.624 298.868 18.7227V24.1787H297.94V18.8507C297.94 17.9653 297.791 17.3147 297.492 16.8987C297.204 16.472 296.724 16.2587 296.052 16.2587C295.561 16.2587 295.119 16.3867 294.724 16.6427C294.329 16.8987 293.881 17.2827 293.38 17.7947V24.1787H292.452ZM305.201 28.2427C304.486 28.2427 303.867 28.1467 303.345 27.9547C302.822 27.7627 302.417 27.4907 302.129 27.1387C301.841 26.7973 301.697 26.3867 301.697 25.9067C301.697 25.5333 301.809 25.1653 302.033 24.8027C302.257 24.4507 302.571 24.1413 302.977 23.8747V23.7947C302.753 23.6667 302.566 23.4907 302.417 23.2667C302.278 23.032 302.209 22.7493 302.209 22.4187C302.209 22.0453 302.315 21.7253 302.529 21.4587C302.742 21.192 302.95 20.9893 303.153 20.8507V20.7867C302.875 20.552 302.619 20.2373 302.385 19.8427C302.161 19.4373 302.049 18.9733 302.049 18.4507C302.049 17.8533 302.182 17.3307 302.449 16.8827C302.726 16.424 303.094 16.0667 303.553 15.8107C304.022 15.5547 304.534 15.4267 305.089 15.4267C305.334 15.4267 305.553 15.448 305.745 15.4907C305.947 15.5333 306.118 15.5813 306.257 15.6347H309.153V16.4187H307.233C307.499 16.6427 307.713 16.9307 307.873 17.2827C308.033 17.6347 308.113 18.0293 308.113 18.4667C308.113 19.0533 307.974 19.576 307.697 20.0347C307.43 20.4827 307.067 20.8347 306.609 21.0907C306.161 21.3467 305.654 21.4747 305.089 21.4747C304.865 21.4747 304.63 21.4427 304.385 21.3787C304.139 21.3147 303.921 21.2293 303.729 21.1227C303.547 21.2613 303.387 21.4267 303.249 21.6187C303.121 21.8107 303.057 22.04 303.057 22.3067C303.057 22.6053 303.169 22.8613 303.393 23.0747C303.617 23.2773 304.038 23.3787 304.657 23.3787H306.465C307.425 23.3787 308.134 23.5387 308.593 23.8587C309.062 24.168 309.297 24.664 309.297 25.3467C309.297 25.8373 309.126 26.3067 308.785 26.7547C308.454 27.2027 307.979 27.56 307.361 27.8267C306.753 28.104 306.033 28.2427 305.201 28.2427ZM305.089 20.7547C305.473 20.7547 305.825 20.6587 306.145 20.4667C306.465 20.2747 306.721 20.008 306.913 19.6667C307.115 19.3147 307.217 18.9093 307.217 18.4507C307.217 17.9813 307.121 17.576 306.929 17.2347C306.737 16.8933 306.481 16.632 306.161 16.4507C305.841 16.2693 305.483 16.1787 305.089 16.1787C304.705 16.1787 304.353 16.2693 304.033 16.4507C303.713 16.632 303.457 16.8933 303.265 17.2347C303.083 17.5653 302.993 17.9707 302.993 18.4507C302.993 18.9093 303.089 19.3147 303.281 19.6667C303.473 20.008 303.729 20.2747 304.049 20.4667C304.369 20.6587 304.715 20.7547 305.089 20.7547ZM305.297 27.5227C305.926 27.5227 306.465 27.4213 306.913 27.2187C307.371 27.016 307.729 26.7547 307.985 26.4347C308.241 26.1253 308.369 25.8053 308.369 25.4747C308.369 25.0053 308.203 24.6747 307.873 24.4827C307.542 24.3013 307.067 24.2107 306.449 24.2107H304.689C304.593 24.2107 304.443 24.2 304.241 24.1787C304.049 24.1573 303.841 24.12 303.617 24.0667C303.254 24.3227 302.987 24.6 302.817 24.8987C302.657 25.208 302.577 25.5067 302.577 25.7947C302.577 26.3067 302.811 26.7227 303.281 27.0427C303.761 27.3627 304.433 27.5227 305.297 27.5227Z" fill="black"/>
</svg>
