<svg width="241" height="69" viewBox="0 0 241 69" fill="none" xmlns="http://www.w3.org/2000/svg">
<g clip-path="url(#clip0_6003_2095)">
<path d="M109.149 24.2793C108.873 24.2793 108.607 24.1487 108.458 23.8976L103.5 15.7814C103.277 15.4197 103.415 14.9577 103.787 14.7568C104.17 14.5458 104.66 14.6764 104.873 15.028L109.83 23.1442C110.053 23.5059 109.915 23.9679 109.543 24.1688C109.415 24.2391 109.277 24.2693 109.149 24.2693V24.2793Z" fill="#3E7976"/>
<path d="M114.925 23.0539C114.489 23.0539 114.127 22.7123 114.127 22.3005V12.9387C114.127 12.5268 114.489 12.1853 114.925 12.1853C115.361 12.1853 115.723 12.5268 115.723 12.9387V22.3105C115.723 22.7224 115.361 23.0639 114.925 23.0639V23.0539Z" fill="#3E7976"/>
<path d="M105.138 28.3977C105 28.3977 104.862 28.3676 104.745 28.2973L96.1491 23.6164C95.7661 23.4054 95.6385 22.9434 95.8619 22.5918C96.0853 22.2402 96.5747 22.1096 96.947 22.3206L105.543 27.0015C105.926 27.2124 106.053 27.6745 105.83 28.0261C105.681 28.2672 105.415 28.4078 105.138 28.4078V28.3977Z" fill="#3E7976"/>
<path d="M240.489 40.542V33.2092C240.489 32.3152 240.159 31.5418 239.5 30.919L238.17 29.6533C237.479 29.0105 236.67 28.679 235.745 28.679H225.138C223.734 28.679 222.936 29.4424 222.936 30.7583V55.9207C222.936 57.2366 223.734 58 225.138 58H235.745C236.691 58 237.511 57.6786 238.17 57.0658L239.5 55.8002C240.223 55.1171 240.564 54.3236 240.489 53.4698V46.4182C240.489 45.4941 240.159 44.7106 239.5 44.0878L239.415 44.0075C239.181 43.7865 239.159 43.6157 239.159 43.4952C239.159 43.2943 239.266 43.0833 239.521 42.8523C240.17 42.1793 240.489 41.4058 240.489 40.542ZM235.67 52.3347C235.67 53.1081 235.351 53.4095 234.532 53.4095H228.936C228.117 53.4095 227.798 53.1081 227.798 52.3347V46.8502C227.798 46.0767 228.117 45.7754 228.936 45.7754H234.532C235.351 45.7754 235.67 46.0767 235.67 46.8502V52.3347ZM227.798 34.3543C227.798 33.5809 228.117 33.2795 228.936 33.2795H234.489C235.308 33.2795 235.628 33.5809 235.628 34.3543V40.1101C235.628 40.8835 235.308 41.1849 234.489 41.1849H228.936C228.117 41.1849 227.798 40.8835 227.798 40.1101V34.3543Z" fill="#3E7976"/>
<path d="M219.819 30.6779V53.4296C219.883 54.2834 219.553 55.0769 218.83 55.76L217.49 57.0256C216.83 57.6384 216.022 57.9598 215.075 57.9598H207.011C206.064 57.9598 205.245 57.6384 204.585 57.0256L203.213 55.7198C202.553 55.097 202.224 54.3336 202.224 53.4296V30.6779C202.224 29.362 203.022 28.5986 204.426 28.5986H204.883C206.277 28.5986 207.085 29.362 207.085 30.6779V52.2945C207.085 53.068 207.404 53.3693 208.224 53.3693H213.819C214.639 53.3693 214.958 53.068 214.958 52.2945V30.6779C214.958 29.362 215.756 28.5986 217.16 28.5986H217.617C219.022 28.5986 219.819 29.362 219.819 30.6779Z" fill="#3E7976"/>
<path d="M199.106 30.6779V55.9207C199.106 57.2366 198.298 58 196.904 58H196.436C195.043 58 194.234 57.2366 194.234 55.9207V45.6247C194.234 44.8513 193.915 44.5499 193.096 44.5499H187.5C186.681 44.5499 186.362 44.8513 186.362 45.6247V55.9207C186.362 57.2366 185.564 58 184.16 58H183.702C182.309 58 181.5 57.2366 181.5 55.9207V30.6779C181.5 29.362 182.309 28.5986 183.702 28.5986H184.16C185.564 28.5986 186.362 29.362 186.362 30.6779V38.8846C186.362 39.658 186.681 39.9594 187.5 39.9594H193.096C193.915 39.9594 194.234 39.658 194.234 38.8846V30.6779C194.234 29.362 195.043 28.5986 196.436 28.5986H196.904C198.298 28.5986 199.106 29.362 199.106 30.6779Z" fill="#3E7976"/>
<path d="M169.904 48.0656C170.564 48.6884 170.894 49.4619 170.894 50.3559V53.4698C170.894 54.3738 170.564 55.1372 169.904 55.76L168.532 57.0658C167.873 57.6786 167.053 58 166.107 58H161.011C160.064 58 159.245 57.6786 158.585 57.0658L157.213 55.76C156.553 55.1372 156.224 54.3738 156.224 53.4698C156.224 52.1137 157.021 51.3503 158.426 51.3503H158.883C160.798 51.3503 161.085 52.3146 161.085 52.8771C161.085 53.0378 161.085 53.3995 162.224 53.3995H164.894C165.713 53.3995 166.032 53.0981 166.032 52.3246V51.1494C166.032 50.3759 165.713 50.0746 164.894 50.0746H160.968C160.49 50.0746 160.064 50.0043 159.702 49.8837C159.319 49.723 158.947 49.492 158.585 49.2107L157.319 48.1761C156.596 47.6136 156.224 46.8301 156.224 45.8658V41.9985C156.224 41.1246 156.564 40.3612 157.256 39.7083L158.585 38.4527C159.245 37.8299 160.064 37.5185 161.011 37.5185H166.107C167.085 37.5185 167.915 37.8299 168.564 38.4527L169.904 39.7083C170.564 40.3311 170.894 41.1045 170.894 41.9985C170.894 43.3948 170.096 44.1582 168.692 44.1582H168.234C166.319 44.1582 166.032 43.1738 166.032 42.5912C166.032 42.4304 166.032 42.0688 164.894 42.0688H162.224C161.404 42.0688 161.085 42.3702 161.085 43.1436V44.7609C161.085 45.5343 161.404 45.8357 162.224 45.8357H166.107C167.053 45.8357 167.873 46.147 168.532 46.7698L169.904 48.0656Z" fill="#3E7976"/>
<path d="M154.766 39.5978V40.0297C154.766 41.3456 153.958 42.109 152.564 42.109C152.107 42.109 151.628 42.1894 151.628 43.1838V55.8805C151.628 57.1964 150.83 57.9598 149.426 57.9598H148.968C147.575 57.9598 146.766 57.1964 146.766 55.8805V42.0387C146.766 41.1447 147.096 40.3712 147.755 39.7485L149.138 38.4527C149.798 37.8299 150.607 37.5185 151.553 37.5185H152.564C153.958 37.5185 154.766 38.2719 154.766 39.5978Z" fill="#3E7976"/>
<path d="M134.617 50.6672H141.043C142.447 50.6672 143.245 49.9038 143.245 48.5779V41.9985C143.245 41.1045 142.915 40.3311 142.255 39.7083L140.915 38.4527C140.266 37.8299 139.447 37.5185 138.5 37.5185H133.362C132.404 37.5185 131.596 37.8299 130.936 38.4527L129.596 39.7083C128.947 40.3311 128.606 41.1045 128.606 41.9985V53.4296C128.606 54.3336 128.947 55.097 129.596 55.7198L130.936 56.9855C131.617 57.6283 132.436 57.9598 133.362 57.9598H141.043C142.447 57.9598 143.245 57.1964 143.245 55.8805V55.4486C143.245 54.1227 142.447 53.3693 141.043 53.3693H134.617C133.798 53.3693 133.479 53.068 133.479 52.2945V51.742C133.479 50.9585 133.798 50.6672 134.617 50.6672ZM133.479 45.4339V43.1436C133.479 42.3702 133.798 42.0688 134.617 42.0688H137.245C138.064 42.0688 138.383 42.3702 138.383 43.1436V45.4339C138.383 46.2073 138.064 46.4986 137.245 46.4986H134.617C133.798 46.4986 133.479 46.2073 133.479 45.4339Z" fill="#3E7976"/>
<path d="M107.692 39.5978V53.4698C107.756 54.3236 107.426 55.1171 106.702 55.8002L105.373 57.0658C104.713 57.6786 103.894 58 102.947 58H97.8087C96.8619 58 96.0428 57.6786 95.3832 57.0658L94.0108 55.76C93.3513 55.1372 93.0215 54.3738 93.0215 53.4698V39.5978C93.0215 38.2719 93.8194 37.5185 95.2236 37.5185H95.6811C97.0747 37.5185 97.8832 38.2719 97.8832 39.5978V52.3246C97.8832 53.0981 98.2023 53.3995 99.0215 53.3995H101.692C102.511 53.3995 102.83 53.0981 102.83 52.3246V39.5978C102.83 38.2719 103.639 37.5185 105.032 37.5185H105.49C106.894 37.5185 107.692 38.2719 107.692 39.5978Z" fill="#3E7976"/>
<path d="M88.5108 39.7485L87.1278 38.4527C86.4682 37.8299 85.6597 37.5185 84.7022 37.5185H80.8618C80.0427 37.5185 79.7235 37.2171 79.7235 36.4437V30.7282C79.7235 29.4022 78.9256 28.6489 77.5214 28.6489H77.0639C75.6597 28.6489 74.8618 29.4022 74.8618 30.7282V55.8404C74.8618 57.1663 75.6597 57.9196 77.0639 57.9196H84.7022C85.6597 57.9196 86.4682 57.6083 87.1278 56.9855L88.5108 55.6796C89.1597 55.0669 89.5001 54.2934 89.5001 53.3995V42.0387C89.5001 41.1447 89.1597 40.3712 88.5108 39.7485ZM84.6384 43.1838V52.2543C84.6384 53.0278 84.3086 53.3291 83.4895 53.3291H80.8618C80.0427 53.3291 79.7235 53.0278 79.7235 52.2543V43.1838C79.7235 42.4104 80.0427 42.109 80.8618 42.109H83.4895C84.3086 42.109 84.6384 42.4104 84.6384 43.1838Z" fill="#3E7976"/>
<path d="M62.0534 28.6489H61.5959C60.1917 28.6489 59.3938 29.4022 59.3938 30.7282V36.4437C59.3938 37.2171 59.0746 37.5185 58.2555 37.5185H54.4151C53.4363 37.5185 52.6066 37.8299 51.947 38.4527L50.6065 39.7183C49.947 40.3311 49.6172 41.1045 49.6172 41.9985V53.4698C49.6172 54.3738 49.947 55.1372 50.6065 55.76L51.9895 57.0658C52.6491 57.6886 53.4576 58 54.4151 58H62.0534C63.447 58 64.2555 57.2366 64.2555 55.9207V30.7282C64.2555 29.4022 63.447 28.6489 62.0534 28.6489ZM59.3938 43.1838V52.3347C59.3938 53.1082 59.0746 53.4095 58.2555 53.4095H55.6172C54.798 53.4095 54.4789 53.1082 54.4789 52.3347V43.1838C54.4789 42.4104 54.798 42.109 55.6172 42.109H58.2555C59.0746 42.109 59.3938 42.4104 59.3938 43.1838Z" fill="#3E7976"/>
<path d="M45.5213 39.7083L44.1915 38.4527C43.5319 37.8299 42.7127 37.5185 41.7659 37.5185H36.5851C35.6383 37.5185 34.8191 37.8299 34.1702 38.4527L32.7872 39.7485C32.1276 40.3712 31.7979 41.1447 31.7979 42.0387V53.4698C31.7979 54.3738 32.1276 55.1372 32.7872 55.76L34.1702 57.0658C34.8191 57.6786 35.6383 58 36.5851 58H41.7659C42.7127 58 43.5319 57.6786 44.1915 57.0658L45.5213 55.8002C46.2447 55.1171 46.5851 54.3236 46.5213 53.4698V42.0387C46.5213 41.1748 46.1915 40.4014 45.5213 39.7083ZM41.6489 43.1838V52.3246C41.6489 53.0981 41.3298 53.3995 40.5106 53.3995H37.7979C36.9787 53.3995 36.6596 53.0981 36.6596 52.3246V43.1838C36.6596 42.4104 36.9787 42.109 37.7979 42.109H40.5106C41.3298 42.109 41.6489 42.4104 41.6489 43.1838Z" fill="#3E7976"/>
<path d="M27.7019 39.7083L26.3721 38.4527C25.7126 37.8299 24.8934 37.5185 23.9466 37.5185H18.7657C17.8189 37.5185 16.9998 37.8299 16.3402 38.4527L14.9679 39.7485C14.3083 40.3712 13.9785 41.1447 13.9785 42.0387V53.4698C13.9785 54.3738 14.3083 55.1372 14.9679 55.76L16.3402 57.0658C16.9998 57.6786 17.8189 58 18.7657 58H23.9466C24.8934 58 25.7126 57.6786 26.3721 57.0658L27.7019 55.8002C28.4253 55.1171 28.7657 54.3236 28.6913 53.4698V42.0387C28.6913 41.1748 28.3721 40.4014 27.7019 39.7083ZM23.8296 43.1838V52.3246C23.8296 53.0981 23.5104 53.3995 22.6913 53.3995H19.9785C19.1594 53.3995 18.8402 53.0981 18.8402 52.3246V43.1838C18.8402 42.4104 19.1594 42.109 19.9785 42.109H22.6913C23.5104 42.109 23.8296 42.4104 23.8296 43.1838Z" fill="#3E7976"/>
<path d="M8.32979 34.3142V36.4437C8.32979 37.2171 8.64894 37.5185 9.46809 37.5185H9.92553C11.3298 37.5185 12.1277 38.2719 12.1277 39.5978V40.0297C12.1277 41.3556 11.3298 42.109 9.92553 42.109H9.46809C8.64894 42.109 8.32979 42.4104 8.32979 43.1838V55.8805C8.32979 57.1964 7.52128 57.9598 6.12766 57.9598H5.71277C4.30851 57.9598 3.5 57.1964 3.5 55.8805V43.1838C3.5 42.2898 3.11702 42.109 2.53191 42.109C1.24468 42.109 0.5 41.3556 0.5 40.0297V39.5978C0.5 38.2719 1.24468 37.5185 2.53191 37.5185C3.11702 37.5185 3.5 37.3377 3.5 36.4437V33.1691C3.46809 32.2851 3.80851 31.4916 4.5 30.8386L5.82979 29.583C6.48936 28.9603 7.30851 28.6489 8.25532 28.6489H9.92553C11.3298 28.6489 12.1277 29.4022 12.1277 30.7282V31.1601C12.1277 32.476 11.3298 33.2394 9.92553 33.2394H9.46809C8.64894 33.2394 8.32979 33.5407 8.32979 34.3142Z" fill="#3E7976"/>
<path d="M124.042 40.1201C123.649 40.1201 123.255 40.0197 122.904 39.8489C121.585 39.1859 121.181 37.5587 121.979 36.1423L123.947 32.6568L127.479 13.7322C127.553 13.3204 127.968 13.0492 128.404 13.1195C128.84 13.1898 129.128 13.5815 129.053 13.9934L126.372 28.3575L129.202 23.3351L130.894 14.3048C131.191 12.7177 130.266 11.2913 128.798 11.0402C128.659 11.0201 128.521 11.01 128.383 11.01C127.064 11.01 125.915 12.0246 125.659 13.4309L121.234 37.1167C121.106 37.7897 121.202 38.4727 121.5 39.0453C121.883 39.7585 122.542 40.2406 123.319 40.3712C123.457 40.3913 123.606 40.4014 123.745 40.4014C124.394 40.4014 125.011 40.1502 125.489 39.7284C125.053 39.9795 124.564 40.1301 124.053 40.1301L124.042 40.1201Z" fill="#3E7976"/>
<path d="M137.713 13.5514C137.362 13.3806 136.968 13.2902 136.574 13.2902C135.511 13.2902 134.5 13.913 133.936 14.9074L121.979 36.1423C121.181 37.5587 121.585 39.1859 122.904 39.8489C123.255 40.0196 123.649 40.1201 124.042 40.1201C125.106 40.1201 126.117 39.4973 126.681 38.4928L138.638 17.268C139.436 15.8517 139.032 14.2144 137.713 13.5514ZM136.989 16.4443L125.032 37.6792C124.894 37.9303 124.617 38.081 124.33 38.081C124.202 38.081 124.074 38.0509 123.957 37.9906C123.564 37.7997 123.425 37.3377 123.628 36.9761L135.585 15.7412C135.787 15.3796 136.277 15.2389 136.66 15.4298C137.053 15.6206 137.191 16.0827 136.989 16.4443Z" fill="#3E7976"/>
<path d="M125.032 37.6691C124.894 37.9203 124.617 38.0709 124.33 38.0709C124.202 38.0709 124.075 38.0408 123.958 37.9805C123.564 37.7897 123.426 37.3276 123.628 36.966L125.5 33.6412V31.2404C125.5 29.9245 124.692 29.1611 123.298 29.1611H122.841C121.436 29.1611 120.628 29.9245 120.628 31.2404V43.1135C120.628 43.8869 120.309 44.1883 119.49 44.1883H116.819C116 44.1883 115.681 43.8869 115.681 43.1135V31.2404C115.681 29.9245 114.883 29.1611 113.479 29.1611H113.021C111.617 29.1611 110.819 29.9245 110.819 31.2404V44.2586C110.819 45.1526 111.149 45.926 111.809 46.5388L113.192 47.8446C113.851 48.4674 114.66 48.7788 115.607 48.7788H119.49C120.309 48.7788 120.628 49.0801 120.628 49.8536V52.2945C120.628 53.068 120.309 53.3693 119.49 53.3693H113.394C112 53.3693 111.192 54.1327 111.192 55.4486V55.8906C111.192 57.2064 112 57.9699 113.394 57.9699H120.702C121.66 57.9699 122.468 57.6484 123.128 57.0357L124.511 55.7298C125.16 55.1071 125.5 54.3436 125.5 53.4396V36.8555L125.032 37.6792V37.6691Z" fill="#3E7976"/>
</g>
<defs>
<clipPath id="clip0_6003_2095">
<rect width="240" height="47" fill="white" transform="translate(0.5 11)"/>
</clipPath>
</defs>
</svg>
