<svg width="161" height="36" viewBox="0 0 161 36" fill="none" xmlns="http://www.w3.org/2000/svg">
<path d="M0 35.3314L5.35291 0.666672H14.2417L19.5946 35.3333H14.2918L13.2821 28.5319H6.31251L5.30281 35.3333H0V35.3314ZM12.4747 23.5913L9.79826 5.6034L7.1218 23.5913H12.4747Z" fill="#F34927"/>
<path d="M31.5899 21.4108L25.9522 25.4825L28.1745 18.8603L22.5218 14.7737H29.4422L31.5899 8.15152L33.7377 14.7737H40.6581L35.0054 18.8603L37.2277 25.4825L31.5899 21.4108Z" fill="#F34927"/>
<path d="M49.806 0.666664L58.0318 21.1229V0.666664H63.3784V35.3333H58.0318L49.806 14.8771V35.3333H44.4595V0.666664H49.806Z" fill="#F34927"/>
<path d="M68.3784 0.666672H87.2973V5.90743H74.0025V15.3796H85.6606V20.6204H74.0025V30.0926H87.2973V35.3333H68.3784V0.666672Z" fill="#F34927"/>
<path d="M92.2973 35.3314L97.9987 17.8472L92.5087 0.666672H98.5264L102.433 13.1623L106.338 0.666672H112.356L106.866 17.8491L112.568 35.3333H106.55L102.433 22.2322L98.3169 35.3333H92.2993L92.2973 35.3314Z" fill="#F34927"/>
<path d="M117.571 25.0991V0H123.071V25.101C123.071 26.5625 123.173 30.0412 127.029 30.0412C130.885 30.0412 130.987 26.5644 130.987 25.101V0H136.486V25.101C136.486 31.0489 133.454 35.3333 127.027 35.3333C120.6 35.3333 117.568 31.1508 117.568 25.101L117.571 25.0991Z" fill="#F34927"/>
<path d="M150.945 0C158.656 0 160.403 5.294 160.403 10.236V11.446H155.212V10.236C155.212 8.57198 155.057 5.14396 150.947 5.14396C146.836 5.14396 146.732 8.26996 146.732 9.42995V9.63193C146.732 12.5559 148.584 14.018 151.359 15.278C156.911 17.798 160.405 19.412 160.405 26.118C160.405 31.714 157.938 36 150.947 36C143.236 36 141.488 30.706 141.488 25.764V22.638H146.68V25.764C146.68 27.428 146.834 30.856 150.945 30.856C155.055 30.856 155.159 27.73 155.159 26.5701V26.3681C155.159 23.848 154.234 22.3841 150.533 20.772C144.981 18.352 141.486 16.134 141.486 9.88201C141.486 4.13402 144.365 0 150.945 0Z" fill="#F34927"/>
</svg>
