<svg width="49" height="66" viewBox="0 0 49 66" fill="none" xmlns="http://www.w3.org/2000/svg">
<path fill-rule="evenodd" clip-rule="evenodd" d="M12.2598 56.8301C21.9998 56.8901 28.0998 45.7101 22.1098 37.5401C21.0598 36.1001 19.7498 34.9601 18.6498 33.4201C14.1498 27.1401 10.9898 17.0301 17.0198 11.0701C21.1098 7.03008 18.0898 0.26008 12.5998 0.23008C7.1198 0.20008 4.0098 6.93009 8.0498 11.0201C14.0098 17.0501 10.7198 27.1201 6.14979 33.3401C5.02979 34.8601 3.7098 35.9901 2.6398 37.4101C-3.4502 45.5001 2.51979 56.7601 12.2598 56.8201V56.8301Z" fill="url(#paint0_linear_190_21)"/>
<path fill-rule="evenodd" clip-rule="evenodd" d="M36.2798 8.87011C26.5398 8.81011 20.4398 19.9901 26.4298 28.1601C27.4798 29.6001 28.7898 30.7401 29.8898 32.2801C34.3898 38.5601 37.5498 48.6701 31.5198 54.6301C27.4298 58.6701 30.4498 65.4401 35.9398 65.4701C41.4198 65.5001 44.5298 58.7701 40.4898 54.6801C34.5298 48.6501 37.8198 38.5801 42.3898 32.3601C43.5098 30.8401 44.8298 29.7101 45.8998 28.2901C51.9898 20.2001 46.0198 8.94012 36.2798 8.88012V8.87011Z" fill="#0059BA"/>
<defs>
<linearGradient id="paint0_linear_190_21" x1="0.179795" y1="28.5301" x2="24.4798" y2="28.5301" gradientUnits="userSpaceOnUse">
<stop offset="0.04" stop-color="#E6819C"/>
<stop offset="1" stop-color="#E67EB4"/>
</linearGradient>
</defs>
</svg>
