<svg width="259" height="30" viewBox="0 0 259 30" fill="none" xmlns="http://www.w3.org/2000/svg">
<circle cx="15" cy="15" r="15" fill="#849DF6" fill-opacity="0.6"/>
<mask id="mask0_2001_97" style="mask-type:alpha" maskUnits="userSpaceOnUse" x="0" y="0" width="30" height="30">
<circle cx="15" cy="15" r="15" fill="white"/>
</mask>
<g mask="url(#mask0_2001_97)">
<g filter="url(#filter0_f_2001_97)">
<ellipse cx="13.0943" cy="11.9653" rx="13.0943" ry="11.9653" transform="matrix(0.767494 0.641056 0.641056 -0.767494 0.364197 13.2306)" fill="#2500C8"/>
</g>
<g filter="url(#filter1_f_2001_97)">
<ellipse cx="12.8234" cy="11.7369" rx="12.8234" ry="11.7369" transform="matrix(0.767494 0.641056 0.641056 -0.767494 -3.94702 18.7801)" fill="#00B70C" fill-opacity="0.9"/>
</g>
</g>
<path d="M53.36 22L47.9 8H50.22L55.82 22H53.36ZM42.18 22L47.76 8H50.1L44.64 22H42.18ZM44.8 18.56V16.5H53.18V18.56H44.8ZM57.6444 22V8H59.9644V22H57.6444ZM67.8889 22.24C67.1556 22.24 66.4822 22.1533 65.8689 21.98C65.2689 21.8067 64.7356 21.5667 64.2689 21.26C63.8156 20.9533 63.4356 20.6133 63.1289 20.24C62.8356 19.8533 62.6289 19.4533 62.5089 19.04L64.7889 18.34C64.9622 18.8333 65.3022 19.2667 65.8089 19.64C66.3156 20.0133 66.9422 20.2067 67.6889 20.22C68.5556 20.22 69.2422 20.04 69.7489 19.68C70.2556 19.32 70.5089 18.8467 70.5089 18.26C70.5089 17.7267 70.2956 17.2933 69.8689 16.96C69.4422 16.6133 68.8689 16.3467 68.1489 16.16L66.4289 15.72C65.7756 15.5467 65.1822 15.2933 64.6489 14.96C64.1289 14.6267 63.7156 14.2067 63.4089 13.7C63.1156 13.1933 62.9689 12.5933 62.9689 11.9C62.9689 10.5933 63.3956 9.58 64.2489 8.86C65.1022 8.12667 66.3222 7.76 67.9089 7.76C68.8022 7.76 69.5822 7.9 70.2489 8.18C70.9289 8.44667 71.4889 8.82 71.9289 9.3C72.3689 9.76667 72.6956 10.3 72.9089 10.9L70.6689 11.62C70.4689 11.0867 70.1222 10.6467 69.6289 10.3C69.1356 9.95333 68.5222 9.78 67.7889 9.78C67.0289 9.78 66.4289 9.96 65.9889 10.32C65.5622 10.68 65.3489 11.18 65.3489 11.82C65.3489 12.34 65.5156 12.7467 65.8489 13.04C66.1956 13.32 66.6622 13.5333 67.2489 13.68L68.9689 14.1C70.2222 14.4067 71.1956 14.9333 71.8889 15.68C72.5822 16.4267 72.9289 17.2533 72.9289 18.16C72.9289 18.96 72.7356 19.6667 72.3489 20.28C71.9622 20.8933 71.3889 21.3733 70.6289 21.72C69.8822 22.0667 68.9689 22.24 67.8889 22.24ZM89.6802 22V8H92.0002V22H89.6802ZM80.3202 22V8H82.6402V22H80.3202ZM82.1402 15.88V13.76H90.6202V15.88H82.1402ZM99.5002 22.24C98.5002 22.24 97.6068 22.02 96.8202 21.58C96.0468 21.1267 95.4402 20.5067 95.0002 19.72C94.5602 18.9333 94.3402 18.0267 94.3402 17C94.3402 15.9733 94.5535 15.0667 94.9802 14.28C95.4202 13.4933 96.0268 12.88 96.8002 12.44C97.5735 11.9867 98.4602 11.76 99.4602 11.76C100.46 11.76 101.347 11.9867 102.12 12.44C102.893 12.88 103.493 13.4933 103.92 14.28C104.36 15.0667 104.58 15.9733 104.58 17C104.58 18.0267 104.367 18.9333 103.94 19.72C103.513 20.5067 102.913 21.1267 102.14 21.58C101.367 22.02 100.487 22.24 99.5002 22.24ZM99.5002 20.18C100.047 20.18 100.533 20.0467 100.96 19.78C101.387 19.5 101.72 19.1267 101.96 18.66C102.2 18.18 102.32 17.6267 102.32 17C102.32 16.3733 102.193 15.8267 101.94 15.36C101.7 14.88 101.367 14.5067 100.94 14.24C100.513 13.96 100.02 13.82 99.4602 13.82C98.9002 13.82 98.4068 13.9533 97.9802 14.22C97.5535 14.4867 97.2202 14.86 96.9802 15.34C96.7402 15.82 96.6202 16.3733 96.6202 17C96.6202 17.6267 96.7402 18.18 96.9802 18.66C97.2335 19.1267 97.5735 19.5 98.0002 19.78C98.4402 20.0467 98.9402 20.18 99.5002 20.18ZM106.521 22V8H108.761V22H106.521ZM118.468 22L118.368 20.14V8H120.588V22H118.468ZM115.208 22.24C114.301 22.24 113.508 22.0267 112.828 21.6C112.161 21.16 111.634 20.5467 111.248 19.76C110.874 18.9733 110.688 18.0533 110.688 17C110.688 15.9333 110.874 15.0133 111.248 14.24C111.634 13.4533 112.161 12.8467 112.828 12.42C113.508 11.98 114.301 11.76 115.208 11.76C116.048 11.76 116.768 11.98 117.368 12.42C117.981 12.8467 118.448 13.4533 118.768 14.24C119.088 15.0133 119.248 15.9333 119.248 17C119.248 18.0533 119.088 18.9733 118.768 19.76C118.448 20.5467 117.981 21.16 117.368 21.6C116.768 22.0267 116.048 22.24 115.208 22.24ZM115.768 20.2C116.274 20.2 116.721 20.0667 117.108 19.8C117.508 19.52 117.814 19.14 118.028 18.66C118.254 18.18 118.368 17.6267 118.368 17C118.368 16.3733 118.254 15.82 118.028 15.34C117.814 14.86 117.508 14.4867 117.108 14.22C116.721 13.9533 116.268 13.82 115.748 13.82C115.214 13.82 114.741 13.9533 114.328 14.22C113.914 14.4867 113.588 14.86 113.348 15.34C113.121 15.82 113.001 16.3733 112.988 17C113.001 17.6267 113.121 18.18 113.348 18.66C113.588 19.14 113.914 19.52 114.328 19.8C114.754 20.0667 115.234 20.2 115.768 20.2ZM123.204 22V12H125.424V22H123.204ZM124.324 10.1C123.964 10.1 123.651 9.97333 123.384 9.72C123.131 9.45333 123.004 9.14 123.004 8.78C123.004 8.42 123.131 8.11333 123.384 7.86C123.651 7.60667 123.964 7.48 124.324 7.48C124.684 7.48 124.991 7.60667 125.244 7.86C125.511 8.11333 125.644 8.42 125.644 8.78C125.644 9.14 125.511 9.45333 125.244 9.72C124.991 9.97333 124.684 10.1 124.324 10.1ZM128.064 22V12H130.164L130.304 13.84V22H128.064ZM134.844 22V16.88H137.084V22H134.844ZM134.844 16.88C134.844 16.08 134.751 15.4667 134.564 15.04C134.391 14.6 134.138 14.2933 133.804 14.12C133.484 13.9467 133.104 13.86 132.664 13.86C131.918 13.8467 131.338 14.0933 130.924 14.6C130.511 15.1067 130.304 15.8333 130.304 16.78H129.464C129.464 15.7267 129.618 14.8267 129.924 14.08C130.231 13.32 130.671 12.7467 131.244 12.36C131.818 11.96 132.498 11.76 133.284 11.76C134.084 11.76 134.764 11.92 135.324 12.24C135.898 12.56 136.331 13.06 136.624 13.74C136.931 14.4067 137.084 15.28 137.084 16.36V16.88H134.844ZM143.653 26.26C142.947 26.26 142.307 26.2 141.733 26.08C141.173 25.96 140.7 25.82 140.313 25.66C139.927 25.5 139.627 25.3467 139.413 25.2L140.273 23.4C140.46 23.4933 140.707 23.6067 141.013 23.74C141.333 23.8867 141.707 24.0133 142.133 24.12C142.56 24.2267 143.04 24.28 143.573 24.28C144.147 24.28 144.66 24.16 145.113 23.92C145.567 23.6933 145.92 23.34 146.173 22.86C146.427 22.38 146.553 21.7667 146.553 21.02V12H148.793V20.96C148.793 22.0933 148.58 23.0533 148.153 23.84C147.727 24.64 147.127 25.24 146.353 25.64C145.58 26.0533 144.68 26.26 143.653 26.26ZM143.313 21.8C142.407 21.8 141.613 21.5933 140.933 21.18C140.267 20.7667 139.74 20.1933 139.353 19.46C138.98 18.7133 138.793 17.8533 138.793 16.88C138.793 15.84 138.98 14.94 139.353 14.18C139.74 13.42 140.267 12.8267 140.933 12.4C141.613 11.9733 142.407 11.76 143.313 11.76C144.127 11.76 144.833 11.9733 145.433 12.4C146.047 12.8267 146.52 13.4267 146.853 14.2C147.187 14.96 147.353 15.86 147.353 16.9C147.353 17.8867 147.187 18.7467 146.853 19.48C146.52 20.2133 146.047 20.7867 145.433 21.2C144.833 21.6 144.127 21.8 143.313 21.8ZM143.933 19.9C144.44 19.9 144.88 19.7667 145.253 19.5C145.64 19.2333 145.94 18.8733 146.153 18.42C146.367 17.9533 146.473 17.42 146.473 16.82C146.473 16.2067 146.367 15.6733 146.153 15.22C145.94 14.7533 145.64 14.3933 145.253 14.14C144.867 13.8733 144.42 13.74 143.913 13.74C143.38 13.74 142.907 13.8733 142.493 14.14C142.093 14.3933 141.773 14.7533 141.533 15.22C141.307 15.6733 141.193 16.2067 141.193 16.82C141.193 17.42 141.307 17.9533 141.533 18.42C141.773 18.8733 142.1 19.2333 142.513 19.5C142.927 19.7667 143.4 19.9 143.933 19.9ZM154.907 22.24C154.241 22.24 153.627 22.14 153.067 21.94C152.507 21.74 152.027 21.46 151.627 21.1C151.227 20.7267 150.921 20.2933 150.707 19.8L152.647 18.94C152.847 19.3133 153.141 19.6267 153.527 19.88C153.927 20.1333 154.367 20.26 154.847 20.26C155.367 20.26 155.781 20.1733 156.087 20C156.407 19.8133 156.567 19.56 156.567 19.24C156.567 18.9333 156.447 18.7 156.207 18.54C155.967 18.3667 155.627 18.2267 155.187 18.12L154.247 17.86C153.301 17.62 152.561 17.24 152.027 16.72C151.494 16.1867 151.227 15.58 151.227 14.9C151.227 13.9 151.547 13.1267 152.187 12.58C152.841 12.0333 153.774 11.76 154.987 11.76C155.601 11.76 156.161 11.8533 156.667 12.04C157.187 12.2133 157.634 12.4667 158.007 12.8C158.381 13.12 158.641 13.5 158.787 13.94L156.927 14.78C156.794 14.4467 156.541 14.1933 156.167 14.02C155.794 13.8333 155.381 13.74 154.927 13.74C154.474 13.74 154.121 13.84 153.867 14.04C153.614 14.2267 153.487 14.4933 153.487 14.84C153.487 15.04 153.601 15.2267 153.827 15.4C154.054 15.56 154.381 15.6933 154.807 15.8L155.987 16.08C156.641 16.24 157.174 16.4933 157.587 16.84C158.001 17.1733 158.307 17.5533 158.507 17.98C158.707 18.3933 158.807 18.8133 158.807 19.24C158.807 19.84 158.634 20.3667 158.287 20.82C157.954 21.2733 157.494 21.6267 156.907 21.88C156.321 22.12 155.654 22.24 154.907 22.24ZM172.248 22.24C170.835 22.24 169.575 21.9333 168.468 21.32C167.375 20.6933 166.515 19.84 165.888 18.76C165.261 17.6667 164.948 16.42 164.948 15.02C164.948 13.5933 165.261 12.34 165.888 11.26C166.515 10.1667 167.375 9.31333 168.468 8.7C169.575 8.07333 170.835 7.76 172.248 7.76C173.061 7.76 173.821 7.88667 174.528 8.14C175.248 8.39333 175.895 8.74 176.468 9.18C177.041 9.60667 177.508 10.1067 177.868 10.68L175.988 11.88C175.735 11.4933 175.408 11.1467 175.008 10.84C174.608 10.5333 174.168 10.3 173.688 10.14C173.221 9.96667 172.741 9.88 172.248 9.88C171.288 9.88 170.435 10.1 169.688 10.54C168.955 10.98 168.375 11.5867 167.948 12.36C167.521 13.12 167.308 14.0067 167.308 15.02C167.308 16.0067 167.515 16.8867 167.928 17.66C168.355 18.4333 168.941 19.04 169.688 19.48C170.448 19.92 171.321 20.14 172.308 20.14C173.081 20.14 173.775 19.98 174.388 19.66C175.001 19.34 175.481 18.8933 175.828 18.32C176.188 17.7467 176.368 17.0867 176.368 16.34L178.588 16.06C178.588 17.3267 178.315 18.4267 177.768 19.36C177.235 20.28 176.488 20.9933 175.528 21.5C174.581 21.9933 173.488 22.24 172.248 22.24ZM173.008 16.52V14.64H178.588V16.2L177.348 16.52H173.008ZM181.888 16.68C181.888 15.6 182.095 14.7133 182.508 14.02C182.921 13.3267 183.455 12.8133 184.108 12.48C184.775 12.1333 185.468 11.96 186.188 11.96V14.1C185.575 14.1 184.995 14.1867 184.448 14.36C183.915 14.52 183.481 14.7867 183.148 15.16C182.815 15.5333 182.648 16.0267 182.648 16.64L181.888 16.68ZM180.408 22V12H182.648V22H180.408ZM192.274 22.24C191.274 22.24 190.38 22.02 189.594 21.58C188.82 21.1267 188.214 20.5067 187.774 19.72C187.334 18.9333 187.114 18.0267 187.114 17C187.114 15.9733 187.327 15.0667 187.754 14.28C188.194 13.4933 188.8 12.88 189.574 12.44C190.347 11.9867 191.234 11.76 192.234 11.76C193.234 11.76 194.12 11.9867 194.894 12.44C195.667 12.88 196.267 13.4933 196.694 14.28C197.134 15.0667 197.354 15.9733 197.354 17C197.354 18.0267 197.14 18.9333 196.714 19.72C196.287 20.5067 195.687 21.1267 194.914 21.58C194.14 22.02 193.26 22.24 192.274 22.24ZM192.274 20.18C192.82 20.18 193.307 20.0467 193.734 19.78C194.16 19.5 194.494 19.1267 194.734 18.66C194.974 18.18 195.094 17.6267 195.094 17C195.094 16.3733 194.967 15.8267 194.714 15.36C194.474 14.88 194.14 14.5067 193.714 14.24C193.287 13.96 192.794 13.82 192.234 13.82C191.674 13.82 191.18 13.9533 190.754 14.22C190.327 14.4867 189.994 14.86 189.754 15.34C189.514 15.82 189.394 16.3733 189.394 17C189.394 17.6267 189.514 18.18 189.754 18.66C190.007 19.1267 190.347 19.5 190.774 19.78C191.214 20.0467 191.714 20.18 192.274 20.18ZM205.995 22L205.875 20.16V12H208.095V22H205.995ZM199.075 17.12V12H201.315V17.12H199.075ZM201.315 17.12C201.315 17.9067 201.408 18.52 201.595 18.96C201.781 19.4 202.035 19.7067 202.355 19.88C202.688 20.0533 203.068 20.14 203.495 20.14C204.255 20.1533 204.841 19.9067 205.255 19.4C205.668 18.8933 205.875 18.1667 205.875 17.22H206.715C206.715 18.2733 206.555 19.18 206.235 19.94C205.928 20.6867 205.488 21.26 204.915 21.66C204.355 22.0467 203.675 22.24 202.875 22.24C202.088 22.24 201.408 22.08 200.835 21.76C200.275 21.44 199.841 20.94 199.535 20.26C199.228 19.58 199.075 18.7067 199.075 17.64V17.12H201.315ZM210.684 26V12H212.784L212.924 13.84V26H210.684ZM216.084 22.24C215.244 22.24 214.517 22.0267 213.904 21.6C213.304 21.16 212.844 20.5467 212.524 19.76C212.204 18.9733 212.044 18.0533 212.044 17C212.044 15.9333 212.204 15.0133 212.524 14.24C212.844 13.4533 213.304 12.8467 213.904 12.42C214.517 11.98 215.244 11.76 216.084 11.76C216.99 11.76 217.777 11.98 218.444 12.42C219.124 12.8467 219.65 13.4533 220.024 14.24C220.41 15.0133 220.604 15.9333 220.604 17C220.604 18.0533 220.41 18.9733 220.024 19.76C219.65 20.5467 219.124 21.16 218.444 21.6C217.777 22.0267 216.99 22.24 216.084 22.24ZM215.524 20.2C216.057 20.2 216.53 20.0667 216.944 19.8C217.357 19.52 217.684 19.14 217.924 18.66C218.177 18.18 218.304 17.6267 218.304 17C218.304 16.3733 218.184 15.82 217.944 15.34C217.717 14.86 217.397 14.4867 216.984 14.22C216.57 13.9533 216.09 13.82 215.544 13.82C215.037 13.82 214.584 13.9533 214.184 14.22C213.784 14.4867 213.47 14.86 213.244 15.34C213.03 15.82 212.924 16.3733 212.924 17C212.924 17.6267 213.03 18.18 213.244 18.66C213.47 19.14 213.777 19.52 214.164 19.8C214.564 20.0667 215.017 20.2 215.524 20.2ZM227.762 22V8H230.082V22H227.762ZM232.986 22V12H235.086L235.226 13.84V22H232.986ZM239.766 22V16.88H242.006V22H239.766ZM239.766 16.88C239.766 16.08 239.673 15.4667 239.486 15.04C239.313 14.6 239.059 14.2933 238.726 14.12C238.406 13.9467 238.026 13.86 237.586 13.86C236.839 13.8467 236.259 14.0933 235.846 14.6C235.433 15.1067 235.226 15.8333 235.226 16.78H234.386C234.386 15.7267 234.539 14.8267 234.846 14.08C235.153 13.32 235.593 12.7467 236.166 12.36C236.739 11.96 237.419 11.76 238.206 11.76C239.006 11.76 239.686 11.92 240.246 12.24C240.819 12.56 241.253 13.06 241.546 13.74C241.853 14.4067 242.006 15.28 242.006 16.36V16.88H239.766ZM248.955 22.24C247.928 22.24 247.022 22.02 246.235 21.58C245.448 21.1267 244.828 20.5067 244.375 19.72C243.935 18.9333 243.715 18.0267 243.715 17C243.715 15.9733 243.935 15.0667 244.375 14.28C244.828 13.4933 245.442 12.88 246.215 12.44C247.002 11.9867 247.902 11.76 248.915 11.76C249.902 11.76 250.795 12 251.595 12.48C252.395 12.9467 252.988 13.62 253.375 14.5L251.295 15.3C251.082 14.86 250.755 14.5067 250.315 14.24C249.875 13.9733 249.375 13.84 248.815 13.84C248.268 13.84 247.782 13.98 247.355 14.26C246.928 14.5267 246.595 14.9 246.355 15.38C246.115 15.8467 245.995 16.3867 245.995 17C245.995 17.6133 246.115 18.16 246.355 18.64C246.608 19.1067 246.948 19.48 247.375 19.76C247.815 20.0267 248.308 20.16 248.855 20.16C249.415 20.16 249.915 20.02 250.355 19.74C250.795 19.4467 251.122 19.0533 251.335 18.56L253.415 19.36C253.028 20.2667 252.435 20.9733 251.635 21.48C250.848 21.9867 249.955 22.24 248.955 22.24ZM256.234 22.28C255.847 22.28 255.514 22.1467 255.234 21.88C254.967 21.6 254.834 21.2667 254.834 20.88C254.834 20.4933 254.967 20.16 255.234 19.88C255.514 19.6 255.847 19.46 256.234 19.46C256.621 19.46 256.954 19.6 257.234 19.88C257.514 20.16 257.654 20.4933 257.654 20.88C257.654 21.2667 257.514 21.6 257.234 21.88C256.954 22.1467 256.621 22.28 256.234 22.28Z" fill="white"/>
<defs>
<filter id="filter0_f_2001_97" x="-1.82227" y="-7.2638" width="39.8134" height="39.4105" filterUnits="userSpaceOnUse" color-interpolation-filters="sRGB">
<feFlood flood-opacity="0" result="BackgroundImageFix"/>
<feBlend mode="normal" in="SourceGraphic" in2="BackgroundImageFix" result="shape"/>
<feGaussianBlur stdDeviation="3.63174" result="effect1_foregroundBlur_2001_97"/>
</filter>
<filter id="filter1_f_2001_97" x="-6.2337" y="-1.46606" width="39.3051" height="38.9174" filterUnits="userSpaceOnUse" color-interpolation-filters="sRGB">
<feFlood flood-opacity="0" result="BackgroundImageFix"/>
<feBlend mode="normal" in="SourceGraphic" in2="BackgroundImageFix" result="shape"/>
<feGaussianBlur stdDeviation="3.63174" result="effect1_foregroundBlur_2001_97"/>
</filter>
</defs>
</svg>
