<svg width="120" height="120" viewBox="0 0 120 120" fill="none" xmlns="http://www.w3.org/2000/svg">
<path d="M60 120C93.1371 120 120 93.1371 120 60C120 26.8629 93.1371 0 60 0C26.8629 0 0 26.8629 0 60C0 93.1371 26.8629 120 60 120Z" fill="#F21414"/>
<mask id="mask0_248_5" style="mask-type:luminance" maskUnits="userSpaceOnUse" x="0" y="0" width="120" height="120">
<path d="M60 120C93.1371 120 120 93.1371 120 60C120 26.8629 93.1371 0 60 0C26.8629 0 0 26.8629 0 60C0 93.1371 26.8629 120 60 120Z" fill="white"/>
</mask>
<g mask="url(#mask0_248_5)">
<path d="M103.309 44.1859C102.305 38.8005 99.387 33.3963 95.0758 28.9162C93.8373 23.8826 92.0078 18.7833 89.6387 13.759C82.4378 -1.5154 70.9726 -10.6538 62.6176 -15.6311C62.3549 -15.7859 62.0547 -15.8704 61.745 -15.8704C61.731 -15.8704 61.7122 -15.8704 61.6981 -15.8704L60.2345 -15.8328C59.4745 -15.8141 58.8178 -15.2887 58.6301 -14.5475C58.4425 -13.8062 58.7755 -13.0369 59.437 -12.6569C67.6418 -7.96575 78.8866 0.736362 85.8623 15.537C87.2087 18.3939 88.3721 21.279 89.3432 24.1594C85.8482 21.917 82.2407 20.716 78.8584 20.716C78.3424 20.716 77.8311 20.7442 77.3338 20.8005C75.3963 21.021 72.2016 21.8935 69.0445 23.6762C65.3244 25.7778 62.6739 28.5878 61.3698 31.806C61.1399 32.3736 60.9522 32.9506 60.7834 33.5135C60.5816 33.0444 60.3705 32.5706 60.136 32.1015C58.7239 29.2586 56.444 26.641 53.5543 24.5346C50.6692 22.433 47.4558 21.0444 44.2611 20.5237C43.3369 20.3736 42.3987 20.2985 41.4604 20.2985C37.9327 20.2985 34.3627 21.3587 30.8537 23.451C28.039 25.1304 25.8811 27.1054 24.5629 28.4705C18.6004 34.6394 15.5042 43.806 16.4847 52.3908C18.1219 66.7411 30.591 77.3572 41.5918 86.7207C48.0703 92.2375 54.1923 97.4494 56.5613 102.314L56.6364 102.464C57.978 105.246 59.5308 107.822 61.792 107.822C61.9608 107.822 62.1297 107.808 62.2986 107.775C63.5558 107.55 64.4753 106.574 65.0289 104.885C65.4041 103.74 65.5777 102.389 65.6903 101.343L65.7091 101.174C66.2814 96.0702 71.9202 89.5026 77.8967 82.555C83.6762 75.8325 90.2251 68.2094 93.645 60.1687C96.4597 53.5636 97.473 46.1468 96.6755 38.0452C97.9186 40.3063 98.7865 42.6472 99.2134 44.9459C99.7622 47.8873 99.6262 50.838 98.8052 53.967C98.0593 56.8052 96.7599 59.7231 94.8318 62.8943C91.1821 68.899 85.8295 74.8192 80.6551 80.5472C75.7904 85.9326 71.0898 93.7622 68.0828 101.484C66.1407 106.48 63.2462 115.806 65.7091 122.148C65.8733 122.571 66.197 122.908 66.6098 123.091C66.8303 123.185 67.0601 123.237 67.2947 123.237C67.5011 123.237 67.7122 123.199 67.9092 123.119L68.627 122.838C69.5042 122.5 69.9358 121.51 69.5981 120.638C68.1766 116.979 69.0586 110.524 72.0234 102.933C74.8709 95.6386 79.2525 88.3157 83.7513 83.3384C89.0148 77.5167 94.4518 71.4932 98.3408 65.0992C102.91 57.5839 104.538 50.7395 103.313 44.1766L103.309 44.1859ZM61.0367 38.003C61.0367 38.003 61.0507 38.003 61.0554 38.003C61.0507 38.003 61.0414 38.003 61.0367 38.003C61.0273 38.003 61.0179 38.003 61.0085 38.003C60.9804 38.003 60.9522 37.9983 60.9241 37.9936C60.9616 37.9936 60.9945 38.003 61.0367 38.003ZM61.792 106.123C61.792 106.123 61.7685 106.123 61.7591 106.123C61.7779 106.123 61.7966 106.123 61.8154 106.123C61.806 106.123 61.8013 106.123 61.792 106.123ZM74.7208 79.8388C68.3174 87.2931 62.2705 94.3345 61.5527 100.724L61.5339 100.907C61.4683 101.521 61.3979 102.019 61.3275 102.422C61.0695 101.981 60.7599 101.409 60.3987 100.653L60.3189 100.494C57.5652 94.8364 51.1196 89.3525 44.3033 83.5448C33.8889 74.6785 22.0906 64.6347 20.6364 51.9217C19.792 44.5425 22.4518 36.6707 27.5699 31.3744C29.5167 29.3572 34.7333 24.6519 41.1086 24.4784C41.2306 24.4784 41.3479 24.4737 41.4698 24.4737C42.1829 24.4737 42.8959 24.53 43.5949 24.6472C46.1188 25.0601 48.7834 26.2141 51.1055 27.9076C53.4182 29.5917 55.3041 31.745 56.4065 33.9686C56.6504 34.4565 56.885 35.0053 57.1102 35.5401L57.1196 35.5589C57.5042 36.4596 57.8655 37.3087 58.3111 37.9983C59.0429 39.1336 59.953 39.7106 61.0085 39.7106C61.032 39.7106 61.0554 39.7106 61.0836 39.7106C61.1211 39.7106 61.154 39.7106 61.1868 39.7059C61.928 39.659 62.9694 39.2977 63.7106 37.8435C64.0672 37.1445 64.3158 36.2907 64.5832 35.3806V35.3712C64.7849 34.691 64.9913 33.9873 65.2353 33.3822C66.4409 30.4033 69.1008 28.4236 71.1227 27.293C73.7169 25.8341 76.3439 25.121 77.8076 24.9568C78.1454 24.9193 78.4972 24.9006 78.849 24.9006C82.6817 24.9006 87.3025 27.1945 91.29 31.0554C93.6544 41.4135 93.1477 50.6597 89.7888 58.5503C86.6176 65.9952 80.2939 73.3556 74.7114 79.8529L74.7208 79.8388Z" fill="white"/>
</g>
</svg>
