<svg width="146" height="28" viewBox="0 0 146 28" fill="none" xmlns="http://www.w3.org/2000/svg">
<path d="M137.404 12.988C138.104 12.0547 138.869 11.3687 139.7 10.93C140.531 10.482 141.389 10.258 142.276 10.258C142.873 10.258 143.419 10.3793 143.914 10.622C144.418 10.8647 144.833 11.2193 145.16 11.686C145.496 12.1527 145.734 12.7313 145.874 13.422C146.014 14.1033 146.028 14.8873 145.916 15.774L144.824 25H140.484L141.576 15.774C141.623 15.382 141.637 15.0507 141.618 14.78C141.609 14.5093 141.562 14.2947 141.478 14.136C141.394 13.9773 141.277 13.8653 141.128 13.8C140.979 13.7253 140.801 13.688 140.596 13.688C140.279 13.688 139.947 13.786 139.602 13.982C139.257 14.178 138.925 14.458 138.608 14.822C138.3 15.1767 138.015 15.6107 137.754 16.124C137.493 16.628 137.287 17.188 137.138 17.804L136.34 25H132L133.736 10.482H135.976C136.424 10.482 136.774 10.5893 137.026 10.804C137.278 11.0093 137.404 11.35 137.404 11.826V12.988Z" fill="white"/>
<path d="M130.02 10.482L128.284 25H124L125.736 10.482H130.02ZM130.832 6.506C130.832 6.85133 130.757 7.178 130.608 7.486C130.459 7.78467 130.263 8.05067 130.02 8.284C129.777 8.508 129.497 8.69 129.18 8.83C128.872 8.96067 128.555 9.026 128.228 9.026C127.901 9.026 127.589 8.96067 127.29 8.83C126.991 8.69 126.725 8.508 126.492 8.284C126.268 8.05067 126.086 7.78467 125.946 7.486C125.806 7.178 125.736 6.85133 125.736 6.506C125.736 6.16067 125.806 5.834 125.946 5.526C126.086 5.218 126.273 4.94733 126.506 4.714C126.749 4.48067 127.019 4.29867 127.318 4.168C127.617 4.028 127.929 3.958 128.256 3.958C128.592 3.958 128.914 4.02333 129.222 4.154C129.53 4.28467 129.801 4.46667 130.034 4.7C130.277 4.93333 130.468 5.204 130.608 5.512C130.757 5.82 130.832 6.15133 130.832 6.506Z" fill="white"/>
<path d="M115.389 22.004C115.874 22.004 116.308 21.8593 116.691 21.57C117.073 21.2713 117.395 20.87 117.657 20.366C117.927 19.8527 118.133 19.26 118.273 18.588C118.422 17.9067 118.497 17.1833 118.497 16.418C118.497 15.3633 118.352 14.612 118.063 14.164C117.783 13.7067 117.321 13.478 116.677 13.478C116.191 13.478 115.757 13.6273 115.375 13.926C114.992 14.2153 114.665 14.612 114.395 15.116C114.133 15.62 113.928 16.2127 113.779 16.894C113.639 17.5753 113.569 18.2987 113.569 19.064C113.569 20.1 113.709 20.8513 113.989 21.318C114.278 21.7753 114.745 22.004 115.389 22.004ZM114.997 25.224C114.185 25.224 113.424 25.0887 112.715 24.818C112.015 24.5473 111.403 24.1553 110.881 23.642C110.367 23.1193 109.961 22.48 109.663 21.724C109.373 20.9587 109.229 20.0813 109.229 19.092C109.229 17.804 109.439 16.6233 109.859 15.55C110.288 14.4673 110.862 13.534 111.581 12.75C112.299 11.966 113.13 11.3547 114.073 10.916C115.025 10.4773 116.023 10.258 117.069 10.258C117.881 10.258 118.637 10.3933 119.337 10.664C120.037 10.9347 120.643 11.3313 121.157 11.854C121.679 12.3673 122.09 13.0067 122.389 13.772C122.687 14.528 122.837 15.4007 122.837 16.39C122.837 17.6593 122.622 18.8353 122.193 19.918C121.773 20.9913 121.203 21.9247 120.485 22.718C119.766 23.502 118.931 24.118 117.979 24.566C117.036 25.0047 116.042 25.224 114.997 25.224Z" fill="white"/>
<path d="M100.936 21.472C101.45 21.472 101.893 21.4347 102.266 21.36C102.649 21.276 102.976 21.1733 103.246 21.052C103.517 20.9307 103.746 20.8 103.932 20.66C104.119 20.5107 104.287 20.3753 104.436 20.254C104.586 20.1327 104.726 20.0347 104.856 19.96C104.987 19.876 105.127 19.834 105.276 19.834C105.426 19.834 105.547 19.862 105.64 19.918C105.743 19.9647 105.818 20.0207 105.864 20.086L107.46 22.004C106.574 23.0587 105.519 23.8613 104.296 24.412C103.083 24.9533 101.702 25.224 100.152 25.224C98.8645 25.224 97.7211 25 96.7225 24.552C95.7331 24.0947 94.8978 23.4693 94.2165 22.676C93.5351 21.8827 93.0171 20.9447 92.6625 19.862C92.3171 18.77 92.1445 17.594 92.1445 16.334C92.1445 15.1673 92.2751 14.0613 92.5365 13.016C92.7978 11.9707 93.1665 11.0047 93.6425 10.118C94.1185 9.23133 94.6878 8.43333 95.3505 7.724C96.0225 7.01466 96.7645 6.41266 97.5765 5.918C98.3885 5.42333 99.2611 5.04533 100.194 4.784C101.128 4.51333 102.103 4.378 103.12 4.378C103.886 4.378 104.581 4.45267 105.206 4.602C105.841 4.742 106.41 4.94267 106.914 5.204C107.428 5.456 107.885 5.75933 108.286 6.114C108.688 6.46866 109.038 6.86066 109.336 7.29L107.74 9.138C107.628 9.26866 107.498 9.38533 107.348 9.488C107.199 9.59066 107.003 9.642 106.76 9.642C106.602 9.642 106.457 9.60467 106.326 9.53C106.196 9.45533 106.06 9.36666 105.92 9.264C105.79 9.152 105.64 9.03066 105.472 8.9C105.304 8.76933 105.104 8.65267 104.87 8.55C104.637 8.438 104.357 8.34467 104.03 8.27C103.713 8.19533 103.335 8.158 102.896 8.158C102.038 8.158 101.235 8.34 100.488 8.704C99.7511 9.068 99.1071 9.59067 98.5565 10.272C98.0151 10.944 97.5905 11.7653 97.2825 12.736C96.9745 13.6973 96.8205 14.7753 96.8205 15.97C96.8205 16.838 96.9231 17.6127 97.1285 18.294C97.3431 18.9753 97.6325 19.554 97.9965 20.03C98.3605 20.4967 98.7945 20.856 99.2985 21.108C99.8025 21.3507 100.348 21.472 100.936 21.472Z" fill="white"/>
<path d="M78.1593 13.898L83.0593 25H78.9713C78.6727 25 78.4393 24.9253 78.2713 24.776C78.1127 24.6267 77.9913 24.4587 77.9073 24.272L74.8973 16.782C74.86 16.8473 74.8227 16.908 74.7853 16.964C74.748 17.02 74.706 17.076 74.6593 17.132L70.1513 24.272C69.9647 24.5427 69.7547 24.734 69.5213 24.846C69.2973 24.9487 69.05 25 68.7793 25H64.2153L71.8873 14.108L67.4633 4.602H71.6073C71.906 4.602 72.116 4.644 72.2373 4.728C72.368 4.80267 72.4753 4.93333 72.5593 5.12L75.2473 11.56C75.3407 11.3827 75.4527 11.2007 75.5833 11.014L79.1673 5.19C79.3073 4.98467 79.452 4.83533 79.6013 4.742C79.7507 4.64867 79.9327 4.602 80.1473 4.602H84.9353L78.1593 13.898Z" fill="white"/>
<path d="M56.253 8.116L55.651 13.044H61.419L60.971 16.432H55.231L54.601 21.486H62.203L61.755 25H49.575L52.095 4.602H64.247L63.799 8.116H56.253Z" fill="white"/>
<path d="M49.4442 8.214H44.2642L42.1922 25H37.6562L39.7002 8.214H34.4922L34.9402 4.602H49.9202L49.4442 8.214Z" fill="white"/>
<circle cx="14" cy="14" r="13.25" fill="black" stroke="white" stroke-width="0.5"/>
<path d="M10.1877 16.1981L9.65009 18.5113L14.4241 15.9549L13.9802 18.6122L25 9L16.9039 12.634L17.3422 10.174L12.8765 12.7862L13.3757 10.0661L3 19L10.1877 16.1981Z" fill="url(#paint0_linear_23_2485)"/>
<defs>
<linearGradient id="paint0_linear_23_2485" x1="3.66666" y1="19.7576" x2="26.3333" y2="8.24242" gradientUnits="userSpaceOnUse">
<stop stop-color="#31DB22"/>
<stop offset="0.480769" stop-color="#BCFF04"/>
<stop offset="1" stop-color="#FFFF01"/>
</linearGradient>
</defs>
</svg>
