<?xml version="1.0" encoding="UTF-8"?><svg id="b" xmlns="http://www.w3.org/2000/svg" xmlns:xlink="http://www.w3.org/1999/xlink" viewBox="0 0 100 38.755"><defs><clipPath id="d"><rect width="100" height="38.755" style="fill:none; stroke-width:0px;"/></clipPath><linearGradient id="e" x1="349.127" y1="-154.737" x2="366.631" y2="-158.277" gradientTransform="translate(-286 -125.911) scale(1 -1)" gradientUnits="userSpaceOnUse"><stop offset="0" stop-color="#c387ff"/><stop offset="1" stop-color="#0effff"/></linearGradient><linearGradient id="f" x1="340.676" y1="-133.043" x2="355.008" y2="-157.866" gradientTransform="translate(-286 -125.911) scale(1 -1)" gradientUnits="userSpaceOnUse"><stop offset="0" stop-color="#ff7fff"/><stop offset="1" stop-color="#0effff"/></linearGradient><linearGradient id="g" x1="338.834" y1="-129.853" x2="356.85" y2="-161.057" xlink:href="#f"/><linearGradient id="h" x1="338.909" y1="-129.985" x2="356.774" y2="-160.925" xlink:href="#f"/><linearGradient id="i" x1="338.986" y1="-130.116" x2="356.696" y2="-160.793" xlink:href="#f"/><linearGradient id="j" x1="339.062" y1="-130.248" x2="356.62" y2="-160.661" xlink:href="#f"/><linearGradient id="k" x1="339.139" y1="-130.379" x2="356.546" y2="-160.528" xlink:href="#f"/><linearGradient id="l" x1="339.214" y1="-130.511" x2="356.469" y2="-160.397" xlink:href="#f"/><linearGradient id="m" x1="339.29" y1="-130.643" x2="356.393" y2="-160.265" xlink:href="#f"/><linearGradient id="n" x1="339.366" y1="-130.775" x2="356.317" y2="-160.133" xlink:href="#f"/><linearGradient id="o" x1="339.44" y1="-130.908" x2="356.24" y2="-160.002" xlink:href="#f"/><linearGradient id="p" x1="339.519" y1="-131.037" x2="356.164" y2="-159.871" xlink:href="#f"/><linearGradient id="q" x1="339.595" y1="-131.168" x2="356.089" y2="-159.738" xlink:href="#f"/><linearGradient id="r" x1="339.67" y1="-131.3" x2="356.012" y2="-159.607" xlink:href="#f"/><linearGradient id="s" x1="339.746" y1="-131.432" x2="355.936" y2="-159.475" xlink:href="#f"/><linearGradient id="t" x1="339.823" y1="-131.563" x2="355.859" y2="-159.343" xlink:href="#f"/><linearGradient id="u" x1="339.889" y1="-131.679" x2="355.795" y2="-159.231" xlink:href="#f"/><linearGradient id="v" x1="339.954" y1="-131.791" x2="355.729" y2="-159.116" xlink:href="#f"/><linearGradient id="w" x1="340.017" y1="-131.906" x2="355.663" y2="-159.003" xlink:href="#f"/><linearGradient id="x" x1="340.083" y1="-132.018" x2="355.598" y2="-158.888" xlink:href="#f"/><linearGradient id="y" x1="340.15" y1="-132.13" x2="355.533" y2="-158.775" xlink:href="#f"/><linearGradient id="z" x1="340.215" y1="-132.246" x2="355.466" y2="-158.664" xlink:href="#f"/><linearGradient id="aa" x1="340.28" y1="-132.358" x2="355.402" y2="-158.549" xlink:href="#f"/><linearGradient id="ab" x1="340.346" y1="-132.47" x2="355.337" y2="-158.437" xlink:href="#f"/><linearGradient id="ac" x1="340.411" y1="-132.585" x2="355.273" y2="-158.324" xlink:href="#f"/><linearGradient id="ad" x1="340.476" y1="-132.697" x2="355.206" y2="-158.209" xlink:href="#f"/><linearGradient id="ae" x1="340.542" y1="-132.809" x2="355.14" y2="-158.097" xlink:href="#f"/><linearGradient id="af" x1="340.608" y1="-132.924" x2="355.074" y2="-157.981" xlink:href="#f"/><linearGradient id="ag" x1="340.671" y1="-133.038" x2="355.009" y2="-157.871" xlink:href="#f"/><linearGradient id="ah" x1="340.739" y1="-133.152" x2="354.945" y2="-157.758" xlink:href="#f"/><linearGradient id="ai" x1="340.801" y1="-133.261" x2="354.882" y2="-157.649" xlink:href="#f"/><linearGradient id="aj" x1="340.863" y1="-133.37" x2="354.819" y2="-157.541" xlink:href="#f"/><linearGradient id="ak" x1="340.926" y1="-133.479" x2="354.754" y2="-157.431" xlink:href="#f"/><linearGradient id="al" x1="340.99" y1="-133.587" x2="354.692" y2="-157.322" xlink:href="#f"/><linearGradient id="am" x1="341.054" y1="-133.695" x2="354.63" y2="-157.213" xlink:href="#f"/><linearGradient id="an" x1="341.116" y1="-133.804" x2="354.567" y2="-157.104" xlink:href="#f"/><linearGradient id="ao" x1="341.175" y1="-133.91" x2="354.508" y2="-156.999" xlink:href="#f"/><linearGradient id="ap" x1="338.743" y1="-136.378" x2="355.527" y2="-153.162" gradientTransform="translate(-286 -125.911) scale(1 -1)" gradientUnits="userSpaceOnUse"><stop offset=".01" stop-color="#6067f5"/><stop offset=".95" stop-color="#64acf7"/></linearGradient><linearGradient id="aq" x1="341.076" y1="-134.334" x2="353.301" y2="-155.511" xlink:href="#f"/><linearGradient id="ar" x1="338.799" y1="-136.214" x2="355.372" y2="-153.211" gradientTransform="translate(-286 -125.911) scale(1 -1)" gradientUnits="userSpaceOnUse"><stop offset=".01" stop-color="#4751f5"/><stop offset=".04" stop-color="#4753f5"/><stop offset=".95" stop-color="#5d9cf7"/><stop offset="1" stop-color="#5d9cf7"/></linearGradient><linearGradient id="as" x1="341.06" y1="-134.319" x2="353.332" y2="-155.572" xlink:href="#f"/><linearGradient id="at" x1="338.855" y1="-136.04" x2="355.243" y2="-153.266" gradientTransform="translate(-286 -125.911) scale(1 -1)" gradientUnits="userSpaceOnUse"><stop offset=".01" stop-color="#4351f4"/><stop offset=".04" stop-color="#4452f5"/><stop offset=".95" stop-color="#558df6"/><stop offset="1" stop-color="#558cf6"/></linearGradient><linearGradient id="au" x1="341.054" y1="-134.295" x2="353.371" y2="-155.631" xlink:href="#f"/><linearGradient id="av" x1="338.915" y1="-135.874" x2="355.101" y2="-153.323" gradientTransform="translate(-286 -125.911) scale(1 -1)" gradientUnits="userSpaceOnUse"><stop offset=".01" stop-color="#4151f5"/><stop offset=".04" stop-color="#4253f5"/><stop offset=".95" stop-color="#4e7ef6"/><stop offset="1" stop-color="#4e7df6"/></linearGradient><linearGradient id="aw" x1="341.041" y1="-134.28" x2="353.405" y2="-155.691" xlink:href="#f"/><linearGradient id="ax" x1="338.995" y1="-135.733" x2="354.978" y2="-153.399" gradientTransform="translate(-286 -125.911) scale(1 -1)" gradientUnits="userSpaceOnUse"><stop offset=".01" stop-color="#3e51f4"/><stop offset=".04" stop-color="#3f53f5"/><stop offset=".95" stop-color="#4770f5"/><stop offset="1" stop-color="#466df5"/></linearGradient><linearGradient id="ay" x1="341.027" y1="-134.257" x2="353.437" y2="-155.755" xlink:href="#f"/><linearGradient id="az" x1="339.07" y1="-135.59" x2="354.855" y2="-153.475" gradientTransform="translate(-286 -125.911) scale(1 -1)" gradientUnits="userSpaceOnUse"><stop offset=".01" stop-color="#3c52f5"/><stop offset=".04" stop-color="#3d54f5"/><stop offset=".95" stop-color="#4164f5"/><stop offset="1" stop-color="#4162f5"/></linearGradient><linearGradient id="ba" x1="341.015" y1="-134.241" x2="353.474" y2="-155.82" xlink:href="#f"/><linearGradient id="bb" x1="339.187" y1="-135.478" x2="354.764" y2="-153.586" gradientTransform="translate(-286 -125.911) scale(1 -1)" gradientUnits="userSpaceOnUse"><stop offset=".01" stop-color="#3a53f5"/><stop offset=".04" stop-color="#3b54f5"/><stop offset=".95" stop-color="#3c5af5"/><stop offset="1" stop-color="#3c58f5"/></linearGradient><linearGradient id="bc" x1="341.006" y1="-134.215" x2="353.514" y2="-155.88" xlink:href="#f"/><linearGradient id="bd" x1="339.268" y1="-135.34" x2="354.664" y2="-153.691" gradientTransform="translate(-286 -125.911) scale(1 -1)" gradientUnits="userSpaceOnUse"><stop offset=".01" stop-color="#3853f5"/><stop offset=".04" stop-color="#3855f5"/><stop offset=".95" stop-color="#3750f4"/><stop offset="1" stop-color="#364df4"/></linearGradient><linearGradient id="be" x1="341.002" y1="-134.184" x2="353.563" y2="-155.939" xlink:href="#f"/><linearGradient id="bf" x1="339.371" y1="-135.224" x2="354.673" y2="-153.925" gradientTransform="translate(-286 -125.911) scale(1 -1)" gradientUnits="userSpaceOnUse"><stop offset=".01" stop-color="#3654f5"/><stop offset=".04" stop-color="#3756f5"/><stop offset=".95" stop-color="#3247f4"/><stop offset="1" stop-color="#3144f4"/></linearGradient><linearGradient id="bg" x1="341.003" y1="-134.154" x2="353.618" y2="-156" xlink:href="#f"/><linearGradient id="bh" x1="339.477" y1="-135.116" x2="354.671" y2="-154.169" gradientTransform="translate(-286 -125.911) scale(1 -1)" gradientUnits="userSpaceOnUse"><stop offset=".01" stop-color="#3455f5"/><stop offset=".04" stop-color="#3557f5"/><stop offset=".95" stop-color="#2e3df4"/><stop offset="1" stop-color="#2d3af4"/></linearGradient><linearGradient id="bi" x1="341.001" y1="-134.122" x2="353.668" y2="-156.061" xlink:href="#f"/><linearGradient id="bj" x1="339.598" y1="-135.015" x2="354.682" y2="-154.425" gradientTransform="translate(-286 -125.911) scale(1 -1)" gradientUnits="userSpaceOnUse"><stop offset=".01" stop-color="#3256f5"/><stop offset=".04" stop-color="#3357f5"/><stop offset=".95" stop-color="#2835f4"/><stop offset="1" stop-color="#2731f4"/></linearGradient><linearGradient id="bk" x1="341.003" y1="-134.088" x2="353.726" y2="-156.126" xlink:href="#f"/><linearGradient id="bl" x1="339.712" y1="-134.92" x2="354.68" y2="-154.679" gradientTransform="translate(-286 -125.911) scale(1 -1)" gradientUnits="userSpaceOnUse"><stop offset=".01" stop-color="#3157f5"/><stop offset=".04" stop-color="#3158f5"/><stop offset=".95" stop-color="#242bf4"/><stop offset="1" stop-color="#2326f4"/></linearGradient><linearGradient id="bm" x1="340.999" y1="-134.056" x2="353.781" y2="-156.196" xlink:href="#f"/><linearGradient id="bn" x1="339.833" y1="-134.825" x2="354.679" y2="-154.935" gradientTransform="translate(-286 -125.911) scale(1 -1)" gradientUnits="userSpaceOnUse"><stop offset=".01" stop-color="#305af5"/><stop offset=".04" stop-color="#305bf5"/><stop offset=".95" stop-color="#1f21f4"/><stop offset="1" stop-color="#201ef4"/></linearGradient><linearGradient id="bo" x1="340.996" y1="-134.021" x2="353.841" y2="-156.269" xlink:href="#f"/><linearGradient id="bp" x1="339.963" y1="-134.733" x2="354.677" y2="-155.2" gradientTransform="translate(-286 -125.911) scale(1 -1)" gradientUnits="userSpaceOnUse"><stop offset=".01" stop-color="#2f5df5"/><stop offset=".04" stop-color="#305ef5"/><stop offset=".95" stop-color="#1d1bf4"/><stop offset="1" stop-color="#231bf4"/></linearGradient><linearGradient id="bq" x1="340.996" y1="-133.983" x2="353.907" y2="-156.347" xlink:href="#f"/><linearGradient id="br" x1="340.093" y1="-134.64" x2="354.671" y2="-155.457" gradientTransform="translate(-286 -125.911) scale(1 -1)" gradientUnits="userSpaceOnUse"><stop offset=".01" stop-color="#3061f5"/><stop offset=".04" stop-color="#3062f5"/><stop offset=".95" stop-color="#2018f4"/><stop offset="1" stop-color="#2519f4"/></linearGradient><linearGradient id="bs" x1="340.997" y1="-133.946" x2="353.977" y2="-156.425" xlink:href="#f"/><linearGradient id="bt" x1="340.22" y1="-134.541" x2="354.657" y2="-155.711" gradientTransform="translate(-286 -125.911) scale(1 -1)" gradientUnits="userSpaceOnUse"><stop offset=".01" stop-color="#2f63f5"/><stop offset=".04" stop-color="#3064f5"/><stop offset=".95" stop-color="#2215f4"/><stop offset="1" stop-color="#2715f4"/></linearGradient><linearGradient id="bu" x1="340.994" y1="-133.909" x2="354.046" y2="-156.516" xlink:href="#f"/><linearGradient id="bv" x1="340.352" y1="-134.439" x2="354.646" y2="-155.966" gradientTransform="translate(-286 -125.911) scale(1 -1)" gradientUnits="userSpaceOnUse"><stop offset=".01" stop-color="#3066f5"/><stop offset=".04" stop-color="#3066f5"/><stop offset=".95" stop-color="#2412f4"/><stop offset="1" stop-color="#2913f4"/></linearGradient><linearGradient id="bw" x1="340.997" y1="-133.872" x2="354.125" y2="-156.612" xlink:href="#f"/><linearGradient id="bx" x1="340.509" y1="-134.33" x2="354.646" y2="-156.216" gradientTransform="translate(-286 -125.911) scale(1 -1)" gradientUnits="userSpaceOnUse"><stop offset=".01" stop-color="#316af5"/><stop offset=".04" stop-color="#316af5"/><stop offset=".95" stop-color="#2710f4"/><stop offset="1" stop-color="#2d10f4"/></linearGradient><linearGradient id="by" x1="341.005" y1="-133.825" x2="354.222" y2="-156.713" xlink:href="#f"/><linearGradient id="bz" x1="340.648" y1="-134.198" x2="354.634" y2="-156.447" gradientTransform="translate(-286 -125.911) scale(1 -1)" gradientUnits="userSpaceOnUse"><stop offset=".01" stop-color="#316df5"/><stop offset=".04" stop-color="#316df5"/><stop offset=".95" stop-color="#280cf4"/><stop offset="1" stop-color="#2f0df4"/></linearGradient><linearGradient id="ca" x1="341.001" y1="-133.782" x2="354.311" y2="-156.839" xlink:href="#f"/><linearGradient id="cb" x1="340.811" y1="-134.078" x2="354.631" y2="-156.687" gradientTransform="translate(-286 -125.911) scale(1 -1)" gradientUnits="userSpaceOnUse"><stop offset=".01" stop-color="#3270f5"/><stop offset=".04" stop-color="#3270f5"/><stop offset=".95" stop-color="#2c0af4"/><stop offset="1" stop-color="#330bf4"/></linearGradient><linearGradient id="cc" x1="341.007" y1="-133.74" x2="354.419" y2="-156.968" xlink:href="#f"/><linearGradient id="cd" x1="340.951" y1="-133.919" x2="354.591" y2="-156.882" gradientTransform="translate(-286 -125.911) scale(1 -1)" gradientUnits="userSpaceOnUse"><stop offset=".01" stop-color="#3273f5"/><stop offset=".04" stop-color="#3273f5"/><stop offset=".95" stop-color="#2d06f4"/><stop offset="1" stop-color="#3408f4"/></linearGradient><linearGradient id="ce" x1="341.012" y1="-133.69" x2="354.536" y2="-157.112" xlink:href="#f"/><linearGradient id="cf" x1="341.103" y1="-133.784" x2="354.579" y2="-157.124" gradientTransform="translate(-286 -125.911) scale(1 -1)" gradientUnits="userSpaceOnUse"><stop offset=".04" stop-color="#3477f5"/><stop offset="1" stop-color="#3805f4"/></linearGradient><linearGradient id="cg" x1="341.022" y1="-133.643" x2="354.662" y2="-157.266" xlink:href="#f"/></defs><g id="c"><g style="clip-path:url(#d);"><path d="M3.402,15.841H0v-5.129h3.402v-1.928c0-2.996.761-5.231,2.182-6.651,1.424-1.421,3.405-2.133,6.045-2.133,2.133,0,3.606.303,4.977.712v5.178c-1.22-.405-2.284-.659-3.606-.659-2.337,0-3.553,1.269-3.553,4.061v1.473h7.11v5.076h-7.007v21.527H3.402V15.841ZM21.477.303h6.144v37.064h-6.144V.303Z" style="fill:#fff; stroke-width:0px;"/><path d="M33.436.61h6.599v5.837h-6.599V.61ZM33.689,10.561h6.144v26.81h-6.144V10.561Z" style="fill:#fff; stroke-width:0px;"/><path d="M86.644,29.958v-14.114h-3.402v-5.28h3.402V3.197h6.144v7.363h7.209v5.28h-7.209v13.151c0,2.386,1.22,3.352,3.299,3.352,1.371,0,2.591-.303,3.807-.913v5.026c-1.523.864-3.25,1.371-5.534,1.371-4.519,0-7.719-1.981-7.719-7.871h.003Z" style="fill:#fff; stroke-width:0px;"/><path d="M80.138,34.807l-3.945,3.949-12.571-12.37,3.945-3.949,12.571,12.37Z" style="fill:url(#e); stroke-width:0px;"/><path d="M61.841,33.828c-7.871,0-14.272-6.408-14.272-14.285s6.401-14.285,14.272-14.285,14.272,6.408,14.272,14.285-6.404,14.285-14.272,14.285Z" style="fill:none; stroke:url(#f); stroke-linejoin:round; stroke-width:.32px;"/><path d="M61.841,37.513c-9.901,0-17.957-8.062-17.957-17.97S51.94,1.572,61.841,1.572s17.957,8.062,17.957,17.97-8.056,17.97-17.957,17.97Z" style="fill:none; stroke:url(#g); stroke-linejoin:round; stroke-width:.32px;"/><path d="M61.841,37.361c-9.819,0-17.806-7.993-17.806-17.819S52.022,1.724,61.841,1.724s17.806,7.993,17.806,17.819-7.986,17.819-17.806,17.819Z" style="fill:none; stroke:url(#h); stroke-linejoin:round; stroke-width:.32px;"/><path d="M61.841,37.209c-9.733,0-17.654-7.924-17.654-17.667S52.104,1.879,61.841,1.879s17.654,7.924,17.654,17.667-7.921,17.667-17.654,17.667v-.003Z" style="fill:none; stroke:url(#i); stroke-linejoin:round; stroke-width:.32px;"/><path d="M61.841,37.058c-9.651,0-17.502-7.858-17.502-17.512S52.19,2.03,61.841,2.03s17.502,7.858,17.502,17.512-7.851,17.512-17.502,17.512v.003Z" style="fill:none; stroke:url(#j); stroke-linejoin:round; stroke-width:.32px;"/><path d="M61.841,36.903c-9.565,0-17.347-7.789-17.347-17.361S52.273,2.182,61.841,2.182s17.351,7.789,17.351,17.36-7.782,17.361-17.351,17.361Z" style="fill:none; stroke:url(#k); stroke-linejoin:round; stroke-width:.32px;"/><path d="M61.841,36.751c-9.483,0-17.196-7.719-17.196-17.209S52.358,2.334,61.841,2.334s17.196,7.719,17.196,17.209-7.716,17.209-17.196,17.209Z" style="fill:none; stroke:url(#l); stroke-linejoin:round; stroke-width:.32px;"/><path d="M61.841,36.6c-9.397,0-17.044-7.65-17.044-17.057S52.441,2.485,61.841,2.485s17.044,7.65,17.044,17.057-7.647,17.057-17.044,17.057Z" style="fill:none; stroke:url(#m); stroke-linejoin:round; stroke-width:.32px;"/><path d="M61.841,36.448c-9.315,0-16.893-7.584-16.893-16.906S52.526,2.637,61.841,2.637s16.892,7.584,16.892,16.906-7.578,16.906-16.892,16.906Z" style="fill:none; stroke:url(#n); stroke-linejoin:round; stroke-width:.32px;"/><path d="M61.841,36.297c-9.229,0-16.741-7.515-16.741-16.751S52.609,2.795,61.841,2.795s16.741,7.515,16.741,16.751-7.508,16.751-16.741,16.751Z" style="fill:none; stroke:url(#o); stroke-linejoin:round; stroke-width:.32px;"/><path d="M61.841,36.142c-9.147,0-16.589-7.446-16.589-16.599S52.694,2.943,61.841,2.943s16.589,7.446,16.589,16.599-7.443,16.599-16.589,16.599Z" style="fill:none; stroke:url(#p); stroke-linejoin:round; stroke-width:.32px;"/><path d="M61.841,35.99c-9.064,0-16.434-7.38-16.434-16.447S52.78,3.095,61.841,3.095s16.438,7.38,16.438,16.447-7.373,16.447-16.438,16.447Z" style="fill:none; stroke:url(#q); stroke-linejoin:round; stroke-width:.32px;"/><path d="M61.841,35.838c-8.979,0-16.283-7.311-16.283-16.296S52.863,3.247,61.841,3.247s16.283,7.311,16.283,16.296-7.304,16.296-16.283,16.296Z" style="fill:none; stroke:url(#r); stroke-linejoin:round; stroke-width:.32px;"/><path d="M61.841,35.687c-8.896,0-16.131-7.241-16.131-16.144S52.945,3.398,61.841,3.398s16.131,7.241,16.131,16.144-7.235,16.144-16.131,16.144Z" style="fill:none; stroke:url(#s); stroke-linejoin:round; stroke-width:.32px;"/><path d="M61.841,35.535c-8.81,0-15.979-7.172-15.979-15.993s7.169-15.993,15.979-15.993,15.979,7.172,15.979,15.993-7.169,15.993-15.979,15.993Z" style="fill:none; stroke:url(#t); stroke-linejoin:round; stroke-width:.32px;"/><path d="M61.841,35.403c-8.738,0-15.848-7.116-15.848-15.861s7.11-15.861,15.848-15.861,15.848,7.116,15.848,15.861-7.11,15.861-15.848,15.861Z" style="fill:none; stroke:url(#u); stroke-linejoin:round; stroke-width:.32px;"/><path d="M61.841,35.271c-8.665,0-15.719-7.057-15.719-15.729s7.05-15.729,15.719-15.729,15.719,7.057,15.719,15.729-7.05,15.729-15.719,15.729Z" style="fill:none; stroke:url(#v); stroke-linejoin:round; stroke-width:.32px;"/><path d="M61.841,35.143c-8.593,0-15.587-6.998-15.587-15.597s6.991-15.597,15.587-15.597,15.587,6.998,15.587,15.597-6.991,15.597-15.587,15.597Z" style="fill:none; stroke:url(#w); stroke-linejoin:round; stroke-width:.32px;"/><path d="M61.841,35.011c-8.524,0-15.455-6.938-15.455-15.469s6.932-15.469,15.455-15.469,15.455,6.938,15.455,15.469-6.935,15.469-15.455,15.469Z" style="fill:none; stroke:url(#x); stroke-linejoin:round; stroke-width:.32px;"/><path d="M61.841,34.879c-8.451,0-15.323-6.879-15.323-15.337s6.876-15.337,15.323-15.337,15.327,6.879,15.327,15.337-6.876,15.337-15.327,15.337Z" style="fill:none; stroke:url(#y); stroke-linejoin:round; stroke-width:.32px;"/><path d="M61.841,34.751c-8.379,0-15.195-6.823-15.195-15.205s6.816-15.205,15.195-15.205,15.195,6.823,15.195,15.205-6.816,15.205-15.195,15.205Z" style="fill:none; stroke:url(#z); stroke-linejoin:round; stroke-width:.32px;"/><path d="M61.841,34.619c-8.306,0-15.063-6.764-15.063-15.076s6.757-15.076,15.063-15.076,15.063,6.764,15.063,15.076-6.757,15.076-15.063,15.076Z" style="fill:none; stroke:url(#aa); stroke-linejoin:round; stroke-width:.32px;"/><path d="M61.841,34.487c-8.234,0-14.931-6.704-14.931-14.944s6.698-14.944,14.931-14.944,14.931,6.704,14.931,14.944-6.698,14.944-14.931,14.944Z" style="fill:none; stroke:url(#ab); stroke-linejoin:round; stroke-width:.32px;"/><path d="M61.841,34.355c-8.161,0-14.803-6.645-14.803-14.813s6.642-14.813,14.803-14.813,14.803,6.645,14.803,14.813-6.642,14.813-14.803,14.813Z" style="fill:none; stroke:url(#ac); stroke-linejoin:round; stroke-width:.32px;"/><path d="M61.841,34.227c-8.089,0-14.671-6.586-14.671-14.684s6.582-14.684,14.671-14.684,14.671,6.586,14.671,14.684-6.582,14.684-14.671,14.684Z" style="fill:none; stroke:url(#ad); stroke-linejoin:round; stroke-width:.32px;"/><path d="M61.841,34.095c-8.016,0-14.539-6.53-14.539-14.552s6.523-14.552,14.539-14.552,14.539,6.53,14.539,14.552-6.523,14.552-14.539,14.552Z" style="fill:none; stroke:url(#ae); stroke-linejoin:round; stroke-width:.32px;"/><path d="M61.841,33.963c-7.944,0-14.411-6.47-14.411-14.42s6.464-14.42,14.411-14.42,14.41,6.47,14.41,14.42-6.464,14.42-14.41,14.42Z" style="fill:none; stroke:url(#af); stroke-linejoin:round; stroke-width:.32px;"/><path d="M61.841,33.834c-7.874,0-14.279-6.411-14.279-14.289s6.404-14.292,14.279-14.292,14.279,6.411,14.279,14.292-6.404,14.289-14.279,14.289Z" style="fill:none; stroke:url(#ag); stroke-linejoin:round; stroke-width:.32px;"/><path d="M61.841,33.703c-7.802,0-14.147-6.352-14.147-14.16s6.345-14.16,14.147-14.16,14.147,6.352,14.147,14.16-6.345,14.16-14.147,14.16Z" style="fill:none; stroke:url(#ah); stroke-linejoin:round; stroke-width:.32px;"/><path d="M61.841,33.577c-7.733,0-14.021-6.296-14.021-14.035s6.289-14.035,14.021-14.035,14.022,6.295,14.022,14.035-6.289,14.035-14.022,14.035Z" style="fill:none; stroke:url(#ai); stroke-linejoin:round; stroke-width:.32px;"/><path d="M61.841,33.452c-7.663,0-13.896-6.24-13.896-13.906s6.233-13.909,13.896-13.909,13.896,6.239,13.896,13.909-6.233,13.906-13.896,13.906Z" style="fill:none; stroke:url(#aj); stroke-linejoin:round; stroke-width:.32px;"/><path d="M61.841,33.327c-7.594,0-13.771-6.184-13.771-13.781s6.177-13.781,13.771-13.781,13.771,6.184,13.771,13.781-6.177,13.781-13.771,13.781Z" style="fill:none; stroke:url(#ak); stroke-linejoin:round; stroke-width:.32px;"/><path d="M61.841,33.198c-7.525,0-13.646-6.127-13.646-13.656s6.121-13.656,13.646-13.656,13.646,6.127,13.646,13.656-6.121,13.656-13.646,13.656Z" style="fill:none; stroke:url(#al); stroke-linejoin:round; stroke-width:.32px;"/><path d="M61.841,33.073c-7.456,0-13.517-6.068-13.517-13.531s6.065-13.53,13.517-13.53,13.521,6.071,13.521,13.53-6.065,13.531-13.521,13.531Z" style="fill:none; stroke:url(#am); stroke-linejoin:round; stroke-width:.32px;"/><path d="M61.841,32.948c-7.387,0-13.392-6.012-13.392-13.405s6.009-13.405,13.392-13.405,13.392,6.012,13.392,13.405-6.009,13.405-13.392,13.405Z" style="fill:none; stroke:url(#an); stroke-linejoin:round; stroke-width:.32px;"/><path d="M61.841,32.822c7.327,0,13.267-5.946,13.267-13.28s-5.94-13.28-13.267-13.28-13.267,5.946-13.267,13.28,5.94,13.28,13.267,13.28Z" style="fill:none; stroke:url(#ao); stroke-linejoin:round; stroke-width:.32px;"/><path d="M61.452,32.325c-.323,0-.676-.043-1.061-.122-1.47-.313-2.04-1.394-2.499-2.264-.155-.293-.3-.57-.461-.778-.821-1.042-1.773-.643-2.617-.29-.396.165-.778.326-1.117.326-.211,0-.405-.063-.58-.221-1.549-1.434-2.733-3.247-3.425-5.238-.353-1.012-.577-2.063-.666-3.128-.092-1.098-.04-2.208.152-3.299,1.229-6.975,7.904-11.648,14.882-10.419,2.373.419,4.568,1.49,6.355,3.098.376.336.435.936.501,1.572.046.451.092.92.251,1.351.31.85.765,1.13,1.206,1.401.363.221.702.432.9.946.211.55.063.897-.122,1.332-.178.419-.399.943-.356,1.829.043.854.531,1.404.963,1.892.468.531.91,1.028.682,1.803-.25.857-1.111.999-2.301,1.193-1.285.211-2.881.475-4.525,1.721-1.49,1.127-2.185,2.699-2.798,4.084-.438.996-.854,1.931-1.5,2.525-.501.462-1.104.686-1.862.686ZM56.185,28.448c.438,0,.87.171,1.276.686.165.208.31.488.468.785.455.86,1.019,1.935,2.472,2.245,1.269.27,2.185.096,2.891-.554.639-.59,1.052-1.523,1.49-2.515.616-1.391,1.312-2.967,2.808-4.1,1.651-1.249,3.253-1.513,4.542-1.727,1.177-.194,2.027-.333,2.271-1.167.221-.751-.194-1.223-.676-1.767-.435-.491-.929-1.051-.972-1.918-.046-.896.178-1.421.359-1.846.181-.429.326-.768.122-1.305-.191-.504-.527-.709-.883-.926-.425-.26-.91-.557-1.22-1.421-.158-.438-.208-.907-.254-1.361-.063-.626-.125-1.22-.488-1.546-1.78-1.605-3.968-2.673-6.335-3.088-6.955-1.226-13.609,3.435-14.836,10.389-.758,4.301.709,8.649,3.926,11.629.432.402,1.028.152,1.658-.112.442-.185.916-.382,1.388-.382l-.007.003Z" style="fill:url(#ap); stroke:url(#aq); stroke-linejoin:round;"/><path d="M61.502,32.358c-.32,0-.666-.04-1.042-.115-1.457-.3-2.053-1.341-2.535-2.175-.161-.283-.316-.55-.484-.752-.824-.992-1.767-.639-2.597-.326-.639.241-1.246.468-1.704.049-1.552-1.424-2.742-3.227-3.444-5.208-.356-1.009-.587-2.057-.682-3.118-.099-1.094-.056-2.202.129-3.293,1.17-6.998,7.818-11.737,14.813-10.564,2.406.399,4.638,1.467,6.45,3.092.392.349.475.956.56,1.602.059.438.122.893.28,1.318.313.831.758,1.127,1.19,1.417.359.241.702.468.9.992.214.564.073.926-.102,1.384-.161.425-.366.956-.323,1.819.039.837.498,1.394.903,1.882.445.541.864,1.048.639,1.819-.26.887-1.127,1.061-2.33,1.302-1.233.247-2.772.554-4.344,1.757-1.444,1.101-2.159,2.61-2.792,3.939-.468.982-.91,1.908-1.572,2.498-.521.462-1.14.689-1.912.689v-.01ZM56.162,28.617c.445,0,.893.165,1.309.669.171.204.323.475.488.758.478.831,1.068,1.862,2.508,2.159,1.266.26,2.192.082,2.917-.564.656-.583,1.098-1.51,1.562-2.485.636-1.335,1.355-2.844,2.805-3.952,1.582-1.206,3.125-1.516,4.361-1.763,1.187-.237,2.044-.409,2.297-1.272.221-.748-.175-1.229-.63-1.783-.409-.494-.87-1.055-.91-1.905-.043-.873.161-1.407.326-1.836.171-.452.31-.808.102-1.355-.195-.514-.531-.738-.883-.972-.415-.277-.89-.593-1.206-1.437-.161-.429-.224-.887-.284-1.328-.086-.636-.168-1.236-.547-1.576-1.81-1.618-4.031-2.683-6.431-3.082-6.974-1.167-13.6,3.556-14.766,10.531-.722,4.295.768,8.626,3.988,11.583.438.402,1.032.181,1.661-.056.425-.161.877-.33,1.332-.33v-.003Z" style="fill:url(#ar); stroke:url(#as); stroke-linejoin:round;"/><path d="M61.551,32.387c-.317,0-.656-.036-1.022-.109-1.44-.287-2.07-1.285-2.571-2.09-.171-.27-.33-.527-.504-.725-.827-.943-1.754-.636-2.574-.363-.64.214-1.246.415-1.711-.007-1.552-1.414-2.752-3.207-3.464-5.181-.363-1.002-.6-2.047-.702-3.105-.105-1.091-.073-2.195.102-3.286,1.005-6.338,6.497-10.871,12.723-10.871.669,0,1.345.053,2.027.162,2.439.379,4.704,1.444,6.546,3.082.409.363.511.979.623,1.632.073.429.148.87.31,1.282.316.811.755,1.127,1.177,1.431.359.26.699.504.9,1.038.214.577.086.956-.079,1.437-.155.455-.333.969-.293,1.81.04.821.465,1.378.844,1.872.422.55.818,1.068.593,1.836-.27.916-1.147,1.127-2.36,1.414-1.183.28-2.657.63-4.163,1.787-1.394,1.074-2.133,2.518-2.782,3.791-.494.969-.966,1.885-1.648,2.472-.541.465-1.177.689-1.964.689l-.007.003ZM56.136,28.781c.455,0,.913.158,1.348.653.175.201.336.458.508.732.501.798,1.121,1.79,2.545,2.07,1.266.25,2.202.069,2.95-.573.676-.58,1.144-1.493,1.638-2.459.653-1.276,1.391-2.723,2.795-3.804,1.513-1.163,2.993-1.513,4.179-1.796,1.2-.284,2.067-.491,2.327-1.384.221-.748-.155-1.236-.587-1.8-.382-.498-.814-1.061-.85-1.895-.04-.85.145-1.391.297-1.826.161-.475.29-.847.079-1.411-.194-.524-.531-.765-.887-1.022-.409-.293-.87-.626-1.19-1.45-.165-.419-.237-.864-.31-1.292-.109-.646-.211-1.256-.61-1.605-1.836-1.632-4.094-2.696-6.526-3.072-.679-.109-1.355-.158-2.021-.158-6.203,0-11.678,4.519-12.68,10.834-.686,4.288.831,8.6,4.054,11.536.445.405,1.042.208,1.668,0,.405-.135.837-.28,1.269-.28l.003.003Z" style="fill:url(#at); stroke:url(#au); stroke-linejoin:round;"/><path d="M61.597,32.42c-.31,0-.643-.033-.999-.102-1.427-.27-2.083-1.233-2.611-2.004-.178-.26-.346-.504-.524-.699-.827-.896-1.744-.629-2.548-.399-.643.185-1.249.363-1.721-.063-1.556-1.404-2.762-3.187-3.487-5.152-.369-.999-.61-2.04-.722-3.095-.115-1.088-.089-2.192.076-3.28,1.055-7.041,7.64-11.912,14.681-10.857,2.475.359,4.773,1.424,6.645,3.075.425.376.554,1.002.689,1.665.082.415.171.84.333,1.246.32.791.748,1.124,1.16,1.444.359.28.699.544.903,1.088.217.59.096.989-.056,1.493-.142.458-.3.979-.264,1.796.036.804.432,1.365.785,1.859.399.56.771,1.088.547,1.856-.28.953-1.164,1.196-2.39,1.533-1.134.313-2.545.702-3.982,1.813-1.345,1.045-2.103,2.423-2.769,3.639-.524.959-1.022,1.866-1.727,2.449-.564.465-1.22.692-2.021.692v.003ZM56.103,28.946c.468,0,.939.152,1.391.639.181.194.349.442.527.702.524.765,1.173,1.717,2.584,1.988.353.066.682.102.992.102.791,0,1.437-.224,1.994-.682.699-.577,1.193-1.48,1.714-2.436.669-1.219,1.427-2.601,2.779-3.652,1.444-1.117,2.861-1.506,3.998-1.819,1.213-.333,2.086-.577,2.36-1.503.221-.748-.132-1.243-.541-1.819-.353-.498-.755-1.065-.791-1.882-.036-.827.122-1.351.264-1.813.152-.498.273-.89.059-1.467-.198-.534-.534-.794-.89-1.071-.399-.31-.85-.659-1.174-1.464-.165-.409-.251-.837-.336-1.252-.132-.656-.257-1.272-.672-1.638-1.866-1.648-4.156-2.706-6.622-3.065-7.017-1.051-13.58,3.804-14.631,10.818-.649,4.278.89,8.573,4.117,11.487.455.409,1.048.237,1.678.053.382-.112.791-.228,1.203-.228l-.003.003Z" style="fill:url(#av); stroke:url(#aw); stroke-linejoin:round;"/><path d="M61.643,32.453c-.306,0-.629-.033-.979-.096-1.414-.257-2.103-1.18-2.653-1.922-.185-.247-.356-.481-.541-.669-.827-.847-1.727-.626-2.521-.432-.643.158-1.253.307-1.73-.122-1.559-1.398-2.772-3.168-3.507-5.122-.373-.996-.623-2.03-.742-3.085-.122-1.084-.105-2.185.053-3.273.244-1.727.817-3.355,1.711-4.839.86-1.434,1.978-2.673,3.322-3.685,1.341-1.012,2.844-1.744,4.46-2.172,1.674-.445,3.398-.55,5.122-.307,2.508.339,4.839,1.401,6.74,3.069.445.389.597,1.025.755,1.697.096.399.191.814.356,1.206.323.768.738,1.117,1.144,1.454.359.3.702.583.906,1.14.221.606.109,1.025-.033,1.553-.125.461-.267.985-.234,1.78.033.788.386,1.325.725,1.846.372.57.725,1.111.501,1.875-.135.455-.409.791-.867,1.058-.415.244-.946.409-1.559.603-1.081.34-2.429.765-3.797,1.833-1.295,1.015-2.067,2.327-2.746,3.487-.557.949-1.081,1.846-1.806,2.426-.587.468-1.262.695-2.08.695ZM56.066,29.111c.481,0,.972.145,1.44.626.185.188.359.425.544.672.547.735,1.226,1.651,2.624,1.905.356.066.682.096.979.096,2.021,0,2.838-1.394,3.837-3.098.682-1.164,1.454-2.479,2.756-3.5,1.374-1.071,2.726-1.496,3.81-1.839,1.226-.386,2.109-.666,2.393-1.628.217-.745-.112-1.253-.494-1.839-.326-.501-.699-1.068-.732-1.869-.033-.804.109-1.328.234-1.793.142-.521.254-.936.036-1.526-.201-.547-.537-.824-.893-1.121-.389-.323-.831-.692-1.157-1.47-.165-.396-.264-.811-.359-1.213-.158-.666-.306-1.295-.742-1.674-1.895-1.661-4.219-2.719-6.717-3.059-3.405-.481-6.793.399-9.549,2.469-2.752,2.073-4.535,5.089-5.013,8.494-.613,4.272.949,8.55,4.18,11.441.461.412,1.058.264,1.691.109.359-.089.738-.181,1.124-.181h.01Z" style="fill:url(#ax); stroke:url(#ay); stroke-linejoin:round;"/><path d="M61.689,32.483c-.3,0-.616-.03-.956-.089-.626-.109-1.167-.349-1.655-.738-.425-.34-.751-.745-1.042-1.101-.188-.234-.369-.455-.554-.636-.824-.801-1.711-.623-2.495-.465-.646.129-1.259.25-1.744-.178-3.247-2.881-4.839-7.156-4.258-11.434.936-7.083,7.462-12.083,14.546-11.147,2.541.32,4.908,1.378,6.839,3.062.465.402.639,1.048.824,1.734.106.386.211.785.376,1.164.323.748.732,1.111,1.124,1.46.363.323.702.626.91,1.196.228.623.122,1.061-.01,1.618-.109.465-.234.989-.204,1.76.03.771.353,1.308.666,1.829.349.583.679,1.134.455,1.899-.138.471-.419.827-.883,1.117-.422.264-.956.455-1.576.676-1.028.366-2.311.824-3.609,1.843-1.243.982-2.024,2.228-2.713,3.329-.59.939-1.144,1.826-1.892,2.403-.613.471-1.309.702-2.146.702l-.003-.003ZM56.017,29.269c.498,0,1.009.139,1.5.613.188.181.369.405.557.639.6.742,1.282,1.582,2.67,1.823.336.059.643.086.93.086,2.086,0,2.989-1.444,4.015-3.082.692-1.104,1.477-2.354,2.726-3.342,1.305-1.025,2.591-1.483,3.622-1.849,1.239-.442,2.136-.761,2.433-1.76.217-.745-.092-1.262-.452-1.859-.3-.501-.643-1.068-.672-1.852-.03-.778.096-1.305.204-1.773.132-.55.234-.982.013-1.592-.204-.557-.541-.86-.896-1.177-.379-.34-.808-.722-1.137-1.477-.165-.382-.274-.785-.379-1.17-.185-.679-.356-1.318-.811-1.711-1.925-1.678-4.282-2.732-6.813-3.049-7.057-.933-13.56,4.048-14.493,11.108-.577,4.265,1.012,8.524,4.245,11.395.468.415,1.068.293,1.704.168.33-.066.679-.135,1.035-.135v-.003Z" style="fill:url(#az); stroke:url(#ba); stroke-linejoin:round;"/><path d="M61.736,32.516c-.293,0-.603-.026-.93-.082-1.397-.231-2.113-1.045-2.746-1.763-.194-.221-.376-.428-.564-.6-.821-.755-1.694-.62-2.462-.498-.649.102-1.266.198-1.76-.237-3.25-2.858-4.868-7.116-4.325-11.391.88-7.106,7.377-12.169,14.48-11.292,2.578.3,4.974,1.355,6.935,3.052.484.419.686,1.078.9,1.773.112.369.231.752.392,1.117.323.725.722,1.101,1.104,1.467.363.346.705.669.916,1.252.231.639.135,1.101.013,1.684-.095.465-.204.989-.178,1.734.03.751.323,1.292.61,1.813.326.593.633,1.157.409,1.922-.145.491-.432.867-.903,1.183-.428.287-.969.504-1.595.751-.976.389-2.192.873-3.418,1.843-1.19.949-1.978,2.129-2.673,3.167-.623.933-1.21,1.81-1.984,2.386-.639.475-1.361.709-2.218.709l-.003.01ZM55.951,29.431c.521,0,1.058.129,1.576.607.191.175.376.382.567.603.626.712,1.335,1.52,2.716,1.747.326.053.626.079.907.079,2.123,0,3.085-1.437,4.176-3.069.699-1.045,1.49-2.228,2.683-3.181,1.233-.976,2.452-1.46,3.431-1.852,1.256-.501,2.166-.86,2.472-1.905.221-.745-.069-1.272-.405-1.885-.274-.501-.587-1.068-.613-1.833-.03-.751.082-1.279.178-1.747.119-.577.214-1.035-.013-1.658-.208-.574-.544-.893-.903-1.236-.369-.349-.788-.748-1.114-1.48-.165-.369-.283-.755-.396-1.124-.211-.689-.409-1.342-.883-1.75-1.954-1.691-4.344-2.742-6.909-3.042-7.08-.877-13.55,4.17-14.427,11.25-.541,4.259,1.071,8.501,4.308,11.348.478.419,1.081.326,1.721.227.297-.046.61-.096.93-.096v-.003Z" style="fill:url(#bb); stroke:url(#bc); stroke-linejoin:round;"/><path d="M61.775,32.549c-.287,0-.587-.026-.903-.073-1.391-.218-2.136-.999-2.795-1.688-.194-.204-.379-.399-.57-.564-.814-.709-1.635-.616-2.429-.531-.656.073-1.276.142-1.78-.297-1.569-1.368-2.802-3.108-3.566-5.04-.389-.982-.659-2.007-.798-3.052-.145-1.075-.152-2.169-.023-3.253.201-1.74.738-3.395,1.595-4.908.831-1.464,1.922-2.739,3.247-3.79,1.325-1.051,2.815-1.826,4.43-2.301,1.671-.491,3.402-.639,5.142-.438,2.61.28,5.043,1.332,7.034,3.046.508.435.735,1.107.976,1.819.119.353.244.719.405,1.068.323.702.709,1.091,1.081,1.467.366.369.709.718.923,1.315.234.659.148,1.144.04,1.76-.082.462-.175.989-.148,1.704.026.735.293,1.272.55,1.793.3.606.587,1.183.359,1.948-.326,1.107-1.302,1.536-2.538,2.083-.972.429-2.073.916-3.23,1.843-1.137.91-1.931,2.024-2.63,3.009-.656.923-1.279,1.793-2.076,2.367-.669.481-1.414.715-2.294.715v-.003ZM55.865,29.586c.547,0,1.117.119,1.671.6.191.168.379.362.574.567.653.682,1.394,1.457,2.765,1.671.313.049.606.073.88.073,2.166,0,3.184-1.431,4.344-3.059.702-.986,1.496-2.103,2.64-3.019,1.16-.929,2.268-1.417,3.24-1.849,1.272-.56,2.192-.966,2.512-2.05.221-.748-.049-1.285-.359-1.912-.247-.501-.531-1.068-.557-1.813-.026-.722.069-1.249.152-1.714.109-.61.195-1.088-.036-1.734-.211-.587-.55-.933-.913-1.295-.359-.363-.765-.771-1.091-1.48-.165-.356-.287-.722-.409-1.074-.237-.705-.465-1.371-.962-1.796-1.984-1.707-4.407-2.756-7.004-3.032-7.1-.817-13.54,4.295-14.358,11.395-.504,4.249,1.131,8.474,4.371,11.299.488.422,1.097.356,1.74.287.257-.03.524-.056.798-.056l.003-.007Z" style="fill:url(#bd); stroke:url(#be); stroke-linejoin:round;"/><path d="M61.818,32.578c-.28,0-.57-.023-.877-.066-1.388-.204-2.166-.953-2.854-1.615-.198-.188-.382-.366-.57-.524-.804-.663-1.612-.61-2.393-.56-.662.043-1.285.082-1.8-.359-1.572-1.358-2.812-3.088-3.589-5.01-.396-.976-.669-2.001-.818-3.039-.152-1.071-.168-2.166-.049-3.247.185-1.747.709-3.408,1.559-4.934.818-1.473,1.902-2.762,3.22-3.827,1.319-1.065,2.805-1.852,4.417-2.344,1.671-.508,3.405-.669,5.152-.485,2.643.26,5.109,1.312,7.129,3.039.534.452.788,1.14,1.061,1.869.125.333.254.679.412,1.015.323.676.696,1.075,1.058,1.464.369.396.715.768.936,1.381.241.679.165,1.19.066,1.839-.069.458-.148.979-.125,1.668.023.715.264,1.249.494,1.77.277.623.541,1.21.313,1.978-.34,1.154-1.332,1.635-2.587,2.245-.913.445-1.948.949-3.032,1.823-1.078.87-1.833,1.869-2.568,2.838-.696.916-1.351,1.783-2.179,2.357-.705.488-1.477.725-2.38.725h.003ZM55.74,29.737c.587,0,1.206.102,1.81.6.191.158.379.336.574.527.682.656,1.454,1.398,2.825,1.599.303.043.587.066.854.066,2.212,0,3.296-1.43,4.529-3.059.735-.969,1.493-1.971,2.574-2.845,1.088-.88,2.126-1.384,3.042-1.829,1.243-.603,2.225-1.081,2.558-2.212.221-.748-.026-1.302-.31-1.941-.234-.524-.475-1.065-.498-1.79-.023-.692.056-1.216.125-1.678.096-.643.171-1.147-.063-1.813-.214-.603-.56-.972-.923-1.365-.363-.389-.742-.791-1.068-1.477-.161-.336-.29-.682-.415-1.019-.27-.722-.521-1.404-1.045-1.846-2.014-1.721-4.469-2.769-7.1-3.026-3.444-.366-6.829.633-9.529,2.815-2.703,2.182-4.39,5.28-4.76,8.721-.468,4.242,1.19,8.448,4.437,11.253.498.429,1.111.389,1.763.346.201-.013.409-.026.623-.026l-.003-.003Z" style="fill:url(#bf); stroke:url(#bg); stroke-linejoin:round;"/><path d="M61.848,32.611c-.264,0-.544-.02-.837-.059-1.388-.191-2.202-.91-2.92-1.546-.194-.171-.376-.333-.564-.478-.794-.62-1.589-.603-2.353-.59-.669.013-1.299.026-1.826-.422-1.572-1.348-2.821-3.072-3.609-4.98-.402-.972-.682-1.991-.837-3.029-.158-1.068-.185-2.159-.073-3.24.663-6.74,6.358-11.793,12.993-11.793.425,0,.854.02,1.285.063,2.676.241,5.178,1.289,7.228,3.032.56.475.847,1.177,1.15,1.925.128.313.257.636.415.953.32.649.682,1.058,1.028,1.45.372.422.725.821.949,1.454.247.702.178,1.243.096,1.928-.056.452-.119.966-.099,1.622.023.695.234,1.226.438,1.744.254.636.491,1.239.264,2.011-.356,1.203-1.365,1.744-2.64,2.423-.854.455-1.819.969-2.825,1.79-1.012.827-1.763,1.757-2.485,2.657-1.325,1.645-2.485,3.088-4.776,3.088h-.003ZM55.516,29.882c.649,0,1.358.069,2.044.603.188.148.372.31.567.481.712.63,1.52,1.342,2.891,1.533.29.04.567.059.827.059,2.268,0,3.421-1.434,4.736-3.069.725-.903,1.477-1.836,2.495-2.667,1.009-.824,1.978-1.342,2.835-1.796,1.266-.676,2.268-1.206,2.614-2.39.221-.752,0-1.318-.264-1.974-.208-.521-.419-1.058-.442-1.76-.02-.659.043-1.173.099-1.632.082-.679.152-1.213-.092-1.905-.218-.623-.567-1.018-.939-1.437-.353-.399-.715-.808-1.038-1.464-.158-.316-.29-.643-.415-.956-.3-.742-.583-1.44-1.134-1.905-2.04-1.737-4.532-2.779-7.199-3.019-.429-.043-.857-.063-1.279-.063-6.609,0-12.281,5.03-12.94,11.744-.432,4.236,1.252,8.425,4.499,11.207.511.435,1.131.422,1.79.409.112,0,.228-.003.343-.003l.003.003Z" style="fill:url(#bh); stroke:url(#bi); stroke-linejoin:round;"/><path d="M61.887,32.644c-.254,0-.524-.017-.807-.053-1.391-.178-2.241-.87-2.993-1.48-.188-.152-.366-.297-.547-.432-.785-.577-1.559-.597-2.311-.616-.679-.017-1.318-.033-1.856-.488-1.576-1.338-2.831-3.052-3.629-4.954-.405-.969-.692-1.984-.857-3.019-.168-1.065-.201-2.152-.099-3.237.646-7.192,7.021-12.518,14.213-11.876,2.713.221,5.244,1.266,7.324,3.023.59.494.906,1.22,1.246,1.988.129.29.26.59.409.883.317.62.663,1.035.999,1.434.379.452.738.88.966,1.536.254.729.198,1.302.125,2.027-.043.445-.096.946-.076,1.566.02.672.204,1.2.382,1.711.227.656.445,1.272.214,2.047-.372,1.262-1.401,1.859-2.706,2.617-.788.458-1.684.979-2.61,1.74-.943.778-1.678,1.638-2.386,2.465-1.411,1.655-2.65,3.105-5.003,3.105l.003.013ZM61.825,6.5c-6.668,0-12.37,5.109-12.977,11.876-.396,4.226,1.312,8.398,4.565,11.157.521.442,1.154.458,1.819.475.725.02,1.543.04,2.34.626.181.135.359.28.55.432.745.607,1.589,1.292,2.966,1.467.28.036.544.053.798.053,2.33,0,3.563-1.44,4.964-3.085.709-.831,1.444-1.691,2.393-2.472.929-.768,1.826-1.289,2.617-1.747,1.292-.751,2.314-1.345,2.68-2.584.224-.755.02-1.338-.214-2.011-.178-.514-.366-1.048-.386-1.73-.017-.623.033-1.127.076-1.572.073-.718.129-1.285-.122-2.004-.224-.646-.58-1.068-.956-1.516-.336-.402-.686-.817-1.005-1.444-.152-.297-.284-.597-.409-.887-.336-.761-.649-1.483-1.229-1.968-2.07-1.75-4.591-2.792-7.294-3.009-.392-.036-.785-.053-1.173-.053l-.003-.003Z" style="fill:url(#bj); stroke:url(#bk); stroke-linejoin:round;"/><path d="M61.92,32.678c-.247,0-.504-.017-.775-.046-1.401-.165-2.294-.831-3.082-1.421-.178-.132-.346-.257-.518-.376-.768-.531-1.526-.587-2.261-.639-.689-.049-1.338-.096-1.889-.557-1.579-1.328-2.841-3.032-3.649-4.924-.412-.962-.705-1.974-.874-3.006-.175-1.061-.214-2.149-.125-3.23.142-1.763.63-3.448,1.444-5.003.788-1.503,1.846-2.828,3.144-3.932,1.299-1.104,2.775-1.935,4.387-2.469,1.668-.554,3.408-.758,5.172-.616,1.384.102,2.736.419,4.011.946,1.236.511,2.383,1.206,3.411,2.07.623.521.976,1.269,1.351,2.063.125.264.254.534.392.804.31.587.639,1.002.962,1.404.389.485.755.946.989,1.625.26.758.214,1.368.155,2.139-.033.429-.069.916-.056,1.496.016.649.175,1.17.326,1.674.204.672.396,1.312.165,2.09-.392,1.325-1.447,1.991-2.782,2.831-.722.455-1.539.969-2.383,1.671-.87.722-1.576,1.506-2.258,2.261-1.51,1.674-2.835,3.138-5.264,3.138l.003.007ZM61.818,6.474c-3.092,0-6.055,1.088-8.441,3.115-2.663,2.264-4.285,5.422-4.568,8.896-.359,4.219,1.371,8.372,4.628,11.111.537.448,1.177.494,1.856.544.742.053,1.506.109,2.287.649.171.119.34.244.518.379.781.583,1.668,1.246,3.055,1.407.267.03.521.046.765.046,2.406,0,3.721-1.457,5.224-3.121.686-.758,1.391-1.542,2.264-2.268.847-.705,1.665-1.219,2.39-1.674,1.325-.834,2.373-1.493,2.759-2.798.224-.761.043-1.361-.165-2.057-.155-.508-.313-1.035-.33-1.691-.017-.583.023-1.071.056-1.503.059-.765.105-1.371-.152-2.116-.231-.669-.593-1.124-.979-1.609-.323-.405-.656-.821-.966-1.414-.142-.267-.27-.541-.396-.804-.372-.788-.722-1.533-1.335-2.044-2.1-1.763-4.654-2.802-7.39-3.003-.359-.03-.719-.043-1.075-.043l-.007-.003Z" style="fill:url(#bl); stroke:url(#bm); stroke-linejoin:round;"/><path d="M61.953,32.71c-.234,0-.481-.013-.735-.04-1.417-.152-2.36-.798-3.191-1.368-.161-.109-.313-.214-.468-.316-.751-.488-1.49-.573-2.205-.659-.702-.082-1.365-.158-1.931-.63-1.582-1.318-2.851-3.013-3.669-4.898-.415-.959-.719-1.968-.893-2.996-.181-1.058-.231-2.142-.148-3.224.129-1.77.603-3.461,1.404-5.026.775-1.513,1.826-2.848,3.118-3.965,1.295-1.117,2.765-1.964,4.377-2.512,1.668-.567,3.408-.791,5.178-.659,1.401.092,2.769.402,4.061.93,1.252.508,2.416,1.21,3.458,2.08.662.55,1.055,1.328,1.47,2.156.115.231.237.471.366.709.3.554.613.966.916,1.365.399.524.775,1.018,1.019,1.727.27.794.234,1.447.188,2.271-.023.409-.049.874-.036,1.407.016.62.148,1.134.273,1.632.178.695.346,1.355.115,2.139-.412,1.401-1.5,2.136-2.874,3.072-.649.442-1.384.939-2.139,1.576-.784.659-1.45,1.361-2.096,2.037-1.622,1.701-3.042,3.191-5.557,3.191v.003ZM61.818,6.444c-3.138,0-6.141,1.114-8.543,3.194-2.65,2.291-4.249,5.468-4.502,8.952-.323,4.212,1.431,8.346,4.69,11.065.554.458,1.206.534,1.899.616.722.082,1.467.171,2.228.666.155.102.307.204.468.316.824.567,1.757,1.206,3.161,1.358.254.026.494.04.728.04,2.495,0,3.906-1.48,5.518-3.174.646-.679,1.315-1.381,2.103-2.044.755-.636,1.493-1.137,2.142-1.579,1.365-.926,2.442-1.658,2.851-3.039.227-.771.069-1.391-.115-2.11-.129-.501-.26-1.015-.277-1.645-.013-.537.013-1.002.036-1.414.046-.817.082-1.467-.185-2.248-.241-.699-.613-1.19-1.009-1.711-.307-.402-.623-.817-.923-1.374-.129-.237-.25-.478-.366-.709-.412-.821-.801-1.595-1.453-2.136-2.129-1.78-4.717-2.815-7.486-2.993-.323-.023-.646-.036-.969-.036l.003.003Z" style="fill:url(#bn); stroke:url(#bo); stroke-linejoin:round;"/><path d="M61.983,32.743c-.224,0-.455-.01-.696-.033-1.447-.142-2.399-.742-3.322-1.325-.129-.082-.264-.165-.392-.247-.728-.445-1.444-.56-2.139-.672-.719-.115-1.398-.224-1.984-.705-1.585-1.309-2.861-2.993-3.692-4.868-.422-.956-.728-1.961-.913-2.986-.188-1.055-.247-2.136-.175-3.217.115-1.773.573-3.474,1.368-5.053.765-1.523,1.806-2.871,3.095-4.001,1.289-1.131,2.756-1.991,4.367-2.554,1.668-.583,3.411-.821,5.185-.705,1.417.082,2.802.389,4.113.913,1.269.508,2.446,1.21,3.504,2.086.705.583,1.144,1.401,1.605,2.264.102.194.211.392.32.59.287.511.58.916.863,1.308.412.567.804,1.104,1.058,1.849.283.837.257,1.539.224,2.426-.013.402-.03.814-.02,1.295.013.59.119,1.091.221,1.576.152.722.297,1.404.063,2.202-.438,1.487-1.566,2.307-2.993,3.346-.57.415-1.216.887-1.872,1.444-.689.587-1.299,1.196-1.889,1.786-1.747,1.747-3.276,3.273-5.903,3.273l.003.01ZM61.821,6.414c-3.184,0-6.226,1.144-8.646,3.27-2.637,2.317-4.212,5.518-4.44,9.011-.287,4.202,1.49,8.323,4.756,11.019.57.471,1.243.577,1.955.692.699.112,1.421.227,2.159.682.132.079.264.165.396.247.916.577,1.862,1.177,3.293,1.315.237.023.465.033.686.033,2.604,0,4.123-1.516,5.864-3.253.593-.59,1.203-1.203,1.895-1.79.656-.56,1.305-1.032,1.875-1.447,1.417-1.032,2.535-1.849,2.97-3.313.231-.784.095-1.427-.063-2.172-.102-.488-.211-.992-.224-1.589-.01-.484.007-.916.02-1.302.033-.883.059-1.579-.221-2.403-.251-.735-.636-1.269-1.048-1.833-.287-.392-.583-.798-.87-1.312-.109-.198-.218-.399-.32-.593-.458-.86-.893-1.671-1.589-2.248-2.159-1.793-4.779-2.828-7.581-2.986-.287-.02-.577-.026-.86-.026l-.007-.003Z" style="fill:url(#bp); stroke:url(#bq); stroke-linejoin:round;"/><path d="M62.009,32.776c-.214,0-.432-.01-.653-.03-1.487-.129-2.505-.719-3.491-1.292-.096-.056-.188-.109-.284-.165-.702-.402-1.391-.544-2.057-.682-.742-.152-1.44-.293-2.047-.788-1.589-1.299-2.871-2.973-3.711-4.842-.429-.953-.742-1.951-.933-2.973-.198-1.051-.264-2.133-.198-3.21.409-7.278,6.668-12.868,13.946-12.456,1.434.069,2.838.372,4.163.897,1.285.508,2.479,1.213,3.55,2.096.761.626,1.249,1.49,1.763,2.406.082.145.168.297.254.445.267.465.537.85.798,1.226.435.62.844,1.203,1.108,1.994.3.89.283,1.651.264,2.617-.007.359-.013.732-.007,1.15.01.554.092,1.038.171,1.506.129.752.247,1.464.007,2.281-.471,1.589-1.648,2.508-3.141,3.668-.504.392-1.025.798-1.569,1.266-.574.494-1.107,1.002-1.622,1.493-1.009.962-1.965,1.875-3.055,2.508-1.035.6-2.083.887-3.257.887v-.003ZM61.828,6.381c-6.918,0-12.736,5.425-13.128,12.42-.251,4.196,1.549,8.296,4.819,10.969.593.485,1.285.626,2.021.775.672.138,1.365.28,2.077.689.096.053.188.109.283.165.979.567,1.991,1.157,3.461,1.282,3.131.264,4.885-1.407,6.915-3.349.514-.491,1.048-.999,1.625-1.496.547-.471,1.068-.877,1.572-1.269,1.483-1.154,2.657-2.067,3.121-3.636.237-.801.122-1.473-.01-2.251-.079-.468-.161-.956-.171-1.513-.007-.419,0-.791.007-1.15.02-.959.033-1.717-.26-2.594-.264-.781-.669-1.361-1.101-1.978-.264-.376-.534-.761-.801-1.23-.086-.148-.171-.3-.254-.445-.511-.91-.995-1.77-1.747-2.39-2.189-1.81-4.842-2.838-7.677-2.98-.25-.013-.501-.02-.748-.02h-.003Z" style="fill:url(#br); stroke:url(#bs); stroke-linejoin:round;"/><path d="M62.026,32.809c-.198,0-.399-.007-.6-.023-1.549-.115-2.647-.709-3.711-1.279l-.122-.066c-.669-.359-1.325-.521-1.958-.679-.771-.191-1.496-.369-2.133-.883-1.592-1.292-2.881-2.953-3.731-4.812-.432-.946-.751-1.945-.953-2.963-.204-1.048-.28-2.126-.224-3.204.086-1.783.521-3.5,1.289-5.099.745-1.543,1.767-2.914,3.042-4.074,1.276-1.157,2.739-2.047,4.347-2.637,1.665-.613,3.415-.88,5.198-.794,1.45.059,2.871.356,4.216.88,1.302.508,2.512,1.213,3.596,2.106.831.679,1.378,1.609,1.954,2.591.049.086.099.168.148.254.241.405.481.761.712,1.108.462.682.897,1.328,1.18,2.175.32.956.313,1.796.31,2.861v.949c.01.511.069.969.125,1.411.102.794.198,1.543-.049,2.38-.508,1.721-1.76,2.752-3.346,4.057-.392.323-.798.656-1.216,1.022-.435.379-.857.765-1.262,1.14-1.094,1.005-2.126,1.955-3.293,2.624-1.134.646-2.268.956-3.527.956h.007ZM61.825,6.352c-3.28,0-6.401,1.206-8.85,3.431-2.611,2.37-4.143,5.613-4.311,9.127-.214,4.186,1.612,8.27,4.881,10.923.623.504,1.345.682,2.106.87.639.158,1.299.323,1.974.686l.122.066c1.058.567,2.149,1.154,3.685,1.269.201.016.399.023.593.023,2.914,0,4.713-1.658,6.78-3.56.405-.372.827-.758,1.262-1.14.422-.366.827-.702,1.216-1.025,1.576-1.299,2.821-2.324,3.322-4.024.244-.824.152-1.533.049-2.353-.056-.445-.115-.903-.125-1.417-.007-.336-.003-.649,0-.949.007-1.058.01-1.892-.306-2.838-.28-.837-.712-1.48-1.173-2.159-.234-.346-.475-.702-.715-1.111-.049-.086-.099-.168-.148-.254-.574-.979-1.117-1.902-1.941-2.574-2.218-1.823-4.905-2.851-7.772-2.97-.217-.01-.432-.016-.646-.016l-.003-.003Z" style="fill:url(#bt); stroke:url(#bu); stroke-linejoin:round;"/><path d="M62.036,32.842c-.178,0-.359-.007-.541-.017-1.638-.105-2.884-.729-3.889-1.229-.623-.313-1.236-.488-1.829-.659-.811-.234-1.576-.455-2.248-.992-1.595-1.282-2.891-2.934-3.751-4.783-.438-.943-.765-1.935-.969-2.953-.211-1.045-.297-2.123-.25-3.197.293-7.321,6.49-13.039,13.811-12.749,1.467.049,2.904.339,4.265.864,1.318.504,2.545,1.216,3.642,2.116.923.755,1.542,1.767,2.195,2.841.201.333.402.636.597.933.504.765.979,1.486,1.282,2.409.346,1.048.353,1.994.359,3.187,0,.214,0,.435.007.666.007.455.043.873.079,1.279.076.847.148,1.645-.112,2.518-.56,1.889-1.915,3.062-3.632,4.549-.25.217-.511.442-.778.676-.257.227-.514.458-.761.682-1.197,1.075-2.324,2.086-3.593,2.808-1.259.715-2.508,1.058-3.883,1.058v-.007ZM61.831,6.319c-7.05,0-12.921,5.587-13.207,12.693-.178,4.179,1.671,8.243,4.947,10.877.662.531,1.421.748,2.225.982.597.171,1.21.349,1.839.666,1.269.633,2.357,1.127,3.863,1.223.181.01.359.016.534.016,3.148,0,5.142-1.79,7.433-3.846.247-.224.504-.452.765-.682.264-.234.524-.458.778-.676,1.707-1.477,3.059-2.647,3.613-4.516.254-.86.188-1.618.109-2.492-.036-.405-.072-.824-.079-1.285,0-.231-.003-.452-.007-.666-.007-1.19-.013-2.129-.356-3.168-.303-.916-.755-1.602-1.276-2.396-.195-.297-.396-.6-.597-.933-.649-1.068-1.266-2.077-2.179-2.825-2.248-1.839-4.967-2.864-7.868-2.963-.178-.007-.359-.01-.534-.01h-.003Z" style="fill:url(#bv); stroke:url(#bw); stroke-linejoin:round;"/><path d="M62.036,32.875c-.155,0-.313-.003-.471-.013-1.602-.082-2.828-.597-3.945-1.117-.56-.26-1.111-.438-1.641-.613-.874-.287-1.694-.557-2.419-1.131-1.599-1.272-2.901-2.917-3.771-4.756-.445-.939-.778-1.928-.989-2.94-.218-1.042-.31-2.116-.274-3.191.234-7.344,6.401-13.128,13.745-12.894,1.483.04,2.937.326,4.318.847,1.335.504,2.574,1.22,3.688,2.123.956.775,1.651,1.826,2.284,2.835.145.227.287.448.425.662.593.916,1.104,1.707,1.444,2.742.389,1.183.399,2.278.415,3.665v.231c.007.379.026.735.046,1.081.053.963.096,1.793-.178,2.723-.29.976-.788,1.856-1.566,2.769-.702.824-1.579,1.605-2.508,2.436l-.218.194c-1.328,1.19-2.584,2.31-3.992,3.121-1.437.827-2.841,1.223-4.38,1.223l-.013.003ZM61.831,6.286c-7.116,0-13.016,5.669-13.244,12.835-.142,4.17,1.73,8.221,5.01,10.831.715.567,1.533.837,2.4,1.121.534.175,1.088.356,1.648.616,1.114.517,2.334,1.028,3.919,1.111.152.007.303.01.452.01,3.507,0,5.857-2.103,8.342-4.324l.217-.194c1.915-1.711,3.431-3.065,4.054-5.172.27-.916.228-1.744.175-2.699-.02-.346-.04-.705-.043-1.084v-.231c-.017-1.381-.03-2.472-.412-3.646-.336-1.025-.844-1.813-1.434-2.726-.138-.214-.28-.435-.425-.662-.63-1.005-1.325-2.05-2.271-2.818-2.278-1.852-5.03-2.874-7.963-2.957-.142-.003-.287-.007-.429-.007l.003-.003Z" style="fill:url(#bx); stroke:url(#by); stroke-linejoin:round;"/><path d="M62.013,32.911c-.125,0-.254,0-.379-.007-1.618-.063-2.93-.544-4.005-1.002-.455-.194-.906-.359-1.341-.514-.976-.353-1.895-.686-2.706-1.322-1.602-1.262-2.91-2.897-3.794-4.727-.448-.933-.788-1.918-1.009-2.93-.227-1.038-.326-2.11-.3-3.184.175-7.258,6.134-13.043,13.356-13.043.109,0,.214,0,.323.003,1.503.03,2.97.31,4.367.831,1.351.504,2.607,1.22,3.734,2.133,1.012.817,1.77,1.889,2.377,2.831.046.072.092.145.138.214.709,1.094,1.318,2.04,1.714,3.253.415,1.272.458,2.485.468,3.939,0,.257.01.508.013.751.026,1.094.049,2.037-.254,3.059-.303,1.025-.824,1.987-1.585,2.947-.732.916-1.645,1.777-2.521,2.568-1.21,1.101-2.535,2.228-4.054,3.036-1.473.784-2.963,1.167-4.545,1.167l.003-.003ZM61.834,6.249c-7.182,0-13.112,5.755-13.283,12.973-.105,4.163,1.79,8.194,5.073,10.781.801.63,1.717.963,2.686,1.312.435.158.887.32,1.345.517,1.068.458,2.373.933,3.978.995.125.003.25.007.372.007,3.639,0,6.22-2.063,8.553-4.186,1.773-1.602,3.418-3.224,4.087-5.481.3-1.012.277-1.951.25-3.039-.007-.244-.013-.494-.013-.751-.013-1.447-.056-2.653-.465-3.916-.392-1.203-.999-2.146-1.704-3.237-.046-.072-.092-.142-.138-.214-.603-.936-1.355-2.001-2.36-2.815-2.307-1.869-5.092-2.887-8.059-2.947-.109,0-.214-.003-.323-.003v.003Z" style="fill:url(#bz); stroke:url(#ca); stroke-linejoin:round;"/><path d="M61.99,32.944c-.096,0-.191,0-.287-.003-1.322-.036-2.614-.317-4.061-.89-.25-.099-.504-.194-.748-.287-1.187-.452-2.307-.877-3.286-1.642-1.602-1.252-2.92-2.877-3.813-4.697-.455-.93-.801-1.912-1.028-2.92-.234-1.038-.343-2.106-.326-3.177.119-7.387,6.223-13.303,13.61-13.184,1.52.02,3.006.293,4.42.814,1.368.501,2.64,1.223,3.781,2.142.867.695,1.648,1.595,2.465,2.825.84,1.269,1.44,2.301,1.839,3.53.359,1.117.511,2.271.521,3.982v.076c.01,1.355.016,2.522-.346,3.741-.313,1.061-.817,2.057-1.539,3.042-.61.834-1.378,1.665-2.416,2.617-1.454,1.342-2.756,2.271-4.1,2.927-1.523.745-3.059,1.108-4.687,1.108l.003-.003ZM61.835,6.216c-7.251,0-13.208,5.841-13.323,13.115-.073,4.216,1.8,8.128,5.139,10.735.969.755,2.086,1.18,3.266,1.632.244.092.498.188.748.287,1.44.567,2.723.85,4.038.883.092,0,.185.003.277.003,3.886,0,6.708-2.139,8.748-4.018,1.539-1.414,3.214-3.184,3.936-5.623.359-1.206.349-2.37.343-3.718v-.076c-.01-1.701-.161-2.848-.518-3.959-.396-1.223-.992-2.248-1.829-3.51-.811-1.223-1.592-2.116-2.449-2.808-2.337-1.882-5.155-2.901-8.154-2.94h-.214l-.007-.003Z" style="fill:url(#cb); stroke:url(#cc); stroke-linejoin:round;"/><path d="M61.93,32.981h-.158c-1.375-.02-2.723-.274-4.12-.775-1.368-.491-2.802-1.078-4.018-2.021-1.605-1.243-2.933-2.858-3.833-4.67-.462-.926-.814-1.905-1.048-2.907-.241-1.035-.359-2.1-.349-3.171.013-1.81.386-3.566,1.098-5.218.689-1.595,1.671-3.023,2.917-4.249,1.246-1.226,2.69-2.182,4.295-2.848,1.661-.689,3.421-1.032,5.234-1.015,1.536.01,3.039.277,4.469.798,1.384.501,2.67,1.226,3.827,2.152.939.752,1.773,1.674,2.555,2.818.867,1.272,1.447,2.413,1.823,3.593.389,1.21.57,2.492.574,4.024.007,1.602-.129,2.746-.448,3.823-.623,2.096-1.866,3.995-3.807,5.801-2.746,2.568-5.778,3.87-9.012,3.87l.003-.007ZM61.838,6.18c-3.524,0-6.846,1.361-9.368,3.843-2.548,2.508-3.965,5.851-3.992,9.414-.036,4.206,1.859,8.102,5.201,10.689,1.21.936,2.637,1.52,3.998,2.011,1.388.501,2.729.752,4.094.771h.158c3.217,0,6.23-1.295,8.962-3.847,1.928-1.796,3.167-3.685,3.784-5.768.316-1.071.451-2.208.445-3.8-.003-1.526-.185-2.798-.57-4.001-.376-1.173-.953-2.307-1.816-3.573-.778-1.14-1.608-2.057-2.541-2.802-2.367-1.899-5.218-2.91-8.25-2.93h-.109l.003-.007Z" style="fill:url(#cd); stroke:url(#ce); stroke-linejoin:round;"/><path d="M61.841,33.02c-7.433,0-13.478-6.045-13.478-13.478s6.045-13.478,13.478-13.478,13.478,6.045,13.478,13.478-6.045,13.478-13.478,13.478ZM61.841,6.144c-7.39,0-13.402,6.012-13.402,13.402s6.012,13.402,13.402,13.402,13.402-6.012,13.402-13.402-6.012-13.402-13.402-13.402Z" style="fill:url(#cf); stroke:url(#cg); stroke-linejoin:round;"/></g></g></svg>