<svg width="951" height="293" viewBox="0 0 951 293" fill="none" xmlns="http://www.w3.org/2000/svg">
<path d="M903.195 169.155C903.195 165.003 901.949 162.927 899.043 162.927H894.891V291.639H853.371V0.999985H899.458C929.768 0.999985 944.715 13.4559 944.715 42.5198V101.478C944.715 126.39 943.054 138.431 927.276 143.828V144.659C943.054 149.641 944.715 162.097 944.715 187.009V253.441C944.715 272.124 945.13 277.937 949.697 290.808V291.639H906.932C904.025 280.428 903.195 272.955 903.195 253.856V169.155ZM903.195 44.5958C903.195 40.4438 901.949 38.3678 899.043 38.3678H894.891V125.559H899.043C901.949 125.559 903.195 123.483 903.195 119.331V44.5958Z" fill="black" fill-opacity="0.9"/>
<path d="M824.242 0.999985V38.3678H807.635V123.899H822.166V161.267H807.635V254.271H826.318V291.639H766.115V0.999985H824.242Z" fill="black" fill-opacity="0.9"/>
<path d="M739.143 0.999985V38.3678H718.383V291.639H676.863V38.3678H656.103V0.999985H739.143Z" fill="black" fill-opacity="0.9"/>
<path d="M631.208 0.999985V38.3678H610.448V291.639H568.928V38.3678H548.168V0.999985H631.208Z" fill="black" fill-opacity="0.9"/>
<path d="M521.115 0.999985V38.3678H504.507V123.899H519.039V161.267H504.507V254.271H523.191V291.639H462.988V0.999985H521.115Z" fill="black" fill-opacity="0.9"/>
<path d="M376.947 0.999985H418.467V254.271H435.906V291.639H376.947V0.999985Z" fill="black" fill-opacity="0.9"/>
<path d="M289.756 0.999985V38.3678H273.148V123.899H287.68V161.267H273.148V254.271H291.832V291.639H231.628V0.999985H289.756Z" fill="black" fill-opacity="0.9"/>
<path d="M202.467 0.999985V291.639H160.947V165.419H152.643V291.639H111.123V0.999985H152.643V128.051H160.947V0.999985H202.467Z" fill="black" fill-opacity="0.9"/>
<path d="M84.1515 0.999985V38.3678H63.3916V291.639H21.8718V38.3678H1.11188V0.999985H84.1515Z" fill="black" fill-opacity="0.9"/>
<path d="M902.195 119.331V44.5957C902.195 42.5821 901.885 41.2626 901.37 40.4697C900.911 39.7629 900.218 39.3682 899.043 39.3682H895.891V124.56H899.043L899.043 125.559H894.891V38.3678H899.043C901.949 38.3678 903.195 40.4438 903.195 44.5958V119.331L903.191 119.715C903.116 123.611 901.859 125.559 899.043 125.559L899.043 124.56C900.218 124.56 900.911 124.164 901.37 123.457C901.885 122.664 902.195 121.345 902.195 119.331ZM950.697 292.639H906.158L905.964 291.89C903.028 280.567 902.195 273 902.195 253.855V169.155C902.195 167.142 901.885 165.822 901.37 165.029C900.911 164.322 900.218 163.927 899.043 163.927H895.891V292.639H852.371V0H899.458L899.458 0.999985H853.371V291.639H894.891V162.927H899.043C901.949 162.927 903.195 165.003 903.195 169.155V253.856L903.205 257.305C903.3 272.797 904.091 280.124 906.411 289.577L906.932 291.639H949.697V290.808C945.415 278.742 944.783 272.879 944.721 256.798L944.715 253.441V187.009C944.715 162.097 943.054 149.641 927.276 144.659V143.828C942.561 138.599 944.598 127.136 944.71 103.775L944.715 101.478V42.5198C944.715 13.9103 930.231 1.39307 900.868 1.00879L899.458 0.999985L899.458 0C914.722 0 926.33 3.13173 934.12 10.1162C941.934 17.1215 945.715 27.8259 945.715 42.5195V101.478C945.715 113.905 945.308 123.316 942.855 130.302C941.619 133.823 939.856 136.756 937.35 139.159C935.164 141.255 932.448 142.915 929.1 144.225C932.445 145.454 935.161 147.071 937.347 149.149C939.857 151.536 941.621 154.485 942.856 158.031C945.309 165.068 945.715 174.581 945.715 187.009V253.44C945.715 262.789 945.82 268.853 946.485 274.18C947.148 279.482 948.371 284.08 950.64 290.474L950.697 290.636V292.639Z" fill="#007606"/>
<path d="M826.318 254.271H807.635V161.267H822.166V123.899H807.635V38.3678H824.242V0.999985H766.115V291.639H826.318V254.271ZM825.242 39.3682H808.635V122.898H823.166V162.267H808.635V253.271H827.318V292.639H765.114V0H825.242V39.3682Z" fill="#007606"/>
<path d="M739.143 38.3678V0.999985H656.103V38.3678H676.863V291.639H718.383V38.3678H739.143ZM740.143 39.3682H719.383V292.639H675.863V39.3682H655.104V0H740.143V39.3682Z" fill="#007606"/>
<path d="M631.208 38.3678V0.999985H548.168V38.3678H568.928V291.639H610.448V38.3678H631.208ZM632.208 39.3682H611.448V292.639H567.928V39.3682H547.168V0H632.208V39.3682Z" fill="#007606"/>
<path d="M523.191 254.271H504.507V161.267H519.039V123.899H504.507V38.3678H521.115V0.999985H462.988V291.639H523.191V254.271ZM522.115 39.3682H505.508V122.898H520.039V162.267H505.508V253.271H524.191V292.639H461.987V0H522.115V39.3682Z" fill="#007606"/>
<path d="M435.906 254.271H418.467V0.999985H376.947V291.639H435.906V254.271ZM419.467 253.271H436.905V292.639H375.947V0H419.467V253.271Z" fill="#007606"/>
<path d="M291.832 254.271H273.148V161.267H287.68V123.899H273.148V38.3678H289.756V0.999985H231.628V291.639H291.832V254.271ZM290.756 39.3682H274.147V122.898H288.68V162.267H274.147V253.271H292.832V292.639H230.628V0H290.756V39.3682Z" fill="#007606"/>
<path d="M152.643 0.999985H111.123V291.639H152.643V165.419H160.947V291.639H202.467V0.999985H160.947V128.051H152.643V0.999985ZM203.467 292.639H159.947V166.418H153.643V292.639H110.123V0H153.643V127.051H159.947V0H203.467V292.639Z" fill="#007606"/>
<path d="M84.1515 38.3678V0.999985H1.11188V38.3678H21.8718V291.639H63.3916V38.3678H84.1515ZM85.1514 39.3682H64.3916V292.639H20.8721V39.3682H0.112305V0H85.1514V39.3682Z" fill="#007606"/>
</svg>
