<svg width="80" height="80" viewBox="0 0 80 80" fill="none" xmlns="http://www.w3.org/2000/svg">
<path d="M39.5168 79.0336C61.3413 79.0336 79.0336 61.3413 79.0336 39.5168C79.0336 17.6923 61.3413 -5.25688e-07 39.5168 -3.38654e-07C17.6923 -1.51621e-07 1.51621e-07 17.6923 3.38654e-07 39.5168C5.25688e-07 61.3413 17.6923 79.0336 39.5168 79.0336Z" fill="url(#paint0_linear_1_466)"/>
<path d="M39.5168 71.5462C57.2062 71.5462 71.5462 57.2062 71.5462 39.5168C71.5462 21.8275 57.2062 7.48743 39.5168 7.48743C21.8275 7.48743 7.48743 21.8275 7.48743 39.5168C7.48743 57.2062 21.8275 71.5462 39.5168 71.5462Z" fill="white"/>
<path fill-rule="evenodd" clip-rule="evenodd" d="M77.6188 29L59 29L59 52L77.0214 52C78.3268 48.0762 79.0336 43.8791 79.0336 39.5168C79.0336 35.8752 78.541 32.3486 77.6188 29Z" fill="white"/>
<path d="M41.4513 43.5529L48.0226 41.7581C48.0226 41.7581 53.1119 38.0659 54.7807 36.9499C55.1191 36.7233 55.5604 36.7214 55.9008 36.9451L55.9746 36.9938C56.5642 37.3813 56.5878 38.2375 56.0201 38.6568L49.0825 43.5094L41.4509 43.5533L41.4513 43.5529Z" fill="black" stroke="white" stroke-width="1.17772" stroke-miterlimit="10"/>
<path d="M42.9332 44.0366L51.4077 41.722C51.4077 41.722 57.9707 36.9609 60.1228 35.5213C60.5594 35.2292 61.1282 35.2269 61.5671 35.515L61.6625 35.5774C62.4229 36.0768 62.4535 37.1811 61.7214 37.7217L52.775 43.9797L42.9336 44.0362L42.9332 44.0366Z" fill="black" stroke="white" stroke-width="1.17772" stroke-miterlimit="10"/>
<path d="M44.805 44.9081L54.416 42.283C54.416 42.283 61.8596 36.8831 64.3002 35.2504C64.7952 34.9191 65.4406 34.9163 65.9384 35.2434L66.0464 35.3144C66.9088 35.8809 66.9434 37.1336 66.1131 37.7464L55.9663 44.8437L44.8046 44.9081L44.805 44.9081Z" fill="black" stroke="white" stroke-width="1.17772" stroke-miterlimit="10"/>
<path d="M18.4316 47.1552L29.7644 36.4521C30.1444 36.0933 30.6473 35.8931 31.1702 35.8931L42.8669 35.8931C44.0018 35.8931 44.9299 36.8215 44.9299 37.956C44.9299 39.0592 44.045 39.9578 42.9423 39.9754L37.9401 40.0539C36.8358 40.0712 35.9455 40.9639 35.9309 42.0682L35.9207 42.8471C35.9058 43.9887 36.8272 44.9222 37.9688 44.9222L55.4398 44.9222C55.8399 44.9222 56.2313 44.8052 56.5654 44.5854L68.2644 36.891C69.13 36.3217 70.2846 36.4886 70.9532 37.28L71.3579 37.7593C72.092 38.6277 71.9774 39.9279 71.1031 40.655L55.4402 53.6774C55.1364 53.9298 54.7662 54.0892 54.374 54.1359L30.1 57.0331C29.6725 57.0841 29.2721 57.2686 28.9553 57.5603L24.3222 61.8296C23.4122 62.6681 21.9718 62.5142 21.2597 61.5022L14.374 51.7196C13.6245 50.655 14.0458 49.1707 15.2423 48.658L17.8325 47.5489C18.0539 47.4539 18.2573 47.3209 18.4324 47.1552L18.4316 47.1552Z" fill="black" stroke="white" stroke-width="0.863661" stroke-miterlimit="10"/>
<path d="M38.4274 28.8548C41.9772 28.8548 44.8548 25.9772 44.8548 22.4274C44.8548 18.8776 41.9772 16 38.4274 16C34.8776 16 32 18.8776 32 22.4274C32 25.9772 34.8776 28.8548 38.4274 28.8548Z" fill="#F8176D"/>
<defs>
<linearGradient id="paint0_linear_1_466" x1="-1.23944e-08" y1="10" x2="39.5168" y2="79.0336" gradientUnits="userSpaceOnUse">
<stop stop-color="#FE6846"/>
<stop offset="1" stop-color="#8536DA"/>
</linearGradient>
</defs>
</svg>
