<svg width="240" height="105" viewBox="0 0 240 105" fill="none" xmlns="http://www.w3.org/2000/svg">
<path d="M239.845 0.359375V58.4559H223.4V19.469L198.53 46.7121H195.285L157.068 2.26826V0.359375H175.702L196.908 25.5898L223.4 0.359375H239.845Z" fill="black"/>
<path d="M145.054 0.359375C155.346 0.359375 160.948 5.96153 160.948 16.2944V42.5208C160.948 52.8537 155.346 58.4559 145.054 58.4559H84.6754V45.3841H141.693C145.801 45.3841 146.424 44.7617 146.424 40.6534V18.1618C146.424 14.0535 145.801 13.4311 141.693 13.4311H84.6754V0.359375H145.054Z" fill="black"/>
<path d="M16.0903 58.4559C5.79892 58.4559 0.155258 52.8537 0.155258 42.5208V0.359375H14.6794V40.6534C14.6794 44.7617 15.3018 45.3841 19.4101 45.3841H63.0654C67.1737 45.3841 67.7962 44.7617 67.7962 40.6534V0.359375H82.3203V42.5208C82.3203 52.8537 76.7181 58.4559 66.4268 58.4559H16.0903Z" fill="black"/>
<path d="M8.99953 98.7679C5.65027 98.7679 2.63337 97.0294 2.63337 91.149V79.7973H4.16739V91.0723C4.16739 95.93 6.41727 97.3873 8.99953 97.3873C11.6329 97.3873 13.9339 95.93 13.9339 91.0723V79.7973H15.3912V91.149C15.3912 97.0294 12.3488 98.7679 8.99953 98.7679ZM21.3503 98.4355V84.8084H22.5775L22.7565 86.8793H22.8076C24.1882 85.5243 25.5944 84.4505 27.4608 84.4505C30.2987 84.4505 31.6026 86.2146 31.6026 89.7172V98.4355H30.1198V89.9218C30.1198 87.0839 29.2249 85.7799 27.1284 85.7799C25.5433 85.7799 24.4183 86.5981 22.8332 88.2344V98.4355H21.3503ZM37.2727 98.4355V84.8084H38.7556V98.4355H37.2727ZM38.0397 81.6125C37.3494 81.6125 36.7869 81.1268 36.7869 80.4365C36.7869 79.6695 37.3494 79.2093 38.0397 79.2093C38.7044 79.2093 39.2925 79.6695 39.2925 80.4365C39.2925 81.1268 38.7044 81.6125 38.0397 81.6125ZM53.4779 104.52V99.3304L53.5802 96.6714C52.3785 97.8475 50.8956 98.7679 49.1315 98.7679C45.7056 98.7679 43.4813 96.2112 43.4813 91.6348C43.4813 87.2373 46.2936 84.4505 49.515 84.4505C51.1513 84.4505 52.2763 85.0641 53.529 86.0867H53.5802L53.7591 84.8084H54.9608V104.52H53.4779ZM49.3872 97.464C50.8445 97.464 52.1229 96.7226 53.4779 95.3164V87.4418C52.0973 86.2146 50.9468 85.7544 49.6684 85.7544C47.0606 85.7544 45.0664 88.2855 45.0664 91.6348C45.0664 95.163 46.626 97.464 49.3872 97.464ZM64.7649 98.7679C61.927 98.7679 60.6486 97.0294 60.6486 93.5267V84.8084H62.1315V93.3477C62.1315 96.1345 63.0008 97.4384 65.0972 97.4384C66.6824 97.4384 67.8073 96.6203 69.3414 94.7795V84.8084H70.8242V98.4355H69.5715L69.4436 96.1857H69.3669C68.0374 97.7197 66.6568 98.7679 64.7649 98.7679ZM81.9163 98.7679C78.4136 98.7679 75.5757 96.109 75.5757 91.6348C75.5757 87.2117 78.4647 84.4505 81.5583 84.4505C84.8565 84.4505 86.8251 86.8026 86.8251 90.791C86.8251 91.1746 86.7995 91.5325 86.7484 91.8649H77.0841C77.1608 95.1886 79.1295 97.5151 82.0697 97.5151C83.527 97.5151 84.6775 97.0549 85.7002 96.3391L86.2626 97.4384C85.1633 98.1287 83.8849 98.7679 81.9163 98.7679ZM77.0841 90.6888H85.4701C85.4701 87.3907 83.9616 85.7288 81.5839 85.7288C79.3596 85.7288 77.3654 87.5696 77.0841 90.6888ZM97.8129 98.4355V79.7973H102.21C107.937 79.7973 110.75 83.3511 110.75 89.0525C110.75 94.7539 107.937 98.4355 102.236 98.4355H97.8129ZM99.3469 97.1316H102.057C106.966 97.1316 109.139 93.8846 109.139 89.0525C109.139 84.2204 106.966 81.0756 102.057 81.0756H99.3469V97.1316ZM118.621 98.7679C116.422 98.7679 114.658 97.5407 114.658 95.0096C114.658 91.9927 117.343 90.5609 123.351 89.8706C123.402 87.8509 122.814 85.7544 120.232 85.7544C118.442 85.7544 116.883 86.5981 115.937 87.314L115.272 86.2401C116.32 85.5243 118.212 84.4505 120.436 84.4505C123.683 84.4505 124.834 86.7771 124.834 89.7939V98.4355H123.581L123.428 96.697H123.377C121.996 97.8219 120.36 98.7679 118.621 98.7679ZM118.928 97.5151C120.436 97.5151 121.74 96.7993 123.351 95.3931V90.97C117.982 91.5836 116.141 92.8364 116.141 94.9329C116.141 96.7993 117.419 97.5151 118.928 97.5151ZM133.864 98.7679C131.179 98.7679 130.361 97.0805 130.361 94.5494V86.0612H128.239V84.9362L130.412 84.8084L130.591 80.8711H131.844V84.8084H135.756V86.0612H131.844V94.6516C131.844 96.3646 132.304 97.4896 134.119 97.4896C134.631 97.4896 135.295 97.3106 135.781 97.1061L136.139 98.2566C135.346 98.5378 134.477 98.7679 133.864 98.7679ZM142.177 98.7679C139.978 98.7679 138.214 97.5407 138.214 95.0096C138.214 91.9927 140.898 90.5609 146.906 89.8706C146.958 87.8509 146.37 85.7544 143.787 85.7544C141.998 85.7544 140.438 86.5981 139.492 87.314L138.827 86.2401C139.876 85.5243 141.768 84.4505 143.992 84.4505C147.239 84.4505 148.389 86.7771 148.389 89.7939V98.4355H147.137L146.983 96.697H146.932C145.551 97.8219 143.915 98.7679 142.177 98.7679ZM142.483 97.5151C143.992 97.5151 145.296 96.7993 146.906 95.3931V90.97C141.537 91.5836 139.697 92.8364 139.697 94.9329C139.697 96.7993 140.975 97.5151 142.483 97.5151ZM160.497 98.4355V79.7973H162.542L166.377 90.5098L167.834 94.6005H167.937C168.422 93.2455 168.857 91.8649 169.317 90.5098L173.152 79.7973H175.198V98.4355H173.74V86.6236C173.74 85.0896 173.843 83.0443 173.919 81.4847H173.817L172.36 85.6521L168.448 96.4413H167.221L163.283 85.6521L161.826 81.4847H161.724C161.801 83.0443 161.903 85.0896 161.903 86.6236V98.4355H160.497ZM181.234 98.4355V84.8084H182.717V98.4355H181.234ZM182.001 81.6125C181.311 81.6125 180.748 81.1268 180.748 80.4365C180.748 79.6695 181.311 79.2093 182.001 79.2093C182.666 79.2093 183.254 79.6695 183.254 80.4365C183.254 81.1268 182.666 81.6125 182.001 81.6125ZM188.568 98.4355V84.8084H189.795L189.974 86.8793H190.025C191.406 85.5243 192.812 84.4505 194.678 84.4505C197.516 84.4505 198.82 86.2146 198.82 89.7172V98.4355H197.337V89.9218C197.337 87.0839 196.442 85.7799 194.346 85.7799C192.761 85.7799 191.636 86.5981 190.051 88.2344V98.4355H188.568ZM204.49 98.4355V84.8084H205.973V98.4355H204.49ZM205.257 81.6125C204.567 81.6125 204.004 81.1268 204.004 80.4365C204.004 79.6695 204.567 79.2093 205.257 79.2093C205.922 79.2093 206.51 79.6695 206.51 80.4365C206.51 81.1268 205.922 81.6125 205.257 81.6125ZM211.824 98.4355V84.8084H213.051L213.23 86.8793H213.281C214.661 85.5243 216.068 84.4505 217.934 84.4505C220.772 84.4505 222.076 86.2146 222.076 89.7172V98.4355H220.593V89.9218C220.593 87.0839 219.698 85.7799 217.602 85.7799C216.017 85.7799 214.892 86.5981 213.306 88.2344V98.4355H211.824ZM232.22 104.93C228.82 104.93 226.595 103.498 226.595 101.197C226.595 99.9951 227.388 98.7935 228.641 97.9498V97.8219C227.95 97.4129 227.414 96.697 227.414 95.6232C227.414 94.4471 228.308 93.5523 228.922 93.0921V92.9898C228.053 92.2739 227.183 90.9189 227.183 89.2826C227.183 86.4447 229.382 84.4505 232.067 84.4505C232.808 84.4505 233.447 84.6294 233.882 84.8084H238.535V86.0356H235.467C236.285 86.7515 236.873 87.9276 236.873 89.3082C236.873 92.1205 234.751 94.1147 232.067 94.1147C231.325 94.1147 230.482 93.9102 229.868 93.5523C229.28 94.0125 228.794 94.5749 228.794 95.4442C228.794 96.4158 229.382 97.1572 231.351 97.1572H234.214C237.308 97.1572 238.765 98.1287 238.765 100.302C238.765 102.68 236.209 104.93 232.22 104.93ZM232.067 92.9898C233.856 92.9898 235.442 91.5069 235.442 89.2826C235.442 87.0327 233.908 85.6521 232.067 85.6521C230.2 85.6521 228.666 87.0327 228.666 89.2826C228.666 91.5069 230.251 92.9898 232.067 92.9898ZM232.399 103.805C235.365 103.805 237.282 102.143 237.282 100.506C237.282 99.0492 236.209 98.5122 234.189 98.5122H231.402C231.095 98.5122 230.379 98.4355 229.689 98.2821C228.513 99.1003 228.002 100.097 228.002 101.018C228.002 102.68 229.612 103.805 232.399 103.805Z" fill="black"/>
</svg>
