<svg width="156" height="50" viewBox="0 0 156 50" fill="none" xmlns="http://www.w3.org/2000/svg">
<path d="M89.9636 17.0442C89.5815 17.0634 89.415 16.3064 88.8712 16.2717C86.823 16.1543 82.0092 22.3695 80.0317 26.7138C79.6592 27.5307 79.4951 28.0493 79.2447 28.7644C78.8052 30.1274 78.3644 32.0954 78.0266 33.5806C77.9224 34.0322 78.5021 34.2502 79.3022 34.3041C79.5897 34.3208 79.7562 34.4406 79.761 34.5352C79.7694 34.6945 79.555 34.958 79.0771 34.9832C77.932 35.0419 74.4657 34.9209 73.2559 34.9832C72.9696 34.9976 72.869 34.9077 72.8642 34.8119C72.8559 34.6526 73.1325 34.4466 73.511 34.3639C74.395 34.1903 74.7723 34.1951 74.9687 33.674C75.6383 31.8211 76.2204 29.4938 76.66 28.1308C76.7151 27.9679 76.7043 27.7463 76.7258 27.5534C76.7199 26.8204 76.515 25.9377 76.2875 25.2477C75.7413 23.3301 74.8501 20.8879 74.153 19.1367C73.9338 18.6061 73.4116 18.3773 72.548 18.3258C72.2606 18.3091 72.0605 18.1594 72.0857 18.0312C72.0773 17.8719 72.2618 17.7353 72.6438 17.715C73.1529 17.6886 74.2345 17.6323 75.1568 17.5844C76.079 17.5365 76.9067 17.4934 76.9079 17.5257C77.4122 19.2541 78.5512 22.7684 79.0531 24.4656C79.1645 24.7782 79.2364 24.9351 79.2998 24.9315C79.3633 24.9279 79.4508 24.7638 79.6268 24.468C83.4405 18.018 84.5389 16.4298 88.9538 15.4356C90.1828 15.1494 90.6583 15.6979 90.6499 16.1459C90.6631 16.401 90.3445 17.0227 89.9624 17.043L89.9636 17.0442Z" fill="#1B1B2E"/>
<path d="M104.261 18.4256C103.409 18.7645 102.456 18.913 101.564 18.9346C100.546 18.9897 99.6512 18.9154 99.0127 18.8663C98.5983 18.8436 98.5396 19.0688 98.4486 19.2616C97.2269 22.9232 94.7259 30.5014 93.8731 33.6121C93.7557 34.0612 94.2684 34.2648 95.1631 34.3714C95.5153 34.4265 95.6135 34.5523 95.5524 34.6817C95.5237 34.8098 95.3033 34.9823 94.8888 34.9919C93.7102 35.0194 90.59 34.9643 89.3791 34.9919C89.0605 34.9991 88.9299 34.8745 88.9587 34.7463C89.0186 34.5858 89.2701 34.4205 89.6199 34.381C90.5098 34.2648 90.9206 34.1283 91.1003 33.6132C92.1795 30.6883 94.6289 23.5891 95.9884 19.0005C96.0171 18.8723 96.0447 18.6807 95.6614 18.6256C94.2876 18.4663 93.2335 18.3633 92.437 18.3812C91.2907 18.4076 90.6595 18.6771 90.2619 19.3874C89.8953 20.0653 89.4282 20.5217 89.0437 20.4678C88.8832 20.4402 88.7862 20.3779 88.6568 20.2534C88.5263 20.0976 88.4592 19.9707 88.4868 19.8114C88.5359 19.173 89.4102 18.4196 90.7362 17.847C92.219 17.1751 93.3593 16.926 94.5714 16.9295C95.5272 16.908 96.5501 17.0433 97.8282 17.1727C99.8727 17.4122 101.602 17.7548 102.685 17.7297C103.386 17.7129 103.987 17.5404 104.33 17.1811C104.827 16.6277 105.135 16.175 105.517 16.1342C105.675 16.0983 105.804 16.1594 105.935 16.2839C106.033 16.3774 106.038 16.6002 105.979 16.8253C105.864 17.338 105.432 17.9536 104.264 18.4268L104.261 18.4256Z" fill="#1B1B2E"/>
<path d="M124.91 20.6301C124.591 20.6301 124.272 20.4708 124.209 20.1198C124.145 19.6096 124.336 19.1317 123.508 18.3998C123.03 17.9543 122.266 17.7303 121.31 17.6992C118.157 17.6357 113.218 20.0252 111.529 25.9506C111.338 26.5554 111.243 27.1292 111.211 27.6706C110.956 31.1429 113.249 33.5648 116.435 33.5959C118.22 33.5959 120.259 32.8952 122.33 31.2064C122.681 30.9201 123.03 30.8554 123.03 30.9836C123.094 31.1106 122.934 31.398 122.425 31.8124C119.877 33.9157 116.882 34.9662 114.301 34.9985C111.019 35.0308 108.439 33.4055 108.343 30.1871C108.311 29.8361 108.311 29.454 108.343 29.1043C108.63 23.4017 113.09 18.4957 119.176 16.9973C120.228 16.7421 121.214 16.6152 122.139 16.6152C124.56 16.5828 126.345 17.4117 126.312 18.7819C126.249 19.515 125.771 20.6301 124.911 20.6301H124.91Z" fill="#1B1B2E"/>
<path d="M131.536 31.7816C129.656 33.2477 127.968 34.2981 126.152 34.6167C124.654 34.8718 124.048 33.8525 124.048 32.3553C124.081 29.7106 126.024 25.6011 128.54 24.2943C130.165 23.4655 131.726 22.9876 133.16 22.7648C134.467 22.5731 135.071 23.402 135.071 24.6764C135.104 26.8109 133.574 30.1886 131.534 31.7816H131.536ZM131.471 24.0404C130.93 23.9446 130.674 24.0404 130.164 24.359C128.604 25.3472 126.627 28.9465 126.596 31.1456C126.564 32.1649 126.947 32.8979 127.966 32.9614C128.604 32.9937 128.954 32.7063 129.559 32.2607C131.407 30.9228 132.49 27.8325 132.459 25.8886C132.427 24.8693 132.108 24.1362 131.471 24.0404Z" fill="#1B1B2E"/>
<path d="M141.029 32.3226C139.595 33.4701 137.811 34.5205 136.569 34.5205C135.868 34.5205 135.421 34.1696 135.421 33.2785C135.421 32.7682 135.581 32.0999 135.899 31.2075C136.504 29.551 138.225 26.3649 138.544 24.8989C138.671 24.2617 138.448 24.1024 138.066 24.1024C137.874 24.1024 137.556 24.1347 137.142 24.2617C136.887 24.3251 136.791 24.1658 136.791 24.0389C136.791 23.9119 136.887 23.7526 137.047 23.7203C137.97 23.4652 139.659 23.0196 140.582 22.8279C141.156 22.701 141.379 23.0196 141.379 23.4652C141.379 23.8161 141.156 24.7396 140.615 25.8858C139.818 27.5747 139.118 28.8168 138.417 30.6014C138.066 31.4938 137.907 32.1945 137.907 32.5131C137.907 32.864 138.098 33.1503 138.385 33.1503C138.926 33.1503 140.041 32.4173 140.933 31.7166C141.826 31.0159 142.335 30.7284 142.526 30.7284C142.559 30.7284 142.59 30.7284 142.59 30.7608C142.59 30.8877 142.08 31.4938 141.029 32.3214V32.3226Z" fill="#1B1B2E"/>
<circle cx="140.5" cy="19.5" r="1.5" fill="#1B1B2E"/>
<path d="M155.423 32.3226C154.181 33.3419 152.077 34.5852 150.772 34.5528C149.975 34.5528 149.465 34.1384 149.497 33.0868C149.497 32.4495 149.624 31.9716 149.879 31.2075C150.421 29.5509 151.186 27.9579 151.918 26.6512C152.269 26.0463 152.459 25.4402 152.428 25.1216C152.428 24.8988 152.332 24.803 152.11 24.803C151.855 24.803 151.472 24.9623 150.931 25.2809C149.242 26.2691 146.407 29.1042 144.91 32.8316C144.783 33.1826 144.718 33.3419 144.624 33.5323C144.178 33.8509 142.998 34.2019 142.298 34.584C141.947 34.7756 142.138 34.1061 142.171 33.9791C142.681 32.2591 145.643 26.747 145.835 24.7719C145.93 23.943 145.42 23.8484 144.433 24.3574C144.115 24.5491 143.955 24.3574 143.955 24.2305C143.955 24.167 144.051 24.1035 144.147 24.0388C145.07 23.4974 146.281 23.083 146.887 22.8602C147.079 22.7967 147.27 22.7644 147.398 22.7644C148.321 22.7321 148.48 23.7837 147.525 26.3325C147.398 26.6511 147.492 26.747 147.62 26.6512C149.628 25.1216 151.667 23.6879 153.323 23.1788C153.705 23.0519 154.024 23.0195 154.279 23.0195C155.043 23.0195 155.235 23.4974 155.235 24.0388C155.235 24.4532 155.108 24.8988 155.012 25.2174C154.407 27.0656 153.292 28.8179 152.655 30.6014C152.017 32.4172 152.177 33.0868 152.751 33.1179C153.324 33.1502 154.376 32.4483 155.331 31.7477C155.713 31.4614 156 31.4614 156 31.6207C156 31.78 155.841 32.0028 155.426 32.3214L155.423 32.3226Z" fill="#1B1B2E"/>
<path d="M69.55 21.5855C68.6014 22.5341 67.0958 23.1474 65.7291 23.7331C67.9606 24.4302 69.8566 26.4664 69.8566 28.8367C69.8566 30.2034 69.2146 31.7102 67.5689 33.1044C65.3099 35.0005 62.7731 35.67 60.011 35.67C57.3903 35.67 54.5456 35.0556 51.5895 34.3872C51.338 34.3321 51.0313 34.2195 50.8086 34.2195C50.7535 34.2195 50.6972 34.2471 50.6421 34.2746C50.4744 34.4147 50.3354 34.4698 50.1953 34.4698C50.0839 34.4698 50.0001 34.4147 50.0001 34.3022C50.0001 34.2183 50.0276 34.1357 50.1115 34.0243C50.6421 33.2984 51.4218 32.8529 52.3429 32.8529C52.6783 32.8529 53.04 32.908 53.4029 33.0205C53.7371 33.1319 53.9323 33.2158 54.1 33.2158C54.2677 33.2158 54.3791 33.1044 54.6294 32.9092C56.0799 31.6551 57.2238 28.6703 59.9284 22.1448C61.0998 19.3289 62.264 15.1343 65.1075 15.3571C65.4429 15.3846 65.5818 15.496 65.5818 15.5811C65.5818 15.72 65.3866 15.8589 65.08 15.8589C64.7446 15.8589 64.4116 16.1943 64.1313 16.5848C63.0437 18.0065 59.8158 27.6677 58.0035 30.3447C56.7758 32.157 55.8008 33.0493 54.9912 33.3559C54.9073 33.3835 54.8798 33.4398 54.8798 33.4961C54.8798 33.5524 54.9073 33.6075 55.0187 33.635C56.3015 34.1093 58.17 34.8627 60.2613 34.8627C61.7118 34.8627 63.2737 34.4998 64.8069 33.4122C66.564 32.1582 67.2335 30.5675 67.2335 29.0619C67.2335 26.8868 65.8393 24.9057 64.1936 24.4326C63.7193 24.2936 63.2174 24.2373 62.7994 24.2373C62.6042 24.2373 62.4089 24.2373 62.2412 24.2649C62.1287 24.2924 62.1011 24.2098 62.1011 24.1535C62.1011 23.9295 62.4916 23.3725 62.7156 23.3725C64.862 23.3725 66.5364 23.2336 67.9306 21.3088C68.2936 20.8069 68.4601 20.2212 68.4601 19.6079C68.4601 17.3202 66.0621 14.6707 61.3765 14.6707C57.8622 14.6707 55.6871 16.0661 54.5432 17.0974C53.2328 18.2688 52.4794 19.6906 52.4794 21.0572C52.4794 21.5867 52.5908 22.0885 52.8136 22.5628C52.8687 22.6742 52.8975 22.7868 52.8975 22.8695C52.8975 22.9809 52.8412 23.036 52.7573 23.036C52.6184 23.036 52.3944 22.9246 52.1165 22.7006C51.4745 22.1987 51.1403 21.4741 51.1403 20.6368C51.1403 19.3265 52.0327 17.7358 53.6772 16.5093C55.1037 15.478 58.1149 14 62.3826 14C67.5138 14 70.749 16.5656 70.749 19.0749C70.749 19.9673 70.3861 20.7207 69.55 21.5855Z" fill="#1B1B2E"/>
<circle cx="25.0001" cy="25" r="20.25" fill="white" stroke="#79CAFF" stroke-width="0.5"/>
<path d="M35.8235 14.1772L43.4729 17.347C42.4357 14.8423 40.9473 12.6614 39.1423 10.8577L35.8235 14.1772Z" fill="#9EE0FF"/>
<path d="M35.8222 14.1766H35.8235L39.1423 10.8577C37.2713 8.98806 35.0596 7.52318 32.6531 6.52654L35.8215 14.1766H35.8222Z" fill="#80CAFF"/>
<path d="M43.4748 32.6517C44.4715 30.2451 44.9999 27.6456 45.0005 25.0003H40.3057L43.4748 32.6517Z" fill="#80CAFF"/>
<path d="M40.3051 25.0003H44.9999C45.0012 22.4479 44.5114 19.8536 43.4735 17.3483L40.3051 25.0003Z" fill="#78B7FF"/>
<path d="M5.00026 25.0003C4.99895 27.5521 5.48877 30.1464 6.52661 32.651L9.69571 25.0003H5.00026Z" fill="#E6FBFF"/>
<path d="M5.00026 25.0003H9.69505L6.52595 17.349C5.52931 19.7555 5.00091 22.355 5.00026 25.0003Z" fill="#9EE0FF"/>
<path d="M10.8578 39.1429C12.7288 41.0126 14.9405 42.4775 17.3464 43.4741L14.1773 35.8228L10.8578 39.1429Z" fill="#9EE0FF"/>
<path d="M6.52661 32.6523C7.56444 35.157 9.05286 37.3386 10.8578 39.1423L14.1773 35.8221L6.52595 32.6517L6.52661 32.6523Z" fill="#C2F0FF"/>
<path d="M6.52661 17.3477L14.178 14.1786L10.8578 10.8584C8.98812 12.73 7.52324 14.9417 6.52661 17.3477Z" fill="#E6FBFF"/>
<path d="M14.178 14.1779L17.3464 6.52589C14.8424 7.56373 12.6621 9.0528 10.8578 10.8577L14.178 14.1779Z" fill="#9EE0FF"/>
<path d="M25.0004 9.69499L32.6517 6.52589C30.2458 5.52925 27.6457 5.00085 25.0004 5.0002V9.69499Z" fill="#9EE0FF"/>
<path d="M25.0004 9.69499V4.99954C22.4486 4.99889 19.8537 5.48805 17.349 6.52458L24.9997 9.69499H25.0004Z" fill="#E6FBFF"/>
<path d="M25.0004 44.9998V40.305L17.349 43.4748C19.755 44.4707 22.3551 44.9991 25.0004 44.9998Z" fill="#80CAFF"/>
<path d="M25.0004 40.3057V45.0005C27.5521 45.0011 30.1471 44.5119 32.6511 43.4748L25.0004 40.3057Z" fill="#78B7FF"/>
<path d="M35.8222 35.8228L32.6531 43.4735C35.1571 42.4363 37.3374 40.9472 39.1417 39.1423L35.8222 35.8228Z" fill="#9EE0FF"/>
<path d="M39.1423 39.1423C41.012 37.2706 42.4769 35.0589 43.4742 32.6536L35.8228 35.8228L39.1423 39.1423Z" fill="#78B7FF"/>
<path d="M32.6517 6.52589L25.0004 9.69565L29.4833 14.1779H35.8222L32.6537 6.5272C32.6537 6.52589 32.6517 6.52654 32.6517 6.52654V6.52589Z" fill="#C2F0FF"/>
<path d="M6.52595 17.3496L9.6944 24.9997L14.1773 20.5181V14.1786L6.52661 17.3483C6.52661 17.3483 6.5253 17.3483 6.52595 17.3503V17.3496Z" fill="#C2F0FF"/>
<path d="M35.8222 14.1766V20.5174L40.3051 24.9997L43.4735 17.3477V17.3464L35.8222 14.1759V14.1766Z" fill="#C2F0FF"/>
<path d="M17.3477 6.52589H17.3464L14.178 14.1779H20.5168L24.9997 9.69499L17.349 6.52458H17.3477V6.52589Z" fill="#C2F0FF"/>
<path d="M14.178 35.8228L17.3471 43.4741C17.3471 43.4741 17.3484 43.4741 17.349 43.4748L25.0004 40.305L20.5175 35.8228H14.178Z" fill="#C2F0FF"/>
<path d="M35.8228 29.4832V35.8228L43.4735 32.653C43.4735 32.6517 43.4742 32.651 43.4742 32.651L40.3051 24.9997L35.8228 29.4826V29.4832Z" fill="#9EE0FF"/>
<path d="M25.0004 40.3057L32.6511 43.4748H32.6524C32.6524 43.4748 32.6524 43.4748 32.6537 43.4735L35.8228 35.8228H29.4833L25.001 40.3057H25.0004Z" fill="#80CAFF"/>
<path d="M6.52595 32.6517L6.52661 32.6523L14.178 35.8228V29.4832L9.69505 25.001L6.52595 32.6517Z" fill="#9EE0FF"/>
<path d="M25.0004 40.3057L29.4826 35.8228L20.5168 35.8234L25.0004 40.3057Z" fill="#9EE0FF"/>
<path d="M20.5175 14.1772L29.4833 14.1779L25.0004 9.69499L20.5175 14.1772Z" fill="#E6FBFF"/>
<path d="M35.8228 29.4832L40.3051 25.0003L35.8222 20.5174L35.8228 29.4832Z" fill="#80CAFF"/>
<path d="M9.6944 24.9997L9.69505 25.001L14.178 29.4832L14.1773 20.5174L9.6944 24.9997Z" fill="#80CAFF"/>
<path d="M14.1773 20.5174L20.5175 14.1772L14.1786 14.1779L14.1773 20.5174Z" fill="#9EE0FF"/>
<path d="M14.178 35.8228L20.5168 35.8234L14.178 29.4832V35.8228Z" fill="#E6FBFF"/>
<path d="M35.8222 35.8228L35.8228 29.4832L29.4826 35.8228H35.8222Z" fill="#78B7FF"/>
<path d="M35.8222 20.5174V14.1766L29.4833 14.1779L35.8222 20.5174Z" fill="#80CAFF"/>
<path d="M20.5175 14.1779L14.178 20.5174L14.1773 29.4826L20.5175 35.8228L29.4826 35.8221L35.8222 29.4826V20.5168L29.4826 14.1772L20.5175 14.1779Z" fill="#C2F0FF"/>
<g filter="url(#filter0_d_0_482)">
<path d="M32.9021 22.0012C32.0338 22.8764 30.6548 23.4431 29.4031 23.9831C31.4459 24.6263 33.1832 26.5057 33.1832 28.6932C33.1832 29.9542 32.5953 31.3448 31.0883 32.6317C29.0198 34.3822 26.6966 35 24.1675 35C21.6385 35 19.1622 34.4334 16.4556 33.8155C16.2254 33.7643 15.9443 33.6606 15.7404 33.6606C15.6896 33.6606 15.6381 33.6865 15.5873 33.7118C15.4336 33.8408 15.3062 33.8927 15.1782 33.8927C15.076 33.8927 15.0001 33.8415 15.0001 33.7377C15.0001 33.6606 15.0258 33.5834 15.1023 33.481C15.5879 32.8113 16.3025 32.3996 17.1451 32.3996C17.4519 32.3996 17.7838 32.4508 18.1157 32.5545C18.4219 32.6576 18.6007 32.7341 18.7538 32.7341C18.9068 32.7341 19.0091 32.6311 19.2387 32.4508C20.5669 31.2929 21.614 28.5389 24.091 22.5147C25.1638 19.9149 26.2298 16.0441 28.8341 16.2496C29.1409 16.2755 29.2683 16.378 29.2683 16.4558C29.2683 16.5841 29.0901 16.7125 28.8084 16.7125C28.5016 16.7125 28.196 17.0218 27.9401 17.3822C26.9444 18.6951 23.9887 27.6111 22.3286 30.0825C21.205 31.7558 20.311 32.5792 19.5706 32.8619C19.4941 32.8878 19.4684 32.9397 19.4684 32.9909C19.4684 33.0421 19.4941 33.094 19.5957 33.1193C20.7708 33.5569 22.4811 34.2519 24.3972 34.2519C25.7247 34.2519 27.1552 33.9173 28.5599 32.9131C30.1686 31.7552 30.7822 30.2881 30.7822 28.8981C30.7822 26.8902 29.5054 25.062 27.9984 24.6244C27.5643 24.496 27.105 24.4448 26.7217 24.4448C26.5422 24.4448 26.364 24.4448 26.211 24.4707C26.1081 24.4966 26.083 24.4195 26.083 24.3676C26.083 24.1615 26.4406 23.6467 26.6451 23.6467C28.6107 23.6467 30.1435 23.5183 31.4202 21.7419C31.7521 21.2784 31.9052 20.7383 31.9052 20.1723C31.9052 18.0608 29.7093 15.6153 25.4192 15.6153C22.2013 15.6153 20.2093 16.9029 19.1622 17.8552C17.962 18.9366 17.2731 20.2495 17.2731 21.5105C17.2731 21.9993 17.3754 22.4628 17.5793 22.9005C17.6301 23.0035 17.6564 23.1066 17.6564 23.1838C17.6564 23.2869 17.605 23.3381 17.5285 23.3381C17.4011 23.3381 17.1966 23.235 16.9412 23.0288C16.3533 22.5653 16.0478 21.8969 16.0478 21.1247C16.0478 19.9149 16.8653 18.4472 18.371 17.3152C19.6735 16.3641 22.4315 15 26.339 15C31.0375 15 34.0001 17.3683 34.0001 19.6848C34.0001 20.5088 33.6688 21.2031 32.9021 22.0012Z" fill="#0076CD"/>
</g>
<defs>
<filter id="filter0_d_0_482" x="14.0001" y="15" width="21" height="22" filterUnits="userSpaceOnUse" color-interpolation-filters="sRGB">
<feFlood flood-opacity="0" result="BackgroundImageFix"/>
<feColorMatrix in="SourceAlpha" type="matrix" values="0 0 0 0 0 0 0 0 0 0 0 0 0 0 0 0 0 0 127 0" result="hardAlpha"/>
<feOffset dy="1"/>
<feGaussianBlur stdDeviation="0.5"/>
<feComposite in2="hardAlpha" operator="out"/>
<feColorMatrix type="matrix" values="0 0 0 0 0.215365 0 0 0 0 0.158205 0 0 0 0 0.00768358 0 0 0 0.3 0"/>
<feBlend mode="normal" in2="BackgroundImageFix" result="effect1_dropShadow_0_482"/>
<feBlend mode="normal" in="SourceGraphic" in2="effect1_dropShadow_0_482" result="shape"/>
</filter>
</defs>
</svg>
