<svg width="125" height="93" viewBox="0 0 125 93" fill="none" xmlns="http://www.w3.org/2000/svg">
<path d="M78.4353 89.0915H78.292C77.8934 89.1145 76.4883 89.1374 75.1091 89.1374C72.0753 89.1374 72.0696 89.0715 72.0122 88.5582C71.9692 88.1825 71.9491 87.5288 71.9491 84.4835C72.3534 84.4262 73.4803 84.4262 74.4065 84.4262C75.3327 84.4262 76.1213 84.4491 76.6575 84.4921H76.8037C77.9536 84.4921 78.5758 83.5344 78.5758 82.6311C78.5758 82.439 78.5357 81.7709 78.0368 81.2949C77.7013 80.9795 77.2396 80.8275 76.7034 80.859C76.3105 80.882 75.2381 80.882 74.2001 80.882C73.1621 80.882 72.3305 80.882 71.9692 80.8476C71.9749 80.4146 71.9778 80.0045 71.9778 79.6346V79.5687C71.9807 78.912 71.9835 78.393 72.0093 78.0776C72.038 77.6675 72.0438 77.593 74.2431 77.593C75.7686 77.593 77.7729 77.6159 77.7959 77.6159C79.0346 77.6159 79.7056 76.6897 79.7056 75.8209C79.7056 75.0123 79.1407 74.1148 77.902 74.0488C77.5665 74.0259 76.3163 74.0029 74.9915 74.0029C73.6667 74.0029 72.3936 74.0259 72.0007 74.0488C69.7985 74.1578 68.4508 75.4309 68.4021 77.4554C68.3505 79.0439 68.3333 82.3702 68.3333 84.7358C68.3333 86.5452 68.3333 88.2571 68.3791 89.2177C68.4738 91.3368 69.7813 92.4637 72.3706 92.6587C72.7004 92.6845 74.0452 92.7045 75.3098 92.7045C76.5743 92.7045 77.9421 92.6845 78.2547 92.6587C79.611 92.5956 80.2275 91.6608 80.2275 90.8177C80.2275 89.9747 79.5995 89.0915 78.4325 89.0915H78.4353Z" fill="black"/>
<path d="M92.0127 89.2064C91.9324 89.1462 91.8549 89.1118 91.7804 89.0773C91.5625 88.9799 91.1524 88.7963 91.0119 87.5547C90.9976 87.4658 90.9976 87.3024 90.9976 87.1275C90.9976 86.488 91.0607 85.6507 91.1094 85.2923L91.118 85.1805C91.1381 84.8937 91.1553 84.65 91.1553 84.369C91.1553 81.4929 89.6269 79.9731 86.7365 79.9731C84.1988 79.9731 81.8876 81.3352 81.8876 82.832C81.8876 83.7209 82.6332 84.4464 83.5479 84.4464C84.0296 84.4464 84.4942 84.2256 84.8096 83.85C85.2397 83.374 85.9107 83.0872 86.6017 83.0872C87.2928 83.0872 87.634 83.3654 87.634 83.9388C87.634 84.0363 87.6226 84.108 87.6111 84.1539C86.9659 84.2457 85.1738 84.6643 83.7458 85.1633C82.1285 85.7195 81.165 86.9784 81.165 88.5325C81.165 90.5598 82.8597 92.6588 85.6985 92.6588C87.0691 92.6588 88.4169 92.2029 89.2771 91.4831C89.4176 91.6609 89.561 91.8072 89.7015 91.919C90.0656 92.223 90.4843 92.3893 90.88 92.3893C91.898 92.3893 92.6062 91.3713 92.6062 90.4595C92.6062 89.929 92.394 89.4845 92.0155 89.2092L92.0127 89.2064ZM87.7459 87.4486C87.7459 88.8221 87.1322 89.41 85.6956 89.41C84.9128 89.41 84.5056 88.9913 84.5056 88.5813C84.5056 88.2372 84.9358 87.6121 87.7373 87.2221C87.743 87.2823 87.7459 87.3569 87.7459 87.4486Z" fill="black"/>
<path d="M100.38 80.1079C99.6861 80.1079 98.7025 80.3545 97.7964 81.0169C97.501 80.4319 96.8673 80.1308 96.2394 80.1308C95.3676 80.1308 94.4443 80.69 94.4443 81.7223V81.7854C94.4931 83.4112 94.5131 84.541 94.5131 85.817C94.5131 87.2737 94.4845 88.8021 94.4214 90.795V90.8408C94.4214 91.9333 95.3332 92.524 96.1935 92.524C96.7154 92.524 97.1569 92.3491 97.4695 92.0222C97.7735 91.7039 97.9426 91.2365 97.9197 90.7806C97.8709 89.1089 97.8509 88.0307 97.8509 87.1762C97.8509 86.5769 97.8509 86.1066 97.8738 85.7109C97.9283 84.5955 99.1728 83.6951 100.257 83.5833C101.495 83.4571 102.06 82.5539 102.06 81.7682C102.06 80.9825 101.47 80.1079 100.377 80.1079H100.38Z" fill="black"/>
<path d="M110.694 89.2719C110.605 89.2719 110.531 89.2862 110.485 89.2948H110.442C110.281 89.3178 110.118 89.3378 109.992 89.3378C109.361 89.3378 109.229 89.3378 109.229 87.4224C109.229 86.5736 109.252 85.5958 109.272 84.7069C109.283 84.2424 109.292 83.8237 109.295 83.4911H110.557C111.586 83.4911 112.125 82.6681 112.125 81.8538C112.125 81.0394 111.635 80.2164 110.557 80.2164H109.306C109.321 79.9125 109.341 79.3619 109.341 78.9347C109.341 77.6931 108.696 76.9819 107.569 76.9819C106.723 76.9819 105.863 77.5296 105.863 78.5762V78.6938C105.886 78.9175 105.886 79.1784 105.886 79.4336C105.886 79.6888 105.88 79.9526 105.871 80.2164H105.398C104.363 80.2164 103.807 81.048 103.807 81.8308C103.807 82.6136 104.366 83.4911 105.398 83.4911H105.865V83.5742C105.865 84.0273 105.857 84.7442 105.845 85.5155V85.5557C105.834 86.4646 105.82 87.4396 105.82 88.1421C105.82 91.8325 107.953 92.6067 109.742 92.6067C111.996 92.6067 112.24 91.368 112.24 90.8347C112.24 90.0633 111.661 89.2662 110.694 89.2662V89.2719Z" fill="black"/>
<path d="M124.934 84.4204C124.831 81.1429 122.514 79.9729 120.378 79.9729C119.469 79.9729 118.525 80.1909 117.754 80.5636C117.766 79.7206 117.777 78.5019 117.791 77.3119L117.806 75.795C117.806 74.7197 116.937 74.1577 116.079 74.1577C115.222 74.1577 114.307 74.7226 114.307 75.7721C114.307 76.4144 114.31 77.266 114.316 78.2496C114.322 79.5916 114.33 81.1773 114.33 82.8089C114.33 85.1401 114.316 88.4176 114.239 90.7947V90.8406C114.239 91.9331 115.153 92.5238 116.011 92.5238C116.532 92.5238 116.974 92.3489 117.287 92.022C117.591 91.7037 117.76 91.2363 117.737 90.7804C117.691 89.189 117.668 87.8527 117.668 86.8147C117.668 86.0778 117.668 85.4957 117.691 85.1C117.743 84.0275 118.924 83.2246 119.948 83.2246C121.198 83.2246 121.444 84.2483 121.479 84.8591C121.502 85.2118 121.522 85.9516 121.522 86.8147C121.522 88.214 121.499 89.8686 121.476 90.7833V90.8206C121.476 91.9274 122.376 92.5267 123.225 92.5267C124.074 92.5267 124.94 91.979 124.974 90.7804C124.997 90.2929 124.997 89.6678 124.997 88.9424C124.997 87.3251 124.954 85.3408 124.928 84.4204H124.934Z" fill="black"/>
<path d="M18.9883 87.1072C18.7733 83.6061 18.5037 79.2475 18.455 77.16C18.3977 75.1757 16.984 74.1377 15.6191 74.1377C14.5983 74.1377 13.3079 74.7284 12.7459 76.3801C12.4047 77.3808 11.9229 78.9321 11.4125 80.5838C10.7645 82.6827 10.0447 85.0111 9.51711 86.4764C9.04111 85.1029 8.24109 82.4218 7.57011 80.1766L7.5615 80.1479C7.13712 78.7285 6.73567 77.3865 6.45753 76.5062C5.92418 74.7743 4.64529 74.1578 3.62734 74.1578C2.37426 74.1578 0.974938 75.1212 0.860239 77.2346C0.788553 78.5106 0.665252 80.2769 0.536216 82.1551C0.329758 85.0914 0.0974938 88.4205 0 90.8579V90.9095C0 91.9533 0.891781 92.5009 1.77209 92.5009C2.70689 92.5009 3.67035 91.9217 3.7019 90.8177C3.79939 88.1539 4.02879 83.1186 4.19223 80.3314C4.39009 81.0024 4.61375 81.7594 4.84028 82.5394C5.75213 85.6563 6.78729 89.1861 7.28049 90.3532C7.68767 91.3712 8.4963 91.9819 9.44256 91.9819C10.3888 91.9819 11.3695 91.2995 11.7423 90.3245C12.4792 88.4033 14.0879 83.4082 14.9825 80.449C15.0628 83.2734 15.2234 88.4951 15.3839 90.7862C15.447 91.9131 16.4048 92.5038 17.3138 92.5038C18.2227 92.5038 19.2005 91.8902 19.2005 90.7518V90.6314C19.1489 89.7252 19.0715 88.4865 18.9883 87.1101V87.1072Z" fill="black"/>
<path d="M31.026 89.0915H30.8826C30.484 89.1145 29.079 89.1374 27.6997 89.1374C24.6659 89.1374 24.6602 89.0715 24.6028 88.5582C24.5598 88.1797 24.5398 87.5259 24.5398 84.4835C24.9441 84.4262 26.071 84.4262 26.9972 84.4262C27.9234 84.4262 28.7119 84.4491 29.2481 84.4921H29.3944C30.5471 84.4921 31.1665 83.5344 31.1665 82.6311C31.1665 82.439 31.1263 81.7709 30.6274 81.2949C30.289 80.9737 29.8417 80.8275 29.294 80.859C28.904 80.882 27.8287 80.882 26.7907 80.882C25.7527 80.882 24.9211 80.882 24.5598 80.8476C24.5656 80.3974 24.5684 79.9701 24.5684 79.5888C24.5684 78.9235 24.5742 78.3959 24.6 78.0776C24.6287 77.6675 24.6344 77.593 26.8337 77.593C28.3621 77.593 30.3636 77.6159 30.3865 77.6159C31.6253 77.6159 32.2963 76.6897 32.2963 75.8209C32.2963 75.0123 31.7314 74.1148 30.4955 74.0488C30.16 74.0259 28.9098 74.0029 27.585 74.0029C26.2602 74.0029 24.9871 74.0259 24.5942 74.0488C22.392 74.1578 21.0443 75.4309 20.9956 77.4554C20.944 79.0382 20.9268 82.3673 20.9268 84.7358C20.9268 86.5452 20.9268 88.2571 20.9726 89.2177C21.0701 91.3368 22.3748 92.4637 24.9641 92.6587C25.2939 92.6845 26.6387 92.7045 27.9033 92.7045C29.1678 92.7045 30.5356 92.6845 30.8482 92.6587C32.2045 92.5956 32.821 91.6608 32.821 90.8177C32.821 89.9747 32.193 89.0915 31.026 89.0915Z" fill="black"/>
<path d="M44.6894 77.7477C45.217 77.7477 45.8708 77.7477 46.6565 77.7935H46.7483C47.8379 77.7935 48.4085 76.9018 48.4085 76.0214C48.4085 75.511 48.2078 75.0092 47.8694 74.6795C47.554 74.3727 47.1268 74.2178 46.6479 74.2264C45.8794 74.2408 43.8378 74.2723 41.5209 74.2723C39.204 74.2723 36.7723 74.2494 35.4132 74.2264H35.3673C34.1744 74.2264 33.5493 75.1182 33.5493 75.9985C33.5493 76.8788 34.2031 77.7935 35.4132 77.7935C35.9752 77.7935 36.5401 77.7821 37.0763 77.7677C37.5494 77.7563 37.9968 77.7477 38.4011 77.7477C38.7538 77.7477 39.052 77.7477 39.2355 77.7563C39.2756 78.9491 39.2756 80.77 39.2756 82.694C39.2756 85.9601 39.2498 89.1057 39.2068 90.7115V90.7487C39.2068 91.8699 40.2018 92.475 41.1366 92.475C41.7417 92.475 42.2922 92.2599 42.6449 91.8843C42.9431 91.5688 43.0922 91.1473 43.0664 90.7C42.9976 89.0168 42.9546 86.2182 42.9546 83.5743C42.9546 81.3406 42.9775 79.2416 43.0177 77.7677C43.2987 77.7448 43.8865 77.7448 44.6894 77.7448V77.7477Z" fill="black"/>
<path d="M56.859 76.1019C56.4403 74.9205 55.4023 74.1606 54.2152 74.1606C53.028 74.1606 52.0961 74.8718 51.6832 76.0589L51.3219 77.0711C48.1906 85.8781 46.625 90.4469 46.625 90.7776C46.625 91.8443 47.5713 92.4809 48.4889 92.4809C49.3434 92.4809 50.0401 91.9733 50.304 91.1504C50.5161 90.4708 50.8 89.579 51.1212 88.5697L51.6689 86.8406C52.2739 86.8262 53.6073 86.8262 54.803 86.8262C55.6374 86.8262 56.4346 86.8262 56.8762 86.8406L57.2031 87.8241C57.7393 89.4414 58.1637 90.7203 58.3873 91.2565C58.7286 92.1454 59.5544 92.4608 60.211 92.4608C61.1573 92.4608 62.1638 91.8328 62.1638 90.6658C62.1638 90.3848 62.1036 90.0837 61.9831 89.7855C61.2118 87.9618 58.2698 80.0734 56.859 76.1048V76.1019ZM55.7091 83.3079C54.955 83.3222 53.8338 83.3222 53.0367 83.3079C52.9592 83.3079 52.8818 83.3079 52.8073 83.305C53.1313 82.2956 53.8912 80.0992 54.2897 78.9952C54.6338 80.0475 55.1557 81.6333 55.7091 83.3079Z" fill="black"/>
<g filter="url(#filter0_f_155_4372)">
<ellipse cx="61.1361" cy="61.7488" rx="8.59073" ry="3.06812" fill="black" fill-opacity="0.2"/>
</g>
<path fill-rule="evenodd" clip-rule="evenodd" d="M62 1C76.3594 1 88 12.6406 88 27C88 38.0098 81.1567 47.4213 71.4917 51.213L63.4809 62.1627C63.3139 62.3919 63.0921 62.579 62.8344 62.7082C62.5766 62.8373 62.2905 62.9048 62 62.9048C61.7095 62.9048 61.4234 62.8373 61.1656 62.7082C60.9079 62.579 60.6861 62.3919 60.5191 62.1627L52.5083 51.213C42.8433 47.4213 36 38.0098 36 27C36 12.6406 47.6406 1 62 1Z" fill="#F2685B" stroke="black"/>
<path d="M62.0002 45.8206C72.4432 45.8206 80.9089 37.3548 80.9087 26.9117C80.9086 16.4687 72.4427 8.00293 61.9996 8.00293C51.5566 8.00293 43.0909 16.4687 43.0911 26.9117C43.0913 37.3548 51.5571 45.8206 62.0002 45.8206Z" fill="#B6E1F2" stroke="black" stroke-width="0.8"/>
<path fill-rule="evenodd" clip-rule="evenodd" d="M45.168 31.2087C45.3322 31.2728 45.9045 32.5854 46.0532 33.2478C46.1301 33.5911 46.1107 34.0174 46.2838 34.2098C46.5331 34.4873 47.0175 34.3546 47.2652 34.1329C47.4736 33.946 47.6605 33.632 47.8424 33.3633C48.032 33.083 48.1365 32.7424 48.2653 32.4206C48.5352 31.7483 48.7336 31.0135 48.9194 30.3622C49.1074 29.7015 49.3004 28.9717 49.6697 28.4001C50.1767 27.6155 50.8545 27.1887 51.0934 26.2643C51.1808 25.927 51.1006 25.5848 51.1509 25.2254C51.1808 25.0136 51.4893 24.2694 51.5551 24.1865C51.6446 24.0726 51.9388 23.9029 52.0549 23.8979C52.4568 23.8791 52.7078 24.2164 52.8245 24.4558C52.9257 24.6631 52.929 24.934 53.0744 25.1679C53.1402 25.274 53.2989 25.4604 53.4205 25.4753C53.5997 25.498 53.7329 25.3929 53.786 25.3597C53.8739 25.3056 54.0204 25.2121 54.0746 25.148C54.3483 24.8268 54.3643 24.1268 54.4014 23.6475C54.4373 23.188 54.5457 22.7368 54.5556 22.32C54.5805 21.2391 54.2045 20.0565 54.4594 18.9728C54.5761 18.4774 54.7917 18.0799 55.0366 17.7028C55.1903 17.4662 55.3363 17.182 55.5177 16.9913C55.6896 16.8105 55.9296 16.6645 56.133 16.4909C56.337 16.3173 56.5217 16.1138 56.7296 15.9717C57.0713 15.7379 57.403 15.635 57.7491 15.5294C58.8505 15.1927 59.7125 14.5337 60.3848 13.7403C60.6148 13.4683 60.8603 13.2377 61.0775 12.9707C61.5165 12.4305 61.8615 11.7709 62.0971 11.0466C62.2176 10.6768 62.4078 10.3622 62.4819 9.94972C62.5106 9.79159 62.5654 9.10767 62.5394 8.91085C62.5001 8.61339 61.7183 8.24904 60.8951 8.01904C50.9668 8.59128 43.0908 16.8232 43.0908 26.8951C43.0908 28.5991 43.3175 30.2495 43.7399 31.8196C44.2768 31.74 44.6328 31.0003 45.168 31.2087Z" fill="#46BF00" stroke="black" stroke-width="0.8"/>
<path fill-rule="evenodd" clip-rule="evenodd" d="M62.1764 15.2419C62.3563 14.7954 62.8534 13.9038 62.8565 13.7916C63.4779 13.6304 64.0422 14.0033 64.4474 14.253C64.8905 14.5264 65.2804 14.7285 65.532 15.1453C65.3838 15.7144 65.2888 16.4596 64.9183 16.849C64.4459 17.346 63.8554 16.872 63.2286 16.7219C63.0502 16.6788 62.8032 16.6417 62.6643 16.664C62.1911 16.7405 62.5578 17.4679 62.303 17.7888C61.5504 17.7799 61.3481 16.927 61.5959 16.3564C61.7225 16.0651 62.0012 15.678 62.1772 15.2412L62.1764 15.2419Z" fill="#46BF00" stroke="black" stroke-width="0.8"/>
<path fill-rule="evenodd" clip-rule="evenodd" d="M61.8691 18.8029C61.4567 18.8601 60.9885 19.2975 60.8732 19.4739C60.4351 20.1422 60.5926 21.2245 60.2754 21.8473C60.1279 22.1367 59.7721 22.3523 59.4786 22.6142C58.9366 23.0978 58.2679 23.5752 57.6844 23.9569C57.3042 24.2056 56.9785 24.362 56.763 24.6045C56.6506 24.7306 56.3871 25.0296 56.4637 25.3713C56.5002 25.5346 56.7222 25.6634 56.8875 25.7069C57.1503 25.7764 58.013 25.8984 58.3824 25.8508C58.5041 25.835 58.6488 25.7385 58.8306 25.6827C58.9838 25.6359 59.1786 25.6345 59.3039 25.587C59.4843 25.5188 59.6812 25.3155 59.9017 25.1557C60.1236 24.9945 60.3327 24.8395 60.4995 24.7003C60.8732 24.3889 61.3787 24.1491 61.6951 23.8136C61.9085 23.5869 62.0588 23.2535 62.2428 22.9986C62.3896 22.7953 62.5421 22.5969 62.691 22.3751C62.9831 21.9417 63.3504 21.4608 63.4635 21.0089C63.6189 20.384 63.3905 19.91 63.0898 19.5463C62.85 19.2562 62.3159 18.7416 61.8691 18.8029Z" fill="#46BF00" stroke="black" stroke-width="0.8"/>
<path fill-rule="evenodd" clip-rule="evenodd" d="M79.5045 19.7343C79.2579 19.7371 78.9914 19.7194 78.7398 19.7426C78.2555 19.788 76.1208 19.9207 75.9118 20.0119C75.7686 20.0744 75.5297 20.2187 75.4307 20.3005C74.9425 20.7041 74.8485 21.435 74.8917 22.1858C74.9862 23.8202 75.8117 24.812 75.8344 26.4956C75.8382 26.7908 75.7337 27.1955 75.8344 27.5344C75.9035 27.7672 76.1163 28.0149 76.2767 28.2654C76.8771 29.2008 77.7164 29.9013 78.2201 30.8628C78.3025 31.0204 79.2861 32.2981 79.9086 32.9787C80.5572 31.0696 80.9088 29.0239 80.9088 26.8953C80.9088 24.3609 80.4084 21.9431 79.5039 19.7343H79.5045Z" fill="#46BF00" stroke="black" stroke-width="0.8"/>
<path fill-rule="evenodd" clip-rule="evenodd" d="M56.1446 26.9905C55.785 26.4051 55.1785 25.4189 54.4703 26.0835C54.3071 26.3829 54.1439 26.6022 53.9215 26.9238C53.7724 27.1402 53.3726 27.4976 53.4278 27.8656C53.5011 28.3554 54.3726 28.3273 54.7724 28.5041C54.953 28.5843 55.1131 28.8277 55.3489 28.8741C55.9774 28.9977 56.4963 28.3389 56.4466 27.6637C56.4348 27.5073 56.2684 27.1924 56.1446 26.9915V26.9905Z" fill="#46BF00" stroke="black" stroke-width="0.8"/>
<path fill-rule="evenodd" clip-rule="evenodd" d="M59.2435 25.873C58.9962 25.7874 58.6053 26.2201 58.3019 26.2703C58.0961 26.3046 57.8764 26.2361 57.7543 26.3502C57.5673 26.5249 57.3577 27.1563 57.5132 27.6609C58.1263 28.1416 59.3046 27.823 59.4626 26.7875C59.5142 26.4507 59.4261 25.9369 59.2435 25.8741V25.873Z" fill="#46BF00" stroke="black" stroke-width="0.8"/>
<path fill-rule="evenodd" clip-rule="evenodd" d="M51.4743 30.9071C51.7159 30.5728 52.3455 30.7709 52.4136 30.1978C52.1538 29.5088 51.1308 30.1181 51.4743 30.9071Z" fill="#46BF00" stroke="black" stroke-width="0.8"/>
<path fill-rule="evenodd" clip-rule="evenodd" d="M61.3862 34.6333C61.1136 34.8329 61.7036 35.4195 61.7329 35.4029C62.0651 35.5632 62.5158 35.3913 62.3869 35.0181C62.3073 34.7875 61.6648 34.4293 61.3862 34.6333Z" fill="#46BF00" stroke="black" stroke-width="0.8"/>
<path fill-rule="evenodd" clip-rule="evenodd" d="M53.2293 36.4418C52.8732 36.2388 52.4458 36.5181 51.9786 36.3649C51.7094 36.277 51.5822 35.9585 51.2283 36.0951C51.2134 36.0995 51.1902 36.0956 51.1896 36.1144C50.8341 36.3688 50.8878 37.1135 51.0547 37.4806C51.1117 37.6056 51.3765 37.8798 51.5551 37.9423C51.7729 38.0186 52.009 37.9506 52.3054 37.9229C52.7399 37.882 53.0767 37.793 53.2674 37.5768C53.5074 37.3043 53.5864 36.6458 53.2287 36.4418H53.2293Z" fill="#46BF00" stroke="black" stroke-width="0.8"/>
<path fill-rule="evenodd" clip-rule="evenodd" d="M66.7154 36.3845C66.3516 36.0606 65.379 36.2319 64.7913 36.1921C64.506 36.1722 64.2445 36.1037 64.0217 36.0959C63.7519 36.0865 63.492 36.363 63.5213 36.6156C63.539 36.766 63.7734 36.9723 63.9061 37.0392C64.1754 37.1741 65.3829 37.3725 65.7146 37.4428C65.896 37.4815 66.0961 37.5423 66.2725 37.5196C66.7436 37.4594 67.1195 36.745 66.7154 36.3845Z" fill="#46BF00" stroke="black" stroke-width="0.8"/>
<path fill-rule="evenodd" clip-rule="evenodd" d="M55.3645 39.231C55.0814 39.1409 54.889 38.9513 54.5755 38.9806C53.8567 39.0486 53.9474 39.8713 54.2675 40.2694C54.5069 40.5679 54.847 40.8383 55.0753 41.0777C55.5265 41.5498 56.3088 41.139 56.4797 40.6542C56.5996 40.313 56.5388 39.7745 56.326 39.5771C56.1203 39.3864 55.7509 39.3543 55.3639 39.231H55.3645Z" fill="#46BF00" stroke="black" stroke-width="0.8"/>
<path fill-rule="evenodd" clip-rule="evenodd" d="M74.5074 41.0782C74.5074 41.0782 74.5118 41.0721 74.514 41.0693C74.4272 41.1456 74.3399 41.2219 74.252 41.2966C74.3432 41.2407 74.4311 41.17 74.5074 41.0776V41.0782Z" fill="#46BF00" stroke="black" stroke-width="0.8"/>
<path fill-rule="evenodd" clip-rule="evenodd" d="M74.6417 39.0393C74.1989 39.1969 74.0468 39.6176 73.7184 39.9433C73.599 40.0616 73.4171 40.1395 73.353 40.2319C73.0754 40.6333 73.2861 41.3935 73.7566 41.4819C73.9003 41.4521 74.0822 41.4007 74.252 41.2967C74.3399 41.2215 74.4272 41.1458 74.514 41.0695C74.7374 40.7919 75.0398 40.1102 75.0846 39.7315C75.1283 39.3616 74.9906 38.9431 74.6423 39.0387L74.6417 39.0393Z" fill="#46BF00" stroke="black" stroke-width="0.8"/>
<path fill-rule="evenodd" clip-rule="evenodd" d="M70.5631 43.0984C70.7677 42.3205 70.5111 41.4376 70.1783 40.9433C69.972 40.6381 69.601 40.2876 69.2737 40.0968C68.5268 39.6606 67.0533 39.576 66.1958 39.9238C65.895 40.046 65.7424 40.3451 65.503 40.4816C65.1884 40.6613 63.047 41.0577 62.54 41.0395C62.1326 41.0246 61.8605 40.8333 61.6742 40.5966C61.5498 40.4385 61.395 40.2185 61.3281 40.0388C61.254 39.8397 61.2844 39.5815 61.1932 39.3654C61.1396 39.2376 60.8089 38.9955 60.616 38.9231C60.4872 38.8744 60.3091 38.8628 60.1925 38.865C59.5395 38.8794 58.756 39.032 58.4608 39.4035C58.3121 39.5904 57.8305 40.6232 57.768 40.8659C57.6851 41.1893 57.6154 41.6703 57.6912 42.0391C57.7282 42.2194 57.956 43.0045 57.9991 43.2129C58.1219 43.8067 58.3696 44.2324 58.7301 44.5979C58.912 44.782 60.6409 45.4548 61.6261 45.7987C61.75 45.8009 61.8738 45.8037 61.9982 45.8037C64.8218 45.8037 67.5006 45.1834 69.9068 44.0737C70.0312 43.9267 70.1313 43.8001 70.1766 43.732C70.3132 43.5286 70.5039 43.3152 70.5614 43.0973L70.5631 43.0984Z" fill="#46BF00" stroke="black" stroke-width="0.8"/>
<defs>
<filter id="filter0_f_155_4372" x="50.5454" y="56.6807" width="21.1814" height="10.1362" filterUnits="userSpaceOnUse" color-interpolation-filters="sRGB">
<feFlood flood-opacity="0" result="BackgroundImageFix"/>
<feBlend mode="normal" in="SourceGraphic" in2="BackgroundImageFix" result="shape"/>
<feGaussianBlur stdDeviation="1" result="effect1_foregroundBlur_155_4372"/>
</filter>
</defs>
</svg>
