<svg width="134" height="36" viewBox="0 0 134 36" fill="none" xmlns="http://www.w3.org/2000/svg">
<path d="M0 35.163L5.35291 0.498291H14.2417L19.5946 35.165H14.2918L13.2821 28.3635H6.31251L5.30281 35.165H0V35.163ZM12.4747 23.4229L9.79826 5.43502L7.1218 23.4229H12.4747Z" fill="#F34927"/>
<path d="M25 17.7483H35V21.7483H25V17.7483Z" fill="#F34927"/>
<path d="M47.806 0.498291L56.0318 20.9546V0.498291H61.3784V35.165H56.0318L47.806 14.7087V35.165H42.4595V0.498291H47.806Z" fill="#F34927"/>
<path d="M75.4494 6.19779C74.5305 5.7332 73.4943 5.49829 72.3689 5.49829C70.8251 5.49829 69.4948 5.8898 68.4149 6.66412C67.3367 7.43669 66.4983 8.47202 65.9189 9.74398C65.5654 10.5148 65.3203 11.4127 65.1925 12.4132C65.0648 13.4068 65 14.5134 65 15.7001V25.2982C65 26.4866 65.0648 27.5916 65.1925 28.5851C65.3203 29.5856 65.5654 30.4835 65.9189 31.2543C66.4983 32.528 67.3384 33.5651 68.4149 34.3342C69.4931 35.1085 70.8251 35.5 72.3706 35.5C73.4961 35.5 74.5253 35.2651 75.4284 34.8005C76.3281 34.3377 77.1122 33.6904 77.7546 32.883C79.0708 31.3031 79.7377 29.1959 79.7377 26.6206V26.5336H74.6845L74.6775 26.6119C74.6145 27.2522 74.4307 27.8995 74.1349 28.5381C73.8444 29.1611 73.2668 29.4656 72.3706 29.4656C71.6652 29.4656 71.0999 29.2237 70.6885 28.7487C70.2737 28.2702 70.0637 27.5742 70.0637 26.6798V22.8012H79.7395V14.6683C79.7395 12.0565 79.0883 9.85535 77.8054 8.12053C77.1612 7.30967 76.3701 6.66412 75.4529 6.19953L75.4494 6.19779ZM72.3689 11.5345C73.0707 11.5345 73.6361 11.8042 74.0474 12.3332C74.464 12.8708 74.6758 13.6939 74.6758 14.7797V18.0266H70.0602V14.7797C70.0602 13.6939 70.272 12.8708 70.6885 12.3332C71.0999 11.8024 71.6652 11.5345 72.3671 11.5345H72.3689Z" fill="#F34927"/>
<path d="M97.9323 5.96284L97.9796 5.84277H92.6166L89.6603 13.9496L86.704 5.84277H81.3393L87.0751 20.1824L81.0522 35.1537H86.4152L89.6603 26.41L92.8826 35.0963L92.9036 35.1537H98.2684L92.1492 20.1824L97.9323 5.96284Z" fill="#F34927"/>
<path d="M110.736 25.5278C110.736 26.8102 110.563 27.8021 110.218 28.4772C109.881 29.1419 109.278 29.4638 108.381 29.4638C107.638 29.4638 107.082 29.1749 106.681 28.5833C106.278 27.9882 106.074 27.1548 106.074 26.1038V5.84277H101.013V28.2858C101.013 29.5926 101.16 30.7131 101.449 31.6162C101.738 32.5228 102.13 33.2762 102.615 33.8574C103.102 34.4403 103.66 34.8649 104.278 35.1172C104.892 35.3695 105.517 35.4965 106.131 35.4965C107.264 35.4965 108.209 35.1903 108.941 34.5865C109.632 34.0157 110.236 33.2849 110.736 32.4132V35.1537H115.797V5.84277H110.736V25.5261V25.5278Z" fill="#F34927"/>
<path d="M132.962 21.8128C132.269 20.3442 130.989 19.1697 129.16 18.3241L126.285 16.9442C125.383 16.5336 124.818 16.0759 124.604 15.5818C124.387 15.0789 124.277 14.5586 124.277 14.0366C124.277 13.2919 124.482 12.6219 124.884 12.046C125.28 11.4805 125.852 11.1934 126.584 11.1934C127.195 11.1934 127.746 11.437 128.222 11.9155C128.698 12.3957 128.956 13.13 128.987 14.0992L128.991 14.1828H133.762V14.0958C133.762 12.9056 133.583 11.7658 133.23 10.7062C132.876 9.64822 132.39 8.72252 131.779 7.94994C131.168 7.17737 130.424 6.57009 129.57 6.14378C128.714 5.71747 127.774 5.50171 126.776 5.50171C125.779 5.50171 124.832 5.70703 123.962 6.1142C123.092 6.51963 122.324 7.1182 121.681 7.88904C121.006 8.66162 120.468 9.58906 120.085 10.647C119.7 11.7067 119.506 12.8656 119.506 14.0958C119.506 16.0585 119.954 17.7481 120.836 19.114C121.718 20.4817 122.948 21.5275 124.491 22.2217L126.836 23.2553C127.741 23.6677 128.373 24.1601 128.714 24.7152C129.055 25.2738 129.229 25.9541 129.229 26.7389C129.229 27.7063 128.956 28.4685 128.416 29.0044C127.877 29.5403 127.261 29.8118 126.586 29.8118C125.686 29.8118 125.077 29.4881 124.723 28.8234C124.363 28.1466 124.132 27.4036 124.039 26.6119L124.03 26.5353H119.264V26.624C119.297 28.0822 119.525 29.3768 119.943 30.4747C120.36 31.5727 120.913 32.5001 121.588 33.231C122.941 34.7378 124.639 35.5017 126.635 35.5017C127.697 35.5017 128.695 35.2668 129.596 34.8022C130.498 34.3394 131.28 33.6921 131.924 32.883C132.566 32.0738 133.078 31.1273 133.447 30.071C133.816 29.0114 134.002 27.8525 134.002 26.624C134.002 24.8962 133.652 23.2797 132.964 21.8163L132.962 21.8128Z" fill="#F34927"/>
</svg>
