<svg width="198" height="198" viewBox="0 0 198 198" fill="none" xmlns="http://www.w3.org/2000/svg">
<path d="M99 99V0C141.886 0 179.896 27.6171 193.148 68.4073L99 99Z" fill="#2CA4DE"/>
<path d="M99 99L193.148 68.4073C206.401 109.198 191.883 153.883 157.187 179.093L99 99Z" fill="#228FCE"/>
<path d="M99 99L157.187 179.093C122.491 204.302 75.5091 204.302 40.8132 179.093L99 99Z" fill="#1E7DBE"/>
<path d="M99 99L40.8132 179.093C6.11734 153.883 -8.40082 109.198 4.85183 68.4073L99 99Z" fill="#1A68AE"/>
<path d="M99.0003 99L4.85217 68.4073C18.1048 27.6171 56.1139 0 99.0003 0V99Z" fill="#18539E"/>
<path d="M186.845 99C186.845 147.515 147.515 186.845 99 186.845C50.4845 186.845 11.1549 147.515 11.1549 99C11.1549 50.4845 50.4845 11.1549 99 11.1549C147.515 11.1549 186.845 50.4845 186.845 99Z" fill="white"/>
<path d="M152.79 118.985V89.2012H159.946V100.555H169.741V89.2012H176.857V118.985H169.741V106.752H159.946V118.985H152.79Z" fill="#2C2C2C"/>
<path d="M133.774 118.985V95.1579H125.739V89.2012H149.006V95.1579H140.93V118.985H133.774Z" fill="#2C2C2C"/>
<path d="M103.64 118.985V89.2012H122.509V95.1579H110.796V100.675H120.75V106.672H110.796V112.988H122.949V118.985H103.64Z" fill="#2C2C2C"/>
<path d="M69.6331 118.985L64.2361 89.2012H71.5121L73.3911 102.794C73.7909 105.912 74.1906 109.03 74.5904 112.229H74.7503C75.31 109.03 75.9097 105.872 76.5094 102.794L79.5477 89.2012H85.5844L88.6627 102.794C89.2624 105.832 89.7821 109.03 90.3818 112.229H90.5817C90.9415 109.03 91.3413 105.872 91.7011 102.794L93.66 89.2012H100.416L95.2591 118.985H86.264L83.5855 106.032C83.1058 103.753 82.706 101.355 82.4261 99.1157H82.2662C81.8664 101.355 81.5066 103.753 81.0669 106.032L78.4683 118.985H69.6331Z" fill="#2C2C2C"/>
<path d="M45.3275 91.3324H24.4147L19.1865 80.8732H40.1021L45.3275 91.3324Z" fill="#18539E"/>
<path d="M55.7853 91.3324L50.5571 101.789L45.3261 91.3324L40.1007 80.8732H50.5571L55.7853 91.3324Z" fill="#1A68AE"/>
<path d="M61.0179 101.788L55.7868 112.245H45.3276L50.5587 101.788L55.7868 91.3319L61.0179 101.788Z" fill="#1E7DBE"/>
<path d="M55.7859 112.245L50.5577 122.704H29.6506L34.876 112.245H55.7859Z" fill="#228FCE"/>
<path d="M34.8711 112.245H34.8767L29.6514 122.704H19.1865L24.4147 112.245L34.8711 91.3319L40.1021 101.788L34.8711 112.245Z" fill="#2CA4DE"/>
</svg>
