<svg width="189" height="38" viewBox="0 0 189 38" fill="none" xmlns="http://www.w3.org/2000/svg">
<path d="M11.37 37.015H15.73L20.8 28.235L25.87 37.015H30.24L20.8 20.675L11.37 37.015Z" fill="#9C8651"/>
<path d="M42.31 0.985001L37.24 9.765L32.17 0.985001H27.8L37.24 17.325L44.49 4.765H51.49L37.24 29.455L20.8 0.985001L0 37.015H4.37L20.8 8.545L37.24 37.015L58.04 0.985001H42.31Z" fill="#707F87"/>
<path d="M63.17 31.88H66.3L69.93 25.6L73.55 31.88H76.68L69.93 20.19L63.17 31.88Z" fill="#9C8651"/>
<path d="M55.04 31.88H58.17L69.93 11.52L81.68 31.88H84.81L69.93 6.11L55.04 31.88Z" fill="#707F87"/>
<path d="M171.03 24.82C171.03 27.34 168.98 29.39 166.46 29.39C163.94 29.39 161.89 27.34 161.89 24.82V14.43H159.4V24.82C159.4 28.72 162.57 31.89 166.47 31.89C168.15 31.89 169.77 31.29 171.04 30.21V31.89H173.53V14.42H171.04V24.81L171.03 24.82Z" fill="#707F87"/>
<path d="M144.44 14.42H141.4L153.62 31.88H156.67L144.44 14.42Z" fill="#707F87"/>
<path d="M117.31 27.69L101.31 6.11H99.43V31.88H101.93V11.13L117.31 31.88H119.8V6.11H117.31V27.69Z" fill="#707F87"/>
<path d="M136.22 26.89C135.06 28.44 133.25 29.38 131.25 29.38C126.19 29.38 125.22 24.77 125.14 24.39H139.89C139.89 24.39 139.97 23.44 139.97 23.14C139.97 20.02 137.76 14.41 131.24 14.41C126.43 14.41 122.51 18.33 122.51 23.14C122.51 27.95 126.43 31.87 131.24 31.87C134.66 31.87 137.69 29.91 139.12 26.88H136.21L136.22 26.89ZM131.25 16.92C134.22 16.92 136.77 19.03 137.35 21.91H125.14C125.72 19.03 128.27 16.92 131.25 16.92Z" fill="#707F87"/>
<path d="M94.95 17.75H84.57V20.24H94.95V17.75Z" fill="#707F87"/>
<path d="M153.62 14.42H156.67L144.44 31.88H141.4L153.62 14.42Z" fill="#9C8651"/>
<path d="M186.88 22.81C186.04 22.22 185.05 21.9 184.02 21.9H181.23C179.85 21.9 178.74 20.78 178.74 19.41C178.74 18.04 179.86 16.92 181.23 16.92H184.02C185.4 16.92 186.51 18.04 186.51 19.41H189C189 16.66 186.76 14.42 184.01 14.42H181.22C178.47 14.42 176.23 16.66 176.23 19.41C176.23 21.03 177.03 22.55 178.36 23.49C179.21 24.08 180.19 24.4 181.22 24.4H184.01C185.39 24.4 186.5 25.52 186.5 26.89C186.5 28.26 185.38 29.38 184.01 29.38H181.22C179.84 29.38 178.73 28.26 178.73 26.88H176.24C176.24 29.63 178.48 31.87 181.23 31.87H184.02C186.77 31.87 189.01 29.63 189.01 26.88C189.01 25.26 188.21 23.73 186.88 22.8V22.81Z" fill="#707F87"/>
</svg>
