<svg width="361" height="42" viewBox="0 0 361 42" fill="none" xmlns="http://www.w3.org/2000/svg">
<path d="M35 35.944C43.2843 35.944 50 29.2534 50 21.0001C50 12.7468 43.2843 6.05615 35 6.05615C26.7157 6.05615 20 12.7468 20 21.0001C20 29.2534 26.7157 35.944 35 35.944Z" fill="#F21414"/>
<mask id="mask0_187_361" style="mask-type:luminance" maskUnits="userSpaceOnUse" x="20" y="6" width="30" height="30">
<path d="M35 35.944C43.2843 35.944 50 29.2534 50 21.0001C50 12.7468 43.2843 6.05615 35 6.05615C26.7157 6.05615 20 12.7468 20 21.0001C20 29.2534 26.7157 35.944 35 35.944Z" fill="white"/>
</mask>
<g mask="url(#mask0_187_361)">
<path d="M45.8272 17.0615C45.5762 15.7201 44.8468 14.3741 43.769 13.2583C43.4594 12.0046 43.002 10.7345 42.4097 9.48317C40.6095 5.67884 37.7432 3.40278 35.6544 2.1631C35.5888 2.12455 35.5137 2.10352 35.4363 2.10352C35.4328 2.10352 35.4281 2.10352 35.4246 2.10352L35.0587 2.11286C34.8687 2.11754 34.7045 2.2484 34.6576 2.43301C34.6106 2.61761 34.6939 2.80923 34.8593 2.90387C36.9105 4.07228 39.7217 6.23967 41.4656 9.926C41.8022 10.6376 42.0931 11.3561 42.3358 12.0735C41.4621 11.515 40.5602 11.2159 39.7146 11.2159C39.5856 11.2159 39.4578 11.2229 39.3335 11.2369C38.8491 11.2919 38.0504 11.5092 37.2612 11.9532C36.3311 12.4766 35.6685 13.1765 35.3425 13.978C35.285 14.1194 35.2381 14.2631 35.1959 14.4033C35.1454 14.2865 35.0927 14.1685 35.034 14.0516C34.681 13.3436 34.111 12.6916 33.3886 12.167C32.6673 11.6436 31.864 11.2977 31.0653 11.168C30.8343 11.1306 30.5997 11.1119 30.3651 11.1119C29.4832 11.1119 28.5907 11.376 27.7135 11.8971C27.0098 12.3154 26.4703 12.8073 26.1407 13.1473C24.6501 14.6837 23.8761 16.9668 24.1212 19.105C24.5305 22.6792 27.6478 25.3233 30.398 27.6554C32.0176 29.0294 33.5481 30.3275 34.1404 31.5392L34.1591 31.5766C34.4945 32.2694 34.8827 32.9109 35.448 32.9109C35.4902 32.9109 35.5325 32.9074 35.5747 32.8992C35.889 32.8431 36.1189 32.6001 36.2572 32.1795C36.3511 31.8944 36.3945 31.5579 36.4226 31.2973L36.4273 31.2553C36.5704 29.984 37.9801 28.3483 39.4742 26.6178C40.9191 24.9435 42.5563 23.0449 43.4113 21.0422C44.1149 19.3971 44.3683 17.5498 44.1689 15.532C44.4797 16.0952 44.6967 16.6782 44.8034 17.2507C44.9406 17.9833 44.9066 18.7183 44.7013 19.4976C44.5149 20.2045 44.19 20.9312 43.708 21.7211C42.7956 23.2166 41.4574 24.6911 40.1638 26.1178C38.9476 27.4591 37.7725 29.4092 37.0207 31.3324C36.5352 32.5767 35.8116 34.8995 36.4273 36.4792C36.4683 36.5844 36.5493 36.6685 36.6525 36.7141C36.7076 36.7374 36.7651 36.7503 36.8237 36.7503C36.8753 36.7503 36.9281 36.7409 36.9773 36.7211L37.1568 36.651C37.3761 36.5668 37.484 36.3203 37.3995 36.103C37.0442 35.1916 37.2647 33.5839 38.0059 31.6934C38.7178 29.8765 39.8131 28.0527 40.9379 26.813C42.2537 25.363 43.613 23.8627 44.5852 22.2702C45.7275 20.3984 46.1345 18.6937 45.8284 17.0591L45.8272 17.0615ZM35.2592 15.5215C35.2592 15.5215 35.2627 15.5215 35.2639 15.5215C35.2627 15.5215 35.2604 15.5215 35.2592 15.5215C35.2569 15.5215 35.2545 15.5215 35.2522 15.5215C35.2451 15.5215 35.2381 15.5203 35.2311 15.5192C35.2404 15.5192 35.2486 15.5215 35.2592 15.5215ZM35.448 32.4879C35.448 32.4879 35.4422 32.4879 35.4398 32.4879C35.4445 32.4879 35.4492 32.4879 35.4539 32.4879C35.4515 32.4879 35.4504 32.4879 35.448 32.4879ZM38.6802 25.9413C37.0794 27.7979 35.5676 29.5517 35.3882 31.1431L35.3835 31.1887C35.3671 31.3417 35.3495 31.4656 35.3319 31.566C35.2674 31.4562 35.19 31.3137 35.0997 31.1256L35.0798 31.0858C34.3913 29.6767 32.7799 28.3109 31.0759 26.8644C28.4723 24.6561 25.5227 22.1545 25.1591 18.9882C24.948 17.1503 25.613 15.1897 26.8925 13.8705C27.3792 13.3681 28.6834 12.1962 30.2772 12.153C30.3077 12.153 30.337 12.1518 30.3675 12.1518C30.5458 12.1518 30.724 12.1658 30.8988 12.195C31.5297 12.2979 32.1959 12.5853 32.7764 13.0071C33.3546 13.4265 33.826 13.9628 34.1017 14.5167C34.1626 14.6382 34.2213 14.7749 34.2776 14.9081L34.2799 14.9128C34.3761 15.1371 34.4664 15.3486 34.5778 15.5203C34.7608 15.8031 34.9883 15.9468 35.2522 15.9468C35.258 15.9468 35.2639 15.9468 35.2709 15.9468C35.2803 15.9468 35.2885 15.9468 35.2967 15.9456C35.482 15.9339 35.7424 15.844 35.9277 15.4818C36.0168 15.3077 36.079 15.095 36.1458 14.8684V14.866C36.1963 14.6966 36.2479 14.5213 36.3088 14.3706C36.6103 13.6287 37.2752 13.1356 37.7807 12.854C38.4293 12.4906 39.086 12.3131 39.4519 12.2722C39.5364 12.2628 39.6243 12.2581 39.7123 12.2581C40.6705 12.2581 41.8257 12.8295 42.8225 13.7911C43.4136 16.3709 43.287 18.6739 42.4472 20.6391C41.6544 22.4934 40.0735 24.3266 38.6779 25.9448L38.6802 25.9413Z" fill="white"/>
</g>
<path d="M73.752 34.252C72.936 34.252 72.036 34.228 71.052 34.18C70.092 34.132 69.192 34.084 68.352 34.036C67.512 34.012 66.876 34 66.444 34C65.964 34 65.436 34 64.86 34C64.284 34.024 63.684 34.048 63.06 34.072C62.46 34.096 61.884 34.108 61.332 34.108C61.164 34.108 61.008 34.072 60.864 34C60.72 33.904 60.648 33.772 60.648 33.604C60.648 33.388 60.708 33.22 60.828 33.1C60.972 32.98 61.164 32.896 61.404 32.848C62.316 32.656 62.94 32.416 63.276 32.128C63.612 31.816 63.78 31.276 63.78 30.508V14.164C63.78 13.396 63.624 12.856 63.312 12.544C63 12.208 62.364 11.932 61.404 11.716C61.164 11.668 60.972 11.584 60.828 11.464C60.708 11.344 60.648 11.176 60.648 10.96C60.648 10.792 60.72 10.66 60.864 10.564C61.008 10.468 61.164 10.42 61.332 10.42C61.884 10.42 62.46 10.432 63.06 10.456C63.684 10.48 64.284 10.516 64.86 10.564C65.46 10.588 66 10.6 66.48 10.6C66.864 10.6 67.368 10.588 67.992 10.564C68.616 10.516 69.288 10.48 70.008 10.456C70.752 10.408 71.46 10.372 72.132 10.348C72.828 10.3 73.392 10.276 73.824 10.276C75.648 10.276 77.328 10.564 78.864 11.14C80.424 11.692 81.78 12.496 82.932 13.552C84.108 14.584 85.02 15.808 85.668 17.224C86.316 18.64 86.64 20.2 86.64 21.904C86.64 23.512 86.352 25.06 85.776 26.548C85.2 28.012 84.36 29.332 83.256 30.508C82.152 31.66 80.808 32.572 79.224 33.244C77.64 33.916 75.816 34.252 73.752 34.252ZM73.212 32.416C74.844 32.416 76.212 32.02 77.316 31.228C78.42 30.412 79.236 29.296 79.764 27.88C80.316 26.44 80.592 24.772 80.592 22.876C80.592 21.268 80.412 19.816 80.052 18.52C79.716 17.2 79.212 16.072 78.54 15.136C77.892 14.2 77.076 13.48 76.092 12.976C75.132 12.448 74.04 12.184 72.816 12.184C72.048 12.184 71.4 12.208 70.872 12.256C70.368 12.304 69.984 12.424 69.72 12.616C69.456 12.808 69.324 13.12 69.324 13.552V29.248C69.324 30.04 69.468 30.664 69.756 31.12C70.068 31.576 70.512 31.912 71.088 32.128C71.688 32.32 72.396 32.416 73.212 32.416ZM102.881 34.504C101.225 34.504 99.6408 34.228 98.1288 33.676C96.6408 33.1 95.3088 32.296 94.1328 31.264C92.9808 30.208 92.0688 28.96 91.3968 27.52C90.7488 26.056 90.4248 24.436 90.4248 22.66C90.4248 21.028 90.6888 19.468 91.2168 17.98C91.7688 16.468 92.5848 15.124 93.6648 13.948C94.7448 12.772 96.0768 11.836 97.6608 11.14C99.2688 10.444 101.117 10.096 103.205 10.096C104.885 10.096 106.469 10.384 107.957 10.96C109.469 11.512 110.801 12.316 111.953 13.372C113.105 14.404 114.017 15.652 114.689 17.116C115.361 18.556 115.697 20.164 115.697 21.94C115.697 23.548 115.421 25.108 114.869 26.62C114.317 28.132 113.501 29.476 112.421 30.652C111.341 31.828 109.997 32.764 108.389 33.46C106.805 34.156 104.969 34.504 102.881 34.504ZM103.529 32.848C104.897 32.848 106.037 32.464 106.949 31.696C107.885 30.928 108.581 29.86 109.037 28.492C109.493 27.124 109.721 25.552 109.721 23.776C109.721 22.312 109.577 20.872 109.289 19.456C109.025 18.016 108.593 16.72 107.993 15.568C107.417 14.416 106.673 13.504 105.761 12.832C104.849 12.136 103.769 11.788 102.521 11.788C101.177 11.788 100.037 12.172 99.1008 12.94C98.1888 13.708 97.5048 14.764 97.0488 16.108C96.5928 17.452 96.3648 19.012 96.3648 20.788C96.3648 22.276 96.5088 23.74 96.7968 25.18C97.0848 26.596 97.5168 27.88 98.0928 29.032C98.6688 30.184 99.4008 31.108 100.289 31.804C101.201 32.5 102.281 32.848 103.529 32.848ZM142.292 34.684C141.98 34.684 141.476 34.492 140.78 34.108C140.084 33.748 139.364 33.1 138.62 32.164C138.044 31.564 137.444 30.916 136.82 30.22C136.196 29.524 135.536 28.804 134.84 28.06C134.144 27.316 133.436 26.56 132.716 25.792C132.02 25.024 131.324 24.268 130.628 23.524C129.932 22.756 129.236 22 128.54 21.256C127.844 20.512 127.184 19.792 126.56 19.096C125.936 18.4 125.336 17.752 124.76 17.152C124.712 17.056 124.628 16.972 124.508 16.9C124.412 16.804 124.34 16.756 124.292 16.756C124.196 16.756 124.124 16.84 124.076 17.008C124.052 17.176 124.04 17.32 124.04 17.44C124.016 18.544 124.016 19.84 124.04 21.328C124.064 22.816 124.088 24.328 124.112 25.864C124.16 27.376 124.184 28.756 124.184 30.004C124.184 30.772 124.424 31.384 124.904 31.84C125.384 32.272 126.092 32.608 127.028 32.848C127.292 32.896 127.52 32.98 127.712 33.1C127.928 33.196 128.036 33.352 128.036 33.568C128.036 33.736 127.94 33.868 127.748 33.964C127.556 34.06 127.352 34.108 127.136 34.108C126.488 34.108 125.96 34.084 125.552 34.036C125.144 34.012 124.76 34 124.4 34C124.064 33.976 123.644 33.964 123.14 33.964C122.612 33.964 122.108 33.976 121.628 34C121.172 34.024 120.776 34.048 120.44 34.072C120.128 34.096 119.912 34.108 119.792 34.108C119.624 34.108 119.432 34.072 119.216 34C119.024 33.904 118.928 33.772 118.928 33.604C118.928 33.388 119.024 33.232 119.216 33.136C119.408 33.04 119.624 32.944 119.864 32.848C120.44 32.632 120.872 32.272 121.16 31.768C121.472 31.264 121.652 30.64 121.7 29.896C121.796 29.008 121.892 27.832 121.988 26.368C122.108 24.904 122.216 23.26 122.312 21.436C122.408 19.588 122.456 17.68 122.456 15.712C122.456 14.464 122.132 13.564 121.484 13.012C120.86 12.46 120.092 12.016 119.18 11.68C118.988 11.632 118.772 11.548 118.532 11.428C118.292 11.284 118.172 11.104 118.172 10.888C118.172 10.672 118.268 10.528 118.46 10.456C118.652 10.36 118.868 10.312 119.108 10.312C119.54 10.312 120.02 10.324 120.548 10.348C121.1 10.372 121.676 10.396 122.276 10.42C122.876 10.42 123.5 10.432 124.148 10.456C124.796 10.48 125.444 10.492 126.092 10.492C126.284 10.492 126.428 10.528 126.524 10.6C126.644 10.672 126.752 10.768 126.848 10.888C127.376 11.488 127.94 12.136 128.54 12.832C129.164 13.528 129.812 14.26 130.484 15.028C131.156 15.772 131.84 16.54 132.536 17.332C133.232 18.1 133.916 18.88 134.588 19.672C135.284 20.464 135.956 21.232 136.604 21.976C137.276 22.72 137.924 23.44 138.548 24.136C139.172 24.832 139.748 25.48 140.276 26.08C140.348 26.176 140.432 26.284 140.528 26.404C140.648 26.5 140.756 26.548 140.852 26.548C141.044 26.548 141.14 26.368 141.14 26.008C141.14 25.264 141.14 24.4 141.14 23.416C141.164 22.432 141.176 21.388 141.176 20.284C141.176 19.18 141.164 18.088 141.14 17.008C141.14 15.928 141.116 14.932 141.068 14.02C141.044 13.372 140.792 12.892 140.312 12.58C139.856 12.244 139.22 11.968 138.404 11.752C138.14 11.704 137.912 11.62 137.72 11.5C137.528 11.38 137.432 11.212 137.432 10.996C137.432 10.828 137.528 10.708 137.72 10.636C137.912 10.54 138.116 10.492 138.332 10.492C138.884 10.492 139.352 10.504 139.736 10.528C140.12 10.528 140.468 10.528 140.78 10.528C141.092 10.528 141.44 10.528 141.824 10.528C142.304 10.528 142.712 10.528 143.048 10.528C143.384 10.504 143.744 10.48 144.128 10.456C144.536 10.432 145.052 10.42 145.676 10.42C145.964 10.42 146.18 10.468 146.324 10.564C146.492 10.66 146.576 10.792 146.576 10.96C146.576 11.32 146.264 11.56 145.64 11.68C144.8 11.848 144.2 12.088 143.84 12.4C143.48 12.712 143.288 13.216 143.264 13.912C143.264 14.776 143.252 15.7 143.228 16.684C143.228 17.668 143.204 18.676 143.156 19.708C143.108 20.74 143.06 21.772 143.012 22.804C142.988 23.812 142.964 24.784 142.94 25.72C142.916 26.656 142.904 27.52 142.904 28.312C142.904 28.864 142.94 29.476 143.012 30.148C143.084 30.796 143.144 31.396 143.192 31.948C143.264 32.476 143.3 32.848 143.3 33.064C143.3 33.664 143.204 34.084 143.012 34.324C142.844 34.564 142.604 34.684 142.292 34.684ZM148.337 34.18C148.073 34.18 147.845 34.132 147.653 34.036C147.485 33.964 147.401 33.82 147.401 33.604C147.401 33.364 147.473 33.196 147.617 33.1C147.785 32.98 148.001 32.884 148.265 32.812C148.961 32.62 149.561 32.32 150.065 31.912C150.593 31.504 150.989 31 151.253 30.4C151.853 29.056 152.417 27.736 152.945 26.44C153.473 25.12 153.989 23.824 154.493 22.552C154.997 21.256 155.501 19.948 156.005 18.628C156.509 17.284 157.013 15.928 157.517 14.56C157.877 13.576 158.105 12.868 158.201 12.436C158.297 11.98 158.369 11.716 158.417 11.644C158.849 11.524 159.257 11.416 159.641 11.32C160.025 11.224 160.433 11.092 160.865 10.924C161.297 10.756 161.657 10.54 161.945 10.276C162.257 10.012 162.485 9.808 162.629 9.664C162.725 9.592 162.821 9.556 162.917 9.556C163.013 9.532 163.109 9.604 163.205 9.772C163.277 9.916 163.337 10.072 163.385 10.24C163.457 10.384 163.517 10.552 163.565 10.744C164.069 12.352 164.585 13.996 165.113 15.676C165.641 17.332 166.169 18.988 166.697 20.644C167.249 22.3 167.789 23.944 168.317 25.576C168.845 27.184 169.361 28.756 169.865 30.292C170.009 30.772 170.225 31.18 170.513 31.516C170.825 31.852 171.173 32.116 171.557 32.308C171.941 32.5 172.373 32.668 172.853 32.812C173.117 32.884 173.321 32.98 173.465 33.1C173.633 33.196 173.717 33.352 173.717 33.568C173.717 33.736 173.645 33.868 173.501 33.964C173.357 34.06 173.189 34.108 172.997 34.108C172.517 34.108 171.917 34.084 171.197 34.036C170.501 34.012 169.793 33.988 169.073 33.964C168.353 33.94 167.717 33.928 167.165 33.928C166.709 33.928 166.145 33.94 165.473 33.964C164.825 33.988 164.165 34.012 163.493 34.036C162.821 34.06 162.245 34.072 161.765 34.072C161.549 34.072 161.357 34.036 161.189 33.964C161.045 33.868 160.973 33.736 160.973 33.568C160.973 33.352 161.057 33.184 161.225 33.064C161.393 32.944 161.597 32.86 161.837 32.812C162.725 32.62 163.373 32.368 163.781 32.056C164.189 31.744 164.321 31.276 164.177 30.652C164.081 30.196 163.961 29.716 163.817 29.212C163.673 28.708 163.529 28.204 163.385 27.7C163.265 27.172 163.133 26.668 162.989 26.188C162.941 25.996 162.881 25.852 162.809 25.756C162.737 25.66 162.593 25.612 162.377 25.612H156.005C155.837 25.612 155.705 25.66 155.609 25.756C155.513 25.852 155.441 26.008 155.393 26.224C155.297 26.56 155.189 26.896 155.069 27.232C154.949 27.568 154.829 27.904 154.709 28.24C154.613 28.576 154.517 28.912 154.421 29.248C154.325 29.584 154.229 29.908 154.133 30.22C153.965 30.94 154.037 31.492 154.349 31.876C154.661 32.26 155.333 32.572 156.365 32.812C156.941 32.932 157.229 33.184 157.229 33.568C157.229 33.736 157.157 33.868 157.013 33.964C156.893 34.036 156.689 34.072 156.401 34.072C155.705 34.072 155.057 34.048 154.457 34C153.857 33.976 153.197 33.964 152.477 33.964C151.757 33.964 151.073 34 150.425 34.072C149.777 34.144 149.081 34.18 148.337 34.18ZM157.013 23.668H161.693C162.053 23.668 162.233 23.584 162.233 23.416C162.233 23.344 162.221 23.284 162.197 23.236C162.197 23.188 162.185 23.128 162.161 23.056L159.749 14.92C159.677 14.656 159.605 14.524 159.533 14.524C159.485 14.524 159.401 14.656 159.281 14.92L156.437 23.056C156.389 23.152 156.365 23.248 156.365 23.344C156.365 23.464 156.425 23.548 156.545 23.596C156.689 23.644 156.845 23.668 157.013 23.668ZM178.541 34.108C178.373 34.108 178.193 34.072 178.001 34C177.809 33.904 177.713 33.772 177.713 33.604C177.713 33.388 177.797 33.22 177.965 33.1C178.133 32.98 178.337 32.896 178.577 32.848C179.489 32.656 180.149 32.404 180.557 32.092C180.989 31.78 181.205 31.24 181.205 30.472V15.604C181.205 14.668 181.181 13.984 181.133 13.552C181.085 13.096 181.013 12.796 180.917 12.652C180.845 12.484 180.749 12.376 180.629 12.328C180.413 12.208 180.125 12.148 179.765 12.148C179.429 12.124 179.153 12.112 178.937 12.112H178.145C177.377 12.112 176.645 12.304 175.949 12.688C175.277 13.048 174.737 13.504 174.329 14.056C174.209 14.224 174.029 14.464 173.789 14.776C173.573 15.064 173.333 15.328 173.069 15.568C172.829 15.784 172.589 15.892 172.349 15.892C172.157 15.892 172.025 15.832 171.953 15.712C171.881 15.568 171.845 15.412 171.845 15.244C171.845 14.956 171.917 14.656 172.061 14.344C172.517 13.432 172.853 12.652 173.069 12.004C173.285 11.356 173.429 10.612 173.501 9.772C173.549 9.412 173.657 9.172 173.825 9.052C173.993 8.908 174.185 8.836 174.401 8.836C174.569 8.836 174.749 8.992 174.941 9.304C175.133 9.616 175.337 9.868 175.553 10.06C175.793 10.252 176.189 10.396 176.741 10.492C177.317 10.588 177.785 10.636 178.145 10.636H191.681C192.281 10.636 192.785 10.576 193.193 10.456C193.625 10.336 193.949 10.216 194.165 10.096C194.549 9.88 194.849 9.64 195.065 9.376C195.305 9.112 195.581 8.98 195.893 8.98C196.037 8.98 196.133 9.04 196.181 9.16C196.253 9.256 196.289 9.4 196.289 9.592C196.289 9.688 196.277 9.808 196.253 9.952C196.253 10.096 196.241 10.228 196.217 10.348C196.097 10.804 195.977 11.248 195.857 11.68C195.737 12.088 195.641 12.484 195.569 12.868C195.497 13.252 195.461 13.648 195.461 14.056V14.776C195.461 15.16 195.413 15.472 195.317 15.712C195.245 15.952 195.089 16.072 194.849 16.072C194.633 16.072 194.453 15.964 194.309 15.748C194.165 15.508 194.009 15.136 193.841 14.632C193.577 13.768 193.181 13.132 192.653 12.724C192.149 12.316 191.369 12.112 190.313 12.112H188.441C188.033 12.112 187.697 12.208 187.433 12.4C187.193 12.568 187.013 12.928 186.893 13.48C186.773 14.008 186.713 14.824 186.713 15.928V30.436C186.713 31.156 186.905 31.684 187.289 32.02C187.697 32.332 188.369 32.608 189.305 32.848C189.545 32.92 189.749 33.004 189.917 33.1C190.085 33.196 190.169 33.352 190.169 33.568C190.169 33.736 190.097 33.868 189.953 33.964C189.809 34.06 189.629 34.108 189.413 34.108C188.885 34.108 188.285 34.084 187.613 34.036C186.965 34.012 186.305 33.988 185.633 33.964C184.985 33.94 184.421 33.928 183.941 33.928C183.437 33.928 182.861 33.94 182.213 33.964C181.589 33.988 180.953 34.012 180.305 34.036C179.681 34.084 179.093 34.108 178.541 34.108ZM198.532 34.108C198.34 34.108 198.172 34.072 198.028 34C197.884 33.904 197.812 33.772 197.812 33.604C197.812 33.22 198.064 32.968 198.568 32.848C199.48 32.656 200.116 32.416 200.476 32.128C200.836 31.816 201.016 31.276 201.016 30.508V14.164C201.016 13.396 200.86 12.856 200.548 12.544C200.236 12.208 199.6 11.932 198.64 11.716C198.136 11.596 197.884 11.344 197.884 10.96C197.884 10.792 197.956 10.66 198.1 10.564C198.244 10.468 198.412 10.42 198.604 10.42C199.156 10.42 199.732 10.432 200.332 10.456C200.956 10.48 201.556 10.516 202.132 10.564C202.732 10.588 203.284 10.6 203.788 10.6C204.268 10.6 204.808 10.588 205.408 10.564C206.032 10.54 206.656 10.516 207.28 10.492C207.928 10.468 208.516 10.456 209.044 10.456C209.26 10.456 209.428 10.504 209.548 10.6C209.668 10.672 209.728 10.792 209.728 10.96C209.728 11.2 209.656 11.368 209.512 11.464C209.392 11.56 209.2 11.644 208.936 11.716C207.976 11.98 207.34 12.28 207.028 12.616C206.716 12.928 206.56 13.456 206.56 14.2V30.472C206.56 31.168 206.728 31.684 207.064 32.02C207.424 32.332 208.072 32.608 209.008 32.848C209.248 32.92 209.428 33.004 209.548 33.1C209.692 33.196 209.764 33.352 209.764 33.568C209.764 33.736 209.704 33.868 209.584 33.964C209.488 34.06 209.332 34.108 209.116 34.108C208.588 34.108 208 34.084 207.352 34.036C206.704 34.012 206.068 33.988 205.444 33.964C204.82 33.94 204.268 33.928 203.788 33.928C203.284 33.928 202.732 33.94 202.132 33.964C201.532 33.988 200.92 34.012 200.296 34.036C199.672 34.084 199.084 34.108 198.532 34.108ZM224.929 34.504C223.273 34.504 221.689 34.228 220.177 33.676C218.689 33.1 217.357 32.296 216.181 31.264C215.029 30.208 214.117 28.96 213.445 27.52C212.797 26.056 212.473 24.436 212.473 22.66C212.473 21.028 212.737 19.468 213.265 17.98C213.817 16.468 214.633 15.124 215.713 13.948C216.793 12.772 218.125 11.836 219.709 11.14C221.317 10.444 223.165 10.096 225.253 10.096C226.933 10.096 228.517 10.384 230.005 10.96C231.517 11.512 232.849 12.316 234.001 13.372C235.153 14.404 236.065 15.652 236.737 17.116C237.409 18.556 237.745 20.164 237.745 21.94C237.745 23.548 237.469 25.108 236.917 26.62C236.365 28.132 235.549 29.476 234.469 30.652C233.389 31.828 232.045 32.764 230.437 33.46C228.853 34.156 227.017 34.504 224.929 34.504ZM225.577 32.848C226.945 32.848 228.085 32.464 228.997 31.696C229.933 30.928 230.629 29.86 231.085 28.492C231.541 27.124 231.769 25.552 231.769 23.776C231.769 22.312 231.625 20.872 231.337 19.456C231.073 18.016 230.641 16.72 230.041 15.568C229.465 14.416 228.721 13.504 227.809 12.832C226.897 12.136 225.817 11.788 224.569 11.788C223.225 11.788 222.085 12.172 221.149 12.94C220.237 13.708 219.553 14.764 219.097 16.108C218.641 17.452 218.413 19.012 218.413 20.788C218.413 22.276 218.557 23.74 218.845 25.18C219.133 26.596 219.565 27.88 220.141 29.032C220.717 30.184 221.449 31.108 222.337 31.804C223.249 32.5 224.329 32.848 225.577 32.848ZM264.341 34.684C264.029 34.684 263.525 34.492 262.829 34.108C262.133 33.748 261.413 33.1 260.669 32.164C260.093 31.564 259.493 30.916 258.869 30.22C258.245 29.524 257.585 28.804 256.889 28.06C256.193 27.316 255.485 26.56 254.765 25.792C254.069 25.024 253.373 24.268 252.677 23.524C251.981 22.756 251.285 22 250.589 21.256C249.893 20.512 249.233 19.792 248.609 19.096C247.985 18.4 247.385 17.752 246.809 17.152C246.761 17.056 246.677 16.972 246.557 16.9C246.461 16.804 246.389 16.756 246.341 16.756C246.245 16.756 246.173 16.84 246.125 17.008C246.101 17.176 246.089 17.32 246.089 17.44C246.065 18.544 246.065 19.84 246.089 21.328C246.113 22.816 246.137 24.328 246.161 25.864C246.209 27.376 246.233 28.756 246.233 30.004C246.233 30.772 246.473 31.384 246.953 31.84C247.433 32.272 248.141 32.608 249.077 32.848C249.341 32.896 249.569 32.98 249.761 33.1C249.977 33.196 250.085 33.352 250.085 33.568C250.085 33.736 249.989 33.868 249.797 33.964C249.605 34.06 249.401 34.108 249.185 34.108C248.537 34.108 248.009 34.084 247.601 34.036C247.193 34.012 246.809 34 246.449 34C246.113 33.976 245.693 33.964 245.189 33.964C244.661 33.964 244.157 33.976 243.677 34C243.221 34.024 242.825 34.048 242.489 34.072C242.177 34.096 241.961 34.108 241.841 34.108C241.673 34.108 241.481 34.072 241.265 34C241.073 33.904 240.977 33.772 240.977 33.604C240.977 33.388 241.073 33.232 241.265 33.136C241.457 33.04 241.673 32.944 241.913 32.848C242.489 32.632 242.921 32.272 243.209 31.768C243.521 31.264 243.701 30.64 243.749 29.896C243.845 29.008 243.941 27.832 244.037 26.368C244.157 24.904 244.265 23.26 244.361 21.436C244.457 19.588 244.505 17.68 244.505 15.712C244.505 14.464 244.181 13.564 243.533 13.012C242.909 12.46 242.141 12.016 241.229 11.68C241.037 11.632 240.821 11.548 240.581 11.428C240.341 11.284 240.221 11.104 240.221 10.888C240.221 10.672 240.317 10.528 240.509 10.456C240.701 10.36 240.917 10.312 241.157 10.312C241.589 10.312 242.069 10.324 242.597 10.348C243.149 10.372 243.725 10.396 244.325 10.42C244.925 10.42 245.549 10.432 246.197 10.456C246.845 10.48 247.493 10.492 248.141 10.492C248.333 10.492 248.477 10.528 248.573 10.6C248.693 10.672 248.801 10.768 248.897 10.888C249.425 11.488 249.989 12.136 250.589 12.832C251.213 13.528 251.861 14.26 252.533 15.028C253.205 15.772 253.889 16.54 254.585 17.332C255.281 18.1 255.965 18.88 256.637 19.672C257.333 20.464 258.005 21.232 258.653 21.976C259.325 22.72 259.973 23.44 260.597 24.136C261.221 24.832 261.797 25.48 262.325 26.08C262.397 26.176 262.481 26.284 262.577 26.404C262.697 26.5 262.805 26.548 262.901 26.548C263.093 26.548 263.189 26.368 263.189 26.008C263.189 25.264 263.189 24.4 263.189 23.416C263.213 22.432 263.225 21.388 263.225 20.284C263.225 19.18 263.213 18.088 263.189 17.008C263.189 15.928 263.165 14.932 263.117 14.02C263.093 13.372 262.841 12.892 262.361 12.58C261.905 12.244 261.269 11.968 260.453 11.752C260.189 11.704 259.961 11.62 259.769 11.5C259.577 11.38 259.481 11.212 259.481 10.996C259.481 10.828 259.577 10.708 259.769 10.636C259.961 10.54 260.165 10.492 260.381 10.492C260.933 10.492 261.401 10.504 261.785 10.528C262.169 10.528 262.517 10.528 262.829 10.528C263.141 10.528 263.489 10.528 263.873 10.528C264.353 10.528 264.761 10.528 265.097 10.528C265.433 10.504 265.793 10.48 266.177 10.456C266.585 10.432 267.101 10.42 267.725 10.42C268.013 10.42 268.229 10.468 268.373 10.564C268.541 10.66 268.625 10.792 268.625 10.96C268.625 11.32 268.313 11.56 267.689 11.68C266.849 11.848 266.249 12.088 265.889 12.4C265.529 12.712 265.337 13.216 265.313 13.912C265.313 14.776 265.301 15.7 265.277 16.684C265.277 17.668 265.253 18.676 265.205 19.708C265.157 20.74 265.109 21.772 265.061 22.804C265.037 23.812 265.013 24.784 264.989 25.72C264.965 26.656 264.953 27.52 264.953 28.312C264.953 28.864 264.989 29.476 265.061 30.148C265.133 30.796 265.193 31.396 265.241 31.948C265.313 32.476 265.349 32.848 265.349 33.064C265.349 33.664 265.253 34.084 265.061 34.324C264.893 34.564 264.653 34.684 264.341 34.684ZM293.425 34.252C292.609 34.252 291.709 34.228 290.725 34.18C289.765 34.132 288.865 34.084 288.025 34.036C287.185 34.012 286.549 34 286.117 34C285.637 34 285.109 34 284.533 34C283.957 34.024 283.357 34.048 282.733 34.072C282.133 34.096 281.557 34.108 281.005 34.108C280.837 34.108 280.681 34.072 280.537 34C280.393 33.904 280.321 33.772 280.321 33.604C280.321 33.388 280.381 33.22 280.501 33.1C280.645 32.98 280.837 32.896 281.077 32.848C281.989 32.656 282.613 32.416 282.949 32.128C283.285 31.816 283.453 31.276 283.453 30.508V14.164C283.453 13.396 283.297 12.856 282.985 12.544C282.673 12.208 282.037 11.932 281.077 11.716C280.837 11.668 280.645 11.584 280.501 11.464C280.381 11.344 280.321 11.176 280.321 10.96C280.321 10.792 280.393 10.66 280.537 10.564C280.681 10.468 280.837 10.42 281.005 10.42C281.557 10.42 282.133 10.432 282.733 10.456C283.357 10.48 283.957 10.516 284.533 10.564C285.133 10.588 285.673 10.6 286.153 10.6C286.537 10.6 287.041 10.588 287.665 10.564C288.289 10.516 288.961 10.48 289.681 10.456C290.425 10.408 291.133 10.372 291.805 10.348C292.501 10.3 293.065 10.276 293.497 10.276C295.321 10.276 297.001 10.564 298.537 11.14C300.097 11.692 301.453 12.496 302.605 13.552C303.781 14.584 304.693 15.808 305.341 17.224C305.989 18.64 306.313 20.2 306.313 21.904C306.313 23.512 306.025 25.06 305.449 26.548C304.873 28.012 304.033 29.332 302.929 30.508C301.825 31.66 300.481 32.572 298.897 33.244C297.313 33.916 295.489 34.252 293.425 34.252ZM292.885 32.416C294.517 32.416 295.885 32.02 296.989 31.228C298.093 30.412 298.909 29.296 299.437 27.88C299.989 26.44 300.265 24.772 300.265 22.876C300.265 21.268 300.085 19.816 299.725 18.52C299.389 17.2 298.885 16.072 298.213 15.136C297.565 14.2 296.749 13.48 295.765 12.976C294.805 12.448 293.713 12.184 292.489 12.184C291.721 12.184 291.073 12.208 290.545 12.256C290.041 12.304 289.657 12.424 289.393 12.616C289.129 12.808 288.997 13.12 288.997 13.552V29.248C288.997 30.04 289.141 30.664 289.429 31.12C289.741 31.576 290.185 31.912 290.761 32.128C291.361 32.32 292.069 32.416 292.885 32.416ZM307.561 34.18C307.297 34.18 307.069 34.132 306.877 34.036C306.709 33.964 306.625 33.82 306.625 33.604C306.625 33.364 306.697 33.196 306.841 33.1C307.009 32.98 307.225 32.884 307.489 32.812C308.185 32.62 308.785 32.32 309.289 31.912C309.817 31.504 310.213 31 310.477 30.4C311.077 29.056 311.641 27.736 312.169 26.44C312.697 25.12 313.213 23.824 313.717 22.552C314.221 21.256 314.725 19.948 315.229 18.628C315.733 17.284 316.237 15.928 316.741 14.56C317.101 13.576 317.329 12.868 317.425 12.436C317.521 11.98 317.593 11.716 317.641 11.644C318.073 11.524 318.481 11.416 318.865 11.32C319.249 11.224 319.657 11.092 320.089 10.924C320.521 10.756 320.881 10.54 321.169 10.276C321.481 10.012 321.709 9.808 321.853 9.664C321.949 9.592 322.045 9.556 322.141 9.556C322.237 9.532 322.333 9.604 322.429 9.772C322.501 9.916 322.561 10.072 322.609 10.24C322.681 10.384 322.741 10.552 322.789 10.744C323.293 12.352 323.809 13.996 324.337 15.676C324.865 17.332 325.393 18.988 325.921 20.644C326.473 22.3 327.013 23.944 327.541 25.576C328.069 27.184 328.585 28.756 329.089 30.292C329.233 30.772 329.449 31.18 329.737 31.516C330.049 31.852 330.397 32.116 330.781 32.308C331.165 32.5 331.597 32.668 332.077 32.812C332.341 32.884 332.545 32.98 332.689 33.1C332.857 33.196 332.941 33.352 332.941 33.568C332.941 33.736 332.869 33.868 332.725 33.964C332.581 34.06 332.413 34.108 332.221 34.108C331.741 34.108 331.141 34.084 330.421 34.036C329.725 34.012 329.017 33.988 328.297 33.964C327.577 33.94 326.941 33.928 326.389 33.928C325.933 33.928 325.369 33.94 324.697 33.964C324.049 33.988 323.389 34.012 322.717 34.036C322.045 34.06 321.469 34.072 320.989 34.072C320.773 34.072 320.581 34.036 320.413 33.964C320.269 33.868 320.197 33.736 320.197 33.568C320.197 33.352 320.281 33.184 320.449 33.064C320.617 32.944 320.821 32.86 321.061 32.812C321.949 32.62 322.597 32.368 323.005 32.056C323.413 31.744 323.545 31.276 323.401 30.652C323.305 30.196 323.185 29.716 323.041 29.212C322.897 28.708 322.753 28.204 322.609 27.7C322.489 27.172 322.357 26.668 322.213 26.188C322.165 25.996 322.105 25.852 322.033 25.756C321.961 25.66 321.817 25.612 321.601 25.612H315.229C315.061 25.612 314.929 25.66 314.833 25.756C314.737 25.852 314.665 26.008 314.617 26.224C314.521 26.56 314.413 26.896 314.293 27.232C314.173 27.568 314.053 27.904 313.933 28.24C313.837 28.576 313.741 28.912 313.645 29.248C313.549 29.584 313.453 29.908 313.357 30.22C313.189 30.94 313.261 31.492 313.573 31.876C313.885 32.26 314.557 32.572 315.589 32.812C316.165 32.932 316.453 33.184 316.453 33.568C316.453 33.736 316.381 33.868 316.237 33.964C316.117 34.036 315.913 34.072 315.625 34.072C314.929 34.072 314.281 34.048 313.681 34C313.081 33.976 312.421 33.964 311.701 33.964C310.981 33.964 310.297 34 309.649 34.072C309.001 34.144 308.305 34.18 307.561 34.18ZM316.237 23.668H320.917C321.277 23.668 321.457 23.584 321.457 23.416C321.457 23.344 321.445 23.284 321.421 23.236C321.421 23.188 321.409 23.128 321.385 23.056L318.973 14.92C318.901 14.656 318.829 14.524 318.757 14.524C318.709 14.524 318.625 14.656 318.505 14.92L315.661 23.056C315.613 23.152 315.589 23.248 315.589 23.344C315.589 23.464 315.649 23.548 315.769 23.596C315.913 23.644 316.069 23.668 316.237 23.668ZM346.45 34.504C344.794 34.504 343.21 34.228 341.698 33.676C340.21 33.1 338.878 32.296 337.702 31.264C336.55 30.208 335.638 28.96 334.966 27.52C334.318 26.056 333.994 24.436 333.994 22.66C333.994 21.028 334.258 19.468 334.786 17.98C335.338 16.468 336.154 15.124 337.234 13.948C338.314 12.772 339.646 11.836 341.23 11.14C342.838 10.444 344.686 10.096 346.774 10.096C348.454 10.096 350.038 10.384 351.526 10.96C353.038 11.512 354.37 12.316 355.522 13.372C356.674 14.404 357.586 15.652 358.258 17.116C358.93 18.556 359.266 20.164 359.266 21.94C359.266 23.548 358.99 25.108 358.438 26.62C357.886 28.132 357.07 29.476 355.99 30.652C354.91 31.828 353.566 32.764 351.958 33.46C350.374 34.156 348.538 34.504 346.45 34.504ZM347.098 32.848C348.466 32.848 349.606 32.464 350.518 31.696C351.454 30.928 352.15 29.86 352.606 28.492C353.062 27.124 353.29 25.552 353.29 23.776C353.29 22.312 353.146 20.872 352.858 19.456C352.594 18.016 352.162 16.72 351.562 15.568C350.986 14.416 350.242 13.504 349.33 12.832C348.418 12.136 347.338 11.788 346.09 11.788C344.746 11.788 343.606 12.172 342.67 12.94C341.758 13.708 341.074 14.764 340.618 16.108C340.162 17.452 339.934 19.012 339.934 20.788C339.934 22.276 340.078 23.74 340.366 25.18C340.654 26.596 341.086 27.88 341.662 29.032C342.238 30.184 342.97 31.108 343.858 31.804C344.77 32.5 345.85 32.848 347.098 32.848Z" fill="black"/>
</svg>
