<svg width="211" height="73" viewBox="0 0 211 73" fill="none" xmlns="http://www.w3.org/2000/svg">
<path d="M11.643 66L6.10298 52H8.10298L13.743 66H11.643ZM0.362983 66L6.00298 52H8.00298L2.46298 66H0.362983ZM3.02298 62.26V60.5H11.083V62.26H3.02298ZM15.6935 66V52H17.6535V66H15.6935ZM25.7408 66.24C24.9941 66.24 24.3141 66.1533 23.7008 65.98C23.1008 65.8067 22.5741 65.5733 22.1208 65.28C21.6808 64.9733 21.3141 64.6333 21.0208 64.26C20.7275 63.8867 20.5208 63.4933 20.4008 63.08L22.3008 62.46C22.5008 63.0067 22.8808 63.48 23.4408 63.88C24.0008 64.28 24.6875 64.4867 25.5008 64.5C26.4875 64.5 27.2608 64.3067 27.8208 63.92C28.3941 63.52 28.6808 62.9933 28.6808 62.34C28.6808 61.74 28.4341 61.2533 27.9408 60.88C27.4475 60.4933 26.7941 60.2 25.9808 60L24.3608 59.58C23.7208 59.4067 23.1341 59.16 22.6008 58.84C22.0808 58.52 21.6675 58.1133 21.3608 57.62C21.0541 57.1267 20.9008 56.5333 20.9008 55.84C20.9008 54.56 21.3141 53.56 22.1408 52.84C22.9808 52.12 24.1875 51.76 25.7608 51.76C26.6675 51.76 27.4541 51.9067 28.1208 52.2C28.7875 52.48 29.3341 52.8533 29.7608 53.32C30.2008 53.7867 30.5141 54.3 30.7008 54.86L28.8008 55.5C28.5741 54.9 28.1875 54.42 27.6408 54.06C27.0941 53.6867 26.4208 53.5 25.6208 53.5C24.7808 53.5 24.1141 53.7 23.6208 54.1C23.1408 54.5 22.9008 55.0467 22.9008 55.74C22.9008 56.3267 23.0875 56.78 23.4608 57.1C23.8475 57.4067 24.3608 57.64 25.0008 57.8L26.6208 58.2C27.9275 58.52 28.9341 59.0533 29.6408 59.8C30.3608 60.5333 30.7208 61.34 30.7208 62.22C30.7208 62.98 30.5275 63.6667 30.1408 64.28C29.7675 64.88 29.2075 65.36 28.4608 65.72C27.7275 66.0667 26.8208 66.24 25.7408 66.24ZM47.8497 66V52H49.8097V66H47.8497ZM38.3497 66V52H40.3097V66H38.3497ZM39.9897 59.7V57.9H48.4697V59.7H39.9897ZM57.4292 66.24C56.4292 66.24 55.5492 66.02 54.7892 65.58C54.0292 65.1267 53.4292 64.5067 52.9892 63.72C52.5626 62.9333 52.3492 62.0267 52.3492 61C52.3492 59.9733 52.5626 59.0667 52.9892 58.28C53.4159 57.4933 54.0092 56.88 54.7692 56.44C55.5292 55.9867 56.4026 55.76 57.3892 55.76C58.3759 55.76 59.2492 55.9867 60.0092 56.44C60.7692 56.88 61.3626 57.4933 61.7892 58.28C62.2159 59.0667 62.4292 59.9733 62.4292 61C62.4292 62.0267 62.2159 62.9333 61.7892 63.72C61.3626 64.5067 60.7692 65.1267 60.0092 65.58C59.2626 66.02 58.4026 66.24 57.4292 66.24ZM57.4292 64.5C58.0292 64.5 58.5626 64.3533 59.0292 64.06C59.4959 63.7533 59.8559 63.34 60.1092 62.82C60.3759 62.3 60.5092 61.6933 60.5092 61C60.5092 60.3067 60.3759 59.7 60.1092 59.18C59.8559 58.66 59.4892 58.2533 59.0092 57.96C58.5292 57.6533 57.9892 57.5 57.3892 57.5C56.7759 57.5 56.2359 57.6533 55.7692 57.96C55.3026 58.2533 54.9359 58.66 54.6692 59.18C54.4026 59.7 54.2692 60.3067 54.2692 61C54.2692 61.6933 54.4026 62.3 54.6692 62.82C54.9359 63.34 55.3092 63.7533 55.7892 64.06C56.2692 64.3533 56.8159 64.5 57.4292 64.5ZM64.5108 66V52H66.4108V66H64.5108ZM76.362 66L76.282 64.14V52H78.162V66H76.362ZM73.002 66.24C72.0954 66.24 71.302 66.02 70.622 65.58C69.9554 65.14 69.4287 64.5267 69.042 63.74C68.6687 62.9533 68.482 62.04 68.482 61C68.482 59.9467 68.6687 59.0333 69.042 58.26C69.4287 57.4733 69.9554 56.86 70.622 56.42C71.302 55.98 72.0954 55.76 73.002 55.76C73.842 55.76 74.5687 55.98 75.182 56.42C75.8087 56.86 76.2887 57.4733 76.622 58.26C76.9554 59.0333 77.122 59.9467 77.122 61C77.122 62.04 76.9554 62.9533 76.622 63.74C76.2887 64.5267 75.8087 65.14 75.182 65.58C74.5687 66.02 73.842 66.24 73.002 66.24ZM73.442 64.52C74.002 64.52 74.4954 64.3733 74.922 64.08C75.3487 63.7733 75.682 63.36 75.922 62.84C76.162 62.3067 76.282 61.6933 76.282 61C76.282 60.3067 76.162 59.7 75.922 59.18C75.682 58.6467 75.3487 58.2333 74.922 57.94C74.4954 57.6333 73.9954 57.48 73.422 57.48C72.8354 57.48 72.3154 57.6333 71.862 57.94C71.4087 58.2333 71.0554 58.6467 70.802 59.18C70.5487 59.7 70.422 60.3067 70.422 61C70.422 61.6933 70.5487 62.3067 70.802 62.84C71.0687 63.36 71.4287 63.7733 71.882 64.08C72.3354 64.3733 72.8554 64.52 73.442 64.52ZM80.9199 66V56H82.8199V66H80.9199ZM81.8799 53.88C81.5732 53.88 81.3065 53.7667 81.0799 53.54C80.8532 53.3 80.7399 53.0267 80.7399 52.72C80.7399 52.4 80.8532 52.1333 81.0799 51.92C81.3065 51.6933 81.5732 51.58 81.8799 51.58C82.1999 51.58 82.4665 51.6933 82.6799 51.92C82.9065 52.1333 83.0199 52.4 83.0199 52.72C83.0199 53.0267 82.9065 53.3 82.6799 53.54C82.4665 53.7667 82.1999 53.88 81.8799 53.88ZM85.6045 66V56H87.3845L87.5045 57.84V66H85.6045ZM92.5245 66V60.88H94.4245V66H92.5245ZM92.5245 60.88C92.5245 59.9733 92.4179 59.2867 92.2045 58.82C92.0045 58.34 91.7179 58.0067 91.3445 57.82C90.9845 57.6333 90.5645 57.5333 90.0845 57.52C89.2712 57.52 88.6379 57.8067 88.1845 58.38C87.7312 58.9533 87.5045 59.76 87.5045 60.8H86.6845C86.6845 59.7467 86.8379 58.8467 87.1445 58.1C87.4645 57.34 87.9112 56.76 88.4845 56.36C89.0712 55.96 89.7645 55.76 90.5645 55.76C91.3512 55.76 92.0312 55.92 92.6045 56.24C93.1912 56.56 93.6379 57.06 93.9445 57.74C94.2645 58.4067 94.4245 59.2867 94.4245 60.38V60.88H92.5245ZM100.955 70.26C100.289 70.26 99.6822 70.1933 99.1355 70.06C98.5888 69.94 98.1288 69.8 97.7555 69.64C97.3822 69.48 97.1022 69.34 96.9155 69.22L97.6355 67.68C97.8088 67.7867 98.0555 67.9067 98.3755 68.04C98.6955 68.1867 99.0688 68.3067 99.4955 68.4C99.9222 68.5067 100.395 68.56 100.915 68.56C101.529 68.56 102.075 68.4333 102.555 68.18C103.035 67.94 103.409 67.56 103.675 67.04C103.955 66.52 104.095 65.8533 104.095 65.04V56H105.995V65C105.995 66.1467 105.775 67.1067 105.335 67.88C104.909 68.6667 104.315 69.26 103.555 69.66C102.809 70.06 101.942 70.26 100.955 70.26ZM100.775 65.86C99.8688 65.86 99.0755 65.6533 98.3955 65.24C97.7288 64.8133 97.2022 64.2267 96.8155 63.48C96.4422 62.72 96.2555 61.8467 96.2555 60.86C96.2555 59.8333 96.4422 58.94 96.8155 58.18C97.2022 57.42 97.7288 56.8267 98.3955 56.4C99.0755 55.9733 99.8688 55.76 100.775 55.76C101.602 55.76 102.322 55.9733 102.935 56.4C103.562 56.8267 104.042 57.4267 104.375 58.2C104.722 58.96 104.895 59.8533 104.895 60.88C104.895 61.8667 104.722 62.74 104.375 63.5C104.042 64.2467 103.562 64.8267 102.935 65.24C102.322 65.6533 101.602 65.86 100.775 65.86ZM101.255 64.26C101.815 64.26 102.302 64.1133 102.715 63.82C103.129 63.5133 103.455 63.1067 103.695 62.6C103.935 62.08 104.055 61.4867 104.055 60.82C104.055 60.1533 103.935 59.5667 103.695 59.06C103.455 58.5533 103.122 58.16 102.695 57.88C102.282 57.5867 101.795 57.44 101.235 57.44C100.649 57.44 100.129 57.5867 99.6755 57.88C99.2355 58.16 98.8888 58.5533 98.6355 59.06C98.3822 59.5667 98.2555 60.1533 98.2555 60.82C98.2555 61.4867 98.3822 62.08 98.6355 62.6C98.9022 63.1067 99.2555 63.5133 99.6955 63.82C100.149 64.1133 100.669 64.26 101.255 64.26ZM112.212 66.24C111.505 66.24 110.872 66.1333 110.312 65.92C109.765 65.7067 109.299 65.42 108.912 65.06C108.539 64.7 108.259 64.2933 108.072 63.84L109.712 63.12C109.925 63.5333 110.245 63.8733 110.672 64.14C111.099 64.4067 111.572 64.54 112.092 64.54C112.665 64.54 113.139 64.4333 113.512 64.22C113.885 64.0067 114.072 63.7067 114.072 63.32C114.072 62.9467 113.932 62.6533 113.652 62.44C113.372 62.2267 112.965 62.0533 112.432 61.92L111.492 61.68C110.559 61.4267 109.832 61.0467 109.312 60.54C108.805 60.0333 108.552 59.46 108.552 58.82C108.552 57.8467 108.865 57.0933 109.492 56.56C110.119 56.0267 111.045 55.76 112.272 55.76C112.872 55.76 113.419 55.8467 113.912 56.02C114.419 56.1933 114.845 56.44 115.192 56.76C115.552 57.08 115.805 57.46 115.952 57.9L114.352 58.62C114.192 58.22 113.919 57.9267 113.532 57.74C113.145 57.54 112.692 57.44 112.172 57.44C111.639 57.44 111.219 57.56 110.912 57.8C110.605 58.0267 110.452 58.3467 110.452 58.76C110.452 58.9867 110.579 59.2067 110.832 59.42C111.099 59.62 111.485 59.7867 111.992 59.92L113.072 60.18C113.725 60.34 114.265 60.5867 114.692 60.92C115.119 61.24 115.439 61.6067 115.652 62.02C115.865 62.42 115.972 62.84 115.972 63.28C115.972 63.88 115.805 64.4067 115.472 64.86C115.152 65.3 114.705 65.64 114.132 65.88C113.572 66.12 112.932 66.24 112.212 66.24ZM129.651 66.24C128.238 66.24 126.978 65.9333 125.871 65.32C124.778 64.6933 123.918 63.84 123.291 62.76C122.678 61.6667 122.371 60.42 122.371 59.02C122.371 57.5933 122.678 56.34 123.291 55.26C123.918 54.1667 124.778 53.3133 125.871 52.7C126.978 52.0733 128.238 51.76 129.651 51.76C130.424 51.76 131.164 51.8867 131.871 52.14C132.591 52.38 133.238 52.72 133.811 53.16C134.398 53.5867 134.871 54.08 135.231 54.64L133.651 55.68C133.384 55.2667 133.038 54.9 132.611 54.58C132.184 54.26 131.711 54.0133 131.191 53.84C130.684 53.6533 130.171 53.56 129.651 53.56C128.624 53.56 127.711 53.7933 126.911 54.26C126.124 54.7267 125.504 55.3667 125.051 56.18C124.598 56.9933 124.371 57.94 124.371 59.02C124.371 60.0733 124.591 61.0067 125.031 61.82C125.484 62.6333 126.111 63.2733 126.911 63.74C127.724 64.2067 128.651 64.44 129.691 64.44C130.531 64.44 131.278 64.2667 131.931 63.92C132.598 63.5733 133.118 63.0867 133.491 62.46C133.878 61.8333 134.071 61.1067 134.071 60.28L135.971 60.1C135.971 61.34 135.698 62.42 135.151 63.34C134.618 64.26 133.878 64.9733 132.931 65.48C131.984 65.9867 130.891 66.24 129.651 66.24ZM130.671 60.4V58.76H135.971V60.2L134.971 60.4H130.671ZM139.108 60.62C139.108 59.54 139.315 58.66 139.728 57.98C140.142 57.3 140.675 56.7933 141.328 56.46C141.982 56.1267 142.668 55.96 143.388 55.96V57.76C142.788 57.76 142.215 57.8533 141.668 58.04C141.135 58.2133 140.695 58.5067 140.348 58.92C140.015 59.32 139.848 59.8667 139.848 60.56L139.108 60.62ZM137.948 66V56H139.848V66H137.948ZM149.441 66.24C148.441 66.24 147.561 66.02 146.801 65.58C146.041 65.1267 145.441 64.5067 145.001 63.72C144.574 62.9333 144.361 62.0267 144.361 61C144.361 59.9733 144.574 59.0667 145.001 58.28C145.428 57.4933 146.021 56.88 146.781 56.44C147.541 55.9867 148.414 55.76 149.401 55.76C150.388 55.76 151.261 55.9867 152.021 56.44C152.781 56.88 153.374 57.4933 153.801 58.28C154.228 59.0667 154.441 59.9733 154.441 61C154.441 62.0267 154.228 62.9333 153.801 63.72C153.374 64.5067 152.781 65.1267 152.021 65.58C151.274 66.02 150.414 66.24 149.441 66.24ZM149.441 64.5C150.041 64.5 150.574 64.3533 151.041 64.06C151.508 63.7533 151.868 63.34 152.121 62.82C152.388 62.3 152.521 61.6933 152.521 61C152.521 60.3067 152.388 59.7 152.121 59.18C151.868 58.66 151.501 58.2533 151.021 57.96C150.541 57.6533 150.001 57.5 149.401 57.5C148.788 57.5 148.248 57.6533 147.781 57.96C147.314 58.2533 146.948 58.66 146.681 59.18C146.414 59.7 146.281 60.3067 146.281 61C146.281 61.6933 146.414 62.3 146.681 62.82C146.948 63.34 147.321 63.7533 147.801 64.06C148.281 64.3533 148.828 64.5 149.441 64.5ZM163.323 66L163.203 64.16V56H165.083V66H163.323ZM156.283 61.12V56H158.183V61.12H156.283ZM158.183 61.12C158.183 62.0133 158.283 62.7 158.483 63.18C158.696 63.66 158.989 63.9933 159.363 64.18C159.736 64.3667 160.156 64.4667 160.623 64.48C161.436 64.48 162.069 64.1933 162.523 63.62C162.976 63.0467 163.203 62.24 163.203 61.2H164.023C164.023 62.2533 163.863 63.16 163.543 63.92C163.236 64.6667 162.796 65.24 162.223 65.64C161.649 66.04 160.949 66.24 160.123 66.24C159.349 66.24 158.669 66.08 158.083 65.76C157.509 65.44 157.063 64.94 156.743 64.26C156.436 63.58 156.283 62.7 156.283 61.62V61.12H158.183ZM167.833 70V56H169.613L169.733 57.84V70H167.833ZM173.013 66.24C172.173 66.24 171.44 66.02 170.813 65.58C170.2 65.14 169.727 64.5267 169.393 63.74C169.06 62.9533 168.893 62.04 168.893 61C168.893 59.9467 169.06 59.0333 169.393 58.26C169.727 57.4733 170.2 56.86 170.813 56.42C171.44 55.98 172.173 55.76 173.013 55.76C173.907 55.76 174.693 55.98 175.373 56.42C176.053 56.86 176.58 57.4733 176.953 58.26C177.34 59.0333 177.533 59.9467 177.533 61C177.533 62.04 177.34 62.9533 176.953 63.74C176.58 64.5267 176.053 65.14 175.373 65.58C174.693 66.02 173.907 66.24 173.013 66.24ZM172.553 64.52C173.153 64.52 173.68 64.3733 174.133 64.08C174.587 63.7733 174.94 63.36 175.193 62.84C175.46 62.3067 175.593 61.6933 175.593 61C175.593 60.3067 175.467 59.7 175.213 59.18C174.96 58.6467 174.607 58.2333 174.153 57.94C173.7 57.6333 173.173 57.48 172.573 57.48C172.027 57.48 171.533 57.6333 171.093 57.94C170.667 58.2333 170.333 58.6467 170.093 59.18C169.853 59.7133 169.733 60.32 169.733 61C169.733 61.6933 169.853 62.3067 170.093 62.84C170.333 63.36 170.667 63.7733 171.093 64.08C171.52 64.3733 172.007 64.52 172.553 64.52ZM184.951 66V52H186.911V66H184.951ZM190.019 66V56H191.799L191.919 57.84V66H190.019ZM196.939 66V60.88H198.839V66H196.939ZM196.939 60.88C196.939 59.9733 196.832 59.2867 196.619 58.82C196.419 58.34 196.132 58.0067 195.759 57.82C195.399 57.6333 194.979 57.5333 194.499 57.52C193.685 57.52 193.052 57.8067 192.599 58.38C192.145 58.9533 191.919 59.76 191.919 60.8H191.099C191.099 59.7467 191.252 58.8467 191.559 58.1C191.879 57.34 192.325 56.76 192.899 56.36C193.485 55.96 194.179 55.76 194.979 55.76C195.765 55.76 196.445 55.92 197.019 56.24C197.605 56.56 198.052 57.06 198.359 57.74C198.679 58.4067 198.839 59.2867 198.839 60.38V60.88H196.939ZM205.79 66.24C204.79 66.24 203.903 66.02 203.13 65.58C202.356 65.1267 201.75 64.5067 201.31 63.72C200.883 62.9333 200.67 62.0267 200.67 61C200.67 59.9733 200.883 59.0667 201.31 58.28C201.75 57.4933 202.35 56.88 203.11 56.44C203.883 55.9867 204.763 55.76 205.75 55.76C206.723 55.76 207.596 55.9867 208.37 56.44C209.156 56.8933 209.743 57.54 210.13 58.38L208.41 59.1C208.156 58.6067 207.79 58.22 207.31 57.94C206.843 57.66 206.303 57.52 205.69 57.52C205.09 57.52 204.556 57.6667 204.09 57.96C203.623 58.2533 203.256 58.6667 202.99 59.2C202.723 59.72 202.59 60.32 202.59 61C202.59 61.68 202.723 62.28 202.99 62.8C203.256 63.32 203.63 63.7333 204.11 64.04C204.59 64.3333 205.13 64.48 205.73 64.48C206.343 64.48 206.89 64.3267 207.37 64.02C207.85 63.7 208.21 63.2733 208.45 62.74L210.19 63.44C209.803 64.32 209.216 65.0067 208.43 65.5C207.656 65.9933 206.776 66.24 205.79 66.24Z" fill="white"/>
<circle cx="20.183" cy="20" r="20" fill="#849DF6" fill-opacity="0.6"/>
<mask id="mask0_1_308" style="mask-type:alpha" maskUnits="userSpaceOnUse" x="0" y="0" width="41" height="40">
<circle cx="20.183" cy="20" r="20" fill="white"/>
</mask>
<g mask="url(#mask0_1_308)">
<g filter="url(#filter0_f_1_308)">
<ellipse cx="17.459" cy="15.9537" rx="17.459" ry="15.9537" transform="matrix(0.767494 0.641056 0.641056 -0.767494 0.667847 17.6406)" fill="#2500C8"/>
</g>
<g filter="url(#filter1_f_1_308)">
<ellipse cx="17.0978" cy="15.6492" rx="17.0978" ry="15.6492" transform="matrix(0.767494 0.641056 0.641056 -0.767494 -5.08044 25.0405)" fill="#00B70C" fill-opacity="0.9"/>
</g>
</g>
<defs>
<filter id="filter0_f_1_308" x="0.173706" y="-7.26398" width="48.2421" height="47.7047" filterUnits="userSpaceOnUse" color-interpolation-filters="sRGB">
<feFlood flood-opacity="0" result="BackgroundImageFix"/>
<feBlend mode="normal" in="SourceGraphic" in2="BackgroundImageFix" result="shape"/>
<feGaussianBlur stdDeviation="3.63174" result="effect1_foregroundBlur_1_308"/>
</filter>
<filter id="filter1_f_1_308" x="-5.70819" y="0.46698" width="47.5645" height="47.0475" filterUnits="userSpaceOnUse" color-interpolation-filters="sRGB">
<feFlood flood-opacity="0" result="BackgroundImageFix"/>
<feBlend mode="normal" in="SourceGraphic" in2="BackgroundImageFix" result="shape"/>
<feGaussianBlur stdDeviation="3.63174" result="effect1_foregroundBlur_1_308"/>
</filter>
</defs>
</svg>
