<svg width="220" height="35" viewBox="0 0 220 35" fill="none" xmlns="http://www.w3.org/2000/svg">
<g clip-path="url(#clip0_26_2)">
<path d="M34.4034 17.2074C34.4034 7.72229 26.6925 0 17.2074 0C7.72229 0 0 7.72229 0 17.2074C0 26.6925 7.72229 34.4148 17.2074 34.4148C20.0052 34.4148 22.6437 33.7324 24.9752 32.5383L25.8395 32.072C30.9574 29.0922 34.4148 23.5536 34.4148 17.2188L34.4034 17.2074ZM17.2074 3.3323C24.8501 3.3323 31.0711 9.55335 31.0711 17.2074C31.0711 20.8695 29.6268 24.2018 27.3067 26.6811L23.9175 20.8695C24.5658 20.5966 25.123 20.244 25.6007 19.8346C26.0784 19.4251 26.4764 18.9475 26.7949 18.4243C27.1133 17.9012 27.3522 17.3439 27.5114 16.7639C27.682 16.1838 27.7616 15.5924 27.7616 14.9783C27.7616 14.1708 27.6137 13.3747 27.3294 12.6013C27.0451 11.828 26.6129 11.1342 26.0329 10.5201C25.4529 9.90591 24.725 9.41687 23.8606 9.04156C22.9963 8.66625 21.9727 8.47291 20.8127 8.47291H6.45988C9.00744 5.3567 12.8743 3.35505 17.2074 3.35505V3.3323ZM3.3323 17.2074C3.3323 15.7744 3.54839 14.3869 3.95782 13.079H20.0052C20.8354 13.079 21.4495 13.2723 21.859 13.6476C22.2684 14.023 22.4731 14.4551 22.4731 14.9328C22.4731 15.4105 22.2684 15.8426 21.859 16.2293C21.4495 16.616 20.8354 16.8093 20.0052 16.8093H13.7955L8.72312 21.4609V28.1483C5.44768 25.6121 3.32093 21.6429 3.32093 17.196L3.3323 17.2074ZM17.2074 31.0711C16.127 31.0711 15.0693 30.9347 14.0571 30.6958V21.4382H18.5949L23.3147 29.6268C21.4723 30.5366 19.4024 31.0598 17.2074 31.0598V31.0711Z" fill="#CE0016"/>
<path d="M42.1712 28.8763V21.1995L48.2785 15.5926H55.7506C56.7514 15.5926 57.5021 15.3538 57.9797 14.8875C58.4574 14.4212 58.719 13.898 58.719 13.318C58.719 12.738 58.4688 12.2262 57.9797 11.7713C57.4907 11.3164 56.7514 11.0889 55.7506 11.0889H42.1712V5.51611H56.7173C58.1162 5.51611 59.3445 5.74357 60.3908 6.1985C61.4371 6.65342 62.3129 7.24481 63.0066 7.98406C63.7117 8.72331 64.2235 9.55354 64.5761 10.4861C64.9173 11.4187 65.0993 12.3741 65.0993 13.3521C65.0993 14.0914 64.9969 14.8079 64.8036 15.5016C64.6102 16.1954 64.3145 16.8664 63.9392 17.5033C63.5639 18.1402 63.0862 18.7088 62.5062 19.2092C61.9262 19.7097 61.2438 20.1305 60.4704 20.4603L65.7361 28.865H59.3331L54.5223 21.154H48.5856V28.865H42.1826L42.1712 28.8763Z" fill="white"/>
<path d="M69.9783 28.8763V5.51611H76.3813V28.865H69.9783V28.8763Z" fill="white"/>
<path d="M80.6235 18.0943L86.7308 12.4874V23.4624H90.9388C91.9624 23.4624 92.8495 23.2804 93.6115 22.9279C94.3621 22.5753 94.999 22.109 95.5108 21.529C96.0225 20.949 96.4092 20.2893 96.6594 19.5387C96.9096 18.7881 97.0461 18.0375 97.0461 17.2869C97.0461 16.5362 96.921 15.7515 96.6594 15.0009C96.3979 14.2503 96.0225 13.5906 95.5108 13.0106C94.999 12.4306 94.3621 11.9643 93.6115 11.6117C92.8495 11.2592 91.9624 11.0772 90.9388 11.0772H80.6348V5.50439H92.2808C94.146 5.50439 95.7951 5.83421 97.2053 6.50522C98.6156 7.17623 99.787 8.05195 100.72 9.15514C101.652 10.2583 102.357 11.498 102.824 12.8855C103.29 14.273 103.529 15.706 103.529 17.1731C103.529 18.6403 103.29 20.0733 102.824 21.4608C102.357 22.8483 101.652 24.0993 100.72 25.2025C99.787 26.3057 98.6156 27.1928 97.2053 27.8524C95.7951 28.5234 94.146 28.8532 92.2808 28.8532H80.6348V18.0716L80.6235 18.0943Z" fill="white"/>
<path d="M127.549 5.51611V11.0889H114.174V14.5349H127.549L122.601 19.63H114.208V23.3035H127.56V28.8763H107.771V5.51611H127.56H127.549Z" fill="white"/>
<path d="M194.991 8.7915H188.667V13.0336L194.991 8.7915Z" fill="white"/>
<path d="M188.667 14.3985V28.8764H194.991V10.0312L188.667 14.3985Z" fill="white"/>
<path d="M199.29 28.8763V8.7915H215.508L220 15.0012V28.8763H214.052V17.0824L212.255 14.5918H205.522V28.8649H199.29V28.8763Z" fill="white"/>
<path d="M137 28.8877V5.51611H158.79V12.2035L153.024 15.7632V11.1458H143.266V23.2808H158.335V28.8877H137Z" fill="white"/>
<path d="M162.805 28.8761V14.5916L168.594 8.80273H184.311V23.0873L178.523 28.8761H162.805ZM176.043 23.2237L177.954 21.0515V14.4324H171.085L169.174 16.6046V23.2237H176.043Z" fill="white"/>
</g>
<defs>
<clipPath id="clip0_26_2">
<rect width="220" height="34.4034" fill="white"/>
</clipPath>
</defs>
</svg>
