<svg width="343" height="29" viewBox="0 0 343 29" fill="none" xmlns="http://www.w3.org/2000/svg">
<path d="M13.9816 4.15303C15.4263 2.69702 17.109 1.63349 18.9 0.941358C13.8627 -1.00211 7.94155 0.061418 3.88154 4.15303L0.732968 7.32673C-0.244323 8.31217 -0.244323 9.90746 0.732968 10.8929L13.9625 24.225C8.47694 18.6752 8.48331 9.69433 13.9816 4.15303Z" fill="#18539E"/>
<path d="M37.0669 7.32656L33.9184 4.15287C29.8562 0.0612515 23.9373 -1.00227 18.9 0.943301C20.691 1.63544 22.3736 2.69896 23.8183 4.15498C29.3166 9.69628 29.323 18.6772 23.8374 24.2269L37.0669 10.8949C38.0442 9.90941 38.0442 8.31412 37.0669 7.32867V7.32656Z" fill="#4FBCEC"/>
<path d="M23.8181 4.15552C22.3734 2.69951 20.6908 1.63598 18.8998 0.943848C17.1088 1.63598 15.4262 2.69951 13.9815 4.15552C8.48317 9.69683 8.4768 18.6777 13.9624 24.2274L17.1322 27.4222C17.6208 27.9139 18.2603 28.1608 18.8998 28.1608C19.5393 28.1608 20.1788 27.9139 20.6674 27.4222L23.8373 24.2274C29.3228 18.6777 29.3165 9.69683 23.8181 4.15552Z" fill="#228FCE"/>
<path d="M66.1152 14.279L73.3799 1.28125H79.4306V26.8981H73.3419V12.4221L67.7939 22.6707H64.3133L58.8885 12.5393V26.9071H52.7998V1.28125H58.8126L66.1152 14.279Z" fill="white"/>
<path d="M101.158 1.28125V6.40101H90.6117V11.0791H99.9818V16.1989H90.6117V21.7693H101.158V26.8891H84.1248V1.28125H101.158Z" fill="white"/>
<path d="M118.808 26.8981L114.313 17.2084H110.956V26.8981H104.469V1.28125H114.626C120.838 1.28125 124.821 3.99437 124.821 9.33947C124.821 12.6835 123.256 14.946 120.525 16.1358L125.912 26.8981H118.799H118.808ZM113.848 12.0886C116.466 12.0886 118.344 11.7551 118.344 9.33947C118.344 6.92381 116.466 6.41003 113.848 6.41003H110.956V12.0886H113.848Z" fill="white"/>
<path d="M142.48 9.18613C142.205 7.55466 141.038 6.03135 138.734 6.03135C136.04 6.03135 134.589 7.88816 134.589 12.0795V16.0906C134.589 20.1017 135.993 22.1388 138.734 22.1388C141.038 22.1388 142.091 21.0211 142.48 18.984H148.654C147.715 24.7347 144.434 27.2585 138.734 27.2585C132.598 27.2585 128.112 23.7342 128.112 16.0816V12.0705C128.112 4.34579 132.607 0.893555 138.734 0.893555C144.083 0.893555 147.753 3.60667 148.654 9.1681H142.48V9.18613Z" fill="white"/>
<path d="M173.415 1.28125V16.5414C173.415 24.1129 168.768 27.2677 162.793 27.2677C156.818 27.2677 152.171 24.1129 152.171 16.5774V1.28125H158.658V16.5774C158.658 20.3271 159.834 22.1479 162.802 22.1479C165.771 22.1479 166.947 20.3271 166.947 16.5774V1.28125H173.434H173.415Z" fill="white"/>
<path d="M192.441 26.8981L187.946 17.2084H184.588V26.8981H178.101V1.28125H188.259C194.471 1.28125 198.454 3.99437 198.454 9.33947C198.454 12.6835 196.889 14.946 194.158 16.1358L199.544 26.8981H192.432H192.441ZM187.481 12.0886C190.099 12.0886 191.976 11.7551 191.976 9.33947C191.976 6.92381 190.099 6.41003 187.481 6.41003H184.588V12.0886H187.481Z" fill="white"/>
<path d="M206.193 1.28125L210.376 10.0786L214.558 1.28125H222.022L213.629 16.6496V26.8981H207.142V16.6496L198.739 1.28125H206.203H206.193Z" fill="white"/>
<path d="M238.846 1.28125L243.882 16.7577L248.966 1.28125H256.031L246.813 26.8981H240.99L231.781 1.28125H238.846Z" fill="white"/>
<path d="M253.698 26.8981L263.068 1.28125H269.318L278.688 26.8981H271.774L270.333 22.5175H262.015L260.612 26.8981H253.698ZM263.694 17.3977H268.654L266.198 9.82621L263.694 17.3977Z" fill="white"/>
<path d="M301.895 1.28125V16.5414C301.895 24.1129 297.248 27.2677 291.273 27.2677C285.298 27.2677 280.651 24.1129 280.651 16.5774V1.28125H287.138V16.5774C287.138 20.3271 288.314 22.1479 291.282 22.1479C294.251 22.1479 295.427 20.3271 295.427 16.5774V1.28125H301.914H301.895Z" fill="white"/>
<path d="M313.067 21.7693H323.613V26.8891H306.58V1.28125H313.067V21.7693Z" fill="white"/>
<path d="M342.6 1.28125V6.40101H335.572V26.8891H329.085V6.40101H322.058V1.28125H342.6Z" fill="white"/>
</svg>
