<svg width="131" height="55" viewBox="0 0 131 55" fill="none" xmlns="http://www.w3.org/2000/svg">
<path d="M1.31176 39.0176L8.6863 38.3085C8.82812 39.5849 9.0763 40.2231 9.60812 40.9321C10.459 41.9958 11.9481 42.5985 13.7563 42.5985C16.4863 42.5985 18.1172 41.3931 18.1172 39.4076C18.1172 38.3085 17.5499 37.3512 16.6281 36.9258C15.8836 36.5712 14.9972 36.3231 11.3099 35.4721C8.04812 34.7631 6.91358 34.3376 5.60176 33.4158C3.36812 31.8558 2.16267 29.4803 2.16267 26.6085C2.16267 21.1485 6.55903 17.7094 13.5436 17.7094C18.0463 17.7094 21.4854 19.0921 23.3999 21.7512C24.2863 22.9212 24.7118 23.9849 25.1727 26.0058L17.6563 26.8212C17.2308 24.5167 15.9545 23.5594 13.2599 23.5594C11.0972 23.5594 9.50176 24.7294 9.50176 26.3603C9.50176 27.3531 10.0336 28.0976 11.1681 28.6294C11.8772 28.9485 11.8772 28.9485 16.0608 29.7994C18.7554 30.3667 20.4572 30.9694 21.8045 31.8203C24.3572 33.4158 25.6336 35.7912 25.6336 39.0531C25.6336 41.7121 24.7827 43.9812 23.1518 45.5767C21.0954 47.5621 17.9754 48.5903 13.8272 48.5903C10.8136 48.5903 7.83539 47.9521 5.92085 46.8531C4.14812 45.8603 2.8363 44.3358 2.09176 42.3149C1.73721 41.464 1.55994 40.6485 1.31176 39.0176ZM50.8301 41.5349V48.1649C49.3056 47.9876 48.0292 47.9167 44.9801 47.9167H33.8119C31.1174 47.9167 30.1247 47.9521 28.6001 48.0231C28.8129 46.6049 28.8838 45.2931 28.8838 42.8467V23.4885C28.8838 21.2903 28.8129 20.0494 28.6001 18.3121C30.0538 18.3831 31.0465 18.4185 33.8119 18.4185H45.1219C47.5329 18.4185 48.7383 18.3476 50.4047 18.1703V24.8003C48.7738 24.6231 47.4974 24.5521 45.1219 24.5521H35.9038V29.764H43.5619C45.9019 29.764 46.7528 29.7285 48.8801 29.5158V36.0749C47.2138 35.8976 46.0083 35.8267 43.5619 35.8267H35.9038V41.7831H45.051C47.7456 41.7831 49.3056 41.7121 50.8301 41.5349ZM53.7557 18.4185H61.5557C61.343 19.8721 61.272 21.0776 61.272 23.6658V42.6694C61.272 45.1158 61.343 46.4276 61.5557 47.9167H53.7557C53.9684 46.534 54.0393 45.0449 54.0393 42.6694V23.6658C54.0393 21.0067 53.9684 19.9785 53.7557 18.4185ZM80.9404 30.0831L89.485 42.6694C91.5768 45.7894 92.0377 46.4276 93.2432 47.9167H84.025C83.5286 46.7821 82.5004 44.9031 81.5786 43.414L76.0832 34.6212L72.5023 38.2021V42.6694C72.5023 44.8676 72.5732 46.0376 72.7859 47.9167H65.2695C65.4823 46.1085 65.5532 44.7967 65.5532 42.6694V23.6658C65.5532 21.5031 65.4823 20.1203 65.2695 18.4185H72.7859C72.5732 20.2621 72.5023 21.4321 72.5023 23.6658V29.9412L79.5577 22.3894C80.9404 20.9358 81.8623 19.7303 82.6423 18.4185H92.215C91.5768 19.0567 91.3286 19.3403 90.8323 19.8367C88.9886 21.6803 88.9886 21.6803 88.3504 22.3185L80.9404 30.0831Z" fill="#1A1A1A" fill-opacity="0.8"/>
<path d="M119.234 36.0985H110.937C110.654 34.3967 110.441 33.4749 110.086 32.2694L109.129 29.2558H99.0245L98.0672 32.2694C97.6063 33.6876 97.3581 34.7867 97.1808 36.0985H88.8845C89.4163 35.0349 89.7354 34.184 90.5863 31.7731L98.2445 10.4294C98.8827 8.69215 99.2018 7.62851 99.379 6.60033H108.633C108.881 7.62851 109.129 8.55033 109.838 10.4294L117.532 31.7731C118.205 33.6521 118.773 35.1058 119.234 36.0985ZM107.392 23.2994L104.024 12.6631L100.726 23.2994H107.392Z" fill="#F05352"/>
<path d="M119.536 18.4185H127.336C127.123 19.8721 127.052 21.0776 127.052 23.6658V42.6694C127.052 45.1158 127.123 46.4276 127.336 47.9167H119.536C119.749 46.534 119.819 45.0449 119.819 42.6694V23.6658C119.819 21.0067 119.749 19.9785 119.536 18.4185Z" fill="#F05050"/>
</svg>
