<svg width="300" height="50" viewBox="0 0 300 50" fill="none" xmlns="http://www.w3.org/2000/svg">
<path d="M232.746 43.5509C232.909 43.5509 233.032 43.6718 233.032 43.8167V48.6427C233.032 48.7878 232.909 48.9087 232.746 48.9087H232.623C232.459 48.9087 232.337 48.7878 232.337 48.6427V48.5058C232.337 48.3608 232.214 48.24 232.067 48.24H228.537C228.373 48.24 228.25 48.1191 228.25 47.9821V47.8371C228.25 47.7001 228.373 47.5792 228.537 47.5792H232.067C232.214 47.5792 232.337 47.4584 232.337 47.2973V44.6627C232.337 44.5016 232.377 44.3807 232.419 44.3807C232.476 44.3807 232.516 44.3163 232.516 44.2196C232.516 44.139 232.435 44.0584 232.337 44.0584C232.255 44.0584 232.173 44.0988 232.173 44.139C232.173 44.1793 232.05 44.2196 231.903 44.2196H228.537C228.373 44.2196 228.25 44.0988 228.25 43.9537V43.8167C228.25 43.6718 228.373 43.5509 228.537 43.5509H232.746Z" fill="white"/>
<path d="M239.524 48.9088H239.377C239.238 48.9088 239.115 48.7879 239.115 48.6428V45.831C239.115 45.686 238.993 45.5652 238.83 45.5652C238.683 45.5652 238.544 45.5893 238.502 45.6297C238.462 45.6699 238.421 45.831 238.421 45.968C238.421 46.1131 238.298 46.2339 238.151 46.2339H237.481C237.334 46.2339 237.171 46.2742 237.13 46.3145C237.089 46.3547 237.072 46.4917 237.072 46.6367C237.072 46.7737 236.95 46.8945 236.787 46.8945H235.969C235.822 46.8945 235.7 46.7737 235.7 46.6367V46.4917C235.7 46.3548 235.822 46.2339 235.969 46.2339H236.64C236.803 46.2339 236.95 46.1936 236.991 46.1694C237.032 46.1292 237.072 45.968 237.072 45.831C237.072 45.686 237.195 45.5652 237.334 45.5652H238.012C238.151 45.5652 238.315 45.5249 238.356 45.4846C238.397 45.4443 238.421 45.3074 238.421 45.1623C238.421 45.0012 238.544 44.8804 238.707 44.8804H238.83C238.993 44.8804 239.115 44.7595 239.115 44.6225V44.4775C239.115 44.3405 239.238 44.2197 239.377 44.2197C239.524 44.2197 239.663 44.1955 239.704 44.1553C239.745 44.1149 239.786 43.9538 239.786 43.8168C239.786 43.6718 239.908 43.551 240.055 43.551C240.194 43.551 240.358 43.5107 240.399 43.4704C240.44 43.4301 240.464 43.2932 240.464 43.1481C240.464 42.987 240.587 42.8903 240.75 42.8903H240.873C241.037 42.8903 241.159 43.0112 241.159 43.1481V43.2931C241.159 43.4301 241.037 43.551 240.873 43.551C240.726 43.551 240.587 43.5752 240.546 43.6154C240.505 43.6558 240.464 43.8169 240.464 43.9538C240.464 44.0988 240.341 44.2197 240.194 44.2197C240.055 44.2197 239.892 44.26 239.851 44.3002C239.827 44.3405 239.786 44.4775 239.786 44.6387V48.6428C239.786 48.7879 239.663 48.9088 239.524 48.9088Z" fill="white"/>
<path d="M244.771 44.2196C244.632 44.2196 244.51 44.0988 244.51 43.9537V43.8167C244.51 43.6718 244.632 43.5509 244.771 43.5509H245.589C245.736 43.5509 245.858 43.6718 245.858 43.8167C245.858 43.9537 245.899 44.1149 245.94 44.1552C245.981 44.1954 246.12 44.2196 246.283 44.2196C246.43 44.2196 246.553 44.3405 246.553 44.4775V44.6224C246.553 44.7594 246.43 44.8803 246.267 44.8803H246.144C245.981 44.8803 245.858 44.7836 245.858 44.6224C245.858 44.4775 245.833 44.3405 245.793 44.3001C245.752 44.2599 245.589 44.2196 245.45 44.2196H244.771ZM244.771 48.9087C244.632 48.9087 244.51 48.7878 244.51 48.6427V48.5058C244.51 48.3608 244.632 48.24 244.771 48.24H245.45C245.589 48.24 245.752 48.1997 245.793 48.1594C245.833 48.1432 245.858 47.9821 245.858 47.8371C245.858 47.7001 245.981 47.5792 246.144 47.5792H246.814C246.961 47.5792 247.1 47.539 247.141 47.4987C247.182 47.4584 247.223 47.3214 247.223 47.1603C247.223 47.0153 247.346 46.8944 247.493 46.8944C247.632 46.8944 247.795 46.8784 247.836 46.838C247.876 46.7978 247.901 46.6366 247.901 46.4916C247.901 46.3547 248.024 46.2338 248.163 46.2338C248.326 46.2338 248.473 46.1936 248.514 46.1693C248.555 46.1291 248.596 45.9679 248.596 45.831C248.596 45.6859 248.694 45.5651 248.857 45.5651C249.004 45.5651 249.143 45.5248 249.184 45.4845C249.225 45.4442 249.266 45.3073 249.266 45.1462V44.4775C249.266 44.3405 249.389 44.2196 249.536 44.2196H249.675C249.822 44.2196 249.944 44.3405 249.944 44.4775V45.2831C249.944 45.4442 249.822 45.5651 249.675 45.5651C249.536 45.5651 249.372 45.5892 249.331 45.6296C249.29 45.6698 249.266 45.831 249.266 45.9679C249.266 46.113 249.143 46.2338 249.004 46.2338C248.857 46.2338 248.694 46.2741 248.653 46.3144C248.612 46.3547 248.596 46.4916 248.596 46.6366C248.596 46.7736 248.473 46.8944 248.31 46.8944C248.163 46.8944 248.024 46.9348 247.983 46.975C247.942 47.0153 247.901 47.1603 247.901 47.3214C247.901 47.4584 247.779 47.5792 247.632 47.5792C247.493 47.5792 247.329 47.5954 247.304 47.6357C247.263 47.676 247.223 47.8371 247.223 47.9821C247.223 48.1191 247.1 48.24 246.961 48.24H246.283C246.12 48.24 245.981 48.2802 245.94 48.3205C245.899 48.3447 245.858 48.5058 245.858 48.6427C245.858 48.7878 245.736 48.9087 245.589 48.9087H244.771Z" fill="white"/>
<path d="M255.665 48.9088H255.518C255.379 48.9088 255.256 48.7879 255.256 48.6428V43.1481C255.256 43.0112 255.379 42.8903 255.518 42.8903H255.665C255.804 42.8903 255.926 43.0112 255.926 43.1481V44.6225C255.926 44.7595 256.049 44.8804 256.196 44.8804H257.013C257.176 44.8804 257.299 45.0012 257.299 45.1623C257.299 45.3074 257.315 45.4443 257.356 45.4846C257.398 45.5249 257.561 45.5652 257.708 45.5652H258.378C258.525 45.5652 258.648 45.686 258.648 45.831C258.648 45.968 258.689 46.1292 258.729 46.1694C258.77 46.1936 258.909 46.2339 259.056 46.2339C259.219 46.2339 259.342 46.3548 259.342 46.4917V46.6367C259.342 46.7737 259.219 46.8945 259.056 46.8945H258.934C258.77 46.8945 258.648 46.7737 258.648 46.6367C258.648 46.4917 258.624 46.3547 258.582 46.3145C258.541 46.2742 258.378 46.2339 258.239 46.2339H257.561C257.422 46.2339 257.299 46.1131 257.299 45.968C257.299 45.831 257.259 45.6699 257.218 45.6297C257.176 45.5893 257.029 45.5652 256.866 45.5652H256.196C256.049 45.5652 255.926 45.686 255.926 45.831V48.6428C255.926 48.7879 255.804 48.9088 255.665 48.9088Z" fill="white"/>
<path d="M267.192 44.8803C267.331 44.8803 267.454 45.0011 267.454 45.1623V46.6366C267.454 46.7736 267.331 46.8944 267.192 46.8944C267.045 46.8944 266.881 46.9348 266.841 46.975C266.8 47.0153 266.784 47.1603 266.784 47.3214C266.784 47.4584 266.661 47.5792 266.514 47.5792C266.375 47.5792 266.211 47.5954 266.171 47.6357C266.129 47.676 266.105 47.8371 266.105 47.9821C266.105 48.1191 265.982 48.24 265.819 48.24C265.681 48.24 265.533 48.2802 265.492 48.3205C265.451 48.3447 265.411 48.5058 265.411 48.6427C265.411 48.7878 265.288 48.9087 265.149 48.9087H263.654C263.49 48.9087 263.367 48.7878 263.367 48.6427V48.5058C263.367 48.3608 263.49 48.24 263.654 48.24H265.002C265.149 48.24 265.312 48.1997 265.353 48.1594C265.394 48.1191 265.411 47.9821 265.411 47.8371C265.411 47.7001 265.533 47.5792 265.681 47.5792C265.844 47.5792 265.982 47.539 266.024 47.4987C266.064 47.4584 266.105 47.3214 266.105 47.1603C266.105 47.0153 266.211 46.8944 266.375 46.8944C266.514 46.8944 266.661 46.8784 266.702 46.838C266.742 46.7978 266.784 46.6366 266.784 46.4916V45.9921C266.784 45.8471 266.824 45.7262 266.865 45.7262C266.906 45.7262 266.947 45.6457 266.947 45.5651C266.947 45.4684 266.865 45.3879 266.784 45.3879C266.677 45.3879 266.62 45.4281 266.62 45.4845C266.62 45.5248 266.498 45.5651 266.334 45.5651H263.654C263.49 45.5651 263.367 45.6859 263.367 45.831V46.6366C263.367 46.7736 263.245 46.8944 263.106 46.8944H262.959C262.82 46.8944 262.698 46.7736 262.698 46.6366V45.1623C262.698 45.0011 262.82 44.8803 262.959 44.8803H264.471C264.618 44.8803 264.741 44.7594 264.741 44.6224V43.8167C264.741 43.6718 264.863 43.5509 265.002 43.5509H265.149C265.288 43.5509 265.411 43.6718 265.411 43.8167V44.6224C265.411 44.7594 265.533 44.8803 265.697 44.8803H267.192Z" fill="white"/>
<path d="M273.538 47.1605C273.538 47.3216 273.563 47.4586 273.603 47.4989C273.644 47.5392 273.807 47.5794 273.946 47.5794C274.094 47.5794 274.216 47.7003 274.216 47.8373V48.6429C274.216 48.788 274.094 48.9089 273.946 48.9089H273.807C273.66 48.9089 273.538 48.788 273.538 48.6429V47.9823C273.538 47.8373 273.497 47.6762 273.456 47.6359C273.415 47.5956 273.276 47.5794 273.113 47.5794C272.966 47.5794 272.843 47.4586 272.843 47.2975V47.1767C272.843 47.0155 272.72 46.8946 272.581 46.8946H270.391C270.253 46.8946 270.13 46.7738 270.13 46.6368V46.4918C270.13 46.3549 270.253 46.234 270.391 46.234H272.581C272.72 46.234 272.843 46.1132 272.843 45.9681C272.843 45.8311 272.827 45.67 272.786 45.6298C272.745 45.5894 272.581 45.5653 272.434 45.5653C272.296 45.5653 272.173 45.4444 272.173 45.2833V45.1624C272.173 45.0013 272.05 44.8805 271.903 44.8805H270.391C270.253 44.8805 270.13 44.7596 270.13 44.6226V44.4776C270.13 44.3407 270.253 44.2198 270.391 44.2198H271.903C272.05 44.2198 272.173 44.0989 272.173 43.9539V43.1482C272.173 43.0113 272.296 42.8904 272.434 42.8904H272.581C272.72 42.8904 272.843 43.0113 272.843 43.1482V43.9539C272.843 44.0989 272.966 44.2198 273.129 44.2198H275.295C275.442 44.2198 275.564 44.3407 275.564 44.4776V44.6226C275.564 44.7596 275.442 44.8805 275.295 44.8805H273.129C272.966 44.8805 272.843 45.0013 272.843 45.1624C272.843 45.3075 272.884 45.4444 272.925 45.4847C272.966 45.525 273.113 45.5653 273.276 45.5653C273.415 45.5653 273.538 45.6861 273.538 45.8311V45.9681C273.538 46.1132 273.66 46.234 273.807 46.234H275.989C276.137 46.234 276.259 46.3549 276.259 46.4918V46.6368C276.259 46.7738 276.137 46.8946 275.989 46.8946H273.807C273.66 46.8946 273.538 47.0155 273.538 47.1605ZM275.585 43.2893C275.585 43.4262 275.463 43.5471 275.299 43.5471H275.176C275.013 43.5471 274.89 43.4262 274.89 43.2893V42.4836C274.89 42.3224 275.013 42.2015 275.176 42.2015H275.299C275.463 42.2015 275.585 42.3224 275.585 42.4836V43.2893ZM276.672 42.2015C276.811 42.2015 276.933 42.3224 276.933 42.4836V43.2893C276.933 43.4262 276.811 43.5471 276.672 43.5471H276.525C276.386 43.5471 276.263 43.4262 276.263 43.2893V42.4836C276.263 42.3224 276.386 42.2015 276.525 42.2015H276.672Z" fill="white"/>
<path d="M282.776 44.8804C282.924 44.8804 283.046 45.0013 283.046 45.1625V45.9681C283.046 46.1132 282.924 46.234 282.776 46.234C282.637 46.234 282.474 46.2742 282.433 46.3146C282.393 46.3548 282.368 46.4918 282.368 46.6368C282.368 46.7738 282.246 46.8947 282.082 46.8947H281.959C281.796 46.8947 281.673 46.7738 281.673 46.6368V46.4918C281.673 46.3548 281.796 46.234 281.943 46.234C282.107 46.234 282.246 46.1937 282.286 46.1695C282.327 46.1293 282.368 46.0084 282.368 45.9117C282.368 45.807 282.393 45.7264 282.45 45.7264C282.491 45.7264 282.532 45.6459 282.532 45.5653C282.532 45.4686 282.45 45.3881 282.368 45.3881C282.27 45.3881 282.189 45.4283 282.189 45.4847C282.189 45.525 282.066 45.5653 281.919 45.5653H281.412C281.265 45.5653 281.102 45.5894 281.085 45.6298C281.044 45.67 281.003 45.8312 281.003 45.9681C281.003 46.1132 280.88 46.234 280.733 46.234H280.594C280.448 46.234 280.325 46.3548 280.325 46.4918C280.325 46.6368 280.35 46.798 280.39 46.8382C280.431 46.8786 280.594 46.8947 280.733 46.8947C280.88 46.8947 281.003 47.0155 281.003 47.1766V48.6429C281.003 48.788 280.88 48.9089 280.733 48.9089H280.594C280.448 48.9089 280.325 48.788 280.325 48.6429V47.3216C280.325 47.1605 280.284 47.0155 280.243 46.9752C280.202 46.935 280.063 46.8947 279.9 46.8947C279.753 46.8947 279.63 46.7738 279.63 46.6368V46.4918C279.63 46.3548 279.508 46.234 279.369 46.234H278.551C278.405 46.234 278.282 46.1132 278.282 45.9681V45.8312C278.282 45.6861 278.405 45.5653 278.551 45.5653H279.369C279.508 45.5653 279.63 45.4444 279.63 45.2833V44.4777C279.63 44.3407 279.753 44.2198 279.916 44.2198H280.039C280.202 44.2198 280.325 44.3407 280.325 44.4777V45.2833C280.325 45.4444 280.448 45.5653 280.594 45.5653C280.733 45.5653 280.88 45.525 280.922 45.4847C280.963 45.4444 281.003 45.3075 281.003 45.1625C281.003 45.0013 281.126 44.8804 281.265 44.8804H282.776Z" fill="white"/>
<path d="M290.214 44.8805H288.048C287.885 44.8805 287.762 45.0013 287.762 45.1624V47.2975C287.762 47.4586 287.639 47.5794 287.5 47.5794H287.353C287.215 47.5794 287.092 47.4586 287.092 47.2975V45.1624C287.092 45.0013 286.969 44.8805 286.822 44.8805H286.005C285.841 44.8805 285.719 44.7596 285.719 44.6226V44.4776C285.719 44.3407 285.841 44.2198 286.005 44.2198H286.822C286.969 44.2198 287.092 44.0989 287.092 43.9539V43.1482C287.092 43.0113 287.215 42.8904 287.353 42.8904H287.5C287.639 42.8904 287.762 43.0113 287.762 43.1482V43.9539C287.762 44.0989 287.885 44.2198 288.048 44.2198H290.214C290.377 44.2198 290.5 44.0989 290.5 43.9539V43.8169C290.5 43.672 290.622 43.5511 290.769 43.5511H290.908C291.055 43.5511 291.178 43.672 291.178 43.8169V43.9539C291.178 44.0989 291.301 44.2198 291.44 44.2198H292.257C292.42 44.2198 292.543 44.3407 292.543 44.4776V44.6226C292.543 44.7596 292.42 44.8805 292.257 44.8805H291.44C291.301 44.8805 291.178 45.0013 291.178 45.1624V47.9823C291.178 48.1193 291.055 48.2402 290.908 48.2402C290.769 48.2402 290.606 48.2804 290.565 48.3207C290.524 48.3449 290.5 48.506 290.5 48.6429C290.5 48.788 290.377 48.9089 290.214 48.9089C290.075 48.9089 289.928 48.9491 289.887 48.9894C289.845 49.0297 289.805 49.1667 289.805 49.3117C289.805 49.4728 289.682 49.5937 289.543 49.5937H287.353C287.215 49.5937 287.092 49.4728 287.092 49.3117V49.1908C287.092 49.0297 287.215 48.9089 287.353 48.9089H289.396C289.543 48.9089 289.706 48.8846 289.748 48.8444C289.789 48.8041 289.805 48.6429 289.805 48.506C289.805 48.361 289.928 48.2402 290.075 48.2402C290.238 48.2402 290.377 48.1998 290.418 48.1596C290.458 48.1434 290.5 47.9823 290.5 47.8373V45.1624C290.5 45.0013 290.377 44.8805 290.214 44.8805ZM291.848 43.2893C291.848 43.4262 291.725 43.5471 291.586 43.5471H291.44C291.301 43.5471 291.178 43.4262 291.178 43.2893V42.4836C291.178 42.3224 291.301 42.2015 291.44 42.2015H291.586C291.725 42.2015 291.848 42.3224 291.848 42.4836V43.2893ZM292.951 42.2015C293.098 42.2015 293.221 42.3224 293.221 42.4836V43.2893C293.221 43.4262 293.098 43.5471 292.951 43.5471H292.812C292.665 43.5471 292.543 43.4262 292.543 43.2893V42.4836C292.543 42.3224 292.665 42.2015 292.812 42.2015H292.951Z" fill="white"/>
<path d="M296.176 46.2339C296.037 46.2339 295.914 46.113 295.914 45.9681C295.914 45.8311 295.873 45.6699 295.832 45.6297C295.791 45.5894 295.644 45.5652 295.505 45.5652C295.341 45.5652 295.22 45.4443 295.22 45.2832V45.1624C295.22 45.0012 295.341 44.8803 295.505 44.8803H295.628C295.791 44.8803 295.914 45.0012 295.914 45.1624C295.914 45.3074 295.93 45.4443 295.971 45.4846C296.012 45.5249 296.176 45.5652 296.323 45.5652H299.714C299.877 45.5652 300 45.686 300 45.8311V45.9681C300 46.113 299.877 46.2339 299.714 46.2339H296.176Z" fill="white"/>
<path d="M3.15046 33.3957C3.15046 32.7511 3.07281 32.0703 2.88076 31.881C2.68872 31.6916 1.92051 31.5023 1.22994 31.5023C0.576153 31.5023 0 30.9343 0 30.2897V10.6997C0 10.0189 0.576153 9.45089 1.22994 9.45089C1.92051 9.45089 2.68872 9.26162 2.88076 9.07227C3.07281 8.88292 3.15046 8.23837 3.15046 7.55758C3.15046 6.80024 3.72661 6.34503 4.41717 6.34503H14.6776C15.3681 6.34503 15.9443 6.80024 15.9443 7.55758C15.9443 8.23837 16.1363 8.88292 16.3285 9.07227C16.5205 9.26162 17.1742 9.45089 17.9424 9.45089C18.633 9.45089 19.2092 10.0189 19.2092 10.6997V11.3443C19.2092 12.025 18.633 12.5931 17.8648 12.5931H17.2887C16.5205 12.5931 15.9443 12.025 15.9443 11.3443C15.9443 10.6997 15.8299 9.94235 15.6379 9.75308C15.4458 9.56373 14.6776 9.45089 14.0238 9.45089H5.18946C4.42126 9.45089 3.73069 9.56373 3.53864 9.75308C3.34659 9.94235 3.15454 10.6997 3.15454 11.3443V29.6049C3.15454 30.2858 3.34659 31.0431 3.53864 31.2324C3.73069 31.4218 4.42126 31.4983 5.18946 31.4983H14.0279C14.6817 31.4983 15.4499 31.4218 15.642 31.2324C15.834 31.0431 15.9484 30.2858 15.9484 29.6049C15.9484 28.9604 16.5246 28.3924 17.2928 28.3924H17.8689C18.6372 28.3924 19.2133 28.9604 19.2133 29.6049V30.2858C19.2133 30.9303 18.6372 31.4983 17.9466 31.4983C17.1784 31.4983 16.5246 31.6876 16.3325 31.877C16.1405 32.0663 15.9484 32.7471 15.9484 33.3916C15.9484 34.1489 15.3723 34.717 14.6817 34.717H4.42126C3.73069 34.717 3.15454 34.1489 3.15454 33.3916L3.15046 33.3957Z" fill="white"/>
<path d="M28.1294 34.725C27.4388 34.725 26.8626 34.1571 26.8626 33.3997C26.8626 32.7551 26.785 32.0744 26.5929 31.885C26.4009 31.6957 25.6327 31.5063 24.9421 31.5063C24.2883 31.5063 23.7122 30.9384 23.7122 30.2938V10.6997C23.7122 10.0189 24.2883 9.45089 24.9421 9.45089C25.6327 9.45089 26.4009 9.26162 26.5929 9.07227C26.785 8.88292 26.8626 8.23837 26.8626 7.55758C26.8626 6.80024 27.4388 6.34503 28.1294 6.34503H38.3898C39.0803 6.34503 39.6565 6.80024 39.6565 7.55758C39.6565 8.23837 39.8485 8.88292 40.0406 9.07227C40.2326 9.26162 40.8864 9.45089 41.6546 9.45089C42.3452 9.45089 42.9214 10.0189 42.9214 10.6997V30.2897C42.9214 30.9343 42.3452 31.5023 41.6546 31.5023C40.8864 31.5023 40.2326 31.6916 40.0406 31.881C39.8485 32.0703 39.6565 32.7511 39.6565 33.3957C39.6565 34.153 39.0803 34.721 38.3898 34.721H28.1294V34.725ZM37.7401 31.5023C38.3938 31.5023 39.162 31.4258 39.3542 31.2364C39.5462 31.0471 39.6606 30.2897 39.6606 29.609V11.3443C39.6606 10.6997 39.5462 9.94235 39.3542 9.75308C39.162 9.56373 38.3938 9.45089 37.7401 9.45089H28.9016C28.1334 9.45089 27.4429 9.56373 27.2508 9.75308C27.0588 9.94235 26.8668 10.6997 26.8668 11.3443V29.6049C26.8668 30.2858 27.0588 31.0431 27.2508 31.2324C27.4429 31.4218 28.1334 31.4983 28.9016 31.4983H37.7401V31.5023Z" fill="white"/>
<path d="M49.4225 34.725H48.7687C48.0781 34.725 47.5019 34.1571 47.5019 33.3997V7.55758C47.5019 6.91303 48.0781 6.34503 48.7687 6.34503H49.4225C50.1131 6.34503 50.6892 6.91303 50.6892 7.55758V33.3997C50.6892 34.1571 50.1131 34.725 49.4225 34.725Z" fill="white"/>
<path d="M56.4548 6.34503H60.2999C60.9905 6.34503 61.5667 6.91303 61.5667 7.55758V10.7037C61.5667 11.3483 61.7587 12.1056 61.9508 12.295C62.1428 12.4843 62.7966 12.5971 63.5648 12.5971C64.2554 12.5971 64.8316 13.1651 64.8316 13.9224V17.0283C64.8316 17.7091 64.9092 18.3537 65.1012 18.543C65.2933 18.7323 66.0615 18.9217 66.7521 18.9217C67.4059 18.9217 67.982 19.4897 67.982 20.1705V23.2763C67.982 24.0336 68.174 24.7145 68.3661 24.9038C68.5582 25.0932 69.2487 25.2825 69.9025 25.2825C70.6707 25.2825 71.1692 24.7145 71.1692 23.9571V7.55758C71.1692 6.91303 71.7454 6.34503 72.5136 6.34503H73.0897C73.8579 6.34503 74.4341 6.91303 74.4341 7.55758V33.3997C74.4341 34.1571 73.8579 34.725 73.0897 34.725H72.5136C71.7454 34.725 71.1692 34.1571 71.1692 33.3997V32.8317C71.1692 32.0744 70.593 31.5063 69.9025 31.5063H69.2487C68.5582 31.5063 67.982 30.9384 67.982 30.2938V27.1879C67.982 26.5071 67.9043 25.7497 67.7123 25.5605C67.5203 25.3711 66.7521 25.2945 66.0615 25.2945C65.4077 25.2945 64.8316 24.7266 64.8316 23.9693V20.8231C64.8316 20.1785 64.6395 19.4212 64.4474 19.2319C64.2554 19.0425 63.5648 18.9297 62.911 18.9297C62.1428 18.9297 61.5667 18.3617 61.5667 17.7171V14.4985C61.5667 13.8177 61.4522 13.1732 61.2602 12.9838C61.0682 12.7945 60.2999 12.6051 59.6461 12.6051C58.9556 12.6051 58.3795 13.1732 58.3795 13.9305V33.4037C58.3795 34.161 57.8033 34.7291 57.1495 34.7291H56.459C55.8052 34.7291 55.229 34.161 55.229 33.4037V7.55758C55.229 6.91303 55.8052 6.34503 56.459 6.34503H56.4548Z" fill="white"/>
<path d="M137.676 10.8931C137.676 10.2122 137.1 9.64428 136.332 9.64428H129.299C128.646 9.64428 128.069 9.07623 128.069 8.43167V7.7509C128.069 7.10636 128.646 6.53836 129.299 6.53836H149.207C149.861 6.53836 150.437 7.10636 150.437 7.7509V8.43167C150.437 9.07623 149.861 9.64428 149.207 9.64428H142.098C141.407 9.64428 140.831 10.2122 140.831 10.8931V33.589C140.831 34.3463 140.254 34.9144 139.601 34.9144H138.91C138.256 34.9144 137.681 34.3463 137.681 33.589V10.8931H137.676Z" fill="white"/>
<path d="M155.431 34.9143C154.74 34.9143 154.164 34.3463 154.164 33.589C154.164 32.9444 154.086 32.2636 153.894 32.0743C153.702 31.885 152.934 31.6956 152.243 31.6956C151.589 31.6956 151.013 31.1277 151.013 30.4831V10.893C151.013 10.2122 151.589 9.64426 152.243 9.64426C152.934 9.64426 153.702 9.45491 153.894 9.26556C154.086 9.07621 154.164 8.43174 154.164 7.7509C154.164 6.99357 154.74 6.53836 155.431 6.53836H165.691C166.381 6.53836 166.958 6.99357 166.958 7.7509C166.958 8.43174 167.15 9.07621 167.341 9.26556C167.534 9.45491 168.188 9.64426 168.956 9.64426C169.646 9.64426 170.223 10.2122 170.223 10.893V30.4831C170.223 31.1277 169.646 31.6956 168.956 31.6956C168.188 31.6956 167.534 31.885 167.341 32.0743C167.15 32.2636 166.958 32.9444 166.958 33.589C166.958 34.3463 166.381 34.9143 165.691 34.9143H155.431ZM165.037 31.6916C165.691 31.6916 166.459 31.6151 166.651 31.4257C166.843 31.2364 166.958 30.4791 166.958 29.7982V11.5376C166.958 10.893 166.843 10.1357 166.651 9.94637C166.459 9.75702 165.691 9.64426 165.037 9.64426H156.198C155.431 9.64426 154.74 9.75702 154.548 9.94637C154.356 10.1357 154.164 10.893 154.164 11.5376V29.7982C154.164 30.4791 154.356 31.2364 154.548 31.4257C154.74 31.6151 155.431 31.6916 156.198 31.6916H165.037Z" fill="white"/>
<path d="M190.482 12.7864C189.714 12.7864 189.137 12.2184 189.137 11.5376C189.137 10.893 189.023 10.1357 188.831 9.94637C188.639 9.75702 187.871 9.64426 187.217 9.64426H178.379C177.611 9.64426 176.919 9.75702 176.728 9.94637C176.536 10.1357 176.344 10.893 176.344 11.5376V29.7982C176.344 30.4791 176.536 31.2364 176.728 31.4257C176.919 31.6151 177.611 31.6916 178.379 31.6916H187.217C187.871 31.6916 188.639 31.6151 188.831 31.4257C189.023 31.2364 189.137 30.4791 189.137 29.7982V24.3439C189.137 23.663 189.329 23.0951 189.599 23.0951C189.791 23.0951 189.984 22.7164 189.984 22.2612C189.984 21.8825 189.599 21.5039 189.137 21.5039C188.754 21.5039 188.369 21.6931 188.369 21.8825C188.369 22.0718 187.793 22.2612 187.102 22.2612H184.03C183.376 22.2612 182.8 21.6931 182.8 21.0124V20.3678C182.8 19.687 183.376 19.119 184.03 19.119H191.062C191.83 19.119 192.406 19.687 192.406 20.3678V30.4831C192.406 31.1277 191.83 31.6956 191.14 31.6956C190.371 31.6956 189.718 31.885 189.526 32.0743C189.333 32.2636 189.141 32.9444 189.141 33.589C189.141 34.3463 188.566 34.9143 187.875 34.9143H177.615C176.924 34.9143 176.348 34.3463 176.348 33.589C176.348 32.9444 176.27 32.2636 176.078 32.0743C175.886 31.885 175.118 31.6956 174.428 31.6956C173.773 31.6956 173.198 31.1277 173.198 30.4831V10.893C173.198 10.2122 173.773 9.64426 174.428 9.64426C175.118 9.64426 175.886 9.45491 176.078 9.26556C176.27 9.07621 176.348 8.43174 176.348 7.7509C176.348 6.99357 176.924 6.53836 177.615 6.53836H187.875C188.566 6.53836 189.141 6.99357 189.141 7.7509C189.141 8.43174 189.333 9.07621 189.526 9.26556C189.718 9.45491 190.371 9.64426 191.14 9.64426C191.83 9.64426 192.406 10.2122 192.406 10.893V11.5376C192.406 12.2184 191.83 12.7864 191.062 12.7864H190.482Z" fill="white"/>
<path d="M196.898 7.74693C196.898 7.10239 197.473 6.53439 198.127 6.53439H211.579C212.269 6.53439 212.845 7.10239 212.845 7.74693V8.42774C212.845 9.07229 212.269 9.64026 211.579 9.64026H202.164C201.396 9.64026 200.82 9.45091 200.82 9.26164C200.82 8.99571 200.55 8.88294 200.052 8.88294C199.667 8.88294 199.284 9.18506 199.284 9.64026C199.284 10.019 199.476 10.3976 199.667 10.3976C199.859 10.3976 200.052 10.9656 200.052 11.7229V17.8985C200.052 18.543 200.628 19.111 201.319 19.111H208.428C209.082 19.111 209.658 19.679 209.658 20.3599V21.0043C209.658 21.6851 209.082 22.2532 208.428 22.2532H201.319C200.628 22.2532 200.052 22.8212 200.052 23.5785V30.4751C200.052 31.1196 200.628 31.6877 201.319 31.6877H211.579C212.269 31.6877 212.845 32.2556 212.845 33.013V33.581C212.845 34.3383 212.269 34.9064 211.579 34.9064H198.127C197.473 34.9064 196.898 34.3383 196.898 33.581V7.74693Z" fill="white"/>
<path d="M224.683 10.893C224.683 10.2122 224.107 9.64426 223.339 9.64426H216.306C215.653 9.64426 215.076 9.07621 215.076 8.43174V7.7509C215.076 7.10636 215.653 6.53836 216.306 6.53836H236.215C236.868 6.53836 237.445 7.10636 237.445 7.7509V8.43174C237.445 9.07621 236.868 9.64426 236.215 9.64426H229.105C228.414 9.64426 227.838 10.2122 227.838 10.893V33.589C227.838 34.3463 227.262 34.9143 226.608 34.9143H225.917C225.263 34.9143 224.688 34.3463 224.688 33.589V10.893H224.683Z" fill="white"/>
<path d="M256.658 34.9144H256.081C255.314 34.9144 254.737 34.3464 254.737 33.589V23.5866C254.737 22.8292 254.161 22.2612 253.471 22.2612H243.21C242.52 22.2612 241.943 22.8292 241.943 23.5866V33.589C241.943 34.3464 241.367 34.9144 240.714 34.9144H240.023C239.369 34.9144 238.793 34.3464 238.793 33.589V7.74693C238.793 7.10239 239.369 6.53439 240.023 6.53439H240.714C241.367 6.53439 241.943 7.10239 241.943 7.74693V17.9025C241.943 18.547 242.52 19.1151 243.21 19.1151H253.471C254.161 19.1151 254.737 18.547 254.737 17.9025V7.74693C254.737 7.10239 255.314 6.53439 256.081 6.53439H256.658C257.426 6.53439 258.002 7.10239 258.002 7.74693V33.589C258.002 34.3464 257.426 34.9144 256.658 34.9144Z" fill="white"/>
<path d="M260.96 7.74693C260.96 7.10239 261.537 6.53439 262.19 6.53439H275.642C276.332 6.53439 276.909 7.10239 276.909 7.74693V8.42774C276.909 9.07229 276.332 9.64026 275.642 9.64026H266.228C265.459 9.64026 264.883 9.45091 264.883 9.26164C264.883 8.99571 264.614 8.88294 264.115 8.88294C263.731 8.88294 263.347 9.18506 263.347 9.64026C263.347 10.019 263.539 10.3976 263.731 10.3976C263.923 10.3976 264.115 10.9656 264.115 11.7229V17.8985C264.115 18.543 264.691 19.111 265.382 19.111H272.492C273.145 19.111 273.722 19.679 273.722 20.3599V21.0043C273.722 21.6851 273.145 22.2532 272.492 22.2532H265.382C264.691 22.2532 264.115 22.8212 264.115 23.5785V30.4751C264.115 31.1196 264.691 31.6877 265.382 31.6877H275.642C276.332 31.6877 276.909 32.2556 276.909 33.013V33.581C276.909 34.3383 276.332 34.9064 275.642 34.9064H262.19C261.537 34.9064 260.96 34.3383 260.96 33.581V7.74693Z" fill="white"/>
<path d="M295.354 6.53439C296.045 6.53439 296.62 6.9896 296.62 7.74693C296.62 8.42774 296.813 9.07229 297.005 9.26164C297.197 9.45091 297.85 9.64026 298.619 9.64026C299.31 9.64026 299.885 10.2083 299.885 10.889V17.8985C299.885 18.543 299.31 19.111 298.619 19.111C297.85 19.111 297.197 19.3003 297.005 19.4132C296.813 19.6025 296.62 20.3599 296.62 21.0043C296.62 21.6851 296.045 22.2532 295.354 22.2532H291.509C290.855 22.2532 290.279 22.8212 290.279 23.4657C290.279 24.223 290.357 24.9038 290.549 25.0932C290.741 25.2825 291.509 25.4719 292.199 25.4719C292.854 25.4719 293.429 25.9271 293.429 26.6844C293.429 27.3652 293.621 28.0098 293.814 28.199C294.006 28.3884 294.696 28.5777 295.35 28.5777C296.118 28.5777 296.616 29.1457 296.616 29.7903C296.616 30.4711 296.809 31.2284 297.001 31.4177C297.193 31.6071 297.846 31.6836 298.615 31.6836C299.306 31.6836 299.881 32.2516 299.881 33.009V33.5769C299.881 34.3343 299.306 34.9023 298.537 34.9023H297.961C297.193 34.9023 296.616 34.3343 296.616 33.5769C296.616 32.9325 296.502 32.2516 296.311 32.0623C296.118 31.8729 295.35 31.6836 294.696 31.6836C294.006 31.6836 293.429 31.1156 293.429 30.4711C293.429 29.7903 293.352 29.0329 293.159 28.8436C292.967 28.7671 292.199 28.5777 291.509 28.5777C290.855 28.5777 290.279 28.0098 290.279 27.3652C290.279 26.6844 290.087 25.9271 289.895 25.7377C289.702 25.5484 289.012 25.4719 288.358 25.4719C287.59 25.4719 287.014 24.9038 287.014 24.1465V23.5785C287.014 22.8212 286.438 22.2532 285.747 22.2532H285.093C284.403 22.2532 283.827 22.8212 283.827 23.5785V33.581C283.827 34.3383 283.25 34.9064 282.597 34.9064H281.906C281.253 34.9064 280.676 34.3383 280.676 33.581V7.74693C280.676 7.10239 281.253 6.53439 281.906 6.53439H295.358H295.354ZM296.625 11.5377C296.625 10.8931 296.51 10.1358 296.319 9.94644C296.126 9.75709 295.358 9.64432 294.704 9.64432H285.098C284.407 9.64432 283.831 10.2123 283.831 10.8931V17.9025C283.831 18.547 284.407 19.1151 285.098 19.1151H294.704C295.358 19.1151 296.126 18.9257 296.319 18.7364C296.51 18.547 296.625 17.9025 296.625 17.2217V11.5377Z" fill="white"/>
<path d="M86.4805 19.5095C86.3862 20.0895 86.3252 20.6817 86.2919 21.2819H90.7341C90.7748 20.6777 90.865 20.0855 90.9911 19.5095H88.4089C88.4618 19.2113 88.5276 18.9132 88.5967 18.6232C89.7041 14.1234 92.8748 10.4173 97.0634 8.53613V6.50177C91.5431 8.65694 87.4366 13.5676 86.4805 19.5095Z" fill="white"/>
<path d="M120.245 19.5095C119.288 13.5676 115.181 8.65694 109.661 6.50177V8.53613C113.85 10.4173 117.02 14.1234 118.128 18.6232C118.202 18.9173 118.263 19.2113 118.315 19.5095H115.733C115.86 20.0855 115.946 20.6777 115.99 21.2819H120.433C120.4 20.6817 120.338 20.0895 120.245 19.5095Z" fill="white"/>
<path d="M115.99 23.0589C115.95 23.6631 115.86 24.2553 115.733 24.8313H118.316C117.425 29.7299 114.12 33.8026 109.657 35.8047V37.839C115.177 35.6839 119.284 30.7732 120.241 24.8313C120.334 24.2513 120.396 23.6591 120.429 23.0589H115.986H115.99Z" fill="white"/>
<path d="M97.9667 6.17987V9.01585C97.6602 9.13674 97.3618 9.26967 97.0675 9.41065C93.3203 11.2113 90.4846 14.567 89.426 18.6276H91.2244C92.2537 15.1994 94.7382 12.3836 97.9707 10.881C98.5463 10.6111 99.1472 10.3855 99.7683 10.2042V5.7005C99.1553 5.8294 98.5545 5.99054 97.9707 6.18391L97.9667 6.17987Z" fill="white"/>
<path d="M98.5016 33.7017C98.3178 33.6292 98.1422 33.5487 97.9626 33.4681C94.73 31.9614 92.2455 29.1496 91.2162 25.7215H89.4178C90.5626 30.1004 93.7699 33.6614 97.9626 35.3332V38.1692C98.5504 38.3626 99.1471 38.5237 99.7601 38.6526V34.1488C99.3309 34.0239 98.9105 33.8749 98.4975 33.7057L98.5016 33.7017Z" fill="white"/>
<path d="M109.661 9.41077C109.367 9.2698 109.064 9.13687 108.762 9.01598V6.18C108.174 5.98663 107.577 5.8255 106.964 5.69659V10.2004C107.585 10.3816 108.186 10.6072 108.762 10.8771C111.994 12.3837 114.479 15.1956 115.508 18.6237H117.307C116.248 14.5631 113.412 11.2074 109.665 9.40671L109.661 9.41077Z" fill="white"/>
<path d="M115.504 25.7217C114.475 29.1498 111.99 31.9656 108.758 33.4682C108.582 33.5488 108.403 33.6294 108.219 33.7019C107.81 33.8711 107.385 34.016 106.956 34.145V38.6487C107.569 38.5198 108.17 38.3586 108.754 38.1653V35.3293C112.942 33.6575 116.155 30.0965 117.298 25.7176H115.5H115.504V25.7217Z" fill="white"/>
<path d="M90.9911 24.8313C90.865 24.2553 90.7748 23.6631 90.7341 23.0589H86.2919C86.3252 23.6591 86.3862 24.2513 86.4805 24.8313C87.4366 30.7732 91.5431 35.6839 97.0634 37.839V35.8047C92.6016 33.7986 89.2959 29.7258 88.4049 24.8313H90.9911Z" fill="white"/>
<path d="M117.85 32.6946C117.319 33.3996 116.734 34.0764 116.085 34.7169C115.435 35.3574 114.749 35.9375 114.033 36.4572L115.316 37.722C116.028 37.1903 116.706 36.6062 117.355 35.9698C118.001 35.3292 118.598 34.6605 119.133 33.9596L117.85 32.6946Z" fill="white"/>
<path d="M119.668 11.1107L118.373 12.3876C122.349 18.2972 122.349 26.0398 118.373 31.9535L119.668 33.2305C124.314 26.5917 124.314 17.7494 119.668 11.1107Z" fill="white"/>
<path d="M117.355 8.37523C116.706 7.73873 116.028 7.15058 115.316 6.62286L114.033 7.89181C114.749 8.41547 115.435 8.99157 116.085 9.63206C116.734 10.2725 117.323 10.9494 117.85 11.6543L119.133 10.3894C118.593 9.68848 118.001 9.01978 117.355 8.37921V8.37523Z" fill="white"/>
<path d="M90.6399 34.7129C89.9903 34.0724 89.4017 33.3957 88.8748 32.6907L87.5919 33.9556C88.1309 34.6566 88.7236 35.3253 89.3692 35.9658C90.0188 36.6023 90.6968 37.1904 91.4082 37.7181L92.6911 36.4533C91.9765 35.9295 91.2895 35.3535 90.6399 34.7129Z" fill="white"/>
<path d="M92.1439 6.09518L93.439 7.37218C99.4334 3.45255 107.287 3.45255 113.285 7.37218L114.581 6.09518C107.847 1.5149 98.8781 1.5149 92.1439 6.09518Z" fill="white"/>
<path d="M113.285 36.973C107.291 40.8926 99.4374 40.8926 93.439 36.973L92.1439 38.25C98.8781 42.8303 107.847 42.8303 114.581 38.25L113.285 36.973Z" fill="white"/>
<path d="M91.4042 6.62299C90.6928 7.15473 90.0147 7.73885 89.3651 8.37536C88.7196 9.01584 88.1228 9.68454 87.5879 10.3855L88.8749 11.6504C89.4058 10.9454 89.9903 10.2687 90.6399 9.6282C91.2895 8.98763 91.9765 8.40755 92.6911 7.8879L91.4082 6.61896L91.4042 6.62299Z" fill="white"/>
<path d="M88.352 12.3916L87.056 11.1146C82.4105 17.7533 82.4105 26.5957 87.056 33.2345L88.352 31.9575C84.3756 26.0478 84.3756 18.3053 88.352 12.3916Z" fill="white"/>
<path d="M88.352 12.3916L87.056 11.1146C82.4105 17.7533 82.4105 26.5957 87.056 33.2345L88.352 31.9575C84.3756 26.0478 84.3756 18.3053 88.352 12.3916Z" fill="white"/>
<path d="M90.6399 34.7129C89.9903 34.0724 89.4017 33.3957 88.8748 32.6907L87.5919 33.9556C88.1309 34.6566 88.7236 35.3253 89.3692 35.9658C90.0188 36.6023 90.6968 37.1904 91.4082 37.7181L92.6911 36.4533C91.9765 35.9295 91.2895 35.3535 90.6399 34.7129Z" fill="white"/>
<path d="M91.4042 6.62299C90.6928 7.15473 90.0147 7.73885 89.3651 8.37536C88.7196 9.01584 88.1228 9.68454 87.5879 10.3855L88.8749 11.6504C89.4058 10.9454 89.9903 10.2687 90.6399 9.6282C91.2895 8.98763 91.9765 8.40755 92.6911 7.8879L91.4082 6.61896L91.4042 6.62299Z" fill="white"/>
<path d="M86.4805 19.5095C86.3862 20.0895 86.3252 20.6817 86.2919 21.2819H90.7341C90.7748 20.6777 90.865 20.0855 90.9911 19.5095H88.4089C88.4618 19.2113 88.5276 18.9132 88.5967 18.6232C89.7041 14.1234 92.8748 10.4173 97.0634 8.53613V6.50177C91.5431 8.65694 87.4366 13.5676 86.4805 19.5095Z" fill="white"/>
<path d="M90.9911 24.8313C90.865 24.2553 90.7748 23.6631 90.7341 23.0589H86.2919C86.3252 23.6591 86.3862 24.2513 86.4805 24.8313C87.4366 30.7732 91.5431 35.6839 97.0634 37.839V35.8047C92.6016 33.7986 89.2959 29.7258 88.4049 24.8313H90.9911Z" fill="white"/>
<path d="M97.9667 6.17987V9.01585C97.6602 9.13674 97.3618 9.26967 97.0675 9.41065C93.3203 11.2113 90.4846 14.567 89.426 18.6276H91.2244C92.2537 15.1994 94.7382 12.3836 97.9707 10.881C98.5463 10.6111 99.1472 10.3855 99.7683 10.2042V5.7005C99.1553 5.8294 98.5545 5.99054 97.9707 6.18391L97.9667 6.17987Z" fill="white"/>
<path d="M98.5016 33.7017C98.3178 33.6292 98.1422 33.5487 97.9626 33.4681C94.73 31.9614 92.2455 29.1496 91.2162 25.7215H89.4178C90.5626 30.1004 93.7699 33.6614 97.9626 35.3332V38.1692C98.5504 38.3626 99.1471 38.5237 99.7601 38.6526V34.1488C99.3309 34.0239 98.9105 33.8749 98.4975 33.7057L98.5016 33.7017Z" fill="white"/>
<path d="M113.285 36.973C107.291 40.8926 99.4374 40.8926 93.439 36.973L92.1439 38.25C98.8781 42.8303 107.847 42.8303 114.581 38.25L113.285 36.973Z" fill="white"/>
<path d="M92.1439 6.09518L93.439 7.37218C99.4334 3.45255 107.287 3.45255 113.285 7.37218L114.581 6.09518C107.847 1.5149 98.8781 1.5149 92.1439 6.09518Z" fill="white"/>
<path d="M115.504 25.7217C114.475 29.1498 111.99 31.9656 108.758 33.4682C108.582 33.5488 108.403 33.6294 108.219 33.7019C107.81 33.8711 107.385 34.016 106.956 34.145V38.6487C107.569 38.5198 108.17 38.3586 108.754 38.1653V35.3293C112.942 33.6575 116.155 30.0965 117.298 25.7176H115.5H115.504V25.7217Z" fill="white"/>
<path d="M109.661 9.41077C109.367 9.2698 109.064 9.13687 108.762 9.01598V6.18C108.174 5.98663 107.577 5.8255 106.964 5.69659V10.2004C107.585 10.3816 108.186 10.6072 108.762 10.8771C111.994 12.3837 114.479 15.1956 115.508 18.6237H117.307C116.248 14.5631 113.412 11.2074 109.665 9.40671L109.661 9.41077Z" fill="white"/>
<path d="M117.85 32.6946C117.319 33.3996 116.734 34.0764 116.085 34.7169C115.435 35.3574 114.749 35.9375 114.033 36.4572L115.316 37.722C116.028 37.1903 116.706 36.6062 117.355 35.9698C118.001 35.3292 118.598 34.6605 119.133 33.9596L117.85 32.6946Z" fill="white"/>
<path d="M117.355 8.37523C116.706 7.73873 116.028 7.15058 115.316 6.62286L114.033 7.89181C114.749 8.41547 115.435 8.99157 116.085 9.63206C116.734 10.2725 117.323 10.9494 117.85 11.6543L119.133 10.3894C118.593 9.68848 118.001 9.01978 117.355 8.37921V8.37523Z" fill="white"/>
<path d="M120.245 19.5095C119.288 13.5676 115.181 8.65694 109.661 6.50177V8.53613C113.85 10.4173 117.02 14.1234 118.128 18.6232C118.202 18.9173 118.263 19.2113 118.315 19.5095H115.733C115.86 20.0855 115.946 20.6777 115.99 21.2819H120.433C120.4 20.6817 120.338 20.0895 120.245 19.5095Z" fill="white"/>
<path d="M115.99 23.0589C115.95 23.6631 115.86 24.2553 115.733 24.8313H118.316C117.425 29.7299 114.12 33.8026 109.657 35.8047V37.839C115.177 35.6839 119.284 30.7732 120.241 24.8313C120.334 24.2513 120.396 23.6591 120.429 23.0589H115.986H115.99Z" fill="white"/>
<path d="M119.668 11.1107L118.373 12.3876C122.349 18.2972 122.349 26.0398 118.373 31.9535L119.668 33.2305C124.314 26.5917 124.314 17.7494 119.668 11.1107Z" fill="white"/>
<path d="M117.355 8.37523C116.706 7.73873 116.028 7.15058 115.316 6.62286L114.033 7.89181C114.749 8.41547 115.435 8.99157 116.085 9.63206C116.734 10.2725 117.323 10.9494 117.85 11.6543L119.133 10.3894C118.593 9.68848 118.001 9.01978 117.355 8.37921V8.37523Z" fill="white"/>
<path d="M117.85 32.6946C117.319 33.3996 116.734 34.0764 116.085 34.7169C115.435 35.3574 114.749 35.9375 114.033 36.4572L115.316 37.722C116.028 37.1903 116.706 36.6062 117.355 35.9698C118.001 35.3292 118.598 34.6605 119.133 33.9596L117.85 32.6946Z" fill="white"/>
<path d="M109.661 9.41077C109.367 9.2698 109.064 9.13687 108.762 9.01598V6.18C108.174 5.98663 107.577 5.8255 106.964 5.69659V10.2004C107.585 10.3816 108.186 10.6072 108.762 10.8771C111.994 12.3837 114.479 15.1956 115.508 18.6237H117.307C116.248 14.5631 113.412 11.2074 109.665 9.40671L109.661 9.41077Z" fill="white"/>
<path d="M115.504 25.7217C114.475 29.1498 111.99 31.9656 108.758 33.4682C108.582 33.5488 108.403 33.6294 108.219 33.7019C107.81 33.8711 107.385 34.016 106.956 34.145V38.6487C107.569 38.5198 108.17 38.3586 108.754 38.1653V35.3293C112.942 33.6575 116.155 30.0965 117.298 25.7176H115.5H115.504V25.7217Z" fill="white"/>
<path d="M92.1439 6.09518L93.439 7.37218C99.4334 3.45255 107.287 3.45255 113.285 7.37218L114.581 6.09518C107.847 1.5149 98.8781 1.5149 92.1439 6.09518Z" fill="white"/>
<path d="M113.285 36.973C107.291 40.8926 99.4374 40.8926 93.439 36.973L92.1439 38.25C98.8781 42.8303 107.847 42.8303 114.581 38.25L113.285 36.973Z" fill="white"/>
<path d="M98.5016 33.7017C98.3178 33.6292 98.1422 33.5487 97.9626 33.4681C94.73 31.9614 92.2455 29.1496 91.2162 25.7215H89.4178C90.5626 30.1004 93.7699 33.6614 97.9626 35.3332V38.1692C98.5504 38.3626 99.1471 38.5237 99.7601 38.6526V34.1488C99.3309 34.0239 98.9105 33.8749 98.4975 33.7057L98.5016 33.7017Z" fill="white"/>
<path d="M97.9667 6.17987V9.01585C97.6602 9.13674 97.3618 9.26967 97.0675 9.41065C93.3203 11.2113 90.4846 14.567 89.426 18.6276H91.2244C92.2537 15.1994 94.7382 12.3836 97.9707 10.881C98.5463 10.6111 99.1472 10.3855 99.7683 10.2042V5.7005C99.1553 5.8294 98.5545 5.99054 97.9707 6.18391L97.9667 6.17987Z" fill="white"/>
<path d="M90.9911 24.8313C90.865 24.2553 90.7748 23.6631 90.7341 23.0589H86.2919C86.3252 23.6591 86.3862 24.2513 86.4805 24.8313C87.4366 30.7732 91.5431 35.6839 97.0634 37.839V35.8047C92.6016 33.7986 89.2959 29.7258 88.4049 24.8313H90.9911Z" fill="white"/>
<path d="M86.4805 19.5095C86.3862 20.0895 86.3252 20.6817 86.2919 21.2819H90.7341C90.7748 20.6777 90.865 20.0855 90.9911 19.5095H88.4089C88.4618 19.2113 88.5276 18.9132 88.5967 18.6232C89.7041 14.1234 92.8748 10.4173 97.0634 8.53613V6.50177C91.5431 8.65694 87.4366 13.5676 86.4805 19.5095Z" fill="white"/>
<path d="M91.4042 6.62299C90.6928 7.15473 90.0147 7.73885 89.3651 8.37536C88.7196 9.01584 88.1228 9.68454 87.5879 10.3855L88.8749 11.6504C89.4058 10.9454 89.9903 10.2687 90.6399 9.6282C91.2895 8.98763 91.9765 8.40755 92.6911 7.8879L91.4082 6.61896L91.4042 6.62299Z" fill="white"/>
<path d="M90.6399 34.7129C89.9903 34.0724 89.4017 33.3957 88.8748 32.6907L87.5919 33.9556C88.1309 34.6566 88.7236 35.3253 89.3692 35.9658C90.0188 36.6023 90.6968 37.1904 91.4082 37.7181L92.6911 36.4533C91.9765 35.9295 91.2895 35.3535 90.6399 34.7129Z" fill="white"/>
<path d="M88.352 12.3916L87.056 11.1146C82.4105 17.7533 82.4105 26.5957 87.056 33.2345L88.352 31.9575C84.3756 26.0478 84.3756 18.3053 88.352 12.3916Z" fill="white"/>
<path d="M120.245 19.5095C119.288 13.5676 115.181 8.65694 109.661 6.50177V8.53613C113.85 10.4173 117.02 14.1234 118.128 18.6232C118.202 18.9173 118.263 19.2113 118.315 19.5095H115.733C115.86 20.0855 115.946 20.6777 115.99 21.2819H120.433C120.4 20.6817 120.338 20.0895 120.245 19.5095Z" fill="white"/>
<path d="M115.99 23.0589C115.95 23.6631 115.86 24.2553 115.733 24.8313H118.316C117.425 29.7299 114.12 33.8026 109.657 35.8047V37.839C115.177 35.6839 119.284 30.7732 120.241 24.8313C120.334 24.2513 120.396 23.6591 120.429 23.0589H115.986H115.99Z" fill="white"/>
<path d="M119.668 11.1107L118.373 12.3876C122.349 18.2972 122.349 26.0398 118.373 31.9535L119.668 33.2305C124.314 26.5917 124.314 17.7494 119.668 11.1107Z" fill="white"/>
<path d="M88.352 12.3916L87.056 11.1146C82.4105 17.7533 82.4105 26.5957 87.056 33.2345L88.352 31.9575C84.3756 26.0478 84.3756 18.3053 88.352 12.3916Z" fill="white"/>
<path d="M90.6399 34.7129C89.9903 34.0724 89.4017 33.3957 88.8748 32.6907L87.5919 33.9556C88.1309 34.6566 88.7236 35.3253 89.3692 35.9658C90.0188 36.6023 90.6968 37.1904 91.4082 37.7181L92.6911 36.4533C91.9765 35.9295 91.2895 35.3535 90.6399 34.7129Z" fill="white"/>
<path d="M91.4042 6.62299C90.6928 7.15473 90.0147 7.73885 89.3651 8.37536C88.7196 9.01584 88.1228 9.68454 87.5879 10.3855L88.8749 11.6504C89.4058 10.9454 89.9903 10.2687 90.6399 9.6282C91.2895 8.98763 91.9765 8.40755 92.6911 7.8879L91.4082 6.61896L91.4042 6.62299Z" fill="white"/>
<path d="M86.4805 19.5095C86.3862 20.0895 86.3252 20.6817 86.2919 21.2819H90.7341C90.7748 20.6777 90.865 20.0855 90.9911 19.5095H88.4089C88.4618 19.2113 88.5276 18.9132 88.5967 18.6232C89.7041 14.1234 92.8748 10.4173 97.0634 8.53613V6.50177C91.5431 8.65694 87.4366 13.5676 86.4805 19.5095Z" fill="white"/>
<path d="M90.9911 24.8313C90.865 24.2553 90.7748 23.6631 90.7341 23.0589H86.2919C86.3252 23.6591 86.3862 24.2513 86.4805 24.8313C87.4366 30.7732 91.5431 35.6839 97.0634 37.839V35.8047C92.6016 33.7986 89.2959 29.7258 88.4049 24.8313H90.9911Z" fill="white"/>
<path d="M97.9667 6.17987V9.01585C97.6602 9.13674 97.3618 9.26967 97.0675 9.41065C93.3203 11.2113 90.4846 14.567 89.426 18.6276H91.2244C92.2537 15.1994 94.7382 12.3836 97.9707 10.881C98.5463 10.6111 99.1472 10.3855 99.7683 10.2042V5.7005C99.1553 5.8294 98.5545 5.99054 97.9707 6.18391L97.9667 6.17987Z" fill="white"/>
<path d="M98.5016 33.7017C98.3178 33.6292 98.1422 33.5487 97.9626 33.4681C94.73 31.9614 92.2455 29.1496 91.2162 25.7215H89.4178C90.5626 30.1004 93.7699 33.6614 97.9626 35.3332V38.1692C98.5504 38.3626 99.1471 38.5237 99.7601 38.6526V34.1488C99.3309 34.0239 98.9105 33.8749 98.4975 33.7057L98.5016 33.7017Z" fill="white"/>
<path d="M113.285 36.973C107.291 40.8926 99.4374 40.8926 93.439 36.973L92.1439 38.25C98.8781 42.8303 107.847 42.8303 114.581 38.25L113.285 36.973Z" fill="white"/>
<path d="M92.1439 6.09518L93.439 7.37218C99.4334 3.45255 107.287 3.45255 113.285 7.37218L114.581 6.09518C107.847 1.5149 98.8781 1.5149 92.1439 6.09518Z" fill="white"/>
<path d="M115.504 25.7217C114.475 29.1498 111.99 31.9656 108.758 33.4682C108.582 33.5488 108.403 33.6294 108.219 33.7019C107.81 33.8711 107.385 34.016 106.956 34.145V38.6487C107.569 38.5198 108.17 38.3586 108.754 38.1653V35.3293C112.942 33.6575 116.155 30.0965 117.298 25.7176H115.5H115.504V25.7217Z" fill="white"/>
<path d="M109.661 9.41077C109.367 9.2698 109.064 9.13687 108.762 9.01598V6.18C108.174 5.98663 107.577 5.8255 106.964 5.69659V10.2004C107.585 10.3816 108.186 10.6072 108.762 10.8771C111.994 12.3837 114.479 15.1956 115.508 18.6237H117.307C116.248 14.5631 113.412 11.2074 109.665 9.40671L109.661 9.41077Z" fill="white"/>
<path d="M117.85 32.6946C117.319 33.3996 116.734 34.0764 116.085 34.7169C115.435 35.3574 114.749 35.9375 114.033 36.4572L115.316 37.722C116.028 37.1903 116.706 36.6062 117.355 35.9698C118.001 35.3292 118.598 34.6605 119.133 33.9596L117.85 32.6946Z" fill="white"/>
<path d="M117.355 8.37523C116.706 7.73873 116.028 7.15058 115.316 6.62286L114.033 7.89181C114.749 8.41547 115.435 8.99157 116.085 9.63206C116.734 10.2725 117.323 10.9494 117.85 11.6543L119.133 10.3894C118.593 9.68848 118.001 9.01978 117.355 8.37921V8.37523Z" fill="white"/>
<path d="M120.245 19.5095C119.288 13.5676 115.181 8.65694 109.661 6.50177V8.53613C113.85 10.4173 117.02 14.1234 118.128 18.6232C118.202 18.9173 118.263 19.2113 118.315 19.5095H115.733C115.86 20.0855 115.946 20.6777 115.99 21.2819H120.433C120.4 20.6817 120.338 20.0895 120.245 19.5095Z" fill="white"/>
<path d="M120.245 24.8313C120.338 24.2513 120.4 23.6591 120.433 23.0589H115.99C115.95 23.6631 115.86 24.2553 115.733 24.8313H118.316C117.425 29.7299 114.12 33.8026 109.657 35.8047V37.839C115.177 35.6839 119.284 30.7732 120.241 24.8313H120.245Z" fill="white"/>
<path d="M119.668 11.1107L118.373 12.3876C122.349 18.2972 122.349 26.0398 118.373 31.9535L119.668 33.2305C124.314 26.5917 124.314 17.7494 119.668 11.1107Z" fill="white"/>
<path d="M116.085 9.62808C116.734 10.2686 117.323 10.9453 117.85 11.6503L119.133 10.3854C118.593 9.68442 118.001 9.01572 117.355 8.37523C116.706 7.73873 116.028 7.15058 115.316 6.62286L114.033 7.89181C114.749 8.41547 115.435 8.99157 116.085 9.63206V9.62808Z" fill="white"/>
<path d="M116.085 34.7129C115.435 35.3535 114.749 35.9336 114.033 36.4533L115.316 37.7181C116.028 37.1864 116.706 36.6023 117.355 35.9658C118.001 35.3253 118.598 34.6566 119.133 33.9556L117.85 32.6907C117.319 33.3957 116.734 34.0724 116.085 34.7129Z" fill="white"/>
<path d="M106.96 5.69671V10.2005C107.581 10.3817 108.182 10.6073 108.758 10.8772C111.99 12.3838 114.475 15.1956 115.504 18.6238H117.302C116.244 14.5632 113.408 11.2076 109.661 9.40683C109.367 9.26586 109.064 9.13293 108.762 9.01212V6.17609C108.174 5.98273 107.577 5.82159 106.964 5.69269L106.96 5.69671Z" fill="white"/>
<path d="M106.96 38.6487C107.573 38.5198 108.174 38.3586 108.758 38.1653V35.3293C112.946 33.6575 116.159 30.0965 117.303 25.7176H115.504C114.475 29.1457 111.99 31.9616 108.758 33.4642C108.582 33.5447 108.403 33.6253 108.219 33.6978C107.81 33.867 107.385 34.0121 106.956 34.1409V38.6447H106.96V38.6487Z" fill="white"/>
<path d="M113.285 7.37218L114.581 6.09518C107.847 1.5149 98.8781 1.5149 92.1439 6.09518L93.439 7.37218C99.4334 3.45255 107.287 3.45255 113.285 7.37218Z" fill="white"/>
<path d="M93.439 36.973L92.1439 38.25C98.8781 42.8303 107.847 42.8303 114.581 38.25L113.285 36.973C107.291 40.8926 99.4374 40.8926 93.439 36.973Z" fill="white"/>
<path d="M99.7642 38.6486V34.1448C99.3349 34.02 98.9146 33.8709 98.5016 33.7017C98.3178 33.6292 98.1422 33.5487 97.9626 33.4681C94.73 31.9614 92.2455 29.1496 91.2162 25.7215H89.4178C90.5626 30.1004 93.7699 33.6614 97.9626 35.3332V38.1692C98.5504 38.3626 99.1471 38.5237 99.7601 38.6526L99.7642 38.6486Z" fill="white"/>
<path d="M99.7642 5.69659C99.1512 5.8255 98.5504 5.98651 97.9667 6.17987V9.01585C97.6602 9.13674 97.3618 9.26967 97.0675 9.41065C93.3203 11.2113 90.4846 14.567 89.426 18.6276H91.2244C92.2537 15.1994 94.7382 12.3836 97.9707 10.881C98.5463 10.6111 99.1472 10.3855 99.7683 10.2042V5.7005L99.7642 5.69659Z" fill="white"/>
<path d="M86.4805 24.8313C87.4366 30.7732 91.5431 35.6839 97.0634 37.839V35.8047C92.6016 33.7986 89.2959 29.7258 88.4049 24.8313H90.987C90.8602 24.2553 90.7708 23.6631 90.7301 23.0589H86.2878C86.3212 23.6591 86.3821 24.2513 86.4765 24.8313H86.4805Z" fill="white"/>
<path d="M97.0634 8.53613V6.50177C91.5431 8.65694 87.4366 13.5676 86.4805 19.5095C86.3862 20.0895 86.3252 20.6817 86.2919 21.2819H90.7341C90.7748 20.6777 90.865 20.0855 90.9911 19.5095H88.4089C88.4618 19.2113 88.5276 18.9132 88.5967 18.6232C89.7041 14.1234 92.8748 10.4173 97.0634 8.53613Z" fill="white"/>
<path d="M90.6399 9.6282C91.2895 8.98763 91.9765 8.40755 92.6911 7.8879L91.4082 6.61896C90.6968 7.15071 90.0188 7.73482 89.3692 8.37129C88.7236 9.01186 88.1269 9.68056 87.5919 10.3815L88.8789 11.6464C89.4098 10.9415 89.9944 10.2646 90.6439 9.62414L90.6399 9.6282Z" fill="white"/>
<path d="M90.6399 34.7129C89.9903 34.0724 89.4017 33.3957 88.8748 32.6907L87.5919 33.9556C88.1309 34.6566 88.7236 35.3253 89.3692 35.9658C90.0188 36.6023 90.6968 37.1904 91.4082 37.7181L92.6911 36.4533C91.9765 35.9295 91.2895 35.3535 90.6399 34.7129Z" fill="white"/>
<path d="M88.352 12.3916L87.056 11.1146C82.4105 17.7533 82.4105 26.5957 87.056 33.2345L88.352 31.9575C84.3756 26.0478 84.3756 18.3053 88.352 12.3916Z" fill="white"/>
<path d="M120.245 19.5095C119.288 13.5676 115.181 8.65694 109.661 6.50177V8.53613C113.85 10.4173 117.02 14.1234 118.128 18.6232C118.202 18.9173 118.263 19.2113 118.315 19.5095H115.733C115.86 20.0855 115.946 20.6777 115.99 21.2819H120.433C120.4 20.6817 120.338 20.0895 120.245 19.5095Z" fill="white"/>
<path d="M120.245 24.8313C120.338 24.2513 120.4 23.6591 120.433 23.0589H115.99C115.95 23.6631 115.86 24.2553 115.733 24.8313H118.316C117.425 29.7299 114.12 33.8026 109.657 35.8047V37.839C115.177 35.6839 119.284 30.7732 120.241 24.8313H120.245Z" fill="white"/>
<path d="M119.668 11.1107L118.373 12.3876C122.349 18.2972 122.349 26.0398 118.373 31.9535L119.668 33.2305C124.314 26.5917 124.314 17.7494 119.668 11.1107Z" fill="white"/>
<path d="M103.36 0.000305176C90.9381 0.000305176 80.8698 9.92624 80.8698 22.1726C80.8698 34.4188 90.9381 44.3448 103.36 44.3448C115.782 44.3448 125.85 34.4188 125.85 22.1726C125.85 9.92624 115.782 0.000305176 103.36 0.000305176ZM103.36 42.5723C91.9308 42.5723 82.6674 33.44 82.6674 22.1726C82.6674 10.9052 91.9349 1.77279 103.36 1.77279C114.785 1.77279 124.053 10.9052 124.053 22.1726C124.053 33.44 114.789 42.5723 103.36 42.5723Z" fill="white"/>
<path d="M116.085 9.62808C116.734 10.2686 117.323 10.9453 117.85 11.6503L119.133 10.3854C118.593 9.68442 118.001 9.01572 117.355 8.37523C116.706 7.73873 116.028 7.15058 115.316 6.62286L114.033 7.89181C114.749 8.41547 115.435 8.99157 116.085 9.63206V9.62808Z" fill="white"/>
<path d="M116.085 34.7129C115.435 35.3535 114.749 35.9336 114.033 36.4533L115.316 37.7181C116.028 37.1864 116.706 36.6023 117.355 35.9658C118.001 35.3253 118.598 34.6566 119.133 33.9556L117.85 32.6907C117.319 33.3957 116.734 34.0724 116.085 34.7129Z" fill="white"/>
<path d="M106.96 5.69671V10.2005C107.581 10.3817 108.182 10.6073 108.758 10.8772C111.99 12.3838 114.475 15.1956 115.504 18.6238H117.302C116.244 14.5632 113.408 11.2076 109.661 9.40683C109.367 9.26586 109.064 9.13293 108.762 9.01212V6.17609C108.174 5.98273 107.577 5.82159 106.964 5.69269L106.96 5.69671Z" fill="white"/>
<path d="M106.96 38.6487C107.573 38.5198 108.174 38.3586 108.758 38.1653V35.3293C112.946 33.6575 116.159 30.0965 117.303 25.7176H115.504C114.475 29.1457 111.99 31.9616 108.758 33.4642C108.582 33.5447 108.403 33.6253 108.219 33.6978C107.81 33.867 107.385 34.0121 106.956 34.1409V38.6447H106.96V38.6487Z" fill="white"/>
<path d="M113.285 7.37218L114.581 6.09518C107.847 1.5149 98.8781 1.5149 92.1439 6.09518L93.439 7.37218C99.4334 3.45255 107.287 3.45255 113.285 7.37218Z" fill="white"/>
<path d="M93.439 36.973L92.1439 38.25C98.8781 42.8303 107.847 42.8303 114.581 38.25L113.285 36.973C107.291 40.8926 99.4374 40.8926 93.439 36.973Z" fill="white"/>
<path d="M99.7642 38.6486V34.1448C99.3349 34.02 98.9146 33.8709 98.5016 33.7017C98.3178 33.6292 98.1422 33.5487 97.9626 33.4681C94.73 31.9614 92.2455 29.1496 91.2162 25.7215H89.4178C90.5626 30.1004 93.7699 33.6614 97.9626 35.3332V38.1692C98.5504 38.3626 99.1471 38.5237 99.7601 38.6526L99.7642 38.6486Z" fill="white"/>
<path d="M99.7642 5.69659C99.1512 5.8255 98.5504 5.98651 97.9667 6.17987V9.01585C97.6602 9.13674 97.3618 9.26967 97.0675 9.41065C93.3203 11.2113 90.4846 14.567 89.426 18.6276H91.2244C92.2537 15.1994 94.7382 12.3836 97.9707 10.881C98.5463 10.6111 99.1472 10.3855 99.7683 10.2042V5.7005L99.7642 5.69659Z" fill="white"/>
<path d="M86.4805 24.8313C87.4366 30.7732 91.5431 35.6839 97.0634 37.839V35.8047C92.6016 33.7986 89.2959 29.7258 88.4049 24.8313H90.987C90.8602 24.2553 90.7708 23.6631 90.7301 23.0589H86.2878C86.3212 23.6591 86.3821 24.2513 86.4765 24.8313H86.4805Z" fill="white"/>
<path d="M97.0634 8.53613V6.50177C91.5431 8.65694 87.4366 13.5676 86.4805 19.5095C86.3862 20.0895 86.3252 20.6817 86.2919 21.2819H90.7341C90.7748 20.6777 90.865 20.0855 90.9911 19.5095H88.4089C88.4618 19.2113 88.5276 18.9132 88.5967 18.6232C89.7041 14.1234 92.8748 10.4173 97.0634 8.53613Z" fill="white"/>
<path d="M90.6399 9.6282C91.2895 8.98763 91.9765 8.40755 92.6911 7.8879L91.4082 6.61896C90.6968 7.15071 90.0188 7.73482 89.3692 8.37129C88.7236 9.01186 88.1269 9.68056 87.5919 10.3815L88.8789 11.6464C89.4098 10.9415 89.9944 10.2646 90.6439 9.62414L90.6399 9.6282Z" fill="white"/>
<path d="M90.6399 34.7129C89.9903 34.0724 89.4017 33.3957 88.8748 32.6907L87.5919 33.9556C88.1309 34.6566 88.7236 35.3253 89.3692 35.9658C90.0188 36.6023 90.6968 37.1904 91.4082 37.7181L92.6911 36.4533C91.9765 35.9295 91.2895 35.3535 90.6399 34.7129Z" fill="white"/>
<path d="M88.352 12.3916L87.056 11.1146C82.4105 17.7533 82.4105 26.5957 87.056 33.2345L88.352 31.9575C84.3756 26.0478 84.3756 18.3053 88.352 12.3916Z" fill="white"/>
<path d="M119.668 11.1107L118.373 12.3876C122.349 18.2972 122.349 26.0398 118.373 31.9535L119.668 33.2305C124.314 26.5917 124.314 17.7494 119.668 11.1107Z" fill="white"/>
<path d="M115.99 23.0589C115.95 23.6631 115.86 24.2553 115.733 24.8313H118.316C117.425 29.7299 114.12 33.8026 109.657 35.8047V37.839C115.177 35.6839 119.284 30.7732 120.241 24.8313C120.334 24.2513 120.396 23.6591 120.429 23.0589H115.986H115.99Z" fill="white"/>
<path d="M120.245 19.5095C119.288 13.5676 115.181 8.65694 109.661 6.50177V8.53613C113.85 10.4173 117.02 14.1234 118.128 18.6232C118.202 18.9173 118.263 19.2113 118.315 19.5095H115.733C115.86 20.0855 115.946 20.6777 115.99 21.2819H120.433C120.4 20.6817 120.338 20.0895 120.245 19.5095Z" fill="white"/>
<path d="M88.352 12.3916L87.056 11.1146C82.4105 17.7533 82.4105 26.5957 87.056 33.2345L88.352 31.9575C84.3756 26.0478 84.3756 18.3053 88.352 12.3916Z" fill="white"/>
<path d="M90.6399 34.7129C89.9903 34.0724 89.4017 33.3957 88.8748 32.6907L87.5919 33.9556C88.1309 34.6566 88.7236 35.3253 89.3692 35.9658C90.0188 36.6023 90.6968 37.1904 91.4082 37.7181L92.6911 36.4533C91.9765 35.9295 91.2895 35.3535 90.6399 34.7129Z" fill="white"/>
<path d="M91.4042 6.62299C90.6928 7.15473 90.0147 7.73885 89.3651 8.37536C88.7196 9.01584 88.1228 9.68454 87.5879 10.3855L88.8749 11.6504C89.4058 10.9454 89.9903 10.2687 90.6399 9.6282C91.2895 8.98763 91.9765 8.40755 92.6911 7.8879L91.4082 6.61896L91.4042 6.62299Z" fill="white"/>
<path d="M86.4805 19.5095C86.3862 20.0895 86.3252 20.6817 86.2919 21.2819H90.7341C90.7748 20.6777 90.865 20.0855 90.9911 19.5095H88.4089C88.4618 19.2113 88.5276 18.9132 88.5967 18.6232C89.7041 14.1234 92.8748 10.4173 97.0634 8.53613V6.50177C91.5431 8.65694 87.4366 13.5676 86.4805 19.5095Z" fill="white"/>
<path d="M90.9911 24.8313C90.865 24.2553 90.7748 23.6631 90.7341 23.0589H86.2919C86.3252 23.6591 86.3862 24.2513 86.4805 24.8313C87.4366 30.7732 91.5431 35.6839 97.0634 37.839V35.8047C92.6016 33.7986 89.2959 29.7258 88.4049 24.8313H90.9911Z" fill="white"/>
<path d="M97.9667 6.17987V9.01585C97.6602 9.13674 97.3618 9.26967 97.0675 9.41065C93.3203 11.2113 90.4846 14.567 89.426 18.6276H91.2244C92.2537 15.1994 94.7382 12.3836 97.9707 10.881C98.5463 10.6111 99.1472 10.3855 99.7683 10.2042V5.7005C99.1553 5.8294 98.5545 5.99054 97.9707 6.18391L97.9667 6.17987Z" fill="white"/>
<path d="M98.5016 33.7017C98.3178 33.6292 98.1422 33.5487 97.9626 33.4681C94.73 31.9614 92.2455 29.1496 91.2162 25.7215H89.4178C90.5626 30.1004 93.7699 33.6614 97.9626 35.3332V38.1692C98.5504 38.3626 99.1471 38.5237 99.7601 38.6526V34.1488C99.3309 34.0239 98.9105 33.8749 98.4975 33.7057L98.5016 33.7017Z" fill="white"/>
<path d="M113.285 36.973C107.291 40.8926 99.4374 40.8926 93.439 36.973L92.1439 38.25C98.8781 42.8303 107.847 42.8303 114.581 38.25L113.285 36.973Z" fill="white"/>
<path d="M92.1439 6.09518L93.439 7.37218C99.4334 3.45255 107.287 3.45255 113.285 7.37218L114.581 6.09518C107.847 1.5149 98.8781 1.5149 92.1439 6.09518Z" fill="white"/>
<path d="M115.504 25.7217C114.475 29.1498 111.99 31.9656 108.758 33.4682C108.582 33.5488 108.403 33.6294 108.219 33.7019C107.81 33.8711 107.385 34.016 106.956 34.145V38.6487C107.569 38.5198 108.17 38.3586 108.754 38.1653V35.3293C112.942 33.6575 116.155 30.0965 117.298 25.7176H115.5H115.504V25.7217Z" fill="white"/>
<path d="M109.661 9.41077C109.367 9.2698 109.064 9.13687 108.762 9.01598V6.18C108.174 5.98663 107.577 5.8255 106.964 5.69659V10.2004C107.585 10.3816 108.186 10.6072 108.762 10.8771C111.994 12.3837 114.479 15.1956 115.508 18.6237H117.307C116.248 14.5631 113.412 11.2074 109.665 9.40671L109.661 9.41077Z" fill="white"/>
<path d="M117.85 32.6946C117.319 33.3996 116.734 34.0764 116.085 34.7169C115.435 35.3574 114.749 35.9375 114.033 36.4572L115.316 37.722C116.028 37.1903 116.706 36.6062 117.355 35.9698C118.001 35.3292 118.598 34.6605 119.133 33.9596L117.85 32.6946Z" fill="white"/>
<path d="M117.355 8.37523C116.706 7.73873 116.028 7.15058 115.316 6.62286L114.033 7.89181C114.749 8.41547 115.435 8.99157 116.085 9.63206C116.734 10.2725 117.323 10.9494 117.85 11.6543L119.133 10.3894C118.593 9.68848 118.001 9.01978 117.355 8.37921V8.37523Z" fill="white"/>
<path d="M119.668 11.1107L118.373 12.3876C122.349 18.2972 122.349 26.0398 118.373 31.9535L119.668 33.2305C124.314 26.5917 124.314 17.7494 119.668 11.1107Z" fill="white"/>
<path d="M115.99 23.0589C115.95 23.6631 115.86 24.2553 115.733 24.8313H118.316C117.425 29.7299 114.12 33.8026 109.657 35.8047V37.839C115.177 35.6839 119.284 30.7732 120.241 24.8313C120.334 24.2513 120.396 23.6591 120.429 23.0589H115.986H115.99Z" fill="white"/>
<path d="M120.245 19.5095C119.288 13.5676 115.181 8.65694 109.661 6.50177V8.53613C113.85 10.4173 117.02 14.1234 118.128 18.6232C118.202 18.9173 118.263 19.2113 118.315 19.5095H115.733C115.86 20.0855 115.946 20.6777 115.99 21.2819H120.433C120.4 20.6817 120.338 20.0895 120.245 19.5095Z" fill="white"/>
<path d="M117.355 8.37523C116.706 7.73873 116.028 7.15058 115.316 6.62286L114.033 7.89181C114.749 8.41547 115.435 8.99157 116.085 9.63206C116.734 10.2725 117.323 10.9494 117.85 11.6543L119.133 10.3894C118.593 9.68848 118.001 9.01978 117.355 8.37921V8.37523Z" fill="white"/>
<path d="M117.85 32.6946C117.319 33.3996 116.734 34.0764 116.085 34.7169C115.435 35.3574 114.749 35.9375 114.033 36.4572L115.316 37.722C116.028 37.1903 116.706 36.6062 117.355 35.9698C118.001 35.3292 118.598 34.6605 119.133 33.9596L117.85 32.6946Z" fill="white"/>
<path d="M109.661 9.41077C109.367 9.2698 109.064 9.13687 108.762 9.01598V6.18C108.174 5.98663 107.577 5.8255 106.964 5.69659V10.2004C107.585 10.3816 108.186 10.6072 108.762 10.8771C111.994 12.3837 114.479 15.1956 115.508 18.6237H117.307C116.248 14.5631 113.412 11.2074 109.665 9.40671L109.661 9.41077Z" fill="white"/>
<path d="M115.504 25.7217C114.475 29.1498 111.99 31.9656 108.758 33.4682C108.582 33.5488 108.403 33.6294 108.219 33.7019C107.81 33.8711 107.385 34.016 106.956 34.145V38.6487C107.569 38.5198 108.17 38.3586 108.754 38.1653V35.3293C112.942 33.6575 116.155 30.0965 117.298 25.7176H115.5H115.504V25.7217Z" fill="white"/>
<path d="M92.1439 6.09518L93.439 7.37218C99.4334 3.45255 107.287 3.45255 113.285 7.37218L114.581 6.09518C107.847 1.5149 98.8781 1.5149 92.1439 6.09518Z" fill="white"/>
<path d="M113.285 36.973C107.291 40.8926 99.4374 40.8926 93.439 36.973L92.1439 38.25C98.8781 42.8303 107.847 42.8303 114.581 38.25L113.285 36.973Z" fill="white"/>
<path d="M98.5016 33.7017C98.3178 33.6292 98.1422 33.5487 97.9626 33.4681C94.73 31.9614 92.2455 29.1496 91.2162 25.7215H89.4178C90.5626 30.1004 93.7699 33.6614 97.9626 35.3332V38.1692C98.5504 38.3626 99.1471 38.5237 99.7601 38.6526V34.1488C99.3309 34.0239 98.9105 33.8749 98.4975 33.7057L98.5016 33.7017Z" fill="white"/>
<path d="M97.9667 6.17987V9.01585C97.6602 9.13674 97.3618 9.26967 97.0675 9.41065C93.3203 11.2113 90.4846 14.567 89.426 18.6276H91.2244C92.2537 15.1994 94.7382 12.3836 97.9707 10.881C98.5463 10.6111 99.1472 10.3855 99.7683 10.2042V5.7005C99.1553 5.8294 98.5545 5.99054 97.9707 6.18391L97.9667 6.17987Z" fill="white"/>
<path d="M90.9911 24.8313C90.865 24.2553 90.7748 23.6631 90.7341 23.0589H86.2919C86.3252 23.6591 86.3862 24.2513 86.4805 24.8313C87.4366 30.7732 91.5431 35.6839 97.0634 37.839V35.8047C92.6016 33.7986 89.2959 29.7258 88.4049 24.8313H90.9911Z" fill="white"/>
<path d="M86.4805 19.5095C86.3862 20.0895 86.3252 20.6817 86.2919 21.2819H90.7341C90.7748 20.6777 90.865 20.0855 90.9911 19.5095H88.4089C88.4618 19.2113 88.5276 18.9132 88.5967 18.6232C89.7041 14.1234 92.8748 10.4173 97.0634 8.53613V6.50177C91.5431 8.65694 87.4366 13.5676 86.4805 19.5095Z" fill="white"/>
<path d="M91.4042 6.62299C90.6928 7.15473 90.0147 7.73885 89.3651 8.37536C88.7196 9.01584 88.1228 9.68454 87.5879 10.3855L88.8749 11.6504C89.4058 10.9454 89.9903 10.2687 90.6399 9.6282C91.2895 8.98763 91.9765 8.40755 92.6911 7.8879L91.4082 6.61896L91.4042 6.62299Z" fill="white"/>
<path d="M90.6399 34.7129C89.9903 34.0724 89.4017 33.3957 88.8748 32.6907L87.5919 33.9556C88.1309 34.6566 88.7236 35.3253 89.3692 35.9658C90.0188 36.6023 90.6968 37.1904 91.4082 37.7181L92.6911 36.4533C91.9765 35.9295 91.2895 35.3535 90.6399 34.7129Z" fill="white"/>
<path d="M88.352 12.3916L87.056 11.1146C82.4105 17.7533 82.4105 26.5957 87.056 33.2345L88.352 31.9575C84.3756 26.0478 84.3756 18.3053 88.352 12.3916Z" fill="white"/>
<path d="M119.668 11.1107L118.373 12.3876C122.349 18.2972 122.349 26.0398 118.373 31.9535L119.668 33.2305C124.314 26.5917 124.314 17.7494 119.668 11.1107Z" fill="white"/>
<path d="M115.99 23.0589C115.95 23.6631 115.86 24.2553 115.733 24.8313H118.316C117.425 29.7299 114.12 33.8026 109.657 35.8047V37.839C115.177 35.6839 119.284 30.7732 120.241 24.8313C120.334 24.2513 120.396 23.6591 120.429 23.0589H115.986H115.99Z" fill="white"/>
<path d="M120.245 19.5095C119.288 13.5676 115.181 8.65694 109.661 6.50177V8.53613C113.85 10.4173 117.02 14.1234 118.128 18.6232C118.202 18.9173 118.263 19.2113 118.315 19.5095H115.733C115.86 20.0855 115.946 20.6777 115.99 21.2819H120.433C120.4 20.6817 120.338 20.0895 120.245 19.5095Z" fill="white"/>
<path d="M88.352 12.3916L87.056 11.1146C82.4105 17.7533 82.4105 26.5957 87.056 33.2345L88.352 31.9575C84.3756 26.0478 84.3756 18.3053 88.352 12.3916Z" fill="white"/>
<path d="M90.6399 34.7129C89.9903 34.0724 89.4017 33.3957 88.8748 32.6907L87.5919 33.9556C88.1309 34.6566 88.7236 35.3253 89.3692 35.9658C90.0188 36.6023 90.6968 37.1904 91.4082 37.7181L92.6911 36.4533C91.9765 35.9295 91.2895 35.3535 90.6399 34.7129Z" fill="white"/>
<path d="M91.4042 6.62299C90.6928 7.15473 90.0147 7.73885 89.3651 8.37536C88.7196 9.01584 88.1228 9.68454 87.5879 10.3855L88.8749 11.6504C89.4058 10.9454 89.9903 10.2687 90.6399 9.6282C91.2895 8.98763 91.9765 8.40755 92.6911 7.8879L91.4082 6.61896L91.4042 6.62299Z" fill="white"/>
<path d="M86.4805 19.5095C86.3862 20.0895 86.3252 20.6817 86.2919 21.2819H90.7341C90.7748 20.6777 90.865 20.0855 90.9911 19.5095H88.4089C88.4618 19.2113 88.5276 18.9132 88.5967 18.6232C89.7041 14.1234 92.8748 10.4173 97.0634 8.53613V6.50177C91.5431 8.65694 87.4366 13.5676 86.4805 19.5095Z" fill="white"/>
<path d="M90.9911 24.8313C90.865 24.2553 90.7748 23.6631 90.7341 23.0589H86.2919C86.3252 23.6591 86.3862 24.2513 86.4805 24.8313C87.4366 30.7732 91.5431 35.6839 97.0634 37.839V35.8047C92.6016 33.7986 89.2959 29.7258 88.4049 24.8313H90.9911Z" fill="white"/>
<path d="M97.9667 6.17987V9.01585C97.6602 9.13674 97.3618 9.26967 97.0675 9.41065C93.3203 11.2113 90.4846 14.567 89.426 18.6276H91.2244C92.2537 15.1994 94.7382 12.3836 97.9707 10.881C98.5463 10.6111 99.1472 10.3855 99.7683 10.2042V5.7005C99.1553 5.8294 98.5545 5.99054 97.9707 6.18391L97.9667 6.17987Z" fill="white"/>
<path d="M98.5016 33.7017C98.3178 33.6292 98.1422 33.5487 97.9626 33.4681C94.73 31.9614 92.2455 29.1496 91.2162 25.7215H89.4178C90.5626 30.1004 93.7699 33.6614 97.9626 35.3332V38.1692C98.5504 38.3626 99.1471 38.5237 99.7601 38.6526V34.1488C99.3309 34.0239 98.9105 33.8749 98.4975 33.7057L98.5016 33.7017Z" fill="white"/>
<path d="M113.285 36.973C107.291 40.8926 99.4374 40.8926 93.439 36.973L92.1439 38.25C98.8781 42.8303 107.847 42.8303 114.581 38.25L113.285 36.973Z" fill="white"/>
<path d="M92.1439 6.09518L93.439 7.37218C99.4334 3.45255 107.287 3.45255 113.285 7.37218L114.581 6.09518C107.847 1.5149 98.8781 1.5149 92.1439 6.09518Z" fill="white"/>
<path d="M115.504 25.7217C114.475 29.1498 111.99 31.9656 108.758 33.4682C108.582 33.5488 108.403 33.6294 108.219 33.7019C107.81 33.8711 107.385 34.016 106.956 34.145V38.6487C107.569 38.5198 108.17 38.3586 108.754 38.1653V35.3293C112.942 33.6575 116.155 30.0965 117.298 25.7176H115.5H115.504V25.7217Z" fill="white"/>
<path d="M109.661 9.41077C109.367 9.2698 109.064 9.13687 108.762 9.01598V6.18C108.174 5.98663 107.577 5.8255 106.964 5.69659V10.2004C107.585 10.3816 108.186 10.6072 108.762 10.8771C111.994 12.3837 114.479 15.1956 115.508 18.6237H117.307C116.248 14.5631 113.412 11.2074 109.665 9.40671L109.661 9.41077Z" fill="white"/>
<path d="M117.85 32.6946C117.319 33.3996 116.734 34.0764 116.085 34.7169C115.435 35.3574 114.749 35.9375 114.033 36.4572L115.316 37.722C116.028 37.1903 116.706 36.6062 117.355 35.9698C118.001 35.3292 118.598 34.6605 119.133 33.9596L117.85 32.6946Z" fill="white"/>
<path d="M117.355 8.37523C116.706 7.73873 116.028 7.15058 115.316 6.62286L114.033 7.89181C114.749 8.41547 115.435 8.99157 116.085 9.63206C116.734 10.2725 117.323 10.9494 117.85 11.6543L119.133 10.3894C118.593 9.68848 118.001 9.01978 117.355 8.37921V8.37523Z" fill="white"/>
<path d="M119.668 11.1107L118.373 12.3876C122.349 18.2972 122.349 26.0398 118.373 31.9535L119.668 33.2305C124.314 26.5917 124.314 17.7494 119.668 11.1107Z" fill="white"/>
<path d="M115.99 23.0589C115.95 23.6631 115.86 24.2553 115.733 24.8313H118.316C117.425 29.7299 114.12 33.8026 109.657 35.8047V37.839C115.177 35.6839 119.284 30.7732 120.241 24.8313C120.334 24.2513 120.396 23.6591 120.429 23.0589H115.986H115.99Z" fill="white"/>
<path d="M120.245 19.5095C119.288 13.5676 115.181 8.65694 109.661 6.50177V8.53613C113.85 10.4173 117.02 14.1234 118.128 18.6232C118.202 18.9173 118.263 19.2113 118.315 19.5095H115.733C115.86 20.0855 115.946 20.6777 115.99 21.2819H120.433C120.4 20.6817 120.338 20.0895 120.245 19.5095Z" fill="white"/>
<path d="M106.061 13.8862V5.53132C105.473 5.43866 104.872 5.37824 104.263 5.34601V13.4833H102.465V5.34601C101.856 5.37824 101.256 5.43866 100.668 5.53132V13.8459L106.065 13.8822H106.061V13.8862ZM100.663 38.8138C101.252 38.9065 101.852 38.9669 102.461 38.9992V30.8618H104.259V38.9992C104.868 38.9669 105.468 38.9065 106.057 38.8138V30.455L100.659 30.4952H100.663V38.8138Z" fill="white"/>
<path d="M98.8651 31.0749C98.8651 30.6358 98.8123 30.1726 98.6814 30.0437C98.5505 29.9148 98.0196 29.7859 97.5456 29.7859C97.096 29.7859 96.7001 29.3992 96.7001 28.9601V15.6341C96.7001 15.1709 97.096 14.7841 97.5456 14.7841C98.0196 14.7841 98.5505 14.6553 98.6814 14.5263C98.8123 14.3975 98.8651 13.9584 98.8651 13.4951C98.8651 12.9794 99.2619 12.6693 99.7358 12.6693H106.789C107.263 12.6693 107.659 12.9794 107.659 13.4951C107.659 13.9584 107.789 14.3975 107.924 14.5263C108.055 14.6553 108.505 14.7841 109.032 14.7841C109.506 14.7841 109.903 15.1709 109.903 15.6341V16.0732C109.903 16.5365 109.506 16.9232 108.979 16.9232H108.582C108.055 16.9232 107.659 16.5365 107.659 16.0732C107.659 15.6341 107.581 15.1185 107.446 14.9896C107.311 14.8607 106.785 14.7841 106.339 14.7841H100.267C99.7399 14.7841 99.2619 14.8607 99.131 14.9896C99.0001 15.1185 98.8651 15.6341 98.8651 16.0732V28.4968C98.8651 28.9601 98.996 29.4757 99.131 29.6046C99.2659 29.7335 99.7399 29.7859 100.267 29.7859H106.339C106.789 29.7859 107.316 29.7335 107.446 29.6046C107.577 29.4757 107.659 28.9601 107.659 28.4968C107.659 28.0577 108.055 27.671 108.582 27.671H108.979C109.506 27.671 109.903 28.0577 109.903 28.4968V28.9601C109.903 29.3992 109.506 29.7859 109.032 29.7859C108.505 29.7859 108.055 29.9148 107.924 30.0437C107.794 30.1726 107.659 30.6358 107.659 31.0749C107.659 31.5906 107.263 31.9773 106.789 31.9773H99.7358C99.2619 31.9773 98.8651 31.5906 98.8651 31.0749Z" fill="white"/>
<path d="M106.789 32.429H99.7358C98.9919 32.429 98.4082 31.8328 98.4082 31.0754C98.4082 30.7129 98.3708 30.4712 98.3383 30.3665C98.2033 30.3141 97.8806 30.2375 97.5415 30.2375C96.835 30.2375 96.2383 29.6534 96.2383 28.9605V15.6346C96.2383 14.9296 96.835 14.3334 97.5415 14.3334C97.8765 14.3334 98.2033 14.2569 98.3383 14.2045C98.3667 14.1119 98.4041 13.8904 98.4041 13.4956C98.4041 12.7664 98.9757 12.2186 99.7318 12.2186H106.785C107.541 12.2186 108.112 12.7664 108.112 13.4956C108.112 13.8339 108.198 14.1119 108.243 14.2005C108.333 14.2448 108.62 14.3294 109.028 14.3294C109.759 14.3294 110.356 14.9135 110.356 15.6306V16.0697C110.356 16.7988 109.747 17.3708 108.975 17.3708H108.578C107.802 17.3708 107.197 16.7988 107.197 16.0697C107.197 15.7353 107.148 15.4452 107.107 15.3204C106.976 15.2801 106.682 15.2317 106.335 15.2317H100.263C99.8383 15.2317 99.5602 15.2842 99.4537 15.3204C99.4009 15.4493 99.3228 15.7675 99.3228 16.0697V28.4932C99.3228 28.8155 99.4009 29.1297 99.4537 29.2626C99.5562 29.2908 99.805 29.3312 100.267 29.3312H106.339C106.703 29.3312 106.985 29.2949 107.116 29.2626C107.152 29.1338 107.202 28.8517 107.202 28.4932C107.202 27.7882 107.822 27.2162 108.582 27.2162H108.979C109.739 27.2162 110.36 27.7882 110.36 28.4932V28.9565C110.36 29.6494 109.751 30.2335 109.032 30.2335C108.624 30.2335 108.342 30.3181 108.251 30.3624C108.198 30.4671 108.116 30.7612 108.116 31.0714C108.116 31.8287 107.533 32.4249 106.789 32.4249V32.429ZM99.2253 30.1408C99.2822 30.3422 99.3228 30.6363 99.3228 31.0754C99.3228 31.3292 99.5074 31.5266 99.7358 31.5266H106.789C107.021 31.5266 107.202 31.3292 107.202 31.0754C107.202 30.8217 107.246 30.447 107.361 30.1368C107.148 30.1932 106.829 30.2375 106.339 30.2375H100.267C99.7684 30.2375 99.4456 30.1973 99.2253 30.1408ZM108.582 28.1226C108.305 28.1226 108.116 28.316 108.116 28.4973C108.116 28.7147 108.1 29.1458 107.998 29.4963C108.317 29.3835 108.713 29.3352 109.032 29.3352C109.249 29.3352 109.445 29.1579 109.445 28.9605V28.4973C109.445 28.316 109.257 28.1226 108.979 28.1226H108.582ZM98.5716 15.0787C98.2358 15.1874 97.8236 15.2317 97.5456 15.2317C97.3415 15.2317 97.1578 15.4211 97.1578 15.6306V28.9565C97.1578 29.1458 97.3497 29.3312 97.5456 29.3312C97.8236 29.3312 98.2277 29.3755 98.5635 29.4842C98.4529 29.1579 98.4082 28.7631 98.4082 28.4932V16.0697C98.4082 15.8118 98.457 15.405 98.5716 15.0787ZM107.99 15.0747C108.1 15.4252 108.116 15.8562 108.116 16.0737C108.116 16.2913 108.321 16.4725 108.582 16.4725H108.979C109.241 16.4725 109.445 16.2952 109.445 16.0737V15.6346C109.445 15.4171 109.257 15.2358 109.032 15.2358C108.713 15.2358 108.309 15.1915 107.99 15.0747ZM100.263 14.3334H106.335C106.559 14.3334 107.005 14.3495 107.361 14.4583C107.25 14.1682 107.197 13.8057 107.197 13.4956C107.197 13.1491 106.878 13.1209 106.785 13.1209H99.7318C99.6334 13.1209 99.3188 13.1491 99.3188 13.4956C99.3188 13.9547 99.2741 14.2529 99.2171 14.4543C99.5318 14.3617 99.9318 14.3334 100.263 14.3334Z" fill="white"/>
</svg>
