<svg width="363" height="128" viewBox="0 0 363 128" fill="none" xmlns="http://www.w3.org/2000/svg">
<g filter="url(#filter0_dd_61_1384)">
<rect x="13" y="14" width="100" height="100" rx="20" fill="white"/>
</g>
<path d="M39.4584 49.2256H27.9152L41.7637 83.3253L47.5353 69.113L39.4584 49.2256Z" fill="#1853A0"/>
<path d="M54.922 49.2256L41.7826 83.3253H53.3093L66.4487 49.2256H54.922Z" fill="#1A68B0"/>
<path d="M86.3607 39.792L68.6798 83.3254H80.223L97.9039 39.792H86.3607Z" fill="#2CA6E0"/>
<path d="M66.3834 49.2256H54.8402L68.6887 83.3253L74.4603 69.113L66.3834 49.2256Z" fill="#2291D0"/>
<path d="M62.2086 90.6155C62.2086 82.4775 68.8058 75.8804 76.9438 75.8804H97.0094C97.0094 84.0184 90.4122 90.6155 82.2742 90.6155H62.2086Z" fill="#4FBCEC"/>
<path d="M62.1532 90.7516C62.1532 82.6183 68.7466 76.0249 76.8799 76.0249H97.1532C97.1532 84.1582 90.5598 90.7516 82.4265 90.7516H62.1532Z" fill="#4FBCEC"/>
<path d="M71.6025 84.7181V87.4836H69.5775V79.2988H72.7471C74.6841 79.2988 75.9303 80.1285 75.9303 81.9525C75.9303 83.7764 74.6977 84.7181 72.7471 84.7181H71.6025ZM72.3814 83.0785C73.4447 83.0785 73.9053 82.769 73.9053 81.9525C73.9053 81.2874 73.4447 80.9318 72.3814 80.9318H71.6025V83.0785H72.3814Z" fill="white"/>
<path d="M81.2607 87.477L79.8587 84.3822H78.809V87.477H76.7839V79.2988H79.9535C81.8905 79.2988 83.1367 80.1614 83.1367 81.8735C83.1367 82.9402 82.6491 83.6645 81.7957 84.0398L83.4753 87.477H81.2539H81.2607ZM79.7097 82.7492C80.5292 82.7492 81.1117 82.6439 81.1117 81.8735C81.1117 81.103 80.5292 80.9384 79.7097 80.9384H78.809V82.7492H79.7097Z" fill="white"/>
<path d="M87.4711 87.5959C85.5544 87.5959 84.1525 86.4699 84.1525 84.027V82.7496C84.1525 80.2803 85.5544 79.1807 87.4711 79.1807C89.3878 79.1807 90.7897 80.2803 90.7897 82.7496V84.027C90.7897 86.4699 89.3878 87.5959 87.4711 87.5959ZM86.1843 84.027C86.1843 85.3637 86.638 85.9629 87.4779 85.9629C88.3177 85.9629 88.7714 85.3703 88.7714 84.027V82.7496C88.7714 81.4129 88.3177 80.8137 87.4779 80.8137C86.638 80.8137 86.1843 81.4063 86.1843 82.7496V84.027Z" fill="white"/>
<path d="M157.876 76H150.68V56.68H157.876C162.272 56.68 165.492 58.836 165.492 64.94V67.74C165.492 73.788 162.272 76 157.876 76ZM157.876 72.136C160.284 72.136 160.844 70.344 160.844 67.74V64.94C160.844 62.336 160.284 60.544 157.876 60.544H155.328V72.136H157.876ZM173.634 56.68V76H168.986V56.68H173.634ZM175.865 56.68H180.933L184.545 68.356L188.185 56.68H193.253L186.645 76H182.473L175.865 56.68ZM195.215 56.68H207.423V60.544H199.863V64.072H206.583V67.936H199.863V72.136H207.423V76H195.215V56.68ZM225.469 76H220.373L217.153 68.692H214.745V76H210.097V56.68H217.377C221.829 56.68 224.685 58.724 224.685 62.756C224.685 65.276 223.565 66.984 221.605 67.88L225.469 76ZM214.745 64.828H216.817C218.693 64.828 220.037 64.576 220.037 62.756C220.037 60.908 218.693 60.544 216.817 60.544H214.745V64.828ZM246.19 63.512L242.27 76H237.902L233.59 56.68H238.63L240.73 68.216L244.146 56.68H248.206L251.706 68.3L253.806 56.68H258.846L254.534 76H250.138L246.19 63.512ZM259.5 71.828C259.5 68.888 261.74 67.46 264.652 67.46H267.144V67.04C267.144 65.668 266.892 65.136 264.932 65.136C263.728 65.136 263.168 65.36 262.664 66.088L259.724 64.044C260.816 62.308 262.44 61.72 265.408 61.72C269.048 61.72 271.232 62.756 271.232 67.068V76H267.144V74.852C266.668 75.608 265.912 76.28 264.372 76.28C261.628 76.28 259.5 74.768 259.5 71.828ZM267.144 70.848V70.428H265.24C264.176 70.428 263.588 70.792 263.588 71.716C263.588 72.528 264.232 72.976 265.296 72.976C266.696 72.976 267.144 72.136 267.144 70.848ZM274.043 71.436V56.68H278.243V70.512C278.243 72.024 278.887 72.416 280.007 72.416V76C276.115 76 274.043 75.216 274.043 71.436ZM282.389 71.436V56.68H286.589V70.512C286.589 72.024 287.233 72.416 288.353 72.416V76C284.461 76 282.389 75.216 282.389 71.436ZM298.772 71.716L301.852 73.872C300.872 75.58 299.192 76.28 296.644 76.28C292.22 76.28 290.316 73.424 290.316 69.952V67.992C290.316 63.652 292.556 61.72 296.196 61.72C300.256 61.72 302.076 64.044 302.076 68.412V70.064H294.516C294.572 71.66 294.964 72.752 296.672 72.752C297.988 72.752 298.268 72.36 298.772 71.716ZM296.224 65.248C295.132 65.248 294.656 66.004 294.544 67.264H297.876C297.792 65.724 297.204 65.248 296.224 65.248ZM303.626 65.528V62H305.418V58.92H309.618V62H312.138V65.528H309.618V70.764C309.618 71.884 309.926 72.36 310.962 72.36H312.138V76H310.486C307.07 76 305.418 75.244 305.418 71.296V65.528H303.626ZM329.354 69.476H326.722V76H322.074V56.68H329.354C333.806 56.68 336.662 58.64 336.662 62.952C336.662 67.236 333.834 69.476 329.354 69.476ZM326.722 65.612H328.514C330.95 65.612 332.014 64.884 332.014 62.952C332.014 61.384 330.95 60.544 328.514 60.544H326.722V65.612ZM349.173 64.072L346.037 66.312C345.785 65.892 345.393 65.304 344.581 65.304C343.377 65.304 342.677 66.144 342.677 68.02V76H338.477V62H342.565V63.064C342.985 62.532 343.909 61.72 345.505 61.72C347.101 61.72 348.361 62.504 349.173 64.072ZM362.059 68.16V69.784C362.059 73.704 360.211 76.28 355.899 76.28C351.643 76.28 349.739 73.704 349.739 69.784V68.16C349.739 63.876 351.979 61.72 355.899 61.72C359.875 61.72 362.059 63.876 362.059 68.16ZM355.899 72.752C357.635 72.752 357.859 71.436 357.859 69.588V68.356C357.859 66.284 357.411 65.248 355.899 65.248C354.387 65.248 353.939 66.284 353.939 68.356V69.588C353.939 71.436 354.163 72.752 355.899 72.752Z" fill="white"/>
<defs>
<filter id="filter0_dd_61_1384" x="0" y="0" width="126" height="128" filterUnits="userSpaceOnUse" color-interpolation-filters="sRGB">
<feFlood flood-opacity="0" result="BackgroundImageFix"/>
<feColorMatrix in="SourceAlpha" type="matrix" values="0 0 0 0 0 0 0 0 0 0 0 0 0 0 0 0 0 0 127 0" result="hardAlpha"/>
<feOffset dx="3" dy="4"/>
<feGaussianBlur stdDeviation="5"/>
<feComposite in2="hardAlpha" operator="out"/>
<feColorMatrix type="matrix" values="0 0 0 0 0.309804 0 0 0 0 0.737255 0 0 0 0 0.92549 0 0 0 0.2 0"/>
<feBlend mode="normal" in2="BackgroundImageFix" result="effect1_dropShadow_61_1384"/>
<feColorMatrix in="SourceAlpha" type="matrix" values="0 0 0 0 0 0 0 0 0 0 0 0 0 0 0 0 0 0 127 0" result="hardAlpha"/>
<feOffset dx="-3" dy="-4"/>
<feGaussianBlur stdDeviation="5"/>
<feComposite in2="hardAlpha" operator="out"/>
<feColorMatrix type="matrix" values="0 0 0 0 0.309804 0 0 0 0 0.737255 0 0 0 0 0.92549 0 0 0 0.2 0"/>
<feBlend mode="normal" in2="effect1_dropShadow_61_1384" result="effect2_dropShadow_61_1384"/>
<feBlend mode="normal" in="SourceGraphic" in2="effect2_dropShadow_61_1384" result="shape"/>
</filter>
</defs>
</svg>
