<svg width="277" height="32" viewBox="0 0 277 32" fill="none" xmlns="http://www.w3.org/2000/svg">
<path d="M84.6956 20.98C84.6956 20.62 84.5876 20.44 84.3356 20.44H83.9756V31.6H80.3756V6.4H84.3716C86.9996 6.4 88.2956 7.48 88.2956 10V15.112C88.2956 17.272 88.1516 18.316 86.7836 18.784V18.856C88.1516 19.288 88.2956 20.368 88.2956 22.528V28.288C88.2956 29.908 88.3316 30.412 88.7276 31.528V31.6H85.0196C84.7676 30.628 84.6956 29.98 84.6956 28.324V20.98ZM84.6956 10.18C84.6956 9.82 84.5876 9.64 84.3356 9.64H83.9756V17.2H84.3356C84.5876 17.2 84.6956 17.02 84.6956 16.66V10.18Z" fill="white"/>
<path d="M77.13 6.4V9.64H75.69V17.056H76.95V20.296H75.69V28.36H77.31V31.6H72.09V6.4H77.13Z" fill="white"/>
<path d="M69.0314 6.4V9.64H67.2314V31.6H63.6314V9.64H61.8314V6.4H69.0314Z" fill="white"/>
<path d="M58.9528 6.4V9.64H57.1528V31.6H53.5528V9.64H51.7528V6.4H58.9528Z" fill="white"/>
<path d="M48.6872 6.4V9.64H47.2472V17.056H48.5072V20.296H47.2472V28.36H48.8672V31.6H43.6472V6.4H48.6872Z" fill="white"/>
<path d="M35.467 6.4H39.067V28.36H40.579V31.6H35.467V6.4Z" fill="white"/>
<path d="M26.467 6.4V9.64H25.027V17.056H26.287V20.296H25.027V28.36H26.647V31.6H21.427V6.4H26.467Z" fill="white"/>
<path d="M18.1786 6.4V31.6H14.5786V20.656H13.8586V31.6H10.2586V6.4H13.8586V17.416H14.5786V6.4H18.1786Z" fill="white"/>
<path d="M7.2 6.4V9.64H5.4V31.6H1.8V9.64H0V6.4H7.2Z" fill="white"/>
<path d="M101.816 25.344C101.816 25.344 101.778 25.3067 101.704 25.232C101.64 25.1467 101.576 25.0667 101.512 24.992C101.458 24.9067 101.426 24.864 101.416 24.864C102.621 24.3093 103.73 23.5947 104.744 22.72C105.768 21.8453 106.669 20.88 107.448 19.824C106.978 19.5147 106.509 19.2267 106.04 18.96C105.57 18.6933 105.149 18.4907 104.776 18.352L105.096 17.888C105.49 18.0587 105.917 18.272 106.376 18.528C106.845 18.784 107.309 19.0667 107.768 19.376C108.813 17.8827 109.586 16.336 110.088 14.736L110.632 14.912C110.12 16.5547 109.325 18.1493 108.248 19.696C108.664 19.984 109.053 20.272 109.416 20.56C109.778 20.848 110.082 21.1253 110.328 21.392C110.328 21.392 110.29 21.4347 110.216 21.52C110.152 21.5947 110.088 21.6693 110.024 21.744C109.96 21.8187 109.922 21.8613 109.912 21.872C109.677 21.5947 109.384 21.312 109.032 21.024C108.69 20.7253 108.317 20.4373 107.912 20.16C107.112 21.2267 106.194 22.2133 105.16 23.12C104.136 24.016 103.021 24.7573 101.816 25.344ZM120.36 25.776C120.349 25.7547 120.306 25.6693 120.232 25.52C120.157 25.3707 120.109 25.2907 120.088 25.28C120.856 25.0773 121.597 24.7893 122.312 24.416C123.037 24.032 123.693 23.5573 124.28 22.992C124.877 22.4267 125.373 21.7707 125.768 21.024C126.173 20.2667 126.445 19.408 126.584 18.448L127.128 18.528C126.978 19.5307 126.69 20.432 126.264 21.232C125.848 22.0213 125.33 22.7147 124.712 23.312C124.104 23.9093 123.426 24.416 122.68 24.832C121.933 25.2373 121.16 25.552 120.36 25.776ZM122.76 20.608C122.728 20.384 122.669 20.1333 122.584 19.856C122.498 19.5787 122.402 19.312 122.296 19.056C122.189 18.7893 122.088 18.576 121.992 18.416L122.52 18.24C122.584 18.3787 122.669 18.592 122.776 18.88C122.882 19.1573 122.984 19.4453 123.08 19.744C123.186 20.032 123.261 20.272 123.304 20.464L122.76 20.608ZM119.896 21.232C119.864 21.008 119.8 20.7573 119.704 20.48C119.618 20.192 119.522 19.92 119.416 19.664C119.309 19.408 119.208 19.2 119.112 19.04L119.624 18.848C119.698 18.9867 119.789 19.2 119.896 19.488C120.002 19.7653 120.104 20.0533 120.2 20.352C120.306 20.64 120.386 20.88 120.44 21.072L119.896 21.232ZM139.896 25.184C139.074 25.184 138.482 25.0453 138.12 24.768C137.768 24.48 137.592 23.984 137.592 23.28V18.992C136.781 19.152 136.008 19.296 135.272 19.424C134.546 19.552 133.938 19.6587 133.448 19.744L133.32 19.184C133.554 19.152 133.89 19.0987 134.328 19.024C134.765 18.9493 135.261 18.864 135.816 18.768C136.381 18.6613 136.973 18.5493 137.592 18.432V14.368H138.152V18.336C138.845 18.208 139.528 18.08 140.2 17.952C140.872 17.8133 141.49 17.6853 142.056 17.568C142.632 17.4507 143.117 17.3493 143.512 17.264C143.906 17.168 144.162 17.0987 144.28 17.056L144.648 17.344C144.424 17.728 144.136 18.176 143.784 18.688C143.432 19.1893 143.069 19.68 142.696 20.16C142.322 20.64 141.981 21.0453 141.672 21.376L141.208 20.992C141.464 20.7573 141.752 20.448 142.072 20.064C142.392 19.6693 142.706 19.264 143.016 18.848C143.325 18.4213 143.586 18.048 143.8 17.728C143.405 17.8133 142.904 17.92 142.296 18.048C141.698 18.1653 141.042 18.2987 140.328 18.448C139.613 18.5867 138.888 18.7307 138.152 18.88V23.264C138.152 23.7867 138.29 24.144 138.568 24.336C138.856 24.5173 139.298 24.608 139.896 24.608C140.44 24.608 140.994 24.592 141.56 24.56C142.136 24.528 142.685 24.48 143.208 24.416C143.73 24.352 144.173 24.272 144.536 24.176C144.536 24.176 144.53 24.2293 144.52 24.336C144.509 24.432 144.498 24.5333 144.488 24.64C144.477 24.736 144.472 24.784 144.472 24.784C144.194 24.848 143.853 24.9067 143.448 24.96C143.053 25.0133 142.637 25.056 142.2 25.088C141.762 25.12 141.341 25.1467 140.936 25.168C140.53 25.1787 140.184 25.184 139.896 25.184ZM162.584 20.208C162.21 20.208 161.693 20.208 161.032 20.208C160.381 20.1973 159.65 20.192 158.84 20.192C158.029 20.192 157.186 20.192 156.312 20.192C155.437 20.192 154.578 20.192 153.736 20.192C152.904 20.192 152.141 20.1973 151.448 20.208C150.754 20.208 150.189 20.208 149.752 20.208V19.632C150.2 19.632 150.77 19.6373 151.464 19.648C152.157 19.648 152.92 19.648 153.752 19.648C154.584 19.648 155.432 19.648 156.296 19.648C157.17 19.648 158.013 19.648 158.824 19.648C159.645 19.648 160.381 19.648 161.032 19.648C161.682 19.6373 162.2 19.632 162.584 19.632V20.208ZM168.552 25.392L168.28 24.864C169.261 24.512 170.242 24.08 171.224 23.568C172.216 23.0453 173.165 22.4747 174.072 21.856C174.989 21.2373 175.826 20.5973 176.584 19.936C177.341 19.2747 177.976 18.624 178.488 17.984C178.488 17.984 178.514 18.0373 178.568 18.144C178.621 18.24 178.669 18.336 178.712 18.432C178.765 18.5173 178.792 18.5653 178.792 18.576C178.258 19.184 177.608 19.8133 176.84 20.464C176.072 21.104 175.229 21.7333 174.312 22.352C173.394 22.96 172.445 23.5253 171.464 24.048C170.482 24.5707 169.512 25.0187 168.552 25.392ZM171.624 16.96C171.57 16.896 171.432 16.784 171.208 16.624C170.984 16.4533 170.728 16.2667 170.44 16.064C170.152 15.8613 169.88 15.68 169.624 15.52C169.368 15.3493 169.181 15.2427 169.064 15.2L169.384 14.672C169.544 14.768 169.746 14.9013 169.992 15.072C170.248 15.232 170.509 15.408 170.776 15.6C171.053 15.7813 171.304 15.952 171.528 16.112C171.752 16.2613 171.912 16.3787 172.008 16.464L171.624 16.96ZM169.656 20.096C169.549 20 169.378 19.8827 169.144 19.744C168.909 19.6053 168.653 19.4613 168.376 19.312C168.098 19.152 167.832 19.0133 167.576 18.896C167.32 18.7787 167.112 18.6987 166.952 18.656L167.24 18.128C167.41 18.2027 167.629 18.304 167.896 18.432C168.162 18.56 168.434 18.6987 168.712 18.848C169 18.9973 169.256 19.136 169.48 19.264C169.714 19.392 169.88 19.488 169.976 19.552L169.656 20.096ZM177.112 16.8C176.973 16.576 176.781 16.3253 176.536 16.048C176.301 15.76 176.05 15.488 175.784 15.232C175.528 14.9653 175.298 14.7573 175.096 14.608L175.48 14.288C175.672 14.4373 175.901 14.6507 176.168 14.928C176.434 15.1947 176.696 15.472 176.952 15.76C177.208 16.0373 177.4 16.272 177.528 16.464L177.112 16.8ZM178.312 15.68C178.162 15.456 177.96 15.2107 177.704 14.944C177.458 14.6773 177.197 14.4213 176.92 14.176C176.653 13.92 176.413 13.7173 176.2 13.568L176.568 13.232C176.76 13.3707 176.994 13.5733 177.272 13.84C177.56 14.1067 177.837 14.3787 178.104 14.656C178.37 14.9227 178.573 15.1467 178.712 15.328L178.312 15.68ZM182.12 26.224V25.648H189.096V21.504H184.344V20.928H189.096V17.104H184.84C184.53 17.6587 184.2 18.176 183.848 18.656C183.496 19.1253 183.149 19.536 182.808 19.888L182.248 19.504C182.589 19.1947 182.946 18.7893 183.32 18.288C183.704 17.7867 184.066 17.2373 184.408 16.64C184.749 16.0427 185.042 15.456 185.288 14.88C185.533 14.2933 185.704 13.776 185.8 13.328L186.408 13.52C186.269 14.0107 186.093 14.512 185.88 15.024C185.666 15.536 185.426 16.0373 185.16 16.528H189.096V12.8H189.672V16.528H195.336V17.104H189.672V20.928H194.392V21.504H189.672V25.648H196.12V26.224H182.12ZM211.192 26.832C210.893 26.7147 210.552 26.5227 210.168 26.256C209.794 25.9893 209.41 25.6213 209.016 25.152C208.621 24.6827 208.242 24.0907 207.88 23.376C207.25 24.0907 206.573 24.7253 205.848 25.28C205.122 25.824 204.376 26.2773 203.608 26.64L203.288 26.144C204.077 25.792 204.84 25.328 205.576 24.752C206.312 24.176 206.989 23.5307 207.608 22.816C207.277 22.0373 206.973 21.12 206.696 20.064C206.429 19.008 206.232 17.7867 206.104 16.4H200.504V18.816H204.376C204.376 19.5947 204.354 20.3573 204.312 21.104C204.269 21.8507 204.189 22.5173 204.072 23.104C203.986 23.552 203.869 23.8987 203.72 24.144C203.581 24.3893 203.389 24.56 203.144 24.656C202.898 24.752 202.568 24.8 202.152 24.8H201.032C201.021 24.7147 200.994 24.6133 200.952 24.496C200.92 24.3787 200.893 24.288 200.872 24.224H202.152C202.482 24.224 202.728 24.192 202.888 24.128C203.048 24.0533 203.165 23.9307 203.24 23.76C203.314 23.5787 203.389 23.3227 203.464 22.992C203.528 22.7253 203.581 22.3947 203.624 22C203.666 21.5947 203.698 21.168 203.72 20.72C203.741 20.2613 203.752 19.8187 203.752 19.392H200.504C200.504 20.448 200.456 21.3547 200.36 22.112C200.274 22.8693 200.146 23.5253 199.976 24.08C199.805 24.6347 199.592 25.1253 199.336 25.552C199.08 25.9787 198.786 26.384 198.456 26.768L198.008 26.48C198.338 26.0747 198.621 25.6587 198.856 25.232C199.101 24.8053 199.304 24.3253 199.464 23.792C199.624 23.248 199.741 22.608 199.816 21.872C199.89 21.136 199.928 20.2613 199.928 19.248V15.824H206.04C206.008 15.344 205.981 14.8427 205.96 14.32C205.938 13.7867 205.928 13.2373 205.928 12.672H206.504C206.504 13.2373 206.509 13.7867 206.52 14.32C206.541 14.8427 206.573 15.344 206.616 15.824H212.104V16.4H206.664C206.781 17.6907 206.957 18.8213 207.192 19.792C207.437 20.7627 207.709 21.6107 208.008 22.336C208.488 21.7173 208.909 21.072 209.272 20.4C209.645 19.7173 209.944 19.0187 210.168 18.304L210.728 18.592C210.429 19.4027 210.066 20.1707 209.64 20.896C209.224 21.6213 208.765 22.2933 208.264 22.912C208.605 23.6053 208.957 24.1813 209.32 24.64C209.693 25.088 210.056 25.4453 210.408 25.712C210.77 25.968 211.101 26.16 211.4 26.288C211.506 26.0427 211.618 25.7387 211.736 25.376C211.864 25.0027 211.976 24.6293 212.072 24.256C212.178 23.872 212.253 23.552 212.296 23.296L212.84 23.568C212.776 23.8773 212.685 24.2293 212.568 24.624C212.461 25.008 212.349 25.3813 212.232 25.744C212.114 26.096 212.002 26.3893 211.896 26.624C211.768 26.8907 211.533 26.96 211.192 26.832ZM210.664 15.488C210.472 15.264 210.242 15.0293 209.976 14.784C209.709 14.528 209.437 14.2933 209.16 14.08C208.882 13.856 208.626 13.6747 208.392 13.536L208.76 13.104C209.005 13.264 209.277 13.4667 209.576 13.712C209.874 13.9467 210.157 14.1867 210.424 14.432C210.701 14.6667 210.914 14.8693 211.064 15.04L210.664 15.488ZM218.04 25.376L217.768 24.848C218.749 24.496 219.73 24.064 220.712 23.552C221.704 23.0293 222.653 22.4587 223.56 21.84C224.477 21.2213 225.314 20.5867 226.072 19.936C226.829 19.2747 227.464 18.624 227.976 17.984C227.976 17.984 228.002 18.0373 228.056 18.144C228.109 18.24 228.157 18.336 228.2 18.432C228.253 18.5173 228.28 18.5653 228.28 18.576C227.746 19.184 227.096 19.8133 226.328 20.464C225.56 21.104 224.717 21.728 223.8 22.336C222.882 22.944 221.933 23.5093 220.952 24.032C219.97 24.5547 219 25.0027 218.04 25.376ZM221.112 16.96C221.058 16.896 220.92 16.7787 220.696 16.608C220.472 16.4373 220.216 16.2507 219.928 16.048C219.64 15.8453 219.368 15.664 219.112 15.504C218.856 15.3333 218.669 15.2267 218.552 15.184L218.872 14.656C219.032 14.752 219.234 14.8853 219.48 15.056C219.736 15.216 219.997 15.392 220.264 15.584C220.541 15.7653 220.792 15.936 221.016 16.096C221.24 16.256 221.4 16.3733 221.496 16.448L221.112 16.96ZM219.144 20.096C219.037 20 218.866 19.8827 218.632 19.744C218.397 19.5947 218.141 19.4453 217.864 19.296C217.586 19.1467 217.32 19.0133 217.064 18.896C216.808 18.7787 216.6 18.6987 216.44 18.656L216.728 18.112C216.898 18.1867 217.117 18.2933 217.384 18.432C217.65 18.56 217.922 18.6987 218.2 18.848C218.488 18.9973 218.744 19.136 218.968 19.264C219.202 19.392 219.368 19.488 219.464 19.552L219.144 20.096ZM233.176 25.056C233.176 25.056 233.144 25.0133 233.08 24.928C233.026 24.8427 232.968 24.7627 232.904 24.688C232.85 24.6027 232.818 24.56 232.808 24.56C233.661 24.1867 234.514 23.712 235.368 23.136C236.232 22.56 237.053 21.9093 237.832 21.184C238.621 20.4587 239.325 19.6907 239.944 18.88C240.562 18.0693 241.053 17.248 241.416 16.416C241.021 16.448 240.514 16.4853 239.896 16.528C239.277 16.56 238.621 16.592 237.928 16.624C237.245 16.656 236.594 16.688 235.976 16.72C235.368 16.7413 234.866 16.7627 234.472 16.784L234.392 16.208C234.626 16.208 234.989 16.2027 235.48 16.192C235.981 16.1707 236.541 16.1493 237.16 16.128C237.789 16.096 238.413 16.064 239.032 16.032C239.65 16 240.205 15.968 240.696 15.936C241.186 15.904 241.538 15.872 241.752 15.84L242.136 16.08C241.88 16.784 241.528 17.4827 241.08 18.176C240.642 18.8587 240.141 19.5253 239.576 20.176C239.906 20.4427 240.274 20.7573 240.68 21.12C241.085 21.4827 241.49 21.8667 241.896 22.272C242.312 22.6667 242.701 23.056 243.064 23.44C243.426 23.8133 243.73 24.1493 243.976 24.448C243.976 24.448 243.938 24.4853 243.864 24.56C243.789 24.624 243.714 24.688 243.64 24.752C243.565 24.816 243.522 24.8533 243.512 24.864C243.288 24.5653 243 24.2293 242.648 23.856C242.296 23.472 241.912 23.0773 241.496 22.672C241.09 22.2667 240.685 21.8827 240.28 21.52C239.885 21.1573 239.533 20.8427 239.224 20.576C238.338 21.5253 237.362 22.3947 236.296 23.184C235.24 23.9627 234.2 24.5867 233.176 25.056ZM250.984 26C250.984 25.9893 250.952 25.9467 250.888 25.872C250.834 25.7867 250.776 25.7013 250.712 25.616C250.658 25.5307 250.626 25.488 250.616 25.488C252.173 24.9227 253.304 24.1173 254.008 23.072C254.712 22.016 255.069 20.656 255.08 18.992C254.344 19.0027 253.624 19.0133 252.92 19.024C252.216 19.0347 251.576 19.0453 251 19.056C250.434 19.0667 249.981 19.0773 249.64 19.088C249.298 19.088 249.128 19.088 249.128 19.088V18.512C249.128 18.512 249.293 18.512 249.624 18.512C249.954 18.5013 250.392 18.496 250.936 18.496C251.49 18.4853 252.114 18.4747 252.808 18.464C253.501 18.4533 254.216 18.4427 254.952 18.432C255.688 18.4213 256.397 18.4107 257.08 18.4C257.773 18.3893 258.397 18.384 258.952 18.384C259.506 18.3733 259.949 18.368 260.28 18.368C260.61 18.3573 260.776 18.352 260.776 18.352V18.912C260.776 18.912 260.632 18.9173 260.344 18.928C260.066 18.928 259.682 18.9333 259.192 18.944C258.712 18.9547 258.162 18.9653 257.544 18.976C256.936 18.976 256.301 18.9813 255.64 18.992C255.629 20.7627 255.245 22.2133 254.488 23.344C253.741 24.464 252.573 25.3493 250.984 26ZM251.32 15.328L251.304 14.768C251.304 14.768 251.432 14.768 251.688 14.768C251.954 14.7573 252.301 14.7467 252.728 14.736C253.165 14.7253 253.64 14.7147 254.152 14.704C254.664 14.6827 255.17 14.6667 255.672 14.656C256.184 14.6453 256.653 14.6347 257.08 14.624C257.517 14.6133 257.864 14.608 258.12 14.608C258.386 14.5973 258.52 14.592 258.52 14.592L258.536 15.168C258.536 15.168 258.402 15.1733 258.136 15.184C257.869 15.184 257.522 15.1893 257.096 15.2C256.669 15.2107 256.2 15.2213 255.688 15.232C255.176 15.2427 254.664 15.2533 254.152 15.264C253.64 15.2747 253.17 15.2853 252.744 15.296C252.317 15.3067 251.97 15.3173 251.704 15.328C251.448 15.328 251.32 15.328 251.32 15.328ZM276.36 24.752C276.253 24.528 276.104 24.2773 275.912 24C275.73 23.712 275.528 23.4133 275.304 23.104C275.133 23.1253 274.834 23.1627 274.408 23.216C273.992 23.2587 273.496 23.312 272.92 23.376C272.344 23.44 271.736 23.5093 271.096 23.584C270.456 23.648 269.826 23.7173 269.208 23.792C268.589 23.856 268.024 23.92 267.512 23.984C267.01 24.0373 266.605 24.08 266.296 24.112C265.997 24.144 265.848 24.16 265.848 24.16L265.672 23.6C265.682 23.6 265.874 23.5787 266.248 23.536C266.621 23.4933 267.101 23.44 267.688 23.376C267.912 23.0027 268.173 22.5227 268.472 21.936C268.781 21.3493 269.096 20.7147 269.416 20.032C269.736 19.3493 270.04 18.6827 270.328 18.032C270.616 17.3707 270.861 16.7787 271.064 16.256C271.266 15.7333 271.4 15.3387 271.464 15.072L272.072 15.312C271.997 15.5467 271.858 15.904 271.656 16.384C271.453 16.864 271.213 17.4133 270.936 18.032C270.669 18.64 270.381 19.2693 270.072 19.92C269.762 20.5707 269.458 21.1947 269.16 21.792C268.861 22.3787 268.594 22.88 268.36 23.296C268.936 23.232 269.544 23.168 270.184 23.104C270.824 23.04 271.448 22.976 272.056 22.912C272.674 22.8373 273.234 22.7733 273.736 22.72C274.237 22.6667 274.632 22.624 274.92 22.592C274.536 22.08 274.146 21.5947 273.752 21.136C273.368 20.6667 273.048 20.3147 272.792 20.08L273.24 19.712C273.485 19.968 273.773 20.2933 274.104 20.688C274.445 21.072 274.786 21.488 275.128 21.936C275.48 22.384 275.81 22.8213 276.12 23.248C276.429 23.6747 276.685 24.048 276.888 24.368C276.888 24.368 276.845 24.4 276.76 24.464C276.674 24.528 276.589 24.592 276.504 24.656C276.418 24.7093 276.37 24.7413 276.36 24.752Z" fill="white"/>
</svg>
