<svg width="369" height="39" viewBox="0 0 369 39" fill="none" xmlns="http://www.w3.org/2000/svg">
<path d="M70.4077 23.9185C68.4359 23.9185 67.9215 24.9816 67.9215 25.6674C67.9215 28.7024 65.984 28.9596 63.0348 28.9596H62.1603C58.4396 28.9596 57.0507 27.8279 57.0507 24.0043V20.0949C57.0507 16.477 58.3367 15.2082 62.1603 15.2082H63.2577C66.5841 15.2082 67.7158 16.3055 67.7158 18.0545C67.7158 18.7918 68.2987 19.6148 70.2706 19.6148C72.2424 19.6148 72.7225 18.1573 72.7225 17.42C72.7225 12.8591 70.0648 10.15 63.2406 10.15H62.1432C54.3073 10.1328 51.9068 12.9448 51.9068 20.0949V24.0043C51.9068 31.12 53.9472 34.0692 62.1603 34.0692H63.0348C70.4763 34.0692 72.894 31.6687 72.894 25.8561C72.894 25.1188 72.4139 23.9185 70.4077 23.9185Z" fill="black"/>
<path d="M113.222 12.2418C113.222 11.0416 112.622 10.1328 110.702 10.1328C108.781 10.1328 108.181 10.9901 108.181 12.2075V32.0116C108.181 33.2633 108.747 34.052 110.702 34.052C112.657 34.052 113.222 33.1775 113.222 31.9773V12.2418Z" fill="black"/>
<path d="M140.279 12.4647C140.279 11.093 139.731 10.1328 137.81 10.1328C135.89 10.1328 135.341 11.1273 135.341 12.4647V27.0563C135.341 27.1763 135.238 27.2792 135.153 27.2792C135.033 27.2792 134.93 27.2106 134.895 27.0906L129.117 13.0648C128.483 11.556 127.608 10.5615 125.945 10.5615H123.51C121.778 10.5615 120.904 11.5903 120.904 13.2877V31.7544C120.904 33.1947 121.453 34.052 123.373 34.052C125.293 34.052 125.842 33.1261 125.842 31.7544V18.0544C125.842 17.9344 125.911 17.8658 126.065 17.8658C126.134 17.8658 126.219 17.9344 126.254 18.0201L131.672 31.36C132.289 32.9032 133.146 33.8291 134.792 33.8291H137.656C139.353 33.8291 140.279 32.8346 140.279 31.1371V12.4647Z" fill="black"/>
<path d="M90.7604 10.1328H89.3716C81.9815 10.1328 79.3924 12.7562 79.3924 20.0777V24.21C79.3924 31.48 81.9472 34.0863 89.3716 34.0863H90.7604C98.1848 34.0863 100.774 31.48 100.774 24.21V20.0777C100.774 12.8076 98.1505 10.1328 90.7604 10.1328ZM95.6643 24.1928C95.6643 28.1879 93.9497 28.9595 90.7604 28.9595H89.3716C86.1481 28.9595 84.502 28.1879 84.502 24.1928V20.0606C84.502 16.0312 86.1481 15.311 89.3716 15.311H90.7604C93.9497 15.311 95.6643 16.0312 95.6643 20.0606V24.1928Z" fill="black"/>
<path d="M181.808 10.1328H166.29C164.884 10.1328 163.89 10.7158 163.89 12.6876C163.89 14.6595 164.953 15.2767 166.29 15.2767H171.554V31.703C171.554 33.1947 172.171 34.0692 174.092 34.0692C176.012 34.0692 176.681 33.0918 176.681 31.703V15.2767H181.808C183.162 15.2767 184.208 14.6595 184.208 12.6876C184.208 10.7158 183.248 10.1328 181.808 10.1328Z" fill="black"/>
<path d="M200.206 10.1328H198.834C191.495 10.1328 188.923 12.7562 188.923 20.0777V24.21C188.923 31.48 191.461 34.0863 198.834 34.0863H200.206C207.579 34.0863 210.151 31.48 210.151 24.21V20.0777C210.151 12.8076 207.562 10.1328 200.206 10.1328ZM205.092 24.1928C205.092 28.1879 203.395 28.9595 200.223 28.9595H198.851C195.645 28.9595 194.016 28.1879 194.016 24.1928V20.0606C194.016 16.0312 195.645 15.311 198.851 15.311H200.223C203.395 15.311 205.092 16.0312 205.092 20.0606V24.1928Z" fill="black"/>
<path d="M237.859 22.7353C237.859 21.2265 237.002 20.352 235.51 20.352H229.32C227.966 20.352 227.005 20.935 227.005 22.7696C227.005 24.6043 228.068 25.2216 229.354 25.2216H232.492C232.715 25.2216 232.852 25.3244 232.852 25.6159V25.7702C232.852 27.8278 231.858 28.8052 228.531 28.8052H226.097C222.89 28.8052 221.896 27.6392 221.896 24.0385V20.0434C221.896 16.7855 222.959 15.2424 226.217 15.2424H229.012C231.926 15.2424 232.698 15.8254 232.698 16.717C232.698 17.5571 233.109 18.2944 235.27 18.2944C237.105 18.2944 237.739 17.6429 237.739 16.5626C237.739 12.3789 233.795 10.1499 229.012 10.1499H226.217C219.255 10.1499 216.82 13.2191 216.82 20.0434V24.0385C216.82 30.7427 218.912 33.8633 226.079 33.8633H228.514C230.658 33.8633 232.458 33.2118 233.864 32.0287V32.9546C233.864 33.6919 234.378 34.0862 235.819 34.0862C237.259 34.0862 237.842 33.4347 237.842 32.5774V22.7525L237.859 22.7353Z" fill="black"/>
<path d="M261.178 10.1329H247.17C245.695 10.1329 244.821 11.0416 244.821 12.5162V31.7202C244.821 33.1947 245.678 34.0692 247.17 34.0692H261.058C262.31 34.0692 263.459 33.4519 263.459 31.583C263.459 29.714 262.241 29.0282 261.092 29.0282H250.41C250.05 29.0282 249.862 28.8396 249.862 28.5138V23.9014H260.064C261.281 23.9014 262.413 23.5413 262.413 21.8781C262.413 20.2149 261.264 19.992 260.098 19.992H249.862V15.7397C249.862 15.3797 250.05 15.1568 250.41 15.1568H261.178C262.361 15.1568 263.493 14.5738 263.493 12.6705C263.493 10.7673 262.344 10.1157 261.178 10.1157V10.1329Z" fill="black"/>
<path d="M287.326 10.1328H271.809C270.403 10.1328 269.408 10.7158 269.408 12.6876C269.408 14.6595 270.471 15.2767 271.809 15.2767H277.073V31.703C277.073 33.1947 277.69 34.0692 279.61 34.0692C281.531 34.0692 282.2 33.0918 282.2 31.703V15.2767H287.326C288.681 15.2767 289.727 14.6595 289.727 12.6876C289.727 10.7158 288.767 10.1328 287.326 10.1328Z" fill="black"/>
<path d="M315.875 12.4819C315.875 11.093 315.292 10.1328 313.338 10.1328C311.383 10.1328 310.834 11.1102 310.834 12.4476V19.0832H300.958V12.4476C300.958 11.0587 300.409 10.1328 298.386 10.1328C296.534 10.1328 295.917 11.1102 295.917 12.4476V31.7544C295.917 33.2118 296.517 34.0692 298.386 34.0692C300.409 34.0692 300.958 33.1432 300.958 31.7544V24.1585H310.834V31.7201C310.834 33.2118 311.417 34.0692 313.338 34.0692C315.258 34.0692 315.875 33.1432 315.875 31.7201V12.4819Z" fill="black"/>
<path d="M339.28 10.1329H325.271C323.797 10.1329 322.922 11.0416 322.922 12.5162V31.7202C322.922 33.1947 323.78 34.0692 325.271 34.0692H339.16C340.412 34.0692 341.56 33.4519 341.56 31.583C341.56 29.714 340.343 29.0282 339.194 29.0282H328.512C328.152 29.0282 327.963 28.8396 327.963 28.5138V23.9014H338.165C339.383 23.9014 340.514 23.5413 340.514 21.8781C340.514 20.2149 339.366 19.992 338.2 19.992H327.963V15.7397C327.963 15.3797 328.152 15.1568 328.512 15.1568H339.28C340.463 15.1568 341.595 14.5738 341.595 12.6705C341.595 10.7673 340.446 10.1157 339.28 10.1157V10.1329Z" fill="black"/>
<path d="M368.412 17.2486C368.412 12.6876 366.971 10.1328 360.747 10.1328H350.682C349.208 10.1328 348.333 11.0416 348.333 12.499V31.7201C348.333 33.2118 348.916 34.0863 350.837 34.0863C352.757 34.0863 353.409 33.1432 353.409 31.7201V15.6711C353.409 15.2767 353.529 15.1224 353.923 15.1224H360.747C362.41 15.1224 363.336 15.9283 363.336 17.5743V18.706C363.336 20.0263 362.599 20.9693 360.61 20.9693H357.695C356.118 20.9693 355.518 21.6209 355.518 23.2669C355.518 25.2731 355.672 25.7532 356.838 26.9191L363.285 33.349C363.731 33.7948 364.571 34.0349 365.085 34.0349C367.4 34.0349 368.326 33.1261 368.326 32.2859C368.326 31.6687 368.103 31.1886 367.589 30.7085L362.033 25.6674L362.925 25.7017C366.68 25.8046 368.412 22.8211 368.412 19.0318V17.2486Z" fill="black"/>
<path d="M28.2654 16.124C26.2669 17.7092 22.9119 18.7303 19.0365 18.7303C15.1611 18.7303 11.8012 17.7092 9.80756 16.124V19.0366C9.80756 20.9913 13.6003 23.1648 19.0365 23.1648C24.4727 23.1648 28.1584 21.0448 28.2557 19.1144V17.2618H28.2654V16.124Z" fill="black"/>
<path d="M30.2104 20.8064V25.4112C30.2104 28.8149 25.3042 31.4844 19.0365 31.4844C12.7688 31.4844 7.86258 28.8149 7.86258 25.4112V12.657C7.86258 9.25324 12.7737 6.58376 19.0365 6.58376C25.2993 6.58376 30.2104 9.25324 30.2104 12.657V17.2617H37.9855C37.0859 7.59515 28.9316 0 19.0365 0C8.53846 0 0 8.53846 0 19.0365C0 29.5345 8.53846 38.073 19.0365 38.073C28.9364 38.073 37.0859 30.4778 37.9855 20.8113H30.2104V20.8064Z" fill="black"/>
<path d="M19.0365 8.52881C13.5954 8.52881 9.80756 10.7072 9.80756 12.657C9.80756 14.6069 13.6003 16.7852 19.0365 16.7852C24.4727 16.7852 28.2654 14.6069 28.2654 12.657C28.2654 10.7072 24.4727 8.52881 19.0365 8.52881Z" fill="black"/>
<path d="M9.80267 22.4985V25.4111C9.80267 27.3658 13.5954 29.5394 19.0316 29.5394C24.4678 29.5394 28.2605 27.361 28.2605 25.4111V22.4985C26.2621 24.0837 22.907 25.1048 19.0316 25.1048C15.1562 25.1048 11.7963 24.0837 9.80267 22.4985Z" fill="black"/>
</svg>
