<svg width="201" height="39" viewBox="0 0 201 39" fill="none" xmlns="http://www.w3.org/2000/svg">
<path d="M54.3492 6.30957H70.9852V9.99623H57.6123V17.3695H69.0258V21.0562H57.6123V28.4111H70.9852V32.0977H54.3492V6.30957Z" fill="#808184"/>
<path d="M78.0197 6.30957L84.115 15.9663L90.2435 6.30957H94.1916L86.1038 19.0969L94.3647 32.0977H90.4165L84.1113 22.1906L77.8539 32.0977H73.9058L82.1667 19.0969L74.0789 6.30957H78.0123H78.0197Z" fill="#808184"/>
<path d="M117.829 28.4111C117.829 28.9156 117.744 29.3907 117.575 29.8401C117.405 30.2894 117.173 30.6835 116.875 31.0186C116.577 31.3538 116.23 31.619 115.833 31.8105C115.435 32.002 115.011 32.0977 114.566 32.0977H101.528C101.082 32.0977 100.659 32.002 100.261 31.8105C99.8634 31.619 99.5172 31.3538 99.2189 31.0186C98.9205 30.6835 98.6885 30.2894 98.5191 29.8401C98.3497 29.3907 98.265 28.9156 98.265 28.4111V9.99623C98.265 9.49166 98.3497 9.01655 98.5191 8.56723C98.6885 8.11791 98.9205 7.72752 99.2189 7.39974C99.5172 7.06827 99.8634 6.80677 100.261 6.60789C100.659 6.40901 101.082 6.30957 101.528 6.30957H114.566C115.011 6.30957 115.435 6.40901 115.833 6.60789C116.23 6.80677 116.577 7.06827 116.875 7.39974C117.173 7.7312 117.405 8.11791 117.575 8.56723C117.744 9.01655 117.829 9.49166 117.829 9.99623V28.4111ZM101.528 9.99623V28.4111H114.566V9.99623H101.528Z" fill="#808184"/>
<path d="M133.463 32.0977V6.30957H145.068C146.287 6.30957 147.388 6.5232 148.372 6.94674C149.355 7.37396 150.191 7.97797 150.887 8.76244C151.583 9.54691 152.117 10.4971 152.497 11.6131C152.872 12.729 153.06 13.9702 153.06 15.3365V23.0708C153.06 24.4371 152.872 25.6783 152.497 26.7943C152.121 27.9102 151.583 28.8604 150.887 29.6449C150.191 30.4294 149.355 31.037 148.372 31.4606C147.388 31.8878 146.287 32.0977 145.068 32.0977H133.463ZM145.068 28.4111C146.586 28.4111 147.753 27.9507 148.571 27.0263C149.388 26.1018 149.797 24.7833 149.797 23.0708V15.3365C149.797 14.4968 149.69 13.7492 149.48 13.0899C149.267 12.4307 148.957 11.8709 148.549 11.4068C148.14 10.9464 147.643 10.5929 147.061 10.3535C146.479 10.1141 145.812 9.99254 145.072 9.99254H136.73V28.4074H145.072L145.068 28.4111Z" fill="#808184"/>
<path d="M168.385 6.30957L177.187 32.0977H173.924L171.902 26.1645H161.605L159.583 32.0977H156.32L165.122 6.30957H168.385ZM162.846 22.4778H170.646L166.761 11.1122L162.846 22.4778Z" fill="#808184"/>
<path d="M200.67 28.4111C200.67 28.9156 200.585 29.3907 200.416 29.8401C200.246 30.2894 200.014 30.6835 199.716 31.0186C199.418 31.3538 199.072 31.619 198.674 31.8105C198.276 32.002 197.852 32.0977 197.407 32.0977H184.369C183.923 32.0977 183.5 32.002 183.102 31.8105C182.704 31.619 182.358 31.3538 182.06 31.0186C181.762 30.6835 181.53 30.2894 181.36 29.8401C181.191 29.3907 181.106 28.9156 181.106 28.4111V9.99623C181.106 9.49166 181.191 9.01655 181.36 8.56723C181.53 8.11791 181.762 7.72752 182.06 7.39974C182.358 7.06827 182.704 6.80677 183.102 6.60789C183.5 6.40901 183.923 6.30957 184.369 6.30957H197.407C197.852 6.30957 198.276 6.40901 198.674 6.60789C199.072 6.80677 199.418 7.06827 199.716 7.39974C200.014 7.7312 200.246 8.11791 200.416 8.56723C200.585 9.01655 200.67 9.49166 200.67 9.99623V28.4111ZM184.369 9.99623V28.4111H197.407V9.99623H184.369Z" fill="#808184"/>
<path d="M32.9438 32.6642H19.8767C17.4717 32.6642 15.1072 32.0197 13.0411 30.797L12.6065 30.5392L19.8656 23.28L24.694 27.9537H31.7285C32.0121 27.9537 32.1225 27.7364 32.152 27.6701C32.1778 27.6038 32.2551 27.3718 32.0526 27.1729L28.8889 24.0093L23.9316 19.2177L35.5735 7.57585L35.846 7.29596C37.8127 5.32926 38.9471 2.75118 39.0723 0H35.474C34.3544 0 33.3269 0.666612 32.8518 1.69784C32.6418 2.15085 32.373 2.56703 32.0489 2.94269L32.0599 2.95373L31.2754 3.74189L31.0066 3.55037C27.7435 1.22641 23.8948 0 19.8767 0C16.9045 0 13.9581 0.69238 11.3175 2.0072L12.4665 3.15629L15.7186 6.40835C17.0592 5.97008 18.4587 5.74911 19.8804 5.74911C22.2853 5.74911 24.6498 6.39363 26.716 7.61638L27.1505 7.87417L19.8804 15.1444L7.69341 2.95741L7.70445 2.94638C7.38034 2.57071 7.11149 2.1582 6.90525 1.70888C6.42646 0.673966 5.39156 0.00366409 4.27194 0.00366409H0.681043C0.806264 2.75853 1.94428 5.3366 3.90731 7.29963L4.18353 7.57585H4.17986L4.41189 7.81156L4.22037 8.08041C1.89642 11.3435 0.669983 15.1922 0.669983 19.2104C0.669983 22.1825 1.36239 25.1289 2.67721 27.7733L5.36946 25.081C6.34544 24.105 6.80213 22.6945 6.58483 21.3097C6.47434 20.6209 6.42278 19.9138 6.42278 19.2104C6.42278 16.8054 7.0673 14.4409 8.29005 12.3748L8.54786 11.9402L15.818 19.2067L4.18353 30.8412L3.91468 31.1174C1.94797 33.0804 0.813614 35.6622 0.688393 38.4134H4.34558C5.46152 38.4134 6.44119 37.7357 6.90525 36.7229C7.11149 36.2736 7.38035 35.8537 7.70813 35.4707L7.69709 35.4596L8.48526 34.6678L8.75411 34.8593C12.0172 37.1832 15.8659 38.4097 19.884 38.4097H39.0834C38.8808 35.2055 36.2107 32.6606 32.9549 32.6606L32.9438 32.6642Z" fill="#0C408C"/>
<path d="M37.1829 21.2177C38.2473 20.0354 38.7666 18.4554 38.6045 16.8791C38.3909 14.8056 37.8532 12.9825 37.0061 11.4541L33.9419 14.5183C33.43 15.0303 33.2163 15.7595 33.371 16.4703C33.5736 17.3874 33.6767 18.3339 33.6767 19.2841C33.6767 20.5805 33.4852 21.8622 33.1096 23.0923C34.6601 23.0554 36.1406 22.3778 37.1829 21.2213V21.2177Z" fill="#0C408C"/>
</svg>
