<svg width="162" height="40" viewBox="0 0 162 40" fill="none" xmlns="http://www.w3.org/2000/svg">
<path fill-rule="evenodd" clip-rule="evenodd" d="M13.1202 33.3985C18.4912 33.432 21.855 27.1833 18.5519 22.6169C17.9729 21.8121 17.2505 21.1749 16.6439 20.3142C14.1624 16.8042 12.4199 11.1535 15.7451 7.8224C18.0005 5.56437 16.3351 1.7805 13.3077 1.76373C10.2858 1.74696 8.57085 5.50848 10.7987 7.79445C14.0852 11.1647 12.271 16.793 9.75094 20.2695C9.13332 21.1191 8.40543 21.7506 7.81539 22.5443C4.45713 27.0659 7.74921 33.3594 13.1202 33.3929V33.3985Z" fill="#D9748F"/>
<path fill-rule="evenodd" clip-rule="evenodd" d="M27.1232 6.58717C21.7522 6.55364 18.3884 12.8023 21.6915 17.3687C22.2705 18.1735 22.9929 18.8107 23.5995 19.6714C26.081 23.1814 27.8235 28.8321 24.4983 32.1633C22.243 34.4213 23.9083 38.2052 26.9357 38.2219C29.9576 38.2387 31.6726 34.4772 29.4447 32.1912C26.1582 28.8209 27.9724 23.1926 30.4925 19.7162C31.1101 18.8666 31.838 18.235 32.428 17.4414C35.7863 12.9197 32.4942 6.62629 27.1232 6.59276V6.58717Z" fill="#0059BA"/>
<path d="M46 10.3679C46 9.03496 47.0459 8 48.3994 8C49.7528 8 50.7987 9.03496 50.7987 10.3679C50.7987 11.7008 49.7528 12.7357 48.3994 12.7357C47.0459 12.7357 46 11.6851 46 10.3679ZM46.1538 29.5694V16.8755C46.1538 15.3858 46.9997 14.4763 48.3994 14.4763C49.799 14.4763 50.6449 15.3858 50.6449 16.8755V29.5694C50.6449 31.0591 49.7836 31.953 48.3994 31.953C47.0151 31.953 46.1538 31.0591 46.1538 29.5694Z" fill="#71717A"/>
<path d="M54.0056 29.4596V11.4655C54.0056 9.91305 54.8669 9.00354 56.3281 9.00354H63.0263C67.5789 9.00354 70.7166 12.0927 70.7166 16.7422C70.7166 21.3916 67.4713 24.4808 62.8033 24.4808H58.6505V29.4518C58.6505 31.0042 57.7892 31.9137 56.3281 31.9137C54.8669 31.9137 54.0056 31.0042 54.0056 29.4518V29.4596ZM61.7882 20.7879C64.449 20.7879 66.0024 19.3453 66.0024 16.7579C66.0024 14.1705 64.4644 12.7435 61.8035 12.7435H58.6505V20.7801H61.7882V20.7879Z" fill="#71717A"/>
<path d="M73.1621 27.6563C73.0083 27.2486 72.916 26.8095 72.916 26.3862C72.916 25.1317 73.7619 24.3006 74.9616 24.3006C75.9152 24.3006 76.5458 24.6769 77.0995 25.6805C77.8224 27.4054 79.5604 28.1895 81.6829 28.1895C84.1746 28.1895 85.8664 26.9664 85.8664 25.3042C85.8664 23.8144 84.8205 22.9677 82.0367 22.3875L79.6834 21.917C75.2538 21.0232 73.0852 18.8592 73.0852 15.4878C73.0852 11.3479 76.6227 8.61157 81.5522 8.61157C85.6127 8.61157 88.6657 10.3522 89.65 13.3002C89.7577 13.6139 89.8192 13.9432 89.8192 14.3509C89.8192 15.4799 89.0194 16.2483 87.8351 16.2483C86.7893 16.2483 86.1433 15.8249 85.6203 14.8527C84.8821 13.1434 83.4517 12.4378 81.5445 12.4378C79.2528 12.4378 77.7301 13.5355 77.7301 15.1977C77.7301 16.5933 78.7914 17.4557 81.4215 17.9889L83.7593 18.475C88.4657 19.4316 90.4883 21.3603 90.4883 24.7945C90.4883 29.2166 87.0892 32 81.5599 32C76.9765 32 74.0465 30.1339 73.1544 27.6563H73.1621Z" fill="#71717A"/>
<path d="M99.5549 29.146V11.4655C99.5549 9.91305 100.416 9.00354 101.877 9.00354H108.03C114.682 9.00354 118.604 13.0493 118.604 20.2234C118.604 27.3975 114.682 31.6158 108.03 31.6158H101.877C100.416 31.6158 99.5549 30.7062 99.5549 29.1381V29.146ZM107.468 27.7033C111.621 27.7033 113.867 25.1316 113.867 20.2391C113.867 15.3466 111.559 12.9081 107.468 12.9081H104.192V27.7033H107.468Z" fill="#71717A"/>
<path d="M119.781 29.6948C119.781 29.3028 119.888 28.7697 120.088 28.1895L126.148 11.3714C126.794 9.53672 127.886 8.68994 129.639 8.68994C131.393 8.68994 132.531 9.50536 133.192 11.3557L139.283 28.1895C139.498 28.801 139.575 29.2244 139.575 29.6948C139.575 30.9964 138.606 31.9216 137.253 31.9216C135.899 31.9216 135.253 31.31 134.838 29.836L133.669 26.2607H125.664L124.495 29.7889C124.064 31.2943 123.372 31.9216 122.141 31.9216C120.696 31.9216 119.788 31.0591 119.788 29.6948H119.781ZM132.585 22.5913L129.647 13.3316H129.539L126.663 22.5913H132.585Z" fill="#71717A"/>
<path d="M140.606 20.3175C140.606 13.1121 144.728 8.61157 151.303 8.61157C157.878 8.61157 162 13.1121 162 20.3175C162 27.523 157.863 31.9922 151.303 31.9922C144.743 31.9922 140.606 27.5074 140.606 20.3175ZM157.255 20.3175C157.255 15.5662 154.933 12.5632 151.303 12.5632C147.673 12.5632 145.343 15.574 145.343 20.3175C145.343 25.0611 147.665 28.0405 151.303 28.0405C154.94 28.0405 157.255 25.0454 157.255 20.3175Z" fill="#71717A"/>
</svg>
