<svg width="211" height="37" viewBox="0 0 211 37" fill="none" xmlns="http://www.w3.org/2000/svg">
<path d="M15 34.0001C23.2843 34.0001 30 27.279 30 18.9881C30 10.6972 23.2843 3.97607 15 3.97607C6.71573 3.97607 0 10.6972 0 18.9881C0 27.279 6.71573 34.0001 15 34.0001Z" fill="#F21414"/>
<mask id="mask0_1_11" style="mask-type:luminance" maskUnits="userSpaceOnUse" x="0" y="3" width="30" height="31">
<path d="M15 34.0001C23.2843 34.0001 30 27.279 30 18.9881C30 10.6972 23.2843 3.97607 15 3.97607C6.71573 3.97607 0 10.6972 0 18.9881C0 27.279 6.71573 34.0001 15 34.0001Z" fill="white"/>
</mask>
<g mask="url(#mask0_1_11)">
<path d="M25.8272 15.0315C25.5762 13.684 24.8468 12.3319 23.769 11.211C23.4593 9.95158 23.002 8.67573 22.4097 7.41867C20.6095 3.59699 17.7432 1.31056 15.6544 0.0652317C15.5887 0.0264985 15.5137 0.00537109 15.4363 0.00537109C15.4328 0.00537109 15.4281 0.00537109 15.4245 0.00537109L15.0586 0.0147612C14.8686 0.0194561 14.7045 0.150914 14.6575 0.336364C14.6106 0.521814 14.6939 0.714306 14.8593 0.809378C16.9105 1.98311 19.7217 4.16038 21.4656 7.86351C21.8022 8.57831 22.093 9.30016 22.3358 10.0208C21.4621 9.45979 20.5602 9.15931 19.7146 9.15931C19.5856 9.15931 19.4578 9.16635 19.3335 9.18044C18.8491 9.2356 18.0504 9.45392 17.2611 9.89994C16.3311 10.4258 15.6685 11.1288 15.3425 11.934C15.285 12.076 15.2381 12.2204 15.1959 12.3613C15.1454 12.2439 15.0926 12.1253 15.034 12.008C14.681 11.2967 14.111 10.6417 13.3886 10.1147C12.6673 9.5889 11.864 9.24147 11.0653 9.11119C10.8342 9.07363 10.5997 9.05485 10.3651 9.05485C9.48319 9.05485 8.59069 9.32011 7.71344 9.8436C7.00977 10.2638 6.47029 10.7579 6.14073 11.0995C4.65011 12.6429 3.87607 14.9364 4.12119 17.0844C4.53049 20.6748 7.64777 23.331 10.398 25.6737C12.0176 27.054 13.5481 28.3581 14.1403 29.5752L14.1591 29.6128C14.4945 30.3088 14.8827 30.9532 15.448 30.9532C15.4902 30.9532 15.5324 30.9497 15.5747 30.9414C15.889 30.8851 16.1188 30.641 16.2572 30.2184C16.3511 29.932 16.3944 29.594 16.4226 29.3323L16.4273 29.29C16.5704 28.013 17.9801 26.3697 19.4742 24.6315C20.9191 22.9495 22.5563 21.0422 23.4113 19.0304C24.1149 17.3778 24.3683 15.5221 24.1689 13.4951C24.4797 14.0608 24.6966 14.6465 24.8034 15.2216C24.9406 15.9576 24.9066 16.6958 24.7013 17.4787C24.5149 18.1888 24.19 18.9189 23.708 19.7123C22.7955 21.2147 21.4574 22.696 20.1638 24.1291C18.9476 25.4765 17.7725 27.4355 17.0207 29.3675C16.5352 30.6175 15.8116 32.9509 16.4273 34.5378C16.4683 34.6434 16.5493 34.7279 16.6525 34.7737C16.7076 34.7971 16.765 34.8101 16.8237 34.8101C16.8753 34.8101 16.9281 34.8007 16.9773 34.7807L17.1568 34.7103C17.3761 34.6258 17.484 34.3781 17.3995 34.1598C17.0442 33.2443 17.2647 31.6292 18.0059 29.7301C18.7177 27.905 19.8131 26.0728 20.9378 24.8275C22.2537 23.3709 23.613 21.8638 24.5852 20.264C25.7275 18.3837 26.1345 16.6712 25.8284 15.0291L25.8272 15.0315ZM15.2592 13.4845C15.2592 13.4845 15.2627 13.4845 15.2639 13.4845C15.2627 13.4845 15.2604 13.4845 15.2592 13.4845C15.2568 13.4845 15.2545 13.4845 15.2521 13.4845C15.2451 13.4845 15.2381 13.4833 15.231 13.4822C15.2404 13.4822 15.2486 13.4845 15.2592 13.4845ZM15.448 30.5283C15.448 30.5283 15.4421 30.5283 15.4398 30.5283C15.4445 30.5283 15.4492 30.5283 15.4539 30.5283C15.4515 30.5283 15.4503 30.5283 15.448 30.5283ZM18.6802 23.9519C17.0794 25.8169 15.5676 27.5787 15.3882 29.1773L15.3835 29.2231C15.3671 29.3769 15.3495 29.5013 15.3319 29.6022C15.2674 29.4919 15.19 29.3487 15.0997 29.1597L15.0797 29.1198C14.3913 27.7043 12.7799 26.3322 11.0758 24.8791C8.47224 22.6608 5.52267 20.1478 5.15911 16.967C4.948 15.1207 5.61298 13.1512 6.89249 11.826C7.3792 11.3213 8.68334 10.1441 10.2772 10.1006C10.3077 10.1006 10.337 10.0995 10.3675 10.0995C10.5457 10.0995 10.724 10.1136 10.8987 10.1429C11.5297 10.2462 12.1959 10.5349 12.7764 10.9586C13.3546 11.38 13.826 11.9188 14.1016 12.4751C14.1626 12.5972 14.2213 12.7345 14.2776 12.8683L14.2799 12.873C14.3761 13.0984 14.4664 13.3108 14.5778 13.4833C14.7607 13.7674 14.9883 13.9118 15.2521 13.9118C15.258 13.9118 15.2639 13.9118 15.2709 13.9118C15.2803 13.9118 15.2885 13.9118 15.2967 13.9106C15.482 13.8988 15.7424 13.8085 15.9277 13.4446C16.0168 13.2697 16.079 13.0561 16.1458 12.8284V12.8261C16.1962 12.6559 16.2478 12.4798 16.3088 12.3284C16.6102 11.5831 17.2752 11.0878 17.7807 10.8049C18.4292 10.4399 19.086 10.2614 19.4519 10.2204C19.5364 10.211 19.6243 10.2063 19.7123 10.2063C20.6704 10.2063 21.8256 10.7802 22.8225 11.7462C23.4136 14.3378 23.2869 16.6512 22.4472 18.6255C21.6544 20.4882 20.0735 22.3298 18.6779 23.9554L18.6802 23.9519Z" fill="white"/>
</g>
<path d="M54.9061 31.9923C53.0101 31.9923 51.2341 31.7163 49.5781 31.1643C47.9221 30.5883 46.4701 29.7843 45.2221 28.7523C43.9741 27.6963 43.0021 26.4483 42.3061 25.0083C41.6101 23.5443 41.2621 21.9243 41.2621 20.1483C41.2621 18.5163 41.5861 16.9563 42.2341 15.4683C42.8821 13.9563 43.8301 12.6123 45.0781 11.4363C46.3501 10.2603 47.8981 9.32428 49.7221 8.62828C51.5461 7.93228 53.6221 7.58428 55.9501 7.58428C56.6941 7.58428 57.4621 7.64428 58.2541 7.76428C59.0701 7.88428 59.8501 8.04028 60.5941 8.23228C61.3621 8.42428 62.0221 8.64028 62.5741 8.88028C62.7661 8.97628 62.9341 9.09628 63.0781 9.24028C63.2461 9.38428 63.3421 9.58828 63.3661 9.85228C63.4861 10.7163 63.5581 11.5323 63.5821 12.3003C63.6301 13.0443 63.6541 13.6803 63.6541 14.2083C63.6541 14.4963 63.5461 14.6883 63.3301 14.7843C63.1381 14.8803 62.9221 14.8803 62.6821 14.7843C62.4661 14.6883 62.3101 14.4963 62.2141 14.2083C62.0461 13.7283 61.8541 13.2243 61.6381 12.6963C61.4461 12.1683 61.1461 11.7123 60.7381 11.3283C60.2581 10.8243 59.5981 10.4043 58.7581 10.0683C57.9181 9.73228 56.8741 9.56428 55.6261 9.56428C54.4261 9.56428 53.3461 9.82828 52.3861 10.3563C51.4261 10.8603 50.6101 11.5683 49.9381 12.4803C49.2661 13.3683 48.7501 14.3883 48.3901 15.5403C48.0301 16.6683 47.8501 17.8563 47.8501 19.1043C47.8501 20.7123 48.0061 22.1883 48.3181 23.5323C48.6301 24.8523 49.1101 25.9923 49.7581 26.9523C50.4061 27.9123 51.2101 28.6563 52.1701 29.1843C53.1541 29.6883 54.3061 29.9403 55.6261 29.9403C57.4261 29.9403 58.8661 29.5683 59.9461 28.8243C61.0501 28.0803 61.9741 26.9043 62.7181 25.2963C62.9101 24.8643 63.1861 24.6603 63.5461 24.6843C63.9061 24.7083 64.0861 24.9123 64.0861 25.2963C64.0861 25.6323 64.0501 26.0283 63.9781 26.4843C63.9301 26.9163 63.8461 27.3963 63.7261 27.9243C63.6301 28.4283 63.4981 28.9683 63.3301 29.5443C63.2581 29.8083 63.1381 30.0243 62.9701 30.1923C62.8021 30.3603 62.6101 30.5043 62.3941 30.6243C61.4821 31.0323 60.4021 31.3563 59.1541 31.5963C57.9061 31.8603 56.4901 31.9923 54.9061 31.9923ZM70.6735 31.5963C70.5295 31.5963 70.3855 31.5483 70.2415 31.4523C70.0975 31.3563 70.0255 31.2243 70.0255 31.0563C70.0255 30.6483 70.2535 30.3843 70.7095 30.2643C71.6215 30.0723 72.2455 29.8323 72.5815 29.5443C72.9175 29.2563 73.0855 28.7403 73.0855 27.9963V11.6523C73.0855 10.8843 72.9295 10.3443 72.6175 10.0323C72.3055 9.72028 71.6695 9.45628 70.7095 9.24028C70.2535 9.12028 70.0255 8.85628 70.0255 8.44828C70.0255 8.28028 70.0975 8.14828 70.2415 8.05228C70.3855 7.95628 70.5295 7.90828 70.6735 7.90828C71.2015 7.90828 71.7895 7.92028 72.4375 7.94428C73.1095 7.96828 73.7575 8.00428 74.3815 8.05228C75.0295 8.07628 75.5935 8.08828 76.0735 8.08828C76.5535 8.08828 77.1295 8.07628 77.8015 8.05228C78.4735 8.02828 79.1575 8.00428 79.8535 7.98028C80.5495 7.95628 81.1495 7.94428 81.6535 7.94428C81.8455 7.94428 81.9895 7.99228 82.0855 8.08828C82.1815 8.16028 82.2295 8.29228 82.2295 8.48428C82.2295 8.72428 82.1695 8.89228 82.0495 8.98828C81.9295 9.08428 81.7615 9.16828 81.5455 9.24028C80.5615 9.52828 79.9255 9.82828 79.6375 10.1403C79.3495 10.4523 79.2055 10.9683 79.2055 11.6883V27.9603C79.2055 28.6323 79.3615 29.1243 79.6735 29.4363C79.9855 29.7243 80.6095 30.0003 81.5455 30.2643C81.7615 30.3363 81.9295 30.4203 82.0495 30.5163C82.1695 30.6123 82.2295 30.7803 82.2295 31.0203C82.2295 31.1883 82.1815 31.3203 82.0855 31.4163C81.9895 31.5123 81.8455 31.5603 81.6535 31.5603C81.1495 31.5603 80.5495 31.5483 79.8535 31.5243C79.1575 31.5003 78.4735 31.4763 77.8015 31.4523C77.1295 31.4283 76.5535 31.4163 76.0735 31.4163C75.5935 31.4163 75.0295 31.4283 74.3815 31.4523C73.7575 31.4763 73.1095 31.5003 72.4375 31.5243C71.7895 31.5723 71.2015 31.5963 70.6735 31.5963ZM87.5626 31.5963C87.4186 31.5963 87.2746 31.5483 87.1306 31.4523C86.9866 31.3563 86.9146 31.2243 86.9146 31.0563C86.9146 30.6483 87.1426 30.3843 87.5986 30.2643C88.5106 30.0723 89.1346 29.8323 89.4706 29.5443C89.8066 29.2563 89.9746 28.7403 89.9746 27.9963V11.6523C89.9746 10.8843 89.8186 10.3443 89.5066 10.0323C89.2186 9.69628 88.6546 9.43228 87.8146 9.24028C87.5266 9.16828 87.3226 9.06028 87.2026 8.91628C87.1066 8.77228 87.0586 8.62828 87.0586 8.48428C87.0586 8.31628 87.1186 8.18428 87.2386 8.08828C87.3826 7.96828 87.5626 7.90828 87.7786 7.90828C88.3066 7.90828 88.8826 7.92028 89.5066 7.94428C90.1306 7.96828 90.7426 8.00428 91.3426 8.05228C91.9426 8.07628 92.4826 8.08828 92.9626 8.08828C93.5386 8.08828 94.0426 8.06428 94.4746 8.01628C94.9306 7.94428 95.4346 7.88428 95.9866 7.83628C96.5386 7.76428 97.2586 7.72828 98.1466 7.72828C101.099 7.72828 103.439 8.36428 105.167 9.63628C106.895 10.8843 107.759 12.6003 107.759 14.7843C107.759 16.2963 107.435 17.7003 106.787 18.9963C106.139 20.2683 105.155 21.3003 103.835 22.0923C102.539 22.8603 100.895 23.2443 98.9026 23.2443C98.2546 23.2443 97.7626 23.1483 97.4266 22.9563C97.0906 22.7643 96.9226 22.5243 96.9226 22.2363C96.9226 22.0443 97.0066 21.9003 97.1746 21.8043C97.3426 21.7083 97.4866 21.6603 97.6066 21.6603C97.8946 21.6603 98.1226 21.6963 98.2906 21.7683C98.4826 21.8163 98.7346 21.8403 99.0466 21.8403C99.9586 21.8403 100.643 21.2883 101.099 20.1843C101.579 19.0563 101.819 17.6043 101.819 15.8283C101.819 13.5483 101.495 11.9163 100.847 10.9323C100.223 9.92428 99.3226 9.42028 98.1466 9.42028C97.4746 9.42028 96.9706 9.57628 96.6346 9.88828C96.2986 10.2003 96.1306 10.6803 96.1306 11.3283L96.0946 27.9603C96.0946 28.7043 96.2986 29.2203 96.7066 29.5083C97.1386 29.7963 97.8706 30.0483 98.9026 30.2643C99.1186 30.3123 99.2866 30.3963 99.4066 30.5163C99.5266 30.6123 99.5866 30.7803 99.5866 31.0203C99.5866 31.1883 99.5386 31.3203 99.4426 31.4163C99.3466 31.5123 99.2026 31.5603 99.0106 31.5603C98.5066 31.5603 97.8706 31.5483 97.1026 31.5243C96.3346 31.5003 95.5666 31.4763 94.7986 31.4523C94.0546 31.4283 93.4426 31.4163 92.9626 31.4163C92.4826 31.4163 91.9186 31.4283 91.2706 31.4523C90.6466 31.4763 89.9986 31.5003 89.3266 31.5243C88.6786 31.5723 88.0906 31.5963 87.5626 31.5963ZM138.548 31.7403C137.588 31.7403 136.604 31.7163 135.596 31.6683C134.612 31.6203 133.724 31.5723 132.932 31.5243C132.14 31.5003 131.588 31.4883 131.276 31.4883C130.796 31.4883 130.232 31.4883 129.584 31.4883C128.96 31.5123 128.312 31.5363 127.64 31.5603C126.992 31.5843 126.404 31.5963 125.876 31.5963C125.732 31.5963 125.588 31.5483 125.444 31.4523C125.3 31.3563 125.228 31.2243 125.228 31.0563C125.228 30.8403 125.288 30.6723 125.408 30.5523C125.528 30.4083 125.696 30.3123 125.912 30.2643C126.824 30.0723 127.448 29.8323 127.784 29.5443C128.12 29.2563 128.288 28.7403 128.288 27.9963V11.6523C128.288 10.8843 128.132 10.3443 127.82 10.0323C127.508 9.72028 126.872 9.45628 125.912 9.24028C125.696 9.19228 125.528 9.10828 125.408 8.98828C125.288 8.84428 125.228 8.66428 125.228 8.44828C125.228 8.28028 125.3 8.14828 125.444 8.05228C125.588 7.95628 125.732 7.90828 125.876 7.90828C126.404 7.90828 126.992 7.92028 127.64 7.94428C128.312 7.96828 128.96 8.00428 129.584 8.05228C130.232 8.07628 130.796 8.08828 131.276 8.08828C131.636 8.08828 132.128 8.07628 132.752 8.05228C133.4 8.00428 134.096 7.96828 134.84 7.94428C135.608 7.89628 136.352 7.86028 137.072 7.83628C137.792 7.78828 138.392 7.76428 138.872 7.76428C140.552 7.76428 142.148 8.05228 143.66 8.62828C145.172 9.18028 146.516 9.97228 147.692 11.0043C148.868 12.0363 149.792 13.2723 150.464 14.7123C151.136 16.1283 151.472 17.7003 151.472 19.4283C151.472 21.0123 151.196 22.5483 150.644 24.0363C150.092 25.5003 149.264 26.8083 148.16 27.9603C147.08 29.1123 145.736 30.0363 144.128 30.7323C142.52 31.4043 140.66 31.7403 138.548 31.7403ZM137.972 29.7603C139.556 29.7603 140.852 29.3763 141.86 28.6083C142.892 27.8403 143.648 26.7603 144.128 25.3683C144.632 23.9763 144.884 22.3443 144.884 20.4723C144.884 18.8883 144.728 17.4483 144.416 16.1523C144.128 14.8563 143.684 13.7403 143.084 12.8043C142.484 11.8683 141.728 11.1483 140.816 10.6443C139.904 10.1163 138.836 9.85228 137.612 9.85228C136.892 9.85228 136.292 9.87628 135.812 9.92428C135.356 9.97228 135.008 10.0803 134.768 10.2483C134.528 10.3923 134.408 10.6563 134.408 11.0403V26.6643C134.408 27.4083 134.528 28.0083 134.768 28.4643C135.032 28.9203 135.428 29.2563 135.956 29.4723C136.484 29.6643 137.156 29.7603 137.972 29.7603ZM155.095 31.6683C154.831 31.6683 154.603 31.6203 154.411 31.5243C154.243 31.4523 154.159 31.2963 154.159 31.0563C154.159 30.8163 154.231 30.6483 154.375 30.5523C154.543 30.4323 154.735 30.3363 154.951 30.2643C155.671 30.0723 156.283 29.7723 156.787 29.3643C157.315 28.9563 157.699 28.4883 157.939 27.9603C158.515 26.6403 159.067 25.3323 159.595 24.0363C160.123 22.7403 160.639 21.4563 161.143 20.1843C161.647 18.8883 162.139 17.5923 162.619 16.2963C163.123 14.9763 163.615 13.6563 164.095 12.3363C164.503 11.2323 164.755 10.4523 164.851 9.99628C164.947 9.51628 165.031 9.26428 165.103 9.24028C165.583 9.12028 166.027 9.01228 166.435 8.91628C166.843 8.79628 167.299 8.65228 167.803 8.48428C168.259 8.31628 168.655 8.11228 168.991 7.87228C169.351 7.60828 169.615 7.39228 169.783 7.22428C169.903 7.15228 170.011 7.10428 170.107 7.08028C170.227 7.05628 170.335 7.14028 170.431 7.33228C170.527 7.50028 170.599 7.66828 170.647 7.83628C170.719 7.98028 170.779 8.14828 170.827 8.34028C171.307 9.92428 171.799 11.5203 172.303 13.1283C172.831 14.7363 173.359 16.3683 173.887 18.0243C174.415 19.6563 174.943 21.3003 175.471 22.9563C176.023 24.6123 176.563 26.2803 177.091 27.9603C177.211 28.3443 177.403 28.6923 177.667 29.0043C177.955 29.2923 178.291 29.5443 178.675 29.7603C179.059 29.9523 179.491 30.1203 179.971 30.2643C180.187 30.3363 180.367 30.4203 180.511 30.5163C180.679 30.6123 180.763 30.7803 180.763 31.0203C180.763 31.1883 180.691 31.3203 180.547 31.4163C180.427 31.5123 180.271 31.5603 180.079 31.5603C179.575 31.5603 178.951 31.5483 178.207 31.5243C177.487 31.5003 176.755 31.4763 176.011 31.4523C175.291 31.4283 174.655 31.4163 174.103 31.4163C173.623 31.4163 173.035 31.4283 172.339 31.4523C171.643 31.4763 170.935 31.5003 170.215 31.5243C169.495 31.5723 168.871 31.5963 168.343 31.5963C168.151 31.5963 167.971 31.5483 167.803 31.4523C167.659 31.3563 167.587 31.2243 167.587 31.0563C167.587 30.8403 167.659 30.6723 167.803 30.5523C167.971 30.4083 168.163 30.3123 168.379 30.2643C169.291 30.0723 169.963 29.8203 170.395 29.5083C170.827 29.1963 170.947 28.6923 170.755 27.9963C170.635 27.5163 170.503 27.0483 170.359 26.5923C170.239 26.1363 170.119 25.6803 169.999 25.2243C169.879 24.7443 169.759 24.2763 169.639 23.8203C169.591 23.6283 169.531 23.4843 169.459 23.3883C169.387 23.2683 169.255 23.2083 169.063 23.2083H162.799C162.607 23.2083 162.463 23.2683 162.367 23.3883C162.295 23.4843 162.235 23.6283 162.187 23.8203C162.091 24.1803 161.983 24.5163 161.863 24.8283C161.767 25.1163 161.671 25.4043 161.575 25.6923C161.479 25.9803 161.383 26.2803 161.287 26.5923C161.191 26.8803 161.095 27.2043 160.999 27.5643C160.783 28.3323 160.819 28.9083 161.107 29.2923C161.395 29.6763 162.103 30.0003 163.231 30.2643C163.759 30.3843 164.023 30.6483 164.023 31.0563C164.023 31.2243 163.963 31.3563 163.843 31.4523C163.723 31.5243 163.531 31.5603 163.267 31.5603C162.475 31.5603 161.779 31.5363 161.179 31.4883C160.579 31.4643 159.919 31.4523 159.199 31.4523C158.503 31.4523 157.831 31.4883 157.183 31.5603C156.559 31.6323 155.863 31.6683 155.095 31.6683ZM163.807 21.1203H168.307C168.667 21.1203 168.847 21.0363 168.847 20.8683C168.847 20.7723 168.835 20.7123 168.811 20.6883C168.811 20.6403 168.799 20.5683 168.775 20.4723L166.471 12.5163C166.399 12.2763 166.327 12.1563 166.255 12.1563C166.207 12.1563 166.135 12.2763 166.039 12.5163L163.267 20.4723C163.219 20.5683 163.195 20.6643 163.195 20.7603C163.195 20.8803 163.255 20.9763 163.375 21.0483C163.519 21.0963 163.663 21.1203 163.807 21.1203ZM196.821 31.9923C195.141 31.9923 193.545 31.7163 192.033 31.1643C190.521 30.5883 189.177 29.7843 188.001 28.7523C186.825 27.6963 185.901 26.4483 185.229 25.0083C184.557 23.5443 184.221 21.9243 184.221 20.1483C184.221 18.5163 184.497 16.9563 185.049 15.4683C185.601 13.9563 186.417 12.6123 187.497 11.4363C188.601 10.2603 189.957 9.32428 191.565 8.62828C193.173 7.93228 195.033 7.58428 197.145 7.58428C198.825 7.58428 200.421 7.87228 201.933 8.44828C203.445 9.00028 204.789 9.80428 205.965 10.8603C207.141 11.8923 208.065 13.1403 208.737 14.6043C209.409 16.0443 209.745 17.6523 209.745 19.4283C209.745 21.0363 209.469 22.5963 208.917 24.1083C208.365 25.6203 207.537 26.9643 206.433 28.1403C205.353 29.3163 204.009 30.2523 202.401 30.9483C200.793 31.6443 198.933 31.9923 196.821 31.9923ZM197.469 30.3003C198.741 30.3003 199.797 29.9163 200.637 29.1483C201.501 28.3803 202.149 27.3243 202.581 25.9803C203.013 24.6123 203.229 23.0523 203.229 21.3003C203.229 19.8603 203.097 18.4323 202.833 17.0163C202.569 15.6003 202.161 14.3163 201.609 13.1643C201.057 11.9883 200.349 11.0523 199.485 10.3563C198.645 9.66028 197.625 9.31228 196.425 9.31228C195.177 9.31228 194.121 9.69628 193.257 10.4643C192.417 11.2323 191.781 12.2883 191.349 13.6323C190.941 14.9763 190.737 16.5243 190.737 18.2763C190.737 19.7163 190.869 21.1443 191.133 22.5603C191.397 23.9763 191.793 25.2723 192.321 26.4483C192.873 27.6003 193.569 28.5363 194.409 29.2563C195.273 29.9523 196.293 30.3003 197.469 30.3003Z" fill="white"/>
</svg>
