<svg width="242" height="45" viewBox="0 0 242 45" fill="none" xmlns="http://www.w3.org/2000/svg">
<g clip-path="url(#clip0_1_676)">
<path fill-rule="evenodd" clip-rule="evenodd" d="M15.7141 45L7.85707 37.1348L37.0688 7.87106L44.92 15.7421L15.7141 45Z" fill="#7B191D"/>
<path fill-rule="evenodd" clip-rule="evenodd" d="M15.7141 0L7.85707 7.87106L37.0688 37.1348L44.92 29.2637L15.7141 0Z" fill="#681216"/>
<path fill-rule="evenodd" clip-rule="evenodd" d="M7.85707 37.1348L0 29.2637L29.2117 0L37.0688 7.87106L7.85707 37.1348Z" fill="#5F0E12"/>
<path fill-rule="evenodd" clip-rule="evenodd" d="M7.85707 7.87106L0 15.7421L14.6059 30.374L22.4629 22.5029L7.85707 7.87106ZM22.4629 38.2392L29.2117 45L37.0688 37.1289L30.32 30.3681L22.4629 38.2392Z" fill="#7C181D"/>
<path opacity="0.5" fill-rule="evenodd" clip-rule="evenodd" d="M14.6059 30.374L22.4629 22.5029L12.5701 28.3288L14.6059 30.374Z" fill="#040000"/>
<path opacity="0.5" fill-rule="evenodd" clip-rule="evenodd" d="M30.32 30.374L22.4629 22.5029L28.2784 32.4133L30.32 30.374Z" fill="#040000"/>
<path opacity="0.5" fill-rule="evenodd" clip-rule="evenodd" d="M14.6059 14.6319L22.4629 22.5029L16.6474 12.5867L14.6059 14.6319Z" fill="#040000"/>
<path opacity="0.5" fill-rule="evenodd" clip-rule="evenodd" d="M30.3258 14.6202L22.4629 22.5029L32.3499 16.6712L30.3258 14.6202Z" fill="#040000"/>
<path opacity="0.5" fill-rule="evenodd" clip-rule="evenodd" d="M14.6 14.6202H14.5942L7.85707 7.87106L11.4677 4.24815L15.9125 11.4063L13.2584 13.282L14.6 14.6202Z" fill="#040000"/>
<path opacity="0.5" fill-rule="evenodd" clip-rule="evenodd" d="M28.2784 32.4133L30.32 30.374L37.0571 37.1231L33.4465 40.746L28.2784 32.4133Z" fill="#040000"/>
<path opacity="0.5" fill-rule="evenodd" clip-rule="evenodd" d="M12.5701 28.3288L14.6059 30.374L7.85707 37.1348L4.25227 33.506L12.5701 28.3288Z" fill="#040000"/>
<path opacity="0.5" fill-rule="evenodd" clip-rule="evenodd" d="M32.3499 16.6712L30.3258 14.6202L37.063 7.87106L40.6794 11.4881L32.3499 16.6712Z" fill="#040000"/>
<path opacity="0.5" fill-rule="evenodd" clip-rule="evenodd" d="M16.6474 12.5867L22.4629 6.76081L15.9125 11.4063L16.6474 12.5867Z" fill="#040000"/>
<path opacity="0.5" fill-rule="evenodd" clip-rule="evenodd" d="M16.6474 12.5867L14.6059 14.6319L13.2584 13.282L15.9125 11.4063L16.6474 12.5867Z" fill="#040000"/>
<path opacity="0.5" fill-rule="evenodd" clip-rule="evenodd" d="M28.2784 32.4133L22.4629 38.2392L29.0134 33.5937L28.2784 32.4133Z" fill="#040000"/>
<path opacity="0.5" fill-rule="evenodd" clip-rule="evenodd" d="M28.2784 32.4133L30.3142 30.3681L31.6616 31.7121L29.0134 33.5937L28.2784 32.4133Z" fill="#040000"/>
<path opacity="0.5" fill-rule="evenodd" clip-rule="evenodd" d="M12.5993 28.2937L6.70796 22.5438L11.4269 29.0417L12.5993 28.2937Z" fill="#040000"/>
<path opacity="0.5" fill-rule="evenodd" clip-rule="evenodd" d="M12.5643 28.3288L14.6059 30.374L13.2643 31.718L11.386 29.0651L12.5643 28.3288Z" fill="#040000"/>
<path opacity="0.5" fill-rule="evenodd" clip-rule="evenodd" d="M32.3557 16.6771L38.1712 22.5029L33.534 15.9408L32.3557 16.6771Z" fill="#040000"/>
<path opacity="0.5" fill-rule="evenodd" clip-rule="evenodd" d="M32.3557 16.6771L30.32 14.6319L31.6616 13.282L33.534 15.9408L32.3557 16.6771Z" fill="#040000"/>
<path d="M62.5357 6.91274H77.6432C80.0406 6.91274 82.018 7.69575 83.5812 9.25594C85.1386 10.8161 85.9203 12.9782 85.9203 15.7421C85.9203 18.506 85.1386 20.6681 83.5812 22.2283C82.7413 23.0697 81.5397 23.6132 79.9823 23.8527L86.9994 37.725H82.5021L76.0275 24.3903H66.6772V37.725H62.5416V6.91274H62.5357ZM66.6713 10.337V20.9661H77.2816C78.4773 20.9661 79.4981 20.5454 80.3381 19.7039C81.178 18.8625 81.598 17.5419 81.598 15.7421C81.598 14.0592 81.1197 12.7386 80.1572 11.7803C79.1948 10.822 78.0574 10.337 76.7391 10.337H66.6655H66.6713Z" fill="#040000"/>
<path d="M103.758 10.5181C106.277 7.99377 109.334 6.73159 112.933 6.73159C116.532 6.73159 119.588 7.99377 122.108 10.5181C124.984 13.3989 126.425 17.3666 126.425 22.4094C126.425 27.4523 124.984 31.4199 122.108 34.3007C119.588 36.8251 116.532 38.0873 112.933 38.0873C109.334 38.0873 106.277 36.8251 103.758 34.3007C100.882 31.4199 99.4412 27.4523 99.4412 22.4094C99.4412 17.3666 100.882 13.3989 103.758 10.5181ZM106.82 12.8613C104.778 14.9065 103.763 18.0853 103.763 22.4094C103.763 26.7335 104.778 29.9182 106.82 31.9575C108.617 33.7573 110.658 34.663 112.933 34.663C115.208 34.663 117.249 33.7631 119.046 31.9575C121.082 29.9182 122.102 26.7335 122.102 22.4094C122.102 18.0853 121.082 14.9065 119.046 12.8613C117.249 11.0616 115.208 10.1558 112.933 10.1558C110.658 10.1558 108.617 11.0557 106.82 12.8613Z" fill="#040000"/>
<path d="M145.522 10.5181C148.042 7.99377 151.098 6.73159 154.697 6.73159C158.296 6.73159 161.23 7.8769 163.511 10.1558C165.43 12.0783 166.445 14.4215 166.567 17.1854H162.251C162.129 15.1461 161.411 13.4632 160.093 12.1426C158.775 10.822 156.972 10.1617 154.697 10.1617C152.422 10.1617 150.498 10.9447 148.94 12.5049C146.782 14.6669 145.703 18.0327 145.703 22.5964C145.703 26.9205 146.84 30.2279 149.121 32.5068C150.678 34.067 152.837 34.85 155.596 34.85C157.631 34.85 159.311 34.1897 160.629 32.8691C161.948 31.5485 162.724 30.1636 162.969 28.7261V25.8453H157.754V22.4211H167.104V38.2801H164.048L162.969 35.2182C160.927 37.2633 158.349 38.2801 155.234 38.2801C151.396 38.2801 148.281 37.0822 145.884 34.6747C142.885 31.6712 141.386 27.6451 141.386 22.6023C141.386 17.5594 142.763 13.2937 145.522 10.5298V10.5181Z" fill="#040000"/>
<path d="M179.377 7.09388H183.693L192.507 21.1473L201.321 7.09388H205.637L194.665 24.2092V37.9003H190.53V24.2092L179.377 7.09388Z" fill="#040000"/>
<path d="M227.073 21.8718L217.361 7.09388H222.039L229.232 18.4476L236.424 7.09388H241.102L231.39 21.8718L242 37.9061H237.322L229.226 25.2961L221.13 37.9061H216.451L227.062 21.8718H227.073Z" fill="#040000"/>
</g>
<defs>
<clipPath id="clip0_1_676">
<rect width="242" height="45" fill="white"/>
</clipPath>
</defs>
</svg>
