<svg width="182" height="47" viewBox="0 0 182 47" fill="none" xmlns="http://www.w3.org/2000/svg">
<path d="M39.9997 43.4999C51.0452 43.4999 59.9994 34.5457 59.9994 23.5002C59.9994 12.4547 51.0452 3.50049 39.9997 3.50049C28.9542 3.50049 20 12.4547 20 23.5002C20 34.5457 28.9542 43.4999 39.9997 43.4999Z" fill="white"/>
<path d="M44.6414 17.1576H31.3271L28 10.5005H41.3158L44.6414 17.1576Z" fill="#18539E"/>
<path d="M51.3001 17.1576L47.973 23.8163L44.6414 17.1576L41.3158 10.5005H47.973L51.3001 17.1576Z" fill="#1A68AE"/>
<path d="M51.3001 30.4733L47.973 37.1304H34.6615L37.9887 30.4733H51.3001Z" fill="#228FCE"/>
<path d="M37.9843 30.4734L37.9887 30.4733L34.6615 37.1304L28 37.1306L37.9843 17.1576L41.3158 23.8162L37.9843 30.4734Z" fill="#2CA4DE"/>
<path d="M54.6301 23.8162L51.3001 30.4733L44.6415 30.4734L47.973 23.8163L51.3001 17.1576L54.6301 23.8162Z" fill="#1E7DBE"/>
<path d="M81.5024 34.5H72.2504V9.66H81.5024C87.1544 9.66 91.2944 12.432 91.2944 20.28V23.88C91.2944 31.656 87.1544 34.5 81.5024 34.5ZM81.5024 29.532C84.5984 29.532 85.3184 27.228 85.3184 23.88V20.28C85.3184 16.932 84.5984 14.628 81.5024 14.628H78.2264V29.532H81.5024ZM105.003 9.66V34.5H99.0268V9.66H105.003ZM111.111 9.66H117.627L122.271 24.672L126.951 9.66H133.467L124.971 34.5H119.607L111.111 9.66ZM139.23 9.66H154.926V14.628H145.206V19.164H153.846V24.132H145.206V29.532H154.926V34.5H139.23V9.66ZM181.368 34.5H174.816L170.676 25.104H167.58V34.5H161.604V9.66H170.964C176.688 9.66 180.36 12.288 180.36 17.472C180.36 20.712 178.92 22.908 176.4 24.06L181.368 34.5ZM167.58 20.136H170.244C172.656 20.136 174.384 19.812 174.384 17.472C174.384 15.096 172.656 14.628 170.244 14.628H167.58V20.136Z" fill="#2A5298"/>
</svg>
