<svg width="280" height="238" viewBox="0 0 280 238" fill="none" xmlns="http://www.w3.org/2000/svg">
<g clip-path="url(#clip0_327_25)">
<path d="M182.623 24.5935C179.869 23.3813 177.168 22.4414 174.525 21.7672C172.268 18.0708 169.307 14.5139 165.557 11.1496C148.148 -4.44309 128.161 -3.78217 112.329 13.7699C110.308 16.0051 108.578 18.2635 107.124 20.5517C102.903 21.558 98.5863 23.2551 94.2123 25.7758C73.9492 37.4528 68.4016 56.5759 80.2602 77.0074C81.7704 79.6145 83.4007 81.9426 85.1442 84.0382C84.7842 88.3524 85.0743 92.9721 86.1277 97.894C91.0119 120.697 107.565 131.866 130.735 126.944C133.681 126.309 136.423 125.483 138.956 124.49C142.956 126.157 147.467 127.302 152.478 127.827C175.758 130.255 191.534 118.023 193.998 94.5462C194.315 91.5539 194.372 88.7144 194.191 85.9977C197.028 82.7165 199.518 78.8142 201.569 74.2111C211.077 52.9094 204.282 34.1882 182.623 24.5902V24.5935ZM144.314 80.2655C143.124 83.1316 141.463 85.5727 139.346 87.5852C137.216 89.5978 134.695 91.1422 131.775 92.2315C128.855 93.3075 125.67 93.8455 122.21 93.8455C118.75 93.8455 115.565 93.3075 112.646 92.2315C109.725 91.1422 107.208 89.5978 105.074 87.5852C102.957 85.5727 101.297 83.1316 100.106 80.2655C98.9163 77.4126 98.3363 74.2144 98.3363 70.684C98.3363 67.1536 98.9163 63.9554 100.106 61.0893C101.297 58.2232 102.957 55.7821 105.074 53.7696C107.204 51.7569 109.725 50.2126 112.646 49.1365C115.565 48.0606 118.75 47.5092 122.21 47.5092C125.67 47.5092 128.855 48.0606 131.775 49.1365C134.695 50.2126 137.212 51.7569 139.346 53.7696C141.463 55.7821 143.124 58.2232 144.314 61.0893C145.503 63.9554 146.084 67.1569 146.084 70.684C146.084 74.2111 145.503 77.4126 144.314 80.2655ZM181.53 57.5988H161.6V66.5758H180.036V75.5361H161.6V92.7296H151.842V48.6384H181.53V57.5988ZM132.219 60.4948C131.001 59.2262 129.561 58.2464 127.871 57.5456C126.184 56.8283 124.3 56.4829 122.21 56.4829C120.12 56.4829 118.24 56.8283 116.549 57.5456C114.863 58.2498 113.422 59.2262 112.202 60.4948C110.998 61.7635 110.072 63.2646 109.421 65.0182C108.784 66.7551 108.452 68.6449 108.452 70.684C108.452 72.7231 108.784 74.656 109.421 76.3798C110.072 78.1034 110.998 79.5913 112.202 80.86C113.419 82.1286 114.859 83.1217 116.549 83.8257C118.236 84.5297 120.12 84.8884 122.21 84.8884C124.3 84.8884 126.18 84.5297 127.871 83.8257C129.558 83.1217 130.998 82.1286 132.219 80.86C133.421 79.5913 134.348 78.1034 134.999 76.3798C135.636 74.656 135.969 72.753 135.969 70.684C135.969 68.6149 135.636 66.7551 134.999 65.0182C134.348 63.268 133.421 61.7635 132.219 60.4948Z" fill="url(#paint0_linear_327_25)"/>
<path d="M0.224365 165.712C0.224365 162.892 0.697772 160.334 1.64792 158.046C2.59807 155.758 3.92161 153.809 5.61854 152.197C7.31881 150.59 9.33245 149.351 11.6661 148.488C13.9965 147.625 16.5469 147.193 19.3107 147.193C22.0744 147.193 24.6248 147.625 26.9552 148.488C29.2856 149.351 31.3026 150.587 33.0028 152.197C34.703 153.805 36.0266 155.755 36.9734 158.046C37.9235 160.334 38.397 162.892 38.397 165.712C38.397 168.531 37.9235 171.088 36.9734 173.376C36.0233 175.665 34.6998 177.614 33.0028 179.225C31.3026 180.832 29.2889 182.071 26.9552 182.931C24.6248 183.795 22.0744 184.227 19.3107 184.227C16.5469 184.227 13.9965 183.795 11.6661 182.931C9.33245 182.068 7.31881 180.832 5.61854 179.225C3.92161 177.614 2.59474 175.665 1.64792 173.376C0.697772 171.088 0.224365 168.531 0.224365 165.712ZM8.31896 165.712C8.31896 167.372 8.57567 168.889 9.09242 170.265C9.60917 171.643 10.3493 172.835 11.3161 173.848C12.2829 174.861 13.4398 175.648 14.79 176.213C16.1401 176.777 17.6438 177.059 19.3107 177.059C20.9776 177.059 22.4845 176.78 23.8314 176.213C25.1816 175.648 26.3384 174.861 27.3053 173.848C28.2721 172.835 29.0122 171.643 29.5289 170.265C30.0457 168.886 30.3024 167.369 30.3024 165.712C30.3024 164.054 30.0424 162.576 29.5289 161.181C29.0122 159.787 28.2721 158.584 27.3053 157.571C26.3384 156.561 25.1816 155.771 23.8314 155.207C22.4812 154.642 20.9743 154.359 19.3107 154.359C17.6471 154.359 16.1369 154.642 14.79 155.207C13.4398 155.771 12.2829 156.558 11.3161 157.571C10.3493 158.584 9.60917 159.787 9.09242 161.181C8.57567 162.576 8.31896 164.084 8.31896 165.712ZM43.4444 148.09H56.5832C58.4167 148.09 60.1471 148.255 61.7806 148.588C63.4142 148.919 64.8378 149.494 66.0513 150.304C67.2681 151.118 68.2317 152.214 68.9484 153.589C69.6652 154.968 70.0219 156.701 70.0219 158.79C70.0219 160.879 69.6885 162.573 69.0218 163.968C68.355 165.362 67.4382 166.472 66.2747 167.302C65.1079 168.133 63.7276 168.72 62.1274 169.069C60.5271 169.417 58.7968 169.59 56.9299 169.59H51.2323V183.33H43.4377V148.09H43.4444ZM51.239 163.024H56.4364C57.1366 163.024 57.81 162.958 58.4601 162.825C59.1102 162.692 59.6937 162.469 60.2103 162.155C60.7271 161.839 61.1439 161.407 61.4606 160.859C61.7773 160.311 61.934 159.623 61.934 158.794C61.934 157.897 61.7273 157.176 61.3105 156.628C60.8938 156.08 60.3604 155.658 59.7103 155.359C59.0603 155.06 58.3367 154.871 57.5367 154.788C56.7366 154.705 55.9697 154.662 55.2396 154.662H51.2424V163.024H51.239ZM74.9727 148.09H99.0065V155.257H82.7673V161.825H98.1063V168.993H82.7673V176.16H99.9063V183.327H74.9727V148.086V148.09ZM105.901 148.09H116.492L131.531 172.579H131.632V148.09H139.426V183.33H129.235L113.796 158.242H113.695V183.33H105.901V148.09ZM161.213 148.09H184.947V155.257H169.007V162.424H183.746V169.59H169.007V183.33H161.213V148.09ZM198.936 148.09H205.38L220.769 183.33H211.974L208.927 175.864H195.185L192.238 183.33H183.643L198.932 148.09H198.936ZM201.933 158.345L197.635 169.295H206.279L201.933 158.345ZM215.574 148.09H224.469L233.214 171.185H233.314L242.209 148.09H250.553L235.964 183.33H229.721L215.581 148.09H215.574ZM254.297 148.09H278.331V155.257H262.092V161.825H277.431V168.993H262.092V176.16H279.231V183.327H254.297V148.086V148.09Z" fill="url(#paint1_linear_327_25)"/>
<path d="M196.54 217.618C196.146 217.618 195.751 217.697 195.382 217.882C195.014 218.065 194.698 218.329 194.435 218.696C194.172 219.065 193.987 219.539 193.882 220.117H198.804C198.804 219.407 198.62 218.802 198.278 218.329C197.935 217.855 197.33 217.618 196.514 217.618H196.54Z" fill="#0080C4"/>
<path d="M60.6175 214.172C59.8278 213.83 58.9329 213.672 57.9065 213.672H57.301V225.298H57.9065C58.9329 225.298 59.8278 225.114 60.6175 224.773C61.4072 224.404 62.0125 223.8 62.46 222.957C62.9074 222.09 63.118 220.906 63.118 219.433C63.118 217.959 62.9074 216.749 62.46 215.935C62.0125 215.119 61.4072 214.514 60.6175 214.198V214.172Z" fill="#0080C4"/>
<path d="M121.051 218.012C121.63 217.539 121.893 216.881 121.893 215.986C121.893 215.092 121.604 214.461 121.051 214.145C120.472 213.804 119.656 213.645 118.577 213.645H116.55V218.722H118.577C119.656 218.722 120.498 218.485 121.051 218.012Z" fill="#0080C4"/>
<path d="M162.164 223.615C161.927 223.905 161.822 224.221 161.822 224.562C161.822 224.984 161.954 225.299 162.243 225.51C162.532 225.72 162.901 225.825 163.374 225.825C163.849 225.825 164.217 225.72 164.559 225.51C164.901 225.299 165.217 225.037 165.56 224.668V222.353C164.638 222.484 163.875 222.643 163.349 222.853C162.796 223.063 162.401 223.327 162.191 223.615H162.164Z" fill="#0080C4"/>
<path d="M229.941 213.645H228.098V219.09H230.072C231.178 219.09 231.993 218.853 232.547 218.354C233.1 217.854 233.363 217.144 233.363 216.197C233.363 215.25 233.074 214.592 232.494 214.198C231.915 213.83 231.073 213.618 229.968 213.618L229.941 213.645Z" fill="#0080C4"/>
<path d="M258.131 218.302C257.763 217.986 257.315 217.828 256.736 217.828C256.157 217.828 255.71 217.986 255.341 218.302C254.973 218.617 254.709 219.065 254.525 219.669C254.342 220.248 254.262 220.932 254.262 221.747C254.262 222.563 254.342 223.247 254.525 223.826C254.709 224.43 254.973 224.877 255.341 225.193C255.71 225.508 256.157 225.667 256.736 225.667C257.315 225.667 257.763 225.508 258.131 225.193C258.5 224.877 258.763 224.404 258.921 223.826C259.079 223.22 259.184 222.536 259.184 221.747C259.184 220.959 259.106 220.274 258.921 219.669C258.763 219.09 258.474 218.643 258.131 218.302Z" fill="#0080C4"/>
<path d="M0 202.151V237.688H279.004V202.151H0ZM29.4533 225.72C28.8743 226.904 28.1109 227.798 27.1897 228.402C26.2685 229.008 25.2946 229.323 24.268 229.323C23.6363 229.323 23.0046 229.165 22.3729 228.849C21.7413 228.534 21.1358 228.061 20.5568 227.429H20.4252L20.0567 228.981H16.5297V208.7H21.0569V213.567L20.9253 215.724C21.478 215.224 22.0571 214.855 22.7151 214.592C23.3468 214.329 24.0049 214.198 24.6628 214.198C25.821 214.198 26.8212 214.488 27.6635 215.092C28.5057 215.698 29.1637 216.539 29.6376 217.644C30.1114 218.749 30.3482 220.037 30.3482 221.511C30.3482 223.168 30.0586 224.588 29.4796 225.772L29.4533 225.72ZM40.9819 228.981C40.5344 230.218 40.008 231.243 39.4553 232.059C38.9026 232.875 38.2445 233.506 37.4549 233.9C36.6916 234.295 35.7177 234.506 34.5596 234.506C34.0859 234.506 33.691 234.506 33.3751 234.426C33.0593 234.373 32.7435 234.295 32.4276 234.216L33.2436 230.796C33.3751 230.796 33.533 230.849 33.691 230.902C33.8489 230.955 34.0332 230.981 34.1911 230.981C34.8754 230.981 35.4282 230.822 35.7967 230.506C36.1651 230.191 36.4284 229.771 36.6126 229.271L36.8232 228.534L31.2957 214.514H35.8494L37.7707 220.511C37.9814 221.169 38.1919 221.853 38.3498 222.51C38.5078 223.194 38.692 223.878 38.8763 224.588H39.0079C39.1394 223.904 39.2974 223.22 39.4553 222.537C39.6132 221.853 39.7712 221.196 39.9554 220.511L41.64 214.514H45.9566L40.9819 228.981ZM66.5924 224.798C65.8027 226.22 64.7235 227.245 63.3285 227.929C61.9335 228.613 60.3016 228.955 58.4591 228.955H52.7738V210.042H58.196C60.1174 210.042 61.8019 210.358 63.2496 211.015C64.6709 211.673 65.8027 212.672 66.5924 214.041C67.382 215.408 67.7768 217.196 67.7768 219.406C67.7768 221.616 67.382 223.378 66.5924 224.798ZM75.331 228.955H70.7774V210.042H75.331V228.955ZM88.3862 228.955H82.9378L77.2787 210.042H82.0692L84.2275 218.67C84.5171 219.696 84.7539 220.696 84.9645 221.669C85.175 222.642 85.412 223.668 85.6751 224.72H85.8067C86.0963 223.668 86.3332 222.668 86.5437 221.669C86.7544 220.696 86.9912 219.696 87.2544 218.67L89.3865 210.042H94.0189L88.3599 228.955H88.3862ZM108.258 228.955H95.993V210.042H107.969V213.83H100.52V217.329H106.837V221.143H100.52V225.141H108.232V228.955H108.258ZM122.209 228.955L118.734 222.3H116.55V228.955H111.996V210.042H118.918C120.261 210.042 121.498 210.226 122.63 210.568C123.735 210.937 124.63 211.541 125.314 212.41C125.973 213.278 126.315 214.488 126.315 216.013C126.315 217.539 125.973 218.696 125.314 219.617C124.736 220.432 123.946 221.011 123.025 221.432L127.262 228.955H122.183H122.209ZM153.189 228.955H147.477L145.766 220.722C145.608 219.985 145.476 219.249 145.345 218.512C145.213 217.776 145.108 217.039 145.029 216.329H144.924C144.792 217.039 144.687 217.776 144.556 218.512C144.424 219.249 144.293 219.985 144.16 220.722L142.502 228.955H136.896L133.474 210.042H138.107L139.292 218.67C139.423 219.643 139.555 220.643 139.686 221.643C139.818 222.642 139.923 223.641 140.055 224.667H140.159C140.344 223.641 140.528 222.642 140.712 221.643C140.897 220.643 141.081 219.643 141.265 218.67L143.187 210.042H147.03L148.977 218.67C149.161 219.643 149.346 220.616 149.53 221.616C149.714 222.616 149.899 223.641 150.083 224.641H150.215C150.32 223.615 150.452 222.616 150.583 221.616C150.688 220.616 150.819 219.617 150.952 218.643L152.188 210.016H156.479L153.215 228.929L153.189 228.955ZM170.061 228.955H166.376L166.06 227.508H165.928C165.323 228.034 164.691 228.455 164.006 228.797C163.323 229.139 162.585 229.297 161.796 229.297C160.927 229.297 160.164 229.086 159.505 228.692C158.875 228.298 158.374 227.771 158.032 227.088C157.69 226.43 157.505 225.694 157.505 224.904C157.505 223.378 158.137 222.194 159.401 221.327C160.664 220.485 162.717 219.88 165.534 219.59C165.507 219.196 165.401 218.88 165.244 218.591C165.085 218.302 164.849 218.092 164.533 217.959C164.218 217.828 163.823 217.749 163.323 217.749C162.744 217.749 162.164 217.855 161.532 218.092C160.927 218.302 160.243 218.617 159.532 219.038L157.953 216.066C158.585 215.671 159.242 215.355 159.927 215.066C160.584 214.777 161.296 214.566 162.006 214.408C162.717 214.251 163.454 214.172 164.191 214.172C165.454 214.172 166.507 214.408 167.376 214.882C168.244 215.355 168.903 216.092 169.35 217.039C169.798 218.012 170.034 219.249 170.034 220.747V228.955H170.061ZM178.984 229.192C178.615 229.271 178.168 229.297 177.667 229.297C176.641 229.297 175.825 229.086 175.219 228.665C174.614 228.245 174.193 227.64 173.93 226.877C173.667 226.114 173.561 225.246 173.561 224.247V208.674H178.089V224.404C178.089 224.878 178.168 225.194 178.352 225.378C178.536 225.561 178.694 225.641 178.878 225.641C178.957 225.641 179.036 225.641 179.115 225.641C179.194 225.641 179.273 225.641 179.404 225.614L179.931 228.929C179.694 229.034 179.378 229.112 179.01 229.192H178.984ZM187.406 229.192C187.038 229.271 186.591 229.297 186.09 229.297C185.064 229.297 184.248 229.086 183.642 228.665C183.037 228.245 182.616 227.64 182.353 226.877C182.09 226.114 181.984 225.246 181.984 224.247V208.674H186.511V224.404C186.511 224.878 186.591 225.194 186.774 225.378C186.958 225.561 187.117 225.641 187.301 225.641C187.38 225.641 187.459 225.641 187.538 225.641C187.617 225.641 187.696 225.641 187.827 225.614L188.353 228.929C188.117 229.034 187.801 229.112 187.433 229.192H187.406ZM202.593 222.247C202.541 222.616 202.515 222.879 202.462 223.063H193.986C194.118 223.72 194.355 224.247 194.697 224.667C195.039 225.062 195.46 225.378 195.934 225.561C196.434 225.745 196.987 225.851 197.592 225.851C198.118 225.851 198.619 225.772 199.119 225.614C199.619 225.457 200.119 225.246 200.645 224.93L202.146 227.64C201.409 228.166 200.567 228.561 199.645 228.849C198.724 229.139 197.829 229.271 196.987 229.271C195.592 229.271 194.355 228.981 193.25 228.376C192.144 227.771 191.249 226.904 190.617 225.772C189.96 224.641 189.644 223.273 189.644 221.695C189.644 220.537 189.828 219.486 190.223 218.539C190.591 217.618 191.117 216.802 191.775 216.145C192.434 215.487 193.17 214.988 193.986 214.645C194.802 214.304 195.644 214.119 196.513 214.119C197.908 214.119 199.04 214.435 199.961 215.039C200.883 215.645 201.567 216.486 202.015 217.539C202.462 218.591 202.699 219.775 202.699 221.09C202.699 221.484 202.699 221.879 202.646 222.221L202.593 222.247ZM212.674 229.139C212.148 229.245 211.49 229.323 210.753 229.323C209.543 229.323 208.568 229.086 207.832 228.613C207.068 228.139 206.515 227.455 206.173 226.614C205.831 225.772 205.647 224.773 205.647 223.641V218.092H203.699V214.751L205.937 214.566L206.437 210.726H210.174V214.566H213.569V218.092H210.174V223.589C210.174 224.378 210.358 224.957 210.701 225.298C211.042 225.641 211.49 225.825 212.017 225.825C212.253 225.825 212.49 225.798 212.727 225.745C212.964 225.694 213.175 225.614 213.332 225.561L214.044 228.824C213.675 228.955 213.227 229.061 212.674 229.165V229.139ZM236.732 219.88C236.048 220.827 235.126 221.537 233.994 222.01C232.862 222.457 231.626 222.694 230.284 222.694H228.072V228.955H223.519V210.042H230.178C231.573 210.042 232.836 210.226 233.968 210.621C235.1 210.988 236.021 211.647 236.706 212.541C237.39 213.435 237.732 214.672 237.732 216.224C237.732 217.776 237.39 218.933 236.706 219.88H236.732ZM248.839 218.355C248.576 218.275 248.313 218.223 248.076 218.196C247.84 218.143 247.55 218.143 247.234 218.143C246.708 218.143 246.155 218.328 245.576 218.723C244.997 219.117 244.523 219.775 244.128 220.722V228.981H239.601V214.541H243.286L243.628 217.065H243.707C244.26 216.092 244.891 215.382 245.629 214.908C246.365 214.435 247.102 214.198 247.813 214.198C248.26 214.198 248.603 214.225 248.866 214.277C249.129 214.329 249.366 214.408 249.577 214.488L248.839 218.38V218.355ZM262.789 225.798C262.132 226.93 261.237 227.798 260.184 228.402C259.105 229.008 257.973 229.297 256.736 229.297C255.499 229.297 254.367 229.008 253.287 228.402C252.208 227.798 251.34 226.93 250.656 225.798C249.998 224.667 249.655 223.3 249.655 221.721C249.655 220.143 249.998 218.775 250.656 217.644C251.313 216.513 252.208 215.645 253.287 215.066C254.367 214.461 255.525 214.172 256.736 214.172C257.657 214.172 258.526 214.329 259.368 214.672C260.211 215.014 260.974 215.513 261.632 216.145C262.289 216.802 262.816 217.592 263.211 218.512C263.606 219.433 263.79 220.511 263.79 221.721C263.79 223.3 263.448 224.667 262.789 225.798Z" fill="#0080C4"/>
<path d="M24.6629 218.249C24.3207 217.986 23.8733 217.855 23.3469 217.855C22.9257 217.855 22.5309 217.96 22.1887 218.143C21.8202 218.328 21.4517 218.643 21.0833 219.065V224.773C21.4254 225.088 21.7676 225.325 22.1624 225.43C22.5309 225.561 22.8994 225.614 23.2415 225.614C23.689 225.614 24.1101 225.483 24.5049 225.22C24.8735 224.957 25.1893 224.51 25.3998 223.931C25.6105 223.326 25.742 222.563 25.742 221.59C25.742 220.748 25.6631 220.037 25.4789 219.486C25.3209 218.933 25.0577 218.539 24.7155 218.249H24.6629Z" fill="#0080C4"/>
</g>
<defs>
<linearGradient id="paint0_linear_327_25" x1="93.7756" y1="115.921" x2="185.986" y2="23.3605" gradientUnits="userSpaceOnUse">
<stop stop-color="#FFB2B8"/>
<stop offset="0.14" stop-color="#FF7DB8"/>
<stop offset="0.18" stop-color="#FA75BC"/>
<stop offset="0.24" stop-color="#ED62C7"/>
<stop offset="0.31" stop-color="#D842D9"/>
<stop offset="0.38" stop-color="#BB15F2"/>
<stop offset="0.42" stop-color="#AD00FF"/>
<stop offset="0.51" stop-color="#A711FE"/>
<stop offset="0.59" stop-color="#A41BFE"/>
<stop offset="0.62" stop-color="#9A35FC"/>
<stop offset="0.68" stop-color="#8C5DFB"/>
<stop offset="0.74" stop-color="#817EF9"/>
<stop offset="0.8" stop-color="#7897F8"/>
<stop offset="0.86" stop-color="#71A9F7"/>
<stop offset="0.93" stop-color="#6EB4F7"/>
<stop offset="1" stop-color="#6DB8F7"/>
</linearGradient>
<linearGradient id="paint1_linear_327_25" x1="0.224365" y1="165.712" x2="279.228" y2="165.712" gradientUnits="userSpaceOnUse">
<stop stop-color="#FFB2B8"/>
<stop offset="0.14" stop-color="#FF7DB8"/>
<stop offset="0.18" stop-color="#FA75BC"/>
<stop offset="0.24" stop-color="#ED62C7"/>
<stop offset="0.31" stop-color="#D842D9"/>
<stop offset="0.38" stop-color="#BB15F2"/>
<stop offset="0.42" stop-color="#AD00FF"/>
<stop offset="0.51" stop-color="#A711FE"/>
<stop offset="0.59" stop-color="#A41BFE"/>
<stop offset="0.62" stop-color="#9A35FC"/>
<stop offset="0.68" stop-color="#8C5DFB"/>
<stop offset="0.74" stop-color="#817EF9"/>
<stop offset="0.8" stop-color="#7897F8"/>
<stop offset="0.86" stop-color="#71A9F7"/>
<stop offset="0.93" stop-color="#6EB4F7"/>
<stop offset="1" stop-color="#6DB8F7"/>
</linearGradient>
<clipPath id="clip0_327_25">
<rect width="280" height="238" fill="white"/>
</clipPath>
</defs>
</svg>
