<svg width="154" height="40" viewBox="0 0 154 40" fill="none" xmlns="http://www.w3.org/2000/svg">
<path d="M31.0557 31.3837H20.0022C17.9678 31.3837 15.9677 30.8385 14.22 29.8042L13.8524 29.5861L19.9929 23.4456L24.0772 27.3991H30.0276C30.2675 27.3991 30.361 27.2153 30.3859 27.1592C30.4077 27.1031 30.4731 26.9069 30.3018 26.7386L27.6256 24.0625L23.4323 20.0093L33.2801 10.1615L33.5106 9.92475C35.1743 8.26112 36.1369 6.08033 36.2429 3.75H33.1991C32.252 3.75 31.3828 4.31389 30.9809 5.18621C30.8033 5.5694 30.5759 5.92144 30.3018 6.23922L30.3111 6.24856L29.6475 6.91526L29.4201 6.75326C26.6567 4.78743 23.4011 3.75 20.0022 3.75C17.4881 3.75 14.9957 4.3357 12.762 5.4479L13.734 6.41991L16.4849 9.17082C17.6189 8.80009 18.8028 8.61316 20.0053 8.61316C22.0397 8.61316 24.0398 9.15836 25.7875 10.1927L26.1551 10.4108L20.0053 16.5606L9.69329 6.25168L9.70264 6.24233C9.42848 5.92456 9.20106 5.57563 9.02659 5.19555C8.62159 4.31701 7.74616 3.75 6.79907 3.75H3.76154C3.86747 6.08033 4.83013 8.26112 6.49065 9.92164L6.7243 10.1553H6.72119L6.91746 10.3547L6.75546 10.5821C4.78963 13.3455 3.7522 16.6011 3.7522 20C3.7522 22.5141 4.3379 25.0065 5.4501 27.2433L7.72747 24.966C8.55305 24.1404 8.93936 22.9472 8.75555 21.7758C8.66209 21.1932 8.61847 20.595 8.61847 20C8.61847 17.9656 9.16367 15.9655 10.198 14.2178L10.4161 13.8502L16.5659 19.9969L6.7243 29.8385L6.49688 30.0721C4.83013 31.7389 3.86747 33.9197 3.76154 36.25H6.85515C7.79912 36.25 8.62782 35.6768 9.02036 34.82C9.19483 34.4399 9.42225 34.0848 9.69952 33.7608L9.69018 33.7514L10.3569 33.0816L10.5843 33.2436C13.3446 35.2095 16.6002 36.2469 19.9991 36.2469H36.2397C36.0684 33.5365 33.8097 31.3837 31.0557 31.3837Z" fill="#0C408C"/>
<path d="M34.6414 21.704C35.5418 20.704 35.9811 19.3675 35.844 18.0341C35.6633 16.2801 35.2085 14.738 34.4919 13.4451L31.8999 16.0371C31.4668 16.4701 31.2861 17.087 31.417 17.6883C31.5883 18.464 31.6756 19.2647 31.6756 20.0684C31.6756 21.1651 31.5136 22.2492 31.1958 23.2898C32.5074 23.2586 33.7598 22.6854 34.6414 21.7071V21.704Z" fill="#0C408C"/>
<path d="M52 11H63.5969V13.5733H54.2747V18.7198H62.2311V21.2931H54.2747V26.4267H63.5969V29H52V11Z" fill="#71717A"/>
<path d="M68.5006 11L72.7496 17.7404L77.0218 11H79.774L74.136 19.9255L79.8947 29H77.1424L72.7471 22.0848L68.3851 29H65.6328L71.3915 19.9255L65.7586 11H68.5006Z" fill="#71717A"/>
<path d="M96.2542 26.4267C96.2542 26.7789 96.1952 27.1105 96.0771 27.4242C95.959 27.7378 95.7972 28.0129 95.5893 28.2468C95.3813 28.4807 95.14 28.6658 94.8627 28.7995C94.5854 28.9332 94.2902 29 93.9795 29H84.8909C84.5803 29 84.285 28.9332 84.0077 28.7995C83.7305 28.6658 83.4891 28.4807 83.2812 28.2468C83.0732 28.0129 82.9115 27.7378 82.7934 27.4242C82.6753 27.1105 82.6162 26.7789 82.6162 26.4267V13.5733C82.6162 13.2211 82.6753 12.8895 82.7934 12.5758C82.9115 12.2622 83.0732 11.9897 83.2812 11.7609C83.4891 11.5296 83.7305 11.347 84.0077 11.2082C84.285 11.0694 84.5803 11 84.8909 11H93.9795C94.2902 11 94.5854 11.0694 94.8627 11.2082C95.14 11.347 95.3813 11.5296 95.5893 11.7609C95.7972 11.9923 95.959 12.2622 96.0771 12.5758C96.1952 12.8895 96.2542 13.2211 96.2542 13.5733V26.4267ZM84.8909 13.5733V26.4267H93.9795V13.5733H84.8909Z" fill="#71717A"/>
<path d="M107.15 29V11H115.24C116.09 11 116.857 11.1491 117.543 11.4447C118.228 11.7429 118.811 12.1645 119.296 12.7121C119.782 13.2596 120.154 13.9229 120.418 14.7018C120.68 15.4807 120.811 16.347 120.811 17.3008V22.6992C120.811 23.653 120.68 24.5193 120.418 25.2982C120.157 26.0771 119.782 26.7404 119.296 27.2879C118.811 27.8355 118.228 28.2596 117.543 28.5553C116.857 28.8535 116.09 29 115.24 29H107.15ZM115.24 26.4267C116.298 26.4267 117.112 26.1054 117.682 25.4602C118.252 24.8149 118.537 23.8946 118.537 22.6992V17.3008C118.537 16.7147 118.462 16.1928 118.316 15.7326C118.167 15.2725 117.951 14.8817 117.666 14.5578C117.381 14.2365 117.035 13.9897 116.629 13.8226C116.223 13.6555 115.759 13.5707 115.243 13.5707H109.427V26.4242H115.243L115.24 26.4267Z" fill="#71717A"/>
<path d="M131.497 11L137.633 29H135.358L133.949 24.8586H126.77L125.361 29H123.086L129.222 11H131.497ZM127.635 22.2853H133.073L130.365 14.3522L127.635 22.2853Z" fill="#71717A"/>
<path d="M154 26.4267C154 26.7789 153.941 27.1105 153.823 27.4242C153.705 27.7378 153.543 28.0129 153.335 28.2468C153.127 28.4807 152.886 28.6658 152.609 28.7995C152.331 28.9332 152.036 29 151.725 29H142.637C142.326 29 142.031 28.9332 141.754 28.7995C141.476 28.6658 141.235 28.4807 141.027 28.2468C140.819 28.0129 140.657 27.7378 140.539 27.4242C140.421 27.1105 140.362 26.7789 140.362 26.4267V13.5733C140.362 13.2211 140.421 12.8895 140.539 12.5758C140.657 12.2622 140.819 11.9897 141.027 11.7609C141.235 11.5296 141.476 11.347 141.754 11.2082C142.031 11.0694 142.326 11 142.637 11H151.725C152.036 11 152.331 11.0694 152.609 11.2082C152.886 11.347 153.127 11.5296 153.335 11.7609C153.543 11.9923 153.705 12.2622 153.823 12.5758C153.941 12.8895 154 13.2211 154 13.5733V26.4267ZM142.637 13.5733V26.4267H151.725V13.5733H142.637Z" fill="#71717A"/>
</svg>
