<svg width="317" height="129" viewBox="0 0 317 129" fill="none" xmlns="http://www.w3.org/2000/svg">
<path d="M18.5009 117.919C16.5291 117.919 16.0147 118.982 16.0147 119.667C16.0147 122.702 14.0772 122.96 11.128 122.96H10.2535C6.53277 122.96 5.14391 121.828 5.14391 118.004V114.095C5.14391 110.477 6.42989 109.208 10.2535 109.208H11.3509C14.6773 109.208 15.809 110.306 15.809 112.054C15.809 112.792 16.3919 113.615 18.3638 113.615C20.3356 113.615 20.8157 112.157 20.8157 111.42C20.8157 106.859 18.158 104.15 11.3338 104.15H10.2364C2.40049 104.133 0 106.945 0 114.095V118.004C0 125.12 2.04042 128.069 10.2535 128.069H11.128C18.5695 128.069 20.9872 125.669 20.9872 119.856C20.9872 119.119 20.5071 117.919 18.5009 117.919Z" fill="#FFB601"/>
<path d="M61.3155 106.242C61.3155 105.042 60.7154 104.133 58.795 104.133C56.8746 104.133 56.2745 104.99 56.2745 106.208V126.012C56.2745 127.263 56.8403 128.052 58.795 128.052C60.7497 128.052 61.3155 127.178 61.3155 125.977V106.242Z" fill="#FFB601"/>
<path d="M88.3725 106.465C88.3725 105.093 87.8238 104.133 85.9034 104.133C83.9831 104.133 83.4344 105.127 83.4344 106.465V121.056C83.4344 121.176 83.3315 121.279 83.2458 121.279C83.1257 121.279 83.0229 121.211 82.9886 121.091L77.2102 107.065C76.5758 105.556 75.7014 104.561 74.0382 104.561H71.6034C69.8716 104.561 68.9971 105.59 68.9971 107.288V125.754C68.9971 127.195 69.5458 128.052 71.4662 128.052C73.3866 128.052 73.9353 127.126 73.9353 125.754V112.054C73.9353 111.934 74.0039 111.866 74.1582 111.866C74.2268 111.866 74.3125 111.934 74.3468 112.02L79.7651 125.36C80.3823 126.903 81.2396 127.829 82.8857 127.829H85.7491C87.4466 127.829 88.3725 126.835 88.3725 125.137V106.465Z" fill="#FFB601"/>
<path d="M38.8537 104.133H37.4648C30.0747 104.133 27.4856 106.756 27.4856 114.078V118.21C27.4856 125.48 30.0404 128.086 37.4648 128.086H38.8537C46.278 128.086 48.8672 125.48 48.8672 118.21V114.078C48.8672 106.808 46.2438 104.133 38.8537 104.133ZM43.7575 118.193C43.7575 122.188 42.0429 122.96 38.8537 122.96H37.4648C34.2413 122.96 32.5952 122.188 32.5952 118.193V114.061C32.5952 110.031 34.2413 109.311 37.4648 109.311H38.8537C42.0429 109.311 43.7575 110.031 43.7575 114.061V118.193Z" fill="#FFB601"/>
<path d="M129.901 104.133H114.383C112.977 104.133 111.983 104.716 111.983 106.688C111.983 108.659 113.046 109.277 114.383 109.277H119.647V125.703C119.647 127.195 120.264 128.069 122.185 128.069C124.105 128.069 124.774 127.092 124.774 125.703V109.277H129.901C131.255 109.277 132.301 108.659 132.301 106.688C132.301 104.716 131.341 104.133 129.901 104.133Z" fill="#FFB601"/>
<path d="M148.299 104.133H146.927C139.589 104.133 137.017 106.756 137.017 114.078V118.21C137.017 125.48 139.554 128.086 146.927 128.086H148.299C155.672 128.086 158.244 125.48 158.244 118.21V114.078C158.244 106.808 155.655 104.133 148.299 104.133ZM153.186 118.193C153.186 122.188 151.488 122.96 148.316 122.96H146.944C143.738 122.96 142.109 122.188 142.109 118.193V114.061C142.109 110.031 143.738 109.311 146.944 109.311H148.316C151.488 109.311 153.186 110.031 153.186 114.061V118.193Z" fill="#FFB601"/>
<path d="M185.952 116.735C185.952 115.226 185.095 114.352 183.603 114.352H177.413C176.059 114.352 175.099 114.935 175.099 116.77C175.099 118.604 176.162 119.222 177.448 119.222H180.585C180.808 119.222 180.946 119.324 180.946 119.616V119.77C180.946 121.828 179.951 122.805 176.625 122.805H174.19C170.983 122.805 169.989 121.639 169.989 118.038V114.043C169.989 110.786 171.052 109.242 174.31 109.242H177.105C180.02 109.242 180.791 109.825 180.791 110.717C180.791 111.557 181.203 112.294 183.363 112.294C185.198 112.294 185.832 111.643 185.832 110.563C185.832 106.379 181.889 104.15 177.105 104.15H174.31C167.348 104.15 164.914 107.219 164.914 114.043V118.038C164.914 124.743 167.006 127.863 174.173 127.863H176.607C178.751 127.863 180.551 127.212 181.957 126.029V126.955C181.957 127.692 182.472 128.086 183.912 128.086C185.352 128.086 185.935 127.435 185.935 126.577V116.752L185.952 116.735Z" fill="#FFB601"/>
<path d="M209.271 104.133H195.263C193.788 104.133 192.914 105.042 192.914 106.516V125.72C192.914 127.195 193.771 128.069 195.263 128.069H209.151C210.403 128.069 211.552 127.452 211.552 125.583C211.552 123.714 210.334 123.028 209.186 123.028H198.503C198.143 123.028 197.955 122.84 197.955 122.514V117.901H208.157C209.374 117.901 210.506 117.541 210.506 115.878C210.506 114.215 209.357 113.992 208.191 113.992H197.955V109.74C197.955 109.38 198.143 109.157 198.503 109.157H209.271C210.454 109.157 211.586 108.574 211.586 106.671C211.586 104.767 210.437 104.116 209.271 104.116V104.133Z" fill="#FFB601"/>
<path d="M235.42 104.133H219.902C218.496 104.133 217.502 104.716 217.502 106.688C217.502 108.659 218.565 109.277 219.902 109.277H225.166V125.703C225.166 127.195 225.783 128.069 227.704 128.069C229.624 128.069 230.293 127.092 230.293 125.703V109.277H235.42C236.774 109.277 237.82 108.659 237.82 106.688C237.82 104.716 236.86 104.133 235.42 104.133Z" fill="#FFB601"/>
<path d="M263.969 106.482C263.969 105.093 263.386 104.133 261.431 104.133C259.476 104.133 258.927 105.11 258.927 106.448V113.083H249.051V106.448C249.051 105.059 248.502 104.133 246.479 104.133C244.627 104.133 244.01 105.11 244.01 106.448V125.754C244.01 127.212 244.61 128.069 246.479 128.069C248.502 128.069 249.051 127.143 249.051 125.754V118.159H258.927V125.72C258.927 127.212 259.51 128.069 261.431 128.069C263.351 128.069 263.969 127.143 263.969 125.72V106.482Z" fill="#FFB601"/>
<path d="M287.373 104.133H273.364C271.89 104.133 271.015 105.042 271.015 106.516V125.72C271.015 127.195 271.873 128.069 273.364 128.069H287.253C288.505 128.069 289.654 127.452 289.654 125.583C289.654 123.714 288.436 123.028 287.287 123.028H276.605C276.245 123.028 276.056 122.84 276.056 122.514V117.901H286.259C287.476 117.901 288.608 117.541 288.608 115.878C288.608 114.215 287.459 113.992 286.293 113.992H276.056V109.74C276.056 109.38 276.245 109.157 276.605 109.157H287.373C288.556 109.157 289.688 108.574 289.688 106.671C289.688 104.767 288.539 104.116 287.373 104.116V104.133Z" fill="#FFB601"/>
<path d="M316.505 111.249C316.505 106.688 315.064 104.133 308.84 104.133H298.775C297.301 104.133 296.426 105.042 296.426 106.499V125.72C296.426 127.212 297.009 128.086 298.93 128.086C300.85 128.086 301.502 127.143 301.502 125.72V109.671C301.502 109.277 301.622 109.122 302.016 109.122H308.84C310.504 109.122 311.429 109.928 311.429 111.574V112.706C311.429 114.026 310.692 114.969 308.703 114.969H305.788C304.211 114.969 303.611 115.621 303.611 117.267C303.611 119.273 303.765 119.753 304.931 120.919L311.378 127.349C311.824 127.795 312.664 128.035 313.178 128.035C315.493 128.035 316.419 127.126 316.419 126.286C316.419 125.669 316.196 125.189 315.682 124.708L310.126 119.667L311.018 119.702C314.773 119.805 316.505 116.821 316.505 113.032V111.249Z" fill="#FFB601"/>
<path d="M177.529 33.8799C173.32 37.2107 166.254 39.3563 158.092 39.3563C149.93 39.3563 142.854 37.2107 138.656 33.8799V39.9999C138.656 44.1072 146.643 48.6743 158.092 48.6743C169.541 48.6743 177.304 44.2196 177.509 40.1634V36.2707H177.529V33.8799Z" fill="#FFB601"/>
<path d="M181.625 43.719V53.3946C181.625 60.5466 171.292 66.1558 158.092 66.1558C144.892 66.1558 134.559 60.5466 134.559 53.3946V26.5951C134.559 19.4432 144.902 13.834 158.092 13.834C171.282 13.834 181.625 19.4432 181.625 26.5951V36.2708H198C196.105 15.9591 178.932 0 158.092 0C135.983 0 118 17.9413 118 40C118 62.0588 135.983 80 158.092 80C178.942 80 196.105 64.0409 198 43.7292H181.625V43.719Z" fill="#FFB601"/>
<path d="M158.092 17.9199C146.633 17.9199 138.656 22.4972 138.656 26.5943C138.656 30.6913 146.643 35.2686 158.092 35.2686C169.541 35.2686 177.529 30.6913 177.529 26.5943C177.529 22.4972 169.541 17.9199 158.092 17.9199Z" fill="#FFB601"/>
<path d="M138.645 47.2754V53.3954C138.645 57.5027 146.633 62.0698 158.082 62.0698C169.531 62.0698 177.519 57.4925 177.519 53.3954V47.2754C173.31 50.6062 166.244 52.7518 158.082 52.7518C149.92 52.7518 142.844 50.6062 138.645 47.2754Z" fill="#FFB601"/>
</svg>
