<svg width="194" height="194" viewBox="0 0 194 194" fill="none" xmlns="http://www.w3.org/2000/svg">
<path d="M97.2796 193.38C150.652 193.38 193.92 150.113 193.92 96.7401C193.92 43.3673 150.652 0.100098 97.2796 0.100098C43.9068 0.100098 0.639648 43.3673 0.639648 96.7401C0.639648 150.113 43.9068 193.38 97.2796 193.38Z" fill="#0C408C"/>
<path d="M132.77 133.29H97.2897C90.7597 133.29 84.3397 131.54 78.7297 128.22L77.5497 127.52L97.2597 107.81L110.37 120.5H129.47C130.24 120.5 130.54 119.91 130.62 119.73C130.69 119.55 130.9 118.92 130.35 118.38L121.76 109.79L108.3 96.7801L139.91 65.17L140.65 64.4101C145.99 59.0701 149.07 52.0701 149.41 44.6001H139.64C136.6 44.6001 133.81 46.4101 132.52 49.2101C131.95 50.4401 131.22 51.5701 130.34 52.5901L130.37 52.6201L128.24 54.7601L127.51 54.2401C118.65 47.9301 108.2 44.6001 97.2897 44.6001C89.2197 44.6001 81.2197 46.48 74.0497 50.05L77.1696 53.17L85.9996 62.0001C89.6396 60.8101 93.4397 60.2101 97.2997 60.2101C103.83 60.2101 110.25 61.9601 115.86 65.2801L117.04 65.98L97.2997 85.7201L64.2097 52.6301L64.2397 52.6001C63.3597 51.5801 62.6297 50.4601 62.0697 49.2401C60.7697 46.4301 57.9596 44.61 54.9196 44.61H45.1696C45.5096 52.09 48.5997 59.09 53.9297 64.42L54.6797 65.17H54.6696L55.2997 65.8101L54.7796 66.54C48.4696 75.4 45.1396 85.8501 45.1396 96.7601C45.1396 104.83 47.0197 112.83 50.5897 120.01L57.8997 112.7C60.5497 110.05 61.7897 106.22 61.1997 102.46C60.8997 100.59 60.7597 98.6701 60.7597 96.7601C60.7597 90.2301 62.5097 83.8101 65.8297 78.2001L66.5296 77.0201L86.2697 96.7501L54.6797 128.34L53.9497 129.09C48.6097 134.42 45.5297 141.43 45.1897 148.9H55.1197C58.1497 148.9 60.8097 147.06 62.0697 144.31C62.6297 143.09 63.3596 141.95 64.2496 140.91L64.2197 140.88L66.3596 138.73L67.0897 139.25C75.9497 145.56 86.3996 148.89 97.3096 148.89H149.44C148.89 140.19 141.64 133.28 132.8 133.28L132.77 133.29Z" fill="white"/>
<path d="M144.28 102.21C147.17 99.0002 148.58 94.7102 148.14 90.4302C147.56 84.8002 146.1 79.8502 143.8 75.7002L135.48 84.0202C134.09 85.4102 133.51 87.3902 133.93 89.3202C134.48 91.8102 134.76 94.3802 134.76 96.9602C134.76 100.48 134.24 103.96 133.22 107.3C137.43 107.2 141.45 105.36 144.28 102.22V102.21Z" fill="white"/>
</svg>
