<svg width="166" height="26" viewBox="0 0 166 26" fill="none" xmlns="http://www.w3.org/2000/svg">
<path d="M153.706 10.0264H157.017V11.3447C158.169 10.2021 159.468 9.63086 160.913 9.63086C162.573 9.63086 163.867 10.1533 164.795 11.1982C165.596 12.0869 165.996 13.5371 165.996 15.5488V24.2939H162.686V16.3252C162.686 14.9189 162.49 13.9473 162.1 13.4102C161.719 12.8633 161.025 12.5898 160.02 12.5898C158.926 12.5898 158.149 12.9512 157.69 13.6738C157.241 14.3867 157.017 15.6318 157.017 17.4092V24.2939H153.706V10.0264Z" fill="url(#paint0_linear_0_2664)"/>
<path d="M134.985 17.0576C134.985 14.9971 135.723 13.2441 137.197 11.7988C138.672 10.3535 140.469 9.63086 142.588 9.63086C144.717 9.63086 146.523 10.3584 148.008 11.8135C149.473 13.2686 150.205 15.0557 150.205 17.1748C150.205 19.3135 149.468 21.1055 147.993 22.5508C146.509 23.9863 144.688 24.7041 142.529 24.7041C140.391 24.7041 138.599 23.9717 137.153 22.5068C135.708 21.0615 134.985 19.2451 134.985 17.0576ZM138.354 17.1162C138.354 18.542 138.735 19.6699 139.497 20.5C140.278 21.3398 141.309 21.7598 142.588 21.7598C143.877 21.7598 144.907 21.3447 145.679 20.5146C146.45 19.6846 146.836 18.5762 146.836 17.1895C146.836 15.8027 146.45 14.6943 145.679 13.8643C144.897 13.0244 143.867 12.6045 142.588 12.6045C141.328 12.6045 140.308 13.0244 139.526 13.8643C138.745 14.7041 138.354 15.7881 138.354 17.1162Z" fill="url(#paint1_linear_0_2664)"/>
<path d="M131.484 10.0264V24.2939H128.188V10.0264H131.484ZM127.69 4.09375C127.69 3.51758 127.9 3.01953 128.32 2.59961C128.74 2.17969 129.243 1.96973 129.829 1.96973C130.425 1.96973 130.933 2.17969 131.353 2.59961C131.772 3.00977 131.982 3.5127 131.982 4.1084C131.982 4.7041 131.772 5.21191 131.353 5.63184C130.942 6.05176 130.439 6.26172 129.844 6.26172C129.248 6.26172 128.74 6.05176 128.32 5.63184C127.9 5.21191 127.69 4.69922 127.69 4.09375Z" fill="url(#paint2_linear_0_2664)"/>
<path d="M123.384 13.1025V24.2939H120.088V13.1025H118.682V10.0264H120.088V4.79688H123.384V10.0264H125.947V13.1025H123.384Z" fill="url(#paint3_linear_0_2664)"/>
<path d="M116.792 10.6416V15.0215C116.04 14.1035 115.366 13.4736 114.771 13.1318C114.185 12.7803 113.496 12.6045 112.705 12.6045C111.465 12.6045 110.435 13.0391 109.614 13.9082C108.794 14.7773 108.384 15.8662 108.384 17.1748C108.384 18.5127 108.779 19.6113 109.57 20.4707C110.371 21.3301 111.392 21.7598 112.632 21.7598C113.423 21.7598 114.121 21.5889 114.727 21.2471C115.312 20.915 116.001 20.2705 116.792 19.3135V23.6641C115.454 24.3574 114.116 24.7041 112.778 24.7041C110.571 24.7041 108.726 23.9912 107.241 22.5654C105.757 21.1299 105.015 19.3477 105.015 17.2188C105.015 15.0898 105.767 13.293 107.271 11.8281C108.774 10.3633 110.62 9.63086 112.808 9.63086C114.214 9.63086 115.542 9.96777 116.792 10.6416Z" fill="url(#paint4_linear_0_2664)"/>
<path d="M97.5146 18.8008H87.832L85.3125 24.2939H81.6357L92.8271 0.255859L103.623 24.2939H99.8877L97.5146 18.8008ZM96.123 15.5928L92.7686 7.90234L89.2529 15.5928H96.123Z" fill="url(#paint5_linear_0_2664)"/>
<path d="M56.2061 1.67676V15.2998C56.2061 17.2432 56.5234 18.6641 57.1582 19.5625C58.1055 20.8613 59.4385 21.5107 61.1572 21.5107C62.8857 21.5107 64.2236 20.8613 65.1709 19.5625C65.8057 18.6934 66.123 17.2725 66.123 15.2998V1.67676H69.5361V16.2373C69.5361 18.6201 68.7939 20.583 67.3096 22.126C65.6396 23.8447 63.5889 24.7041 61.1572 24.7041C58.7256 24.7041 56.6797 23.8447 55.0195 22.126C53.5352 20.583 52.793 18.6201 52.793 16.2373V1.67676H56.2061Z" fill="url(#paint6_linear_0_2664)"/>
<path d="M22.0898 1.67676L27.9785 16.7939L34.1309 0.578125L40.0195 16.7939L46.2744 1.67676H49.9805L39.873 25.7295L34.0576 9.7041L27.9932 25.7441L18.3838 1.67676H22.0898Z" fill="url(#paint7_linear_0_2664)"/>
<path d="M0 24.2939V1.67676H4.74609C7.02148 1.67676 8.81836 1.90137 10.1367 2.35059C11.5527 2.79004 12.8369 3.53711 13.9893 4.5918C16.3232 6.7207 17.4902 9.51855 17.4902 12.9854C17.4902 16.4619 16.2744 19.2744 13.8428 21.4229C12.6221 22.4971 11.3428 23.2441 10.0049 23.6641C8.75488 24.084 6.98242 24.2939 4.6875 24.2939H0ZM3.41309 21.0859H4.95117C6.48438 21.0859 7.75879 20.9248 8.77441 20.6025C9.79004 20.2607 10.708 19.7188 11.5283 18.9766C13.208 17.4434 14.0479 15.4463 14.0479 12.9854C14.0479 10.5049 13.2178 8.49316 11.5576 6.9502C10.0635 5.57324 7.86133 4.88477 4.95117 4.88477H3.41309V21.0859Z" fill="url(#paint8_linear_0_2664)"/>
<defs>
<linearGradient id="paint0_linear_0_2664" x1="58.0986" y1="7.90234" x2="61.9047" y2="37.6473" gradientUnits="userSpaceOnUse">
<stop stop-color="#0046B8"/>
<stop offset="1" stop-color="#6DB7F7"/>
</linearGradient>
<linearGradient id="paint1_linear_0_2664" x1="58.0986" y1="7.90234" x2="61.9047" y2="37.6473" gradientUnits="userSpaceOnUse">
<stop stop-color="#0046B8"/>
<stop offset="1" stop-color="#6DB7F7"/>
</linearGradient>
<linearGradient id="paint2_linear_0_2664" x1="58.0986" y1="7.90234" x2="61.9047" y2="37.6473" gradientUnits="userSpaceOnUse">
<stop stop-color="#0046B8"/>
<stop offset="1" stop-color="#6DB7F7"/>
</linearGradient>
<linearGradient id="paint3_linear_0_2664" x1="58.0986" y1="7.90234" x2="61.9047" y2="37.6473" gradientUnits="userSpaceOnUse">
<stop stop-color="#0046B8"/>
<stop offset="1" stop-color="#6DB7F7"/>
</linearGradient>
<linearGradient id="paint4_linear_0_2664" x1="58.0986" y1="7.90234" x2="61.9047" y2="37.6473" gradientUnits="userSpaceOnUse">
<stop stop-color="#0046B8"/>
<stop offset="1" stop-color="#6DB7F7"/>
</linearGradient>
<linearGradient id="paint5_linear_0_2664" x1="58.0986" y1="7.90234" x2="61.9047" y2="37.6473" gradientUnits="userSpaceOnUse">
<stop stop-color="#0046B8"/>
<stop offset="1" stop-color="#6DB7F7"/>
</linearGradient>
<linearGradient id="paint6_linear_0_2664" x1="58.0986" y1="7.90234" x2="61.9047" y2="37.6473" gradientUnits="userSpaceOnUse">
<stop stop-color="#0046B8"/>
<stop offset="1" stop-color="#6DB7F7"/>
</linearGradient>
<linearGradient id="paint7_linear_0_2664" x1="58.0986" y1="7.90234" x2="61.9047" y2="37.6473" gradientUnits="userSpaceOnUse">
<stop stop-color="#0046B8"/>
<stop offset="1" stop-color="#6DB7F7"/>
</linearGradient>
<linearGradient id="paint8_linear_0_2664" x1="58.0986" y1="7.90234" x2="61.9047" y2="37.6473" gradientUnits="userSpaceOnUse">
<stop stop-color="#0046B8"/>
<stop offset="1" stop-color="#6DB7F7"/>
</linearGradient>
</defs>
</svg>
