<svg width="206" height="57" viewBox="0 0 206 57" fill="none" xmlns="http://www.w3.org/2000/svg">
<path d="M45 53.5C58.8071 53.5 70 42.3071 70 28.5C70 14.6929 58.8071 3.5 45 3.5C31.1929 3.5 20 14.6929 20 28.5C20 42.3071 31.1929 53.5 45 53.5Z" fill="white"/>
<path d="M44.4975 7.50049L32 28.2357L44.4975 22.5525V7.50049Z" fill="#53A1D8"/>
<path d="M44.4975 22.5525L32 28.2357L44.4975 35.6186V22.5525Z" fill="#468CC8"/>
<path d="M44.4975 7.50049V22.5525L56.9898 28.2355L44.4975 7.50049Z" fill="#2A5298"/>
<path d="M44.4975 22.5525V35.6186L56.9898 28.2355L44.4975 22.5525Z" fill="#3D7BB8"/>
<path d="M32 30.6034L44.4975 48.2098V37.9867L32 30.6034Z" fill="#3D7BB8"/>
<path d="M44.4975 37.9867V48.2098L57 30.6034L44.4975 37.9867Z" fill="#3366A8"/>
<path d="M91.753 39.5H82.501V14.66H91.753C97.405 14.66 101.545 17.432 101.545 25.28V28.88C101.545 36.656 97.405 39.5 91.753 39.5ZM91.753 34.532C94.849 34.532 95.569 32.228 95.569 28.88V25.28C95.569 21.932 94.849 19.628 91.753 19.628H88.477V34.532H91.753ZM119.645 29.276L115.937 39.5H111.617L106.757 21.5H112.337L114.389 30.68L117.593 21.5H121.445L124.865 30.68L126.953 21.5H132.533L127.673 39.5H123.353L119.645 29.276ZM138.287 14.66H153.983V19.628H144.263V24.164H152.903V29.132H144.263V34.532H153.983V39.5H138.287V14.66ZM158.86 14.66H177.796V19.628H171.316V39.5H165.34V19.628H158.86V14.66ZM189.889 14.66V24.164H197.521V14.66H203.497V39.5H197.521V29.132H189.889V39.5H183.913V14.66H189.889Z" fill="white"/>
</svg>
