<svg width="238" height="58" viewBox="0 0 238 58" fill="none" xmlns="http://www.w3.org/2000/svg">
<rect x="1" y="1" width="56" height="56" rx="28" fill="white" fill-opacity="0.8"/>
<rect x="1" y="1" width="56" height="56" rx="28" stroke="url(#paint0_linear_2002_5)" stroke-width="2"/>
<path d="M27.5759 29.2772C27.7665 29.7967 27.8578 30.3574 27.8578 30.9592C27.8578 31.561 27.7665 32.1382 27.5759 32.6494C27.3851 33.1606 27.1198 33.6058 26.7715 33.9768C26.4233 34.3561 26.0004 34.6447 25.5195 34.8507C25.0303 35.0652 24.4913 35.1641 23.886 35.1641C23.2807 35.1641 22.7417 35.0652 22.2525 34.8507C21.7633 34.6447 21.3487 34.3478 21.0005 33.9768C20.6522 33.5975 20.3785 33.1606 20.1961 32.6494C20.0054 32.1382 19.9142 31.5776 19.9142 30.9592C19.9142 30.3408 20.0137 29.7967 20.1961 29.2772C20.3785 28.7578 20.6439 28.3126 21.0005 27.9416C21.3487 27.5623 21.7633 27.2737 22.2525 27.0594C22.7417 26.8533 23.289 26.746 23.886 26.746C24.483 26.746 25.0303 26.8533 25.5195 27.0594C26.0087 27.2655 26.4233 27.5623 26.7715 27.9416C27.1198 28.3209 27.3851 28.7661 27.5759 29.2772ZM46.7964 32.0063C46.2076 33.3667 45.4862 34.5292 44.6736 35.5021C44.7233 36.3018 44.7068 37.1511 44.6156 38.0416C43.9107 45.0002 39.3585 48.6279 32.6339 47.9106C31.1911 47.7622 29.8892 47.4159 28.7284 46.9213C27.9987 47.218 27.2027 47.4654 26.357 47.6468C19.6655 49.1061 14.8893 45.7917 13.488 39.0309C13.1812 37.5716 13.0983 36.203 13.1978 34.925C12.692 34.3066 12.2194 33.6058 11.7882 32.839C8.35538 26.779 9.95571 21.0983 15.8097 17.6438C17.0701 16.8935 18.3222 16.3905 19.5328 16.0937C19.9557 15.4177 20.4531 14.7416 21.0336 14.082C25.6107 8.87949 31.3735 8.68161 36.3984 13.307C37.4846 14.3046 38.3386 15.3599 38.9854 16.4565C39.7482 16.6544 40.5277 16.9347 41.3237 17.2975C47.5758 20.142 49.5326 25.6907 46.788 32.0145L46.7964 32.0063ZM30.7848 30.9592C30.7848 29.9121 30.6107 28.964 30.2707 28.1147C29.9307 27.2655 29.4498 26.54 28.8362 25.9463C28.2226 25.3527 27.493 24.891 26.6471 24.5695C25.8097 24.2479 24.8893 24.083 23.886 24.083C22.8827 24.083 21.9705 24.2396 21.1248 24.5695C20.279 24.891 19.5576 25.3445 18.944 25.9463C18.3305 26.54 17.8495 27.2655 17.5096 28.1147C17.1696 28.964 16.9955 29.9121 16.9955 30.9592C16.9955 32.0063 17.1696 32.9544 17.5096 33.8037C17.8495 34.6528 18.3305 35.3784 18.944 35.9721C19.5576 36.5657 20.279 37.0274 21.1248 37.349C21.9705 37.6705 22.8827 37.8354 23.886 37.8354C24.8893 37.8354 25.8097 37.6705 26.6471 37.349C27.493 37.0274 28.2143 36.5739 28.8362 35.9721C29.4498 35.3784 29.9307 34.6528 30.2707 33.8037C30.6107 32.9544 30.7848 32.0063 30.7848 30.9592ZM41.0169 24.421H32.4431V37.4973H35.2624V32.402H40.5857V29.739H35.2624V27.0841H41.0169V24.421Z" fill="url(#paint1_linear_2002_5)"/>
<path d="M65.448 15.16H80.928V19.444H70.488V25.6H79.848V29.848H70.488V40H65.448V15.16ZM87.2657 40H81.8657L90.5057 15.16H95.3297L103.97 40H98.6057L97.0937 35.284H88.7777L87.2657 40ZM92.9177 22.288L90.1097 31.036H95.7257L92.9177 22.288ZM103.483 15.16H108.991L114.427 31.864L119.863 15.16H125.371L116.731 40H112.159L103.483 15.16ZM129.016 15.16H144.496V19.444H134.056V25.024H143.416V29.272H134.056V35.752H144.496V40H129.016V15.16ZM177.017 22.864H172.193C171.725 20.524 170.357 19.084 167.909 19.084C164.993 19.084 163.445 21.064 163.445 25.816V29.344C163.445 33.952 164.993 36.076 167.909 36.076C170.429 36.076 171.653 34.816 172.193 32.296H176.981C176.153 37.876 173.021 40.324 167.909 40.324C162.329 40.324 158.405 36.94 158.405 29.344V25.816C158.405 18.148 162.329 14.836 167.909 14.836C172.841 14.836 176.189 17.428 177.017 22.864ZM199.657 29.344C199.657 36.94 195.733 40.324 190.117 40.324C184.537 40.324 180.613 36.94 180.613 29.344V25.816C180.613 18.148 184.537 14.836 190.117 14.836C195.733 14.836 199.657 18.148 199.657 25.816V29.344ZM185.653 25.816V29.344C185.653 34.096 187.201 36.076 190.117 36.076C193.033 36.076 194.617 34.096 194.617 29.344V25.816C194.617 21.064 193.033 19.084 190.117 19.084C187.201 19.084 185.653 21.064 185.653 25.816ZM210.279 15.16V40H205.239V15.16H210.279ZM230.507 15.16H235.295V40H231.083L221.399 24.628V40H216.611V15.16H220.787L230.507 30.748V15.16Z" fill="#1A1A1A"/>
<defs>
<linearGradient id="paint0_linear_2002_5" x1="0.0935473" y1="44.7429" x2="53.6961" y2="12.2231" gradientUnits="userSpaceOnUse">
<stop stop-color="#FFB2B8"/>
<stop offset="0.14" stop-color="#FF7DB8"/>
<stop offset="0.18" stop-color="#FA75BC"/>
<stop offset="0.24" stop-color="#ED62C7"/>
<stop offset="0.31" stop-color="#D842D9"/>
<stop offset="0.38" stop-color="#BB15F2"/>
<stop offset="0.42" stop-color="#AD00FF"/>
<stop offset="0.51" stop-color="#A711FE"/>
<stop offset="0.59" stop-color="#A41BFE"/>
<stop offset="0.62" stop-color="#9A35FC"/>
<stop offset="0.68" stop-color="#8C5DFB"/>
<stop offset="0.74" stop-color="#817EF9"/>
<stop offset="0.8" stop-color="#7897F8"/>
<stop offset="0.86" stop-color="#71A9F7"/>
<stop offset="0.93" stop-color="#6EB4F7"/>
<stop offset="1" stop-color="#6DB8F7"/>
</linearGradient>
<linearGradient id="paint1_linear_2002_5" x1="15.3454" y1="44.0355" x2="42.6894" y2="17.3235" gradientUnits="userSpaceOnUse">
<stop stop-color="#FFB2B8"/>
<stop offset="0.14" stop-color="#FF7DB8"/>
<stop offset="0.18" stop-color="#FA75BC"/>
<stop offset="0.24" stop-color="#ED62C7"/>
<stop offset="0.31" stop-color="#D842D9"/>
<stop offset="0.38" stop-color="#BB15F2"/>
<stop offset="0.42" stop-color="#AD00FF"/>
<stop offset="0.51" stop-color="#A711FE"/>
<stop offset="0.59" stop-color="#A41BFE"/>
<stop offset="0.62" stop-color="#9A35FC"/>
<stop offset="0.68" stop-color="#8C5DFB"/>
<stop offset="0.74" stop-color="#817EF9"/>
<stop offset="0.8" stop-color="#7897F8"/>
<stop offset="0.86" stop-color="#71A9F7"/>
<stop offset="0.93" stop-color="#6EB4F7"/>
<stop offset="1" stop-color="#6DB8F7"/>
</linearGradient>
</defs>
</svg>
