<svg width="200" height="58" viewBox="0 0 200 58" fill="none" xmlns="http://www.w3.org/2000/svg">
<path d="M63.2642 13.1425C62.1652 12.6521 61.0874 12.276 60.0339 12.0056C59.1345 10.5228 57.953 9.08968 56.4577 7.73971C49.5199 1.47519 41.5566 1.73857 35.2417 8.79052C34.4387 9.68718 33.7502 10.5989 33.1691 11.5198C31.486 11.9204 29.7628 12.6058 28.0213 13.6171C19.944 18.3075 17.7318 25.9928 22.4603 34.2026C23.0618 35.247 23.7131 36.1869 24.4065 37.0268C24.2659 38.7586 24.3827 40.6162 24.8022 42.5924C26.7481 51.7549 33.3446 56.2425 42.5816 54.2641C43.7567 54.0125 44.8482 53.6811 45.858 53.2786C47.4537 53.9474 49.2483 54.4093 51.2485 54.6192C60.529 55.5928 66.8176 50.6809 67.7985 41.2481C67.9233 40.0483 67.9466 38.9038 67.8772 37.8153C69.0046 36.4977 69.9978 34.9258 70.815 33.0792C74.605 24.5172 71.895 16.9942 63.2645 13.1425H63.2642Z" fill="url(#paint0_linear_1_4822)"/>
<path d="M32.7728 35.209C32.7728 33.1445 33.509 31.3875 34.981 29.939C36.4518 28.4906 38.2458 27.7661 40.3608 27.7661C42.4757 27.7661 44.2882 28.4957 45.7698 29.9533C47.2318 31.4119 47.9625 33.2028 47.9625 35.3265C47.9625 37.4696 47.227 39.2659 45.7551 40.7137C44.2735 42.1528 42.4559 42.8719 40.3018 42.8719C38.1681 42.8719 36.3792 42.138 34.9368 40.6699C33.4943 39.2215 32.7728 37.4015 32.7728 35.209ZM36.1354 35.2676C36.1354 36.6967 36.5153 37.8271 37.2754 38.6587C38.0551 39.5007 39.0831 39.9212 40.3605 39.9212C41.6468 39.9212 42.6748 39.5056 43.4456 38.6735C44.2153 37.8419 44.6003 36.7311 44.6003 35.341C44.6003 33.951 44.2153 32.8407 43.4456 32.0092C42.6652 31.1671 41.6371 30.7466 40.3605 30.7466C39.1029 30.7466 38.0845 31.1671 37.3049 32.0092C36.5252 32.8507 36.1354 33.9373 36.1354 35.2676Z" fill="white"/>
<path d="M53.0526 31.2453V42.4607H49.7486V31.2453H48.5784V28.1623H49.7486V22.643C49.7486 20.8421 50.06 19.5699 50.6834 18.826C51.5416 17.7889 52.7893 17.2703 54.4262 17.2703C55.0114 17.2703 55.7468 17.4414 56.6336 17.7838V21.1601L56.2977 20.9842C55.5858 20.6218 55.0015 20.441 54.5431 20.441C53.9587 20.441 53.5641 20.6514 53.3589 21.0721C53.1544 21.4832 53.0524 22.276 53.0524 23.4503V28.1625H56.6334V31.2456H53.0524L53.0526 31.2453Z" fill="white"/>
<path d="M93.0092 25.1772C91.5211 23.7123 89.7121 22.9798 87.5725 22.9798C85.4525 22.9798 83.6435 23.7123 82.1651 25.1672C80.687 26.6224 79.9478 28.3899 79.9478 30.4603C79.9478 32.6674 80.6774 34.4935 82.1263 35.9487C83.5754 37.4232 85.3649 38.1654 87.5141 38.1654C89.6829 38.1654 91.5016 37.4428 92.9995 35.9877C94.4779 34.5325 95.2171 32.7357 95.2171 30.5776C95.2171 28.4488 94.4776 26.642 93.0092 25.1772ZM90.6748 33.9369C89.8967 34.7768 88.866 35.1967 87.5723 35.1967C86.2884 35.1967 85.2577 34.7768 84.4698 33.9272C83.711 33.0873 83.3319 31.9547 83.3319 30.5189C83.3319 29.1811 83.7209 28.0872 84.499 27.2476C85.2866 26.398 86.3077 25.9781 87.5723 25.9781C88.8561 25.9781 89.8868 26.398 90.6748 27.2476C91.4432 28.0775 91.8322 29.2007 91.8322 30.5972C91.8322 31.9937 91.4432 33.1067 90.6748 33.9369ZM109.513 25.1675C108.239 23.7123 106.615 22.9801 104.651 22.9801C102.988 22.9801 101.509 23.6343 100.206 24.9429V23.3804H96.9093V45.5679H100.206V36.144C101.529 37.4915 103.036 38.1654 104.709 38.1654C106.644 38.1654 108.249 37.4525 109.523 36.0267C110.807 34.5815 111.449 32.7944 111.449 30.636C111.449 28.4386 110.807 26.6127 109.513 25.1675ZM106.926 33.8979C106.177 34.7671 105.234 35.1967 104.086 35.1967C102.87 35.1967 101.898 34.7671 101.149 33.9076C100.4 33.0384 100.021 31.9251 100.021 30.5776C100.021 29.2007 100.4 28.0872 101.149 27.2476C101.908 26.398 102.89 25.9781 104.106 25.9781C105.253 25.9781 106.197 26.4174 106.955 27.2866C107.694 28.1558 108.074 29.2787 108.074 30.6559C108.074 31.9547 107.684 33.0289 106.926 33.8982L106.926 33.8979ZM123.518 32.4234C122.837 33.4879 122.234 34.2105 121.709 34.6108C121.165 35.0014 120.484 35.1967 119.667 35.1967C118.607 35.1967 117.741 34.8548 117.061 34.1615C116.389 33.4683 116.01 32.5208 115.923 31.3492H126.173L126.193 30.5679C126.193 28.1948 125.58 26.3394 124.365 25.0015C123.139 23.654 121.476 22.9801 119.375 22.9801C117.275 22.9801 115.612 23.6733 114.347 25.0602C113.093 26.4664 112.461 28.3024 112.461 30.5776C112.461 32.8726 113.112 34.7085 114.406 36.0953C115.699 37.4722 117.411 38.1657 119.551 38.1657C120.29 38.1657 120.98 38.0877 121.622 37.9214C122.254 37.7651 122.848 37.5211 123.392 37.1792C123.947 36.8375 124.462 36.4076 124.939 35.8803C125.415 35.3531 125.872 34.7281 126.31 33.9859L123.518 32.4234H123.518ZM116.603 27.5209C116.817 27.1986 117.06 26.9253 117.352 26.691C117.634 26.4567 117.965 26.2807 118.315 26.1637C118.665 26.0367 119.044 25.9781 119.443 25.9781C121.204 25.9781 122.322 26.857 122.779 28.6344H116.136C116.243 28.2145 116.399 27.8532 116.603 27.5212L116.603 27.5209ZM127.981 23.3788H131.302V24.7067C132.458 23.5558 133.76 22.9801 135.21 22.9801C136.875 22.9801 138.173 23.5068 139.103 24.5592C139.907 25.4537 140.309 26.9145 140.309 28.9408V37.7476H136.988V29.7221C136.988 28.3059 136.792 27.3278 136.4 26.7862C136.018 26.2361 135.323 25.9606 134.315 25.9606C133.217 25.9606 132.438 26.3243 131.978 27.0523C131.528 27.77 131.302 29.0248 131.302 30.8141V37.7479H127.981V23.3788H127.981ZM153.579 26.4768V37.7479H150.259V26.4768H149.083V23.3788H150.259V17.8323C150.259 16.022 150.572 14.7439 151.199 13.9965C152.06 12.9538 153.315 12.4321 154.96 12.4321C155.548 12.4321 156.287 12.6048 157.179 12.9484V16.3421L156.841 16.1651C156.125 15.8014 155.538 15.6193 155.077 15.6193C154.49 15.6193 154.093 15.8302 153.888 16.2531C153.682 16.6663 153.579 17.4634 153.579 18.6431V23.3788H157.179V26.4768H153.579ZM167.828 23.3804V25.0502C166.515 23.6733 165.017 22.9798 163.354 22.9798C161.418 22.9798 159.814 23.7024 158.53 25.1379C157.246 26.5734 156.604 28.3606 156.604 30.5187C156.604 32.7161 157.246 34.5422 158.53 36.0071C159.823 37.4426 161.457 38.1652 163.441 38.1652C165.007 38.1652 166.466 37.5206 167.828 36.2414V37.7452H171.153V23.3798H167.828V23.3804ZM166.904 33.9272C166.155 34.7768 165.163 35.1967 163.937 35.1967C162.79 35.1967 161.846 34.7572 161.088 33.8783C160.358 33.019 159.989 31.8958 159.989 30.5189C159.989 29.2298 160.368 28.1459 161.117 27.2767C161.885 26.4074 162.829 25.9778 163.967 25.9778C165.172 25.9778 166.155 26.4074 166.904 27.257C167.662 28.1359 168.042 29.2491 168.042 30.597C168.042 31.9448 167.662 33.0483 166.904 33.9272ZM175.298 23.3788L178.999 31.4487L182.687 23.3788H186.404L178.97 38.7368L171.594 23.3788H175.297H175.298ZM197.208 32.4234C196.528 33.4879 195.925 34.2105 195.399 34.6108C194.865 35.0014 194.184 35.1967 193.357 35.1967C192.297 35.1967 191.431 34.8548 190.76 34.1615C190.08 33.4683 189.7 32.5208 189.613 31.3492H199.863L199.883 30.5679C199.883 28.1948 199.27 26.3394 198.054 25.0015C196.829 23.654 195.166 22.9801 193.065 22.9801C190.965 22.9801 189.302 23.6733 188.037 25.0602C186.783 26.4664 186.16 28.3024 186.16 30.5776C186.16 32.8726 186.802 34.7085 188.096 36.0953C189.389 37.4722 191.101 38.1657 193.24 38.1657C193.98 38.1657 194.67 38.0877 195.312 37.9214C195.944 37.7651 196.538 37.5211 197.092 37.1792C197.637 36.8375 198.152 36.4076 198.628 35.8803C199.115 35.3531 199.562 34.7281 200 33.9859L197.208 32.4234ZM190.303 27.5209C190.508 27.1986 190.751 26.9253 191.042 26.691C191.334 26.4567 191.655 26.2807 192.005 26.1637C192.356 26.0367 192.735 25.9781 193.134 25.9781C194.904 25.9781 196.012 26.857 196.469 28.6344H189.827C189.934 28.2145 190.099 27.8532 190.304 27.5212L190.303 27.5209Z" fill="url(#paint1_linear_1_4822)"/>
<defs>
<linearGradient id="paint0_linear_1_4822" x1="27.8477" y1="49.8343" x2="64.8956" y2="12.9389" gradientUnits="userSpaceOnUse">
<stop stop-color="#EC9DBC"/>
<stop offset="0.483" stop-color="#8E81B9"/>
<stop offset="1" stop-color="#7ECAF0"/>
</linearGradient>
<linearGradient id="paint1_linear_1_4822" x1="108.563" y1="62.495" x2="172.244" y2="-0.924496" gradientUnits="userSpaceOnUse">
<stop stop-color="#EC9DBC"/>
<stop offset="0.483" stop-color="#8E81B9"/>
<stop offset="1" stop-color="#7ECAF0"/>
</linearGradient>
</defs>
</svg>
