<svg width="106" height="132" viewBox="0 0 106 132" fill="none" xmlns="http://www.w3.org/2000/svg">
<circle cx="53" cy="50" r="40.25" fill="white" stroke="#79CAFF" stroke-width="0.5"/>
<path d="M74.6468 28.3545L89.9456 34.694C87.8712 29.6847 84.8944 25.3227 81.2845 21.7155L74.6468 28.3545Z" fill="#9EE0FF"/>
<path d="M74.6442 28.3532H74.6468L81.2845 21.7155C77.5425 17.9761 73.1191 15.0464 68.306 13.0531L74.6429 28.3532H74.6442Z" fill="#80CAFF"/>
<path d="M89.9495 65.3034C91.9428 60.4902 92.9996 55.2912 93.0009 50.0007H83.6113L89.9495 65.3034Z" fill="#80CAFF"/>
<path d="M83.61 50.0007H92.9996C93.0022 44.8958 92.0226 39.7073 89.9469 34.6966L83.61 50.0007Z" fill="#78B7FF"/>
<path d="M13.0004 50.0007C12.9978 55.1042 13.9774 60.2927 16.0531 65.3021L22.3913 50.0007H13.0004Z" fill="#E6FBFF"/>
<path d="M13.0004 50.0007H22.39L16.0518 34.6979C14.0585 39.5111 13.0017 44.7101 13.0004 50.0007Z" fill="#9EE0FF"/>
<path d="M24.7155 78.2858C28.4574 82.0252 32.8808 84.9549 37.6927 86.9482L31.3545 71.6455L24.7155 78.2858Z" fill="#9EE0FF"/>
<path d="M16.0531 65.3047C18.1288 70.314 21.1056 74.6773 24.7155 78.2845L31.3545 71.6442L16.0518 65.3034L16.0531 65.3047Z" fill="#C2F0FF"/>
<path d="M16.0531 34.6953L31.3558 28.3571L24.7155 21.7168C20.9761 25.4601 18.0464 29.8835 16.0531 34.6953Z" fill="#E6FBFF"/>
<path d="M31.3558 28.3558L37.6927 13.0518C32.6847 15.1275 28.324 18.1056 24.7155 21.7155L31.3558 28.3558Z" fill="#9EE0FF"/>
<path d="M53.0006 19.39L68.3034 13.0518C63.4915 11.0585 58.2912 10.0017 53.0006 10.0004V19.39Z" fill="#9EE0FF"/>
<path d="M53.0006 19.39V9.99908C47.8971 9.99778 42.7073 10.9761 37.6979 13.0492L52.9993 19.39H53.0006Z" fill="#E6FBFF"/>
<path d="M53.0006 89.9996V80.61L37.6979 86.9495C42.5098 88.9415 47.7101 89.9983 53.0006 89.9996Z" fill="#80CAFF"/>
<path d="M53.0006 80.6113V90.0009C58.1042 90.0022 63.294 89.0239 68.3021 86.9495L53.0006 80.6113Z" fill="#78B7FF"/>
<path d="M74.6442 71.6455L68.306 86.9469C73.314 84.8725 77.6747 81.8944 81.2832 78.2845L74.6442 71.6455Z" fill="#9EE0FF"/>
<path d="M81.2845 78.2845C85.0239 74.5412 87.9536 70.1178 89.9482 65.3073L74.6455 71.6455L81.2845 78.2845Z" fill="#78B7FF"/>
<path d="M68.3034 13.0518L53.0006 19.3913L61.9665 28.3558H74.6442L68.3073 13.0544C68.3073 13.0518 68.3034 13.0531 68.3034 13.0531V13.0518Z" fill="#C2F0FF"/>
<path d="M16.0518 34.6992L22.3887 49.9993L31.3545 41.0361V28.3571L16.0531 34.6966C16.0531 34.6966 16.0505 34.6966 16.0518 34.7006V34.6992Z" fill="#C2F0FF"/>
<path d="M74.6442 28.3532V41.0348L83.61 49.9993L89.9469 34.6953V34.6927L74.6442 28.3519V28.3532Z" fill="#C2F0FF"/>
<path d="M37.6953 13.0518H37.6927L31.3558 28.3558H44.0335L52.9993 19.39L37.6979 13.0492H37.6953V13.0518Z" fill="#C2F0FF"/>
<path d="M31.3558 71.6455L37.694 86.9482C37.694 86.9482 37.6966 86.9482 37.6979 86.9495L53.0006 80.61L44.0348 71.6455H31.3558Z" fill="#C2F0FF"/>
<path d="M74.6455 58.9665V71.6455L89.9469 65.306C89.9469 65.3034 89.9482 65.3021 89.9482 65.3021L83.61 49.9993L74.6455 58.9652V58.9665Z" fill="#9EE0FF"/>
<path d="M53.0006 80.6113L68.3021 86.9495H68.3047C68.3047 86.9495 68.3047 86.9495 68.3073 86.9469L74.6455 71.6455H61.9665L53.002 80.6113H53.0006Z" fill="#80CAFF"/>
<path d="M16.0518 65.3034L16.0531 65.3047L31.3558 71.6455V58.9665L22.39 50.002L16.0518 65.3034Z" fill="#9EE0FF"/>
<path d="M53.0006 80.6113L61.9652 71.6455L44.0335 71.6468L53.0006 80.6113Z" fill="#9EE0FF"/>
<path d="M44.0348 28.3545L61.9665 28.3558L53.0006 19.39L44.0348 28.3545Z" fill="#E6FBFF"/>
<path d="M74.6455 58.9665L83.61 50.0007L74.6442 41.0348L74.6455 58.9665Z" fill="#80CAFF"/>
<path d="M22.3887 49.9993L22.39 50.002L31.3558 58.9665L31.3545 41.0348L22.3887 49.9993Z" fill="#80CAFF"/>
<path d="M31.3545 41.0348L44.0348 28.3545L31.3571 28.3558L31.3545 41.0348Z" fill="#9EE0FF"/>
<path d="M31.3558 71.6455L44.0335 71.6468L31.3558 58.9665V71.6455Z" fill="#E6FBFF"/>
<path d="M74.6442 71.6455L74.6455 58.9665L61.9652 71.6455H74.6442Z" fill="#78B7FF"/>
<path d="M74.6442 41.0348V28.3532L61.9665 28.3558L74.6442 41.0348Z" fill="#80CAFF"/>
<path d="M44.0348 28.3558L31.3558 41.0348L31.3545 58.9652L44.0348 71.6455L61.9652 71.6442L74.6442 58.9652V41.0335L61.9652 28.3545L44.0348 28.3558Z" fill="#C2F0FF"/>
<g filter="url(#filter0_d_0_14)">
<path d="M68.8041 44.0024C67.0675 45.7529 64.3095 46.8861 61.8062 47.9662C65.8918 49.2525 69.3663 53.0114 69.3663 57.3863C69.3663 59.9083 68.1905 62.6896 65.1765 65.2634C61.0395 68.7643 56.393 70 51.335 70C46.2769 70 41.3243 68.8668 35.9111 67.6311C35.4506 67.5286 34.8885 67.3212 34.4806 67.3212C34.379 67.3212 34.2761 67.3731 34.1745 67.4236C33.8671 67.6817 33.6123 67.7854 33.3564 67.7854C33.1518 67.7854 33 67.6829 33 67.4755C33 67.3212 33.0514 67.1669 33.2045 66.962C34.1757 65.6226 35.6049 64.7992 37.2901 64.7992C37.9037 64.7992 38.5675 64.9017 39.2313 65.1091C39.8436 65.3152 40.2012 65.4683 40.5074 65.4683C40.8136 65.4683 41.0181 65.2621 41.4773 64.9017C44.1337 62.5858 46.228 57.0777 51.1819 45.0294C53.3276 39.8299 55.4595 32.0882 60.6681 32.4992C61.2817 32.5511 61.5364 32.756 61.5364 32.9115C61.5364 33.1683 61.18 33.425 60.6166 33.425C60.003 33.425 59.392 34.0435 58.88 34.7644C56.8887 37.3901 50.9773 55.2223 47.6572 60.1651C45.4099 63.5117 43.6218 65.1584 42.1411 65.7238C41.988 65.7756 41.9366 65.8793 41.9366 65.9818C41.9366 66.0842 41.988 66.1879 42.1913 66.2385C44.5415 67.1138 47.9621 68.5038 51.7942 68.5038C54.4493 68.5038 57.3103 67.8347 60.1197 65.8262C63.337 63.5104 64.5642 60.5761 64.5642 57.7961C64.5642 53.7804 62.0107 50.1239 58.9967 49.2487C58.1284 48.992 57.2099 48.8895 56.4432 48.8895C56.0843 48.8895 55.728 48.8895 55.4218 48.9414C55.216 48.9932 55.1658 48.8389 55.1658 48.7352C55.1658 48.3229 55.8811 47.2934 56.2901 47.2934C60.2214 47.2934 63.2868 47.0366 65.8403 43.4838C66.5041 42.5568 66.8103 41.4766 66.8103 40.3447C66.8103 36.1215 62.4185 31.2306 53.8383 31.2306C47.4025 31.2306 43.4185 33.8057 41.3243 35.7105C38.9239 37.8733 37.5461 40.499 37.5461 43.0209C37.5461 43.9986 37.7506 44.9257 38.1584 45.8009C38.2601 46.0071 38.3128 46.2132 38.3128 46.3675C38.3128 46.5737 38.2099 46.6762 38.0568 46.6762C37.8021 46.6762 37.393 46.47 36.8823 46.0577C35.7066 45.1306 35.0955 43.7937 35.0955 42.2494C35.0955 39.8299 36.7305 36.8943 39.742 34.6304C42.3469 32.7281 47.863 30 55.6778 30C65.0749 30 71 34.7366 71 39.3695C71 41.0175 70.3375 42.4062 68.8041 44.0024Z" fill="#0076CD"/>
</g>
<path d="M39.9635 113.044C39.5814 113.063 39.4149 112.306 38.8711 112.272C36.823 112.154 32.0091 118.37 30.0316 122.714C29.6591 123.531 29.495 124.049 29.2447 124.764C28.8051 126.127 28.3643 128.095 28.0266 129.581C27.9223 130.032 28.5021 130.25 29.3022 130.304C29.5896 130.321 29.7561 130.441 29.7609 130.535C29.7693 130.695 29.5549 130.958 29.077 130.983C27.9319 131.042 24.4656 130.921 23.2558 130.983C22.9696 130.998 22.869 130.908 22.8642 130.812C22.8558 130.653 23.1325 130.447 23.511 130.364C24.3949 130.19 24.7722 130.195 24.9687 129.674C25.6382 127.821 26.2203 125.494 26.6599 124.131C26.715 123.968 26.7042 123.746 26.7258 123.553C26.7198 122.82 26.515 121.938 26.2874 121.248C25.7412 119.33 24.8501 116.888 24.153 115.137C23.9338 114.606 23.4116 114.377 22.548 114.326C22.2605 114.309 22.0605 114.159 22.0856 114.031C22.0772 113.872 22.2617 113.735 22.6438 113.715C23.1528 113.689 24.2344 113.632 25.1567 113.584C26.079 113.537 26.9066 113.493 26.9078 113.526C27.4121 115.254 28.5512 118.768 29.053 120.466C29.1644 120.778 29.2363 120.935 29.2998 120.932C29.3633 120.928 29.4507 120.764 29.6268 120.468C33.4405 114.018 34.5388 112.43 38.9538 111.436C40.1827 111.149 40.6582 111.698 40.6498 112.146C40.663 112.401 40.3444 113.023 39.9623 113.043L39.9635 113.044Z" fill="white"/>
<path d="M54.2613 114.426C53.4085 114.765 52.4563 114.913 51.5639 114.935C50.5458 114.99 49.6511 114.915 49.0127 114.866C48.5983 114.844 48.5396 115.069 48.4485 115.262C47.2268 118.923 44.7259 126.501 43.8731 129.612C43.7557 130.061 44.2683 130.265 45.1631 130.371C45.5152 130.427 45.6134 130.552 45.5523 130.682C45.5236 130.81 45.3032 130.982 44.8888 130.992C43.7102 131.019 40.59 130.964 39.379 130.992C39.0604 130.999 38.9299 130.874 38.9586 130.746C39.0185 130.586 39.27 130.421 39.6198 130.381C40.5097 130.265 40.9206 130.128 41.1002 129.613C42.1794 126.688 44.6289 119.589 45.9883 115C46.0171 114.872 46.0446 114.681 45.6613 114.626C44.2875 114.466 43.2335 114.363 42.4369 114.381C41.2907 114.408 40.6595 114.677 40.2618 115.387C39.8953 116.065 39.4282 116.522 39.0437 116.468C38.8832 116.44 38.7861 116.378 38.6568 116.253C38.5262 116.098 38.4592 115.971 38.4867 115.811C38.5358 115.173 39.4102 114.42 40.7361 113.847C42.2189 113.175 43.3592 112.926 44.5714 112.93C45.5272 112.908 46.5501 113.043 47.8281 113.173C49.8727 113.412 51.6023 113.755 52.685 113.73C53.3857 113.713 53.987 113.54 54.3296 113.181C54.8267 112.628 55.1345 112.175 55.5166 112.134C55.6747 112.098 55.804 112.159 55.9346 112.284C56.0328 112.377 56.0376 112.6 55.9789 112.825C55.8639 113.338 55.4315 113.954 54.2637 114.427L54.2613 114.426Z" fill="white"/>
<path d="M74.9095 116.63C74.5909 116.63 74.2723 116.471 74.2089 116.12C74.1454 115.61 74.3358 115.132 73.5082 114.4C73.0303 113.954 72.2661 113.73 71.3103 113.699C68.1565 113.636 63.2181 116.025 61.5293 121.951C61.3376 122.555 61.243 123.129 61.2107 123.671C60.9556 127.143 63.2493 129.565 66.4353 129.596C68.22 129.596 70.2586 128.895 72.3296 127.206C72.6805 126.92 73.0302 126.855 73.0302 126.984C73.0937 127.111 72.9344 127.398 72.4254 127.812C69.8765 129.916 66.8821 130.966 64.3009 130.999C61.019 131.031 58.439 129.405 58.3432 126.187C58.3109 125.836 58.3109 125.454 58.3432 125.104C58.6295 119.402 63.09 114.496 69.1758 112.997C70.2275 112.742 71.2144 112.615 72.1391 112.615C74.5598 112.583 76.3445 113.412 76.3121 114.782C76.2486 115.515 75.7707 116.63 74.9107 116.63H74.9095Z" fill="white"/>
<path d="M81.5356 127.782C79.6563 129.248 77.9674 130.298 76.1516 130.617C74.6544 130.872 74.0483 129.853 74.0483 128.355C74.0807 125.711 76.0235 121.601 78.54 120.294C80.1653 119.465 81.726 118.988 83.1598 118.765C84.4665 118.573 85.0714 119.402 85.0714 120.676C85.1037 122.811 83.5742 126.189 81.5344 127.782H81.5356ZM81.4709 120.04C80.9295 119.945 80.6744 120.04 80.1641 120.359C78.6035 121.347 76.6271 124.946 76.596 127.146C76.5637 128.165 76.9469 128.898 77.9662 128.961C78.6035 128.994 78.9544 128.706 79.5593 128.261C81.4074 126.923 82.4902 123.833 82.4591 121.889C82.4267 120.869 82.1081 120.136 81.4709 120.04Z" fill="white"/>
<path d="M91.0291 128.323C89.5954 129.47 87.8107 130.521 86.5686 130.521C85.8679 130.521 85.4212 130.17 85.4212 129.278C85.4212 128.768 85.5805 128.1 85.8991 127.208C86.504 125.551 88.2251 122.365 88.5438 120.899C88.6707 120.262 88.4479 120.102 88.0658 120.102C87.8742 120.102 87.5556 120.135 87.1424 120.262C86.8872 120.325 86.7914 120.166 86.7914 120.039C86.7914 119.912 86.8872 119.753 87.0465 119.72C87.97 119.465 89.6589 119.02 90.5824 118.828C91.1561 118.701 91.3789 119.02 91.3789 119.465C91.3789 119.816 91.1561 120.74 90.6147 121.886C89.8182 123.575 89.1175 124.817 88.4168 126.601C88.0658 127.494 87.9065 128.194 87.9065 128.513C87.9065 128.864 88.0982 129.15 88.3844 129.15C88.9258 129.15 90.041 128.417 90.9333 127.717C91.8256 127.016 92.3347 126.728 92.5263 126.728C92.5587 126.728 92.5898 126.728 92.5898 126.761C92.5898 126.888 92.0796 127.494 91.0291 128.321V128.323Z" fill="white"/>
<circle cx="90.5" cy="115.5" r="1.5" fill="white"/>
<path d="M105.423 128.323C104.181 129.342 102.077 130.585 100.772 130.553C99.9752 130.553 99.465 130.138 99.4973 129.087C99.4973 128.45 99.6243 127.972 99.8794 127.207C100.421 125.551 101.186 123.958 101.918 122.651C102.269 122.046 102.459 121.44 102.428 121.122C102.428 120.899 102.332 120.803 102.11 120.803C101.855 120.803 101.472 120.962 100.931 121.281C99.2422 122.269 96.4071 125.104 94.9099 128.832C94.7829 129.183 94.7182 129.342 94.6236 129.532C94.178 129.851 92.9982 130.202 92.2975 130.584C91.9466 130.776 92.1382 130.106 92.1706 129.979C92.6808 128.259 95.6429 122.747 95.8345 120.772C95.9304 119.943 95.4201 119.848 94.4332 120.357C94.1146 120.549 93.9553 120.357 93.9553 120.23C93.9553 120.167 94.0511 120.103 94.1469 120.039C95.0704 119.497 96.2813 119.083 96.8874 118.86C97.079 118.797 97.2695 118.764 97.3976 118.764C98.3211 118.732 98.4804 119.784 97.5246 122.333C97.3976 122.651 97.4923 122.747 97.6204 122.651C99.6279 121.122 101.666 119.688 103.323 119.179C103.705 119.052 104.024 119.02 104.279 119.02C105.043 119.02 105.235 119.497 105.235 120.039C105.235 120.453 105.108 120.899 105.012 121.217C104.407 123.066 103.292 124.818 102.655 126.601C102.017 128.417 102.177 129.087 102.75 129.118C103.324 129.15 104.376 128.448 105.33 127.748C105.713 127.461 106 127.461 106 127.621C106 127.78 105.841 128.003 105.426 128.321L105.423 128.323Z" fill="white"/>
<path d="M19.55 117.585C18.6013 118.534 17.0957 119.147 15.7291 119.733C17.9605 120.43 19.8566 122.466 19.8566 124.837C19.8566 126.203 19.2146 127.71 17.5689 129.104C15.3099 131 12.773 131.67 10.0109 131.67C7.39023 131.67 4.54553 131.056 1.58944 130.387C1.33791 130.332 1.03128 130.22 0.808493 130.22C0.753396 130.22 0.697101 130.247 0.642003 130.275C0.474316 130.415 0.335375 130.47 0.195236 130.47C0.0838437 130.47 0 130.415 0 130.302C0 130.218 0.0275487 130.136 0.111392 130.024C0.642003 129.298 1.42175 128.853 2.34283 128.853C2.67821 128.853 3.03993 128.908 3.40286 129.021C3.73703 129.132 3.93227 129.216 4.09996 129.216C4.26765 129.216 4.37904 129.104 4.62937 128.909C6.07987 127.655 7.22374 124.67 9.92829 118.145C11.0997 115.329 12.2639 111.134 15.1074 111.357C15.4428 111.385 15.5818 111.496 15.5818 111.581C15.5818 111.72 15.3865 111.859 15.0799 111.859C14.7445 111.859 14.4115 112.194 14.1313 112.585C13.0437 114.007 9.8157 123.668 8.00348 126.345C6.77577 128.157 5.80079 129.049 4.9911 129.356C4.90725 129.383 4.8797 129.44 4.8797 129.496C4.8797 129.552 4.90725 129.607 5.01865 129.635C6.30146 130.109 8.16997 130.863 10.2613 130.863C11.7118 130.863 13.2737 130.5 14.8068 129.412C16.5639 128.158 17.2335 126.568 17.2335 125.062C17.2335 122.887 15.8393 120.906 14.1935 120.433C13.7192 120.294 13.2174 120.237 12.7993 120.237C12.6041 120.237 12.4089 120.237 12.2412 120.265C12.1286 120.292 12.101 120.21 12.101 120.153C12.101 119.929 12.4915 119.373 12.7155 119.373C14.8619 119.373 16.5364 119.234 17.9306 117.309C18.2935 116.807 18.46 116.221 18.46 115.608C18.46 113.32 16.0621 110.671 11.3764 110.671C7.86215 110.671 5.687 112.066 4.54313 113.097C3.23277 114.269 2.47938 115.691 2.47938 117.057C2.47938 117.587 2.59077 118.089 2.81356 118.563C2.86865 118.674 2.8974 118.787 2.8974 118.869C2.8974 118.981 2.8411 119.036 2.75726 119.036C2.61832 119.036 2.39434 118.925 2.11646 118.701C1.47445 118.199 1.14027 117.474 1.14027 116.637C1.14027 115.326 2.03261 113.736 3.67715 112.509C5.10369 111.478 8.11487 110 12.3825 110C17.5138 110 20.7489 112.566 20.7489 115.075C20.7489 115.967 20.386 116.721 19.55 117.585Z" fill="white"/>
<defs>
<filter id="filter0_d_0_14" x="32" y="30" width="40" height="42" filterUnits="userSpaceOnUse" color-interpolation-filters="sRGB">
<feFlood flood-opacity="0" result="BackgroundImageFix"/>
<feColorMatrix in="SourceAlpha" type="matrix" values="0 0 0 0 0 0 0 0 0 0 0 0 0 0 0 0 0 0 127 0" result="hardAlpha"/>
<feOffset dy="1"/>
<feGaussianBlur stdDeviation="0.5"/>
<feComposite in2="hardAlpha" operator="out"/>
<feColorMatrix type="matrix" values="0 0 0 0 0.215365 0 0 0 0 0.158205 0 0 0 0 0.00768358 0 0 0 0.3 0"/>
<feBlend mode="normal" in2="BackgroundImageFix" result="effect1_dropShadow_0_14"/>
<feBlend mode="normal" in="SourceGraphic" in2="effect1_dropShadow_0_14" result="shape"/>
</filter>
</defs>
</svg>
