<svg width="260" height="194" viewBox="0 0 260 194" fill="none" xmlns="http://www.w3.org/2000/svg">
<g clip-path="url(#clip0_4017_35)">
<path d="M117.626 60.1496C114.919 60.1496 112.724 61.0585 111.05 62.8687C109.369 64.6865 108.536 67.0256 108.536 69.8938C108.536 72.9779 109.354 75.414 110.991 77.2019C112.672 79.0196 114.881 79.921 117.634 79.921C120.386 79.921 122.618 79.0271 124.276 77.2317C125.935 75.4363 126.761 73.045 126.761 70.0428C126.761 67.0405 125.935 64.6492 124.276 62.8613C122.595 61.0436 120.386 60.1422 117.634 60.1422L117.626 60.1496Z" fill="url(#paint0_linear_4017_35)"/>
<path d="M166.937 22.1936C164.571 21.1357 162.25 20.3237 159.982 19.7426C158.048 16.5467 155.504 13.4551 152.283 10.5423C137.346 -2.96395 120.2 -2.39778 106.602 12.807C104.876 14.7439 103.389 16.7032 102.139 18.6922C98.5164 19.5564 94.8045 21.0314 91.0555 23.2142C73.6714 33.3234 68.9107 49.8989 79.0868 67.5993C80.3811 69.8491 81.787 71.8754 83.2747 73.6856C82.9697 77.4179 83.2226 81.4258 84.1301 85.687C88.3181 105.444 102.518 115.121 122.409 110.852C124.938 110.308 127.289 109.593 129.461 108.729C132.898 110.174 136.758 111.165 141.065 111.619C161.045 113.72 174.584 103.127 176.696 82.7891C176.964 80.2041 177.016 77.7383 176.867 75.3916C179.292 72.5533 181.435 69.1637 183.19 65.1781C191.35 46.7179 185.518 30.4999 166.937 22.1936ZM129.238 81.6419C126.047 84.741 122.134 86.2979 117.5 86.2979C112.866 86.2979 109.057 84.7186 105.948 81.5525C102.846 78.4311 101.291 74.5051 101.291 69.7746C101.291 65.3197 102.875 61.5352 106.044 58.4138C109.213 55.2924 113.074 53.728 117.626 53.728C122.179 53.728 126.084 55.2999 129.275 58.4436C132.422 61.5874 133.999 65.4538 133.999 70.0279C133.999 74.602 132.414 78.5205 129.245 81.6419H129.238ZM152.662 39.4768L151.941 39.0969C150.408 38.3146 149.151 37.9273 148.162 37.9273C146.905 37.9273 146.057 38.3817 145.61 39.2905C145.171 40.1771 144.948 41.883 144.948 44.4159V54.5773H152.655V61.2224H144.948V85.404H137.837V61.2224H135.315V54.5773H137.837V42.6801C137.837 38.7989 138.506 36.0574 139.853 34.4483C141.698 32.2134 144.383 31.0959 147.909 31.0959C149.166 31.0959 150.75 31.4684 152.662 32.2059V39.4842V39.4768Z" fill="url(#paint1_linear_4017_35)"/>
</g>
<path d="M28.8135 149.42C25.5983 146.255 21.6895 144.672 17.0665 144.672C12.4856 144.672 8.57689 146.255 5.38253 149.399C2.18874 152.543 0.591553 156.362 0.591553 160.836C0.591553 165.605 2.16789 169.55 5.29858 172.695C8.42985 175.881 12.2963 177.484 16.9403 177.484C21.6264 177.484 25.556 175.923 28.7926 172.779C31.987 169.635 33.5842 165.752 33.5842 161.089C33.5842 156.489 31.9864 152.585 28.8135 149.42ZM23.7695 168.348C22.0884 170.162 19.8614 171.07 17.0659 171.07C14.2918 171.07 12.0648 170.162 10.3622 168.327C8.72277 166.512 7.90363 164.065 7.90363 160.962C7.90363 158.072 8.74419 155.708 10.4253 153.894C12.1273 152.058 14.3335 151.151 17.0659 151.151C19.84 151.151 22.067 152.058 23.7695 153.894C25.4298 155.687 26.2704 158.114 26.2704 161.132C26.2704 164.149 25.4298 166.554 23.7695 168.348ZM64.4743 149.399C61.721 146.255 58.2123 144.673 53.9672 144.673C50.374 144.673 47.1797 146.087 44.3639 148.914V145.538H37.2405V193.479H44.3639V173.117C47.2219 176.028 50.4788 177.484 54.0934 177.484C58.2754 177.484 61.7425 175.944 64.4957 172.863C67.2692 169.74 68.6562 165.879 68.6562 161.215C68.6562 156.467 67.2692 152.522 64.4743 149.399ZM58.8844 168.263C57.2664 170.142 55.2281 171.07 52.7481 171.07C50.121 171.07 48.0196 170.142 46.4016 168.284C44.7836 166.406 43.9639 164.001 43.9639 161.089C43.9639 158.114 44.783 155.708 46.4016 153.894C48.0411 152.058 50.1633 151.151 52.7898 151.151C55.2692 151.151 57.3081 152.1 58.9469 153.978C60.5441 155.856 61.3639 158.283 61.3639 161.258C61.3639 164.065 60.5227 166.386 58.8839 168.264L58.8844 168.263ZM94.7345 165.077C93.2635 167.378 91.961 168.939 90.8264 169.804C89.6495 170.648 88.1785 171.07 86.4134 171.07C84.1227 171.07 82.2529 170.331 80.7819 168.833C79.3317 167.335 78.512 165.288 78.3233 162.756H100.472L100.514 161.068C100.514 155.941 99.1909 151.932 96.5638 149.041C93.9159 146.129 90.3227 144.673 85.7836 144.673C81.2444 144.673 77.6512 146.171 74.9194 149.167C72.2084 152.206 70.8428 156.173 70.8428 161.089C70.8428 166.048 72.2506 170.015 75.0456 173.011C77.8405 175.986 81.5385 177.485 86.1622 177.485C87.7594 177.485 89.2512 177.316 90.6382 176.957C92.0044 176.619 93.2861 176.092 94.463 175.353C95.6608 174.615 96.774 173.686 97.8044 172.547C98.8343 171.408 99.8219 170.057 100.767 168.453L94.7357 165.077H94.7345ZM79.7937 154.485C80.2557 153.788 80.7813 153.198 81.4117 152.691C82.0213 152.185 82.7356 151.805 83.4923 151.552C84.2483 151.278 85.0686 151.151 85.93 151.151C89.734 151.151 92.1503 153.05 93.1379 156.89H78.7853C79.0162 155.983 79.3526 155.202 79.7943 154.485L79.7937 154.485ZM104.378 145.534H111.553V148.404C114.051 145.917 116.865 144.673 119.999 144.673C123.596 144.673 126.399 145.811 128.41 148.085C130.146 150.018 131.015 153.174 131.015 157.553V176.582H123.84V159.241C123.84 156.181 123.416 154.067 122.57 152.897C121.744 151.708 120.241 151.113 118.063 151.113C115.691 151.113 114.008 151.899 113.014 153.472C112.042 155.023 111.554 157.734 111.554 161.6V176.582H104.379V145.534H104.378ZM159.689 152.229V176.582H152.514V152.229H149.973V145.534H152.514V133.55C152.514 129.639 153.191 126.877 154.546 125.262C156.407 123.009 159.117 121.882 162.672 121.882C163.943 121.882 165.54 122.255 167.466 122.997V130.33L166.736 129.948C165.19 129.162 163.92 128.768 162.925 128.768C161.657 128.768 160.8 129.224 160.355 130.138C159.91 131.031 159.689 132.753 159.689 135.302V145.534H167.466V152.229H159.689ZM190.475 145.538V149.146C187.639 146.171 184.402 144.672 180.809 144.672C176.627 144.672 173.16 146.234 170.386 149.335C167.612 152.437 166.225 156.299 166.225 160.962C166.225 165.71 167.612 169.656 170.386 172.821C173.181 175.922 176.711 177.484 180.998 177.484C184.381 177.484 187.533 176.091 190.475 173.327V176.576H197.662V145.537H190.475V145.538ZM188.479 168.327C186.861 170.162 184.717 171.07 182.07 171.07C179.59 171.07 177.551 170.12 175.912 168.221C174.336 166.364 173.538 163.937 173.538 160.962C173.538 158.177 174.358 155.835 175.976 153.957C177.636 152.079 179.674 151.15 182.133 151.15C184.738 151.15 186.861 152.079 188.479 153.914C190.119 155.813 190.938 158.219 190.938 161.131C190.938 164.043 190.119 166.428 188.479 168.327ZM206.616 145.534L214.615 162.971L222.583 145.534H230.614L214.551 178.719L198.615 145.534H206.616H206.616ZM253.959 165.077C252.488 167.378 251.186 168.939 250.05 169.804C248.895 170.648 247.423 171.07 245.637 171.07C243.347 171.07 241.477 170.331 240.027 168.833C238.556 167.335 237.736 165.288 237.547 162.756H259.695L259.738 161.068C259.738 155.941 258.414 151.932 255.787 149.041C253.139 146.129 249.546 144.673 245.007 144.673C240.468 144.673 236.875 146.171 234.143 149.167C231.432 152.206 230.087 156.173 230.087 161.089C230.087 166.048 231.474 170.015 234.269 173.011C237.063 175.986 240.762 177.485 245.386 177.485C246.983 177.485 248.475 177.316 249.862 176.957C251.227 176.619 252.51 176.092 253.707 175.353C254.884 174.615 255.997 173.686 257.027 172.547C258.078 171.408 259.045 170.057 259.991 168.453L253.959 165.077ZM239.039 154.485C239.481 153.788 240.006 153.198 240.636 152.691C241.267 152.185 241.96 151.805 242.717 151.552C243.473 151.278 244.293 151.151 245.155 151.151C248.979 151.151 251.375 153.05 252.363 156.89H238.01C238.241 155.983 238.599 155.202 239.04 154.485L239.039 154.485Z" fill="url(#paint2_linear_4017_35)"/>
<defs>
<linearGradient id="paint0_linear_4017_35" x1="80.7103" y1="91.6886" x2="168.964" y2="15.5774" gradientUnits="userSpaceOnUse">
<stop stop-color="#EC9DBC"/>
<stop offset="0.04" stop-color="#D897BB"/>
<stop offset="0.1" stop-color="#BD8FBA"/>
<stop offset="0.17" stop-color="#A888B9"/>
<stop offset="0.25" stop-color="#9984B9"/>
<stop offset="0.34" stop-color="#9081B9"/>
<stop offset="0.48" stop-color="#8E81B9"/>
</linearGradient>
<linearGradient id="paint1_linear_4017_35" x1="93.3838" y1="96.1389" x2="166.293" y2="28.656" gradientUnits="userSpaceOnUse">
<stop stop-color="#EC9DBC"/>
<stop offset="0.48" stop-color="#8E81B9"/>
<stop offset="1" stop-color="#7ECAF0"/>
</linearGradient>
<linearGradient id="paint2_linear_4017_35" x1="62.4215" y1="230.054" x2="200.019" y2="93.0219" gradientUnits="userSpaceOnUse">
<stop stop-color="#EC9DBC"/>
<stop offset="0.483" stop-color="#8E81B9"/>
<stop offset="1" stop-color="#7ECAF0"/>
</linearGradient>
<clipPath id="clip0_4017_35">
<rect width="113" height="111" fill="white" transform="translate(73.791 0.881836)"/>
</clipPath>
</defs>
</svg>
