<svg width="50" height="50" viewBox="0 0 50 50" fill="none" xmlns="http://www.w3.org/2000/svg">
<g filter="url(#filter0_d_190_13)">
<path d="M25 10L35.6066 14.3934L40 25L35.6066 35.6066L25 40L14.3934 35.6066L10 25L14.3934 14.3934L25 10Z" fill="url(#paint0_radial_190_13)" fill-opacity="0.4" shape-rendering="crispEdges"/>
</g>
<path d="M25 13L33.4853 16.5147L37 25L33.4853 33.4853L25 37L16.5147 33.4853L13 25L16.5147 16.5147L25 13Z" fill="#0321BE"/>
<path opacity="0.7" d="M25 16L31.364 18.636L34 25L31.364 31.364L25 34L18.636 31.364L16 25L18.636 18.636L25 16Z" fill="#405EFF"/>
<defs>
<filter id="filter0_d_190_13" x="0" y="0" width="50" height="50" filterUnits="userSpaceOnUse" color-interpolation-filters="sRGB">
<feFlood flood-opacity="0" result="BackgroundImageFix"/>
<feColorMatrix in="SourceAlpha" type="matrix" values="0 0 0 0 0 0 0 0 0 0 0 0 0 0 0 0 0 0 127 0" result="hardAlpha"/>
<feOffset/>
<feGaussianBlur stdDeviation="5"/>
<feComposite in2="hardAlpha" operator="out"/>
<feColorMatrix type="matrix" values="0 0 0 0 0.53766 0 0 0 0 0.810165 0 0 0 0 0.926953 0 0 0 0.2 0"/>
<feBlend mode="normal" in2="BackgroundImageFix" result="effect1_dropShadow_190_13"/>
<feBlend mode="normal" in="SourceGraphic" in2="effect1_dropShadow_190_13" result="shape"/>
</filter>
<radialGradient id="paint0_radial_190_13" cx="0" cy="0" r="1" gradientUnits="userSpaceOnUse" gradientTransform="translate(24.9555 25.021) rotate(90) scale(17.4692 37.8074)">
<stop stop-color="#07155B"/>
<stop offset="1" stop-color="#1938E0"/>
</radialGradient>
</defs>
</svg>
