<svg width="99" height="80" viewBox="0 0 99 80" fill="none" xmlns="http://www.w3.org/2000/svg">
<path d="M39.5168 79.0336C61.3413 79.0336 79.0336 61.3413 79.0336 39.5168C79.0336 17.6923 61.3413 0 39.5168 0C17.6923 0 0 17.6923 0 39.5168C0 61.3413 17.6923 79.0336 39.5168 79.0336Z" fill="url(#paint0_linear_2_17)"/>
<path d="M39.5167 71.5462C57.2061 71.5462 71.5461 57.2062 71.5461 39.5168C71.5461 21.8275 57.2061 7.48743 39.5167 7.48743C21.8274 7.48743 7.4873 21.8275 7.4873 39.5168C7.4873 57.2062 21.8274 71.5462 39.5167 71.5462Z" fill="white"/>
<path d="M99.0002 29.1177H59.0674V51.5799H99.0002V29.1177Z" fill="white"/>
<path d="M41.4513 43.5529L48.0226 41.7581C48.0226 41.7581 53.1119 38.0659 54.7807 36.9498C55.1191 36.7233 55.5604 36.7214 55.9008 36.9451L55.9746 36.9938C56.5642 37.3813 56.5878 38.2375 56.0201 38.6568L49.0825 43.5093L41.4509 43.5533L41.4513 43.5529Z" fill="black" stroke="white" stroke-width="1.17772" stroke-miterlimit="10"/>
<path d="M42.9333 44.0366L51.4078 41.722C51.4078 41.722 57.9709 36.9608 60.1229 35.5213C60.5595 35.2292 61.1283 35.2268 61.5672 35.515L61.6626 35.5774C62.423 36.0768 62.4536 37.1811 61.7215 37.7216L52.7752 43.9796L42.9337 44.0362L42.9333 44.0366Z" fill="black" stroke="white" stroke-width="1.17772" stroke-miterlimit="10"/>
<path d="M44.8051 44.9081L54.4161 42.283C54.4161 42.283 61.8596 36.8831 64.3003 35.2504C64.7953 34.9191 65.4407 34.9163 65.9385 35.2434L66.0464 35.3144C66.9089 35.8809 66.9435 37.1336 66.1132 37.7464L55.9663 44.8437L44.8047 44.9081H44.8051Z" fill="black" stroke="white" stroke-width="1.17772" stroke-miterlimit="10"/>
<path d="M18.4316 47.1552L29.7644 36.4521C30.1444 36.0933 30.6473 35.8931 31.1702 35.8931H42.8669C44.0018 35.8931 44.9299 36.8215 44.9299 37.956C44.9299 39.0592 44.045 39.9578 42.9423 39.9754L37.9401 40.0539C36.8358 40.0712 35.9455 40.9639 35.9309 42.0682L35.9207 42.8471C35.9058 43.9887 36.8272 44.9222 37.9688 44.9222H55.4398C55.8399 44.9222 56.2313 44.8053 56.5654 44.5854L68.2644 36.891C69.13 36.3218 70.2846 36.4886 70.9532 37.28L71.3579 37.7594C72.092 38.6277 71.9774 39.9279 71.1031 40.655L55.4402 53.6774C55.1364 53.9298 54.7662 54.0892 54.374 54.1359L30.1 57.0331C29.6725 57.0842 29.2721 57.2687 28.9553 57.5603L24.3222 61.8296C23.4122 62.6681 21.9718 62.5142 21.2597 61.5022L14.374 51.7196C13.6245 50.655 14.0458 49.1707 15.2423 48.658L17.8325 47.549C18.0539 47.4539 18.2573 47.3209 18.4324 47.1552H18.4316Z" fill="black" stroke="white" stroke-width="0.863661" stroke-miterlimit="10"/>
<path d="M38.4274 28.8548C41.9772 28.8548 44.8548 25.9772 44.8548 22.4274C44.8548 18.8776 41.9772 16 38.4274 16C34.8776 16 32 18.8776 32 22.4274C32 25.9772 34.8776 28.8548 38.4274 28.8548Z" fill="#F8176D"/>
<defs>
<linearGradient id="paint0_linear_2_17" x1="-9.80932e-08" y1="10" x2="39.5168" y2="79.0336" gradientUnits="userSpaceOnUse">
<stop stop-color="#FE6846"/>
<stop offset="1" stop-color="#8536DA"/>
</linearGradient>
</defs>
</svg>
