<?xml version="1.0" encoding="UTF-8"?><svg id="b" xmlns="http://www.w3.org/2000/svg" xmlns:xlink="http://www.w3.org/1999/xlink" viewBox="0 0 133 133"><defs><clipPath id="d"><rect width="133" height="133" style="fill:none; stroke-width:0px;"/></clipPath><linearGradient id="e" x1="319.53" y1="-1707.933" x2="379.072" y2="-1811.064" gradientTransform="translate(-286 -1695.617) scale(1 -1)" gradientUnits="userSpaceOnUse"><stop offset="0" stop-color="#ff7fff"/><stop offset="1" stop-color="#00a6ff"/></linearGradient><linearGradient id="f" x1="319.476" y1="-1707.849" x2="379.236" y2="-1811.356" xlink:href="#e"/><linearGradient id="g" x1="319.417" y1="-1707.761" x2="379.4" y2="-1811.654" xlink:href="#e"/><linearGradient id="h" x1="319.354" y1="-1707.669" x2="379.567" y2="-1811.958" xlink:href="#e"/><linearGradient id="i" x1="319.287" y1="-1707.566" x2="379.736" y2="-1812.266" xlink:href="#e"/><linearGradient id="j" x1="319.227" y1="-1707.472" x2="379.911" y2="-1812.578" xlink:href="#e"/><linearGradient id="k" x1="319.17" y1="-1707.362" x2="380.101" y2="-1812.892" xlink:href="#e"/><linearGradient id="l" x1="319.169" y1="-1707.203" x2="380.352" y2="-1813.174" xlink:href="#e"/><linearGradient id="m" x1="319.166" y1="-1707.051" x2="380.609" y2="-1813.471" xlink:href="#e"/><linearGradient id="n" x1="319.165" y1="-1706.9" x2="380.869" y2="-1813.773" xlink:href="#e"/><linearGradient id="o" x1="319.162" y1="-1706.737" x2="381.142" y2="-1814.097" xlink:href="#e"/><linearGradient id="p" x1="319.153" y1="-1706.565" x2="381.427" y2="-1814.432" xlink:href="#e"/><linearGradient id="q" x1="319.141" y1="-1706.399" x2="381.725" y2="-1814.791" xlink:href="#e"/><linearGradient id="r" x1="319.137" y1="-1706.222" x2="382.04" y2="-1815.173" xlink:href="#e"/><linearGradient id="s" x1="319.138" y1="-1706.046" x2="382.373" y2="-1815.571" xlink:href="#e"/><linearGradient id="t" x1="319.124" y1="-1705.854" x2="382.721" y2="-1816.009" xlink:href="#e"/><linearGradient id="u" x1="319.141" y1="-1705.658" x2="383.123" y2="-1816.476" xlink:href="#e"/><linearGradient id="v" x1="319.154" y1="-1705.448" x2="383.556" y2="-1816.996" xlink:href="#e"/><linearGradient id="w" x1="319.173" y1="-1705.233" x2="384.041" y2="-1817.586" xlink:href="#e"/><linearGradient id="x" x1="319.19" y1="-1705.011" x2="384.557" y2="-1818.229" xlink:href="#e"/><linearGradient id="y" x1="319.223" y1="-1704.774" x2="385.131" y2="-1818.932" xlink:href="#e"/><linearGradient id="z" x1="319.257" y1="-1704.539" x2="385.744" y2="-1819.696" xlink:href="#e"/></defs><g id="c"><g style="clip-path:url(#d);"><path d="M26.802,63.709h-2.812v-4.238h2.812v-1.595c0-2.476.63-4.322,1.804-5.497,1.175-1.175,2.812-1.763,4.994-1.763,1.763,0,2.979.252,4.112.588v4.28c-1.007-.336-1.888-.546-2.979-.546-1.93,0-2.937,1.049-2.937,3.357v1.217h5.875v4.196h-5.791v17.793h-5.078v-17.793ZM41.741,50.868h5.078v30.633h-5.078v-30.633Z" style="fill:#fff; stroke-width:0px;"/><path d="M51.435,51.12h5.455v4.826h-5.455v-4.826ZM51.645,59.345h5.078v22.157h-5.078v-22.157Z" style="fill:#fff; stroke-width:0px;"/><path d="M85.216,79.236c-2.476,1.763-5.497,2.77-8.938,2.77-9.022,0-15.317-6.84-15.317-15.107v-.084c0-8.267,6.379-15.191,15.401-15.191s15.317,6.84,15.317,15.107v.084c0,3.315-1.049,6.462-2.979,9.022l3.357,2.854-3.315,3.693-3.525-3.147ZM81.397,75.837l-5.036-4.28,3.315-3.777,5.078,4.616c1.007-1.553,1.511-3.441,1.511-5.497v-.084c0-5.707-4.154-10.449-9.987-10.449s-9.904,4.658-9.904,10.365v.084c0,5.707,4.155,10.449,9.987,10.449,1.93,0,3.651-.546,5.036-1.427Z" style="fill:#fff; stroke-width:0px;"/><path d="M97.973,75.375v-11.666h-2.812v-4.364h2.812v-6.085h5.077v6.085h5.959v4.364h-5.959v10.869c0,1.972,1.008,2.77,2.728,2.77,1.133,0,2.14-.252,3.147-.755v4.154c-1.259.713-2.685,1.133-4.574,1.133-3.734,0-6.378-1.637-6.378-6.504Z" style="fill:#fff; stroke-width:0px;"/><path d="M64.587,129.37c-1.595,0-3.328-.201-5.216-.608-7.239-1.549-10.034-6.866-12.283-11.142-.76-1.447-1.481-2.811-2.274-3.827-4.033-5.128-8.729-3.164-12.875-1.427-1.943.815-3.823,1.599-5.497,1.599-1.041,0-2.002-.302-2.854-1.091-7.616-7.054-13.441-15.963-16.844-25.757-1.729-4.977-2.828-10.151-3.269-15.384-.453-5.397-.201-10.856.747-16.232C10.277,21.196,43.109-1.796,77.423,4.255c11.666,2.056,22.476,7.327,31.251,15.241,1.842,1.662,2.14,4.608,2.459,7.73.226,2.224.461,4.524,1.233,6.655,1.515,4.188,3.76,5.56,5.93,6.886,1.779,1.091,3.462,2.119,4.427,4.658,1.032,2.707.311,4.406-.6,6.555-.877,2.065-1.968,4.637-1.75,8.997.21,4.196,2.61,6.916,4.729,9.312,2.3,2.602,4.474,5.061,3.362,8.859-1.234,4.209-5.464,4.905-11.314,5.867-6.315,1.041-14.175,2.333-22.257,8.456-7.327,5.552-10.747,13.278-13.76,20.092-2.161,4.889-4.205,9.505-7.373,12.426-2.459,2.266-5.439,3.378-9.165,3.378l-.008.004ZM38.687,110.31c2.153,0,4.289.844,6.273,3.37.806,1.028,1.532,2.4,2.296,3.856,2.228,4.239,5.006,9.514,12.157,11.045,6.236,1.335,10.751.466,14.213-2.727,3.139-2.896,5.174-7.495,7.331-12.363,3.026-6.836,6.45-14.586,13.819-20.168,8.116-6.152,16.005-7.449,22.342-8.493,5.782-.953,9.962-1.641,11.162-5.737,1.083-3.697-.957-6.009-3.319-8.682-2.14-2.421-4.566-5.166-4.78-9.429-.218-4.402.881-6.995,1.767-9.081.898-2.111,1.603-3.781.6-6.416-.944-2.48-2.602-3.491-4.352-4.561-2.094-1.28-4.469-2.736-6.005-6.983-.78-2.157-1.015-4.465-1.242-6.702-.315-3.084-.613-5.997-2.4-7.608-8.75-7.889-19.526-13.143-31.158-15.195C43.181-1.595,10.445,21.33,4.41,55.539c-3.731,21.158,3.487,42.543,19.308,57.205,2.132,1.977,5.052.751,8.149-.545,2.178-.911,4.507-1.889,6.819-1.889Z" style="fill:none; stroke:url(#e); stroke-linejoin:round;"/><path d="M64.83,129.525c-1.574,0-3.277-.193-5.12-.57-7.159-1.477-10.101-6.597-12.463-10.709-.802-1.394-1.557-2.707-2.379-3.702-4.054-4.884-8.687-3.143-12.77-1.607-3.151,1.184-6.127,2.304-8.376.239-7.629-7.008-13.487-15.866-16.945-25.618-1.758-4.956-2.887-10.113-3.361-15.334-.487-5.38-.277-10.831.625-16.198C9.799,21.611,42.488-1.695,76.903,4.062c11.834,1.96,22.807,7.218,31.729,15.203,1.922,1.721,2.329,4.708,2.757,7.872.293,2.161.596,4.398,1.38,6.488,1.536,4.091,3.735,5.552,5.858,6.966,1.775,1.183,3.45,2.296,4.428,4.88,1.044,2.77.365,4.553-.5,6.806-.801,2.094-1.8,4.704-1.594,8.955.197,4.117,2.45,6.848,4.435,9.261,2.186,2.652,4.251,5.157,3.139,8.942-1.28,4.356-5.548,5.212-11.456,6.395-6.072,1.217-13.626,2.732-21.376,8.64-7.1,5.422-10.625,12.833-13.739,19.371-2.3,4.83-4.469,9.391-7.734,12.291-2.556,2.274-5.611,3.386-9.404,3.386l.004.004ZM38.573,111.129c2.195,0,4.385.814,6.441,3.29.835,1.007,1.595,2.328,2.4,3.73,2.342,4.079,5.258,9.157,12.333,10.613,6.227,1.284,10.789.403,14.356-2.77,3.231-2.874,5.397-7.419,7.684-12.228,3.122-6.559,6.66-13.995,13.798-19.446,7.784-5.934,15.363-7.453,21.456-8.674,5.842-1.171,10.059-2.014,11.305-6.257,1.083-3.689-.856-6.038-3.101-8.762-2.006-2.434-4.28-5.195-4.482-9.379-.205-4.293.802-6.924,1.608-9.035.847-2.216,1.519-3.97.499-6.668-.953-2.526-2.606-3.626-4.352-4.788-2.052-1.364-4.372-2.912-5.933-7.062-.794-2.107-1.096-4.356-1.394-6.53-.423-3.126-.822-6.08-2.694-7.751-8.892-7.961-19.832-13.202-31.628-15.157C42.56-1.49,9.975,21.75,4.23,56.06c-3.55,21.124,3.785,42.421,19.622,56.97,2.161,1.984,5.082.885,8.174-.277,2.09-.785,4.318-1.624,6.546-1.624Z" style="fill:none; stroke:url(#f); stroke-linejoin:round;"/><path d="M65.073,129.681c-1.553,0-3.219-.181-5.023-.538-7.088-1.405-10.172-6.328-12.652-10.281-.839-1.338-1.628-2.597-2.48-3.571-4.07-4.645-8.632-3.122-12.656-1.783-3.151,1.049-6.127,2.043-8.414-.034-7.642-6.962-13.537-15.77-17.046-25.48-1.783-4.935-2.946-10.076-3.454-15.279-.525-5.363-.357-10.801.499-16.169C8.787,25.375,35.804,3.08,66.416,3.08c3.286,0,6.618.256,9.966.789,12.002,1.863,23.139,7.109,32.208,15.166,2.006,1.779,2.522,4.813,3.063,8.019.357,2.102.722,4.272,1.519,6.311,1.557,3.991,3.705,5.539,5.787,7.037,1.771,1.276,3.445,2.48,4.431,5.115,1.062,2.833.42,4.704-.394,7.071-.764,2.232-1.633,4.759-1.444,8.905.189,4.041,2.291,6.781,4.146,9.203,2.069,2.703,4.025,5.254,2.917,9.035-1.326,4.515-5.636,5.535-11.603,6.953-5.825,1.381-13.072,3.105-20.487,8.791-6.865,5.283-10.491,12.379-13.693,18.644-2.438,4.772-4.742,9.279-8.103,12.162-2.66,2.278-5.795,3.394-9.66,3.394l.004.005ZM38.443,111.943c2.241,0,4.499.78,6.63,3.214.86.982,1.658,2.253,2.501,3.596,2.459,3.92,5.514,8.8,12.518,10.189,6.223,1.23,10.835.336,14.507-2.812,3.328-2.853,5.623-7.343,8.053-12.098,3.21-6.282,6.848-13.399,13.752-18.711,7.449-5.715,14.721-7.444,20.563-8.829,5.9-1.402,10.159-2.413,11.452-6.811,1.078-3.68-.756-6.076-2.883-8.85-1.872-2.446-3.995-5.216-4.188-9.32-.193-4.184.721-6.844,1.452-8.98.797-2.329,1.431-4.167.394-6.932-.965-2.577-2.614-3.764-4.36-5.019-2.006-1.444-4.28-3.084-5.858-7.13-.802-2.06-1.171-4.243-1.532-6.353-.537-3.172-1.045-6.169-2.996-7.902-9.035-8.032-20.138-13.261-32.102-15.115-3.336-.529-6.66-.785-9.933-.785-30.512-.008-57.436,22.211-62.367,53.29-3.374,21.087,4.079,42.299,19.937,56.739,2.195,1.998,5.115,1.024,8.208-.008,1.993-.663,4.117-1.372,6.248-1.372h.004Z" style="fill:none; stroke:url(#g); stroke-linejoin:round;"/><path d="M65.308,129.84c-1.527,0-3.164-.168-4.918-.499-7.025-1.339-10.252-6.064-12.845-9.866-.873-1.275-1.695-2.484-2.572-3.432-4.075-4.407-8.569-3.106-12.539-1.956-3.156.915-6.139,1.779-8.46-.315-7.658-6.915-13.588-15.677-17.146-25.337-1.809-4.914-3.005-10.034-3.55-15.225-.562-5.346-.436-10.776.378-16.135C8.838,22.442,41.234-1.51,75.862,3.676c12.17,1.767,23.47,7,32.681,15.128,2.094,1.842,2.72,4.922,3.383,8.179.415,2.035.839,4.142,1.645,6.131,1.569,3.89,3.676,5.522,5.707,7.1,1.771,1.376,3.441,2.673,4.44,5.359,1.078,2.904.478,4.868-.286,7.352-.688,2.253-1.469,4.809-1.292,8.838.176,3.957,2.131,6.714,3.852,9.144,1.956,2.753,3.798,5.355,2.69,9.127-1.377,4.679-5.728,5.879-11.758,7.541-5.573,1.536-12.514,3.449-19.589,8.917-6.622,5.14-10.336,11.922-13.613,17.901-2.585,4.717-5.027,9.174-8.489,12.04-2.77,2.291-5.992,3.407-9.933,3.407h.008ZM38.288,112.753c2.3,0,4.629.747,6.84,3.143.885.957,1.716,2.169,2.593,3.458,2.572,3.768,5.774,8.455,12.707,9.773,1.742.331,3.361.495,4.876.495,3.894,0,7.075-1.104,9.803-3.361,3.429-2.837,5.862-7.277,8.439-11.977,3.286-6,7.012-12.799,13.672-17.968,7.109-5.497,14.071-7.415,19.66-8.955,5.959-1.641,10.269-2.828,11.608-7.394,1.078-3.672-.655-6.114-2.661-8.942-1.741-2.455-3.714-5.237-3.894-9.257-.181-4.066.608-6.643,1.301-8.913.747-2.446,1.338-4.377.285-7.214-.973-2.627-2.623-3.907-4.368-5.262-1.96-1.523-4.184-3.248-5.774-7.188-.81-2.006-1.243-4.121-1.658-6.169-.655-3.223-1.272-6.265-3.315-8.061-9.182-8.103-20.445-13.319-32.573-15.078C41.318-1.28,9.035,22.594,3.865,57.104c-3.193,21.053,4.377,42.174,20.252,56.508,2.233,2.01,5.157,1.162,8.254.264,1.884-.545,3.89-1.124,5.913-1.124h.004Z" style="fill:none; stroke:url(#h); stroke-linejoin:round;"/><path d="M65.539,129.995c-1.502,0-3.101-.155-4.813-.465-6.962-1.268-10.34-5.808-13.051-9.455-.902-1.217-1.758-2.362-2.656-3.281-4.07-4.172-8.498-3.085-12.409-2.128-3.168.776-6.16,1.511-8.514-.592-7.671-6.865-13.634-15.581-17.247-25.199-1.838-4.889-3.063-9.996-3.642-15.17-.6-5.334-.512-10.751.256-16.106,1.196-8.489,4.029-16.496,8.414-23.798,4.234-7.05,9.731-13.147,16.337-18.12,6.605-4.973,13.986-8.569,21.935-10.688,8.229-2.195,16.706-2.702,25.199-1.502,12.337,1.67,23.806,6.886,33.16,15.094,2.186,1.909,2.929,5.04,3.714,8.351.465,1.968.948,4.003,1.758,5.934,1.582,3.785,3.638,5.497,5.623,7.151,1.771,1.477,3.445,2.87,4.452,5.615,1.096,2.975.537,5.036-.172,7.646-.617,2.27-1.313,4.843-1.145,8.758.163,3.878,1.892,6.517,3.562,9.073,1.838,2.807,3.571,5.459,2.468,9.228-.659,2.237-2.01,3.89-4.259,5.199-2.048,1.192-4.65,2.014-7.663,2.963-5.321,1.678-11.943,3.764-18.678,9.01-6.374,4.994-10.159,11.452-13.504,17.151-2.736,4.666-5.321,9.077-8.892,11.926-2.887,2.304-6.206,3.428-10.231,3.428v-.021ZM38.095,113.554c2.367,0,4.78.713,7.088,3.08.906.932,1.767,2.086,2.673,3.307,2.69,3.617,6.034,8.116,12.908,9.37,1.75.319,3.353.466,4.822.466,9.941,0,13.957-6.853,18.88-15.245,3.353-5.716,7.151-12.195,13.558-17.214,6.765-5.271,13.412-7.365,18.75-9.043,6.026-1.901,10.381-3.273,11.775-8.011,1.078-3.668-.55-6.16-2.438-9.043-1.612-2.459-3.433-5.25-3.601-9.186-.168-3.949.537-6.538,1.154-8.825.697-2.568,1.246-4.599.176-7.507-.986-2.686-2.639-4.062-4.385-5.518-1.913-1.595-4.083-3.403-5.686-7.239-.814-1.951-1.301-3.995-1.767-5.971-.776-3.273-1.51-6.37-3.642-8.233-9.325-8.175-20.751-13.378-33.043-15.04-16.743-2.363-33.42,1.956-46.966,12.149C14.805,26.051,6.043,40.885,3.684,57.629c-3.013,21.016,4.675,42.052,20.562,56.277,2.27,2.023,5.204,1.306,8.313.542,1.767-.432,3.634-.89,5.535-.89v-.004Z" style="fill:none; stroke:url(#i); stroke-linejoin:round;"/><path d="M65.761,130.155c-1.473,0-3.034-.147-4.7-.433-3.08-.532-5.741-1.724-8.141-3.634-2.09-1.666-3.701-3.659-5.128-5.421-.932-1.15-1.809-2.237-2.723-3.127-4.058-3.936-8.418-3.063-12.266-2.291-3.181.638-6.186,1.242-8.582-.877C8.258,100.201.424,79.173,3.269,58.12,7.881,23.277,39.983-1.318,74.821,3.29c12.505,1.574,24.138,6.777,33.639,15.057,2.287,1.981,3.147,5.162,4.057,8.531.512,1.897,1.045,3.857,1.855,5.728,1.591,3.676,3.597,5.464,5.531,7.188,1.775,1.582,3.454,3.08,4.473,5.879,1.113,3.055.601,5.22-.054,7.956-.541,2.279-1.158,4.864-1.007,8.657.155,3.789,1.741,6.437,3.277,8.997,1.721,2.866,3.345,5.573,2.237,9.337-.684,2.325-2.065,4.071-4.348,5.497-2.081,1.301-4.708,2.237-7.755,3.319-5.065,1.804-11.368,4.045-17.754,9.06-6.114,4.834-9.958,10.965-13.349,16.379-2.896,4.62-5.632,8.988-9.316,11.821-3.013,2.32-6.437,3.453-10.554,3.453l.008.005ZM37.851,114.347c2.451,0,4.964.676,7.382,3.021.927.898,1.809,1.989,2.744,3.148,2.954,3.65,6.299,7.788,13.126,8.971,1.645.286,3.168.42,4.578.42,10.256,0,14.7-7.092,19.752-15.153,3.399-5.43,7.256-11.582,13.403-16.437,6.421-5.036,12.741-7.289,17.822-9.098,6.102-2.17,10.508-3.739,11.96-8.666,1.078-3.668-.449-6.206-2.216-9.148-1.477-2.463-3.155-5.258-3.311-9.106-.151-3.823.466-6.425,1.012-8.72.642-2.698,1.15-4.834.058-7.822-.998-2.749-2.656-4.222-4.41-5.787-1.863-1.662-3.978-3.546-5.59-7.272-.818-1.888-1.351-3.857-1.867-5.757-.902-3.332-1.754-6.479-3.986-8.418-9.467-8.246-21.058-13.437-33.517-15.002C40.075-1.074,8.095,23.432,3.5,58.149c-2.833,20.978,4.969,41.93,20.877,56.043,2.308,2.039,5.258,1.452,8.38.822,1.628-.327,3.344-.671,5.094-.671v.004Z" style="fill:none; stroke:url(#j); stroke-linejoin:round;"/><path d="M65.984,130.31c-1.444,0-2.963-.134-4.578-.399-6.87-1.133-10.39-5.136-13.5-8.669-.948-1.079-1.846-2.103-2.778-2.955-4.033-3.709-8.33-3.042-12.115-2.45-3.198.499-6.223.969-8.661-1.167C8.363,100.608.411,79.664,3.08,58.644,7.402,23.693,39.358-1.221,74.305,3.097c12.673,1.473,24.469,6.668,34.117,15.019,2.388,2.056,3.378,5.3,4.423,8.729.554,1.817,1.129,3.697,1.934,5.501,1.595,3.567,3.546,5.418,5.435,7.209,1.783,1.695,3.47,3.298,4.507,6.164,1.133,3.143.663,5.413.067,8.292-.47,2.283-1.007,4.872-.869,8.531.143,3.701,1.59,6.349,2.992,8.909,1.603,2.925,3.114,5.69,2.006,9.454-.709,2.413-2.123,4.264-4.444,5.82-2.115,1.414-4.776,2.476-7.856,3.701-4.805,1.914-10.78,4.293-16.819,9.068-5.845,4.662-9.727,10.466-13.151,15.59-3.063,4.582-5.955,8.908-9.761,11.733-3.152,2.341-6.689,3.483-10.906,3.483l.004.008ZM37.541,115.132c2.556,0,5.195.633,7.751,2.979.94.865,1.842,1.888,2.795,2.975,3.08,3.5,6.571,7.47,13.357,8.59,1.599.26,3.08.386,4.465.386,10.449,0,15.17-7.066,20.541-15.098,3.433-5.137,7.327-10.957,13.201-15.644,6.068-4.801,12.061-7.188,16.878-9.106,6.181-2.463,10.646-4.238,12.157-9.366,1.079-3.668-.344-6.265-1.989-9.27-1.347-2.463-2.879-5.258-3.021-9.018-.139-3.693.398-6.294.872-8.59.588-2.841,1.05-5.082-.058-8.162-1.016-2.816-2.682-4.398-4.444-6.072-1.813-1.725-3.873-3.68-5.489-7.289-.814-1.821-1.389-3.705-1.947-5.531-1.037-3.395-2.014-6.605-4.352-8.615-9.61-8.321-21.364-13.496-33.986-14.96C39.454-.97,7.625,23.856,3.319,58.674c-2.656,20.94,5.266,41.804,21.192,55.811,2.354,2.061,5.321,1.599,8.464,1.112,1.46-.226,3-.465,4.566-.465Z" style="fill:none; stroke:url(#k); stroke-linejoin:round;"/><path d="M66.185,130.47c-1.406,0-2.887-.122-4.444-.365-6.836-1.066-10.512-4.906-13.752-8.297-.961-1.007-1.872-1.955-2.807-2.769-4.003-3.483-8.044-3.038-11.951-2.606-3.223.356-6.265.692-8.749-1.465-7.713-6.722-13.781-15.296-17.549-24.784-1.918-4.826-3.24-9.878-3.928-15.006-.709-5.287-.747-10.671-.118-16.009.986-8.569,3.626-16.693,7.851-24.146,4.079-7.201,9.45-13.47,15.963-18.64,6.517-5.17,13.844-8.976,21.783-11.313,8.221-2.417,16.731-3.143,25.3-2.157,12.841,1.376,24.801,6.559,34.595,14.981,2.501,2.14,3.621,5.447,4.805,8.947.587,1.733,1.196,3.529,1.997,5.258,1.595,3.45,3.492,5.363,5.325,7.214,1.796,1.813,3.492,3.525,4.545,6.471,1.158,3.235.734,5.627.197,8.653-.403,2.274-.86,4.855-.734,8.384.13,3.613,1.443,6.257,2.711,8.812,1.481,2.992,2.883,5.816,1.775,9.58-1.603,5.443-6.408,7.562-12.489,10.243-4.779,2.111-10.201,4.503-15.887,9.06-5.59,4.482-9.492,9.962-12.938,14.796-3.231,4.541-6.286,8.825-10.214,11.645-3.298,2.367-6.953,3.517-11.28,3.517l-.008-.004ZM37.117,115.896c2.69,0,5.501.579,8.225,2.95.944.822,1.859,1.775,2.824,2.786,3.214,3.357,6.857,7.167,13.609,8.221,1.544.239,2.988.352,4.335.352,10.646,0,15.657-7.037,21.36-15.048,3.454-4.847,7.365-10.344,12.984-14.847,5.711-4.578,11.15-6.974,15.946-9.093,6.257-2.761,10.776-4.755,12.346-10.084,1.082-3.672-.235-6.328-1.758-9.4-1.222-2.459-2.602-5.25-2.736-8.913-.126-3.554.331-6.148.738-8.435.529-2.992.948-5.355-.185-8.527-1.032-2.891-2.71-4.583-4.485-6.379-1.763-1.779-3.76-3.798-5.372-7.285-.806-1.746-1.414-3.542-2.006-5.283-1.175-3.466-2.283-6.744-4.733-8.837-9.757-8.393-21.67-13.55-34.457-14.922C38.837-.864,7.155,24.276,3.135,59.194c-2.476,20.902,5.564,41.683,21.506,55.581,2.4,2.082,5.392,1.754,8.556,1.402,1.259-.139,2.572-.286,3.919-.286v.005Z" style="fill:none; stroke:url(#l); stroke-linejoin:round;"/><path d="M66.391,130.625c-1.372,0-2.803-.109-4.31-.332-6.819-1.002-10.655-4.687-14.037-7.935-.965-.927-1.876-1.804-2.812-2.572-3.961-3.265-7.935-3.005-11.775-2.757-3.252.21-6.324.411-8.854-1.767-7.726-6.676-13.831-15.199-17.65-24.645-1.943-4.805-3.294-9.836-4.02-14.956-.747-5.271-.827-10.646-.239-15.976.915-8.594,3.496-16.756,7.663-24.263,4.024-7.247,9.354-13.579,15.841-18.817,6.488-5.237,13.798-9.11,21.733-11.519,8.216-2.493,16.739-3.294,25.334-2.375,13.005,1.28,25.132,6.446,35.073,14.943,2.623,2.228,3.882,5.611,5.216,9.19.613,1.641,1.246,3.34,2.031,4.99,1.586,3.323,3.424,5.287,5.199,7.193,1.813,1.939,3.525,3.772,4.6,6.798,1.183,3.336.805,5.858.327,9.052-.34,2.258-.722,4.822-.609,8.2.122,3.517,1.297,6.152,2.43,8.703,1.364,3.059,2.652,5.951,1.54,9.727-1.67,5.674-6.55,8.044-12.723,11.045-4.495,2.186-9.585,4.662-14.91,8.968-5.296,4.284-9.022,9.198-12.623,13.953-3.416,4.511-6.647,8.77-10.718,11.59-3.466,2.401-7.256,3.567-11.708,3.567v-.004ZM36.5,116.643c2.879,0,5.934.503,8.901,2.946.944.776,1.859,1.653,2.824,2.584,3.353,3.223,7.155,6.878,13.894,7.869,1.49.218,2.891.319,4.205.319,10.885,0,16.215-7.038,22.283-15.049,3.609-4.767,7.344-9.693,12.664-13.999,5.346-4.322,10.453-6.806,14.96-8.997,6.119-2.975,10.949-5.325,12.589-10.885,1.083-3.685-.125-6.399-1.527-9.547-1.146-2.572-2.329-5.233-2.455-8.8-.113-3.403.273-5.976.613-8.246.474-3.156.847-5.648-.315-8.926-1.053-2.975-2.749-4.788-4.54-6.706-1.792-1.918-3.643-3.898-5.246-7.256-.793-1.658-1.427-3.361-2.039-5.01-1.322-3.55-2.569-6.899-5.141-9.085-9.899-8.464-21.976-13.613-34.931-14.885-16.937-1.804-33.584,3.11-46.874,13.84C13.072,27.541,4.759,42.778,2.954,59.719c-2.3,20.864,5.858,41.557,21.821,55.35,2.451,2.107,5.472,1.914,8.67,1.704.986-.063,2.01-.13,3.055-.13Z" style="fill:none; stroke:url(#m); stroke-linejoin:round;"/><path d="M66.542,130.78c-1.297,0-2.669-.092-4.121-.294-6.819-.94-10.823-4.477-14.356-7.595-.953-.844-1.855-1.637-2.778-2.354-3.911-3.047-7.81-2.967-11.578-2.896-3.29.063-6.395.126-8.98-2.077-7.742-6.63-13.877-15.103-17.751-24.503-1.968-4.784-3.353-9.799-4.112-14.901-.781-5.254-.906-10.621-.361-15.946C5.757,27.067,33.781,2.211,66.424,2.211c2.09,0,4.201.101,6.32.311,13.172,1.179,25.464,6.337,35.552,14.91,2.753,2.325,4.163,5.795,5.652,9.467.626,1.54,1.272,3.135,2.04,4.687,1.573,3.189,3.349,5.199,5.065,7.138,1.834,2.077,3.571,4.037,4.666,7.155,1.213,3.454.881,6.114.466,9.484-.277,2.228-.587,4.754-.487,7.977.109,3.416,1.15,6.034,2.153,8.573,1.242,3.135,2.417,6.097,1.301,9.887-1.75,5.925-6.71,8.569-12.996,11.918-4.197,2.233-8.947,4.767-13.895,8.804-4.985,4.066-8.665,8.644-12.228,13.071-6.509,8.091-12.224,15.187-23.487,15.191l-.004-.004ZM35.392,117.352c3.198,0,6.676.344,10.059,2.975.927.722,1.834,1.519,2.791,2.367,3.504,3.097,7.474,6.605,14.213,7.532,1.435.193,2.786.29,4.066.29,11.158,0,16.832-7.05,23.298-15.086,3.571-4.436,7.26-9.023,12.266-13.11,4.969-4.053,9.736-6.596,13.941-8.833,6.227-3.319,11.145-5.938,12.862-11.754,1.091-3.697-.017-6.483-1.293-9.71-1.015-2.556-2.06-5.203-2.174-8.661-.1-3.244.214-5.778.491-8.019.412-3.336.739-5.972-.453-9.362-1.078-3.067-2.795-5.01-4.612-7.067-1.729-1.956-3.516-3.974-5.103-7.197-.772-1.561-1.418-3.16-2.047-4.708-1.477-3.642-2.875-7.079-5.577-9.362-10.042-8.535-22.283-13.672-35.401-14.847-2.111-.206-4.217-.311-6.295-.311-32.509-.008-60.415,24.738-63.651,57.751-2.119,20.827,6.152,41.431,22.132,55.119,2.505,2.136,5.564,2.078,8.8,2.015.554-.013,1.116-.021,1.691-.021h-.004Z" style="fill:none; stroke:url(#n); stroke-linejoin:round;"/><path d="M66.731,130.94c-1.255,0-2.577-.084-3.97-.261-6.844-.877-11.032-4.276-14.725-7.276-.923-.751-1.8-1.46-2.69-2.115-3.852-2.828-7.671-2.929-11.36-3.026-3.332-.088-6.479-.167-9.123-2.4-7.755-6.584-13.928-15.006-17.851-24.364-1.997-4.763-3.412-9.757-4.209-14.847-.818-5.237-.982-10.592-.487-15.913C5.485,25.359,36.844-.843,72.224,2.329c13.336,1.083,25.795,6.223,36.026,14.872,2.9,2.434,4.465,6.005,6.127,9.786.625,1.427,1.275,2.904,2.01,4.347,1.552,3.047,3.256,5.082,4.909,7.05,1.868,2.224,3.63,4.326,4.751,7.549,1.246,3.584.965,6.404.612,9.975-.218,2.182-.461,4.654-.373,7.7.096,3.307,1.003,5.904,1.88,8.422,1.12,3.219,2.182,6.261,1.057,10.067-1.833,6.206-6.899,9.148-13.311,12.87-3.881,2.254-8.279,4.809-12.836,8.565-4.646,3.827-8.246,8.049-11.729,12.132-6.945,8.141-13.038,15.279-24.616,15.279v-.004ZM66.424,2.346C33.621,2.346,5.573,27.474,2.589,60.764c-1.943,20.789,6.45,41.309,22.446,54.888,2.568,2.17,5.669,2.25,8.951,2.333,3.559.093,7.596.198,11.519,3.081.898.658,1.775,1.372,2.702,2.123,3.668,2.979,7.822,6.353,14.587,7.218,1.372.172,2.677.256,3.915.256,11.469,0,17.52-7.092,24.423-15.183,3.491-4.091,7.1-8.321,11.766-12.169,4.574-3.773,8.985-6.333,12.875-8.59,6.357-3.693,11.381-6.609,13.181-12.707,1.095-3.722.1-6.584-1.058-9.899-.881-2.535-1.796-5.157-1.896-8.506-.089-3.063.159-5.548.377-7.738.353-3.538.63-6.332-.596-9.853-1.103-3.173-2.853-5.258-4.704-7.461-1.662-1.981-3.378-4.028-4.943-7.104-.739-1.452-1.389-2.929-2.014-4.36-1.645-3.747-3.202-7.289-6.052-9.681-10.188-8.607-22.593-13.731-35.87-14.805-1.939-.172-3.865-.26-5.774-.26Z" style="fill:none; stroke:url(#o); stroke-linejoin:round;"/><path d="M66.903,131.099c-1.209,0-2.476-.075-3.802-.226-6.89-.814-11.284-4.092-15.161-6.987-.873-.651-1.7-1.268-2.543-1.851-3.781-2.618-7.507-2.883-11.116-3.139-3.387-.239-6.584-.47-9.295-2.736-7.772-6.534-13.978-14.914-17.952-24.226-2.023-4.742-3.47-9.719-4.301-14.792-.856-5.224-1.062-10.566-.608-15.879.705-8.674,3.093-16.953,7.1-24.612,3.869-7.398,9.073-13.903,15.468-19.337,6.395-5.434,13.655-9.517,21.578-12.144,8.208-2.715,16.765-3.735,25.439-3.034,6.815.495,13.454,2.06,19.727,4.654,6.076,2.505,11.72,5.934,16.777,10.18,3.063,2.56,4.805,6.248,6.647,10.155.613,1.297,1.242,2.635,1.935,3.949,1.519,2.891,3.147,4.935,4.729,6.916,1.909,2.392,3.709,4.645,4.863,7.994,1.289,3.731,1.058,6.731.764,10.529-.163,2.111-.344,4.507-.268,7.361.088,3.185.864,5.757,1.611,8.242.999,3.315,1.943,6.446.814,10.281-1.926,6.521-7.117,9.79-13.684,13.924-3.55,2.237-7.575,4.767-11.721,8.22-4.272,3.559-7.746,7.407-11.103,11.129-7.432,8.229-13.94,15.443-25.887,15.443l-.008-.013ZM66.391,2.208c-15.203,0-29.773,5.346-41.519,15.321C11.775,28.657,3.798,44.196,2.409,61.284c-1.767,20.751,6.744,41.183,22.761,54.654,2.64,2.207,5.791,2.434,9.131,2.669,3.647.26,7.415.528,11.259,3.189.848.587,1.674,1.204,2.547,1.859,3.848,2.87,8.208,6.127,15.023,6.928,1.309.151,2.56.227,3.756.227,11.838,0,18.305-7.168,25.69-15.346,3.365-3.727,6.848-7.583,11.133-11.154,4.159-3.467,8.192-6.005,11.75-8.242,6.517-4.104,11.666-7.344,13.563-13.764,1.108-3.752.218-6.702-.814-10.113-.756-2.505-1.536-5.09-1.624-8.317-.076-2.866.109-5.271.268-7.39.29-3.764.516-6.739-.751-10.411-1.137-3.298-2.925-5.535-4.817-7.906-1.587-1.989-3.227-4.045-4.759-6.962-.692-1.322-1.326-2.665-1.939-3.961-1.829-3.877-3.554-7.537-6.571-10.059-10.332-8.682-22.9-13.789-36.345-14.767-1.767-.143-3.533-.214-5.292-.214l.013.004Z" style="fill:none; stroke:url(#p); stroke-linejoin:round;"/><path d="M67.058,131.263c-1.158,0-2.362-.063-3.621-.198-6.979-.751-11.603-3.927-15.686-6.726-.789-.542-1.54-1.054-2.3-1.553-3.693-2.409-7.327-2.828-10.839-3.235-3.454-.403-6.714-.781-9.501-3.093-7.784-6.488-14.024-14.818-18.053-24.087-2.052-4.721-3.529-9.681-4.398-14.738-.894-5.208-1.141-10.541-.734-15.85.634-8.699,2.958-17.021,6.911-24.729,3.814-7.444,8.976-14.012,15.342-19.509,6.366-5.501,13.609-9.656,21.527-12.35,8.204-2.791,16.773-3.886,25.472-3.252,6.895.449,13.617,1.985,19.979,4.57,6.156,2.501,11.876,5.942,17.004,10.227,3.252,2.702,5.182,6.538,7.226,10.6.575,1.141,1.166,2.316,1.796,3.479,1.469,2.719,3.017,4.75,4.515,6.714,1.96,2.577,3.815,5.011,5.011,8.498,1.334,3.907,1.158,7.113.931,11.171-.113,2.014-.239,4.301-.176,6.928.076,3.055.722,5.581,1.347,8.023.877,3.424,1.704,6.656.562,10.529-2.035,6.886-7.377,10.512-14.141,15.107-3.194,2.17-6.815,4.629-10.521,7.747-3.856,3.248-7.138,6.693-10.314,10.025-7.973,8.372-14.956,15.699-27.344,15.699l.004.004ZM66.399,2.065c-15.43,0-30.197,5.489-42.022,15.703C11.343,29.031,3.475,44.671,2.224,61.804c-1.586,20.713,7.037,41.058,23.076,54.423,2.719,2.254,5.938,2.627,9.345,3.026,3.546.411,7.218.839,10.965,3.281.764.5,1.515,1.012,2.308,1.557,4.054,2.782,8.649,5.934,15.552,6.677,1.242.13,2.434.193,3.575.193,12.274,0,19.215-7.285,27.142-15.607,3.181-3.336,6.466-6.789,10.335-10.046,3.718-3.13,7.344-5.594,10.546-7.767,6.714-4.561,12.018-8.162,14.024-14.948,1.121-3.794.34-6.844-.562-10.373-.63-2.459-1.28-5.002-1.36-8.091-.063-2.64.063-4.931.177-6.953.226-4.029.402-7.205-.915-11.058-1.179-3.445-3.018-5.858-4.965-8.414-1.502-1.972-3.059-4.016-4.536-6.752-.629-1.167-1.225-2.346-1.8-3.487-2.031-4.033-3.945-7.839-7.151-10.503-10.478-8.754-23.206-13.848-36.815-14.729-1.595-.118-3.181-.172-4.763-.172l-.004.004Z" style="fill:none; stroke:url(#q); stroke-linejoin:round;"/><path d="M67.201,131.422c-1.099,0-2.241-.055-3.42-.168-7.113-.692-11.8-3.651-16.336-6.513-.638-.403-1.293-.818-1.939-1.208-3.588-2.195-7.109-2.761-10.516-3.311-3.537-.567-6.874-1.104-9.752-3.471-7.797-6.441-14.075-14.72-18.153-23.948-2.077-4.7-3.588-9.639-4.49-14.683-.932-5.191-1.217-10.512-.856-15.816.562-8.724,2.824-17.083,6.723-24.847,3.764-7.495,8.884-14.117,15.216-19.685,6.337-5.564,13.563-9.79,21.477-12.56,8.2-2.866,16.781-4.033,25.506-3.47,6.979.399,13.785,1.909,20.231,4.49,6.236,2.497,12.036,5.955,17.231,10.273,3.474,2.875,5.619,6.89,7.889,11.146.508.953,1.032,1.935,1.574,2.908,1.401,2.518,2.853,4.507,4.255,6.429,2.035,2.791,3.953,5.426,5.199,9.089,1.397,4.112,1.267,7.566,1.108,11.935-.072,1.972-.147,4.008-.097,6.378.067,2.904.588,5.367,1.091,7.751.752,3.55,1.465,6.903.302,10.831-2.161,7.31-7.7,11.347-14.712,16.462-2.803,2.044-5.98,4.36-9.207,7.104-3.382,2.879-6.391,5.884-9.299,8.788-8.598,8.585-16.118,16.093-29.039,16.093l.017.004ZM66.408,1.918c-15.661,0-30.625,5.632-42.526,16.089C10.911,29.404,3.156,45.144,2.044,62.329c-1.41,20.671,7.335,40.931,23.386,54.192,2.812,2.312,6.114,2.841,9.605,3.403,3.437.554,6.987,1.125,10.625,3.349.646.394,1.305.81,1.939,1.212,4.503,2.841,9.161,5.783,16.202,6.467,1.167.113,2.291.164,3.378.164,12.807,0,20.285-7.466,28.833-16.005,2.912-2.908,5.921-5.913,9.316-8.804,3.236-2.753,6.416-5.074,9.224-7.122,6.966-5.078,12.467-9.089,14.599-16.299,1.137-3.857.466-7.021-.311-10.684-.507-2.396-1.032-4.872-1.099-7.809-.05-2.379.025-4.511.096-6.395.16-4.339.286-7.763-1.091-11.825-1.229-3.621-3.134-6.24-5.157-9.01-1.406-1.93-2.862-3.928-4.276-6.458-.541-.974-1.07-1.96-1.578-2.912-2.258-4.226-4.385-8.217-7.814-11.053-10.621-8.825-23.516-13.907-37.284-14.692-1.418-.092-2.828-.138-4.238-.138l.008.008Z" style="fill:none; stroke:url(#r); stroke-linejoin:round;"/><path d="M67.331,131.586c-1.049,0-2.119-.047-3.214-.139-7.314-.634-12.321-3.542-17.163-6.353-.466-.273-.932-.542-1.397-.81-3.454-1.985-6.844-2.677-10.126-3.349-3.643-.747-7.083-1.448-10.071-3.881-7.814-6.396-14.125-14.629-18.254-23.811-2.102-4.679-3.647-9.601-4.587-14.629-.965-5.178-1.297-10.487-.978-15.787C3.567,27.029,34.339-.458,70.142,1.557c7.058.348,13.953,1.83,20.482,4.406,6.32,2.493,12.195,5.963,17.457,10.315,3.747,3.08,6.135,7.335,8.67,11.834.402.718.818,1.456,1.242,2.191,1.309,2.283,2.643,4.184,3.932,6.022,2.131,3.047,4.146,5.921,5.455,9.803,1.473,4.373,1.397,8.124,1.305,12.87-.033,1.771-.071,3.6-.029,5.653.054,2.732.457,5.107.847,7.402.626,3.705,1.222,7.201.034,11.213-2.312,7.822-8.112,12.333-15.455,18.045-2.476,1.926-5.036,3.919-7.722,6.231-2.828,2.434-5.442,4.931-7.973,7.348-4.968,4.742-9.656,9.22-15.031,12.333-5.082,2.946-10.243,4.356-16.018,4.356l-.008.009ZM66.441,1.766C32.404,1.766,3.802,28.451,1.863,62.849c-1.234,20.634,7.629,40.806,23.701,53.961,2.925,2.384,6.328,3.08,9.933,3.819,3.303.675,6.718,1.376,10.218,3.382.466.269.927.537,1.397.81,4.809,2.795,9.786,5.69,17.029,6.316,15.409,1.305,24.033-6.933,34.02-16.467,2.534-2.417,5.153-4.922,7.985-7.36,2.694-2.321,5.258-4.314,7.734-6.24,7.298-5.678,13.059-10.164,15.346-17.885,1.163-3.94.605-7.243-.042-11.07-.39-2.308-.793-4.696-.851-7.449-.042-2.06,0-3.894.029-5.665.092-4.717.168-8.443-1.288-12.761-1.293-3.84-3.294-6.697-5.414-9.723-1.292-1.842-2.627-3.752-3.944-6.047-.42-.734-.84-1.477-1.242-2.195-2.518-4.478-4.893-8.703-8.595-11.746-10.767-8.901-23.822-13.966-37.754-14.654-1.234-.071-2.463-.105-3.684-.105v-.004Z" style="fill:none; stroke:url(#s); stroke-linejoin:round;"/><path d="M67.415,131.75c-.969,0-1.956-.038-2.958-.109-7.621-.571-13.021-3.479-18.25-6.287l-.592-.319c-3.29-1.766-6.517-2.564-9.639-3.336-3.785-.935-7.365-1.821-10.487-4.343-7.826-6.349-14.175-14.532-18.355-23.668-2.132-4.658-3.705-9.559-4.679-14.574-1.003-5.162-1.376-10.462-1.104-15.753.424-8.775,2.56-17.214,6.345-25.078,3.659-7.595,8.695-14.335,14.968-20.029,6.274-5.699,13.466-10.063,21.376-12.975,8.191-3.013,16.798-4.331,25.573-3.907,7.142.298,14.117,1.754,20.734,4.326,6.399,2.488,12.35,5.976,17.684,10.361,4.087,3.349,6.773,7.914,9.618,12.753.243.415.491.831.734,1.25,1.183,1.998,2.367,3.747,3.508,5.438,2.27,3.357,4.415,6.53,5.804,10.692,1.569,4.708,1.548,8.838,1.519,14.066-.008,1.481-.017,3.013.012,4.671.042,2.518.332,4.767.613,6.941.5,3.898.974,7.583-.247,11.708-2.501,8.456-8.658,13.533-16.45,19.958-1.926,1.587-3.92,3.232-5.984,5.032-2.145,1.871-4.209,3.768-6.203,5.602-5.375,4.948-10.453,9.618-16.202,12.9-5.569,3.176-11.15,4.695-17.352,4.695l.013-.016ZM66.424,1.612c-16.127,0-31.481,5.925-43.537,16.874C10.046,30.147,2.514,46.089,1.679,63.37c-1.057,20.596,7.923,40.679,24.016,53.73,3.067,2.476,6.609,3.353,10.361,4.28,3.139.777,6.387,1.582,9.715,3.366l.592.319c5.195,2.795,10.571,5.682,18.12,6.248.994.072,1.968.109,2.912.109,14.326,0,23.189-8.153,33.353-17.507,1.997-1.838,4.062-3.735,6.21-5.611,2.069-1.8,4.062-3.445,5.989-5.035,7.75-6.391,13.873-11.435,16.344-19.799,1.201-4.058.752-7.541.235-11.574-.281-2.182-.57-4.44-.612-6.974-.03-1.662-.021-3.193-.013-4.679.03-5.199.051-9.303-1.502-13.961-1.377-4.121-3.508-7.277-5.766-10.613-1.146-1.695-2.333-3.45-3.521-5.455-.247-.42-.491-.835-.734-1.25-2.828-4.809-5.502-9.354-9.543-12.665-10.91-8.972-24.129-14.024-38.229-14.612-1.062-.05-2.128-.076-3.181-.076Z" style="fill:none; stroke:url(#t); stroke-linejoin:round;"/><path d="M67.461,131.913c-.877,0-1.762-.029-2.665-.084-8.053-.512-14.192-3.579-19.127-6.047-3.068-1.536-6.081-2.404-8.993-3.248-3.986-1.154-7.755-2.241-11.057-4.884-7.843-6.299-14.222-14.436-18.452-23.53-2.157-4.637-3.764-9.522-4.771-14.52-1.041-5.145-1.452-10.436-1.225-15.72C2.606,27.864,33.088-.264,69.102,1.171c7.222.248,14.285,1.679,20.986,4.247,6.483,2.484,12.509,5.984,17.91,10.403,4.545,3.705,7.583,8.695,10.797,13.974.995,1.632,1.981,3.131,2.934,4.583,2.475,3.76,4.809,7.314,6.311,11.859,1.708,5.157,1.733,9.803,1.762,15.678.005,1.049.013,2.136.03,3.269.033,2.245.218,4.301.394,6.295.374,4.163.726,8.091-.545,12.384-2.753,9.291-9.421,15.061-17.869,22.367-1.237,1.07-2.517,2.178-3.822,3.328-1.272,1.12-2.531,2.253-3.752,3.348-5.879,5.28-11.435,10.265-17.679,13.811-6.198,3.521-12.329,5.199-19.102,5.199h.004ZM66.454,1.452C31.779,1.452,2.895,28.938,1.498,63.894c-.877,20.554,8.217,40.554,24.331,53.5,3.252,2.601,6.987,3.684,10.944,4.825,2.929.848,5.955,1.721,9.052,3.269,6.24,3.118,11.599,5.544,18.997,6.014.898.054,1.775.084,2.635.084,15.48,0,25.296-8.808,36.567-18.922,1.221-1.095,2.484-2.228,3.756-3.348,1.305-1.15,2.585-2.258,3.823-3.332,8.405-7.273,15.044-13.013,17.767-22.212,1.251-4.234.919-7.952.533-12.262-.18-1.997-.365-4.062-.399-6.32-.016-1.133-.021-2.22-.029-3.273-.034-5.85-.059-10.466-1.746-15.577-1.489-4.503-3.705-7.872-6.273-11.779-.957-1.452-1.943-2.954-2.938-4.591-3.197-5.258-6.219-10.222-10.721-13.89C96.731,7.033,83.348,1.993,69.089,1.502c-.881-.034-1.758-.055-2.635-.055v.004Z" style="fill:none; stroke:url(#u); stroke-linejoin:round;"/><path d="M67.461,132.081c-.768,0-1.54-.021-2.325-.059-7.872-.407-13.907-2.933-19.408-5.488-2.753-1.276-5.459-2.166-8.074-3.022-4.289-1.406-8.338-2.732-11.905-5.564-7.856-6.253-14.272-14.343-18.552-23.391-2.182-4.616-3.823-9.484-4.868-14.465-1.078-5.132-1.532-10.407-1.351-15.69C2.128,28.28,32.459-.172,68.581.978c7.302.197,14.448,1.599,21.238,4.163,6.563,2.48,12.665,5.997,18.137,10.449,4.696,3.81,8.128,8.98,11.238,13.949.705,1.125,1.406,2.212,2.086,3.261,2.912,4.507,5.425,8.397,7.096,13.487,1.905,5.816,1.964,11.204,2.035,18.028l.012,1.133c.021,1.863.118,3.621.21,5.321.256,4.738.479,8.825-.873,13.386-1.422,4.801-3.869,9.131-7.704,13.617-3.458,4.049-7.772,7.901-12.342,11.985l-1.074.96c-6.538,5.846-12.715,11.368-19.631,15.359-7.062,4.075-13.97,6.005-21.548,6.005ZM66.462,1.289C31.46,1.289,2.442,29.182,1.313,64.415c-.701,20.512,8.51,40.428,24.641,53.268,3.517,2.791,7.541,4.109,11.8,5.506,2.627.86,5.342,1.75,8.112,3.038,5.472,2.539,11.473,5.057,19.282,5.46.751.038,1.49.054,2.22.054,17.243,0,28.812-10.348,41.036-21.275l1.074-.961c9.43-8.422,16.874-15.074,19.946-25.443,1.334-4.507,1.112-8.569.86-13.273-.092-1.704-.189-3.466-.21-5.334l-.012-1.133c-.072-6.794-.131-12.161-2.019-17.927-1.653-5.048-4.159-8.922-7.058-13.407-.68-1.049-1.381-2.136-2.086-3.265-3.097-4.943-6.513-10.088-11.166-13.865C96.538,6.74,82.996,1.712,68.573,1.322c-.705-.021-1.41-.034-2.111-.034Z" style="fill:none; stroke:url(#v); stroke-linejoin:round;"/><path d="M67.348,132.249c-.621,0-1.242-.013-1.867-.038-7.952-.315-14.419-2.669-19.694-4.931-2.241-.961-4.452-1.758-6.597-2.534-4.796-1.733-9.329-3.366-13.315-6.505-7.872-6.206-14.322-14.246-18.653-23.252-2.212-4.595-3.882-9.442-4.96-14.415-1.112-5.115-1.611-10.382-1.473-15.657C1.637,29.228,30.952.768,66.471.768c.529,0,1.062.008,1.59.021,7.386.151,14.616,1.523,21.49,4.083,6.647,2.476,12.824,6.005,18.363,10.491,4.981,4.024,8.699,9.295,11.683,13.919.231.357.457.709.684,1.057,3.483,5.388,6.492,10.042,8.426,15.997,2.035,6.265,2.245,12.228,2.308,19.371.013,1.267.042,2.497.071,3.689.131,5.38.24,10.021-1.25,15.048-1.494,5.036-4.045,9.773-7.805,14.486-3.601,4.511-8.087,8.737-12.401,12.631-5.946,5.409-12.475,10.965-19.932,14.935-7.247,3.86-14.578,5.745-22.35,5.745v.008ZM66.471,1.116C31.137,1.116,1.981,29.425,1.133,64.935c-.525,20.474,8.804,40.298,24.956,53.038,3.945,3.101,8.447,4.725,13.219,6.45,2.149.776,4.364,1.578,6.614,2.539,5.245,2.249,11.674,4.59,19.568,4.905.617.025,1.234.034,1.838.034,17.898,0,30.587-10.147,42.064-20.592,8.716-7.872,16.815-15.854,20.105-26.957,1.473-4.973,1.364-9.593,1.234-14.943-.03-1.192-.059-2.426-.072-3.697-.063-7.113-.268-13.051-2.291-19.266-1.922-5.908-4.918-10.545-8.388-15.917-.227-.348-.454-.701-.684-1.057-2.967-4.603-6.668-9.845-11.608-13.84C96.349,6.446,82.639,1.431,68.053,1.137c-.529-.013-1.057-.021-1.582-.021Z" style="fill:none; stroke:url(#w); stroke-linejoin:round;"/><path d="M67.226,132.425c-.47,0-.936-.004-1.41-.017-6.504-.172-12.849-1.565-19.979-4.372-1.238-.487-2.48-.961-3.68-1.419-5.837-2.22-11.351-4.318-16.16-8.069-7.885-6.161-14.373-14.151-18.754-23.11-2.237-4.574-3.94-9.404-5.057-14.36-1.15-5.099-1.687-10.357-1.599-15.623C1.171,29.115,31.2.017,67.541.596c7.465.101,14.78,1.444,21.741,4.003,6.727,2.472,12.984,6.013,18.59,10.537,4.259,3.424,8.112,7.843,12.128,13.894,4.133,6.236,7.091,11.313,9.039,17.36,1.775,5.501,2.517,11.175,2.568,19.585v.378c.046,6.655.079,12.404-1.696,18.393-1.548,5.22-4.024,10.113-7.578,14.956-3.009,4.104-6.786,8.191-11.884,12.87-7.151,6.597-13.563,11.175-20.168,14.402-7.495,3.663-15.048,5.451-23.055,5.451ZM66.479.944C30.81.944,1.519,29.668.953,65.455c-.357,20.739,8.854,39.983,25.271,52.807,4.767,3.718,10.256,5.808,16.068,8.02,1.2.457,2.442.927,3.684,1.418,7.088,2.795,13.395,4.175,19.853,4.347.453.013.911.017,1.36.017,19.11,0,33-10.516,43.021-19.756,7.579-6.95,15.804-15.67,19.363-27.667,1.758-5.938,1.724-11.662,1.682-18.292v-.378c-.05-8.372-.789-14.012-2.551-19.475-1.939-6.009-4.881-11.062-8.997-17.272-3.995-6.022-7.822-10.411-12.052-13.815C96.156,6.148,82.283,1.15,67.536.953c-.353-.004-.705-.008-1.058-.008Z" style="fill:none; stroke:url(#x); stroke-linejoin:round;"/><path d="M66.941,132.602c-.26,0-.52,0-.785-.005-6.76-.092-13.391-1.338-20.26-3.814-6.727-2.421-13.777-5.304-19.769-9.937-7.902-6.114-14.423-14.058-18.854-22.971-2.266-4.553-3.995-9.366-5.149-14.305-1.188-5.082-1.767-10.331-1.721-15.594.071-8.909,1.888-17.541,5.405-25.661,3.395-7.843,8.221-14.872,14.343-20.898,6.123-6.026,13.231-10.743,21.125-14.012C49.45,2.014,58.111.332,67.02.403c7.549.05,14.947,1.368,21.993,3.919,6.807,2.467,13.139,6.026,18.821,10.579,4.612,3.697,8.725,8.233,12.568,13.869,4.264,6.253,7.117,11.867,8.972,17.667,1.905,5.959,2.803,12.249,2.829,19.799.025,7.872-.638,13.496-2.212,18.804-3.059,10.315-9.182,19.647-18.72,28.539-13.504,12.627-28.414,19.027-44.33,19.027v-.004ZM66.483.768c-17.331,0-33.676,6.702-46.076,18.909C7.881,32.006.906,48.452.768,65.98c-.176,20.697,9.148,39.857,25.585,52.576,5.955,4.604,12.975,7.47,19.668,9.883,6.832,2.463,13.42,3.701,20.143,3.793.26,0,.52.004.776.004,15.82,0,30.646-6.365,44.078-18.929,9.488-8.842,15.577-18.125,18.615-28.372,1.562-5.271,2.22-10.86,2.195-18.695-.021-7.511-.915-13.764-2.807-19.685-1.847-5.766-4.683-11.351-8.926-17.574-3.823-5.602-7.91-10.113-12.497-13.789C95.963,5.854,81.926.869,67.016.768h-.533Z" style="fill:none; stroke:url(#y); stroke-linejoin:round;"/><path d="M66.5,132.79C29.945,132.79.21,103.051.21,66.5S29.945.21,66.5.21s66.29,29.736,66.29,66.29-29.735,66.29-66.29,66.29ZM66.5.588C30.155.588.588,30.155.588,66.5s29.568,65.913,65.912,65.913,65.913-29.568,65.913-65.913S102.845.588,66.5.588Z" style="fill:none; stroke:url(#z); stroke-linejoin:round;"/></g></g></svg>