<svg width="32" height="165" viewBox="0 0 32 165" fill="none" xmlns="http://www.w3.org/2000/svg">
<g clip-path="url(#clip0_0_11402)">
<path fill-rule="evenodd" clip-rule="evenodd" d="M0.618677 10.7143L5.99546 5.35719L26.0006 25.2743L20.6198 30.6274L0.618677 10.7143Z" fill="#7B191D"/>
<path fill-rule="evenodd" clip-rule="evenodd" d="M31.3813 10.7143L26.0006 5.35719L5.99542 25.2743L11.3762 30.6274L31.3813 10.7143Z" fill="#681216"/>
<path fill-rule="evenodd" clip-rule="evenodd" d="M5.99542 5.35709L11.3762 0L31.3813 19.9171L26.0006 25.2742L5.99542 5.35709Z" fill="#5F0E12"/>
<path fill-rule="evenodd" clip-rule="evenodd" d="M26.0006 5.35709L20.6198 0L10.6173 9.95854L15.998 15.3156L26.0006 5.35709ZM5.24047 15.3156L0.618677 19.9171L5.99946 25.2742L10.6213 20.6727L5.24047 15.3156Z" fill="#7C181D"/>
<path opacity="0.5" fill-rule="evenodd" clip-rule="evenodd" d="M10.6171 9.95843L15.9979 15.3155L12.0153 8.57044L10.6171 9.95843Z" fill="#040000"/>
<path opacity="0.5" fill-rule="evenodd" clip-rule="evenodd" d="M10.6171 20.6728L15.9979 15.3158L9.22302 19.2809L10.6171 20.6728Z" fill="#040000"/>
<path opacity="0.5" fill-rule="evenodd" clip-rule="evenodd" d="M21.3787 9.95856L15.998 15.3157L22.7769 11.3505L21.3787 9.95856Z" fill="#040000"/>
<path opacity="0.5" fill-rule="evenodd" clip-rule="evenodd" d="M21.3867 20.6768L15.998 15.3158L19.9846 22.0569L21.3867 20.6768Z" fill="#040000"/>
<path opacity="0.5" fill-rule="evenodd" clip-rule="evenodd" d="M21.3867 9.95466V9.95068L26.0005 5.35719L28.4772 7.81898L23.5837 10.8495L22.3015 9.03994L21.3867 9.95466Z" fill="#040000"/>
<path opacity="0.5" fill-rule="evenodd" clip-rule="evenodd" d="M9.22306 19.2806L10.6172 20.6726L6.00338 25.2661L3.5267 22.8043L9.22306 19.2806Z" fill="#040000"/>
<path opacity="0.5" fill-rule="evenodd" clip-rule="evenodd" d="M12.0154 8.56997L10.6173 9.95796L5.99546 5.35651L8.47613 2.89869L12.0154 8.56997Z" fill="#040000"/>
<path opacity="0.5" fill-rule="evenodd" clip-rule="evenodd" d="M19.9847 22.0572L21.3868 20.6772L26.0006 25.2707L23.5279 27.7364L19.9847 22.0572Z" fill="#040000"/>
<path opacity="0.5" fill-rule="evenodd" clip-rule="evenodd" d="M22.7769 11.3506L26.7595 15.3157L23.5838 10.8495L22.7769 11.3506Z" fill="#040000"/>
<path opacity="0.5" fill-rule="evenodd" clip-rule="evenodd" d="M22.7769 11.3498L21.3788 9.95783L22.3016 9.03913L23.5839 10.8487L22.7769 11.3498Z" fill="#040000"/>
<path opacity="0.5" fill-rule="evenodd" clip-rule="evenodd" d="M9.22314 19.2809L5.24049 15.3158L8.41623 19.782L9.22314 19.2809Z" fill="#040000"/>
<path opacity="0.5" fill-rule="evenodd" clip-rule="evenodd" d="M9.22309 19.2806L10.6212 20.6686L9.70245 21.5873L8.41618 19.7817L9.22309 19.2806Z" fill="#040000"/>
<path opacity="0.5" fill-rule="evenodd" clip-rule="evenodd" d="M12.0394 8.59075L15.9701 4.57393L11.5281 7.79136L12.0394 8.59075Z" fill="#040000"/>
<path opacity="0.5" fill-rule="evenodd" clip-rule="evenodd" d="M12.0154 8.56628L10.6173 9.95825L9.69849 9.04352L11.5121 7.76291L12.0154 8.56628Z" fill="#040000"/>
<path opacity="0.5" fill-rule="evenodd" clip-rule="evenodd" d="M19.9807 22.0611L15.998 26.0262L20.484 22.8644L19.9807 22.0611Z" fill="#040000"/>
<path opacity="0.5" fill-rule="evenodd" clip-rule="evenodd" d="M19.9806 22.0609L21.3788 20.6729L22.3015 21.5877L20.484 22.8643L19.9806 22.0609Z" fill="#040000"/>
<path d="M26.6558 42.6382V52.9388C26.6558 54.5734 26.1205 55.9216 25.0539 56.9874C23.9873 58.0493 22.5093 58.5822 20.6199 58.5822C18.7304 58.5822 17.2524 58.0493 16.1858 56.9874C15.6106 56.4147 15.2391 55.5955 15.0753 54.5336L5.59204 59.318V56.2517L14.7078 51.8371V45.4619H5.59204V42.6422H26.6558V42.6382ZM24.3149 45.458H17.0487V52.6922C17.0487 53.5075 17.3363 54.2035 17.9115 54.7762C18.4867 55.3489 19.3895 55.6352 20.6199 55.6352C21.7703 55.6352 22.6731 55.3091 23.3282 54.6529C23.9833 53.9967 24.3149 53.2212 24.3149 52.3223V45.454V45.458Z" fill="#040000"/>
<path d="M24.191 70.7447C25.9167 72.4628 26.7795 74.5468 26.7795 77.0006C26.7795 79.4545 25.9167 81.5384 24.191 83.2565C22.2217 85.2172 19.5093 86.1996 16.0619 86.1996C12.6146 86.1996 9.90219 85.2172 7.93283 83.2565C6.20715 81.5384 5.34431 79.4545 5.34431 77.0006C5.34431 74.5468 6.20715 72.4628 7.93283 70.7447C9.90219 68.784 12.6146 67.8017 16.0619 67.8017C19.5093 67.8017 22.2217 68.784 24.191 70.7447ZM22.5892 72.8327C21.191 71.4407 19.018 70.7487 16.0619 70.7487C13.1059 70.7487 10.9288 71.4407 9.53469 72.8327C8.30434 74.0576 7.68517 75.4496 7.68517 77.0006C7.68517 78.5517 8.30034 79.9436 9.53469 81.1686C10.9288 82.5566 13.1059 83.2526 16.0619 83.2526C19.018 83.2526 21.191 82.5566 22.5892 81.1686C23.8195 79.9436 24.4387 78.5517 24.4387 77.0006C24.4387 75.4496 23.8235 74.0576 22.5892 72.8327Z" fill="#040000"/>
<path d="M24.191 99.2198C25.9167 100.938 26.7795 103.022 26.7795 105.476C26.7795 107.93 25.9966 109.93 24.4387 111.485C23.1244 112.794 21.5226 113.486 19.6331 113.569V110.626C21.0273 110.543 22.1777 110.053 23.0805 109.155C23.9833 108.256 24.4347 107.027 24.4347 105.476C24.4347 103.925 23.8994 102.612 22.8328 101.55C21.3548 100.079 19.0539 99.3431 15.9341 99.3431C12.9781 99.3431 10.7171 100.119 9.15919 101.674C8.09262 102.736 7.55734 104.207 7.55734 106.088C7.55734 107.476 8.00873 108.622 8.91152 109.52C9.81431 110.419 10.761 110.948 11.7437 111.115H13.7131L13.7131 107.56H16.0539V113.935H5.21249V111.851L7.30568 111.115C5.90755 109.723 5.21249 107.965 5.21249 105.842C5.21249 103.225 6.03139 101.101 7.67718 99.4664C9.73042 97.4222 12.4827 96.4001 15.9301 96.4001C19.3775 96.4001 22.2936 97.3387 24.183 99.2198H24.191Z" fill="#040000"/>
<path d="M26.5319 122.303V125.246L16.9248 131.255L26.5319 137.264V140.207L14.8316 132.726H5.47213V129.907H14.8316L26.5319 122.303Z" fill="#040000"/>
<path d="M16.4294 154.822L26.5319 148.2V151.39L18.7703 156.294L26.5319 161.197V164.387L16.4294 157.765L5.46813 165V161.81L14.0886 156.29L5.46813 150.77V147.58L16.4294 154.814V154.822Z" fill="#040000"/>
</g>
<defs>
<clipPath id="clip0_0_11402">
<rect width="165" height="30.7627" fill="white" transform="matrix(0 1 -1 0 31.3813 0)"/>
</clipPath>
</defs>
</svg>
