<svg width="201" height="44" viewBox="0 0 201 44" fill="none" xmlns="http://www.w3.org/2000/svg">
<path d="M117.594 20.7188L124.43 27.5137C125.551 28.6348 126.508 29.4004 127.301 29.8105C128.094 30.2116 128.887 30.4395 129.68 30.4941V31H120.862V30.4941C121.391 30.4941 121.769 30.4076 121.997 30.2344C122.234 30.0521 122.352 29.8516 122.352 29.6328C122.352 29.4141 122.307 29.2181 122.215 29.0449C122.133 28.8717 121.851 28.5482 121.368 28.0742L114.969 21.7441V27.7188C114.969 28.6576 115.029 29.2773 115.147 29.5781C115.238 29.806 115.43 30.002 115.721 30.166C116.113 30.3848 116.528 30.4941 116.965 30.4941H117.594V31H109.692V30.4941H110.348C111.114 30.4941 111.67 30.2708 112.016 29.8242C112.235 29.5326 112.344 28.8307 112.344 27.7188V15.7422C112.344 14.8034 112.285 14.179 112.167 13.8691C112.075 13.6504 111.889 13.459 111.606 13.2949C111.205 13.0762 110.786 12.9668 110.348 12.9668H109.692V12.4609H117.594V12.9668H116.965C116.537 12.9668 116.122 13.0716 115.721 13.2812C115.439 13.4271 115.243 13.6458 115.133 13.9375C115.024 14.2292 114.969 14.8307 114.969 15.7422V21.416C115.152 21.2428 115.776 20.6641 116.842 19.6797C119.549 17.2005 121.185 15.5462 121.751 14.7168C121.997 14.3522 122.12 14.0332 122.12 13.7598C122.12 13.5501 122.024 13.3678 121.833 13.2129C121.641 13.0488 121.318 12.9668 120.862 12.9668H120.438V12.4609H127.247V12.9668C126.846 12.9759 126.481 13.0306 126.153 13.1309C125.825 13.2311 125.424 13.4271 124.95 13.7188C124.476 14.0013 123.893 14.4616 123.2 15.0996C122.999 15.2819 122.074 16.2161 120.424 17.9023L117.594 20.7188ZM136.433 13.4727V20.8008H140.507C141.565 20.8008 142.271 20.6413 142.626 20.3223C143.1 19.903 143.365 19.1647 143.419 18.1074H143.925V24.5605H143.419C143.292 23.6582 143.164 23.0794 143.037 22.8242C142.873 22.5052 142.604 22.2546 142.23 22.0723C141.856 21.89 141.282 21.7988 140.507 21.7988H136.433V27.9102C136.433 28.7305 136.47 29.2318 136.542 29.4141C136.615 29.5872 136.743 29.7285 136.925 29.8379C137.108 29.9382 137.454 29.9883 137.964 29.9883H141.109C142.157 29.9883 142.918 29.9154 143.392 29.7695C143.866 29.6237 144.322 29.3366 144.759 28.9082C145.324 28.3431 145.903 27.4909 146.496 26.3516H147.042L145.443 31H131.156V30.4941H131.812C132.25 30.4941 132.664 30.3893 133.056 30.1797C133.348 30.0339 133.544 29.8151 133.644 29.5234C133.753 29.2318 133.808 28.6348 133.808 27.7324V15.6875C133.808 14.5117 133.69 13.7871 133.453 13.5137C133.125 13.1491 132.578 12.9668 131.812 12.9668H131.156V12.4609H145.443L145.648 16.5215H145.115C144.923 15.5462 144.709 14.8763 144.472 14.5117C144.244 14.1471 143.903 13.8691 143.447 13.6777C143.082 13.541 142.44 13.4727 141.519 13.4727H136.433ZM157.459 30.4941V31H149.516V30.4941H150.172C150.938 30.4941 151.494 30.2708 151.84 29.8242C152.059 29.5326 152.168 28.8307 152.168 27.7188V15.7422C152.168 14.8034 152.109 14.1836 151.991 13.8828C151.899 13.6549 151.713 13.459 151.43 13.2949C151.029 13.0762 150.61 12.9668 150.172 12.9668H149.516V12.4609H157.459V12.9668H156.789C156.033 12.9668 155.481 13.1901 155.135 13.6367C154.907 13.9284 154.793 14.6302 154.793 15.7422V27.7188C154.793 28.6576 154.853 29.2773 154.971 29.5781C155.062 29.806 155.254 30.002 155.545 30.166C155.937 30.3848 156.352 30.4941 156.789 30.4941H157.459ZM160.398 23.6855H167.466V25.75H160.398V23.6855ZM182.518 24.793H175.34L174.082 27.7188C173.772 28.4388 173.617 28.9766 173.617 29.332C173.617 29.6146 173.749 29.8652 174.014 30.084C174.287 30.2936 174.871 30.4303 175.764 30.4941V31H169.926V30.4941C170.701 30.3574 171.202 30.1797 171.43 29.9609C171.895 29.5234 172.41 28.6348 172.975 27.2949L179.496 12.0371H179.975L186.428 27.459C186.947 28.6986 187.417 29.5052 187.836 29.8789C188.264 30.2435 188.857 30.4486 189.613 30.4941V31H182.299V30.4941C183.037 30.4577 183.534 30.3346 183.789 30.125C184.054 29.9154 184.186 29.6602 184.186 29.3594C184.186 28.9583 184.003 28.3249 183.639 27.459L182.518 24.793ZM182.135 23.7812L178.99 16.2891L175.764 23.7812H182.135ZM199.702 30.4941V31H191.759V30.4941H192.415C193.181 30.4941 193.737 30.2708 194.083 29.8242C194.302 29.5326 194.411 28.8307 194.411 27.7188V15.7422C194.411 14.8034 194.352 14.1836 194.233 13.8828C194.142 13.6549 193.955 13.459 193.673 13.2949C193.272 13.0762 192.853 12.9668 192.415 12.9668H191.759V12.4609H199.702V12.9668H199.032C198.276 12.9668 197.724 13.1901 197.378 13.6367C197.15 13.9284 197.036 14.6302 197.036 15.7422V27.7188C197.036 28.6576 197.095 29.2773 197.214 29.5781C197.305 29.806 197.496 30.002 197.788 30.166C198.18 30.3848 198.595 30.4941 199.032 30.4941H199.702Z" fill="white"/>
<path d="M89.8276 16.0743V16.2183C89.8276 17.086 89.3478 17.6618 88.3362 17.6618C87.2286 17.6618 86.073 17.4218 84.9214 17.4218C83.8618 17.4218 82.8022 17.4698 81.7945 17.6618C82.6142 17.038 83.334 16.2183 83.8138 15.2546C82.6582 14.2909 80.2991 13.8111 78.8556 13.8111C70.1467 13.8111 64.6607 16.89 56.7195 19.2972C56.8155 20.0209 56.9594 20.7407 56.9594 21.4164C56.9594 23.3398 55.8518 26.3267 54.4563 27.6742C53.2527 27.6742 52.9648 26.0868 52.9648 25.1231C52.9648 23.6316 53.8805 22.1402 54.2644 20.6967C54.5043 19.829 54.5523 18.9173 54.5523 18.0016C54.5523 17.2779 54.5043 16.6061 54.4563 15.9824C55.324 16.3662 56.2357 16.994 56.4276 18.0016C59.9423 16.2703 63.597 14.8268 67.3997 13.7192C66.3401 12.1317 67.0638 9.82053 65.8122 8.23309C66.7759 8.37704 67.9795 8.61695 68.7472 9.29272C69.4669 9.24473 70.0947 8.86087 70.6705 8.47301C69.8028 10.0125 69.0351 11.5999 68.2634 13.1873C69.5629 12.7555 70.8624 12.3676 72.162 12.1277C74.1333 10.8282 75.8207 9.19275 77.1682 7.26943L75.8207 5.58603C76.4444 5.15418 77.1682 4.86228 77.9879 4.76632C79.4314 5.49006 81.2587 4.71833 81.9345 6.83358C79.7672 8.70892 77.0722 9.86451 75.1489 11.9838C76.5924 11.8398 78.0359 11.7438 79.4793 11.7438C82.9461 11.7438 87.8044 12.5156 89.8276 15.7384V16.0743ZM76.6883 28.8258C76.3525 30.3653 74.813 31.7608 74.2812 33.928C77.9879 36.1912 88.6681 39.3181 90.6913 41.8692C89.0559 42.5929 87.2766 43.1687 85.4452 43.1687C80.6829 43.1687 76.3005 39.8019 72.7418 36.915C70.2866 39.514 67.6396 41.4853 63.8889 41.4853C62.3975 41.4853 60.7141 41.1495 59.7504 39.8979C60.0863 39.9459 60.4742 39.9459 60.858 39.9459C64.6127 39.9459 68.4633 38.1665 70.7225 35.1836C69.5189 33.4522 67.6916 32.2486 65.8122 31.3329C63.745 34.6038 60.998 37.3468 58.3549 40.0898C57.4392 41.0535 55.7558 43.1687 54.3124 43.1687C54.1204 42.7369 54.0245 42.2531 54.0245 41.7732C54.0245 39.8499 55.276 37.9226 56.5276 36.5271L56.4316 38.6463C59.5105 36.2392 61.6297 33.0643 64.4207 30.4652L63.3611 29.6455L65.2364 29.4536L66.584 26.9025L65.6683 26.3267C66.1001 25.6509 66.6799 25.0272 67.4477 24.6913C66.1961 23.1998 64.8486 21.1285 64.8486 19.1572C64.8486 18.9173 64.8966 18.7254 64.8966 18.5334C68.1674 22.0482 69.275 25.0791 74.7131 25.0791H74.953C76.0126 25.0791 78.3677 25.0312 78.3677 24.1155C78.3677 22.624 74.853 19.5931 73.8454 18.7254C73.7494 18.6774 73.6534 18.6774 73.6054 18.6774C72.5458 18.6774 72.3539 21.9482 71.5382 22.672C69.9028 22.2881 69.275 19.6411 69.0831 18.2456L69.9987 18.9693C72.6938 18.9693 73.4655 16.4182 77.4081 16.4182C78.9475 16.4182 80.7269 17.2379 80.7269 18.9693C80.439 19.3532 80.0551 19.5451 79.5713 19.5451C77.9359 19.5451 76.3965 18.3415 74.7091 18.2456C76.4404 21.6124 81.1587 21.8563 82.8901 24.5993C82.9381 24.7433 82.9381 24.9352 82.9381 25.0791C82.9381 27.4383 79.7153 27.8701 77.9319 27.8701C77.3081 27.8701 76.6803 27.8222 76.0566 27.7262L76.6803 28.8338L76.6883 28.8258ZM61.7217 11.356C61.9136 11.9798 62.0576 12.6075 62.0576 13.2793C62.0576 14.147 61.7697 14.8667 60.95 15.2026C59.8424 13.7591 59.5545 11.7878 58.4469 10.3923C59.5545 10.3923 60.854 10.5363 61.7177 11.356H61.7217ZM59.9423 23.9155C59.9423 22.664 60.2782 21.2205 60.5181 20.0169C61.5778 21.3165 62.8773 23.3837 62.8773 25.1191C62.8773 26.0348 62.3975 27.1864 61.4338 27.3343C60.4702 26.5626 59.9423 25.1191 59.9423 23.9195V23.9155ZM68.9431 1.05963C69.4229 0.579795 70.0507 0.143949 70.7225 0C71.6382 0.143949 72.4059 0.287898 73.3216 0.287898C74.3812 0.287898 75.0049 1.10761 75.3408 2.01929C73.8973 3.46278 72.9817 2.88698 71.4902 3.65471C70.6705 4.03857 69.9508 4.61837 69.179 5.0982C66.8679 6.58967 64.7046 7.60131 62.0576 8.27308C64.6087 6.25379 67.1598 4.18252 69.323 1.77537L68.9391 1.05163L68.9431 1.05963ZM72.9817 29.3056C72.3579 29.3056 71.7781 29.1137 71.2503 28.7778C71.8741 28.6339 72.2619 28.154 72.4059 27.5263C71.4422 27.2384 70.5306 26.8025 69.6629 26.3227C68.9431 27.7182 67.5956 28.6819 66.9678 30.1733C68.6032 31.137 70.7225 31.6168 72.118 32.8684C72.8417 31.6168 73.5135 30.3653 74.1373 29.0657C73.7534 29.2097 73.3655 29.3056 72.9817 29.3056Z" fill="white"/>
<path d="M0.582216 31.6106L0 32.2006L0.782715 31.9268C4.75798 30.5385 8.64842 26.4583 11.4901 23.4773L11.625 23.3346C12.5196 22.355 13.63 21.1364 14.7983 20.2995L14.9371 20.1992L14.8562 20.0488C14.22 18.8803 12.7972 18.8803 11.8564 18.8803C11.7176 18.8803 11.5672 18.8919 11.413 18.9035C11.2549 18.915 11.093 18.9266 10.9272 18.9266H10.8462L10.7884 18.9844C10.449 19.3238 9.56223 19.5938 8.14717 19.7866C8.40936 19.5398 8.6677 19.293 8.92989 19.0423C9.9131 18.1052 10.9272 17.1372 11.9798 16.2502C12.3461 15.9301 12.7432 15.6254 13.1288 15.3323C13.5182 15.0354 13.9231 14.723 14.3086 14.3875L14.3935 14.3027C14.6171 14.0867 14.8677 13.8399 14.9641 13.462L14.9988 13.327L14.8793 13.2537C13.846 12.6135 12.589 12.4824 11.4901 12.4361H11.4515L11.4168 12.4477C10.1753 12.8873 8.91061 13.1226 7.43772 13.3115C8.79108 11.4643 10.5146 9.97568 12.1841 8.53335C13.4218 7.46511 14.7058 6.35829 15.8471 5.10108L15.8972 5.04709V4.7887C15.8972 3.23839 13.8768 2.95301 12.5389 2.76019C12.2728 2.72162 12.0338 2.68692 11.8448 2.64835L11.7793 2.63293L10.0365 3.4775L10.8269 4.26808C9.13424 7.77363 6.12677 10.9205 3.68994 13.2768C3.4586 13.4967 3.21568 13.7203 2.96892 13.9402C2.2826 14.5649 1.57314 15.2128 0.987069 15.934C0.647764 16.3158 0.242911 16.9212 0.242911 17.6385C0.242911 18.0782 0.4704 18.4715 0.852118 18.6875L0.952367 18.7453L1.75436 18.2247C4.67315 16.3158 6.08821 15.3941 9.76658 15.0123C7.54568 16.8865 5.50214 18.942 3.59355 20.8934L3.55885 20.9281L3.51643 21.0785C3.43161 21.3678 3.35449 21.6377 3.35449 21.9539C3.35449 22.5363 3.55885 23.1379 3.94827 23.6894L4.06395 23.8513L4.22203 23.7318C5.70264 22.6211 7.41458 22.0234 9.14581 22.0041C8.14332 23.1225 7.15239 24.2717 6.19617 25.3824C4.40325 27.461 2.54864 29.6129 0.582216 31.6106Z" fill="white"/>
<path d="M6.7514 30.1143C6.41209 30.1143 6.07664 30.1605 5.79132 30.2107L5.49057 30.2608L5.66408 30.5115C6.07664 31.1054 6.30799 31.8921 6.52777 32.6518C6.96732 34.152 7.4223 35.6985 9.30004 35.6985H9.90925V35.5056C9.90925 32.9951 10.3912 30.4266 10.9272 27.7927L11.0891 26.9905L8.3631 30.4806C7.86571 30.2377 7.32205 30.1143 6.74754 30.1143H6.7514Z" fill="white"/>
<path d="M1.13744 33.9669C0.933088 33.9669 0.686321 33.9978 0.358583 34.0633L0.127239 34.1096L0.219776 34.3256C0.443409 34.8616 0.601494 35.5056 0.771147 36.1882C1.21456 37.9892 1.71966 40.0293 3.65524 40.4265L3.78633 40.4535L4.43795 39.42V39.3737C4.48808 38.9148 4.5382 38.4404 4.5382 37.9622C4.5382 35.9723 3.48944 33.9631 1.14515 33.9631L1.13744 33.9669Z" fill="white"/>
<path d="M39.0856 12.868C38.5497 12.7022 37.9983 12.5287 37.5665 12.2741L37.4855 12.2472C36.5254 12.1546 35.4921 12.1083 34.4973 12.1083C32.7391 12.1083 31.0117 12.2703 29.3576 12.5942C30.4063 10.3768 31.7481 8.43309 33.1632 6.37758C33.5873 5.76439 34.0115 5.14736 34.4279 4.51875L34.4896 4.42619L34.4433 4.32592C33.9343 3.26539 32.5925 3.08799 31.6093 2.95687L31.2623 2.91059L31.2045 2.94144C29.3576 3.98655 27.0711 4.88897 24.4068 5.62942L23.1267 4.15238L22.9802 4.33364C22.2746 5.21677 21.916 6.11534 21.916 7.00619C21.916 7.83533 21.916 9.38178 23.2694 9.38178H23.5855L23.6434 9.32008C25.151 7.68878 27.6186 7.0756 29.7971 6.53569C29.9205 6.50484 30.0401 6.47399 30.1596 6.44699C29.4463 8.2364 26.967 11.5916 25.8412 13.0609L25.606 13.1341C22.3054 14.1831 16.1594 16.1345 16.1594 20.4653C16.1594 20.9513 16.3213 21.5721 16.6684 21.9809L14.1236 25.5058L11.4361 25.2859L11.8063 25.6562C12.7741 26.6241 12.9707 27.7155 13.1481 28.6758C13.3678 29.8752 13.5568 30.9087 15.1723 31.0475L15.288 31.0591L15.3497 30.9588C15.6851 30.4305 16.0283 29.7942 16.0283 29.0923C16.0283 28.6797 15.9435 28.267 15.8625 27.8698C15.7815 27.4726 15.7044 27.0985 15.7044 26.7244C15.7044 25.4055 16.0784 24.1444 16.4409 22.9258L16.7108 22.0195C16.9151 22.2393 17.1735 22.3936 17.5012 22.4129H17.5436L17.5822 22.4013C21.1487 20.9821 24.4184 18.46 27.8693 14.4608C29.5966 14.0983 31.0965 13.9209 32.4537 13.9209C34.3315 13.9209 35.7273 14.2024 36.6025 14.7616C35.5422 16.4816 33.6722 17.8622 30.9037 18.9883C30.2251 18.5255 29.0183 18.4407 27.85 18.3597C27.2408 18.3173 26.6624 18.2787 26.2267 18.1823L26.0956 18.1553L25.4671 19.1618L27.0711 20.3766C27.1097 20.8973 27.1097 21.4295 27.1097 21.9462C27.1097 22.8062 27.0557 23.5621 26.9439 24.1868C24.8309 25.3361 22.4288 26.1421 19.7992 26.5817L19.4908 26.6319L19.6758 26.8864C20.2349 27.6423 21.3454 27.7387 22.425 27.8312C22.9956 27.8814 23.5354 27.9276 23.9441 28.0703L23.9865 28.0858L25.8296 27.8158C23.6742 30.9087 19.271 35.0313 16.0476 36.2924L16.0052 36.3078L15.9743 36.3425C15.5618 36.8053 15.5078 37.4416 15.5078 38.0008C15.5078 38.4173 15.5772 39.1809 16.0399 39.5858L16.1363 39.6668L16.2519 39.6128C20.6089 37.5804 25.3399 35.5943 31.0194 35.5943C31.806 35.5943 32.6041 35.6406 33.3676 35.6869C34.9253 35.8257 36.5061 36.1034 38.06 36.516C38.2875 36.5855 38.5227 36.6703 38.7617 36.7551C39.1473 36.894 39.5483 37.0367 39.93 37.1254H40.25C41.079 37.1292 41.4646 36.7436 41.4646 35.9183C41.4646 33.1416 36.7143 31.9654 34.8212 31.9654C34.5127 31.9654 34.1657 32.0425 33.8302 32.1158C33.5796 32.1736 33.3406 32.2238 33.1246 32.2431C31.86 32.4166 30.5683 32.4706 29.3113 32.513C29.319 32.1196 29.319 31.7494 29.319 31.3946C29.319 28.7645 29.3267 27.1795 32.3034 25.7873C32.901 25.5096 33.6452 25.1664 34.1117 24.4915C34.1773 24.3565 34.1773 24.2755 34.1773 24.1714C34.1773 22.9913 31.7559 22.9566 31.4782 22.9566C31.0811 22.9566 30.7032 22.9566 30.2984 22.9875C30.2791 22.7985 30.2791 22.6173 30.2791 22.4051C30.2791 21.7187 30.549 21.2791 31.0772 21.1017L31.1852 21.0669L31.4166 19.7326C33.9035 19.1657 38.4147 17.9663 41.6458 16.1191L41.7306 16.0728L41.7923 15.583V15.3979C41.7923 13.7011 40.3541 13.2537 39.0856 12.8565V12.868ZM24.0906 15.3863C22.8452 17.1449 20.8403 18.6451 18.8276 19.3045C18.762 19.1464 18.7312 19.0114 18.7312 18.8919C18.7312 16.8518 22.2592 15.8375 24.0906 15.3902V15.3863ZM26.6316 30.3688C26.593 31.2172 26.5468 32.0888 26.4349 32.9835C25.2474 33.3036 24.0752 33.7278 22.9416 34.1366C21.9044 34.5107 20.8403 34.8963 19.7645 35.201C20.821 34.449 21.8929 33.7008 22.9378 32.9719C24.1523 32.1235 25.4093 31.2481 26.6316 30.3727V30.3688Z" fill="white"/>
</svg>
