<svg width="339" height="102" viewBox="0 0 339 102" fill="none" xmlns="http://www.w3.org/2000/svg">
<path d="M9.87 25.113H60.41V86.853H49.42V35.403H20.37V86.853H9.87V25.113ZM17.08 48.213H53.97V58.293H17.08V48.213ZM17.08 71.943H53.97V82.233H17.08V71.943ZM73.85 34.143H136.29V44.503H73.85V34.143ZM88.48 66.203H120.96V76.563H88.48V66.203ZM99.54 21.193H110.39V87.693H99.54V21.193ZM96.53 37.993L105.91 40.933C99.96 56.403 90.65 69.773 78.33 77.823C76.58 75.303 73.22 71.383 70.91 69.353C82.32 62.913 91.91 50.523 96.53 37.993ZM113.4 38.203C118.23 50.173 128.03 62.003 139.58 68.303C137.06 70.403 133.42 74.673 131.67 77.543C119.42 69.633 110.18 56.263 104.09 41.213L113.4 38.203ZM143.43 52.763C156.17 49.543 166.18 45.203 174.02 40.443C181.09 36.103 189.63 28.543 194.04 23.223L203.21 31.973C196.56 38.483 187.39 45.483 179.13 50.313C171.08 55.003 159.6 60.323 148.68 63.473L143.43 52.763ZM172.34 45.903L184.52 43.243V74.533C184.52 77.893 184.66 82.723 185.22 84.683H171.78C172.06 82.793 172.34 77.893 172.34 74.533V45.903ZM220.15 29.873C225.54 29.943 236.46 29.943 244.23 28.753C251.65 27.633 258.09 26.163 261.66 24.413L268.59 33.723C265.72 34.423 263.62 34.983 262.36 35.263C257.88 36.453 252.84 37.223 247.59 37.993C239.54 39.113 228.83 39.463 222.81 39.603L220.15 29.873ZM222.67 78.453C235.27 72.713 240.59 63.263 240.59 50.873C240.59 50.873 240.59 47.303 240.59 37.223L251.79 36.033C251.79 42.333 251.79 50.663 251.79 50.663C251.79 64.313 247.31 77.263 233.52 85.733L222.67 78.453ZM215.04 46.673C217.14 46.883 219.45 47.093 221.69 47.093C226.03 47.093 263.62 47.093 268.52 47.093C269.99 47.093 273.7 46.813 275.31 46.673V57.523C273.21 57.383 270.76 57.243 268.73 57.243C264.18 57.243 225.82 57.243 221.76 57.243C219.66 57.243 216.93 57.383 215.04 57.523V46.673Z" fill="black"/>
<path d="M303.871 72.9047L293.589 70.6337C294.008 68.7923 294.254 67.9257 294.443 66.8624C294.617 65.8877 294.617 65.8877 295.315 60.4244L299.446 30.026C299.964 26.0884 300.489 21.5998 300.579 19.0411L314.991 22.2244C314.302 24.5586 313.13 29.0885 312.277 32.8599L305.685 62.7148C304.579 67.9038 304.579 67.9038 304.358 69.1443C304.169 70.2076 304.011 71.0937 303.871 72.9047ZM301.649 92.5816L288.906 89.7671L291.066 77.6278L303.809 80.4423L301.649 92.5816Z" fill="black"/>
<path d="M322.509 72.9047L312.227 70.6337C312.646 68.7923 312.892 67.9257 313.081 66.8624C313.254 65.8877 313.254 65.8877 313.952 60.4244L318.083 30.026C318.602 26.0884 319.126 21.5998 319.216 19.0411L333.629 22.2244C332.94 24.5586 331.768 29.0885 330.914 32.8599L324.323 62.7148C323.216 67.9038 323.216 67.9038 322.996 69.1443C322.806 70.2076 322.649 71.0937 322.509 72.9047ZM320.286 92.5816L307.543 89.7671L309.704 77.6278L322.446 80.4423L320.286 92.5816Z" fill="black"/>
</svg>
