<?xml version="1.0" encoding="UTF-8"?><svg id="a" xmlns="http://www.w3.org/2000/svg" width="267" height="80" viewBox="0 0 267 80"><path d="m132.897,66.915c-.289,0-.576-.075-.829-.222l-2.64-1.562c-.394-.221-.201-.299-.072-.344.526-.183.633-.225,1.194-.543.058-.033.136-.02.196.015l2.028,1.204c.073.041.177.041.245,0l7.907-4.564c.074-.042.121-.127.121-.214v-9.125c0-.089-.047-.173-.123-.218l-7.903-4.56c-.073-.042-.17-.042-.244,0l-7.902,4.561c-.077.044-.125.13-.125.217v9.125c0,.087.049.17.125.211l2.166,1.252c1.175.587,1.895-.105,1.895-.8v-9.009c0-.128.102-.228.23-.228h1.003c.126,0,.229.1.229.228v9.009c0,1.569-.854,2.468-2.341,2.468-.457,0-.817,0-1.821-.495l-2.073-1.194c-.512-.296-.829-.85-.829-1.442v-9.125c0-.593.317-1.146.829-1.441l7.907-4.569c.5-.283,1.165-.283,1.662,0l7.906,4.569c.512.296.831.848.831,1.441v9.125c0,.593-.319,1.144-.831,1.442l-7.906,4.565c-.253.147-.54.222-.833.222"/><path d="m135.339,60.629c-3.46,0-4.185-1.588-4.185-2.92,0-.127.102-.228.228-.228h1.022c.114,0,.209.082.227.194.154,1.041.615,1.566,2.707,1.566,1.666,0,2.375-.377,2.375-1.261,0-.509-.201-.888-2.79-1.141-2.163-.214-3.502-.692-3.502-2.422,0-1.596,1.345-2.547,3.599-2.547,2.533,0,3.786.879,3.945,2.766.006.065-.017.127-.06.176-.043.046-.104.073-.167.073h-1.026c-.107,0-.2-.076-.222-.179-.246-1.095-.845-1.445-2.469-1.445-1.818,0-2.03.634-2.03,1.108,0,.576.249.743,2.705,1.068,2.43.321,3.584.776,3.584,2.483,0,1.723-1.436,2.71-3.942,2.71"/><path d="m153.832,16.058l-5.022-2.89c-.337-.194-.613-.035-.613.355v13.727l-2.582-1.49c-.339-.196-.893-.196-1.232,0l-8.214,4.742c-.339.196-.616.675-.616,1.067v9.485c0,.391.277.871.616,1.066l8.214,4.743c.339.195.893.195,1.232,0l8.214-4.743c.339-.195.616-.676.616-1.066v-23.935c0-.389-.276-.866-.613-1.06Zm-5.676,21.838c0,.131-.093.291-.206.357l-2.745,1.585c-.113.065-.299.065-.412,0l-2.746-1.585c-.113-.066-.206-.226-.206-.357v-3.17c0-.131.093-.291.206-.357l2.746-1.585c.113-.066.299-.066.412,0l2.745,1.585c.113.066.206.226.206.357v3.17Z"/><path d="m107.833,30.436l-8.214-4.743c-.339-.195-.893-.195-1.232,0l-8.214,4.743c-.338.195-.616.676-.616,1.067v12.874c0,.389.276.548.613.355l5.063-2.919c.337-.195.613-.672.613-1.061v-6.092c0-.131.093-.291.206-.356l2.746-1.585c.113-.065.299-.065.412,0l2.745,1.585c.113.065.206.225.206.356v6.092c0,.389.276.866.613,1.061l5.063,2.919c.337.194.613.035.613-.355v-12.874c0-.391-.277-.871-.616-1.067Z"/><path d="m177.432,31.433c-.004-.024-.01-.048-.015-.072h0c-.001-.005-.003-.01-.003-.015-.012-.053-.028-.106-.048-.159-.001-.004-.003-.008-.004-.012h0c-.015-.039-.031-.077-.049-.115h0c-.025-.053-.054-.105-.086-.154-.007-.011-.014-.022-.021-.033-.021-.03-.041-.059-.063-.087-.018-.023-.036-.046-.056-.067-.012-.013-.023-.026-.036-.039-.029-.031-.059-.059-.091-.085-.007-.007-.015-.012-.022-.018-.036-.028-.072-.055-.11-.077l-1.882-1.087-6.332-3.656c-.339-.196-.893-.196-1.231,0l-8.214,4.742c-.339.196-.616.675-.616,1.067v9.485c0,.391.277.871.616,1.066l2.517,1.453,5.691,3.29c.337.195.888.194,1.225,0l5.059-2.925c.337-.195.337-.513,0-.708l-8.613-4.977c-.113-.066-.206-.226-.206-.357v-3.17c0-.131.093-.291.206-.357l2.745-1.585c.113-.066.299-.066.412,0l2.746,1.585c.113.066.206.226.206.357v2.442c0,.389.276.549.613.354l2.634-1.519h0l2.429-1.4c.337-.194.613-.672.613-1.061v-1.974c0-.044-.005-.089-.011-.135Z"/><path d="m168.114,34.098c-.064-.037-.169-.037-.233,0l-1.554.898c-.064.037-.117.128-.117.202v1.794c0,.074.053.165.117.202l1.554.897c.064.037.169.037.233,0l1.554-.897c.064-.037.117-.128.117-.202v-1.794c0-.074-.053-.165-.117-.202l-1.554-.898Z"/><path d="m121.385,25.776l-8.214,4.742c-.339.195-.616.676-.616,1.066v9.485c0,.391.277.871.616,1.067l8.214,4.743c.338.195.893.195,1.232,0l8.214-4.743c.339-.195.616-.676.616-1.067v-9.485c0-.391-.277-.871-.616-1.066l-8.214-4.742c-.339-.196-.893-.196-1.232,0Z"/><path d="m113.263,30.608h17.476c.39,0,.707.317.707.707v10.022c0,.39-.317.707-.707.707h-17.477c-.39,0-.707-.317-.707-.707v-10.022c0-.391.317-.708.708-.708Z" transform="translate(29.543 123.822) rotate(-60.002)"/><path d="m116.99,26.881h10.022c.39,0,.707.317.707.707v17.477c0,.39-.317.707-.707.707h-10.022c-.39,0-.707-.317-.707-.707v-17.476c0-.391.317-.708.708-.708Z" transform="translate(-1.819 65.864) rotate(-29.999)"/></svg>