<svg width="96" height="106" viewBox="0 0 96 106" fill="none" xmlns="http://www.w3.org/2000/svg">
<g filter="url(#filter0_d_1_245)">
<path d="M32.25 51C34.6811 51 37.0127 50.0342 38.7318 48.3152C40.4509 46.5961 41.4166 44.2645 41.4166 41.8334C41.4166 39.4022 40.4509 37.0706 38.7318 35.3515C37.0127 33.6325 34.6811 32.6667 32.25 32.6667C29.8188 32.6667 27.4873 33.6325 25.7682 35.3515C24.0491 37.0706 23.0833 39.4022 23.0833 41.8334C23.0833 44.2645 24.0491 46.5961 25.7682 48.3152C27.4873 50.0342 29.8188 51 32.25 51ZM46 0.583344L89.5416 25.7917V76.2084L46 101.417L2.45831 76.2084V25.7917L46 0.583344ZM11.625 31.0763V70.9238L22.4966 77.2167L59.4979 50.0834L80.375 62.6142V31.0808L46 11.1708L11.625 31.0763Z" fill="#73E3DC"/>
</g>
<defs>
<filter id="filter0_d_1_245" x="0.458313" y="0.583344" width="95.0833" height="108.833" filterUnits="userSpaceOnUse" color-interpolation-filters="sRGB">
<feFlood flood-opacity="0" result="BackgroundImageFix"/>
<feColorMatrix in="SourceAlpha" type="matrix" values="0 0 0 0 0 0 0 0 0 0 0 0 0 0 0 0 0 0 127 0" result="hardAlpha"/>
<feOffset dx="2" dy="4"/>
<feGaussianBlur stdDeviation="2"/>
<feComposite in2="hardAlpha" operator="out"/>
<feColorMatrix type="matrix" values="0 0 0 0 0 0 0 0 0 0 0 0 0 0 0 0 0 0 0.25 0"/>
<feBlend mode="normal" in2="BackgroundImageFix" result="effect1_dropShadow_1_245"/>
<feBlend mode="normal" in="SourceGraphic" in2="effect1_dropShadow_1_245" result="shape"/>
</filter>
</defs>
</svg>
