<svg width="73" height="73" viewBox="0 0 73 73" fill="none" xmlns="http://www.w3.org/2000/svg">
<circle cx="36.1615" cy="36.1615" r="27" transform="rotate(-26.2692 36.1615 36.1615)" fill="url(#paint0_linear_53_1671)"/>
<circle cx="36.1435" cy="36.4241" r="24" transform="rotate(-26.2692 36.1435 36.4241)" fill="white"/>
<path d="M16.8701 48.39C18.3101 48.35 19.4101 48.12 20.1901 47.71C20.9701 47.3 21.5301 46.49 21.8701 45.27L27.1401 26.03C27.1901 25.81 27.2301 25.61 27.2501 25.41C27.2701 25.21 27.2801 25.07 27.2801 24.96C27.2801 24.36 27.0901 23.98 26.7001 23.82C26.3101 23.66 25.8201 23.58 25.2301 23.58C24.9401 23.58 24.5201 23.61 23.9601 23.66C23.6601 23.7 23.2501 23.76 22.7301 23.82L22.8101 22.86C25.9201 22.33 27.9501 21.97 28.9101 21.79C29.8701 21.61 31.6201 21.25 34.1801 20.7L27.6901 44.18C27.5701 44.66 27.4601 45.11 27.3601 45.53C27.2601 45.95 27.2201 46.31 27.2201 46.6C27.2201 47.38 27.5801 47.88 28.2901 48.1C28.7401 48.25 29.7301 48.34 31.2401 48.37V49.33H16.8701V48.37V48.39Z" fill="#48B9F5"/>
<path d="M50.3001 43.65C47.7701 47.89 44.8001 50.01 41.3801 50.01C39.5101 50.01 37.9101 49.15 36.5901 47.44C35.2701 45.72 34.6101 43.49 34.6101 40.74C34.6101 35.94 35.8601 31.46 38.3601 27.31C40.9801 22.95 43.9901 20.77 47.3601 20.77C49.4101 20.77 51.0101 21.65 52.1701 23.41C53.3301 25.17 53.9001 27.5 53.9001 30.41C53.9001 35.22 52.7001 39.64 50.2901 43.66L50.3001 43.65ZM44.2501 45.8C44.8001 44.68 45.4901 42.69 46.3401 39.83C47.3501 36.41 48.1401 33.34 48.7201 30.63C49.2901 27.91 49.5801 26.08 49.5801 25.12C49.5801 24.27 49.4801 23.61 49.2701 23.13C48.9601 22.36 48.3801 21.98 47.5501 21.98C46.3901 21.98 45.2701 23.14 44.2101 25.45C43.6101 26.76 42.9001 28.82 42.0801 31.63C41.3601 34.07 40.6501 36.73 39.9701 39.63C39.2901 42.53 38.9401 44.68 38.9401 46.07C38.9401 46.99 39.1701 47.65 39.6201 48.07C40.0701 48.49 40.5601 48.7 41.0801 48.7C42.2601 48.7 43.3201 47.74 44.2601 45.81L44.2501 45.8Z" fill="#48B9F5"/>
<defs>
<linearGradient id="paint0_linear_53_1671" x1="40.8023" y1="-8.75631" x2="36.1615" y2="63.1615" gradientUnits="userSpaceOnUse">
<stop stop-color="#7CD1FE"/>
<stop offset="1" stop-color="#48B9F5"/>
</linearGradient>
</defs>
</svg>
