<svg width="73" height="73" viewBox="0 0 73 73" fill="none" xmlns="http://www.w3.org/2000/svg">
<circle cx="36.1615" cy="36.1615" r="27" transform="rotate(-26.2692 36.1615 36.1615)" fill="url(#paint0_linear_53_1661)"/>
<circle cx="36.1435" cy="36.4241" r="24" transform="rotate(-26.2692 36.1435 36.4241)" fill="white"/>
<path d="M27.6201 40.64C28.9401 39.32 30.7901 38.28 33.1701 37.51V37.3C32.2401 36.33 31.5701 35.49 31.1601 34.78C30.4201 33.54 30.0501 32.2 30.0501 30.78C30.0501 28.67 30.8001 26.87 32.3001 25.37C33.8001 23.87 35.7201 23.11 38.0701 23.11C40.0901 23.11 41.8301 23.62 43.2901 24.64C44.7501 25.66 45.4701 27.19 45.4701 29.24C45.4701 30.95 44.7901 32.39 43.4201 33.57C42.6401 34.24 41.3301 34.99 39.4801 35.81V35.99C40.5201 37.12 41.2801 38.12 41.7801 38.96C42.6601 40.46 43.0901 42.02 43.0901 43.62C43.0901 46.07 42.2401 48.14 40.5301 49.83C38.8201 51.52 36.5101 52.37 33.6001 52.37C31.4001 52.37 29.5201 51.75 27.9701 50.49C26.4201 49.24 25.6401 47.56 25.6401 45.46C25.6401 43.56 26.3001 41.95 27.6201 40.63V40.64ZM37.1801 49.44C37.9701 48.35 38.3601 47.14 38.3601 45.8C38.3601 44.54 38.1201 43.5 37.6501 42.68C37.1801 41.86 36.0601 40.41 34.3001 38.33C32.9701 39.18 31.9801 40.05 31.3101 40.93C30.2401 42.34 29.7101 44.02 29.7101 45.97C29.7101 47.68 30.1101 48.95 30.9001 49.79C31.6901 50.63 32.6401 51.05 33.7501 51.05C35.2501 51.05 36.4001 50.51 37.1901 49.42L37.1801 49.44ZM40.6501 32.49C41.2401 31.38 41.5301 30.23 41.5301 29.04C41.5301 27.48 41.2001 26.33 40.5501 25.58C39.9001 24.83 39.1301 24.46 38.2501 24.46C37.1801 24.46 36.3301 24.85 35.6801 25.62C35.0301 26.39 34.7101 27.35 34.7101 28.48C34.7101 29.61 35.0601 30.76 35.7601 31.78C36.2001 32.44 37.1201 33.47 38.5301 34.88C39.3601 34.26 40.0701 33.46 40.6601 32.48L40.6501 32.49Z" fill="#48B9F5"/>
<defs>
<linearGradient id="paint0_linear_53_1661" x1="40.8023" y1="-8.75631" x2="36.1615" y2="63.1615" gradientUnits="userSpaceOnUse">
<stop stop-color="#7CD1FE"/>
<stop offset="1" stop-color="#48B9F5"/>
</linearGradient>
</defs>
</svg>
