<svg width="224" height="280" viewBox="0 0 224 280" fill="none" xmlns="http://www.w3.org/2000/svg">
<path opacity="0.3" d="M0.223437 280L2.22344 268.4C4.8901 255.067 10.0901 242.933 17.8234 232C25.8234 221.067 35.4234 211.067 46.6234 202C57.8234 192.933 69.6901 184.4 82.2234 176.4C95.0234 168.133 107.557 160.133 119.823 152.4C132.357 144.4 143.69 136.267 153.823 128C163.957 119.467 171.957 110.4 177.823 100.8C183.957 90.9333 187.023 80.1333 187.023 68.4C187.023 57.4666 183.157 48.5333 175.423 41.6C167.69 34.6667 155.957 31.2 140.223 31.2C125.823 31.2 114.09 33.6 105.023 38.4C95.9568 43.2 88.8901 49.6 83.8234 57.6C79.0234 65.3333 75.6901 74 73.8234 83.6L70.6234 100H35.8234C36.8901 84 40.0901 69.8666 45.4234 57.6C51.0234 45.3333 58.4901 34.9333 67.8234 26.4C77.4234 17.8667 88.6234 11.4667 101.423 7.19998C114.223 2.93332 128.357 0.799994 143.823 0.799994C161.957 0.799994 176.89 3.73332 188.623 9.59998C200.357 15.2 209.023 22.9333 214.623 32.8C220.49 42.6667 223.423 53.7333 223.423 66C223.423 80.6667 220.49 94 214.623 106C209.023 117.733 201.423 128.533 191.823 138.4C182.223 148.267 171.423 157.333 159.423 165.6C147.69 173.867 135.823 181.733 123.823 189.2C111.823 196.4 100.49 203.6 89.8234 210.8C79.4234 217.733 70.6234 225.067 63.4234 232.8C61.0234 234.933 58.7568 237.333 56.6234 240C54.4901 242.667 52.7568 245.2 51.4234 247.6H193.823L187.823 280H0.223437Z" fill="#0D24A6"/>
</svg>
