<svg width="73" height="73" viewBox="0 0 73 73" fill="none" xmlns="http://www.w3.org/2000/svg">
<circle cx="36.1615" cy="36.1615" r="27" transform="rotate(-26.2692 36.1615 36.1615)" fill="url(#paint0_linear_53_1651)"/>
<circle cx="36.1435" cy="36.4241" r="24" transform="rotate(-26.2692 36.1435 36.4241)" fill="white"/>
<path d="M46.1499 22.73L44.3 23.45C42.02 24.42 40.01 25.83 38.27 27.66C36.53 29.49 35.28 31.31 34.5 33.08C34.99 32.87 35.44 32.72 35.83 32.63C36.22 32.54 36.7099 32.49 37.2899 32.49C38.6199 32.49 39.8199 32.89 40.8999 33.7C42.5699 34.94 43.3999 36.94 43.3999 39.69C43.3999 42.79 42.38 45.44 40.33 47.64C38.28 49.84 35.87 50.93 33.08 50.93C31.4 50.93 29.9199 50.44 28.6499 49.47C26.6799 47.95 25.7 45.45 25.7 41.96C25.7 37.78 27.1799 33.85 30.1499 30.17C33.8599 25.56 39.11 22.74 45.92 21.7L46.1499 22.73ZM35.19 48.06C35.57 47.47 35.98 46.52 36.42 45.19C36.8 44 37.14 42.85 37.42 41.72C37.92 39.71 38.1799 38.19 38.1799 37.15C38.1799 36.41 38.07 35.83 37.85 35.41C37.45 34.6 36.7 34.2 35.6 34.2C34.75 34.2 34.2 34.31 33.92 34.54C33.65 34.77 33.37 35.22 33.08 35.9C32.32 37.8 31.75 39.39 31.38 40.68C30.77 42.85 30.46 44.85 30.46 46.67C30.46 47.45 30.63 48.12 30.9799 48.68C31.3299 49.24 31.94 49.52 32.81 49.52C33.75 49.52 34.5399 49.03 35.1799 48.06H35.19Z" fill="#48B9F5"/>
<defs>
<linearGradient id="paint0_linear_53_1651" x1="40.8023" y1="-8.75631" x2="36.1615" y2="63.1615" gradientUnits="userSpaceOnUse">
<stop stop-color="#7CD1FE"/>
<stop offset="1" stop-color="#48B9F5"/>
</linearGradient>
</defs>
</svg>
