<svg width="73" height="73" viewBox="0 0 73 73" fill="none" xmlns="http://www.w3.org/2000/svg">
<circle cx="36.1615" cy="36.1615" r="27" transform="rotate(-26.2692 36.1615 36.1615)" fill="url(#paint0_linear_53_1631)"/>
<circle cx="36.1435" cy="36.4241" r="24" transform="rotate(-26.2692 36.1435 36.4241)" fill="white"/>
<path d="M27 49.2915C28.4463 49.2509 29.5595 49.0234 30.3395 48.609C31.1195 48.1946 31.6883 47.382 32.0296 46.1551L37.3354 26.8087C37.3923 26.5894 37.4248 26.3862 37.4492 26.1912C37.4735 25.9962 37.4817 25.85 37.4817 25.7362C37.4817 25.1349 37.2867 24.753 36.8966 24.5905C36.5066 24.4361 36.011 24.3549 35.4178 24.3549C35.1253 24.3549 34.7028 24.3793 34.1422 24.4361C33.8415 24.4768 33.4271 24.5337 32.9071 24.5987L32.9884 23.6317C36.1166 23.0955 38.1642 22.738 39.123 22.5592C40.0818 22.3804 41.8531 22.0148 44.4288 21.4623L37.8961 45.0826C37.7742 45.562 37.6604 46.017 37.5629 46.4476C37.4654 46.8702 37.4167 47.2277 37.4167 47.5202C37.4167 48.3002 37.7742 48.804 38.4892 49.0234C38.9442 49.1777 39.9355 49.2671 41.4631 49.2915V50.2584H27V49.2915Z" fill="#48B9F5"/>
<defs>
<linearGradient id="paint0_linear_53_1631" x1="40.8023" y1="-8.75631" x2="36.1615" y2="63.1615" gradientUnits="userSpaceOnUse">
<stop stop-color="#7CD1FE"/>
<stop offset="1" stop-color="#48B9F5"/>
</linearGradient>
</defs>
</svg>
