<svg width="421" height="284" viewBox="0 0 421 284" fill="none" xmlns="http://www.w3.org/2000/svg">
<path opacity="0.1" d="M210.744 192C197.544 259.2 157.544 284 95.5438 284C43.5438 284 0.343751 254.8 12.3438 192L31.5438 92C45.1438 20.8 87.9437 -1.90735e-05 146.344 -1.90735e-05C202.344 -1.90735e-05 242.344 26.4 229.944 91.6L210.744 192ZM95.9438 99.6L79.5438 184.4C73.9438 214 79.1438 228.8 104.344 228.8C129.144 228.8 139.944 214 145.544 184.4L162.344 99.6C167.944 70 162.744 55.2 137.944 55.2C112.744 55.2 101.944 70 95.9438 99.6ZM334.572 3.99998H409.772L290.972 188H329.372L342.172 122.8H408.572L395.772 188H420.972L410.172 243.2H384.972L377.772 280H311.372L318.572 243.2H194.972L203.772 198L334.572 3.99998Z" fill="white"/>
</svg>
