<svg width="73" height="73" viewBox="0 0 73 73" fill="none" xmlns="http://www.w3.org/2000/svg">
<circle cx="36.1615" cy="36.1615" r="27" transform="rotate(-26.2692 36.1615 36.1615)" fill="url(#paint0_linear_53_1647)"/>
<circle cx="36.1435" cy="36.4241" r="24" transform="rotate(-26.2692 36.1435 36.4241)" fill="white"/>
<path d="M31.64 48.16C32.49 49.57 33.34 50.28 34.19 50.28C35.54 50.28 36.84 49.6 38.11 48.25C39.38 46.9 40.01 45.14 40.01 42.98C40.01 40.82 39.09 38.93 37.26 37.37C35.43 35.81 32.92 35.06 29.74 35.11L35.5 22H47.96L46.39 26.79H35.18L33.7 30.16C36.61 30.65 38.84 31.37 40.39 32.33C43.23 34.12 44.65 36.87 44.65 40.58C44.65 43.83 43.36 46.57 40.78 48.79C38.26 50.97 35.22 52.06 31.65 52.06C30.02 52.06 28.67 51.72 27.6 51.04C26.53 50.36 26 49.5 26 48.47C26 47.78 26.27 47.21 26.79 46.74C27.32 46.27 27.94 46.04 28.66 46.04C29.79 46.04 30.78 46.75 31.64 48.16Z" fill="#48B9F5"/>
<defs>
<linearGradient id="paint0_linear_53_1647" x1="40.8023" y1="-8.75631" x2="36.1615" y2="63.1615" gradientUnits="userSpaceOnUse">
<stop stop-color="#7CD1FE"/>
<stop offset="1" stop-color="#48B9F5"/>
</linearGradient>
</defs>
</svg>
