<svg width="73" height="73" viewBox="0 0 73 73" fill="none" xmlns="http://www.w3.org/2000/svg">
<circle cx="36.1615" cy="36.1615" r="27" transform="rotate(-26.2692 36.1615 36.1615)" fill="url(#paint0_linear_53_1635)"/>
<circle cx="36.1435" cy="36.4241" r="24" transform="rotate(-26.2692 36.1435 36.4241)" fill="white"/>
<path d="M26 48.95C26.3783 48.563 27.5286 47.4177 29.451 45.5221C30.7017 44.282 31.7363 43.2 32.5469 42.2916C35.473 38.9901 37.3876 36.51 38.2909 34.8592C39.1942 33.2084 39.642 31.6366 39.642 30.1596C39.642 28.7932 39.3332 27.6953 38.7233 26.8581C38.1057 26.0208 37.1329 25.6022 35.805 25.6022C34.5928 25.6022 33.4888 26.0129 32.4929 26.8423C31.9061 27.3399 31.2576 28.0902 30.5551 29.1091L29.6749 28.651C30.4315 27.0081 31.3734 25.6259 32.5006 24.4964C34.2223 22.7825 36.191 21.9294 38.399 21.9294C40.6071 21.9294 42.128 22.6403 43.2783 24.062C44.4287 25.4837 45 27.0634 45 28.7853C45 30.6572 44.4287 32.4107 43.2861 34.0536C42.1434 35.6885 40.7924 37.1892 39.2406 38.532L31.3966 45.372H37.3336C38.8623 45.372 40.0126 45.1509 40.7846 44.7007C41.5567 44.2505 42.2592 43.3816 42.9 42.0863H43.9423L40.7692 49.9294H26.0077V48.95H26Z" fill="#48B9F5"/>
<defs>
<linearGradient id="paint0_linear_53_1635" x1="40.8023" y1="-8.75631" x2="36.1615" y2="63.1615" gradientUnits="userSpaceOnUse">
<stop stop-color="#7CD1FE"/>
<stop offset="1" stop-color="#48B9F5"/>
</linearGradient>
</defs>
</svg>
