<svg width="417" height="284" viewBox="0 0 417 284" fill="none" xmlns="http://www.w3.org/2000/svg">
<path opacity="0.1" d="M210.744 192C197.544 259.2 157.544 284 95.5438 284C43.5438 284 0.343751 254.8 12.3438 192L31.5438 92C45.1438 20.8 87.9437 -1.90735e-05 146.344 -1.90735e-05C202.344 -1.90735e-05 242.344 26.4 229.944 91.6L210.744 192ZM95.9438 99.6L79.5438 184.4C73.9438 214 79.1438 228.8 104.344 228.8C129.144 228.8 139.944 214 145.544 184.4L162.344 99.6C167.944 70 162.744 55.2 137.944 55.2C112.744 55.2 101.944 70 95.9438 99.6ZM408.972 3.99998L325.772 112.8C335.372 110 342.972 108.8 350.972 108.8C387.772 108.8 416.572 138 416.572 182.8C416.572 255.2 359.772 284 300.572 284C250.572 284 213.772 256.4 213.772 210.4C213.772 180 224.572 149.6 260.572 102.8L336.572 3.99998H408.972ZM280.972 202.8C280.972 218 289.372 228.8 308.572 228.8C336.572 228.8 348.572 209.6 348.572 188C348.572 173.2 340.572 162.4 321.772 162.4C293.772 162.4 280.972 181.2 280.972 202.8Z" fill="white"/>
</svg>
