<svg width="73" height="73" viewBox="0 0 73 73" fill="none" xmlns="http://www.w3.org/2000/svg">
<circle cx="36.1615" cy="36.1615" r="27" transform="rotate(-26.2692 36.1615 36.1615)" fill="url(#paint0_linear_53_1666)"/>
<circle cx="36.1435" cy="36.4241" r="24" transform="rotate(-26.2692 36.1435 36.4241)" fill="white"/>
<path d="M45.58 36.13C44.53 39.3 42.71 42.12 40.12 44.56C37.88 46.69 35.36 48.3 32.55 49.36C30.96 49.96 28.87 50.49 26.25 50.94L26 49.87C29.32 48.8 32.12 47.03 34.39 44.56C35.8 43.04 36.89 41.39 37.67 39.62C37.19 39.83 36.78 39.97 36.44 40.06C36.1 40.15 35.64 40.19 35.07 40.19C33.43 40.19 31.97 39.62 30.7 38.47C29.43 37.32 28.79 35.62 28.79 33.38C28.79 30.22 29.82 27.49 31.88 25.2C33.94 22.91 36.3 21.76 38.97 21.76C41.64 21.76 43.4 22.58 44.63 24.22C45.86 25.86 46.48 28.09 46.48 30.89C46.48 32.56 46.18 34.3 45.58 36.12V36.13ZM41.36 23.92C41.05 23.36 40.46 23.08 39.62 23.08C37.83 23.08 36.37 25.04 35.23 28.97C34.44 31.72 34.04 33.87 34.04 35.42C34.04 36.53 34.28 37.3 34.76 37.74C35.24 38.18 35.89 38.4 36.71 38.4C37.65 38.4 38.31 38.16 38.68 37.69C39.05 37.22 39.6 35.9 40.34 33.74C40.9 32.12 41.29 30.66 41.51 29.33C41.73 28.01 41.84 26.88 41.84 25.93C41.84 25.15 41.68 24.48 41.37 23.92H41.36Z" fill="#48B9F5"/>
<defs>
<linearGradient id="paint0_linear_53_1666" x1="40.8023" y1="-8.75631" x2="36.1615" y2="63.1615" gradientUnits="userSpaceOnUse">
<stop stop-color="#7CD1FE"/>
<stop offset="1" stop-color="#48B9F5"/>
</linearGradient>
</defs>
</svg>
