<svg width="397" height="284" viewBox="0 0 397 284" fill="none" xmlns="http://www.w3.org/2000/svg">
<path opacity="0.2" d="M210.744 192C197.544 259.2 157.544 284 95.5438 284C43.5438 284 0.343751 254.8 12.3438 192L31.5438 92C45.1438 20.8 87.9437 -1.90735e-05 146.344 -1.90735e-05C202.344 -1.90735e-05 242.344 26.4 229.944 91.6L210.744 192ZM95.9438 99.6L79.5438 184.4C73.9438 214 79.1438 228.8 104.344 228.8C129.144 228.8 139.944 214 145.544 184.4L162.344 99.6C167.944 70 162.744 55.2 137.944 55.2C112.744 55.2 101.944 70 95.9438 99.6ZM396.172 3.99998L342.572 280H276.172L316.172 74L271.772 98.4L284.172 34.4L337.772 3.99998H396.172Z" fill="white"/>
</svg>
