<svg width="435" height="284" viewBox="0 0 435 284" fill="none" xmlns="http://www.w3.org/2000/svg">
<path opacity="0.1" d="M210.744 192C197.544 259.2 157.544 284 95.5438 284C43.5438 284 0.343751 254.8 12.3438 192L31.5438 92C45.1438 20.8 87.9437 -1.90735e-05 146.344 -1.90735e-05C202.344 -1.90735e-05 242.344 26.4 229.944 91.6L210.744 192ZM95.9438 99.6L79.5438 184.4C73.9438 214 79.1438 228.8 104.344 228.8C129.144 228.8 139.944 214 145.544 184.4L162.344 99.6C167.944 70 162.744 55.2 137.944 55.2C112.744 55.2 101.944 70 95.9438 99.6ZM212.172 216C212.172 178.8 236.172 148.8 267.372 134.8C252.572 125.2 241.372 107.6 241.372 86.4C241.372 30.4 292.572 -1.90735e-05 352.572 -1.90735e-05C396.572 -1.90735e-05 434.572 24.8 434.572 65.2C434.572 95.2 414.972 124.4 384.572 138.8C398.972 148 413.772 166.4 413.772 191.6C413.772 252 363.772 284 297.372 284C249.372 284 212.172 258 212.172 216ZM280.572 201.2C280.572 217.2 291.372 229.2 308.172 229.2C328.572 229.2 348.572 211.6 348.572 190.4C348.572 173.2 335.372 162.4 320.972 162.4C302.572 162.4 280.572 177.6 280.572 201.2ZM306.172 88.8C306.172 102.8 316.172 113.6 330.572 113.6C348.572 113.6 366.172 98 366.172 79.6C366.172 66 356.172 55.2 341.772 55.2C323.372 55.2 306.172 70.4 306.172 88.8Z" fill="white"/>
</svg>
