<svg width="73" height="73" viewBox="0 0 73 73" fill="none" xmlns="http://www.w3.org/2000/svg">
<circle cx="36.1615" cy="36.1615" r="27" transform="rotate(-26.2692 36.1615 36.1615)" fill="url(#paint0_linear_53_1683)"/>
<circle cx="36.1435" cy="36.4241" r="24" transform="rotate(-26.2692 36.1435 36.4241)" fill="white"/>
<path d="M17 48.69C18.44 48.65 19.54 48.42 20.32 48.01C21.1 47.6 21.66 46.79 22 45.57L27.27 26.33C27.32 26.11 27.36 25.91 27.38 25.71C27.4 25.51 27.41 25.37 27.41 25.26C27.41 24.66 27.22 24.28 26.83 24.12C26.44 23.96 25.95 23.88 25.36 23.88C25.07 23.88 24.65 23.91 24.09 23.96C23.79 24 23.38 24.06 22.86 24.12L22.94 23.16C26.05 22.63 28.08 22.27 29.04 22.09C29.99 21.91 31.75 21.55 34.31 21L27.82 44.48C27.7 44.96 27.59 45.41 27.49 45.83C27.39 46.25 27.35 46.61 27.35 46.9C27.35 47.68 27.71 48.18 28.42 48.4C28.87 48.55 29.86 48.64 31.37 48.67V49.63H17V48.67V48.69Z" fill="#48B9F5"/>
<path d="M32.02 48.65C32.42 48.25 33.62 47.08 35.63 45.14C36.94 43.87 38.02 42.77 38.87 41.84C41.93 38.46 43.94 35.93 44.88 34.24C45.82 32.55 46.3 30.95 46.3 29.43C46.3 28.04 45.98 26.91 45.34 26.06C44.7 25.21 43.68 24.78 42.28 24.78C41.01 24.78 39.85 25.2 38.81 26.05C38.19 26.56 37.52 27.33 36.78 28.37L35.86 27.9C36.65 26.22 37.64 24.8 38.81 23.65C40.61 21.9 42.67 21.03 44.98 21.03C47.29 21.03 48.88 21.76 50.09 23.21C51.3 24.66 51.89 26.28 51.89 28.04C51.89 29.95 51.29 31.75 50.1 33.42C48.91 35.09 47.49 36.62 45.87 38L37.67 44.99H43.88C45.48 44.99 46.68 44.76 47.49 44.3C48.3 43.84 49.03 42.95 49.7 41.62H50.79L47.47 49.64H32.03V48.64L32.02 48.65Z" fill="#48B9F5"/>
<defs>
<linearGradient id="paint0_linear_53_1683" x1="40.8023" y1="-8.75631" x2="36.1615" y2="63.1615" gradientUnits="userSpaceOnUse">
<stop stop-color="#7CD1FE"/>
<stop offset="1" stop-color="#48B9F5"/>
</linearGradient>
</defs>
</svg>
