<svg width="73" height="73" viewBox="0 0 73 73" fill="none" xmlns="http://www.w3.org/2000/svg">
<circle cx="36.1615" cy="36.1615" r="27" transform="rotate(-26.2692 36.1615 36.1615)" fill="url(#paint0_linear_53_1639)"/>
<circle cx="36.1435" cy="36.4241" r="24" transform="rotate(-26.2692 36.1435 36.4241)" fill="white"/>
<path d="M26.65 46.16C27.09 45.73 27.65 45.51 28.35 45.51C28.97 45.51 29.48 45.65 29.91 45.94C30.34 46.23 30.81 46.76 31.35 47.55L31.94 48.37C32.3 48.88 32.61 49.2 32.88 49.34C33.15 49.48 33.52 49.55 33.97 49.55C35.24 49.55 36.34 48.89 37.26 47.58C38.18 46.27 38.64 44.61 38.64 42.61C38.64 40.13 37.94 38.41 36.54 37.46C35.14 36.5 33.65 36.04 32.08 36.08L32.22 35.16C34.48 34.65 36.14 34.08 37.22 33.44C39.16 32.31 40.13 30.71 40.13 28.66C40.13 27.53 39.83 26.63 39.22 25.96C38.61 25.29 37.75 24.97 36.65 24.97C35.65 24.97 34.76 25.23 33.98 25.74C33.2 26.25 32.41 27.05 31.62 28.13L30.76 27.6C31.68 26.22 32.56 25.13 33.41 24.32C34.97 22.78 36.95 22 39.36 22C41 22 42.45 22.51 43.71 23.52C44.97 24.53 45.6 25.93 45.6 27.7C45.6 28.99 45.17 30.17 44.32 31.25C43.47 32.33 42.38 33.17 41.07 33.77L40.58 34C41.56 34.74 42.38 35.6 43.04 36.59C43.7 37.58 44.02 38.79 44.02 40.23C44.02 43.13 42.76 45.72 40.23 48C37.81 50.17 34.88 51.26 31.45 51.26C29.34 51.26 27.81 50.78 26.86 49.8C26.29 49.21 26 48.56 26 47.83C26 47.15 26.22 46.59 26.66 46.16H26.65Z" fill="#48B9F5"/>
<defs>
<linearGradient id="paint0_linear_53_1639" x1="40.8023" y1="-8.75631" x2="36.1615" y2="63.1615" gradientUnits="userSpaceOnUse">
<stop stop-color="#7CD1FE"/>
<stop offset="1" stop-color="#48B9F5"/>
</linearGradient>
</defs>
</svg>
