<svg width="426" height="284" viewBox="0 0 426 284" fill="none" xmlns="http://www.w3.org/2000/svg">
<path opacity="0.2" d="M210.744 192C197.544 259.2 157.544 284 95.5438 284C43.5438 284 0.343751 254.8 12.3438 192L31.5438 92C45.1438 20.8 87.9437 -1.90735e-05 146.344 -1.90735e-05C202.344 -1.90735e-05 242.344 26.4 229.944 91.6L210.744 192ZM95.9438 99.6L79.5438 184.4C73.9438 214 79.1438 228.8 104.344 228.8C129.144 228.8 139.944 214 145.544 184.4L162.344 99.6C167.944 70 162.744 55.2 137.944 55.2C112.744 55.2 101.944 70 95.9438 99.6ZM287.772 165.2L298.572 110H320.172C339.372 110 358.172 99.2 358.172 76.4C358.172 62.8 348.572 54.4 333.772 54.4C317.372 54.4 305.772 64.4 299.772 78.8H242.572C252.572 32.8 292.972 -1.90735e-05 348.172 -1.90735e-05C395.372 -1.90735e-05 425.772 35.2 425.772 69.2C425.772 105.6 399.372 128.4 376.972 138.4C392.972 148.8 405.772 164.8 405.772 190.8C405.772 241.6 367.772 284 296.172 284C241.372 284 211.372 253.2 214.572 203.6H271.772C270.972 218.8 280.972 228.8 301.772 228.8C326.172 228.8 340.172 210.8 340.172 190.4C340.172 174.4 330.172 165.2 309.372 165.2H287.772Z" fill="white"/>
</svg>
