<svg width="435" height="284" viewBox="0 0 435 284" fill="none" xmlns="http://www.w3.org/2000/svg">
<path opacity="0.2" d="M210.744 192C197.544 259.2 157.544 284 95.5438 284C43.5438 284 0.343751 254.8 12.3438 192L31.5438 92C45.1438 20.8 87.9437 -1.90735e-05 146.344 -1.90735e-05C202.344 -1.90735e-05 242.344 26.4 229.944 91.6L210.744 192ZM95.9438 99.6L79.5438 184.4C73.9438 214 79.1438 228.8 104.344 228.8C129.144 228.8 139.944 214 145.544 184.4L162.344 99.6C167.944 70 162.744 55.2 137.944 55.2C112.744 55.2 101.944 70 95.9438 99.6ZM326.572 143.2C314.172 143.2 305.772 150.4 298.172 163.6H238.572L269.372 3.99998H434.572L423.372 62.4H323.372L316.972 94.8C325.372 90.4 337.372 84.8 354.572 84.8C389.372 84.8 413.372 111.6 413.372 157.6C413.372 235.6 382.572 284 302.172 284C253.772 284 218.172 254.8 220.972 206H286.572C287.372 220.4 293.772 228.8 309.772 228.8C330.972 228.8 344.972 204.4 344.972 170C344.972 152.4 338.972 143.2 326.572 143.2Z" fill="white"/>
</svg>
