<svg width="73" height="73" viewBox="0 0 73 73" fill="none" xmlns="http://www.w3.org/2000/svg">
<circle cx="36.1615" cy="36.1615" r="27" transform="rotate(-26.2692 36.1615 36.1615)" fill="url(#paint0_linear_53_1677)"/>
<circle cx="36.1435" cy="36.4241" r="24" transform="rotate(-26.2692 36.1435 36.4241)" fill="white"/>
<path d="M18.1699 48.39C19.6099 48.35 20.7099 48.12 21.4899 47.71C22.2699 47.3 22.8299 46.49 23.1699 45.27L28.4399 26.03C28.4899 25.81 28.5299 25.61 28.5499 25.41C28.5699 25.21 28.5799 25.07 28.5799 24.96C28.5799 24.36 28.3899 23.98 27.9999 23.82C27.6099 23.66 27.1199 23.58 26.5299 23.58C26.2399 23.58 25.8199 23.61 25.2599 23.66C24.9599 23.7 24.5499 23.76 24.0299 23.82L24.1099 22.86C27.2199 22.33 29.2499 21.97 30.2099 21.79C31.1599 21.61 32.9199 21.25 35.4799 20.7L28.9899 44.18C28.8699 44.66 28.7599 45.11 28.6599 45.53C28.5599 45.95 28.5199 46.31 28.5199 46.6C28.5199 47.38 28.8799 47.88 29.5899 48.1C30.0399 48.25 31.0299 48.34 32.5399 48.37V49.33H18.1699V48.37V48.39Z" fill="#48B9F5"/>
<path d="M34.5498 48.39C35.9898 48.35 37.0898 48.12 37.8698 47.71C38.6498 47.3 39.2098 46.49 39.5498 45.27L44.8198 26.03C44.8698 25.81 44.9098 25.61 44.9298 25.41C44.9498 25.21 44.9598 25.07 44.9598 24.96C44.9598 24.36 44.7698 23.98 44.3798 23.82C43.9898 23.66 43.4998 23.58 42.9098 23.58C42.6198 23.58 42.1998 23.61 41.6398 23.66C41.3398 23.7 40.9298 23.76 40.4098 23.82L40.4898 22.86C43.5998 22.33 45.6298 21.97 46.5898 21.79C47.5398 21.61 49.2998 21.25 51.8598 20.7L45.3698 44.18C45.2498 44.66 45.1398 45.11 45.0398 45.53C44.9398 45.95 44.8998 46.31 44.8998 46.6C44.8998 47.38 45.2598 47.88 45.9698 48.1C46.4198 48.25 47.4098 48.34 48.9198 48.37V49.33H34.5498V48.37V48.39Z" fill="#48B9F5"/>
<defs>
<linearGradient id="paint0_linear_53_1677" x1="40.8023" y1="-8.75631" x2="36.1615" y2="63.1615" gradientUnits="userSpaceOnUse">
<stop stop-color="#7CD1FE"/>
<stop offset="1" stop-color="#48B9F5"/>
</linearGradient>
</defs>
</svg>
