<svg width="429" height="284" viewBox="0 0 429 284" fill="none" xmlns="http://www.w3.org/2000/svg">
<path opacity="0.1" d="M210.744 192C197.544 259.2 157.544 284 95.5438 284C43.5438 284 0.343751 254.8 12.3438 192L31.5438 92C45.1438 20.8 87.9437 -1.90735e-05 146.344 -1.90735e-05C202.344 -1.90735e-05 242.344 26.4 229.944 91.6L210.744 192ZM95.9438 99.6L79.5438 184.4C73.9438 214 79.1438 228.8 104.344 228.8C129.144 228.8 139.944 214 145.544 184.4L162.344 99.6C167.944 70 162.744 55.2 137.944 55.2C112.744 55.2 101.944 70 95.9438 99.6ZM394.172 224.8L383.372 280H209.372L216.972 240.8L327.772 134.8C354.172 109.6 361.372 92.8 361.372 77.2C361.372 62 350.572 54.4 336.972 54.4C320.572 54.4 307.372 64.4 302.172 82.8H244.972C252.572 33.6 296.172 -1.90735e-05 350.572 -1.90735e-05C397.772 -1.90735e-05 428.172 26 428.172 67.2C428.172 116.8 395.772 146.4 369.372 171.6L312.972 224.8H394.172Z" fill="white"/>
</svg>
