<svg width="214" height="285" viewBox="0 0 214 285" fill="none" xmlns="http://www.w3.org/2000/svg">
<path opacity="0.3" d="M89.9516 284.8C70.7516 284.8 54.4849 282.267 41.1516 277.2C27.8182 272.133 17.6849 264.8 10.7516 255.2C3.81823 245.6 0.351563 233.867 0.351563 220C0.351563 217.333 0.484896 214.4 0.751563 211.2C1.2849 207.733 1.95156 203.733 2.75156 199.2H37.9516C37.4182 202.933 37.0182 206.267 36.7516 209.2C36.4849 211.867 36.3516 214.267 36.3516 216.4C36.3516 229.733 40.8849 239.6 49.9516 246C59.2849 252.133 72.0849 255.2 88.3516 255.2C102.218 255.2 114.485 253.067 125.152 248.8C136.085 244.267 144.618 237.467 150.752 228.4C157.152 219.333 160.352 208 160.352 194.4C160.352 184.267 157.685 176.4 152.352 170.8C147.018 165.2 140.085 161.333 131.552 159.2C123.018 156.8 113.818 155.6 103.952 155.6H75.1516L80.3516 125.6H110.352C119.418 125.6 127.818 124.4 135.552 122C143.552 119.6 150.618 116 156.752 111.2C162.885 106.133 167.685 99.8667 171.152 92.4C174.885 84.9333 176.752 76.2667 176.752 66.4C176.752 58.1333 174.618 51.4667 170.352 46.4C166.352 41.0667 160.752 37.2 153.552 34.8C146.618 32.4 138.752 31.2 129.952 31.2C118.752 31.2 108.485 33.0667 99.1516 36.8C90.0849 40.2667 82.4849 45.4667 76.3516 52.4C70.4849 59.3333 66.7516 68 65.1516 78.4L64.3516 84.4H28.7516L29.9516 78.4C32.3516 61.8667 38.3516 47.8667 47.9516 36.4C57.8182 24.9333 69.9516 16.1333 84.3516 10C99.0182 3.86666 114.885 0.799994 131.952 0.799994C148.218 0.799994 162.485 3.2 174.752 8C187.018 12.8 196.485 19.8666 203.152 29.2C210.085 38.5333 213.552 50.1333 213.552 64C213.552 77.3333 210.885 88.8 205.552 98.4C200.485 108 193.552 116 184.752 122.4C175.952 128.533 166.218 133.6 155.552 137.6V139.2C167.552 143.2 177.418 150 185.152 159.6C192.885 168.933 196.752 180.933 196.752 195.6C196.752 214 191.952 229.867 182.352 243.2C173.018 256.533 160.218 266.8 143.952 274C127.952 281.2 109.952 284.8 89.9516 284.8Z" fill="#0D24A6"/>
</svg>
