<svg width="385" height="132" viewBox="0 0 385 132" fill="none" xmlns="http://www.w3.org/2000/svg">
<path d="M37.1694 125.344C18.3534 125.344 5.39338 111.232 5.39338 88.192C5.39338 65.056 18.3534 51.616 37.1694 51.616C55.9854 51.616 68.9454 65.152 68.9454 88.192C68.9454 111.232 55.9854 125.344 37.1694 125.344ZM37.1694 113.056C47.7294 113.056 54.4494 103.36 54.4494 88.192C54.4494 72.928 47.7294 63.808 37.1694 63.808C26.6094 63.808 19.8894 72.928 19.8894 88.192C19.8894 103.36 26.6094 113.056 37.1694 113.056ZM87.6204 124V52.96H131.396V64.768H101.828V83.296H127.076V95.2H101.828V124H87.6204Z" fill="#6DB8F7"/>
<path d="M175.127 124V52.96H189.335V112.096H218.135V124H175.127ZM247.429 125.344C237.829 125.344 231.493 118.528 231.493 109.408C231.493 97.888 240.805 91.84 262.405 89.536C262.213 84.256 259.909 80.224 253.285 80.224C248.293 80.224 243.493 82.432 238.501 85.312L233.413 76C239.749 72.064 247.429 68.896 255.877 68.896C269.509 68.896 276.517 77.056 276.517 92.608V124H264.997L263.941 118.24H263.653C258.949 122.272 253.573 125.344 247.429 125.344ZM252.037 114.304C256.069 114.304 259.045 112.384 262.405 109.024V98.176C249.349 99.904 244.933 103.456 244.933 108.256C244.933 112.48 247.909 114.304 252.037 114.304ZM322.676 125.344C317.876 125.344 312.692 122.848 308.276 118.336H307.988L306.74 124H295.7V47.392H309.716V66.688L309.428 75.328C313.652 71.488 319.028 68.896 324.308 68.896C337.556 68.896 345.524 79.744 345.524 96.16C345.524 114.688 334.484 125.344 322.676 125.344ZM319.508 113.728C326.036 113.728 331.028 108.16 331.028 96.448C331.028 86.176 327.764 80.512 320.372 80.512C316.724 80.512 313.46 82.336 309.716 86.08V109.696C313.076 112.672 316.628 113.728 319.508 113.728ZM369.124 125.344C364.132 125.344 360.388 121.312 360.388 116.128C360.388 110.944 364.132 106.912 369.124 106.912C374.212 106.912 377.956 110.944 377.956 116.128C377.956 121.312 374.212 125.344 369.124 125.344Z" fill="#FC5291"/>
<path d="M59.024 3.164C58.952 3.716 58.892 4.316 58.844 4.964C58.82 5.612 58.808 6.224 58.808 6.8C58.832 7.808 58.856 8.9 58.88 10.076C58.904 11.252 58.928 12.5 58.952 13.82C59 15.14 59.036 16.496 59.06 17.888C59.084 19.256 59.108 20.636 59.132 22.028C59.156 23.396 59.18 24.752 59.204 26.096C59.228 27.416 59.252 28.688 59.276 29.912C59.3 31.064 58.976 31.952 58.304 32.576C57.632 33.224 56.612 33.548 55.244 33.548C54.164 33.548 53.108 33.524 52.076 33.476C51.044 33.452 50.012 33.404 48.98 33.332L48.584 28.652C49.4 28.796 50.252 28.904 51.14 28.976C52.028 29.048 52.772 29.084 53.372 29.084C53.828 29.084 54.152 28.964 54.344 28.724C54.536 28.484 54.632 28.1 54.632 27.572C54.632 26.756 54.632 25.82 54.632 24.764C54.632 23.684 54.62 22.544 54.596 21.344C54.596 20.12 54.584 18.872 54.56 17.6C54.536 16.304 54.512 15.02 54.488 13.748C54.464 12.476 54.428 11.252 54.38 10.076C54.356 8.9 54.32 7.808 54.272 6.8C54.224 6.008 54.164 5.324 54.092 4.748C54.044 4.148 53.984 3.62 53.912 3.164H59.024ZM38.468 9.14C38.996 9.212 39.632 9.272 40.376 9.32C41.144 9.368 41.84 9.392 42.464 9.392C42.824 9.392 43.436 9.392 44.3 9.392C45.164 9.392 46.184 9.392 47.36 9.392C48.56 9.392 49.832 9.392 51.176 9.392C52.52 9.392 53.852 9.392 55.172 9.392C56.492 9.392 57.728 9.392 58.88 9.392C60.032 9.392 61.004 9.392 61.796 9.392C62.588 9.392 63.104 9.392 63.344 9.392C63.92 9.392 64.58 9.368 65.324 9.32C66.068 9.248 66.656 9.176 67.088 9.104V13.892C66.512 13.868 65.9 13.844 65.252 13.82C64.628 13.796 64.076 13.784 63.596 13.784C63.38 13.784 62.876 13.784 62.084 13.784C61.292 13.784 60.308 13.784 59.132 13.784C57.98 13.784 56.72 13.784 55.352 13.784C53.984 13.784 52.604 13.784 51.212 13.784C49.844 13.784 48.548 13.784 47.324 13.784C46.124 13.784 45.104 13.784 44.264 13.784C43.424 13.784 42.86 13.784 42.572 13.784C41.924 13.784 41.24 13.796 40.52 13.82C39.8 13.844 39.116 13.88 38.468 13.928V9.14ZM36.56 26.276C38.432 25.388 40.22 24.392 41.924 23.288C43.628 22.184 45.188 21.032 46.604 19.832C48.02 18.632 49.268 17.444 50.348 16.268C51.452 15.068 52.328 13.94 52.976 12.884L55.316 12.92L55.352 16.736C54.632 17.84 53.708 18.992 52.58 20.192C51.452 21.392 50.204 22.592 48.836 23.792C47.468 24.992 46.016 26.132 44.48 27.212C42.944 28.268 41.408 29.204 39.872 30.02L36.56 26.276ZM148.124 1.652C148.436 2.108 148.76 2.624 149.096 3.2C149.456 3.776 149.792 4.352 150.104 4.928C150.416 5.48 150.68 5.972 150.896 6.404L147.872 7.664C147.632 7.184 147.356 6.668 147.044 6.116C146.756 5.564 146.444 5.012 146.108 4.46C145.796 3.884 145.484 3.356 145.172 2.876L148.124 1.652ZM153.164 0.751999C153.476 1.184 153.812 1.688 154.172 2.264C154.532 2.84 154.88 3.416 155.216 3.992C155.552 4.568 155.828 5.072 156.044 5.504L153.056 6.8C152.648 6.056 152.18 5.228 151.652 4.316C151.148 3.404 150.656 2.612 150.176 1.94L153.164 0.751999ZM151.868 8.456C151.7 8.792 151.544 9.2 151.4 9.68C151.28 10.136 151.172 10.556 151.076 10.94C150.86 11.828 150.596 12.824 150.284 13.928C149.996 15.008 149.624 16.136 149.168 17.312C148.736 18.488 148.22 19.652 147.62 20.804C147.044 21.956 146.384 23.036 145.64 24.044C144.56 25.484 143.3 26.828 141.86 28.076C140.444 29.324 138.836 30.452 137.036 31.46C135.26 32.468 133.304 33.32 131.168 34.016L127.244 29.696C129.644 29.12 131.708 28.412 133.436 27.572C135.188 26.732 136.7 25.772 137.972 24.692C139.244 23.612 140.372 22.46 141.356 21.236C142.148 20.228 142.832 19.136 143.408 17.96C143.984 16.784 144.452 15.608 144.812 14.432C145.172 13.232 145.424 12.116 145.568 11.084C145.232 11.084 144.644 11.084 143.804 11.084C142.964 11.084 141.992 11.084 140.888 11.084C139.784 11.084 138.62 11.084 137.396 11.084C136.172 11.084 134.996 11.084 133.868 11.084C132.74 11.084 131.72 11.084 130.808 11.084C129.92 11.084 129.26 11.084 128.828 11.084C127.988 11.084 127.184 11.096 126.416 11.12C125.648 11.144 125.024 11.18 124.544 11.228V6.152C124.904 6.2 125.336 6.248 125.84 6.296C126.368 6.344 126.896 6.38 127.424 6.404C127.976 6.428 128.444 6.44 128.828 6.44C129.212 6.44 129.764 6.44 130.484 6.44C131.204 6.44 132.02 6.44 132.932 6.44C133.868 6.44 134.84 6.44 135.848 6.44C136.88 6.44 137.9 6.44 138.908 6.44C139.94 6.44 140.9 6.44 141.788 6.44C142.676 6.44 143.444 6.44 144.092 6.44C144.74 6.44 145.208 6.44 145.496 6.44C145.856 6.44 146.288 6.428 146.792 6.404C147.32 6.38 147.824 6.296 148.304 6.152L151.868 8.456ZM215.228 4.388C215.732 4.46 216.332 4.508 217.028 4.532C217.724 4.556 218.372 4.568 218.972 4.568C219.428 4.568 220.124 4.568 221.06 4.568C222.02 4.568 223.076 4.568 224.228 4.568C225.404 4.568 226.568 4.568 227.72 4.568C228.872 4.568 229.904 4.568 230.816 4.568C231.728 4.568 232.4 4.568 232.832 4.568C233.384 4.568 234.044 4.556 234.812 4.532C235.58 4.508 236.216 4.46 236.72 4.388V9.032C236.24 8.984 235.616 8.96 234.848 8.96C234.104 8.936 233.408 8.924 232.76 8.924C232.376 8.924 231.716 8.924 230.78 8.924C229.868 8.924 228.824 8.924 227.648 8.924C226.496 8.924 225.332 8.924 224.156 8.924C223.004 8.924 221.96 8.924 221.024 8.924C220.088 8.924 219.404 8.924 218.972 8.924C218.396 8.924 217.76 8.936 217.064 8.96C216.392 8.984 215.78 9.008 215.228 9.032V4.388ZM239.744 14.828C239.624 15.068 239.492 15.332 239.348 15.62C239.228 15.908 239.132 16.148 239.06 16.34C238.508 18.068 237.812 19.796 236.972 21.524C236.156 23.228 235.076 24.824 233.732 26.312C231.932 28.328 229.916 29.972 227.684 31.244C225.452 32.492 223.184 33.44 220.88 34.088L217.316 30.02C220.028 29.444 222.44 28.604 224.552 27.5C226.664 26.396 228.404 25.136 229.772 23.72C230.732 22.736 231.5 21.704 232.076 20.624C232.676 19.52 233.144 18.476 233.48 17.492C233.216 17.492 232.76 17.492 232.112 17.492C231.464 17.492 230.684 17.492 229.772 17.492C228.884 17.492 227.924 17.492 226.892 17.492C225.86 17.492 224.804 17.492 223.724 17.492C222.644 17.492 221.612 17.492 220.628 17.492C219.644 17.492 218.756 17.492 217.964 17.492C217.196 17.492 216.572 17.492 216.092 17.492C215.66 17.492 215.048 17.504 214.256 17.528C213.464 17.552 212.684 17.6 211.916 17.672V12.992C212.684 13.04 213.428 13.088 214.148 13.136C214.892 13.184 215.54 13.208 216.092 13.208C216.452 13.208 216.992 13.208 217.712 13.208C218.456 13.208 219.308 13.208 220.268 13.208C221.228 13.208 222.248 13.208 223.328 13.208C224.432 13.208 225.524 13.208 226.604 13.208C227.708 13.208 228.752 13.208 229.736 13.208C230.72 13.208 231.572 13.208 232.292 13.208C233.012 13.208 233.552 13.208 233.912 13.208C234.488 13.208 235.004 13.172 235.46 13.1C235.94 13.028 236.3 12.944 236.54 12.848L239.744 14.828ZM321.14 2.876C321.596 3.548 322.088 4.34 322.616 5.252C323.144 6.164 323.576 6.944 323.912 7.592L320.996 8.816C320.636 8.096 320.216 7.304 319.736 6.44C319.256 5.552 318.776 4.76 318.296 4.064L321.14 2.876ZM325.82 1.868C326.156 2.3 326.492 2.804 326.828 3.38C327.188 3.956 327.524 4.52 327.836 5.072C328.172 5.624 328.436 6.104 328.628 6.512L325.784 7.772C325.4 7.004 324.956 6.188 324.452 5.324C323.972 4.46 323.48 3.692 322.976 3.02L325.82 1.868ZM314.336 3.596C314.312 3.764 314.276 4.04 314.228 4.424C314.18 4.808 314.132 5.216 314.084 5.648C314.036 6.056 314.012 6.416 314.012 6.728C314.012 7.448 314.012 8.24 314.012 9.104C314.012 9.968 314.012 10.832 314.012 11.696C314.012 12.536 314.012 13.304 314.012 14C314.012 14.48 314.012 15.152 314.012 16.016C314.012 16.88 314.012 17.852 314.012 18.932C314.012 20.012 314.012 21.14 314.012 22.316C314.012 23.468 314.012 24.596 314.012 25.7C314.012 26.78 314.012 27.764 314.012 28.652C314.012 29.516 314.012 30.2 314.012 30.704C314.012 31.736 313.7 32.552 313.076 33.152C312.476 33.776 311.54 34.088 310.268 34.088C309.62 34.088 308.96 34.076 308.288 34.052C307.616 34.028 306.956 33.992 306.308 33.944C305.66 33.896 305.024 33.836 304.4 33.764L303.968 29.3C304.736 29.444 305.48 29.552 306.2 29.624C306.944 29.696 307.532 29.732 307.964 29.732C308.444 29.732 308.78 29.636 308.972 29.444C309.164 29.228 309.272 28.892 309.296 28.436C309.296 28.22 309.296 27.752 309.296 27.032C309.32 26.312 309.332 25.46 309.332 24.476C309.332 23.492 309.332 22.448 309.332 21.344C309.332 20.24 309.332 19.184 309.332 18.176C309.332 17.168 309.332 16.292 309.332 15.548C309.332 14.804 309.332 14.288 309.332 14C309.332 13.568 309.332 12.92 309.332 12.056C309.332 11.168 309.332 10.232 309.332 9.248C309.332 8.264 309.332 7.424 309.332 6.728C309.332 6.248 309.296 5.684 309.224 5.036C309.152 4.364 309.08 3.884 309.008 3.596H314.336ZM296.696 9.32C297.248 9.392 297.824 9.464 298.424 9.536C299.024 9.584 299.612 9.608 300.188 9.608C300.476 9.608 301.052 9.608 301.916 9.608C302.804 9.608 303.86 9.608 305.084 9.608C306.308 9.608 307.616 9.608 309.008 9.608C310.424 9.608 311.84 9.608 313.256 9.608C314.696 9.608 316.028 9.608 317.252 9.608C318.5 9.608 319.58 9.608 320.492 9.608C321.404 9.608 322.04 9.608 322.4 9.608C322.904 9.608 323.492 9.584 324.164 9.536C324.86 9.488 325.46 9.428 325.964 9.356V14.072C325.412 14.024 324.812 14 324.164 14C323.516 13.976 322.94 13.964 322.436 13.964C322.076 13.964 321.44 13.964 320.528 13.964C319.64 13.964 318.572 13.964 317.324 13.964C316.1 13.964 314.78 13.964 313.364 13.964C311.948 13.964 310.532 13.964 309.116 13.964C307.7 13.964 306.38 13.964 305.156 13.964C303.932 13.964 302.876 13.964 301.988 13.964C301.124 13.964 300.524 13.964 300.188 13.964C299.66 13.964 299.072 13.976 298.424 14C297.8 14.024 297.224 14.06 296.696 14.108V9.32ZM305.876 19.076C305.468 19.892 304.976 20.768 304.4 21.704C303.824 22.64 303.2 23.576 302.528 24.512C301.88 25.448 301.244 26.324 300.62 27.14C299.996 27.932 299.432 28.592 298.928 29.12L295.04 26.456C295.64 25.904 296.252 25.256 296.876 24.512C297.524 23.744 298.148 22.94 298.748 22.1C299.372 21.26 299.936 20.42 300.44 19.58C300.968 18.74 301.424 17.936 301.808 17.168L305.876 19.076ZM321.356 17.06C321.812 17.636 322.316 18.32 322.868 19.112C323.444 19.904 324.02 20.756 324.596 21.668C325.172 22.556 325.712 23.432 326.216 24.296C326.72 25.136 327.152 25.88 327.512 26.528L323.264 28.832C322.88 28.064 322.436 27.236 321.932 26.348C321.452 25.46 320.948 24.572 320.42 23.684C319.892 22.796 319.364 21.968 318.836 21.2C318.332 20.408 317.864 19.736 317.432 19.184L321.356 17.06Z" fill="black"/>
</svg>
