<svg width="291" height="83" viewBox="0 0 291 83" fill="none" xmlns="http://www.w3.org/2000/svg">
<path d="M70.205 15.9231C68.4344 15.1329 66.6979 14.527 65.0006 14.0914C63.5516 11.7023 61.648 9.39344 59.239 7.21849C48.0614 -2.87436 35.2316 -2.45003 25.0576 8.91146C23.7639 10.3561 22.6546 11.825 21.7184 13.3086C19.0067 13.954 16.2304 15.0584 13.4247 16.6876C0.411311 24.2445 -3.15281 36.6263 4.46536 49.8533C5.43441 51.5358 6.48375 53.0502 7.60085 54.4034C7.37424 57.1934 7.56244 60.1862 8.2384 63.3702C11.3735 78.132 22.0011 85.362 36.883 82.1746C38.7763 81.7693 40.5348 81.2353 42.1617 80.5869C44.7326 81.6644 47.6238 82.4086 50.8464 82.7467C65.7983 84.3153 75.93 76.4017 77.5103 61.2044C77.7114 59.2713 77.749 57.4274 77.6372 55.6738C79.4535 53.5508 81.0537 51.0183 82.3702 48.0433C88.4763 34.2489 84.1102 22.1285 70.2055 15.9231H70.205Z" fill="url(#paint0_linear_4013_26)"/>
<path d="M21.0833 51.4942C21.0833 48.1681 22.2694 45.3373 24.6409 43.0037C27.0107 40.6702 29.901 39.5029 33.3084 39.5029C36.7158 39.5029 39.6359 40.6784 42.023 43.0267C44.3785 45.3768 45.5556 48.2621 45.5556 51.6836C45.5556 55.1363 44.3707 58.0303 41.9992 60.363C39.6122 62.6815 36.6839 63.84 33.2134 63.84C29.7758 63.84 26.8937 62.6576 24.5697 60.2924C22.2457 57.9588 21.0833 55.0267 21.0833 51.4942ZM26.5009 51.5887C26.5009 53.8911 27.113 55.7123 28.3375 57.0521C29.5936 58.4087 31.2499 59.0862 33.308 59.0862C35.3803 59.0862 37.0366 58.4165 38.2784 57.0759C39.5185 55.7362 40.1388 53.9466 40.1388 51.707C40.1388 49.4675 39.5185 47.6787 38.2784 46.339C37.021 44.9823 35.3648 44.3049 33.308 44.3049C31.2818 44.3049 29.6411 44.9823 28.385 46.339C27.1289 47.6948 26.5009 49.4454 26.5009 51.5887Z" fill="white"/>
<path d="M53.7549 45.0784V63.1476H48.4318V45.0784H46.5464V40.1113H48.4318V31.219C48.4318 28.3176 48.9334 26.2679 49.9379 25.0695C51.3204 23.3986 53.3306 22.563 55.968 22.563C56.9107 22.563 58.0956 22.8386 59.5243 23.3904V28.83L58.9831 28.5465C57.8362 27.9627 56.8947 27.6714 56.1562 27.6714C55.2148 27.6714 54.5789 28.0103 54.2483 28.6882C53.919 29.3505 53.7545 30.6278 53.7545 32.5197V40.1117H59.5239V45.0788H53.7545L53.7549 45.0784Z" fill="white"/>
<path d="M118.124 35.2925C115.727 32.9325 112.812 31.7523 109.365 31.7523C105.949 31.7523 103.035 32.9325 100.653 35.2765C98.2717 37.6209 97.0808 40.4685 97.0808 43.8042C97.0808 47.3601 98.2562 50.3022 100.591 52.6466C102.925 55.0223 105.808 56.2181 109.271 56.2181C112.765 56.2181 115.695 55.0539 118.109 52.7095C120.49 50.3651 121.681 47.4702 121.681 43.9932C121.681 40.5635 120.49 37.6526 118.124 35.2925ZM114.363 49.4054C113.11 50.7586 111.449 51.4352 109.365 51.4352C107.296 51.4352 105.636 50.7586 104.366 49.3898C103.144 48.0367 102.533 46.2119 102.533 43.8987C102.533 41.7433 103.16 39.9809 104.413 38.6282C105.682 37.2594 107.327 36.5828 109.365 36.5828C111.433 36.5828 113.094 37.2594 114.363 38.6282C115.601 39.9653 116.228 41.7749 116.228 44.0248C116.228 46.2748 115.601 48.0679 114.363 49.4054ZM144.714 35.2769C142.661 32.9325 140.045 31.7527 136.88 31.7527C134.2 31.7527 131.819 32.8068 129.719 34.915V32.3976H124.408V68.1443H129.719V52.9613C131.85 55.1323 134.279 56.2181 136.974 56.2181C140.092 56.2181 142.677 55.0695 144.73 52.7723C146.798 50.4439 147.832 47.5647 147.832 44.0873C147.832 40.547 146.798 37.6053 144.714 35.2769ZM140.546 49.3426C139.34 50.743 137.82 51.4352 135.971 51.4352C134.012 51.4352 132.445 50.743 131.238 49.3582C130.032 47.9578 129.421 46.1642 129.421 43.9932C129.421 41.7749 130.032 39.9809 131.238 38.6282C132.461 37.2594 134.043 36.5828 136.002 36.5828C137.85 36.5828 139.371 37.2906 140.593 38.691C141.784 40.0915 142.395 41.9006 142.395 44.1193C142.395 46.2119 141.768 47.9422 140.546 49.3426ZM167.277 46.967C166.18 48.682 165.209 49.8462 164.363 50.4912C163.486 51.1205 162.389 51.4352 161.073 51.4352C159.365 51.4352 157.97 50.8843 156.874 49.7673C155.792 48.6504 155.181 47.1239 155.04 45.2363H171.555L171.587 43.9776C171.587 40.1543 170.6 37.1649 168.641 35.0095C166.667 32.8384 163.988 31.7527 160.603 31.7527C157.219 31.7527 154.539 32.8697 152.502 35.104C150.481 37.3695 149.463 40.3277 149.463 43.9932C149.463 47.6908 150.512 50.6485 152.596 52.8828C154.68 55.1011 157.438 56.2185 160.885 56.2185C162.076 56.2185 163.189 56.0928 164.223 55.825C165.242 55.5731 166.197 55.18 167.075 54.6291C167.968 54.0787 168.798 53.3861 169.566 52.5365C170.334 51.687 171.071 50.6801 171.775 49.4843L167.277 46.967ZM156.137 39.0686C156.481 38.5493 156.873 38.109 157.343 37.7314C157.798 37.3539 158.33 37.0705 158.895 36.8819C159.458 36.6773 160.07 36.5828 160.712 36.5828C163.549 36.5828 165.35 37.9989 166.087 40.8625H155.385C155.557 40.1859 155.807 39.6034 156.137 39.0686ZM174.468 32.395H179.818V34.5345C181.68 32.6802 183.779 31.7527 186.115 31.7527C188.797 31.7527 190.888 32.6014 192.387 34.2969C193.681 35.7381 194.329 38.0916 194.329 41.3562V55.545H188.979V42.6149C188.979 40.3333 188.663 38.7574 188.032 37.8849C187.417 36.9985 186.296 36.5547 184.672 36.5547C182.903 36.5547 181.649 37.1407 180.907 38.3135C180.182 39.4699 179.818 41.4914 179.818 44.3742V55.5454H174.469L174.468 32.395ZM215.71 37.3864V55.5454H210.36V37.3864H208.465V32.395H210.36V23.459C210.36 20.5425 210.865 18.4833 211.875 17.2792C213.263 15.5992 215.283 14.7588 217.934 14.7588C218.881 14.7588 220.072 15.0371 221.509 15.5905V21.0583L220.964 20.7731C219.812 20.1871 218.864 19.8936 218.123 19.8936C217.177 19.8936 216.538 20.2334 216.206 20.9148C215.875 21.5805 215.71 22.8648 215.71 24.7654V32.395H221.509V37.3864H215.71ZM238.665 32.3976V35.0879C236.55 32.8697 234.137 31.7523 231.457 31.7523C228.339 31.7523 225.754 32.9165 223.686 35.2292C221.618 37.542 220.583 40.4213 220.583 43.8983C220.583 47.4385 221.618 50.3806 223.686 52.7407C225.77 55.0535 228.402 56.2177 231.599 56.2177C234.121 56.2177 236.471 55.1792 238.665 53.1182V55.5411H244.024V32.3968L238.665 32.3976ZM237.177 49.3898C235.97 50.7586 234.372 51.4352 232.398 51.4352C230.549 51.4352 229.029 50.727 227.807 49.3109C226.631 47.9266 226.036 46.117 226.036 43.8987C226.036 41.8217 226.647 40.0754 227.854 38.675C229.092 37.2746 230.611 36.5824 232.445 36.5824C234.387 36.5824 235.97 37.2746 237.177 38.6434C238.399 40.0594 239.01 41.8529 239.01 44.0244C239.01 46.1959 238.399 47.9738 237.177 49.3898ZM250.7 32.395L256.664 45.3966L262.606 32.395H268.594L256.616 57.1387L244.734 32.395H250.7ZM286.001 46.967C284.904 48.682 283.933 49.8462 283.086 50.4912C282.225 51.1205 281.128 51.4352 279.796 51.4352C278.088 51.4352 276.694 50.8843 275.612 49.7673C274.516 48.6504 273.904 47.1239 273.763 45.2363H290.278L290.31 43.9776C290.31 40.1543 289.323 37.1649 287.364 35.0095C285.39 32.8384 282.71 31.7527 279.326 31.7527C275.942 31.7527 273.262 32.8697 271.225 35.104C269.204 37.3695 268.201 40.3277 268.201 43.9932C268.201 47.6908 269.235 50.6485 271.319 52.8828C273.403 55.1011 276.161 56.2185 279.608 56.2185C280.799 56.2185 281.912 56.0928 282.946 55.825C283.964 55.5731 284.92 55.18 285.813 54.6291C286.691 54.0787 287.521 53.3861 288.289 52.5365C289.072 51.687 289.793 50.6801 290.498 49.4843L286.001 46.967ZM274.876 39.0686C275.205 38.5493 275.597 38.109 276.067 37.7314C276.537 37.3539 277.054 37.0705 277.618 36.8819C278.183 36.6773 278.794 36.5828 279.436 36.5828C282.288 36.5828 284.074 37.9989 284.811 40.8625H274.109C274.281 40.1859 274.547 39.6034 274.876 39.0686Z" fill="url(#paint1_linear_4013_26)"/>
<defs>
<linearGradient id="paint0_linear_4013_26" x1="13.1449" y1="75.0377" x2="72.8334" y2="15.595" gradientUnits="userSpaceOnUse">
<stop stop-color="#EC9DBC"/>
<stop offset="0.483" stop-color="#8E81B9"/>
<stop offset="1" stop-color="#7ECAF0"/>
</linearGradient>
<linearGradient id="paint1_linear_4013_26" x1="143.183" y1="95.4157" x2="245.781" y2="-6.76027" gradientUnits="userSpaceOnUse">
<stop stop-color="#EC9DBC"/>
<stop offset="0.483" stop-color="#8E81B9"/>
<stop offset="1" stop-color="#7ECAF0"/>
</linearGradient>
</defs>
</svg>
