<svg width="88" height="103" viewBox="0 0 88 103" fill="none" xmlns="http://www.w3.org/2000/svg">
<g filter="url(#filter0_d_1_251)">
<path d="M34.7989 62.9364L34.7753 62.8814C34.3011 62.7693 33.8295 62.6462 33.361 62.5121L33.3257 62.5003C28.8443 61.2121 24.7057 58.9429 21.2099 55.8571C17.3654 52.4657 14.4089 48.1852 12.5982 43.3889C10.7874 38.5927 10.1775 33.4263 10.8215 28.3403C11.4656 23.2542 13.344 18.4029 16.2931 14.2094C19.2422 10.0159 23.1723 6.60747 27.7409 4.28132C32.3094 1.95517 37.3777 0.781938 42.5037 0.863913C47.6297 0.945887 52.6578 2.28058 57.1496 4.75162C61.6415 7.22266 65.4606 10.755 68.2741 15.0407C71.0876 19.3264 72.8099 24.2352 73.291 29.3393C73.4442 30.9618 72.1124 32.2857 70.4821 32.2857C68.8557 32.2857 67.5553 30.9618 67.3667 29.3432C66.8474 24.8776 65.1583 20.6282 62.4701 17.0246C59.782 13.421 56.1902 10.591 52.0577 8.82066C47.9252 7.05029 43.3985 6.4023 38.9353 6.9422C34.4721 7.4821 30.2306 9.19076 26.6394 11.8954C23.0483 14.6001 20.2348 18.205 18.4835 22.3456C16.7322 26.4862 16.105 31.0157 16.6655 35.4764C17.2259 39.9371 18.9541 44.1707 21.6752 47.7494C24.3964 51.3281 28.0142 54.1249 32.1628 55.8571L32.3199 55.9239C33.1057 56.2461 33.9123 56.5302 34.7399 56.7764C35.4353 55.0962 36.6919 53.7092 38.2955 52.8519C39.8992 51.9945 41.7505 51.72 43.5339 52.075C45.3173 52.43 46.9224 53.3926 48.0755 54.7987C49.2285 56.2048 49.8582 57.9673 49.8571 59.7857C49.8588 61.5914 49.2386 63.3427 48.1006 64.7447C46.9627 66.1468 45.3766 67.1141 43.6091 67.4839C41.8416 67.8537 40.0007 67.6034 38.3962 66.7752C36.7916 65.947 35.5212 64.5914 34.7989 62.9364ZM30.9253 67.9336C23.9464 65.7631 17.7583 61.5913 13.1289 55.9357C10.2599 56.2717 7.61422 57.6497 5.69429 59.8079C3.77436 61.9661 2.71388 64.7542 2.71423 67.6428V70.4518C2.71423 85.0582 19.2535 95.1428 41.9999 95.1428C64.7464 95.1428 81.2857 84.5043 81.2857 70.4518V67.6428C81.2857 64.5171 80.044 61.5193 77.8337 59.3091C75.6235 57.0988 72.6257 55.8571 69.4999 55.8571H55.1803C56.107 58.9608 55.9082 62.2921 54.6191 65.2635C53.3299 68.235 51.0331 70.656 48.1335 72.0997C45.2339 73.5434 41.9178 73.9171 38.7696 73.1549C35.6215 72.3927 32.8435 70.5436 30.9253 67.9336ZM61.6428 32.2857C61.6428 26.3457 59.0107 21.0225 54.8424 17.42C52.7511 15.6158 50.3027 14.273 47.6572 13.4792C45.0117 12.6854 42.2285 12.4585 39.4893 12.8132C36.7502 13.1679 34.1166 14.0962 31.7605 15.5377C29.4045 16.9792 27.3789 18.9013 25.816 21.1786C24.2532 23.456 23.1881 26.0373 22.6905 28.7541C22.1928 31.471 22.2737 34.2622 22.9279 36.9457C23.582 39.6291 24.7948 42.1444 26.4869 44.3274C28.1791 46.5104 30.3126 48.312 32.7482 49.6146C35.2793 47.312 38.5781 46.0359 41.9999 46.0357C45.4231 46.0349 48.7235 47.3111 51.2557 49.6146C54.3943 47.9379 57.0185 45.4401 58.8479 42.388C60.6774 39.3359 61.6434 35.8441 61.6428 32.2857Z" fill="#73E3DC"/>
</g>
<defs>
<filter id="filter0_d_1_251" x="0.714233" y="0.859894" width="86.5714" height="102.283" filterUnits="userSpaceOnUse" color-interpolation-filters="sRGB">
<feFlood flood-opacity="0" result="BackgroundImageFix"/>
<feColorMatrix in="SourceAlpha" type="matrix" values="0 0 0 0 0 0 0 0 0 0 0 0 0 0 0 0 0 0 127 0" result="hardAlpha"/>
<feOffset dx="2" dy="4"/>
<feGaussianBlur stdDeviation="2"/>
<feComposite in2="hardAlpha" operator="out"/>
<feColorMatrix type="matrix" values="0 0 0 0 0 0 0 0 0 0 0 0 0 0 0 0 0 0 0.25 0"/>
<feBlend mode="normal" in2="BackgroundImageFix" result="effect1_dropShadow_1_251"/>
<feBlend mode="normal" in="SourceGraphic" in2="effect1_dropShadow_1_251" result="shape"/>
</filter>
</defs>
</svg>
