<svg width="24" height="30" viewBox="0 0 24 30" fill="none" xmlns="http://www.w3.org/2000/svg">
<path d="M12 0C5.38357 0 0.000122166 5.38345 0.000122166 11.9924C-0.0433774 21.6598 11.544 29.6757 12 29.9997C12 29.9997 24.0434 21.6598 23.9999 11.9999C23.9999 5.38345 18.6164 0 12 0Z" fill="white"/>
<ellipse cx="12.0599" cy="11.5799" rx="8.81991" ry="8.81991" fill="black"/>
<path d="M6.49023 11.3811H6.10852V10.8056H6.49023V10.5891C6.49023 10.253 6.57569 10.0023 6.73522 9.8428C6.89474 9.68328 7.11693 9.60352 7.41319 9.60352C7.65247 9.60352 7.81769 9.6377 7.97151 9.68328V10.2644C7.83478 10.2188 7.71514 10.1903 7.56701 10.1903C7.30494 10.1903 7.16821 10.3328 7.16821 10.6461V10.8113H7.96582V11.3811H7.1796V13.7967H6.49023V11.3811ZM8.51845 9.6377H9.20781V13.7967H8.51845V9.6377Z" fill="white"/>
<path d="M9.83472 9.67175H10.5754V10.3269H9.83472V9.67175ZM9.8632 10.7884H10.5526V13.7965H9.8632V10.7884Z" fill="white"/>
<path d="M14.4207 13.4891C14.0845 13.7284 13.6743 13.8651 13.2072 13.8651C11.9823 13.8651 11.1277 12.9365 11.1277 11.8141V11.8028C11.1277 10.6804 11.9937 9.74036 13.2186 9.74036C14.4435 9.74036 15.2981 10.669 15.2981 11.7914V11.8028C15.2981 12.2528 15.1556 12.6801 14.8936 13.0277L15.3493 13.4151L14.8993 13.9164L14.4207 13.4891ZM13.9022 13.0277L13.2186 12.4465L13.6686 11.9338L14.358 12.5605C14.4947 12.3497 14.5631 12.0933 14.5631 11.8141V11.8028C14.5631 11.0279 13.9991 10.3841 13.2072 10.3841C12.4153 10.3841 11.8626 11.0165 11.8626 11.7914V11.8028C11.8626 12.5776 12.4267 13.2214 13.2186 13.2214C13.4806 13.2214 13.7142 13.1473 13.9022 13.0277Z" fill="white"/>
<path d="M16.1527 12.9646V11.3808H15.771V10.7883H16.1527V9.96216H16.8421V10.7883H17.6511V11.3808H16.8421V12.8563C16.8421 13.1241 16.9788 13.2324 17.2124 13.2324C17.3662 13.2324 17.503 13.1982 17.6397 13.1298V13.6938C17.4688 13.7907 17.2751 13.8477 17.0187 13.8477C16.5116 13.8477 16.1527 13.6255 16.1527 12.9646Z" fill="white"/>
<path d="M11.62 20.2956C11.4035 20.2956 11.1682 20.2683 10.9119 20.213C9.9291 20.0028 9.54966 19.2809 9.24429 18.7004C9.14117 18.5038 9.04318 18.3187 8.9355 18.1808C8.388 17.4846 7.75048 17.7512 7.18759 17.9871C6.92381 18.0976 6.66857 18.2042 6.44125 18.2042C6.29996 18.2042 6.1695 18.1631 6.05384 18.056C5.0198 17.0983 4.22902 15.8888 3.76698 14.5591C3.53225 13.8834 3.38298 13.1809 3.32316 12.4705C3.26163 11.7378 3.29581 10.9966 3.42457 10.2668C4.24668 5.60931 8.70419 2.4878 13.3628 3.30934C14.9466 3.5885 16.4143 4.30407 17.6055 5.37857C17.8557 5.60418 17.8961 6.00413 17.9394 6.428C17.9702 6.72995 18.0021 7.04216 18.1069 7.33158C18.3126 7.90016 18.6174 8.08646 18.9119 8.26649C19.1535 8.41462 19.3819 8.5542 19.513 8.89889C19.6531 9.26636 19.5551 9.4971 19.4315 9.78879C19.3124 10.0691 19.1643 10.4183 19.1939 11.0103C19.2224 11.58 19.5483 11.9492 19.836 12.2745C20.1482 12.6277 20.4433 12.9616 20.2924 13.4772C20.1249 14.0486 19.5506 14.1432 18.7564 14.2737C17.899 14.4149 16.8319 14.5904 15.7346 15.4216C14.7398 16.1754 14.2755 17.2242 13.8665 18.1495C13.573 18.8132 13.2956 19.4399 12.8654 19.8364C12.5316 20.1441 12.1271 20.295 11.6212 20.295L11.62 20.2956ZM8.10371 17.7079C8.39597 17.7079 8.68596 17.8225 8.95544 18.1654C9.06483 18.305 9.16339 18.4913 9.26708 18.689C9.5696 19.2644 9.94676 19.9806 10.9176 20.1885C11.7642 20.3697 12.3772 20.2517 12.8472 19.8182C13.2734 19.4251 13.5497 18.8007 13.8425 18.1398C14.2533 17.2117 14.7182 16.1594 15.7186 15.4017C16.8205 14.5665 17.8915 14.3904 18.7518 14.2486C19.5369 14.1193 20.1043 14.0258 20.2673 13.4698C20.4143 12.9678 20.1374 12.6539 19.8166 12.291C19.5261 11.9623 19.1968 11.5897 19.1677 11.0108C19.1381 10.4132 19.2874 10.0611 19.4076 9.77797C19.5295 9.4914 19.6252 9.26465 19.489 8.90686C19.3609 8.57016 19.1358 8.43285 18.8982 8.28757C18.614 8.11381 18.2915 7.91611 18.083 7.33956C17.977 7.04672 17.9451 6.73337 17.9143 6.42971C17.8716 6.01096 17.8312 5.61557 17.5885 5.3968C16.4006 4.32572 14.9375 3.61243 13.3583 3.33384C8.71388 2.51514 4.26947 5.62754 3.45021 10.2719C2.94373 13.1445 3.92365 16.0478 6.0715 18.0384C6.36092 18.3067 6.75745 18.1404 7.17791 17.9643C7.47359 17.8407 7.78979 17.7079 8.10371 17.7079Z" stroke="url(#paint0_linear_20_132)" stroke-miterlimit="10" stroke-linejoin="round"/>
<path d="M11.6532 20.3165C11.4395 20.3165 11.2082 20.2903 10.9581 20.239C9.98619 20.0385 9.58681 19.3434 9.26606 18.7851C9.15724 18.5959 9.05469 18.4176 8.94302 18.2826C8.39267 17.6194 7.7637 17.8559 7.20936 18.0644C6.78149 18.225 6.37756 18.3772 6.07219 18.0969C5.03643 17.1454 4.2411 15.9427 3.77165 14.6187C3.53293 13.9459 3.37968 13.2457 3.3153 12.5369C3.24921 11.8065 3.2777 11.0665 3.40019 10.3378C4.18185 5.6655 8.61999 2.50126 13.2923 3.28292C14.8989 3.54898 16.3887 4.26285 17.6 5.34703C17.8609 5.58061 17.9162 5.98626 17.9743 6.41583C18.0142 6.70924 18.0552 7.0129 18.1617 7.29662C18.3702 7.8521 18.6688 8.05036 18.957 8.24236C19.198 8.40302 19.4254 8.554 19.5581 8.90495C19.7 9.28096 19.6077 9.5231 19.4903 9.82904C19.3815 10.1133 19.2459 10.4677 19.2738 11.0448C19.3006 11.6037 19.6065 11.9746 19.876 12.3022C20.1728 12.6623 20.4531 13.0024 20.3022 13.5163C20.1284 14.1077 19.549 14.2239 18.7468 14.3845C17.9224 14.5498 16.8969 14.7554 15.8446 15.5576C14.8807 16.2937 14.4021 17.2998 13.9794 18.1874C13.6672 18.8432 13.3726 19.4625 12.9294 19.8562C12.5824 20.1649 12.1677 20.3159 11.6526 20.3159L11.6532 20.3165ZM8.08844 17.8188C8.3864 17.8188 8.6838 17.9294 8.96296 18.2655C9.07634 18.4022 9.17946 18.5817 9.28884 18.772C9.60675 19.3257 10.0027 20.0151 10.9633 20.2128C11.8087 20.3871 12.428 20.2675 12.9123 19.8368C13.351 19.4465 13.6449 18.8295 13.9554 18.1766C14.3793 17.2861 14.8596 16.2766 15.8287 15.5365C16.8855 14.7309 17.9144 14.5247 18.7417 14.3589C19.5347 14.2 20.1073 14.0854 20.2765 13.5094C20.4235 13.0087 20.1603 12.6896 19.8555 12.3199C19.5832 11.9894 19.2744 11.6145 19.247 11.0465C19.2191 10.4637 19.3558 10.1065 19.4652 9.81992C19.5803 9.51911 19.6715 9.28096 19.533 8.91463C19.4037 8.57166 19.1792 8.42239 18.9422 8.26458C18.6636 8.07942 18.3486 7.86919 18.1366 7.30574C18.029 7.01973 17.9879 6.71436 17.9475 6.41925C17.89 5.9948 17.8358 5.59372 17.5817 5.36697C16.3745 4.2862 14.8892 3.57462 13.2877 3.30913C8.62967 2.52918 4.20578 5.6843 3.42583 10.3424C2.94384 13.2103 3.93972 16.1017 6.08985 18.0769C6.38326 18.3464 6.77978 18.1971 7.19967 18.0393C7.48339 17.9328 7.78592 17.8188 8.08844 17.8188Z" stroke="url(#paint1_linear_20_132)" stroke-miterlimit="10" stroke-linejoin="round"/>
<path d="M11.6863 20.3376C11.4755 20.3376 11.2493 20.3131 11.0043 20.2647C10.0421 20.0738 9.62333 19.4056 9.28662 18.8689C9.17268 18.6871 9.06557 18.5162 8.94992 18.384C8.39728 17.7534 7.778 17.9602 7.23163 18.1419C6.80377 18.2843 6.39984 18.4194 6.08934 18.1374C5.05187 17.1922 4.25141 15.9963 3.77512 14.678C3.53299 14.008 3.37518 13.3101 3.30624 12.6036C3.23503 11.8755 3.25781 11.1372 3.37404 10.4085C4.0446 6.1766 7.71248 3.14966 11.8686 3.14966C12.3147 3.14966 12.7671 3.18441 13.2217 3.25677C14.8511 3.50972 16.3631 4.22188 17.5943 5.31574C17.8666 5.55731 17.9367 5.96922 18.0102 6.40448C18.0586 6.68992 18.1082 6.98446 18.2165 7.26135C18.4278 7.80315 18.7195 8.01338 19.0021 8.21677C19.2425 8.38997 19.4698 8.55348 19.6037 8.91126C19.7479 9.29583 19.6607 9.54992 19.5502 9.87125C19.4465 10.1743 19.3286 10.5173 19.3542 11.0802C19.3798 11.6288 19.6653 12.0009 19.9171 12.3296C20.198 12.6965 20.4634 13.0429 20.313 13.5562C20.133 14.1692 19.5479 14.3077 18.7378 14.5002C17.947 14.6877 16.9631 14.9218 15.9564 15.6938C15.0243 16.4111 14.5321 17.3745 14.0974 18.2251C13.7664 18.8729 13.4536 19.4847 12.9972 19.8761C12.636 20.1855 12.2104 20.3371 11.6857 20.3371L11.6863 20.3376ZM8.07083 17.9294C8.37507 17.9294 8.68158 18.0354 8.971 18.3658C9.08779 18.4991 9.19604 18.6718 9.31055 18.8541C9.64441 19.3862 10.0592 20.0488 11.01 20.2374C11.8549 20.4043 12.4811 20.2829 12.9796 19.8556C13.4314 19.4682 13.743 18.8586 14.0729 18.2131C14.5087 17.3603 15.0027 16.394 15.9398 15.6727C16.9511 14.8968 17.9384 14.662 18.7315 14.474C19.5325 14.2837 20.1108 14.1464 20.2863 13.5494C20.4327 13.0497 20.1837 12.7244 19.8949 12.3478C19.6408 12.0157 19.3525 11.6397 19.3263 11.0825C19.3001 10.5145 19.4243 10.1533 19.5234 9.86327C19.6316 9.54707 19.7177 9.29754 19.577 8.92209C19.4459 8.57228 19.222 8.41105 18.985 8.2407C18.7127 8.04472 18.4039 7.82195 18.1897 7.27274C18.0809 6.99301 18.0307 6.69675 17.9817 6.41018C17.9088 5.97947 17.8399 5.57269 17.5749 5.33739C16.3483 4.24694 14.8408 3.53707 13.2166 3.28525C12.7636 3.21347 12.3124 3.17871 11.868 3.17871C7.72558 3.17757 4.07024 6.19426 3.40082 10.4136C2.94276 13.2765 3.95459 16.1564 6.10757 18.1168C6.40553 18.388 6.80206 18.2559 7.22195 18.1157C7.49256 18.0257 7.78084 17.9294 8.07026 17.9294H8.07083Z" stroke="url(#paint2_linear_20_132)" stroke-miterlimit="10" stroke-linejoin="round"/>
<path d="M11.7181 20.3592C11.5107 20.3592 11.2885 20.3364 11.0503 20.2914C10.0966 20.1097 9.65851 19.4682 9.30642 18.952C9.18792 18.7788 9.07625 18.6147 8.95718 18.486C8.40398 17.8878 7.79381 18.0644 7.25485 18.2205C6.82642 18.3447 6.42135 18.462 6.10629 18.1777C5.06655 17.2388 4.26153 16.0493 3.7784 14.7378C3.53285 14.0706 3.37048 13.3755 3.29642 12.6708C3.22007 11.945 3.23717 11.2078 3.34769 10.4802C4.0513 5.77829 8.44956 2.52632 13.1509 3.23049C14.8031 3.47035 16.3374 4.18079 17.5879 5.28435C17.8722 5.53445 17.9571 5.95263 18.0471 6.39474C18.1035 6.67105 18.1611 6.95705 18.2704 7.2271C18.4835 7.75523 18.7695 7.97686 19.0453 8.19107C19.2857 8.37794 19.5124 8.55398 19.648 8.91861C19.7944 9.31286 19.713 9.57949 19.6093 9.91676C19.5159 10.2227 19.4099 10.5697 19.4338 11.1166C19.4577 11.6538 19.7232 12.0282 19.9568 12.358C20.2223 12.7318 20.4724 13.085 20.322 13.5972C20.1351 14.2324 19.5443 14.3954 18.7256 14.621C17.9691 14.8295 17.0267 15.0893 16.0662 15.8316C15.1672 16.5295 14.663 17.4502 14.218 18.2621C13.8671 18.9024 13.5355 19.5075 13.0655 19.8966C12.6894 20.2077 12.2519 20.3592 11.7169 20.3592H11.7181ZM8.04961 18.0393C8.36182 18.0393 8.67802 18.1407 8.97826 18.466C9.09847 18.5959 9.21128 18.7606 9.33035 18.9355C9.67959 19.4471 10.1143 20.0835 11.0555 20.2624C11.2919 20.3074 11.5118 20.3296 11.7175 20.3296C12.2462 20.3296 12.678 20.1797 13.0484 19.8732C13.5138 19.4881 13.8443 18.8853 14.1941 18.2472C14.6402 17.4325 15.1461 16.5096 16.0502 15.8077C17.0153 15.0614 17.9605 14.801 18.7194 14.5919C19.5284 14.3691 20.1135 14.2079 20.2952 13.5881C20.4417 13.0895 20.2064 12.758 19.934 12.374C19.6976 12.0407 19.4298 11.663 19.4053 11.1172C19.3808 10.5651 19.4879 10.2153 19.5819 9.90708C19.6834 9.57493 19.7637 9.31286 19.6207 8.92772C19.4885 8.57108 19.2646 8.39731 19.0276 8.21329C18.7615 8.00648 18.4596 7.77232 18.2437 7.23735C18.1337 6.96503 18.075 6.67789 18.0186 6.39986C17.9297 5.96232 17.846 5.54927 17.5685 5.30543C16.322 4.20529 14.7929 3.49712 13.1464 3.25841C8.46095 2.55765 4.07808 5.7988 3.37618 10.4842C2.94262 13.3425 3.9704 16.2099 6.12566 18.1561C6.42875 18.429 6.82585 18.3139 7.2463 18.192C7.50211 18.1179 7.77444 18.0393 8.04904 18.0393H8.04961Z" stroke="url(#paint3_linear_20_132)" stroke-miterlimit="10" stroke-linejoin="round"/>
<path d="M11.7496 20.3805C11.5456 20.3805 11.3285 20.3594 11.0961 20.3173C10.1509 20.1452 9.69229 19.5288 9.32425 19.0337C9.20176 18.8684 9.08553 18.7129 8.96361 18.5881C8.41098 18.0218 7.80992 18.1694 7.27894 18.2993C6.8488 18.4047 6.44259 18.5044 6.12297 18.219C5.08152 17.2869 4.27194 16.1036 3.78141 14.7978C3.53187 14.134 3.36552 13.4407 3.28689 12.7382C3.20542 12.0141 3.21739 11.2786 3.32165 10.5516C3.48402 9.39908 3.86858 8.31205 4.46394 7.32073C5.03879 6.3636 5.78513 5.53579 6.68187 4.86067C7.57862 4.18555 8.58076 3.6973 9.65981 3.40959C10.777 3.11162 11.9279 3.04269 13.081 3.20563C14.756 3.43238 16.313 4.14054 17.5829 5.25492C17.8798 5.51414 17.9806 5.93916 18.0872 6.38867C18.1504 6.65587 18.2159 6.93218 18.3259 7.19426C18.5407 7.70815 18.8198 7.94059 19.0893 8.16506C19.3297 8.36561 19.557 8.55475 19.6938 8.92735C19.8425 9.33129 19.7667 9.61102 19.6704 9.96539C19.5867 10.2736 19.4921 10.6228 19.5149 11.1544C19.5371 11.6808 19.7718 12.0392 19.9986 12.3861C20.2481 12.7673 20.4834 13.1273 20.3336 13.639C20.2441 13.9426 20.0607 14.1671 19.7553 14.3448C19.4773 14.5066 19.124 14.6183 18.715 14.7471C17.9926 14.975 17.0936 15.2581 16.1791 15.9703C15.3137 16.6482 14.7999 17.525 14.3458 18.2987C13.9743 18.9323 13.6234 19.531 13.1385 19.9179C12.7466 20.2307 12.2959 20.3833 11.7496 20.3833V20.3805ZM8.02357 18.1483C8.34489 18.1483 8.67248 18.2452 8.98583 18.5665C9.10889 18.693 9.22568 18.8496 9.34874 19.0154C9.71394 19.5065 10.168 20.1173 11.1012 20.2876C11.3388 20.3309 11.5564 20.3509 11.7558 20.3509C13.1055 20.3509 13.6507 19.4205 14.319 18.2811C14.7742 17.5051 15.2898 16.6254 16.1598 15.9441C17.0782 15.2285 17.9806 14.9442 18.7053 14.7163C19.5234 14.4582 20.1148 14.2719 20.3039 13.6287C20.4504 13.1308 20.2293 12.7924 19.9729 12.401C19.7542 12.0671 19.5069 11.6882 19.4841 11.1538C19.4613 10.6177 19.557 10.2662 19.6408 9.9557C19.7354 9.60703 19.81 9.33129 19.6647 8.93647C19.5308 8.57185 19.3064 8.38498 19.0694 8.18728C18.8096 7.97079 18.515 7.72524 18.2974 7.20451C18.1869 6.93959 18.1208 6.66213 18.0575 6.3938C17.9521 5.94941 17.8524 5.52896 17.563 5.276C16.2971 4.16618 14.7457 3.45972 13.077 3.23411C10.8038 2.91336 8.53974 3.4996 6.70067 4.88346C4.86161 6.26846 3.67203 8.28243 3.35184 10.5556C2.94278 13.4088 3.98651 16.2648 6.14348 18.1962C6.4517 18.4708 6.84994 18.3734 7.2721 18.2697C7.51196 18.211 7.76548 18.1489 8.02357 18.1489V18.1483Z" stroke="url(#paint4_linear_20_132)" stroke-miterlimit="10" stroke-linejoin="round"/>
<path d="M11.7795 20.4019C11.5795 20.4019 11.3676 20.3819 11.1414 20.3432C10.7232 20.2708 10.362 20.109 10.0361 19.8498C9.75242 19.6236 9.53365 19.353 9.33994 19.1137C9.21346 18.9576 9.09439 18.8101 8.97019 18.6893C8.41927 18.1549 7.82733 18.2734 7.30489 18.3782C6.87304 18.4648 6.46512 18.5468 6.13981 18.2591C3.97258 16.3352 2.90891 13.4803 3.29518 10.622C3.92131 5.89159 8.27969 2.55245 13.0095 3.178C14.7073 3.39165 16.2866 4.0981 17.5764 5.22217C17.8869 5.49108 18.0037 5.92293 18.1273 6.38041C18.1969 6.63793 18.2692 6.90399 18.3792 7.15808C18.5951 7.65716 18.8674 7.89986 19.1301 8.13402C19.3711 8.3488 19.5989 8.5522 19.7374 8.9322C19.8884 9.34696 19.8189 9.64094 19.73 10.0124C19.6565 10.3218 19.5727 10.6727 19.5932 11.1877C19.6143 11.7022 19.8297 12.0617 20.0382 12.4092C20.2718 12.7983 20.4923 13.1658 20.3419 13.6769C20.249 13.9925 20.0616 14.2295 19.7516 14.4232C19.469 14.5998 19.1124 14.7269 18.6988 14.8738C18.0111 15.1188 17.1554 15.4231 16.2883 16.1039C15.4582 16.7602 14.9363 17.5926 14.476 18.3275C14.0829 18.9548 13.7114 19.5478 13.2112 19.9324C12.8021 20.2475 12.3373 20.4013 11.7784 20.4013L11.7795 20.4019ZM7.99027 18.2557C8.32298 18.2557 8.66425 18.3474 8.99241 18.6659C9.11832 18.7878 9.23796 18.936 9.36501 19.0932C9.76609 19.5889 10.2202 20.1506 11.1471 20.3113C11.3704 20.35 11.5772 20.3682 11.7687 20.3682C13.1611 20.3682 13.7644 19.4054 14.4504 18.311C14.9118 17.5738 15.4354 16.7385 16.27 16.0794C17.1417 15.3957 17.9997 15.0898 18.6897 14.8442C19.518 14.5497 20.1162 14.3366 20.3134 13.6677C20.4598 13.1698 20.2524 12.8251 20.0126 12.4257C19.812 12.0913 19.5841 11.7119 19.563 11.1894C19.5425 10.6704 19.6263 10.3172 19.7003 10.0056C19.7875 9.63923 19.8565 9.34924 19.7083 8.9436C19.5727 8.57043 19.3477 8.37045 19.1095 8.15795C18.8566 7.93234 18.5694 7.67653 18.3507 7.17062C18.2396 6.91424 18.1672 6.64704 18.0971 6.38896C17.9747 5.9366 17.859 5.50931 17.5559 5.24609C16.2706 4.12659 14.697 3.42184 13.0055 3.20934C8.29222 2.58549 3.95036 5.91267 3.32652 10.626C2.94195 13.474 4.00107 16.3187 6.16089 18.2346C6.47423 18.5115 6.87475 18.4318 7.29862 18.3463C7.51967 18.3019 7.75269 18.2551 7.99027 18.2551V18.2557Z" stroke="url(#paint5_linear_20_132)" stroke-miterlimit="10" stroke-linejoin="round"/>
<path d="M11.8096 20.423C11.6136 20.423 11.4074 20.4048 11.188 20.3689C10.2554 20.2151 9.77738 19.6715 9.35522 19.1918C9.22646 19.0454 9.10454 18.9064 8.97806 18.7907C8.43056 18.2871 7.84716 18.3777 7.33327 18.458C6.89914 18.5258 6.48837 18.5896 6.15737 18.2996C3.98672 16.3905 2.9071 13.547 3.26944 10.6933C3.85625 5.94805 8.19469 2.56561 12.9393 3.15185C14.6599 3.35183 16.2614 4.05714 17.5712 5.19089C17.8954 5.47006 18.0298 5.91045 18.1717 6.37592C18.2469 6.62261 18.3249 6.87784 18.4343 7.12282C18.6508 7.60709 18.9157 7.85833 19.1721 8.10161C19.4142 8.33177 19.6433 8.54941 19.784 8.93853C19.9378 9.36525 19.874 9.67347 19.7931 10.0643C19.7293 10.3742 19.6564 10.7257 19.6752 11.2225C19.6945 11.725 19.8911 12.0845 20.0814 12.4321C20.299 12.8292 20.5041 13.2046 20.3537 13.7157C20.2574 14.0432 20.0654 14.2945 19.7504 14.5059C19.4632 14.6979 19.102 14.842 18.6839 15.0084C18.0315 15.2681 17.2202 15.5912 16.4004 16.2395C15.6068 16.8725 15.0798 17.6604 14.6149 18.356C14.199 18.9782 13.8065 19.5656 13.2897 19.949C12.8619 20.2669 12.3816 20.4219 11.809 20.4219L11.8096 20.423ZM7.948 18.3623C8.29496 18.3623 8.65332 18.4483 9.00028 18.7668C9.1279 18.8842 9.25039 19.0232 9.37972 19.1707C9.79789 19.6459 10.2719 20.1849 11.1931 20.337C11.4102 20.3723 11.6113 20.3894 11.7993 20.3894C13.2179 20.3894 13.8589 19.43 14.5881 18.3395C15.0542 17.6422 15.5829 16.852 16.3805 16.2156C17.2043 15.5638 18.0179 15.2397 18.6719 14.9793C19.5111 14.6449 20.1173 14.4039 20.3224 13.7077C20.4688 13.2097 20.2757 12.8571 20.0523 12.4492C19.8695 12.1147 19.6615 11.7353 19.6421 11.2248C19.6233 10.7235 19.6963 10.3702 19.7606 10.0586C19.8404 9.6729 19.9031 9.36867 19.7527 8.95049C19.6148 8.56821 19.3886 8.35342 19.1493 8.1261C18.9032 7.89195 18.6235 7.62646 18.4041 7.1365C18.2936 6.88924 18.2155 6.63343 18.1398 6.3856C17.9991 5.9247 17.8663 5.48886 17.549 5.21596C16.2443 4.0862 14.6485 3.38373 12.9348 3.1849C8.2078 2.59979 3.88645 5.97027 3.30191 10.6973C2.94128 13.5402 4.01692 16.3728 6.17901 18.2746C6.49863 18.5543 6.90142 18.4916 7.32815 18.4256C7.52641 18.3948 7.7355 18.3623 7.948 18.3623Z" stroke="url(#paint6_linear_20_132)" stroke-miterlimit="10" stroke-linejoin="round"/>
<path d="M11.837 20.445C11.6461 20.445 11.445 20.4285 11.2336 20.3954C10.3056 20.2507 9.80647 19.7294 9.36665 19.2691C9.23618 19.1323 9.11255 19.0036 8.9855 18.8931C8.44199 18.4202 7.89334 18.4806 7.36293 18.5393C6.92539 18.5877 6.51234 18.6333 6.17506 18.3404C5.12791 17.4277 4.30409 16.2638 3.79248 14.9756C3.53212 14.3205 3.35265 13.6345 3.25922 12.9383C3.16294 12.2205 3.15781 11.4895 3.24327 10.7648C3.37715 9.60145 3.73551 8.49846 4.30922 7.48664C4.86299 6.50899 5.59223 5.65783 6.47644 4.95593C7.36122 4.25403 8.35596 3.73729 9.43387 3.41996C10.55 3.0918 11.7054 2.99323 12.8687 3.12712C14.6121 3.31399 16.2358 4.01759 17.5655 5.16103C17.9051 5.45159 18.0572 5.90053 18.2179 6.37568C18.2976 6.61097 18.3802 6.85481 18.489 7.08954C18.7055 7.55785 18.9631 7.81765 19.212 8.06889C19.4559 8.31501 19.686 8.54746 19.829 8.94741C19.9863 9.38666 19.9287 9.7114 19.8558 10.1222C19.8011 10.431 19.739 10.7813 19.7561 11.2605C19.7738 11.751 19.9521 12.1099 20.1242 12.4569C20.3253 12.8631 20.5156 13.2465 20.3651 13.7576C20.1475 14.4965 19.4952 14.7842 18.6696 15.1483C18.0207 15.4348 17.2847 15.7596 16.5127 16.3783C15.7538 16.9868 15.224 17.7308 14.7562 18.3871C14.3175 19.0036 13.9028 19.5853 13.3695 19.9681C12.9217 20.2894 12.4255 20.4455 11.8381 20.4455L11.837 20.445ZM7.8905 18.4663C8.25569 18.4663 8.6374 18.545 9.00715 18.8668C9.13534 18.9785 9.25954 19.1078 9.39058 19.2451C9.82698 19.7009 10.3215 20.2182 11.2382 20.3612C11.4478 20.3937 11.6438 20.4091 11.8267 20.4091C13.2721 20.4091 13.9523 19.4537 14.7266 18.3661C15.1955 17.708 15.7265 16.9617 16.4893 16.3504C17.2647 15.7288 18.0031 15.4035 18.6543 15.1158C19.5037 14.7409 20.1173 14.4703 20.3304 13.7467C20.4774 13.2482 20.2985 12.8876 20.0917 12.4706C19.9259 12.1367 19.7384 11.7578 19.7202 11.2605C19.7031 10.7779 19.7652 10.4258 19.8205 10.1153C19.8923 9.70912 19.9492 9.38837 19.7954 8.95766C19.6553 8.56512 19.4274 8.33552 19.1864 8.09168C18.9471 7.85012 18.6759 7.57608 18.4571 7.10264C18.3478 6.86564 18.2651 6.6218 18.1848 6.38536C18.0253 5.91477 17.8749 5.46982 17.5422 5.18553C16.2176 4.04608 14.6001 3.34589 12.8642 3.15959C8.12408 2.61437 3.82268 6.02758 3.27688 10.7682C2.94074 13.606 4.03233 16.4273 6.19671 18.3142C6.52259 18.5968 6.9288 18.5524 7.35837 18.5045C7.52929 18.4857 7.70761 18.4658 7.8905 18.4658V18.4663Z" stroke="url(#paint7_linear_20_132)" stroke-miterlimit="10" stroke-linejoin="round"/>
<path d="M11.8649 20.4658C11.6786 20.4658 11.4843 20.451 11.2798 20.4208C10.354 20.2846 9.83329 19.7844 9.37409 19.3434C9.24306 19.2175 9.11943 19.0985 8.99238 18.9942C8.45456 18.551 7.91503 18.5863 7.39374 18.6199C6.9522 18.6484 6.53517 18.6757 6.19162 18.38C5.14276 17.4736 4.31382 16.3165 3.79537 15.0341C3.53159 14.3817 3.34814 13.6986 3.24958 13.0036C3.14816 12.288 3.13734 11.5582 3.2171 10.8346C3.3413 9.66783 3.69168 8.55972 4.25741 7.54049C4.80378 6.55658 5.52733 5.69686 6.40812 4.98585C7.28891 4.27484 8.28137 3.74898 9.35871 3.42196C10.4742 3.08355 11.6313 2.97473 12.7981 3.0995C14.5637 3.27326 16.2102 3.97459 17.5599 5.12828C17.9159 5.4308 18.0869 5.89 18.268 6.37597C18.3512 6.59874 18.4372 6.82947 18.5438 7.05337C18.7591 7.50459 19.0087 7.77123 19.2497 8.02988C19.4958 8.29309 19.7282 8.54206 19.8741 8.95283C20.0347 9.40576 19.9835 9.74816 19.9185 10.1817C19.8724 10.4882 19.8205 10.8363 19.8359 11.295C19.8524 11.7724 20.012 12.1302 20.1658 12.4766C20.3509 12.8919 20.5258 13.2844 20.3749 13.7972C20.1481 14.5674 19.4855 14.8893 18.6475 15.2967C18.0373 15.5935 17.3462 15.9297 16.6232 16.5142C15.9043 17.0959 15.3983 17.763 14.9095 18.4085C14.4458 19.021 14.0071 19.5992 13.4544 19.9821C12.9839 20.308 12.4694 20.4664 11.8649 20.4664V20.4658ZM7.80679 18.5675C8.19762 18.5675 8.61238 18.6358 9.01517 18.9674C9.14336 19.0728 9.26756 19.1919 9.39859 19.3184C9.8538 19.7559 10.37 20.2521 11.2849 20.3866C11.4872 20.4162 11.6775 20.4299 11.8558 20.4299C13.3337 20.4299 14.0572 19.4745 14.881 18.3869C15.371 17.7397 15.878 17.0708 16.6005 16.4863C17.3263 15.8995 18.0196 15.5622 18.6315 15.2648C19.4622 14.8609 20.1179 14.5418 20.3407 13.7869C20.4877 13.2867 20.3236 12.9181 20.1333 12.4908C19.9778 12.1416 19.8171 11.7804 19.8 11.2961C19.7846 10.8341 19.8371 10.4848 19.8832 10.1766C19.9476 9.74816 19.9983 9.40975 19.8405 8.96479C19.6975 8.56086 19.4673 8.31474 19.224 8.05438C18.9808 7.79401 18.7295 7.5251 18.5119 7.06933C18.4042 6.84429 18.3182 6.61298 18.235 6.38908C18.0555 5.90709 17.8863 5.45245 17.5371 5.15563C16.1931 4.0065 14.5534 3.30745 12.7947 3.13482C10.4953 2.88984 8.23522 3.55699 6.43091 5.01377C4.62603 6.47055 3.4974 8.53921 3.25242 10.8392C2.94022 13.6718 4.04776 16.4811 6.21498 18.3538C6.5477 18.6398 6.9579 18.6136 7.39203 18.5851C7.52591 18.5766 7.66493 18.5675 7.80679 18.5675Z" stroke="url(#paint8_linear_20_132)" stroke-miterlimit="10" stroke-linejoin="round"/>
<path d="M11.8856 20.4869C11.7096 20.4869 11.5233 20.4744 11.3262 20.447C10.4004 20.3194 9.85684 19.8391 9.37713 19.4158C9.2478 19.3013 9.12531 19.1936 8.99997 19.0962C8.46899 18.6826 7.93972 18.6934 7.42811 18.7031C6.98144 18.7116 6.55985 18.7202 6.2089 18.4211C5.15776 17.5209 4.32483 16.3707 3.79897 15.0945C3.53177 14.445 3.34376 13.7642 3.24065 13.0714C3.13468 12.3581 3.11759 11.6294 3.19165 10.9064C3.63318 6.40621 7.43779 3.03174 11.8697 3.03174C12.1534 3.03174 12.44 3.04541 12.7277 3.0739C14.516 3.23399 16.1847 3.93418 17.5544 5.09812C17.9281 5.41375 18.1195 5.88491 18.3218 6.38342C18.4067 6.5925 18.4944 6.809 18.5987 7.0198C18.8123 7.45279 19.0533 7.72568 19.2863 7.9889C19.5353 8.27091 19.7712 8.53697 19.9198 8.96027C20.0845 9.42915 20.0395 9.79036 19.9831 10.2478C19.9455 10.5504 19.9033 10.8933 19.917 11.3309C19.9318 11.7946 20.0731 12.1501 20.2093 12.4948C20.3779 12.9204 20.5374 13.3226 20.3859 13.8371C20.1483 14.6415 19.4749 15.0005 18.6214 15.4551C18.0517 15.7582 17.4068 16.1023 16.7351 16.6504C16.0583 17.2025 15.5586 17.824 15.0749 18.4251C14.1913 19.5235 13.4153 20.4869 11.8862 20.4875L11.8856 20.4869ZM7.65657 18.6638C8.09069 18.6638 8.563 18.7105 9.02219 19.0677C9.1481 19.1657 9.27116 19.274 9.40106 19.389C9.87678 19.8095 10.4157 20.2858 11.3307 20.4117C11.5256 20.4379 11.709 20.451 11.8828 20.451C13.3977 20.451 14.1679 19.4939 15.0459 18.4029C15.5307 17.8007 16.0315 17.178 16.7112 16.623C17.3857 16.0727 18.0329 15.7274 18.6038 15.4238C19.4493 14.9731 20.117 14.6176 20.35 13.828C20.4981 13.3261 20.3477 12.9478 20.1745 12.5096C20.0366 12.1627 19.8948 11.8032 19.8794 11.3337C19.8657 10.8933 19.9085 10.5492 19.9461 10.245C20.0019 9.79207 20.0463 9.43428 19.8845 8.97395C19.7381 8.55748 19.5051 8.2937 19.2584 8.01453C19.0237 7.74904 18.781 7.47501 18.5656 7.03746C18.4608 6.82552 18.3731 6.60846 18.2876 6.39823C18.0871 5.90371 17.8973 5.43711 17.5304 5.12718C16.1671 3.96836 14.5052 3.27102 12.7242 3.1115C12.4377 3.08358 12.1517 3.06934 11.8697 3.06934C7.45602 3.0682 3.66737 6.42786 3.22811 10.9099C2.9404 13.7374 4.06332 16.5347 6.23283 18.3932C6.57295 18.6832 6.98828 18.6752 7.42754 18.6666C7.50274 18.6649 7.57908 18.6638 7.65714 18.6638H7.65657Z" stroke="url(#paint9_linear_20_132)" stroke-miterlimit="10" stroke-linejoin="round"/>
<path d="M11.9115 20.5085C11.7411 20.5085 11.5617 20.4971 11.3725 20.4732C10.4433 20.3541 9.87471 19.8927 9.37335 19.4853C9.24801 19.3833 9.12894 19.287 9.00816 19.1982C8.48515 18.8142 7.96671 18.8005 7.46592 18.7874C7.01356 18.7754 6.58627 18.7646 6.22734 18.4615C5.17449 17.5676 4.33643 16.4242 3.80374 15.1537C3.53255 14.5071 3.34056 13.8291 3.23231 13.138C3.12121 12.427 3.09899 11.7 3.16622 10.9776C3.59636 6.1743 7.8539 2.61695 12.6572 3.04766C14.4678 3.19465 16.1593 3.89256 17.5483 5.06676C17.942 5.3972 18.1545 5.88203 18.3801 6.39535C18.465 6.58906 18.5533 6.7896 18.653 6.98558C18.8638 7.3992 19.0951 7.67552 19.3196 7.94272C19.5731 8.24467 19.8124 8.5301 19.9645 8.96765C20.1337 9.45419 20.0955 9.83705 20.0477 10.3219C20.0181 10.6181 19.985 10.9537 19.997 11.3673C20.0101 11.8163 20.1331 12.1689 20.2522 12.5108C20.4043 12.9477 20.5485 13.3608 20.3958 13.8775C20.1468 14.7201 19.4592 15.1195 18.5886 15.6249C18.0616 15.9308 17.4646 16.2778 16.8458 16.7877C16.2152 17.3072 15.7263 17.8804 15.2535 18.4347C14.3106 19.54 13.4833 20.5091 11.9115 20.5091V20.5085ZM11.8699 3.04994C7.41635 3.04994 3.60833 6.46144 3.20325 10.981C2.93947 13.8035 4.07892 16.5894 6.2507 18.433C6.59937 18.7276 7.0204 18.7384 7.46592 18.7498C7.94904 18.7623 8.49712 18.7766 9.02981 19.168C9.15173 19.2574 9.2708 19.3543 9.39671 19.4562C9.89465 19.8607 10.4587 20.3188 11.3771 20.4362C11.5634 20.4595 11.7405 20.4709 11.9086 20.4709C13.4657 20.4709 14.2872 19.5081 15.2244 18.4097C15.6984 17.8542 16.1884 17.2799 16.8219 16.7575C17.4429 16.2453 18.0417 15.8978 18.5698 15.5912C19.4329 15.0899 20.1149 14.6939 20.3593 13.8661C20.508 13.3608 20.373 12.9722 20.2157 12.5221C20.0961 12.178 19.9719 11.822 19.9582 11.3673C19.9463 10.9514 19.9799 10.6141 20.0095 10.3168C20.0574 9.83648 20.095 9.45704 19.9286 8.97904C19.7788 8.54833 19.5412 8.26518 19.2899 7.96608C19.0643 7.69717 18.8313 7.41914 18.6188 7.00154C18.5185 6.80441 18.4302 6.60387 18.3453 6.40959C18.122 5.90083 17.9106 5.41999 17.5238 5.09524C16.1405 3.92674 14.4564 3.23111 12.6538 3.08526C12.3906 3.0619 12.1291 3.04994 11.8699 3.04994Z" stroke="url(#paint10_linear_20_132)" stroke-miterlimit="10" stroke-linejoin="round"/>
<path d="M11.9346 20.53C11.7706 20.53 11.5985 20.5197 11.4185 20.4992C10.483 20.3887 9.88648 19.9438 9.36006 19.5506C9.24156 19.4623 9.12932 19.3786 9.01481 19.2994C8.50149 18.9439 7.99557 18.908 7.50561 18.8732C7.04584 18.8408 6.61171 18.8094 6.24367 18.5018C5.18855 17.6147 4.34593 16.477 3.8064 15.2128C3.53179 14.569 3.33524 13.8933 3.22243 13.2045C3.10621 12.4952 3.07829 11.7699 3.13982 11.0487C3.23554 9.87106 3.55971 8.74699 4.10379 7.70725C4.62908 6.70283 5.33554 5.81976 6.20379 5.08197C7.07205 4.34418 8.05767 3.78984 9.13331 3.43319C10.2477 3.06458 11.4094 2.92614 12.587 3.02128C13.5122 3.08851 14.4135 3.30102 15.2652 3.6531C16.0902 3.99323 16.8565 4.45869 17.543 5.03525C17.9589 5.38278 18.1953 5.88357 18.4454 6.41398C18.5286 6.59002 18.6141 6.77177 18.7081 6.95009C18.9143 7.34263 19.1354 7.62008 19.3501 7.88899C19.6094 8.21373 19.8538 8.51967 20.0105 8.97431C20.1854 9.4808 20.154 9.88815 20.1141 10.4037C20.0919 10.6903 20.0674 11.0156 20.0777 11.403C20.0896 11.8355 20.195 12.1847 20.2965 12.522C20.4321 12.9721 20.5602 13.3971 20.407 13.9178C20.1455 14.8031 19.4407 15.247 18.5491 15.8081C18.0671 16.1118 17.5208 16.4553 16.9579 16.9242C16.3779 17.4073 15.9062 17.9298 15.4504 18.4351C14.4414 19.5524 13.5578 20.5317 11.9358 20.5317L11.9346 20.53ZM11.8651 3.03097C9.80102 3.03097 7.82295 3.75679 6.22829 5.11102C4.45019 6.62193 3.36714 8.73161 3.17856 11.0515C2.93871 13.8688 4.09411 16.6428 6.26874 18.4716C6.6271 18.7713 7.05496 18.802 7.50846 18.8339C8.00355 18.8693 8.51516 18.9057 9.03702 19.2669C9.15211 19.3467 9.26434 19.4304 9.38285 19.5193C9.90528 19.909 10.4972 20.3511 11.4225 20.4599C11.6002 20.4804 11.77 20.4907 11.9324 20.4907C13.5395 20.4907 14.4175 19.5176 15.4202 18.4072C15.8771 17.9013 16.35 17.3777 16.9317 16.8929C17.4963 16.4223 18.0438 16.0776 18.5269 15.774C19.4117 15.2168 20.1107 14.7769 20.3682 13.9053C20.5186 13.3959 20.3979 12.9954 20.2577 12.5322C20.1552 12.1921 20.0492 11.8412 20.0372 11.403C20.027 11.0139 20.052 10.6875 20.0737 10.3998C20.113 9.88872 20.1438 9.48479 19.9717 8.98628C19.8173 8.53848 19.5746 8.23481 19.3177 7.91292C19.1023 7.64287 18.8796 7.36371 18.6716 6.96775C18.5776 6.78829 18.4916 6.60598 18.4084 6.42993C18.16 5.90351 17.9258 5.40671 17.5162 5.06431C16.1136 3.88555 14.4072 3.1922 12.5818 3.05945C12.342 3.04008 12.1021 3.0304 11.8634 3.0304L11.8651 3.03097Z" stroke="url(#paint11_linear_20_132)" stroke-miterlimit="10" stroke-linejoin="round"/>
<path d="M11.9558 20.5523C11.7985 20.5523 11.635 20.5437 11.4641 20.5255C10.5166 20.4235 9.8888 19.9922 9.33446 19.6122C9.22735 19.5387 9.12537 19.4692 9.02225 19.4014C8.52089 19.0744 8.02752 19.0174 7.55066 18.9622C7.08178 18.9075 6.6391 18.8562 6.2608 18.5423C5.20397 17.6615 4.35679 16.5306 3.80986 15.2721C3.53126 14.6311 3.33072 13.9577 3.21279 13.2712C3.09144 12.5642 3.05782 11.8401 3.11309 11.1194C3.19911 9.93832 3.51474 8.80856 4.05142 7.76198C4.5693 6.75129 5.27006 5.85968 6.13433 5.11334C6.9986 4.36643 7.98194 3.80241 9.057 3.43665C10.1708 3.05778 11.3342 2.90908 12.5152 2.99511C13.4513 3.05607 14.364 3.26459 15.2277 3.61554C16.0635 3.95509 16.84 4.42227 17.5362 5.00395C17.9777 5.37085 18.2398 5.89158 18.5172 6.44307C18.5953 6.59804 18.6756 6.75756 18.7611 6.91537C18.9605 7.28455 19.1707 7.5603 19.3741 7.82693C19.6402 8.17674 19.892 8.50718 20.0544 8.98062C20.2355 9.51103 20.2116 9.9463 20.1808 10.4972C20.1655 10.7707 20.1484 11.0812 20.1569 11.4378C20.1672 11.8526 20.2549 12.1956 20.3398 12.5271C20.4589 12.992 20.5711 13.4307 20.4161 13.9566C20.1398 14.8915 19.4146 15.3837 18.4962 16.0076C18.0626 16.3021 17.5709 16.636 17.0679 17.0593C16.5443 17.5003 16.0988 17.968 15.6675 18.4204C14.585 19.557 13.637 20.5517 11.9552 20.5517L11.9558 20.5523ZM11.8663 3.01163C9.77144 3.01163 7.76658 3.75683 6.1611 5.14354C4.39154 6.67267 3.32331 8.79603 3.15354 11.1222C2.93818 13.9344 4.10896 16.6964 6.28644 18.5109C6.65562 18.8169 7.0926 18.8676 7.55521 18.9217C8.03663 18.9775 8.53514 19.0357 9.0439 19.3672C9.14759 19.435 9.24957 19.5045 9.35725 19.5786C9.9076 19.9563 10.5314 20.3842 11.4686 20.485C11.6373 20.5027 11.7991 20.5112 11.954 20.5112C13.6205 20.5112 14.5628 19.5222 15.639 18.3924C16.0709 17.9395 16.517 17.4706 17.0422 17.0285C17.547 16.6035 18.0393 16.2691 18.474 15.974C19.3855 15.3547 20.1056 14.8659 20.378 13.9446C20.5301 13.4296 20.4241 13.0154 20.3016 12.5363C20.2162 12.2024 20.1279 11.8571 20.117 11.4378C20.1085 11.0795 20.1256 10.7684 20.141 10.4938C20.1717 9.94687 20.1957 9.51559 20.0168 8.99258C19.8567 8.52484 19.6071 8.19725 19.3428 7.85029C19.1388 7.58252 18.9274 7.30506 18.7269 6.9336C18.6414 6.77522 18.5605 6.61513 18.4825 6.46016C18.2067 5.91266 17.947 5.39592 17.5117 5.03415C16.0891 3.84571 14.3611 3.15406 12.5135 3.03442C12.297 3.01847 12.0817 3.01106 11.8669 3.01106L11.8663 3.01163Z" stroke="url(#paint12_linear_20_132)" stroke-miterlimit="10" stroke-linejoin="round"/>
<path d="M11.9752 20.5741C11.8259 20.5741 11.671 20.5667 11.5109 20.5513C10.5452 20.4573 9.90883 20.0557 9.29296 19.6671C9.20636 19.6124 9.11748 19.556 9.02975 19.503C8.54263 19.2051 8.06464 19.1282 7.60202 19.0535C7.12174 18.9766 6.66882 18.9037 6.27799 18.5824C5.21944 17.7078 4.36714 16.5838 3.81336 15.331C3.53135 14.6929 3.32625 14.0223 3.20376 13.3375C3.07728 12.6328 3.03854 11.9103 3.08754 11.1902C3.16388 10.0058 3.47096 8.87088 4.00023 7.81689C4.51127 6.79937 5.20634 5.90034 6.06605 5.14432C6.92633 4.38887 7.90739 3.81516 8.98189 3.43914C10.0951 3.05002 11.2602 2.89164 12.4447 2.96798C13.3921 3.0221 14.3162 3.2272 15.1913 3.57758C16.0379 3.91657 16.8253 4.38602 17.5306 4.97227C18.0023 5.36253 18.2934 5.90775 18.6017 6.48545C18.6706 6.61478 18.7418 6.74809 18.8153 6.88027C19.0056 7.2221 19.2027 7.49215 19.393 7.75308C19.6693 8.13195 19.9297 8.48973 20.0989 8.9871C20.2886 9.54543 20.2709 10.0143 20.2493 10.6074C20.2396 10.8752 20.2294 11.1515 20.2362 11.4734C20.2453 11.8676 20.316 12.202 20.3843 12.5256C20.4863 13.0076 20.5832 13.4628 20.4253 13.9961C20.1319 14.9886 19.3799 15.5366 18.4279 16.2311C18.0473 16.5086 17.616 16.8231 17.1779 17.1957C16.7187 17.5865 16.3102 17.9944 15.9154 18.3887C14.7481 19.5543 13.7271 20.5736 11.9729 20.5736L11.9752 20.5741ZM11.8675 2.99191C9.74133 2.99191 7.7097 3.75648 6.09396 5.17623C4.33295 6.72359 3.2801 8.86062 3.12913 11.1936C2.9377 14.0001 4.125 16.7507 6.30419 18.551C6.68591 18.865 7.13428 18.9367 7.60829 19.0131C8.07489 19.0883 8.55688 19.1658 9.05083 19.4677C9.13856 19.5213 9.22801 19.5777 9.31404 19.6324C9.92535 20.0181 10.5577 20.4174 11.5137 20.5103C11.6721 20.5257 11.8248 20.5325 11.9724 20.5325C13.7112 20.5325 14.7264 19.519 15.8869 18.3596C16.2823 17.9648 16.6908 17.5569 17.1517 17.1643C17.591 16.7906 18.0228 16.4755 18.404 16.1975C19.3497 15.5081 20.0966 14.9635 20.386 13.9847C20.5404 13.4611 20.4493 13.0316 20.3439 12.5342C20.2749 12.2089 20.2037 11.8727 20.1946 11.4739C20.1878 11.1509 20.198 10.8615 20.2077 10.6057C20.2294 10.0166 20.2464 9.5517 20.0596 9.0002C19.8926 8.50853 19.634 8.15303 19.3594 7.77701C19.1685 7.51494 18.9708 7.24375 18.7788 6.90021C18.7053 6.76803 18.6336 6.63415 18.5646 6.50482C18.2581 5.93111 17.9693 5.3893 17.5038 5.00417C16.0618 3.80604 14.3111 3.11611 12.4418 3.00957C12.2492 2.99704 12.0578 2.99077 11.8664 2.99077L11.8675 2.99191Z" stroke="url(#paint13_linear_20_132)" stroke-miterlimit="10" stroke-linejoin="round"/>
<path d="M11.9926 20.5964C11.8502 20.5964 11.7049 20.5901 11.5562 20.5776C10.5632 20.4916 9.88351 20.0967 9.22605 19.715C9.16281 19.678 9.09957 19.6415 9.03633 19.6051C8.56745 19.3356 8.10712 19.2416 7.66159 19.1504C7.16707 19.049 6.6999 18.9539 6.29426 18.6234C5.23344 17.7552 4.37657 16.6374 3.81596 15.3908C3.53053 14.7556 3.32088 14.0873 3.19326 13.4048C3.06222 12.7017 3.01721 11.981 3.06051 11.2615C3.33569 6.40117 7.51347 2.66949 12.3743 2.94295C13.3326 2.99024 14.2687 3.19135 15.1552 3.54116C16.0132 3.87958 16.8108 4.35074 17.5252 4.94154C18.034 5.35972 18.3581 5.93742 18.7023 6.54816C18.7569 6.64558 18.8133 6.74585 18.8709 6.84555C19.0486 7.15548 19.2298 7.41357 19.4047 7.66311C19.6941 8.07672 19.9676 8.46698 20.1454 8.99398C20.3453 9.58763 20.3351 10.097 20.3225 10.7413C20.318 10.9817 20.3129 11.2301 20.3186 11.5087C20.326 11.8796 20.3807 12.2021 20.4336 12.5137C20.5185 13.0168 20.5994 13.4914 20.4382 14.036C20.1243 15.098 19.3369 15.7104 18.3399 16.4858C18.0038 16.7473 17.6562 17.018 17.2916 17.3319C16.9076 17.6623 16.5527 18.0013 16.2091 18.3295C15.5346 18.9732 14.8982 19.5811 14.1684 20.0039C13.4785 20.4038 12.7777 20.5952 11.9938 20.5952L11.9926 20.5964ZM11.8718 2.97144C7.25082 2.97144 3.36759 6.59431 3.10438 11.2643C2.93688 14.0657 4.14014 16.8043 6.32218 18.5904C6.71927 18.914 7.18132 19.0086 7.67071 19.1088C8.11908 19.2006 8.58284 19.2957 9.05798 19.568C9.12122 19.6045 9.18389 19.641 9.2477 19.678C9.9006 20.0574 10.5763 20.4505 11.5596 20.5354C13.6517 20.7126 14.8224 19.5942 16.1784 18.2998C16.5225 17.9717 16.878 17.6315 17.2626 17.3005C17.6283 16.9855 17.9764 16.7149 18.3126 16.4534C19.3033 15.6825 20.0855 15.0735 20.396 14.0252C20.5539 13.4902 20.4781 13.0419 20.3903 12.5223C20.3374 12.2089 20.2827 11.8848 20.2747 11.511C20.269 11.2313 20.2747 10.9823 20.2787 10.7419C20.2912 10.1015 20.3015 9.59561 20.1038 9.00936C19.9283 8.48806 19.6565 8.10008 19.3688 7.68931C19.1934 7.4392 19.0122 7.17998 18.8333 6.86834C18.7763 6.76864 18.7193 6.6678 18.6646 6.57038C18.3228 5.96248 18.0004 5.38877 17.4979 4.97572C16.0359 3.76734 14.2635 3.07969 12.3721 2.98625C12.2046 2.97657 12.0376 2.97201 11.8718 2.97201V2.97144Z" stroke="url(#paint14_linear_20_132)" stroke-miterlimit="10" stroke-linejoin="round"/>
<path d="M12.0042 20.6183C11.8726 20.6183 11.7387 20.6132 11.6026 20.6035C10.5679 20.526 9.8347 20.1312 9.12483 19.7501L9.0445 19.7068C8.59783 19.4669 8.15972 19.3587 7.73584 19.2538C7.22195 19.1268 6.73598 19.0066 6.31211 18.6642C5.24957 17.8022 4.38758 16.6912 3.82014 15.4509C3.53072 14.8186 3.31707 14.1531 3.1849 13.4723C3.04873 12.7715 2.99803 12.052 3.03506 11.3336C3.0926 10.1423 3.38259 8.99656 3.89648 7.9289C4.39328 6.8977 5.07695 5.98273 5.92868 5.20961C6.78042 4.43593 7.75692 3.84342 8.83085 3.44803C9.94295 3.03897 11.1115 2.86008 12.3027 2.91762C13.2724 2.95807 14.2193 3.15576 15.1177 3.505C15.9866 3.84285 16.7944 4.31629 17.5186 4.91165C18.0735 5.36629 18.4381 5.98615 18.8244 6.64304C18.8574 6.69944 18.891 6.75584 18.9241 6.81281C19.0847 7.084 19.2454 7.32157 19.4003 7.55117C19.7086 8.00695 19.9997 8.43766 20.1883 9.00283C20.4014 9.64206 20.3985 10.2027 20.3945 10.9125C20.3934 11.1136 20.3922 11.3216 20.3962 11.5466C20.4019 11.8885 20.4412 12.1938 20.4794 12.489C20.5472 13.0182 20.6116 13.5184 20.4458 14.0785C20.1062 15.2265 19.2705 15.9158 18.2125 16.7881C17.951 17.0034 17.6804 17.2268 17.4001 17.4712C17.1089 17.7253 16.8286 17.9828 16.558 18.2318C15.8282 18.9035 15.1388 19.5376 14.3583 19.9831C13.6023 20.4144 12.8445 20.6206 12.0025 20.6206L12.0042 20.6183ZM11.8698 2.95009C9.68031 2.95009 7.59569 3.75454 5.95888 5.24095C4.21553 6.82421 3.19287 8.98858 3.0795 11.3347C2.93593 14.1309 4.15513 16.8576 6.34002 18.6294C6.75649 18.9656 7.23734 19.0846 7.74667 19.2105C8.17282 19.3159 8.61379 19.4253 9.06558 19.6675L9.14591 19.7108C9.85122 20.0902 10.581 20.4822 11.606 20.5591C11.741 20.5688 11.8732 20.5739 12.0014 20.5739C13.9464 20.5739 15.1496 19.4669 16.5295 18.197C16.8007 17.9475 17.081 17.69 17.3727 17.4353C17.6536 17.1909 17.9242 16.9675 18.1857 16.7516C19.238 15.8839 20.0692 15.1991 20.4048 14.0637C20.5677 13.5128 20.5068 13.0399 20.4367 12.4924C20.3985 12.1961 20.3592 11.8896 20.3535 11.5455C20.3495 11.3199 20.3506 11.1119 20.3518 10.9103C20.3558 10.2044 20.3586 9.64718 20.1478 9.01479C19.961 8.45532 19.6715 8.02689 19.365 7.57396C19.2095 7.34379 19.0483 7.10565 18.887 6.83332C18.8534 6.77635 18.8204 6.71995 18.7873 6.66355C18.4033 6.01064 18.0404 5.39363 17.4918 4.94412C16.0105 3.72606 14.2159 3.04011 12.3016 2.96035C12.1575 2.95351 12.0128 2.95009 11.8698 2.95009Z" stroke="url(#paint15_linear_20_132)" stroke-miterlimit="10" stroke-linejoin="round"/>
<path d="M12.0104 20.6406C11.8914 20.6406 11.7711 20.6366 11.6487 20.6292C10.5554 20.5597 9.72186 20.1432 9.05186 19.8082C8.6354 19.5997 8.22634 19.4818 7.83095 19.3673C7.28971 19.2106 6.7781 19.063 6.32973 18.7041C5.26492 17.849 4.39894 16.7443 3.82466 15.5097C3.53182 14.8801 3.31362 14.217 3.17688 13.5384C3.03559 12.84 2.97976 12.1215 3.01052 11.4043C3.20537 6.51432 7.34383 2.69547 12.2332 2.89032C13.2137 2.92393 14.1725 3.1182 15.0824 3.46687C15.9626 3.80415 16.7807 4.2793 17.514 4.87922C18.131 5.38228 18.5434 6.05968 18.9799 6.77639C19.1149 6.99802 19.2488 7.20141 19.3781 7.39853C19.7142 7.909 20.031 8.39156 20.235 9.00857C20.4668 9.70876 20.4702 10.3394 20.4742 11.1371C20.4748 11.2795 20.4759 11.427 20.4782 11.5809C20.4828 11.8857 20.5078 12.1648 20.5318 12.4354C20.5825 13.0006 20.6303 13.5339 20.4577 14.1167C20.084 15.3781 19.1787 16.1614 18.0318 17.1533C17.8638 17.2986 17.69 17.449 17.5128 17.6051C17.3402 17.7572 17.1693 17.9111 17.0035 18.0598C16.2053 18.7765 15.451 19.4533 14.6032 19.9347C13.7618 20.4127 12.9294 20.6406 12.0099 20.6406H12.0104ZM11.8737 2.92849C7.16608 2.92849 3.24468 6.66017 3.05496 11.406C2.93589 14.1965 4.17048 16.9118 6.35821 18.6694C6.79975 19.0226 7.3068 19.1696 7.84405 19.3245C8.24172 19.4396 8.65249 19.5581 9.07294 19.7684C9.92012 20.1917 10.6477 20.521 11.6521 20.5848C11.774 20.5922 11.8931 20.5962 12.0099 20.5962C14.1116 20.5962 15.4442 19.4003 16.9744 18.0273C17.1402 17.8786 17.3117 17.7248 17.4843 17.5726C17.6615 17.4165 17.8353 17.2661 18.0033 17.1203C19.1445 16.1329 20.0458 15.3536 20.4156 14.1047C20.5853 13.5299 20.5403 13.0251 20.4879 12.44C20.4634 12.1688 20.4383 11.8885 20.4338 11.582C20.4315 11.4282 20.4309 11.2806 20.4298 11.1376C20.4252 10.3434 20.4218 9.71673 20.1928 9.02281C19.9905 8.4115 19.6897 7.95401 19.3411 7.4236C19.2112 7.22647 19.0773 7.02251 18.9423 6.80032C18.5081 6.08646 18.0979 5.41248 17.4866 4.91454C15.9842 3.68622 14.1674 3.00198 12.2315 2.93532C12.1118 2.93077 11.9928 2.92792 11.8737 2.92792V2.92849Z" stroke="url(#paint16_linear_20_132)" stroke-miterlimit="10" stroke-linejoin="round"/>
<path d="M12.0105 20.6635C11.9062 20.6635 11.8014 20.6606 11.6949 20.6555C10.6261 20.6002 9.80679 20.2573 9.05989 19.9103C8.68615 19.7371 8.31868 19.6163 7.96374 19.5001C7.38148 19.3092 6.8317 19.1292 6.34743 18.7446C5.28091 17.8958 4.40981 16.7973 3.82869 15.569C3.53243 14.9423 3.30967 14.2814 3.16781 13.6052C3.02139 12.9084 2.95986 12.1923 2.98436 11.475C3.14047 6.5708 7.25842 2.70808 12.1626 2.86419C13.1539 2.89097 14.1242 3.08125 15.046 3.42935C15.937 3.76606 16.7654 4.24349 17.5083 4.84796C18.1458 5.36527 18.6119 6.06717 19.034 6.74172C19.1297 6.89441 19.2249 7.04197 19.3172 7.1844C19.7126 7.79628 20.0538 8.32441 20.2806 9.01549C20.5392 9.80512 20.5472 10.5366 20.5569 11.463L20.5586 11.6168C20.5614 11.8698 20.5746 12.1085 20.5871 12.3392C20.6218 12.9825 20.652 13.5374 20.4686 14.1567C20.2754 14.8084 19.9433 15.3964 19.4226 16.0054C18.9531 16.5552 18.3674 17.0782 17.747 17.6325L17.6012 17.763C16.7135 18.5566 15.8749 19.3064 14.936 19.8482C13.9772 20.4014 13.0394 20.6635 12.0105 20.6635ZM11.8749 2.90635C7.12283 2.90635 3.18319 6.6933 3.02994 11.4767C2.9348 14.2615 4.18534 16.9654 6.37535 18.7087C6.85278 19.0876 7.39914 19.2665 7.97741 19.4562C8.33406 19.573 8.70267 19.6938 9.07869 19.8687C9.8216 20.2134 10.6363 20.5552 11.6966 20.6099C11.7985 20.615 11.8988 20.6173 11.9979 20.6173C14.3389 20.6173 15.9097 19.2124 17.5693 17.7288L17.7151 17.5984C18.9953 16.4549 20.006 15.5519 20.423 14.1441C20.6042 13.5322 20.574 12.9808 20.5398 12.3421C20.5273 12.1108 20.5142 11.8715 20.5113 11.618L20.5096 11.4642C20.4999 10.5418 20.4919 9.8131 20.2356 9.0303C20.0111 8.34492 19.671 7.81907 19.2773 7.21003C19.185 7.0676 19.0899 6.92005 18.9941 6.76679C18.5737 6.09566 18.1099 5.39718 17.4781 4.88443C15.9581 3.64642 14.1196 2.96389 12.1615 2.91091C12.0657 2.90806 11.97 2.90635 11.8749 2.90635Z" stroke="url(#paint17_linear_20_132)" stroke-miterlimit="10" stroke-linejoin="round"/>
<path d="M11.9951 20.6864C11.9108 20.6864 11.8265 20.6847 11.7416 20.6812C10.662 20.6385 9.78403 20.3189 9.06789 20.0118C8.76366 19.8814 8.46341 19.7731 8.17229 19.6677C7.52109 19.4324 6.90579 19.2108 6.36456 18.7846C5.29576 17.942 4.42009 16.8504 3.83214 15.6278C3.5319 15.004 3.30515 14.3459 3.15873 13.6708C3.00775 12.9763 2.93995 12.2613 2.95875 11.5452C3.07384 6.69967 7.05392 2.83582 11.8761 2.83582C11.9478 2.83582 12.0202 2.83695 12.092 2.83866C13.0947 2.85917 14.0763 3.04547 15.0095 3.393C15.912 3.72914 16.7506 4.20828 17.5026 4.81731C18.1789 5.36368 18.6837 6.07925 19.0887 6.70708C19.1201 6.75551 19.1508 6.80336 19.1816 6.85065C19.6545 7.58218 20.063 8.214 20.3256 9.02243C20.6019 9.87303 20.6304 10.6826 20.639 11.6523C20.6407 11.8243 20.6447 11.9913 20.6486 12.1531C20.6663 12.8834 20.6811 13.5136 20.4789 14.1961C20.276 14.8798 19.9297 15.523 19.4192 16.1628C18.9304 16.7752 18.3213 17.3489 17.7357 17.8776C16.9284 18.612 16.0419 19.3663 15.0295 19.9053C14.0456 20.4294 13.0503 20.6852 11.9951 20.6852V20.6864ZM11.8761 2.8831C7.07899 2.8831 3.12056 6.72645 3.00547 11.5474C2.93426 14.3271 4.20075 17.0185 6.39361 18.7482C6.92915 19.1692 7.54046 19.3897 8.18824 19.6238C8.47994 19.7292 8.78075 19.8381 9.08612 19.9685C9.79828 20.2739 10.6711 20.5918 11.7427 20.6345C11.8265 20.6379 11.9102 20.6391 11.9923 20.6391C14.4221 20.6391 16.145 19.2615 17.7032 17.8435C18.8865 16.7747 19.9861 15.691 20.4327 14.1836C20.6327 13.5084 20.6179 12.8812 20.6002 12.1548C20.5962 11.993 20.5922 11.8255 20.5905 11.6528C20.582 10.6872 20.5541 9.88101 20.2795 9.03725C20.0185 8.23508 19.6117 7.60553 19.1406 6.87629C19.1098 6.829 19.0791 6.78115 19.0477 6.73272C18.6449 6.10773 18.1424 5.39615 17.4719 4.85377C15.9325 3.60665 14.0712 2.92583 12.0908 2.88595C12.0191 2.88424 11.9473 2.8831 11.8761 2.8831Z" stroke="url(#paint18_linear_20_132)" stroke-miterlimit="10" stroke-linejoin="round"/>
<path d="M11.9784 20.7103C11.9146 20.7103 11.8513 20.7097 11.787 20.708C10.9039 20.6846 10.0425 20.4955 9.07452 20.1143C8.90645 20.0483 8.73781 19.9839 8.57487 19.9218C7.78239 19.6204 7.03377 19.3355 6.38087 18.8262C5.31036 17.9898 4.42957 16.9051 3.83478 15.6887C3.53112 15.0677 3.29981 14.412 3.14826 13.7391C2.99216 13.0469 2.91923 12.3331 2.9312 11.6181C3.01039 6.68427 7.08732 2.73381 12.0211 2.81243C13.0347 2.82611 14.0277 3.00842 14.9729 3.35595C15.8861 3.69151 16.7356 4.17236 17.4967 4.78652C18.075 5.25142 18.598 5.85133 19.1432 6.67287C19.7044 7.51948 20.1061 8.20885 20.3704 9.02982C20.6114 9.77672 20.7122 10.547 20.7191 11.6887V11.74C20.7253 12.6436 20.7299 13.4241 20.4889 14.2371C20.2787 14.9458 19.9425 15.6101 19.46 16.2676C19.0515 16.8248 18.5388 17.3797 17.8465 18.0149C16.8757 18.9105 16.0052 19.5321 15.1085 19.9702C14.0909 20.4676 13.0654 20.7103 11.9784 20.7103ZM11.877 2.85972C7.03434 2.85972 3.05768 6.75947 2.98076 11.6181C2.93234 14.4336 4.18288 17.0464 6.41163 18.7875C7.05884 19.2922 7.80404 19.576 8.5931 19.8762C8.75604 19.9383 8.92468 20.0021 9.09332 20.0688C10.0556 20.4482 10.9119 20.6356 11.7887 20.659C11.8502 20.6607 11.9123 20.6613 11.9733 20.6613C14.5678 20.6613 16.4536 19.2336 17.8141 17.979C18.843 17.0356 19.9596 15.8517 20.4428 14.2228C20.6815 13.4167 20.6769 12.6396 20.6712 11.7394V11.6881C20.6644 10.5515 20.5641 9.78584 20.3248 9.04406C20.0616 8.22822 19.6622 7.54227 19.1033 6.69908C18.561 5.88153 18.0414 5.2856 17.4671 4.82355C15.9061 3.56618 14.0226 2.88764 12.0206 2.86086C11.9727 2.86029 11.9248 2.85972 11.877 2.85972Z" stroke="url(#paint19_linear_20_132)" stroke-miterlimit="10" stroke-linejoin="round"/>
<path d="M11.9398 20.734C11.9044 20.734 11.8691 20.734 11.8332 20.7335C10.9154 20.7209 10.0152 20.5517 9.0826 20.2156C8.16933 19.8869 7.2122 19.4955 6.39863 18.8665C5.32584 18.0364 4.44049 16.9579 3.83887 15.7478C3.53122 15.1297 3.29649 14.4762 3.13982 13.8056C2.97859 13.1157 2.89996 12.403 2.90623 11.6885C2.91592 10.479 3.16261 9.30711 3.64003 8.2047C4.10094 7.13988 4.75612 6.1856 5.58735 5.36748C6.41857 4.54935 7.38368 3.90899 8.45533 3.46517C9.56515 3.00484 10.7411 2.77638 11.9506 2.78606C12.9755 2.7929 13.9799 2.97179 14.9365 3.31818C15.8606 3.65318 16.7203 4.1363 17.4917 4.75445C18.1178 5.25638 18.6762 5.87225 19.198 6.63739C19.7769 7.48627 20.1643 8.24856 20.4161 9.03592C20.6747 9.84493 20.7967 10.6989 20.8001 11.7239C20.8035 12.7927 20.7135 13.5561 20.4998 14.2768C20.0845 15.6772 19.2533 16.9442 17.9583 18.1515C16.1249 19.8658 14.1007 20.7346 11.9398 20.7346V20.734ZM11.8777 2.83563C9.5247 2.83563 7.30563 3.74548 5.6221 5.4028C3.92148 7.07664 2.9746 9.30939 2.9558 11.6891C2.93187 14.499 4.19779 17.1003 6.4294 18.8272C7.23783 19.4522 8.19098 19.8413 9.09969 20.1689C10.0272 20.5033 10.9217 20.6714 11.8344 20.6839C11.8697 20.6839 11.905 20.6845 11.9398 20.6845C14.0876 20.6845 16.1004 19.8202 17.9241 18.1145C19.2123 16.914 20.0389 15.6538 20.4514 14.2626C20.6634 13.547 20.7528 12.7881 20.7494 11.7244C20.7465 10.7046 20.6252 9.85575 20.3682 9.05187C20.1176 8.26907 19.7324 7.51077 19.1564 6.66587C18.6374 5.90529 18.0825 5.29284 17.4598 4.79376C15.88 3.52613 13.9742 2.8493 11.95 2.83563C11.9261 2.83563 11.9016 2.83563 11.8777 2.83563Z" stroke="url(#paint20_linear_20_132)" stroke-miterlimit="10" stroke-linejoin="round"/>
<path d="M11.8799 20.7598C6.91706 20.7598 2.88 16.7222 2.88 11.7599C2.88 6.79764 6.91706 2.76001 11.8799 2.76001C16.8428 2.76001 20.8798 6.79707 20.8798 11.7599C20.8798 16.7228 16.8428 20.7598 11.8799 20.7598ZM11.8799 2.81128C6.94555 2.81128 2.93128 6.82555 2.93128 11.7599C2.93128 16.6943 6.94555 20.7086 11.8799 20.7086C16.8143 20.7086 20.8286 16.6943 20.8286 11.7599C20.8286 6.82555 16.8143 2.81128 11.8799 2.81128Z" stroke="url(#paint21_linear_20_132)" stroke-miterlimit="10" stroke-linejoin="round"/>
<defs>
<linearGradient id="paint0_linear_20_132" x1="7.40352" y1="4.40377" x2="15.4873" y2="18.4053" gradientUnits="userSpaceOnUse">
<stop stop-color="#FF7FFF"/>
<stop offset="1" stop-color="#00A6FF"/>
</linearGradient>
<linearGradient id="paint1_linear_20_132" x1="7.39622" y1="4.39217" x2="15.5096" y2="18.445" gradientUnits="userSpaceOnUse">
<stop stop-color="#FF7FFF"/>
<stop offset="1" stop-color="#00A6FF"/>
</linearGradient>
<linearGradient id="paint2_linear_20_132" x1="7.38831" y1="4.38026" x2="15.5319" y2="18.4855" gradientUnits="userSpaceOnUse">
<stop stop-color="#FF7FFF"/>
<stop offset="1" stop-color="#00A6FF"/>
</linearGradient>
<linearGradient id="paint3_linear_20_132" x1="7.37962" y1="4.36766" x2="15.5546" y2="18.5264" gradientUnits="userSpaceOnUse">
<stop stop-color="#FF7FFF"/>
<stop offset="1" stop-color="#00A6FF"/>
</linearGradient>
<linearGradient id="paint4_linear_20_132" x1="7.37124" y1="4.35362" x2="15.5781" y2="18.5682" gradientUnits="userSpaceOnUse">
<stop stop-color="#FF7FFF"/>
<stop offset="1" stop-color="#00A6FF"/>
</linearGradient>
<linearGradient id="paint5_linear_20_132" x1="7.36243" y1="4.34081" x2="15.6012" y2="18.6107" gradientUnits="userSpaceOnUse">
<stop stop-color="#FF7FFF"/>
<stop offset="1" stop-color="#00A6FF"/>
</linearGradient>
<linearGradient id="paint6_linear_20_132" x1="7.35435" y1="4.32605" x2="15.6267" y2="18.6534" gradientUnits="userSpaceOnUse">
<stop stop-color="#FF7FFF"/>
<stop offset="1" stop-color="#00A6FF"/>
</linearGradient>
<linearGradient id="paint7_linear_20_132" x1="7.35439" y1="4.30474" x2="15.6609" y2="18.6919" gradientUnits="userSpaceOnUse">
<stop stop-color="#FF7FFF"/>
<stop offset="1" stop-color="#00A6FF"/>
</linearGradient>
<linearGradient id="paint8_linear_20_132" x1="7.35386" y1="4.28395" x2="15.6957" y2="18.7321" gradientUnits="userSpaceOnUse">
<stop stop-color="#FF7FFF"/>
<stop offset="1" stop-color="#00A6FF"/>
</linearGradient>
<linearGradient id="paint9_linear_20_132" x1="7.35404" y1="4.26348" x2="15.7312" y2="18.7732" gradientUnits="userSpaceOnUse">
<stop stop-color="#FF7FFF"/>
<stop offset="1" stop-color="#00A6FF"/>
</linearGradient>
<linearGradient id="paint10_linear_20_132" x1="7.35368" y1="4.24123" x2="15.7685" y2="18.817" gradientUnits="userSpaceOnUse">
<stop stop-color="#FF7FFF"/>
<stop offset="1" stop-color="#00A6FF"/>
</linearGradient>
<linearGradient id="paint11_linear_20_132" x1="7.35235" y1="4.2177" x2="15.807" y2="18.8624" gradientUnits="userSpaceOnUse">
<stop stop-color="#FF7FFF"/>
<stop offset="1" stop-color="#00A6FF"/>
</linearGradient>
<linearGradient id="paint12_linear_20_132" x1="7.35125" y1="4.19495" x2="15.8481" y2="18.9109" gradientUnits="userSpaceOnUse">
<stop stop-color="#FF7FFF"/>
<stop offset="1" stop-color="#00A6FF"/>
</linearGradient>
<linearGradient id="paint13_linear_20_132" x1="7.35077" y1="4.17124" x2="15.8909" y2="18.9629" gradientUnits="userSpaceOnUse">
<stop stop-color="#FF7FFF"/>
<stop offset="1" stop-color="#00A6FF"/>
</linearGradient>
<linearGradient id="paint14_linear_20_132" x1="7.35052" y1="4.14735" x2="15.9357" y2="19.0171" gradientUnits="userSpaceOnUse">
<stop stop-color="#FF7FFF"/>
<stop offset="1" stop-color="#00A6FF"/>
</linearGradient>
<linearGradient id="paint15_linear_20_132" x1="7.35014" y1="4.1203" x2="15.9843" y2="19.0755" gradientUnits="userSpaceOnUse">
<stop stop-color="#FF7FFF"/>
<stop offset="1" stop-color="#00A6FF"/>
</linearGradient>
<linearGradient id="paint16_linear_20_132" x1="7.35067" y1="4.09471" x2="16.0372" y2="19.1399" gradientUnits="userSpaceOnUse">
<stop stop-color="#FF7FFF"/>
<stop offset="1" stop-color="#00A6FF"/>
</linearGradient>
<linearGradient id="paint17_linear_20_132" x1="7.35243" y1="4.0663" x2="16.096" y2="19.2107" gradientUnits="userSpaceOnUse">
<stop stop-color="#FF7FFF"/>
<stop offset="1" stop-color="#00A6FF"/>
</linearGradient>
<linearGradient id="paint18_linear_20_132" x1="7.35473" y1="4.03736" x2="16.1615" y2="19.2911" gradientUnits="userSpaceOnUse">
<stop stop-color="#FF7FFF"/>
<stop offset="1" stop-color="#00A6FF"/>
</linearGradient>
<linearGradient id="paint19_linear_20_132" x1="7.35794" y1="4.00657" x2="16.2325" y2="19.3777" gradientUnits="userSpaceOnUse">
<stop stop-color="#FF7FFF"/>
<stop offset="1" stop-color="#00A6FF"/>
</linearGradient>
<linearGradient id="paint20_linear_20_132" x1="7.36203" y1="3.9745" x2="16.3101" y2="19.4732" gradientUnits="userSpaceOnUse">
<stop stop-color="#FF7FFF"/>
<stop offset="1" stop-color="#00A6FF"/>
</linearGradient>
<linearGradient id="paint21_linear_20_132" x1="7.36657" y1="3.94275" x2="16.3933" y2="19.5771" gradientUnits="userSpaceOnUse">
<stop stop-color="#FF7FFF"/>
<stop offset="1" stop-color="#00A6FF"/>
</linearGradient>
</defs>
</svg>
