<svg width="118" height="107" viewBox="0 0 118 107" fill="none" xmlns="http://www.w3.org/2000/svg">
<path d="M14.1557 40.0513V40.0522H14.1182V70.9875H103.074V40.0522H14.4266L14.1557 40.0513ZM28.3079 50.6616C28.3079 47.9322 30.5985 45.7169 33.4229 45.7169C36.2462 45.7169 38.5196 47.9322 38.5196 50.6616C38.5196 53.3743 36.2464 55.5885 33.4229 55.5885C30.5985 55.5882 28.3079 53.3741 28.3079 50.6616ZM57.4363 63.6552L57.4464 63.6403L57.4684 63.674L68.657 46.2321C70.3975 43.5374 74.7479 43.5374 76.4884 46.2321L85.4314 60.1684L90.1583 67.5716H59.9722L60.0079 67.6228H46.5955L39.6679 67.6033L45.8896 57.9232C47.6474 55.2106 52.0164 55.2106 53.7751 57.9232L56.3157 61.8792L57.4363 63.6552Z" fill="url(#paint0_linear_5_177)"/>
<path d="M114.139 107C115.826 107 117.193 105.679 117.211 104.047V0H0V104.047C0 105.679 1.36687 107 3.05414 107H114.139ZM9.90164 8.58445C9.93 8.46687 9.96398 8.34905 10.016 8.24121C10.016 8.22354 10.016 8.22354 10.016 8.20655C10.3713 7.39953 11.2062 6.83313 12.1648 6.83313C13.1243 6.83313 13.9409 7.39953 14.2962 8.20655C14.2962 8.22331 14.2962 8.22331 14.2962 8.24121C14.3428 8.33773 14.3705 8.44285 14.3979 8.5482C14.4162 8.61459 14.4309 8.68369 14.4417 8.75437C14.4581 8.86222 14.4738 8.9712 14.4738 9.08176C14.4738 10.3183 13.444 11.3139 12.165 11.3139C10.887 11.3139 9.83859 10.3183 9.83859 9.08176C9.83859 8.96236 9.85406 8.84387 9.87328 8.72605C9.88031 8.67848 9.89039 8.63158 9.90164 8.58445ZM20.0602 8.58355C20.0888 8.46596 20.1216 8.34905 20.1748 8.24121C20.1748 8.22354 20.1748 8.22354 20.1748 8.20655C20.5298 7.39953 21.3466 6.83313 22.3052 6.83313C23.2648 6.83313 24.0813 7.39953 24.4366 8.20655C24.4366 8.22331 24.4366 8.22331 24.4366 8.24121C24.4833 8.33773 24.5109 8.44285 24.5393 8.5482C24.5566 8.61459 24.5714 8.68278 24.5824 8.75347C24.5988 8.86222 24.6143 8.9712 24.6143 9.08176C24.6143 10.3183 23.5845 11.3139 22.3055 11.3139C21.0274 11.3139 19.9973 10.3183 19.9973 9.08176C19.9973 8.96236 20.0128 8.84477 20.0313 8.72696C20.0391 8.67938 20.0491 8.63158 20.0602 8.58355ZM30.2004 8.58445C30.229 8.46687 30.2627 8.34905 30.315 8.24121C30.315 8.22354 30.315 8.22354 30.315 8.20655C30.6701 7.39953 31.4869 6.83313 32.4464 6.83313C33.405 6.83313 34.2216 7.39953 34.5769 8.20655C34.5769 8.22331 34.5769 8.22331 34.5769 8.24121C34.7013 8.49881 34.7545 8.78994 34.7545 9.08176C34.7545 10.3183 33.7247 11.3139 32.4466 11.3139C31.1677 11.3139 30.1376 10.3183 30.1376 9.08176C30.1376 8.96236 30.153 8.84387 30.1725 8.72605C30.1795 8.67848 30.1896 8.63158 30.2004 8.58445ZM3.55125 103.567V17.4773H113.659V103.567H3.55125Z" fill="url(#paint1_linear_5_177)"/>
<path d="M87.3046 79.6396H14.1182V84.3265H87.3046V79.6396Z" fill="url(#paint2_linear_5_177)"/>
<path d="M76.9152 90.5576H14.1182V95.2454H76.9152V90.5576Z" fill="url(#paint3_linear_5_177)"/>
<path d="M90.1812 31.9492C92.277 31.9492 93.9814 30.3012 93.9814 28.2755C93.9814 26.2498 92.2768 24.6011 90.1812 24.6011C88.0855 24.6011 86.3809 26.2498 86.3809 28.2755C86.3809 30.3012 88.0855 31.9492 90.1812 31.9492Z" fill="url(#paint4_linear_5_177)"/>
<path d="M103.27 24.6006C101.174 24.6006 99.4697 26.2493 99.4697 28.275C99.4697 30.3007 101.175 31.9487 103.27 31.9487C105.366 31.9487 107.07 30.3007 107.07 28.275C107.07 26.2493 105.366 24.6006 103.27 24.6006Z" fill="url(#paint5_linear_5_177)"/>
<path d="M32.9249 24.6006H14.1182V30.7123H32.9249V24.6006Z" fill="url(#paint6_linear_5_177)"/>
<defs>
<linearGradient id="paint0_linear_5_177" x1="14.1182" y1="45.317" x2="19.5084" y2="77.5284" gradientUnits="userSpaceOnUse">
<stop stop-color="#FF884B"/>
<stop offset="1" stop-color="#EF38BE"/>
</linearGradient>
<linearGradient id="paint1_linear_5_177" x1="-2.20853e-06" y1="18.2128" x2="42.1716" y2="114.219" gradientUnits="userSpaceOnUse">
<stop stop-color="#FF884B"/>
<stop offset="1" stop-color="#EF38BE"/>
</linearGradient>
<linearGradient id="paint2_linear_5_177" x1="14.1182" y1="80.4374" x2="14.2726" y2="85.4494" gradientUnits="userSpaceOnUse">
<stop stop-color="#FF884B"/>
<stop offset="1" stop-color="#EF38BE"/>
</linearGradient>
<linearGradient id="paint3_linear_5_177" x1="14.1182" y1="91.3555" x2="14.2982" y2="96.3668" gradientUnits="userSpaceOnUse">
<stop stop-color="#FF884B"/>
<stop offset="1" stop-color="#EF38BE"/>
</linearGradient>
<linearGradient id="paint4_linear_5_177" x1="86.3809" y1="25.8518" x2="89.3888" y2="32.3178" gradientUnits="userSpaceOnUse">
<stop stop-color="#FF884B"/>
<stop offset="1" stop-color="#EF38BE"/>
</linearGradient>
<linearGradient id="paint5_linear_5_177" x1="99.4697" y1="25.8513" x2="102.478" y2="32.3173" gradientUnits="userSpaceOnUse">
<stop stop-color="#FF884B"/>
<stop offset="1" stop-color="#EF38BE"/>
</linearGradient>
<linearGradient id="paint6_linear_5_177" x1="14.1182" y1="25.6409" x2="15.1167" y2="32.0266" gradientUnits="userSpaceOnUse">
<stop stop-color="#FF884B"/>
<stop offset="1" stop-color="#EF38BE"/>
</linearGradient>
</defs>
</svg>
