<svg width="120" height="108" viewBox="0 0 120 108" fill="none" xmlns="http://www.w3.org/2000/svg">
<path d="M12 0.5H108C114.351 0.5 119.5 5.64872 119.5 12V78C119.5 84.3513 114.351 89.5 108 89.5H80.2783L80.1318 89.6465L63.8887 105.889C61.7408 108.037 58.2592 108.037 56.1113 105.889L39.8682 89.6465L39.7217 89.5H12C5.64873 89.5 0.5 84.3513 0.5 78V12C0.5 5.64872 5.64873 0.5 12 0.5ZM11.5 78.5H42C43.4587 78.5 44.8572 79.0799 45.8887 80.1113L59.6465 93.8682L60 94.2217L60.3535 93.8682L74.1113 80.1113C75.1428 79.0799 76.5413 78.5 78 78.5H108.5V11.5H11.5V78.5ZM36 36.5C40.6944 36.5 44.5 40.3056 44.5 45C44.5 49.6944 40.6944 53.5 36 53.5C31.3056 53.5 27.5 49.6944 27.5 45C27.5 40.3056 31.3056 36.5 36 36.5ZM60 36.5C64.6944 36.5 68.5 40.3056 68.5 45C68.5 49.6944 64.6944 53.5 60 53.5C55.3056 53.5 51.5 49.6944 51.5 45C51.5 40.3056 55.3056 36.5 60 36.5ZM84 36.5C88.6944 36.5 92.5 40.3056 92.5 45C92.5 49.6944 88.6944 53.5 84 53.5C79.3056 53.5 75.5 49.6944 75.5 45C75.5 40.3056 79.3056 36.5 84 36.5Z" fill="url(#paint0_linear_5_159)" stroke="black"/>
<defs>
<linearGradient id="paint0_linear_5_159" x1="-2.26107e-06" y1="18.383" x2="42.1562" y2="115.728" gradientUnits="userSpaceOnUse">
<stop stop-color="#FF884B"/>
<stop offset="1" stop-color="#EF38BE"/>
</linearGradient>
</defs>
</svg>
