<svg width="120" height="134" viewBox="0 0 120 134" fill="none" xmlns="http://www.w3.org/2000/svg">
<path fill-rule="evenodd" clip-rule="evenodd" d="M0 18.4801C0 4.23877 15.438 -4.6344 27.731 2.54138L110.852 51.0613C123.05 58.1817 123.049 75.8184 110.852 82.9387L27.731 131.459C15.438 138.634 0 129.761 0 115.52V18.4801Z" fill="url(#paint0_linear_5_171)"/>
<path d="M20.3684 79.42C18.8884 79.42 17.4384 79.14 16.0184 78.58C14.5984 78.02 13.3484 77.22 12.2684 76.18L14.8184 73.12C15.5984 73.86 16.4884 74.46 17.4884 74.92C18.5084 75.36 19.4984 75.58 20.4584 75.58C21.6184 75.58 22.4984 75.35 23.0984 74.89C23.6984 74.43 23.9984 73.81 23.9984 73.03C23.9984 72.47 23.8484 72.03 23.5484 71.71C23.2684 71.37 22.8784 71.07 22.3784 70.81C21.8784 70.55 21.2984 70.29 20.6384 70.03L17.6984 68.74C16.9584 68.44 16.2384 68.04 15.5384 67.54C14.8584 67.02 14.2884 66.37 13.8284 65.59C13.3884 64.81 13.1684 63.88 13.1684 62.8C13.1684 61.58 13.4984 60.49 14.1584 59.53C14.8184 58.57 15.7284 57.81 16.8884 57.25C18.0484 56.67 19.3684 56.38 20.8484 56.38C22.1684 56.38 23.4384 56.63 24.6584 57.13C25.8784 57.63 26.9384 58.34 27.8384 59.26L25.5884 62.02C24.8884 61.44 24.1584 60.99 23.3984 60.67C22.6384 60.35 21.7884 60.19 20.8484 60.19C19.8884 60.19 19.1184 60.4 18.5384 60.82C17.9784 61.22 17.6984 61.79 17.6984 62.53C17.6984 63.05 17.8584 63.48 18.1784 63.82C18.4984 64.16 18.9184 64.46 19.4384 64.72C19.9584 64.96 20.5284 65.21 21.1484 65.47L24.0584 66.64C24.9584 67 25.7384 67.45 26.3984 67.99C27.0784 68.53 27.5984 69.18 27.9584 69.94C28.3384 70.7 28.5284 71.62 28.5284 72.7C28.5284 73.9 28.1984 75.01 27.5384 76.03C26.8984 77.05 25.9684 77.87 24.7484 78.49C23.5484 79.11 22.0884 79.42 20.3684 79.42ZM34.8195 79V60.49H28.5795V56.77H45.5295V60.49H39.2595V79H34.8195ZM43.5861 79L50.6961 56.77H55.9461L63.0561 79H58.3761L55.2261 67.42C54.8861 66.26 54.5561 65.06 54.2361 63.82C53.9361 62.56 53.6161 61.34 53.2761 60.16H53.1561C52.8761 61.36 52.5661 62.58 52.2261 63.82C51.9061 65.06 51.5861 66.26 51.2661 67.42L48.0861 79H43.5861ZM47.9961 73.3V69.85H58.5561V73.3H47.9961ZM64.4548 79V56.77H72.1648C73.7448 56.77 75.1648 56.98 76.4248 57.4C77.6848 57.8 78.6848 58.5 79.4248 59.5C80.1648 60.48 80.5348 61.82 80.5348 63.52C80.5348 65.16 80.1648 66.51 79.4248 67.57C78.6848 68.61 77.6848 69.38 76.4248 69.88C75.1648 70.36 73.7448 70.6 72.1648 70.6H68.8948V79H64.4548ZM68.8948 67.09H71.7748C73.2148 67.09 74.3048 66.79 75.0448 66.19C75.8048 65.59 76.1848 64.7 76.1848 63.52C76.1848 62.32 75.8048 61.49 75.0448 61.03C74.3048 60.55 73.2148 60.31 71.7748 60.31H68.8948V67.09ZM76.5148 79L71.3548 69.46L74.4748 66.7L81.4948 79H76.5148ZM87.3816 79V60.49H81.1416V56.77H98.0916V60.49H91.8216V79H87.3816Z" fill="white"/>
<defs>
<linearGradient id="paint0_linear_5_171" x1="-2.26107e-06" y1="22.8085" x2="59.8022" y2="134.106" gradientUnits="userSpaceOnUse">
<stop stop-color="#FF884B"/>
<stop offset="1" stop-color="#EF38BE"/>
</linearGradient>
</defs>
</svg>
