<svg width="120" height="88" viewBox="0 0 120 88" fill="none" xmlns="http://www.w3.org/2000/svg">
<path fill-rule="evenodd" clip-rule="evenodd" d="M84.3564 5.90604C84.3564 2.64422 87.0161 0 90.297 0C94.0796 0 97.7967 0.75564 101.414 2.19423C105.351 3.75984 108.381 6.08325 111.131 8.81709C113.881 11.5509 116.218 14.5637 117.793 18.4777C119.24 22.0742 120 25.7696 120 29.5302C120 33.2908 119.24 36.9862 117.793 40.5827C116.238 44.4476 113.94 47.4338 111.235 50.1403L105.386 56.5366C105.322 56.6059 105.257 56.6737 105.191 56.74L86.1808 75.6393C83.431 78.3731 80.4006 80.6965 76.4637 82.2621C72.8462 83.7007 69.1291 84.4564 65.3465 84.4564C61.5639 84.4564 57.8469 83.7007 54.2294 82.2621C50.2924 80.6965 47.2621 78.3731 44.5122 75.6393C41.7624 72.9054 39.4254 69.8927 37.8506 65.9787C36.3758 62.313 35.6436 58.6142 35.6436 54.3356C35.6436 50.575 36.4036 46.8795 37.8506 43.2831C39.4254 39.369 41.7624 36.3563 44.5122 33.6225L51.0469 27.1258C53.3668 24.8194 57.1282 24.8194 59.4482 27.1258C61.7681 29.4323 61.7681 33.1718 59.4482 35.4782L52.9135 41.9749C50.9109 43.9659 49.6835 45.6779 48.882 47.67C47.9528 49.9795 47.5247 52.1901 47.5247 54.3356C47.5247 57.1442 47.9807 59.3514 48.882 61.5918C49.6835 63.5838 50.9109 65.2959 52.9135 67.2869C54.9161 69.2779 56.6382 70.4981 58.6419 71.2949C60.965 72.2187 63.1885 72.6443 65.3465 72.6443C67.5045 72.6443 69.7281 72.2187 72.0511 71.2949C74.0548 70.4981 75.7769 69.2779 77.7796 67.2869L96.6895 48.4869L102.535 42.0943C102.598 42.025 102.663 41.9572 102.73 41.8909C104.733 39.8999 105.96 38.1878 106.762 36.1958C107.691 33.8862 108.119 31.6756 108.119 29.5302C108.119 27.3848 107.691 25.1742 106.762 22.8646C105.96 20.8726 104.733 19.1605 102.73 17.1695C100.727 15.1785 99.0053 13.9583 97.0016 13.1615C94.6786 12.2376 92.455 11.8121 90.297 11.8121C87.0161 11.8121 84.3564 9.16786 84.3564 5.90604ZM55.2475 14.7651C53.0895 14.7651 50.866 15.1907 48.5429 16.1145C46.5392 16.9113 44.8171 18.1315 42.8145 20.1225L23.3105 39.5131L17.465 45.9057C17.4016 45.975 17.3366 46.0428 17.2699 46.1091C15.2673 48.1001 14.0399 49.8122 13.2385 51.8042C12.3092 54.1138 11.8812 56.3244 11.8812 58.4698C11.8812 60.6152 12.3092 62.8258 13.2385 65.1354C14.0399 67.1274 15.2673 68.8395 17.2699 70.8305C19.2726 72.8215 20.9947 74.0417 22.9984 74.8385C25.3214 75.7624 27.545 76.1879 29.703 76.1879C32.9839 76.1879 35.6436 78.8321 35.6436 82.094C35.6436 85.3558 32.9839 88 29.703 88C25.9204 88 22.2033 87.2444 18.5858 85.8058C14.6489 84.2402 11.6185 81.9167 8.86867 79.1829C6.11884 76.4491 3.78183 73.4363 2.20707 69.5223C0.760062 65.9258 0 62.2304 0 58.4698C0 54.7092 0.760062 51.0138 2.20707 47.4173C3.76209 43.5524 6.06035 40.5662 8.76542 37.8597L14.6142 31.4634C14.6776 31.3941 14.7426 31.3263 14.8093 31.26L34.4132 11.7701C37.1631 9.03627 40.1934 6.71286 44.1304 5.14725C47.7479 3.70866 51.4649 2.95302 55.2475 2.95302C59.0301 2.95302 62.7472 3.70866 66.3647 5.14725C70.3016 6.71286 73.332 9.03627 76.0818 11.7701C78.8316 14.5039 81.1687 17.5167 82.7434 21.4307C84.1904 25.0272 84.9505 28.7226 84.9505 32.4832C84.9505 36.2438 84.1904 39.9393 82.7434 43.5357C81.1867 47.4049 78.8851 50.3934 76.1762 53.1023L69.7257 60.0982C67.5087 62.5027 63.7509 62.6651 61.3323 60.461C58.9138 58.257 58.7504 54.521 60.9674 52.1165L67.5021 45.0293C67.5602 44.9662 67.6197 44.9044 67.6805 44.8439C69.6832 42.8529 70.9105 41.1409 71.712 39.1488C72.6412 36.8393 73.0693 34.6287 73.0693 32.4832C73.0693 30.3378 72.6412 28.1272 71.712 25.8176C70.9105 23.8256 69.6832 22.1135 67.6805 20.1225C65.6779 18.1315 63.9558 16.9113 61.9521 16.1145C59.6291 15.1907 57.4055 14.7651 55.2475 14.7651Z" fill="url(#paint0_linear_5_163)"/>
<defs>
<linearGradient id="paint0_linear_5_163" x1="-2.26107e-06" y1="14.9787" x2="29.5572" y2="98.7423" gradientUnits="userSpaceOnUse">
<stop stop-color="#FF884B"/>
<stop offset="1" stop-color="#EF38BE"/>
</linearGradient>
</defs>
</svg>
