<svg width="427" height="365" viewBox="0 0 427 365" fill="none" xmlns="http://www.w3.org/2000/svg">
<g style="mix-blend-mode:overlay">
<path d="M146.092 365H94.0918C44.5918 365 0.0917969 341.5 0.0917969 275.5V90C0.0917969 23.5 66.5918 0 111.092 0H134.092C188.092 0 245.092 24 245.092 90.5V271C245.092 325.5 208.092 365 146.092 365ZM106.592 298H127.592C149.592 298 156.092 276 156.092 254V90C156.092 67.5 149.092 45 128.092 45H106.092C84.0918 45 66.5918 67.5 66.5918 90V254C66.5918 276 62.0918 298 106.592 298Z" fill="white" fill-opacity="0.3"/>
<path d="M426.768 0V365H336.768V68H290.268V0H426.768Z" fill="white" fill-opacity="0.3"/>
</g>
</svg>
