<svg width="540" height="372" viewBox="0 0 540 372" fill="none" xmlns="http://www.w3.org/2000/svg">
<g style="mix-blend-mode:overlay">
<path d="M146.008 365H94.0078C44.5078 365 0.0078125 341.5 0.0078125 275.5V90C0.0078125 23.5 66.5078 0 111.008 0H134.008C188.008 0 245.008 24 245.008 90.5V271C245.008 325.5 208.008 365 146.008 365ZM106.508 298H127.508C149.508 298 156.008 276 156.008 254V90C156.008 67.5 149.008 45 128.008 45H106.008C84.0078 45 66.5078 67.5 66.5078 90V254C66.5078 276 62.0078 298 106.508 298Z" fill="white" fill-opacity="0.3"/>
<path d="M513.184 0.499994L427.184 115C493.184 125.5 539.684 167 539.684 241C539.684 317.5 486.684 373 391.684 371.5C361.684 371.5 311.184 350.5 286.184 325.5V245.5C298.184 274 361.684 303.5 391.684 303.5C433.684 303.5 460.184 283 460.184 239C460.184 170.5 380.184 154.5 329.684 141H329.184L400.184 45H299.684V0.499994H513.184Z" fill="white" fill-opacity="0.3"/>
</g>
</svg>
