<svg width="544" height="370" viewBox="0 0 544 370" fill="none" xmlns="http://www.w3.org/2000/svg">
<g style="mix-blend-mode:overlay">
<path d="M146.357 369.5H94.3574C44.8574 369.5 0.357422 346 0.357422 280V94.5C0.357422 28 66.8574 4.5 111.357 4.5H134.357C188.357 4.5 245.357 28.5 245.357 95V275.5C245.357 330 208.357 369.5 146.357 369.5ZM106.857 302.5H127.857C149.857 302.5 156.357 280.5 156.357 258.5V94.5C156.357 72 149.357 49.5 128.357 49.5H106.357C84.3574 49.5 66.8574 72 66.8574 94.5V258.5C66.8574 280.5 62.3574 302.5 106.857 302.5Z" fill="white" fill-opacity="0.3"/>
<path d="M285.033 369.5L440.533 187C458.033 165.5 469.033 134.5 469.033 119L468.533 102.5C468.533 81 440.533 59.5 419.533 59.5H406.033C384.533 59.5 361.033 81 361.033 102.5V112H302.533V98.5C302.533 42.5 350.033 0 414.033 0C502.533 0 543.033 52.5 543.033 109C543.033 147.5 535.033 171.5 509.033 201.5C493.533 219 465.533 248 415.033 298.5H537.033V369.5H285.033Z" fill="white" fill-opacity="0.3"/>
</g>
</svg>
