<?xml version="1.0" encoding="UTF-8"?><svg id="a" xmlns="http://www.w3.org/2000/svg" width="267" height="80" viewBox="0 0 267 80"><path d="m101.637,40c0,1.891-1.533,3.425-3.425,3.425s-3.425-1.534-3.425-3.425,1.533-3.425,3.425-3.425,3.425,1.533,3.425,3.425Z"/><path d="m98.212,32.217c-10.541,0-19.086,3.485-19.086,7.783s8.545,7.782,19.086,7.782,19.086-3.484,19.086-7.782-8.545-7.783-19.086-7.783Zm12.896,11.815c-3.419,1.394-7.999,2.162-12.896,2.162s-9.477-.768-12.896-2.162c-2.882-1.175-4.601-2.683-4.601-4.033s1.72-2.857,4.601-4.032c3.419-1.394,7.999-2.162,12.896-2.162s9.477.768,12.896,2.162c2.881,1.175,4.601,2.682,4.601,4.032s-1.72,2.858-4.601,4.033Z"/><path d="m91.472,36.109c-5.27,9.129-6.525,18.271-2.803,20.42,3.722,2.149,11.012-3.509,16.283-12.637,5.27-9.129,6.525-18.271,2.803-20.42-3.722-2.149-11.013,3.509-16.283,12.637Zm16.68-5.261c-.502,3.658-2.127,8.008-4.576,12.249-2.449,4.241-5.404,7.824-8.321,10.088-2.458,1.908-4.624,2.643-5.793,1.968-1.17-.675-1.615-2.918-1.192-6.001.502-3.658,2.128-8.008,4.576-12.249,2.449-4.241,5.403-7.823,8.32-10.087,2.458-1.908,4.624-2.644,5.793-1.969,1.169.675,1.615,2.918,1.191,6.001Z"/><path d="m88.669,23.471c-3.722,2.149-2.468,11.291,2.803,20.42,5.27,9.129,12.561,14.787,16.283,12.637,3.722-2.149,2.467-11.291-2.803-20.42-5.27-9.129-12.561-14.786-16.283-12.637Zm.794,1.375c1.169-.675,3.335.061,5.793,1.969,2.917,2.264,5.872,5.846,8.32,10.087,2.449,4.241,4.074,8.592,4.576,12.249.423,3.083-.022,5.326-1.191,6.001-1.169.675-3.335-.061-5.793-1.968-2.917-2.264-5.871-5.847-8.32-10.088-2.449-4.241-4.074-8.591-4.576-12.249-.423-3.083.022-5.326,1.191-6.001Z"/><path d="m124.288,34.345c.759-.155,1.845-.242,2.88-.242,1.604,0,2.638.293,3.362.949.586.517.914,1.31.914,2.207,0,1.534-.966,2.552-2.19,2.966v.052c.897.31,1.431,1.138,1.707,2.345.379,1.621.655,2.741.897,3.19h-1.552c-.19-.328-.448-1.328-.776-2.776-.345-1.603-.966-2.207-2.328-2.259h-1.414v5.035h-1.501v-11.466Zm1.501,5.293h1.534c1.603,0,2.62-.88,2.62-2.207,0-1.5-1.086-2.155-2.672-2.173-.724,0-1.241.069-1.482.138v4.241Z"/><path d="m139.582,40.362h-4.518v4.19h5.035v1.259h-6.535v-11.621h6.276v1.259h-4.776v3.672h4.518v1.241Z"/><path d="m143.926,42.155l-1.207,3.655h-1.551l3.948-11.621h1.81l3.966,11.621h-1.603l-1.241-3.655h-4.121Zm3.81-1.172l-1.138-3.345c-.258-.759-.431-1.448-.603-2.121h-.035c-.172.69-.362,1.397-.586,2.103l-1.138,3.362h3.5Z"/><path d="m160.461,45.431c-.552.276-1.655.552-3.069.552-3.276,0-5.742-2.069-5.742-5.88,0-3.638,2.466-6.103,6.069-6.103,1.448,0,2.362.31,2.759.517l-.362,1.224c-.569-.276-1.38-.483-2.345-.483-2.724,0-4.534,1.741-4.534,4.794,0,2.845,1.638,4.672,4.466,4.672.914,0,1.845-.19,2.448-.483l.31,1.189Z"/><path d="m165.029,35.465h-3.535v-1.276h8.604v1.276h-3.552v10.345h-1.517v-10.345Z"/><path d="m177.426,34.189h1.5v7.776c0,3.086-1.517,4.034-3.517,4.034-.552,0-1.224-.121-1.603-.276l.224-1.224c.311.121.759.224,1.258.224,1.345,0,2.138-.603,2.138-2.879v-7.655Z"/><path d="m181.218,43.983c.672.414,1.655.759,2.689.759,1.535,0,2.431-.81,2.431-1.983,0-1.086-.621-1.707-2.19-2.31-1.896-.672-3.069-1.655-3.069-3.293,0-1.811,1.5-3.155,3.759-3.155,1.19,0,2.052.276,2.569.568l-.414,1.225c-.379-.207-1.155-.552-2.207-.552-1.586,0-2.189.948-2.189,1.741,0,1.086.707,1.621,2.31,2.241,1.966.758,2.965,1.707,2.965,3.414,0,1.793-1.328,3.345-4.069,3.345-1.121,0-2.345-.328-2.965-.741l.379-1.259Z"/></svg>