<svg transform="scale(1)" xmlns="http://www.w3.org/2000/svg" viewBox="0 0 100 100" class="show_show__wrapper__graphic__5Waiy "><title>React</title><defs><style>.cls-1{fill:#b5feda;}.cls-2{fill:none;}.cls-3{fill:#046a38;}</style></defs><g id="_0434_Gps" data-name="0434_Gps"><g id="Layer_9" data-name="Layer 9"><path class="cls-1" d="M52.09,7.88S38.5,12.56,41.39,21.24c.54,1.61,1.16,3.21,1.81,4.74a12.13,12.13,0,0,0,15.93,6.37,11.23,11.23,0,0,0,1.47-.74l4.63-2.79L52.31,48.65a4.15,4.15,0,0,1-4.68-1.34c-2-2.45-14.48-20.72-14.26-21.39S34,6.09,52.09,7.88Z"></path><path class="cls-1" d="M32.22,46.44a70.35,70.35,0,0,0-3.38,7.71,4.19,4.19,0,0,0-.34,2.59c.67,2.14,5.32.74,7.49,1.31,2.87.74,3.14,4.77,3.56,7.71s-.29,5.9-1,8.77l-2.29,9.18a2.16,2.16,0,0,1-.44,1,1.53,1.53,0,0,1-2,0,4.45,4.45,0,0,1-1.12-1.93l-3.08-8.25a28.33,28.33,0,0,1-1.76-6c-.27-1.91-.15-3.87-.41-5.78a7.29,7.29,0,0,0-2.56-5c-1.58-1.14-4.09-1.07-5.17.54,1.1-1.64.84-6.6,1.69-8.76a25.27,25.27,0,0,1,4.72-7.58C31.77,35.56,36,39.05,32.22,46.44Z"></path><path class="cls-1" d="M56.2,44.56a12.53,12.53,0,0,1,5.21,0,1.78,1.78,0,0,1,1.33.81,1.8,1.8,0,0,1,0,1.08,21.37,21.37,0,0,1-1.44,5.88,7.37,7.37,0,0,1-4.23,4.11c-1.38.43-2.9.31-4.22.91A5.65,5.65,0,0,0,50,61.88a16.89,16.89,0,0,0,.5,5.56Q51.83,74.22,53.23,81a1.52,1.52,0,0,0,1.58,1.53,18.82,18.82,0,0,0,5.85-.05.54.54,0,0,1-.19.74.45.45,0,0,1-.18.07,40.36,40.36,0,0,0,6.83-8l4.38-6.07a3.45,3.45,0,0,0,.93-2.53,5.22,5.22,0,0,0-1.19-1.88c-1.67-2.31-1-5.67-2.57-8.07a4.58,4.58,0,0,1-1-2c0-1,.9-1.82,1.86-2.18a19,19,0,0,0,2.9-1l.31,4.6c.08,1.12.36,2.51,1.45,2.8.9.23,1.91-.46,2.73,0a7.85,7.85,0,0,0,1.89,4.39,1.35,1.35,0,0,0,1.12.6c.47-.08.74-.58.88-1a9.68,9.68,0,0,0,0-4.48,39.35,39.35,0,0,0-9.87-19.63C69.19,37,65.48,33.58,63.11,36c-1.19,1.17-2,3-3.11,4.38C59.28,41.22,57.32,44.33,56.2,44.56Z"></path></g><g id="Layer_3" data-name="Layer 3"><path class="cls-2" d="M31.14,84.94a.32.32,0,0,0,0-.09l0-.13,0-.09a1.3,1.3,0,0,1,0-.13.31.31,0,0,1,0-.08s0-.09,0-.13l0-.09a.79.79,0,0,0,0-.13.26.26,0,0,1,0-.07,1.31,1.31,0,0,0,0-.15v-.06c0-.05,0-.11,0-.17v0l0-.2,0-.16a20,20,0,0,0-2.88-6.86c-.6-1-1.19-2.08-1.74-3.2-1.53-3.2-1.18-5.06-.7-7.64.07-.37.14-.76.21-1.19.2-1.16-.47-2.35-1.25-3.71a21.36,21.36,0,0,1-1.15-2.23,4.07,4.07,0,0,0-1.36.93,4.81,4.81,0,0,0-.36.4l-.13.15,0,0-.11.13-.05.05-.1.11-.06,0-.09.1-.07.06-.1.1-.07.06-.11.09-.07.06-.12.08-.08.06-.06,0c0,.4,0,.8,0,1.17a29.67,29.67,0,0,0,10.9,23v0Z"></path><path class="cls-2" d="M58.4,42.48h.7a6.71,6.71,0,0,1,2.51,1c.25.14.48.27.7.37a1.47,1.47,0,0,0,1.24.16,1.36,1.36,0,0,1,1.93-.05l.11.12a.79.79,0,0,1,.12.15l0,0a2.07,2.07,0,0,1,.38,1.27v.13a2.72,2.72,0,0,1-.49,1.32l-.1.16a9.61,9.61,0,0,1-1.64,1.61l-.39.34a2.27,2.27,0,0,1,0,1.92,6.55,6.55,0,0,1-1.36,1.65,8.14,8.14,0,0,0-.64.67,1.17,1.17,0,0,0-.29.81l.08.1a2.42,2.42,0,0,1,.59,1,1.92,1.92,0,0,1-.32,1.61,2.39,2.39,0,0,1-1.69,1,23.57,23.57,0,0,1-3,0l-.56,0H54.63l-.13,0h-.3a1.2,1.2,0,0,0-.2,0h-.06l-.14,0-.07,0-.12,0-.07,0-.12,0-.07,0-.11,0-.06,0-.12,0-.05,0-.14.06h0l-.16.09h0l-.13.09,0,0-.1.07,0,0-.09.08,0,0-.09.08,0,.05A.39.39,0,0,0,52,59l0,0-.1.12,0,0-.12.17h0a1.63,1.63,0,0,1-.11.17l0,.06-.07.14a.25.25,0,0,0,0,.07l-.07.14,0,.08-.06.14a.39.39,0,0,1,0,.09l0,.15a.36.36,0,0,0,0,.09l-.06.18,0,.08A2.76,2.76,0,0,0,51,61c-.84,2.79.13,5.91,1.11,8.62l.24.66c1.08,3,2.21,6,1.86,9.35l0,.2a2.46,2.46,0,0,0,0,.93,2.13,2.13,0,0,0,.81.37l4.78,1.56.68.22A111.21,111.21,0,0,0,70,70c.41-.64.81-1.29,1.21-2a2.33,2.33,0,0,0,.34-.72c0-.18-.64-.55-1-.77a5.66,5.66,0,0,1-2.14-1.79,5,5,0,0,1-.35-3.62,8.17,8.17,0,0,0,.14-1.2c0-1.63-1.57-3.11-3-4.37a1.34,1.34,0,0,1-.47-1v-.14a1.31,1.31,0,0,1,.36-.86,8.33,8.33,0,0,1,1.52-1.32,9.1,9.1,0,0,1,5.24-1.5,4.19,4.19,0,0,1,.5,0,1.37,1.37,0,0,1,1.25,1.47,1.7,1.7,0,0,1-.06.31c-.53,1.63-.94,3.32-.33,4.63a2.11,2.11,0,0,0,1.58,1.1h.08a.87.87,0,0,0,.66-.18.46.46,0,0,0,.07-.07A1.36,1.36,0,0,1,78,59.21a3.93,3.93,0,0,0,1.1,3.49l.29.26.09.08.21.16.06,0c0-.38,0-.77,0-1.15A29.78,29.78,0,0,0,63.94,35.83l-.3.34Z"></path><path class="cls-2" d="M68.65,55.17a9.53,9.53,0,0,1,.83,1l.06.09a4,4,0,0,1,.24.33h0a6.57,6.57,0,0,1,.72,1.33,6.44,6.44,0,0,1-.36-2.13,10.58,10.58,0,0,1,.2-1.86l.06-.26a6.15,6.15,0,0,0-2.3,1C68.28,54.79,68.47,55,68.65,55.17Z"></path><path class="cls-2" d="M53.21,24.91a4.14,4.14,0,0,0-2.92-7.06h0a4.14,4.14,0,1,0,0,8.27h0A4.09,4.09,0,0,0,53.21,24.91Z"></path><path class="cls-2" d="M34.06,37.4l.06.07a2,2,0,0,1,.19.22l0,0c.07.1.14.19.19.28l.05.07.15.24,0,.06a3.07,3.07,0,0,1,.17.31s0,0,0,.05l.13.27,0,.07c0,.11.1.22.14.33h0a3,3,0,0,1,.11.32l0,.08.09.31v0a3.38,3.38,0,0,1,.08.34l0,.08a2.5,2.5,0,0,1,0,.29v.06c0,.11,0,.23.05.34v.07a2.64,2.64,0,0,0,0,.29v.08c0,.11,0,.22,0,.33v.43c0,.11,0,.23,0,.33h0a11.7,11.7,0,0,1-1.66,4.53c-.48.82-1,1.6-1.51,2.34-1.33,2-2.45,3.73-2.6,5.64a1.63,1.63,0,0,0,.11,1l.06.08c.3.32,1,.32,2,.24l.59-.06c.49,0,1-.11,1.48-.12a7.6,7.6,0,0,1,7.16,5.13c1,3,.11,6-.78,8.85a27.29,27.29,0,0,0-1,3.92h0a22.75,22.75,0,0,0-.2,2.85v.43c-.07,2.49-.14,5.08-1.58,7.35a4.9,4.9,0,0,1-3.09,2.18l-.29,0h-.28A29.72,29.72,0,0,0,79.44,66.25l-.09,0L78.9,66l-.13-.08c-.17-.11-.35-.21-.52-.33l-.08-.06-.42-.32-.12-.1-.47-.41a6.58,6.58,0,0,1-1.9-3.62,4.81,4.81,0,0,1-.85,0,4.9,4.9,0,0,1-3.72-2.67l-.1-.25a5.49,5.49,0,0,1,.3,1.38,4.18,4.18,0,0,1,0,.5,9.16,9.16,0,0,1-.18,1.65c0,.18-.06.36-.08.53a3.21,3.21,0,0,0-.05.69.9.9,0,0,0,.12.51,3,3,0,0,0,1,.76l.18.11c1,.56,2.3,1.32,2.39,3a4,4,0,0,1-.73,2.29A113.31,113.31,0,0,1,61.84,85.43l-.13.13,0,0-.11.08,0,0-.15.08h0l-.14,0h-.05l-.13,0H60.6l-.2,0-1.53-.5-4.78-1.56a3.91,3.91,0,0,1-2.27-1.51,4,4,0,0,1-.4-2.7l0-.18c.29-2.67-.73-5.45-1.71-8.13l-.24-.67c-1.21-3.34-2.19-6.91-1.16-10.33,1.58-5.3,5.46-5.2,8.56-5.11.6,0,1.19,0,1.78,0a3.63,3.63,0,0,1,.67-3.55,9,9,0,0,1,.9-1c.2-.19.37-.36.52-.53L60.9,50l0-.06a2.11,2.11,0,0,1,0-2,5.89,5.89,0,0,1,1.25-1.26,4.76,4.76,0,0,1-1-.35l-.85-.45a4.08,4.08,0,0,0-1.46-.62,4.58,4.58,0,0,0-2.41.94,13.64,13.64,0,0,1-1.86,1l-1.48,1.78a3.62,3.62,0,0,1-5.1.48,3.11,3.11,0,0,1-.48-.48L37,36.17c-.17-.18-.33-.37-.49-.55-.9.46-1.78,1-2.64,1.52h0Z"></path><path class="cls-2" d="M21.1,56.5l.07,0,.29-.17.06,0,.34-.18.08,0,.32-.14,0,0,.36-.13.09,0,.35-.11h0l.38-.09.09,0,.4-.06h.2l.2,0h0l.2,0h0l.19.08h0l.16.11,0,0a.86.86,0,0,1,.14.13l0,0a.91.91,0,0,1,.11.16l0,0a.66.66,0,0,1,.09.19v0a1.72,1.72,0,0,1,.07.21,10.58,10.58,0,0,0,1.28,2.82c.91,1.59,1.94,3.4,1.57,5.53l-.22,1.23c-.46,2.44-.67,3.56.48,6,.5,1,1.08,2,1.64,3a22.21,22.21,0,0,1,3.21,7.82l0,.16c.08.55.18,1.23.42,1.41a.3.3,0,0,0,.26,0,2.22,2.22,0,0,0,1.26-1c1-1.63,1.09-3.73,1.16-6a27.38,27.38,0,0,1,.25-3.61,26.23,26.23,0,0,1,.94-3.79l.16-.52c.79-2.56,1.54-5,.79-7.18a4.83,4.83,0,0,0-4.5-3.27c-.39,0-.81.05-1.26.1-1.69.18-4,.43-5.23-1.53a4.17,4.17,0,0,1-.52-2.64c.23-2.77,1.87-5.18,3.07-6.95s2.51-3.64,2.74-5.65l0-.28v-.4l0-.18a.49.49,0,0,0,0-.12s0-.12,0-.18l0-.11c0-.06,0-.12,0-.18l0-.11a1.42,1.42,0,0,0-.07-.22.13.13,0,0,0,0-.06,2.15,2.15,0,0,0-.1-.27l0-.09-.08-.18-.05-.1-.08-.15-.06-.11-.09-.14a.44.44,0,0,1-.07-.09l-.1-.14-.07-.08a.92.92,0,0,0-.14-.14l0-.06a1.54,1.54,0,0,0-.19-.17l-.07,0-.13-.09A29.65,29.65,0,0,0,20.77,56.72h0Z"></path><path class="cls-3" d="M50,94.54a32.46,32.46,0,0,0,32.27-29h0a32.51,32.51,0,0,0-16.66-31.9A18.25,18.25,0,0,0,50.29,5.46h0A18.26,18.26,0,0,0,34.82,33.4a32.35,32.35,0,0,0-3.88,2.43,1.37,1.37,0,0,0-1.06.8A32.38,32.38,0,0,0,17.62,60h0c-.05.71-.07,1.43-.07,2.13A32.5,32.5,0,0,0,50,94.54ZM20.28,62.1c0-.39,0-.78,0-1.17l.06,0,.09-.05.11-.09.08-.06.1-.09.07-.06.11-.09.06-.06.1-.1.05-.06.11-.11,0,0,.12-.12,0,0,.14-.16a4.57,4.57,0,0,1,.35-.39,4.19,4.19,0,0,1,1.37-.94,20.34,20.34,0,0,0,1.14,2.23c.78,1.37,1.46,2.55,1.26,3.72l-.22,1.18c-.48,2.58-.83,4.45.71,7.64.54,1.12,1.15,2.18,1.73,3.2a19.73,19.73,0,0,1,2.88,6.87l0,.15a1.62,1.62,0,0,0,0,.2v0a1.22,1.22,0,0,0,0,.17v0s0,.1,0,.15a.2.2,0,0,0,0,.07,1.21,1.21,0,0,0,0,.14v.08l0,.13a.37.37,0,0,1,0,.09s0,.08,0,.13a.45.45,0,0,0,0,.08l0,.13a.47.47,0,0,1,0,.09l0,.12v0a29.66,29.66,0,0,1-10.88-23Zm59.45,0c0,.38,0,.77,0,1.15l0,0-.21-.16-.1-.08a2.33,2.33,0,0,1-.28-.26A3.88,3.88,0,0,1,78,59.22a1.38,1.38,0,0,0-1.07-1.61,1.4,1.4,0,0,0-1.33.48.23.23,0,0,1-.07.07.85.85,0,0,1-.65.18h-.09a2.11,2.11,0,0,1-1.58-1.1c-.6-1.31-.2-3,.33-4.63a1.36,1.36,0,0,0-.88-1.72l-.3-.06-.51,0a9.13,9.13,0,0,0-5.26,1.57A8.33,8.33,0,0,0,65,53.69a1.31,1.31,0,0,0-.36.86v.14a1.34,1.34,0,0,0,.47,1c1.47,1.26,3,2.74,3,4.37a8.17,8.17,0,0,1-.14,1.2,5,5,0,0,0,.35,3.62,5.68,5.68,0,0,0,2.14,1.79c.38.22,1,.6,1,.77a2.33,2.33,0,0,1-.34.72c-.39.65-.8,1.3-1.21,2A110.08,110.08,0,0,1,60.38,83l-.68-.22-4.78-1.56a2.13,2.13,0,0,1-.81-.37,2.46,2.46,0,0,1,0-.93l0-.2c.35-3.3-.78-6.38-1.86-9.35l-.24-.66c-1-2.71-1.95-5.83-1.11-8.62a2.13,2.13,0,0,1,.08-.27l0-.09.06-.17a.26.26,0,0,1,0-.09l.06-.15,0-.09.06-.14,0-.09.07-.13a.25.25,0,0,1,0-.07l.07-.14,0-.06.1-.17h0l.12-.17,0,0,.1-.12,0,0a.39.39,0,0,1,.08-.1l0,0,.09-.08,0,0,.09-.08,0,0,.1-.07,0,0,.14-.09h0l.16-.09h0l.14-.06.05,0,.12,0,.06,0,.11,0,.07,0,.12,0,.07,0,.12,0h.07l.14,0H54l.2,0h.3l.13,0h1.65l.56,0a23.57,23.57,0,0,0,3,0,2.39,2.39,0,0,0,1.69-1,1.93,1.93,0,0,0,.32-1.61,2.42,2.42,0,0,0-.59-1l-.08-.1a1.15,1.15,0,0,1,.29-.81,8.14,8.14,0,0,1,.64-.67A6.42,6.42,0,0,0,63.47,51a2.25,2.25,0,0,0,0-1.91l.39-.34a9.61,9.61,0,0,0,1.64-1.61.74.74,0,0,0,.1-.16,2.72,2.72,0,0,0,.49-1.32v-.13a2,2,0,0,0-.38-1.27l0,0-.11-.15a1.38,1.38,0,0,0-1.93-.18l-.12.11a1.47,1.47,0,0,1-1.24-.16c-.22-.1-.45-.23-.7-.37a6.48,6.48,0,0,0-2.51-.95,5.45,5.45,0,0,0-.7,0l5.23-6.31.3-.34A29.8,29.8,0,0,1,79.73,62.09Zm-9.39-8.2a9.71,9.71,0,0,0-.2,1.86,6.64,6.64,0,0,0,.35,2.12,7.73,7.73,0,0,0-.71-1.33h0l-.24-.32-.06-.09a11,11,0,0,0-.83-1c-.18-.2-.37-.39-.56-.57a6.41,6.41,0,0,1,2.3-1C70.38,53.72,70.35,53.81,70.34,53.9ZM39,34.4a.18.18,0,0,0-.05-.07A15.52,15.52,0,0,1,50.29,8.19h0A15.52,15.52,0,0,1,61.61,34.33l0,.07L51,47.15l-.12.12a.89.89,0,0,1-1.26-.12h0Zm-2.57,1.22c.16.18.32.37.49.55L47.49,48.89a3.62,3.62,0,0,0,5.09.49,3.24,3.24,0,0,0,.49-.49l1.48-1.78a12.08,12.08,0,0,0,1.85-1,4.64,4.64,0,0,1,2.42-.94,4.35,4.35,0,0,1,1.46.62l.85.45a4.89,4.89,0,0,0,1,.35,5.6,5.6,0,0,0-1.24,1.26,2.12,2.12,0,0,0,0,2l0,.06-.14.16c-.15.17-.33.34-.52.53a10.11,10.11,0,0,0-.9,1,3.61,3.61,0,0,0-.67,3.55c-.59,0-1.19,0-1.78,0-3.1-.09-7-.19-8.56,5.11-1,3.42,0,7,1.16,10.33l.24.67c1,2.68,2,5.46,1.71,8.13l0,.18a3.36,3.36,0,0,0,2.66,4.21l4.78,1.56,1.54.5.2,0H61l.13,0h.05l.14,0h0l.15-.08,0,0,.11-.08,0,0,.13-.13A112.64,112.64,0,0,0,73.55,69.51a4,4,0,0,0,.73-2.3c-.09-1.65-1.42-2.41-2.39-3l-.18-.1a3,3,0,0,1-1-.76,1,1,0,0,1-.12-.51,4,4,0,0,1,.05-.69q0-.26.09-.54A11.26,11.26,0,0,0,70.92,60a2.69,2.69,0,0,0,0-.49,5.57,5.57,0,0,0-.3-1.39c0,.09.07.17.11.26A4.88,4.88,0,0,0,74.41,61a4,4,0,0,0,.85,0,6.5,6.5,0,0,0,1.91,3.62c.15.14.3.28.46.41l.13.1a3.32,3.32,0,0,0,.42.32l.08.06a5.54,5.54,0,0,0,.51.33l.14.08.44.24.09,0A29.72,29.72,0,0,1,34.1,87.19h.28a2.54,2.54,0,0,0,.29,0A4.81,4.81,0,0,0,37.75,85c1.45-2.27,1.51-4.85,1.58-7.35l0-.42a22.49,22.49,0,0,1,.19-2.85h0a28.39,28.39,0,0,1,1-3.92c.89-2.86,1.8-5.82.77-8.86a7.6,7.6,0,0,0-7.15-5.13c-.49,0-1,.07-1.48.12l-.59.06c-1,.08-1.67.08-2-.24l-.06-.08a1.6,1.6,0,0,1-.12-1c.16-1.9,1.28-3.68,2.61-5.64.5-.74,1-1.52,1.51-2.34a11.78,11.78,0,0,0,1.66-4.52h0l0-.33v-.43c0-.12,0-.23,0-.34v-.08a2.83,2.83,0,0,0,0-.29v-.07c0-.11,0-.22-.05-.34v-.06c0-.1,0-.2,0-.29l0-.08c0-.11,0-.23-.08-.34v0l-.09-.31,0-.08c0-.11-.07-.22-.11-.32s0,0,0,0l-.14-.33,0-.07c0-.09-.09-.18-.13-.27a.09.09,0,0,0,0-.05c0-.1-.11-.2-.17-.3a.43.43,0,0,0,0-.07l-.15-.24,0-.07-.2-.27,0-.05-.19-.22-.06-.07a2.72,2.72,0,0,0-.24-.24h0c.85-.56,1.72-1.07,2.61-1.54ZM31.52,38.8l.13.09.06,0,.2.18.05,0,.14.14.06.09.11.13.06.1.09.14.06.1a1.09,1.09,0,0,1,.08.15l0,.1.08.18,0,.09.09.27a.07.07,0,0,0,0,.06l.06.23,0,.1,0,.18,0,.12,0,.17c0,.06,0,.08,0,.12v.59c0,.09,0,.18,0,.28-.23,2-1.5,3.85-2.72,5.64s-2.83,4.18-3.07,7a4.18,4.18,0,0,0,.52,2.64c1.23,2,3.54,1.71,5.23,1.53.45,0,.88-.1,1.26-.11a4.87,4.87,0,0,1,4.51,3.28c.74,2.19,0,4.61-.8,7.17,0,.18-.1.35-.16.53a27.25,27.25,0,0,0-.94,3.79,29.06,29.06,0,0,0-.25,3.61c-.06,2.23-.12,4.33-1.16,6a2.17,2.17,0,0,1-1.25,1,.3.3,0,0,1-.27,0c-.23-.18-.33-.87-.42-1.42l0-.16A22.24,22.24,0,0,0,30.26,75c-.57-1-1.15-2-1.64-3-1.15-2.39-.94-3.51-.49-6,.08-.39.15-.8.23-1.23.36-2.13-.67-3.94-1.57-5.53a10.58,10.58,0,0,1-1.28-2.82,1.72,1.72,0,0,0-.07-.21v0l-.09-.19s0,0,0,0l-.12-.15,0,0L25,55.71l0,0-.17-.11h0l-.18-.08h0l-.2-.06H24c-.13,0-.26,0-.39.06l-.09,0c-.13,0-.26.05-.38.09h0l-.36.1-.08,0-.37.14-.05,0L22,56l-.08,0-.34.18-.07,0-.28.17-.08,0-.31.22h0A29.72,29.72,0,0,1,31.53,38.8Z"></path><path class="cls-3" d="M50.29,28.85h0V27.48h0v1.37a6.87,6.87,0,0,0,0-13.73h0a6.87,6.87,0,0,0,0,13.73Zm0-2.73a4.14,4.14,0,1,1,0-8.27h0a4.14,4.14,0,0,1,0,8.27Z"></path><path class="cls-3" d="M28.59,29.63A1.36,1.36,0,0,0,30,28.26a1.32,1.32,0,0,0-.16-.64,13.51,13.51,0,0,1-1.13-2.82,9.83,9.83,0,0,1,.13-5.71,7.86,7.86,0,0,1,1.12-2.22,1.36,1.36,0,1,0-2.11-1.72h0c-.2.24-4.65,5.83-.42,13.76A1.39,1.39,0,0,0,28.59,29.63Z"></path><path class="cls-3" d="M22.89,33.73a1.32,1.32,0,0,0,.64-.16,1.37,1.37,0,0,0,.56-1.84h0Q23.46,30.55,23,29.3a18.5,18.5,0,0,1-1-11.53,16.07,16.07,0,0,1,1.34-3.62,11.64,11.64,0,0,1,1.11-1.82,1.36,1.36,0,1,0-2.11-1.72,17.61,17.61,0,0,0-3,6.36c-.91,3.6-1.24,9.3,2.36,16A1.35,1.35,0,0,0,22.89,33.73Z"></path><path class="cls-3" d="M71.82,19.08a9.75,9.75,0,0,1,.12,5.71,13,13,0,0,1-1.12,2.82,1.36,1.36,0,1,0,2.4,1.29h0C77.46,21,73,15.38,72.81,15.14a1.36,1.36,0,0,0-2.11,1.72A7.86,7.86,0,0,1,71.82,19.08Z"></path><path class="cls-3" d="M77.33,14.15a16.71,16.71,0,0,1,1.35,3.61,18.36,18.36,0,0,1-1,11.53,24.33,24.33,0,0,1-1.13,2.43,1.35,1.35,0,0,0,.56,1.84h0A1.37,1.37,0,0,0,78.93,33h0c3.6-6.75,3.27-12.44,2.35-16a17.29,17.29,0,0,0-3-6.36,1.36,1.36,0,0,0-1.92-.2,1.37,1.37,0,0,0-.2,1.92A11.7,11.7,0,0,1,77.33,14.15Z"></path></g></g></svg>