<svg transform="scale(1)" xmlns="http://www.w3.org/2000/svg" viewBox="0 0 100 100" class="show_show__wrapper__graphic__5Waiy "><title>React</title><defs><style>.cls-1{fill:none;}.cls-2{fill:#a3ffd2;}.cls-3{fill:#046a38;}</style></defs><g id="_0285_Idea_1" data-name="0285_Idea_1"><g id="Layer_1" data-name="Layer 1"><path class="cls-1" d="M51.33,85.76H47.91a2.8,2.8,0,0,0,1.93,1.29A3.17,3.17,0,0,0,51.33,85.76Z"></path><path class="cls-1" d="M54,81.46a6.18,6.18,0,0,0,.21-3.14,5.19,5.19,0,0,0-.86-2.43l0,0h-9.7v3.44a3.27,3.27,0,0,0,3.28,3.27h6.4A3.36,3.36,0,0,0,54,81.46Z"></path><path class="cls-1" d="M37.32,52.66s7,8.93,7.67,12.5a45.67,45.67,0,0,0,2.52,7.53h8.11a5.58,5.58,0,0,0,5.58-5.57v0a9.14,9.14,0,0,1,2.91-6.73A18.76,18.76,0,0,0,51.64,27.83h-.27q-1,0-1.89.09C45.48,29.69,31.8,37,37.32,52.66ZM52.75,39.34a1.48,1.48,0,0,1,2.35,1.8L51,46.44H54.1a1.48,1.48,0,0,1,1.48,1.48,1.55,1.55,0,0,1-.21.76l-5,8.39a1.48,1.48,0,0,1-2.54-1.52L51.5,49.4H48a1.48,1.48,0,0,1-1.48-1.48,1.47,1.47,0,0,1,.31-.9Z"></path><path class="cls-1" d="M43.1,29.74a32.34,32.34,0,0,1,3.67-1.36A18.61,18.61,0,0,0,43.1,29.74Z"></path><path class="cls-2" d="M37.32,52.66C31.8,37,45.48,29.69,49.47,27.93a17.69,17.69,0,0,0-2.7.45,34.32,34.32,0,0,0-3.67,1.35,18.76,18.76,0,0,0-4.57,30.52,9.37,9.37,0,0,1,3,6.82v0a5.6,5.6,0,0,0,5.58,5.58h.4A46.13,46.13,0,0,1,45,65.15C44.28,61.59,37.32,52.66,37.32,52.66Z"></path><path class="cls-2" d="M54.22,78.32A6.08,6.08,0,0,1,54,81.46a3.2,3.2,0,0,1-.71,1.1h2.54a3.28,3.28,0,0,0,3.28-3.27V75.85H53.32l0,0A5.27,5.27,0,0,1,54.22,78.32Z"></path><path class="cls-2" d="M49.84,87.05a3.42,3.42,0,0,0,.45,0h2.14a2.81,2.81,0,0,0,2.39-1.33H51.33A3.17,3.17,0,0,1,49.84,87.05Z"></path><path class="cls-3" d="M36.51,62.41a6.4,6.4,0,0,1,2.06,4.66v0a8.49,8.49,0,0,0,2.61,6.13,1.47,1.47,0,0,0-.52,1.12v4.92a6.24,6.24,0,0,0,3.92,5.79,5.77,5.77,0,0,0,5.71,5h2.14a5.76,5.76,0,0,0,5.71-5,6.23,6.23,0,0,0,3.92-5.79V74.37a1.53,1.53,0,0,0-.51-1.13,8.51,8.51,0,0,0,2.6-6.13v0a6.21,6.21,0,0,1,2-4.57A21.72,21.72,0,1,0,29.65,46.24v.34A21.77,21.77,0,0,0,36.51,62.41Zm7.11,16.87V75.85H59.11v3.44a3.27,3.27,0,0,1-3.28,3.27H46.9a3.27,3.27,0,0,1-3.28-3.27Zm4.29,6.48h6.91a2.82,2.82,0,0,1-2.39,1.32H50.29a2.28,2.28,0,0,1-.45,0,2.79,2.79,0,0,1-1.93-1.28Zm3.45-57.94h.27A18.75,18.75,0,0,1,64.1,60.34a9.18,9.18,0,0,0-2.91,6.73v0a5.57,5.57,0,0,1-5.57,5.58H47.11a5.58,5.58,0,0,1-5.58-5.57v0a9.35,9.35,0,0,0-3-6.82A18.74,18.74,0,0,1,49.47,27.92c.63-.06,1.26-.1,1.89-.1Z"></path><path class="cls-3" d="M46.7,48.57A1.48,1.48,0,0,0,48,49.4H51.5l-3.67,6.15a1.48,1.48,0,0,0,2.53,1.52l5-8.4a1.48,1.48,0,0,0-.51-2,1.55,1.55,0,0,0-.76-.21H51l4.07-5.29a1.48,1.48,0,1,0-2.35-1.8h0L46.86,47A1.47,1.47,0,0,0,46.7,48.57Z"></path><path class="cls-3" d="M51.36,18.87a1.48,1.48,0,0,0,1.48-1.48v-6a1.48,1.48,0,0,0-3,0v6A1.48,1.48,0,0,0,51.36,18.87Z"></path><path class="cls-3" d="M25.41,21l4.8,3.52A1.48,1.48,0,0,0,32,22.11l-4.8-3.51a1.48,1.48,0,0,0-1.9,2.27Z"></path><path class="cls-3" d="M69,24.79a1.44,1.44,0,0,0,.87-.29L74.63,21A1.48,1.48,0,1,0,73,18.55l-.07.05-4.79,3.52a1.49,1.49,0,0,0-.31,2.07A1.51,1.51,0,0,0,69,24.79Z"></path></g></g></svg>