<svg transform="scale(1)" xmlns="http://www.w3.org/2000/svg" viewBox="0 0 100 100" class="show_show__wrapper__graphic__5Waiy "><title>React</title><defs><style>.cls-1{fill:#c3f7dd;}.cls-2{fill:#046a38;}.cls-3{fill:none;}</style></defs><g id="_0023_Key_Person" data-name="0023_Key Person"><path class="cls-1" d="M41.79,44.42a4.58,4.58,0,0,1,3-.53c3.13.86,2.87,6.58,6.08,7.07a3.59,3.59,0,0,0,3.31-1.83,31.45,31.45,0,0,0,1.68-3.63,1.78,1.78,0,0,1,.9-1,1.87,1.87,0,0,1,1.12.05c4.89,1.36,8,6.22,9.37,11.11a3.17,3.17,0,0,1,.12,1.58,3.13,3.13,0,0,1-1,1.35,24.55,24.55,0,0,1-17.62,7.11c-5.49-.23-12-3-14.92-8C30.94,52.61,37.16,46.58,41.79,44.42Z"></path><path class="cls-1" d="M53.11,45.07a3.68,3.68,0,0,0,2.24-4.87c-1.8.07-7.52-.82-7.86,1.61S51.35,45.55,53.11,45.07Z"></path><path class="cls-2" d="M65.64,56.09a1.07,1.07,0,0,1,0,.25h.06Zm.12-26.35.06-.1a4.76,4.76,0,0,0,0-4.27,4.44,4.44,0,0,0-1.6-1.73,17.45,17.45,0,0,0,1.39-1.58c1.38-1.7,1.11-3.8.9-5.49,0-.17,0-.34-.07-.51a9.48,9.48,0,0,0-.59-2.66,9.09,9.09,0,0,0-4-4,22.3,22.3,0,0,0-9.35-3.39,12.5,12.5,0,0,0-9.79,3.13l-.27.27a3.69,3.69,0,0,1-.7.61,2.55,2.55,0,0,1-.48.2c-.24.09-.49.19-.72.3a4.39,4.39,0,0,0-2,2.17l-.05.09c-.07.13-.14.26-.22.39l-.49.77a8.82,8.82,0,0,0-1.42,3,7.64,7.64,0,0,0,.77,5.34,8.23,8.23,0,0,0,1.09,1.47,4.37,4.37,0,0,0-2.17,2,4.6,4.6,0,0,0-.46,2.58,22,22,0,0,0,13,38.73V81H43.47a1.4,1.4,0,0,0,0,2.79H48.6v7.41H41A1.4,1.4,0,1,0,41,94h9a1.4,1.4,0,0,0,1.39-1.4V67.16A22,22,0,0,0,65.76,29.74ZM39.13,17.61a6.24,6.24,0,0,1,1-2.1c.17-.27.36-.55.54-.86s.2-.36.29-.52h0L41,14c.32-.6.44-.8.8-1l.44-.17a6.74,6.74,0,0,0,.87-.38,5.82,5.82,0,0,0,1.33-1.09c.08-.07.15-.15.23-.23A9.41,9.41,0,0,1,51.25,8.8c.35,0,.7,0,1,0a19.44,19.44,0,0,1,8.17,3,6.52,6.52,0,0,1,2.85,2.65,7.16,7.16,0,0,1,.4,1.89c0,.18,0,.36.07.54.17,1.33.33,2.6-.3,3.38A11.6,11.6,0,0,1,62,22,5.14,5.14,0,0,0,61,18a4.73,4.73,0,0,0-1.83-1.15,7.2,7.2,0,0,0-3.5-.72,7.35,7.35,0,0,0-1.45.37l-.36.12c-2.61.81-5.58.11-8.47-.56L45.11,16a2.86,2.86,0,0,0-2.26.37A5,5,0,0,0,41,19.9c0,.26-.25,1.29-.45,2.29a5.33,5.33,0,0,1-1-1.21A4.77,4.77,0,0,1,39.13,17.61ZM61.29,26a1.34,1.34,0,0,1,.8-.26,1.63,1.63,0,0,1,1.29.86,2,2,0,0,1,0,1.72,3.82,3.82,0,0,1-.49.7,5.1,5.1,0,0,1-1.37,1.25l-.13.07c0-.36,0-.72,0-1.1C61.41,28.19,61.36,27.1,61.29,26ZM48.33,39A6.44,6.44,0,0,1,43.93,35a11.18,11.18,0,0,1-.46-2.85c-.14-2.1-.22-4.42-.24-7.3,0-.39,0-.79,0-1.17,0-.16,0-.32,0-.48s.06-.27.08-.41c.23-1.11.45-2.25.49-2.45a5.12,5.12,0,0,1,.33-1.22,5.71,5.71,0,0,1,.39-.47l.28.07c3.09.72,6.59,1.54,9.92.51l.43-.14a4.4,4.4,0,0,1,.88-.24,4.56,4.56,0,0,1,2,.48,5.94,5.94,0,0,1,.28,2.2v.26c0,1.13.1,2.26.17,3.35.09,1.4.18,2.73.16,4.07A12,12,0,0,1,57,35.66,8,8,0,0,1,48.34,39Zm5.51,6.28A5.7,5.7,0,0,1,52.58,48a2.45,2.45,0,0,1-2.1.85A3,3,0,0,1,49,47.94a6.23,6.23,0,0,1-1.71-4.37v-.19a5.57,5.57,0,0,1,.32-1.72,10.72,10.72,0,0,0,2.7.37A11.21,11.21,0,0,0,54,41.38a11.33,11.33,0,0,1-.16,3.85ZM38.58,27.12a1.58,1.58,0,0,1,1.29-.86,1.29,1.29,0,0,1,.58.13c0,1.64.08,3.1.15,4.46l-.13-.06a5.27,5.27,0,0,1-1.37-1.25,4.27,4.27,0,0,1-.49-.71,1.91,1.91,0,0,1,0-1.71ZM32.2,52.55a19.23,19.23,0,0,1,4.6-21.42l.14.18a7.82,7.82,0,0,0,2.15,1.9,5.05,5.05,0,0,0,1.73.62A10.31,10.31,0,0,0,41.29,36a8.87,8.87,0,0,0,3.78,4.58,8,8,0,0,0-.5,2.09h-.06a12.61,12.61,0,0,0-12.3,9.93Zm33.36,3.94c-.18.25-.38.5-.57.74h0a19.25,19.25,0,0,1-30-.07l-.24-.3V55.21a9.83,9.83,0,0,1,9.81-9.8h.2A8.64,8.64,0,0,0,47.1,50,5.71,5.71,0,0,0,50,51.55a4.25,4.25,0,0,0,.8.07,5.37,5.37,0,0,0,3.86-1.76,8.32,8.32,0,0,0,1.93-4c0-.13.05-.25.07-.38a9.81,9.81,0,0,1,9,9.77v.88a.73.73,0,0,1,0,.25h.07ZM56.88,42.66a14.64,14.64,0,0,0-.24-2.46l0-.18a10.4,10.4,0,0,0,2.75-2.86,12,12,0,0,0,1.56-3.78,5,5,0,0,0,1.94-.65A6.39,6.39,0,0,0,64,31.92,19.22,19.22,0,0,1,68,52,12.61,12.61,0,0,0,56.88,42.66Zm8.77,13.43a.73.73,0,0,1,0,.25h.07a2.17,2.17,0,0,1,0-.25Z"></path><path class="cls-3" d="M65.64,56.08h0a1.07,1.07,0,0,1,0,.25s0,.1,0,.15l-.57.74h0a19.23,19.23,0,0,1-27,2.94,19,19,0,0,1-3-3c-.09-.1-.16-.2-.24-.3V55.21a9.82,9.82,0,0,1,9.8-9.8h.2A8.64,8.64,0,0,0,47.1,50,5.71,5.71,0,0,0,50,51.55a4.25,4.25,0,0,0,.8.07,5.37,5.37,0,0,0,3.86-1.76,8.32,8.32,0,0,0,1.93-4c0-.13.05-.25.07-.38a9.81,9.81,0,0,1,9,9.77v.83A0,0,0,0,1,65.64,56.08Z"></path><path class="cls-2" d="M50.1,25.42a1.38,1.38,0,0,0-1.54,1.23h0a20.7,20.7,0,0,0-.14,3.05A1.42,1.42,0,0,0,49.48,31a2.74,2.74,0,0,1,.32.12,3.74,3.74,0,0,0,1.43.37h.12a1.38,1.38,0,0,0,1.36-1.42,1.4,1.4,0,0,0-1.42-1.37l-.08,0A16.76,16.76,0,0,1,51.33,27a1.39,1.39,0,0,0-1.23-1.54Z"></path><path class="cls-3" d="M34.71,56.87l.23.29a.79.79,0,0,1-.39-.68.77.77,0,0,1,.15-.43v.82Z"></path><path class="cls-3" d="M65,57.23l.57-.74a1.6,1.6,0,0,1-.34.54Z"></path><path class="cls-3" d="M65.64,56.09h0v-.15A.43.43,0,0,1,65.64,56.09Z"></path></g></svg>