<svg transform="scale(1)" xmlns="http://www.w3.org/2000/svg" viewBox="0 0 100 100" class="show_show__wrapper__graphic__5Waiy "><title>React</title><defs><style>.cls-1{fill:#a4fad0;}.cls-2{fill:#046a38;}</style></defs><g id="_0066_Web_Design" data-name="0066_Web_Design"><polygon class="cls-1" points="67.23 63.97 64.67 63.97 63.59 54.11 57.85 54.26 57.7 63.97 52.74 63.97 52.12 54.11 43.43 53.64 43.28 63.97 39.35 63.97 38.87 54.42 29.91 54.21 29.91 63.97 25.68 63.97 25.68 49.19 67.23 49.19 67.23 63.97"></polygon><polygon class="cls-1" points="37.7 78.4 61.68 83.57 57.6 75.81 39.65 75.81 37.7 78.4"></polygon><path class="cls-1" d="M70.77,53.89a3.23,3.23,0,0,0-1.31,2.48,4.71,4.71,0,0,0,.81,2.74c.43.65,1,1.38.77,2.12a1.92,1.92,0,0,1-.55.74c-1.09,1-2.62,1.77-2.75,3.21-1.62-1.69-3.3-3.48-3.88-5.76-.39-1.57-.39-6,1-7.1C66.54,51,69.42,54.81,70.77,53.89Z"></path><path class="cls-1" d="M77.92,49.26a2.79,2.79,0,0,1,.6,1.14A1.79,1.79,0,0,1,77.71,52,11.28,11.28,0,0,0,76.23,53c-1.1,1.16-.84,3-.41,4.57.26.91.54,1.81.86,2.71a6.81,6.81,0,0,0,1.11,2.2,2.54,2.54,0,0,0,2.18,1,3.84,3.84,0,0,0,2.26-1.76c1.07-1.4,2.18-2.91,2.29-4.67.08-1.23-.35-2.51.07-3.68a12.46,12.46,0,0,0,1-2c.23-1.22-.76-2.31-1.72-3.11s-3.83-3.54-5.29-3.5C76.48,44.79,77.15,48.12,77.92,49.26Z"></path><path class="cls-2" d="M30.25,23H65.3a1.28,1.28,0,0,0,1.28-1.29V16.48a1.28,1.28,0,0,0-1.28-1.29h-35A1.28,1.28,0,0,0,29,16.48v5.27A1.28,1.28,0,0,0,30.25,23Zm1.29-5.28H64v2.71H31.54Z"></path><path class="cls-2" d="M41.62,28.11H32.11a1.29,1.29,0,0,0,0,2.57h9.51a1.29,1.29,0,1,0,0-2.57Z"></path><path class="cls-2" d="M41.62,34.11H32.11a1.29,1.29,0,0,0,0,2.57h9.51a1.29,1.29,0,1,0,0-2.57Z"></path><path class="cls-2" d="M64.4,27.08H50.76a1.29,1.29,0,0,0-1.29,1.29V42a1.29,1.29,0,0,0,1.29,1.29H64.4A1.28,1.28,0,0,0,65.68,42V28.37A1.28,1.28,0,0,0,64.4,27.08Zm-6.79,6.3L54,29.65h7.24ZM52,31.33l3.78,3.9L52,39.12Zm5.57,5.74,3.54,3.66H54.06Zm1.79-1.84,3.71-3.83v7.65Z"></path><path class="cls-2" d="M38.73,40.11H32.12a1.29,1.29,0,0,0,0,2.57h6.61a1.29,1.29,0,0,0,0-2.57Z"></path><path class="cls-2" d="M84.39,46.16V34A11.67,11.67,0,0,0,72.74,22.39H72.4V11.83a1.29,1.29,0,0,0-1.29-1.29H24.39a1.28,1.28,0,0,0-1.28,1.29V22.39h-.34A11.66,11.66,0,0,0,11.12,34V64.16A11.66,11.66,0,0,0,22.77,75.81H36.65l-7.09,11.7a1.29,1.29,0,0,0,1.1,1.95H65.81a1.28,1.28,0,0,0,1.28-1.29,1.31,1.31,0,0,0-.15-.61L60.53,75.81H72.74a11.69,11.69,0,0,0,11.39-9.18A13.65,13.65,0,0,0,85.6,47.4a14.16,14.16,0,0,0-1.21-1.24Zm-14.56-33v30.6a13.81,13.81,0,0,0-4.27,2.9H25.68V13.11ZM86.31,56.28a11.08,11.08,0,0,1-16.6,9.63,1.25,1.25,0,0,0-.1-.27,1.54,1.54,0,0,1,.31-1.34,9.45,9.45,0,0,1,.73-.94,10.84,10.84,0,0,0,1-1.27A2.45,2.45,0,0,0,72,60.76a2.62,2.62,0,0,0-1-1.94,2.71,2.71,0,0,1-.24-.23c-.39-.43-.35-.77.23-2S72.61,53,69.6,51.63L66.09,50a11.1,11.1,0,0,1,9.13-4.82h.14a7.48,7.48,0,0,0,2,6l.08.08.08.08a1.1,1.1,0,0,1-.28.2,5,5,0,0,1-.6.24,5.22,5.22,0,0,0-1.67.87A4.24,4.24,0,0,0,74,57a13.44,13.44,0,0,0,.67,1.73,11.44,11.44,0,0,1,.56,1.36c.09.32.15.67.22,1a9.77,9.77,0,0,0,.45,1.77A3.62,3.62,0,0,0,79,65.46h.07a3.75,3.75,0,0,0,3.08-1.94,11.44,11.44,0,0,0,.56-1,7.41,7.41,0,0,1,.64-1.09,8.27,8.27,0,0,1,.72-.73,5,5,0,0,0,1.72-2.49,5.33,5.33,0,0,0-.23-2.61c-.15-.56-.3-1.12-.16-1.34a1.9,1.9,0,0,1,.42-.38l.17-.14a10.39,10.39,0,0,1,.29,2.55ZM68.51,54a1.36,1.36,0,0,1,.55.37,3.69,3.69,0,0,1-.41,1.16c-.52,1.14-1.4,3,.2,4.82a5.29,5.29,0,0,0,.41.41l.11.1a8.35,8.35,0,0,1-.69.88,11.92,11.92,0,0,0-.92,1.2A5.48,5.48,0,0,0,67.24,64a11,11,0,0,1-2.35-11.69ZM30.92,55.4h7v7.43h-7Zm13.75,0h7v7.43h-7Zm13.76,0h3.15c0,.29,0,.58,0,.88a13.64,13.64,0,0,0,1.68,6.55h-4.8ZM25.68,49.19H63.54A13.36,13.36,0,0,0,62,52.82H57.15a1.29,1.29,0,0,0-1.29,1.29v8.68H54.27V54.11A1.28,1.28,0,0,0,53,52.82h-9.6a1.29,1.29,0,0,0-1.29,1.29v8.68H40.51V54.11a1.28,1.28,0,0,0-1.28-1.29h-9.6a1.28,1.28,0,0,0-1.28,1.29v8.68H25.68Zm59,2.33-.1.11-.29.24a4.09,4.09,0,0,0-1,1,4,4,0,0,0-.16,3.38,3.56,3.56,0,0,1,.21,1.38,3.14,3.14,0,0,1-1,1.18,9.35,9.35,0,0,0-1,1,8.87,8.87,0,0,0-.92,1.5c-.15.3-.29.57-.44.81-.29.45-.66.76-.92.76h0c-.27,0-.63-.39-.82-.88A7.47,7.47,0,0,1,78,60.7c-.08-.43-.17-.86-.29-1.29a11.77,11.77,0,0,0-.67-1.7,11,11,0,0,1-.55-1.38,1.81,1.81,0,0,1,.21-1.76,2.94,2.94,0,0,1,.86-.4,8.93,8.93,0,0,0,.85-.35A2.78,2.78,0,0,0,80,50.46a3.16,3.16,0,0,0-.72-1l-.06-.06a5,5,0,0,1-1.31-3.86,11.18,11.18,0,0,1,6.88,5.14A1.23,1.23,0,0,0,84.63,51.52ZM72.74,25A9.08,9.08,0,0,1,81.82,34V44.32a13.62,13.62,0,0,0-6.61-1.71,13.45,13.45,0,0,0-2.82.3V25Zm-50,0h.34V47.62a1.1,1.1,0,0,0,0,.57V62.88H13.69V34A9.08,9.08,0,0,1,22.77,25ZM63.64,86.89H32.94l6.71-11.08h18Zm9.1-13.65h-50a9.08,9.08,0,0,1-9-7.8H65.09a13.65,13.65,0,0,0,15.4,3.44A9.08,9.08,0,0,1,72.74,73.24Z"></path></g></svg>