<svg width="184" height="19" viewBox="0 0 184 19" fill="none" xmlns="http://www.w3.org/2000/svg">
<path d="M0.35 0.474999H4.75C8.4 0.474999 10.6 1.9 10.6 5.4C10.6 8.275 8.75 9.95 6.65 10.175V10.275C7.35 10.6 7.975 11.175 8.775 12.525L12 18H9.625L6.45 12.4C5.775 11.25 5 10.725 3.725 10.725H2.35V18H0.35V0.474999ZM2.35 2.25V9H4.6C7.025 9 8.55 8.05 8.55 5.625C8.55 3.175 7.125 2.25 4.475 2.25H2.35ZM24.8682 18H15.2182V0.474999H24.5182V2.25H17.2182V8.225H23.6432V10H17.2182V16.225H24.8682V18ZM27.5768 9.375C27.5768 3.625 30.0768 0.224999 34.7518 0.224999C37.4268 0.224999 38.8268 1.175 39.4018 1.675L38.1518 3.2C37.4018 2.575 36.3768 2.025 34.5518 2.025C31.5018 2.025 29.6268 4.25 29.6268 9.2C29.6268 13.95 31.4018 16.425 34.7518 16.425C36.5268 16.425 37.5518 15.95 38.1768 15.35L39.2768 16.775C38.5018 17.525 36.9768 18.25 34.4768 18.25C29.6518 18.25 27.5768 14.775 27.5768 9.375ZM42.6352 0.474999H47.0352C50.6852 0.474999 52.8852 1.9 52.8852 5.4C52.8852 8.275 51.0352 9.95 48.9352 10.175V10.275C49.6352 10.6 50.2602 11.175 51.0602 12.525L54.2852 18H51.9102L48.7352 12.4C48.0602 11.25 47.2852 10.725 46.0102 10.725H44.6352V18H42.6352V0.474999ZM44.6352 2.25V9H46.8852C49.3102 9 50.8352 8.05 50.8352 5.625C50.8352 3.175 49.4102 2.25 46.7602 2.25H44.6352ZM63.533 16.45C66.083 16.45 67.683 15.275 67.683 12.15V0.474999H69.683V11.9C69.683 16.125 67.233 18.25 63.308 18.25C59.358 18.25 57.233 15.975 57.233 12.2V0.474999H59.233V11.9C59.233 15.05 60.908 16.45 63.533 16.45ZM74.5502 18V0.474999H76.5502V18H74.5502ZM84.1273 18V2.25H79.4523V0.474999H90.7773V2.25H86.1273V18H84.1273ZM93.6664 18V0.474999H95.6664V18H93.6664ZM102.669 2.85H102.469C102.519 4.35 102.544 5.75 102.544 7.5V18H100.644V0.474999H103.444L109.344 11.575C110.019 12.85 110.744 14.225 111.369 15.525H111.544C111.494 13.925 111.494 12.3 111.494 10.825V0.474999H113.369V18H110.619L104.669 6.825C103.969 5.525 103.319 4.2 102.669 2.85ZM124.799 0.224999C127.699 0.224999 129.049 1.175 129.624 1.725L128.324 3.25C127.574 2.525 126.424 2.05 124.674 2.05C122.124 2.05 119.324 3.4 119.324 9.125C119.324 14.4 121.199 16.5 124.624 16.5C125.749 16.5 126.999 16.275 127.699 15.8V9.1H129.699V16.675C128.574 17.6 126.899 18.25 124.199 18.25C119.674 18.25 117.274 15.275 117.274 9.3C117.274 2.975 120.624 0.224999 124.799 0.224999ZM145.563 16.45C147.938 16.45 149.213 15.15 149.213 13.525C149.213 9.55 140.863 10.45 140.863 4.925C140.863 2.275 143.138 0.224999 146.288 0.224999C148.263 0.224999 149.813 0.874998 150.813 1.7L149.588 3.25C148.713 2.55 147.638 2.05 146.163 2.05C144.113 2.05 142.888 3.2 142.888 4.8C142.888 8.85 151.238 8 151.238 13.4C151.238 16.05 149.138 18.25 145.388 18.25C142.738 18.25 140.913 17.3 139.913 16.4L141.088 14.8C142.063 15.6 143.463 16.45 145.563 16.45ZM155.068 18V0.474999H157.068V18H155.068ZM164.645 18V2.25H159.97V0.474999H171.295V2.25H166.645V18H164.645ZM183.584 18H173.934V0.474999H183.234V2.25H175.934V8.225H182.359V10H175.934V16.225H183.584V18Z" fill="black"/>
</svg>
