<svg width="1261" height="575" viewBox="0 0 1261 575" fill="none" xmlns="http://www.w3.org/2000/svg">
<path d="M2.00385 318.396L1.97904 318.678L2.10565 318.931L2.22122 319.162L2.52533 319.77L3.20255 319.711L68.0383 314.05L68.8743 313.977L68.9475 313.142L75.8087 234.846L134.425 229.663L175.831 304.068L176.146 304.634L176.791 304.578L241.627 298.917L243.169 298.783L242.413 297.432L197.153 216.666C205.046 212.577 211.982 207.831 218.166 202.325C224.59 196.605 229.965 190.298 234.406 183.405L234.41 183.399C238.84 176.409 242.34 169.296 245.024 161.831C247.711 154.356 249.347 146.764 250.048 139.174L250.048 139.174C250.984 129.003 250.049 119.176 247.356 109.813C244.656 100.309 240.072 92.081 233.488 85.0295C226.894 77.9678 218.435 72.5755 208.144 68.7184C197.797 64.8399 185.504 63.5665 171.183 64.8466L23.9473 77.669L23.1104 77.7419L23.0378 78.5789L18.0682 135.877L17.9653 137.063L19.1516 136.959L156.559 124.946C156.561 124.946 156.562 124.945 156.563 124.945C166.507 124.146 173.556 125.888 177.76 129.767C182.051 133.726 183.998 138.622 183.452 144.183C182.903 149.785 180.042 155.239 174.85 160.316C169.753 165.299 162.26 168.249 152.23 169.161C152.229 169.161 152.229 169.161 152.228 169.161L76.648 175.745L76.3018 175.775L76.0489 176.014L9.24844 238.972L8.97152 239.233L8.93816 239.612L2.00385 318.396Z" fill="black" stroke="#88010E" stroke-width="2"/>
<path d="M283.537 293.791L283.433 294.978L284.62 294.874L349.456 289.214L350.291 289.141L350.365 288.305L371.399 48.371L371.503 47.1838L370.316 47.2874L305.48 52.9479L304.644 53.0209L304.571 53.8568L283.537 293.791Z" fill="black" stroke="#88010E" stroke-width="2"/>
<path d="M401.268 173.01L401.257 173.02L401.247 173.031L401.016 173.262L400.758 173.519L400.726 173.881L391.018 284.549L390.914 285.736L392.101 285.633L509.985 275.351L509.989 275.351C529.06 273.608 546.067 268.723 561.111 260.563C576.117 252.424 588.93 242.298 599.419 229.95C609.887 217.627 618.148 204.136 624.199 189.365C630.245 174.607 633.969 159.605 635.25 144.364C636.529 129.131 635.483 114.58 631.987 100.602C628.487 86.6097 622.531 74.3448 613.879 63.7098C605.21 53.0542 593.974 44.9899 580.202 39.2736L580.195 39.2709C566.375 33.6517 549.913 31.6825 530.847 33.3094L530.845 33.3096L412.962 43.5908L412.125 43.6638L412.052 44.5006L407.083 101.798L406.98 102.985L408.166 102.881L512.528 93.7548L512.529 93.7547C522.818 92.8405 531.434 93.8756 538.646 96.8042C545.905 99.7521 551.777 103.935 556.286 109.229C560.812 114.659 564.093 120.991 565.905 128.235C567.728 135.525 568.411 143.383 567.728 151.007C567.044 158.639 565.106 166.396 561.905 174.166C558.713 181.915 554.266 188.981 548.677 195.252C543.092 201.518 536.366 206.874 528.495 211.093L528.485 211.099C520.654 215.409 511.664 217.919 501.374 218.834C501.373 218.834 501.373 218.834 501.373 218.834L460.03 222.427L469.75 110.866L469.978 108.252L468.068 110.052L401.268 173.01Z" fill="black" stroke="#88010E" stroke-width="2"/>
<path d="M889.276 3.08641L889.379 1.8998L888.192 2.00382L687.907 19.5628L687.071 19.636L686.998 20.4716L665.964 260.406L665.86 261.593L667.047 261.489L867.333 243.93L868.169 243.857L868.242 243.02L873.212 185.723L873.314 184.537L872.128 184.64L738.214 196.319L741.385 160.684L825.611 153.363L825.984 153.33L826.244 153.061L880.91 96.3406L882.764 94.4166L880.102 94.6505L745.841 106.445L748.782 73.119L883.398 61.2938L884.234 61.2204L884.306 60.3841L889.276 3.08641Z" fill="black" stroke="#88010E" stroke-width="2"/>
<path d="M1011.03 311.97L1013.96 309.846L1010.36 310.164L946.33 315.825L945.495 315.899L945.422 316.734L941.608 360.285L941.417 362.469L943.192 361.181L1011.03 311.97Z" fill="black" stroke="#88010E" stroke-width="2"/>
<path d="M940.738 376.546L940.377 376.813L940.337 377.261L927.393 523.05L927.288 524.238L928.476 524.135L992.502 518.59L993.338 518.518L993.412 517.683L1010.4 327.072L1010.6 324.856L1008.81 326.179L940.738 376.546Z" fill="black" stroke="#88010E" stroke-width="2"/>
<path d="M1034.99 513.695L1034.99 513.738V513.782V514.013V515.105L1036.07 515.009L1099.06 509.464L1099.9 509.39L1099.97 508.555L1112.72 362.681L1179.49 356.799L1194.91 379.926L1184.31 500.756L1184.2 501.945L1185.39 501.84L1245.61 496.526L1246.44 496.452L1246.51 495.617L1259 353.066L1259.03 352.716L1258.83 352.424L1218.96 292.585L1218.63 292.092L1218.04 292.143L1053.93 306.468L1053.09 306.541L1053.02 307.377L1034.99 513.695Z" fill="black" stroke="#88010E" stroke-width="2"/>
<path d="M404.315 568.913L404.076 571.649L405.877 569.849L621.402 551.051L622.237 550.978L622.311 550.143L627.396 492.614L627.501 491.426L626.313 491.53L474.945 504.711L485.633 381.973L582.423 373.486L578.366 419.777L578.183 421.867L579.922 420.693L641.522 379.106L641.917 378.839L641.959 378.364L647.968 309.63L648.072 308.443L646.885 308.547L426.258 327.839L425.423 327.912L425.349 328.748L404.315 568.913Z" fill="black" stroke="#88010E" stroke-width="2"/>
<path d="M665.507 545.925L665.404 547.111L666.59 547.008L825.733 533.146L826.099 533.114L826.358 532.852L890.154 468.161L890.406 467.904L890.438 467.545L903.266 320.72L903.37 319.534L902.183 319.637L743.041 333.499L742.674 333.531L742.416 333.793L678.62 398.484L678.367 398.741L678.336 399.099L665.507 545.925ZM831.826 385.385L825.95 451.909L805.167 475.392L737.179 481.375L743.055 414.851L763.837 391.368L831.826 385.385Z" fill="black" stroke="#88010E" stroke-width="2"/>
</svg>
