<svg width="415" height="77" viewBox="0 0 415 77" fill="none" xmlns="http://www.w3.org/2000/svg">
<g clip-path="url(#clip0_608_79)">
<path fill-rule="evenodd" clip-rule="evenodd" d="M26.9407 77.0097L13.4707 63.5497L63.5507 13.4697L77.0107 26.9397L26.9407 77.0097Z" fill="#7B191D"/>
<path fill-rule="evenodd" clip-rule="evenodd" d="M26.9407 0L13.4707 13.47L63.5507 63.55L77.0107 50.08L26.9407 0Z" fill="#681216"/>
<path fill-rule="evenodd" clip-rule="evenodd" d="M13.47 63.55L0 50.08L50.08 0L63.55 13.47L13.47 63.55Z" fill="#5F0E12"/>
<path fill-rule="evenodd" clip-rule="evenodd" d="M13.47 13.4697L0 26.9397L25.04 51.9797L38.51 38.5097L13.47 13.4697ZM38.51 65.4397L50.08 77.0097L63.55 63.5397L51.98 51.9697L38.51 65.4397Z" fill="#7C181D"/>
<path opacity="0.5" fill-rule="evenodd" clip-rule="evenodd" d="M25.0408 51.9798L38.5108 38.5098L21.5508 48.4798L25.0408 51.9798Z" fill="#040000"/>
<path opacity="0.5" fill-rule="evenodd" clip-rule="evenodd" d="M51.9798 51.9798L38.5098 38.5098L48.4798 55.4698L51.9798 51.9798Z" fill="#040000"/>
<path opacity="0.5" fill-rule="evenodd" clip-rule="evenodd" d="M25.0391 25.04L38.5091 38.51L28.5391 21.54L25.0391 25.04Z" fill="#040000"/>
<path opacity="0.5" fill-rule="evenodd" clip-rule="evenodd" d="M51.9898 25.0195L38.5098 38.5095L55.4598 28.5295L51.9898 25.0195Z" fill="#040000"/>
<path opacity="0.5" fill-rule="evenodd" clip-rule="evenodd" d="M25.0307 25.0195H25.0207L13.4707 13.4695L19.6607 7.26953L27.2807 19.5195L22.7307 22.7295L25.0307 25.0195Z" fill="#040000"/>
<path opacity="0.5" fill-rule="evenodd" clip-rule="evenodd" d="M48.4805 55.4705L51.9805 51.9805L63.5305 63.5305L57.3405 69.7305L48.4805 55.4705Z" fill="#040000"/>
<path opacity="0.5" fill-rule="evenodd" clip-rule="evenodd" d="M21.5491 48.4805L25.0391 51.9805L13.4691 63.5505L7.28906 57.3405L21.5491 48.4805Z" fill="#040000"/>
<path opacity="0.5" fill-rule="evenodd" clip-rule="evenodd" d="M55.4602 28.5297L51.9902 25.0197L63.5402 13.4697L69.7402 19.6597L55.4602 28.5297Z" fill="#040000"/>
<path opacity="0.5" fill-rule="evenodd" clip-rule="evenodd" d="M28.5393 21.5403L38.5093 11.5703L27.2793 19.5203L28.5393 21.5403Z" fill="#040000"/>
<path opacity="0.5" fill-rule="evenodd" clip-rule="evenodd" d="M28.5405 21.5395L25.0405 25.0395L22.7305 22.7295L27.2805 19.5195L28.5405 21.5395Z" fill="#040000"/>
<path opacity="0.5" fill-rule="evenodd" clip-rule="evenodd" d="M48.4798 55.4697L38.5098 65.4397L49.7398 57.4897L48.4798 55.4697Z" fill="#040000"/>
<path opacity="0.5" fill-rule="evenodd" clip-rule="evenodd" d="M48.4805 55.4697L51.9705 51.9697L54.2805 54.2697L49.7405 57.4897L48.4805 55.4697Z" fill="#040000"/>
<path opacity="0.5" fill-rule="evenodd" clip-rule="evenodd" d="M21.6 48.4201L11.5 38.5801L19.59 49.7001L21.6 48.4201Z" fill="#040000"/>
<path opacity="0.5" fill-rule="evenodd" clip-rule="evenodd" d="M21.5395 48.4805L25.0395 51.9805L22.7395 54.2805L19.5195 49.7405L21.5395 48.4805Z" fill="#040000"/>
<path opacity="0.5" fill-rule="evenodd" clip-rule="evenodd" d="M55.4707 28.5403L65.4407 38.5103L57.4907 27.2803L55.4707 28.5403Z" fill="#040000"/>
<path opacity="0.5" fill-rule="evenodd" clip-rule="evenodd" d="M55.4705 28.5405L51.9805 25.0405L54.2805 22.7305L57.4905 27.2805L55.4705 28.5405Z" fill="#040000"/>
<path d="M107.211 11.8291H133.111C137.221 11.8291 140.611 13.1691 143.291 15.8391C145.961 18.5091 147.301 22.2091 147.301 26.9391C147.301 31.6691 145.961 35.3691 143.291 38.0391C141.851 39.4791 139.791 40.4091 137.121 40.8191L149.151 64.5591H141.441L130.341 41.7391H114.311V64.5591H107.221V11.8291H107.211ZM114.301 17.6891V35.8791H132.491C134.541 35.8791 136.291 35.1591 137.731 33.7191C139.171 32.2791 139.891 30.0191 139.891 26.9391C139.891 24.0591 139.071 21.7991 137.421 20.1591C135.771 18.5191 133.821 17.6891 131.561 17.6891H114.291H114.301Z" fill="#040000"/>
<path d="M177.88 17.9995C182.2 13.6795 187.44 11.5195 193.61 11.5195C199.78 11.5195 205.02 13.6795 209.34 17.9995C214.27 22.9295 216.74 29.7195 216.74 38.3495C216.74 46.9795 214.27 53.7695 209.34 58.6995C205.02 63.0195 199.78 65.1795 193.61 65.1795C187.44 65.1795 182.2 63.0195 177.88 58.6995C172.95 53.7695 170.48 46.9795 170.48 38.3495C170.48 29.7195 172.95 22.9295 177.88 17.9995ZM183.13 22.0095C179.63 25.5095 177.89 30.9495 177.89 38.3495C177.89 45.7495 179.63 51.1995 183.13 54.6895C186.21 57.7695 189.71 59.3195 193.61 59.3195C197.51 59.3195 201.01 57.7795 204.09 54.6895C207.58 51.1995 209.33 45.7495 209.33 38.3495C209.33 30.9495 207.58 25.5095 204.09 22.0095C201.01 18.9295 197.51 17.3795 193.61 17.3795C189.71 17.3795 186.21 18.9195 183.13 22.0095Z" fill="#040000"/>
<path d="M249.481 17.9995C253.801 13.6795 259.041 11.5195 265.211 11.5195C271.381 11.5195 276.411 13.4795 280.321 17.3795C283.611 20.6695 285.351 24.6795 285.561 29.4095H278.161C277.951 25.9195 276.721 23.0395 274.461 20.7795C272.201 18.5195 269.111 17.3895 265.211 17.3895C261.311 17.3895 258.011 18.7295 255.341 21.3995C251.641 25.0995 249.791 30.8595 249.791 38.6695C249.791 46.0695 251.741 51.7295 255.651 55.6295C258.321 58.2995 262.021 59.6395 266.751 59.6395C270.241 59.6395 273.121 58.5095 275.381 56.2495C277.641 53.9895 278.971 51.6195 279.391 49.1595V44.2295H270.451V38.3695H286.481V65.5095H281.241L279.391 60.2695C275.891 63.7695 271.471 65.5095 266.131 65.5095C259.551 65.5095 254.211 63.4595 250.101 59.3395C244.961 54.1995 242.391 47.3095 242.391 38.6795C242.391 30.0495 244.751 22.7495 249.481 18.0195V17.9995Z" fill="#040000"/>
<path d="M307.521 12.1396H314.922L330.031 36.1896L345.142 12.1396H352.542L333.732 41.4296V64.8596H326.642V41.4296L307.521 12.1396Z" fill="#040000"/>
<path d="M389.29 37.4296L372.64 12.1396H380.66L392.99 31.5696L405.32 12.1396H413.34L396.69 37.4296L414.88 64.8697H406.86L392.98 43.2896L379.1 64.8697H371.08L389.27 37.4296H389.29Z" fill="#040000"/>
</g>
<defs>
<clipPath id="clip0_608_79">
<rect width="414.88" height="77.01" fill="white"/>
</clipPath>
</defs>
</svg>
