<svg width="188" height="540" viewBox="0 0 188 540" fill="none" xmlns="http://www.w3.org/2000/svg">
<g style="mix-blend-mode:color-dodge" opacity="0.6">
<path d="M117.953 219.058C118.619 219.727 119.379 220.49 120.327 221.064C121.181 221.922 121.847 222.977 122.326 224.117C122.326 224.88 122.608 225.36 122.992 225.832C123.564 226.312 124.034 226.784 124.324 227.452C124.606 227.933 124.802 228.404 125.084 228.979C125.469 229.459 125.938 230.025 126.323 230.599C126.801 231.748 127.467 232.794 128.227 233.746C128.705 234.226 129.175 234.698 129.559 235.461C129.559 236.13 129.841 236.224 130.319 235.744C130.132 237.082 130.507 238.325 131.361 239.466C131.549 240.04 131.84 240.615 132.215 240.992C132.121 241.472 132.121 241.944 132.215 242.518C132.975 243.95 133.163 245.476 132.694 246.908C132.412 247.577 131.84 248.152 131.079 248.529C130.413 249.198 130.132 250.055 130.319 250.913C130.038 250.527 129.935 250.527 129.935 250.913C129.935 251.393 129.841 251.77 129.551 252.062C129.363 252.731 129.166 253.494 129.073 254.162C129.166 255.594 128.885 256.932 128.219 258.175C128.312 258.364 128.406 258.561 128.697 258.561C128.312 258.75 128.125 259.041 128.219 259.419C128.125 259.899 128.031 260.568 127.937 261.237C128.031 261.717 128.031 262.283 127.937 262.951C127.552 263.337 127.552 263.809 127.937 264.383V263.62C128.031 264.195 128.031 264.666 127.937 265.147C128.031 265.43 128.031 265.721 127.937 266.004C127.749 266.673 127.749 267.342 127.937 268.011C127.749 269.631 127.749 271.26 127.937 272.881V274.887C128.031 275.556 128.125 276.225 128.219 276.799C128.031 277.657 128.031 278.514 128.219 279.278C128.031 280.615 128.031 281.953 128.219 283.29H128.697C128.312 284.439 128.125 285.58 128.219 286.823V288.735C128.5 289.216 128.5 289.687 128.219 290.073C127.834 291.222 126.98 292.079 125.844 292.654C124.802 293.992 123.564 295.235 122.326 296.375C121.941 296.95 121.378 297.327 120.712 297.524C120.327 297.91 119.952 298.193 119.473 298.382C118.901 298.57 118.431 298.768 117.953 299.145C117.287 299.719 116.621 300.294 115.955 300.671C115.195 300.671 114.529 300.766 113.956 301.057C113.384 300.963 113.008 301.151 112.718 301.537C112.334 301.632 112.052 301.82 111.864 302.3C111.104 302.583 110.438 302.395 109.866 301.82C109.481 302.103 109.199 302.009 109.105 301.537C108.627 301.632 108.251 301.632 107.773 301.537C107.201 301.443 106.731 301.151 106.347 300.68C105.681 300.294 105.109 299.728 104.639 299.154C104.255 298.39 103.785 297.91 103.025 297.533C103.119 296.77 103.025 296.101 102.837 295.526C102.077 295.244 101.411 294.858 100.745 294.378C100.557 293.709 100.172 293.426 99.4123 293.52C97.8921 293.906 96.372 294.378 94.7493 294.763H93.9892C93.8013 294.095 93.417 294 92.7509 294.378C92.2726 294.763 91.8969 294.763 91.5126 294.378C90.0863 295.046 88.6601 295.329 87.14 295.235H85.9956C85.1415 295.329 84.185 295.518 83.1431 295.518C81.7169 295.518 80.675 296.187 80.0089 297.524V297.044C79.821 297.139 79.821 297.233 80.0089 297.524C78.967 297.241 77.8226 297.336 76.7721 297.91C75.8241 297.627 74.7737 297.43 73.6378 297.524C72.9717 296.95 72.3056 296.478 71.5455 295.904C71.1612 295.235 70.5036 294.66 69.641 294.378C68.8809 293.992 68.3087 293.426 67.933 292.663C67.5487 292.474 67.4547 292.182 67.5487 291.616C67.8305 291.616 67.933 291.522 67.933 291.231V290.467C68.1208 290.082 68.5052 289.893 68.8809 290.082C68.8809 289.224 69.2652 288.744 70.0253 288.744C69.641 288.65 69.641 288.555 70.0253 288.461C69.7435 288.075 69.4531 287.604 69.1713 287.218C68.787 286.549 68.5991 285.691 68.4112 284.834C68.0269 284.259 67.7451 283.496 67.5572 282.827C67.4632 281.97 67.1729 281.49 66.7971 281.301V280.821C66.5153 279.672 66.2249 278.437 66.037 277.288C65.5588 276.525 65.3709 275.762 65.2769 274.905C64.8926 274.047 64.7048 273.087 64.7987 272.041C64.7048 271.655 64.6108 271.277 64.4144 270.892C64.3204 270.317 64.2265 269.743 64.0301 269.177V267.265C63.7482 265.738 63.5518 264.306 63.5518 262.969V257.815C63.5518 255.809 63.7397 253.802 64.0301 251.71V248.563C64.0301 247.517 64.124 246.368 64.4144 245.416C64.6023 244.37 64.7987 243.41 65.2684 242.552C65.3623 241.789 65.6527 241.026 66.0285 240.169C66.4128 238.257 67.2668 236.542 68.4027 235.015C68.8809 234.629 69.0688 234.252 69.1628 233.772C69.4446 233.197 69.735 232.726 70.0168 232.246C70.589 231.483 71.2551 230.908 72.0152 230.625C72.297 229.768 72.7753 229.004 73.6293 228.524C74.2954 229.193 74.5773 230.051 74.3894 231.105C74.2954 232.726 73.8172 234.355 72.7753 235.787C72.0152 236.362 71.3491 237.03 70.8708 237.793C70.2986 238.84 69.7264 239.894 69.1628 241.043C68.5906 241.712 68.1208 242.475 67.9244 243.427C68.1123 244.096 68.1123 244.765 67.9244 245.433C67.7365 246.197 67.7365 247.148 67.9244 248.109C67.4462 248.966 67.3522 249.824 67.5401 250.69C66.874 252.31 66.5921 254.034 66.78 255.749C66.5921 257.181 66.4982 258.518 66.4982 259.856C66.5921 260.619 66.6861 261.477 66.78 262.531V264.443C66.874 265.592 67.1643 266.639 67.5401 267.693C68.2062 266.647 68.9663 265.875 70.0082 265.215C70.9562 264.263 72.0067 263.303 73.245 262.54C74.3894 261.777 75.4313 260.919 76.3793 259.959C76.6611 260.345 77.0454 260.345 77.5237 259.865C78.0958 259.29 78.762 258.818 79.616 258.621C81.8963 256.615 84.3729 254.711 86.8411 252.988C87.6951 252.413 88.6516 251.942 89.5056 251.461C91.0258 250.981 92.5459 250.415 93.9722 249.841C96.2524 249.266 98.3448 249.558 100.249 250.698C102.717 252.13 105.006 253.845 107.099 255.757C107.859 256.803 108.431 257.952 109.097 259.007C109.575 259.865 109.951 260.919 110.335 262.06C110.429 262.634 110.617 263.209 110.814 263.68C110.626 264.255 110.335 264.726 109.866 265.207C109.678 265.592 109.481 265.875 109.105 266.064C108.627 265.97 108.157 265.97 107.773 266.064C107.585 265.875 107.201 266.064 106.731 266.544C105.971 266.639 105.305 266.639 104.639 266.544C104.639 266.93 104.545 266.93 104.255 266.544C104.067 266.356 103.776 266.544 103.401 266.93C102.922 266.647 102.359 266.741 101.974 267.316C100.642 267.316 99.5062 267.599 98.4558 268.079C96.8417 269.031 95.5094 270.274 94.365 271.706C92.7509 272.949 91.1283 274.287 89.5141 275.616C90.0863 276.379 90.8464 276.765 91.5126 276.86C91.7004 277.434 92.0848 277.717 92.7509 277.717C92.7509 278 92.9388 278.197 93.2292 278.197C93.6135 278.48 93.9892 278.583 94.3735 278.386V278.866C94.7579 278.96 95.2276 279.252 95.6119 279.629C95.9962 279.818 96.372 279.912 96.8502 280.109C97.3285 280.684 97.8921 280.872 98.4643 280.872C98.3704 281.155 98.4643 281.353 98.7461 281.353C98.7461 280.872 98.934 280.872 99.4123 281.353C100.266 281.833 101.12 282.021 101.983 282.116C102.743 282.399 103.691 282.502 104.647 282.502H107.116L109.114 281.353C109.78 280.589 110.352 279.732 110.822 278.875C111.01 278.3 111.394 277.828 111.864 277.348L112.718 275.633V251.007C113.196 246.711 113.572 242.321 113.956 237.836C113.956 235.453 113.102 233.635 111.104 232.297C109.866 231.911 108.636 231.345 107.491 230.677C107.303 230.677 107.107 230.488 107.107 230.291H106.347C105.681 229.716 105.015 229.339 104.255 229.047C103.495 228.859 102.922 229.142 102.35 229.811C101.966 230.093 101.684 230.093 101.496 229.811C100.83 229.905 100.258 230.196 99.882 230.668C98.934 231.62 97.8836 232.194 96.8417 232.58C95.9876 233.249 95.0311 233.823 93.9892 234.295C93.8013 235.153 93.417 235.916 92.7509 236.584C91.8969 237.348 90.9404 238.016 89.9924 238.591C89.0444 239.165 88.2844 239.834 87.6182 240.597C87.7122 241.266 87.4303 241.644 86.8581 241.746C86.192 242.029 85.9102 242.227 86.0041 242.604C85.4319 242.698 85.338 242.99 85.6198 243.461H85.1415C84.4754 244.13 83.7153 244.61 82.8613 244.988C81.8194 245.176 80.8629 245.468 80.0089 245.845C79.821 246.128 79.6245 246.231 79.2488 246.231V246.994H78.0104C77.4382 246.711 76.8661 246.325 76.3963 245.845L76.7806 245.459C76.0206 244.696 76.0206 243.744 76.7806 242.595C76.6867 242.115 76.8746 241.832 77.2589 241.549V240.212C77.4468 240.023 77.5407 239.731 77.5407 239.543C78.4887 238.497 79.5391 237.828 80.7775 237.442C81.0593 236.867 81.3497 236.396 81.6315 235.821C82.1098 235.633 82.3916 235.247 82.4855 234.672H83.1517C83.6299 234.286 84.0057 233.909 84.39 233.429C84.9622 232.666 85.338 231.714 85.6283 230.659C86.2945 229.227 87.2424 227.984 88.3868 227.127C90.1974 225.883 91.9994 224.649 93.7074 223.405C94.6554 222.453 95.8937 221.879 97.226 221.399C96.9442 221.879 96.8417 221.879 96.8417 221.399C96.7477 221.785 96.8417 221.973 97.226 221.879C97.5078 221.399 97.8921 221.21 98.4643 221.116C98.08 221.116 97.8921 221.21 97.7042 221.399C97.4224 221.304 97.4224 221.21 97.7042 221.116H97.226C97.6103 221.116 97.7042 221.022 97.7042 220.636H97.9861C98.3704 220.824 98.5583 220.636 98.7461 220.155C98.934 220.438 99.1305 220.636 99.4123 220.636C101.026 219.59 102.649 218.921 104.263 218.724C105.783 218.243 107.21 217.866 108.636 217.48C108.918 217.48 109.114 217.292 109.114 217C109.396 217.094 109.686 217.189 109.874 217.48C110.446 217.386 111.018 217.292 111.488 217H113.008C115.007 217.283 116.621 217.952 117.953 219.101V219.058ZM67.5657 269.648C67.95 270.694 68.2319 271.749 68.4198 272.898C68.7016 274.047 69.0859 275.282 69.6581 276.431C70.2303 278.909 71.0843 281.301 72.0323 283.496C72.5105 285.117 73.4585 285.974 74.8847 286.077C76.0291 285.597 77.071 284.928 78.019 283.976C79.3513 283.213 80.5896 282.262 81.6315 281.301C82.5795 280.821 83.2456 280.152 83.6299 279.295V278.815C83.2456 278.815 83.1517 278.72 83.1517 278.334V278.815C82.6734 278.429 82.3916 278.051 82.4855 277.666C82.0073 277.571 81.6315 277.477 81.1532 277.28C80.5811 276.611 80.2053 275.848 80.0089 275.179C79.5306 275.085 79.1548 274.793 78.8645 274.416C78.6766 275.273 78.1044 275.659 77.2504 275.565C76.7721 275.565 76.4903 275.282 76.3963 274.896C75.7302 274.707 75.0641 274.51 74.3979 274.416C73.2535 273.841 72.3056 273.078 71.5455 272.032C70.6915 271.458 69.8374 270.883 68.8809 270.411C68.693 269.837 68.3087 269.554 67.5487 269.648H67.5657ZM84.3985 280.341C84.2107 280.821 83.7324 281.198 83.1602 281.293C82.1183 282.056 81.0678 282.819 80.0259 283.488C79.2659 284.439 78.4118 285.108 77.2674 285.589C76.5074 286.352 75.8412 287.115 75.269 287.972C76.0291 289.31 77.0796 290.073 78.5058 290.45H82.5026C84.2107 290.45 85.9272 290.356 87.6353 290.064C88.6772 290.159 89.6337 289.97 90.4877 289.584C91.5296 289.198 92.674 288.632 93.7245 287.964C93.2462 287.578 92.8705 287.201 92.7765 286.815C92.6826 286.24 92.2983 285.863 91.5382 285.571V285.185C91.1539 284.997 90.966 284.705 90.872 284.328H90.4877C90.2998 284.139 90.2059 283.942 90.0095 283.942C89.7277 283.942 89.5312 283.848 89.5312 283.462C89.1469 283.556 89.053 283.462 89.3433 283.273H88.8651C88.4808 283.085 88.3868 283.085 88.3868 283.273C88.4808 282.793 88.3868 282.51 88.0025 282.416C88.1278 282.542 88.1278 282.542 88.0025 282.416C87.8146 282.227 87.7207 282.227 87.6182 282.416C87.4303 282.322 87.3364 282.227 87.14 282.03C87.046 282.03 86.8581 281.936 86.8581 281.644H86.3799C86.8581 281.456 86.8581 281.361 86.3799 281.258C86.192 281.07 85.9016 280.872 85.6198 280.778C85.338 280.778 85.1415 280.589 85.1415 280.298C84.8597 280.204 84.6633 280.204 84.3815 280.298L84.3985 280.341ZM80.7775 272.898C81.1618 273.087 81.4436 273.284 81.6315 273.567H82.4855C82.0073 273.953 82.0073 274.236 82.4855 274.424C82.4855 274.707 82.5795 274.999 82.8698 275.187C82.7759 275.47 82.8698 275.856 83.1517 276.045C82.5795 275.762 82.0073 275.376 81.6315 274.896C80.1113 273.747 79.821 273.85 80.7775 275.179C81.4436 276.036 82.2976 276.894 83.1517 277.657C83.7239 278.043 84.1936 278.231 84.7658 278.326C85.338 278.137 85.4319 277.751 85.1501 277.28C84.9622 277.405 84.9622 277.405 85.1501 277.28H84.7658V276.799C84.8597 277.185 85.1501 277.374 85.6198 277.28C84.9537 276.705 84.3815 276.131 83.6214 275.565C83.2371 275.47 83.1431 275.282 83.1431 274.896C82.5709 274.51 82.477 274.416 82.8613 274.416C82.6734 274.133 82.5795 273.841 82.477 273.558H81.9987C82.0927 273.464 82.2806 273.37 82.477 273.275C81.8109 273.558 81.2387 273.37 80.7689 272.889L80.7775 272.898ZM81.1618 272.041C82.4941 273.087 83.8263 274.047 85.1586 274.905C85.4405 275.093 85.7308 275.29 86.0126 275.573C86.4909 276.148 87.0546 276.336 87.6268 276.054C87.5328 275.668 87.3449 275.29 87.1485 274.905C86.9606 274.81 86.6702 274.622 86.3884 274.424L86.0041 274.038C85.5259 273.756 85.0561 273.558 84.7658 273.275L83.6214 272.418C83.2371 272.512 83.0492 272.418 82.8613 272.032H82.477C82.383 271.843 82.1952 271.646 81.9987 271.646C81.7169 271.458 81.4265 271.552 81.1447 272.032L81.1618 272.041ZM97.226 262.969C96.6538 263.637 95.7998 264.015 94.7579 264.015C93.9038 264.401 93.1437 264.589 92.4776 264.401C89.907 265.258 87.3449 266.218 84.7743 267.265C83.8263 267.839 83.0663 268.696 82.4941 269.648C81.8279 270.034 81.8279 270.411 82.4941 270.892C82.4941 271.175 82.682 271.466 82.8784 271.655V271.269C83.1602 271.552 83.6385 271.843 84.0228 272.032C84.501 272.221 84.8768 272.315 85.1672 272.418H84.7829C85.0647 272.898 85.5429 273.181 86.0212 273.275C86.4994 273.756 87.0631 274.038 87.6353 274.424C87.9171 274.613 88.2075 274.707 88.3954 274.905C89.0615 275.093 89.4373 274.999 89.5398 274.424C90.112 273.756 90.6842 273.087 91.1539 272.418C92.5801 270.986 93.9124 269.46 95.1507 268.028C96.5769 266.596 97.431 264.881 97.7213 262.969H97.2431H97.226ZM88.3868 278.146C88.105 278.146 88.0025 278.429 88.0025 278.815C87.6182 278.626 87.4303 278.334 87.6182 278.146H86.8581C87.14 278.334 87.5243 278.626 88.0025 278.815C88.6687 279.2 89.1469 279.672 89.5227 280.341C90.0949 280.529 90.6671 280.624 91.1368 280.821C91.709 281.49 92.3751 281.867 93.2292 282.064C91.9908 281.301 90.9489 280.349 89.9924 279.295C89.5141 278.815 89.0444 278.437 88.3783 278.146H88.3868ZM87.6268 280.341C88.0111 280.821 88.3868 281.198 88.8651 281.293C89.8131 282.339 91.0514 283.299 92.4776 283.968C91.5296 283.299 90.7696 282.536 90.0095 281.678C88.9676 281.198 88.1989 280.529 87.6353 279.578C86.9692 279.389 86.9692 279.578 87.6353 280.341H87.6268ZM91.5211 278.815C91.3332 278.532 91.1368 278.334 91.1368 278.146H91.5211C90.855 277.957 90.3767 277.666 90.0009 277.288C89.7191 277.288 89.5227 277.1 89.5227 276.808C89.907 277.477 90.6671 278.146 91.5211 278.815ZM99.0365 282.064C99.7966 282.45 100.557 282.733 101.505 282.827C100.745 282.442 99.9845 282.159 99.0365 282.064Z" fill="url(#paint0_linear_2011_3)"/>
<path d="M98.1825 329.624C98.8487 330.105 99.4209 330.67 99.993 331.151C101.419 332.197 102.461 333.346 103.23 334.683C103.512 334.966 103.802 335.258 104.178 335.447C104.46 336.115 104.75 336.69 105.126 337.359C105.126 337.642 104.938 337.933 104.647 338.122C104.46 338.602 104.46 339.074 104.647 339.648C104.366 339.262 104.169 339.262 104.169 339.648C103.785 340.034 103.597 340.317 103.597 340.797C103.315 341.277 103.213 341.749 103.213 342.323C102.734 343.567 102.453 344.801 102.359 346.233C102.547 345.659 103.025 345.282 103.597 344.99C104.263 344.604 104.929 344.227 105.502 343.747L107.782 343.464C108.064 343.275 108.26 343.078 108.26 342.701H109.686C111.112 343.652 112.82 344.227 114.725 344.613C115.579 344.999 116.433 345.376 117.39 345.856C117.962 346.431 118.534 346.902 119.2 347.288C119.96 347.957 120.532 348.626 121.011 349.295C121.583 349.869 121.865 350.538 121.959 351.207C122.531 351.593 122.531 352.064 121.959 352.639V353.496C121.386 353.213 121.105 353.307 121.011 353.882C120.25 353.976 119.584 354.071 118.824 354.268C118.158 354.362 117.586 354.456 117.014 354.654C116.348 355.7 115.494 356.472 114.255 356.943H114.734C113.879 357.329 113.119 357.706 112.359 358.186C112.838 358.186 113.213 358.092 113.307 357.706C112.735 357.989 112.265 358.375 111.881 358.855C111.497 358.855 111.215 358.95 111.027 359.138C110.361 359.327 109.883 359.233 109.695 358.855C110.079 358.855 110.361 358.667 110.643 358.572C109.977 358.478 109.498 358.572 109.217 358.855C108.55 359.044 107.978 359.138 107.312 359.138C106.458 359.618 105.604 359.996 104.647 360.382C105.98 361.239 106.74 362.388 106.928 363.82C106.928 364.489 106.646 364.969 106.074 365.346C105.689 365.826 105.408 366.298 105.126 366.778C104.844 366.967 104.554 367.061 104.178 367.258C103.802 367.456 103.418 367.739 103.23 368.022C102.564 368.407 102.085 368.973 101.898 369.642C101.991 369.359 102.179 369.256 102.376 369.256C102.188 369.642 101.898 369.736 101.522 369.642C101.043 369.642 101.043 369.736 101.522 369.925V370.405H101.043C101.137 370.5 101.325 370.594 101.522 370.688C100.95 371.263 100.48 371.734 100.002 372.309C100.002 372.026 100.189 371.923 100.574 371.923C100.386 372.206 100.386 372.309 100.574 372.309C99.6258 372.978 98.6693 373.647 97.8153 374.41C97.9092 374.41 97.9092 374.504 97.8153 374.796V374.41C97.6274 374.41 97.5335 374.598 97.5335 374.796C98.2935 375.181 99.344 375.276 100.574 375.181C101.428 375.181 102.094 375.276 102.854 375.567C103.52 375.756 104.28 375.85 105.134 375.953C107.508 376.716 109.985 377.479 112.359 378.431C114.93 379.1 117.492 379.863 120.157 380.626C121.395 381.012 122.531 381.389 123.769 381.87C124.913 381.87 125.955 382.058 126.903 382.538C127.091 382.444 127.185 382.255 127.382 382.153C127.766 382.821 128.424 383.104 129.286 382.916C128.808 383.199 128.808 383.302 129.286 383.302C129.858 383.302 130.234 383.49 130.618 384.065C132.326 384.348 133.855 385.016 135.179 386.071C135.751 385.977 136.417 386.26 137.083 386.74C137.843 387.597 138.603 388.455 139.27 389.51C139.936 390.178 140.414 390.942 140.696 391.799C140.884 392.279 141.174 392.845 141.55 393.325C141.644 393.711 141.55 394.088 141.166 394.474H141.55C141.362 394.954 141.362 395.426 141.55 396.001C141.072 396.095 140.602 396.189 140.124 396.481C139.551 396.575 139.176 396.481 138.791 396.001C138.125 395.812 137.365 395.615 136.511 395.615C136.989 395.803 137.177 396.095 137.083 396.472H136.511C135.751 395.992 134.991 395.803 134.231 395.615C133.659 396.095 132.899 396.095 131.951 395.615C131.669 395.229 131.191 395.04 130.618 394.852C130.046 394.663 129.67 394.371 129.286 394.088C129.098 393.9 128.808 393.703 128.338 393.703L126.912 392.845C126.058 392.562 125.204 392.176 124.341 391.799C123.197 391.799 122.061 391.893 121.011 392.185C120.532 392.374 120.157 392.374 119.678 392.185L115.972 393.334C115.212 393.72 114.264 394.003 113.307 394.097C112.359 394.483 111.497 394.672 110.643 394.86C111.121 395.435 111.591 396.103 111.881 396.867C111.975 397.055 112.163 397.252 112.359 397.441C112.171 398.016 112.171 398.487 112.359 398.967C112.265 399.448 112.077 399.825 111.881 400.211C111.497 400.116 111.121 399.928 110.643 399.825C110.258 400.211 109.977 400.211 109.695 399.825C109.217 399.919 108.747 400.108 108.269 400.211C107.508 400.305 106.748 400.494 106.082 400.597C104.656 401.171 103.324 401.265 101.898 401.077H99.139C97.431 401.171 96.1926 401.934 95.6204 403.272C95.4326 404.224 95.4326 405.09 95.6204 406.041C95.4326 406.899 95.4326 407.756 95.6204 408.622C96.0048 409.771 96.0987 410.723 96.0987 411.675C96.577 411.864 96.577 412.155 96.0987 412.438V412.052C95.9108 412.91 96.0048 413.767 96.483 414.728C97.1491 415.302 97.337 415.877 97.0552 416.64C96.9613 417.403 96.7734 418.166 96.483 418.929C96.2951 419.315 96.0048 419.598 95.629 419.787C95.4411 419.975 95.2447 419.975 95.1507 419.787C94.6725 419.881 94.2028 419.692 93.8185 419.401C92.2983 419.015 90.8721 418.355 89.7277 417.394C89.6337 416.82 89.2494 416.245 88.7797 415.774C88.6858 415.294 88.3954 414.822 87.9257 414.342C88.0196 413.098 88.5918 412.052 89.7362 411.195C90.1205 410.149 90.2145 409 90.2145 407.756C89.9326 406.324 89.9326 404.798 90.2145 403.272C89.8302 403.272 89.4544 403.461 89.1726 403.658H87.9342C87.1741 403.469 86.3201 403.272 85.56 403.272C85.1757 403.272 84.8939 403.178 84.706 402.886C84.4242 402.792 84.1338 402.792 83.7581 402.886C83.2798 402.886 82.904 402.98 82.5197 403.272C82.1354 402.697 81.7596 402.603 81.0935 402.886C80.4274 402.886 80.2395 403.169 80.6152 403.649C80.2309 403.461 79.9491 403.169 79.5733 402.886C79.0951 402.603 78.5314 402.312 77.8653 402.123C77.387 401.934 76.9173 401.643 76.4391 401.454C76.2512 401.068 76.4391 400.785 77.0113 400.597C75.679 400.408 75.4911 399.833 76.4391 398.976C77.2931 398.307 78.2496 397.638 79.2915 397.158C80.5298 396.875 81.7596 396.489 82.998 396.009C83.4762 395.726 84.1424 395.435 84.706 395.246C84.8 394.963 85.0903 394.86 85.56 394.86C85.6853 394.734 85.6853 394.734 85.56 394.86C85.56 394.672 85.7479 394.577 86.1322 394.474C86.1322 394.191 86.4141 394.088 87.0802 394.088C87.5585 393.994 87.8403 393.703 87.9342 393.325C88.4125 392.656 88.7883 391.988 89.1726 391.319C89.8387 391.319 90.0266 391.13 89.7448 390.556C89.5569 389.51 89.5569 388.549 89.7448 387.597V386.071C88.7968 385.788 87.9342 386.071 87.0802 386.74C86.1322 387.409 85.3722 388.078 84.706 388.746C83.9459 389.227 83.1859 389.698 82.5197 390.273H82.998C82.2379 390.753 81.4778 391.13 80.6238 391.319C81.9561 390.367 83.1944 389.218 84.2363 387.88C83.758 387.975 83.4762 388.266 83.2883 388.738C82.8101 388.832 82.3404 388.927 81.9561 389.124H82.5283V389.51C81.9561 389.698 81.6742 389.895 81.4863 390.273H80.6323C81.1106 390.461 81.1106 390.556 80.6323 390.556C81.0166 391.036 80.8202 391.036 80.0601 390.556C80.9141 390.273 81.5803 389.793 81.9646 389.124C81.3924 389.407 81.2045 389.312 81.4863 388.738C81.2045 388.738 81.102 388.832 81.102 389.124V388.738C80.6238 389.021 80.5298 389.218 80.6238 389.501C79.4794 389.69 78.5314 390.358 77.8653 391.319C77.6774 391.602 77.5835 391.893 77.481 392.176C77.1991 391.893 77.0967 391.893 77.0027 392.176C76.2426 392.751 75.3886 393.325 74.7225 394.088C74.1503 394.474 73.4841 394.852 72.818 395.237C72.3397 395.426 71.87 395.623 71.4857 396.001C71.2039 396.481 70.7256 396.764 70.2474 396.858C69.6752 396.858 69.2994 396.952 69.2055 397.141C68.1636 397.424 67.301 397.424 66.5409 397.141C66.7288 397.047 67.0192 396.952 67.3949 396.858C68.0611 396.764 68.6333 396.575 69.2055 396.472C68.6333 396.284 68.0611 396.284 67.3949 396.472C67.0106 396.189 66.7288 396.189 66.5409 396.472C66.7288 396.661 67.0192 396.661 67.3949 396.472C66.6349 396.567 66.0627 396.755 65.5844 397.141C64.6364 397.424 63.6799 397.81 62.8259 398.29C61.3997 398.573 59.8795 398.676 58.2654 398.573C57.2235 398.762 56.267 398.479 55.5069 397.904C54.465 397.518 54.1747 397.141 54.6529 396.472C54.1747 395.992 54.1747 395.615 54.6529 395.229C54.2686 394.749 54.0807 394.277 54.1747 393.703C54.2686 393.222 54.4565 392.845 54.6529 392.459C54.2686 392.176 54.1747 391.79 54.1747 391.31V390.924H54.6529C55.1312 389.878 55.8912 388.824 56.9332 387.872C57.7872 387.486 58.4533 386.92 59.2134 386.44C59.7856 387.109 60.5457 387.392 61.3997 387.203C61.1179 386.817 61.3058 386.629 61.878 386.723C62.638 386.629 63.4921 386.534 64.2521 386.44C65.4905 386.534 66.4384 386.157 67.3864 385.197C69.4788 383.379 71.4772 381.475 73.3731 379.469C75.3715 377.462 77.4639 375.456 79.5562 373.552C80.7006 372.309 81.8365 371.074 82.9809 369.925C84.0228 369.068 84.8854 368.013 85.5515 366.778C84.0313 367.061 82.6051 367.061 81.085 366.778C79.5648 366.778 77.9507 366.59 76.422 366.204C74.8079 365.535 73.1852 364.96 71.4772 364.292C70.6232 363.906 69.7691 363.434 68.7187 363.048C67.9586 362.765 67.1985 362.379 66.5324 361.899C65.388 361.042 65.388 360.081 66.5324 359.13C67.0106 358.461 67.5743 357.886 68.3429 357.312C68.8212 356.454 69.4873 355.974 70.5292 356.069C71.7675 356.351 72.9973 356.351 74.2357 356.069C75.9437 355.974 77.6603 355.786 79.2744 355.4C81.085 354.92 82.8869 354.448 84.6975 353.873C85.6454 353.393 86.508 353.016 87.362 352.63C87.9342 351.961 88.1221 351.198 87.9342 350.529C88.2161 348.334 88.2161 346.328 87.9342 344.227C87.9342 342.889 88.0282 341.646 88.4125 340.411C88.5064 339.742 88.3185 339.074 87.9342 338.499C88.1221 337.925 87.9342 337.547 87.362 337.35C87.1741 337.161 87.1741 336.87 87.362 336.587C87.1741 336.304 86.9777 336.107 86.602 336.107C86.3201 335.918 86.3201 335.532 86.602 335.061C86.2176 334.778 85.9358 334.486 85.56 334.298C85.8419 333.912 86.1322 333.723 86.602 333.534C87.6439 332.866 88.2161 331.914 88.4125 330.765C88.8907 330.859 89.0786 330.765 89.1726 330.482C89.6508 330.096 90.1205 329.813 90.6927 329.624C91.171 329.144 91.7346 328.956 92.5033 328.861C92.9815 328.767 93.6477 328.767 94.3138 328.861C94.9799 328.381 95.74 328.287 96.5001 328.475C97.2602 328.664 97.8324 329.05 98.2081 329.624H98.1825ZM69.7521 398.264C70.2303 398.076 70.794 397.981 71.4601 397.878C70.8879 398.359 70.3157 398.453 69.7521 398.264ZM70.9904 397.878C71.4686 397.304 72.0323 397.115 72.8009 397.115C72.3227 397.501 71.6565 397.69 70.9904 397.878ZM73.8428 395.966C73.7489 396.446 73.3646 396.729 72.8009 396.824C73.3731 396.344 73.9453 395.966 74.7054 395.58H75.1836C74.7993 395.863 74.3296 396.061 73.8514 395.966H73.8428ZM76.4049 390.247C76.7892 390.53 76.5928 390.633 75.9266 390.53C76.1145 390.436 76.311 390.341 76.4049 390.247C76.217 390.436 75.9266 390.53 75.5509 390.53H75.9352C75.4569 391.199 74.8933 391.773 74.2271 392.151H74.7054C74.3211 392.339 74.0393 392.536 73.8514 392.819C74.7993 392.536 75.6619 392.056 76.422 391.293C76.2341 390.907 76.422 390.624 76.9942 390.53C77.4724 390.144 77.8482 389.767 78.3265 389.484C77.6603 389.673 76.9942 389.87 76.422 390.247H76.4049ZM99.6087 385.179C99.4209 385.368 99.2244 385.368 99.1305 385.179C98.8487 385.66 98.4643 385.66 98.1825 385.179C97.9946 385.565 97.9007 385.565 97.7982 385.179C97.7043 385.368 97.6103 385.462 97.5164 385.66C97.2346 385.848 96.8502 385.848 96.4745 385.66H96.0902C96.9442 385.943 97.7982 386.045 98.7547 386.045H97.0467C96.5684 386.045 96.0987 386.234 95.6204 386.431V388.721C95.4326 388.241 95.4326 387.769 95.6204 387.194C95.2361 387.675 95.1422 388.146 95.1422 388.721V390.247C95.424 390.822 95.9023 391.104 96.4745 390.916C97.2346 390.916 97.8067 390.633 98.1825 390.247C99.7027 389.484 101.223 389.39 102.845 389.767C104.084 390.53 105.314 391.387 106.552 392.151C107.218 392.339 107.884 392.725 108.26 393.3C108.644 393.583 108.926 393.968 109.208 394.449C110.728 394.26 112.248 393.874 113.768 393.3C115.007 392.725 116.433 392.348 117.859 392.151C119.379 391.576 120.9 391.002 122.522 390.53C120.908 390.247 119.285 389.767 117.859 389.098C117.193 389.004 116.527 388.815 115.955 388.712C115.57 388.429 115.195 388.138 114.716 387.855C114.05 387.666 113.478 387.469 112.812 387.186C112.146 387.092 111.574 386.903 111.001 386.706C110.617 386.8 110.335 386.706 110.147 386.423C110.335 386.611 110.626 386.706 111.001 386.706C110.907 386.611 110.72 386.517 110.617 386.423H109.669C109.387 386.234 109.003 386.14 108.721 386.037V386.423C108.439 385.943 108.149 385.943 107.773 386.423C107.773 386.14 107.585 386.037 107.295 386.037L106.911 385.651C107.192 385.84 107.192 385.934 106.911 386.037C106.338 385.848 106.057 385.754 106.057 385.651C105.015 385.651 104.152 385.557 103.204 385.171H99.5917L99.6087 385.179ZM96.4659 378.688C96.8502 378.688 97.226 378.783 97.5078 378.971C97.6018 379.16 97.6957 379.254 97.7897 379.452C97.6957 379.64 97.6018 379.735 97.5078 379.837H101.505L101.889 379.452C101.317 379.64 100.847 379.546 100.557 378.971C100.369 379.254 99.9845 379.254 99.6087 378.971C99.2244 378.783 98.7547 378.688 98.1825 378.688C97.7043 378.5 97.1406 378.5 96.4745 378.688H96.4659ZM97.5164 380.601H98.1825C98.7547 380.789 99.2244 380.789 99.6087 380.601C100.651 380.986 101.701 381.175 102.845 381.081C101.701 381.269 100.659 381.175 99.6087 380.601C100.557 380.412 101.513 380.412 102.367 380.601H101.035C101.419 380.695 101.607 380.506 101.513 380.215C100.753 380.309 99.993 380.12 99.139 379.829C98.0971 379.64 97.6189 379.923 97.5249 380.592L97.5164 380.601ZM97.5164 380.601H99.6087C99.2244 380.412 98.7547 380.412 98.1825 380.601C97.9007 380.215 97.7043 380.215 97.5164 380.601ZM97.7982 381.458H99.6087C99.7027 381.647 99.7966 381.647 99.993 381.458H98.7547C99.0365 381.269 99.3269 381.269 99.6087 381.458C99.2244 381.364 98.9426 381.269 98.7547 381.072C98.2765 380.978 97.9946 381.166 97.8067 381.458H97.7982ZM99.1305 381.081C99.8906 381.175 100.463 381.269 101.035 381.467C100.753 381.467 100.557 381.278 100.557 381.081H99.1305ZM104.647 384.802C105.314 384.991 105.98 384.991 106.552 384.802H104.647ZM105.502 385.179C106.074 385.274 106.543 385.462 106.928 385.66H107.312C106.834 385.274 106.27 385.085 105.502 385.179ZM114.725 355.4C113.581 355.88 112.82 356.446 112.351 357.312H111.873V357.698C112.914 357.312 113.871 356.746 114.725 356.077C115.007 355.983 115.391 355.888 115.579 355.794C115.861 355.605 115.963 355.408 115.963 355.031C115.681 355.605 115.203 355.7 114.725 355.417V355.4Z" fill="url(#paint1_linear_2011_3)"/>
<path d="M86.4824 478.337C85.6284 479.194 84.9622 480.051 84.2961 481.106C83.63 482.058 82.9638 483.018 82.3916 483.97C81.9134 484.45 81.5376 485.016 81.0594 485.591C80.4872 486.071 80.1114 486.834 79.821 487.597C79.3428 487.983 79.0609 488.455 79.0609 489.123C77.4468 491.224 76.1146 493.325 74.9702 495.52C72.3056 500.099 69.9314 504.969 67.933 509.934C68.3173 509.934 68.4113 509.84 68.4113 509.548C68.1294 510.028 67.933 510.594 67.933 511.169C67.7451 511.452 67.5487 511.838 67.5487 512.318C67.3608 512.318 67.2669 512.412 67.1644 512.798C66.7801 513.467 66.6861 514.136 66.7801 514.804C66.2079 516.236 66.02 517.668 66.3958 519.195C66.3958 519.675 66.4897 520.052 66.7801 520.438C67.0619 521.012 67.1644 521.587 67.1644 522.35C67.6426 523.688 67.8305 525.025 67.5487 526.363C67.8305 527.606 67.6426 528.652 67.1644 529.613C66.1225 530.762 64.8841 531.233 63.4579 531.233C62.8857 530.848 62.1256 530.753 61.3656 530.753C60.6055 530.565 59.9393 530.179 59.3671 529.604C58.1288 528.558 56.7965 527.692 55.3703 527.221C55.3703 526.646 55.4643 525.883 55.5582 525.214C55.4643 525.025 55.4643 524.931 55.5582 524.828V524.065C55.7461 523.782 55.84 523.491 56.0364 523.208C56.2243 522.633 56.3183 522.059 56.4208 521.587C56.6086 520.155 56.7026 518.629 56.899 517.197C57.1808 512.901 57.3773 508.605 57.6591 504.309C57.753 502.02 58.1373 499.73 59.0853 497.629C57.9409 497.149 56.899 496.583 56.045 495.915C54.8067 494.963 53.5769 494.002 52.3385 493.239C51.3906 492.287 51.2966 491.138 51.9542 489.895C52.7143 488.849 53.4744 487.794 54.4223 486.748C56.4208 484.553 58.5131 482.264 60.503 479.871C60.503 480.54 60.7848 480.823 61.357 480.729C61.451 480.249 61.8353 479.777 62.305 479.486C62.8772 479.1 63.5433 478.817 64.3034 478.722C64.7817 479.108 65.2514 479.203 65.8236 479.108C66.8655 479.494 67.822 479.871 68.7699 480.352C69.0518 480.832 69.4361 481.209 70.0083 481.595C70.3926 481.501 70.6744 481.595 70.8623 481.878C70.478 482.264 70.478 482.358 70.8623 482.358C70.8623 482.169 71.0502 482.169 71.2466 482.358C71.4345 482.744 71.4345 483.216 71.2466 483.601C71.5284 483.696 71.8188 483.884 72.0067 483.987C71.7249 484.562 71.9128 484.939 72.485 485.136V486.757C72.1006 487.237 72.1006 487.614 72.485 488C72.485 488.283 72.2971 488.283 72.0067 488C71.6224 488.283 71.3406 488.669 71.2466 489.149C70.9648 490.007 70.5805 490.864 70.0083 491.627C69.3421 492.296 68.5821 492.965 67.9159 493.539C67.728 493.728 67.6341 493.925 67.5316 494.208C67.3437 494.491 67.3437 494.397 67.5316 493.822C67.2498 494.105 66.9594 494.397 66.7715 494.68C66.3872 494.774 66.1054 494.868 65.8236 495.066L64.9695 495.923C64.2095 496.592 63.5433 497.355 63.0651 498.213C61.7328 500.408 60.8788 502.697 60.4945 505.184V508.331C60.1101 509.574 59.7344 510.809 59.3501 511.958C59.1622 514.058 59.2561 516.065 59.7344 517.969C61.8267 515.105 63.5348 512.052 64.961 508.802C66.0029 506.89 67.0534 504.986 67.9074 503.074C68.4796 502.217 69.0518 501.257 69.5215 500.305C70.2816 499.73 70.6659 499.061 70.8538 498.204C71.1356 498.393 71.2381 498.298 71.2381 497.818C71.6224 497.629 71.9042 497.244 71.9982 496.772C72.8522 495.623 73.7062 494.577 74.5688 493.522C75.141 492.759 75.6107 491.996 76.0889 491.138C76.7551 489.989 77.5152 488.943 78.1813 487.992C79.6075 485.985 81.0337 484.176 82.6478 482.358C83.4079 481.312 84.2619 480.163 85.2184 479.108C85.9785 478.251 86.7386 477.488 87.4987 476.725C87.1144 477.205 86.7386 477.771 86.4568 478.345L86.4824 478.337ZM77.9336 453.427C79.078 454.002 80.1199 454.859 81.0679 455.811C82.1098 456.857 82.9724 458.1 83.4421 459.438C84.484 460.681 85.2526 461.916 85.6284 463.451V465.166C85.5344 465.74 85.1501 466.212 84.6804 466.598C84.1082 467.936 83.3481 468.982 82.4002 469.942C81.3583 470.422 80.2139 470.516 79.0695 470.328C78.4973 470.139 77.9251 470.045 77.3614 469.942C76.8832 470.131 76.6013 470.036 76.5074 469.556C75.8413 469.556 75.2691 469.273 74.9872 468.699C73.9453 468.699 72.8949 468.416 72.0409 467.841C71.3747 467.747 70.7086 467.558 70.0424 467.455C69.0005 466.881 67.8561 466.881 66.8057 467.455C65.7638 466.787 64.5254 466.504 63.0992 466.598C62.4331 464.78 62.4331 462.971 63.0992 461.153C63.3811 460.107 63.2871 459.147 62.7149 458.195C62.1427 457.243 62.4331 456.48 63.475 455.811C64.7133 455.048 65.8492 454.096 66.8057 453.041C67.7537 453.041 68.138 452.656 67.9501 451.892C68.5223 451.507 68.992 451.224 69.5642 451.035C70.2303 450.649 70.9904 450.366 71.6565 450.177C72.5106 450.366 73.2707 450.658 74.1247 451.035C75.363 451.704 76.6953 452.561 77.9251 453.419L77.9336 453.427ZM68.4198 509.934C68.4198 509.454 68.6077 508.982 69.0859 508.785C69.1799 507.928 69.4702 507.259 70.0339 506.779C69.6496 507.062 69.4617 507.447 69.5556 507.928C69.0774 508.502 68.7016 509.171 68.4113 509.934H68.4198ZM130.986 447.031C132.027 447.699 132.984 448.368 133.838 449.037C134.41 449.423 134.88 449.894 135.452 450.186C136.118 450.666 136.69 451.232 137.16 451.901C137.544 452.664 138.108 453.427 138.68 454.19C138.962 454.765 139.253 455.339 139.534 455.811C138.962 456.48 138.868 457.054 139.15 457.817C138.006 457.817 137.724 458.203 138.39 459.061C138.108 459.249 137.818 459.344 137.442 459.447L135.444 460.304C133.923 460.69 132.403 461.067 130.977 461.453L127.271 462.602C126.032 463.554 124.606 464.128 123.18 464.317C122.326 465.08 121.369 465.655 120.327 465.843C120.139 466.701 119.755 467.37 119.089 467.85C118.423 468.613 118.141 469.565 118.329 470.619C117.663 471.288 117.663 471.863 118.329 472.334C118.807 472.051 119.277 471.76 119.849 471.477C120.609 470.808 121.463 470.234 122.42 469.951C122.898 469.951 123.368 469.856 123.564 469.565C123.948 468.99 124.512 468.802 125.178 469.179C128.219 470.225 131.071 471.76 133.829 473.569C136.11 474.907 138.014 476.622 139.534 478.722C140.388 479.769 140.961 481.012 141.242 482.349V484.356C141.148 484.742 141.242 484.93 141.627 485.119C141.721 485.505 141.627 485.599 141.242 485.599C141.43 485.788 141.627 485.985 141.627 486.268C141.242 486.843 141.148 487.314 141.242 487.983C141.242 489.029 141.148 490.084 140.764 491.13V494.182C141.242 494.182 141.242 494.371 140.764 494.663V496.283C140.67 497.998 140.482 499.722 140.38 501.531C140.286 502.388 140.098 503.246 139.996 504.301C139.996 504.686 140.089 504.969 140.38 505.158C140.474 507.07 140.662 509.171 140.764 511.169V513.175C140.952 513.938 140.952 514.796 140.764 515.559V526.732C141.148 527.684 141.242 528.644 141.242 529.596C141.336 529.982 141.242 530.265 140.764 530.359V531.602C139.432 533.514 137.63 534.946 135.444 535.992C134.871 536.087 134.299 536.378 133.829 536.85C133.069 536.85 132.497 537.133 132.215 537.613C131.934 538.47 131.361 539.139 130.695 539.619C130.029 539.525 129.457 539.336 128.885 539.234C128.5 539.619 128.125 539.619 127.74 539.234C127.356 539.328 127.262 539.139 127.262 538.848H126.502C126.024 538.565 125.742 538.179 125.648 537.604C124.41 536.747 123.18 535.889 121.941 535.221C120.9 534.458 119.755 533.694 118.705 532.837C117.185 532.357 115.758 531.688 114.52 530.736C113.572 529.973 112.522 529.69 111.189 529.973C111.001 529.784 110.711 529.784 110.429 529.973H108.431C106.057 530.359 103.87 531.311 101.872 532.837C101.3 533.223 100.728 533.223 100.258 532.837C99.6856 533.12 99.1134 533.411 98.6437 533.6C97.7897 534.552 96.8332 535.032 95.7913 535.221C95.0312 535.126 94.365 534.835 93.7929 534.363C92.3666 534.552 91.3247 533.977 90.5561 532.837C89.796 531.791 88.848 531.216 87.5158 531.216C86.4739 531.791 85.3295 531.791 84.279 531.216C84.1851 531.602 83.8947 531.697 83.425 531.602C82.7589 531.697 82.0927 531.988 81.5205 532.46C80.2822 533.223 79.0524 533.986 77.908 534.749C76.5757 535.229 75.2434 535.992 74.1076 536.85C73.0657 537.707 71.9213 538.47 70.8708 539.234C75.6278 535.221 80.4701 531.499 85.6113 528.061C84.9452 526.629 83.9033 525.583 82.6649 524.811C82.571 524.425 82.477 524.048 82.3831 523.568C81.8109 522.993 81.2387 522.522 80.5726 521.947C80.0943 520.901 79.7185 519.846 79.3342 518.697C79.0524 517.746 79.0524 516.88 79.3342 516.022C79.2403 516.305 79.2403 516.691 79.3342 517.171C79.5221 517.557 79.7185 517.36 79.8125 516.691V514.779C79.8125 513.921 79.9064 513.064 80.1968 512.301C79.915 512.584 79.8125 512.97 79.8125 513.544C79.6246 512.97 79.6246 512.498 79.8125 511.923C80.0004 511.255 80.0943 510.68 80.1968 509.917C80.4786 508.965 80.675 508.005 80.5811 507.053V507.439C80.769 506.487 80.9654 505.432 81.0594 504.292V502.286C81.3412 499.61 81.7255 496.841 82.0073 494.174C82.0073 493.411 82.1952 492.553 82.3916 491.593C82.2977 491.018 82.3916 490.444 82.6735 489.878C82.6735 489.492 82.8613 489.115 83.1517 488.729C83.63 488.729 84.0997 488.446 84.2961 487.966C84.5779 487.683 84.8683 487.391 85.2441 487.108C85.7223 486.825 85.9102 486.44 86.0981 485.865C88.1905 485.771 89.8046 484.622 90.9489 482.332C91.4272 480.42 91.9909 478.517 92.5631 476.699C93.1353 475.455 93.7074 474.315 94.1772 473.072C95.2191 471.828 96.3635 470.971 97.7897 470.302C98.5498 468.87 99.6002 468.201 101.026 468.296C101.505 468.87 101.974 469.153 102.734 469.153C103.119 468.484 103.682 467.91 104.349 467.438C103.776 467.533 103.204 467.344 102.734 467.052L101.026 466.195C99.6942 465.912 98.5583 465.432 97.4139 464.669C96.2695 464.386 95.0397 464.188 93.8014 464.283C93.3231 463.803 92.657 463.425 91.9909 463.039C91.4187 462.945 90.7525 462.654 90.1803 462.182C89.796 461.899 89.3263 461.702 88.8481 461.796C88.088 461.41 87.994 460.844 88.3698 460.27C87.5158 459.601 87.0375 458.838 86.8496 457.792C87.1315 457.217 87.6097 456.746 87.994 456.265C88.6602 455.785 89.2324 455.982 89.7021 456.651C90.65 457.414 91.7005 457.8 92.9388 457.8C97.6957 459.712 102.35 459.901 107.107 458.186C112.334 456.274 117.279 453.796 121.941 450.546C121.463 449.877 120.703 449.689 119.849 449.877H117.091C115.57 449.877 114.238 450.066 113 450.546C112.24 451.026 111.292 451.404 110.429 451.884C109.285 452.553 108.619 452.364 108.431 451.404C109.857 450.452 111.471 449.877 113.376 449.877C114.136 449.491 114.896 449.209 115.75 449.02C116.792 449.02 117.748 448.926 118.696 448.54C119.738 448.445 120.789 448.257 121.933 447.777C122.693 447.965 123.359 447.965 123.931 447.777C124.316 447.682 124.597 447.588 124.785 447.391C125.358 447.296 125.93 447.202 126.493 447.005C126.775 446.722 127.347 446.525 128.108 446.525C129.055 446.713 130.012 446.808 130.96 447.005L130.986 447.031ZM80.2139 516.048C80.4957 515.379 80.6921 514.71 80.5982 513.947C80.3164 514.616 80.2139 515.285 80.2139 516.048ZM90.1974 485.119C89.3434 486.551 88.5833 487.983 88.0111 489.604C87.8232 490.272 87.7293 490.941 87.5329 491.61C87.6268 492.562 87.5329 493.428 87.1485 494.191C86.5763 495.623 86.2006 497.149 86.1066 498.676C85.6284 499.156 85.6284 499.533 86.1066 499.919C85.8248 500.399 85.6284 500.965 85.6284 501.54C85.5344 501.059 85.7223 500.776 86.1066 500.776L85.2526 503.066C84.8683 503.923 84.5865 504.686 84.3046 505.544C83.7324 507.164 83.2627 508.982 83.1603 510.792C82.2123 512.798 82.4941 514.513 83.9203 516.039C84.3046 516.802 84.8683 517.471 85.6284 517.951C86.3885 518.432 87.0546 518.997 87.5329 519.572C88.6772 520.241 89.7192 521.098 90.5732 521.956C91.2393 522.719 91.9055 522.53 92.5716 521.57L96.1841 517.943C97.0381 517.66 97.5164 517.085 97.7982 516.322C96.7563 516.322 95.8937 516.322 95.0397 516.039C93.9978 516.322 93.5196 515.851 93.4256 514.796C93.1438 514.607 92.8534 514.607 92.5716 514.796C92.0933 514.985 92.0933 515.079 92.5716 515.182C91.9994 515.276 91.4272 515.087 90.9575 514.796C90.4792 514.221 90.6757 513.647 91.3418 513.175C92.2898 512.026 93.2463 510.98 94.1942 509.926C95.2361 508.974 96.1927 507.919 96.9527 506.779C97.5249 505.921 98.0971 505.064 98.6608 504.301C98.4729 503.632 98.4729 502.963 98.6608 502.294C98.2765 502.483 97.9946 502.68 97.8068 503.057C97.3285 503.34 96.9527 503.632 96.5684 503.915C96.0902 504.198 95.5265 504.395 95.0483 504.772C94.4761 504.961 94.0064 504.961 93.4342 504.772C92.3923 505.158 91.5297 504.772 90.966 503.435C90.5817 502.766 90.112 502.097 89.7277 501.522C89.4459 500.948 89.2494 500.373 89.3434 499.902C89.0616 499.619 89.2494 499.327 89.7277 499.044C89.5398 498.47 89.8216 497.998 90.5817 497.801C91.3418 496.943 92.1958 496.086 92.9559 495.031C92.4777 493.882 92.0079 492.836 91.3418 491.979C90.9575 490.452 90.5817 489.021 90.1974 487.589V485.111V485.119ZM102.743 521.201C101.795 521.201 100.932 521.484 100.275 521.964C99.0366 522.539 97.7043 523.01 96.5684 523.585C96.1841 524.065 95.6205 524.348 95.0483 524.442C94.57 524.828 94.0064 525.111 93.4342 525.205C93.5281 525.686 93.716 526.252 93.8185 526.732C94.2028 526.826 94.6725 526.732 95.0568 526.346C95.0568 526.629 95.2447 526.732 95.4411 526.732H101.906C103.332 526.543 104.665 526.252 105.997 525.969C105.715 525.969 105.613 526.157 105.613 526.355C106.561 526.543 107.517 526.543 108.465 526.355C108.081 526.072 107.705 525.78 107.133 525.591L104.852 523.585C104.468 523.199 104.092 522.916 103.52 522.727C103.136 522.342 102.666 521.87 102.282 521.578C102.854 521.673 103.426 521.861 103.99 521.964C104.938 522.822 105.894 523.585 106.842 524.442C107.03 524.537 107.321 524.631 107.508 524.828C108.081 525.017 108.55 525.308 108.935 525.591C109.601 526.354 110.361 526.74 111.215 526.74C110.173 526.072 109.123 525.308 108.081 524.451C109.319 524.168 110.549 524.451 111.693 525.214C110.267 524.64 108.841 523.782 107.508 522.736C106.654 521.493 105.604 521.115 104.374 521.587L105.228 520.73C104.374 520.249 103.52 520.447 102.76 521.21L102.743 521.201ZM109.686 483.113C109.208 483.498 108.738 483.687 108.072 483.593C106.834 484.262 105.604 484.836 104.366 485.599C103.512 486.174 103.033 487.031 103.033 487.983C102.752 488.463 102.649 488.935 102.752 489.604C102.179 489.887 101.898 490.461 101.898 491.13C104.178 490.178 106.364 489.123 108.456 487.983C109.31 487.409 109.883 486.645 110.071 485.599C110.352 485.213 110.455 484.742 110.455 484.356V482.735L109.695 483.121L109.686 483.113ZM123.948 477.865C122.907 478.251 121.856 478.534 120.712 478.722C119.952 479.203 119.098 479.391 118.337 479.108C117.577 479.108 117.099 479.203 116.629 479.494C115.297 481.501 114.819 483.507 114.921 485.599C115.494 485.694 115.869 485.788 116.254 485.882C116.92 486.457 117.492 487.126 117.868 487.983C118.252 488.369 118.722 488.746 119.106 489.132C119.49 489.518 119.772 489.895 119.866 490.281V491.138C120.251 491.233 120.532 491.138 120.72 490.753C120.242 491.799 120.438 492.759 121.198 493.522C121.583 494.191 121.583 494.86 121.198 495.529C120.532 496.292 119.678 496.678 118.73 496.772C117.492 497.158 116.45 497.158 115.4 496.772V497.158C115.212 498.684 114.255 499.636 112.547 499.927C111.215 500.691 110.079 501.548 108.935 502.311C108.456 502.886 107.893 503.169 107.124 503.46C106.552 503.846 105.886 504.129 105.22 504.318C103.981 505.364 103.033 506.607 102.273 507.945C103.512 507.945 104.647 507.559 105.604 506.796C106.176 506.701 106.646 506.513 107.124 506.316C107.406 506.033 107.696 505.741 108.072 505.552C108.832 504.978 109.592 504.601 110.446 504.309C111.112 504.695 111.685 504.695 112.154 504.309C112.154 503.64 112.342 503.357 113.008 503.452C113.768 504.12 114.435 504.789 114.913 505.552C116.245 505.835 117.381 506.41 118.337 507.079C118.525 507.559 118.816 507.936 119.098 508.322C119.285 508.708 119.482 508.991 119.858 509.18C120.9 509.943 121.378 510.894 121.19 511.949C120.336 512.618 119.576 513.287 118.722 513.956C118.15 514.907 117.483 515.67 116.629 516.339C115.681 516.528 114.921 516.914 114.255 517.583C113.401 518.346 112.445 518.92 111.215 519.203C110.933 519.298 110.455 519.486 110.071 519.589C109.592 519.872 109.029 519.872 108.456 519.589C107.696 519.495 106.936 519.683 106.364 520.069C106.364 520.352 106.646 520.549 107.124 520.738C110.071 521.784 112.829 523.216 115.4 524.845C115.784 524.751 116.066 524.657 116.254 524.459C116.826 524.365 116.92 524.271 116.638 524.074C116.92 523.979 117.21 523.791 117.492 523.593C117.492 523.113 117.774 522.925 118.346 523.208C119.772 523.302 121.011 522.822 121.959 521.587C123 520.918 124.051 520.155 124.811 519.203C125.665 518.44 126.237 517.488 126.519 516.339C126.331 514.907 126.237 513.475 126.041 511.949V496.292C125.947 493.522 126.135 490.753 126.519 487.983C126.707 485.025 126.801 482.067 126.903 479.108C125.861 478.722 124.905 478.345 123.957 477.865H123.948ZM110.446 468.699H108.448C106.74 469.367 105.117 470.131 103.503 470.988C103.315 471.846 103.315 472.609 103.503 473.569C103.597 474.238 103.887 474.907 104.357 475.481C104.263 477.393 104.263 479.297 104.357 481.115C105.783 480.352 107.116 479.4 108.448 478.345C109.208 478.156 109.874 477.676 110.446 477.102C111.112 476.716 111.779 476.339 112.154 475.858C112.436 475.095 112.633 474.332 112.539 473.569V469.179C111.966 468.604 111.3 468.416 110.446 468.699ZM113.017 527.598C113.111 528.361 113.589 528.841 114.537 528.841C113.965 528.455 113.495 528.078 113.017 527.598Z" fill="url(#paint2_linear_2011_3)"/>
</g>
<line x1="8.29363" y1="85.7064" x2="101.632" y2="179.045" stroke="#E60000" stroke-width="3"/>
<line x1="85.3683" y1="8.63172" x2="178.706" y2="101.97" stroke="#E60000" stroke-width="3"/>
<line x1="103.046" y1="9.04601" x2="9.70785" y2="102.384" stroke="#E60000" stroke-width="3"/>
<line x1="178.706" y1="84.7064" x2="85.3682" y2="178.044" stroke="#E60000" stroke-width="3"/>
<path d="M66.0792 90.448C65.2952 90.448 64.5672 90.3267 63.8952 90.084C63.2419 89.86 62.6539 89.5333 62.1312 89.104C62.0565 89.0293 61.9819 88.9453 61.9072 88.852C61.8512 88.7587 61.8045 88.656 61.7672 88.544C61.6739 88.1707 61.6085 87.6853 61.5712 87.088C61.5525 86.4907 61.5245 85.996 61.4872 85.604C61.4872 85.4733 61.5432 85.38 61.6552 85.324C61.7672 85.2493 61.8979 85.212 62.0472 85.212C62.1405 85.212 62.2339 85.24 62.3272 85.296C62.4205 85.3333 62.4765 85.408 62.4952 85.52C62.8685 86.9573 63.4192 87.984 64.1472 88.6C64.8939 89.216 65.6685 89.524 66.4712 89.524C67.1245 89.524 67.7032 89.384 68.2072 89.104C68.7112 88.824 69.1032 88.432 69.3832 87.928C69.6819 87.4053 69.8312 86.7987 69.8312 86.108C69.8312 85.3427 69.7005 84.7267 69.4392 84.26C69.1965 83.7747 68.8419 83.3547 68.3752 83C67.9085 82.6453 67.3392 82.2627 66.6672 81.852C65.9392 81.3853 65.2205 80.9187 64.5112 80.452C63.8019 79.9667 63.2139 79.416 62.7472 78.8C62.2805 78.1653 62.0472 77.4 62.0472 76.504C62.0472 75.552 62.2619 74.6933 62.6912 73.928C63.1205 73.1627 63.7645 72.556 64.6232 72.108C65.5005 71.6413 66.5925 71.408 67.8992 71.408C68.5712 71.408 69.1499 71.4827 69.6352 71.632C70.1392 71.7627 70.5405 71.8933 70.8392 72.024C70.9885 72.08 71.1099 72.1733 71.2032 72.304C71.3152 72.4347 71.3899 72.5747 71.4272 72.724C71.5392 73.116 71.6605 73.564 71.7912 74.068C71.9219 74.572 71.9872 75.048 71.9872 75.496C71.9872 75.7013 71.8472 75.804 71.5672 75.804C71.3992 75.804 71.2312 75.7667 71.0632 75.692C70.9139 75.6173 70.8205 75.524 70.7832 75.412C70.3912 74.4227 69.9339 73.6667 69.4112 73.144C68.8885 72.6213 68.2259 72.36 67.4232 72.36C66.8632 72.36 66.3405 72.4627 65.8552 72.668C65.3699 72.8733 64.9685 73.2093 64.6512 73.676C64.3525 74.1427 64.2032 74.768 64.2032 75.552C64.2032 76.112 64.3805 76.6253 64.7352 77.092C65.1085 77.54 65.5939 77.9693 66.1912 78.38C66.7885 78.7907 67.4325 79.2107 68.1232 79.64C68.7765 80.032 69.4112 80.4613 70.0272 80.928C70.6619 81.3947 71.1752 81.9547 71.5672 82.608C71.9779 83.2427 72.1832 84.0267 72.1832 84.96C72.1832 86.0613 71.9312 87.032 71.4272 87.872C70.9232 88.6933 70.2139 89.328 69.2992 89.776C68.3845 90.224 67.3112 90.448 66.0792 90.448ZM74.1388 90.14C73.8961 90.14 73.7001 90.1027 73.5508 90.028C73.4015 89.972 73.3268 89.888 73.3268 89.776C73.3268 89.6453 73.4015 89.5333 73.5508 89.44C73.7188 89.328 73.9521 89.2253 74.2508 89.132C74.7361 88.9827 75.1841 88.7587 75.5948 88.46C76.0055 88.1613 76.3601 87.6667 76.6588 86.976C77.1815 85.7813 77.6575 84.6613 78.0868 83.616C78.5348 82.5707 78.9548 81.544 79.3468 80.536C79.7388 79.528 80.1401 78.4827 80.5508 77.4C80.9801 76.2987 81.4281 75.104 81.8948 73.816C81.9881 73.5547 82.0721 73.2933 82.1468 73.032C82.2215 72.7707 82.2681 72.4907 82.2868 72.192C82.4548 72.136 82.6228 72.08 82.7908 72.024C82.9588 71.968 83.1268 71.884 83.2948 71.772C83.4628 71.66 83.5748 71.492 83.6308 71.268C83.7055 71.044 83.7708 70.8947 83.8268 70.82C83.8455 70.8013 83.8641 70.792 83.8828 70.792C83.9201 70.792 83.9481 70.8107 83.9668 70.848C84.0041 70.9227 84.0321 71.016 84.0508 71.128C84.0881 71.24 84.1255 71.352 84.1628 71.464C84.6108 72.8827 85.0775 74.3293 85.5628 75.804C86.0481 77.2787 86.5148 78.7067 86.9628 80.088C87.4295 81.4507 87.8495 82.6827 88.2228 83.784C88.6148 84.8667 88.9228 85.744 89.1468 86.416C89.4081 87.1627 89.6881 87.7227 89.9868 88.096C90.2855 88.4693 90.5935 88.7307 90.9108 88.88C91.2468 89.0293 91.6015 89.1413 91.9748 89.216C92.2921 89.272 92.5255 89.3653 92.6748 89.496C92.8241 89.608 92.8988 89.7293 92.8988 89.86C92.8988 89.972 92.8241 90.0467 92.6748 90.084C92.5255 90.1213 92.3295 90.14 92.0868 90.14C91.8255 90.14 91.4708 90.1213 91.0228 90.084C90.5748 90.0653 90.0988 90.0373 89.5948 90C89.0908 89.9813 88.6241 89.972 88.1948 89.972C87.8401 89.972 87.4761 89.972 87.1028 89.972C86.7295 89.972 86.3841 89.9813 86.0668 90C85.7495 90 85.4788 90 85.2548 90C85.0121 90 84.8161 89.972 84.6668 89.916C84.5175 89.86 84.4428 89.776 84.4428 89.664C84.4428 89.5333 84.5361 89.4213 84.7228 89.328C84.9095 89.2347 85.1241 89.1693 85.3668 89.132C85.9828 89.0387 86.4215 88.88 86.6828 88.656C86.9441 88.432 87.0748 88.1707 87.0748 87.872C87.0748 87.592 87.0095 87.1907 86.8788 86.668C86.7668 86.1267 86.6268 85.5573 86.4588 84.96C86.2908 84.344 86.1321 83.8027 85.9828 83.336C85.9455 83.1867 85.8708 83.1027 85.7588 83.084C85.6655 83.0467 85.4881 83.028 85.2268 83.028H79.9348C79.8601 83.028 79.7761 83.0653 79.6828 83.14C79.6081 83.196 79.5335 83.3267 79.4588 83.532C79.4028 83.7187 79.3095 84.0173 79.1788 84.428C79.0481 84.82 78.9175 85.24 78.7868 85.688C78.6561 86.136 78.5441 86.5373 78.4508 86.892C78.3575 87.2467 78.3108 87.4707 78.3108 87.564C78.3108 87.9747 78.4695 88.32 78.7868 88.6C79.1041 88.8613 79.4868 89.048 79.9348 89.16C80.5508 89.328 80.8588 89.5147 80.8588 89.72C80.8588 89.832 80.7841 89.916 80.6348 89.972C80.4855 90.0093 80.2895 90.028 80.0468 90.028C79.8041 90.028 79.4495 90.0187 78.9828 90C78.5161 89.9813 78.0215 89.972 77.4988 89.972C76.8828 89.972 76.2855 90 75.7068 90.056C75.1281 90.112 74.6055 90.14 74.1388 90.14ZM80.6908 82.104H85.0308C85.2921 82.104 85.4228 82.0573 85.4228 81.964C85.4228 81.9267 85.4135 81.8893 85.3948 81.852C85.3948 81.796 85.3855 81.74 85.3668 81.684L83.1828 74.852C83.0708 74.516 82.9868 74.348 82.9308 74.348C82.8935 74.348 82.8188 74.5067 82.7068 74.824L80.1588 81.684C80.1215 81.796 80.1028 81.8707 80.1028 81.908C80.1028 82.0013 80.1495 82.0573 80.2428 82.076C80.3548 82.0947 80.5041 82.104 80.6908 82.104ZM94.4495 90.14C94.2069 90.14 94.0109 90.112 93.8615 90.056C93.7122 90.0187 93.6375 89.944 93.6375 89.832C93.6375 89.608 93.9455 89.44 94.5615 89.328C95.2709 89.1973 95.7562 88.9827 96.0175 88.684C96.2975 88.3667 96.4375 87.8627 96.4375 87.172V74.572C96.4375 73.9187 96.2975 73.4613 96.0175 73.2C95.7562 72.92 95.2709 72.7147 94.5615 72.584C93.9455 72.472 93.6375 72.2853 93.6375 72.024C93.6375 71.912 93.7122 71.8373 93.8615 71.8C94.0109 71.744 94.2069 71.716 94.4495 71.716C94.9535 71.716 95.3549 71.7253 95.6535 71.744C95.9709 71.744 96.2695 71.7533 96.5495 71.772C96.8295 71.772 97.1749 71.772 97.5855 71.772C97.9402 71.772 98.2202 71.772 98.4255 71.772C98.6495 71.7533 98.8922 71.744 99.1535 71.744C99.4149 71.7253 99.7975 71.716 100.302 71.716C100.544 71.716 100.74 71.744 100.89 71.8C101.039 71.8373 101.114 71.912 101.114 72.024C101.114 72.1547 101.039 72.2667 100.89 72.36C100.74 72.4533 100.507 72.528 100.19 72.584C99.4989 72.7147 99.0695 72.948 98.9015 73.284C98.7522 73.6013 98.6775 74.0307 98.6775 74.572V79.808C98.6775 79.8827 98.6775 79.9947 98.6775 80.144C98.6962 80.2747 98.7429 80.34 98.8175 80.34C98.9109 80.34 99.0322 80.284 99.1815 80.172C99.3495 80.06 99.4802 79.948 99.5735 79.836L105.174 74.124C105.323 73.9747 105.426 73.8347 105.482 73.704C105.556 73.5547 105.594 73.4147 105.594 73.284C105.594 72.948 105.416 72.7333 105.062 72.64C104.744 72.5467 104.52 72.4627 104.39 72.388C104.259 72.3133 104.194 72.2107 104.194 72.08C104.194 71.968 104.268 71.8933 104.418 71.856C104.567 71.8 104.763 71.772 105.006 71.772H106.518C107.059 71.772 107.656 71.7627 108.31 71.744C108.963 71.7253 109.551 71.7067 110.074 71.688C110.615 71.6693 110.942 71.66 111.054 71.66C111.24 71.66 111.39 71.688 111.502 71.744C111.614 71.8 111.67 71.8747 111.67 71.968C111.67 72.0987 111.595 72.2107 111.446 72.304C111.296 72.3973 111.063 72.472 110.746 72.528C110.055 72.6587 109.336 72.864 108.59 73.144C107.843 73.424 107.143 73.8347 106.49 74.376C105.818 74.936 105.192 75.4867 104.614 76.028C104.054 76.5507 103.494 77.1013 102.934 77.68C102.374 78.24 101.767 78.884 101.114 79.612C101.002 79.724 101.048 79.892 101.254 80.116L108.03 87.34C108.44 87.788 108.767 88.1333 109.01 88.376C109.271 88.6187 109.551 88.8147 109.85 88.964C110.167 89.0947 110.587 89.216 111.11 89.328C111.427 89.4027 111.66 89.4773 111.81 89.552C111.959 89.608 112.034 89.7013 112.034 89.832C112.034 89.944 111.959 90.0187 111.81 90.056C111.66 90.112 111.464 90.14 111.222 90.14C110.68 90.14 110.214 90.1213 109.822 90.084C109.43 90.0653 109.047 90.0467 108.674 90.028C108.3 90.0093 107.852 90 107.33 90C106.975 90 106.667 90 106.406 90C106.144 90.0187 105.696 90.028 105.062 90.028C104.819 90.028 104.623 90.0093 104.474 89.972C104.324 89.916 104.25 89.832 104.25 89.72C104.25 89.5147 104.502 89.356 105.006 89.244C105.528 89.1133 105.79 88.9267 105.79 88.684C105.79 88.572 105.743 88.46 105.65 88.348C105.575 88.236 105.482 88.1147 105.37 87.984L99.4335 81.432C99.3215 81.32 99.2002 81.2173 99.0695 81.124C98.9575 81.012 98.8642 80.956 98.7895 80.956C98.7149 80.956 98.6775 81.0307 98.6775 81.18C98.6775 81.3293 98.6775 81.4507 98.6775 81.544C98.6775 82.4213 98.6869 83.2613 98.7055 84.064C98.7429 84.848 98.7802 85.8 98.8175 86.92C98.8362 87.312 98.8922 87.676 98.9855 88.012C99.0975 88.348 99.2749 88.628 99.5175 88.852C99.7789 89.076 100.143 89.2347 100.61 89.328C100.927 89.384 101.16 89.4493 101.31 89.524C101.459 89.5987 101.534 89.7013 101.534 89.832C101.534 89.944 101.459 90.0187 101.31 90.056C101.16 90.112 100.964 90.14 100.722 90.14C100.218 90.14 99.8255 90.1213 99.5455 90.084C99.2842 90.0467 99.0415 90.0187 98.8175 90C98.6122 89.9627 98.3322 89.944 97.9775 89.944C97.5295 89.944 97.1282 89.9627 96.7735 90C96.4375 90.0187 96.0922 90.0467 95.7375 90.084C95.3829 90.1213 94.9535 90.14 94.4495 90.14ZM113.676 90.14C113.433 90.14 113.237 90.112 113.088 90.056C112.939 90.0187 112.864 89.944 112.864 89.832C112.864 89.608 113.172 89.44 113.788 89.328C114.497 89.1973 115.02 88.9827 115.356 88.684C115.692 88.3853 115.86 87.9 115.86 87.228V74.628C115.86 73.956 115.72 73.48 115.44 73.2C115.179 72.92 114.693 72.7147 113.984 72.584C113.667 72.528 113.433 72.4533 113.284 72.36C113.135 72.2667 113.06 72.1547 113.06 72.024C113.06 71.912 113.135 71.8373 113.284 71.8C113.433 71.744 113.629 71.716 113.872 71.716C114.581 71.716 115.179 71.7253 115.664 71.744C116.168 71.7627 116.653 71.7813 117.12 71.8C117.605 71.8 118.175 71.8 118.828 71.8C119.444 71.8 120.088 71.8 120.76 71.8C121.451 71.7813 122.085 71.772 122.664 71.772C123.299 71.7533 123.831 71.744 124.26 71.744C124.708 71.7253 124.969 71.716 125.044 71.716C125.137 71.716 125.24 71.7347 125.352 71.772C125.464 71.8093 125.529 71.8747 125.548 71.968C125.641 72.4907 125.735 73.0133 125.828 73.536C125.921 74.04 125.968 74.4787 125.968 74.852C125.968 75.02 125.921 75.132 125.828 75.188C125.753 75.244 125.669 75.272 125.576 75.272C125.483 75.272 125.417 75.2533 125.38 75.216C125.343 75.16 125.305 75.0853 125.268 74.992C125.175 74.6747 125.081 74.376 124.988 74.096C124.895 73.7973 124.783 73.5827 124.652 73.452C124.391 73.1533 124.101 72.9573 123.784 72.864C123.467 72.752 123.131 72.696 122.776 72.696H119.108C118.959 72.696 118.753 72.78 118.492 72.948C118.231 73.116 118.1 73.3307 118.1 73.592V79.528C118.1 79.696 118.147 79.8453 118.24 79.976C118.352 80.088 118.473 80.144 118.604 80.144H121.376C121.917 80.144 122.291 80.0507 122.496 79.864C122.701 79.6587 122.869 79.2947 123 78.772C123.112 78.3613 123.28 78.156 123.504 78.156C123.579 78.156 123.653 78.1933 123.728 78.268C123.821 78.3427 123.868 78.4547 123.868 78.604C123.868 78.6787 123.859 78.8467 123.84 79.108C123.84 79.3693 123.831 79.64 123.812 79.92C123.793 80.2 123.784 80.4147 123.784 80.564C123.784 80.7507 123.784 81.0027 123.784 81.32C123.803 81.6187 123.812 81.908 123.812 82.188C123.831 82.468 123.84 82.6453 123.84 82.72C123.84 82.8507 123.821 82.9627 123.784 83.056C123.765 83.1493 123.7 83.196 123.588 83.196C123.308 83.196 123.093 82.8973 122.944 82.3C122.832 81.8707 122.683 81.5533 122.496 81.348C122.309 81.1427 122.029 81.04 121.656 81.04H119.052C118.735 81.04 118.492 81.0867 118.324 81.18C118.175 81.2547 118.1 81.4507 118.1 81.768V87.144C118.1 87.8533 118.249 88.348 118.548 88.628C118.847 88.8893 119.313 89.02 119.948 89.02H122.02C122.617 89.02 123.112 88.992 123.504 88.936C123.915 88.8613 124.269 88.7307 124.568 88.544C124.867 88.3387 125.128 88.068 125.352 87.732C125.595 87.396 125.865 86.948 126.164 86.388C126.22 86.276 126.285 86.1827 126.36 86.108C126.435 86.0333 126.519 86.0053 126.612 86.024C126.705 86.0427 126.78 86.0893 126.836 86.164C126.892 86.22 126.92 86.304 126.92 86.416C126.92 86.584 126.873 86.8827 126.78 87.312C126.687 87.7227 126.565 88.152 126.416 88.6C126.285 89.048 126.164 89.4027 126.052 89.664C125.996 89.7947 125.94 89.9067 125.884 90C125.847 90.0933 125.772 90.14 125.66 90.14C124.764 90.14 123.933 90.1307 123.168 90.112C122.403 90.0933 121.675 90.0747 120.984 90.056C120.293 90.0373 119.612 90.0187 118.94 90C118.287 89.9813 117.605 89.972 116.896 89.972C116.485 89.972 116.131 89.9813 115.832 90C115.533 90.0373 115.225 90.0653 114.908 90.084C114.591 90.1213 114.18 90.14 113.676 90.14ZM77.6968 118.42C76.3901 118.42 75.1301 118.196 73.9168 117.748C72.7034 117.3 71.6208 116.665 70.6688 115.844C69.7168 115.004 68.9608 114.005 68.4008 112.848C67.8594 111.672 67.5888 110.375 67.5888 108.956C67.5888 107.593 67.8781 106.333 68.4568 105.176C69.0354 104.019 69.8288 103.011 70.8368 102.152C71.8448 101.293 72.9928 100.631 74.2808 100.164C75.5874 99.6787 76.9594 99.436 78.3968 99.436C79.1248 99.436 79.7408 99.464 80.2448 99.52C80.7488 99.576 81.2341 99.66 81.7008 99.772C82.1861 99.8653 82.7461 99.996 83.3808 100.164C83.6608 100.239 83.8568 100.351 83.9688 100.5C84.0994 100.649 84.1741 100.855 84.1928 101.116C84.2301 101.545 84.2768 102.012 84.3328 102.516C84.3888 103.001 84.4261 103.608 84.4448 104.336C84.4634 104.467 84.3981 104.579 84.2488 104.672C84.1181 104.747 83.9688 104.765 83.8008 104.728C83.6514 104.691 83.5488 104.569 83.4928 104.364C83.3061 103.655 83.0914 103.048 82.8488 102.544C82.6061 102.021 82.2421 101.592 81.7568 101.256C81.2901 100.939 80.7208 100.705 80.0488 100.556C79.3954 100.388 78.6861 100.304 77.9208 100.304C76.8381 100.304 75.8301 100.528 74.8968 100.976C73.9821 101.405 73.1888 102.003 72.5168 102.768C71.8634 103.515 71.3501 104.364 70.9768 105.316C70.6034 106.268 70.4168 107.257 70.4168 108.284C70.4168 109.423 70.5941 110.543 70.9488 111.644C71.3221 112.745 71.8448 113.744 72.5168 114.64C73.2074 115.517 74.0194 116.227 74.9528 116.768C75.9048 117.291 76.9594 117.552 78.1168 117.552C79.4608 117.552 80.5714 117.244 81.4488 116.628C82.3261 116.012 83.0728 115.153 83.6888 114.052C83.8194 113.809 84.0061 113.688 84.2488 113.688C84.5101 113.688 84.6408 113.837 84.6408 114.136C84.6408 114.285 84.6034 114.528 84.5288 114.864C84.4541 115.181 84.3514 115.527 84.2208 115.9C84.1088 116.255 83.9968 116.572 83.8848 116.852C83.7541 117.113 83.6421 117.281 83.5488 117.356C83.4741 117.431 83.2874 117.515 82.9888 117.608C82.2981 117.888 81.4674 118.093 80.4968 118.224C79.5448 118.355 78.6114 118.42 77.6968 118.42ZM92.7317 118.392C91.6864 118.392 90.7437 118.149 89.9037 117.664C89.0637 117.179 88.3917 116.516 87.8877 115.676C87.4024 114.817 87.1597 113.847 87.1597 112.764C87.1597 111.98 87.309 111.215 87.6077 110.468C87.925 109.721 88.3637 109.04 88.9237 108.424C89.4837 107.808 90.137 107.323 90.8837 106.968C91.6304 106.595 92.433 106.408 93.2917 106.408C94.3744 106.408 95.345 106.669 96.2037 107.192C97.081 107.715 97.7717 108.405 98.2757 109.264C98.7984 110.104 99.0597 111.028 99.0597 112.036C99.0597 113.119 98.817 114.145 98.3317 115.116C97.865 116.087 97.165 116.88 96.2317 117.496C95.2984 118.093 94.1317 118.392 92.7317 118.392ZM93.3197 117.552C93.9544 117.552 94.5237 117.431 95.0277 117.188C95.5317 116.945 95.9237 116.553 96.2037 116.012C96.4277 115.583 96.577 115.06 96.6517 114.444C96.7264 113.828 96.7637 113.249 96.7637 112.708C96.7637 111.812 96.5957 110.953 96.2597 110.132C95.9424 109.292 95.485 108.611 94.8877 108.088C94.309 107.547 93.6184 107.276 92.8157 107.276C92.3117 107.276 91.8544 107.36 91.4437 107.528C91.0517 107.677 90.6877 107.967 90.3517 108.396C89.9784 108.863 89.7357 109.432 89.6237 110.104C89.5117 110.776 89.4557 111.448 89.4557 112.12C89.4557 113.035 89.6237 113.912 89.9597 114.752C90.2957 115.573 90.753 116.245 91.3317 116.768C91.9104 117.291 92.573 117.552 93.3197 117.552ZM101.275 118.084C101.107 118.084 100.967 118.056 100.855 118C100.762 117.963 100.715 117.888 100.715 117.776C100.715 117.627 100.78 117.524 100.911 117.468C101.06 117.412 101.21 117.365 101.359 117.328C101.751 117.235 102.05 117.123 102.255 116.992C102.46 116.843 102.563 116.6 102.563 116.264V110.188C102.563 109.684 102.47 109.236 102.283 108.844C102.115 108.452 101.788 108.219 101.303 108.144C101.21 108.125 101.135 108.088 101.079 108.032C101.042 107.976 101.023 107.892 101.023 107.78C101.023 107.575 101.107 107.463 101.275 107.444C102.022 107.276 102.638 107.052 103.123 106.772C103.608 106.473 103.972 106.231 104.215 106.044C104.383 105.913 104.514 105.848 104.607 105.848C104.719 105.848 104.775 105.895 104.775 105.988C104.775 106.137 104.747 106.436 104.691 106.884C104.654 107.313 104.616 107.799 104.579 108.34C104.542 108.863 104.523 109.339 104.523 109.768V116.264C104.523 116.581 104.626 116.815 104.831 116.964C105.055 117.113 105.354 117.235 105.727 117.328C105.876 117.365 106.016 117.412 106.147 117.468C106.296 117.524 106.371 117.627 106.371 117.776C106.371 117.981 106.184 118.084 105.811 118.084C105.456 118.084 105.167 118.065 104.943 118.028C104.738 118.009 104.532 117.991 104.327 117.972C104.14 117.953 103.879 117.944 103.543 117.944C103.226 117.944 102.964 117.953 102.759 117.972C102.554 117.991 102.348 118.009 102.143 118.028C101.938 118.065 101.648 118.084 101.275 118.084ZM103.515 103.552C103.123 103.552 102.787 103.421 102.507 103.16C102.246 102.88 102.115 102.544 102.115 102.152C102.115 101.741 102.246 101.405 102.507 101.144C102.787 100.864 103.123 100.724 103.515 100.724C103.926 100.724 104.262 100.864 104.523 101.144C104.803 101.405 104.943 101.741 104.943 102.152C104.943 102.544 104.803 102.88 104.523 103.16C104.262 103.421 103.926 103.552 103.515 103.552ZM108.138 118.084C107.97 118.084 107.83 118.056 107.718 118C107.625 117.963 107.578 117.888 107.578 117.776C107.578 117.627 107.634 117.533 107.746 117.496C107.858 117.44 108.017 117.384 108.222 117.328C108.502 117.253 108.773 117.151 109.034 117.02C109.296 116.889 109.426 116.637 109.426 116.264V110.244C109.426 109.74 109.37 109.311 109.258 108.956C109.165 108.601 108.876 108.359 108.39 108.228C108.316 108.191 108.25 108.153 108.194 108.116C108.138 108.06 108.11 107.976 108.11 107.864C108.11 107.659 108.194 107.547 108.362 107.528C109.016 107.36 109.548 107.155 109.958 106.912C110.369 106.669 110.77 106.399 111.162 106.1C111.218 106.063 111.265 106.035 111.302 106.016C111.358 105.979 111.414 105.96 111.47 105.96C111.508 105.96 111.536 105.979 111.554 106.016C111.592 106.053 111.61 106.1 111.61 106.156C111.61 106.287 111.582 106.557 111.526 106.968C111.489 107.36 111.47 107.687 111.47 107.948C111.47 108.023 111.47 108.097 111.47 108.172C111.489 108.228 111.508 108.265 111.526 108.284C112.18 107.668 112.87 107.201 113.598 106.884C114.345 106.567 115.157 106.408 116.034 106.408C116.949 106.408 117.705 106.781 118.302 107.528C118.9 108.275 119.198 109.199 119.198 110.3V116.264C119.198 116.637 119.329 116.889 119.59 117.02C119.852 117.132 120.122 117.235 120.402 117.328C120.552 117.384 120.692 117.449 120.822 117.524C120.972 117.58 121.046 117.683 121.046 117.832C121.046 117.944 120.981 118.009 120.85 118.028C120.72 118.065 120.598 118.084 120.486 118.084C120.113 118.084 119.824 118.065 119.618 118.028C119.413 118.009 119.217 117.991 119.03 117.972C118.844 117.953 118.582 117.944 118.246 117.944C117.929 117.944 117.668 117.953 117.462 117.972C117.257 117.991 117.042 118.009 116.818 118.028C116.613 118.065 116.324 118.084 115.95 118.084C115.857 118.084 115.736 118.065 115.586 118.028C115.456 118.009 115.39 117.944 115.39 117.832C115.39 117.683 115.456 117.58 115.586 117.524C115.736 117.449 115.885 117.384 116.034 117.328C116.314 117.235 116.585 117.132 116.846 117.02C117.108 116.889 117.238 116.637 117.238 116.264V110.384C117.238 109.563 117.005 108.928 116.538 108.48C116.09 108.013 115.484 107.771 114.718 107.752C114.046 107.752 113.458 107.864 112.954 108.088C112.45 108.293 112.002 108.555 111.61 108.872C111.536 108.947 111.48 109.049 111.442 109.18C111.405 109.292 111.386 109.404 111.386 109.516V116.264C111.386 116.637 111.517 116.889 111.778 117.02C112.04 117.151 112.31 117.253 112.59 117.328C113.02 117.44 113.234 117.589 113.234 117.776C113.234 117.888 113.188 117.963 113.094 118C113.001 118.056 112.861 118.084 112.674 118.084C112.301 118.084 112.002 118.065 111.778 118.028C111.573 118.009 111.377 117.991 111.19 117.972C111.004 117.953 110.742 117.944 110.406 117.944C110.089 117.944 109.828 117.953 109.622 117.972C109.436 117.991 109.23 118.009 109.006 118.028C108.801 118.065 108.512 118.084 108.138 118.084Z" fill="white"/>
<defs>
<linearGradient id="paint0_linear_2011_3" x1="98.2505" y1="217" x2="98.2505" y2="302.43" gradientUnits="userSpaceOnUse">
<stop stop-color="#FFFFC8"/>
<stop offset="1" stop-color="#97793D"/>
</linearGradient>
<linearGradient id="paint1_linear_2011_3" x1="97.8672" y1="328.385" x2="97.8672" y2="419.928" gradientUnits="userSpaceOnUse">
<stop stop-color="#FFFFC8"/>
<stop offset="1" stop-color="#97793D"/>
</linearGradient>
<linearGradient id="paint2_linear_2011_3" x1="96.5957" y1="446.525" x2="96.5957" y2="539.619" gradientUnits="userSpaceOnUse">
<stop stop-color="#FFFFC8"/>
<stop offset="1" stop-color="#97793D"/>
</linearGradient>
</defs>
</svg>
