<svg width="17" height="61" viewBox="0 0 17 61" fill="none" xmlns="http://www.w3.org/2000/svg">
<path d="M5.25033 0.553726C4.15904 0.961948 3.2941 1.44292 2.64337 1.99665C1.51571 2.9586 0.949853 4.15093 0.949853 5.57768C0.949853 6.34966 1.19236 7.01656 1.68546 7.58241C2.17452 8.14422 2.85758 8.42715 3.73465 8.42715C4.5228 8.42715 5.20991 8.14422 5.79597 7.57837C6.16781 7.20653 6.72154 6.42646 7.46523 5.23817L8.75457 3.16877C9.15066 2.54633 9.54676 2.04919 9.95094 1.67735C10.7148 0.99024 11.5596 0.646688 12.4851 0.646688C13.7098 0.646688 14.7283 1.05491 15.5407 1.86731C16.3531 2.67971 16.7573 3.75887 16.7573 5.10075C16.7573 5.65448 16.6199 6.31733 16.3491 7.0974C16.0783 7.87746 15.9409 8.31802 15.9409 8.43119C15.9409 8.73028 16.0136 8.93642 16.1551 9.05363C16.2966 9.17084 16.4986 9.25572 16.7573 9.32039V9.81753L11.5959 10.351V9.76903C13.152 9.37293 14.2352 8.74241 14.8536 7.86938C15.472 6.99635 15.7792 6.13545 15.7792 5.28263C15.7792 4.61978 15.5852 4.0418 15.1931 3.5487C14.8011 3.0556 14.2595 2.80905 13.5643 2.80905C12.9419 2.80905 12.4083 2.99901 11.9678 3.3749C11.5192 3.75483 11.0463 4.34089 10.5572 5.13713L9.24362 7.26715C8.42314 8.60095 7.66732 9.53864 6.98022 10.0883C6.28503 10.6259 5.46454 10.8967 4.51876 10.8967C3.24559 10.8967 2.18664 10.4157 1.33382 9.45781C0.481005 8.4999 0.0566158 7.27119 0.0566158 5.77977C0.0566158 5.028 0.198078 4.24793 0.481005 3.42744C0.76393 2.60696 0.905393 2.14215 0.905393 2.02494C0.905393 1.74201 0.816473 1.54801 0.646717 1.45101C0.472921 1.354 0.286997 1.28529 0.0889492 1.257V0.723482L5.25033 0V0.557768V0.553726Z" fill="#231815"/>
<path d="M10.7753 22.5726C10.27 23.288 9.71228 23.6437 9.10601 23.6437C8.84733 23.6437 8.60483 23.5548 8.37848 23.3729C8.15214 23.191 8.04302 22.9121 8.04302 22.5322C8.04302 22.2573 8.13598 22.0148 8.32594 21.8047C8.51591 21.5945 8.79075 21.4449 9.15451 21.3479L9.7244 21.2065C10.1448 21.1054 10.4398 20.9276 10.6136 20.673C10.7793 20.4143 10.8642 20.0707 10.8642 19.6423C10.8642 18.741 10.4721 17.9811 9.68399 17.3627C8.89583 16.7443 7.85305 16.4331 6.54755 16.4331C5.35522 16.4331 4.28414 16.7726 3.33432 17.4557C2.3845 18.1388 1.91161 19.0603 1.91161 20.2203C1.91161 21.0408 2.18241 21.7723 2.71997 22.4109C3.02714 22.7747 3.52024 23.1829 4.19118 23.6437L3.98909 23.9751C3.03927 23.5265 2.29154 23.0495 1.73781 22.5524C0.67886 21.5985 0.149384 20.4911 0.149384 19.2381C0.149384 17.9852 0.634398 16.9181 1.60443 15.9683C2.57446 15.0185 3.89209 14.5456 5.56135 14.5456C7.23061 14.5456 8.60078 15.0629 9.77695 16.0976C10.9531 17.1323 11.5432 18.4378 11.5432 20.0182C11.5432 21.0044 11.2886 21.8572 10.7834 22.5686L10.7753 22.5726Z" fill="#231815"/>
<path d="M0.759832 25.228C0.824501 25.9555 0.949796 26.4365 1.1438 26.6709C1.33781 26.9094 1.75007 27.0266 2.38059 27.0266H7.71981C8.49987 27.0266 9.05764 26.9538 9.39715 26.8083C9.73262 26.6628 9.90238 26.396 9.90238 26.008C9.90238 25.9272 9.89025 25.8262 9.87409 25.6928C9.85388 25.5634 9.82963 25.426 9.79729 25.2846H10.1893C10.347 25.7332 10.5086 26.194 10.6744 26.6668C10.8401 27.1397 10.9573 27.4671 11.03 27.645C11.1796 28.037 11.3493 28.4452 11.5393 28.8615C11.5393 28.9181 11.5191 28.9505 11.4787 28.9626C11.4383 28.9747 11.3574 28.9788 11.2281 28.9788H9.28803C9.9913 29.484 10.5369 29.973 10.933 30.4459C11.3291 30.9188 11.5231 31.4038 11.5231 31.9131C11.5231 32.3173 11.4019 32.6447 11.1634 32.8993C10.9209 33.1539 10.6218 33.2792 10.2581 33.2792C9.93471 33.2792 9.65987 33.1822 9.44161 32.9882C9.21931 32.7942 9.11019 32.5517 9.11019 32.2607C9.11019 31.9697 9.24761 31.6585 9.52649 31.3553C9.80133 31.0522 9.9428 30.8137 9.9428 30.6399C9.9428 30.3651 9.7205 30.0256 9.27186 29.6214C8.82726 29.2172 8.3665 29.0192 7.8936 29.0192H2.55439C1.87537 29.0192 1.40248 29.1768 1.13976 29.4921C0.873002 29.8073 0.751748 30.3328 0.767915 31.0684H0.375861V25.232H0.767915L0.759832 25.228Z" fill="#231815"/>
<path d="M9.85016 35.6759C10.9334 36.6743 11.479 37.9596 11.479 39.5318C11.479 41.1041 10.9657 42.3894 9.93908 43.416C8.91246 44.4426 7.54633 44.9559 5.8407 44.9559C4.26844 44.9559 2.90231 44.4588 1.74231 43.4645C0.582316 42.4702 0.0002985 41.1849 0.0002985 39.6046C0.0002985 38.0242 0.558066 36.8077 1.66956 35.7568C2.78106 34.7059 4.17952 34.1805 5.86091 34.1805C7.43316 34.1805 8.75887 34.6817 9.84612 35.68L9.85016 35.6759ZM10.1533 37.5675C9.43385 36.7753 8.19706 36.3792 6.43484 36.3792C5.02829 36.3792 3.71875 36.6985 2.50217 37.3331C1.28559 37.9717 0.67932 38.8528 0.67932 39.9845C0.67932 40.8697 1.08754 41.5527 1.89994 42.0297C2.71235 42.5066 3.77938 42.7491 5.097 42.7491C6.41463 42.7491 7.74842 42.446 8.95692 41.8356C10.1654 41.2253 10.7676 40.3442 10.7676 39.1883C10.7676 38.5618 10.5615 38.0202 10.1533 37.5635V37.5675Z" fill="#231815"/>
<path d="M0.703228 47.48C0.77598 48.2157 0.921486 48.7128 1.14783 48.9715C1.37417 49.2301 1.81068 49.3635 2.46949 49.3635H14.0371C14.5585 49.3635 14.9182 49.3191 15.1163 49.2342C15.4477 49.0766 15.6134 48.7573 15.6134 48.2763C15.6134 48.1672 15.6013 48.0459 15.577 47.9166C15.5528 47.7872 15.5164 47.6215 15.472 47.4235H15.864C16.1469 48.4905 16.5269 49.7717 16.9998 51.2713C16.9998 51.3278 16.9755 51.3602 16.927 51.3723C16.8785 51.3844 16.7775 51.3885 16.6198 51.3885H2.42099C1.73389 51.3885 1.28929 51.5057 1.0872 51.7441C0.885109 51.9826 0.75577 52.4717 0.703228 53.2113H0.371799V47.48H0.703228Z" fill="#231815"/>
<path d="M0.703228 55.0666C0.77598 55.8022 0.921486 56.2993 1.14783 56.558C1.37417 56.8167 1.81068 56.9501 2.46949 56.9501H14.0371C14.5585 56.9501 14.9182 56.9056 15.1163 56.8207C15.4477 56.6631 15.6134 56.3438 15.6134 55.8628C15.6134 55.7537 15.6013 55.6325 15.577 55.5031C15.5528 55.3738 15.5164 55.2081 15.472 55.01H15.864C16.1469 56.077 16.5269 57.3583 16.9998 58.8578C16.9998 58.9144 16.9755 58.9467 16.927 58.9588C16.8785 58.971 16.7775 58.975 16.6198 58.975H2.42099C1.73389 58.975 1.28929 59.0922 1.0872 59.3307C0.885109 59.5692 0.75577 60.0582 0.703228 60.7979H0.371799V55.0666H0.703228Z" fill="#231815"/>
</svg>
