<svg width="466" height="143" viewBox="0 0 466 143" fill="none" xmlns="http://www.w3.org/2000/svg">
<g opacity="0.6">
<path opacity="0.8" d="M25.5698 105.096C25.2957 109.767 25.7442 112.089 27.1148 114.68C29.3576 118.568 34.0176 120.781 40.1229 120.781C49.3432 120.781 55.5482 116.381 56.7443 109.119C57.3922 105.096 56.0465 101.614 53.2057 100.048C50.9131 98.7523 48.0723 97.8344 36.1357 94.7299C25.5449 92.1382 21.9813 90.5724 18.0939 87.2249C11.4902 81.5287 8.82376 72.8358 10.5432 62.3613C13.7828 42.384 30.6534 29.8037 54.2274 29.8037C69.4284 29.8037 80.1937 34.852 85.078 44.5707C87.3706 48.8361 88.168 52.7236 88.5169 60.1206L62.6752 63.0902C62.6004 54.6673 58.8625 51.1578 49.7917 51.1578C42.4902 51.1578 36.4098 55.4232 35.438 61.3894C34.8399 65.0069 36.1856 67.7335 39.6992 69.6773C41.1612 70.4512 46.4359 71.873 55.5232 73.9427C64.27 76.0214 69.6527 78.2081 73.6897 81.3397C81.3649 87.1709 84.2556 95.8637 82.3119 107.769C80.7419 117.488 76.5056 125.776 70.0514 131.607C61.9276 138.869 50.7885 142.621 36.8086 142.621C26.6413 142.621 16.9725 140.3 11.1662 136.277C5.78356 132.66 2.24496 127.071 0.949139 119.701C0.251388 116.624 0.151709 113.627 0.276308 107.688L25.5698 105.096Z" fill="white"/>
<path opacity="0.8" d="M164.223 141.11C159.189 140.462 154.928 140.192 144.636 140.192H106.958C97.8619 140.192 94.4977 140.327 89.3145 140.57C90.8844 135.387 91.9061 130.581 93.3514 121.646L104.864 50.8882C106.16 42.8433 106.683 38.3079 106.983 31.9638C111.842 32.2337 115.181 32.3417 124.501 32.3417H162.653C170.777 32.3417 174.889 32.0717 180.62 31.4238L176.683 55.6665C171.275 55.0186 167.014 54.7486 159.015 54.7486H127.915L124.825 73.808H150.667C158.566 73.808 161.457 73.6731 168.758 72.8902L164.846 96.8629C159.339 96.215 155.302 95.945 147.053 95.945H121.212L117.673 117.704H148.524C157.619 117.704 162.927 117.434 168.16 116.786L164.223 141.029V141.11Z" fill="white"/>
<path opacity="0.8" d="M220.417 32.3955C218.822 37.7138 217.875 42.1142 216.33 51.5629L205.017 121.024C203.572 129.96 203.023 134.766 202.849 140.192H176.534C178.079 135.144 179.2 129.69 180.621 121.024L191.934 51.5629C193.504 41.8442 193.878 38.0917 194.102 32.3955H220.417Z" fill="white"/>
<path opacity="0.8" d="M302.528 121.024C307.736 132.417 308.907 134.766 312.097 140.192H280.997C280 136.034 277.658 129.177 275.415 123.724L262.108 91.5984L247.904 104.692L245.237 121.024C243.942 129.069 243.468 133.335 243.069 140.192H217.701C219.495 133.578 220.517 128.799 221.788 121.024L233.102 51.5629C234.397 43.653 234.971 38.6047 235.27 32.3955H260.638C258.819 39.1446 257.897 43.41 256.551 51.5629L252.813 74.5098L281.122 46.9195C286.654 41.6013 290.467 37.2009 293.881 32.3955H326.177C323.635 34.7172 322.638 35.77 320.669 37.5788C315.785 42.0782 312.504 45.1018 310.826 46.6496L281.197 75.0227L302.528 121.024Z" fill="white"/>
<path d="M418.233 107.296H391.396C391.432 101.389 391.254 98.0606 390.791 93.7587L390.791 93.7587L390.79 93.7472L389.344 82.7327L389.287 82.2977H388.849H354.759H354.437L354.304 82.5899L349.271 93.6027C349.271 93.603 349.271 93.6033 349.27 93.6036C346.929 98.6765 345.441 102.649 344.091 107.296H317.377C319.562 103.712 321.227 100.442 325.254 92.1969C325.254 92.1966 325.254 92.1962 325.254 92.1959L363.778 14.2087C363.778 14.2083 363.778 14.2079 363.778 14.2075C366.873 8.05242 368.597 4.18441 369.8 0.5H400.19C400.414 4.09048 400.741 7.48261 401.963 14.0719C401.963 14.073 401.963 14.0741 401.963 14.0752L415.219 92.0589C416.302 98.5406 417.321 103.66 418.233 107.296ZM381.497 21.664H381.174L381.041 21.9593L363.597 60.834L363.281 61.5387H364.054H386.556H387.125L387.052 60.9745L382.018 22.0998L381.962 21.664H381.522H381.497Z" fill="#FF1010" stroke="white"/>
<path d="M465.33 32.8955C463.839 37.9654 462.904 42.4062 461.419 51.4822L461.419 51.4825L450.106 120.944L450.106 120.945C448.702 129.624 448.141 134.428 447.948 139.692H422.789C424.245 134.788 425.335 129.411 426.696 121.105L426.697 121.105L438.01 51.6433L438.01 51.6426C439.538 42.1865 439.937 38.3559 440.165 32.8955H465.33Z" fill="#FF1010" stroke="white"/>
</g>
</svg>
