<svg width="733" height="208" viewBox="0 0 733 208" fill="none" xmlns="http://www.w3.org/2000/svg">
<g opacity="0.6">
<path opacity="0.8" d="M40.0019 153.148C39.5692 159.954 40.2773 163.337 42.441 167.114C45.9815 172.779 53.338 176.004 62.9761 176.004C77.5317 176.004 87.3272 169.592 89.2155 159.01C90.2383 153.148 88.114 148.073 83.6293 145.792C80.01 143.903 75.5254 142.566 56.6818 138.042C39.9626 134.265 34.337 131.984 28.2001 127.106C17.7752 118.805 13.5659 106.138 16.2803 90.8739C21.3944 61.7628 48.0271 43.4307 85.2422 43.4307C109.239 43.4307 126.234 50.7871 133.944 64.9493C137.564 71.1649 138.822 76.8298 139.373 87.6088L98.5782 91.9361C98.4602 79.6622 92.5593 74.5481 78.2398 74.5481C66.7133 74.5481 57.1145 80.7637 55.5803 89.4577C54.6362 94.7292 56.7605 98.7025 62.3073 101.535C64.6152 102.663 72.9421 104.735 87.2878 107.751C101.096 110.78 109.593 113.966 115.966 118.53C128.083 127.027 132.646 139.694 129.578 157.043C127.099 171.205 120.412 183.282 110.223 191.779C97.398 202.362 79.8134 207.83 57.744 207.83C41.6935 207.83 26.4298 204.447 17.2638 198.585C8.76645 193.314 3.18026 185.17 1.13462 174.431C0.0331154 169.946 -0.124242 165.579 0.0724548 156.925L40.0019 153.148Z" fill="white"/>
<path opacity="0.8" d="M258.886 205.627C250.939 204.683 244.212 204.29 227.965 204.29H168.484C154.125 204.29 148.814 204.487 140.632 204.841C143.11 197.287 144.723 190.285 147.005 177.264L165.179 74.1552C167.225 62.4321 168.051 55.823 168.523 46.5783C176.194 46.9717 181.466 47.129 196.179 47.129H256.407C269.232 47.129 275.723 46.7356 284.771 45.7915L278.555 81.1183C270.019 80.1741 263.292 79.7807 250.664 79.7807H201.568L196.69 107.554H237.485C249.956 107.554 254.519 107.358 266.045 106.217L259.869 141.15C251.175 140.206 244.802 139.813 231.781 139.813H190.986L185.4 171.52H234.102C248.461 171.52 256.84 171.127 265.101 170.183L258.886 205.509V205.627Z" fill="white"/>
<path opacity="0.8" d="M347.597 47.207C345.079 54.9569 343.584 61.3692 341.145 75.138L323.285 176.358C321.004 189.38 320.138 196.382 319.863 204.289H278.32C280.759 196.933 282.53 188.986 284.772 176.358L302.632 75.138C305.11 60.9758 305.701 55.5076 306.055 47.207H347.597Z" fill="white"/>
<path opacity="0.8" d="M477.22 176.358C485.442 192.959 487.291 196.382 492.327 204.289H443.231C441.658 198.231 437.96 188.239 434.419 180.292L413.412 133.478L390.988 152.558L386.779 176.358C384.733 188.081 383.986 194.297 383.357 204.289H343.309C346.142 194.651 347.754 187.688 349.761 176.358L367.621 75.138C369.666 63.6115 370.571 56.2551 371.043 47.207H411.091C408.219 57.0419 406.764 63.2575 404.639 75.138L398.738 108.576L443.428 68.3716C452.161 60.6218 458.18 54.2094 463.57 47.207H514.553C510.541 50.5902 508.967 52.1245 505.859 54.7602C498.149 61.3168 492.969 65.7228 490.32 67.9782L443.546 109.324L477.22 176.358Z" fill="white"/>
<path d="M660.236 156.582H617.22C617.285 147.836 617.005 142.962 616.269 136.646L616.267 136.634L613.985 120.583L613.924 120.154H613.49H559.674H559.364L559.226 120.432L551.28 136.481L660.236 156.582ZM660.236 156.582C658.779 151.275 657.146 143.726 655.406 134.118L634.48 20.4762C634.479 20.475 634.479 20.4738 634.479 20.4726C632.526 10.7452 632.022 5.80642 631.669 0.5H583.2C581.303 5.90493 578.582 11.5539 573.647 20.6146C573.647 20.6154 573.646 20.6162 573.646 20.617L512.83 134.263C506.338 146.534 503.738 151.236 500.185 156.582H543.059C545.202 149.745 547.556 143.93 551.28 136.482L660.236 156.582ZM601.885 31.7976H601.572L601.436 32.079L573.898 88.7277L573.549 89.4463H574.348H609.871H610.446L610.366 88.8769L602.42 32.2282L602.359 31.7976H601.925H601.885Z" fill="#FF1010" stroke="white"/>
<path d="M734.599 47.707C732.197 55.2025 730.714 61.6601 728.342 75.0508L728.342 75.0511L710.482 176.271L710.481 176.272C708.244 189.038 707.364 196.043 707.069 203.789H666.699C669.04 196.579 670.776 188.706 672.953 176.446L672.953 176.445L690.813 75.2249L690.813 75.2242C693.246 61.3222 693.864 55.7727 694.222 47.707H734.599Z" fill="#FF1010" stroke="white"/>
</g>
</svg>
