<svg width="511" height="107" viewBox="0 0 511 107" fill="none" xmlns="http://www.w3.org/2000/svg">
<path d="M264.025 43.0517C264.024 42.4423 263.784 41.9519 263.902 41.4607L263.899 40.1233C263.778 39.6326 263.897 39.0229 264.015 38.5317C264.252 37.5492 263.892 36.8221 263.889 35.8572C264.006 34.7565 264.124 33.6558 264.377 32.4363C264.376 32.0639 264.614 31.4539 264.494 31.2172C264.117 30.8456 263.263 30.8476 262.887 30.8484C262.51 30.7308 262.032 30.6134 261.656 30.6142C261.16 30.6154 260.802 30.8532 260.306 30.8543C259.315 30.9751 258.221 30.8591 257.23 30.8614C256.854 30.8623 256.614 30.7443 256.238 30.7452L255.384 30.8656C254.888 30.7483 254.529 30.3766 254.033 30.2593C253.041 29.8891 252.423 29.0441 252.062 27.9445C252.061 27.4536 252.179 26.8438 252.178 26.2344C252.057 25.7437 252.176 25.5064 252.791 25.505C253.902 25.384 255.013 25.3814 256.107 25.4974C257.337 25.4946 258.567 25.2548 259.797 25.1165C260.908 24.9955 261.762 24.9935 262.753 24.8727C263.608 24.7523 264.975 24.9861 265.828 24.2562C266.203 24.0184 266.931 20.834 266.675 20.8346C266.911 19.7336 267.046 18.7684 267.522 17.6669C267.895 16.5656 267.756 15.347 268.01 14.2461C268.128 13.6363 268.246 13.0266 268.245 12.4172C268.244 11.9262 268.243 11.5707 268.362 11.198C268.6 10.9605 268.855 10.215 269.214 10.3496C269.59 10.3487 269.455 10.9585 269.592 11.1952C269.969 11.5668 270.328 11.6844 270.449 12.1751C270.45 12.5476 270.57 12.6658 270.827 13.0207C271.323 13.5105 271.941 14.3556 271.942 15.0835C271.945 16.0654 272.186 16.9113 272.188 17.8932C272.19 18.7396 271.816 19.8409 271.579 20.7048C271.341 21.3148 271.086 21.6879 270.728 22.1627C270.353 22.4006 270.114 22.655 270.234 23.0103C270.475 23.3822 270.731 23.5001 270.852 23.8553C270.853 24.3463 270.973 24.4645 271.468 24.5819C272.58 24.6978 273.809 24.3395 274.92 24.3369C275.535 24.217 276.031 24.2159 276.526 24.2147C277.141 24.2133 277.637 23.9752 278.251 23.8383C278.986 23.7182 280.712 23.4603 280.833 24.3234C281.073 24.5598 281.074 25.1693 281.075 25.5417C280.956 25.9144 281.077 26.2697 280.958 26.6424C280.84 27.1336 280.464 27.3715 280.721 27.7433C280.842 28.234 281.217 27.9792 281.338 28.2329C281.577 28.3508 281.219 28.8426 281.1 28.9614C280.725 29.3347 280.246 29.2003 279.871 29.3366C279.495 29.456 279.256 29.829 278.522 29.9492C278.283 30.0682 277.907 29.9506 277.668 30.0696C277.173 30.3078 276.814 30.5625 276.319 30.5637C275.823 30.5648 275.208 30.4477 274.592 30.4491C274.097 30.4503 273.482 30.6887 272.986 30.6898C272.491 30.691 271.875 30.5739 271.38 30.575C271.14 30.457 270.388 30.3403 270.029 30.4596C269.295 30.6983 269.416 31.189 269.297 31.6802C268.567 33.7472 268.196 35.8303 267.842 37.8965C267.724 38.8787 267.351 39.8445 267.233 40.8267C266.996 41.8091 266.862 42.8929 266.01 43.7582C265.395 44.2506 264.406 45.0993 264.045 44.1352C263.925 43.763 263.924 43.4075 264.043 43.0348L264.025 43.0517Z" fill="black"/>
<path d="M227.236 93.5333C226.382 93.4168 225.629 93.046 224.775 93.1665C224.159 93.1679 223.784 93.2873 223.305 93.4069C222.691 93.6453 222.314 93.2907 221.835 93.1733C221.596 93.1738 221.459 93.1741 221.22 93.0562C220.98 93.0567 220.843 92.82 220.604 92.8206C220.228 92.7029 219.989 92.822 219.493 92.8231C218.502 92.8254 217.527 92.5906 216.654 92.1017C215.919 91.6124 215.541 91.0038 215.044 90.277C214.666 89.6684 213.93 88.8237 214.304 87.9594C214.541 87.1124 216.028 87.346 216.644 87.3446C217.755 87.4606 218.866 87.5765 219.959 87.4555C220.95 87.4532 221.924 87.214 222.916 87.3302C223.411 87.3291 223.907 87.4464 224.386 87.4453C225 87.3254 225.496 87.2058 226.111 87.2044C227.102 87.2021 228.076 87.0814 229.067 87.0791C230.178 87.195 231.409 87.3107 232.52 87.3082C233.75 87.3054 235.1 87.1838 236.331 87.2994C237.561 87.2966 238.554 87.7853 239.648 87.7828C240.382 87.6626 240.998 87.7797 241.613 87.7783C242.228 87.6583 242.843 87.403 243.577 87.4013C245.047 87.3979 245.049 88.3798 244.813 89.7178C244.574 89.5998 244.198 89.8377 244.199 90.3286C244.32 90.8193 244.439 90.5651 244.935 90.564C245.431 90.6813 245.551 91.0535 245.672 91.4087C245.672 91.6457 245.794 92.5088 245.555 92.7464C245.436 92.8652 244.701 92.9854 244.564 92.9857C244.189 93.105 243.829 92.8689 243.453 92.9882C243.334 93.107 243.215 93.3612 242.959 93.4803C242.72 93.5994 242.224 93.6005 241.968 93.4826C241.592 93.3649 241.591 92.9925 241.232 92.9933C240.873 92.9941 240.737 93.4854 240.242 93.605C240.003 93.6056 239.865 93.3689 239.626 93.488C239.251 93.4888 239.012 93.9803 238.636 93.7272C238.396 93.6093 238.395 92.8813 238.018 92.6283C237.642 92.3752 237.283 92.3929 236.787 92.3941C236.548 92.3946 235.796 92.3963 235.934 93.0055C236.054 93.2422 236.43 93.2413 236.549 93.1226C236.312 93.8511 234.705 93.4992 234.209 93.3649C233.353 92.9945 232.859 93.4865 231.988 93.7425C231.254 93.9812 230.637 93.5086 229.766 93.5106C229.39 93.5114 229.031 93.7493 228.536 93.7504C228.04 93.87 227.544 93.6342 227.185 93.5165L227.236 93.5333ZM220.435 78.8036C219.7 78.5683 218.964 78.4345 218.212 78.1992C216.98 77.7111 216.243 76.4939 215.745 75.3947C215.624 75.0225 215.126 73.9402 215.501 73.5669C215.876 73.1936 217.108 73.5632 217.586 73.6806C218.697 73.678 219.928 73.7937 221.158 73.6724C222.508 73.4323 223.738 73.294 225.088 73.2909L228.898 72.9098C230.248 72.9067 231.599 73.0221 232.965 72.9004C234.195 72.6606 235.426 72.7763 236.657 72.7735C238.007 72.7704 239.357 72.8858 240.724 72.7641C241.954 72.6428 243.065 72.6402 244.295 72.6374C245.287 72.6351 246.381 73.0051 246.52 74.0882C246.641 74.5789 245.907 74.6991 246.027 75.0713C246.027 75.1898 246.267 75.3077 246.404 75.4428C246.524 75.6796 246.405 75.9338 246.405 76.0523C246.406 76.4247 246.783 76.8979 246.647 77.2706C246.528 77.5079 246.272 77.39 246.033 77.509C245.793 77.5096 245.537 77.6287 245.298 77.7477C244.684 77.9862 244.068 77.9876 243.453 77.8705C242.837 77.6349 242.223 77.8733 241.607 77.8747C241.112 77.8758 240.496 77.7587 240 77.6414C239.505 77.6425 239.264 77.1521 238.769 77.1533C238.153 77.0362 237.658 77.1558 237.163 77.394C236.548 77.7678 236.173 77.8872 235.558 78.0071C235.182 78.0079 234.823 78.0088 234.446 77.7726C233.831 77.6555 233.83 77.2831 233.215 77.5384L231.746 77.9143C231.012 78.1529 230.397 78.1544 229.662 78.2915C228.552 78.294 227.321 78.4154 226.211 78.6718C225.596 78.6732 224.981 79.0471 224.366 79.0485C223.99 78.9309 223.75 78.8129 223.375 78.8138C222.999 78.9331 222.76 79.1876 222.384 79.1885C221.769 79.3084 221.034 78.9546 220.418 78.8206L220.435 78.8036ZM232.645 89.8642C232.645 89.6272 232.269 89.7466 232.15 89.9838C232.27 90.1021 232.526 90.1015 232.645 89.8642ZM234.081 74.8786C234.2 74.6413 233.704 74.6424 233.585 74.8797C233.586 75.2522 234.082 75.251 234.081 74.8786ZM236.048 75.4835C235.928 75.4838 235.81 76.0935 236.168 75.8557C236.168 75.6977 236.128 75.5736 236.048 75.4835ZM237.652 74.4979C237.276 74.4988 236.919 75.3461 237.414 75.2264C237.79 75.2256 238.267 74.615 237.652 74.4979ZM239.501 75.8311C239.501 75.8311 239.124 75.7135 239.125 75.832C239.244 75.9502 239.364 75.9499 239.501 75.8311ZM241.497 89.2344C241.378 89.6072 241.737 89.6063 241.993 89.4703C241.992 89.2333 241.616 88.9802 241.497 89.2344Z" fill="black"/>
<path d="M315.833 93.5836C315.715 94.1639 315.256 94.855 314.458 95.6768C313.48 96.689 312.372 97.4816 311.154 98.0644C310.694 98.4054 310.255 98.5964 309.805 98.6475C308.816 99.2297 307.917 99.5418 307.087 99.5937C306.678 99.9347 306.039 100.246 305.159 100.538L303.859 100.541L302.351 101.555L301.041 101.268L300.591 101.339L299.481 101.481C298.742 101.583 298.132 101.624 297.652 101.625C297.552 101.626 297.392 101.606 297.161 101.556L296.581 101.558L295.502 101.92L294.033 102.064L292.373 102.067L291.484 102.52L291.644 102.789C290.534 102.792 289.674 102.814 289.034 102.865L288.694 102.796L285.804 102.533L281.663 102.362L280.353 102.095C279.863 102.386 279.324 102.527 278.754 102.529C278.084 102.53 277.433 102.312 276.802 101.883L275.333 102.387L274.752 101.738C272.742 101.693 271.611 101.505 271.351 101.166L271.09 101.026C271.23 101.026 270.82 101.077 269.831 101.169L267.416 99.3047L266.186 99.0175C265.445 98.6392 264.893 97.9705 264.521 97.0014C264.209 96.1821 264.137 95.3922 264.305 94.6218C264.414 94.0916 264.852 93.1606 265.619 91.8088L267.395 90.2247L269.106 90.2908C269.604 89.7597 270.204 89.4983 270.924 89.4966C272.464 89.4931 272.967 90.732 272.442 93.2132C271.383 93.4556 270.743 93.6571 270.524 93.7976C270.224 94.0883 269.795 94.4092 269.246 94.7505L269.196 94.9706L269.777 95.3093L270.459 96.1877L273.299 96.0412L275.52 96.7561L279.28 96.6775L280.452 97.6148L281.191 97.1831C281.481 97.1824 281.822 97.2717 282.212 97.4508L284.023 97.7266L284.074 98.1865L285.224 98.1839C286.403 97.8012 287.072 97.5996 287.212 97.5993L293.552 97.5848L295.221 97.1709L296.19 96.3487L298.86 96.6326C300.339 96.1992 301.489 95.9765 302.309 95.9747L302.669 95.9738C303.058 95.7329 303.368 95.6122 303.608 95.6117C303.748 95.6114 303.908 95.661 304.078 95.7506L304.858 95.4588L304.976 94.8785L306.486 94.8751C306.915 94.4441 307.565 94.2026 308.435 94.1506C309.233 93.5288 309.862 93.1873 310.302 93.1363L311.06 92.2746C311.149 91.8444 309.807 90.9075 307.044 89.4738L306.563 89.0449C305.573 88.9472 304.822 88.7889 304.292 88.5501C303.952 88.5509 303.652 88.5316 303.371 88.4822L303.232 88.4825C302.992 88.4831 302.111 88.1951 300.61 87.6285C300.159 87.2496 299.648 87.0507 299.078 87.0521C298.888 87.0525 298.588 87.1032 298.189 87.1941L296.749 87.1974L296.578 86.9778C295.838 86.8395 295.287 86.6207 294.917 86.3316L293.997 86.6237L291.995 85.5483L290.555 85.5516L289.743 84.9735L288.303 84.9768L288.163 84.6171L287.013 84.6197L286.25 83.4715L285.75 83.4726C284.26 83.476 283.169 83.1885 282.478 82.6201L282.368 82.4804C281.377 82.1526 280.726 81.6241 280.394 80.9149L279.411 79.7771L279.007 77.9281L278.385 76.7895L279.358 73.8673L281.503 71.8623C281.803 71.8116 282.082 71.501 282.341 70.9304C282.491 70.8801 282.761 70.7594 283.14 70.5686L287.236 68.5592L288.246 68.5569C288.916 68.5553 289.665 68.3136 290.484 67.8317L290.914 67.8307L290.884 67.9708L291.743 67.3188L292.103 67.318C293.762 66.7342 295.091 66.4511 296.101 66.4488L296.461 66.448L297.091 66.5166L298.31 65.8638C298.609 65.8131 298.999 65.7922 299.479 65.7911L299.909 65.7901C300.239 65.7893 300.839 65.738 301.699 65.646C302.559 65.544 303.239 65.4725 303.729 65.4213L305.038 65.3483L307.196 64.3334C307.316 64.4331 307.557 64.7925 307.909 65.4117L309.489 65.4081C309.779 65.4074 310.279 65.5263 310.999 65.7647L311.499 65.7635C312.649 65.7609 313.56 65.9988 314.231 66.4872C316.643 67.1117 317.645 68.3894 317.24 70.3303C316.894 71.9811 315.366 72.9747 312.657 73.3209L312.265 72.4618C312.135 72.4121 311.904 72.3226 311.574 72.1733C311.244 72.0241 310.984 71.9347 310.803 71.8851L309.223 71.8887L308.672 71.1L307.492 71.2427L306.694 71.9645L305.221 70.7479L303.291 71.0423L301.17 70.5472C299.761 70.6504 298.521 70.9333 297.462 71.4157L297.302 71.4861C297.143 71.5865 296.963 71.6669 296.783 71.7373C296.603 71.8077 296.483 71.848 296.433 71.8481L295.512 71.4202L293.304 72.3653L289.347 73.3843L288.526 73.1662L286.729 74.1803L286.009 74.182L285.44 74.8333L283.712 75.8473L283.763 76.2772L284.385 77.0657L285.056 77.2842L286.057 78.0019L288.119 78.7872L289.179 78.8547L290.882 80.0008L291.501 79.7794C292.832 80.0664 293.683 80.4444 294.064 80.9235L294.235 81.1431L294.375 81.1428L295.637 81.9999L296.245 81.4985L297.926 81.7147L299.226 81.7117L300.068 82.4998L300.568 82.4986C301.388 82.4967 302.088 82.5951 302.668 82.7838L303.388 82.7822C304.248 82.7802 305.129 83.1882 306.011 83.9961L306.941 83.704L307.531 83.9927L308.751 83.9899L310.535 85.4258L312.645 85.6409L313.268 86.7895C314.69 87.7962 315.572 88.6642 315.924 89.4134C316.275 90.1626 316.298 91.2226 316.001 92.6132C315.981 92.7133 315.972 92.8533 315.982 93.0433L315.873 93.5435L315.833 93.5836Z" fill="black"/>
<path d="M365.738 78.3494C365.511 79.4499 364.963 80.4612 364.095 81.3731C362.687 81.9064 361.557 82.169 360.687 82.171C360.497 82.1714 360.237 82.122 359.927 82.0327C359.607 81.9334 359.407 81.8939 359.307 81.8941L357.239 82.8389L355.538 82.7028L354.459 83.0653L353.989 82.9263L352.541 83.6497L351.52 83.362L348.42 83.3691L348.71 83.3684L347.331 83.7316L347.111 83.7321L346.502 84.2335L345.561 83.8757L344.912 84.2372L343.431 83.7406L342.382 84.243C341.281 83.9555 340.641 83.817 340.451 83.8174C339.921 83.8186 339.231 83.9902 338.392 84.3221L335.083 84.6197L334.872 84.2602L333.583 84.5731L333.424 84.9935L333.312 88.5938L333.083 88.9543L333.144 89.6742L332.946 90.6046C333.038 91.3244 333.05 92.0444 333.001 92.7645L333.683 93.6229L333.444 94.0535L334.508 95.8511C335.771 96.9082 336.792 97.4258 337.562 97.4241L337.702 97.4237C337.802 97.4235 337.922 97.4032 338.082 97.3529L338.372 97.3522C338.562 97.3518 338.812 97.4212 339.122 97.5705L339.782 97.499C340.432 97.3575 341.362 97.1853 342.551 96.9926L343.43 96.5606L343.639 96.2701L344.159 96.1989L344.809 95.8374L345.119 96.0567L346.348 95.6939L347.407 95.1115L347.876 94.6104L349.294 93.6671L350.263 93.5249L352.26 92.2203C353.5 92.0275 354.568 91.065 355.454 89.333L355.654 89.4025L355.773 89.1823L356.723 89.1101L358.33 87.9564L358.85 87.8852C359 87.8349 359.18 87.8144 359.37 87.814C360.28 87.8119 360.642 88.7011 360.466 90.4715L356.515 94.2206L355.675 94.4425L355.296 94.8734L353.63 96.3172L351.442 97.4722L349.536 98.9866L349.046 98.9177L348.347 99.4993L344.85 100.727L343.253 102.171L342.392 101.813L341.894 102.464L341.293 102.246L340.854 102.607L338.573 102.182L335.915 103.198L333.634 102.413L330.84 100.979C328.457 99.7349 327.149 96.2879 326.896 90.6185L327.065 89.8281L326.841 88.1686L327.569 87.447L327.635 85.4268L327.703 84.7766L326.77 83.4088L326.948 82.5484C327.245 81.1577 327.823 80.1964 328.701 79.6643C328.93 79.2838 329.27 78.923 329.719 78.582L329.478 78.3625L329.904 76.3416L330.111 75.3311L331.476 73.028L331.923 71.8769L331.184 71.9486L330.894 71.9493C330.224 71.9508 329.693 71.722 329.312 71.2729C328.931 70.8138 328.8 70.2741 328.928 69.6538C329.077 68.9334 329.705 68.112 330.813 67.1995L331.422 66.6981L332.131 66.4064C332.97 66.0645 333.61 65.903 334.04 65.9021L335.41 65.8989L336.387 64.6767L339.577 64.8893L339.748 65.109C340.198 65.0279 340.858 64.9864 341.718 64.9844L343.217 64.671L343.577 64.6702C344.237 64.4787 344.926 64.0871 345.614 63.5155L346.556 64.1633L348.356 64.1592L355.694 63.4924L356.325 63.9209L357.385 63.6585L358.103 62.9768L359.345 63.914L359.944 63.4826L361.396 64.1293L362.525 63.9067L363.056 64.1255L365.405 63.9001L365.836 64.2591L366.947 64.4766C368.007 64.6641 368.448 65.1931 368.27 66.0535C368.152 66.6338 367.843 67.1345 367.344 67.5657C366.845 67.9968 366.375 68.2179 365.945 68.2189L365.655 68.2195L364.776 68.6515L363.425 68.2246L362.765 68.2962C362.615 68.3465 362.416 68.367 362.176 68.3675C361.696 68.3686 361.285 68.2696 360.945 68.0803L360.784 67.7907C360.284 67.8919 359.965 67.9326 359.815 67.9329C359.625 67.9334 359.394 67.8839 359.124 67.7945C358.575 68.1358 357.626 68.418 356.276 68.661C355.606 68.6626 354.866 68.6443 354.056 68.5961C354.066 68.5461 354.196 68.3758 354.455 68.0952L352.466 68.6798L352.326 68.6801C351.986 68.6809 351.297 69.0225 350.239 69.6949L349.398 69.2668L348.908 69.558L347.287 69.0617L346.178 69.5642L344.738 69.5675L342.489 70.0027L340.521 70.7972L340.08 70.5082L339.012 71.1607L338.072 71.1628L337.783 71.5235L337.815 72.3834L336.288 73.8269L336.848 73.8956L336.433 75.9066L337.035 76.7752L336.266 77.357C335.618 78.1785 335.259 78.7293 335.2 79.0194C335.16 79.2095 335.271 79.3593 335.541 79.4486L336.46 79.1565C336.71 79.106 336.95 79.0854 337.2 79.0848C337.9 79.1832 338.41 79.2721 338.721 79.3713L340.12 78.8681L341.23 79.0856L344.76 79.0775C344.95 79.0771 345.37 78.9061 346.019 78.5746C346.359 78.7638 346.89 78.8626 347.61 78.861C347.71 78.8607 347.88 78.8403 348.129 78.7898L348.849 78.7881C348.749 78.7883 348.659 78.7685 348.579 78.7187L348.799 78.7182C349.089 78.7176 349.93 78.8356 351.32 79.0724C351.48 78.9921 352.24 78.9103 353.599 78.8272C354.379 78.7454 354.869 78.7043 355.059 78.7039C355.779 78.7022 356.469 78.7206 357.129 78.7691L357.789 78.6976C358.538 78.3159 359.208 78.1143 359.778 78.113C360.208 78.1121 360.628 78.1811 361.028 78.3302L362.078 78.1078L362.869 78.466L365.897 77.739L365.759 78.3893L365.738 78.3494Z" fill="black"/>
<path d="M383.434 67.7986L383.204 67.8691L382.201 70.6114L381.944 72.192L382.185 72.4115L381.119 74.0739L381.001 75.2942L379.985 76.6665C379.636 77.2873 379.347 77.798 379.098 78.1786C379.329 78.468 379.399 78.7779 379.33 79.118C379.251 79.4982 379.032 79.8587 378.673 80.1996L378.878 82.6491L378.018 82.6511L377.919 82.7913L378.351 83.8003L377.375 85.7425L377.135 85.7431L376.429 87.1847C376.669 87.1842 376.839 87.1638 376.949 87.1135L376.432 88.5547L376.665 89.8542L375.947 90.8658L375.552 93.0967L375.144 94.0377C375.476 94.5169 375.597 94.9766 375.508 95.4069C375.448 95.697 375.269 96.0074 374.99 96.348C374.711 96.6887 374.551 96.8991 374.531 96.9991C375.263 97.6174 375.764 98.1963 376.035 98.7257L375.097 99.4478L375.988 100.026C375.393 101.947 374.495 102.909 373.295 102.912C372.095 102.915 371.414 102.386 371.251 101.337L371 100.837C370.458 99.7785 370.226 99.039 370.315 98.6088L369.191 97.1013L369.99 96.3795L369.678 95.8002L369.995 94.2895L370.014 93.7895C370.023 93.3094 370.062 92.9293 370.121 92.6392C370.181 92.3491 370.32 92.0387 370.539 91.6982L370.518 91.1183L370.932 88.8173L371.212 88.5267L372.072 84.4247L373.234 80.962L373.556 77.3613L374.065 77.0001L373.675 76.781L374.412 75.3393L374.52 74.8391L374.1 74.77L374.867 73.1883C374.355 72.5194 374.143 71.5799 374.23 70.3797L375.17 70.3776L376.485 68.2145L376.596 68.3543L377.273 67.2027L376.824 67.6338L377.229 65.6928L378.449 65.69L378.798 65.0392L380.277 64.5358C381.457 64.6331 382.347 64.8211 382.968 65.1097C383.55 65.7783 383.741 66.5679 383.554 67.4883L383.474 67.8485L383.434 67.7986Z" fill="black"/>
<path d="M439.015 94.0212L437.967 95.2436L435.243 97.9099L433.316 99.2143L430.999 100.3L428.601 101.095L426.492 101.53L425.961 101.311L424.962 101.603L423.641 101.387L421.922 101.68L421.621 101.391L421.302 101.532L420.191 101.314L418.461 101.318L417.589 100.31L415.868 99.9543L415.617 99.4549L415.007 99.5963L413.724 98.1592L412.303 97.7325L411.711 96.7939L409.331 96.7993L409.029 95.86L408.309 95.8617L408.027 95.1423L406.966 94.7147L406.796 94.8551L405.733 93.4176L404.691 92.56L403.668 91.2623L402.486 90.405C402.005 89.9761 401.234 89.3979 400.182 88.6803C400.051 88.1506 399.89 87.891 399.7 87.8914L398.64 87.8238L398.41 87.5344L397.36 87.7568L397.205 89.8471L396.755 89.9182L396.817 90.638L395.663 93.3807C395.784 93.7204 395.835 94.2903 395.807 95.1103L395.209 95.9017L394.951 96.7623L394.544 98.3432L393.787 99.565L393.251 101.076L391.835 103.019L389.372 105.835C387.692 105.839 386.9 105.171 386.987 103.821L387.853 102.089L388.41 100.787L388.529 100.567L388.749 100.207C388.718 100.107 388.678 99.9267 388.607 99.6669C388.537 99.407 388.526 99.1771 388.576 98.9869C388.635 98.6968 388.794 98.3864 389.064 98.0458L388.853 97.6863L390.22 96.3132L390.027 95.1636L390.175 94.4433C390.134 93.9634 390.143 93.5533 390.213 93.2232C390.262 92.9831 390.441 92.5726 390.76 92.0019L390.999 91.5714C391.146 90.421 391.254 89.6708 391.324 89.3406C391.203 89.0109 391.212 88.5009 391.35 87.8305L391.63 87.5399L391.457 86.3203L392.025 85.669L392.055 85.5289L392.451 83.658L392.556 81.4278L393.234 80.9262C393.144 80.6864 393.153 80.3064 393.262 79.7761L393.499 78.6256L393.399 78.6258L394.069 74.2343C394.228 73.9439 394.538 73.5832 395.017 73.1521C395.086 72.8119 395.175 72.5317 395.275 72.2915L395.514 71.861L395.673 71.4306C395.421 70.5712 395.369 69.7713 395.527 69.0509C395.735 68.0404 396.272 66.9892 397.14 65.8772C398.319 65.5845 399.069 65.4428 399.409 65.442C400.039 65.4406 400.749 65.6589 401.53 66.0871L402.795 68.0242L402.178 69.6057L402.73 70.3944L402.102 71.3358L402.195 72.2756L401.028 73.7183L400.963 75.7385L400.026 77.4706L399.742 79.8513L399.273 80.3524L399.866 81.651L400.366 81.6498L401.587 82.007L402.236 81.6456L402.747 81.9344L403.326 81.5731L404.997 81.8592L405.736 81.4275L407.884 80.7726L407.934 80.5525L409.514 80.5489C410.142 80.0674 410.852 79.7558 411.651 79.604C411.611 79.554 411.601 79.5041 411.611 79.464C411.661 79.2239 412.37 79.0323 413.75 78.8791L415.698 78.1547L416.556 77.1427C416.875 77.002 417.265 76.8511 417.725 76.71L418.053 75.8493L418.703 75.8478L418.762 75.5576L420.032 75.3347L421.029 74.0324L421.749 74.0308C422.077 73.17 422.755 72.5685 423.785 72.2261L424.343 71.6448L424.511 70.8544L425.841 70.7114C426.309 69.8503 426.898 69.199 427.617 68.7673C427.886 68.3867 428.065 68.0963 428.155 67.9061L429.352 66.6833L430.21 66.0313C430.677 64.4903 431.775 63.7277 433.505 63.7238C433.605 63.7235 434.007 64.4226 434.72 65.811L433.694 67.6134L434.024 67.7526L433.785 68.1831L433.746 68.6932C433.637 68.7435 433.417 68.884 433.077 69.1248L432.6 70.3559L431.751 70.6478L430.825 72.31L429.657 73.3926C429.029 74.3041 428.341 74.8857 427.561 75.1274C427.601 75.1774 427.602 75.2674 427.572 75.4174C427.522 75.6575 427.253 76.1182 426.775 76.7893L424.976 77.1534C424.726 77.444 424.377 77.7048 423.948 77.9457L423.859 78.3759L422.31 78.8795L420.563 80.3235L418.246 81.4088L416.508 82.4928L415.009 82.7863L413.72 83.4392L411.771 83.8037L409.833 84.8181L407.536 85.8334L406.776 86.0652C407.277 86.394 407.728 86.873 408.13 87.5021L409.382 88.7192L411.475 90.0744L411.567 90.6442L412.998 91.0009L414.63 92.1472L416.623 93.2926L417.635 94.2903L418.856 94.6475L420.509 96.0037L422.801 96.7184L424.551 96.9244L428.02 96.4864L429.32 96.4835L429.64 96.3427C430.159 95.9115 430.688 95.6903 431.218 95.6891C431.488 95.5485 431.808 95.3978 432.177 95.2569L432.207 95.1168L433.724 93.7434L434.303 93.382L434.482 92.8816C435.171 92.55 435.831 92.2785 436.45 92.0871L436.22 92.1576L438.099 91.7933L439.061 92.3711L439.005 94.0312L439.015 94.0212Z" fill="black"/>
<path d="M487.555 102.77C487.258 103.971 486.289 104.813 484.651 105.297L482.188 104.002L481.398 104.004L480.616 103.286L479.466 103.288L478.903 101.85L478.262 101.491L477.678 99.8325L476.665 98.4649L476.784 97.8846L476.312 97.3857L476.41 96.2354L475.658 95.3772L474.86 91.999L474.378 91.2101L474.514 89.1898L473.831 87.9713L472.36 87.7547L470.502 88.699L470.222 88.3396L468.923 89.0626L468.731 88.273C468.482 88.3236 468.112 88.3444 467.632 88.3456C467.102 88.3468 466.722 88.3276 466.491 88.2782L465.911 88.2795L464.233 89.0733L462.623 88.857L462.333 88.8577L461.044 89.5107L460.183 89.1526C459.273 89.1547 458.623 89.0562 458.223 88.8671L457.863 88.868L455.805 89.7327L455.253 88.944L454.032 88.5867L453.703 88.8075C452.356 90.2006 451.378 91.1928 450.779 91.7642L449.57 92.057C447.186 94.7025 445.739 96.1258 445.22 96.317L444.92 96.3877L442.026 99.2043L441.736 99.205L439.832 101.439L436.775 102.956C436.275 103.058 435.885 103.098 435.595 103.099C434.685 103.101 433.895 102.763 433.213 102.095L434.459 100.292L434.686 99.2112L435.046 98.8503L435.492 97.4093L437.782 97.114L438.431 96.7526C439.08 96.4111 439.519 95.9101 439.757 95.2395C440.677 94.9974 441.296 94.516 441.644 93.7952C443.082 93.1219 444.14 92.0595 444.827 90.6179L446.146 90.1848L448.51 87.5194C448.238 86.99 448.087 86.3204 448.065 85.5004L449.832 84.2764L450.119 82.9057L452.88 83.1194L453.679 82.7575C454.087 81.9366 454.696 81.3652 455.485 81.0234L455.912 79.6524L457.59 78.8586C457.75 78.7582 458.039 78.6375 458.459 78.4966L458.548 78.0664C458.637 77.6362 458.816 77.2457 459.075 76.9151C460.234 76.1925 460.972 75.2108 461.279 73.9601L462.328 73.7377L462.827 73.0865L463.346 73.0153L465.261 70.4209L465.62 70.4201L466.25 70.1487L466.636 68.3278L467.136 68.3266C468.603 67.0233 469.381 66.1815 469.47 65.8013L469.889 65.5103L469.757 64.4306C471.204 63.0373 472.292 62.3148 473.022 62.2631L474.629 61.1094L475.883 62.6866L477.675 63.7624L477.5 65.6329C477.68 65.9224 477.811 66.2121 477.891 66.492C478.393 67.3108 478.595 68.1503 478.517 69.0105L478.571 70.8104L479.315 72.3887L479.461 74.7684L479.363 75.9186L480.327 77.4964L479.928 77.9973L480.399 78.4962L480.092 79.9369L480.005 81.0171C479.706 81.7378 479.577 81.9981 479.627 81.808L479.907 82.1674L480.219 82.7467C480.849 82.6952 481.329 82.6241 481.628 82.5234L483.788 82.5185C484.149 82.6176 484.429 82.657 484.619 82.6566C484.909 82.6559 485.228 82.5452 485.588 82.3343C485.947 82.1135 486.457 82.0123 487.127 82.0108C487.607 82.0097 488.278 82.2482 489.139 82.7262L491.269 82.8613C491.28 83.2413 491.271 83.5313 491.231 83.7214C491.083 84.4417 490.604 84.9928 489.805 85.3847L488.804 85.027L486.487 86.4723L484.877 86.256L484.078 86.6178L482.468 86.7615L482.527 86.4714L480.568 86.9059L480.409 87.3362L480.203 88.9967L480.866 90.2952L480.739 91.5955L481.914 93.8928L481.606 94.6835L482.118 95.3323L483.284 97.9897L484.247 99.2075L484.418 99.7871L485.579 100.434L485.842 101.584L487.545 102.73L487.555 102.77ZM473.86 83.3612L473.79 83.3614L473.168 82.5728L474.187 81.8505C473.866 81.5212 473.775 81.0114 473.913 80.3411L473.463 80.0522L473.716 77.1116L473.133 75.8729L473.18 74.6428L473.1 74.353L472.6 74.3541L472.924 71.7634L472.471 70.8244L472.141 70.6852L471.99 70.3955L471.592 70.8964L469.407 73.0614L468.569 74.2834L466.862 75.5873L466.305 76.8886L464.497 77.6127C463.95 79.054 463.023 80.0861 461.684 80.7192L460.877 82.161L459.75 83.1036L460.4 83.1021C461.2 83.3903 461.891 83.5287 462.471 83.5274L462.761 83.5267C463.08 83.386 463.38 83.3053 463.67 83.3046C464.01 83.3038 464.37 83.403 464.761 83.5921L465.031 83.6615C465.331 83.6108 465.791 83.5898 466.411 83.5883C467.181 83.5866 467.751 83.6053 468.121 83.6544L470.7 83.3585L472.172 84.2151C473.061 83.8731 473.611 83.5418 473.82 83.2013C473.81 83.2514 473.82 83.2713 473.88 83.2712L473.86 83.3412L473.86 83.3612Z" fill="black"/>
<path d="M510.224 67.5077L509.994 67.5783L508.99 70.3206L508.734 71.9012L508.974 72.1206L507.908 73.7831L507.791 75.0033L506.774 76.3757C506.426 76.9965 506.137 77.5071 505.888 77.8877C506.118 78.1772 506.189 78.487 506.12 78.8272C506.041 79.2074 505.822 79.5679 505.462 79.9087L505.668 82.3582L504.808 82.3602L504.708 82.5004L505.141 83.5094L504.165 85.4517L503.925 85.4522L503.218 86.8939C503.458 86.8933 503.628 86.8729 503.738 86.8227L503.221 88.2638L503.454 89.5633L502.737 90.575L502.342 92.8059L501.934 93.7468C502.265 94.2261 502.386 94.6858 502.297 95.116C502.238 95.4061 502.059 95.7165 501.779 96.0572C501.5 96.3978 501.341 96.6082 501.321 96.7082C502.052 97.3266 502.554 97.9054 502.825 98.4348L501.886 99.1569L502.778 99.7349C502.182 101.656 501.284 102.618 500.084 102.621C498.884 102.624 498.203 102.095 498.041 101.046L497.79 100.546C497.247 99.4876 497.015 98.7481 497.105 98.3179L495.981 96.8105L496.779 96.0886L496.468 95.5094L496.785 93.9986L496.803 93.4986C496.812 93.0186 496.851 92.6385 496.911 92.3483C496.97 92.0582 497.109 91.7479 497.329 91.4074L497.307 90.8274L497.722 88.5265L498.001 88.2358L498.862 84.1338L500.024 80.6712L500.346 77.0704L500.855 76.7092L500.464 76.4901L501.201 75.0485L501.31 74.5482L500.89 74.4792L501.656 72.8974C501.145 72.2286 500.933 71.2891 501.02 70.0889L501.96 70.0867L503.275 67.9237L503.385 68.0634L504.063 66.9119L503.613 67.3429L504.019 65.402L505.239 65.3992L505.588 64.7484L507.066 64.245C508.247 64.3423 509.137 64.5302 509.758 64.8188C510.339 65.4875 510.531 66.277 510.343 67.1975L510.264 67.5576L510.224 67.5077Z" fill="black"/>
<path d="M51.7112 35.1892C51.5926 35.7695 51.1342 36.4605 50.336 37.2824C49.3584 38.2946 48.2502 39.0872 47.0315 39.67C46.5723 40.011 46.1327 40.202 45.6828 40.2531C44.6942 40.8353 43.7949 41.1474 42.965 41.1993C42.5558 41.5402 41.9165 41.8517 41.0372 42.1437L39.7372 42.1467L38.2295 43.1602L36.9188 42.8732L36.469 42.9442L35.3593 43.0867C34.6195 43.1884 34.0096 43.2298 33.5296 43.2309C33.4296 43.2312 33.2696 43.2115 33.0395 43.1621L32.4595 43.1634L31.3803 43.5259L29.9106 43.6692L28.2506 43.6731L27.3617 44.1251L27.5223 44.3947C26.4223 44.3972 25.5523 44.4192 24.9125 44.4707L24.5723 44.4015L21.6817 44.1381L17.5413 43.9676L16.2307 43.7006C15.7413 43.9918 15.2017 44.133 14.6317 44.1343C13.9617 44.1358 13.3112 43.9173 12.6802 43.4888L11.2013 43.9922L10.6198 43.3435C8.60973 43.2981 7.47929 43.1107 7.20851 42.7713L6.94819 42.6319C7.08819 42.6316 6.67831 42.6825 5.69852 42.7748L3.28423 40.9103L2.05357 40.6231C1.3127 40.2448 0.761167 39.5761 0.388943 38.607C0.0770626 37.7877 0.00525056 36.9978 0.163484 36.2275C0.272268 35.6972 0.710133 34.7662 1.47703 33.4144L3.25341 31.8304L4.96356 31.8964C5.46234 31.3653 6.06175 31.1039 6.78174 31.1023C8.32174 31.0987 8.82458 32.3376 8.30027 34.8188C7.24083 35.0612 6.60129 35.2627 6.38161 35.4032C6.08227 35.6939 5.65301 36.0149 5.10379 36.3561L5.0543 36.5762L5.63508 36.9149L6.31709 37.7934L9.15676 37.6468L11.3784 38.3617L15.1382 38.2831L16.3104 39.2204L17.0494 38.7887C17.3394 38.7881 17.6796 38.8773 18.07 39.0564L19.8807 39.3322L19.9317 39.7921L21.0817 39.7895C22.2708 39.4068 22.9304 39.2052 23.0704 39.2049L29.4104 39.1904L31.0794 38.7766L32.0475 37.9543L34.7282 38.2382C36.2072 37.8048 37.3567 37.5821 38.1767 37.5803L38.5367 37.5794C38.9261 37.3385 39.2359 37.2178 39.4759 37.2173C39.6159 37.217 39.776 37.2666 39.9462 37.3562L40.7255 37.0644L40.8442 36.4841L42.3542 36.4807C42.7832 36.0497 43.4326 35.8082 44.3025 35.7562C45.1011 35.1344 45.7303 34.7929 46.1702 34.7419L46.9282 33.8802C47.0172 33.45 45.6751 32.5131 42.9118 31.0794L42.4308 30.6505C41.4406 30.5528 40.6902 30.3945 40.1597 30.1557C39.8197 30.1565 39.5196 30.1372 39.2395 30.0878L39.0995 30.0881C38.8595 30.0887 37.9788 29.8007 36.4775 29.2341C36.0267 28.8552 35.5162 28.6563 34.9462 28.6577C34.7562 28.6581 34.4563 28.7088 34.0565 28.7997L32.6165 28.803L32.446 28.5834C31.7057 28.4451 31.1552 28.2263 30.7845 27.9372L29.8552 28.2293L27.8527 27.1539L26.4127 27.1572L25.6014 26.5791L24.1614 26.5824L24.0206 26.2227L22.8706 26.2253L22.108 25.0771L21.608 25.0782C20.118 25.0817 19.0273 24.7942 18.336 24.2257L18.2257 24.086C17.2349 23.7583 16.5837 23.2298 16.2521 22.5205L15.2695 21.3828L14.8652 19.5337L14.2426 18.3951L15.2159 15.4729L17.3613 13.468C17.6612 13.4173 17.9405 13.1066 18.1992 12.536C18.3491 12.4857 18.6188 12.3651 18.9984 12.1742L23.0938 10.1648L24.1038 10.1625C24.7738 10.1609 25.5232 9.91922 26.3421 9.43734L26.7721 9.43635L26.7424 9.57642L27.6009 8.92445L27.9609 8.92363C29.6196 8.33982 30.9489 8.05677 31.9589 8.05445L32.3189 8.05363L32.9491 8.12218L34.1676 7.46938C34.4675 7.4187 34.8574 7.3978 35.3374 7.3967L35.7674 7.39571C36.1074 7.39493 36.6973 7.34358 37.5571 7.25161C38.4169 7.14963 39.0967 7.07808 39.5866 7.02695L40.8964 6.95395L43.0541 5.93899C43.1743 6.03872 43.4152 6.39817 43.7666 7.01736L45.3466 7.01374C45.6366 7.01307 46.1369 7.13193 46.8574 7.37027L47.3574 7.36913C48.5074 7.36649 49.418 7.6044 50.0891 8.09286C52.5005 8.71733 53.5034 9.99503 53.0979 11.936C52.7517 13.5868 51.224 14.5803 48.5147 14.9265L48.1228 14.0674C47.9927 14.0177 47.7625 13.9282 47.4321 13.779C47.1018 13.6297 46.8416 13.5403 46.6614 13.4907L45.0815 13.4944L44.5296 12.7056L43.35 12.8483L42.5516 13.5702L41.0788 12.3535L39.1495 12.648L37.0284 12.1528C35.6186 12.2561 34.3792 12.5389 33.3203 13.0213L33.1605 13.0917C33.0007 13.1921 32.8209 13.2725 32.6411 13.3429C32.4612 13.4133 32.3413 13.4536 32.2913 13.4537L31.3703 13.0258L29.1525 13.9709L25.1948 14.99L24.3743 14.7719L22.5767 15.786L21.8567 15.7876L21.2881 16.439L19.5605 17.4529L19.6115 17.8828L20.2333 18.6714L20.9038 18.8898L21.9054 19.6075L23.9672 20.3928L25.0274 20.4604L26.73 21.6065L27.3495 21.3851C28.6802 21.672 29.531 22.0501 29.9121 22.5292L30.0826 22.7488L30.2226 22.7485L31.4846 23.6056L32.0935 23.1042L33.774 23.3203L35.074 23.3173L35.9158 24.1054L36.4158 24.1043C37.2358 24.1024 37.926 24.2008 38.5164 24.3895L39.2364 24.3878C40.0964 24.3858 40.9774 24.7938 41.8592 25.6018L42.7886 25.3097L43.3792 25.5983L44.5992 25.5955L46.3825 27.0314L48.493 27.2466L49.1156 28.3951C50.538 29.4019 51.42 30.2699 51.7717 31.0191C52.1234 31.7683 52.1458 32.8282 51.849 34.2189C51.8292 34.3189 51.8196 34.459 51.83 34.6489L51.7211 35.1492L51.7112 35.1892Z" fill="black"/>
<path d="M101.616 19.9549C101.389 21.0555 100.841 22.0667 99.9734 22.9787C98.5646 23.5119 97.4352 23.7745 96.5652 23.7765C96.3752 23.777 96.1151 23.7276 95.8049 23.6383C95.4846 23.539 95.2845 23.4995 95.1845 23.4997L93.1167 24.4444L91.4164 24.3083L90.3372 24.6708L89.8669 24.5319L88.4185 25.2552L87.3979 24.9676L84.2979 24.9747L84.5879 24.974L83.2087 25.3372L82.9887 25.3377L82.3799 25.8391L81.439 25.4812L80.7899 25.8427L79.3087 25.3461L78.2599 25.8485C77.1592 25.561 76.5189 25.4225 76.3289 25.423C75.7989 25.4242 75.1093 25.5957 74.27 25.9277L70.9607 26.2253L70.7499 25.8658L69.4606 26.1787L69.3016 26.5991L69.1898 30.1993L68.9607 30.5599L69.0223 31.2797L68.8244 32.2102C68.9161 32.93 68.9278 33.65 68.8794 34.3701L69.5614 35.2285L69.3224 35.6591L70.3865 37.4566C71.6489 38.5137 72.6701 39.0314 73.4401 39.0296L73.5801 39.0293C73.6801 39.0291 73.8001 39.0088 73.9599 38.9584L74.2499 38.9578C74.4399 38.9573 74.6901 39.0267 75.0004 39.176L75.6603 39.1045C76.31 38.963 77.2396 38.7909 78.4291 38.5982L79.3081 38.1662L79.5175 37.8757L80.0373 37.8045L80.6865 37.443L80.997 37.6623L82.2262 37.2995L83.2848 36.717L83.7537 36.2159L85.1715 35.2727L86.1412 35.1305L88.1382 33.8259C89.3778 33.633 90.4456 32.6706 91.3316 30.9386L91.5317 31.0081L91.6512 30.7878L92.6011 30.7156L94.2084 29.5619L94.7283 29.4908C94.8782 29.4404 95.0581 29.42 95.2481 29.4196C96.1581 29.4175 96.5202 30.3066 96.3442 32.0771L92.3928 35.8261L91.5533 36.0481L91.1743 36.4789L89.5076 37.9228L87.3203 39.0778L85.4137 40.5922L84.9236 40.5233L84.2249 41.1049L80.7277 42.3329L79.131 43.7766L78.2702 43.4185L77.7717 44.0697L77.1712 43.8511L76.732 44.2121L74.451 43.7873L71.7933 44.8034L69.5115 44.0186L66.7182 42.585C64.3354 41.3405 63.0275 37.8935 62.7745 32.2241L62.9427 31.4337L62.7188 29.7742L63.4472 29.0525L63.5126 27.0324L63.5811 26.3822L62.6479 25.0143L62.8259 24.1539C63.1228 22.7632 63.7006 21.8019 64.5793 21.2699C64.8085 20.8894 65.1476 20.5286 65.5969 20.1876L65.3564 19.9681L65.7817 17.9471L65.9894 16.9366L67.3541 14.6335L67.8015 13.4825L67.0616 13.5542L66.7716 13.5548C66.1017 13.5564 65.5711 13.3276 65.1901 12.8785C64.809 12.4193 64.6778 11.8796 64.8064 11.2593C64.9547 10.539 65.5828 9.71756 66.6908 8.80502L67.2996 8.30362L68.0089 8.01199C68.8482 7.67007 69.4878 7.5086 69.9178 7.50761L71.2878 7.50447L72.265 6.28222L75.4555 6.49491L75.626 6.71452C76.0758 6.63348 76.7357 6.59197 77.5957 6.59L79.095 6.27656L79.455 6.27573C80.1145 6.08422 80.8036 5.69263 81.4923 5.12105L82.4338 5.7689L84.2338 5.76477L91.5723 5.09793L92.2033 5.52648L93.2627 5.26405L93.9811 4.5824L95.2233 5.51956L95.8223 5.08818L97.2738 5.73485L98.4033 5.51226L98.9338 5.73104L101.283 5.50565L101.714 5.86467L102.825 6.08212C103.885 6.26969 104.326 6.79868 104.148 7.65909C104.03 8.23936 103.721 8.74007 103.222 9.17122C102.723 9.60236 102.253 9.82344 101.823 9.82443L101.533 9.82509L100.654 10.2571L99.3032 9.83021L98.6434 9.90172C98.4935 9.95207 98.2935 9.97252 98.0535 9.97307C97.5735 9.97418 97.1633 9.87512 96.8229 9.6859L96.6622 9.39626C96.1624 9.49741 95.8425 9.53815 95.6925 9.53849C95.5025 9.53893 95.2724 9.48945 95.0022 9.40007C94.453 9.74133 93.5036 10.0235 92.1542 10.2666C91.4842 10.2681 90.7441 10.2498 89.934 10.2017C89.9439 10.1517 90.0735 9.98138 90.3329 9.70079L88.3442 10.2853L88.2042 10.2857C87.8642 10.2864 87.175 10.628 86.1165 11.3005L85.2755 10.8724L84.7862 11.1635L83.1651 10.6672L82.0562 11.1698L80.6162 11.1731L78.3672 11.6082L76.399 12.4028L75.9584 12.1138L74.8899 12.7662L73.9499 12.7684L73.6607 13.129L73.6927 13.989L72.166 15.4325L72.7261 15.5012L72.3107 17.5121L72.9127 18.3808L72.1441 18.9625C71.4959 19.784 71.1372 20.3348 71.0779 20.625C71.0383 20.8151 71.1487 20.9648 71.4189 21.0542L72.3382 20.7621C72.5881 20.7115 72.828 20.691 73.078 20.6904C73.7783 20.7888 74.2885 20.8776 74.5987 20.9769L75.9975 20.4737L77.108 20.6912L80.638 20.6831C80.828 20.6826 81.2476 20.5117 81.8969 20.1802C82.2373 20.3694 82.7675 20.4682 83.4875 20.4665C83.5875 20.4663 83.7575 20.4459 84.0074 20.3953L84.7274 20.3937C84.6274 20.3939 84.5373 20.3741 84.4572 20.3243L84.6772 20.3238C84.9672 20.3231 85.8075 20.4412 87.198 20.678C87.3579 20.5976 88.1177 20.5159 89.4775 20.4328C90.2573 20.351 90.7472 20.3099 90.9372 20.3094C91.6572 20.3078 92.3472 20.3262 93.0074 20.3747L93.6672 20.3032C94.4163 19.9214 95.0859 19.7199 95.6559 19.7186C96.0859 19.7176 96.506 19.7866 96.9064 19.9357L97.9559 19.7133L98.7467 20.0715L101.775 19.3446L101.637 19.9949L101.616 19.9549Z" fill="black"/>
<path d="M119.312 9.40417L119.082 9.4747L118.079 12.217L117.822 13.7976L118.063 14.0171L116.997 15.6795L116.879 16.8998L115.863 18.2721C115.514 18.8929 115.225 19.4036 114.976 19.7841C115.207 20.0736 115.277 20.3835 115.208 20.7236C115.129 21.1038 114.91 21.4643 114.551 21.8051L114.756 24.2547L113.896 24.2566L113.797 24.3969L114.229 25.4059L113.253 27.3481L113.013 27.3487L112.307 28.7903C112.547 28.7897 112.717 28.7694 112.827 28.7191L112.31 30.1603L112.543 31.4598L111.825 32.4714L111.43 34.7023L111.022 35.6433C111.354 36.1225 111.475 36.5822 111.386 37.0124C111.326 37.3026 111.147 37.613 110.868 37.9536C110.589 38.2943 110.429 38.5046 110.409 38.6047C111.141 39.223 111.642 39.8018 111.913 40.3312L110.975 41.0534L111.866 41.6313C111.271 43.5527 110.373 44.5148 109.173 44.5175C107.973 44.5203 107.292 43.9918 107.129 42.9422L106.878 42.4428C106.336 41.384 106.104 40.6446 106.193 40.2143L105.069 38.7069L105.868 37.9851L105.556 37.4058L105.873 35.8951L105.892 35.395C105.901 34.915 105.94 34.5349 105.999 34.2448C106.059 33.9546 106.198 33.6443 106.417 33.3038L106.396 32.7239L106.81 30.4229L107.09 30.1323L107.95 26.0303L109.112 22.5676L109.434 18.9669L109.943 18.6057L109.553 18.3866L110.29 16.9449L110.398 16.4446L109.978 16.3756L110.745 14.7938C110.233 14.125 110.021 13.1855 110.108 11.9853L111.048 11.9831L112.363 9.82011L112.474 9.95986L113.151 8.8083L112.702 9.23934L113.107 7.2984L114.327 7.2956L114.676 6.6448L116.155 6.14141C117.335 6.2387 118.225 6.42666 118.846 6.71523C119.428 7.3839 119.619 8.17346 119.432 9.0939L119.352 9.45408L119.312 9.40417Z" fill="black"/>
<path d="M174.893 35.6268L173.845 36.8492L171.121 39.5155L169.194 40.8199L166.877 41.9052L164.479 42.7007L162.37 43.1355L161.839 42.9168L160.84 43.2091L159.519 42.9921L157.8 43.286L157.499 42.9967L157.18 43.1374L156.069 42.92L154.339 42.924L153.467 41.916L151.746 41.5599L151.495 41.0605L150.885 41.2019L149.602 39.7648L148.181 39.3381L147.589 38.3994L145.209 38.4049L144.907 37.4656L144.187 37.4672L143.905 36.7479L142.844 36.3203L142.674 36.4607L141.611 35.0231L140.569 34.1655L139.546 32.8679L138.364 32.0106C137.883 31.5817 137.112 31.0035 136.06 30.2859C135.929 29.7562 135.768 29.4965 135.578 29.497L134.518 29.4294L134.288 29.1399L133.238 29.3623L133.083 31.4527L132.633 31.5237L132.695 32.2436L131.541 34.9862C131.662 35.326 131.713 35.8959 131.685 36.7159L131.087 37.5073L130.829 38.3679L130.422 39.9488L129.665 41.1706L129.129 42.6818L127.713 44.6251L125.25 47.4407C123.57 47.4446 122.778 46.7764 122.865 45.4262L123.731 43.6942L124.288 42.3929L124.407 42.1726L124.627 41.8121C124.596 41.7122 124.556 41.5323 124.485 41.2724C124.415 41.0126 124.404 40.7826 124.454 40.5925C124.513 40.3024 124.672 39.992 124.942 39.6514L124.731 39.2919L126.098 37.9187L125.905 36.7692L126.053 36.0488C126.012 35.5689 126.021 35.1589 126.091 34.8287C126.14 34.5886 126.319 34.1782 126.638 33.6075L126.877 33.1769C127.024 32.0266 127.132 31.2763 127.202 30.9462C127.081 30.6165 127.09 30.1064 127.228 29.4361L127.508 29.1455L127.335 27.9259L127.903 27.2746L127.933 27.1345L128.329 25.2636L128.434 23.0333L129.112 22.5318C129.022 22.292 129.031 21.912 129.14 21.3817L129.377 20.2312L129.277 20.2314L129.947 15.8398C130.106 15.5495 130.416 15.1888 130.895 14.7577C130.964 14.4175 131.053 14.1373 131.153 13.8971L131.392 13.4665L131.551 13.0362C131.299 12.1767 131.247 11.3769 131.405 10.6565C131.613 9.64601 132.15 8.59478 133.018 7.48278C134.197 7.19008 134.947 7.04836 135.287 7.04758C135.917 7.04613 136.627 7.2645 137.408 7.69271L138.673 9.62982L138.056 11.2112L138.608 12L137.98 12.9414L138.073 13.8812L136.906 15.3239L136.841 17.344L135.905 19.0762L135.62 21.4568L135.151 21.9579L135.744 23.2566L136.244 23.2554L137.465 23.6126L138.114 23.2511L138.625 23.54L139.204 23.1786L140.875 23.4648L141.614 23.0331L143.762 22.3782L143.812 22.1581L145.392 22.1544C146.02 21.673 146.73 21.3614 147.529 21.2095C147.489 21.1596 147.479 21.1096 147.489 21.0696C147.539 20.8295 148.248 20.6379 149.628 20.4847L151.576 19.7602L152.434 18.7483C152.753 18.6075 153.143 18.4566 153.603 18.3156L153.931 17.4548L154.581 17.4533L154.64 17.1632L155.91 16.9403L156.907 15.638L157.627 15.6364C157.955 14.7756 158.633 14.174 159.663 13.8317L160.221 13.2504L160.389 12.46L161.719 12.317C162.187 11.4559 162.776 10.8045 163.495 10.3729C163.764 9.99226 163.943 9.70185 164.033 9.51164L165.23 8.28889L166.088 7.63692C166.555 6.09585 167.653 5.33332 169.383 5.32935C169.483 5.32913 169.885 6.02821 170.598 7.41657L169.572 9.21893L169.902 9.35817L169.663 9.78872L169.624 10.2988C169.515 10.3491 169.295 10.4896 168.955 10.7304L168.478 11.9614L167.629 12.2534L166.703 13.9155L165.535 14.9982C164.907 15.9096 164.219 16.4912 163.439 16.733C163.479 16.7829 163.48 16.8729 163.45 17.023C163.4 17.2631 163.131 17.7237 162.653 18.3948L160.854 18.759C160.605 19.0495 160.255 19.3103 159.826 19.5513L159.737 19.9815L158.188 20.4851L156.441 21.9291L154.124 23.0144L152.386 24.0984L150.887 24.3918L149.598 25.0448L147.649 25.4093L145.711 26.4237L143.414 27.439L142.654 27.6707C143.155 27.9996 143.606 28.4785 144.008 29.1076L145.26 30.3248L147.353 31.68L147.445 32.2498L148.876 32.6065L150.508 33.7527L152.501 34.8982L153.513 35.8958L154.734 36.253L156.387 37.6093L158.679 38.324L160.429 38.53L163.898 38.092L165.198 38.089L165.518 37.9483C166.037 37.5171 166.566 37.2959 167.096 37.2947C167.366 37.1541 167.686 37.0033 168.055 36.8625L168.085 36.7224L169.602 35.3489L170.181 34.9876L170.36 34.4872C171.049 34.1556 171.709 33.8841 172.328 33.6927L172.098 33.7632L173.977 33.3989L174.939 33.9767L174.883 35.6368L174.893 35.6268Z" fill="black"/>
<path d="M223.433 44.3755C223.136 45.5761 222.167 46.4184 220.529 46.9021L218.066 45.6078L217.276 45.6096L216.494 44.8914L215.344 44.894L214.781 43.4553L214.14 43.0968L213.556 41.4381L212.543 40.0704L212.662 39.4902L212.19 38.9912L212.288 37.841L211.536 36.9827L210.738 33.6046L210.256 32.8157L210.392 30.7953L209.709 29.5769L208.238 29.3603L206.38 30.3045L206.1 29.9452L204.801 30.6682L204.609 29.8786C204.36 29.9292 203.99 29.95 203.51 29.9511C202.98 29.9523 202.6 29.9332 202.369 29.8837L201.789 29.8851L200.111 30.6789L198.501 30.4626L198.211 30.4633L196.922 31.1162L196.061 30.7582C195.151 30.7603 194.501 30.6618 194.101 30.4727L193.741 30.4735L191.683 31.3383L191.131 30.5495L189.91 30.1923L189.581 30.4131C188.234 31.8062 187.256 32.7984 186.657 33.3698L185.448 33.6626C183.064 36.308 181.617 37.7314 181.098 37.9226L180.798 37.9932L177.904 40.8099L177.614 40.8106L175.71 43.0449L172.653 44.5619C172.153 44.6631 171.763 44.704 171.473 44.7047C170.563 44.7067 169.773 44.3686 169.091 43.7001L170.337 41.8973L170.564 40.8167L170.924 40.4559L171.37 39.0149L173.66 38.7196L174.309 38.3581C174.958 38.0166 175.397 37.5156 175.635 36.8451C176.555 36.603 177.174 36.1216 177.522 35.4008C178.96 34.7275 180.018 33.665 180.705 32.2234L182.024 31.7904L184.388 29.125C184.116 28.5956 183.965 27.926 183.943 27.106L185.71 25.8819L185.997 24.5113L188.758 24.725L189.557 24.3631C189.965 23.5422 190.574 22.9708 191.363 22.629L191.79 21.258L193.468 20.4641C193.628 20.3638 193.917 20.2431 194.337 20.1021L194.426 19.6719C194.515 19.2417 194.694 18.8513 194.953 18.5207C196.112 17.7981 196.849 16.8164 197.157 15.5657L198.206 15.3433L198.705 14.6921L199.224 14.6209L201.138 12.0265L201.498 12.0257L202.128 11.7542L202.514 9.93336L203.014 9.93221C204.481 8.62884 205.259 7.78706 205.348 7.40685L205.767 7.11589L205.635 6.03619C207.082 4.64287 208.17 3.92037 208.9 3.86869L210.507 2.715L211.761 4.29213L213.553 5.36802L213.378 7.23843C213.558 7.52802 213.689 7.81772 213.77 8.09753C214.271 8.91638 214.473 9.75592 214.395 10.6161L214.449 12.416L215.193 13.9943L215.338 16.374L215.241 17.5242L216.205 19.102L215.806 19.6029L216.277 20.1018L215.97 21.5425L215.883 22.6227C215.584 23.3434 215.455 23.6037 215.505 23.4136L215.785 23.7729L216.097 24.3522C216.727 24.3008 217.207 24.2297 217.506 24.129L219.666 24.124C220.027 24.2232 220.307 24.2626 220.497 24.2621C220.787 24.2615 221.106 24.1507 221.466 23.9399C221.825 23.7191 222.335 23.6179 223.005 23.6164C223.485 23.6153 224.156 23.8537 225.017 24.3318L227.147 24.4669C227.158 24.8469 227.149 25.1369 227.109 25.327C226.961 26.0473 226.482 26.5984 225.683 26.9903L224.682 26.6325L222.365 28.0779L220.755 27.8616L219.956 28.2234L218.346 28.3671L218.405 28.0769L216.446 28.5114L216.287 28.9418L216.081 30.6023L216.744 31.9008L216.617 33.2011L217.792 35.4984L217.484 36.2891L217.996 36.9379L219.162 39.5952L220.125 40.813L220.296 41.3926L221.457 42.04L221.72 43.1894L223.423 44.3355L223.433 44.3755ZM209.738 24.9668L209.668 24.967L209.046 24.1784L210.065 23.4561C209.744 23.1268 209.653 22.617 209.791 21.9467L209.341 21.6577L209.594 18.7171L209.011 17.4785L209.058 16.2484L208.978 15.9585L208.478 15.9597L208.802 13.3689L208.349 12.43L208.019 12.2907L207.868 12.0011L207.47 12.502L205.285 14.667L204.447 15.8889L202.74 17.1929L202.183 18.4941L200.375 19.2183C199.828 20.6595 198.901 21.6917 197.562 22.3247L196.755 23.7666L195.628 24.7092L196.278 24.7077C197.078 24.9959 197.769 25.1343 198.349 25.133L198.639 25.1323C198.958 24.9916 199.258 24.9109 199.548 24.9102C199.888 24.9094 200.248 25.0086 200.639 25.1977L200.909 25.2671C201.209 25.2164 201.669 25.1953 202.289 25.1939C203.059 25.1921 203.629 25.2108 203.999 25.26L206.578 24.9641L208.05 25.8207C208.939 25.4787 209.489 25.1474 209.698 24.8069C209.688 24.8569 209.698 24.8769 209.758 24.8768L209.738 24.9468L209.738 24.9668Z" fill="black"/>
<path d="M354.435 42.0474C354.138 43.2481 353.169 44.0903 351.531 44.5741L349.068 43.2798L348.278 43.2816L347.496 42.5634L346.346 42.566L345.783 41.1273L345.142 40.7688L344.558 39.1101L343.545 37.7424L343.664 37.1621L343.192 36.6632L343.29 35.513L342.538 34.6547L341.74 31.2765L341.258 30.4876L341.394 28.4673L340.711 27.2489L339.24 27.0323L337.382 27.9765L337.102 27.6172L335.803 28.3401L335.611 27.5506C335.362 27.6012 334.992 27.622 334.512 27.6231C333.982 27.6243 333.602 27.6052 333.371 27.5557L332.791 27.5571L331.113 28.3509L329.503 28.1346L329.213 28.1353L327.924 28.7882L327.063 28.4302C326.153 28.4323 325.503 28.3338 325.103 28.1447L324.743 28.1455L322.685 29.0102L322.133 28.2215L320.912 27.8643L320.583 28.0851C319.236 29.4782 318.258 30.4704 317.659 31.0418L316.45 31.3346C314.066 33.98 312.619 35.4034 312.1 35.5945L311.8 35.6652L308.906 38.4819L308.616 38.4825L306.712 40.7169L303.655 42.2339C303.155 42.3351 302.765 42.376 302.475 42.3766C301.565 42.3787 300.775 42.0405 300.093 41.3721L301.339 39.5692L301.566 38.4887L301.926 38.1279L302.372 36.6869L304.662 36.3916L305.311 36.0301C305.96 35.6886 306.399 35.1876 306.637 34.5171C307.557 34.275 308.176 33.7935 308.524 33.0727C309.962 32.3994 311.02 31.337 311.707 29.8954L313.026 29.4624L315.39 26.797C315.118 26.2676 314.967 25.5979 314.945 24.778L316.712 23.5539L316.999 22.1833L319.76 22.3969L320.559 22.0351C320.967 21.2142 321.576 20.6428 322.365 20.301L322.792 18.93L324.47 18.1361C324.63 18.0358 324.919 17.9151 325.339 17.7741L325.428 17.3439C325.517 16.9137 325.696 16.5233 325.955 16.1927C327.114 15.47 327.851 14.4884 328.159 13.2376L329.208 13.0152L329.707 12.3641L330.226 12.2929L332.14 9.6985L332.5 9.69767L333.13 9.42623L333.516 7.60534L334.016 7.60419C335.483 6.30082 336.261 5.45904 336.35 5.07883L336.769 4.78787L336.637 3.70817C338.084 2.31485 339.172 1.59235 339.902 1.54067L341.509 0.386984L342.763 1.96411L344.555 3.04L344.38 4.91041C344.56 5.2 344.691 5.4897 344.771 5.76951C345.273 6.58837 345.475 7.4279 345.397 8.28809L345.451 10.088L346.195 11.6663L346.341 14.0459L346.243 15.1962L347.207 16.774L346.808 17.2749L347.279 17.7738L346.972 19.2145L346.885 20.2947C346.586 21.0154 346.457 21.2757 346.507 21.0856L346.787 21.4449L347.099 22.0242C347.729 21.9728 348.209 21.9017 348.508 21.801L350.668 21.796C351.029 21.8952 351.309 21.9346 351.499 21.9341C351.789 21.9335 352.108 21.8227 352.468 21.6119C352.827 21.3911 353.337 21.2899 354.007 21.2884C354.487 21.2873 355.158 21.5257 356.019 22.0038L358.149 22.1389C358.16 22.5188 358.151 22.8089 358.111 22.999C357.963 23.7193 357.484 24.2704 356.685 24.6622L355.684 24.3045L353.367 25.7498L351.757 25.5335L350.958 25.8954L349.348 26.0391L349.407 25.7489L347.448 26.1834L347.289 26.6138L347.083 28.2743L347.746 29.5728L347.619 30.873L348.794 33.1704L348.486 33.9611L348.998 34.6099L350.164 37.2672L351.127 38.485L351.298 39.0646L352.459 39.712L352.722 40.8614L354.425 42.0075L354.435 42.0474ZM340.74 22.6388L340.67 22.639L340.048 21.8504L341.067 21.1281C340.746 20.7988 340.655 20.289 340.793 19.6187L340.343 19.3297L340.596 16.3891L340.013 15.1505L340.06 13.9203L339.98 13.6305L339.48 13.6317L339.804 11.0409L339.351 10.102L339.021 9.96272L338.87 9.67306L338.472 10.174L336.287 12.339L335.449 13.5609L333.742 14.8648L333.185 16.1661L331.377 16.8903C330.83 18.3315 329.903 19.3637 328.564 19.9967L327.757 21.4386L326.63 22.3812L327.28 22.3797C328.08 22.6678 328.771 22.8063 329.351 22.8049L329.641 22.8043C329.96 22.6635 330.26 22.5828 330.55 22.5822C330.89 22.5814 331.25 22.6806 331.641 22.8697L331.911 22.9391C332.211 22.8884 332.671 22.8673 333.291 22.8659C334.061 22.8641 334.631 22.8828 335.001 22.932L337.58 22.6361L339.052 23.4927C339.941 23.1506 340.491 22.8194 340.7 22.4789C340.69 22.5289 340.7 22.5489 340.76 22.5488L340.74 22.6188L340.74 22.6388Z" fill="#FF2929"/>
<path d="M377.104 6.78531L376.874 6.85583L375.87 9.59814L375.614 11.1787L375.854 11.3982L374.788 13.0606L374.671 14.2809L373.654 15.6532C373.306 16.274 373.017 16.7847 372.768 17.1653C372.998 17.4548 373.069 17.7646 373 18.1048C372.921 18.4849 372.702 18.8454 372.342 19.1863L372.548 21.6358L371.688 21.6378L371.588 21.778L372.021 22.787L371.045 24.7293L370.805 24.7298L370.098 26.1714C370.338 26.1709 370.508 26.1505 370.618 26.1002L370.102 27.5414L370.335 28.8409L369.617 29.8525L369.222 32.0835L368.814 33.0244C369.145 33.5036 369.266 33.9634 369.177 34.3936C369.118 34.6837 368.939 34.9941 368.659 35.3348C368.38 35.6754 368.221 35.8858 368.201 35.9858C368.932 36.6041 369.434 37.183 369.705 37.7124L368.767 38.4345L369.658 39.0125C369.062 40.9338 368.164 41.8959 366.964 41.8987C365.764 41.9014 365.083 41.373 364.921 40.3233L364.67 39.8239C364.127 38.7652 363.896 38.0257 363.985 37.5955L362.861 36.0881L363.659 35.3662L363.348 34.7869L363.665 33.2762L363.684 32.7762C363.692 32.2961 363.732 31.9161 363.791 31.6259C363.85 31.3358 363.989 31.0255 364.209 30.6849L364.187 30.105L364.602 27.804L364.881 27.5134L365.742 23.4114L366.904 19.9487L367.226 16.348L367.735 15.9868L367.345 15.7677L368.081 14.326L368.19 13.8258L367.77 13.7567L368.536 12.175C368.025 11.5061 367.813 10.5666 367.9 9.36643L368.84 9.36427L370.155 7.20125L370.265 7.341L370.943 6.18944L370.494 6.62047L370.899 4.67953L372.119 4.67674L372.468 4.02593L373.946 3.52254C375.127 3.61983 376.017 3.80779 376.638 4.09637C377.219 4.76504 377.411 5.5546 377.223 6.47503L377.144 6.83521L377.104 6.78531Z" fill="#FF2929"/>
</svg>
