<svg transform="scale(1)" version="1.1" id="Layer_1" xmlns="http://www.w3.org/2000/svg" xmlns:xlink="http://www.w3.org/1999/xlink" x="0px" y="0px" viewBox="0 0 500 500" xml:space="preserve" class="show_show__wrapper__graphic__5Waiy "><title>React</title><style type="text/css">
	.st0{fill:#FFFFFF;}
	.st1{fill:#111111;}
	.st2{fill:#066b2d;}
</style><g id="path"><path class="st0" d="M221.6,191.8c-5.5,2.9-11.7,7.3-11.2,13.5c0.6,7,9,10.1,15.9,11.5l41.1,8.5c6.6,1.4,15.1,5,14.2,11.8
		c-0.6,4.6-5.5,7.3-9.8,9.1c-72.7,30.4-152.4,44-221.4,82c-12.5,6.9-25,14.8-33.4,26.4S4.7,382.1,10.7,395
		c5.8,12.4,19.1,19.7,32.4,22.8c18.5,4.2,37.7,2,56.5-0.2l141.7-16.9c-11.9-9.2-24.9-20.5-24.8-35.5c0.1-14.4,12.6-25.6,24.9-33
		c28.2-17,61.1-25.3,88.3-43.8c11.2-7.6,22.1-18.4,22.8-31.9c0.7-13.2-8.8-25.2-20.4-31.5s-25.2-7.9-38.2-9.4s-26.6-2.9-38.4-8.9
		c-3.8-1.9-7.8-5.1-7.6-9.3c0.1-4.9,5.4-7.7,9.9-9.6l45.7-18.6c-5.8-1.1-27.5-2.5-41.1,1.3C248.6,174.4,234.2,185.1,221.6,191.8z"></path><path class="st1" d="M66.4,421c-7.9,0.1-15.7-0.7-23.4-2.4c-15.8-3.6-27.8-12.1-33-23.2c-5.6-12.1-3.2-28.3,6.3-41.2
		c8.7-11.9,21.3-19.8,33.7-26.6c41.1-22.5,86.6-36.8,130.7-50.5c30.1-9.4,61.3-19.1,90.8-31.5c4.1-1.7,8.8-4.2,9.4-8.5
		c0.8-5.8-6.5-9.5-13.6-11l-41.1-8.5c-10.5-2.2-16-6.3-16.5-12.2c-0.4-5.2,3.4-9.9,11.6-14.2l0,0c3.9-2.1,7.9-4.5,12.1-7.1
		c9.4-5.7,19.2-11.6,28.8-14.3c13.5-3.8,35.4-2.5,41.4-1.4c0.3,0.1,0.6,0.3,0.6,0.7c0,0.3-0.1,0.6-0.5,0.8l-45.7,18.6
		c-4,1.6-9.3,4.3-9.4,8.9c-0.1,4.2,4.5,7.2,7.2,8.6c11.6,5.9,25,7.4,38,8.8h0.1c12.4,1.4,26.4,2.9,38.5,9.4
		c13.3,7.2,21.5,19.8,20.8,32.2c-0.6,11.6-8.4,22.5-23.1,32.5s-31.5,17.2-47.6,24.1c-13.7,5.9-27.8,11.9-40.7,19.7
		c-11.1,6.7-24.4,17.8-24.6,32.4c-0.1,14,11.7,25.1,24.5,34.9c0.3,0.3,0.4,0.7,0.1,1.1c-0.1,0.2-0.3,0.3-0.5,0.3L99.8,418.4
		C88.8,419.7,77.6,421,66.4,421z M222,192.5c-7.6,4.1-11.2,8.3-10.8,12.8c0.4,5.2,5.6,8.8,15.3,10.9l41.1,8.5
		c14.8,3.1,15.1,10.4,14.8,12.6c-0.7,5-5.8,7.8-10.3,9.7c-29.6,12.4-60.8,22.1-90.9,31.5c-44,13.7-89.5,27.9-130.4,50.4
		c-12.2,6.7-24.7,14.5-33.2,26.2c-9.1,12.5-11.5,28.1-6.1,39.7c5,10.7,16.6,18.8,31.9,22.4c18.5,4.3,37.7,2,56.2-0.2l139.9-16.7
		c-12.5-9.8-23.7-20.9-23.6-35c0.1-15.3,13.8-26.8,25.3-33.7c13-7.8,27.2-13.9,40.9-19.8c16.1-6.9,32.7-14,47.4-24
		c14.3-9.7,21.9-20.3,22.5-31.4c0.5-9.7-5.5-23-20-30.8c-11.8-6.4-25.7-7.9-38-9.3h-0.1c-13.1-1.4-26.6-2.9-38.5-9
		c-5.3-2.7-8.2-6.3-8.1-10c0.1-5.4,6-8.4,10.4-10.2l43.1-17.5c-8.2-1-26.3-1.6-38,1.7c-9.4,2.6-19.1,8.5-28.4,14.1
		C229.9,188,225.9,190.4,222,192.5L222,192.5z M221.6,191.8L221.6,191.8z"></path></g><g id="shadow"><path class="st1" d="M17.2,441.3c-3.8,4-5.1,10.8-1.6,14.9c2.2,2.5,5.5,3.5,8.7,4.3c65.6,17.3,134.8,14.6,198.9-7.7
		c14.3-5,28.7-11.3,39.6-21.9c4.6-4.5,8.8-10.9,7-17.1c-2.4-8.1-12.8-10.2-21.3-10.6c-64-3.1-131.7,2.9-192.9,22.7
		C44.1,429.7,25.5,432.6,17.2,441.3z"></path><path class="st1" d="M286.7,445.4c-2.2,1.3-4.6,3.4-4.1,5.9c0.4,1.9,2.2,3.1,4,3.9c15.7,7.4,34.2,4.5,51,0.2s34-9.9,51.2-7.4
		c11.4,1.7,22.8,6.9,34,4.1c17.4-4.4,26.2-26.5,43.9-30.1c4.4-0.9,9.1-0.5,13.4-2.1s7.9-6.4,6-10.5c-1.7-3.7-6.6-4.5-10.7-4.6
		c-33.6-1.2-67,4.9-98,17.8c-15.6,6.4-31.3,15.2-48.4,16.9c-6.7,0.7-11.6-1.9-18-2.2C302.9,437,293.4,441.4,286.7,445.4z"></path></g><g id="rock"><path class="st2" d="M190.6,250.2c-5.6-3.2-11.9-5.4-16.8-9.6c-5.8-4.9-9.2-11.9-14.5-17.3c-7.2-7.5-17.1-11.5-26.7-15.3
		c-6.8-2.7-14-5.5-21.3-4.8c-10.5,0.9-19.3,8.7-24.7,17.8s-8.2,19.4-11.9,29.2c-11.6,30.7-32.9,59.2-33,92c0,12.5,3.1,25,2.2,37.5
		c-0.8,10.1-4.2,19.9-5.5,29.9s0.2,21.4,7.5,28.4c6,5.8,14.7,7.5,22.8,9c23.5,4.2,47.2,7.8,71,6.5c20.2-1.1,40-5.6,59.7-10.2
		c14.6-3.4,29.3-6.8,42.9-13c5.6-2.6,11.4-6,14-11.5c3.1-6.5,1.3-14.2-0.5-21.2c-11.5-43.1-24-85.2-47.4-123.5
		C202.8,264.8,200.8,256,190.6,250.2z"></path><path class="st1" d="M100.7,278.4c-0.1,0-0.2,0-0.2-0.1c-0.2-0.1-0.3-0.4-0.2-0.7c4.9-8.9,10.9-20,21-25.9c1.6-0.9,3.3-1.7,4.9-2.4
		c2.7-1.1,5.2-2.5,7.6-4.2c0.7-0.5,1.3-1.1,2-1.7c1.5-1.6,3.3-2.8,5.4-3.7c2.7-0.9,5.7-0.3,8.1,0.1l26.7,5.2
		c0.3,0.1,0.4,0.3,0.4,0.6c-0.1,0.3-0.3,0.4-0.6,0.4c0,0,0,0,0,0l-26.6-5.2c-2.4-0.5-5.1-1-7.6-0.2c-1.9,0.8-3.6,2-5,3.5
		c-0.6,0.6-1.3,1.2-2,1.7c-2.4,1.8-5,3.2-7.8,4.4c-1.6,0.8-3.3,1.5-4.8,2.4c-8.7,5-14.3,14.1-18.9,22.2c0,0.1,0,0.2-0.1,0.3l-1.7,3
		C101.1,278.3,100.9,278.4,100.7,278.4z"></path><path class="st1" d="M116.8,231.2c-0.3,0-0.5-0.2-0.5-0.5c0-0.1,0-0.2,0.1-0.2c1.8-3.9,4.3-9.2,8.9-11.7s10.2-1.5,15.9-0.2
		c0.3,0.1,0.4,0.3,0.4,0.6c-0.1,0.3-0.3,0.4-0.6,0.4c0,0,0,0,0,0c-5.5-1.2-10.8-2.2-15.2,0.1s-6.7,7.5-8.5,11.3
		C117.2,231.2,117,231.3,116.8,231.2z"></path><path class="st1" d="M132.9,436.2h-0.1c-4.5-1-9.2-2.1-13.4-4.3c-4.8-2.5-8.2-6.1-9.7-10.2c-0.3-0.9-0.6-1.9-0.8-2.9
		c-0.8-3-1.6-5.8-4-6.9c-1.7-0.7-3.6-0.3-5.6,0.1c-0.7,0.1-1.5,0.3-2.2,0.4c-5.2,0.7-10.4-1.6-14.6-3.5c-5.3-2.4-10.6-5.2-12.8-10.2
		c-0.8-2.2-1.3-4.6-1.4-7c-0.1-1.5-0.3-3-0.6-4.4c-1.1-5.3-4.7-9.6-8.2-13.9c-1.3-1.6-2.6-3.2-3.8-4.8c-8.9-12.5-11.3-28.4-6.6-43
		c0.1-0.3,0.4-0.4,0.6-0.3c0.3,0.1,0.4,0.4,0.3,0.6c-4.6,14.3-2.2,29.9,6.5,42.1c1.2,1.6,2.5,3.2,3.8,4.8c3.5,4.3,7.2,8.8,8.4,14.3
		c0.3,1.5,0.5,3,0.6,4.5c0.1,2.3,0.5,4.6,1.3,6.7c2,4.7,7,7.3,12.3,9.7c4,1.8,9.1,4.1,14,3.4c0.7-0.1,1.4-0.3,2.1-0.4
		c2.1-0.5,4.2-0.9,6.2,0c2.9,1.3,3.8,4.5,4.6,7.5c0.3,1,0.5,1.9,0.8,2.8c1.4,3.9,4.7,7.3,9.2,9.6c4.1,2.1,8.7,3.2,13.2,4.2
		c0.3,0.1,0.4,0.3,0.4,0.6c0,0,0,0,0,0C133.3,436.1,133.1,436.2,132.9,436.2z"></path><path class="st1" d="M70.1,436.1c-0.2,0-0.3-0.1-0.4-0.2c-1.8-2.5-4.7-3.9-7.7-5.2c-2.4-1-4.7-2.4-6.8-4.1
		c-3.7-3.4-5.1-8.6-6.2-12.8c-0.1-0.3,0.1-0.6,0.4-0.6s0.6,0.1,0.6,0.4c1.1,4.1,2.4,9.1,5.9,12.4c2,1.6,4.2,2.9,6.5,3.9
		c3,1.4,6.1,2.9,8.1,5.6c0.2,0.2,0.1,0.5-0.1,0.7c0,0,0,0,0,0C70.3,436.1,70.2,436.1,70.1,436.1z"></path><path class="st1" d="M174.5,430.8c-0.1,0-0.1,0-0.2,0c-0.3-0.1-0.4-0.4-0.3-0.7c0,0,0,0,0,0c2.2-5.2,4.5-10.7,7.9-15.4
		c2.7-3.7,7.3-8.6,13.8-10.3c6.1-1.6,12.6,0.2,16.2,4.6c0.9,1.1,1.7,2.3,2.4,3.6c1.4,2.5,2.8,4.8,5.2,5.7s4.9,0.2,7.4-0.5l1.3-0.3
		c2.4-0.6,6.8-1.1,9,1.8c0.2,0.2,0.1,0.5-0.1,0.7c-0.2,0.2-0.5,0.1-0.7-0.1c0,0,0,0,0,0c-2-2.6-6.2-1.9-8-1.5l-1.3,0.3
		c-2.7,0.7-5.4,1.4-8,0.4s-4.3-3.6-5.7-6.1c-0.7-1.2-1.4-2.4-2.3-3.5c-3.3-4.1-9.4-5.8-15.2-4.3c-6.2,1.6-10.7,6.3-13.3,9.9
		c-3.4,4.6-5.6,10-7.8,15.2C174.9,430.7,174.7,430.8,174.5,430.8z"></path><path class="st1" d="M239.2,411.4c-0.2,0-0.4-0.1-0.5-0.3c-1.5-3.9-2.9-7.9-4.3-11.9c-0.8-2.3-1.5-4.8-0.6-7
		c0.7-1.4,1.7-2.5,2.9-3.5c0.8-0.6,1.5-1.3,2.1-2.1c1.3-1.9,1.8-4.1,1.4-6.4c-0.4-2.3-1.1-4.5-2-6.6c-0.1-0.2,0-0.5,0.3-0.6
		c0,0,0,0,0,0c0.3-0.1,0.5,0,0.6,0.3c0,0,0,0,0,0c1,2.2,1.6,4.5,2,6.9c0.4,2.5-0.2,5-1.6,7.1c-0.7,0.8-1.4,1.6-2.2,2.2
		c-1.1,0.8-2,1.9-2.7,3.1c-0.8,1.9-0.1,4.2,0.6,6.3c1.4,3.9,2.8,7.9,4.3,11.9c0.1,0.3,0,0.5-0.3,0.6c0,0,0,0,0,0L239.2,411.4z"></path></g><g id="unlocked"><path class="st1" d="M326.2,100.3C325,88,322.9,75.1,315,65.5c-7-8.5-17.8-13.2-28.6-14.5c-12.7-1.5-26.6,1.7-35.2,11.1
		c-6.5,7.1-9.3,16.8-11.4,26.1c-5.4,24-7.3,48.7-5.8,73.3c0.3,4.6-0.9,10,4.2,11c5.5,1,12.1,0.2,17.7,0.2c11.8,0,23.5-0.3,35.3-0.8
		c3-0.1,34.2-1.1,34.4-2.5C328.1,146.5,328.4,123.3,326.2,100.3z M319.4,162.4c-0.1,1.2-27.2,2.1-29.8,2.2
		c-10.2,0.5-20.4,0.7-30.6,0.7c-4.9,0-10.6,0.7-15.3-0.2c-4.5-0.8-3.4-5.5-3.6-9.6c-1.3-21.3,0.4-42.7,5.1-63.5
		c1.8-8.1,4.3-16.5,9.9-22.7c7.5-8.2,19.5-11,30.5-9.6c9.4,1.1,18.8,5.2,24.8,12.6c6.8,8.3,8.7,19.5,9.7,30.1
		C321.9,122.4,321.7,142.4,319.4,162.4z"></path><path class="st0" d="M262.9,94.6c0.8-7,2.1-14.3,5.7-19.7c5-7.4,13.9-10.1,22.4-8.8c8.3,1.2,15.8,5.8,20.6,12.7
		c5.9,8.4,7.6,19.5,8.5,29.8c1.6,17.9,1.5,36-0.5,53.9c-0.1,1-21-2.6-22.9-2.9c-7.3-1.1-14.4-2.4-21.3-3.9c-3.2-0.7-6.9-0.9-10-2.2
		c-2.9-1.2-2.4-4.6-2.8-7.7C260.8,128.7,260.9,111.6,262.9,94.6L262.9,94.6z"></path><path class="st1" d="M318.8,163.4c-1.9,0-6.8-0.5-20.6-2.8l-1.6-0.3c-7.3-1.1-14.5-2.4-21.4-3.9c-0.9-0.2-1.9-0.4-3-0.5
		c-2.4-0.3-4.8-0.9-7.1-1.8c-2.7-1.2-2.9-4-3.1-6.6c0-0.6-0.1-1.2-0.1-1.8c-0.9-7.9-1.3-15.9-1.3-23.8c0-9.2,0.5-18.4,1.6-27.5
		c0.9-7.1,2.1-14.5,5.9-20c4.8-7.2,13.5-10.6,23.1-9.1c8.5,1.3,16.2,6,21.1,13c6,8.5,7.7,19.6,8.6,30.2c1.6,18,1.5,36.1-0.5,54.1
		c0,0.2-0.2,0.4-0.3,0.6C320,163.3,319.8,163.4,318.8,163.4z M286.8,66.5c-7.4,0-13.8,3.1-17.6,8.8c-3.5,5.3-4.8,12.4-5.6,19.4l0,0
		c-1.1,9.1-1.6,18.2-1.5,27.3c0,7.9,0.5,15.8,1.4,23.6c0.1,0.6,0.1,1.2,0.1,1.8c0.1,2.4,0.3,4.5,2.2,5.3c2.2,0.8,4.5,1.4,6.8,1.7
		c1,0.2,2,0.3,3,0.5c6.9,1.5,14.1,2.8,21.3,3.9l1.6,0.3c14.3,2.4,19.2,2.9,20.5,2.8c1.9-17.7,2-35.6,0.4-53.3
		c-0.9-10.4-2.5-21.2-8.3-29.4c-4.7-6.7-12-11.1-20.1-12.3C289.6,66.7,288.3,66.5,286.8,66.5L286.8,66.5z M262.9,94.6L262.9,94.6z"></path><path class="st0" d="M266.7,115.8c-0.4,1.8,0.2,3.6,1.7,4.8c1,0.8,2.4,1,3.7,0.6c1-0.4,1.7-1.3,2-2.2c0.3-1,0.4-2.1,0.1-3.1
		c-0.1-0.8-0.5-1.6-1-2.2C271.1,111.3,267.4,113.2,266.7,115.8z"></path><path class="st1" d="M270.9,122.1c-1,0-2.1-0.4-2.9-1c-1.7-1.3-2.5-3.5-2-5.5l0,0c0.6-1.8,2-3.2,3.9-3.6c1.4-0.4,2.9,0,3.9,1.1
		c0.6,0.7,1,1.6,1.2,2.6c0.3,1.1,0.2,2.3-0.1,3.5c-0.4,1.2-1.3,2.2-2.4,2.7C271.9,122,271.4,122.1,270.9,122.1z M267.4,116
		c-0.3,1.5,0.2,3,1.4,3.9c0.8,0.7,1.9,0.9,2.9,0.5c0.8-0.4,1.3-1,1.6-1.8c0.3-0.9,0.3-1.8,0.1-2.7c-0.1-0.7-0.4-1.3-0.9-1.9
		c-0.6-0.7-1.5-0.9-2.4-0.7C268.9,113.8,267.9,114.7,267.4,116z"></path><path class="st1" d="M280.4,149.4c-0.3,0-0.5-0.2-0.5-0.5c0,0,0,0,0,0c-0.6-24.9,0.3-49.8,2.7-74.6c0-0.3,0.3-0.5,0.5-0.5
		c0.3,0,0.5,0.3,0.5,0.5c-2.4,24.7-3.3,49.6-2.7,74.5C280.9,149.1,280.6,149.4,280.4,149.4C280.4,149.4,280.4,149.4,280.4,149.4
		L280.4,149.4z"></path><path class="st1" d="M297.6,149.5L297.6,149.5c-0.3,0-0.5-0.2-0.5-0.5c0,0,0,0,0,0c0.5-24.5-0.6-49-3.5-73.4c0-0.3,0.2-0.5,0.4-0.6
		c0.3,0,0.5,0.2,0.6,0.4c2.8,24.4,4,49,3.5,73.5C298.1,149.3,297.9,149.5,297.6,149.5z"></path><path class="st1" d="M311.7,145.9L311.7,145.9c-0.3,0-0.5-0.2-0.5-0.5c0,0,0,0,0,0c0.7-20-0.9-40-4.9-59.6c0-0.3,0.1-0.5,0.4-0.6
		c0.3-0.1,0.5,0.1,0.6,0.4c0,0,0,0,0,0c4,19.7,5.7,39.8,4.9,59.9C312.2,145.7,312,145.9,311.7,145.9
		C311.7,145.9,311.7,145.9,311.7,145.9z"></path></g><g id="character"><path class="st2" d="M424.4,313.4c5.5,12.7,14.1,25,26.8,34c8.4,6,18.4,10.2,26.7,16.2s15.4,14.7,14.1,23.2
		c-15.8-6.6-33.8-3.7-49.7,0.1s-32.6,8.5-49.4,4.9c-13.4-2.9-25-10.5-36-18c-0.5-31.2-19.5-62.2-19.3-93.3c0-3.9,0.5-8.1,3.9-10.7
		c2.8-2.1,6.9-2.6,10.8-2.9l38.8-3.6c5.1-0.5,10.6-0.9,15.5,0.9c4.2,1.5,7.3,5,7.5,8.6c0.2,4.2,0.8,8.5,1.7,12.6
		C417.8,295,420.6,304.4,424.4,313.4z"></path><path class="st1" d="M385.9,197.1c3.4,0.4,6.6,2.1,9,4.7c2.2,2.5,4,5.2,5.5,8.1l6.9,12.5c2.7,4.8,5.4,10.2,3.9,15.1
		c-1.2,3.8-4.8,6.5-8.7,8.3c-2.8,1.3-6.1,2.7-6.8,5.4c-0.4,2.1,0.5,4.3,2.4,5.5c1.9,1.3,4.3,1.5,6.4,0.5c-0.9,3-3.6,5.1-6.8,5.2
		c-3.4,0.2-6.7-1.5-8.6-4.2c-3.8,1.3-8.4-0.4-11.7-3.1s-5.3-6.2-7.5-9.6c-5.1-8-10.8-15.8-14-24.4s-3.5-18.3,1.9-25.1
		c2.1-2.7,5.5-4.9,9.5-4.4c2.6,0.5,5.1,1.8,6.9,3.8c1.5,1.6,2.4,4.1,4,5.5c0.6-0.3,0.8-1.1,1.2-1.6c0.5-0.6,1.1-1.1,1.8-1.4
		C382.7,197.2,384.3,196.9,385.9,197.1z"></path><path class="st0" d="M382.5,208c5.3,2,10.1,6.2,11.5,11.7c1.1,4.7-0.4,9.5-2.4,13.9c-3,6.5-7.1,12.5-12.1,17.7
		c-3.5,3.6-8.5,7-13.2,5.3s-6.3-7.6-6.8-12.6c-0.9-10.1,0.1-20.3,2.8-30c0.9-3.3,1.4-7.5,5.2-8.2C372,204.8,378.4,206.4,382.5,208z"></path><path class="st1" d="M368.9,257.7c-1,0-2-0.2-2.9-0.5c-4.1-1.5-6.6-6.1-7.3-13.3c-0.9-10.2,0.1-20.5,2.9-30.3
		c0.1-0.4,0.2-0.9,0.4-1.4c0.8-3.1,1.7-6.7,5.5-7.4c4.5-0.8,10.9,0.7,15.4,2.4l0,0c6.2,2.4,10.7,6.9,11.9,12.2s-0.8,10.8-2.5,14.4
		c-3,6.6-7.2,12.7-12.2,17.9C377.7,254.1,373.5,257.7,368.9,257.7z M370.2,206.1c-0.9,0-1.7,0.1-2.5,0.2c-2.8,0.5-3.5,3.3-4.3,6.3
		c-0.1,0.5-0.2,1-0.4,1.4c-2.8,9.7-3.7,19.8-2.8,29.8c0.4,4.6,1.8,10.4,6.3,12c4.8,1.8,9.9-2.4,12.5-5.1c4.9-5.1,9-11,11.9-17.5
		c2.5-5.4,3.2-9.7,2.4-13.4c-1.1-4.8-5.2-9-11-11.2C378.4,207.1,374.4,206.3,370.2,206.1L370.2,206.1z"></path><path class="st1" d="M375,230.2c-0.2,0.3-0.5,0.6-0.9,0.6c-0.3-0.1-0.5-0.3-0.5-0.6c-0.1-0.3-0.1-0.5,0-0.8c0.3-1.1,0.7-2.1,1.4-3
		c0.2-0.3,0.4-0.5,0.8-0.6C377.5,225.7,375.3,229.8,375,230.2z"></path><path class="st1" d="M369.4,228c-0.2,0.3-0.4,0.5-0.8,0.5s-0.5-0.5-0.5-0.9c0-0.8,0.5-4.3,1.9-3.8S369.9,227.4,369.4,228z"></path><path class="st2" d="M386.5,202.2c2.9,1.2,5.2,3.5,6.4,6.4c1.1,2.9,1.8,5.9,2,9.1c0.2,3.1,0.7,6.2,1.5,9.2c0.7,2.1,2.2,4.5,4.4,4.5
		c-2.9,2.3-7.2,3-10.3,0.9s-4.1-5.6-4.6-9.1s-0.5-7.1-1.9-10.3c-0.7-1.7-2-3.2-3.7-3.9c-1.8-0.7-3.8,0-4.7,1.7
		c-0.7-1-1.5-1.9-2.4-2.6c-0.9-0.8-2.1-1.2-3.3-1.1c-1.9,0.2-3.2,2-3.9,3.8c-0.6,2.2-0.9,4.4-0.9,6.7c0,2.3-0.4,4.5-1.3,6.6
		c-0.9,2.1-2.9,3.5-5.2,3.7c-2.6,0-4.8-2.3-5.7-4.8c0.3,0.8,1.5,0.6,2.1,0.1c2.5-1.9,3.5-5.3,3.8-8.5s-0.1-6.4,0.5-9.5
		s2.3-6.3,5.3-7.4c2.5-0.8,5.3-0.3,7.4,1.3c1.3,0.9,2.4,2,3.4,3.2c0.8,0.9,1.5,1.9,2.9,1.6s2.4-1.3,3.7-1.6
		C383.6,201.7,385.1,201.8,386.5,202.2z"></path><path class="st1" d="M373.4,245.4c0.2,0,0.3,0,0.5,0.1c0.2,0.2,0.3,0.4,0.3,0.7c0,2.1-1.7,3.8-3.7,3.8c-1.8,0-3.4-1.3-3.7-3.1
		c-0.1-0.4,0-0.9,0.2-1.2c0.5-0.6,2,0,2.6,0C370.8,245.5,372,245.4,373.4,245.4z"></path><path class="st0" d="M389.6,235.1c1.6-1.3,3.9-1.4,5.6-0.1c1.6,1.3,2.2,3.5,1.5,5.4c-0.8,1.9-2.5,3.2-4.6,3.4c-2,0.1-4-0.9-5.1-2.6
		"></path><path class="st1" d="M391.7,244.6c-2.2,0-4.2-1.1-5.4-2.9c-0.2-0.3-0.1-0.8,0.2-1c0.3-0.2,0.8-0.1,1,0.2c1,1.5,2.7,2.3,4.5,2.3
		c1.8-0.1,3.3-1.2,3.9-2.9c0.6-1.6,0.1-3.5-1.2-4.6c-1.4-1-3.3-1-4.6,0.1c-0.3,0.3-0.8,0.2-1.1-0.1s-0.2-0.8,0.1-1.1
		c1.9-1.5,4.6-1.6,6.5-0.1c1.9,1.5,2.6,4,1.8,6.3c-0.9,2.2-2.9,3.7-5.3,3.8L391.7,244.6z"></path><path class="st1" d="M349.5,339.4c-11.1,0.5-22.9,5-28.3,14.7c-4,7.3-3.8,16.1-2.7,24.3c1.8,12.8,5.4,25.3,10.8,37
		c0.6,1.6,1.5,3,2.7,4.2c1.2,1.2,3,1.7,4.7,1.2c2.2-0.9,2.9-3.6,3.2-6c0.8-8.1-0.7-16.2-0.6-24.3s2.2-16.8,8.4-22.1
		c4.4-3.7,10.4-5.1,16.2-5.3c4.7-0.1,10,0.9,12.5,4.9c2.2,3.5,1.3,8.1,0.4,12.2l-5.5,23.4c-1,3.7-1.6,7.5-1.7,11.4
		c0.1,3.8,1.2,7.8,4,10.5c2.8,2.9,7.1,4.1,11.1,4c4-0.2,8-1,11.9-2.4c10.2-3.2,20.9-7.2,27.6-15.6c1.4-1.8,2.7-4.2,1.9-6.3
		c-1.1-3-5-3.5-8.1-3c-4.2,0.7-8.2,2.5-12.5,2.9s-9.2-0.9-11.1-4.7c-2.2-4.1,0-9.1,1.9-13.4c2.6-5.9,4.9-11.9,6.8-18
		c1.2-4.1,2.3-8.4,1.1-12.5s-4.6-7.1-8.5-9C382.2,341.2,364.2,338.8,349.5,339.4z"></path><path class="st2" d="M326.2,418.5c0.9,2.7,1.8,5.9,0.3,8.7c-1.4,2.2-3.6,3.7-6.2,4.1c-2.5,0.4-5,0.5-7.5,0.4
		c-3.1,0-6.5,0.5-9.4,2.4s-4.9,5.8-3.3,8.2c1.4,2.1,4.7,2.2,7.6,2.1l32.9-1.4c1.7-0.1,3.6-0.3,4.9-1.7c1.5-1.7,1.4-4.2,1.2-6.2
		l-4.9-39.6c0-0.9-0.3-1.8-0.9-2.5c-0.9-0.8-2.3-0.4-3.5,0c-4.1,1.5-14.4,2.9-15.9,8.4C320.1,406.4,324.6,414.2,326.2,418.5z"></path><path class="st2" d="M402.6,423.5c0.2,2.2,1,4.8,3.1,5.3c1.3,0.3,2.7-0.4,3.9-1.1l10.1-5.9c1-0.6,2.2-1.2,3.4-0.8
		c1.6,0.7,1.6,2.9,1.4,4.7c-0.7,4.7-2,10.1-6.3,12.1c-1.1,0.5-2.5,0.9-2.8,2.1c-0.4,1.5,1.3,2.6,2.7,3.1c4.1,1.6,9,3.2,12.7,0.8
		c3-2,3.9-5.9,4.6-9.4l4.5-22.6c0.6-2.4,0.8-4.9,0.7-7.4c-0.2-2.5-1.6-4.8-3.7-6.1c-2.5-1.4-5.6-0.8-8.4-0.1l-11.8,2.7
		c-2.8,0.6-7.6,0.8-10.1,2.3C401.8,406.2,402.1,418.6,402.6,423.5z"></path><path class="st0" d="M324.1,390.1c-1.9,0.4-3.8,1.2-5.5,2.2c-1.7,1.1-2.7,3-2.6,5c0.3,2.3,2.5,4.1,4.8,4.5c2.3,0.3,4.7-0.2,6.8-1.2
		c2.1-1,4.3-1.9,6.5-2.6c2.2-0.5,4.8-0.6,6.5-2.1c2.8-2.5,3.1-8.7-1.1-9.2C334.8,386.4,328.6,388.9,324.1,390.1z"></path><path class="st1" d="M322.2,402.8c-0.5,0-1,0-1.5-0.1c-2.4-0.4-5.1-2.3-5.4-5.1c-0.1-2.3,1-4.5,2.9-5.7c1.7-1.1,3.7-1.9,5.7-2.4
		c1-0.3,2.1-0.6,3.3-1c4-1.3,8.6-2.7,12.5-2.3c1.7,0.1,3.1,1.3,3.5,3c0.7,2.7,0,5.6-2,7.5c-1.4,1.3-3.3,1.6-5.1,1.9
		c-0.6,0.1-1.1,0.2-1.7,0.4c-1.6,0.4-3.1,1-4.5,1.7c-0.6,0.3-1.2,0.6-1.9,0.8C326.1,402.3,324.1,402.7,322.2,402.8z M324.3,390.9
		c-1.9,0.4-3.6,1.1-5.2,2.1c-1.5,0.9-2.3,2.6-2.3,4.3c0.2,2.1,2.3,3.5,4.1,3.8c2.2,0.2,4.4-0.2,6.4-1.1c0.6-0.2,1.2-0.5,1.8-0.8
		c1.5-0.8,3.2-1.4,4.8-1.8c0.6-0.1,1.2-0.2,1.8-0.4c1.6-0.1,3.1-0.7,4.4-1.6c1.6-1.6,2.2-3.8,1.6-5.9c-0.3-1.1-1.2-1.8-2.3-1.9
		c-3.5-0.4-7.9,1-11.9,2.3C326.5,390.2,325.3,390.6,324.3,390.9L324.3,390.9z M324.1,390.1L324.1,390.1z"></path><path class="st0" d="M397.5,421.8c0.1,2.7,0.6,5.8,2.8,7.3c2.7,1.8,6.5,0.2,8.2-2.5s1.6-6.2,1.2-9.3s-1.2-6.4-0.9-9.5
		c0.2-1.3,0.4-2.6,0.4-3.9c-0.3-5.3-7.6-3.8-9.6-0.6C396.9,407.7,397.3,416.8,397.5,421.8z"></path><path class="st1" d="M402.9,430.6c-1.1,0-2.1-0.3-3-0.9c-2.6-1.8-3.1-5.4-3.2-7.9l0,0v-0.6c-0.2-5.2-0.5-13.9,2.3-18.4
		c1.8-2.5,4.9-3.7,7.9-3.1c1.9,0.4,3.2,2.1,3.1,4c0,0.9-0.1,1.9-0.2,2.8c-0.1,0.4-0.1,0.8-0.2,1.2c-0.2,2.4,0,4.8,0.5,7.1
		c0.1,0.8,0.2,1.5,0.4,2.2c0.4,2.7,0.6,6.6-1.3,9.8c-1.1,1.8-2.9,3-4.9,3.5C403.9,430.5,403.4,430.6,402.9,430.6z M398.2,421.8
		c0.1,2.2,0.4,5.3,2.5,6.7c1,0.6,2.1,0.8,3.2,0.5c1.6-0.4,3-1.4,3.9-2.8c1.7-2.8,1.4-6.4,1.1-8.8c-0.1-0.7-0.2-1.5-0.4-2.2
		c-0.5-2.5-0.7-5-0.5-7.5c0-0.4,0.1-0.9,0.2-1.3c0.2-0.8,0.2-1.7,0.2-2.5c0.1-1.2-0.8-2.4-2-2.6c-2.4-0.4-4.8,0.5-6.2,2.4
		c-2.5,4.1-2.2,12.5-2,17.5L398.2,421.8z"></path><path class="st0" d="M321.5,284.2c-2.9,5.1-3.3,11.4-0.9,16.8c-6,3.6-9.6,10-9.6,17c-8.6-0.1-17.9-0.5-24.5-5.9
		c-3.2-2.6-5.5-6.2-7.9-9.5s-5.3-6.6-9.2-8.2s-8.9-0.9-11.2,2.5l4.8,4.6c-3.6,0.9-7.5,0.1-11.2,0.4s-7.9,2.5-8.3,6.2
		c-0.3,2.9,1.9,5.5,4.4,7.3c3.6,2.6,7.8,4.2,12.1,4.6c4.3,0.4,8.8-0.2,12.7,1.4s6.8,5.3,9.9,8.5c6.4,6.7,14.6,11.4,23.6,13.7
		c3.2,1,6.7,1.1,10,0.5c4.4-1,8-4.2,11.2-7.5c6.9-7,12.8-14.9,17.7-23.5c3.9-7,7.2-14.8,6.4-22.7c-0.7-6.5-5.3-14.4-12.3-15.8
		C332.8,273.1,324.5,279.1,321.5,284.2z"></path><path class="st1" d="M312.5,345c-2.2,0-4.5-0.4-6.6-0.9c-9.1-2.3-17.4-7.1-24-13.9c-0.6-0.6-1.1-1.2-1.7-1.8
		c-2.3-2.5-4.8-5.2-7.9-6.4c-2.6-1-5.3-1.1-8.3-1.1c-1.4,0-2.8,0-4.2-0.2c-4.5-0.4-8.8-2.1-12.5-4.8c-1.9-1.4-5-4.2-4.7-8
		c0.4-4.1,4.8-6.5,9-6.9c1.5-0.1,3-0.1,4.5,0c1.7,0.1,3.5,0.1,5.2-0.1l-3.7-3.6c-0.3-0.3-0.3-0.7-0.1-1c2.7-3.9,8.3-4.3,12.1-2.7
		c4.1,1.7,7.1,5.2,9.5,8.4c0.5,0.6,0.9,1.2,1.4,1.9c1.8,2.8,4,5.3,6.4,7.5c6.1,5,14.5,5.6,23.3,5.8c0.2-6.7,3.7-12.9,9.4-16.5
		c-2.2-5.5-1.7-11.7,1.2-16.8l0,0c3-5.1,11.6-11.5,18.3-10.1c7.1,1.5,12.1,9.5,12.9,16.5c0.9,8.9-3.3,17.5-6.5,23.2
		c-4.9,8.6-10.9,16.6-17.8,23.7c-3.3,3.3-6.9,6.6-11.5,7.7C315,344.8,313.7,345,312.5,345z M253.5,302.5c-0.6,0-1.2,0-1.8,0.1
		c-3.6,0.3-7.3,2.3-7.6,5.5c-0.3,3,2.4,5.4,4.1,6.6c3.5,2.5,7.5,4.1,11.8,4.5c1.4,0.1,2.8,0.1,4.1,0.2c3,0,6,0.1,8.8,1.2
		c3.4,1.4,6,4.1,8.4,6.8c0.6,0.6,1.1,1.2,1.7,1.8c6.4,6.6,14.4,11.2,23.2,13.5c3.9,1,7,1.1,9.6,0.5c4.2-1,7.7-4.1,10.8-7.2
		c6.8-7,12.7-14.8,17.6-23.4c3.1-5.5,7.2-13.8,6.3-22.3c-0.6-6.4-5.2-13.8-11.7-15.2c-6-1.2-14,4.9-16.7,9.4l0,0
		c-2.8,4.9-3.1,10.9-0.9,16.1c0.2,0.4,0,0.8-0.3,1c-5.7,3.4-9.2,9.6-9.2,16.3c0,0.2-0.1,0.4-0.2,0.5c-0.1,0.1-0.3,0.2-0.5,0.2
		c-9.4-0.1-18.4-0.7-25-6.1c-2.6-2.3-4.8-4.9-6.7-7.8L278,303c-2.2-3-5.1-6.4-8.9-7.9c-3.1-1.3-7.5-1.1-10,1.7l4.3,4.2
		c0.3,0.3,0.3,0.8,0,1.1c-0.1,0.1-0.2,0.2-0.3,0.2c-2.3,0.5-4.7,0.6-7,0.4C255.2,302.5,254.4,302.5,253.5,302.5L253.5,302.5z
		 M321.5,284.1L321.5,284.1z"></path><path class="st1" d="M398.7,260.4c4.3-0.1,9,0,12.3,2.3c3.9,2.8,4.6,7.7,4.7,12.2c0.2,11.3-2.4,22.4-4.9,33.5
		c-2.1,9.1-4.2,18.2-7.8,27c-1.8,4.4-4,8.7-7.6,12s-8.8,5.6-13.9,5c-4.1-0.6-7.8-2.7-10.5-5.8c-2.5-3-4.7-6.2-6.4-9.7
		c-7.8-14.2-16.2-28.2-25.1-41.9c-2.6-4-5.3-8.1-6.1-12.7c-0.8-4.1,0.5-8.3,3.4-11.2c2.6-2.6,6.8-3.3,10.4-4.3
		c10.6-2.8,21.5-4.6,32.5-5.4C386,260.8,392.4,260.5,398.7,260.4z"></path><path class="st0" d="M361.2,311c-2.6,0-5.2-0.5-7.5-1.5c-0.3-0.1-0.4-0.4-0.3-0.7c0,0,0,0,0,0c0.1-0.2,0.4-0.4,0.6-0.3c0,0,0,0,0,0
		c5.5,2.3,11.8,1.8,16.9-1.3l1-0.7c1.2-0.9,2.5-1.5,3.9-1.9c2.1-0.5,4.1,0.2,6.1,0.8l1.2,0.4c7.1,2,14.8,0.7,20.8-3.6
		c0.2-0.2,0.5-0.2,0.7,0c0.2,0.2,0.2,0.5,0,0.7c0,0-0.1,0-0.1,0.1c-6.3,4.5-14.2,5.9-21.6,3.8l-1.3-0.4c-1.8-0.6-3.8-1.2-5.6-0.8
		c-1.3,0.4-2.5,1-3.5,1.8l-1,0.7C368.4,310.1,364.9,311.1,361.2,311z"></path><path class="st0" d="M375.2,301c-0.2,0-0.4-0.1-0.5-0.3c-4.5-10.6-5.5-22.4-2.8-33.6c0.1-0.3,0.3-0.4,0.6-0.4
		c0.3,0.1,0.4,0.3,0.4,0.6c-2.7,11-1.7,22.6,2.8,33c0.1,0.3,0,0.5-0.3,0.7c0,0,0,0,0,0C375.4,301,375.3,301,375.2,301z"></path><path class="st0" d="M380.9,340.9c-0.2,0-0.4-0.1-0.4-0.3c-2.3-4.3-3.4-9.2-3.2-14.1v-0.6c0.1-1,0-2-0.2-3c-0.2-0.8-0.6-1.5-1-2.2
		c-0.2-0.4-0.4-0.7-0.6-1.1c-1.6-3.2-1.7-6.9-0.2-10.1c0.1-0.2,0.4-0.4,0.7-0.2c0.3,0.1,0.4,0.4,0.3,0.7c0,0,0,0,0,0
		c-1.3,3-1.2,6.3,0.2,9.2c0.2,0.3,0.4,0.7,0.6,1c0.5,0.8,0.9,1.6,1.1,2.5c0.2,1.1,0.3,2.2,0.2,3.3v0.6c-0.1,4.7,0.9,9.4,3.1,13.6
		c0.1,0.2,0,0.5-0.2,0.7c0,0,0,0,0,0C381.1,340.8,381,340.9,380.9,340.9z"></path><path class="st2" d="M316.4,319.5c2.1,3.7,3.6,7.8,4.3,12.1c0.6,2.9,0.5,5.9-0.2,8.8c-0.7,2.9-2.7,5.3-5.4,6.7
		c-2,0.9-4.3,1-6.4,0.2c-1.6-0.6-2.9-1.8-3.5-3.4c-0.3-1.2-0.4-2.5-0.2-3.7c0.2-4.6-0.4-9.1-1.6-13.5c-0.9-3-3.2-6.7-2.3-10
		C303.5,307.7,313.8,314.9,316.4,319.5z"></path><path class="st2" d="M274.1,319.6c-0.8,0.6-1.6,1.4-2.2,2.2c-0.6,0.9-0.8,2-0.5,3c0.7,1.3,2.1,1.9,3.5,1.6c1.4-0.3,2.6-1,3.6-2
		c2.1-1.7,4.1-3.6,5.9-5.7c1.7-1.9,3.2-4.2,3.4-6.7c0.1-1.6-0.5-3.1-1.6-4.2c-2.3-2-2.6-0.7-3.8,1.4
		C280.2,313,277.4,316.6,274.1,319.6z"></path><path class="st0" d="M403,277.7c1.7,8.2,8.4,14.6,15.6,18.8c-0.2,10.2,6.1,19.4,15.6,23c-3,13.7-8.6,26.7-16.3,38.4
		c-1.9-2.9-3.9-5.8-6.9-7.5s-7-2.2-9.8-0.2s-3.4,6.8-0.6,8.9c-3.5,3.8-6.3,8.2-8.4,12.9c-0.8,1.7-1.4,3.6-0.8,5.3
		c0.9,2.5,4.3,3.4,6.8,2.5s4.4-3,6.1-5.1c-0.3,3.7,3.7,6.6,7.4,6.3s6.7-3,8.8-6.1s3.5-6.5,5.5-9.6c4-6,10.2-10.1,15.6-14.8
		c7.4-6.5,13.6-14.3,18.1-23c2.2-4.2,4-8.8,3.4-13.5c-0.5-4-2.7-7.6-5-11c-8.9-13-19.7-24.7-31.9-34.7c-4.6-3.8-10.4-11-16.6-7.3
		C404.3,264.1,401.8,271.8,403,277.7z"></path><path class="st1" d="M411.2,381.7c-2.1,0-4.2-0.9-5.7-2.4c-0.8-0.8-1.4-1.8-1.7-2.9c-1.4,1.7-3.2,3.1-5.3,4c-2.8,1-6.7,0.1-7.8-2.9
		c-0.7-2,0-4.1,0.8-5.9c2-4.6,4.7-8.8,8-12.5c-1-1.1-1.5-2.5-1.5-4c0-2.2,1-4.2,2.7-5.5c3.2-2.4,7.6-1.6,10.6,0.1
		c2.7,1.8,4.9,4.1,6.5,6.9c7.3-11.2,12.6-23.6,15.5-36.6c-9.4-3.8-15.5-13-15.5-23.1c-6.2-3.7-13.8-9.9-15.6-19.1l0,0
		c-1.2-5.9,1.1-14,7-17.6c5.6-3.3,10.8,1.4,14.9,5.1c0.9,0.8,1.7,1.5,2.5,2.2c12.3,10,23.1,21.8,32.1,34.9c2.2,3.2,4.6,7.1,5.1,11.3
		c0.6,5.2-1.5,10.2-3.5,14c-4.6,8.8-10.8,16.7-18.3,23.3c-1.4,1.2-2.8,2.4-4.2,3.5c-4.1,3.3-8.3,6.7-11.2,11.1c-1,1.5-1.8,3-2.6,4.6
		c-0.9,1.7-1.8,3.4-2.9,5c-1.5,2.2-4.8,6-9.4,6.4C411.6,381.7,411.4,381.7,411.2,381.7z M404.4,373.9c0.1,0,0.2,0,0.3,0
		c0.3,0.1,0.5,0.4,0.5,0.8c-0.1,1.4,0.5,2.7,1.5,3.6c1.3,1.3,3.2,2,5.1,1.9c4-0.4,6.9-3.7,8.3-5.7c1-1.6,2-3.2,2.8-4.9
		c0.8-1.6,1.7-3.2,2.7-4.7c3-4.6,7.3-8.1,11.5-11.5c1.4-1.1,2.8-2.3,4.2-3.5c7.3-6.4,13.4-14.2,17.9-22.8c1.9-3.6,3.9-8.4,3.3-13.1
		c-0.5-4-2.8-7.6-4.9-10.7c-8.9-13-19.6-24.6-31.8-34.6c-0.8-0.7-1.7-1.4-2.6-2.2c-4-3.6-8.5-7.7-13.1-5c-5.3,3.2-7.4,10.6-6.3,16
		l0,0c1.8,8.8,9.3,14.8,15.3,18.3c0.2,0.1,0.4,0.4,0.4,0.7c-0.2,9.9,5.8,18.8,15.1,22.3c0.4,0.1,0.6,0.5,0.5,0.9
		c-3,13.8-8.6,26.9-16.5,38.6c-0.1,0.2-0.4,0.3-0.6,0.3l0,0c-0.3,0-0.5-0.1-0.6-0.4c-1.8-2.8-3.8-5.6-6.6-7.3
		c-2.5-1.5-6.2-2.1-8.9-0.2c-1.3,1-2.1,2.6-2.1,4.3c-0.1,1.3,0.5,2.5,1.5,3.3c0.3,0.2,0.4,0.7,0.2,1c0,0,0,0-0.1,0.1
		c-3.4,3.8-6.2,8-8.3,12.7c-0.7,1.5-1.3,3.3-0.7,4.8c0.8,2.1,3.7,2.8,5.9,2c2.4-0.9,4.2-3,5.8-4.9C404,374,404.2,373.9,404.4,373.9
		L404.4,373.9z"></path><path class="st2" d="M462.7,311.5c1.3,0.1,2.7,0.4,3.4,1.5s0.4,2.7,0,4l-3.5,11c-0.2,1.2-0.9,2.3-1.8,3.1c-1.7,1.1-3.9,0.1-5.8-0.7
		c-8.2-3.9-16.9-3.5-25.5-1.1C424.4,313.9,452.7,310.5,462.7,311.5z"></path><path class="st2" d="M422,352.2c1.1,0.9,1.9,2,2.5,3.3c2.3,4.5,3.1,10.1,0.6,14.5c-0.8,0.1-1.5-0.2-2-0.9c-0.4-0.6-0.8-1.3-1-2.1
		c-1.4-3.9-4.1-7.1-5.6-10.9S418.5,349.5,422,352.2z"></path></g><g id="key"><path class="st0" d="M125.2,285.2c-9.2,2-18.5,5.1-24.8,11.3c-7.2,7.1-9.2,17.2-9.5,26.8c-0.4,14.5,2.7,29,6.4,43.2
		c1.3,5.1,2.9,10.5,7.2,14.1c5.9,5.1,15,5.5,23.2,5.2c18.2-0.8,36.4-3.4,54.1-7.6c6.9-1.6,14.3-3.7,18.3-8.8c3.1-3.9,3.6-9,4-13.8
		c1.2-18,0.3-36.2-5-53.7c-1.3-4.3-2.9-8.5-5.8-12.2c-6.9-8.8-19-8-29.8-8.2C150.7,281.2,137.8,282.5,125.2,285.2z"></path><path class="st1" d="M123.9,386.7c-7.2,0-14.6-1-19.8-5.5c-4.3-3.8-6-9-7.4-14.5c-3.6-13.7-6.8-28.4-6.4-43.4
		c0.3-12.2,3.5-21.2,9.7-27.3c6.8-6.7,17-9.7,25.1-11.5l0,0c12.6-2.8,25.6-4.1,38.5-3.8c1.1,0,2.1,0,3.2,0
		c10.2,0.1,20.7,0.2,27.1,8.4c3,3.9,4.7,8.5,5.9,12.5c4.8,15.6,6.4,33.3,5,54c-0.3,4.9-0.9,10.1-4.1,14.2
		c-4.2,5.4-11.9,7.5-18.8,9.1c-17.8,4.3-36,6.8-54.2,7.6C126.5,386.6,125.2,386.7,123.9,386.7z M125.4,286L125.4,286
		c-7.9,1.8-17.8,4.6-24.4,11.1c-5.9,5.8-9,14.4-9.3,26.3c-0.4,14.8,2.8,29.4,6.3,43c1.4,5.3,2.9,10.3,6.9,13.8
		c5.8,5,14.7,5.3,22.7,5c18.2-0.8,36.3-3.4,54-7.6c6.6-1.5,14-3.6,17.9-8.6c2.9-3.8,3.5-8.6,3.8-13.4c1.4-20.5-0.3-38-5-53.5
		c-1.2-4-2.8-8.3-5.6-12c-6-7.6-16.1-7.7-26-7.9c-1.1,0-2.2,0-3.2,0C150.7,282,137.9,283.2,125.4,286z"></path><path class="st1" d="M136.3,365.7c-0.6,1.5-1.2,3.1-0.6,4.6c0.9,2.4,3.9,3,6.5,3.1c8,0.5,16.1,0.1,24-1.3c3.1-0.5,6.5-1.4,8.1-4.1
		c2-3.3,0.1-7.7-2.5-10.5s-6.1-4.9-8.1-8.2c5.7-5.8,10.3-13.1,11.8-21.1s-0.5-17-6.3-22.8s-15.5-7.7-22.5-3.5
		c-7.4,4.5-10,14.5-8.4,23s6.6,16,11.4,23.3C144.6,353.9,139.1,358.7,136.3,365.7z"></path><path class="st1" d="M134.6,378.8L134.6,378.8c-7.1-0.7-13.4-4.8-16.8-11.1c-2.5-4.8-3.1-10.4-3.6-15.3
		c-1.3-12.4-2.6-25.1-1.8-37.8c0.3-5.2,1.1-11.2,4.4-16c2.5-3.7,6.6-6.7,11.8-8.6c4.6-1.6,9.4-2.6,14.3-3.2c0.3,0,0.5,0.1,0.6,0.4
		c0,0.3-0.1,0.5-0.4,0.6c-4.8,0.6-9.5,1.6-14.1,3.2c-5,1.9-8.9,4.7-11.3,8.3c-3.1,4.6-3.9,10.4-4.2,15.5
		c-0.8,12.6,0.5,25.3,1.7,37.6c0.5,4.9,1.1,10.4,3.5,14.9c3.2,5.9,9.2,9.9,15.9,10.5c0.3,0,0.5,0.2,0.5,0.5S134.9,378.8,134.6,378.8
		L134.6,378.8z"></path><path class="st0" d="M284.5,336.8c-1.9-9.5-10-17.4-19.4-19.7c9.8-6.7,11.1-22.3,3.4-31.2s-22.4-10.2-32.2-3.6S222,302,224.7,313.5
		l-52.4,6.2c-5.8,0.7-17-0.4-22.1,2s-3.4,9.3,1.1,12c3.9,2.4,8.8,2.1,13.4,1.8l49.1-3.3c-6.5,8.7-4.4,22.6,4.5,28.9
		s22.7,3.8,28.8-5.2c5.8,7.9,17.6,10.2,26.2,5.6S286.5,346.4,284.5,336.8z M229.9,352.9c-5.3,0.3-10.1-3.4-11-8.7
		c-0.7-5.1,4.8-10.6,9.9-11.5c5.6-0.1,10.2,4.3,10.4,9.9C239.3,348,235.2,352.5,229.9,352.9L229.9,352.9z M255.9,310.9
		c-4.5,3.3-10.8,2.9-14.8-1c-8.4-8.7,0.8-19.4,10.8-19.1C263,291.1,263.7,304.8,255.9,310.9L255.9,310.9z M268.8,351.5
		c-4,1.9-8.8,0.9-11.7-2.5c-1.9-2.6-2.7-5.9-2.1-9.1c0.3-3.2,1.9-6.1,4.3-8.1c7-5.5,15.3,1.8,15.6,9.3
		C275,345.4,272.7,349.5,268.8,351.5L268.8,351.5z"></path><path class="st1" d="M229.7,365.4c-4.2,0-8.4-1.2-11.9-3.6c-4.5-3.4-7.5-8.5-8.3-14.1c-0.8-5,0.1-10.2,2.8-14.6l-47.6,3.2
		c-4.2,0.3-9.5,0.6-13.8-2c-2.8-1.7-4.6-4.8-4.5-8.1c0.1-2.3,1.4-4.3,3.5-5.2c3.5-1.7,9.6-1.7,15.1-1.8c2.7,0,5.3-0.1,7.3-0.3
		l51.6-6.1c-2.5-12,2.3-24.8,12-31.3c10.4-7,25.3-5.3,33.2,3.8c4.1,4.9,5.9,11.3,5,17.7c-0.6,5.3-3.2,10.2-7.2,13.7
		c9.3,2.9,16.6,10.7,18.5,19.9c2,10-3,21-11.7,25.6s-20.4,2.4-26.5-5.1c-3.3,4.2-8,7-13.2,7.8C232.4,365.3,231,365.4,229.7,365.4z
		 M213.7,331.5c0.4,0,0.8,0.3,0.8,0.7c0,0.2-0.1,0.3-0.2,0.5c-6.7,8.6-5.1,20.9,3.4,27.6s20.9,5.1,27.6-3.4c0.3-0.4,0.6-0.9,0.9-1.3
		c0.1-0.2,0.4-0.3,0.6-0.3c0.2,0,0.5,0.1,0.6,0.3c5.5,7.5,16.8,9.9,25.2,5.4c8.1-4.3,12.8-14.6,11-24c-1.8-9.1-9.4-16.9-18.9-19.2
		c-0.4-0.1-0.6-0.5-0.5-0.9c0-0.2,0.1-0.3,0.3-0.4c4.4-3.2,7.3-8.2,7.9-13.6c0.8-5.9-0.8-11.9-4.6-16.5c-7.3-8.4-21.6-10-31.3-3.5
		c-9.2,6.2-13.9,19-11.2,30.5c0.1,0.4-0.2,0.8-0.6,0.9c0,0,0,0,0,0l-52.4,6.2c-2,0.2-4.6,0.3-7.4,0.3c-5.3,0.1-11.2,0.1-14.4,1.6
		c-1.6,0.7-2.6,2.2-2.7,3.9c0,2.8,1.4,5.3,3.8,6.7c3.6,2.1,8,2.1,12.9,1.7L213.7,331.5L213.7,331.5z M229,353.7
		c-5.4-0.1-10-4.1-10.9-9.4c-0.8-5.6,5.1-11.4,10.5-12.4c0.1,0,0.2,0,0.2,0c6,0.1,10.8,5,10.7,11.1c-0.1,5.4-4.2,10-9.6,10.7l0,0
		C229.6,353.7,229.3,353.7,229,353.7z M228.8,333.5c-4.7,0.9-9.9,6-9.2,10.7c0.8,4.9,5.2,8.4,10.2,8.1l0,0c5.2-0.5,8.9-5.2,8.4-10.3
		C237.7,337.1,233.6,333.5,228.8,333.5z M264.5,353.1c-3.1,0-6-1.3-8-3.6c-2.1-2.8-2.9-6.3-2.3-9.7c0.4-3.3,2-6.4,4.5-8.6
		c2.7-2.3,6.4-2.7,9.6-1.2c4.2,2.1,7,6.3,7.2,11c0.2,4.7-2.4,9-6.5,11.1C267.6,352.8,266.1,353.1,264.5,353.1L264.5,353.1z
		 M264.5,330.6c-1.8,0-3.4,0.7-4.8,1.8c-2.3,1.9-3.7,4.7-4,7.6c-0.5,3,0.2,6.1,2,8.6c2.7,3,7,3.9,10.7,2.2c3.6-1.9,5.8-5.6,5.7-9.7
		c-0.2-4.1-2.7-7.8-6.4-9.7C266.8,330.9,265.7,330.6,264.5,330.6L264.5,330.6z M249.1,313.9c-3.2,0.1-6.3-1.2-8.6-3.4
		c-3.5-3.5-4.4-7.9-2.6-12c2.2-5,8.1-8.6,14-8.4c4.7,0.1,8.1,2.5,9.4,6.6c1.7,5.1-0.4,11.4-5,14.9
		C254.2,313.1,251.7,313.9,249.1,313.9L249.1,313.9z M251.4,291.5c-5.2,0-10.3,3.1-12.2,7.5c-1.6,3.5-0.7,7.2,2.3,10.3
		c3.7,3.6,9.6,4,13.8,1l0,0c4.1-3.2,6-8.7,4.5-13.2c-1.1-3.5-4-5.5-8.1-5.6L251.4,291.5z"></path><path class="st0" d="M264.8,289.9c1.7,1.8,2,4.6,0.7,6.7c-1.1,1.4-2.6,2.3-4.4,2.6c2.1,1.5,2.1,5.2,0.5,7.6
		c-1.6,2.3-3.9,3.9-6.6,4.6c-2.2,0.8-4.6,1.1-7,0.8c-2.4-0.4-4.4-1.9-5.5-4.1c-2.9-6.1,2.6-13.4,7.4-16.5
		C253.8,289.2,261.4,286.6,264.8,289.9z"></path><path class="st1" d="M250,313.2c-0.7,0-1.4-0.1-2.1-0.2c-2.6-0.5-4.8-2.1-6-4.5c-3.1-6.6,2.6-14.1,7.6-17.4
		c4.4-2.8,12.1-5.2,15.8-1.7l0,0c2,2.1,2.3,5.2,0.8,7.7c-0.9,1.2-2.1,2.1-3.6,2.5c1.5,2.1,1.2,5.4-0.2,7.7s-3.7,3.9-7,5
		C253.6,312.8,251.8,313.1,250,313.2z M260.2,289.1c-3.5,0.2-6.9,1.3-9.8,3.2c-4.6,3-9.9,9.8-7.1,15.5c1,1.9,2.8,3.3,5,3.6
		c2.2,0.3,4.5,0.1,6.6-0.7c3-1,5-2.4,6.2-4.3s1.4-5.4-0.4-6.6c-0.2-0.2-0.4-0.5-0.3-0.8c0-0.3,0.3-0.5,0.6-0.6
		c1.5-0.3,2.9-1.1,3.9-2.3c1.1-1.8,0.9-4.2-0.6-5.8l0,0C263.2,289.5,261.7,289,260.2,289.1L260.2,289.1z"></path><path class="st1" d="M243.2,301.5c-0.2,0-0.3-0.1-0.4-0.2c-0.2-0.2-0.1-0.5,0.1-0.7c5.9-4.1,13.5-4.6,19.3-1.3
		c0.2,0.1,0.3,0.4,0.2,0.7c-0.1,0.2-0.4,0.3-0.7,0.2c0,0,0,0,0,0c-5.5-3.1-12.6-2.6-18.3,1.3C243.4,301.4,243.3,301.5,243.2,301.5z"></path></g><g id="clap"><path class="st1" d="M208.8,112c-0.9,0.1-1.8,0-2.6-0.2c-0.9-0.3-1.7-1-1.6-1.6c0.1-0.9,1.6-1,2.8-1c1.7,0,11.3-0.3,11.5,1.1
		C219.1,111.8,210.5,111.9,208.8,112z"></path><path class="st1" d="M220.4,67.1c-0.6-0.7-1.3-1.3-2-1.9c-0.7-0.5-1.5-0.9-2.4-1c-1.2,0-1.3,1.2-0.6,2.3c0.9,1.2,2,2.3,3.3,3.1
		c2.6,2.1,5.4,4,8.4,5.6C227.8,73.9,221.9,68.8,220.4,67.1z"></path><path class="st1" d="M218.3,149.6c0.9-0.2,1.7-0.5,2.5-0.9c0.8-0.5,1.4-1.4,1.1-2c-0.3-0.8-1.8-0.5-3-0.2
		c-1.7,0.5-10.9,2.8-10.8,4.2C208.4,152.3,216.7,150,218.3,149.6z"></path><path class="st1" d="M281.8,33.5c0-0.9,0.2-1.8,0.4-2.7c0.2-0.9,0.6-1.6,1.2-2.3c0.9-0.8,1.8,0.1,1.9,1.5c0.1,1.5-0.1,3-0.6,4.5
		c-0.7,3.3-1.7,6.5-3,9.6C280.3,43.4,281.6,35.8,281.8,33.5z"></path><path class="st1" d="M244.2,40.1c-1.2-1.1-2.2-0.8-2.4,0.1c-0.1,1.3,0.1,2.5,0.6,3.7c0.6,2,2.6,12.2,4.7,9.5
		C248.4,51.7,245.6,43.7,244.2,40.1z"></path><path class="st1" d="M349.9,124.9c0.9,0.1,1.8,0,2.6-0.2c0.9-0.3,1.7-1,1.6-1.6c-0.1-0.9-1.6-1-2.8-1c-1.7,0.1-11.3-0.3-11.5,1.1
		C339.6,124.8,348.2,124.8,349.9,124.9z"></path><path class="st1" d="M344.9,81.8c0.8-0.4,1.7-0.6,2.6-0.8c0.8-0.2,1.7-0.2,2.6,0.1c1.1,0.5,0.7,1.6-0.5,2.3
		c-1.3,0.7-2.8,1.2-4.3,1.5c-3.3,0.8-6.6,1.4-10,1.6C335.4,84.9,342.8,82.7,344.9,81.8z"></path><path class="st1" d="M329.2,46.3c1.6-0.1,2.2,0.7,1.8,1.5c-0.7,1-1.6,1.9-2.7,2.6c-1.7,1.2-9.5,8.1-9.5,4.6
		C318.8,53,325.9,48.3,329.2,46.3z"></path></g><g id="click"><path class="st2" d="M187.5,229.9c-0.8,0-1.5-0.7-1.5-1.5c0-0.5,0.3-1,0.7-1.3l8.6-4.9c-12-6.3-17.6-20.5-12.9-33.2
		c-13,5.6-28.2,1-36-10.8l1,19.4c0,0.8-0.6,1.5-1.4,1.6c-0.8,0.1-1.5-0.6-1.6-1.4c0,0,0,0,0,0l-1.4-26.7c0-0.8,0.6-1.5,1.4-1.6
		c0.7,0,1.3,0.4,1.5,1c4.7,13.8,19.7,21.2,33.4,16.5c1.9-0.6,3.7-1.5,5.4-2.6c0.7-0.4,1.6-0.2,2.1,0.5c0.3,0.5,0.3,1,0,1.5
		c-6.5,11.6-2.4,26.3,9.2,32.8c1,0.6,2,1.1,3.1,1.5c0.8,0.3,1.2,1.2,0.8,2c-0.1,0.3-0.4,0.6-0.6,0.7l-11.2,6.3
		C188,229.8,187.8,229.9,187.5,229.9z"></path></g></svg>