<svg version="1.1" id="Layer_1" xmlns="http://www.w3.org/2000/svg" xmlns:xlink="http://www.w3.org/1999/xlink" x="0px" y="0px" viewBox="0 0 500 500" height="500" width="500" xml:space="preserve" data-imageid="parachute-12" imageName="Parachute" class="illustrations_image">
<style type="text/css">
	.st0_parachute-12{fill:#D1D3D4;}
	.st1_parachute-12{fill:#231F20;}
	.st2_parachute-12{fill:#FFFFFF;}
	.st3_parachute-12{fill:#68E1FD;}
</style>
<g id="Birds_parachute-12">
	<path class="st0_parachute-12" d="M373.1,203.7L373.1,203.7c-0.4,0-0.7-0.4-0.7-0.7c0,0,0.1-2-2.7-5.1c-0.4-0.5-1.1-0.9-1.8-0.9&#10;&#9;&#9;c-2.2-0.1-5.2,2.2-6.2,3.2c-0.3,0.3-0.7,0.3-0.9,0c-0.3-0.3-0.3-0.7,0-0.9c0.2-0.2,0.2-1-1-2.2c-0.8-0.8-6.3,2.2-11.7,6.5&#10;&#9;&#9;c-0.3,0.2-0.7,0.2-0.9-0.1c0,0,0,0,0,0c-0.2-0.3-0.2-0.7,0.1-0.9c0,0,0,0,0,0c10-8,12.7-7.1,13.5-6.4c0.6,0.5,1,1.2,1.3,2&#10;&#9;&#9;c1.4-1.1,3.8-2.6,5.9-2.5c1.1,0,2.1,0.5,2.7,1.4c3.1,3.6,3,6,3,6.1C373.7,203.4,373.4,203.7,373.1,203.7z"/>
	<path class="st0_parachute-12" d="M358,202c-0.2,0-0.5-0.1-0.6-0.3c-0.2-0.3-0.1-0.7,0.2-0.9c0.2-0.1,4.9-2.8,7.8-1.8c0.3,0.1,0.5,0.5,0.4,0.8&#10;&#9;&#9;c0,0,0,0,0,0c-0.1,0.3-0.5,0.5-0.8,0.4c0,0,0,0,0,0c-1.9-0.6-5.5,1-6.7,1.7C358.2,202,358.1,202,358,202z"/>
	<path class="st0_parachute-12" d="M414.9,254.4c-0.2,0-0.3-0.1-0.5-0.2c-0.1,0-5.4-5.3-8.2-7c-2.1-1.3-6.8,2.6-8.3,4c-0.2,0.2-0.5,0.2-0.8,0.1&#10;&#9;&#9;c-0.3-0.1-0.4-0.4-0.4-0.7c0-0.1,0.3-2.6-2.4-5.1c-1.9-1.8-8.9,1.4-12.8,3.9c-0.3,0.2-0.7,0.1-0.9-0.2c0,0,0,0,0,0&#10;&#9;&#9;c-0.2-0.3-0.1-0.7,0.2-0.9c0,0,0,0,0,0c1.1-0.7,11.1-6.8,14.4-3.7c1.4,1.2,2.4,2.9,2.8,4.8c2-1.7,6.2-4.9,8.9-3.2&#10;&#9;&#9;c3,1.8,8.2,7,8.5,7.2c0.3,0.3,0.3,0.7,0,0.9C415.3,254.3,415.1,254.4,414.9,254.4L414.9,254.4z"/>
	<path class="st0_parachute-12" d="M400.9,252.1L400.9,252.1h-0.4c-2.3-0.3-4.6-0.5-6.9-0.5c-0.4,0-0.7-0.2-0.7-0.6s0.2-0.7,0.6-0.7&#10;&#9;&#9;c2.4,0,4.7,0.2,7.1,0.5h0.3c0.4,0,0.6,0.4,0.6,0.7C401.5,251.9,401.2,252.1,400.9,252.1z"/>
	<path class="st0_parachute-12" d="M92,332.4c-0.2,0-0.3-0.1-0.4-0.2c-0.3-0.2-0.3-0.7-0.1-0.9c1.5-1.8,3.2-3.5,5-5c1.6-1.1,4.2,0.3,5.7,1.4&#10;&#9;&#9;c0.2-1.1,0.7-2.1,1.5-2.9c2-2.2,8.3,1,9.5,1.6c0.3,0.2,0.5,0.6,0.3,0.9c0,0,0,0,0,0c-0.2,0.3-0.6,0.5-0.9,0.3c0,0,0,0,0,0&#10;&#9;&#9;c-2.7-1.4-6.9-3-7.9-1.9c-0.9,0.8-1.3,2-1.2,3.1c0.1,0.3-0.1,0.6-0.3,0.7c-0.2,0.1-0.5,0.1-0.8-0.1c-1.6-1.3-4.2-2.8-5.1-2.1&#10;&#9;&#9;c-1.7,1.5-3.3,3.1-4.8,4.8C92.3,332.3,92.2,332.4,92,332.4z"/>
	<path class="st0_parachute-12" d="M100.8,330.3c-0.4,0-0.7-0.2-0.7-0.6c0-0.4,0.2-0.7,0.6-0.7l0,0h0.2c1.5-0.3,3-0.5,4.5-0.6&#10;&#9;&#9;c0.4,0,0.6,0.4,0.6,0.7c0,0.3-0.3,0.5-0.6,0.6l0,0c-1.4,0.1-2.8,0.3-4.2,0.6h-0.2L100.8,330.3z"/>
</g>
<g id="Character_parachute-12">
	<path class="st1_parachute-12" d="M344.1,146.6c0,0,2.9-12.9-8.9-23.4s-23.4-9-23.4-9s-6.8-9-15.3-10.6s-13.1-0.2-13.1-0.2s-0.5-5.3-13.9-9.8&#10;&#9;&#9;S248,95.9,248,95.9s-9.9-9.9-23.2-10.7s-20.3,4.3-20.3,4.3s-4.7-6.5-18.8-6.2s-23.6,9.3-23.6,9.3l-9.4,19.8L344.1,146.6z"/>
	<path class="st1_parachute-12" d="M344.1,147.3L344.1,147.3l-191.5-34.1c-0.2,0-0.4-0.2-0.5-0.3c-0.1-0.2-0.1-0.4,0-0.6l9.4-19.8&#10;&#9;&#9;c0-0.1,0.1-0.1,0.1-0.2c6.7-5.8,15.1-9.2,24-9.5c12.1-0.3,17.5,4.4,18.9,6c1.9-1.2,8.7-4.8,20.2-4.1c12,0.7,21.1,8.6,23.2,10.5&#10;&#9;&#9;c2-1.4,9.8-6.1,21.7-2c10.9,3.7,13.5,8,14.2,9.7c1.6-0.3,5.9-1,12.8,0.3c7.9,1.5,14.2,8.9,15.5,10.5c2.1-0.2,12.6-0.4,23.5,9.2&#10;&#9;&#9;c12,10.6,9.2,23.9,9.1,24C344.7,147.1,344.4,147.3,344.1,147.3z M153.7,112l189.9,33.9c0.9-8.4-2.4-16.7-8.8-22.1&#10;&#9;&#9;c-11.4-10.1-22.7-8.9-22.8-8.9c-0.2,0-0.5-0.1-0.6-0.3c-0.1-0.1-6.7-8.8-14.9-10.3s-12.7-0.2-12.8-0.2c-0.3,0.1-0.7-0.1-0.8-0.4&#10;&#9;&#9;c0,0,0-0.1,0-0.1c0,0-0.8-4.9-13.5-9.3c-12.9-4.4-20.8,2.1-20.9,2.2c-0.3,0.2-0.6,0.2-0.9,0c-0.1-0.1-9.8-9.8-22.7-10.5&#10;&#9;&#9;s-19.9,4.1-19.9,4.2c-0.3,0.2-0.7,0.1-0.9-0.2c-0.1-0.1-4.8-6.2-18.2-5.9c-12.9,0.3-22.1,8.2-23,9.1L153.7,112z"/>
	<path class="st2_parachute-12" d="M296.6,191.9c0,0,15.9-47.4,47.5-45.3c0,0-1.2-11.9-13.3-16.1s-16.4-2-16.4-2s-34.7,15.8-44.2,50.9&#10;&#9;&#9;C270.2,179.5,293.5,177.6,296.6,191.9z"/>
	<path class="st1_parachute-12" d="M296.6,192.6L296.6,192.6c-0.3,0-0.5-0.2-0.6-0.5c-2.9-13.6-25.5-11.9-25.7-11.9c-0.4,0-0.7-0.2-0.7-0.6&#10;&#9;&#9;c0-0.1,0-0.2,0-0.2c9.5-35,44.3-51.2,44.6-51.3c0.2-0.1,4.6-2.2,16.8,2s13.8,16.5,13.8,16.6c0,0.2,0,0.4-0.2,0.5&#10;&#9;&#9;c-0.1,0.1-0.3,0.2-0.5,0.2c-30.8-2.1-46.7,44.4-46.8,44.8C297.2,192.4,296.9,192.6,296.6,192.6z M273.1,178.8&#10;&#9;&#9;c6.2,0,19.9,1.1,23.6,11.1c3.4-8.8,19.1-45,46.6-43.9c-1.3-6.8-6.2-12.5-12.8-14.7c-11.6-3.9-15.8-2.1-15.9-2&#10;&#9;&#9;c-0.4,0.2-34,15.9-43.7,49.6C271.6,178.8,272.3,178.8,273.1,178.8z"/>
	<path class="st2_parachute-12" d="M270.2,179.5c0,0-7.7-22.4-33.6-4.1c0,0,15.6-41.3,50.2-60.2c0,0,19.5-11.4,27.6,13.4&#10;&#9;&#9;C314.4,128.6,279.9,143.1,270.2,179.5z"/>
	<path class="st1_parachute-12" d="M270.2,180.2c-0.3,0-0.5-0.2-0.6-0.4c0-0.1-2.8-7.8-10.2-10.1c-6.1-2-13.7,0.2-22.4,6.3&#10;&#9;&#9;c-0.2,0.2-0.5,0.2-0.8,0c-0.2-0.2-0.3-0.5-0.2-0.8c0.2-0.4,16.1-41.8,50.5-60.6c0.3-0.2,8.2-4.7,16.2-1.6&#10;&#9;&#9;c5.5,2.1,9.7,7.3,12.3,15.4c0.1,0.3-0.1,0.7-0.4,0.8c-0.3,0.1-34.4,14.9-43.9,50.5C270.7,180,270.5,180.2,270.2,180.2L270.2,180.2z&#10;&#9;&#9; M254.7,167.6c1.7,0,3.4,0.3,5.1,0.8c5.8,1.9,8.9,6.6,10.2,9.2c9.6-32.5,39.1-47.3,43.6-49.3c-2.5-7.4-6.3-12.1-11.4-14.1&#10;&#9;&#9;c-7.4-2.8-15,1.5-15.1,1.6c-29.7,16.2-45.4,49.4-49.1,57.9C244.2,169.6,249.8,167.6,254.7,167.6z"/>
	<path class="st2_parachute-12" d="M236.6,175.4c0,0-9.5-18.5-28.7-6.9c0,0,25.1-50,46-61.4s32.2-1.3,33,8C286.8,115.2,260.2,131.5,236.6,175.4z"/>
	<path class="st1_parachute-12" d="M236.6,176L236.6,176c-0.2,0-0.5-0.1-0.6-0.4c0-0.1-4-7.6-11.7-9.8c-4.9-1.4-10.3-0.3-16.1,3.1&#10;&#9;&#9;c-0.3,0.2-0.6,0.1-0.8-0.1c-0.2-0.2-0.3-0.5-0.1-0.8c0.1-0.1,6.4-12.7,15.2-26.5c11.8-18.6,22.3-30.4,31.1-35.2&#10;&#9;&#9;c10.2-5.6,19.5-6.6,26.2-3c4.4,2.3,7.3,6.6,7.8,11.6c0,0.2-0.1,0.5-0.3,0.6c-0.3,0.2-26.8,16.8-50,60&#10;&#9;&#9;C237,175.9,236.8,176,236.6,176z M220,164c1.6,0,3.2,0.2,4.7,0.6c6.6,1.9,10.5,7.1,11.9,9.4c12.1-22.1,24.8-37,33.5-45.7&#10;&#9;&#9;c4.9-5,10.2-9.6,16-13.6c-0.5-4.3-3.2-8.1-7-10.1c-6.3-3.4-15.1-2.3-24.9,3c-18.1,9.9-39.8,49.8-44.7,59.1&#10;&#9;&#9;C212.7,165,216.3,164.1,220,164z"/>
	<path class="st2_parachute-12" d="M207.9,168.5c-3.6-5.9-10-9.5-16.9-9.4c-11.9,0-21.3,12.2-21.3,12.2s12.1-39.6,27.6-58.4s28-19.3,40.4-18.3&#10;&#9;&#9;s12.1,15.2,12.1,15.2S215.2,149,207.9,168.5z"/>
	<path class="st1_parachute-12" d="M169.7,172.1c-0.1,0-0.2,0-0.3-0.1c-0.3-0.1-0.4-0.5-0.3-0.8c0.1-0.4,12.4-39.9,27.7-58.6&#10;&#9;&#9;c15.5-18.9,28.2-19.6,41-18.6s12.7,15.7,12.7,15.8c0,0.2-0.1,0.3-0.2,0.4c-0.3,0.4-34.5,39.3-41.7,58.5c-0.1,0.2-0.3,0.4-0.6,0.4&#10;&#9;&#9;c-0.3,0-0.5-0.1-0.6-0.4c-3.5-5.6-9.7-9.1-16.3-9l0,0c-11.5,0-20.7,11.9-20.8,12C170.1,172,169.9,172.1,169.7,172.1z M231.6,95.1&#10;&#9;&#9;c-10.4,0-21.2,3-33.8,18.4s-23.2,45.5-26.4,55.1c3.5-3.6,10.8-10,19.7-10l0,0c6.7-0.1,12.9,3.1,16.8,8.6&#10;&#9;&#9;c7.9-19,38.8-54.6,41.3-57.5c0-1.9-0.6-13.4-11.5-14.2C235.6,95.2,233.6,95.1,231.6,95.1L231.6,95.1z"/>
	<path class="st2_parachute-12" d="M206.3,103.7c0,0,2.1-5.6-5-12.3s-18.7-1.4-24.1,4.9s-45.1,47.8-48.2,79.4c0,0,18.8-32.3,40.7-4.3&#10;&#9;&#9;C169.7,171.4,186.8,122.7,206.3,103.7z"/>
	<path class="st1_parachute-12" d="M128.9,176.4c-0.1,0-0.1,0-0.2,0c-0.3-0.1-0.5-0.4-0.4-0.7c1.8-19.3,17.4-45.3,46.1-77.3&#10;&#9;&#9;c1-1.1,1.7-1.9,2.2-2.5c3.4-3.9,9.5-7.9,15.8-8.2c3.4-0.3,6.8,0.9,9.3,3.3c7.3,6.9,5.2,12.8,5.1,13c0,0.1-0.1,0.2-0.1,0.2&#10;&#9;&#9;c-19.1,18.6-36.3,66.9-36.4,67.4c-0.1,0.2-0.3,0.4-0.5,0.4c-0.2,0-0.5-0.1-0.6-0.2c-6.1-7.8-12.6-11.6-19.1-11.1&#10;&#9;&#9;c-11.9,0.8-20.4,15.2-20.5,15.4C129.4,176.2,129.2,176.4,128.9,176.4z M193.2,89h-0.7c-5.9,0.3-11.8,4.1-14.9,7.8&#10;&#9;&#9;c-0.5,0.6-1.2,1.4-2.2,2.5c-27.2,30.2-42.5,55-45.4,73.7c3.1-4.3,10.4-13,20-13.6c6.8-0.5,13.3,3.1,19.5,10.7&#10;&#9;&#9;c2.7-7.4,18.6-49.4,36.2-66.7c0.2-0.9,1.3-5.7-4.8-11.5C198.9,90,196.1,88.9,193.2,89z M206.2,103.8L206.2,103.8z M206.2,103.8&#10;&#9;&#9;L206.2,103.8z"/>
	<path class="st2_parachute-12" d="M128.9,175.7c0,0-5.5-7.7-17-4.1s-18.2,15.2-18.2,15.2s8.3-37.1,20.2-57.5s22.3-29.9,22.3-29.9&#10;&#9;&#9;s-2-12.3,10.2-17s23.6,5.4,24.8,20.4C171.3,102.9,131.7,162.9,128.9,175.7z"/>
	<path class="st1_parachute-12" d="M93.8,187.5c-0.1,0-0.2,0-0.2,0c-0.3-0.1-0.5-0.4-0.4-0.8c0.1-0.4,8.5-37.5,20.2-57.7&#10;&#9;&#9;c10.7-18.5,20.5-28.2,22.2-29.8c-0.2-2.1-0.7-12.9,10.7-17.3c4.9-2,10.5-1.5,15,1.4c6,3.8,9.9,11.1,10.6,19.6c0,0.1,0,0.3-0.1,0.4&#10;&#9;&#9;c-0.4,0.6-39.6,60.1-42.2,72.6c-0.1,0.3-0.3,0.4-0.5,0.5c-0.3,0.1-0.5,0-0.7-0.3c-0.2-0.3-5.4-7.2-16.2-3.9&#10;&#9;&#9;c-11.1,3.4-17.7,14.7-17.8,14.9C94.3,187.4,94,187.5,93.8,187.5z M152.6,82c-2,0-4,0.4-5.8,1.1c-11.6,4.5-9.8,16.1-9.8,16.3&#10;&#9;&#9;c0,0.2,0,0.4-0.2,0.6c-0.1,0.1-10.6,9.7-22.2,29.7c-9.5,16.4-16.8,44-19.2,53.8c2.8-3.8,8.5-10,16.5-12.5&#10;&#9;&#9;c9.2-2.8,14.8,1.4,16.8,3.4c4.5-14.5,39.2-67.4,42-71.7c-0.7-8-4.4-14.9-10-18.4C158.2,82.8,155.4,82,152.6,82z"/>
	<path class="st1_parachute-12" d="M150.2,80.9c0,0-7.6-0.2-16.4,5.4s-28.2,33.2-37.8,59.1s-9.7,34.1-7.9,38.3c0.8,2.4,3.3,3.7,5.7,3&#10;&#9;&#9;c0,0,10.2-45.6,43.9-82.5C137.7,104.3,135.3,83.3,150.2,80.9z"/>
	<path class="st1_parachute-12" d="M92.5,187.6c-2.3,0-4.3-1.4-5-3.6c-1.8-4.2-2.1-11.9,7.9-38.8c9.2-24.8,28.6-53.4,38.1-59.5&#10;&#9;&#9;c8.9-5.7,16.4-5.6,16.8-5.5c0.3,0,0.6,0.3,0.6,0.6c0,0.3-0.2,0.6-0.6,0.7c-14.1,2.2-12,22.5-12,22.7c0,0.2,0,0.4-0.2,0.5&#10;&#9;&#9;C105,141.1,94.5,186.5,94.4,187c-0.1,0.2-0.2,0.4-0.4,0.5C93.5,187.6,93,187.7,92.5,187.6z M144.5,82.4c-3.7,0.9-7.1,2.5-10.3,4.5&#10;&#9;&#9;c-8.3,5.3-27.8,32.3-37.6,58.8s-9.5,34-7.9,37.9c0.6,2,2.6,3.1,4.6,2.7c1.1-4.6,12.2-47.5,43.8-82.2&#10;&#9;&#9;C136.8,101.8,136.1,88,144.5,82.4L144.5,82.4z"/>
	<path class="st1_parachute-12" d="M314.9,125.2L314.9,125.2c-0.4,0-0.7-0.4-0.7-0.7c0,0,0,0,0,0c0.5-3.8-3-9.8-3-9.8c-0.2-0.3-0.1-0.7,0.2-0.9&#10;&#9;&#9;c0.3-0.2,0.7-0.1,0.9,0.2l0,0c0.2,0.3,3.7,6.4,3.2,10.7C315.5,124.9,315.3,125.2,314.9,125.2z"/>
	<path class="st1_parachute-12" d="M287.3,111.9L287.3,111.9c-0.4,0-0.7-0.4-0.7-0.7c0,0,0,0,0,0c0.4-3.5-3.6-7.2-3.6-7.2&#10;&#9;&#9;c-0.3-0.2-0.3-0.7-0.1-0.9s0.7-0.3,0.9-0.1c0.2,0.2,4.6,4.1,4.1,8.3C287.9,111.6,287.6,111.9,287.3,111.9z"/>
	<path class="st1_parachute-12" d="M250.3,105.9L250.3,105.9c-0.5,0-0.7-0.4-0.7-0.7c0,0,0,0,0,0c0.8-6.3-2-8.6-2.1-8.7c-0.3-0.2-0.4-0.6-0.1-0.9&#10;&#9;&#9;c0.2-0.3,0.6-0.4,0.9-0.1l0,0c0.1,0.1,3.5,2.7,2.6,9.9C250.9,105.6,250.6,105.9,250.3,105.9z"/>
	<path class="st1_parachute-12" d="M208.5,98.6c-0.4,0-0.6-0.3-0.7-0.6c-0.1-3-1.5-5.9-3.8-7.8c-0.3-0.2-0.4-0.6-0.1-0.9c0.2-0.3,0.6-0.4,0.9-0.1&#10;&#9;&#9;l0,0c2.6,2.2,4.2,5.4,4.3,8.9C209.2,98.3,208.9,98.6,208.5,98.6L208.5,98.6z"/>
	<path class="st1_parachute-12" d="M260.3,266.2c-0.1,0-0.3,0-0.4-0.1c-0.3-0.2-0.4-0.6-0.2-0.9c0,0,0,0,0,0l83.8-118.9c0.2-0.3,0.6-0.4,0.9-0.2&#10;&#9;&#9;c0,0,0,0,0,0c0.3,0.2,0.4,0.6,0.1,0.9l-83.8,118.9C260.7,266.1,260.5,266.2,260.3,266.2z"/>
	<path class="st1_parachute-12" d="M307,244.7c-0.2,0-0.4-0.1-0.5-0.2l-18-19.3c-0.2-0.2-0.2-0.4-0.2-0.6l7.6-32.8c0-0.4,0.4-0.6,0.7-0.6&#10;&#9;&#9;s0.6,0.4,0.6,0.7c0,0,0,0.1,0,0.1l-7.5,32.5l17.8,19c0.3,0.3,0.3,0.7,0,0.9c0,0,0,0,0,0C307.4,244.7,307.2,244.8,307,244.7z"/>
	<path class="st1_parachute-12" d="M218,265c-0.3,0-0.5-0.1-0.6-0.4l-80.3-160.1c-0.2-0.3,0-0.7,0.3-0.9c0,0,0,0,0,0c0.3-0.2,0.7,0,0.9,0.3&#10;&#9;&#9;l80.3,160.1c0.2,0.3,0,0.7-0.3,0.9c0,0,0,0,0,0C218.2,265,218.1,265,218,265z"/>
	<path class="st1_parachute-12" d="M191.8,245.7L191.8,245.7c-0.5-0.1-0.7-0.4-0.7-0.7c0,0,0,0,0,0l3.5-25.3l-101-32.2c-0.3-0.1-0.5-0.5-0.4-0.8&#10;&#9;&#9;c0.1-0.3,0.5-0.5,0.8-0.4c0,0,0,0,0,0l101.6,32.4c0.3,0.1,0.5,0.4,0.4,0.7l-3.6,25.8C192.4,245.5,192.1,245.7,191.8,245.7z"/>
	<path class="st2_parachute-12" d="M299.7,273.4c0,0,4.2-7.4,2.7-12.5s-0.5-10.1,0.7-10.7s7.7,2.4,8,3.4s-1.5,24.6-1.6,25.1"/>
	<path class="st1_parachute-12" d="M309.5,279.4c-0.1,0-0.1,0-0.2,0c-0.4-0.1-0.6-0.4-0.5-0.8c0.2-1.3,1.8-23.6,1.6-24.8&#10;&#9;&#9;c-0.5-0.8-6.2-3.2-7.1-2.9c-0.7,0.3-1.8,4.8-0.3,9.9c1.5,5.2-2.6,12.7-2.8,13c-0.2,0.3-0.6,0.4-0.9,0.3s-0.4-0.6-0.3-0.9l0,0&#10;&#9;&#9;c0-0.1,4-7.3,2.7-11.9c-1.5-5.2-0.6-10.8,1.1-11.5c1.4-0.6,5.5,1.4,5.9,1.6c2.7,1.3,2.9,1.9,2.9,2.2c0.4,1.3-1.5,25.3-1.6,25.5&#10;&#9;&#9;C310.1,279.2,309.8,279.4,309.5,279.4z"/>
	<path class="st1_parachute-12" d="M313.4,257c-0.1,0-0.1,0-0.2,0c-0.7-0.2-9.8-1.5-15.8-2.3c-0.4,0-0.6-0.4-0.6-0.7c0-0.1,0-0.1,0-0.2&#10;&#9;&#9;c0.1-0.4,3.7-9.2,10.1-10.4c1.2-0.2,2.5,0.1,3.4,0.9c3.5,2.9,3.7,11.7,3.7,12.1c0,0.2-0.1,0.5-0.3,0.6&#10;&#9;&#9;C313.7,257,313.5,257,313.4,257z M298.4,253.4c9.2,1.3,12.9,1.9,14.3,2.1c-0.1-2.2-0.7-8.2-3.2-10.3c-0.6-0.6-1.5-0.8-2.3-0.6&#10;&#9;&#9;C302.5,245.6,299.4,251.4,298.4,253.4L298.4,253.4z"/>
	<path class="st2_parachute-12" d="M302.3,253.9c0,0.2,0,0.4,0.1,0.5c0.2,0.4,0.8,0.5,1.2,0.3c0.4-0.2,0.7-0.6,0.9-1c-0.1,0.3-0.2,0.7-0.2,1.1&#10;&#9;&#9;c0,0.4,0.3,0.7,0.7,0.7c0.6,0,0.8-0.9,1.4-1.2c-0.2,0.3-0.3,0.7-0.3,1c-0.1,0.5,0.2,1.1,0.8,1.2c0.3,0.1,0.7,0,0.9-0.3&#10;&#9;&#9;c0.4-0.3,0.7-0.7,0.9-1.1c-0.2,0.6-0.2,1.5,0.4,1.8s1.2-0.1,1.7-0.6c0.6-0.7,1.1-1.5,1.3-2.4c0.2-0.7,0.1-1.5-0.3-2.1&#10;&#9;&#9;c-0.3-0.3-0.6-0.6-1-0.8c-1.2-0.8-2.6-1.3-4-1.7c-1-0.2-2.7-0.4-3.4,0.6C302.7,251.3,302.3,252.6,302.3,253.9z"/>
	<path class="st1_parachute-12" d="M309.4,257.9c-0.3,0-0.5-0.1-0.7-0.2c-0.3-0.2-0.6-0.4-0.7-0.7c-0.6,0.4-1.4,0.4-2,0c-0.3-0.2-0.5-0.5-0.6-0.8&#10;&#9;&#9;c-0.2,0.1-0.3,0.1-0.5,0.1c-0.5,0-1-0.4-1.2-0.9c-0.4,0.1-0.8,0.1-1.2,0c-0.3-0.1-0.6-0.4-0.8-0.7c-0.1-0.3-0.1-0.5-0.1-0.8l0,0&#10;&#9;&#9;c0-1.4,0.4-2.8,1.1-4.1c0.7-1,2.1-1.3,4.1-0.9c1.5,0.3,2.9,0.9,4.2,1.7c0.4,0.2,0.8,0.6,1.1,1c0.5,0.8,0.6,1.7,0.4,2.6&#10;&#9;&#9;c-0.2,1-0.7,2-1.5,2.7C310.7,257.5,310.1,257.8,309.4,257.9z M308.6,254.6c0.1,0,0.2,0,0.3,0.1c0.3,0.2,0.5,0.5,0.3,0.8&#10;&#9;&#9;c-0.2,0.4-0.1,0.9,0.1,1s0.6-0.1,0.9-0.4c0.6-0.6,0.9-1.3,1.1-2.1c0.1-0.5,0.1-1.1-0.2-1.6c-0.2-0.3-0.5-0.5-0.8-0.6&#10;&#9;&#9;c-1.2-0.7-2.5-1.3-3.9-1.6c-0.8-0.2-2.2-0.4-2.7,0.4c-0.6,1.1-0.9,2.2-0.9,3.4l0,0c0,0.1,0,0.2,0,0.2c0.1,0,0.2,0,0.3,0&#10;&#9;&#9;c0.3-0.2,0.5-0.4,0.7-0.7c0.2-0.3,0.6-0.4,0.9-0.2c0.2,0.2,0.3,0.5,0.2,0.8c-0.1,0.2-0.2,0.5-0.2,0.8c0,0.1,0,0.1,0.1,0.2&#10;&#9;&#9;c0,0,0.2-0.2,0.2-0.4c0.2-0.3,0.5-0.6,0.8-0.8c0.3-0.2,0.7,0,0.9,0.3c0.1,0.2,0.1,0.4,0,0.5c-0.1,0.3-0.2,0.5-0.3,0.8&#10;&#9;&#9;c0,0.1,0,0.3,0.1,0.4c0.2,0.1,0.4,0,0.5-0.1c0.3-0.2,0.5-0.5,0.7-0.9C308.2,254.8,308.4,254.6,308.6,254.6z M302.3,253.9&#10;&#9;&#9;L302.3,253.9z"/>
	<path class="st2_parachute-12" d="M303.2,264.5c-0.2-0.4-2.5-4.8-3.8-7.8s-1.5-3.4-0.4-3.7s5.3,6.4,5.3,6.4"/>
	<path class="st1_parachute-12" d="M303.2,265.1c-0.3,0-0.5-0.2-0.6-0.4c0-0.1-0.3-0.6-0.6-1.2c-0.9-1.6-2.3-4.4-3.2-6.6s-1.3-3.1-1-3.9&#10;&#9;&#9;c0.2-0.4,0.6-0.7,1.1-0.8c0.4-0.1,1.6-0.5,6,6.7c0.2,0.3,0.1,0.7-0.2,0.9s-0.7,0.1-0.9-0.2c-1.7-2.7-3.9-5.7-4.6-6.1&#10;&#9;&#9;c-0.1,0-0.1,0-0.2,0.1c0.3,0.9,0.6,1.8,1.1,2.7c0.9,2.1,2.3,4.8,3.2,6.5c0.4,0.7,0.6,1.2,0.7,1.3c0.1,0.3,0,0.7-0.4,0.9&#10;&#9;&#9;c0,0,0,0,0,0C303.4,265.1,303.3,265.1,303.2,265.1z"/>
	<path class="st2_parachute-12" d="M193.4,276.2c0,0-2.6-8.1-0.1-12.7s2.6-9.8,1.5-10.6s-8,0.7-8.5,1.6s-1.6,26-1.6,25.5"/>
	<path class="st1_parachute-12" d="M184.8,280.7h-0.1c-0.4,0-0.7-0.3-0.6-0.7c0,0,0,0,0,0c0,0,0-0.1,0-0.1l0.1-2.1c1.1-21,1.4-23.1,1.6-23.6&#10;&#9;&#9;c0.1-0.2,0.4-0.8,3.3-1.5c0.5-0.1,4.9-1.2,6.1-0.4c1.6,1.1,1.3,6.7-1.3,11.4c-2.3,4.3,0.1,12.2,0.1,12.2c0.1,0.4-0.1,0.7-0.4,0.8&#10;&#9;&#9;c-0.4,0.1-0.7-0.1-0.8-0.4c-0.1-0.3-2.6-8.5,0-13.3c2.5-4.6,2.3-9.3,1.7-9.7c-0.8-0.5-6.8,0.7-7.6,1.5c-0.2,0.7-0.7,8.4-1.4,23&#10;&#9;&#9;c-0.1,1-0.1,1.6-0.1,2c0,0,0,0.1,0,0.1l0,0C185.2,280.6,185.1,280.7,184.8,280.7z"/>
	<path class="st2_parachute-12" d="M191.8,266.8c0.2-0.4,3.5-4.1,5.4-6.8s2.1-3,1.1-3.6s-6.5,5.1-6.5,5.1"/>
	<path class="st1_parachute-12" d="M191.8,267.5c-0.4,0-0.6-0.3-0.6-0.7c0-0.1,0-0.2,0.1-0.3c0.1-0.1,0.4-0.5,0.9-1.1c1.2-1.4,3.1-3.8,4.4-5.7&#10;&#9;&#9;c0.6-0.8,1.1-1.6,1.6-2.5l-0.1-0.1c-0.8,0.2-3.6,2.7-5.8,5c-0.3,0.3-0.7,0.3-0.9,0c-0.3-0.3-0.3-0.7,0-0.9c0,0,0,0,0,0&#10;&#9;&#9;c5.8-6,6.9-5.4,7.3-5.2c0.4,0.2,0.8,0.6,0.9,1c0.2,0.8-0.4,1.5-1.8,3.6s-3.3,4.3-4.5,5.8c-0.4,0.5-0.8,0.9-0.9,1&#10;&#9;&#9;C192.2,267.4,192,267.5,191.8,267.5z"/>
	<path class="st1_parachute-12" d="M182.6,258.2c-0.2,0-0.3-0.1-0.5-0.2c-0.1-0.1-0.2-0.3-0.2-0.5c0-0.4,1.1-9.8,7-12.6c1.1-0.6,2.4-0.6,3.5-0.1&#10;&#9;&#9;c4.2,1.8,6.7,10.3,6.8,10.6c0.1,0.4-0.1,0.7-0.5,0.8c-0.1,0-0.1,0-0.2,0c-0.7,0-9.9,1.2-15.9,2L182.6,258.2z M190.8,245.7&#10;&#9;&#9;c-0.4,0-0.9,0.1-1.3,0.3c-4.3,2.1-5.7,8.5-6.1,10.8c9.3-1.2,12.9-1.6,14.4-1.8c-0.7-2.1-2.9-7.7-5.8-9&#10;&#9;&#9;C191.6,245.8,191.2,245.7,190.8,245.7L190.8,245.7z"/>
	<path class="st2_parachute-12" d="M194.8,256.7c0,0.2-0.1,0.4-0.2,0.5c-0.3,0.3-0.9,0.4-1.2,0.1c-0.3-0.3-0.6-0.7-0.7-1.1c0.1,0.4,0.1,0.7,0,1.1&#10;&#9;&#9;c-0.1,0.4-0.5,0.6-0.8,0.6c-0.6-0.1-0.6-1-1.1-1.5c0.1,0.4,0.1,0.7,0.1,1.1c0,0.4-0.3,0.7-0.6,0.9c-0.4,0.2-0.9,0-1.3-0.3&#10;&#9;&#9;c-0.3-0.4-0.5-0.8-0.6-1.2c0.1,0.7-0.1,1.5-0.8,1.7s-1.2-0.4-1.5-0.9c-0.5-0.8-0.7-1.7-0.8-2.6c-0.1-0.7,0.2-1.5,0.7-2&#10;&#9;&#9;c0.3-0.3,0.7-0.5,1.1-0.6c1.4-0.5,2.8-0.8,4.3-0.8c1.1,0,2.7,0.1,3.2,1.3C195,254,195.1,255.4,194.8,256.7z"/>
	<path class="st1_parachute-12" d="M187.4,259.1c-0.8-0.1-1.5-0.5-1.9-1.2c-0.6-0.9-0.9-1.9-0.9-3c-0.1-0.9,0.3-1.8,0.9-2.5&#10;&#9;&#9;c0.4-0.3,0.8-0.6,1.3-0.7c1.4-0.5,3-0.8,4.5-0.8c2,0,3.3,0.6,3.8,1.7c0.4,1.4,0.5,2.8,0.3,4.2c0,0.3-0.1,0.6-0.3,0.8&#10;&#9;&#9;c-0.2,0.3-0.5,0.5-0.9,0.5c-0.4,0.1-0.8,0-1.2-0.3c-0.3,0.5-0.8,0.7-1.4,0.6c-0.2,0-0.4-0.1-0.5-0.2c-0.2,0.3-0.4,0.5-0.7,0.7&#10;&#9;&#9;c-0.7,0.3-1.4,0.1-1.9-0.4c-0.2,0.3-0.5,0.5-0.8,0.6C187.7,259.1,187.5,259.1,187.4,259.1z M191.6,252.2h-0.1&#10;&#9;&#9;c-1.4,0-2.8,0.3-4.1,0.8c-0.3,0.1-0.6,0.2-0.9,0.4c-0.4,0.4-0.5,1-0.5,1.5c0,0.8,0.2,1.6,0.7,2.3c0.2,0.4,0.6,0.7,0.8,0.6&#10;&#9;&#9;s0.4-0.5,0.3-1c0-0.3,0.2-0.7,0.5-0.7c0.3-0.1,0.7,0.1,0.8,0.4c0.1,0.4,0.3,0.7,0.5,1c0.1,0.1,0.3,0.2,0.5,0.2&#10;&#9;&#9;c0.1-0.1,0.2-0.2,0.2-0.4c0-0.3,0-0.6-0.1-0.9c-0.1-0.4,0.2-0.7,0.5-0.8c0.2,0,0.4,0,0.6,0.1c0.3,0.3,0.5,0.6,0.6,0.9&#10;&#9;&#9;c0.1,0.1,0.1,0.3,0.2,0.4c0,0,0-0.1,0.1-0.1c0.1-0.3,0.1-0.5,0-0.8c-0.1-0.4,0.2-0.7,0.5-0.8c0.3-0.1,0.6,0.1,0.7,0.4&#10;&#9;&#9;c0.1,0.3,0.3,0.6,0.5,0.9c0.1,0.1,0.2,0.1,0.3,0.1c0,0,0-0.1,0-0.2l0,0c0.2-1.2,0.2-2.4-0.2-3.5&#10;&#9;&#9;C193.7,252.3,192.4,252.2,191.6,252.2z"/>
	<path class="st3_parachute-12 targetColor" d="M267.4,271.3l24.4,9.7l6.2-21.6l14,3.1c0,0-2.2,41.6-7.8,41.2S265.3,286,265.3,286L267.4,271.3z" style="fill: rgb(0, 102, 41);"/>
	<path class="st2_parachute-12" d="M231.4,258.4c-3-0.3-6,0.4-8.6,1.9c-6.3,3.6-7.6,9.1-9.4,15.4c-3,10.4-6.6,20.9-6,31.8c0,2.1,0.4,4.1,1.2,6&#10;&#9;&#9;c0.9,1.7,2,3.2,3.4,4.5c6.2,6.2,10,7,18,6.1c1.4-0.2,18.5,1.2,18.6,0.8L260,270c0.3-1.3-24.2-10.5-26.8-11.2&#10;&#9;&#9;C232.6,258.6,232,258.5,231.4,258.4z"/>
	<path class="st1_parachute-12" d="M247.5,325.6c-1.4,0-4.2-0.2-9.4-0.5c-3.5-0.2-7.5-0.4-8.1-0.4c-8.1,1-12.2,0.2-18.6-6.3&#10;&#9;&#9;c-1.4-1.3-2.7-2.9-3.6-4.7c-0.8-2-1.3-4.1-1.3-6.2c-0.6-9.9,2.3-19.5,5.1-28.8c0.3-1.1,0.6-2.2,1-3.2l0.3-1&#10;&#9;&#9;c1.8-6,3.3-11.3,9.4-14.8c2.7-1.6,5.9-2.3,9-2l0,0c0.7,0.1,1.3,0.2,2,0.4c1.3,0.4,8.1,2.8,14.5,5.4c13,5.2,12.9,5.9,12.7,6.6&#10;&#9;&#9;L249.2,325C249.1,325.4,249.1,325.6,247.5,325.6z M230.4,323.4c1.1,0,3.8,0.1,7.8,0.4c3.6,0.2,8.4,0.5,9.8,0.5&#10;&#9;&#9;c0.4-1.8,2.2-10.6,11.3-54.2c-2.1-1.8-23.4-10-26.2-10.7c-0.6-0.2-1.2-0.3-1.8-0.3l0,0c-2.9-0.3-5.7,0.3-8.2,1.8&#10;&#9;&#9;c-5.7,3.2-7.1,8.2-8.8,14l-0.3,1c-0.3,1.1-0.6,2.1-1,3.2c-2.7,9.2-5.6,18.7-5,28.4c0,2,0.4,3.9,1.2,5.8c0.8,1.6,2,3.1,3.3,4.3&#10;&#9;&#9;c6.1,6.1,9.7,6.8,17.5,5.9L230.4,323.4z M259.4,270.2L259.4,270.2z"/>
	<path class="st1_parachute-12" d="M211.7,312.8c-0.4,0-0.6-0.3-0.7-0.6c-0.9-22.5,12.6-50.5,12.8-50.8c0.1-0.3,0.5-0.5,0.9-0.4s0.5,0.5,0.4,0.9&#10;&#9;&#9;c0,0,0,0.1-0.1,0.1c-0.1,0.3-13.5,28.1-12.6,50.2C212.4,312.5,212.1,312.8,211.7,312.8C211.7,312.8,211.7,312.8,211.7,312.8&#10;&#9;&#9;L211.7,312.8z"/>
	<path class="st2_parachute-12" d="M178.7,343.3c0,0-9.7-3.5-10.4-2.7s-6.2,18.6-6.5,25.4s5.5,14.2,8.5,12.7s0.5-18.6,4.4-24.1&#10;&#9;&#9;C176.9,351.2,178.3,347.3,178.7,343.3z"/>
	<path class="st1_parachute-12" d="M169.4,379.5c-0.8,0-1.5-0.3-2.2-0.8c-3.1-2-6.3-7.6-6.1-12.8c0.2-6.5,5.7-24.8,6.7-25.8c0.3-0.3,1-1,11.1,2.6&#10;&#9;&#9;c0.3,0.1,0.5,0.4,0.4,0.6c-0.4,4.2-1.8,8.1-4.2,11.5c-1.9,2.7-2.2,8.7-2.4,14c-0.3,6-0.5,9.5-2.2,10.3&#10;&#9;&#9;C170.2,379.4,169.8,379.5,169.4,379.5z M168.7,341.1c-0.9,1.7-6,18.5-6.2,24.8c-0.2,4.7,2.8,9.9,5.5,11.6c0.6,0.5,1.3,0.6,2,0.4&#10;&#9;&#9;c1.1-0.5,1.3-5.3,1.4-9.2c0.2-5.5,0.5-11.7,2.7-14.7c2.2-3.1,3.5-6.6,4-10.4C174.1,342.4,169.7,341.1,168.7,341.1z"/>
	<path class="st1_parachute-12" d="M257.2,317.8c0,0,23.7,34.9,25.6,39.3s19.4,41.4,19.4,41.4l-14.5,5.6c0,0-20.4-28.4-24.3-39.2&#10;&#9;&#9;c-1.9-5.3-22.2-29.6-22.2-29.6s-12.1,43.5-17,43.5s-49.6-24.2-49.6-24.2l4.1-11.2l31.7,5.2l5.4-31.3L257.2,317.8z"/>
	<path class="st1_parachute-12" d="M287.6,404.8c-0.2,0-0.4-0.1-0.5-0.3c-0.8-1.2-20.5-28.5-24.3-39.3c-1.6-4.6-17.5-23.9-21.3-28.5&#10;&#9;&#9;c-0.9,3.1-3.4,11.9-6.3,20.5c-7.4,22.2-9.9,22.2-10.9,22.2c-4.9,0-45.3-21.8-49.9-24.3c-0.3-0.2-0.4-0.5-0.3-0.8l4.1-11.2&#10;&#9;&#9;c0.1-0.3,0.4-0.5,0.7-0.4l31,5.1l5.3-30.6c0.1-0.3,0.3-0.5,0.6-0.5l41.4,0.5c0.2,0,0.4,0.1,0.5,0.3c1,1.4,23.8,35,25.6,39.5&#10;&#9;&#9;s19.2,41,19.4,41.4c0.1,0.2,0.1,0.4,0,0.5c-0.1,0.2-0.2,0.3-0.4,0.4l-14.5,5.6C287.7,404.7,287.7,404.8,287.6,404.8z M241.2,334.6&#10;&#9;&#9;c0.2,0,0.4,0.1,0.5,0.2c0.8,1,20.4,24.5,22.3,29.9c3.5,9.9,21.4,35,23.9,38.6l13.4-5.2c-2.4-5.1-17.4-36.6-19.1-40.8&#10;&#9;&#9;s-23-35.6-25.3-38.9l-40.5-0.5l-5.3,30.7c-0.1,0.4-0.4,0.6-0.8,0.5l-31.1-5.2l-3.7,10.1c12.8,6.9,45,23.9,48.8,23.9&#10;&#9;&#9;c2.7,0,10.4-21.9,16.3-43c0.1-0.2,0.3-0.4,0.5-0.5L241.2,334.6z"/>
	<path class="st2_parachute-12" d="M276.8,241.4c-0.3-0.8-0.9-1.6-1.6-2.1c-0.7-0.5-1.6-0.9-2.5-1.2c-1.7-0.6-3.4-1.1-5.2-1.3&#10;&#9;&#9;c-0.9-0.1-3.8,0.5-4.4,0.3c-1.7-0.7-1.3-2.8-3.9-3.3c-3.4-0.6-8.2,2.9-10.8,4.7c-4.8,3.2-10.2,6.5-15.8,5.5&#10;&#9;&#9;c1.8,13.7,13.4,24.6,26.3,29.5c1,0.5,2.1,0.7,3.2,0.5c1.4-0.3,2.4-1.5,3.3-2.6c5.7-7,12.2-15.4,12.1-24.8&#10;&#9;&#9;C277.6,244.8,277.4,243.1,276.8,241.4z"/>
	<path class="st1_parachute-12" d="M261.4,274.6c-0.9,0-1.9-0.3-2.8-0.6c-14.6-5.5-25-17.3-26.7-30c0-0.2,0-0.4,0.2-0.6c0.2-0.1,0.4-0.2,0.6-0.2&#10;&#9;&#9;c5.3,1,10.5-2.1,15.3-5.4l0.7-0.5c2.9-2,7.2-4.9,10.6-4.3c1.3,0.2,2.3,1,2.9,2.2c0.2,0.5,0.6,0.9,1.1,1.2c0.7,0,1.5-0.1,2.2-0.2&#10;&#9;&#9;c0.7-0.1,1.3-0.2,2-0.2c1.8,0.2,3.5,0.7,5.1,1.3l0.2,0.1c1,0.3,1.9,0.7,2.7,1.3c0.8,0.6,1.4,1.5,1.8,2.4l0,0&#10;&#9;&#9;c0.6,1.7,0.9,3.6,0.9,5.4c0.1,9.9-7,18.8-12.3,25.2c-1.1,1.3-2.1,2.5-3.7,2.8C262,274.6,261.7,274.6,261.4,274.6z M233.4,244.6&#10;&#9;&#9;c2,11.9,12,22.9,25.8,28.1c0.9,0.4,1.9,0.6,2.8,0.5c1.2-0.4,2.2-1.3,2.9-2.3c5.1-6.3,12.1-14.9,12-24.3c0.1-1.7-0.2-3.3-0.7-4.9&#10;&#9;&#9;l0,0c-0.3-0.7-0.8-1.4-1.4-1.9c-0.7-0.5-1.5-0.9-2.3-1.1l-0.2-0.1c-1.6-0.6-3.2-1-4.8-1.2c-0.6,0-1.2,0.1-1.8,0.1&#10;&#9;&#9;c-0.9,0.2-1.9,0.3-2.8,0.1c-0.8-0.4-1.4-1-1.7-1.7c-0.4-0.8-1.1-1.4-2-1.6c-2.9-0.5-7.1,2.4-9.6,4.1l-0.7,0.5&#10;&#9;&#9;C244,242.2,238.9,245.2,233.4,244.6L233.4,244.6z"/>
	<path class="st3_parachute-12 targetColor" d="M273.2,271.8c-0.3-1-28.1-17-39.6-10.6s-17.8,56.1-17.8,56.1c7.1,0.5,14.1,1.3,21.1,2.5&#10;&#9;&#9;c14.4,2.2,17.8,0.2,17.8,0.2S281.6,297.6,273.2,271.8z" style="fill: rgb(0, 102, 41);"/>
	<path class="st2_parachute-12" d="M260.3,265.5l-2.3,7.8c0,0-2,3.3-6.9,0.5s-4.6-6.6-4.6-6.6l4.8-14.4c0,0,9.4-2.1,10.7-10.8c0,0,2,5.8,10,7&#10;&#9;&#9;c-1.3,4.5-2.7,8.9-4.4,13.2C265.7,266.1,260.3,265.5,260.3,265.5z"/>
	<path class="st1_parachute-12" d="M254.7,275.6c-1.4,0-2.7-0.4-3.9-1.2c-5.2-2.9-5-7-5-7.2c0-0.1,0-0.1,0-0.2l4.8-14.4c0.1-0.2,0.3-0.4,0.5-0.4&#10;&#9;&#9;c0.4-0.1,9-2.1,10.2-10.2c0-0.3,0.3-0.5,0.6-0.6c0.3,0,0.6,0.2,0.7,0.4c0.1,0.2,2,5.4,9.5,6.5c0.2,0,0.4,0.1,0.5,0.3&#10;&#9;&#9;c0.1,0.2,0.1,0.4,0.1,0.5c-1.3,4.5-2.8,8.9-4.5,13.3c-1.6,3.5-5.8,3.7-7.3,3.7l-2.1,7.3c0,0.1,0,0.1-0.1,0.2&#10;&#9;&#9;C257.6,274.9,256.2,275.6,254.7,275.6z M247.1,267.4c0,0.5,0.2,3.6,4.3,5.9c3.9,2.2,5.7,0.2,6-0.2l2.2-7.7c0.1-0.3,0.4-0.5,0.7-0.5&#10;&#9;&#9;c0,0,5,0.5,6.5-2.9c1.6-4.1,3-8.2,4.2-12.4c-3.6-0.5-6.8-2.5-8.9-5.6c-2,6.6-8.7,8.9-10.4,9.4L247.1,267.4z M258,273.3L258,273.3z"/>
	<path class="st2_parachute-12" d="M253.8,253.1c0-0.8-0.2-1.5-0.6-2.2c-0.4-0.6-1-1.1-1.6-1.4c-0.3-0.2-0.6-0.4-1-0.5c-0.3,0-0.6,0-0.8,0.1&#10;&#9;&#9;c-0.6,0.1-1.2,0.5-1.6,1c-0.3,0.4-0.5,1-0.5,1.5c-0.1,0.6-0.1,1.1-0.1,1.7c0.3,2.4,2.5,4,4.9,3.7c0,0,0,0,0,0"/>
	<path class="st1_parachute-12" d="M251.8,257.7c-1.1,0-2.1-0.4-3-1c-1.1-0.8-1.7-2-1.9-3.3c-0.1-0.6-0.1-1.3,0-1.9c0.1-0.6,0.3-1.2,0.6-1.8&#10;&#9;&#9;c0.5-0.6,1.2-1.1,2-1.2c0.4-0.1,0.7-0.1,1.1-0.1c0.5,0.1,1,0.3,1.4,0.6c0.7,0.4,1.3,1,1.7,1.6c0.5,0.7,0.8,1.6,0.8,2.6&#10;&#9;&#9;c0,0.4-0.3,0.6-0.6,0.6c0,0,0,0,0,0c-0.4,0-0.6-0.3-0.6-0.7c0-0.6-0.2-1.2-0.5-1.8c-0.4-0.5-0.9-0.9-1.4-1.3&#10;&#9;&#9;c-0.2-0.2-0.5-0.3-0.8-0.4c-0.2,0-0.4,0-0.6,0.1c-0.5,0.1-0.9,0.3-1.2,0.7c-0.2,0.4-0.3,0.8-0.4,1.2c-0.1,0.5-0.1,1,0,1.5&#10;&#9;&#9;c0.2,2,2.1,3.4,4.1,3.2c0,0,0.1,0,0.1,0c0.4-0.1,0.7,0.2,0.8,0.6s-0.2,0.7-0.6,0.8C252.3,257.7,252.1,257.7,251.8,257.7z"/>
	<path class="st2_parachute-12" d="M263.6,252.8c0,0,1.8,4.8,0.9,5.4s-2.6-0.4-2.6-0.4"/>
	<path class="st1_parachute-12" d="M263.8,259c-0.8,0-1.5-0.3-2.2-0.6c-0.3-0.2-0.4-0.6-0.3-0.9c0.2-0.3,0.6-0.4,0.9-0.3c0.5,0.3,1.2,0.5,1.8,0.4&#10;&#9;&#9;c-0.1-1.6-0.5-3.2-1.1-4.6c-0.1-0.3,0-0.7,0.4-0.8c0.3-0.1,0.7,0,0.9,0.4c1.9,5.3,1,5.9,0.7,6.2C264.6,258.9,264.2,259,263.8,259z"/>
	
		<ellipse transform="matrix(2.547903e-02 -0.9997 0.9997 2.547903e-02 3.7621 504.9357)" class="st1_parachute-12" cx="260.9" cy="250.5" rx="1" ry="0.7"/>
	
		<ellipse transform="matrix(2.547903e-02 -0.9997 0.9997 2.547903e-02 7.8152 511.0672)" class="st1_parachute-12" cx="266" cy="251.5" rx="1" ry="0.7"/>
	<path class="st1_parachute-12" d="M270.7,256.2c-4.1,0-13.6-2.1-16.1-3.5c-3.2-1.9-1.4-7.2-1.3-7.4c0.1-0.3,0.4-0.5,0.8-0.4l20.6,4.8&#10;&#9;&#9;c0.3,0.1,0.6,0.4,0.5,0.8c-0.1,0.5-0.8,4.6-2.9,5.6C271.8,256.2,271.2,256.2,270.7,256.2z M254.4,246.3c-0.3,1.2-0.9,4.2,0.9,5.2&#10;&#9;&#9;c2.8,1.7,15.1,3.9,16.4,3.3c0.9-0.4,1.7-2.5,2-4L254.4,246.3z"/>
	<path class="st2_parachute-12" d="M263.3,260.6l-5.2-4.3c-1.2,1.3-1.4,3.2-0.6,4.7C259,264.3,263.3,260.6,263.3,260.6z"/>
	<path class="st1_parachute-12" d="M259.5,263.1c-0.2,0-0.4,0-0.7-0.1c-0.9-0.2-1.6-0.8-1.9-1.6c-1-1.8-0.7-4,0.7-5.5c0.2-0.2,0.6-0.2,0.9,0&#10;&#9;&#9;l5.2,4.3c0.2,0.1,0.2,0.3,0.2,0.5c0,0.2-0.1,0.4-0.2,0.5C263.5,261.4,261.4,263.1,259.5,263.1z M258.2,257.3&#10;&#9;&#9;c-0.6,1.1-0.7,2.4-0.1,3.5c0.2,0.4,0.5,0.8,1,0.9c1,0.2,2.3-0.5,3.2-1.1L258.2,257.3z"/>
	<path class="st1_parachute-12" d="M260.3,265.5c0,0-4-1.3-5.6-3c0,0,0.1,5.1,4.1,7.6L260.3,265.5z"/>
	<path class="st1_parachute-12" d="M258.9,270.9c-0.1,0-0.3,0-0.4-0.1c-4.3-2.7-4.4-8-4.4-8.2c0-0.4,0.3-0.7,0.6-0.7c0.2,0,0.4,0.1,0.5,0.2&#10;&#9;&#9;c1.4,1.5,5.2,2.8,5.3,2.8c0.3,0.1,0.5,0.5,0.4,0.8c0,0,0,0,0,0l-1.4,4.7c-0.1,0.2-0.2,0.4-0.4,0.4&#10;&#9;&#9;C259,270.8,258.9,270.9,258.9,270.9z M255.6,264.1c0.4,1.9,1.4,3.7,2.9,5l1-3.2C258.1,265.4,256.8,264.8,255.6,264.1L255.6,264.1z"/>
	<path class="st2_parachute-12" d="M267.6,268.3c0,0,4.5,9.7,1.1,23.6c-2.7,11.1-10.4,23.6-10.4,23.6s11.5-6.2,14.5-22s0-23.5,0-23.5L267.6,268.3&#10;&#9;&#9;z"/>
	<path class="st1_parachute-12" d="M258.4,316.3c-0.2,0-0.4-0.1-0.5-0.2c-0.2-0.2-0.2-0.5-0.1-0.8c0.1-0.1,7.7-12.6,10.3-23.5&#10;&#9;&#9;c3.3-13.6-1.1-23.1-1.1-23.2c-0.1-0.2-0.1-0.5,0.1-0.7c0.2-0.2,0.5-0.3,0.7-0.2l5.3,1.9c0.2,0.1,0.3,0.2,0.4,0.4&#10;&#9;&#9;c0.1,0.3,3.1,8,0,23.8s-14.4,22.2-14.8,22.4C258.6,316.3,258.5,316.3,258.4,316.3z M268.8,269.4c2.4,7.4,2.6,15.2,0.6,22.7&#10;&#9;&#9;c-2,8.1-6.6,17-9,21.3c6.2-5,10.4-12.1,11.9-19.9c2.6-13.8,0.6-21.3,0.1-22.8L268.8,269.4z"/>
	<path class="st2_parachute-12" d="M287.6,404.1l14.5-5.6l4.4,2.8c0,0,18.9-11.9,24.4-7.6c0.8,0.6-35,23.1-35,23.1L287.6,404.1z"/>
	<path class="st1_parachute-12" d="M296,417.4c-0.2,0-0.4-0.1-0.5-0.3l-8.4-12.7c-0.1-0.2-0.1-0.4-0.1-0.6c0.1-0.2,0.2-0.3,0.4-0.4l14.5-5.6&#10;&#9;&#9;c0.2-0.1,0.4-0.1,0.6,0.1l4,2.6c2.7-1.7,19.4-11.6,24.8-7.4c0.2,0.1,0.3,0.4,0.3,0.6c0,0.5-0.1,1.5-35.3,23.6&#10;&#9;&#9;C296.2,417.4,296.1,417.4,296,417.4z M288.6,404.4l7.6,11.5c12.5-7.9,30.6-19.5,33.8-22.1c-4.8-2.3-18.1,4.9-23.1,8&#10;&#9;&#9;c-0.2,0.1-0.5,0.1-0.7,0l-4.1-2.6L288.6,404.4z"/>
	<path class="st1_parachute-12" d="M296.2,416.9c0.2-0.3,0.4-0.5,0.6-0.7c2.9-2.7,5.9-5.3,9.2-7.6c4.7-3.5,9.4-6.8,14.3-10&#10;&#9;&#9;c2.1-1.4,4.4-2.7,6.6-3.9c1.5-0.7,4.2-1.9,4.1,0.8c-0.1,2.4-2,4.7-3.6,6.4c-3.7,3.7-7.9,7-12.4,9.7c-4.4,2.8-8.8,5.6-13.8,7.1&#10;&#9;&#9;c-1.1,0.3-5.6,0.9-5.4-1.2C296,417.4,296.1,417.1,296.2,416.9z"/>
	<path class="st1_parachute-12" d="M298.7,419.8c-1,0.1-2-0.2-2.8-0.7c-0.4-0.4-0.7-1-0.6-1.5c0-0.4,0.2-0.7,0.4-1l0,0c0.2-0.3,0.4-0.6,0.7-0.8&#10;&#9;&#9;c2.9-2.8,6-5.3,9.2-7.7c4.7-3.5,9.5-6.8,14.4-10c2.2-1.5,4.4-2.8,6.7-3.9c1.4-0.7,3.1-1.4,4.2-0.6c0.6,0.5,1,1.3,0.9,2.1&#10;&#9;&#9;c-0.1,2.6-2,5-3.8,6.8c-3.8,3.8-8,7.1-12.5,9.8l-0.3,0.2c-4.3,2.7-8.7,5.5-13.7,7C300.6,419.6,299.7,419.8,298.7,419.8z&#10;&#9;&#9; M296.8,417.3c-0.1,0.1-0.1,0.3-0.2,0.4c0,0.1,0,0.3,0.1,0.4c0.8,0.6,3.5,0.4,4.4,0.1c4.8-1.4,9.1-4.2,13.4-6.9l0.3-0.2&#10;&#9;&#9;c4.5-2.7,8.6-5.9,12.3-9.6c1.6-1.6,3.4-3.8,3.4-6c0-0.3,0-0.8-0.3-0.9s-0.9-0.3-2.9,0.7c-2.3,1.2-4.5,2.4-6.6,3.9&#10;&#9;&#9;c-4.8,3.1-9.6,6.5-14.3,9.9c-3.2,2.3-6.3,4.8-9.1,7.5C297.1,416.8,296.9,417,296.8,417.3L296.8,417.3z"/>
	<path class="st3_parachute-12 targetColor" d="M233.6,261.2c-6,3.2-11.7,7-17,11.2c-8.1,6.5-16.5,15.7-18,14c-3-3.5-3.2-18-3.2-18l-12.8,0.6&#10;&#9;&#9;c0,0-5.6,40,9.1,36.4s37.8-22,37.8-22L233.6,261.2z" style="fill: rgb(0, 102, 41);"/>
	<path class="st2_parachute-12" d="M213.1,324.9c0,0,23.6,8.7,29.7,15.5l-2.2,5.5c0,0-24.4-13.4-30.2-13.4L213.1,324.9z"/>
	<path class="st1_parachute-12" d="M240.6,346.7c-0.1,0-0.2,0-0.3-0.1c-0.2-0.1-24.3-13.4-29.9-13.4c-0.4,0-0.7-0.3-0.7-0.7c0-0.1,0-0.1,0-0.2&#10;&#9;&#9;l2.7-7.7c0.1-0.2,0.2-0.3,0.3-0.4c0.2-0.1,0.3-0.1,0.5,0c1,0.4,23.9,8.8,29.9,15.7c0.2,0.2,0.2,0.4,0.1,0.7l-2.2,5.6&#10;&#9;&#9;c-0.1,0.2-0.2,0.3-0.4,0.4C240.8,346.7,240.7,346.7,240.6,346.7z M211.3,332c6.5,1,25.1,11,29,13.1l1.7-4.5&#10;&#9;&#9;c-5.7-6-24.8-13.4-28.5-14.8L211.3,332z"/>
	<path class="st2_parachute-12" d="M246.4,343.8c0,0,20.4-11.9,24.8-12.2l-3.8-6.7c0,0-22.5,10-24.7,15.5L246.4,343.8z"/>
	<path class="st1_parachute-12" d="M246.4,344.5c-0.2,0-0.3-0.1-0.4-0.2l-3.7-3.3c-0.2-0.2-0.3-0.5-0.2-0.7c2.2-5.8,24.1-15.5,25-15.9&#10;&#9;&#9;c0.3-0.1,0.7,0,0.8,0.3l3.8,6.7c0.1,0.2,0.1,0.4,0,0.6c-0.1,0.2-0.3,0.3-0.5,0.4c-3.5,0.2-18.9,8.8-24.5,12.1&#10;&#9;&#9;C246.6,344.5,246.5,344.5,246.4,344.5z M243.6,340.3l3,2.7c2.8-1.6,18.3-10.5,23.7-11.9l-3-5.4C260.8,328.6,246,336,243.6,340.3&#10;&#9;&#9;L243.6,340.3z"/>
	<path class="st2_parachute-12" d="M214.2,313.3c0,0,11-4.6,21.5-19.6s6.9-32.5,6.5-34c-0.1-0.5-4.9,0-4.9,0s3.8,12.5-1.8,24s-21.9,25.2-21.8,25&#10;&#9;&#9;S214.2,313.3,214.2,313.3z"/>
	<path class="st1_parachute-12" d="M214.2,313.9c-0.1,0-0.2,0-0.3-0.1c-0.2-0.1-0.3-0.3-0.3-0.5c-0.1-1.8-0.3-3.8-0.4-4.3c-0.1-0.2-0.1-0.5,0-0.7&#10;&#9;&#9;c0.1-0.1,0.1-0.1,0.2-0.2c1.6-1.2,16.5-14.3,21.5-24.8c5.3-11.1,1.8-23.4,1.7-23.5c-0.1-0.2,0-0.4,0.1-0.6c0.1-0.2,0.3-0.3,0.5-0.3&#10;&#9;&#9;c5.3-0.5,5.5,0,5.6,0.5c0,0.2,4.6,18.6-6.6,34.5c-10.5,15-21.3,19.7-21.8,19.9C214.3,313.9,214.3,313.9,214.2,313.9z M214.5,308.9&#10;&#9;&#9;c0.1,0.6,0.2,1.6,0.3,3.3c2.8-1.4,11.8-6.7,20.4-19c9.9-14.1,7-30.6,6.4-33.1c-1.2,0-2.3,0-3.5,0.1c0.7,3,2.8,13.6-2,23.7&#10;&#9;&#9;C231.5,293.6,217.8,306.5,214.5,308.9L214.5,308.9z"/>
	<path class="st1_parachute-12" d="M240.6,318.9c-0.1,0-0.2,0-0.3-0.1c-0.3-0.2-0.4-0.6-0.3-0.9c0,0,0,0,0,0c7.6-13.6,13.1-42.8,13.1-43&#10;&#9;&#9;c0.1-0.4,0.4-0.6,0.8-0.5c0,0,0,0,0,0c0.4,0.1,0.6,0.4,0.5,0.8c-0.1,0.3-5.6,29.6-13.3,43.4C241.1,318.7,240.8,318.9,240.6,318.9z"/>
	<path class="st1_parachute-12" d="M288.6,290.9c-0.1,0-0.1,0-0.2,0c-0.3-0.1-0.5-0.5-0.4-0.8c0,0,0,0,0,0l8.8-23.9c0.1-0.4,0.5-0.6,0.8-0.5&#10;&#9;&#9;c0.4,0.1,0.6,0.5,0.5,0.8c0,0,0,0.1,0,0.1l-8.8,23.9C289.1,290.8,288.9,290.9,288.6,290.9z"/>
	<path class="st1_parachute-12" d="M205.6,300.2c-0.2,0-0.4-0.1-0.6-0.3c-0.2-0.3-0.1-0.7,0.2-0.9c0,0,0,0,0,0l21.9-14.6c0.3-0.2,0.7-0.1,0.9,0.2&#10;&#9;&#9;c0,0,0,0,0,0c0.2,0.3,0.1,0.7-0.2,0.9c0,0,0,0,0,0L206,300C205.9,300.1,205.8,300.2,205.6,300.2z"/>
	<path class="st2_parachute-12" d="M210.4,358.2c-0.3,0-0.5-0.2-0.6-0.4c-1.1-3.1-1.1-6.4,0-9.5c0.1-0.3,0.5-0.4,0.8-0.3c0,0,0,0,0,0&#10;&#9;&#9;c0.3,0.1,0.4,0.4,0.3,0.7c0,0,0,0,0,0c-0.9,2.8-0.9,5.9,0,8.7c0.1,0.3-0.1,0.6-0.4,0.7c0,0,0,0,0,0L210.4,358.2z"/>
	<path class="st2_parachute-12" d="M241.9,332.3h-0.1c-0.3-0.1-0.5-0.4-0.5-0.7c0.7-3.5,1.2-6.9,1.2-6.9c0.1-0.3,0.4-0.5,0.7-0.5&#10;&#9;&#9;c0.3,0,0.5,0.3,0.5,0.6c0,0,0,0,0,0c0,0-0.5,3.4-1.2,7C242.4,332.1,242.1,332.3,241.9,332.3z"/>
</g>
<g id="Cloud_parachute-12">
	<path class="st0_parachute-12" d="M106.3,400.3H73.7c-6.6,0-12-4.4-12-9.9c0-5.2,5-9.5,11.3-9.9c1-8.5,9.8-15.1,20.4-15.1c1.2,0,2.4,0.1,3.6,0.3&#10;&#9;&#9;c2.1-3.5,6.5-5.7,11.3-5.7c6.7,0,12.2,4.3,12.6,9.7c1.5-0.5,3-0.7,4.5-0.7c6.9,0,12.6,4.6,12.6,10.3c0,0.7-0.1,1.3-0.2,2&#10;&#9;&#9;c-0.1,0.4-0.4,0.6-0.8,0.5c0,0,0,0,0,0c-0.4-0.1-0.6-0.4-0.5-0.8c0,0,0,0,0,0c0.1-0.6,0.2-1.1,0.2-1.7c0-5-5.1-9-11.3-9&#10;&#9;&#9;c-1.7,0-3.3,0.3-4.9,0.9c-0.2,0.1-0.4,0.1-0.6-0.1c-0.2-0.1-0.3-0.3-0.3-0.6v-0.3c0-5-5.1-9-11.3-9c-4.5,0-8.6,2.1-10.3,5.5&#10;&#9;&#9;c-0.1,0.2-0.4,0.4-0.7,0.3c-1.3-0.2-2.6-0.3-3.8-0.3c-10.1,0-18.5,6.3-19.1,14.4c0,0.3-0.3,0.6-0.7,0.6c-5.8,0.1-10.5,3.9-10.5,8.5&#10;&#9;&#9;s4.8,8.6,10.7,8.6h32.6c0.4,0,0.6,0.4,0.6,0.7C106.9,400.1,106.6,400.3,106.3,400.3L106.3,400.3z"/>
	<path class="st0_parachute-12" d="M149.5,282.1c-0.4,0-0.7-0.3-0.7-0.7s0.3-0.7,0.7-0.7c7.9,0,14.4-5.2,14.4-11.6s-6.4-11.5-14.2-11.6&#10;&#9;&#9;c-0.3,0-0.6-0.3-0.7-0.6c-0.9-10.9-12.1-19.4-25.6-19.4c-1.7,0-3.4,0.1-5.1,0.4c-0.3,0-0.6-0.1-0.7-0.3c-2.4-4.5-7.9-7.4-13.9-7.4&#10;&#9;&#9;c-8.4,0-15.2,5.5-15.2,12.2c0,0.1,0,0.1,0,0.2v0.2c0,0.2-0.1,0.4-0.3,0.6c-0.2,0.1-0.4,0.2-0.6,0.1c-2.1-0.8-4.3-1.2-6.6-1.2&#10;&#9;&#9;c-8.4,0-15.2,5.5-15.2,12.2c0,0.8,0.1,1.6,0.3,2.3c0,0.2,0,0.4-0.1,0.5c-0.1,0.2-0.3,0.3-0.5,0.3c-7.2,0.7-12.7,5.7-12.7,11.5&#10;&#9;&#9;c0,6.4,6.5,11.6,14.4,11.6h33.4c0.4,0,0.7,0.3,0.7,0.7s-0.3,0.7-0.7,0.7H67.4c-8.7,0-15.8-5.8-15.8-12.9c0-6.3,5.6-11.7,13.1-12.7&#10;&#9;&#9;c-0.1-0.6-0.2-1.3-0.2-1.9c0-7.4,7.4-13.5,16.5-13.5c2.1,0,4.2,0.3,6.2,1c0.3-7.2,7.6-13,16.5-13c6.3,0,12.1,3,14.9,7.6&#10;&#9;&#9;c1.6-0.2,3.3-0.4,4.9-0.4c14,0,25.6,8.7,26.9,20c8.3,0.4,14.9,6,14.9,12.9C165.3,276.3,158.2,282.1,149.5,282.1z"/>
	<path class="st0_parachute-12" d="M427.8,354.8c-0.4,0-0.6-0.4-0.6-0.7c0-0.3,0.3-0.5,0.6-0.6c9.5,0,17.3-6.8,17.3-15.1c0-7.6-6.5-14-15.2-14.9&#10;&#9;&#9;c-0.2,0-0.4-0.1-0.5-0.3c-0.1-0.2-0.1-0.3-0.1-0.5c0.2-1,0.3-2,0.4-3c0-8.7-8.2-15.9-18.2-15.9c-2.7,0-5.4,0.5-7.9,1.6&#10;&#9;&#9;c-0.2,0.1-0.4,0.1-0.6-0.1c-0.2-0.1-0.3-0.3-0.3-0.6v-0.3c0-0.1,0-0.2,0-0.3c0-8.7-8.2-15.9-18.2-15.9c-7.2,0-13.8,3.7-16.7,9.5&#10;&#9;&#9;c-0.1,0.3-0.4,0.4-0.7,0.4c-2-0.4-4.1-0.5-6.1-0.5c-16.1,0-29.6,11-30.6,25.1c0,0.3-0.3,0.6-0.7,0.6c-9.4,0.1-17,6.9-17,15&#10;&#9;&#9;c0,0.4-0.4,0.6-0.7,0.6c-0.3,0-0.5-0.3-0.6-0.6c0-8.7,7.9-16,17.8-16.4c1.4-14.5,15.3-25.7,31.9-25.7c2,0,3.9,0.2,5.9,0.5&#10;&#9;&#9;c3.2-6,10.1-9.8,17.6-9.8c10.6,0,19.2,7.5,19.5,16.7c2.4-0.9,4.9-1.3,7.4-1.3c10.8,0,19.5,7.7,19.5,17.2c0,0.9-0.1,1.8-0.2,2.6&#10;&#9;&#9;c9,1.3,15.6,8.1,15.6,16.2C446.4,347.4,438,354.8,427.8,354.8z"/>
</g>
</svg>