<svg transform="scale(1)" version="1.1" id="Layer_1" xmlns="http://www.w3.org/2000/svg" xmlns:xlink="http://www.w3.org/1999/xlink" x="0px" y="0px" viewBox="0 0 500 500" xml:space="preserve" class="show_show__wrapper__graphic__5Waiy "><title>React</title><style type="text/css">
	.st0{fill:#055b2a;}
	.st1{fill:#111111;}
	.st2{fill:#FFFFFF;}
</style><g id="lamp"><path class="st0" d="M217.4,345.6c-28.6-15.1-58.6-29.8-79.6-54.4c-25.3-29.6-34.3-72.2-23.3-109.5s41.8-68.1,79.1-79.2
		c12.7-3.7,25.9-5.4,39.2-5c25.8,0.8,51.8,9.7,70.4,27.6c24.5,23.5,33.2,59,36.6,92.8s2.6,68.5,12.9,100.8
		c4.3,13.7,10.7,27.1,10.9,41.5c0.1,16.4-7.6,31.9-20.9,41.6c-12.6,9-36,14.9-48.9,3.4c-6.4-5.8-11.1-13.7-17.3-19.8
		c-7.9-7.6-16.5-14.5-25.7-20.5C240.1,357.8,228.8,351.6,217.4,345.6z"></path><path class="st1" d="M305.8,423.8c-3.2,0-6.4-0.2-9.6-0.7c-12.2-1.8-18.8-9.7-25.2-17.4c-2.2-2.7-4.5-5.3-6.9-7.8
		c-18.2-17.9-42.6-29.2-66.2-40.2c-9-4.2-18.3-8.5-27-13.1c-15.4-8.1-35-19.5-50.7-36.6l0,0c-24.5-26.6-37-65.6-33.4-104.1
		c3.3-35.6,19.8-71,46.4-99.6c16.4-17.8,44.6-24,69.6-29.4c3.7-0.8,7.2-1.6,10.6-2.4c32.1-7.5,68.3,0.6,96.7,21.8
		c27.6,20.5,34.3,40.9,42.9,72.5c6.9,25.2,8.2,51.6,9.5,77.2c1.4,28.1,2.9,57.2,11.9,83.9c0.8,2.4,1.7,4.9,2.6,7.4
		c4.5,12.6,9.2,25.6,6.5,39.2c-3.3,16.3-16.4,27.4-26.7,33.8C340.7,418.3,322.3,423.8,305.8,423.8z M126,302.7
		c11.6,12.6,26.6,23.4,48.5,34.9c8.6,4.5,17.8,8.8,26.7,12.9c24.2,11.2,49.2,22.9,68.4,41.8c2.6,2.7,5.1,5.5,7.5,8.4
		c5.9,7.1,11,13.3,20.2,14.6c16.7,2.4,37.9-2.9,55.2-13.7c12.8-7.9,21-18.1,23.1-28.6c2.3-11.4-2-23.3-6.2-34.9
		c-0.9-2.5-1.8-5-2.7-7.5c-9.3-27.8-10.8-57.4-12.3-86c-1.3-25.1-2.6-51.1-9.2-75.4c-8.5-30.9-14.5-49.2-40-68.2
		C278.7,81,245,73.4,215.1,80.3c-3.4,0.8-7,1.6-10.7,2.4c-23.8,5.2-50.7,11.2-65.4,27c-25.4,27.4-41.1,61.1-44.3,94.9
		C91.3,241.1,103,277.7,126,302.7z"></path><path class="st1" d="M270.4,402.4c-1.6,4.9-0.6,10.4,1.6,15.1s5.7,8.7,9.1,12.6l27.2,31.6c4.6,5.3,9.3,10.8,15.5,14.1
		c7.5,4,16.6,4.5,25,2.6s16-6,23.2-10.6c13.6-8.7,25.7-19.4,36.1-31.7c6.6-7.9,12.7-16.9,13.5-27.2c0.8-10-3.4-19.6-8-28.5
		c-7.1-14-15-27.5-23.8-40.5c-2-3-4.1-6-7.2-8c-10.1-6.5-13.3,4.4-17.5,11.2c-4.9,8-10.7,15.4-17.3,22.1
		c-13.3,13.4-29.3,23.8-47.1,30.2c-5,1.8-10,3.3-15.2,4.4C284.1,400.4,270.6,401.8,270.4,402.4z"></path><path class="st1" d="M145.6,165.3c4.3,5.1,4,8.8,1.1,14.8s-7.1,11.6-8.6,18.2s1,14.8,7.4,16.7c-11,9.2-12.5,25.5-3.3,36.5
		c2.2,2.6,4.8,4.8,7.9,6.4c-0.3,15.8,13,30.6,28.7,32.1c1.6,11.7,15,20.1,26.2,16.5c6.1,12.2,21,17.1,33.2,11
		c3.5-1.8,6.6-4.4,8.9-7.6c5.3,3.1,11.3,5.7,17.4,5.2s12.3-5.3,12.5-11.4c0.1-3.9-2.1-7.5-4.2-10.9l-86.9-136.3
		c-3.8-6-3.8-6.7-10.9-11.6C166.4,139,137.2,155.3,145.6,165.3z"></path><path class="st1" d="M217.1,118.6c3,6,6.4,7.2,13.1,7s13.5-1.7,20.1-0.4c6.6,1.3,13.1,6.9,12.3,13.6c12.9-6.3,28.4-1,34.7,11.8
		c1.5,3,2.4,6.4,2.6,9.7c14.5,6.2,22.7,24.4,17.7,39.3c10,6.2,12.2,21.9,4.4,30.7c8.7,10.5,7.2,26.1-3.4,34.8
		c-3.1,2.5-6.7,4.3-10.6,5.1c0.7,6.1,0.6,12.7-2.4,18s-9.8,9.1-15.5,6.7c-3.6-1.5-6-5-8.2-8.3L192.8,152c-3.9-6-4.6-6.1-6.2-14.6
		C184.6,127,211.4,107,217.1,118.6z"></path><path class="st2" d="M158.4,179c-1.2,0-2.4-0.3-3.5-0.8c-2.6-1.3-4.4-4.1-5.6-8.7c-0.1-0.3,0.1-0.5,0.4-0.6c0,0,0,0,0,0
		c0.3-0.1,0.5,0.1,0.6,0.4c0,0,0,0,0,0c1.1,4.3,2.8,6.9,5.1,8.1c2.1,1,4.7,0.9,8-0.4c5.4-1.2,10.3-4.1,13.9-8.2
		c0.2-0.2,0.5-0.2,0.7-0.1c0.2,0.2,0.2,0.5,0,0.7c0,0,0,0,0,0c-3.8,4.3-8.8,7.3-14.4,8.5C161.9,178.6,160.2,178.9,158.4,179z"></path><path class="st2" d="M147.1,214.2c-0.2,0-0.4-0.1-0.5-0.3c-0.1-0.3,0-0.5,0.3-0.6c0,0,0,0,0,0c7.2-2.5,12.9-8.2,15.6-15.3
		c0.1-0.3,0.4-0.4,0.6-0.3c0.3,0.1,0.4,0.4,0.3,0.6c0,0,0,0,0,0c-2.8,7.5-8.7,13.3-16.2,15.9L147.1,214.2z"></path><path class="st2" d="M179.4,202.7c-5.1,0-10-1.7-14-4.8c-3.9,0.9-6.7,0.4-8.4-1.3c-2.1-2.1-2.6-6-1.4-12.1c0-0.3,0.3-0.4,0.6-0.4
		c0,0,0,0,0,0c0.3,0,0.5,0.3,0.4,0.6c0,0,0,0,0,0c-1.1,5.7-0.8,9.3,1.1,11.2c1.5,1.5,4.1,1.8,7.8,1c0.1,0,0.3,0,0.4,0.1
		c5.3,4.1,12.1,5.6,18.6,4c0.3-0.1,0.5,0.1,0.6,0.4c0.1,0.3-0.1,0.5-0.4,0.6c0,0,0,0,0,0C183,202.4,181.2,202.7,179.4,202.7z"></path><path class="st2" d="M186.6,231.2c-4.9,0-9.8-3.3-12.4-8.4c-3.2-6.3-3-13.8,0.7-19.9c0.2-0.2,0.5-0.2,0.7-0.1
		c0.2,0.1,0.2,0.4,0.1,0.6c-3.5,5.7-3.7,12.9-0.6,18.9c2.5,4.8,7.1,7.9,11.6,7.9l0,0c0.3,0,0.5,0.2,0.5,0.5
		C187.1,231,186.9,231.2,186.6,231.2C186.6,231.2,186.6,231.2,186.6,231.2L186.6,231.2z"></path><path class="st2" d="M180.9,289.6c-0.2,0-0.3-0.1-0.4-0.2c-0.2-0.2-0.1-0.5,0.1-0.7l12.9-9.9c0.6-2.7,0.7-5.4,0.2-8.1
		c0-0.3,0.1-0.5,0.4-0.6c5.9-1.5,10.6-5.9,12.4-11.7c1-3.3,1-7.8-1.8-11c-0.2-0.2-0.2-0.5,0-0.7s0.5-0.2,0.7,0c0,0,0,0,0,0
		c3.1,3.4,3,8.4,2,11.9c-1.9,5.9-6.6,10.5-12.6,12.2c0.4,2.7,0.3,5.5-0.4,8.2c0,0.1-0.1,0.2-0.2,0.3l-13,10
		C181.1,289.5,181,289.6,180.9,289.6z"></path><path class="st2" d="M160.6,263.5h-0.6c-2.6-0.2-5.1-1.9-7.4-5.1c-0.2-0.2-0.1-0.5,0.1-0.7c0.2-0.2,0.5-0.1,0.7,0.1
		c2.1,3,4.3,4.5,6.6,4.7c2.6,0.2,5.5-1.3,9-4.7l2.9-4.2c0.2-0.2,0.5-0.3,0.7-0.1c0.1,0.1,0.2,0.2,0.2,0.3c1.8,5.8,7.9,9.1,13.7,7.3
		c1.1-0.3,2.1-0.8,3-1.5c0.2-0.2,0.5-0.1,0.7,0.1c0.2,0.2,0.1,0.5-0.1,0.7c-5.5,3.8-12.9,2.4-16.7-3.1c-0.5-0.7-0.9-1.5-1.3-2.4
		l-2.4,3.5C166.4,261.9,163.4,263.5,160.6,263.5z"></path><path class="st2" d="M205.8,307.1c-0.3,0-0.5-0.2-0.5-0.5c0-0.2,0.1-0.3,0.2-0.4c4.6-3.5,6.8-9.4,5.5-15.1c0-0.2,0.1-0.5,0.3-0.6
		c5.5-2.2,9.8-6.5,12.1-12c4.5-7,1.1-9.5-2.8-12.5c-0.6-0.5-1.3-1-1.9-1.5c-0.2-0.2-0.2-0.5-0.1-0.7c0.2-0.2,0.5-0.2,0.7-0.1
		c0.6,0.5,1.2,1,1.9,1.5c3.8,2.9,8.1,6.1,3.1,13.8c-2.3,5.5-6.7,9.9-12.2,12.3c1.1,5.9-1.2,12-6,15.7
		C206,307,205.9,307.1,205.8,307.1z"></path><path class="st2" d="M242.9,310.6c-2.3,0.2-4.6-0.7-6.3-2.3c-2-2.2-2.4-5.8-1-10.6c0.3-1,0.6-2,1.1-2.9c0.1-0.4,0.3-0.8,0.4-1.1
		c-5.2-5.5-5.3-15-0.2-20.5c0.2-0.2,0.5-0.2,0.7,0c0,0,0,0,0,0c0.2,0.2,0.2,0.5,0,0.7c-4.8,5.6-4.7,14,0.4,19.4
		c0.1,0.1,0.2,0.3,0.1,0.5c-0.2,0.5-0.4,1-0.6,1.4c-0.4,0.9-0.7,1.9-1,2.8c-1.2,4.5-1,7.7,0.8,9.6s4.6,2.4,8.4,1.7
		c0.3,0,0.5,0.1,0.6,0.4s-0.1,0.5-0.4,0.6C245,310.5,244,310.6,242.9,310.6z"></path><path class="st2" d="M156.5,248.2c-0.2,0-0.4-0.1-0.5-0.3c-1.5-4.3,0.7-9,5-10.7c-2.7-2.3-3.9-5.9-3-9.3c0-3,0.7-4.8,2.1-5.6
		s3.2-0.3,5.7,1.2c0.2,0.1,0.3,0.5,0.1,0.7c-0.1,0.2-0.4,0.3-0.7,0.2c0,0,0,0,0,0c-2.1-1.4-3.7-1.8-4.7-1.2s-1.6,2.2-1.6,4.8
		c0,0,0,0.1,0,0.1c-0.9,3.4,0.4,7,3.4,8.9c0.2,0.1,0.3,0.3,0.2,0.5c0,0.2-0.2,0.4-0.4,0.4c-4,1-6.5,5-5.5,9c0.1,0.2,0.1,0.4,0.2,0.6
		c0.1,0.3,0,0.5-0.3,0.6c0,0,0,0,0,0C156.6,248.2,156.5,248.3,156.5,248.2z"></path><path class="st2" d="M218.1,156.4c-0.3,0-0.5-0.2-0.5-0.5c0-0.2,0.1-0.3,0.2-0.4c4.9-3,7.2-9,5.6-14.5c-0.3-1.2-1-2.3-1.9-3.1
		c-0.9-0.7-2.1-0.9-3.1-0.5h-0.1c-0.2,0.1-0.5,0-0.7-0.2s0-0.5,0.2-0.7h0.1c2.1-1.1,3-3.8,2.9-5.9c-0.2-2.4-0.9-4.8-2-7
		c-0.1-0.2,0-0.5,0.3-0.6c0,0,0,0,0,0c0.3-0.1,0.5,0,0.7,0.3c0,0,0,0,0,0c1.1,2.3,1.9,4.8,2.1,7.4c0.1,2-0.6,4-1.9,5.6
		c0.8,0.1,1.6,0.4,2.2,0.9c1.1,0.9,1.9,2.2,2.3,3.6c1.8,6-0.7,12.4-6,15.7C218.3,156.4,218.2,156.4,218.1,156.4z"></path><path class="st2" d="M235.8,173.1h-0.4c-0.3,0-0.5-0.2-0.5-0.5c0,0,0,0,0,0c0-0.3,0.3-0.5,0.5-0.5c2.2,0.1,4.2-1.2,5-3.2
		c0.1-0.2,0.3-0.4,0.5-0.3c5.9,0.8,11.3-3.3,12.1-9.1c0.2-1.8,0-3.6-0.6-5.2c-0.1-0.1-0.1-0.3,0-0.4c0.1-0.1,0.2-0.2,0.3-0.2
		c5.8-1.4,9.5-7,8.6-12.9c0-0.3,0.1-0.5,0.4-0.6c0.3-0.1,0.5,0.1,0.6,0.4c0,0,0,0,0,0c1.2,5.9-3,12.4-8.8,13.9
		c2,6.2-1.4,12.8-7.6,14.7c-1.5,0.5-3.2,0.7-4.8,0.5C240.2,171.7,238.1,173.1,235.8,173.1z"></path><path class="st2" d="M291.8,167.9c-1.4,0-2.8-0.1-4.2-0.5c-2-0.5-3.6-1.9-4.5-3.7c-4,3.3-10,2.8-13.3-1.3c-0.7-0.9-1.3-1.9-1.7-3
		c-2.5,3-5.8,5.2-9.6,6.5c-0.2,0.1-0.5,0-0.7-0.2c-0.1-0.2,0-0.5,0.2-0.7c0,0,0.1,0,0.1,0c3.9-1.3,7.2-3.7,9.7-6.9
		c0.2-0.2,0.5-0.3,0.7-0.1c0.1,0.1,0.1,0.2,0.2,0.3c1,4.6,5.6,7.4,10.1,6.4c1.5-0.3,2.9-1.1,4-2.1c0.1-0.1,0.3-0.2,0.5-0.1
		c0.2,0.1,0.3,0.2,0.4,0.4c0.6,1.9,2.1,3.3,4,3.8c1.9,0.5,3.9,0.6,5.9,0.4l5-6c0.2-0.2,0.5-0.3,0.7-0.1s0.3,0.5,0.1,0.7
		c0,0,0,0.1-0.1,0.1l-5.2,6.2c-0.1,0.1-0.2,0.2-0.4,0.2C293.3,167.9,292.6,167.9,291.8,167.9z"></path><path class="st2" d="M266.3,208.1c-1.1,0-2.2-0.1-3.3-0.4c-0.3-0.1-0.4-0.4-0.4-0.6c0.1-0.3,0.4-0.4,0.6-0.4
		c6.6,1.8,13.4-2.1,15.2-8.7c1-3.5,0.3-7.2-1.7-10.2c-0.1-0.1-0.1-0.3-0.1-0.4c0-0.1,0.2-0.3,0.3-0.3c0.8-0.3,1.5-1,1.7-1.8
		c0.5-1.2,0.4-2.6-0.2-3.8c-1.1-2.1-3.3-3.5-5.4-4.5c-0.2-0.1-0.3-0.2-0.3-0.4c0-0.2,0.1-0.3,0.2-0.4c3.6-2.5,5.8-6.4,6.2-10.7
		c0-0.3,0.3-0.5,0.5-0.5c0.3,0,0.5,0.2,0.5,0.5c0,0,0,0,0,0c-0.3,4.3-2.5,8.3-5.9,11c2.1,0.9,3.9,2.5,5.1,4.5
		c0.7,1.4,0.8,3.1,0.2,4.6c-0.3,0.9-1,1.7-1.8,2.1c3.9,6.3,2,14.5-4.3,18.4C271.5,207.4,268.9,208.1,266.3,208.1L266.3,208.1z"></path><path class="st2" d="M273.9,218c-0.3,0-0.5-0.2-0.5-0.5s0.2-0.5,0.5-0.5c6.8-0.9,11.9-6.6,12.1-13.4c0-0.2,0.1-0.4,0.4-0.5
		c0.2-0.1,0.4,0,0.5,0.2c2.5,3.5,7.4,4.3,11,1.8c1-0.7,1.7-1.6,2.3-2.6c0.1-0.2,0.4-0.3,0.6-0.2c5.2,1.4,10.8,0,14.7-3.8
		c0.2-0.2,0.5-0.2,0.7,0c0,0,0,0,0,0c0.2,0.2,0.2,0.5,0,0.7c-4.1,3.9-9.9,5.5-15.4,4.2c-2.5,4.2-8,5.5-12.2,2.9
		c-0.6-0.4-1.2-0.9-1.8-1.4C286.1,211.6,280.8,217,273.9,218L273.9,218z"></path><path class="st2" d="M290.6,239.2c-4.5,0-8.5-2.6-10.5-6.5c-4.1,4.5-11.2,4.9-15.8,0.7c-0.6-0.6-1.2-1.2-1.6-1.9
		c-0.2-0.2-0.1-0.5,0.1-0.7c0.2-0.2,0.5-0.1,0.7,0.1c0,0,0,0,0,0c3.2,4.6,9.5,5.8,14.1,2.6c0.8-0.6,1.6-1.3,2.2-2.1
		c0.1-0.1,0.3-0.2,0.5-0.2c0.2,0,0.3,0.1,0.4,0.3c2.3,5.5,8.6,8.1,14.1,5.8c2.8-1.2,4.9-3.4,6-6.2c0.1-0.2,0.3-0.3,0.5-0.3l10.9,1.1
		c3.6,0.4,7.3,0.4,9.3-1.9c0.2-0.2,0.5-0.2,0.7-0.1c0.2,0.2,0.2,0.5,0.1,0.7c0,0,0,0,0,0c-2.4,2.6-6.3,2.6-10.2,2.3l-10.5-1
		c-1.8,4.3-6,7.2-10.6,7.4L290.6,239.2z"></path><path class="st2" d="M308.8,269.7L308.8,269.7c-5.8-1.1-9.7-6.5-9-12.4c-3.5,1.2-7.3,0-9.6-2.8c-2.1,1.9-4.9,2.7-7.6,2.4
		c-0.3,0-0.5-0.3-0.4-0.6s0.3-0.5,0.6-0.4c2.7,0.3,5.3-0.6,7.2-2.5c0.1-0.1,0.3-0.2,0.4-0.1c0.2,0,0.3,0.1,0.4,0.2
		c2.1,3.1,6.1,4.2,9.5,2.6c0.2-0.1,0.4-0.1,0.5,0c0.1,0.1,0.2,0.3,0.2,0.5c-1.2,5.5,2.3,10.9,7.7,12c0.1,0,0.1,0,0.2,0
		c0.3,0.1,0.4,0.3,0.4,0.6c0,0,0,0,0,0C309.2,269.5,309,269.7,308.8,269.7z"></path><path class="st2" d="M292.1,280.9c-1,0-2.1-0.2-3.1-0.5c-2.2-0.9-4.3-2-6.2-3.5c-0.2-0.1-0.3-0.4-0.2-0.7c0.1-0.2,0.4-0.3,0.7-0.2
		c0,0,0,0,0.1,0.1c1.8,1.4,3.8,2.6,5.9,3.4c2.1,0.8,4.4,0.6,6.3-0.5c0.2-0.2,0.5-0.1,0.7,0.1c0,0,0,0,0,0c0.2,0.2,0.1,0.5-0.1,0.7
		C294.9,280.5,293.5,280.9,292.1,280.9z"></path><path class="st2" d="M246.9,205.8c-0.3,0-0.5-0.1-0.6-0.4s0.1-0.5,0.4-0.6c4.6-1.8,7-7,5.2-11.6c-0.2-0.5-0.4-1-0.7-1.5
		c-0.1-0.1-0.1-0.3-0.1-0.4c0-0.1,0.1-0.2,0.3-0.3c2.2-1.1,4.1-2.6,5.6-4.6l-0.8-8.1c0-0.3,0.2-0.5,0.4-0.6c0.3,0,0.5,0.2,0.6,0.4
		l0.9,8.4c0,0.1,0,0.2-0.1,0.4c-1.5,2-3.4,3.7-5.6,4.8c2.6,4.9,0.8,10.9-4.1,13.5c-0.4,0.2-0.8,0.4-1.1,0.5
		C247.1,205.7,247,205.8,246.9,205.8z"></path><path class="st2" d="M306.1,409.8c-0.3,0-0.5-0.2-0.6-0.4s0.2-0.5,0.4-0.6c34.6-8.2,64.4-33.7,77.9-66.6c0.1-0.3,0.4-0.4,0.7-0.3
		s0.4,0.4,0.3,0.7c-13.6,33.2-43.7,58.9-78.6,67.2L306.1,409.8z"></path><path class="st2" d="M362.3,402.2c-0.2,0-0.3-0.1-0.4-0.2c-0.1-0.2-0.1-0.5,0.1-0.7c0,0,0,0,0,0c15-9.4,26.8-23,33.9-39.2
		c0.1-0.2,0.4-0.4,0.7-0.2c0.2,0.1,0.4,0.4,0.3,0.6c0,0,0,0,0,0c-7.2,16.3-19.2,30.1-34.3,39.6C362.5,402.2,362.4,402.2,362.3,402.2
		z"></path><path class="st2" d="M340.6,437.3c-0.2,0-0.4-0.1-0.5-0.3c-0.1-0.2,0-0.5,0.2-0.7c0,0,0,0,0,0c25.3-12.1,47.4-29.8,64.6-51.9
		c0.2-0.2,0.5-0.3,0.7-0.1c0.2,0.2,0.3,0.5,0.1,0.7c-17.3,22.2-39.6,40-64.9,52.1C340.8,437.3,340.7,437.3,340.6,437.3z"></path><path class="st2" d="M377.9,433.6c-0.2,0-0.4-0.1-0.4-0.3c-0.1-0.2-0.1-0.5,0.2-0.7c0,0,0,0,0,0c13.8-7.7,25.5-18.7,34.2-31.9
		c0.1-0.2,0.4-0.3,0.7-0.2c0,0,0,0,0,0c0.2,0.2,0.3,0.5,0.1,0.7c0,0,0,0,0,0c-8.8,13.4-20.6,24.4-34.6,32.2
		C378,433.6,377.9,433.7,377.9,433.6z"></path></g><g id="star-belt"><path class="st2" d="M282.9,67.1c5.8,3.7,13-1.9,17.1-7.4s9.9-12,16.5-10c7.6,2.2,7.7,12.9,6.2,20.6
		c-23.3,115.2-67.1,225.4-129.3,325.2c-5.6,9-13.1,18.8-23.6,18.9c-2.1-9.2-2.8-18.6-2-28c-7,11.5-10.9,24.7-11.2,38.3
		c-0.2,7.7,2,16.9,9.3,19.3c8.6,2.8,16.3-6.1,21.1-13.8c61.5-99.8,123.9-201.6,152.5-315.3c5.5-21.7,9.7-44.3,6.4-66.4
		c-1.2-8.4-4.1-17.4-11.3-22c-6.9-4.3-16.1-3.2-23.2,0.6C294.8,35.9,289.7,51,282.9,67.1z"></path><path class="st1" d="M169.2,445.2c-1.2,0-2.4-0.2-3.6-0.6c-9.4-3.1-9.9-16.1-9.8-20c0.3-13.7,4.2-27,11.4-38.6
		c0.2-0.3,0.7-0.5,1-0.2c0.2,0.1,0.4,0.4,0.3,0.7c-0.8,9.1-0.2,18.3,1.8,27.2c9.8-0.4,16.8-9.5,22.4-18.5
		c62.2-99.7,106-209.8,129.2-325c1.7-8.3,1.1-17.8-5.6-19.8c-5.9-1.7-11.2,4-15.6,9.8s-12,11.5-18.1,7.5c-0.3-0.2-0.4-0.6-0.3-0.9
		c0.6-1.4,1.2-2.8,1.8-4.3c6-14.4,11.7-28,26.9-36.2c6.5-3.5,16.2-5.5,24-0.6c6.2,3.9,10,11.2,11.6,22.5c3.4,22.9-1.4,46.6-6.4,66.7
		c-28.9,114.8-91.8,216.8-152.6,315.5C183.2,437.5,176.7,445.2,169.2,445.2z M166.8,389.5c-6,10.8-9.2,22.8-9.5,35.1
		c-0.1,3.6,0.3,15.8,8.8,18.6c8.2,2.7,15.5-5.9,20.2-13.5c60.8-98.6,123.5-200.5,152.4-315.1c5-20,9.7-43.5,6.4-66.1
		c-1.6-10.8-5.2-17.8-11-21.4c-7.2-4.6-16.4-2.7-22.5,0.6c-14.8,7.9-20.3,21.3-26.2,35.5l-1.5,3.7c5.5,2.9,12.4-3.3,15.6-7.5
		c4.7-6.2,10.5-12.3,17.3-10.3c7.7,2.2,8.5,12.6,6.7,21.5C300.2,185.9,256.3,296.1,194,395.9c-10.6,17-18.5,19.2-24.3,19.2l0,0
		c-0.3,0-0.7-0.2-0.7-0.6C167.1,406.4,166.4,397.9,166.8,389.5z"></path><path class="st2" d="M64,164.6c3.1,3.9-0.2,10-4.8,12.1s-9.8,1.5-14.7,2s-10.5,2.5-12.2,7.2c-2.7,7.8,6.7,13.9,14.3,16.8
		c59.2,22.2,118.8,44,180.7,56.6c61.9,12.6,126.7,15.5,188,0.1c4.1-1,9.1-3.3,8.9-7.6c-0.2-3.9-4.6-5.9-8.3-7l-39-11.7
		c17.1-1,34.2,1.8,50.1,8.2c5.1,2.1,10.7,5.1,12.1,10.4c2.4,8.9-8,15.7-16.8,18.6c-16.5,5.3-33.9,7.8-51.1,9.5
		c-102.3,10.3-205.7-4.3-301.1-42.7c-17.1-6.9-34.2-14.7-47.9-26.9c-10.4-9.3-23.7-32.4-6.6-42.4c5.6-3.3,13.3-3.1,19.6-3.8
		C42.1,163.5,58.9,158,64,164.6z"></path><path class="st1" d="M307.3,283.9c-81.4,0-162-15.6-237.4-46c-16.8-6.8-34.2-14.7-48.1-27.1c-8-7.1-16-20.4-15-30.8
		c0.6-5.5,3.4-9.8,8.5-12.7c4.6-2.7,10.6-3.1,15.8-3.5c1.4-0.1,2.7-0.2,4-0.3c1.5-0.2,3.5-0.5,5.8-1c8.2-1.6,19.4-3.8,23.7,1.7l0,0
		c1.3,1.7,1.7,3.9,1.1,6c-0.9,3.2-3.1,5.9-6.1,7.3c-3.4,1.5-7.2,1.7-10.9,1.8c-1.3,0.1-2.7,0.1-4.1,0.2c-2.2,0.2-9.6,1.3-11.5,6.7
		c-2.4,7,6,12.9,14,15.9c63.3,23.7,120.6,44.4,180.6,56.5c69.2,14,132.3,14,187.6,0.1c2.6-0.6,8.5-2.6,8.4-6.8
		c-0.1-2.7-2.7-4.8-7.8-6.3l-39-11.7c-0.3-0.1-0.6-0.4-0.5-0.8c0-0.4,0.3-0.6,0.7-0.7c17.2-1,34.4,1.9,50.4,8.2
		c4.6,1.9,11,5,12.5,10.9c2.4,8.9-7,16.2-17.2,19.5c-17.6,5.6-35.8,8-51.3,9.6C350.1,282.8,328.7,283.9,307.3,283.9z M54.7,162.1
		c-4.6,0.2-9.1,0.8-13.5,1.8c-2.3,0.4-4.3,0.9-5.9,1c-1.3,0.1-2.7,0.2-4.1,0.4c-5.4,0.4-10.9,0.8-15.2,3.3
		c-4.6,2.7-7.3,6.6-7.8,11.6c-0.7,7.4,4.1,20.3,14.5,29.6c13.7,12.2,31,20.1,47.7,26.8c95.3,38.3,198.5,53,300.8,42.6
		c15.4-1.6,33.5-3.9,51-9.5c15.2-4.9,17.4-13.4,16.3-17.7c-1.4-5.3-7.3-8.2-11.7-9.9c-14.4-5.7-29.8-8.5-45.3-8.3l34.6,10.4
		c5.8,1.7,8.7,4.2,8.9,7.7c0.2,5.1-5.9,7.4-9.5,8.3c-55.5,14-118.9,14-188.3-0.1c-60.1-12.2-117.4-32.8-180.8-56.6
		c-8.6-3.2-17.6-9.8-14.8-17.8c1.5-4.2,6.3-7.1,12.8-7.7c1.4-0.1,2.8-0.2,4.2-0.2c3.7-0.1,7.2-0.2,10.3-1.7c2.6-1.2,4.5-3.5,5.3-6.3
		c0.5-1.6,0.2-3.3-0.8-4.7l0,0C61.7,162.8,58.5,162.1,54.7,162.1z"></path><path class="st0" d="M27.9,166.4c14.9-1.3,28.1,9.7,29.5,24.6c0.1,1.5,0.1,2.9,0,4.4c5-12.7,14.4-23.2,26.4-29.6
		c-8.3-1.4-15.5-6.4-19.8-13.6c-2.9-4.9-2.1-15-6.5-18.1C47.5,145.6,41.9,158.4,27.9,166.4z"></path><path class="st0" d="M382.4,269.5c5.6,0.6,9.4,6.6,9.4,12.2s-2.5,10.9-5.1,15.9c7.3-8,16-14.5,25.6-19.4
		c-3.9,1.9-7.9-25.9-9.7-26.4c-2.5-0.7-6.1,6.9-7.9,8.9C391.3,264.5,387.1,267.5,382.4,269.5z"></path></g><g id="chat"><path class="st0" d="M391.3,209.3l12.5-24.2l62-1.5c5.5-0.1,11.2-0.4,15.8-5c5-5.1,7.4-14.5,7.6-23.6s-1.5-18-3.3-26.7
		c-1.4-6.8-3.1-14.1-6.9-18.3c-3.3-3.7-7.7-4.4-11.8-4.9c-20-2.6-40-4.8-60-3c-5.5,0.5-11.2,1.4-16.2,5.2c-5.8,4.5-10,12.9-12.6,22
		s-3.6,19-4.4,28.9c-0.5,6.9-0.8,14.3,1.4,20.3c2.8,7.6,7.5,5.1,11.6,8.7S390.7,203.1,391.3,209.3z"></path><path class="st2" d="M472.3,127.7L472.3,127.7l-77.1-3.8c-0.2,0-0.4-0.2-0.4-0.4c0,0,0,0,0,0c0-0.2,0.1-0.4,0.4-0.4
		c0,0,0.1,0,0.1,0l77.1,3.8c0.2,0,0.4,0.2,0.4,0.4S472.6,127.7,472.3,127.7L472.3,127.7z"></path><path class="st2" d="M476.9,144.2L476.9,144.2l-85.6-0.1c-0.2,0-0.4-0.2-0.4-0.4c0-0.2,0.2-0.4,0.4-0.4l0,0l85.6,0.1
		c0.2,0,0.4,0.2,0.4,0.4l0,0C477.3,144,477.1,144.2,476.9,144.2z"></path><path class="st2" d="M390,162.3c-0.2,0-0.4-0.2-0.4-0.4c0-0.2,0.2-0.4,0.4-0.4l84.3-1.7c0.2,0,0.4,0.2,0.5,0.4
		c0,0.2-0.2,0.4-0.4,0.4L390,162.3z"></path><path class="st0" d="M38.6,343.2c-2.8,0.2-5.7,0.8-8.4,1.7c-8.8,3.4-13.5,13.5-13.5,22.9s3.9,18.3,7.7,26.9c2,4.4,4.3,9.1,8.5,11.5
		c5.8,3.2,12.9,1,19.4-0.5c22.4-5.1,46.3,0.2,68.4-5.9c4.5-1.2,9.1-3,12.1-6.5c4.1-4.7,4.8-11.4,5.3-17.6s1-12.7-1-18.6
		s-7.3-11.2-13.5-11.3l1.9-12.5c-0.1,0.8-6.1,3.2-7,3.8c-2.5,1.5-4.9,3.1-7.2,4.8c-2,1.5-3.2,2.7-5.6,2.8c-2.8,0.2-6.1-0.9-8.9-1.2
		c-12.3-1.5-24.6-2-37-1.7C52.8,341.9,45.7,342.4,38.6,343.2z"></path><path class="st2" d="M30.2,359.6c-0.2,0-0.4-0.2-0.3-0.4c0-0.2,0.1-0.3,0.3-0.3c30.6-5.7,61.8-7.6,92.9-5.4c0.2,0,0.3,0.2,0.3,0.3
		c0,0,0,0,0,0c0,0.2-0.2,0.3-0.4,0.3C92,352,60.8,353.8,30.2,359.6L30.2,359.6z"></path><path class="st2" d="M30.9,374c-0.2,0-0.3-0.1-0.4-0.3c0-0.2,0.1-0.4,0.3-0.4c29.8-2.5,60.1-4.2,90-5.3l0,0c0.2,0,0.3,0.2,0.3,0.3
		c0,0.2-0.1,0.4-0.3,0.4C91,369.8,60.8,371.6,30.9,374L30.9,374z"></path><path class="st2" d="M117.7,387.8L117.7,387.8l-84.8-0.2c-0.2,0-0.4-0.1-0.4-0.3c0-0.2,0.1-0.4,0.3-0.4c0,0,0.1,0,0.1,0h0.2
		l84.6,0.2c0.2,0,0.4,0.2,0.4,0.4C118,387.7,117.8,387.8,117.7,387.8z"></path><path class="st0" d="M39.3,105.1c-2-0.1-3.9-0.5-5.8-1.2c-6.1-2.3-9.4-9.3-9.3-15.9s2.7-12.7,5.4-18.7c1.4-3.1,3-6.3,5.9-8
		c4-2.2,9-0.7,13.4,0.3c15.5,3.5,32.1-0.1,47.4,4.1c3.1,0.8,6.3,2.1,8.4,4.5c2.9,3.2,3.3,7.9,3.7,12.2s0.7,8.8-0.7,12.9
		s-5,7.8-9.4,7.8l1.3,8.7c-0.1-0.5-4.2-2.2-4.9-2.6c-1.7-1-3.4-2.1-5-3.3c-1.4-1-2.2-1.9-3.9-2c-1.9-0.1-4.2,0.6-6.2,0.8
		c-8.5,1-17.1,1.4-25.7,1.2C49.1,106,44.2,105.7,39.3,105.1z"></path><path class="st2" d="M80.2,98.6c-15.7,0-31.3-1.5-46.8-4.4c-0.1,0-0.2-0.1-0.2-0.3c0,0,0,0,0,0c0-0.1,0.1-0.2,0.3-0.2c0,0,0,0,0,0
		c21.2,4,42.8,5.2,64.3,3.7c0.1,0,0.3,0.1,0.3,0.2S98.1,98,97.9,98c0,0-0.1,0-0.1,0C92,98.4,86.1,98.6,80.2,98.6z"></path><path class="st2" d="M96.4,87.9L96.4,87.9c-20.8-0.7-41.8-2-62.4-3.7c-0.1,0-0.3-0.1-0.3-0.2c0-0.1,0.1-0.3,0.2-0.3
		c0,0,0.1,0,0.1,0c20.7,1.7,41.7,2.9,62.4,3.7c0.1,0,0.2,0.1,0.2,0.3c0,0,0,0,0,0C96.7,87.8,96.6,87.9,96.4,87.9z"></path><path class="st2" d="M35.4,74.8c-0.1,0-0.3-0.1-0.3-0.2c0-0.1,0.1-0.3,0.2-0.3c0,0,0.1,0,0.1,0l58.8-0.1l0,0c0.1,0,0.2,0.1,0.2,0.2
		s-0.1,0.2-0.2,0.2h-0.1C94.1,74.7,35.4,74.8,35.4,74.8z"></path></g></svg>