<svg transform="scale(1)" version="1.1" id="Layer_1" xmlns="http://www.w3.org/2000/svg" xmlns:xlink="http://www.w3.org/1999/xlink" x="0px" y="0px" viewBox="0 0 500 500" xml:space="preserve" class="show_show__wrapper__graphic__5Waiy "><title>React</title><style type="text/css">
	.st0{fill:#FFFFFF;}
	.st1{fill:#111111;}
	.st2{fill:#047a34;}
</style><g id="interface"><g id="presentation"><path class="st0" d="M7.8,152c0.6,36,1.1,210.6,1.7,246.6c0.1,3.8,0.7,8.4,5.4,10.1c2.2,0.6,4.5,0.8,6.9,0.6l34.8-1.1
			c37.2-1.2,323.6,0.4,360.7-0.9c7.8-0.2,16.9-1.1,21-6c2.3-2.8,2.3-6.2,2.2-9.5c-0.6-32.9,0.7-209.5,0.1-242.5
			c-0.1-3.6-0.2-7.5-3.2-10.3c-4.4-4.3-12.9-4.4-20.3-4.2c-31,0.8-313,2.6-344.1,1.9c-15.4-0.3-30.8-0.4-46.2-1.1
			C13,135.2,7.6,142.7,7.8,152z"></path><path class="st1" d="M19.6,410.1c-1.7,0.1-3.4-0.2-5-0.7c-5.2-1.8-5.8-7-5.9-10.8c-0.3-18-0.6-71.5-0.8-123.2S7.3,170,7,152
			c-0.1-5.1,1.5-9.4,4.5-12.4c3.4-3.4,8.5-4.9,15.2-4.6c11.2,0.4,22.6,0.6,33.6,0.8L73,136c32.3,0.6,316.7-1.2,344.1-1.9
			c7.6-0.2,16.2-0.1,20.8,4.4c3.3,3.2,3.4,7.6,3.4,10.9c0.3,16.5,0.1,69.8-0.1,121.3s-0.3,104.7,0,121.1c0,3,0.1,6.9-2.4,10
			c-4.1,5-12.8,6-21.5,6.3c-18.5,0.6-100.8,0.5-180.2,0.4s-161.8-0.2-180.4,0.4l-34.8,1.1C21,410.1,20.3,410.1,19.6,410.1z
			 M25.3,136.4c-5.6,0-9.8,1.4-12.7,4.3c-2.7,2.7-4.1,6.6-4.1,11.2c0.3,18.1,0.6,71.7,0.8,123.5s0.6,105.2,0.8,123.2
			c0.1,3.8,0.7,7.9,4.9,9.4c2.1,0.6,4.4,0.8,6.6,0.6l34.8-1.1c18.6-0.6,100.9-0.5,180.5-0.4s161.7,0.2,180.2-0.4
			c8-0.3,16.6-1.2,20.4-5.8c2-2.5,2.1-5.4,2.1-9c-0.3-16.4-0.1-69.7,0-121.2s0.3-104.8,0.1-121.3c-0.1-3.9-0.3-7.3-3-9.8
			c-4.2-4-12.4-4.1-19.7-3.9c-30.1,0.8-311,2.6-344.2,1.9l-12.6-0.2c-11-0.2-22.4-0.4-33.6-0.8L25.3,136.4z"></path></g><path class="st2" d="M440.7,169.4c0-5.6-0.1-11.1-0.1-16.5c-0.1-4.5-0.2-9.3-3.2-12.9c-4.4-5.3-12.9-5.4-20.2-5.2
		c-31,1-313.1,3.2-344.1,2.4c-15.4-0.4-30.8-0.6-46.2-1.3c-13.7-0.7-19.1,8.7-18.9,20.2c0.1,4.4,0.1,8.8,0.2,13.2H440.7z"></path><path class="st1" d="M28.1,151.4c-0.9,2.9-0.1,6.1,2.2,8.2c2.3,2,5.6,2.5,8.4,1.3c2.8-1.3,4.4-4.2,4.3-7.3
		C42.3,145.3,30.8,143.1,28.1,151.4z"></path><path class="st1" d="M47.8,150.5c-0.9,4,1.3,8,5.1,9.4c3.9,1.1,8.1-1.1,9.5-4.9C65.4,145.6,50.5,140.6,47.8,150.5z"></path><path class="st1" d="M67.7,148.5c-0.6,1.8-0.7,3.8-0.2,5.7c0.8,3.9,4.6,6.3,8.5,5.5s6.3-4.6,5.5-8.5l0,0
		C80.6,144.5,69.9,140.4,67.7,148.5z"></path></g><g id="fish"><path class="st0" d="M99.6,300.3c-0.4,0.1-0.8,0-1.1-0.2c-0.2-0.3-0.3-0.8-0.2-1.2c0.3-1.8,0.6-3.9,2-5c0.8-0.6,1.8-1,2.9-1
		c1.1,0,3.2,0.1,4.1,1c1,1-0.1,2-0.9,2.8C104.5,298.6,102.1,299.9,99.6,300.3z"></path><path class="st1" d="M99.2,301.1c-0.5,0-0.9-0.1-1.3-0.5c-0.4-0.5-0.6-1.2-0.4-1.8c0.3-2.1,0.7-4.2,2.3-5.5c1-0.7,2.1-1.2,3.3-1.2
		c0.6,0,3.4,0,4.6,1.2c1.4,1.5,0,3-0.7,3.7l-0.2,0.1c-1.9,2-4.4,3.4-7.2,3.9l0,0C99.5,301.1,99.3,301.1,99.2,301.1z M99.6,300.3
		L99.6,300.3z M99,299.6c0.2,0,0.3,0,0.5,0l0,0c2.4-0.4,4.7-1.6,6.4-3.4l0.2-0.2c1-1,1-1.2,0.7-1.6c-0.5-0.6-2.2-0.8-3.5-0.8
		c-0.9,0-1.7,0.3-2.4,0.8c-1.2,1-1.5,2.7-1.8,4.6C99,299.2,99,299.4,99,299.6L99,299.6z"></path><path class="st0" d="M141.9,308.6c-1.9,2.3-4.5,3.9-7.5,4.5l1.9-9.6c0.1-0.8,0.4-1.6,0.9-2.2c0.8-1,2.3-1.1,3.6-1
		c2.1,0.1,4.1-0.4,3.8,2.4C144.2,304.7,143.3,306.8,141.9,308.6z"></path><path class="st1" d="M134.4,313.8c-0.2,0-0.4-0.1-0.5-0.2c-0.2-0.2-0.2-0.4-0.2-0.7l1.9-9.6c0.1-0.9,0.4-1.8,1-2.6
		c1.1-1.3,2.9-1.3,4.2-1.2c0.3,0,0.7,0,1,0c1.2,0,2.3,0,3,0.8c0.5,0.7,0.7,1.5,0.5,2.4c-0.3,2.4-1.3,4.6-2.7,6.4l0,0
		c-2,2.5-4.8,4.1-7.9,4.7L134.4,313.8z M140.1,300.9c-0.9-0.1-1.7,0.2-2.4,0.8c-0.4,0.6-0.6,1.2-0.7,1.9l-1.7,8.5
		c2.3-0.7,4.4-2,5.9-3.9l0,0c1.3-1.6,2.1-3.6,2.4-5.7c0.1-0.4,0-0.8-0.1-1.2c-0.2-0.3-1.1-0.3-1.9-0.3c-0.3,0-0.7,0-1,0L140.1,300.9
		z M141.9,308.6L141.9,308.6z"></path><path class="st0" d="M135.8,260.9c-0.5-1.1-1.2-2.1-2.1-3c-1.4-1.1-3.1-1.7-4.9-1.8c-6.7-0.6-13.3,2-19.1,5.4s-11.2,7.5-17.2,10.5
		c-3.3,1.6-7,3.1-8.9,6.2c-0.3,0.4-0.4,0.9-0.3,1.4c0.2,0.4,0.6,0.6,1,0.7c4,1.1,8.1,1.3,12.2,0.6c4.1-0.6,8-1.8,12-2.7
		c6.4-1.5,12.9-2.4,19.5-2.8c3.3-0.2,6.7-0.2,10-0.1s3.5-1.7,2.4-4.4C139,267.4,137.5,264.1,135.8,260.9z"></path><path class="st1" d="M91.3,281.9c-2.4,0-4.8-0.3-7.2-1c-0.6-0.1-1.1-0.5-1.5-1.1c-0.3-0.7-0.2-1.5,0.3-2.1c1.8-2.9,4.9-4.4,7.9-5.9
		l1.3-0.6c3.5-1.8,7-3.9,10.3-6.1c2.2-1.5,4.5-3,6.9-4.3c7.3-4.2,13.7-6,19.5-5.5c1.9,0.1,3.8,0.7,5.4,2c1,0.9,1.7,2,2.3,3.2l0,0
		c1.7,3.3,3.2,6.6,4.6,10c0.5,1.2,1,3,0.2,4.2c-0.6,0.8-1.6,1.2-3.3,1.2c-3.4-0.1-6.7-0.1-9.9,0.1c-6.5,0.4-12.9,1.3-19.3,2.8
		c-1.2,0.3-2.3,0.6-3.4,0.9c-2.8,0.7-5.7,1.4-8.6,1.9C94.9,281.8,93.1,281.9,91.3,281.9z M126.8,256.7c-5,0-10.5,1.8-16.7,5.4
		c-2.3,1.3-4.6,2.8-6.8,4.3c-3.3,2.3-6.8,4.4-10.4,6.2l-1.3,0.6c-2.8,1.4-5.8,2.7-7.3,5.3c-0.2,0.4-0.3,0.6-0.2,0.6s0.2,0.2,0.6,0.3
		c3.9,1.1,7.9,1.3,11.9,0.5c2.9-0.4,5.7-1.1,8.5-1.9c1.2-0.3,2.3-0.6,3.5-0.9c6.4-1.5,13-2.5,19.6-2.8c3.2-0.2,6.6-0.2,10.1-0.1
		c0.7,0,1.7,0,2-0.5c0.2-0.3,0.3-1.1-0.4-2.8c-1.3-3.4-2.8-6.6-4.5-9.8l0,0c-0.5-1-1.1-2-1.9-2.8c-1.3-1-2.9-1.5-4.5-1.6
		C128.1,256.8,127.5,256.7,126.8,256.7L126.8,256.7z"></path><path class="st2" d="M120.4,271.5c13.9-1.3,28.6,2,39.7,10.5c3,2.3,6.1,5.7,3.4,9.9c-0.5,0.8-1,1.4-1.7,2
		c-8.8,7.3-20.8,9.5-32.1,8.5c-10.8-1-21.1-4.7-31.1-8.6c-5.5-2.1-11.5-4.4-17.2-3c-5.3,1.3-9.3,5.4-12.8,9.7
		c-0.7,0.9-1.9,1-2.8,0.4c-0.2-0.2-0.4-0.4-0.6-0.7c-4.2-7.5-6.1-16.1-5.4-24.7c0-1.1,1-2,2.1-1.9c0.6,0,1.2,0.3,1.5,0.8
		c0.4,0.4,0.7,0.8,0.8,1c1.3,1.7,2.8,3.2,4.4,4.7c2.6,2.4,7.2,6.5,11,6.5c1.8,0,3.4-1.4,4.8-2.3c2.1-1.3,4.2-2.5,6.4-3.6
		c4.3-2.2,8.9-4.1,13.5-5.6C109.7,273.3,115,272.1,120.4,271.5z"></path><path class="st1" d="M146.4,297.8c-6.2,0-11.3-5-11.3-11.2c0-4.3,2.5-8.3,6.4-10.2c0.2-0.1,0.5,0,0.7,0.2c0,0,0,0,0,0
		c0.1,0.2,0,0.5-0.2,0.7c0,0,0,0,0,0c-5.1,2.5-7.2,8.6-4.8,13.7c2.1,4.4,7.1,6.7,11.8,5.5c0.3-0.1,0.6,0.1,0.6,0.4s-0.1,0.6-0.4,0.6
		C148.3,297.7,147.4,297.8,146.4,297.8z"></path><path class="st0" d="M143.4,283.4c-0.3,0.8-0.3,1.6,0,2.4c0.4,0.7,1.2,1.2,2,1.1c0.6-0.1,1.2-0.6,1.4-1.1c0.5-1,1.2-3.3-0.2-3.9
		C145.3,281.5,144,282.2,143.4,283.4z"></path><path class="st1" d="M145.1,287.7c-1,0-2-0.6-2.4-1.5c-0.4-1-0.4-2,0-3c0.7-1.6,2.6-2.4,4.2-1.9c0.5,0.2,1,0.7,1.1,1.2
		c0.3,1.3,0.1,2.6-0.6,3.7c-0.4,0.8-1.1,1.3-2,1.5C145.4,287.7,145.3,287.7,145.1,287.7z M145.9,282.5c-0.8,0-1.5,0.5-1.8,1.2l0,0
		c-0.2,0.6-0.2,1.2,0,1.8c0.2,0.5,0.7,0.7,1.2,0.7c0.4-0.1,0.7-0.4,0.9-0.8c0.4-0.7,0.6-1.6,0.5-2.5c0-0.2-0.2-0.3-0.3-0.3
		C146.3,282.5,146.1,282.5,145.9,282.5L145.9,282.5z M143.4,283.4L143.4,283.4z"></path><path class="st0" d="M116.7,313.9c-1,0-2.3-0.2-2.4-1.2c0-0.6,0.3-1.1,0.7-1.5l5.1-6c1.5-2,3.4-3.6,5.4-5c4.2-2.4,9.3-1.8,14.1-1.1
		c0.5,0,0.9,0.2,1.2,0.6c0.4,0.7-2.2,3.1-2.8,3.7c-1.3,1.5-2.7,2.9-4.2,4.1c-3.1,2.4-6.6,4.3-10.4,5.3
		C121.2,313.5,119,313.8,116.7,313.9z"></path><path class="st1" d="M116.5,314.7c-1.7,0-2.9-0.7-3-1.9c0-0.8,0.3-1.5,0.9-2.1l5.2-6c1.6-2,3.5-3.8,5.6-5.2
		c4.6-2.6,10.3-1.8,14.6-1.2c0.7,0,1.4,0.4,1.8,1c0.5,1-0.6,2.2-2.3,4c-0.2,0.3-0.5,0.5-0.6,0.6c-1.3,1.6-2.8,3-4.4,4.2
		c-3.2,2.5-6.8,4.4-10.7,5.5c-2.2,0.6-4.5,1-6.8,1.1L116.5,314.7L116.5,314.7z M116.7,313.9L116.7,313.9z M133,299.2
		c-2.5-0.1-4.9,0.5-7.1,1.6c-2,1.3-3.8,3-5.2,4.9l-5.1,6c-0.2,0.2-0.6,0.6-0.5,0.9s0.9,0.6,1.7,0.6l0,0c2.2-0.1,4.4-0.4,6.5-1
		c3.7-1.1,7.1-2.8,10.1-5.2c1.5-1.2,2.9-2.5,4.1-4c0.1-0.2,0.4-0.4,0.7-0.7c0.7-0.7,1.4-1.5,1.9-2.3c-0.2-0.1-0.4-0.1-0.6-0.1
		C137.4,299.5,135.2,299.3,133,299.2z"></path><path class="st0" d="M88.2,295.1c-0.3,0.3-0.7,0.7-0.6,1.1s0.7,0.6,1.2,0.7c2.9,0.4,5.9,0.3,8.7-0.3c1.3-0.2,2.5-0.7,3.6-1.4
		c1-0.8,2.2-2.4,1-3.5s-3.4-0.7-4.7-0.6C94.1,291.5,90.8,292.9,88.2,295.1z"></path><path class="st1" d="M92.4,298c-1.2,0-2.5-0.1-3.7-0.2c-1-0.1-1.7-0.6-1.8-1.3c-0.1-0.7,0.2-1.5,0.8-1.9l0,0
		c2.7-2.4,6.1-3.8,9.8-4.1h0.2c1.5-0.1,3.8-0.3,5,0.9c0.5,0.5,0.8,1.1,0.7,1.8c-0.2,1.2-0.8,2.2-1.8,2.9c-1.2,0.8-2.5,1.3-3.9,1.5
		C96,297.8,94.2,298,92.4,298z M88.3,296.1c0.2,0.1,0.4,0.1,0.6,0.1c2.8,0.4,5.7,0.3,8.5-0.2c1.2-0.2,2.3-0.6,3.3-1.3
		c0.6-0.4,1-1.1,1.2-1.8c0-0.2-0.1-0.5-0.2-0.6c-0.7-0.7-2.8-0.5-3.8-0.4h-0.2c-3.3,0.3-6.4,1.6-8.9,3.7l0,0
		C88.4,295.9,88.4,296,88.3,296.1L88.3,296.1z"></path><path class="st0" d="M94.7,282.2c-0.2,0.1-0.2,0.4-0.1,0.6c0.1,0.1,0.3,0.2,0.4,0.2c5.2-1.9,10.5-3.6,15.9-4.9
		c6.9-1.7,14-2.3,21-1.5c1,0.1,3.5-0.1,2.7-1.8c-0.5-1-2.3-0.8-3.2-0.9c-3.4-0.1-6.9,0-10.3,0.3c-6.8,0.7-13.5,2.4-19.9,5
		C99,280,96.8,281,94.7,282.2z"></path><path class="st0" d="M105.3,282.2c-0.5,0.1-0.8,0.7-0.6,1.2c0.1,0.4,0.6,0.7,1,0.6c1.9-0.3,3.7-0.7,5.6-1
		c6.1-1.2,12.4-1.6,18.6-1.1c0.5,0.1,1.1,0,1.6-0.1c0.5-0.2,0.9-0.7,0.8-1.3c-0.2-0.7-1-0.9-1.7-0.9c-5.2-0.6-10.5-0.4-15.8,0.5
		C111.6,280.5,108.4,281.2,105.3,282.2z"></path></g><g id="fish-2"><path class="st2" d="M315,265.4c-7.5,6.2-12.8,14.5-17.5,23c-1.4,2.5-2.8,5.5-2,8.3c0.6,2.2,2.4,3.8,4.1,5.2
		c6.6,5.5,13.5,10.8,21.4,14s17.1,4,25,0.7s14-11.5,13.4-20c3,0,5.2,2.5,7.3,4.6s5.5,3.7,7.9,2c1-0.9,1.7-2.1,2-3.4
		c1.4-4.2,2.2-8.7,2.2-13.1c0-2.8-0.6-6.1-3.3-7c-1.7-0.5-3.6,0.3-5.2,1.2c-4.6,2.7-8.7,6.2-12.1,10.4c-2-4.1-2.2-8.9-2.4-13.5
		s-0.3-9.3-2.2-13.5C347,249.6,324,257.9,315,265.4z"></path><path class="st0" d="M333.7,290.4c1.7-0.8,3.9-1.3,5.3-0.1c0.7,0.7,1.1,1.6,1.3,2.6c0.7,3.3,0.3,6.7-1.1,9.8
		c-0.9,2.1-2.6,4.1-4.9,4.2c-1.4-0.1-2.7-0.6-3.7-1.5c-2.3-1.7-6.1-5.1-5.5-8.3C325.6,293.7,330.9,291.6,333.7,290.4z"></path><path class="st1" d="M334.2,307.7c-1.5-0.1-2.9-0.7-4.1-1.6c-2.5-1.8-6.5-5.4-5.8-9s5.5-5.7,8.5-7l0.6-0.3c2.6-1.2,4.7-1.2,6.1,0
		c0.8,0.8,1.3,1.9,1.5,3c0.7,3.5,0.3,7.1-1.1,10.3c-1.3,2.8-3.4,4.6-5.6,4.6L334.2,307.7z M336.9,290.4c-1,0.1-2,0.3-2.9,0.7l0,0
		l-0.6,0.3c-2.7,1.2-7.2,3.1-7.6,5.9c-0.5,3,3.5,6.3,5.3,7.6c0.9,0.8,2,1.3,3.2,1.3c2.4,0,3.9-2.9,4.2-3.7c1.3-2.9,1.7-6.2,1-9.4
		c-0.1-0.8-0.4-1.6-1-2.2C338,290.5,337.4,290.3,336.9,290.4L336.9,290.4z M333.7,290.4L333.7,290.4z"></path><path class="st1" d="M311.5,306.1c-0.2,0-0.3-0.1-0.4-0.2c-0.2-0.2-0.1-0.5,0.1-0.7c4.1-2.9,6.6-8.4,6.4-14.4c0-2.1-0.5-4.1-1.5-6
		c-1.4-2.5-3.9-4.1-6.7-4.4c-0.3,0-0.5-0.3-0.4-0.5c0-0.3,0.3-0.5,0.5-0.5c3.1,0.4,5.9,2.2,7.5,5c1.1,2,1.6,4.2,1.6,6.5
		c0.2,6.4-2.4,12.2-6.9,15.2C311.7,306.1,311.6,306.1,311.5,306.1z"></path><path class="st0" d="M306.1,289.6c-0.3,0.8-0.3,1.6,0,2.4c0.4,0.7,1.2,1.2,2,1.1c0.6-0.1,1.2-0.6,1.5-1.1c0.5-1,1.2-3.3-0.2-3.9
		C308.1,287.7,306.7,288.4,306.1,289.6z"></path><path class="st1" d="M307.9,293.9c-1,0-2-0.6-2.4-1.5c-0.4-1-0.4-2,0-3l0,0c0.7-1.6,2.5-2.4,4.2-1.9c0.5,0.2,1,0.7,1.1,1.2
		c0.3,1.3,0.1,2.6-0.6,3.7c-0.4,0.8-1.1,1.3-2,1.5C308.1,293.9,308,293.9,307.9,293.9z M306.8,289.9L306.8,289.9
		c-0.2,0.6-0.2,1.2,0,1.8c0.2,0.5,0.7,0.7,1.2,0.7c0.4-0.1,0.7-0.4,0.9-0.8c0.4-0.7,0.6-1.6,0.5-2.5c0-0.1-0.1-0.3-0.3-0.3
		C308.2,288.5,307.2,289,306.8,289.9L306.8,289.9z"></path><path class="st1" d="M352,286.7c-0.1,0-0.2-0.1-0.3-0.1c-11.2-10.5-27-14.8-42-11.5c-0.3,0.1-0.5-0.1-0.6-0.4
		c-0.1-0.3,0.1-0.5,0.4-0.6c0,0,0,0,0,0c15.4-3.4,31.4,1,42.9,11.7c0.2,0.2,0.2,0.5,0,0.7c0,0,0,0,0,0
		C352.2,286.6,352.1,286.7,352,286.7z"></path></g><g id="fish-3"><path class="st2" d="M223.7,206.7c-0.7,2-1.7,3.9-3,5.6c1.2-1,2.7-1.7,4.2-2c0.5-0.1,1-0.1,1.5,0.1c0.5,0.5,0.7,1.2,0.4,1.9
		c-0.3,0.6-0.8,1.1-1.4,1.5c1.4-1.1,3.2-1.6,5-1.5c0.5,0,1,0.2,1.4,0.6c0.3,0.3,0.3,0.9-0.1,1.2c0,0-0.1,0.1-0.2,0.1
		c0.8,0,1.6-0.1,2.4-0.5c0.8-0.3,1.6-0.3,2.4,0c0.7,0.4,0.8,1.7,0.1,2c1.8-1,4-0.1,5.9,0.7c1,0.5,2.1,0.9,3.1,1.5
		c1.7,1,3.4,2.1,4.9,3.2c0.4,0.2,0.7,0.6,0.9,1c0.1,0.6-0.2,1.3-0.8,1.5c-0.6,0.3-1.2,0.4-1.8,0.4c-10,0.5-20,0.6-30,0.5
		c-2.5,0-5,0-7.5-0.1c-0.7,0-3.2,0.3-3.8-0.1s0-1.5,0.2-2.2c1.1-3.5,3-6.7,5.6-9.3C216,209.9,219.7,207.8,223.7,206.7z"></path><path class="st2" d="M222.4,259.2c-1.8-3.1-3.2-6.3-4.3-9.7c1.2,1.7,2.5,3.2,4,4.6c1.5,1.4,3.4,2.3,5.5,2.5
		c-2.7-3.3-5.1-6.8-7.2-10.5c-0.9-1.8-2-3.4-3.2-5c-0.8-0.9-3-3.4-4.3-2.2s-0.2,3.9,0.1,5.1c0.9,3.8,2.6,7.4,5,10.6
		c0.7,0.9,1.4,1.7,2.1,2.5C220.7,257.7,222,258.4,222.4,259.2z"></path><path class="st2" d="M245.7,241.3c1.8,1.8,4.2,2.7,6.7,2.7c0.6,0,1.1-0.2,1.4-0.7c0.3-0.6-0.2-1.4-0.9-1.7
		c-0.6-0.3-1.2-0.7-1.7-1.2c0.8,0.3,1.7,0.3,2.5,0c0.8-0.3,1.4-1,1.5-1.9c0-0.7-0.3-1.5-0.9-1.9c-0.6-0.5-1.2-0.8-1.9-1.1
		c-2.3-0.9-4.8-1.4-7.3-1.4c-0.8-0.1-1.7,0.1-2.5,0.4c-1.1,0.5-1.3,0.8-0.9,1.8C242.7,238.2,244.1,239.9,245.7,241.3z"></path><path class="st0" d="M230.1,217.9c-12.5-1.1-26.3,0.7-35,9.9c-1,0.9-1.7,2.1-2,3.4c-0.7,3.1,1.6,4.7,3.7,5.9
		c16.2,8.7,35.7,8.6,51.8-0.3c4.8-2.7,9.1-6.1,14.3-7.9c7.8-2.6,16.2-1,24.2,1.4c1.2,0.4,2.5-0.3,2.9-1.5c0.3-0.8,0-1.8-0.6-2.4
		c-2-1.9-4.5-3.3-7.2-4c2.2-1,4.1-2.3,5.8-4c1-1,1-2.6,0-3.6c-0.7-0.7-1.7-0.9-2.6-0.6l-9,3.1c-4.4,1.5-9,4-13.6,4.2
		C251.8,222.1,240.9,218.8,230.1,217.9z"></path><path class="st1" d="M222.4,244.3c-9.1,0-18-2.2-26-6.5c-1.6-0.9-5-2.7-4.1-6.7c0.4-1.4,1.1-2.7,2.2-3.8
		c9.5-10.1,24.6-11.1,35.6-10.1l0,0c4.2,0.4,8.5,1.1,12.6,1.8c6.5,1.1,13.3,2.2,19.8,2c3.2-0.1,6.4-1.4,9.6-2.7
		c1.2-0.5,2.5-1,3.8-1.4l9-3.1c1.4-0.5,3,0,3.8,1.3c0.8,1.3,0.6,3-0.5,4.1c-1.3,1.3-2.7,2.4-4.3,3.3c2.1,0.8,4.1,2,5.8,3.6
		c1,1,1.2,2.5,0.5,3.7c-0.7,1.2-2.2,1.8-3.5,1.4c-7.2-2.2-15.7-4.1-23.7-1.4c-3.5,1.3-6.8,3.1-9.8,5.1c-1.4,0.9-2.9,1.8-4.4,2.6
		C240.8,242,231.7,244.4,222.4,244.3z M223.9,218.4c-9.6,0-20.7,2.1-28.2,9.9c-0.9,0.8-1.5,1.9-1.8,3.1c-0.5,2.4,0.9,3.7,3.3,5.1
		c16,8.6,35.2,8.4,51.1-0.3c1.4-0.8,2.9-1.7,4.3-2.6c3.2-2.2,6.6-3.9,10.1-5.3c8.5-2.8,17.6-0.7,24.6,1.4c0.7,0.2,1.4-0.1,1.8-0.7
		c0.4-0.6,0.3-1.4-0.3-1.9c-1.9-1.8-4.3-3.2-6.9-3.8c-0.4-0.1-0.7-0.5-0.6-0.9c0.1-0.2,0.2-0.4,0.4-0.5c2.1-0.9,4-2.2,5.5-3.8
		c0.6-0.6,0.7-1.5,0.2-2.2c-0.4-0.7-1.3-1-2.1-0.7l-9,3.1c-1.2,0.4-2.5,0.9-3.7,1.4c-3.3,1.3-6.6,2.7-10.1,2.8
		c-6.7,0.2-13.6-0.9-20.1-2c-4.1-0.7-8.4-1.4-12.5-1.8C228.1,218.5,226,218.4,223.9,218.4z"></path><path class="st1" d="M212,240.2c-0.1,0-0.2,0-0.3-0.1c-0.2-0.2-0.2-0.5-0.1-0.7c4.1-4.8,3.5-12.1-1.3-16.2c-0.4-0.3-0.8-0.7-1.3-1
		c-0.2-0.1-0.3-0.5-0.1-0.7c0.1-0.2,0.4-0.3,0.7-0.2c0,0,0,0,0,0c5.8,3.7,7.5,11.4,3.8,17.2c-0.3,0.5-0.6,0.9-1,1.4
		C212.3,240.1,212.2,240.2,212,240.2z"></path><path class="st0" d="M204.2,226.4c-0.4,0.6-0.4,1.4,0,1.9c0.4,0.3,0.9,0.5,1.3,0.3c0.5-0.1,0.9-0.4,1.2-0.8
		c0.3-0.4,0.5-0.8,0.6-1.3c0.1-0.7-0.4-1.9-1.3-1.7C205.3,225.2,204.7,225.8,204.2,226.4z"></path><path class="st1" d="M205.2,229.4c-0.6,0-1.1-0.2-1.5-0.6c-0.7-0.8-0.7-2-0.1-2.9l0,0c0.6-0.8,1.3-1.4,2.2-1.8
		c0.5-0.1,1.1,0,1.5,0.4c0.6,0.6,0.8,1.3,0.7,2.1c-0.1,0.6-0.4,1.2-0.8,1.6c-0.4,0.5-0.9,0.8-1.6,1
		C205.6,229.4,205.4,229.4,205.2,229.4z M204.9,226.8L204.9,226.8c-0.2,0.3-0.3,0.7-0.1,1c0.2,0.1,0.4,0.2,0.6,0.1
		c0.3-0.1,0.6-0.3,0.8-0.5c0.2-0.2,0.4-0.5,0.4-0.9c0-0.3-0.1-0.6-0.3-0.8c-0.1-0.1-0.1-0.1-0.1,0
		C205.7,226,205.2,226.4,204.9,226.8z"></path></g><g id="processing"><g id="ground"><path class="st2" d="M372.8,340.5c-187.2-4.1-180.2-3.3-298.5-1.5c-8.6,0.1-19.6,3.5-21.7,17.9c-2.8,18.6,12.1,26.9,23.1,27.1
			c187.2,4,180.2,3.3,298.5,1.5c8.5-0.1,19.6-3.5,21.8-17.9C398.6,349.1,383.8,340.8,372.8,340.5z"></path></g><g id="ground-2"><path class="st1" d="M369.5,344.8c-183.1-4.4-176.3-3.7-292-2.7c-8.4,0.1-19.2,2.9-21.2,15.2c-2.6,15.8,12,23,22.8,23.2
			c183.1,4.4,176.3,3.7,292,2.7c8.4-0.1,19.2-2.9,21.2-15.1C394.8,352.2,380.2,345.1,369.5,344.8z"></path></g><g id="ground-3"><path class="st0" d="M320.4,343.6c-183.1-4.4-127.3-2.6-243-1.6c-8.4,0.1-19.2,2.9-21.2,15.2c-2.6,15.8,12,23,22.8,23.2
			c183.1,4.4,126.6,3.7,242.3,2.7c8.4-0.1,19.2-2.9,21.2-15.1C345.1,352.2,331.2,343.9,320.4,343.6z"></path><path class="st1" d="M239.6,384.7c-19.7,0-37.5-0.4-90.5-1.8c-18.5-0.5-41.4-1-70.1-1.7c-5.8-0.1-14.5-2.5-19.7-8.7
			c-3.5-4.2-4.8-9.4-3.8-15.4c2.2-13.6,14.7-15.7,21.9-15.8c31.4-0.3,50.5-0.6,64.5-0.9c38.2-0.7,45.1-0.8,178.5,2.4
			c7.2,0.2,13.9,3.4,18.6,8.8c3.8,4.6,5.3,10.7,4.2,16.5c-2.2,13.6-14.7,15.7-21.9,15.8c-19.5,0.2-34.1,0.3-45.7,0.5
			C259.9,384.5,249.5,384.7,239.6,384.7z M175.4,341.6c-11.6,0-20.8,0.2-33.5,0.4c-14,0.2-33.1,0.6-64.5,0.9
			C61.7,343,57.9,352,57,357.4s0.3,10.3,3.5,14.1c4.8,5.8,13,8.1,18.5,8.2c28.7,0.7,51.6,1.3,70.1,1.7c79.6,2,79.6,2,126.5,1.5
			c11.7-0.1,26.3-0.3,45.8-0.5c15.7-0.1,19.6-9.1,20.5-14.5c1.1-5.4-0.3-11-3.9-15.3c-4.5-5-10.8-8-17.5-8.2
			C231.4,342.2,198.7,341.6,175.4,341.6L175.4,341.6z"></path></g></g><g id="bubbles"><path class="st2" d="M63.2,206.8c-0.6,5.7,2.9,11.4,7.8,14.2c2.4,1.4,5.4,2.3,8.2,1.5s5-3.2,6.4-5.7c2.3-4.2,3.3-9.4,1.5-13.8
		C82.5,191.8,64.5,195,63.2,206.8z"></path><path class="st2" d="M127.2,223.4c-0.6,2.1-0.2,4.4,1.1,6.2c1.2,1.7,3.1,2.9,5.2,3.1c2.1,0.2,4.2-0.7,5.4-2.4
		c0.9-1.4,1.3-3.1,1.2-4.8c-0.1-2.9-1.9-6.8-5.3-6.9C131.9,218.4,128.1,220.6,127.2,223.4z"></path><path class="st2" d="M235.2,291c-0.2,3.8,1.7,7.3,5,9.2c1.5,1,3.4,1.4,5.3,1c1.8-0.6,3.3-2,4.1-3.7c1.6-2.7,2-5.9,1-8.9
		C247.6,281.3,236,283.4,235.2,291z"></path><path class="st2" d="M228.7,303.8c-0.4,1.4-0.2,2.9,0.7,4c0.8,1.1,2,1.8,3.4,2c1.4,0.1,2.7-0.5,3.5-1.5c0.6-0.9,0.9-2,0.8-3.1
		c-0.1-1.9-1.2-4.4-3.4-4.5C231.8,300.6,229.3,302,228.7,303.8z"></path><path class="st2" d="M345.7,211.8c-0.2,3.8,1.7,7.3,5,9.2c1.5,1,3.4,1.4,5.3,1c1.8-0.7,3.3-2,4.1-3.7c1.6-2.7,2-5.9,1-8.9
		C358.1,202.1,346.4,204.2,345.7,211.8z"></path><path class="st2" d="M384.4,260.9c-0.4,1.4-0.1,2.8,0.7,4c0.8,1.1,2,1.8,3.4,2c1.4,0.1,2.7-0.5,3.5-1.5c0.6-0.9,0.9-2,0.8-3.1
		c-0.1-1.9-1.2-4.4-3.4-4.5C387.4,257.7,385,259.1,384.4,260.9z"></path><path class="st2" d="M36.8,312.6c-0.1,2.2,1,4.2,2.9,5.3c0.9,0.6,2,0.8,3,0.6c1-0.4,1.9-1.1,2.4-2.1c0.9-1.5,1.1-3.4,0.6-5.1
		C44,307,37.3,308.2,36.8,312.6z"></path><path class="st2" d="M282.5,261.8c-0.4,1.4-0.2,2.9,0.7,4c0.8,1.1,2,1.8,3.4,2c1.4,0.1,2.7-0.5,3.5-1.5c0.6-0.9,0.9-2,0.8-3.1
		c-0.1-1.9-1.2-4.4-3.4-4.5C285.6,258.6,283.1,260,282.5,261.8z"></path></g><g id="fishing-tools"><path class="st1" d="M173.7,254.9c-4.2-5.7-9-12.2-10.2-19.8c-1.2-7.4,2.1-16.4,9.6-18.7c2.2-0.6,4.4-0.9,6.6-0.9
		c3.9-0.2,7.6-0.5,9.7-3.4s1-7.3,0-10.3c-2.5-7.4-6-14.5-9.4-21.4c-2-4-4.1-8.2-5.9-12.4c-6.3-14.2-8.4-25.8-6.6-36.3
		c2.5-14.9,13.7-28.5,29.3-35.5c13-5.9,29.2-7.5,46.8-4.7c15.7,2.5,30.8,8.2,45.5,13.6l-0.4,0.9c-14.6-5.4-29.6-11-45.3-13.6
		c-17.4-2.8-33.4-1.2-46.2,4.6c-15.2,6.9-26.2,20.2-28.7,34.8c-1.7,10.3,0.3,21.7,6.5,35.7c1.8,4.2,3.9,8.3,5.9,12.3
		c3.4,6.9,7,14.1,9.5,21.5c1.1,3.2,2.2,7.8-0.2,11.2s-6.5,3.5-10.5,3.8c-2.1,0-4.3,0.3-6.4,0.9c-7,2.2-10.1,10.7-8.9,17.6
		c1.2,7.4,5.9,13.7,10,19.4L173.7,254.9z"></path><path class="st1" d="M209.3,273.7c-0.6,6.3-6.3,10.9-12.6,10.2c-0.3,0-0.6-0.1-0.9-0.1h-0.1c-4.3-0.9-8.3-3.2-11.9-5.7
		c-6.9-4.7-13.3-11-14.4-19.6c-0.4-2.7,0.6-5.4,2.6-7.2c3.7-3.2,8.4-1,11.9,1.4c7.4,5.1,13.7,11.7,18.5,19.3c1,1.7,3.8-2,5.3-4.6
		c0.2-0.4,0.8-0.6,1.2-0.4c0.2,0.1,0.4,0.4,0.5,0.6C209.6,269.7,209.6,271.7,209.3,273.7z"></path><path class="st1" d="M418.9,259.3c-4,0-7.9-1.4-11.1-3.8c-3.9-3.1-6.3-7.7-6.7-12.7c-0.4-5.3,0.6-10.5,2.9-15.3
		c-8.9,4.6-20.8,3-27.9-4.1s-8.8-19.2-4.1-28.1c-9.6,3.2-21.4,0-27.8-7.9c-6.2-7.6-7.2-19.3-2.6-28c-7.6,4.4-18.1,1.2-23.5-5.2
		c-6.5-7.5-7.5-18-7.1-25.8c-6.9,2.7-14.7-0.7-17.4-7.6c-1.5-3.7-1.2-7.9,0.8-11.4l0.9,0.5c-3.4,6-1.2,13.6,4.7,16.9
		c3.5,2,7.7,2.1,11.4,0.4l0.8-0.4l0,0.8c-0.5,7.6,0.4,18.3,6.8,25.9c5.7,6.6,16.9,9.7,24.1,3.7l2.7-2.3l-2,2.9
		c-7.5,11.1-4.5,26.2,6.7,33.7c6.7,4.5,15.2,5.4,22.7,2.3l1.4-0.6l-0.8,1.3c-5.3,9-4,20.5,3.2,28.1c7.2,7.1,19.5,8.5,28.1,3.1l1.6-1
		l-0.9,1.7c-2.7,5-3.9,10.6-3.5,16.3c0.3,4.7,2.6,9,6.3,11.9c3.8,3,8.7,4.2,13.4,3.4l8.4-1.5l0.2,1l-8.3,1.4
		C421,259.2,419.9,259.3,418.9,259.3z"></path><path class="st0" d="M470.9,339.5c2.3,4.6,5.3,9.9,10.5,10.5c5.5,0.7,10.1-4.7,10.7-10.2s-1.8-10.8-4.1-15.8
		c-35.4-74.9-85.2-143.8-149.9-195.6c-5.9-4.7-52-37.5-53.9-26.3c-1.1,6.6,12.9,17.3,17.1,20.8c9.7,8.4,19.3,16.9,28.6,25.7
		c36.8,35,69.6,74,97.9,116.3C443.7,289,458.1,313.8,470.9,339.5z"></path><path class="st1" d="M482.4,350.9c-0.4,0-0.7,0-1.1-0.1c-5.2-0.7-8.4-5.6-11-10.9l0,0c-12.8-25.7-27.2-50.5-43.2-74.4
		c-28.2-42.2-61-81.2-97.8-116.2c-8-7.6-16.8-15.6-28.6-25.7l-1.8-1.5c-5.8-4.8-16.6-13.8-15.5-20c0.2-1.2,1-2.2,2.1-2.6
		c9.2-3.5,48.8,25.1,53,28.5c60.5,48.4,112.4,116.1,150.1,195.8c2.5,5.4,4.8,10.6,4.2,16.2c-0.4,3.5-2.1,6.6-4.8,8.8
		C486.5,350.1,484.5,350.9,482.4,350.9z M471.6,339.2c2.5,4.9,5.3,9.5,9.9,10.1c2,0.2,4.1-0.4,5.6-1.7c2.4-2,3.9-4.8,4.3-7.8
		c0.5-5.1-1.6-10.2-4-15.4c-37.5-79.5-89.3-147-149.7-195.3c-6-4.8-43.6-31.3-51.6-28.3c-0.6,0.2-1.1,0.8-1.1,1.5
		c-0.9,5.4,9.8,14.3,15,18.6c0.7,0.6,1.4,1.1,1.8,1.5c11.8,10.1,20.6,18.1,28.6,25.7c36.9,35.1,69.7,74.1,98,116.5
		C444.4,288.6,458.8,313.5,471.6,339.2L471.6,339.2z"></path><path class="st1" d="M411.4,274.1c-1.9,5.5-2.9,11.5-1.2,17.1c2.8,9.2,13.6,15.9,24.3,15.1s20-9.1,21-18.6
		C457.7,266.4,420.3,248.2,411.4,274.1z"></path><path class="st0" d="M421.3,276c-2.1-1.3-3.7-3.8-3.2-6.2c0.5-1.7,1.7-3.1,3.3-3.8c1.3-0.6,2.7-0.7,4-0.1c1.2,0.9,2.1,2.2,2.4,3.6
		c0.5,1.7,2.1,6.1,0.5,7.6S422.8,276.9,421.3,276z"></path><path class="st0" d="M420.5,282.9c-2.2-0.4-4.8-0.2-6.3,1.5c-0.8,1.1-1.3,2.5-1.4,3.9c-0.2,1.1-0.1,2.3,0.5,3.3
		c0.6,0.7,1.5,1.2,2.4,1.5c1.2,0.6,2.6,0.9,3.9,0.8c1.9-0.3,3.3-1.9,4.5-3.3c0.9-1.1,3.5-3.9,2.8-5.5
		C426.4,283.7,421.9,283.2,420.5,282.9z"></path><path class="st0" d="M430.7,290c0.4-1.2,1.3-2.6,2.6-2.6c1.1,0.1,2.1,0.6,2.7,1.5c1.6,1.7,2.9,3.5,4,5.5c0.7,1.3,1.4,2.9,0.7,4.3
		c-0.6,1.2-2,1.7-3.2,2.1c-1.2,0.5-2.5,0.7-3.9,0.8C427.9,301.3,429.4,293.5,430.7,290z"></path><path class="st0" d="M442.6,286.2c2.2,1.1,5.2,1.5,7-0.2c1.7-1.9,1.8-4.7,0.1-6.6c-1.8-1.8-4.3-2.5-6.7-1.9
		c-1.7,0.4-5.3,1.9-5.5,3.9S441.1,285.4,442.6,286.2z"></path><path class="st0" d="M432,272.9c-0.4,0.7-0.6,1.5-0.6,2.3c0,0.8,0.3,1.6,1,2.1c0.8,0.4,1.8,0.4,2.6,0c1.4-0.4,2.7-1,4-1.6
		c1.1-0.5,2.1-1.3,2.8-2.3c0.9-1.6,0.7-3.7-0.6-5.1C437.1,263.9,433.6,269.4,432,272.9z"></path></g></svg>