<?xml version="1.0" encoding="UTF-8"?>
<svg id="_レイヤー_2" data-name="レイヤー 2" xmlns="http://www.w3.org/2000/svg" viewBox="0 0 57.65 40.66">
  <defs>
    <style>
      .cls-1 {
        fill: none;
        stroke: #000;
        stroke-linecap: round;
        stroke-linejoin: round;
        stroke-width: 2px;
      }
    </style>
  </defs>
  <g id="_レイヤー_1-2" data-name="レイヤー 1">
    <g>
      <path class="cls-1" d="M11.06,20.46c2.65,0,4.79-2.46,4.79-5.5s-2.14-5.5-4.79-5.5-4.79,2.46-4.79,5.5,2.14,5.5,4.79,5.5Z"/>
      <path class="cls-1" d="M15.08,22.13c-.23.05-.46.14-.67.28-.97.6-2.12.94-3.34.94s-2.37-.34-3.34-.94c-.77-.46-1.73-.44-2.47.07-1.99,1.36-3.49,3.4-4.16,5.8-.41,1.43.67,2.85,2.15,2.85h15.72"/>
      <path class="cls-1" d="M46.59,20.46c2.65,0,4.79-2.46,4.79-5.5s-2.14-5.5-4.79-5.5-4.79,2.46-4.79,5.5,2.14,5.5,4.79,5.5Z"/>
      <path class="cls-1" d="M42.58,22.13c.23.05.46.14.67.28.98.6,2.12.94,3.34.94s2.37-.34,3.34-.94c.77-.46,1.73-.44,2.47.07,2,1.36,3.49,3.4,4.16,5.8.4,1.43-.67,2.85-2.15,2.85h-15.72"/>
      <path class="cls-1" d="M28.83,12c2.65,0,4.79-2.46,4.79-5.5s-2.14-5.5-4.79-5.5-4.79,2.46-4.79,5.5,2.14,5.5,4.79,5.5Z"/>
      <path class="cls-1" d="M21.55,22.67h-.56c-1.48,0-2.55-1.42-2.15-2.85.03-.13.07-.26.11-.38.72-2.23,2.16-4.14,4.05-5.42.74-.5,1.71-.53,2.47-.07.97.6,2.12.94,3.34.94s2.37-.34,3.34-.94c.77-.46,1.73-.44,2.47.07,1.89,1.29,3.33,3.19,4.05,5.42.04.13.08.25.12.38.4,1.43-.67,2.85-2.15,2.85h-.83"/>
      <path class="cls-1" d="M28.83,28.99c2.65,0,4.79-2.46,4.79-5.5s-2.14-5.5-4.79-5.5-4.79,2.46-4.79,5.5,2.14,5.5,4.79,5.5Z"/>
      <path class="cls-1" d="M18.85,36.8c.67-2.4,2.17-4.44,4.16-5.8.74-.5,1.71-.53,2.47-.07.97.6,2.12.94,3.34.94s2.37-.34,3.34-.94c.77-.47,1.73-.44,2.47.07,1.99,1.36,3.49,3.4,4.16,5.8.4,1.43-.67,2.85-2.15,2.85h-15.67c-1.48,0-2.55-1.42-2.15-2.85Z"/>
    </g>
  </g>
</svg>