<?xml version="1.0" encoding="UTF-8"?>
<svg id="_レイヤー_2" data-name="レイヤー 2" xmlns="http://www.w3.org/2000/svg" xmlns:xlink="http://www.w3.org/1999/xlink" viewBox="0 0 50 48">
  <defs>
    <style>
      .cls-1 {
        stroke: #2e2d2c;
      }

      .cls-1, .cls-2 {
        fill: none;
      }

      .cls-1, .cls-3 {
        stroke-linecap: round;
        stroke-linejoin: round;
        stroke-width: 1.75px;
      }

      .cls-2 {
        stroke-width: 0px;
      }

      .cls-3 {
        fill: #fff;
        stroke: #fff;
      }

      .cls-4 {
        clip-path: url(#clippath);
      }
    </style>
    <clipPath id="clippath">
      <rect class="cls-2" width="50" height="48"/>
    </clipPath>
  </defs>
  <g id="_レイヤー_1-2" data-name="レイヤー 1">
    <g class="cls-4">
      <g>
        <path class="cls-1" d="M1.21,46.81h16.04v-5.57h16.04v-5.59h15.51V1.19"/>
        <path class="cls-3" d="M23.51,4.69c0,1.94-1.59,3.51-3.55,3.51s-3.55-1.57-3.55-3.51,1.59-3.51,3.55-3.51,3.55,1.57,3.55,3.51Z"/>
        <path class="cls-1" d="M23.51,4.69c0,1.94-1.59,3.51-3.55,3.51s-3.55-1.57-3.55-3.51,1.59-3.51,3.55-3.51,3.55,1.57,3.55,3.51Z"/>
        <path class="cls-1" d="M15.07,29.68l-4.48,12.02c-.4,1.03-1.56,1.56-2.62,1.17-1.06-.39-1.58-1.55-1.18-2.59l7.55-25.91h-4.13l-3.51,6.14c-.37.65-1.06,1.02-1.77,1.02-.34,0-.69-.08-1-.26-.97-.54-1.32-1.76-.77-2.73l4.1-7.16c.36-.62,1.03-1.02,1.77-1.02h9.17c1.44,0,2.78.66,3.66,1.79l4.07,5.29,5.42-1.15c1.19-.24,2.39.6,2.45,1.86.05,1-.73,1.87-1.71,2.09l-6.55,1.4c-.14.03-.29.04-.42.04-.63,0-1.22-.28-1.62-.79l-3.35-4.38-3.03,8.63,7.57.42c.37.12.66.42.8.92l2.47,8.34c.37,1.04-.19,2.18-1.25,2.55-.22.08-.45.11-.67.11-.84,0-1.62-.52-1.92-1.34l-2.45-6.35-6.58-.12h-.01Z"/>
        <path class="cls-1" d="M34.12,5.52l14.67-4.33v8.67l-14.67-4.34Z"/>
      </g>
    </g>
  </g>
</svg>