<?xml version="1.0" encoding="UTF-8"?>
<svg id="_レイヤー_2" data-name="レイヤー 2" xmlns="http://www.w3.org/2000/svg" viewBox="0 0 53.61 53.61">
  <defs>
    <style>
      .cls-1 {
        fill: #2e2d2c;
        stroke-width: 0px;
      }

      .cls-2 {
        fill: none;
      }

      .cls-2, .cls-3 {
        stroke: #2e2d2c;
        stroke-linecap: round;
        stroke-linejoin: round;
        stroke-width: 2.32px;
      }

      .cls-3 {
        fill: #fff;
      }
    </style>
  </defs>
  <g id="_レイヤー_1-2" data-name="レイヤー 1">
    <g>
      <path class="cls-2" d="M43.9,18.26c4.72,0,8.55,3.83,8.55,8.55s-3.83,8.55-8.55,8.55v-17.1Z"/>
      <path class="cls-2" d="M9.71,18.26c-4.72,0-8.55,3.83-8.55,8.55s3.83,8.55,8.55,8.55v-17.1Z"/>
      <path class="cls-2" d="M9.71,18.26C9.71,8.81,17.36,1.16,26.81,1.16s17.1,7.66,17.1,17.1"/>
      <path class="cls-2" d="M30.97,48.28c7.14,0,12.93-5.79,12.93-12.93"/>
      <path class="cls-3" d="M30.97,48.28c0,2.3-1.87,4.17-4.17,4.17s-4.17-1.87-4.17-4.17,1.87-4.17,4.17-4.17,4.17,1.87,4.17,4.17Z"/>
      <path class="cls-2" d="M14.02,18.26c0-7.06,5.72-12.78,12.78-12.78s12.78,5.72,12.78,12.78"/>
      <path class="cls-1" d="M22.02,22.48c0,1.01-.82,1.83-1.83,1.83s-1.83-.82-1.83-1.83.82-1.83,1.83-1.83,1.83.82,1.83,1.83Z"/>
      <path class="cls-1" d="M34.98,22.48c0,1.01-.82,1.83-1.83,1.83s-1.83-.82-1.83-1.83.82-1.83,1.83-1.83,1.83.82,1.83,1.83Z"/>
      <path class="cls-2" d="M14.02,18.26c0-7.06,5.72-12.78,12.78-12.78s12.78,5.72,12.78,12.78"/>
      <path class="cls-2" d="M34.46,32.81c-.42.99-1.03,1.89-1.78,2.64-.75.75-1.65,1.36-2.64,1.78-.99.42-2.08.66-3.23.66s-2.24-.24-3.23-.66c-.99-.42-1.89-1.03-2.64-1.78-.75-.75-1.36-1.65-1.78-2.64"/>
    </g>
  </g>
</svg>