<?xml version="1.0" encoding="UTF-8"?>
<svg id="_レイヤー_2" data-name="レイヤー 2" xmlns="http://www.w3.org/2000/svg" viewBox="0 0 56.18 52.02">
  <defs>
    <style>
      .cls-1 {
        fill: #2e2d2c;
      }

      .cls-1, .cls-2 {
        stroke-width: 0px;
      }

      .cls-3 {
        fill: none;
      }

      .cls-3, .cls-4, .cls-5 {
        stroke-linecap: round;
        stroke-linejoin: round;
      }

      .cls-3, .cls-5 {
        stroke: #2e2d2c;
        stroke-width: 2.32px;
      }

      .cls-4 {
        stroke: #fff;
        stroke-width: 7.45px;
      }

      .cls-4, .cls-5, .cls-2 {
        fill: #fff;
      }
    </style>
  </defs>
  <g id="_レイヤー_1-2" data-name="レイヤー 1">
    <g>
      <path class="cls-3" d="M38.57,31.6s4.99-3.77,8.39-6.31c3.1-2.32,5.6-1.78,7.66-.13.51.41.54,1.19.06,1.64l-15.57,14.64c-.39.36-.89.56-1.42.56h-20.41"/>
      <path class="cls-3" d="M8.2,34.69c4.18-5.24,7.5-7.24,11.63-7.24,3.46,0,5.3.4,8.25,2.38h6.33c.92,0,3.79.37,4.3,4.16.09.64-.43,1.22-1.08,1.22h-12.16"/>
      <path class="cls-2" d="M1.16,36.71l4.99-4.99,14.18,14.16-4.99,4.99"/>
      <path class="cls-3" d="M1.16,36.71l4.99-4.99,14.18,14.16-4.99,4.99"/>
      <path class="cls-1" d="M5.93,38.29c-.51.51-.51,1.33,0,1.84.51.51,1.34.51,1.84,0,.51-.51.51-1.33,0-1.84-.51-.51-1.34-.51-1.84,0Z"/>
      <path class="cls-4" d="M33.08,23.7c5.52,0,10-4.47,10-9.99s-4.48-9.99-10-9.99-10,4.47-10,9.99,4.48,9.99,10,9.99Z"/>
      <path class="cls-5" d="M33.08,23.7c5.52,0,10-4.47,10-9.99s-4.48-9.99-10-9.99-10,4.47-10,9.99,4.48,9.99,10,9.99Z"/>
      <path class="cls-2" d="M36.02,11.16c-.96-2.56-5.3-2.26-5.34.41-.01,1.19,1.39,1.74,2.56,1.93,4.27.68,3.09,4.68,0,4.53-2.34-.11-3.02-1.7-3.09-2.08"/>
      <path class="cls-3" d="M36.02,11.16c-.96-2.56-5.3-2.26-5.34.41-.01,1.19,1.39,1.74,2.56,1.93,4.27.68,3.09,4.68,0,4.53-2.34-.11-3.02-1.7-3.09-2.08"/>
      <path class="cls-3" d="M33.29,7.24v2.15"/>
      <path class="cls-3" d="M33.29,18.03v2.16"/>
    </g>
  </g>
</svg>