<?xml version="1.0" encoding="UTF-8"?>
<svg id="_レイヤー_2" data-name="レイヤー 2" xmlns="http://www.w3.org/2000/svg" xmlns:xlink="http://www.w3.org/1999/xlink" viewBox="0 0 56 56">
  <defs>
    <style>
      .cls-1 {
        stroke-width: 0px;
      }

      .cls-1, .cls-2 {
        fill: none;
      }

      .cls-2 {
        stroke: #000;
        stroke-linecap: round;
        stroke-linejoin: round;
        stroke-width: 1.46px;
      }

      .cls-3 {
        clip-path: url(#clippath);
      }
    </style>
    <clipPath id="clippath">
      <rect class="cls-1" width="56" height="56"/>
    </clipPath>
  </defs>
  <g id="_レイヤー_1-2" data-name="レイヤー 1">
    <g class="cls-3">
      <g>
        <path class="cls-2" d="M10.17,25.43v5.14l4.36.64c.36,1.6,1,3.1,1.85,4.45l-2.63,3.53,3.65,3.63,3.54-2.62c1.36.85,2.86,1.48,4.47,1.84l.64,4.34h5.16l.64-4.34c1.61-.36,3.11-.99,4.47-1.84l3.54,2.62,3.65-3.63-2.63-3.53c.85-1.35,1.49-2.84,1.85-4.45l4.36-.64v-5.14l-4.36-.64c-.36-1.6-1-3.1-1.85-4.45l2.63-3.53-3.65-3.63-3.54,2.62c-1.36-.85-2.86-1.48-4.47-1.84l-.64-4.34h-5.16l-.64,4.34c-1.61.36-3.11.99-4.47,1.84l-3.54-2.62-3.65,3.63,2.63,3.53c-.85,1.35-1.49,2.84-1.85,4.45l-4.36.64Z"/>
        <path class="cls-2" d="M4.03,22.92v-.26C4.03,12.34,12.43,3.98,22.81,3.98"/>
        <path class="cls-2" d="M32.96,4.11h.26c10.34,0,18.73,8.31,18.78,18.58"/>
        <path class="cls-2" d="M51.87,33.08v.26c0,10.32-8.41,18.68-18.78,18.68"/>
        <path class="cls-2" d="M3.9,33.25c.02,10.3,8.42,18.64,18.78,18.64h.26"/>
        <path class="cls-2" d="M3.9,33.25H.41l3.59-5.11,3.59,5.11"/>
        <path class="cls-2" d="M22.89,7.55l5.14-3.57L22.89.41v3.58"/>
        <path class="cls-2" d="M48.41,22.69l3.59,5.12,3.59-5.12h-3.59"/>
        <path class="cls-2" d="M33.07,48.45l-5.14,3.58,5.14,3.57v-3.57"/>
        <path class="cls-2" d="M21.78,28.33l4.65,4.62,9.1-11.7"/>
      </g>
    </g>
  </g>
</svg>