<?xml version="1.0" encoding="UTF-8"?>
<svg id="_レイヤー_2" data-name="レイヤー 2" xmlns="http://www.w3.org/2000/svg" viewBox="0 0 50.09 49.1">
  <defs>
    <style>
      .cls-1 {
        fill: none;
        stroke: #222221;
        stroke-linecap: round;
        stroke-linejoin: round;
        stroke-width: 2px;
      }
    </style>
  </defs>
  <g id="_レイヤー_1-2" data-name="レイヤー 1">
    <g>
      <path class="cls-1" d="M14.48,25.3v-5.21"/>
      <path class="cls-1" d="M20.78,25.3v-11.28"/>
      <path class="cls-1" d="M27.07,25.3v-7"/>
      <path class="cls-1" d="M33.37,25.3v-10.38"/>
      <path class="cls-1" d="M39.66,25.3v-13.6"/>
      <path class="cls-1" d="M14.23,17.21c1.19,0,2.16-.96,2.16-2.14s-.97-2.14-2.16-2.14-2.16.96-2.16,2.14.97,2.14,2.16,2.14Z"/>
      <path class="cls-1" d="M27.28,16.09c1.34-.11,2.34-1.28,2.23-2.62-.11-1.33-1.29-2.32-2.64-2.21-1.34.11-2.34,1.28-2.23,2.62.11,1.33,1.29,2.32,2.64,2.21Z"/>
      <path class="cls-1" d="M39.86,5.84c1.34-.11,2.35-1.27,2.24-2.61-.11-1.33-1.28-2.33-2.63-2.22-1.34.11-2.35,1.27-2.24,2.61.11,1.33,1.28,2.33,2.63,2.22Z"/>
      <path class="cls-1" d="M23.19,4.64c.22-1.32-.69-2.57-2.02-2.78-1.33-.21-2.59.68-2.8,2-.22,1.32.69,2.57,2.02,2.78,1.33.21,2.59-.68,2.8-2Z"/>
      <path class="cls-1" d="M18.24,8.51l-1.37,2.75"/>
      <path class="cls-1" d="M24.38,9.39l-.74-1.27"/>
      <path class="cls-1" d="M35.55,6.59l-4.11,3.84"/>
      <path class="cls-1" d="M44.17,4.27h2.74c1.2,0,2.18.97,2.18,2.17v27.93c0,1.19-.98,2.17-2.18,2.17H3.18c-1.2,0-2.18-.97-2.18-2.17V6.43c0-1.19.98-2.17,2.18-2.17h2.09"/>
      <path class="cls-1" d="M30.11,39.1l2.57,4.59"/>
      <path class="cls-1" d="M17.41,43.69l2.57-4.59"/>
      <path class="cls-1" d="M16.3,43.7h17.49c2.45,0,4.44,1.97,4.44,4.4H11.86c0-2.43,1.99-4.4,4.44-4.4Z"/>
      <path class="cls-1" d="M8.98,3v24.3h32.5"/>
    </g>
  </g>
</svg>