<svg width="49" height="54" viewBox="0 0 49 54" fill="none" xmlns="http://www.w3.org/2000/svg">
<rect width="49" height="54" fill="#1E1E1E"/>
<g id="iPhone 14 &#38; 15 Pro Max - 4" clip-path="url(#clip0_0_1)">
<rect width="430" height="3400" transform="translate(-104 -513)" fill="white"/>
<path id="Rectangle 256" d="M-104 -513H326V2887H-104V-513Z" fill="#174D59"/>
<g id="001">
<rect id="Rectangle 261" x="-21" y="-20" width="263" height="255" fill="#FFFCE2"/>
<g id="005&#232;&#178;&#161;&#229;&#139;&#153;">
<rect id="Rectangle 260" x="-9.5" y="-7.5" width="70" height="70" rx="8.5" fill="white" stroke="#9E9E9E"/>
<g id="_&#233;&#165;&#145;2" clip-path="url(#clip1_0_1)">
<g id="Group">
<path id="Vector" d="M3.53809 31.9199V35.0794L8.1414 35.4826C8.62999 37.8236 9.58362 39.9901 10.9022 41.8738L8.0119 45.3763L11.8558 49.3061L15.3937 46.2609C17.2892 47.5187 19.4437 48.3974 21.763 48.7885L22.1456 53.3502H27.5848L27.9792 48.6441C30.2691 48.1446 32.3883 47.1697 34.2308 45.8216L37.6568 48.7765L41.5007 44.8467L38.5221 41.2299C39.7524 39.292 40.6118 37.0894 40.9945 34.7183L45.4565 34.3271V31.9259" stroke="black" stroke-width="2.16" stroke-linecap="round" stroke-linejoin="round"/>
<path id="Vector_2" d="M33.6303 31.9199C33.6303 37.0774 29.545 41.2539 24.5002 41.2539C19.4554 41.2539 15.3701 37.0774 15.3701 31.9199" stroke="black" stroke-width="2.16" stroke-linecap="round" stroke-linejoin="round"/>
</g>
<path id="Vector_3" d="M0.635742 29.1094H48.3642" stroke="black" stroke-width="2.16" stroke-linecap="round" stroke-linejoin="round"/>
<g id="Group_2">
<path id="Vector_4" d="M12.7856 26.2747V17.9879V10.1704H14.3574H28.1379V26.2747" stroke="black" stroke-width="2.16" stroke-linecap="round" stroke-linejoin="round"/>
<path id="Vector_5" d="M37.068 26.2748V5.0491L35.5904 4.59173L32.2939 3.58671L22.687 0.649902V4.34499" stroke="black" stroke-width="2.16" stroke-linecap="round" stroke-linejoin="round"/>
<path id="Vector_6" d="M20.4618 5.9458H14.3574V10.1404" stroke="black" stroke-width="2.16" stroke-linecap="round" stroke-linejoin="round"/>
<path id="Vector_7" d="M5.09766 26.2747V20.9727L10.0601 17.5063" stroke="black" stroke-width="2.16" stroke-linecap="round" stroke-linejoin="round"/>
<path id="Vector_8" d="M10.0601 17.5063L12.6443 19.3057" stroke="black" stroke-width="2.16" stroke-linecap="round" stroke-linejoin="round"/>
<path id="Vector_9" d="M39.1045 9.92383L43.8491 12.4574V26.2749" stroke="black" stroke-width="2.16" stroke-linecap="round" stroke-linejoin="round"/>
</g>
<g id="Group_3">
<path id="Vector_10" d="M16.459 14.4614H18.3662" stroke="black" stroke-width="2.16" stroke-linecap="round" stroke-linejoin="round"/>
<path id="Vector_11" d="M16.459 18.1025H18.3662" stroke="black" stroke-width="2.16" stroke-linecap="round" stroke-linejoin="round"/>
<path id="Vector_12" d="M16.459 21.7432H18.3662" stroke="black" stroke-width="2.16" stroke-linecap="round" stroke-linejoin="round"/>
<path id="Vector_13" d="M22.687 14.4614H24.5943" stroke="black" stroke-width="2.16" stroke-linecap="round" stroke-linejoin="round"/>
<path id="Vector_14" d="M22.687 18.1025H24.5943" stroke="black" stroke-width="2.16" stroke-linecap="round" stroke-linejoin="round"/>
<path id="Vector_15" d="M22.687 21.7432H24.5943" stroke="black" stroke-width="2.16" stroke-linecap="round" stroke-linejoin="round"/>
</g>
<path id="Vector_16" d="M31.6934 7.85938H34.048" stroke="black" stroke-width="2.16" stroke-linecap="round" stroke-linejoin="round"/>
<path id="Vector_17" d="M31.6934 13.0654H34.048" stroke="black" stroke-width="2.16" stroke-linecap="round" stroke-linejoin="round"/>
<path id="Vector_18" d="M31.6934 18.271H34.048" stroke="black" stroke-width="2.16" stroke-linecap="round" stroke-linejoin="round"/>
<path id="Vector_19" d="M31.6934 23.4766H34.048" stroke="black" stroke-width="2.16" stroke-linecap="round" stroke-linejoin="round"/>
</g>
</g>
</g>
</g>
<defs>
<clipPath id="clip0_0_1">
<rect width="430" height="3400" fill="white" transform="translate(-104 -513)"/>
</clipPath>
<clipPath id="clip1_0_1">
<rect width="49" height="54" fill="white"/>
</clipPath>
</defs>
</svg>
