<?xml version="1.0" encoding="UTF-8"?>
<svg id="_レイヤー_2" data-name="レイヤー 2" xmlns="http://www.w3.org/2000/svg" viewBox="0 0 54.12 53.13">
  <defs>
    <style>
      .cls-1 {
        fill: none;
        stroke: #1f1f1f;
        stroke-miterlimit: 10;
        stroke-width: 2.18px;
      }
    </style>
  </defs>
  <g id="_レイヤー_1-2" data-name="レイヤー 1">
    <g>
      <path class="cls-1" d="M29.17,12.4l-3.89-3.93c-1.16-1.17-2.77-1.79-4.41-1.7l-1.51.09c-1.34.08-2.64-.42-3.59-1.38l-3.89-3.93L1.53,12.02l4.25,4.3c.78.79,1.35,1.77,1.66,2.83.44,1.55,1.26,2.96,2.38,4.09l1.39,1.4M26.2,15.31l-3.08-3.11"/>
      <path class="cls-1" d="M15.73,6.15l-9.88,9.99"/>
      <path class="cls-1" d="M38.18,28.55l.66.67c1.05,1.06,2.77,1.06,3.82,0l3.09-3.12c1.16-1.17,1.77-2.8,1.68-4.46l-.09-1.53c-.08-1.35.42-2.67,1.36-3.63l3.89-3.93-10.35-10.48-4.25,4.3c-.78.78-1.74,1.36-2.8,1.67h-.01c-1.52.45-2.91,1.28-4.03,2.41L13.78,28.03"/>
      <path class="cls-1" d="M48.04,16.44l-9.88-9.99"/>
      <path class="cls-1" d="M25.24,41.53l3.09,3.13c1.16,1.17,2.77,1.79,4.41,1.7l1.51-.09c1.34-.08,2.64.43,3.59,1.38l3.89,3.93,10.35-10.48-4.23-4.28c-.78-.79-1.35-1.77-1.67-2.84v-.02c-.45-1.54-1.27-2.94-2.39-4.07h-.01s-.81-.83-.81-.83M27.93,38.34l2.55,2.58"/>
      <path class="cls-1" d="M37.88,46.98l9.88-9.99"/>
      <path class="cls-1" d="M32.9,33.17c.84-.85.84-2.22,0-3.06-.84-.85-2.19-.85-3.02,0l-5.16,5.22M16.75,24.29l-.66-.67c-1.05-1.06-2.77-1.06-3.82,0l-3.09,3.12c-1.16,1.17-1.77,2.8-1.68,4.46l.09,1.53c.08,1.35-.42,2.67-1.36,3.63l-3.89,3.93,10.35,10.48,4.25-4.3c.78-.78,1.74-1.36,2.8-1.67h.01c1.52-.45,2.91-1.28,4.03-2.41l17.48-17.69M24.4,23.39l1.7-1.72c.84-.85.84-2.22,0-3.06-.78-.79-2.02-.84-2.87-.15"/>
      <path class="cls-1" d="M29.3,24.57l1.7-1.72c.84-.85.84-2.22,0-3.06-.84-.85-2.19-.85-3.03,0l-7.82,7.91"/>
      <path class="cls-1" d="M29.82,30.16l3.03-3.06c.84-.85.84-2.22,0-3.06-.84-.85-2.19-.85-3.03,0l-7.29,7.37"/>
      <path class="cls-1" d="M6.9,36.41l9.88,9.99"/>
    </g>
  </g>
</svg>