<svg width="46" height="51" viewBox="0 0 46 51" fill="none" xmlns="http://www.w3.org/2000/svg">
<path d="M28.98 40.9175V40.5668C28.98 34.2756 36.0033 30.4392 35.7059 23.0539C35.4935 16.7136 30.3535 11.4604 23.9603 11.0676C23.6913 11.0536 23.4222 11.0396 23.1603 11.0396C22.8983 11.0396 22.6293 11.0466 22.3602 11.0676C15.9671 11.4604 10.827 16.7136 10.6147 23.0539C10.3173 30.4322 17.3406 34.2756 17.3406 40.5668V43.3933C17.3406 46.5635 19.9318 49.1305 23.132 49.1305H23.1815C26.3746 49.1305 28.9587 46.5705 28.9729 43.4144V40.9245L28.98 40.9175Z" stroke="#1F1F1F" stroke-width="2.5" stroke-miterlimit="10"/>
<path d="M23.1602 6.38238V0" stroke="#1F1F1F" stroke-width="2.5" stroke-miterlimit="10"/>
<path d="M13.1916 9.01962L11.0464 5.9126" stroke="#1F1F1F" stroke-width="2.5" stroke-miterlimit="10"/>
<path d="M6.30286 16.9587L1 14.7915" stroke="#1F1F1F" stroke-width="2.5" stroke-miterlimit="10"/>
<path d="M40.0176 16.9587L45.3204 14.7915" stroke="#1F1F1F" stroke-width="2.5" stroke-miterlimit="10"/>
<path d="M6.01237 27.3882L2.21045 28.2509" stroke="#1F1F1F" stroke-width="2.5" stroke-miterlimit="10"/>
<path d="M11.0463 36.4497L6.6001 40.8823" stroke="#1F1F1F" stroke-width="2.5" stroke-miterlimit="10"/>
<path d="M33.1289 9.01962L35.267 5.9126" stroke="#1F1F1F" stroke-width="2.5" stroke-miterlimit="10"/>
<path d="M40.3076 27.3882L44.1095 28.2509" stroke="#1F1F1F" stroke-width="2.5" stroke-miterlimit="10"/>
<path d="M35.2666 36.4497L39.7128 40.8823" stroke="#1F1F1F" stroke-width="2.5" stroke-miterlimit="10"/>
<path d="M28.9797 40.9175H17.3403" stroke="#1F1F1F" stroke-width="2.5" stroke-miterlimit="10"/>
<path d="M29.341 21.0898L22.2682 28.0964L16.9795 22.8573" stroke="#1F1F1F" stroke-width="2.5" stroke-miterlimit="10"/>
</svg>
