<svg width="340" height="76" viewBox="0 0 340 76" fill="none" xmlns="http://www.w3.org/2000/svg">
<rect width="340" height="76" rx="20" fill="white"/>
<path d="M19.5794 59.944V45.112H12.3794V39.064H19.5794V36.952H12.3794V31.144H34.8434V36.952H26.8274V39.064H34.2194V45.112H26.8274V59.944H19.5794ZM14.7314 58.264L11.0834 52.552C12.8434 51.048 14.3474 49.512 15.5954 47.944C16.8434 46.376 17.8994 44.712 18.7634 42.952L22.6994 45.784C21.6754 48.184 20.4914 50.456 19.1474 52.6C17.8034 54.712 16.3314 56.6 14.7314 58.264ZM29.9954 55.624C28.9074 54.44 27.8034 53.32 26.6834 52.264C25.5954 51.208 24.3954 50.12 23.0834 49L26.2514 44.68C27.4994 45.608 28.7314 46.568 29.9474 47.56C31.1634 48.552 32.4434 49.608 33.7874 50.728L29.9954 55.624ZM16.7474 33.544C16.3954 31.944 16.0114 30.328 15.5954 28.696C15.1794 27.064 14.7314 25.48 14.2514 23.944L20.1554 22.264C20.6354 23.832 21.0834 25.464 21.4994 27.16C21.9154 28.824 22.2994 30.472 22.6514 32.104L16.7474 33.544ZM34.6994 59.656L29.6114 54.376C30.7634 52.872 31.7394 51.384 32.5394 49.912C33.3714 48.408 34.0594 46.776 34.6034 45.016C35.1794 43.224 35.6274 41.16 35.9474 38.824C36.2674 36.456 36.4914 33.656 36.6194 30.424C36.7794 27.16 36.8594 23.304 36.8594 18.856H43.7714C43.7714 23.688 43.6594 27.944 43.4354 31.624C43.2114 35.304 42.8754 38.536 42.4274 41.32C42.0114 44.104 41.4354 46.584 40.6994 48.76C39.9954 50.904 39.1474 52.856 38.1554 54.616C37.1634 56.376 36.0114 58.056 34.6994 59.656ZM28.8914 36.088L23.2274 34.6C24.0594 32.968 24.8274 31.144 25.5314 29.128C26.2354 27.112 26.8274 25.032 27.3074 22.888L33.4514 23.704C32.9394 25.976 32.2834 28.184 31.4834 30.328C30.7154 32.44 29.8514 34.36 28.8914 36.088ZM46.1234 59.512V36.856H39.2594V30.232H56.5874V36.856H53.1794V59.512H46.1234ZM12.6194 25.576V19.576H19.5794V15.064H26.8274V19.576H35.0354V25.576H12.6194ZM36.9074 25.48L36.8594 18.856C40.1554 18.6 43.3394 18.184 46.4114 17.608C49.4834 17.032 52.1714 16.328 54.4754 15.496L56.3474 22.12C51.1314 23.816 44.6514 24.936 36.9074 25.48ZM70.7954 51.064C74.1874 50.68 77.3234 49.96 80.2034 48.904C83.0834 47.848 85.6594 46.504 87.9314 44.872C90.2354 43.24 92.1874 41.368 93.7874 39.256C95.3874 37.112 96.6194 34.776 97.4834 32.248C98.3474 29.688 98.7794 26.968 98.7794 24.088L102.043 27.736H79.0034V20.776H106.747V24.088C106.747 27.768 106.235 31.224 105.211 34.456C104.187 37.656 102.715 40.6 100.795 43.288C98.8754 45.976 96.5394 48.344 93.7874 50.392C91.0674 52.44 87.9794 54.104 84.5234 55.384C81.0674 56.696 77.2914 57.592 73.1954 58.072L70.7954 51.064ZM63.8834 34.792C66.1234 33.192 68.2194 31.352 70.1714 29.272C72.1554 27.16 73.9154 24.92 75.4514 22.552C76.9874 20.152 78.1874 17.736 79.0514 15.304L86.9234 16.552C85.9634 19.72 84.6514 22.712 82.9874 25.528C81.3234 28.344 79.3234 30.968 76.9874 33.4C74.6834 35.832 72.0114 38.072 68.9714 40.12L63.8834 34.792ZM93.8834 47.992C90.8754 45.624 88.0754 43.512 85.4834 41.656C82.8914 39.8 80.4594 38.168 78.1874 36.76L82.8434 30.76C85.6594 32.488 88.3794 34.296 91.0034 36.184C93.6594 38.072 96.1874 40.008 98.5874 41.992L93.8834 47.992ZM118.459 34.984C121.659 34.504 125.003 33.688 128.491 32.536C132.011 31.352 135.467 29.912 138.859 28.216C142.283 26.52 145.483 24.664 148.459 22.648C151.435 20.6 153.995 18.488 156.139 16.312L161.035 21.88C159.147 23.768 156.955 25.608 154.459 27.4C151.963 29.192 149.275 30.888 146.395 32.488C143.547 34.088 140.603 35.544 137.563 36.856C134.523 38.136 131.483 39.24 128.443 40.168C125.403 41.064 122.475 41.72 119.659 42.136L118.459 34.984ZM137.563 58.696V31.096H145.915V58.696H137.563ZM174.235 50.2C180.603 49.944 185.867 48.824 190.027 46.84C194.187 44.824 197.291 41.912 199.339 38.104C201.387 34.264 202.411 29.48 202.411 23.752L206.299 27.832H172.027V20.488H206.539V23.8H210.379C210.379 30.904 209.051 36.92 206.395 41.848C203.771 46.744 199.883 50.504 194.731 53.128C189.579 55.752 183.211 57.16 175.627 57.352L174.235 50.2ZM209.227 28.024C207.947 28.024 206.763 27.72 205.675 27.112C204.619 26.472 203.771 25.624 203.131 24.568C202.523 23.48 202.219 22.296 202.219 21.016C202.219 19.704 202.523 18.52 203.131 17.464C203.771 16.376 204.619 15.528 205.675 14.92C206.763 14.28 207.947 13.96 209.227 13.96C210.539 13.96 211.723 14.28 212.779 14.92C213.867 15.528 214.715 16.376 215.323 17.464C215.963 18.52 216.283 19.704 216.283 21.016C216.283 22.296 215.963 23.48 215.323 24.568C214.715 25.624 213.867 26.472 212.779 27.112C211.723 27.72 210.539 28.024 209.227 28.024ZM209.227 23.32C209.899 23.32 210.459 23.096 210.907 22.648C211.355 22.168 211.579 21.624 211.579 21.016C211.579 20.344 211.355 19.784 210.907 19.336C210.459 18.888 209.899 18.664 209.227 18.664C208.587 18.664 208.043 18.888 207.595 19.336C207.147 19.784 206.923 20.344 206.923 21.016C206.923 21.656 207.147 22.2 207.595 22.648C208.075 23.096 208.619 23.32 209.227 23.32ZM236.395 55.48C233.899 55.48 231.483 55.224 229.147 54.712C226.843 54.168 224.907 53.448 223.339 52.552L225.163 45.496C226.251 46.072 227.483 46.6 228.859 47.08C230.235 47.56 231.627 47.944 233.035 48.232C234.443 48.488 235.739 48.616 236.923 48.616C238.683 48.616 240.027 48.312 240.955 47.704C241.915 47.096 242.395 46.232 242.395 45.112C242.395 44.536 242.251 44.04 241.963 43.624C241.675 43.176 241.211 42.776 240.571 42.424C239.963 42.072 239.131 41.72 238.075 41.368C237.051 41.016 235.803 40.632 234.331 40.216C232.539 39.736 230.955 39.176 229.579 38.536C228.235 37.864 227.099 37.096 226.171 36.232C225.243 35.368 224.539 34.376 224.059 33.256C223.611 32.136 223.387 30.888 223.387 29.512C223.387 26.28 224.619 23.8 227.083 22.072C229.579 20.344 233.131 19.48 237.739 19.48C240.011 19.48 242.251 19.688 244.459 20.104C246.699 20.488 248.619 21.032 250.219 21.736L248.443 28.792C246.811 28.024 245.051 27.432 243.163 27.016C241.275 26.568 239.435 26.344 237.643 26.344C235.723 26.344 234.283 26.616 233.323 27.16C232.395 27.672 231.931 28.456 231.931 29.512C231.931 30.088 232.059 30.6 232.315 31.048C232.571 31.496 232.987 31.912 233.563 32.296C234.171 32.648 234.955 33 235.915 33.352C236.875 33.704 238.059 34.072 239.467 34.456C241.419 35.032 243.099 35.656 244.507 36.328C245.947 36.968 247.131 37.704 248.059 38.536C249.019 39.368 249.739 40.328 250.219 41.416C250.699 42.504 250.939 43.736 250.939 45.112C250.939 48.44 249.675 51 247.147 52.792C244.619 54.584 241.035 55.48 236.395 55.48ZM261.028 55V19.96H269.38L281.908 41.224H282.004V19.96H290.164V55H281.86L269.284 33.736H269.188V55H261.028ZM313.308 55.48C310.812 55.48 308.396 55.224 306.06 54.712C303.756 54.168 301.82 53.448 300.252 52.552L302.076 45.496C303.164 46.072 304.396 46.6 305.772 47.08C307.148 47.56 308.54 47.944 309.948 48.232C311.356 48.488 312.652 48.616 313.836 48.616C315.596 48.616 316.94 48.312 317.868 47.704C318.828 47.096 319.308 46.232 319.308 45.112C319.308 44.536 319.164 44.04 318.876 43.624C318.588 43.176 318.124 42.776 317.484 42.424C316.876 42.072 316.044 41.72 314.988 41.368C313.964 41.016 312.716 40.632 311.244 40.216C309.452 39.736 307.868 39.176 306.492 38.536C305.148 37.864 304.012 37.096 303.084 36.232C302.156 35.368 301.452 34.376 300.972 33.256C300.524 32.136 300.3 30.888 300.3 29.512C300.3 26.28 301.532 23.8 303.996 22.072C306.492 20.344 310.044 19.48 314.652 19.48C316.924 19.48 319.164 19.688 321.372 20.104C323.612 20.488 325.532 21.032 327.132 21.736L325.356 28.792C323.724 28.024 321.964 27.432 320.076 27.016C318.188 26.568 316.348 26.344 314.556 26.344C312.636 26.344 311.196 26.616 310.236 27.16C309.308 27.672 308.844 28.456 308.844 29.512C308.844 30.088 308.972 30.6 309.228 31.048C309.484 31.496 309.9 31.912 310.476 32.296C311.084 32.648 311.868 33 312.828 33.352C313.788 33.704 314.972 34.072 316.38 34.456C318.332 35.032 320.012 35.656 321.42 36.328C322.86 36.968 324.044 37.704 324.972 38.536C325.932 39.368 326.652 40.328 327.132 41.416C327.612 42.504 327.852 43.736 327.852 45.112C327.852 48.44 326.588 51 324.06 52.792C321.532 54.584 317.948 55.48 313.308 55.48Z" fill="url(#paint0_linear_52_920)"/>
<defs>
<linearGradient id="paint0_linear_52_920" x1="10.5161" y1="47.0286" x2="33.824" y2="-47.2416" gradientUnits="userSpaceOnUse">
<stop stop-color="#FFB2B8"/>
<stop offset="0.14" stop-color="#FF7DB8"/>
<stop offset="0.18" stop-color="#FA75BC"/>
<stop offset="0.24" stop-color="#ED62C7"/>
<stop offset="0.31" stop-color="#D842D9"/>
<stop offset="0.38" stop-color="#BB15F2"/>
<stop offset="0.42" stop-color="#AD00FF"/>
<stop offset="0.51" stop-color="#A711FE"/>
<stop offset="0.59" stop-color="#A41BFE"/>
<stop offset="0.62" stop-color="#9A35FC"/>
<stop offset="0.68" stop-color="#8C5DFB"/>
<stop offset="0.74" stop-color="#817EF9"/>
<stop offset="0.8" stop-color="#7897F8"/>
<stop offset="0.86" stop-color="#71A9F7"/>
<stop offset="0.93" stop-color="#6EB4F7"/>
<stop offset="1" stop-color="#6DB8F7"/>
</linearGradient>
</defs>
</svg>
