<svg width="32" height="33" viewBox="0 0 32 33" fill="none" xmlns="http://www.w3.org/2000/svg">
<path d="M29.3333 16.4998C29.3333 23.8638 23.364 29.8332 16 29.8332C8.63596 29.8332 2.66663 23.8638 2.66663 16.4998C2.66663 9.13584 8.63596 3.1665 16 3.1665" stroke="#1B1B2E" stroke-width="1.2" stroke-linecap="round" stroke-linejoin="round"/>
<path d="M25.3333 6.81451L25.562 7.51851H26.302L25.7033 7.95318L25.932 8.65718L25.3333 8.22251L24.7346 8.65718L24.9633 7.95318L24.3646 7.51851H25.1046L25.3333 6.81451Z" stroke="#1B1B2E" stroke-width="1.2"/>
<path d="M20 13.1665C20 10.9574 18.2091 9.1665 16 9.1665C13.7908 9.1665 12 10.9574 12 13.1665V21.1665C12 23.3756 13.7908 25.1665 16 25.1665C18.2091 25.1665 20 23.3756 20 21.1665V13.1665Z" stroke="#1B1B2E" stroke-width="1.2" stroke-linecap="round" stroke-linejoin="round"/>
<path d="M12 17.1665C10.6666 17.1665 8.66663 18.5785 8.66663 21.1665V27.6892M20 17.1665C21.3333 17.1665 23.3333 18.5785 23.3333 21.1665V27.4998" stroke="#1B1B2E" stroke-width="1.2" stroke-linecap="round" stroke-linejoin="round"/>
</svg>
