<svg width="32" height="34" viewBox="0 0 32 34" fill="none" xmlns="http://www.w3.org/2000/svg">
<path d="M7.745 15.936C7.72656 16.2011 7.71338 16.474 7.71338 16.7468C7.71338 20.4005 9.66088 23.5293 12.4385 24.8599" stroke="black" stroke-width="1.2" stroke-linecap="round" stroke-linejoin="round"/>
<path d="M18.5709 24.7481C21.23 23.3682 23.08 20.3044 23.08 16.7468C23.08 16.5519 23.0747 16.357 23.0615 16.1621C23.0562 16.0192 19.6514 11.9861 16.9001 10.167" stroke="black" stroke-width="1.2" stroke-linecap="round" stroke-linejoin="round"/>
<path d="M22.3552 4.91733C22.2577 5.02128 22.1233 5.10184 21.9626 5.13562C20.9374 5.34092 18.252 7.23535 15.4876 9.38445C11.698 12.3261 7.76348 15.746 7.74767 15.9357C6.9439 15.3328 6.29297 14.5662 5.84497 13.6515C3.9818 9.86 6.31933 4.94852 11.0655 2.68248C15.1845 0.702295 19.9755 1.2688 22.3658 3.93504C22.6372 4.23389 22.6029 4.65747 22.3579 4.91733H22.3552Z" stroke="black" stroke-width="1.2" stroke-linecap="round" stroke-linejoin="round"/>
<path d="M22.4685 4.92285C24.7112 7.13952 25.4122 11.2012 24.279 14.0806C23.9864 14.8212 23.6122 15.5722 23.0641 16.1647" stroke="black" stroke-width="1.2" stroke-linecap="round" stroke-linejoin="round"/>
<path d="M13.1263 15.8345C12.312 16.453 10.9864 16.453 10.1721 15.8345" stroke="black" stroke-width="1.2" stroke-linecap="round" stroke-linejoin="round"/>
<path d="M17.2401 21.1304C16.2202 21.7489 14.5705 21.7489 13.5507 21.1304" stroke="black" stroke-width="1.2" stroke-linecap="round" stroke-linejoin="round"/>
<path d="M11.6505 16.2998V17.0482" stroke="black" stroke-width="1.2" stroke-linecap="round" stroke-linejoin="round"/>
<path d="M10.665 16.1411L10.2828 16.8298" stroke="black" stroke-width="1.2" stroke-linecap="round" stroke-linejoin="round"/>
<path d="M12.6388 16.1411L13.0183 16.8298" stroke="black" stroke-width="1.2" stroke-linecap="round" stroke-linejoin="round"/>
<path d="M20.0177 15.8345C19.2007 16.453 17.8778 16.453 17.0635 15.8345" stroke="black" stroke-width="1.2" stroke-linecap="round" stroke-linejoin="round"/>
<path d="M18.5419 16.2998V17.0482" stroke="black" stroke-width="1.2" stroke-linecap="round" stroke-linejoin="round"/>
<path d="M17.5563 16.1411L17.1742 16.8298" stroke="black" stroke-width="1.2" stroke-linecap="round" stroke-linejoin="round"/>
<path d="M19.5302 16.1411L19.9096 16.8298" stroke="black" stroke-width="1.2" stroke-linecap="round" stroke-linejoin="round"/>
<path d="M2.79858 32.6533C2.98833 32.3622 3.19915 32.1101 3.29666 31.975C3.78156 31.302 4.35342 30.6549 5.1203 30.2937C6.322 29.7246 7.67392 29.9766 8.95204 29.8337C9.83751 29.7298 11.3554 29.6856 11.814 28.7709C12.2277 27.9549 12.378 26.115 12.4359 24.8599" stroke="black" stroke-width="1.2" stroke-linecap="round" stroke-linejoin="round"/>
<path d="M18.5709 24.748L18.5762 24.852C18.6342 26.1123 18.787 27.9548 19.2008 28.7734C19.6619 29.6829 21.1746 29.7271 22.0574 29.831C23.3408 29.974 24.6901 29.7219 25.8945 30.291C26.6587 30.6548 27.2306 31.2967 27.7181 31.9723C27.8156 32.1075 28.0264 32.3621 28.2188 32.6532" stroke="black" stroke-width="1.2" stroke-linecap="round" stroke-linejoin="round"/>
<path d="M29.0436 24.6749L28.0026 26.1484L26.9301 24.6749L28.0026 23.2041L29.0436 24.6749Z" stroke="black" stroke-linecap="round" stroke-linejoin="round"/>
<path d="M26.8484 20.6834L25.8075 22.1543L24.7375 20.6834L25.8075 19.21L26.8484 20.6834Z" stroke="black" stroke-linecap="round" stroke-linejoin="round"/>
<path d="M4.11352 18.1238L3.07257 19.5973L2 18.1238L3.07257 16.6504L4.11352 18.1238Z" stroke="black" stroke-linecap="round" stroke-linejoin="round"/>
</svg>
