<svg width="32" height="33" viewBox="0 0 32 33" fill="none" xmlns="http://www.w3.org/2000/svg">
<path d="M17.9997 6.16667L13.9997 8.83333L9.99975 6.16667M17.9997 6.16667C18.7824 6.84533 20.5731 7.89067 20.6611 9.028C20.7011 9.52 20.4957 9.78933 20.0824 10.328C19.1837 11.5027 18.1597 12.1933 18.1597 14.1667H9.83975C9.83975 12.1947 8.81575 11.5027 7.91708 10.328C7.50508 9.78933 7.29841 9.52133 7.33708 9.028C7.42641 7.89067 9.21841 6.84667 9.99975 6.16667M17.9997 6.16667V3.5M9.99975 6.16667V3.5M24.4837 24.5773C23.5451 20.9907 21.1544 17.7 19.5744 15.816C18.4411 14.464 17.6051 14.1667 15.8277 14.1667H12.1731C10.3944 14.1667 9.55841 14.464 8.42508 15.816C6.84508 17.7 4.45441 20.9893 3.51575 24.5773C2.94241 26.7667 3.72108 27.9653 5.84908 28.74C7.75975 29.436 10.5811 30.1667 13.9997 30.1667C17.4184 30.1667 20.2384 29.436 22.1504 28.74C24.2784 27.9667 25.0571 26.7667 24.4837 24.5773Z" stroke="#1B1B2E" stroke-width="1.2" stroke-linecap="round" stroke-linejoin="round"/>
<path d="M22.8013 14.1565C22.7097 13.9935 22.6491 13.8102 22.6231 13.6173C22.5971 13.4244 22.6062 13.2258 22.6499 13.0331C22.7367 12.6429 22.9579 12.2994 23.2649 12.0781C23.5719 11.8568 23.9396 11.7759 24.2871 11.8532C24.7742 11.9614 25.1334 12.3537 25.2599 12.8468L25.6052 12.9236C25.7697 12.7237 25.9768 12.5732 26.2056 12.4875C26.4343 12.4018 26.6765 12.3839 26.9073 12.4356C27.2548 12.5129 27.5536 12.742 27.738 13.0725C27.9223 13.403 27.9772 13.8079 27.8904 14.1981C27.8004 14.6031 27.5631 14.9427 27.2773 15.1516L24.4814 17.1637L22.8013 14.1565ZM27.4385 15.4453C27.8052 15.1781 28.0871 14.7685 28.1987 14.2666C28.3058 13.7846 28.2381 13.2845 28.0103 12.8762C27.7826 12.4679 27.4135 12.1849 26.9843 12.0895C26.4448 11.9696 25.9016 12.1576 25.5072 12.5494C25.4095 12.283 25.2549 12.0495 25.0561 11.8682C24.8573 11.687 24.62 11.5631 24.3641 11.507C23.9348 11.4116 23.4806 11.5115 23.1014 11.7849C22.7221 12.0582 22.4488 12.4826 22.3417 12.9646C22.2301 13.4665 22.3119 13.9569 22.5309 14.3543L24.3721 17.6553L27.4385 15.4453Z" fill="#1B1B2E" stroke="black" stroke-width="0.4"/>
<path d="M16.6664 20.8333C16.6664 20.8333 19.3331 24.8333 19.3331 29.5M11.3331 20.8333C11.3331 20.8333 8.66644 24.8333 8.66644 29.5" stroke="#1B1B2E" stroke-width="1.2" stroke-linecap="round" stroke-linejoin="round"/>
</svg>
