<?xml version="1.0" encoding="UTF-8"?><svg id="a" xmlns="http://www.w3.org/2000/svg" width="267" height="80" viewBox="0 0 267 80"><rect x="84.332" y="35.894" width="8.212" height="8.212" rx=".903" ry=".903"/><path d="m98.84,24.972h-20.805c-2.554,0-4.625,2.071-4.625,4.625v20.805c0,2.554,2.071,4.625,4.625,4.625h20.805c2.554,0,4.625-2.071,4.625-4.625v-20.805c0-2.554-2.071-4.625-4.625-4.625Zm-.775,22.73c0,1.063-.862,1.925-1.925,1.925h-15.406c-1.063,0-1.925-.862-1.925-1.925v-15.406c0-1.063.862-1.925,1.925-1.925h15.406c1.063,0,1.925.862,1.925,1.925v15.406Z"/><path d="m146.05,35.917v9.134c0,.718.114,1.304.341,1.759.42.84,1.495,1.26,2.642,1.26,1.645,0,3.346-.735,3.942-2.206.324-.788.486-1.869.486-3.243v-6.706h1.783v13.861h-1.802l.026-2.074c-.306.534-1.851,2.309-4.839,2.309-2.004,0-4.587-1.187-4.587-4.738v-9.358h2.009Z"/><path d="m172.702,35.917h1.834v2.229c.954-2.52,4.529-2.979,6.012-1.937l-.683,1.733c-.114-.026-2.775-1.308-4.45,1.103-.529.761-.783,1.648-.783,2.646v8.087h-1.931v-13.861Z"/><path d="m167.728,36.488c-1.013-.661-2.196-.937-3.85-.937-2.872,0-4.904,1.825-4.904,1.825l.95,1.617s1.554-1.604,3.886-1.604c1.068,0,2.034.097,2.608.46.573.363.86.948.86,1.753,0,.394-.404,1.25-1.437,1.492l-3.724.655c-1.322.166-3.759,1.191-3.759,4.237,0,2.867,2.456,3.844,3.758,3.925,1.212.075,2.557.01,3.458-.454.901-.464,1.725-1.524,1.725-1.524v1.72h1.942v-10.372c0-1.33-.612-2.203-1.512-2.79Zm-.429,7.787c0,1.52-.667,2.615-2.002,3.284-.792.403-1.611.604-2.456.604-.694,0-1.295-.206-1.802-.618-.507-.412-.761-.975-.761-1.69,0-.943.369-1.63,1.108-2.061.436-.256,1.09-.444,1.962-.563l1.455-.192c.445-.055.899-.146,1.361-.275.463-.128.841-.289,1.135-.481v1.992Z"/><path d="m138.725,35.917v2.046c-1.116-1.379-2.712-2.357-4.646-2.357-3.889,0-6.412,3.22-6.412,7.169s2.523,7.169,6.412,7.169c1.934,0,3.53-.978,4.646-2.357v7.441h1.767v-19.111h-1.767Zm-4.492,12.156c-2.778,0-4.491-2.396-4.491-5.323s1.713-5.323,4.491-5.323,4.491,2.396,4.492,5.323h0c0,2.928-1.713,5.324-4.492,5.324Z"/><path d="m192.365,43.1h1.222c.002-.118.003-.238.003-.358,0-3.972-1.833-7.192-6.266-7.192-3.902,0-6.266,3.22-6.266,7.192s2.35,7.192,6.266,7.192c3.041,0,4.7-1.035,5.744-2.562l-1.336-1.172c-.925,1.258-2.066,1.962-4.241,1.962-2.753,0-4.36-2.24-4.469-5.062h9.343Zm-4.875-5.675c2.449,0,3.933,1.686,4.352,3.975h-8.704c.418-2.289,1.903-3.975,4.352-3.975Z"/><path d="m123.526,34.634l1.617-1.3s-1.958-2.933-6.442-2.933-6.341,2.45-6.225,5.566c.115,3.064,3.25,4.233,5.816,4.8,2.567.567,5.328,1.361,5.1,4.1-.25,3-5.75,5.2-9.883.367l-1.683,1.167s2.2,4.083,7.75,3.567c5.55-.517,6.116-4.666,5.983-5.983-.133-1.317-.467-3.3-4.516-4.666-4.05-1.367-6.45-1.315-6.45-3.95,0-2.917,5.55-4.616,8.933-.733Z"/></svg>