<svg width="120" height="120" viewBox="0 0 120 120" fill="none" xmlns="http://www.w3.org/2000/svg">
<path d="M119.999 60.0005C119.999 93.1366 93.1366 120 59.9995 120C26.8624 120 0 93.1366 0 60.0005C0 26.8644 26.8624 0 59.9995 0C93.1366 0 119.999 26.8634 119.999 60.0005Z" fill="white"/>
<path d="M59.9995 120C76.4614 120 91.3719 113.366 102.214 102.629C99.4722 99.2413 96.3614 97.4432 93.7094 96.4734C90.3048 95.2275 81.6406 91.0506 81.6406 91.0506L82.6045 89.2889L78.2536 81.7074L74.2713 82.3873V68.5498C77.105 65.5147 78.2536 59.3245 78.2536 59.3245C81.5816 60.3523 87.6313 50.2416 84.2552 46.9196C80.8791 43.5975 77.8321 46.5875 77.8321 46.5875C77.8321 46.5875 77.334 40.6086 75.2352 37.7227C73.1374 34.8379 71.3541 29.647 71.3541 29.647C69.9421 23.5846 68.1813 26.1589 68.1813 26.1589C45.7424 29.481 40.6822 45.9154 40.6822 45.9154C34.3437 44.413 35.23 51.6536 36.8905 55.7224C38.551 59.7912 42.3821 59.3245 42.3821 59.3245L43.8746 64.652L43.568 80.3033C43.568 80.3033 39.5277 93.5699 28.9808 95.8121C22.9891 97.0865 18.9645 99.4427 17.6607 102.511C28.5121 113.319 43.4747 120 59.9985 120H59.9995Z" fill="white"/>
<path d="M69.9136 18.1097H72.7581C72.7581 18.1097 77.4263 19.0166 80.7572 26.1589C84.0881 33.3012 81.3193 45.319 81.3193 45.319L77.8311 46.5884C77.8311 46.5884 77.333 40.9288 75.1193 37.7237C72.9026 34.5196 70.8009 28.8167 70.8009 28.8167L68.1656 26.381C68.1656 26.381 66.0649 31.4441 59.9062 34.5598C53.7474 37.6756 46.9382 40.1104 42.8409 47.5307L40.6822 45.9164L39.7429 45.319C39.7429 45.319 36.7559 37.2324 41.0458 26.7691C45.3327 16.3057 62.7173 9.83943 69.9136 18.1107V18.1097Z" fill="#DFF6F6"/>
<path d="M102.444 102.406L102.214 101.895C102.214 101.895 99.3454 98.1349 95.4378 96.8645C91.5291 95.594 88.9342 95.7316 84.2552 92.2946L83.2019 94.9563L82.3225 115.692C89.9197 112.645 96.7564 108.103 102.445 102.407L102.444 102.406Z" fill="#DFF6F6"/>
<path d="M47.9464 100.151C47.0227 95.0025 40.5299 86.9611 45.7277 82.3873V68.5527L42.5177 60.0005L40.2135 59.3245C40.2135 59.3245 40.8778 62.8647 40.5457 67.0995C40.2135 71.3344 37.5557 75.5702 33.9851 80.0547C31.0521 83.7373 27.902 90.5003 27.9256 97.17C27.8607 96.7338 27.8332 96.4744 27.8332 96.4744C22.5951 96.5706 19.1227 100.09 17.4514 102.3C22.3357 107.213 28.0788 111.26 34.4154 114.253L34.4105 114.274C34.6542 114.39 34.9067 114.495 35.1514 114.607C35.1799 114.619 35.2074 114.634 35.2359 114.647C35.2349 114.646 35.2329 114.644 35.2329 114.643C37.7267 115.773 40.3059 116.747 42.9687 117.533C43.2104 117.225 43.4541 116.894 43.7007 116.51C48.9329 108.371 48.8709 105.299 47.9464 100.15V100.151ZM32.749 110.833C33.873 112.306 34.7318 113.023 34.7318 113.023L34.5608 113.69C33.8947 112.738 33.2914 111.783 32.749 110.833Z" fill="#DFF6F6"/>
<path d="M69.4292 44.9102C69.4292 45.6068 68.8652 46.1728 68.1666 46.1728C67.468 46.1728 66.904 45.6068 66.904 44.9102C66.904 44.2135 67.47 43.6476 68.1666 43.6476C68.8633 43.6476 69.4292 44.2135 69.4292 44.9102Z" fill="#00CBBF"/>
<path d="M59.9995 78.8088C48.6518 78.8088 40.4169 67.6979 40.4169 52.3875C40.4169 51.6535 41.0114 51.0591 41.7454 51.0591C42.4793 51.0591 43.0738 51.6535 43.0738 52.3875C43.0738 66.1572 50.1925 76.1509 59.9995 76.1509C69.8065 76.1509 76.9252 66.1572 76.9252 52.3875C76.9252 51.6535 77.5197 51.0591 78.2536 51.0591C78.9876 51.0591 79.5821 51.6535 79.5821 52.3875C79.5821 67.6979 71.3462 78.8088 59.9995 78.8088Z" fill="#00CBBF"/>
<path d="M74.231 82.7332C73.5265 82.7332 72.9389 82.179 72.9045 81.4666C72.6265 75.5565 73.0578 69.6129 73.0755 69.3643C73.1296 68.6314 73.7633 68.0782 74.4973 68.1371C75.2293 68.1902 75.7795 68.8279 75.7245 69.5589C75.7206 69.6188 75.2873 75.5968 75.5585 81.3418C75.5919 82.0748 75.0269 82.6968 74.2929 82.7312C74.2723 82.7322 74.2497 82.7322 74.2291 82.7322L74.231 82.7332Z" fill="#00CBBF"/>
<path d="M60.4367 58.3488H59.5623C58.8273 58.3488 58.2338 57.7543 58.2338 57.0203C58.2338 56.2863 58.8283 55.6919 59.5623 55.6919H60.4367C61.1707 55.6919 61.7652 56.2863 61.7652 57.0203C61.7652 57.7543 61.1707 58.3488 60.4367 58.3488Z" fill="#00CBBF"/>
<path d="M72.7581 40.7343C72.4467 40.7343 72.1342 40.6253 71.8807 40.4032C69.609 38.4066 66.7154 39.1937 66.5935 39.2281C65.889 39.4256 65.1531 39.0188 64.9516 38.3182C64.7492 37.6167 65.1472 36.8827 65.8477 36.6773C66.0246 36.6243 70.2388 35.4255 73.6346 38.4086C74.1858 38.893 74.2408 39.7321 73.7554 40.2833C73.4931 40.582 73.1266 40.7353 72.7581 40.7353V40.7343Z" fill="#00CBBF"/>
<path d="M50.5698 44.9102C50.5698 45.6068 51.1338 46.1728 51.8324 46.1728C52.531 46.1728 53.095 45.6068 53.095 44.9102C53.095 44.2135 52.5291 43.6476 51.8324 43.6476C51.1358 43.6476 50.5698 44.2135 50.5698 44.9102Z" fill="#00CBBF"/>
<path d="M78.9513 60.6529C78.2595 60.6529 77.6769 60.1184 77.6277 59.4178C77.5757 58.6858 78.1259 58.0511 78.8589 58C80.4752 57.885 81.5335 55.8786 81.9117 55.0208C83.2382 52.023 83.1743 48.4435 82.2311 47.2428C81.4077 46.1954 80.377 46.7781 79.9722 47.0738C79.3875 47.5081 78.5543 47.3863 78.118 46.8036C77.6808 46.22 77.7899 45.3985 78.3686 44.9554C79.7363 43.91 82.4472 43.2192 84.321 45.599C86.1908 47.9758 85.7998 52.8032 84.3426 56.0948C83.1115 58.8764 81.2298 60.4937 79.0456 60.648C79.0141 60.6509 78.9827 60.6519 78.9513 60.6519V60.6529Z" fill="#00CBBF"/>
<path d="M41.0468 60.6529C41.0153 60.6529 40.9829 60.6519 40.9524 60.649C38.7692 60.4947 36.8876 58.8774 35.6554 56.0957C34.1983 52.8041 33.8082 47.9768 35.677 45.6C37.5498 43.2202 40.2627 43.9109 41.6294 44.9564C42.2121 45.4015 42.3231 46.2357 41.877 46.8183C41.4359 47.3981 40.6056 47.513 40.0239 47.0728C39.6181 46.7761 38.5874 46.1954 37.766 47.2428C36.8227 48.4435 36.7588 52.023 38.0853 55.0208C38.4646 55.8786 39.5218 57.884 41.1381 58C41.8711 58.052 42.4214 58.6868 42.3693 59.4178C42.3202 60.1184 41.7375 60.6529 41.0458 60.6529H41.0468Z" fill="#00CBBF"/>
<path d="M59.9995 68.7896C54.7369 68.7896 52.7659 64.3602 52.4583 62.0177C52.4072 61.6384 52.5241 61.2562 52.7757 60.9693C53.0292 60.6814 53.3917 60.5164 53.7749 60.5164H66.2241C66.6063 60.5164 66.9698 60.6814 67.2233 60.9693C67.4749 61.2562 67.5918 61.6384 67.5417 62.0177C67.2342 64.3602 65.2631 68.7896 60.0005 68.7896H59.9995ZM55.5288 63.1732C56.0889 64.4761 57.3269 66.1317 59.9985 66.1317C62.6701 66.1317 63.9013 64.4692 64.4653 63.1732H55.5288Z" fill="#00CBBF"/>
<path d="M77.8302 49.775C77.1325 49.775 76.5469 49.2316 76.5057 48.5251C76.1451 42.503 75.0131 39.7174 72.7709 36.0917C70.8687 33.0124 69.5992 29.4063 69.5461 29.255C69.3044 28.5623 69.6699 27.8047 70.3626 27.562C71.0603 27.3233 71.8149 27.6868 72.0556 28.3786C72.0674 28.4139 73.2858 31.8706 75.0308 34.6955C77.4597 38.6218 78.7656 41.8152 79.1566 48.3679C79.2008 49.0999 78.6427 49.7288 77.9097 49.773C77.8822 49.774 77.8567 49.7759 77.8292 49.7759L77.8302 49.775Z" fill="#00CBBF"/>
<path d="M42.8399 49.1333C42.6405 49.1333 42.4381 49.0881 42.2455 48.9928C41.5901 48.6637 41.3238 47.8648 41.652 47.2085C45.2354 40.0564 50.6533 37.5273 55.4335 35.2958C57.154 34.4911 58.7801 33.7326 60.2903 32.7942C65.3407 29.6569 66.9089 25.7237 66.9246 25.6834C67.188 25.0005 67.9554 24.6556 68.6392 24.9199C69.3221 25.1803 69.667 25.9428 69.4086 26.6267C69.3359 26.8202 67.5545 31.4098 61.6915 35.0522C60.0476 36.0731 58.2731 36.9023 56.5566 37.7031C51.9552 39.852 47.1976 42.0736 44.0288 48.4003C43.795 48.8651 43.3273 49.1333 42.839 49.1333H42.8399Z" fill="#00CBBF"/>
<path d="M81.4323 45.4251C81.3595 45.4251 81.2839 45.4183 81.2102 45.4075C80.486 45.2856 79.9987 44.6008 80.1205 43.8766C82.0916 32.1791 80.5283 24.6203 75.3403 20.7725C74.7508 20.3353 74.628 19.503 75.0652 18.9145C75.5034 18.3249 76.3357 18.2031 76.9232 18.6394C85.9403 25.3287 83.533 39.6211 82.741 44.3178C82.632 44.9663 82.069 45.4261 81.4323 45.4261V45.4251Z" fill="#00CBBF"/>
<path d="M43.6997 117.839C43.4737 117.839 43.2467 117.782 43.0365 117.662C42.4017 117.296 42.1826 116.482 42.5501 115.846C45.3013 111.074 46.6533 107.104 46.8036 103.347C46.8321 102.614 47.4511 101.993 48.1841 102.073C48.9171 102.102 49.488 102.721 49.4585 103.454C49.2905 107.655 47.8275 112.015 44.8522 117.174C44.6056 117.6 44.1595 117.838 43.6997 117.838V117.839Z" fill="#00CBBF"/>
<path d="M47.5985 99.7621C47.007 99.7621 46.4686 99.3651 46.3123 98.7658C45.9399 97.3204 45.2669 95.8721 44.5526 94.3373C43.0306 91.0664 41.3062 87.3591 42.7849 83.3335C43.0365 82.6458 43.7999 82.292 44.4897 82.5445C45.1785 82.7981 45.5312 83.5605 45.2787 84.2493C44.1811 87.2393 45.5312 90.1427 46.9618 93.2172C47.6948 94.7923 48.4514 96.4213 48.8857 98.1015C49.0684 98.8129 48.641 99.5371 47.9306 99.7208C47.8196 99.7493 47.7076 99.7621 47.5975 99.7621H47.5985Z" fill="#00CBBF"/>
<path d="M34.7318 114.352C34.3899 114.352 34.047 114.222 33.7876 113.958C23.7988 103.852 24.1839 88.9735 34.7456 76.9371C39.1976 71.8641 39.3528 64.9822 39.3548 64.9134C39.3666 64.1873 39.9581 63.6056 40.6832 63.6056H40.7038C41.4368 63.6174 42.0234 64.2207 42.0116 64.9547C42.0067 65.275 41.8328 72.8889 36.7431 78.688C27.0078 89.7832 26.5893 102.895 35.676 112.088C36.1929 112.61 36.187 113.452 35.6652 113.967C35.4058 114.225 35.0678 114.351 34.7308 114.351L34.7318 114.352Z" fill="#00CBBF"/>
<path d="M39.4638 43.9306C38.8782 43.9306 38.3427 43.5415 38.1816 42.9481C36.7127 37.5096 38.0028 31.8244 39.343 28.0121C39.5857 27.3193 40.3462 26.9529 41.0379 27.1995C41.7296 27.4432 42.0942 28.2007 41.8505 28.8944C40.131 33.7797 39.7409 38.5245 40.749 42.2554C40.9397 42.9638 40.5211 43.6929 39.8117 43.8854C39.6967 43.9169 39.5798 43.9306 39.4638 43.9306Z" fill="#00CBBF"/>
<path d="M43.2752 24.5268C43.0119 24.5268 42.7466 24.4492 42.5147 24.2871C41.9144 23.8665 41.767 23.0392 42.1875 22.4369C45.3897 17.8562 53.2178 13.017 60.7738 12.848C65.1236 12.7517 68.6549 14.2894 70.9669 17.301C71.415 17.8837 71.304 18.7179 70.7233 19.164C70.1406 19.613 69.3074 19.5 68.8603 18.9203C67.0593 16.5739 64.3277 15.4066 60.8337 15.5039C54.2092 15.6523 47.1279 20.009 44.3649 23.9599C44.1065 24.3293 43.6938 24.5268 43.2752 24.5268Z" fill="#00CBBF"/>
<path d="M60.139 109.828C60.0663 109.828 59.9926 109.822 59.917 109.81C59.1938 109.688 58.7055 109.003 58.8273 108.279L60.309 99.4791C60.4299 98.7559 61.099 98.2764 61.8399 98.3894C62.563 98.5112 63.0523 99.1961 62.9295 99.9202L61.4478 108.72C61.3387 109.369 60.7757 109.828 60.1381 109.828H60.139Z" fill="#00CBBF"/>
<path d="M62.3793 96.5166C61.719 96.5166 61.1472 96.0254 61.0627 95.3523C59.9209 86.2331 66.1877 83.9309 71.2234 82.0817C72.7994 81.503 74.29 80.9557 75.5889 80.2453C76.2276 79.8906 77.0392 80.1284 77.391 80.773C77.7437 81.4165 77.5079 82.2232 76.8623 82.575C75.3914 83.3807 73.7378 83.9879 72.1381 84.5745C66.9325 86.4876 62.8195 87.9978 63.6989 95.0212C63.7893 95.7493 63.2734 96.4135 62.5453 96.5039C62.4893 96.5107 62.4343 96.5147 62.3793 96.5147V96.5166Z" fill="#00CBBF"/>
<path d="M101.75 103.224C101.324 103.224 100.905 103.02 100.648 102.64C98.413 99.3386 95.5125 98.5584 92.156 97.6535C90.7755 97.2811 89.3468 96.8969 87.8848 96.3172C85.278 95.2845 83.0476 93.8234 81.2564 91.9772C80.7454 91.4505 80.7582 90.6094 81.2849 90.0985C81.8115 89.5876 82.6526 89.5994 83.1635 90.127C84.6905 91.7021 86.6084 92.9548 88.8624 93.847C90.185 94.3707 91.538 94.7362 92.8467 95.087C96.3919 96.0421 100.057 97.0305 102.848 101.15C103.26 101.758 103.101 102.584 102.493 102.996C102.265 103.15 102.006 103.224 101.749 103.224H101.75Z" fill="#00CBBF"/>
<path d="M71.5064 98.9052C71.4258 98.9052 71.3472 98.9013 71.2705 98.8944C70.5759 98.8286 70.007 98.4896 69.668 97.9393C67.9544 95.1498 66.8578 89.5119 66.8107 89.2731C66.6731 88.5529 67.1438 87.8562 67.8659 87.7187C68.5813 87.5733 69.2818 88.0518 69.4213 88.772C69.6935 90.1898 70.6191 94.1437 71.749 96.2287C73.0559 95.9791 77.0392 93.4411 80.6197 89.6946L76.9665 82.0964C76.6491 81.4352 76.9282 80.6403 77.5884 80.3229C78.2517 80.0016 79.0446 80.2856 79.362 80.9449L83.4082 89.3605C83.643 89.8489 83.5575 90.4296 83.194 90.8295C80.1785 94.1515 74.4767 98.9052 71.5064 98.9052Z" fill="#00CBBF"/>
<path d="M45.768 82.7332C45.7474 82.7332 45.7248 82.7332 45.7041 82.7322C44.9711 82.6968 44.4052 82.0758 44.4386 81.3428C44.7098 75.5909 44.2765 69.6198 44.2725 69.5599C44.2185 68.8279 44.7677 68.1911 45.4998 68.1381C46.2043 68.0801 46.8675 68.6323 46.9215 69.3653C46.9392 69.6149 47.3706 75.5575 47.0925 81.4676C47.0591 82.18 46.4715 82.7341 45.766 82.7341L45.768 82.7332Z" fill="#00CBBF"/>
<path d="M59.9848 110.566C59.3481 110.566 58.786 110.108 58.676 109.458L55.0896 88.1855L45.2895 83.59C44.6253 83.2785 44.3393 82.4866 44.6508 81.8224C44.9623 81.1591 45.7483 80.8702 46.4185 81.1837L56.8494 86.0759C57.2434 86.2616 57.5224 86.6271 57.5952 87.0585L61.2975 109.017C61.4193 109.74 60.932 110.426 60.2078 110.548C60.1341 110.56 60.0585 110.566 59.9857 110.566H59.9848Z" fill="#00CBBF"/>
<path d="M18.2492 103.224C17.9918 103.224 17.7344 103.15 17.5054 102.996C16.8972 102.584 16.739 101.758 17.1497 101.15C19.4853 97.7026 22.4684 96.44 25.3453 95.59C26.0567 95.3808 26.7868 95.7846 26.996 96.4881C27.2034 97.1916 26.8025 97.9305 26.098 98.1388C23.2436 98.9819 21.1193 100.03 19.3507 102.64C19.0933 103.02 18.6747 103.224 18.2492 103.224Z" fill="#00CBBF"/>
<path d="M49.1972 98.5731C48.9594 98.5731 48.7196 98.5092 48.5035 98.3756C47.8776 97.9914 47.682 97.1739 48.0672 96.549C49.2817 94.5731 50.2917 90.2645 50.5777 88.773C50.7162 88.0527 51.4079 87.5841 52.1331 87.7177C52.8543 87.8562 53.3249 88.5529 53.1884 89.2731C53.1412 89.5119 52.0456 95.1498 50.3301 97.9393C50.0795 98.3481 49.6442 98.5721 49.1972 98.5721V98.5731Z" fill="#00CBBF"/>
<path d="M82.009 116.195C81.9648 116.195 81.9206 116.192 81.8754 116.188C81.1463 116.115 80.6128 115.463 80.6855 114.733C81.4421 107.157 81.8685 95.031 81.8744 94.9092C81.9 94.1762 82.4767 93.5621 83.248 93.6289C83.981 93.6535 84.5549 94.2685 84.5283 95.0035C84.5244 95.1253 84.094 107.337 83.3296 114.999C83.2608 115.684 82.6831 116.196 82.009 116.196V116.195Z" fill="#00CBBF"/>
</svg>
