<svg width="120" height="120" viewBox="0 0 120 120" fill="none" xmlns="http://www.w3.org/2000/svg">
<g clip-path="url(#clip0_22_195)">
<path d="M119.999 60.0005C119.999 93.1366 93.1366 120 59.9995 120C26.8624 120 0 93.1366 0 60.0005C0 26.8644 26.8624 0 59.9995 0C93.1366 0 119.999 26.8634 119.999 60.0005Z" fill="white"/>
<path d="M100.273 96.3024C96.7023 93.9777 82.9916 96.0529 78.5533 91.0703C74.1141 86.0877 73.0067 77.9579 74.3077 68.4879L77.616 59.3245C77.616 59.3245 82.5848 59.7627 83.8297 54.3655C85.0756 48.9673 83.6263 43.4649 78.9532 46.1335C78.9532 46.1335 79.3168 33.8799 68.7846 26.1019L59.6615 31.3017L60.0663 25.8818L48.0377 32.8571L47.5445 30.6984C47.5445 30.6984 42.557 36.5113 40.6469 45.8122C40.6469 45.8122 36.4867 43.3204 35.7429 50.1306C34.9991 56.9398 39.4648 59.0523 42.3801 59.3255C42.3801 59.3255 43.5936 65.7436 46.1482 69.8124C46.1482 69.8124 47.29 83.6804 42.8055 89.1621C38.3211 94.6429 30.7642 94.4768 28.0238 94.7264C25.5065 94.9544 19.9825 94.8502 15.4312 100.166C26.4124 112.344 42.3103 120.002 59.9985 120.002C77.6867 120.002 93.5404 112.367 104.52 100.221C103.622 99.0841 102.205 97.5641 100.273 96.3044V96.3024Z" fill="white"/>
<path d="M68.7856 26.1019C68.7856 26.1019 65.1668 29.2471 59.6625 31.3016C59.6625 31.3016 59.0002 28.4836 60.0673 25.8818L47.9012 32.803L47.5455 30.6983C47.5455 30.6983 42.4184 37.0653 40.7019 46.0342L38.7092 45.1479C38.7092 45.1479 36.1074 36.8983 37.0487 33.6883C37.991 30.4782 40.2047 27.1001 40.2047 27.1001L36.356 25.8818C36.356 25.8818 39.7065 21.0652 44.5231 19.7918L42.0893 16.7468C42.0893 16.7468 57.8103 9.8266 67.8876 14.8092C67.8876 14.8092 76.4123 16.3587 80.7307 24.7184C85.0491 33.0791 82.347 45.7414 82.347 45.7414L79.137 46.0332C79.137 46.0332 78.9316 32.1898 68.7866 26.1009L68.7856 26.1019Z" fill="#DFF6F6"/>
<path d="M104.558 100.176L103.351 99.4584C103.351 99.4584 102.267 97.0501 98.2803 95.6382C94.2941 94.2262 83.924 95.5557 80.8466 92.3997C80.8466 92.3997 80.8191 105.58 78.7125 117.008C88.7573 113.714 97.6348 107.849 104.559 100.176H104.558Z" fill="#DFF6F6"/>
<path d="M15.2023 99.8986C22.207 107.758 31.2466 113.759 41.4978 117.08C39.4943 104.76 39.1534 92.3997 39.1534 92.3997C39.1534 92.3997 35.1671 94.4758 29.5203 94.7244C23.8734 94.974 18.8908 96.551 18.8908 96.551L15.2033 99.8976L15.2023 99.8986Z" fill="#DFF6F6"/>
<path d="M59.9995 69.8172C54.7133 69.8172 52.7511 64.418 52.4524 61.5637C52.4121 61.1883 52.534 60.8149 52.7855 60.5359C53.037 60.2559 53.3967 60.0957 53.773 60.0957H66.2241C66.6004 60.0957 66.96 60.2549 67.2116 60.5359C67.4631 60.8149 67.5849 61.1883 67.5446 61.5637C67.2459 64.418 65.2847 69.8172 59.9975 69.8172H59.9995ZM55.3952 62.7526C55.8835 64.4956 57.1029 67.1594 59.9985 67.1594C62.8942 67.1594 64.1145 64.4956 64.6019 62.7526H55.3942H55.3952Z" fill="#00CBBF"/>
<path d="M59.9995 78.8088C48.6518 78.8088 40.4169 67.6979 40.4169 52.3875C40.4169 51.6535 41.0114 51.0591 41.7454 51.0591C42.4793 51.0591 43.0738 51.6535 43.0738 52.3875C43.0738 66.1572 50.1925 76.1509 59.9995 76.1509C69.8065 76.1509 76.9252 66.1572 76.9252 52.3875C76.9252 51.6535 77.5197 51.0591 78.2536 51.0591C78.9876 51.0591 79.5821 51.6535 79.5821 52.3875C79.5821 67.6979 71.3462 78.8088 59.9995 78.8088Z" fill="#00CBBF"/>
<path d="M16.6467 100.455C16.3715 100.455 16.0925 100.369 15.8547 100.192C15.2652 99.7542 15.1433 98.9219 15.5806 98.3334C18.9311 93.8293 24.3461 93.4638 29.5812 93.1091C32.6478 92.9027 35.5444 92.7072 37.9183 91.7128C38.5943 91.4308 39.3715 91.7492 39.6574 92.4262C39.9404 93.1022 39.6211 93.8804 38.9441 94.1653C36.1644 95.3297 32.9091 95.5488 29.761 95.761C24.912 96.0882 20.3333 96.3977 17.7147 99.9182C17.4543 100.269 17.0525 100.455 16.6467 100.455Z" fill="#00CBBF"/>
<path d="M42.6071 91.2067C42.3123 91.2067 42.0156 91.1095 41.769 90.908C41.201 90.4433 41.1146 89.6061 41.5783 89.0382C45.5774 84.1362 45.3475 76.1568 44.8257 70.5817C44.7579 69.8506 45.2954 69.2031 46.0264 69.1353C46.7466 69.0783 47.404 69.604 47.4728 70.335C48.0358 76.3749 48.2529 85.0588 43.6388 90.7174C43.3754 91.0397 42.9922 91.2067 42.6071 91.2067Z" fill="#00CBBF"/>
<path d="M60.4358 58.3488H59.5633C58.8293 58.3488 58.2348 57.7543 58.2348 57.0203C58.2348 56.2863 58.8293 55.6919 59.5633 55.6919H60.4358C61.1697 55.6919 61.7642 56.2863 61.7642 57.0203C61.7642 57.7543 61.1697 58.3488 60.4358 58.3488Z" fill="#00CBBF"/>
<path d="M72.7572 40.7344C72.4447 40.7344 72.1313 40.6253 71.8797 40.4033C69.61 38.4047 66.7144 39.1927 66.5935 39.2281C65.89 39.4227 65.1541 39.0198 64.9516 38.3183C64.7492 37.6167 65.1472 36.8827 65.8487 36.6764C66.0266 36.6243 70.2457 35.4266 73.6336 38.4077C74.1848 38.8931 74.2379 39.7322 73.7545 40.2824C73.4911 40.5811 73.1256 40.7344 72.7562 40.7344H72.7572Z" fill="#00CBBF"/>
<path d="M47.2418 40.7344C46.8734 40.7344 46.5079 40.5811 46.2436 40.2824C45.7592 39.7322 45.8132 38.8931 46.3644 38.4077C49.7533 35.4256 53.9705 36.6233 54.1503 36.6764C54.8538 36.8837 55.2557 37.6226 55.0484 38.3271C54.843 39.0267 54.1129 39.4295 53.4055 39.2271C53.2768 39.1898 50.3861 38.4067 48.1193 40.4023C47.8677 40.6243 47.5553 40.7334 47.2418 40.7334V40.7344Z" fill="#00CBBF"/>
<path d="M78.9532 60.6529C78.2615 60.6529 77.6788 60.1184 77.6297 59.4178C77.5776 58.6858 78.1279 58.0511 78.8609 57.999C80.4762 57.883 81.5335 55.8786 81.9127 55.0228C83.2402 52.025 83.1763 48.4425 82.233 47.2428C81.3468 46.1139 80.2011 46.8979 79.983 47.0679C79.4003 47.512 78.5671 47.403 78.12 46.8184C77.6749 46.2347 77.7869 45.4015 78.3696 44.9554C79.7383 43.9109 82.4502 43.2192 84.323 45.6C86.1928 47.9788 85.8007 52.8051 84.3436 56.0987C83.1124 58.8784 81.2318 60.4947 79.0485 60.649C79.0171 60.6519 78.9847 60.6529 78.9542 60.6529H78.9532Z" fill="#00CBBF"/>
<path d="M41.0458 60.6529C41.0143 60.6529 40.9819 60.6519 40.9515 60.649C38.7672 60.4947 36.8876 58.8774 35.6564 56.0987C34.1992 52.8051 33.8072 47.9788 35.677 45.6C37.5508 43.2192 40.2617 43.9109 41.6304 44.9554C42.2131 45.4015 42.3241 46.2347 41.88 46.8184C41.4359 47.4 40.6066 47.5111 40.0259 47.0738C39.6201 46.7751 38.5864 46.2003 37.767 47.2428C36.8237 48.4435 36.7598 52.026 38.0873 55.0228C38.4665 55.8786 39.5238 57.884 41.1391 57.999C41.8721 58.0511 42.4224 58.6858 42.3703 59.4178C42.3212 60.1184 41.7385 60.6529 41.0468 60.6529H41.0458Z" fill="#00CBBF"/>
<path d="M51.2134 52.2274C47.908 52.2274 45.2197 49.713 45.2197 46.6219V45.8535C45.2197 45.1195 45.8142 44.5251 46.5482 44.5251C47.2821 44.5251 47.8766 45.1195 47.8766 45.8535V46.6219C47.8766 48.248 49.373 49.5696 51.2124 49.5696C53.0518 49.5696 54.5482 48.247 54.5482 46.6219V45.148C54.5482 44.414 55.1427 43.8196 55.8767 43.8196C56.6106 43.8196 57.2051 44.414 57.2051 45.148V46.6219C57.2051 49.713 54.5168 52.2274 51.2114 52.2274H51.2134Z" fill="#00CBBF"/>
<path d="M68.7856 52.2274C65.4803 52.2274 62.792 49.713 62.792 46.6219V45.148C62.792 44.414 63.3864 43.8196 64.1204 43.8196C64.8544 43.8196 65.4488 44.414 65.4488 45.148V46.6219C65.4488 48.248 66.9453 49.5696 68.7846 49.5696C70.624 49.5696 72.1205 48.247 72.1205 46.6219V45.8535C72.1205 45.1195 72.7149 44.5251 73.4489 44.5251C74.1829 44.5251 74.7773 45.1195 74.7773 45.8535V46.6219C74.7773 49.713 72.089 52.2274 68.7837 52.2274H68.7856Z" fill="#00CBBF"/>
<path d="M62.5709 47.462H57.0901C56.3561 47.462 55.7617 46.8676 55.7617 46.1336C55.7617 45.3996 56.3561 44.8052 57.0901 44.8052H62.5709C63.3049 44.8052 63.8993 45.3996 63.8993 46.1336C63.8993 46.8676 63.3049 47.462 62.5709 47.462Z" fill="#00CBBF"/>
<path d="M78.9532 46.4764C78.2605 46.4764 77.6769 45.939 77.6287 45.2384C76.77 32.7126 68.8593 27.7094 68.5223 27.503C67.8994 27.1189 67.7009 26.3033 68.0821 25.6774C68.4653 25.0515 69.2759 24.855 69.9038 25.2323C70.288 25.4662 79.3227 31.0983 80.2807 45.0566C80.3298 45.7886 79.7776 46.4234 79.0456 46.4735C79.0142 46.4745 78.9837 46.4764 78.9532 46.4764Z" fill="#00CBBF"/>
<path d="M59.5633 32.6301C59.3373 32.6301 59.1142 32.5731 58.9128 32.4601C58.5807 32.2744 58.3449 31.9541 58.2643 31.5817C58.224 31.3979 57.324 27.0039 60.4289 21.9407C60.8131 21.3138 61.6316 21.1203 62.2555 21.5025C62.8814 21.8867 63.0779 22.7042 62.6937 23.3291C61.1973 25.7688 60.8229 27.9717 60.7708 29.3915C64.7856 27.6092 68.3405 24.7676 68.3808 24.7342C68.9517 24.2724 69.7898 24.3657 70.2497 24.9366C70.7085 25.5084 70.6191 26.3446 70.0473 26.8054C69.8458 26.9675 65.0637 30.7878 60.0015 32.5564C59.859 32.6055 59.7106 32.6301 59.5633 32.6301Z" fill="#00CBBF"/>
<path d="M47.9552 34.1855C47.7695 34.1855 47.5828 34.1472 47.4099 34.0686C47.063 33.9133 46.7997 33.6156 46.6867 33.2521C46.6651 33.1823 46.1483 31.4972 46.2239 28.8325C46.2445 28.0995 46.8302 27.5424 47.5907 27.5414C48.3237 27.562 48.9024 28.1752 48.8818 28.9081C48.8601 29.6883 48.8965 30.3623 48.9535 30.9077C53.8712 28.4267 58.5856 24.8619 58.6377 24.8236C59.2203 24.3785 60.0555 24.4915 60.4987 25.0781C60.9438 25.6617 60.8298 26.495 60.2442 26.9391C60.0005 27.1248 54.2004 31.512 48.4995 34.0696C48.3266 34.1472 48.1409 34.1865 47.9562 34.1865L47.9552 34.1855Z" fill="#00CBBF"/>
<path d="M41.0458 46.8086C40.9701 46.8086 40.8935 46.8017 40.8178 46.789C40.0947 46.6632 39.6102 45.9754 39.736 45.2522C41.2089 36.755 44.9161 31.5474 45.0733 31.3312C45.5027 30.7367 46.329 30.6021 46.9264 31.0315C47.5209 31.458 47.6555 32.2882 47.2291 32.8846C47.1937 32.9338 43.7174 37.8496 42.3555 45.7071C42.2435 46.3537 41.6825 46.8086 41.0477 46.8086H41.0458Z" fill="#00CBBF"/>
<path d="M83.1449 42.6325C83.1174 42.6325 83.0908 42.6315 83.0633 42.6296C82.3313 42.5854 81.7732 41.9565 81.8174 41.2225C82.4698 30.4045 78.0385 18.3759 66.6643 15.8919C65.948 15.7367 65.494 15.0273 65.6512 14.31C65.8055 13.5947 66.5051 13.1437 67.2332 13.297C80.1412 16.117 85.1916 29.4347 84.4704 41.3847C84.4271 42.0892 83.8425 42.6325 83.1459 42.6325H83.1449Z" fill="#00CBBF"/>
<path d="M38.3938 44.8158C37.8112 44.8158 37.2766 44.4287 37.1145 43.8401C35.7438 38.8624 34.6257 33.191 38.0666 27.9471L35.8765 27.2701C35.4648 27.1443 35.1405 26.826 35.0069 26.4172C34.8723 26.0085 34.9431 25.5594 35.1975 25.2126C37.4614 22.1362 39.7252 20.1209 42.0578 19.1128L40.7962 17.8286C40.472 17.4975 40.3423 17.02 40.4572 16.5719C40.5712 16.1219 40.9112 15.7652 41.3553 15.6286C42.4145 15.3044 43.4924 14.9516 44.586 14.593C50.1159 12.7831 55.8295 10.9084 61.5854 11.6394C62.3135 11.7318 62.8283 12.397 62.736 13.1251C62.6436 13.8531 61.9794 14.3601 61.2503 14.2756C56.0938 13.6173 50.6631 15.3997 45.4123 17.1172C45.0085 17.2499 44.6076 17.3806 44.2087 17.5103L45.5066 18.8298C45.8554 19.1865 45.9763 19.7092 45.8181 20.1828C45.6599 20.6564 45.2482 21.0013 44.755 21.076C42.7299 21.3796 40.6331 22.7994 38.5088 25.302L40.6567 25.9662C41.0831 26.0989 41.4162 26.4369 41.54 26.8663C41.6628 27.2956 41.5636 27.7594 41.2727 28.0984C37.6589 32.3185 37.9821 36.9788 39.6751 43.1317C39.8696 43.8401 39.454 44.5711 38.7476 44.7657C38.6296 44.7981 38.5098 44.8138 38.3928 44.8138L38.3938 44.8158Z" fill="#00CBBF"/>
<path d="M41.0428 116.566C40.4061 116.566 39.8421 116.107 39.7341 115.458C37.8937 104.515 37.8239 93.5945 37.8239 93.4855C37.82 92.7515 38.4135 92.1541 39.1465 92.1501H39.1534C39.8834 92.1501 40.4779 92.7407 40.4818 93.4727C40.4818 93.5808 40.5515 104.295 42.3555 115.016C42.4774 115.741 41.99 116.425 41.2659 116.547C41.1902 116.559 41.1165 116.565 41.0438 116.565L41.0428 116.566Z" fill="#00CBBF"/>
<path d="M103.352 100.455C102.947 100.455 102.546 100.269 102.284 99.9183C99.6461 96.3712 95.1381 96.0696 90.3677 95.7502C86.4158 95.4849 82.3283 95.2128 78.9896 93.0678C78.3715 92.6709 78.1927 91.8484 78.5887 91.2314C78.9847 90.6124 79.8071 90.4326 80.4251 90.8305C83.1891 92.606 86.7627 92.8458 90.5466 93.0973C95.7099 93.4441 101.048 93.8008 104.418 98.3314C104.856 98.92 104.734 99.7522 104.144 100.19C103.907 100.367 103.627 100.453 103.352 100.453V100.455Z" fill="#00CBBF"/>
<path d="M75.865 88.8291C75.3728 88.8291 74.9011 88.5549 74.6702 88.0853C72.5233 83.702 71.8218 77.897 72.5263 70.3362C72.596 69.6042 73.2563 69.0785 73.9726 69.1364C74.7026 69.2052 75.2401 69.8527 75.1733 70.5828C74.514 77.6425 75.1301 82.9848 77.0569 86.915C77.3792 87.5743 77.106 88.3712 76.4487 88.6945C76.261 88.7868 76.0606 88.8291 75.865 88.8291Z" fill="#00CBBF"/>
<path d="M78.9552 116.566C78.8825 116.566 78.8088 116.559 78.7331 116.548C78.009 116.426 77.5216 115.742 77.6435 115.017C79.4485 104.287 79.5172 93.5817 79.5172 93.4737C79.5212 92.7416 80.1156 92.1511 80.8457 92.1511H80.8525C81.5855 92.1551 82.179 92.7515 82.1751 93.4864C82.1751 93.5955 82.1053 104.516 80.265 115.459C80.1559 116.107 79.5929 116.567 78.9562 116.567L78.9552 116.566Z" fill="#00CBBF"/>
<path d="M59.9995 94.3098C49.7386 94.3098 44.0289 90.4168 43.7921 90.2508C43.1897 89.8312 43.0404 89.0039 43.4609 88.4016C43.8805 87.8012 44.7039 87.6499 45.3072 88.0685C45.3592 88.1048 50.6297 91.6519 59.9995 91.6519C69.3693 91.6519 74.0031 88.7406 74.0483 88.7101C74.6633 88.3171 75.4848 88.49 75.8847 89.1021C76.2826 89.7163 76.1126 90.5347 75.5015 90.9356C75.2912 91.0732 70.2408 94.3098 59.9995 94.3098Z" fill="#00CBBF"/>
</g>
<defs>
<clipPath id="clip0_22_195">
<rect width="119.999" height="120" fill="white"/>
</clipPath>
</defs>
</svg>
