<svg width="120" height="120" viewBox="0 0 120 120" fill="none" xmlns="http://www.w3.org/2000/svg">
<path d="M119.999 60.0005C119.999 93.1366 93.1366 120 59.9995 120C26.8624 120 0 93.1366 0 60.0005C0 26.8644 26.8624 0 59.9995 0C93.1366 0 119.999 26.8634 119.999 60.0005Z" fill="white"/>
<path d="M59.9995 120C75.8179 120 90.1977 113.869 100.917 103.864C99.2482 98.8766 94.0317 95.53 88.7534 93.9225C82.9375 92.15 83.8307 88.0546 81.6042 84.9537C79.3777 81.8527 74.5464 79.1968 74.5464 79.1968V68.0673L76.5744 63.9012C76.5744 63.9012 78.7361 66.7958 81.6406 64.3335C84.544 61.8732 80.7553 58.6719 80.7553 58.6719C80.7553 58.6719 85.1591 54.948 84.2552 49.1902C83.3512 43.4313 78.8589 45.3179 78.8589 45.3179C78.8589 45.3179 76.8555 33.2451 73.3133 29.415C69.7692 25.585 67.0023 18.6294 55.2242 25.753C43.4462 32.8795 41.313 39.4451 40.7598 50.9647C40.2057 62.4833 45.8584 68.7668 45.8584 68.7668L45.8496 78.6574C39.3125 81.554 38.5442 89.6032 36.1103 91.9289C33.6736 94.2537 29.931 94.8923 24.5937 97.2436C21.3001 98.6959 19.7123 101.685 18.9773 103.763C29.7079 113.826 44.1291 120 60.0015 120H59.9995Z" fill="white"/>
<path d="M18.8859 103.678C29.6264 113.791 44.0829 120 59.9995 120C75.9161 120 90.4483 113.758 101.198 103.597L100.094 101.48L98.4955 99.5097C99.4761 94.192 97.5395 92.2269 96.3417 90.2687C95.1243 88.276 96.7859 85.286 94.9042 81.964C93.0216 78.6419 91.027 77.6456 88.7534 74.7677C86.4797 71.8887 87.4839 69.341 86.2675 66.24C85.0491 63.14 82.632 61.4234 82.632 61.4234C81.7663 67.7895 76.5744 63.3876 76.5744 63.3876L74.1416 68.772L74.511 80.6061V80.613L74.5464 81.7429C74.5592 81.7439 74.571 81.7498 74.5838 81.7508L74.9512 87.4448C74.9512 87.4448 70.174 94.4436 59.5632 94.4436C48.9525 94.4436 45.0478 87.5253 45.0478 87.5253L45.8574 81.2998V81.2968L46.1492 79.0576L45.8574 79.1745V68.7681C41.766 62.8796 41.7011 52.3877 41.7011 52.3877C41.7591 47.5034 42.5304 41.9931 42.5304 41.9931C47.403 38.1169 48.5084 31.0297 54.3782 26.3792C60.2461 21.7287 65.1177 23.8893 65.1177 23.8893L69.4901 27.3755C77.5177 29.8123 78.9532 46.172 78.9532 46.172L82.631 45.3182C84.5332 39.2321 84.1618 31.1407 80.5077 24.3855C76.8535 17.6314 69.4292 15.2103 69.4292 15.2103L63.6782 15.1848C59.0277 10.8546 51.6084 14.7524 44.4121 20.9554C37.2147 27.1554 37.6569 42.7674 37.1037 46.8647C36.5495 50.961 32.8944 55.3895 31.2751 59.2569C29.6559 63.1252 32.4532 69.1209 31.8981 72.4429C31.3449 75.765 28.688 77.6466 23.4843 84.1777C18.2797 90.7108 19.7241 98.1292 19.7241 98.1292L20.8982 100.489L20.632 100.981L18.884 103.677L18.8859 103.678Z" fill="#DFF6F6"/>
<path d="M69.4302 44.9101C69.4302 45.6067 68.8642 46.1727 68.1666 46.1727C67.469 46.1727 66.904 45.6067 66.904 44.9101C66.904 44.2134 67.468 43.6475 68.1666 43.6475C68.8652 43.6475 69.4302 44.2134 69.4302 44.9101Z" fill="#00CBBF"/>
<path d="M59.9995 78.8088C48.6518 78.8088 40.4169 67.6979 40.4169 52.3875C40.4169 51.6535 41.0114 51.0591 41.7454 51.0591C42.4793 51.0591 43.0738 51.6535 43.0738 52.3875C43.0738 66.1572 50.1925 76.1509 59.9995 76.1509C69.8065 76.1509 76.9252 66.1572 76.9252 52.3875C76.9252 51.6535 77.5197 51.0591 78.2536 51.0591C78.9876 51.0591 79.5821 51.6535 79.5821 52.3875C79.5821 67.6979 71.3462 78.8088 59.9995 78.8088Z" fill="#00CBBF"/>
<path d="M45.0488 89.1738C44.9594 89.1738 44.867 89.1649 44.7746 89.1453C44.0574 88.9949 43.5965 88.2914 43.7469 87.5722C45.1018 81.0951 44.2804 69.6737 44.2725 69.5578C44.2185 68.8258 44.7677 68.1891 45.4998 68.136C46.2308 68.078 46.8675 68.6302 46.9215 69.3632C46.9579 69.8457 47.7793 81.271 46.3467 88.1165C46.2161 88.7434 45.6629 89.1728 45.0478 89.1728L45.0488 89.1738Z" fill="#00CBBF"/>
<path d="M74.9503 89.1739C74.3342 89.1739 73.782 88.7445 73.6513 88.1176C72.2187 81.2721 73.0401 69.8468 73.0765 69.3643C73.1305 68.6314 73.7613 68.0782 74.4983 68.1371C75.2303 68.1902 75.7805 68.8279 75.7255 69.5589C75.7176 69.6748 74.8962 81.0952 76.2512 87.5733C76.4015 88.2925 75.9407 88.9951 75.2234 89.1464C75.131 89.166 75.0387 89.1749 74.9493 89.1749L74.9503 89.1739Z" fill="#00CBBF"/>
<path d="M60.4358 58.3488H59.5633C58.8293 58.3488 58.2348 57.7543 58.2348 57.0203C58.2348 56.2863 58.8293 55.6919 59.5633 55.6919H60.4358C61.1697 55.6919 61.7642 56.2863 61.7642 57.0203C61.7642 57.7543 61.1697 58.3488 60.4358 58.3488Z" fill="#00CBBF"/>
<path d="M72.7572 40.7341C72.4447 40.7341 72.1313 40.6251 71.8797 40.403C69.61 38.4045 66.7144 39.1915 66.5935 39.2279C65.89 39.4254 65.1541 39.0186 64.9516 38.318C64.7492 37.6164 65.1472 36.8825 65.8487 36.6771C66.0266 36.625 70.2457 35.4273 73.6336 38.4084C74.1848 38.8938 74.2379 39.7329 73.7545 40.2831C73.4911 40.5818 73.1256 40.7351 72.7562 40.7351L72.7572 40.7341Z" fill="#00CBBF"/>
<path d="M50.5688 44.9101C50.5688 45.6067 51.1348 46.1727 51.8324 46.1727C52.53 46.1727 53.095 45.6067 53.095 44.9101C53.095 44.2134 52.531 43.6475 51.8324 43.6475C51.1338 43.6475 50.5688 44.2134 50.5688 44.9101Z" fill="#00CBBF"/>
<path d="M47.2418 40.7342C46.8734 40.7342 46.5079 40.5809 46.2436 40.2822C45.7592 39.732 45.8132 38.8929 46.3644 38.4075C49.7533 35.4244 53.9705 36.6232 54.1503 36.6762C54.8538 36.8835 55.2557 37.6224 55.0484 38.3269C54.843 39.0275 54.1129 39.4304 53.4055 39.227C53.2768 39.1877 50.3861 38.4065 48.1193 40.4021C47.8677 40.6242 47.5553 40.7332 47.2418 40.7332V40.7342Z" fill="#00CBBF"/>
<path d="M59.9995 65.2298C56.1233 65.2298 54.4853 62.1671 54.4175 62.0374C54.0786 61.386 54.3311 60.5842 54.9815 60.2452C55.632 59.9023 56.4347 60.1607 56.7737 60.8092C56.8071 60.8692 57.7681 62.571 59.9995 62.571C62.2309 62.571 63.1919 60.8682 63.2322 60.7974C63.5829 60.1578 64.3847 59.9161 65.0263 60.258C65.6689 60.6019 65.9175 61.3909 65.5815 62.0374C65.5137 62.1671 63.8748 65.2298 59.9995 65.2298Z" fill="#00CBBF"/>
<path d="M78.9532 60.6531C78.2615 60.6531 77.6788 60.1186 77.6297 59.418C77.5776 58.686 78.1279 58.0513 78.8609 58.0002C80.4762 57.8852 81.5335 55.8798 81.9127 55.024C83.2402 52.0262 83.1763 48.4438 82.233 47.244C81.3468 46.1151 80.2011 46.8992 79.983 47.0691C79.4003 47.5133 78.5671 47.4042 78.12 46.8196C77.6749 46.2359 77.7869 45.4027 78.3696 44.9566C79.7383 43.9131 82.4502 43.2214 84.323 45.6012C86.1928 47.98 85.8007 52.8064 84.3436 56.0999C83.1124 58.8796 81.2318 60.4959 79.0485 60.6502C79.0171 60.6531 78.9847 60.6541 78.9542 60.6541L78.9532 60.6531Z" fill="#00CBBF"/>
<path d="M79.7275 66.396C78.3932 66.396 77.165 65.7878 76.3573 64.7276C75.9132 64.1439 76.0262 63.3107 76.6108 62.8656C77.1944 62.4205 78.0277 62.5345 78.4728 63.1191C78.7724 63.5131 79.2303 63.7391 79.7275 63.7391C80.5951 63.7391 81.3026 63.0317 81.3026 62.1641C81.3026 61.2965 80.5951 60.5861 79.7275 60.5861C78.9935 60.5861 78.3991 59.9916 78.3991 59.2576C78.3991 58.5237 78.9935 57.9292 79.7275 57.9292C82.0621 57.9292 83.9604 59.8285 83.9604 62.1641C83.9604 64.4996 82.0621 66.397 79.7275 66.397V66.396Z" fill="#00CBBF"/>
<path d="M78.2527 46.6472C77.556 46.6472 76.9704 46.1049 76.9282 45.3994C76.0291 30.6569 69.2376 28.6829 69.1688 28.6643C68.4673 28.4776 68.0359 27.7603 68.2128 27.0548C68.3897 26.3493 69.0922 25.9229 69.7967 26.0821C70.1534 26.1666 78.5504 28.34 79.5801 45.2382C79.6253 45.9702 79.0672 46.601 78.3342 46.6443C78.3067 46.6453 78.2802 46.6472 78.2527 46.6472Z" fill="#00CBBF"/>
<path d="M83.1871 44.9763C83.0722 44.9763 82.9533 44.9606 82.8354 44.9281C82.1279 44.7346 81.7113 44.0045 81.9039 43.2971C81.9314 43.1998 84.4713 33.5343 79.193 25.0321C74.3627 17.2531 69.1659 16.5113 69.1138 16.5044C68.3897 16.4121 67.8699 15.7547 67.9554 15.0306C68.0399 14.3064 68.6923 13.7886 69.4115 13.8643C69.6719 13.8928 75.8798 14.6582 81.4519 23.631C87.3581 33.1432 84.5883 43.5614 84.4674 44.0006C84.3053 44.5901 83.7708 44.9763 83.1881 44.9763H83.1871Z" fill="#00CBBF"/>
<path d="M42.5314 43.3213C42.1512 43.3213 41.7748 43.1602 41.5125 42.8467C41.0399 42.2847 41.1146 41.4466 41.6756 40.9759C43.459 39.4785 44.9299 36.9189 46.3536 34.4428C47.2153 32.9424 48.1065 31.392 49.0763 30.0645C51.2045 27.1492 54.7742 23.4322 59.6979 22.2855C64.0811 21.2617 65.7603 22.6569 66.0531 22.9448C66.5739 23.4617 66.5788 24.3037 66.062 24.8245C65.5638 25.3266 64.7679 25.3501 64.2432 24.8893C64.141 24.8245 63.1025 24.2202 60.3002 24.8726C56.1714 25.8355 53.0842 29.079 51.2222 31.6317C50.3389 32.8412 49.5224 34.263 48.6567 35.7673C47.119 38.4438 45.5282 41.2117 43.3833 43.0098C43.1337 43.2191 42.8321 43.3213 42.5304 43.3213H42.5314Z" fill="#00CBBF"/>
<path d="M59.9995 95.7795C50.9864 95.7795 45.4241 90.1091 45.1912 89.8674C44.6823 89.3397 44.698 88.4986 45.2276 87.9887C45.7533 87.4817 46.5963 87.4935 47.1063 88.025C47.1534 88.0732 52.1508 93.1216 59.9985 93.1216C67.8463 93.1216 72.8446 88.0732 72.8937 88.0221C73.4037 87.4954 74.2448 87.4827 74.7714 87.9926C75.2981 88.5016 75.3138 89.3397 74.8068 89.8674C74.5749 90.1091 69.0116 95.7795 59.9985 95.7795H59.9995Z" fill="#00CBBF"/>
<path d="M97.229 93.5775C96.8674 93.5775 96.5058 93.4311 96.2445 93.1403C94.3461 91.0435 94.3619 88.9585 94.3756 86.9413C94.3884 85.2257 94.4002 83.6055 93.3321 81.6423C92.6856 80.4563 91.5753 79.5691 90.3992 78.6297C88.4694 77.0871 86.2822 75.3381 86.0287 71.9787C85.7369 68.1163 84.5991 65.6569 84.5873 65.6323C84.2758 64.9691 84.5617 64.1781 85.2259 63.8647C85.8902 63.5522 86.6801 63.8391 86.9936 64.5034C87.0476 64.6203 88.3505 67.4344 88.6787 71.7783C88.8447 73.9842 90.3343 75.175 92.0587 76.5536C93.3891 77.6167 94.7627 78.7152 95.6647 80.3708C97.062 82.9383 97.0452 85.1697 97.0325 86.9609C97.0197 88.7413 97.0109 90.0285 98.2135 91.3569C98.7068 91.9003 98.6635 92.7414 98.1202 93.2336C97.8657 93.4645 97.5464 93.5775 97.229 93.5775Z" fill="#00CBBF"/>
<path d="M100.094 104C99.5636 104 99.0615 103.68 98.8561 103.154C97.226 98.9782 92.2464 97.2439 88.2464 95.8497C85.7251 94.9713 83.7334 94.2776 82.8147 93.0435C82.0297 91.9902 81.7506 90.7678 81.4804 89.5858C81.2485 88.5669 81.0097 87.5136 80.4399 86.4809C79.3964 84.5875 77.0844 83.9174 77.0608 83.9105C76.3563 83.712 75.9427 82.98 76.1382 82.2755C76.3327 81.571 77.0608 81.1495 77.7643 81.348C77.9029 81.3853 81.1729 82.304 82.7676 85.1986C83.5163 86.5595 83.812 87.8535 84.0714 88.9953C84.2984 89.9916 84.4939 90.8523 84.9449 91.4556C85.3782 92.0373 87.366 92.73 89.1189 93.3392C93.398 94.8298 99.257 96.8716 101.331 102.188C101.598 102.872 101.259 103.641 100.576 103.909C100.417 103.971 100.253 103.999 100.093 103.999L100.094 104Z" fill="#00CBBF"/>
<path d="M19.9049 104C19.7437 104 19.5806 103.972 19.4224 103.91C18.7385 103.642 18.3996 102.873 18.6668 102.189C20.742 96.8716 26.6001 94.8308 30.8791 93.3402C32.632 92.73 34.6198 92.0373 35.0531 91.4566C35.5031 90.8533 35.6996 89.9926 35.9266 88.9963C36.186 87.8545 36.4818 86.5605 37.2305 85.1996C38.8252 82.305 42.0952 81.3863 42.2337 81.3489C42.9451 81.1544 43.6732 81.573 43.8648 82.2814C44.0564 82.9869 43.6417 83.7169 42.9372 83.9115C42.9136 83.9184 40.6017 84.5885 39.5582 86.4819C38.9883 87.5146 38.7495 88.5679 38.5176 89.5868C38.2474 90.7688 37.9684 91.9911 37.1833 93.0445C36.2646 94.2786 34.2729 94.9723 31.7517 95.8507C27.7516 97.2439 22.771 98.9792 21.1419 103.155C20.9365 103.681 20.4345 104.001 19.9039 104.001L19.9049 104Z" fill="#00CBBF"/>
<path d="M19.727 99.4585C18.9989 99.4585 18.4045 98.8719 18.3986 98.1429C18.2905 87.0683 23.222 82.0022 27.1818 77.9324L27.5414 77.564C30.2199 74.8049 31.0265 73.1591 30.2238 69.4096C29.0624 63.9937 28.464 58.5326 33.8219 51.2773C36.414 47.7676 36.5122 43.3726 36.6144 38.7211C36.696 35.0777 36.7795 31.3106 38.1128 27.8303C41.257 19.6337 50.3271 14.15 55.6575 12.4649C61.83 10.5126 64.6362 14.2424 64.7551 14.4035C65.1875 14.997 65.0558 15.8283 64.4633 16.2606C63.8757 16.689 63.0533 16.5652 62.6171 15.9815C62.5198 15.8587 60.7079 13.6578 56.4603 14.998C51.6202 16.5288 43.402 21.4623 40.5948 28.7824C39.4265 31.8313 39.3518 35.2065 39.2722 38.78C39.1642 43.6418 39.0531 48.6706 35.961 52.8563C31.2535 59.2302 31.7546 63.8729 32.8227 68.8525C33.875 73.7614 32.5122 76.2601 29.4505 79.4151L29.0889 79.7875C25.2795 83.7011 20.9611 88.1374 21.0584 98.1183C21.0653 98.8523 20.4757 99.4526 19.7427 99.4595H19.73L19.727 99.4585Z" fill="#00CBBF"/>
</svg>
