<svg width="44" height="43" viewBox="0 0 44 43" fill="none" xmlns="http://www.w3.org/2000/svg">
<path d="M38.9999 23C28.1075 21.6606 23.7143 13.999 22.4999 5C21.2856 14.001 16.8924 21.6606 5.99994 23C16.8924 24.3394 21.2856 32.001 22.4999 41C23.7143 31.999 28.1075 24.3394 38.9999 23Z" fill="white"/>
<path d="M14.9999 8C10.0499 7.40409 8.05318 4 7.49994 0C6.94877 4 4.9521 7.40409 -6.10352e-05 8C4.9521 8.59591 6.94877 12 7.49994 16C8.0511 12 10.0499 8.59591 14.9999 8Z" fill="white"/>
<path d="M43.9999 36.5C40.3685 36.0156 38.9043 33.2489 38.4999 30C38.0956 33.2511 36.6294 36.0177 32.9999 36.5C36.6314 36.9844 38.0956 39.7511 38.4999 43C38.9043 39.7489 40.3705 36.9823 43.9999 36.5Z" fill="white"/>
</svg>
