<svg width="1077" height="451" viewBox="0 0 1077 451" fill="none" xmlns="http://www.w3.org/2000/svg">
<g opacity="0.55">
<path d="M85.6571 33.2556C84.6288 34.7934 83.5319 36.6753 82.3893 38.7638C86.8454 40.3015 89.6105 41.954 92.3755 44.9376C97.4715 50.331 99.2082 57.2851 97.7228 65.6392C95.392 78.9737 86.1598 89.6458 71.8318 95.613C65.4333 98.2523 59.149 99.6982 48.7743 100.685C48.0659 94.7409 46.969 90.3343 45.1866 86.1343C36.3658 93.295 26.0596 97.5868 17.7187 97.5868C4.7846 97.5868 -1.93383 88.8884 0.48846 75.1179C2.13379 65.754 7.54966 56.7114 15.9363 49.5507C21.1008 45.1442 25.6483 42.3901 32.938 39.5212C33.6007 35.7802 33.7835 34.6786 34.7204 29.9278C31.5821 29.8513 27.3165 29.7748 21.9234 29.6983C20.301 29.5835 18.5414 29.5835 16.5761 29.5835C15.0451 29.5835 14.6109 29.5835 13.0569 29.6983L15.8906 12.3016C22.0377 13.518 27.5678 13.954 36.0001 13.954H36.6628L38.2168 13.8393C38.4605 12.8906 38.849 11.3147 39.3822 9.1114C39.6793 8.00977 39.9078 6.79337 40.1135 5.57698C40.5019 3.3737 40.6619 2.50157 40.7076 0.940918L59.4461 1.72125C57.9836 5.02616 57.458 6.79337 55.6527 13.2885C73.5913 12.3016 88.4221 10.3048 97.7457 7.78026L95.392 25.613C93.6095 25.7278 93.1753 25.7278 90.5931 26.0491C79.7842 27.5868 62.8967 28.9179 51.8364 29.354C51.6384 30.0884 51.3946 31.083 51.1052 32.3376C50.9909 33.0032 50.9224 33.3245 50.4196 35.6425C55.4927 34.8622 57.5037 34.6557 61.2285 34.6557C63.308 34.6557 64.1993 34.6557 66.3473 34.8852C67.6727 32.3606 68.2669 30.7999 68.8839 28.5966L85.6342 33.2327L85.6571 33.2556ZM18.1529 73.5802C17.4445 77.6655 18.6785 79.9605 21.7406 79.9605C23.8201 79.9605 25.8082 79.295 28.1391 77.872C28.1391 72.2491 28.7333 65.754 29.9901 57.9278C23.3403 62.1048 19.2041 67.5212 18.13 73.5802H18.1529ZM45.6665 66.213C50.7167 61.1409 55.9726 54.4163 58.9662 49.2524C58.0064 49.1376 57.6636 49.1376 56.681 49.1376C53.5046 49.1376 50.9224 49.4589 47.7917 50.354C46.5348 57.5147 46.0778 60.7048 45.6665 66.213ZM66.3245 79.0884C73.2029 76.1048 78.276 70.3901 79.3271 64.331C80.1955 59.3737 78.6644 56.2983 74.1626 53.7507C67.0557 65.5474 59.4461 74.4523 49.9169 82.5081C57.2523 81.9573 61.7998 81.0851 66.3016 79.0884H66.3245Z" fill="#2C646C"/>
<path d="M164.13 1.88197C163.125 3.85573 163.011 3.85573 160.497 10.6951C159.491 13.3344 159.08 14.3213 158.097 16.8688C165.25 16.0885 170.095 15.3311 173.82 14.2295L171.009 32.0623C169.226 32.2153 166.469 32.506 162.736 32.9344C159.72 33.2557 153.596 33.8065 150.808 34.036C144.569 47.0262 140.387 54.6459 133.235 65.9836C130.035 71.0557 128.71 73.0294 122.929 81.636C121.649 83.4721 120.704 84.9027 120.095 85.9278L103.939 76.1278C113.559 65.6622 123.888 50.0098 131.544 34.4951H125.397C123.721 34.4951 122.045 34.4568 120.369 34.3803H116.096L119.181 16.7541C123.203 17.5344 128.207 17.8557 134.994 17.8557C136.205 17.8557 136.754 17.8557 138.971 17.741C139.153 17.1595 139.755 15.6142 140.776 13.1049C142.307 9.36393 143.907 3.97049 144.729 0L164.153 1.88197H164.13ZM194.98 94.7409C191.758 90.013 188.193 86.4786 182.937 82.7376C181.703 87.9245 179.83 91.1147 176.31 94.1901C171.283 98.4819 163.148 101.029 154.373 101.029C145.598 101.029 138.605 98.3901 134.926 93.754C131.955 90.013 130.927 85.2622 131.841 80.0983C134.08 67.3147 146.283 58.3868 161.548 58.3868C163.856 58.3868 165.593 58.5016 169.112 59.0524C169.523 54.8754 169.775 52.7639 170.209 50.2393C171.009 45.718 171.831 42.2065 173.157 37.2491L191.118 38.0295C189.564 41.8852 188.65 45.1901 187.736 50.4688C187.051 54.4393 186.685 57.7442 186.365 63.2524C192.535 66.236 197.174 69.1967 201.539 73.0524C201.836 73.2819 203.344 74.7049 206.155 77.3442L194.98 94.7409ZM159.354 74.0163C154.19 74.0163 150.511 76.2196 149.917 79.6393C149.345 82.8294 152.065 84.918 156.772 84.918C162.257 84.918 165.524 82.4852 166.347 77.8721C166.484 77.0917 166.644 75.554 166.553 75.4393C163.788 74.3376 161.982 74.0163 159.354 74.0163ZM205.149 43.0787C195.986 36.5836 186.091 31.6262 173.82 27.2197L185.588 12.0262C198.545 16.9836 206.84 20.9541 216.004 26.8983L205.149 43.1016V43.0787Z" fill="#2C646C"/>
<path d="M281.565 30.8459C292.214 29.5147 297.105 29.1934 310.93 29.1934C311.707 29.1934 313.992 29.1934 316.277 29.3082L313.329 47.9213C308.188 47.2557 305.126 47.1409 299.093 47.1409C287.027 47.1409 279.12 47.8065 267.786 49.895L269.431 34.2426C264.061 34.7934 262.736 34.9081 259.285 35.1147C255.606 45.4655 252.201 53.6131 247.105 65.0885C242.672 74.7737 241.575 77.2065 234.354 91.413C232.571 94.9322 231.269 97.5791 230.446 99.354L211.548 91.9638C221.26 77.872 232.251 55.954 239.884 35.5737H238.124C234.605 35.5737 232.32 35.459 227.658 35.2524H226.561C225.693 35.2524 225.236 35.2524 224.025 35.3672L227.498 17.4196C231.657 18.0852 237.393 18.5213 243.974 18.5213H246.054C249.024 9.70817 250.213 5.41637 250.83 1.9967C250.898 1.67538 250.99 1.12457 251.127 0.344238L271.374 1.88194C270.322 4.08522 269.797 5.18686 268.837 8.26227C268.608 8.92784 267.397 12.118 265.409 17.7409C273.11 16.9606 277.612 16.318 283.896 14.8721L281.52 30.8459H281.565ZM280.08 61.1409C275.03 66.0983 272.653 69.7245 272.059 73.1442C271.168 78.2163 275.235 80.6262 284.445 80.6262C292.991 80.6262 303.96 78.8589 311.09 76.3343L309.033 95.613C306.794 95.8425 305.788 95.9343 303.115 96.2786C292.557 97.7015 288.101 98.0458 281.405 98.0458C259.902 98.0458 250.373 91.1147 252.818 77.2294C253.938 70.8491 257.548 64.6753 265.135 55.8622L280.103 61.1409H280.08Z" fill="#2C646C"/>
<path d="M356.747 76.472C350.212 86.8917 343.996 91.4359 336.615 91.4359C325.76 91.4359 319.979 81.0163 322.584 66.1441C324.252 56.6196 329.005 48.013 336.249 41.3343C344.75 33.531 355.765 29.377 367.671 29.377C378.525 29.377 387.437 33.0491 392.328 39.3835C396.532 44.9146 397.904 52.8097 396.304 61.99C394.453 72.5704 388.786 82.1638 380.925 88.2687C374.549 93.2261 367.693 95.8425 356.039 97.6326C355.125 91.7802 354.097 88.8425 351.492 84.2982C359.215 83.7245 364.449 82.4392 369.225 80.1441C376.057 76.8163 380.719 69.9769 382.25 61.2786C383.461 54.3704 381.999 48.8392 377.931 45.2589C376.103 43.6294 374.458 42.895 371.624 42.413C367.396 56.413 362.78 66.9015 356.725 76.495L356.747 76.472ZM348.064 46.7048C341.917 51.2491 337.095 58.8228 335.838 66.0753C334.833 71.8589 336.204 76.4031 339.037 76.4031C341.071 76.4031 343.676 73.5572 347.173 67.3605C351.286 60.0392 355.308 50.6064 357.593 42.5507C354.097 43.0327 351.309 44.2491 348.041 46.7048H348.064Z" fill="#2C646C"/>
</g>
<g opacity="0.99">
<path d="M270.334 256.922H281.995L274.72 298.224H254.852C245.949 298.224 242.003 298.015 236.81 297.344L236.337 297.283L236.254 297.754L232.818 317.288L232.705 317.93L233.355 317.873C238.324 317.433 241.325 317.317 251.347 317.317H314.182C322.556 317.317 328.059 317.549 332.071 317.988L332.536 318.039L332.618 317.578L336.076 297.927L336.196 297.243L335.51 297.346C330.397 298.107 326.947 298.224 317.037 298.224H296.022L303.297 256.922H316.364C326.826 256.922 329.247 257.038 334.263 257.478L334.72 257.518L334.8 257.066L338.189 237.764L338.305 237.098L337.634 237.182C332.416 237.829 328.492 238.061 319.149 238.061H273.793C264.768 238.061 261.384 237.968 255.639 237.182L255.162 237.117L255.079 237.591L251.69 256.893L251.577 257.535L252.226 257.478C257.196 257.038 259.871 256.922 270.334 256.922Z" fill="white" stroke="#1E3F3F"/>
<path d="M349.783 266.091L349.299 266.016L349.214 266.498L345.43 288.033L345.318 288.67L345.963 288.618C352.837 288.062 356.513 287.945 368.996 287.945H422.035C434.735 287.945 439.607 288.062 444.823 288.617L445.288 288.666L445.369 288.206L449.152 266.671L449.266 266.021L448.61 266.087C441.016 266.853 436.762 267.085 425.633 267.085H372.361C360.776 267.085 354.846 266.875 349.783 266.091Z" fill="white" stroke="#1E3F3F"/>
<path d="M456.25 305.131H455.045L455.791 305.879L457.609 326.907L457.661 327.512L458.245 327.344C460.57 326.675 462.411 326.237 466.436 325.449C509.024 318.402 537.847 299.111 558.236 263.929L558.47 263.526L558.085 263.264C552.871 259.721 548.548 255.416 544.283 249.434L543.803 248.76L543.43 249.499C531.316 273.495 513.811 289.816 491.661 298.023L491.661 298.023C480.606 302.124 465.973 305.131 456.25 305.131ZM472.067 256.404L471.722 256.258L471.485 256.547L458.417 272.5L457.988 273.024L458.614 273.28C469.181 277.612 480.409 284.398 487.275 290.607L487.69 290.983L488.016 290.527L500.574 272.992L500.855 272.6L500.474 272.306C492.792 266.364 483.188 261.112 472.067 256.404ZM485.215 229.049L485.127 229.015H485.033H485.01H484.77L484.62 229.203L471.923 245.063L471.48 245.617L472.15 245.848C481.449 249.062 492.08 254.825 501.189 261.728L501.587 262.03L501.889 261.631L514.819 244.561L515.135 244.143L514.702 243.847C507.79 239.121 496.704 233.523 485.215 229.049ZM543.241 228.264L543.039 227.918L542.658 228.038L530.983 231.713L530.399 231.897L530.695 232.432C533.708 237.869 535.551 243.056 537.261 250.396L537.387 250.935L537.91 250.756L549.656 246.732L550.081 246.587L549.981 246.149C548.534 239.764 546.266 233.457 543.241 228.264ZM566.598 240.439C564.77 233.204 562.569 227.952 559.72 223.236V222.666L559.066 222.877L547.971 226.458L547.385 226.647L547.69 227.181C550.469 232.061 552.428 237.248 554.254 244.589L554.386 245.119L554.902 244.942L566.276 241.035L566.711 240.885L566.598 240.439Z" fill="white" stroke="#1E3F3F"/>
<path d="M644.622 306.276L644.74 305.611L644.069 305.693C639.55 306.247 636.093 306.364 628.973 306.364H612.159L617.833 274.108H628.114C635.022 274.108 639.529 274.341 642.568 274.664L643.033 274.713L643.114 274.253L646.108 257.183L646.225 256.516L645.554 256.601C641.121 257.156 637.985 257.387 630.876 257.387H591.996C585.327 257.387 582.053 257.156 577.832 256.601L577.357 256.539L577.274 257.01L574.28 274.08L574.167 274.724L574.817 274.664C579.65 274.224 582.002 274.108 589.349 274.108H599.014L593.34 306.364H577.047C568.903 306.364 566.17 306.247 562.19 305.694L561.713 305.628L561.629 306.103L558.635 323.079L558.522 323.717L559.168 323.664C564.578 323.224 566.232 323.224 574.354 323.224H626.164C634.073 323.224 637.168 323.34 641.095 323.664L641.549 323.702L641.628 323.253L644.622 306.276Z" fill="white" stroke="#1E3F3F"/>
<path d="M662.038 302.84V303.38L662.088 303.376L664.059 324.306L664.115 324.901L664.691 324.741C667.393 323.99 668.269 323.797 671.287 323.134C671.803 323.021 672.382 322.893 673.044 322.747L673.045 322.747C694.641 317.949 705.998 313.795 719.473 305.947C736.946 295.85 749.882 282.622 763.932 260.575L764.167 260.206L763.833 259.924C756.592 253.805 754.447 251.608 750.188 245.079L749.732 244.382L749.331 245.111C744.609 253.692 740.541 259.804 734.622 266.916L734.619 266.919C723.715 280.228 712.295 288.546 697.315 294.328L697.314 294.328C686.124 298.683 673.962 301.462 662.499 302.342L662.534 302.794L662.038 302.817V302.84ZM686.72 233.121L686.378 232.896L686.091 233.187L670.515 248.931L670.067 249.384L670.614 249.712C680.63 255.7 688.755 263.029 696.636 273.148L696.997 273.611L697.397 273.181L713.599 255.763L713.915 255.423L713.6 255.082C705.696 246.556 699.325 241.392 686.72 233.121Z" fill="white" stroke="#1E3F3F"/>
<path d="M792.591 281.246L787.61 309.555L787.61 309.555C786.288 317.036 785.549 322.598 785.272 326.573L785.239 327.038H784.773H763.278H762.072L762.853 326.257C764.151 321.321 764.938 318.082 766.477 309.358L777.92 244.405L777.92 244.405C779.512 235.417 779.586 234.287 779.974 228.357L779.98 228.273L780.01 227.806H780.479H801.973H802.656L802.45 228.457C801.441 231.652 800.355 237.198 799.03 244.695L792.591 281.246ZM792.591 281.246C793.447 281.714 794.805 282.345 796.641 283.135C806.931 287.792 818.756 295.025 828.218 302.489L828.625 302.81L828.931 302.392L842.858 283.416L843.168 282.994L842.733 282.704C827.262 272.386 814.098 265.807 796.411 259.579L799.03 244.695L792.591 281.246Z" fill="white" stroke="#1E3F3F"/>
<path d="M862.763 265.036L862.481 265.599L862.658 265.642L860.583 276.655L860.471 277.248H861.074H862.165C863.184 277.248 863.681 277.248 864.685 277.316L864.696 277.317L864.708 277.317C866.8 277.364 868.893 277.387 870.986 277.387H872.314C872.008 277.783 871.612 278.297 871.126 278.929C869.741 280.685 866.066 284.922 864.132 286.884C861.295 289.725 857.723 292.702 855.11 294.448L854.648 294.756L855.003 295.183L862.663 304.416L863.027 304.854L863.414 304.436C865.826 301.836 868.147 299.808 871.684 297.098C874.61 294.871 877.429 293.13 879.968 291.948C882.515 290.762 884.749 290.154 886.515 290.154C887.143 290.154 887.569 290.285 887.88 290.508C888.103 290.668 888.296 290.898 888.461 291.224C887.671 291.554 887.039 291.815 886.498 292.038C885.144 292.597 884.354 292.923 883.056 293.526C878.071 295.8 874.308 298.272 871.01 301.458L871.01 301.458L871.005 301.463C867.931 304.519 866.291 307.399 865.665 310.963L865.665 310.964C864.873 315.534 866.332 319.638 869.83 321.887C873.487 324.319 878.627 325.34 886.91 325.34C892.641 325.34 898.789 324.967 904.796 324.244L904.801 324.243C907.785 323.856 909.97 323.642 911.368 323.596L911.8 323.582L911.849 323.153L913.358 309.967L913.449 309.171L912.694 309.439C906.143 311.765 897.544 313.085 888.813 313.085C885.261 313.085 882.952 312.807 881.602 312.23C880.94 311.946 880.554 311.609 880.348 311.241C880.142 310.874 880.075 310.408 880.183 309.787C880.388 308.618 881.178 307.394 882.546 306.355C883.307 305.778 883.788 305.429 884.524 305.026C885.25 304.628 886.227 304.175 887.956 303.412C887.207 307.227 886.789 309.207 886.419 310.174L886.151 310.875L886.902 310.852L898.879 310.48L899.335 310.466L899.363 310.01C899.478 308.127 899.591 307.053 900.169 303.765C900.708 300.758 900.748 300.478 900.974 298.865C900.978 298.836 900.983 298.807 900.987 298.778C908.346 296.405 916.319 294.417 920.122 293.918L920.656 293.848L920.546 293.32L918.132 281.739L917.997 281.093L917.412 281.397C916.281 281.984 915.78 282.142 912.42 283.203C912.064 283.315 911.676 283.438 911.251 283.572C909.316 284.152 907.573 284.69 906.823 284.921C906.622 284.983 906.492 285.023 906.45 285.036L906.45 285.036L906.44 285.039C904.189 285.765 902.563 286.293 901.564 286.622C901.16 284.42 900.167 282.707 898.532 281.531C896.769 280.263 894.323 279.666 891.227 279.666C888.619 279.666 886.051 280.162 883.345 281.129C884.459 279.861 885.139 278.974 886.263 277.449C893.721 277.213 902.807 276.706 908.058 276.199L908.058 276.199C908.784 276.128 909.519 276.055 910.263 275.982C911.734 275.836 913.238 275.687 914.763 275.548L915.159 275.512L915.213 275.118L916.815 263.467L916.916 262.733L916.197 262.914C912.181 263.926 904.605 264.877 897.376 265.248L897.371 265.249C895.784 265.347 894.596 265.423 893.81 265.478C893.84 265.429 893.87 265.377 893.901 265.323C894.239 264.748 894.729 263.927 895.388 262.873L895.395 262.863L895.4 262.853C896.601 260.709 896.72 260.545 897.384 259.626C897.423 259.573 897.463 259.518 897.505 259.459L898.027 258.737L897.138 258.668L883.931 257.645L883.521 257.613L883.411 258.008C882.7 260.545 881.884 262.45 879.916 265.783H878.159C870.568 265.783 866.28 265.479 863.326 264.773L863.25 265.091L862.809 264.943L862.763 265.036Z" fill="white" stroke="#1E3F3F"/>
</g>
<g opacity="0.7">
<path d="M414.035 423.875C410.881 423.875 409.153 424.012 407.123 424.258C409.619 425.842 411.649 426.88 414.556 427.672C418.781 429.12 431.509 430.021 444.676 430.021C449.421 430.021 454.194 429.885 460.723 429.366C456.361 437.615 454.715 441.685 452.713 448.514H441.137C425.474 448.514 417.19 447.585 408.988 444.963C402.13 442.86 397.714 440.237 392.584 434.993C388.634 440.893 385.809 444.308 379.226 451C377.36 445.892 376.016 443.133 373.328 438.926L372.971 440.893C372.286 445.482 371.956 448.104 371.792 449.033H356.239L356.869 445.482H350.56L349.628 450.727H332.895C334.074 446.274 335.117 441.931 335.857 437.752L339.533 417.046C340.246 412.976 340.576 410.49 340.768 407.076C343.895 407.212 346.391 407.349 350.204 407.349H371.408C375.221 407.349 377.36 407.212 379.226 407.076C378.814 408.66 378.238 411.146 377.415 415.872L374.48 432.534C378.183 428.737 380.871 425.46 383.861 421.116C381.42 415.598 380.378 411.802 378.595 403.279C376.537 403.006 375.358 403.006 371.271 403.006H350.588C346.501 403.006 346.117 403.006 343.044 403.279L345.678 388.474C348.53 388.747 349.326 388.747 353.276 388.747H374.069C378.403 388.747 379.198 388.747 381.612 388.474L380.679 393.718L392.063 388.856C392.255 395.275 392.557 397.242 393.49 401.695C395.327 396.45 396.26 393.445 398.016 385.824H391.048C389.622 385.915 388.689 385.961 388.25 385.961C387.729 385.961 387.071 385.961 386.111 386.097C385.59 386.097 385.425 386.234 384.629 386.234L387.455 370.227C391.387 365.328 396.141 358.554 401.719 349.904H398.043C395.135 349.904 393.928 350.04 391.789 350.286L394.998 332.203C397.44 332.585 399.771 332.722 403.721 332.722H411.621C416.23 332.722 417.821 332.585 420.262 332.203L423.691 337.311C430.494 336.792 433.045 336.519 438.339 335.617C445.8 334.443 453.206 332.722 458.693 330.755C461.216 329.963 462.78 329.171 466.428 327.204L474.273 343.867C466.977 346.353 463.767 347.418 458.281 348.729L455.017 367.222H459.762C463.191 367.222 465.441 367.085 468.047 366.566L464.782 385.059C462.204 384.786 460.119 384.677 456.827 384.677H451.945L448.104 406.311H451.259C456.142 406.311 458.665 406.174 462.012 405.792L458.72 424.422C455.374 424.039 452.768 423.903 448.159 423.903H414.063L414.035 423.875ZM348.668 348.374C351.603 348.893 354.209 349.03 358.954 349.03H380.021C385.288 349.03 387.674 348.893 390.5 348.647L387.4 366.075C384.849 365.692 383.779 365.692 377.196 365.692H355.992C351.383 365.692 348.722 365.829 345.486 366.211L348.64 348.374H348.668ZM348.942 369.872C351.274 370.145 352.59 370.145 356.54 370.145H377.47C381.694 370.145 382.6 370.145 384.904 369.872L382.27 384.677C380.076 384.404 378.759 384.404 374.946 384.404H354.017C350.204 384.404 348.476 384.54 346.336 384.677L348.969 369.872H348.942ZM352.755 430.049H359.722L361.176 421.799H354.209L352.755 430.049ZM355.882 329.881C359.366 330.263 361.45 330.4 367.513 330.4H380.542C386.604 330.4 388.744 330.263 392.365 329.881L389.649 345.233C385.891 344.959 383.532 344.85 377.991 344.85H364.962C359.558 344.85 356.787 344.987 353.166 345.233L355.882 329.881ZM409.591 405.792C410.99 406.065 411.896 406.174 413.734 406.174L419.768 372.084C420.536 367.768 420.838 365.255 420.866 362.114H436.145C435.294 364.736 434.636 367.632 433.895 371.811L427.778 406.284H431.865L441.466 352.007C435.76 352.936 433.1 353.182 425.831 354.11C425.538 351.834 424.934 348.556 424.02 344.277C423.142 345.451 422.978 345.724 422.073 347.172C417.601 354.52 412.911 360.939 406.245 369.598H410.853C413.487 369.598 416.147 369.462 417.354 369.325C416.531 371.811 416.12 373.395 414.886 378.777C410.634 397.652 407.534 406.967 401.527 419.286C403.392 421.389 404.188 422.182 406.41 423.739L409.591 405.765V405.792Z" fill="#2C646C"/>
<path d="M506.504 370.008C499.207 380.771 492.35 389.02 483.654 397.16C480.143 388.774 478.579 386.398 473.505 380.115C487.714 368.315 501.265 347.609 505.16 331.465L524.855 336.328C523.282 339.296 521.929 341.964 520.795 344.331C519.671 346.954 518.656 348.92 517.229 351.816H533.03L534.099 345.779C535.526 337.775 536.157 332.667 536.431 328.215H558.952C557.47 332.804 556.565 337.256 555.057 345.779L553.987 351.816H576.891C584.654 351.816 591.155 351.543 597.574 351.024L594.063 370.828C587.562 370.309 581.418 370.036 574.313 370.036H550.75L547.266 389.703H566.632C574.011 389.703 579.991 389.43 585.203 388.911L581.692 408.715C575.849 408.196 570.5 407.923 563.533 407.923H544.057L540.271 429.284H567.4C575.684 429.284 582.186 429.011 588.495 428.355L584.901 448.678C577.522 448.023 572.036 447.749 564.794 447.749H488.016C480.5 447.749 473.889 448.023 466.126 448.678L469.719 428.355C476.33 429.011 482.859 429.284 490.484 429.284H519.314L523.1 407.923H506.778C499.811 407.923 494.352 408.196 488.592 408.715L492.075 389.047C497.123 389.566 501.566 389.703 509.604 389.703H526.336L529.82 370.036H506.504V370.008Z" fill="#2C646C"/>
<path d="M613.375 367.522C617.407 367.959 619.986 368.069 625.17 368.069C633.482 368.069 642.013 367.632 652.464 366.566C652.162 365.282 652.162 365.173 651.586 362.36C650.598 357.525 649.94 354.602 649.062 351.597L668.922 349.221C668.922 353.427 669.718 358.809 670.979 364.381C682.967 362.551 691.827 360.721 698.712 358.453L697.45 376.537C695.311 376.828 692.266 377.329 688.316 378.039C683.269 378.995 678.825 379.76 674.381 380.415C677.289 389.676 681.568 399.673 687.52 410.545L668.291 417.756C665.63 414.424 663.299 413.031 657.785 411.829C654.247 411.064 650.626 410.764 646.1 410.764C634.003 410.764 626.158 414.205 625.143 419.914C624.128 425.623 630.327 428.519 643.494 428.519C655.81 428.519 669.718 425.623 679.154 421.198L678.112 440.456C676.082 440.893 675.204 441.002 672.955 441.521C658.444 444.745 651.696 445.619 640.559 445.619C625.856 445.619 615.926 443.133 610.522 438.189C605.886 433.791 603.993 427.535 605.2 420.652C606.215 414.943 609.48 409.343 614.225 405.164C621.769 398.499 632.851 395.166 647.115 395.166C652.957 395.166 656.112 395.603 661.543 397.324C660.062 394.756 658.608 391.287 656.853 386.015C656.194 384.294 656.057 383.857 655.618 382.683C646.1 383.967 632 384.841 617.133 385.168C614.088 385.278 613.539 385.278 611.564 385.496L613.347 367.522H613.375Z" fill="#2C646C"/>
<path d="M749.048 351.925C747.485 356.432 746.442 361.185 744.522 371.401C755.741 370.964 760.103 370.746 772.172 370.227C772.282 369.68 772.337 369.38 772.392 369.052C773.544 362.496 774.559 354.301 774.778 350.641H793.376C792.636 353.018 791.84 356.241 791.045 360.748L789.783 367.85C789.756 368.069 789.618 368.697 789.481 369.571C800.216 369.134 806.799 368.779 809.231 368.506L806.104 386.807C802.456 386.589 800.536 386.48 797.08 386.48C795.681 386.48 795.351 386.48 786.464 386.589C783.638 402.623 781.362 408.742 776.424 413.386C773.215 416.281 768.606 417.784 762.572 417.784C757.936 417.784 752.395 416.609 746.744 414.451C746.963 413.277 747.046 412.73 747.21 411.774C748.17 406.393 748.554 402.405 748.554 396.914C753.492 399.509 758.731 401.121 762.407 401.121C765.863 401.121 766.878 399.072 769.237 386.917C759.225 387.244 749.981 387.682 741.368 388.091C737.225 411.446 736.43 416.609 736.622 419.723C737.033 425.323 740.874 426.825 754.809 426.825C768.003 426.825 781.17 424.995 789.481 421.99L787.177 441.794C784.105 442.013 780.475 442.368 776.287 442.86C766.055 443.925 758.951 444.362 750.831 444.362C740.462 444.362 732.837 443.406 728.502 441.685C720.959 438.571 718.051 433.518 718.161 423.82C718.243 419.614 719.505 410.791 722.193 395.521C722.44 394.128 722.852 391.752 723.345 388.965C713.635 389.512 710.343 389.73 704.693 390.577L706.805 372.603C708.615 372.822 709.136 372.822 710.453 372.822C712.071 372.822 717.311 372.603 726.335 372.166C726.582 370.773 726.747 369.79 726.911 368.943C728.557 359.573 728.996 356.569 729.051 351.952H749.048V351.925Z" fill="#2C646C"/>
<path d="M875.064 349.33C873.802 354.056 872.074 361.923 870.675 369.762C870.648 369.981 870.511 370.636 870.401 371.265C883.047 371.265 895.253 370.09 902.523 368.151L900.548 386.015C898.38 386.125 897.366 386.234 892.867 386.671C881.757 387.736 877.506 387.955 867.74 388.173C867.283 391.542 866.478 398.107 865.326 407.868C875.695 411.638 882.333 415.517 893.114 424.23C894.842 425.514 895.116 425.733 896.186 426.498L881.511 443.379C877.698 437.451 870.785 431.332 862.254 426.498C862.254 427.262 862.117 427.891 862.035 428.328C861.129 433.381 858.908 437.479 855.342 440.483C849.993 444.99 841.324 447.585 831.504 447.585C822.754 447.585 815.43 445.537 811.205 441.986C807.173 438.544 805.417 432.507 806.597 425.951C807.749 419.395 811.644 413.905 817.871 409.807C824.07 405.929 830.983 404.098 839.953 404.098C842.751 404.098 844.369 404.208 847.414 404.645C848.511 396.04 851.776 373.969 854.135 359.355C854.958 354.083 855.204 352.69 855.396 349.248L875.037 349.357L875.064 349.33ZM837.429 420.242C830.955 420.242 826.457 422.4 825.853 425.733C825.222 429.284 828.185 431.442 833.589 431.442C838.033 431.442 841.763 429.83 843.272 427.344C843.903 426.17 844.122 425.623 844.643 422.728C844.726 422.182 844.89 421.335 844.89 421.335C841.9 420.488 840.337 420.269 837.402 420.269L837.429 420.242Z" fill="#2C646C"/>
<path d="M916.758 383.666C918.989 383.666 923.854 383.056 931.351 381.836C947.042 379.35 957.027 378.504 968.246 378.504C982.4 378.504 990.931 382.273 994.58 390.331C996.527 394.647 997.076 399.482 996.116 404.863C993.784 418.084 983.031 430.568 967.67 437.888C957.383 442.833 947.207 445.428 929.102 447.558C928.554 439.691 927.621 435.73 924.933 429.065C937.578 428.519 947.481 426.907 955.902 423.793C963.61 421.116 969.124 417.456 972.415 412.922C974.144 410.545 975.378 407.868 975.762 405.601C976.914 399.154 972.745 395.822 963.775 395.822C951.129 395.822 929.184 399.482 917.444 403.58L916.758 383.666ZM940.705 348.483C953.077 352.472 967.533 354.411 984.403 354.411C986.35 354.411 988.188 354.411 991.891 354.302L986.268 372.603C964.433 371.948 948.468 370.008 931.982 366.048L940.705 348.511V348.483Z" fill="#2C646C"/>
<path d="M1029.03 443.679L1033.42 418.904H1059.89L1055.5 443.679H1029.03ZM1037.37 409.999C1038.11 407.377 1038.31 406.202 1038.69 404.099C1038.98 402.442 1039.41 399.036 1039.98 393.883L1044.7 352.335C1045.38 346.954 1045.77 341.054 1046.26 334.634H1076.93C1076 337.639 1073.58 346.817 1072.21 352.335L1062.23 393.883C1060.99 399.4 1060.39 402.023 1060.06 403.989C1059.84 405.301 1059.56 406.748 1059.13 410.026H1037.4L1037.37 409.999Z" fill="#2C646C"/>
</g>
<path d="M643.188 123.287C643.666 120.624 643.767 119.318 643.767 117.258H663.83C663.176 118.941 662.748 120.624 662.244 123.538L661.414 128.235H688.601C695.247 128.235 699.527 127.984 703.705 127.506L700.357 146.446C696.455 145.968 692.277 145.717 685.505 145.717H616.982C609.153 189.95 601.777 210.572 586.421 230.466C582.57 223.483 580.027 220.092 574.741 214.566C586.22 199.495 590.978 185.63 597.825 146.822C599.612 136.7 600.242 132.48 600.72 127.783C604.773 128.134 607.894 128.26 613.81 128.26H642.332L643.213 123.312L643.188 123.287ZM668.865 230.34C668.009 224.312 667.581 221.9 666.801 218.761C645.101 222.629 634.931 224.06 607.92 227.2C604.823 227.552 602.608 227.803 600.619 228.155V208.261C601.928 208.387 602.658 208.387 603.388 208.387C605.201 208.387 608.121 208.261 611.545 208.035C623.276 189.473 637.952 159.08 640.796 147.752L660.96 152.574C660.172 154.266 658.2 158.368 655.045 164.882C648.525 178.496 640.822 192.738 632.489 206.352C644.648 205.272 651.671 204.418 662.496 202.735C660.105 195.024 658.921 192.135 653.887 180.305L672.037 172.593C676.081 182.557 679.43 191.399 682.081 199.118C685.832 209.969 686.26 211.652 688.299 222.026L668.815 230.34H668.865Z" fill="#497979"/>
<path d="M760.824 130.395L761.227 128.109C762.158 122.809 762.511 120.147 762.536 116.655H782.725C781.668 119.921 780.912 122.809 779.981 128.109L779.578 130.395H802.788C809.182 130.395 813.11 130.144 817.062 129.666L813.89 147.626C810.567 147.274 805.784 147.023 799.969 147.023H776.658L774.795 157.522H804.399C811.045 157.522 815.551 157.271 819.63 156.794L816.382 175.105C811.876 174.628 807.798 174.377 801.53 174.377H721.175C714.882 174.377 710.502 174.628 705.945 175.105L709.193 156.794C712.843 157.271 715.738 157.397 720.798 157.522C717.827 153.78 715.99 151.971 711.232 148.128C717.953 143.557 724.096 137.528 730.263 129.315C734.089 124.14 735.952 121.126 737.362 117.133L756.016 121.704C755.512 122.558 753.649 125.447 750.503 130.395H760.899H760.824ZM707.959 229.988C709.092 226.246 710.2 221.423 711.282 215.269L715.26 192.713C716.392 186.333 716.795 183.319 716.997 180.179C720.219 180.43 723.214 180.531 729.13 180.531H791.737C797.527 180.531 800.573 180.405 803.896 180.179C803.015 183.193 802.36 186.082 801.202 192.713L797.2 215.369C795.991 222.252 795.513 226.22 795.337 229.963H776.129L776.96 225.266H727.897L727.066 229.963H707.984L707.959 229.988ZM756.041 157.522L757.904 147.023H737.84C734.215 151.117 731.27 154.131 727.519 157.522H756.041ZM730.741 208.387H780.157L782.171 197.058H732.755L730.741 208.387Z" fill="#497979"/>
<path d="M68.3301 185.11C68.0737 189.972 68.6394 192.565 70.2861 195.44L70.2908 195.449L70.2959 195.457C73.118 199.974 78.9228 202.462 86.3529 202.462C97.5636 202.462 105.324 197.501 106.821 189.108L106.821 189.107C107.628 184.483 105.959 180.372 102.305 178.511C99.4826 177.038 95.9942 176.005 81.678 172.567L81.6714 172.566C68.957 169.693 64.7688 167.975 60.1902 164.334C52.4225 158.148 49.2562 148.699 51.2966 137.192L51.2968 137.191C55.1344 115.369 75.1273 101.506 103.304 101.506C121.493 101.506 134.199 107.083 139.94 117.632L139.944 117.638L139.948 117.644C142.593 122.189 143.558 126.337 143.988 134.201L113.946 137.389C113.817 132.924 112.642 129.624 110.094 127.439C107.461 125.179 103.463 124.202 97.9729 124.202C89.0652 124.202 81.457 129.016 80.2303 135.969C79.8549 138.067 80.0925 139.947 81.004 141.593C81.912 143.233 83.4604 144.589 85.6151 145.698L85.615 145.698L85.6243 145.702C86.5594 146.159 88.6384 146.78 91.7951 147.566C94.9728 148.357 99.2938 149.327 104.756 150.475C115.245 152.777 121.634 155.186 126.402 158.601L126.406 158.604C130.942 161.786 134.047 165.734 135.738 170.498C137.431 175.268 137.72 180.891 136.563 187.436L136.563 187.437C134.694 198.116 129.658 207.203 122.001 213.59C112.352 221.554 99.0895 225.697 82.3698 225.697C70.1991 225.697 58.6877 223.128 51.8225 218.736L51.8167 218.733C45.4728 214.796 41.2979 208.718 39.7654 200.67L39.7629 200.657L39.7598 200.645C38.9573 197.376 38.8217 194.183 38.9557 187.889L68.3301 185.11Z" fill="white" stroke="black"/>
<path d="M207.789 199.047C218.345 199.047 224.675 198.768 230.78 198.1L226.23 223.966C220.358 223.285 215.165 223.001 203.117 223.001H157.835C147.322 223.001 143.172 223.14 137.329 223.39C139.103 217.86 140.306 212.539 141.976 203.007L155.812 124.49L155.812 124.489C157.334 115.76 157.973 110.736 158.338 103.928C163.927 104.209 168.033 104.322 178.919 104.322H224.769C234.234 104.322 239.184 104.041 245.755 103.369L241.219 129.157C234.916 128.473 229.794 128.187 220.397 128.187H183.021H182.602L182.529 128.6L178.815 149.75L178.712 150.337H179.308H210.364C219.632 150.337 223.183 150.194 231.5 149.38L226.994 174.873C220.588 174.188 215.717 173.901 206.022 173.901H174.965H174.546L174.473 174.315L170.22 198.46L170.117 199.047H170.713H207.789Z" fill="white" stroke="black"/>
<path d="M293.503 104.382C291.702 110.032 290.575 114.958 288.786 125.065L288.786 125.065L275.189 202.145L275.189 202.146C273.497 211.806 272.823 217.14 272.594 223.001H242.14C243.899 217.545 245.212 211.569 246.854 202.319L246.855 202.319L260.451 125.239L260.451 125.238C262.292 114.714 262.769 110.47 263.043 104.382H293.503Z" fill="white" stroke="black"/>
<path d="M360.743 205.024L360.742 205.023L344.75 169.374L344.477 168.766L343.97 169.198L326.899 183.727L326.762 183.844L326.731 184.021L323.526 202.145L323.526 202.146C321.998 210.904 321.419 215.642 320.944 223.001H291.593C293.64 215.969 294.844 210.71 296.33 202.319L296.33 202.319L309.926 125.239C311.45 116.649 312.146 111.084 312.513 104.382H341.861C339.791 111.527 338.697 116.262 337.123 125.064L337.123 125.065L332.631 150.529L332.378 151.958L333.457 150.987L367.476 120.373C367.477 120.373 367.477 120.373 367.477 120.372C374.063 114.526 378.637 109.668 382.724 104.382H419.93C418.924 105.243 418.133 105.941 417.392 106.597C417.299 106.679 417.207 106.761 417.116 106.841C416.243 107.615 415.415 108.348 414.349 109.253L414.348 109.253C408.478 114.246 404.535 117.601 402.518 119.319L402.518 119.319L402.511 119.325L366.903 150.81L366.615 151.065L366.787 151.409L392.422 202.454C392.422 202.454 392.422 202.455 392.422 202.455C398.411 214.551 399.968 217.479 403.46 223.001H367.38C366.122 218.324 363.373 210.93 360.743 205.024Z" fill="white" stroke="black"/>
<path d="M529.045 223.001H496.575C496.62 216.413 496.406 212.712 495.849 207.926L495.849 207.926L495.847 207.913L494.11 195.691L494.049 195.261H493.615H452.646H452.335L452.198 195.539L446.149 207.76C446.149 207.76 446.148 207.761 446.148 207.761C443.326 213.407 441.536 217.824 439.909 223.001H407.58C410.226 219 412.222 215.383 417.089 206.181C417.089 206.181 417.09 206.181 417.09 206.18L463.387 119.639C463.387 119.639 463.388 119.638 463.388 119.638C467.124 112.777 469.166 108.481 470.638 104.382H507.342C507.611 108.386 508.002 112.15 509.476 119.494C509.476 119.496 509.476 119.497 509.476 119.499L525.407 206.036C526.716 213.263 527.945 218.963 529.045 223.001ZM484.78 127.977H484.467L484.33 128.259L463.367 171.397L463.017 172.116H463.816H490.86H491.435L491.355 171.546L485.305 128.408L485.245 127.977H484.81H484.78Z" fill="white" stroke="black"/>
<path d="M587.218 104.382C585.417 110.032 584.291 114.958 582.501 125.065L582.501 125.065L568.904 202.145L568.904 202.146C567.212 211.806 566.538 217.14 566.309 223.001H535.855C537.614 217.545 538.928 211.569 540.57 202.319L540.57 202.319L554.166 125.239L554.166 125.238C556.007 114.714 556.484 110.47 556.758 104.382H587.218Z" fill="white" stroke="black"/>
</svg>
