<svg width="293" height="338" viewBox="0 0 293 338" fill="none" xmlns="http://www.w3.org/2000/svg">
<path opacity="0.5" d="M203.085 29.5912C191.842 29.5912 185.518 29.9074 178.508 30.6762L183.82 0.554138C190.422 1.34831 198.859 1.6558 210.007 1.6558H265.929C280.685 1.6558 285.523 1.50442 292.083 1.04165L287.385 27.701C275.586 38.5731 269.772 45.2357 258.906 60.9178C241.238 86.179 231.759 106.038 221.933 138.29H184.792C194.144 112.22 202.459 95.0129 215.707 74.7021C225.433 59.838 233.533 49.4426 250.617 30.4253L251.366 29.5912H250.245H203.085Z" fill="white" stroke="#237682"/>
<g opacity="0.5">
<path d="M47.6134 174.367C47.6488 181.569 48.4276 184.637 51.2596 188.344C56.074 194.464 64.1984 197.728 74.6592 197.728C91.6513 197.728 103.829 189.214 106.183 175.892C107.758 166.935 104.625 159.946 97.7224 157.108C93.0142 155.352 86.4475 154.27 77.9514 154.27C69.4553 154.27 59.5786 154.713 50.9233 155.583L57.5254 118.031C64.7825 118.901 71.8979 119.344 80.394 119.344C101.103 119.344 112.573 112.355 115.033 98.3779C117.104 86.5822 110.024 79.8241 95.6338 79.8241C80.1639 79.8241 71.243 85.9437 65.5082 99.9211L19.6294 93.1452C26.1431 79.6112 30.7982 73.0482 39.1173 65.4209C54.9412 50.9823 76.2876 43.5679 102.873 43.5679C126.627 43.5679 145.088 50.1131 155.389 62.1217C162.027 70.1924 164.328 80.6755 162.133 93.1275C158.062 116.275 143.106 130.679 117.016 136.585C129.954 138.554 136.61 141.605 143.088 148.15C150.787 156.452 154.009 167.804 151.779 180.469C149.814 191.608 144.964 201.861 137.955 209.506C132.008 216.051 123.299 222.171 114.591 225.878C102.342 231.11 84.111 234.392 67.7738 234.392C48.1621 234.392 29.3645 229.816 19.1515 222.171C10.2838 215.625 4.33653 206.011 1.66381 194.003C0.902707 190.952 0.531004 188.114 0 182.438L47.6134 174.367Z" fill="#55B5C3"/>
</g>
<g opacity="0.3">
<path d="M88.8713 194.197L88.3806 194.113L88.2941 194.603L82.8914 225.218L82.7754 225.876L83.4387 225.802C90.8393 224.984 97.3392 224.649 103.772 224.649H109.788L95.0139 308.436C95.0139 308.436 95.0139 308.436 95.0139 308.436C93.3223 318.022 91.6331 325.781 89.3031 333.36L89.1042 334.007H89.781H125.853H126.327L126.352 333.534C126.781 325.456 127.678 318.529 129.423 308.61L144.704 221.912C146.637 210.998 148.179 204.064 150.553 195.318L150.743 194.619L150.022 194.69C143.316 195.346 141.187 195.346 129.441 195.346H108.435C98.8439 195.346 94.6059 195.184 88.8713 194.197Z" fill="white" stroke="#477B83"/>
<path d="M158.863 321.407L159.213 321.831L159.229 321.816C167.659 331.775 180.491 336.964 196.584 336.964C217.743 336.964 236.893 327.633 249.836 310.967C258.031 300.469 265.393 282.188 268.467 264.756C270.868 251.146 270.965 238.343 268.721 226.529L268.721 226.525C267.387 219.828 264.325 213.463 259.773 207.946L259.77 207.942C251.308 197.873 238.05 192.375 221.891 192.375C200.889 192.375 181.902 201.709 168.745 218.709C160.551 229.22 153.216 247.325 150.142 264.758C147.767 278.207 147.671 291.01 149.914 302.824L149.915 302.828C151.249 309.525 154.311 315.89 158.863 321.407ZM185.276 263.601L185.276 263.601C187.648 250.156 191.659 239.569 197.039 232.356C202.407 225.156 209.124 221.33 216.958 221.33C220.891 221.33 224.172 222.241 226.813 224.014C229.454 225.786 231.493 228.443 232.902 231.996C235.727 239.124 235.995 249.807 233.507 263.924C230.912 278.615 226.945 289.613 221.629 296.928C216.329 304.221 209.694 307.848 201.691 307.848C197.677 307.848 194.352 306.916 191.691 305.094C189.03 303.272 186.995 300.535 185.606 296.857C182.821 289.479 182.667 278.38 185.276 263.601Z" fill="white" stroke="#477B83"/>
</g>
</svg>
