<svg width="311" height="92" viewBox="0 0 311 92" fill="none" xmlns="http://www.w3.org/2000/svg">
<rect x="0.0709229" width="310.858" height="91.5974" rx="20" fill="white"/>
<g filter="url(#filter0_d_52_960)">
<path d="M243.561 66.6683V52.9163C243.561 44.9243 245.433 45.4283 252.489 45.4283C254.793 45.4283 258.321 45.2123 258.321 42.1883C258.321 39.8843 253.785 39.8843 252.201 39.8843C250.761 39.8843 249.393 40.1003 247.953 40.1003C243.417 40.1003 241.185 39.7403 241.185 34.5563C241.185 30.8123 243.201 29.4443 246.801 29.4443C248.889 29.4443 250.977 29.8043 253.137 29.8043C254.433 29.8043 258.249 29.7323 258.249 27.7883C258.249 25.6283 255.585 25.4843 254.001 25.4843C252.273 25.4843 250.617 25.7723 248.889 25.7723C244.425 25.7723 244.065 23.3963 244.065 19.5803C244.065 18.0683 244.425 16.7723 245.937 16.1963C247.737 15.5483 249.753 15.5483 251.697 15.3323C257.169 14.7563 262.713 14.8283 268.185 13.8923C272.361 13.1723 276.393 12.2363 280.713 12.2363C283.737 12.2363 286.401 18.4283 286.401 20.9483C286.401 23.1083 271.857 23.1083 271.857 26.4923C271.857 29.5163 275.097 30.0203 277.545 30.0203C278.913 30.0203 280.209 29.8763 281.577 29.8763C287.049 29.8763 289.929 29.8043 289.929 36.2843C289.929 40.3163 285.105 40.3883 282.081 40.3883C280.137 40.3883 278.193 40.1003 276.177 40.1003C273.729 40.1003 272.145 40.3163 272.145 43.1243C272.145 45.2123 275.961 45.2843 277.401 45.2843C278.697 45.2843 279.921 45.1403 281.217 45.1403C286.185 45.1403 286.689 47.3723 286.689 51.7643C286.689 57.5243 286.473 63.2123 284.961 68.8283C283.593 74.0843 278.913 73.9403 274.377 73.9403C270.705 73.9403 274.305 71.4923 269.841 71.4923C266.241 71.4923 262.569 71.7083 258.969 71.7083C258.465 71.7083 257.745 71.7083 257.241 71.9243C255.513 72.6443 257.673 74.5163 251.697 74.5163C246.009 74.5163 243.561 72.5003 243.561 66.6683ZM240.897 19.3643V19.7963C240.897 22.2443 237.225 27.0683 234.633 27.0683C232.401 27.0683 224.841 22.1003 224.841 19.7963C224.841 17.7083 229.521 12.9563 231.609 12.9563C234.489 12.9563 239.313 17.1323 240.897 19.3643ZM239.025 36.8603C239.025 38.9483 234.921 43.8443 232.761 43.8443C230.745 43.8443 220.953 36.2123 220.953 34.2683C220.953 32.2523 225.633 27.8603 227.577 27.8603C229.809 27.8603 239.025 34.6283 239.025 36.8603ZM231.897 47.3003H232.257C235.137 47.3003 240.681 48.8843 240.681 52.4843C240.681 55.2203 234.921 72.7883 232.545 72.7883C229.953 72.7883 223.545 69.1163 223.545 66.2363C223.545 63.2843 229.377 48.5963 231.897 47.3003ZM256.305 57.8843V59.1083C256.305 61.8443 258.321 62.4203 260.697 62.4203C262.425 62.4203 264.081 62.5643 265.809 62.5643C269.481 62.5643 273.441 61.9883 273.441 57.4523C273.441 54.8603 271.353 54.3563 269.121 54.3563C268.185 54.3563 267.177 54.4283 266.241 54.4283C265.017 54.4283 263.721 54.3563 262.497 54.3563C260.049 54.3563 256.305 54.6443 256.305 57.8843Z" fill="url(#paint0_linear_52_960)"/>
<path d="M211.001 54.3179V54.2489C205.276 63.5619 195.894 71.1502 184.511 71.1502C165.195 71.1502 159.953 60.4576 159.953 43.2114C159.953 38.7963 159.953 18.8597 163.333 16.2383C165.471 14.5827 169.541 15.0655 171.335 15.0655C176.233 15.0655 177.889 16.3763 177.889 20.8603C177.889 28.5176 176.509 35.2781 176.026 43.6943C175.681 50.1788 174.163 57.5602 182.786 57.6982C187.96 57.7672 192.168 50.9377 195.066 46.6606C196.721 43.9012 198.584 39.5552 202.378 39.5552C204.724 39.5552 214.382 43.9702 214.382 46.9366C214.382 49.282 212.174 52.3174 211.001 54.3179Z" fill="url(#paint1_linear_52_960)"/>
<path d="M87.9861 63.7884L88.4901 62.5644V61.4844C88.4901 60.5484 88.5621 59.5404 88.5621 58.6044C88.5621 55.4364 86.6901 55.1484 84.0261 55.1484C81.7221 55.1484 81.5061 49.8924 81.5061 48.2364C81.5061 43.2684 83.6661 45.2844 86.2581 43.9164C87.8421 43.1244 87.9141 40.8204 87.9141 39.3084C87.9141 38.0844 88.0581 36.9324 88.0581 35.7084C88.0581 29.2284 81.5781 35.1324 81.5781 29.0124C81.5781 27.4284 81.5061 25.6284 82.0821 24.1164C83.3781 20.8764 86.7621 23.1804 88.0581 21.0204C89.4981 18.6444 88.7061 15.4044 89.7141 13.1724C90.0021 12.5964 90.5781 12.2364 91.1541 12.0204C92.8101 11.3004 94.8981 11.0844 96.6981 11.0844C99.5781 11.0844 101.45 11.2284 101.45 14.7564C101.45 15.9804 101.234 17.2044 101.234 18.4284C101.234 23.9724 105.842 18.4284 105.842 24.5484C105.842 25.4124 105.626 26.2764 105.626 27.1404L106.346 27.5004C107.714 27.2844 109.514 19.9404 109.946 18.5004C110.594 16.1964 111.818 13.1004 113.33 11.2284C114.482 9.86035 115.49 10.0044 117.146 10.0044C119.45 10.0044 123.842 10.3644 123.842 13.5324C123.842 14.6124 123.41 15.6924 123.41 16.7724C123.41 18.2124 124.778 18.5724 126.002 18.5724C132.482 18.5724 127.154 10.1484 133.13 10.1484C135.578 10.1484 141.338 10.7244 141.338 14.1084C141.338 15.1164 140.978 16.1244 140.978 17.1324C140.978 19.5804 144.074 19.0764 145.73 19.3644C148.178 19.7244 148.394 25.1244 148.394 26.9964C148.394 29.3724 144.074 28.8684 142.634 28.8684C140.978 28.8684 140.042 29.0124 140.042 30.8844C140.042 37.5084 148.322 29.1564 148.322 39.3804C148.322 42.8364 145.658 42.6924 142.994 42.6924C140.474 42.6924 140.258 43.9164 140.258 46.1484V46.5804C140.258 47.9484 145.442 47.7324 146.306 47.7324C148.322 47.7324 148.25 50.6124 148.25 51.9804C148.25 54.6444 147.602 56.5164 144.506 56.5164H143.354C140.906 56.5164 139.754 57.1644 139.754 59.7564C139.754 61.3404 141.698 61.6284 142.922 61.6284C144.002 61.6284 145.01 61.4124 146.09 61.4124C148.538 61.4124 148.61 62.7804 148.61 64.8684C148.61 66.5964 148.538 68.2524 147.098 69.4044C142.346 73.2924 120.242 69.6924 120.242 74.1564C119.594 75.5244 117.506 75.5964 116.21 75.5964C112.754 75.5964 108.722 75.5244 108.146 71.2764C107.714 68.0364 107.57 64.7244 107.498 61.4124C107.426 58.1004 107.426 54.8604 107.426 51.5484C107.426 50.3244 107.21 42.5484 105.914 42.5484C105.842 42.6924 105.554 43.4124 105.554 43.5564C105.554 45.2844 106.274 46.9404 106.274 48.6684C106.274 53.2764 100.73 50.0364 100.73 55.5804C100.73 59.1084 101.09 62.6364 101.09 66.1644C101.09 71.2764 100.226 74.1564 94.4661 74.1564C87.3381 74.1564 82.8741 73.8684 82.8741 65.3004C82.8741 64.1484 83.6661 63.5004 84.8181 63.5004C85.8981 63.5004 86.9061 63.7884 87.9861 63.7884ZM124.634 28.5804H123.626C121.682 28.5804 120.602 28.9404 120.602 31.1004C120.602 33.3324 121.682 33.7644 123.698 33.7644H124.634C126.362 33.7644 127.586 33.4044 127.586 31.4604V30.1644C127.586 28.7964 125.714 28.5804 124.634 28.5804ZM103.178 40.5324L102.89 39.8124C102.242 39.5244 101.594 38.8764 101.594 38.1564C101.594 35.9964 104.186 34.3404 104.186 32.3244C104.186 31.6044 103.034 31.6764 102.53 31.6764C100.874 31.6764 100.658 33.4044 100.658 34.7004C100.658 36.5004 100.73 38.3004 100.73 40.1004C100.73 40.5324 101.45 41.0364 101.882 41.0364L103.178 40.5324ZM120.674 45.0684V45.6444C120.674 48.0204 122.546 47.8764 124.418 47.8764C126.938 47.8764 127.658 47.3004 127.658 44.7084C127.658 42.6204 125.93 42.6924 124.346 42.6924H122.978C121.61 42.6924 120.674 43.7004 120.674 45.0684ZM125.21 56.9484H123.626C121.25 56.9484 120.53 57.5244 120.53 59.9724C120.53 61.7724 121.538 62.0604 123.194 62.0604C126.074 62.0604 127.442 62.1324 127.442 58.7484C127.442 57.0924 126.65 56.9484 125.21 56.9484Z" fill="url(#paint2_linear_52_960)"/>
<path d="M32.4713 23.3523L33.1553 20.1603C33.8393 17.1203 37.2593 17.1203 39.6913 17.1203C42.4273 17.1203 46.3793 16.5123 46.3793 20.1603C46.3793 22.0603 45.6953 23.8843 45.6953 25.7843C45.6953 26.8483 47.2153 27.1523 48.0513 27.1523C48.9633 27.1523 49.5713 26.6963 49.8753 25.8603C50.6353 23.9603 50.6353 21.8323 51.0153 19.8563C51.6233 16.7403 55.1193 17.4243 57.4753 17.4243C60.5913 17.4243 63.9353 17.3483 63.9353 21.3763C63.9353 22.8203 63.7833 24.2643 63.7833 25.7083C63.7833 28.4443 66.7473 27.0003 67.9633 28.2923C69.1033 29.5843 69.1033 31.8643 69.1033 33.4603C69.1033 34.5243 69.2553 36.5763 68.4953 37.4123C67.7353 38.2483 65.7593 38.1723 64.6953 38.1723C61.1233 38.1723 60.5913 43.7203 60.5913 46.3043C60.5913 49.7243 64.0873 46.4563 64.9233 49.6483C65.1513 50.5603 65.1513 51.5483 65.1513 52.5363C65.1513 63.0243 60.0593 56.4123 57.6273 60.4403C53.5233 67.2803 59.7553 70.8523 47.4433 70.8523C44.9353 70.8523 42.7313 70.3963 42.7313 67.4323C42.7313 65.2283 43.5673 63.1763 43.5673 60.9723C43.5673 59.8323 43.0353 59.3003 41.8953 59.3003C35.8153 59.3003 41.8953 70.3963 32.7753 70.3963C29.2793 70.3963 25.0233 70.6243 25.0233 65.9883C25.0233 64.2403 25.1753 62.4923 25.1753 60.7443C25.1753 57.5523 22.2113 59.6043 20.9953 57.7803C20.1593 56.5643 20.0833 54.6643 20.0833 53.2203C20.0833 52.0803 19.9313 49.8763 20.6913 48.9643C21.3753 48.1283 23.5793 48.2043 24.5673 48.2043C28.2153 48.2043 28.7473 42.1243 28.7473 39.4643L28.6713 38.7043C26.8473 36.8803 24.1113 40.1483 24.1113 34.7523C24.1113 30.8003 23.7313 27.3803 28.6713 27.3803C29.7353 27.3803 30.7993 27.1523 31.4073 26.1643C31.9393 25.3283 32.2433 24.3403 32.4713 23.3523ZM41.9713 46.6843C41.9713 48.0523 43.1113 48.2803 44.2513 48.2803C46.8353 48.2803 47.4433 41.8963 47.4433 40.0723C47.4433 38.4003 46.6073 38.0203 45.0873 38.0203C42.2753 38.0203 41.9713 44.7083 41.9713 46.6843Z" fill="url(#paint3_linear_52_960)"/>
<path d="M243.561 66.6683V52.9163C243.561 44.9243 245.433 45.4283 252.489 45.4283C254.793 45.4283 258.321 45.2123 258.321 42.1883C258.321 39.8843 253.785 39.8843 252.201 39.8843C250.761 39.8843 249.393 40.1003 247.953 40.1003C243.417 40.1003 241.185 39.7403 241.185 34.5563C241.185 30.8123 243.201 29.4443 246.801 29.4443C248.889 29.4443 250.977 29.8043 253.137 29.8043C254.433 29.8043 258.249 29.7323 258.249 27.7883C258.249 25.6283 255.585 25.4843 254.001 25.4843C252.273 25.4843 250.617 25.7723 248.889 25.7723C244.425 25.7723 244.065 23.3963 244.065 19.5803C244.065 18.0683 244.425 16.7723 245.937 16.1963C247.737 15.5483 249.753 15.5483 251.697 15.3323C257.169 14.7563 262.713 14.8283 268.185 13.8923C272.361 13.1723 276.393 12.2363 280.713 12.2363C283.737 12.2363 286.401 18.4283 286.401 20.9483C286.401 23.1083 271.857 23.1083 271.857 26.4923C271.857 29.5163 275.097 30.0203 277.545 30.0203C278.913 30.0203 280.209 29.8763 281.577 29.8763C287.049 29.8763 289.929 29.8043 289.929 36.2843C289.929 40.3163 285.105 40.3883 282.081 40.3883C280.137 40.3883 278.193 40.1003 276.177 40.1003C273.729 40.1003 272.145 40.3163 272.145 43.1243C272.145 45.2123 275.961 45.2843 277.401 45.2843C278.697 45.2843 279.921 45.1403 281.217 45.1403C286.185 45.1403 286.689 47.3723 286.689 51.7643C286.689 57.5243 286.473 63.2123 284.961 68.8283C283.593 74.0843 278.913 73.9403 274.377 73.9403C270.705 73.9403 274.305 71.4923 269.841 71.4923C266.241 71.4923 262.569 71.7083 258.969 71.7083C258.465 71.7083 257.745 71.7083 257.241 71.9243C255.513 72.6443 257.673 74.5163 251.697 74.5163C246.009 74.5163 243.561 72.5003 243.561 66.6683ZM240.897 19.3643V19.7963C240.897 22.2443 237.225 27.0683 234.633 27.0683C232.401 27.0683 224.841 22.1003 224.841 19.7963C224.841 17.7083 229.521 12.9563 231.609 12.9563C234.489 12.9563 239.313 17.1323 240.897 19.3643ZM239.025 36.8603C239.025 38.9483 234.921 43.8443 232.761 43.8443C230.745 43.8443 220.953 36.2123 220.953 34.2683C220.953 32.2523 225.633 27.8603 227.577 27.8603C229.809 27.8603 239.025 34.6283 239.025 36.8603ZM231.897 47.3003H232.257C235.137 47.3003 240.681 48.8843 240.681 52.4843C240.681 55.2203 234.921 72.7883 232.545 72.7883C229.953 72.7883 223.545 69.1163 223.545 66.2363C223.545 63.2843 229.377 48.5963 231.897 47.3003ZM256.305 57.8843V59.1083C256.305 61.8443 258.321 62.4203 260.697 62.4203C262.425 62.4203 264.081 62.5643 265.809 62.5643C269.481 62.5643 273.441 61.9883 273.441 57.4523C273.441 54.8603 271.353 54.3563 269.121 54.3563C268.185 54.3563 267.177 54.4283 266.241 54.4283C265.017 54.4283 263.721 54.3563 262.497 54.3563C260.049 54.3563 256.305 54.6443 256.305 57.8843Z" stroke="white"/>
<path d="M211.001 54.3179V54.2489C205.276 63.5619 195.894 71.1502 184.511 71.1502C165.195 71.1502 159.953 60.4576 159.953 43.2114C159.953 38.7963 159.953 18.8597 163.333 16.2383C165.471 14.5827 169.541 15.0655 171.335 15.0655C176.233 15.0655 177.889 16.3763 177.889 20.8603C177.889 28.5176 176.509 35.2781 176.026 43.6943C175.681 50.1788 174.163 57.5602 182.786 57.6982C187.96 57.7672 192.168 50.9377 195.066 46.6606C196.721 43.9012 198.584 39.5552 202.378 39.5552C204.724 39.5552 214.382 43.9702 214.382 46.9366C214.382 49.282 212.174 52.3174 211.001 54.3179Z" stroke="white"/>
<path d="M87.9861 63.7884L88.4901 62.5644V61.4844C88.4901 60.5484 88.5621 59.5404 88.5621 58.6044C88.5621 55.4364 86.6901 55.1484 84.0261 55.1484C81.7221 55.1484 81.5061 49.8924 81.5061 48.2364C81.5061 43.2684 83.6661 45.2844 86.2581 43.9164C87.8421 43.1244 87.9141 40.8204 87.9141 39.3084C87.9141 38.0844 88.0581 36.9324 88.0581 35.7084C88.0581 29.2284 81.5781 35.1324 81.5781 29.0124C81.5781 27.4284 81.5061 25.6284 82.0821 24.1164C83.3781 20.8764 86.7621 23.1804 88.0581 21.0204C89.4981 18.6444 88.7061 15.4044 89.7141 13.1724C90.0021 12.5964 90.5781 12.2364 91.1541 12.0204C92.8101 11.3004 94.8981 11.0844 96.6981 11.0844C99.5781 11.0844 101.45 11.2284 101.45 14.7564C101.45 15.9804 101.234 17.2044 101.234 18.4284C101.234 23.9724 105.842 18.4284 105.842 24.5484C105.842 25.4124 105.626 26.2764 105.626 27.1404L106.346 27.5004C107.714 27.2844 109.514 19.9404 109.946 18.5004C110.594 16.1964 111.818 13.1004 113.33 11.2284C114.482 9.86035 115.49 10.0044 117.146 10.0044C119.45 10.0044 123.842 10.3644 123.842 13.5324C123.842 14.6124 123.41 15.6924 123.41 16.7724C123.41 18.2124 124.778 18.5724 126.002 18.5724C132.482 18.5724 127.154 10.1484 133.13 10.1484C135.578 10.1484 141.338 10.7244 141.338 14.1084C141.338 15.1164 140.978 16.1244 140.978 17.1324C140.978 19.5804 144.074 19.0764 145.73 19.3644C148.178 19.7244 148.394 25.1244 148.394 26.9964C148.394 29.3724 144.074 28.8684 142.634 28.8684C140.978 28.8684 140.042 29.0124 140.042 30.8844C140.042 37.5084 148.322 29.1564 148.322 39.3804C148.322 42.8364 145.658 42.6924 142.994 42.6924C140.474 42.6924 140.258 43.9164 140.258 46.1484V46.5804C140.258 47.9484 145.442 47.7324 146.306 47.7324C148.322 47.7324 148.25 50.6124 148.25 51.9804C148.25 54.6444 147.602 56.5164 144.506 56.5164H143.354C140.906 56.5164 139.754 57.1644 139.754 59.7564C139.754 61.3404 141.698 61.6284 142.922 61.6284C144.002 61.6284 145.01 61.4124 146.09 61.4124C148.538 61.4124 148.61 62.7804 148.61 64.8684C148.61 66.5964 148.538 68.2524 147.098 69.4044C142.346 73.2924 120.242 69.6924 120.242 74.1564C119.594 75.5244 117.506 75.5964 116.21 75.5964C112.754 75.5964 108.722 75.5244 108.146 71.2764C107.714 68.0364 107.57 64.7244 107.498 61.4124C107.426 58.1004 107.426 54.8604 107.426 51.5484C107.426 50.3244 107.21 42.5484 105.914 42.5484C105.842 42.6924 105.554 43.4124 105.554 43.5564C105.554 45.2844 106.274 46.9404 106.274 48.6684C106.274 53.2764 100.73 50.0364 100.73 55.5804C100.73 59.1084 101.09 62.6364 101.09 66.1644C101.09 71.2764 100.226 74.1564 94.4661 74.1564C87.3381 74.1564 82.8741 73.8684 82.8741 65.3004C82.8741 64.1484 83.6661 63.5004 84.8181 63.5004C85.8981 63.5004 86.9061 63.7884 87.9861 63.7884ZM124.634 28.5804H123.626C121.682 28.5804 120.602 28.9404 120.602 31.1004C120.602 33.3324 121.682 33.7644 123.698 33.7644H124.634C126.362 33.7644 127.586 33.4044 127.586 31.4604V30.1644C127.586 28.7964 125.714 28.5804 124.634 28.5804ZM103.178 40.5324L102.89 39.8124C102.242 39.5244 101.594 38.8764 101.594 38.1564C101.594 35.9964 104.186 34.3404 104.186 32.3244C104.186 31.6044 103.034 31.6764 102.53 31.6764C100.874 31.6764 100.658 33.4044 100.658 34.7004C100.658 36.5004 100.73 38.3004 100.73 40.1004C100.73 40.5324 101.45 41.0364 101.882 41.0364L103.178 40.5324ZM120.674 45.0684V45.6444C120.674 48.0204 122.546 47.8764 124.418 47.8764C126.938 47.8764 127.658 47.3004 127.658 44.7084C127.658 42.6204 125.93 42.6924 124.346 42.6924H122.978C121.61 42.6924 120.674 43.7004 120.674 45.0684ZM125.21 56.9484H123.626C121.25 56.9484 120.53 57.5244 120.53 59.9724C120.53 61.7724 121.538 62.0604 123.194 62.0604C126.074 62.0604 127.442 62.1324 127.442 58.7484C127.442 57.0924 126.65 56.9484 125.21 56.9484Z" stroke="white"/>
<path d="M32.4713 23.3523L33.1553 20.1603C33.8393 17.1203 37.2593 17.1203 39.6913 17.1203C42.4273 17.1203 46.3793 16.5123 46.3793 20.1603C46.3793 22.0603 45.6953 23.8843 45.6953 25.7843C45.6953 26.8483 47.2153 27.1523 48.0513 27.1523C48.9633 27.1523 49.5713 26.6963 49.8753 25.8603C50.6353 23.9603 50.6353 21.8323 51.0153 19.8563C51.6233 16.7403 55.1193 17.4243 57.4753 17.4243C60.5913 17.4243 63.9353 17.3483 63.9353 21.3763C63.9353 22.8203 63.7833 24.2643 63.7833 25.7083C63.7833 28.4443 66.7473 27.0003 67.9633 28.2923C69.1033 29.5843 69.1033 31.8643 69.1033 33.4603C69.1033 34.5243 69.2553 36.5763 68.4953 37.4123C67.7353 38.2483 65.7593 38.1723 64.6953 38.1723C61.1233 38.1723 60.5913 43.7203 60.5913 46.3043C60.5913 49.7243 64.0873 46.4563 64.9233 49.6483C65.1513 50.5603 65.1513 51.5483 65.1513 52.5363C65.1513 63.0243 60.0593 56.4123 57.6273 60.4403C53.5233 67.2803 59.7553 70.8523 47.4433 70.8523C44.9353 70.8523 42.7313 70.3963 42.7313 67.4323C42.7313 65.2283 43.5673 63.1763 43.5673 60.9723C43.5673 59.8323 43.0353 59.3003 41.8953 59.3003C35.8153 59.3003 41.8953 70.3963 32.7753 70.3963C29.2793 70.3963 25.0233 70.6243 25.0233 65.9883C25.0233 64.2403 25.1753 62.4923 25.1753 60.7443C25.1753 57.5523 22.2113 59.6043 20.9953 57.7803C20.1593 56.5643 20.0833 54.6643 20.0833 53.2203C20.0833 52.0803 19.9313 49.8763 20.6913 48.9643C21.3753 48.1283 23.5793 48.2043 24.5673 48.2043C28.2153 48.2043 28.7473 42.1243 28.7473 39.4643L28.6713 38.7043C26.8473 36.8803 24.1113 40.1483 24.1113 34.7523C24.1113 30.8003 23.7313 27.3803 28.6713 27.3803C29.7353 27.3803 30.7993 27.1523 31.4073 26.1643C31.9393 25.3283 32.2433 24.3403 32.4713 23.3523ZM41.9713 46.6843C41.9713 48.0523 43.1113 48.2803 44.2513 48.2803C46.8353 48.2803 47.4433 41.8963 47.4433 40.0723C47.4433 38.4003 46.6073 38.0203 45.0873 38.0203C42.2753 38.0203 41.9713 44.7083 41.9713 46.6843Z" stroke="white"/>
</g>
<path d="M244.065 20.0808C244.065 19.2941 244.157 18.5058 244.483 17.823C244.818 17.1205 245.385 16.5634 246.259 16.2302L246.268 16.2263C247.221 15.8831 248.22 15.7159 249.207 15.6062C249.702 15.5513 250.2 15.5099 250.689 15.4695C251.181 15.4289 251.664 15.3888 252.142 15.3357H252.145C254.895 15.0462 257.667 14.9191 260.41 14.7488C263.16 14.578 265.892 14.3633 268.6 13.9001L270.151 13.6238C273.768 12.9639 277.384 12.2371 281.213 12.2371C282.144 12.2372 282.993 12.7121 283.715 13.3757C284.442 14.0432 285.09 14.9445 285.627 15.9041C286.694 17.8071 287.401 20.0711 287.401 21.449C287.401 22.026 286.923 22.3886 286.512 22.6091C286.061 22.8513 285.446 23.0535 284.755 23.2341C283.37 23.5964 281.522 23.9107 279.722 24.2537C277.901 24.6008 276.122 24.9788 274.804 25.4714C274.144 25.7183 273.635 25.9811 273.3 26.2576C272.969 26.5305 272.857 26.7723 272.857 26.9929C272.857 27.654 273.032 28.1479 273.306 28.5271C273.584 28.9113 273.988 29.209 274.489 29.4353C275.505 29.8942 276.839 30.0212 278.045 30.0212C278.713 30.0212 279.366 29.986 280.034 29.95C280.697 29.9141 281.377 29.8767 282.077 29.8767C283.436 29.8767 284.668 29.8725 285.736 29.9695C286.803 30.0665 287.758 30.2687 288.55 30.7156C290.201 31.6467 290.929 33.4987 290.929 36.7849C290.929 37.9014 290.592 38.7822 290.005 39.4558C289.427 40.1197 288.639 40.5458 287.795 40.824C286.122 41.3752 284.078 41.3894 282.58 41.3894C281.587 41.3894 280.597 41.3156 279.62 41.2439C278.636 41.1717 277.664 41.1013 276.677 41.1013C275.427 41.1013 274.559 41.166 273.993 41.4929C273.507 41.7732 273.145 42.3153 273.145 43.6248C273.145 43.9674 273.291 44.2277 273.574 44.4509C273.873 44.6877 274.316 44.8708 274.852 45.0027C275.921 45.2656 277.18 45.2849 277.901 45.2849C278.532 45.2849 279.149 45.2497 279.781 45.2136C280.408 45.1777 281.053 45.1414 281.717 45.1414C284.255 45.1414 285.842 45.7093 286.731 47.0261C287.161 47.6643 287.396 48.436 287.527 49.3025C287.658 50.1684 287.689 51.163 287.689 52.2654C287.689 58.0325 287.474 63.7758 285.944 69.4587C285.583 70.8409 284.997 71.8971 284.227 72.6931C283.457 73.489 282.526 74.0017 281.512 74.3318C279.512 74.9829 277.115 74.9412 274.877 74.9412C273.935 74.9412 273.303 74.7902 272.908 74.4255C272.511 74.0594 272.461 73.5529 272.414 73.3113C272.362 73.0358 272.312 72.9055 272.141 72.7927C271.922 72.6479 271.435 72.4929 270.341 72.4929C268.55 72.4929 266.739 72.5463 264.919 72.6003C263.103 72.6543 261.278 72.7087 259.469 72.7087C259.215 72.7087 258.93 72.7094 258.649 72.7341C258.364 72.7593 258.119 72.807 257.938 72.8845L257.933 72.8865C257.637 73.0098 257.528 73.16 257.436 73.3513C257.373 73.4821 257.342 73.5761 257.262 73.7605C257.192 73.9217 257.101 74.1077 256.96 74.2927C256.375 75.065 255.176 75.5173 252.197 75.5173C249.315 75.5173 247.119 75.0114 245.655 73.6462C244.181 72.2731 243.561 70.1383 243.561 67.1687V53.4167C243.561 51.4096 243.678 49.8888 243.981 48.7468C244.288 47.5895 244.799 46.7797 245.608 46.2566C246.394 45.7485 247.396 45.5553 248.584 45.4763C249.774 45.3973 251.244 45.4294 252.989 45.4294C254.142 45.4294 255.519 45.3721 256.596 44.9744C257.128 44.7781 257.555 44.5092 257.848 44.1531C258.134 43.8051 258.321 43.3398 258.321 42.6892C258.321 42.3094 258.146 42.0152 257.795 41.7625C257.427 41.497 256.887 41.2998 256.249 41.1619C254.978 40.8869 253.499 40.8855 252.701 40.8855C252.003 40.8855 251.32 40.9377 250.616 40.9919C249.916 41.0457 249.195 41.1013 248.453 41.1013C247.318 41.1013 246.298 41.0794 245.414 40.9597C244.531 40.84 243.744 40.6174 243.094 40.1912C241.75 39.3094 241.185 37.6952 241.185 35.0574C241.185 33.0981 241.715 31.6533 242.82 30.7156C243.907 29.793 245.454 29.4451 247.301 29.4451C248.37 29.4451 249.436 29.5371 250.485 29.6267C251.541 29.717 252.582 29.8054 253.637 29.8054C254.284 29.8054 255.51 29.7854 256.565 29.5388C257.094 29.415 257.536 29.2435 257.834 29.0222C258.117 28.8129 258.249 28.5807 258.249 28.2888C258.249 27.8614 258.121 27.5652 257.93 27.3445C257.731 27.1141 257.434 26.9337 257.052 26.7986C256.278 26.5243 255.294 26.4851 254.501 26.4851C253.662 26.4851 252.837 26.5554 251.988 26.6277C251.145 26.6994 250.278 26.7732 249.389 26.7732C247.074 26.7732 245.653 26.1523 244.875 24.8669C244.502 24.2506 244.304 23.5213 244.196 22.7263C244.087 21.9312 244.065 21.038 244.065 20.0808ZM240.681 52.9851C240.681 51.4813 239.524 50.3136 237.83 49.4929C236.157 48.6823 234.127 48.3016 232.757 48.3015H232.534C232.331 48.4383 232.054 48.7163 231.714 49.1667C231.332 49.6734 230.91 50.3441 230.465 51.1365C229.576 52.7198 228.619 54.751 227.737 56.8425C226.855 58.9329 226.052 61.0723 225.471 62.8689C225.18 63.7675 224.947 64.5758 224.786 65.2458C224.624 65.9261 224.545 66.4303 224.545 66.7371C224.545 67.2801 224.854 67.9359 225.466 68.6511C226.068 69.3545 226.911 70.054 227.849 70.6765C228.785 71.2977 229.799 71.8308 230.732 72.2068C231.676 72.5876 232.493 72.7888 233.045 72.7888C233.052 72.788 233.109 72.7798 233.228 72.6912C233.353 72.5974 233.507 72.4433 233.685 72.2185C234.04 71.7698 234.443 71.1052 234.874 70.2712C235.735 68.6085 236.669 66.3495 237.535 63.991C238.399 61.6351 239.19 59.1946 239.763 57.1755C240.05 56.1657 240.281 55.2648 240.44 54.5359C240.602 53.7937 240.681 53.2675 240.681 52.9851ZM273.441 57.9529C273.441 57.3727 273.325 56.9428 273.144 56.6199C272.964 56.2989 272.705 56.0551 272.373 55.8689C271.69 55.485 270.719 55.3572 269.62 55.3572C269.164 55.3572 268.687 55.3743 268.2 55.3923C267.715 55.4103 267.219 55.4294 266.741 55.4294C266.12 55.4294 265.483 55.4113 264.855 55.3933C264.224 55.3753 263.6 55.3572 262.996 55.3572C261.776 55.3572 260.31 55.432 259.162 55.8728C258.595 56.0906 258.135 56.3873 257.818 56.781C257.506 57.167 257.305 57.6794 257.305 58.3855V59.6091C257.305 60.8314 257.741 61.4828 258.37 61.864C259.048 62.2753 260.028 62.4206 261.197 62.4207C262.073 62.4207 262.93 62.458 263.774 62.4939C264.621 62.53 265.457 62.5652 266.309 62.5652C268.14 62.5652 269.945 62.4172 271.282 61.7615C271.938 61.4392 272.47 60.9997 272.84 60.4021C273.211 59.804 273.441 59.0126 273.441 57.9529ZM220.953 34.7693C220.953 34.1067 221.321 33.3469 221.8 32.6375C222.294 31.9057 222.965 31.1411 223.691 30.448C224.417 29.7546 225.21 29.1191 225.957 28.6541C226.681 28.2034 227.441 27.8612 228.077 27.8611C228.457 27.8611 228.92 27.9986 229.398 28.1931C229.89 28.3934 230.454 28.6773 231.054 29.0183C232.255 29.701 233.635 30.6306 234.941 31.6267C236.245 32.6221 237.489 33.6955 238.412 34.6697C238.873 35.156 239.266 35.6284 239.545 36.0632C239.814 36.4814 240.025 36.9331 240.025 37.3611C240.025 38.0156 239.715 38.8061 239.286 39.5759C238.848 40.3642 238.246 41.2004 237.579 41.9646C236.913 42.728 236.17 43.4341 235.442 43.9539C234.733 44.46 233.963 44.8454 233.261 44.8455C232.891 44.8455 232.43 44.6819 231.965 44.4675C231.479 44.2433 230.912 43.9254 230.302 43.5466C229.08 42.7881 227.651 41.7619 226.289 40.6775C224.929 39.5936 223.624 38.4415 222.654 37.4314C222.17 36.9275 221.759 36.4481 221.466 36.0222C221.32 35.8093 221.196 35.5999 221.107 35.4001C221.02 35.2051 220.953 34.9883 220.953 34.7693ZM240.897 20.0281C240.113 18.971 238.607 17.4756 236.939 16.2244C236.074 15.5758 235.179 15.0028 234.334 14.5945C233.482 14.1824 232.72 13.9568 232.109 13.9568C231.741 13.9568 231.162 14.1823 230.444 14.6511C229.748 15.1055 228.994 15.7397 228.297 16.4451C227.601 17.1503 226.975 17.913 226.527 18.616C226.065 19.3407 225.841 19.9259 225.841 20.2966C225.841 20.4564 225.91 20.6953 226.1 21.0164C226.286 21.3303 226.564 21.6833 226.921 22.0623C227.634 22.8195 228.62 23.6352 229.688 24.3884C230.754 25.1405 231.886 25.8199 232.881 26.3083C233.379 26.5527 233.837 26.7455 234.23 26.8767C234.631 27.0105 234.934 27.0691 235.133 27.0691C235.635 27.069 236.25 26.8299 236.92 26.366C237.582 25.908 238.252 25.2636 238.851 24.5339C239.449 23.8053 239.967 23.0058 240.332 22.2488C240.703 21.4818 240.897 20.8 240.897 20.2966V20.0281ZM274.441 57.9529C274.441 59.1609 274.176 60.1429 273.69 60.9285C273.203 61.7146 272.514 62.2702 271.722 62.6589C270.161 63.425 268.149 63.5652 266.309 63.5652C265.433 63.5652 264.576 63.5289 263.732 63.4929C262.884 63.4569 262.048 63.4207 261.197 63.4207C259.989 63.4206 258.775 63.2788 257.851 62.7185C256.877 62.1277 256.305 61.1227 256.305 59.6091V58.3855C256.305 57.4716 256.572 56.7323 257.039 56.1531C257.5 55.5816 258.129 55.1983 258.804 54.9392C260.14 54.4263 261.77 54.3572 262.996 54.3572C263.617 54.3572 264.255 54.3754 264.883 54.3933C265.514 54.4113 266.137 54.4294 266.741 54.4294C267.198 54.4294 267.675 54.4114 268.162 54.3933C268.646 54.3754 269.142 54.3572 269.62 54.3572C270.754 54.3572 271.944 54.4808 272.863 54.9968C273.332 55.2606 273.735 55.6291 274.016 56.1316C274.296 56.6321 274.441 57.2373 274.441 57.9529ZM241.681 52.9851C241.681 53.3867 241.579 54.0078 241.417 54.7498C241.252 55.5052 241.015 56.4262 240.725 57.448C240.144 59.4924 239.346 61.9576 238.473 64.3357C237.602 66.7108 236.651 69.0146 235.763 70.7312C235.32 71.587 234.882 72.3169 234.468 72.8396C234.262 73.1003 234.048 73.3262 233.828 73.491C233.612 73.6521 233.346 73.7887 233.045 73.7888C232.302 73.7888 231.344 73.5312 230.358 73.1335C229.36 72.7311 228.286 72.1662 227.296 71.5095C226.309 70.8541 225.387 70.0956 224.706 69.3005C224.036 68.5173 223.545 67.6339 223.545 66.7371C223.545 66.3059 223.648 65.7053 223.814 65.0125C223.982 64.3091 224.224 63.4751 224.52 62.5613C225.111 60.7332 225.924 58.5664 226.815 56.4539C227.706 54.3424 228.68 52.2736 229.593 50.6462C230.049 49.8336 230.496 49.1212 230.915 48.5652C231.322 48.0256 231.746 47.5734 232.168 47.3562L232.276 47.3015H232.757C234.267 47.3016 236.448 47.7124 238.267 48.5935C240.065 49.4648 241.681 50.8889 241.681 52.9851ZM221.953 34.7693C221.953 34.7934 221.962 34.8643 222.02 34.9939C222.076 35.1193 222.164 35.2733 222.289 35.4548C222.54 35.8183 222.91 36.2542 223.375 36.739C224.304 37.7066 225.573 38.8282 226.912 39.8953C228.251 40.9618 229.648 41.9639 230.829 42.697C231.421 43.064 231.949 43.3587 232.384 43.5593C232.841 43.7699 233.128 43.8455 233.261 43.8455C233.639 43.8454 234.193 43.6174 234.861 43.1404C235.51 42.677 236.197 42.0287 236.827 41.3074C237.455 40.5868 238.014 39.8074 238.412 39.0906C238.821 38.3552 239.025 37.7506 239.025 37.3611C239.025 37.2312 238.948 36.9831 238.704 36.6042C238.471 36.2417 238.125 35.8192 237.687 35.3572C236.812 34.4346 235.613 33.3973 234.334 32.4216C233.057 31.4468 231.714 30.5445 230.56 29.8884C229.982 29.5602 229.46 29.2974 229.021 29.1189C228.568 28.9347 228.254 28.8611 228.077 28.8611C227.74 28.8612 227.186 29.068 226.486 29.5037C225.809 29.9251 225.068 30.5142 224.381 31.1707C223.694 31.8274 223.074 32.5384 222.629 33.197C222.17 33.878 221.953 34.4239 221.953 34.7693ZM241.897 20.2966C241.897 21.0172 241.632 21.8573 241.233 22.6833C240.829 23.5193 240.267 24.3854 239.623 25.1687C238.981 25.951 238.245 26.6652 237.49 27.1882C236.743 27.705 235.927 28.069 235.133 28.0691C234.775 28.0691 234.353 27.9717 233.913 27.825C233.466 27.6755 232.965 27.4632 232.441 27.2058C231.391 26.6908 230.214 25.9837 229.112 25.2058C228.011 24.4291 226.967 23.57 226.193 22.7478C225.806 22.3371 225.476 21.9247 225.24 21.5261C225.008 21.1345 224.841 20.7129 224.841 20.2966C224.841 19.6235 225.203 18.8319 225.683 18.0789C226.177 17.3037 226.852 16.4866 227.586 15.7429C228.321 14.9994 229.128 14.3151 229.897 13.8132C230.643 13.3259 231.432 12.9568 232.109 12.9568C232.938 12.9568 233.859 13.2536 234.77 13.6941C235.689 14.1384 236.639 14.7493 237.538 15.4236C239.33 16.7675 240.975 18.4058 241.805 19.5759L241.897 19.7058V20.2966ZM245.065 20.0808C245.065 21.0315 245.087 21.867 245.186 22.5906C245.285 23.3142 245.456 23.8948 245.731 24.3494C246.249 25.2058 247.24 25.7732 249.389 25.7732C250.228 25.7732 251.053 25.7029 251.903 25.6306C252.745 25.5589 253.613 25.4851 254.501 25.4851C255.293 25.4851 256.433 25.5186 257.386 25.8562C257.868 26.027 258.336 26.2864 258.686 26.6902C259.044 27.1039 259.249 27.6365 259.249 28.2888C259.249 28.9689 258.904 29.475 258.43 29.8259C257.973 30.1648 257.379 30.3753 256.792 30.5125C255.615 30.7877 254.286 30.8054 253.637 30.8054C252.533 30.8054 251.45 30.7125 250.4 30.6228C249.343 30.5325 248.32 30.4451 247.301 30.4451C245.548 30.4451 244.287 30.7811 243.466 31.4783C242.663 32.1605 242.185 33.2728 242.185 35.0574C242.185 37.6031 242.736 38.7611 243.642 39.3552C244.117 39.6668 244.739 39.8588 245.549 39.9685C246.36 40.0783 247.32 40.1013 248.453 40.1013C249.15 40.1013 249.834 40.0491 250.538 39.9949C251.237 39.9411 251.958 39.8855 252.701 39.8855C253.486 39.8855 255.068 39.8834 256.46 40.1843C257.154 40.3343 257.848 40.5686 258.379 40.9509C258.928 41.3461 259.321 41.9171 259.321 42.6892C259.321 43.5503 259.066 44.2459 258.62 44.7888C258.179 45.3236 257.58 45.6762 256.942 45.9119C255.679 46.378 254.139 46.4294 252.989 46.4294C251.206 46.4294 249.796 46.3982 248.651 46.4744C247.504 46.5506 246.715 46.7308 246.151 47.0955C245.61 47.4453 245.211 48.0079 244.947 49.0037C244.678 50.0149 244.561 51.4282 244.561 53.4167V67.1687C244.561 70.0311 245.165 71.8209 246.337 72.9138C247.518 74.0146 249.39 74.5173 252.197 74.5173C255.193 74.5173 255.903 74.0329 256.163 73.6892C256.235 73.5953 256.288 73.4905 256.344 73.3621C256.39 73.2569 256.465 73.0615 256.536 72.9158C256.689 72.599 256.915 72.2885 257.349 72.0574L257.548 71.9636C257.87 71.8264 258.235 71.7668 258.561 71.738C258.892 71.7088 259.22 71.7087 259.469 71.7087C261.26 71.7087 263.071 71.6554 264.89 71.6013C266.707 71.5474 268.533 71.4929 270.341 71.4929C271.478 71.4929 272.216 71.6447 272.692 71.9587C273.216 72.3048 273.333 72.7863 273.397 73.1228C273.468 73.4933 273.486 73.5984 273.586 73.6912C273.689 73.7855 273.985 73.9412 274.877 73.9412C277.176 73.9412 279.387 73.9714 281.203 73.3806C282.096 73.0898 282.875 72.6526 283.508 71.9978C284.141 71.3433 284.653 70.4468 284.977 69.2029L284.978 69.199C286.472 63.6503 286.689 58.0179 286.689 52.2654C286.689 51.1719 286.657 50.2397 286.538 49.4519C286.42 48.6648 286.218 48.0545 285.902 47.5857C285.296 46.6886 284.147 46.1414 281.717 46.1414C281.086 46.1414 280.469 46.1765 279.837 46.2126C279.209 46.2485 278.565 46.2849 277.901 46.2849C277.181 46.2849 275.813 46.2684 274.614 45.9734C274.016 45.8262 273.414 45.6 272.953 45.2361C272.476 44.8585 272.145 44.3261 272.145 43.6248C272.145 42.1267 272.575 41.1564 273.494 40.6267C274.331 40.1439 275.479 40.1013 276.677 40.1013C277.706 40.1013 278.714 40.175 279.693 40.2468C280.677 40.3191 281.63 40.3894 282.58 40.3894C284.107 40.3894 285.988 40.3665 287.483 39.8738C288.223 39.6299 288.829 39.2821 289.25 38.7986C289.663 38.3246 289.929 37.6844 289.929 36.7849C289.929 33.5912 289.216 32.2395 288.059 31.5867C287.447 31.2417 286.657 31.0566 285.645 30.9646C284.633 30.8727 283.453 30.8767 282.077 30.8767C281.408 30.8767 280.756 30.9119 280.088 30.948C279.424 30.9839 278.745 31.0212 278.045 31.0212C276.803 31.0212 275.293 30.8955 274.078 30.3464C273.463 30.0688 272.902 29.6738 272.496 29.113C272.087 28.5472 271.857 27.8438 271.857 26.9929C271.857 26.3677 272.199 25.8692 272.663 25.4861C273.124 25.1065 273.752 24.7976 274.454 24.5349C275.863 24.0084 277.721 23.617 279.536 23.2712C281.372 22.9212 283.161 22.6183 284.502 22.2673C285.175 22.0914 285.696 21.9126 286.039 21.7283C286.364 21.5542 286.398 21.4484 286.401 21.4421C286.398 20.2986 285.774 18.2115 284.754 16.3923C284.248 15.489 283.662 14.6842 283.039 14.1121C282.412 13.5362 281.794 13.2372 281.213 13.2371C276.949 13.2371 272.983 14.1592 268.77 14.8855H268.769C266.005 15.3582 263.229 15.5756 260.472 15.7468C257.708 15.9185 254.972 16.0425 252.251 16.3289L252.252 16.3298C251.758 16.3847 251.26 16.4262 250.771 16.4666C250.279 16.5071 249.795 16.5473 249.318 16.6003C248.362 16.7066 247.452 16.8631 246.606 17.1677C245.974 17.4107 245.607 17.7884 245.385 18.2537C245.153 18.7407 245.065 19.3559 245.065 20.0808Z" fill="white"/>
<path d="M177.888 21.3399C177.888 19.133 177.476 17.8698 176.614 17.1238C175.731 16.3593 174.253 16.0244 171.814 16.0244C170.852 16.0244 169.47 15.9031 167.969 15.9889C166.573 16.0687 165.232 16.3277 164.288 16.9648L164.105 17.0967C163.785 17.345 163.454 17.8463 163.14 18.6274C162.832 19.3951 162.561 20.3753 162.326 21.514C161.857 23.7903 161.542 26.6424 161.332 29.5663C160.911 35.411 160.911 41.4834 160.911 43.6912C160.911 52.2864 162.221 59.136 165.846 63.8351C169.449 68.5054 175.42 71.1511 184.99 71.1511C196.146 71.1511 205.396 63.7087 211.072 54.4775L211.959 53.0347V53.0984C212.367 52.44 212.796 51.7403 213.188 51.0099C213.882 49.7164 214.381 48.4613 214.381 47.416C214.381 47.174 214.281 46.8728 214.042 46.5122C213.804 46.1544 213.45 45.7698 212.997 45.3707C212.093 44.5726 210.846 43.7626 209.509 43.0343C208.175 42.3077 206.768 41.6722 205.555 41.2201C204.318 40.7592 203.347 40.5136 202.857 40.5136C201.17 40.5138 199.879 41.4721 198.772 42.8528C197.652 44.2508 196.812 45.9593 195.955 47.387L195.949 47.3983L195.941 47.4095C194.504 49.5308 192.702 52.3473 190.611 54.6141C188.529 56.8693 186.06 58.6945 183.259 58.6571H183.258C181.037 58.6216 179.403 58.1187 178.232 57.2246C177.056 56.3275 176.403 55.0798 176.057 53.67C175.714 52.2685 175.668 50.6808 175.724 49.0619C175.78 47.4599 175.942 45.7326 176.026 44.1487V44.1468C176.269 39.9229 176.736 36.112 177.141 32.4201C177.546 28.7235 177.888 25.1408 177.888 21.3399ZM178.846 21.3399C178.846 25.1963 178.499 28.823 178.093 32.5249C177.687 36.2315 177.224 40.0091 176.984 44.2011C176.895 45.8589 176.738 47.4859 176.682 49.0956C176.627 50.6885 176.676 52.1703 176.987 53.4417C177.297 54.7051 177.859 55.7347 178.814 56.463C179.772 57.1942 181.183 57.6645 183.272 57.6981C185.644 57.7295 187.866 56.1751 189.907 53.9638C191.934 51.7674 193.681 49.0349 195.14 46.8808C195.937 45.5503 196.855 43.7133 198.025 42.253C199.212 40.7711 200.749 39.5557 202.857 39.5555C203.539 39.5555 204.656 39.8622 205.889 40.3218C207.146 40.7902 208.594 41.4444 209.968 42.1922C211.338 42.9384 212.652 43.7882 213.632 44.6521C214.121 45.0839 214.54 45.5313 214.84 45.9826C215.137 46.431 215.339 46.9166 215.339 47.416C215.339 48.7162 214.735 50.1522 214.032 51.4628C213.332 52.7678 212.454 54.0826 211.893 55.0399L211.001 56.5622V56.3601C205.163 65.1194 196.024 72.1092 184.99 72.1092C175.245 72.1092 168.936 69.4082 165.088 64.4209C161.263 59.4622 159.953 52.3419 159.953 43.6912C159.953 41.4839 159.952 35.3807 160.376 29.498C160.588 26.5584 160.906 23.6581 161.388 21.3212C161.628 20.1534 161.913 19.1115 162.251 18.27C162.584 17.442 162.993 16.7468 163.518 16.3397C164.708 15.4184 166.387 15.12 167.915 15.0326C169.433 14.9459 170.982 15.0663 171.814 15.0663C174.272 15.0663 176.072 15.387 177.241 16.3987C178.431 17.429 178.846 19.0632 178.846 21.3399Z" fill="white"/>
<path d="M127.442 59.2488C127.441 58.4851 127.26 58.2537 127.096 58.1482C126.991 58.0805 126.835 58.026 126.596 57.992C126.356 57.9579 126.067 57.949 125.71 57.949H124.126C122.936 57.949 122.351 58.1049 122.03 58.407C121.719 58.7009 121.53 59.2593 121.53 60.4734C121.53 61.2795 121.75 61.6022 122.013 61.7722C122.335 61.9807 122.862 62.0613 123.693 62.0613C124.424 62.0613 125.023 62.065 125.529 62.0213C126.036 61.9775 126.391 61.8894 126.649 61.741C127.099 61.4807 127.442 60.9111 127.442 59.2488ZM127.658 45.2088C127.658 44.7547 127.564 44.4701 127.444 44.2859C127.327 44.1055 127.156 43.9769 126.916 43.8845C126.394 43.6832 125.68 43.6931 124.846 43.6931H123.478C122.406 43.6933 121.674 44.4566 121.674 45.5691V46.1453C121.674 46.6762 121.779 47.0106 121.917 47.2273C122.051 47.4376 122.246 47.5823 122.518 47.6834C122.799 47.788 123.151 47.8405 123.57 47.863C123.991 47.8857 124.436 47.8767 124.918 47.8767C126.186 47.8767 126.803 47.7201 127.14 47.4021C127.468 47.0922 127.658 46.5012 127.658 45.2088ZM104.186 32.825C104.186 32.8015 104.186 32.8109 104.182 32.8074C104.156 32.7861 104.086 32.7492 103.946 32.7205C103.66 32.6617 103.318 32.6775 103.03 32.6775C102.708 32.6775 102.489 32.7591 102.331 32.8728C102.169 32.9899 102.035 33.1658 101.931 33.4041C101.714 33.8967 101.658 34.5632 101.658 35.2009C101.658 36.0855 101.675 36.971 101.693 37.8621C101.917 36.9328 102.487 36.1128 102.979 35.4021C103.308 34.9265 103.611 34.4919 103.836 34.0545C104.059 33.6213 104.186 33.2204 104.186 32.825ZM127.586 30.6648C127.586 30.2841 127.354 30.0206 126.84 29.8289C126.321 29.6353 125.655 29.5808 125.134 29.5808H124.126C123.15 29.5808 122.543 29.68 122.172 29.9402C121.852 30.1651 121.602 30.5953 121.602 31.6013C121.602 32.6475 121.855 33.118 122.192 33.3679C122.57 33.6487 123.193 33.7654 124.198 33.7654H125.134C125.99 33.7654 126.599 33.67 126.989 33.4207C127.326 33.2059 127.586 32.8176 127.586 31.9607V30.6648ZM123.842 14.033C123.842 13.37 123.617 12.8753 123.254 12.4871C122.881 12.0874 122.341 11.78 121.693 11.5525C120.39 11.0956 118.785 11.0047 117.646 11.0047C116.773 11.0046 116.191 10.9724 115.658 11.0916C115.175 11.1998 114.726 11.4407 114.212 12.0515C112.767 13.8452 111.568 16.8575 110.927 19.1365L110.925 19.1443C110.721 19.825 110.147 22.0726 109.472 24.117C109.132 25.145 108.757 26.155 108.373 26.9285C108.182 27.3137 107.979 27.6606 107.765 27.9255C107.566 28.1715 107.287 28.4375 106.924 28.4949L106.766 28.5203L106.622 28.448L105.902 28.0886L105.626 27.95V27.6414C105.626 27.173 105.684 26.7096 105.737 26.283C105.792 25.8456 105.842 25.4442 105.842 25.0486C105.842 23.5547 105.555 22.9281 105.271 22.6463C104.989 22.3673 104.602 22.3094 104.007 22.2722C103.486 22.2397 102.719 22.2296 102.136 21.7498C101.525 21.2472 101.234 20.3565 101.234 18.9295C101.234 18.2919 101.29 17.6577 101.344 17.0496C101.398 16.4338 101.45 15.8429 101.45 15.2566C101.45 13.5739 101.008 12.8788 100.404 12.531C100.073 12.3402 99.6444 12.2237 99.0968 12.1589C98.5492 12.0942 97.9195 12.0847 97.1984 12.0847C95.4245 12.0847 93.4168 12.2997 91.8536 12.9793L91.8419 12.9851L91.8292 12.989C91.3085 13.1843 90.8732 13.4797 90.6652 13.8875C90.2101 14.9018 90.1572 16.1555 90.046 17.5818C89.9384 18.9627 89.7741 20.4788 88.9855 21.78C88.5791 22.4562 88.0005 22.7802 87.3888 22.9431C86.8129 23.0964 86.1539 23.1161 85.6124 23.1619C85.0365 23.2106 84.5381 23.2892 84.1134 23.5125C83.7091 23.7251 83.3303 24.0919 83.046 24.8025C82.514 26.2056 82.5782 27.8883 82.5782 29.5134C82.5783 30.9629 82.9588 31.5393 83.3693 31.8152C83.8403 32.1318 84.4936 32.175 85.3488 32.2273C86.1277 32.2749 87.0975 32.3317 87.8448 32.8894C88.6345 33.479 89.0577 34.5176 89.0577 36.2088C89.0577 36.8381 89.0213 37.4472 88.9855 38.0388C88.9493 38.635 88.9142 39.2149 88.9142 39.8093C88.9142 40.5647 88.8976 41.5747 88.6652 42.5047C88.4335 43.4309 87.9632 44.3672 86.9904 44.8582L86.9913 44.8591C86.2703 45.2397 85.5844 45.381 84.9923 45.4656C84.3655 45.5551 83.9433 45.5761 83.5685 45.7009C83.254 45.8058 83.0185 45.9748 82.839 46.367C82.6414 46.7988 82.506 47.5168 82.506 48.7371C82.506 49.5538 82.56 51.2383 82.8898 52.7048C83.0554 53.4414 83.2816 54.081 83.5763 54.5252C83.8653 54.9606 84.1753 55.149 84.5255 55.1492C85.8389 55.1492 87.11 55.2112 88.045 55.7576C89.0546 56.3474 89.5616 57.4183 89.5616 59.1052C89.5616 59.584 89.5434 60.0792 89.5255 60.5632C89.5074 61.0511 89.4904 61.528 89.4904 61.9851V63.1638L89.4523 63.2556L88.9484 64.4793L88.8204 64.7888H88.4855C87.9058 64.7888 87.3499 64.7117 86.8331 64.6404C86.3062 64.5677 85.8175 64.5007 85.3175 64.5007C84.8322 64.5008 84.4758 64.637 84.2472 64.8416C84.0259 65.0396 83.8741 65.3469 83.8741 65.8015C83.8742 70.0076 84.9656 71.9946 86.7443 73.0076C87.6643 73.5315 88.8152 73.8239 90.2042 73.9812C91.5931 74.1384 93.1818 74.157 94.9659 74.157C97.7725 74.157 99.2257 73.4574 100.026 72.2947C100.864 71.0782 101.09 69.2293 101.09 66.6648C101.09 64.9158 101 63.1643 100.91 61.3982C100.82 59.6365 100.73 57.8596 100.73 56.0808C100.73 54.6093 101.1 53.6331 101.734 52.9656C102.349 52.3172 103.155 52.028 103.845 51.7996C104.579 51.5565 105.159 51.3842 105.589 51.0281C105.97 50.7119 106.274 50.2053 106.274 49.1687C106.274 48.3664 106.107 47.5721 105.925 46.7175C105.747 45.8805 105.554 44.9827 105.554 44.0574C105.554 43.9771 105.571 43.9015 105.58 43.863C105.592 43.8137 105.607 43.7606 105.623 43.7097C105.655 43.6074 105.696 43.4898 105.738 43.3777C105.82 43.1602 105.918 42.9223 105.967 42.825L106.105 42.5486H106.414C106.852 42.5487 107.126 42.8754 107.278 43.1267C107.444 43.401 107.574 43.7621 107.68 44.1521C107.893 44.9402 108.045 45.9833 108.153 47.0388C108.372 49.1563 108.426 51.4234 108.426 52.0486C108.426 55.3614 108.426 58.5965 108.498 61.9021C108.57 65.2084 108.714 68.498 109.142 71.7097L109.2 72.0652C109.358 72.8658 109.657 73.4649 110.044 73.9207C110.488 74.4434 111.073 74.8079 111.769 75.0603C113.183 75.5739 114.963 75.5974 116.71 75.5974C117.357 75.5974 118.149 75.578 118.849 75.405C119.515 75.2405 120.002 74.9611 120.247 74.5252C120.3 73.7814 120.802 73.2536 121.461 72.8923C122.15 72.5146 123.1 72.2629 124.19 72.0847C126.377 71.7271 129.326 71.637 132.376 71.5652C135.445 71.493 138.63 71.4394 141.346 71.1629C142.703 71.0247 143.928 70.8322 144.951 70.5593C145.982 70.2846 146.768 69.9387 147.281 69.5183L147.285 69.5144C148.517 68.5293 148.609 67.1202 148.609 65.3689C148.609 64.8444 148.605 64.3924 148.564 64.0007C148.522 63.6088 148.446 63.3148 148.327 63.0945C148.216 62.8872 148.058 62.7286 147.808 62.614C147.545 62.4938 147.16 62.4129 146.59 62.4129C146.08 62.4129 145.583 62.4639 145.058 62.5183C144.54 62.5719 143.992 62.6287 143.422 62.6287C142.786 62.6287 141.915 62.5563 141.185 62.2478C140.815 62.0917 140.456 61.8647 140.188 61.532C139.913 61.1911 139.754 60.7639 139.754 60.2566C139.754 58.9024 140.054 57.9048 140.819 57.2781C141.558 56.6737 142.616 56.5174 143.854 56.5173H145.006C146.447 56.5173 147.199 56.0885 147.626 55.4656C148.084 54.7978 148.25 53.7974 148.25 52.4812C148.25 51.7752 148.264 50.7864 148.05 49.9714C147.944 49.568 147.794 49.2549 147.598 49.0486C147.417 48.858 147.175 48.7332 146.806 48.7332C146.399 48.7332 144.848 48.788 143.416 48.6687C142.703 48.6093 141.978 48.5042 141.418 48.3113C141.14 48.2153 140.866 48.0851 140.653 47.9002C140.431 47.7065 140.258 47.4319 140.258 47.0808V46.6492C140.258 46.0881 140.271 45.5635 140.336 45.0984C140.401 44.6332 140.521 44.193 140.758 43.8172C141.263 43.0163 142.167 42.6931 143.494 42.6931C144.171 42.6931 144.815 42.702 145.418 42.6629C146.021 42.6237 146.544 42.5379 146.973 42.3679C147.392 42.2018 147.714 41.9584 147.939 41.5945C148.167 41.2238 148.322 40.6831 148.322 39.8806C148.322 37.3697 147.809 36.1449 147.179 35.5291C146.553 34.9179 145.698 34.7919 144.678 34.783C144.215 34.7789 143.622 34.8013 143.148 34.7879C142.645 34.7736 142.122 34.7207 141.651 34.5339C141.164 34.3402 140.743 34.0073 140.456 33.4675C140.177 32.9433 140.042 32.2588 140.042 31.3855C140.042 30.3778 140.297 29.6527 140.956 29.2488C141.259 29.0631 141.608 28.973 141.964 28.9255C142.32 28.8781 142.718 28.8689 143.134 28.8689C143.922 28.8689 145.27 28.9939 146.486 28.8289C147.088 28.7472 147.584 28.6006 147.918 28.3767C148.223 28.1718 148.394 27.9055 148.394 27.4968C148.394 26.5713 148.339 24.7972 147.991 23.2224C147.817 22.4329 147.576 21.728 147.254 21.2107C146.934 20.6968 146.572 20.4211 146.157 20.3601L146.145 20.3582C145.766 20.2923 145.299 20.2706 144.759 20.238C144.237 20.2066 143.658 20.165 143.125 20.0476C142.595 19.9308 142.054 19.7277 141.643 19.3357C141.214 18.9272 140.978 18.3618 140.978 17.6326C140.978 17.0769 141.078 16.5289 141.166 16.033C141.258 15.5212 141.338 15.0612 141.338 14.6091C141.338 13.2753 140.215 12.3935 138.497 11.8357C136.822 11.2917 134.829 11.1492 133.63 11.1492C132.94 11.1492 132.454 11.2709 132.106 11.4539C131.763 11.6339 131.522 11.889 131.343 12.2097C130.962 12.89 130.869 13.8221 130.752 14.9138C130.642 15.9416 130.51 17.1197 129.93 18.0261C129.31 18.9948 128.246 19.573 126.502 19.573C125.857 19.573 125.11 19.4806 124.508 19.1521C123.868 18.8028 123.41 18.1928 123.41 17.2732C123.41 16.6753 123.53 16.0863 123.636 15.5554C123.746 15.0064 123.842 14.515 123.842 14.033ZM128.442 59.2488C128.442 60.97 128.101 62.0574 127.148 62.6072C126.703 62.8637 126.175 62.9689 125.615 63.0173C125.055 63.0658 124.403 63.0613 123.693 63.0613C122.87 63.0613 122.064 62.9974 121.469 62.6121C120.814 62.1882 120.53 61.4668 120.53 60.4734C120.53 59.2395 120.701 58.2855 121.344 57.6795C121.978 57.0816 122.94 56.949 124.126 56.949H125.71C126.073 56.949 126.423 56.958 126.736 57.0027C127.051 57.0474 127.363 57.1322 127.636 57.3074C128.228 57.6879 128.441 58.3568 128.442 59.2488ZM128.658 45.2088C128.658 46.5083 128.488 47.5026 127.826 48.1287C127.173 48.7465 126.17 48.8767 124.918 48.8767C124.464 48.8767 123.973 48.8866 123.517 48.8621C123.059 48.8374 122.59 48.7771 122.17 48.6209C121.74 48.4609 121.349 48.1961 121.074 47.7654C120.803 47.3409 120.674 46.8021 120.674 46.1453V45.5691C120.674 43.9458 121.813 42.6933 123.478 42.6931H125.438C126.054 42.6991 126.722 42.7384 127.276 42.9519C127.666 43.1025 128.026 43.3468 128.282 43.74C128.536 44.1294 128.658 44.6192 128.658 45.2088ZM101.73 40.6013C101.73 40.573 101.72 40.5871 101.761 40.6463C101.799 40.7016 101.863 40.7687 101.948 40.8347C102.033 40.9 102.127 40.9545 102.214 40.991C102.255 41.0084 102.29 41.0182 102.318 41.0252L103.026 40.7498L102.996 40.6755C102.674 40.5029 102.363 40.2613 102.116 39.9695C101.954 39.7776 101.814 39.5533 101.719 39.3054C101.725 39.7368 101.73 40.1691 101.73 40.6013ZM105.186 32.825C105.186 33.4375 104.989 33.9997 104.726 34.5115C104.465 35.0189 104.12 35.5112 103.801 35.9714C103.133 36.9364 102.594 37.7605 102.594 38.657C102.594 38.8647 102.689 39.097 102.881 39.325C103.025 39.4951 103.208 39.6441 103.4 39.7566L103.593 39.8562L103.778 39.9382L103.855 40.1277L104.329 41.3162L102.476 42.0369H102.382C102.011 42.0369 101.617 41.8414 101.339 41.6277C101.191 41.5138 101.048 41.3732 100.938 41.2127C100.83 41.0561 100.73 40.8456 100.73 40.6013C100.73 39.7072 100.712 38.8117 100.694 37.9109C100.676 37.0118 100.658 36.1067 100.658 35.2009C100.658 34.5428 100.709 33.697 101.015 33.0017C101.171 32.6461 101.403 32.3087 101.746 32.0613C102.094 31.8106 102.524 31.6775 103.03 31.6775C103.246 31.6775 103.733 31.6559 104.148 31.741C104.358 31.7842 104.608 31.8653 104.814 32.033C105.041 32.2184 105.186 32.4886 105.186 32.825ZM128.586 31.9607C128.586 33.0477 128.234 33.8122 127.526 34.2634C126.873 34.68 126.006 34.7654 125.134 34.7654H124.198C123.188 34.7654 122.261 34.6649 121.596 34.1716C120.889 33.6476 120.602 32.7863 120.602 31.6013C120.602 30.4474 120.892 29.617 121.598 29.1218C122.253 28.662 123.158 28.5808 124.126 28.5808H125.134C125.693 28.5808 126.502 28.635 127.19 28.8914C127.882 29.1496 128.586 29.6778 128.586 30.6648V31.9607ZM124.842 14.033C124.842 14.6308 124.723 15.2199 124.616 15.7507C124.507 16.2998 124.41 16.7912 124.41 17.2732C124.41 17.7934 124.637 18.0835 124.986 18.2742C125.374 18.4855 125.924 18.573 126.502 18.573C127.998 18.573 128.697 18.0978 129.088 17.4871C129.518 16.8141 129.643 15.8862 129.758 14.8084C129.866 13.7943 129.967 12.6206 130.47 11.7214C130.732 11.2526 131.107 10.8488 131.642 10.5681C132.171 10.2906 132.826 10.1492 133.63 10.1492C134.879 10.1492 136.99 10.2946 138.807 10.8845C140.581 11.4607 142.338 12.5592 142.338 14.6091C142.338 15.1649 142.239 15.7128 142.151 16.2088C142.059 16.7205 141.978 17.1806 141.978 17.6326C141.978 18.1271 142.128 18.4176 142.332 18.6121C142.553 18.823 142.89 18.9719 143.34 19.0711C143.788 19.1696 144.294 19.2084 144.818 19.24C145.319 19.2701 145.855 19.2946 146.302 19.3709L146.303 19.3699C147.112 19.4889 147.694 20.0242 148.104 20.6824C148.511 21.3373 148.782 22.1673 148.968 23.0066C149.34 24.6893 149.394 26.5504 149.394 27.4968C149.394 28.2761 149.024 28.838 148.475 29.2068C147.953 29.5566 147.279 29.7298 146.621 29.8191C145.318 29.996 143.785 29.8689 143.134 29.8689C142.722 29.8689 142.382 29.8788 142.097 29.9168C141.811 29.9548 141.615 30.0171 141.478 30.1013C141.255 30.2375 141.042 30.5215 141.042 31.3855C141.042 32.1677 141.165 32.6711 141.339 32.9978C141.505 33.3091 141.732 33.4897 142.021 33.6043C142.326 33.7256 142.709 33.7756 143.176 33.7888C143.672 33.8029 144.114 33.778 144.687 33.783C145.736 33.7921 146.951 33.9092 147.878 34.8142C148.8 35.7148 149.322 37.2804 149.322 39.8806C149.322 40.8062 149.143 41.5446 148.789 42.1189C148.431 42.6997 147.921 43.0678 147.341 43.2976C146.771 43.5236 146.128 43.619 145.483 43.6609C144.838 43.7027 144.149 43.6931 143.494 43.6931C142.301 43.6931 141.837 43.9814 141.604 44.3504C141.472 44.5594 141.381 44.8442 141.326 45.2361C141.272 45.6282 141.258 46.0942 141.258 46.6492V47.0808C141.258 47.0837 141.258 47.0846 141.26 47.0886C141.264 47.0957 141.276 47.1161 141.311 47.1463C141.385 47.2113 141.523 47.2889 141.744 47.365C142.183 47.5163 142.808 47.614 143.499 47.6716C144.875 47.7863 146.348 47.7332 146.806 47.7332C147.445 47.7332 147.95 47.9681 148.322 48.3601C148.68 48.7365 148.89 49.2292 149.018 49.7166C149.272 50.6836 149.25 51.8193 149.25 52.4812C149.25 53.8289 149.092 55.0969 148.451 56.031C147.78 57.0098 146.66 57.5173 145.006 57.5173H143.854C142.644 57.5174 141.901 57.685 141.452 58.0525C141.031 58.3978 140.754 59.0197 140.754 60.2566C140.754 60.5413 140.838 60.7455 140.966 60.9041C141.1 61.0707 141.304 61.2131 141.573 61.3269C142.121 61.5583 142.834 61.6287 143.422 61.6287C143.932 61.6287 144.429 61.5786 144.954 61.5242C145.472 61.4706 146.02 61.4129 146.59 61.4129C147.243 61.4129 147.785 61.5035 148.225 61.7048C148.677 61.912 148.996 62.2262 149.208 62.6218C149.414 63.0044 149.51 63.4437 149.558 63.8953C149.606 64.3473 149.609 64.8496 149.609 65.3689C149.609 67.0737 149.559 68.9768 147.91 70.2957L147.909 70.2947C147.236 70.8443 146.293 71.2358 145.208 71.5252C144.113 71.817 142.831 72.0161 141.447 72.157C138.683 72.4384 135.451 72.4934 132.4 72.5652C129.33 72.6374 126.456 72.7268 124.351 73.0711C123.294 73.2439 122.48 73.4744 121.942 73.7693C121.412 74.0598 121.242 74.3547 121.242 74.657V74.7693L121.193 74.8709C120.775 75.7553 119.912 76.1724 119.089 76.3757C118.259 76.5807 117.359 76.5974 116.71 76.5974C115.001 76.5974 113.036 76.5841 111.427 75.9998C110.61 75.7032 109.863 75.2535 109.281 74.5681C108.698 73.8807 108.305 72.9863 108.151 71.8445C107.715 68.5766 107.57 65.2409 107.498 61.9236C107.426 58.6054 107.426 55.3596 107.426 52.0486C107.426 51.4485 107.372 49.2168 107.158 47.1414C107.051 46.0999 106.906 45.122 106.714 44.4138C106.671 44.2536 106.625 44.1144 106.581 43.9949C106.58 43.9994 106.579 44.0042 106.577 44.0086C106.567 44.0428 106.558 44.0686 106.554 44.0867C106.558 44.8791 106.724 45.6643 106.903 46.5086C107.082 47.3456 107.274 48.2434 107.274 49.1687C107.274 50.4357 106.885 51.253 106.227 51.7986C105.617 52.3041 104.811 52.5329 104.159 52.7488C103.463 52.9793 102.883 53.207 102.459 53.6541C102.053 54.0822 101.73 54.7806 101.73 56.0808C101.73 57.8299 101.819 59.5813 101.909 61.3474C101.999 63.1092 102.09 64.886 102.09 66.6648C102.09 69.2123 101.884 71.3606 100.85 72.8621C99.7785 74.4171 97.9192 75.157 94.9659 75.157C93.1863 75.157 91.5437 75.1398 90.0909 74.9754C88.6384 74.8109 87.3361 74.4957 86.2491 73.8767C84.0141 72.6038 82.8742 70.1626 82.8741 65.8015C82.8741 65.1043 83.1177 64.5104 83.5802 64.0964C84.0355 63.6891 84.6512 63.5008 85.3175 63.5007C85.8972 63.5007 86.4531 63.5789 86.9698 63.6502C87.3801 63.7067 87.7673 63.7574 88.1544 63.7781L88.4904 62.9646V61.9851C88.4904 61.5062 88.5086 61.0103 88.5265 60.5261C88.5445 60.0385 88.5616 59.5622 88.5616 59.1052C88.5616 57.6245 88.1334 56.9671 87.5411 56.6209C86.8742 56.2312 85.8761 56.1492 84.5255 56.1492C83.7242 56.149 83.1426 55.6804 82.7433 55.0789C82.3497 54.4858 82.0905 53.7077 81.9142 52.9236C81.56 51.3482 81.506 49.5763 81.506 48.7371C81.506 47.4738 81.6406 46.5811 81.9288 45.9509C82.2354 45.2811 82.7026 44.9359 83.2521 44.7527C83.7411 44.5898 84.3451 44.5477 84.8517 44.4754C85.3934 44.3979 85.9497 44.2778 86.5245 43.9744L86.5343 43.9695L86.6447 43.9099C87.1828 43.5912 87.5073 43.0103 87.6945 42.2615C87.8939 41.4637 87.9142 40.5658 87.9142 39.8093C87.9142 39.18 87.9506 38.5709 87.9865 37.9793C88.0226 37.3831 88.0577 36.8032 88.0577 36.2088C88.0577 34.6606 87.6712 34.0074 87.2462 33.6902C86.7787 33.3414 86.1281 33.2767 85.2872 33.2254C84.5225 33.1786 83.5555 33.1451 82.8116 32.6453C82.0072 32.1045 81.5783 31.1234 81.5782 29.5134C81.5782 27.9736 81.4976 26.0586 82.1144 24.4392L82.1173 24.4314C82.481 23.5221 83.0124 22.9618 83.6476 22.6277C84.2621 22.3045 84.9338 22.216 85.5275 22.1658C86.1559 22.1126 86.6675 22.1007 87.131 21.9773C87.558 21.8636 87.8876 21.6659 88.129 21.2634L88.13 21.2615C88.7812 20.1869 88.9415 18.8954 89.0499 17.5047C89.1544 16.1633 89.2089 14.6836 89.7579 13.4675L89.7618 13.4578L89.7667 13.449C90.1318 12.7191 90.8328 12.2992 91.4542 12.0623C93.203 11.3019 95.3724 11.0847 97.1984 11.0847C97.9168 11.0847 98.6008 11.0933 99.214 11.1658C99.8273 11.2383 100.407 11.3787 100.903 11.6648C101.956 12.2709 102.45 13.4119 102.45 15.2566C102.45 15.8943 102.394 16.5292 102.34 17.1375C102.286 17.753 102.234 18.3433 102.234 18.9295C102.234 20.2736 102.518 20.7689 102.772 20.9773C103.052 21.2084 103.438 21.2347 104.069 21.2742C104.626 21.309 105.392 21.3594 105.974 21.9353C106.553 22.5085 106.842 23.4838 106.842 25.0486C106.842 25.517 106.783 25.9804 106.73 26.407C106.689 26.7328 106.652 27.0385 106.635 27.3367L106.848 27.4431C106.883 27.4117 106.931 27.3669 106.986 27.2976C107.135 27.114 107.3 26.8402 107.477 26.4841C107.829 25.7749 108.187 24.8183 108.523 23.8035C109.197 21.7618 109.739 19.6164 109.967 18.8572C110.622 16.5326 111.866 13.3638 113.441 11.4148L113.447 11.407C114.085 10.6499 114.717 10.2777 115.44 10.116C116.113 9.96524 116.863 10.0046 117.646 10.0047C118.81 10.0047 120.555 10.094 122.024 10.6091C122.761 10.8677 123.463 11.2447 123.985 11.8035C124.518 12.3737 124.842 13.1121 124.842 14.033Z" fill="white"/>
<path d="M65.1515 53.0369C65.1515 52.036 65.148 51.1118 64.9376 50.2703V50.2693C64.7596 49.5951 64.4719 49.3415 64.1925 49.2185C63.8599 49.0722 63.4577 49.0673 62.9386 49.0623C62.4867 49.0579 61.8615 49.0593 61.3751 48.739C60.8291 48.3793 60.591 47.7318 60.5909 46.8054C60.5909 45.4928 60.7248 43.3954 61.3302 41.6091C61.9284 39.8442 63.0725 38.1726 65.1954 38.1726C65.7455 38.1726 66.466 38.1912 67.1505 38.1101C67.862 38.0258 68.3779 37.8486 68.6251 37.5769C68.7439 37.4463 68.8487 37.2417 68.9298 36.9558C69.0098 36.6735 69.0579 36.3418 69.0851 35.9851C69.1402 35.2594 69.1026 34.5273 69.1026 33.9607C69.1026 33.1573 69.1017 32.2259 68.9659 31.3386C68.8297 30.4488 68.5662 29.6702 68.0919 29.1296C67.893 28.9223 67.6035 28.7997 67.1993 28.7195C66.9971 28.6794 66.782 28.6522 66.5499 28.6257C66.324 28.6 66.0754 28.5738 65.838 28.5359C65.3716 28.4614 64.8387 28.328 64.4288 27.9558C63.9967 27.5634 63.7833 26.9857 63.7833 26.2087C63.7833 25.4715 63.8216 24.7361 63.8595 24.0164C63.8976 23.2923 63.9347 22.5832 63.9347 21.8767C63.9346 20.938 63.7407 20.2892 63.4444 19.8318C63.1505 19.3778 62.7275 19.0679 62.1895 18.8552C61.0729 18.4139 59.5701 18.4246 57.9747 18.4246C57.3856 18.4245 56.6778 18.3815 56.046 18.3669C55.3863 18.3517 54.7486 18.3641 54.1759 18.4646C53.6043 18.565 53.1296 18.7476 52.7696 19.0466C52.4185 19.3385 52.1386 19.7731 52.006 20.4529C51.819 21.4254 51.7302 22.4077 51.5831 23.4568C51.4397 24.4797 51.2425 25.5287 50.8438 26.531L50.8448 26.532C50.666 27.0238 50.3843 27.4375 49.9825 27.7263C49.5794 28.016 49.0927 28.1531 48.5509 28.1531C48.0881 28.1531 47.4267 28.0708 46.8614 27.8269C46.3034 27.5862 45.6954 27.1135 45.6954 26.2849C45.6954 25.2819 45.8754 24.306 46.045 23.3826C46.2174 22.4441 46.379 21.5578 46.379 20.6609C46.379 19.8438 46.1605 19.3274 45.8487 18.9832C45.5291 18.6305 45.0579 18.3996 44.4493 18.2605C43.8401 18.1213 43.1348 18.0828 42.3907 18.0828C42.0205 18.0828 41.6471 18.0928 41.2765 18.1023C40.9085 18.1117 40.5409 18.1208 40.1915 18.1208C38.959 18.1208 37.5733 18.125 36.4132 18.4792C35.2873 18.8231 34.4343 19.4751 34.1427 20.7712L33.4601 23.9578L33.4581 23.9656C33.2268 24.9677 32.9078 26.0192 32.3321 26.9265C31.5824 28.1448 30.2826 28.3806 29.171 28.3806C27.9886 28.3806 27.1822 28.5867 26.6251 28.9099C26.0798 29.2264 25.7319 29.6796 25.505 30.2654C25.2727 30.865 25.1687 31.5999 25.128 32.4578C25.0872 33.3182 25.1114 34.247 25.1114 35.2527C25.1114 36.5819 25.2838 37.2753 25.4972 37.6355C25.5965 37.8031 25.7031 37.8957 25.8106 37.9539C25.924 38.0152 26.0662 38.0534 26.254 38.071C26.4459 38.089 26.6571 38.0836 26.9112 38.0759C27.1551 38.0685 27.4374 38.0587 27.7228 38.0779C28.3107 38.1174 28.9554 38.2823 29.5245 38.8513L29.6505 38.9773L29.669 39.155L29.7442 39.9158L29.7472 39.9402V39.9646C29.7472 41.3145 29.6139 43.5597 29.002 45.4841C28.4022 47.3708 27.2479 49.2046 25.0675 49.2048C24.5568 49.2048 23.7958 49.1869 23.0714 49.2683C22.7109 49.3089 22.3803 49.372 22.1104 49.4656C21.9041 49.5372 21.7578 49.6185 21.6603 49.7L21.5753 49.7849C21.4504 49.9348 21.3418 50.1657 21.2589 50.4812C21.1771 50.7927 21.128 51.1559 21.1007 51.5427C21.0453 52.3271 21.0831 53.1193 21.0831 53.7214C21.0831 54.4378 21.1024 55.2423 21.2198 56.0105C21.3233 56.687 21.499 57.3033 21.7804 57.7947L21.9073 57.9978L21.9112 58.0037L21.9952 58.1179C22.2003 58.3667 22.4626 58.4981 22.7843 58.5798C23.196 58.6844 23.5886 58.6878 24.1046 58.7537C24.5664 58.8126 25.118 58.9266 25.5392 59.3308C25.9739 59.7482 26.1749 60.3779 26.1749 61.2449C26.1749 62.1314 26.1366 63.0164 26.0987 63.8884C26.0606 64.7642 26.0235 65.6277 26.0235 66.489C26.0235 67.5708 26.2705 68.316 26.6485 68.8416C27.0267 69.3672 27.5705 69.7224 28.252 69.9597C29.6529 70.4473 31.4848 70.3972 33.2755 70.3972C35.4444 70.3971 36.6091 69.7445 37.2979 68.8572C38.0158 67.9324 38.2897 66.6671 38.4796 65.281C38.5706 64.6165 38.6472 63.885 38.7481 63.2351C38.851 62.5726 38.9884 61.9195 39.2247 61.3445C39.463 60.7646 39.811 60.2416 40.3448 59.8679C40.8804 59.493 41.557 59.3016 42.3946 59.3015C43.033 59.3015 43.6052 59.4497 44.0118 59.8562C44.4184 60.2628 44.5675 60.835 44.5675 61.4734C44.5674 62.6318 44.3472 63.7433 44.1397 64.7996C43.9293 65.8711 43.7315 66.888 43.7315 67.9333C43.7316 68.613 43.8576 69.1118 44.0558 69.4822C44.2517 69.8484 44.5326 70.1174 44.8907 70.3181C45.633 70.7341 46.6954 70.8533 47.9435 70.8533C51.0154 70.8533 52.8573 70.6277 53.9796 70.2185C54.5305 70.0176 54.8868 69.7792 55.129 69.5203C55.3695 69.2629 55.5244 68.9565 55.6319 68.5759C55.7419 68.1867 55.7981 67.7364 55.8497 67.1941C55.9002 66.6635 55.9463 66.0464 56.0411 65.3826C56.2333 64.0375 56.63 62.4639 57.6983 60.6833L57.6993 60.6824C58.3989 59.5238 59.3202 59.113 60.2618 58.9861C60.7133 58.9252 61.1693 58.929 61.5841 58.9353C62.0119 58.9418 62.3916 58.9505 62.7501 58.9138C63.1022 58.8778 63.4029 58.8003 63.6632 58.6511C63.9185 58.5048 64.1641 58.2735 64.3819 57.8855C64.8315 57.0847 65.1515 55.6403 65.1515 53.0369ZM47.4435 40.573C47.4434 39.8124 47.2543 39.4874 47.0323 39.3181C46.7745 39.1217 46.3341 39.0212 45.587 39.0212C45.1186 39.0213 44.7075 39.2884 44.3341 39.8679C43.9572 40.4528 43.6717 41.2836 43.463 42.2205C43.0472 44.0869 42.9708 46.2113 42.9708 47.1853C42.9708 47.4567 43.0271 47.6366 43.0987 47.7595C43.1697 47.8811 43.2739 47.977 43.419 48.0544C43.7309 48.2208 44.1937 48.281 44.7511 48.281C45.1598 48.281 45.5496 48.0361 45.9249 47.4763C46.2996 46.9173 46.6004 46.1248 46.8321 45.2351C47.2942 43.4608 47.4435 41.4524 47.4435 40.573ZM48.4435 40.573C48.4435 41.5176 48.2879 43.6133 47.7999 45.4871C47.5566 46.4212 47.2209 47.339 46.755 48.0339C46.2895 48.728 45.6341 49.281 44.7511 49.281C44.1685 49.281 43.4915 49.2269 42.9483 48.9373C42.6661 48.7867 42.4139 48.5693 42.2354 48.2634C42.0578 47.959 41.9708 47.5975 41.9708 47.1853C41.9708 46.1834 42.0473 43.9751 42.4864 42.0037C42.7052 41.0218 43.0224 40.0567 43.4933 39.3259C43.9677 38.5897 44.6495 38.0213 45.587 38.0212C46.3598 38.0212 47.0976 38.1108 47.6378 38.5222C48.2136 38.9609 48.4434 39.662 48.4435 40.573ZM47.379 20.6609C47.379 21.664 47.198 22.6398 47.0284 23.5632C46.856 24.5017 46.6954 25.3881 46.6954 26.2849C46.6954 26.5203 46.8469 26.7317 47.2579 26.9089C47.6614 27.0829 48.1777 27.153 48.5509 27.1531C48.921 27.1531 49.1947 27.062 49.3995 26.9148C49.6057 26.7666 49.7802 26.5343 49.9054 26.1902L49.9083 26.1824L49.9112 26.1755C50.2685 25.2824 50.452 24.323 50.5929 23.3181C50.7307 22.3348 50.8316 21.2654 51.0245 20.2625V20.2615C51.1959 19.3833 51.581 18.7344 52.13 18.2781C52.6701 17.8292 53.3304 17.5983 54.003 17.4802C54.6747 17.3623 55.3911 17.3513 56.0685 17.3669C56.7734 17.3832 57.3861 17.4245 57.9747 17.4246C59.4952 17.4246 61.2234 17.398 62.5577 17.9255C63.2452 18.1974 63.8529 18.6242 64.2833 19.2888C64.7113 19.9499 64.9346 20.8018 64.9347 21.8767C64.9347 22.614 64.8964 23.3494 64.8585 24.0691C64.8204 24.7932 64.7833 25.5022 64.7833 26.2087C64.7833 26.7997 64.9401 27.0688 65.1017 27.2156C65.2854 27.3822 65.57 27.4806 65.9962 27.5486C66.2052 27.5819 66.4231 27.6052 66.6632 27.6326C66.8968 27.6592 67.1483 27.6901 67.3946 27.739C67.8224 27.8239 68.2852 27.972 68.6681 28.2986L68.8272 28.45L68.8331 28.4558L68.838 28.4626C69.5006 29.2138 69.8068 30.2181 69.9552 31.1873C70.1043 32.1617 70.1026 33.1683 70.1026 33.9607C70.1026 34.4581 70.142 35.285 70.0831 36.0603C70.0532 36.4539 69.9968 36.8586 69.8917 37.2292C69.7875 37.5964 69.6265 37.9625 69.3653 38.2498C68.8524 38.8139 67.9999 39.0166 67.2677 39.1033C66.5085 39.1932 65.7092 39.1726 65.1954 39.1726C63.7466 39.1726 62.8383 40.2756 62.2774 41.9304C61.7238 43.5642 61.5909 45.534 61.5909 46.8054C61.591 47.5884 61.7905 47.8149 61.9259 47.9041C62.121 48.0323 62.4221 48.0571 62.9483 48.0623C63.4077 48.0667 64.0367 48.0579 64.5948 48.3035C65.205 48.5719 65.6662 49.1056 65.9063 50.0222L65.9083 50.0281C66.1538 51.0103 66.1515 52.062 66.1515 53.0369C66.1515 55.6773 65.8342 57.3397 65.253 58.3748C64.9555 58.9047 64.5871 59.2737 64.1603 59.5183C63.7383 59.7601 63.288 59.8642 62.8517 59.9089C62.4218 59.9529 61.9747 59.9415 61.5685 59.9353C61.1492 59.9289 60.7634 59.9277 60.3956 59.9773C59.6986 60.0712 59.0711 60.3448 58.5548 61.2C57.5719 62.8386 57.2086 64.2762 57.0304 65.5242C56.94 66.1571 56.8987 66.7329 56.8458 67.2888C56.7941 67.833 56.7308 68.3637 56.5938 68.8484C56.4545 69.3414 56.2349 69.8024 55.8595 70.2039C55.4853 70.604 54.9827 70.9171 54.3224 71.158C53.0221 71.6321 51.0264 71.8533 47.9435 71.8533C46.6836 71.8533 45.3891 71.744 44.4024 71.1912C43.8963 70.9075 43.4695 70.5064 43.1739 69.9539C42.8805 69.4053 42.7316 68.7354 42.7315 67.9333C42.7315 66.7748 42.9508 65.6626 43.1583 64.6062C43.3687 63.5349 43.5674 62.5186 43.5675 61.4734C43.5675 60.9718 43.4492 60.7077 43.3048 60.5632C43.1603 60.4188 42.8962 60.3015 42.3946 60.3015C41.7127 60.3016 41.2492 60.4555 40.9181 60.6873C40.5853 60.9203 40.3396 61.2644 40.1505 61.7244C39.9593 62.1896 39.8354 62.7507 39.7364 63.3884C39.6355 64.0387 39.5697 64.6944 39.4708 65.4167C39.2807 66.8045 38.9848 68.3138 38.088 69.4695C37.1619 70.6625 35.666 71.3971 33.2755 71.3972C31.5703 71.3972 29.5251 71.4613 27.9239 70.9041C27.1046 70.6189 26.3661 70.161 25.837 69.4255C25.3078 68.6899 25.0235 67.7252 25.0235 66.489C25.0235 65.6024 25.0618 64.7176 25.0997 63.8455C25.1378 62.9696 25.1749 62.1062 25.1749 61.2449C25.1749 60.5161 25.0057 60.2051 24.8468 60.0525C24.6743 59.8869 24.4088 59.8009 23.9776 59.7458C23.6006 59.6977 23.0241 59.673 22.5382 59.5496C22.0081 59.4149 21.4712 59.1463 21.0792 58.5583V58.5574C20.6032 57.8618 20.3599 57.001 20.2315 56.1619C20.1021 55.3156 20.0831 54.4487 20.0831 53.7214C20.0831 53.1836 20.045 52.303 20.1036 51.4724C20.1333 51.0517 20.1887 50.6211 20.2921 50.2273C20.3941 49.8391 20.5505 49.4537 20.8038 49.1482C21.0573 48.8383 21.4214 48.6465 21.7823 48.5212C22.1489 48.394 22.5597 48.3201 22.9591 48.2751C23.7546 48.1857 24.5903 48.2048 25.0675 48.2048C26.5346 48.2046 27.4709 46.9993 28.0489 45.1814C28.6113 43.4125 28.7444 41.303 28.7462 39.991L28.6925 39.4441C28.3826 39.1898 28.0406 39.1018 27.6554 39.0759C27.4278 39.0607 27.1963 39.0682 26.9415 39.0759C26.6973 39.0833 26.4241 39.0909 26.1603 39.0662C25.8922 39.041 25.6064 38.9805 25.3351 38.8337C25.0579 38.6838 24.8224 38.4584 24.6368 38.1453C24.2803 37.5435 24.1114 36.6213 24.1114 35.2527C24.1114 34.2827 24.0867 33.3019 24.129 32.4099C24.1715 31.5151 24.2821 30.6534 24.5724 29.9041C24.8678 29.1414 25.351 28.4928 26.1231 28.0447C26.8842 27.6031 27.8834 27.3806 29.171 27.3806C30.1874 27.3806 31.0153 27.1608 31.4815 26.4031L31.4854 26.3962C31.9709 25.6332 32.2594 24.7121 32.4835 23.741L33.1661 20.5564L33.1671 20.5515C33.5594 18.808 34.7584 17.9394 36.1212 17.5232C37.45 17.1174 38.992 17.1208 40.1915 17.1208C40.5257 17.1208 40.8797 17.1118 41.2511 17.1023C41.6202 17.0928 42.0057 17.0828 42.3907 17.0828C43.1567 17.0828 43.9524 17.1212 44.6729 17.2859C45.3941 17.4508 46.0822 17.7522 46.589 18.3113C47.1035 18.879 47.379 19.6545 47.379 20.6609Z" fill="white"/>
<defs>
<filter id="filter0_d_52_960" x="19.571" y="9.49963" width="273.858" height="69.5967" filterUnits="userSpaceOnUse" color-interpolation-filters="sRGB">
<feFlood flood-opacity="0" result="BackgroundImageFix"/>
<feColorMatrix in="SourceAlpha" type="matrix" values="0 0 0 0 0 0 0 0 0 0 0 0 0 0 0 0 0 0 127 0" result="hardAlpha"/>
<feOffset dx="3" dy="3"/>
<feComposite in2="hardAlpha" operator="out"/>
<feColorMatrix type="matrix" values="0 0 0 0 1 0 0 0 0 0.769738 0 0 0 0 0.85507 0 0 0 1 0"/>
<feBlend mode="normal" in2="BackgroundImageFix" result="effect1_dropShadow_52_960"/>
<feBlend mode="normal" in="SourceGraphic" in2="effect1_dropShadow_52_960" result="shape"/>
</filter>
<linearGradient id="paint0_linear_52_960" x1="20.5062" y1="60.6029" x2="67.7023" y2="-57.1914" gradientUnits="userSpaceOnUse">
<stop stop-color="#FFB2B8"/>
<stop offset="0.14" stop-color="#FF7DB8"/>
<stop offset="0.18" stop-color="#FA75BC"/>
<stop offset="0.24" stop-color="#ED62C7"/>
<stop offset="0.31" stop-color="#D842D9"/>
<stop offset="0.38" stop-color="#BB15F2"/>
<stop offset="0.42" stop-color="#AD00FF"/>
<stop offset="0.51" stop-color="#A711FE"/>
<stop offset="0.59" stop-color="#A41BFE"/>
<stop offset="0.62" stop-color="#9A35FC"/>
<stop offset="0.68" stop-color="#8C5DFB"/>
<stop offset="0.74" stop-color="#817EF9"/>
<stop offset="0.8" stop-color="#7897F8"/>
<stop offset="0.86" stop-color="#71A9F7"/>
<stop offset="0.93" stop-color="#6EB4F7"/>
<stop offset="1" stop-color="#6DB8F7"/>
</linearGradient>
<linearGradient id="paint1_linear_52_960" x1="20.5062" y1="60.6029" x2="67.7023" y2="-57.1914" gradientUnits="userSpaceOnUse">
<stop stop-color="#FFB2B8"/>
<stop offset="0.14" stop-color="#FF7DB8"/>
<stop offset="0.18" stop-color="#FA75BC"/>
<stop offset="0.24" stop-color="#ED62C7"/>
<stop offset="0.31" stop-color="#D842D9"/>
<stop offset="0.38" stop-color="#BB15F2"/>
<stop offset="0.42" stop-color="#AD00FF"/>
<stop offset="0.51" stop-color="#A711FE"/>
<stop offset="0.59" stop-color="#A41BFE"/>
<stop offset="0.62" stop-color="#9A35FC"/>
<stop offset="0.68" stop-color="#8C5DFB"/>
<stop offset="0.74" stop-color="#817EF9"/>
<stop offset="0.8" stop-color="#7897F8"/>
<stop offset="0.86" stop-color="#71A9F7"/>
<stop offset="0.93" stop-color="#6EB4F7"/>
<stop offset="1" stop-color="#6DB8F7"/>
</linearGradient>
<linearGradient id="paint2_linear_52_960" x1="20.5062" y1="60.6029" x2="67.7023" y2="-57.1914" gradientUnits="userSpaceOnUse">
<stop stop-color="#FFB2B8"/>
<stop offset="0.14" stop-color="#FF7DB8"/>
<stop offset="0.18" stop-color="#FA75BC"/>
<stop offset="0.24" stop-color="#ED62C7"/>
<stop offset="0.31" stop-color="#D842D9"/>
<stop offset="0.38" stop-color="#BB15F2"/>
<stop offset="0.42" stop-color="#AD00FF"/>
<stop offset="0.51" stop-color="#A711FE"/>
<stop offset="0.59" stop-color="#A41BFE"/>
<stop offset="0.62" stop-color="#9A35FC"/>
<stop offset="0.68" stop-color="#8C5DFB"/>
<stop offset="0.74" stop-color="#817EF9"/>
<stop offset="0.8" stop-color="#7897F8"/>
<stop offset="0.86" stop-color="#71A9F7"/>
<stop offset="0.93" stop-color="#6EB4F7"/>
<stop offset="1" stop-color="#6DB8F7"/>
</linearGradient>
<linearGradient id="paint3_linear_52_960" x1="20.5062" y1="60.6029" x2="67.7023" y2="-57.1914" gradientUnits="userSpaceOnUse">
<stop stop-color="#FFB2B8"/>
<stop offset="0.14" stop-color="#FF7DB8"/>
<stop offset="0.18" stop-color="#FA75BC"/>
<stop offset="0.24" stop-color="#ED62C7"/>
<stop offset="0.31" stop-color="#D842D9"/>
<stop offset="0.38" stop-color="#BB15F2"/>
<stop offset="0.42" stop-color="#AD00FF"/>
<stop offset="0.51" stop-color="#A711FE"/>
<stop offset="0.59" stop-color="#A41BFE"/>
<stop offset="0.62" stop-color="#9A35FC"/>
<stop offset="0.68" stop-color="#8C5DFB"/>
<stop offset="0.74" stop-color="#817EF9"/>
<stop offset="0.8" stop-color="#7897F8"/>
<stop offset="0.86" stop-color="#71A9F7"/>
<stop offset="0.93" stop-color="#6EB4F7"/>
<stop offset="1" stop-color="#6DB8F7"/>
</linearGradient>
</defs>
</svg>
