<svg width="828" height="142" viewBox="0 0 828 142" fill="none" xmlns="http://www.w3.org/2000/svg">
<path d="M419.436 63.13C422.436 59.13 425.716 56.19 429.276 54.31C432.836 52.39 436.516 51.43 440.316 51.43C442.876 51.43 445.216 51.95 447.336 52.99C449.496 54.03 451.276 55.55 452.676 57.55C454.116 59.55 455.136 62.03 455.736 64.99C456.336 67.91 456.396 71.27 455.916 75.07L451.236 114.61H432.636L437.316 75.07C437.516 73.39 437.576 71.97 437.496 70.81C437.456 69.65 437.256 68.73 436.896 68.05C436.536 67.37 436.036 66.89 435.396 66.61C434.756 66.29 433.996 66.13 433.116 66.13C431.756 66.13 430.336 66.55 428.856 67.39C427.376 68.23 425.956 69.43 424.596 70.99C423.276 72.51 422.056 74.37 420.936 76.57C419.816 78.73 418.936 81.13 418.296 83.77L414.876 114.61H396.276L403.716 52.39H413.316C415.236 52.39 416.736 52.85 417.816 53.77C418.896 54.65 419.436 56.11 419.436 58.15V63.13Z" fill="white"/>
<path d="M391.501 52.39L384.061 114.61H365.701L373.141 52.39H391.501ZM394.981 35.35C394.981 36.83 394.661 38.23 394.021 39.55C393.381 40.83 392.541 41.97 391.501 42.97C390.461 43.93 389.261 44.71 387.901 45.31C386.581 45.87 385.221 46.15 383.821 46.15C382.421 46.15 381.081 45.87 379.801 45.31C378.521 44.71 377.381 43.93 376.381 42.97C375.421 41.97 374.641 40.83 374.041 39.55C373.441 38.23 373.141 36.83 373.141 35.35C373.141 33.87 373.441 32.47 374.041 31.15C374.641 29.83 375.441 28.67 376.441 27.67C377.481 26.67 378.641 25.89 379.921 25.33C381.201 24.73 382.541 24.43 383.941 24.43C385.381 24.43 386.761 24.71 388.081 25.27C389.401 25.83 390.561 26.61 391.561 27.61C392.601 28.61 393.421 29.77 394.021 31.09C394.661 32.41 394.981 33.83 394.981 35.35Z" fill="white"/>
<path d="M329.7 101.77C331.78 101.77 333.64 101.15 335.28 99.91C336.92 98.63 338.3 96.91 339.42 94.75C340.58 92.55 341.46 90.01 342.06 87.13C342.7 84.21 343.02 81.11 343.02 77.83C343.02 73.31 342.4 70.09 341.16 68.17C339.96 66.21 337.98 65.23 335.22 65.23C333.14 65.23 331.28 65.87 329.64 67.15C328 68.39 326.6 70.09 325.44 72.25C324.32 74.41 323.44 76.95 322.8 79.87C322.2 82.79 321.9 85.89 321.9 89.17C321.9 93.61 322.5 96.83 323.7 98.83C324.94 100.79 326.94 101.77 329.7 101.77ZM328.02 115.57C324.54 115.57 321.28 114.99 318.24 113.83C315.24 112.67 312.62 110.99 310.38 108.79C308.18 106.55 306.44 103.81 305.16 100.57C303.92 97.29 303.3 93.53 303.3 89.29C303.3 83.77 304.2 78.71 306 74.11C307.84 69.47 310.3 65.47 313.38 62.11C316.46 58.75 320.02 56.13 324.06 54.25C328.14 52.37 332.42 51.43 336.9 51.43C340.38 51.43 343.62 52.01 346.62 53.17C349.62 54.33 352.22 56.03 354.42 58.27C356.66 60.47 358.42 63.21 359.7 66.49C360.98 69.73 361.62 73.47 361.62 77.71C361.62 83.15 360.7 88.19 358.86 92.83C357.06 97.43 354.62 101.43 351.54 104.83C348.46 108.19 344.88 110.83 340.8 112.75C336.76 114.63 332.5 115.57 328.02 115.57Z" fill="white"/>
<path d="M270.361 99.49C272.561 99.49 274.461 99.33 276.061 99.01C277.701 98.65 279.101 98.21 280.261 97.69C281.421 97.17 282.401 96.61 283.201 96.01C284.001 95.37 284.721 94.79 285.361 94.27C286.001 93.75 286.601 93.33 287.161 93.01C287.721 92.65 288.321 92.47 288.961 92.47C289.601 92.47 290.121 92.59 290.521 92.83C290.961 93.03 291.281 93.27 291.481 93.55L298.321 101.77C294.521 106.29 290.001 109.73 284.761 112.09C279.561 114.41 273.641 115.57 267.001 115.57C261.481 115.57 256.581 114.61 252.301 112.69C248.061 110.73 244.481 108.05 241.561 104.65C238.641 101.25 236.421 97.23 234.901 92.59C233.421 87.91 232.681 82.87 232.681 77.47C232.681 72.47 233.241 67.73 234.361 63.25C235.481 58.77 237.061 54.63 239.101 50.83C241.141 47.03 243.581 43.61 246.421 40.57C249.301 37.53 252.481 34.95 255.961 32.83C259.441 30.71 263.181 29.09 267.181 27.97C271.181 26.81 275.361 26.23 279.721 26.23C283.001 26.23 285.981 26.55 288.661 27.19C291.381 27.79 293.821 28.65 295.981 29.77C298.181 30.85 300.141 32.15 301.861 33.67C303.581 35.19 305.081 36.87 306.361 38.71L299.521 46.63C299.041 47.19 298.481 47.69 297.841 48.13C297.201 48.57 296.361 48.79 295.321 48.79C294.641 48.79 294.021 48.63 293.461 48.31C292.901 47.99 292.321 47.61 291.721 47.17C291.161 46.69 290.521 46.17 289.801 45.61C289.081 45.05 288.221 44.55 287.221 44.11C286.221 43.63 285.021 43.23 283.621 42.91C282.261 42.59 280.641 42.43 278.761 42.43C275.081 42.43 271.641 43.21 268.441 44.77C265.281 46.33 262.521 48.57 260.161 51.49C257.841 54.37 256.021 57.89 254.701 62.05C253.381 66.17 252.721 70.79 252.721 75.91C252.721 79.63 253.161 82.95 254.041 85.87C254.961 88.79 256.201 91.27 257.761 93.31C259.321 95.31 261.181 96.85 263.341 97.93C265.501 98.97 267.841 99.49 270.361 99.49Z" fill="white"/>
<path d="M179.945 67.03L200.945 114.61H183.425C182.145 114.61 181.145 114.29 180.425 113.65C179.745 113.01 179.225 112.29 178.865 111.49L165.965 79.39C165.805 79.67 165.645 79.93 165.485 80.17C165.325 80.41 165.145 80.65 164.945 80.89L145.625 111.49C144.825 112.65 143.925 113.47 142.925 113.95C141.965 114.39 140.905 114.61 139.745 114.61H120.185L153.065 67.93L134.105 27.19H151.865C153.145 27.19 154.045 27.37 154.565 27.73C155.125 28.05 155.585 28.61 155.945 29.41L167.465 57.01C167.865 56.25 168.345 55.47 168.905 54.67L184.265 29.71C184.865 28.83 185.485 28.19 186.125 27.79C186.765 27.39 187.545 27.19 188.465 27.19H208.985L179.945 67.03Z" fill="white"/>
<path d="M90.9459 42.25L88.3659 63.37H113.086L111.166 77.89H86.5659L83.8659 99.55H116.446L114.526 114.61H62.3259L73.1259 27.19H125.206L123.286 42.25H90.9459Z" fill="white"/>
<path d="M64.0799 42.67H41.8799L32.9999 114.61H13.5599L22.3199 42.67H-6.10352e-05L1.91994 27.19H66.1199L64.0799 42.67Z" fill="white"/>
<path d="M486.185 79.83C486.185 90.5633 487.655 100.783 490.594 110.49C493.534 120.15 497.991 129.53 503.965 138.63C504.291 139.143 504.408 139.54 504.315 139.82C504.221 140.147 504.058 140.38 503.825 140.52L502.215 141.5C498.575 135.993 495.518 130.673 493.044 125.54C490.618 120.407 488.635 115.343 487.095 110.35C485.601 105.357 484.528 100.363 483.874 95.37C483.221 90.33 482.894 85.15 482.894 79.83C482.894 74.51 483.221 69.3533 483.874 64.36C484.528 59.32 485.601 54.3033 487.095 49.31C488.635 44.27 490.618 39.2067 493.044 34.12C495.518 28.9867 498.575 23.6433 502.215 18.09L503.825 19.07C504.058 19.21 504.221 19.4433 504.315 19.77C504.408 20.05 504.291 20.4467 503.965 20.96C498.038 30.06 493.581 39.4867 490.594 49.24C487.655 58.9467 486.185 69.1433 486.185 79.83Z" fill="white"/>
<path d="M740.732 108.14C742.749 108.14 744.491 107.993 745.957 107.7C747.461 107.37 748.744 106.967 749.807 106.49C750.871 106.013 751.769 105.5 752.502 104.95C753.236 104.363 753.896 103.832 754.482 103.355C755.069 102.878 755.619 102.493 756.132 102.2C756.646 101.87 757.196 101.705 757.782 101.705C758.369 101.705 758.846 101.815 759.212 102.035C759.616 102.218 759.909 102.438 760.092 102.695L766.362 110.23C762.879 114.373 758.736 117.527 753.932 119.69C749.166 121.817 743.739 122.88 737.652 122.88C732.592 122.88 728.101 122 724.177 120.24C720.291 118.443 717.009 115.987 714.332 112.87C711.656 109.753 709.621 106.068 708.227 101.815C706.871 97.525 706.192 92.905 706.192 87.955C706.192 83.3717 706.706 79.0267 707.732 74.92C708.759 70.8133 710.207 67.0183 712.077 63.535C713.947 60.0517 716.184 56.9167 718.787 54.13C721.427 51.3433 724.342 48.9783 727.532 47.035C730.722 45.0917 734.151 43.6067 737.817 42.58C741.484 41.5167 745.316 40.985 749.312 40.985C752.319 40.985 755.051 41.2783 757.507 41.865C760.001 42.415 762.237 43.2033 764.217 44.23C766.234 45.22 768.031 46.4117 769.607 47.805C771.184 49.1983 772.559 50.7383 773.732 52.425L767.462 59.685C767.022 60.1983 766.509 60.6567 765.922 61.06C765.336 61.4633 764.566 61.665 763.612 61.665C762.989 61.665 762.421 61.5183 761.907 61.225C761.394 60.9317 760.862 60.5833 760.312 60.18C759.799 59.74 759.212 59.2633 758.552 58.75C757.892 58.2367 757.104 57.7783 756.187 57.375C755.271 56.935 754.171 56.5683 752.887 56.275C751.641 55.9817 750.156 55.835 748.432 55.835C745.059 55.835 741.906 56.55 738.972 57.98C736.076 59.41 733.546 61.4633 731.382 64.14C729.256 66.78 727.587 70.0067 726.377 73.82C725.167 77.5967 724.562 81.8317 724.562 86.525C724.562 89.935 724.966 92.9783 725.772 95.655C726.616 98.3317 727.752 100.605 729.182 102.475C730.612 104.308 732.317 105.72 734.297 106.71C736.277 107.663 738.422 108.14 740.732 108.14Z" fill="white"/>
<path d="M687.525 78.385L706.775 122H690.715C689.541 122 688.625 121.707 687.965 121.12C687.341 120.533 686.865 119.873 686.535 119.14L674.71 89.715C674.563 89.9717 674.416 90.21 674.27 90.43C674.123 90.65 673.958 90.87 673.775 91.09L656.065 119.14C655.331 120.203 654.506 120.955 653.59 121.395C652.71 121.798 651.738 122 650.675 122H632.745L662.885 79.21L645.505 41.865H661.785C662.958 41.865 663.783 42.03 664.26 42.36C664.773 42.6533 665.195 43.1667 665.525 43.9L676.085 69.2C676.451 68.5033 676.891 67.7883 677.405 67.055L691.485 44.175C692.035 43.3683 692.603 42.7817 693.19 42.415C693.776 42.0483 694.491 41.865 695.335 41.865H714.145L687.525 78.385Z" fill="white"/>
<path d="M606.693 55.67L604.328 75.03H626.988L625.228 88.34H602.678L600.203 108.195H630.068L628.308 122H580.458L590.358 41.865H638.098L636.338 55.67H606.693Z" fill="white"/>
<path d="M582.315 56.055H561.965L553.825 122H536.005L544.035 56.055H523.575L525.335 41.865H584.185L582.315 56.055Z" fill="white"/>
<path d="M815.736 79.83C815.736 69.1433 814.242 58.9467 811.256 49.24C808.269 39.4867 803.812 30.06 797.886 20.96C797.559 20.4467 797.442 20.05 797.536 19.77C797.629 19.4433 797.792 19.21 798.026 19.07L799.636 18.09C803.276 23.6433 806.309 28.9867 808.736 34.12C811.209 39.2067 813.192 44.27 814.686 49.31C816.226 54.3033 817.322 59.32 817.976 64.36C818.629 69.3533 818.956 74.51 818.956 79.83C818.956 85.15 818.629 90.33 817.976 95.37C817.322 100.363 816.226 105.357 814.686 110.35C813.192 115.343 811.209 120.407 808.736 125.54C806.309 130.673 803.276 135.993 799.636 141.5L798.026 140.52C797.792 140.38 797.629 140.147 797.536 139.82C797.442 139.54 797.559 139.143 797.886 138.63C803.859 129.53 808.316 120.15 811.256 110.49C814.242 100.783 815.736 90.5633 815.736 79.83Z" fill="white"/>
</svg>
