<svg width="778" height="955" viewBox="0 0 778 955" fill="none" xmlns="http://www.w3.org/2000/svg">
<g opacity="0.05">
<path d="M767.24 617.33V619.124C767.24 629.938 761.262 637.114 748.659 637.114C734.861 637.114 720.464 634.124 706.118 634.124C692.917 634.124 679.716 634.722 667.163 637.114C677.375 629.34 686.341 619.124 692.319 607.114C677.923 595.104 648.532 589.124 630.549 589.124C522.053 589.124 453.707 627.496 354.776 657.495C355.971 666.515 357.765 675.485 357.765 683.907C357.765 707.877 343.966 745.102 326.581 761.896C311.587 761.896 308 742.112 308 730.102C308 711.515 319.408 692.927 324.19 674.937C327.179 664.123 327.776 652.761 327.776 641.349C327.776 632.33 327.179 623.958 326.581 616.184C337.391 620.968 348.748 628.791 351.139 641.349C394.926 619.772 440.457 601.782 487.83 587.978C474.63 568.194 483.646 539.391 468.054 519.607C480.059 521.401 495.054 524.391 504.618 532.813C513.585 532.215 521.405 527.431 528.579 522.597C517.769 541.783 508.205 561.566 498.59 581.35C514.78 575.968 530.97 571.134 547.16 568.144C571.718 551.949 592.74 531.567 609.527 507.597L592.74 486.617C600.511 481.235 609.527 477.597 619.739 476.401C637.722 485.421 660.488 475.803 668.906 502.165C641.907 525.537 608.332 539.939 584.371 566.35C602.354 564.556 620.337 563.36 638.32 563.36C681.509 563.36 742.034 572.978 767.24 613.144V617.33ZM603.55 776.248C599.365 795.434 580.187 812.826 573.561 839.835C619.739 868.041 752.794 907.011 778 938.804C757.626 947.824 735.458 955 712.643 955C653.314 955 598.718 913.04 554.383 877.061C523.796 909.452 490.819 934.02 444.093 934.02C425.512 934.02 404.541 929.834 392.535 914.236C396.72 914.834 401.552 914.834 406.334 914.834C453.11 914.834 501.081 892.659 529.226 855.483C514.232 833.905 491.467 818.905 468.054 807.494C442.3 848.257 408.077 882.443 375.15 916.628C363.742 928.638 342.771 955 324.787 955C322.396 949.618 321.201 943.588 321.201 937.608C321.201 913.638 336.793 889.619 352.385 872.227L351.189 898.639C389.546 868.639 415.948 829.071 450.719 796.68L437.518 786.464L460.881 784.072L477.668 752.278L466.261 745.102C471.641 736.68 478.864 728.906 488.428 724.72C472.836 706.133 456.049 680.319 456.049 655.751C456.049 652.761 456.647 650.369 456.647 647.977C497.395 691.781 511.193 729.554 578.941 729.554H581.93C595.131 729.554 624.472 728.956 624.472 717.544C624.472 698.957 580.685 661.183 568.131 650.369C566.936 649.771 565.74 649.771 565.143 649.771C551.942 649.771 549.551 690.535 539.388 699.555C519.014 694.771 511.193 661.781 508.802 644.389L520.21 653.409C553.785 653.409 563.399 621.615 612.516 621.615C631.695 621.615 653.862 631.831 653.862 653.409C650.276 658.193 645.493 660.585 639.466 660.585C619.092 660.585 599.913 645.585 578.891 644.389C600.461 686.349 659.242 689.389 680.812 723.574C681.41 725.368 681.41 727.76 681.41 729.554C681.41 758.956 641.259 764.338 619.042 764.338C611.271 764.338 603.45 763.74 595.679 762.544L603.45 776.348L603.55 776.248ZM417.094 558.526C419.485 566.3 421.278 574.124 421.278 582.496C421.278 593.31 417.692 602.28 407.48 606.466C393.681 588.476 390.094 563.908 376.296 546.517C390.094 546.517 406.284 548.311 417.044 558.526H417.094ZM394.926 715.053C394.926 699.455 399.111 681.465 402.1 666.465C415.3 682.661 431.49 708.425 431.49 730.053C431.49 741.464 425.512 755.816 413.507 757.66C401.502 748.042 394.926 730.053 394.926 715.103V715.053ZM507.059 430.206C513.037 424.226 520.857 418.794 529.226 417C540.634 418.794 550.198 420.588 561.606 420.588C574.807 420.588 582.578 430.804 586.762 442.166C568.779 460.156 557.371 452.98 538.791 462.548C528.579 467.332 519.612 474.557 509.998 480.537C481.205 499.125 454.255 511.733 421.278 520.105C453.06 494.939 484.842 469.126 511.791 439.126L507.009 430.106L507.059 430.206ZM557.371 782.228C549.6 782.228 542.377 779.836 535.802 775.65C543.573 773.856 548.405 767.876 550.198 760.052C538.193 756.464 526.835 751.032 516.025 745.052C507.059 762.444 490.271 774.454 482.45 793.042C502.825 805.052 529.226 811.032 546.612 826.629C555.628 811.032 563.997 795.434 571.768 779.238C566.986 781.032 562.154 782.228 557.371 782.228Z" fill="#2DBF15"/>
<path d="M7.25467 361.073L0 368.425L9.75297 365.013C59.2865 347.714 107.763 296.873 143.172 259.728L144.853 257.95C155.999 245.745 169.836 230.56 184.394 220.132L186.123 218.883L185.114 217.009C177.187 202.449 159.459 202.449 147.736 202.449C146.006 202.449 144.133 202.593 142.211 202.737C140.241 202.881 138.223 203.025 136.157 203.025H135.148L134.428 203.746C130.2 207.975 119.15 211.338 101.517 213.741C104.784 210.666 108.003 207.59 111.27 204.467C123.522 192.79 136.157 180.729 149.273 169.676C153.837 165.688 158.786 161.892 163.59 158.24C168.443 154.539 173.487 150.647 178.292 146.466L179.349 145.409C182.135 142.718 185.258 139.643 186.459 134.934L186.892 133.252L185.402 132.339C172.527 124.362 156.864 122.728 143.172 122.152H142.691L142.259 122.296C126.789 127.774 111.03 130.705 92.6772 133.06C109.541 110.042 131.016 91.4935 151.82 73.5216C167.242 60.2108 183.24 46.4195 197.462 30.7541L198.086 30.0814V26.8618C198.086 7.54437 172.911 3.98843 156.24 1.58576C152.925 1.10523 149.946 0.672746 147.592 0.192213L146.775 0L125.059 10.5237L134.908 20.3746C113.817 64.0551 76.3422 103.267 45.9783 132.627C43.0956 135.366 40.0688 138.153 36.994 140.892C28.4421 148.677 19.602 156.75 12.2993 165.736C8.07142 170.493 3.02678 178.038 3.02678 186.975C3.02678 192.454 5.86139 197.355 10.6178 200.046L11.8669 200.767L21.8601 194.28C58.2295 170.493 75.8617 159.008 121.696 154.251C94.0224 177.605 68.559 203.217 44.7772 227.532L44.3448 227.965L43.8163 229.839C42.7593 233.443 41.7984 236.807 41.7984 240.747C41.7984 248.003 44.3448 255.499 49.1972 262.371L50.6385 264.389L52.6084 262.9C71.0573 249.06 92.3889 241.612 113.961 241.372C101.469 255.307 89.1219 269.627 77.207 283.466C54.8664 309.367 31.7572 336.181 7.25467 361.073Z" fill="#2DBF15"/>
<path d="M84.1254 342.428C79.8975 342.428 75.7176 343.005 72.1624 343.629L68.4149 344.254L70.5769 347.377C75.7176 354.778 78.6003 364.58 81.3388 374.047C86.8158 392.74 92.485 412.009 115.883 412.009H123.474V409.606C123.474 378.324 129.479 346.32 136.157 313.5L138.175 303.505L104.208 346.993C98.0101 343.966 91.2359 342.428 84.0773 342.428H84.1254Z" fill="#2DBF15"/>
<path d="M14.173 390.433C11.6267 390.433 8.55185 390.818 4.4681 391.635L1.58545 392.211L2.73851 394.902C5.52507 401.582 7.49488 409.606 9.60882 418.112C15.1339 440.553 21.4277 465.973 45.5459 470.922L47.1794 471.259L55.2988 458.381V457.804C55.9234 452.086 56.548 446.175 56.548 440.216C56.548 415.421 43.48 390.385 14.2691 390.385L14.173 390.433Z" fill="#2DBF15"/>
<path d="M487.024 127.533C480.346 125.467 473.475 123.305 468.094 120.133L467.085 119.797C455.122 118.644 442.247 118.067 429.851 118.067C407.943 118.067 386.419 120.085 365.808 124.122C378.876 96.4911 395.596 72.2722 413.228 46.6598C418.513 39.0193 423.798 31.3308 428.986 23.4981L429.755 22.3448L429.179 21.0954C422.837 7.88074 406.117 5.67029 393.866 4.03648L389.542 3.45984L388.821 3.84426C365.808 16.8667 337.318 28.1112 304.12 37.3374L288.169 18.933L286.343 21.1915C277.551 32.1957 273.083 43.3921 273.083 54.4925C273.083 64.8239 273.083 84.0933 289.947 84.0933H293.886L294.607 83.3244C313.392 62.9979 344.14 55.3574 371.285 48.63C372.823 48.2455 374.312 47.8611 375.801 47.5247C366.913 69.8215 336.021 111.628 321.992 129.936L319.061 130.849C277.936 143.92 201.353 168.235 201.353 222.199C201.353 228.253 203.371 235.99 207.695 241.083L175.986 285.004L142.499 282.265L147.111 286.878C159.17 298.94 161.621 312.539 163.831 324.504C166.569 339.449 168.923 352.327 189.054 354.057L190.495 354.201L191.264 352.952C195.444 346.368 199.72 338.439 199.72 329.694C199.72 324.552 198.663 319.41 197.654 314.461C196.645 309.511 195.684 304.85 195.684 300.189C195.684 283.755 200.344 268.041 204.86 252.857L208.223 241.564C210.77 244.303 213.989 246.225 218.072 246.465H218.601L219.081 246.321C263.522 228.638 304.264 197.211 347.263 147.38C368.787 142.863 387.476 140.652 404.388 140.652C427.785 140.652 445.177 144.16 456.083 151.128C442.871 172.559 419.57 189.763 385.074 203.794C376.618 198.028 361.58 196.971 347.023 195.961C339.432 195.433 332.225 194.952 326.796 193.751L325.163 193.415L317.332 205.956L337.318 221.093C337.799 227.58 337.799 234.212 337.799 240.651C337.799 251.367 337.126 260.785 335.733 268.57C309.404 282.89 279.473 292.933 246.707 298.411L242.863 299.036L245.169 302.207C252.136 311.626 265.973 312.827 279.425 313.98C286.535 314.605 293.262 315.182 298.354 316.96L298.883 317.152L321.848 313.788C294.991 352.327 240.125 403.696 199.96 419.409L199.431 419.602L199.047 420.034C193.906 425.8 193.234 433.729 193.234 440.697C193.234 445.887 194.098 455.401 199.864 460.447L201.065 461.456L202.506 460.783C256.796 435.459 315.746 410.712 386.515 410.712C396.316 410.712 406.261 411.288 415.774 411.865C435.184 413.595 454.882 417.055 474.244 422.196C477.079 423.061 480.009 424.119 482.988 425.176C487.792 426.906 492.789 428.684 497.545 429.789H501.533C511.863 429.837 516.667 425.032 516.667 414.748C516.667 380.15 457.477 365.493 433.887 365.493C430.043 365.493 425.719 366.455 421.54 367.368C418.417 368.088 415.438 368.713 412.747 368.953C396.989 371.116 380.894 371.788 365.232 372.317C365.328 367.416 365.328 362.802 365.328 358.382C365.328 325.609 365.424 305.859 402.514 288.512C409.961 285.052 419.233 280.776 425.047 272.366C425.863 270.684 425.863 269.675 425.863 268.378C425.863 253.673 395.692 253.241 392.233 253.241C387.284 253.241 382.576 253.241 377.531 253.625C377.291 251.271 377.291 249.012 377.291 246.369C377.291 237.816 380.654 232.338 387.236 230.127L388.581 229.695L391.464 213.068C422.452 206.005 478.664 191.06 518.925 168.042L519.982 167.466L520.751 161.363V159.056C520.751 137.913 502.83 132.339 487.024 127.389V127.533ZM300.18 158.912C284.662 180.825 259.679 199.517 234.6 207.734C233.783 205.764 233.399 204.082 233.399 202.593C233.399 177.173 277.359 164.535 300.18 158.96V158.912ZM331.841 345.599C331.361 356.171 330.784 367.031 329.391 378.18C314.593 382.168 299.988 387.454 285.863 392.548C272.939 397.209 259.679 402.014 246.274 405.81C259.439 396.44 272.795 387.117 285.815 378.035C300.949 367.464 316.611 356.556 331.841 345.648V345.599Z" fill="#2DBF15"/>
</g>
</svg>
