<svg width="675" height="50" viewBox="0 0 675 50" fill="none" xmlns="http://www.w3.org/2000/svg">
<path d="M10.9011 47.0882C16.2954 43.0424 19.8467 39.0416 23.5778 32.6358C27.6235 25.6232 30.3207 18.0262 31.3546 10.6764C26.3873 10.7213 19.2623 11.7103 13.823 12.9914C12.9689 13.1488 12.7441 13.2162 12.362 13.2162C11.5529 13.2162 10.7437 12.9465 9.35019 12.0924C9.50752 14.7446 9.50752 15.0143 9.6199 17.9138C9.73229 19.8018 9.77724 21.2628 9.84467 22.1843C9.95705 24.342 10.002 25.1512 10.002 25.4659C10.002 28.0057 9.30523 29.1969 7.84427 29.1969C6.87778 29.1969 5.9113 28.4327 4.92233 26.9268C4.0008 25.5782 3.46137 24.0723 3.46137 22.926C3.46137 22.6113 3.50632 22.3416 3.77604 21.6224C4.27052 20.3188 4.47281 19.0376 4.47281 16.9922C4.47281 14.1377 4.04575 11.4855 3.34899 10.1369C2.65222 8.7434 1.73068 7.93425 0 7.05767C0.584387 6.743 0.854104 6.67557 1.57335 6.67557C3.2366 6.67557 5.77644 7.7994 8.36123 9.68741C10.4066 9.68741 10.8336 9.68741 18.7229 8.72093C26.1176 7.7994 28.2079 7.52968 29.5115 7.25996C30.3656 7.10263 30.4331 7.0352 31.6693 6.33843C32.0963 6.06871 32.5908 5.91138 32.9729 5.91138C34.0518 5.91138 35.9847 6.99024 37.7154 8.56359C39.064 9.86722 39.6484 10.6764 39.6484 11.4855C39.6484 12.025 39.4911 12.4071 38.8842 13.0589C38.12 13.868 37.8053 14.5648 37.0411 16.7225C33.5348 26.5447 29.4441 33.7147 24.2071 38.9967C20.3187 42.9975 16.4303 45.5822 11.2607 47.74L10.8786 47.0882H10.9011Z" fill="#231815"/>
<path d="M53.8984 28.5451C59.068 24.2296 63.833 18.4532 67.7664 11.8676C69.4296 9.05803 70.0815 7.55211 70.0815 6.47324C70.0815 5.70905 69.8567 5.23704 69.3173 4.58523C68.6205 3.73112 68.2384 3.46141 66.7325 2.74216C67.3843 2.47244 67.654 2.42749 68.126 2.42749C70.059 2.42749 73.0259 3.61874 75.296 5.28199C76.4198 6.09115 77.0267 7.01268 77.0267 7.7544C77.0267 8.49612 76.9143 8.72089 75.5657 10.4516C75.5207 10.4965 74.8689 11.3731 74.0598 12.452C74.5543 12.4969 74.9139 12.5644 75.1386 12.5644C75.9928 12.5644 79.0271 12.1373 80.7578 11.8002C82.6907 11.4181 83.41 11.2158 84.4888 10.6089C85.4553 10.1144 85.6801 10.0245 86.1071 10.0245C86.9612 10.0245 88.3098 10.8337 89.8382 12.2946C91.2318 13.6432 91.951 14.7221 91.951 15.5762C91.951 16.228 91.6813 16.7 90.9171 17.3069C89.7933 18.116 89.7258 18.161 88.175 20.8132C84.3989 27.1291 82.0839 30.2533 78.6899 33.8046C72.1043 40.7048 63.9679 45.7171 55.2695 48.2119L54.9998 47.6276C58.3937 45.7395 60.1694 44.6157 62.8216 42.458C69.5645 37.0636 74.8015 31.2872 79.0495 24.6567C80.9825 21.6448 83.5224 16.8349 84.0168 15.329C84.1292 14.9469 84.2416 14.7446 84.2416 14.6322C84.2865 14.5198 84.354 14.4074 84.354 14.3625C84.354 14.2501 84.2416 14.1377 84.1966 14.0927H84.0393C84.0393 14.0927 83.9269 14.0927 83.8145 14.0478C83.7696 14.0478 83.7022 14.0927 83.5898 14.1602C83.4774 14.2051 83.2751 14.2051 83.0054 14.2726C82.5109 14.2726 80.1958 14.812 78.9147 15.1941C78.1655 15.4488 77.4837 15.6661 76.8693 15.8459C76.5547 15.8909 76.3299 15.9583 76.1726 15.9583C75.2061 15.9583 74.0148 15.3065 72.8236 14.1152C67.4292 20.9705 60.7987 26.3649 54.3255 29.107L53.9434 28.5676L53.8984 28.5451Z" fill="#231815"/>
<path d="M118.788 47.0882C124.182 43.0424 127.733 39.0416 131.464 32.6358C135.51 25.6232 138.207 18.0262 139.241 10.6764C134.274 10.7213 127.149 11.7103 121.71 12.9914C120.856 13.1488 120.631 13.2162 120.249 13.2162C119.44 13.2162 118.63 12.9465 117.237 12.0924C117.394 14.7446 117.394 15.0143 117.507 17.9138C117.619 19.8018 117.664 21.2628 117.731 22.1843C117.844 24.342 117.889 25.1512 117.889 25.4659C117.889 28.0057 117.192 29.1969 115.731 29.1969C114.765 29.1969 113.798 28.4327 112.809 26.9268C111.888 25.5782 111.348 24.0723 111.348 22.926C111.348 22.6113 111.393 22.3416 111.663 21.6224C112.157 20.3188 112.36 19.0376 112.36 16.9922C112.36 14.1377 111.932 11.4855 111.236 10.1369C110.539 8.7434 109.617 7.93425 107.887 7.05767C108.471 6.743 108.741 6.67557 109.46 6.67557C111.123 6.67557 113.663 7.7994 116.248 9.68741C118.293 9.68741 118.72 9.68741 126.61 8.72093C134.004 7.7994 136.095 7.52968 137.398 7.25996C138.252 7.10263 138.32 7.0352 139.556 6.33843C139.983 6.06871 140.478 5.91138 140.86 5.91138C141.938 5.91138 143.871 6.99024 145.602 8.56359C146.951 9.86722 147.535 10.6764 147.535 11.4855C147.535 12.025 147.378 12.4071 146.771 13.0589C146.007 13.868 145.692 14.5648 144.928 16.7225C141.422 26.5447 137.331 33.7147 132.094 38.9967C128.205 42.9975 124.317 45.5822 119.147 47.74L118.765 47.0882H118.788Z" fill="#231815"/>
<path d="M161.785 28.5451C166.955 24.2296 171.72 18.4532 175.653 11.8676C177.316 9.05803 177.968 7.55211 177.968 6.47324C177.968 5.70905 177.743 5.23704 177.204 4.58523C176.507 3.73112 176.125 3.46141 174.619 2.74216C175.271 2.47244 175.541 2.42749 176.013 2.42749C177.946 2.42749 180.913 3.61874 183.183 5.28199C184.307 6.09115 184.913 7.01268 184.913 7.7544C184.913 8.49612 184.801 8.72089 183.452 10.4516C183.407 10.4965 182.756 11.3731 181.946 12.452C182.441 12.4969 182.801 12.5644 183.025 12.5644C183.879 12.5644 186.914 12.1373 188.644 11.8002C190.577 11.4181 191.297 11.2158 192.376 10.6089C193.342 10.1144 193.567 10.0245 193.994 10.0245C194.848 10.0245 196.197 10.8337 197.725 12.2946C199.118 13.6432 199.838 14.7221 199.838 15.5762C199.838 16.228 199.568 16.7 198.804 17.3069C197.68 18.116 197.613 18.161 196.062 20.8132C192.286 27.1291 189.971 30.2533 186.577 33.8046C179.991 40.7048 171.855 45.7171 163.156 48.2119L162.886 47.6276C166.28 45.7395 168.056 44.6157 170.708 42.458C177.451 37.0636 182.688 31.2872 186.936 24.6567C188.869 21.6448 191.409 16.8349 191.904 15.329C192.016 14.9469 192.128 14.7446 192.128 14.6322C192.173 14.5198 192.241 14.4074 192.241 14.3625C192.241 14.2501 192.128 14.1377 192.083 14.0927H191.926C191.926 14.0927 191.814 14.0927 191.701 14.0478C191.656 14.0478 191.589 14.0927 191.476 14.1602C191.364 14.2051 191.162 14.2051 190.892 14.2726C190.398 14.2726 188.083 14.812 186.801 15.1941C186.052 15.4488 185.37 15.6661 184.756 15.8459C184.441 15.8909 184.217 15.9583 184.059 15.9583C183.093 15.9583 181.902 15.3065 180.71 14.1152C175.316 20.9705 168.685 26.3649 162.212 29.107L161.83 28.5676L161.785 28.5451Z" fill="#231815"/>
<path d="M225.528 49.2008C228.45 47.6948 230.271 46.4586 232.159 44.5706C234.699 42.0308 235.935 39.7607 236.789 36.097C235.755 36.7488 234.743 37.0635 233.44 37.0635C229.349 37.0635 226.202 33.2875 226.202 28.2752C226.202 23.263 229.394 19.5993 233.867 19.5993C234.991 19.5993 235.643 19.7567 237.148 20.5209V17.9361C237.148 16.6325 237.148 16.2054 237.103 14.3174C229.866 15.1715 224.314 16.6325 220.269 18.7452C219.887 18.9026 219.19 19.0599 218.695 19.0599C217.122 19.0599 215.504 17.8687 213.998 15.7109C212.964 14.1376 212.334 12.5867 212.334 11.4404C212.334 11.2156 212.379 10.9459 212.559 10.5189C214.133 12.7216 215.908 13.7105 218.336 13.7105C219.415 13.7105 223.153 13.246 229.551 12.317C231.709 12.0023 233.327 11.8225 236.991 11.3955C236.879 7.30475 236.609 5.57406 235.867 4.54015C235.013 3.3489 233.665 2.65213 231.17 2.27003C232.136 1.41593 232.833 1.19116 234.564 1.19116C236.609 1.19116 238.722 1.50583 240.655 2.11269C242.768 2.80946 243.734 3.68604 243.734 4.92225C243.734 5.46168 243.622 5.84378 243.195 6.5855C242.385 8.04647 242.273 8.51847 242.003 10.7436C249.51 10.0918 249.938 10.0469 251.758 9.23772C252.725 8.81067 253.264 8.69828 254.073 8.69828C255.534 8.69828 257.894 9.7322 259.31 10.9684C260.007 11.5528 260.277 12.0922 260.277 12.9688C260.277 13.9353 259.468 14.5871 258.344 14.5871C257.849 14.5871 257.04 14.4747 255.152 14.205C252.073 13.8229 249.758 13.6656 246.296 13.6656C244.453 13.6656 243.554 13.7105 241.711 13.8903C241.486 16.7448 241.329 20.2512 241.329 22.2516V23.3754C242.723 26.0276 243.217 27.9156 243.217 30.8825C243.217 37.041 240.632 42.1657 235.71 45.6045C233.17 47.3802 230.81 48.4141 225.73 49.8751L225.461 49.2232L225.528 49.2008ZM233.62 21.1502C231.462 21.1502 229.799 23.4203 229.799 26.3198C229.799 29.7137 231.417 32.0962 233.799 32.0962C235.912 32.0962 237.148 30.3655 237.148 27.3987C237.148 23.3979 235.845 21.1502 233.642 21.1502H233.62Z" fill="#231815"/>
<path d="M281.427 27.6684C286.934 24.1621 291.182 22.7011 295.879 22.7011C303.319 22.7011 308.399 27.1739 308.399 33.7146C308.399 41.8061 300.734 47.7399 290.328 47.7399C284.169 47.7399 280.123 45.2 280.123 41.3116C280.123 38.075 282.933 35.8049 286.979 35.8049C291.025 35.8049 294.418 37.9177 296.644 42.0533C300.375 40.1203 302.263 36.9737 302.263 32.7256C302.263 27.8707 299.408 25.1735 294.216 25.1735C290.552 25.1735 286.776 26.5671 283.383 29.1743C281.337 30.7477 278.752 33.4449 277.179 35.6026C276.258 36.8388 276.145 36.9961 275.673 37.3333C275.358 37.603 274.819 37.8278 274.549 37.8278C273.088 37.8278 271.74 35.4453 271.74 32.9729C271.74 31.4669 272.009 31.0848 274.28 29.2418C277.089 26.9267 284.686 18.6779 288.62 13.5982C292.066 9.17783 293.789 6.9152 293.789 6.81031C293.789 6.81031 293.744 6.76536 293.677 6.76536H293.632C293.474 6.87774 293.137 6.99012 292.553 7.19241C292.126 7.41717 291.159 7.7768 289.811 8.42861C289.429 8.58595 288.462 9.013 287.114 9.61986C285.93 10.1593 284.581 10.7886 283.068 11.5079C281.989 12.0473 281.337 12.2721 280.685 12.2721C279.494 12.2721 278.37 11.4629 277.224 9.73224C276.19 8.11394 275.651 6.60802 275.651 5.25944C275.651 4.67505 275.763 4.18057 276.145 3.32647C277.224 5.97868 278.842 7.37222 280.843 7.37222C282.304 7.37222 285.315 6.7204 288.889 5.70897C291.901 4.78743 292.778 4.40533 293.744 3.66361C294.441 3.12418 294.868 2.89941 295.475 2.89941H295.587C296.778 2.94437 298.509 4.20305 300.217 6.13602C300.914 6.99012 301.296 7.75432 301.296 8.45109C301.296 9.14786 300.982 9.52996 299.566 10.2942C297.947 11.1483 297.565 11.418 293.092 15.6885C290.238 18.3857 289.092 19.5095 285.226 23.6227C283.398 25.5706 282.124 26.9192 281.405 27.6684L281.45 27.7134L281.427 27.6684ZM285.405 38.4121C283.472 38.4121 282.124 39.491 282.124 40.9969C282.124 42.9973 284.664 44.3909 288.282 44.3909C289.474 44.3909 290.058 44.3459 291.744 43.9638C290.71 40.4575 288.35 38.4121 285.428 38.4121H285.405Z" fill="#231815"/>
<path d="M325.323 8.51852C327.639 10.9909 329.414 11.7551 332.876 11.7551C334.179 11.7551 334.988 11.7102 336.607 11.4405C336.921 8.78824 337.146 6.81032 337.146 5.73145C337.146 3.41638 336.112 2.38246 333.055 1.52836C334.022 0.943971 334.516 0.76416 335.708 0.76416C337.551 0.76416 339.866 1.30359 341.799 2.1577C343.574 2.96685 344.383 3.776 344.383 4.85487C344.383 5.3943 344.226 5.70897 343.619 6.42822C342.698 7.61947 342.54 8.04652 341.731 10.5189C346.316 9.44005 348.789 8.40614 351.284 6.47317C351.935 5.93374 352.318 5.82135 353.172 5.82135C353.936 5.82135 355.284 6.13602 356.094 6.51812C356.948 6.90022 357.442 7.48461 357.442 8.29376C357.442 9.64234 356.094 10.4515 351.778 11.9125C348.969 12.834 344.878 13.7555 340.877 14.3849C340.45 16.4976 340.068 19.1948 339.911 21.2402C342.45 20.476 345.193 20.004 347.957 19.8466C347.912 18.3407 347.463 17.5316 346.226 16.4527C346.541 16.4077 346.766 16.3403 346.923 16.3403C348.317 16.3403 350.115 17.9586 350.744 19.8017C360.072 20.8806 365.579 25.6905 365.579 32.7031C365.579 38.5245 361.803 43.4469 355.172 46.0766C351.351 47.65 347.575 48.3917 342.001 48.7288L341.844 48.077C347.822 46.5711 351.553 44.728 354.678 41.7162C357.532 38.9066 359.15 35.198 359.15 31.2422C359.15 28.1629 358.117 25.6905 356.026 23.9598C354.678 22.836 353.284 22.2291 350.677 21.8021C349.171 27.084 346.631 31.1298 341.776 36.0521C342.136 36.7714 342.548 37.4756 343.012 38.1649C343.552 38.9291 343.709 39.4685 343.709 40.3676C343.709 42.368 342.585 44.1436 341.327 44.1436C340.068 44.1436 339.124 42.9524 337.775 39.7158C334.381 42.6377 330.448 44.6831 328.178 44.6831C326.717 44.6831 325.75 43.7166 325.323 41.9409C325.054 40.8171 324.941 40.5924 324.29 39.6708C323.256 38.3222 322.941 37.4007 322.941 36.1196C322.941 31.4894 327.841 26.2524 335.618 22.6787C335.887 19.487 336.045 16.9022 336.269 14.8569C335.303 14.9693 334.764 14.9693 334.381 14.9693C329.639 14.9693 327.099 13.3959 324.717 8.9231L325.301 8.541L325.323 8.51852ZM327.436 36.4118C327.436 38.1874 328.088 39.2663 329.099 39.2663C330.673 39.2663 333.685 37.648 336.427 35.3778C335.842 32.0289 335.618 29.8262 335.618 26.5896V25.196C330.448 28.2753 327.414 32.366 327.414 36.4118H327.436ZM339.731 25.0387C339.731 27.5785 339.956 30.006 340.428 32.0963C344.159 28.3202 345.979 25.6231 347.598 21.5773C344.586 21.8021 342.698 22.2291 339.776 23.353C339.731 24.1621 339.731 24.7015 339.731 25.0162V25.0387Z" fill="#231815"/>
<path d="M376.48 10.6313C378.907 13.1037 380.526 13.8679 383.493 13.8679C384.841 13.8679 386.504 13.7105 388.572 13.2835C389.808 9.66477 390.303 7.39465 390.303 5.50664C390.303 3.50624 389.336 2.42737 386.572 1.41593C387.336 0.921449 387.651 0.831543 388.505 0.831543C390.235 0.831543 392.326 1.37098 394.326 2.29251C396.327 3.21404 397.068 4.02319 397.068 5.10206C397.068 5.79883 396.956 6.06855 396.147 7.14741C395.495 8.00152 395.45 8.06895 393.337 12.2271C396.461 11.1033 397.068 10.8335 398.304 9.84458C399.338 9.03543 399.653 8.8781 400.462 8.8781C402.777 8.8781 404.62 9.95697 404.62 11.2606C404.62 12.4518 403.654 13.261 401.226 14.1151C398.754 14.9692 395.877 15.7334 391.674 16.6549C387.134 26.9491 384.392 33.1077 383.47 35.0406C381.627 38.9291 380.93 39.7382 379.582 39.7382C378.772 39.7382 378.233 39.3561 377.694 38.502C377.154 37.5805 376.84 36.1869 376.84 34.8833C376.84 33.3774 377.064 32.8829 378.188 31.6467C381.043 28.6798 384.504 23.0158 387.089 17.082C386.055 17.1944 385.515 17.2393 385.043 17.2393C380.616 17.2393 377.986 15.4637 375.918 10.9909L376.457 10.6762L376.48 10.6313ZM406.576 14.0252H407.812C411.161 14.0252 414.937 15.0591 417.477 16.565C419.365 17.7563 420.489 19.4195 420.489 21.1053C420.489 22.8809 419.522 24.0722 418.106 24.0722C417.612 24.0722 417.252 23.9148 416.443 23.3754C414.78 22.1392 413.206 21.7121 410.667 21.7121C407.205 21.7121 406.081 22.6337 406.081 25.3758C406.081 27.2188 406.463 29.7362 407.542 34.8159C410.824 35.7374 413.633 36.9287 415.364 38.2098C417.027 39.446 417.949 41.1317 417.949 43.0198C417.949 44.9078 417.095 46.2564 415.948 46.2564C415.297 46.2564 414.915 45.9867 413.791 44.7954C411.858 42.6377 410.554 41.6038 408.014 40.1653V41.1992C408.014 45.672 404.508 48.3242 398.529 48.3242C393.135 48.3242 389.471 45.672 389.471 41.806C389.471 37.3332 394.169 34.0966 400.687 34.0966C401.451 34.0966 402.081 34.1416 402.89 34.254C402.845 31.6017 402.845 31.4444 402.845 30.86C402.845 27.039 403.272 24.8813 404.238 23.3529C405.699 21.0828 407.587 20.1613 413.296 18.8127C411.79 16.9247 410.172 15.9582 406.441 14.722L406.553 14.0701L406.576 14.0252ZM398.439 37.7603C393.967 37.7603 391.157 39.2213 391.157 41.5813C391.157 43.4243 392.933 44.5032 396.169 44.5032C398.979 44.5032 401.024 43.8064 401.991 42.5028C402.575 41.7386 402.845 40.6597 402.845 39.2213C402.845 38.5694 402.845 38.4571 402.8 38.4571C401.406 37.9626 399.878 37.7603 398.439 37.7603Z" fill="#231815"/>
<path d="M429.434 12.7217C431.547 15.1042 433.098 15.8459 435.795 15.8459C437.796 15.8459 439.998 15.5762 442.268 15.0368C443.235 11.4181 443.842 8.2489 443.842 6.36088C443.842 5.32697 443.46 4.42791 442.718 3.7761C442.066 3.19171 441.369 2.85456 439.594 2.38256C440.56 1.79817 440.942 1.68579 442.403 1.68579C444.336 1.68579 446.674 2.22522 448.607 3.14676C450.068 3.79857 450.989 4.81001 450.989 5.79897C450.989 6.45079 450.944 6.60813 450.068 7.68699C449.304 8.72091 448.719 9.95711 447.258 13.6657C450.45 12.4745 451.461 11.8901 453.417 10.2718C454.001 9.73235 454.653 9.46263 455.26 9.46263C456.226 9.46263 457.8 9.88968 458.609 10.4291C459.193 10.7438 459.463 11.2832 459.463 12.0025C459.463 13.8455 455.53 15.6661 445.595 18.4307C445.13 19.7194 444.336 22.0419 443.212 25.3984C442.523 27.4812 441.212 31.3621 439.279 37.0412C437.706 41.7388 436.897 43.8965 436.312 44.9754C435.773 45.8969 435.009 46.3689 434.154 46.3689C433.503 46.3689 432.806 45.9868 432.424 45.4474C431.615 44.3235 431.075 42.2108 431.075 40.5475C431.075 39.0865 431.233 38.7044 432.424 37.3109C435.076 34.0743 438.088 27.646 441.055 19.0151C439.819 19.2399 438.897 19.2848 437.548 19.2848C433.278 19.2848 430.85 17.5092 428.917 13.0813L429.457 12.7667L429.434 12.7217ZM452.001 32.0964C451.888 33.1303 451.843 33.6697 451.843 34.1417C451.843 38.7719 454.923 40.997 461.283 40.997C463.666 40.997 465.015 40.7723 467.172 40.0305C467.554 39.8732 467.937 39.8058 468.251 39.8058C469.33 39.8058 471.218 40.7723 472.297 41.9635C472.836 42.5479 473.106 43.1548 473.106 43.9639C473.106 45.8519 470.634 46.706 465.06 46.706C459.89 46.706 455.889 45.6721 453.619 43.7841C451.574 42.0534 450.427 39.5136 450.427 36.5467C450.427 34.9284 450.697 33.6248 451.349 31.9166L452.001 32.0739V32.0964ZM452.855 23.1508C456.631 20.1839 461.441 18.4082 465.689 18.4082C469.24 18.4082 471.578 19.8692 471.578 22.0269C471.578 23.5329 470.724 24.2971 468.925 24.2971L466.813 24.2521C465.307 24.2521 463.733 24.6342 462.07 25.4434C461.815 25.5482 461.059 25.9603 459.8 26.6796C459.148 27.0617 458.991 27.174 458.339 27.5337L458.024 27.0392L463.464 21.9146H462.115C459.463 21.9146 456.226 22.5664 453.057 23.6902L452.832 23.1508H452.855Z" fill="#231815"/>
<path d="M500.527 42.6826C505.584 41.1317 509.113 39.0414 511.945 35.9846C515.114 32.5907 516.665 28.4325 516.665 23.5776C516.665 15.5086 511.765 10.6986 503.651 10.6986C503.044 10.6986 502.662 10.6986 501.763 10.7885C503.404 12.7215 503.943 14.0027 503.943 15.8457C503.943 19.6218 501.539 26.2298 498.145 31.9388C495.088 37.041 492.346 39.6258 489.986 39.6258C488.952 39.6258 487.963 39.0639 487.446 38.2547C487.064 37.5579 486.794 36.8837 486.367 35.1305C486.075 34.0067 485.715 33.3324 484.344 31.6467C483.22 30.2306 482.501 28.1628 482.501 26.2298C482.501 23.263 484.007 19.6667 486.457 16.7897C490.525 11.9798 497.223 9.05786 504.258 9.05786C514.777 9.05786 522.284 15.7109 522.284 25.0611C522.284 31.8939 518.508 37.3781 511.675 40.5473C508.753 41.9184 505.719 42.7275 500.774 43.3793L500.594 42.7275L500.527 42.6826ZM491.694 15.8233C488.435 19.0823 486.637 23.0831 486.637 27.0615C486.637 30.3205 488.232 33.6695 489.851 33.6695C491.469 33.6695 494.526 29.7586 497.583 23.9372C499.943 19.5094 501.359 15.576 501.359 13.5082C501.359 12.9912 501.314 12.3844 501.179 11.9573C501.089 11.5752 500.842 10.9234 500.797 10.9234C496.976 11.7775 494.436 13.1486 491.694 15.8233Z" fill="#231815"/>
<path d="M539.591 48.077C539.546 49.3807 538.67 49.6953 535.545 49.6953C533.927 49.6953 533.5 49.4256 533.5 48.4591C533.815 40.3227 533.927 35.0182 533.927 29.7363V21.3076C531.5 24.4319 530.196 25.8479 527.611 28.2753L527.072 27.7808C532.354 19.1499 536.557 7.93417 537.591 0C545.413 1.84307 546.177 2.11278 546.177 2.8545C546.177 3.43889 545.48 3.70861 543.794 3.93337C540.985 10.3616 539.434 13.4184 537.096 16.8798C537.636 16.9547 538.01 17.0072 538.22 17.0371C540.648 17.3068 541.299 17.5316 541.299 18.071C541.299 18.4981 540.805 18.8352 539.524 19.3072V30.3656L539.569 48.0546L539.591 48.077ZM539.928 39.7608C542.086 37.5581 545.053 33.1752 547.48 28.59C550.133 23.5778 551.751 19.6444 553.099 14.9468H545.435C543.817 14.9468 542.963 14.9918 541.389 15.2615L541.007 13.3735C542.356 13.6881 543.704 13.8005 545.435 13.8005H555.19V6.13606C555.19 3.93337 555.145 2.74212 554.808 0.516957C561.506 1.10134 561.933 1.16877 562.674 1.43849C563.101 1.66325 563.326 1.86554 563.326 2.13526C563.326 2.62974 562.629 3.05679 561.011 3.5288V13.778H567.799C569.462 11.6653 570.002 11.0359 571.732 8.96809C574.43 11.0134 575.239 11.7102 577.891 13.9803C578.048 14.2051 578.206 14.4748 578.206 14.5647C578.206 14.7895 577.936 14.8794 577.554 14.8794H561.416C562.719 18.543 563.731 20.5434 566.113 23.6227C569.934 28.6349 573.508 31.3321 579.217 33.6472L579.06 34.1866C577.014 35.2655 576.048 36.4567 574.744 39.4686C574.475 40.053 574.362 40.2328 574.092 40.2328C573.778 40.2328 573.238 39.8507 572.362 38.9966C569.17 35.8049 566.158 31.3995 564.383 27.129C563.191 24.2071 562.607 22.5888 560.876 16.8798L561.034 30.2083C561.109 38.09 561.183 43.9714 561.258 47.8523C561.258 48.6165 561.146 48.9311 560.831 49.1559C560.404 49.4706 558.629 49.7403 556.673 49.7403C555.325 49.7403 554.943 49.4706 554.943 48.3468V48.3018L555.325 30.9725L555.549 22.7236C553.01 27.6909 550.964 30.7028 547.84 34.0518C545.457 36.5242 543.48 38.1425 540.288 40.3002L539.906 39.7158L539.928 39.7608Z" fill="#231815"/>
<path d="M596.299 47.0431C596.254 48.2793 595.535 48.504 591.826 48.504C589.893 48.504 589.624 48.3467 589.624 47.2004C589.938 37.603 590.006 31.7591 590.006 19.4645C590.006 8.4061 589.961 5.75389 589.691 1.1687C592.928 2.56224 593.894 3.05672 596.928 4.7874H617.472C618.933 3.21406 619.405 2.74205 620.866 1.1687C623.024 2.74205 623.675 3.21406 625.608 4.7874C626.148 5.21446 626.372 5.48417 626.372 5.82132C626.372 6.3158 625.945 6.67542 624.327 7.552L624.282 16.1829C624.282 32.321 624.327 35.8273 624.664 46.4587C624.664 47.1105 624.552 47.3802 624.282 47.5825C623.788 47.9646 622.169 48.1669 620.236 48.1669C618.393 48.1669 617.966 48.0095 617.966 47.133V43.739H596.344V47.0206L596.299 47.0431ZM617.921 5.9337H596.299V22.8809H617.921V5.9337ZM596.299 24.0047V42.6152H617.921V24.0047H596.299Z" fill="#231815"/>
<path d="M639.694 15.2733C641.758 17.0123 643.133 17.5282 645.981 17.5282C647.452 17.5282 648.732 17.3945 650.529 16.9741C651.446 15.3689 652.134 13.1713 652.134 11.9292C652.134 10.3623 651.083 9.54057 648.465 8.94819C649.42 8.39402 649.879 8.26025 650.949 8.26025C652.554 8.26025 654.58 8.68066 656.128 9.31126C657.408 9.86543 658.153 10.5534 658.153 11.3368C658.153 11.6999 657.924 12.1585 657.37 12.7509C656.644 13.6299 655.803 14.7765 654.943 16.1524C659.032 14.7383 659.434 14.509 661.001 13.2095C661.364 12.8847 661.784 12.7509 662.281 12.7509C664.306 12.7509 665.988 13.7637 665.988 14.9485C665.988 15.9039 665.166 16.4199 662.185 17.4327C659.338 18.3881 656.357 19.1334 652.688 19.764C651.312 21.7322 650.949 22.2864 650.433 23.0126C649.274 24.7197 648.478 25.8662 648.045 26.4522C650.834 24.9426 652.631 24.3884 654.599 24.3884C656.109 24.3884 657.542 24.9426 658.497 25.9554C659.09 26.6051 659.414 27.1402 659.778 28.3823C660.3 28.0765 661.752 27.3249 664.134 26.1274C665.51 25.4394 667.154 24.484 668.071 23.8725C668.721 23.4521 668.988 23.0508 668.988 22.6304C668.988 21.7131 668.109 20.8341 666.466 20.0697C667.154 19.8404 667.421 19.8022 667.88 19.8022C670.593 19.8022 674.625 23.2801 674.625 25.6687C674.625 26.586 674.167 27.0446 672.829 27.3695C667.593 28.7453 663.389 30.2167 660.446 31.7264C660.542 34.8029 660.542 34.8985 660.542 35.3571C660.542 37.612 660.446 38.6057 660.179 39.1216C659.816 39.8478 658.899 40.3064 657.924 40.3064C656.682 40.3064 655.898 39.5802 655.898 38.3764C655.898 38.2872 655.943 37.6757 656.032 36.5419C656.07 35.4909 656.128 34.8412 656.128 33.5991C651.217 36.3508 649.382 38.2808 649.382 40.6121C649.382 42.8097 651.542 43.8225 656.223 43.8225C659.204 43.8225 662.644 43.3257 664.67 42.5804C665.854 42.1218 666.179 42.0262 666.6 42.0262C667.326 42.0262 668.472 42.4466 669.389 43.0772C670.345 43.7652 670.899 44.6442 670.899 45.5041C670.899 46.3258 670.249 47.0137 669.198 47.3386C667.498 47.8354 664.383 48.1221 660.255 48.1221C655.21 48.1221 652.096 47.5297 649.898 46.1538C648.159 45.0455 647.242 43.3065 647.242 41.1472C647.242 38.9879 648.388 36.6948 650.72 34.459C651.828 33.408 652.975 32.5863 656.128 30.5225C656.09 28.7835 655.937 28.1912 655.574 27.3121C655.153 26.5287 654.331 26.0318 653.376 26.0318C650.586 26.0318 647.376 28.3631 643.783 33.0067C642.598 34.5163 642.178 34.8412 641.452 34.8412C640.305 34.8412 639.426 33.236 639.426 31.0766C639.426 30.5225 639.56 30.0256 639.789 29.6626C640.114 29.2039 640.152 29.1657 641.586 28.1912C643.325 27.0446 646.363 23.5667 648.79 20.0315C648.064 20.0697 647.605 20.1271 647.28 20.1271C645.255 20.1271 643.248 19.6302 642.044 18.7512C640.936 18.0251 640.21 17.146 639.292 15.5791L639.656 15.2542L639.694 15.2733Z" fill="#231815"/>
</svg>
