<svg width="470" height="144" viewBox="0 0 470 144" fill="none" xmlns="http://www.w3.org/2000/svg">
<path d="M0 132H470" stroke="url(#paint0_linear_112_39)" stroke-width="4"/>
<path d="M43.02 76.213L45.93 77.773C45.27 78.283 45.21 78.343 44.52 78.943C42.87 80.413 41.04 81.853 39.84 82.633C41.04 82.603 43.23 82.513 46.44 82.333C45.93 81.793 45.6 81.463 44.7 80.623L47.22 79.003C49.53 81.133 50.46 82.183 52.56 85.033L49.89 86.953C49.2 85.843 48.93 85.483 48.39 84.733C45.42 84.943 42.75 85.093 40.26 85.183V89.413C40.26 90.793 40.32 91.633 40.47 92.623H36.72C36.87 91.543 36.93 90.733 36.93 89.413V85.333C34.98 85.393 31.62 85.513 30.51 85.513C28.11 85.543 26.7 85.633 26.16 85.753L25.71 82.483C27.18 82.723 27.18 82.723 34.86 82.753C33.15 81.313 31.98 80.533 28.71 78.703L31.2 76.723C32.49 77.533 32.88 77.773 33.69 78.313C34.44 77.713 35.1 77.113 36 76.213H30.48C29.22 76.213 28.5 76.243 27.66 76.333C27.75 75.403 27.78 74.623 27.78 73.393V68.623C27.78 67.363 27.75 66.583 27.66 65.623C28.56 65.743 29.61 65.773 30.9 65.773H46.8C48.09 65.773 49.11 65.743 50.04 65.623C49.95 66.463 49.92 67.273 49.92 68.623V73.393C49.92 74.713 49.95 75.523 50.04 76.333C49.17 76.243 48.48 76.213 47.19 76.213H43.02ZM42.9 76.213H39.96C38.76 77.503 37.59 78.583 35.91 79.933C36.69 80.533 36.93 80.713 37.47 81.163C40.11 79.183 42.27 77.233 42.9 76.213ZM30.93 68.143V69.853H37.11V68.143H30.93ZM46.77 68.143H40.2V69.853H46.77V68.143ZM30.93 72.073V73.903H37.11V72.073H30.93ZM46.77 72.073H40.2V73.903H46.77V72.073ZM32.79 85.603L35.46 87.373C33.12 89.743 31.32 90.943 27.99 92.383C27.42 91.393 26.79 90.673 25.62 89.773C29.22 88.483 30.75 87.583 32.79 85.603ZM41.85 87.163L44.43 85.363C46.71 87.283 48.63 88.333 52.05 89.503C51.18 90.343 50.61 91.123 49.95 92.353C46.65 90.973 44.67 89.713 41.85 87.163ZM43.86 109.963V104.533C43.86 102.853 43.83 102.073 43.65 100.933H47.4C47.25 101.953 47.19 102.913 47.19 104.533V109.963H49.32C50.94 109.963 51.96 109.903 52.95 109.783V113.233C51.78 113.113 50.73 113.053 49.29 113.053H47.19V124.003C47.19 126.073 47.25 127.303 47.4 128.533H43.65C43.8 127.333 43.86 126.193 43.86 124.003V113.053H42C40.68 113.053 39.39 113.113 38.34 113.233V109.783C39.3 109.903 40.38 109.963 41.97 109.963H43.86ZM26.85 104.623V101.683C27.6 101.803 28.2 101.833 29.43 101.833H34.62C35.82 101.833 36.39 101.803 37.17 101.683V104.623C36.33 104.533 35.76 104.503 34.62 104.503H29.43C28.35 104.503 27.6 104.533 26.85 104.623ZM25.59 108.913V105.853C26.34 105.973 27.03 106.033 28.14 106.033H35.85C37.02 106.033 37.68 106.003 38.4 105.883V108.883C37.71 108.793 37.11 108.763 35.85 108.763H28.11C27.12 108.763 26.46 108.793 25.59 108.913ZM26.88 113.083V110.233C27.51 110.293 27.87 110.323 28.86 110.323H35.22C36.24 110.323 36.51 110.323 37.14 110.233V113.083C36.45 112.993 36.18 112.993 35.22 112.993H28.86C27.87 112.993 27.57 112.993 26.88 113.083ZM26.88 117.343V114.493C27.42 114.553 27.81 114.583 28.86 114.583H35.22C36.24 114.583 36.51 114.583 37.14 114.493V117.343C36.54 117.283 36.15 117.253 35.16 117.253H28.83C27.87 117.253 27.51 117.283 26.88 117.343ZM30.03 127.183V128.533H26.85C26.97 127.663 27 126.823 27 125.653V121.123C27 120.163 26.97 119.593 26.88 118.783C27.45 118.843 27.87 118.873 28.98 118.873H35.43C36.36 118.873 36.81 118.843 37.38 118.783C37.29 119.473 37.26 120.043 37.26 121.093V125.503C37.26 126.643 37.29 127.363 37.41 128.113H34.2V127.183H30.03ZM29.97 121.603V124.513H34.23V121.603H29.97Z" fill="black"/>
<path d="M81.656 129.344C78.8 129.344 76.028 128.98 73.34 128.252C70.68 127.552 68.3 126.614 66.2 125.438C64.128 124.262 62.574 122.946 61.538 121.49L68.216 110.066C69.504 111.998 71.408 113.552 73.928 114.728C76.476 115.876 79.136 116.45 81.908 116.45C83.784 116.45 85.45 116.128 86.906 115.484C88.39 114.84 89.552 113.93 90.392 112.754C91.232 111.578 91.652 110.192 91.652 108.596C91.652 106.524 90.826 104.928 89.174 103.808C87.55 102.688 85.394 102.128 82.706 102.128C81.782 102.128 80.844 102.17 79.892 102.254C78.968 102.338 78.03 102.492 77.078 102.716L75.188 93.644L91.61 81.59H70.4L73.046 69.2H111.896L109.586 80.456L93.584 93.77C95.74 94.246 97.756 95.114 99.632 96.374C101.508 97.634 103.006 99.286 104.126 101.33C105.274 103.374 105.848 105.782 105.848 108.554C105.848 112.726 104.742 116.38 102.53 119.516C100.318 122.624 97.378 125.046 93.71 126.782C90.042 128.49 86.024 129.344 81.656 129.344ZM104.921 143.834L101.855 137.66C104.879 136.428 107.567 135.028 109.919 133.46C112.271 131.892 114.007 130.24 115.127 128.504C113.531 128.42 112.103 128.07 110.843 127.454C109.583 126.81 108.589 125.942 107.861 124.85C107.161 123.73 106.811 122.428 106.811 120.944C106.811 118.312 107.721 116.128 109.541 114.392C111.361 112.656 113.629 111.788 116.345 111.788C119.145 111.788 121.399 112.628 123.107 114.308C124.815 115.988 125.669 118.242 125.669 121.07C125.669 124.346 124.689 127.37 122.729 130.142C120.797 132.942 118.249 135.476 115.085 137.744C111.949 140.012 108.561 142.042 104.921 143.834ZM151.819 129.26C148.067 129.26 144.791 128.644 141.991 127.412C139.191 126.152 136.839 124.416 134.935 122.204C133.059 119.992 131.645 117.416 130.693 114.476C129.741 111.508 129.265 108.302 129.265 104.858C129.265 100.07 129.979 95.478 131.407 91.082C132.863 86.658 134.921 82.71 137.581 79.238C140.241 75.766 143.391 73.022 147.031 71.006C150.699 68.962 154.717 67.94 159.085 67.94C162.837 67.94 166.113 68.57 168.913 69.83C171.741 71.062 174.093 72.784 175.969 74.996C177.845 77.208 179.245 79.798 180.169 82.766C181.121 85.706 181.597 88.898 181.597 92.342C181.597 97.13 180.869 101.736 179.413 106.16C177.985 110.556 175.927 114.49 173.239 117.962C170.579 121.434 167.429 124.192 163.789 126.236C160.177 128.252 156.187 129.26 151.819 129.26ZM152.785 116.114C155.109 116.114 157.139 115.372 158.875 113.888C160.639 112.404 162.109 110.472 163.285 108.092C164.489 105.712 165.399 103.15 166.015 100.406C166.631 97.634 166.939 94.974 166.939 92.426C166.939 90.018 166.589 87.974 165.889 86.294C165.189 84.586 164.181 83.298 162.865 82.43C161.549 81.534 159.967 81.086 158.119 81.086C155.823 81.086 153.807 81.814 152.071 83.27C150.335 84.698 148.865 86.588 147.661 88.94C146.457 91.292 145.547 93.84 144.931 96.584C144.315 99.328 144.007 102.03 144.007 104.69C144.007 107.154 144.343 109.24 145.015 110.948C145.715 112.628 146.709 113.916 147.997 114.812C149.313 115.68 150.909 116.114 152.785 116.114ZM206.353 129.26C202.601 129.26 199.325 128.644 196.525 127.412C193.725 126.152 191.373 124.416 189.469 122.204C187.593 119.992 186.179 117.416 185.227 114.476C184.275 111.508 183.799 108.302 183.799 104.858C183.799 100.07 184.513 95.478 185.941 91.082C187.397 86.658 189.455 82.71 192.115 79.238C194.775 75.766 197.925 73.022 201.565 71.006C205.233 68.962 209.251 67.94 213.619 67.94C217.371 67.94 220.647 68.57 223.447 69.83C226.275 71.062 228.627 72.784 230.503 74.996C232.379 77.208 233.779 79.798 234.703 82.766C235.655 85.706 236.131 88.898 236.131 92.342C236.131 97.13 235.403 101.736 233.947 106.16C232.519 110.556 230.461 114.49 227.773 117.962C225.113 121.434 221.963 124.192 218.323 126.236C214.711 128.252 210.721 129.26 206.353 129.26ZM207.319 116.114C209.643 116.114 211.673 115.372 213.409 113.888C215.173 112.404 216.643 110.472 217.819 108.092C219.023 105.712 219.933 103.15 220.549 100.406C221.165 97.634 221.473 94.974 221.473 92.426C221.473 90.018 221.123 87.974 220.423 86.294C219.723 84.586 218.715 83.298 217.399 82.43C216.083 81.534 214.501 81.086 212.653 81.086C210.357 81.086 208.341 81.814 206.605 83.27C204.869 84.698 203.399 86.588 202.195 88.94C200.991 91.292 200.081 93.84 199.465 96.584C198.849 99.328 198.541 102.03 198.541 104.69C198.541 107.154 198.877 109.24 199.549 110.948C200.249 112.628 201.243 113.916 202.531 114.812C203.847 115.68 205.443 116.114 207.319 116.114ZM260.888 129.26C257.136 129.26 253.86 128.644 251.06 127.412C248.26 126.152 245.908 124.416 244.004 122.204C242.128 119.992 240.714 117.416 239.762 114.476C238.81 111.508 238.334 108.302 238.334 104.858C238.334 100.07 239.048 95.478 240.476 91.082C241.932 86.658 243.99 82.71 246.65 79.238C249.31 75.766 252.46 73.022 256.1 71.006C259.768 68.962 263.786 67.94 268.154 67.94C271.906 67.94 275.182 68.57 277.982 69.83C280.81 71.062 283.162 72.784 285.038 74.996C286.914 77.208 288.314 79.798 289.238 82.766C290.19 85.706 290.666 88.898 290.666 92.342C290.666 97.13 289.938 101.736 288.482 106.16C287.054 110.556 284.996 114.49 282.308 117.962C279.648 121.434 276.498 124.192 272.858 126.236C269.246 128.252 265.256 129.26 260.888 129.26ZM261.854 116.114C264.178 116.114 266.208 115.372 267.944 113.888C269.708 112.404 271.178 110.472 272.354 108.092C273.558 105.712 274.468 103.15 275.084 100.406C275.7 97.634 276.008 94.974 276.008 92.426C276.008 90.018 275.658 87.974 274.958 86.294C274.258 84.586 273.25 83.298 271.934 82.43C270.618 81.534 269.036 81.086 267.188 81.086C264.892 81.086 262.876 81.814 261.14 83.27C259.404 84.698 257.934 86.588 256.73 88.94C255.526 91.292 254.616 93.84 254 96.584C253.384 99.328 253.076 102.03 253.076 104.69C253.076 107.154 253.412 109.24 254.084 110.948C254.784 112.628 255.778 113.916 257.066 114.812C258.382 115.68 259.978 116.114 261.854 116.114Z" fill="black"/>
<path d="M303.45 101.017L306.604 98.775C309.074 100.523 309.15 100.561 311.354 102.575C314.014 100.409 315.382 99.003 317.852 96.001H307.858C304.894 99.193 301.816 101.549 297.598 103.905C296.952 102.613 296.306 101.853 295.014 100.713C301.246 97.673 306.262 93.113 308.504 88.439L312.988 89.541C312 90.985 311.658 91.441 311.012 92.315H318.802C320.246 92.315 321.158 92.277 322.146 92.125L324.388 94.519C323.932 95.089 323.894 95.127 323.02 96.267C319.714 100.599 316.066 104.095 311.582 107.249H323.894C325.414 107.249 326.174 107.211 327.086 107.097C326.934 108.123 326.896 109.111 326.896 110.593V120.359C326.896 121.879 326.972 123.133 327.124 124.121H322.792V122.069H308.276V124.121H303.868C304.02 122.981 304.096 121.727 304.096 120.359V112.113C301.778 113.405 300.296 114.089 296.876 115.533C296.23 113.899 295.698 113.101 294.444 111.733C297.712 110.669 300.828 109.339 303.564 107.857C304.78 107.173 306.034 106.375 308.086 105.007C306.49 103.335 305.426 102.423 303.45 101.017ZM308.238 110.973V118.459H322.83V110.973H308.238ZM362.426 112.341H352.774C354.332 114.735 356.384 116.331 359.69 117.623C362.084 118.535 364.174 118.991 367.48 119.257C366.568 120.549 365.922 121.879 365.428 123.741C360.564 122.829 357.79 121.803 354.788 119.865C352.622 118.421 350.95 116.825 349.62 114.887C348.176 117.319 346.504 118.953 343.882 120.511C341.488 121.955 338.98 122.829 334.838 123.665C334.23 121.879 334.002 121.461 332.596 119.599C336.89 119.067 339.664 118.193 342.324 116.521C344.338 115.191 345.44 114.051 346.276 112.341H337.574C335.788 112.341 334.648 112.417 333.47 112.569V108.351C334.686 108.503 335.712 108.579 337.422 108.579H347.34C347.454 107.629 347.53 106.945 347.53 106.071C347.53 105.387 347.492 105.045 347.378 104.513H351.558C350.988 104.019 350.874 103.601 350.874 102.233V96.115H347.796C347.644 97.521 347.53 97.977 347.34 98.699C346.428 101.967 344.186 104.361 340.842 105.691C339.512 106.223 338.296 106.527 336.054 106.907C335.484 105.463 334.876 104.513 333.698 103.183C337.08 103.069 339.474 102.423 341.146 101.207C342.628 100.143 343.578 98.281 343.73 96.115H337.802V100.409H333.584C333.698 99.535 333.774 98.737 333.774 97.559V95.089C333.774 93.873 333.736 93.037 333.622 92.277C334.876 92.391 335.902 92.429 337.802 92.429H347.454V91.707C347.454 90.833 347.378 90.149 347.226 89.237H351.976C351.862 90.035 351.786 90.833 351.786 91.707V92.429H362.16C364.06 92.429 365.086 92.391 366.34 92.277C366.226 93.075 366.188 93.835 366.188 95.089V97.597C366.188 98.775 366.226 99.649 366.34 100.447H364.212C364.098 102.461 363.87 103.373 363.224 104.019C362.426 104.855 360.298 105.273 356.688 105.273C354.294 105.273 352.66 105.083 351.862 104.703C351.862 104.931 351.824 104.969 351.824 105.387C351.786 106.109 351.672 107.819 351.596 108.579H362.35C364.212 108.579 365.39 108.503 366.53 108.351V112.569C365.352 112.417 364.174 112.341 362.426 112.341ZM362.16 99.155V96.115H354.712V100.979C354.712 101.777 355.054 101.929 357.106 101.929C358.892 101.929 359.842 101.777 360.146 101.397C360.374 101.131 360.488 100.295 360.488 98.965C360.488 98.813 360.488 98.661 360.45 98.433C361.21 98.813 361.438 98.889 362.16 99.155ZM389.406 106.679H388.798C388.57 110.593 388.266 113.063 387.696 115.799C386.936 119.257 385.986 121.423 384.01 124.235C383.022 123.019 381.958 122.031 380.78 121.233C381.274 120.587 381.426 120.397 381.844 119.751C381.616 119.751 381.502 119.751 381.426 119.751H376.524V123.247H372.762C372.914 122.145 372.99 120.891 372.99 119.371V111.695C372.99 110.517 372.99 110.365 373.028 109.149C372.154 110.783 371.888 111.239 371.09 112.227C370.824 110.745 370.178 108.959 369.532 107.781C371.47 105.577 372.8 103.107 373.902 99.801C374.548 97.901 374.852 96.457 375.118 94.101H374.054C372.686 94.101 371.888 94.139 370.824 94.291V90.187C371.964 90.377 372.876 90.415 374.51 90.415H380.286C381.92 90.415 382.794 90.377 383.934 90.187V94.253C382.908 94.139 382.072 94.101 380.666 94.101H379.032C378.652 96.989 378.044 99.497 377.018 102.195H380.628C381.806 102.195 382.186 102.157 382.908 102.081C382.832 103.069 382.832 103.563 382.832 104.893V116.939C382.832 117.623 382.832 117.623 382.832 117.927C384.58 113.937 385.188 108.655 385.188 97.027C385.188 95.583 385.112 94.215 384.998 93.113C386.366 93.265 387.316 93.303 388.95 93.303H393.054V92.429C393.054 90.757 392.978 89.845 392.826 88.857H397.082C396.892 89.769 396.854 90.681 396.854 92.467V93.303H400.502C402.478 93.303 403.352 93.265 404.112 93.113L405.936 95.013C405.746 95.355 405.67 95.507 405.48 96.039C404.682 98.091 403.58 100.409 402.592 102.119C401.072 101.435 400.008 101.055 398.982 100.789C400.198 99.003 400.578 98.319 401.072 97.027H396.854V103.107H399.172C400.844 103.107 401.566 103.069 402.326 102.917L404.378 104.855C403.998 105.539 403.732 106.185 403.39 107.059C401.908 110.783 400.692 113.139 398.868 115.571C401.262 117.547 403.656 118.877 406.582 119.941C405.556 121.461 405.1 122.373 404.454 124.197C401.11 122.449 398.944 121.005 396.246 118.573C393.586 121.233 391.838 122.639 388.95 124.273C388.304 122.867 387.62 121.879 386.556 120.739C389.406 119.333 391.192 118.041 393.662 115.723C391.648 113.101 390.622 110.859 389.406 106.679ZM388.95 103.107H393.054V97.027H388.988V99.725C388.988 100.903 388.95 101.549 388.95 103.107ZM399.362 106.679H393.016C394.042 109.605 394.764 111.049 396.132 112.835C397.728 110.669 398.374 109.453 399.362 106.679ZM376.524 105.843V116.141H379.298V105.843H376.524ZM428.318 113.177H423.872C423.91 112.379 423.948 111.999 423.948 111.543C423.948 111.125 423.948 111.125 423.834 108.807L423.302 95.887C423.226 94.215 423.112 92.315 422.96 91.251H429.192C429.078 92.277 428.926 94.253 428.85 95.887L428.318 108.807C428.242 111.049 428.242 111.049 428.242 111.581C428.242 112.037 428.242 112.417 428.318 113.177ZM428.85 121.499H423.34V116.293H428.85V121.499ZM441.195 113.177H436.749C436.787 112.379 436.825 111.999 436.825 111.543C436.825 111.125 436.825 111.125 436.711 108.807L436.179 95.887C436.103 94.215 435.989 92.315 435.837 91.251H442.069C441.955 92.277 441.803 94.253 441.727 95.887L441.195 108.807C441.119 111.049 441.119 111.049 441.119 111.581C441.119 112.037 441.119 112.417 441.195 113.177ZM441.727 121.499H436.217V116.293H441.727V121.499Z" fill="black"/>
<path d="M150.278 17.3735H145.714C145.482 22.092 144.979 25.1474 144.012 27.9321C143.2 30.2527 142.117 32.3412 140.648 34.1977C140.067 35.0099 139.487 35.6674 138.172 37.0984C137.128 35.6674 136.316 34.8552 134.962 33.8883C137.94 31.1036 139.487 28.667 140.454 25.3408C141.305 22.4014 141.692 18.0697 141.692 11.0306C141.692 7.39504 141.653 6.19608 141.537 4.91976C146.294 4.88109 152.869 3.41139 155.963 1.67096L158.168 5.61594C157.472 5.77064 157.24 5.84799 156.389 6.11872C152.405 7.35636 149.891 7.89783 145.83 8.47798V13.3125H154.61C156.427 13.3125 157.24 13.2738 158.361 13.0804V17.5669C157.317 17.4122 156.427 17.3735 154.958 17.3735H154.378V32.6893C154.378 34.7005 154.416 35.6674 154.61 36.8663H150.046C150.201 35.6287 150.278 34.5458 150.278 32.6506V17.3735ZM123.475 7.39504V3.0633C124.597 3.21801 125.641 3.25668 127.652 3.25668H136.006C138.288 3.25668 139.217 3.21801 140.222 3.0633V7.39504C139.217 7.24034 138.211 7.20166 136.2 7.20166H127.42C125.641 7.20166 124.558 7.24034 123.475 7.39504ZM139.1 13.5832V20.2356C139.1 21.9373 139.1 22.3627 139.178 23.3297C138.791 23.3297 137.515 23.291 135.388 23.2523H128.967C128.658 29.7112 127.807 33.0374 125.525 37.021C124.365 35.59 123.514 34.8552 122.083 33.9656C124.481 29.8659 125.138 25.921 125.138 15.4784C125.138 12.8871 125.1 11.5334 124.945 10.1024C126.221 10.1797 127.188 10.2184 129.045 10.2184H135.31C137.089 10.2184 138.018 10.1797 139.217 10.1024C139.139 10.9146 139.1 12.0749 139.1 13.5832ZM129.045 19.5781H135.117V13.854H129.083V16.6387C129.083 18.1084 129.083 18.4564 129.045 19.5781ZM179.788 30.7942V28.3189H172.71V33.7722C172.71 35.358 172.749 36.2088 172.865 37.2531H168.533C168.688 36.0155 168.726 35.0099 168.726 33.1921V28.0482C168.726 26.5785 168.688 25.7276 168.61 24.9541C169.577 25.0314 170.196 25.0701 172.13 25.0701H179.788V23.5617H173.6C171.859 23.5617 171.318 23.5617 170.428 23.6777C170.467 23.291 170.467 23.291 170.506 22.6722C170.544 22.4014 170.544 21.8213 170.544 21.0864V18.4564C170.544 17.7989 170.506 16.9094 170.428 15.8651C171.395 15.9812 171.782 15.9812 173.909 15.9812H179.788V14.7049C176.887 14.8596 175.572 14.8982 171.008 15.0143C170.699 13.8926 170.351 13.1965 169.616 12.1909C171.047 12.2296 171.821 12.2296 172.517 12.2296C176.5 12.2296 182.689 11.9202 185.744 11.5721C187.717 11.34 188.838 11.1466 190.192 10.7986H168.572C168.34 24.7993 167.411 30.4848 164.124 37.1371C162.886 35.5127 162.074 34.7391 160.759 33.6175C162.074 31.1423 162.732 29.2858 163.273 26.4624C164.163 22.1694 164.549 16.0585 164.549 6.50549C164.549 4.76506 164.511 3.75947 164.356 2.40581C165.787 2.56051 167.218 2.59919 169.423 2.59919H190.579C192.628 2.59919 193.789 2.56051 195.065 2.44448C194.949 3.41139 194.91 4.10756 194.91 5.38388V7.7818C194.91 9.0968 194.91 9.29018 195.065 10.9146C193.711 10.8372 192.59 10.7986 190.656 10.7986L193.131 13.2738C188.722 14.0087 187.484 14.1634 183.617 14.4728V15.9812H190.23C191.778 15.9812 192.667 15.9425 193.595 15.8651C193.479 17.3348 193.479 17.3348 193.479 18.5725V21.0864C193.479 22.2467 193.479 22.2467 193.595 23.6777C192.435 23.5617 192.203 23.5617 190.385 23.5617H183.617V25.0701H191.971C193.789 25.0701 194.717 25.0314 195.761 24.9154C195.645 25.921 195.606 26.7332 195.606 28.3576V33.7336C195.606 35.1646 195.181 36.0541 194.253 36.5569C193.595 36.905 192.628 37.0597 190.733 37.0597C189.882 37.0597 189.341 37.0597 187.717 36.9824C187.6 35.6287 187.446 34.8552 187.02 33.5402C187.562 33.6175 187.755 33.6562 188.142 33.6949C187.987 33.3468 187.91 33.1921 187.717 32.7667C183.849 33.4628 183.307 33.5015 175.147 34.3524C174.683 34.3911 174.528 34.3911 174.257 34.4684L173.716 30.9102C174.451 30.9875 174.837 30.9875 175.688 30.9875C176.771 30.9875 177.738 30.9489 179.788 30.7942ZM183.617 28.3189V30.4848C184.97 30.3301 185.357 30.2914 186.247 30.1753C185.976 29.7886 185.899 29.6726 185.589 29.2471L187.407 28.3189H183.617ZM179.788 18.8432H174.412V20.6997H179.788V18.8432ZM183.617 18.8432V20.6997H189.534V18.8432H183.617ZM191.584 28.3189H188.181C189.148 29.6726 190.153 31.3356 190.927 32.96L189.341 33.8109C189.921 33.8496 190.269 33.8496 190.579 33.8496C191.352 33.8496 191.584 33.6562 191.584 32.9987V28.3189ZM168.572 7.6271H190.927V5.84799H168.572V7.6271ZM206.165 8.40062V3.64345C207.441 3.8755 208.254 3.91418 210.69 3.91418H224.188C226.625 3.91418 227.437 3.8755 228.713 3.64345V8.40062C227.514 8.24592 226.78 8.20724 224.266 8.20724H210.613C208.099 8.20724 207.364 8.24592 206.165 8.40062ZM230.686 12.8871L232.89 15.3623C232.504 16.0585 232.272 16.6 231.807 17.7989C229.796 23.4844 226.857 27.7774 222.835 30.8715C220.089 32.9987 217.575 34.3137 212.701 36.1315C211.85 34.1977 211.386 33.5402 209.685 31.645C214.403 30.4461 217.459 29.0151 220.437 26.5398C223.299 24.1419 224.962 21.7826 226.663 17.4895H207.828C205.237 17.4895 204.27 17.5282 202.878 17.6829V12.9644C204.347 13.1965 205.198 13.2352 207.906 13.2352H226.315C228.713 13.2352 229.487 13.1578 230.686 12.8871ZM266.577 2.63786L271.025 5.73196C270.368 6.31211 270.174 6.46681 269.594 7.08563C266.693 10.1024 263.793 12.6163 260.467 15.0529V31.5677C260.467 33.6949 260.505 34.8165 260.66 35.8608H255.245C255.439 34.7391 255.477 33.9656 255.477 31.6837V18.0697C250.952 20.777 248.786 21.7826 241.67 24.3352C240.858 22.3241 240.432 21.6666 239.079 19.9261C246.736 17.8376 253.234 14.6275 259.384 9.87032C262.826 7.20166 265.456 4.533 266.577 2.63786ZM283.321 5.07447L288.62 6.04137C288.504 6.46681 288.465 6.50549 288.426 6.8149L288.349 7.47239L288.156 8.594L288.04 9.52224C286.415 20.6223 283.398 28.2415 278.216 34.1977C276.398 32.4572 275.663 31.8771 273.807 30.8715C276.127 28.5509 277.713 26.1917 279.337 22.6335C281.001 19.0366 282.354 14.2407 282.973 9.36753C283.205 7.7818 283.321 6.46681 283.321 5.61594C283.321 5.49991 283.321 5.30652 283.321 5.07447ZM294.808 6.0027L299.604 5.07447C299.643 6.85358 300.339 10.6438 301.228 13.97C303.123 21.1251 305.831 26.3464 309.853 30.6781C307.881 31.9158 307.068 32.5733 305.599 34.2363C300.455 28.0868 296.858 19.1913 295.349 8.78738C295.117 7.20166 295.001 6.58284 294.808 6.0027ZM299.991 3.60477L302.891 2.75389C304.322 4.76506 305.173 6.38946 306.101 8.98077L303.162 9.909C302.272 7.43372 301.46 5.77064 299.991 3.60477ZM311.168 7.43372L308.229 8.36195C307.339 5.96402 306.372 4.03021 305.135 2.2511L307.997 1.4389C309.466 3.48874 310.317 5.11314 311.168 7.43372ZM312.482 21.8986V16.5226C314.183 16.7547 314.918 16.7934 318.747 16.7934H339.361C343.19 16.7934 343.925 16.7547 345.627 16.5226V21.8986C344.08 21.7052 343.655 21.7052 339.323 21.7052H318.786C314.454 21.7052 314.029 21.7052 312.482 21.8986Z" fill="black"/>
<defs>
<linearGradient id="paint0_linear_112_39" x1="0" y1="132.5" x2="470" y2="132.5" gradientUnits="userSpaceOnUse">
<stop stop-color="#FF7DD3"/>
<stop offset="1" stop-color="#3CE8FF"/>
</linearGradient>
</defs>
</svg>
