<svg width="472" height="52" viewBox="0 0 472 52" fill="none" xmlns="http://www.w3.org/2000/svg">
<path d="M4.09071 49.3582C8.63094 45.9643 11.418 43.3795 15.0367 39.109C20.4311 32.6807 25.3309 24.5892 28.4776 16.7225C29.1294 15.1042 29.5115 13.868 29.5115 13.3285C29.5115 12.9464 29.1969 12.7891 28.545 12.7891C26.6121 12.7891 21.6897 13.7556 17.0596 14.9918C13.0138 16.0706 10.9011 16.8798 8.47361 18.116C7.93418 18.4307 7.16998 18.6105 6.54064 18.6105C4.96729 18.6105 3.19165 17.1495 1.46097 14.5647C0.494485 12.9914 0 11.8226 0 10.7437C0 10.3167 0.0449515 10.047 0.314668 9.3502C1.6183 11.89 3.28156 12.9015 5.97873 12.9015C8.2938 12.9015 14.6097 12.0474 23.4654 10.519C27.5111 9.82221 27.9382 9.70982 29.3542 8.90067C29.7363 8.74334 30.2083 8.586 30.5454 8.586C31.3546 8.586 33.0853 9.61991 34.5462 10.9685C36.3893 12.6318 37.4007 14.0478 37.4007 15.0143C37.4007 15.7785 37.176 16.2055 36.4343 16.9472C35.4678 17.9811 35.243 18.2509 34.1642 20.2962C26.1176 35.8274 16.9472 44.9528 4.49528 49.9201L4.11319 49.3807L4.09071 49.3582ZM46.8184 5.97874C46.8184 9.21534 44.2336 11.8001 41.0419 11.8001C37.8503 11.8001 35.1531 9.14791 35.1531 5.97874C35.1531 2.80957 37.8053 0.157349 40.9745 0.157349C44.1437 0.157349 46.7959 2.74214 46.7959 5.97874H46.8184ZM37.1086 5.97874C37.1086 8.13647 38.8392 9.86716 40.997 9.86716C43.1547 9.86716 44.9304 8.13647 44.9304 5.97874C44.9304 3.821 43.1997 2.04537 40.997 2.04537C38.7943 2.04537 37.1086 3.77605 37.1086 5.97874Z" fill="#231815"/>
<path d="M62.9338 49.4706C68.3731 45.2675 72.1491 41.424 75.7229 36.4792C79.7686 30.8601 82.7355 25.2635 84.3088 20.1388C77.4086 21.0604 74.8238 21.5324 69.9689 22.836C66.2378 23.8025 65.4287 24.0722 63.7205 24.9488C62.9563 25.3309 62.3269 25.4882 61.6751 25.4882C59.405 25.4882 55.584 20.7906 55.584 17.8912C55.584 17.5091 55.6289 17.2394 55.8987 16.655C57.2922 19.0824 59.0229 20.1613 61.5627 20.1613C63.6081 20.1613 73.1605 18.8127 80.2181 17.5765C83.4547 17.0371 83.5671 16.9921 84.8033 16.1156C85.2978 15.8009 85.7249 15.6885 86.3092 15.6885C87.0734 15.6885 88.3096 16.4527 89.8156 17.7339C91.4788 19.1948 92.288 20.3186 92.288 21.1952C92.288 21.892 92.0632 22.2291 91.254 22.8585C90.3999 23.5552 90.0178 24.0947 88.7816 26.3648C82.4658 38.2773 74.4417 45.7395 63.2709 50.0549L62.9563 49.5155L62.9338 49.4706ZM61.4953 5.82135C63.6081 7.86671 65.114 8.56348 67.4291 8.56348C71.3624 8.56348 77.2513 7.05756 79.836 5.43926C80.2631 5.12459 80.6901 5.01221 81.2296 5.01221C82.2635 5.01221 84.3088 5.82135 85.5001 6.74289C86.4666 7.43966 86.8487 8.04652 86.8487 8.78825C86.8487 10.0244 85.9946 10.4515 82.6905 10.9909C77.2962 11.8001 72.0592 12.3845 69.9015 12.3845C65.6984 12.3845 63.4732 10.8111 60.8884 6.18098L61.4728 5.79888L61.4953 5.82135Z" fill="#231815"/>
<path d="M109.595 9.52992C115.641 10.4964 118.878 11.4179 121.418 13.0362C123.193 14.1151 124.07 15.621 124.07 17.6664C124.07 20.2062 122.834 22.1392 121.148 22.1392C120.226 22.1392 119.687 21.7121 118.878 20.2961C116.293 15.5986 113.528 12.6991 109.325 10.0918L109.595 9.50745V9.52992ZM150.592 12.6766C147.625 18.8801 143.894 24.0047 138.455 29.3991C133.645 34.1416 129.666 37.2658 122.811 41.6937C121.418 42.6152 120.429 43.3569 119.889 44.0762C119.125 44.9977 118.428 45.4248 117.619 45.4248C116.225 45.4248 114.225 43.9188 112.337 41.4914C110.606 39.2887 109.752 37.2209 109.752 35.4902C109.752 34.9957 109.797 34.726 110.022 34.0292C111.483 36.5016 113.259 38.03 114.72 38.03C116.99 38.03 124.047 34.2989 130.476 29.7137C138.522 23.9373 145.355 17.8911 149.94 12.3395L150.592 12.6541V12.6766Z" fill="#231815"/>
<path d="M165.269 36.1421C166.505 36.1421 167.269 36.0971 173.473 35.3329C179.137 34.6361 182.8 34.3664 192.578 33.7596C194.735 33.6472 195.432 33.5348 197.006 33.0628C197.927 32.7931 198.354 32.6807 198.781 32.6807C199.748 32.6807 201.321 33.3775 202.782 34.5238C204.4 35.715 205.209 36.9063 205.209 38.0301C205.209 39.1539 204.243 40.1429 203.052 40.1429C202.625 40.1429 201.86 40.0305 200.13 39.6484C195.432 38.6819 191.814 38.2549 187.835 38.2549C180.553 38.2549 172.461 39.6484 167.764 41.7612C166.842 42.1882 166.37 42.3006 165.651 42.3006C163.92 42.3006 161.763 40.6823 160.099 38.0301C159.133 36.5242 158.436 34.5687 158.436 33.4899C158.436 33.2801 158.541 32.8455 158.751 32.1862C160.369 34.8834 162.414 36.1196 165.269 36.1196V36.1421ZM167.427 11.5304C169.809 13.8005 171.045 14.3399 173.945 14.3399C176.844 14.3399 180.193 13.8455 184.082 12.879C186.284 12.2946 187.318 11.9125 188.779 11.1483C189.319 10.8336 189.633 10.7213 190.083 10.7213C191.162 10.7213 192.892 11.5304 194.241 12.6542C195.162 13.4184 195.477 14.0028 195.477 14.767C195.477 16.1605 194.623 16.655 191.117 17.1945C186.307 18.0036 180.283 18.543 176.709 18.543C173.698 18.543 171.585 17.7339 169.697 15.8908C168.775 14.9693 168.078 13.9579 166.955 11.8451L167.449 11.5304H167.427Z" fill="#231815"/>
<path d="M217.482 9.52992C223.528 10.4964 226.764 11.4179 229.304 13.0362C231.08 14.1151 231.956 15.621 231.956 17.6664C231.956 20.2062 230.72 22.1392 229.034 22.1392C228.113 22.1392 227.574 21.7121 226.764 20.2961C224.18 15.5986 221.415 12.6991 217.212 10.0918L217.482 9.50745V9.52992ZM258.479 12.6766C255.512 18.8801 251.781 24.0047 246.341 29.3991C241.531 34.1416 237.553 37.2658 230.698 41.6937C229.304 42.6152 228.315 43.3569 227.776 44.0762C227.012 44.9977 226.315 45.4248 225.506 45.4248C224.112 45.4248 222.112 43.9188 220.224 41.4914C218.493 39.2887 217.639 37.2209 217.639 35.4902C217.639 34.9957 217.684 34.726 217.909 34.0292C219.37 36.5016 221.145 38.03 222.606 38.03C224.876 38.03 231.934 34.2989 238.362 29.7137C246.409 23.9373 253.242 17.8911 257.827 12.3395L258.479 12.6541V12.6766Z" fill="#231815"/>
<path d="M264.637 30.0959C269.717 25.8928 274.617 19.9591 278.438 13.4184C280.101 10.6089 280.753 9.10295 280.753 8.06903C280.753 7.30483 280.595 6.83283 279.989 6.13606C279.337 5.32691 278.91 5.01224 277.449 4.293C278.101 4.02328 278.37 3.97833 278.842 3.97833C280.775 3.97833 283.81 5.21453 286.012 6.83283C287.136 7.68694 287.743 8.56351 287.743 9.37266C287.743 10.1369 287.631 10.3392 286.282 12.0698C285.855 12.5643 285.585 12.9239 284.776 14.0028C285.36 14.1152 285.698 14.1601 285.9 14.1601C286.934 14.1601 290.26 13.6657 292.261 13.1937C293.879 12.879 294.149 12.7666 295.655 11.89C296.082 11.6653 296.464 11.5754 296.778 11.5754C297.633 11.5754 298.981 12.3845 300.51 13.778C301.903 15.1716 302.622 16.2504 302.622 17.127C302.622 17.7788 302.353 18.2509 301.588 18.8577C300.51 19.6669 300.352 19.8242 298.846 22.364C290.867 36.4343 279.584 45.8294 265.941 49.7628L265.671 49.1784C270.683 46.5262 275.493 42.7501 281.202 36.9962C286.754 31.3321 291.834 23.7126 294.688 16.8798C294.801 16.5651 294.846 16.3404 294.913 16.228C294.958 16.0706 295.025 16.0032 295.025 15.9133C295.025 15.8683 294.913 15.6885 294.868 15.6885C294.868 15.6885 294.816 15.6736 294.711 15.6436H294.486C294.486 15.6436 294.374 15.6436 294.261 15.6885C294.149 15.8009 293.834 15.8009 293.407 15.8459C292.755 15.8908 292.598 15.9583 289.586 16.7674C288.822 17.0371 288.125 17.2619 287.541 17.4192C287.226 17.4642 287.001 17.5316 286.844 17.5316C285.877 17.5316 284.686 16.8798 283.495 15.6436C278.056 22.5438 271.403 27.8932 264.997 30.6353L264.615 30.0959H264.637ZM298.307 4.20309C300.892 5.01224 302.51 5.70901 304.083 6.78788C306.556 8.45113 307.702 10.0245 307.702 11.7552C307.702 12.9914 307.05 13.8679 306.084 13.8679C305.32 13.8679 304.96 13.5533 304.196 12.2946C302.577 9.48504 300.465 7.12502 297.835 5.12462L298.329 4.20309H298.307ZM303.791 0C306.533 0.584387 308.534 1.34859 310.107 2.3825C312.265 3.77604 313.231 5.03472 313.231 6.54064C313.231 7.84427 312.579 8.69837 311.613 8.69837C311.029 8.69837 310.646 8.38371 309.837 7.23741C307.994 4.58519 306.174 2.7646 303.364 0.876583L303.791 0.0224769V0Z" fill="#231815"/>
<path d="M360.364 32.5683C360.05 33.1527 359.78 33.6022 359.668 33.9169C357.735 37.648 357.51 38.0076 356.386 39.4686C351.913 45.3574 345.44 48.8637 338.967 48.8637C334.494 48.8637 330.92 47.133 328.987 44.0088C327.481 41.6263 326.874 38.2324 326.874 32.411C326.874 29.062 326.919 27.601 327.571 15.1041C327.616 13.4858 327.684 11.9799 327.684 10.6313C327.684 6.81035 326.874 5.50672 323.368 4.0008C324.065 3.57375 324.402 3.46136 325.099 3.46136C327.099 3.46136 329.729 4.22556 331.954 5.39434C334.337 6.63054 335.416 7.93417 335.416 9.32771C335.416 10.0245 335.303 10.2942 334.764 11.5978C333.145 15.2165 331.212 28.2753 331.212 35.6026C331.212 40.7722 333.527 43.1098 338.607 43.1098C343.192 43.1098 348.317 41.4465 352.902 38.4796C355.599 36.7489 356.836 35.6251 359.87 32.2312L360.409 32.6133L360.364 32.5683Z" fill="#231815"/>
<path d="M375.154 10.8336C378.166 13.5757 380.323 14.3399 384.819 14.3399C386.976 14.3399 389.449 14.1151 391.876 13.8005C391.831 10.7212 391.606 8.2488 391.224 7.05755C390.73 5.32687 389.179 4.40533 386.594 4.20304C387.516 3.28151 388.257 3.07922 390.145 3.07922C392.258 3.07922 394.731 3.46132 396.237 4.04571C397.81 4.6301 398.507 5.39429 398.507 6.42821C398.507 6.96764 398.394 7.34974 397.81 8.36118C397.113 9.66481 397.001 10.2492 396.619 12.9464C401.586 11.9125 403.249 11.3281 405.295 9.93453C405.834 9.61986 406.261 9.44005 406.756 9.44005C407.789 9.44005 409.453 9.97948 410.307 10.6763C410.959 11.1033 411.273 11.7102 411.273 12.2496C411.273 13.2835 410.352 13.9129 408.082 14.6321C404.89 15.5536 400.754 16.4077 396.259 17.0596C396.147 18.6329 396.147 19.3746 396.147 20.3411V23.9598C399.608 23.4204 402.665 22.4539 404.126 21.42C404.935 20.8805 405.092 20.8356 405.699 20.8356C406.778 20.8356 408.284 21.3301 409.093 21.9145C409.677 22.3415 409.902 22.7236 409.902 23.308C409.902 24.4992 408.711 25.196 405.205 26.1625C402.463 26.9267 398.776 27.6235 396.259 27.8932C396.529 33.5123 396.529 33.7146 396.843 35.8274C401.159 36.6365 404.98 37.9851 407.677 39.7158C409.947 41.1767 410.869 42.6377 410.869 44.7954C410.869 46.7284 410.06 47.9871 408.868 47.9871C408.059 47.9871 407.902 47.8747 406.284 46.2115C404.013 43.8964 400.462 41.7386 397.113 40.5924C397.226 41.5139 397.226 41.896 397.226 42.5253C397.226 44.7954 396.529 46.4137 394.955 47.605C393.337 48.7962 390.595 49.538 387.673 49.538C381.582 49.538 377.042 46.7284 377.042 42.9524C377.042 38.5245 382.863 35.4453 391.112 35.4453H392.034V28.2753C389.718 28.3877 389.224 28.3877 388.527 28.3877C381.739 28.3877 378.278 26.4547 378.278 22.6787C378.278 22.1842 378.323 21.7122 378.548 20.7457L379.087 20.7906C379.199 22.2966 379.402 22.9933 380.009 23.6002C380.863 24.5667 382.976 25.0612 386.257 25.0612C388.1 25.0612 389.606 24.9488 392.034 24.6791C392.034 23.4878 391.989 19.2398 391.989 17.4416C390.325 17.599 388.752 17.6664 387.291 17.6664C380.593 17.6664 377.626 16.2055 374.614 11.2382L375.109 10.8561L375.154 10.8336ZM387.291 38.9965C382.324 38.9965 378.93 40.6148 378.93 42.9299C378.93 44.773 381.043 45.8518 384.549 45.8518C387.785 45.8518 390.483 44.8853 391.337 43.4244C391.764 42.6152 391.921 41.7611 391.921 39.4236C390.033 39.1089 388.842 38.9965 387.291 38.9965Z" fill="#231815"/>
<path d="M436.806 50.5944C439.728 49.0885 441.549 47.8523 443.437 45.9643C445.977 43.4244 447.213 41.1543 448.067 37.4906C447.033 38.1425 446.022 38.4571 444.718 38.4571C440.627 38.4571 437.481 34.6811 437.481 29.6689C437.481 24.6566 440.672 20.993 445.145 20.993C446.269 20.993 446.921 21.1503 448.427 21.9145V19.3297C448.427 18.0261 448.427 17.599 448.382 15.711C441.144 16.5651 435.593 18.0261 431.547 20.1389C431.165 20.2962 430.468 20.4535 429.974 20.4535C428.4 20.4535 426.782 19.2623 425.276 17.1045C424.242 15.5312 423.613 13.9803 423.613 12.834C423.613 12.6093 423.658 12.3395 423.838 11.9125C425.411 14.1152 427.187 15.1041 429.614 15.1041C430.693 15.1041 434.431 14.6396 440.83 13.7106C442.987 13.3959 444.606 13.2161 448.269 12.7891C448.157 8.69836 447.887 6.96768 447.146 5.93376C446.291 4.74251 444.943 4.04574 442.448 3.66364C443.415 2.80954 444.111 2.58478 445.842 2.58478C447.887 2.58478 450 2.89945 451.933 3.50631C454.046 4.20308 455.012 5.07966 455.012 6.31586C455.012 6.8553 454.9 7.23739 454.473 7.97912C453.664 9.44008 453.551 9.91208 453.282 12.1372C460.789 11.4854 461.216 11.4405 463.036 10.6313C464.003 10.2043 464.542 10.0919 465.352 10.0919C466.812 10.0919 469.172 11.1258 470.588 12.362C471.285 12.9464 471.555 13.4858 471.555 14.3624C471.555 15.3289 470.746 15.9807 469.622 15.9807C469.128 15.9807 468.318 15.8683 466.43 15.5986C463.351 15.2165 461.036 15.0592 457.575 15.0592C455.732 15.0592 454.833 15.1041 452.989 15.2839C452.765 18.1385 452.607 21.6448 452.607 23.6452V24.769C454.001 27.4212 454.495 29.3092 454.495 32.2761C454.495 38.4347 451.911 43.5593 446.988 46.9982C444.448 48.7738 442.088 49.8077 437.009 51.2687L436.739 50.6169L436.806 50.5944ZM444.898 22.5438C442.74 22.5438 441.077 24.8139 441.077 27.7134C441.077 31.1073 442.695 33.4898 445.078 33.4898C447.191 33.4898 448.427 31.7592 448.427 28.7923C448.427 24.7915 447.123 22.5438 444.92 22.5438H444.898Z" fill="#231815"/>
</svg>
