<svg width="67" height="543" viewBox="0 0 67 543" fill="none" xmlns="http://www.w3.org/2000/svg">
<path d="M13.5374 25.8723C13.3721 27.4348 13.2069 28.4114 11.8546 31.0708C11.5241 31.7769 10.7128 33.3996 10.232 35.6683C10.1719 36.0439 7.73792 39.6648 7.46748 40.5363C6.76132 42.805 6.65615 43.0754 6.49088 44.1121C6.32561 44.2173 5.67955 44.8183 5.51428 44.9835C5.34901 45.0887 5.24384 45.1488 4.9734 45.1488C3.83153 45.1488 3.02021 43.9619 2.97513 43.7966C2.86996 43.6313 1.99854 40.4461 1.99854 39.8001C1.99854 39.5296 2.47932 38.4478 2.47932 38.2375C2.47932 38.0272 2.31405 37.0956 2.31405 36.9454C2.37415 36.8853 2.5244 36.8402 2.58449 36.8402C2.91503 36.8402 4.26725 37.7116 4.58276 37.7116C5.06355 37.7116 6.53595 35.488 6.95664 34.842C7.6027 33.8203 10.7428 29.5984 11.2837 28.6218C11.4941 28.141 12.9665 26.1878 13.282 25.8122L13.4923 25.9174L13.5374 25.8723ZM8.77461 22.7322C8.17363 22.8373 8.12856 22.8974 7.85811 22.8974C5.31896 22.8974 4.50764 22.2514 2.61454 20.8391C2.36413 20.6588 2.25395 20.4234 2.284 20.1329C2.38918 20.0728 2.76479 19.8625 2.88499 19.8625C4.77808 19.8625 5.21379 19.8625 6.73127 19.4869C6.94162 19.4268 10.6827 18.1947 11.1184 17.8642C12.3655 17.9694 13.7628 18.0745 14.529 18.345C15.2802 18.6755 15.716 19.6371 15.716 19.9075C15.716 20.9292 14.0332 21.5302 13.3872 21.6955L8.78964 22.7171L8.77461 22.7322ZM7.58767 4.44727C8.12856 4.61254 8.93988 4.71771 9.96155 4.71771C10.4423 4.71771 13.0416 4.50737 13.1017 4.50737C14.0182 4.50737 15.3704 5.21352 15.5958 5.58914C15.5958 5.64923 16.0765 7.10662 16.0765 7.31696C16.0765 7.42213 15.9113 8.33863 14.7243 8.77434C14.5591 8.83444 12.666 9.14996 12.5608 9.14996C11.5391 9.14996 9.3155 8.60907 8.06846 7.96302C6.44581 7.04652 4.92833 4.61254 4.92833 4.11673C4.92833 3.95146 5.13867 3.78619 5.25887 3.74112C5.63448 3.80121 7.25713 4.38717 7.58767 4.44727ZM17.4288 26.6836L18.1349 22.2514C18.1349 22.0861 18.3002 19.6071 18.3002 19.3366C18.3002 18.6906 18.0898 13.3869 17.4889 13.1164C16.0765 12.4103 15.9714 12.3652 15.5357 11.8694V11.5389C15.9113 11.4337 16.0165 11.3736 16.8879 10.9379C17.1583 10.8327 18.0297 10.7726 18.1349 10.7726C18.5105 10.7726 19.9679 11.1031 21.1098 12.5004C21.7558 13.3118 21.861 13.4169 22.6273 13.3118L26.6238 12.6056C29.0578 12.1699 29.2681 12.1248 31.8674 11.5238C32.1378 11.4637 32.4683 11.3135 32.4683 10.8177C32.4683 10.5472 32.0927 8.65415 32.0326 8.21844L31.1612 3.08003C31.056 2.47905 28.562 1.02167 28.562 0.540884C28.562 0.270442 28.7723 0 29.0427 0C30.0644 0 34.3464 1.29211 35.323 1.78792C36.2996 2.32881 36.8856 3.51575 36.8856 4.05663C36.8856 4.26698 36.8255 4.32707 36.4048 5.1985C36.3447 5.36377 36.2996 6.34036 36.2996 6.55071C36.2395 6.76105 36.0292 7.73765 36.0292 7.90292C36.0292 8.11326 36.1343 10.0665 36.57 10.2768C36.6752 10.2167 37.8622 9.90119 37.9223 9.84109C38.1326 9.73592 38.7937 9.08986 38.9439 8.96966C40.4013 8.90956 44.1875 8.96966 44.1875 11.1332C44.1875 11.7793 43.2109 12.1549 42.8954 12.1549C41.2126 12.26 37.8622 12.4253 36.6752 12.9061C36.6151 13.9278 36.6752 14.1531 37.0508 16.2115C37.2161 17.0829 37.6969 20.8691 37.8021 21.6203C37.9072 22.1011 38.5082 24.5351 38.6134 24.9708L38.7186 25.0309H38.8237C39.4247 23.6787 39.4698 23.5134 39.5299 23.3482C40.4464 20.208 40.5065 19.8324 40.5065 19.2314C40.5065 18.9009 39.2144 17.9393 38.989 17.714C38.7787 17.5036 38.7186 17.2782 38.6134 16.9026C38.7787 16.7374 38.8237 16.6923 38.989 16.6923C41.3629 16.6923 42.024 17.1731 42.8353 17.8792C43.8119 18.6305 44.5631 19.9376 44.5631 20.4184C44.5631 20.794 44.503 20.8541 43.857 21.395C43.3762 21.8307 43.256 22.1011 42.2944 24.6403L40.2961 29.7787C40.236 29.9439 40.1309 30.2595 40.1309 30.4848C40.1309 30.9656 43.1658 40.0104 46.7267 41.7382C46.8919 41.3626 46.8919 41.2574 47.1624 40.0555C47.1624 39.9503 47.4929 39.3493 47.4929 39.2442C47.553 39.0338 47.8234 36.5397 47.8234 36.3745C47.8234 35.0824 47.9887 33.4597 48.3643 31.837H48.5747C48.785 32.7085 49.7165 36.3294 49.8668 37.0806C49.9269 37.1858 50.0321 38.4328 50.0321 38.6432C50.0321 38.8535 50.3626 39.8902 50.4077 40.1006C50.5729 41.8885 50.5729 41.9936 51.1138 43.451C51.2791 43.9919 51.9853 45.8249 51.9853 46.2606C51.9853 46.7414 51.5495 47.8232 50.5279 47.8232C49.9269 47.8232 46.9069 46.6813 46.5313 46.3057C46.2008 45.9752 44.6382 44.7882 44.3678 44.4727C41.7235 41.5579 40.5816 40.0405 39.9356 38.6281C38.4782 35.488 38.3129 35.1725 38.1026 34.7819C37.3513 35.2176 36.4799 37.0506 36.1043 37.8619C35.939 38.2375 33.7304 40.9419 33.2947 41.5429C32.2129 42.3542 29.6738 44.5779 28.7573 45.1188C28.6521 45.1188 28.0061 45.3892 27.8859 45.4493C27.6755 45.5094 26.6388 46.2005 26.4285 46.3207C26.158 46.4259 23.5588 47.2372 23.1832 47.2372L23.0179 47.0719C23.1231 46.8015 25.557 45.1188 25.9928 44.6981C26.6388 44.052 29.7789 41.2424 30.3198 40.6414C32.9642 37.6666 33.8957 35.9388 34.5417 34.857C34.8723 34.1508 36.6001 30.9656 36.6001 30.4698C36.6001 30.4097 36.4949 30.0341 36.4949 29.9289L35.2028 24.8506C35.1427 24.5802 34.4516 21.6654 34.3314 21.5001L32.6036 22.041L28.0061 23.3932C27.1947 23.6036 23.4686 24.475 22.7625 24.6854H21.0797C20.8694 25.0159 20.8694 25.1211 20.8694 25.6019C20.8694 26.0826 20.4337 28.0358 20.4337 28.4715C20.4337 28.6368 20.4938 28.742 20.5989 29.0124H20.9746L26.3233 27.2245C26.5937 27.1644 27.8859 26.9541 28.1112 26.7888C28.2765 26.6836 28.9226 26.0376 29.0277 25.9174C29.1329 25.7521 29.4033 25.4817 29.5686 25.4817C29.6738 25.4817 30.5452 25.7521 30.6504 25.7521C31.1312 26.1277 33.3548 27.4349 33.7304 27.7504C34.0009 27.9607 34.5417 28.4565 34.5417 29.1026C34.5417 29.4331 34.4366 29.6435 34.2713 29.8087C34.061 29.9139 32.9191 30.1843 32.7538 30.2895C32.6486 30.56 31.2964 34.6166 31.2964 34.887C31.2964 35.0523 31.4016 35.8636 31.4016 35.9688C31.4016 36.9905 30.3799 37.1557 28.9075 37.4262C28.3065 37.4863 25.9327 37.907 25.9327 38.2375C25.8275 40.4611 25.8275 41.1523 25.0612 41.1523C24.8509 41.1523 22.9578 39.9052 22.7925 38.5079C22.6273 37.4863 21.876 31.9122 21.6507 31.4164C21.6507 31.3563 21.275 30.6651 20.1332 30.4999C20.028 30.8304 20.028 30.8755 19.5923 31.7469C19.5322 31.9122 19.427 32.8287 19.382 32.9939C18.3002 35.488 18.195 35.7585 17.4288 38.2976C17.3236 38.568 15.9113 41.3776 15.0549 42.189C14.8445 42.3993 14.0783 43.7065 13.8078 43.9168C13.4322 44.2473 11.7044 45.87 11.3138 46.1404C10.6076 46.6212 8.06846 47.5527 7.25713 47.703L7.04679 47.5377C7.21206 47.2072 9.04506 45.6446 9.3756 45.269C10.4574 44.2473 11.2086 43.436 11.7495 42.3993C12.0199 41.9636 13.312 40.0705 13.5374 39.6348C14.6793 37.4713 15.5958 35.3678 16.1366 32.8136L17.4288 26.5935V26.6836ZM28.8925 19.9226C29.1028 19.8174 29.8691 19.0061 30.0794 19.0061C30.8908 19.0061 32.9491 19.4869 33.9257 19.8174C33.9257 19.1112 33.2797 16.1364 33.2196 15.4903C33.0543 14.2433 33.0543 14.1381 32.7388 13.7625C30.1395 14.4687 24.6255 15.9861 24.0846 15.9861C23.7541 15.9861 22.4019 15.7758 22.1314 15.7758C21.8009 15.7758 21.6957 16.1514 21.6957 16.3167C21.6957 17.8792 21.6957 18.0445 21.5305 19.0211C21.4704 19.4568 21.26 21.1846 21.1549 21.5602V21.7255C21.1549 21.7255 21.1549 21.7856 21.26 21.996C22.447 21.996 26.2332 21.0194 28.8925 19.9376V19.9226ZM25.8125 35.6082C26.1881 35.4429 27.8708 34.9021 28.0361 34.5865C28.0962 34.4814 29.178 29.6585 29.178 29.1777C29.178 29.0124 29.0127 28.9073 28.9075 28.9073C28.577 28.9073 27.2849 29.388 27.0144 29.5082C26.6839 29.5683 24.0396 30.1543 24.0396 30.2595C24.0396 30.4247 24.4152 30.9656 24.4753 31.0708C24.5805 31.5516 25.2866 33.5649 25.3918 33.9405C25.4519 34.2109 25.557 35.2927 25.6021 35.503L25.8125 35.6082ZM41.1676 2.88472C41.3779 2.82462 42.5198 2.5091 42.5799 2.5091C43.0156 2.5091 47.0722 3.75614 47.0722 5.91968C47.0722 6.731 46.8018 7.06154 46.5313 7.33199C46.0956 7.43716 45.5547 7.60243 45.1791 7.7677C44.1575 7.7677 43.1208 6.68593 42.5799 6.08495C42.2043 5.70933 40.3112 4.46229 39.9806 4.13175C39.1092 3.38053 39.004 3.26033 39.0641 2.83964C39.3947 2.83964 41.0624 2.89974 41.1676 2.89974V2.88472Z" fill="white"/>
<path d="M22.4617 105.427C22.672 105.322 26.7287 103.159 27.4949 102.663C29.5533 101.476 34.857 97.8549 36.1491 96.1121C36.7951 95.1956 37.6065 93.8434 37.6065 92.5363C37.6065 89.3961 33.5498 88.9153 32.9038 88.9153C28.5166 88.9153 21.3349 93.4528 20.6888 94.1138C20.3583 94.5496 18.3149 96.7582 18.0445 96.8784C17.9844 96.9385 17.8341 96.9835 17.6689 96.9835C16.3767 96.9835 13.3418 94.9252 13.3418 90.5981C13.3418 89.306 14.0479 83.5065 14.7992 79.4499C14.9043 78.9691 15.1297 76.8055 15.28 76.3698C15.4452 75.8289 16.1965 73.3349 16.4218 72.9593C16.4819 72.8541 16.8575 72.1479 17.2331 72.1479C17.6689 72.1479 17.9393 72.6888 17.9393 72.9593C17.9994 73.5001 18.375 75.874 18.375 76.3698C18.375 77.4516 17.5036 82.1543 17.3984 83.1309C17.3383 83.7319 17.3383 84.3779 17.3383 84.9639C17.3383 89.7267 17.3383 90.2075 18.0895 90.2075C18.2999 90.2075 23.5585 88.3144 24.5802 88.0439C26.954 87.3979 30.0942 86.7518 32.5281 86.7518C36.75 86.7518 39.7249 88.705 40.4311 89.6666C41.1823 90.6432 41.5128 92.5363 41.5128 93.1222C41.5128 95.7215 39.0789 100.965 34.2109 103.023C31.1759 104.316 25.0159 106.058 23.6036 106.058C23.1228 106.058 22.8523 105.953 22.5218 105.728L22.4617 105.397V105.427ZM19.5319 58.9714C20.5085 58.9714 20.9442 59.2418 22.5669 60.3236C22.9425 60.594 24.7905 61.6157 25.0609 61.8862C25.9774 62.8628 26.1427 63.0731 27.1644 65.1916C27.3297 65.6273 27.8104 66.6489 27.8104 66.9795C27.8104 67.0846 27.54 68.4369 26.4582 68.4369C26.1277 68.4369 24.7304 68.2716 24.46 68.2716C23.859 68.2716 21.0494 68.9176 20.7789 68.9176C19.6371 68.9176 19.3216 68.8125 19.2164 68.2716C19.8174 67.5204 20.6738 66.4837 21.0494 66.048C21.1546 65.7174 21.2147 65.5071 21.2147 65.1765C21.2147 64.4253 21.0494 64.1549 19.3216 61.8711C18.7807 61.165 18.6755 60.5189 18.5703 60.0381C18.5102 59.4972 18.6304 58.9564 19.5469 58.9564L19.5319 58.9714Z" fill="white"/>
<path d="M14.0185 126.041C13.9584 125.665 13.4777 124.478 13.4176 124.418C13.3124 124.208 12.9818 123.712 12.9818 123.547C12.9818 123.171 13.4176 122.736 14.1688 122.736C15.0853 122.736 16.8131 124.253 17.2488 124.899C20.2237 129.226 20.2237 131.119 20.2237 132.306C20.2237 133.057 20.0584 136.303 20.1185 136.964C20.9298 136.904 24.3404 135.777 25.0916 135.552L30.1699 134.139C31.3118 133.809 31.417 133.809 32.4987 133.658C32.9795 133.553 33.4753 133.328 33.9111 133.178C34.1815 132.306 34.1214 128.31 34.2416 127.498C34.3468 126.251 34.4069 126.086 34.4069 125.71C34.4069 124.629 34.2416 121.278 33.5354 119.971C33.4303 119.761 32.2884 117.477 32.2884 117.327C32.2884 116.41 33.4303 116.41 33.7007 116.41C35.5337 116.41 37.2165 118.033 38.5086 119.49C39.5302 120.572 40.3416 123.111 40.3416 123.757C40.3416 124.358 39.2598 126.837 39.0945 127.333C38.9894 127.814 38.5536 131.224 38.5536 131.45C38.5536 131.51 38.5536 131.66 38.6588 131.931C39.1396 131.931 39.5753 131.931 40.1162 131.825C40.5519 131.765 42.2196 130.804 42.6103 130.804C44.1278 130.804 49.4314 132.757 49.4314 135.071C49.4314 135.942 48.6201 136.258 47.8088 136.258C47.5984 136.258 46.8322 136.153 46.6669 136.092L40.612 135.491C40.4467 135.491 37.8024 135.386 37.6972 135.927L36.5554 140.9L34.9327 145.828C34.7675 146.309 33.25 149.554 32.3335 149.554C31.5222 149.554 31.2517 149.014 31.1465 148.683C30.9813 148.307 30.4404 146.189 30.4404 145.873C30.4404 145.272 30.816 145.122 31.6273 144.686C32.5438 144.206 33.6857 137.219 33.6857 136.784C33.6857 136.573 33.6256 136.138 33.3101 136.138C31.5222 136.138 20.1185 139.112 19.788 140.404C19.7279 140.675 19.6828 140.885 19.6828 141.321C19.6828 149.434 20.5542 155.925 30.3352 155.925C30.6658 155.925 33.9111 155.444 34.3918 155.384C34.8276 155.324 37.0362 154.738 37.2014 154.738C37.532 154.738 43.692 155.985 43.692 157.923C43.692 159.005 41.7389 159.486 41.3632 159.546L36.8258 159.921C34.6022 160.087 29.1483 159.275 26.7143 158.629C23.2586 157.713 19.4725 155.008 18.2705 152.619C17.0835 150.185 17.1887 149.434 15.7764 142.989L15.6712 142.508C15.2355 142.403 15.0703 142.508 13.3424 143.65C12.9067 143.98 10.6981 145.167 9.2858 145.167C8.68482 145.167 4.1474 144.566 3.33607 144.251C1.60825 143.5 1.60825 143.229 1.60825 142.298C2.20923 141.817 3.50134 141.757 3.87696 141.757C6.10059 141.757 7.49788 141.276 9.55624 140.465C10.4277 140.134 14.4843 138.782 15.0703 138.301C15.4008 138.091 15.4459 137.385 15.4459 136.889C15.4459 133.749 15.1153 132.126 14.8449 130.729L13.9735 126.026L14.0185 126.041Z" fill="white"/>
<path d="M18.1802 196.732C18.5107 196.672 21.4255 195.214 21.9664 194.899C23.3186 194.027 27.4353 192.359 31.1013 192.359C34.0161 192.359 37.4266 195.229 37.9224 195.605C39.5451 197.017 40.8973 200.954 40.8973 203.072C40.8973 204.86 40.8973 208.421 36.6303 211.891C34.7372 213.454 34.5269 213.679 33.0545 214.22C32.8892 214.28 32.1831 214.656 31.8675 214.821C31.3868 214.881 28.5621 215.257 27.8109 215.257C20.3437 215.317 19.5324 213.259 19.5324 209.788C19.5324 209.142 19.9681 208.376 20.509 207.835C21.4255 206.813 21.9213 206.422 23.4237 206.422C23.9045 206.422 27.27 206.963 28.3518 207.94C28.6823 208.21 30.2449 209.563 30.3501 209.773C30.7858 210.419 30.9961 210.75 31.2666 210.75C32.0178 210.75 38.4633 206.693 38.4633 201.99C38.4633 198.745 36.1345 196.747 35.0527 196.146C33.9109 195.5 32.9944 195.334 30.5604 195.334C27.3752 195.334 22.8228 198.099 18.8262 200.954C17.8046 201.705 13.3573 206.152 12.5009 206.152C10.8181 206.152 10.8181 203.553 10.8181 203.342C10.8181 200.097 10.8181 199.722 11.5694 199.286C11.7797 199.181 13.0267 198.474 13.2521 198.309C13.3122 198.309 16.3922 193.877 17.4139 192.194C19.0967 189.43 19.3671 189.159 20.2235 187.492C20.9297 186.199 22.988 182.894 24.7158 180.129C24.8811 179.859 24.8811 179.754 24.821 179.378C24.22 179.168 23.8444 179.483 22.9279 180.024C22.8228 180.084 21.6358 180.505 21.2452 180.505C19.6225 180.505 18.8713 179.904 18.3755 179.529C18.105 179.318 16.8129 178.552 16.6477 178.342C16.4373 178.071 16.3171 177.861 16.3171 177.635C16.3171 177.095 16.7979 176.929 17.1885 176.929C17.3538 176.929 19.2469 177.034 19.5173 177.034C22.2218 177.034 25.407 174.976 26.008 174.27C26.8794 173.248 27.255 172.813 28.3368 172.813C29.8542 172.813 33.3099 176.659 33.3099 177.786C33.3099 178.432 33.0996 178.657 30.8158 180.325C29.8993 181.031 27.6757 184.006 27.1348 184.712C26.4286 185.628 22.973 189.58 22.372 190.496C22.1016 190.872 20.7494 192.495 20.539 192.87C20.2686 193.246 20.0582 193.471 18.3755 195.74C18.2102 195.95 18.105 196.221 17.9999 196.551L18.1802 196.732ZM23.4838 208.796C22.8829 208.796 22.5673 209.337 22.5673 209.938C22.5673 211.831 25.3319 212.432 26.2934 212.432C26.7742 212.432 27.27 212.267 27.7057 212.162C27.8109 210.915 23.9796 208.811 23.4838 208.811V208.796Z" fill="white"/>
<path d="M31.1614 256.394C26.8343 256.454 20.8245 256.995 18.9915 257.416C18.1802 257.581 13.9583 258.933 13.793 258.933C12.9216 258.933 8.86494 255.853 8.86494 254.817C8.86494 254.486 9.19548 254.276 9.51099 254.276C9.82651 254.276 11.2388 254.546 11.5093 254.606H16.858C17.1284 254.606 18.4206 254.441 18.691 254.441C19.3371 254.381 20.4789 254.336 21.8762 254.231L31.5069 253.479C31.7774 253.479 33.9409 253.314 34.2715 253.149C35.1429 251.631 35.4133 250.775 36.3749 247.259C36.7054 246.117 38.3281 241.204 38.5985 240.168L39.7404 235.465C39.8005 235.194 40.0709 234.053 40.1761 233.632C40.2362 233.467 40.116 233.151 40.0709 232.926C39.6352 232.715 39.47 232.655 38.3882 232.655C37.9525 232.655 36.6003 232.655 34.8124 232.866L28.487 233.617C26.8043 233.827 18.105 235.3 15.9415 235.841C15.4006 235.946 12.9666 236.922 12.8014 236.922C11.7797 236.922 6.68638 233.947 6.68638 232.22C6.68638 231.739 7.01692 231.513 7.22726 231.513C7.66297 231.513 9.55607 232.16 9.99178 232.22C10.3223 232.28 12.3206 232.655 13.6127 232.655C15.1302 232.655 25.9479 231.408 26.2634 231.363C28.1565 231.153 33.2949 230.447 35.6237 230.071C37.5168 229.801 37.7271 229.741 39.47 229.155C39.7404 228.884 40.2212 228.403 40.6569 228.403C41.4682 228.403 43.7369 230.026 44.984 231.483C45.2544 231.814 47.2527 234.248 47.3128 234.398C47.4781 234.774 47.6433 235.375 47.6433 235.75C47.6433 236.231 47.4781 236.351 46.2911 237.704C45.1042 239.116 43.4214 243.218 42.7153 245.066C42.55 245.336 41.7387 246.854 41.5734 247.169C41.3631 247.605 40.4916 250.144 40.2212 250.58C39.8907 251.226 39.1995 252.533 39.1995 253.119C39.1995 253.494 39.9057 255.117 39.9057 255.448C39.9057 256.049 38.3882 256.529 37.637 256.529C37.3665 256.529 36.0744 256.364 35.804 256.364L31.1464 256.424L31.1614 256.394Z" fill="white"/>
<path d="M34.9468 295.067C35.2173 295.233 36.5094 295.819 36.7798 295.984C37.7564 296.69 42.9399 300.146 43.1652 300.311C45.1184 302.144 45.3889 302.91 45.5391 303.556C45.8096 304.533 46.2453 306.05 46.2453 306.426C46.2453 306.636 46.2453 308.86 45.0583 308.86C44.5776 308.86 43.9165 308.8 41.8731 306.636L37.8766 302.369C35.8783 300.266 32.1973 297.066 32.0921 297.021C31.4912 296.54 28.9069 294.256 28.306 293.88C28.0956 293.715 27.705 293.445 27.4345 293.445C27.104 293.445 26.2927 294.361 25.9771 294.797C24.4146 296.63 21.59 299.935 19.4865 301.393C16.4516 303.496 11.3132 307.012 6.40015 307.012C5.31838 307.012 5.15311 307.012 5.15311 306.576C5.15311 306.246 5.48365 306.095 7.91763 304.578C8.66885 304.142 13.4316 300.852 13.9725 300.356C14.5134 299.86 16.8873 297.817 17.323 297.381C17.924 296.735 21.1092 293.49 21.3796 293.159C22.1309 292.183 25.6015 287.856 26.1424 286.939C28.6365 282.612 29.0121 282.176 29.3877 281.155C29.5981 280.614 31.1756 276.828 31.1756 276.617C31.1756 276.347 30.8451 276.242 30.5296 276.242C30.154 276.242 29.8234 276.302 29.553 276.407L23.1225 278.195C19.9823 279.066 18.3597 279.923 18.0893 280.028C16.6769 280.899 16.5267 280.944 16.2563 280.944C15.7755 280.944 10.5169 278.51 10.5169 276.828C10.5169 276.227 10.9526 276.076 11.223 276.076C11.3883 276.076 13.7171 276.722 14.1979 276.722C15.9858 276.722 25.0607 274.499 25.3461 274.454C26.5932 274.243 29.6732 273.582 30.4845 272.771C31.8968 271.359 32.002 271.208 32.7082 271.208C33.6847 271.208 33.85 271.208 37.4108 274.724C38.0569 275.325 38.8682 276.347 38.8682 277.218C38.8682 277.759 38.7029 277.864 37.0352 279.216C35.8483 280.193 34.7665 281.921 33.6247 283.754L30.2742 289.163C30.1089 289.373 29.4628 290.184 29.3577 290.35C29.0872 290.725 29.0271 290.996 28.922 291.537C29.1924 291.867 30.6047 292.558 31.0254 292.829L34.9769 295.052L34.9468 295.067Z" fill="white"/>
<path d="M26.4581 352.882C26.4581 353.317 26.398 355.481 26.398 355.917C26.398 357.104 26.9388 362.407 26.9388 363.489C26.9388 364.09 26.5031 367.17 25.8571 368.026C25.4214 368.567 24.7753 369.319 24.2945 369.319C22.4615 369.319 21.53 364.12 21.53 362.828C21.53 362.227 22.1761 359.252 22.2361 358.982L22.5667 352.491L22.6268 347.142C22.6869 343.957 22.6268 340.712 22.5216 337.467C22.2512 330.871 22.0859 325.627 21.3347 323.629C21.1694 323.148 19.9224 321.03 19.9224 320.864C19.9224 320.263 21.1694 319.888 22.0258 319.888C23.7536 319.888 24.4598 320.489 26.8337 322.382C27.9154 323.298 28.6667 323.839 28.6667 324.876C28.6667 325.252 27.9605 326.829 27.9154 327.145C27.5849 328.707 26.9989 331.742 26.8938 334.176C26.8337 334.822 26.6834 337.587 26.6834 338.128C26.6834 338.398 26.7435 338.563 26.8487 338.879C27.3295 339.149 31.6565 340.441 32.528 340.712C33.0088 340.877 37.6664 342.71 37.8767 342.875C39.6646 344.498 40.3107 347.413 40.3107 347.743C40.3107 348.765 39.1688 348.825 38.9585 348.825C38.4176 348.825 35.6531 348.014 34.0905 346.767C33.6548 346.496 31.7617 345.309 31.4462 345.039C31.0706 344.768 27.1191 341.253 26.7886 341.193C26.4581 341.944 26.5181 344.603 26.5181 344.919C26.5181 345.129 26.3529 346.752 26.3529 346.977L26.4581 352.867V352.882Z" fill="white"/>
<path d="M11.7499 405.783C11.7499 406.219 12.0204 408.157 12.5012 408.157C12.7115 408.157 12.7716 407.992 12.8768 407.827C13.2073 407.181 14.8751 403.77 15.7465 403.439L16.0169 403.65C16.1221 404.131 16.0169 404.942 15.9117 405.107L14.4544 409.539C14.3492 409.915 13.5829 413.055 13.5829 413.972C13.5829 414.452 13.6881 416.616 13.6881 417.112C13.6881 418.674 12.982 419.711 12.4411 419.711C11.3593 419.711 7.73839 416.255 7.73839 412.244C7.73839 412.033 7.94873 411.057 7.94873 410.831C8.0539 409.149 8.0539 408.022 8.0539 405.092C8.0539 404.656 8.26425 402.553 8.26425 402.057C8.26425 401.186 8.47459 399.293 8.53469 398.812C8.59479 398.211 8.74503 395.732 8.80513 395.191L9.18075 390.053L9.34602 389.136C9.34602 388.76 9.51129 387.078 9.51129 386.762C9.51129 386.326 9.34602 384.493 9.34602 384.163C9.34602 383.562 8.47459 381.248 8.47459 380.707C8.47459 380.272 8.9103 380.001 9.34602 380.001C10.2625 380.001 10.533 380.377 12.4261 383.577C12.9669 384.493 13.2975 385.305 13.2975 387.033C13.2975 388.174 13.1923 388.55 12.4861 392.276C12.1105 394.229 11.78 400.72 11.78 401.261L11.7199 405.753L11.7499 405.783ZM30.4104 385.665C34.6324 383.442 39.5003 382.63 39.9811 382.63C40.522 382.63 45.6003 383.877 45.6003 386.417C45.6003 387.498 45.1646 387.604 43.6471 387.829C41.1079 388.204 40.2365 388.805 38.3434 390.053C37.7424 390.428 35.9695 391.885 35.4287 392.156C35.3235 392.216 35.2183 392.261 34.9929 392.261C34.6173 392.261 34.4521 391.825 34.4521 391.615C34.4521 391.345 34.9929 390.263 35.053 390.053C35.9695 388.866 36.0747 388.7 36.1348 388.054C35.7592 387.889 35.654 387.889 35.4888 387.889C34.6173 387.889 27.5858 389.572 27.3755 389.572C26.6693 389.572 26.6693 388.866 26.6693 388.7C26.9398 387.994 29.6442 386.056 30.3954 385.665H30.4104ZM35.5489 413.085C33.4905 412.92 30.0799 412.109 28.7878 410.711C28.2469 410.17 27.3755 408.713 27.3755 407.736C27.3755 407.361 27.2703 405.783 27.2703 405.468C27.2703 404.656 27.6459 403.74 28.3521 403.74C28.9981 403.74 29.0582 404.07 29.3287 406.775C29.5991 409.149 33.9262 409.149 34.5723 409.149C35.1732 409.149 37.1114 408.938 37.9828 408.608C38.7942 408.337 39.0646 408.232 39.8158 408.232C40.8976 408.232 43.8124 408.668 44.0377 408.833C46.8022 410.351 47.0727 410.561 47.0727 411.432C47.0727 411.598 47.0727 412.409 46.2013 412.725C45.6604 412.935 43.602 413.536 41.8141 413.536C41.3333 413.536 41.1079 413.536 40.1914 413.476L35.5338 413.1L35.5489 413.085Z" fill="white"/>
<path d="M0.120349 466.588L0.285619 466.483C0.285619 466.483 0.991774 465.671 1.15704 465.566V465.13C1.42749 464.92 1.90827 464.379 2.29891 463.988C2.62945 463.342 4.73289 460.848 5.06343 460.262C5.66441 459.075 9.33041 452.795 9.33041 452.75C10.5774 450.797 13.5523 445.283 13.8227 443.66C13.0715 443.225 12.3053 442.684 12.0348 441.767L12.14 441.557C12.3503 441.557 13.4321 441.286 13.5974 441.286C15.1149 441.286 15.2801 441.392 16.5722 442.428C16.6774 442.533 17.3235 442.699 17.4437 442.759C18.3151 443.465 18.6907 443.735 18.6907 444.276C18.6907 444.336 18.3602 445.523 18.0897 445.959C17.9846 446.124 17.2784 446.5 17.1732 446.605C16.422 447.251 12.7861 453.036 12.0348 454.658C12.4705 455.034 13.5974 456.221 13.5974 457.197C13.5974 457.528 13.8077 459.03 13.8077 459.301C13.8077 459.902 13.6425 462.381 13.6425 462.922V465.19C13.7026 465.521 13.5373 466.813 13.5373 467.144C13.5373 469.037 13.5373 470.599 13.1016 472.988C13.0415 473.198 12.771 476.985 12.2301 477.526C12.0198 477.691 11.9597 477.796 11.3136 478.773C10.3971 478.773 9.6309 477.751 9.48065 477.48C9.33041 477.21 8.93977 475.152 8.83459 474.716L8.66932 473.574C9.15011 473.138 9.21021 472.823 9.69099 469.893C9.85626 468.977 10.3371 465.085 10.5624 464.274C10.7728 463.297 11.2085 458.324 11.2085 457.843C11.2085 457.408 11.1033 457.137 11.0432 456.822H10.7728C10.6676 457.032 9.90134 457.843 9.79617 458.069C9.73607 458.129 7.90307 460.773 6.92648 462.125C6.86638 462.231 5.9048 462.937 5.40899 463.372C4.65777 464.018 3.68117 465.326 2.80975 465.746C2.37403 465.957 0.706307 467.159 0.270595 467.159C0.000152588 467.159 0.000152588 466.993 0.000152588 466.783L0.105325 466.618L0.120349 466.588ZM4.23708 444.622C5.25875 443.976 6.46071 442.458 7.58756 441.001C8.18854 440.25 9.27031 439.273 9.75109 438.507L10.0215 438.402C13.1016 433.909 13.2668 433.699 13.2668 433.323C13.2668 433.053 13.0565 432.407 12.726 432.347C11.0432 432.016 10.893 432.016 10.893 431.535C10.893 431.43 10.893 431.325 10.9981 431.325C11.7494 430.949 11.8095 430.949 12.0799 430.574C12.14 430.574 14.1833 430.679 15.5956 431.55C15.6557 431.656 17.5939 432.302 17.9695 432.467C18.1348 432.527 18.6757 433.338 18.6757 433.759C18.6757 434.135 18.4653 434.36 17.4887 435.111C17.2784 435.322 16.3469 436.523 16.1365 436.734C15.8661 436.944 15.3252 437.485 15.22 437.65L14.6791 437.861C14.4087 438.191 14.0782 438.837 13.7626 439.108C13.6575 439.213 13.0114 439.589 12.8912 439.709C12.7861 439.769 12.6208 440.039 12.5607 440.084C12.2301 440.25 11.1484 441.376 10.938 441.542C10.0666 442.248 9.96144 442.353 9.10504 442.789C8.99986 442.789 8.62425 443.119 8.50405 443.164C8.12844 443.495 6.13017 444.517 5.73953 444.787C5.63436 444.892 5.46909 444.892 5.36392 444.892C5.19865 444.892 4.92821 444.832 4.82304 444.832C4.65777 444.832 4.38732 444.892 4.22205 444.892V444.622H4.23708ZM13.3119 475.122C13.6875 474.791 15.4154 473.439 15.7459 473.123C18.0747 470.689 20.8843 467.715 21.2599 466.738C21.9661 465.761 24.1747 462.351 24.3399 462.035C24.4451 461.825 25.7522 459.496 25.7973 459.391C25.7973 459.226 26.1729 458.474 26.233 458.309V458.249C26.233 457.873 26.2931 457.272 26.2931 457.062C26.1279 456.686 25.2114 454.959 24.8358 454.959C24.2348 454.959 21.8609 456.311 21.3801 456.311C20.8993 456.311 17.4286 455.064 17.4286 454.207C17.4286 454.102 17.639 453.937 17.7592 453.877C19.1715 453.606 22.7323 452.96 23.4385 452.194C25.0611 450.301 25.602 449.82 26.8941 448.408C26.9993 448.303 27.435 447.867 27.5402 447.762L27.4801 447.552C26.834 447.386 23.7991 446.8 23.2131 446.575C22.7323 446.41 20.7791 445.704 20.6138 445.598C20.4486 445.388 19.3668 444.682 19.2015 444.457L19.2616 444.351C19.472 444.291 23.2582 444.246 23.6939 444.081C24.1296 443.916 24.1747 443.916 24.2348 443.6C24.2949 442.624 27.3148 434.901 27.3148 433.158C27.3148 432.512 27.1045 432.287 26.8791 432.181C25.3165 431.16 25.1513 431.04 25.0461 430.934C24.9409 430.454 25.0461 430.394 25.3165 430.228L29.5384 430.829C29.9141 431.265 29.9741 431.265 30.515 431.43C31.0559 431.595 31.2212 431.806 31.4916 432.347C31.5968 433.489 31.3264 434.615 30.515 435.427C30.5751 436.073 29.869 437.155 29.7638 437.26C29.4934 438.281 29.0126 439.799 28.7421 440.129C28.4717 440.46 27.7205 442.624 27.6604 442.729C27.6003 442.789 27.1195 443.645 27.1195 443.705C27.0594 443.871 27.0594 444.036 27.0594 444.186C27.8106 444.457 29.1628 444.937 29.8239 445.103C31.0709 443.645 32.8589 441.211 34.0458 439.754C34.2561 439.543 38.8086 434.285 38.8086 433.428C38.8086 433.053 36.7502 430.679 36.7502 430.393C36.7502 430.108 37.1859 430.018 37.3512 430.018C37.832 430.348 39.1391 430.724 39.7852 430.769C40.5364 430.829 42.7601 432.121 42.9704 432.287C43.5714 432.662 43.6165 432.827 43.6766 433.969C43.5113 434.18 42.9253 435.051 42.8051 435.216C42.7 435.382 41.7234 435.968 41.5581 436.133C41.4529 436.298 40.9571 437.109 40.8519 437.215C40.6416 437.485 39.4396 438.357 39.2894 438.627C38.7485 439.378 38.6884 439.498 38.1024 440.084C37.8921 440.19 37.0808 441.061 36.8554 441.166C36.7502 441.497 33.0692 445.869 33.0091 445.929C32.6335 446.635 31.6569 447.717 30.5751 448.363C30.2446 448.573 29.2229 450.046 29.0126 450.256C28.8473 450.421 28.2013 450.962 28.036 451.127L28.3665 451.187C29.3882 450.977 33.8805 449.94 34.797 449.835L39.4547 449.189L40.3261 449.129L40.4913 448.964C40.2209 448.363 38.7034 445.929 37.0808 445.073V444.862C38.7034 444.862 40.4913 444.862 42.2192 446.815C42.5948 447.251 44.593 448.919 44.8635 449.355C45.0738 449.73 46.2157 451.353 46.381 451.728C46.5462 452.104 46.9219 453.411 47.0871 453.787C46.982 454.433 47.027 454.598 47.1472 454.974C46.8768 455.62 46.396 456.326 45.149 456.326C44.7733 456.326 43.5864 455.304 43.5263 455.034C43.0906 453.892 43.0906 453.787 42.3394 452.975C42.1741 452.645 41.6933 451.413 41.5881 451.248C41.2125 451.188 39.4847 451.458 39.1542 451.458C36.1793 451.668 36.014 451.623 33.6401 452.329L29.2079 453.621C28.8774 453.682 26.5035 454.433 26.0227 454.598L26.0828 454.763C26.5185 455.139 28.5168 456.281 29.2229 456.656C29.3281 456.281 29.5535 456.281 31.2212 456.116C32.6335 456.01 35.7135 455.034 36.0891 454.869C36.2995 454.808 37.2761 454.328 37.5015 454.328C38.1475 454.328 41.4529 456.055 41.4529 457.032C41.4529 457.197 40.9721 457.843 40.5364 458.444L39.6199 458.925C39.5147 459.947 39.4096 460.112 38.5382 461.69C38.3729 461.96 37.9372 463.372 37.7268 463.643C37.5165 463.973 36.585 465.431 36.4347 465.972C36.1643 466.077 36.1042 466.182 35.999 466.407C35.999 466.548 36.019 466.658 36.0591 466.738L39.4096 469.232C41.6783 470.915 42.8652 471.876 44.6531 472.853C44.7132 472.853 44.8184 472.958 45.8401 473.829C45.9002 473.89 48.1088 475.122 48.214 475.182C50.3174 476.263 52.0002 477.616 52.0002 478.427C52.0002 478.968 51.8349 479.028 50.1672 479.133C49.7314 478.968 49.6263 478.968 48.3792 478.968C48.214 478.908 47.4627 478.698 47.2975 478.698C46.9669 478.698 45.5095 478.592 45.2391 478.592C45.1339 478.592 44.5329 478.758 44.4278 478.758C43.7817 478.758 41.1825 476.699 39.3495 474.641C38.7485 474.43 38.3729 473.995 36.7502 472.267C36.3145 471.831 34.4815 469.728 34.1059 469.352C34.0458 469.082 34.0007 469.082 33.8956 468.977C33.6852 469.187 33.0241 470.058 32.6485 470.389C32.1076 470.765 30.1094 472.763 29.5685 472.988C29.0276 473.198 28.9675 473.259 28.3815 473.739C28.2163 473.905 27.1345 474.22 26.9242 474.34C26.7138 474.445 25.6321 475.092 25.4067 475.212C24.7005 475.482 23.784 475.647 22.9727 475.813C22.8675 475.873 22.2215 476.143 22.1013 476.188C21.9961 476.188 19.3368 476.354 19.2917 476.354C18.9161 476.354 18.856 476.188 18.9161 475.873C19.8326 475.437 23.8892 473.544 24.7005 473.108C27.7806 471.381 30.8606 468.24 31.6719 466.993L31.732 466.783C31.732 466.783 29.9441 464.83 29.6737 464.454L28.3214 462.997C28.1111 462.726 28.051 462.726 27.8407 462.561C27.6303 462.892 26.8641 464.018 26.5936 464.394C26.218 464.995 23.6188 468.886 23.2882 469.157C23.0779 469.322 22.1464 470.179 22.1013 470.239C21.936 470.344 21.3951 470.614 21.29 470.719C20.8092 471.155 16.9629 474.4 16.6323 474.566C15.0097 475.167 14.0932 475.542 13.3269 475.482L13.387 475.212L13.3119 475.122ZM33.7002 463.342C35.7586 459.556 35.8638 459.286 36.029 457.603C35.4281 457.543 35.1576 457.543 34.5717 457.708C33.0542 458.084 31.9273 458.354 31.3865 458.354C30.7855 458.354 30.47 458.189 29.9742 458.024C29.6436 458.565 29.6436 458.73 29.7037 459.316C29.4934 459.751 29.2229 460.232 29.2229 460.728C29.2229 461.104 29.5535 461.374 29.8239 461.479C30.2596 461.75 32.5283 463.432 32.9039 464.018C33.2796 464.184 33.3397 464.079 33.7153 463.312L33.7002 463.342Z" fill="white"/>
<path d="M4.3426 512.232C4.50787 511.797 5.36427 508.281 5.36427 507.47C5.36427 507.259 5.15393 506.448 5.15393 506.283C6.77658 506.613 6.94185 508.176 7.10712 509.198C7.10712 509.363 7.37756 509.949 7.37756 510.069V511.316C7.37756 511.481 7.16722 512.232 7.16722 512.398C7.16722 512.563 7.37756 513.419 7.37756 513.48C7.37756 513.54 6.67141 517.1 6.62634 517.326C6.52116 517.927 6.46107 520.781 6.25072 521.382C6.14555 521.653 5.70984 522.9 4.79334 522.9C4.14728 522.9 2.41946 520.842 2.35936 520.466C2.29926 520.256 2.25419 519.384 2.19409 519.219C2.19409 519.159 1.86355 518.302 1.86355 518.137C1.86355 517.807 2.67488 516.409 2.78005 516.139L4.3426 512.247V512.232ZM8.18889 489.951L8.94012 490.011C9.04529 490.011 9.37583 489.846 9.58617 489.846C9.79652 489.906 10.1872 490.011 10.4576 490.011C11.3741 490.657 11.5394 490.717 12.8916 491.258C14.349 491.859 15.7012 493.256 15.7012 494.128C15.7012 494.564 15.2655 496.352 15.2655 496.727C15.1002 497.749 14.7246 501.49 14.7246 502.617C14.7246 504.45 14.7246 504.675 15.0551 504.78C15.7012 505.051 18.676 505.967 19.1718 506.343C21.3354 507.905 21.3955 507.966 21.3955 508.882C21.3955 510.024 20.479 510.399 19.4423 510.399C19.1117 510.399 18.4657 510.339 18.2553 510.189C17.2337 509.378 15.4908 507.965 15.2204 507.815L14.7847 507.65C14.5743 508.732 14.0785 515.823 14.0785 516.409C14.0785 519.054 14.0785 519.324 14.0184 520.03C13.9583 520.406 14.2288 520.571 14.5593 520.571C15.7462 520.571 18.5558 520.135 19.908 519.7C20.6593 519.429 24.0248 518.723 24.6708 518.513C25.4822 516.785 26.5639 510.94 26.5639 509.047C26.5639 508.717 26.4588 508.612 25.3169 507.59L25.2568 507.485C25.2568 507.214 25.8578 506.568 26.3386 506.568C26.5489 506.568 28.442 507.44 28.8777 507.44C29.8543 507.44 34.1814 506.358 35.0378 506.298C35.5186 506.238 37.5769 505.922 38.0126 505.862C39.0944 505.802 39.1996 505.802 39.7405 505.652C39.8456 505.486 40.1161 505.006 40.4466 505.006C41.7988 505.006 46.2912 507.004 46.2912 508.957C46.2912 509.228 46.2311 509.333 45.9156 510.099C45.8555 510.159 44.8338 514.096 44.8338 514.156C44.7286 514.862 44.7286 515.297 44.6685 515.944C44.7737 516.004 45.1042 516.109 45.1493 516.109C45.2545 516.109 45.7503 515.898 45.8555 515.898C45.9156 515.898 47.5833 516.274 48.8904 516.71C49.8069 516.98 49.9121 517.085 50.3027 517.581C50.3027 517.792 50.7384 518.663 50.7384 518.873C50.7384 520.391 49.7619 520.391 49.4914 520.391C49.2811 520.391 48.4697 520.286 48.3045 520.286C47.2828 520.286 47.1175 520.226 45.7653 519.955C45.3296 519.85 44.5183 519.685 44.0826 519.745C43.9173 520.286 42.6252 527.753 42.6703 528.444C43.2712 528.714 43.4816 528.714 45.1042 528.985L45.3747 528.775L45.585 528.444C46.3963 528.549 46.5616 528.654 47.8087 529.691C47.9739 529.961 48.9505 531.043 49.0557 531.314C49.221 531.524 49.3261 531.855 49.3261 532.125C49.3261 532.335 49.1609 533.808 48.1392 533.808C47.1626 533.808 42.6252 532.245 42.3998 532.245C41.919 532.245 41.7538 532.786 41.6486 533.117C41.1678 534.679 41.1077 534.844 39.9658 536.031C39.8006 536.197 39.425 537.053 39.3198 537.173C39.1545 537.384 38.3432 538.09 38.238 538.15C36.8858 538.045 36.5553 537.609 35.158 535.656C35.0528 535.551 34.4067 535.055 34.1814 534.95C33.2048 534.469 33.0996 534.409 32.724 533.928C33.1597 533.823 35.2181 533.492 35.6388 533.447C35.8491 533.387 37.5319 532.966 37.8624 532.846C38.4033 531.93 38.4634 531.599 38.3432 531.058C37.8624 530.893 37.5319 530.788 36.6154 530.788C33.0996 530.788 27.5255 531.389 24.1299 532.471C23.7994 532.576 22.342 533.447 22.2369 533.447C21.6359 533.447 20.1785 531.494 20.1785 531.118C20.1785 531.013 20.3888 529.436 20.4489 529.33C20.6142 529.12 20.9297 528.895 21.3204 528.624C21.8011 527.603 23.4238 523.816 23.8144 522.029C23.7543 521.968 23.6041 521.818 23.4839 521.818C23.2735 521.818 22.4021 522.254 22.1918 522.299C21.1701 522.569 21.0499 522.569 20.7344 523.005C20.6743 523.276 20.464 523.441 20.0883 523.441C18.631 523.441 17.2788 522.524 16.197 521.818C15.01 521.007 14.7396 521.007 14.3039 520.947C14.1987 521.217 14.0334 521.698 14.0334 521.758C14.0334 524.508 14.0334 524.838 14.1386 527.603C14.1386 527.873 13.9733 528.955 13.9733 529.225C13.9733 529.766 14.1837 532.741 14.1837 532.801C14.1837 535.025 14.1837 535.235 12.9967 536.152C12.7864 536.317 12.3507 537.293 12.1854 537.399C12.0202 537.504 11.8549 537.609 11.7046 537.609C11.329 537.609 10.5628 537.128 10.4576 536.692C10.2923 536.152 9.481 533.928 9.37583 533.447C9.10539 533.117 8.94012 532.801 8.94012 532.425C8.94012 532.32 9.00022 532.05 9.10539 531.825C9.5411 531.719 9.58617 531.659 9.81154 531.284L9.97681 531.178C10.2473 530.803 10.2473 530.743 10.3074 530.262L10.683 525.394C10.7431 525.063 11.0135 518.573 11.0135 518.032V512.247C11.0135 512.037 10.9083 511.106 10.9083 510.955C10.9083 510.895 11.1187 508.521 11.1187 508.251C11.1187 507.545 11.1187 506.418 11.1788 505.817C11.2389 505.111 11.2839 505.006 11.2839 503.819L11.344 498.74C11.344 497.989 11.4492 494.744 11.4492 494.083C11.4492 493.918 11.4492 493.872 11.344 493.482C10.8633 492.941 9.93174 492.024 9.88667 491.964C9.24061 491.258 9.13544 491.153 8.05367 490.342L8.21894 490.011L8.18889 489.951ZM25.3319 490.056C25.7676 489.786 26.7893 489.185 27.3302 489.185C27.6607 489.185 32.5287 490.747 32.5287 493.572C32.5287 493.842 31.6122 494.654 31.4469 494.819C30.1548 496.276 29.1181 499.206 29.073 499.462C30.0947 499.627 33.0245 499.251 33.4602 499.131C34.8725 498.65 35.0829 498.65 36.8708 498.38C38.4333 498.109 40.9274 497.358 42.49 497.088L43.2412 496.216H43.3464C45.4498 496.862 47.3429 497.463 47.3429 498.275C47.3429 499.567 46.7419 499.627 44.9089 499.792C42.7454 500.003 41.7688 500.168 39.8757 500.543C39.5001 500.649 37.2764 500.874 37.2314 500.874C35.6688 501.415 33.6555 501.685 31.7624 501.685C31.492 501.685 30.2449 501.475 29.9745 501.475C29.644 501.415 28.4119 501.039 28.1415 501.039C27.8711 501.039 25.8127 504.179 25.7676 504.224C25.1666 504.931 24.5206 505.577 23.6642 505.952C23.4989 506.057 23.2886 506.223 23.1834 506.223C22.5373 506.223 22.312 506.223 21.726 506.929C21.3955 506.989 21.3504 507.034 21.08 507.259H20.9147C21.08 506.613 22.8679 504.224 23.1383 503.684C23.7393 502.436 25.4671 498.605 25.8428 496.983C26.008 496.111 27.3001 492.55 27.3001 491.784C27.3001 491.454 27.195 491.183 27.0297 491.033C26.8193 490.868 25.6174 490.432 25.407 490.327L25.3469 490.056H25.3319ZM27.3302 521.803C27.1649 522.179 26.7292 523.862 26.579 524.177C26.2484 524.823 24.4755 528.339 24.4755 528.669C24.4755 528.74 24.5657 528.85 24.746 529C25.0765 528.94 29.2383 528.294 29.4036 528.023C29.5087 527.963 30.275 525.695 30.4853 525.259C30.7558 524.613 31.5671 521.367 31.7324 520.721C31.8976 520.18 31.9427 520.075 31.8375 519.85C30.7558 519.685 28.2617 520.496 27.6757 520.872L27.3452 521.788L27.3302 521.803ZM32.5137 517.161C32.9494 515.914 33.8058 511 33.8058 510.835C33.8058 510.354 33.7006 509.964 33.4752 509.423C33.1447 509.423 30.7708 509.483 30.5004 509.964C30.3952 510.174 28.9378 517.161 28.8176 517.476C29.1932 517.581 32.3334 517.146 32.4986 517.146L32.5137 517.161ZM35.173 527.813C35.8191 527.813 38.7939 527.873 39.44 527.813C39.8156 526.566 40.6269 519.595 40.6269 519.429C40.6269 519.054 40.3565 519.054 39.8156 519.054C39.3799 519.054 35.8191 519.054 35.4284 520.135C35.3683 520.241 35.0528 522.239 34.8875 522.63C34.557 523.276 34.5119 523.501 34.0161 525.063C33.8508 525.544 32.7691 527.497 32.6639 527.933C33.0395 527.933 34.7673 527.828 35.158 527.828L35.173 527.813ZM35.0077 509.213C35.2782 509.318 35.3833 509.378 35.8191 509.588C35.9242 509.964 36.5703 511.541 36.6905 511.917C37.021 512.999 37.021 513.209 37.021 513.434C37.021 513.915 36.5402 515.868 36.5402 516.244C36.5402 516.575 36.8107 516.62 37.021 516.62C37.1262 516.62 40.3715 516.349 41.0176 516.289L41.3481 514.561L41.7838 509.213C41.8439 508.777 41.6786 508.566 41.5134 508.191C40.4316 508.251 35.8341 508.837 35.0829 509.107L35.0228 509.213H35.0077Z" fill="white"/>
<line x1="66.5002" y1="2.18557e-08" x2="66.5001" y2="543" stroke="white"/>
</svg>
