<svg width="675" height="50" viewBox="0 0 675 50" fill="none" xmlns="http://www.w3.org/2000/svg">
<path d="M10.9011 47.088C16.2954 43.0423 19.8467 39.0415 23.5778 32.6357C27.6235 25.6231 30.3207 18.026 31.3546 10.6763C26.3873 10.7212 19.2623 11.7102 13.823 12.9913C12.9689 13.1487 12.7441 13.2161 12.362 13.2161C11.5529 13.2161 10.7437 12.9464 9.35019 12.0923C9.50752 14.7445 9.50752 15.0142 9.6199 17.9137C9.73229 19.8017 9.77724 21.2626 9.84467 22.1842C9.95705 24.3419 10.002 25.1511 10.002 25.4657C10.002 28.0056 9.30523 29.1968 7.84427 29.1968C6.87778 29.1968 5.9113 28.4326 4.92233 26.9267C4.0008 25.5781 3.46137 24.0722 3.46137 22.9259C3.46137 22.6112 3.50632 22.3415 3.77604 21.6223C4.27052 20.3186 4.47281 19.0375 4.47281 16.9921C4.47281 14.1376 4.04575 11.4854 3.34899 10.1368C2.65222 8.74328 1.73068 7.93413 0 7.05755C0.584387 6.74288 0.854104 6.67545 1.57335 6.67545C3.2366 6.67545 5.77644 7.79927 8.36123 9.68729C10.4066 9.68729 10.8336 9.68729 18.7229 8.72081C26.1176 7.79927 28.2079 7.52956 29.5115 7.25984C30.3656 7.1025 30.4331 7.03508 31.6693 6.33831C32.0963 6.06859 32.5908 5.91125 32.9729 5.91125C34.0518 5.91125 35.9847 6.99012 37.7154 8.56347C39.064 9.8671 39.6484 10.6763 39.6484 11.4854C39.6484 12.0248 39.4911 12.4069 38.8842 13.0588C38.12 13.8679 37.8053 14.5647 37.0411 16.7224C33.5348 26.5446 29.4441 33.7146 24.2071 38.9965C20.3187 42.9973 16.4303 45.5821 11.2607 47.7399L10.8786 47.088H10.9011Z" fill="#231815"/>
<path d="M53.8984 28.545C59.068 24.2295 63.833 18.4531 67.7664 11.8675C69.4296 9.05794 70.0815 7.55202 70.0815 6.47315C70.0815 5.70895 69.8567 5.23695 69.3173 4.58513C68.6205 3.73103 68.2384 3.46131 66.7325 2.74207C67.3843 2.47235 67.654 2.4274 68.126 2.4274C70.059 2.4274 73.0259 3.61865 75.296 5.2819C76.4198 6.09105 77.0267 7.01259 77.0267 7.75431C77.0267 8.49603 76.9143 8.72079 75.5657 10.4515C75.5207 10.4964 74.8689 11.373 74.0598 12.4519C74.5543 12.4968 74.9139 12.5643 75.1386 12.5643C75.9928 12.5643 79.0271 12.1372 80.7578 11.8001C82.6907 11.418 83.41 11.2157 84.4888 10.6088C85.4553 10.1143 85.6801 10.0244 86.1071 10.0244C86.9612 10.0244 88.3098 10.8336 89.8382 12.2945C91.2318 13.6431 91.951 14.722 91.951 15.5761C91.951 16.2279 91.6813 16.6999 90.9171 17.3068C89.7933 18.1159 89.7258 18.1609 88.175 20.8131C84.3989 27.129 82.0839 30.2532 78.6899 33.8045C72.1043 40.7047 63.9679 45.717 55.2695 48.2118L54.9998 47.6275C58.3937 45.7394 60.1694 44.6156 62.8216 42.4579C69.5645 37.0635 74.8015 31.2871 79.0495 24.6566C80.9825 21.6447 83.5224 16.8348 84.0168 15.3289C84.1292 14.9468 84.2416 14.7445 84.2416 14.6321C84.2865 14.5197 84.354 14.4073 84.354 14.3624C84.354 14.25 84.2416 14.1376 84.1966 14.0927H84.0393C84.0393 14.0927 83.9269 14.0927 83.8145 14.0477C83.7696 14.0477 83.7022 14.0927 83.5898 14.1601C83.4774 14.205 83.2751 14.205 83.0054 14.2725C82.5109 14.2725 80.1958 14.8119 78.9147 15.194C78.1655 15.4487 77.4837 15.666 76.8693 15.8458C76.5547 15.8908 76.3299 15.9582 76.1726 15.9582C75.2061 15.9582 74.0148 15.3064 72.8236 14.1151C67.4292 20.9704 60.7987 26.3648 54.3255 29.1069L53.9434 28.5675L53.8984 28.545Z" fill="#231815"/>
<path d="M118.788 47.088C124.182 43.0423 127.733 39.0415 131.464 32.6357C135.51 25.6231 138.207 18.026 139.241 10.6763C134.274 10.7212 127.149 11.7102 121.71 12.9913C120.856 13.1487 120.631 13.2161 120.249 13.2161C119.44 13.2161 118.63 12.9464 117.237 12.0923C117.394 14.7445 117.394 15.0142 117.507 17.9137C117.619 19.8017 117.664 21.2626 117.731 22.1842C117.844 24.3419 117.889 25.1511 117.889 25.4657C117.889 28.0056 117.192 29.1968 115.731 29.1968C114.765 29.1968 113.798 28.4326 112.809 26.9267C111.888 25.5781 111.348 24.0722 111.348 22.9259C111.348 22.6112 111.393 22.3415 111.663 21.6223C112.157 20.3186 112.36 19.0375 112.36 16.9921C112.36 14.1376 111.932 11.4854 111.236 10.1368C110.539 8.74328 109.617 7.93413 107.887 7.05755C108.471 6.74288 108.741 6.67545 109.46 6.67545C111.123 6.67545 113.663 7.79927 116.248 9.68729C118.293 9.68729 118.72 9.68729 126.61 8.72081C134.004 7.79927 136.095 7.52956 137.398 7.25984C138.252 7.1025 138.32 7.03508 139.556 6.33831C139.983 6.06859 140.478 5.91125 140.86 5.91125C141.938 5.91125 143.871 6.99012 145.602 8.56347C146.951 9.8671 147.535 10.6763 147.535 11.4854C147.535 12.0248 147.378 12.4069 146.771 13.0588C146.007 13.8679 145.692 14.5647 144.928 16.7224C141.422 26.5446 137.331 33.7146 132.094 38.9965C128.205 42.9973 124.317 45.5821 119.147 47.7399L118.765 47.088H118.788Z" fill="#231815"/>
<path d="M161.785 28.545C166.955 24.2295 171.72 18.4531 175.653 11.8675C177.316 9.05794 177.968 7.55202 177.968 6.47315C177.968 5.70895 177.743 5.23695 177.204 4.58513C176.507 3.73103 176.125 3.46131 174.619 2.74207C175.271 2.47235 175.541 2.4274 176.013 2.4274C177.946 2.4274 180.913 3.61865 183.183 5.2819C184.307 6.09105 184.913 7.01259 184.913 7.75431C184.913 8.49603 184.801 8.72079 183.452 10.4515C183.407 10.4964 182.756 11.373 181.946 12.4519C182.441 12.4968 182.801 12.5643 183.025 12.5643C183.879 12.5643 186.914 12.1372 188.644 11.8001C190.577 11.418 191.297 11.2157 192.376 10.6088C193.342 10.1143 193.567 10.0244 193.994 10.0244C194.848 10.0244 196.197 10.8336 197.725 12.2945C199.118 13.6431 199.838 14.722 199.838 15.5761C199.838 16.2279 199.568 16.6999 198.804 17.3068C197.68 18.1159 197.613 18.1609 196.062 20.8131C192.286 27.129 189.971 30.2532 186.577 33.8045C179.991 40.7047 171.855 45.717 163.156 48.2118L162.886 47.6275C166.28 45.7394 168.056 44.6156 170.708 42.4579C177.451 37.0635 182.688 31.2871 186.936 24.6566C188.869 21.6447 191.409 16.8348 191.904 15.3289C192.016 14.9468 192.128 14.7445 192.128 14.6321C192.173 14.5197 192.241 14.4073 192.241 14.3624C192.241 14.25 192.128 14.1376 192.083 14.0927H191.926C191.926 14.0927 191.814 14.0927 191.701 14.0477C191.656 14.0477 191.589 14.0927 191.476 14.1601C191.364 14.205 191.162 14.205 190.892 14.2725C190.398 14.2725 188.083 14.8119 186.801 15.194C186.052 15.4487 185.37 15.666 184.756 15.8458C184.441 15.8908 184.217 15.9582 184.059 15.9582C183.093 15.9582 181.902 15.3064 180.71 14.1151C175.316 20.9704 168.685 26.3648 162.212 29.1069L161.83 28.5675L161.785 28.545Z" fill="#231815"/>
<path d="M225.528 49.2008C228.45 47.6949 230.271 46.4587 232.159 44.5707C234.699 42.0309 235.935 39.7607 236.789 36.0971C235.755 36.7489 234.743 37.0636 233.44 37.0636C229.349 37.0636 226.202 33.2875 226.202 28.2753C226.202 23.2631 229.394 19.5994 233.867 19.5994C234.991 19.5994 235.643 19.7567 237.148 20.5209V17.9361C237.148 16.6325 237.148 16.2055 237.103 14.3174C229.866 15.1715 224.314 16.6325 220.269 18.7453C219.887 18.9026 219.19 19.06 218.695 19.06C217.122 19.06 215.504 17.8687 213.998 15.711C212.964 14.1376 212.334 12.5868 212.334 11.4405C212.334 11.2157 212.379 10.946 212.559 10.5189C214.133 12.7216 215.908 13.7106 218.336 13.7106C219.415 13.7106 223.153 13.2461 229.551 12.317C231.709 12.0024 233.327 11.8226 236.991 11.3955C236.879 7.30481 236.609 5.57412 235.867 4.54021C235.013 3.34896 233.665 2.65219 231.17 2.27009C232.136 1.41599 232.833 1.19122 234.564 1.19122C236.609 1.19122 238.722 1.50589 240.655 2.11276C242.768 2.80952 243.734 3.6861 243.734 4.92231C243.734 5.46174 243.622 5.84384 243.195 6.58556C242.385 8.04653 242.273 8.51853 242.003 10.7437C249.51 10.0919 249.938 10.0469 251.758 9.23778C252.725 8.81073 253.264 8.69834 254.073 8.69834C255.534 8.69834 257.894 9.73226 259.31 10.9685C260.007 11.5528 260.277 12.0923 260.277 12.9689C260.277 13.9353 259.468 14.5872 258.344 14.5872C257.849 14.5872 257.04 14.4748 255.152 14.2051C252.073 13.823 249.758 13.6656 246.296 13.6656C244.453 13.6656 243.554 13.7106 241.711 13.8904C241.486 16.7449 241.329 20.2512 241.329 22.2516V23.3754C242.723 26.0277 243.217 27.9157 243.217 30.8826C243.217 37.0411 240.632 42.1657 235.71 45.6046C233.17 47.3802 230.81 48.4142 225.73 49.8751L225.461 49.2233L225.528 49.2008ZM233.62 21.1503C231.462 21.1503 229.799 23.4204 229.799 26.3198C229.799 29.7138 231.417 32.0963 233.799 32.0963C235.912 32.0963 237.148 30.3656 237.148 27.3987C237.148 23.3979 235.845 21.1503 233.642 21.1503H233.62Z" fill="#231815"/>
<path d="M281.427 27.6685C286.934 24.1622 291.182 22.7012 295.879 22.7012C303.319 22.7012 308.399 27.174 308.399 33.7146C308.399 41.8061 300.734 47.7399 290.328 47.7399C284.169 47.7399 280.123 45.2001 280.123 41.3117C280.123 38.0751 282.933 35.8049 286.979 35.8049C291.025 35.8049 294.418 37.9177 296.644 42.0534C300.375 40.1204 302.263 36.9737 302.263 32.7257C302.263 27.8708 299.408 25.1736 294.216 25.1736C290.552 25.1736 286.776 26.5671 283.383 29.1744C281.337 30.7477 278.752 33.4449 277.179 35.6027C276.258 36.8389 276.145 36.9962 275.673 37.3333C275.358 37.6031 274.819 37.8278 274.549 37.8278C273.088 37.8278 271.74 35.4453 271.74 32.9729C271.74 31.467 272.009 31.0849 274.28 29.2418C277.089 26.9268 284.686 18.6779 288.62 13.5982C292.066 9.17789 293.789 6.91526 293.789 6.81037C293.789 6.81037 293.744 6.76542 293.677 6.76542H293.632C293.474 6.8778 293.137 6.99018 292.553 7.19247C292.126 7.41723 291.159 7.77686 289.811 8.42867C289.429 8.58601 288.462 9.01306 287.114 9.61992C285.93 10.1594 284.581 10.7887 283.068 11.5079C281.989 12.0474 281.337 12.2721 280.685 12.2721C279.494 12.2721 278.37 11.463 277.224 9.7323C276.19 8.114 275.651 6.60808 275.651 5.2595C275.651 4.67511 275.763 4.18063 276.145 3.32653C277.224 5.97874 278.842 7.37228 280.843 7.37228C282.304 7.37228 285.315 6.72046 288.889 5.70903C291.901 4.78749 292.778 4.40539 293.744 3.66367C294.441 3.12424 294.868 2.89948 295.475 2.89948H295.587C296.778 2.94443 298.509 4.20311 300.217 6.13608C300.914 6.99018 301.296 7.75438 301.296 8.45115C301.296 9.14792 300.982 9.53002 299.566 10.2942C297.947 11.1483 297.565 11.418 293.092 15.6886C290.238 18.3857 289.092 19.5095 285.226 23.6227C283.398 25.5707 282.124 26.9193 281.405 27.6685L281.45 27.7134L281.427 27.6685ZM285.405 38.4122C283.472 38.4122 282.124 39.4911 282.124 40.997C282.124 42.9974 284.664 44.3909 288.282 44.3909C289.474 44.3909 290.058 44.346 291.744 43.9639C290.71 40.4576 288.35 38.4122 285.428 38.4122H285.405Z" fill="#231815"/>
<path d="M325.323 8.51852C327.639 10.9909 329.414 11.7551 332.876 11.7551C334.179 11.7551 334.988 11.7102 336.607 11.4405C336.921 8.78824 337.146 6.81032 337.146 5.73145C337.146 3.41638 336.112 2.38246 333.055 1.52836C334.022 0.943971 334.516 0.76416 335.708 0.76416C337.551 0.76416 339.866 1.30359 341.799 2.1577C343.574 2.96685 344.383 3.776 344.383 4.85487C344.383 5.3943 344.226 5.70897 343.619 6.42822C342.698 7.61947 342.54 8.04652 341.731 10.5189C346.316 9.44005 348.789 8.40614 351.284 6.47317C351.935 5.93374 352.318 5.82135 353.172 5.82135C353.936 5.82135 355.284 6.13602 356.094 6.51812C356.948 6.90022 357.442 7.48461 357.442 8.29376C357.442 9.64234 356.094 10.4515 351.778 11.9125C348.969 12.834 344.878 13.7555 340.877 14.3849C340.45 16.4976 340.068 19.1948 339.911 21.2402C342.45 20.476 345.193 20.004 347.957 19.8466C347.912 18.3407 347.463 17.5316 346.226 16.4527C346.541 16.4077 346.766 16.3403 346.923 16.3403C348.317 16.3403 350.115 17.9586 350.744 19.8017C360.072 20.8806 365.579 25.6905 365.579 32.7031C365.579 38.5245 361.803 43.4469 355.172 46.0766C351.351 47.65 347.575 48.3917 342.001 48.7288L341.844 48.077C347.822 46.5711 351.553 44.728 354.678 41.7162C357.532 38.9066 359.15 35.198 359.15 31.2422C359.15 28.1629 358.117 25.6905 356.026 23.9598C354.678 22.836 353.284 22.2291 350.677 21.8021C349.171 27.084 346.631 31.1298 341.776 36.0521C342.136 36.7714 342.548 37.4756 343.012 38.1649C343.552 38.9291 343.709 39.4685 343.709 40.3676C343.709 42.368 342.585 44.1436 341.327 44.1436C340.068 44.1436 339.124 42.9524 337.775 39.7158C334.381 42.6377 330.448 44.6831 328.178 44.6831C326.717 44.6831 325.75 43.7166 325.323 41.9409C325.054 40.8171 324.941 40.5924 324.29 39.6708C323.256 38.3222 322.941 37.4007 322.941 36.1196C322.941 31.4894 327.841 26.2524 335.618 22.6787C335.887 19.487 336.045 16.9022 336.269 14.8569C335.303 14.9693 334.764 14.9693 334.381 14.9693C329.639 14.9693 327.099 13.3959 324.717 8.9231L325.301 8.541L325.323 8.51852ZM327.436 36.4118C327.436 38.1874 328.088 39.2663 329.099 39.2663C330.673 39.2663 333.685 37.648 336.427 35.3778C335.842 32.0289 335.618 29.8262 335.618 26.5896V25.196C330.448 28.2753 327.414 32.366 327.414 36.4118H327.436ZM339.731 25.0387C339.731 27.5785 339.956 30.006 340.428 32.0963C344.159 28.3202 345.979 25.6231 347.598 21.5773C344.586 21.8021 342.698 22.2291 339.776 23.353C339.731 24.1621 339.731 24.7015 339.731 25.0162V25.0387Z" fill="#231815"/>
<path d="M376.48 10.6313C378.907 13.1037 380.526 13.8679 383.493 13.8679C384.841 13.8679 386.504 13.7106 388.572 13.2835C389.808 9.6648 390.303 7.39469 390.303 5.50667C390.303 3.50627 389.336 2.4274 386.572 1.41596C387.336 0.921479 387.651 0.831573 388.505 0.831573C390.235 0.831573 392.326 1.37101 394.326 2.29254C396.327 3.21407 397.068 4.02322 397.068 5.10209C397.068 5.79886 396.956 6.06858 396.147 7.14744C395.495 8.00155 395.45 8.06898 393.337 12.2271C396.461 11.1033 397.068 10.8336 398.304 9.84461C399.338 9.03546 399.653 8.87813 400.462 8.87813C402.777 8.87813 404.62 9.957 404.62 11.2606C404.62 12.4519 403.654 13.261 401.226 14.1151C398.754 14.9692 395.877 15.7334 391.674 16.655C387.134 26.9492 384.392 33.1077 383.47 35.0407C381.627 38.9291 380.93 39.7382 379.582 39.7382C378.772 39.7382 378.233 39.3561 377.694 38.502C377.154 37.5805 376.84 36.187 376.84 34.8833C376.84 33.3774 377.064 32.8829 378.188 31.6467C381.043 28.6798 384.504 23.0158 387.089 17.082C386.055 17.1944 385.515 17.2394 385.043 17.2394C380.616 17.2394 377.986 15.4637 375.918 10.9909L376.457 10.6762L376.48 10.6313ZM406.576 14.0252H407.812C411.161 14.0252 414.937 15.0591 417.477 16.5651C419.365 17.7563 420.489 19.4196 420.489 21.1053C420.489 22.8809 419.522 24.0722 418.106 24.0722C417.612 24.0722 417.252 23.9148 416.443 23.3754C414.78 22.1392 413.206 21.7122 410.667 21.7122C407.205 21.7122 406.081 22.6337 406.081 25.3758C406.081 27.2189 406.463 29.7362 407.542 34.8159C410.824 35.7374 413.633 36.9287 415.364 38.2098C417.027 39.446 417.949 41.1318 417.949 43.0198C417.949 44.9078 417.095 46.2564 415.948 46.2564C415.297 46.2564 414.915 45.9867 413.791 44.7954C411.858 42.6377 410.554 41.6038 408.014 40.1653V41.1992C408.014 45.672 404.508 48.3242 398.529 48.3242C393.135 48.3242 389.471 45.672 389.471 41.8061C389.471 37.3333 394.169 34.0967 400.687 34.0967C401.451 34.0967 402.081 34.1416 402.89 34.254C402.845 31.6018 402.845 31.4444 402.845 30.8601C402.845 27.0391 403.272 24.8813 404.238 23.3529C405.699 21.0828 407.587 20.1613 413.296 18.8127C411.79 16.9247 410.172 15.9582 406.441 14.722L406.553 14.0702L406.576 14.0252ZM398.439 37.7603C393.967 37.7603 391.157 39.2213 391.157 41.5813C391.157 43.4244 392.933 44.5032 396.169 44.5032C398.979 44.5032 401.024 43.8065 401.991 42.5028C402.575 41.7386 402.845 40.6598 402.845 39.2213C402.845 38.5695 402.845 38.4571 402.8 38.4571C401.406 37.9626 399.878 37.7603 398.439 37.7603Z" fill="#231815"/>
<path d="M429.434 12.7216C431.547 15.1041 433.098 15.8458 435.795 15.8458C437.796 15.8458 439.998 15.5761 442.268 15.0367C443.235 11.418 443.842 8.24881 443.842 6.36079C443.842 5.32688 443.46 4.42782 442.718 3.77601C442.066 3.19162 441.369 2.85447 439.594 2.38247C440.56 1.79808 440.942 1.6857 442.403 1.6857C444.336 1.6857 446.674 2.22513 448.607 3.14667C450.068 3.79848 450.989 4.80992 450.989 5.79888C450.989 6.4507 450.944 6.60803 450.068 7.6869C449.304 8.72082 448.719 9.95702 447.258 13.6656C450.45 12.4744 451.461 11.89 453.417 10.2717C454.001 9.73225 454.653 9.46254 455.26 9.46254C456.226 9.46254 457.8 9.88959 458.609 10.429C459.193 10.7437 459.463 11.2831 459.463 12.0024C459.463 13.8454 455.53 15.666 445.595 18.4306C445.13 19.7193 444.336 22.0418 443.212 25.3983C442.523 27.4811 441.212 31.3621 439.279 37.0411C437.706 41.7387 436.897 43.8964 436.312 44.9753C435.773 45.8968 435.009 46.3688 434.154 46.3688C433.503 46.3688 432.806 45.9867 432.424 45.4473C431.615 44.3234 431.075 42.2107 431.075 40.5474C431.075 39.0864 431.233 38.7043 432.424 37.3108C435.076 34.0742 438.088 27.646 441.055 19.015C439.819 19.2398 438.897 19.2847 437.548 19.2847C433.278 19.2847 430.85 17.5091 428.917 13.0812L429.457 12.7666L429.434 12.7216ZM452.001 32.0963C451.888 33.1302 451.843 33.6696 451.843 34.1416C451.843 38.7718 454.923 40.9969 461.283 40.9969C463.666 40.9969 465.015 40.7722 467.172 40.0305C467.554 39.8731 467.937 39.8057 468.251 39.8057C469.33 39.8057 471.218 40.7722 472.297 41.9634C472.836 42.5478 473.106 43.1547 473.106 43.9638C473.106 45.8518 470.634 46.706 465.06 46.706C459.89 46.706 455.889 45.672 453.619 43.784C451.574 42.0533 450.427 39.5135 450.427 36.5466C450.427 34.9283 450.697 33.6247 451.349 31.9165L452.001 32.0738V32.0963ZM452.855 23.1507C456.631 20.1838 461.441 18.4081 465.689 18.4081C469.24 18.4081 471.578 19.8691 471.578 22.0269C471.578 23.5328 470.724 24.297 468.925 24.297L466.813 24.252C465.307 24.252 463.733 24.6341 462.07 25.4433C461.815 25.5482 461.059 25.9602 459.8 26.6795C459.148 27.0616 458.991 27.174 458.339 27.5336L458.024 27.0391L463.464 21.9145H462.115C459.463 21.9145 456.226 22.5663 453.057 23.6901L452.832 23.1507H452.855Z" fill="#231815"/>
<path d="M500.527 42.6827C505.584 41.1318 509.113 39.0415 511.945 35.9847C515.114 32.5908 516.665 28.4326 516.665 23.5777C516.665 15.5087 511.765 10.6987 503.651 10.6987C503.044 10.6987 502.662 10.6987 501.763 10.7886C503.404 12.7216 503.943 14.0028 503.943 15.8458C503.943 19.6219 501.539 26.2299 498.145 31.9389C495.088 37.0411 492.346 39.6259 489.986 39.6259C488.952 39.6259 487.963 39.064 487.446 38.2548C487.064 37.558 486.794 36.8838 486.367 35.1306C486.075 34.0068 485.715 33.3325 484.344 31.6467C483.22 30.2307 482.501 28.1629 482.501 26.2299C482.501 23.263 484.007 19.6668 486.457 16.7898C490.525 11.9799 497.223 9.05795 504.258 9.05795C514.777 9.05795 522.284 15.711 522.284 25.0612C522.284 31.894 518.508 37.3782 511.675 40.5474C508.753 41.9185 505.719 42.7276 500.774 43.3794L500.594 42.7276L500.527 42.6827ZM491.694 15.8234C488.435 19.0824 486.637 23.0832 486.637 27.0616C486.637 30.3206 488.232 33.6696 489.851 33.6696C491.469 33.6696 494.526 29.7587 497.583 23.9373C499.943 19.5095 501.359 15.5761 501.359 13.5083C501.359 12.9913 501.314 12.3845 501.179 11.9574C501.089 11.5753 500.842 10.9235 500.797 10.9235C496.976 11.7776 494.436 13.1487 491.694 15.8234Z" fill="#231815"/>
<path d="M539.591 48.077C539.546 49.3807 538.67 49.6953 535.545 49.6953C533.927 49.6953 533.5 49.4256 533.5 48.4591C533.815 40.3227 533.927 35.0182 533.927 29.7363V21.3076C531.5 24.4319 530.196 25.8479 527.611 28.2753L527.072 27.7808C532.354 19.1499 536.557 7.93417 537.591 0C545.413 1.84307 546.177 2.11278 546.177 2.8545C546.177 3.43889 545.48 3.70861 543.794 3.93337C540.985 10.3616 539.434 13.4184 537.096 16.8798C537.636 16.9547 538.01 17.0072 538.22 17.0371C540.648 17.3068 541.299 17.5316 541.299 18.071C541.299 18.4981 540.805 18.8352 539.524 19.3072V30.3656L539.569 48.0546L539.591 48.077ZM539.928 39.7608C542.086 37.5581 545.053 33.1752 547.48 28.59C550.133 23.5778 551.751 19.6444 553.099 14.9468H545.435C543.817 14.9468 542.963 14.9918 541.389 15.2615L541.007 13.3735C542.356 13.6881 543.704 13.8005 545.435 13.8005H555.19V6.13606C555.19 3.93337 555.145 2.74212 554.808 0.516957C561.506 1.10134 561.933 1.16877 562.674 1.43849C563.101 1.66325 563.326 1.86554 563.326 2.13526C563.326 2.62974 562.629 3.05679 561.011 3.5288V13.778H567.799C569.462 11.6653 570.002 11.0359 571.732 8.96809C574.43 11.0134 575.239 11.7102 577.891 13.9803C578.048 14.2051 578.206 14.4748 578.206 14.5647C578.206 14.7895 577.936 14.8794 577.554 14.8794H561.416C562.719 18.543 563.731 20.5434 566.113 23.6227C569.934 28.6349 573.508 31.3321 579.217 33.6472L579.06 34.1866C577.014 35.2655 576.048 36.4567 574.744 39.4686C574.475 40.053 574.362 40.2328 574.092 40.2328C573.778 40.2328 573.238 39.8507 572.362 38.9966C569.17 35.8049 566.158 31.3995 564.383 27.129C563.191 24.2071 562.607 22.5888 560.876 16.8798L561.034 30.2083C561.109 38.09 561.183 43.9714 561.258 47.8523C561.258 48.6165 561.146 48.9311 560.831 49.1559C560.404 49.4706 558.629 49.7403 556.673 49.7403C555.325 49.7403 554.943 49.4706 554.943 48.3468V48.3018L555.325 30.9725L555.549 22.7236C553.01 27.6909 550.964 30.7028 547.84 34.0518C545.457 36.5242 543.48 38.1425 540.288 40.3002L539.906 39.7158L539.928 39.7608Z" fill="#231815"/>
<path d="M596.299 47.0431C596.254 48.2793 595.535 48.5041 591.826 48.5041C589.893 48.5041 589.624 48.3467 589.624 47.2004C589.938 37.603 590.006 31.7591 590.006 19.4645C590.006 8.40614 589.961 5.75392 589.691 1.16873C592.928 2.56227 593.894 3.05675 596.928 4.78743H617.472C618.933 3.21409 619.405 2.74208 620.866 1.16873C623.024 2.74208 623.675 3.21409 625.608 4.78743C626.148 5.21449 626.372 5.4842 626.372 5.82135C626.372 6.31583 625.945 6.67545 624.327 7.55203L624.282 16.183C624.282 32.321 624.327 35.8274 624.664 46.4587C624.664 47.1105 624.552 47.3802 624.282 47.5825C623.788 47.9646 622.169 48.1669 620.236 48.1669C618.393 48.1669 617.966 48.0096 617.966 47.133V43.7391H596.344V47.0206L596.299 47.0431ZM617.921 5.93373H596.299V22.8809H617.921V5.93373ZM596.299 24.0048V42.6152H617.921V24.0048H596.299Z" fill="#231815"/>
<path d="M639.694 15.2732C641.758 17.0122 643.133 17.5281 645.981 17.5281C647.452 17.5281 648.732 17.3944 650.529 16.974C651.446 15.3688 652.134 13.1712 652.134 11.9291C652.134 10.3622 651.083 9.54048 648.465 8.94809C649.42 8.39393 649.879 8.26016 650.949 8.26016C652.554 8.26016 654.58 8.68056 656.128 9.31117C657.408 9.86534 658.153 10.5533 658.153 11.3367C658.153 11.6998 657.924 12.1584 657.37 12.7508C656.644 13.6299 655.803 14.7764 654.943 16.1523C659.032 14.7382 659.434 14.5089 661.001 13.2094C661.364 12.8846 661.784 12.7508 662.281 12.7508C664.306 12.7508 665.988 13.7636 665.988 14.9484C665.988 15.9038 665.166 16.4198 662.185 17.4326C659.338 18.388 656.357 19.1333 652.688 19.7639C651.312 21.7322 650.949 22.2863 650.433 23.0125C649.274 24.7196 648.478 25.8661 648.045 26.4521C650.834 24.9425 652.631 24.3883 654.599 24.3883C656.109 24.3883 657.542 24.9425 658.497 25.9553C659.09 26.605 659.414 27.1401 659.778 28.3822C660.3 28.0764 661.752 27.3248 664.134 26.1273C665.51 25.4393 667.154 24.4839 668.071 23.8724C668.721 23.452 668.988 23.0507 668.988 22.6303C668.988 21.713 668.109 20.834 666.466 20.0697C667.154 19.8403 667.421 19.8021 667.88 19.8021C670.593 19.8021 674.625 23.28 674.625 25.6687C674.625 26.5859 674.167 27.0445 672.829 27.3694C667.593 28.7452 663.389 30.2166 660.446 31.7263C660.542 34.8029 660.542 34.8984 660.542 35.357C660.542 37.6119 660.446 38.6056 660.179 39.1215C659.816 39.8477 658.899 40.3063 657.924 40.3063C656.682 40.3063 655.898 39.5802 655.898 38.3763C655.898 38.2871 655.943 37.6756 656.032 36.5418C656.07 35.4908 656.128 34.8411 656.128 33.599C651.217 36.3507 649.382 38.2807 649.382 40.6121C649.382 42.8096 651.542 43.8224 656.223 43.8224C659.204 43.8224 662.644 43.3256 664.67 42.5803C665.854 42.1217 666.179 42.0261 666.6 42.0261C667.326 42.0261 668.472 42.4465 669.389 43.0771C670.345 43.7651 670.899 44.6441 670.899 45.504C670.899 46.3257 670.249 47.0136 669.198 47.3385C667.498 47.8353 664.383 48.122 660.255 48.122C655.21 48.122 652.096 47.5296 649.898 46.1537C648.159 45.0454 647.242 43.3065 647.242 41.1471C647.242 38.9878 648.388 36.6947 650.72 34.4589C651.828 33.4079 652.975 32.5862 656.128 30.5224C656.09 28.7835 655.937 28.1911 655.574 27.312C655.153 26.5286 654.331 26.0317 653.376 26.0317C650.586 26.0317 647.376 28.3631 643.783 33.0066C642.598 34.5162 642.178 34.8411 641.452 34.8411C640.305 34.8411 639.426 33.2359 639.426 31.0766C639.426 30.5224 639.56 30.0256 639.789 29.6625C640.114 29.2039 640.152 29.1656 641.586 28.1911C643.325 27.0445 646.363 23.5666 648.79 20.0314C648.064 20.0697 647.605 20.127 647.28 20.127C645.255 20.127 643.248 19.6301 642.044 18.7511C640.936 18.025 640.21 17.1459 639.292 15.579L639.656 15.2541L639.694 15.2732Z" fill="#231815"/>
</svg>
