<svg width="61" height="477" viewBox="0 0 61 477" fill="none" xmlns="http://www.w3.org/2000/svg">
<path d="M0.961015 19.0433C1.29108 18.9833 2.68635 18.9833 2.9564 18.9383C3.49651 18.7732 3.82656 18.6682 5.01179 18.2931C5.11681 18.0231 6.63209 11.6018 6.6921 11.2118C7.12719 9.96653 7.56227 7.26601 7.56227 6.1858C7.56227 6.02077 7.45725 5.85574 7.39724 5.81073C6.69211 5.37565 6.64711 5.33064 6.42206 5.16561C6.25703 4.95557 5.50688 3.98038 5.40186 3.75534V3.42527C5.40186 2.94518 5.77693 2.78015 6.10699 2.78015C6.48207 2.78015 8.05738 3.15522 8.37244 3.15522C9.51266 3.21523 12.7983 4.44547 12.9633 4.6105C13.0683 4.71552 13.1734 4.88055 13.1734 5.09059C13.1734 5.46567 12.7383 5.73572 12.4232 5.96076C12.4232 6.83093 11.9881 7.7461 11.403 8.33122C11.298 8.39123 11.133 9.03635 11.073 9.14137C11.013 9.3064 10.6379 10.0115 10.5329 10.1616C10.4278 10.3266 10.3228 11.5118 10.2028 11.7219C10.1428 11.8869 9.72269 12.532 9.60267 12.6971C9.54266 12.8621 9.22761 13.8823 9.12259 14.0473C9.01757 14.3774 8.14739 15.8777 8.10238 16.2077C7.93735 17.0179 7.89234 17.1229 7.77231 17.618C7.98235 17.678 10.3078 17.828 10.4128 17.828C10.6229 17.828 11.433 18.0981 11.6581 18.0981C12.1382 18.0981 14.8987 12.8621 15.1087 10.8067L14.8387 10.5366C14.3586 10.3716 14.2386 10.3266 13.9685 9.93653C13.4284 9.56145 13.4284 9.39642 13.5334 8.96134C13.8035 8.7513 13.9685 8.63127 14.5536 8.63127C16.279 8.63127 20.2847 9.54645 20.2847 11.1218C20.2847 12.202 19.6846 12.637 18.5594 13.4922C18.4994 13.5522 17.9143 14.9025 17.6892 15.1125C16.9841 15.8177 14.4486 20.1835 14.2836 20.3035C13.8485 20.6786 13.8035 20.7386 13.6835 21.3837C14.0585 21.7138 15.9489 22.734 16.2789 23.064C16.9841 23.7092 17.0891 23.8142 17.1941 24.0842C19.1895 25.4345 19.3545 28.195 19.3545 28.4051C19.3545 28.7351 19.3546 28.7801 18.7094 30.5055C18.1693 30.6105 18.0043 30.5055 16.609 29.3653C16.399 29.2602 15.7989 28.18 15.5888 28.18C15.4238 28.18 14.7787 28.5101 14.6136 28.5551C12.5582 29.0952 12.2882 29.2002 11.6431 29.7403C12.7833 31.0906 13.2034 31.6307 13.2034 32.981C13.2034 33.311 12.9333 34.7063 12.9333 34.8113C12.9333 35.0814 13.0983 36.1016 13.0983 36.3266C13.0983 37.7369 13.0984 43.9931 13.0383 45.2383L12.9333 50.0392C12.8733 50.2043 12.5582 50.9544 11.6881 50.9544C9.7977 50.9544 8.7775 45.9284 8.7775 45.8234C8.7775 45.7184 8.88253 45.2233 8.88253 45.1783C8.88253 44.6982 8.94254 44.6382 9.31761 43.723C9.37762 43.558 9.52765 41.7726 9.64767 41.4576C9.81271 40.8125 9.97774 37.0767 9.97774 36.4916C9.97774 35.9065 9.91774 33.356 9.91774 32.8759C9.91774 32.3358 9.91774 30.8205 9.54267 30.8205C9.37763 30.8205 6.57209 31.9007 6.46707 32.0058C5.28184 32.7559 5.17683 32.8159 4.78676 32.8159C2.9564 32.8159 1.54612 31.0906 1.21606 29.3653C1.32108 29.0952 1.38109 29.0352 1.59113 28.9902C1.96621 29.2002 2.19124 29.3202 2.56631 29.3202C2.94138 29.3202 4.66672 28.7201 5.1018 28.5701C5.37185 28.4651 5.47688 28.4651 6.34704 28.195C6.72212 27.4449 6.82715 27.2799 7.53229 25.7046C7.5923 25.6445 8.40244 24.3543 8.55247 24.0842H8.61247C8.94253 23.4841 9.58767 22.3589 9.96274 21.5938L9.85771 21.3837C9.21259 21.4887 8.50746 21.6538 8.13239 21.6538C7.6523 21.6538 5.53689 21.7138 5.1018 21.7138C3.91658 21.7138 0.885995 21.1137 0.720964 19.1783L0.931003 19.0133L0.961015 19.0433ZM3.66154 41.0225C4.47169 37.9469 4.53171 37.5718 4.53171 36.8067C4.53171 36.1616 3.93159 35.5615 3.61653 35.1864C2.74636 34.2712 2.64134 34.2112 2.74636 33.5061C3.07643 33.5061 4.4717 33.9861 4.74175 33.9861C4.84677 33.9861 5.34185 33.9261 5.38686 33.9261C5.5969 33.9861 6.6321 34.5262 6.84214 34.5713C7.05218 34.7363 8.19239 35.4864 8.35743 35.7115C8.62748 36.0866 8.62749 36.5816 8.62749 37.0017C8.46246 37.3768 8.41744 37.6018 7.81732 39.5372C7.60728 40.2424 6.30204 43.1079 6.092 43.753C6.03199 44.0231 5.92698 44.1281 5.28185 45.2083C5.22184 46.1235 3.06142 48.3439 2.20626 49.1991C1.56113 49.9042 1.50112 49.9492 0.916009 49.7992C0.750977 49.5291 0.855996 49.3191 1.12605 48.659C2.04122 46.4385 2.14625 46.1685 2.53632 45.2083C2.70135 44.5632 3.5115 41.5926 3.67653 40.9925L3.66154 41.0225ZM14.5686 25.2545C14.4636 24.1743 14.0885 23.4691 13.1133 22.3439C12.9483 22.5089 11.0579 24.3993 10.6829 24.8794C9.54266 26.2897 9.43765 26.4397 8.41745 27.5799C11.058 27.0398 14.1935 25.4795 14.5686 25.2545ZM14.0885 33.7311C14.1936 33.296 14.1935 33.251 14.1935 33.131C14.2536 33.071 14.4036 33.026 14.5236 33.026C14.7337 33.026 18.4694 36.7017 18.5144 36.8067C19.4296 37.9469 19.8646 38.532 19.8646 40.2574C19.8646 41.9827 19.1595 42.2077 18.1843 42.2077C17.4342 42.2077 17.3141 42.1027 16.399 41.2325C15.6938 40.5874 14.3436 35.0814 14.2986 34.8113L14.0885 33.7311ZM14.4036 45.8834C16.399 45.6134 19.9097 44.6382 20.0147 44.5932C21.0949 44.2631 26.976 43.2429 28.2213 43.1379C29.1364 43.0779 29.1964 43.0329 29.8416 42.9729C29.8816 42.5028 29.9016 42.0527 29.9016 41.6226V35.6215C29.3615 35.7265 26.931 36.2666 26.4509 36.3716C26.1809 36.9717 26.0158 36.9717 24.9356 36.9717C23.6904 36.9717 23.1503 36.6417 20.2397 34.9763L20.0747 34.8113L20.2397 34.6013C20.9899 34.4962 24.3505 34.0612 24.9956 33.8961C25.4307 33.8361 27.3661 33.296 27.7562 33.251C28.0262 33.146 29.3165 32.7709 29.5865 32.7109L29.6915 32.5009C29.7515 32.1258 29.6915 27.4749 29.4815 27.2649C28.7764 26.3947 28.7313 26.3497 28.7313 25.8096C29.2714 25.4795 30.0216 25.2695 30.6217 25.2695C30.6817 25.2695 33.2622 26.1396 33.5923 26.2897C34.2974 26.6647 34.6125 27.2649 34.6125 27.5799C34.6125 27.6399 34.4024 28.4501 34.4024 28.5551C34.3424 28.7651 34.0724 29.5753 34.0724 29.6953C34.0724 30.1304 34.0724 30.5655 34.0124 30.9856V31.3156C34.1774 31.4207 34.3874 31.5257 34.4924 31.5257C34.8225 31.5257 36.1128 30.9256 36.4428 30.9256C37.523 30.9256 40.9737 31.1956 40.9737 32.7559C40.9737 33.8361 39.4134 34.2112 37.193 34.5863C37.0879 34.5863 34.0124 35.1264 33.9524 35.1264L33.5173 36.4166C33.5773 37.2268 33.1872 40.7975 33.1872 41.5476C33.1872 42.0877 33.2472 42.2977 33.2922 42.8378C33.5623 42.8378 34.7475 42.8979 35.0176 42.8979C35.2876 42.8979 37.343 42.5678 37.613 42.5678C37.6731 42.5678 39.8785 42.6728 39.9385 42.6728C40.2686 42.6728 42.1589 42.4628 42.534 42.4628C44.1543 42.4628 44.4844 42.6278 46.9599 43.873C47.2899 44.0381 48.6852 44.5182 48.9102 44.7432C49.1203 45.0133 49.5554 45.7184 49.8854 46.1985C49.8254 46.7386 49.1353 48.1939 48.1601 48.1939C47.4549 48.1939 47.2899 48.0889 45.4146 47.4437C44.9795 47.2337 39.4134 45.8834 38.6633 45.7634C38.1232 45.7034 35.4226 45.4333 34.9425 45.4333C34.6125 45.4333 33.2172 45.6434 32.9471 45.6434C30.3066 45.6434 25.5507 46.9936 24.7406 47.2037C24.2605 47.3087 22.2051 47.6388 21.935 47.9088C21.77 48.0138 21.665 48.2839 21.605 48.3439L21.2299 48.5539C20.4798 48.3889 20.4198 48.3889 19.6696 48.3889C19.3395 48.3889 16.8641 47.2487 16.369 47.0387C16.204 46.9786 15.6188 46.4986 15.4988 46.4385C15.3338 46.3785 14.7487 46.2285 14.6286 46.1685C14.5236 46.1085 14.4186 46.0635 14.2986 46.0035L14.4036 45.8384V45.8834ZM17.3742 33.7911C18.6644 32.2758 20.6148 30.0104 21.2149 29.3053C21.695 28.6601 22.6702 27.79 23.1653 27.0848C23.4953 26.6047 24.7856 24.4443 25.1156 24.0542C25.5957 23.5141 29.3315 18.1131 29.3315 17.678C29.3315 16.9279 26.841 14.2274 26.4209 13.6872C25.9408 13.5822 25.3407 13.2072 24.6356 12.7121C24.2755 12.1019 23.9704 11.6719 23.7204 11.4218C23.6604 11.2118 23.7204 11.1518 23.8254 10.9417C24.3655 10.7767 24.9056 10.6717 25.6107 10.6717C26.961 10.6717 28.5213 12.0219 29.1214 12.7721C29.5565 13.3722 30.0366 14.0623 31.0718 14.8725L31.2818 14.8125C32.8421 12.7571 33.1722 12.592 34.0424 10.5516L34.6875 8.99134C34.6875 8.99134 35.8727 6.39584 35.8727 6.35084C34.7325 6.45586 31.4919 7.64108 30.9518 7.97115C30.8918 8.03116 27.9212 9.32141 27.6511 9.32141C27.3811 9.32141 27.2761 9.2614 26.0908 8.72129C25.8208 8.66128 24.6806 8.51125 24.4705 8.39123C22.2051 7.206 21.98 7.04097 21.77 6.44085L22.1001 6.27582C22.3101 6.27582 23.3903 6.38084 23.5554 6.38084C25.3407 6.38084 30.3667 5.24062 31.6569 4.82054C32.362 4.55049 35.8127 3.84535 36.3528 3.41027C36.4128 3.0352 36.4578 2.93018 36.7279 2.76515C36.8329 2.4951 36.9379 2.33006 37.0579 2.16503C37.493 2.06001 37.7031 2 37.9281 2C38.8433 2 43.7642 4.5955 43.7642 5.72072C43.7642 6.63589 42.8491 6.80092 42.249 6.90594C42.0389 6.96595 40.4186 7.98615 40.0885 8.19619L39.4884 8.63127C39.2184 8.84132 38.4082 10.2516 38.1982 10.4616C38.0931 10.6267 37.388 11.3768 37.223 11.5418C36.0828 12.9971 34.9576 14.8875 33.9224 16.6128C33.7573 16.8228 33.5473 17.2579 33.5473 17.633C33.5473 18.0081 33.7123 18.1731 34.8975 19.3133C35.9777 20.3335 36.0828 20.4986 36.5178 21.0987C36.6829 21.2637 37.268 21.6988 37.388 21.9688C38.0331 22.5089 41.1687 24.6694 41.7689 25.1495C42.369 25.5845 46.5698 28.4951 47.5 28.9302C48.7452 29.5303 50.4105 30.3855 51.2807 31.3606C51.2807 31.5257 51.4457 32.0658 51.0106 32.0658C50.5305 32.0658 48.2051 31.8557 47.77 31.8557C47.605 31.8557 46.8998 31.9608 46.7498 31.9608C45.4596 31.9608 41.9939 31.7957 40.9137 31.0456C39.7735 30.2354 36.1578 26.0796 35.3476 25.0444C34.7025 24.2343 31.942 20.7836 31.5669 20.7836C31.1918 20.7836 29.6165 23.7542 29.1364 24.1293C28.2213 24.9394 27.3061 26.3947 26.6459 27.5349C26.4359 27.91 26.3159 27.97 25.5057 28.5551C25.2357 28.7651 24.2605 30.0704 24.0505 30.2804C23.6154 30.6105 21.95 32.2758 21.515 32.5459C21.1849 32.7559 20.9749 32.8759 20.6448 33.026C19.5646 33.8961 19.0245 34.3762 17.8843 34.3762C17.3442 34.3762 17.0741 34.2112 17.2391 33.7761L17.4042 33.7161L17.3742 33.7911Z" fill="white"/>
<path d="M5.23682 72.1385C7.06718 72.1385 7.45727 73.2788 7.83234 74.2389L8.04238 74.509C9.22761 74.569 10.5779 74.1339 11.283 73.9089C11.9881 73.8039 14.5836 73.4288 15.7689 73.2638C16.684 73.0987 20.7948 72.1835 21.65 72.0785C22.1301 71.9735 24.5605 71.8685 24.8906 71.6434C28.4613 69.108 33.4723 64.187 33.8023 63.3769C33.5323 63.0018 33.4723 63.0018 32.7221 62.6267C32.242 62.4167 31.6419 61.9816 31.5819 61.4865C32.5571 61.4865 34.1174 61.4865 35.1976 61.0514C35.6777 61.2164 37.6281 62.5667 37.7931 62.6717C38.7083 63.2718 39.2484 63.5869 39.2484 64.5621C39.2484 65.3722 39.0833 65.4323 37.523 65.8523C37.0429 66.0174 35.1526 67.3076 34.7175 67.4726C34.0124 67.8027 31.2068 69.6931 30.6067 70.0081C30.3367 70.1732 29.2565 70.6533 29.0464 70.7583C28.9414 70.8633 28.7164 70.9683 28.6713 71.0283L32.8871 70.9233H36.5629C37.163 70.9233 39.8035 71.0883 40.3436 71.0883C40.5536 71.0883 41.1537 70.9233 41.3638 70.8783L41.5288 70.4432C41.5288 70.4432 41.8589 70.2332 42.0089 70.2332C44.2743 70.2332 45.2495 70.5032 47.1399 72.1835C47.515 72.5136 49.0903 74.2389 49.1953 74.554C49.3003 74.764 49.9004 76.6544 49.9004 77.3595C49.9004 78.1097 48.8202 79.3099 48.1751 79.3099C47.74 79.3099 45.9096 78.5598 45.5346 78.5598C45.2645 78.5598 43.3742 78.8898 42.399 79.97C41.9189 79.865 41.7538 79.91 40.5686 80.4051C40.1935 80.5702 38.8433 80.8402 38.3032 80.7802V80.5101C40.5686 78.9498 42.9991 74.569 42.9991 74.2389C42.9991 73.4288 34.9575 73.1587 34.3124 73.1587C34.1024 73.1587 30.6367 73.2638 30.4267 73.2638C30.1566 73.3238 28.8064 73.5938 28.5363 73.5938C28.1613 73.5938 26.3159 73.9239 25.9408 73.9239C24.0504 73.9239 19.7896 74.794 19.2495 74.9441C18.8745 75.0491 16.9241 75.1541 16.609 75.3191C16.444 75.3792 16.279 75.4242 16.1739 75.4842C15.5288 75.4842 15.3638 75.5442 14.9887 76.0243C14.8237 76.0843 14.0735 76.1293 13.9685 76.1893C13.8035 76.2493 12.5132 76.6694 12.4082 76.6694C11.7631 76.6694 8.68749 75.8593 8.35743 75.8593C7.81732 76.7744 7.81733 77.9146 7.75732 79.2649C7.75732 79.3699 6.51208 82.3405 6.34704 82.9406C5.74693 85.4311 5.32686 87.3215 3.75155 87.3215C2.73136 87.3215 2.23627 86.2412 2.07124 86.0312C2.01123 85.8212 1.09604 82.9556 1.09604 82.7906C1.09604 81.1703 2.17625 80.3001 2.88138 79.715C3.58652 79.1149 5.79195 75.5592 5.79195 73.6088C5.79195 72.9037 5.5819 72.6936 5.25184 72.4236V72.1535L5.23682 72.1385ZM10.5178 63.932C10.5178 63.932 13.8185 64.4721 15.1687 66.0324C16.249 67.2776 17.2691 71.1033 17.2691 71.5984C17.2691 72.4086 16.294 72.6186 15.9189 72.6186C14.0285 72.6186 12.4082 68.7329 12.4082 68.5678C12.2432 68.2978 11.8081 66.8875 11.6581 66.6775C11.328 66.1974 8.79252 64.6221 8.79252 64.4571C8.79252 64.3971 8.85253 64.3971 9.00256 64.127C9.2126 64.187 10.2928 63.917 10.5178 63.917V63.932ZM9.28762 96.8633L9.45265 96.6533H11.403C11.613 96.6533 12.3782 96.4432 12.5432 96.4432C14.5986 96.4432 14.8087 96.4432 15.1837 96.0681C16.8641 95.198 17.9893 94.1778 19.9397 90.9972C19.9997 90.6671 19.9997 90.4571 19.4596 90.022C18.9195 90.127 18.8595 90.127 17.8393 90.5621C16.384 89.962 15.3488 89.5869 14.5986 84.726C14.3886 83.4357 14.3286 83.3157 13.0383 82.4605C12.8733 82.2955 12.6633 81.9204 12.4982 81.7104C11.7481 81.2753 11.418 80.8402 11.208 80.2551L11.373 80.1501C11.7031 80.0901 12.2882 80.0901 12.6183 80.2551C12.8283 80.3601 13.9085 80.9002 14.1786 80.9002C14.3436 80.9002 19.1445 79.985 20.0597 79.88C20.8698 79.82 24.3805 79.1749 25.1307 79.1299C28.0412 78.7998 28.9114 78.7548 29.7815 78.4848C29.9466 78.4247 30.1116 78.2147 30.2166 78.0497C30.3817 78.0497 30.6967 77.8396 30.9218 77.6746H30.9818C31.4619 77.6746 33.3522 78.8598 33.7423 79.0249C36.3828 80.1651 36.9229 80.3751 36.9229 82.1004C36.9229 82.7456 36.7129 82.8506 36.4878 82.9706C36.0527 83.1357 35.2426 83.4057 34.8675 83.7208L34.4324 84.5309C33.9524 85.4461 33.8923 85.5511 33.8923 85.6711C33.8923 85.8812 34.1624 86.8564 34.1624 87.0814C34.1624 87.6815 33.9524 88.1016 33.1422 88.7017C32.8121 88.7617 31.5219 88.7617 31.3118 88.7617C30.9818 88.7617 29.6315 89.0318 29.3615 89.0318C29.3015 89.0318 28.9864 88.9268 28.9264 88.9268C28.4913 88.9268 25.4757 89.2568 24.8156 89.3018C24.2155 89.3618 23.7354 89.5719 23.3003 89.7819L23.2403 89.992C24.4255 90.6971 24.4255 91.5073 24.4255 91.6123C24.4255 91.8823 21.83 93.7127 21.455 94.2078C20.9149 94.9129 19.9397 95.348 18.4844 95.9931L18.4244 96.2032C19.5046 96.0381 21.2299 95.6631 22.3101 95.498C24.1405 95.228 28.0412 94.9579 29.8716 94.8979C29.9316 94.8979 31.0568 94.8379 31.3869 94.6279L31.5969 94.1478C33.3822 94.3128 33.5923 94.3128 33.8173 94.4778C34.9575 94.9129 38.3032 97.2384 38.3032 98.6336C38.3032 99.1137 38.1382 99.2788 36.8479 100.419C36.7429 100.524 35.0626 104.305 35.0626 104.845C35.0626 105.175 35.4977 106.465 35.4977 106.735C35.4977 107.485 34.7925 108.566 32.7971 108.566C32.7371 108.566 28.8064 108.13 28.0412 108.13C26.5259 108.13 23.7804 108.461 22.2651 108.671C21.62 108.731 19.2945 109.001 18.9195 109.001C18.5444 109.001 18.3193 108.941 17.8993 108.791C17.2991 109.496 17.1941 109.601 16.9241 109.601C15.6788 109.601 13.8935 107.5 13.8935 105.88C13.8935 103.119 13.0233 98.5286 12.0631 98.1535C11.7931 98.0485 11.9581 98.0935 11.043 97.6734C10.9379 97.6134 9.63267 97.3434 9.36262 97.2984L9.25761 97.0283L9.31761 96.9233L9.28762 96.8633ZM20.7798 105.835C21.3199 105.73 28.7164 105.235 30.1266 105.235C31.2068 102.744 31.8519 97.8385 31.8519 97.7335C31.8519 97.5684 31.7919 97.5234 31.7919 97.3584C31.3119 97.1934 30.6517 97.1483 30.2316 97.1483C27.156 97.1483 21.0499 98.3336 18.9945 98.7086C18.1243 98.8737 17.9143 98.8737 17.0441 98.7687C16.9391 98.9787 17.0441 99.3088 17.1491 99.5788C17.4192 100.284 18.1693 105.145 18.5594 106.165C19.0995 106.225 19.2645 106.165 20.7798 105.835ZM22.3551 81.7404C21.485 81.8454 20.1347 82.0704 19.8646 82.1755C18.3493 82.6556 18.1843 82.7156 17.4942 82.8806L17.4342 82.9856C17.8092 83.7958 18.7244 85.6861 18.5744 87.2014C18.7394 87.7415 18.9045 87.8466 19.1745 87.8466C19.3395 87.8466 23.9304 86.7663 24.1405 86.7663C24.4105 86.7663 25.5507 86.6013 25.8208 86.6013C26.1508 86.5413 27.7712 86.1212 28.1462 86.1212C29.2865 86.1212 29.4365 86.1212 29.5565 85.7912C30.2016 84.2759 30.7417 81.3653 30.6967 80.8252C30.0516 80.6602 29.9916 80.6152 29.8266 80.6152C29.4515 80.6152 28.9114 80.6752 28.6863 80.6752C28.4163 80.6752 27.171 81.0052 26.901 81.0502L22.3701 81.7554L22.3551 81.7404ZM19.1145 60.9614C19.9246 61.2314 20.0897 61.2314 21.4399 61.2915C23.1203 61.3515 24.6206 63.1218 25.2207 63.6619C25.3857 63.932 25.7608 65.2822 25.7608 65.5523C25.7608 65.7173 25.7008 66.3624 25.7008 66.4675C25.7008 66.8425 25.7608 68.4628 25.8058 68.7929C25.7458 68.8979 25.6408 69.273 25.6408 69.543C25.6408 70.0831 25.5357 70.1432 24.5005 70.5632C23.2553 70.2332 22.5502 70.0831 21.74 66.3474C21.68 65.9724 20.8248 63.4819 20.5548 63.2118C19.2045 61.9216 19.0395 61.7565 18.9345 61.1114L19.0995 60.9464L19.1145 60.9614Z" fill="white"/>
<path d="M22.6694 137.536L20.1789 142.127C18.7686 144.767 17.3733 147.423 15.3179 149.628C15.1079 149.898 14.1327 151.144 13.9077 151.354C13.5776 151.684 12.2874 153.184 11.9573 153.409C11.4172 153.739 9.73688 154.324 9.42182 154.324C8.88171 154.324 8.44662 153.574 8.23658 153.304C8.13156 153.034 7.32141 150.003 7.09636 149.418L4.87594 143.957C4.77092 143.582 4.00577 141.152 4.00577 140.882C4.00577 140.507 4.1108 137.701 5.62609 135.586C8.92672 130.89 10.427 128.774 15.2429 126.029C18.4236 124.198 23.3445 122.788 23.5095 122.788L27.6653 122.143C28.9556 121.933 32.8563 122.518 35.4368 123.763C39.2175 125.594 39.2776 125.654 42.4582 129.809C43.2683 130.83 45.4287 135.541 45.4287 138.661C45.4287 142.112 45.4887 142.982 44.5136 146.493C44.0335 148.278 41.2729 152.374 37.8673 154.489C35.7069 155.84 32.5263 157.79 31.326 157.895C30.996 157.895 29.7057 158.105 29.3757 158.105C29.2106 158.105 29.0456 158.105 28.7305 157.775C28.7305 157.025 28.9406 156.905 30.6209 155.885C30.7859 155.779 34.6117 152.539 37.1021 148.863C38.5124 146.763 41.0479 141.572 41.0479 138.226C41.0479 136.126 41.0479 133.47 37.8673 128.939C36.457 126.989 34.3566 125.639 32.0312 124.994C31.8661 124.934 29.0006 124.664 28.4155 124.664C28.0404 124.664 25.3399 124.994 24.6947 125.039C23.8846 125.099 23.6746 125.309 23.3445 125.579C23.4045 125.909 23.4045 126.059 23.6746 126.224C26.4351 128.444 27.0202 128.924 27.0202 129.945C27.0202 130.425 25.2949 132.375 25.1898 132.645L22.6543 137.506L22.6694 137.536ZM11.7623 146.658C13.0075 146.658 16.3532 140.342 16.9533 138.886C17.3283 137.971 19.3237 133.86 19.5938 133.005C19.9238 131.985 20.674 129.554 20.674 128.624C20.674 127.754 19.3837 127.379 19.1587 127.379C17.5984 127.379 11.5972 131.43 9.22677 134.46C8.41662 135.481 6.42123 138.571 6.69128 140.131C7.2914 143.207 10.9071 146.658 11.7623 146.658Z" fill="white"/>
<path d="M1.93548 207.96C2.37057 208.23 2.95569 208.665 2.95569 209.58C2.95569 210.6 2.95569 210.825 3.28576 211.14C3.4958 211.305 5.1761 211.845 5.77622 211.845C6.25631 211.845 8.53675 211.575 9.01685 211.575C9.88701 211.575 10.8472 211.515 11.3873 211.515C11.8674 211.515 13.9228 211.41 14.2529 211.41C15.168 211.41 19.4439 211.62 20.299 211.62H21.0042L27.9205 212.595C28.2956 212.655 29.9759 213.075 30.2909 213.075C31.1611 213.241 32.2863 213.286 33.0515 213.286H35.4819C35.857 213.286 37.4323 213.391 37.5824 213.391C38.1225 213.391 40.4929 213.181 40.988 213.181C42.2782 213.121 42.4433 213.121 43.5235 213.015L48.2794 212.535C48.7145 212.475 49.7947 212.265 50.5448 212.1C50.6499 212.04 51.145 211.935 51.25 211.935C51.625 211.935 51.8951 212.415 52.0001 212.685C51.7301 213.436 51.625 213.496 50.7099 213.931C50.3348 214.141 48.4894 215.281 48.1144 215.386C47.7393 215.491 46.059 215.866 45.7889 216.031C45.0838 216.301 43.5235 216.841 42.6533 217.051C41.7831 217.261 41.6781 217.321 40.928 217.756C40.7179 217.921 39.4727 218.402 39.2477 218.567C38.0024 218.507 35.0919 218.086 33.9517 217.756C33.2465 217.591 30.2309 216.616 29.6308 216.466L24.7699 215.326C24.3348 215.221 22.3394 214.621 21.9043 214.576C19.9089 214.306 18.4537 214.141 18.2886 214.141C17.9586 214.141 16.4583 213.976 16.2933 213.976C16.0232 213.976 15.003 214.081 14.7329 214.081C14.5229 214.081 13.5927 213.916 13.4427 213.916C12.7376 213.916 7.66659 214.621 6.58639 214.621C4.63601 214.621 0.00012207 213.106 0.00012207 210.735C0.00012207 210.255 0.330186 209.385 0.750266 209.055C1.50041 208.455 1.62042 208.35 1.77045 207.914H1.93548V207.96ZM30.456 179.559C30.456 179.454 30.516 179.019 30.516 178.914C30.516 178.644 30.2459 176.814 30.1859 176.423V174.593C30.1859 174.113 30.0809 172.103 29.5408 171.893C28.4006 171.352 26.5702 170.437 26.5702 169.087C26.5702 168.877 26.7352 168.547 26.7803 168.442C27.3204 168.442 30.1259 168.547 30.396 168.547C30.666 168.712 32.1213 169.297 32.3913 169.522C32.5564 169.582 33.2615 170.167 33.4115 170.272C35.3619 171.247 35.5719 171.352 35.5719 171.953C35.5719 172.058 35.572 172.223 35.4669 172.433C35.4069 172.598 34.7618 173.303 34.5968 173.513C34.4917 173.723 34.2667 174.968 34.2217 175.193C33.8916 176.168 33.5766 177.144 33.5766 178.434C33.5766 178.914 33.7416 181.299 33.7416 181.779C33.6816 183.07 33.6366 187.826 33.6816 188.531C33.8466 188.591 34.0567 188.591 34.2217 188.591C34.3267 188.591 38.4825 188.111 38.8126 187.841C39.8928 186.97 40.1628 186.97 42.5933 187.03C44.9188 187.781 45.1888 187.901 45.1888 188.756C45.1888 190.316 42.2182 190.316 40.973 190.316C40.6429 190.316 37.2523 190.796 36.8172 190.856C34.4467 191.231 34.1767 191.231 34.1767 191.396C34.1767 191.456 34.9868 192.372 35.1519 192.537L38.7226 196.482L42.3383 199.348L46.5541 202.048C46.7641 202.213 48.0093 202.798 48.2794 202.964C48.8195 203.234 49.6297 203.774 49.6297 204.209C49.6297 204.314 49.5696 204.539 49.5246 204.644C49.0445 204.809 48.3394 205.079 47.3642 204.974L42.2332 204.494C40.2378 204.284 40.1778 204.164 38.5575 201.958C38.4525 201.793 37.6874 201.208 37.5824 200.983L35.692 197.307C35.632 197.202 35.2569 196.767 35.2119 196.662C34.8818 196.017 33.8616 193.857 33.5316 193.857C33.2015 193.857 33.0965 198.118 33.0965 198.718C33.0965 199.798 33.1565 204.989 33.1565 206.174C33.1565 206.279 33.0965 206.444 33.0965 206.714C33.0365 207.254 32.9914 207.464 32.9914 209.58C32.9914 209.85 32.7814 211.365 31.9713 211.365C30.516 211.365 29.0007 207.524 29.0007 206.774C29.0007 206.564 29.7508 205.589 29.8709 205.319C30.2009 204.509 30.2009 204.179 30.2009 201.373C30.2009 201.163 30.3659 199.273 30.3659 198.883C30.426 198.448 30.426 196.452 30.426 195.972C30.1559 196.242 28.9707 197.698 28.9107 197.758C28.1605 198.298 28.0405 198.358 27.8305 198.628C26.9153 199.918 25.1299 201.763 24.1548 202.678C23.8847 202.889 22.3244 203.819 22.0544 204.029C21.2442 204.899 21.1392 205.004 20.4941 205.439C20.329 205.439 18.7087 205.919 18.6637 205.979C18.4987 206.039 18.0636 206.789 17.9586 206.894C17.7935 206.999 17.2534 207.269 16.9834 207.434C16.7733 207.539 15.5281 207.704 15.3031 207.809C14.4329 208.35 13.8928 208.725 12.8726 208.785C12.4975 208.845 10.7722 209.385 10.3821 209.43L10.3221 209.1C10.8022 208.665 12.5425 207.209 12.5425 204.719C12.5425 204.509 12.3775 203.429 11.1323 202.724C10.8622 202.663 8.43174 200.668 8.43174 198.568C8.43174 198.358 8.49176 196.512 8.53677 196.242C8.59678 195.762 8.97184 193.332 9.01685 192.732C8.68678 192.837 7.1865 193.542 6.79643 193.647C6.19631 193.752 6.15129 193.752 5.23611 194.022C4.86104 193.917 2.32557 191.966 2.32557 190.301C2.32557 189.971 2.38557 189.866 2.76065 189.656C3.63081 190.136 4.75602 190.526 4.86104 190.526C5.02607 190.526 6.1513 190.361 6.42135 190.316C6.63139 190.256 7.39653 189.776 7.56157 189.671C9.07686 189.131 9.2419 189.026 10.7422 188.321C11.1173 187.946 11.4923 187.511 11.4923 187.075C11.4923 186.97 11.4923 186.805 11.2223 186.43C11.2623 186.18 11.2823 185.855 11.2823 185.455C11.2823 184.81 11.6574 184.75 12.3025 184.75C13.7578 184.75 16.4133 185.56 16.5633 187.391C15.9182 188.306 15.5881 188.846 15.4831 189.011C15.003 189.926 14.4629 191.006 14.0728 191.501C13.9678 191.606 13.7428 192.417 13.6978 192.522C12.5125 195.117 12.3475 195.432 12.3475 197.007C12.3475 199.108 12.4075 199.498 13.6377 200.578C13.7428 200.683 16.6683 202.033 17.2084 202.408L18.2286 203.279L18.4987 204.194H18.8287C19.8039 203.549 24.8299 197.878 25.6851 196.632C25.8951 196.257 26.6603 194.412 26.8703 193.992C27.2004 193.287 27.2454 193.242 27.1403 192.702C25.8501 192.912 25.7301 192.972 24.8749 193.512C24.6649 193.452 23.6297 193.407 23.4196 193.347C22.0094 192.972 21.2592 192.537 20.5541 191.996C19.9089 191.786 19.8039 191.726 19.0388 191.126V190.916C22.4444 190.916 29.0307 189.506 30.546 189.086L30.606 188.216L30.441 179.634L30.456 179.559ZM6.15129 171.187C6.2113 170.857 6.31634 170.812 6.58639 170.812C6.96146 171.142 8.53676 172.763 8.80681 172.913C9.94703 173.558 10.0971 173.558 12.8576 173.783C13.0676 173.843 16.5333 174.593 17.3435 175.403L17.6735 176.378C17.4635 176.919 16.6533 177.834 16.1132 177.939C15.8432 177.939 14.6579 178.209 14.5979 178.209C13.0826 178.209 10.2771 177.834 9.13687 176.799C7.84662 176.318 6.81143 175.388 6.33134 174.203C6.27133 173.993 5.79124 171.563 5.79124 171.397L6.16631 171.187H6.15129ZM24.6649 179.664C26.2252 180.204 27.0953 182.965 27.0953 183.235C27.0953 183.34 26.9903 183.88 26.9903 183.985C26.9903 184.09 27.4254 185.98 27.4254 186.085C27.4254 186.415 27.0953 186.835 26.6152 186.835C24.9949 186.835 24.3498 185.545 23.9747 184.675C22.7295 182.035 22.4144 181.329 21.6043 180.789C19.8789 179.649 19.7139 179.499 19.8789 178.899C19.984 178.899 24.4098 179.544 24.6799 179.649L24.6649 179.664ZM34.2217 185.665C35.1969 184.855 39.7878 179.664 39.7878 177.939C39.7878 177.189 38.6475 176.588 37.5223 175.988C37.1923 175.778 36.9222 175.388 36.9222 175.073C36.9222 174.863 37.0272 174.593 37.3573 174.593C37.5673 174.593 37.7324 174.653 38.1074 174.923C40.2078 174.863 40.4329 174.863 41.8282 175.568C41.9932 175.673 42.7433 175.898 42.9084 176.003C42.9684 176.003 44.7987 177.414 44.8587 177.789C44.9187 178.119 44.9187 178.329 44.8587 179.034C44.3786 179.409 41.7831 180.924 41.5581 181.254C40.958 182.065 40.7479 182.17 39.1876 183.145C38.0474 183.85 35.617 185.515 34.7618 186.055C34.5968 186.115 34.3267 186.115 34.2217 186.16L34.1617 186.055L34.2217 185.68V185.665Z" fill="white"/>
<path d="M18.6792 243.021C18.7842 243.186 18.8892 243.396 18.8892 243.561C18.8892 243.666 17.1639 246.637 16.8938 247.282C16.1437 249.172 15.7536 250.148 15.7536 251.003C15.7536 251.333 16.2337 253.493 16.2337 253.973C16.2337 254.784 15.6936 255.699 14.9885 255.699C14.0733 255.699 12.288 254.829 11.7479 254.453C9.37741 252.668 9.21237 252.353 7.21699 249.052C5.76171 246.622 4.24642 241.971 3.91636 239.016C3.85634 238.475 3.85633 238.145 3.85633 237.935C3.85633 237.455 4.02136 235.295 4.02136 234.86L3.91636 233.134C3.91636 233.029 4.12639 232.534 4.1864 232.429C5.59667 231.994 6.24181 234.425 7.32202 239.076C7.7571 240.801 10.8927 247.717 13.0981 247.717C13.5782 247.717 15.2585 246.037 15.6936 245.557C17.1489 243.936 17.3139 243.726 18.2891 243.126L18.6642 243.021H18.6792ZM45.7894 238.16C45.9995 238.43 46.9296 239.346 47.0797 239.571C47.5598 240.486 47.6197 242.211 47.6197 243.081C47.6197 246.802 46.3295 249.457 45.3543 249.457C44.9192 249.457 44.7542 249.352 43.734 247.837C43.2539 247.132 41.7836 246.277 40.5534 246.052C39.2631 245.782 39.0981 245.722 39.0981 245.302C39.0981 244.927 39.2631 244.867 40.7784 244.116C41.5886 243.741 41.7536 243.636 41.7536 243.036C41.7536 240.666 40.5084 238.655 38.8881 236.765C38.513 236.33 37.7028 235.31 37.4778 235.04C36.5626 234.17 36.0225 233.629 36.0225 233.149C36.0225 232.504 36.7727 232.234 37.0427 232.234C38.558 232.234 43.689 235.745 45.7894 238.175V238.16Z" fill="white"/>
<path d="M12.6327 296.657C13.0677 296.927 13.2778 297.137 13.9829 297.902C14.193 298.112 16.5784 299.957 16.8935 300.062C17.2685 300.167 17.6436 300.227 18.4088 300.392C22.0845 298.877 25.1001 288.03 25.1001 285.059C25.1001 283.814 25.1001 281.759 23.5848 280.904C23.5248 280.904 22.1295 280.093 20.6742 280.093C18.1387 280.093 17.6436 281.009 16.9985 282.359L15.0481 286.575C14.448 287.82 11.5375 292.996 11.1624 294.196C10.2472 296.957 8.56688 300.677 7.92176 301.427C7.17161 302.403 6.36146 302.508 6.0914 302.508C5.44628 302.508 4.80115 301.803 4.80115 300.017C4.80115 299.642 5.28125 296.672 6.0914 295.261C6.36146 294.721 7.65169 292.081 7.81673 291.916C8.89693 290.73 12.5126 284.249 12.6777 282.959C12.2426 283.019 11.7625 283.124 11.1624 283.394C9.70711 284.144 9.54206 284.264 9.06197 284.264C8.08678 284.264 5.49128 283.349 4.68113 282.914C4.41108 282.809 3.87098 282.104 3.87098 281.399C3.87098 280.859 4.35108 280.318 4.78616 280.318C5.32626 280.318 7.75671 280.423 8.2368 280.423C8.67189 280.423 9.48205 280.423 10.5623 280.093C11.3124 279.883 11.5825 279.823 11.9725 279.718C14.673 278.803 14.9431 278.698 15.3782 277.723C16.0233 276.208 17.0585 273.837 17.7486 272.322C17.7486 272.217 19.0989 268.751 19.3089 267.251C19.639 264.61 19.639 264.34 20.2841 264.34C22.0095 264.34 23.0447 268.121 23.0447 269.141C23.0447 271.197 21.2143 274.272 20.0141 276.268C19.744 276.703 19.744 276.808 19.744 277.288C20.2841 277.228 22.5046 276.688 22.9246 276.688C23.0897 276.688 25.4151 277.018 26.3753 278.098C29.0158 281.129 29.0158 282.584 29.0158 284.369C29.0158 285.929 28.9558 286.2 28.4157 288.855C28.2507 289.605 27.0054 293.446 26.8554 294.196C26.5853 295.216 25.2351 300.197 25.1751 300.407C21.7694 307.699 17.8837 307.804 17.7786 307.804C16.6984 307.804 16.4884 307.099 15.6182 304.563C15.4082 304.023 13.5628 300.617 13.3528 300.302C12.9177 299.657 12.1676 298.622 12.1676 297.557C12.1676 297.347 12.3326 297.017 12.3776 296.807L12.5877 296.702L12.6327 296.657ZM34.7169 274.407C35.4671 274.407 35.6321 274.512 37.3124 275.277C37.5824 275.382 38.8727 275.758 39.0977 275.923C45.1439 279.598 46.1791 280.303 47.5744 282.614C48.8196 284.669 48.8196 286.335 48.8196 288.66C48.8196 289.68 48.0695 291.361 47.0343 291.361C46.6592 291.361 45.624 290.01 45.3539 289.845C44.9789 289.635 43.1935 289.245 42.8635 289.095C42.2633 288.885 41.9483 288.72 41.9483 288.18C41.9483 287.91 42.1133 287.745 42.2183 287.64C43.3586 286.995 43.5086 286.935 43.5086 286.665C43.5086 285.689 41.6782 283.694 40.373 282.239C38.3776 280.018 37.7775 279.433 36.5322 278.293C36.2022 278.023 34.7019 276.463 34.3118 276.298C33.8767 276.028 33.5017 275.818 33.3966 275.217C33.2916 274.467 34.5369 274.407 34.6869 274.407H34.7169ZM37.5224 265.706C38.3326 265.706 42.9235 267.701 43.4636 268.076C45.1889 269.426 45.684 270.942 45.684 272.607C45.684 272.937 45.1439 273.312 44.8739 273.312C44.2287 273.312 43.5836 273.042 43.4636 272.937C43.1335 272.772 36.1722 266.621 36.1722 266.186C36.1722 265.976 36.2772 265.811 36.6073 265.751C36.9373 265.751 37.2074 265.691 37.5224 265.691V265.706ZM47.1843 267.281C46.9743 267.116 45.774 266.261 45.624 266.141C43.6736 264.73 42.0533 262.96 42.0533 262.735C42.0533 262.465 42.4284 262.195 42.7585 262.195C44.0037 262.195 46.9743 263.005 49.4497 264.52C50.2599 265 51.2351 267.656 51.2351 268.361C51.2351 268.961 51.025 269.171 50.59 269.501C48.9096 269.171 48.1595 268.361 47.1843 267.281Z" fill="white"/>
<path d="M15.0635 338.89C15.0635 339.865 13.6533 341.11 9.76752 341.11C8.31224 341.11 6.25684 341.11 4.84657 340.3C3.39129 339.49 2.79119 339.115 2.79119 338.515C2.79119 338.14 3.16626 338.08 3.49632 338.08C3.82639 338.08 5.17665 338.185 5.4467 338.185C6.4669 338.185 8.68732 337.75 9.82754 337.434C10.0976 337.374 10.1576 337.329 10.8027 336.789C11.9429 336.894 15.0635 337.224 15.0635 338.89ZM6.19685 358.273C7.98219 355.138 10.8477 350.067 12.6781 346.991C12.9481 346.511 14.0883 344.126 14.2384 344.081C14.3434 344.021 14.4484 344.021 14.6134 344.081C14.6134 344.291 13.7433 348.837 13.6383 349.692C13.5783 349.962 13.2032 350.832 13.0982 350.982C13.0381 351.252 12.8281 352.662 12.7231 352.932C12.348 354.118 12.288 354.223 12.243 354.823C12.183 355.198 11.3728 356.443 11.2228 356.713C11.0578 357.148 10.0826 359.624 9.81252 360.164C9.75251 360.269 9.37745 360.974 9.33244 361.079C9.27243 361.184 9.27242 361.514 9.27242 361.889C9.27242 363.885 9.27243 366.585 7.71213 366.585C7.11201 366.585 6.90198 366.315 5.28167 363.885C5.07163 363.615 3.8714 362.534 3.66136 362.264C3.72137 361.724 3.76636 361.559 3.76636 361.349C3.76636 361.139 3.66136 360.209 3.66136 360.104C3.66136 359.939 3.82639 359.399 3.82639 359.234C3.82639 358.964 3.34629 357.943 3.34629 357.718C3.34629 357.493 3.61635 357.388 3.78138 357.388C4.26147 357.388 4.69655 357.658 5.88178 358.363L6.21184 358.258L6.19685 358.273ZM5.07163 322.312C5.07163 322.312 9.0624 323.122 9.82754 323.122C10.0976 323.122 11.5079 322.912 11.5529 322.912C12.033 322.912 14.5834 324.052 15.6036 325.072C15.7087 325.237 16.3538 326.632 16.3538 326.902C16.3538 327.503 15.8737 328.418 15.0635 328.418C14.3134 328.418 10.9527 327.007 10.3076 326.857C7.17202 325.942 5.11664 324.157 4.74157 322.912C4.63655 322.642 4.74157 322.312 5.07163 322.312ZM20.6146 325.822C21.3197 325.822 24.0203 326.737 24.8754 328.043C24.9805 328.253 25.5205 331.388 25.5205 331.823C25.5205 332.198 25.5806 333.879 25.5806 334.254C25.5806 334.524 25.5806 335.229 24.9804 335.229C23.8402 335.229 23.6302 334.689 21.7998 330.743C21.4698 330.038 20.6146 328.418 20.2395 328.148C18.8293 327.128 18.6792 327.007 18.4092 326.587C18.5142 325.987 20.1345 325.837 20.6296 325.837L20.6146 325.822ZM20.3446 356.113L20.9447 349.257C21.2147 346.286 21.4848 343.316 21.4848 340.285C21.4848 339.58 21.1547 338.875 21.0497 338.77C19.8645 337.314 19.7594 337.149 19.5944 336.609L19.7594 336.444C20.0895 336.444 21.7548 336.819 21.8148 336.819C21.9799 336.819 26.6157 335.259 27.5309 335.034C29.5863 334.599 29.7964 334.554 30.2915 334.389C30.1865 334.059 30.1264 334.014 29.8564 333.414C29.6463 333.039 29.6463 332.228 29.6463 331.793C29.6463 327.848 29.2713 322.717 29.2113 322.402C29.0462 321.531 28.9412 321.216 28.6111 320.991C26.8258 319.911 26.6158 319.806 26.5557 319.371C26.7658 319.371 27.5309 319.206 27.696 319.101C28.5661 318.666 28.8362 318.561 29.5863 318.561C29.7514 318.561 34.8824 320.886 34.8824 322.177C34.8824 322.612 33.9072 324.277 33.9072 324.712C33.8021 325.732 33.157 330.218 33.097 331.133C32.992 331.403 32.0768 333.834 32.0768 333.999C33.4271 334.104 39.4282 333.024 40.6134 333.024C41.4836 333.024 41.6937 333.189 43.209 334.434C43.479 334.644 44.8293 335.349 45.0393 335.574C45.6844 336.219 46.1795 336.984 46.0145 337.84C45.6844 338.11 45.3694 338.44 45.2643 339.025C44.9343 340.75 44.6642 346.586 44.6642 349.557C44.6642 349.767 44.7692 350.847 44.7692 351.072C44.7692 351.672 44.6042 354.103 44.6042 354.643C44.6042 355.078 44.6642 357.613 44.7092 358.258C44.7092 358.634 44.9793 361.289 44.9793 361.439C44.9793 362.189 44.0641 364.89 43.734 365.7C43.629 365.865 41.8437 367.92 41.2436 368.34C40.9735 368.175 39.7883 367.8 39.6233 367.635C39.2932 367.305 38.108 365.685 37.7329 365.475C36.9227 364.995 36.8177 364.935 36.2776 364.065C35.7975 363.9 35.6775 363.855 34.9874 363.044C34.8223 362.879 33.9672 362.444 33.8471 362.339C33.7871 362.234 33.7421 362.174 33.6821 362.129C33.7871 361.694 34.5523 361.694 34.9274 361.694C35.9025 361.694 39.6833 361.634 40.8085 361.154C41.0185 360.509 41.0786 360.404 41.0786 358.889C41.0786 358.349 41.0185 355.813 40.9735 355.273L40.9135 348.687L40.4784 341.185C40.4184 340.54 40.5384 337.615 40.4184 337.074C40.3584 336.429 39.1732 335.454 38.363 335.454C38.153 335.454 37.4478 335.619 37.2828 335.619L32.7519 336.429C32.2719 336.534 24.2753 338.485 23.9002 338.8C23.7952 338.86 23.6902 338.905 23.6302 339.01C23.7352 339.385 24.1703 342.791 24.1703 342.956C24.1703 344.201 24.1703 344.306 24.6504 344.306C24.7104 344.306 25.4605 344.201 27.3509 343.766L33.022 342.415C34.1022 342.145 34.2072 342.085 34.8073 341.665C34.9724 341.5 35.1824 341.5 35.2424 341.5C35.9926 341.5 39.1282 341.935 39.1282 343.286C39.1282 343.886 38.6931 343.991 34.8073 345.236C34.4773 345.341 32.2118 345.611 31.7317 345.716C31.2516 345.821 29.0312 346.421 28.5511 346.466C28.2811 346.466 26.3907 346.631 26.1207 346.631C25.9556 346.631 24.6654 346.361 24.3353 346.301C24.0053 346.631 23.9603 348.792 23.9603 349.107V350.187C23.9603 350.292 23.8552 350.787 23.7952 350.892C23.7952 351.267 23.7952 352.677 24.1703 352.572L28.6561 351.867C29.0312 351.762 31.2967 351.432 31.6267 351.387C32.7669 351.282 34.8673 351.057 35.8875 349.932C36.0976 349.932 38.8581 350.412 39.0231 350.412C39.6683 350.577 40.3734 351.117 40.3734 351.762C40.3734 353.112 39.0231 353.113 38.213 353.173L33.5171 353.383C33.247 353.383 28.011 354.298 27.846 354.358C26.6608 354.628 26.5558 354.688 26.2857 354.688C25.9106 354.688 24.2903 354.043 23.9603 354.043C23.6902 354.043 23.5852 354.313 23.5852 354.688C23.5852 356.203 23.5852 360.734 23.9152 364.185C23.4802 364.725 23.4352 364.83 23.1651 365.64C23.1051 365.805 22.1449 366.66 21.7548 366.66C20.9447 366.66 20.5096 366.015 20.4046 365.79C20.1945 365.415 19.4294 363.795 19.2193 363.465C19.2794 363.299 19.2793 362.549 19.2793 362.279C19.2793 362.009 19.7594 361.034 19.8194 360.824L20.3596 356.068L20.3446 356.113ZM38.7681 326.422C38.9331 326.212 39.8483 324.592 39.8483 324.367C39.8483 324.202 39.1432 323.077 38.9781 322.912C38.6481 322.582 38.6031 322.582 38.6031 322.207C39.0381 322.042 39.4732 321.876 39.9533 321.876C42.2188 321.876 45.6844 324.787 45.6844 325.492C45.6844 326.407 44.9793 326.572 43.1489 327.007C42.9839 327.067 42.8789 327.113 41.9037 327.923C41.6936 328.088 40.6134 328.568 40.4484 328.733C38.558 330.683 37.6879 330.953 35.6475 331.643C35.3774 331.748 34.2972 332.394 34.0872 332.454L33.9222 332.243C34.2522 331.808 35.7525 330.143 36.0226 329.753L38.7831 326.407L38.7681 326.422Z" fill="white"/>
<path d="M34.717 422.441C32.6616 422.441 29.586 421.526 27.7556 420.22C25.4902 418.6 24.1399 415.9 23.2248 414.009C22.6246 412.824 21.2744 412.284 20.6893 412.284C20.0441 412.284 19.504 412.449 18.9639 412.554C17.9437 413.529 15.8283 416.605 14.5831 418.495C13.1278 420.716 12.9628 420.926 12.0926 420.926C10.6823 420.926 10.0372 418.975 10.0372 418.06C10.0372 415.419 10.7874 414.924 11.8676 414.279C18.4539 410.228 27.2005 396.186 27.2005 395.061C27.2005 394.851 26.9305 394.625 26.6604 394.625C26.4954 394.625 26.3904 394.685 26.2253 394.79L22.3396 396.846C22.1295 397.011 19.5341 398.526 19.369 398.631C17.9588 399.876 17.8087 400.042 17.2686 400.042C15.8583 400.042 12.0776 398.091 12.0776 396.966C12.0776 396.321 12.3477 396.321 14.6131 396.321C16.1284 396.321 20.1792 394.49 21.7995 393.725C24.605 392.48 24.9351 392.375 26.1803 391.295C26.7804 390.755 27.4706 390.545 27.6956 390.545C28.3407 390.545 29.856 390.545 30.2911 390.92C33.8018 393.785 34.3419 394.22 34.3419 395.451C34.3419 396.096 34.0718 396.471 33.1567 396.966C32.1365 397.506 31.9714 397.671 30.5612 398.916C26.9455 402.862 26.5704 403.297 24.1399 406.373C23.8099 406.808 23.3298 407.288 22.3546 408.263C21.6044 409.073 21.4844 409.283 21.2744 409.883C21.6494 410.153 23.5998 411.024 23.9149 411.339C24.7251 412.044 26.0753 413.979 26.7204 415.119C27.8006 417.07 28.6108 418.42 32.6616 418.42C33.5317 418.42 33.6367 418.42 34.822 417.88C35.152 417.715 35.9022 417.4 36.6073 417.4C37.8526 417.4 38.1676 417.61 41.1382 419.395C41.7833 419.77 42.5935 420.265 42.5935 421.121C42.5935 422.141 40.058 422.411 39.3529 422.411L34.702 422.471L34.717 422.441ZM19.5941 380.478C22.1896 380.478 22.5046 380.478 24.1849 379.998C24.665 379.833 26.7204 378.587 27.0505 378.587C27.4256 378.587 29.856 379.293 30.1861 379.458C30.9962 379.938 32.8866 380.973 32.8866 381.723C32.8866 382.698 30.5162 384.363 25.5952 384.363C24.1849 384.363 23.5998 384.153 22.0245 383.493C21.7545 383.388 20.4642 382.743 20.3442 382.743C19.9691 382.638 18.3488 381.768 17.9737 381.018C18.0788 380.688 18.1388 380.478 19.5941 380.478Z" fill="white"/>
<path d="M17.1034 458.147C17.4335 458.087 20.344 456.632 20.8841 456.317C22.2344 455.447 26.3452 453.782 30.0059 453.782C32.9164 453.782 36.3221 456.647 36.8172 457.022C38.4375 458.433 39.7878 462.363 39.7878 464.479C39.7878 466.264 39.7878 469.82 35.5269 473.285C33.6366 474.846 33.4266 475.071 31.9563 475.611C31.7912 475.671 31.0861 476.046 30.771 476.211C30.2909 476.271 27.4704 476.646 26.7203 476.646C19.2638 476.706 18.4537 474.651 18.4537 471.185C18.4537 470.54 18.8887 469.775 19.4289 469.235C20.344 468.214 20.8391 467.824 22.3394 467.824C22.8195 467.824 26.1802 468.364 27.2604 469.34C27.5904 469.61 29.1507 470.96 29.2557 471.17C29.6908 471.815 29.9009 472.145 30.1709 472.145C30.9211 472.145 37.3573 468.094 37.3573 463.398C37.3573 460.158 35.0319 458.162 33.9517 457.562C32.8114 456.917 31.8963 456.752 29.4658 456.752C26.2852 456.752 21.7393 459.498 17.7485 462.363C16.7283 463.113 12.2875 467.554 11.4323 467.554C9.75199 467.554 9.752 464.959 9.752 464.749C9.752 461.508 9.752 461.133 10.5021 460.698C10.7122 460.593 11.9574 459.888 12.1825 459.723C12.2425 459.723 15.3181 455.297 16.3383 453.617C18.0186 450.856 18.2886 450.586 19.1438 448.921C19.8489 447.63 21.9043 444.33 23.6297 441.569C23.7947 441.299 23.7947 441.194 23.7347 440.819C23.1346 440.609 22.7595 440.924 21.8443 441.464C21.7393 441.524 20.5541 441.944 20.164 441.944C18.5437 441.944 17.7935 441.344 17.2984 440.969C17.0284 440.759 15.7382 439.994 15.5731 439.784C15.3631 439.514 15.2431 439.304 15.2431 439.079C15.2431 438.539 15.7231 438.374 16.1132 438.374C16.2782 438.374 18.1686 438.479 18.4387 438.479C21.1392 438.479 24.3198 436.423 24.9199 435.718C25.7901 434.698 26.1652 434.263 27.2454 434.263C28.7607 434.263 32.2113 438.104 32.2113 439.229C32.2113 439.874 32.0013 440.099 29.7208 441.764C28.8057 442.469 26.5852 445.44 26.0451 446.145C25.34 447.06 21.8893 451.006 21.2892 451.921C21.0192 452.296 19.6689 453.917 19.4589 454.292C19.1888 454.667 18.9788 454.892 17.2984 457.157C17.1334 457.367 17.0284 457.637 16.9234 457.967L17.1034 458.147ZM22.3994 470.195C21.7993 470.195 21.4842 470.735 21.4842 471.335C21.4842 473.225 24.2448 473.825 25.205 473.825C25.6851 473.825 26.1801 473.66 26.6152 473.555C26.7202 472.31 22.8945 470.21 22.3994 470.21V470.195Z" fill="white"/>
<line x1="60.5" y1="2.18557e-08" x2="60.5" y2="477" stroke="white"/>
</svg>
