<svg width="66" height="543" viewBox="0 0 66 543" fill="none" xmlns="http://www.w3.org/2000/svg">
<path d="M2.08886 47.6752C2.08886 47.6752 4.26594 45.8806 5.63398 45.1892C6.22238 44.6008 9.13497 42.3355 9.81163 41.8059C10.606 41.1146 15.0484 36.3044 15.5338 35.0246C15.7398 34.3921 17.2843 31.7443 17.2843 31.1559C17.2843 30.4204 16.6518 29.626 16.387 29.626C16.1222 29.626 15.2691 30.5822 15.0043 30.5822C14.9013 30.5822 14.3129 30.744 14.1511 30.744C13.092 30.744 12.0917 27.6696 12.0917 27.4048C12.0917 27.243 12.3565 24.2863 12.4594 23.8597C12.4006 23.0653 12.4006 22.8594 12.5624 22.168C12.4594 21.6973 12.7683 19.682 12.7683 19.2554C12.7683 18.4023 12.8713 14.6953 12.8713 13.9598C12.8713 11.9446 12.9302 11.6356 12.9302 8.92899C12.8713 8.34059 12.7683 7.07553 12.7683 6.97256C12.7683 6.23706 12.6065 4.85431 12.5036 4.38359C12.4006 3.91287 10.4883 2.89788 10.1794 2.6331L9.97344 2.26535C10.2971 2.05941 10.4 2.05941 10.503 2.05941C10.6648 2.05941 12.7831 2.38303 13.2096 2.53013C14.5924 3.00085 14.6365 3.00085 15.6956 3.00085C15.9604 3.00085 16.0193 3.00085 16.593 2.79491L21.8297 1.52984C24.0509 1.00028 31.7884 0 33.1123 0C33.9067 0.10297 35.2306 0.367751 35.7601 0.529561C36.0838 0.691372 37.9372 2.05941 38.202 2.28006C38.3638 2.486 38.6286 2.86846 38.6286 3.13324C38.6286 3.50099 37.6283 4.9867 37.4665 5.35445C37.4077 5.5604 37.3047 7.00198 37.3047 7.26676C37.3047 7.79632 37.4077 8.7966 37.4077 9.28203C37.4077 9.54682 37.3047 10.503 37.3047 10.7089C37.3047 11.1355 37.1429 12.886 37.1429 13.1949V14.0922L36.8193 19.2849C36.7604 19.9174 36.3927 22.7859 36.3485 23.3154C36.3485 23.5214 35.922 24.5363 35.8778 24.7423C35.7749 25.11 35.5542 26.7576 35.4071 27.0223C34.9805 27.8755 34.4509 28.1403 33.127 28.1403C32.2739 28.1403 31.8031 27.2871 31.5972 26.8752C30.9058 25.4925 30.744 25.1836 29.4201 25.1836C29.2583 25.1836 25.4484 25.3895 24.9188 25.6543C24.7129 25.8161 24.6541 25.9191 24.5511 26.125C24.8747 26.4928 26.6105 27.3901 26.9341 27.6549C27.7285 28.3904 28.5228 29.0817 28.5228 29.5672C28.5228 29.832 28.0962 30.9499 27.9932 31.1559C27.8903 31.5825 27.7285 32.318 27.7285 32.7445C27.7285 34.2303 27.7285 34.4362 27.3607 36.2455C27.2577 36.7163 27.0371 37.9372 27.0371 38.6874C27.0371 38.8933 27.1401 40.0702 27.1401 40.2173C27.1401 41.8648 27.1401 41.9677 28.0374 42.9239C29.2583 43.6153 30.4204 44.0419 31.4207 44.0419C36.5103 44.0419 41.1146 42.9827 42.2767 42.2472C43.3947 41.5117 44.0713 34.5098 44.189 33.4065L44.3508 33.2447C45.0863 35.5247 45.1451 35.7895 45.307 35.9955C45.3658 36.0543 45.9395 38.3197 46.1601 38.7021C46.9545 40.4526 47.1163 40.5556 48.0724 40.9822C48.499 41.1881 48.499 41.3058 48.9256 42.3649C49.0286 42.6297 49.6611 43.7477 49.6611 44.0124C49.6611 44.8068 47.5429 45.9689 45.7483 46.4543C45.5423 46.5131 40.6586 47.1457 40.2908 47.1457C39.9231 47.1457 38.1726 47.3075 37.8048 47.3075C33.6272 47.3075 31.1265 47.3075 28.0079 46.2484C25.1983 45.2922 23.5655 43.1298 23.5655 40.8939C23.5655 39.9966 23.6244 37.187 23.6685 36.6574C23.8303 35.7601 24.3599 31.303 24.3599 30.7293C24.3599 30.4645 24.1539 27.8167 23.9921 27.6107C23.5655 27.14 23.1389 26.5516 22.727 26.5516C21.6679 26.5516 20.0204 27.0223 18.8142 27.7137C18.5494 27.8755 17.2843 28.2433 17.1225 28.4492C17.0637 28.5081 17.0196 28.611 17.0196 28.6552C17.0196 28.9199 17.2255 29.0817 17.9757 29.2877C18.873 29.6113 20.5205 30.5528 21.2119 31.2C21.1089 31.4648 20.5794 32.5239 20.5794 32.7298C20.3734 33.4212 18.1375 37.6577 17.299 38.3932C16.5047 39.1287 12.5918 42.9974 11.9446 43.3652C11.415 43.63 10.9443 44.1007 9.98815 44.895C9.45859 45.3658 9.09084 45.5276 5.58985 46.9544C4.95732 47.2192 2.30951 47.9547 2.20654 47.9547L2.1477 47.7488L2.08886 47.6752ZM16.0781 23.2566C16.0193 23.4625 15.8133 24.3745 15.8133 24.5216C15.8133 24.8453 16.1369 24.9482 16.3429 24.9482C16.8136 24.9482 23.0654 23.2566 23.1242 23.2566C24.3451 23.0506 26.1398 22.727 27.1548 22.6682C27.6843 22.6682 30.0674 22.0798 30.5381 22.0798C30.8029 22.0798 31.9208 22.1827 32.1268 22.1386C32.3327 21.9768 32.3915 21.815 32.3915 21.6679C32.3915 20.9765 32.4504 17.7991 32.4504 17.1666C32.4504 15.6809 32.8181 9.2232 32.8181 7.89929V4.3983C32.8181 2.22122 32.7593 1.80933 31.862 1.80933C31.7002 1.80933 30.4351 2.07412 29.7437 2.23593C29.4201 2.29477 27.8903 2.44187 27.6255 2.50071C27.3019 2.55955 25.772 3.03027 25.5072 3.08911C25.2425 3.14795 23.8156 3.25092 23.5508 3.35389C23.4478 3.35389 22.9183 3.61867 22.8153 3.61867C22.3446 3.78048 20.1675 3.98642 19.6968 4.04526C19.432 4.1041 18.1669 4.47185 17.9022 4.47185C17.049 4.47185 16.9019 4.47185 16.7401 4.79547C16.7989 5.16322 16.7989 5.32503 16.7401 5.64866C16.4164 7.13437 16.3135 7.70806 16.3135 9.0908C16.3135 9.56153 16.5194 9.82631 17.1078 9.82631C17.8433 9.82631 21.0795 9.03196 21.7709 8.92899C22.4623 8.82602 25.0071 8.45827 25.8014 7.92871C26.9194 7.23734 27.0224 7.13437 27.3901 7.13437C28.0227 7.13437 30.8323 7.39915 30.8323 8.09052C30.8323 8.51711 30.0379 9.62037 29.5672 9.67921C28.3022 9.94399 22.7418 11.1061 21.6238 11.1649C21.1972 11.2238 19.079 11.3709 18.7112 11.4297H18.6082C18.2846 11.4297 16.9607 10.959 16.6959 10.959C16.3282 10.959 16.3282 11.062 16.3282 12.3417C16.3282 12.6653 16.387 13.9892 16.3282 14.254C16.2693 14.46 16.1222 15.8427 16.1222 16.0045C16.1222 16.1075 16.1222 16.2105 16.2841 16.5929C16.6518 16.6518 16.8724 16.6518 17.1372 16.6518C17.7698 16.6518 21.0501 15.9604 23.0212 15.5338C25.5072 14.9454 25.772 14.9013 26.3604 14.004C26.5222 14.004 26.89 13.901 27.0518 13.901C27.3166 13.901 29.6408 14.2687 30.1262 14.2687C30.5528 14.2687 31.3913 14.2687 31.3913 15.3279C31.3913 16.387 30.391 16.5488 27.7873 16.8577C27.5225 16.9165 26.4046 17.2255 26.1398 17.2255C25.2866 17.3873 22.6976 17.755 22.0063 17.9168C21.6385 17.9757 20.2116 18.2846 19.888 18.2846C19.5203 18.2846 17.0343 18.1816 16.7695 18.2257C16.5635 18.2257 16.4017 18.3287 16.2399 18.5494L16.1369 23.3154L16.0781 23.2566Z" fill="white"/>
<path d="M15.5487 97.6599L18.0935 97.8217L24.3453 98.4101L26.2576 98.469L31.715 99.2633L39.5996 100.793C40.3939 100.955 40.9823 101.058 41.7767 101.058C42.3062 101.058 44.5275 100.955 45.0129 100.955L50.5144 101.161C50.7204 101.102 51.1028 100.999 51.3676 100.999C51.6912 100.999 52.0002 101.367 52.0002 101.793C52.0002 104.809 40.8205 105.971 39.4525 105.971C38.3934 105.971 37.9226 105.765 35.8044 104.706C35.4366 104.603 33.848 104.279 33.3625 104.176C33.0977 104.118 31.715 103.588 31.5091 103.485C27.3314 102.058 18.9614 100.514 15.1956 100.514C14.0335 100.514 8.20836 100.514 7.57583 100.617C7.04626 100.676 4.82505 101.735 4.33962 101.735C3.48644 101.735 2.75093 101.205 2.32434 100.881L0.206103 98.4984C0.206103 98.2336 0.000152588 97.0127 0.000152588 96.9097C0.000152588 96.7479 0.161964 96.1742 0.161964 96.0565C0.161964 95.9977 0.0589941 95.3652 0.0589941 95.2622C0.0589941 95.1004 0.264935 94.4679 0.794496 94.4679C0.853336 94.4679 2.75093 94.8945 2.8539 94.9386C3.2805 95.2622 3.32463 95.4681 3.81006 97.5275C4.33962 97.8953 4.6044 98.0571 6.03128 98.0571C6.3549 98.0571 7.88474 97.8953 8.20836 97.8953H10.6502L15.5781 97.6305L15.5487 97.6599ZM11.3122 94.6444C11.6799 94.056 11.6799 93.85 11.6799 93.6441C11.6799 92.0554 11.0915 91.6288 9.92943 90.6727C9.82646 90.6138 9.82647 90.5697 9.60582 90.4667C7.85532 88.7162 7.85532 87.5541 7.85532 87.0246C7.85532 86.5539 8.1201 82.7292 8.22307 82.3174C8.38488 81.2582 8.69379 79.6696 8.69379 78.9782C8.10539 79.0812 5.25164 80.3021 5.14867 80.3021C4.56026 80.3021 3.88361 79.3459 3.29521 78.5075C3.19224 78.3457 2.50087 77.5513 2.3979 77.3454C2.33906 77.0218 2.33905 76.8158 2.33905 76.757C2.33905 76.551 2.3979 76.1244 2.76565 76.1244C3.08927 76.1244 4.67796 77.0806 5.08984 77.0806C5.29578 77.0806 8.16423 75.9626 8.63495 75.1683C8.79676 74.8447 9.53227 73.256 9.75292 73.1089C9.81176 73.05 10.6502 72.4175 11.6652 72.4175C12.6802 72.4175 13.9894 72.8441 14.7396 73.05C15.328 73.256 15.4751 73.3737 15.4751 73.9032C15.4751 74.374 15.3721 74.5946 14.2542 76.7128C14.1512 76.8747 13.8864 77.7131 13.8276 77.8749C13.7688 77.9779 13.504 78.4633 13.4598 78.5663C13.1951 79.4636 13.1362 79.5666 12.8273 80.2138C12.4596 80.9052 11.2386 85.6124 11.2386 86.7745C11.2386 87.5689 11.7093 88.3632 13.5628 89.2164C15.784 90.1725 16.0047 90.2755 16.4166 90.7462C16.8873 91.3346 17.005 91.5994 17.005 91.8642C17.005 92.6585 16.2106 93.0851 14.8279 93.8206C14.6661 93.9236 14.0335 94.409 13.9306 94.4531C13.6658 94.512 12.5478 94.6591 12.3419 94.7768C12.1801 94.8356 11.7094 95.1445 11.6064 95.1445C11.5475 95.1445 11.4004 95.0857 11.3416 95.0857L11.2828 94.6591L11.3122 94.6444ZM5.32519 59.4874C5.53113 59.2226 5.69294 59.0167 6.01656 59.0167C6.22251 59.1785 7.39931 59.9728 7.50228 60.0758C8.45843 61.0319 8.72321 61.2967 9.19393 61.2967C11.0278 61.2967 12.2978 61.4389 13.0038 61.7233C13.2686 61.8263 14.7543 62.2529 15.0191 62.4147C15.6075 62.7383 16.1371 63.209 16.1371 63.5326C16.1371 64.4888 14.9161 65.5479 14.2248 65.9157C13.96 66.0186 12.5331 66.0775 12.4301 66.0775C11.577 66.0775 8.92915 65.1213 8.35546 64.8124C5.3399 63.1649 5.3399 60.5759 5.3399 59.7227V59.5168L5.32519 59.4874ZM23.801 73.1971C23.1096 73.6679 22.6389 73.9326 22.1094 73.9326C21.212 73.9326 20.9473 73.7267 18.932 71.8732C18.5054 71.4466 16.1812 69.858 16.1812 69.3284C16.1812 69.0636 16.446 69.0048 16.6519 69.0048C17.4463 69.0048 20.6825 69.3725 21.212 69.5932C21.7416 69.8138 22.5948 70.4905 23.0655 70.9171C23.2273 71.0201 23.7569 71.7703 23.9187 71.8732C24.0805 71.4025 24.0805 71.2407 24.0805 70.7112C24.0805 68.1663 24.0805 64.5623 23.0802 64.2534C21.3886 63.7239 21.1679 63.665 20.6972 63.2532C20.8002 62.9884 21.0649 62.2529 21.6533 62.2529C22.2417 62.2529 24.7277 62.2529 25.0366 62.3558C26.7283 62.9442 26.7283 62.9884 26.9931 63.7827C27.0519 64.0475 27.3608 65.0478 27.3608 66.1069C27.3608 68.4899 27.3608 68.7547 27.2579 69.9756C27.199 70.7111 26.7871 74.0062 26.7871 74.6387V76.5952L26.5812 81.0376C26.5812 81.4642 25.728 85.9655 25.5809 86.3332C25.4191 86.7598 24.9484 88.9222 24.7277 89.3488C24.6248 89.5547 24.5659 89.6135 24.0364 90.2461C23.7716 90.5697 22.9184 92.6291 22.7125 92.9969C22.5065 93.3205 20.756 95.5417 20.2706 95.7035C19.3144 96.0713 17.9464 96.2919 17.8287 96.2919C17.4021 96.2919 17.1962 96.0271 17.1962 95.8212C17.1962 95.5564 18.3583 94.865 18.5201 94.7032C19.7852 93.4382 19.844 93.3205 21.0649 90.3638C22.4477 87.0246 23.5068 81.2582 23.448 80.4639C23.1243 80.7287 23.0802 80.7875 22.5948 81.5819C22.5359 81.6848 22.0652 82.0085 22.0064 82.1114C21.7416 82.3174 20.4177 83.9649 20.3147 84.1708C19.9911 84.9652 19.9911 85.0681 19.844 85.3918C19.0497 85.8184 18.5201 86.1273 17.9317 86.1273C17.6669 86.1273 17.6081 86.0243 16.8726 85.23C16.6666 85.024 15.6516 84.3326 15.5487 84.112C15.3869 83.8472 15.3427 83.4206 15.3427 83.1558C15.3427 83.0529 15.4457 82.3027 15.4457 82.2585C15.4457 82.2144 15.2398 81.7878 15.2398 81.729C15.2398 81.4053 15.5045 81.3612 15.6075 81.3612C15.9311 81.4642 17.6669 81.8319 17.8876 81.8319C18.6231 81.8319 20.0647 80.4051 21.2709 79.243C21.6386 78.8164 23.6539 77.2865 23.8157 76.8011C23.9775 76.2127 24.0805 73.9915 23.9775 73.3001L23.8157 73.1971H23.801ZM34.0245 73.9915L36.4663 70.8141C38.3786 68.3281 38.9082 67.6956 38.9523 66.9454L38.8935 66.6806C38.6287 66.5188 37.4666 65.9892 37.246 65.8274C37.1871 65.7686 37.0842 65.5626 37.0842 65.4008C37.0842 64.7683 38.3051 64.4005 39.0406 64.4005C39.5702 64.4005 42.218 65.5185 42.8505 65.8863C43.1741 66.0922 43.8508 67.5338 43.8508 67.9015C43.8508 68.2693 43.7478 68.3281 42.7917 69.1666C42.468 69.4314 41.306 70.7553 40.997 70.9171C40.2027 71.4467 40.1439 71.5496 39.4084 72.2998C39.2024 72.5058 37.8785 73.1971 37.6579 73.359C36.334 74.5799 35.3778 75.3154 33.7891 76.2715L33.6861 76.5952C33.6861 78.2868 33.6861 78.4486 33.8921 78.7134C36.6429 78.9782 36.9665 79.037 38.82 79.8755C39.1436 79.9785 40.7323 80.5669 41.0412 80.7287C42.5269 81.5819 43.8508 85.2888 43.6301 86.1273C43.2624 86.1861 41.6149 86.8186 41.453 86.8186C40.4969 86.8186 39.4966 85.8184 37.5402 83.8472C37.1136 83.4206 35.1571 81.6701 34.7894 81.3024C34.201 80.714 34.0539 80.714 33.6714 80.714C33.6126 81.0817 33.6126 81.2435 33.5685 82.8911C33.5685 82.994 33.4655 83.4206 33.4655 83.5236C33.4655 83.6854 34.3187 89.4517 34.9953 90.4667C35.7308 91.5847 37.5843 92.6438 38.3345 93.0116C39.3936 93.6 41.5119 93.7029 42.7328 93.7029C43.2624 93.7029 43.4242 93.6441 43.8508 93.5411C44.0567 92.9086 44.0567 92.1143 44.0567 90.7315C44.0567 90.3049 43.8508 88.5544 43.8508 88.1867C43.8508 87.8189 44.1744 87.716 44.3215 87.716C44.5863 87.716 46.7634 90.1578 46.8075 90.202L47.3959 90.8345C47.4989 90.9375 49.8378 93.0557 49.8378 94.3355C49.8378 94.3943 48.3079 97.5717 43.0123 97.5717C37.7167 97.5717 37.4519 97.2039 34.0686 94.865C33.1125 94.2325 31.7444 92.1584 31.362 90.8933C30.9942 89.7312 30.4058 83.4206 30.4058 82.8911V82.2585L30.244 76.0068L30.3028 73.5649V67.2102C30.3028 66.4158 30.4058 62.8119 30.4058 62.1205C30.4058 61.6498 30.4058 59.1491 28.6112 58.5165C27.758 58.1929 27.655 58.1929 27.655 57.781C27.655 57.0455 28.8171 56.9867 29.0819 56.9867C30.6706 56.9867 30.8765 57.0896 32.5241 57.884C32.8477 58.0899 34.2746 58.7372 34.5393 58.9431C34.9659 59.3109 35.5396 60.0611 35.5396 60.6348C35.5396 60.7966 34.6864 63.6062 34.5393 64.1799C34.1716 65.7686 33.6861 72.1233 33.8038 73.815L34.0098 73.9768L34.0245 73.9915Z" fill="white"/>
<path d="M21.5205 139.554C21.3145 142.937 21.6235 149.675 23.168 152.367C24.6978 155.073 27.4045 156.338 30.5819 156.338C31.1703 156.338 33.9652 156.015 35.5097 155.706C35.8334 155.647 39.0107 154.97 39.0549 154.97C39.2608 154.97 39.6433 155.176 39.6433 155.603C39.6433 157.133 31.3321 161.001 28.3607 161.001C25.8158 161.001 22.9621 159.516 22.5355 159.089C21.8441 158.501 20.0936 156.809 19.1522 154.529C19.0492 154.058 18.093 150.616 18.093 148.704C18.093 147.703 17.9312 143.305 17.9312 142.408C17.9312 141.29 18.093 138.068 18.196 136.95C18.2549 136.156 18.3578 132.449 18.402 131.714L18.6667 127.006C18.8727 123.505 18.6079 120.858 18.1372 119.387C18.0342 118.96 17.181 117.327 17.181 116.945C17.181 116.312 17.5488 115.783 18.2401 115.783C19.1963 115.886 21.0939 117.165 21.4764 117.577C22.1677 118.475 24.2271 121.122 24.2271 124.035C24.2271 124.829 24.1242 125.153 23.2268 127.801C22.6973 129.286 21.9618 131.978 21.8441 134.156L21.5205 139.554Z" fill="white"/>
<path d="M20.6821 180.551L15.5925 182.14C15.2247 182.301 13.9008 183.096 13.5772 183.199C13.2536 183.302 12.9446 183.361 12.724 183.361C10.8117 183.361 7.00179 179.918 7.00179 179.065C7.00179 178.639 7.47251 178.477 7.8991 178.477C8.16388 178.477 8.4875 178.536 9.16416 178.639C9.7967 178.58 12.6651 178.58 13.2388 178.477C15.2982 178.05 24.5214 176.256 26.419 175.829C27.4782 175.623 32.1854 174.711 33.1415 174.343C33.3475 174.285 34.2006 173.608 34.3625 173.49C34.7302 173.328 35.2156 173.167 35.5834 173.167C37.4957 173.167 41.7322 177.079 41.7322 178.624C41.7322 179.786 40.776 180.11 38.6137 180.904C33.1562 182.86 26.2719 191.333 26.2719 198.541C26.2719 198.968 26.9045 203.734 28.8168 206.058C29.2875 206.691 31.4057 209.339 31.8323 209.868C32.4207 210.456 32.9944 212.192 32.9944 213.943C32.9944 214.472 32.9944 215.855 31.8323 215.855C29.7141 215.855 26.9045 213.207 26.0072 211.192C23.6241 205.838 23.4623 201.498 23.4623 200.924C23.4623 196.894 23.8301 193.981 26.2131 188.583C27.5958 185.567 28.6991 184.243 31.6705 180.904C32.406 180.11 34.1124 178.197 34.3772 177.197C34.2154 177.138 33.7446 176.991 33.421 176.991C33.1562 176.991 30.4496 177.624 29.9789 177.727C29.8171 177.785 25.5364 178.992 25.2717 179.109L20.6674 180.536L20.6821 180.551Z" fill="white"/>
<path d="M18.8289 240.171C18.9319 240.333 19.0348 240.539 19.0348 240.701C19.0348 240.803 17.3432 243.716 17.0784 244.349C16.3429 246.202 15.9604 247.158 15.9604 247.997C15.9604 248.32 16.4312 250.439 16.4312 250.909C16.4312 251.704 15.9016 252.601 15.2102 252.601C14.3129 252.601 12.5624 251.748 12.0328 251.38C9.70866 249.629 9.54685 249.321 7.59042 246.084C6.16354 243.701 4.67783 239.141 4.35421 236.243C4.29537 235.714 4.29537 235.39 4.29537 235.184C4.29537 234.714 4.45718 232.595 4.45718 232.169L4.35421 230.477C4.35421 230.374 4.56015 229.889 4.61899 229.786C6.00174 229.359 6.63426 231.742 7.69338 236.302C8.11998 237.994 11.1944 244.775 13.3567 244.775C13.8275 244.775 15.475 243.128 15.9016 242.657C17.3285 241.068 17.4903 240.862 18.4464 240.274L18.8142 240.171H18.8289ZM45.4099 235.405C45.6159 235.67 46.5279 236.567 46.675 236.788C47.1457 237.685 47.2046 239.377 47.2046 240.23C47.2046 243.878 45.9395 246.482 44.9833 246.482C44.5567 246.482 44.3949 246.379 43.3946 244.893C42.9239 244.201 41.4824 243.363 40.2761 243.142C39.0111 242.878 38.8493 242.819 38.8493 242.407C38.8493 242.039 39.0111 241.98 40.4968 241.245C41.2911 240.877 41.4529 240.774 41.4529 240.186C41.4529 237.861 40.232 235.89 38.6433 234.037C38.2756 233.61 37.4812 232.61 37.2606 232.345C36.3633 231.492 35.8337 230.962 35.8337 230.492C35.8337 229.859 36.5692 229.594 36.834 229.594C38.3197 229.594 43.3505 233.037 45.4099 235.42V235.405Z" fill="white"/>
<path d="M23.2267 270.577C23.5503 270.312 23.7563 270.15 24.4477 270.15C26.1393 270.15 29.4785 271.003 29.4785 272.371C29.4785 273.43 28.9489 273.592 26.9337 274.328C25.345 274.916 21.638 276.078 20.5201 276.446C20.3583 276.608 17.4457 286.302 17.3427 286.713L15.1656 294.495C14.5331 296.819 12.6796 302.762 10.6055 302.762C9.34045 302.762 9.34045 300.438 9.34045 298.261C9.34045 296.084 9.60523 295.672 9.87002 295.186C10.3996 294.289 11.8853 291.156 11.9883 290.744L13.7388 286.508C13.9447 285.978 15.0038 283.698 15.1656 283.227C15.2686 282.801 15.9011 280.741 15.96 280.579C16.1218 280.256 16.2836 279.947 16.5925 279.197C16.6955 278.505 16.9603 277.814 16.9603 277.667C16.9603 277.402 16.5925 277.343 16.4307 277.343C16.1659 277.343 15.2098 277.446 15.0479 277.446C14.7832 277.446 11.547 276.975 11.0174 276.711C10.2819 276.387 10.0171 275.813 10.0171 275.446C10.0171 274.71 10.9144 274.651 12.2383 274.592C13.1945 274.592 17.7987 273.371 18.1223 272.842C18.3871 272.253 19.2844 268.664 19.2844 268.399C19.3874 267.546 20.6083 263.795 20.6672 263.001C20.6672 262.412 20.7702 260.78 21.8293 260.78C22.7266 260.78 24.4771 262.104 24.4771 265.281C24.4771 266.664 24.3153 266.928 23.0943 269.414C22.7707 270.106 22.7707 270.532 22.7707 271.003C23.0943 270.738 22.9325 270.9 23.1973 270.577H23.2267ZM33.5532 308.22C32.8618 308.22 27.728 307.219 26.3011 306.042C24.2859 304.395 23.9769 301.968 23.9769 301.541C23.9769 301.276 24.1829 300.114 24.6683 300.114C25.0949 300.114 25.139 300.276 25.7863 301.865C26.7866 304.351 31.6115 304.351 32.5676 304.351C33.7885 304.351 34.0533 304.292 36.4805 303.718C37.0689 303.556 37.6426 303.453 38.128 303.453C38.3339 303.453 42.6881 304.351 42.6881 306.425C42.6881 307.484 41.3642 307.749 40.7317 307.911C40.408 307.969 38.1868 308.337 38.025 308.337L33.5826 308.234L33.5532 308.22ZM35.1271 282.698C36.1274 282.698 41.4819 285.081 41.4819 286.831C41.4819 288.361 40.2168 288.42 38.4663 288.479C37.5102 288.479 36.4069 289.111 35.1271 289.803C34.9653 289.905 33.9651 290.229 33.5973 290.229C33.2296 290.229 32.9648 290.023 32.9648 289.641C32.9648 289.258 34.0239 287.89 34.0239 287.522C34.0239 286.934 33.5532 286.934 33.1266 286.934C32.7 286.934 30.9054 286.993 30.5376 286.993C30.2728 286.993 28.9489 287.199 28.846 287.199C27.728 287.199 26.9337 286.934 26.9337 286.508C26.9337 286.184 30.111 283.963 31.6997 283.86C31.9645 283.698 34.7741 282.698 35.1419 282.698H35.1271Z" fill="white"/>
<path d="M4.16347 364.721C4.59006 364.515 8.45881 362.279 8.60591 362.176C10.6653 360.911 12.7836 358.896 14.3281 356.41C14.5929 355.983 15.8138 354.085 16.0198 353.703C16.6082 352.482 17.2407 349.628 17.2407 349.202C17.2407 348.348 17.0348 347.672 16.3434 347.289C15.0783 346.598 14.9606 346.495 14.9606 346.23C14.9606 345.804 15.4902 345.642 15.755 345.642C15.9609 345.642 18.7264 346.495 19.0942 346.642C19.7267 346.907 20.3592 347.76 20.3592 348.437C20.3592 348.701 20.4622 349.761 20.4622 349.967C20.4622 350.437 19.8738 352.511 19.8297 352.982C19.8297 353.144 19.4031 353.938 19.3589 354.1C19.3001 354.365 19.3001 354.63 19.3001 354.836C18.8735 356.483 15.6961 359.925 14.9606 360.602C14.8577 360.705 14.2693 361.073 14.0045 361.234C13.1513 361.823 12.151 363.088 11.1949 363.456C10.9889 363.559 10.0769 364.088 9.76801 364.25C8.23816 364.985 6.32586 365.677 3.41327 366.265C3.20733 366.324 2.45712 366.471 2.25117 366.471C1.61864 366.471 1.66277 366.148 1.78045 365.839C2.20704 365.574 3.79572 364.838 4.16347 364.677V364.721ZM3.53094 348.304C3.85456 347.937 4.85485 346.774 5.17847 346.289C6.13462 343.318 6.17875 342.479 6.17875 341.626C6.17875 341.199 5.64919 339.346 5.64919 338.919C6.01694 338.816 6.11991 338.86 6.91425 339.655C7.07606 339.861 8.13519 340.611 8.297 340.773C8.98837 341.626 9.19431 341.832 10.6212 341.832C11.2537 341.832 14.1222 341.199 14.6959 341.199C16.4905 341.096 25.4489 340.199 25.9196 340.199C26.6551 340.14 30.8916 339.934 31.2152 339.934C31.8478 339.831 36.349 339.346 36.7168 339.346C37.3493 339.346 40.2619 339.405 40.8503 339.346C41.5858 339.287 41.8506 339.243 42.2331 338.875C42.7626 338.875 44.2925 338.978 45.9988 341.258C46.2048 341.523 47.4845 342.523 47.6464 342.788C47.8523 343.112 47.9111 343.524 48.0141 344.053L47.6905 344.421C47.6905 345.215 46.9991 345.745 46.3666 346.113C46.1606 346.215 45.2045 346.318 44.4101 346.377C44.2042 346.48 43.557 346.848 43.4099 346.907C43.0862 347.01 41.6152 347.495 41.2916 347.598C40.3355 347.966 40.2325 348.025 40.0707 348.025C39.9677 348.025 39.3352 347.76 39.2175 347.76C38.6879 347.76 38.5261 347.701 38.2172 347.701C38.0113 347.701 37.4229 347.76 37.1581 347.863C37.0551 347.922 36.6874 347.804 36.5256 347.76V347.495C39.0116 345.965 39.2322 345.583 40.0266 344.259C40.1884 344.053 41.4534 342.347 41.4534 342.038C41.4534 341.876 41.3505 341.714 41.0857 341.714C40.4531 341.714 37.6435 341.876 37.0551 341.876C36.5844 341.876 34.4073 342.2 33.9366 342.2H31.7154C31.2447 342.2 29.0676 342.523 28.7439 342.523C27.7878 342.523 26.3021 342.523 25.4636 342.994L25.5225 343.097C26.052 343.362 28.5969 344.318 28.9646 344.686C29.5971 345.421 30.0237 345.951 30.0237 346.377C30.0237 346.583 29.9649 346.804 29.7589 347.275C29.7589 347.481 29.8619 348.231 29.8619 348.334C29.8619 348.54 29.1705 351.408 29.1264 351.982C29.0676 352.35 28.8028 354.424 28.7587 354.571C28.6998 354.733 28.435 355.527 28.435 355.689C28.435 360.72 28.435 360.881 29.4942 362.146C29.9649 363.529 33.0393 363.573 34.3632 363.529L38.9233 363.323C42.1007 363.161 44.4837 362.323 44.6896 362.161C44.9544 361.896 45.6899 359.572 45.6899 357.292V353.526L45.7929 353.056L46.1165 353.115C46.3225 353.585 47.0727 356.13 47.2786 356.292C47.6022 356.66 48.6613 357.939 48.9261 358.145C48.9261 358.307 48.985 358.616 49.0879 358.734C49.3527 359.101 49.4116 359.16 49.5587 359.366L49.9852 360.631C50.353 360.999 50.7796 361.323 50.7796 362.323C50.7796 363.485 50.5736 363.647 48.6025 364.971C48.3377 365.177 44.6896 366.883 42.7773 366.927L35.893 367.03C32.7745 367.089 29.3765 365.809 28.5821 364.971C28.2144 364.603 26.5227 362.955 26.258 362.529C25.7872 361.838 25.3606 361.308 25.3606 358.351V354.38C25.3606 353.262 25.6843 348.231 25.6843 347.172C25.6843 346.48 25.4783 345.377 25.2577 344.995C25.0959 344.73 24.3015 343.612 24.1397 343.347L24.2427 343.023L24.1838 342.965C23.2865 342.862 21.2124 343.17 19.256 343.494C18.9324 343.553 17.3437 343.656 17.1377 343.759C16.1816 344.083 15.9756 344.127 15.1225 344.127C14.387 344.127 10.3564 342.641 9.50323 342.7L9.56206 344.083C8.87068 344.936 8.87069 345.245 8.4441 347.995C8.12048 350.275 6.38469 353.453 5.73745 353.453C4.88426 353.453 4.08993 353.026 3.78102 352.291C3.57508 351.761 3.35443 350.496 3.4574 349.055L3.51624 348.26L3.53094 348.304ZM22.4775 327.24C22.3745 326.386 22.2715 322.635 22.0509 321.885C22.0509 321.723 21.9479 321.458 21.7273 321.414C20.3004 321.208 20.1386 321.208 19.4472 320.826L19.3884 320.62C20.0209 319.193 20.5505 319.193 21.6096 319.193C23.1983 319.193 27.7584 320.841 27.7584 322.576C27.7584 323.371 27.6554 324.533 27.4348 325.386C27.3759 325.813 27.2288 326.445 27.2288 326.872C27.2877 327.034 27.3318 327.137 27.3906 327.298C27.8613 327.24 30.0973 327.092 30.4062 327.034C30.568 326.975 32.2008 326.828 32.5244 326.828C34.3779 326.828 34.5397 326.886 35.2752 326.563C35.8636 326.357 37.3935 325.871 37.7171 325.769C37.8789 325.769 42.2772 326.357 42.2772 327.99C42.2772 328.152 42.2183 328.313 42.1154 328.46C41.8506 328.519 40.8944 329.093 40.6297 329.093C40.5267 329.093 39.8942 329.196 39.7765 329.196C39.6147 329.196 38.9233 329.52 38.8203 329.52C38.5556 329.52 37.4964 329.417 37.2905 329.417C36.8639 329.417 34.8486 329.578 34.4367 329.578H32.3773C31.9507 329.637 30.0531 329.946 29.6707 329.946C27.3906 329.946 27.1847 329.946 26.9199 330.373C26.714 331.005 26.1256 332.859 26.2285 334.183C26.4933 334.183 28.6704 334.124 29.3471 333.859C29.6707 333.697 29.9796 333.594 30.0826 333.594C31.0387 333.432 31.1417 333.432 31.4653 333.065C32.2597 333.168 34.2749 334.065 35.0693 334.815C35.437 335.139 35.54 335.815 35.54 336.139C35.54 336.242 35.4811 336.404 35.3782 336.507C35.2164 336.566 34.0543 336.83 33.8925 336.83C33.5247 336.83 31.936 336.669 31.6124 336.669C30.921 336.669 27.7437 336.463 27.1111 336.463C26.9493 336.463 22.3451 337.154 21.8155 337.257C21.5507 337.316 20.3298 337.419 20.065 337.463C19.6973 337.566 17.2554 338.154 17.1524 338.154C16.4169 338.154 13.7103 337.36 13.3867 337.198C13.2249 337.139 12.4894 336.728 11.901 335.977C12.0039 335.61 12.1657 335.61 12.6365 335.61C13.4308 335.61 16.1816 335.404 17.2407 335.242C17.9321 335.139 21.1094 334.874 21.742 334.771C22.1686 334.712 22.4333 334.403 22.4333 334.036C22.4333 333.874 22.3304 332.873 22.3304 332.712V330.652C21.8008 330.49 21.3301 330.329 21.1094 330.387C20.7858 330.446 19.1971 330.711 18.1969 330.858C17.7261 330.917 15.652 330.961 15.2254 331.02C14.9606 331.079 13.7986 331.491 13.5338 331.491C13.4308 331.491 10.68 330.638 10.4152 330.535C10.0916 330.373 8.66475 329.637 8.39997 329.534C8.03222 329.372 7.50266 329.064 7.34085 328.902L7.28201 328.843C7.28201 328.578 7.34085 328.152 8.01751 328.152C8.34113 328.152 9.70916 328.475 9.97395 328.475C13.3573 328.475 18.9765 328.152 22.2568 327.681L22.4186 327.254L22.4775 327.24Z" fill="white"/>
<path d="M2.14776 420.795L2.25073 420.589C2.51551 420.531 2.61847 420.531 2.83912 420.531C3.16274 420.531 4.42781 420.634 6.07534 420.898L8.39953 420.84L10.253 420.516L14.6513 420.089C15.4456 420.03 19.8439 419.619 20.3735 419.398C20.4765 419.074 20.5794 418.765 20.5794 418.236C20.5794 417.809 20.4176 416.059 20.4176 415.691C20.4176 415.059 20.5206 412.249 20.5206 411.719C20.5206 411.455 20.4618 410.292 20.4618 410.028C20.4618 409.601 20.6236 407.748 20.6236 407.321C20.6236 407.056 20.4618 405.629 20.4618 405.365C20.4618 404.835 20.6677 402.349 20.6677 401.864C20.6677 401.437 20.5059 399.539 20.5059 399.113C20.5059 396.789 20.5059 396.524 20.447 396.141C20.447 395.612 20.1823 393.288 20.1823 392.802C20.1823 389.787 20.0205 389.419 19.9175 387.61C19.9175 387.345 19.6527 384.064 19.6527 383.535C19.5497 381.843 19.4909 381.784 18.2258 380.828C18.1229 380.769 17.5933 380.299 17.4903 380.24C17.3285 380.137 16.5342 379.769 16.4312 379.651C16.1076 379.328 15.9016 378.96 15.9016 378.592C15.9016 378.386 16.1076 378.063 16.49 378.063C16.593 378.063 19.0349 378.431 19.5056 378.489C21.7857 378.592 22.3152 378.96 22.7859 379.225C23.8451 379.431 26.1692 380.49 26.1692 382.196C26.1692 382.667 25.4338 384.785 25.3161 385.212C25.2131 386.006 24.8454 389.713 24.8454 390.507V396.391L25.169 396.656C26.6988 396.597 29.6114 395.862 31.2589 395.391C31.8915 395.229 34.9659 394.126 35.3336 394.126C39.2465 394.126 40.6881 394.126 40.6881 395.612C40.6881 396.671 39.7319 397.039 37.5107 397.936C35.4954 398.201 30.9941 398.789 29.7291 398.936C29.3025 398.936 27.5079 398.877 27.2431 398.877C27.0371 398.936 25.9192 399.039 25.7132 399.039C25.5514 399.039 25.4485 399.039 25.0807 398.877L24.8159 398.98L24.61 399.407V407.924C24.61 411.955 24.61 413.117 24.2864 415.441C24.2275 416.029 23.492 418.618 23.492 419.148C23.698 419.207 24.0216 419.31 24.2275 419.31C24.5953 419.31 26.184 419.104 26.5076 419.104C28.7876 419.104 29.0524 419.104 30.6852 418.78C30.95 418.78 31.1118 418.721 31.8032 418.677L37.6872 418.309C37.849 418.309 40.4968 418.368 41.0264 418.251C41.2912 418.148 42.4533 417.824 42.6151 417.721C43.0858 417.456 43.1446 417.397 43.3506 417.397C45.9395 417.397 49.2346 420.251 49.2346 422.002C49.2346 422.693 48.911 423.164 47.9107 423.164C47.0134 423.164 43.1446 422.046 42.2915 421.943C41.6589 421.84 37.849 421.516 37.2606 421.516L32.3916 421.457L23.7127 421.928H23.0213L16.8725 422.722C15.6516 422.884 11.9005 423.517 10.7237 423.987C9.45864 424.517 9.34097 424.576 9.03206 424.576C8.29656 424.576 7.38453 424.208 6.81084 423.885L2.73615 421.604C2.41253 421.399 2.30957 421.178 2.14776 420.751V420.692V420.795Z" fill="white"/>
<path d="M0.661763 468.309C0.769637 467.995 1.03442 467.711 1.45611 467.456C2.88298 466.558 11.5178 456.394 13.7978 452.687C13.5919 452.363 13.533 452.319 12.7975 451.995C12.371 451.79 9.78198 448.127 9.09061 447.435C8.9288 447.274 8.0315 446.582 7.92853 446.376V446.17C7.92853 446.17 8.1933 446.067 8.25214 446.067C11.9002 446.067 13.4448 447.288 15.2982 450.098C16.3574 448.671 18.1079 444.699 19.5936 441.257C19.2258 441.36 19.167 441.36 18.5933 441.728C18.1226 441.934 16.0043 442.522 15.5189 442.581C15.3571 442.64 12.6652 443.802 12.0768 443.802C10.9588 443.802 10.1203 442.64 9.22301 441.478C9.0612 441.272 8.00207 440.316 7.8991 440.051C7.84026 439.889 7.73729 439.58 7.73729 439.463L7.94323 439.301C8.6346 439.463 11.7531 440.095 12.2386 440.095C18.5345 440.095 20.3438 438.08 21.3441 436.977C21.6089 436.653 21.9766 436.609 22.3444 436.609C22.668 436.609 25.3599 438.403 25.3599 439.786C25.3599 440.257 25.1981 440.58 24.8892 441.007C25.0951 441.478 28.0666 445.082 28.4932 445.082C28.7579 445.082 31.4646 442.537 31.4646 441.581C31.4646 440.625 30.7732 440.051 30.3466 439.668C30.5084 439.198 32.1412 439.198 32.7296 439.198C32.9944 439.198 33.9947 439.404 34.2595 439.786C35.7452 441.478 35.907 441.698 35.907 442.272C35.907 443.125 35.804 443.125 35.0097 443.434C34.5831 443.802 34.4801 443.861 33.2151 444.39C32.4796 444.817 30.6261 445.92 30.1407 446.303C29.9789 446.832 30.0818 446.935 30.935 447.891C32.2001 449.274 32.3178 449.421 32.8915 449.583C33.0533 449.377 34.0536 448.848 34.2154 448.686C37.5545 446.406 37.4957 446.097 37.4957 445.405C37.4957 444.817 37.1721 444.552 36.5396 444.14V443.934C37.128 443.773 38.6578 443.728 39.1285 443.728C39.7169 443.728 41.8793 446.17 41.8793 447.906C41.8793 448.965 39.4374 449.495 38.8049 449.598C38.0106 449.76 34.7743 450.76 34.0977 450.922C33.9947 451.451 34.0977 451.51 34.995 452.349C35.5246 452.819 37.6428 455.099 38.0694 455.467C39.9229 457.115 43.1002 459.233 44.9537 460.763C49.352 464.308 49.3961 464.308 49.352 464.896L49.249 464.999C49.1461 464.94 48.8224 464.896 48.7783 464.896C48.2487 464.896 45.9687 464.793 45.498 464.793C45.395 464.793 44.7036 464.852 44.5418 464.852C44.277 464.852 43.012 464.528 42.7472 464.484C42.4236 464.425 40.8349 464.278 40.526 464.161C39.0991 463.734 35.9659 460.086 35.2304 458.968L31.3616 453.202C30.7291 452.246 27.9783 448.009 27.3311 447.171C27.0663 446.803 25.9483 445.111 25.6394 444.846C25.4335 444.582 24.5803 443.155 24.3744 442.934C24.1096 442.728 23.9036 442.61 23.683 442.61C23.2564 442.61 23.2123 442.772 22.4179 444.258C21.1528 446.7 17.7107 452.731 16.5339 453.996C16.3721 454.202 13.7243 457.865 13.4154 458.394C13.739 458.659 14.0038 458.821 14.5333 458.821C15.2688 458.821 19.0346 457.865 19.8289 457.659C20.0349 457.556 24.2714 456.173 24.3891 456.129C25.6541 455.232 26.2425 454.864 26.7132 454.864C30.8909 454.864 31.4205 456.614 31.4205 456.717C31.4205 457.041 31.1557 457.777 29.6258 458.203C29.1551 458.306 25.9777 459.159 25.713 459.262L25.7718 459.424C26.2425 460.057 26.4043 460.16 27.6253 461.072C27.993 461.395 28.5226 462.292 28.5226 462.66C28.5226 462.925 28.4196 464.087 28.4637 464.352C28.8903 464.411 30.9056 464.352 31.5823 464.028C31.847 463.866 32.6414 463.558 32.8473 463.499C33.7005 464.087 33.9653 464.19 36.0835 464.984C36.2895 465.043 37.2015 465.882 37.4663 466.147C37.4663 466.47 37.4074 466.617 37.3045 466.735C36.8337 466.941 35.1862 467.529 34.8185 467.691C34.4507 467.691 32.862 467.529 32.5384 467.529C32.2148 467.529 30.7879 467.735 30.5231 467.735C30.3613 467.735 29.67 467.573 29.6258 467.573C29.3611 467.573 29.0963 467.632 27.9783 467.941C27.7724 469.324 26.8603 475.296 26.8603 476.576C26.8603 478.223 28.3902 479.856 32.3619 479.856C32.8915 479.856 40.7319 479.43 41.2615 477.738C41.5851 476.782 42.3206 473.031 42.3206 471.913C42.3206 471.589 42.1588 470.265 42.1588 470.221C42.1588 469.633 42.2176 468.897 42.2176 468.471H42.4236C42.4236 468.574 43.4238 471.486 43.4827 471.589L43.7475 471.913C43.9093 472.339 43.9534 472.442 44.1741 472.604C44.277 473.237 46.0864 476.517 46.3953 476.782C47.4544 477.738 47.6162 477.782 48.3076 478.738L48.2487 479.003L48.1899 479.106V479.165C46.4394 481.71 42.8354 482.342 40.8349 482.504L35.4804 482.931C35.2156 482.931 34.3625 483.034 34.1565 483.034C31.9794 483.034 28.9639 482.607 27.1693 481.342C23.7859 479.018 23.7859 476.37 23.7859 472.869C23.7859 472.604 23.9478 471.486 23.9478 471.222C23.9478 469.206 23.9478 469 24.0066 468.471L23.8006 468.368C23.2711 468.471 20.7851 468.838 20.5203 469.103C20.4173 469.265 18.8728 474.075 18.8728 474.134C18.7698 474.399 18.0196 475.517 17.9166 475.782C17.8137 475.988 17.3282 477.208 17.2253 477.429C14.8422 481.195 8.11975 482.99 6.31041 482.99C5.45723 482.887 3.66261 482.725 2.70646 482.666L2.64762 482.401C5.66317 481.666 6.08977 481.445 9.85554 479.65C11.7678 478.753 14.2538 475.252 15.6219 473.296C15.8867 472.972 16.6222 471.119 16.681 470.015L16.5192 469.912C15.3571 470.236 15.2541 470.236 14.0332 470.442C12.6063 470.648 12.5033 470.81 12.2386 471.236C12.1797 471.236 11.709 471.339 11.4442 471.339C11.1794 471.339 7.14889 470.074 6.78113 469.912C5.88382 469.486 5.56021 469.383 5.35427 468.912L5.4131 468.75C6.20744 468.588 9.81141 468.118 10.5469 467.956C11.5472 467.691 15.9014 466.735 16.7987 466.47L16.9016 466.308C16.9016 463.764 16.9016 462.925 16.3721 462.543C15.6366 462.072 15.21 461.748 15.107 461.278C15.7984 460.91 15.9014 460.851 16.2691 460.807C16.0043 460.645 14.7393 460.38 14.5186 460.277C14.2538 460.115 13.0917 459.277 12.827 459.159C11.709 460.645 11.5619 460.807 10.7676 462.131C10.6646 462.234 8.28156 464.881 7.85497 465.102C7.32541 465.426 6.32512 466.323 5.57491 466.956C5.29052 467.201 5.00613 467.358 4.72174 467.426C3.82442 468.059 2.50052 468.809 1.6032 468.809H0.44111L0.382269 468.647L0.705892 468.382L0.661763 468.309ZM24.1684 465.073L24.2714 464.705C24.1684 464.117 24.0066 461.366 23.8448 460.836L23.7418 460.777C23.683 460.616 23.1093 459.777 22.7857 459.777C22.5209 459.777 16.8575 460.63 16.4309 460.733C16.9016 460.939 19.1817 461.792 19.5053 462.116C19.8289 462.484 19.9319 462.807 20.0349 463.175C20.4615 463.543 20.5056 463.602 20.6674 464.396C20.7704 465.087 20.991 465.293 21.2999 465.617L24.1537 465.087L24.1684 465.073Z" fill="white"/>
<path d="M2.08886 542.55C2.08886 542.55 4.26594 540.756 5.63398 540.064C6.22238 539.476 9.13497 537.211 9.81163 536.681C10.606 535.99 15.0484 531.179 15.5338 529.9C15.7398 529.267 17.2843 526.619 17.2843 526.031C17.2843 525.295 16.6518 524.501 16.387 524.501C16.1222 524.501 15.2691 525.457 15.0043 525.457C14.9013 525.457 14.3129 525.619 14.1511 525.619C13.092 525.619 12.0917 522.545 12.0917 522.28C12.0917 522.118 12.3565 519.161 12.4594 518.735C12.4006 517.94 12.4006 517.734 12.5624 517.043C12.4594 516.572 12.7683 514.557 12.7683 514.13C12.7683 513.277 12.8713 509.57 12.8713 508.835C12.8713 506.82 12.9302 506.511 12.9302 503.804C12.8713 503.216 12.7683 501.951 12.7683 501.848C12.7683 501.112 12.6065 499.729 12.5036 499.259C12.4006 498.788 10.4883 497.773 10.1794 497.508L9.97344 497.14C10.2971 496.934 10.4 496.934 10.503 496.934C10.6648 496.934 12.7831 497.258 13.2096 497.405C14.5924 497.876 14.6365 497.876 15.6956 497.876C15.9604 497.876 16.0193 497.876 16.593 497.67L21.8297 496.405C24.0509 495.875 31.7884 494.875 33.1123 494.875C33.9067 494.978 35.2306 495.243 35.7601 495.405C36.0838 495.566 37.9372 496.935 38.202 497.155C38.3638 497.361 38.6286 497.744 38.6286 498.008C38.6286 498.376 37.6283 499.862 37.4665 500.23C37.4077 500.435 37.3047 501.877 37.3047 502.142C37.3047 502.671 37.4077 503.672 37.4077 504.157C37.4077 504.422 37.3047 505.378 37.3047 505.584C37.3047 506.011 37.1429 507.761 37.1429 508.07V508.967L36.8193 514.16C36.7604 514.793 36.3927 517.661 36.3485 518.19C36.3485 518.396 35.922 519.411 35.8778 519.617C35.7749 519.985 35.5542 521.633 35.4071 521.897C34.9805 522.751 34.4509 523.015 33.127 523.015C32.2739 523.015 31.8031 522.162 31.5972 521.75C30.9058 520.368 30.744 520.059 29.4201 520.059C29.2583 520.059 25.4484 520.265 24.9188 520.529C24.7129 520.691 24.6541 520.794 24.5511 521C24.8747 521.368 26.6105 522.265 26.9341 522.53C27.7285 523.265 28.5228 523.957 28.5228 524.442C28.5228 524.707 28.0962 525.825 27.9932 526.031C27.8903 526.458 27.7285 527.193 27.7285 527.62C27.7285 529.105 27.7285 529.311 27.3607 531.121C27.2577 531.591 27.0371 532.812 27.0371 533.562C27.0371 533.768 27.1401 534.945 27.1401 535.092C27.1401 536.74 27.1401 536.843 28.0374 537.799C29.2583 538.49 30.4204 538.917 31.4207 538.917C36.5103 538.917 41.1146 537.858 42.2767 537.122C43.3947 536.387 44.0713 529.4 44.189 528.282L44.3508 528.12C45.0863 530.4 45.1451 530.665 45.307 530.871C45.3658 530.929 45.9395 533.195 46.1601 533.562C46.9545 535.313 47.1163 535.416 48.0724 535.843C48.499 536.048 48.499 536.166 48.9256 537.225C49.0286 537.49 49.6611 538.608 49.6611 538.873C49.6611 539.667 47.5429 540.829 45.7483 541.315C45.5423 541.374 40.6586 542.006 40.2908 542.006C39.9231 542.006 38.1726 542.168 37.8048 542.168C33.6272 542.168 31.1265 542.168 28.0079 541.109C25.1983 540.153 23.5655 537.99 23.5655 535.754C23.5655 534.857 23.6244 532.047 23.6685 531.518C23.8303 530.62 24.3599 526.163 24.3599 525.59C24.3599 525.325 24.1539 522.677 23.9921 522.471C23.5655 522 23.1389 521.412 22.727 521.412C21.6679 521.412 20.0204 521.883 18.8142 522.574C18.5494 522.736 17.2843 523.104 17.1225 523.31C17.0637 523.368 17.0196 523.471 17.0196 523.516C17.0196 523.78 17.2255 523.942 17.9757 524.148C18.873 524.472 20.5205 525.413 21.2119 526.046C21.1089 526.31 20.5794 527.37 20.5794 527.576C20.3734 528.267 18.1375 532.503 17.299 533.239C16.5047 533.974 12.5918 537.843 11.9446 538.211C11.415 538.476 10.9443 538.946 9.98815 539.741C9.45859 540.211 9.09084 540.373 5.58985 541.8C4.95732 542.065 2.30951 542.8 2.20654 542.8L2.1477 542.594L2.08886 542.55ZM16.0781 518.132C16.0193 518.338 15.8133 519.25 15.8133 519.397C15.8133 519.72 16.1369 519.823 16.3429 519.823C16.8136 519.823 23.0654 518.132 23.1242 518.132C24.3451 517.926 26.1398 517.602 27.1548 517.543C27.6843 517.543 30.0674 516.955 30.5381 516.955C30.8029 516.955 31.9208 517.058 32.1268 517.014C32.3327 516.852 32.3915 516.69 32.3915 516.543C32.3915 515.852 32.4504 512.674 32.4504 512.042C32.4504 510.556 32.8181 504.098 32.8181 502.774V499.273C32.8181 497.096 32.7593 496.684 31.862 496.684C31.7002 496.684 30.4351 496.949 29.7437 497.111C29.4201 497.17 27.8903 497.317 27.6255 497.376C27.3019 497.435 25.772 497.905 25.5072 497.964C25.2425 498.023 23.8156 498.126 23.5508 498.229C23.4478 498.229 22.9183 498.494 22.8153 498.494C22.3446 498.656 20.1675 498.861 19.6968 498.92C19.432 498.979 18.1669 499.347 17.9022 499.347C17.049 499.347 16.9019 499.347 16.7401 499.671C16.7989 500.038 16.7989 500.2 16.7401 500.524C16.4164 502.009 16.3135 502.583 16.3135 503.966C16.3135 504.437 16.5194 504.701 17.1078 504.701C17.8433 504.701 21.0795 503.907 21.7709 503.804C22.4623 503.701 25.0071 503.333 25.8014 502.804C26.9194 502.112 27.0224 502.009 27.3901 502.009C28.0227 502.009 30.8323 502.274 30.8323 502.966C30.8323 503.392 30.0379 504.495 29.5672 504.554C28.3022 504.819 22.7418 505.981 21.6238 506.04C21.1972 506.099 19.079 506.246 18.7112 506.305H18.6082C18.2846 506.305 16.9607 505.834 16.6959 505.834C16.3282 505.834 16.3282 505.937 16.3282 507.217C16.3282 507.54 16.387 508.864 16.3282 509.129C16.2693 509.335 16.1222 510.718 16.1222 510.88C16.1222 510.983 16.1222 511.086 16.2841 511.468C16.6518 511.527 16.8724 511.527 17.1372 511.527C17.7698 511.527 21.0501 510.835 23.0212 510.409C25.5072 509.82 25.772 509.776 26.3604 508.879C26.5222 508.879 26.89 508.776 27.0518 508.776C27.3166 508.776 29.6408 509.144 30.1262 509.144C30.5528 509.144 31.3913 509.144 31.3913 510.203C31.3913 511.262 30.391 511.424 27.7873 511.733C27.5225 511.792 26.4046 512.101 26.1398 512.101C25.2866 512.262 22.6976 512.63 22.0063 512.792C21.6385 512.851 20.2116 513.16 19.888 513.16C19.5203 513.16 17.0343 513.057 16.7695 513.101C16.5635 513.101 16.4017 513.204 16.2399 513.424L16.1369 518.19L16.0781 518.132Z" fill="white"/>
<line x1="65.5001" y1="2.18557e-08" x2="65.5001" y2="543" stroke="white"/>
</svg>
