<svg width="60" height="560" viewBox="0 0 60 560" fill="none" xmlns="http://www.w3.org/2000/svg">
<path d="M2.96629 35.5337C3.44322 35.6976 3.56244 35.8019 4.51628 36.5471C4.5759 36.6067 4.84418 36.7111 4.94851 36.7111C5.38072 36.2789 8.97255 31.7183 10.9548 27.9625C11.387 27.1577 13.6971 23.238 13.8461 22.7611C13.9504 22.4928 14.2187 21.3601 14.3826 21.1515C14.4423 21.0471 14.8596 20.9428 15.3514 20.9875C15.1427 22.7611 14.1144 27.2173 13.0413 29.5721C12.8326 30.0491 12.1769 32.2548 11.9682 32.687C11.6403 33.3279 9.34514 38.5293 9.22591 39.4981C8.62975 43.6861 6.70716 44.6548 6.60284 44.6548C6.39418 44.6548 5.20187 44.0587 4.62062 42.7769C4.18841 42.4044 3.11532 40.6904 2.74272 40.1539C2.74272 39.9452 2.53407 38.4399 2.53407 38.1717C2.53407 37.7991 2.74273 36.0851 2.80235 35.7572L2.96629 35.5486V35.5337ZM12.8476 45.564C14.6211 44.3866 19.2264 39.7664 21.5961 35.2654C23.5336 31.5096 24.7557 26.7851 24.7557 22.6567C24.7557 20.8832 23.8913 20.6149 23.8466 20.6149C23.2504 20.5106 23.1461 20.451 22.8778 20.1827C23.2057 19.5865 24.2192 19.3779 24.4278 19.3779C24.7557 19.3779 26.0375 19.7505 26.3057 19.7505C29.1524 19.7505 29.7932 19.7505 29.7932 22.7015C29.7932 23.5659 29.5846 24.5197 29.1524 26.2933C29.0927 26.4572 28.6754 28.2755 28.6754 28.3351C28.6754 28.5438 28.6754 28.663 28.735 28.812C28.8394 28.976 29.6442 29.6765 29.7485 29.8255C31.5668 32.7765 31.686 32.9404 34.2048 35.5635C35.0096 36.4279 38.974 39.9154 39.6745 40.7202C40.0471 41.1524 45.4721 44.5803 46.4408 45.4894C47.1413 46.1303 47.7226 46.6669 48.423 47.0394C49.2279 47.576 50.4649 48.813 50.4649 49.2899C50.4649 49.5582 50.137 49.7668 49.7644 49.7668L44.9952 49.8265C44.6673 49.8265 43.3259 49.8861 43.0576 49.8265C42.7298 49.7221 41.3884 49.4539 41.1201 49.3495C40.7475 49.1856 39.9875 48.4851 39.4509 48.0082C38.2139 46.8755 37.3644 46.1303 35.4865 43.3433C35.1586 42.8068 33.549 40.5563 33.2807 40.0644C32.5355 38.7231 32.4163 38.6188 31.5072 37.5904C30.8067 36.7856 28.4966 32.8659 27.9601 32.0611H27.6322C26.9913 33.1342 26.4548 34.1476 25.9182 35.2803C25.7543 35.6082 25.1134 37.2625 24.9495 37.5904C24.4726 38.4548 22.699 40.75 21.6706 41.3462C21.2384 42.0467 19.0475 44.1332 18.2875 44.7294C18.0788 44.8933 16.9461 45.5342 16.7374 45.6385C16.3052 45.9068 14.6509 47.1438 14.2634 47.3524C13.399 47.8294 8.25715 50.0351 7.07975 50.0351C6.70715 50.0351 6.4836 49.9755 6.11101 49.7668C6.27495 49.5582 7.45234 49.1707 7.661 49.0217C7.92927 48.8577 9.06197 47.9486 9.33024 47.7846L12.8177 45.5342L12.8476 45.564ZM6.84128 5.27885C7.04993 5.44279 7.85475 6.29231 8.0783 6.41154C8.98744 6.94808 13.548 8.08077 14.4124 8.45337C15.7538 9.09423 17.6913 10.1673 17.6913 12.0005C17.6913 12.1644 16.7822 13.2375 16.5586 13.3418C16.1264 13.6101 14.8894 13.7144 14.5764 13.7144C13.5033 13.7144 8.51052 10.8231 8.19754 10.4952C8.0336 10.3313 6.58793 8.24471 6.64755 5.39808L6.8562 5.29375L6.84128 5.27885ZM21.1043 2.59615C21.3129 2.53654 22.2817 2 22.5052 2C22.8331 2 27.5427 2.43221 27.811 2.47692C28.1836 2.58125 29.3163 2.84952 29.5249 3.55C29.5846 3.71394 29.9572 3.87789 30.1658 3.98221C30.2702 4.14616 30.4341 4.3101 30.4341 4.57837C30.4341 5.17452 28.8245 7.63366 28.4966 8.22981C28.2283 8.76635 27.2596 10.376 26.9466 10.9125C26.887 11.0764 26.2014 12.999 26.0822 13.3269L26.2908 13.5356C27.8408 13.2077 28.1687 13.0587 30.3745 12.1346C31.5519 11.5981 34.5028 10.6889 35.7398 10.3164C38.5865 9.51154 38.5865 9.24327 38.6312 8.11058C38.8995 8.05096 39.7043 7.90193 39.7639 7.90193C39.8682 7.90193 42.0144 9.18366 42.5509 9.67549C42.9831 10.0481 45.174 11.1808 45.3976 11.6577C45.5019 11.926 45.8298 12.5668 45.8298 12.999C45.8298 14.1317 44.9206 14.3404 43.4153 14.7726C43.1471 14.9365 41.7014 15.9053 41.5971 16.1736C40.524 18.8563 39.0187 20.138 36.2913 22.4034C35.1139 23.3721 33.7726 23.6851 32.6995 23.7447C31.5221 23.8491 31.4625 23.849 30.9855 24.2216L30.8216 24.013C31.2538 23.4765 33.2956 21.0024 33.6086 20.4659C34.0408 19.825 35.9187 17.0827 36.2317 16.5014C37.1408 14.9514 37.2004 14.7875 37.9456 13.7591C38.3778 13.1183 38.4226 12.6264 38.4822 11.8813C38.3779 11.8813 38.1543 11.8216 38.0052 11.8216C37.737 11.8216 32.5803 13.4909 32.312 13.5952C31.0302 14.1914 28.8245 15.0409 27.3192 15.0409C26.9913 15.0409 25.5009 14.9365 25.2327 15.0409C24.6961 15.2495 24.2192 16.2779 24.0552 16.6505C23.4591 17.0827 23.3548 17.187 22.9822 17.7832C22.1773 19.0202 20.5081 21.062 19.1668 22.2841C19.0624 22.3885 18.4216 22.8803 18.3023 22.925C17.2293 23.9981 17.125 24.1024 16.2605 24.2067L16.0966 24.0428C16.4245 23.3423 18.3023 20.3914 18.6749 19.7505C20.7615 15.7861 21.149 15.3539 22.4307 11.2255C23.1759 9.51154 24.4726 5.65144 24.3682 4.99567C24.0403 4.78702 22.5947 3.59471 22.4307 3.55C21.0894 3.07308 20.9851 3.01346 20.8807 2.80481L21.0894 2.59615H21.1043Z" fill="white"/>
<path d="M23.6226 78.1288L21.1485 82.6894C19.7475 85.3124 18.3615 87.9504 16.3196 90.1413C16.111 90.4096 15.1423 91.6466 14.9187 91.8552C14.5908 92.1831 13.3091 93.6735 12.9812 93.8971C12.4447 94.2249 10.7754 94.8062 10.4624 94.8062C9.92591 94.8062 9.49368 94.061 9.28503 93.7927C9.1807 93.5245 8.3759 90.5139 8.15234 89.9326L5.94658 84.5076C5.84225 84.135 5.08215 81.7206 5.08215 81.4523C5.08215 81.0797 5.18648 78.2927 6.69177 76.1913C9.97062 71.5264 11.461 69.4249 16.2451 66.6975C19.4048 64.8793 24.2932 63.4783 24.4572 63.4783L28.5855 62.8374C29.8673 62.6288 33.7423 63.21 36.3057 64.447C40.0615 66.2653 40.1211 66.3249 43.2807 70.4533C44.0855 71.4668 46.2317 76.1466 46.2317 79.2466C46.2317 82.6745 46.2913 83.5389 45.3226 87.0264C44.8456 88.7999 42.1033 92.8687 38.7201 94.9701C36.574 96.3115 33.4144 98.249 32.2221 98.3533C31.8942 98.3533 30.6125 98.562 30.2846 98.562C30.1206 98.562 29.9567 98.562 29.6437 98.2341C29.6437 97.4889 29.8524 97.3697 31.5216 96.3562C31.6855 96.2519 35.486 93.0326 37.9601 89.3812C39.361 87.2947 41.8798 82.1379 41.8798 78.8144C41.8798 76.7278 41.8798 74.0898 38.7201 69.5889C37.3192 67.6514 35.2326 66.31 32.9225 65.6692C32.7586 65.6095 29.912 65.3413 29.3307 65.3413C28.9581 65.3413 26.2754 65.6692 25.6346 65.7139C24.8297 65.7735 24.6211 65.9821 24.2932 66.2504C24.3528 66.5783 24.3528 66.7273 24.6211 66.8913C27.3634 69.0971 27.9447 69.574 27.9447 70.5874C27.9447 71.0644 26.2307 73.0019 26.1264 73.2701L23.6076 78.099L23.6226 78.1288ZM12.7874 87.1903C14.0245 87.1903 17.348 80.9158 17.9442 79.4701C18.3168 78.561 20.299 74.4773 20.5673 73.6278C20.8951 72.6144 21.6403 70.1999 21.6403 69.2759C21.6403 68.4115 20.3586 68.0389 20.1351 68.0389C18.5851 68.0389 12.6235 72.0629 10.2687 75.0735C9.46388 76.0869 7.48166 79.1572 7.74993 80.7072C8.34609 83.7624 11.9379 87.2052 12.7874 87.2052V87.1903Z" fill="white"/>
<path d="M1.25186 142.886C1.62446 142.409 1.7288 142.141 2.26534 141.485L3.07014 140.472L3.12976 140.412L3.83025 139.548C4.36678 138.743 5.49948 136.969 6.349 135.628L6.40861 135.568C6.94515 134.435 9.95573 129.83 10.4923 128.861C14.0394 122.855 14.4567 122.214 14.725 120.813C14.5163 120.441 14.4567 120.441 14.0841 120.173C13.4879 119.8 13.3389 119.427 13.1153 118.935L12.5788 117.967H12.2509C10.1048 119.472 9.24034 120.053 6.61726 121.246C6.28937 121.41 4.67975 122.05 4.4711 122.05C4.30716 122.05 3.72591 122.155 3.60667 122.155C3.12975 122.155 2.90619 122.155 2.69754 122.214C2.59321 122.11 2.5336 122.05 2.5336 121.946C2.5336 121.737 2.9062 121.514 2.96582 121.469L4.67975 120.292L4.78409 120.128C5.5889 119.427 6.60237 118.041 7.46679 117.445C8.91246 116.432 13.473 111.379 13.473 110.634C13.1004 110.202 12.4 109.457 12.0721 109.084L12.1317 108.875C12.8769 108.607 13.0408 108.607 14.4418 108.547C14.5461 108.547 15.0826 108.384 15.2466 108.384C15.5745 108.384 16.7519 109.293 17.0201 109.397C17.6163 109.561 19.6432 110.261 19.6432 112.02C19.6432 112.348 19.375 113.302 17.0201 114.643C14.874 115.88 14.6057 116.044 13.4283 117.117V117.281C13.9649 117.445 16.7519 117.877 16.9158 117.922C17.4524 118.19 19.0024 119.368 19.1663 119.86C19.2706 120.128 19.5985 121.037 19.5985 121.26C19.5985 122.17 19.062 122.87 18.3168 123.302C17.8399 123.63 16.4389 126.685 16.0067 127.267C15.8428 127.475 13.6966 130.695 13.6966 131.231C13.6966 131.604 13.7562 131.708 14.4418 132.573C14.6057 132.736 15.4553 134.078 15.4553 134.659C15.4553 135.136 15.187 137.178 15.187 137.61C15.187 138.579 14.9187 142.767 14.9187 143.616C14.9187 143.989 15.1274 146.195 15.1274 146.359C15.1274 146.999 14.5908 154.034 14.4269 154.735C14.3226 155.062 13.786 157.477 12.7576 157.477C12.698 157.477 11.4163 156.776 10.6711 154.854C10.5668 154.645 9.92591 153.617 9.80668 153.408C9.70236 153.199 9.53843 152.812 9.53843 152.439C9.53843 151.843 10.5072 149.22 10.6711 148.624C10.7754 148.087 10.7754 147.923 10.8798 146.269C10.9394 145.941 11.312 144.451 11.3567 144.123C11.5206 143.259 11.8336 139.19 11.8336 138.385C11.8336 137.908 11.8336 134.793 11.774 133.929L11.5654 134.033C10.8649 135.047 8.01823 139.726 7.27303 140.576C7.16871 140.74 3.45764 143.467 2.07158 143.467C1.80331 143.467 1.47544 143.303 1.26678 143.199L1.20715 142.931V142.871L1.25186 142.886ZM16.6028 130.009C17.2437 129.741 18.9129 129.472 19.8817 129.309C20.8504 129.204 24.9788 128.295 25.8432 128.131L30.5081 127.386C31.3129 127.282 34.7408 126.477 35.4413 126.417C35.8139 126.417 40.4341 125.776 42.9529 125.404C43.3851 125.344 45.3673 124.495 45.7399 124.39C46.3807 124.599 49.3913 125.404 49.9726 125.568C50.986 125.896 51.15 126.909 51.15 127.118C51.15 127.282 50.8221 129.473 48.1394 129.473C47.9755 129.473 47.275 129.264 47.1259 129.264C47.0663 129.264 46.3211 129.473 46.1572 129.473C45.725 129.473 43.5788 128.996 43.3702 128.996C43.3106 128.996 41.1644 129.16 41.0154 129.16C37.9601 129.16 36.1269 129.16 35.8586 129.592C36.1269 129.86 37.4682 130.724 37.6769 130.993C39.0182 132.662 39.1822 132.811 39.1822 133.511C39.1822 134.048 39.0779 136.462 39.0779 136.939C39.0779 137.58 39.2865 140.427 39.2865 141.023C39.2865 141.232 39.1822 142.96 39.1822 143.005C39.1822 143.273 39.2865 144.287 39.2865 144.51L39.2269 149.339C39.2269 149.608 39.063 150.681 39.063 150.889C39.063 154.109 39.0629 154.705 37.5129 157.432C37.1851 157.969 36.7677 158.341 36.0673 158.341C35.1581 158.341 34.3533 157.268 33.2803 155.927C32.6841 155.226 32.4755 155.122 30.6572 154.258C30.3889 154.153 29.3754 153.393 29.1072 153.348C28.6302 153.244 26.7971 152.067 26.3649 151.903C25.1875 151.366 25.0235 151.307 24.8596 150.83C25.4557 150.666 25.5601 150.666 25.724 150.666C26.0519 150.666 27.4976 150.83 27.8105 150.83C30.4336 150.83 31.1937 150.725 33.5038 150.293C34.4726 148.892 34.5173 146.478 34.4726 145.032L34.4129 142.513L34.4726 137.893C34.4726 137.461 34.2639 135.21 34.2639 134.942C34.2639 130.59 34.2639 129.845 33.1908 129.845C32.0581 129.845 25.0831 131.291 23.4288 131.827C23.2649 131.887 22.5197 132.423 22.3557 132.423C20.5375 132.423 17.5865 130.978 16.5581 130.337L16.6178 130.009H16.6028ZM21.5807 116.074C22.3259 115.91 22.4899 115.91 23.7865 115.91C26.037 115.91 26.5288 115.746 30.8658 114.673C32.4755 114.241 36.5591 113.227 36.6634 113.168C36.7678 113.108 38.7053 111.886 38.9139 111.767C40.2553 112.199 40.4192 112.244 41.7009 112.467C42.0735 112.527 43.2062 113.272 43.2062 114.285C43.2062 114.449 42.4014 115.731 42.0735 115.895C41.7009 116.059 39.7634 116.804 39.1822 116.804C39.1226 116.804 38.0048 116.64 37.9452 116.64C35.8586 116.64 33.7572 116.968 31.7153 117.609C31.2831 117.713 29.3605 118.473 28.9283 118.578C28.6004 118.637 27.5274 118.906 27.3783 118.906C26.7822 118.906 24.0548 118.101 23.25 117.728C23.0413 117.669 21.7447 116.76 21.4317 116.327L21.5956 116.059L21.5807 116.074Z" fill="white"/>
<path d="M2.11663 181.248C3.62191 180.98 4.59068 180.921 6.14068 180.772C6.34934 180.712 11.5061 179.49 11.8787 179.371C12.8474 179.102 15.2618 178.625 16.4989 178.357L16.6032 178.193L16.5436 177.821C16.2753 177.344 14.7253 175.779 14.6061 175.302C15.1426 175.242 16.1113 175.198 16.6926 175.198C17.2291 175.198 19.8522 175.943 20.508 177.18C20.5676 177.344 20.6123 177.508 20.6719 177.612C21.1042 177.612 23.7272 177.18 23.8316 177.18C24.9046 176.852 25.1133 176.852 27.2594 176.852C29.1969 176.852 29.7335 178.089 29.7335 178.834C29.7335 178.998 29.3013 179.579 29.1969 179.743C28.9883 179.848 27.9599 180.011 27.7513 180.011C27.483 180.011 26.1416 179.743 25.8734 179.743C25.4412 179.743 23.6229 179.639 23.2503 179.639C23.1907 179.639 22.5051 179.743 22.3412 179.743C20.9998 179.743 20.359 179.743 20.2993 180.712C20.2993 180.98 20.0907 182.426 20.0907 182.59C20.0907 182.858 20.1503 182.918 20.3589 182.918C21.432 182.918 23.1013 182.441 24.1743 182.441C24.8748 182.441 28.9436 183.454 28.9436 185.6C28.9436 185.809 28.8392 185.869 28.2431 186.614C28.1388 186.823 27.7662 188.015 27.7662 188.119C27.6618 190.593 27.6022 190.861 27.1253 192.784C27.021 193.157 26.6931 194.93 26.5887 195.258C26.5887 195.258 26.5689 195.278 26.5291 195.318C26.4248 195.914 25.7243 196.823 25.1878 196.823C24.9792 196.614 24.8599 196.555 24.7109 196.555C24.6065 196.555 23.2652 196.823 22.5647 196.927C22.1921 196.987 20.3589 197.136 19.9864 197.255C19.7777 197.687 19.7181 197.896 19.7181 198.164C19.7181 198.492 19.6138 200.042 19.6585 200.311C20.0311 200.311 20.2993 200.311 20.8955 200.102C21.0594 200.042 21.7599 199.625 21.9089 199.625C22.1772 199.625 23.5186 199.461 23.7868 199.461C25.0239 199.461 25.8287 200.161 25.8287 200.474C25.8287 200.743 25.5604 201.488 24.7556 201.875C24.4873 202.039 19.8671 202.889 19.3306 203.157C19.0027 204.066 18.7344 205.199 18.7344 206.049C19.6436 206.049 21.2085 205.408 22.4306 204.916C22.7585 204.811 24.4128 204.752 24.845 204.752C26.1267 204.752 26.559 205.661 26.559 205.721C26.559 205.929 26.2907 206.153 26.2311 206.198C25.9628 207.211 25.6945 207.271 23.444 207.539C23.1162 207.599 21.0892 208.448 20.5974 208.612C20.1205 208.776 17.7508 209.476 17.3186 209.685C17.0503 209.745 15.709 210.058 15.5003 210.162C15.1724 210.326 13.7267 211.131 13.4137 211.295C13.1455 211.399 12.3407 211.727 12.132 211.831C11.9234 212.099 11.8041 212.099 11.1633 212.472C11.0589 212.532 10.7311 213.336 10.5671 213.486C10.1349 213.918 9.92625 214.022 9.55366 214.022C7.7801 214.022 5.58923 212.621 4.82914 212.144C4.39693 211.876 3.65174 211.548 3.15991 211.28C3.1003 211.28 2.95125 211.011 2.89163 210.907C3.26423 210.639 3.48778 210.475 3.86037 210.475C3.9647 210.475 6.06616 210.684 6.11087 210.684C6.27481 210.684 12.2215 208.537 13.1455 208.105C13.682 207.837 16.0964 207.032 16.4243 206.823C16.6926 206.615 16.5287 204.305 16.5883 203.813L16.3796 203.485C15.6791 203.545 12.1916 204.081 12.0873 204.081C11.4912 204.081 8.70414 203.873 8.97241 202.844C9.56856 202.636 12.296 202.203 12.8921 202.039C13.1008 201.98 16.484 201.026 16.5883 201.026C16.5883 200.698 16.4839 199.416 16.4839 199.148C16.4839 198.403 16.484 198.343 16.3796 198.075C15.9027 198.075 15.7388 198.135 13.9056 198.448C13.8013 198.448 12.5642 198.507 12.4599 198.507C12.3556 198.507 11.7594 198.343 11.7147 198.343C11.5508 198.343 10.269 198.343 10.2094 198.239C9.24068 197.27 8.86807 195.616 8.86807 195.497C8.86807 195.377 8.97241 194.632 8.97241 194.528C8.97241 194.423 8.54018 191.786 8.54018 191.517C8.27191 188.775 8.21232 188.462 7.25847 187.657C6.93059 187.448 5.64886 186.584 5.4402 186.375C5.40046 186.306 5.38057 186.236 5.38057 186.167C5.38057 185.839 6.02144 185.794 6.12577 185.794C8.54019 185.794 9.55365 185.526 13.0412 184.512C13.4734 184.408 15.4556 184.08 15.8878 183.916C16.0517 183.857 16.2157 183.812 16.5286 183.648C16.5286 183.38 16.6926 180.861 16.4243 180.593C15.3513 180.652 13.9503 180.921 12.8772 181.457C12.2811 181.561 9.49404 182.471 8.31663 182.858C8.04836 183.186 7.83971 183.499 7.24356 183.499C7.13923 183.499 6.11086 183.439 4.02432 182.694C3.75605 182.59 2.20607 181.621 2.04212 181.457L2.10173 181.248H2.11663ZM8.33153 175.093C12.6835 173.856 16.7522 171.71 20.4037 169.728L19.7628 168.491L19.5989 168.282C19.7628 168.118 19.8075 168.014 20.0311 168.014C20.195 168.014 21.0445 168.178 21.2681 168.178C23.6825 168.178 23.9508 168.178 25.1282 168.655C26.5291 169.251 26.9465 169.4 26.9017 170.16C27.1104 170.592 27.3339 171.024 27.3339 171.397C27.3339 171.606 27.17 172.738 25.6647 172.738C25.4561 172.738 24.1147 172.53 23.9508 172.47C23.6229 172.47 22.9373 172.574 22.5498 172.634C22.1176 172.694 20.3441 173.275 19.9715 173.335H19.4945C19.1219 173.707 18.958 173.767 17.6166 174.139C17.2888 174.244 15.6344 174.84 15.4109 174.84C14.9786 174.899 12.8921 175.376 12.5195 175.436C11.7743 175.54 10.5373 175.645 9.89644 175.645C9.56855 175.645 8.65943 175.54 8.34645 175.317V175.108L8.33153 175.093ZM16.3349 185.869C14.7849 186.033 13.8162 186.077 12.5791 186.51C12.2065 186.614 10.269 187.255 10.1647 187.374C10.0604 187.493 10.0604 187.583 10.0604 187.642C10.2243 187.806 10.4926 188.283 10.5969 188.551C10.7609 189.52 10.8056 189.624 11.0739 190.593C12.2513 190.593 15.6344 189.729 16.3796 189.52C16.484 188.82 16.4839 188.611 16.4839 187.806V186.033L16.32 185.869H16.3349ZM12.4152 196.927L13.7565 196.599C14.1887 196.436 16.0666 195.959 16.3796 195.795C16.4392 195.094 16.4392 192.575 16.2157 191.83C15.5748 191.83 13.9652 191.994 13.369 192.158C12.4003 192.486 12.3556 192.486 11.2825 192.486C11.1782 192.65 11.0739 192.754 11.1186 192.918L12.132 196.838L12.4003 196.942L12.4152 196.927ZM19.5989 216.615C21.1489 215.647 22.1176 215.065 23.6825 213.128C25.62 210.713 27.8705 207.926 30.121 202.993C31.2984 200.311 32.1628 198.433 32.744 196.555C33.1166 195.318 34.7263 190.385 34.7859 189.639C34.5772 189.639 33.0719 189.803 32.8484 189.848C32.6844 189.908 32.2075 190.116 32.1032 190.116C31.0897 190.116 29.1522 189.475 28.1835 188.671L28.2431 188.507C28.7796 188.238 34.6219 187.225 35.5907 186.688C36.2912 184.706 38.2138 173.171 38.2138 171.621C38.2138 170.98 37.8859 170.816 36.7085 170.175C36.6042 170.115 35.6354 168.834 35.6354 168.506C35.7397 168.506 36.008 168.401 36.2315 168.401C36.3955 168.401 37.096 168.67 37.245 168.67L41.9695 169.474C42.8787 169.638 43.9518 170.22 43.9518 171.352C43.9518 172.485 43.2513 172.798 42.8787 172.962C42.7743 173.558 42.2825 176.181 42.1782 176.718C42.1186 177.046 41.6417 178.327 41.6417 178.596C41.582 179.028 40.1364 185.034 40.3599 185.511C40.7921 185.451 43.4152 184.915 44.0114 184.87C44.22 184.274 44.3393 184.17 44.6522 183.737C46.3215 183.573 47.2306 184.11 49.2724 185.72C49.8686 186.197 49.9133 186.629 49.9133 187.27C49.5854 187.538 49.3171 187.806 49.2724 188.238C49.2128 188.835 48.6316 191.666 48.6316 192.098C48.6316 192.799 48.1993 195.69 48.1546 196.286C48.0503 198.805 45.9489 207.658 45.6359 208.672C44.995 210.49 43.758 213.441 41.5522 215.274C41.3883 215.378 40.9114 215.915 40.7474 216.019C40.6431 216.079 40.4791 216.124 40.0022 216.287C39.7339 216.556 39.6296 216.556 39.4657 216.556C38.6013 216.556 37.9157 215.483 37.4239 214.469C37.3642 214.365 36.8277 213.724 36.783 213.56C36.6191 213.232 35.8142 211.846 35.7099 211.518C35.5013 211.041 35.382 210.982 34.4282 210.341C34.4282 210.132 34.4282 210.073 34.5921 209.864C35.1287 209.864 37.5431 210.341 38.0796 210.4C38.4075 210.46 39.8979 210.833 40.2258 210.833C40.4941 210.833 40.7027 210.564 40.971 209.968C41.1349 209.596 42.4166 206.272 42.4763 206.004L43.6537 201.816C43.8623 201.071 44.2945 197.687 44.4585 196.555C44.5628 196.078 44.9354 189.103 44.9354 188.879C44.9354 188.179 44.8758 187.702 44.8311 187.27C44.6671 187.165 44.5032 187.106 44.2945 187.106C44.1902 187.106 40.1066 187.806 39.8979 187.97C39.57 188.238 39.0931 190.012 38.8844 190.325C38.2883 191.234 38.2436 191.338 38.1392 192.307C38.0796 192.948 37.9753 193.052 37.394 194.021C37.2897 194.185 37.0662 195.198 36.9618 195.362C36.9022 195.631 36.2614 196.763 36.2166 197.032C35.7844 198.537 34.1301 202.024 33.2061 203.798C31.8051 206.421 29.5099 210.177 26.9763 212.174C25.7392 213.456 21.8195 216.899 20.4335 216.899C20.2248 216.899 19.8373 216.839 19.6287 216.794V216.63L19.5989 216.615ZM19.9715 194.886L20.1801 194.99C21.1489 194.781 21.5215 194.722 21.7897 194.453C22.058 194.349 23.5037 194.349 23.7719 194.289C24.0998 193.589 24.3681 190.593 24.3681 190.161V186.077C24.3681 184.468 24.3681 184.304 23.6229 184.304C23.0864 184.304 20.7315 184.945 20.2397 185.004L20.0311 185.377V188.119C20.2993 188.223 20.4633 188.223 20.6719 188.223C22.0729 188.223 22.2815 188.223 23.0267 188.864V189.192C22.8181 189.401 22.8181 189.461 22.4902 190.206C22.1623 190.906 20.7763 191.011 20.2397 191.487L19.9715 194.602V194.886Z" fill="white"/>
<path d="M13.6522 259.047C14.0844 259.315 14.2931 259.524 14.9935 260.284C15.2022 260.492 17.5719 262.326 17.8849 262.43C18.2575 262.534 18.6301 262.594 19.3902 262.758C23.0416 261.252 26.0373 250.477 26.0373 247.526C26.0373 246.289 26.0373 244.247 24.532 243.398C24.4724 243.398 23.0864 242.593 21.6407 242.593C19.1219 242.593 18.6301 243.502 17.9892 244.843L16.0517 249.031C15.4556 250.268 12.5642 255.41 12.1916 256.602C11.2825 259.345 9.61327 263.041 8.9724 263.786C8.22721 264.755 7.4224 264.859 7.15413 264.859C6.51326 264.859 5.8724 264.159 5.8724 262.385C5.8724 262.013 6.34932 259.062 7.15413 257.661C7.4224 257.124 8.70412 254.501 8.86806 254.337C9.94114 253.16 13.533 246.721 13.6969 245.425C13.2647 245.484 12.7878 245.588 12.1916 245.857C10.746 246.602 10.582 246.721 10.1051 246.721C9.13633 246.721 6.55797 245.812 5.75316 245.38C5.48489 245.275 4.94836 244.575 4.94836 243.875C4.94836 243.338 5.42529 242.801 5.8575 242.801C6.39404 242.801 8.80845 242.906 9.28537 242.906C9.71758 242.906 10.5224 242.906 11.5955 242.578C12.3407 242.369 12.6089 242.31 12.9964 242.205C15.6791 241.296 15.9474 241.192 16.3796 240.223C17.0205 238.718 18.0489 236.363 18.7344 234.858C18.7344 234.753 20.0758 231.311 20.2844 229.82C20.6123 227.197 20.6123 226.929 21.2532 226.929C22.9671 226.929 23.9955 230.685 23.9955 231.698C23.9955 233.74 22.1772 236.795 20.9849 238.777C20.7166 239.21 20.7166 239.314 20.7166 239.791C21.2532 239.731 23.4589 239.195 23.8763 239.195C24.0402 239.195 26.3503 239.523 27.3041 240.596C29.9272 243.606 29.9272 245.052 29.9272 246.826C29.9272 248.376 29.8676 248.644 29.3311 251.282C29.1671 252.027 27.9301 255.842 27.7811 256.588C27.5128 257.601 26.1714 262.549 26.1118 262.758C22.7287 270.001 18.8685 270.105 18.7642 270.105C17.6911 270.105 17.4825 269.405 16.6181 266.886C16.4094 266.35 14.5762 262.966 14.3676 262.653C13.9354 262.013 13.1902 260.984 13.1902 259.911C13.1902 259.702 13.3541 259.375 13.3988 259.166L13.6075 259.062L13.6522 259.047ZM35.5907 236.944C36.3359 236.944 36.4998 237.049 38.169 237.809C38.4373 237.913 39.7191 238.286 39.9426 238.45C45.9489 242.101 46.9772 242.801 48.3633 245.097C49.6003 247.138 49.6003 248.793 49.6003 251.103C49.6003 252.116 48.8551 253.786 47.8267 253.786C47.4541 253.786 46.4258 252.444 46.1575 252.28C45.7849 252.072 44.0114 251.684 43.6835 251.535C43.0873 251.326 42.7743 251.163 42.7743 250.626C42.7743 250.358 42.9383 250.194 43.0426 250.089C44.1753 249.449 44.3243 249.389 44.3243 249.121C44.3243 248.152 42.5061 246.17 41.2094 244.724C39.2272 242.518 38.6311 241.937 37.394 240.804C37.0662 240.536 35.5758 238.986 35.1883 238.822C34.7561 238.554 34.3835 238.345 34.2791 237.749C34.1748 237.004 35.4118 236.944 35.5609 236.944H35.5907ZM38.3777 228.315C39.1825 228.315 43.7431 230.297 44.2796 230.67C45.9936 232.011 46.4854 233.516 46.4854 235.171C46.4854 235.499 45.9489 235.871 45.6806 235.871C45.0397 235.871 44.3989 235.603 44.2796 235.499C43.9517 235.335 37.0364 229.224 37.0364 228.792C37.0364 228.583 37.1407 228.419 37.4686 228.36C37.7964 228.36 38.0647 228.3 38.3777 228.3V228.315ZM47.9758 229.865C47.7671 229.701 46.5748 228.851 46.4258 228.732C44.4883 227.331 42.8787 225.573 42.8787 225.349C42.8787 225.081 43.2513 224.812 43.5792 224.812C44.8162 224.812 47.7671 225.617 50.2263 227.123C51.0311 227.6 51.9998 230.238 51.9998 230.938C51.9998 231.534 51.7912 231.743 51.359 232.071C49.6897 231.743 48.9445 230.938 47.9758 229.865Z" fill="white"/>
<path d="M3.50258 287.111C3.77085 287.051 5.27614 286.902 5.4848 286.902C6.99009 286.902 7.69057 287.498 8.00355 287.811C8.21221 287.752 10.2093 287.439 10.418 287.379L14.9785 286.306C15.4108 286.202 17.6016 285.501 17.7656 285.501C19.5838 285.501 19.8074 285.501 20.9848 286.574C21.6257 287.17 22.2218 287.707 22.2218 288.348C22.2218 288.676 22.1622 288.72 21.417 289.48C21.2531 289.644 21.1487 291.999 21.1487 292.104C21.1487 292.372 21.2083 292.804 21.2083 293.072C21.2083 293.668 20.9401 296.128 20.9401 296.619C20.9401 297.424 20.8805 301.016 20.8805 301.776L20.8209 306.337C20.8209 306.769 20.6569 309.019 20.6569 309.183C20.6569 309.452 20.6569 317.44 18.943 317.44C17.4973 317.44 16.9011 315.458 16.6925 314.698C16.6329 314.43 16.4242 314.221 16.0963 314.221C15.7684 314.221 10.0305 315.831 9.18095 316.963C8.64441 317.872 8.5848 317.932 8.04826 317.932C7.67567 317.932 7.61605 317.872 6.81124 317.291C6.70691 316.859 6.17037 315.354 5.94681 315.041C6.15547 313.863 6.42372 309.571 6.42372 308.87C6.42372 304.414 6.42372 303.878 6.09584 299.541C6.09584 299.213 6.03623 298.84 6.03623 298.14C6.03623 295.189 6.03622 292.029 5.5593 290.092C5.4202 289.873 5.24137 289.55 5.02278 289.123C5.02278 289.123 4.91844 289.018 4.3819 288.482L3.41316 287.513L3.47277 287.141L3.50258 287.111ZM9.79201 313.237C10.4925 313.342 12.3108 312.909 13.2795 312.641C14.9487 312.209 15.1574 312.105 16.9309 312.105C17.1396 312.105 17.2588 311.672 17.2588 311.359C17.2588 310.182 17.5271 304.921 17.5271 303.952C17.5271 303.475 17.4675 301.374 17.4675 300.942C17.3632 300.673 17.2588 300.569 17.0353 300.569C16.9757 300.569 16.0665 300.897 15.5896 301.001C15.4257 301.061 13.2795 301.374 12.8473 301.478C12.1468 301.642 11.8785 301.642 10.9098 301.538C10.2689 301.105 10.1646 301.061 10.0007 301.061C9.67278 301.061 9.4045 301.269 9.4045 301.761C9.4045 301.97 9.46412 303.103 9.46412 303.311C9.46412 304.116 9.30018 307.604 9.30018 308.304C9.30018 308.841 9.35979 311.315 9.35979 311.792C9.46411 312.537 9.56845 313.029 9.79201 313.237ZM14.8742 297.946C15.0381 298.006 15.3511 298.11 15.4704 298.11C15.6343 298.11 16.2752 297.842 16.3348 297.842C16.4987 297.842 16.9757 298.05 17.2439 298.05C17.3483 297.573 17.4079 297.35 17.4079 296.873C17.4079 295.591 17.3483 288.825 16.9757 287.96C15.5747 288.02 9.46412 289.51 9.46412 290.434C9.46412 290.598 9.62807 291.716 9.62807 291.984C9.62807 293.057 9.35979 297.678 9.35979 298.587C9.35979 299.287 9.89633 299.555 10.4329 299.555C11.1333 299.555 13.98 298.318 14.6208 298.155L14.8891 297.946H14.8742ZM41.9694 306.754C41.7608 306.814 40.792 307.395 40.5685 307.455C40.1959 307.559 39.704 307.663 39.0185 307.782L34.3536 308.647C34.1449 308.706 33.0122 309.124 32.7439 309.124C32.2074 309.124 31.9987 309.064 30.7617 308.647C30.7021 308.587 30.5978 308.587 30.5531 308.587C29.8526 308.587 29.48 312.447 29.3757 312.82C29.2713 313.029 28.8391 314.057 28.7795 314.266C28.1834 316.307 26.7377 319.258 25.6646 321.032C25.3367 321.628 22.6093 324.847 22.0728 325.593C20.791 327.262 18.1083 329.408 15.9026 329.408C15.53 329.408 15.2617 329.244 15.2617 328.976C15.2617 328.648 17.2439 327.53 17.6165 327.262C19.0622 325.92 21.8045 322.105 22.1771 321.256L24.055 316.904C24.3829 316.099 25.8285 311.493 26.0372 310.897L26.9016 306.232C27.1699 304.727 27.7064 299.421 27.9747 295.979C28.1386 294.16 28.1386 293.46 28.1386 287.349C28.1386 286.917 28.1386 285.471 27.4978 285.203C26.4843 284.83 25.1877 283.862 25.0834 283.489C25.6199 282.953 25.9478 282.684 27.8257 282.684C28.4218 282.684 29.9718 283.117 30.2401 283.43C30.9406 284.398 31.0449 284.503 31.4175 284.503C31.4771 284.503 35.2776 283.638 36.0377 283.534C38.0199 283.206 39.093 282.938 39.6295 282.789L41.1348 282.416C41.6117 282.043 41.9396 281.88 42.5358 281.88C42.968 281.88 43.4449 281.984 43.8175 282.207C47.7819 284.19 47.7819 284.726 47.7372 286.068C46.7685 287.081 46.6641 287.2 46.5002 287.468C46.3959 287.677 46.2915 289.242 46.2915 289.51C46.2915 289.719 46.3959 290.747 46.3959 290.956C46.3959 291.656 46.2915 296.113 46.2915 297.067L46.3512 301.523L46.0233 304.042L46.0829 308.438C46.0829 308.706 45.9786 311.821 45.9786 312.462C45.9189 313.968 45.9189 315.473 45.9189 316.963C45.9189 317.127 46.0233 318.737 46.0233 319.05C46.0233 319.154 45.9189 319.75 45.9189 319.855L46.0233 323.133C46.0233 323.461 44.9502 326.994 44.7863 327.262C44.3093 328.067 43.0127 329.781 42.2675 329.781C42.1036 329.781 41.3584 329.348 41.1348 329.304C40.8665 328.871 39.7338 326.561 39.4209 326.084C38.8843 325.116 38.1838 324.266 37.1704 323.73C36.5742 323.461 35.2329 322.716 34.6963 322.284C34.4281 322.12 32.9824 321.583 32.7141 321.375V321.106C33.8915 321.106 34.0555 321.166 36.142 321.643C36.4103 321.703 37.7516 321.747 38.0795 321.807C39.5848 322.075 39.7935 322.016 41.731 321.971C41.8949 321.598 41.9396 321.434 41.9396 320.793C41.9396 320.525 41.88 319.243 41.88 318.975C41.88 318.767 42.0439 317.693 42.0439 317.47C42.0439 317.142 41.9843 315.696 41.9843 315.383C41.9843 314.743 42.2526 311.359 42.2526 310.614C42.2526 310.242 42.1483 307.559 42.1483 306.963L41.9843 306.799L41.9694 306.754ZM35.5906 285.829C34.1449 286.157 32.431 287.006 32.2074 287.334C32.1478 287.811 32.1478 287.975 32.1478 289.108C32.1478 289.54 31.8795 291.418 31.8795 291.895C31.8795 292.327 32.0435 294.473 32.0435 294.95C32.0435 295.382 32.0435 295.427 32.1478 295.755C33.7574 295.815 36.4997 294.786 37.1853 294.518C37.5132 294.414 38.4223 293.981 38.6906 293.877C40.7324 293.877 41.5372 294.682 42.1781 295.323C42.0738 295.859 42.0141 295.964 41.3136 296.873C41.105 296.932 40.0766 297.305 39.868 297.35C39.3911 297.514 37.3492 297.722 36.4848 297.782C36.1122 297.782 34.279 298.155 33.8617 298.155C33.5935 298.155 32.2521 297.886 31.9242 297.946C31.7603 298.751 31.492 302.834 31.2237 303.743C30.9555 304.757 30.8959 304.876 30.8511 305.83L31.0151 306.039C31.6112 306.039 34.2939 305.338 34.8752 305.174C36.3805 304.906 36.5444 304.742 37.1257 304.042C37.1853 303.982 37.6026 303.878 37.7665 303.878C37.8261 303.878 41.731 304.846 42.0588 304.846C42.2228 304.518 42.2228 303.982 42.2228 303.878V298.14L42.2824 295.993V290.792C42.342 290.36 42.342 288.214 42.342 287.573C42.342 287.409 42.4463 285.263 42.4463 285.158C42.4463 284.89 42.342 284.518 41.9098 284.518C41.5372 284.518 39.5997 284.994 39.1675 284.994C38.7353 285.054 36.8574 285.427 36.4252 285.427L35.5608 285.799L35.5906 285.829Z" fill="white"/>
<path d="M7.04964 362.986C7.04964 362.986 9.52368 353.806 9.52368 353.224C9.52368 352.896 8.4506 351.346 7.58618 350.81C6.84099 350.869 6.40878 350.914 5.87224 350.81C5.39532 350.75 3.56214 349.737 3.18955 349.573C3.0256 349.468 2.44435 348.977 2.28041 348.872C2.17608 348.768 2.11647 348.708 2.11647 348.544C2.11647 348.381 2.22079 348.276 2.32512 348.276C2.38474 348.276 4.41166 348.649 4.84387 348.649C5.54436 348.649 13.9054 346.935 14.5016 346.771C14.9785 346.667 17.0799 345.43 17.1843 345.43C17.2439 345.43 19.1218 345.966 19.4944 346.07C20.8357 346.398 20.9996 346.98 21.2083 347.68C21.5809 347.948 22.654 348.917 23.2949 349.498C23.8314 349.603 23.9357 349.603 24.0997 349.603C24.3083 349.603 30.3742 348.366 30.8064 348.261C31.179 347.188 31.179 346.92 31.3429 344.237C31.3429 344.073 31.5069 343.373 31.5069 343.224C31.5069 343.015 31.2982 342.315 29.7929 341.778C29.1968 341.569 28.4516 341.301 28.4516 340.914C28.4516 340.437 30.6574 340.005 31.4026 339.945C31.5665 339.885 32.3713 339.617 32.5799 339.617C32.8482 339.617 35.6949 341.286 36.0078 341.495C36.2165 341.659 36.8126 342.031 36.8126 342.836C36.8126 343.268 35.7992 344.923 35.7396 345.251C35.6352 345.623 35.203 347.188 35.1434 347.501C35.2477 347.561 35.3074 347.561 35.4117 347.561C35.5756 347.561 41.105 346.86 41.254 346.756C41.7309 346.592 44.5775 345.519 44.8011 345.519C46.1425 345.519 49.8982 348.366 49.8982 350.78C49.8982 351.913 49.0934 352.39 47.8564 352.39C47.5285 352.39 46.4107 351.957 46.1425 351.957C45.8742 351.957 44.6968 352.39 44.4285 352.434C42.9232 352.807 42.7146 352.867 41.6862 353.716C40.8218 353.925 40.7174 353.925 40.2852 354.193C40.8814 354.789 41.254 355.639 41.254 355.803C41.254 355.907 41.254 356.071 40.9261 356.28C40.8665 356.548 40.7622 357.248 40.6578 357.561C40.2256 358.694 40.1809 358.798 40.0617 359.275C40.2703 359.275 40.8069 359.275 40.9708 359.171C41.3434 359.067 43.5939 358.306 43.8622 358.202C44.8756 358.202 47.29 358.798 47.29 359.648C47.29 360.557 44.3987 360.989 43.8622 361.049C40.0021 361.421 39.5699 361.421 38.929 361.749C39.0929 361.958 40.0021 362.822 40.166 362.986C40.3747 363.255 40.4939 363.463 40.4939 363.731C40.4939 363.895 40.3896 364.968 40.3896 365.132C40.3896 365.296 40.3896 365.401 40.4939 365.937L40.7025 366.101C40.9112 366.101 41.8352 365.565 42.0439 365.565C42.6401 365.565 45.7997 365.565 45.7997 367.01C45.7997 367.115 45.4718 368.62 43.6535 368.62C43.2809 368.62 41.6713 368.56 41.3434 368.62C41.0155 368.62 40.7473 368.68 40.2703 368.829C40.1064 369.469 39.7934 372.376 39.8977 373.553L40.0617 373.657C41.9992 373.598 42.3718 373.33 42.953 372.912C43.2213 372.912 46.4405 373.449 46.4405 374.313C46.4405 375.222 45.0396 375.595 44.354 375.655C41.3434 375.759 41.0304 375.818 39.7338 376.087C39.6742 376.295 39.1377 380.439 39.1377 380.588C39.1377 380.796 39.1377 380.96 39.3463 381.333C39.9425 381.273 43.9069 381.005 44.1751 380.96C44.503 380.901 45.7848 380.364 46.053 380.364C46.8579 380.364 47.2304 380.692 47.7223 381.005C48.0949 381.273 50.0324 382.287 50.3453 382.555C50.405 382.883 49.7045 383.956 49.5405 384.165C49.2127 384.433 47.9905 384.701 47.454 384.701C46.9174 384.701 44.6074 383.896 44.1304 383.837C42.0886 383.569 41.8203 383.509 41.5074 383.509C40.2703 383.509 35.4415 384.254 33.1314 384.582C32.9674 384.642 32.2223 384.955 32.0583 384.955C31.8944 384.955 31.1939 384.746 31.0896 384.746C30.9256 384.746 30.717 384.806 30.553 384.85C30.4487 387.265 30.4487 387.533 29.9569 387.965C29.7482 388.174 28.7199 388.77 28.5112 388.934C27.3338 388.725 27.1102 388.189 26.2011 386.519L26.3054 385.238C26.7824 384.269 27.0059 383.524 27.0506 382.346C27.155 381.065 27.6915 375.207 27.6915 374.298C27.6915 373.926 27.9001 372.316 27.9001 371.944C27.9001 371.78 27.7958 370.975 27.7958 370.811C27.7958 370.17 27.9598 367.264 27.9598 366.682C27.9598 365.773 27.9598 365.669 27.9001 365.401C26.8271 366.414 25.6944 368.411 24.517 370.498C24.1444 371.198 23.2352 372.212 22.2069 372.912C22.0429 373.017 21.6703 373.717 21.5064 373.777C21.2977 373.985 17.9146 375.714 17.5867 375.863C17.2141 376.4 17.1545 376.504 17.1097 376.996L17.2737 377.264C17.8102 377.368 18.1828 377.428 18.4064 377.696C18.466 377.756 19.1516 378.769 19.1516 378.978C19.1516 379.679 17.7059 380.111 17.065 380.111C15.6641 380.111 15.4554 380.17 13.4136 380.543C13.2496 380.603 12.4448 380.603 12.3405 380.707C12.2362 380.767 12.2362 380.916 12.2362 381.035C12.2362 381.154 12.3405 382.54 12.3405 382.853C12.3405 383.121 12.2809 383.658 12.2362 383.926C11.4314 385.595 11.1035 386.236 10.4179 386.236C9.44917 386.236 8.27177 383.121 8.27177 381.944C8.27177 381.735 8.48042 380.394 8.48042 380.23C8.48042 379.962 8.42081 378.725 8.42081 378.516C8.42081 378.084 8.7487 376.31 8.7487 375.997C8.7487 372.45 8.7487 371.168 8.3761 369.991C7.89918 371.005 6.22993 375.461 5.79772 376.37C4.62032 379.112 4.516 379.321 1.71408 381.571C1.50542 381.735 0.968873 382.585 0.745315 382.644C0.640988 382.644 0.477056 382.704 0.10446 382.704L0.00012207 382.436C0.164064 381.959 1.71407 378.68 2.14628 377.816C2.78715 376.474 3.48762 375.029 3.65156 374.432C4.72464 370.945 6.12561 365.907 6.4982 364.566L6.97514 362.956L7.04964 362.986ZM9.50879 366.086C10.8501 367.264 11.0141 367.592 11.2227 368.232C11.5506 369.037 11.8189 372.152 11.8189 372.689C11.8189 374.194 11.8189 374.939 11.9232 376.385C11.9232 376.593 12.0871 377.458 12.0871 377.622C12.415 377.726 14.3376 377.413 14.442 377.294C14.8742 376.757 15.679 372.569 15.679 371.66C15.679 371.288 15.8876 369.514 15.8876 369.142C15.8876 368.545 15.9472 365.55 15.9472 365.445C15.8429 365.013 15.515 364.805 14.9338 364.805C14.4569 364.805 14.1886 364.909 12.1915 365.445C11.7593 365.55 9.94099 365.714 9.56839 365.878L9.50879 366.086ZM19.4944 368.352C19.3304 368.784 18.5256 372.54 18.2573 373.285C18.153 373.553 17.9295 374.358 17.9295 374.418C17.9295 374.477 17.9891 374.581 18.0934 374.745C18.2573 374.581 19.1069 373.777 19.2708 373.613C19.4348 373.344 19.703 372.912 19.867 372.808C21.2083 370.721 22.0131 369.32 23.1458 367.115C24.0102 365.505 24.6511 364.223 25.3963 363.091C25.4559 362.986 30.0612 351.823 30.2251 350.482C29.5247 350.318 28.2429 350.691 27.5424 350.855C25.6049 351.391 25.6049 351.331 24.0549 351.331C23.891 351.928 23.6227 354.551 23.4141 355.087C23.3098 355.356 22.9372 356.593 22.8775 356.861C22.5497 357.502 21.3722 359.752 20.6271 359.752C20.0309 359.752 20.0309 359.693 18.9578 358.083C18.8982 357.755 18.5852 356.101 18.5852 355.832C18.5852 355.192 19.2261 354.595 19.8223 354.163C20.2992 353.254 21.3722 350.348 21.3722 349.871C21.3722 349.603 20.7761 348.634 20.7314 348.47C20.4631 348.47 19.3304 348.679 19.0622 348.679C17.8251 348.679 11.7593 349.588 10.2689 350.288C10.4775 350.452 11.7742 350.884 11.9828 351.033C12.579 351.406 13.4881 352.27 13.4881 352.747C13.4881 353.075 13.0559 354.297 13.0112 354.461L11.6102 359.454C11.4463 359.991 10.9098 361.973 10.7011 362.345C10.4825 362.812 10.2838 363.349 10.1049 363.955C10.1049 363.955 10.2093 364.119 10.3136 364.119C10.3732 364.119 14.3973 362.882 14.5463 362.778C14.9189 362.614 14.9785 362.569 15.1424 361.973C15.2468 361.973 15.4703 361.868 15.6194 361.868C19.5391 361.868 21.253 364.179 21.253 364.76C21.253 365.088 20.4482 365.997 20.3439 366.206L19.4795 368.292L19.4944 368.352ZM36.44 357.83C36.44 356.011 36.4401 355.311 35.6352 354.938C35.0391 354.67 34.3535 354.193 34.5622 353.537C34.7708 353.537 35.6948 353.329 35.9035 353.209C36.1122 353.269 37.1405 353.15 37.3492 353.15C37.5131 353.15 39.1227 353.627 39.2867 353.746C41.3285 352.732 42.4463 350.795 43.5194 348.708C43.1915 348.708 42.6102 348.604 42.178 348.604C41.7458 348.604 36.1718 349.141 34.9348 349.573C34.7708 349.677 33.966 349.841 33.8617 349.945C33.8021 350.005 32.2521 354.238 32.0881 355.043C31.9242 355.952 30.1059 360.468 30.1059 360.572C30.1059 361.049 30.4338 361.168 30.7468 361.168C30.9554 361.168 35.8439 360.259 36.3208 359.991C36.4252 359.35 36.4251 359.29 36.4251 357.844L36.44 357.83ZM33.9213 376.772C33.7127 376.772 32.1477 376.608 31.8348 376.564C31.6261 376.504 30.7617 376.236 30.553 376.236C30.553 376.34 30.4487 376.668 30.4487 376.772C30.4487 377.413 30.3444 380.528 30.3891 381.124C30.553 382.361 30.553 382.466 30.866 382.466C31.179 382.466 36.0674 381.825 36.3953 381.72C36.604 381.661 36.7679 381.288 36.7679 380.975C36.7679 380.707 36.4997 378.62 36.4997 378.233C36.4997 377.369 36.4997 377.264 36.3953 376.564C36.0227 376.564 34.3088 376.772 33.9213 376.772ZM30.7021 375.207H30.9703L35.4266 374.567C36.291 374.462 36.291 374.298 36.3953 373.389C36.4549 372.748 36.6636 370.379 36.6636 369.738C36.6636 369.678 36.5593 369.469 36.4997 369.365C35.6352 369.365 35.5309 369.365 35.3223 369.425C35.054 369.425 33.9809 369.633 33.7723 369.633C33.3401 369.633 31.5218 369.201 31.1492 369.201C30.9852 369.201 30.8809 369.261 30.7766 369.41L30.6723 374.03L30.6127 374.999L30.717 375.207H30.7021ZM30.866 362.927C30.866 363.091 30.7617 364.432 30.7617 364.536C30.7617 364.7 30.866 365.401 30.866 365.55C30.866 365.654 30.8064 366.146 30.8064 366.355C30.866 366.518 30.9107 366.682 30.9107 366.787C30.9107 366.951 30.8511 367.696 30.8511 367.86C31.015 367.86 31.328 367.964 31.5516 367.964C31.8795 367.964 34.9348 367.428 35.5756 367.368C36.5891 367.264 36.6487 366.891 36.6487 366.235C36.6487 362.912 36.6487 362.539 35.367 362.539C34.7708 362.539 34.1896 362.703 33.0122 363.016C32.9078 362.956 31.3429 362.748 30.9703 362.748L30.866 362.912V362.927Z" fill="white"/>
<path d="M11.7148 425.538C11.7148 425.97 11.9831 427.892 12.46 427.892C12.6686 427.892 12.7283 427.729 12.8326 427.565C13.1605 426.924 14.8148 423.541 15.6792 423.213L15.9475 423.421C16.0518 423.898 15.9475 424.703 15.8432 424.867L14.3975 429.264C14.2932 429.636 13.5331 432.751 13.5331 433.66C13.5331 434.137 13.6374 436.283 13.6374 436.775C13.6374 438.325 12.9369 439.354 12.4004 439.354C11.3273 439.354 7.73547 435.926 7.73547 431.946C7.73547 431.738 7.94413 430.769 7.94413 430.545C8.04845 428.876 8.04846 427.758 8.04846 424.852C8.04846 424.42 8.25712 422.333 8.25712 421.842C8.25712 420.977 8.46576 419.099 8.52538 418.622C8.58499 418.026 8.73404 415.567 8.79366 415.03L9.16625 409.933L9.3302 409.024C9.3302 408.652 9.49414 406.982 9.49414 406.669C9.49414 406.237 9.3302 404.419 9.3302 404.091C9.3302 403.495 8.46577 401.2 8.46577 400.663C8.46577 400.231 8.89799 399.963 9.3302 399.963C10.2393 399.963 10.5076 400.335 12.3855 403.51C12.922 404.419 13.2499 405.224 13.2499 406.938C13.2499 408.07 13.1456 408.443 12.4451 412.139C12.0725 414.077 11.7446 420.515 11.7446 421.052L11.685 425.508L11.7148 425.538ZM30.2254 405.581C34.4134 403.376 39.2422 402.571 39.7192 402.571C40.2557 402.571 45.2932 403.808 45.2932 406.327C45.2932 407.4 44.861 407.504 43.3557 407.728C40.8369 408.1 39.9725 408.696 38.0946 409.933C37.4985 410.306 35.7398 411.752 35.2033 412.02C35.099 412.079 34.9946 412.124 34.7711 412.124C34.3985 412.124 34.2345 411.692 34.2345 411.483C34.2345 411.215 34.7711 410.142 34.8307 409.933C35.7398 408.756 35.8441 408.592 35.9037 407.951C35.5312 407.787 35.4268 407.787 35.2629 407.787C34.3985 407.787 27.4235 409.456 27.2148 409.456C26.5143 409.456 26.5143 408.756 26.5143 408.592C26.7826 407.891 29.4653 405.969 30.2105 405.581H30.2254ZM35.3225 432.781C33.2807 432.617 29.8975 431.812 28.6158 430.426C28.0792 429.89 27.2148 428.444 27.2148 427.475C27.2148 427.103 27.1105 425.538 27.1105 425.225C27.1105 424.42 27.4831 423.511 28.1836 423.511C28.8244 423.511 28.884 423.839 29.1523 426.521C29.4206 428.876 33.7129 428.876 34.3538 428.876C34.9499 428.876 36.8725 428.667 37.7369 428.34C38.5417 428.071 38.81 427.967 39.5552 427.967C40.6283 427.967 43.5196 428.399 43.7432 428.563C46.4855 430.068 46.7538 430.277 46.7538 431.142C46.7538 431.305 46.7538 432.11 45.8894 432.423C45.3528 432.632 43.311 433.228 41.5374 433.228C41.0605 433.228 40.8369 433.228 39.9278 433.168L35.3076 432.796L35.3225 432.781Z" fill="white"/>
<path d="M16.3788 469.862C15.8423 471.263 13.9644 477.433 13.3235 478.551C13.1149 478.923 12.787 479.355 12.1461 479.355C10.5961 479.355 10.5961 476.077 10.5961 475.391C10.5961 474.482 10.7005 471.904 11.237 471.158C12.2058 469.817 13.5471 467.075 14.2923 465.361C14.3966 465.092 15.1567 463.215 15.4697 462.678L15.4101 462.41C15.0822 462.35 13.5322 462.082 13.2043 461.978C11.4307 461.337 9.77641 460.741 9.77641 460.04C9.77641 459.831 10.0447 459.504 10.2533 459.504C13.1447 459.504 13.4726 459.504 15.0226 459.071C15.3505 458.967 16.8408 458.743 17.1091 458.594C17.3178 458.326 17.6457 457.849 17.7053 457.626C17.9139 456.657 19.2553 453.706 20.224 451.783C20.4327 451.306 21.2971 449.265 21.625 448.937C21.8336 448.728 21.9976 448.668 22.2658 448.668C23.6668 448.668 23.7115 451.351 23.7115 452.484C23.7115 453.289 23.6519 453.929 23.011 455.107C22.8024 455.435 22.1466 456.612 22.0423 456.925C22.1466 457.089 22.4149 457.134 22.5788 457.029C22.9067 456.866 23.9798 456.493 24.9336 456.493C26.111 456.493 27.5567 457.193 27.5567 458.043C27.5567 459.861 21.4909 461.59 20.1048 461.963C19.2404 462.231 19.1956 462.44 18.3908 464.541L16.349 469.847L16.3788 469.862ZM33.6524 492.009C33.3841 491.904 32.3111 491.413 31.9832 491.413C31.551 491.621 29.6731 493.022 29.0322 493.454C27.1543 494.692 24.8442 494.96 22.5937 494.96C22.3851 494.96 20.2836 494.259 19.6428 493.782C19.0466 493.35 17.3923 492.068 17.3923 489.654C17.3923 489.386 17.7649 487.031 18.7932 486.226C19.5981 485.585 21.2077 484.885 22.713 484.885C23.7264 484.885 25.0678 485.093 27.1692 485.585C27.5418 485.69 29.2557 486.181 29.4793 486.226C29.9115 486.33 30.6567 485.317 30.6567 483.707C30.6567 483.439 30.4928 482.262 30.4928 481.993L30.2841 477.597C30.1798 475.615 30.3437 471.754 30.9846 469.817C31.4615 468.416 32.326 467.835 32.8029 467.835C33.399 467.835 33.7716 468.431 33.7716 468.848C33.7716 469.221 32.8029 471.471 32.8029 472.231C32.8625 472.5 33.2351 477.865 33.399 479.743C33.4586 480.488 33.9952 483.767 33.9952 484.467C33.9952 484.944 33.7269 487.15 33.7865 487.582C34.9639 488.283 37.1101 488.983 38.1832 489.892C38.9284 490.593 40.1654 492.366 40.1654 493.484C40.1654 494.08 39.7332 494.617 39.2562 494.617C38.8836 494.617 38.0192 494.453 37.7509 494.289L33.6673 492.039L33.6524 492.009ZM23.1899 491.204C23.9947 491.204 27.05 489.49 27.05 489.117C27.05 488.313 22.862 487.135 22.4298 487.135C20.1793 487.135 20.1197 489.55 20.1793 489.714C20.3433 490.787 20.7755 491.219 23.1899 491.219V491.204ZM37.9 459.235C40.5231 459.235 44.7707 463.155 44.7707 465.569C44.7707 466.538 44.6663 468.789 43.5933 468.789C43.1163 468.789 41.2385 467.447 40.8062 467.239C40.3293 467.03 37.9596 466.642 37.587 466.374C37.2591 466.166 37.1101 465.778 37.1101 465.465C37.1101 465.092 37.3187 464.869 37.438 464.72C38.4514 464.079 38.7197 463.915 38.7197 463.438C38.7197 463.229 38.5111 462.097 36.7375 460.651C36.5288 460.487 36.4096 460.279 36.4692 460.055C36.7971 459.682 37.1101 459.25 37.9149 459.25L37.9 459.235Z" fill="white"/>
<path d="M18.094 530.595C18.4219 530.535 21.3133 529.09 21.8498 528.777C23.1911 527.912 27.2748 526.258 30.9113 526.258C33.8027 526.258 37.1859 529.105 37.6777 529.477C39.2873 530.878 40.6287 534.783 40.6287 536.885C40.6287 538.658 40.6286 542.19 36.3959 545.633C34.5181 547.183 34.3094 547.407 32.8488 547.943C32.6849 548.003 31.9844 548.375 31.6714 548.539C31.1945 548.599 28.3926 548.972 27.6474 548.972C20.2402 549.031 19.4354 546.989 19.4354 543.547C19.4354 542.906 19.8676 542.146 20.4041 541.609C21.3133 540.596 21.8051 540.208 23.2955 540.208C23.7724 540.208 27.1109 540.745 28.1839 541.713C28.5118 541.982 30.0618 543.323 30.1661 543.532C30.5984 544.173 30.807 544.5 31.0753 544.5C31.8205 544.5 38.2142 540.476 38.2142 535.811C38.2142 532.592 35.9041 530.61 34.8311 530.014C33.6984 529.373 32.7892 529.209 30.3748 529.209C27.2152 529.209 22.6993 531.936 18.7349 534.783C17.7214 535.528 13.3099 539.94 12.4604 539.94C10.7911 539.94 10.7911 537.361 10.7911 537.153C10.7911 533.934 10.7911 533.561 11.5363 533.129C11.745 533.024 12.982 532.324 13.2056 532.16C13.2652 532.16 16.3205 527.763 17.3339 526.094C19.0032 523.352 19.2714 523.084 20.1209 521.429C20.8214 520.147 22.8633 516.869 24.5772 514.126C24.7411 513.858 24.7411 513.754 24.6815 513.381C24.0854 513.172 23.7128 513.485 22.8036 514.022C22.6993 514.082 21.5219 514.499 21.1344 514.499C19.5248 514.499 18.7796 513.903 18.2878 513.53C18.0195 513.322 16.7378 512.561 16.5738 512.353C16.3652 512.085 16.246 511.876 16.246 511.652C16.246 511.116 16.7229 510.952 17.1104 510.952C17.2743 510.952 19.1522 511.056 19.4205 511.056C22.1032 511.056 25.2628 509.014 25.8589 508.314C26.7234 507.3 27.096 506.868 28.169 506.868C29.6743 506.868 33.1022 510.684 33.1022 511.801C33.1022 512.442 32.8936 512.666 30.6282 514.32C29.719 515.021 27.5133 517.972 26.9767 518.672C26.2762 519.581 22.8484 523.501 22.2522 524.41C21.9839 524.783 20.6426 526.392 20.4339 526.765C20.1657 527.137 19.957 527.361 18.2878 529.611C18.1238 529.82 18.0195 530.088 17.9152 530.416L18.094 530.595ZM23.3551 542.563C22.7589 542.563 22.4459 543.099 22.4459 543.696C22.4459 545.573 25.1883 546.17 26.1421 546.17C26.619 546.17 27.1108 546.006 27.5431 545.901C27.6474 544.664 23.8469 542.578 23.3551 542.578V542.563Z" fill="white"/>
<line x1="59.5001" y1="2.18557e-08" x2="59.5001" y2="560" stroke="white"/>
</svg>
