<svg width="472" height="52" viewBox="0 0 472 52" fill="none" xmlns="http://www.w3.org/2000/svg">
<path d="M4.09071 49.3583C8.63094 45.9644 11.418 43.3796 15.0367 39.1091C20.4311 32.6808 25.3309 24.5893 28.4776 16.7226C29.1294 15.1043 29.5115 13.8681 29.5115 13.3286C29.5115 12.9465 29.1969 12.7892 28.545 12.7892C26.6121 12.7892 21.6897 13.7557 17.0596 14.9919C13.0138 16.0708 10.9011 16.8799 8.47361 18.1161C7.93418 18.4308 7.16998 18.6106 6.54064 18.6106C4.96729 18.6106 3.19165 17.1496 1.46097 14.5648C0.494485 12.9915 0 11.8227 0 10.7439C0 10.3168 0.0449515 10.0471 0.314668 9.35032C1.6183 11.8902 3.28156 12.9016 5.97873 12.9016C8.2938 12.9016 14.6097 12.0475 23.4654 10.5191C27.5111 9.82233 27.9382 9.70994 29.3542 8.90079C29.7363 8.74346 30.2083 8.58612 30.5454 8.58612C31.3546 8.58612 33.0853 9.62003 34.5462 10.9686C36.3893 12.6319 37.4007 14.0479 37.4007 15.0144C37.4007 15.7786 37.176 16.2056 36.4343 16.9473C35.4678 17.9813 35.243 18.251 34.1642 20.2963C26.1176 35.8275 16.9472 44.953 4.49528 49.9202L4.11319 49.3808L4.09071 49.3583ZM46.8184 5.97886C46.8184 9.21546 44.2336 11.8003 41.0419 11.8003C37.8503 11.8003 35.1531 9.14804 35.1531 5.97886C35.1531 2.80969 37.8053 0.157471 40.9745 0.157471C44.1437 0.157471 46.7959 2.74226 46.7959 5.97886H46.8184ZM37.1086 5.97886C37.1086 8.1366 38.8392 9.86728 40.997 9.86728C43.1547 9.86728 44.9304 8.1366 44.9304 5.97886C44.9304 3.82113 43.1997 2.04549 40.997 2.04549C38.7943 2.04549 37.1086 3.77617 37.1086 5.97886Z" fill="#231815"/>
<path d="M62.9338 49.4706C68.3731 45.2675 72.1491 41.424 75.7229 36.4792C79.7686 30.8601 82.7355 25.2635 84.3088 20.1388C77.4086 21.0604 74.8238 21.5324 69.9689 22.836C66.2378 23.8025 65.4287 24.0722 63.7205 24.9488C62.9563 25.3309 62.3269 25.4882 61.6751 25.4882C59.405 25.4882 55.584 20.7906 55.584 17.8912C55.584 17.5091 55.6289 17.2394 55.8987 16.655C57.2922 19.0824 59.0229 20.1613 61.5627 20.1613C63.6081 20.1613 73.1605 18.8127 80.2181 17.5765C83.4547 17.0371 83.5671 16.9921 84.8033 16.1156C85.2978 15.8009 85.7249 15.6885 86.3092 15.6885C87.0734 15.6885 88.3096 16.4527 89.8156 17.7339C91.4788 19.1948 92.288 20.3186 92.288 21.1952C92.288 21.892 92.0632 22.2291 91.254 22.8585C90.3999 23.5552 90.0178 24.0947 88.7816 26.3648C82.4658 38.2773 74.4417 45.7395 63.2709 50.0549L62.9563 49.5155L62.9338 49.4706ZM61.4953 5.82135C63.6081 7.86671 65.114 8.56348 67.4291 8.56348C71.3624 8.56348 77.2513 7.05756 79.836 5.43926C80.2631 5.12459 80.6901 5.01221 81.2296 5.01221C82.2635 5.01221 84.3088 5.82135 85.5001 6.74289C86.4666 7.43966 86.8487 8.04652 86.8487 8.78825C86.8487 10.0244 85.9946 10.4515 82.6905 10.9909C77.2962 11.8001 72.0592 12.3845 69.9015 12.3845C65.6984 12.3845 63.4732 10.8111 60.8884 6.18098L61.4728 5.79888L61.4953 5.82135Z" fill="#231815"/>
<path d="M109.595 9.53005C115.641 10.4965 118.878 11.4181 121.418 13.0364C123.193 14.1152 124.07 15.6212 124.07 17.6665C124.07 20.2063 122.834 22.1393 121.148 22.1393C120.226 22.1393 119.687 21.7123 118.878 20.2962C116.293 15.5987 113.528 12.6992 109.325 10.092L109.595 9.50757V9.53005ZM150.592 12.6767C147.625 18.8802 143.894 24.0048 138.455 29.3992C133.645 34.1417 129.666 37.2659 122.811 41.6938C121.418 42.6153 120.429 43.357 119.889 44.0763C119.125 44.9978 118.428 45.4249 117.619 45.4249C116.225 45.4249 114.225 43.919 112.337 41.4915C110.606 39.2888 109.752 37.221 109.752 35.4903C109.752 34.9958 109.797 34.7261 110.022 34.0293C111.483 36.5017 113.259 38.0301 114.72 38.0301C116.99 38.0301 124.047 34.299 130.476 29.7139C138.522 23.9374 145.355 17.8913 149.94 12.3396L150.592 12.6543V12.6767Z" fill="#231815"/>
<path d="M165.269 36.142C166.505 36.142 167.269 36.0971 173.473 35.3329C179.137 34.6361 182.8 34.3664 192.578 33.7595C194.735 33.6471 195.432 33.5347 197.006 33.0627C197.927 32.793 198.354 32.6806 198.781 32.6806C199.748 32.6806 201.321 33.3774 202.782 34.5237C204.4 35.715 205.209 36.9062 205.209 38.03C205.209 39.1538 204.243 40.1428 203.052 40.1428C202.625 40.1428 201.86 40.0304 200.13 39.6483C195.432 38.6818 191.814 38.2548 187.835 38.2548C180.553 38.2548 172.461 39.6483 167.764 41.7611C166.842 42.1882 166.37 42.3005 165.651 42.3005C163.92 42.3005 161.763 40.6822 160.099 38.03C159.133 36.5241 158.436 34.5687 158.436 33.4898C158.436 33.28 158.541 32.8455 158.751 32.1862C160.369 34.8833 162.414 36.1195 165.269 36.1195V36.142ZM167.427 11.5303C169.809 13.8005 171.045 14.3399 173.945 14.3399C176.844 14.3399 180.193 13.8454 184.082 12.8789C186.284 12.2945 187.318 11.9124 188.779 11.1482C189.319 10.8336 189.633 10.7212 190.083 10.7212C191.162 10.7212 192.892 11.5303 194.241 12.6542C195.162 13.4184 195.477 14.0027 195.477 14.7669C195.477 16.1605 194.623 16.655 191.117 17.1944C186.307 18.0035 180.283 18.543 176.709 18.543C173.698 18.543 171.585 17.7338 169.697 15.8908C168.775 14.9692 168.078 13.9578 166.955 11.845L167.449 11.5303H167.427Z" fill="#231815"/>
<path d="M217.482 9.53005C223.528 10.4965 226.764 11.4181 229.304 13.0364C231.08 14.1152 231.956 15.6212 231.956 17.6665C231.956 20.2063 230.72 22.1393 229.034 22.1393C228.113 22.1393 227.574 21.7123 226.764 20.2962C224.18 15.5987 221.415 12.6992 217.212 10.092L217.482 9.50757V9.53005ZM258.479 12.6767C255.512 18.8802 251.781 24.0048 246.341 29.3992C241.531 34.1417 237.553 37.2659 230.698 41.6938C229.304 42.6153 228.315 43.357 227.776 44.0763C227.012 44.9978 226.315 45.4249 225.506 45.4249C224.112 45.4249 222.112 43.919 220.224 41.4915C218.493 39.2888 217.639 37.221 217.639 35.4903C217.639 34.9958 217.684 34.7261 217.909 34.0293C219.37 36.5017 221.145 38.0301 222.606 38.0301C224.876 38.0301 231.934 34.299 238.362 29.7139C246.409 23.9374 253.242 17.8913 257.827 12.3396L258.479 12.6543V12.6767Z" fill="#231815"/>
<path d="M264.637 30.0959C269.717 25.8928 274.617 19.9591 278.438 13.4184C280.101 10.6089 280.753 9.10295 280.753 8.06903C280.753 7.30483 280.595 6.83283 279.989 6.13606C279.337 5.32691 278.91 5.01224 277.449 4.293C278.101 4.02328 278.37 3.97833 278.842 3.97833C280.775 3.97833 283.81 5.21453 286.012 6.83283C287.136 7.68694 287.743 8.56351 287.743 9.37266C287.743 10.1369 287.631 10.3392 286.282 12.0698C285.855 12.5643 285.585 12.9239 284.776 14.0028C285.36 14.1152 285.698 14.1601 285.9 14.1601C286.934 14.1601 290.26 13.6657 292.261 13.1937C293.879 12.879 294.149 12.7666 295.655 11.89C296.082 11.6653 296.464 11.5754 296.778 11.5754C297.633 11.5754 298.981 12.3845 300.51 13.778C301.903 15.1716 302.622 16.2504 302.622 17.127C302.622 17.7788 302.353 18.2509 301.588 18.8577C300.51 19.6669 300.352 19.8242 298.846 22.364C290.867 36.4343 279.584 45.8294 265.941 49.7628L265.671 49.1784C270.683 46.5262 275.493 42.7501 281.202 36.9962C286.754 31.3321 291.834 23.7126 294.688 16.8798C294.801 16.5651 294.846 16.3404 294.913 16.228C294.958 16.0706 295.025 16.0032 295.025 15.9133C295.025 15.8683 294.913 15.6885 294.868 15.6885C294.868 15.6885 294.816 15.6736 294.711 15.6436H294.486C294.486 15.6436 294.374 15.6436 294.261 15.6885C294.149 15.8009 293.834 15.8009 293.407 15.8459C292.755 15.8908 292.598 15.9583 289.586 16.7674C288.822 17.0371 288.125 17.2619 287.541 17.4192C287.226 17.4642 287.001 17.5316 286.844 17.5316C285.877 17.5316 284.686 16.8798 283.495 15.6436C278.056 22.5438 271.403 27.8932 264.997 30.6353L264.615 30.0959H264.637ZM298.307 4.20309C300.892 5.01224 302.51 5.70901 304.083 6.78788C306.556 8.45113 307.702 10.0245 307.702 11.7552C307.702 12.9914 307.05 13.8679 306.084 13.8679C305.32 13.8679 304.96 13.5533 304.196 12.2946C302.577 9.48504 300.465 7.12502 297.835 5.12462L298.329 4.20309H298.307ZM303.791 0C306.533 0.584387 308.534 1.34859 310.107 2.3825C312.265 3.77604 313.231 5.03472 313.231 6.54064C313.231 7.84427 312.579 8.69837 311.613 8.69837C311.029 8.69837 310.646 8.38371 309.837 7.23741C307.994 4.58519 306.174 2.7646 303.364 0.876583L303.791 0.0224769V0Z" fill="#231815"/>
<path d="M360.364 32.5684C360.05 33.1528 359.78 33.6023 359.668 33.917C357.735 37.648 357.51 38.0077 356.386 39.4686C351.913 45.3575 345.44 48.8638 338.967 48.8638C334.494 48.8638 330.92 47.1331 328.987 44.0089C327.481 41.6264 326.874 38.2324 326.874 32.411C326.874 29.0621 326.919 27.6011 327.571 15.1042C327.616 13.4859 327.684 11.98 327.684 10.6314C327.684 6.81041 326.874 5.50678 323.368 4.00086C324.065 3.57381 324.402 3.46143 325.099 3.46143C327.099 3.46143 329.729 4.22563 331.954 5.3944C334.337 6.6306 335.416 7.93423 335.416 9.32777C335.416 10.0245 335.303 10.2943 334.764 11.5979C333.145 15.2166 331.212 28.2754 331.212 35.6027C331.212 40.7723 333.527 43.1098 338.607 43.1098C343.192 43.1098 348.317 41.4466 352.902 38.4797C355.599 36.749 356.836 35.6252 359.87 32.2312L360.409 32.6133L360.364 32.5684Z" fill="#231815"/>
<path d="M375.154 10.8337C378.166 13.5758 380.323 14.34 384.819 14.34C386.976 14.34 389.449 14.1153 391.876 13.8006C391.831 10.7213 391.606 8.24892 391.224 7.05767C390.73 5.32699 389.179 4.40545 386.594 4.20317C387.516 3.28163 388.257 3.07935 390.145 3.07935C392.258 3.07935 394.731 3.46145 396.237 4.04583C397.81 4.63022 398.507 5.39442 398.507 6.42833C398.507 6.96776 398.394 7.34986 397.81 8.3613C397.113 9.66494 397.001 10.2493 396.619 12.9465C401.586 11.9126 403.249 11.3282 405.295 9.93465C405.834 9.61998 406.261 9.44017 406.756 9.44017C407.789 9.44017 409.453 9.97961 410.307 10.6764C410.959 11.1034 411.273 11.7103 411.273 12.2497C411.273 13.2836 410.352 13.913 408.082 14.6322C404.89 15.5538 400.754 16.4079 396.259 17.0597C396.147 18.633 396.147 19.3747 396.147 20.3412V23.9599C399.608 23.4205 402.665 22.454 404.126 21.4201C404.935 20.8807 405.092 20.8357 405.699 20.8357C406.778 20.8357 408.284 21.3302 409.093 21.9146C409.677 22.3416 409.902 22.7237 409.902 23.3081C409.902 24.4994 408.711 25.1961 405.205 26.1626C402.463 26.9268 398.776 27.6236 396.259 27.8933C396.529 33.5124 396.529 33.7147 396.843 35.8275C401.159 36.6366 404.98 37.9852 407.677 39.7159C409.947 41.1769 410.869 42.6378 410.869 44.7956C410.869 46.7285 410.06 47.9872 408.868 47.9872C408.059 47.9872 407.902 47.8748 406.284 46.2116C404.013 43.8965 400.462 41.7388 397.113 40.5925C397.226 41.514 397.226 41.8961 397.226 42.5254C397.226 44.7956 396.529 46.4139 394.955 47.6051C393.337 48.7964 390.595 49.5381 387.673 49.5381C381.582 49.5381 377.042 46.7285 377.042 42.9525C377.042 38.5247 382.863 35.4454 391.112 35.4454H392.034V28.2754C389.718 28.3878 389.224 28.3878 388.527 28.3878C381.739 28.3878 378.278 26.4548 378.278 22.6788C378.278 22.1843 378.323 21.7123 378.548 20.7458L379.087 20.7908C379.199 22.2967 379.402 22.9934 380.009 23.6003C380.863 24.5668 382.976 25.0613 386.257 25.0613C388.1 25.0613 389.606 24.9489 392.034 24.6792C392.034 23.4879 391.989 19.2399 391.989 17.4418C390.325 17.5991 388.752 17.6665 387.291 17.6665C380.593 17.6665 377.626 16.2056 374.614 11.2383L375.109 10.8562L375.154 10.8337ZM387.291 38.9967C382.324 38.9967 378.93 40.615 378.93 42.93C378.93 44.7731 381.043 45.852 384.549 45.852C387.785 45.852 390.483 44.8855 391.337 43.4245C391.764 42.6154 391.921 41.7612 391.921 39.4237C390.033 39.109 388.842 38.9967 387.291 38.9967Z" fill="#231815"/>
<path d="M436.806 50.5943C439.728 49.0884 441.549 47.8522 443.437 45.9642C445.977 43.4244 447.213 41.1542 448.067 37.4906C447.033 38.1424 446.022 38.4571 444.718 38.4571C440.627 38.4571 437.481 34.681 437.481 29.6688C437.481 24.6566 440.672 20.9929 445.145 20.9929C446.269 20.9929 446.921 21.1502 448.427 21.9144V19.3296C448.427 18.026 448.427 17.599 448.382 15.7109C441.144 16.565 435.593 18.026 431.547 20.1388C431.165 20.2961 430.468 20.4535 429.974 20.4535C428.4 20.4535 426.782 19.2622 425.276 17.1045C424.242 15.5311 423.613 13.9803 423.613 12.834C423.613 12.6092 423.658 12.3395 423.838 11.9124C425.411 14.1151 427.187 15.1041 429.614 15.1041C430.693 15.1041 434.431 14.6396 440.83 13.7105C442.987 13.3959 444.606 13.2161 448.269 12.789C448.157 8.6983 447.887 6.96762 447.146 5.9337C446.291 4.74245 444.943 4.04568 442.448 3.66358C443.415 2.80948 444.111 2.58472 445.842 2.58472C447.887 2.58472 450 2.89939 451.933 3.50625C454.046 4.20302 455.012 5.0796 455.012 6.3158C455.012 6.85523 454.9 7.23733 454.473 7.97905C453.664 9.44002 453.551 9.91202 453.282 12.1372C460.789 11.4854 461.216 11.4404 463.036 10.6313C464.003 10.2042 464.542 10.0918 465.352 10.0918C466.812 10.0918 469.172 11.1258 470.588 12.362C471.285 12.9463 471.555 13.4858 471.555 14.3624C471.555 15.3288 470.746 15.9807 469.622 15.9807C469.128 15.9807 468.318 15.8683 466.43 15.5986C463.351 15.2165 461.036 15.0591 457.575 15.0591C455.732 15.0591 454.833 15.1041 452.989 15.2839C452.765 18.1384 452.607 21.6447 452.607 23.6451V24.7689C454.001 27.4212 454.495 29.3092 454.495 32.2761C454.495 38.4346 451.911 43.5592 446.988 46.9981C444.448 48.7737 442.088 49.8077 437.009 51.2686L436.739 50.6168L436.806 50.5943ZM444.898 22.5438C442.74 22.5438 441.077 24.8139 441.077 27.7133C441.077 31.1073 442.695 33.4898 445.078 33.4898C447.191 33.4898 448.427 31.7591 448.427 28.7922C448.427 24.7914 447.123 22.5438 444.92 22.5438H444.898Z" fill="#231815"/>
</svg>
