<svg width="370" height="57" viewBox="0 0 370 57" fill="none" xmlns="http://www.w3.org/2000/svg">
<path d="M13.44 14.6946V14.3106H0.576V12.1346H3.136V11.4946H0.576V10.8546H1.856V4.77459H39.104V10.8546H37.824V11.4946H40.384V12.1346H37.824V14.3106H24.896V14.6946H27.456V15.3346H24.896V15.9746H22.976V16.6146H24.896V18.5346H22.976V19.8146H24.896V29.4146H26.176V38.3746H24.896V39.6546H28.096V43.4946H30.016V44.1346H28.096V47.9746H24.256V49.2546H28.096V51.8146H30.016V52.4546H18.56V51.8146H16.64V49.2546H12.8V47.9746H16.64V44.1346H18.56V43.4946H16.64V39.6546H13.44V38.3746H14.72V29.4146H13.44V19.8146H11.52V18.5346H13.44V16.6146H11.52V15.9746H13.44V15.3346H16V14.6946H13.44ZM55.7855 29.4146C55.7855 29.2226 55.7855 29.0946 55.7855 28.9026C55.7855 25.5746 56.2335 22.5026 57.1295 19.8146H55.2095C55.3375 19.3666 55.4655 18.9826 55.6575 18.5346H57.5775C57.8335 17.8946 58.0895 17.2546 58.4095 16.6146H56.4895C56.6175 16.4226 56.6815 16.1666 56.8095 15.9746H58.7295C58.8575 15.7826 58.9855 15.5266 59.0495 15.3346H61.6095C61.7375 15.1426 61.8655 14.8866 61.9935 14.6946H59.4335C60.0095 13.7986 60.5855 12.9026 61.2895 12.1346H63.8495C64.0415 11.9426 64.2335 11.6866 64.3615 11.4946H61.8015C61.9935 11.3026 62.1855 11.0466 62.3775 10.8546H63.6575C68.0095 6.31059 74.0255 3.94259 80.4895 3.94259C87.4655 3.94259 92.4575 6.88659 95.7215 10.1506L95.1455 10.8546H93.8655L93.2895 11.4946H95.8495L95.3375 12.1346H92.7775L90.6655 14.6946H93.2255L92.7135 15.3346H90.1535L89.6415 15.9746H87.7215L87.2095 16.6146H89.1295L88.4255 17.4466C88.1055 17.1906 87.7855 16.8706 87.4655 16.6146H85.5455C85.2895 16.4226 84.9695 16.1666 84.7135 15.9746H86.6335C86.3135 15.7186 85.9935 15.5266 85.6735 15.3346H88.2335C87.7855 15.0786 87.4015 14.8866 86.9535 14.6946H84.3935C82.9855 14.1186 81.4495 13.7346 79.5935 13.7346C77.8655 13.7346 76.3295 14.0546 74.9215 14.6946H77.4815C77.0335 14.8866 76.5855 15.0786 76.2015 15.3346H73.6415C73.3215 15.5266 73.0015 15.7186 72.6815 15.9746H70.7615C70.5055 16.1666 70.2495 16.3586 69.9935 16.6146H71.9135C71.2735 17.1906 70.6975 17.8306 70.1855 18.5346H68.2655C68.0095 18.9186 67.7535 19.3666 67.4975 19.8146H69.4175C68.2015 22.1186 67.4975 25.0626 67.4975 28.5186C67.4975 28.8386 67.4975 29.0946 67.4975 29.4146H68.7775C68.9055 33.0626 69.6735 36.0706 71.1455 38.3746H69.8655C70.1855 38.8226 70.5055 39.2706 70.8255 39.6546H74.0255C76.2015 42.1506 79.4015 43.4946 83.8175 43.4946C85.4815 43.4946 87.2735 43.0466 88.2975 42.2786V39.6546H85.0975V38.3746H86.3775V34.5986H78.8255V29.4146H77.5455V25.2546H95.2735V29.4146H96.5535V38.3746H95.2735V39.6546H98.4735V43.4946H100.394V44.1346H98.4735V47.5266C98.2815 47.6546 98.1535 47.8466 97.9615 47.9746H94.1215C93.6095 48.4226 93.0975 48.8066 92.5215 49.2546H96.3615C94.9535 50.2146 93.2255 51.1106 91.3695 51.8146H93.2895C91.6895 52.3906 89.9615 52.8386 88.1055 53.0946H86.1855C85.0335 53.2866 83.8175 53.3506 82.6015 53.3506C81.2575 53.3506 79.9775 53.2866 78.6975 53.0946H80.6175C78.7615 52.8386 77.0335 52.3906 75.3695 51.8146H73.4495C71.6575 51.1746 69.9295 50.2786 68.3935 49.2546H64.5535C63.9775 48.8706 63.4015 48.4226 62.8895 47.9746H66.7295C65.4495 46.8866 64.2335 45.6066 63.2735 44.1346H65.1935C65.0655 43.9426 64.8735 43.6866 64.7455 43.4946H62.8255C62.0575 42.2786 61.4175 40.9986 60.8415 39.6546H57.6415C57.4495 39.2066 57.3215 38.8226 57.1935 38.3746H58.4735C57.5775 35.7506 57.1295 32.7426 57.0655 29.4146H55.7855ZM117.891 47.9746V45.5426L118.787 44.1346H120.707L121.155 43.4946H119.235L121.731 39.6546H118.531L119.363 38.3746H120.643L126.531 29.4146H125.251L131.587 19.8146H129.667L130.499 18.5346H132.419L133.699 16.6146H131.779L132.227 15.9746H134.147L134.595 15.3346H137.155L137.539 14.6946H134.979L135.235 14.3106H116.675V12.1346H119.235V11.4946H116.675V10.8546H117.955V4.77459H150.595V10.8546H149.315V11.4946H151.875V11.6866L151.555 12.1346H148.995L147.331 14.6946H149.891L149.507 15.3346H146.947L146.499 15.9746H144.579L144.131 16.6146H146.051L144.771 18.5346H142.851L142.019 19.8146H143.939L137.603 29.4146H138.883L132.995 38.3746H131.715L130.883 39.6546H134.083L131.971 42.8546H152.707V43.4946H154.627V44.1346H152.707V47.9746H148.867V49.2546H152.707V51.8146H154.627V52.4546H119.811V51.8146H117.891V49.2546H114.051V47.9746H117.891ZM193.676 16.6146C193.932 16.9986 194.124 17.3826 194.316 17.7666C195.02 17.3826 195.66 16.9986 196.364 16.6146H194.444C194.828 16.4226 195.212 16.1666 195.596 15.9746H197.516C197.9 15.7826 198.284 15.5266 198.668 15.3346H201.228C201.612 15.1426 201.996 14.8866 202.38 14.6946H199.82C201.548 13.7346 203.212 12.9026 204.556 12.1346H207.116C207.5 11.8786 207.884 11.6866 208.268 11.4946H205.708C206.028 11.3026 206.348 11.1106 206.604 10.9826C206.668 10.9186 206.732 10.9186 206.796 10.8546H208.076C210.764 9.31859 212.748 8.10259 214.54 6.63059L217.1 10.8546H215.82L216.204 11.4946H218.764L219.148 12.1346H216.588L218.124 14.6946H220.684L221.068 15.3346H218.508L218.636 15.5906C218.444 15.7186 218.188 15.8466 217.996 15.9746H216.076C215.692 16.1666 215.372 16.4226 214.988 16.6146H216.908C215.756 17.2546 214.604 17.8946 213.388 18.5346H211.468C210.828 18.8546 210.188 19.1746 209.548 19.4946C209.356 19.6226 209.1 19.6866 208.908 19.8146H210.828C206.86 21.7346 199.82 24.9986 194.508 28.3906C193.996 28.7106 193.484 29.0946 193.036 29.4146H194.316C190.476 32.1026 187.724 34.9826 187.34 38.3746H186.06C185.996 38.6946 185.996 38.9506 185.996 39.2706C185.996 39.3986 185.996 39.5266 185.996 39.6546H189.196C189.324 41.2546 190.092 42.5346 191.5 43.4946H193.42C193.74 43.7506 194.124 43.9426 194.572 44.1346H192.652C194.7 45.0306 197.644 45.4786 201.484 45.4786C205.964 45.4786 211.532 44.9666 216.588 44.1346H218.508C219.788 43.9426 221.068 43.7506 222.22 43.4946H220.3C221.132 43.3666 221.9 43.1746 222.604 42.9826V43.4946H224.524V44.1346H222.604L222.54 47.9746H218.7V49.2546H222.54L222.476 51.8146H224.396V53.0946H222.476V54.1826C216.652 55.1426 210.252 55.7826 201.74 55.7826C195.724 55.7826 190.284 55.0146 186.188 53.0946H188.108C187.34 52.7106 186.572 52.2626 185.868 51.8146H183.948C182.86 51.1106 181.964 50.2146 181.196 49.2546H177.356C177.036 48.8706 176.716 48.4226 176.46 47.9746H180.3C179.596 46.8226 179.084 45.5426 178.764 44.1346H180.684C180.62 43.9426 180.62 43.6866 180.556 43.4946H178.636C178.444 42.5346 178.38 41.5106 178.38 40.4226C178.38 40.1666 178.38 39.9106 178.38 39.6546H175.18C175.18 39.2066 175.244 38.8226 175.308 38.3746H176.588C177.036 34.9826 178.444 32.0386 180.556 29.4146H179.276C181.004 27.2386 183.18 25.3186 185.612 23.4626C184.972 22.3106 184.332 21.0946 183.756 19.8146H181.836C181.644 19.3666 181.388 18.9826 181.196 18.5346H183.116C182.796 17.8946 182.476 17.2546 182.22 16.6146H180.3C180.172 16.4226 180.108 16.1666 179.98 15.9746H181.9C181.772 15.7826 181.708 15.5266 181.58 15.3346H184.14C184.012 15.1426 183.948 14.8866 183.82 14.6946H181.26C180.876 13.8626 180.492 13.0306 180.108 12.1346H182.668C182.604 11.9426 182.476 11.6866 182.412 11.4946H179.852C179.724 11.3026 179.66 11.0466 179.532 10.8546H180.812C179.916 8.80659 179.02 6.75859 178.124 4.71059L186.572 1.25459H187.852L189.132 0.742588C189.196 0.934586 189.26 1.06259 189.324 1.25459H188.044C189.324 4.71059 190.668 7.91059 192.076 10.8546H190.796C190.924 11.0466 190.988 11.3026 191.116 11.4946H193.676C193.804 11.6866 193.868 11.9426 193.996 12.1346H191.436C191.82 13.0306 192.268 13.8626 192.716 14.6946H195.276C195.404 14.8866 195.468 15.1426 195.596 15.3346H193.036C193.164 15.5266 193.228 15.7826 193.356 15.9746H191.436C191.564 16.1666 191.628 16.4226 191.756 16.6146H193.676ZM275.916 44.1346C276.172 46.0546 278.348 46.7586 280.908 46.7586C283.084 46.7586 284.364 45.9266 284.876 44.1346H286.796C286.86 43.9426 286.924 43.7506 286.924 43.4946H285.004C285.132 42.9186 285.196 42.2786 285.196 41.5746C285.196 41.4466 285.196 41.2546 285.196 41.1266C283.788 40.7426 282.38 40.5506 280.908 40.5506C278.028 40.5506 276.108 41.6386 275.916 43.4946H277.836C277.836 43.5586 277.836 43.6866 277.836 43.7506C277.836 43.8786 277.836 44.0066 277.836 44.1346H275.916ZM292.876 1.89459C292.684 3.11059 292.556 4.77459 292.492 6.18259C292.428 7.14259 292.364 8.80659 292.3 10.8546H291.02C291.02 11.0466 291.02 11.3026 291.02 11.4946H293.58C293.58 11.6866 293.58 11.9426 293.58 12.1346H291.02V12.1986C291.212 12.1986 291.404 12.1346 291.532 12.1346H294.092C295.628 11.9426 297.164 11.7506 298.636 11.4946H296.076C297.292 11.3026 298.508 11.0466 299.596 10.8546H300.876C301.132 10.7906 301.388 10.7906 301.58 10.7266V10.8546H300.3V11.4946H302.86V12.1346H300.3V14.6946H302.86V15.3346H300.3V15.9746H298.38V16.6146H300.3V18.5346H298.38V19.8146H300.3V20.3906C297.42 20.7746 294.284 21.1586 290.956 21.3506C291.02 24.3586 291.148 27.0466 291.276 29.4146H292.556C292.684 31.7186 292.812 33.7666 292.876 35.6226C294.796 36.4546 296.588 37.3506 298.188 38.3746H296.908C297.612 38.8226 298.252 39.2066 298.828 39.6546H302.028C303.82 40.9346 305.356 42.2786 306.636 43.4946H308.556C308.748 43.6226 308.876 43.7506 309.004 43.8786L308.812 44.1346H306.892L304.46 47.9746H300.62L299.788 49.2546H303.628L301.964 51.8146H303.884L303.756 52.0066C303.692 51.9426 303.628 51.8786 303.564 51.8146H301.644C300.684 50.9186 299.724 50.0226 298.828 49.2546H294.988C294.476 48.8066 293.964 48.3586 293.452 47.9746H297.292C296.46 47.3346 295.756 46.7586 294.988 46.1826C294.86 46.8226 294.732 47.3986 294.604 47.9746H290.764C290.636 48.4226 290.508 48.8706 290.38 49.2546H294.22C293.836 50.2146 293.324 51.0466 292.748 51.8146H294.668C294.284 52.2626 293.836 52.7106 293.388 53.0946H291.468C289.356 54.8866 286.156 55.9106 281.804 55.9106C277.324 55.9106 273.548 54.9506 270.924 53.0946H272.844C272.268 52.7106 271.82 52.2626 271.372 51.8146H269.452C268.748 51.0466 268.108 50.2146 267.724 49.2546H263.884C263.692 48.8706 263.564 48.4226 263.436 47.9746H267.276C266.956 47.0146 266.828 45.9906 266.828 44.8386C266.828 44.5826 266.828 44.3906 266.828 44.1346H268.748C268.748 43.9426 268.748 43.6866 268.812 43.4946H266.892C267.02 42.0866 267.468 40.8066 268.044 39.6546H264.844C265.1 39.2066 265.356 38.7586 265.676 38.3746H266.956C269.388 35.0466 273.932 33.0626 279.756 33.0626C280.844 33.0626 281.932 33.1266 282.956 33.1906C282.892 31.9746 282.828 30.6946 282.764 29.4146H281.484C281.356 27.0466 281.292 24.4866 281.228 21.8626C280.012 21.9266 278.796 21.9266 277.644 21.9266C273.804 21.9266 269.964 21.7986 266.188 21.5426V19.8146H264.268V18.5346H266.188V16.6146H264.268V15.9746H266.188V15.3346H268.748V14.6946H266.188L266.124 12.3266C269.836 12.7106 273.676 12.9026 277.58 12.9026C278.796 12.9026 279.948 12.9026 281.164 12.8386C281.164 12.5826 281.164 12.3906 281.164 12.1346H283.724C283.724 11.9426 283.724 11.6866 283.724 11.4946H281.164C281.164 11.3026 281.164 11.0466 281.164 10.8546H282.444C282.38 8.80659 282.38 7.27059 282.316 6.31059C282.316 5.35059 282.06 3.23859 281.804 1.89459H292.876ZM261.836 2.72659C261.26 4.13459 260.364 8.10259 260.108 9.25459C259.98 9.63859 259.916 10.2146 259.788 10.8546H258.508C258.444 11.0466 258.444 11.2386 258.38 11.4946H260.94C260.876 11.6866 260.876 11.9426 260.812 12.1346H258.252C258.124 12.9026 257.996 13.7986 257.868 14.6946H260.428C260.364 14.8866 260.364 15.1426 260.3 15.3346H257.74C257.74 15.5266 257.676 15.7826 257.676 15.9746H255.756C255.692 16.1666 255.692 16.4226 255.628 16.6146H257.548C257.484 17.2546 257.356 17.8946 257.292 18.5346H255.372C255.308 18.9826 255.244 19.3666 255.18 19.8146H257.1C256.652 23.0786 256.268 26.5346 256.012 29.4146H257.292C257.164 30.9506 257.1 32.3586 257.1 33.4466C257.1 33.6386 257.1 34.6626 257.164 34.9186C257.932 33.0626 258.764 31.8466 259.596 29.9266L264.268 33.7026C263.756 35.2386 263.244 36.7746 262.732 38.3746H261.452C261.324 38.8226 261.196 39.2066 261.068 39.6546H264.268C263.884 40.9986 263.5 42.2786 263.18 43.4946H265.1C265.036 43.6866 264.972 43.9426 264.908 44.1346H262.988C262.604 45.5426 262.22 46.8226 261.964 47.9746H258.124C257.996 48.4226 257.868 48.8706 257.804 49.2546H261.644C261.644 49.3826 261.58 49.5106 261.58 49.6386C261.452 50.2146 261.324 51.1106 261.26 51.8146H263.18C263.116 52.1346 263.116 52.4546 263.116 52.6466C263.116 52.7746 263.116 52.9026 263.116 53.0946H261.196C261.196 53.7986 261.196 54.6946 261.26 55.5266L252.492 56.1666C252.236 55.2706 251.916 54.2466 251.66 53.0946H253.58C253.516 52.7106 253.388 52.2626 253.324 51.8146H251.404C251.276 50.9826 251.084 50.1506 250.956 49.2546H247.116C247.052 48.8066 246.988 48.4226 246.924 47.9746H250.764C250.572 46.7586 250.444 45.4786 250.316 44.1346H252.236C252.236 43.9426 252.172 43.6866 252.172 43.4946H250.252C250.124 42.2786 250.06 40.9986 249.996 39.6546H246.796C246.796 39.2066 246.732 38.8226 246.732 38.3746H248.012C247.948 37.4786 247.948 36.5186 247.948 35.6226C247.948 33.6386 248.012 31.5266 248.14 29.4146H246.86C247.052 26.1506 247.372 22.8226 247.692 19.8146H245.772C245.836 19.3666 245.9 18.9826 245.964 18.5346H247.884C247.948 17.8946 248.076 17.2546 248.14 16.6146H246.22C246.22 16.4226 246.284 16.1666 246.284 15.9746H248.204C248.204 15.7826 248.268 15.5266 248.268 15.3346H250.828C250.828 15.1426 250.892 14.8866 250.892 14.6946H248.332C248.46 13.7986 248.588 12.9026 248.716 12.1346H251.276C251.276 11.9426 251.34 11.6866 251.34 11.4946H248.78C248.78 11.3026 248.844 11.0466 248.844 10.8546H250.124C250.252 10.1506 250.316 9.57459 250.444 9.06259C250.7 7.14259 251.084 4.19859 251.148 1.83059L261.836 2.72659ZM356.364 18.5346C356.364 18.4066 356.364 18.2786 356.364 18.1506C356.364 17.5746 356.3 17.0626 356.172 16.6146H354.252C354.188 16.3586 354.124 16.1666 353.996 15.9746H355.916C355.788 15.7186 355.66 15.5266 355.532 15.3346H358.092C357.9 15.0786 357.708 14.8866 357.452 14.6946H354.892C353.612 13.6066 351.564 13.0306 349.132 13.0306C346.956 13.0306 345.164 13.6066 343.372 14.6946H345.932C345.676 14.8866 345.356 15.0786 345.036 15.3346H342.476C342.22 15.5266 341.964 15.7186 341.708 15.9746H339.788C339.596 16.1666 339.34 16.4226 339.084 16.6146H341.004C340.684 16.9346 340.3 17.2546 339.98 17.6386L338.892 16.6146H336.972L336.268 15.9746H338.188L337.484 15.3346H340.044L339.34 14.6946H336.78L333.964 12.1346H336.524L336.268 11.8786C336.396 11.7506 336.46 11.6226 336.588 11.4946H334.028C334.22 11.3026 334.412 11.0466 334.604 10.8546H335.884C339.852 6.56659 345.484 3.81459 351.756 3.81459C358.604 3.81459 364.364 6.11859 367.052 10.8546H365.772C365.9 11.0466 365.964 11.3026 366.092 11.4946H368.652C368.716 11.6866 368.844 11.9426 368.908 12.1346H366.348C366.668 12.9026 366.924 13.7986 367.052 14.6946H369.612C369.612 14.8866 369.676 15.1426 369.676 15.3346H367.116C367.116 15.5266 367.18 15.7826 367.18 15.9746H365.26C365.324 16.1666 365.324 16.4226 365.324 16.6146H367.244C367.244 16.8066 367.244 16.9346 367.244 17.1266C367.244 17.6386 367.18 18.0866 367.116 18.5346H365.196C365.132 18.9826 365.004 19.4306 364.876 19.8146H366.796C365.324 24.2306 360.268 26.3426 357.132 29.4146H358.412C356.812 31.0146 355.66 32.8706 355.852 35.4306H345.868C345.612 32.9986 346.252 31.0786 347.276 29.4146H345.996C348.748 25.1906 354.444 23.0146 355.98 19.8146H354.06C354.252 19.4306 354.38 18.9826 354.444 18.5346H356.364ZM346.316 47.9746C346.252 47.5906 346.252 47.1426 346.252 46.6946C346.252 45.7346 346.444 44.9026 346.7 44.1346H348.62C348.684 43.9426 348.812 43.6866 348.94 43.4946H347.02C348.108 41.5106 350.22 40.2946 352.78 40.2946C355.34 40.2946 357.452 41.5106 358.54 43.4946H360.46C360.588 43.6866 360.716 43.9426 360.78 44.1346H358.86C359.116 44.9026 359.308 45.7346 359.308 46.6946C359.308 47.1426 359.244 47.5906 359.18 47.9746H355.34C355.276 48.4226 355.148 48.8706 355.02 49.2546H358.86C358.476 50.2786 357.836 51.1746 357.004 51.8146H358.924C358.092 52.4546 357.196 52.9026 356.108 53.0946H354.188C353.74 53.1586 353.228 53.2226 352.78 53.2226C352.268 53.2226 351.82 53.1586 351.372 53.0946H353.292C352.204 52.9026 351.244 52.4546 350.476 51.8146H348.556C347.724 51.1746 347.084 50.2786 346.7 49.2546H342.86C342.668 48.8706 342.604 48.4226 342.476 47.9746H346.316Z" fill="white"/>
</svg>
