<svg width="149" height="23" viewBox="0 0 149 23" fill="none" xmlns="http://www.w3.org/2000/svg">
<path d="M0.955697 12.4418L0.158848 8.45751C1.00399 8.36092 1.00399 8.36092 2.93575 7.99872C6.26802 7.32261 8.56198 7.03284 10.5179 7.03284C12.8843 7.03284 14.5021 7.49163 15.8061 8.52995C17.11 9.56827 17.8103 11.162 17.8103 13.0937C17.8103 16.7882 15.4197 19.541 11.1216 20.8449C9.45542 21.352 9.02078 21.4244 5.6402 21.8108C5.35044 20.3137 5.06068 19.5168 4.16724 17.9473C6.43705 17.9473 8.22393 17.7058 10.0349 17.1504C11.6769 16.6433 13.005 15.6533 13.488 14.5425C13.6811 14.132 13.7777 13.625 13.7777 13.1179C13.7777 11.5966 12.4979 10.7032 10.3006 10.7032C8.68272 10.7032 6.67852 10.9929 3.97406 11.5966C2.35622 11.9588 1.82499 12.1037 0.955697 12.4418ZM20.7368 7.32261L20.4953 2.92786C20.9058 2.95201 21.2197 2.95201 21.4129 2.95201C22.0407 2.95201 22.91 2.90372 25.542 2.73469C29.3089 2.49322 31.0716 2.39663 38.4365 2.13101C40.4407 2.05857 40.658 2.03443 41.0926 1.93784L41.31 6.30844C40.9719 6.26014 40.8753 6.26014 40.6338 6.26014C38.9436 6.26014 36.7703 6.91211 35.1042 7.95043C32.6895 9.42339 31.2648 11.4759 31.2648 13.4559C31.2648 14.8323 31.9168 15.774 33.2932 16.426C34.2832 16.9089 36.3357 17.2953 37.9052 17.2953C38.1467 17.2953 38.2916 17.2953 38.6296 17.247L38.0743 21.8591C37.7362 21.7866 37.6155 21.7866 37.1808 21.7383C34.4281 21.4727 32.6171 21.0864 31.0716 20.3861C28.2223 19.058 26.7493 16.8365 26.7493 13.7698C26.7493 11.7656 27.4255 9.95462 28.8018 8.31263C29.4297 7.53993 30.0092 7.05699 31.1682 6.26014L22.8134 7.0087C21.8717 7.10528 21.6302 7.12943 20.7368 7.32261ZM54.5666 12.2486H47.4674C46.405 12.2486 45.5598 12.2727 44.7388 12.321C44.8354 11.4759 44.8595 10.8239 44.8595 9.78559V3.36251C44.8595 2.08272 44.8354 1.4549 44.7388 0.682197C45.5115 0.754638 46.1393 0.778785 47.4916 0.778785H60.6758C62.028 0.778785 62.6558 0.754638 63.4285 0.682197C63.332 1.38246 63.3078 2.03443 63.3078 3.36251V9.78559C63.3078 10.9205 63.332 11.5 63.4285 12.321C62.5593 12.2727 61.8107 12.2486 60.6758 12.2486H55.6774C56.8123 13.4559 57.5125 14.3252 58.3818 15.7257L57.7057 16.1362C58.8165 16.6192 59.6616 16.8606 60.7724 17.0538C60.3136 16.0879 60.048 15.5809 59.3236 14.3735L62.3178 13.0937C63.7666 15.3152 64.7083 17.078 65.6501 19.4685L62.3902 21.2312C61.859 19.5893 61.6417 18.9856 61.0863 17.7299C61.0139 18.6958 60.869 19.6858 60.6758 20.3378C60.4102 21.2795 60.048 21.6659 59.227 21.9798C58.3094 22.3179 56.7398 22.4627 54.0354 22.4627C49.5199 22.4627 48.5782 22.0039 48.5782 19.8066V15.774C48.5782 14.4218 48.554 14.0596 48.4574 13.4318H52.2968C52.2485 13.9389 52.2244 14.446 52.2244 15.774V18.3095C52.2244 18.9131 52.5624 19.0339 54.4217 19.0339C56.5225 19.0339 57.1503 18.8648 57.3918 18.2612C57.5125 17.8748 57.5608 17.4885 57.585 16.1845L55.3393 17.5368C54.5183 15.9431 53.6732 14.6874 52.4417 13.2869L54.5666 12.2486ZM52.2244 3.94203H48.5057V5.17353H52.2244V3.94203ZM55.7498 5.17353H59.6616V3.94203H55.7498V5.17353ZM52.2244 7.90213H48.5057V9.18192H52.2244V7.90213ZM55.7498 9.18192H59.6616V7.90213H55.7498V9.18192ZM45.5598 21.5693L42.5173 19.2995C43.2176 18.4061 43.4832 17.899 43.9178 16.7399C44.3283 15.6774 44.4973 14.9047 44.7871 13.2869L48.0228 14.3252C47.733 16.0638 47.564 16.8606 47.1535 18.1404C46.6947 19.6134 46.3567 20.3137 45.5598 21.5693ZM68.5718 12.4418L67.775 8.45751C68.6201 8.36092 68.6201 8.36092 70.5519 7.99872C73.8842 7.32261 76.1781 7.03284 78.134 7.03284C80.5004 7.03284 82.1183 7.49163 83.4222 8.52995C84.7262 9.56827 85.4264 11.162 85.4264 13.0937C85.4264 16.7882 83.0359 19.541 78.7377 20.8449C77.0716 21.352 76.6369 21.4244 73.2564 21.8108C72.9666 20.3137 72.6768 19.5168 71.7834 17.9473C74.0532 17.9473 75.8401 17.7058 77.6511 17.1504C79.2931 16.6433 80.6212 15.6533 81.1041 14.5425C81.2973 14.132 81.3939 13.625 81.3939 13.1179C81.3939 11.5966 80.1141 10.7032 77.9167 10.7032C76.2989 10.7032 74.2947 10.9929 71.5902 11.5966C69.9724 11.9588 69.4411 12.1037 68.5718 12.4418ZM102.039 3.43495L102.136 6.93625C104.43 6.64649 105.493 6.57405 108.535 6.57405C108.704 6.57405 109.211 6.57405 109.718 6.5982L109.791 10.679C108.632 10.5341 107.955 10.51 106.627 10.51C103.971 10.51 102.257 10.6549 99.8421 11.1137L99.6007 7.68481C98.4416 7.80554 98.1518 7.82969 97.4033 7.87799C96.9928 10.1478 96.5581 11.9347 95.882 14.446C95.2784 16.5709 95.1335 17.1021 94.0952 20.2171C93.7088 21.3761 93.7088 21.3761 93.5398 21.9557L89.0967 20.3378C90.6904 17.247 92.26 12.4418 93.1534 7.97457C92.9844 7.97457 92.8637 7.97457 92.7671 7.97457C91.9944 7.97457 91.4873 7.95043 90.449 7.90213C90.4248 7.90213 90.3282 7.90213 90.2075 7.90213C90.0143 7.90213 89.9177 7.90213 89.6521 7.92628L89.7246 3.99033C90.6663 4.13521 91.9461 4.2318 93.3949 4.2318C93.4673 4.2318 93.6364 4.2318 93.8537 4.2318C94.1676 2.30004 94.2642 1.35831 94.2642 0.609756C94.2642 0.537316 94.2642 0.416581 94.2642 0.247552L98.7797 0.585609C98.6348 1.06855 98.5623 1.31002 98.4657 1.98613C98.4416 2.13101 98.2967 2.83127 98.0794 4.06277C99.7455 3.89374 100.711 3.74886 102.039 3.43495ZM99.4799 12.4176L102.981 13.5767C102.064 14.6633 101.677 15.4601 101.677 16.2087C101.677 17.3194 102.667 17.8507 104.696 17.8507C106.579 17.8507 108.921 17.4643 110.394 16.9089L110.684 21.1347C110.201 21.183 109.984 21.2071 109.404 21.2795C107.135 21.5934 106.169 21.6659 104.696 21.6659C99.9629 21.6659 97.5965 20.1446 97.5965 17.1021C97.5965 15.7016 98.1518 14.3494 99.4799 12.4176ZM116.938 3.62812L118.87 0.150964C120.053 0.754638 121.502 1.26172 123.796 1.8654C125.438 2.30004 127.515 2.73469 128.649 2.90372L127.37 6.79137C122.999 5.89794 119.763 4.93206 116.938 3.62812ZM115.079 5.19768L119.305 5.46329C118.967 6.76723 118.556 9.03704 118.266 11.331C120.295 10.0271 122.42 9.44754 125.172 9.44754C129.47 9.44754 132.32 11.6932 132.32 15.1221C132.32 17.1987 131.33 19.058 129.591 20.2412C127.853 21.4244 125.655 21.9798 122.685 21.9798C120.705 21.9798 118.991 21.7866 116.624 21.2554C116.552 19.2512 116.455 18.4785 116.069 16.9572C118.459 17.7058 120.705 18.0921 122.516 18.0921C125.704 18.0921 127.828 16.9572 127.828 15.2428C127.828 13.963 126.573 13.2145 124.4 13.2145C122.589 13.2145 120.753 13.6974 119.111 14.6633C118.484 15.0013 118.242 15.2187 117.759 15.7499L113.751 15.5809C113.799 15.3635 113.799 15.3394 113.823 15.0979C113.944 13.9389 114.451 10.0754 114.934 6.74308C115.006 6.21185 115.055 5.8255 115.079 5.19768ZM147.774 15.1704H143.79C143.838 14.6874 143.838 14.4701 143.838 14.0837C143.838 13.625 143.838 13.625 143.741 12.2003L143.258 4.54571C143.21 3.55568 143.089 2.46907 142.969 1.28587H148.595C148.522 1.84125 148.377 3.53154 148.305 4.54571L147.822 12.2003C147.774 13.2145 147.75 13.6974 147.75 14.0596C147.75 14.3011 147.75 14.5667 147.774 15.1704ZM148.208 21.3761H143.355V16.8124H148.208V21.3761Z" fill="black"/>
</svg>
