<svg width="500" height="45" viewBox="0 0 500 45" fill="none" xmlns="http://www.w3.org/2000/svg">
<path d="M232.429 27.3692C232.485 28.6789 232.372 30.1914 231.384 31.1425C230.904 31.5946 230.283 31.8597 229.647 31.8753C229.012 31.9376 228.391 31.8285 227.798 31.657C226.598 31.2828 225.482 30.6279 224.494 29.8016C224.014 29.3962 223.52 28.8972 223.195 28.2736C222.856 27.6655 222.644 27.0106 222.489 26.3246C222.164 24.9681 222.164 23.5492 222.404 22.1927C222.489 21.5067 222.729 20.8518 222.927 20.1814C223.223 19.5577 223.449 18.9028 223.858 18.3727C224.564 17.2033 225.595 16.3302 226.682 15.6285C227.812 15.0049 229.012 14.5527 230.254 14.3656C230.876 14.3032 231.497 14.1629 232.118 14.1785L233.982 14.2097C235.238 14.3968 236.509 14.7398 237.554 15.535C239.728 16.985 241.281 19.3082 242.227 21.8185C243.188 24.3444 243.611 27.1042 243.399 29.8172C243.173 32.5301 242.242 35.1652 240.674 37.2389C242.143 35.0872 242.933 32.4366 243.046 29.786C243.188 27.1354 242.708 24.4535 241.719 22.0524C240.731 19.6668 239.248 17.4528 237.201 16.1275C236.213 15.3947 235.055 15.0984 233.911 14.9425H232.118C231.525 14.9113 230.932 15.0672 230.339 15.114C228.009 15.4726 225.708 16.6264 224.353 18.7781C223.971 19.277 223.746 19.8851 223.477 20.4464C223.294 21.0545 223.054 21.6626 222.983 22.3175C222.757 23.5804 222.729 24.9213 222.983 26.1842C223.336 28.8505 225.666 30.4252 227.868 31.2828C228.97 31.6726 230.311 31.8129 231.257 30.9865C232.217 30.1602 232.429 28.6789 232.415 27.3692H232.429Z" fill="#A37E39"/>
<path d="M238.599 39.5309C237.314 40.6535 235.86 41.5578 234.307 42.1191L231.991 43.0235L229.591 43.6471C226.372 44.3488 223.082 44.6606 219.792 44.5515C213.213 44.38 206.718 43.0546 200.364 41.2616C187.629 37.691 175.388 32.343 163.245 26.9327C151.103 21.4911 138.946 16.0495 126.437 11.7929C123.302 10.7327 120.168 9.70363 117.005 8.75253C113.856 7.77024 110.666 6.95946 107.446 6.35138C101.008 5.10403 94.4004 4.60509 87.9056 5.58738C94.4004 4.48035 101.036 4.85456 107.503 5.97717C110.75 6.55407 113.955 7.36485 117.118 8.31596C120.281 9.25147 123.429 10.2493 126.578 11.294C139.144 15.4726 151.357 20.8362 163.513 26.1998C175.628 31.6882 187.812 37.0986 200.491 40.7471C206.817 42.5713 213.283 43.9122 219.82 44.1461C223.082 44.3332 226.358 44.0837 229.577 43.4445L231.977 42.8675L234.307 42.01C235.874 41.4799 237.328 40.6067 238.641 39.5153L238.599 39.5309Z" fill="#A37E39"/>
<path d="M85.8018 5.97717C82.0461 7.14656 78.3469 8.6122 75.1701 11.0601C73.5606 12.2295 72.1345 13.6796 70.8779 15.3011C69.6213 16.9227 68.6048 18.7625 67.7858 20.7271C68.3365 18.6378 69.2542 16.6732 70.4544 14.9269C71.6545 13.1806 73.1511 11.6838 74.7748 10.4209C78.0787 7.97293 81.9191 6.52289 85.8018 5.97717Z" fill="#A37E39"/>
<path d="M66.6987 25.2487C66.6281 26.3713 66.5151 27.494 66.4869 28.6166C66.4869 29.7392 66.5575 30.8618 66.7269 31.9688C67.0516 34.1673 67.8141 36.2878 69.0424 38.0341C71.4992 41.5422 75.7208 43.2262 79.66 42.6649C81.6508 42.4622 83.571 41.6982 85.2512 40.5132C86.9031 39.297 88.2868 37.6131 89.1763 35.6329C90.0517 33.6683 90.5035 31.4075 90.4188 29.2091C90.2352 27.0106 89.2328 24.9057 87.835 23.2842C89.3175 24.8122 90.4611 26.8703 90.7718 29.1623C90.9271 31.4699 90.5176 33.7775 89.6705 35.8824C88.8233 38.0029 87.3408 39.7804 85.6183 41.0901C83.8534 42.353 81.8485 43.195 79.7447 43.4133C75.5937 43.9434 71.118 42.1659 68.6189 38.3615C67.3905 36.4749 66.6563 34.2608 66.4022 31.9844C66.2892 30.8462 66.2751 29.708 66.3316 28.5698C66.4022 27.4472 66.5857 26.3246 66.7128 25.202L66.6987 25.2487Z" fill="#A37E39"/>
<path d="M85.3641 21.4443C83.7546 20.8362 82.0038 20.8674 80.5354 21.6158C79.067 22.3798 77.7963 23.6116 77.0197 25.1864C76.2008 26.73 75.8055 28.5542 75.9608 30.3317C76.0879 32.1092 77.0197 33.8554 78.6576 34.4947C77.8245 34.3076 77.048 33.8087 76.455 33.0603C75.8761 32.3119 75.5937 31.3452 75.4243 30.4096C75.1278 28.4763 75.5372 26.4805 76.4126 24.7966C77.2739 23.0971 78.6999 21.7562 80.3377 21.0545C81.9897 20.3529 83.8816 20.5088 85.3783 21.4287L85.3641 21.4443Z" fill="#A37E39"/>
<path d="M208.285 34.791C209.062 37.1765 205.899 39.0943 204.247 37.348C203.47 36.5528 203.132 35.3211 203.245 34.1673C203.414 32.9979 203.894 32 204.544 31.0801C205.193 30.1602 206.224 29.5521 207.311 29.4741C208.384 29.4274 209.457 29.8327 210.29 30.5344C211.151 31.2204 211.787 32.2183 212.14 33.3253C212.478 34.4635 212.38 35.7265 211.998 36.8023C211.617 37.8937 211.024 38.8293 210.389 39.7024C209.753 40.5755 208.977 41.3707 208.087 41.9632C206.294 43.1326 204.289 43.6004 202.313 43.9434C198.317 44.5671 194.279 44.0369 190.424 43.0547C192.387 43.4289 194.364 43.6627 196.34 43.7251C198.317 43.8031 200.294 43.7251 202.228 43.3509C204.148 42.9299 206.125 42.4778 207.749 41.3551C208.567 40.7938 209.259 40.061 209.852 39.2346C210.445 38.3927 211.01 37.5039 211.335 36.5217C211.688 35.555 211.758 34.5103 211.49 33.5436C211.194 32.5925 210.643 31.6882 209.895 31.0957C209.16 30.472 208.243 30.1134 207.325 30.1446C206.421 30.2069 205.546 30.6747 204.939 31.4699C204.346 32.2495 203.838 33.2474 203.668 34.2297C203.527 35.2431 203.809 36.3502 204.473 37.083C204.798 37.4416 205.221 37.7378 205.673 37.7378C206.139 37.7378 206.647 37.6443 207.085 37.4572C207.523 37.2701 207.932 36.9115 208.116 36.4125C208.299 35.9136 208.271 35.3367 208.271 34.8065L208.285 34.791Z" fill="#A37E39"/>
<path d="M186.725 42.0256C184.127 41.3551 181.586 40.3573 179.157 39.0631C176.743 37.769 174.456 36.1163 172.465 34.0737C170.488 31.9844 169.062 29.3182 168.229 26.4805C167.834 25.046 167.566 23.5492 167.608 22.0524C167.65 20.5556 167.975 19.0588 168.639 17.7802C167.566 20.5244 167.848 23.596 168.737 26.2934C169.655 29.0064 171.011 31.5634 172.945 33.528C174.823 35.5706 177.054 37.1609 179.383 38.5486C181.727 39.9363 184.184 41.0433 186.711 42.0412L186.725 42.0256Z" fill="#A37E39"/>
<path d="M171.279 14.5839C173.058 13.165 175.444 12.6505 177.661 13.3521C178.748 13.7575 179.708 14.5683 180.372 15.613C181.007 16.6732 181.36 17.9206 181.459 19.1835C181.529 20.4464 181.346 21.7562 180.739 22.8788C180.16 24.0014 179.03 24.8589 177.83 24.8433C176.701 24.9057 175.444 24.4847 174.752 23.4089C174.103 22.3331 174.032 21.0077 174.244 19.8384C174.187 21.0233 174.357 22.3019 175.02 23.175C175.656 24.0637 176.771 24.3756 177.788 24.2509C178.804 24.1885 179.694 23.518 180.174 22.5357C180.682 21.569 180.823 20.3841 180.753 19.2459C180.682 18.1077 180.386 16.985 179.835 16.0183C179.256 15.0672 178.423 14.3656 177.477 13.9134C175.515 13.1806 173.199 13.4457 171.279 14.5839Z" fill="#A37E39"/>
<path d="M193.545 39.0008C186.683 36.241 179.934 33.1226 173.312 29.6768C166.718 26.1998 160.238 22.3642 154.251 17.6711C151.286 15.3323 148.265 13.0871 145.13 11.0289C141.996 8.98641 138.763 7.13097 135.445 5.49383C132.127 3.85668 128.682 2.50019 125.152 1.53349C121.622 0.53561 117.979 -0.0101056 114.337 0.0678538C121.664 -0.353127 128.95 1.81414 135.671 4.94811C142.434 8.11326 148.702 12.3698 154.675 17.0474C160.577 21.7562 167.029 25.5606 173.566 29.1467C180.117 32.6861 186.782 35.9915 193.559 39.0164L193.545 39.0008Z" fill="#A37E39"/>
<path d="M109.988 0.597978C108.237 1.03455 106.515 1.65823 104.905 2.51578C104.086 2.92117 103.338 3.46688 102.589 3.99701L101.46 4.79219L100.429 5.7277C97.6901 8.20681 95.5017 11.4655 94.3439 15.1608C93.2002 18.8405 92.8473 22.8788 93.4685 26.7456C93.9627 30.6435 95.6005 34.3388 98.3113 37.0206C96.9277 35.7421 95.6711 34.2764 94.7533 32.5301C93.8638 30.7683 93.2708 28.8349 92.932 26.8547C92.1837 22.8944 92.5508 18.7469 93.6803 14.9113C94.9369 11.1069 97.1959 7.72346 100.09 5.27554L101.178 4.35562L102.349 3.59162C103.126 3.07709 103.903 2.54696 104.75 2.17276C106.43 1.40876 108.195 0.909815 109.974 0.597978H109.988Z" fill="#A37E39"/>
<path d="M101.46 39.375C102.942 39.9831 104.481 40.3261 106.006 40.2013C107.517 40.061 109 39.5309 110.228 38.5642C110.849 38.0964 111.442 37.5507 111.95 36.927C112.501 36.3501 112.854 35.6485 113.136 34.8689C113.673 33.3097 113.715 31.5478 113.447 29.8327C114.012 31.4543 114.125 33.3253 113.659 35.056C113.447 35.9292 113.009 36.7711 112.445 37.426C111.908 38.0964 111.287 38.6889 110.623 39.2035C109.282 40.2169 107.644 40.7938 106.02 40.7938C105.216 40.7938 104.411 40.6535 103.634 40.4196C102.872 40.1546 102.138 39.8115 101.46 39.3594V39.375Z" fill="#A37E39"/>
<path d="M111.781 26.5117C110.454 25.1552 108.689 24.4847 106.966 24.5471C105.286 24.6095 103.761 25.9036 102.914 27.5096C102.477 28.3047 102.18 29.2091 102.208 30.1134C102.208 31.0177 102.646 31.8285 103.338 32.343C104.044 32.8888 104.863 33.263 105.724 33.2785C106.571 33.2785 107.418 32.7952 107.983 32.0312C107.545 32.9043 106.698 33.5436 105.738 33.6683C104.778 33.7463 103.846 33.3877 103.055 32.8732C102.18 32.3742 101.601 31.2672 101.573 30.1758C101.516 29.0843 101.841 28.0397 102.321 27.1353C103.31 25.3891 105.004 23.9234 106.98 23.9858C108.844 24.0482 110.68 24.9681 111.795 26.5585L111.781 26.5117Z" fill="#A37E39"/>
<path d="M169.486 29.3026C166.323 28.8816 163.175 28.4295 160.026 27.9305L150.594 26.3558L141.191 24.5939C138.057 23.9858 134.936 23.3309 131.816 22.6293C134.979 23.0503 138.127 23.5024 141.276 24.0014L150.707 25.5762L160.111 27.338C163.245 27.9461 166.365 28.601 169.486 29.3026Z" fill="#A37E39"/>
<path d="M127.439 21.8029C124.771 21.3508 122.088 20.9142 119.419 20.4153C116.751 19.8851 114.097 19.2926 111.456 18.6846C106.162 17.4528 100.895 16.0651 95.6005 14.8957C90.3199 13.6796 84.9829 12.6505 79.6177 12.1048C74.2524 11.5747 68.8165 11.5435 63.4936 12.6505C68.7601 11.2472 74.2665 11.0757 79.66 11.4967C85.0818 11.9177 90.4329 12.9623 95.7417 14.1317C101.036 15.3635 106.303 16.7356 111.569 18.0921C116.836 19.4641 122.116 20.6647 127.439 21.7873V21.8029Z" fill="#A37E39"/>
<path d="M60.1474 13.664C55.9682 15.6285 51.8171 17.6399 47.9344 20.197C45.9718 21.4287 44.1222 22.8476 42.315 24.36C40.5077 25.8568 38.8134 27.5251 37.0909 29.1623C38.6016 27.2913 40.2112 25.4982 41.9761 23.8922C43.7269 22.2707 45.6188 20.8362 47.5673 19.5265C49.544 18.2792 51.5912 17.141 53.695 16.1587C55.7987 15.1764 57.9448 14.3344 60.1333 13.664H60.1474Z" fill="#A37E39"/>
<path d="M33.7305 32.842L31.5421 35.056C30.822 35.82 30.0737 36.5217 29.2548 37.1609C27.6311 38.4395 25.8944 39.5309 24.0731 40.4196C20.4303 42.1971 16.364 43.117 12.3542 42.5557C10.3493 42.2595 8.42911 41.5111 6.63598 40.5288C4.85697 39.5309 3.16268 38.19 1.94844 36.3813C0.691836 34.6194 0.0141191 32.3742 0 30.1602C0.0141191 27.9305 0.748313 25.7789 1.87784 23.9858C0.847147 25.8412 0.254144 28.0085 0.352978 30.1446C0.451811 32.2807 1.15777 34.37 2.38613 36.0071C3.61449 37.6443 5.19583 38.9384 6.93248 39.8895C8.66913 40.825 10.547 41.5266 12.4672 41.7917C16.3217 42.3998 20.275 41.4955 23.8895 39.8739C25.6968 39.0631 27.4475 38.0341 29.0854 36.8491C29.9184 36.2722 30.7091 35.6173 31.4574 34.9157L33.7588 32.842H33.7305Z" fill="#A37E39"/>
<path d="M3.67097 21.6626C4.7299 20.5244 5.95826 19.5265 7.34194 18.8872C8.72561 18.2324 10.2928 17.9829 11.8036 18.2324C14.8533 18.6534 17.5783 21.3975 18.1148 24.8278C18.369 26.5117 18.1572 28.3515 17.2394 29.8172C16.2935 31.2984 14.7121 32.0156 13.2155 32.2339C12.4531 32.343 11.6906 32.3742 10.9282 32.2963C10.0952 32.1715 9.41745 31.7817 8.76797 31.314C8.13261 30.8306 7.56784 30.1914 7.22898 29.3962C6.90424 28.601 6.87601 27.6499 7.14427 26.8547V26.8079L8.30204 25.1084L7.41253 26.995V26.9482C7.2431 27.7122 7.28546 28.5074 7.58196 29.1935C7.89258 29.8795 8.41499 30.4252 9.02211 30.8462C9.61511 31.2516 10.3069 31.5946 10.9564 31.657C11.6765 31.7194 12.3966 31.6882 13.1025 31.5634C14.5003 31.3296 15.884 30.6435 16.6605 29.3806C17.423 28.1332 17.6348 26.4805 17.423 24.9525C16.9853 21.8341 14.5286 19.3238 11.7047 18.7781C8.83856 18.1856 5.87355 19.5421 3.64273 21.6782L3.67097 21.6626Z" fill="#A37E39"/>
<path d="M267.529 27.3692C267.529 28.6789 267.727 30.1758 268.687 30.9865C269.633 31.8129 270.974 31.6726 272.075 31.2828C274.278 30.4252 276.607 28.8505 276.96 26.1842C277.229 24.9213 277.2 23.5804 276.96 22.3175C276.89 21.6626 276.65 21.0701 276.466 20.4464C276.184 19.8851 275.972 19.277 275.591 18.7781C274.235 16.6264 271.934 15.4726 269.604 15.114C269.011 15.0672 268.432 14.9113 267.825 14.9269H266.032C264.889 15.114 263.731 15.3947 262.743 16.1275C260.695 17.4372 259.227 19.6668 258.224 22.0524C257.236 24.4535 256.756 27.1354 256.897 29.786C257.01 32.4366 257.801 35.0872 259.269 37.2389C257.702 35.1652 256.784 32.5301 256.544 29.8172C256.332 27.1042 256.756 24.3288 257.716 21.8185C258.662 19.3082 260.215 16.9694 262.39 15.535C263.434 14.7398 264.705 14.3968 265.962 14.2097L267.825 14.1785C268.447 14.1473 269.068 14.3032 269.689 14.3656C270.932 14.5683 272.132 15.0049 273.261 15.6285C274.348 16.3302 275.379 17.2033 276.085 18.3727C276.495 18.9184 276.735 19.5733 277.017 20.1814C277.215 20.8362 277.455 21.4911 277.539 22.1927C277.779 23.5492 277.765 24.9681 277.455 26.3246C277.299 26.995 277.088 27.6655 276.749 28.2736C276.424 28.8972 275.93 29.3962 275.45 29.8016C274.461 30.6279 273.346 31.2828 272.146 31.657C271.539 31.8285 270.917 31.9376 270.296 31.8753C269.675 31.8597 269.04 31.5946 268.56 31.1425C267.571 30.1914 267.444 28.6789 267.515 27.3692H267.529Z" fill="#A37E39"/>
<path d="M261.373 39.5309C262.672 40.6223 264.14 41.4955 265.708 42.0256L268.037 42.8831L270.437 43.46C273.642 44.0993 276.932 44.3488 280.194 44.1617C286.731 43.9278 293.197 42.5713 299.523 40.7626C312.202 37.1142 324.372 31.7038 336.501 26.2154C348.671 20.8362 360.87 15.4882 373.436 11.3096C376.571 10.2649 379.719 9.25147 382.896 8.33155C386.059 7.36485 389.264 6.56967 392.511 5.99277C398.992 4.87015 405.628 4.49595 412.109 5.60297C405.6 4.62068 398.992 5.13521 392.568 6.36697C389.349 6.97505 386.158 7.78583 383.009 8.76812C379.846 9.71922 376.712 10.7483 373.577 11.8085C361.054 16.0651 348.897 21.5067 336.769 26.9482C324.627 32.3586 312.385 37.7066 299.65 41.2772C293.296 43.0547 286.787 44.38 280.222 44.5671C276.932 44.6918 273.642 44.38 270.423 43.6627L268.023 43.0391L265.708 42.1347C264.154 41.5734 262.7 40.6691 261.415 39.5465L261.373 39.5309Z" fill="#A37E39"/>
<path d="M414.17 5.97717C418.053 6.52289 421.893 7.97293 425.197 10.4209C426.821 11.6838 428.317 13.165 429.517 14.9269C430.718 16.6732 431.635 18.6378 432.186 20.7271C431.367 18.7625 430.336 16.9227 429.094 15.3011C427.851 13.6796 426.411 12.2451 424.802 11.0601C421.639 8.6122 417.94 7.14656 414.17 5.97717Z" fill="#A37E39"/>
<path d="M433.259 25.2487C433.386 26.3713 433.556 27.4784 433.64 28.6166C433.711 29.7548 433.683 30.893 433.57 32.0312C433.301 34.292 432.581 36.5217 431.353 38.4083C428.854 42.1971 424.364 43.9902 420.227 43.46C418.137 43.2262 416.118 42.3842 414.354 41.1369C412.631 39.8271 411.148 38.0497 410.301 35.9292C409.454 33.8087 409.045 31.5167 409.2 29.2091C409.511 26.9171 410.64 24.8589 412.137 23.3309C410.725 24.9525 409.722 27.0574 409.553 29.2558C409.468 31.4387 409.934 33.6995 410.796 35.6797C411.685 37.6599 413.069 39.3282 414.721 40.56C416.401 41.7293 418.321 42.5089 420.312 42.7116C424.265 43.2729 428.487 41.589 430.929 38.0808C432.144 36.3346 432.92 34.2141 433.245 32.0156C433.414 30.9086 433.485 29.8016 433.485 28.6634C433.471 27.5407 433.344 26.4181 433.273 25.2955L433.259 25.2487Z" fill="#A37E39"/>
<path d="M414.608 21.4443C416.09 20.5244 417.996 20.3685 419.648 21.0701C421.286 21.7562 422.712 23.0971 423.573 24.8122C424.463 26.4961 424.858 28.4918 424.562 30.4252C424.392 31.3763 424.096 32.3274 423.531 33.0759C422.952 33.8087 422.175 34.3232 421.328 34.5103C422.966 33.8554 423.898 32.1092 424.025 30.3473C424.166 28.5698 423.785 26.7456 422.966 25.202C422.19 23.6272 420.919 22.3954 419.45 21.6314C417.968 20.883 416.217 20.8362 414.622 21.4599L414.608 21.4443Z" fill="#A37E39"/>
<path d="M291.687 34.791C291.687 35.3367 291.644 35.898 291.842 36.3969C292.011 36.9115 292.421 37.2545 292.873 37.4416C293.31 37.6287 293.833 37.7222 294.285 37.7222C294.751 37.7222 295.174 37.426 295.485 37.0674C296.148 36.3346 296.417 35.2275 296.29 34.2141C296.12 33.2162 295.612 32.2183 295.019 31.4543C294.412 30.6591 293.536 30.1914 292.633 30.129C291.729 30.0978 290.797 30.4564 290.063 31.0801C289.315 31.6882 288.764 32.5925 288.468 33.528C288.199 34.4947 288.27 35.5394 288.623 36.5061C288.948 37.4728 289.498 38.3615 290.105 39.2191C290.698 40.061 291.404 40.7938 292.209 41.3396C293.833 42.4622 295.809 42.8987 297.73 43.3353C299.664 43.7095 301.641 43.7875 303.617 43.7095C305.594 43.6471 307.571 43.4133 309.533 43.0391C305.665 44.0213 301.641 44.5515 297.645 43.9278C295.668 43.5848 293.663 43.117 291.87 41.9476C290.981 41.3551 290.218 40.56 289.569 39.6868C288.933 38.8137 288.34 37.8782 287.959 36.7867C287.578 35.7109 287.479 34.4479 287.818 33.3097C288.185 32.2027 288.806 31.2048 289.668 30.5188C290.515 29.8171 291.574 29.4118 292.647 29.4585C293.734 29.5365 294.765 30.1446 295.414 31.0645C296.064 31.9844 296.544 32.9823 296.713 34.1517C296.84 35.3055 296.487 36.5373 295.711 37.3324C294.059 39.0943 290.91 37.1609 291.673 34.7754L291.687 34.791Z" fill="#A37E39"/>
<path d="M313.247 42.0256C315.76 41.0433 318.231 39.9207 320.574 38.533C322.904 37.1453 325.135 35.5394 327.013 33.5124C328.947 31.5478 330.302 28.9908 331.22 26.2778C332.11 23.5804 332.392 20.5088 331.319 17.7646C331.983 19.0432 332.307 20.54 332.35 22.0368C332.392 23.5336 332.124 25.0304 331.728 26.4649C330.895 29.3026 329.469 31.9844 327.493 34.0581C325.516 36.1163 323.229 37.7534 320.8 39.0475C318.372 40.3417 315.83 41.324 313.232 42.01L313.247 42.0256Z" fill="#A37E39"/>
<path d="M328.679 14.5839C326.759 13.4457 324.443 13.1806 322.48 13.9134C321.534 14.3656 320.701 15.0672 320.123 16.0183C319.572 16.985 319.275 18.1077 319.205 19.2459C319.12 20.3685 319.275 21.5535 319.784 22.5357C320.264 23.518 321.153 24.1885 322.17 24.2509C323.186 24.3756 324.288 24.0793 324.937 23.175C325.615 22.3019 325.77 21.0233 325.714 19.8384C325.926 21.0077 325.855 22.3331 325.205 23.4089C324.528 24.4847 323.257 24.9213 322.127 24.8433C320.927 24.8745 319.798 24.0014 319.219 22.8788C318.612 21.7562 318.428 20.4464 318.499 19.1835C318.598 17.9206 318.951 16.6888 319.586 15.613C320.25 14.5683 321.21 13.7419 322.297 13.3521C324.499 12.6661 326.886 13.165 328.679 14.5839Z" fill="#A37E39"/>
<path d="M306.427 39.0008C313.204 35.9759 319.868 32.6705 326.42 29.1311C332.943 25.545 339.395 21.7406 345.311 17.0318C351.283 12.3543 357.552 8.09767 364.315 4.93252C371.036 1.79855 378.322 -0.368719 385.649 0.0522619C381.992 -0.0256975 378.35 0.520018 374.834 1.5179C371.304 2.469 367.859 3.84109 364.541 5.47823C361.223 7.11538 357.99 8.97081 354.856 11.0134C351.735 13.0715 348.7 15.3167 345.735 17.6555C339.748 22.3486 333.267 26.1842 326.674 29.6612C320.066 33.1226 313.317 36.2254 306.441 38.9852L306.427 39.0008Z" fill="#A37E39"/>
<path d="M389.984 0.597978C391.763 0.909815 393.528 1.40876 395.208 2.17276C396.055 2.54696 396.832 3.06149 397.608 3.59162L398.78 4.35562L399.867 5.27554C402.762 7.72346 405.021 11.1069 406.277 14.9113C407.421 18.7469 407.774 22.91 407.026 26.8547C406.687 28.8349 406.094 30.7683 405.204 32.5301C404.287 34.292 403.03 35.7577 401.646 37.0206C404.343 34.3388 405.995 30.6435 406.489 26.7456C407.11 22.8788 406.757 18.8561 405.614 15.1608C404.456 11.4655 402.282 8.20681 399.528 5.7277L398.498 4.79219L397.368 3.99701C396.62 3.45129 395.872 2.90558 395.053 2.51578C393.443 1.64263 391.735 1.01896 389.97 0.597978H389.984Z" fill="#A37E39"/>
<path d="M398.498 39.375C397.82 39.8271 397.086 40.1702 396.323 40.4352C395.547 40.6691 394.756 40.7938 393.937 40.8094C392.314 40.8094 390.676 40.2481 389.334 39.2191C388.671 38.7045 388.05 38.112 387.513 37.4416C386.948 36.7867 386.525 35.9448 386.299 35.0716C385.833 33.3409 385.946 31.4699 386.511 29.8483C386.242 31.5478 386.285 33.3253 386.821 34.8845C387.104 35.6641 387.457 36.3657 388.007 36.9426C388.516 37.5663 389.109 38.112 389.73 38.5798C390.972 39.5465 392.441 40.0766 393.951 40.2169C395.476 40.3417 397.015 39.9831 398.498 39.3906V39.375Z" fill="#A37E39"/>
<path d="M388.191 26.5117C389.306 24.9213 391.156 24.0014 393.005 23.939C394.982 23.8766 396.676 25.3423 397.665 27.0886C398.145 27.9929 398.469 29.0376 398.413 30.129C398.385 31.2204 397.806 32.3274 396.931 32.8264C396.14 33.3409 395.194 33.6995 394.248 33.6216C393.302 33.4968 392.441 32.8732 392.003 31.9844C392.568 32.764 393.415 33.2474 394.262 33.2318C395.109 33.2318 395.928 32.842 396.648 32.2963C397.34 31.7817 397.778 30.971 397.778 30.0666C397.806 29.1623 397.509 28.258 397.072 27.4628C396.239 25.8568 394.7 24.5627 393.02 24.5003C391.297 24.4535 389.518 25.124 388.205 26.4649L388.191 26.5117Z" fill="#A37E39"/>
<path d="M330.486 29.3026C333.606 28.601 336.727 27.9461 339.861 27.338L349.264 25.5762L358.696 24.0014C361.845 23.5024 364.993 23.0347 368.156 22.6293C365.035 23.3309 361.915 23.9858 358.781 24.5939L349.377 26.3558L339.946 27.9305C336.797 28.4295 333.649 28.8972 330.486 29.3026Z" fill="#A37E39"/>
<path d="M372.519 21.8029C377.841 20.6803 383.122 19.4641 388.388 18.1077C393.655 16.7512 398.921 15.3791 404.216 14.1473C409.525 12.9779 414.876 11.9489 420.298 11.5123C425.705 11.0913 431.198 11.2628 436.464 12.6661C431.141 11.5435 425.705 11.5902 420.34 12.1204C414.975 12.6661 409.638 13.6952 404.357 14.9113C399.062 16.0807 393.796 17.4684 388.501 18.7001C385.847 19.3082 383.193 19.9007 380.538 20.4308C377.87 20.9298 375.187 21.3664 372.519 21.8185V21.8029Z" fill="#A37E39"/>
<path d="M439.824 13.664C442.013 14.35 444.159 15.192 446.263 16.1587C448.366 17.1254 450.414 18.2636 452.39 19.5265C454.339 20.8362 456.245 22.2551 457.982 23.8922C459.732 25.5138 461.356 27.2913 462.867 29.1623C461.144 27.5096 459.45 25.8568 457.643 24.36C455.85 22.8476 453.986 21.4443 452.023 20.197C448.141 17.6399 444.004 15.6285 439.81 13.664H439.824Z" fill="#A37E39"/>
<path d="M466.241 32.842L468.543 34.9157C469.291 35.6173 470.082 36.2722 470.915 36.8491C472.552 38.0497 474.289 39.0631 476.11 39.8739C479.725 41.4955 483.678 42.3998 487.533 41.7917C489.453 41.5266 491.317 40.8406 493.068 39.8895C494.804 38.954 496.4 37.6599 497.614 36.0071C498.856 34.37 499.548 32.2807 499.647 30.1446C499.746 27.9929 499.153 25.8412 498.122 23.9858C499.238 25.7789 499.972 27.9305 500 30.1602C499.972 32.3742 499.294 34.6194 498.052 36.3813C496.823 38.1744 495.143 39.5153 493.364 40.5288C491.571 41.5266 489.651 42.2595 487.646 42.5557C483.636 43.117 479.556 42.1971 475.927 40.4196C474.106 39.5153 472.369 38.4239 470.745 37.1609C469.94 36.5217 469.178 35.82 468.458 35.056L466.269 32.842H466.241Z" fill="#A37E39"/>
<path d="M496.301 21.6626C494.084 19.5265 491.105 18.17 488.239 18.7625C485.415 19.3238 482.958 21.8185 482.521 24.9369C482.309 26.4649 482.521 28.1176 483.283 29.365C484.06 30.6279 485.443 31.2984 486.841 31.5478C487.547 31.6726 488.267 31.6882 488.987 31.6414C489.637 31.5946 490.328 31.236 490.921 30.8306C491.514 30.4252 492.051 29.8639 492.362 29.1779C492.672 28.4918 492.7 27.6967 492.517 26.9327V26.9794L491.641 25.0928L492.799 26.7923V26.8391C493.068 27.6343 493.039 28.5854 492.715 29.3806C492.39 30.1758 491.811 30.815 491.176 31.2984C490.526 31.7661 489.848 32.1715 489.015 32.2807C488.253 32.3586 487.49 32.3274 486.728 32.2183C485.231 31.9844 483.65 31.2672 482.704 29.8016C481.772 28.3359 481.56 26.4961 481.829 24.8122C482.365 21.3819 485.09 18.6378 488.14 18.2168C489.651 17.9673 491.218 18.2168 492.602 18.8717C493.999 19.5109 495.214 20.5088 496.273 21.647L496.301 21.6626Z" fill="#A37E39"/>
</svg>
