<svg width="414" height="141" viewBox="0 0 414 141" fill="none" xmlns="http://www.w3.org/2000/svg">
<line x1="42" y1="1.5" x2="-5.50324e-08" y2="1.5" stroke="#101541"/>
<line x1="42" y1="140.5" x2="-5.50324e-08" y2="140.5" stroke="#101541"/>
<line x1="0.5" y1="1" x2="0.499992" y2="140" stroke="#101541"/>
<path d="M40.8118 44.72V55.64C40.8118 56.72 40.8518 57.42 40.9718 58.24H37.9518C38.0718 57.4 38.1118 56.72 38.1118 55.64V44.72H35.4118C34.2318 44.72 33.3718 44.76 32.6718 44.86V42.18C33.3918 42.28 34.2518 42.32 35.3918 42.32H43.3118C44.7518 42.32 45.4918 42.28 46.2518 42.18V44.86C45.5118 44.76 44.7518 44.72 43.3118 44.72H40.8118ZM56.8915 42C59.0915 42 60.7915 42.64 62.1515 44C63.6115 45.46 64.3915 47.64 64.3915 50.24C64.3915 55.3 61.4515 58.58 56.9115 58.58C52.3715 58.58 49.4515 55.32 49.4515 50.24C49.4515 47.66 50.2515 45.44 51.7315 44C53.1115 42.64 54.7715 42 56.8915 42ZM56.9515 56.2C59.8115 56.2 61.5915 53.92 61.5915 50.24C61.5915 48.22 61.0315 46.6 60.0115 45.58C59.1915 44.78 58.1315 44.36 56.9315 44.36C54.0515 44.36 52.2315 46.64 52.2315 50.26C52.2315 52.26 52.8115 53.94 53.8515 54.98C54.6715 55.78 55.7315 56.2 56.9515 56.2ZM71.6893 58.24H68.7293C68.8493 57.44 68.8893 56.74 68.8893 55.66V44.84C68.8893 43.88 68.8493 43.16 68.7293 42.26C69.5893 42.3 70.2093 42.32 71.2693 42.32H75.4493C77.3893 42.32 78.7493 42.78 79.7093 43.74C80.5293 44.54 80.9493 45.74 80.9493 47.18C80.9493 48.7 80.4893 49.94 79.6093 50.86C78.6293 51.84 77.2693 52.3 75.3493 52.3H71.5293V55.64C71.5293 56.72 71.5693 57.48 71.6893 58.24ZM71.5293 50H75.3493C77.1893 50 78.1893 49.02 78.1893 47.26C78.1893 46.46 77.9693 45.8 77.5293 45.34C77.0693 44.84 76.4093 44.62 75.3493 44.62H71.5293V50ZM92.2881 52.12V51.24H87.5481C86.8281 51.24 86.2481 51.26 85.7081 51.32V49.58C86.1881 49.64 86.7081 49.66 87.5881 49.66H92.2881V48.9H88.0481C87.3281 48.9 86.8281 48.92 86.3681 48.96C86.4081 48.54 86.4281 48.12 86.4281 47.62V46.3C86.4281 45.74 86.4081 45.38 86.3681 44.9C86.8881 44.94 87.3081 44.96 88.0681 44.96H92.2881V44.2H86.8081C85.8281 44.2 85.1681 44.24 84.4681 44.32V42.34C85.0881 42.42 85.7681 42.46 86.9281 42.46H92.2881C92.2681 41.76 92.2481 41.54 92.1681 41.1H94.5881C94.4881 41.54 94.4681 41.74 94.4481 42.46H100.068C101.228 42.46 101.888 42.42 102.528 42.34V44.32C101.848 44.24 101.148 44.2 100.188 44.2H94.4481V44.96H98.9681C99.7281 44.96 100.168 44.94 100.648 44.9C100.608 45.34 100.588 45.68 100.588 46.3V47.62C100.588 48.22 100.608 48.52 100.648 48.96C100.208 48.92 99.6881 48.9 99.0481 48.9H94.4481V49.66H98.9281C100.108 49.66 100.508 49.64 101.068 49.6C101.008 50.1 101.008 50.38 101.008 51.42V52.12C101.868 52.12 102.348 52.08 102.748 52.02V53.92C102.268 53.86 101.888 53.82 101.008 53.82V54.98C101.008 56.02 101.028 56.56 101.108 57.14H98.8681V56.36H94.4481V57.48C94.4481 59.28 93.9481 59.66 91.5081 59.66C91.0281 59.66 90.2281 59.62 89.5881 59.58C89.4681 58.78 89.3481 58.38 88.9681 57.6C90.0481 57.72 90.7881 57.78 91.5081 57.78C92.1281 57.78 92.2881 57.68 92.2881 57.32V56.36H87.5881C86.6881 56.36 86.2081 56.38 85.6081 56.46V54.6C86.1481 54.66 86.4881 54.68 87.5081 54.68H92.2881V53.82H86.5481C85.4081 53.82 84.8681 53.84 84.3481 53.92V52.02C84.8681 52.1 85.3681 52.12 86.5081 52.12H92.2881ZM94.4481 52.12H98.8681V51.24H94.4481V52.12ZM94.4481 53.82V54.68H98.8681V53.82H94.4481ZM92.2881 46.52H88.5481V47.34H92.2881V46.52ZM94.4481 46.52V47.34H98.4681V46.52H94.4481ZM117.128 53.92H115.588C114.808 53.92 114.448 53.94 114.008 54V52.08C113.808 52.58 113.728 52.72 113.468 53.26C112.908 52.7 112.668 52.52 112.008 52.16C112.508 51.34 112.888 50.5 113.148 49.62H111.888L111.928 57.72C111.928 58.34 111.808 58.76 111.508 59.06C111.228 59.32 110.608 59.46 109.648 59.46C109.208 59.46 108.588 59.44 107.988 59.4C107.948 58.64 107.848 58.18 107.568 57.44C108.388 57.58 108.968 57.64 109.348 57.64C109.888 57.64 110.008 57.56 109.988 57.16L109.968 52.38C109.208 54.14 108.288 55.46 107.028 56.62C106.728 55.68 106.488 55.18 106.028 54.44C107.648 53.06 108.548 51.78 109.408 49.62H108.028C107.268 49.62 106.808 49.64 106.348 49.72V47.6C106.848 47.68 107.328 47.7 108.148 47.7H110.148C109.188 46.76 108.408 46.1 107.488 45.44L108.728 44.24C109.848 45.08 109.948 45.14 110.448 45.58C111.108 45.06 111.548 44.56 112.068 43.82H108.588C107.888 43.82 107.388 43.84 106.868 43.9V41.84C107.408 41.9 107.868 41.92 108.748 41.92H112.168C113.188 41.92 113.448 41.9 113.868 41.86L114.948 43.02C114.868 43.12 114.708 43.32 114.508 43.6C113.648 44.78 112.488 46.1 111.708 46.74C111.888 46.94 111.968 47 112.148 47.22L111.708 47.7H112.908C113.608 47.7 113.988 47.68 114.368 47.64L115.228 48.7C115.148 48.86 115.088 49 114.988 49.32C116.248 49.02 117.288 48.62 118.268 48.08C117.568 47.4 117.048 46.76 116.628 46.02C116.148 46.66 115.868 46.96 115.088 47.78C114.628 47.22 114.188 46.84 113.568 46.42C115.068 45.12 115.868 44.08 116.548 42.56C116.828 41.94 116.928 41.66 117.048 41.04L119.128 41.44C119.068 41.54 118.948 41.82 118.828 42.14C118.728 42.4 118.648 42.58 118.488 42.92H122.628C123.568 42.92 124.228 42.88 124.748 42.82V44.86C124.288 44.8 123.928 44.78 123.308 44.78C122.688 46.26 122.268 46.92 121.328 47.92C122.508 48.48 123.448 48.74 125.168 49.04C124.688 49.82 124.548 50.16 124.248 51.12C122.068 50.5 120.908 50.02 119.748 49.26C119.208 49.64 118.748 49.88 117.888 50.28L119.928 50.3C119.908 50.44 119.908 50.44 119.908 50.56C119.888 50.66 119.868 50.78 119.848 50.92C119.848 51.02 119.828 51.06 119.808 51.24C119.788 51.52 119.748 51.66 119.708 52.02H122.548C123.428 52.02 123.768 52 124.128 51.94C124.068 52.4 124.068 52.4 124.048 52.82C123.888 55.2 123.628 57.02 123.348 57.84C122.948 59.06 122.428 59.38 120.868 59.38C120.308 59.38 119.668 59.34 118.748 59.24C118.688 58.44 118.588 58 118.288 57.16C119.208 57.34 119.988 57.44 120.588 57.44C121.228 57.44 121.428 57.2 121.648 56.18C121.788 55.52 121.848 54.92 121.908 53.92H119.288C118.428 56.66 116.848 58.3 113.688 59.68C113.328 59 112.988 58.5 112.448 57.9C115.008 56.94 116.328 55.82 117.128 53.92ZM115.708 52.02H117.628C117.688 51.46 117.728 51 117.728 50.52C117.728 50.44 117.728 50.42 117.708 50.36C116.948 50.68 116.528 50.82 115.428 51.18C115.188 50.64 115.088 50.48 114.768 49.98C114.508 50.82 114.348 51.24 114.068 51.96C114.428 52 114.808 52.02 115.708 52.02ZM121.168 44.78H118.028C118.408 45.56 118.968 46.24 119.748 46.94C120.468 46.2 120.788 45.74 121.168 44.78ZM142.668 49.38H140.308C140.188 51.82 139.928 53.4 139.428 54.84C139.008 56.04 138.448 57.12 137.688 58.08C137.388 58.5 137.088 58.84 136.408 59.58C135.868 58.84 135.448 58.42 134.748 57.92C136.288 56.48 137.088 55.22 137.588 53.5C138.028 51.98 138.228 49.74 138.228 46.1C138.228 44.22 138.208 43.6 138.148 42.94C140.608 42.92 144.008 42.16 145.608 41.26L146.748 43.3C146.388 43.38 146.268 43.42 145.828 43.56C143.768 44.2 142.468 44.48 140.368 44.78V47.28H144.908C145.848 47.28 146.268 47.26 146.848 47.16V49.48C146.308 49.4 145.848 49.38 145.088 49.38H144.788V57.3C144.788 58.34 144.808 58.84 144.908 59.46H142.548C142.628 58.82 142.668 58.26 142.668 57.28V49.38ZM128.808 44.22V41.98C129.388 42.06 129.928 42.08 130.968 42.08H135.288C136.468 42.08 136.948 42.06 137.468 41.98V44.22C136.948 44.14 136.428 44.12 135.388 44.12H130.848C129.928 44.12 129.368 44.14 128.808 44.22ZM136.888 47.42V50.86C136.888 51.74 136.888 51.96 136.928 52.46C136.728 52.46 136.068 52.44 134.968 52.42H131.648C131.488 55.76 131.048 57.48 129.868 59.54C129.268 58.8 128.828 58.42 128.088 57.96C129.328 55.84 129.668 53.8 129.668 48.4C129.668 47.06 129.648 46.36 129.568 45.62C130.228 45.66 130.728 45.68 131.688 45.68H134.928C135.848 45.68 136.328 45.66 136.948 45.62C136.908 46.04 136.888 46.64 136.888 47.42ZM131.688 50.52H134.828V47.56H131.708V49C131.708 49.76 131.708 49.94 131.688 50.52ZM151.728 45.9L151.768 43.62C152.588 43.8 153.868 43.88 156.408 43.88C156.948 42.68 157.128 42.08 157.208 41.4L159.828 41.68C159.708 41.88 159.708 41.88 159.028 43.48C158.928 43.7 158.888 43.76 158.848 43.84C159.008 43.82 159.008 43.82 160.108 43.76C162.428 43.62 164.248 43.4 165.348 43.08L165.488 45.36C164.928 45.4 164.928 45.4 163.908 45.52C162.448 45.7 159.908 45.86 157.888 45.92C157.308 47.06 156.748 47.86 156.048 48.58L156.068 48.62C156.208 48.52 156.208 48.52 156.468 48.32C157.208 47.76 158.268 47.42 159.288 47.42C160.848 47.42 161.828 48.16 162.148 49.54C163.688 48.98 164.708 48.62 165.208 48.46C166.288 48.08 166.368 48.06 166.688 47.86L167.628 50.16C167.068 50.24 166.468 50.4 165.408 50.7C165.128 50.78 164.128 51.12 162.408 51.72V51.94C162.428 52.46 162.428 52.46 162.428 52.74C162.428 52.94 162.428 53.28 162.428 53.54C162.408 53.88 162.408 54.06 162.408 54.2C162.408 54.64 162.428 54.92 162.468 55.26L160.148 55.32C160.228 54.96 160.268 53.94 160.268 53C160.268 52.72 160.268 52.72 160.268 52.52C159.288 52.98 158.768 53.26 158.348 53.56C157.648 54.08 157.308 54.62 157.308 55.2C157.308 56.24 158.268 56.66 160.688 56.66C163.088 56.66 165.148 56.36 166.568 55.82L166.768 58.4C166.428 58.4 166.328 58.42 165.848 58.48C164.408 58.7 162.488 58.84 160.728 58.84C158.608 58.84 157.288 58.6 156.268 58C155.348 57.48 154.808 56.52 154.808 55.42C154.808 54.6 155.048 53.96 155.688 53.2C156.588 52.08 157.728 51.32 159.988 50.38C159.888 49.64 159.488 49.3 158.768 49.3C157.608 49.3 156.208 50 154.668 51.36C153.828 52.06 153.368 52.56 152.928 53.18L151.108 51.38C151.628 50.98 152.208 50.42 152.908 49.6C153.688 48.68 154.908 46.94 155.308 46.18C155.388 46.02 155.388 46.02 155.468 45.92C155.388 45.92 155.128 45.94 155.128 45.94C154.808 45.94 153.048 45.9 152.608 45.9C152.228 45.88 152.228 45.88 152.048 45.88C151.988 45.88 151.868 45.88 151.728 45.9ZM188.548 51.78H184.708C185.908 54.38 187.848 56.14 190.828 57.34C190.288 58.04 190.068 58.5 189.648 59.62C186.668 58.08 184.408 55.84 183.388 53.36C182.408 56.2 180.688 58.1 177.568 59.76C177.208 58.96 176.868 58.48 176.188 57.74C179.348 56.4 180.988 54.62 181.648 51.78H179.728C178.808 51.78 178.088 51.82 177.488 51.9V49.52C178.088 49.6 178.848 49.64 179.708 49.64H181.948C182.048 48.5 182.088 47.34 182.108 46.22H180.448C179.628 46.22 178.828 46.26 178.328 46.32V44.06C178.948 44.12 179.608 44.16 180.448 44.16H182.088V43.08C182.088 42.16 182.048 41.76 181.948 41.2H184.388C184.268 41.78 184.248 42.14 184.248 43.06V44.16H187.308C188.248 44.16 188.708 44.14 189.168 44.08C189.108 44.48 189.088 44.92 189.088 45.68V49.64C189.908 49.62 189.928 49.62 190.768 49.52V51.9C190.108 51.82 189.448 51.78 188.548 51.78ZM184.068 49.64H186.988V46.22H184.228C184.208 47.82 184.168 48.6 184.068 49.64ZM172.928 42.94L174.328 41.34C175.728 42.16 176.508 42.76 177.828 44L176.428 45.8C175.168 44.48 174.528 43.96 172.928 42.94ZM172.188 47.92L173.468 46.28C174.908 47.08 175.628 47.6 177.068 48.8L175.788 50.66C174.428 49.4 173.628 48.8 172.188 47.92ZM175.248 51.82L177.008 53.08C176.248 55.36 175.728 56.62 174.808 58.36C174.668 58.62 174.248 59.36 174.188 59.48L172.288 57.82C173.408 56.46 174.208 54.84 175.248 51.82ZM202.668 56.34V48.92H199.728C198.848 48.92 198.288 48.94 197.708 49.02V46.9C198.228 46.98 198.808 47 199.728 47H207.388C208.328 47 208.908 46.98 209.448 46.9V49.02C208.888 48.94 208.308 48.92 207.388 48.92H204.768V51.48H208.548C209.468 51.48 209.968 51.46 210.508 51.36V53.5C209.908 53.42 209.428 53.4 208.548 53.4H204.768V56.84C205.748 56.98 206.848 57.04 208.028 57.04C209.188 57.04 210.548 56.98 212.588 56.8C212.268 57.62 212.128 58.16 212.028 59.08C210.388 59.12 209.348 59.14 207.768 59.14C203.088 59.14 200.468 58.12 198.828 55.7C198.188 57.08 197.428 58.18 196.088 59.62C195.568 58.88 195.288 58.62 194.368 57.98C196.008 56.5 197.168 54.58 197.808 52.32C198.028 51.5 198.188 50.6 198.208 50.16L200.428 50.58C200.328 50.92 200.328 50.94 200.148 51.76C200.048 52.16 199.928 52.62 199.628 53.56C200.428 54.98 201.248 55.72 202.668 56.34ZM202.328 43.24V42.5C202.328 42 202.288 41.66 202.208 41.22H204.668C204.588 41.64 204.568 41.96 204.568 42.48V43.24H209.968C210.768 43.24 211.448 43.22 212.188 43.16C212.128 43.62 212.108 44.06 212.108 44.64V46.2C212.108 46.78 212.128 47.24 212.188 47.76H210.028V45.26H197.108V47.76H194.888C194.968 47.28 194.988 46.88 194.988 46.18V44.64C194.988 44.12 194.948 43.62 194.908 43.16C195.628 43.22 196.308 43.24 197.108 43.24H202.328ZM228.428 47.36L228.408 49.08C228.408 49.16 228.428 49.32 228.428 49.56C228.868 50.48 229.068 51.3 229.068 52.38C229.068 54.56 228.028 56.44 226.088 57.78C225.248 58.36 224.328 58.78 222.468 59.42C221.908 58.18 221.708 57.88 221.048 57.16C222.688 56.84 223.508 56.56 224.448 56C225.808 55.22 226.608 54.2 226.768 53.08C226.188 54 225.148 54.5 223.828 54.5C222.908 54.5 222.188 54.28 221.508 53.78C220.568 53.1 220.128 52.22 220.128 51.08C220.128 48.96 221.788 47.44 224.108 47.44C224.968 47.44 225.728 47.66 226.188 48.04C226.168 47.94 226.168 47.94 226.168 47.8C226.148 47.76 226.148 46.64 226.148 46.1C223.288 46.18 221.408 46.24 220.528 46.3C217.508 46.52 217.508 46.52 216.968 46.6L216.888 44.22C217.328 44.26 217.508 44.26 217.868 44.26C218.368 44.26 218.688 44.26 221.268 44.16C222.568 44.12 222.768 44.12 224.408 44.08C225.068 44.06 225.068 44.06 226.108 44.02C226.088 42.12 226.088 42.12 225.988 41.6L228.508 41.58C228.428 42.2 228.428 42.24 228.408 43.96C231.888 43.94 233.448 43.9 234.188 43.82L234.208 46.12C233.468 46.06 232.508 46.02 230.848 46.02C230.368 46.02 230.008 46.02 228.428 46.06V47.36ZM226.128 50.66C226.128 49.82 225.428 49.28 224.328 49.28C223.308 49.28 222.468 50 222.468 50.88C222.468 51.8 223.168 52.46 224.168 52.46C225.308 52.46 226.128 51.7 226.128 50.66ZM245.408 49.7L245.448 49.74C247.268 49.02 248.148 48.82 249.648 48.82C253.068 48.82 255.268 50.58 255.268 53.32C255.268 55.22 254.328 56.74 252.548 57.74C251.248 58.48 249.548 58.88 247.708 58.88C246.028 58.88 244.628 58.56 243.828 57.96C243.068 57.4 242.628 56.56 242.628 55.66C242.628 54 244.068 52.8 246.068 52.8C247.468 52.8 248.688 53.38 249.528 54.44C249.928 54.94 250.148 55.38 250.448 56.24C252.108 55.62 252.828 54.76 252.828 53.34C252.828 51.78 251.288 50.76 248.868 50.76C245.948 50.76 243.028 51.94 240.628 54.12L239.268 51.96C239.968 51.62 240.768 51.08 242.088 50.08C243.948 48.66 246.548 46.42 248.068 44.88C248.108 44.84 248.308 44.64 248.428 44.52L248.408 44.5C247.648 44.6 246.368 44.68 242.748 44.84C242.308 44.86 242.168 44.88 241.788 44.94L241.688 42.54C242.368 42.62 242.948 42.66 244.048 42.66C245.748 42.66 248.188 42.56 250.128 42.42C250.828 42.36 251.048 42.32 251.368 42.16L252.608 43.92C252.268 44.1 252.128 44.22 251.568 44.74C250.568 45.66 249.108 46.96 248.428 47.54C248.068 47.84 246.628 48.92 246.228 49.18C245.728 49.52 245.728 49.52 245.408 49.7ZM248.288 56.82C247.928 55.44 247.168 54.72 246.048 54.72C245.328 54.72 244.868 55.08 244.868 55.64C244.868 56.44 245.768 56.9 247.248 56.9C247.628 56.9 247.728 56.9 248.288 56.82ZM275.848 48.16H270.668C271.168 49.96 272.228 51.9 273.548 53.4C275.028 55.08 276.688 56.22 279.068 57.2C278.388 58 278.108 58.42 277.608 59.5C275.468 58.4 274.088 57.38 272.668 55.84C271.368 54.46 270.388 52.86 269.648 51C269.048 53.06 267.988 54.78 266.388 56.36C265.028 57.7 263.588 58.64 261.608 59.5C261.268 58.74 260.848 58.12 260.208 57.4C261.648 56.82 262.448 56.4 263.448 55.7C266.128 53.8 267.468 51.56 267.948 48.16H263.228C261.968 48.16 261.388 48.2 260.728 48.3V45.76C261.348 45.86 262.068 45.9 263.248 45.9H268.148C268.188 44.9 268.208 44.58 268.208 43.54C268.208 42.7 268.148 42.1 268.068 41.54H270.708C270.608 42.24 270.588 42.54 270.568 43.88C270.568 44.7 270.548 45.16 270.528 45.9H275.828C276.968 45.9 277.668 45.86 278.348 45.76V48.3C277.548 48.2 276.948 48.16 275.848 48.16ZM286.468 49.28V47.74C285.228 48.54 284.668 48.84 283.268 49.46C282.928 48.66 282.608 48.1 282.108 47.42C284.268 46.56 285.608 45.82 287.128 44.64C288.448 43.62 289.468 42.56 290.288 41.28H292.668C293.728 42.76 294.528 43.54 296.048 44.6C297.748 45.8 299.368 46.64 301.188 47.3C300.628 48.16 300.368 48.72 300.088 49.54C298.828 49 298.068 48.6 296.668 47.72V49.28C296.148 49.22 295.628 49.2 294.868 49.2H288.188C287.608 49.2 287.008 49.22 286.468 49.28ZM288.208 47.12H294.848C295.168 47.12 295.348 47.12 295.728 47.1C293.888 45.84 292.748 44.8 291.548 43.22C290.488 44.64 289.248 45.8 287.388 47.1C287.728 47.12 287.848 47.12 288.208 47.12ZM288.408 52.9H285.368C284.348 52.9 283.668 52.94 283.008 53.02V50.7C283.668 50.78 284.428 50.82 285.368 50.82H297.828C298.808 50.82 299.508 50.78 300.168 50.7V53.02C299.508 52.94 298.828 52.9 297.828 52.9H290.948C290.328 54.36 289.708 55.54 288.868 56.78C292.408 56.58 292.408 56.58 295.208 56.28C294.568 55.58 294.228 55.22 293.108 54.06L295.088 53.18C297.228 55.34 298.088 56.34 299.708 58.52L297.788 59.78C297.128 58.8 296.928 58.52 296.588 58.04C294.928 58.26 293.728 58.4 292.988 58.48C291.008 58.66 287.048 59.02 286.248 59.08C285.128 59.16 284.128 59.26 283.668 59.36L283.348 56.92C283.888 56.96 284.228 56.98 284.508 56.98C284.648 56.98 285.248 56.96 286.268 56.9C287.248 55.42 287.868 54.26 288.408 52.9ZM308.808 58.48L306.388 58.62C306.368 58.26 306.348 58.14 306.288 57.68C305.908 55.26 305.768 53.72 305.768 51.7C305.768 49.12 306.008 46.84 306.588 43.88C306.808 42.76 306.848 42.56 306.888 42.02L309.528 42.3C309.048 43.48 308.588 45.72 308.268 48.28C308.068 49.78 307.988 50.96 307.968 52.7C307.968 53.14 307.948 53.3 307.928 53.8C308.148 53.1 308.188 52.96 308.968 51.16L310.568 51.88C309.468 54.2 308.788 56.52 308.788 57.94C308.788 58.06 308.788 58.22 308.808 58.48ZM311.568 46.5L311.608 44.1C312.508 44.34 313.568 44.42 315.308 44.42C317.528 44.42 319.428 44.24 320.748 43.88L320.868 46.3C320.708 46.32 320.408 46.36 319.448 46.48C318.168 46.64 316.648 46.72 315.168 46.72C313.708 46.72 313.688 46.72 311.568 46.5ZM312.948 49.8L314.908 50.72C313.908 51.88 313.488 52.74 313.488 53.6C313.488 54.74 314.588 55.34 316.668 55.34C318.428 55.34 320.168 55.06 321.428 54.58L321.628 57.12C321.348 57.14 321.268 57.16 320.808 57.24C319.208 57.5 317.988 57.62 316.668 57.62C314.188 57.62 312.588 57.06 311.708 55.88C311.328 55.38 311.108 54.64 311.108 53.92C311.108 52.62 311.708 51.28 312.948 49.8ZM333.788 51.88L333.808 55.82C333.808 56.64 333.768 57.12 333.648 57.52C333.468 58.22 332.748 58.68 331.808 58.68C330.548 58.68 329.028 58.12 328.028 57.26C327.308 56.64 326.928 55.86 326.928 55C326.928 54.06 327.548 53 328.648 52.04C329.368 51.42 330.248 50.9 331.568 50.34L331.548 47.26C331.388 47.26 331.388 47.26 330.728 47.3C330.428 47.32 330.148 47.32 329.648 47.32C329.348 47.32 328.788 47.3 328.548 47.3C328.288 47.28 328.108 47.28 328.048 47.28C327.968 47.28 327.808 47.28 327.628 47.3L327.608 45.06C328.168 45.18 328.968 45.24 330.028 45.24C330.228 45.24 330.448 45.24 330.728 45.22C331.208 45.2 331.308 45.2 331.528 45.2V43.88C331.528 42.74 331.508 42.22 331.408 41.58H333.908C333.808 42.22 333.788 42.64 333.788 43.76V45.04C335.288 44.86 336.628 44.6 337.648 44.28L337.728 46.52C337.368 46.58 336.988 46.64 335.608 46.88C334.948 47 334.548 47.06 333.788 47.14V49.74C335.148 49.34 336.408 49.18 337.868 49.18C341.208 49.18 343.588 51.22 343.588 54.06C343.588 56.66 341.648 58.62 339.048 58.62C337.428 58.62 336.288 57.84 335.768 56.4C335.508 55.72 335.428 55.06 335.428 53.84C336.448 53.56 336.788 53.42 337.648 52.96C337.608 53.34 337.608 53.52 337.608 53.84C337.608 54.68 337.688 55.22 337.888 55.6C338.108 56.02 338.588 56.28 339.148 56.28C340.328 56.28 341.168 55.34 341.168 54.06C341.168 52.34 339.768 51.22 337.628 51.22C336.428 51.22 335.208 51.44 333.788 51.88ZM331.548 55.52V52.6C330.048 53.4 329.168 54.28 329.168 55C329.168 55.34 329.368 55.64 329.828 55.92C330.228 56.2 330.728 56.36 331.108 56.36C331.448 56.36 331.548 56.18 331.548 55.52ZM344.468 47.08L342.628 48.56C341.628 46.98 340.168 45.4 338.628 44.24L340.508 42.98C342.248 44.32 343.408 45.52 344.468 47.08ZM349.668 43.3H352.408C352.308 44.04 352.248 45.02 352.248 46.34C352.248 48.08 352.408 50.48 352.628 51.7C352.968 53.78 353.608 55.06 354.248 55.06C354.548 55.06 354.828 54.76 355.068 54.2C355.548 53.12 355.908 51.92 356.128 50.58C356.828 51.38 357.148 51.68 358.128 52.4C357.088 56.3 355.928 57.92 354.228 57.92C352.888 57.92 351.808 56.94 351.008 55.02C350.188 53.02 349.828 50.12 349.748 44.58C349.728 43.88 349.728 43.74 349.668 43.3ZM359.768 45.2L361.868 44.2C364.388 47.22 365.788 50.56 366.368 54.96L363.888 55.9C363.768 54.02 363.308 51.94 362.608 50.12C361.928 48.3 360.968 46.68 359.768 45.2ZM370.643 46.7L370.503 44.1C370.943 44.12 371.163 44.12 371.263 44.12C371.623 44.12 371.623 44.12 374.563 43.92C375.683 43.86 379.003 43.68 384.543 43.42C386.183 43.34 386.483 43.32 386.843 43.22L386.983 45.78C386.763 45.76 386.763 45.76 386.563 45.76C385.363 45.76 383.883 46.16 382.603 46.84C380.063 48.16 378.563 50.16 378.563 52.18C378.563 53.74 379.543 54.94 381.223 55.44C382.203 55.74 383.483 55.96 384.203 55.96C384.223 55.96 384.403 55.96 384.603 55.94L384.243 58.66C384.003 58.6 383.903 58.58 383.563 58.54C381.363 58.26 380.103 57.9 378.883 57.22C377.043 56.18 376.023 54.48 376.023 52.4C376.023 50.7 376.703 49.02 377.923 47.68C378.683 46.86 379.403 46.34 380.703 45.68C379.083 45.92 378.303 45.98 373.963 46.3C372.623 46.4 371.423 46.54 370.643 46.7Z" fill="#101541"/>
<path d="M107.369 99.632H103.729C102.385 99.632 101.433 99.688 100.677 99.772V97.784C99.333 98.568 98.829 98.848 97.625 99.38C96.785 97.812 96.785 97.812 95.777 96.412C98.437 95.376 100.705 94.144 102.553 92.716C103.477 91.988 104.765 90.784 105.633 89.776C106.221 89.132 106.529 88.74 107.145 87.76H110.701C112.269 89.888 113.613 91.232 115.685 92.716C118.009 94.368 119.857 95.32 122.545 96.272C121.537 97.728 121.201 98.344 120.753 99.492C119.493 98.904 118.681 98.456 117.421 97.728V99.772C116.609 99.688 115.741 99.632 114.453 99.632H110.505V102.796H115.041C116.497 102.796 117.393 102.74 118.121 102.656V105.792C117.365 105.708 116.413 105.652 115.041 105.652H110.505V109.432H117.785C119.269 109.432 120.473 109.376 121.341 109.264V112.54C120.417 112.4 119.241 112.344 117.813 112.344H100.341C98.913 112.344 97.765 112.4 96.841 112.54V109.264C97.653 109.376 98.857 109.432 100.425 109.432H107.369V105.652H103.253C101.853 105.652 100.901 105.708 100.145 105.792V102.656C101.013 102.768 101.853 102.796 103.253 102.796H107.369V99.632ZM103.505 96.804H114.593C115.181 96.804 115.377 96.804 115.909 96.776C112.829 94.732 111.065 93.108 109.021 90.42C107.397 92.828 105.381 94.732 102.273 96.776C102.833 96.804 103.085 96.804 103.505 96.804ZM130.189 109.628V91.68C130.189 90.588 130.133 89.608 130.049 88.684C130.945 88.796 131.869 88.824 133.157 88.824H146.709C148.025 88.824 148.893 88.796 149.733 88.684C149.621 89.748 149.593 90.56 149.593 91.54V109.628C149.593 111.084 149.649 112.008 149.761 113.016H146.373V111.336H133.353V113.016H130.021C130.133 112.064 130.189 110.944 130.189 109.628ZM133.353 91.792V98.288H146.373V91.792H133.353ZM133.353 101.228V108.396H146.373V101.228H133.353ZM167.205 95.124H161.717C160.485 95.124 159.533 95.18 158.385 95.292V91.876C159.477 92.016 160.401 92.072 161.717 92.072H168.913V90.084C168.913 88.992 168.857 88.292 168.745 87.48H172.245C172.105 88.264 172.049 89.02 172.049 90.056V92.072H179.637C181.037 92.072 182.073 92.016 183.025 91.876V95.292C181.793 95.18 180.953 95.124 179.637 95.124H173.645C174.961 97.504 176.277 99.352 177.845 101.004C179.749 102.992 181.737 104.532 183.949 105.708C183.081 106.744 182.605 107.5 182.045 108.76C180.253 107.528 179.049 106.548 177.341 104.868V108.06C176.473 107.948 175.689 107.892 174.541 107.892H172.049V109.796C172.049 111.112 172.105 112.288 172.245 113.268H168.717C168.857 112.232 168.913 111.112 168.913 109.796V107.892H166.701C165.553 107.892 164.741 107.948 163.901 108.06V104.896C162.305 106.576 161.129 107.584 159.365 108.816C158.805 107.556 158.385 106.912 157.461 105.876C161.661 103.272 165.049 99.52 167.205 95.124ZM172.049 104.868H174.765C176.053 104.868 176.557 104.84 177.229 104.756C175.045 102.572 173.813 100.864 171.797 97.336C171.965 98.484 172.049 99.604 172.049 100.444V104.868ZM168.913 104.868V100.472C168.913 99.604 168.997 98.484 169.137 97.336C167.653 100.36 166.309 102.32 164.041 104.756C164.685 104.84 165.245 104.868 166.533 104.868H168.913ZM200.049 111.336H195.821C195.989 110.244 196.045 109.152 196.045 107.696V92.268H194.701C193.665 92.268 192.853 92.324 191.817 92.436V88.88C192.685 89.02 193.301 89.048 194.617 89.048H197.193C198.621 89.048 199.041 89.02 200.049 88.908C199.881 90.56 199.825 91.848 199.825 93.528V107.696C199.825 109.18 199.881 110.188 200.049 111.336ZM226.003 92.156V89.776C226.003 88.852 225.947 88.264 225.835 87.592H229.223C229.111 88.18 229.055 88.74 229.055 89.776V92.156H233.311C234.711 92.156 235.663 92.1 236.503 91.988V95.124C235.607 95.04 234.599 94.984 233.283 94.984H222.391C220.851 94.984 219.787 95.04 219.087 95.124V92.016C219.899 92.128 220.683 92.156 222.307 92.156H226.003ZM221.691 109.236H227.795C229.447 104.812 230.791 99.604 231.183 96.048L234.599 96.832C234.207 98.26 234.207 98.26 233.563 100.696C232.947 103.188 232.023 106.044 230.875 109.236H234.011C235.467 109.236 236.391 109.18 237.231 109.068V112.26C236.279 112.12 235.299 112.064 233.899 112.064H221.775C220.403 112.064 219.311 112.12 218.443 112.26V109.068C219.283 109.18 220.207 109.236 221.691 109.236ZM214.075 109.992V102.04C214.075 101.116 214.103 100.08 214.159 98.904C213.179 100.416 212.815 100.892 212.003 101.844C211.751 100.752 211.303 99.576 210.743 98.484C212.703 96.384 214.271 93.808 215.391 90.812C215.923 89.44 216.315 88.124 216.455 87.116L219.675 87.928C218.807 90.504 218.051 92.408 217.071 94.536V110.02C217.071 111.252 217.127 112.204 217.267 113.268H213.879C214.019 112.176 214.075 111.392 214.075 109.992ZM226.255 107.276L223.203 108.116C222.391 103.776 221.579 100.78 220.235 97.336L223.147 96.3C224.603 100.192 225.275 102.656 226.255 107.276ZM244.119 94.06L244.175 90.868C245.323 91.12 247.115 91.232 250.671 91.232C251.427 89.552 251.679 88.712 251.791 87.76L255.459 88.152C255.291 88.432 255.291 88.432 254.339 90.672C254.199 90.98 254.143 91.064 254.087 91.176C254.311 91.148 254.311 91.148 255.851 91.064C259.099 90.868 261.647 90.56 263.187 90.112L263.383 93.304C262.599 93.36 262.599 93.36 261.171 93.528C259.127 93.78 255.571 94.004 252.743 94.088C251.931 95.684 251.147 96.804 250.167 97.812L250.195 97.868C250.391 97.728 250.391 97.728 250.755 97.448C251.791 96.664 253.275 96.188 254.703 96.188C256.887 96.188 258.259 97.224 258.707 99.156C260.863 98.372 262.291 97.868 262.991 97.644C264.503 97.112 264.615 97.084 265.063 96.804L266.379 100.024C265.595 100.136 264.755 100.36 263.271 100.78C262.879 100.892 261.479 101.368 259.071 102.208V102.516C259.099 103.244 259.099 103.244 259.099 103.636C259.099 103.916 259.099 104.392 259.099 104.756C259.071 105.232 259.071 105.484 259.071 105.68C259.071 106.296 259.099 106.688 259.155 107.164L255.907 107.248C256.019 106.744 256.075 105.316 256.075 104C256.075 103.608 256.075 103.608 256.075 103.328C254.703 103.972 253.975 104.364 253.387 104.784C252.407 105.512 251.931 106.268 251.931 107.08C251.931 108.536 253.275 109.124 256.663 109.124C260.023 109.124 262.907 108.704 264.895 107.948L265.175 111.56C264.699 111.56 264.559 111.588 263.887 111.672C261.871 111.98 259.183 112.176 256.719 112.176C253.751 112.176 251.903 111.84 250.475 111C249.187 110.272 248.431 108.928 248.431 107.388C248.431 106.24 248.767 105.344 249.663 104.28C250.923 102.712 252.519 101.648 255.683 100.332C255.543 99.296 254.983 98.82 253.975 98.82C252.351 98.82 250.391 99.8 248.235 101.704C247.059 102.684 246.415 103.384 245.799 104.252L243.251 101.732C243.979 101.172 244.791 100.388 245.771 99.24C246.863 97.952 248.571 95.516 249.131 94.452C249.243 94.228 249.243 94.228 249.355 94.088C249.243 94.088 248.879 94.116 248.879 94.116C248.431 94.116 245.967 94.06 245.351 94.06C244.819 94.032 244.819 94.032 244.567 94.032C244.483 94.032 244.315 94.032 244.119 94.06ZM291.999 98.456V99.38H295.359C296.367 99.38 296.787 99.352 297.207 99.296V101.256C296.759 101.2 296.311 101.172 295.359 101.172H291.999V102.124H296.003C296.843 102.124 297.655 102.096 298.215 102.012V104.224C297.571 104.112 296.927 104.084 295.975 104.084H284.467C283.627 104.084 283.123 104.112 282.507 104.168C282.591 103.44 282.591 103.104 282.591 102.152V98.68C282.591 98.484 282.591 98.4 282.591 98.204C282.199 98.652 282.059 98.764 281.555 99.268C281.051 98.652 280.631 98.232 280.071 97.756C280.071 97.84 280.071 97.84 280.127 98.092C280.379 99.744 280.491 101.844 280.491 104.308C280.491 108.228 280.155 110.552 279.427 111.868C278.895 112.764 278.139 113.128 276.879 113.128C275.983 113.128 275.311 113.072 273.855 112.848C273.799 111.7 273.687 111 273.351 109.936C274.667 110.272 275.395 110.412 276.011 110.412C276.879 110.412 277.271 109.88 277.439 108.536C277.607 107.108 277.663 105.96 277.663 103.944C277.663 103.86 277.635 103.076 277.635 102.124C276.599 103.832 275.591 105.008 273.995 106.408C273.491 105.372 273.071 104.756 272.343 104C273.771 102.88 274.527 102.152 275.703 100.724C276.431 99.8 276.991 99.016 277.327 98.372C277.215 97.308 276.963 96.132 276.711 95.236C276.011 95.908 275.339 96.44 274.247 97.196C273.743 96.188 273.295 95.544 272.539 94.788C273.939 93.892 274.723 93.304 275.591 92.492C274.891 91.204 274.135 90.14 273.435 89.552L275.843 87.872C276.095 88.208 276.095 88.208 276.711 89.076C276.963 89.384 277.159 89.72 277.607 90.476C278.363 89.58 279.147 88.32 279.539 87.312L281.891 89.076L281.863 89.132C282.535 89.188 283.179 89.216 283.879 89.216H284.831V89.02C284.831 88.32 284.803 88.012 284.719 87.564H287.715C287.631 87.984 287.631 88.236 287.631 89.02V89.216H291.551V89.02C291.551 88.236 291.523 87.984 291.439 87.564H294.463C294.379 87.984 294.351 88.292 294.351 89.02V89.216H295.947C297.011 89.216 297.823 89.16 298.663 89.048V91.624C297.907 91.54 296.927 91.484 295.919 91.484H294.351C294.351 92.156 294.379 92.436 294.463 92.828H292.643C292.475 93.136 292.279 93.472 292.027 93.864H295.723C296.787 93.864 297.487 93.836 298.019 93.752V95.88C297.403 95.796 296.871 95.768 295.751 95.768H291.999V96.664H295.303C296.311 96.664 296.703 96.636 297.095 96.58V98.54C296.619 98.484 296.227 98.456 295.303 98.456H291.999ZM285.251 98.456V99.38H289.451V98.456H285.251ZM285.251 96.664H289.451V95.768H285.251V96.664ZM281.275 91.624V89.944C280.183 91.54 279.735 92.072 278.839 93.052C279.343 94.368 279.735 95.796 279.987 97.224C280.771 96.58 281.583 95.684 282.255 94.76C282.983 93.724 283.599 92.548 283.767 91.904L284.803 92.212C284.831 92.156 284.831 91.932 284.831 91.484H283.935C283.011 91.484 282.115 91.54 281.275 91.624ZM285.615 93.864H289.255C289.591 93.36 289.871 92.772 290.179 91.988L291.523 92.324C291.551 92.016 291.551 91.904 291.551 91.484H287.631C287.631 92.212 287.631 92.464 287.715 92.8H286.203C286.119 92.968 286.119 92.968 285.615 93.864ZM289.451 101.172H285.251V102.124H289.451V101.172ZM295.471 104.952L297.011 106.492C295.051 108.228 294.071 108.956 292.447 109.852C294.603 110.328 296.199 110.524 299.027 110.636C298.523 111.448 298.383 111.784 298.019 112.876L297.907 113.352C294.211 112.792 291.467 112.12 289.339 111.308C286.875 112.288 284.439 112.904 281.219 113.352C280.911 112.316 280.743 111.98 280.043 110.916C282.647 110.748 283.851 110.552 286.287 109.908C285.223 109.348 284.775 109.068 283.683 108.34L285.867 107.248H284.187C283.375 107.248 282.395 107.304 281.583 107.388V104.924C282.395 105.036 283.123 105.064 284.243 105.064H293.343C294.323 105.064 294.967 105.036 295.471 104.952ZM292.363 107.248H286.399C287.575 108.06 288.359 108.508 289.283 108.872C290.739 108.284 291.383 107.948 292.363 107.248ZM315.323 105.484H313.391C312.243 105.484 311.543 105.512 310.759 105.596V102.74C311.515 102.852 312.215 102.88 313.419 102.88H322.743V101.48H313.727C312.607 101.48 311.823 101.508 311.095 101.592V98.876C311.795 98.96 312.299 98.988 313.755 98.988H326.271C327.587 98.988 328.287 98.96 328.987 98.848V101.592C328.231 101.508 327.475 101.48 326.327 101.48H325.711V102.88H326.439C327.643 102.88 328.455 102.852 329.183 102.74V105.624C328.455 105.512 327.699 105.484 326.523 105.484H325.711V110.384C325.711 112.428 324.899 112.988 321.931 112.988C321.371 112.988 320.335 112.96 319.047 112.904C318.907 111.756 318.767 111.168 318.375 110.132L316.919 111.42C315.771 109.46 314.959 108.48 313.307 106.94L315.323 105.484ZM322.743 105.484H315.967C317.227 106.632 317.787 107.276 319.355 109.264L318.655 109.88C319.915 110.048 321.063 110.16 321.707 110.16C322.547 110.16 322.743 110.048 322.743 109.488V105.484ZM309.387 87.2L311.851 88.992C310.395 90.896 310.199 91.12 309.471 91.876C308.183 93.22 306.811 94.312 305.159 95.32C304.683 94.228 304.291 93.612 303.535 92.772C306.335 91.176 308.295 89.328 309.387 87.2ZM324.843 97.756H315.687C314.595 97.756 313.615 97.784 313.083 97.84C313.139 97 313.167 96.356 313.167 95.096V90.896C313.167 89.72 313.139 89.16 313.083 88.32C313.839 88.404 314.567 88.432 315.911 88.432H324.563C325.935 88.432 326.747 88.404 327.419 88.32C327.335 89.16 327.307 89.888 327.307 91.064V95.096C327.307 96.328 327.335 97.056 327.419 97.84C326.775 97.784 325.795 97.756 324.843 97.756ZM316.051 90.784V92.016H324.339V90.784H316.051ZM316.051 94.2V95.516H324.339V94.2H316.051ZM306.699 110.272V104.588C306.699 103.468 306.699 102.768 306.755 101.592C305.999 102.488 305.551 102.908 304.571 103.692C304.179 102.46 303.871 101.788 303.255 100.724C305.271 99.352 306.755 97.868 308.267 95.712C308.743 95.04 309.163 94.256 309.527 93.416L312.047 95.18C311.795 95.544 311.711 95.656 311.487 96.02C310.815 97.112 310.703 97.252 309.667 98.596V110.104C309.667 111.644 309.695 112.372 309.807 113.268H306.531C306.643 112.484 306.699 111.644 306.699 110.272Z" fill="#101541"/>
<line x1="372" y1="139.5" x2="414" y2="139.5" stroke="#101541"/>
<line x1="372" y1="0.5" x2="414" y2="0.500003" stroke="#101541"/>
<line x1="413.5" y1="140" x2="413.5" y2="1" stroke="#101541"/>
</svg>
