<?xml version="1.0" encoding="UTF-8"?>
<svg id="_レイヤー_2" data-name="レイヤー_2" xmlns="http://www.w3.org/2000/svg" viewBox="0 0 247.59 90.65">
  <defs>
    <style>
      .cls-1 {
        font-family: KozGoPr6N-Regular-83pv-RKSJ-H, 'Kozuka Gothic Pr6N';
        font-size: 12px;
      }
    </style>
  </defs>
  <g id="Layer_1">
    <g>
      <path d="M229.58,22.05h.14c1.57,0,2.83,1.27,2.83,2.83v40.89c0,1.57-1.27,2.83-2.83,2.83h-.14c-1.57,0-2.83-1.27-2.83-2.83V24.88c0-1.57,1.27-2.83,2.83-2.83h0ZM184.43,0c-1.61,0-2.92,1.31-2.92,2.92v84.81c0,1.62,1.31,2.92,2.92,2.92h.11c1.62,0,2.93-1.31,2.93-2.92V2.92c0-1.62-1.31-2.92-2.93-2.92h-.11ZM214.56,6.34c-1.61,0-2.92,1.31-2.92,2.92v72.08c0,1.62,1.31,2.92,2.92,2.92h.12c1.61,0,2.92-1.31,2.92-2.92V9.26c0-1.62-1.31-2.92-2.92-2.92h-.12ZM169.39,10c-1.55,0-2.79,1.25-2.79,2.79v65.13c0,1.54,1.25,2.79,2.79,2.79h.17c1.55,0,2.79-1.25,2.79-2.79V12.79c0-1.54-1.25-2.79-2.79-2.79h-.17ZM109.29,12.11c-1.55,0-2.8,1.26-2.8,2.81l.1,60.85c0,1.55,1.26,2.8,2.81,2.8h.11c1.55,0,2.81-1.26,2.8-2.81l-.1-60.85c0-1.55-1.26-2.8-2.81-2.8h-.12ZM199.48,18.42c-1.58,0-2.85,1.28-2.85,2.85v48.12c0,1.57,1.27,2.85,2.85,2.85h.11c1.57,0,2.85-1.27,2.85-2.85V21.27c0-1.57-1.28-2.85-2.85-2.85h-.11ZM94.35,21.62c-1.56,0-2.83,1.27-2.83,2.83v41.85c0,1.57,1.27,2.83,2.83,2.83h.11c1.57,0,2.83-1.27,2.83-2.83V24.46c0-1.57-1.27-2.83-2.83-2.83h-.11ZM154.45,21.57c-1.52,0-2.76,1.24-2.76,2.77v42.03c0,1.53,1.24,2.77,2.76,2.77h.17c1.52,0,2.76-1.24,2.76-2.77V24.33c0-1.52-1.24-2.77-2.76-2.77h-.17ZM124.25,26.19c-1.45,0-2.63,1.18-2.63,2.62v33.03c0,1.45,1.18,2.62,2.63,2.62h.43c1.44,0,2.62-1.18,2.62-2.62V28.81c0-1.45-1.18-2.62-2.62-2.62h-.43ZM139.45,31.94c-1.55,0-2.79,1.25-2.79,2.79v21.18c0,1.54,1.25,2.79,2.79,2.79h.2c1.55,0,2.79-1.25,2.79-2.79v-21.18c0-1.54-1.25-2.79-2.79-2.79h-.2ZM78.99,35.23c-1.36,0-2.47,1.1-2.47,2.47v15.23c0,1.36,1.1,2.47,2.47,2.47h.76c1.36,0,2.47-1.1,2.47-2.47v-15.23c0-1.36-1.1-2.47-2.47-2.47h-.76ZM244.46,35.14c-1.5,0-2.72,1.24-2.71,2.74l.08,14.89c0,1.5,1.23,2.72,2.73,2.71h.32c1.5,0,2.71-1.24,2.71-2.74l-.08-14.89c-.01-1.5-1.23-2.72-2.74-2.71h-.31Z"/>
      <text class="cls-1" transform="translate(0 48.57)"><tspan x="0" y="0">unmute</tspan></text>
    </g>
  </g>
</svg>