<svg width="172" height="91" viewBox="0 0 172 91" fill="none" xmlns="http://www.w3.org/2000/svg">
<path d="M153.58 22.05H153.72C155.29 22.05 156.55 23.32 156.55 24.88V65.77C156.55 67.34 155.28 68.6 153.72 68.6H153.58C152.01 68.6 150.75 67.33 150.75 65.77V24.88C150.75 23.31 152.02 22.05 153.58 22.05ZM108.43 0C106.82 0 105.51 1.31 105.51 2.92V87.73C105.51 89.35 106.82 90.65 108.43 90.65H108.54C110.16 90.65 111.47 89.34 111.47 87.73V2.92C111.47 1.3 110.16 0 108.54 0H108.43ZM138.56 6.34C136.95 6.34 135.64 7.65 135.64 9.26V81.34C135.64 82.96 136.95 84.26 138.56 84.26H138.68C140.29 84.26 141.6 82.95 141.6 81.34V9.26C141.6 7.64 140.29 6.34 138.68 6.34H138.56ZM93.39 10C91.84 10 90.6 11.25 90.6 12.79V77.92C90.6 79.46 91.85 80.71 93.39 80.71H93.56C95.11 80.71 96.35 79.46 96.35 77.92V12.79C96.35 11.25 95.1 10 93.56 10H93.39ZM33.29 12.11C31.74 12.11 30.49 13.37 30.49 14.92L30.59 75.77C30.59 77.32 31.85 78.57 33.4 78.57H33.51C35.06 78.57 36.32 77.31 36.31 75.76L36.21 14.91C36.21 13.36 34.95 12.11 33.4 12.11H33.28H33.29ZM123.48 18.42C121.9 18.42 120.63 19.7 120.63 21.27V69.39C120.63 70.96 121.9 72.24 123.48 72.24H123.59C125.16 72.24 126.44 70.97 126.44 69.39V21.27C126.44 19.7 125.16 18.42 123.59 18.42H123.48ZM18.35 21.62C16.79 21.62 15.52 22.89 15.52 24.45V66.3C15.52 67.87 16.79 69.13 18.35 69.13H18.46C20.03 69.13 21.29 67.86 21.29 66.3V24.46C21.29 22.89 20.02 21.63 18.46 21.63H18.35V21.62ZM78.45 21.57C76.93 21.57 75.69 22.81 75.69 24.34V66.37C75.69 67.9 76.93 69.14 78.45 69.14H78.62C80.14 69.14 81.38 67.9 81.38 66.37V24.33C81.38 22.81 80.14 21.56 78.62 21.56H78.45V21.57ZM48.25 26.19C46.8 26.19 45.62 27.37 45.62 28.81V61.84C45.62 63.29 46.8 64.46 48.25 64.46H48.68C50.12 64.46 51.3 63.28 51.3 61.84V28.81C51.3 27.36 50.12 26.19 48.68 26.19H48.25ZM63.45 31.94C61.9 31.94 60.66 33.19 60.66 34.73V55.91C60.66 57.45 61.91 58.7 63.45 58.7H63.65C65.2 58.7 66.44 57.45 66.44 55.91V34.73C66.44 33.19 65.19 31.94 63.65 31.94H63.45ZM2.99002 35.23C1.63002 35.23 0.52002 36.33 0.52002 37.7V52.93C0.52002 54.29 1.62002 55.4 2.99002 55.4H3.75002C5.11002 55.4 6.22002 54.3 6.22002 52.93V37.7C6.22002 36.34 5.12002 35.23 3.75002 35.23H2.99002ZM168.46 35.14C166.96 35.14 165.74 36.38 165.75 37.88L165.83 52.77C165.83 54.27 167.06 55.49 168.56 55.48H168.88C170.38 55.48 171.59 54.24 171.59 52.74L171.51 37.85C171.5 36.35 170.28 35.13 168.77 35.14H168.46Z" fill="black"/>
</svg>
