<svg width="45" height="60" viewBox="0 0 45 60" fill="none" xmlns="http://www.w3.org/2000/svg">
<path d="M32.6023 17.6226C32.6023 11.9378 27.9934 7.32711 22.3068 7.32711C18.5111 7.32711 15.1954 9.38145 13.4102 12.4383L8.57812 7.32711C11.7086 3.1593 16.6928 0.463463 22.3068 0.463463C31.7838 0.463463 39.466 8.1456 39.466 17.6226V34.7817H32.6023V17.6226Z" fill="#D9D9D9"/>
<path d="M44.6137 52.6727C44.6137 56.4631 41.5405 59.5363 37.7501 59.5363H6.86365C3.0732 59.5363 0 56.4631 0 52.6727V32.0817C0 28.2913 3.0732 25.2181 6.86365 25.2181H37.7501C41.5405 25.2181 44.6137 28.2913 44.6137 32.0817V52.6727Z" fill="#FFAC33"/>
</svg>
