<svg width="50" height="60" viewBox="0 0 50 60" fill="none" xmlns="http://www.w3.org/2000/svg">
<path d="M40.9209 6.76608H44.2124V10.709H40.9209V6.76608Z" fill="#66757F"/>
<path d="M42.8754 6.76608H9.89411C6.25133 6.76608 3.29785 9.71956 3.29785 13.3623V52.9399C3.29785 56.5827 6.25133 59.5362 9.89411 59.5362H42.8754C46.5182 59.5362 49.4717 56.5827 49.4717 52.9399V13.3623C49.4717 9.71956 46.5182 6.76608 42.8754 6.76608Z" fill="#55ACEE"/>
<path d="M39.5776 6.76608H6.59626C2.95348 6.76608 0 9.71956 0 13.3623V52.9399C0 56.5827 2.95348 59.5362 6.59626 59.5362H39.5776C43.2204 59.5362 46.1738 56.5827 46.1738 52.9399V13.3623C46.1738 9.71956 43.2204 6.76608 39.5776 6.76608Z" fill="#CCD6DD"/>
<path d="M41.2257 24.9053C41.2257 25.8172 40.4886 26.5543 39.5767 26.5543H6.59535C5.68507 26.5543 4.94629 25.8172 4.94629 24.9053C4.94629 23.995 5.68507 23.2562 6.59535 23.2562H39.5767C40.4886 23.2562 41.2257 23.995 41.2257 24.9053ZM41.2257 33.1506C41.2257 34.0625 40.4886 34.7997 39.5767 34.7997H6.59535C5.68507 34.7997 4.94629 34.0625 4.94629 33.1506C4.94629 32.2387 5.68507 31.5015 6.59535 31.5015H39.5767C40.4886 31.5015 41.2257 32.2387 41.2257 33.1506ZM41.2257 41.3959C41.2257 42.3079 40.4886 43.045 39.5767 43.045H6.59535C5.68507 43.045 4.94629 42.3079 4.94629 41.3959C4.94629 40.484 5.68507 39.7469 6.59535 39.7469H39.5767C40.4886 39.7469 41.2257 40.484 41.2257 41.3959ZM28.0332 49.6412C28.0332 50.5532 27.2961 51.2903 26.3841 51.2903H6.59535C5.68507 51.2903 4.94629 50.5532 4.94629 49.6412C4.94629 48.7293 5.68507 47.9922 6.59535 47.9922H26.3841C27.2961 47.9922 28.0332 48.7293 28.0332 49.6412Z" fill="#99AAB5"/>
<path d="M7.97389 14.5686C6.81625 14.5686 5.87793 13.4703 5.87793 12.1131C5.87793 10.7576 6.81625 9.65768 7.97389 9.65768C9.12989 9.65768 10.0682 10.7576 10.0682 12.1131C10.0682 13.4687 9.12989 14.5686 7.97389 14.5686Z" fill="#292F33"/>
<path d="M9.14058 11.8505C9.04988 11.0589 8.52383 10.5444 7.93841 10.1734C7.13861 9.66712 6.28934 8.51113 6.28934 7.07809C6.28934 5.25752 7.39587 3.62329 8.76294 3.62329C10.13 3.62329 11.2365 5.1157 11.2365 6.76476H14.5281C14.4934 3.46663 11.9308 0.463684 8.76294 0.463684C5.57365 0.463684 2.99121 3.46333 2.99121 7.06819C2.99121 10.1239 4.71448 12.6272 7.22766 13.5424C8.48095 13.9976 9.24612 12.8053 9.14058 11.8505Z" fill="#66757F"/>
<path d="M17.8694 14.5686C16.7118 14.5686 15.7734 13.4703 15.7734 12.1131C15.7734 10.7576 16.7118 9.65768 17.8694 9.65768C19.0254 9.65768 19.9637 10.7576 19.9637 12.1131C19.9637 13.4687 19.0254 14.5686 17.8694 14.5686Z" fill="#292F33"/>
<path d="M19.0351 11.8505C18.9444 11.0589 18.4184 10.5444 17.8329 10.1734C17.0331 9.66712 16.1839 8.51113 16.1839 7.07809C16.1839 5.25752 17.2904 3.62329 18.6575 3.62329C20.0245 3.62329 21.1311 5.1157 21.1311 6.76476H24.4226C24.3896 3.46663 21.8253 0.463684 18.6575 0.463684C15.4682 0.463684 12.8857 3.46333 12.8857 7.06819C12.8857 10.1239 14.609 12.6272 17.1222 13.5424C18.3755 13.9976 19.1406 12.8053 19.0351 11.8505Z" fill="#66757F"/>
<path d="M27.7639 14.5686C26.6063 14.5686 25.668 13.4703 25.668 12.1131C25.668 10.7576 26.6063 9.65768 27.7639 9.65768C28.9199 9.65768 29.8599 10.7576 29.8599 12.1131C29.8582 13.4687 28.9199 14.5686 27.7639 14.5686Z" fill="#292F33"/>
<path d="M28.9299 11.8505C28.8392 11.0589 28.3132 10.5444 27.7294 10.1734C26.9296 9.66712 26.0804 8.51113 26.0804 7.07809C26.0804 5.25752 27.1869 3.62329 28.554 3.62329C29.921 3.62329 31.0276 5.1157 31.0276 6.76476H34.3191C34.2861 3.46663 31.7218 0.463684 28.554 0.463684C25.3647 0.463684 22.7822 3.46333 22.7822 7.06819C22.7822 10.1239 24.5055 12.6272 27.0187 13.5424C28.2703 13.9976 29.0355 12.8053 28.9299 11.8505Z" fill="#66757F"/>
<path d="M37.6575 14.5686C36.4998 14.5686 35.5615 13.4703 35.5615 12.1131C35.5615 10.7576 36.4998 9.65768 37.6575 9.65768C38.8135 9.65768 39.7534 10.7576 39.7534 12.1131C39.7518 13.4687 38.8135 14.5686 37.6575 14.5686Z" fill="#292F33"/>
<path d="M38.8235 11.8505C38.7328 11.0589 38.2067 10.5444 37.623 10.1734C36.8232 9.66712 35.9739 8.51113 35.9739 7.07809C35.9739 5.25752 37.0804 3.62329 38.4475 3.62329C39.8146 3.62329 40.9211 5.1157 40.9211 6.76476H44.2126C44.1797 3.46663 41.6154 0.463684 38.4475 0.463684C35.2582 0.463684 32.6758 3.46333 32.6758 7.06819C32.6758 10.1239 34.3991 12.6272 36.9122 13.5424C38.1639 13.9976 38.929 12.8053 38.8235 11.8505Z" fill="#66757F"/>
</svg>
