<svg width="61" height="48" viewBox="0 0 61 48" fill="none" xmlns="http://www.w3.org/2000/svg">
<path d="M14.656 46.3662C22.0529 46.3662 28.0493 36.3526 28.0493 24.0002C28.0493 11.6479 22.0529 1.63429 14.656 1.63429C7.25908 1.63429 1.2627 11.6479 1.2627 24.0002C1.2627 36.3526 7.25908 46.3662 14.656 46.3662Z" fill="#F5F8FA"/>
<path d="M14.6563 47.629C6.43815 47.629 0 37.2501 0 24C0 10.7498 6.43815 0.371002 14.6563 0.371002C22.8745 0.371002 29.3127 10.7498 29.3127 24C29.3127 37.2501 22.8745 47.629 14.6563 47.629ZM14.6563 2.89709C7.96727 2.89709 2.52608 12.3632 2.52608 24C2.52608 35.6368 7.96727 45.1029 14.6563 45.1029C21.3454 45.1029 26.7866 35.6368 26.7866 24C26.7866 12.3632 21.3454 2.89709 14.6563 2.89709Z" fill="#E1E8ED"/>
<path d="M10.8939 32.3518C15.5071 32.3518 19.2468 28.6121 19.2468 23.9989C19.2468 19.3857 15.5071 15.646 10.8939 15.646C6.28074 15.646 2.54102 19.3857 2.54102 23.9989C2.54102 28.6121 6.28074 32.3518 10.8939 32.3518Z" fill="#8899A6"/>
<path d="M10.8943 30.0034C14.21 30.0034 16.8979 27.3154 16.8979 23.9997C16.8979 20.684 14.21 17.996 10.8943 17.996C7.57855 17.996 4.89062 20.684 4.89062 23.9997C4.89062 27.3154 7.57855 30.0034 10.8943 30.0034Z" fill="#292F33"/>
<path d="M13.1124 22.0952C14.4387 22.0952 15.5139 21.02 15.5139 19.6937C15.5139 18.3674 14.4387 17.2922 13.1124 17.2922C11.7861 17.2922 10.7109 18.3674 10.7109 19.6937C10.7109 21.02 11.7861 22.0952 13.1124 22.0952Z" fill="#F5F8FA"/>
<path d="M45.6521 46.3662C53.049 46.3662 59.0454 36.3526 59.0454 24.0002C59.0454 11.6479 53.049 1.63429 45.6521 1.63429C38.2552 1.63429 32.2588 11.6479 32.2588 24.0002C32.2588 36.3526 38.2552 46.3662 45.6521 46.3662Z" fill="#F5F8FA"/>
<path d="M45.6534 47.6289C37.4352 47.6289 30.9971 37.2501 30.9971 23.9999C30.9971 10.7498 37.4352 0.370926 45.6534 0.370926C53.8716 0.370926 60.3114 10.7498 60.3114 23.9999C60.3114 37.2501 53.8716 47.6289 45.6534 47.6289ZM45.6534 2.89701C38.9643 2.89701 33.5232 12.3648 33.5232 23.9999C33.5232 35.6367 38.9643 45.1028 45.6534 45.1028C52.3425 45.1028 57.7853 35.6367 57.7853 23.9999C57.7853 12.3631 52.3425 2.89701 45.6534 2.89701Z" fill="#E1E8ED"/>
<path d="M41.891 32.3518C46.5042 32.3518 50.2439 28.6121 50.2439 23.9989C50.2439 19.3857 46.5042 15.646 41.891 15.646C37.2778 15.646 33.5381 19.3857 33.5381 23.9989C33.5381 28.6121 37.2778 32.3518 41.891 32.3518Z" fill="#8899A6"/>
<path d="M41.8914 30.0034C45.2071 30.0034 47.895 27.3154 47.895 23.9997C47.895 20.684 45.2071 17.996 41.8914 17.996C38.5756 17.996 35.8877 20.684 35.8877 23.9997C35.8877 27.3154 38.5756 30.0034 41.8914 30.0034Z" fill="#292F33"/>
<path d="M44.1085 22.0952C45.4348 22.0952 46.51 21.02 46.51 19.6937C46.51 18.3674 45.4348 17.2922 44.1085 17.2922C42.7822 17.2922 41.707 18.3674 41.707 19.6937C41.707 21.02 42.7822 22.0952 44.1085 22.0952Z" fill="#F5F8FA"/>
</svg>
