<svg width="155" height="153" viewBox="0 0 155 153" fill="none" xmlns="http://www.w3.org/2000/svg">
<path id="Vector" d="M125.17 31.8367C122.092 30.4553 119.073 29.396 116.123 28.6345C113.604 24.458 110.295 20.4216 106.107 16.6193C86.6763 -1.02495 64.3733 -0.283144 46.6873 19.579C44.4385 22.1045 42.5101 24.6724 40.8826 27.2661C36.1688 28.3943 31.3425 30.325 26.4651 33.1733C3.84328 46.3841 -2.35244 68.03 10.8907 91.1534C12.5752 94.0948 14.3993 96.7423 16.3413 99.1079C15.9473 103.985 16.2745 109.217 17.4496 114.784C22.8994 140.59 41.374 153.23 67.2442 147.657C70.5353 146.949 73.5922 146.015 76.4204 144.882C80.8895 146.766 85.9154 148.067 91.5176 148.658C117.509 151.4 135.122 137.565 137.869 110.997C138.219 107.618 138.284 104.395 138.089 101.329C141.247 97.6175 144.029 93.1901 146.317 87.9891C156.932 63.8739 149.342 42.685 125.171 31.8367H125.17Z" fill="white" fill-opacity="0.4" stroke="url(#paint0_linear_1_4751)" stroke-width="8"/>
<defs>
<linearGradient id="paint0_linear_1_4751" x1="39.0387" y1="223.072" x2="183.159" y2="182.91" gradientUnits="userSpaceOnUse">
<stop stop-color="#EC9DBC"/>
<stop offset="0.483" stop-color="#8E81B9"/>
<stop offset="1" stop-color="#7ECAF0"/>
</linearGradient>
</defs>
</svg>
