<?xml version="1.0" encoding="UTF-8"?><svg id="a" xmlns="http://www.w3.org/2000/svg" width="267" height="80" viewBox="0 0 267 80"><path d="m72.909,25.972h.006c2.306.934,4.614,1.865,6.921,2.798v22.457c-2.327.937-4.657,1.868-6.986,2.801h-.005c-3.708-3.69-7.416-7.378-11.122-11.069-2.356,1.82-4.704,3.651-7.06,5.471-.93-.472-1.867-.93-2.796-1.403v-14.056c.934-.443,1.866-.89,2.798-1.336,2.351,1.845,4.704,3.688,7.054,5.534,3.732-3.731,7.459-7.465,11.19-11.196Zm-7.308,14.061c2.413,1.911,4.829,3.816,7.243,5.725,0-3.817,0-7.633,0-11.45-2.415,1.907-4.831,3.813-7.243,5.724Zm-10.937-4.199c-.001,2.841-.001,5.682,0,8.523,1.4-1.44,2.798-2.883,4.195-4.325-1.399-1.399-2.795-2.801-4.195-4.198Z"/><path d="m143.438,30.561c.644-.001,1.288-.001,1.933,0,0,5.961,0,11.922,0,17.882-.644,0-1.288,0-1.932,0-.001-5.961,0-11.922,0-17.882Z"/><path d="m193.11,30.562c.644-.006,1.289-.001,1.933-.003,0,5.961.001,11.923,0,17.884-.644,0-1.288,0-1.931,0-.006-.695.008-1.389-.008-2.084-.273.385-.522.793-.87,1.118-.775.78-1.866,1.188-2.954,1.238-1.136.074-2.328-.18-3.241-.885-1.053-.791-1.7-2.025-1.949-3.302-.236-1.222-.228-2.492-.003-3.716.266-1.426.982-2.802,2.14-3.702.95-.753,2.187-1.067,3.386-1.025.973.016,1.972.319,2.692.995.324.282.553.647.8.993.016-2.504.004-5.007.006-7.511Zm-3.8,7.162c-.723.055-1.434.331-1.972.823-.807.725-1.219,1.79-1.359,2.847-.146,1.172-.123,2.403.32,3.513.372.939,1.132,1.761,2.121,2.044,1.085.306,2.347.15,3.233-.583.93-.757,1.42-1.957,1.449-3.14.012-.762.017-1.526-.003-2.287-.049-1.181-.756-2.306-1.801-2.859-.607-.32-1.312-.413-1.989-.357Z"/><path d="m104.948,30.828c.431-.115.924-.007,1.243.314.382.355.478.963.259,1.431-.221.471-.747.775-1.267.718-.615-.03-1.149-.585-1.139-1.204-.04-.565.359-1.114.904-1.259Z"/><path d="m199.323,30.809c.403-.08.848.029,1.146.32.328.294.451.771.359,1.195-.125.589-.723,1.025-1.322.97-.624-.015-1.176-.571-1.169-1.198-.048-.596.399-1.176.986-1.286Z"/><path d="m155.309,31.481c1.171-.289,2.392-.273,3.585-.161.703.075,1.412.209,2.052.523,0,.743,0,1.487,0,2.23-1.001-.693-2.228-.978-3.429-1.025-.75-.036-1.515.028-2.229.27-.64.219-1.23.643-1.554,1.247-.248.48-.267,1.046-.174,1.569.091.523.4.985.792,1.333.435.387.941.687,1.455.956,1.212.644,2.479,1.197,3.608,1.987.73.519,1.394,1.161,1.812,1.962.471.851.503,1.873.333,2.811-.192,1.062-.881,2-1.792,2.564-1.019.647-2.237.874-3.424.955-.938.069-1.878-.037-2.798-.214-.735-.157-1.489-.329-2.135-.727v-2.336c.794.672,1.795,1.045,2.794,1.292,1.013.25,2.078.303,3.106.107.587-.114,1.176-.34,1.607-.769.346-.338.558-.798.625-1.275.089-.597.02-1.246-.327-1.754-.493-.754-1.288-1.23-2.061-1.65-1.148-.607-2.323-1.165-3.423-1.856-.969-.622-1.855-1.5-2.162-2.64-.275-1.128-.155-2.403.526-3.369.73-1.089,1.959-1.746,3.214-2.03Z"/><path d="m88.288,31.528c.735-.002,1.47-.001,2.205,0,1.556,4.462,3.114,8.924,4.669,13.386.18.503.266,1.03.368,1.552.057-.119.067-.253.092-.38.109-.603.332-1.176.536-1.75,1.522-4.27,3.045-8.539,4.566-12.808.711-.001,1.422,0,2.133,0-2.086,5.639-4.172,11.277-6.26,16.916-.726,0-1.453,0-2.179,0-2.045-5.637-4.086-11.277-6.13-16.915Z"/><path d="m164.251,33.415c.645-.204,1.288-.417,1.932-.624.001,1.191,0,2.383,0,3.574,1.014,0,2.026,0,3.04,0,0,.549,0,1.099,0,1.648-1.014.002-2.027,0-3.04.001v5.988c.012.737-.064,1.506.215,2.207.137.363.447.651.821.76.666.198,1.437.13,2.006-.293-.005.552.003,1.104-.005,1.656-.656.332-1.409.399-2.132.357-.638-.038-1.291-.215-1.79-.631-.447-.364-.728-.894-.875-1.445-.152-.553-.177-1.13-.173-1.7v-6.899c-.692,0-1.383,0-2.075,0,0-.55,0-1.099,0-1.649.691-.001,1.383.001,2.075-.001-.001-.983,0-1.967,0-2.949Z"/><path d="m110.375,36.827c1.093-.645,2.406-.821,3.655-.718.726.058,1.446.223,2.114.514-.002.652,0,1.304,0,1.956-1.02-.669-2.269-.946-3.477-.851-.628.063-1.293.292-1.684.815-.321.415-.349.991-.189,1.476.178.498.633.828,1.088,1.057,1.087.51,2.259.844,3.284,1.482.674.417,1.258,1.048,1.44,1.838.179.813.112,1.717-.34,2.433-.476.779-1.286,1.293-2.14,1.569-1.118.355-2.321.4-3.477.233-.677-.096-1.331-.314-1.944-.613-.021-.695-.005-1.391-.009-2.086.975.722,2.168,1.157,3.387,1.164.698.003,1.453-.05,2.047-.458.567-.387.707-1.178.497-1.799-.2-.523-.679-.872-1.158-1.122-.79-.387-1.636-.644-2.426-1.03-.743-.344-1.493-.79-1.923-1.512-.369-.609-.451-1.353-.372-2.05.117-.978.79-1.818,1.629-2.298Z"/><path d="m132.163,37.213c1.276-.824,2.818-1.172,4.327-1.127.981.023,2.014.257,2.765.926.719.628,1.073,1.57,1.195,2.496.105.8.062,1.608.072,2.413,0,2.174,0,4.348,0,6.521-.644,0-1.288.001-1.932,0-.005-.642.01-1.284-.008-1.926-.348.538-.734,1.066-1.262,1.443-1.008.76-2.358.895-3.568.665-.902-.163-1.753-.677-2.246-1.459-.542-.842-.607-1.904-.43-2.867.145-.789.576-1.526,1.22-2.011.813-.622,1.834-.883,2.832-1.014,1.154-.161,2.308-.32,3.462-.487-.01-.767-.103-1.584-.561-2.225-.349-.499-.944-.775-1.539-.831-1.566-.142-3.142.444-4.323,1.462-.001-.66,0-1.319,0-1.979Zm3.867,5.474c-.741.092-1.5.217-2.163.579-.289.154-.542.386-.68.686-.214.462-.255.991-.193,1.492.098.71.66,1.293,1.329,1.509.628.202,1.316.182,1.947.004,1.067-.313,1.894-1.245,2.175-2.308.209-.754.125-1.544.143-2.316-.851.122-1.705.233-2.557.354Z"/><path d="m209.027,36.089c1.073-.045,2.18.092,3.154.57.915.445,1.667,1.196,2.152,2.087.488.89.712,1.902.779,2.909.07,1.096-.012,2.216-.37,3.259-.469,1.392-1.491,2.606-2.827,3.235-1.023.485-2.178.628-3.299.559-.967-.059-1.933-.32-2.754-.844-.997-.629-1.763-1.603-2.172-2.706-.364-.965-.468-2.011-.426-3.037.039-.991.225-1.99.655-2.89.411-.872,1.063-1.628,1.864-2.164.953-.643,2.105-.935,3.244-.98Zm-.064,1.629c-.892.042-1.786.38-2.42,1.02-.773.751-1.156,1.816-1.26,2.87-.106,1.105-.046,2.265.422,3.287.437.968,1.29,1.758,2.324,2.04.86.233,1.792.223,2.643-.046.858-.271,1.562-.93,1.946-1.738.509-1.058.585-2.268.509-3.423-.083-1.142-.433-2.342-1.305-3.136-.761-.709-1.847-.937-2.86-.874Z"/><path d="m104.302,36.366c.644,0,1.288,0,1.932,0,0,4.025.001,8.051,0,12.076-.644,0-1.288,0-1.931,0-.001-4.026-.001-8.052,0-12.077Z"/><path d="m118.684,42.507c0-2.049-.001-4.098,0-6.146.64,0,1.28,0,1.92,0,0,2.244,0,4.488,0,6.732-.003.914.068,1.869.504,2.691.305.588.863,1.038,1.508,1.199.69.173,1.442.156,2.106-.11.874-.354,1.526-1.144,1.817-2.029.199-.583.239-1.206.231-1.817,0-2.222,0-4.443,0-6.665.644-.001,1.288-.001,1.932,0,0,4.027,0,8.054,0,12.081-.644,0-1.288,0-1.932,0-.005-.645.008-1.29-.007-1.935-.211.272-.365.586-.599.841-.646.786-1.622,1.264-2.63,1.35-1.112.096-2.315-.058-3.231-.745-.769-.571-1.214-1.476-1.419-2.394-.235-.999-.199-2.033-.2-3.052Z"/><path d="m171.185,36.362c.64-.001,1.28-.001,1.92,0,0,1.983,0,3.967,0,5.95.006.737-.03,1.48.096,2.21.107.639.325,1.286.767,1.773.355.398.855.647,1.377.74.693.122,1.436.068,2.073-.249.828-.413,1.423-1.217,1.671-2.098.159-.539.187-1.105.182-1.664,0-2.22,0-4.441,0-6.662.644-.001,1.288-.001,1.933,0v12.08c-.644,0-1.289,0-1.932,0-.007-.646.01-1.293-.009-1.939-.332.512-.678,1.031-1.173,1.402-.981.782-2.316.935-3.523.753-.958-.133-1.892-.612-2.455-1.415-.734-1.028-.907-2.334-.922-3.566-.006-2.438-.002-4.877-.003-7.315Z"/><path d="m198.596,36.366c.644,0,1.288,0,1.933,0,0,4.025,0,8.05,0,12.076-.644.001-1.289,0-1.933,0,0-4.026,0-8.052,0-12.077Z"/></svg>