<?xml version="1.0" encoding="UTF-8"?><svg id="a" xmlns="http://www.w3.org/2000/svg" width="267" height="80" viewBox="0 0 267 80"><path d="m96.433,23.017l-7.642-.017c-.079,0-.113.057-.075.125,0,0,18.51,33.871,18.532,33.875,0,0,.004-.006.01-.015.005.009.009.015.009.015.022-.004,18.682-33.792,18.682-33.792.038-.069.005-.126-.074-.126l-7.642-.017-10.945,20.329-10.855-20.378"/><path d="m138.907,45.811l-3.46-11.621h1.478l1.651,5.724c.456,1.569.849,2.983,1.132,4.345h.031c.299-1.345.739-2.81,1.211-4.328l1.793-5.742h1.463l-3.79,11.621h-1.51Z"/><path d="m146.722,34.189v6.879c0,2.604,1.054,3.707,2.469,3.707,1.573,0,2.579-1.138,2.579-3.707v-6.879h1.384v6.776c0,3.569-1.714,5.034-4.01,5.034-2.17,0-3.806-1.362-3.806-4.965v-6.845h1.384Z"/><path d="m161.017,40.362h-4.12v4.19h4.592v1.259h-5.96v-11.621h5.724v1.259h-4.356v3.672h4.12v1.241Z"/><path d="m168.769,34.189h1.368v7.776c0,3.086-1.384,4.034-3.208,4.034-.503,0-1.117-.121-1.463-.276l.204-1.224c.283.121.692.224,1.148.224,1.227,0,1.95-.603,1.95-2.879v-7.655Z"/><path d="m172.229,43.983c.613.414,1.51.759,2.453.759,1.4,0,2.218-.81,2.218-1.983,0-1.086-.566-1.707-1.998-2.31-1.73-.672-2.799-1.655-2.799-3.293,0-1.811,1.368-3.155,3.428-3.155,1.085,0,1.872.276,2.343.568l-.378,1.225c-.346-.207-1.054-.552-2.013-.552-1.447,0-1.997.948-1.997,1.741,0,1.086.645,1.621,2.107,2.241,1.793.758,2.705,1.707,2.705,3.414,0,1.793-1.211,3.345-3.711,3.345-1.022,0-2.139-.328-2.705-.741l.346-1.259Z"/><polygon points="110.609 23 107.315 29.049 104.056 23 97.489 23 107.288 41.395 117.191 23 110.609 23"/></svg>