<svg width="682" height="102" viewBox="0 0 682 102" fill="none" xmlns="http://www.w3.org/2000/svg">
<mask id="path-1-outside-1_0_10862" maskUnits="userSpaceOnUse" x="0" y="0.97998" width="682" height="101" fill="black">
<rect fill="white" y="0.97998" width="682" height="101"/>
<path d="M99.79 3.98999L88.81 98.85H58.01C55.19 84.28 52.7 67.69 50.54 49.1C49.56 57.07 47.26 73.65 43.66 98.85H13.04L2 3.98999H25.96L31.09 69.09C32 52.53 34.27 30.83 37.91 3.98999H63.53C63.87 6.75999 64.77 17.19 66.22 35.28L68.94 71.37C70.34 48.41 72.64 25.95 75.82 3.98999H99.79Z"/>
<path d="M104.66 3.98999H145.79V22.97H129.33V40.96H144.74V59.01H129.33V79.87H147.44V98.85H104.67V3.98999H104.66Z"/>
<path d="M218.31 3.98999L232.42 98.85H207.21L205.89 81.8H197.07L195.59 98.85H170.09L182.66 3.98999H218.31ZM205.24 64.99C203.99 54.25 202.74 40.96 201.48 25.15C198.97 43.32 197.39 56.6 196.75 64.99H205.24Z"/>
<path d="M236.61 3.98999H254.07C265.71 3.98999 273.59 4.43999 277.71 5.33999C281.83 6.23999 285.19 8.52999 287.79 12.22C290.39 15.91 291.69 21.8 291.69 29.89C291.69 37.27 290.77 42.23 288.94 44.77C287.1 47.31 283.49 48.83 278.1 49.34C282.98 50.55 286.26 52.17 287.94 54.2C289.62 56.23 290.66 58.1 291.07 59.8C291.48 61.5 291.69 66.18 291.69 73.83V98.85H268.78V67.33C268.78 62.25 268.38 59.11 267.58 57.9C266.78 56.69 264.68 56.08 261.28 56.08V98.85H236.61V3.98999ZM261.28 20.22V41.31C264.05 41.31 266 40.93 267.11 40.17C268.22 39.41 268.78 36.94 268.78 32.76V27.55C268.78 24.54 268.24 22.57 267.17 21.63C266.09 20.69 264.13 20.22 261.28 20.22Z"/>
<path d="M301.24 3.98999H342.37V22.97H325.91V40.96H341.32V59.01H325.91V79.87H344.02V98.85H301.25V3.98999H301.24Z"/>
<path d="M372.25 3.98999H389.71C401.35 3.98999 409.23 4.43999 413.35 5.33999C417.47 6.23999 420.83 8.52999 423.43 12.22C426.03 15.91 427.33 21.8 427.33 29.89C427.33 37.27 426.41 42.23 424.58 44.77C422.74 47.31 419.13 48.83 413.74 49.34C418.62 50.55 421.9 52.17 423.58 54.2C425.26 56.23 426.3 58.1 426.71 59.8C427.12 61.5 427.33 66.18 427.33 73.83V98.85H404.42V67.33C404.42 62.25 404.02 59.11 403.22 57.9C402.42 56.69 400.32 56.08 396.92 56.08V98.85H372.25V3.98999ZM396.92 20.22V41.31C399.69 41.31 401.64 40.93 402.75 40.17C403.86 39.41 404.42 36.94 404.42 32.76V27.55C404.42 24.54 403.88 22.57 402.81 21.63C401.73 20.69 399.77 20.22 396.92 20.22Z"/>
<path d="M493.25 59.54C493.25 69.07 493.02 75.82 492.58 79.78C492.13 83.75 490.72 87.37 488.36 90.65C486 93.93 482.8 96.45 478.78 98.21C474.76 99.97 470.07 100.85 464.72 100.85C459.37 100.85 455.08 100.02 451.04 98.36C447 96.7 443.75 94.21 441.28 90.89C438.82 87.57 437.35 83.96 436.89 80.05C436.42 76.14 436.19 69.31 436.19 59.54V43.31C436.19 33.78 436.41 27.03 436.86 23.07C437.31 19.11 438.71 15.48 441.08 12.2C443.44 8.92 446.64 6.4 450.66 4.64C454.68 2.88 459.37 2 464.72 2C469.8 2 474.36 2.83 478.4 4.49C482.44 6.15 485.69 8.64 488.16 11.96C490.62 15.28 492.09 18.89 492.55 22.8C493.02 26.71 493.25 33.54 493.25 43.31V59.54ZM468.58 28.37C468.58 23.96 468.34 21.13 467.85 19.9C467.36 18.67 466.36 18.05 464.83 18.05C463.54 18.05 462.55 18.55 461.87 19.54C461.19 20.54 460.84 23.48 460.84 28.36V72.66C460.84 78.17 461.06 81.57 461.51 82.86C461.96 84.15 463 84.79 464.64 84.79C466.28 84.79 467.39 84.05 467.86 82.56C468.33 81.08 468.56 77.54 468.56 71.95V28.37H468.58Z"/>
<path d="M559.05 38.91H534.38V30.3C534.38 24.87 534.15 21.47 533.68 20.1C533.21 18.73 532.1 18.05 530.34 18.05C528.82 18.05 527.78 18.64 527.23 19.81C526.68 20.98 526.41 23.99 526.41 28.83V74.36C526.41 78.62 526.68 81.42 527.23 82.77C527.78 84.12 528.87 84.79 530.51 84.79C532.31 84.79 533.53 84.03 534.17 82.5C534.81 80.97 535.14 78.01 535.14 73.59V62.34H530.16V47.93H559.05V98.85H543.55L541.27 92.05C539.59 94.98 537.47 97.18 534.91 98.64C532.35 100.1 529.33 100.84 525.85 100.84C521.71 100.84 517.83 99.83 514.21 97.82C510.59 95.81 507.85 93.32 505.97 90.35C504.09 87.38 502.92 84.27 502.45 81C501.98 77.74 501.75 72.85 501.75 66.32V38.14C501.75 29.08 502.24 22.5 503.21 18.39C504.19 14.29 506.99 10.53 511.62 7.10998C516.25 3.68998 522.23 1.97998 529.58 1.97998C536.93 1.97998 542.8 3.45998 547.57 6.42998C552.34 9.39998 555.44 12.92 556.89 17.01C558.33 21.09 559.06 27.02 559.06 34.79V38.89L559.05 38.91Z"/>
<path d="M621.16 3.98999L603.17 64.52V98.86H580.32V64.52L562.98 3.98999H585.64C589.18 22.51 591.18 34.97 591.63 41.37C593 31.25 595.29 18.79 598.5 3.98999H621.16Z"/>
<path d="M675.39 3.98999L666.72 45.94L679.79 98.85H656.94C654.21 89.39 651.71 77.87 649.44 64.28C648.82 70.3 647.95 76.67 646.84 83.38L644.52 98.85H620.5L629.46 45.94L620.5 3.98999H644.35C644.78 6.59999 645.64 10.96 646.92 17.05C647.95 21.7 648.8 25.97 649.45 29.89L654.72 3.98999H675.4H675.39Z"/>
</mask>
<path d="M99.79 3.98999L88.81 98.85H58.01C55.19 84.28 52.7 67.69 50.54 49.1C49.56 57.07 47.26 73.65 43.66 98.85H13.04L2 3.98999H25.96L31.09 69.09C32 52.53 34.27 30.83 37.91 3.98999H63.53C63.87 6.75999 64.77 17.19 66.22 35.28L68.94 71.37C70.34 48.41 72.64 25.95 75.82 3.98999H99.79Z" fill="white"/>
<path d="M104.66 3.98999H145.79V22.97H129.33V40.96H144.74V59.01H129.33V79.87H147.44V98.85H104.67V3.98999H104.66Z" fill="white"/>
<path d="M218.31 3.98999L232.42 98.85H207.21L205.89 81.8H197.07L195.59 98.85H170.09L182.66 3.98999H218.31ZM205.24 64.99C203.99 54.25 202.74 40.96 201.48 25.15C198.97 43.32 197.39 56.6 196.75 64.99H205.24Z" fill="white"/>
<path d="M236.61 3.98999H254.07C265.71 3.98999 273.59 4.43999 277.71 5.33999C281.83 6.23999 285.19 8.52999 287.79 12.22C290.39 15.91 291.69 21.8 291.69 29.89C291.69 37.27 290.77 42.23 288.94 44.77C287.1 47.31 283.49 48.83 278.1 49.34C282.98 50.55 286.26 52.17 287.94 54.2C289.62 56.23 290.66 58.1 291.07 59.8C291.48 61.5 291.69 66.18 291.69 73.83V98.85H268.78V67.33C268.78 62.25 268.38 59.11 267.58 57.9C266.78 56.69 264.68 56.08 261.28 56.08V98.85H236.61V3.98999ZM261.28 20.22V41.31C264.05 41.31 266 40.93 267.11 40.17C268.22 39.41 268.78 36.94 268.78 32.76V27.55C268.78 24.54 268.24 22.57 267.17 21.63C266.09 20.69 264.13 20.22 261.28 20.22Z" fill="white"/>
<path d="M301.24 3.98999H342.37V22.97H325.91V40.96H341.32V59.01H325.91V79.87H344.02V98.85H301.25V3.98999H301.24Z" fill="white"/>
<path d="M372.25 3.98999H389.71C401.35 3.98999 409.23 4.43999 413.35 5.33999C417.47 6.23999 420.83 8.52999 423.43 12.22C426.03 15.91 427.33 21.8 427.33 29.89C427.33 37.27 426.41 42.23 424.58 44.77C422.74 47.31 419.13 48.83 413.74 49.34C418.62 50.55 421.9 52.17 423.58 54.2C425.26 56.23 426.3 58.1 426.71 59.8C427.12 61.5 427.33 66.18 427.33 73.83V98.85H404.42V67.33C404.42 62.25 404.02 59.11 403.22 57.9C402.42 56.69 400.32 56.08 396.92 56.08V98.85H372.25V3.98999ZM396.92 20.22V41.31C399.69 41.31 401.64 40.93 402.75 40.17C403.86 39.41 404.42 36.94 404.42 32.76V27.55C404.42 24.54 403.88 22.57 402.81 21.63C401.73 20.69 399.77 20.22 396.92 20.22Z" fill="white"/>
<path d="M493.25 59.54C493.25 69.07 493.02 75.82 492.58 79.78C492.13 83.75 490.72 87.37 488.36 90.65C486 93.93 482.8 96.45 478.78 98.21C474.76 99.97 470.07 100.85 464.72 100.85C459.37 100.85 455.08 100.02 451.04 98.36C447 96.7 443.75 94.21 441.28 90.89C438.82 87.57 437.35 83.96 436.89 80.05C436.42 76.14 436.19 69.31 436.19 59.54V43.31C436.19 33.78 436.41 27.03 436.86 23.07C437.31 19.11 438.71 15.48 441.08 12.2C443.44 8.92 446.64 6.4 450.66 4.64C454.68 2.88 459.37 2 464.72 2C469.8 2 474.36 2.83 478.4 4.49C482.44 6.15 485.69 8.64 488.16 11.96C490.62 15.28 492.09 18.89 492.55 22.8C493.02 26.71 493.25 33.54 493.25 43.31V59.54ZM468.58 28.37C468.58 23.96 468.34 21.13 467.85 19.9C467.36 18.67 466.36 18.05 464.83 18.05C463.54 18.05 462.55 18.55 461.87 19.54C461.19 20.54 460.84 23.48 460.84 28.36V72.66C460.84 78.17 461.06 81.57 461.51 82.86C461.96 84.15 463 84.79 464.64 84.79C466.28 84.79 467.39 84.05 467.86 82.56C468.33 81.08 468.56 77.54 468.56 71.95V28.37H468.58Z" fill="white"/>
<path d="M559.05 38.91H534.38V30.3C534.38 24.87 534.15 21.47 533.68 20.1C533.21 18.73 532.1 18.05 530.34 18.05C528.82 18.05 527.78 18.64 527.23 19.81C526.68 20.98 526.41 23.99 526.41 28.83V74.36C526.41 78.62 526.68 81.42 527.23 82.77C527.78 84.12 528.87 84.79 530.51 84.79C532.31 84.79 533.53 84.03 534.17 82.5C534.81 80.97 535.14 78.01 535.14 73.59V62.34H530.16V47.93H559.05V98.85H543.55L541.27 92.05C539.59 94.98 537.47 97.18 534.91 98.64C532.35 100.1 529.33 100.84 525.85 100.84C521.71 100.84 517.83 99.83 514.21 97.82C510.59 95.81 507.85 93.32 505.97 90.35C504.09 87.38 502.92 84.27 502.45 81C501.98 77.74 501.75 72.85 501.75 66.32V38.14C501.75 29.08 502.24 22.5 503.21 18.39C504.19 14.29 506.99 10.53 511.62 7.10998C516.25 3.68998 522.23 1.97998 529.58 1.97998C536.93 1.97998 542.8 3.45998 547.57 6.42998C552.34 9.39998 555.44 12.92 556.89 17.01C558.33 21.09 559.06 27.02 559.06 34.79V38.89L559.05 38.91Z" fill="white"/>
<path d="M621.16 3.98999L603.17 64.52V98.86H580.32V64.52L562.98 3.98999H585.64C589.18 22.51 591.18 34.97 591.63 41.37C593 31.25 595.29 18.79 598.5 3.98999H621.16Z" fill="white"/>
<path d="M675.39 3.98999L666.72 45.94L679.79 98.85H656.94C654.21 89.39 651.71 77.87 649.44 64.28C648.82 70.3 647.95 76.67 646.84 83.38L644.52 98.85H620.5L629.46 45.94L620.5 3.98999H644.35C644.78 6.59999 645.64 10.96 646.92 17.05C647.95 21.7 648.8 25.97 649.45 29.89L654.72 3.98999H675.4H675.39Z" fill="white"/>
<path d="M99.79 3.98999L88.81 98.85H58.01C55.19 84.28 52.7 67.69 50.54 49.1C49.56 57.07 47.26 73.65 43.66 98.85H13.04L2 3.98999H25.96L31.09 69.09C32 52.53 34.27 30.83 37.91 3.98999H63.53C63.87 6.75999 64.77 17.19 66.22 35.28L68.94 71.37C70.34 48.41 72.64 25.95 75.82 3.98999H99.79Z" stroke="black" stroke-width="2" mask="url(#path-1-outside-1_0_10862)"/>
<path d="M104.66 3.98999H145.79V22.97H129.33V40.96H144.74V59.01H129.33V79.87H147.44V98.85H104.67V3.98999H104.66Z" stroke="black" stroke-width="2" mask="url(#path-1-outside-1_0_10862)"/>
<path d="M218.31 3.98999L232.42 98.85H207.21L205.89 81.8H197.07L195.59 98.85H170.09L182.66 3.98999H218.31ZM205.24 64.99C203.99 54.25 202.74 40.96 201.48 25.15C198.97 43.32 197.39 56.6 196.75 64.99H205.24Z" stroke="black" stroke-width="2" mask="url(#path-1-outside-1_0_10862)"/>
<path d="M236.61 3.98999H254.07C265.71 3.98999 273.59 4.43999 277.71 5.33999C281.83 6.23999 285.19 8.52999 287.79 12.22C290.39 15.91 291.69 21.8 291.69 29.89C291.69 37.27 290.77 42.23 288.94 44.77C287.1 47.31 283.49 48.83 278.1 49.34C282.98 50.55 286.26 52.17 287.94 54.2C289.62 56.23 290.66 58.1 291.07 59.8C291.48 61.5 291.69 66.18 291.69 73.83V98.85H268.78V67.33C268.78 62.25 268.38 59.11 267.58 57.9C266.78 56.69 264.68 56.08 261.28 56.08V98.85H236.61V3.98999ZM261.28 20.22V41.31C264.05 41.31 266 40.93 267.11 40.17C268.22 39.41 268.78 36.94 268.78 32.76V27.55C268.78 24.54 268.24 22.57 267.17 21.63C266.09 20.69 264.13 20.22 261.28 20.22Z" stroke="black" stroke-width="2" mask="url(#path-1-outside-1_0_10862)"/>
<path d="M301.24 3.98999H342.37V22.97H325.91V40.96H341.32V59.01H325.91V79.87H344.02V98.85H301.25V3.98999H301.24Z" stroke="black" stroke-width="2" mask="url(#path-1-outside-1_0_10862)"/>
<path d="M372.25 3.98999H389.71C401.35 3.98999 409.23 4.43999 413.35 5.33999C417.47 6.23999 420.83 8.52999 423.43 12.22C426.03 15.91 427.33 21.8 427.33 29.89C427.33 37.27 426.41 42.23 424.58 44.77C422.74 47.31 419.13 48.83 413.74 49.34C418.62 50.55 421.9 52.17 423.58 54.2C425.26 56.23 426.3 58.1 426.71 59.8C427.12 61.5 427.33 66.18 427.33 73.83V98.85H404.42V67.33C404.42 62.25 404.02 59.11 403.22 57.9C402.42 56.69 400.32 56.08 396.92 56.08V98.85H372.25V3.98999ZM396.92 20.22V41.31C399.69 41.31 401.64 40.93 402.75 40.17C403.86 39.41 404.42 36.94 404.42 32.76V27.55C404.42 24.54 403.88 22.57 402.81 21.63C401.73 20.69 399.77 20.22 396.92 20.22Z" stroke="black" stroke-width="2" mask="url(#path-1-outside-1_0_10862)"/>
<path d="M493.25 59.54C493.25 69.07 493.02 75.82 492.58 79.78C492.13 83.75 490.72 87.37 488.36 90.65C486 93.93 482.8 96.45 478.78 98.21C474.76 99.97 470.07 100.85 464.72 100.85C459.37 100.85 455.08 100.02 451.04 98.36C447 96.7 443.75 94.21 441.28 90.89C438.82 87.57 437.35 83.96 436.89 80.05C436.42 76.14 436.19 69.31 436.19 59.54V43.31C436.19 33.78 436.41 27.03 436.86 23.07C437.31 19.11 438.71 15.48 441.08 12.2C443.44 8.92 446.64 6.4 450.66 4.64C454.68 2.88 459.37 2 464.72 2C469.8 2 474.36 2.83 478.4 4.49C482.44 6.15 485.69 8.64 488.16 11.96C490.62 15.28 492.09 18.89 492.55 22.8C493.02 26.71 493.25 33.54 493.25 43.31V59.54ZM468.58 28.37C468.58 23.96 468.34 21.13 467.85 19.9C467.36 18.67 466.36 18.05 464.83 18.05C463.54 18.05 462.55 18.55 461.87 19.54C461.19 20.54 460.84 23.48 460.84 28.36V72.66C460.84 78.17 461.06 81.57 461.51 82.86C461.96 84.15 463 84.79 464.64 84.79C466.28 84.79 467.39 84.05 467.86 82.56C468.33 81.08 468.56 77.54 468.56 71.95V28.37H468.58Z" stroke="black" stroke-width="2" mask="url(#path-1-outside-1_0_10862)"/>
<path d="M559.05 38.91H534.38V30.3C534.38 24.87 534.15 21.47 533.68 20.1C533.21 18.73 532.1 18.05 530.34 18.05C528.82 18.05 527.78 18.64 527.23 19.81C526.68 20.98 526.41 23.99 526.41 28.83V74.36C526.41 78.62 526.68 81.42 527.23 82.77C527.78 84.12 528.87 84.79 530.51 84.79C532.31 84.79 533.53 84.03 534.17 82.5C534.81 80.97 535.14 78.01 535.14 73.59V62.34H530.16V47.93H559.05V98.85H543.55L541.27 92.05C539.59 94.98 537.47 97.18 534.91 98.64C532.35 100.1 529.33 100.84 525.85 100.84C521.71 100.84 517.83 99.83 514.21 97.82C510.59 95.81 507.85 93.32 505.97 90.35C504.09 87.38 502.92 84.27 502.45 81C501.98 77.74 501.75 72.85 501.75 66.32V38.14C501.75 29.08 502.24 22.5 503.21 18.39C504.19 14.29 506.99 10.53 511.62 7.10998C516.25 3.68998 522.23 1.97998 529.58 1.97998C536.93 1.97998 542.8 3.45998 547.57 6.42998C552.34 9.39998 555.44 12.92 556.89 17.01C558.33 21.09 559.06 27.02 559.06 34.79V38.89L559.05 38.91Z" stroke="black" stroke-width="2" mask="url(#path-1-outside-1_0_10862)"/>
<path d="M621.16 3.98999L603.17 64.52V98.86H580.32V64.52L562.98 3.98999H585.64C589.18 22.51 591.18 34.97 591.63 41.37C593 31.25 595.29 18.79 598.5 3.98999H621.16Z" stroke="black" stroke-width="2" mask="url(#path-1-outside-1_0_10862)"/>
<path d="M675.39 3.98999L666.72 45.94L679.79 98.85H656.94C654.21 89.39 651.71 77.87 649.44 64.28C648.82 70.3 647.95 76.67 646.84 83.38L644.52 98.85H620.5L629.46 45.94L620.5 3.98999H644.35C644.78 6.59999 645.64 10.96 646.92 17.05C647.95 21.7 648.8 25.97 649.45 29.89L654.72 3.98999H675.4H675.39Z" stroke="black" stroke-width="2" mask="url(#path-1-outside-1_0_10862)"/>
</svg>
