<?xml version="1.0" encoding="UTF-8"?><svg id="a" xmlns="http://www.w3.org/2000/svg" width="267" height="80" viewBox="0 0 267 80"><polygon points="133.5 8.535 161.308 24.26 161.308 55.74 133.5 71.465 105.692 55.74 105.692 24.26 133.5 8.535 133.5 8.535" style="fill:#fff;"/><path d="m156.905,25.677l-22.475-12.723v9.341l14.399,7.939.122.061,7.954-4.617h0Zm-46.901,0l22.49-12.723v9.341l-14.415,7.923-.122.061-7.954-4.602h0Zm-.929,27.61v-25.934l8.015,4.632v16.685l-8.015,4.617h0Zm1.493,1.356l21.927,12.403v-9.66l-13.668-7.512-8.259,4.769h0Zm47.282-1.356v-25.934l-8.015,4.632v16.685l8.015,4.617h0Zm-1.509,1.356l-21.927,12.418v-9.66l13.668-7.527,8.259,4.769h0Z"/><path d="m119.924,31.406l13.531-7.436,13.531,7.436-13.531,7.802-13.531-7.802h0Zm14.506,23.801l13.47-7.405v-14.689l-13.47,7.771v14.323h0Zm-1.935,0l-13.47-7.421v-14.674l13.47,7.771v14.323h0Z"/></svg>