<?xml version="1.0" encoding="UTF-8"?><svg id="a" xmlns="http://www.w3.org/2000/svg" width="267" height="80" xmlns:xlink="http://www.w3.org/1999/xlink" viewBox="0 0 267 80"><defs><clipPath id="b"><rect x="86.654" y="12.123" width="93.693" height="55.754" style="fill:none;"/></clipPath></defs><g style="clip-path:url(#b);"><path d="m95.356,12.123h76.263c4.826,0,8.728,3.902,8.728,8.728v29.109c0,4.826-3.902,8.728-8.728,8.728h-27.363l3.748,9.19-16.505-9.19h-36.117c-4.826,0-8.728-3.902-8.728-8.728v-29.109c-.026-4.8,3.876-8.728,8.702-8.728h0Z"/></g><path d="m145.154,36.612c-.539,2.516-1.489,4.389-2.901,5.647-1.104,1.001-2.131,1.412-3.08,1.206-.924-.18-1.669-1.001-2.259-2.464-.462-1.181-.693-2.362-.693-3.465,0-.95.077-1.899.257-2.772.334-1.566,1.001-3.08,2.028-4.543,1.258-1.874,2.592-2.618,3.953-2.362.924.18,1.669,1.001,2.259,2.464.462,1.181.693,2.362.693,3.465.051.975-.051,1.951-.257,2.824h0Zm4.851-10.55c-1.36-2.387-3.44-3.85-6.084-4.415-.719-.154-1.412-.231-2.053-.231-3.645,0-6.623,1.9-8.959,5.724-1.977,3.234-2.978,6.828-2.978,10.73,0,2.926.616,5.442,1.823,7.547,1.36,2.387,3.388,3.85,6.084,4.415.719.154,1.412.231,2.053.231,3.696,0,6.674-1.9,8.959-5.724,1.977-3.286,2.978-6.854,2.978-10.781,0-2.978-.616-5.442-1.823-7.495h0Zm19.021,10.55c-.539,2.516-1.489,4.389-2.901,5.647-1.104,1.001-2.13,1.412-3.08,1.206-.924-.18-1.668-1.001-2.259-2.464-.462-1.181-.693-2.362-.693-3.465,0-.95.077-1.899.257-2.772.334-1.566,1.001-3.08,2.028-4.543,1.258-1.874,2.593-2.618,3.953-2.362.924.18,1.669,1.001,2.259,2.464.462,1.181.693,2.362.693,3.465.026.975-.051,1.951-.257,2.824h0Zm4.8-10.55c-1.36-2.387-3.388-3.85-6.083-4.415-.719-.154-1.412-.231-2.054-.231-3.645,0-6.623,1.9-8.959,5.724-1.977,3.234-2.978,6.828-2.978,10.73,0,2.926.616,5.442,1.823,7.547,1.36,2.387,3.388,3.85,6.084,4.415.719.154,1.412.231,2.054.231,3.696,0,6.674-1.9,8.958-5.724,1.977-3.286,2.978-6.854,2.978-10.781.051-2.978-.59-5.442-1.823-7.495h0Zm-81.834-5.981c.539-.719,1.335-1.104,2.387-1.181,1.951-.154,3.055.77,3.311,2.747,1.181,7.957,2.464,14.708,3.85,20.227l8.342-15.889c.77-1.437,1.72-2.208,2.849-2.285,1.669-.103,2.695.95,3.132,3.209.95,5.057,2.182,9.369,3.619,13.014,1.001-9.677,2.67-16.634,5.031-20.946.565-1.078,1.412-1.591,2.515-1.669.873-.077,1.669.18,2.387.77.719.565,1.104,1.283,1.181,2.182.026.693-.077,1.258-.385,1.823-1.489,2.747-2.695,7.341-3.696,13.759-.95,6.212-1.284,11.038-1.078,14.503.077.95-.077,1.797-.462,2.516-.462.847-1.155,1.283-2.028,1.36-1.001.077-2.028-.385-3.003-1.412-3.542-3.619-6.366-9.036-8.42-16.223-2.464,4.877-4.312,8.522-5.493,10.961-2.259,4.312-4.158,6.52-5.75,6.623-1.027.077-1.9-.796-2.67-2.618-1.951-4.98-4.03-14.631-6.289-28.904-.103-1.001.128-1.9.667-2.567h0Z" style="fill:#fff;"/></svg>