<svg width="1070" height="271" viewBox="0 0 1070 271" fill="none" xmlns="http://www.w3.org/2000/svg">
<path d="M101.737 220.26L101.685 219.818H101.24H59.5318H59.0868L59.0352 220.26L53.7774 265.317H0.577928L38.3507 5.43326H122.421L160.194 265.317H106.995L101.737 220.26ZM94.4119 172.267H94.9783L94.908 171.705L80.875 59.4698H79.8827L65.8497 171.705L65.7794 172.267H66.3458H94.4119Z" stroke="#EA4335"/>
<path d="M349.329 135.368V5.43326H401.409V265.317H348.427L306.83 135.23L305.854 135.383V265.317H253.774V5.43326H306.756L348.353 135.52L349.329 135.368Z" stroke="#EA4335"/>
<path d="M475.474 213.209H568.257V265.288H421.375V5.43326H568.257V57.5128H475.474H474.974V58.0128V108.821V109.321H475.474H556.871V161.401H475.474H474.974V161.901V212.709V213.209H475.474Z" stroke="#EA4335"/>
<path d="M637.727 265.317H582.299L621.925 132.473L621.968 132.328L621.924 132.183L583.076 5.43326H638.514L660.778 84.695L661.259 86.4088L661.741 84.695L684.004 5.43326H739.443L700.58 132.198L700.536 132.342L700.579 132.487L740.2 265.317H684.762L661.728 178.482L661.245 176.66L660.762 178.482L637.727 265.317Z" stroke="#EA4335"/>
<path d="M807.874 5.43326V190.733C807.874 196.241 808.345 203.074 811.104 208.543C812.488 211.288 814.453 213.699 817.229 215.421C820.006 217.143 823.561 218.157 828.093 218.157C832.625 218.157 836.181 217.143 838.957 215.421C841.733 213.699 843.698 211.288 845.083 208.543C847.841 203.074 848.312 196.241 848.312 190.733V5.43326H901.158V193.771C901.158 217.954 894.643 237.06 882.29 250.119C869.942 263.173 851.696 270.251 828.093 270.251C804.49 270.251 786.244 263.173 773.896 250.119C761.543 237.06 755.028 217.954 755.028 193.771V5.43326H807.874Z" stroke="#EA4335"/>
<path d="M972.451 193.257H972.437V193.757C972.437 200.841 974.064 207.222 977.713 211.843C981.376 216.483 987.028 219.285 994.927 219.285C1002.81 219.285 1008.45 216.782 1012.12 212.626C1015.78 208.479 1017.42 202.755 1017.42 196.419V196.382C1017.42 191.09 1017.42 185.566 1013.93 179.852C1010.44 174.134 1003.51 168.297 989.821 162.21L989.819 162.21C967.075 152.165 949.914 142.722 938.428 129.587C926.964 116.477 921.11 99.6356 921.11 74.6933C921.11 49.7648 928.47 31.2362 941.334 18.9371C954.201 6.63415 972.642 0.5 994.927 0.5C1017.2 0.5 1035.64 7.1989 1048.51 20.0721C1061.38 32.9446 1068.74 52.0499 1068.74 76.9791V91.2644H1017.42V76.9791C1017.42 70.4902 1016.27 64.0182 1012.87 59.1565C1009.44 54.2625 1003.78 51.075 994.927 51.075C986.087 51.075 980.428 54.0609 976.997 58.569C973.585 63.052 972.437 68.9616 972.437 74.7078C972.437 80.4669 973.304 85.6239 977.818 90.9589C982.301 96.2584 990.349 101.695 1004.59 108.148L1004.59 108.148C1022.6 116.299 1038.62 124.701 1050.16 137.837C1061.68 150.953 1068.76 168.839 1068.76 196.043C1068.76 218.727 1063.65 237.257 1051.92 250.114C1040.2 262.963 1021.78 270.236 994.941 270.236C968.099 270.236 949.68 263.339 937.961 250.4C926.232 237.45 921.124 218.353 921.124 193.757V172.643H972.451V193.257Z" stroke="#F34927"/>
</svg>
