<svg width="1070" height="271" viewBox="0 0 1070 271" fill="none" xmlns="http://www.w3.org/2000/svg">
<path d="M101.737 220.51L101.685 220.068H101.24H59.5318H59.0868L59.0352 220.51L53.7774 265.567H0.577928L38.3507 5.6828H122.421L160.194 265.567H106.995L101.737 220.51ZM94.4119 172.517H94.9783L94.908 171.955L80.875 59.7194H79.8827L65.8497 171.955L65.7794 172.517H66.3458H94.4119Z" stroke="#EA35CC"/>
<path d="M349.329 135.618V5.6828H401.409V265.567H348.427L306.83 135.48L305.854 135.632V265.567H253.774V5.6828H306.756L348.353 135.77L349.329 135.618Z" stroke="#EA35CC"/>
<path d="M475.474 213.458H568.257V265.538H421.375V5.6828H568.257V57.7623H475.474H474.974V58.2623V109.071V109.571H475.474H556.871V161.65H475.474H474.974V162.15V212.958V213.458H475.474Z" stroke="#EA35CC"/>
<path d="M637.727 265.567H582.299L621.925 132.722L621.968 132.578L621.924 132.433L583.076 5.6828H638.514L660.778 84.9446L661.259 86.6583L661.741 84.9446L684.004 5.6828H739.443L700.58 132.447L700.536 132.592L700.579 132.737L740.2 265.567H684.762L661.728 178.731L661.245 176.909L660.762 178.731L637.727 265.567Z" stroke="#EA35CC"/>
<path d="M807.874 5.6828V190.983C807.874 196.49 808.345 203.324 811.104 208.793C812.488 211.537 814.453 213.948 817.229 215.67C820.006 217.393 823.561 218.406 828.093 218.406C832.625 218.406 836.181 217.393 838.957 215.67C841.733 213.948 843.698 211.537 845.083 208.793C847.841 203.324 848.312 196.49 848.312 190.983V5.6828H901.158V194.021C901.158 218.203 894.643 237.31 882.29 250.368C869.942 263.423 851.696 270.5 828.093 270.5C804.49 270.5 786.244 263.423 773.896 250.368C761.543 237.31 755.028 218.203 755.028 194.021V5.6828H807.874Z" stroke="#EA35CC"/>
<path d="M972.451 193.506H972.437V194.006C972.437 201.09 974.064 207.472 977.713 212.093C981.376 216.732 987.028 219.534 994.927 219.534C1002.81 219.534 1008.45 217.032 1012.12 212.875C1015.78 208.729 1017.42 203.005 1017.42 196.668V196.631C1017.42 191.34 1017.42 185.815 1013.93 180.102C1010.44 174.383 1003.51 168.547 989.821 162.46L989.819 162.459C967.075 152.414 949.914 142.971 938.428 129.836C926.964 116.726 921.11 99.8851 921.11 74.9427C921.11 50.0142 928.47 31.4857 941.334 19.1865C954.201 6.88361 972.642 0.749451 994.927 0.749451C1017.2 0.749451 1035.64 7.44835 1048.51 20.3215C1061.38 33.1941 1068.74 52.2994 1068.74 77.2285V91.5138H1017.42V77.2285C1017.42 70.7397 1016.27 64.2676 1012.87 59.4059C1009.44 54.512 1003.78 51.3244 994.927 51.3244C986.087 51.3244 980.428 54.3104 976.997 58.8184C973.585 63.3014 972.437 69.211 972.437 74.9572C972.437 80.7163 973.304 85.8733 977.818 91.2083C982.301 96.5078 990.349 101.945 1004.59 108.397L1004.59 108.398C1022.6 116.549 1038.62 124.95 1050.16 138.087C1061.68 151.202 1068.76 169.088 1068.76 196.292C1068.76 218.977 1063.65 237.506 1051.92 250.364C1040.2 263.213 1021.78 270.486 994.941 270.486C968.099 270.486 949.68 263.589 937.961 250.649C926.232 237.7 921.124 218.602 921.124 194.006V172.893H972.451V193.506Z" stroke="#EA35CC"/>
</svg>
