<svg width="1049" height="219" viewBox="0 0 1049 219" fill="none" xmlns="http://www.w3.org/2000/svg">
<g filter="url(#filter0_d_413_1029)">
<path d="M73.3524 207.082H96.9829L124.462 159.461L151.94 207.082H175.625L124.462 118.457L73.3524 207.082Z" stroke="url(#paint0_linear_413_1029)" stroke-width="1.5" shape-rendering="crispEdges"/>
<path d="M241.042 11.6624L213.564 59.2834L186.085 11.6624H162.4L213.564 100.287L252.858 32.1644H290.797L213.564 166.078L124.462 11.6624L11.7288 207.082H35.4135L124.462 52.6664L213.564 207.082L326.297 11.6624H241.042Z" stroke="url(#paint1_linear_413_1029)" stroke-width="1.5" shape-rendering="crispEdges"/>
<path d="M355.238 179.258H372.203L391.877 145.196L411.496 179.258H428.461L391.877 115.854L355.238 179.258Z" stroke="url(#paint2_linear_413_1029)" stroke-width="1.5" shape-rendering="crispEdges"/>
<path d="M311.175 179.258H328.139L391.877 68.8293L455.56 179.258H472.524L391.877 39.4865L311.175 179.258Z" stroke="url(#paint3_linear_413_1029)" stroke-width="1.5" shape-rendering="crispEdges"/>
<path d="M939.823 140.966C939.823 154.634 928.712 165.753 915.054 165.753C901.396 165.753 890.285 154.634 890.285 140.966V84.6126H876.79V140.966C876.79 162.119 893.971 179.312 915.108 179.312C924.214 179.312 932.994 176.058 939.877 170.2V179.312H953.372V84.5583H939.877V140.912L939.823 140.966Z" stroke="url(#paint4_linear_413_1029)" stroke-width="1.5" shape-rendering="crispEdges"/>
<path d="M648.669 156.532L561.951 39.4865H551.762V179.258H565.312V66.714L648.669 179.258H662.164V39.4865H648.669V156.532Z" stroke="url(#paint5_linear_413_1029)" stroke-width="1.5" shape-rendering="crispEdges"/>
<path d="M724.221 84.5583C698.152 84.5583 676.906 105.82 676.906 131.908C676.906 157.997 698.152 179.258 724.221 179.258C742.757 179.258 759.179 168.627 766.93 152.193H751.158C744.871 160.6 735.061 165.698 724.221 165.698C696.797 165.698 691.54 140.695 691.16 138.634H771.103C771.103 138.634 771.537 133.481 771.537 131.854C771.537 114.932 759.559 84.5041 724.221 84.5041V84.5583ZM691.16 125.183C694.304 109.562 708.124 98.1178 724.221 98.1178C740.318 98.1178 754.139 109.562 757.282 125.183H691.106H691.16Z" stroke="url(#paint6_linear_413_1029)" stroke-width="1.5" shape-rendering="crispEdges"/>
<path d="M527.481 102.62H471.223V116.125H527.481V102.62Z" stroke="url(#paint7_linear_413_1029)" stroke-width="1.5" shape-rendering="crispEdges"/>
<path d="M845.463 84.5583L820.586 120.138L795.709 84.5583H779.233L812.348 131.908L779.233 179.258H795.709L820.586 143.732L845.463 179.258H861.994L828.824 131.908L861.994 84.5583H845.463Z" stroke="url(#paint8_linear_413_1029)" stroke-width="1.5" shape-rendering="crispEdges"/>
<path d="M1025.73 130.064C1021.17 126.864 1015.81 125.128 1010.23 125.128H995.105C987.626 125.128 981.61 119.054 981.61 111.623C981.61 104.192 987.68 98.1178 995.105 98.1178H1010.23C1017.71 98.1178 1023.72 104.192 1023.72 111.623H1037.22C1037.22 96.7076 1025.08 84.5583 1010.17 84.5583H995.051C980.146 84.5583 968.006 96.7076 968.006 111.623C968.006 120.41 972.342 128.654 979.55 133.752C984.157 136.952 989.468 138.688 995.051 138.688H1010.17C1017.65 138.688 1023.67 144.763 1023.67 152.193C1023.67 159.624 1017.6 165.698 1010.17 165.698H995.051C987.572 165.698 981.556 159.624 981.556 152.139H968.06C968.06 167.054 980.201 179.204 995.105 179.204H1010.23C1025.13 179.204 1037.27 167.054 1037.27 152.139C1037.27 143.352 1032.94 135.054 1025.73 130.01V130.064Z" stroke="url(#paint9_linear_413_1029)" stroke-width="1.5" shape-rendering="crispEdges"/>
</g>
<defs>
<filter id="filter0_d_413_1029" x="0.430283" y="0.161621" width="1047.59" height="218.421" filterUnits="userSpaceOnUse" color-interpolation-filters="sRGB">
<feFlood flood-opacity="0" result="BackgroundImageFix"/>
<feColorMatrix in="SourceAlpha" type="matrix" values="0 0 0 0 0 0 0 0 0 0 0 0 0 0 0 0 0 0 127 0" result="hardAlpha"/>
<feOffset/>
<feGaussianBlur stdDeviation="5"/>
<feComposite in2="hardAlpha" operator="out"/>
<feColorMatrix type="matrix" values="0 0 0 0 1 0 0 0 0 1 0 0 0 0 0.858333 0 0 0 1 0"/>
<feBlend mode="normal" in2="BackgroundImageFix" result="effect1_dropShadow_413_1029"/>
<feBlend mode="normal" in="SourceGraphic" in2="effect1_dropShadow_413_1029" result="shape"/>
</filter>
<linearGradient id="paint0_linear_413_1029" x1="1037.27" y1="207.082" x2="802.151" y2="-320.366" gradientUnits="userSpaceOnUse">
<stop offset="0.0208333" stop-color="#A5884D"/>
<stop offset="0.360577" stop-color="#EAC885"/>
<stop offset="0.519231" stop-color="#FFF2DB"/>
<stop offset="1" stop-color="#A5884D"/>
</linearGradient>
<linearGradient id="paint1_linear_413_1029" x1="1037.27" y1="207.082" x2="802.151" y2="-320.366" gradientUnits="userSpaceOnUse">
<stop offset="0.0208333" stop-color="#A5884D"/>
<stop offset="0.360577" stop-color="#EAC885"/>
<stop offset="0.519231" stop-color="#FFF2DB"/>
<stop offset="1" stop-color="#A5884D"/>
</linearGradient>
<linearGradient id="paint2_linear_413_1029" x1="1037.27" y1="207.082" x2="802.151" y2="-320.366" gradientUnits="userSpaceOnUse">
<stop offset="0.0208333" stop-color="#A5884D"/>
<stop offset="0.360577" stop-color="#EAC885"/>
<stop offset="0.519231" stop-color="#FFF2DB"/>
<stop offset="1" stop-color="#A5884D"/>
</linearGradient>
<linearGradient id="paint3_linear_413_1029" x1="1037.27" y1="207.082" x2="802.151" y2="-320.366" gradientUnits="userSpaceOnUse">
<stop offset="0.0208333" stop-color="#A5884D"/>
<stop offset="0.360577" stop-color="#EAC885"/>
<stop offset="0.519231" stop-color="#FFF2DB"/>
<stop offset="1" stop-color="#A5884D"/>
</linearGradient>
<linearGradient id="paint4_linear_413_1029" x1="1037.27" y1="207.082" x2="802.151" y2="-320.366" gradientUnits="userSpaceOnUse">
<stop offset="0.0208333" stop-color="#A5884D"/>
<stop offset="0.360577" stop-color="#EAC885"/>
<stop offset="0.519231" stop-color="#FFF2DB"/>
<stop offset="1" stop-color="#A5884D"/>
</linearGradient>
<linearGradient id="paint5_linear_413_1029" x1="1037.27" y1="207.082" x2="802.151" y2="-320.366" gradientUnits="userSpaceOnUse">
<stop offset="0.0208333" stop-color="#A5884D"/>
<stop offset="0.360577" stop-color="#EAC885"/>
<stop offset="0.519231" stop-color="#FFF2DB"/>
<stop offset="1" stop-color="#A5884D"/>
</linearGradient>
<linearGradient id="paint6_linear_413_1029" x1="1037.27" y1="207.082" x2="802.151" y2="-320.366" gradientUnits="userSpaceOnUse">
<stop offset="0.0208333" stop-color="#A5884D"/>
<stop offset="0.360577" stop-color="#EAC885"/>
<stop offset="0.519231" stop-color="#FFF2DB"/>
<stop offset="1" stop-color="#A5884D"/>
</linearGradient>
<linearGradient id="paint7_linear_413_1029" x1="1037.27" y1="207.082" x2="802.151" y2="-320.366" gradientUnits="userSpaceOnUse">
<stop offset="0.0208333" stop-color="#A5884D"/>
<stop offset="0.360577" stop-color="#EAC885"/>
<stop offset="0.519231" stop-color="#FFF2DB"/>
<stop offset="1" stop-color="#A5884D"/>
</linearGradient>
<linearGradient id="paint8_linear_413_1029" x1="1037.27" y1="207.082" x2="802.151" y2="-320.366" gradientUnits="userSpaceOnUse">
<stop offset="0.0208333" stop-color="#A5884D"/>
<stop offset="0.360577" stop-color="#EAC885"/>
<stop offset="0.519231" stop-color="#FFF2DB"/>
<stop offset="1" stop-color="#A5884D"/>
</linearGradient>
<linearGradient id="paint9_linear_413_1029" x1="1037.27" y1="207.082" x2="802.151" y2="-320.366" gradientUnits="userSpaceOnUse">
<stop offset="0.0208333" stop-color="#A5884D"/>
<stop offset="0.360577" stop-color="#EAC885"/>
<stop offset="0.519231" stop-color="#FFF2DB"/>
<stop offset="1" stop-color="#A5884D"/>
</linearGradient>
</defs>
</svg>
