<svg width="1070" height="272" viewBox="0 0 1070 272" fill="none" xmlns="http://www.w3.org/2000/svg">
<path d="M101.737 220.885L101.685 220.443H101.24H59.5318H59.0868L59.0352 220.885L53.7774 265.942H0.577928L38.3507 6.05801H122.421L160.194 265.942H106.995L101.737 220.885ZM94.4119 172.892H94.9783L94.908 172.33L80.875 60.0946H79.8827L65.8497 172.33L65.7794 172.892H66.3458H94.4119Z" stroke="#EABA35"/>
<path d="M349.329 135.993V6.05801H401.409V265.942H348.427L306.83 135.855L305.854 136.007V265.942H253.774V6.05801H306.756L348.353 136.145L349.329 135.993Z" stroke="#EABA35"/>
<path d="M475.474 213.834H568.257V265.913H421.375V6.05801H568.257V58.1376H475.474H474.974V58.6376V109.446V109.946H475.474H556.871V162.025H475.474H474.974V162.525V213.334V213.834H475.474Z" stroke="#EABA35"/>
<path d="M637.727 265.942H582.299L621.925 133.098L621.968 132.953L621.924 132.808L583.076 6.05801H638.514L660.778 85.3198L661.259 87.0335L661.741 85.3198L684.004 6.05801H739.443L700.58 132.823L700.536 132.967L700.579 133.112L740.2 265.942H684.762L661.728 179.107L661.245 177.285L660.762 179.107L637.727 265.942Z" stroke="#FFC937"/>
<path d="M807.874 6.05801V191.358C807.874 196.866 808.345 203.699 811.104 209.168C812.488 211.912 814.453 214.323 817.229 216.046C820.006 217.768 823.561 218.781 828.093 218.781C832.625 218.781 836.181 217.768 838.957 216.046C841.733 214.323 843.698 211.912 845.083 209.168C847.841 203.699 848.312 196.866 848.312 191.358V6.05801H901.158V194.396C901.158 218.578 894.643 237.685 882.29 250.743C869.942 263.798 851.696 270.875 828.093 270.875C804.49 270.875 786.244 263.798 773.896 250.743C761.543 237.685 755.028 218.578 755.028 194.396V6.05801H807.874Z" stroke="#EABA35"/>
<path d="M972.451 193.882H972.437V194.382C972.437 201.465 974.064 207.847 977.713 212.468C981.376 217.108 987.028 219.91 994.927 219.91C1002.81 219.91 1008.45 217.407 1012.12 213.25C1015.78 209.104 1017.42 203.38 1017.42 197.044V197.006C1017.42 191.715 1017.42 186.19 1013.93 180.477C1010.44 174.759 1003.51 168.922 989.821 162.835L989.819 162.835C967.075 152.789 949.914 143.346 938.428 130.211C926.964 117.101 921.11 100.26 921.11 75.318C921.11 50.3895 928.47 31.8609 941.334 19.5618C954.201 7.25888 972.642 1.12473 994.927 1.12473C1017.2 1.12473 1035.64 7.82362 1048.51 20.6968C1061.38 33.5694 1068.74 52.6747 1068.74 77.6038V91.8891H1017.42V77.6038C1017.42 71.115 1016.27 64.6429 1012.87 59.7812C1009.44 54.8873 1003.78 51.6997 994.927 51.6997C986.087 51.6997 980.428 54.6857 976.997 59.1937C973.585 63.6767 972.437 69.5863 972.437 75.3325C972.437 81.0916 973.304 86.2486 977.818 91.5836C982.301 96.8831 990.349 102.32 1004.59 108.773L1004.59 108.773C1022.6 116.924 1038.62 125.325 1050.16 138.462C1061.68 151.578 1068.76 169.464 1068.76 196.667C1068.76 219.352 1063.65 237.882 1051.92 250.739C1040.2 263.588 1021.78 270.861 994.941 270.861C968.099 270.861 949.68 263.964 937.961 251.024C926.232 238.075 921.124 218.978 921.124 194.382V173.268H972.451V193.882Z" stroke="#EABA35"/>
</svg>
