<svg width="1100" height="288" viewBox="0 0 1100 288" fill="none" xmlns="http://www.w3.org/2000/svg">
<path d="M116.479 0.995117L160.266 284.568H117.75L109.525 229.163L109.462 228.736H51.3867L51.3242 229.163L43.0986 284.568H0.581055L44.3701 0.995117H116.479ZM57.9668 188.606L57.8818 189.18H102.982L102.897 188.606L80.9268 40.9463H79.9375L57.9668 188.606Z" stroke="#EABA35"/>
<path d="M287.81 141.598V175.432H204.721V141.598H287.81Z" stroke="#EABA35"/>
<path d="M392.094 0.995117L459.492 168.604L460.456 168.417V0.995117H503.346V284.568H460.294L392.896 116.959L391.932 117.146V284.568H349.043V0.995117H392.094Z" stroke="#EABA35"/>
<path d="M594.065 42.0393C602.946 42.0394 611.133 43.8348 618.424 47.3792L619.126 47.7278L619.129 47.7288L619.158 47.7434C626.616 51.5217 633.048 56.77 638.288 63.3625H638.289C648.745 77.5006 654.069 95.4591 654.069 116.815V183.076H574.642V215.414C574.642 222.596 576.274 228.309 579.569 232.341L579.893 232.726C583.376 236.748 588.162 238.782 594.078 238.782C597.81 238.782 600.921 238.149 603.417 236.836C605.765 235.601 607.544 233.778 608.776 231.37L609.015 230.881V230.88C611.311 225.923 612.796 220.896 613.404 215.905L613.513 214.906L613.514 214.903L613.531 214.715H654.054V214.929C654.054 235.653 648.772 252.62 638.389 265.41L637.891 266.016L637.884 266.025C632.817 272.393 626.669 277.535 619.634 281.275L618.951 281.632C611.616 285.406 603.247 287.319 594.078 287.319C581.872 287.319 571.329 284.325 562.725 278.423L561.899 277.843L561.898 277.842L561.081 277.248C552.981 271.252 546.572 263.345 542.022 253.727L541.573 252.76V252.758L541.043 251.57C538.621 245.966 536.875 239.571 535.858 232.514L535.651 230.992V230.991L535.461 229.456C534.541 221.726 534.074 213.203 534.074 204.073V125.284C534.074 116.168 534.541 107.633 535.461 99.9016L535.651 98.3665C536.629 90.7053 538.448 83.7924 541.043 77.7883L541.573 76.5999V76.5989C546.147 66.5563 552.698 58.3326 561.081 52.1116L561.898 51.5159C570.665 45.2301 581.479 42.0393 594.065 42.0393ZM594.05 90.5891C588.328 90.5891 583.653 92.7142 580.205 96.925L579.875 97.3391C576.358 101.879 574.613 108.766 574.613 117.729V144.882H613.501V117.729C613.501 109.046 611.863 102.311 608.563 97.7717L608.239 97.3391H608.238C604.762 92.869 599.972 90.5892 594.065 90.5891H594.05Z" stroke="#EABA35"/>
<path d="M711.39 44.8674L735.537 111.086L736.007 112.374L736.477 111.086L760.624 44.8674H803.565L803.448 45.1643L755.976 161.891L755.899 162.08L755.976 162.269L805.925 284.476H762.981L762.929 284.333L762.928 284.331L736.476 213.027L736.007 211.763L735.538 213.027L709.021 284.476H666.085L715.249 162.266L715.324 162.08L715.25 161.894L668.44 44.8674H711.39Z" stroke="#EABA35"/>
<path d="M870.241 44.8674V210.687C870.241 219.099 871.828 225.887 875.001 230.847L875.312 231.322H875.313C878.701 236.321 883.428 238.769 889.679 238.769C893.422 238.769 896.587 238.098 899.182 236.706C901.784 235.311 903.782 233.208 905.211 230.397L905.21 230.396C908.093 224.75 909.517 216.516 909.517 205.959V44.8674H950.057V284.476H909.517V260.605L908.584 262.231C904.629 269.119 899.888 274.919 894.483 279.495L893.958 279.934C888.058 284.803 880.419 287.29 871.216 287.29C866.553 287.29 861.81 286.387 857.126 284.586L856.189 284.214L856.188 284.213L855.723 284.019C850.921 281.962 846.56 278.599 842.733 274.015H842.734C839.05 269.599 836.015 263.941 833.709 257.157L833.257 255.785L833.04 255.091C830.833 247.863 829.703 238.958 829.703 228.599V44.8674H870.241Z" stroke="#EABA35"/>
<path d="M1040.69 42.0679C1048.8 42.0679 1056.44 43.8216 1063.4 47.2847V47.2856C1070.12 50.6433 1076.01 55.3822 1080.89 61.3901L1081.36 61.9751C1086.18 68.0692 1090.05 75.3412 1092.92 83.6421L1093.19 84.4487C1096.07 93.093 1097.53 102.395 1097.53 112.115V112.33H1059.34L1059.33 112.123C1059.08 104.348 1057.07 98.3161 1053.28 94.2524L1052.91 93.8657V93.8647L1052.54 93.4946C1048.63 89.7269 1044.11 87.7897 1039.11 87.7896C1033.14 87.7896 1028.4 90.0681 1025.07 94.561L1024.75 95.0024C1021.38 99.8193 1019.67 105.42 1019.67 111.629C1019.67 115.714 1020.48 119.781 1022.07 123.724L1022.4 124.511C1024.23 128.743 1029.01 132.565 1036.43 135.948V135.949L1060.04 147.275L1060.05 147.278C1074.98 154.182 1085.38 163.75 1091.01 175.675V175.676L1091.02 175.688L1091.03 175.716C1096.64 187.655 1099.5 200.847 1099.5 214.958C1099.5 224.991 1097.98 234.448 1094.97 243.088C1092.05 251.441 1088.05 258.948 1083.04 265.404L1082.55 266.025C1077.47 272.407 1071.34 277.55 1064.29 281.289L1063.61 281.646L1063.61 281.647C1056.28 285.422 1048.17 287.333 1039.52 287.333C1023.54 287.333 1009.92 281.317 998.991 269.429L998.474 268.859L998.469 268.853L997.956 268.292C992.862 262.625 988.638 255.547 985.385 247.226L985.062 246.39V246.389L984.747 245.545C981.642 237.062 979.899 227.161 979.551 216.06L979.521 214.946V214.729H1017.7L1017.72 214.915V214.916C1018.44 221.065 1020.17 226.863 1022.85 232.189L1023.39 233.248C1024.89 236.056 1026.93 238.159 1029.56 239.556C1032.19 240.95 1035.37 241.625 1039.12 241.625C1044.64 241.625 1049.67 239.473 1054.08 235.266L1054.5 234.852C1059.05 230.335 1061.32 223.937 1061.32 215.901C1061.32 209.589 1059.97 204.061 1057.28 199.469L1057.02 199.028L1057.02 199.027L1056.74 198.59C1053.91 194.242 1048.96 190.404 1042.08 187.17L1041.38 186.849L1041.38 186.847L1022.13 178.364H1022.13C1009.95 172.879 1000.16 164.71 993.025 154.075L992.344 153.039L992.343 153.038C985.164 141.921 981.503 128.15 981.503 112.115C981.503 102.383 982.992 93.2059 985.939 84.7876L986.229 83.9751C989.259 75.6132 993.465 68.2585 998.727 62.0874L999.239 61.4946L999.247 61.4849C1004.31 55.4072 1010.34 50.6502 1017.13 47.3628L1017.8 47.0493L1017.8 47.0483C1024.87 43.7385 1032.57 42.0679 1040.69 42.0679Z" stroke="#EABA35"/>
</svg>
