<svg width="1100" height="288" viewBox="0 0 1100 288" fill="none" xmlns="http://www.w3.org/2000/svg">
<path d="M116.479 0.5L160.266 284.073H117.75L109.525 228.668L109.462 228.241H51.3867L51.3242 228.668L43.0986 284.073H0.581055L44.3701 0.5H116.479ZM57.9668 188.111L57.8818 188.685H102.982L102.897 188.111L80.9268 40.4512H79.9375L57.9668 188.111Z" stroke="#F34927"/>
<path d="M287.81 141.103V174.938H204.721V141.103H287.81Z" stroke="#F34927"/>
<path d="M392.094 0.5L459.492 168.108L460.456 167.922V0.5H503.346V284.073H460.294L392.896 116.464L391.932 116.65V284.073H349.043V0.5H392.094Z" stroke="#F34927"/>
<path d="M594.065 41.5442C602.946 41.5443 611.133 43.3396 618.424 46.884L619.126 47.2327L619.129 47.2336L619.158 47.2483C626.616 51.0265 633.048 56.2749 638.288 62.8674H638.289C648.745 77.0055 654.069 94.964 654.069 116.32V182.581H574.642V214.919C574.642 222.1 576.274 227.814 579.569 231.846L579.893 232.231C583.376 236.253 588.162 238.287 594.078 238.287C597.81 238.287 600.921 237.654 603.417 236.341C605.765 235.106 607.544 233.283 608.776 230.875L609.015 230.386V230.385C611.311 225.428 612.796 220.401 613.404 215.409L613.513 214.411L613.514 214.407L613.531 214.22H654.054V214.434C654.054 235.158 648.772 252.125 638.389 264.915L637.891 265.521L637.884 265.53C632.817 271.898 626.669 277.04 619.634 280.78L618.951 281.137C611.616 284.91 603.247 286.823 594.078 286.823C581.872 286.823 571.329 283.829 562.725 277.928L561.899 277.348L561.898 277.347L561.081 276.753C552.981 270.757 546.572 262.85 542.022 253.232L541.573 252.265V252.263L541.043 251.074C538.621 245.471 536.875 239.075 535.858 232.019L535.651 230.497V230.496L535.461 228.961C534.541 221.231 534.074 212.708 534.074 203.578V124.789C534.074 115.673 534.541 107.138 535.461 99.4065L535.651 97.8713C536.629 90.2102 538.448 83.2973 541.043 77.2932L541.573 76.1047V76.1038C546.147 66.0612 552.698 57.8375 561.081 51.6165L561.898 51.0208C570.665 44.735 581.479 41.5442 594.065 41.5442ZM594.05 90.094C588.328 90.094 583.653 92.2191 580.205 96.4299L579.875 96.844C576.358 101.384 574.613 108.271 574.613 117.234V144.387H613.501V117.234C613.501 108.551 611.863 101.816 608.563 97.2766L608.239 96.844H608.238C604.762 92.3739 599.972 90.0941 594.065 90.094H594.05Z" stroke="#F34927"/>
<path d="M711.39 44.3722L735.537 110.591L736.007 111.879L736.477 110.591L760.624 44.3722H803.565L803.448 44.6691L755.976 161.396L755.899 161.585L755.976 161.774L805.925 283.981H762.981L762.929 283.838L762.928 283.836L736.476 212.531L736.007 211.268L735.538 212.531L709.021 283.981H666.085L715.249 161.771L715.324 161.585L715.25 161.399L668.44 44.3722H711.39Z" stroke="#F34927"/>
<path d="M870.241 44.3722V210.192C870.241 218.604 871.828 225.392 875.001 230.352L875.312 230.826H875.313C878.701 235.826 883.428 238.274 889.679 238.274C893.422 238.274 896.587 237.603 899.182 236.211C901.784 234.816 903.782 232.713 905.211 229.901L905.21 229.901C908.093 224.255 909.517 216.021 909.517 205.464V44.3722H950.057V283.981H909.517V260.109L908.584 261.735C904.629 268.623 899.888 274.424 894.483 279L893.958 279.439C888.058 284.307 880.419 286.795 871.216 286.795C866.553 286.795 861.81 285.891 857.126 284.091L856.189 283.719L856.188 283.718L855.723 283.524C850.921 281.467 846.56 278.104 842.733 273.52H842.734C839.05 269.104 836.015 263.446 833.709 256.662L833.257 255.29L833.04 254.596C830.833 247.368 829.703 238.463 829.703 228.104V44.3722H870.241Z" stroke="#F34927"/>
<path d="M1040.69 41.5728C1048.8 41.5728 1056.44 43.3264 1063.4 46.7896V46.7905C1070.12 50.1481 1076.01 54.8871 1080.89 60.895L1081.36 61.48C1086.18 67.5741 1090.05 74.8461 1092.92 83.147L1093.19 83.9536C1096.07 92.5979 1097.53 101.9 1097.53 111.62V111.834H1059.34L1059.33 111.627C1059.08 103.853 1057.07 97.821 1053.28 93.7573L1052.91 93.3706V93.3696L1052.54 92.9995C1048.63 89.2318 1044.11 87.2945 1039.11 87.2944C1033.14 87.2944 1028.4 89.573 1025.07 94.0659L1024.75 94.5073C1021.38 99.3241 1019.67 104.925 1019.67 111.134C1019.67 115.219 1020.48 119.286 1022.07 123.229L1022.4 124.016C1024.23 128.248 1029.01 132.07 1036.43 135.453V135.454L1060.04 146.78L1060.05 146.783C1074.98 153.687 1085.38 163.255 1091.01 175.18V175.181L1091.02 175.193L1091.03 175.221C1096.64 187.16 1099.5 200.352 1099.5 214.462C1099.5 224.496 1097.98 233.953 1094.97 242.593C1092.05 250.946 1088.05 258.453 1083.04 264.909L1082.55 265.53C1077.47 271.912 1071.34 277.054 1064.29 280.793L1063.61 281.151L1063.61 281.152C1056.28 284.927 1048.17 286.838 1039.52 286.838C1023.54 286.838 1009.92 280.822 998.991 268.934L998.474 268.364L998.469 268.358L997.956 267.796C992.862 262.129 988.638 255.052 985.385 246.731L985.062 245.895V245.894L984.747 245.05C981.642 236.567 979.899 226.666 979.551 215.565L979.521 214.451V214.234H1017.7L1017.72 214.419V214.42C1018.44 220.57 1020.17 226.368 1022.85 231.694L1023.39 232.752C1024.89 235.561 1026.93 237.664 1029.56 239.061C1032.19 240.455 1035.37 241.13 1039.12 241.13C1044.64 241.13 1049.67 238.978 1054.08 234.771L1054.5 234.357C1059.05 229.84 1061.32 223.442 1061.32 215.406C1061.32 209.094 1059.97 203.566 1057.28 198.974L1057.02 198.533L1057.02 198.532L1056.74 198.095C1053.91 193.747 1048.96 189.909 1042.08 186.675L1041.38 186.354L1041.38 186.352L1022.13 177.869H1022.13C1009.95 172.384 1000.16 164.215 993.025 153.58L992.344 152.543L992.343 152.542C985.164 141.426 981.503 127.655 981.503 111.62C981.503 101.888 982.992 92.7108 985.939 84.2925L986.229 83.48C989.259 75.1181 993.465 67.7634 998.727 61.5923L999.239 60.9995L999.247 60.9897C1004.31 54.9121 1010.34 50.1551 1017.13 46.8677L1017.8 46.5542L1017.8 46.5532C1024.87 43.2434 1032.57 41.5728 1040.69 41.5728Z" stroke="#F34927"/>
</svg>
