<svg width="1100" height="288" viewBox="0 0 1100 288" fill="none" xmlns="http://www.w3.org/2000/svg">
<path d="M116.479 0.490234L160.266 284.063H117.75L109.525 228.658L109.462 228.231H51.3867L51.3242 228.658L43.0986 284.063H0.581055L44.3701 0.490234H116.479ZM57.9668 188.102L57.8818 188.675H102.982L102.897 188.102L80.9268 40.4414H79.9375L57.9668 188.102Z" stroke="#EA35CC"/>
<path d="M287.81 141.093V174.928H204.721V141.093H287.81Z" stroke="#EA35CC"/>
<path d="M392.094 0.490234L459.492 168.099L460.456 167.912V0.490234H503.346V284.063H460.294L392.896 116.454L391.932 116.641V284.063H349.043V0.490234H392.094Z" stroke="#EA35CC"/>
<path d="M594.065 41.5344C602.946 41.5345 611.133 43.3299 618.424 46.8743L619.126 47.2229L619.129 47.2239L619.158 47.2385C626.616 51.0168 633.048 56.2652 638.288 62.8577H638.289C648.745 76.9957 654.069 94.9543 654.069 116.31V182.572H574.642V214.909C574.642 222.091 576.274 227.804 579.569 231.836L579.893 232.221C583.376 236.244 588.162 238.278 594.078 238.278C597.81 238.278 600.921 237.644 603.417 236.331C605.765 235.096 607.544 233.273 608.776 230.865L609.015 230.376V230.375C611.311 225.419 612.796 220.391 613.404 215.4L613.513 214.402L613.514 214.398L613.531 214.21H654.054V214.424C654.054 235.149 648.772 252.115 638.389 264.906L637.891 265.511L637.884 265.52C632.817 271.888 626.669 277.031 619.634 280.77L618.951 281.127C611.616 284.901 603.247 286.814 594.078 286.814C581.872 286.814 571.329 283.82 562.725 277.918L561.899 277.338L561.898 277.337L561.081 276.743C552.981 270.748 546.572 262.84 542.022 253.222L541.573 252.255V252.253L541.043 251.065C538.621 245.461 536.875 239.066 535.858 232.009L535.651 230.488V230.487L535.461 228.951C534.541 221.222 534.074 212.698 534.074 203.569V124.78C534.074 115.663 534.541 107.128 535.461 99.3967L535.651 97.8616C536.629 90.2004 538.448 83.2875 541.043 77.2834L541.573 76.095V76.094C546.147 66.0514 552.698 57.8278 561.081 51.6067L561.898 51.011C570.665 44.7252 581.479 41.5344 594.065 41.5344ZM594.05 90.0842C588.328 90.0842 583.653 92.2093 580.205 96.4202L579.875 96.8342C576.358 101.374 574.613 108.261 574.613 117.224V144.377H613.501V117.224C613.501 108.541 611.863 101.807 608.563 97.2668L608.239 96.8342H608.238C604.762 92.3642 599.972 90.0844 594.065 90.0842H594.05Z" stroke="#EA35CC"/>
<path d="M711.39 44.3625L735.537 110.581L736.007 111.869L736.477 110.581L760.624 44.3625H803.565L803.448 44.6594L755.976 161.386L755.899 161.575L755.976 161.764L805.925 283.971H762.981L762.929 283.828L762.928 283.826L736.476 212.522L736.007 211.258L735.538 212.522L709.021 283.971H666.085L715.249 161.761L715.324 161.575L715.25 161.389L668.44 44.3625H711.39Z" stroke="#EA35CC"/>
<path d="M870.241 44.3624V210.182C870.241 218.594 871.828 225.382 875.001 230.342L875.312 230.817H875.313C878.701 235.816 883.428 238.264 889.679 238.264C893.422 238.264 896.587 237.593 899.182 236.201C901.784 234.806 903.782 232.703 905.211 229.892L905.21 229.891C908.093 224.245 909.517 216.011 909.517 205.454V44.3624H950.057V283.971H909.517V260.1L908.584 261.726C904.629 268.614 899.888 274.414 894.483 278.99L893.958 279.429C888.058 284.298 880.419 286.785 871.216 286.785C866.553 286.785 861.81 285.882 857.126 284.081L856.189 283.709L856.188 283.708L855.723 283.514C850.921 281.457 846.56 278.094 842.733 273.51H842.734C839.05 269.094 836.015 263.436 833.709 256.652L833.257 255.28L833.04 254.586C830.833 247.358 829.703 238.453 829.703 228.094V44.3624H870.241Z" stroke="#EA35CC"/>
<path d="M1040.69 41.563C1048.8 41.563 1056.44 43.3167 1063.4 46.7798V46.7808C1070.12 50.1384 1076.01 54.8773 1080.89 60.8853L1081.36 61.4702C1086.18 67.5643 1090.05 74.8363 1092.92 83.1372L1093.19 83.9438C1096.07 92.5881 1097.53 101.89 1097.53 111.61V111.825H1059.34L1059.33 111.618C1059.08 103.843 1057.07 97.8112 1053.28 93.7476L1052.91 93.3608V93.3599L1052.54 92.9897C1048.63 89.222 1044.11 87.2848 1039.11 87.2847C1033.14 87.2847 1028.4 89.5633 1025.07 94.0562L1024.75 94.4976C1021.38 99.3144 1019.67 104.915 1019.67 111.125C1019.67 115.209 1020.48 119.277 1022.07 123.219L1022.4 124.006C1024.23 128.239 1029.01 132.06 1036.43 135.443V135.444L1060.04 146.77L1060.05 146.773C1074.98 153.678 1085.38 163.245 1091.01 175.17V175.171L1091.02 175.183L1091.03 175.211C1096.64 187.15 1099.5 200.342 1099.5 214.453C1099.5 224.486 1097.98 233.943 1094.97 242.583C1092.05 250.937 1088.05 258.443 1083.04 264.899L1082.55 265.52C1077.47 271.902 1071.34 277.045 1064.29 280.784L1063.61 281.141L1063.61 281.142C1056.28 284.917 1048.17 286.829 1039.52 286.829C1023.54 286.829 1009.92 280.812 998.991 268.924L998.474 268.354L998.469 268.348L997.956 267.787C992.862 262.12 988.638 255.042 985.385 246.721L985.062 245.885V245.884L984.747 245.041C981.642 236.557 979.899 226.656 979.551 215.555L979.521 214.441V214.224H1017.7L1017.72 214.41V214.411C1018.44 220.56 1020.17 226.358 1022.85 231.684L1023.39 232.743C1024.89 235.551 1026.93 237.654 1029.56 239.051C1032.19 240.445 1035.37 241.121 1039.12 241.121C1044.64 241.121 1049.67 238.969 1054.08 234.761L1054.5 234.347C1059.05 229.83 1061.32 223.432 1061.32 215.396C1061.32 209.084 1059.97 203.556 1057.28 198.964L1057.02 198.523L1057.02 198.522L1056.74 198.085C1053.91 193.737 1048.96 189.899 1042.08 186.666L1041.38 186.344L1041.38 186.342L1022.13 177.859H1022.13C1009.95 172.374 1000.16 164.205 993.025 153.57L992.344 152.534L992.343 152.533C985.164 141.416 981.503 127.645 981.503 111.61C981.503 101.878 982.992 92.701 985.939 84.2827L986.229 83.4702C989.259 75.1083 993.465 67.7536 998.727 61.5825L999.239 60.9897L999.247 60.98C1004.31 54.9023 1010.34 50.1453 1017.13 46.8579L1017.8 46.5444L1017.8 46.5435C1024.87 43.2336 1032.57 41.563 1040.69 41.563Z" stroke="#EA35CC"/>
</svg>
