<svg width="1049" height="220" viewBox="0 0 1049 220" fill="none" xmlns="http://www.w3.org/2000/svg">
<g filter="url(#filter0_d_413_1027)">
<path d="M73.6237 207.745H97.2542L124.733 160.124L152.211 207.745H175.896L124.733 119.12L73.6237 207.745Z" stroke="url(#paint0_linear_413_1027)" stroke-width="1.5" shape-rendering="crispEdges"/>
<path d="M241.314 12.3251L213.835 59.9461L186.356 12.3251H162.672L213.835 100.95L253.129 32.8271H291.068L213.835 166.741L124.733 12.3251L12.0001 207.745H35.6848L124.733 53.329L213.835 207.745L326.568 12.3251H241.314Z" stroke="url(#paint1_linear_413_1027)" stroke-width="1.5" shape-rendering="crispEdges"/>
<path d="M355.51 179.921H372.474L392.148 145.859L411.768 179.921H428.732L392.148 116.516L355.51 179.921Z" stroke="url(#paint2_linear_413_1027)" stroke-width="1.5" shape-rendering="crispEdges"/>
<path d="M311.446 179.921H328.411L392.148 69.492L455.831 179.921H472.795L392.148 40.1492L311.446 179.921Z" stroke="url(#paint3_linear_413_1027)" stroke-width="1.5" shape-rendering="crispEdges"/>
<path d="M940.094 141.629C940.094 155.297 928.983 166.415 915.325 166.415C901.667 166.415 890.557 155.297 890.557 141.629V85.2752H877.061V141.629C877.061 162.781 894.242 179.975 915.379 179.975C924.485 179.975 933.265 176.721 940.148 170.863V179.975H953.644V85.221H940.148V141.574L940.094 141.629Z" stroke="url(#paint4_linear_413_1027)" stroke-width="1.5" shape-rendering="crispEdges"/>
<path d="M648.94 157.195L562.223 40.1492H552.033V179.921H565.583V67.3767L648.94 179.921H662.435V40.1492H648.94V157.195Z" stroke="url(#paint5_linear_413_1027)" stroke-width="1.5" shape-rendering="crispEdges"/>
<path d="M724.493 85.221C698.423 85.221 677.177 106.482 677.177 132.571C677.177 158.659 698.423 179.921 724.493 179.921C743.029 179.921 759.451 169.29 767.201 152.856H751.429C745.142 161.263 735.332 166.361 724.493 166.361C697.068 166.361 691.811 141.357 691.432 139.296H771.374C771.374 139.296 771.808 134.144 771.808 132.517C771.808 115.594 759.83 85.1668 724.493 85.1668V85.221ZM691.432 125.845C694.575 110.225 708.396 98.7805 724.493 98.7805C740.59 98.7805 754.41 110.225 757.554 125.845H691.377H691.432Z" stroke="url(#paint6_linear_413_1027)" stroke-width="1.5" shape-rendering="crispEdges"/>
<path d="M527.752 103.282H471.494V116.788H527.752V103.282Z" stroke="url(#paint7_linear_413_1027)" stroke-width="1.5" shape-rendering="crispEdges"/>
<path d="M845.735 85.221L820.857 120.801L795.98 85.221H779.504L812.619 132.571L779.504 179.921H795.98L820.857 144.395L845.735 179.921H862.265L829.096 132.571L862.265 85.221H845.735Z" stroke="url(#paint8_linear_413_1027)" stroke-width="1.5" shape-rendering="crispEdges"/>
<path d="M1026 130.727C1021.45 127.527 1016.08 125.791 1010.5 125.791H995.376C987.897 125.791 981.881 119.716 981.881 112.286C981.881 104.855 987.951 98.7805 995.376 98.7805H1010.5C1017.98 98.7805 1023.99 104.855 1023.99 112.286H1037.49C1037.49 97.3703 1025.35 85.221 1010.44 85.221H995.322C980.418 85.221 968.277 97.3703 968.277 112.286C968.277 121.072 972.613 129.317 979.822 134.415C984.428 137.615 989.74 139.351 995.322 139.351H1010.44C1017.92 139.351 1023.94 145.425 1023.94 152.856C1023.94 160.286 1017.87 166.361 1010.44 166.361H995.322C987.843 166.361 981.827 160.286 981.827 152.802H968.331C968.331 167.717 980.472 179.866 995.376 179.866H1010.5C1025.4 179.866 1037.54 167.717 1037.54 152.802C1037.54 144.015 1033.21 135.717 1026 130.672V130.727Z" stroke="url(#paint9_linear_413_1027)" stroke-width="1.5" shape-rendering="crispEdges"/>
</g>
<defs>
<filter id="filter0_d_413_1027" x="0.701569" y="0.82428" width="1047.59" height="218.421" filterUnits="userSpaceOnUse" color-interpolation-filters="sRGB">
<feFlood flood-opacity="0" result="BackgroundImageFix"/>
<feColorMatrix in="SourceAlpha" type="matrix" values="0 0 0 0 0 0 0 0 0 0 0 0 0 0 0 0 0 0 127 0" result="hardAlpha"/>
<feOffset/>
<feGaussianBlur stdDeviation="5"/>
<feComposite in2="hardAlpha" operator="out"/>
<feColorMatrix type="matrix" values="0 0 0 0 0.858824 0 0 0 0 0.971765 0 0 0 0 1 0 0 0 0.25 0"/>
<feBlend mode="normal" in2="BackgroundImageFix" result="effect1_dropShadow_413_1027"/>
<feBlend mode="normal" in="SourceGraphic" in2="effect1_dropShadow_413_1027" result="shape"/>
</filter>
<linearGradient id="paint0_linear_413_1027" x1="1014.51" y1="151.911" x2="126.792" y2="-163.041" gradientUnits="userSpaceOnUse">
<stop offset="0.0208333" stop-color="#707F87"/>
<stop offset="0.360577" stop-color="#A9B4BA"/>
<stop offset="0.519231" stop-color="#E0E5E8"/>
<stop offset="1" stop-color="#707F87"/>
</linearGradient>
<linearGradient id="paint1_linear_413_1027" x1="1014.51" y1="151.911" x2="126.792" y2="-163.041" gradientUnits="userSpaceOnUse">
<stop offset="0.0208333" stop-color="#707F87"/>
<stop offset="0.360577" stop-color="#A9B4BA"/>
<stop offset="0.519231" stop-color="#E0E5E8"/>
<stop offset="1" stop-color="#707F87"/>
</linearGradient>
<linearGradient id="paint2_linear_413_1027" x1="1014.51" y1="151.911" x2="126.792" y2="-163.041" gradientUnits="userSpaceOnUse">
<stop offset="0.0208333" stop-color="#707F87"/>
<stop offset="0.360577" stop-color="#A9B4BA"/>
<stop offset="0.519231" stop-color="#E0E5E8"/>
<stop offset="1" stop-color="#707F87"/>
</linearGradient>
<linearGradient id="paint3_linear_413_1027" x1="1014.51" y1="151.911" x2="126.792" y2="-163.041" gradientUnits="userSpaceOnUse">
<stop offset="0.0208333" stop-color="#707F87"/>
<stop offset="0.360577" stop-color="#A9B4BA"/>
<stop offset="0.519231" stop-color="#E0E5E8"/>
<stop offset="1" stop-color="#707F87"/>
</linearGradient>
<linearGradient id="paint4_linear_413_1027" x1="1014.51" y1="151.911" x2="126.792" y2="-163.041" gradientUnits="userSpaceOnUse">
<stop offset="0.0208333" stop-color="#707F87"/>
<stop offset="0.360577" stop-color="#A9B4BA"/>
<stop offset="0.519231" stop-color="#E0E5E8"/>
<stop offset="1" stop-color="#707F87"/>
</linearGradient>
<linearGradient id="paint5_linear_413_1027" x1="1014.51" y1="151.911" x2="126.792" y2="-163.041" gradientUnits="userSpaceOnUse">
<stop offset="0.0208333" stop-color="#707F87"/>
<stop offset="0.360577" stop-color="#A9B4BA"/>
<stop offset="0.519231" stop-color="#E0E5E8"/>
<stop offset="1" stop-color="#707F87"/>
</linearGradient>
<linearGradient id="paint6_linear_413_1027" x1="1014.51" y1="151.911" x2="126.792" y2="-163.041" gradientUnits="userSpaceOnUse">
<stop offset="0.0208333" stop-color="#707F87"/>
<stop offset="0.360577" stop-color="#A9B4BA"/>
<stop offset="0.519231" stop-color="#E0E5E8"/>
<stop offset="1" stop-color="#707F87"/>
</linearGradient>
<linearGradient id="paint7_linear_413_1027" x1="1014.51" y1="151.911" x2="126.792" y2="-163.041" gradientUnits="userSpaceOnUse">
<stop offset="0.0208333" stop-color="#707F87"/>
<stop offset="0.360577" stop-color="#A9B4BA"/>
<stop offset="0.519231" stop-color="#E0E5E8"/>
<stop offset="1" stop-color="#707F87"/>
</linearGradient>
<linearGradient id="paint8_linear_413_1027" x1="1014.51" y1="151.911" x2="126.792" y2="-163.041" gradientUnits="userSpaceOnUse">
<stop offset="0.0208333" stop-color="#707F87"/>
<stop offset="0.360577" stop-color="#A9B4BA"/>
<stop offset="0.519231" stop-color="#E0E5E8"/>
<stop offset="1" stop-color="#707F87"/>
</linearGradient>
<linearGradient id="paint9_linear_413_1027" x1="1014.51" y1="151.911" x2="126.792" y2="-163.041" gradientUnits="userSpaceOnUse">
<stop offset="0.0208333" stop-color="#707F87"/>
<stop offset="0.360577" stop-color="#A9B4BA"/>
<stop offset="0.519231" stop-color="#E0E5E8"/>
<stop offset="1" stop-color="#707F87"/>
</linearGradient>
</defs>
</svg>
