<svg width="1049" height="219" viewBox="0 0 1049 219" fill="none" xmlns="http://www.w3.org/2000/svg">
<g filter="url(#filter0_d_413_1028)">
<path d="M73.6237 207.42H97.2542L124.733 159.799L152.211 207.42H175.896L124.733 118.795L73.6237 207.42Z" stroke="url(#paint0_linear_413_1028)" stroke-width="1.5" shape-rendering="crispEdges"/>
<path d="M241.314 11.9999L213.835 59.6209L186.356 11.9999H162.672L213.835 100.625L253.129 32.5019H291.068L213.835 166.416L124.733 11.9999L12 207.42H35.6848L124.733 53.0039L213.835 207.42L326.568 11.9999H241.314Z" stroke="url(#paint1_linear_413_1028)" stroke-width="1.5" shape-rendering="crispEdges"/>
<path d="M355.51 179.595H372.474L392.148 145.534L411.768 179.595H428.732L392.148 116.191L355.51 179.595Z" stroke="url(#paint2_linear_413_1028)" stroke-width="1.5" shape-rendering="crispEdges"/>
<path d="M311.446 179.595H328.411L392.148 69.1668L455.831 179.595H472.795L392.148 39.824L311.446 179.595Z" stroke="url(#paint3_linear_413_1028)" stroke-width="1.5" shape-rendering="crispEdges"/>
<path d="M940.094 141.303C940.094 154.971 928.983 166.09 915.325 166.09C901.667 166.09 890.557 154.971 890.557 141.303V84.9501H877.061V141.303C877.061 162.456 894.242 179.65 915.379 179.65C924.485 179.65 933.265 176.395 940.148 170.538V179.65H953.644V84.8958H940.148V141.249L940.094 141.303Z" stroke="url(#paint4_linear_413_1028)" stroke-width="1.5" shape-rendering="crispEdges"/>
<path d="M648.94 156.87L562.223 39.824H552.033V179.595H565.583V67.0515L648.94 179.595H662.435V39.824H648.94V156.87Z" stroke="url(#paint5_linear_413_1028)" stroke-width="1.5" shape-rendering="crispEdges"/>
<path d="M724.493 84.8958C698.423 84.8958 677.177 106.157 677.177 132.246C677.177 158.334 698.423 179.595 724.493 179.595C743.029 179.595 759.451 168.965 767.201 152.531H751.429C745.142 160.938 735.332 166.036 724.493 166.036C697.068 166.036 691.811 141.032 691.432 138.971H771.374C771.374 138.971 771.808 133.819 771.808 132.191C771.808 115.269 759.83 84.8416 724.493 84.8416V84.8958ZM691.432 125.52C694.575 109.9 708.396 98.4554 724.493 98.4554C740.59 98.4554 754.41 109.9 757.554 125.52H691.377H691.432Z" stroke="url(#paint6_linear_413_1028)" stroke-width="1.5" shape-rendering="crispEdges"/>
<path d="M527.752 102.957H471.494V116.462H527.752V102.957Z" stroke="url(#paint7_linear_413_1028)" stroke-width="1.5" shape-rendering="crispEdges"/>
<path d="M845.735 84.8958L820.857 120.476L795.98 84.8958H779.504L812.619 132.246L779.504 179.595H795.98L820.857 144.07L845.735 179.595H862.265L829.096 132.246L862.265 84.8958H845.735Z" stroke="url(#paint8_linear_413_1028)" stroke-width="1.5" shape-rendering="crispEdges"/>
<path d="M1026 130.402C1021.45 127.202 1016.08 125.466 1010.5 125.466H995.376C987.897 125.466 981.881 119.391 981.881 111.961C981.881 104.53 987.951 98.4554 995.376 98.4554H1010.5C1017.98 98.4554 1023.99 104.53 1023.99 111.961H1037.49C1037.49 97.0452 1025.35 84.8958 1010.44 84.8958H995.322C980.418 84.8958 968.277 97.0452 968.277 111.961C968.277 120.747 972.613 128.991 979.822 134.09C984.428 137.29 989.74 139.025 995.322 139.025H1010.44C1017.92 139.025 1023.94 145.1 1023.94 152.531C1023.94 159.961 1017.87 166.036 1010.44 166.036H995.322C987.843 166.036 981.827 159.961 981.827 152.476H968.331C968.331 167.392 980.472 179.541 995.376 179.541H1010.5C1025.4 179.541 1037.54 167.392 1037.54 152.476C1037.54 143.69 1033.21 135.391 1026 130.347V130.402Z" stroke="url(#paint9_linear_413_1028)" stroke-width="1.5" shape-rendering="crispEdges"/>
</g>
<defs>
<filter id="filter0_d_413_1028" x="0.701546" y="0.499146" width="1047.59" height="218.421" filterUnits="userSpaceOnUse" color-interpolation-filters="sRGB">
<feFlood flood-opacity="0" result="BackgroundImageFix"/>
<feColorMatrix in="SourceAlpha" type="matrix" values="0 0 0 0 0 0 0 0 0 0 0 0 0 0 0 0 0 0 127 0" result="hardAlpha"/>
<feOffset/>
<feGaussianBlur stdDeviation="5"/>
<feComposite in2="hardAlpha" operator="out"/>
<feColorMatrix type="matrix" values="0 0 0 0 0.858824 0 0 0 0 0.971765 0 0 0 0 1 0 0 0 0.25 0"/>
<feBlend mode="normal" in2="BackgroundImageFix" result="effect1_dropShadow_413_1028"/>
<feBlend mode="normal" in="SourceGraphic" in2="effect1_dropShadow_413_1028" result="shape"/>
</filter>
<linearGradient id="paint0_linear_413_1028" x1="1014.51" y1="151.585" x2="126.792" y2="-163.367" gradientUnits="userSpaceOnUse">
<stop offset="0.0208333" stop-color="#707F87"/>
<stop offset="0.360577" stop-color="#A9B4BA"/>
<stop offset="0.519231" stop-color="#E0E5E8"/>
<stop offset="1" stop-color="#707F87"/>
</linearGradient>
<linearGradient id="paint1_linear_413_1028" x1="1014.51" y1="151.585" x2="126.792" y2="-163.367" gradientUnits="userSpaceOnUse">
<stop offset="0.0208333" stop-color="#707F87"/>
<stop offset="0.360577" stop-color="#A9B4BA"/>
<stop offset="0.519231" stop-color="#E0E5E8"/>
<stop offset="1" stop-color="#707F87"/>
</linearGradient>
<linearGradient id="paint2_linear_413_1028" x1="1014.51" y1="151.585" x2="126.792" y2="-163.367" gradientUnits="userSpaceOnUse">
<stop offset="0.0208333" stop-color="#707F87"/>
<stop offset="0.360577" stop-color="#A9B4BA"/>
<stop offset="0.519231" stop-color="#E0E5E8"/>
<stop offset="1" stop-color="#707F87"/>
</linearGradient>
<linearGradient id="paint3_linear_413_1028" x1="1014.51" y1="151.585" x2="126.792" y2="-163.367" gradientUnits="userSpaceOnUse">
<stop offset="0.0208333" stop-color="#707F87"/>
<stop offset="0.360577" stop-color="#A9B4BA"/>
<stop offset="0.519231" stop-color="#E0E5E8"/>
<stop offset="1" stop-color="#707F87"/>
</linearGradient>
<linearGradient id="paint4_linear_413_1028" x1="1014.51" y1="151.585" x2="126.792" y2="-163.367" gradientUnits="userSpaceOnUse">
<stop offset="0.0208333" stop-color="#707F87"/>
<stop offset="0.360577" stop-color="#A9B4BA"/>
<stop offset="0.519231" stop-color="#E0E5E8"/>
<stop offset="1" stop-color="#707F87"/>
</linearGradient>
<linearGradient id="paint5_linear_413_1028" x1="1014.51" y1="151.585" x2="126.792" y2="-163.367" gradientUnits="userSpaceOnUse">
<stop offset="0.0208333" stop-color="#707F87"/>
<stop offset="0.360577" stop-color="#A9B4BA"/>
<stop offset="0.519231" stop-color="#E0E5E8"/>
<stop offset="1" stop-color="#707F87"/>
</linearGradient>
<linearGradient id="paint6_linear_413_1028" x1="1014.51" y1="151.585" x2="126.792" y2="-163.367" gradientUnits="userSpaceOnUse">
<stop offset="0.0208333" stop-color="#707F87"/>
<stop offset="0.360577" stop-color="#A9B4BA"/>
<stop offset="0.519231" stop-color="#E0E5E8"/>
<stop offset="1" stop-color="#707F87"/>
</linearGradient>
<linearGradient id="paint7_linear_413_1028" x1="1014.51" y1="151.585" x2="126.792" y2="-163.367" gradientUnits="userSpaceOnUse">
<stop offset="0.0208333" stop-color="#707F87"/>
<stop offset="0.360577" stop-color="#A9B4BA"/>
<stop offset="0.519231" stop-color="#E0E5E8"/>
<stop offset="1" stop-color="#707F87"/>
</linearGradient>
<linearGradient id="paint8_linear_413_1028" x1="1014.51" y1="151.585" x2="126.792" y2="-163.367" gradientUnits="userSpaceOnUse">
<stop offset="0.0208333" stop-color="#707F87"/>
<stop offset="0.360577" stop-color="#A9B4BA"/>
<stop offset="0.519231" stop-color="#E0E5E8"/>
<stop offset="1" stop-color="#707F87"/>
</linearGradient>
<linearGradient id="paint9_linear_413_1028" x1="1014.51" y1="151.585" x2="126.792" y2="-163.367" gradientUnits="userSpaceOnUse">
<stop offset="0.0208333" stop-color="#707F87"/>
<stop offset="0.360577" stop-color="#A9B4BA"/>
<stop offset="0.519231" stop-color="#E0E5E8"/>
<stop offset="1" stop-color="#707F87"/>
</linearGradient>
</defs>
</svg>
