<svg width="183" height="122" viewBox="0 0 183 122" fill="none" xmlns="http://www.w3.org/2000/svg">
<path d="M119.482 16.2292C117.686 15.433 115.924 14.8157 114.2 14.3729C112.728 11.9451 110.796 9.60892 108.35 7.39924C96.9933 -2.84206 83.9557 -2.40797 73.6278 9.1203C72.3099 10.5883 71.1812 12.0716 70.233 13.5746C67.4798 14.2355 64.6635 15.3501 61.8103 17.0058C48.5922 24.6753 44.9734 37.2353 52.709 50.6548C53.6941 52.3671 54.7576 53.8962 55.895 55.2727C55.6601 58.1062 55.8493 61.1404 56.5365 64.3731C59.7225 79.3501 70.5201 86.6859 85.6346 83.4531C87.5571 83.0365 89.3447 82.4934 90.9975 81.8411C93.6072 82.9362 96.5496 83.6887 99.8183 84.0334C115.005 85.6279 125.295 77.5941 126.903 62.1744C127.109 60.209 127.146 58.344 127.029 56.5596C128.879 54.4045 130.504 51.8414 131.841 48.8181C138.044 34.8272 133.612 22.5311 119.482 16.227V16.2292ZM94.4923 52.7947C93.7159 54.6772 92.6329 56.2804 91.2519 57.6023C89.8623 58.9242 88.2182 59.9385 86.3131 60.654C84.408 61.3607 82.3311 61.7141 80.0738 61.7141C77.8164 61.7141 75.7395 61.3607 73.8344 60.654C71.9293 59.9385 70.2874 58.9242 68.8956 57.6023C67.5146 56.2804 66.4316 54.6772 65.6552 52.7947C64.8788 50.9209 64.5004 48.8203 64.5004 46.5016C64.5004 44.1828 64.8788 42.0822 65.6552 40.1997C66.4316 38.3173 67.5146 36.714 68.8956 35.3921C70.2852 34.0702 71.9293 33.0559 73.8344 32.3492C75.7395 31.6424 77.8164 31.2803 80.0738 31.2803C82.3311 31.2803 84.408 31.6424 86.3131 32.3492C88.2182 33.0559 89.8601 34.0702 91.2519 35.3921C92.6329 36.714 93.7159 38.3173 94.4923 40.1997C95.2687 42.0822 95.6471 44.185 95.6471 46.5016C95.6471 48.8181 95.2687 50.9209 94.4923 52.7947ZM118.769 37.9072H105.768V43.8033H117.795V49.6885H105.768V60.9812H99.4029V32.022H118.769V37.9072ZM86.6023 39.8093C85.8086 38.976 84.8691 38.3325 83.7665 37.8723C82.6661 37.4011 81.4373 37.1743 80.0738 37.1743C78.7102 37.1743 77.4836 37.4011 76.381 37.8723C75.2806 38.3347 74.3411 38.976 73.5452 39.8093C72.7601 40.6426 72.1555 41.6285 71.7314 42.7802C71.3161 43.9211 71.0986 45.1622 71.0986 46.5016C71.0986 47.8409 71.3161 49.1104 71.7314 50.2425C72.1555 51.3746 72.7601 52.3519 73.5452 53.1851C74.339 54.0184 75.2785 54.6706 76.381 55.1331C77.4815 55.5955 78.7102 55.8311 80.0738 55.8311C81.4373 55.8311 82.6639 55.5955 83.7665 55.1331C84.8669 54.6706 85.8064 54.0184 86.6023 53.1851C87.3874 52.3519 87.992 51.3746 88.4161 50.2425C88.8315 49.1104 89.0489 47.8605 89.0489 46.5016C89.0489 45.1426 88.8315 43.9211 88.4161 42.7802C87.992 41.6307 87.3874 40.6426 86.6023 39.8093Z" fill="url(#paint0_linear_41_70)"/>
<path d="M0.499878 108.916C0.499878 107.064 0.808692 105.384 1.42849 103.881C2.0483 102.378 2.91167 101.098 4.01861 100.04C5.12773 98.9841 6.44128 98.1705 7.9636 97.6033C9.48375 97.0362 11.1474 96.7526 12.9503 96.7526C14.7532 96.7526 16.4168 97.0362 17.937 97.6033C19.4571 98.1705 20.7728 98.9819 21.882 100.04C22.9911 101.096 23.8545 102.376 24.4721 103.881C25.0919 105.384 25.4007 107.064 25.4007 108.916C25.4007 110.768 25.0919 112.447 24.4721 113.95C23.8523 115.453 22.9889 116.734 21.882 117.791C20.7728 118.847 19.4593 119.661 17.937 120.226C16.4168 120.793 14.7532 121.077 12.9503 121.077C11.1474 121.077 9.48375 120.793 7.9636 120.226C6.44128 119.659 5.12773 118.847 4.01861 117.791C2.91167 116.734 2.04612 115.453 1.42849 113.95C0.808692 112.447 0.499878 110.768 0.499878 108.916ZM5.78016 108.916C5.78016 110.006 5.94761 111.003 6.2847 111.906C6.62178 112.811 7.10458 113.595 7.73525 114.26C8.36593 114.925 9.12056 115.442 10.0013 115.813C10.8821 116.184 11.8629 116.369 12.9503 116.369C14.0377 116.369 15.0206 116.186 15.8992 115.813C16.78 115.442 17.5347 114.925 18.1653 114.26C18.796 113.595 19.2788 112.811 19.6159 111.906C19.953 111.001 20.1204 110.004 20.1204 108.916C20.1204 107.827 19.9508 106.856 19.6159 105.94C19.2788 105.024 18.796 104.235 18.1653 103.569C17.5347 102.906 16.78 102.387 15.8992 102.016C15.0185 101.645 14.0355 101.46 12.9503 101.46C11.8651 101.46 10.8799 101.645 10.0013 102.016C9.12056 102.387 8.36593 102.904 7.73525 103.569C7.10458 104.235 6.62178 105.024 6.2847 105.94C5.94761 106.856 5.78016 107.847 5.78016 108.916ZM28.6933 97.3416H37.2639C38.46 97.3416 39.5887 97.4506 40.6544 97.6688C41.72 97.8869 42.6486 98.2643 43.4402 98.7965C44.234 99.3309 44.8625 100.051 45.3301 100.954C45.7976 101.859 46.0303 102.998 46.0303 104.37C46.0303 105.742 45.8129 106.854 45.3779 107.77C44.943 108.687 44.3449 109.415 43.5859 109.961C42.8247 110.506 41.9244 110.892 40.8805 111.121C39.8367 111.35 38.708 111.463 37.4901 111.463H33.7735V120.488H28.6889V97.3416H28.6933ZM33.7778 107.151H37.1682C37.6249 107.151 38.0642 107.107 38.4883 107.02C38.9124 106.933 39.293 106.787 39.6301 106.579C39.9671 106.372 40.239 106.089 40.4456 105.729C40.6522 105.369 40.7544 104.917 40.7544 104.372C40.7544 103.783 40.6196 103.31 40.3477 102.95C40.0759 102.59 39.7279 102.313 39.3038 102.116C38.8798 101.92 38.4078 101.796 37.8859 101.741C37.364 101.687 36.8638 101.658 36.3875 101.658H33.78V107.151H33.7778ZM49.2598 97.3416H64.9375V102.049H54.3444V106.364H64.3504V111.071H54.3444V115.778H65.5247V120.485H49.2598V97.3394V97.3416ZM69.4349 97.3416H76.3441L86.1544 113.427H86.2196V97.3416H91.3042V120.488H84.656L74.5847 104.01H74.5195V120.488H69.4349V97.3416ZM105.516 97.3416H120.998V102.049H110.601V106.756H120.215V111.463H110.601V120.488H105.516V97.3416ZM130.123 97.3416H134.327L144.366 120.488H138.629L136.641 115.584H127.677L125.754 120.488H120.148L130.121 97.3416H130.123ZM132.078 104.077L129.275 111.269H134.914L132.078 104.077ZM140.977 97.3416H146.78L152.484 112.51H152.549L158.352 97.3416H163.795L154.278 120.488H150.205L140.982 97.3416H140.977ZM166.237 97.3416H181.915V102.049H171.322V106.364H181.328V111.071H171.322V115.778H182.502V120.485H166.237V97.3394V97.3416Z" fill="url(#paint1_linear_41_70)"/>
<defs>
<linearGradient id="paint0_linear_41_70" x1="61.5254" y1="76.2133" x2="122.089" y2="15.834" gradientUnits="userSpaceOnUse">
<stop stop-color="#FFB2B8"/>
<stop offset="0.14" stop-color="#FF7DB8"/>
<stop offset="0.18" stop-color="#FA75BC"/>
<stop offset="0.24" stop-color="#ED62C7"/>
<stop offset="0.31" stop-color="#D842D9"/>
<stop offset="0.38" stop-color="#BB15F2"/>
<stop offset="0.42" stop-color="#AD00FF"/>
<stop offset="0.51" stop-color="#A711FE"/>
<stop offset="0.59" stop-color="#A41BFE"/>
<stop offset="0.62" stop-color="#9A35FC"/>
<stop offset="0.68" stop-color="#8C5DFB"/>
<stop offset="0.74" stop-color="#817EF9"/>
<stop offset="0.8" stop-color="#7897F8"/>
<stop offset="0.86" stop-color="#71A9F7"/>
<stop offset="0.93" stop-color="#6EB4F7"/>
<stop offset="1" stop-color="#6DB8F7"/>
</linearGradient>
<linearGradient id="paint1_linear_41_70" x1="0.499878" y1="108.916" x2="182.5" y2="108.916" gradientUnits="userSpaceOnUse">
<stop stop-color="#FFB2B8"/>
<stop offset="0.14" stop-color="#FF7DB8"/>
<stop offset="0.18" stop-color="#FA75BC"/>
<stop offset="0.24" stop-color="#ED62C7"/>
<stop offset="0.31" stop-color="#D842D9"/>
<stop offset="0.38" stop-color="#BB15F2"/>
<stop offset="0.42" stop-color="#AD00FF"/>
<stop offset="0.51" stop-color="#A711FE"/>
<stop offset="0.59" stop-color="#A41BFE"/>
<stop offset="0.62" stop-color="#9A35FC"/>
<stop offset="0.68" stop-color="#8C5DFB"/>
<stop offset="0.74" stop-color="#817EF9"/>
<stop offset="0.8" stop-color="#7897F8"/>
<stop offset="0.86" stop-color="#71A9F7"/>
<stop offset="0.93" stop-color="#6EB4F7"/>
<stop offset="1" stop-color="#6DB8F7"/>
</linearGradient>
</defs>
</svg>
