<svg width="1070" height="644" viewBox="0 0 1070 644" fill="none" xmlns="http://www.w3.org/2000/svg">
<g opacity="0.9">
<path d="M101.737 220.26L101.685 219.818H101.24H59.5318H59.0868L59.0352 220.26L53.7774 265.317H0.577928L38.3507 5.43326H122.421L160.194 265.317H106.995L101.737 220.26ZM94.4119 172.267H94.9783L94.908 171.705L80.875 59.4698H79.8827L65.8497 171.705L65.7794 172.267H66.3458H94.4119Z" stroke="#EA4335"/>
<path d="M349.329 135.368V5.43326H401.409V265.317H348.427L306.83 135.23L305.854 135.383V265.317H253.774V5.43326H306.756L348.353 135.52L349.329 135.368Z" stroke="#EA4335"/>
<path d="M475.474 213.209H568.257V265.288H421.375V5.43326H568.257V57.5128H475.474H474.974V58.0128V108.821V109.321H475.474H556.871V161.401H475.474H474.974V161.901V212.709V213.209H475.474Z" stroke="#EA4335"/>
<path d="M637.727 265.317H582.299L621.925 132.473L621.968 132.328L621.924 132.183L583.076 5.43326H638.514L660.778 84.695L661.259 86.4088L661.741 84.695L684.004 5.43326H739.443L700.58 132.198L700.536 132.342L700.579 132.487L740.2 265.317H684.762L661.728 178.482L661.245 176.66L660.762 178.482L637.727 265.317Z" stroke="#EA4335"/>
<path d="M807.874 5.43326V190.733C807.874 196.241 808.345 203.074 811.104 208.543C812.488 211.288 814.453 213.699 817.229 215.421C820.006 217.143 823.561 218.157 828.093 218.157C832.625 218.157 836.181 217.143 838.957 215.421C841.733 213.699 843.698 211.288 845.083 208.543C847.841 203.074 848.312 196.241 848.312 190.733V5.43326H901.158V193.771C901.158 217.954 894.643 237.06 882.29 250.119C869.942 263.173 851.696 270.251 828.093 270.251C804.49 270.251 786.244 263.173 773.896 250.119C761.543 237.06 755.028 217.954 755.028 193.771V5.43326H807.874Z" stroke="#EA4335"/>
<path d="M972.451 193.257H972.437V193.757C972.437 200.841 974.064 207.222 977.713 211.843C981.376 216.483 987.028 219.285 994.927 219.285C1002.81 219.285 1008.45 216.782 1012.12 212.626C1015.78 208.479 1017.42 202.755 1017.42 196.419V196.382C1017.42 191.09 1017.42 185.566 1013.93 179.852C1010.44 174.134 1003.51 168.297 989.821 162.21L989.819 162.21C967.075 152.165 949.914 142.722 938.428 129.587C926.964 116.477 921.11 99.6356 921.11 74.6933C921.11 49.7648 928.47 31.2362 941.334 18.9371C954.201 6.63415 972.642 0.5 994.927 0.5C1017.2 0.5 1035.64 7.1989 1048.51 20.0721C1061.38 32.9446 1068.74 52.0499 1068.74 76.9791V91.2644H1017.42V76.9791C1017.42 70.4902 1016.27 64.0182 1012.87 59.1565C1009.44 54.2625 1003.78 51.075 994.927 51.075C986.087 51.075 980.428 54.0609 976.997 58.569C973.585 63.052 972.437 68.9616 972.437 74.7078C972.437 80.4669 973.304 85.6239 977.818 90.9589C982.301 96.2584 990.349 101.695 1004.59 108.148L1004.59 108.148C1022.6 116.299 1038.62 124.701 1050.16 137.837C1061.68 150.953 1068.76 168.839 1068.76 196.043C1068.76 218.727 1063.65 237.257 1051.92 250.114C1040.2 262.963 1021.78 270.236 994.941 270.236C968.099 270.236 949.68 263.339 937.961 250.4C926.232 237.45 921.124 218.353 921.124 193.757V172.643H972.451V193.257Z" stroke="#F34927"/>
<path d="M101.737 406.885L101.685 406.443H101.24H59.5318H59.0868L59.0352 406.885L53.7774 451.942H0.577928L38.3507 192.058H122.421L160.194 451.942H106.995L101.737 406.885ZM94.4119 358.892H94.9783L94.908 358.33L80.875 246.095H79.8827L65.8497 358.33L65.7794 358.892H66.3458H94.4119Z" stroke="#EABA35"/>
<path d="M349.329 321.993V192.058H401.409V451.942H348.427L306.83 321.855L305.854 322.007V451.942H253.774V192.058H306.756L348.353 322.145L349.329 321.993Z" stroke="#EABA35"/>
<path d="M475.474 399.834H568.257V451.913H421.375V192.058H568.257V244.138H475.474H474.974V244.638V295.446V295.946H475.474H556.871V348.025H475.474H474.974V348.525V399.334V399.834H475.474Z" stroke="#EABA35"/>
<path d="M637.727 451.942H582.299L621.925 319.098L621.968 318.953L621.924 318.808L583.076 192.058H638.514L660.778 271.32L661.259 273.034L661.741 271.32L684.004 192.058H739.443L700.58 318.823L700.536 318.967L700.579 319.112L740.2 451.942H684.762L661.728 365.107L661.245 363.285L660.762 365.107L637.727 451.942Z" stroke="#FFC937"/>
<path d="M807.874 192.058V377.358C807.874 382.866 808.345 389.699 811.104 395.168C812.488 397.912 814.453 400.323 817.229 402.046C820.006 403.768 823.561 404.781 828.093 404.781C832.625 404.781 836.181 403.768 838.957 402.046C841.733 400.323 843.698 397.912 845.083 395.168C847.841 389.699 848.312 382.866 848.312 377.358V192.058H901.158V380.396C901.158 404.578 894.643 423.685 882.29 436.743C869.942 449.798 851.696 456.875 828.093 456.875C804.49 456.875 786.244 449.798 773.896 436.743C761.543 423.685 755.028 404.578 755.028 380.396V192.058H807.874Z" stroke="#EABA35"/>
<path d="M972.451 379.882H972.437V380.382C972.437 387.465 974.064 393.847 977.713 398.468C981.376 403.108 987.028 405.91 994.927 405.91C1002.81 405.91 1008.45 403.407 1012.12 399.25C1015.78 395.104 1017.42 389.38 1017.42 383.044V383.006C1017.42 377.715 1017.42 372.19 1013.93 366.477C1010.44 360.759 1003.51 354.922 989.821 348.835L989.819 348.835C967.075 338.789 949.914 329.346 938.428 316.211C926.964 303.101 921.11 286.26 921.11 261.318C921.11 236.39 928.47 217.861 941.334 205.562C954.201 193.259 972.642 187.125 994.927 187.125C1017.2 187.125 1035.64 193.824 1048.51 206.697C1061.38 219.569 1068.74 238.675 1068.74 263.604V277.889H1017.42V263.604C1017.42 257.115 1016.27 250.643 1012.87 245.781C1009.44 240.887 1003.78 237.7 994.927 237.7C986.087 237.7 980.428 240.686 976.997 245.194C973.585 249.677 972.437 255.586 972.437 261.332C972.437 267.092 973.304 272.249 977.818 277.584C982.301 282.883 990.349 288.32 1004.59 294.773L1004.59 294.773C1022.6 302.924 1038.62 311.325 1050.16 324.462C1061.68 337.578 1068.76 355.464 1068.76 382.667C1068.76 405.352 1063.65 423.882 1051.92 436.739C1040.2 449.588 1021.78 456.861 994.941 456.861C968.099 456.861 949.68 449.964 937.961 437.024C926.232 424.075 921.124 404.978 921.124 380.382V359.268H972.451V379.882Z" stroke="#EABA35"/>
<path d="M101.737 593.51L101.685 593.068H101.24H59.5318H59.0868L59.0352 593.51L53.7774 638.567H0.577928L38.3507 378.683H122.421L160.194 638.567H106.995L101.737 593.51ZM94.4119 545.517H94.9783L94.908 544.955L80.875 432.719H79.8827L65.8497 544.955L65.7794 545.517H66.3458H94.4119Z" stroke="#EA35CC"/>
<path d="M349.329 508.618V378.683H401.409V638.567H348.427L306.83 508.48L305.854 508.632V638.567H253.774V378.683H306.756L348.353 508.77L349.329 508.618Z" stroke="#EA35CC"/>
<path d="M475.474 586.458H568.257V638.538H421.375V378.683H568.257V430.762H475.474H474.974V431.262V482.071V482.571H475.474H556.871V534.65H475.474H474.974V535.15V585.958V586.458H475.474Z" stroke="#EA35CC"/>
<path d="M637.727 638.567H582.299L621.925 505.722L621.968 505.578L621.924 505.433L583.076 378.683H638.514L660.778 457.945L661.259 459.658L661.741 457.945L684.004 378.683H739.443L700.58 505.447L700.536 505.592L700.579 505.737L740.2 638.567H684.762L661.728 551.731L661.245 549.909L660.762 551.731L637.727 638.567Z" stroke="#EA35CC"/>
<path d="M807.874 378.683V563.983C807.874 569.49 808.345 576.324 811.104 581.793C812.488 584.537 814.453 586.948 817.229 588.67C820.006 590.393 823.561 591.406 828.093 591.406C832.625 591.406 836.181 590.393 838.957 588.67C841.733 586.948 843.698 584.537 845.083 581.793C847.841 576.324 848.312 569.49 848.312 563.983V378.683H901.158V567.021C901.158 591.203 894.643 610.31 882.29 623.368C869.942 636.423 851.696 643.5 828.093 643.5C804.49 643.5 786.244 636.423 773.896 623.368C761.543 610.31 755.028 591.203 755.028 567.021V378.683H807.874Z" stroke="#EA35CC"/>
<path d="M972.451 566.506H972.437V567.006C972.437 574.09 974.064 580.472 977.713 585.093C981.376 589.732 987.028 592.534 994.927 592.534C1002.81 592.534 1008.45 590.032 1012.12 585.875C1015.78 581.729 1017.42 576.005 1017.42 569.668V569.631C1017.42 564.34 1017.42 558.815 1013.93 553.102C1010.44 547.383 1003.51 541.547 989.821 535.46L989.819 535.459C967.075 525.414 949.914 515.971 938.428 502.836C926.964 489.726 921.11 472.885 921.11 447.943C921.11 423.014 928.47 404.486 941.334 392.187C954.201 379.884 972.642 373.749 994.927 373.749C1017.2 373.749 1035.64 380.448 1048.51 393.322C1061.38 406.194 1068.74 425.299 1068.74 450.229V464.514H1017.42V450.229C1017.42 443.74 1016.27 437.268 1012.87 432.406C1009.44 427.512 1003.78 424.324 994.927 424.324C986.087 424.324 980.428 427.31 976.997 431.818C973.585 436.301 972.437 442.211 972.437 447.957C972.437 453.716 973.304 458.873 977.818 464.208C982.301 469.508 990.349 474.945 1004.59 481.397L1004.59 481.398C1022.6 489.549 1038.62 497.95 1050.16 511.087C1061.68 524.202 1068.76 542.088 1068.76 569.292C1068.76 591.977 1063.65 610.506 1051.92 623.364C1040.2 636.213 1021.78 643.486 994.941 643.486C968.099 643.486 949.68 636.589 937.961 623.649C926.232 610.7 921.124 591.602 921.124 567.006V545.893H972.451V566.506Z" stroke="#EA35CC"/>
</g>
</svg>
