<svg viewBox="0 0 205.47 23.47" xmlns="http://www.w3.org/2000/svg"><path d="M19.09,9.57c-1.72-2.34-4.67-3.12-7.8-2.05A16.31,16.31,0,0,0,6.64,10.1l.08-.45c.37-.58.67-1,1-1.4s.35-.77,0-1c-.16-.13-.32-.26-.5-.38.1-.55.23-1,.33-1.42s.25-.92.4-1.52a1,1,0,0,0-.15-1.11,4.85,4.85,0,0,0-1.1-.92,1.12,1.12,0,0,0-1.08-.08,9.48,9.48,0,0,0-1,.48.3.3,0,0,0,.1.33.79.79,0,0,1,.82.32A1.69,1.69,0,0,1,5.84,4,17,17,0,0,1,5.77,6.7,10.12,10.12,0,0,1,2.59,8a2.8,2.8,0,0,1-1,0,1.66,1.66,0,0,1-.9-.48.32.32,0,0,0-.32.2,4.34,4.34,0,0,0,.45,1,3.54,3.54,0,0,0,1.5,1.23.81.81,0,0,0,.9-.15c.3-.25.4-.35.7-.58A18,18,0,0,1,5.64,8c0,.6-.12,1.2-.2,1.8a24.71,24.71,0,0,1-4.57,6c-.5.47-.73.57-.83,1s.13.8.48,1.18a.74.74,0,0,0,1,.21.76.76,0,0,0,.23-.24,12.6,12.6,0,0,0,.75-1.15,15.73,15.73,0,0,1,1.8,3.42c.1.33.2.7.27.93.23.77.93.72,1.45.25a2.62,2.62,0,0,0,.53-.88,4.07,4.07,0,0,0,.07-1.35,43.25,43.25,0,0,1-.15-7.55,13,13,0,0,1,5-3.3c2.52-.87,5.25-.07,6.15,2.28a6.85,6.85,0,0,1-1.83,7,10.27,10.27,0,0,1-5.55,2.7.36.36,0,0,0,0,.4,12.56,12.56,0,0,0,7.1-2.27C20.37,16.12,20.94,12,19.09,9.57Zm-15.85,6A24.87,24.87,0,0,1,5,13.18l0,.65c-.07,1.37-.1,3.27-.15,3.75s-.35.55-.62.35a21.12,21.12,0,0,1-1.45-1.55Zm33.95-9a.77.77,0,0,0,.3-1c-.22-.48-.57-.55-1.1-.48a3,3,0,0,0-1,.33,13.1,13.1,0,0,1-1.85.77l.33-1c.2-.58.3-.8.47-1.23a.7.7,0,0,0-.15-.92,4.4,4.4,0,0,0-1.25-.83,1.69,1.69,0,0,0-1.15-.12,7.41,7.41,0,0,0-.8.25.34.34,0,0,0,.05.35,1,1,0,0,1,.85.65,3.21,3.21,0,0,1,.18,1.37,12,12,0,0,1-.23,1.9,11,11,0,0,1-2.62.2,3.1,3.1,0,0,1-2-.8.33.33,0,0,0-.3.18,4.34,4.34,0,0,0,.45,1,4,4,0,0,0,1.17,1.12,1.84,1.84,0,0,0,1.25.25c.58-.05,1.2-.15,1.75-.22a34.66,34.66,0,0,1-2.6,7.45c-.35.67-.65,1.15-.85,1.55a6.3,6.3,0,0,0-.65,1.45,8.18,8.18,0,0,0-.3,1.37.81.81,0,0,0,.62,1h0c.6.17,1.15-.08,1.68-1.28.82-1.92,2.77-8.5,3.65-11.82A14,14,0,0,0,37.19,6.62Zm8,2.45A3.68,3.68,0,0,0,44,8a2.62,2.62,0,0,0-1.33-.4,11.57,11.57,0,0,0-2.62.3,16.79,16.79,0,0,0-2.28.83.45.45,0,0,0,.1.35,9.87,9.87,0,0,1,4,0c.35.13.45.28.1.68a12.46,12.46,0,0,1-1.57,1.32.49.49,0,0,0,.17.33,23.38,23.38,0,0,1,2.8-.9,10.13,10.13,0,0,1,1.08-.18.84.84,0,0,0,.7-.55A.76.76,0,0,0,45.17,9.07Zm-.65,10.55a2.43,2.43,0,0,0-.85-.35,2.55,2.55,0,0,0-1,0,7.37,7.37,0,0,1-5-.15,2,2,0,0,1-1.22-2,3.47,3.47,0,0,1,.37-1.55.34.34,0,0,0-.32-.15,7.94,7.94,0,0,0-1,1.6,2.48,2.48,0,0,0-.12,1.5,3.5,3.5,0,0,0,1.92,2.35,10.28,10.28,0,0,0,5.38.55c1.15-.17,1.77-.4,2.07-.85A.76.76,0,0,0,44.52,19.62Zm26.35-3.57a12.28,12.28,0,0,1-3.15,2.73,11.53,11.53,0,0,1-5.78,1.62,3.22,3.22,0,0,1-2.25-.7c-.7-.6-1-1.35-1-2.85a65.78,65.78,0,0,1,1-9.5A26,26,0,0,0,60,4.58a1.7,1.7,0,0,0-.4-1.25,5.15,5.15,0,0,0-1.57-1,2.46,2.46,0,0,0-1.2-.18c-.2,0-.43,0-.68.1a.55.55,0,0,0,0,.4,1.89,1.89,0,0,1,1.3,1.55,16.38,16.38,0,0,1,.08,3.5c-.08,1.9-.53,6.78-.53,8.63,0,2.12.33,3.45,1.3,4.5a5,5,0,0,0,3.85,1.52,9.11,9.11,0,0,0,6.73-2.85,14,14,0,0,0,2.27-3.28C71.17,16.12,71,16.07,70.87,16.05ZM89.69,6.62a.77.77,0,0,0,.3-1c-.22-.48-.57-.55-1.1-.48a3,3,0,0,0-1,.33A13.1,13.1,0,0,1,86,6.27l.33-1c.2-.58.3-.8.47-1.23a.7.7,0,0,0-.15-.92,4.4,4.4,0,0,0-1.25-.83,1.69,1.69,0,0,0-1.15-.12,7.41,7.41,0,0,0-.8.25.34.34,0,0,0,.05.35,1,1,0,0,1,.85.65,3.21,3.21,0,0,1,.18,1.37,12,12,0,0,1-.23,1.9,11,11,0,0,1-2.62.2,3.1,3.1,0,0,1-2-.8.33.33,0,0,0-.3.18,4.34,4.34,0,0,0,.45,1A4,4,0,0,0,81,8.32a1.84,1.84,0,0,0,1.25.25c.58-.05,1.2-.15,1.75-.22a34.66,34.66,0,0,1-2.6,7.45c-.35.67-.65,1.15-.85,1.55a6.3,6.3,0,0,0-.65,1.45,8.18,8.18,0,0,0-.3,1.37.81.81,0,0,0,.62,1h0c.6.17,1.15-.08,1.68-1.28.82-1.92,2.77-8.5,3.65-11.82A14,14,0,0,0,89.69,6.62Zm8,2.45A3.68,3.68,0,0,0,96.52,8a2.62,2.62,0,0,0-1.33-.4,11.57,11.57,0,0,0-2.62.3,16.79,16.79,0,0,0-2.28.83.45.45,0,0,0,.1.35,9.87,9.87,0,0,1,4,0c.35.13.45.28.1.68A12.46,12.46,0,0,1,93,11.1a.49.49,0,0,0,.17.33,23.38,23.38,0,0,1,2.8-.9A10.13,10.13,0,0,1,97,10.35a.84.84,0,0,0,.7-.55A.76.76,0,0,0,97.67,9.07ZM97,19.62a2.43,2.43,0,0,0-.85-.35,2.55,2.55,0,0,0-1,0,7.37,7.37,0,0,1-5-.15,2,2,0,0,1-1.22-2,3.47,3.47,0,0,1,.37-1.55.34.34,0,0,0-.32-.15,7.94,7.94,0,0,0-1,1.6,2.48,2.48,0,0,0-.12,1.5,3.5,3.5,0,0,0,1.92,2.35,10.28,10.28,0,0,0,5.38.55c1.15-.17,1.77-.4,2.07-.85A.76.76,0,0,0,97,19.62ZM122,14a5,5,0,0,0-3.77-1.6,10.73,10.73,0,0,0-6.7,2.72c-.23.18-.38.15-.4-.22a43.83,43.83,0,0,1,1.2-7,28.52,28.52,0,0,0,5.92-1.81.78.78,0,0,0,.33-.8.59.59,0,0,0-.53-.57,3.36,3.36,0,0,0-1,0,4,4,0,0,0-1.22.43,12.31,12.31,0,0,1-3.1,1.15,8.86,8.86,0,0,1,.5-1.42,3.56,3.56,0,0,0,.4-1.23.9.9,0,0,0-.33-.7,4.33,4.33,0,0,0-1.27-.8,1.59,1.59,0,0,0-1.35,0,3.6,3.6,0,0,0-.7.37.33.33,0,0,0,.12.36.76.76,0,0,1,.65.32,2.22,2.22,0,0,1,.43,1.45A14.19,14.19,0,0,1,111,6.6a8.38,8.38,0,0,1-2.5,0,3,3,0,0,1-1.72-1,.35.35,0,0,0-.33.15,3.56,3.56,0,0,0,.33,1A3.68,3.68,0,0,0,108.14,8a2.08,2.08,0,0,0,1.35.3,11.79,11.79,0,0,0,1.33-.17c-.33,1.85-.93,4.5-1.2,5.9a14.38,14.38,0,0,0-.25,1.6,2.81,2.81,0,0,0,.22,1.62,1.94,1.94,0,0,0,.7.8.91.91,0,0,0,1.29-.15.54.54,0,0,0,.09-.12c.35-.58.55-.95.9-1.48A6.73,6.73,0,0,1,117,13.4a3.72,3.72,0,0,1,3.5,1,3.33,3.33,0,0,1,.3,3.15,5.36,5.36,0,0,1-2.68,2.9A13.5,13.5,0,0,1,113,21.8a.5.5,0,0,0,0,.38,13.07,13.07,0,0,0,6.05-.56,6.09,6.09,0,0,0,3.6-3.22A4.17,4.17,0,0,0,122,14Zm27.2-7c-1.72-2-4.55-3.4-8.65-2.9a10.48,10.48,0,0,0-8,5.15,6.48,6.48,0,0,0-.5,5.25c.4,1.05,1,2.3,1.3,2.9a13.56,13.56,0,0,0,.73,1.6,1.53,1.53,0,0,0,1.67.58,3.78,3.78,0,0,0,2.4-1.58,28.8,28.8,0,0,0,2.35-4.38,30.85,30.85,0,0,0,1.38-3.77A4.63,4.63,0,0,0,142,7a4.51,4.51,0,0,0-.65-1.25,4.13,4.13,0,0,0-.9-.87c.13,0,.25,0,.38,0a6.76,6.76,0,0,1,7.9,5.39,6.2,6.2,0,0,1,.12,1.36c.1,5.15-2.9,8.22-6.8,9a.4.4,0,0,0,.08.4,9.16,9.16,0,0,0,7.47-3.65A8.53,8.53,0,0,0,149.24,7Zm-9,1.65a15,15,0,0,1-1.12,4.17c-.83,1.88-1.85,3.68-2.8,4.23a1.2,1.2,0,0,1-1.35-.17,5.06,5.06,0,0,1-1.53-3,7.57,7.57,0,0,1,.45-3.53,9,9,0,0,1,1.68-2.75,9.1,9.1,0,0,1,4.15-2.55A5.61,5.61,0,0,1,140.24,8.65Zm35.4-.23h-3.8V2.92c1.68-.27,3.23-.57,4.5-.85a2.51,2.51,0,0,0,.85.2.84.84,0,0,0,.55-.17L175.52,0a61.88,61.88,0,0,1-12.38,3.4l.1.42c2.13-.1,4.38-.32,6.53-.6v5.2h-7.23l.15.58h7.08v5.15h-3.13l-2.12-.9V23.4c1.67,0,2-.67,2-.7V21.57h8.58v1.65c1.5,0,2-.57,2-.65V15.25a2,2,0,0,0,1.08-.5L175.72,13l-.9,1.15h-3V9h6.35c.7,0,1-.15,1.2-.5l-2.45-1.82ZM175.07,21h-8.58V14.72h8.58ZM157,.67a7.82,7.82,0,0,1,2.67,3.38,1.3,1.3,0,0,0,.78.3,1.13,1.13,0,0,0,1.07-1.18v0c0-1-1.07-2.35-4.4-2.7Zm.47,15.6s-.27,0-1.15,0v.52c1.3.13,1.83.33,1.83,2.73a18.11,18.11,0,0,1-.23,2.65c.1.85.48,1.27,1,1.27,1.6,0,1.6-1.67,1.6-2.2,0-1.85-.7-2.87-.73-4v-.12a9.08,9.08,0,0,1,.4-2.15c.38-1.28,2.48-7.26,3.6-10.45l-.45-.13c-4.67,10.4-5,11-5.17,11.33s-.35.52-.68.52Zm-1.6-9.1a6.67,6.67,0,0,1,2.55,3.1,1.19,1.19,0,0,0,.78.3,1.07,1.07,0,0,0,1-1.12v0c0-1-1-2.23-4.22-2.5ZM189.54,17.3h4c.68,0,1-.12,1.15-.5l-2.1-1.47-1.07,1.42h-2V14.38h2.68v.84h.3a2,2,0,0,0,1.57-.52V8.9a1.46,1.46,0,0,0,.93-.4l-2.18-1.62L192,8h-2.45V5.65h4.83c.65,0,.95-.13,1.17-.48l-2.25-1.55L192.14,5.1h-2.6V2.68c1.48-.2,2.85-.43,4-.63a2.68,2.68,0,0,0,.88.2.76.76,0,0,0,.5-.15l-2.08-2a62.89,62.89,0,0,1-10.27,2.8l.1.4c1.62,0,3.35-.2,5-.38V5.1h-5.55l.15.55h5.4V8h-2.27l-2.13-.87V15.4h.3c1,0,1.55-.45,1.55-.6v-.42h2.55v2.37h-4.82l.15.55h4.67V20c-2.37.3-4.35.5-5.47.57l1.07,2.66a1,1,0,0,0,.65-.58c5-1.3,8.55-2.35,11.08-3.17l-.05-.38c-1.85.25-3.68.47-5.38.67Zm-1.9-6.42h-2.55V8.5h2.55Zm4.58,0h-2.68V8.5h2.68Zm-7.13.55h2.55V13.8h-2.55Zm4.45,0h2.68V13.8h-2.68Zm12.68-4.85h-2.65c.05-1.78.05-3.65.07-5.58.85-.1,1-.27,1.05-.62L197.62.12V6.57h-2.85l.15.58h2.67c-.12,6.52-.92,11.8-5.2,15.82l.35.4c5.6-3.87,6.6-9.42,6.83-16.22h3c-.13,8.55-.35,13-1.08,13.73a.93.93,0,0,1-.82.27c-.58,0-1.9,0-2.7-.08l0,.4c2.13.38,2.35.73,2.35,1.91a3.46,3.46,0,0,0,2.73-1c1.1-1.1,1.35-5.37,1.45-14.8a1.59,1.59,0,0,0,1.05-.43l-2.28-1.8Z"></path></svg>