<svg viewBox="0 0 361.24 38.93" xmlns="http://www.w3.org/2000/svg"><path d="M7.6,23.19a7.09,7.09,0,0,1-2.1-.28,2.78,2.78,0,0,0-1.11,1.86c0,.75.67,1.5,2.41,1.5,1.43,0,3.09,0,4.4,0,2.61,0,5.77.91,5.77,4.79,0,4.08-4.78,7.91-10,7.91-4.47,0-6.88-2.61-7-4.9a3.13,3.13,0,0,1,1-2.26,40.15,40.15,0,0,1,3.24-2.88,5,5,0,0,1-3-2.14,3.58,3.58,0,0,1-.44-1.66,9.36,9.36,0,0,0,3.52-2.57,5.68,5.68,0,0,1-3.44-5.3c0-4.47,4-6.61,7.08-6.61a7.85,7.85,0,0,1,3.76,1A26.53,26.53,0,0,0,17,11l.2.35a4.76,4.76,0,0,1-1.42,2.06c-.63,0-1.9-.12-2.45-.16a6,6,0,0,1,1.14,3.6c0,4.31-3.56,6.37-6.88,6.37m1,5.82c-2,0-2.85.23-3.52.79a4.37,4.37,0,0,0-2,3.28C3.05,35.3,5.35,37,8.43,37c3.84,0,5.86-2,5.86-4.51a3,3,0,0,0-1.78-2.93,10.25,10.25,0,0,0-4-.51m-1-17.22c-1.78,0-3.37,1.62-3.37,4.79S5.82,22,8,22c1.79-.08,3.29-1.54,3.29-4.79s-1.47-5.38-3.72-5.38"></path><path d="M31.76,28.45h-9v-1c2.45-.27,2.69-.47,2.69-3V16.15c0-2.58-.16-2.73-2.41-3v-1a21.09,21.09,0,0,0,5.5-1.62c0,1.26,0,3,0,4.35,1.34-2,3-4.24,5-4.24a2,2,0,0,1,2.25,1.78.19.19,0,0,0,0,.08,2.65,2.65,0,0,1-1.31,2.14.83.83,0,0,1-1,0,2.54,2.54,0,0,0-1.78-1c-.83,0-2.25,1.19-3.16,3.17v7.52c0,2.61.2,2.81,3.24,3.08Z"></path><path d="M54,25.09c-2.49,3.13-5.22,3.84-6.49,3.84-4.79,0-7.72-4-7.72-8.47a10.06,10.06,0,0,1,2.58-6.89,8,8,0,0,1,5.85-2.88,6.11,6.11,0,0,1,6,6c0,.75-.16,1.11-.72,1.27-.79.15-5.81.51-10.6.67-.11,5.42,3.17,7.6,6,7.6a6.69,6.69,0,0,0,4.55-2ZM47.19,12.15c-1.82,0-3.59,1.66-4.15,4.91,2.26,0,4.71,0,6.88-.12.64,0,.88-.2.88-.8a3.7,3.7,0,0,0-3.41-4l-.19,0"></path><path d="M73.74,25.09c-2.49,3.13-5.22,3.84-6.48,3.84-4.79,0-7.72-4-7.72-8.47a10.1,10.1,0,0,1,2.57-6.89A8,8,0,0,1,68,10.69a6.1,6.1,0,0,1,6,6c0,.75-.16,1.11-.71,1.27-.79.15-5.82.51-10.6.67-.12,5.42,3.17,7.6,6,7.6a6.69,6.69,0,0,0,4.55-2ZM67,12.15c-1.82,0-3.6,1.66-4.16,4.91,2.26,0,4.71,0,6.89-.12.63,0,.87-.2.87-.8a3.7,3.7,0,0,0-3.4-4l-.2,0"></path><path d="M90.05,28.45v-1c2.33-.23,2.57-.51,2.57-3.28V17.65c0-2.73-1-4.63-3.6-4.63a6.84,6.84,0,0,0-4.39,2.06v9.26c0,2.73.23,2.81,2.57,3.08v1H78.73v-1c2.61-.27,2.85-.47,2.85-3.08V16.18c0-2.57-.28-2.69-2.38-3v-1a20.15,20.15,0,0,0,5.43-1.58v3.12c.79-.55,1.66-1.15,2.69-1.82a6,6,0,0,1,3.24-1.19c3.17,0,5.1,2.34,5.1,6.14v7.52c0,2.69.24,2.81,2.5,3.08v1Z"></path><path d="M125.62,11.08a4.32,4.32,0,0,1,1.7-.4c4.19,0,7.71,3.64,7.71,8.35a10,10,0,0,1-9.73,9.89,14.53,14.53,0,0,1-6-1.42c0-1,0-2.06,0-3.13V5.26c0-2.49-.12-2.73-2.66-3V1.35A30.89,30.89,0,0,0,122.37,0V12.47ZM122.37,23.9a3.41,3.41,0,0,0,.2,1.38,4.53,4.53,0,0,0,4,2.14c3.4,0,5.07-2.93,5.07-7.4s-2.7-7.16-6-7.16a7.52,7.52,0,0,0-3.2.75Z"></path><path d="M154.19,25.09c-2.5,3.13-5.23,3.84-6.49,3.84-4.79,0-7.72-4-7.72-8.47a10.1,10.1,0,0,1,2.57-6.89,8,8,0,0,1,5.86-2.88,6.1,6.1,0,0,1,6,6c0,.75-.15,1.11-.71,1.27-.79.15-5.82.51-10.6.67-.12,5.42,3.17,7.6,6,7.6a6.69,6.69,0,0,0,4.55-2Zm-6.77-12.94c-1.82,0-3.6,1.66-4.15,4.91,2.25,0,4.7,0,6.88-.12.63,0,.87-.2.87-.8a3.7,3.7,0,0,0-3.4-4l-.2,0"></path><path d="M171.4,28.93a3,3,0,0,1-1.86-.75,3.59,3.59,0,0,1-.95-1.79c-1.58,1.07-3.52,2.54-4.71,2.54a4.82,4.82,0,0,1-4.79-4.83c0-1.9,1.07-3.17,3.21-3.88,2.37-.83,5.34-1.86,6.21-2.57v-.83c0-2.81-1.43-4.43-3.48-4.43a2.23,2.23,0,0,0-1.82.87,7.27,7.27,0,0,0-1.07,2.57,1.1,1.1,0,0,1-1.11.87,1.83,1.83,0,0,1-1.7-1.7c0-.52.47-1,1.27-1.54a16.66,16.66,0,0,1,5.65-2.78,5.53,5.53,0,0,1,3.29,1.07,5.6,5.6,0,0,1,2,4.63v7.56c0,1.82.67,2.42,1.38,2.42a3,3,0,0,0,1.39-.44l.4,1ZM168.51,19c-.83.43-2.77,1.22-3.68,1.66-1.46.67-2.41,1.42-2.41,2.85a2.88,2.88,0,0,0,2.72,3h.17a5,5,0,0,0,3.2-1.42Z"></path><path d="M197.35,27.54a41.83,41.83,0,0,0-5.93,1.39V25.88c-2.1,1.78-3.88,3-6,3-2.61,0-4.9-1.62-4.9-5.85V15.31c0-2.1-.32-2.33-1.31-2.57l-1.07-.16v-1a45.27,45.27,0,0,0,5.58-.71c-.12,1.23-.12,3-.12,5.74V22c0,3.48,1.78,4.47,3.57,4.47a6.06,6.06,0,0,0,4.27-1.9V15.35c0-2.13-.48-2.41-1.82-2.61l-1.23-.16v-1a48.08,48.08,0,0,0,6.1-.71V24.1c0,2,.31,2.25,1.82,2.33l1.07.08Z"></path><path d="M209.15,28.41a3.94,3.94,0,0,1-1.66.52c-2.5,0-3.84-1.55-3.84-4.67V12.74h-2.73l-.12-.43,1-1.15h1.86V7.8c.75-.75,1.9-1.79,2.61-2.58l.55.08c0,1.55-.12,3.84-.12,5.86h4.51a1.26,1.26,0,0,1-.23,1.58h-4.28V22.87c0,3.21,1.27,3.8,2.34,3.8a5.29,5.29,0,0,0,2.37-.59l.36,1Z"></path><path d="M234.67,12.19c-2,.32-2.45.63-3.4,2.85s-2.1,5-4.83,11.91c-2.53,6.29-3.28,8.74-3.92,10.8-.23.83-.63,1-1.14,1A2.27,2.27,0,0,1,219,36.92c0-.52.28-.83.87-1.39a8,8,0,0,0,2.69-3c.83-1.67,1.43-3,1.63-3.57a2.21,2.21,0,0,0-.08-1.58c-1.55-4.47-3.68-9.34-4.83-12.19-.91-2.21-1.23-2.69-3.4-3v-1h7.91v1c-1.86.28-2,.67-1.5,2.13l3.84,9.82c1.11-2.81,2.73-7.28,3.52-9.7.48-1.5.2-1.93-2.1-2.25v-1h7.12Z"></path><path d="M264.58,28.93a3,3,0,0,1-1.86-.75,3.59,3.59,0,0,1-1-1.79c-1.58,1.07-3.52,2.54-4.71,2.54a4.83,4.83,0,0,1-4.79-4.83c0-1.9,1.07-3.17,3.21-3.88,2.37-.83,5.34-1.86,6.21-2.57v-.83c0-2.81-1.42-4.43-3.48-4.43a2.23,2.23,0,0,0-1.82.87,7.66,7.66,0,0,0-1.07,2.57,1.08,1.08,0,0,1-1.11.87,1.83,1.83,0,0,1-1.7-1.7c0-.52.48-1,1.27-1.54a16.62,16.62,0,0,1,5.66-2.78,5.52,5.52,0,0,1,3.28,1.07,5.6,5.6,0,0,1,2,4.63v7.56c0,1.82.67,2.42,1.39,2.42a3,3,0,0,0,1.38-.44l.4,1ZM261.69,19c-.83.43-2.77,1.22-3.68,1.66-1.46.67-2.41,1.42-2.41,2.85a2.89,2.89,0,0,0,2.72,3h.17a5,5,0,0,0,3.2-1.42Z"></path><path d="M286.86,24.89c-1.74,2.3-4.35,4-6.69,4a7.94,7.94,0,0,1-8-7.91c0-.11,0-.22,0-.32a9.39,9.39,0,0,1,4-7.76,10.61,10.61,0,0,1,5.93-2.26,6,6,0,0,1,3.68,1.07,1.26,1.26,0,0,1,.6,1.11A2,2,0,0,1,285,14.64c-.2,0-.35-.08-.75-.4a5.75,5.75,0,0,0-4-1.66c-2.61,0-4.91,2.18-4.91,6.33,0,5.5,3.76,7.36,6,7.36a6.38,6.38,0,0,0,4.83-2.17Z"></path><path d="M299.13,28.41a3.93,3.93,0,0,1-1.67.52c-2.49,0-3.83-1.55-3.83-4.67V12.74H290.9l-.12-.43,1-1.15h1.86V7.8c.75-.75,1.9-1.79,2.61-2.58l.55.08c0,1.55-.12,3.84-.12,5.86h4.51a1.27,1.27,0,0,1-.23,1.58h-4.28V22.87c0,3.21,1.27,3.8,2.34,3.8a5.26,5.26,0,0,0,2.37-.59l.36,1Z"></path><path d="M306.8,28.45v-1c2.49-.27,2.77-.47,2.77-3.16V16.11c0-2.46-.12-2.61-2.49-3v-.91a25.41,25.41,0,0,0,5.54-1.58V24.26c0,2.69.27,2.89,2.85,3.16v1ZM310.88,6.6a2.11,2.11,0,0,1-2.06-2,2.09,2.09,0,0,1,2.07-2.1h0a2,2,0,0,1,2,2v.11a2,2,0,0,1-2,2.05h0"></path><path d="M328.52,10.69a8.46,8.46,0,0,1,8.56,8.36c0,.15,0,.3,0,.46,0,6.37-4.71,9.42-8.58,9.42a8.64,8.64,0,0,1-8.71-8.57v-.22a9,9,0,0,1,8.62-9.45h.12M328.05,12c-2.45,0-4.63,2.41-4.63,6.93,0,5.06,2.26,8.66,5.5,8.66,2.46,0,4.51-1.78,4.51-7.2,0-4.59-1.9-8.39-5.38-8.39"></path><path d="M353.14,28.45v-1c2.33-.23,2.56-.51,2.56-3.28V17.65c0-2.73-1-4.63-3.6-4.63a6.88,6.88,0,0,0-4.39,2.06v9.26c0,2.73.24,2.81,2.57,3.08v1h-8.46v-1c2.61-.27,2.84-.47,2.84-3.08V16.18c0-2.57-.27-2.69-2.37-3v-1a20.09,20.09,0,0,0,5.42-1.58v3.12c.79-.55,1.66-1.15,2.69-1.82a6,6,0,0,1,3.25-1.19c3.16,0,5.1,2.34,5.1,6.14v7.52c0,2.69.23,2.81,2.49,3.08v1Z"></path></svg>